<svg height="864" viewBox="0 0 936 648" width="1248" xmlns="http://www.w3.org/2000/svg" xmlns:xlink="http://www.w3.org/1999/xlink"><defs><style>*{stroke-linecap:butt;stroke-linejoin:round}</style></defs><g id="figure_1"><path d="M0 648h936V0H0z" style="fill:#fff" id="patch_1"/><g id="axes_1"><path d="M117 576.72h725.4V77.76H117z" style="fill:none" id="patch_2"/><path clip-path="url(#pd9f3e8335b)" d="m149.973 340.626 55.276-.113 6.427-.276 1.286-.116 1.285-.228 1.286-.374 2.57-1.121 1.286-.81 2.571-1.898 3.856-3.75 1.286-1.465 2.57-2.065 1.286-1.355 3.857-3.046 1.285-.857 2.571.086 1.286.335 2.57 1.599 1.286 1.105 1.286 1.876 1.285.885 7.713 10.268 2.571 1.75 2.571 1.372 1.286.295 1.285-.427 1.286-.983 1.285.014 1.286-.1 1.285-.291 3.856.17 1.286.17 1.285-.128 1.286.3 1.285-.025 1.286.089 1.285.423 2.571 2.32 1.286.756 2.57.073 1.286.113 2.571-.341 1.286-.39 1.285.074 1.286-.57 1.285.04 1.286-.416 1.285-.068 2.571-.743 1.286-.716 1.285-.169 2.571.172 1.286.178 3.856-.67 1.286.147 1.285-.337 2.571.037 1.285-.69 1.286-.054 1.285.317 2.571.091 1.286-.752 1.285-.504 1.286.415 1.285-.176 2.571.102 1.286-.438 1.285-.164 1.286-.602 1.285-.123 1.286-.793 1.285-.97 1.286-1.47 1.285-1.272 1.286-.887 1.285-1.207 1.286-1.874 1.285-.78 1.286-1.32 2.57-1.505 2.572-2.063 1.285-.658 1.286-.106 2.57.473 1.286.469 1.286.194 1.285.92 1.286.378 2.57-.037 1.286-.546 1.285.19 1.286.428 1.285-.147 1.286.934 1.285.626 1.286.083 1.285.994 1.286.63 1.285.846 1.286 1.048 1.285.887 1.286.668 1.285 2.209 2.571 2.997 1.286 1.24 1.285 1.764 1.286.747 1.285 1.222 1.286.826 2.57 2.016 1.286 1.514 1.286.602 1.285 1.102 1.286.62 1.285-.602 1.286-.041 1.285-.207 1.286-.367 1.285.25 1.286-.288 1.285-.57 1.286.305 1.285-.214 1.285.058 1.286-.188 1.285-.356 1.286.264 1.285.432 1.286.784 1.285-.334 1.286.404 1.285-.184 1.286-.318 1.285.083 1.286-.427 1.285-.78 1.286-.6 1.285-1.568 1.286.168 1.285-.923 1.286-1.673 1.285-.352 1.286-.666 1.285 1.486 1.286 1.157 1.285.149 1.286.829 2.57.502 1.286-.236 1.286-1.637 1.285-.565 1.286-1.97 1.285-.676 1.286.441 1.285-.53 1.286-.674 1.285-3.076 1.286-1.39 1.285-.146 1.285-.861 1.286-1.07 1.285-.423 1.286.252 1.285 3.068 1.286.415 2.57 1.2 1.286.243 1.286-.249 1.285.55 1.286-.732 1.285-.104 1.286-.908 1.285-1.054 1.286.032 1.285-.312 1.286-.919 1.285-.334 2.571-1.21 1.286-.811 1.285-1.31 1.286.417 1.285-.559 1.286.799 1.285-.737 1.286.688 1.285.02 1.286-.99 1.285-2.297 1.286-.22 1.285-2.47 1.286-.237 1.285-1.132 1.285-.687 1.286-.321 1.285-.473 1.286-1.191 1.285-.204 1.286-1.238 2.57-4.47 1.286-1.898 2.571-3.484 1.286-2.852 1.285-3.511 1.286-1.796 1.285-2.801 1.286-3.57 1.285-2.875 2.571-3.563 2.571-.74 1.286.715 1.285 1.632 1.286 3.017 2.57 4.92 1.286 3.255 1.286 2.773 1.285 13.274 1.286 4.364 1.285 5.613 1.286 3.815 1.285 5.033 1.286 1.623 1.285.924 1.286-9.514 1.285-.855 1.285-4.333 1.286-3.16 1.285-2.492 1.286-2.016 1.285-1.071 1.286-9.63 1.285-4.414 1.286-2.339 1.285-1.776 1.286-.872 1.285 2.4 1.286-.474 1.285 10.704 1.286 5.742 1.285 7.11 1.286 4.198 3.856 11.393 1.286 5.41 1.285 20.872 1.286-2.212 1.285 4.2 1.286.928 1.285-1.67 1.286 2.504 1.285-2.62 1.286-7.917 1.285-9.25 1.286-5.653 1.285-6.51 1.286-3.715 1.285-4.614 1.286-9.788 1.285-31.798 1.286 6.557 1.285-3.594 1.285 1.361 1.286.464 1.285 2.913 1.286 8.198 1.285 11.226 1.286 13.029 1.285 9.2 1.286 15.491 2.57 15.479 1.286 10.294 1.286 21.125 1.285-.567 1.286 4.913 1.285-4.287 1.286 3.272 1.285.323 1.286-1.728 1.285-3.556 1.286-1.634 1.285-2.336 1.286-7.376 2.57-1.664 1.286-.89 1.286-1.379 1.285-.568 1.286-1.455 1.285 6.732 1.286-1.825 2.57-.924 1.286.306 1.286-1.446 1.285.797 1.286 2.406 1.285-.37 1.285-1.127 1.286-.7 2.571-2.87 1.285-1.875 1.286-5.555 1.285-2.746 1.286-3.061 1.285-2.73 1.286-3.16 1.285-1.386 1.286-2.013 1.285-3.657 2.571-3.644 1.286-2.434 2.57-1.867 1.286.235 1.286-3.52 1.285.955 2.571 2.453 1.286.192 1.285-.002 1.286-.23 1.285 3.62 1.286-1.351 3.856-2.73 1.286-1.147 1.285-.737 1.286 4.214 1.285-.414 1.286-3.076 1.285-1.418 1.285-1.612 2.571-2.69 1.286-5.587 1.285-.717 1.286 1.33 1.285-1.047 3.857.806 1.285-.87 1.286.26 1.285 1.655 1.286.564 1.285.092 1.286.592 1.285-.087 1.286 2.165 1.285-1.032 1.286-1.531 1.285 1.553 1.286-.28 1.285 1.498 1.286-.116 1.285.788 1.286 1.678 1.285 1.927 1.286 1.122 1.285 2.885 1.286.422 2.57 3.896 1.286 2.564 1.286 1.082 2.57.412 1.286-.542 1.285-.274 3.857-1.341 1.285.255 1.286-.371 1.285.804 1.286-.053 1.285-.998 1.286-.234 2.57.226 1.286.13 1.286-.114 1.285.174 1.286 1.042 1.285-.497 1.286-.357 1.285-.111 1.286.099 1.285-.038 1.286-.496 1.285-1.027 1.286-.198 1.285-.4 1.286-.773 1.285.084 1.286.227 1.285.114 1.286 1.332 1.285-.625 2.571-.078 1.286 3.53 1.285-1.01 1.286-.133 1.285-1.83 1.285.36 1.286-.965 1.285.195 1.286-5.038L794 345.4l1.286-.769 1.285-1.645 1.286.218 1.285-.036 1.286-.484 1.285-4.352 1.286-.036 1.285.15 1.286 1.377 1.285-.979 1.286.446 1.285-.658h0" style="fill:none;stroke:#000;stroke-linecap:round;stroke-width:1.5" id="line2d_1"/><path clip-path="url(#pd9f3e8335b)" d="m149.973 340.624 56.561-.104 3.857-.251 2.57-.623 1.286-.58 1.286-1.165 1.285-.533 1.286-1.605 1.285-2.14 1.285-3.275 1.286-2.843 1.285-2.17 1.286-8.358 3.856-20.368 1.286-8.69 1.285-4.414 1.286-10.37 1.285-2.161 1.286-8.571 1.285-5.86 1.286-2.181 1.285 2 1.286-2.04 1.285 4.279 1.286 7.391 2.57 19.56 1.286 5.283 1.286 12.264 1.285 1.219 1.286 14.105 1.285.635 2.571 20.526 1.286 3.624 1.285-1.686 1.286 7.445 1.285-7 1.286 1.616 1.285.77 1.286-4.023 1.285 2.646 1.286 1.95 1.285 7.066 1.285.986 1.286 9.41 1.285-2.87 1.286.735 1.285 2.592 1.286 5.4 1.285-1.22 1.286 9.218 1.285 1.856 1.286-.866 2.57 9.607 1.286-4.807 1.286 2.37 1.285-2.281 1.286-4.39 1.285 3.67 1.286-1.365 1.285-1.106 1.286-3.547 1.285-2.011 1.286-6.498 1.285-2.212 1.286-2.96 1.285-.374 1.286-5.357 1.285 2.533 1.286-4.734 1.285.162 1.286-2.765 1.285-1.547 1.286-3.195 1.285.043 1.286 2.927 1.285.855 1.286 3.52 1.285 2.53 1.285 1.04 1.286-2.29 1.285 1.435 1.286-2.425 1.285.1 1.286-2.123 1.285.41 1.286.928 1.285 1.915 1.286-.843 1.285-1.37 2.571-.53 1.286-2.548 1.285-1.021 1.286-.402 1.285-2.313 1.286-.74 1.285-1.252 1.286.564 1.285-6.753 1.286-1.767 1.285-.26 1.286.016 1.285.279 1.286-.202 1.285-1.454 1.286 6.428 1.285.167 1.286-.406 1.285-.109 1.286-.263 1.285.48 1.286-.426 1.285 7.554 1.286.105 1.285-.345 1.285.12 1.286-.766 2.57-.328 1.286-6.653 1.286 1.184 1.285.27 1.286 1.664 1.285.63 1.286-.108 1.285.178 1.286-.844 1.285-1.686 1.286-.812 1.285-2.19 1.286-.982 1.285-.247 2.571.298 1.286-2.089 1.285.294 1.286-.72 1.285.546 2.571.244 1.286-.585 1.285 2.855 1.286.97 1.285 1.985 1.286 1.064 1.285.394 1.286-.089 1.285-1.238 1.286.085 1.285-.208 1.286.568 1.285-.924 1.285-.054 1.286.15 1.285 2.808 1.286-.193 1.285-.975 1.286-.433 1.285.314 1.286.452 1.285.762 1.286.29 1.285.55 1.286.347 1.285-1.833 1.286-.27 1.285-.546 1.286-.781 1.285-2.425 1.286-1.435 1.285 1.063 1.286.445 1.285-.27 1.286.092 1.285-.402 1.286.623 1.285.166 1.286-1.176 1.285.607 1.286.472 1.285-.506 1.286.042 1.285-.286 1.286.302 1.285-.14 1.286-.526 1.285-.29 1.286-.166 1.285.012 1.285.197 1.286-.14 1.285-.638 1.286-1.001 1.285-.639 1.286.5 1.285-.925 1.286.367 2.57-1.407 1.286.881 1.286.41 1.285-.707 1.286.839 1.285-2.665 1.286-.248 1.285 1.44 1.286.463 1.285.809 1.286-1.273 1.285-.503 1.286 1.459 1.285.955 1.286.491 1.285-2.305 1.286-2.982 1.285.669 1.286-1.122 1.285 1.907 1.286-.425 1.285-4.092 1.286 1.048 1.285-.255 1.286-1.16 1.285-.813 1.285-2.765 1.286-3.814 1.285 2.382 1.286-.348 1.285 2.209 1.286-.685 1.285-2.638 1.286-.854 1.285.193 1.286-3.342 1.285-1.609 1.286-2.576 1.285-5.005 1.286.07 1.285-4.417 1.286-1.18 1.285-6.563 1.286-7.391 1.285-.035 1.286-.279 1.285-.835 1.286-1.075 1.285-.17 1.286 5.89 1.285 3.249 1.286-2.6 1.285 6.591 1.286 2.387 1.285 4.792 1.286 2.967 1.285 7.805 1.286 10.265 1.285 2.135 1.286-.317 1.285 2.881 1.286 1.431 1.285-5.179 1.285-4.664 1.286-10.68 1.285 3.826 1.286-2.402 1.285-.6 1.286-.139 1.285 9.6 1.286-6.896 1.285 6.757 1.286-6.289 1.285 7.12 1.286-3.844 1.285 4.583 1.286 5.114 1.285 13.811 1.286 4.526 1.285 7.735 1.286.901 1.285 4.07 1.286-.473 1.285-12.288 1.286 4.286 1.285 3.786 1.286 6.429 1.285-2.182 1.286 5.14 1.285-4.861 1.286-.754 1.285-13.774 1.286-1.272 1.285-193.292 3.857-22.936 1.285-1.376 1.286-8.092 1.285-18.685 1.285 175.318 1.286 2.831 1.285-8.188 1.286 3.013 1.285 4.243 1.286 11.31 1.285 7.194 1.286 192.738 1.285 9.925 1.286 13.82 1.285 17.122 1.286 14.253 1.285 2.904 1.286 7.117 1.285-178.091 1.286-7.067 1.285 10.27 1.286-.33 1.285-9.445 2.571 3.62 1.286-3.31 1.285 6.447 1.286.232 1.285-2.27 1.286-1.574 1.285 7.399 1.286.356 1.285 4.811 1.286-1.075 1.285-10.397 1.286-2.587 1.285 8.826 1.286-4.336 1.285 4.564 1.286 1.888 1.285-6.506 1.285-8.656 2.571-8.312 1.286.445 1.285.7 1.286-8.56 1.285 3.49 1.286 11.796 1.285.263 1.286-5.101 1.285-7.775 1.286-9.758 1.285-6.01 1.286-.29 1.285-3.226 1.286.008 2.57-3.795 1.286-1.032 1.286 8.099 1.285-5.075 1.286-4.158 1.285-1.245 1.286 1.18 1.285 4.3 1.286-1.667 1.285-.297 1.286 2.088 1.285.14 1.286-4.023 1.285-1.342 1.286-5.628 1.285.782 1.286-4.502 1.285-.964 1.286 1.16 1.285 4.445 1.285-2.665 1.286 1.5 1.285-1.844 1.286.174 1.285-1.853 1.286 3.733 1.285-3.891 2.571 9.704 1.286 2.444 1.285 4.328 1.286 8.691 1.285-3.052 1.286 2.894 1.285 5.967 1.286 2.333 1.285 6.501 1.286 3.191 1.285-.665 1.286.967 1.285 8.037 1.286-4.865 1.285-2.104 2.571-3.725 1.286-.178 1.285 2.557 1.286-2.275 1.285 4.684 1.286 1.133 1.285 4.027 1.286 41.9 1.285 3.7 1.286 2.654 1.285 2.212 1.286 4.506 1.285 5.868 1.285.998 1.286-39.765 1.285.02 1.286-1.958 1.285.553 1.286-2.54 1.285-.774 1.286-2.305 1.285-40.059 1.286-1.052 1.285 2.626 1.286-.004 1.285-1.288 1.286-4.602 1.285-1.648 1.286 37.873 1.285-4.656 1.286 1.779 1.285-3.729 1.286-4.715 1.285-2.595 1.286-3.446 1.285-2.263 1.286-.723 1.285-7.712 1.286-3.164 1.285-.998 1.286.46 1.285-.058 1.286.39 1.285 1.22 1.286.309 1.285.951 1.286 1.168 1.285-1.435 1.286.267 2.57-2.127 1.286.155 1.285-.882 1.286-1.42 1.285-.054 1.286-.205 1.285.279 1.286-1.103 1.285-.855 1.286-.034 1.285.135 1.286.557 1.285.1 1.286.391 1.285.213 1.286-.286 1.285.104h0" style="fill:none;stroke:#009e73;stroke-linecap:round;stroke-width:1.5" id="line2d_2"/><path clip-path="url(#pd9f3e8335b)" d="m149.973 340.624 50.134-.11 6.427-.295 1.286-.11 1.285-.516h1.286l1.285-1.032 1.286-.774 1.285-1.622 1.286-5.933 1.285-1.474 1.286-.221 1.285-3.427 1.285-4.496 2.571-4.902 1.286-8.18 1.285-9.25 1.286-11.02 1.285-8.696 1.286-4.902 1.285-11.571 1.286-15.552 1.285-2.063 1.286-15.736 1.285-20.453 1.286-.074 1.285-8.807 1.286-6.45 1.285 11.535 1.286 13.23 1.285 16.067 1.286 28.487 1.285 8.881 1.286 19.458 1.285 24.765 1.286 14.225 1.285 4.643 1.286 22.074 1.285 25.612 1.286 1.548 1.285 10.982 1.286 8.587 1.285-5.602 1.286 2.285 1.285-1.548 1.286-19.716 1.285 8.992 2.571-10.06 1.285 7.96 1.286 10.724 1.285-1.364 1.286 3.575 1.285 2.58 1.286 3.906 1.285-.737 1.286 1.584 1.285-4.532 1.286-.738 1.285 4.57 1.286-6.007 1.285-8.66 1.286-3.059 1.285-4.938 1.286-1.474 1.285-4.017 1.286-6.891 1.285-.221 1.286-1.511 1.285 1.142 1.286-2.653 1.285-7.739 1.286-2.764 1.285-.479 1.286-3.943 1.285.11 1.286-4.2 1.285-2.396 1.286-8.44 1.285.738 1.286-.627 2.57 4.828 1.286 1.142 1.286-1.695 1.285 8.771 1.285-1.29 1.286-2.837 1.285 2.284 1.286.11 1.285-.183 1.286.479 1.285 1.842 1.286.958 1.285-2.21 2.571-5.123 1.286-1.806 1.285 1.843 1.286-2.654 1.285-.147 1.286 2.727 1.285-1.548 1.286-.037 1.285.922 1.286 1.842 1.285-10.76 1.286-4.054 1.285 1.88 1.286-2.654 1.285.368 1.286.074 1.285-2.248 1.286 10.135 1.285 1.216 1.286-1.917 1.285.627 1.286-.442 1.285.22 1.286-1.215 1.285 10.65 1.286 2.985 1.285-.295 1.285 3.833 1.286.147 1.285.774 1.286 1.253 1.285-10.282 1.286.037 1.285.958 1.286.258 1.285-.921 1.286-1.069 1.285.295 1.286.442 1.285-.553 1.286-.995 1.285-2.653 1.286-.368 1.285-1.77 1.286-1.473 1.285-.516 1.286-2.617 1.285.037 1.286-.59 1.285 2.1 1.286.222 1.285 1.548 1.286.074 1.285 1.768 1.286-.663 1.285.627h1.286l1.285 2.248 1.286-.222 1.285-.884 1.286-2.285 1.285-.479 1.286-1.437 1.285-2.727 1.285.331 1.286.59 1.285 3.538 2.571 4.606 1.286 2.985 1.285 2.064 2.571-2.506 1.286-1.953 1.285 3.464 1.286-.258 1.285.184 1.286 1.253 1.285-1.29 1.286-.7 2.57-7.628 1.286.553 1.286-2.248 1.285-1.511 1.286 1.99 1.285 1.327 1.286 2.763 1.285-.147 1.286.184 1.285 1.069 1.286.59 1.285 1.695 1.286-.553 1.285-.737 1.286.258 1.285-2.174 1.286.147 1.285-.553 1.286-3.206 1.285.332 1.285.663 1.286.295 1.285.037 1.286-.81 2.57-.259 2.572-.516 1.285-.958 1.286-.405 2.57-.516 1.286 1.142 1.286-.774 1.285-1.584 1.286-.848 1.285-.405 2.571-.295 1.286-2.543 1.285-.295 1.286.737 1.285.922 1.286 1.216 1.285-1.253 1.286-1.917 1.285.774 1.286-1.437 1.285.442 1.286.185 1.285-2.285 1.286.147 1.285-.22 1.286.073 1.285 1.658 1.285-.368 1.286-4.386 1.285.442 1.286-.294 1.285 1.068 1.286-1.105 1.285-2.432 1.286 1.253 1.285.331 1.286-4.496 1.285-1.105 1.286 1.068 1.285-2.91 1.286-4.755 1.285-10.024 1.286-.663 1.285-2.616 1.286-5.565 1.285-.737 1.286-2.285 1.285.48 1.286-2.433 1.285.553 1.286 5.343 1.285 1.77 1.286-8.219 2.57 13.71 1.286 12.123 1.286-2.506 1.285 10.54 1.286 3.538 1.285 5.749 1.286-1.106 1.285 1.511 1.286-1.842 1.285-2.875 1.285-9.065 1.286-1.511 1.285 5.97 1.286.958 1.285 1.216 1.286 1.843 1.285 19.752 1.286-9.213 1.285 9.987 1.286-6.191 1.285 5.823 1.286-3.022 1.285 5.196 1.286-1.511 1.285 17.652 1.286 1.585 1.285 7.038 1.286-2.985 2.57-12.05 1.286-13.783 1.286 2.617 1.285-1.18 1.286 2.138 1.285-.48 1.286 7.26 1.285-4.9 1.286 2.763 1.285-11.535 1.286-2.763 1.285-166.313 1.286-11.83 1.285-6.044 1.286-1.179 1.285-5.97 1.286-7.665 1.285-13.746 1.285 156.916 1.286 9.508 1.285-6.634 1.286-.405 1.285 4.754 1.286 6.707 1.285 4.606 1.286 164.213 1.285 6.891 2.571 27.123 1.286 15.92 1.285 1.437 1.286 8.44 1.285-159.164 1.286-9.471 1.285 7.886 1.286 3.096 1.285-7.629 1.286 3.354 1.285.516 1.286-3.612 1.285 10.65 1.286 3.538 1.285-4.975 1.286-9.655 1.285 5.786 1.286-.369 1.285 6.007 1.286-1.474 1.285-11.534 1.286.59 1.285 8.733 1.286-2.727 1.285 4.017 1.286 4.459 1.285-12.825 1.285-7.112 1.286-2.727 1.285 4.017 1.286.958 1.285 1.437 1.286-11.608 1.285 3.98 1.286 8.292 1.285-4.68 1.286-12.604 1.285-5.38 1.286-7.113 1.285-9.213 1.286 7.518 1.285-7.334 1.286 2.506 1.285-.479 1.286 5.454 1.285-4.127 1.286 16.73 1.285-7.701 1.286 3.722 1.285-.258 1.286 8.439 1.285-3.575 1.286-1.179 1.285 2.727 1.286.995 1.285 1.364 1.286-2.47 1.285-5.527 1.286-12.677 1.285 3.906 1.286-9.913 1.285 2.911 1.286-1.843 1.285 8.44 1.285-7.85 1.286 4.901 1.285-4.496 1.286 2.138 1.285-2.285 1.286-1.18 1.285-7.406 1.286 11.313 1.285 6.78 1.286 5.344 1.285 2.248 1.286 7.924 1.285-.111 1.286.553 1.285 12.05 1.286 6.707 1.285 8.108 1.286 3.722 1.285 1.842 1.286 10.172 1.285 7.923 1.286-8.07 1.285-1.954 1.286-2.58 1.285 1.511 1.286-3.5 1.285.184 1.286-2.396 1.285 1.364 1.286-1.548 1.285 1.069 1.286 2.874 1.285 1.29 1.286-.81 1.285 1.105 1.286 2.911 1.285 5.344 1.285-.922 1.286-5.675 1.285.442 1.286-42.6 1.285-8.476 1.286-3.096 1.285-1.843 1.286-2.137 1.285-4.46 1.286-.773 1.285 39.579 1.286 10.355 1.285-2.395 1.286-5.49 1.285-2.212 1.286 2.838 1.285-2.727 1.286 42.49 1.285 7.15 1.286-2.802 1.285.7 1.286.111 1.285-1.4 1.286-1.953 1.285-44.554 1.286-13.451 1.285.995 1.286.368 1.285.184 1.286.774 1.285.369 1.286-.774 2.57-.11 1.286-3.096 1.286-1.106 1.285-.479 1.285.369 2.571-.332 1.286-1.585 1.285.443 2.571-1.364 1.286-1.843 1.285-.958 1.286-.479 1.285.11 1.286 1.033 1.285.663 2.571.737 2.571-.848h0" style="fill:none;stroke:#d55e00;stroke-linecap:round;stroke-width:1.5" id="line2d_3"/><path clip-path="url(#pd9f3e8335b)" d="M149.973 340.624h64.274l1.286-3.753h2.57l1.286-1.877h1.285l2.571-11.262 1.286-7.508 1.285-1.877 1.286-5.63 1.285-1.877 2.571-18.77 1.286-7.507 1.285 11.261 1.286-9.385 1.285-24.4 1.286-15.015 1.285 3.754 1.286 11.261 1.285 13.139 1.286-7.508h1.285l1.286 31.908 1.285 22.523 1.286 3.754 1.285 11.262 1.286 5.63 1.285 1.877 1.286 13.139 1.285 22.523 1.286 16.893 1.285-1.877 1.286-3.754 1.285-9.385 1.286 15.016 1.285-1.877 1.286-24.4 1.285-20.647 1.286 5.631 1.285 3.754 1.285 7.508 1.286-5.631 1.285 3.754h2.571l1.286 7.507 1.285-1.877 2.571 11.262 1.286 7.508 1.285 3.754h1.286l1.285-7.508 1.286-13.139 1.285-7.507 1.286-5.631 1.285-7.508 1.286 1.877h1.285l1.286-1.877 1.285 5.63 1.286-1.876 1.285-3.754 1.286-1.877 1.285-5.63h1.286l2.57 15.015 2.572 3.754 1.285-3.754h2.571l1.286-13.139 1.285-5.63 2.571-3.754 1.285 1.877h2.571l1.286 5.63h1.285l1.286-1.877h1.285l1.286 1.877h2.57l1.286 5.631h1.286l1.285 1.877h1.286l1.285-1.877h2.571l1.286-9.384 1.285 1.876h1.286l1.285-1.876h3.857l1.285-3.754h1.286l1.285-1.877 1.286 1.877h5.142l1.285-3.754 1.286 3.754h1.285l1.286-1.877h2.57l1.286 11.261h3.856l1.286 1.877h2.57l1.286 7.508 1.286-1.877 1.285-3.754h1.286l1.285 3.754h2.571l1.286-9.385 1.285 5.631 1.286 1.877 1.285-1.877 1.286-3.754h2.57l1.286-3.754 1.286 3.754h1.285l1.286 3.754h3.856l1.286 3.754 1.285-5.63 1.286-1.878h1.285l1.286-1.877h2.57l1.286-1.877h1.285l1.286 3.754 1.285-3.754h5.142l1.286-3.753 1.285-1.877h1.286l1.285 3.754h3.857l1.285 3.753 1.286-7.507 1.285 3.754h5.142l1.286-1.877 1.285 9.384h1.286l1.285-1.877h3.857l2.57 3.754 1.286-3.754h3.857l1.285-5.63 1.286 5.63 1.285-5.63 1.285 1.876h3.857l1.285 7.508 1.286-5.63 1.285 5.63 1.286 1.877h5.142l1.285-1.877 1.286-11.261 1.285-18.77 1.286-3.754h2.57l1.286-5.63 1.286-9.385 1.285 5.63 1.286 7.508 3.856-16.892 1.286 3.754 1.285 13.138 1.286 3.754 1.285 26.277 1.286 13.139 2.57 11.262 1.286-7.508 1.286 1.877 1.285-9.385 1.285-16.892 1.286-3.754 2.571 11.261 1.285-11.261 1.286-5.631 1.285 1.877 1.286-5.63 1.285-9.386 3.857-16.892 1.285 1.877 1.286 15.015 1.285-16.892 1.286 5.63h2.57l1.286 16.893 1.286-20.646 1.285-18.77 1.286 13.14 1.285-13.14 1.286-9.384h1.285l1.286 16.892 1.285 13.139 1.286-1.877 1.285 41.293 1.286 30.03 1.285-28.154h1.286l1.285-5.63 1.286 16.892 1.285 13.139 1.286-46.924 1.285-31.908 1.285 26.277h1.286l1.285 1.877 1.286-16.892h1.285l1.286-18.77 1.285 1.878 1.286 48.8h1.285l1.286-5.63 1.285 3.753 1.286 5.63 1.285 63.816 1.286 30.031 1.285-16.892h1.286l1.285-30.03 1.286 13.138 1.285-48.8 1.286-5.631 1.285 3.753 1.286-20.646h2.57l1.286-1.877 1.286 18.77 1.285-45.047 1.286 15.016h2.57l1.286 18.769 1.286-28.154 1.285 46.923 1.286 1.877 1.285-54.43 1.286-18.77h1.285l1.285 26.277 1.286 9.385 1.285-16.893 1.286 20.646 1.285 3.754 1.286 18.77h1.285l1.286 46.923 1.285 5.63h1.286l1.285 18.77 1.286 35.662 1.285 18.77h1.286l1.285-78.832 1.286 18.77 1.285 9.384 1.286-13.139 2.57-56.308h1.286l1.286 16.893 1.285 26.277 1.286-46.923 1.285-15.016 1.286 3.754 1.285 9.385h1.286l1.285 28.154 1.286-45.047 1.285 31.908 1.286 7.508 1.285 28.154 1.286-3.754h1.285l1.286-28.154 1.285-20.646 1.285 37.538 1.286 9.385 1.285-16.892 1.286 3.753 1.285-13.138 1.286 22.523 1.285 28.154 1.286-37.539 1.285-22.523 1.286-11.261 2.57 26.277 1.286-52.554 1.286 5.63 1.285-3.753 1.286 13.138 1.285-9.385 1.286-13.138 1.285 13.138 1.286 11.262 1.285-3.754 1.286-5.63 1.285-1.878 1.286 24.4h1.285l1.286-13.138 1.285 5.63 1.286 1.878 1.285 3.754 1.286 1.877 1.285 9.384h2.571l1.286-5.63 1.285-9.385 1.286 5.63 1.285 11.262 1.285-20.646h1.286l1.285-16.893 1.286 41.293 1.285 1.877 1.286 7.508 1.285-39.416 1.286-3.754h1.285l1.286 16.893 1.285-9.385 1.286-1.877 2.57 16.892v7.508l1.286 11.262 1.286-1.877 1.285 16.892 1.286-11.261 1.285 9.384 1.286-11.261 1.285 13.138 1.286 3.754 1.285-7.508 1.286-16.892 1.285 24.4 1.286 7.508 1.285-20.646 1.286 11.261 1.285-7.508 1.286 11.262h1.285l1.286-18.77 1.285-9.384 1.286 9.385 1.285 11.261 1.286-7.507 1.285 5.63h1.285l1.286-5.63 2.571-7.508 1.285-5.631 1.286 13.139 1.285-7.508h1.286l1.285 1.877 1.286 5.63 1.285 3.754 1.286-1.877 1.285 11.262 1.286 1.877h2.57l1.286-3.754 1.286 7.508 1.285-5.63 1.286-13.14 1.285-1.876h1.286l1.285 3.753 1.286-1.876 1.285-11.262 1.286-5.63 1.285-3.755h2.571l1.286-7.507h1.285l1.286-1.877 1.285 5.63h5.142l1.285-5.63 2.571 3.753h5.142l1.286 5.631 1.285 1.877 1.286-3.754h5.142l1.285 5.631h2.571" style="fill:none;stroke:#0072b2;stroke-linecap:round;stroke-width:1.5" id="line2d_4"/><path clip-path="url(#pd9f3e8335b)" d="M117 340.624h725.4" style="fill:none;stroke:red;stroke-dasharray:1.5,2.475;stroke-dashoffset:0;stroke-width:1.5" id="line2d_5"/><path d="M117 576.72V77.76" style="fill:none;stroke:#d3d3d3;stroke-linecap:square;stroke-linejoin:miter;stroke-width:1.25" id="patch_3"/><path d="M117 576.72h725.4" style="fill:none;stroke:#d3d3d3;stroke-linecap:square;stroke-linejoin:miter;stroke-width:1.25" id="patch_4"/><g id="matplotlib.axis_1"><g id="xtick_1"><g style="fill:#696969" transform="matrix(.16 0 0 -.16 177.3 598.378)" id="text_1"><defs><path d="M9.813 72.906h14.703l18.593-49.61 18.703 49.61h14.704V0H66.89v64.016l-18.797-50h-9.907l-18.796 50V0H9.813z" id="DejaVuSans-77"/><path d="M34.281 27.484q-10.89 0-15.093-2.484-4.204-2.484-4.204-8.5 0-4.781 3.157-7.594 3.156-2.797 8.562-2.797 7.485 0 12 5.297 4.516 5.297 4.516 14.078v2zm17.922 3.72V0H43.22v8.297Q40.14 3.328 35.547.953q-4.594-2.375-11.234-2.375-8.391 0-13.36 4.719Q6 8.016 6 15.922q0 9.219 6.172 13.906 6.187 4.688 18.437 4.688h12.61v.89q0 6.203-4.078 9.594-4.078 3.39-11.453 3.39-4.688 0-9.141-1.124-4.438-1.125-8.531-3.375v8.312q4.921 1.906 9.562 2.844 4.64.953 9.031.953 11.875 0 17.735-6.156 5.86-6.14 5.86-18.64z" id="DejaVuSans-97"/><path d="M41.11 46.297q-1.516.875-3.297 1.281Q36.03 48 33.89 48q-7.625 0-11.703-4.953-4.079-4.953-4.079-14.234V0H9.08v54.688h9.03v-8.5q2.844 4.984 7.375 7.39Q30.031 56 36.531 56q.922 0 2.047-.125 1.125-.11 2.484-.36z" id="DejaVuSans-114"/></defs><use xlink:href="#DejaVuSans-77"/><use x="86.279" xlink:href="#DejaVuSans-97"/><use x="147.559" xlink:href="#DejaVuSans-114"/></g></g><g id="xtick_2"><g style="fill:#696969" transform="matrix(.16 0 0 -.16 254.268 598.378)" id="text_2"><defs><path d="M32.172-5.078q-3.797-9.766-7.422-12.735-3.61-2.984-9.656-2.984H7.906v7.516h5.282q3.703 0 5.75 1.765Q21-9.766 23.483-3.219l1.61 4.094-22.11 53.813H12.5l17.094-42.766 17.093 42.766h9.516z" id="DejaVuSans-121"/></defs><use xlink:href="#DejaVuSans-77"/><use x="86.279" xlink:href="#DejaVuSans-97"/><use x="147.559" xlink:href="#DejaVuSans-121"/></g></g><g id="xtick_3"><g style="fill:#696969" transform="matrix(.16 0 0 -.16 339.57 598.378)" id="text_3"><defs><path d="M9.813 72.906h9.859V5.078q0-13.187-5-19.14-5-5.954-16.094-5.954h-3.75v8.297h3.078q6.531 0 9.219 3.672Q9.813-4.39 9.813 5.078z" id="DejaVuSans-74"/><path d="M8.5 21.578v33.11h8.984V21.922q0-7.766 3.016-11.656 3.031-3.875 9.094-3.875 7.265 0 11.484 4.64 4.234 4.64 4.234 12.656v31h8.985V0h-8.984v8.406Q42.047 3.422 37.718 1q-4.313-2.422-10.032-2.422-9.421 0-14.312 5.86Q8.5 10.296 8.5 21.578zM31.11 56z" id="DejaVuSans-117"/><path d="M9.422 75.984h8.984V0H9.422z" id="DejaVuSans-108"/></defs><use xlink:href="#DejaVuSans-74"/><use x="29.492" xlink:href="#DejaVuSans-117"/><use x="92.871" xlink:href="#DejaVuSans-108"/></g></g><g id="xtick_4"><g style="fill:#696969" transform="matrix(.16 0 0 -.16 413.843 598.378)" id="text_4"><defs><path d="M53.516 70.516V60.89q-5.61 2.687-10.594 4-4.984 1.328-9.625 1.328-8.047 0-12.422-3.125t-4.375-8.89q0-4.845 2.906-7.313 2.907-2.453 11.016-3.97l5.953-1.218q11.031-2.11 16.281-7.406 5.25-5.297 5.25-14.172 0-10.61-7.11-16.078-7.093-5.469-20.812-5.469-5.172 0-11.015 1.172Q13.14.922 6.89 3.219v10.156q6-3.36 11.765-5.078 5.766-1.703 11.328-1.703 8.438 0 13.032 3.312 4.593 3.328 4.593 9.485 0 5.359-3.297 8.39-3.296 3.032-10.812 4.547L27.484 33.5q-11.03 2.188-15.968 6.875-4.922 4.688-4.922 13.047 0 9.672 6.812 15.234 6.813 5.563 18.766 5.563 5.14 0 10.453-.938 5.328-.922 10.89-2.765z" id="DejaVuSans-83"/><path d="M56.203 29.594v-4.39H14.891q.593-9.282 5.593-14.142 5-4.859 13.938-4.859 5.172 0 10.031 1.266 4.86 1.265 9.656 3.812v-8.5Q49.266.734 44.187-.344 39.11-1.422 33.892-1.422q-13.094 0-20.735 7.61-7.64 7.625-7.64 20.625 0 13.421 7.25 21.296Q20.016 56 32.328 56q11.031 0 17.453-7.11 6.422-7.093 6.422-19.296zm-8.984 2.64q-.094 7.36-4.125 11.75-4.032 4.407-10.672 4.407-7.516 0-12.031-4.25-4.516-4.25-5.203-11.97z" id="DejaVuSans-101"/><path d="M18.11 8.203v-29H9.077v75.484h9.031v-8.296q2.844 4.875 7.157 7.234Q29.594 56 35.594 56q9.968 0 16.187-7.906 6.235-7.907 6.235-20.797T51.78 6.484q-6.218-7.906-16.187-7.906-6 0-10.328 2.375-4.313 2.375-7.157 7.25zm30.578 19.094q0 9.906-4.079 15.547-4.078 5.64-11.203 5.64-7.14 0-11.218-5.64-4.079-5.64-4.079-15.547 0-9.906 4.078-15.547 4.079-5.64 11.22-5.64 7.124 0 11.202 5.64t4.078 15.547z" id="DejaVuSans-112"/></defs><use xlink:href="#DejaVuSans-83"/><use x="63.477" xlink:href="#DejaVuSans-101"/><use x="125" xlink:href="#DejaVuSans-112"/></g></g><g id="xtick_5"><g style="fill:#696969" transform="matrix(.16 0 0 -.16 491.723 598.378)" id="text_5"><defs><path d="M9.813 72.906h13.28l32.329-60.984v60.984h9.562V0h-13.28L19.39 60.984V0H9.813z" id="DejaVuSans-78"/><path d="M30.61 48.39q-7.22 0-11.422-5.64-4.204-5.64-4.204-15.453 0-9.813 4.172-15.453 4.188-5.64 11.453-5.64 7.188 0 11.375 5.655 4.203 5.672 4.203 15.438 0 9.719-4.203 15.406-4.187 5.688-11.375 5.688zm0 7.61q11.718 0 18.406-7.625 6.703-7.61 6.703-21.078 0-13.422-6.703-21.078-6.688-7.64-18.407-7.64-11.765 0-18.437 7.64-6.656 7.656-6.656 21.078 0 13.469 6.656 21.078Q18.844 56 30.609 56z" id="DejaVuSans-111"/><path d="M2.984 54.688H12.5L29.594 8.797l17.093 45.89h9.516L35.687 0H23.485z" id="DejaVuSans-118"/></defs><use xlink:href="#DejaVuSans-78"/><use x="74.805" xlink:href="#DejaVuSans-111"/><use x="135.986" xlink:href="#DejaVuSans-118"/></g></g><g id="xtick_6"><g style="fill:#696969" transform="matrix(.16 0 0 -.16 573.42 598.378)" id="text_6"><defs><path d="M54.89 33.016V0h-8.984v32.719q0 7.765-3.031 11.61-3.031 3.858-9.078 3.858-7.281 0-11.484-4.64-4.204-4.625-4.204-12.64V0H9.08v54.688h9.03v-8.5q3.235 4.937 7.594 7.374Q30.078 56 35.797 56q9.422 0 14.25-5.828 4.844-5.828 4.844-17.156z" id="DejaVuSans-110"/></defs><use xlink:href="#DejaVuSans-74"/><use x="29.492" xlink:href="#DejaVuSans-97"/><use x="90.771" xlink:href="#DejaVuSans-110"/></g></g><g id="xtick_7"><g style="fill:#696969" transform="matrix(.16 0 0 -.16 646.503 598.378)" id="text_7"><use xlink:href="#DejaVuSans-77"/><use x="86.279" xlink:href="#DejaVuSans-97"/><use x="147.559" xlink:href="#DejaVuSans-114"/></g></g><g id="xtick_8"><g style="fill:#696969" transform="matrix(.16 0 0 -.16 723.471 598.378)" id="text_8"><use xlink:href="#DejaVuSans-77"/><use x="86.279" xlink:href="#DejaVuSans-97"/><use x="147.559" xlink:href="#DejaVuSans-121"/></g></g><g id="xtick_9"><g style="fill:#696969" transform="matrix(.16 0 0 -.16 808.773 598.378)" id="text_9"><use xlink:href="#DejaVuSans-74"/><use x="29.492" xlink:href="#DejaVuSans-117"/><use x="92.871" xlink:href="#DejaVuSans-108"/></g></g></g><g id="matplotlib.axis_2"><g id="ytick_1"><g style="fill:#696969" transform="matrix(.16 0 0 -.16 73.733 539.083)" id="text_10"><defs><path d="M10.594 35.5h62.593v-8.297H10.594z" id="DejaVuSans-8722"/><path d="M37.797 64.313 12.89 25.39h24.906zm-2.594 8.593H47.61V25.391h10.407v-8.203H47.609V0h-9.812v17.188H4.89v9.515z" id="DejaVuSans-52"/><path d="M31.781 66.406q-7.61 0-11.453-7.5Q16.5 51.422 16.5 36.375q0-14.984 3.828-22.484 3.844-7.5 11.453-7.5 7.672 0 11.5 7.5 3.844 7.5 3.844 22.484 0 15.047-3.844 22.531-3.828 7.5-11.5 7.5zm0 7.813q12.266 0 18.735-9.703 6.468-9.688 6.468-28.141 0-18.406-6.468-28.11-6.47-9.687-18.735-9.687-12.25 0-18.718 9.688-6.47 9.703-6.47 28.109 0 18.453 6.47 28.14Q19.53 74.22 31.78 74.22z" id="DejaVuSans-48"/></defs><use xlink:href="#DejaVuSans-8722"/><use x="83.789" xlink:href="#DejaVuSans-52"/><use x="147.412" xlink:href="#DejaVuSans-48"/></g></g><g id="ytick_2"><g style="fill:#696969" transform="matrix(.16 0 0 -.16 73.733 442.893)" id="text_11"><defs><path d="M19.188 8.297h34.421V0H7.33v8.297q5.609 5.812 15.296 15.594 9.703 9.797 12.188 12.64 4.734 5.313 6.609 9 1.89 3.688 1.89 7.25 0 5.813-4.078 9.469-4.078 3.672-10.625 3.672-4.64 0-9.797-1.61-5.14-1.609-11-4.89v9.969Q13.767 71.78 18.938 73q5.188 1.219 9.485 1.219 11.328 0 18.062-5.672 6.735-5.656 6.735-15.125 0-4.5-1.688-8.531-1.672-4.016-6.125-9.485-1.218-1.422-7.765-8.187-6.532-6.766-18.453-18.922z" id="DejaVuSans-50"/></defs><use xlink:href="#DejaVuSans-8722"/><use x="83.789" xlink:href="#DejaVuSans-50"/><use x="147.412" xlink:href="#DejaVuSans-48"/></g></g><g id="ytick_3"><use xlink:href="#DejaVuSans-48" style="fill:#696969" transform="matrix(.16 0 0 -.16 97.32 346.703)" id="text_12"/></g><g id="ytick_4"><g style="fill:#696969" transform="matrix(.16 0 0 -.16 87.14 250.513)" id="text_13"><use xlink:href="#DejaVuSans-50"/><use x="63.623" xlink:href="#DejaVuSans-48"/></g></g><g id="ytick_5"><g style="fill:#696969" transform="matrix(.16 0 0 -.16 87.14 154.324)" id="text_14"><use xlink:href="#DejaVuSans-52"/><use x="63.623" xlink:href="#DejaVuSans-48"/></g></g><g style="fill:#696969" transform="matrix(0 -.2 -.2 0 65.573 379.813)" id="text_15"><defs><path d="M51.125 44H36.922l-4.11-16.313h14.313zm-7.328 27.781-5.078-20.265h14.265L58.11 71.78h7.813L60.89 51.516h15.234V44h-17.14l-4-16.313h15.53V20.22H53.079L48 0h-7.813l5.032 20.219H30.906L25.875 0h-7.86l5.079 20.219H7.719v7.468h17.187L29 44H13.281v7.516h17.625l4.985 20.265z" id="DejaVuSans-35"/><path d="M37.11 75.984V68.5h-8.594q-4.828 0-6.72-1.953-1.874-1.953-1.874-7.031v-4.828h14.797v-6.985H19.922V0H10.89v47.703H2.297v6.984h8.594V58.5q0 9.125 4.25 13.297 4.25 4.187 13.468 4.187z" id="DejaVuSans-102"/><path d="M48.781 52.594v-8.407q-3.812 2.11-7.64 3.157-3.828 1.047-7.735 1.047-8.75 0-13.593-5.547-4.829-5.532-4.829-15.547 0-10.016 4.829-15.563 4.843-5.53 13.593-5.53 3.907 0 7.735 1.046 3.828 1.047 7.64 3.156V2.094Q45.016.344 40.984-.531q-4.015-.89-8.562-.89-12.36 0-19.64 7.765-7.266 7.765-7.266 20.953 0 13.375 7.343 21.031Q20.22 56 33.016 56q4.14 0 8.093-.86 3.953-.843 7.672-2.546z" id="DejaVuSans-99"/><path d="M44.281 53.078v-8.5q-3.797 1.953-7.906 2.922-4.094.984-8.5.984-6.688 0-10.031-2.047-3.344-2.046-3.344-6.156 0-3.125 2.39-4.906 2.391-1.781 9.626-3.39l3.078-.688q9.562-2.047 13.593-5.781 4.032-3.735 4.032-10.422 0-7.625-6.032-12.078-6.03-4.438-16.578-4.438-4.39 0-9.156.86Q10.688.296 5.422 2v9.281q4.984-2.594 9.812-3.89 4.829-1.282 9.579-1.282 6.343 0 9.75 2.172 3.421 2.172 3.421 6.125 0 3.656-2.468 5.61-2.453 1.953-10.813 3.765l-3.125.735q-8.344 1.75-12.062 5.39-3.704 3.64-3.704 9.985 0 7.718 5.47 11.906Q16.75 56 26.811 56q4.97 0 9.36-.734 4.406-.72 8.11-2.188z" id="DejaVuSans-115"/></defs><use xlink:href="#DejaVuSans-35"/><use x="83.789" xlink:href="#DejaVuSans-32"/><use x="115.576" xlink:href="#DejaVuSans-111"/><use x="176.758" xlink:href="#DejaVuSans-102"/><use x="211.963" xlink:href="#DejaVuSans-32"/><use x="243.75" xlink:href="#DejaVuSans-99"/><use x="298.73" xlink:href="#DejaVuSans-97"/><use x="360.01" xlink:href="#DejaVuSans-115"/><use x="412.109" xlink:href="#DejaVuSans-101"/><use x="473.633" xlink:href="#DejaVuSans-115"/></g></g><g style="fill:#696969" transform="matrix(.24 0 0 -.24 261.11 71.76)" id="text_16"><defs><path d="M4.203 54.688h8.985l11.234-42.672 11.172 42.672h10.593l11.235-42.672 11.187 42.672h8.985L63.28 0H52.688L40.922 44.828 29.109 0H18.5z" id="DejaVuSans-119"/><path d="M64.406 67.281v-10.39q-4.984 4.64-10.625 6.922-5.64 2.296-11.984 2.296-12.5 0-19.14-7.64-6.641-7.64-6.641-22.094 0-14.406 6.64-22.047 6.64-7.64 19.14-7.64 6.345 0 11.985 2.296 5.64 2.297 10.625 6.938V5.609Q59.234 2.094 53.437.33q-5.78-1.75-12.218-1.75-16.563 0-26.094 10.124-9.516 10.14-9.516 27.672 0 17.578 9.516 27.703 9.531 10.14 26.094 10.14 6.531 0 12.312-1.734 5.797-1.734 10.875-5.203z" id="DejaVuSans-67"/><path d="M3.328 72.906h9.953L28.61 11.281l15.282 61.625h11.093l15.328-61.625 15.282 61.625h10.015L77.297 0H64.89L49.516 63.281 33.984 0H21.578z" id="DejaVuSans-87"/><path d="M9.078 75.984h9.031V31.11l26.813 23.578H56.39l-29-25.578L57.625 0H45.906L18.11 26.703V0H9.08z" id="DejaVuSans-107"/><path d="M4.89 31.39h26.313v-8H4.891z" id="DejaVuSans-45"/><path d="M11.719 12.406h10.297V0H11.719zm0 39.297h10.297v-12.39H11.719z" id="DejaVuSans-58"/><path d="M12.406 8.297h16.11v55.625l-17.532-3.516v8.985l17.438 3.515h9.86V8.296H54.39V0H12.406z" id="DejaVuSans-49"/><path d="M45.406 27.984q0 9.766-4.031 15.125-4.016 5.375-11.297 5.375-7.219 0-11.25-5.375-4.031-5.359-4.031-15.125 0-9.718 4.031-15.093t11.25-5.375q7.281 0 11.297 5.375 4.031 5.375 4.031 15.093zm8.985-21.203q0-13.953-6.203-20.765Q42-20.797 29.203-20.797q-4.734 0-8.937.703-4.203.703-8.157 2.172v8.735q3.954-2.141 7.813-3.157 3.86-1.031 7.86-1.031 8.843 0 13.234 4.61 4.39 4.609 4.39 13.937v4.453q-2.781-4.844-7.125-7.234Q33.938 0 27.875 0 17.828 0 11.672 7.656q-6.156 7.672-6.156 20.328 0 12.688 6.156 20.344Q17.828 56 27.875 56q6.063 0 10.406-2.39 4.344-2.391 7.125-7.22v8.297h8.985z" id="DejaVuSans-103"/></defs><use xlink:href="#DejaVuSans-78"/><use x="74.805" xlink:href="#DejaVuSans-101"/><use x="136.328" xlink:href="#DejaVuSans-119"/><use x="218.115" xlink:href="#DejaVuSans-32"/><use x="249.902" xlink:href="#DejaVuSans-67"/><use x="319.727" xlink:href="#DejaVuSans-97"/><use x="381.006" xlink:href="#DejaVuSans-115"/><use x="433.105" xlink:href="#DejaVuSans-101"/><use x="494.629" xlink:href="#DejaVuSans-115"/><use x="546.729" xlink:href="#DejaVuSans-32"/><use x="578.516" xlink:href="#DejaVuSans-87"/><use x="671.518" xlink:href="#DejaVuSans-101"/><use x="733.041" xlink:href="#DejaVuSans-101"/><use x="794.564" xlink:href="#DejaVuSans-107"/><use x="852.475" xlink:href="#DejaVuSans-45"/><use x="890.434" xlink:href="#DejaVuSans-111"/><use x="951.615" xlink:href="#DejaVuSans-118"/><use x="1010.795" xlink:href="#DejaVuSans-101"/><use x="1072.318" xlink:href="#DejaVuSans-114"/><use x="1107.057" xlink:href="#DejaVuSans-45"/><use x="1139.141" xlink:href="#DejaVuSans-87"/><use x="1232.143" xlink:href="#DejaVuSans-101"/><use x="1293.666" xlink:href="#DejaVuSans-101"/><use x="1355.189" xlink:href="#DejaVuSans-107"/><use x="1413.1" xlink:href="#DejaVuSans-58"/><use x="1446.791" xlink:href="#DejaVuSans-32"/><use x="1478.578" xlink:href="#DejaVuSans-49"/><use x="1542.201" xlink:href="#DejaVuSans-52"/><use x="1605.824" xlink:href="#DejaVuSans-32"/><use x="1637.611" xlink:href="#DejaVuSans-97"/><use x="1698.891" xlink:href="#DejaVuSans-118"/><use x="1758.07" xlink:href="#DejaVuSans-103"/></g><g id="legend_1"><path d="M694.75 184.5H831.2q3.2 0 3.2-3.2V88.96q0-3.2-3.2-3.2H694.75q-3.2 0-3.2 3.2v92.34q0 3.2 3.2 3.2z" style="fill:none;opacity:.8;stroke:#ccc;stroke-linejoin:miter" id="patch_5"/><path d="M697.95 98.718h32" style="fill:none;stroke:#000;stroke-linecap:round;stroke-width:1.5" id="line2d_6"/><g style="fill:#696969" transform="matrix(.16 0 0 -.16 742.75 104.317)" id="text_17"><defs><path d="M8.688 72.906h9.921V28.61q0-11.718 4.235-16.875 4.25-5.14 13.781-5.14 9.469 0 13.719 5.14 4.25 5.157 4.25 16.875v44.297H64.5V27.391q0-14.25-7.063-21.532-7.046-7.28-20.812-7.28-13.828 0-20.89 7.28-7.047 7.282-7.047 21.532z" id="DejaVuSans-85"/></defs><use xlink:href="#DejaVuSans-85"/><use x="73.193" xlink:href="#DejaVuSans-83"/></g><path d="M697.95 122.203h32" style="fill:none;stroke:#009e73;stroke-linecap:round;stroke-width:1.5" id="line2d_8"/><g style="fill:#696969" transform="matrix(.16 0 0 -.16 742.75 127.802)" id="text_18"><use xlink:href="#DejaVuSans-78"/><use x="74.805" xlink:href="#DejaVuSans-74"/></g><path d="M697.95 145.688h32" style="fill:none;stroke:#d55e00;stroke-linecap:round;stroke-width:1.5" id="line2d_10"/><g style="fill:#696969" transform="matrix(.16 0 0 -.16 742.75 151.287)" id="text_19"><defs><path d="M19.672 34.813V8.108H35.5q7.953 0 11.781 3.297 3.844 3.297 3.844 10.078 0 6.844-3.844 10.078-3.828 3.25-11.781 3.25zm0 29.984V42.828h14.61q7.218 0 10.75 2.703 3.546 2.719 3.546 8.282 0 5.515-3.547 8.25-3.531 2.734-10.75 2.734zm-9.86 8.11h25.204q11.28 0 17.375-4.688Q58.5 63.53 58.5 54.89q0-6.703-3.125-10.657-3.125-3.953-9.188-4.922 7.282-1.562 11.313-6.53 4.031-4.954 4.031-12.376 0-9.765-6.64-15.093Q48.25 0 35.984 0H9.812z" id="DejaVuSans-66"/></defs><use xlink:href="#DejaVuSans-66"/><use x="68.604" xlink:href="#DejaVuSans-101"/><use x="130.127" xlink:href="#DejaVuSans-114"/><use x="169.49" xlink:href="#DejaVuSans-103"/><use x="232.967" xlink:href="#DejaVuSans-101"/><use x="294.49" xlink:href="#DejaVuSans-110"/></g><path d="M697.95 169.173h32" style="fill:none;stroke:#0072b2;stroke-linecap:round;stroke-width:1.5" id="line2d_12"/><g style="fill:#696969" transform="matrix(.16 0 0 -.16 742.75 174.773)" id="text_20"><defs><path d="M44.39 34.188q3.172-1.079 6.172-4.594 3-3.516 6.032-9.672L66.609 0H56l-9.313 18.703q-3.624 7.328-7.015 9.719-3.39 2.39-9.25 2.39h-10.75V0h-9.86v72.906h22.266q12.5 0 18.656-5.234 6.157-5.219 6.157-15.766 0-6.89-3.203-11.437-3.204-4.532-9.297-6.282zM19.673 64.797V38.922h12.406q7.125 0 10.766 3.297 3.64 3.297 3.64 9.687 0 6.39-3.64 9.64-3.64 3.25-10.766 3.25z" id="DejaVuSans-82"/><path d="M18.313 70.219V54.688h18.5v-6.985h-18.5V18.016q0-6.688 1.828-8.594 1.828-1.906 7.453-1.906h9.218V0h-9.218q-10.407 0-14.36 3.875-3.953 3.89-3.953 14.14v29.688H2.687v6.984h6.594V70.22z" id="DejaVuSans-116"/><path d="M54.89 33.016V0h-8.984v32.719q0 7.765-3.031 11.61-3.031 3.858-9.078 3.858-7.281 0-11.484-4.64-4.204-4.625-4.204-12.64V0H9.08v75.984h9.03V46.188q3.235 4.937 7.594 7.374Q30.078 56 35.797 56q9.422 0 14.25-5.828 4.844-5.828 4.844-17.156z" id="DejaVuSans-104"/><path d="M45.406 46.39v29.594h8.985V0h-8.985v8.203Q42.578 3.328 38.25.953q-4.313-2.375-10.375-2.375-9.906 0-16.14 7.906-6.22 7.922-6.22 20.813 0 12.89 6.22 20.797Q17.968 56 27.874 56q6.063 0 10.375-2.375 4.328-2.36 7.156-7.234zm-30.61-19.093q0-9.906 4.079-15.547 4.078-5.64 11.203-5.64 7.125 0 11.219 5.64 4.11 5.64 4.11 15.547 0 9.906-4.11 15.547-4.094 5.64-11.219 5.64-7.125 0-11.203-5.64-4.078-5.64-4.078-15.547z" id="DejaVuSans-100"/></defs><use xlink:href="#DejaVuSans-82"/><use x="64.982" xlink:href="#DejaVuSans-117"/><use x="128.361" xlink:href="#DejaVuSans-116"/><use x="167.57" xlink:href="#DejaVuSans-104"/><use x="230.949" xlink:href="#DejaVuSans-101"/><use x="292.473" xlink:href="#DejaVuSans-114"/><use x="333.586" xlink:href="#DejaVuSans-102"/><use x="368.791" xlink:href="#DejaVuSans-111"/><use x="429.973" xlink:href="#DejaVuSans-114"/><use x="469.336" xlink:href="#DejaVuSans-100"/></g></g></g></g><defs><clipPath id="pd9f3e8335b"><path d="M117 77.76h725.4v498.96H117z"/></clipPath></defs></svg>