<svg height="864" viewBox="0 0 936 648" width="1248" xmlns="http://www.w3.org/2000/svg" xmlns:xlink="http://www.w3.org/1999/xlink"><defs><style>*{stroke-linecap:butt;stroke-linejoin:round}</style></defs><g id="figure_1"><path d="M0 648h936V0H0z" style="fill:#fff" id="patch_1"/><g id="axes_1"><path d="M117 576.72h725.4V77.76H117z" style="fill:none" id="patch_2"/><path clip-path="url(#p1b01f9f9d6)" d="m149.973 340.626 41.336-.113 4.806-.276 1.923-.344.961-.374 1.923-1.121.961-.81 1.923-1.898 2.884-3.75.961-1.465 1.923-2.065.96-1.355 2.885-3.046.961-.857 1.923.086.961.335 1.923 1.599.96 1.105.962 1.876.962.885 5.767 10.268 1.923 1.75 1.923 1.372.96.295.962-.427.961-.983.962.014.961-.1.961-.291 2.884.17.962.17.96-.128.962.3.962-.025.96.089.962.423 1.923 2.32.961.756 1.923.073.961.113 1.923-.341.96-.39.962.074.961-.57.962.04.961-.416.961-.068 1.923-.743.961-.716.962-.169 1.922.172.962.178 2.883-.67.962.147.961-.337 1.923.037.96-.69.962-.054.962.317 1.922.091.961-.752.962-.504.961.415.961-.176 1.923.102.961-.438.962-.164.96-.602.962-.123.962-.793.96-.97 1.923-2.742.962-.887.961-1.207.961-1.874.962-.78.96-1.32 1.924-1.505 1.922-2.063.961-.658.962-.106 1.922.473.962.469.961.194.961.92.962.378 1.922-.037.961-.546.962.19.961.428.961-.147.962.934.961.626.961.083.962.994.96.63.962.846 1.923 1.935.961.668.961 2.209 1.923 2.997.961 1.24.962 1.764.961.747.961 1.222.962.826 1.922 2.016.961 1.514.962.602.961 1.102.961.62.962-.602.961-.041.961-.207.962-.367.96.25.962-.288.962-.57.96.305.962-.214.961.058.962-.188.961-.356.961.264.962.432.961.784.961-.334.962.404.96-.184.962-.318.961.083.962-.427.961-.78.961-.6.962-1.568.961.168.961-.923.962-1.673.96-.352.962-.667.962 1.487.96 1.157.962.149.961.829 1.923.502.961-.235.962-1.637.961-.566.961-1.97.962-.676.96.441.962-.53.961-.674.962-3.076.961-1.39.961-.146.962-.861.961-1.07.961-.423.962.251.96 3.069.962.415 1.923 1.2.961.243.961-.249.962.55.961-.732.961-.104 1.923-1.962.961.032.962-.312.96-.919.962-.334 1.923-1.21.961-.811.961-1.31.962.417.961-.559.961.799.962-.737.96.689.962.02.962-.99.96-2.298.962-.22.961-2.47.962-.237.961-1.132.961-.687.962-.321.96-.473.962-1.191.962-.204.96-1.238 1.923-4.47 1.923-3.563.961-1.82.962-2.851.961-3.511.961-1.796.962-2.801.96-3.57.962-2.875 1.923-3.563 1.922-.74.962.715.961 1.632.961 3.017 1.923 4.92.961 3.255.962 2.773.96 13.274.962 4.364.961 5.613.962 3.815.961 5.033.961 1.623.962.924.961-9.514.961-.855.962-4.333.96-3.16.962-2.492.961-2.016.962-1.071.961-9.63.961-4.414.962-2.339.961-1.776.961-.872.962 2.4.96-.474.962 10.704.962 5.742.96 7.11 1.923 7.99 1.923 7.6.961 5.41.962 20.873.961-2.212.961 4.2.962.928.96-1.67.962 2.504.961-2.62.962-7.917.961-9.25.961-5.653.962-6.51.961-3.715.961-4.614.962-9.788.96-31.798.962 6.557.962-3.594.96 1.361.962.464.961 2.913.962 8.198.961 11.226.961 13.029.962 9.2.961 15.491 1.923 15.479.96 10.294.962 21.125.961-.567.962 4.913.961-4.287.961 3.272.962.323.961-1.728.961-3.556.962-1.634.96-2.336.962-7.376 1.923-1.664.961-.89.961-1.379.962-.568.961-1.455.961 6.732.962-1.825 1.922-.924.962.306.96-1.446.962.797.961 2.406.962-.37.961-1.127.961-.7 1.923-2.87.961-1.875.962-5.555 2.884-8.538.96-3.159.962-1.386.961-2.013.962-3.657 1.922-3.644.962-2.434 1.922-1.867.962.235.96-3.52.962.955 1.923 2.453.961.192.961-.002.962-.23.961 3.62.961-1.351 2.884-2.73.961-1.147.962-.737.961 4.214.961-.414.962-3.076 3.845-5.72.961-5.587.962-.717.96 1.33.962-1.047 2.884.806.961-.87.962.26.961 1.655.961.564.962.092.96.592.962-.087.961 2.165.962-1.032.961-1.531.961 1.553.962-.28.961 1.498.961-.116.962.788.96 1.678.962 1.927.962 1.122.96 2.885.962.422 1.923 3.896.961 2.564.961 1.082 1.923.412.961-.542.962-.274 2.883-1.341.962.255.961-.371.961.804.962-.053.961-.998.961-.234 1.923.226.961.13.962-.114.96.174.962 1.042.961-.497.962-.357.961-.111.961.099.962-.038.961-.496.961-1.027.962-.198.96-.4.962-.773.961.05 1.923.337.961 1.338.962-.619 1.922-.074.962 3.565.96-1.008.962-.133.962-1.834.96.351.962-.964.961.188.962-5.004.961-.48.961-.769.962-1.653.96.214.962-.029.962-.488.96-4.385.962-.043.961.15.962 1.384.961-.97.961.437.962-.646.961 4.036.961-.144.962.063.96-.422.962-.553.962-.858.96-5.64.962-1.004.961.22.962-.164.961 1.223.961-1.095.962-1.53.96 1.908.962-1.322.962-.477.96-.272.962-3.254.961-1.354.962-.617.961 6.645.961-1.195.962-.783.961-.487.961-3.638 1.923-1.599.961-4.732.961-1.668.962-.564 1.922-.554.962-3.015.961-1.814.961-4.816.962-2.378.96-.359.962-.583.962-2.019.96-2.55.962-.591.961.084.962-1.553.961-.343 1.923-1.778.961 3.447.961-1.89 1.923 4.356 1.922.18.962-3.948.961 6.415.961 1.92.962.8.961 3.503.961-1.796.962 1.718.96 3.755.962.615.962 3.863.96-1.703.962 2.38.961.192.962.645.961 6.966 1.923-6.162.961 3.465.961 1.743.962 5.106.96-.576.962 21.99.961-14.13 1.923 6.936.961 1.2.962-.21.961.675.961-20.289.962 16.59.96 5.658.962.38.962.517.96-1.409.962.195.961-13.245.962 17.125.961-.43.961 2.293.962 1.231.961 2.56.961.09.962 23.181.96-13.796.962.522.961-.422.962.508.961.17.961.92.962-5.735.961-.836.961-2.109 1.923-3.17.961-1.015.962-.306.96 3.73.962-3.099.961.044.962.5.961.014.961-.375.962-.786.96-2.14.962 1.377.962 1.82.96-.397.962-.166.961-.332.962.236.961-3.407.961.967.962-2.86.961-2.164.961-1.653 1.923-.633.961-2.162.962-1.823.96-1.071.962-.41.961-1.499.962-.653.961-.864.961-1.922.962-.24.96-.66.962 2.38.962-3.785.96-3.127.962.027.961-.33.962-1.883.961-2.616.961-5.105.962 1.334.961 2.393.961-.477.962-.878.96.393.962.909.961 6.378.962 11.064.961 4.799.961.936.962-3.69.961-.943.961-.437.962-6.51.96-11.663.962-5.63.962-.3.96 3.05.962-.253.961-.434.962-6.718.961-8.37 1.923-1.966.961 5.445.961 1.426h0" style="fill:none;stroke:#000;stroke-linecap:round;stroke-width:1.5" id="line2d_1"/><path clip-path="url(#p1b01f9f9d6)" d="m149.973 340.624 42.297-.104 2.884-.251 1.923-.623.96-.58.962-1.165.962-.533.96-1.605.962-2.14.961-3.275.962-2.843.961-2.17.961-8.358 2.884-20.368.962-8.69.96-4.414.962-10.37.961-2.161.962-8.571.961-5.86.961-2.181.962 2 .961-2.04.961 4.279.962 7.391 1.922 19.56.962 5.283.96 12.264.962 1.219.961 14.105.962.635 1.922 20.526.962 3.624.961-1.686.961 7.445.962-7 .96 1.616.962.77.961-4.023.962 2.646.961 1.95.961 7.066.962.986.961 9.41.961-2.87.962.735.96 2.592.962 5.4.962-1.22.96 9.218.962 1.856.961-.866 1.923 9.607.961-4.807.962 2.37.961-2.281.961-4.39.962 3.67.96-1.365.962-1.106.961-3.547.962-2.011.961-6.498.961-2.212.962-2.96.961-.374.961-5.357.962 2.533.96-4.734.962.162.962-2.765.96-1.547.962-3.195.961.043.962 2.927.961.855.961 3.52.962 2.53.96 1.04.962-2.29.962 1.435.96-2.425.962.1.961-2.123.962.41.961.928.961 1.915.962-.843.961-1.37 1.923-.53.96-2.548.962-1.021.962-.402.96-2.313.962-.74.961-1.252.962.564.961-6.753.961-1.767.962-.26.96.016.962.279.962-.202.96-1.454.962 6.428.961.167.962-.406.961-.109.961-.263.962.48.961-.426.961 7.554.962.105.96-.345.962.12.961-.766 1.923-.328.961-6.653.962 1.184.961.27.961 1.664.962.63.96-.108.962.178.962-.844.96-1.686.962-.812.961-2.19.962-.982.961-.247 1.923.298.961-2.089.961.294.962-.72.96.546 1.923.244.962-.585.961 2.855.961.97.962 1.985.961 1.064.961.394.962-.089.96-1.238.962.085.962-.208.96.568.962-.924.961-.054.962.15.961 2.808.961-.193.962-.975.961-.433.961.314.962.452.96.762.962.29.961.55.962.347.961-1.833.961-.27.962-.546.961-.781.961-2.425.962-1.435.96 1.063.962.445.962-.27.96.092.962-.402.961.623.962.166.961-1.176.961.607.962.472.961-.506.961.042.962-.286.96.302.962-.14.961-.526.962-.29.961-.166.961.012.962.197.961-.14.961-.638.962-1.001.96-.639.962.5.962-.925.96.367 1.923-1.407.962.881.961.41.961-.707.962.839.96-2.665.962-.248.962 1.44.96.463.962.809.961-1.273.962-.503.961 1.459.961.955.962.491.961-2.305.961-2.982.962.669.96-1.122.962 1.907.962-.425.96-4.092.962 1.048.961-.255.962-1.16.961-.813.961-2.765.962-3.814.96 2.382.962-.348.962 2.209.96-.685.962-2.638.961-.854.962.193.961-3.342.961-1.609.962-2.576.961-5.005.961.07.962-4.417.96-1.18.962-6.563.961-7.391.962-.035.961-.279.961-.835.962-1.075.961-.17.961 5.89.962 3.249.96-2.6.962 6.591.962 2.387.96 4.792.962 2.967.961 7.805.962 10.265.961 2.135.961-.317.962 2.881.961 1.431 1.923-9.843.96-10.68.962 3.826.961-2.402.962-.6.961-.139.961 9.6.962-6.896.961 6.757.961-6.289.962 7.12.96-3.844 1.924 9.697.96 13.811.962 4.526.961 7.735.962.901.961 4.07.961-.473.962-12.288 1.922 8.072.962 6.429.96-2.182.962 5.14.961-4.861.962-.754.961-13.774.961-1.272.962-193.292 2.884-22.936.96-1.376.962-8.092.962-18.685.96 175.318.962 2.831.961-8.188.962 3.013.961 4.243.961 11.31.962 7.194.961 192.738.961 9.925.962 13.82.96 17.122.962 14.253.961 2.904.962 7.117.961-178.091.961-7.067.962 10.27.961-.33.961-9.445 1.923 3.62.961-3.31.962 6.447.96.232.962-2.27.961-1.574.962 7.399.961.356.961 4.811.962-1.075.96-10.397.962-2.587.962 8.826.96-4.336.962 4.564.961 1.888.962-6.506.961-8.656 1.923-8.312.961.445.961.7.962-8.56.96 3.49.962 11.796.962.263.96-5.101.962-7.775.961-9.758.962-6.01.961-.29.961-3.226.962.008 1.922-3.795.962-1.032.96 8.099.962-5.075.961-4.158.962-1.245.961 1.18.961 4.3.962-1.667.961-.297.961 2.088.962.14.96-4.023.962-1.342.961-5.628.962.782.961-4.502.961-.964.962 1.16.961 4.445.961-2.665.962 1.5.96-1.844.962.174.962-1.853.96 3.733.962-3.891 1.923 9.704.961 2.444.961 4.328.962 8.691.961-3.052.961 2.894.962 5.967.96 2.333.962 6.501.961 3.191.962-.665.961.967.961 8.037.962-4.865.961-2.104 1.923-3.725.96-.178.962 2.557.962-2.275.96 4.684.962 1.133.961 4.027.962 41.9.961 3.7.961 2.654.962 2.212.961 4.506.961 5.868.962.998.96-39.765.962.02.961-1.958.962.553.961-2.54.961-.774.962-2.305.961-40.059.961-1.052.962 2.626.96-.004.962-1.288.962-4.602.96-1.648.962 37.873.961-4.656.962 1.779.961-3.729.961-4.715.962-2.595.961-3.446.961-2.263.962-.723.96-7.712.962-3.164.961-.998.962.46.961-.058.961.39.962 1.22.961.309.961.951.962 1.168.96-1.435.962.267 1.923-2.127.961.155.961-.882.962-1.42.961-.054.961-.205.962.279.96-1.103.962-.855.962-.034.96.135.962.557.961.1.962.391.961.213.961-.286.962.104.961-.394.961-.534 1.923.035.961.24.962.665.96-.194 1.923.143 1.923-.208.961.197 1.923-.704.961-.02.962-.355.96-.638.962-.476.961-.84 2.884-1.775.962-1.102 1.922-1.319.962-1.408.96-.951.962-.724L671 330l.962-.74.961.013.961-.31.962.282.961-.645.961-.836 1.923-.762.961-.723 1.923-1.872.961.201.961-.344.962.727 1.922-.457.962.875 1.922-1.497.962-.22.96-1.115.962-2.722.961.877.962-.332 1.922 2.39.962.855.961-3.361.961 2.95.962.252.96-1.303.962 1.083.962.077.96 1.377.962 3.272.961 4.831.962-1.14.961 2.161.961-.305.962-.693.961-1.237.961 7.553.962-2.784.96 1.206.962-.475.961 7 .962-3.013.961 1.408.961-4.939.962-1.818 1.922 2.154.962-5.465.96 5.388.962-1.005.962-2.194.96.716.962-.766.961 1.412.962-7.353.961 4.406.961 1.446.962 4.127.961 2.456.961 3.605.962.224.96 7.585.962-3.361.961 2.603.962 1.056.961 1.655.961-1.09.962-.035.961 1.42.961.854.962-1.717.96-1.292.962-1.09.962-3.01.96-.665 1.923-2.008.962 1.942.961-.298.961.298.962 3.407.96 1.06.962.635.962 1.914.96-.356.962-.491.961.793.962.34.961-1.81.961-.932.962-1.118.961-3.574.961-.332.962-1.803.96-3.732.962-.251.962-.565.96-2.51.962 1.125.961.944.962-1.876 1.922 1.257.962-.054.96-.607.962.688.962-3.233.96-.561.962-1.342.961-2.445.962-2.061.961-1.164.961-4.297.962-1.312.961-1.5.961-.735.962-.58.96-2.522.962.31.961-.229.962 2.054.961 1.717.961 1.965.962-.727.961-1.3.961-2.591.962-3.717 2.884-21.234.96-2.193.962.781 1.923-6.138.961-4.235.961-1.512.962-.306.961 1.578.961.634h0" style="fill:none;stroke:#009e73;stroke-linecap:round;stroke-width:1.5" id="line2d_2"/><path clip-path="url(#p1b01f9f9d6)" d="m149.973 340.624 37.49-.11 4.807-.295.961-.11.962-.516h.961l.961-1.032.962-.774.96-1.622.962-5.933.962-1.474.96-.221.962-3.427.961-4.496 1.923-4.902.961-8.18.962-9.25.961-11.02.961-8.696.962-4.902.96-11.571.962-15.552.961-2.063.962-15.736.961-20.453.961-.074.962-8.807.961-6.45.961 11.535.962 13.23.96 16.067.962 28.487.962 8.881.96 19.458.962 24.765.961 14.225.962 4.643.961 22.074.961 25.612.962 1.548.961 10.982.961 8.587.962-5.602.96 2.285.962-1.548.961-19.716.962 8.992 1.922-10.06.962 7.96.961 10.724.961-1.364.962 3.575.96 2.58.962 3.906.962-.737.96 1.584.962-4.532.961-.738.962 4.57.961-6.007.961-8.66.962-3.059.961-4.938.961-1.474.962-4.017.96-6.891.962-.221.961-1.511.962 1.142.961-2.653.961-7.739.962-2.764.961-.479.961-3.943.962.11.96-4.2.962-2.396.962-8.44.96.738.962-.627 1.923 4.828.961 1.142.961-1.695.962 8.771.96-1.29.962-2.837.962 2.284.96.11.962-.183.961.479.962 1.842.961.958.961-2.21 1.923-5.123.961-1.806.962 1.843.96-2.654.962-.147.962 2.727.96-1.548.962-.037.961.922.962 1.842.961-10.76.961-4.054.962 1.88.96-2.654.962.368.962.074.96-2.248.962 10.135.961 1.216.962-1.917.961.627.961-.442.962.22.961-1.215.961 10.65.962 2.985.96-.295.962 3.833.961.147.962.774.961 1.253.961-10.282.962.037.961.958.961.258 1.923-1.99.961.295.962.442.96-.553.962-.995.961-2.653.962-.368.961-1.77.961-1.473.962-.516.961-2.617.961.037.962-.59.96 2.1.962.222.961 1.548.962.074.961 1.768.961-.663.962.627h.961l.961 2.248.962-.222.96-.884.962-2.285.962-.479.96-1.437.962-2.727.961.331.962.59.961 3.538 1.923 4.606.961 2.985.961 2.064 1.923-2.506.961-1.953.961 3.464.962-.258.961.184.961 1.253.962-1.29.961-.7 1.923-7.628.96.553.962-2.248.962-1.511.96 1.99.962 1.327.961 2.763.962-.147.961.184.961 1.069.962.59.961 1.695.961-.553.962-.737.96.258.962-2.174.961.147.962-.553.961-3.206.961.332.962.663.961.295.961.037.962-.81 1.922-.259 1.923-.516.961-.958.961-.405 1.923-.516.961 1.142.962-.774.96-1.584.962-.848.962-.405 1.922-.295.961-2.543.962-.295.961.737.961.922.962 1.216.961-1.253.961-1.917.962.774.96-1.437.962.442.962.185.96-2.285.962.147.961-.22.962.073.961 1.658.961-.368.962-4.386.96.442.962-.294.962 1.068.96-1.105.962-2.432.961 1.253.962.331.961-4.496.961-1.105.962 1.068.961-2.91.961-4.755.962-10.024.96-.663.962-2.616.961-5.565.962-.737.961-2.285.961.48.962-2.433.961.553.961 5.343.962 1.77.96-8.219 1.924 13.71.96 12.123.962-2.506.961 10.54.962 3.538.961 5.749.961-1.106.962 1.511.961-1.842.961-2.875.962-9.065.96-1.511.962 5.97.961.958.962 1.216.961 1.843.961 19.752.962-9.213.961 9.987.961-6.191.962 5.823.96-3.022.962 5.196.962-1.511.96 17.652.962 1.585.961 7.038.962-2.985 1.922-12.05.962-13.783.961 2.617.961-1.18.962 2.138.96-.48.962 7.26.961-4.9.962 2.763.961-11.535.961-2.763.962-166.313.961-11.83.961-6.044.962-1.179.96-5.97.962-7.665.962-13.746.96 156.916.962 9.508.961-6.634.962-.405.961 4.754.961 6.707.962 4.606.961 164.213.961 6.891 1.923 27.123.961 15.92.961 1.437.962 8.44.961-159.164.961-9.471.962 7.886.961 3.096.961-7.629.962 3.354.96.516.962-3.612.962 10.65.96 3.538.962-4.975.961-9.655.962 5.786.961-.369.961 6.007.962-1.474.96-11.534.962.59.962 8.733.96-2.727 1.923 8.476.962-12.825.961-7.112.961-2.727.962 4.017.961.958.961 1.437.962-11.608.96 3.98.962 8.292.962-4.68.96-12.604.962-5.38.961-7.113.962-9.213.961 7.518.961-7.334.962 2.506.96-.479.962 5.454.962-4.127.96 16.73.962-7.701.961 3.722.962-.258.961 8.439.961-3.575.962-1.179.961 2.727.961.995.962 1.364.96-2.47.962-5.527.961-12.677.962 3.906.961-9.913.961 2.911.962-1.843.961 8.44.961-7.85.962 4.901.96-4.496.962 2.138.962-2.285.96-1.18.962-7.406.961 11.313.962 6.78.961 5.344.961 2.248.962 7.924.961-.111.961.553.962 12.05.96 6.707.962 8.108.961 3.722.962 1.842.961 10.172.961 7.923.962-8.07.961-1.954.961-2.58.962 1.511.96-3.5.962.184.962-2.396.96 1.364.962-1.548.961 1.069.962 2.874.961 1.29.961-.81.962 1.105.961 2.911.961 5.344.962-.922.96-5.675.962.442.961-42.6.962-8.476.961-3.096.961-1.843.962-2.137.961-4.46.961-.773.962 39.579.96 10.355.962-2.395.962-5.49.96-2.212.962 2.838.961-2.727.962 42.49.961 7.15.961-2.802.962.7.961.111.961-1.4.962-1.953.96-44.554.962-13.451.961.995.962.368.961.184.961.774.962.369.961-.774 1.923-.11.96-3.096.962-1.106.962-.479.96.369 1.923-.332.962-1.585.961.443 1.923-1.364.96-1.843.962-.958.962-.479.96.11.962 1.033.961.663 1.923.737 1.923-.848.961.258.961-1.179 1.923-.11.961.516 1.923.184 1.922-.48.962.332.961-.258.961.553.962 1.327.96.995.962.147.962.48.96-.738.962-.073 1.923-1.843 2.884-3.059 1.922-1.363 1.923-1.917.961-1.621.961-2.064.962-1.4.961-.258.961-1.364.962-.11.961-.81.961-.664.962.59.96.036.962-1.437.962.11.96-1.584.962.074.961 1.474.962.958.961 1.474.961 1.695.962 2.396.961-1.106.961-.11.962-1.364.96.258.962-2.985.961 4.496.962-.737.961 1.437.961-.884.962 1.732.961-4.128.961 1.4.962-5.343.96-2.1.962 3.758.962 1.069.96 1.548.962 2.321.961 3.022.962-3.87.961 1.401.961-.073.962 1.842.961-2.174.961 8.255.962-1.327.96 5.417.962-.037.961 3.501.962-2.948.961.774.961-5.86 1.923 1.327.961 1.696.962-5.676.96 2.801h.962l.962-1.327.96-.147.962-1.106.961.774.962-2.58.961 2.838.961.885.962 1.695 1.922 2.027.962-1.99.96 6.301.962-2.837.961.184.962.332.961.59.961 2.469.962 1.437.961-2.322.961 1.622.962 1.363.96 3.612.962.22.962-1.99.96 1.77.962.184.961-.11.962.92.961-1.879.961-1.4.962.516.96-1.77.962 2.322.962 1.696.96-.074.962-2.248.961 1.953.962 1.069.961-2.764.961-3.206.962-1.695.961-2.801.961-.553.962-.258.96-2.8.962 2.247.962-.368.96-2.875h.962l.961 1.917.962-2.433.961.295.961 1.18 1.923 3.98.961.737.962-.48.96.111 1.923-5.896.962-4.423 1.922-6.854.962-3.648.961-3.059 1.923-.258.96-1.51.962.22.961.074.962 1.069.961 1.732.961 3.353.962-.295.961.664.961-.258.962-2.285.96-2.911.962-2.506.962-2.949.96-3.722.962-1.658.961-3.095 1.923-8.698.961-2.763.962-4.128.961.995.961 2.727h0" style="fill:none;stroke:#d55e00;stroke-linecap:round;stroke-width:1.5" id="line2d_3"/><path clip-path="url(#p1b01f9f9d6)" d="M149.973 340.624h48.065l.961-3.753h1.923l.961-1.877h.961l1.923-11.262.961-7.508.962-1.877.961-5.63.961-1.877 1.923-18.77.961-7.507.961 11.261.962-9.385.961-24.4.961-15.015.962 3.754.961 11.261.961 13.139.962-7.508h.96l.962 31.908.962 22.523.96 3.754.962 11.262.961 5.63.962 1.877.961 13.139.961 22.523.962 16.893.961-1.877.961-3.754.962-9.385.96 15.016.962-1.877.961-24.4.962-20.647.961 5.631.961 3.754.962 7.508.961-5.631.961 3.754h1.923l.961 7.507.962-1.877 1.922 11.262.961 7.508.962 3.754h.961l.961-7.508.962-13.139.961-7.507.961-5.631.962-7.508.96 1.877h.962l.961-1.877.962 5.63.961-1.876.961-3.754.962-1.877.961-5.63h.961l1.923 15.015 1.923 3.754.96-3.754h1.923l.962-13.139.961-5.63 1.923-3.754.96 1.877h1.924l.96 5.63h.962l.961-1.877h.962l.961 1.877h1.923l.961 5.631h.961l.962 1.877h.96l.962-1.877h1.923l.961-9.384.961 1.876h.962l.961-1.876h2.884l.961-3.754h.962l.96-1.877.962 1.877h3.845l.962-3.754.961 3.754h.961l.962-1.877h1.922l.961 11.261h2.884l.962 1.877h1.922l.962 7.508.96-1.877.962-3.754h.962l.96 3.754h1.923l.962-9.385.961 5.631.961 1.877.962-1.877.961-3.754h1.923l.96-3.754.962 3.754h.961l.962 3.754h2.884l.961 3.754.961-5.63.962-1.878h.96l.962-1.877h1.923l.961-1.877h.961l.962 3.754.961-3.754h3.845l.962-3.753.96-1.877h.962l.961 3.754h2.884l.962 3.753.961-7.507.961 3.754h3.846l.96-1.877.962 9.384h.961l.962-1.877h2.884l1.922 3.754.962-3.754h2.883l.962-5.63.961 5.63.961-5.63.962 1.876h2.884l.96 7.508.962-5.63.962 5.63.96 1.877h3.846l.961-1.877.962-11.261.96-18.77.962-3.754h1.923l.961-5.63.961-9.385.962 5.63.961 7.508 2.884-16.892.961 3.754.962 13.138.96 3.754.962 26.277.962 13.139 1.922 11.262.961-7.508.962 1.877.961-9.385.961-16.892.962-3.754 1.922 11.261.962-11.261.96-5.631.962 1.877.961-5.63.962-9.386 2.884-16.892.961 1.877.961 15.015.962-16.892.96 5.63h1.923l.962 16.893 1.922-39.415.962 13.138.961-13.138.961-9.385h.962l.96 16.892.962 13.139.962-1.877.96 41.293.962 30.03.961-28.154h.962l.961-5.63.961 16.892.962 13.139.961-46.924.961-31.908.962 26.277h.96l.962 1.877.961-16.892h.962l.961-18.77.961 1.878.962 48.8h.961l.961-5.63.962 3.753.96 5.63.962 63.816.962 30.031.96-16.892h.962l.961-30.03.962 13.138.961-48.8.961-5.631.962 3.753.961-20.646h1.923l.96-1.877.962 18.77.961-45.047.962 15.016h1.922l.962 18.769.961-28.154.961 46.923.962 1.877.96-54.43.962-18.77h.962l.96 26.277.962 9.385.961-16.893.962 20.646.961 3.754.961 18.77h.962l.961 46.923.961 5.63h.962l.96 18.77.962 35.662.961 18.77h.962l.961-78.832.961 18.77.962 9.384.961-13.139 1.923-56.308h.96l.962 16.893.962 26.277.96-46.923.962-15.016.961 3.754.962 9.385h.961l.961 28.154.962-45.047.96 31.908.962 7.508.962 28.154.96-3.754h.962l.961-28.154.962-20.646.961 37.538.961 9.385.962-16.892.961 3.753.961-13.138.962 22.523.96 28.154.962-37.539.962-22.523.96-11.261 1.923 26.277.962-52.554.961 5.63.961-3.753.962 13.138.96-9.385.962-13.138.962 13.138.96 11.262.962-3.754.961-5.63.962-1.878.961 24.4h.961l.962-13.138.961 5.63.961 1.878.962 3.754.96 1.877.962 9.384h1.923l.961-5.63.961-9.385.962 5.63.961 11.262.961-20.646h.962l.96-16.893.962 41.293.962 1.877.96 7.508.962-39.416.961-3.754h.962l.961 16.893.961-9.385.962-1.877 1.922 16.892v7.508l.962 11.262.96-1.877.962 16.892.961-11.261.962 9.384.961-11.261.961 13.138.962 3.754.961-7.508.961-16.892.962 24.4.96 7.508.962-20.646.962 11.261.96-7.508.962 11.262h.961l.962-18.77.961-9.384.961 9.385.962 11.261.961-7.507.961 5.63h.962l.96-5.63 1.923-7.508.962-5.631.961 13.139.961-7.508h.962l.961 1.877.961 5.63.962 3.754.96-1.877.962 11.262.962 1.877h1.922l.961-3.754.962 7.508.961-5.63.961-13.14.962-1.876h.961l.961 3.753.962-1.876.96-11.262.962-5.63.961-3.755h1.923l.961-7.507h.962l.961-1.877.961 5.63h3.846l.96-5.63 1.923 3.753h3.846l.96 5.631.962 1.877.962-3.754h3.845l.961 5.631h1.923l.961-7.508h2.884l.961-5.63 1.923-3.754.961 7.507h5.768l.961 5.631h3.845l.962-1.877h.961l.961-5.63h3.846l.96 1.876h.962l.961-9.384h1.923l.961-39.416.962-3.754h.961l.961-7.507h2.884l.962 26.277 1.922-3.754.961 9.384.962 18.77h1.922l.962 33.785.961 3.753.961-7.507.962 1.877.96-3.754h1.923l.962-26.277.961 3.754.961 9.384.962-5.63.961-3.754h1.923l.96 20.646.962-3.754.962 7.508.96 5.63.962 1.877h1.923l.961-9.384.961-7.508.962-18.77.961 1.878.961-13.139h1.923l.961-1.877.961-5.63.962 3.753.961 5.631h2.884l.961-7.508.962 22.524.96 13.138.962-20.646.962 11.261h1.922l.961-20.646.962 13.139.961-3.754 1.923 3.754h1.922l.962 33.784.96-20.646.962-1.877.961 16.893.962-3.754h1.922l.962 7.508 1.922-3.754.962 1.877.96-15.016h1.924l.96-9.385.962-3.753.961 5.63.962-5.63.961 18.769h1.923l.96-15.016.962 3.754.962 5.631.96-11.261.962 13.138h1.923l.961 3.754.961 11.262.962-5.631.961 7.507.961-15.015h1.923l.961 3.754.962-11.262.96-1.877.962 7.508.961-1.877h1.923l.961-5.63h.962l.96-18.77.962-3.754.962-11.261h1.922l.961 9.384.962 1.877.961 13.139.961-9.385.962 9.385h1.922l.962-22.524.96-5.63.962 7.507.961 5.631.962 15.016h1.922l.962-7.508h.961l.961-3.754.962-9.385.96-24.4h1.924l.96 30.031.962-3.754 1.923-18.769.961-7.508h1.923l.961 1.877.961-1.877h0" style="fill:none;stroke:#0072b2;stroke-linecap:round;stroke-width:1.5" id="line2d_4"/><path clip-path="url(#p1b01f9f9d6)" d="M117 340.624h725.4" style="fill:none;stroke:red;stroke-dasharray:1.5,2.475;stroke-dashoffset:0;stroke-width:1.5" id="line2d_5"/><path d="M117 576.72V77.76" style="fill:none;stroke:#d3d3d3;stroke-linecap:square;stroke-linejoin:miter;stroke-width:1.25" id="patch_3"/><path d="M117 576.72h725.4" style="fill:none;stroke:#d3d3d3;stroke-linecap:square;stroke-linejoin:miter;stroke-width:1.25" id="patch_4"/><g id="matplotlib.axis_1"><g id="xtick_1"><g style="fill:#696969" transform="matrix(.16 0 0 -.16 111.685 598.378)" id="text_1"><defs><path d="M9.813 72.906h9.859V5.078q0-13.187-5-19.14-5-5.954-16.094-5.954h-3.75v8.297h3.078q6.531 0 9.219 3.672Q9.813-4.39 9.813 5.078z" id="DejaVuSans-74"/><path d="M34.281 27.484q-10.89 0-15.093-2.484-4.204-2.484-4.204-8.5 0-4.781 3.157-7.594 3.156-2.797 8.562-2.797 7.485 0 12 5.297 4.516 5.297 4.516 14.078v2zm17.922 3.72V0H43.22v8.297Q40.14 3.328 35.547.953q-4.594-2.375-11.234-2.375-8.391 0-13.36 4.719Q6 8.016 6 15.922q0 9.219 6.172 13.906 6.187 4.688 18.437 4.688h12.61v.89q0 6.203-4.078 9.594-4.078 3.39-11.453 3.39-4.688 0-9.141-1.124-4.438-1.125-8.531-3.375v8.312q4.921 1.906 9.562 2.844 4.64.953 9.031.953 11.875 0 17.735-6.156 5.86-6.14 5.86-18.64z" id="DejaVuSans-97"/><path d="M54.89 33.016V0h-8.984v32.719q0 7.765-3.031 11.61-3.031 3.858-9.078 3.858-7.281 0-11.484-4.64-4.204-4.625-4.204-12.64V0H9.08v54.688h9.03v-8.5q3.235 4.937 7.594 7.374Q30.078 56 35.797 56q9.422 0 14.25-5.828 4.844-5.828 4.844-17.156z" id="DejaVuSans-110"/></defs><use xlink:href="#DejaVuSans-74"/><use x="29.492" xlink:href="#DejaVuSans-97"/><use x="90.771" xlink:href="#DejaVuSans-110"/></g></g><g id="xtick_2"><g style="fill:#696969" transform="matrix(.16 0 0 -.16 197.656 598.378)" id="text_2"><defs><path d="M34.188 63.188 20.797 26.906h26.812zm-5.579 9.718h11.188L67.578 0h-10.25l-6.64 18.703h-32.86L11.188 0H.78z" id="DejaVuSans-65"/><path d="M18.11 8.203v-29H9.077v75.484h9.031v-8.296q2.844 4.875 7.157 7.234Q29.594 56 35.594 56q9.968 0 16.187-7.906 6.235-7.907 6.235-20.797T51.78 6.484q-6.218-7.906-16.187-7.906-6 0-10.328 2.375-4.313 2.375-7.157 7.25zm30.578 19.094q0 9.906-4.079 15.547-4.078 5.64-11.203 5.64-7.14 0-11.218-5.64-4.079-5.64-4.079-15.547 0-9.906 4.078-15.547 4.079-5.64 11.22-5.64 7.124 0 11.202 5.64t4.078 15.547z" id="DejaVuSans-112"/><path d="M41.11 46.297q-1.516.875-3.297 1.281Q36.03 48 33.89 48q-7.625 0-11.703-4.953-4.079-4.953-4.079-14.234V0H9.08v54.688h9.03v-8.5q2.844 4.984 7.375 7.39Q30.031 56 36.531 56q.922 0 2.047-.125 1.125-.11 2.484-.36z" id="DejaVuSans-114"/></defs><use xlink:href="#DejaVuSans-65"/><use x="68.408" xlink:href="#DejaVuSans-112"/><use x="131.885" xlink:href="#DejaVuSans-114"/></g></g><g id="xtick_3"><g style="fill:#696969" transform="matrix(.16 0 0 -.16 289.322 598.378)" id="text_3"><defs><path d="M8.5 21.578v33.11h8.984V21.922q0-7.766 3.016-11.656 3.031-3.875 9.094-3.875 7.265 0 11.484 4.64 4.234 4.64 4.234 12.656v31h8.985V0h-8.984v8.406Q42.047 3.422 37.718 1q-4.313-2.422-10.032-2.422-9.421 0-14.312 5.86Q8.5 10.296 8.5 21.578zM31.11 56z" id="DejaVuSans-117"/><path d="M9.422 75.984h8.984V0H9.422z" id="DejaVuSans-108"/></defs><use xlink:href="#DejaVuSans-74"/><use x="29.492" xlink:href="#DejaVuSans-117"/><use x="92.871" xlink:href="#DejaVuSans-108"/></g></g><g id="xtick_4"><g style="fill:#696969" transform="matrix(.16 0 0 -.16 373.582 598.378)" id="text_4"><defs><path d="M39.406 66.219q-10.75 0-17.078-8.016-6.312-8-6.312-21.828 0-13.766 6.312-21.781 6.328-8 17.078-8 10.735 0 17.016 8 6.281 8.015 6.281 21.781 0 13.828-6.281 21.828-6.281 8.016-17.016 8.016zm0 8q15.328 0 24.5-10.281 9.188-10.282 9.188-27.563 0-17.234-9.188-27.516-9.172-10.28-24.5-10.28-15.375 0-24.593 10.25-9.204 10.265-9.204 27.546t9.204 27.563q9.218 10.28 24.593 10.28z" id="DejaVuSans-79"/><path d="M48.781 52.594v-8.407q-3.812 2.11-7.64 3.157-3.828 1.047-7.735 1.047-8.75 0-13.593-5.547-4.829-5.532-4.829-15.547 0-10.016 4.829-15.563 4.843-5.53 13.593-5.53 3.907 0 7.735 1.046 3.828 1.047 7.64 3.156V2.094Q45.016.344 40.984-.531q-4.015-.89-8.562-.89-12.36 0-19.64 7.765-7.266 7.765-7.266 20.953 0 13.375 7.343 21.031Q20.22 56 33.016 56q4.14 0 8.093-.86 3.953-.843 7.672-2.546z" id="DejaVuSans-99"/><path d="M18.313 70.219V54.688h18.5v-6.985h-18.5V18.016q0-6.688 1.828-8.594 1.828-1.906 7.453-1.906h9.218V0h-9.218q-10.407 0-14.36 3.875-3.953 3.89-3.953 14.14v29.688H2.687v6.984h6.594V70.22z" id="DejaVuSans-116"/></defs><use xlink:href="#DejaVuSans-79"/><use x="78.711" xlink:href="#DejaVuSans-99"/><use x="133.691" xlink:href="#DejaVuSans-116"/></g></g><g id="xtick_5"><g style="fill:#696969" transform="matrix(.16 0 0 -.16 463.522 598.378)" id="text_5"><use xlink:href="#DejaVuSans-74"/><use x="29.492" xlink:href="#DejaVuSans-97"/><use x="90.771" xlink:href="#DejaVuSans-110"/></g></g><g id="xtick_6"><g style="fill:#696969" transform="matrix(.16 0 0 -.16 548.532 598.378)" id="text_6"><use xlink:href="#DejaVuSans-65"/><use x="68.408" xlink:href="#DejaVuSans-112"/><use x="131.885" xlink:href="#DejaVuSans-114"/></g></g><g id="xtick_7"><g style="fill:#696969" transform="matrix(.16 0 0 -.16 640.198 598.378)" id="text_7"><use xlink:href="#DejaVuSans-74"/><use x="29.492" xlink:href="#DejaVuSans-117"/><use x="92.871" xlink:href="#DejaVuSans-108"/></g></g><g id="xtick_8"><g style="fill:#696969" transform="matrix(.16 0 0 -.16 724.458 598.378)" id="text_8"><use xlink:href="#DejaVuSans-79"/><use x="78.711" xlink:href="#DejaVuSans-99"/><use x="133.691" xlink:href="#DejaVuSans-116"/></g></g><g id="xtick_9"><g style="fill:#696969" transform="matrix(.16 0 0 -.16 814.398 598.378)" id="text_9"><use xlink:href="#DejaVuSans-74"/><use x="29.492" xlink:href="#DejaVuSans-97"/><use x="90.771" xlink:href="#DejaVuSans-110"/></g></g></g><g id="matplotlib.axis_2"><g id="ytick_1"><g style="fill:#696969" transform="matrix(.16 0 0 -.16 73.733 539.083)" id="text_10"><defs><path d="M10.594 35.5h62.593v-8.297H10.594z" id="DejaVuSans-8722"/><path d="M37.797 64.313 12.89 25.39h24.906zm-2.594 8.593H47.61V25.391h10.407v-8.203H47.609V0h-9.812v17.188H4.89v9.515z" id="DejaVuSans-52"/><path d="M31.781 66.406q-7.61 0-11.453-7.5Q16.5 51.422 16.5 36.375q0-14.984 3.828-22.484 3.844-7.5 11.453-7.5 7.672 0 11.5 7.5 3.844 7.5 3.844 22.484 0 15.047-3.844 22.531-3.828 7.5-11.5 7.5zm0 7.813q12.266 0 18.735-9.703 6.468-9.688 6.468-28.141 0-18.406-6.468-28.11-6.47-9.687-18.735-9.687-12.25 0-18.718 9.688-6.47 9.703-6.47 28.109 0 18.453 6.47 28.14Q19.53 74.22 31.78 74.22z" id="DejaVuSans-48"/></defs><use xlink:href="#DejaVuSans-8722"/><use x="83.789" xlink:href="#DejaVuSans-52"/><use x="147.412" xlink:href="#DejaVuSans-48"/></g></g><g id="ytick_2"><g style="fill:#696969" transform="matrix(.16 0 0 -.16 73.733 442.893)" id="text_11"><defs><path d="M19.188 8.297h34.421V0H7.33v8.297q5.609 5.812 15.296 15.594 9.703 9.797 12.188 12.64 4.734 5.313 6.609 9 1.89 3.688 1.89 7.25 0 5.813-4.078 9.469-4.078 3.672-10.625 3.672-4.64 0-9.797-1.61-5.14-1.609-11-4.89v9.969Q13.767 71.78 18.938 73q5.188 1.219 9.485 1.219 11.328 0 18.062-5.672 6.735-5.656 6.735-15.125 0-4.5-1.688-8.531-1.672-4.016-6.125-9.485-1.218-1.422-7.765-8.187-6.532-6.766-18.453-18.922z" id="DejaVuSans-50"/></defs><use xlink:href="#DejaVuSans-8722"/><use x="83.789" xlink:href="#DejaVuSans-50"/><use x="147.412" xlink:href="#DejaVuSans-48"/></g></g><g id="ytick_3"><use xlink:href="#DejaVuSans-48" style="fill:#696969" transform="matrix(.16 0 0 -.16 97.32 346.703)" id="text_12"/></g><g id="ytick_4"><g style="fill:#696969" transform="matrix(.16 0 0 -.16 87.14 250.513)" id="text_13"><use xlink:href="#DejaVuSans-50"/><use x="63.623" xlink:href="#DejaVuSans-48"/></g></g><g id="ytick_5"><g style="fill:#696969" transform="matrix(.16 0 0 -.16 87.14 154.324)" id="text_14"><use xlink:href="#DejaVuSans-52"/><use x="63.623" xlink:href="#DejaVuSans-48"/></g></g><g style="fill:#696969" transform="matrix(0 -.2 -.2 0 65.573 379.813)" id="text_15"><defs><path d="M51.125 44H36.922l-4.11-16.313h14.313zm-7.328 27.781-5.078-20.265h14.265L58.11 71.78h7.813L60.89 51.516h15.234V44h-17.14l-4-16.313h15.53V20.22H53.079L48 0h-7.813l5.032 20.219H30.906L25.875 0h-7.86l5.079 20.219H7.719v7.468h17.187L29 44H13.281v7.516h17.625l4.985 20.265z" id="DejaVuSans-35"/><path d="M30.61 48.39q-7.22 0-11.422-5.64-4.204-5.64-4.204-15.453 0-9.813 4.172-15.453 4.188-5.64 11.453-5.64 7.188 0 11.375 5.655 4.203 5.672 4.203 15.438 0 9.719-4.203 15.406-4.187 5.688-11.375 5.688zm0 7.61q11.718 0 18.406-7.625 6.703-7.61 6.703-21.078 0-13.422-6.703-21.078-6.688-7.64-18.407-7.64-11.765 0-18.437 7.64-6.656 7.656-6.656 21.078 0 13.469 6.656 21.078Q18.844 56 30.609 56z" id="DejaVuSans-111"/><path d="M37.11 75.984V68.5h-8.594q-4.828 0-6.72-1.953-1.874-1.953-1.874-7.031v-4.828h14.797v-6.985H19.922V0H10.89v47.703H2.297v6.984h8.594V58.5q0 9.125 4.25 13.297 4.25 4.187 13.468 4.187z" id="DejaVuSans-102"/><path d="M44.281 53.078v-8.5q-3.797 1.953-7.906 2.922-4.094.984-8.5.984-6.688 0-10.031-2.047-3.344-2.046-3.344-6.156 0-3.125 2.39-4.906 2.391-1.781 9.626-3.39l3.078-.688q9.562-2.047 13.593-5.781 4.032-3.735 4.032-10.422 0-7.625-6.032-12.078-6.03-4.438-16.578-4.438-4.39 0-9.156.86Q10.688.296 5.422 2v9.281q4.984-2.594 9.812-3.89 4.829-1.282 9.579-1.282 6.343 0 9.75 2.172 3.421 2.172 3.421 6.125 0 3.656-2.468 5.61-2.453 1.953-10.813 3.765l-3.125.735q-8.344 1.75-12.062 5.39-3.704 3.64-3.704 9.985 0 7.718 5.47 11.906Q16.75 56 26.811 56q4.97 0 9.36-.734 4.406-.72 8.11-2.188z" id="DejaVuSans-115"/><path d="M56.203 29.594v-4.39H14.891q.593-9.282 5.593-14.142 5-4.859 13.938-4.859 5.172 0 10.031 1.266 4.86 1.265 9.656 3.812v-8.5Q49.266.734 44.187-.344 39.11-1.422 33.892-1.422q-13.094 0-20.735 7.61-7.64 7.625-7.64 20.625 0 13.421 7.25 21.296Q20.016 56 32.328 56q11.031 0 17.453-7.11 6.422-7.093 6.422-19.296zm-8.984 2.64q-.094 7.36-4.125 11.75-4.032 4.407-10.672 4.407-7.516 0-12.031-4.25-4.516-4.25-5.203-11.97z" id="DejaVuSans-101"/></defs><use xlink:href="#DejaVuSans-35"/><use x="83.789" xlink:href="#DejaVuSans-32"/><use x="115.576" xlink:href="#DejaVuSans-111"/><use x="176.758" xlink:href="#DejaVuSans-102"/><use x="211.963" xlink:href="#DejaVuSans-32"/><use x="243.75" xlink:href="#DejaVuSans-99"/><use x="298.73" xlink:href="#DejaVuSans-97"/><use x="360.01" xlink:href="#DejaVuSans-115"/><use x="412.109" xlink:href="#DejaVuSans-101"/><use x="473.633" xlink:href="#DejaVuSans-115"/></g></g><g style="fill:#696969" transform="matrix(.24 0 0 -.24 261.11 71.76)" id="text_16"><defs><path d="M9.813 72.906h13.28l32.329-60.984v60.984h9.562V0h-13.28L19.39 60.984V0H9.813z" id="DejaVuSans-78"/><path d="M4.203 54.688h8.985l11.234-42.672 11.172 42.672h10.593l11.235-42.672 11.187 42.672h8.985L63.28 0H52.688L40.922 44.828 29.109 0H18.5z" id="DejaVuSans-119"/><path d="M64.406 67.281v-10.39q-4.984 4.64-10.625 6.922-5.64 2.296-11.984 2.296-12.5 0-19.14-7.64-6.641-7.64-6.641-22.094 0-14.406 6.64-22.047 6.64-7.64 19.14-7.64 6.345 0 11.985 2.296 5.64 2.297 10.625 6.938V5.609Q59.234 2.094 53.437.33q-5.78-1.75-12.218-1.75-16.563 0-26.094 10.124-9.516 10.14-9.516 27.672 0 17.578 9.516 27.703 9.531 10.14 26.094 10.14 6.531 0 12.312-1.734 5.797-1.734 10.875-5.203z" id="DejaVuSans-67"/><path d="M3.328 72.906h9.953L28.61 11.281l15.282 61.625h11.093l15.328-61.625 15.282 61.625h10.015L77.297 0H64.89L49.516 63.281 33.984 0H21.578z" id="DejaVuSans-87"/><path d="M9.078 75.984h9.031V31.11l26.813 23.578H56.39l-29-25.578L57.625 0H45.906L18.11 26.703V0H9.08z" id="DejaVuSans-107"/><path d="M4.89 31.39h26.313v-8H4.891z" id="DejaVuSans-45"/><path d="M2.984 54.688H12.5L29.594 8.797l17.093 45.89h9.516L35.687 0H23.485z" id="DejaVuSans-118"/><path d="M11.719 12.406h10.297V0H11.719zm0 39.297h10.297v-12.39H11.719z" id="DejaVuSans-58"/><path d="M12.406 8.297h16.11v55.625l-17.532-3.516v8.985l17.438 3.515h9.86V8.296H54.39V0H12.406z" id="DejaVuSans-49"/><path d="M45.406 27.984q0 9.766-4.031 15.125-4.016 5.375-11.297 5.375-7.219 0-11.25-5.375-4.031-5.359-4.031-15.125 0-9.718 4.031-15.093t11.25-5.375q7.281 0 11.297 5.375 4.031 5.375 4.031 15.093zm8.985-21.203q0-13.953-6.203-20.765Q42-20.797 29.203-20.797q-4.734 0-8.937.703-4.203.703-8.157 2.172v8.735q3.954-2.141 7.813-3.157 3.86-1.031 7.86-1.031 8.843 0 13.234 4.61 4.39 4.609 4.39 13.937v4.453q-2.781-4.844-7.125-7.234Q33.938 0 27.875 0 17.828 0 11.672 7.656q-6.156 7.672-6.156 20.328 0 12.688 6.156 20.344Q17.828 56 27.875 56q6.063 0 10.406-2.39 4.344-2.391 7.125-7.22v8.297h8.985z" id="DejaVuSans-103"/></defs><use xlink:href="#DejaVuSans-78"/><use x="74.805" xlink:href="#DejaVuSans-101"/><use x="136.328" xlink:href="#DejaVuSans-119"/><use x="218.115" xlink:href="#DejaVuSans-32"/><use x="249.902" xlink:href="#DejaVuSans-67"/><use x="319.727" xlink:href="#DejaVuSans-97"/><use x="381.006" xlink:href="#DejaVuSans-115"/><use x="433.105" xlink:href="#DejaVuSans-101"/><use x="494.629" xlink:href="#DejaVuSans-115"/><use x="546.729" xlink:href="#DejaVuSans-32"/><use x="578.516" xlink:href="#DejaVuSans-87"/><use x="671.518" xlink:href="#DejaVuSans-101"/><use x="733.041" xlink:href="#DejaVuSans-101"/><use x="794.564" xlink:href="#DejaVuSans-107"/><use x="852.475" xlink:href="#DejaVuSans-45"/><use x="890.434" xlink:href="#DejaVuSans-111"/><use x="951.615" xlink:href="#DejaVuSans-118"/><use x="1010.795" xlink:href="#DejaVuSans-101"/><use x="1072.318" xlink:href="#DejaVuSans-114"/><use x="1107.057" xlink:href="#DejaVuSans-45"/><use x="1139.141" xlink:href="#DejaVuSans-87"/><use x="1232.143" xlink:href="#DejaVuSans-101"/><use x="1293.666" xlink:href="#DejaVuSans-101"/><use x="1355.189" xlink:href="#DejaVuSans-107"/><use x="1413.1" xlink:href="#DejaVuSans-58"/><use x="1446.791" xlink:href="#DejaVuSans-32"/><use x="1478.578" xlink:href="#DejaVuSans-49"/><use x="1542.201" xlink:href="#DejaVuSans-52"/><use x="1605.824" xlink:href="#DejaVuSans-32"/><use x="1637.611" xlink:href="#DejaVuSans-97"/><use x="1698.891" xlink:href="#DejaVuSans-118"/><use x="1758.07" xlink:href="#DejaVuSans-103"/></g><g id="legend_1"><path d="M694.75 184.5H831.2q3.2 0 3.2-3.2V88.96q0-3.2-3.2-3.2H694.75q-3.2 0-3.2 3.2v92.34q0 3.2 3.2 3.2z" style="fill:none;opacity:.8;stroke:#ccc;stroke-linejoin:miter" id="patch_5"/><path d="M697.95 98.718h32" style="fill:none;stroke:#000;stroke-linecap:round;stroke-width:1.5" id="line2d_6"/><g style="fill:#696969" transform="matrix(.16 0 0 -.16 742.75 104.317)" id="text_17"><defs><path d="M8.688 72.906h9.921V28.61q0-11.718 4.235-16.875 4.25-5.14 13.781-5.14 9.469 0 13.719 5.14 4.25 5.157 4.25 16.875v44.297H64.5V27.391q0-14.25-7.063-21.532-7.046-7.28-20.812-7.28-13.828 0-20.89 7.28-7.047 7.282-7.047 21.532z" id="DejaVuSans-85"/><path d="M53.516 70.516V60.89q-5.61 2.687-10.594 4-4.984 1.328-9.625 1.328-8.047 0-12.422-3.125t-4.375-8.89q0-4.845 2.906-7.313 2.907-2.453 11.016-3.97l5.953-1.218q11.031-2.11 16.281-7.406 5.25-5.297 5.25-14.172 0-10.61-7.11-16.078-7.093-5.469-20.812-5.469-5.172 0-11.015 1.172Q13.14.922 6.89 3.219v10.156q6-3.36 11.765-5.078 5.766-1.703 11.328-1.703 8.438 0 13.032 3.312 4.593 3.328 4.593 9.485 0 5.359-3.297 8.39-3.296 3.032-10.812 4.547L27.484 33.5q-11.03 2.188-15.968 6.875-4.922 4.688-4.922 13.047 0 9.672 6.812 15.234 6.813 5.563 18.766 5.563 5.14 0 10.453-.938 5.328-.922 10.89-2.765z" id="DejaVuSans-83"/></defs><use xlink:href="#DejaVuSans-85"/><use x="73.193" xlink:href="#DejaVuSans-83"/></g><path d="M697.95 122.203h32" style="fill:none;stroke:#009e73;stroke-linecap:round;stroke-width:1.5" id="line2d_8"/><g style="fill:#696969" transform="matrix(.16 0 0 -.16 742.75 127.802)" id="text_18"><use xlink:href="#DejaVuSans-78"/><use x="74.805" xlink:href="#DejaVuSans-74"/></g><path d="M697.95 145.688h32" style="fill:none;stroke:#d55e00;stroke-linecap:round;stroke-width:1.5" id="line2d_10"/><g style="fill:#696969" transform="matrix(.16 0 0 -.16 742.75 151.287)" id="text_19"><defs><path d="M19.672 34.813V8.108H35.5q7.953 0 11.781 3.297 3.844 3.297 3.844 10.078 0 6.844-3.844 10.078-3.828 3.25-11.781 3.25zm0 29.984V42.828h14.61q7.218 0 10.75 2.703 3.546 2.719 3.546 8.282 0 5.515-3.547 8.25-3.531 2.734-10.75 2.734zm-9.86 8.11h25.204q11.28 0 17.375-4.688Q58.5 63.53 58.5 54.89q0-6.703-3.125-10.657-3.125-3.953-9.188-4.922 7.282-1.562 11.313-6.53 4.031-4.954 4.031-12.376 0-9.765-6.64-15.093Q48.25 0 35.984 0H9.812z" id="DejaVuSans-66"/></defs><use xlink:href="#DejaVuSans-66"/><use x="68.604" xlink:href="#DejaVuSans-101"/><use x="130.127" xlink:href="#DejaVuSans-114"/><use x="169.49" xlink:href="#DejaVuSans-103"/><use x="232.967" xlink:href="#DejaVuSans-101"/><use x="294.49" xlink:href="#DejaVuSans-110"/></g><path d="M697.95 169.173h32" style="fill:none;stroke:#0072b2;stroke-linecap:round;stroke-width:1.5" id="line2d_12"/><g style="fill:#696969" transform="matrix(.16 0 0 -.16 742.75 174.773)" id="text_20"><defs><path d="M44.39 34.188q3.172-1.079 6.172-4.594 3-3.516 6.032-9.672L66.609 0H56l-9.313 18.703q-3.624 7.328-7.015 9.719-3.39 2.39-9.25 2.39h-10.75V0h-9.86v72.906h22.266q12.5 0 18.656-5.234 6.157-5.219 6.157-15.766 0-6.89-3.203-11.437-3.204-4.532-9.297-6.282zM19.673 64.797V38.922h12.406q7.125 0 10.766 3.297 3.64 3.297 3.64 9.687 0 6.39-3.64 9.64-3.64 3.25-10.766 3.25z" id="DejaVuSans-82"/><path d="M54.89 33.016V0h-8.984v32.719q0 7.765-3.031 11.61-3.031 3.858-9.078 3.858-7.281 0-11.484-4.64-4.204-4.625-4.204-12.64V0H9.08v75.984h9.03V46.188q3.235 4.937 7.594 7.374Q30.078 56 35.797 56q9.422 0 14.25-5.828 4.844-5.828 4.844-17.156z" id="DejaVuSans-104"/><path d="M45.406 46.39v29.594h8.985V0h-8.985v8.203Q42.578 3.328 38.25.953q-4.313-2.375-10.375-2.375-9.906 0-16.14 7.906-6.22 7.922-6.22 20.813 0 12.89 6.22 20.797Q17.968 56 27.874 56q6.063 0 10.375-2.375 4.328-2.36 7.156-7.234zm-30.61-19.093q0-9.906 4.079-15.547 4.078-5.64 11.203-5.64 7.125 0 11.219 5.64 4.11 5.64 4.11 15.547 0 9.906-4.11 15.547-4.094 5.64-11.219 5.64-7.125 0-11.203-5.64-4.078-5.64-4.078-15.547z" id="DejaVuSans-100"/></defs><use xlink:href="#DejaVuSans-82"/><use x="64.982" xlink:href="#DejaVuSans-117"/><use x="128.361" xlink:href="#DejaVuSans-116"/><use x="167.57" xlink:href="#DejaVuSans-104"/><use x="230.949" xlink:href="#DejaVuSans-101"/><use x="292.473" xlink:href="#DejaVuSans-114"/><use x="333.586" xlink:href="#DejaVuSans-102"/><use x="368.791" xlink:href="#DejaVuSans-111"/><use x="429.973" xlink:href="#DejaVuSans-114"/><use x="469.336" xlink:href="#DejaVuSans-100"/></g></g></g></g><defs><clipPath id="p1b01f9f9d6"><path d="M117 77.76h725.4v498.96H117z"/></clipPath></defs></svg>