<svg height="864" viewBox="0 0 936 648" width="1248" xmlns="http://www.w3.org/2000/svg" xmlns:xlink="http://www.w3.org/1999/xlink"><defs><style>*{stroke-linecap:butt;stroke-linejoin:round}</style></defs><g id="figure_1"><path d="M0 648h936V0H0z" style="fill:#fff" id="patch_1"/><g id="axes_1"><path d="M117 576.72h725.4V77.76H117z" style="fill:none" id="patch_2"/><path clip-path="url(#p59deecc196)" d="m149.973 554.04 35.622-.102 2.607-.136 1.738-.275 1.737-.43 1.738-.592 1.738-.898 1.737-1.078 1.738-1.113 2.607-2.125 1.737-1.604 1.738-1.089 1.738-1.076 1.737-.981 1.738-.56 2.607-.277 1.737-.032.87.195 1.737.11 1.738.226.868.027 1.738-.173 2.607.146 1.737.137 2.607-.126 1.738.21 1.737.28 2.607.726 2.606.387.87.098 2.606.6 1.737.083 2.607.233 1.738.084.869-.043 3.475.346 4.344.053.869.12.869-.143 9.557-.183 4.344-.914 1.738-.827 1.738-.931 5.213-3.614 1.738-1.56 3.475-2.096 2.606-1.852 6.082-3.72.87-.361.868-.508 2.607-.988.868-.293 1.738-.33 2.607.246.869.045.868.196 1.738.216 2.607 1.033 1.737.827 1.738.693.869.166 4.344 1.705 1.738.427 3.475 1.232 4.344 1.724 4.345 1.31 1.737.006.87.306 3.475.049.868.442 2.607.863.869-.029.869.16 1.737-.01.87.141.868-.198 2.607.138.868-.185.87-.864 3.475-.893 4.344-.444 1.738-.168.868-.173.87.037 2.606-.707.869-.325.869-.127 3.475-1.096 2.606-1.555.87-.144.868-.372.869-.088.869-.514.869-.325.869-.544 1.737-1.545.87-.433.868-.772 1.738-1.219 1.737-1.587 1.738-1.675 1.738-1.751 2.606-3.99 2.607-4.26 2.606-5.782 1.738-4.537.869-1.77 1.738-4.11 2.606-5.697.869-1.334.869-1.084.869-1.426 1.737-2.2.87 1.76.868-.706.869.221 1.738-.059.868-.655 2.607-2.658 1.738-1.882.868-.722 1.738-2.349.869-3.545.869-2.166 1.738-3.022.868-.964.87-.549.868-1.266 1.738-1.154.869.342.868-.232.87.088.868.524.869-.234.869.92.869 5.209.869-.271.868.932.87.344.868.062.869.46.869.194.869 3.015.868-2.834.87-.634.868-1.46 1.738-1.785.869-2.518.869-5.796.868-1.017.87-1.63.868-1.082.869-.84.869-.01.869-.247.868-2.686.87 2.593.868.92.869 3.21.869 1.394.869 2.044.869 2.606.868 3.167 1.738 4.717 1.738 4.324 3.475 8.426.869 1.633.869-.021 1.738 3.973 2.606 5.507.869 1.23.869 1.844 1.737 3.336 2.607 5.066.869 1.45.869 2.512 3.475 5.977 2.607 2.924 3.475 2.736.869.637.869.374.869-.042 1.737.303.87.131 2.606 1.177.869-1.017 3.475 1.789 1.738.755 1.737.076 2.607.568 1.738.233.868 1.154.87-.025.868-.63 1.738-.494.869-.323.868-.19.87-.393 1.737-.485.869-.485 2.606-.589.87-.634.868-.152.869.198.869-.33 1.737-.322 1.738-.135.869-.438.869-.227.869.102.869-.283.868.297.87-.132.868.183.869.028 1.738.72 1.737.93.87.417 2.606 2.059 2.606 1.307.87.34 3.474 2.226 1.738.96 1.738.639 4.344 2.597.869.375.869.601 1.737.842 2.607 1.505 1.738.555 2.606.985 1.738 1.057.869.27.869.687.868.153 1.738.64.869 1.538 3.475.89.87.08.868.346 1.738.246.869.019.868-.28.87.311.868.071.869.211.869-1.064 7.82.69 1.737-.125.869-.045.869-1.53.869-.225 1.737.137.87.326 1.737-.884.869-1.002.869-.59 1.737-.071.87-.575 1.737-1.431.869.84.869-.923 1.737-.422.87-1.583 1.737-1.874.869-.472.868-1.384.87-.401.868-.24 3.476-6.692.868-2.043 1.738-.903.869-2.233.869-2.558.869-1.524.868-1.783.87-2.473 1.737-1.24.869-2.483.869-1.603.869-2.048.868-1.172.87-1.877 1.737-1.19.869-3.577.869.174.868-1.516 2.607-2.938.869-.13.869-2.537.869.345.868-.446.87-1.422.868-.247.869-1.028.869.048.869-.607.869-.462.868-1.346.87-.462.868.236.869.387.869-.112.869 5.487.868-4.378.87-.385 2.606 1.396.869.075.869-.135.868.22.87 1.183 1.737 1.315.869-.062.869.13.868-3.805.87 4.964 2.606 3.356.869.648.869.154.868 2.618 3.476 4.666.869.695.868.41 1.738 1.938 1.738 1.276.869.785 1.737.739.87 2.062.868.051.869.637 1.738 1.58.868.31.87.106.868 1.47.869.432.869 1.14 1.738 1.424 1.737.39.87.526.868.7.869.349.869.08.868.286 1.738.215.869-.074.869.195 1.738.019 2.606-.336.869-.606.869.129.869-.131.868.626.87-1.178.868-.928.869-.137.869-.698.869-.392 2.606-2.453 1.738-.534.869-.941.869-.284.868-.604.87.978.868 2.258.869 1.065.869-.01.869-1.963.869-.546 1.737-1.549.87-.974.868-.495.869-.093.869-1.118.868-.616.87-.845.868-2.687.869-3.293.869-.774.869-.36.869.39 2.606-.613 1.738-.998.869-1.1.868-3.058.87-2.189.868-2.745.869-4.11.869-.547.869-.203.869-4.448.868-9.88.87-7.652.868-9.971.869-12.725.869-7.987.869-2.506.868-6.211 1.738-40.966 1.738-27.679.869-20.773.869-11.25.868-3.643.87-25.825 1.737-22.635.869-8.247.869-14.117.868-7.604.87-1.484.868 8.9.869-8.482.869-4.29.869.317.869 2.17 1.737 6.518.87 11.654.868 7.512.869 5.63 1.737 20.806.87 5.253.868 6.779.869 1.452.869 25.583.869 15.282.869 12.647.868 14.882.87 6.2.868 4.09.869 19.839.869 9.176.869 13.336 1.737 21.52.87 5.166.868 2.02.869 13.216 1.738 10.576 1.737 11.92.87 2.244.868.937.869 8.482.869 2.07.869 4.113.868 2.905.87 2.431.868 1.124.869.734.869 2.857.869 1.975.868 2.412h0" style="fill:none;stroke:#000;stroke-linecap:round;stroke-width:1.5" id="line2d_1"/><path clip-path="url(#p59deecc196)" d="m149.973 554.04 35.622-.105 2.607-.352.869-.329.869-.17.869-.471.868-.618 1.738-1.877.869-.77.869-2.646.869-2.066 1.737-4.836.87-3.4.868-2.109 2.607-11.329.868-4.06 1.738-5.85 1.738-5.132.869-1.196.868-1.727 1.738-2.895.869.553.869-2.336.869 1.45.869-1.02 1.737 2.605.87-.536.868.086.869-.274 1.737-1.062.87 1.451 1.737.45.869.626.869 1.685.869-.216.868 2.035.87.656.868.456.869.915.869 2.122.869 1.347 1.737 4.887.87.416.868 1.818.869 2.216.869.79.869 2.004.868 1.705 1.738 2.766.869 1.44.869 1.909.869-.193.868 1.447.87-.096 1.737 1.333.869 1.336 1.738.934.868.135 1.738-.096.869.184 1.738.888.868 1.32.87.372.868.925.869.654.869.473.869-.184.869.834.868.649 1.738.736 1.738 1.498.869.346.868.602 2.607.858.869.062.869.447.869.235 1.737.024.87-.021.868.42.869-1.809.869-.043.868.163.87-.035.868.141 1.738-.06 3.475-.04 1.738.125.869-.1.869 2.064 1.737-.013.87-.032.868-.143.869.002.869-.138.869.221.868.36.87.03.868.43 1.738.002 3.475-.403 2.607-.515 1.737-.018.87-.686.868-.114.869-.377 1.738-.157h.868l.87-.142 1.737.26 2.607.42.868-.025.87-.485 1.737.227.869.33 1.738-.025.868.017.87.294.868.075.869-.173.869.21.869.036 1.737.38.87.374.868.227.869-.076.869-.298 2.606-.026.869-.298.869-.17.869.218 1.737-.29.87.027 4.344-.463.868.016 9.558-1.282 2.606-.994.87-.021.868-.341.869-.048.869-.271.868-.521 3.476-.639.869-.787.869-.34 1.737-.178.87.096.868-.57.869-.248.869-.382 1.737-.061 1.738-1.426.869-.384.869-.559.869.146.868-.193.87-1.12.868-.405 2.607-2.29.868-.62.87-1.25 1.737-.961.869-.189.869-.896.869-1.514.868-.858.87-1.196.868-1.385 1.738-1.85.869-2.283.868-1.495.87-2.08.868-1.524 1.738-6.2.869-.911.869-2.36.868-1.727.87-2.379 1.737-3.142.869-2.095.869-1.632.868-.534 1.738-2.116.869-.748.869.59.869.75.869-1.041.868-.622.87-.267.868-.655.869-2.183.869-.702.869-2.21.868.02.87-1.287.868-.433.869-.694.869.477.869-2.612.869-.338.868-1.723.87.686.868-1.499.869.577.869 1.894.869 1.214.868.916.87.42.868.936.869-.371.869.446.869-1.511.869 2.401 1.737 4.167.87.331.868 1.054.869-.902.869-1.72.868-1.414.87 1.613.868-51.356.869-1.78.869-1.118.869-2.974.869-2.102 1.737-7.22.87-2.78.868-.995.869-3.387.869-2.139.868-.926.87-.523.868-1.57.869 50.624.869 1.755.869.442.869 2.606.868 3.023.87.282.868.4.869 1.28.869-.204.869 3.288.868 2.514.87.407 1.737 1.685.869.363.869 1.583.869 3.352.868 1.885.87-.03.868 2.827.869 1.007.869 1.696.869 1.285.868.471.87 1.168.868 2.416.869 1.626 1.738 4.49.869-.518.868-1.927.87.014.868 1.267.869 1.75.869 2.465.869-.153.869.449.868 1.342.87.086.868-.147.869-.405.869-.238.869-1.818 1.737.816.87.09.868-.7.869-.904.869-.524.869.426.868-1.038.87-.704 1.737-.628.869.287.869-.986.868.343.87-.458.868-.666.869-1.37.869-.744.869-1.272 2.606-2.4.87-.344.868-.14.869-1.481.869-.857.868-1.28.87-.857.868-1.238.869.69.869-1.218.869-.146.869.497.868-.604.87.343.868 1.17.869-.156.869-.416.869 1.507 3.475 4.554.869.112.869 1.811.869.159.868.56 1.738 1.394 2.607 2.937.868 1.457.87.874.868 1.814.869 12.304.869 1.961.869 1.557.869 1.794 1.737 5.205.87 2.09.868 1.287.869 1.966.869 1.014 1.737 3.948.87 2.286.868 1.452.869-9.813 1.738 3.416.868 1.946.87 1.644 1.737 2.006.869.681.869.385.868 2.234.87.913 1.737.63 1.738.094 1.737.281 1.738.098.869.419.869.025.869.161.868.522.87.184 1.737.684 2.607.007 1.737.434 1.738.047 2.606.012 1.738-.108 2.607.235 2.606.103.87-.09.868.075 1.738-.067 4.344.294 1.738-.027 4.344.096 1.737-.132 4.345-.792.869-.197 1.737-.723.87-.243 1.737-.985 1.737-.993.87-.59 2.606-1.125 2.606-1.97.87-.679 1.737-1.142 2.606-2.043.87-.468 1.737-1.34.869-.365 1.738-1.686 1.737-1.61.87-1.48 1.737-.828 2.606-1.62.87-1.707.868-.664.869-.301.869-.818.869-.244.868-.458.87-.214.868-.802.869.676.869-.618 1.738-.547 1.737-1.207.869 1.291.869-.096 1.738-.634.868 1.611.87-1.484 1.737-.244.869-.6 3.475.068.869-.446.869-.685.869-.401.869-.21.868.352.87-1.94.868 1.228.869-.045.869.46.869.278.869.79.868.413.87.161.868.298 3.475 2.652.87.404 1.737 1.09.869.2 1.738.828.868-.346 2.607.752.869.739.869.31 3.475 2.069.869.8.869.639.869.175 1.737 1.43.87.011.868.181.869.49.869-.35.868.082.87.238.868-.342 3.476-.277.868.344.87-.282.868-.15 1.738.108.869-.374.868.152 1.738-.99 2.607-1.661.869-.697 1.737-1.954 1.738-1.577.869-.74.869-1.26.868-.612.87-1.101 1.737-.724.869-.18.869-.942.869-1.62.868-1.33 1.738-4.514.869-2.374.869-2.03 1.737-2.953.87-2.197.868-2.964.869-3.557.869-2.793.869-2.115 1.737-2.34.87-1.93 1.737-6.103.869-3.462L746 471.42l.87-4.87.868-8.196 1.738-27.845.869-15.952.869-11.057.868-6.915.87-11.614.868-23.024 1.738-58.17.869-26.52.868-20.477.87-15.698.868-22.634.869-27.198.869-15.156.869-20.92 2.606-43.829.87-10.904.868 3.427 1.738 23.704.868 16.645.87 11.796.868 13.573.869 19.817.869 28.261.869 21.638 1.737 53.963 2.607 61.32 1.738 35.468 2.606 40.444 2.607 23.147 1.737 18.245.87 6.39.868 7.9 1.738 8.062.869 5.142.868 3.785.87 8.08.868 3.737 1.738 2.16.869 2.01.869 1.607.868 1.25.87.768.868 1.783 1.738.9.869.752.869 1.245.868 1.546.87 1.232.868.833.869-.121.869.34.869.488.868 1.14h0" style="fill:none;stroke:#009e73;stroke-linecap:round;stroke-width:1.5" id="line2d_2"/><path clip-path="url(#p59deecc196)" d="m149.973 554.04 31.278-.071 4.344-.256 1.738-.53.869-.49.869-1.665.869-.45.869-.204.868-.96.87-1.541.868-.92.869-1.163.869-3.932 1.737-6.27.87-3.369.868-2.9.869-4.125.869-5.473.869-4.503.869-7.372.868-8.925.87-3.39 1.737-11.252.869-2.277.869-.837.868-2.92 1.738-1.961.869.05.869.95.869 1.665.869.45.868 3.195.87 6.065.868-.5 1.738 6.423.869.112.868 1.082.87 2.768.868.602 1.738 3.717.869 1.91.869 2.317.868 4.054.87 2.39.868 1.592 1.738 5.514.869 1.705 1.737 5.555.87 2.185.868 2.86.869 1.04.869.41.869.857.868 1.389.87 2.389 1.737 2.022.869.98.869-.01.868 1.174.87.653 1.737.552.869.817.869-.113 2.606.02.87-2.092.868.51 2.606 1.89.87.326.868-.48.869.337.869.153.869-.143.869 1.185.868.725.87.275.868-.347.869.848.869.418.869-.755.868.49h.87l.868-.225 1.738.276.869.378 3.475.081.869.674.869-2.869.869-.745.868.52.87-.674 2.606.194.869-.06.869-.41.868-.01.87-.5.868-.03.869.112.869-.286.869 2.89.868.418.87-.092.868.562.869.01.869.327 1.738.102.868.429.87.174.868.633.869-.245.869.03 1.737.307.87.275 1.737-.204 2.607-1.072.868.02.87-.449.868-.092.869-.265.869.234.869-.398.868.164 1.738.081.869-.275.869-.092 1.738.46.868.101.87-.204.868-.592 1.738-.899.869-.52 1.737.582.87.776.868.04 2.607.623 1.737-.112.87.235.868 1 .869.164 1.738.786.868-.398.87-.266.868-.806.869-.072.869.317.869-.235.868-.02 1.738.255 1.738-.153.869.367 1.737.204.87.623.868-.05.869-.246.869-.04.869-.235.868.102.87-.01.868-.266 2.607.02 1.737-.347.87-.04.868-.307 1.738-.163 3.475-.868.869.01.869-.255 1.738-1.021.868-.45 1.738-.388.869-.694 2.606-.899.87-.112 2.606-1.746.869-.735 1.737-.388.87-.746.868-.54.869-.746.869-.46 1.737-.612.87-1.369 1.737-1.245.869-.45.869-.765.869-.95.868.01.87-1.276.868-1.869.869-.929.869-.153.869-1.573.868-2.267.87-2.767.868-1.46 1.738-5.064.869-.358 1.737-4.34.87-3.44 1.737-2.42.869-1.981.869-2.635.868-.357 1.738-.266.869-2.001.869 1.807 1.738-2.042.868-.664.87.235.868-.592.869-2.798.869-.704.869-1.42.868.613.87-.398.868.572.869-.082.869 2.675.869-3.257.869 1.348.868-1.103.87 1.215.868-.266.869 1.359.869 2.256 1.737 3.42.87.848.868.388.869-1.878.869-.368.869-1.562.869 2.358 1.737 2.9.87.256.868.132.869-1.725 1.737-1.634.87.694.868-44.642.869-3.022.869-1.542.869-2.053.869-2.45 1.737-6.076.87-1.164.868-.388.869-3.38.869-2.164 1.737-2.237.87-1.838.868 44.336.869 1.522.869.418.869 1.552.868 3.278.87-.704.868.5.869.235.869-1.103 1.737 5.014.87 1.164.868.224.869.644.869-.766.869 1.848.869 3.584.868 1.031.87-1.51.868 1.827.869.541.869.899.869 1.44.868.387.87 1.195.868.909.869 1.072.869 1.654.869 2.134.869-2.113.868-1.583.87.439.868 2.022.869 1.337.869 2.053 1.738-2.094.868.715.87-.858.868-1.47.869-.153.869.082.869-3.635.868 1.072.87-1.318.868-.163.869-1.603.869 1.358.869-1.062.869 1 .868-1.061 1.738-.52.869.734.869.368.869-1.389.868 1.756.87-.786.868.092 1.738-1.715.869-3.145.869-.307.868-.99.87.02.868-.418.869 1.419.869-2.971 1.737-3.34.87-.398 1.737-1.358.869-.633 1.738.256.868-.072.87.225.868 1.582.869-.776.869-.48.869 3.503 1.737 4.125.87 1.256 1.737 4.135.869 1.716 1.737 2.675 2.607 4.258.869 2.093.869 1.052.868 1.644.87.98.868 1.757.869 2.47.869 1.481.869 1.869.869 1.358 1.737 4.911.87 1.501.868.899.869 1.603.869-9.935.868-.99.87 1.592.868 1.95.869.91.869-.338.869 1.389.869 1.031.868 1.88.87.928.868.43.869.295.869.45.869.633.868 12.804.87 3.86.868.153.869.623.869.327 1.738.153.868.46.87.132.868.429.869.725 1.738.653 2.606.562.869.408.869-.132 1.738.214 1.737.49.87.082 3.474-.204.87-.215 2.606-.122.869.275 1.737.133 1.738-.306.869-.174.869.072 1.737-.03 1.738.101 1.738-.306 3.475.01 2.607.51 1.737.062 2.607-.174 1.738-.214 3.475-.98 1.738-.674.869-.592 1.737-1.46.87-.338.868-.592.869-.388.869-.541 1.737-1.41 2.607-1.95.869-.827.869-.52 1.737-.735 1.738-.511.869.102.869-1.133.869-.552.868-.745.87-.296.868-1.072.869.98.869-.102 1.737-1.532.87-.265.868-1.44.869-.684.869-.5.869-.685.869.307.868-.5.87.163.868-.797.869.153.869-1.572.869-.296.869.286.868.01.87-.44.868 1.492.869-.215.869-.071.869-.307.868 1.256.87-.806 1.737-.358.869-.02 1.738.265.868-.316.87-.03.868-.225.869-.5.869-.062.869-.204.868.378.87-1.032.868.756 1.738-.01.869.214.869.082.868-.174.87.715 1.737.04.869.062.869.378.868.766.87.224.868.072 1.738.868.869 1.062.869.439.868.214.87.715.868.122.869.388.869.705.869.541.868.051.87.358.868.224 2.607 2.308.869-.082 1.737 1.246.87-.541.868-.123.869.388.869-.092.868-.234.87.52.868-.122.869.081.869-.224.869-.409.869-.092.868.297 1.738-.194 1.738.755 2.606.398.87-.122.868-.868.869-.398 5.213-5.27.869-.428.869-1.297.868-.715.87-.867 1.737-1.042.869.02.869-.51.869-1.113.868-.786 1.738-2.86.869-1.184.869-.796 2.606-4.759 1.738-5.268 1.738-3.89.869-1.267.868-.817.87-2.93.868-3.41.869-4.034 1.738-10.068.868-3.503.87-5.299.868-10.589.869-14.346 1.738-38.087.869-11.988.868-9.19.87-15.806.868-28.202.869-35.616 1.738-56.773 1.737-30.112 1.738-50.748.869-13.336.869-17.828 1.737-22.383.87-14.03.868-6.892.869 8.465.869 20.412.869 12.457.868 19.32.87 7.249.868 10.854.869 20.412.869 28.53.869 18.215 1.737 54.241.87 16.552 2.606 60.01 1.737 32.9.87 11.63.868 13.478 2.607 24.394 1.737 20.728.87 6.361.868 7.577.869 4.493.869 3.594.869 4.564.868.531.87 5.606.868 3.952.869.081.869 1.154.869 2.665.869 2.247.868 1.286.87.082.868 1.195.869.418.869-.153.869 1.072.869 1.41.868 2.225.87.797.868-.123.869.051 1.738 1.41.868-.062h0" style="fill:none;stroke:#d55e00;stroke-linecap:round;stroke-width:1.5" id="line2d_3"/><path clip-path="url(#p59deecc196)" d="M149.973 554.04h38.229l.869-1.04h1.738l.868-.52h.87l1.737-3.12.869-3.12.869-.521.868-1.56.87-1.04.868-2.6 1.738-7.801h.869l.869-3.12.868-8.322.87-5.2.868-1.56.869-1.04h.869l.869-2.08.868-3.121.87.52.868 1.04.869-.52.869 2.08.869 1.56.869-1.56.868.52.87 6.76.868 5.722.869-1.04.869 1.04.869-1.04.868 2.6h2.607l.869.52.869 2.08 2.606 3.12h1.738l.869 2.6.869 1.56 1.737 5.202.87 3.12.868 1.04h.869l.869.52.869-2.08.868.52 1.738 2.08.869 1.56h1.738l.868-.52h1.738l.869.52h1.738l.869 2.08.868 1.56 1.738 1.04.869-.52h1.738l.868-1.56h6.951l.87-.52h.868l.869.52h1.737l.87 1.56h5.212l.87-1.04.868.52h.869l.869-.52h2.606l.87-2.08.868.52.869-.52h3.475l.87-2.08.868-.52.869.52h.869l.868-.52h1.738l.869 1.04.869-.52.869.52h3.475l.869 3.12.869-1.04.869-.52h.868l.87 1.04h1.737l1.738 1.04h.869l.868-.52h2.607l.869-.52.869 1.56h.868l.87.52h2.606l.869.52h.869l.868-.52.87.52.868-.52h3.476l.868.52 1.738-1.04h2.607l.868-1.04h.87l.868-.52.869.52h3.475l.87-2.08 1.737 1.04h2.606l.87-.52 1.737 1.04h4.344l.87 1.04.868-.52h2.606l.87-1.56.868 1.56.869-.52h3.475l.87.52h.868l.869 1.04.869.52h2.606l.87.52.868-.52.869-2.08.869-4.68.869-1.04h1.737l.87-1.04.868-3.12.869-.52 1.737-5.201 1.738-3.12h.869l1.738 1.04.869 4.68.868 1.04h1.738l.869-2.08.869 1.04.869-2.08h1.737l1.738 3.12.869-5.2.869-.52 1.737-3.12.87-2.601h1.737l.869-6.76h.869l.868 2.6.87-6.241.868-1.04h1.738l.869-2.08.869-5.721 1.737-5.201.87-4.68.868-2.6h.869l.869 2.6.868-2.08.87-3.121.868 8.84.869 3.641.869-10.4h.869l.869 1.04.868 2.6.87.52.868-4.16.869-5.201.869-3.12h.869l.868 1.56.87-2.08.868.52.869-9.362.869-4.68.869 10.4h1.737l.87-1.04.868 2.08.869 8.322.869 3.64.869 5.72h.868l.87-8.32.868 2.6.869-11.441.869 6.76.869 4.681h1.737l.87-8.32.868 2.08 1.738-11.962.869 8.841h1.737l.87-3.12.868-5.72.869 6.76.869-5.2.869-6.241.868-5.201h.87l.868 4.16.869-3.12.869 2.08.869.52.868-5.2h1.738l.869 17.162.869-1.56.869 2.08.869 5.72 1.737 9.882h.87l.868-4.68.869 3.64.869 4.68.868 2.08.87-3.12.868-2.6h1.738l.869 10.92.869-8.32 1.737-4.16h1.738l.869 7.8.869-1.56.868.52h.87l.868 5.72.869-1.04h1.738l.869-7.28.868 10.921.87 2.6.868 1.04h.869l.869-3.64.869 6.24 1.737 1.041.87-3.64.868-2.08.869 3.64h.869l.869-8.321.868 2.08.87-.52h.868l.869-4.68h.869l.869 3.64.869-5.2.868 1.04.87-2.08.868-.52.869 2.08h1.738l.868-3.641.87 1.56.868-1.04h.869l.869 4.68h1.738l.868-5.2.87-1.04.868.52.869 3.12.869-1.04h.869l.868-4.68.87 6.24.868-.52.869 2.6.869-7.8.869-2.08h1.737l.87 3.64.868-1.04 1.738-.52v-.52l.869 1.04.868-.52.87 4.68.868.52.869 1.56.869-1.04.869 3.12.869 2.08.868-2.6h.87l.868 7.281.869 3.64 1.738 2.081h.868l.87.52h.868l.869 2.08 1.738 2.08.869 4.161.868-2.08.87 2.08h.868l.869.52h1.738l.868 2.6.87 1.56h1.737l.869 1.04.869 1.561.869 1.04.868 2.08.87 4.68.868.52h.869l.869 1.041.869.52.868 3.12.87.52.868 1.04h1.738l.869 2.08h1.737l.87-1.04h4.343l.87-.52.868.52h3.476l.868-1.56h.87l.868 1.04h4.344l.87.52h4.343l.87 1.56.868.521h.869l.869-2.08h4.344l.869-.52h5.213l.869-.52.869 1.56h3.475l1.738-1.04h5.213l.869-.52.868-2.6h1.738l.869-10.922.869-1.04h.869l1.737-5.2h1.738l.869-3.641.869-1.56.869-.52h.868l.87 2.6h1.737l.869 5.72.869-.52.869-2.6.868.52.87 1.56h1.737l.869-1.56.869.52h.868l.87-1.04.868.52h1.738l.869 4.16.869-.52.868 2.081.87.52.868 1.04h1.738l.869 1.56.869-2.6.868-3.12.87 1.04.868-2.6h1.738l.869 1.04.868-4.16.87-2.081.868 2.6.869-2.6h1.738l.869-1.04.868 2.08.87 1.56.868-3.12.869.52h1.738l.868-6.76.87 5.72.868.52.869-2.6.869 1.04h1.738l.868 2.6h1.738l.869 2.08h2.606l.87 4.68 1.737-1.04.869 2.601.869-4.16h1.737l.87 2.08.868-1.56 2.607 3.12h1.737l.87-2.08.868-.52.869 2.6.869-2.08.869 4.68h1.737l.87-1.04.868 2.6.869 1.04h.869l.868.52h2.607l.869-.52.869.52.869 2.08h2.606l.869-1.56.869-.52.869-4.68.868 1.04.87-3.12h1.737l.869 1.04h.869l.869-1.04.868-1.56.87-.52h1.737l.869-5.201.869-1.56.868 1.04h.87l.868 3.64h1.738l.869-7.28.869-1.56h.868l.87-2.601.868-3.12h1.738l.869 1.04 1.737-5.2 1.738-10.402h1.738l.869 1.56.868-3.12 1.738-15.602.869 1.04.869-21.322.869-6.241.868-2.08.87-9.361.868-16.122.869-11.962.869-6.76.869-1.56.869-3.12.868-2.081 1.738-37.444.869-10.402.869-23.922.869-6.761.868-27.043.87-16.122.868-2.08.869-9.361.869-21.323.869-17.162.869-34.324.868-23.403.87-2.6.868 6.24.869 3.121.869-2.08.869 13.002.868 17.161.87 24.443 1.737 19.242.869 22.883.869 31.204 1.737 45.765.87 23.403.868 11.961.869 14.562.869 22.882 1.737 29.124.87 4.16.868 6.761.869 13.001.869 4.16 2.606 18.203.87 9.361h.868l.869-.52.869 2.08.869 1.04.868 7.801.87-1.04.868 5.2.869 1.56.869 2.601.869 1.56.869 1.04.868-1.56.87-.52.868.52.869 2.6.869 1.04.869 1.561.869-3.64.868 1.04h.87l.868-1.04.869.52h1.738l1.737 2.08h0" style="fill:none;stroke:#0072b2;stroke-linecap:round;stroke-width:1.5" id="line2d_4"/><path clip-path="url(#p59deecc196)" d="M117 553.088h725.4" style="fill:none;stroke:green;stroke-dasharray:1.5,2.475;stroke-dashoffset:0;stroke-width:1.5" id="line2d_5"/><path clip-path="url(#p59deecc196)" d="M117 549.28h725.4" style="fill:none;stroke:orange;stroke-dasharray:1.5,2.475;stroke-dashoffset:0;stroke-width:1.5" id="line2d_6"/><path clip-path="url(#p59deecc196)" d="M117 544.521h725.4" style="fill:none;stroke:red;stroke-dasharray:1.5,2.475;stroke-dashoffset:0;stroke-width:1.5" id="line2d_7"/><path d="M117 576.72V77.76" style="fill:none;stroke:#d3d3d3;stroke-linecap:square;stroke-linejoin:miter;stroke-width:1.25" id="patch_3"/><path d="M117 576.72h725.4" style="fill:none;stroke:#d3d3d3;stroke-linecap:square;stroke-linejoin:miter;stroke-width:1.25" id="patch_4"/><g id="matplotlib.axis_1"><g id="xtick_1"><g style="fill:#696969" transform="matrix(.16 0 0 -.16 108.968 598.378)" id="text_1"><defs><path d="M9.813 72.906h9.859V5.078q0-13.187-5-19.14-5-5.954-16.094-5.954h-3.75v8.297h3.078q6.531 0 9.219 3.672Q9.813-4.39 9.813 5.078z" id="DejaVuSans-74"/><path d="M34.281 27.484q-10.89 0-15.093-2.484-4.204-2.484-4.204-8.5 0-4.781 3.157-7.594 3.156-2.797 8.562-2.797 7.485 0 12 5.297 4.516 5.297 4.516 14.078v2zm17.922 3.72V0H43.22v8.297Q40.14 3.328 35.547.953q-4.594-2.375-11.234-2.375-8.391 0-13.36 4.719Q6 8.016 6 15.922q0 9.219 6.172 13.906 6.187 4.688 18.437 4.688h12.61v.89q0 6.203-4.078 9.594-4.078 3.39-11.453 3.39-4.688 0-9.141-1.124-4.438-1.125-8.531-3.375v8.312q4.921 1.906 9.562 2.844 4.64.953 9.031.953 11.875 0 17.735-6.156 5.86-6.14 5.86-18.64z" id="DejaVuSans-97"/><path d="M54.89 33.016V0h-8.984v32.719q0 7.765-3.031 11.61-3.031 3.858-9.078 3.858-7.281 0-11.484-4.64-4.204-4.625-4.204-12.64V0H9.08v54.688h9.03v-8.5q3.235 4.937 7.594 7.374Q30.078 56 35.797 56q9.422 0 14.25-5.828 4.844-5.828 4.844-17.156z" id="DejaVuSans-110"/></defs><use xlink:href="#DejaVuSans-74"/><use x="29.492" xlink:href="#DejaVuSans-97"/><use x="90.771" xlink:href="#DejaVuSans-110"/></g></g><g id="xtick_2"><g style="fill:#696969" transform="matrix(.16 0 0 -.16 186.526 598.378)" id="text_2"><defs><path d="M34.188 63.188 20.797 26.906h26.812zm-5.579 9.718h11.188L67.578 0h-10.25l-6.64 18.703h-32.86L11.188 0H.78z" id="DejaVuSans-65"/><path d="M18.11 8.203v-29H9.077v75.484h9.031v-8.296q2.844 4.875 7.157 7.234Q29.594 56 35.594 56q9.968 0 16.187-7.906 6.235-7.907 6.235-20.797T51.78 6.484q-6.218-7.906-16.187-7.906-6 0-10.328 2.375-4.313 2.375-7.157 7.25zm30.578 19.094q0 9.906-4.079 15.547-4.078 5.64-11.203 5.64-7.14 0-11.218-5.64-4.079-5.64-4.079-15.547 0-9.906 4.078-15.547 4.079-5.64 11.22-5.64 7.124 0 11.202 5.64t4.078 15.547z" id="DejaVuSans-112"/><path d="M41.11 46.297q-1.516.875-3.297 1.281Q36.03 48 33.89 48q-7.625 0-11.703-4.953-4.079-4.953-4.079-14.234V0H9.08v54.688h9.03v-8.5q2.844 4.984 7.375 7.39Q30.031 56 36.531 56q.922 0 2.047-.125 1.125-.11 2.484-.36z" id="DejaVuSans-114"/></defs><use xlink:href="#DejaVuSans-65"/><use x="68.408" xlink:href="#DejaVuSans-112"/><use x="131.885" xlink:href="#DejaVuSans-114"/></g></g><g id="xtick_3"><g style="fill:#696969" transform="matrix(.16 0 0 -.16 269.778 598.378)" id="text_3"><defs><path d="M8.5 21.578v33.11h8.984V21.922q0-7.766 3.016-11.656 3.031-3.875 9.094-3.875 7.265 0 11.484 4.64 4.234 4.64 4.234 12.656v31h8.985V0h-8.984v8.406Q42.047 3.422 37.718 1q-4.313-2.422-10.032-2.422-9.421 0-14.312 5.86Q8.5 10.296 8.5 21.578zM31.11 56z" id="DejaVuSans-117"/><path d="M9.422 75.984h8.984V0H9.422z" id="DejaVuSans-108"/></defs><use xlink:href="#DejaVuSans-74"/><use x="29.492" xlink:href="#DejaVuSans-117"/><use x="92.871" xlink:href="#DejaVuSans-108"/></g></g><g id="xtick_4"><g style="fill:#696969" transform="matrix(.16 0 0 -.16 345.532 598.378)" id="text_4"><defs><path d="M39.406 66.219q-10.75 0-17.078-8.016-6.312-8-6.312-21.828 0-13.766 6.312-21.781 6.328-8 17.078-8 10.735 0 17.016 8 6.281 8.015 6.281 21.781 0 13.828-6.281 21.828-6.281 8.016-17.016 8.016zm0 8q15.328 0 24.5-10.281 9.188-10.282 9.188-27.563 0-17.234-9.188-27.516-9.172-10.28-24.5-10.28-15.375 0-24.593 10.25-9.204 10.265-9.204 27.546t9.204 27.563q9.218 10.28 24.593 10.28z" id="DejaVuSans-79"/><path d="M48.781 52.594v-8.407q-3.812 2.11-7.64 3.157-3.828 1.047-7.735 1.047-8.75 0-13.593-5.547-4.829-5.532-4.829-15.547 0-10.016 4.829-15.563 4.843-5.53 13.593-5.53 3.907 0 7.735 1.046 3.828 1.047 7.64 3.156V2.094Q45.016.344 40.984-.531q-4.015-.89-8.562-.89-12.36 0-19.64 7.765-7.266 7.765-7.266 20.953 0 13.375 7.343 21.031Q20.22 56 33.016 56q4.14 0 8.093-.86 3.953-.843 7.672-2.546z" id="DejaVuSans-99"/><path d="M18.313 70.219V54.688h18.5v-6.985h-18.5V18.016q0-6.688 1.828-8.594 1.828-1.906 7.453-1.906h9.218V0h-9.218q-10.407 0-14.36 3.875-3.953 3.89-3.953 14.14v29.688H2.687v6.984h6.594V70.22z" id="DejaVuSans-116"/></defs><use xlink:href="#DejaVuSans-79"/><use x="78.711" xlink:href="#DejaVuSans-99"/><use x="133.691" xlink:href="#DejaVuSans-116"/></g></g><g id="xtick_5"><g style="fill:#696969" transform="matrix(.16 0 0 -.16 426.966 598.378)" id="text_5"><use xlink:href="#DejaVuSans-74"/><use x="29.492" xlink:href="#DejaVuSans-97"/><use x="90.771" xlink:href="#DejaVuSans-110"/></g></g><g id="xtick_6"><g style="fill:#696969" transform="matrix(.16 0 0 -.16 503.655 598.378)" id="text_6"><use xlink:href="#DejaVuSans-65"/><use x="68.408" xlink:href="#DejaVuSans-112"/><use x="131.885" xlink:href="#DejaVuSans-114"/></g></g><g id="xtick_7"><g style="fill:#696969" transform="matrix(.16 0 0 -.16 586.907 598.378)" id="text_7"><use xlink:href="#DejaVuSans-74"/><use x="29.492" xlink:href="#DejaVuSans-117"/><use x="92.871" xlink:href="#DejaVuSans-108"/></g></g><g id="xtick_8"><g style="fill:#696969" transform="matrix(.16 0 0 -.16 662.661 598.378)" id="text_8"><use xlink:href="#DejaVuSans-79"/><use x="78.711" xlink:href="#DejaVuSans-99"/><use x="133.691" xlink:href="#DejaVuSans-116"/></g></g><g id="xtick_9"><g style="fill:#696969" transform="matrix(.16 0 0 -.16 744.095 598.378)" id="text_9"><use xlink:href="#DejaVuSans-74"/><use x="29.492" xlink:href="#DejaVuSans-97"/><use x="90.771" xlink:href="#DejaVuSans-110"/></g></g><g id="xtick_10"><g style="fill:#696969" transform="matrix(.16 0 0 -.16 820.784 598.378)" id="text_10"><use xlink:href="#DejaVuSans-65"/><use x="68.408" xlink:href="#DejaVuSans-112"/><use x="131.885" xlink:href="#DejaVuSans-114"/></g></g></g><g id="matplotlib.axis_2"><g id="ytick_1"><g style="fill:#696969" transform="matrix(.16 0 0 -.16 97.32 560.119)" id="text_11"><defs><path d="M31.781 66.406q-7.61 0-11.453-7.5Q16.5 51.422 16.5 36.375q0-14.984 3.828-22.484 3.844-7.5 11.453-7.5 7.672 0 11.5 7.5 3.844 7.5 3.844 22.484 0 15.047-3.844 22.531-3.828 7.5-11.5 7.5zm0 7.813q12.266 0 18.735-9.703 6.468-9.688 6.468-28.141 0-18.406-6.468-28.11-6.47-9.687-18.735-9.687-12.25 0-18.718 9.688-6.47 9.703-6.47 28.109 0 18.453 6.47 28.14Q19.53 74.22 31.78 74.22z" id="DejaVuSans-48"/></defs><use xlink:href="#DejaVuSans-48"/></g></g><g id="ytick_2"><g style="fill:#696969" transform="matrix(.16 0 0 -.16 66.78 464.932)" id="text_12"><defs><path d="M12.406 8.297h16.11v55.625l-17.532-3.516v8.985l17.438 3.515h9.86V8.296H54.39V0H12.406z" id="DejaVuSans-49"/></defs><use xlink:href="#DejaVuSans-49"/><use x="63.623" xlink:href="#DejaVuSans-48"/><use x="127.246" xlink:href="#DejaVuSans-48"/><use x="190.869" xlink:href="#DejaVuSans-48"/></g></g><g id="ytick_3"><g style="fill:#696969" transform="matrix(.16 0 0 -.16 66.78 369.746)" id="text_13"><defs><path d="M19.188 8.297h34.421V0H7.33v8.297q5.609 5.812 15.296 15.594 9.703 9.797 12.188 12.64 4.734 5.313 6.609 9 1.89 3.688 1.89 7.25 0 5.813-4.078 9.469-4.078 3.672-10.625 3.672-4.64 0-9.797-1.61-5.14-1.609-11-4.89v9.969Q13.767 71.78 18.938 73q5.188 1.219 9.485 1.219 11.328 0 18.062-5.672 6.735-5.656 6.735-15.125 0-4.5-1.688-8.531-1.672-4.016-6.125-9.485-1.218-1.422-7.765-8.187-6.532-6.766-18.453-18.922z" id="DejaVuSans-50"/></defs><use xlink:href="#DejaVuSans-50"/><use x="63.623" xlink:href="#DejaVuSans-48"/><use x="127.246" xlink:href="#DejaVuSans-48"/><use x="190.869" xlink:href="#DejaVuSans-48"/></g></g><g id="ytick_4"><g style="fill:#696969" transform="matrix(.16 0 0 -.16 66.78 274.56)" id="text_14"><defs><path d="M40.578 39.313Q47.656 37.797 51.625 33q3.984-4.781 3.984-11.813 0-10.78-7.422-16.703-7.421-5.906-21.093-5.906-4.578 0-9.438.906-4.86.907-10.031 2.72v9.515q4.094-2.39 8.969-3.61 4.89-1.218 10.218-1.218 9.266 0 14.125 3.656 4.86 3.656 4.86 10.64 0 6.454-4.516 10.079-4.515 3.64-12.562 3.64h-8.5v8.11h8.89q7.266 0 11.125 2.906 3.86 2.906 3.86 8.375 0 5.61-3.985 8.61-3.968 3.015-11.39 3.015-4.063 0-8.703-.89-4.641-.876-10.203-2.72v8.782q5.624 1.562 10.53 2.344 4.907.78 9.25.78 11.235 0 17.766-5.109 6.547-5.093 6.547-13.78 0-6.063-3.468-10.235-3.47-4.172-9.86-5.782z" id="DejaVuSans-51"/></defs><use xlink:href="#DejaVuSans-51"/><use x="63.623" xlink:href="#DejaVuSans-48"/><use x="127.246" xlink:href="#DejaVuSans-48"/><use x="190.869" xlink:href="#DejaVuSans-48"/></g></g><g id="ytick_5"><g style="fill:#696969" transform="matrix(.16 0 0 -.16 66.78 179.373)" id="text_15"><defs><path d="M37.797 64.313 12.89 25.39h24.906zm-2.594 8.593H47.61V25.391h10.407v-8.203H47.609V0h-9.812v17.188H4.89v9.515z" id="DejaVuSans-52"/></defs><use xlink:href="#DejaVuSans-52"/><use x="63.623" xlink:href="#DejaVuSans-48"/><use x="127.246" xlink:href="#DejaVuSans-48"/><use x="190.869" xlink:href="#DejaVuSans-48"/></g></g><g id="ytick_6"><g style="fill:#696969" transform="matrix(.16 0 0 -.16 66.78 84.186)" id="text_16"><defs><path d="M10.797 72.906h38.719v-8.312H19.828v-17.86q2.14.735 4.281 1.094 2.157.36 4.313.36 12.203 0 19.328-6.688 7.14-6.688 7.14-18.11 0-11.765-7.328-18.296-7.328-6.516-20.656-6.516-4.593 0-9.36.781-4.75.782-9.827 2.344v9.922q4.39-2.39 9.078-3.563 4.687-1.171 9.906-1.171 8.453 0 13.375 4.437 4.938 4.438 4.938 12.063 0 7.609-4.938 12.047-4.922 4.453-13.375 4.453-3.953 0-7.89-.875-3.922-.875-8.016-2.735z" id="DejaVuSans-53"/></defs><use xlink:href="#DejaVuSans-53"/><use x="63.623" xlink:href="#DejaVuSans-48"/><use x="127.246" xlink:href="#DejaVuSans-48"/><use x="190.869" xlink:href="#DejaVuSans-48"/></g></g><g style="fill:#696969" transform="matrix(0 -.2 -.2 0 58.62 379.813)" id="text_17"><defs><path d="M51.125 44H36.922l-4.11-16.313h14.313zm-7.328 27.781-5.078-20.265h14.265L58.11 71.78h7.813L60.89 51.516h15.234V44h-17.14l-4-16.313h15.53V20.22H53.079L48 0h-7.813l5.032 20.219H30.906L25.875 0h-7.86l5.079 20.219H7.719v7.468h17.187L29 44H13.281v7.516h17.625l4.985 20.265z" id="DejaVuSans-35"/><path d="M30.61 48.39q-7.22 0-11.422-5.64-4.204-5.64-4.204-15.453 0-9.813 4.172-15.453 4.188-5.64 11.453-5.64 7.188 0 11.375 5.655 4.203 5.672 4.203 15.438 0 9.719-4.203 15.406-4.187 5.688-11.375 5.688zm0 7.61q11.718 0 18.406-7.625 6.703-7.61 6.703-21.078 0-13.422-6.703-21.078-6.688-7.64-18.407-7.64-11.765 0-18.437 7.64-6.656 7.656-6.656 21.078 0 13.469 6.656 21.078Q18.844 56 30.609 56z" id="DejaVuSans-111"/><path d="M37.11 75.984V68.5h-8.594q-4.828 0-6.72-1.953-1.874-1.953-1.874-7.031v-4.828h14.797v-6.985H19.922V0H10.89v47.703H2.297v6.984h8.594V58.5q0 9.125 4.25 13.297 4.25 4.187 13.468 4.187z" id="DejaVuSans-102"/><path d="M44.281 53.078v-8.5q-3.797 1.953-7.906 2.922-4.094.984-8.5.984-6.688 0-10.031-2.047-3.344-2.046-3.344-6.156 0-3.125 2.39-4.906 2.391-1.781 9.626-3.39l3.078-.688q9.562-2.047 13.593-5.781 4.032-3.735 4.032-10.422 0-7.625-6.032-12.078-6.03-4.438-16.578-4.438-4.39 0-9.156.86Q10.688.296 5.422 2v9.281q4.984-2.594 9.812-3.89 4.829-1.282 9.579-1.282 6.343 0 9.75 2.172 3.421 2.172 3.421 6.125 0 3.656-2.468 5.61-2.453 1.953-10.813 3.765l-3.125.735q-8.344 1.75-12.062 5.39-3.704 3.64-3.704 9.985 0 7.718 5.47 11.906Q16.75 56 26.811 56q4.97 0 9.36-.734 4.406-.72 8.11-2.188z" id="DejaVuSans-115"/><path d="M56.203 29.594v-4.39H14.891q.593-9.282 5.593-14.142 5-4.859 13.938-4.859 5.172 0 10.031 1.266 4.86 1.265 9.656 3.812v-8.5Q49.266.734 44.187-.344 39.11-1.422 33.892-1.422q-13.094 0-20.735 7.61-7.64 7.625-7.64 20.625 0 13.421 7.25 21.296Q20.016 56 32.328 56q11.031 0 17.453-7.11 6.422-7.093 6.422-19.296zm-8.984 2.64q-.094 7.36-4.125 11.75-4.032 4.407-10.672 4.407-7.516 0-12.031-4.25-4.516-4.25-5.203-11.97z" id="DejaVuSans-101"/></defs><use xlink:href="#DejaVuSans-35"/><use x="83.789" xlink:href="#DejaVuSans-32"/><use x="115.576" xlink:href="#DejaVuSans-111"/><use x="176.758" xlink:href="#DejaVuSans-102"/><use x="211.963" xlink:href="#DejaVuSans-32"/><use x="243.75" xlink:href="#DejaVuSans-99"/><use x="298.73" xlink:href="#DejaVuSans-97"/><use x="360.01" xlink:href="#DejaVuSans-115"/><use x="412.109" xlink:href="#DejaVuSans-101"/><use x="473.633" xlink:href="#DejaVuSans-115"/></g></g><g style="fill:#696969" transform="matrix(.24 0 0 -.24 252.577 71.76)" id="text_18"><defs><path d="M9.813 72.906h13.28l32.329-60.984v60.984h9.562V0h-13.28L19.39 60.984V0H9.813z" id="DejaVuSans-78"/><path d="M4.203 54.688h8.985l11.234-42.672 11.172 42.672h10.593l11.235-42.672 11.187 42.672h8.985L63.28 0H52.688L40.922 44.828 29.109 0H18.5z" id="DejaVuSans-119"/><path d="M64.406 67.281v-10.39q-4.984 4.64-10.625 6.922-5.64 2.296-11.984 2.296-12.5 0-19.14-7.64-6.641-7.64-6.641-22.094 0-14.406 6.64-22.047 6.64-7.64 19.14-7.64 6.345 0 11.985 2.296 5.64 2.297 10.625 6.938V5.609Q59.234 2.094 53.437.33q-5.78-1.75-12.218-1.75-16.563 0-26.094 10.124-9.516 10.14-9.516 27.672 0 17.578 9.516 27.703 9.531 10.14 26.094 10.14 6.531 0 12.312-1.734 5.797-1.734 10.875-5.203z" id="DejaVuSans-67"/><path d="M25.39 72.906h8.297L8.297-9.28H0z" id="DejaVuSans-47"/><path d="M9.813 72.906h9.859V42.094L52.39 72.906h12.703L28.906 38.922 67.672 0H54.688L19.672 35.11V0h-9.86z" id="DejaVuSans-75"/><path d="M45.406 46.39v29.594h8.985V0h-8.985v8.203Q42.578 3.328 38.25.953q-4.313-2.375-10.375-2.375-9.906 0-16.14 7.906-6.22 7.922-6.22 20.813 0 12.89 6.22 20.797Q17.968 56 27.874 56q6.063 0 10.375-2.375 4.328-2.36 7.156-7.234zm-30.61-19.093q0-9.906 4.079-15.547 4.078-5.64 11.203-5.64 7.125 0 11.219 5.64 4.11 5.64 4.11 15.547 0 9.906-4.11 15.547-4.094 5.64-11.219 5.64-7.125 0-11.203-5.64-4.078-5.64-4.078-15.547z" id="DejaVuSans-100"/><path d="M9.422 54.688h8.984V0H9.422zm0 21.296h8.984v-11.39H9.422z" id="DejaVuSans-105"/><path d="M31 75.875q-6.531-11.219-9.719-22.219-3.172-10.984-3.172-22.265 0-11.266 3.203-22.328Q24.517-2 31-13.188h-7.813Q15.875-1.704 12.235 9.375q-3.64 11.078-3.64 22.016 0 10.89 3.61 21.922 3.624 11.046 10.983 22.562z" id="DejaVuSans-40"/><path d="M52 44.188q3.375 6.062 8.063 8.937Q64.75 56 71.093 56q8.548 0 13.188-5.984 4.64-5.97 4.64-17V0h-9.03v32.719q0 7.86-2.797 11.656-2.781 3.813-8.485 3.813-6.984 0-11.046-4.641-4.047-4.625-4.047-12.64V0h-9.032v32.719q0 7.906-2.78 11.687-2.782 3.782-8.595 3.782-6.89 0-10.953-4.657-4.047-4.656-4.047-12.625V0H9.08v54.688h9.03v-8.5q3.078 5.03 7.375 7.421Q29.781 56 35.687 56q5.97 0 10.141-3.031Q50 49.953 52 44.187z" id="DejaVuSans-109"/><path d="M8.016 75.875h7.812q7.313-11.516 10.953-22.563 3.64-11.03 3.64-21.921 0-10.938-3.64-22.016-3.64-11.078-10.953-22.563H8.016Q14.5-2 17.703 9.063q3.203 11.063 3.203 22.329 0 11.28-3.203 22.265-3.203 11-9.687 22.219z" id="DejaVuSans-41"/></defs><use xlink:href="#DejaVuSans-78"/><use x="74.805" xlink:href="#DejaVuSans-101"/><use x="136.328" xlink:href="#DejaVuSans-119"/><use x="218.115" xlink:href="#DejaVuSans-32"/><use x="249.902" xlink:href="#DejaVuSans-67"/><use x="319.727" xlink:href="#DejaVuSans-97"/><use x="381.006" xlink:href="#DejaVuSans-115"/><use x="433.105" xlink:href="#DejaVuSans-101"/><use x="494.629" xlink:href="#DejaVuSans-115"/><use x="546.729" xlink:href="#DejaVuSans-47"/><use x="580.42" xlink:href="#DejaVuSans-49"/><use x="644.043" xlink:href="#DejaVuSans-48"/><use x="707.666" xlink:href="#DejaVuSans-48"/><use x="771.289" xlink:href="#DejaVuSans-75"/><use x="836.865" xlink:href="#DejaVuSans-32"/><use x="868.652" xlink:href="#DejaVuSans-49"/><use x="932.275" xlink:href="#DejaVuSans-52"/><use x="995.898" xlink:href="#DejaVuSans-100"/><use x="1059.375" xlink:href="#DejaVuSans-32"/><use x="1091.162" xlink:href="#DejaVuSans-105"/><use x="1118.945" xlink:href="#DejaVuSans-110"/><use x="1182.324" xlink:href="#DejaVuSans-99"/><use x="1237.305" xlink:href="#DejaVuSans-105"/><use x="1265.088" xlink:href="#DejaVuSans-100"/><use x="1328.564" xlink:href="#DejaVuSans-101"/><use x="1390.088" xlink:href="#DejaVuSans-110"/><use x="1453.467" xlink:href="#DejaVuSans-99"/><use x="1508.447" xlink:href="#DejaVuSans-101"/><use x="1569.971" xlink:href="#DejaVuSans-32"/><use x="1601.758" xlink:href="#DejaVuSans-40"/><use x="1640.771" xlink:href="#DejaVuSans-115"/><use x="1692.871" xlink:href="#DejaVuSans-117"/><use x="1756.25" xlink:href="#DejaVuSans-109"/><use x="1853.662" xlink:href="#DejaVuSans-41"/></g><g id="legend_1"><path d="M128.2 184.5h136.45q3.2 0 3.2-3.2V88.96q0-3.2-3.2-3.2H128.2q-3.2 0-3.2 3.2v92.34q0 3.2 3.2 3.2z" style="fill:none;opacity:.8;stroke:#ccc;stroke-linejoin:miter" id="patch_5"/><path d="M131.4 98.718h32" style="fill:none;stroke:#000;stroke-linecap:round;stroke-width:1.5" id="line2d_8"/><g style="fill:#696969" transform="matrix(.16 0 0 -.16 176.2 104.317)" id="text_19"><defs><path d="M8.688 72.906h9.921V28.61q0-11.718 4.235-16.875 4.25-5.14 13.781-5.14 9.469 0 13.719 5.14 4.25 5.157 4.25 16.875v44.297H64.5V27.391q0-14.25-7.063-21.532-7.046-7.28-20.812-7.28-13.828 0-20.89 7.28-7.047 7.282-7.047 21.532z" id="DejaVuSans-85"/><path d="M53.516 70.516V60.89q-5.61 2.687-10.594 4-4.984 1.328-9.625 1.328-8.047 0-12.422-3.125t-4.375-8.89q0-4.845 2.906-7.313 2.907-2.453 11.016-3.97l5.953-1.218q11.031-2.11 16.281-7.406 5.25-5.297 5.25-14.172 0-10.61-7.11-16.078-7.093-5.469-20.812-5.469-5.172 0-11.015 1.172Q13.14.922 6.89 3.219v10.156q6-3.36 11.765-5.078 5.766-1.703 11.328-1.703 8.438 0 13.032 3.312 4.593 3.328 4.593 9.485 0 5.359-3.297 8.39-3.296 3.032-10.812 4.547L27.484 33.5q-11.03 2.188-15.968 6.875-4.922 4.688-4.922 13.047 0 9.672 6.812 15.234 6.813 5.563 18.766 5.563 5.14 0 10.453-.938 5.328-.922 10.89-2.765z" id="DejaVuSans-83"/></defs><use xlink:href="#DejaVuSans-85"/><use x="73.193" xlink:href="#DejaVuSans-83"/></g><path d="M131.4 122.203h32" style="fill:none;stroke:#009e73;stroke-linecap:round;stroke-width:1.5" id="line2d_10"/><g style="fill:#696969" transform="matrix(.16 0 0 -.16 176.2 127.802)" id="text_20"><use xlink:href="#DejaVuSans-78"/><use x="74.805" xlink:href="#DejaVuSans-74"/></g><path d="M131.4 145.688h32" style="fill:none;stroke:#d55e00;stroke-linecap:round;stroke-width:1.5" id="line2d_12"/><g style="fill:#696969" transform="matrix(.16 0 0 -.16 176.2 151.287)" id="text_21"><defs><path d="M19.672 34.813V8.108H35.5q7.953 0 11.781 3.297 3.844 3.297 3.844 10.078 0 6.844-3.844 10.078-3.828 3.25-11.781 3.25zm0 29.984V42.828h14.61q7.218 0 10.75 2.703 3.546 2.719 3.546 8.282 0 5.515-3.547 8.25-3.531 2.734-10.75 2.734zm-9.86 8.11h25.204q11.28 0 17.375-4.688Q58.5 63.53 58.5 54.89q0-6.703-3.125-10.657-3.125-3.953-9.188-4.922 7.282-1.562 11.313-6.53 4.031-4.954 4.031-12.376 0-9.765-6.64-15.093Q48.25 0 35.984 0H9.812z" id="DejaVuSans-66"/><path d="M45.406 27.984q0 9.766-4.031 15.125-4.016 5.375-11.297 5.375-7.219 0-11.25-5.375-4.031-5.359-4.031-15.125 0-9.718 4.031-15.093t11.25-5.375q7.281 0 11.297 5.375 4.031 5.375 4.031 15.093zm8.985-21.203q0-13.953-6.203-20.765Q42-20.797 29.203-20.797q-4.734 0-8.937.703-4.203.703-8.157 2.172v8.735q3.954-2.141 7.813-3.157 3.86-1.031 7.86-1.031 8.843 0 13.234 4.61 4.39 4.609 4.39 13.937v4.453q-2.781-4.844-7.125-7.234Q33.938 0 27.875 0 17.828 0 11.672 7.656q-6.156 7.672-6.156 20.328 0 12.688 6.156 20.344Q17.828 56 27.875 56q6.063 0 10.406-2.39 4.344-2.391 7.125-7.22v8.297h8.985z" id="DejaVuSans-103"/></defs><use xlink:href="#DejaVuSans-66"/><use x="68.604" xlink:href="#DejaVuSans-101"/><use x="130.127" xlink:href="#DejaVuSans-114"/><use x="169.49" xlink:href="#DejaVuSans-103"/><use x="232.967" xlink:href="#DejaVuSans-101"/><use x="294.49" xlink:href="#DejaVuSans-110"/></g><path d="M131.4 169.173h32" style="fill:none;stroke:#0072b2;stroke-linecap:round;stroke-width:1.5" id="line2d_14"/><g style="fill:#696969" transform="matrix(.16 0 0 -.16 176.2 174.773)" id="text_22"><defs><path d="M44.39 34.188q3.172-1.079 6.172-4.594 3-3.516 6.032-9.672L66.609 0H56l-9.313 18.703q-3.624 7.328-7.015 9.719-3.39 2.39-9.25 2.39h-10.75V0h-9.86v72.906h22.266q12.5 0 18.656-5.234 6.157-5.219 6.157-15.766 0-6.89-3.203-11.437-3.204-4.532-9.297-6.282zM19.673 64.797V38.922h12.406q7.125 0 10.766 3.297 3.64 3.297 3.64 9.687 0 6.39-3.64 9.64-3.64 3.25-10.766 3.25z" id="DejaVuSans-82"/><path d="M54.89 33.016V0h-8.984v32.719q0 7.765-3.031 11.61-3.031 3.858-9.078 3.858-7.281 0-11.484-4.64-4.204-4.625-4.204-12.64V0H9.08v75.984h9.03V46.188q3.235 4.937 7.594 7.374Q30.078 56 35.797 56q9.422 0 14.25-5.828 4.844-5.828 4.844-17.156z" id="DejaVuSans-104"/></defs><use xlink:href="#DejaVuSans-82"/><use x="64.982" xlink:href="#DejaVuSans-117"/><use x="128.361" xlink:href="#DejaVuSans-116"/><use x="167.57" xlink:href="#DejaVuSans-104"/><use x="230.949" xlink:href="#DejaVuSans-101"/><use x="292.473" xlink:href="#DejaVuSans-114"/><use x="333.586" xlink:href="#DejaVuSans-102"/><use x="368.791" xlink:href="#DejaVuSans-111"/><use x="429.973" xlink:href="#DejaVuSans-114"/><use x="469.336" xlink:href="#DejaVuSans-100"/></g></g></g></g><defs><clipPath id="p59deecc196"><path d="M117 77.76h725.4v498.96H117z"/></clipPath></defs></svg>