<svg height="864" viewBox="0 0 936 648" width="1248" xmlns="http://www.w3.org/2000/svg" xmlns:xlink="http://www.w3.org/1999/xlink"><defs><style>*{stroke-linecap:butt;stroke-linejoin:round}</style></defs><g id="figure_1"><path d="M0 648h936V0H0z" style="fill:#fff" id="patch_1"/><g id="axes_1"><path d="M117 576.72h725.4V77.76H117z" style="fill:none" id="patch_2"/><path clip-path="url(#p97caee5c8f)" d="m149.973 333.818 45.928-.107 2.6-.124 1.732-.278 1.734-.47 2.6-1.086 4.332-2.266 2.6-1.272 1.733-.72.866-.144 1.734.08 1.733.5.866.36 5.2 3.397 2.6 1.812 2.599.866.867.173.866-.024 1.733-.441 6.066-.04 3.466.19.867.302 1.733.777.867.143 3.466-.035 10.399-1.078 1.733.043 2.6-.18 3.466-.211.866-.138 2.6.143 2.6-.39 2.6.031 1.733-.175 2.6-.446.866-.327 6.932-3.586 1.733-.617 1.734-.69.866-.141 1.733.106 2.6.466.866.24 1.734.055 1.733-.165 2.6.312.866.29 1.733.33 4.333 1.574.866.534.867.7 2.6 1.607 1.733.831 6.066 2.589.866.003 2.6-.271 1.733-.029 1.733-.208 2.6-.036 1.733-.118 3.466.45.867.041 3.466-.424.867-.255.866-.403.867-.26.866-.14 1.734-.856.866-.189.867.152.866.49 2.6.617 1.733.103 1.733-.756 1.733-.96 1.733-.06.867-.224 1.733-1.523 3.466-1.107.867-.031 1.733 1.261 2.6.567 2.6.021 1.733-.343.866-.363.867-.19.866-.052 4.333-1.121.867-.394.866-.165 2.6.03.866-.01.867.132.867-.18.866-.61 2.6-1.467 6.066-1.76.866-.653 1.733-1.586 1.734-1.307.866-.866.867-1.18 2.6-3.018.866-1.195.867-.869.866-.66.867-.4.866-.137.867.07.866.435 1.733 1.88 1.734 1.97.866 1.117 1.733 6.247 1.733 3.598.867 1.64.867 1.234.866.473.867-1.593.866-1.923.867-.962.866-1.39.867-1.047.866-.836.867-.572.867-1.985.866-2.604.867-1.252.866-.763.867-.49 1.733.64.867 1.897.866 3.049 1.733 4.48 3.467 6.006.866 4.874.867 3.46.866.368.867.951.866-.137.867.154.866-.021.867-1.954 1.733-5.947.867-2.255.866-1.896.867-1.544.866-2.67.867-7.712.867-4.68.866.55.867-.415.866.339.867.626.866 2.06.867 3.602 3.466 17.565.867 2.87.866 3.284.867 5.826.866 3.812.867.805.867.116.866-.188.867.667.866-.26 1.733-1.943.867-.736.866-1.8.867-1.517 1.733-.633 2.6-1.157 1.733 1.888.867-.426.866-.171.867-.027 1.733-.332.866.594.867.378 1.733-.617.867-.392 1.733-1.15 2.6-3.994 1.733-2.165.866-.843.867-.63 1.733-2.071 2.6-2.087.866-.347.867-.128 1.733-1.084 1.733.873.866.249 1.734-.008.866.628.867.421 1.733-.742 2.6-1.083 1.733 1.35.866-.647.867-.834 2.6-1.617 1.733-2.446 1.733.166.866-.148 1.733.177 1.734-.198 1.733.766 2.6.342.866.386.866.21.867-.476.867.004 3.466.843.866.457 3.467 2.59.866.447 2.6 2.228.866.237.867.077 1.733-.212 3.466-.501 1.734.059.866.139 1.733-.423 2.6.064 1.733.014.867.226.866.1 1.733-.244 2.6-.09 1.733-.51 1.733-.328.867-.135 1.733.114.866.269.867.133 1.733-.131.867.65.866.474.867-.211 1.733-.64 1.733-.258 1.733-1.91.867-.231.866-.45.867-.266.866.034.867-.095 1.733-1.725.867.02.866.284.867.077 1.733-.138 1.733 1.35 1.733-.081 1.733-.442 1.733-2.437.867-.146.867.01.866.197.867.024.866-.487 1.733.179.867-.334.867-.139.866-.653.867-.855.866-.365 1.733 2.128.867-.367.867-.235 1.733-1.59.866-.297 1.733-2.21.867-.414 1.733-.25.867-.619.866-.895 1.733-2.564.867-.507.866-.175.867-.482.867-.847.866-.583.867-.094 3.466-1.18.866.472.867.289.867.058.866.808.867.407.866.033.867-.706.866.457.867 1.546.867.504.866.798.867.316.866-.014.867 1.015 1.733 1.64.866.401.867.126.867.476.866.156.867 1.41.866.752.867-1.143.866.04.867.967.867 1.27.866.84.867 3.97.866 1.457.867-1.976.866 1.286.867.865 1.733.27.867-3.637.866-.686.867 4.126.866 1.12.867.165 1.733-.39.867-2.42.866.72.867 3.096.866.345 2.6 1.848.866 4.315.867 1.74.867-2.462 2.6.16.866.203.866-.893.867-1.219.867-.545 1.733-1.294.866-.461.867-.245.866.635.867.117.867-.567 1.733.196.866-.067.867-.215.866-.542.867-.142.866.593.867.264 2.6-.215.866-.588 1.733-.803.867-.932.867-.708.866-.372.867-.117.866-.453.867-.739.866-.536 1.733-.629 3.467-1.598.866-.167.867.32.866-.261.867-1.282.867-.575.866-.056.867-.41.866-.834.867-1.432.866-.7.867.692.866.355.867-.251.867-.09.866.241.867 1.351 1.733 6.176.866 1.063.867-.51.867-.86.866-.254.867-1.287 1.733-6.577.866-1.1 1.733 1.03.867-.129.867-1.328.866-2.798.867-1.737.866-.365.867.83.866 1.274.867.715.867 2.101.866 3.507.867 2.053.866-.298.867-2.802.866-3.626.867-3.039.866-4.324.867-2.621.867.166.866-2.056.867-6.806 1.733-16.713 1.733-21.345.867-6.52.866-2.721.867-8.466.866-15.682.867-10.658.866-3.336.867-9.628.866-14.408.867-4.133.867-1.667.866 2.578.867 7.305.866 5.412.867 8.523.866 6.894.867 3.885 1.733 49.8.867 6.6.866 10.452 1.733 34.733.867 10.442.867 5.085.866 12.546.867 17.343 1.733 25.277.866 7.281.867 3.691.866-4.54.867 5.267.867 18.552.866 8.331.867 4.5.866 3.26.867-1.165.866 10.505.867 1.325.867-12.282.866-2.852.867-4.021.866-3.164.867-2.076.866-5.817.867-7.065 1.733-16.213.867-6.437.866-5.521.867-1.807h0" style="fill:none;stroke:#000;stroke-linecap:round;stroke-width:1.5" id="line2d_1"/><path clip-path="url(#p97caee5c8f)" d="m149.973 333.816 45.061-.084 1.733-.1 1.733-.287 2.6-1.035.867-.694 2.6-3.068.866-1.952 1.733-5.403 2.6-7.741.866-2.741.867-2.324.866-1.99.867-2.676.866-1.491 1.734-.041.866.415.867 2.164.866 3.186.867 3.627.866 2.79.867 3.255.866 2.5 1.734 5.574.866 2.102.867 3.806.866 2.494.867.36.866 1.067.867.083.867-.999.866.443.867-.603.866-.256.867.852 2.6 5.093.866 1.213.867-.396.866.617.867 1.481.866.776.867 1.483.866 2.053.867.184.867.75.866 1.781.867-.02.866-.452.867.016.866-1.237.867-.133.866.427.867-.458.867-.863.866-1.03 1.733-3.193.867-.96.866-.618.867-1.062 1.733-.932.867-.848.866-.482 2.6-2.264.866.551 1.734 1.513.866 1.121.867.662 1.733-.39.866-.184 1.734-.806.866-.317.867.248.866.527.867.199 1.733-.714.867-.098.866-.522.867-.662.866-.264 2.6-1.438.866-.128.867-1.147.867-1.58.866-.376 1.733.01.867.014.866-.307.867.922.867 1.223 4.332-.159 1.733 2.742 2.6-.206.867-.178.866-.06.867-1.26.866-1.013 1.734.628.866.425 1.733.11.867-.124 2.6-1.488.866-.588.867-.229 1.733.043 1.733-.698 1.733-.111 1.733.165.867-.082.866.421.867.71 1.733 1.112.866.27.867.057 1.733-.46 2.6-.022.866-.181.867.018 1.733 1.033 1.733-.477.867-.023 1.733.368 2.6.517 3.466-1.063 1.733-1.31.867-.07.866.28h1.733l1.733-.017.867.147 1.733-.293.867.2 1.733-.092 1.733-.043.866.03 3.467-.388 1.733.05.866-.144 1.734-.608 1.733-.105 1.733-.164.866-.26.867.03.866.24 1.734-.031.866-.339.867-.54.866.221 1.733.589.867-.086.867-.33.866.178.867.447.866.269.867-.337.866-.98.867-.429.866-.084.867.146.867.274.866-.837.867-.565.866.147 1.733-.628.867-.663.867-1.22.866-.266 1.733.723.867.282 1.733-1.264.866-.122.867-.584 1.733-1.694.867-1.406 2.6-2.759.866-1.435.867-2.588.866-1.377.867-.058.866-.207.867-.354.866-.23.867 1.06.866 1.695.867.12.867.74.866 1.665 1.733 2.77.867 1.997.866 3.35.867 2.3.867.337.866.475.867.8.866-.695.867-1.825.866-2.845.867-1.271.866.264.867-.557.867-.137.866 1.755.867.5.866-.025 1.733.241.867.607.867.137.866 1.798 1.733 6.91.867 2.273.866 1.602.867.921.867.667.866-2.366.867-1.484.866 1.497.867 1.894.866.788.867.548.866.052.867-1.041 1.733-5.484 1.733-73.33 1.733-5.706 1.734-3.398.866-4.965.867 29.043.866 33.033 1.733-1.953.867 1.346.866 2.884.867 3.43 1.733 74.651.867 4.403 1.733 11.555.866 3.182.867 1.858 1.733-66.036.867.594.866 1.843.867-1.812.866-1.42.867.671.866-.274.867.582.867 1.239.866-.378.867-.713.866 1.08.867 1.438.866.958.867.693 1.733-4.535.867 1.157.866.832.867.043.866 1.196.867-.856.866-2.812.867-2.377.867-1.541.866-.687.867.213.866-1.458.867-.94.866 2.834.867 2.237.867-.898.866-2.387 1.733-6.175.867-1.168 1.733-1.249.866-.368.867-.703.867-.526.866 1.31.867.561.866-1.712.867-1.002.866-.012.867 1.016.867.489.866-.365 1.733.746.867-.72.866-.995.867-1.293.866-.898.867-.69.867-1.013.866.036.867 1.04.866.33.867-.217.866-.063 1.734-.622.866.349.867-.03.866.173.867 1.8 1.733 2.614.867 2.414.866 1.046.867-.03 3.466 6.618.866.468.867.056.867 1.67.866.588.867-1.293 1.733-1.415.866-.39.867.442.867.052.866.447 1.733 2.035 1.733 16.972.867 1.178.866.902.867 1.246.867 1.923.866 1.273 1.733-14.558 2.6-.988 1.733-1.185 1.733-15.479.867.292.866.487.867-.24 1.733-2.251 1.733 12.876.867-.534.866-.361 1.733-2.921 1.734-2.179.866-.553.867-1.565.866-2.016.867-.772.866-.1 1.733.137 3.467 1.208.866-.05 4.333-1.062.867-.426.866-.274 2.6-.187.866-.363.867-.165 1.733.147 2.6.325 2.6-.1 1.733-.278 1.733.063 1.733.256 6.066-.192 1.733-.13 2.6-.634 6.066-1.973.866-.438 1.733-.679.867-.371 1.733-.19 1.733-.073 1.733-.511 1.733-.335 1.734-.668 1.733-.15 1.733.174.866-.085 1.733.143 1.734-.467.866-.247.867-.712.866-.342 1.733.274 1.734.81.866-.464.867-.076.866.594.867-.196.866-.04 1.733.484.867.862.867 1.503.866.684.867.19.866.344.867-.185.866-.358.867 1.171.867.884.866-.292.867.135.866 1.21.867.74.866-.298.867-.655.866-1.253.867-.145.867.399.866-.805.867-.015.866.813.867-.593.866-.274.867-.01.867.12.866-1.101.867-.547 3.466 4.463.866.71.867 1.448.867.783.866-.14.867.678.866.503.867.105.866-.21.867.258.867.421.866-.16 2.6-1.76.866-.68 1.734-.69.866.181.867.305h.866l1.733 1.516.867.314.866.472.867.29.867-.158.866.056.867.21.866-.272 1.733-.889 1.734-1.594.866-.396.867-1.026.866-.739.867-.151.866-.57.867-.257.866.384 1.734-.392.866.233.867.094.866-.123.867.015.866-.471.867-.704.867-.353 2.6-2.136 1.732-2.052 1.733-.936.867-.244.867-.575.866-.41.867.015.866.338 1.733 1.382.867.23.867-.376.866-.722.867-1.17.866-2.052 1.733-5.273.867-1.645.866-.261.867-.436.867-1.139.866-1.342.867-1.066.866-.337.867.236 1.733.706 1.733.462.867-.171.866-1.793.867-3.546.866-4.637.867-6.63.866-11.182 2.6-43.468 1.733-12.518.867-14.436 1.733-41.295.867-16.287 2.6-38.81.866-10.169.866 7.111 1.733 27.936.867 11.675.867 4.358.866 8.799.867 28.344 6.066 273.136.866 22.849 1.733 35.039.867 11.873.867 9.94.866 4.835.867-6.475.866-9.656.867-12.07.866-18.563 1.733-25.535 1.734-31.887.866-12.916.867-9.262.866-6.919.867-8.186.866-6.596.867-5.131 2.6-13.402.866-2.723 1.733-12.833 1.733-7.09.867-4.062 1.733-12.791.867-.842h0" style="fill:none;stroke:#009e73;stroke-linecap:round;stroke-width:1.5" id="line2d_2"/><path clip-path="url(#p97caee5c8f)" d="m149.973 333.816 41.595-.082 3.466-.205 1.733-.287 1.733-.78 1.733-2.773.867-.315.867-.676 1.733-2.76.866-.91.867-1.968.866-3.232 1.733-7.414.867-2.521.867-3.055.866-5.03 1.733-6.566.867-6.71.866-3.806.867-1.647.867-2.829.866.943.867 4.592.866 5.432.867 8.262.866 6.929.867 5.254 1.733 15.43.867 3.499.866 4.954.867 8.842.866 5.036.867 2.323.866 3.629.867.553.867-.615.866.137.867-3.943.866-1.988.867.751.866-1.865.867.526.866 3.464.867 1.736.867.41 1.733 2.344.866.587.867.158.866-.547.867-.977.867.71.866-.266.867-2.72.866-2.173.867-1.482 1.733-2.208.866-2.022.867-1.319.867-.321.866-.068.867-.28 1.733-3.875.866-.601 1.734-1.531.866-.759.867-1.223.866-2.009.867-1.428.866.02.867.329.866.895.867.663.867-.103 1.733 2.7.866-.766.867-.103.866.445 1.734.04 1.733.95.866-.232 2.6-2.644.867.006.866-.15.867-.52.866.48.867.218.866-.294.867.164.866.512.867-1.653.867-2.747.866-.403.867-.144.866-.423.867.082.866-.404.867 1.463.867 2.104 2.6-.335.866-.04.866-.185.867 1.75.866 2.528.867.498 1.733 1.394.867.171.866.376 1.733-3.574 1.734.41.866-.123.867-.369.866-.143.867.136.866-.02.867-.287 1.733-1.237.867-.396.866-.602.867-.369 1.733-1.059.866-.102.867.28 1.733.758 2.6.848.866-.007.867.116 1.733.793.867-.205 1.733-1.1.866-.356.867-.772.866-.444.867.17.867.766.866 1.08 1.733 1.838.867.936.866.144 1.733-1.053.867.28.867.595.866-.014.867.267.866-.007.867-.37.866-.826.867-1.414.867-.615.866-.315.867-.697.866.09.867.614.866.759.867.485.867.007 1.733.54.866.423.867.212.866-.24.867-.088 1.733-.731.867-.075.866-.697.867-.533 1.733.362.866.061 2.6-.362 1.733-.178 2.6-.594.866-.096 1.734.233 1.733-.889.866-.232 1.733-.157 1.734-1.025.866.082 1.733.704.867-.007.866-.588 1.733-.335.867-.184.867.116 1.733-.786 1.733-.04 1.733.56 1.733-1.613.867.027.866.144.867-.007.866-.656.867-.219.866.294.867-.772.867-1.039.866-.007.867-.341.866-1.422.867-2.74.866-1.981.867-.608.867-1.517.866-1.169.867-.56 2.6-1.046.866 1.094.866 1.318.867-1.195.867-.287.866 2.542.867 3.553.866 1.783.867 1.49.866 2.61.867 1.722.867.861.866.075.867-.061.866-.875 1.733-4.175.867.827.866 1.285.867.403.867.567.866 4.004.867 1.954.866.144.867.704.866-.069 2.6 1.606.867 2.993.866 3.567.867 1.6.866.75.867-1.632.867-2.235.866-3.71.867-2.07 2.6.75.866 1.258.866.438.867-.397.867-1.626.866-2.651 1.733-64.383.867-3.314 1.733-2.665.867-2.529.866-3.97.867 26.547.866 30.86.867.532.866-1.305.867.807 1.733 4.223 1.733 63.03.867 3.82 1.733 10.468.866 3.218.867 1.831 1.733-59.216.867-.294.866 2.036 1.733-1.633.867.717.866-.574.867 1.306.867 2.63.866-.266.867-2.713.866-.717 2.6 2.89.867-2.412.866-2.03.867 1.73.866 1.113.867.24.866 1.57.867-1.55.866-3.697.867-1.825.867.24.866.922.867.444.866-1.886.867-1.414.866 2.275.867.67 1.733-6.54.867-2.316.866-3.027.867-.314.866.034.867-.895.866.375.867.923.867.246.866 2.337.867 1.674.866-.738.867.642.866 1.517.867.902.867-.881.866.287.867.69.866.437.867-.205.866-1.483.867-3.375.866-1.626.867-1.114.867-1.299.866.199.867 1.223.866.11.867-.548.866.076.867-.438.867-.027.866-.642.867-1.593.866.725.867 3.355.866 2.248.867 1.408.867 1.886.866 1.448.867.082.866 2.337.867 3.478.866 2.747.867 2.194.866 1.032.867 2.227.867 3.355.866-.027.867-1.859.866-.84.867-.198.866-.37.867-.614.867-.41.866-.192 1.733-.123 1.733 1.504 1.733.143.867.745.867 1.53.866.82.867-1.222.866-.97.867-7.818.866-9.47.867-2.146.867-.916.866-.738.867-1.223.866-.97.867 7.195.866 9.259.867 1.476 1.733-2.89 1.733.136.867 7.373.866 9.204.867.807.866-.39.867.15.867-.239.866-.621.867-8.624.866-10.755.867-2.31.866.253 1.733.28.867.212 2.6-.246.866-.588.867-.779.866-.294 2.6-.048 1.733-.533.867-.054.866-.253 1.733-.977.867-.267.867-.068 3.466.861.866-.014.867-.157.867-.034 2.6-.43 2.599.232 3.466-.075.867.054 2.6.991.866.116 1.733-.198.867-.178 7.799-3.17 1.733-1.326 2.6-.881 2.6-.458.866.116 3.466-1.06.867.288 1.733.902.866.588.867.758.866.24 2.6-.705.867-.505.866.28.867.697 2.6.39 1.733-.95.866-.732.867-1.38.866.308.867.895.866.485.867.717.867.991.866-.157.867-.458 1.733.574.866-.061 1.734 2.412.866.758.867.998.866.642.867.103.866-.403 1.733-1.9.867.246.867.43.866-.738.867-.533.866.52 2.6-.752.867-.061.866-.335.867.048.866.69 2.6 1.353.866-.178.867.8.867.642.866-.492 1.733.266.867.568.866.724 1.734-.294.866.554.867.922.866.71.867-.327.866-.041.867.362.867.014.866.15.867-.178.866-.608 1.733-.396.867.102.866.745.867.3.867-.43.866-.054.867.56.866-.314.867-1.107 1.733-1.743.867-.622.866-.15.867-.567.866-.103.867.349 1.733-1.135.866.356.867-.096.867-.396.866.273.867.601.866.738.867.492.866.048.867-.068.867-.533.866-1.093 4.333-6.642.866-.595.867-.048 1.733-.54.867.055.866.212.867.52.866.942.867.568 1.733.143.867-.471 2.6-2.98.866-1.237 1.733-1.879.867-1.373.866-1.613 1.733-2.603.867-.581.866.69.867-.355 1.733-2.795.867-2.959 2.6-12.28.866-8.124.866-12.443.867-16.646.867-19.502.866-14.746.867-8.378.866-10.837.867-18.82.866-26.02.867-21.293.867-12.504.866-7.312.867-5.979.866-10.12.867-4.51.866 16.407.867 22.064.866 18.286.867 13.817.867 3.56.866 12.846.867 35.014 1.733 88.477.866 40.972 3.467 128.09.866 11.957.867 8.706.866 15.033.867 11.083.867 12.833.866 6.676 1.733-13.57.867-8.685.866-18.115 1.733-22.591 1.734-31.577.866-12.067 1.733-15.368.867-7.476 1.733-12.313.867-5.467 1.733-18.463.866-4.565 1.733-13.878.867-2.856.866-2.173.867-1.046.867-3.19.866-5.543.867-1.1h0" style="fill:none;stroke:#d55e00;stroke-linecap:round;stroke-width:1.5" id="line2d_3"/><path clip-path="url(#p97caee5c8f)" d="M149.973 333.816H198.5l1.733-1.392h.867l1.733-.696.867-1.044.866-2.089.867-2.436.866-1.74 1.733-2.784.867-2.088 1.733-6.613.867.696.866.348.867-6.264.866-7.309.867-2.088.867 2.784.866 4.525.867 1.044.866-1.393.867 5.917.866 10.093.867 4.872 1.733 5.917.867 1.392.866 2.784 1.733 13.921.867 2.784.866-1.044.867-2.436.867 1.044.866 2.436.867-4.872.866-8.353.867-2.784.866 1.74.867 2.088.866.348.867-.348.867.696h.866l.867 1.393.866 1.044.867.696.866 2.088.867 2.436.867 2.088.866.696.867-1.392 1.733-7.656 1.733-4.873.866-1.044.867.348.867-.348 1.733 1.392 1.733-2.088.866-1.392.867-1.044.867 1.392.866 2.784.867 1.74.866.696.867-.348.866-.696h.867l.866-2.436.867-3.48.867-1.392.866-.696h.867l.866.348h.867l1.733 2.088 1.733-.696 1.733.696h.867l1.733 2.088 1.733.696 1.733-.696h.867l.866-1.74.867-1.392.866.348 1.734-.696h1.733l1.733-1.392.866-.348h.867l.867.348h2.6l.866-.696h.866l.867.696 1.733-.696h.867l1.733 4.176h1.733l1.733.696h.867l.866 1.392.867 1.044.866-1.044.867-.696 1.733 1.392h.866l.867-1.74.867-.696.866 1.392h.867l.866-1.044.867-.696h.866l.867-.696h.867l2.6 2.088h1.732l.867.696.866-.348.867-1.392 2.6-1.044h.866l1.733-.696.867.696h.867l.866-.696h2.6l.866-.696.867-1.044.866-.348 1.734 1.392h1.733l.866.696 1.733-1.392.867.696h2.6l.866-.348.867 1.392.866 1.74 1.734-.696h1.733l.866.348.867.696.866-.348.867-.696h1.733l.867-1.044h1.733l.866-.696.867.348h1.733l.867 1.392.866.348h.867l.866 1.392.867.348h2.6l.866-.348.867-2.436.866-5.569.867-4.176.866-.696h.867l.866-1.044.867-2.784.867-.696.866 2.436.867.348 1.733-4.177.866-.348 1.733 6.265.867 5.568.867 7.309.866 3.48.867 2.088.866-.348.867-1.044.866-1.392.867-4.872.867-3.828.866.348.867 2.088.866-1.044.867-3.133 1.733-1.392 1.733-5.568 1.733-4.177.867-.696.866 3.133.867-.348.866-2.089.867 1.045h.867l.866 3.132.867-.696.866-7.309.867-1.044h.866l.867-4.176.866-1.74.867 3.132.867 5.568.866 2.088.867 7.31.866 13.224.867.348.866-5.22.867-1.044.867 2.088.866 5.568.867-6.264.866-14.617.867-1.045.866 4.873.867.348 1.733-5.917 1.733-6.612 1.733 18.445.867-1.044.866-.348.867 1.74.867 12.877.866 17.402.867 2.436.866-3.132.867-5.569.866-3.132.867-6.612.867-10.093.866-.348.867-3.133.866-3.828h.867l.866-.348.867 3.132.866-4.872.867-5.568.867 2.784h.866l.867 3.48.866-1.74.867 3.48.866 9.049.867-9.745.867-13.573.866-3.48.867 4.872.866 6.613.867-1.392.866.696 1.733 8.7.867 3.48 1.733 18.446.867 1.044.866 3.48 1.733 20.186.867 3.48.867-14.617.866-11.137.867 5.22.866-.695.867-7.657.866-10.44.867-5.221.866 3.132.867 8.005.867-3.829.866-11.485.867-2.088.866 2.436.867 1.74.866 5.221.867-3.132.867-2.436 1.733 13.92.866 4.525.867-.696.866-5.22.867-9.05.866 3.133.867 8.7.867-1.391.866-2.436.867-1.74.866 1.74.867 9.396.866-1.74.867-11.137.867-6.264.866.348.867 4.872.866-7.308.867-8.701.866.348.867 1.74.866.696.867-4.176h.867l.866 4.524.867 1.392.866-1.74.867-1.392 1.733 8.7.867-2.436.866-1.392.867 1.392 1.733 2.089.866 2.088.867 1.74h.866l.867-1.044.867-2.784.866-.696.867 3.132.866-1.74.867-3.829.866-3.132.867 4.525.867 8.004.866 1.74.867-5.916.866-8.005.867-.696.866 3.132.867 1.392.867-2.088.866-2.784 1.733 2.784v7.309l.867 1.74.866 2.784.867 1.044.866-.348.867 1.74.867 2.089.866 2.784.867-.696.866-4.525.867 1.393.866 5.916.867 3.132h.867l.866-3.132.867.696.866 2.088.867-3.48.866-5.22.867-2.089.866 2.089.867 1.044.867-.348.866 1.044.867-1.044.866-1.74.867-1.393.866-1.74.867 1.392.867 1.044.866-1.392.867.348.866 1.392.867 1.74.866.349.867 1.74.866 2.436.867.348h.867l.866-.696.867.696.866.348.867-3.48.866-2.784.867-.349.867.697.866.348.867-2.437.866-3.132.867-1.74.866-.696h.867l1.733-2.784.867-.348.866.696.867 1.044h2.6l.866-1.044.867-.696.866.696.867.348h2.6l.866 1.044.866 1.392.867-.348.867-.696h2.6l1.732 2.088h.867l1.733-2.784h1.733l.867-1.044.866-1.392.867-.696.866 1.044.867 1.392h4.333l1.733 2.088h2.6l1.733-.696 1.733-2.088h2.6l1.733.696 1.733-3.48h.866l1.734-15.314.866-.696 1.733-2.784h1.733l1.734 9.397.866-.696.867 1.392.866 5.22.867 3.48h.866l1.733 13.226.867-.697.867-1.044.866-.348.867-.696h.866l.867-4.872.866-4.176.867 2.436.867.696.866-1.74.867-.696h.866l.867 3.828.866 3.132.867.696.866 2.436.867 1.393.867.348h.866l.867-1.74.866-3.133.867-4.872.866-3.132.867-2.089.867-2.436h.866l.867-.348.866-1.392.867-.348.866 1.74.867 1.044h1.733l.867-1.392.866 2.784.867 6.613.866-1.392.867-1.74.866 2.088h.867l.867-3.829.866-1.392.867 1.74.866-.348.867.697.866.348h.867l.866 6.264.867 2.436.867-4.176 1.733 5.22.866-.696h.867l.866 1.392.867 1.045.867-.697h.866l.867-2.436.866-2.784h.867l.866-1.74.867-2.436.867.348h.866l.867 2.436.866 3.48h.867l.866-2.784.867-2.088.866 1.74.867-1.044.867.348.866 2.436h.867l.866.696.867 2.784.866 1.044.867.348.867-1.392.866-2.784h.867l.866.696.867-1.392.866-2.436 1.733 2.088.867-.348h.867l1.733-2.088.866-3.48.867-4.177.866-2.784.867-2.088h.867l.866 1.74.867 2.088.866 2.784.867.696h.866l.867 1.74h.866l.867-4.176.867-5.22.866.348.867 2.436.866 3.828.867 2.785h.866l1.734-2.785.866-.696.867-2.436.866-6.264.867-4.525h.866l1.733 10.441.867-2.436 1.733-6.613.867-1.392h.866l.867.348h.866l.867-3.828.867-5.22.866 2.436.867-10.093.866-18.446 1.733-13.225.867-9.745 1.733-16.357.867 8.005.866 15.313.867 2.088.866-6.264.867-8.005.866-.696.867-10.44.867-14.966.866-19.49.867-25.406.866 1.74.867 17.402.866-1.044.867-2.784.866-13.922.867-16.009.867 11.485 1.733 28.538.866 21.23.867 33.063.866 54.64.867 66.474.867 40.023.866 10.44.867 15.662.866 35.499.867 28.19.866 10.441.867 3.828.867 1.045.866 4.872.867 3.132.866-11.137.867-16.009.866-18.098.867-24.362.866-10.44.867-6.265 1.733-34.803.867-11.485.866-2.436.867-1.044.866-13.573.867-10.44.867-4.873.866-2.436.867-3.48.866-7.31.867-1.74.866 3.133.867 1.74.866-.348 1.734-12.181.866-1.392.867-.696.866 1.392h0" style="fill:none;stroke:#0072b2;stroke-linecap:round;stroke-width:1.5" id="line2d_4"/><path clip-path="url(#p97caee5c8f)" d="M117 333.816h725.4" style="fill:none;stroke:red;stroke-dasharray:1.5,2.475;stroke-dashoffset:0;stroke-width:1.5" id="line2d_5"/><path d="M117 576.72V77.76" style="fill:none;stroke:#d3d3d3;stroke-linecap:square;stroke-linejoin:miter;stroke-width:1.25" id="patch_3"/><path d="M117 576.72h725.4" style="fill:none;stroke:#d3d3d3;stroke-linecap:square;stroke-linejoin:miter;stroke-width:1.25" id="patch_4"/><g id="matplotlib.axis_1"><g id="xtick_1"><g style="fill:#696969" transform="matrix(.16 0 0 -.16 120.309 598.378)" id="text_1"><defs><path d="M9.813 72.906h9.859V5.078q0-13.187-5-19.14-5-5.954-16.094-5.954h-3.75v8.297h3.078q6.531 0 9.219 3.672Q9.813-4.39 9.813 5.078z" id="DejaVuSans-74"/><path d="M34.281 27.484q-10.89 0-15.093-2.484-4.204-2.484-4.204-8.5 0-4.781 3.157-7.594 3.156-2.797 8.562-2.797 7.485 0 12 5.297 4.516 5.297 4.516 14.078v2zm17.922 3.72V0H43.22v8.297Q40.14 3.328 35.547.953q-4.594-2.375-11.234-2.375-8.391 0-13.36 4.719Q6 8.016 6 15.922q0 9.219 6.172 13.906 6.187 4.688 18.437 4.688h12.61v.89q0 6.203-4.078 9.594-4.078 3.39-11.453 3.39-4.688 0-9.141-1.124-4.438-1.125-8.531-3.375v8.312q4.921 1.906 9.562 2.844 4.64.953 9.031.953 11.875 0 17.735-6.156 5.86-6.14 5.86-18.64z" id="DejaVuSans-97"/><path d="M54.89 33.016V0h-8.984v32.719q0 7.765-3.031 11.61-3.031 3.858-9.078 3.858-7.281 0-11.484-4.64-4.204-4.625-4.204-12.64V0H9.08v54.688h9.03v-8.5q3.235 4.937 7.594 7.374Q30.078 56 35.797 56q9.422 0 14.25-5.828 4.844-5.828 4.844-17.156z" id="DejaVuSans-110"/></defs><use xlink:href="#DejaVuSans-74"/><use x="29.492" xlink:href="#DejaVuSans-97"/><use x="90.771" xlink:href="#DejaVuSans-110"/></g></g><g id="xtick_2"><g style="fill:#696969" transform="matrix(.16 0 0 -.16 197.659 598.378)" id="text_2"><defs><path d="M34.188 63.188 20.797 26.906h26.812zm-5.579 9.718h11.188L67.578 0h-10.25l-6.64 18.703h-32.86L11.188 0H.78z" id="DejaVuSans-65"/><path d="M18.11 8.203v-29H9.077v75.484h9.031v-8.296q2.844 4.875 7.157 7.234Q29.594 56 35.594 56q9.968 0 16.187-7.906 6.235-7.907 6.235-20.797T51.78 6.484q-6.218-7.906-16.187-7.906-6 0-10.328 2.375-4.313 2.375-7.157 7.25zm30.578 19.094q0 9.906-4.079 15.547-4.078 5.64-11.203 5.64-7.14 0-11.218-5.64-4.079-5.64-4.079-15.547 0-9.906 4.078-15.547 4.079-5.64 11.22-5.64 7.124 0 11.202 5.64t4.078 15.547z" id="DejaVuSans-112"/><path d="M41.11 46.297q-1.516.875-3.297 1.281Q36.03 48 33.89 48q-7.625 0-11.703-4.953-4.079-4.953-4.079-14.234V0H9.08v54.688h9.03v-8.5q2.844 4.984 7.375 7.39Q30.031 56 36.531 56q.922 0 2.047-.125 1.125-.11 2.484-.36z" id="DejaVuSans-114"/></defs><use xlink:href="#DejaVuSans-65"/><use x="68.408" xlink:href="#DejaVuSans-112"/><use x="131.885" xlink:href="#DejaVuSans-114"/></g></g><g id="xtick_3"><g style="fill:#696969" transform="matrix(.16 0 0 -.16 280.703 598.378)" id="text_3"><defs><path d="M8.5 21.578v33.11h8.984V21.922q0-7.766 3.016-11.656 3.031-3.875 9.094-3.875 7.265 0 11.484 4.64 4.234 4.64 4.234 12.656v31h8.985V0h-8.984v8.406Q42.047 3.422 37.718 1q-4.313-2.422-10.032-2.422-9.421 0-14.312 5.86Q8.5 10.296 8.5 21.578zM31.11 56z" id="DejaVuSans-117"/><path d="M9.422 75.984h8.984V0H9.422z" id="DejaVuSans-108"/></defs><use xlink:href="#DejaVuSans-74"/><use x="29.492" xlink:href="#DejaVuSans-117"/><use x="92.871" xlink:href="#DejaVuSans-108"/></g></g><g id="xtick_4"><g style="fill:#696969" transform="matrix(.16 0 0 -.16 356.247 598.378)" id="text_4"><defs><path d="M39.406 66.219q-10.75 0-17.078-8.016-6.312-8-6.312-21.828 0-13.766 6.312-21.781 6.328-8 17.078-8 10.735 0 17.016 8 6.281 8.015 6.281 21.781 0 13.828-6.281 21.828-6.281 8.016-17.016 8.016zm0 8q15.328 0 24.5-10.281 9.188-10.282 9.188-27.563 0-17.234-9.188-27.516-9.172-10.28-24.5-10.28-15.375 0-24.593 10.25-9.204 10.265-9.204 27.546t9.204 27.563q9.218 10.28 24.593 10.28z" id="DejaVuSans-79"/><path d="M48.781 52.594v-8.407q-3.812 2.11-7.64 3.157-3.828 1.047-7.735 1.047-8.75 0-13.593-5.547-4.829-5.532-4.829-15.547 0-10.016 4.829-15.563 4.843-5.53 13.593-5.53 3.907 0 7.735 1.046 3.828 1.047 7.64 3.156V2.094Q45.016.344 40.984-.531q-4.015-.89-8.562-.89-12.36 0-19.64 7.765-7.266 7.765-7.266 20.953 0 13.375 7.343 21.031Q20.22 56 33.016 56q4.14 0 8.093-.86 3.953-.843 7.672-2.546z" id="DejaVuSans-99"/><path d="M18.313 70.219V54.688h18.5v-6.985h-18.5V18.016q0-6.688 1.828-8.594 1.828-1.906 7.453-1.906h9.218V0h-9.218q-10.407 0-14.36 3.875-3.953 3.89-3.953 14.14v29.688H2.687v6.984h6.594V70.22z" id="DejaVuSans-116"/></defs><use xlink:href="#DejaVuSans-79"/><use x="78.711" xlink:href="#DejaVuSans-99"/><use x="133.691" xlink:href="#DejaVuSans-116"/></g></g><g id="xtick_5"><g style="fill:#696969" transform="matrix(.16 0 0 -.16 437.471 598.378)" id="text_5"><use xlink:href="#DejaVuSans-74"/><use x="29.492" xlink:href="#DejaVuSans-97"/><use x="90.771" xlink:href="#DejaVuSans-110"/></g></g><g id="xtick_6"><g style="fill:#696969" transform="matrix(.16 0 0 -.16 513.954 598.378)" id="text_6"><use xlink:href="#DejaVuSans-65"/><use x="68.408" xlink:href="#DejaVuSans-112"/><use x="131.885" xlink:href="#DejaVuSans-114"/></g></g><g id="xtick_7"><g style="fill:#696969" transform="matrix(.16 0 0 -.16 596.999 598.378)" id="text_7"><use xlink:href="#DejaVuSans-74"/><use x="29.492" xlink:href="#DejaVuSans-117"/><use x="92.871" xlink:href="#DejaVuSans-108"/></g></g><g id="xtick_8"><g style="fill:#696969" transform="matrix(.16 0 0 -.16 672.543 598.378)" id="text_8"><use xlink:href="#DejaVuSans-79"/><use x="78.711" xlink:href="#DejaVuSans-99"/><use x="133.691" xlink:href="#DejaVuSans-116"/></g></g><g id="xtick_9"><g style="fill:#696969" transform="matrix(.16 0 0 -.16 753.767 598.378)" id="text_9"><use xlink:href="#DejaVuSans-74"/><use x="29.492" xlink:href="#DejaVuSans-97"/><use x="90.771" xlink:href="#DejaVuSans-110"/></g></g></g><g id="matplotlib.axis_2"><g id="ytick_1"><g style="fill:#696969" transform="matrix(.16 0 0 -.16 73.733 527.172)" id="text_10"><defs><path d="M10.594 35.5h62.593v-8.297H10.594z" id="DejaVuSans-8722"/><path d="M12.406 8.297h16.11v55.625l-17.532-3.516v8.985l17.438 3.515h9.86V8.296H54.39V0H12.406z" id="DejaVuSans-49"/><path d="M10.797 72.906h38.719v-8.312H19.828v-17.86q2.14.735 4.281 1.094 2.157.36 4.313.36 12.203 0 19.328-6.688 7.14-6.688 7.14-18.11 0-11.765-7.328-18.296-7.328-6.516-20.656-6.516-4.593 0-9.36.781-4.75.782-9.827 2.344v9.922q4.39-2.39 9.078-3.563 4.687-1.171 9.906-1.171 8.453 0 13.375 4.437 4.938 4.438 4.938 12.063 0 7.609-4.938 12.047-4.922 4.453-13.375 4.453-3.953 0-7.89-.875-3.922-.875-8.016-2.735z" id="DejaVuSans-53"/></defs><use xlink:href="#DejaVuSans-8722"/><use x="83.789" xlink:href="#DejaVuSans-49"/><use x="147.412" xlink:href="#DejaVuSans-53"/></g></g><g id="ytick_2"><g style="fill:#696969" transform="matrix(.16 0 0 -.16 73.733 464.746)" id="text_11"><defs><path d="M31.781 66.406q-7.61 0-11.453-7.5Q16.5 51.422 16.5 36.375q0-14.984 3.828-22.484 3.844-7.5 11.453-7.5 7.672 0 11.5 7.5 3.844 7.5 3.844 22.484 0 15.047-3.844 22.531-3.828 7.5-11.5 7.5zm0 7.813q12.266 0 18.735-9.703 6.468-9.688 6.468-28.141 0-18.406-6.468-28.11-6.47-9.687-18.735-9.687-12.25 0-18.718 9.688-6.47 9.703-6.47 28.109 0 18.453 6.47 28.14Q19.53 74.22 31.78 74.22z" id="DejaVuSans-48"/></defs><use xlink:href="#DejaVuSans-8722"/><use x="83.789" xlink:href="#DejaVuSans-49"/><use x="147.412" xlink:href="#DejaVuSans-48"/></g></g><g id="ytick_3"><g style="fill:#696969" transform="matrix(.16 0 0 -.16 83.912 402.32)" id="text_12"><use xlink:href="#DejaVuSans-8722"/><use x="83.789" xlink:href="#DejaVuSans-53"/></g></g><g id="ytick_4"><use xlink:href="#DejaVuSans-48" style="fill:#696969" transform="matrix(.16 0 0 -.16 97.32 339.895)" id="text_13"/></g><g id="ytick_5"><use xlink:href="#DejaVuSans-53" style="fill:#696969" transform="matrix(.16 0 0 -.16 97.32 277.469)" id="text_14"/></g><g id="ytick_6"><g style="fill:#696969" transform="matrix(.16 0 0 -.16 87.14 215.043)" id="text_15"><use xlink:href="#DejaVuSans-49"/><use x="63.623" xlink:href="#DejaVuSans-48"/></g></g><g id="ytick_7"><g style="fill:#696969" transform="matrix(.16 0 0 -.16 87.14 152.618)" id="text_16"><use xlink:href="#DejaVuSans-49"/><use x="63.623" xlink:href="#DejaVuSans-53"/></g></g><g id="ytick_8"><g style="fill:#696969" transform="matrix(.16 0 0 -.16 87.14 90.192)" id="text_17"><defs><path d="M19.188 8.297h34.421V0H7.33v8.297q5.609 5.812 15.296 15.594 9.703 9.797 12.188 12.64 4.734 5.313 6.609 9 1.89 3.688 1.89 7.25 0 5.813-4.078 9.469-4.078 3.672-10.625 3.672-4.64 0-9.797-1.61-5.14-1.609-11-4.89v9.969Q13.767 71.78 18.938 73q5.188 1.219 9.485 1.219 11.328 0 18.062-5.672 6.735-5.656 6.735-15.125 0-4.5-1.688-8.531-1.672-4.016-6.125-9.485-1.218-1.422-7.765-8.187-6.532-6.766-18.453-18.922z" id="DejaVuSans-50"/></defs><use xlink:href="#DejaVuSans-50"/><use x="63.623" xlink:href="#DejaVuSans-48"/></g></g><g style="fill:#696969" transform="matrix(0 -.2 -.2 0 65.573 445.117)" id="text_18"><defs><path d="M64.406 67.281v-10.39q-4.984 4.64-10.625 6.922-5.64 2.296-11.984 2.296-12.5 0-19.14-7.64-6.641-7.64-6.641-22.094 0-14.406 6.64-22.047 6.64-7.64 19.14-7.64 6.345 0 11.985 2.296 5.64 2.297 10.625 6.938V5.609Q59.234 2.094 53.437.33q-5.78-1.75-12.218-1.75-16.563 0-26.094 10.124-9.516 10.14-9.516 27.672 0 17.578 9.516 27.703 9.531 10.14 26.094 10.14 6.531 0 12.312-1.734 5.797-1.734 10.875-5.203z" id="DejaVuSans-67"/><path d="M44.281 53.078v-8.5q-3.797 1.953-7.906 2.922-4.094.984-8.5.984-6.688 0-10.031-2.047-3.344-2.046-3.344-6.156 0-3.125 2.39-4.906 2.391-1.781 9.626-3.39l3.078-.688q9.562-2.047 13.593-5.781 4.032-3.735 4.032-10.422 0-7.625-6.032-12.078-6.03-4.438-16.578-4.438-4.39 0-9.156.86Q10.688.296 5.422 2v9.281q4.984-2.594 9.812-3.89 4.829-1.282 9.579-1.282 6.343 0 9.75 2.172 3.421 2.172 3.421 6.125 0 3.656-2.468 5.61-2.453 1.953-10.813 3.765l-3.125.735q-8.344 1.75-12.062 5.39-3.704 3.64-3.704 9.985 0 7.718 5.47 11.906Q16.75 56 26.811 56q4.97 0 9.36-.734 4.406-.72 8.11-2.188z" id="DejaVuSans-115"/><path d="M56.203 29.594v-4.39H14.891q.593-9.282 5.593-14.142 5-4.859 13.938-4.859 5.172 0 10.031 1.266 4.86 1.265 9.656 3.812v-8.5Q49.266.734 44.187-.344 39.11-1.422 33.892-1.422q-13.094 0-20.735 7.61-7.64 7.625-7.64 20.625 0 13.421 7.25 21.296Q20.016 56 32.328 56q11.031 0 17.453-7.11 6.422-7.093 6.422-19.296zm-8.984 2.64q-.094 7.36-4.125 11.75-4.032 4.407-10.672 4.407-7.516 0-12.031-4.25-4.516-4.25-5.203-11.97z" id="DejaVuSans-101"/><path d="M44.39 34.188q3.172-1.079 6.172-4.594 3-3.516 6.032-9.672L66.609 0H56l-9.313 18.703q-3.624 7.328-7.015 9.719-3.39 2.39-9.25 2.39h-10.75V0h-9.86v72.906h22.266q12.5 0 18.656-5.234 6.157-5.219 6.157-15.766 0-6.89-3.203-11.437-3.204-4.532-9.297-6.282zM19.673 64.797V38.922h12.406q7.125 0 10.766 3.297 3.64 3.297 3.64 9.687 0 6.39-3.64 9.64-3.64 3.25-10.766 3.25z" id="DejaVuSans-82"/><path d="M8.594 75.984h20.703V69H17.578V-6.203h11.719v-6.984H8.594z" id="DejaVuSans-91"/><path d="M25.39 72.906h8.297L8.297-9.28H0z" id="DejaVuSans-47"/><path d="M45.406 46.39v29.594h8.985V0h-8.985v8.203Q42.578 3.328 38.25.953q-4.313-2.375-10.375-2.375-9.906 0-16.14 7.906-6.22 7.922-6.22 20.813 0 12.89 6.22 20.797Q17.968 56 27.874 56q6.063 0 10.375-2.375 4.328-2.36 7.156-7.234zm-30.61-19.093q0-9.906 4.079-15.547 4.078-5.64 11.203-5.64 7.125 0 11.219 5.64 4.11 5.64 4.11 15.547 0 9.906-4.11 15.547-4.094 5.64-11.219 5.64-7.125 0-11.203-5.64-4.078-5.64-4.078-15.547z" id="DejaVuSans-100"/><path d="M32.172-5.078q-3.797-9.766-7.422-12.735-3.61-2.984-9.656-2.984H7.906v7.516h5.282q3.703 0 5.75 1.765Q21-9.766 23.483-3.219l1.61 4.094-22.11 53.813H12.5l17.094-42.766 17.093 42.766h9.516z" id="DejaVuSans-121"/><path d="M30.422 75.984v-89.171H9.719v6.984H21.39V69H9.719v6.984z" id="DejaVuSans-93"/></defs><use xlink:href="#DejaVuSans-67"/><use x="69.824" xlink:href="#DejaVuSans-97"/><use x="131.104" xlink:href="#DejaVuSans-115"/><use x="183.203" xlink:href="#DejaVuSans-101"/><use x="244.727" xlink:href="#DejaVuSans-32"/><use x="276.514" xlink:href="#DejaVuSans-82"/><use x="343.746" xlink:href="#DejaVuSans-97"/><use x="405.025" xlink:href="#DejaVuSans-116"/><use x="444.234" xlink:href="#DejaVuSans-101"/><use x="505.758" xlink:href="#DejaVuSans-32"/><use x="537.545" xlink:href="#DejaVuSans-91"/><use x="576.559" xlink:href="#DejaVuSans-32"/><use x="608.346" xlink:href="#DejaVuSans-99"/><use x="663.326" xlink:href="#DejaVuSans-97"/><use x="724.605" xlink:href="#DejaVuSans-115"/><use x="776.705" xlink:href="#DejaVuSans-101"/><use x="838.229" xlink:href="#DejaVuSans-115"/><use x="890.328" xlink:href="#DejaVuSans-47"/><use x="924.02" xlink:href="#DejaVuSans-100"/><use x="987.496" xlink:href="#DejaVuSans-97"/><use x="1048.775" xlink:href="#DejaVuSans-121"/><use x="1107.955" xlink:href="#DejaVuSans-32"/><use x="1139.742" xlink:href="#DejaVuSans-93"/></g></g><g style="fill:#696969" transform="matrix(.24 0 0 -.24 238.224 71.76)" id="text_19"><defs><path d="M9.813 72.906h13.28l32.329-60.984v60.984h9.562V0h-13.28L19.39 60.984V0H9.813z" id="DejaVuSans-78"/><path d="M4.203 54.688h8.985l11.234-42.672 11.172 42.672h10.593l11.235-42.672 11.187 42.672h8.985L63.28 0H52.688L40.922 44.828 29.109 0H18.5z" id="DejaVuSans-119"/><path d="M8.203 72.906h46.875v-4.203L28.61 0H18.312L43.22 64.594H8.203z" id="DejaVuSans-55"/><path d="M2.984 54.688H12.5L29.594 8.797l17.093 45.89h9.516L35.687 0H23.485z" id="DejaVuSans-118"/><path d="M45.406 27.984q0 9.766-4.031 15.125-4.016 5.375-11.297 5.375-7.219 0-11.25-5.375-4.031-5.359-4.031-15.125 0-9.718 4.031-15.093t11.25-5.375q7.281 0 11.297 5.375 4.031 5.375 4.031 15.093zm8.985-21.203q0-13.953-6.203-20.765Q42-20.797 29.203-20.797q-4.734 0-8.937.703-4.203.703-8.157 2.172v8.735q3.954-2.141 7.813-3.157 3.86-1.031 7.86-1.031 8.843 0 13.234 4.61 4.39 4.609 4.39 13.937v4.453q-2.781-4.844-7.125-7.234Q33.938 0 27.875 0 17.828 0 11.672 7.656q-6.156 7.672-6.156 20.328 0 12.688 6.156 20.344Q17.828 56 27.875 56q6.063 0 10.406-2.39 4.344-2.391 7.125-7.22v8.297h8.985z" id="DejaVuSans-103"/><path d="M30.61 48.39q-7.22 0-11.422-5.64-4.204-5.64-4.204-15.453 0-9.813 4.172-15.453 4.188-5.64 11.453-5.64 7.188 0 11.375 5.655 4.203 5.672 4.203 15.438 0 9.719-4.203 15.406-4.187 5.688-11.375 5.688zm0 7.61q11.718 0 18.406-7.625 6.703-7.61 6.703-21.078 0-13.422-6.703-21.078-6.688-7.64-18.407-7.64-11.765 0-18.437 7.64-6.656 7.656-6.656 21.078 0 13.469 6.656 21.078Q18.844 56 30.609 56z" id="DejaVuSans-111"/><path d="M37.11 75.984V68.5h-8.594q-4.828 0-6.72-1.953-1.874-1.953-1.874-7.031v-4.828h14.797v-6.985H19.922V0H10.89v47.703H2.297v6.984h8.594V58.5q0 9.125 4.25 13.297 4.25 4.187 13.468 4.187z" id="DejaVuSans-102"/><path d="M37.797 64.313 12.89 25.39h24.906zm-2.594 8.593H47.61V25.391h10.407v-8.203H47.609V0h-9.812v17.188H4.89v9.515z" id="DejaVuSans-52"/><path d="M9.813 72.906h9.859V42.094L52.39 72.906h12.703L28.906 38.922 67.672 0H54.688L19.672 35.11V0h-9.86z" id="DejaVuSans-75"/></defs><use xlink:href="#DejaVuSans-78"/><use x="74.805" xlink:href="#DejaVuSans-101"/><use x="136.328" xlink:href="#DejaVuSans-119"/><use x="218.115" xlink:href="#DejaVuSans-32"/><use x="249.902" xlink:href="#DejaVuSans-67"/><use x="319.727" xlink:href="#DejaVuSans-97"/><use x="381.006" xlink:href="#DejaVuSans-115"/><use x="433.105" xlink:href="#DejaVuSans-101"/><use x="494.629" xlink:href="#DejaVuSans-115"/><use x="546.729" xlink:href="#DejaVuSans-32"/><use x="578.516" xlink:href="#DejaVuSans-55"/><use x="642.139" xlink:href="#DejaVuSans-100"/><use x="705.615" xlink:href="#DejaVuSans-32"/><use x="737.402" xlink:href="#DejaVuSans-97"/><use x="798.682" xlink:href="#DejaVuSans-118"/><use x="857.861" xlink:href="#DejaVuSans-103"/><use x="921.338" xlink:href="#DejaVuSans-32"/><use x="953.125" xlink:href="#DejaVuSans-115"/><use x="1005.225" xlink:href="#DejaVuSans-108"/><use x="1033.008" xlink:href="#DejaVuSans-111"/><use x="1094.189" xlink:href="#DejaVuSans-112"/><use x="1157.666" xlink:href="#DejaVuSans-101"/><use x="1219.189" xlink:href="#DejaVuSans-32"/><use x="1250.977" xlink:href="#DejaVuSans-111"/><use x="1312.158" xlink:href="#DejaVuSans-102"/><use x="1347.363" xlink:href="#DejaVuSans-32"/><use x="1379.15" xlink:href="#DejaVuSans-49"/><use x="1442.773" xlink:href="#DejaVuSans-52"/><use x="1506.396" xlink:href="#DejaVuSans-32"/><use x="1538.184" xlink:href="#DejaVuSans-97"/><use x="1599.463" xlink:href="#DejaVuSans-118"/><use x="1658.643" xlink:href="#DejaVuSans-103"/><use x="1722.119" xlink:href="#DejaVuSans-47"/><use x="1755.811" xlink:href="#DejaVuSans-49"/><use x="1819.434" xlink:href="#DejaVuSans-48"/><use x="1883.057" xlink:href="#DejaVuSans-48"/><use x="1946.68" xlink:href="#DejaVuSans-75"/></g><g id="legend_1"><path d="M128.2 184.5h136.45q3.2 0 3.2-3.2V88.96q0-3.2-3.2-3.2H128.2q-3.2 0-3.2 3.2v92.34q0 3.2 3.2 3.2z" style="fill:none;opacity:.8;stroke:#ccc;stroke-linejoin:miter" id="patch_5"/><path d="M131.4 98.718h32" style="fill:none;stroke:#000;stroke-linecap:round;stroke-width:1.5" id="line2d_6"/><g style="fill:#696969" transform="matrix(.16 0 0 -.16 176.2 104.317)" id="text_20"><defs><path d="M8.688 72.906h9.921V28.61q0-11.718 4.235-16.875 4.25-5.14 13.781-5.14 9.469 0 13.719 5.14 4.25 5.157 4.25 16.875v44.297H64.5V27.391q0-14.25-7.063-21.532-7.046-7.28-20.812-7.28-13.828 0-20.89 7.28-7.047 7.282-7.047 21.532z" id="DejaVuSans-85"/><path d="M53.516 70.516V60.89q-5.61 2.687-10.594 4-4.984 1.328-9.625 1.328-8.047 0-12.422-3.125t-4.375-8.89q0-4.845 2.906-7.313 2.907-2.453 11.016-3.97l5.953-1.218q11.031-2.11 16.281-7.406 5.25-5.297 5.25-14.172 0-10.61-7.11-16.078-7.093-5.469-20.812-5.469-5.172 0-11.015 1.172Q13.14.922 6.89 3.219v10.156q6-3.36 11.765-5.078 5.766-1.703 11.328-1.703 8.438 0 13.032 3.312 4.593 3.328 4.593 9.485 0 5.359-3.297 8.39-3.296 3.032-10.812 4.547L27.484 33.5q-11.03 2.188-15.968 6.875-4.922 4.688-4.922 13.047 0 9.672 6.812 15.234 6.813 5.563 18.766 5.563 5.14 0 10.453-.938 5.328-.922 10.89-2.765z" id="DejaVuSans-83"/></defs><use xlink:href="#DejaVuSans-85"/><use x="73.193" xlink:href="#DejaVuSans-83"/></g><path d="M131.4 122.203h32" style="fill:none;stroke:#009e73;stroke-linecap:round;stroke-width:1.5" id="line2d_8"/><g style="fill:#696969" transform="matrix(.16 0 0 -.16 176.2 127.802)" id="text_21"><use xlink:href="#DejaVuSans-78"/><use x="74.805" xlink:href="#DejaVuSans-74"/></g><path d="M131.4 145.688h32" style="fill:none;stroke:#d55e00;stroke-linecap:round;stroke-width:1.5" id="line2d_10"/><g style="fill:#696969" transform="matrix(.16 0 0 -.16 176.2 151.287)" id="text_22"><defs><path d="M19.672 34.813V8.108H35.5q7.953 0 11.781 3.297 3.844 3.297 3.844 10.078 0 6.844-3.844 10.078-3.828 3.25-11.781 3.25zm0 29.984V42.828h14.61q7.218 0 10.75 2.703 3.546 2.719 3.546 8.282 0 5.515-3.547 8.25-3.531 2.734-10.75 2.734zm-9.86 8.11h25.204q11.28 0 17.375-4.688Q58.5 63.53 58.5 54.89q0-6.703-3.125-10.657-3.125-3.953-9.188-4.922 7.282-1.562 11.313-6.53 4.031-4.954 4.031-12.376 0-9.765-6.64-15.093Q48.25 0 35.984 0H9.812z" id="DejaVuSans-66"/></defs><use xlink:href="#DejaVuSans-66"/><use x="68.604" xlink:href="#DejaVuSans-101"/><use x="130.127" xlink:href="#DejaVuSans-114"/><use x="169.49" xlink:href="#DejaVuSans-103"/><use x="232.967" xlink:href="#DejaVuSans-101"/><use x="294.49" xlink:href="#DejaVuSans-110"/></g><path d="M131.4 169.173h32" style="fill:none;stroke:#0072b2;stroke-linecap:round;stroke-width:1.5" id="line2d_12"/><g style="fill:#696969" transform="matrix(.16 0 0 -.16 176.2 174.773)" id="text_23"><defs><path d="M54.89 33.016V0h-8.984v32.719q0 7.765-3.031 11.61-3.031 3.858-9.078 3.858-7.281 0-11.484-4.64-4.204-4.625-4.204-12.64V0H9.08v75.984h9.03V46.188q3.235 4.937 7.594 7.374Q30.078 56 35.797 56q9.422 0 14.25-5.828 4.844-5.828 4.844-17.156z" id="DejaVuSans-104"/></defs><use xlink:href="#DejaVuSans-82"/><use x="64.982" xlink:href="#DejaVuSans-117"/><use x="128.361" xlink:href="#DejaVuSans-116"/><use x="167.57" xlink:href="#DejaVuSans-104"/><use x="230.949" xlink:href="#DejaVuSans-101"/><use x="292.473" xlink:href="#DejaVuSans-114"/><use x="333.586" xlink:href="#DejaVuSans-102"/><use x="368.791" xlink:href="#DejaVuSans-111"/><use x="429.973" xlink:href="#DejaVuSans-114"/><use x="469.336" xlink:href="#DejaVuSans-100"/></g></g></g></g><defs><clipPath id="p97caee5c8f"><path d="M117 77.76h725.4v498.96H117z"/></clipPath></defs></svg>