<svg height="864" viewBox="0 0 936 648" width="1248" xmlns="http://www.w3.org/2000/svg" xmlns:xlink="http://www.w3.org/1999/xlink"><defs><style>*{stroke-linecap:butt;stroke-linejoin:round}</style></defs><g id="figure_1"><path d="M0 648h936V0H0z" style="fill:#fff" id="patch_1"/><g id="axes_1"><path d="M117 576.72h725.4V77.76H117z" style="fill:none" id="patch_2"/><path clip-path="url(#pb1c3a9168d)" d="m149.973 353.66 55.138-.134 5.514-.279 1.103-.165 1.102-.304 2.206-1.022 1.103-.722 3.308-2.917 1.103-1.11 2.205-1.803 1.103-.623 1.103-.21 2.205-.673 1.103.008 2.206-.334 2.205.452 1.103.566 2.206 1.772 1.102 1.24 1.103 1.798 3.308 3.867 2.206 1.778 1.103.644 2.205.364 1.103-.197 1.103-.532 1.103-.176 1.102-.335 1.103-.716 1.103-.951 1.103-.722 1.102.15 1.103.318 1.103.043 1.103.383 1.102.782 1.103 1.09 1.103.744 5.514-.216 2.205.468 1.103.48 2.206.307 1.102.055 1.103-.304 2.206-.933 1.102-.752 1.103-.497 2.206-.63 2.205.113 1.103-.123 1.103.265 3.308 1.32 1.103-.069 1.103-.328 1.102-.121 1.103-.294 3.308-1.55 1.103-.33 1.103-.08 1.103.266 2.205 1.12 1.103.13 1.103-.236 2.205.493 2.206-.826 1.103-.786 1.102-.46 1.103-.185 3.309-2.007 1.102-.873 2.206-1.447 2.205-1.979 1.103-.744 1.103-.544 1.103-.263 1.102-.105 2.206-.445 1.103.103 1.102.324 2.206 1.123 1.103.509 1.103.64 1.102.781 1.103.61 1.103-.14 1.103-.621 2.205-1.523 1.103-.3 1.103-.627 1.102-.177 2.206 2.008 1.103 1.41 1.103 1.598 1.102 1.112 1.103 1.667 1.103 1.24 1.103-.143 2.205 1.236 1.103.05 1.103.356 1.102-.015 1.103.139 1.103 1.226 1.103.554 1.102.366 3.309 3.244 1.103.798 1.102-.28 1.103-.545 1.103-.719 2.205-2.517 1.103-1.242 1.103-.82 1.103-.192 1.102.4 1.103.769 3.309 3.303 1.102.768 1.103.575 1.103.27 1.103-.523 2.205-2.2 1.103-1.22 3.308-2.593 1.103-.236 1.103-.122 1.102.36 1.103.805 1.103-.53 1.103-.348 1.103.372 1.102.686 1.103 1.575 1.103.358 1.103-.268 1.102 1.105 1.103.625 1.103-.345 1.103-1.715 1.102-2.786 1.103-1.75 2.206-2.421 1.103-.674 2.205-.664 1.103.332 1.103.906 1.102.633 1.103.172 1.103-.147 1.103.224 1.102 2.17 1.103 1.584 1.103-.365 1.103.026 1.102.309 1.103.143 1.103-.059 2.206-4.313 1.102-.19 1.103-1.105 1.103-.87 1.103-.298 1.102-.618 2.206 3.14 1.103-.474 1.102.294 2.206-.488 1.103.54 2.205-2.975 1.103.448 1.103.095 1.103-.238 1.102-1.613 1.103-1.924 2.206.007 2.205-2.294 1.103-.316 1.103 1.176 1.102 1.01 3.309-2.302 1.103-1.363 1.102-1.93 2.206-6.058 1.103-1.83 1.102-2.669 1.103-2.18 1.103-1.165 1.103-1.572 1.102-.409 1.103.35 1.103-.129 1.103 1.484 1.103 1.775 1.102 1.371 4.411 11.326 2.206 3.19 2.205 14.28 2.206 5.036 2.206 4.038 1.102-.14 2.206-24.7 1.103-5.372 1.102-6.634 1.103-5.137 1.103-4.485 1.103-1.558 1.102 6.288 1.103 4.813 1.103 1.66 1.103 4.371 1.102 3.682 1.103 5.325 1.103 2.617 1.103-.666 1.103 4.227 1.102 5.404 1.103 1.844 1.103.71 1.103-1.111 1.102 1.56 1.103 5.688 1.103 10.219 1.103 4.853 1.102-.752 1.103 2.109 1.103.704 1.103-1.103 1.103-5.75 1.102-16.011 1.103-14.29 1.103-7.44 1.103-8.792 1.102-6.325 1.103-3.476 1.103-2.165 1.103-6.847 1.102.416 1.103 9.068 2.206 14.894 1.102 5.332 1.103 8.272 1.103 17.523 1.103 12.916 1.103 3.15 2.205 11.624 1.103 3.175 1.103 1.463 1.102-.254 1.103-1.615 1.103-.762 2.205-11.838 1.103-1.2 1.103-2.234 1.103-2.651 1.103-1.237 1.102-1.42 1.103.323 1.103 1.682 1.103.285 2.205 2.675 1.103.167 1.103.309 1.102 2.576 1.103 1.015 1.103-1.548 1.103-1.779 1.102-1.483 3.309-2.275 1.103.105 2.205 1.498 1.103.322 1.103-.783 1.102-1.166 1.103-3.268 1.103-4.668 3.308-11.433 1.103-1.714 1.103-.703 1.103.152 1.102 1.646 1.103 1.913 2.206 3.332 1.102.69 1.103.322 1.103-1.957 1.103-3.056 1.102-.673 1.103-.28 1.103-.966 1.103-.584 1.102-.45 1.103 3.82 1.103 4.302 1.103-.548 1.103-.698 1.102-.055 2.206-1.154 1.103-1.91 1.102-2.213 1.103-1.37 2.206-3.383 1.102-1.083 1.103-.893 1.103-1.875 1.103-1.25 1.103 1.706 1.102 1.928 3.309 3.672 1.102 1.622 1.103.915 2.206-1.362 2.205-1.736 1.103-.923 1.103-.479 1.102-.293 1.103-.755 1.103.721 2.206 3.105 1.102 1.683 1.103.848 1.103 1.648 1.103 2.737 1.102.955 1.103.692 1.103.222 1.103-.359 1.102 1.293 1.103.812 1.103-.732 1.103-.252 2.205-.869 1.103-.088 1.103-1.69 1.103-1.368 2.205.452 1.103.402 1.103.64 1.102.503 1.103 1.112 1.103.69 1.103-.28 1.102-.086 1.103-.296 1.103-.632 3.308-1.304 2.206-.36 1.103.289 1.102.666 1.103.176 2.206-.676 1.102-.14 1.103-.474 1.103-.687 1.103-.515 1.103.01 1.102 1.19 1.103.678 1.103-.209 1.103.433 1.102 2.615 1.103 1.92 1.103-.636 1.103-2.272 1.102-1.493 1.103-.128 1.103-.86 2.205-10.197 1.103-.05 1.103.942 1.103.702 1.103.23 1.102.575 2.206 5.084 1.103.109 1.102-.098 2.206-.997 2.205-1.41 1.103-.362 2.206-.253 1.103-.06 1.102-.254 2.206-5.814 1.103-.069 1.102.184 1.103.682 1.103.131 1.103-1.19 2.205 6.344 1.103-.92 1.103-.595 2.205-5.284 1.103.106 1.103.224 2.205-.426 1.103-.103 1.103.353 1.103.217 1.102-.985 2.206-6.516 1.103-1.059 1.102-.332 1.103-.658 1.103-2.052 1.103-1.67 1.103-.388 1.102-.695 1.103-.445 1.103-.185 1.103-.773 1.102-.459 1.103-.057 1.103.11 1.103-.113 2.205-1.081 1.103-.204 1.103 1.857 1.103.912 1.102.063 1.103 2.507 1.103 1.804 1.103.583 1.102-1.89 1.103-.501 1.103 3.669 1.103 1.432 1.102-.143 1.103-.865 1.103-.626 1.103 4.899 1.102 2.902 1.103-1.207 1.103-.245 1.103.515 1.103 2.279 1.102 1.086 2.206-1.392 1.103-2.18 1.102.365 1.103 2.348 2.206 2.89 1.102 12.484 1.103 4.997 1.103-3.68 1.103 3.454 1.103.217 1.102.372h0" style="fill:none;stroke:#000;stroke-linecap:round;stroke-width:1.5" id="line2d_1"/><path clip-path="url(#pb1c3a9168d)" d="m149.973 353.656 55.138-.097 3.308-.228 1.103-.185 1.103-.323 1.103-.485 3.308-2.912 1.103-1.964 3.308-8.102 1.103-4.85 1.103-7.466 1.102-6.573 2.206-10.99 1.103-4.163 1.102-5.855 1.103-2.039 1.103 1.567 1.103-1.358 1.102 1.05 1.103 5.42 1.103 4.142 1.103 7.086 2.205 16.33 1.103 12.11 1.103 7.222 1.103 4.224 1.102 3.27 1.103 1.337 1.103-.351 1.103-1.648 1.102-.827 1.103.17 1.103-3.159 1.103-.104 1.103-1.092 1.102-2.609 1.103 2.96 2.206-1.889 1.102 5.685 2.206 10.579 1.103 8.323 1.102.635 1.103-.212 1.103 2.755 1.103-1.293 1.102-2.761 1.103-1.123 1.103-2.236 1.103-.092 2.205 4.962 1.103 1.231 1.103 1.422 1.103 1.172 1.102-1.431 1.103-.304 1.103-1.17 2.205-7.672 1.103-4.477 1.103-5.848 1.103-3.357 1.103-2.538 1.102-.664 1.103.734 1.103 2.236 2.205 6.603 1.103 1.926 1.103.168 1.103-1.943 1.102-2.466 1.103-.604 1.103-1.188 1.103-.931 1.102 1.399 1.103 1.794 1.103 1.256 1.103 1.997 1.103.06 2.205-.27 1.103-2.341 1.103-1.06 1.102.307 2.206-2.683 1.103-.81 1.102-.11 1.103.795 1.103-.904 1.103-1.088 1.103-.085 2.205-.687 1.103-.268 2.205-7.976 2.206-.075 1.103.564 1.102.327 1.103-.642 2.206 14.335 1.102-.106 1.103-.234 1.103-.768 1.103-.208 1.103.672 2.205-6.208 1.103-.025 1.103.11 1.102.413 1.103-.32 2.206-1.57 1.102.189 2.206 1.777 1.103.849 1.103.605 1.102.891 1.103.353 1.103-1.58 1.103-2.198 2.205-5.193 1.103-1.282 1.103-.927 1.102-.19 1.103.496 1.103 1.212 2.205 4.864 1.103 1.639 1.103 1.06 1.103-.054 1.103.752 1.102.89 2.206-1.564 3.308-2.404 1.103-1.386 1.103-.96 1.102.943 1.103.625 1.103.3 1.103.945 1.103 2.3 1.102 2.824 1.103.317 1.103-1.716 1.103-.69 1.102.12 1.103-.278 1.103-1.722 1.103-2.362 1.102.176 1.103.9 3.308-1.486 1.103-.04 1.103.24 1.103-.381 1.103-.07 2.205 1.033 1.103.28 2.205.356 2.206-.417 1.103.032 2.205-1.027 2.206-.48 1.103.263 1.102-.123 1.103-.48 1.103.24 2.205.86 1.103.218 2.206-1.47 2.205-.737 2.206-1.401 1.102-.396 1.103-.082 1.103.869 1.103 1.131 1.103.153 1.102.757 1.103-.287 1.103-1.206 1.103.738 1.102.177 2.206-.84 1.103-1.733 1.102.812 1.103 2.532 1.103.058 1.103-1.174 1.103-2.474 1.102-.863 1.103 1.483 1.103-.38 1.103-1.718 1.102-2.54 1.103-.5 1.103 2.91 1.103.086 1.102-2.569 1.103-1.585 1.103-1.899 2.205 3.372 1.103-1.888 2.206 1.494 1.103-.333 1.102 1.535 1.103-3.485 1.103-4.339 1.103-.412 1.102-4.92 1.103-3.454 1.103-2.056 1.103-4.61 1.102-.773 2.206-7 1.103 4.747 1.103 2.842 1.102 1.006 2.206 7.842 1.103 8.355 1.102 4.027 1.103-2.554 1.103 2.092 1.103 2.94 1.102.338 1.103 2.005 1.103 1.578 1.103 2.789 1.103 3.552 2.205-1.252 1.103-2.398 1.103-7.415 1.102-10.011 1.103-6.556 1.103-2.77 1.103-.968 1.102.164 1.103 7.598 1.103 8.901 1.103 9.934 1.102 6.814 1.103 3.227 1.103 2.768 1.103.242 1.103-2.268 1.102 1.5 1.103.145 1.103-.074 1.103 1.52 1.102-.036 1.103 1.735 1.103-4.745 1.103-5.9 1.102 4.292 1.103 5.69 1.103.814 1.103 1.662 1.103-1.582 1.102 1.659 1.103-2.086 1.103-12.562 2.205-223.875 1.103-10.157 2.206-13.364 1.102-3.118 1.103-2.156 2.206 407.887 1.102 7.213 1.103 3.992 1.103 10.515 2.206 23.993 2.205-186.601 1.103 5.837 1.103 13.015 1.102 6.73 1.103-2.236 1.103-6.817 1.103-5.145 2.205-8.078 1.103-7.552 1.103-12.102 1.103-1.973 1.102 8.807 1.103 4.333 1.103 5.725 1.103 7.749 1.102 6.43 1.103 9.99 1.103 5.175 1.103-4.545 1.102-1.493 1.103-3.671 2.206-27.622 1.102-6.56 1.103-2.707 2.206 9.71 1.103 1.132 1.102 5.721 1.103 6.52 1.103 1.992 1.103.672 1.102-4.041 1.103-9.359 1.103-3.92 1.103 2.681 1.102.108 1.103-4.651 1.103-7.749 1.103-5.595 1.103.69 1.102.458 1.103-4.614 1.103-1.877 1.103 3.561 1.102 5.664 1.103 4.037 1.103 3.193 1.103 1.205 1.102-.461 1.103-1.093 1.103-3.597 2.205-5.24 1.103-4.273 1.103-.221 1.103 1.685 1.103-1.041 1.102.648 1.103-1.18 1.103-.074 1.103 2.228 1.102-2.783 1.103-1.577 1.103 4.122 1.103.33 1.102.54 1.103-.116 1.103-3.146 1.103 1.86 1.103 2.61 1.102-4.209 1.103.181 1.103 4.794 1.103 4.143 1.102 6.87 1.103 5.295 1.103.489 1.103 4.122 1.102 4.69 1.103-.232 1.103.712 1.103-1.541 1.102-3.908 1.103-.323 1.103.827 1.103-2.946 1.103-3.6 1.102-2.859 1.103-.506 1.103 2.753 1.103 1.631 1.102-.672 1.103 4.271 1.103 6.797 1.103 5.695 1.102 25.749 1.103 22.311 1.103 1.863 1.103 3.346 1.103-.579 1.102-1.094 1.103-1.922 2.206-91.214 1.102-2.928 1.103-4.117 1.103-.515 1.103-.727 1.102.23 2.206 45.332 1.103 3.793 1.102 5.56 1.103-.196 1.103-2.511 3.308-10.83 1.103-5.374 1.103-6.63 1.103-4.446 1.102-1.507 1.103.344 1.103.723 1.103 1.663 2.205 1.39 1.103 2.158 1.103 1.212 1.103-.124 1.102-.54 1.103-.778 2.206.143 1.102-.993 1.103-1.359 1.103-.518 1.103.14 1.102-.391 1.103-.64 1.103-.44 1.103-.272 1.102.548 1.103.377 2.206-.162 1.103-.436 1.102-.049 1.103.328 1.103-.168 1.103-.015 3.308 1.159 1.103-.052 1.102-.486 3.309-.989 1.103-.225 1.102.102 1.103.31 2.206.868 3.308.763 1.103-.213 2.205-1.322 1.103-.627 2.205-1.65 1.103-.995 1.103-.578 2.206-.013 2.205-.46 1.103.124 1.103-.115 1.102-.718 3.309-2.836 2.205-.493 1.103.1 1.103.518 1.103.115 2.205.787 1.103-.368 1.103-.663 1.102-1.13 1.103-.884 2.206-.353 1.102-.112 1.103.117 1.103.988 1.103 1.227 1.103.062 1.102-.368 1.103-.574 1.103-1.996 1.103-1.131 2.205-1.403 1.103 1.252 1.103 1.456 1.102-.804 1.103 1.771 1.103 2.891 1.103.111 1.102.593 2.206-1.271 1.103 3.359 1.103 2.683 1.102-.863 2.206.878 1.103.065 1.102-.404 1.103.113 3.308-.115 1.103 3.16 1.103 2.125 1.103-.478 1.103-2.054 1.102-5.104h0" style="fill:none;stroke:#009e73;stroke-linecap:round;stroke-width:1.5" id="line2d_2"/><path clip-path="url(#pb1c3a9168d)" d="m149.973 353.656 48.521-.1 4.412-.143 3.308-.162 2.205-.587 1.103-.527 1.103-.931 1.103-1.236 2.205-8.143 1.103-.607 1.103-1.742 1.103-3.829 1.102-2.896 1.103-1.459 1.103-1.721 1.103-5.55 1.102-10.533 1.103-9.095 1.103-3.646 1.103-6.158 1.102-13.45 1.103-7.96 1.103-4.233 1.103-9.358 1.102-2.188 1.103-1.236 1.103-2.228 1.103 16.245 2.205 41.91 1.103 33.846 1.103 22.727 1.103 16.812 1.102 26.535 1.103 5.185 1.103-11.201 1.103-5.651 2.205-15.435 1.103-9.925 1.103-15.78 1.103-3.544 1.102 9.378 1.103 6.057 1.103-4.052 1.103 1.904 1.102 12.154 1.103 10.25 1.103 5.104 1.103.89 1.102-.91 1.103 5.266 1.103 1.478 2.205-17.095 1.103-4.639 1.103-2.512 1.103-1.985 1.103-3.16 1.102-2.268 1.103.527 1.103 2.066 1.103.243 2.205-2.046 1.103-2.836 2.205-3.12 1.103-2.268 1.103-1.073 2.206-9.44 1.102 1.054 1.103-.79 1.103-.628 1.103.02 1.102-2.552 1.103-1.256 1.103.506 1.103-.992 1.102 1.762 1.103 3.282 1.103 1.944 1.103 2.248 1.102 5.145 1.103 3.606 1.103-1.276 4.411-8.102 1.103-3.87 1.103-2.065 1.102.587 1.103-.527 1.103-.85 1.103-.446 1.102 2.107 1.103 3.423 1.103.527 1.103.83 1.103 1.175 1.102-.02 1.103.931 1.103-.587 2.205-16.995 1.103-2.025 1.103-1.6 1.103-1.236 2.205-1.296 1.103 12.66 1.103 14.908 1.102 1.64 1.103.892 1.103 1.336 1.103.568 1.103.06 2.205-14.887 1.103-.163 1.103 1.054 1.102.85 1.103-.06 1.103 1.053 1.103 2.512 1.102 1.782 1.103.71 1.103-.386 1.103-1.215 1.103-1.033 1.102-1.479 1.103-2.106 1.103-1.844 2.205-3.18 1.103-.445 1.103-.142 1.103-.304 1.102 1.013 2.206.263 4.411 5.287 1.103-.122 1.103.892 1.102.465 1.103-1.336 1.103-.932 2.205-.345 1.103-.486 1.103-2.633 1.103-1.985 1.102.284 1.103-1.357 1.103-1.135 1.103.669 1.103 2.754 1.102 5.834 1.103 4.517 1.103 2.633 1.103 4.132 1.102 1.56 1.103-2.046 1.103-4.497 1.103-5.003 2.205-5.428 1.103-3.342 1.103-1.58 1.102.952 1.103 2.046 2.206 1.742 1.103 1.742 1.102 1.276 1.103 1.843 1.103.87 1.103.203 1.102.628 2.206-1.964 1.103-.365 1.102-.587 1.103-.243 2.206-1.803 2.205-.203 1.103.142 2.206-2.816 2.205 2.877 1.103.324 1.103-.365 1.102-.648 1.103 1.337 1.103 1.094 1.103-1.742 1.102-2.066 1.103-1.074h1.103l1.103.365 2.205-1.742 1.103.445 1.103.73 1.103.384 1.102-.303 2.206-1.155 1.103-.668 1.102-.203 1.103.182 1.103.79 1.103.284 1.103-1.215h1.102l1.103.303 1.103-.344 1.103.162 1.102-1.944 1.103-1.459 1.103 1.175 1.103-.081 1.102.648 1.103 1.053 1.103-2.775 1.103-.222 1.102 1.539 1.103-.75 1.103.061 1.103-2.592 1.103-1.702 1.102 3.646 1.103-2.066 1.103-4.618 1.103.729 1.102-1.074 1.103-1.62 1.103-6.421 1.103-9.52 1.102.263 1.103.122 1.103-4.193 1.103-.588 1.103.628 1.102 5.348 1.103 8.487 1.103 2.977 1.103 3.788 1.102.648 1.103-.263 1.103 6.907 1.103 5.186 1.102-3.2 1.103 1.437 1.103 3.95 1.103 4.457 1.103 2.815 1.102-6.684 1.103-5.368 1.103.608 1.103-8.001 1.102-9.763 1.103-2.006 1.103.993 1.103 7.88 1.102 7.048 1.103 11.262 1.103 13.794 1.103 10.189 1.102 4.091 1.103-1.195 2.206-12.194 1.103-9.236 1.102-4.922 1.103.385 1.103.648 1.103 3.423 1.102 1.499 1.103-.77 1.103-1.762 1.103-1.215 1.102.405 1.103-.122 1.103-2.511 2.206 4.294 1.102.587 1.103-3.605 1.103-8.265 2.205-188.214 1.103-12.052 1.103-6.037 1.103-4.517 2.205-7.393 2.206 358.382 1.102 13.632 1.103 2.167 1.103 6.907 2.206 19.912 1.102-78.713 1.103-92.832 1.103-2.309 1.103 12.74 1.102 9.217 1.103-.648 2.206-8.426 1.102.141 1.103 1.439 1.103-6.705 1.103-11.708 1.103-1.701 1.102 6.42 1.103 2.432 1.103 3.727 2.205 12.274 1.103 3.667 1.103-.426 1.103-3.443 1.102.668 1.103-1.235 1.103-13.51 1.103-11.931 1.102 1.458 1.103 3.727 2.206 8.143 1.103-3.363 1.102 2.553 1.103 6.522 1.103-.75 1.103-.992 1.102-2.836 1.103-9.58 1.103-.831 1.103 4.193 1.102-4.538 2.206-17.642 1.103-4.031 1.103.608 1.102-.102 1.103-4.091 1.103 1.884 1.103 9.864 1.102 11.627 1.103 4.76 1.103 6.32 1.103 5.063 1.102 1.904 1.103.02 1.103-5.367 1.103-8.953 1.102-7.373 1.103-5.47 1.103-3.017 2.206-1.236 1.102.973 1.103-1.054 1.103 2.552 1.103 2.168 1.102-.83 1.103 1.194 1.103 4.254 2.205-1.215 1.103-2.33 1.103-3.463 1.103.75 1.103-3.1 1.102-8.973 1.103 2.795 1.103 10.513 1.103 8.993 1.102 7.637 1.103 4.84 1.103 7.394 1.103 9.216 1.102 4.132 1.103-.202 1.103-.851 1.103-1.134 1.102-1.783 1.103-.79 1.103.73 1.103-4.214 1.103-5.307 1.102-1.64 1.103.547 1.103.688 1.103-1.033 1.102-1.944 1.103 3.646 1.103 5.205 1.103 1.378 2.205 3.22 1.103 1.297 1.103 2.106 1.103-1.438 1.102-.668 1.103 1.053 1.103-5.246 1.103-4.477 1.102-24.468 1.103-30.181 1.103-4.922 1.103-2.046 1.102-3.241 2.206 3.22 1.103 45.798 1.102 57.628 1.103 9.297 1.103-2.289 1.103-.993 1.103-1.276 1.102-1.54 1.103-23.941 1.103-30.343 1.103-6.907 1.102 1.134 1.103 1.438 1.103.567 1.103-.303 2.205-3.16 1.103.06 1.103-.384 1.103-1.135 1.102-.04 1.103.932 1.103 1.397 1.103 1.094 1.102-.121 1.103-1.358 1.103-1.174 1.103-.83 1.102-.993 2.206-2.573 1.103-.83 1.102.729 1.103 1.013 1.103.08 1.103-.364 1.103-.243 1.102.486 1.103.628 2.206-.182 1.102.506 1.103.77 1.103.202 1.103-.952 1.102-.729 1.103-.405 2.206-1.195 1.103-.486 1.102.101 1.103 1.053 1.103.649 1.103.141 2.205 1.317 1.103.648 1.103.932 1.102.223 1.103-.02 1.103.202 1.103-.85 2.205-2.229 1.103-1.944 1.103-1.317 1.103-1.053 1.102-1.317 1.103-.101 2.206.506 1.102.891 1.103-.06 1.103-.973 1.103-.587 1.102-.81 1.103-1.195 1.103-1.013 1.103-1.398 1.103-.75 2.205 1.864 1.103.04 1.103.467 1.102.202 1.103.567 1.103 1.6 2.205.81 2.206 3.485 1.103.506 1.103-1.235 1.102-2.41 1.103-1.014 1.103-1.904 1.103-.87 1.102.283 1.103-.121 1.103 1.539 1.103 2.876 1.102-.304 1.103.405 1.103-1.296 1.103-4.375 2.205 2.147 1.103-1.438 2.206 4.962 1.102.831 1.103 3.018 1.103-.304 1.103-.142 1.102 1.256 1.103.912 2.206 2.694 1.102-.061 1.103 2.208 1.103.445 1.103-2.45 1.103-3.707 1.102-5.996h0" style="fill:none;stroke:#d55e00;stroke-linecap:round;stroke-width:1.5" id="line2d_3"/><path clip-path="url(#pb1c3a9168d)" d="M149.973 353.656h61.755l2.205-4.126h1.103l2.206-2.063 1.102-3.095 1.103-6.19 1.103-5.159 1.103-3.094 1.102-4.127 1.103-3.095 1.103-5.158 1.103-7.222 1.102-3.095 1.103 7.222 1.103 4.126 1.103-14.443 1.102-18.57 1.103-1.031 2.206 31.981 1.103-4.126 1.102-8.254 1.103 31.981 1.103 48.488 1.103 15.475 2.205-14.443 1.103 8.253 1.103 16.506 1.102-12.38 1.103-26.822 1.103-7.222 1.103 4.127h1.103l1.102-5.159 1.103-9.285 1.103-2.063 1.103 2.063 1.102-1.031 1.103 1.031 2.206 12.38 1.102 8.253 1.103 4.127 1.103-2.063 1.103 5.158 1.102 2.063 1.103-4.126h1.103l1.103-1.032 1.103 2.063 1.102 4.127 1.103-9.285 1.103-13.411 2.205-14.443 1.103-6.19 1.103-5.159 1.103-3.095 1.102 8.254 1.103 15.474 1.103 9.285 1.103 4.127 1.103 3.095 1.102 1.031h1.103l1.103-4.126 1.103-7.222 1.102-4.126 1.103-2.064 1.103-4.126 1.103-3.095h1.102l2.206-6.19h2.205l2.206 8.253h1.103l2.205 12.38 2.206-2.063 2.205-6.19h1.103l2.206-6.19 4.41 8.253h1.104l1.102-2.063 2.206-2.064 2.205-6.19 1.103-2.063h2.206l1.102-1.031h1.103l1.103 3.095 1.103 4.126 1.102 2.063h2.206l1.103-1.031h1.103l1.102-1.032 1.103-5.158 1.103-3.095h1.103l1.102 6.19 1.103 7.221h1.103l1.103 1.032 1.102 6.19 1.103 4.127h1.103l1.103-2.064 1.103-4.126 2.205-6.19 1.103-4.127 1.103-2.063h1.102l1.103-3.095 1.103 2.063 1.103 7.222 1.102 3.095 1.103 1.031h2.206l1.102 1.032 1.103-2.063 1.103-5.159 1.103-1.031 1.103 1.031h2.205l3.308 3.095h1.103l1.103-2.063 1.103-1.032h1.102l2.206-4.126 1.103 1.032h2.205l1.103 1.031h1.103l1.103 2.063h1.102l1.103-4.126 1.103-1.032 1.103 2.064 1.102 1.031h1.103l1.103-2.063 2.205 4.126 1.103-1.031h1.103l1.103-1.032h1.103l1.102 2.063 1.103-3.094 1.103 2.063 1.103 6.19 1.102-1.032h2.206l1.103-2.063 1.102 4.126h1.103l1.103-7.221 1.103-1.032h2.205l1.103-1.031 1.103-4.127h1.103l1.102 5.158 1.103 2.063h2.206l2.205 10.317h1.103l2.205-2.063h2.206l1.103-5.159 1.103-6.19 1.102-7.221 1.103-15.475 1.103-11.348 1.103-2.063H440l1.103 2.063 1.103-2.063 1.103 5.158 1.102 22.696 1.103 12.38 1.103-4.126 1.103-6.19 1.103-3.095 1.102 11.348 1.103 4.126 1.103-6.19 1.103 9.285 1.102 14.443 1.103 12.38 1.103 2.064 1.103-14.444 2.205-16.506 1.103-20.633 1.103-13.411 1.102-6.19 1.103-5.158 1.103 5.158 2.206 12.38 1.102 12.38 1.103 5.158h1.103l1.103-1.032 1.102-7.222 1.103 3.095 1.103-7.221 1.103-18.57 1.102-2.063h1.103l1.103 10.316 1.103 5.159 1.103-24.76 1.102 4.127 1.103 18.57 1.103-10.317 1.103-5.158 1.102-1.032 1.103 11.348 1.103 30.95 1.103 17.538 1.102 20.633 1.103 11.348 1.103-10.317 1.103-2.063 1.103-5.158 1.102-14.443 1.103-36.108 1.103-63.962 1.103-14.444 1.102 24.76 1.103 3.095 1.103-3.095 1.103 5.158 1.102 25.792 1.103 54.677 1.103 42.298 1.103 2.063 1.102-6.19 1.103 2.063h1.103l1.103 12.38 1.103-3.095 1.102-35.076 3.309-33.013 1.102-19.601 1.103-42.298 1.103 2.064 1.103 25.79h1.102l2.206 20.634 2.206 56.74 2.205-36.107h2.206l1.102-15.475 1.103-18.57 1.103-1.031 1.103-10.317 1.102-22.696 1.103-10.317 1.103 14.444 1.103 35.076 1.102 14.443 1.103 3.095 1.103 23.728 1.103 35.076 1.103 20.633 1.102 11.348 1.103-6.19 1.103-11.348 1.103 7.221 1.102 6.19 1.103-5.158 1.103-10.317 1.103-54.677 1.102-26.823 1.103 26.823 1.103-9.285 1.103-28.886 1.103-25.791 1.102-5.158 1.103 63.962 1.103 50.55 1.103-38.17 1.102-24.76 1.103 22.696 1.103 33.013 1.103 10.317 1.102-48.488 1.103-59.836 1.103 30.95 1.103 46.424 1.102-3.095 1.103-19.601 1.103-12.38 2.206 66.026 2.205-42.298 1.103-1.032 1.103 12.38 1.102 7.222 1.103-27.855 1.103-5.158 1.103 16.506 1.102-12.38 1.103-17.538 1.103-11.348 1.103 7.222 1.103 6.19 1.102-20.633 1.103-15.475 1.103 17.538 1.103 19.601 1.102-1.031 1.103-7.222 1.103 7.222 1.103 24.76 1.102 10.316 1.103-21.665 1.103-7.221 1.103 14.443h1.102l1.103-11.348 1.103-20.633 1.103-7.222 1.103 24.76 1.102 13.411 1.103-9.285h1.103l1.103 8.253 1.102 12.38 1.103 5.158 1.103-15.474 1.103-18.57 1.102-2.063 1.103-9.285 1.103 5.158 1.103 11.348h1.103l1.102-2.063 1.103-5.158h1.103l1.103 18.57 1.102-1.032 1.103-17.538 1.103-7.222 2.205 10.317v25.79l1.103 5.16 1.103-10.317 1.103 4.126 1.102 16.507 1.103 11.348 1.103-4.127 1.103-16.506 1.103-7.222 1.102-3.095h1.103l1.103 1.032 1.103-3.095 1.102 4.127 1.103 8.253 2.206 18.57 1.102-10.317 1.103-16.506 1.103-2.064 1.103 2.064 1.103-6.19 1.102-10.317 1.103-6.19 1.103 7.222 1.103 11.348 1.102-2.063 1.103-7.222 1.103 10.317 1.103 13.411 1.102 2.063 1.103-6.19 1.103-7.221 1.103 7.221 1.102 8.254 1.103-5.159 1.103-6.19 1.103-1.031 1.103 6.19 1.102 5.158 1.103-5.158 1.103-7.222 1.103-5.158 1.102-2.063h1.103l2.206-8.254 2.205-4.126h5.514l1.103 1.032 1.103 4.126 1.102 3.095h3.309l2.205-6.19 2.206-4.126h3.308l1.103 6.19 1.103 7.221 1.102 1.032H719l1.103-3.095 1.103-4.127 1.103-1.032 2.205-8.253h4.411l1.103-1.031 1.103 7.221 1.103 8.253h4.41l1.103 1.032 1.103-4.127 1.103-5.158h3.308l1.103-1.031 1.103-2.064 1.103 1.032 1.102 2.063h3.309l1.102 2.063 1.103 3.095 1.103-6.19 1.103-7.221h1.102l2.206-45.393 1.103-4.126 1.103-7.222 1.102 2.064 1.103 7.221h1.103l2.205 73.247 1.103 2.064 1.103 11.348 1.103 13.411 1.102 3.095h1.103l2.206-34.044 1.103-4.127 2.205-28.886 1.103-5.158h1.103l1.102 3.095 1.103 4.126 1.103 11.348 1.103 16.507 1.102 9.285 1.103 3.094h1.103l1.103 8.254 1.102 5.158 2.206-18.57 1.103-5.158 1.103-2.063h1.102l2.206-27.855 1.103-5.158h1.102l1.103-1.032 1.103-5.158h1.103l1.102 12.38 1.103 10.316 1.103 4.127 1.103 5.158 1.103 4.127 1.102 5.158h0" style="fill:none;stroke:#0072b2;stroke-linecap:round;stroke-width:1.5" id="line2d_4"/><path clip-path="url(#pb1c3a9168d)" d="M117 353.656h725.4" style="fill:none;stroke:red;stroke-dasharray:1.5,2.475;stroke-dashoffset:0;stroke-width:1.5" id="line2d_5"/><path d="M117 576.72V77.76" style="fill:none;stroke:#d3d3d3;stroke-linecap:square;stroke-linejoin:miter;stroke-width:1.25" id="patch_3"/><path d="M117 576.72h725.4" style="fill:none;stroke:#d3d3d3;stroke-linecap:square;stroke-linejoin:miter;stroke-width:1.25" id="patch_4"/><g id="matplotlib.axis_1"><g id="xtick_1"><g style="fill:#696969" transform="matrix(.16 0 0 -.16 115.585 598.378)" id="text_1"><defs><path d="M9.813 72.906h9.859V5.078q0-13.187-5-19.14-5-5.954-16.094-5.954h-3.75v8.297h3.078q6.531 0 9.219 3.672Q9.813-4.39 9.813 5.078z" id="DejaVuSans-74"/><path d="M34.281 27.484q-10.89 0-15.093-2.484-4.204-2.484-4.204-8.5 0-4.781 3.157-7.594 3.156-2.797 8.562-2.797 7.485 0 12 5.297 4.516 5.297 4.516 14.078v2zm17.922 3.72V0H43.22v8.297Q40.14 3.328 35.547.953q-4.594-2.375-11.234-2.375-8.391 0-13.36 4.719Q6 8.016 6 15.922q0 9.219 6.172 13.906 6.187 4.688 18.437 4.688h12.61v.89q0 6.203-4.078 9.594-4.078 3.39-11.453 3.39-4.688 0-9.141-1.124-4.438-1.125-8.531-3.375v8.312q4.921 1.906 9.562 2.844 4.64.953 9.031.953 11.875 0 17.735-6.156 5.86-6.14 5.86-18.64z" id="DejaVuSans-97"/><path d="M54.89 33.016V0h-8.984v32.719q0 7.765-3.031 11.61-3.031 3.858-9.078 3.858-7.281 0-11.484-4.64-4.204-4.625-4.204-12.64V0H9.08v54.688h9.03v-8.5q3.235 4.937 7.594 7.374Q30.078 56 35.797 56q9.422 0 14.25-5.828 4.844-5.828 4.844-17.156z" id="DejaVuSans-110"/></defs><use xlink:href="#DejaVuSans-74"/><use x="29.492" xlink:href="#DejaVuSans-97"/><use x="90.771" xlink:href="#DejaVuSans-110"/></g></g><g id="xtick_2"><g style="fill:#696969" transform="matrix(.16 0 0 -.16 178.99 598.378)" id="text_2"><defs><path d="M9.813 72.906h14.703l18.593-49.61 18.703 49.61h14.704V0H66.89v64.016l-18.797-50h-9.907l-18.796 50V0H9.813z" id="DejaVuSans-77"/><path d="M41.11 46.297q-1.516.875-3.297 1.281Q36.03 48 33.89 48q-7.625 0-11.703-4.953-4.079-4.953-4.079-14.234V0H9.08v54.688h9.03v-8.5q2.844 4.984 7.375 7.39Q30.031 56 36.531 56q.922 0 2.047-.125 1.125-.11 2.484-.36z" id="DejaVuSans-114"/></defs><use xlink:href="#DejaVuSans-77"/><use x="86.279" xlink:href="#DejaVuSans-97"/><use x="147.559" xlink:href="#DejaVuSans-114"/></g></g><g id="xtick_3"><g style="fill:#696969" transform="matrix(.16 0 0 -.16 244.812 598.378)" id="text_3"><defs><path d="M32.172-5.078q-3.797-9.766-7.422-12.735-3.61-2.984-9.656-2.984H7.906v7.516h5.282q3.703 0 5.75 1.765Q21-9.766 23.483-3.219l1.61 4.094-22.11 53.813H12.5l17.094-42.766 17.093 42.766h9.516z" id="DejaVuSans-121"/></defs><use xlink:href="#DejaVuSans-77"/><use x="86.279" xlink:href="#DejaVuSans-97"/><use x="147.559" xlink:href="#DejaVuSans-121"/></g></g><g id="xtick_4"><g style="fill:#696969" transform="matrix(.16 0 0 -.16 318.968 598.378)" id="text_4"><defs><path d="M8.5 21.578v33.11h8.984V21.922q0-7.766 3.016-11.656 3.031-3.875 9.094-3.875 7.265 0 11.484 4.64 4.234 4.64 4.234 12.656v31h8.985V0h-8.984v8.406Q42.047 3.422 37.718 1q-4.313-2.422-10.032-2.422-9.421 0-14.312 5.86Q8.5 10.296 8.5 21.578zM31.11 56z" id="DejaVuSans-117"/><path d="M9.422 75.984h8.984V0H9.422z" id="DejaVuSans-108"/></defs><use xlink:href="#DejaVuSans-74"/><use x="29.492" xlink:href="#DejaVuSans-117"/><use x="92.871" xlink:href="#DejaVuSans-108"/></g></g><g id="xtick_5"><g style="fill:#696969" transform="matrix(.16 0 0 -.16 381.912 598.378)" id="text_5"><defs><path d="M53.516 70.516V60.89q-5.61 2.687-10.594 4-4.984 1.328-9.625 1.328-8.047 0-12.422-3.125t-4.375-8.89q0-4.845 2.906-7.313 2.907-2.453 11.016-3.97l5.953-1.218q11.031-2.11 16.281-7.406 5.25-5.297 5.25-14.172 0-10.61-7.11-16.078-7.093-5.469-20.812-5.469-5.172 0-11.015 1.172Q13.14.922 6.89 3.219v10.156q6-3.36 11.765-5.078 5.766-1.703 11.328-1.703 8.438 0 13.032 3.312 4.593 3.328 4.593 9.485 0 5.359-3.297 8.39-3.296 3.032-10.812 4.547L27.484 33.5q-11.03 2.188-15.968 6.875-4.922 4.688-4.922 13.047 0 9.672 6.812 15.234 6.813 5.563 18.766 5.563 5.14 0 10.453-.938 5.328-.922 10.89-2.765z" id="DejaVuSans-83"/><path d="M56.203 29.594v-4.39H14.891q.593-9.282 5.593-14.142 5-4.859 13.938-4.859 5.172 0 10.031 1.266 4.86 1.265 9.656 3.812v-8.5Q49.266.734 44.187-.344 39.11-1.422 33.892-1.422q-13.094 0-20.735 7.61-7.64 7.625-7.64 20.625 0 13.421 7.25 21.296Q20.016 56 32.328 56q11.031 0 17.453-7.11 6.422-7.093 6.422-19.296zm-8.984 2.64q-.094 7.36-4.125 11.75-4.032 4.407-10.672 4.407-7.516 0-12.031-4.25-4.516-4.25-5.203-11.97z" id="DejaVuSans-101"/><path d="M18.11 8.203v-29H9.077v75.484h9.031v-8.296q2.844 4.875 7.157 7.234Q29.594 56 35.594 56q9.968 0 16.187-7.906 6.235-7.907 6.235-20.797T51.78 6.484q-6.218-7.906-16.187-7.906-6 0-10.328 2.375-4.313 2.375-7.157 7.25zm30.578 19.094q0 9.906-4.079 15.547-4.078 5.64-11.203 5.64-7.14 0-11.218-5.64-4.079-5.64-4.079-15.547 0-9.906 4.078-15.547 4.079-5.64 11.22-5.64 7.124 0 11.202 5.64t4.078 15.547z" id="DejaVuSans-112"/></defs><use xlink:href="#DejaVuSans-83"/><use x="63.477" xlink:href="#DejaVuSans-101"/><use x="125" xlink:href="#DejaVuSans-112"/></g></g><g id="xtick_6"><g style="fill:#696969" transform="matrix(.16 0 0 -.16 448.646 598.378)" id="text_6"><defs><path d="M9.813 72.906h13.28l32.329-60.984v60.984h9.562V0h-13.28L19.39 60.984V0H9.813z" id="DejaVuSans-78"/><path d="M30.61 48.39q-7.22 0-11.422-5.64-4.204-5.64-4.204-15.453 0-9.813 4.172-15.453 4.188-5.64 11.453-5.64 7.188 0 11.375 5.655 4.203 5.672 4.203 15.438 0 9.719-4.203 15.406-4.187 5.688-11.375 5.688zm0 7.61q11.718 0 18.406-7.625 6.703-7.61 6.703-21.078 0-13.422-6.703-21.078-6.688-7.64-18.407-7.64-11.765 0-18.437 7.64-6.656 7.656-6.656 21.078 0 13.469 6.656 21.078Q18.844 56 30.609 56z" id="DejaVuSans-111"/><path d="M2.984 54.688H12.5L29.594 8.797l17.093 45.89h9.516L35.687 0H23.485z" id="DejaVuSans-118"/></defs><use xlink:href="#DejaVuSans-78"/><use x="74.805" xlink:href="#DejaVuSans-111"/><use x="135.986" xlink:href="#DejaVuSans-118"/></g></g><g id="xtick_7"><g style="fill:#696969" transform="matrix(.16 0 0 -.16 519.198 598.378)" id="text_7"><use xlink:href="#DejaVuSans-74"/><use x="29.492" xlink:href="#DejaVuSans-97"/><use x="90.771" xlink:href="#DejaVuSans-110"/></g></g><g id="xtick_8"><g style="fill:#696969" transform="matrix(.16 0 0 -.16 581.5 598.378)" id="text_8"><use xlink:href="#DejaVuSans-77"/><use x="86.279" xlink:href="#DejaVuSans-97"/><use x="147.559" xlink:href="#DejaVuSans-114"/></g></g><g id="xtick_9"><g style="fill:#696969" transform="matrix(.16 0 0 -.16 647.322 598.378)" id="text_9"><use xlink:href="#DejaVuSans-77"/><use x="86.279" xlink:href="#DejaVuSans-97"/><use x="147.559" xlink:href="#DejaVuSans-121"/></g></g><g id="xtick_10"><g style="fill:#696969" transform="matrix(.16 0 0 -.16 721.478 598.378)" id="text_10"><use xlink:href="#DejaVuSans-74"/><use x="29.492" xlink:href="#DejaVuSans-117"/><use x="92.871" xlink:href="#DejaVuSans-108"/></g></g><g id="xtick_11"><g style="fill:#696969" transform="matrix(.16 0 0 -.16 784.422 598.378)" id="text_11"><use xlink:href="#DejaVuSans-83"/><use x="63.477" xlink:href="#DejaVuSans-101"/><use x="125" xlink:href="#DejaVuSans-112"/></g></g></g><g id="matplotlib.axis_2"><g id="ytick_1"><g style="fill:#696969" transform="matrix(.16 0 0 -.16 73.733 544.782)" id="text_12"><defs><path d="M10.594 35.5h62.593v-8.297H10.594z" id="DejaVuSans-8722"/><path d="M12.406 8.297h16.11v55.625l-17.532-3.516v8.985l17.438 3.515h9.86V8.296H54.39V0H12.406z" id="DejaVuSans-49"/><path d="M31.781 66.406q-7.61 0-11.453-7.5Q16.5 51.422 16.5 36.375q0-14.984 3.828-22.484 3.844-7.5 11.453-7.5 7.672 0 11.5 7.5 3.844 7.5 3.844 22.484 0 15.047-3.844 22.531-3.828 7.5-11.5 7.5zm0 7.813q12.266 0 18.735-9.703 6.468-9.688 6.468-28.141 0-18.406-6.468-28.11-6.47-9.687-18.735-9.687-12.25 0-18.718 9.688-6.47 9.703-6.47 28.109 0 18.453 6.47 28.14Q19.53 74.22 31.78 74.22z" id="DejaVuSans-48"/></defs><use xlink:href="#DejaVuSans-8722"/><use x="83.789" xlink:href="#DejaVuSans-49"/><use x="147.412" xlink:href="#DejaVuSans-48"/></g></g><g id="ytick_2"><g style="fill:#696969" transform="matrix(.16 0 0 -.16 83.912 452.258)" id="text_13"><defs><path d="M10.797 72.906h38.719v-8.312H19.828v-17.86q2.14.735 4.281 1.094 2.157.36 4.313.36 12.203 0 19.328-6.688 7.14-6.688 7.14-18.11 0-11.765-7.328-18.296-7.328-6.516-20.656-6.516-4.593 0-9.36.781-4.75.782-9.827 2.344v9.922q4.39-2.39 9.078-3.563 4.687-1.171 9.906-1.171 8.453 0 13.375 4.437 4.938 4.438 4.938 12.063 0 7.609-4.938 12.047-4.922 4.453-13.375 4.453-3.953 0-7.89-.875-3.922-.875-8.016-2.735z" id="DejaVuSans-53"/></defs><use xlink:href="#DejaVuSans-8722"/><use x="83.789" xlink:href="#DejaVuSans-53"/></g></g><g id="ytick_3"><use xlink:href="#DejaVuSans-48" style="fill:#696969" transform="matrix(.16 0 0 -.16 97.32 359.735)" id="text_14"/></g><g id="ytick_4"><use xlink:href="#DejaVuSans-53" style="fill:#696969" transform="matrix(.16 0 0 -.16 97.32 267.212)" id="text_15"/></g><g id="ytick_5"><g style="fill:#696969" transform="matrix(.16 0 0 -.16 87.14 174.689)" id="text_16"><use xlink:href="#DejaVuSans-49"/><use x="63.623" xlink:href="#DejaVuSans-48"/></g></g><g style="fill:#696969" transform="matrix(0 -.2 -.2 0 65.573 445.117)" id="text_17"><defs><path d="M64.406 67.281v-10.39q-4.984 4.64-10.625 6.922-5.64 2.296-11.984 2.296-12.5 0-19.14-7.64-6.641-7.64-6.641-22.094 0-14.406 6.64-22.047 6.64-7.64 19.14-7.64 6.345 0 11.985 2.296 5.64 2.297 10.625 6.938V5.609Q59.234 2.094 53.437.33q-5.78-1.75-12.218-1.75-16.563 0-26.094 10.124-9.516 10.14-9.516 27.672 0 17.578 9.516 27.703 9.531 10.14 26.094 10.14 6.531 0 12.312-1.734 5.797-1.734 10.875-5.203z" id="DejaVuSans-67"/><path d="M44.281 53.078v-8.5q-3.797 1.953-7.906 2.922-4.094.984-8.5.984-6.688 0-10.031-2.047-3.344-2.046-3.344-6.156 0-3.125 2.39-4.906 2.391-1.781 9.626-3.39l3.078-.688q9.562-2.047 13.593-5.781 4.032-3.735 4.032-10.422 0-7.625-6.032-12.078-6.03-4.438-16.578-4.438-4.39 0-9.156.86Q10.688.296 5.422 2v9.281q4.984-2.594 9.812-3.89 4.829-1.282 9.579-1.282 6.343 0 9.75 2.172 3.421 2.172 3.421 6.125 0 3.656-2.468 5.61-2.453 1.953-10.813 3.765l-3.125.735q-8.344 1.75-12.062 5.39-3.704 3.64-3.704 9.985 0 7.718 5.47 11.906Q16.75 56 26.811 56q4.97 0 9.36-.734 4.406-.72 8.11-2.188z" id="DejaVuSans-115"/><path d="M44.39 34.188q3.172-1.079 6.172-4.594 3-3.516 6.032-9.672L66.609 0H56l-9.313 18.703q-3.624 7.328-7.015 9.719-3.39 2.39-9.25 2.39h-10.75V0h-9.86v72.906h22.266q12.5 0 18.656-5.234 6.157-5.219 6.157-15.766 0-6.89-3.203-11.437-3.204-4.532-9.297-6.282zM19.673 64.797V38.922h12.406q7.125 0 10.766 3.297 3.64 3.297 3.64 9.687 0 6.39-3.64 9.64-3.64 3.25-10.766 3.25z" id="DejaVuSans-82"/><path d="M18.313 70.219V54.688h18.5v-6.985h-18.5V18.016q0-6.688 1.828-8.594 1.828-1.906 7.453-1.906h9.218V0h-9.218q-10.407 0-14.36 3.875-3.953 3.89-3.953 14.14v29.688H2.687v6.984h6.594V70.22z" id="DejaVuSans-116"/><path d="M8.594 75.984h20.703V69H17.578V-6.203h11.719v-6.984H8.594z" id="DejaVuSans-91"/><path d="M48.781 52.594v-8.407q-3.812 2.11-7.64 3.157-3.828 1.047-7.735 1.047-8.75 0-13.593-5.547-4.829-5.532-4.829-15.547 0-10.016 4.829-15.563 4.843-5.53 13.593-5.53 3.907 0 7.735 1.046 3.828 1.047 7.64 3.156V2.094Q45.016.344 40.984-.531q-4.015-.89-8.562-.89-12.36 0-19.64 7.765-7.266 7.765-7.266 20.953 0 13.375 7.343 21.031Q20.22 56 33.016 56q4.14 0 8.093-.86 3.953-.843 7.672-2.546z" id="DejaVuSans-99"/><path d="M25.39 72.906h8.297L8.297-9.28H0z" id="DejaVuSans-47"/><path d="M45.406 46.39v29.594h8.985V0h-8.985v8.203Q42.578 3.328 38.25.953q-4.313-2.375-10.375-2.375-9.906 0-16.14 7.906-6.22 7.922-6.22 20.813 0 12.89 6.22 20.797Q17.968 56 27.874 56q6.063 0 10.375-2.375 4.328-2.36 7.156-7.234zm-30.61-19.093q0-9.906 4.079-15.547 4.078-5.64 11.203-5.64 7.125 0 11.219 5.64 4.11 5.64 4.11 15.547 0 9.906-4.11 15.547-4.094 5.64-11.219 5.64-7.125 0-11.203-5.64-4.078-5.64-4.078-15.547z" id="DejaVuSans-100"/><path d="M30.422 75.984v-89.171H9.719v6.984H21.39V69H9.719v6.984z" id="DejaVuSans-93"/></defs><use xlink:href="#DejaVuSans-67"/><use x="69.824" xlink:href="#DejaVuSans-97"/><use x="131.104" xlink:href="#DejaVuSans-115"/><use x="183.203" xlink:href="#DejaVuSans-101"/><use x="244.727" xlink:href="#DejaVuSans-32"/><use x="276.514" xlink:href="#DejaVuSans-82"/><use x="343.746" xlink:href="#DejaVuSans-97"/><use x="405.025" xlink:href="#DejaVuSans-116"/><use x="444.234" xlink:href="#DejaVuSans-101"/><use x="505.758" xlink:href="#DejaVuSans-32"/><use x="537.545" xlink:href="#DejaVuSans-91"/><use x="576.559" xlink:href="#DejaVuSans-32"/><use x="608.346" xlink:href="#DejaVuSans-99"/><use x="663.326" xlink:href="#DejaVuSans-97"/><use x="724.605" xlink:href="#DejaVuSans-115"/><use x="776.705" xlink:href="#DejaVuSans-101"/><use x="838.229" xlink:href="#DejaVuSans-115"/><use x="890.328" xlink:href="#DejaVuSans-47"/><use x="924.02" xlink:href="#DejaVuSans-100"/><use x="987.496" xlink:href="#DejaVuSans-97"/><use x="1048.775" xlink:href="#DejaVuSans-121"/><use x="1107.955" xlink:href="#DejaVuSans-32"/><use x="1139.742" xlink:href="#DejaVuSans-93"/></g></g><g style="fill:#696969" transform="matrix(.24 0 0 -.24 245.86 71.76)" id="text_18"><defs><path d="M4.203 54.688h8.985l11.234-42.672 11.172 42.672h10.593l11.235-42.672 11.187 42.672h8.985L63.28 0H52.688L40.922 44.828 29.109 0H18.5z" id="DejaVuSans-119"/><path d="M8.203 72.906h46.875v-4.203L28.61 0H18.312L43.22 64.594H8.203z" id="DejaVuSans-55"/><path d="M45.406 27.984q0 9.766-4.031 15.125-4.016 5.375-11.297 5.375-7.219 0-11.25-5.375-4.031-5.359-4.031-15.125 0-9.718 4.031-15.093t11.25-5.375q7.281 0 11.297 5.375 4.031 5.375 4.031 15.093zm8.985-21.203q0-13.953-6.203-20.765Q42-20.797 29.203-20.797q-4.734 0-8.937.703-4.203.703-8.157 2.172v8.735q3.954-2.141 7.813-3.157 3.86-1.031 7.86-1.031 8.843 0 13.234 4.61 4.39 4.609 4.39 13.937v4.453q-2.781-4.844-7.125-7.234Q33.938 0 27.875 0 17.828 0 11.672 7.656q-6.156 7.672-6.156 20.328 0 12.688 6.156 20.344Q17.828 56 27.875 56q6.063 0 10.406-2.39 4.344-2.391 7.125-7.22v8.297h8.985z" id="DejaVuSans-103"/><path d="M37.11 75.984V68.5h-8.594q-4.828 0-6.72-1.953-1.874-1.953-1.874-7.031v-4.828h14.797v-6.985H19.922V0H10.89v47.703H2.297v6.984h8.594V58.5q0 9.125 4.25 13.297 4.25 4.187 13.468 4.187z" id="DejaVuSans-102"/><path d="M9.813 72.906h9.859V42.094L52.39 72.906h12.703L28.906 38.922 67.672 0H54.688L19.672 35.11V0h-9.86z" id="DejaVuSans-75"/></defs><use xlink:href="#DejaVuSans-78"/><use x="74.805" xlink:href="#DejaVuSans-101"/><use x="136.328" xlink:href="#DejaVuSans-119"/><use x="218.115" xlink:href="#DejaVuSans-32"/><use x="249.902" xlink:href="#DejaVuSans-67"/><use x="319.727" xlink:href="#DejaVuSans-97"/><use x="381.006" xlink:href="#DejaVuSans-115"/><use x="433.105" xlink:href="#DejaVuSans-101"/><use x="494.629" xlink:href="#DejaVuSans-115"/><use x="546.729" xlink:href="#DejaVuSans-32"/><use x="578.516" xlink:href="#DejaVuSans-55"/><use x="642.139" xlink:href="#DejaVuSans-100"/><use x="705.615" xlink:href="#DejaVuSans-32"/><use x="737.402" xlink:href="#DejaVuSans-97"/><use x="798.682" xlink:href="#DejaVuSans-118"/><use x="857.861" xlink:href="#DejaVuSans-103"/><use x="921.338" xlink:href="#DejaVuSans-32"/><use x="953.125" xlink:href="#DejaVuSans-115"/><use x="1005.225" xlink:href="#DejaVuSans-108"/><use x="1033.008" xlink:href="#DejaVuSans-111"/><use x="1094.189" xlink:href="#DejaVuSans-112"/><use x="1157.666" xlink:href="#DejaVuSans-101"/><use x="1219.189" xlink:href="#DejaVuSans-32"/><use x="1250.977" xlink:href="#DejaVuSans-111"/><use x="1312.158" xlink:href="#DejaVuSans-102"/><use x="1347.363" xlink:href="#DejaVuSans-32"/><use x="1379.15" xlink:href="#DejaVuSans-55"/><use x="1442.773" xlink:href="#DejaVuSans-32"/><use x="1474.561" xlink:href="#DejaVuSans-97"/><use x="1535.84" xlink:href="#DejaVuSans-118"/><use x="1595.02" xlink:href="#DejaVuSans-103"/><use x="1658.496" xlink:href="#DejaVuSans-47"/><use x="1692.188" xlink:href="#DejaVuSans-49"/><use x="1755.811" xlink:href="#DejaVuSans-48"/><use x="1819.434" xlink:href="#DejaVuSans-48"/><use x="1883.057" xlink:href="#DejaVuSans-75"/></g><g id="legend_1"><path d="M694.75 184.5H831.2q3.2 0 3.2-3.2V88.96q0-3.2-3.2-3.2H694.75q-3.2 0-3.2 3.2v92.34q0 3.2 3.2 3.2z" style="fill:none;opacity:.8;stroke:#ccc;stroke-linejoin:miter" id="patch_5"/><path d="M697.95 98.718h32" style="fill:none;stroke:#000;stroke-linecap:round;stroke-width:1.5" id="line2d_6"/><g style="fill:#696969" transform="matrix(.16 0 0 -.16 742.75 104.317)" id="text_19"><defs><path d="M8.688 72.906h9.921V28.61q0-11.718 4.235-16.875 4.25-5.14 13.781-5.14 9.469 0 13.719 5.14 4.25 5.157 4.25 16.875v44.297H64.5V27.391q0-14.25-7.063-21.532-7.046-7.28-20.812-7.28-13.828 0-20.89 7.28-7.047 7.282-7.047 21.532z" id="DejaVuSans-85"/></defs><use xlink:href="#DejaVuSans-85"/><use x="73.193" xlink:href="#DejaVuSans-83"/></g><path d="M697.95 122.203h32" style="fill:none;stroke:#009e73;stroke-linecap:round;stroke-width:1.5" id="line2d_8"/><g style="fill:#696969" transform="matrix(.16 0 0 -.16 742.75 127.802)" id="text_20"><use xlink:href="#DejaVuSans-78"/><use x="74.805" xlink:href="#DejaVuSans-74"/></g><path d="M697.95 145.688h32" style="fill:none;stroke:#d55e00;stroke-linecap:round;stroke-width:1.5" id="line2d_10"/><g style="fill:#696969" transform="matrix(.16 0 0 -.16 742.75 151.287)" id="text_21"><defs><path d="M19.672 34.813V8.108H35.5q7.953 0 11.781 3.297 3.844 3.297 3.844 10.078 0 6.844-3.844 10.078-3.828 3.25-11.781 3.25zm0 29.984V42.828h14.61q7.218 0 10.75 2.703 3.546 2.719 3.546 8.282 0 5.515-3.547 8.25-3.531 2.734-10.75 2.734zm-9.86 8.11h25.204q11.28 0 17.375-4.688Q58.5 63.53 58.5 54.89q0-6.703-3.125-10.657-3.125-3.953-9.188-4.922 7.282-1.562 11.313-6.53 4.031-4.954 4.031-12.376 0-9.765-6.64-15.093Q48.25 0 35.984 0H9.812z" id="DejaVuSans-66"/></defs><use xlink:href="#DejaVuSans-66"/><use x="68.604" xlink:href="#DejaVuSans-101"/><use x="130.127" xlink:href="#DejaVuSans-114"/><use x="169.49" xlink:href="#DejaVuSans-103"/><use x="232.967" xlink:href="#DejaVuSans-101"/><use x="294.49" xlink:href="#DejaVuSans-110"/></g><path d="M697.95 169.173h32" style="fill:none;stroke:#0072b2;stroke-linecap:round;stroke-width:1.5" id="line2d_12"/><g style="fill:#696969" transform="matrix(.16 0 0 -.16 742.75 174.773)" id="text_22"><defs><path d="M54.89 33.016V0h-8.984v32.719q0 7.765-3.031 11.61-3.031 3.858-9.078 3.858-7.281 0-11.484-4.64-4.204-4.625-4.204-12.64V0H9.08v75.984h9.03V46.188q3.235 4.937 7.594 7.374Q30.078 56 35.797 56q9.422 0 14.25-5.828 4.844-5.828 4.844-17.156z" id="DejaVuSans-104"/></defs><use xlink:href="#DejaVuSans-82"/><use x="64.982" xlink:href="#DejaVuSans-117"/><use x="128.361" xlink:href="#DejaVuSans-116"/><use x="167.57" xlink:href="#DejaVuSans-104"/><use x="230.949" xlink:href="#DejaVuSans-101"/><use x="292.473" xlink:href="#DejaVuSans-114"/><use x="333.586" xlink:href="#DejaVuSans-102"/><use x="368.791" xlink:href="#DejaVuSans-111"/><use x="429.973" xlink:href="#DejaVuSans-114"/><use x="469.336" xlink:href="#DejaVuSans-100"/></g></g></g></g><defs><clipPath id="pb1c3a9168d"><path d="M117 77.76h725.4v498.96H117z"/></clipPath></defs></svg>