<svg height="864" viewBox="0 0 936 648" width="1248" xmlns="http://www.w3.org/2000/svg" xmlns:xlink="http://www.w3.org/1999/xlink"><defs><style>*{stroke-linecap:butt;stroke-linejoin:round}</style></defs><g id="figure_1"><path d="M0 648h936V0H0z" style="fill:#fff" id="patch_1"/><g id="axes_1"><path d="M117 576.72h725.4V77.76H117z" style="fill:none" id="patch_2"/><path clip-path="url(#pb51b645b9f)" d="m149.973 366.159 47.944-.122 2.713-.141 1.81-.316 1.809-.535 2.714-1.237 3.618-2.145 1.81-.95 1.808-.933 1.81-.82.904-.165 1.81.091 1.809.57.904.409 5.428 3.87 2.714 2.061 1.809.698 1.81.486.904-.028 1.809-.502 6.332-.046 3.618.216.905.345 1.81.884.904.163 3.618-.039 8.142-1.056.904-.187 1.81.015 1.809.05 2.714-.205 3.618-.241.905-.157 2.713.163 2.714-.445 1.81.015 1.809-.051 2.713-.442.905-.194.905-.372 7.236-4.082 1.81-.703 1.809-.785.904-.161 1.81.121 2.713.53.905.274 1.81.063 1.808-.189 2.714.356.905.33 1.809.376 4.523 1.792.905.607.904.797 2.714 1.83 1.81.947 6.331 2.947.905.004 2.714-.31 1.809-.032.905-.181 2.713-.07 3.619-.015.904.257 1.81.11.904.046 3.619-.482.904-.292.905-.458.904-.295.905-.16 1.81-.975.904-.215.904.173.905.558 1.81.482.904.22 1.81.118 1.808-.86 1.81-1.095 1.809-.068.904-.254.905-.792.905-.943 3.618-1.26.905-.036 1.809 1.436 2.714.646 2.713.024 1.81-.39.904-.414.905-.216.904-.06 4.523-1.276.905-.448.905-.189 1.809.021 1.809.003.905.15.904-.205.905-.694 2.714-1.671 6.332-2.004.904-.743 1.81-1.807 1.809-1.487.904-.987.905-1.343 2.714-3.436.904-1.36.905-.99.905-.752.904-.455.905-.156.904.08.905.495.905.982 3.618 4.674 1.81 7.111 1.808 4.097.905 1.868.905 1.405.904.538.905-1.813.904-2.19.905-1.095.905-1.582.904-1.193.905-.952.904-.651.905-2.26.905-2.964.904-1.426.905-.869.904-.559 1.81.73.904 2.16.905 3.471 1.81 5.1 3.617 6.84.905 5.548.905 3.94.904.42.905 1.082.904-.157.905.177.905-.025.904-2.225.905-3.624.904-3.146.905-2.568.905-2.159.904-1.758.905-3.04.904-8.78.905-5.33.905.626.904-.47.905.384.904.713.905 2.346.905 4.1 3.618 20 .905 3.268.904 3.739.905 6.633.905 4.34.904.918.905.132.904-.214.905.759.905-.297 1.809-2.211.904-.839.905-2.05.905-1.726 1.809-.722 2.714-1.317 1.809 2.15.904-.485.905-.195.905-.03 1.809-.378.904.676.905.43 1.81-.702.904-.446 1.809-1.31 2.714-4.547 1.809-2.466.905-.96.904-.717 1.81-2.358 2.713-2.376.905-.394.904-.146.905-.694.905-.541 1.809.994.904.284 1.81-.01.904.716.905.48 1.809-.845 2.714-1.233 1.809 1.536.905-.737.904-.949 2.714-1.842 1.81-2.784 1.808.19.905-.17 1.81.202 1.808-.226 1.81.873 2.713.39.905.438.905.24.904-.542.905.005 3.618.96.905.52 3.618 2.949.905.508 2.714 2.537.904.27.905.087 1.81-.241 3.617-.57.905-.025 1.81.25 1.808-.482 1.81.033 2.713.056.905.257.905.115 1.809-.279 2.714-.102 1.809-.58.904-.127 1.81-.4 1.809.13.905.306.904.151.905-.134.904-.015.905.74.905.54.904-.24 1.81-.73 1.809-.293 1.809-2.174.904-.264.905-.511.905-.304.904.04.905-.11 1.809-1.964.905.023.904.324.905.087 1.809-.156 1.81 1.537 1.808-.093 1.81-.504 1.809-2.774.904-.166.905.012.905.224.904.027.905-.555 1.809.204.905-.38.904-.158.905-.744.904-.973.905-.416 1.81 2.423.904-.418.904-.268 1.81-1.81.904-.338.905-1.165.904-1.351.905-.471 1.81-.284.904-.706.904-1.02 1.81-2.918.904-.578.905-.199.904-.549.905-.964.905-.664.904-.107 3.619-1.343.904.538.905.328.904.066.905.92.905.464.904.038.905-.805.904.52.905 1.76.905.575.904.908.905.36.904-.016.905 1.156 1.81 1.868.904.456.904.143.905.543.905.176.904 1.607.905.855.904-1.3.905.045.905 1.1.904 1.446.905.956.904 4.52.905 1.66.905-2.25.904 1.464.905.985 1.81.308.904-4.141.904-.781.905 4.697.904 1.274.905.19 1.81-.445.904-2.755.904.82.905 3.524.905.393 2.713 2.104.905 4.913.905 1.981.904-2.802 1.81.04 1.809.373.904-1.017.905-1.387.905-.622 1.809-1.473.904-.525.905-.28.905.724.904.133.905-.645 1.809.223.905-.076.904-.245.905-.617.904-.162.905.675.905.3 2.713-.244.905-.669 1.81-.915.904-1.06.904-.806.905-.424.905-.134.904-.515.905-.841.904-.611 1.81-.716.904-.454.905-.32 1.809-1.045.905-.19.904.363.905-.297.904-1.459.905-.654.905-.064.904-.468.905-.95.904-1.63.905-.796.905.787.904.405.905-.286.904-.103.905.275.905 1.538 1.809 7.032.904 1.21.905-.58.905-.979.904-.29.905-1.466 1.809-7.487.905-1.252 1.809 1.17.904-.145.905-1.512.905-3.185.904-1.979.905-.415.904.945.905 1.45.905.815.904 2.392.905 4.018.904 2.338.905-.365.905-3.19.904-4.129.905-3.46.904-4.923.905-3.01.905.188.904-2.315.905-7.749 1.809-19.029 1.81-24.329.904-7.424.904-3.072.905-9.639.905-17.854.904-12.136.905-3.798.904-10.934.905-16.401.905-4.735.904-1.9.905 2.935.904 8.317.905 6.162.905 9.703.904 7.848.905 4.425 1.81 56.701 1.808 15.919h0" style="fill:none;stroke:#000;stroke-linecap:round;stroke-width:1.5" id="line2d_1"/><path clip-path="url(#pb51b645b9f)" d="m149.973 366.156 47.039-.095 1.81-.114 1.808-.326 2.714-1.179.905-.79 2.714-3.493.904-2.223 1.81-6.151 2.713-8.815.905-3.12.904-2.646.905-2.266.905-3.047.904-1.698 1.81-.046.904.473.905 2.463.904 3.628.905 4.13.904 3.177.905 3.705.905 2.846 1.809 6.347.904 2.394.905 4.333.905 2.84.904.408.905 1.216.904.094.905-1.137.905.504.904-.686.905-.291.904.97 2.714 5.798.905 1.381.904-.45.905.702.905 1.687.904.882.905 1.689.904 2.338.905.209.905.854.904 2.028.905-.023.905-.515.904.019.905-1.409.904-.151.905.486.905-.522.904-.982.905-1.173 1.809-3.636.905-1.091.904-.704.905-1.21 1.809-1.061.905-.965.904-.55 2.714-2.577.905.627 1.809 1.722.904 1.277.905.754 1.81-.444.904-.21 1.809-.917.905-.362.904.283.905.6.904.226 1.81-.812.904-.112.905-.594.904-.753.905-.3 2.714-1.639.904-.145.905-1.307.905-1.799.904-.428.905-.051 1.809.078.905-.35.904 1.051.905 1.392 4.523-.18 1.809 3.121 2.714-.234.904-.202.905-.07.905-1.433.904-1.154 1.81.715.904.484 1.81.125.904-.14 2.714-1.696.904-.67.905-.259 1.809.05 1.81-.796 1.808-.127 1.81.189.904-.094.905.48.904.807 1.81 1.267.904.308.905.065 1.809-.524 2.714-.025.904-.207.905.02 1.81 1.177 1.808-.544.905-.025 1.81.418 2.713.589.905-.314.904-.444 1.81-.452 1.809-1.492.904-.078.905.318h1.81l.904-.066.904.046.905.167 1.81-.333.904.228 1.809-.106 1.81-.048.904.034 2.714-.409 1.809.012.904.012.905-.164 1.81-.693 1.808-.119 1.81-.186.904-.297.905.035.904.273 1.81-.035.904-.386.905-.615.904.252.905.402.905.268.904-.098.905-.375.904.202.905.51.905.305.904-.383.905-1.116.904-.489.905-.095.905.166.904.312.905-.953.904-.643.905.167.905-.298.904-.417.905-.755.904-1.39.905-.301 1.81.822.904.322 1.809-1.439.905-.14.904-.664 1.81-1.93.904-1.6 2.714-3.14.904-1.636.905-2.946.905-1.568.904-.066.905-.235.904-.403.905-.263.905 1.208.904 1.93.905.136.904.843.905 1.895 1.81 3.154.904 2.274.904 3.815.905 2.618.905.384.904.54.905.911.904-.79.905-2.079.905-3.24.904-1.446.905.3.904-.633.905-.156.905 1.997.904.57.905-.029 1.809.275.905.691.904.156.905 2.047 1.81 7.867.904 2.589.904 1.823.905 1.05.904.759.905-2.694.905-1.69.904 1.705.905 2.156.904.897.905.624.905.06.904-1.187 1.81-6.243 1.809-83.493 1.809-6.496 1.81-3.869.904-5.653.904 33.068.905 37.611 1.81-2.223.904 1.531.904 3.284.905 3.906 1.81 84.996.904 5.013 1.809 13.156.905 3.623.904 2.115 1.81-75.186.904.676.905 2.099.904-2.064.905-1.617.904.765.905-.312.905.662.904 1.41.905-.43.904-.812.905 1.23.905 1.637.904 1.091.905.789.904-2.422.905-2.741.905 1.317.904.948.905.048.904 1.362.905-.975.905-3.2.904-2.708.905-1.755.904-.781.905.242.905-1.66.904-1.07.905 3.227.904 2.546.905-1.021.905-2.719 1.809-7.03.904-1.33 1.81-1.422.904-.42.905-.8.904-.599.905 1.492.905.639.904-1.95.905-1.14.904-.014.905 1.157.905.556.904-.415 1.81.849.904-.82.905-1.133.904-1.471.905-1.023.904-.786.905-1.154.905.042.904 1.183.905.376.904-.246.905-.073 1.81-.707.904.397.904-.033.905.196.905 2.048 1.809 2.978.904 2.748.905 1.19.905-.033 3.618 7.535.905.533.904.063.905 1.901.904.67.905-1.471 1.81-1.612.904-.443.904.502.905.06.905.509 1.809 2.317 1.81 19.323.904 1.342.904 1.027.905 1.418.904 2.19.905 1.45 1.81-16.576 2.713-1.125 1.81-1.35 1.808-17.623.905.333.905.553.904-.272 1.81-2.564 1.809 14.66.904-.607.905-.411 1.81-3.326 1.808-2.48.905-.631.904-1.781.905-2.296.905-.879.904-.113 1.81.155 3.618 1.376.905-.057 4.523-1.209.904-.486.905-.31 2.714-.214.904-.413.905-.188.904.021 3.619.516 2.714-.115 1.809-.315 1.809.072 1.81.29 6.331-.218 1.81-.147 2.713-.723 5.428-1.82 4.523-2.12 1.81-.217 1.808-.083 1.81-.582 1.809-.381 1.809-.76 1.81-.171 1.808.198.905-.097 1.81.163 1.808-.532.905-.282.905-.81.904-.39 1.81.313 1.809.923.904-.53.905-.086.904.676.905-.222.905-.047 1.809.552.904.982.905 1.71.905.78.904.215.905.392.904-.21.905-.408.905 1.333.904 1.007.905-.333.904.154.905 1.378.905.842.904-.34.905-.745.904-1.426.905-.166.905.455.904-.917.905-.016.904.925.905-.676.905-.311.904-.011.905.136.904-1.254.905-.622 3.618 5.081.905.809.905 1.648.904.892.905-.16.904.772.905.573.905.12.904-.239.905.293.905.48.904-.182 2.714-2.004.905-.776 1.809-.785.904.207.905.347h.905l.904.782.905.944.904.357.905.538.905.33.904-.18.905.064.904.24.905-.31.905-.58.904-.433.905-.99.904-.825.905-.45.905-1.169.904-.841.905-.172.904-.65.905-.292.905.437 1.809-.446.904.266.905.107.905-.14.904.017.905-.537.904-.801.905-.402.905-.8.904-.95.905-.682 1.809-2.337 1.81-1.065.904-.278.904-.655.905-.467.905.017.904.386 1.81 1.573.904.261.905-.427.904-.822.905-1.332.904-2.337 1.81-6.004.904-1.872.905-.298.904-.497.905-1.296.905-1.528.904-1.214.905-.383.904.268.905.467.905.338 1.809.525.904-.195.905-2.041.905-4.037.904-5.28.905-7.55.904-12.73 2.714-49.492 1.81-14.253.904-16.437 1.81-47.016.904-18.545 2.714-44.189.904-11.577.905 8.096 1.81 31.807.904 13.294.904 4.961.905 10.019.904 32.272 6.333 310.985.904 31.063h0" style="fill:none;stroke:#009e73;stroke-linecap:round;stroke-width:1.5" id="line2d_2"/><path clip-path="url(#pb51b645b9f)" d="m149.973 366.156 43.42-.093 3.619-.233 1.81-.327.904-.381.904-.506 1.81-3.159.904-.358.905-.77 1.809-3.143.905-1.035.904-2.24.905-3.68 1.809-8.442.905-2.871.904-3.478.905-5.726 1.809-7.477.905-7.64.904-4.333.905-1.875.904-3.221.905 1.073.905 5.229.904 6.185.905 9.406.904 7.89.905 5.982 1.81 17.568.904 3.983.904 5.64.905 10.068.905 5.734.904 2.646.905 4.13.904.631.905-.7.905.156.904-4.49.905-2.264.904.856.905-2.124.905.6.904 3.944.905 1.976.904.467 1.81 2.668.904.67.905.178.904-.622.905-1.113.905.81.904-.304.905-3.096.905-2.474.904-1.689 1.81-2.513.904-2.303.905-1.501.904-.366.905-.078.904-.319 1.81-4.411.904-.685 1.81-1.743.904-.863.905-1.393.904-2.287.905-1.626.904.023.905.374.905 1.019.904.754.905-.116 1.809 3.073.905-.871.904-.117.905.506 1.809.046 1.81 1.082.904-.265 2.714-3.01.904.007.905-.171.904-.591.905.544.905.25.904-.335.905.186.904.584.905-1.883.905-3.128.904-.459.905-.163.904-.482.905.093.905-.46.904 1.666.905 2.396.904-.148.905-.272 1.81-.008.904-.21.904 1.992.905 2.879.905.568 1.809 1.587.904.194.905.428 1.81-4.069 1.808.467.905-.14.905-.42.904-.164.905.156.904-.023.905-.327 1.81-1.408.904-.452.904-.684.905-.42 1.81-1.206.904-.117.904.319 1.81.864 2.713.964.905-.007.905.132 1.809.902.904-.233 1.81-1.253.904-.404.905-.88.904-.505.905.194.905.872.904 1.229 1.81 2.093.904 1.066.905.163.904-.529.905-.669.904.319.905.677.905-.016.904.304.905-.008.904-.42.905-.942.905-1.61.904-.7.905-.358.904-.794.905.101.905.7.904.864.905.553.904.007 1.81.615.904.482.905.242.905-.273.904-.1 1.81-.833.904-.086.905-.794.904-.606 1.81.412.904.07 2.714-.412 1.809-.203 2.714-.677.904-.108 1.81.264 1.809-1.011.904-.265 1.81-.179 1.809-1.167.904.093 1.81.802.904-.008.905-.669 1.809-.381.905-.21.904.132 1.81-.895 1.809-.046 1.809.638.904-1.004.905-.833.905.032.904.163.905-.008.904-.747.905-.249.905.335.904-.88.905-1.182.904-.008.905-.389.905-1.618.904-3.12.905-2.256.904-.693.905-1.727.905-1.33.904-.638 2.714-1.19.905 1.244.904 1.502.905-1.362.904-.326.905 2.894.905 4.046.904 2.03.905 1.696.904 2.972.905 1.96.905.981.904.086.905-.07.904-.996 1.81-4.754.904.942.905 1.462.904.46.905.645.905 4.56.904 2.224.905.164.904.801.905-.078 2.714 1.829.904 3.407.905 4.062.905 1.82.904.856.905-1.86.904-2.544.905-4.224.905-2.358 2.713.856.905 1.432.905.498.904-.452.905-1.851.904-3.019 1.81-73.305.904-3.773 1.81-3.034.904-2.88.905-4.52.904 30.227.905 35.135.904.607.905-1.486.905.918 1.809 4.808 1.81 71.764.904 4.35 1.809 11.919.905 3.664.904 2.085 1.81-67.423.904-.334.905 2.318 1.809-1.86.904.818.905-.654.905 1.486.904 2.995.905-.303.904-3.089.905-.817 2.714 3.291.904-2.746.905-2.31.905 1.968.904 1.268.905.272.904 1.79.905-1.767.905-4.209.904-2.077.905.272.904 1.05.905.506.905-2.147.904-1.61.905 2.59.904.763 1.81-7.446.904-2.637.905-3.447.904-.358.905.04.905-1.02.904.428.905 1.05.904.28.905 2.661.905 1.906.904-.84.905.731.904 1.727.905 1.027.905-1.003.904.327.905.785.904.498.905-.233.905-1.688.904-3.844.905-1.852.904-1.268.905-1.478.905.226.904 1.392.905.125.904-.623.905.086.905-.498.904-.031.905-.731.904-1.813.905.825.905 3.82.904 2.56.905 1.602.904 2.147.905 1.65.905.093.904 2.66.905 3.961.904 3.128.905 2.497.905 1.175.904 2.536.905 3.82.904-.03.905-2.117.905-.957.904-.226.905-.42.904-.7.905-.467.905-.218 1.809-.14 1.81 1.712 1.808.163.905.848.904 1.743.905.934.905-1.393.904-1.105.905-8.9.904-10.783.905-2.443.905-1.043.904-.84.905-1.393.904-1.105.905 8.193.905 10.542.904 1.68 1.81-3.29 1.809.155.904 8.395.905 10.48.904.918.905-.444.905.172.904-.273.905-.708.904-9.818.905-12.246.905-2.63.904.288 1.81.319.904.241 2.714-.28.905-.67.904-.886.905-.335 2.714-.054.904-.366.905-.241.904-.062.905-.288 1.81-1.113.904-.303.904-.078.905.241.905.358 1.809.381.904-.015.905-.18.905-.038 2.713-.49 2.714.264 3.619-.085.904.062 2.714 1.128.905.132.904-.054 1.81-.373 8.14-3.61 1.81-1.51 2.714-1.003.904-.195.905-.311.905-.016.904.132 3.619-1.205.904.326 1.81 1.027.904.67.905.863.904.272 2.714-.801.905-.576.904.32.905.793 2.714.443 1.809-1.081.904-.833.905-1.571.905.35.904 1.02.905.551.904.817.905 1.128.905-.178.904-.522 1.81.654.904-.07 1.81 2.746.904.864.904 1.136.905.731.905.117.904-.46 1.81-2.162.904.28.905.49.904-.84.905-.607.904.591 2.714-.856.905-.07.904-.38.905.054.905.785 2.713 1.54.905-.201.905.91.904.731.905-.56 1.81.303.904.646.904.825 1.81-.335.904.63.905 1.05.904.81.905-.373.905-.047.904.412.905.016.904.171.905-.202.905-.693 1.809-.451.904.117.905.848.905.342.904-.49.905-.062.904.638.905-.358.905-1.26 1.809-1.985.904-.708.905-.17.905-.646.904-.117.905.397 1.809-1.292.905.405.904-.11.905-.45.904.31.905.685.905.84.904.56.905.055.904-.078.905-.606.905-1.245 4.523-7.563.904-.676.905-.055 1.809-.615.905.063.904.24.905.592.904 1.074.905.646 1.81.163.904-.537 2.714-3.392.904-1.408 1.81-2.14.904-1.564.905-1.836 1.809-2.964.904-.661.905.786.905-.405 1.809-3.182.904-3.369 2.714-13.98.905-9.252.904-14.167.905-18.953.905-22.204.904-16.79.905-9.539.904-12.339.905-21.427.905-29.626.904-24.243.905-14.238.904-8.325.905-6.808.905-11.522.904-5.135.905 18.68.904 25.122.905 20.82.905 15.732.904 4.053.905 14.627.904 39.866L804 340.077l.904 46.65.905 37.298.904 32.685 1.81 75.857.904 21.473h0" style="fill:none;stroke:#d55e00;stroke-linecap:round;stroke-width:1.5" id="line2d_3"/><path clip-path="url(#pb51b645b9f)" d="M149.973 366.156h50.657l1.81-1.585h.904l1.81-.792.904-1.189.905-2.377.904-2.774.905-1.981 1.809-3.17.905-2.378 1.809-7.529.904.793.905.396.905-7.133.904-8.321.905-2.378.904 3.17.905 5.152.905 1.188.904-1.585.905 6.737.904 11.491.905 5.548 1.81 6.736.904 1.585.904 3.17 1.81 15.85.904 3.17.905-1.188.904-2.774.905 1.189.905 2.774.904-5.548.905-9.51.904-3.17.905 1.981.905 2.378.904.396.905-.396.904.792h.905l.905 1.585.904 1.189.905.792.904 2.378.905 2.774.905 2.377.904.793.905-1.585 1.81-8.718 1.808-5.547.905-1.19.905.397.904-.396 1.81 1.585 1.809-2.378.904-1.585.905-1.189.904 1.585.905 3.17.905 1.982.904.792.905-.396.904-.792h.905l.905-2.774.904-3.963.905-1.585.904-.792h.905l.905.396h.904l1.81 2.377 1.809-.792 1.809.792h.904l1.81 2.378 1.809.793 1.809-.793h.905l.904-1.981.905-1.585.904.396 1.81-.793h1.809l1.809-1.585.905-.396h.904l.905.396h2.714l.904-.792h.905l.904.792 1.81-.792h.904l1.81 4.755h1.809l1.809.792h.904l.905 1.586.905 1.188.904-1.188.905-.793 1.809 1.585h.905l.904-1.981.905-.793.904 1.585h.905l.905-1.189.904-.792h.905l.904-.793h.905l2.714 2.378h1.809l.905.793.904-.397.905-1.585 2.714-1.189h.904l1.81-.792.904.792h.905l.904-.792h2.714l.905-.793.904-1.188.905-.397 1.81 1.585h1.808l.905.793 1.81-1.585.904.792h2.713l.905-.396.905 1.585.904 1.981 1.81-.792h1.809l.904.396.905.793.905-.397.904-.792h1.81l.904-1.189h1.81l.904-.792.904.396h1.81l.904 1.585.905.396h.904l.905 1.585.905.397h2.713l.905-.397.905-2.774.904-6.34.905-4.755.904-.792h.905l.905-1.189.904-3.17.905-.793.904 2.774.905.396 1.81-4.755.904-.396 1.809 7.133.905 6.34.904 8.321.905 3.963.904 2.377.905-.396.905-1.189.904-1.585.905-5.547.904-4.36.905.397.905 2.378.904-1.19.905-3.565 1.809-1.585 1.81-6.34 1.808-4.756.905-.792.905 3.566.904-.396.905-2.378.904 1.19h.905l.905 3.565.904-.792.905-8.321.904-1.19h.905l.905-4.754.904-1.982.905 3.567.904 6.34.905 2.377.905 8.322.904 15.058.905.396.904-5.944.905-1.189.905 2.378.904 6.34.905-7.133.904-16.643.905-1.188.905 5.547.904.396 1.81-6.736 1.809-7.529 1.809 21.002.904-1.189.905-.396.905 1.981.904 14.662.905 19.813.904 2.773.905-3.566.905-6.34.904-3.566.905-7.53.904-11.49.905-.397.905-3.566.904-4.36h.905l.904-.395.905 3.566.905-5.548.904-6.34.905 3.17h.904l.905 3.963.905-1.982.904 3.963.905 10.303.904-11.095.905-15.455.905-3.962.904 5.548.905 7.528.904-1.585.905.793 1.81 9.906.904 3.963 1.81 21.002.904 1.188.904 3.963 1.81 22.983.904 3.962.905-16.642.904-12.68.905 5.943.905-.792.904-8.718.905-11.888.904-5.944.905 3.567.905 9.114.904-4.36.905-13.076.904-2.377.905 2.774.905 1.98.904 5.945.905-3.567.904-2.773 1.81 15.85.904 5.151.905-.792.904-5.944.905-10.303.905 3.567.904 9.906.905-1.585.904-2.774.905-1.981.905 1.981.904 10.7.905-1.982.904-12.68.905-7.133.905.396.904 5.548.905-8.322.904-9.906.905.396.905 1.982.904.792.905-4.755h.904l.905 5.151.905 1.585.904-1.981.905-1.585 1.809 9.906.905-2.773.904-1.585.905 1.585 1.809 2.377.905 2.378.904 1.981h.905l.904-1.189.905-3.17.905-.792.904 3.566.905-1.981.904-4.36.905-3.565.905 5.15.904 9.115.905 1.981.904-6.736.905-9.114.905-.793.904 3.567.905 1.585.904-2.378.905-2.774 1.81 3.17v7.925l.904 1.982.904 3.17.905 1.189.905-.397.904 1.585.905 2.378.904 3.566.905-.792.905-5.152.904 1.585.905 6.737.904 3.17h.905l.905-3.17.904.792.905 2.378.904-3.963.905-5.944.905-1.98.904 2.377.905.792.904-.396.905 1.189.905-1.19.904-1.98.905-1.585.904-1.982.905 1.585.905 1.19.904-1.586.905.396.904 1.585.905 1.982.905.396.904 1.981.905 2.774.904.396h.905l.905-.792.904.792.905.397.904-3.963.905-3.17.905-.396.904.792.905.396.904-2.773.905-3.567.905-1.981.904-.793h.905l1.81-3.17.904-.396.904.793.905 1.188h2.714l.904-1.188.905-.793.905.793.904.396h2.714l.905 1.189.904 1.585.905-.397.904-.792h2.714l1.81 2.378h.904l1.81-3.17h1.808l.905-1.19.905-1.584.904-.793.905 1.189.904 1.585h4.523l1.81 2.377h2.713l1.81-.792 1.809-2.378h2.714l1.809.793 1.809-3.963h.905l1.809-17.435.904-.792 1.81-3.17h1.809l1.809 10.698.905-.792.904 1.585.905 5.944.904 3.962h.905l1.81 15.058.904-.792.904-1.19.905-.395.905-.793h.904l.905-5.548.904-4.755.905 2.774.905.793.904-1.982.905-.792h.904l.905 4.359.905 3.566.904.793.905 2.773.904 1.585.905.397h.905l.904-1.982.905-3.566.904-5.548.905-3.566.905-2.377.904-2.774h.905l.904-.396.905-1.585.905-.397.904 1.982.905 1.188h1.81l.904-1.585.904 3.17.905 7.53.904-1.586.905-1.981.905 2.377h.904l.905-4.358.904-1.585.905 1.98.905-.395.904.792.905.396h.904l.905 7.133.905 2.774.904-4.755 1.81 5.944.904-.793h.905l.904 1.585.905 1.189.905-.793h.904l.905-2.773.904-3.17h.905l.905-1.982.904-2.774.905.397h.904l.905 2.773.905 3.963h.904l.905-3.17.904-2.378.905 1.982.905-1.189.904.396.905 2.774h.904l.905.793.905 3.17.904 1.188.905.397.904-1.585.905-3.17h.905l.904.792.905-1.585.904-2.774 1.81 2.378.904-.396h.905l1.809-2.378.905-3.963.904-4.755.905-3.17.904-2.377h.905l.905 1.981.904 2.378.905 3.17.904.792h.905l.905 1.981h.904l.905-4.755.904-5.944.905.397.905 2.774.904 4.358.905 3.17h.904l1.81-3.17.904-.792.905-2.774.904-7.133.905-5.151h.905l.904 6.34.905 5.548.904-2.774 1.81-7.529.904-1.585h.905l.904.396h.905l.905-4.359.904-5.943.905 2.773.904-11.491.905-21.002 1.81-15.057.904-11.096 1.809-18.624.905 9.114.904 17.435.905 2.378.904-7.133.905-9.114.905-.792.904-11.888.905-17.039.904-22.19.905-28.927.905 1.981.904 19.813.905-1.189.904-3.17.905-15.85.905-18.228.904 13.077 1.81 32.493.904 24.171.905 37.645.904 62.212.905 75.685.904 45.57.905 11.888.905 17.831.904 34.078h0" style="fill:none;stroke:#0072b2;stroke-linecap:round;stroke-width:1.5" id="line2d_4"/><path clip-path="url(#pb51b645b9f)" d="M117 366.156h725.4" style="fill:none;stroke:red;stroke-dasharray:1.5,2.475;stroke-dashoffset:0;stroke-width:1.5" id="line2d_5"/><path d="M117 576.72V77.76" style="fill:none;stroke:#d3d3d3;stroke-linecap:square;stroke-linejoin:miter;stroke-width:1.25" id="patch_3"/><path d="M117 576.72h725.4" style="fill:none;stroke:#d3d3d3;stroke-linecap:square;stroke-linejoin:miter;stroke-width:1.25" id="patch_4"/><g id="matplotlib.axis_1"><g id="xtick_1"><g style="fill:#696969" transform="matrix(.16 0 0 -.16 119.548 598.378)" id="text_1"><defs><path d="M9.813 72.906h9.859V5.078q0-13.187-5-19.14-5-5.954-16.094-5.954h-3.75v8.297h3.078q6.531 0 9.219 3.672Q9.813-4.39 9.813 5.078z" id="DejaVuSans-74"/><path d="M34.281 27.484q-10.89 0-15.093-2.484-4.204-2.484-4.204-8.5 0-4.781 3.157-7.594 3.156-2.797 8.562-2.797 7.485 0 12 5.297 4.516 5.297 4.516 14.078v2zm17.922 3.72V0H43.22v8.297Q40.14 3.328 35.547.953q-4.594-2.375-11.234-2.375-8.391 0-13.36 4.719Q6 8.016 6 15.922q0 9.219 6.172 13.906 6.187 4.688 18.437 4.688h12.61v.89q0 6.203-4.078 9.594-4.078 3.39-11.453 3.39-4.688 0-9.141-1.124-4.438-1.125-8.531-3.375v8.312q4.921 1.906 9.562 2.844 4.64.953 9.031.953 11.875 0 17.735-6.156 5.86-6.14 5.86-18.64z" id="DejaVuSans-97"/><path d="M54.89 33.016V0h-8.984v32.719q0 7.765-3.031 11.61-3.031 3.858-9.078 3.858-7.281 0-11.484-4.64-4.204-4.625-4.204-12.64V0H9.08v54.688h9.03v-8.5q3.235 4.937 7.594 7.374Q30.078 56 35.797 56q9.422 0 14.25-5.828 4.844-5.828 4.844-17.156z" id="DejaVuSans-110"/></defs><use xlink:href="#DejaVuSans-74"/><use x="29.492" xlink:href="#DejaVuSans-97"/><use x="90.771" xlink:href="#DejaVuSans-110"/></g></g><g id="xtick_2"><g style="fill:#696969" transform="matrix(.16 0 0 -.16 200.36 598.378)" id="text_2"><defs><path d="M34.188 63.188 20.797 26.906h26.812zm-5.579 9.718h11.188L67.578 0h-10.25l-6.64 18.703h-32.86L11.188 0H.78z" id="DejaVuSans-65"/><path d="M18.11 8.203v-29H9.077v75.484h9.031v-8.296q2.844 4.875 7.157 7.234Q29.594 56 35.594 56q9.968 0 16.187-7.906 6.235-7.907 6.235-20.797T51.78 6.484q-6.218-7.906-16.187-7.906-6 0-10.328 2.375-4.313 2.375-7.157 7.25zm30.578 19.094q0 9.906-4.079 15.547-4.078 5.64-11.203 5.64-7.14 0-11.218-5.64-4.079-5.64-4.079-15.547 0-9.906 4.078-15.547 4.079-5.64 11.22-5.64 7.124 0 11.202 5.64t4.078 15.547z" id="DejaVuSans-112"/><path d="M41.11 46.297q-1.516.875-3.297 1.281Q36.03 48 33.89 48q-7.625 0-11.703-4.953-4.079-4.953-4.079-14.234V0H9.08v54.688h9.03v-8.5q2.844 4.984 7.375 7.39Q30.031 56 36.531 56q.922 0 2.047-.125 1.125-.11 2.484-.36z" id="DejaVuSans-114"/></defs><use xlink:href="#DejaVuSans-65"/><use x="68.408" xlink:href="#DejaVuSans-112"/><use x="131.885" xlink:href="#DejaVuSans-114"/></g></g><g id="xtick_3"><g style="fill:#696969" transform="matrix(.16 0 0 -.16 286.866 598.378)" id="text_3"><defs><path d="M8.5 21.578v33.11h8.984V21.922q0-7.766 3.016-11.656 3.031-3.875 9.094-3.875 7.265 0 11.484 4.64 4.234 4.64 4.234 12.656v31h8.985V0h-8.984v8.406Q42.047 3.422 37.718 1q-4.313-2.422-10.032-2.422-9.421 0-14.312 5.86Q8.5 10.296 8.5 21.578zM31.11 56z" id="DejaVuSans-117"/><path d="M9.422 75.984h8.984V0H9.422z" id="DejaVuSans-108"/></defs><use xlink:href="#DejaVuSans-74"/><use x="29.492" xlink:href="#DejaVuSans-117"/><use x="92.871" xlink:href="#DejaVuSans-108"/></g></g><g id="xtick_4"><g style="fill:#696969" transform="matrix(.16 0 0 -.16 365.909 598.378)" id="text_4"><defs><path d="M39.406 66.219q-10.75 0-17.078-8.016-6.312-8-6.312-21.828 0-13.766 6.312-21.781 6.328-8 17.078-8 10.735 0 17.016 8 6.281 8.015 6.281 21.781 0 13.828-6.281 21.828-6.281 8.016-17.016 8.016zm0 8q15.328 0 24.5-10.281 9.188-10.282 9.188-27.563 0-17.234-9.188-27.516-9.172-10.28-24.5-10.28-15.375 0-24.593 10.25-9.204 10.265-9.204 27.546t9.204 27.563q9.218 10.28 24.593 10.28z" id="DejaVuSans-79"/><path d="M48.781 52.594v-8.407q-3.812 2.11-7.64 3.157-3.828 1.047-7.735 1.047-8.75 0-13.593-5.547-4.829-5.532-4.829-15.547 0-10.016 4.829-15.563 4.843-5.53 13.593-5.53 3.907 0 7.735 1.046 3.828 1.047 7.64 3.156V2.094Q45.016.344 40.984-.531q-4.015-.89-8.562-.89-12.36 0-19.64 7.765-7.266 7.765-7.266 20.953 0 13.375 7.343 21.031Q20.22 56 33.016 56q4.14 0 8.093-.86 3.953-.843 7.672-2.546z" id="DejaVuSans-99"/><path d="M18.313 70.219V54.688h18.5v-6.985h-18.5V18.016q0-6.688 1.828-8.594 1.828-1.906 7.453-1.906h9.218V0h-9.218q-10.407 0-14.36 3.875-3.953 3.89-3.953 14.14v29.688H2.687v6.984h6.594V70.22z" id="DejaVuSans-116"/></defs><use xlink:href="#DejaVuSans-79"/><use x="78.711" xlink:href="#DejaVuSans-99"/><use x="133.691" xlink:href="#DejaVuSans-116"/></g></g><g id="xtick_5"><g style="fill:#696969" transform="matrix(.16 0 0 -.16 450.632 598.378)" id="text_5"><use xlink:href="#DejaVuSans-74"/><use x="29.492" xlink:href="#DejaVuSans-97"/><use x="90.771" xlink:href="#DejaVuSans-110"/></g></g><g id="xtick_6"><g style="fill:#696969" transform="matrix(.16 0 0 -.16 530.539 598.378)" id="text_6"><use xlink:href="#DejaVuSans-65"/><use x="68.408" xlink:href="#DejaVuSans-112"/><use x="131.885" xlink:href="#DejaVuSans-114"/></g></g><g id="xtick_7"><g style="fill:#696969" transform="matrix(.16 0 0 -.16 617.045 598.378)" id="text_7"><use xlink:href="#DejaVuSans-74"/><use x="29.492" xlink:href="#DejaVuSans-117"/><use x="92.871" xlink:href="#DejaVuSans-108"/></g></g><g id="xtick_8"><g style="fill:#696969" transform="matrix(.16 0 0 -.16 696.089 598.378)" id="text_8"><use xlink:href="#DejaVuSans-79"/><use x="78.711" xlink:href="#DejaVuSans-99"/><use x="133.691" xlink:href="#DejaVuSans-116"/></g></g><g id="xtick_9"><g style="fill:#696969" transform="matrix(.16 0 0 -.16 780.812 598.378)" id="text_9"><use xlink:href="#DejaVuSans-74"/><use x="29.492" xlink:href="#DejaVuSans-97"/><use x="90.771" xlink:href="#DejaVuSans-110"/></g></g></g><g id="matplotlib.axis_2"><g id="ytick_1"><g style="fill:#696969" transform="matrix(.16 0 0 -.16 73.733 514.388)" id="text_10"><defs><path d="M10.594 35.5h62.593v-8.297H10.594z" id="DejaVuSans-8722"/><path d="M12.406 8.297h16.11v55.625l-17.532-3.516v8.985l17.438 3.515h9.86V8.296H54.39V0H12.406z" id="DejaVuSans-49"/><path d="M31.781 66.406q-7.61 0-11.453-7.5Q16.5 51.422 16.5 36.375q0-14.984 3.828-22.484 3.844-7.5 11.453-7.5 7.672 0 11.5 7.5 3.844 7.5 3.844 22.484 0 15.047-3.844 22.531-3.828 7.5-11.5 7.5zm0 7.813q12.266 0 18.735-9.703 6.468-9.688 6.468-28.141 0-18.406-6.468-28.11-6.47-9.687-18.735-9.687-12.25 0-18.718 9.688-6.47 9.703-6.47 28.109 0 18.453 6.47 28.14Q19.53 74.22 31.78 74.22z" id="DejaVuSans-48"/></defs><use xlink:href="#DejaVuSans-8722"/><use x="83.789" xlink:href="#DejaVuSans-49"/><use x="147.412" xlink:href="#DejaVuSans-48"/></g></g><g id="ytick_2"><g style="fill:#696969" transform="matrix(.16 0 0 -.16 83.912 443.312)" id="text_11"><defs><path d="M10.797 72.906h38.719v-8.312H19.828v-17.86q2.14.735 4.281 1.094 2.157.36 4.313.36 12.203 0 19.328-6.688 7.14-6.688 7.14-18.11 0-11.765-7.328-18.296-7.328-6.516-20.656-6.516-4.593 0-9.36.781-4.75.782-9.827 2.344v9.922q4.39-2.39 9.078-3.563 4.687-1.171 9.906-1.171 8.453 0 13.375 4.437 4.938 4.438 4.938 12.063 0 7.609-4.938 12.047-4.922 4.453-13.375 4.453-3.953 0-7.89-.875-3.922-.875-8.016-2.735z" id="DejaVuSans-53"/></defs><use xlink:href="#DejaVuSans-8722"/><use x="83.789" xlink:href="#DejaVuSans-53"/></g></g><g id="ytick_3"><use xlink:href="#DejaVuSans-48" style="fill:#696969" transform="matrix(.16 0 0 -.16 97.32 372.235)" id="text_12"/></g><g id="ytick_4"><use xlink:href="#DejaVuSans-53" style="fill:#696969" transform="matrix(.16 0 0 -.16 97.32 301.159)" id="text_13"/></g><g id="ytick_5"><g style="fill:#696969" transform="matrix(.16 0 0 -.16 87.14 230.082)" id="text_14"><use xlink:href="#DejaVuSans-49"/><use x="63.623" xlink:href="#DejaVuSans-48"/></g></g><g id="ytick_6"><g style="fill:#696969" transform="matrix(.16 0 0 -.16 87.14 159.006)" id="text_15"><use xlink:href="#DejaVuSans-49"/><use x="63.623" xlink:href="#DejaVuSans-53"/></g></g><g id="ytick_7"><g style="fill:#696969" transform="matrix(.16 0 0 -.16 87.14 87.93)" id="text_16"><defs><path d="M19.188 8.297h34.421V0H7.33v8.297q5.609 5.812 15.296 15.594 9.703 9.797 12.188 12.64 4.734 5.313 6.609 9 1.89 3.688 1.89 7.25 0 5.813-4.078 9.469-4.078 3.672-10.625 3.672-4.64 0-9.797-1.61-5.14-1.609-11-4.89v9.969Q13.767 71.78 18.938 73q5.188 1.219 9.485 1.219 11.328 0 18.062-5.672 6.735-5.656 6.735-15.125 0-4.5-1.688-8.531-1.672-4.016-6.125-9.485-1.218-1.422-7.765-8.187-6.532-6.766-18.453-18.922z" id="DejaVuSans-50"/></defs><use xlink:href="#DejaVuSans-50"/><use x="63.623" xlink:href="#DejaVuSans-48"/></g></g><g style="fill:#696969" transform="matrix(0 -.2 -.2 0 65.573 445.117)" id="text_17"><defs><path d="M64.406 67.281v-10.39q-4.984 4.64-10.625 6.922-5.64 2.296-11.984 2.296-12.5 0-19.14-7.64-6.641-7.64-6.641-22.094 0-14.406 6.64-22.047 6.64-7.64 19.14-7.64 6.345 0 11.985 2.296 5.64 2.297 10.625 6.938V5.609Q59.234 2.094 53.437.33q-5.78-1.75-12.218-1.75-16.563 0-26.094 10.124-9.516 10.14-9.516 27.672 0 17.578 9.516 27.703 9.531 10.14 26.094 10.14 6.531 0 12.312-1.734 5.797-1.734 10.875-5.203z" id="DejaVuSans-67"/><path d="M44.281 53.078v-8.5q-3.797 1.953-7.906 2.922-4.094.984-8.5.984-6.688 0-10.031-2.047-3.344-2.046-3.344-6.156 0-3.125 2.39-4.906 2.391-1.781 9.626-3.39l3.078-.688q9.562-2.047 13.593-5.781 4.032-3.735 4.032-10.422 0-7.625-6.032-12.078-6.03-4.438-16.578-4.438-4.39 0-9.156.86Q10.688.296 5.422 2v9.281q4.984-2.594 9.812-3.89 4.829-1.282 9.579-1.282 6.343 0 9.75 2.172 3.421 2.172 3.421 6.125 0 3.656-2.468 5.61-2.453 1.953-10.813 3.765l-3.125.735q-8.344 1.75-12.062 5.39-3.704 3.64-3.704 9.985 0 7.718 5.47 11.906Q16.75 56 26.811 56q4.97 0 9.36-.734 4.406-.72 8.11-2.188z" id="DejaVuSans-115"/><path d="M56.203 29.594v-4.39H14.891q.593-9.282 5.593-14.142 5-4.859 13.938-4.859 5.172 0 10.031 1.266 4.86 1.265 9.656 3.812v-8.5Q49.266.734 44.187-.344 39.11-1.422 33.892-1.422q-13.094 0-20.735 7.61-7.64 7.625-7.64 20.625 0 13.421 7.25 21.296Q20.016 56 32.328 56q11.031 0 17.453-7.11 6.422-7.093 6.422-19.296zm-8.984 2.64q-.094 7.36-4.125 11.75-4.032 4.407-10.672 4.407-7.516 0-12.031-4.25-4.516-4.25-5.203-11.97z" id="DejaVuSans-101"/><path d="M44.39 34.188q3.172-1.079 6.172-4.594 3-3.516 6.032-9.672L66.609 0H56l-9.313 18.703q-3.624 7.328-7.015 9.719-3.39 2.39-9.25 2.39h-10.75V0h-9.86v72.906h22.266q12.5 0 18.656-5.234 6.157-5.219 6.157-15.766 0-6.89-3.203-11.437-3.204-4.532-9.297-6.282zM19.673 64.797V38.922h12.406q7.125 0 10.766 3.297 3.64 3.297 3.64 9.687 0 6.39-3.64 9.64-3.64 3.25-10.766 3.25z" id="DejaVuSans-82"/><path d="M8.594 75.984h20.703V69H17.578V-6.203h11.719v-6.984H8.594z" id="DejaVuSans-91"/><path d="M25.39 72.906h8.297L8.297-9.28H0z" id="DejaVuSans-47"/><path d="M45.406 46.39v29.594h8.985V0h-8.985v8.203Q42.578 3.328 38.25.953q-4.313-2.375-10.375-2.375-9.906 0-16.14 7.906-6.22 7.922-6.22 20.813 0 12.89 6.22 20.797Q17.968 56 27.874 56q6.063 0 10.375-2.375 4.328-2.36 7.156-7.234zm-30.61-19.093q0-9.906 4.079-15.547 4.078-5.64 11.203-5.64 7.125 0 11.219 5.64 4.11 5.64 4.11 15.547 0 9.906-4.11 15.547-4.094 5.64-11.219 5.64-7.125 0-11.203-5.64-4.078-5.64-4.078-15.547z" id="DejaVuSans-100"/><path d="M32.172-5.078q-3.797-9.766-7.422-12.735-3.61-2.984-9.656-2.984H7.906v7.516h5.282q3.703 0 5.75 1.765Q21-9.766 23.483-3.219l1.61 4.094-22.11 53.813H12.5l17.094-42.766 17.093 42.766h9.516z" id="DejaVuSans-121"/><path d="M30.422 75.984v-89.171H9.719v6.984H21.39V69H9.719v6.984z" id="DejaVuSans-93"/></defs><use xlink:href="#DejaVuSans-67"/><use x="69.824" xlink:href="#DejaVuSans-97"/><use x="131.104" xlink:href="#DejaVuSans-115"/><use x="183.203" xlink:href="#DejaVuSans-101"/><use x="244.727" xlink:href="#DejaVuSans-32"/><use x="276.514" xlink:href="#DejaVuSans-82"/><use x="343.746" xlink:href="#DejaVuSans-97"/><use x="405.025" xlink:href="#DejaVuSans-116"/><use x="444.234" xlink:href="#DejaVuSans-101"/><use x="505.758" xlink:href="#DejaVuSans-32"/><use x="537.545" xlink:href="#DejaVuSans-91"/><use x="576.559" xlink:href="#DejaVuSans-32"/><use x="608.346" xlink:href="#DejaVuSans-99"/><use x="663.326" xlink:href="#DejaVuSans-97"/><use x="724.605" xlink:href="#DejaVuSans-115"/><use x="776.705" xlink:href="#DejaVuSans-101"/><use x="838.229" xlink:href="#DejaVuSans-115"/><use x="890.328" xlink:href="#DejaVuSans-47"/><use x="924.02" xlink:href="#DejaVuSans-100"/><use x="987.496" xlink:href="#DejaVuSans-97"/><use x="1048.775" xlink:href="#DejaVuSans-121"/><use x="1107.955" xlink:href="#DejaVuSans-32"/><use x="1139.742" xlink:href="#DejaVuSans-93"/></g></g><g style="fill:#696969" transform="matrix(.24 0 0 -.24 238.224 71.76)" id="text_18"><defs><path d="M9.813 72.906h13.28l32.329-60.984v60.984h9.562V0h-13.28L19.39 60.984V0H9.813z" id="DejaVuSans-78"/><path d="M4.203 54.688h8.985l11.234-42.672 11.172 42.672h10.593l11.235-42.672 11.187 42.672h8.985L63.28 0H52.688L40.922 44.828 29.109 0H18.5z" id="DejaVuSans-119"/><path d="M8.203 72.906h46.875v-4.203L28.61 0H18.312L43.22 64.594H8.203z" id="DejaVuSans-55"/><path d="M2.984 54.688H12.5L29.594 8.797l17.093 45.89h9.516L35.687 0H23.485z" id="DejaVuSans-118"/><path d="M45.406 27.984q0 9.766-4.031 15.125-4.016 5.375-11.297 5.375-7.219 0-11.25-5.375-4.031-5.359-4.031-15.125 0-9.718 4.031-15.093t11.25-5.375q7.281 0 11.297 5.375 4.031 5.375 4.031 15.093zm8.985-21.203q0-13.953-6.203-20.765Q42-20.797 29.203-20.797q-4.734 0-8.937.703-4.203.703-8.157 2.172v8.735q3.954-2.141 7.813-3.157 3.86-1.031 7.86-1.031 8.843 0 13.234 4.61 4.39 4.609 4.39 13.937v4.453q-2.781-4.844-7.125-7.234Q33.938 0 27.875 0 17.828 0 11.672 7.656q-6.156 7.672-6.156 20.328 0 12.688 6.156 20.344Q17.828 56 27.875 56q6.063 0 10.406-2.39 4.344-2.391 7.125-7.22v8.297h8.985z" id="DejaVuSans-103"/><path d="M30.61 48.39q-7.22 0-11.422-5.64-4.204-5.64-4.204-15.453 0-9.813 4.172-15.453 4.188-5.64 11.453-5.64 7.188 0 11.375 5.655 4.203 5.672 4.203 15.438 0 9.719-4.203 15.406-4.187 5.688-11.375 5.688zm0 7.61q11.718 0 18.406-7.625 6.703-7.61 6.703-21.078 0-13.422-6.703-21.078-6.688-7.64-18.407-7.64-11.765 0-18.437 7.64-6.656 7.656-6.656 21.078 0 13.469 6.656 21.078Q18.844 56 30.609 56z" id="DejaVuSans-111"/><path d="M37.11 75.984V68.5h-8.594q-4.828 0-6.72-1.953-1.874-1.953-1.874-7.031v-4.828h14.797v-6.985H19.922V0H10.89v47.703H2.297v6.984h8.594V58.5q0 9.125 4.25 13.297 4.25 4.187 13.468 4.187z" id="DejaVuSans-102"/><path d="M37.797 64.313 12.89 25.39h24.906zm-2.594 8.593H47.61V25.391h10.407v-8.203H47.609V0h-9.812v17.188H4.89v9.515z" id="DejaVuSans-52"/><path d="M9.813 72.906h9.859V42.094L52.39 72.906h12.703L28.906 38.922 67.672 0H54.688L19.672 35.11V0h-9.86z" id="DejaVuSans-75"/></defs><use xlink:href="#DejaVuSans-78"/><use x="74.805" xlink:href="#DejaVuSans-101"/><use x="136.328" xlink:href="#DejaVuSans-119"/><use x="218.115" xlink:href="#DejaVuSans-32"/><use x="249.902" xlink:href="#DejaVuSans-67"/><use x="319.727" xlink:href="#DejaVuSans-97"/><use x="381.006" xlink:href="#DejaVuSans-115"/><use x="433.105" xlink:href="#DejaVuSans-101"/><use x="494.629" xlink:href="#DejaVuSans-115"/><use x="546.729" xlink:href="#DejaVuSans-32"/><use x="578.516" xlink:href="#DejaVuSans-55"/><use x="642.139" xlink:href="#DejaVuSans-100"/><use x="705.615" xlink:href="#DejaVuSans-32"/><use x="737.402" xlink:href="#DejaVuSans-97"/><use x="798.682" xlink:href="#DejaVuSans-118"/><use x="857.861" xlink:href="#DejaVuSans-103"/><use x="921.338" xlink:href="#DejaVuSans-32"/><use x="953.125" xlink:href="#DejaVuSans-115"/><use x="1005.225" xlink:href="#DejaVuSans-108"/><use x="1033.008" xlink:href="#DejaVuSans-111"/><use x="1094.189" xlink:href="#DejaVuSans-112"/><use x="1157.666" xlink:href="#DejaVuSans-101"/><use x="1219.189" xlink:href="#DejaVuSans-32"/><use x="1250.977" xlink:href="#DejaVuSans-111"/><use x="1312.158" xlink:href="#DejaVuSans-102"/><use x="1347.363" xlink:href="#DejaVuSans-32"/><use x="1379.15" xlink:href="#DejaVuSans-49"/><use x="1442.773" xlink:href="#DejaVuSans-52"/><use x="1506.396" xlink:href="#DejaVuSans-32"/><use x="1538.184" xlink:href="#DejaVuSans-97"/><use x="1599.463" xlink:href="#DejaVuSans-118"/><use x="1658.643" xlink:href="#DejaVuSans-103"/><use x="1722.119" xlink:href="#DejaVuSans-47"/><use x="1755.811" xlink:href="#DejaVuSans-49"/><use x="1819.434" xlink:href="#DejaVuSans-48"/><use x="1883.057" xlink:href="#DejaVuSans-48"/><use x="1946.68" xlink:href="#DejaVuSans-75"/></g><g id="legend_1"><path d="M128.2 184.5h136.45q3.2 0 3.2-3.2V88.96q0-3.2-3.2-3.2H128.2q-3.2 0-3.2 3.2v92.34q0 3.2 3.2 3.2z" style="fill:none;opacity:.8;stroke:#ccc;stroke-linejoin:miter" id="patch_5"/><path d="M131.4 98.718h32" style="fill:none;stroke:#000;stroke-linecap:round;stroke-width:1.5" id="line2d_6"/><g style="fill:#696969" transform="matrix(.16 0 0 -.16 176.2 104.317)" id="text_19"><defs><path d="M8.688 72.906h9.921V28.61q0-11.718 4.235-16.875 4.25-5.14 13.781-5.14 9.469 0 13.719 5.14 4.25 5.157 4.25 16.875v44.297H64.5V27.391q0-14.25-7.063-21.532-7.046-7.28-20.812-7.28-13.828 0-20.89 7.28-7.047 7.282-7.047 21.532z" id="DejaVuSans-85"/><path d="M53.516 70.516V60.89q-5.61 2.687-10.594 4-4.984 1.328-9.625 1.328-8.047 0-12.422-3.125t-4.375-8.89q0-4.845 2.906-7.313 2.907-2.453 11.016-3.97l5.953-1.218q11.031-2.11 16.281-7.406 5.25-5.297 5.25-14.172 0-10.61-7.11-16.078-7.093-5.469-20.812-5.469-5.172 0-11.015 1.172Q13.14.922 6.89 3.219v10.156q6-3.36 11.765-5.078 5.766-1.703 11.328-1.703 8.438 0 13.032 3.312 4.593 3.328 4.593 9.485 0 5.359-3.297 8.39-3.296 3.032-10.812 4.547L27.484 33.5q-11.03 2.188-15.968 6.875-4.922 4.688-4.922 13.047 0 9.672 6.812 15.234 6.813 5.563 18.766 5.563 5.14 0 10.453-.938 5.328-.922 10.89-2.765z" id="DejaVuSans-83"/></defs><use xlink:href="#DejaVuSans-85"/><use x="73.193" xlink:href="#DejaVuSans-83"/></g><path d="M131.4 122.203h32" style="fill:none;stroke:#009e73;stroke-linecap:round;stroke-width:1.5" id="line2d_8"/><g style="fill:#696969" transform="matrix(.16 0 0 -.16 176.2 127.802)" id="text_20"><use xlink:href="#DejaVuSans-78"/><use x="74.805" xlink:href="#DejaVuSans-74"/></g><path d="M131.4 145.688h32" style="fill:none;stroke:#d55e00;stroke-linecap:round;stroke-width:1.5" id="line2d_10"/><g style="fill:#696969" transform="matrix(.16 0 0 -.16 176.2 151.287)" id="text_21"><defs><path d="M19.672 34.813V8.108H35.5q7.953 0 11.781 3.297 3.844 3.297 3.844 10.078 0 6.844-3.844 10.078-3.828 3.25-11.781 3.25zm0 29.984V42.828h14.61q7.218 0 10.75 2.703 3.546 2.719 3.546 8.282 0 5.515-3.547 8.25-3.531 2.734-10.75 2.734zm-9.86 8.11h25.204q11.28 0 17.375-4.688Q58.5 63.53 58.5 54.89q0-6.703-3.125-10.657-3.125-3.953-9.188-4.922 7.282-1.562 11.313-6.53 4.031-4.954 4.031-12.376 0-9.765-6.64-15.093Q48.25 0 35.984 0H9.812z" id="DejaVuSans-66"/></defs><use xlink:href="#DejaVuSans-66"/><use x="68.604" xlink:href="#DejaVuSans-101"/><use x="130.127" xlink:href="#DejaVuSans-114"/><use x="169.49" xlink:href="#DejaVuSans-103"/><use x="232.967" xlink:href="#DejaVuSans-101"/><use x="294.49" xlink:href="#DejaVuSans-110"/></g><path d="M131.4 169.173h32" style="fill:none;stroke:#0072b2;stroke-linecap:round;stroke-width:1.5" id="line2d_12"/><g style="fill:#696969" transform="matrix(.16 0 0 -.16 176.2 174.773)" id="text_22"><defs><path d="M54.89 33.016V0h-8.984v32.719q0 7.765-3.031 11.61-3.031 3.858-9.078 3.858-7.281 0-11.484-4.64-4.204-4.625-4.204-12.64V0H9.08v75.984h9.03V46.188q3.235 4.937 7.594 7.374Q30.078 56 35.797 56q9.422 0 14.25-5.828 4.844-5.828 4.844-17.156z" id="DejaVuSans-104"/></defs><use xlink:href="#DejaVuSans-82"/><use x="64.982" xlink:href="#DejaVuSans-117"/><use x="128.361" xlink:href="#DejaVuSans-116"/><use x="167.57" xlink:href="#DejaVuSans-104"/><use x="230.949" xlink:href="#DejaVuSans-101"/><use x="292.473" xlink:href="#DejaVuSans-114"/><use x="333.586" xlink:href="#DejaVuSans-102"/><use x="368.791" xlink:href="#DejaVuSans-111"/><use x="429.973" xlink:href="#DejaVuSans-114"/><use x="469.336" xlink:href="#DejaVuSans-100"/></g></g></g></g><defs><clipPath id="pb51b645b9f"><path d="M117 77.76h725.4v498.96H117z"/></clipPath></defs></svg>