<svg height="864" viewBox="0 0 936 648" width="1248" xmlns="http://www.w3.org/2000/svg" xmlns:xlink="http://www.w3.org/1999/xlink"><defs><style>*{stroke-linecap:butt;stroke-linejoin:round}</style></defs><g id="figure_1"><path d="M0 648h936V0H0z" style="fill:#fff" id="patch_1"/><g id="axes_1"><path d="M117 576.72h725.4V77.76H117z" style="fill:none" id="patch_2"/><path clip-path="url(#pe49a24c8d2)" d="m149.973 554.039 34.406-.089 3.823-.17 2.867-.273.956-.222.956-.366 1.911-1.1.956-.778 1.911-1.88.956-1.326 1.911-3.076 3.823-7.549 1.912-4.624 1.911-5.096.956-1.574 1.912-3.723 2.867-4.705.955-.982.956-.795.956-.396 2.867-.662.956.074.956.618.955.026.956.325.956.444.955.276.956.085 1.912-.55.955.038 3.823.862.956-.227 1.912-.173.955.5.956.167 1.911.887 1.912 1.718 1.911 1.105.956.217.956.499.956.313.955.713 1.912 1.193.956.012.955.252.956.133 2.867.847.956.026.956-.136 2.867.945.956.156.955.024.956-.149 1.911.01 1.912.664.956-.452.955-.023 1.912.213.956.008.955-.379 1.912-.15.956-.179 1.911.303.956-.378 1.911-1.116.956-.196.956-.877.955-.715.956-1.13 2.867-4.46.956-1.846.956-1.564 2.867-5.832.956-2.242 1.911-4.961 3.823-6.66.956-2.072.956-1.725.955-2.093 1.912-3.385.955-2.034 1.912-3.28.956-1.856 1.911-2.417.956-1.614 1.911-2.19 1.912-1.881 1.911-1.047 1.912.55 1.911.374.956.621.956.17.955.518 2.868 3.283.955 1.476 2.867 3.356.956.528.956 1.107.956.9.955 1.153.956 1.372.956.886.956.561 1.911 1.717 2.867 2.997.956 1.118.956.941.955 1.489.956.624.956 1.307 1.911 1.605.956 1.19.956.565.956.803.955.096.956-.075.956.974.955-.034.956-.283 1.912.47.955 1.405.956.945.956 1.105.956.696.955-.093.956.508 1.912-.03.955.446.956-.629.956.1.955.297.956.04.956-.586.956-2.746 2.867-2.195.956-.646 1.911-.696.956-.043.955-.413.956-.258.956-.102 1.911-.983.956.12.956-.688.956-.505 1.911-2.087.956-.404 2.867-2.498.956-.986 2.867-4.943.956-.459.955-1.182.956-.279.956-1.634.956-1.035.955-1.728 1.912-4.91.956-1.377.955-2.455 1.912-3.874.955-2.333 4.78-13.603 1.91-8.302 3.823-17.92 2.868-18.378 1.911-14.423.956-5.623 1.911-13.07 2.868-18.105.955-4.241.956-3.446.956-4.533 1.911-6.99.956 5.592.956-2.244.955.703 1.912-.188.956-2.083 1.911-5.45 2.867-8.98.956-2.296 1.911-7.466.956-11.268.956-6.884.956-5.174.955-4.434.956-3.063.956-1.745.956-4.024 1.911-3.669.956 1.088.955-.736.956.277.956 1.666.956-.742.955 2.924.956 16.555.956-.86.956 2.962.955 1.095.956.196.956 1.464.955.616.956 9.582.956-9.007.956-2.016.955-4.638.956-3.077.956-2.6.956-8.005.955-18.423.956-3.232.956-5.182.956-3.439.955-2.668.956-.035.956-.784.955-8.537.956 8.244.956 2.92.956 10.206.955 4.431.956 6.498.956 8.283.956 10.068 1.911 14.992.956 6.43 1.911 14.094 2.867 20.003.956 5.19.956-.066 1.911 12.63 2.868 17.504.955 3.908.956 5.863.956 5.001 2.867 17.176 1.911 9.142.956 7.982 3.823 18.998 1.912 6.206.955 3.09.956 2.257.956 1.916.955 2.559 1.912 3.99.956 1.187.955-.131.956.636 1.912.742 1.911 2.347.956 1.393.955-3.23 2.868 4.379 1.911 2.514.956 1.19.956-.043.955.287 1.912 1.337.956.467.955.2.956.54.956 3.67.955-.079.956-2.001.956-.62 1.911-1.98.956-.602.956-1.251 1.911-1.54.956-1.542.956-.735.955-.895.956-.242.956-2.017.956-.482.955.628.956-1.046.956-.653 1.911-.693.956-.11.956-1.39.956-.721.955.323.956-.9.956.945.955-.421.956.583.956.088.956.977.955 1.31.956 1.641 1.912 2.644 2.867 6.543.956 1.485.955 1.829.956.84.956 1.085 1.911 3.723 3.823 6.4 1.912 2.031 1.911 3.427 1.911 3.381.956 1.448.956 1.192.956 1.911.955 1.207 1.912 3.135.956 1.704.955 1.415.956.754 3.823 4.14 1.911 3.36.956.855.956 2.186.956.488 1.911 2.035.956 4.887 1.911 1.463.956.57.956.797.955.25.956 1.102.956.48.956.302.955.06.956-.886.956.986.956.226.955.671.956-3.383 2.867.79.956.13.956.612 2.867.411.956.249.955-.04.956-.355.956-.144.956-4.865.955-.714.956.331.956.105.956 1.038 1.911-2.812.956-3.184.955-1.879 1.912-.223.956-1.829.955-2.512.956-2.035.956 2.668.956-2.93.955-.78.956-.563.956-5.032.955-3.23.956-2.726.956-1.5.956-4.4.955-1.275.956-.764 3.823-21.27.956-6.495.956-1.59.955-1.279.956-7.097.956-8.131.955-4.845.956-5.667.956-7.863 1.911-3.942.956-7.892.956-5.095.956-6.51.955-3.726.956-5.966 1.911-3.784.956-11.369.956.555.956-4.819 2.867-9.34.956-.415.955-8.062.956 1.096.956-1.416.956-4.522.955-.785.956-3.268.956.153.955-1.927.956-1.47.956-4.277.956-1.47.955.75.956 1.23.956-.355.956 17.44.955-13.916.956-1.222.956 1.585.955 1.807.956 1.044.956.24.956-.429.955.696.956 3.762.956 1.918.956 2.262.955-.196.956.412.956-12.095.956 15.78.955 3.383.956 3.937.956 3.347.955 2.059.956.49.956 8.322 3.823 14.831.956 2.209.955 1.301 1.912 6.162 1.911 4.057.956 2.496.956 1.315.955 1.032.956 6.555.956.163.956 2.024 1.911 5.02.956.985.956.34.955 4.67.956 1.376.956 3.626 1.911 4.525.956.692.956.548.955 1.67.956 2.227.956 1.107.956.257.955.907 1.912.682.956-.234.955.621.956.164.956-.105.955-.412.956-.195.956-.46.956-1.926.955.41.956-.417.956 1.99.956-3.746.955-2.948.956-.436.956-2.218.955-1.248 1.912-5.227.956-2.57 1.911-1.698.956-2.99.956-.903.955-1.92.956 3.111.956 7.175.956 3.385.955-.032.956-6.24.956-1.734.955-2.304.956-2.623.956-3.097.956-1.574.955-.295.956-3.554.956-1.957.956-2.687.955-8.541.956-10.467.956-2.458.955-1.143.956 1.238 2.867-1.979 1.912-3.17.956-3.494.955-9.72.956-6.956.956-8.724.956-13.047.955-1.753h0" style="fill:none;stroke:#000;stroke-linecap:round;stroke-width:1.5" id="line2d_1"/><path clip-path="url(#pe49a24c8d2)" d="m149.973 554.04 36.318-.099 2.867-.235 1.911-.579.956-.538.956-1.046.955-.542.956-1.498.956-1.963 1.911-5.968.956-2.449.956-8.407.955-6.568 1.912-15.373.956-10.806.955-6.704 2.868-36.01.955-12.907 1.912-18.592 1.911-16.314.956-3.801.956-5.492.955-4.306.956-4.895.956 1.758.956-7.426.955 4.609.956-3.243 1.912 8.281.955-1.703.956.272.956-.868.955-1.557.956-1.82.956 4.613.956.804.955.627.956 1.99.956 5.354.956-.688.955 6.47.956 2.084.956 1.451.956 2.91.955 6.744.956 4.282 1.911 15.534.956 1.321.956 5.778.956 7.044.955 2.51.956 6.371.956 5.42 1.911 8.792.956 4.575.956 6.07.956-.613.955 4.599.956-.304.956 2.29.955 1.948.956 4.245.956 1.352.956 1.618.955.43 1.912-.307.956.586 1.911 2.82.956 4.197.955 1.182.956 2.94.956 2.081.956 1.502.955-.586.956 2.654.956 2.061.956 1.27.955 1.07 1.912 4.763.956 1.1.955 1.91.956.856.956 1.035.955.838.956.198.956 1.42.956.747.955-.126.956.204.956-.068.956 1.335.955-5.75.956-.136.956.518.955-.113.956.45.956-.245.956.054 1.911-.078.956.16.956-.208 1.911.395.956-.32.956 6.564.955.102 1.912-.245.955-.456.956.006.956-.439.956.705.955 1.145.956.095.956 1.363.956.099.955-.09.956-.282.956-.037.955-.34 2.868-1.953.955-.306.956-.123.956.065.956-2.18.955-.362.956-1.199 1.912-.5h.955l.956-.45.956.334 1.911 1.042.956.65.956.134.955-.079.956-1.54 1.912.72.955 1.049.956-.164 1.912.14.955.933.956.239.956-.549.955.668.956.112.956.484.956.725.955 1.19.956.722.956-.242.956-.947.955-.126 1.912.04.955-.947.956-.541.956.695.956-.555.955-.365.956.085 1.912-.715 1.911-.736 1.912.03 1.911-.64.956-.65.955-.13 1.912-.947.956-.204.955-.508.956-.269.956-.477.956-.252.955-1.025.956-1.366.956-.767.955-.068.956-1.083.956-.153.956-.862.955-1.656.956-.59.956-.404.956-.692.955-.344.956-2.5.956-1.08.956-.389.955-.18.956.306.956-1.812.955-.787.956-1.216.956-.238.956.044 1.911-4.53.956-1.223.956-1.775.955.463.956-.613.956-3.56.956-1.288 1.911-4.79.956-2.49.955-1.972.956-3.972 1.912-3.055.955-.6.956-2.847.956-4.814.956-2.725.955-3.802.956-4.404 1.911-5.88.956-7.256.956-4.752.956-6.615.955-4.84 1.912-19.707.956-2.899.955-7.501.956-5.488.956-7.562 1.911-9.988.956-6.66.956-5.188.955-1.696 1.912-6.728.956-2.378.955 1.877.956 2.381.956-3.307.956-1.976.955-.848.956-2.082.956-6.939.955-2.231.956-7.024.956.061.956-4.091.955-1.376.956-2.204.956 1.516.956-8.305.955-1.073.956-5.478.956 2.18.956-4.762.955 1.833.956 6.019.956 3.86.955 2.912.956 1.335.956 2.974.956-1.179.955 1.418.956-4.804.956 7.634.956 6.248.955 6.997.956 1.052.956 3.349.955-2.865.956-5.467.956-4.497.956 5.127.955-163.242.956-5.658.956-3.553.956-9.453.955-6.68 1.912-22.953.956-8.833.955-3.165.956-10.764.956-6.8.955-2.943.956-1.662.956-4.994.956 160.919.955 5.576.956 1.407.956 8.281.956 9.61.955.896.956 1.274.956 4.067.956-.647.955 10.45.956 7.993.956 1.29.955 2.47.956 2.889.956 1.151.956 5.032.955 10.655.956 5.992.956-.095.956 8.986.955 3.202.956 5.39.956 4.084.955 1.498.956 3.714.956 7.678.956 5.167 1.911 14.274.956-1.646.956-6.125.955.045.956 4.026.956 5.56.956 7.838.955-.487.956 1.427.956 4.265.955.276.956-.467.956-1.288.956-.756.955-5.78.956 1.171.956 1.424.956.283.955-2.221.956-2.875.956-1.666.955 1.352.956-3.297.956-2.238.956-.814.955-1.182.956.913.956-3.134.956 1.09.955-1.458.956-2.116.956-4.357.956-2.364.955-4.043.956-2.446.956-2.875.955-2.306.956-1.094.956-.443.956-4.71.955-2.723.956-4.07.956-2.722.956-3.938.955 2.194.956-3.87.956-.467.955 1.581.956-1.918.956 1.09.956 3.717.955-.494.956-1.322.956 4.79 1.911 7.443.956 3.9.956 3.13.956.358.955 5.757.956.504.956 1.782 1.911 4.428.956 2.974.956 2.61.955 3.754.956 4.629.956 2.78.956 5.767.955 39.11.956 6.234.956 4.946.956 5.702 1.911 16.545.956 6.647.955 4.087.956 6.251.956 3.223 1.911 12.55.956 7.265.956 4.616.956-31.193 1.911 10.86.956 6.186.955 5.225 1.912 6.377.956 2.163.955 1.223.956 7.103.956 2.902 1.911 2 1.912.3.956.586.955.31 1.912.31.955 1.331.956.079.956.514.956 1.66.955.582.956.953.956 1.223.956.068.955.314.956-.361 1.911 1.38.956.177 1.912-.007.955.133.956-.116.956-.31.956-.034 1.911.238.956.511 1.911.45.956-.123.956-.286.955.238.956-.255.956.04 4.779.938.955-.15 1.912.17 1.911.45.956-.051 2.867-.62.956-.453.956-.232 1.911-1.056.956-.777.956-.627 1.911-2.299.956-.77.955-1.717 1.912-2.83 1.911-3.615 1.912-2.108.956-1.468 1.911-4.136 1.912-4.285 1.911-3.632.956-2.23.955-1.81.956-2.452.956-1.489.956-2.31.955-1.951.956-1.159 1.912-5.358 1.911-5.117.956-4.707.955-1.179.956-1.451 2.867-5.147.956-5.43.956-2.109.956-.957.955-2.6.956-.776.956-1.455.956-.68.955-2.549.956 2.146.956-1.962.955-.695.956-1.046.956-2.064.956-1.771.955 4.104.956-.306.956-.9.956-1.113.955 5.12.956-4.718.956-.532.955-.245.956-1.908.956.01.956-.125.955.306.956.027.956-1.417.956-2.176.955-1.278.956-.664.956 1.117.956-6.169.955 3.907.956-.143.956 1.458.955.886.956 2.51.956 1.315.956.511.955.947 1.912 4.538.956 2.343.955 1.55.956 1.285 1.912 3.46.955.638 1.912 2.633.955-1.1.956.698 1.912 1.693.955 2.347.956.988.956 1.645.956 1.9.955 1.633.956 1.396.956 2.541.955 2.034.956.555 1.912 4.545.955.037.956.576.956 1.557.956-1.114.955.262.956.756.956-1.086.956-.184.955.078.956-.654.956-.123.955 1.094.956-.896.956-.474.956.31.955.031.956-1.189.956.484.956-1.754.955-1.39 1.912-3.499.955-1.785.956-2.214 1.912-6.21.955-2.712 1.912-4.656.956-4.006.955-1.942.956-3.502 1.912-2.3.955-.571.956-2.995.956-5.15.955-4.224.956-6.776 1.912-15.121.955-6.452 1.912-9.388.956-6.984.955-9.422.956-11.306.956-8.877.955-6.721 1.912-7.44.956-6.135 1.911-19.4.956-11.003 1.911-27.099.956-15.479.956-26.052 1.911-88.51h0" style="fill:none;stroke:#009e73;stroke-linecap:round;stroke-width:1.5" id="line2d_2"/><path clip-path="url(#pe49a24c8d2)" d="m149.973 554.04 31.539-.097 2.867-.13 2.867-.325.956-.454.956-.033.955-.94.956-.747.956-1.558.956-5.29.955-1.429.956-.649.956-3.051.956-4.9.955-2.922.956-3.7.956-12.496 1.911-19.929.956-10.71.956-9.218.955-13.113.956-17.397.956-14.313.956-23.434.955-28.367.956-10.776 1.912-35.767.955-7.238.956-2.662.956-9.282 1.911-6.232.956.162.956 3.019.955 5.29.956 1.428.956 10.16.956 19.279.955-1.59 1.912 20.415.955.357.956 3.44.956 8.796.956 1.915.955 6.329 1.912 11.555.956 7.367.955 12.886.956 7.595.956 5.063 1.911 17.527.956 5.42 1.911 17.656.956 6.946.956 9.088.956 3.31.955 1.299.956 2.726.956 4.415.956 7.594 1.911 6.427.956 3.116.956-.033.955 3.733.956 2.077.956.779.955.974.956 2.596.956-.357 1.911.098.956-.033.956-6.653.956 1.622.955 2.045.956 1.753.956 2.207.955 1.038.956-1.525.956 1.071.956.487.955-.454.956 3.765.956 2.304.956.876.955-1.103.956 2.694.956 1.33.956-2.401.955 1.558h.956l.956-.714.955.519.956.357.956 1.2h.956l.955.195.956-.032.956.097.956 2.143.955-9.12.956-2.37.956 1.655.955-2.142.956.292 1.912.325.955-.195.956-1.298.956-.033.956-1.59.955-.098.956.357.956-.908.956 9.185.955 1.33.956-.291.956 1.785.955.032.956 1.039 1.912.324.955 1.364.956.551.956 2.013.956-.78.955.098 1.912.974.955.876 1.912-.65.956-1.103.955-1.46.956-.844.956.065.956-1.428.955-.292.956-.844.956.746.956-1.266.955.52 1.912.26.955-.877.956-.292 1.912 1.46.955.325.956-.649.956-1.883.956-1.298 1.911-3.213.956 1.006.956.844.955 2.467.956.13.956.746.955 1.071.956.162 1.912-.357.955.747.956 3.18.956.52 1.911 2.5.956-1.267.956-.844.955-2.564.956-.227.956 1.006.956-.746.955-.065.956.487.956.324.956-.13.955-.357.956 1.169.956.195.956.454.955 1.98.956-.162.956-.78.955-.13.956-.746.956.325.956-.033.955-.843.956.13.956-.195.956.13.955-.715.956-.389.956-.13.955-.974.956-.13.956-.389.956-.714.955-1.071.956-.617.956-.357.956.033.955-.812.956-1.785 1.912-2.888.955-.747.956-.487.956-2.207 1.911-2.207.956-.65.956-.356.955-1.85.956-2.175.956-1.525.956-2.337.955-.747.956-.486.956-2.37.956-1.72.955-2.37.956-1.46.956-.876.955-1.071.956-4.35 1.912-3.96.955-1.427.956-2.435.956-3.018.956.032.955-4.057.956-5.94.956-2.953.955-.487.956-4.998.956-7.206.956-8.795.955-4.642 1.912-16.098.956-1.136 1.911-13.795.956-10.938.956-4.154.955-3.538.956-6.296.956-8.374.955-1.136.956-.584.956-.26.956-6.362.955 5.745 1.912-6.491.956-2.11.955.747.956-1.883.956-8.893.955-2.24.956-4.511.956 1.947.956-1.266.955 1.818.956-.26.956 8.504.956-10.354.955 4.285.956-3.506.956 3.863.956-.844.955 4.317.956 7.173 1.911 10.873.956 2.694.956 1.233.956-5.972.955-1.169.956-4.966.956 7.498 1.911 9.218.956.811.956.422.955-5.485 1.912-5.193.956 2.207.955-141.902.956-9.607.956-4.9.956-6.525.955-7.79 1.912-19.311.956-3.7.955-1.233.956-10.744.956-6.88 1.911-7.109.956-5.842.956 140.928.955 4.836.956 1.33.956 4.934.956 10.419.955-2.24.956 1.59.956.747.956-3.505 1.911 15.936.956 3.7.955.714.956 2.045.956-2.434.956 5.874.955 11.393.956 3.278.956-4.804.956 5.81.955 1.72.956 2.857.956 4.576.955 1.233.956 3.798.956 2.888.956 3.408.955 5.258.956 6.784.956-6.719.956-5.03.955 1.395.956 6.427.956 4.251.956 6.524 1.911-6.653.956 2.272.955-2.727.956-4.674.956-.486.956.26.955-11.555.956 3.408.956-4.187.956-.52.955-5.095.956 4.316.956-3.375.955 3.18.956-3.375.956-.909.956-.746.955 2.337.956 1.168.956-4.414.956 5.583.955-2.5.956.293.956-2.922.956-2.531.955-9.997.956-.974.956-3.148.955.065.956-1.33.956 4.51.956-9.444.955-5.68.956-4.934.956-1.265.956-1.948.955-2.37.956-2.012.956.52.955.292.956-.227.956.714.956 5.03.955-2.466.956-1.526.956 11.133 1.911 13.113.956 3.992 1.912 13.145.955 5.453 1.912 8.503.955 4.642.956 5.323.956 3.57.956 6.653.955 3.344.956 5.225.956 3.116.956 5.583.955 7.854.956 4.706.956 5.94.956 4.317 1.911 15.611.956 4.772.955 2.856.956 5.096.956-31.581.956-3.148.955 5.063.956 6.2.956 2.888.956-1.071.955 4.414.956 3.278.956 5.972.955 2.954.956 1.363.956.941.956 1.428.955 2.013.956 40.7.956 12.27.956.486.955 1.98.956 1.039 1.912.486.955 1.461.956.422.956 1.363.955 2.305.956 1.2.956.877.956.616.955.78.956.389.956 1.298.956-.422.955.227.956.455.956.941.955.617.956.26 1.912-.13.955-.422.956-.098.956-.681 1.911-.39h.956l.956.877 1.911.421.956-.389 1.911-1.136.956.227.956-.162.956.065.955.26.956.064.956-.551.956-.422.955-.033.956-.324.956.357.956.032 2.867 1.623 1.911.195.956-.292.956-.033 1.911-.454.956-.455.956-.714 1.911-1.72.956-.682 1.911-2.142.956-1.882.956-2.532.955-2.11.956-1.07.956-1.883.956-1.233.955-1.72.956-2.467 1.912-4.09.955-2.337.956-1.785.956-2.629.955-1.655 1.912-2.337 1.911-1.623.956.325.956-3.603.956-1.753.955-2.37.956-.94.956-3.408.955 3.115.956-.324 1.912-4.869.955-.843.956-4.577.956-2.175.956-1.59.955-2.175.956.974.956-1.59.956.52.955-2.533.956.487.956-4.998.955-.941.956.909.956.032.956-1.396.955 4.739.956-.682.956-.227.956-.973.955 3.992.956-2.564.956-.714.955-.422.956-.065.956.324.956.52.955-1.007.956-.097.956-.714.956-1.59.955-.195.956-.65.956 1.202.956-3.278.955 2.401.956.065.956-.097.955.681.956.26.956-.552.956 2.272.955-.097 1.912.422.956 1.2.955 2.435.956.714.956.227 1.911 2.76.956 3.375.956 1.395.955.682.956 2.272.956.39.956 1.233.955 2.24.956 1.72.956.162.956 1.136.955.714 2.867 7.335.956-.26 1.912 3.96.955-1.72.956-.39.956 1.234.956-.292.955-.747.956 1.655.956-.389.956.26.955-.714.956-1.299.956-.292.955.941.956-.486.956-.13.956 1.298.955 1.104 2.868 1.265.955-.39.956-2.758.956-1.266 2.867-8.081.956-2.694 1.911-5.972.956-1.364.956-4.122.955-2.272.956-2.758 1.912-3.311.955.065.956-1.623.956-3.538.955-2.499 1.912-9.088.956-3.765.955-2.532 2.868-15.124 1.911-16.748 1.911-12.366.956-4.025.956-2.596.956-9.316.955-10.84.956-12.82 1.912-32.003.955-11.133.956-16.845.956-33.658.956-45.602.955-57.124h0" style="fill:none;stroke:#d55e00;stroke-linecap:round;stroke-width:1.5" id="line2d_3"/><path clip-path="url(#pe49a24c8d2)" d="M149.973 554.04h42.052l.956-3.306h1.911l.956-1.653h.956l1.911-9.919.956-9.918.955-1.653.956-4.96.956-3.306.956-8.265.955-13.225.956-11.571h.956l.956-9.919.955-26.45.956-16.53.956-4.96.956-3.305h.955l.956-6.613.956-9.918.955 1.653.956 3.306.956-1.653.956 6.612.955 4.96.956-4.96.956 1.653.956 21.49.955 18.184.956-3.306.956 3.306.955-3.306.956 8.266h2.867l.956 1.653.956 6.612 2.867 9.918h1.912l.955 8.266.956 4.96 1.911 16.53.956 9.918.956 3.307h.956l.955 1.653.956-6.613.956 1.653 1.911 6.613.956 4.959h1.912l.955-1.653h1.912l.955 1.653h1.912l.956 6.612.955 4.96 1.912 3.306.956-1.653h1.911l.956-4.96h7.646l.955-1.653h.956l.956 1.653h1.911l.956 4.96h5.734l.956-3.306.956 1.653h.956l.955-1.653h2.867l.956-6.613.956 1.653.956-1.653h3.823l.955-6.612.956-1.653.956 1.653h.956l.955-1.653h1.912l.955 3.306.956-1.653.956 1.653h3.823l.956 9.918.955-3.306.956-1.653h.956l.955 3.306h1.912l1.911 3.307h.956l.956-1.654h2.867l.956-1.653.956 4.96h.955l.956 1.653h2.867l.956 1.653h.956l.955-1.653.956 1.653.956-1.653h3.823l.956 1.653 1.911-3.306h2.867l.956-3.307h.956l.955-1.653.956 1.653h3.823l.956-6.612 1.911 3.306h2.867l.956-1.653 1.912 3.306h4.778l.956 3.307.956-1.654h2.867l.956-4.959.955 4.96.956-1.654h3.823l.956 1.653h.955l.956 3.307.956 1.653h2.867l.956 1.653.956-1.653.955-6.613.956-14.877.956-3.307h1.911l.956-3.306.956-9.918.955-1.653 1.912-16.531 1.911-9.919h.956l1.912 3.307.955 14.877.956 3.306h1.912l.955-6.612.956 3.306.956-6.612h1.911l1.912 9.918.955-16.53.956-1.653 1.912-9.919.955-8.265h1.912l.955-21.49h.956l.956 8.265.956-19.837.955-3.306h1.912l.956-6.612.955-18.184 1.912-16.531.956-14.878.955-8.265h.956l.956 8.265.955-6.612.956-9.919.956 28.103.956 11.571.955-33.061h.956l.956 3.306.956 8.265.955 1.653.956-13.224.956-16.531.955-9.919h.956l.956 4.96.956-6.613.955 1.653.956-29.755.956-14.878.956 33.062h1.911l.956-3.306.956 6.612.955 26.45.956 11.57.956 18.185h.955l.956-26.45.956 8.266.956-36.368.955 21.49.956 14.878h1.912l.955-26.45.956 6.613 1.911-38.021.956 28.102h1.912l.955-9.918.956-18.184.956 21.49.956-16.53.955-19.838.956-16.53h.956l.956 13.224.955-9.918.956 6.612.956 1.653.955-16.53h1.912l.956 54.55.955-4.958.956 6.612.956 18.184 1.911 31.408h.956l.956-14.877.956 11.571.955 14.878.956 6.612.956-9.918.955-8.266h1.912l.956 34.715.955-26.45 1.912-13.224h1.911l.956 24.796.956-4.959.955 1.653h.956l.956 18.184.956-3.306h1.911l.956-23.143.956 34.714.955 8.266.956 3.306h.956l.956-11.572.955 19.837 1.912 3.307.955-11.572.956-6.612.956 11.571h.956l.955-26.449.956 6.612.956-1.653h.956l.955-14.877h.956l.956 11.571.955-16.53.956 3.305.956-6.612.956-1.653.955 6.612h1.912L538 387.08l.955 4.959.956-3.306h.956l.956 14.878h1.911l.956-16.531.955-3.306.956 1.653.956 9.918.956-3.306h.955l.956-14.878.956 19.837.956-1.653.955 8.266.956-24.797.956-6.612h1.911l.956 11.572.956-3.307 1.911-1.653v-1.653l.956 3.306.956-1.653.955 14.878.956 1.653.956 4.96.956-3.307.955 9.919.956 6.612.956-8.265h.955l.956 23.143.956 11.571 1.911 6.613h.956l.956 1.653h.956l.955 6.612 1.912 6.612.956 13.225.955-6.612.956 6.612h.956l.955 1.653h1.912l.956 8.266.955 4.959h1.912l.956 3.306.955 4.96.956 3.305.956 6.613.955 14.877.956 1.654h.956l.956 3.306.955 1.653.956 9.918.956 1.653.956 3.307h1.911l.956 6.612h1.911l.956-3.306h4.779l.955-1.653.956 1.653h3.823l.956-4.96h.955l.956 3.307h4.779l.956 1.653h4.778l.956 4.959.956 1.653h.955l.956-6.612h4.779l.956-1.653h5.734l.956-1.653.955 4.959h3.823l1.912-3.306h5.734l.956-1.653.956-8.266h1.911l.956-34.715.956-3.306h.955l1.912-16.53h1.911l.956-11.572.956-4.96.955-1.652h.956l.956 8.265h1.911l.956 18.184.956-1.653.956-8.266.955 1.653.956 4.96h1.911l.956-4.96.956 1.653h.956l.955-3.306.956 1.653h1.912l.955 13.225.956-1.653.956 6.612.956 1.653.955 3.307h1.912l.955 4.959.956-8.266.956-9.918.956 3.306.955-8.265h1.912l.956 3.306.955-13.225.956-6.612.956 8.265.955-8.265h1.912l.956-3.306.955 6.612.956 4.96.956-9.92.956 1.654h1.911l.956-21.49.956 18.184.955 1.653.956-8.266.956 3.307h1.911l.956 8.265h1.911l.956 6.612h2.867l.956 14.878 1.912-3.306.955 8.265.956-13.224h1.911l.956 6.612.956-4.96 2.867 9.92h1.912l.955-6.613.956-1.653.956 8.265.955-6.612.956 14.878h1.912l.955-3.307.956 8.266.956 3.306h.956l.955 1.653h2.868l.955-1.653.956 1.653.956 6.612h2.867l.956-4.959.955-1.653.956-14.878.956 3.306.956-9.918h1.911l.956 3.306h.955l.956-3.306.956-4.96.956-1.652h1.911l.956-16.531.956-4.96.955 3.307h.956l.956 11.571h1.911l.956-23.143.956-4.96h.955l.956-8.264.956-9.919h1.911l.956 3.306 1.912-16.53 1.911-33.062h1.911l.956 4.959.956-9.918 1.911-49.593.956 3.306.956-67.776.956-19.837.955-6.612.956-29.756.956-51.245.956-38.021.955 16.53h0" style="fill:none;stroke:#0072b2;stroke-linecap:round;stroke-width:1.5" id="line2d_4"/><path clip-path="url(#pe49a24c8d2)" d="M117 551.014h725.4" style="fill:none;stroke:green;stroke-dasharray:1.5,2.475;stroke-dashoffset:0;stroke-width:1.5" id="line2d_5"/><path clip-path="url(#pe49a24c8d2)" d="M117 538.912h725.4" style="fill:none;stroke:orange;stroke-dasharray:1.5,2.475;stroke-dashoffset:0;stroke-width:1.5" id="line2d_6"/><path clip-path="url(#pe49a24c8d2)" d="M117 523.784h725.4" style="fill:none;stroke:red;stroke-dasharray:1.5,2.475;stroke-dashoffset:0;stroke-width:1.5" id="line2d_7"/><path d="M117 576.72V77.76" style="fill:none;stroke:#d3d3d3;stroke-linecap:square;stroke-linejoin:miter;stroke-width:1.25" id="patch_3"/><path d="M117 576.72h725.4" style="fill:none;stroke:#d3d3d3;stroke-linecap:square;stroke-linejoin:miter;stroke-width:1.25" id="patch_4"/><g id="matplotlib.axis_1"><g id="xtick_1"><g style="fill:#696969" transform="matrix(.16 0 0 -.16 106.101 598.378)" id="text_1"><defs><path d="M9.813 72.906h9.859V5.078q0-13.187-5-19.14-5-5.954-16.094-5.954h-3.75v8.297h3.078q6.531 0 9.219 3.672Q9.813-4.39 9.813 5.078z" id="DejaVuSans-74"/><path d="M34.281 27.484q-10.89 0-15.093-2.484-4.204-2.484-4.204-8.5 0-4.781 3.157-7.594 3.156-2.797 8.562-2.797 7.485 0 12 5.297 4.516 5.297 4.516 14.078v2zm17.922 3.72V0H43.22v8.297Q40.14 3.328 35.547.953q-4.594-2.375-11.234-2.375-8.391 0-13.36 4.719Q6 8.016 6 15.922q0 9.219 6.172 13.906 6.187 4.688 18.437 4.688h12.61v.89q0 6.203-4.078 9.594-4.078 3.39-11.453 3.39-4.688 0-9.141-1.124-4.438-1.125-8.531-3.375v8.312q4.921 1.906 9.562 2.844 4.64.953 9.031.953 11.875 0 17.735-6.156 5.86-6.14 5.86-18.64z" id="DejaVuSans-97"/><path d="M54.89 33.016V0h-8.984v32.719q0 7.765-3.031 11.61-3.031 3.858-9.078 3.858-7.281 0-11.484-4.64-4.204-4.625-4.204-12.64V0H9.08v54.688h9.03v-8.5q3.235 4.937 7.594 7.374Q30.078 56 35.797 56q9.422 0 14.25-5.828 4.844-5.828 4.844-17.156z" id="DejaVuSans-110"/></defs><use xlink:href="#DejaVuSans-74"/><use x="29.492" xlink:href="#DejaVuSans-97"/><use x="90.771" xlink:href="#DejaVuSans-110"/></g></g><g id="xtick_2"><g style="fill:#696969" transform="matrix(.16 0 0 -.16 191.565 598.378)" id="text_2"><defs><path d="M34.188 63.188 20.797 26.906h26.812zm-5.579 9.718h11.188L67.578 0h-10.25l-6.64 18.703h-32.86L11.188 0H.78z" id="DejaVuSans-65"/><path d="M18.11 8.203v-29H9.077v75.484h9.031v-8.296q2.844 4.875 7.157 7.234Q29.594 56 35.594 56q9.968 0 16.187-7.906 6.235-7.907 6.235-20.797T51.78 6.484q-6.218-7.906-16.187-7.906-6 0-10.328 2.375-4.313 2.375-7.157 7.25zm30.578 19.094q0 9.906-4.079 15.547-4.078 5.64-11.203 5.64-7.14 0-11.218-5.64-4.079-5.64-4.079-15.547 0-9.906 4.078-15.547 4.079-5.64 11.22-5.64 7.124 0 11.202 5.64t4.078 15.547z" id="DejaVuSans-112"/><path d="M41.11 46.297q-1.516.875-3.297 1.281Q36.03 48 33.89 48q-7.625 0-11.703-4.953-4.079-4.953-4.079-14.234V0H9.08v54.688h9.03v-8.5q2.844 4.984 7.375 7.39Q30.031 56 36.531 56q.922 0 2.047-.125 1.125-.11 2.484-.36z" id="DejaVuSans-114"/></defs><use xlink:href="#DejaVuSans-65"/><use x="68.408" xlink:href="#DejaVuSans-112"/><use x="131.885" xlink:href="#DejaVuSans-114"/></g></g><g id="xtick_3"><g style="fill:#696969" transform="matrix(.16 0 0 -.16 282.724 598.378)" id="text_3"><defs><path d="M8.5 21.578v33.11h8.984V21.922q0-7.766 3.016-11.656 3.031-3.875 9.094-3.875 7.265 0 11.484 4.64 4.234 4.64 4.234 12.656v31h8.985V0h-8.984v8.406Q42.047 3.422 37.718 1q-4.313-2.422-10.032-2.422-9.421 0-14.312 5.86Q8.5 10.296 8.5 21.578zM31.11 56z" id="DejaVuSans-117"/><path d="M9.422 75.984h8.984V0H9.422z" id="DejaVuSans-108"/></defs><use xlink:href="#DejaVuSans-74"/><use x="29.492" xlink:href="#DejaVuSans-117"/><use x="92.871" xlink:href="#DejaVuSans-108"/></g></g><g id="xtick_4"><g style="fill:#696969" transform="matrix(.16 0 0 -.16 366.471 598.378)" id="text_4"><defs><path d="M39.406 66.219q-10.75 0-17.078-8.016-6.312-8-6.312-21.828 0-13.766 6.312-21.781 6.328-8 17.078-8 10.735 0 17.016 8 6.281 8.015 6.281 21.781 0 13.828-6.281 21.828-6.281 8.016-17.016 8.016zm0 8q15.328 0 24.5-10.281 9.188-10.282 9.188-27.563 0-17.234-9.188-27.516-9.172-10.28-24.5-10.28-15.375 0-24.593 10.25-9.204 10.265-9.204 27.546t9.204 27.563q9.218 10.28 24.593 10.28z" id="DejaVuSans-79"/><path d="M48.781 52.594v-8.407q-3.812 2.11-7.64 3.157-3.828 1.047-7.735 1.047-8.75 0-13.593-5.547-4.829-5.532-4.829-15.547 0-10.016 4.829-15.563 4.843-5.53 13.593-5.53 3.907 0 7.735 1.046 3.828 1.047 7.64 3.156V2.094Q45.016.344 40.984-.531q-4.015-.89-8.562-.89-12.36 0-19.64 7.765-7.266 7.765-7.266 20.953 0 13.375 7.343 21.031Q20.22 56 33.016 56q4.14 0 8.093-.86 3.953-.843 7.672-2.546z" id="DejaVuSans-99"/><path d="M18.313 70.219V54.688h18.5v-6.985h-18.5V18.016q0-6.688 1.828-8.594 1.828-1.906 7.453-1.906h9.218V0h-9.218q-10.407 0-14.36 3.875-3.953 3.89-3.953 14.14v29.688H2.687v6.984h6.594V70.22z" id="DejaVuSans-116"/></defs><use xlink:href="#DejaVuSans-79"/><use x="78.711" xlink:href="#DejaVuSans-99"/><use x="133.691" xlink:href="#DejaVuSans-116"/></g></g><g id="xtick_5"><g style="fill:#696969" transform="matrix(.16 0 0 -.16 455.899 598.378)" id="text_5"><use xlink:href="#DejaVuSans-74"/><use x="29.492" xlink:href="#DejaVuSans-97"/><use x="90.771" xlink:href="#DejaVuSans-110"/></g></g><g id="xtick_6"><g style="fill:#696969" transform="matrix(.16 0 0 -.16 540.407 598.378)" id="text_6"><use xlink:href="#DejaVuSans-65"/><use x="68.408" xlink:href="#DejaVuSans-112"/><use x="131.885" xlink:href="#DejaVuSans-114"/></g></g><g id="xtick_7"><g style="fill:#696969" transform="matrix(.16 0 0 -.16 631.566 598.378)" id="text_7"><use xlink:href="#DejaVuSans-74"/><use x="29.492" xlink:href="#DejaVuSans-117"/><use x="92.871" xlink:href="#DejaVuSans-108"/></g></g><g id="xtick_8"><g style="fill:#696969" transform="matrix(.16 0 0 -.16 715.313 598.378)" id="text_8"><use xlink:href="#DejaVuSans-79"/><use x="78.711" xlink:href="#DejaVuSans-99"/><use x="133.691" xlink:href="#DejaVuSans-116"/></g></g><g id="xtick_9"><g style="fill:#696969" transform="matrix(.16 0 0 -.16 804.74 598.378)" id="text_9"><use xlink:href="#DejaVuSans-74"/><use x="29.492" xlink:href="#DejaVuSans-97"/><use x="90.771" xlink:href="#DejaVuSans-110"/></g></g></g><g id="matplotlib.axis_2"><g id="ytick_1"><g style="fill:#696969" transform="matrix(.16 0 0 -.16 97.32 560.119)" id="text_10"><defs><path d="M31.781 66.406q-7.61 0-11.453-7.5Q16.5 51.422 16.5 36.375q0-14.984 3.828-22.484 3.844-7.5 11.453-7.5 7.672 0 11.5 7.5 3.844 7.5 3.844 22.484 0 15.047-3.844 22.531-3.828 7.5-11.5 7.5zm0 7.813q12.266 0 18.735-9.703 6.468-9.688 6.468-28.141 0-18.406-6.468-28.11-6.47-9.687-18.735-9.687-12.25 0-18.718 9.688-6.47 9.703-6.47 28.109 0 18.453 6.47 28.14Q19.53 74.22 31.78 74.22z" id="DejaVuSans-48"/></defs><use xlink:href="#DejaVuSans-48"/></g></g><g id="ytick_2"><g style="fill:#696969" transform="matrix(.16 0 0 -.16 76.96 499.606)" id="text_11"><defs><path d="M19.188 8.297h34.421V0H7.33v8.297q5.609 5.812 15.296 15.594 9.703 9.797 12.188 12.64 4.734 5.313 6.609 9 1.89 3.688 1.89 7.25 0 5.813-4.078 9.469-4.078 3.672-10.625 3.672-4.64 0-9.797-1.61-5.14-1.609-11-4.89v9.969Q13.767 71.78 18.938 73q5.188 1.219 9.485 1.219 11.328 0 18.062-5.672 6.735-5.656 6.735-15.125 0-4.5-1.688-8.531-1.672-4.016-6.125-9.485-1.218-1.422-7.765-8.187-6.532-6.766-18.453-18.922z" id="DejaVuSans-50"/></defs><use xlink:href="#DejaVuSans-50"/><use x="63.623" xlink:href="#DejaVuSans-48"/><use x="127.246" xlink:href="#DejaVuSans-48"/></g></g><g id="ytick_3"><g style="fill:#696969" transform="matrix(.16 0 0 -.16 76.96 439.093)" id="text_12"><defs><path d="M37.797 64.313 12.89 25.39h24.906zm-2.594 8.593H47.61V25.391h10.407v-8.203H47.609V0h-9.812v17.188H4.89v9.515z" id="DejaVuSans-52"/></defs><use xlink:href="#DejaVuSans-52"/><use x="63.623" xlink:href="#DejaVuSans-48"/><use x="127.246" xlink:href="#DejaVuSans-48"/></g></g><g id="ytick_4"><g style="fill:#696969" transform="matrix(.16 0 0 -.16 76.96 378.58)" id="text_13"><defs><path d="M33.016 40.375q-6.641 0-10.532-4.547-3.875-4.531-3.875-12.437 0-7.86 3.875-12.438 3.891-4.562 10.532-4.562 6.64 0 10.515 4.562 3.875 4.578 3.875 12.438 0 7.906-3.875 12.437-3.875 4.547-10.515 4.547zm19.578 30.922v-8.984q-3.719 1.75-7.5 2.671-3.782.938-7.5.938-9.766 0-14.922-6.594-5.14-6.594-5.875-19.922 2.875 4.25 7.219 6.516 4.359 2.266 9.578 2.266 10.984 0 17.36-6.672 6.374-6.657 6.374-18.125 0-11.235-6.64-18.032-6.641-6.78-17.672-6.78-12.657 0-19.344 9.687-6.688 9.703-6.688 28.109 0 17.281 8.204 27.563 8.203 10.28 22.015 10.28 3.719 0 7.5-.734t7.89-2.187z" id="DejaVuSans-54"/></defs><use xlink:href="#DejaVuSans-54"/><use x="63.623" xlink:href="#DejaVuSans-48"/><use x="127.246" xlink:href="#DejaVuSans-48"/></g></g><g id="ytick_5"><g style="fill:#696969" transform="matrix(.16 0 0 -.16 76.96 318.068)" id="text_14"><defs><path d="M31.781 34.625q-7.031 0-11.062-3.766-4.016-3.765-4.016-10.343 0-6.594 4.016-10.36Q24.75 6.391 31.78 6.391q7.032 0 11.078 3.78 4.063 3.798 4.063 10.345 0 6.578-4.031 10.343-4.016 3.766-11.11 3.766zm-9.86 4.188q-6.343 1.562-9.89 5.906Q8.5 49.079 8.5 55.329q0 8.733 6.219 13.812 6.234 5.078 17.062 5.078 10.89 0 17.094-5.078 6.203-5.079 6.203-13.813 0-6.25-3.547-10.61-3.531-4.343-9.828-5.906 7.125-1.656 11.094-6.5 3.984-4.828 3.984-11.796 0-10.61-6.468-16.282-6.47-5.656-18.532-5.656-12.047 0-18.531 5.656-6.469 5.672-6.469 16.282 0 6.968 4 11.797 4.016 4.843 11.14 6.5zM18.314 54.39q0-5.657 3.53-8.828 3.548-3.172 9.938-3.172 6.36 0 9.938 3.172 3.593 3.171 3.593 8.828 0 5.672-3.593 8.843-3.578 3.172-9.938 3.172-6.39 0-9.937-3.172-3.532-3.172-3.532-8.843z" id="DejaVuSans-56"/></defs><use xlink:href="#DejaVuSans-56"/><use x="63.623" xlink:href="#DejaVuSans-48"/><use x="127.246" xlink:href="#DejaVuSans-48"/></g></g><g id="ytick_6"><g style="fill:#696969" transform="matrix(.16 0 0 -.16 66.78 257.555)" id="text_15"><defs><path d="M12.406 8.297h16.11v55.625l-17.532-3.516v8.985l17.438 3.515h9.86V8.296H54.39V0H12.406z" id="DejaVuSans-49"/></defs><use xlink:href="#DejaVuSans-49"/><use x="63.623" xlink:href="#DejaVuSans-48"/><use x="127.246" xlink:href="#DejaVuSans-48"/><use x="190.869" xlink:href="#DejaVuSans-48"/></g></g><g id="ytick_7"><g style="fill:#696969" transform="matrix(.16 0 0 -.16 66.78 197.043)" id="text_16"><use xlink:href="#DejaVuSans-49"/><use x="63.623" xlink:href="#DejaVuSans-50"/><use x="127.246" xlink:href="#DejaVuSans-48"/><use x="190.869" xlink:href="#DejaVuSans-48"/></g></g><g id="ytick_8"><g style="fill:#696969" transform="matrix(.16 0 0 -.16 66.78 136.53)" id="text_17"><use xlink:href="#DejaVuSans-49"/><use x="63.623" xlink:href="#DejaVuSans-52"/><use x="127.246" xlink:href="#DejaVuSans-48"/><use x="190.869" xlink:href="#DejaVuSans-48"/></g></g><g style="fill:#696969" transform="matrix(0 -.2 -.2 0 58.62 379.813)" id="text_18"><defs><path d="M51.125 44H36.922l-4.11-16.313h14.313zm-7.328 27.781-5.078-20.265h14.265L58.11 71.78h7.813L60.89 51.516h15.234V44h-17.14l-4-16.313h15.53V20.22H53.079L48 0h-7.813l5.032 20.219H30.906L25.875 0h-7.86l5.079 20.219H7.719v7.468h17.187L29 44H13.281v7.516h17.625l4.985 20.265z" id="DejaVuSans-35"/><path d="M30.61 48.39q-7.22 0-11.422-5.64-4.204-5.64-4.204-15.453 0-9.813 4.172-15.453 4.188-5.64 11.453-5.64 7.188 0 11.375 5.655 4.203 5.672 4.203 15.438 0 9.719-4.203 15.406-4.187 5.688-11.375 5.688zm0 7.61q11.718 0 18.406-7.625 6.703-7.61 6.703-21.078 0-13.422-6.703-21.078-6.688-7.64-18.407-7.64-11.765 0-18.437 7.64-6.656 7.656-6.656 21.078 0 13.469 6.656 21.078Q18.844 56 30.609 56z" id="DejaVuSans-111"/><path d="M37.11 75.984V68.5h-8.594q-4.828 0-6.72-1.953-1.874-1.953-1.874-7.031v-4.828h14.797v-6.985H19.922V0H10.89v47.703H2.297v6.984h8.594V58.5q0 9.125 4.25 13.297 4.25 4.187 13.468 4.187z" id="DejaVuSans-102"/><path d="M44.281 53.078v-8.5q-3.797 1.953-7.906 2.922-4.094.984-8.5.984-6.688 0-10.031-2.047-3.344-2.046-3.344-6.156 0-3.125 2.39-4.906 2.391-1.781 9.626-3.39l3.078-.688q9.562-2.047 13.593-5.781 4.032-3.735 4.032-10.422 0-7.625-6.032-12.078-6.03-4.438-16.578-4.438-4.39 0-9.156.86Q10.688.296 5.422 2v9.281q4.984-2.594 9.812-3.89 4.829-1.282 9.579-1.282 6.343 0 9.75 2.172 3.421 2.172 3.421 6.125 0 3.656-2.468 5.61-2.453 1.953-10.813 3.765l-3.125.735q-8.344 1.75-12.062 5.39-3.704 3.64-3.704 9.985 0 7.718 5.47 11.906Q16.75 56 26.811 56q4.97 0 9.36-.734 4.406-.72 8.11-2.188z" id="DejaVuSans-115"/><path d="M56.203 29.594v-4.39H14.891q.593-9.282 5.593-14.142 5-4.859 13.938-4.859 5.172 0 10.031 1.266 4.86 1.265 9.656 3.812v-8.5Q49.266.734 44.187-.344 39.11-1.422 33.892-1.422q-13.094 0-20.735 7.61-7.64 7.625-7.64 20.625 0 13.421 7.25 21.296Q20.016 56 32.328 56q11.031 0 17.453-7.11 6.422-7.093 6.422-19.296zm-8.984 2.64q-.094 7.36-4.125 11.75-4.032 4.407-10.672 4.407-7.516 0-12.031-4.25-4.516-4.25-5.203-11.97z" id="DejaVuSans-101"/></defs><use xlink:href="#DejaVuSans-35"/><use x="83.789" xlink:href="#DejaVuSans-32"/><use x="115.576" xlink:href="#DejaVuSans-111"/><use x="176.758" xlink:href="#DejaVuSans-102"/><use x="211.963" xlink:href="#DejaVuSans-32"/><use x="243.75" xlink:href="#DejaVuSans-99"/><use x="298.73" xlink:href="#DejaVuSans-97"/><use x="360.01" xlink:href="#DejaVuSans-115"/><use x="412.109" xlink:href="#DejaVuSans-101"/><use x="473.633" xlink:href="#DejaVuSans-115"/></g></g><g style="fill:#696969" transform="matrix(.24 0 0 -.24 252.577 71.76)" id="text_19"><defs><path d="M9.813 72.906h13.28l32.329-60.984v60.984h9.562V0h-13.28L19.39 60.984V0H9.813z" id="DejaVuSans-78"/><path d="M4.203 54.688h8.985l11.234-42.672 11.172 42.672h10.593l11.235-42.672 11.187 42.672h8.985L63.28 0H52.688L40.922 44.828 29.109 0H18.5z" id="DejaVuSans-119"/><path d="M64.406 67.281v-10.39q-4.984 4.64-10.625 6.922-5.64 2.296-11.984 2.296-12.5 0-19.14-7.64-6.641-7.64-6.641-22.094 0-14.406 6.64-22.047 6.64-7.64 19.14-7.64 6.345 0 11.985 2.296 5.64 2.297 10.625 6.938V5.609Q59.234 2.094 53.437.33q-5.78-1.75-12.218-1.75-16.563 0-26.094 10.124-9.516 10.14-9.516 27.672 0 17.578 9.516 27.703 9.531 10.14 26.094 10.14 6.531 0 12.312-1.734 5.797-1.734 10.875-5.203z" id="DejaVuSans-67"/><path d="M25.39 72.906h8.297L8.297-9.28H0z" id="DejaVuSans-47"/><path d="M9.813 72.906h9.859V42.094L52.39 72.906h12.703L28.906 38.922 67.672 0H54.688L19.672 35.11V0h-9.86z" id="DejaVuSans-75"/><path d="M45.406 46.39v29.594h8.985V0h-8.985v8.203Q42.578 3.328 38.25.953q-4.313-2.375-10.375-2.375-9.906 0-16.14 7.906-6.22 7.922-6.22 20.813 0 12.89 6.22 20.797Q17.968 56 27.874 56q6.063 0 10.375-2.375 4.328-2.36 7.156-7.234zm-30.61-19.093q0-9.906 4.079-15.547 4.078-5.64 11.203-5.64 7.125 0 11.219 5.64 4.11 5.64 4.11 15.547 0 9.906-4.11 15.547-4.094 5.64-11.219 5.64-7.125 0-11.203-5.64-4.078-5.64-4.078-15.547z" id="DejaVuSans-100"/><path d="M9.422 54.688h8.984V0H9.422zm0 21.296h8.984v-11.39H9.422z" id="DejaVuSans-105"/><path d="M31 75.875q-6.531-11.219-9.719-22.219-3.172-10.984-3.172-22.265 0-11.266 3.203-22.328Q24.517-2 31-13.188h-7.813Q15.875-1.704 12.235 9.375q-3.64 11.078-3.64 22.016 0 10.89 3.61 21.922 3.624 11.046 10.983 22.562z" id="DejaVuSans-40"/><path d="M52 44.188q3.375 6.062 8.063 8.937Q64.75 56 71.093 56q8.548 0 13.188-5.984 4.64-5.97 4.64-17V0h-9.03v32.719q0 7.86-2.797 11.656-2.781 3.813-8.485 3.813-6.984 0-11.046-4.641-4.047-4.625-4.047-12.64V0h-9.032v32.719q0 7.906-2.78 11.687-2.782 3.782-8.595 3.782-6.89 0-10.953-4.657-4.047-4.656-4.047-12.625V0H9.08v54.688h9.03v-8.5q3.078 5.03 7.375 7.421Q29.781 56 35.687 56q5.97 0 10.141-3.031Q50 49.953 52 44.187z" id="DejaVuSans-109"/><path d="M8.016 75.875h7.812q7.313-11.516 10.953-22.563 3.64-11.03 3.64-21.921 0-10.938-3.64-22.016-3.64-11.078-10.953-22.563H8.016Q14.5-2 17.703 9.063q3.203 11.063 3.203 22.329 0 11.28-3.203 22.265-3.203 11-9.687 22.219z" id="DejaVuSans-41"/></defs><use xlink:href="#DejaVuSans-78"/><use x="74.805" xlink:href="#DejaVuSans-101"/><use x="136.328" xlink:href="#DejaVuSans-119"/><use x="218.115" xlink:href="#DejaVuSans-32"/><use x="249.902" xlink:href="#DejaVuSans-67"/><use x="319.727" xlink:href="#DejaVuSans-97"/><use x="381.006" xlink:href="#DejaVuSans-115"/><use x="433.105" xlink:href="#DejaVuSans-101"/><use x="494.629" xlink:href="#DejaVuSans-115"/><use x="546.729" xlink:href="#DejaVuSans-47"/><use x="580.42" xlink:href="#DejaVuSans-49"/><use x="644.043" xlink:href="#DejaVuSans-48"/><use x="707.666" xlink:href="#DejaVuSans-48"/><use x="771.289" xlink:href="#DejaVuSans-75"/><use x="836.865" xlink:href="#DejaVuSans-32"/><use x="868.652" xlink:href="#DejaVuSans-49"/><use x="932.275" xlink:href="#DejaVuSans-52"/><use x="995.898" xlink:href="#DejaVuSans-100"/><use x="1059.375" xlink:href="#DejaVuSans-32"/><use x="1091.162" xlink:href="#DejaVuSans-105"/><use x="1118.945" xlink:href="#DejaVuSans-110"/><use x="1182.324" xlink:href="#DejaVuSans-99"/><use x="1237.305" xlink:href="#DejaVuSans-105"/><use x="1265.088" xlink:href="#DejaVuSans-100"/><use x="1328.564" xlink:href="#DejaVuSans-101"/><use x="1390.088" xlink:href="#DejaVuSans-110"/><use x="1453.467" xlink:href="#DejaVuSans-99"/><use x="1508.447" xlink:href="#DejaVuSans-101"/><use x="1569.971" xlink:href="#DejaVuSans-32"/><use x="1601.758" xlink:href="#DejaVuSans-40"/><use x="1640.771" xlink:href="#DejaVuSans-115"/><use x="1692.871" xlink:href="#DejaVuSans-117"/><use x="1756.25" xlink:href="#DejaVuSans-109"/><use x="1853.662" xlink:href="#DejaVuSans-41"/></g><g id="legend_1"><path d="M128.2 184.5h136.45q3.2 0 3.2-3.2V88.96q0-3.2-3.2-3.2H128.2q-3.2 0-3.2 3.2v92.34q0 3.2 3.2 3.2z" style="fill:none;opacity:.8;stroke:#ccc;stroke-linejoin:miter" id="patch_5"/><path d="M131.4 98.718h32" style="fill:none;stroke:#000;stroke-linecap:round;stroke-width:1.5" id="line2d_8"/><g style="fill:#696969" transform="matrix(.16 0 0 -.16 176.2 104.317)" id="text_20"><defs><path d="M8.688 72.906h9.921V28.61q0-11.718 4.235-16.875 4.25-5.14 13.781-5.14 9.469 0 13.719 5.14 4.25 5.157 4.25 16.875v44.297H64.5V27.391q0-14.25-7.063-21.532-7.046-7.28-20.812-7.28-13.828 0-20.89 7.28-7.047 7.282-7.047 21.532z" id="DejaVuSans-85"/><path d="M53.516 70.516V60.89q-5.61 2.687-10.594 4-4.984 1.328-9.625 1.328-8.047 0-12.422-3.125t-4.375-8.89q0-4.845 2.906-7.313 2.907-2.453 11.016-3.97l5.953-1.218q11.031-2.11 16.281-7.406 5.25-5.297 5.25-14.172 0-10.61-7.11-16.078-7.093-5.469-20.812-5.469-5.172 0-11.015 1.172Q13.14.922 6.89 3.219v10.156q6-3.36 11.765-5.078 5.766-1.703 11.328-1.703 8.438 0 13.032 3.312 4.593 3.328 4.593 9.485 0 5.359-3.297 8.39-3.296 3.032-10.812 4.547L27.484 33.5q-11.03 2.188-15.968 6.875-4.922 4.688-4.922 13.047 0 9.672 6.812 15.234 6.813 5.563 18.766 5.563 5.14 0 10.453-.938 5.328-.922 10.89-2.765z" id="DejaVuSans-83"/></defs><use xlink:href="#DejaVuSans-85"/><use x="73.193" xlink:href="#DejaVuSans-83"/></g><path d="M131.4 122.203h32" style="fill:none;stroke:#009e73;stroke-linecap:round;stroke-width:1.5" id="line2d_10"/><g style="fill:#696969" transform="matrix(.16 0 0 -.16 176.2 127.802)" id="text_21"><use xlink:href="#DejaVuSans-78"/><use x="74.805" xlink:href="#DejaVuSans-74"/></g><path d="M131.4 145.688h32" style="fill:none;stroke:#d55e00;stroke-linecap:round;stroke-width:1.5" id="line2d_12"/><g style="fill:#696969" transform="matrix(.16 0 0 -.16 176.2 151.287)" id="text_22"><defs><path d="M19.672 34.813V8.108H35.5q7.953 0 11.781 3.297 3.844 3.297 3.844 10.078 0 6.844-3.844 10.078-3.828 3.25-11.781 3.25zm0 29.984V42.828h14.61q7.218 0 10.75 2.703 3.546 2.719 3.546 8.282 0 5.515-3.547 8.25-3.531 2.734-10.75 2.734zm-9.86 8.11h25.204q11.28 0 17.375-4.688Q58.5 63.53 58.5 54.89q0-6.703-3.125-10.657-3.125-3.953-9.188-4.922 7.282-1.562 11.313-6.53 4.031-4.954 4.031-12.376 0-9.765-6.64-15.093Q48.25 0 35.984 0H9.812z" id="DejaVuSans-66"/><path d="M45.406 27.984q0 9.766-4.031 15.125-4.016 5.375-11.297 5.375-7.219 0-11.25-5.375-4.031-5.359-4.031-15.125 0-9.718 4.031-15.093t11.25-5.375q7.281 0 11.297 5.375 4.031 5.375 4.031 15.093zm8.985-21.203q0-13.953-6.203-20.765Q42-20.797 29.203-20.797q-4.734 0-8.937.703-4.203.703-8.157 2.172v8.735q3.954-2.141 7.813-3.157 3.86-1.031 7.86-1.031 8.843 0 13.234 4.61 4.39 4.609 4.39 13.937v4.453q-2.781-4.844-7.125-7.234Q33.938 0 27.875 0 17.828 0 11.672 7.656q-6.156 7.672-6.156 20.328 0 12.688 6.156 20.344Q17.828 56 27.875 56q6.063 0 10.406-2.39 4.344-2.391 7.125-7.22v8.297h8.985z" id="DejaVuSans-103"/></defs><use xlink:href="#DejaVuSans-66"/><use x="68.604" xlink:href="#DejaVuSans-101"/><use x="130.127" xlink:href="#DejaVuSans-114"/><use x="169.49" xlink:href="#DejaVuSans-103"/><use x="232.967" xlink:href="#DejaVuSans-101"/><use x="294.49" xlink:href="#DejaVuSans-110"/></g><path d="M131.4 169.173h32" style="fill:none;stroke:#0072b2;stroke-linecap:round;stroke-width:1.5" id="line2d_14"/><g style="fill:#696969" transform="matrix(.16 0 0 -.16 176.2 174.773)" id="text_23"><defs><path d="M44.39 34.188q3.172-1.079 6.172-4.594 3-3.516 6.032-9.672L66.609 0H56l-9.313 18.703q-3.624 7.328-7.015 9.719-3.39 2.39-9.25 2.39h-10.75V0h-9.86v72.906h22.266q12.5 0 18.656-5.234 6.157-5.219 6.157-15.766 0-6.89-3.203-11.437-3.204-4.532-9.297-6.282zM19.673 64.797V38.922h12.406q7.125 0 10.766 3.297 3.64 3.297 3.64 9.687 0 6.39-3.64 9.64-3.64 3.25-10.766 3.25z" id="DejaVuSans-82"/><path d="M54.89 33.016V0h-8.984v32.719q0 7.765-3.031 11.61-3.031 3.858-9.078 3.858-7.281 0-11.484-4.64-4.204-4.625-4.204-12.64V0H9.08v75.984h9.03V46.188q3.235 4.937 7.594 7.374Q30.078 56 35.797 56q9.422 0 14.25-5.828 4.844-5.828 4.844-17.156z" id="DejaVuSans-104"/></defs><use xlink:href="#DejaVuSans-82"/><use x="64.982" xlink:href="#DejaVuSans-117"/><use x="128.361" xlink:href="#DejaVuSans-116"/><use x="167.57" xlink:href="#DejaVuSans-104"/><use x="230.949" xlink:href="#DejaVuSans-101"/><use x="292.473" xlink:href="#DejaVuSans-114"/><use x="333.586" xlink:href="#DejaVuSans-102"/><use x="368.791" xlink:href="#DejaVuSans-111"/><use x="429.973" xlink:href="#DejaVuSans-114"/><use x="469.336" xlink:href="#DejaVuSans-100"/></g></g></g></g><defs><clipPath id="pe49a24c8d2"><path d="M117 77.76h725.4v498.96H117z"/></clipPath></defs></svg>