<svg height="864" viewBox="0 0 936 648" width="1248" xmlns="http://www.w3.org/2000/svg" xmlns:xlink="http://www.w3.org/1999/xlink"><defs><style>*{stroke-linecap:butt;stroke-linejoin:round}</style></defs><g id="figure_1"><path d="M0 648h936V0H0z" style="fill:#fff" id="patch_1"/><g id="axes_1"><path d="M117 576.72h725.4V77.76H117z" style="fill:none" id="patch_2"/><g id="PolyCollection_1"><defs><path d="M151.419-101.726H232.405l1.446-2.401 1.446.425 1.446.18 1.446-1.575h1.446l1.447-4.71 1.446-4.13 1.446-4.778 1.446-.483 1.446-4.609 1.446-1.807 1.447-9.487 1.446-8.314 1.446-6.167 1.446 6.83 1.446-10.314 1.446-20.37 1.447-12.492 1.446 4.576 1.446 4.642 1.446 5.85 1.446-20.412 1.447-8.908 1.446 29.588 1.446 28.3 1.446-4.037 1.446 2.988 1.446-1.477 1.447 7.02 1.446-4.824 1.446-5.595 1.446.366 1.446 1.5 1.446 1.464 1.447-5.136 1.446-.552 1.446-3.308 1.446 1.93h2.892l1.447 6.362 1.446 8.025 1.446 5.922 1.446 10.05 1.446-1.51 1.446-.748 1.447 9.149 1.446-1.044 1.446 3.559 1.446 6.273 1.446 5.303 1.447 6.652 1.446-1.325 1.446-8.808 1.446-8.602 1.446-1.514 1.446-.679 1.447.594 1.446-1.211 1.446-3.177 1.446 6.394 1.446 8.153 1.446 3.552 1.447 2.797 1.446 2.154 1.446-.939 1.446-2.81 1.446-1.93 1.446-.826 1.447-.79 1.446-.729 1.446-2.401 1.446.425 1.446.18 1.446-4.356 1.447.475 1.446-.113 1.446-.765 1.446 3.59 1.446-.333 1.446-.429 1.447 7.226 1.446.474 1.446-2.305 1.446-.901 1.446-2.171 1.447-.308 1.446-.411 1.446-.218 1.446-.577 1.446 1.93h1.446l1.447 2.507 1.446.218h1.446l1.446-3.86 1.446 1.652 1.446-1.652 1.447-1.322 1.446-1.388h1.446l1.446-.542 1.446-3.082 1.446-.298 1.447-.406 1.446 1.441 1.446 1.93h2.892l1.446-3.86 1.447-1.515 1.446 1.93 1.446-1.578 1.446-3.136h1.446l1.447-.724 1.446 8.146 1.446.475 1.446.262 1.446 2.507 1.446 4.388 1.447-.39 1.446-1.657 1.446 4.54 1.446-4.335 1.446-2.708 1.446-1.93 1.447.352 1.446.19 1.446.061 1.446-3.042 1.446 5.79 1.446 2.79 1.447.456 1.446.164 1.446-.08 1.446-.349 1.446-2.157 1.446-.73 1.447-1.2 1.446 1.93h4.338l1.447 2.314 1.446.218 1.446-.3h1.446l1.446-1.93h2.893l1.446-1.503 1.446.117 1.446 1.686 1.446-2.23h1.446l1.447-.09 1.446-.212 1.446 2.142 1.446-3.47 1.446-1.426 1.446.352 1.447 1.89 1.446-.085 1.446-.133 1.446-2.828 1.446 4.287 1.446-5.366 1.447 1.93h1.446l1.446-.047 1.446-.1 1.446 2.03 1.447-5.79 1.446 8.229 1.446.352 1.446.19 1.446.061 1.446-.06 1.447-1.93 1.446 4.639 1.446-3.86 1.446-1.737 1.446.133 1.446.085 1.447.04 1.446-3.16 1.446-.7 1.446 1.578 1.446 1.93H511.516l1.446 6.902 1.446.147 1.446 2.334 1.446.197 1.447-.197 1.446-.674 1.446-1.883 1.446-3.283 1.446-1.03 1.447-6.34 1.446-10.958 1.446-.561 1.446.85 1.446-1.181 1.446-2.383 1.447-13.025 1.446 2.517 1.446 8.147 1.446-5.79 1.446-5.454 1.446-4.627 1.447.504 1.446 11.444 1.446-5.79 1.446 9.179 1.446 12.712 1.446 8.75 1.447 7.248 1.446-9.87 1.446-8.662 1.446-4.946 1.446-8.169 1.446-5.7 1.447 1.27 1.446-2.073 1.446-11.736 1.446 4.091 1.446-6.78 1.447 1.502 1.446-.462 1.446-.729 1.446-1.228 1.446-10.858 1.446-2.926 1.447 13.487 1.446-22.439 1.446-1.404 1.446.112 1.446-2.17 1.446 4.623 1.447-14.523 1.446-22.484 1.446 17.304 1.446-11.812 1.446-7.649 1.446-.21 1.447-1.424 1.446 4.375 1.446 13.354 1.446 19.643 1.446 37.315 1.446-30.154 1.447-2.785 1.446-3.835 1.446-1.883 1.446-10.74 1.446-22.716 1.447-33.543 1.446 20.808 1.446.257 1.446 2.428 1.446-16.763 1.446-.194 1.447-9.513 1.446 32.758 1.446 30.17 1.446 3.473 1.446-5.241 1.446 2.871 1.447-7.49 1.446 31.689 1.446-17.783 1.446.266 1.446-.159 1.446-24.289 1.447 4.63 1.446-28.587 1.446-5.46 1.446 30.77 1.446-3.53 1.446-5.895 1.447-7.205 1.446 1 1.446 16.176 1.446-19.69 1.446-.014 1.446-.03 1.447-.045 1.446-6.179 1.446-17.487 1.446 9.182 1.446-6.23 1.447-18.002 1.446-13.529 1.446.26 1.446 16.225 1.446 12.871 1.446-4.914 1.447 9.65 1.446 6.222 1.446 20.822 1.446-3.884 1.446 52.106 1.446-18.833 1.447 8.265 1.446 10.583 1.446 11.384 1.446-1.738 1.446-6.828 1.446-50.96 1.447 32.093 1.446 7.512 1.446-3.82 1.446-24.288 1.446-9.887 1.446-4.221 1.447 64.178 1.446 13.032 1.446-38.858 1.446-3.973 1.446 16.644 1.447 6.29 1.446-7.635 1.446-29.469 1.446-13.836 1.446 41.36 1.446 4.14 1.447 4.942 1.446-14.082 1.446-.715 1.446 33.177 1.446-22.524 1.446-.049 1.447 6.348 1.446.42 1.446 13.366 1.446-18.174 1.446-7.62 1.446 15.697 1.447 1.833 1.446-17.809 1.446-5.037 1.446-.378 1.446 13.317 1.446-20.411 1.447-6.62 1.446-5.793 1.446 18.328 1.446-9.695 1.446-.32 1.447-5.39 1.446 4.032 1.446 13.358 1.446-5.484 1.446-19.303 1.446 17.413 1.447-.128 1.446-.307 1.446-15.295 1.446-4.714h1.446l1.446 21.42 1.447-.246 1.446-.26 1.446-.275 1.446-2.23 1.446-.33 1.446-4.891 1.447-7.641 1.446-2.018 1.446.794 1.446-12.626 1.446 24.911 1.446-4.572 1.447 7.344 1.446-18.795 1.446-2.972 1.446.537 1.446 15.945 1.447-12.104 1.446-.343 2.892-13.234v20.17l1.446 9.26 1.446-1.93 1.447.237 1.446 15.972 1.446 7.718 1.446 5.537 1.446-8.82 1.446-.598 1.447.071 1.446-4.522 1.446 15.305 1.446 10.894 1.446-.458v-20.872l-1.446 3.402-1.446-4.546-1.446-11.716-1.446-4.522-1.447-3.789-1.446-.598-1.446 6.62-1.446-9.903-1.446-3.862-1.446-11.049-1.447.237-1.446 1.93-1.446-6.18v-18.43l-2.892 9.927-1.446-.344-1.447 11.057-1.446-18.796-1.446.537-1.446 4.749-1.446 19.804-1.447-8.096-1.446 3.148-1.446-25.269-1.446 22.115-1.446.794-1.446 5.702-1.447 11.659-1.446-8.751-1.446-4.19-1.446 1.63-1.446-.275-1.446-.26-1.447-.247-1.446-21.04h-1.446l-1.446 6.866-1.446 19.446-1.446-.307-1.447-.128-1.446-17.328-1.446 23.157-1.446 2.237-1.446-9.803-1.446-3.687-1.447-5.39-1.446-.32-1.446 9.604-1.446-20.272-1.446 1.927-1.447 8.821-1.446 25.91-1.446-13.705-1.446-.378-1.446 10.403-1.446 20.792-1.447-2.027-1.446-15.183-1.446 7.82-1.446 8.846-1.446-13.654-1.446.42-1.447-5.232-1.446-.05-1.446 4.497-1.446-28.583-1.446-.716-1.446 12.939-1.447-2.778-1.446-3.58-1.446-39.701-1.446 13.184-1.446 32.292-1.446-7.635-1.447-13.01-1.446-18.097-1.446 3.747-1.446 38.343-1.446-2.409-1.447-55.482-1.446-4.221-1.446 9.412-1.446 25.893-1.446 3.9-1.446-7.927-1.447-33.528-1.446 68.7-1.446-6.827-1.446-1.738-1.446-15.637-1.446-12.576-1.447-11.036-1.446 19.767-1.446-32.814-1.446-3.884-1.446-17.778-1.446-1.499-1.447-9.65-1.446-1.054-1.446-14.15-1.446-26.235-1.446.26-1.446 25.071-1.447 28.32-1.446 9.21-1.446-10.119-1.446 32.693-1.446 5.402-1.447-.045-1.446-.03-1.446-.015-1.446 3.471-1.446-14.703-1.446-6.721-1.447 4.375-1.446-5.895-1.446-3.53-1.446-34.851-1.446 13.84-1.446 48.614-1.447-3.09-1.446 25.891-1.446-.159-1.446.266-1.446 13.098-1.446-37.792-1.447.23-1.446-8.709-1.446 6.34-1.446 3.473-1.446-12.291-1.446-25.143-1.447-1.793-1.446-23.354-1.446 2.537-1.446-9.152-1.446.258-1.446-13.933-1.447 59.097-1.446 39.046-1.446 8.56-1.446-5.744-1.446-3.835-1.447-2.784-1.446 27.746-1.446-16.725-1.446-11.238-1.446-9.806-1.446-11.065-1.447-9.144-1.446-.21-1.446 11.651-1.446 15.208-1.446-17.436-1.446 23.836-1.447 16.358-1.446-6.958-1.446-2.17-1.446.112-1.446 6.317-1.446 31.6-1.447-13.532-1.446 8.654-1.446 16.162-1.446-1.228-1.446-.73-1.446-.461-1.447-6.218-1.446.94-1.446-7.489-1.446 11.424-1.446-2.073-1.447 1.27-1.446 13.6-1.446 11.132-1.446-1.086-1.446 6.778-1.446 5.57-1.447-4.333-1.446-2.83-1.446-6.587-1.446-10.122-1.446 5.79-1.446-11.716-1.447.505-1.446 6.952-1.446 6.127-1.446 5.79-1.446-7.293-1.446-12.924-1.447 6.276-1.446-2.383-1.446-1.181-1.446.85-1.446 7.159-1.446 23.782-1.447 12.96-1.446 2.83-1.446 4.437-1.446-1.883-1.446-.673-1.447-.198-1.446.198-1.446-1.527-1.446.147-1.446-4.678H507.177l-1.446-1.93-1.446-2.282-1.446-.7-1.446 4.56-1.447.04-1.446.085-1.446.133-1.446 2.124-1.446 3.86-1.446-6.941-1.447 1.93-1.446-.061-1.446.06-1.446.191-1.446.352-1.446-7.21-1.447 5.79-1.446-1.832-1.446-.099-1.446-.048h-1.446l-1.447-1.93-1.446 6.215-1.446-3.433-1.446 1.032-1.446-.133-1.446-.085-1.447-1.97-1.446.352-1.446 2.434-1.446 4.25-1.446-1.717-1.446-.213-1.447-.09h-1.446l-1.446 1.63-1.446-2.174-1.446.117-1.446 2.357h-2.893l-1.446 1.93h-1.446l-1.446-.3-1.446.218-1.447-1.545h-4.338l-1.446-1.93-1.447 2.659-1.446-.73-1.446-2.157-1.446-.348-1.446-.081-1.446.164-1.447.455-1.446-1.069-1.446-5.79-1.446.818-1.446.06-1.446.191-1.447.352-1.446 1.93-1.446 1.152-1.446 3.385-1.446-3.18-1.446-1.657-1.447-.39-1.446-3.332-1.446-1.353-1.446.262-1.446.475-1.446-7.294-1.447-.725h-1.446l-1.446 4.585-1.446 2.282-1.446-1.93-1.447 2.345-1.446 3.86h-2.892l-1.446-1.93-1.446-2.42-1.447-.405-1.446-.298-1.446 4.638-1.446-.542h-1.446l-1.446 2.472-1.447 2.539-1.446 2.207-1.446-2.207-1.446 3.86h-1.446l-1.446.218-1.447-1.354h-1.446l-1.446-1.93-1.446-.576-1.446-.218-1.446-.411-1.447-.309-1.446 1.69-1.446-.902-1.446 1.555-1.446.475-1.447-4.355-1.446-.429-1.446-.333-1.446-4.13-1.446-.765-1.446-.113-1.447.475-1.446 7.225-1.446.18-1.446.424-1.446 5.32-1.446-.73-1.447-.79-1.446-.826-1.446-1.93-1.446-2.81-1.446-.94-1.446-1.705-1.447-1.063-1.446-.308-1.446-3.427-1.446-9.046-1.446-3.177-1.446-1.211-1.447.594-1.446 3.18-1.446 2.347-1.446 6.838-1.446 6.633-1.446-1.326-1.447-4.928-1.446-2.417-1.446-5.307-1.446-4.161-1.446-1.044-1.447-10.15-1.446-.75-1.446 2.35-1.446-5.389-1.446-1.798-1.446-3.556-1.447-5.218h-2.892l-1.446-1.93-1.446 4.412-1.446-.552-1.447-1.275-1.446-2.397-1.446-2.36-1.446.367-1.446-1.736-1.446-12.543-1.447-12.28-1.446 2.382-1.446-.872-1.446 7.543-1.446-14.16-1.446-24.453-1.447-5.047-1.446 10.468-1.446-9.59-1.446-6.939-1.446-3.144-1.447 22.248-1.446 29.81-1.446 8.986-1.446-8.61-1.446 9.275-1.446 10.986-1.447 9.812-1.446 2.053-1.446 6.971-1.446 3.378-1.446 10.663-1.446 7.45-1.447 6.869h-1.446l-1.446 2.286-1.446.18-1.446.424-1.446 5.32H151.419z" id="m2d9f9d7f14" style="stroke:#fff;stroke-opacity:.2"/></defs><g clip-path="url(#p29c06d5939)"><use style="fill:#089fff;fill-opacity:.2;stroke:#fff;stroke-opacity:.2" xlink:href="#m2d9f9d7f14" y="648"/></g></g><path clip-path="url(#p29c06d5939)" d="m149.973 546.274 49.17.1 5.784.352 5.785.585 7.23.792 2.893.117 2.893-.182 1.446-.263 1.446-.414 1.446-.592 1.446-.8 1.446-1.041 1.447-1.314 1.446-1.618 1.446-1.942 1.446-2.29 1.446-2.656 1.446-3.036 1.447-3.405 1.446-3.75 2.892-8.453 2.892-9.391 5.785-19.259 1.446-4.37 1.446-3.99 1.447-3.513 1.446-2.945 1.446-2.286 1.446-1.557 1.446-.845 1.447-.176 1.446.453 1.446 1.026 1.446 1.495 1.446 1.842 2.893 4.32 8.677 13.852 7.23 10.988 4.339 7.1 5.785 9.61 2.892 4.342 1.446 1.945 1.446 1.754 1.447 1.538 1.446 1.334 1.446 1.147 1.446.978 2.892 1.561 13.016 5.962 2.892.842 2.893.436 2.892.075 4.338-.275 4.339-.215 2.892.072 4.339.402 5.785.562 4.338.175 2.892-.091 2.893-.32 2.892-.604 2.892-.88 4.339-1.668 5.785-2.283 2.892-.962 2.892-.772 2.893-.555 2.892-.275 2.892.101 2.893.494 2.892.817 10.123 3.352 5.785 1.396 10.123 2.308 4.339.712 4.338.449 2.893.138 2.892-.023 2.892-.194 4.339-.584 5.784-1.137 10.124-2.164 4.338-.641 2.892-.255 2.893-.093 2.892.081 4.339.407 13.015 1.64 8.677.752 2.893.07 1.446-.09 1.446-.209 1.446-.362 1.446-.55 1.446-.77 1.447-1.018 1.446-1.27 1.446-1.513 1.446-1.754 2.893-4.112 4.338-6.614 2.892-3.931 1.447-1.665 1.446-1.407 1.446-1.147 1.446-.893 1.446-.648 1.446-.414 1.447-.217 2.892-.02 2.892.192 1.446-.022 1.447-.217 1.446-.487 1.446-.773 1.446-1.063 1.446-1.357 1.446-1.648 1.447-1.905 2.892-4.434 2.892-5.059 2.893-5.643 2.892-6.226 2.892-6.743 8.677-21.186 2.893-6.176 1.446-2.721 1.446-2.444 1.446-2.153 1.446-1.847 1.447-1.544 2.892-2.49 2.892-2.29 1.446-1.288 1.447-1.502 1.446-1.77 2.892-4.04 2.893-4.043 1.446-1.735 1.446-1.365 1.446-.858 1.446-.25 1.446.325 1.447.829 1.446 1.262 1.446 1.613 4.338 5.507 1.447 1.567 1.446 1.25 1.446.861 1.446.397 1.446-.117 1.446-.58 1.447-.965 1.446-1.276 1.446-1.515 2.892-3.553 2.893-3.96 2.892-4.255 2.892-4.66 5.785-9.73 1.446-2.14 1.446-1.79 1.447-1.306 1.446-.701 1.446-.033 1.446.687 1.446 1.455 1.446 2.244 1.447 2.936 1.446 3.502 2.892 8.188 4.339 13.003 1.446 3.901 1.446 3.525 1.446 3.105 1.446 2.641 1.446 2.159 1.447 1.745 1.446 1.425 2.892 2.256 7.231 4.892 4.339 3.388 2.892 2.543 2.892 2.952 2.893 3.28 4.338 5.042 1.446 1.507 1.446 1.329 1.447 1.108 1.446.847 1.446.548 1.446.216 1.446-.113 1.446-.434 1.447-.745 1.446-1.038 1.446-1.278 2.892-3.03 4.339-4.857 2.892-2.841 2.893-2.29 2.892-1.803 2.892-1.431 2.893-1.2 2.892-1.017 2.892-.793 7.231-1.72 2.892-.986 4.339-1.903 2.892-1.204 2.893-.851 1.446-.222 1.446-.046 1.446.162 1.446.405 1.447.682 1.446.987 2.892 1.296v1.599l1.446 1.899 1.446 2.188 2.893 5.084 2.892 5.73 4.339 9.265 5.784 12.867h0" style="fill:none;stroke:#000;stroke-linecap:round;stroke-width:1.5" id="line2d_1"/><g id="line2d_2"><defs><path d="M0 3a3 3 0 1 0 0-6 3 3 0 0 0 0 6z" id="m8e304e0c76" style="stroke:#4c72b0"/></defs><g clip-path="url(#p29c06d5939)"><use style="fill-opacity:0;stroke:#4c72b0" x="149.973" xlink:href="#m8e304e0c76" y="546.274"/><use style="fill-opacity:0;stroke:#4c72b0" x="151.419" xlink:href="#m8e304e0c76" y="546.274"/><use style="fill-opacity:0;stroke:#4c72b0" x="152.865" xlink:href="#m8e304e0c76" y="546.274"/><use style="fill-opacity:0;stroke:#4c72b0" x="154.311" xlink:href="#m8e304e0c76" y="546.274"/><use style="fill-opacity:0;stroke:#4c72b0" x="155.757" xlink:href="#m8e304e0c76" y="546.274"/><use style="fill-opacity:0;stroke:#4c72b0" x="157.204" xlink:href="#m8e304e0c76" y="546.274"/><use style="fill-opacity:0;stroke:#4c72b0" x="158.65" xlink:href="#m8e304e0c76" y="546.274"/><use style="fill-opacity:0;stroke:#4c72b0" x="160.096" xlink:href="#m8e304e0c76" y="546.274"/><use style="fill-opacity:0;stroke:#4c72b0" x="161.542" xlink:href="#m8e304e0c76" y="546.274"/><use style="fill-opacity:0;stroke:#4c72b0" x="162.988" xlink:href="#m8e304e0c76" y="546.274"/><use style="fill-opacity:0;stroke:#4c72b0" x="164.434" xlink:href="#m8e304e0c76" y="546.274"/><use style="fill-opacity:0;stroke:#4c72b0" x="165.881" xlink:href="#m8e304e0c76" y="546.274"/><use style="fill-opacity:0;stroke:#4c72b0" x="167.327" xlink:href="#m8e304e0c76" y="546.274"/><use style="fill-opacity:0;stroke:#4c72b0" x="168.773" xlink:href="#m8e304e0c76" y="546.274"/><use style="fill-opacity:0;stroke:#4c72b0" x="170.219" xlink:href="#m8e304e0c76" y="546.274"/><use style="fill-opacity:0;stroke:#4c72b0" x="171.665" xlink:href="#m8e304e0c76" y="546.274"/><use style="fill-opacity:0;stroke:#4c72b0" x="173.111" xlink:href="#m8e304e0c76" y="546.274"/><use style="fill-opacity:0;stroke:#4c72b0" x="174.558" xlink:href="#m8e304e0c76" y="546.274"/><use style="fill-opacity:0;stroke:#4c72b0" x="176.004" xlink:href="#m8e304e0c76" y="546.274"/><use style="fill-opacity:0;stroke:#4c72b0" x="177.45" xlink:href="#m8e304e0c76" y="546.274"/><use style="fill-opacity:0;stroke:#4c72b0" x="178.896" xlink:href="#m8e304e0c76" y="546.274"/><use style="fill-opacity:0;stroke:#4c72b0" x="180.342" xlink:href="#m8e304e0c76" y="546.274"/><use style="fill-opacity:0;stroke:#4c72b0" x="181.789" xlink:href="#m8e304e0c76" y="546.274"/><use style="fill-opacity:0;stroke:#4c72b0" x="183.235" xlink:href="#m8e304e0c76" y="546.274"/><use style="fill-opacity:0;stroke:#4c72b0" x="184.681" xlink:href="#m8e304e0c76" y="546.274"/><use style="fill-opacity:0;stroke:#4c72b0" x="186.127" xlink:href="#m8e304e0c76" y="546.274"/><use style="fill-opacity:0;stroke:#4c72b0" x="187.573" xlink:href="#m8e304e0c76" y="546.274"/><use style="fill-opacity:0;stroke:#4c72b0" x="189.019" xlink:href="#m8e304e0c76" y="546.274"/><use style="fill-opacity:0;stroke:#4c72b0" x="190.466" xlink:href="#m8e304e0c76" y="546.274"/><use style="fill-opacity:0;stroke:#4c72b0" x="191.912" xlink:href="#m8e304e0c76" y="546.274"/><use style="fill-opacity:0;stroke:#4c72b0" x="193.358" xlink:href="#m8e304e0c76" y="546.274"/><use style="fill-opacity:0;stroke:#4c72b0" x="194.804" xlink:href="#m8e304e0c76" y="546.274"/><use style="fill-opacity:0;stroke:#4c72b0" x="196.25" xlink:href="#m8e304e0c76" y="546.274"/><use style="fill-opacity:0;stroke:#4c72b0" x="197.696" xlink:href="#m8e304e0c76" y="546.274"/><use style="fill-opacity:0;stroke:#4c72b0" x="199.143" xlink:href="#m8e304e0c76" y="546.274"/><use style="fill-opacity:0;stroke:#4c72b0" x="200.589" xlink:href="#m8e304e0c76" y="546.274"/><use style="fill-opacity:0;stroke:#4c72b0" x="202.035" xlink:href="#m8e304e0c76" y="546.274"/><use style="fill-opacity:0;stroke:#4c72b0" x="203.481" xlink:href="#m8e304e0c76" y="546.274"/><use style="fill-opacity:0;stroke:#4c72b0" x="204.927" xlink:href="#m8e304e0c76" y="546.274"/><use style="fill-opacity:0;stroke:#4c72b0" x="206.373" xlink:href="#m8e304e0c76" y="546.274"/><use style="fill-opacity:0;stroke:#4c72b0" x="207.82" xlink:href="#m8e304e0c76" y="546.274"/><use style="fill-opacity:0;stroke:#4c72b0" x="209.266" xlink:href="#m8e304e0c76" y="546.274"/><use style="fill-opacity:0;stroke:#4c72b0" x="210.712" xlink:href="#m8e304e0c76" y="546.274"/><use style="fill-opacity:0;stroke:#4c72b0" x="212.158" xlink:href="#m8e304e0c76" y="546.274"/><use style="fill-opacity:0;stroke:#4c72b0" x="213.604" xlink:href="#m8e304e0c76" y="546.274"/><use style="fill-opacity:0;stroke:#4c72b0" x="215.05" xlink:href="#m8e304e0c76" y="546.274"/><use style="fill-opacity:0;stroke:#4c72b0" x="216.497" xlink:href="#m8e304e0c76" y="546.274"/><use style="fill-opacity:0;stroke:#4c72b0" x="217.943" xlink:href="#m8e304e0c76" y="546.274"/><use style="fill-opacity:0;stroke:#4c72b0" x="219.389" xlink:href="#m8e304e0c76" y="546.274"/><use style="fill-opacity:0;stroke:#4c72b0" x="220.835" xlink:href="#m8e304e0c76" y="546.274"/><use style="fill-opacity:0;stroke:#4c72b0" x="222.281" xlink:href="#m8e304e0c76" y="546.274"/><use style="fill-opacity:0;stroke:#4c72b0" x="223.728" xlink:href="#m8e304e0c76" y="546.274"/><use style="fill-opacity:0;stroke:#4c72b0" x="225.174" xlink:href="#m8e304e0c76" y="546.274"/><use style="fill-opacity:0;stroke:#4c72b0" x="226.62" xlink:href="#m8e304e0c76" y="546.274"/><use style="fill-opacity:0;stroke:#4c72b0" x="228.066" xlink:href="#m8e304e0c76" y="546.274"/><use style="fill-opacity:0;stroke:#4c72b0" x="229.512" xlink:href="#m8e304e0c76" y="546.274"/><use style="fill-opacity:0;stroke:#4c72b0" x="230.958" xlink:href="#m8e304e0c76" y="546.274"/><use style="fill-opacity:0;stroke:#4c72b0" x="232.405" xlink:href="#m8e304e0c76" y="546.274"/><use style="fill-opacity:0;stroke:#4c72b0" x="233.851" xlink:href="#m8e304e0c76" y="519.254"/><use style="fill-opacity:0;stroke:#4c72b0" x="235.297" xlink:href="#m8e304e0c76" y="546.274"/><use style="fill-opacity:0;stroke:#4c72b0" x="236.743" xlink:href="#m8e304e0c76" y="546.274"/><use style="fill-opacity:0;stroke:#4c72b0" x="238.189" xlink:href="#m8e304e0c76" y="532.764"/><use style="fill-opacity:0;stroke:#4c72b0" x="239.635" xlink:href="#m8e304e0c76" y="546.274"/><use style="fill-opacity:0;stroke:#4c72b0" x="241.082" xlink:href="#m8e304e0c76" y="505.744"/><use style="fill-opacity:0;stroke:#4c72b0" x="242.528" xlink:href="#m8e304e0c76" y="505.744"/><use style="fill-opacity:0;stroke:#4c72b0" x="243.974" xlink:href="#m8e304e0c76" y="465.213"/><use style="fill-opacity:0;stroke:#4c72b0" x="245.42" xlink:href="#m8e304e0c76" y="532.764"/><use style="fill-opacity:0;stroke:#4c72b0" x="246.866" xlink:href="#m8e304e0c76" y="505.744"/><use style="fill-opacity:0;stroke:#4c72b0" x="248.312" xlink:href="#m8e304e0c76" y="519.254"/><use style="fill-opacity:0;stroke:#4c72b0" x="249.759" xlink:href="#m8e304e0c76" y="478.723"/><use style="fill-opacity:0;stroke:#4c72b0" x="251.205" xlink:href="#m8e304e0c76" y="438.193"/><use style="fill-opacity:0;stroke:#4c72b0" x="252.651" xlink:href="#m8e304e0c76" y="451.703"/><use style="fill-opacity:0;stroke:#4c72b0" x="254.097" xlink:href="#m8e304e0c76" y="519.254"/><use style="fill-opacity:0;stroke:#4c72b0" x="255.543" xlink:href="#m8e304e0c76" y="465.213"/><use style="fill-opacity:0;stroke:#4c72b0" x="256.989" xlink:href="#m8e304e0c76" y="330.112"/><use style="fill-opacity:0;stroke:#4c72b0" x="258.436" xlink:href="#m8e304e0c76" y="397.663"/><use style="fill-opacity:0;stroke:#4c72b0" x="259.882" xlink:href="#m8e304e0c76" y="505.744"/><use style="fill-opacity:0;stroke:#4c72b0" x="261.328" xlink:href="#m8e304e0c76" y="478.723"/><use style="fill-opacity:0;stroke:#4c72b0" x="262.774" xlink:href="#m8e304e0c76" y="505.744"/><use style="fill-opacity:0;stroke:#4c72b0" x="264.22" xlink:href="#m8e304e0c76" y="411.173"/><use style="fill-opacity:0;stroke:#4c72b0" x="265.667" xlink:href="#m8e304e0c76" y="451.703"/><use style="fill-opacity:0;stroke:#4c72b0" x="267.113" xlink:href="#m8e304e0c76" y="519.254"/><use style="fill-opacity:0;stroke:#4c72b0" x="268.559" xlink:href="#m8e304e0c76" y="546.274"/><use style="fill-opacity:0;stroke:#4c72b0" x="270.005" xlink:href="#m8e304e0c76" y="465.213"/><use style="fill-opacity:0;stroke:#4c72b0" x="271.451" xlink:href="#m8e304e0c76" y="492.234"/><use style="fill-opacity:0;stroke:#4c72b0" x="272.897" xlink:href="#m8e304e0c76" y="492.234"/><use style="fill-opacity:0;stroke:#4c72b0" x="274.344" xlink:href="#m8e304e0c76" y="478.723"/><use style="fill-opacity:0;stroke:#4c72b0" x="275.79" xlink:href="#m8e304e0c76" y="478.723"/><use style="fill-opacity:0;stroke:#4c72b0" x="277.236" xlink:href="#m8e304e0c76" y="505.744"/><use style="fill-opacity:0;stroke:#4c72b0" x="278.682" xlink:href="#m8e304e0c76" y="546.274"/><use style="fill-opacity:0;stroke:#4c72b0" x="280.128" xlink:href="#m8e304e0c76" y="478.723"/><use style="fill-opacity:0;stroke:#4c72b0" x="281.574" xlink:href="#m8e304e0c76" y="505.744"/><use style="fill-opacity:0;stroke:#4c72b0" x="283.021" xlink:href="#m8e304e0c76" y="478.723"/><use style="fill-opacity:0;stroke:#4c72b0" x="284.467" xlink:href="#m8e304e0c76" y="478.723"/><use style="fill-opacity:0;stroke:#4c72b0" x="285.913" xlink:href="#m8e304e0c76" y="451.703"/><use style="fill-opacity:0;stroke:#4c72b0" x="287.359" xlink:href="#m8e304e0c76" y="519.254"/><use style="fill-opacity:0;stroke:#4c72b0" x="288.805" xlink:href="#m8e304e0c76" y="546.274"/><use style="fill-opacity:0;stroke:#4c72b0" x="290.251" xlink:href="#m8e304e0c76" y="478.723"/><use style="fill-opacity:0;stroke:#4c72b0" x="291.698" xlink:href="#m8e304e0c76" y="546.274"/><use style="fill-opacity:0;stroke:#4c72b0" x="293.144" xlink:href="#m8e304e0c76" y="519.254"/><use style="fill-opacity:0;stroke:#4c72b0" x="294.59" xlink:href="#m8e304e0c76" y="505.744"/><use style="fill-opacity:0;stroke:#4c72b0" x="296.036" xlink:href="#m8e304e0c76" y="505.744"/><use style="fill-opacity:0;stroke:#4c72b0" x="297.482" xlink:href="#m8e304e0c76" y="505.744"/><use style="fill-opacity:0;stroke:#4c72b0" x="298.928" xlink:href="#m8e304e0c76" y="546.274"/><use style="fill-opacity:0;stroke:#4c72b0" x="300.375" xlink:href="#m8e304e0c76" y="546.274"/><use style="fill-opacity:0;stroke:#4c72b0" x="301.821" xlink:href="#m8e304e0c76" y="546.274"/><use style="fill-opacity:0;stroke:#4c72b0" x="303.267" xlink:href="#m8e304e0c76" y="546.274"/><use style="fill-opacity:0;stroke:#4c72b0" x="304.713" xlink:href="#m8e304e0c76" y="546.274"/><use style="fill-opacity:0;stroke:#4c72b0" x="306.159" xlink:href="#m8e304e0c76" y="532.764"/><use style="fill-opacity:0;stroke:#4c72b0" x="307.606" xlink:href="#m8e304e0c76" y="546.274"/><use style="fill-opacity:0;stroke:#4c72b0" x="309.052" xlink:href="#m8e304e0c76" y="546.274"/><use style="fill-opacity:0;stroke:#4c72b0" x="310.498" xlink:href="#m8e304e0c76" y="492.234"/><use style="fill-opacity:0;stroke:#4c72b0" x="311.944" xlink:href="#m8e304e0c76" y="492.234"/><use style="fill-opacity:0;stroke:#4c72b0" x="313.39" xlink:href="#m8e304e0c76" y="532.764"/><use style="fill-opacity:0;stroke:#4c72b0" x="314.836" xlink:href="#m8e304e0c76" y="532.764"/><use style="fill-opacity:0;stroke:#4c72b0" x="316.283" xlink:href="#m8e304e0c76" y="532.764"/><use style="fill-opacity:0;stroke:#4c72b0" x="317.729" xlink:href="#m8e304e0c76" y="546.274"/><use style="fill-opacity:0;stroke:#4c72b0" x="319.175" xlink:href="#m8e304e0c76" y="546.274"/><use style="fill-opacity:0;stroke:#4c72b0" x="320.621" xlink:href="#m8e304e0c76" y="546.274"/><use style="fill-opacity:0;stroke:#4c72b0" x="322.067" xlink:href="#m8e304e0c76" y="532.764"/><use style="fill-opacity:0;stroke:#4c72b0" x="323.513" xlink:href="#m8e304e0c76" y="546.274"/><use style="fill-opacity:0;stroke:#4c72b0" x="324.96" xlink:href="#m8e304e0c76" y="546.274"/><use style="fill-opacity:0;stroke:#4c72b0" x="326.406" xlink:href="#m8e304e0c76" y="546.274"/><use style="fill-opacity:0;stroke:#4c72b0" x="327.852" xlink:href="#m8e304e0c76" y="546.274"/><use style="fill-opacity:0;stroke:#4c72b0" x="329.298" xlink:href="#m8e304e0c76" y="546.274"/><use style="fill-opacity:0;stroke:#4c72b0" x="330.744" xlink:href="#m8e304e0c76" y="546.274"/><use style="fill-opacity:0;stroke:#4c72b0" x="332.19" xlink:href="#m8e304e0c76" y="532.764"/><use style="fill-opacity:0;stroke:#4c72b0" x="333.637" xlink:href="#m8e304e0c76" y="546.274"/><use style="fill-opacity:0;stroke:#4c72b0" x="335.083" xlink:href="#m8e304e0c76" y="546.274"/><use style="fill-opacity:0;stroke:#4c72b0" x="336.529" xlink:href="#m8e304e0c76" y="519.254"/><use style="fill-opacity:0;stroke:#4c72b0" x="337.975" xlink:href="#m8e304e0c76" y="546.274"/><use style="fill-opacity:0;stroke:#4c72b0" x="339.421" xlink:href="#m8e304e0c76" y="546.274"/><use style="fill-opacity:0;stroke:#4c72b0" x="340.867" xlink:href="#m8e304e0c76" y="505.744"/><use style="fill-opacity:0;stroke:#4c72b0" x="342.314" xlink:href="#m8e304e0c76" y="532.764"/><use style="fill-opacity:0;stroke:#4c72b0" x="343.76" xlink:href="#m8e304e0c76" y="546.274"/><use style="fill-opacity:0;stroke:#4c72b0" x="345.206" xlink:href="#m8e304e0c76" y="546.274"/><use style="fill-opacity:0;stroke:#4c72b0" x="346.652" xlink:href="#m8e304e0c76" y="546.274"/><use style="fill-opacity:0;stroke:#4c72b0" x="348.098" xlink:href="#m8e304e0c76" y="546.274"/><use style="fill-opacity:0;stroke:#4c72b0" x="349.544" xlink:href="#m8e304e0c76" y="546.274"/><use style="fill-opacity:0;stroke:#4c72b0" x="350.991" xlink:href="#m8e304e0c76" y="546.274"/><use style="fill-opacity:0;stroke:#4c72b0" x="352.437" xlink:href="#m8e304e0c76" y="532.764"/><use style="fill-opacity:0;stroke:#4c72b0" x="353.883" xlink:href="#m8e304e0c76" y="532.764"/><use style="fill-opacity:0;stroke:#4c72b0" x="355.329" xlink:href="#m8e304e0c76" y="546.274"/><use style="fill-opacity:0;stroke:#4c72b0" x="356.775" xlink:href="#m8e304e0c76" y="532.764"/><use style="fill-opacity:0;stroke:#4c72b0" x="358.222" xlink:href="#m8e304e0c76" y="546.274"/><use style="fill-opacity:0;stroke:#4c72b0" x="359.668" xlink:href="#m8e304e0c76" y="546.274"/><use style="fill-opacity:0;stroke:#4c72b0" x="361.114" xlink:href="#m8e304e0c76" y="546.274"/><use style="fill-opacity:0;stroke:#4c72b0" x="362.56" xlink:href="#m8e304e0c76" y="532.764"/><use style="fill-opacity:0;stroke:#4c72b0" x="364.006" xlink:href="#m8e304e0c76" y="546.274"/><use style="fill-opacity:0;stroke:#4c72b0" x="365.452" xlink:href="#m8e304e0c76" y="546.274"/><use style="fill-opacity:0;stroke:#4c72b0" x="366.899" xlink:href="#m8e304e0c76" y="546.274"/><use style="fill-opacity:0;stroke:#4c72b0" x="368.345" xlink:href="#m8e304e0c76" y="546.274"/><use style="fill-opacity:0;stroke:#4c72b0" x="369.791" xlink:href="#m8e304e0c76" y="546.274"/><use style="fill-opacity:0;stroke:#4c72b0" x="371.237" xlink:href="#m8e304e0c76" y="519.254"/><use style="fill-opacity:0;stroke:#4c72b0" x="372.683" xlink:href="#m8e304e0c76" y="546.274"/><use style="fill-opacity:0;stroke:#4c72b0" x="374.129" xlink:href="#m8e304e0c76" y="532.764"/><use style="fill-opacity:0;stroke:#4c72b0" x="375.576" xlink:href="#m8e304e0c76" y="532.764"/><use style="fill-opacity:0;stroke:#4c72b0" x="377.022" xlink:href="#m8e304e0c76" y="532.764"/><use style="fill-opacity:0;stroke:#4c72b0" x="378.468" xlink:href="#m8e304e0c76" y="546.274"/><use style="fill-opacity:0;stroke:#4c72b0" x="379.914" xlink:href="#m8e304e0c76" y="546.274"/><use style="fill-opacity:0;stroke:#4c72b0" x="381.36" xlink:href="#m8e304e0c76" y="492.234"/><use style="fill-opacity:0;stroke:#4c72b0" x="382.806" xlink:href="#m8e304e0c76" y="546.274"/><use style="fill-opacity:0;stroke:#4c72b0" x="384.253" xlink:href="#m8e304e0c76" y="532.764"/><use style="fill-opacity:0;stroke:#4c72b0" x="385.699" xlink:href="#m8e304e0c76" y="546.274"/><use style="fill-opacity:0;stroke:#4c72b0" x="387.145" xlink:href="#m8e304e0c76" y="546.274"/><use style="fill-opacity:0;stroke:#4c72b0" x="388.591" xlink:href="#m8e304e0c76" y="546.274"/><use style="fill-opacity:0;stroke:#4c72b0" x="390.037" xlink:href="#m8e304e0c76" y="546.274"/><use style="fill-opacity:0;stroke:#4c72b0" x="391.483" xlink:href="#m8e304e0c76" y="465.213"/><use style="fill-opacity:0;stroke:#4c72b0" x="392.93" xlink:href="#m8e304e0c76" y="532.764"/><use style="fill-opacity:0;stroke:#4c72b0" x="394.376" xlink:href="#m8e304e0c76" y="546.274"/><use style="fill-opacity:0;stroke:#4c72b0" x="395.822" xlink:href="#m8e304e0c76" y="532.764"/><use style="fill-opacity:0;stroke:#4c72b0" x="397.268" xlink:href="#m8e304e0c76" y="519.254"/><use style="fill-opacity:0;stroke:#4c72b0" x="398.714" xlink:href="#m8e304e0c76" y="546.274"/><use style="fill-opacity:0;stroke:#4c72b0" x="400.161" xlink:href="#m8e304e0c76" y="546.274"/><use style="fill-opacity:0;stroke:#4c72b0" x="401.607" xlink:href="#m8e304e0c76" y="519.254"/><use style="fill-opacity:0;stroke:#4c72b0" x="403.053" xlink:href="#m8e304e0c76" y="532.764"/><use style="fill-opacity:0;stroke:#4c72b0" x="404.499" xlink:href="#m8e304e0c76" y="546.274"/><use style="fill-opacity:0;stroke:#4c72b0" x="405.945" xlink:href="#m8e304e0c76" y="546.274"/><use style="fill-opacity:0;stroke:#4c72b0" x="407.391" xlink:href="#m8e304e0c76" y="546.274"/><use style="fill-opacity:0;stroke:#4c72b0" x="408.838" xlink:href="#m8e304e0c76" y="546.274"/><use style="fill-opacity:0;stroke:#4c72b0" x="410.284" xlink:href="#m8e304e0c76" y="546.274"/><use style="fill-opacity:0;stroke:#4c72b0" x="411.73" xlink:href="#m8e304e0c76" y="546.274"/><use style="fill-opacity:0;stroke:#4c72b0" x="413.176" xlink:href="#m8e304e0c76" y="505.744"/><use style="fill-opacity:0;stroke:#4c72b0" x="414.622" xlink:href="#m8e304e0c76" y="532.764"/><use style="fill-opacity:0;stroke:#4c72b0" x="416.068" xlink:href="#m8e304e0c76" y="532.764"/><use style="fill-opacity:0;stroke:#4c72b0" x="417.515" xlink:href="#m8e304e0c76" y="546.274"/><use style="fill-opacity:0;stroke:#4c72b0" x="418.961" xlink:href="#m8e304e0c76" y="546.274"/><use style="fill-opacity:0;stroke:#4c72b0" x="420.407" xlink:href="#m8e304e0c76" y="546.274"/><use style="fill-opacity:0;stroke:#4c72b0" x="421.853" xlink:href="#m8e304e0c76" y="532.764"/><use style="fill-opacity:0;stroke:#4c72b0" x="423.299" xlink:href="#m8e304e0c76" y="546.274"/><use style="fill-opacity:0;stroke:#4c72b0" x="424.745" xlink:href="#m8e304e0c76" y="546.274"/><use style="fill-opacity:0;stroke:#4c72b0" x="426.192" xlink:href="#m8e304e0c76" y="532.764"/><use style="fill-opacity:0;stroke:#4c72b0" x="427.638" xlink:href="#m8e304e0c76" y="546.274"/><use style="fill-opacity:0;stroke:#4c72b0" x="429.084" xlink:href="#m8e304e0c76" y="546.274"/><use style="fill-opacity:0;stroke:#4c72b0" x="430.53" xlink:href="#m8e304e0c76" y="546.274"/><use style="fill-opacity:0;stroke:#4c72b0" x="431.976" xlink:href="#m8e304e0c76" y="532.764"/><use style="fill-opacity:0;stroke:#4c72b0" x="433.422" xlink:href="#m8e304e0c76" y="546.274"/><use style="fill-opacity:0;stroke:#4c72b0" x="434.869" xlink:href="#m8e304e0c76" y="532.764"/><use style="fill-opacity:0;stroke:#4c72b0" x="436.315" xlink:href="#m8e304e0c76" y="546.274"/><use style="fill-opacity:0;stroke:#4c72b0" x="437.761" xlink:href="#m8e304e0c76" y="546.274"/><use style="fill-opacity:0;stroke:#4c72b0" x="439.207" xlink:href="#m8e304e0c76" y="546.274"/><use style="fill-opacity:0;stroke:#4c72b0" x="440.653" xlink:href="#m8e304e0c76" y="546.274"/><use style="fill-opacity:0;stroke:#4c72b0" x="442.1" xlink:href="#m8e304e0c76" y="546.274"/><use style="fill-opacity:0;stroke:#4c72b0" x="443.546" xlink:href="#m8e304e0c76" y="546.274"/><use style="fill-opacity:0;stroke:#4c72b0" x="444.992" xlink:href="#m8e304e0c76" y="532.764"/><use style="fill-opacity:0;stroke:#4c72b0" x="446.438" xlink:href="#m8e304e0c76" y="546.274"/><use style="fill-opacity:0;stroke:#4c72b0" x="447.884" xlink:href="#m8e304e0c76" y="532.764"/><use style="fill-opacity:0;stroke:#4c72b0" x="449.33" xlink:href="#m8e304e0c76" y="546.274"/><use style="fill-opacity:0;stroke:#4c72b0" x="450.777" xlink:href="#m8e304e0c76" y="546.274"/><use style="fill-opacity:0;stroke:#4c72b0" x="452.223" xlink:href="#m8e304e0c76" y="532.764"/><use style="fill-opacity:0;stroke:#4c72b0" x="453.669" xlink:href="#m8e304e0c76" y="546.274"/><use style="fill-opacity:0;stroke:#4c72b0" x="455.115" xlink:href="#m8e304e0c76" y="546.274"/><use style="fill-opacity:0;stroke:#4c72b0" x="456.561" xlink:href="#m8e304e0c76" y="532.764"/><use style="fill-opacity:0;stroke:#4c72b0" x="458.007" xlink:href="#m8e304e0c76" y="532.764"/><use style="fill-opacity:0;stroke:#4c72b0" x="459.454" xlink:href="#m8e304e0c76" y="546.274"/><use style="fill-opacity:0;stroke:#4c72b0" x="460.9" xlink:href="#m8e304e0c76" y="546.274"/><use style="fill-opacity:0;stroke:#4c72b0" x="462.346" xlink:href="#m8e304e0c76" y="546.274"/><use style="fill-opacity:0;stroke:#4c72b0" x="463.792" xlink:href="#m8e304e0c76" y="519.254"/><use style="fill-opacity:0;stroke:#4c72b0" x="465.238" xlink:href="#m8e304e0c76" y="532.764"/><use style="fill-opacity:0;stroke:#4c72b0" x="466.684" xlink:href="#m8e304e0c76" y="532.764"/><use style="fill-opacity:0;stroke:#4c72b0" x="468.131" xlink:href="#m8e304e0c76" y="546.274"/><use style="fill-opacity:0;stroke:#4c72b0" x="469.577" xlink:href="#m8e304e0c76" y="546.274"/><use style="fill-opacity:0;stroke:#4c72b0" x="471.023" xlink:href="#m8e304e0c76" y="546.274"/><use style="fill-opacity:0;stroke:#4c72b0" x="472.469" xlink:href="#m8e304e0c76" y="532.764"/><use style="fill-opacity:0;stroke:#4c72b0" x="473.915" xlink:href="#m8e304e0c76" y="546.274"/><use style="fill-opacity:0;stroke:#4c72b0" x="475.361" xlink:href="#m8e304e0c76" y="492.234"/><use style="fill-opacity:0;stroke:#4c72b0" x="476.808" xlink:href="#m8e304e0c76" y="546.274"/><use style="fill-opacity:0;stroke:#4c72b0" x="478.254" xlink:href="#m8e304e0c76" y="546.274"/><use style="fill-opacity:0;stroke:#4c72b0" x="479.7" xlink:href="#m8e304e0c76" y="546.274"/><use style="fill-opacity:0;stroke:#4c72b0" x="481.146" xlink:href="#m8e304e0c76" y="546.274"/><use style="fill-opacity:0;stroke:#4c72b0" x="482.592" xlink:href="#m8e304e0c76" y="546.274"/><use style="fill-opacity:0;stroke:#4c72b0" x="484.039" xlink:href="#m8e304e0c76" y="505.744"/><use style="fill-opacity:0;stroke:#4c72b0" x="485.485" xlink:href="#m8e304e0c76" y="546.274"/><use style="fill-opacity:0;stroke:#4c72b0" x="486.931" xlink:href="#m8e304e0c76" y="546.274"/><use style="fill-opacity:0;stroke:#4c72b0" x="488.377" xlink:href="#m8e304e0c76" y="546.274"/><use style="fill-opacity:0;stroke:#4c72b0" x="489.823" xlink:href="#m8e304e0c76" y="546.274"/><use style="fill-opacity:0;stroke:#4c72b0" x="491.269" xlink:href="#m8e304e0c76" y="546.274"/><use style="fill-opacity:0;stroke:#4c72b0" x="492.716" xlink:href="#m8e304e0c76" y="532.764"/><use style="fill-opacity:0;stroke:#4c72b0" x="494.162" xlink:href="#m8e304e0c76" y="546.274"/><use style="fill-opacity:0;stroke:#4c72b0" x="495.608" xlink:href="#m8e304e0c76" y="519.254"/><use style="fill-opacity:0;stroke:#4c72b0" x="497.054" xlink:href="#m8e304e0c76" y="532.764"/><use style="fill-opacity:0;stroke:#4c72b0" x="498.5" xlink:href="#m8e304e0c76" y="546.274"/><use style="fill-opacity:0;stroke:#4c72b0" x="499.946" xlink:href="#m8e304e0c76" y="546.274"/><use style="fill-opacity:0;stroke:#4c72b0" x="501.393" xlink:href="#m8e304e0c76" y="546.274"/><use style="fill-opacity:0;stroke:#4c72b0" x="502.839" xlink:href="#m8e304e0c76" y="505.744"/><use style="fill-opacity:0;stroke:#4c72b0" x="504.285" xlink:href="#m8e304e0c76" y="546.274"/><use style="fill-opacity:0;stroke:#4c72b0" x="505.731" xlink:href="#m8e304e0c76" y="532.764"/><use style="fill-opacity:0;stroke:#4c72b0" x="507.177" xlink:href="#m8e304e0c76" y="546.274"/><use style="fill-opacity:0;stroke:#4c72b0" x="508.623" xlink:href="#m8e304e0c76" y="546.274"/><use style="fill-opacity:0;stroke:#4c72b0" x="510.07" xlink:href="#m8e304e0c76" y="546.274"/><use style="fill-opacity:0;stroke:#4c72b0" x="511.516" xlink:href="#m8e304e0c76" y="546.274"/><use style="fill-opacity:0;stroke:#4c72b0" x="512.962" xlink:href="#m8e304e0c76" y="546.274"/><use style="fill-opacity:0;stroke:#4c72b0" x="514.408" xlink:href="#m8e304e0c76" y="546.274"/><use style="fill-opacity:0;stroke:#4c72b0" x="515.854" xlink:href="#m8e304e0c76" y="546.274"/><use style="fill-opacity:0;stroke:#4c72b0" x="517.3" xlink:href="#m8e304e0c76" y="546.274"/><use style="fill-opacity:0;stroke:#4c72b0" x="518.747" xlink:href="#m8e304e0c76" y="546.274"/><use style="fill-opacity:0;stroke:#4c72b0" x="520.193" xlink:href="#m8e304e0c76" y="546.274"/><use style="fill-opacity:0;stroke:#4c72b0" x="521.639" xlink:href="#m8e304e0c76" y="546.274"/><use style="fill-opacity:0;stroke:#4c72b0" x="523.085" xlink:href="#m8e304e0c76" y="519.254"/><use style="fill-opacity:0;stroke:#4c72b0" x="524.531" xlink:href="#m8e304e0c76" y="532.764"/><use style="fill-opacity:0;stroke:#4c72b0" x="525.978" xlink:href="#m8e304e0c76" y="478.723"/><use style="fill-opacity:0;stroke:#4c72b0" x="527.424" xlink:href="#m8e304e0c76" y="424.683"/><use style="fill-opacity:0;stroke:#4c72b0" x="528.87" xlink:href="#m8e304e0c76" y="519.254"/><use style="fill-opacity:0;stroke:#4c72b0" x="530.316" xlink:href="#m8e304e0c76" y="546.274"/><use style="fill-opacity:0;stroke:#4c72b0" x="531.762" xlink:href="#m8e304e0c76" y="546.274"/><use style="fill-opacity:0;stroke:#4c72b0" x="533.208" xlink:href="#m8e304e0c76" y="519.254"/><use style="fill-opacity:0;stroke:#4c72b0" x="534.655" xlink:href="#m8e304e0c76" y="465.213"/><use style="fill-opacity:0;stroke:#4c72b0" x="536.101" xlink:href="#m8e304e0c76" y="532.764"/><use style="fill-opacity:0;stroke:#4c72b0" x="537.547" xlink:href="#m8e304e0c76" y="478.723"/><use style="fill-opacity:0;stroke:#4c72b0" x="538.993" xlink:href="#m8e304e0c76" y="478.723"/><use style="fill-opacity:0;stroke:#4c72b0" x="540.439" xlink:href="#m8e304e0c76" y="505.744"/><use style="fill-opacity:0;stroke:#4c72b0" x="541.885" xlink:href="#m8e304e0c76" y="505.744"/><use style="fill-opacity:0;stroke:#4c72b0" x="543.332" xlink:href="#m8e304e0c76" y="519.254"/><use style="fill-opacity:0;stroke:#4c72b0" x="544.778" xlink:href="#m8e304e0c76" y="546.274"/><use style="fill-opacity:0;stroke:#4c72b0" x="546.224" xlink:href="#m8e304e0c76" y="492.234"/><use style="fill-opacity:0;stroke:#4c72b0" x="547.67" xlink:href="#m8e304e0c76" y="546.274"/><use style="fill-opacity:0;stroke:#4c72b0" x="549.116" xlink:href="#m8e304e0c76" y="546.274"/><use style="fill-opacity:0;stroke:#4c72b0" x="550.562" xlink:href="#m8e304e0c76" y="546.274"/><use style="fill-opacity:0;stroke:#4c72b0" x="552.009" xlink:href="#m8e304e0c76" y="546.274"/><use style="fill-opacity:0;stroke:#4c72b0" x="553.455" xlink:href="#m8e304e0c76" y="465.213"/><use style="fill-opacity:0;stroke:#4c72b0" x="554.901" xlink:href="#m8e304e0c76" y="492.234"/><use style="fill-opacity:0;stroke:#4c72b0" x="556.347" xlink:href="#m8e304e0c76" y="478.723"/><use style="fill-opacity:0;stroke:#4c72b0" x="557.793" xlink:href="#m8e304e0c76" y="478.723"/><use style="fill-opacity:0;stroke:#4c72b0" x="559.239" xlink:href="#m8e304e0c76" y="478.723"/><use style="fill-opacity:0;stroke:#4c72b0" x="560.686" xlink:href="#m8e304e0c76" y="546.274"/><use style="fill-opacity:0;stroke:#4c72b0" x="562.132" xlink:href="#m8e304e0c76" y="546.274"/><use style="fill-opacity:0;stroke:#4c72b0" x="563.578" xlink:href="#m8e304e0c76" y="384.153"/><use style="fill-opacity:0;stroke:#4c72b0" x="565.024" xlink:href="#m8e304e0c76" y="532.764"/><use style="fill-opacity:0;stroke:#4c72b0" x="566.47" xlink:href="#m8e304e0c76" y="451.703"/><use style="fill-opacity:0;stroke:#4c72b0" x="567.917" xlink:href="#m8e304e0c76" y="505.744"/><use style="fill-opacity:0;stroke:#4c72b0" x="569.363" xlink:href="#m8e304e0c76" y="478.723"/><use style="fill-opacity:0;stroke:#4c72b0" x="570.809" xlink:href="#m8e304e0c76" y="546.274"/><use style="fill-opacity:0;stroke:#4c72b0" x="572.255" xlink:href="#m8e304e0c76" y="546.274"/><use style="fill-opacity:0;stroke:#4c72b0" x="573.701" xlink:href="#m8e304e0c76" y="289.582"/><use style="fill-opacity:0;stroke:#4c72b0" x="575.147" xlink:href="#m8e304e0c76" y="492.234"/><use style="fill-opacity:0;stroke:#4c72b0" x="576.594" xlink:href="#m8e304e0c76" y="546.274"/><use style="fill-opacity:0;stroke:#4c72b0" x="578.04" xlink:href="#m8e304e0c76" y="316.602"/><use style="fill-opacity:0;stroke:#4c72b0" x="579.486" xlink:href="#m8e304e0c76" y="451.703"/><use style="fill-opacity:0;stroke:#4c72b0" x="580.932" xlink:href="#m8e304e0c76" y="546.274"/><use style="fill-opacity:0;stroke:#4c72b0" x="582.378" xlink:href="#m8e304e0c76" y="546.274"/><use style="fill-opacity:0;stroke:#4c72b0" x="583.824" xlink:href="#m8e304e0c76" y="330.112"/><use style="fill-opacity:0;stroke:#4c72b0" x="585.271" xlink:href="#m8e304e0c76" y="384.153"/><use style="fill-opacity:0;stroke:#4c72b0" x="586.717" xlink:href="#m8e304e0c76" y="384.153"/><use style="fill-opacity:0;stroke:#4c72b0" x="588.163" xlink:href="#m8e304e0c76" y="438.193"/><use style="fill-opacity:0;stroke:#4c72b0" x="589.609" xlink:href="#m8e304e0c76" y="357.132"/><use style="fill-opacity:0;stroke:#4c72b0" x="591.055" xlink:href="#m8e304e0c76" y="478.723"/><use style="fill-opacity:0;stroke:#4c72b0" x="592.501" xlink:href="#m8e304e0c76" y="546.274"/><use style="fill-opacity:0;stroke:#4c72b0" x="593.948" xlink:href="#m8e304e0c76" y="357.132"/><use style="fill-opacity:0;stroke:#4c72b0" x="595.394" xlink:href="#m8e304e0c76" y="438.193"/><use style="fill-opacity:0;stroke:#4c72b0" x="596.84" xlink:href="#m8e304e0c76" y="465.213"/><use style="fill-opacity:0;stroke:#4c72b0" x="598.286" xlink:href="#m8e304e0c76" y="546.274"/><use style="fill-opacity:0;stroke:#4c72b0" x="599.732" xlink:href="#m8e304e0c76" y="546.274"/><use style="fill-opacity:0;stroke:#4c72b0" x="601.178" xlink:href="#m8e304e0c76" y="276.072"/><use style="fill-opacity:0;stroke:#4c72b0" x="602.625" xlink:href="#m8e304e0c76" y="546.274"/><use style="fill-opacity:0;stroke:#4c72b0" x="604.071" xlink:href="#m8e304e0c76" y="357.132"/><use style="fill-opacity:0;stroke:#4c72b0" x="605.517" xlink:href="#m8e304e0c76" y="451.703"/><use style="fill-opacity:0;stroke:#4c72b0" x="606.963" xlink:href="#m8e304e0c76" y="397.663"/><use style="fill-opacity:0;stroke:#4c72b0" x="608.409" xlink:href="#m8e304e0c76" y="330.112"/><use style="fill-opacity:0;stroke:#4c72b0" x="609.856" xlink:href="#m8e304e0c76" y="222.031"/><use style="fill-opacity:0;stroke:#4c72b0" x="611.302" xlink:href="#m8e304e0c76" y="397.663"/><use style="fill-opacity:0;stroke:#4c72b0" x="612.748" xlink:href="#m8e304e0c76" y="546.274"/><use style="fill-opacity:0;stroke:#4c72b0" x="614.194" xlink:href="#m8e304e0c76" y="397.663"/><use style="fill-opacity:0;stroke:#4c72b0" x="615.64" xlink:href="#m8e304e0c76" y="384.153"/><use style="fill-opacity:0;stroke:#4c72b0" x="617.086" xlink:href="#m8e304e0c76" y="478.723"/><use style="fill-opacity:0;stroke:#4c72b0" x="618.533" xlink:href="#m8e304e0c76" y="303.092"/><use style="fill-opacity:0;stroke:#4c72b0" x="619.979" xlink:href="#m8e304e0c76" y="424.683"/><use style="fill-opacity:0;stroke:#4c72b0" x="621.425" xlink:href="#m8e304e0c76" y="546.274"/><use style="fill-opacity:0;stroke:#4c72b0" x="622.871" xlink:href="#m8e304e0c76" y="546.274"/><use style="fill-opacity:0;stroke:#4c72b0" x="624.317" xlink:href="#m8e304e0c76" y="357.132"/><use style="fill-opacity:0;stroke:#4c72b0" x="625.763" xlink:href="#m8e304e0c76" y="424.683"/><use style="fill-opacity:0;stroke:#4c72b0" x="627.21" xlink:href="#m8e304e0c76" y="451.703"/><use style="fill-opacity:0;stroke:#4c72b0" x="628.656" xlink:href="#m8e304e0c76" y="546.274"/><use style="fill-opacity:0;stroke:#4c72b0" x="630.102" xlink:href="#m8e304e0c76" y="316.602"/><use style="fill-opacity:0;stroke:#4c72b0" x="631.548" xlink:href="#m8e304e0c76" y="546.274"/><use style="fill-opacity:0;stroke:#4c72b0" x="632.994" xlink:href="#m8e304e0c76" y="546.274"/><use style="fill-opacity:0;stroke:#4c72b0" x="634.44" xlink:href="#m8e304e0c76" y="181.501"/><use style="fill-opacity:0;stroke:#4c72b0" x="635.887" xlink:href="#m8e304e0c76" y="451.703"/><use style="fill-opacity:0;stroke:#4c72b0" x="637.333" xlink:href="#m8e304e0c76" y="181.501"/><use style="fill-opacity:0;stroke:#4c72b0" x="638.779" xlink:href="#m8e304e0c76" y="478.723"/><use style="fill-opacity:0;stroke:#4c72b0" x="640.225" xlink:href="#m8e304e0c76" y="546.274"/><use style="fill-opacity:0;stroke:#4c72b0" x="641.671" xlink:href="#m8e304e0c76" y="546.274"/><use style="fill-opacity:0;stroke:#4c72b0" x="643.117" xlink:href="#m8e304e0c76" y="546.274"/><use style="fill-opacity:0;stroke:#4c72b0" x="644.564" xlink:href="#m8e304e0c76" y="140.97"/><use style="fill-opacity:0;stroke:#4c72b0" x="646.01" xlink:href="#m8e304e0c76" y="478.723"/><use style="fill-opacity:0;stroke:#4c72b0" x="647.456" xlink:href="#m8e304e0c76" y="289.582"/><use style="fill-opacity:0;stroke:#4c72b0" x="648.902" xlink:href="#m8e304e0c76" y="397.663"/><use style="fill-opacity:0;stroke:#4c72b0" x="650.348" xlink:href="#m8e304e0c76" y="546.274"/><use style="fill-opacity:0;stroke:#4c72b0" x="651.794" xlink:href="#m8e304e0c76" y="546.274"/><use style="fill-opacity:0;stroke:#4c72b0" x="653.241" xlink:href="#m8e304e0c76" y="546.274"/><use style="fill-opacity:0;stroke:#4c72b0" x="654.687" xlink:href="#m8e304e0c76" y="100.44"/><use style="fill-opacity:0;stroke:#4c72b0" x="656.133" xlink:href="#m8e304e0c76" y="303.092"/><use style="fill-opacity:0;stroke:#4c72b0" x="657.579" xlink:href="#m8e304e0c76" y="357.132"/><use style="fill-opacity:0;stroke:#4c72b0" x="659.025" xlink:href="#m8e304e0c76" y="343.622"/><use style="fill-opacity:0;stroke:#4c72b0" x="660.472" xlink:href="#m8e304e0c76" y="384.153"/><use style="fill-opacity:0;stroke:#4c72b0" x="661.918" xlink:href="#m8e304e0c76" y="411.173"/><use style="fill-opacity:0;stroke:#4c72b0" x="663.364" xlink:href="#m8e304e0c76" y="546.274"/><use style="fill-opacity:0;stroke:#4c72b0" x="664.81" xlink:href="#m8e304e0c76" y="249.051"/><use style="fill-opacity:0;stroke:#4c72b0" x="666.256" xlink:href="#m8e304e0c76" y="397.663"/><use style="fill-opacity:0;stroke:#4c72b0" x="667.702" xlink:href="#m8e304e0c76" y="343.622"/><use style="fill-opacity:0;stroke:#4c72b0" x="669.149" xlink:href="#m8e304e0c76" y="411.173"/><use style="fill-opacity:0;stroke:#4c72b0" x="670.595" xlink:href="#m8e304e0c76" y="411.173"/><use style="fill-opacity:0;stroke:#4c72b0" x="672.041" xlink:href="#m8e304e0c76" y="546.274"/><use style="fill-opacity:0;stroke:#4c72b0" x="673.487" xlink:href="#m8e304e0c76" y="546.274"/><use style="fill-opacity:0;stroke:#4c72b0" x="674.933" xlink:href="#m8e304e0c76" y="546.274"/><use style="fill-opacity:0;stroke:#4c72b0" x="676.379" xlink:href="#m8e304e0c76" y="262.561"/><use style="fill-opacity:0;stroke:#4c72b0" x="677.826" xlink:href="#m8e304e0c76" y="411.173"/><use style="fill-opacity:0;stroke:#4c72b0" x="679.272" xlink:href="#m8e304e0c76" y="492.234"/><use style="fill-opacity:0;stroke:#4c72b0" x="680.718" xlink:href="#m8e304e0c76" y="505.744"/><use style="fill-opacity:0;stroke:#4c72b0" x="682.164" xlink:href="#m8e304e0c76" y="546.274"/><use style="fill-opacity:0;stroke:#4c72b0" x="683.61" xlink:href="#m8e304e0c76" y="546.274"/><use style="fill-opacity:0;stroke:#4c72b0" x="685.056" xlink:href="#m8e304e0c76" y="127.46"/><use style="fill-opacity:0;stroke:#4c72b0" x="686.503" xlink:href="#m8e304e0c76" y="492.234"/><use style="fill-opacity:0;stroke:#4c72b0" x="687.949" xlink:href="#m8e304e0c76" y="465.213"/><use style="fill-opacity:0;stroke:#4c72b0" x="689.395" xlink:href="#m8e304e0c76" y="465.213"/><use style="fill-opacity:0;stroke:#4c72b0" x="690.841" xlink:href="#m8e304e0c76" y="330.112"/><use style="fill-opacity:0;stroke:#4c72b0" x="692.287" xlink:href="#m8e304e0c76" y="478.723"/><use style="fill-opacity:0;stroke:#4c72b0" x="693.733" xlink:href="#m8e304e0c76" y="546.274"/><use style="fill-opacity:0;stroke:#4c72b0" x="695.18" xlink:href="#m8e304e0c76" y="546.274"/><use style="fill-opacity:0;stroke:#4c72b0" x="696.626" xlink:href="#m8e304e0c76" y="546.274"/><use style="fill-opacity:0;stroke:#4c72b0" x="698.072" xlink:href="#m8e304e0c76" y="195.011"/><use style="fill-opacity:0;stroke:#4c72b0" x="699.518" xlink:href="#m8e304e0c76" y="438.193"/><use style="fill-opacity:0;stroke:#4c72b0" x="700.964" xlink:href="#m8e304e0c76" y="451.703"/><use style="fill-opacity:0;stroke:#4c72b0" x="702.411" xlink:href="#m8e304e0c76" y="546.274"/><use style="fill-opacity:0;stroke:#4c72b0" x="703.857" xlink:href="#m8e304e0c76" y="546.274"/><use style="fill-opacity:0;stroke:#4c72b0" x="705.303" xlink:href="#m8e304e0c76" y="330.112"/><use style="fill-opacity:0;stroke:#4c72b0" x="706.749" xlink:href="#m8e304e0c76" y="451.703"/><use style="fill-opacity:0;stroke:#4c72b0" x="708.195" xlink:href="#m8e304e0c76" y="478.723"/><use style="fill-opacity:0;stroke:#4c72b0" x="709.641" xlink:href="#m8e304e0c76" y="465.213"/><use style="fill-opacity:0;stroke:#4c72b0" x="711.088" xlink:href="#m8e304e0c76" y="478.723"/><use style="fill-opacity:0;stroke:#4c72b0" x="712.534" xlink:href="#m8e304e0c76" y="451.703"/><use style="fill-opacity:0;stroke:#4c72b0" x="713.98" xlink:href="#m8e304e0c76" y="546.274"/><use style="fill-opacity:0;stroke:#4c72b0" x="715.426" xlink:href="#m8e304e0c76" y="546.274"/><use style="fill-opacity:0;stroke:#4c72b0" x="716.872" xlink:href="#m8e304e0c76" y="357.132"/><use style="fill-opacity:0;stroke:#4c72b0" x="718.318" xlink:href="#m8e304e0c76" y="478.723"/><use style="fill-opacity:0;stroke:#4c72b0" x="719.765" xlink:href="#m8e304e0c76" y="505.744"/><use style="fill-opacity:0;stroke:#4c72b0" x="721.211" xlink:href="#m8e304e0c76" y="478.723"/><use style="fill-opacity:0;stroke:#4c72b0" x="722.657" xlink:href="#m8e304e0c76" y="546.274"/><use style="fill-opacity:0;stroke:#4c72b0" x="724.103" xlink:href="#m8e304e0c76" y="451.703"/><use style="fill-opacity:0;stroke:#4c72b0" x="725.549" xlink:href="#m8e304e0c76" y="492.234"/><use style="fill-opacity:0;stroke:#4c72b0" x="726.995" xlink:href="#m8e304e0c76" y="465.213"/><use style="fill-opacity:0;stroke:#4c72b0" x="728.442" xlink:href="#m8e304e0c76" y="492.234"/><use style="fill-opacity:0;stroke:#4c72b0" x="729.888" xlink:href="#m8e304e0c76" y="370.642"/><use style="fill-opacity:0;stroke:#4c72b0" x="731.334" xlink:href="#m8e304e0c76" y="424.683"/><use style="fill-opacity:0;stroke:#4c72b0" x="732.78" xlink:href="#m8e304e0c76" y="546.274"/><use style="fill-opacity:0;stroke:#4c72b0" x="734.226" xlink:href="#m8e304e0c76" y="546.274"/><use style="fill-opacity:0;stroke:#4c72b0" x="735.672" xlink:href="#m8e304e0c76" y="330.112"/><use style="fill-opacity:0;stroke:#4c72b0" x="737.119" xlink:href="#m8e304e0c76" y="411.173"/><use style="fill-opacity:0;stroke:#4c72b0" x="738.565" xlink:href="#m8e304e0c76" y="465.213"/><use style="fill-opacity:0;stroke:#4c72b0" x="740.011" xlink:href="#m8e304e0c76" y="505.744"/><use style="fill-opacity:0;stroke:#4c72b0" x="741.457" xlink:href="#m8e304e0c76" y="357.132"/><use style="fill-opacity:0;stroke:#4c72b0" x="742.903" xlink:href="#m8e304e0c76" y="546.274"/><use style="fill-opacity:0;stroke:#4c72b0" x="744.35" xlink:href="#m8e304e0c76" y="546.274"/><use style="fill-opacity:0;stroke:#4c72b0" x="745.796" xlink:href="#m8e304e0c76" y="357.132"/><use style="fill-opacity:0;stroke:#4c72b0" x="747.242" xlink:href="#m8e304e0c76" y="492.234"/><use style="fill-opacity:0;stroke:#4c72b0" x="748.688" xlink:href="#m8e304e0c76" y="438.193"/><use style="fill-opacity:0;stroke:#4c72b0" x="750.134" xlink:href="#m8e304e0c76" y="357.132"/><use style="fill-opacity:0;stroke:#4c72b0" x="751.58" xlink:href="#m8e304e0c76" y="478.723"/><use style="fill-opacity:0;stroke:#4c72b0" x="753.027" xlink:href="#m8e304e0c76" y="546.274"/><use style="fill-opacity:0;stroke:#4c72b0" x="754.473" xlink:href="#m8e304e0c76" y="546.274"/><use style="fill-opacity:0;stroke:#4c72b0" x="755.919" xlink:href="#m8e304e0c76" y="235.541"/><use style="fill-opacity:0;stroke:#4c72b0" x="757.365" xlink:href="#m8e304e0c76" y="451.703"/><use style="fill-opacity:0;stroke:#4c72b0" x="758.811" xlink:href="#m8e304e0c76" y="438.193"/><use style="fill-opacity:0;stroke:#4c72b0" x="760.257" xlink:href="#m8e304e0c76" y="505.744"/><use style="fill-opacity:0;stroke:#4c72b0" x="761.704" xlink:href="#m8e304e0c76" y="478.723"/><use style="fill-opacity:0;stroke:#4c72b0" x="763.15" xlink:href="#m8e304e0c76" y="546.274"/><use style="fill-opacity:0;stroke:#4c72b0" x="764.596" xlink:href="#m8e304e0c76" y="546.274"/><use style="fill-opacity:0;stroke:#4c72b0" x="766.042" xlink:href="#m8e304e0c76" y="222.031"/><use style="fill-opacity:0;stroke:#4c72b0" x="767.488" xlink:href="#m8e304e0c76" y="465.213"/><use style="fill-opacity:0;stroke:#4c72b0" x="768.934" xlink:href="#m8e304e0c76" y="451.703"/><use style="fill-opacity:0;stroke:#4c72b0" x="770.381" xlink:href="#m8e304e0c76" y="438.193"/><use style="fill-opacity:0;stroke:#4c72b0" x="771.827" xlink:href="#m8e304e0c76" y="451.703"/><use style="fill-opacity:0;stroke:#4c72b0" x="773.273" xlink:href="#m8e304e0c76" y="546.274"/><use style="fill-opacity:0;stroke:#4c72b0" x="774.719" xlink:href="#m8e304e0c76" y="424.683"/><use style="fill-opacity:0;stroke:#4c72b0" x="776.165" xlink:href="#m8e304e0c76" y="397.663"/><use style="fill-opacity:0;stroke:#4c72b0" x="777.611" xlink:href="#m8e304e0c76" y="438.193"/><use style="fill-opacity:0;stroke:#4c72b0" x="779.058" xlink:href="#m8e304e0c76" y="505.744"/><use style="fill-opacity:0;stroke:#4c72b0" x="780.504" xlink:href="#m8e304e0c76" y="303.092"/><use style="fill-opacity:0;stroke:#4c72b0" x="781.95" xlink:href="#m8e304e0c76" y="424.683"/><use style="fill-opacity:0;stroke:#4c72b0" x="783.396" xlink:href="#m8e304e0c76" y="546.274"/><use style="fill-opacity:0;stroke:#4c72b0" x="784.842" xlink:href="#m8e304e0c76" y="546.274"/><use style="fill-opacity:0;stroke:#4c72b0" x="786.289" xlink:href="#m8e304e0c76" y="316.602"/><use style="fill-opacity:0;stroke:#4c72b0" x="787.735" xlink:href="#m8e304e0c76" y="438.193"/><use style="fill-opacity:0;stroke:#4c72b0" x="790.627" xlink:href="#m8e304e0c76" y="424.683"/><use style="fill-opacity:0;stroke:#4c72b0" x="790.627" xlink:href="#m8e304e0c76" y="438.193"/><use style="fill-opacity:0;stroke:#4c72b0" x="792.073" xlink:href="#m8e304e0c76" y="478.723"/><use style="fill-opacity:0;stroke:#4c72b0" x="793.519" xlink:href="#m8e304e0c76" y="532.764"/><use style="fill-opacity:0;stroke:#4c72b0" x="794.966" xlink:href="#m8e304e0c76" y="546.274"/><use style="fill-opacity:0;stroke:#4c72b0" x="796.412" xlink:href="#m8e304e0c76" y="411.173"/><use style="fill-opacity:0;stroke:#4c72b0" x="797.858" xlink:href="#m8e304e0c76" y="478.723"/><use style="fill-opacity:0;stroke:#4c72b0" x="799.304" xlink:href="#m8e304e0c76" y="478.723"/><use style="fill-opacity:0;stroke:#4c72b0" x="800.75" xlink:href="#m8e304e0c76" y="384.153"/><use style="fill-opacity:0;stroke:#4c72b0" x="802.196" xlink:href="#m8e304e0c76" y="478.723"/><use style="fill-opacity:0;stroke:#4c72b0" x="803.643" xlink:href="#m8e304e0c76" y="546.274"/><use style="fill-opacity:0;stroke:#4c72b0" x="805.089" xlink:href="#m8e304e0c76" y="546.274"/><use style="fill-opacity:0;stroke:#4c72b0" x="806.535" xlink:href="#m8e304e0c76" y="505.744"/><use style="fill-opacity:0;stroke:#4c72b0" x="807.981" xlink:href="#m8e304e0c76" y="532.764"/><use style="fill-opacity:0;stroke:#4c72b0" x="809.427" xlink:href="#m8e304e0c76" y="465.213"/></g></g><path d="M117 576.72V77.76" style="fill:none;stroke:#d3d3d3;stroke-linecap:square;stroke-linejoin:miter;stroke-width:1.25" id="patch_3"/><path d="M117 576.72h725.4" style="fill:none;stroke:#d3d3d3;stroke-linecap:square;stroke-linejoin:miter;stroke-width:1.25" id="patch_4"/><g id="matplotlib.axis_1"><g id="xtick_1"><g style="fill:#696969" transform="matrix(.16 0 0 -.16 108.717 598.378)" id="text_1"><defs><path d="M9.813 72.906h9.859V5.078q0-13.187-5-19.14-5-5.954-16.094-5.954h-3.75v8.297h3.078q6.531 0 9.219 3.672Q9.813-4.39 9.813 5.078z" id="DejaVuSans-74"/><path d="M34.281 27.484q-10.89 0-15.093-2.484-4.204-2.484-4.204-8.5 0-4.781 3.157-7.594 3.156-2.797 8.562-2.797 7.485 0 12 5.297 4.516 5.297 4.516 14.078v2zm17.922 3.72V0H43.22v8.297Q40.14 3.328 35.547.953q-4.594-2.375-11.234-2.375-8.391 0-13.36 4.719Q6 8.016 6 15.922q0 9.219 6.172 13.906 6.187 4.688 18.437 4.688h12.61v.89q0 6.203-4.078 9.594-4.078 3.39-11.453 3.39-4.688 0-9.141-1.124-4.438-1.125-8.531-3.375v8.312q4.921 1.906 9.562 2.844 4.64.953 9.031.953 11.875 0 17.735-6.156 5.86-6.14 5.86-18.64z" id="DejaVuSans-97"/><path d="M54.89 33.016V0h-8.984v32.719q0 7.765-3.031 11.61-3.031 3.858-9.078 3.858-7.281 0-11.484-4.64-4.204-4.625-4.204-12.64V0H9.08v54.688h9.03v-8.5q3.235 4.937 7.594 7.374Q30.078 56 35.797 56q9.422 0 14.25-5.828 4.844-5.828 4.844-17.156z" id="DejaVuSans-110"/></defs><use xlink:href="#DejaVuSans-74"/><use x="29.492" xlink:href="#DejaVuSans-97"/><use x="90.771" xlink:href="#DejaVuSans-110"/></g></g><g id="xtick_2"><g style="fill:#696969" transform="matrix(.16 0 0 -.16 192.726 598.378)" id="text_2"><defs><path d="M9.813 72.906h14.703l18.593-49.61 18.703 49.61h14.704V0H66.89v64.016l-18.797-50h-9.907l-18.796 50V0H9.813z" id="DejaVuSans-77"/><path d="M41.11 46.297q-1.516.875-3.297 1.281Q36.03 48 33.89 48q-7.625 0-11.703-4.953-4.079-4.953-4.079-14.234V0H9.08v54.688h9.03v-8.5q2.844 4.984 7.375 7.39Q30.031 56 36.531 56q.922 0 2.047-.125 1.125-.11 2.484-.36z" id="DejaVuSans-114"/></defs><use xlink:href="#DejaVuSans-77"/><use x="86.279" xlink:href="#DejaVuSans-97"/><use x="147.559" xlink:href="#DejaVuSans-114"/></g></g><g id="xtick_3"><g style="fill:#696969" transform="matrix(.16 0 0 -.16 279.496 598.378)" id="text_3"><defs><path d="M32.172-5.078q-3.797-9.766-7.422-12.735-3.61-2.984-9.656-2.984H7.906v7.516h5.282q3.703 0 5.75 1.765Q21-9.766 23.483-3.219l1.61 4.094-22.11 53.813H12.5l17.094-42.766 17.093 42.766h9.516z" id="DejaVuSans-121"/></defs><use xlink:href="#DejaVuSans-77"/><use x="86.279" xlink:href="#DejaVuSans-97"/><use x="147.559" xlink:href="#DejaVuSans-121"/></g></g><g id="xtick_4"><g style="fill:#696969" transform="matrix(.16 0 0 -.16 374.6 598.378)" id="text_4"><defs><path d="M8.5 21.578v33.11h8.984V21.922q0-7.766 3.016-11.656 3.031-3.875 9.094-3.875 7.265 0 11.484 4.64 4.234 4.64 4.234 12.656v31h8.985V0h-8.984v8.406Q42.047 3.422 37.718 1q-4.313-2.422-10.032-2.422-9.421 0-14.312 5.86Q8.5 10.296 8.5 21.578zM31.11 56z" id="DejaVuSans-117"/><path d="M9.422 75.984h8.984V0H9.422z" id="DejaVuSans-108"/></defs><use xlink:href="#DejaVuSans-74"/><use x="29.492" xlink:href="#DejaVuSans-117"/><use x="92.871" xlink:href="#DejaVuSans-108"/></g></g><g id="xtick_5"><g style="fill:#696969" transform="matrix(.16 0 0 -.16 458.835 598.378)" id="text_5"><defs><path d="M53.516 70.516V60.89q-5.61 2.687-10.594 4-4.984 1.328-9.625 1.328-8.047 0-12.422-3.125t-4.375-8.89q0-4.845 2.906-7.313 2.907-2.453 11.016-3.97l5.953-1.218q11.031-2.11 16.281-7.406 5.25-5.297 5.25-14.172 0-10.61-7.11-16.078-7.093-5.469-20.812-5.469-5.172 0-11.015 1.172Q13.14.922 6.89 3.219v10.156q6-3.36 11.765-5.078 5.766-1.703 11.328-1.703 8.438 0 13.032 3.312 4.593 3.328 4.593 9.485 0 5.359-3.297 8.39-3.296 3.032-10.812 4.547L27.484 33.5q-11.03 2.188-15.968 6.875-4.922 4.688-4.922 13.047 0 9.672 6.812 15.234 6.813 5.563 18.766 5.563 5.14 0 10.453-.938 5.328-.922 10.89-2.765z" id="DejaVuSans-83"/><path d="M56.203 29.594v-4.39H14.891q.593-9.282 5.593-14.142 5-4.859 13.938-4.859 5.172 0 10.031 1.266 4.86 1.265 9.656 3.812v-8.5Q49.266.734 44.187-.344 39.11-1.422 33.892-1.422q-13.094 0-20.735 7.61-7.64 7.625-7.64 20.625 0 13.421 7.25 21.296Q20.016 56 32.328 56q11.031 0 17.453-7.11 6.422-7.093 6.422-19.296zm-8.984 2.64q-.094 7.36-4.125 11.75-4.032 4.407-10.672 4.407-7.516 0-12.031-4.25-4.516-4.25-5.203-11.97z" id="DejaVuSans-101"/><path d="M18.11 8.203v-29H9.077v75.484h9.031v-8.296q2.844 4.875 7.157 7.234Q29.594 56 35.594 56q9.968 0 16.187-7.906 6.235-7.907 6.235-20.797T51.78 6.484q-6.218-7.906-16.187-7.906-6 0-10.328 2.375-4.313 2.375-7.157 7.25zm30.578 19.094q0 9.906-4.079 15.547-4.078 5.64-11.203 5.64-7.14 0-11.218-5.64-4.079-5.64-4.079-15.547 0-9.906 4.078-15.547 4.079-5.64 11.22-5.64 7.124 0 11.202 5.64t4.078 15.547z" id="DejaVuSans-112"/></defs><use xlink:href="#DejaVuSans-83"/><use x="63.477" xlink:href="#DejaVuSans-101"/><use x="125" xlink:href="#DejaVuSans-112"/></g></g><g id="xtick_6"><g style="fill:#696969" transform="matrix(.16 0 0 -.16 546.517 598.378)" id="text_6"><defs><path d="M9.813 72.906h13.28l32.329-60.984v60.984h9.562V0h-13.28L19.39 60.984V0H9.813z" id="DejaVuSans-78"/><path d="M30.61 48.39q-7.22 0-11.422-5.64-4.204-5.64-4.204-15.453 0-9.813 4.172-15.453 4.188-5.64 11.453-5.64 7.188 0 11.375 5.655 4.203 5.672 4.203 15.438 0 9.719-4.203 15.406-4.187 5.688-11.375 5.688zm0 7.61q11.718 0 18.406-7.625 6.703-7.61 6.703-21.078 0-13.422-6.703-21.078-6.688-7.64-18.407-7.64-11.765 0-18.437 7.64-6.656 7.656-6.656 21.078 0 13.469 6.656 21.078Q18.844 56 30.609 56z" id="DejaVuSans-111"/><path d="M2.984 54.688H12.5L29.594 8.797l17.093 45.89h9.516L35.687 0H23.485z" id="DejaVuSans-118"/></defs><use xlink:href="#DejaVuSans-78"/><use x="74.805" xlink:href="#DejaVuSans-111"/><use x="135.986" xlink:href="#DejaVuSans-118"/></g></g><g id="xtick_7"><g style="fill:#696969" transform="matrix(.16 0 0 -.16 638.016 598.378)" id="text_7"><use xlink:href="#DejaVuSans-74"/><use x="29.492" xlink:href="#DejaVuSans-97"/><use x="90.771" xlink:href="#DejaVuSans-110"/></g></g><g id="xtick_8"><g style="fill:#696969" transform="matrix(.16 0 0 -.16 720.579 598.378)" id="text_8"><use xlink:href="#DejaVuSans-77"/><use x="86.279" xlink:href="#DejaVuSans-97"/><use x="147.559" xlink:href="#DejaVuSans-114"/></g></g><g id="xtick_9"><g style="fill:#696969" transform="matrix(.16 0 0 -.16 807.349 598.378)" id="text_9"><use xlink:href="#DejaVuSans-77"/><use x="86.279" xlink:href="#DejaVuSans-97"/><use x="147.559" xlink:href="#DejaVuSans-121"/></g></g></g><g id="matplotlib.axis_2"><g id="ytick_1"><g style="fill:#696969" transform="matrix(.16 0 0 -.16 97.32 552.353)" id="text_10"><defs><path d="M31.781 66.406q-7.61 0-11.453-7.5Q16.5 51.422 16.5 36.375q0-14.984 3.828-22.484 3.844-7.5 11.453-7.5 7.672 0 11.5 7.5 3.844 7.5 3.844 22.484 0 15.047-3.844 22.531-3.828 7.5-11.5 7.5zm0 7.813q12.266 0 18.735-9.703 6.468-9.688 6.468-28.141 0-18.406-6.468-28.11-6.47-9.687-18.735-9.687-12.25 0-18.718 9.688-6.47 9.703-6.47 28.109 0 18.453 6.47 28.14Q19.53 74.22 31.78 74.22z" id="DejaVuSans-48"/></defs><use xlink:href="#DejaVuSans-48"/></g></g><g id="ytick_2"><g style="fill:#696969" transform="matrix(.16 0 0 -.16 97.32 484.802)" id="text_11"><defs><path d="M10.797 72.906h38.719v-8.312H19.828v-17.86q2.14.735 4.281 1.094 2.157.36 4.313.36 12.203 0 19.328-6.688 7.14-6.688 7.14-18.11 0-11.765-7.328-18.296-7.328-6.516-20.656-6.516-4.593 0-9.36.781-4.75.782-9.827 2.344v9.922q4.39-2.39 9.078-3.563 4.687-1.171 9.906-1.171 8.453 0 13.375 4.437 4.938 4.438 4.938 12.063 0 7.609-4.938 12.047-4.922 4.453-13.375 4.453-3.953 0-7.89-.875-3.922-.875-8.016-2.735z" id="DejaVuSans-53"/></defs><use xlink:href="#DejaVuSans-53"/></g></g><g id="ytick_3"><g style="fill:#696969" transform="matrix(.16 0 0 -.16 87.14 417.252)" id="text_12"><defs><path d="M12.406 8.297h16.11v55.625l-17.532-3.516v8.985l17.438 3.515h9.86V8.296H54.39V0H12.406z" id="DejaVuSans-49"/></defs><use xlink:href="#DejaVuSans-49"/><use x="63.623" xlink:href="#DejaVuSans-48"/></g></g><g id="ytick_4"><g style="fill:#696969" transform="matrix(.16 0 0 -.16 87.14 349.701)" id="text_13"><use xlink:href="#DejaVuSans-49"/><use x="63.623" xlink:href="#DejaVuSans-53"/></g></g><g id="ytick_5"><g style="fill:#696969" transform="matrix(.16 0 0 -.16 87.14 282.15)" id="text_14"><defs><path d="M19.188 8.297h34.421V0H7.33v8.297q5.609 5.812 15.296 15.594 9.703 9.797 12.188 12.64 4.734 5.313 6.609 9 1.89 3.688 1.89 7.25 0 5.813-4.078 9.469-4.078 3.672-10.625 3.672-4.64 0-9.797-1.61-5.14-1.609-11-4.89v9.969Q13.767 71.78 18.938 73q5.188 1.219 9.485 1.219 11.328 0 18.062-5.672 6.735-5.656 6.735-15.125 0-4.5-1.688-8.531-1.672-4.016-6.125-9.485-1.218-1.422-7.765-8.187-6.532-6.766-18.453-18.922z" id="DejaVuSans-50"/></defs><use xlink:href="#DejaVuSans-50"/><use x="63.623" xlink:href="#DejaVuSans-48"/></g></g><g id="ytick_6"><g style="fill:#696969" transform="matrix(.16 0 0 -.16 87.14 214.6)" id="text_15"><use xlink:href="#DejaVuSans-50"/><use x="63.623" xlink:href="#DejaVuSans-53"/></g></g><g id="ytick_7"><g style="fill:#696969" transform="matrix(.16 0 0 -.16 87.14 147.05)" id="text_16"><defs><path d="M40.578 39.313Q47.656 37.797 51.625 33q3.984-4.781 3.984-11.813 0-10.78-7.422-16.703-7.421-5.906-21.093-5.906-4.578 0-9.438.906-4.86.907-10.031 2.72v9.515q4.094-2.39 8.969-3.61 4.89-1.218 10.218-1.218 9.266 0 14.125 3.656 4.86 3.656 4.86 10.64 0 6.454-4.516 10.079-4.515 3.64-12.562 3.64h-8.5v8.11h8.89q7.266 0 11.125 2.906 3.86 2.906 3.86 8.375 0 5.61-3.985 8.61-3.968 3.015-11.39 3.015-4.063 0-8.703-.89-4.641-.876-10.203-2.72v8.782q5.624 1.562 10.53 2.344 4.907.78 9.25.78 11.235 0 17.766-5.109 6.547-5.093 6.547-13.78 0-6.063-3.468-10.235-3.47-4.172-9.86-5.782z" id="DejaVuSans-51"/></defs><use xlink:href="#DejaVuSans-51"/><use x="63.623" xlink:href="#DejaVuSans-48"/></g></g><g style="fill:#696969" transform="matrix(0 -.2 -.2 0 78.98 379.813)" id="text_17"><defs><path d="M51.125 44H36.922l-4.11-16.313h14.313zm-7.328 27.781-5.078-20.265h14.265L58.11 71.78h7.813L60.89 51.516h15.234V44h-17.14l-4-16.313h15.53V20.22H53.079L48 0h-7.813l5.032 20.219H30.906L25.875 0h-7.86l5.079 20.219H7.719v7.468h17.187L29 44H13.281v7.516h17.625l4.985 20.265z" id="DejaVuSans-35"/><path d="M37.11 75.984V68.5h-8.594q-4.828 0-6.72-1.953-1.874-1.953-1.874-7.031v-4.828h14.797v-6.985H19.922V0H10.89v47.703H2.297v6.984h8.594V58.5q0 9.125 4.25 13.297 4.25 4.187 13.468 4.187z" id="DejaVuSans-102"/><path d="M48.781 52.594v-8.407q-3.812 2.11-7.64 3.157-3.828 1.047-7.735 1.047-8.75 0-13.593-5.547-4.829-5.532-4.829-15.547 0-10.016 4.829-15.563 4.843-5.53 13.593-5.53 3.907 0 7.735 1.046 3.828 1.047 7.64 3.156V2.094Q45.016.344 40.984-.531q-4.015-.89-8.562-.89-12.36 0-19.64 7.765-7.266 7.765-7.266 20.953 0 13.375 7.343 21.031Q20.22 56 33.016 56q4.14 0 8.093-.86 3.953-.843 7.672-2.546z" id="DejaVuSans-99"/><path d="M44.281 53.078v-8.5q-3.797 1.953-7.906 2.922-4.094.984-8.5.984-6.688 0-10.031-2.047-3.344-2.046-3.344-6.156 0-3.125 2.39-4.906 2.391-1.781 9.626-3.39l3.078-.688q9.562-2.047 13.593-5.781 4.032-3.735 4.032-10.422 0-7.625-6.032-12.078-6.03-4.438-16.578-4.438-4.39 0-9.156.86Q10.688.296 5.422 2v9.281q4.984-2.594 9.812-3.89 4.829-1.282 9.579-1.282 6.343 0 9.75 2.172 3.421 2.172 3.421 6.125 0 3.656-2.468 5.61-2.453 1.953-10.813 3.765l-3.125.735q-8.344 1.75-12.062 5.39-3.704 3.64-3.704 9.985 0 7.718 5.47 11.906Q16.75 56 26.811 56q4.97 0 9.36-.734 4.406-.72 8.11-2.188z" id="DejaVuSans-115"/></defs><use xlink:href="#DejaVuSans-35"/><use x="83.789" xlink:href="#DejaVuSans-32"/><use x="115.576" xlink:href="#DejaVuSans-111"/><use x="176.758" xlink:href="#DejaVuSans-102"/><use x="211.963" xlink:href="#DejaVuSans-32"/><use x="243.75" xlink:href="#DejaVuSans-99"/><use x="298.73" xlink:href="#DejaVuSans-97"/><use x="360.01" xlink:href="#DejaVuSans-115"/><use x="412.109" xlink:href="#DejaVuSans-101"/><use x="473.633" xlink:href="#DejaVuSans-115"/></g></g><g style="fill:#696969" transform="matrix(.24 0 0 -.24 308.75 71.76)" id="text_18"><defs><path d="M44.39 34.188q3.172-1.079 6.172-4.594 3-3.516 6.032-9.672L66.609 0H56l-9.313 18.703q-3.624 7.328-7.015 9.719-3.39 2.39-9.25 2.39h-10.75V0h-9.86v72.906h22.266q12.5 0 18.656-5.234 6.157-5.219 6.157-15.766 0-6.89-3.203-11.437-3.204-4.532-9.297-6.282zM19.673 64.797V38.922h12.406q7.125 0 10.766 3.297 3.64 3.297 3.64 9.687 0 6.39-3.64 9.64-3.64 3.25-10.766 3.25z" id="DejaVuSans-82"/><path d="M18.313 70.219V54.688h18.5v-6.985h-18.5V18.016q0-6.688 1.828-8.594 1.828-1.906 7.453-1.906h9.218V0h-9.218q-10.407 0-14.36 3.875-3.953 3.89-3.953 14.14v29.688H2.687v6.984h6.594V70.22z" id="DejaVuSans-116"/><path d="M54.89 33.016V0h-8.984v32.719q0 7.765-3.031 11.61-3.031 3.858-9.078 3.858-7.281 0-11.484-4.64-4.204-4.625-4.204-12.64V0H9.08v75.984h9.03V46.188q3.235 4.937 7.594 7.374Q30.078 56 35.797 56q9.422 0 14.25-5.828 4.844-5.828 4.844-17.156z" id="DejaVuSans-104"/><path d="M45.406 46.39v29.594h8.985V0h-8.985v8.203Q42.578 3.328 38.25.953q-4.313-2.375-10.375-2.375-9.906 0-16.14 7.906-6.22 7.922-6.22 20.813 0 12.89 6.22 20.797Q17.968 56 27.874 56q6.063 0 10.375-2.375 4.328-2.36 7.156-7.234zm-30.61-19.093q0-9.906 4.079-15.547 4.078-5.64 11.203-5.64 7.125 0 11.219 5.64 4.11 5.64 4.11 15.547 0 9.906-4.11 15.547-4.094 5.64-11.219 5.64-7.125 0-11.203-5.64-4.078-5.64-4.078-15.547z" id="DejaVuSans-100"/><path d="M4.203 54.688h8.985l11.234-42.672 11.172 42.672h10.593l11.235-42.672 11.187 42.672h8.985L63.28 0H52.688L40.922 44.828 29.109 0H18.5z" id="DejaVuSans-119"/><path d="M64.406 67.281v-10.39q-4.984 4.64-10.625 6.922-5.64 2.296-11.984 2.296-12.5 0-19.14-7.64-6.641-7.64-6.641-22.094 0-14.406 6.64-22.047 6.64-7.64 19.14-7.64 6.345 0 11.985 2.296 5.64 2.297 10.625 6.938V5.609Q59.234 2.094 53.437.33q-5.78-1.75-12.218-1.75-16.563 0-26.094 10.124-9.516 10.14-9.516 27.672 0 17.578 9.516 27.703 9.531 10.14 26.094 10.14 6.531 0 12.312-1.734 5.797-1.734 10.875-5.203z" id="DejaVuSans-67"/><path d="M9.422 54.688h8.984V0H9.422zm0 21.296h8.984v-11.39H9.422z" id="DejaVuSans-105"/></defs><use xlink:href="#DejaVuSans-82"/><use x="64.982" xlink:href="#DejaVuSans-117"/><use x="128.361" xlink:href="#DejaVuSans-116"/><use x="167.57" xlink:href="#DejaVuSans-104"/><use x="230.949" xlink:href="#DejaVuSans-101"/><use x="292.473" xlink:href="#DejaVuSans-114"/><use x="333.586" xlink:href="#DejaVuSans-102"/><use x="368.791" xlink:href="#DejaVuSans-111"/><use x="429.973" xlink:href="#DejaVuSans-114"/><use x="469.336" xlink:href="#DejaVuSans-100"/><use x="532.813" xlink:href="#DejaVuSans-32"/><use x="564.6" xlink:href="#DejaVuSans-78"/><use x="639.404" xlink:href="#DejaVuSans-101"/><use x="700.928" xlink:href="#DejaVuSans-119"/><use x="782.715" xlink:href="#DejaVuSans-32"/><use x="814.502" xlink:href="#DejaVuSans-67"/><use x="884.326" xlink:href="#DejaVuSans-111"/><use x="945.508" xlink:href="#DejaVuSans-118"/><use x="1004.688" xlink:href="#DejaVuSans-105"/><use x="1032.471" xlink:href="#DejaVuSans-100"/><use x="1095.947" xlink:href="#DejaVuSans-32"/><use x="1127.734" xlink:href="#DejaVuSans-67"/><use x="1197.559" xlink:href="#DejaVuSans-97"/><use x="1258.838" xlink:href="#DejaVuSans-115"/><use x="1310.938" xlink:href="#DejaVuSans-101"/><use x="1372.461" xlink:href="#DejaVuSans-115"/></g><g id="legend_1"><path d="M128.2 161.015h153.765q3.2 0 3.2-3.2V88.96q0-3.2-3.2-3.2H128.2q-3.2 0-3.2 3.2v68.855q0 3.2 3.2 3.2z" style="fill:none;opacity:.8;stroke:#ccc;stroke-linejoin:miter" id="patch_5"/><path d="M131.4 98.718h32" style="fill:none;stroke:#000;stroke-linecap:round;stroke-width:1.5" id="line2d_3"/><g style="fill:#696969" transform="matrix(.16 0 0 -.16 176.2 104.317)" id="text_19"><defs><path d="M8.203 72.906h46.875v-4.203L28.61 0H18.312L43.22 64.594H8.203z" id="DejaVuSans-55"/><path d="M45.406 27.984q0 9.766-4.031 15.125-4.016 5.375-11.297 5.375-7.219 0-11.25-5.375-4.031-5.359-4.031-15.125 0-9.718 4.031-15.093t11.25-5.375q7.281 0 11.297 5.375 4.031 5.375 4.031 15.093zm8.985-21.203q0-13.953-6.203-20.765Q42-20.797 29.203-20.797q-4.734 0-8.937.703-4.203.703-8.157 2.172v8.735q3.954-2.141 7.813-3.157 3.86-1.031 7.86-1.031 8.843 0 13.234 4.61 4.39 4.609 4.39 13.937v4.453q-2.781-4.844-7.125-7.234Q33.938 0 27.875 0 17.828 0 11.672 7.656q-6.156 7.672-6.156 20.328 0 12.688 6.156 20.344Q17.828 56 27.875 56q6.063 0 10.406-2.39 4.344-2.391 7.125-7.22v8.297h8.985z" id="DejaVuSans-103"/></defs><use xlink:href="#DejaVuSans-55"/><use x="63.623" xlink:href="#DejaVuSans-100"/><use x="127.1" xlink:href="#DejaVuSans-32"/><use x="158.887" xlink:href="#DejaVuSans-97"/><use x="220.166" xlink:href="#DejaVuSans-118"/><use x="279.346" xlink:href="#DejaVuSans-103"/><use x="342.822" xlink:href="#DejaVuSans-32"/><use x="374.609" xlink:href="#DejaVuSans-102"/><use x="409.814" xlink:href="#DejaVuSans-105"/><use x="437.598" xlink:href="#DejaVuSans-116"/><use x="476.807" xlink:href="#DejaVuSans-116"/><use x="516.016" xlink:href="#DejaVuSans-101"/><use x="577.539" xlink:href="#DejaVuSans-100"/></g><use style="fill-opacity:0;stroke:#4c72b0" x="147.4" xlink:href="#m8e304e0c76" y="122.203" id="line2d_6"/><g style="fill:#696969" transform="matrix(.16 0 0 -.16 176.2 127.802)" id="text_20"><defs><path d="M19.672 64.797V8.109h11.922q15.093 0 22.093 6.829 7 6.843 7 21.593 0 14.64-7 21.453-7 6.813-22.093 6.813zm-9.86 8.11h20.266q21.188 0 31.094-8.813 9.922-8.813 9.922-27.563 0-18.86-9.969-27.703Q51.172 0 30.078 0H9.813z" id="DejaVuSans-68"/></defs><use xlink:href="#DejaVuSans-68"/><use x="77.002" xlink:href="#DejaVuSans-97"/><use x="138.281" xlink:href="#DejaVuSans-105"/><use x="166.064" xlink:href="#DejaVuSans-108"/><use x="193.848" xlink:href="#DejaVuSans-121"/><use x="253.027" xlink:href="#DejaVuSans-32"/><use x="284.814" xlink:href="#DejaVuSans-67"/><use x="354.639" xlink:href="#DejaVuSans-97"/><use x="415.918" xlink:href="#DejaVuSans-115"/><use x="468.018" xlink:href="#DejaVuSans-101"/><use x="529.541" xlink:href="#DejaVuSans-115"/></g><path d="M131.4 151.287h32v-11.2h-32z" style="fill:#089fff;opacity:.2;stroke:#fff;stroke-linejoin:miter" id="patch_6"/><g style="fill:#696969" transform="matrix(.16 0 0 -.16 176.2 151.287)" id="text_21"><defs><path d="M8.688 72.906h9.921V28.61q0-11.718 4.235-16.875 4.25-5.14 13.781-5.14 9.469 0 13.719 5.14 4.25 5.157 4.25 16.875v44.297H64.5V27.391q0-14.25-7.063-21.532-7.046-7.28-20.812-7.28-13.828 0-20.89 7.28-7.047 7.282-7.047 21.532z" id="DejaVuSans-85"/></defs><use xlink:href="#DejaVuSans-85"/><use x="73.193" xlink:href="#DejaVuSans-110"/><use x="136.572" xlink:href="#DejaVuSans-99"/><use x="191.553" xlink:href="#DejaVuSans-101"/><use x="253.076" xlink:href="#DejaVuSans-114"/><use x="294.189" xlink:href="#DejaVuSans-116"/><use x="333.398" xlink:href="#DejaVuSans-97"/><use x="394.678" xlink:href="#DejaVuSans-105"/><use x="422.461" xlink:href="#DejaVuSans-110"/><use x="485.84" xlink:href="#DejaVuSans-116"/><use x="525.049" xlink:href="#DejaVuSans-121"/></g></g></g></g><defs><clipPath id="p29c06d5939"><path d="M117 77.76h725.4v498.96H117z"/></clipPath></defs></svg>