<svg height="864" viewBox="0 0 936 648" width="1248" xmlns="http://www.w3.org/2000/svg" xmlns:xlink="http://www.w3.org/1999/xlink"><defs><style>*{stroke-linecap:butt;stroke-linejoin:round}</style></defs><g id="figure_1"><path d="M0 648h936V0H0z" fill="#fff" id="patch_1"/><g id="axes_1"><path d="M117 576.72h725.4V77.76H117z" fill="none" id="patch_2"/><g id="PolyCollection_1"><defs><path d="M175.06-94.741H264.66l1.792-1.437 1.792.188 1.792.123 1.792-.754 1.792.146 1.792-2.367 1.792-2.072 1.792-4.266 1.792.11 1.792-1.83 1.792-1.01 1.792-3.685 1.792-6.017 1.792-4.815 1.792 1.292 1.792-4.526 1.792-12.925 1.792-6.882 1.792-1.123 1.792-.894 1.792.237 1.792-3.664 1.792-5.928 1.792.087 1.792.068 1.792-3.25 1.792 1.499 1.792.528 1.792-6.483 1.792-3.365 1.792 11.825 1.792 13.37 1.792-.381 1.792 3.42 1.792-1.068 1.792 5.918 1.792.179 1.792-.18 1.792-.403 1.792.069 1.792 3.3 1.792 1.364 1.792.353 1.792-.578 1.792-.814 1.792.275 1.792 5.353 1.792 3.612 1.792 5.607 1.792 6.275 1.792 7.477 1.792 3.057 1.792.419 1.792 1.02 1.792-4.311 1.792.491 1.792 1.45 1.792 1.425 1.792 2.165 1.792-1.456 1.792-1.332 1.792-2.59 1.792-1.347 1.792-.876 1.792.907 1.792.024 1.792-.024 1.792 4.295 1.792 3.126 1.792 1.132 1.792 1.248 1.792-.865 1.792.204 1.792.113 1.792-3.046 1.792-.234 1.792-.303 1.792-.391 1.792-.355 1.792-.463 1.792-.663 1.792-.08 1.792.02 1.792-.98 1.792-.207 1.792.788 1.792-.281 1.792-.543 1.792 3.483 1.792.282 1.792.192 1.792.137 1.792.097 1.792.063 1.792.033 1.792-2 1.792.935 1.792-.17 1.792-1.184 1.792-.09 1.792-.104 1.792-.12 1.792-3.246 1.792 1.204 1.792-.722 1.792.147 1.792.056 1.792-.028 1.792-.115 1.792-3.442 1.792-.64 1.792 1.003h1.792l1.792-1.004 1.792-.173 1.792-.354 1.792 1.884 1.792-1.16 1.792.833 1.792-.183 1.792-.233 1.792-.308 1.792-.463 1.792 7.017 1.792-1.72 1.792-.877 1.792.062 1.792 2.089 1.792.021 1.792-.08 1.792 1.093 1.792 1.012 1.792.022 1.792-1.13 1.792-.242 1.792-.37 1.792-.611 1.792-.99 1.792 3.069 1.792-.07 1.792.931 1.792.113 1.792.046 1.792-.015 1.792 1.11 1.792.125 1.792-.961 1.792.98 1.792-1.083 1.792-.143 1.792-.197 1.792-.623 1.792-.08 1.792.916 1.792-.98 1.792-.872 1.792.082 1.792.066h1.792l1.792-1.688 1.792.21 1.792-.768 1.792 1.052 1.792.037 1.792.005 1.792-.026 1.792-.06 1.792-3.652 1.792 1.035 1.792.956 1.792-.074 1.792-.132 1.792-.208 1.792-.938 1.792.932 1.792.98 1.792-.059 1.792-.067 1.792-.075 1.792-.086 1.792-.1 1.792 2.029 1.792-1.004 1.792.032 1.792.01 1.792-.01 1.792-2.829 1.792 2.797 1.792-1.045h7.168l1.792.989 1.792.003 1.792 2.106 1.792 1.308 1.792.235 1.792.18 1.792.139 1.792.932 1.792-.927 1.792-3.92 1.792-7.28 1.792-.664 1.792.903 1.792.678 1.792-1.247 1.792-4.647 1.792-.127 1.792-3.896 1.792-3.78 1.792-2.067 1.792-2.348 1.792-.214 1.792.087 1.792-.118 1.792 8.05 1.792 1.24 1.792-.873 1.792-1.084 1.792-5.074 1.792 1.496 1.792-4.433 1.792-.12 1.792-.006 1.792 2.867 1.792 2.652 1.792-10.159 1.792-1.11 1.792-2.517 1.792-1.952 1.792-3.668 1.792.697 1.792.31 1.792-10.63 1.792 1.122 1.792 5.255 1.792-10.407 1.792-1.009 1.792.024 1.792-1.106 1.792-4 1.792-10.067 1.792-4.061 1.792-3.986 1.791-7.092 1.792-3.62 1.792.135 1.792 5.045 1.792-3.996 1.792-6.767 1.792 15.468 1.792 5.56 1.792-20.786 1.792-2.01 1.792-.524 1.792 3.457 1.792-.034 1.792-8.284 1.792-8.758 1.792-4.274 1.792 1.203 1.792 3.446 1.792-3.105 1.792 1.57 1.792-15.973 1.792-7.77 1.792 19.616 1.792-.18 1.792-.555 1.792-3.357 1.792 1.555 1.792 15.015 1.792 8.253 1.792 13.734 1.792 2.147 1.792-15.36 1.792 5.449 1.792-21.483 1.792 11.782 1.792 6.462 1.792-.41 1.792-.684 1.792-16.45 1.792 2.528 1.792-11.63 1.792-8.178 1.792 16.778 1.792-1.022 1.792-1.527 1.792-5.726 1.792-10.254 1.792 12.742 1.792-9.333 1.792-11.146 1.792-8.636 1.792-.02 1.792 7.991 1.792-6.004 1.792 4.069 1.792 1.29 1.792-9.896 1.792-.69v-26.455h0l-1.792-.69-1.792 9.705-1.792-.67-1.792-3.771-1.792 5.757-1.792-7.69-1.792-.021-1.792 10.966-1.792 12.377-1.792 10.27-1.792-12.742-1.792 11.31-1.792 6.035-1.792-1.527-1.792-1.022-1.792-16.546-1.792 13.385-1.792 11.892-1.792-5.312-1.792 14.914-1.792-.684-1.792-.41-1.792-11.18-1.792-13.702-1.792 21.643-1.792-4.352-1.792 16.004-1.792 2.147-1.792-7.83-1.792-5.468-1.792-16.35-1.792-6.285-1.792.563-1.792-.555-1.792-.18-1.792-19.59-1.792 9.873-1.792 19.311-1.792-.39-1.792 4.737-1.792-2.435-1.792 1.203-1.792 7.488-1.792 10.845-1.792 7.397-1.792-1.994-1.792-6.344-1.792-4.445-1.792-2.01-1.792 18.42-1.792-8.162-1.792-17.857-1.792 4.995-1.792 3.845-1.792-4.756-1.792.135-1.792 6.18-1.791 10.551-1.792 5.816-1.792 5.74-1.792 11.496-1.792 3.84-1.792-1.106-1.792.024-1.792 2.912-1.792 13.116-1.792-4.546-1.792 1.121-1.792 14.855-1.792.31-1.792.697-1.792 6.132-1.792 3.93-1.792 3.362-1.792.851-1.792 9.444-1.792-3.23-1.792-3.013-1.792-.006-1.792-.12-1.792 3.408-1.792-2.425-1.792 2.767-1.792-1.084-1.792-.873-1.792-2.679-1.792-9.593-1.792-2.079-1.792-1.873-1.792-.213-1.792 3.533-1.792 3.814-1.792 6.02-1.792 5.905-1.792 1.834-1.792 7.114-1.792 2.674-1.792.678-1.792.903-1.792 3.256-1.792 10.363-1.792 3.92-1.792 1.034-1.792-1.028-1.792.139-1.792.18-1.792.235-1.792-.653-1.792-1.814-1.792.003-1.792-.972h-7.168l-1.792.916-1.792-3.084-1.792 3.052-1.792-.01-1.792.01-1.792.032-1.792.956-1.792-1.892-1.792-.1-1.792-.085-1.792-.076-1.792-.067-1.792-.059-1.792-.98-1.792-1.027-1.792 1.02-1.792-.206-1.792-.132-1.792-.075-1.792-1.004-1.792-.926-1.792 4.19-1.792-.06-1.792-.026-1.792.005-1.792.037-1.792-.909-1.792 1.193-1.792.21-1.792 2.233h-1.792l-1.792.065-1.792.083-1.792 1.088-1.792.98-1.792-1.045-1.792-.08-1.792-.622-1.792-.197-1.792-.143-1.792.877-1.792-.98-1.792 1-1.792.124-1.792-.85-1.792-.015-1.792.045-1.792.113-1.792-1.03-1.792-.069-1.792-2.81-1.792.969-1.792-.61-1.792-.371-1.792-.243-1.792.831-1.792.022-1.792-.948-1.792-.867-1.792-.08-1.792.021-1.792-1.832-1.792.063-1.792 1.082-1.792 2.2-1.792-4.744-1.792-.463-1.792-.308-1.792-.233-1.792-.183-1.792-1.127-1.792.8-1.792-2.036-1.792-.354-1.792-.174-1.792.957h-1.792l-1.792-.957-1.792 1.32-1.792 4.399-1.792-.115-1.792-.028-1.792.056-1.792.147-1.792 1.239-1.792-.757-1.792 4.595-1.792-.12-1.792-.103-1.792-.09-1.792.776-1.792-.17-1.792-1.026-1.792 1.921-1.792.033-1.792.063-1.792.096-1.792.138-1.792.192-1.792.282-1.792-2.398-1.792-.543-1.792-.282-1.792-1.172-1.792-.206-1.792.98-1.792.02-1.792-.08-1.792-.663-1.792-.464-1.792-.354-1.792-.392-1.792-.302-1.792-.234-1.792 2.834-1.792.114-1.792.203-1.792 1.096-1.792-.713-1.792-.827-1.792-2.756-1.792-3.545-1.792-.024-1.792.024-1.792-1.054-1.792-.876-1.792-1.347-1.792-.63-1.792-1.332-1.792-1.456-1.792-3.715-1.792-2.496-1.792-2.47-1.792-1.47-1.792 3.53-1.792-.94-1.792.42-1.792-.864-1.792-4.285-1.792-3.526-1.792-4.194-1.792-2.269-1.792-4.448-1.792.275-1.792-.815-1.792-4.498-1.792-3.567-1.792-2.557-1.792-4.54-1.792-1.892-1.792-.403-1.792-.18-1.792.179-1.792-3.883-1.792 2.851-1.792-.499-1.792 3.54-1.792-8.193-1.792-13.659-1.792-5.326-1.792-.602-1.792-5.352-1.792-6.343-1.792-1.29-1.792-3.852-1.792-1.873-1.792 5.833-1.792 4.178-1.792.237-1.792 3.026-1.792 4.758-1.792 12.72-1.792 18.44-1.792 7.235-1.792 1.292-1.792 8.907-1.792 9.665-1.792 6.115-1.792 2.911-1.792 4.052-1.792 2.07-1.792 7.495-1.792 3.81-1.792 3.512-1.792.147-1.792 1.206-1.792.123-1.792.188-1.792 2.484H175.061z" id="ma431f3281c" stroke="#fff" stroke-opacity=".2"/></defs><g clip-path="url(#p3ba4744d7f)"><use xlink:href="#ma431f3281c" y="648" fill="#089fff" fill-opacity=".2" stroke="#fff" stroke-opacity=".2"/></g></g><g id="LineCollection_1" fill="none" stroke="#000" stroke-dasharray="1.5,2.475" stroke-width="1.5"><path clip-path="url(#p3ba4744d7f)" d="M149.973 553.259h0M151.765 553.259h0M153.557 553.259h0M155.349 553.259h0M157.14 553.259h0M158.933 553.259h0M160.725 553.259h0M162.517 553.259h0M164.309 553.259h0M166.1 553.259h0M167.893 553.259h0M169.685 553.259h0M171.477 553.259h0M173.269 553.259h0M175.06 553.259h0M176.853 553.259h0M178.645 553.259h0M180.437 553.259h0M182.229 553.259h0M184.02 553.259h0M185.813 553.259h0M187.605 553.259h0M189.397 553.259h0M191.189 553.259h0M192.98 553.259h0M194.773 553.259h0M196.565 553.259h0M198.357 553.259h0M200.149 553.259h0M201.94 553.259h0M203.733 553.259h0M205.525 553.259h0M207.317 553.259h0M209.109 553.259h0M210.9 553.259h0M212.693 553.259h0M214.485 553.259h0M216.277 553.259h0M218.069 553.259h0M219.86 553.259h0M221.653 553.259h0M223.445 553.259h0M225.237 553.259h0M227.029 553.259h0M228.82 553.259h0M230.613 553.259h0M232.405 553.259h0M234.197 553.259h0M235.989 553.259h0M237.78 553.259h0M239.573 553.259h0M241.365 553.259h0M243.157 553.259h0M244.949 553.259h0M246.74 553.259h0M248.533 553.259h0M250.325 553.259h0M252.117 553.259h0M253.908 553.259h0M255.7 553.259h0M257.492 553.259h0M259.284 553.259h0M261.076 553.259h0M262.868 553.259h0M264.66 553.259h0M266.452 553.259v-27.444M268.244 553.259h0M270.036 553.259h0M271.828 553.259v-13.722M273.62 553.259h0M275.412 553.259v-41.166M277.204 553.259v-41.166M278.996 553.259v-82.33M280.788 553.259v-13.722M282.58 553.259v-41.166M284.372 553.259v-27.444M286.164 553.259v-68.61M287.956 553.259V443.485M289.748 553.259v-96.053M291.54 553.259v-27.444M293.332 553.259v-82.33M295.124 553.259V333.71M296.916 553.259v-150.94M298.708 553.259v-41.166M300.5 553.259v-68.61M302.292 553.259v-41.166M304.084 553.259V416.04M305.876 553.259v-96.053M307.668 553.259v-27.444M309.46 553.259h0M311.252 553.259v-82.33M313.044 553.259v-54.887M314.836 553.259v-54.887M316.628 553.259v-68.61M318.42 553.259v-68.61M320.212 553.259v-41.166M322.004 553.259h0M323.796 553.259v-68.61M325.588 553.259v-41.166M327.38 553.259v-68.61M329.172 553.259v-68.61M330.964 553.259v-96.053M332.756 553.259v-27.444M334.548 553.259h0M336.34 553.259v-68.61M338.132 553.259h0M339.924 553.259v-27.444M341.716 553.259v-41.166M343.508 553.259v-41.166M345.3 553.259v-41.166M347.092 553.259h0M348.884 553.259h0M350.676 553.259h0M352.468 553.259h0M354.26 553.259h0M356.052 553.259v-13.722M357.844 553.259h0M359.636 553.259h0M361.428 553.259v-54.887M363.22 553.259v-54.887M365.012 553.259v-13.722M366.804 553.259v-13.722M368.596 553.259v-13.722M370.388 553.259h0M372.18 553.259h0M373.972 553.259h0M375.764 553.259v-13.722M377.556 553.259h0M379.348 553.259h0M381.14 553.259h0M382.932 553.259h0M384.724 553.259h0M386.516 553.259h0M388.308 553.259v-13.722M390.1 553.259h0M391.892 553.259h0M393.684 553.259v-27.444M395.476 553.259h0M397.268 553.259h0M399.06 553.259v-41.166M400.852 553.259v-13.722M402.644 553.259h0M404.436 553.259h0M406.228 553.259h0M408.02 553.259h0M409.812 553.259h0M411.604 553.259h0M413.396 553.259v-13.722M415.188 553.259v-13.722M416.98 553.259h0M418.772 553.259v-13.722M420.564 553.259h0M422.356 553.259h0M424.148 553.259h0M425.94 553.259v-13.722M427.732 553.259h0M429.524 553.259h0M431.316 553.259h0M433.108 553.259h0M434.9 553.259h0M436.692 553.259v-27.444M438.484 553.259h0M440.276 553.259v-13.722M442.068 553.259v-13.722M443.86 553.259v-13.722M445.652 553.259h0M447.444 553.259h0M449.236 553.259v-54.887M451.028 553.259h0M452.82 553.259v-13.722M454.612 553.259h0M456.404 553.259h0M458.196 553.259h0M459.988 553.259h0M461.78 553.259v-82.33M463.572 553.259v-13.722M465.364 553.259h0M467.156 553.259v-13.722M468.948 553.259v-27.444M470.74 553.259h0M472.532 553.259h0M474.324 553.259v-27.444M476.116 553.259v-13.722M477.908 553.259h0M479.7 553.259h0M481.492 553.259h0M483.284 553.259h0M485.076 553.259h0M486.868 553.259h0M488.66 553.259v-41.166M490.452 553.259v-13.722M492.244 553.259v-13.722M494.036 553.259h0M495.828 553.259h0M497.62 553.259h0M499.412 553.259v-13.722M501.204 553.259h0M502.996 553.259h0M504.788 553.259v-13.722M506.58 553.259h0M508.372 553.259h0M510.164 553.259h0M511.956 553.259v-13.722M513.748 553.259h0M515.54 553.259v-13.722M517.332 553.259h0M519.124 553.259h0M520.916 553.259h0M522.708 553.259h0M524.5 553.259h0M526.292 553.259h0M528.084 553.259v-13.722M529.876 553.259h0M531.668 553.259v-13.722M533.46 553.259h0M535.252 553.259h0M537.044 553.259v-13.722M538.836 553.259h0M540.628 553.259h0M542.42 553.259v-13.722M544.212 553.259v-13.722M546.004 553.259h0M547.796 553.259h0M549.588 553.259h0M551.38 553.259v-27.444M553.172 553.259v-13.722M554.964 553.259v-13.722M556.756 553.259h0M558.548 553.259h0M560.34 553.259h0M562.132 553.259v-13.722M563.924 553.259h0M565.716 553.259v-54.887M567.508 553.259h0M569.3 553.259h0M571.092 553.259h0M572.884 553.259h0M574.676 553.259h0M576.468 553.259v-41.166M578.26 553.259h0M580.052 553.259h0M581.844 553.259h0M583.636 553.259h0M585.428 553.259h0M587.22 553.259v-13.722M589.012 553.259h0M590.804 553.259v-27.444M592.596 553.259v-13.722M594.388 553.259h0M596.18 553.259h0M597.972 553.259h0M599.764 553.259v-41.166M601.556 553.259h0M603.348 553.259v-13.722M605.14 553.259h0M606.932 553.259h0M608.724 553.259h0M610.516 553.259h0M612.308 553.259h0M614.1 553.259h0M615.892 553.259h0M617.684 553.259h0M619.476 553.259h0M621.268 553.259h0M623.06 553.259h0M624.852 553.259v-27.444M626.644 553.259v-13.722M628.436 553.259v-68.61M630.228 553.259V429.763M632.02 553.259v-27.444M633.812 553.259h0M635.604 553.259h0M637.396 553.259v-27.444M639.188 553.259v-82.33M640.98 553.259v-13.722M642.772 553.259v-68.61M644.564 553.259v-68.61M646.356 553.259v-41.166M648.148 553.259v-41.166M649.94 553.259v-27.444M651.732 553.259h0M653.524 553.259v-54.887M655.316 553.259h0M657.108 553.259h0M658.9 553.259h0M660.692 553.259h0M662.484 553.259v-82.33M664.276 553.259v-54.887M666.068 553.259v-68.61M667.86 553.259v-68.61M669.652 553.259v-68.61M671.444 553.259h0M673.236 553.259h0M675.028 553.259V388.597M676.82 553.259v-13.722M678.612 553.259v-96.053M680.404 553.259v-41.166M682.196 553.259v-68.61M683.988 553.259h0M685.78 553.259h0M687.572 553.259V292.545M689.364 553.259v-54.887M691.156 553.259h0M692.948 553.259v-233.27M694.74 553.259v-96.053M696.532 553.259h0M698.324 553.259h0M700.116 553.259V333.71M701.908 553.259V388.597M703.7 553.259V388.597M705.492 553.259V443.485M707.283 553.259V361.154M709.075 553.259v-68.61M710.867 553.259h0M712.66 553.259V361.154M714.451 553.259V443.485M716.243 553.259v-82.33M718.035 553.259h0M719.827 553.259h0M721.62 553.259V278.823M723.411 553.259h0M725.203 553.259V361.154M726.995 553.259v-96.053M728.787 553.259v-150.94M730.58 553.259V333.71M732.371 553.259V223.936M734.163 553.259v-150.94M735.955 553.259h0M737.747 553.259v-150.94M739.54 553.259V388.597M741.331 553.259v-68.61M743.123 553.259V306.267M744.915 553.259V429.763M746.707 553.259h0M748.5 553.259h0M750.291 553.259V361.154M752.083 553.259V429.763M753.875 553.259v-96.053M755.667 553.259h0M757.46 553.259v-233.27M759.251 553.259h0M761.043 553.259h0M762.835 553.259V182.77M764.627 553.259v-96.053M766.42 553.259V182.77M768.211 553.259v-68.61M770.003 553.259h0M771.795 553.259h0M773.587 553.259h0M775.38 553.259V141.605M777.171 553.259v-68.61M778.963 553.259V292.545M780.755 553.259v-150.94M782.547 553.259h0M784.34 553.259h0M786.131 553.259h0M787.923 553.259V100.44M789.715 553.259V306.267M791.507 553.259V361.154M793.3 553.259V347.432M795.091 553.259V388.597M796.883 553.259V416.04M798.675 553.259h0M800.467 553.259v-301.88M802.26 553.259v-150.94M804.051 553.259V347.432M805.843 553.259V416.04M807.635 553.259V416.04M809.427 553.259h0"/></g><path clip-path="url(#p3ba4744d7f)" d="M173.269 553.259h91.391l1.792-1.96h3.584l1.792-.98h1.792l3.584-5.881 1.792-5.881 1.792-.98 1.792-2.94 1.792-1.96 1.792-4.902 1.792-7.84 1.792-6.861h1.792l1.792-5.881 1.792-15.682 1.792-9.801 1.792-2.94 1.792-1.961h1.792l1.792-3.92 1.792-5.881 1.792.98 1.792 1.96 1.792-.98 1.792 3.92 1.792 2.94 1.792-2.94 1.792.98 1.792 12.742 1.792 10.782 1.792-1.96 1.792 1.96 1.792-1.96 1.792 4.9h5.376l1.792.98 1.792 3.92 5.376 5.881h3.584l1.792 4.901 1.792 2.94 3.584 9.802 1.792 5.88 1.792 1.96h1.792l1.792.98 1.792-3.92 1.792.98 3.584 3.92 1.792 2.941h3.584l1.792-.98h3.584l1.792.98h3.584l1.792 3.92 1.792 2.941 3.584 1.96 1.792-.98h3.584l1.792-2.94h14.336l1.792-.98h1.792l1.792.98h3.584l1.792 2.94H434.9l1.792-1.96 1.792.98h1.792l1.792-.98h5.376l1.792-3.92 1.792.98 1.792-.98h7.168l1.792-3.921 1.792-.98 1.792.98h1.792l1.792-.98h3.584l1.792 1.96 1.792-.98 1.792.98h7.168l1.792 5.88 1.792-1.96 1.792-.98h1.792l1.792 1.96h3.584l3.584 1.961h1.792l1.792-.98h5.376l1.792-.98 1.792 2.94h1.792l1.792.98h5.376l1.792.98h1.792l1.792-.98 1.792.98 1.792-.98h7.168l1.792.98 3.584-1.96h5.376l1.792-1.96h1.792l1.792-.98 1.792.98h7.168l1.792-3.92 3.584 1.96h5.376l1.792-.98 3.584 1.96h8.96l1.792 1.96 1.792-.98h5.376l1.792-2.94 1.792 2.94 1.792-.98h7.168l1.792.98h1.792l1.792 1.96 1.792.98h5.376l1.792.98 1.792-.98 1.792-3.92 1.792-8.821 1.792-1.96h3.584l1.792-1.96 1.792-5.882 1.792-.98 3.584-9.801 3.584-5.88h1.792l3.584 1.96 1.792 8.82 1.792 1.96h3.584l1.792-3.92 1.792 1.96 1.792-3.92h3.584l3.584 5.88 1.792-9.8 1.792-.98 3.584-5.881 1.792-4.901h3.584l1.792-12.742h1.792l1.792 4.901 1.792-11.761 1.792-1.96h3.584l1.792-3.921 1.792-10.782 3.584-9.8 1.791-8.822 1.792-4.9h1.792l1.792 4.9 1.792-3.92 1.792-5.881 1.792 16.662 1.792 6.86 1.792-19.602h1.792l1.792 1.96 1.792 4.901 1.792.98 1.792-7.84 1.792-9.802 1.792-5.88h1.792l1.792 2.94 1.792-3.921 1.792.98 1.792-17.642 1.792-8.821L746.707 418h3.584l1.792-1.96 1.792 3.92 1.792 15.683 1.792 6.86 1.792 10.782h1.792l1.792-15.682 1.792 4.9 1.792-21.562 1.792 12.741 1.792 8.821h3.584l1.792-15.682 1.792 3.92 1.792-11.76 1.792-10.782 1.792 16.662h3.584l1.792-5.88 1.792-10.782 1.792 12.742 1.792-9.802 1.792-11.761 1.792-9.801h1.792l1.792 7.84 1.792-5.88 1.792 3.92 1.792.98 1.792-9.8h1.792" fill="none" stroke="#000" stroke-linecap="round" stroke-width="1.5" id="line2d_1"/><path d="M117 576.72V77.76" fill="none" stroke="#d3d3d3" stroke-linecap="square" stroke-width="1.25" id="patch_3"/><path d="M117 576.72h725.4" fill="none" stroke="#d3d3d3" stroke-linecap="square" stroke-width="1.25" id="patch_4"/><g id="matplotlib.axis_1"><g id="xtick_1"><g transform="matrix(.16 0 0 -.16 114.344 598.378)" fill="#696969" id="text_1"><defs><path d="M9.813 72.906h9.859V5.078q0-13.187-5-19.14-5-5.954-16.094-5.954h-3.75v8.297h3.078q6.531 0 9.219 3.672Q9.813-4.39 9.813 5.078z" id="DejaVuSans-74"/><path d="M34.281 27.484q-10.89 0-15.093-2.484-4.204-2.484-4.204-8.5 0-4.781 3.157-7.594 3.156-2.797 8.562-2.797 7.485 0 12 5.297 4.516 5.297 4.516 14.078v2zm17.922 3.72V0H43.22v8.297Q40.14 3.328 35.547.953q-4.594-2.375-11.234-2.375-8.391 0-13.36 4.719Q6 8.016 6 15.922q0 9.219 6.172 13.906 6.187 4.688 18.437 4.688h12.61v.89q0 6.203-4.078 9.594-4.078 3.39-11.453 3.39-4.688 0-9.141-1.124-4.438-1.125-8.531-3.375v8.312q4.921 1.906 9.562 2.844 4.64.953 9.031.953 11.875 0 17.735-6.156 5.86-6.14 5.86-18.64z" id="DejaVuSans-97"/><path d="M54.89 33.016V0h-8.984v32.719q0 7.765-3.031 11.61-3.031 3.858-9.078 3.858-7.281 0-11.484-4.64-4.204-4.625-4.204-12.64V0H9.08v54.688h9.03v-8.5q3.235 4.937 7.594 7.374Q30.078 56 35.797 56q9.422 0 14.25-5.828 4.844-5.828 4.844-17.156z" id="DejaVuSans-110"/></defs><use xlink:href="#DejaVuSans-74"/><use x="29.492" xlink:href="#DejaVuSans-97"/><use x="90.771" xlink:href="#DejaVuSans-110"/></g></g><g id="xtick_2"><g transform="matrix(.16 0 0 -.16 219.103 598.378)" fill="#696969" id="text_2"><defs><path d="M9.813 72.906h14.703l18.593-49.61 18.703 49.61h14.704V0H66.89v64.016l-18.797-50h-9.907l-18.796 50V0H9.813z" id="DejaVuSans-77"/><path d="M41.11 46.297q-1.516.875-3.297 1.281Q36.03 48 33.89 48q-7.625 0-11.703-4.953-4.079-4.953-4.079-14.234V0H9.08v54.688h9.03v-8.5q2.844 4.984 7.375 7.39Q30.031 56 36.531 56q.922 0 2.047-.125 1.125-.11 2.484-.36z" id="DejaVuSans-114"/></defs><use xlink:href="#DejaVuSans-77"/><use x="86.279" xlink:href="#DejaVuSans-97"/><use x="147.559" xlink:href="#DejaVuSans-114"/></g></g><g id="xtick_3"><g transform="matrix(.16 0 0 -.16 326.968 598.378)" fill="#696969" id="text_3"><defs><path d="M32.172-5.078q-3.797-9.766-7.422-12.735-3.61-2.984-9.656-2.984H7.906v7.516h5.282q3.703 0 5.75 1.765Q21-9.766 23.483-3.219l1.61 4.094-22.11 53.813H12.5l17.094-42.766 17.093 42.766h9.516z" id="DejaVuSans-121"/></defs><use xlink:href="#DejaVuSans-77"/><use x="86.279" xlink:href="#DejaVuSans-97"/><use x="147.559" xlink:href="#DejaVuSans-121"/></g></g><g id="xtick_4"><g transform="matrix(.16 0 0 -.16 443.168 598.378)" fill="#696969" id="text_4"><defs><path d="M8.5 21.578v33.11h8.984V21.922q0-7.766 3.016-11.656 3.031-3.875 9.094-3.875 7.265 0 11.484 4.64 4.234 4.64 4.234 12.656v31h8.985V0h-8.984v8.406Q42.047 3.422 37.718 1q-4.313-2.422-10.032-2.422-9.421 0-14.312 5.86Q8.5 10.296 8.5 21.578zM31.11 56z" id="DejaVuSans-117"/><path d="M9.422 75.984h8.984V0H9.422z" id="DejaVuSans-108"/></defs><use xlink:href="#DejaVuSans-74"/><use x="29.492" xlink:href="#DejaVuSans-117"/><use x="92.871" xlink:href="#DejaVuSans-108"/></g></g><g id="xtick_5"><g transform="matrix(.16 0 0 -.16 548.844 598.378)" fill="#696969" id="text_5"><defs><path d="M53.516 70.516V60.89q-5.61 2.687-10.594 4-4.984 1.328-9.625 1.328-8.047 0-12.422-3.125t-4.375-8.89q0-4.845 2.906-7.313 2.907-2.453 11.016-3.97l5.953-1.218q11.031-2.11 16.281-7.406 5.25-5.297 5.25-14.172 0-10.61-7.11-16.078-7.093-5.469-20.812-5.469-5.172 0-11.015 1.172Q13.14.922 6.89 3.219v10.156q6-3.36 11.765-5.078 5.766-1.703 11.328-1.703 8.438 0 13.032 3.312 4.593 3.328 4.593 9.485 0 5.359-3.297 8.39-3.296 3.032-10.812 4.547L27.484 33.5q-11.03 2.188-15.968 6.875-4.922 4.688-4.922 13.047 0 9.672 6.812 15.234 6.813 5.563 18.766 5.563 5.14 0 10.453-.938 5.328-.922 10.89-2.765z" id="DejaVuSans-83"/><path d="M56.203 29.594v-4.39H14.891q.593-9.282 5.593-14.142 5-4.859 13.938-4.859 5.172 0 10.031 1.266 4.86 1.265 9.656 3.812v-8.5Q49.266.734 44.187-.344 39.11-1.422 33.892-1.422q-13.094 0-20.735 7.61-7.64 7.625-7.64 20.625 0 13.421 7.25 21.296Q20.016 56 32.328 56q11.031 0 17.453-7.11 6.422-7.093 6.422-19.296zm-8.984 2.64q-.094 7.36-4.125 11.75-4.032 4.407-10.672 4.407-7.516 0-12.031-4.25-4.516-4.25-5.203-11.97z" id="DejaVuSans-101"/><path d="M18.11 8.203v-29H9.077v75.484h9.031v-8.296q2.844 4.875 7.157 7.234Q29.594 56 35.594 56q9.968 0 16.187-7.906 6.235-7.907 6.235-20.797T51.78 6.484q-6.218-7.906-16.187-7.906-6 0-10.328 2.375-4.313 2.375-7.157 7.25zm30.578 19.094q0 9.906-4.079 15.547-4.078 5.64-11.203 5.64-7.14 0-11.218-5.64-4.079-5.64-4.079-15.547 0-9.906 4.078-15.547 4.079-5.64 11.22-5.64 7.124 0 11.202 5.64t4.078 15.547z" id="DejaVuSans-112"/></defs><use xlink:href="#DejaVuSans-83"/><use x="63.477" xlink:href="#DejaVuSans-101"/><use x="125" xlink:href="#DejaVuSans-112"/></g></g><g id="xtick_6"><g transform="matrix(.16 0 0 -.16 657.62 598.378)" fill="#696969" id="text_6"><defs><path d="M9.813 72.906h13.28l32.329-60.984v60.984h9.562V0h-13.28L19.39 60.984V0H9.813z" id="DejaVuSans-78"/><path d="M30.61 48.39q-7.22 0-11.422-5.64-4.204-5.64-4.204-15.453 0-9.813 4.172-15.453 4.188-5.64 11.453-5.64 7.188 0 11.375 5.655 4.203 5.672 4.203 15.438 0 9.719-4.203 15.406-4.187 5.688-11.375 5.688zm0 7.61q11.718 0 18.406-7.625 6.703-7.61 6.703-21.078 0-13.422-6.703-21.078-6.688-7.64-18.407-7.64-11.765 0-18.437 7.64-6.656 7.656-6.656 21.078 0 13.469 6.656 21.078Q18.844 56 30.609 56z" id="DejaVuSans-111"/><path d="M2.984 54.688H12.5L29.594 8.797l17.093 45.89h9.516L35.687 0H23.485z" id="DejaVuSans-118"/></defs><use xlink:href="#DejaVuSans-78"/><use x="74.805" xlink:href="#DejaVuSans-111"/><use x="135.986" xlink:href="#DejaVuSans-118"/></g></g><g id="xtick_7"><g transform="matrix(.16 0 0 -.16 770.215 598.378)" fill="#696969" id="text_7"><use xlink:href="#DejaVuSans-74"/><use x="29.492" xlink:href="#DejaVuSans-97"/><use x="90.771" xlink:href="#DejaVuSans-110"/></g></g></g><g id="matplotlib.axis_2"><g id="ytick_1"><g transform="matrix(.16 0 0 -.16 97.32 559.338)" fill="#696969" id="text_8"><defs><path d="M31.781 66.406q-7.61 0-11.453-7.5Q16.5 51.422 16.5 36.375q0-14.984 3.828-22.484 3.844-7.5 11.453-7.5 7.672 0 11.5 7.5 3.844 7.5 3.844 22.484 0 15.047-3.844 22.531-3.828 7.5-11.5 7.5zm0 7.813q12.266 0 18.735-9.703 6.468-9.688 6.468-28.141 0-18.406-6.468-28.11-6.47-9.687-18.735-9.687-12.25 0-18.718 9.688-6.47 9.703-6.47 28.109 0 18.453 6.47 28.14Q19.53 74.22 31.78 74.22z" id="DejaVuSans-48"/></defs><use xlink:href="#DejaVuSans-48"/></g></g><g id="ytick_2"><g transform="matrix(.16 0 0 -.16 97.32 490.729)" fill="#696969" id="text_9"><defs><path d="M10.797 72.906h38.719v-8.312H19.828v-17.86q2.14.735 4.281 1.094 2.157.36 4.313.36 12.203 0 19.328-6.688 7.14-6.688 7.14-18.11 0-11.765-7.328-18.296-7.328-6.516-20.656-6.516-4.593 0-9.36.781-4.75.782-9.827 2.344v9.922q4.39-2.39 9.078-3.563 4.687-1.171 9.906-1.171 8.453 0 13.375 4.437 4.938 4.438 4.938 12.063 0 7.609-4.938 12.047-4.922 4.453-13.375 4.453-3.953 0-7.89-.875-3.922-.875-8.016-2.735z" id="DejaVuSans-53"/></defs><use xlink:href="#DejaVuSans-53"/></g></g><g id="ytick_3"><g transform="matrix(.16 0 0 -.16 87.14 422.12)" fill="#696969" id="text_10"><defs><path d="M12.406 8.297h16.11v55.625l-17.532-3.516v8.985l17.438 3.515h9.86V8.296H54.39V0H12.406z" id="DejaVuSans-49"/></defs><use xlink:href="#DejaVuSans-49"/><use x="63.623" xlink:href="#DejaVuSans-48"/></g></g><g id="ytick_4"><g transform="matrix(.16 0 0 -.16 87.14 353.51)" fill="#696969" id="text_11"><use xlink:href="#DejaVuSans-49"/><use x="63.623" xlink:href="#DejaVuSans-53"/></g></g><g id="ytick_5"><g transform="matrix(.16 0 0 -.16 87.14 284.902)" fill="#696969" id="text_12"><defs><path d="M19.188 8.297h34.421V0H7.33v8.297q5.609 5.812 15.296 15.594 9.703 9.797 12.188 12.64 4.734 5.313 6.609 9 1.89 3.688 1.89 7.25 0 5.813-4.078 9.469-4.078 3.672-10.625 3.672-4.64 0-9.797-1.61-5.14-1.609-11-4.89v9.969Q13.767 71.78 18.938 73q5.188 1.219 9.485 1.219 11.328 0 18.062-5.672 6.735-5.656 6.735-15.125 0-4.5-1.688-8.531-1.672-4.016-6.125-9.485-1.218-1.422-7.765-8.187-6.532-6.766-18.453-18.922z" id="DejaVuSans-50"/></defs><use xlink:href="#DejaVuSans-50"/><use x="63.623" xlink:href="#DejaVuSans-48"/></g></g><g id="ytick_6"><g transform="matrix(.16 0 0 -.16 87.14 216.293)" fill="#696969" id="text_13"><use xlink:href="#DejaVuSans-50"/><use x="63.623" xlink:href="#DejaVuSans-53"/></g></g><g id="ytick_7"><g transform="matrix(.16 0 0 -.16 87.14 147.684)" fill="#696969" id="text_14"><defs><path d="M40.578 39.313Q47.656 37.797 51.625 33q3.984-4.781 3.984-11.813 0-10.78-7.422-16.703-7.421-5.906-21.093-5.906-4.578 0-9.438.906-4.86.907-10.031 2.72v9.515q4.094-2.39 8.969-3.61 4.89-1.218 10.218-1.218 9.266 0 14.125 3.656 4.86 3.656 4.86 10.64 0 6.454-4.516 10.079-4.515 3.64-12.562 3.64h-8.5v8.11h8.89q7.266 0 11.125 2.906 3.86 2.906 3.86 8.375 0 5.61-3.985 8.61-3.968 3.015-11.39 3.015-4.063 0-8.703-.89-4.641-.876-10.203-2.72v8.782q5.624 1.562 10.53 2.344 4.907.78 9.25.78 11.235 0 17.766-5.109 6.547-5.093 6.547-13.78 0-6.063-3.468-10.235-3.47-4.172-9.86-5.782z" id="DejaVuSans-51"/></defs><use xlink:href="#DejaVuSans-51"/><use x="63.623" xlink:href="#DejaVuSans-48"/></g></g><g transform="matrix(0 -.2 -.2 0 78.98 379.813)" fill="#696969" id="text_15"><defs><path d="M51.125 44H36.922l-4.11-16.313h14.313zm-7.328 27.781l-5.078-20.265h14.265L58.11 71.78h7.813L60.89 51.516h15.234V44h-17.14l-4-16.313h15.53V20.22H53.079L48 0h-7.813l5.032 20.219H30.906L25.875 0h-7.86l5.079 20.219H7.719v7.468h17.187L29 44H13.281v7.516h17.625l4.985 20.265z" id="DejaVuSans-35"/><path d="M37.11 75.984V68.5h-8.594q-4.828 0-6.72-1.953-1.874-1.953-1.874-7.031v-4.828h14.797v-6.985H19.922V0H10.89v47.703H2.297v6.984h8.594V58.5q0 9.125 4.25 13.297 4.25 4.187 13.468 4.187z" id="DejaVuSans-102"/><path d="M48.781 52.594v-8.407q-3.812 2.11-7.64 3.157-3.828 1.047-7.735 1.047-8.75 0-13.593-5.547-4.829-5.532-4.829-15.547 0-10.016 4.829-15.563 4.843-5.53 13.593-5.53 3.907 0 7.735 1.046 3.828 1.047 7.64 3.156V2.094Q45.016.344 40.984-.531q-4.015-.89-8.562-.89-12.36 0-19.64 7.765-7.266 7.765-7.266 20.953 0 13.375 7.343 21.031Q20.22 56 33.016 56q4.14 0 8.093-.86 3.953-.843 7.672-2.546z" id="DejaVuSans-99"/><path d="M44.281 53.078v-8.5q-3.797 1.953-7.906 2.922-4.094.984-8.5.984-6.688 0-10.031-2.047-3.344-2.046-3.344-6.156 0-3.125 2.39-4.906 2.391-1.781 9.626-3.39l3.078-.688q9.562-2.047 13.593-5.781 4.032-3.735 4.032-10.422 0-7.625-6.032-12.078-6.03-4.438-16.578-4.438-4.39 0-9.156.86Q10.688.296 5.422 2v9.281q4.984-2.594 9.812-3.89 4.829-1.282 9.579-1.282 6.343 0 9.75 2.172 3.421 2.172 3.421 6.125 0 3.656-2.468 5.61-2.453 1.953-10.813 3.765l-3.125.735q-8.344 1.75-12.062 5.39-3.704 3.64-3.704 9.985 0 7.718 5.47 11.906Q16.75 56 26.811 56q4.97 0 9.36-.734 4.406-.72 8.11-2.188z" id="DejaVuSans-115"/></defs><use xlink:href="#DejaVuSans-35"/><use x="83.789" xlink:href="#DejaVuSans-32"/><use x="115.576" xlink:href="#DejaVuSans-111"/><use x="176.758" xlink:href="#DejaVuSans-102"/><use x="211.963" xlink:href="#DejaVuSans-32"/><use x="243.75" xlink:href="#DejaVuSans-99"/><use x="298.73" xlink:href="#DejaVuSans-97"/><use x="360.01" xlink:href="#DejaVuSans-115"/><use x="412.109" xlink:href="#DejaVuSans-101"/><use x="473.633" xlink:href="#DejaVuSans-115"/></g></g><g transform="matrix(.24 0 0 -.24 308.75 71.76)" fill="#696969" id="text_16"><defs><path d="M44.39 34.188q3.172-1.079 6.172-4.594 3-3.516 6.032-9.672L66.609 0H56l-9.313 18.703q-3.624 7.328-7.015 9.719-3.39 2.39-9.25 2.39h-10.75V0h-9.86v72.906h22.266q12.5 0 18.656-5.234 6.157-5.219 6.157-15.766 0-6.89-3.203-11.437-3.204-4.532-9.297-6.282zM19.673 64.797V38.922h12.406q7.125 0 10.766 3.297 3.64 3.297 3.64 9.687 0 6.39-3.64 9.64-3.64 3.25-10.766 3.25z" id="DejaVuSans-82"/><path d="M18.313 70.219V54.688h18.5v-6.985h-18.5V18.016q0-6.688 1.828-8.594 1.828-1.906 7.453-1.906h9.218V0h-9.218q-10.407 0-14.36 3.875-3.953 3.89-3.953 14.14v29.688H2.687v6.984h6.594V70.22z" id="DejaVuSans-116"/><path d="M54.89 33.016V0h-8.984v32.719q0 7.765-3.031 11.61-3.031 3.858-9.078 3.858-7.281 0-11.484-4.64-4.204-4.625-4.204-12.64V0H9.08v75.984h9.03V46.188q3.235 4.937 7.594 7.374Q30.078 56 35.797 56q9.422 0 14.25-5.828 4.844-5.828 4.844-17.156z" id="DejaVuSans-104"/><path d="M45.406 46.39v29.594h8.985V0h-8.985v8.203Q42.578 3.328 38.25.953q-4.313-2.375-10.375-2.375-9.906 0-16.14 7.906-6.22 7.922-6.22 20.813 0 12.89 6.22 20.797Q17.968 56 27.874 56q6.063 0 10.375-2.375 4.328-2.36 7.156-7.234zm-30.61-19.093q0-9.906 4.079-15.547 4.078-5.64 11.203-5.64 7.125 0 11.219 5.64 4.11 5.64 4.11 15.547 0 9.906-4.11 15.547-4.094 5.64-11.219 5.64-7.125 0-11.203-5.64-4.078-5.64-4.078-15.547z" id="DejaVuSans-100"/><path d="M4.203 54.688h8.985l11.234-42.672 11.172 42.672h10.593l11.235-42.672 11.187 42.672h8.985L63.28 0H52.688L40.922 44.828 29.109 0H18.5z" id="DejaVuSans-119"/><path d="M64.406 67.281v-10.39q-4.984 4.64-10.625 6.922-5.64 2.296-11.984 2.296-12.5 0-19.14-7.64-6.641-7.64-6.641-22.094 0-14.406 6.64-22.047 6.64-7.64 19.14-7.64 6.345 0 11.985 2.296 5.64 2.297 10.625 6.938V5.609Q59.234 2.094 53.437.33q-5.78-1.75-12.218-1.75-16.563 0-26.094 10.124-9.516 10.14-9.516 27.672 0 17.578 9.516 27.703 9.531 10.14 26.094 10.14 6.531 0 12.312-1.734 5.797-1.734 10.875-5.203z" id="DejaVuSans-67"/><path d="M9.422 54.688h8.984V0H9.422zm0 21.296h8.984v-11.39H9.422z" id="DejaVuSans-105"/></defs><use xlink:href="#DejaVuSans-82"/><use x="64.982" xlink:href="#DejaVuSans-117"/><use x="128.361" xlink:href="#DejaVuSans-116"/><use x="167.57" xlink:href="#DejaVuSans-104"/><use x="230.949" xlink:href="#DejaVuSans-101"/><use x="292.473" xlink:href="#DejaVuSans-114"/><use x="333.586" xlink:href="#DejaVuSans-102"/><use x="368.791" xlink:href="#DejaVuSans-111"/><use x="429.973" xlink:href="#DejaVuSans-114"/><use x="469.336" xlink:href="#DejaVuSans-100"/><use x="532.813" xlink:href="#DejaVuSans-32"/><use x="564.6" xlink:href="#DejaVuSans-78"/><use x="639.404" xlink:href="#DejaVuSans-101"/><use x="700.928" xlink:href="#DejaVuSans-119"/><use x="782.715" xlink:href="#DejaVuSans-32"/><use x="814.502" xlink:href="#DejaVuSans-67"/><use x="884.326" xlink:href="#DejaVuSans-111"/><use x="945.508" xlink:href="#DejaVuSans-118"/><use x="1004.688" xlink:href="#DejaVuSans-105"/><use x="1032.471" xlink:href="#DejaVuSans-100"/><use x="1095.947" xlink:href="#DejaVuSans-32"/><use x="1127.734" xlink:href="#DejaVuSans-67"/><use x="1197.559" xlink:href="#DejaVuSans-97"/><use x="1258.838" xlink:href="#DejaVuSans-115"/><use x="1310.938" xlink:href="#DejaVuSans-101"/><use x="1372.461" xlink:href="#DejaVuSans-115"/></g><g id="legend_1"><path d="M128.2 161.015h144.675q3.2 0 3.2-3.2V88.96q0-3.2-3.2-3.2H128.2q-3.2 0-3.2 3.2v68.855q0 3.2 3.2 3.2z" fill="none" opacity=".8" stroke="#ccc" id="patch_5"/><path d="M131.4 98.718h32" fill="none" stroke="#000" stroke-linecap="round" stroke-width="1.5" id="line2d_4"/><g transform="matrix(.16 0 0 -.16 176.2 104.317)" fill="#696969" id="text_17"><defs><path d="M37.797 64.313L12.89 25.39h24.906zm-2.594 8.593H47.61V25.391h10.407v-8.203H47.609V0h-9.812v17.188H4.89v9.515z" id="DejaVuSans-52"/><path d="M45.406 27.984q0 9.766-4.031 15.125-4.016 5.375-11.297 5.375-7.219 0-11.25-5.375-4.031-5.359-4.031-15.125 0-9.718 4.031-15.093t11.25-5.375q7.281 0 11.297 5.375 4.031 5.375 4.031 15.093zm8.985-21.203q0-13.953-6.203-20.765Q42-20.797 29.203-20.797q-4.734 0-8.937.703-4.203.703-8.157 2.172v8.735q3.954-2.141 7.813-3.157 3.86-1.031 7.86-1.031 8.843 0 13.234 4.61 4.39 4.609 4.39 13.937v4.453q-2.781-4.844-7.125-7.234Q33.938 0 27.875 0 17.828 0 11.672 7.656q-6.156 7.672-6.156 20.328 0 12.688 6.156 20.344Q17.828 56 27.875 56q6.063 0 10.406-2.39 4.344-2.391 7.125-7.22v8.297h8.985z" id="DejaVuSans-103"/></defs><use xlink:href="#DejaVuSans-49"/><use x="63.623" xlink:href="#DejaVuSans-52"/><use x="127.246" xlink:href="#DejaVuSans-100"/><use x="190.723" xlink:href="#DejaVuSans-32"/><use x="222.51" xlink:href="#DejaVuSans-97"/><use x="283.789" xlink:href="#DejaVuSans-118"/><use x="342.969" xlink:href="#DejaVuSans-103"/></g><path d="M131.4 127.802h32v-11.2h-32z" fill="#089fff" opacity=".2" stroke="#fff" id="patch_6"/><g transform="matrix(.16 0 0 -.16 176.2 127.802)" fill="#696969" id="text_18"><defs><path d="M8.688 72.906h9.921V28.61q0-11.718 4.235-16.875 4.25-5.14 13.781-5.14 9.469 0 13.719 5.14 4.25 5.157 4.25 16.875v44.297H64.5V27.391q0-14.25-7.063-21.532-7.046-7.28-20.812-7.28-13.828 0-20.89 7.28-7.047 7.282-7.047 21.532z" id="DejaVuSans-85"/></defs><use xlink:href="#DejaVuSans-85"/><use x="73.193" xlink:href="#DejaVuSans-110"/><use x="136.572" xlink:href="#DejaVuSans-99"/><use x="191.553" xlink:href="#DejaVuSans-101"/><use x="253.076" xlink:href="#DejaVuSans-114"/><use x="294.189" xlink:href="#DejaVuSans-116"/><use x="333.398" xlink:href="#DejaVuSans-97"/><use x="394.678" xlink:href="#DejaVuSans-105"/><use x="422.461" xlink:href="#DejaVuSans-110"/><use x="485.84" xlink:href="#DejaVuSans-116"/><use x="525.049" xlink:href="#DejaVuSans-121"/></g><path d="M147.4 151.287v-7.7" fill="none" stroke="#000" stroke-dasharray="2.25,3.7125" stroke-width="1.5" id="line2d_6"/><g transform="matrix(.16 0 0 -.16 176.2 151.287)" fill="#696969" id="text_19"><defs><path d="M19.672 64.797V8.109h11.922q15.093 0 22.093 6.829 7 6.843 7 21.593 0 14.64-7 21.453-7 6.813-22.093 6.813zm-9.86 8.11h20.266q21.188 0 31.094-8.813 9.922-8.813 9.922-27.563 0-18.86-9.969-27.703Q51.172 0 30.078 0H9.813z" id="DejaVuSans-68"/></defs><use xlink:href="#DejaVuSans-68"/><use x="77.002" xlink:href="#DejaVuSans-97"/><use x="138.281" xlink:href="#DejaVuSans-105"/><use x="166.064" xlink:href="#DejaVuSans-108"/><use x="193.848" xlink:href="#DejaVuSans-121"/><use x="253.027" xlink:href="#DejaVuSans-32"/><use x="284.814" xlink:href="#DejaVuSans-67"/><use x="354.639" xlink:href="#DejaVuSans-97"/><use x="415.918" xlink:href="#DejaVuSans-115"/><use x="468.018" xlink:href="#DejaVuSans-101"/><use x="529.541" xlink:href="#DejaVuSans-115"/></g></g></g></g><defs><clipPath id="p3ba4744d7f"><path d="M117 77.76h725.4v498.96H117z"/></clipPath></defs></svg>