<svg height="864" viewBox="0 0 936 648" width="1248" xmlns="http://www.w3.org/2000/svg" xmlns:xlink="http://www.w3.org/1999/xlink"><defs><style>*{stroke-linecap:butt;stroke-linejoin:round}</style></defs><g id="figure_1"><path d="M0 648h936V0H0z" style="fill:#fff" id="patch_1"/><g id="axes_1"><path d="M117 576.72h725.4V77.76H117z" style="fill:none" id="patch_2"/><path clip-path="url(#p6ecc376622)" d="m149.973 554.04 44.899-.083 4.677-.235 2.806-.31.935-.283.936-.468 1.87-1.401.936-1.009 1.87-2.385 2.807-4.738.935-1.87 1.871-2.7 1.87-3.39.936-1.635 1.871-3.73.935-.913.936-1.214 1.87-1.378.936-.64.935-.15.936.435.935-.196.936.661.935.469.935.23.936.396.935.253.936.427.935.232.935-.209 1.871.306.936-.278 1.87-1.445.936-.18.935.54.936.11.935.293 2.806 1.43 1.871.235.935.121 1.871.505.936.813.935.592.935.749.936.558.935.18.936.433 3.741.699.936-.54.935.17.935-.248.936.158.935.313.935.179.936-.13 1.87.617.936.556.935.414 2.807-.319 1.87-.603.936-.16.935.116.936-.535.935.113.935.26.936.474.935.255.936-.368.935-.204.935.413.936-.362.935-.066.936-.245.935-.782.935-.36 1.871-1.311 1.871-1.792 2.806-4.095 3.742-6.583.935-1.16 3.742-6.727.935-.99.936-.677.935-1.005.935-.732.936-1.218.935-.557 1.87-2.8 2.807-4.99.936-1.141.935-2.031.935-.347.936-.222.935-.575.935.216.936.042.935-.18.936.73.935-.334.935-.556.936 1.036.935.09 2.806.795.936.57.935 1.279.936.44.935 1.503.935 1.23 1.871 3.149.936 1.019 2.806.542 1.87-.047.936.444.935.216.936.578.935.815 1.871 2.542.935 1.448.936 1.032.935 1.343.936.735.935 1.26.935-.37.936.52.935-.296.936.054.935.317.935.053.936-.14.935.503.936-.625.935 1.655.935-.101.936-.712.935.303.936.44.935 1.456.935 1.942.936-.114.935 1.071.936.583.935.405.935-.43 1.871-2.828.935-.763.936-.931.935-.17 1.871-.735.935-2.322.936.234.935-.293.936.014.935-.732 1.87-.235.936 2.261.936-.81 2.806-.093.935-.654.936.288.935-3.22.935.107 1.871-2.69.936-.692.935-.497.935-1.25.936 1.851.935-1.482.936-.879.935-1.153.935-1.478.936-.143.935-.399.936-2.24.935-.797.935-.563.936-1.257.935-1.907.936-3.318.935-1.521.935-1.183.936-1.773 1.87-4.265.936-1.873.935-.724.936-1.86 1.87-4.808.936-3.367 1.87-8.18.936-5.363.936-3.756.935-4.685.935-6.084.936-4.473.935-5.438.935-6.256 2.807-12.982.935-2.812.935-3.78.936-3.067.935-2.231.936-1.659.935-.72.935-1.68.936-2.085.935-1.068.936 10.863.935-.897.935 2.638.936.601.935 1.538.936-.819.935-2.645.935-14.75.936-3.282.935-6.98 2.806-13.901.936-2.384.935-.962.936-6.318.935-.234.935-1.58.936.467.935 2.129.936-3.228.935-1.605.935 3.77.936 1.751.935.554.936-.082.935.195.935 2.194.936 5.681.935 19.315.936-2.951.935 3.576.935 1.608.936.078.935-.152.936-4.822.935-5.954.935-9.609.936-6.387.935-8.075.936-4.369.935-3.473.935-6.338.936-19.735.935 5.102.935-.837.936 3.28.935.647.936 3.424.935 5.246.935 7.832.936 6.392.935 4.91.936 10.95 1.87 11.166 1.871 12.511.936 4.406.935 5.195.935-1.985.936 4.667.935 3.82 1.871 6.589.935 4.385 1.871 3.934 1.871 9.123.935 5.21.936 4.514 1.87 7.117.936 6.283.935 2.425.936 3.24.935 2.57.936 3.84.935 2.61.935 3.02.936 4.847.935 4.094.936 3.19.935 4.351.935 2.779.936 1.919.935 1.105.936-.539.935-.947.935-.519.936-.783.935-.039.936.906.935.55.935.355.936 1.834.935.975.936 1.362.935 1.623.935.783.936 1.393.935-4.86.935.223.936 1.082.935.63.936.196.935.904.935.266.936 4.801.935.176.936-.095.935.247.935.455.936-.625.935.488.936.314.935-.285.935-2.695.936-1.112.935-1.783.936-.807.935-1.327.935-2.06.936-.705.935 1.538.936-1.038.935.76.935-.442.936.989.935-.753.936.034.935-.663.935-.42.936-1.67.935-.08.936-1.433.935.6.935-1.974.936-.342.935.87.936.415.935 1.399.935.845.936.215.935 2.095.936 1.704.935.958.935 1.873.936.438.935 1.003.936 2.947.935 1.176 1.87 2.1 2.807 1.92.935-.336 1.871 2.702 1.87 2.688.936 1.426.936.94.935 1.72.935.889 1.871 2.377.936.837 1.87 1.315 1.871 1.74.936.859.935 1.134 1.87 2.918.936.33.936.46 1.87 1.34.936.24 2.806 2.63.935 2.587.936.034.935.84.936 1.063.935 5.916 1.87.309.936-1.793.936 1.077.935-.489.935.472.936-5.248.935.28.936-.082.935.557.935.297.936.804 1.87.994.936.09.935.35 1.871-.207.936.049 1.87-.613 1.871.098.936.038.935-.382.935-.25.936-6.46.935-.704.935.36.936.15.935 1.408.936-1.46.935-1.83.935 2.022.936-1.916.935-.484.936-.336.935-3.959.935-2.044.936-1.007.935 1.698.936-2.17.935-.603.935-.448.936-3.059.935-2.459.936-2.794 1.87-7.754.936-1.175.935-.618.936-4.358.935-5.747.935-3.235.936-4.216.935-5.091 1.871-2.207 1.87-11.13 1.872-7.205.935-5.872 1.87-3.29.936-5.465.936-1.514.935-5.558.935-1.508.936-2.448 1.87-1.986.936-10.387.935 2.288.936-1.162.935-2.705.936-1.57.935-3.801.935.417 2.807-2.427.935-3.6.935.475.936-.754.935-.204.935-1.833.936-1.292.935-5.15.936 1.552.935.57.935 2.469.936-.29.935 26.148.936-18.11.935 3.446.935.659.936 1.948.935-1.012.936.625.935-26.747.935 19.08 1.871 3.816.936 1.206.935.738.935-.051.936 9.884 1.87 5.839 1.871 6.934.936 2.132.935.736.936 1.72.935 2.137.935 2.44.936 1.498.935 1.83 1.871 2.027.935 2.84.936 1.894.935.329.936 1.389.935 1.652.935.885.936.36.935 6.3.936-1.667.935 2.494 1.87 3.959.936.487 1.87.326.936 3.585.936 2.563.935.903.935 1.447.936.478.935.65.936 2.117.935-.481.935-1.018.936-.545.935-.184.936.053.935-.229.935-2.443 1.871 2.594.936.398 2.806-1.128.935-.243.936-.776.935-1.827.935 2.376.936-4.831.935-3.787.936-.196.935-2.848.935-.965.936-1.966.935-5.871.936 1.247.935 2.614.935-.998.936-1.32.935-.295.936-.711.935 10.209.935 8.756.936 2.107.935.954.936-7.38.935-2.124.935-2.502 1.871-26.941.936-4.301.935-1.366.935 2.425.936-.604.935-1.245.936 1.956.935-1.519.935.874.936-.229.935-.698.936-.369.935.432.935-2.93.936-.629.935-3.146.935-4.642.936-12.855.935-9.33.936-12.597.935-15.263.935-1.815.936 2.246h0" style="fill:none;stroke:#000;stroke-linecap:round;stroke-width:1.5" id="line2d_1"/><path clip-path="url(#p6ecc376622)" d="m149.973 554.04 46.77-.104 1.87-.114 1.871-.219 1.87-.765.936-.717.936-1.434.935-.665.936-1.971.935-2.637.935-4.046.936-3.51.935-2.698.936-10.288 2.806-25.322.935-11.02.935-5.837.936-13.451.935-4.09.936-11.19.935-9.167.935-5.315.936-1.591.935-6.014.936 2.556.935-1.211 1.87 6.697.936-1.51.936 4.041.935-4.34.935 3.87.936-3.31.935 1.952.936 2.897.935-.864.935-3.662.936 3.13.935-6.042.936.774.935 4.48.935-1.777.936 1.738.935 6.436.936 4.337.935 5.082.935 8.246.936-1.573.935 3.8.936 2.318.935 2.969.935 1.634.936 5.277 1.87 6.469.936 4.256.935 7.504.936.532.935 7.249.936 2.28 1.87 5.79.936 2.123.935.96.936-1.388.935-.836.935-2.702.936.337.935-.219.935 3.795.936.927.935 3.643.936 1.434.935 2.48.935-.542.936 1.036.935-1.8.936 1.011.935 2.209.935.213.936 1.62.935 3.444 1.871 2.042.935 2.689.936.664.935 1.558 1.871-.166.935 2.176.936.55.935-.023.936.527.935-.114.935 1.297.936.313.935-.195.936.49 2.806-.376.935.566.936-8.331.935.004.935.233.936-.005.935.87.936-.361.935-.49.935 8.208h1.871l.936-.285.935-.565.935.608.936.042.935.946.936.133.935-.19.935.142.936-.071 1.87-1.254.936.038.935 1.463.936.323.935 1.757.935.21.936.474.935.262.936-.09.935-1.939.935-1.187.936-2.546.935-1.278.936-.902.935-.432.935.18.936-1.102.935.684 1.871 1.753.935.603.936.432.935-.807.936 1.567.935.005.935-.11.936.03.935-.419.936-.541.935-1.34.935-.997.936.427.935 1.573.936-.257 1.87 1.154.936 2.641.935 1.33.936-1.192.935-.641.935.413.936.138.935.394.936-.983.935-.323.935.855 1.871-1.269.936-.133 2.806-1.111.935.114.936-.095.935.08.935.252.936-.1 1.87-.336.936-.59 1.87.058.936-.756.935-.29.936-.688 1.87-.119.936-.74.935-.276.936.047 2.806-.351.935-1.373.936-1.164.935-.793.936-.142.935-1.425.935-.238 1.871-1.848 1.871.57.935-.821.936.945.935-3.249.936-.594.935.395.935-.594.936.2.935-1.706.936-2.042.935 1.553.935.261.936-.332.935-2.49.936-3.433h.935l.935-.433.936-.907.935-1.116.936-4.631.935.694.935-.114 1.871-6.17.936-1.843.935-4.422.935 2.593.936-2.916 1.87-1.563.936-3.672.935-1.957.936-.878.935-8.735.936-1.283.935-3.277.935-9.276.936-2.955.935-7.267 1.87-11.338.936-11.993.936-.765.935-1.182.935-4.698.936-3.277.935-1.088.936-1.5.935 2.707.935-6.47.936-1.182.935-.024.936-1.382.935-2.228.935 4.118.936.613.935 1.857.936-1.572.935-1.16.935-1.519 1.871-14.677.936-10.407.935-1.771.935-4.133.936-.76.935-1.553.936 9.562.935-4.351.935 8.91.936-5.866.935 7.172.936-5.88.935 4.109.935-1.169.936 9.733.935-4.85.936 7.728.935-3.026.935 4.237.936-2.132.935-5.53.936.913.935 13.56.935 2.029.936 4.493.935.432 1.87-3.956 1.872-13.594.935-229.643.936-12.383.935-5.386.935-11.319.936-7.22 1.87-18.41.936 217.327.935 7.97.936-9.623.935 1.838.935 3.116.936 6.707.935 2.422.936 7.049.935-.195.935 11.585 1.871 19.992.936-5.458.935-.646.935-1.377.936-.708.935 2.988.936 1.434.935-8.483.935 8.901.936 4.674.935 2.983.936 7.723.935 11.87.935 6.92.936 8.35.935 3.629.936-.209.935 4.531.935-2.028.936-9.78.935-1.743.936 2.356.935 3.577.935 10.278.936 5.301.935-.266.936 1.24.935 1.805.935 3.258.936 4.175.935.65.936-5.98.935 2.257.935 4.707.936-1.42.935-3.91.936-5.97.935-1.705.935-2.08.936-.623.935-2.721.936 1.814.935.812.935 1.962.936-.617.935 3.966.935-3.976.936-.399.935-2.95.936-2.46.935-.689.935-3.752.936-2.446.935 1.943.936-2.551.935-3.125.935-.836.936-4.95.935.342.936-1.562.935-5.159.935 1.026.936 2.508.935-5.733.936 1.154.935-6.018.935-2.232.936-.332.935 2.032.936-7.903.935 5.082.935 1.05 1.871 7.096.936 5.514.935-2.721.935 6.06.936 1.596.935 4.019.936 1.966.935 1.686.935-1.149.936 3.22.935 1.967.936-.893.935-1.534.935 1.13.936 1.392.935 5.296.936.418.935 3.268.935 7.348.936 5.41.935 6.91.936 53.141.935 3.396.935 6.479 1.871 9.324.936 5.671.935 2.356.935-47.441.936 5.32.935-1.986 1.87 8.175 1.872 8.54.935 3.947.935 2.104.936 9.704.935 4.678.936 3.06.935.018.935.333.936-.931.935-.4.936.2.935-.631.935-1.563.936 1.273.935-.152 1.871 2.384.935.233.936.793.935 1.834.936.584.935.261.935-.451.936 1.097 1.87 1.116.936-.128.935-.49.936.177.935-.053.936-.175.935.422.935-.29.936.09.935.519.936.01.935-.11.935-.257.936-.47.935.494.936.038 1.87.494.936.428 1.87.156.936-.161.935-.394 1.871-.167 1.87.01 1.872.603 2.806.589 1.87.618 2.807-1.373.935-.575.936-.812.935-.613.935-.993.936-.389 1.87-1.002.936-1.13.935-.69.936-.46 1.87-2.988.936-1.425.935-1.97.936-1.483.935-.798.936-.992.935-.646.935-1.183.936-1.572.935-.998 1.871-3.101.935-1.696.936-2.465.935-1.34.936-1.847.935-1.079.935-1.695.936-1.145.935.08.936-1.5.935-2.166.935-1.843.936-2.365.935-4.869.936-.499.935-2.104.935-.912.936.043.935-.798.936-5.206.935 1.929.935-.836.936-1.52.935-.171.936-2.071.935-.152.935 1.653.936 1.064.935-1.9.935.55.936-1.286.935-.808.936-2.318.935 4.07.935-1.49.936.645.935-2.104.936 8.426.935-5.77.935 1.576.936-4.412.935-1.169.936-.631.935 1.928.935-7.999.936 5.81.935-3.553.936 1.377.935-.613 1.87-.665.936-.603.936-.36.935 3.352.935.656.936 1.848.935 3.795.936 2.204.935 1.315.935 1.682.936-.357.935 2.675.936 1.42.935-1.634.935-.413.936 1.14.935.688.936 1.245.935-.931.935.508.936.1.935 1.387.936.028.935.504.935 2.028.936 2.308.935 1.786.936 2.55.935.889.935 1.919.936 3.04.935.807.935-1.534.936 1.482.935.518.936-.836.935-1.116.935-.87.936-2.36.935 1.9.936-.428.935-2.033.935.58.936 1.225.935-.043.936 2.19.935-.375.935-.822.936 1.373.935-.147.936-1.183 1.87-3.13.936-2.071.935-1.116.936-3.681.935-2.423 1.87-2.778.936-3.088.936-1.985.935-2.665.935.47.936-.86.935-4.279.936-1.235.935-1.795.935.45.936.994.935-1.269.936-3.315.935-2.902.935-4.655.936-7.652 1.87-22.528.936-7.728 1.87-6.873 2.807-15.318.935-.864.936-1.644.935-1.377.936-2.123.935-3.473.935-7.628.936-9.186.935-14.477 1.87-34.764.936-19.46.936-32.854 1.87-106.6.936-56.223h0" style="fill:none;stroke:#009e73;stroke-linecap:round;stroke-width:1.5" id="line2d_2"/><path clip-path="url(#p6ecc376622)" d="m149.973 554.04 41.157-.09 6.548-.408.935-.136.936-.633h.935l.936-1.267.935-.95.935-2.037.936-7.332.935-1.855.936-.272.935-4.254.935-5.566 1.871-6.246.936-10.092.935-11.495.935-14.165.936-10.68.935-7.286.935-15.161.936-21.135.935-9.865.936-21.18.935-25.389.935-4.344.936-16.383.935-11.042.936 11.042.935 6.155.935 8.236.936 20.818.935.226 1.871 31.86.935-3.665.936-4.164 1.87 11.993.936-2.444.935-2.896.936-.498.935 4.164.936 8.96.935 6.336.935-3.394 1.871 21.813.936 8.961.935 6.11.935 9.006.936 4.254.935 10.454.936.724.935 1.9.935-1.402.936 6.11.935 3.393.936 5.431.935 2.218.935 3.892.936-.09.935 5.204.936.045.935 7.195.935-.678.936 1.99.935.453 1.87.046.936 2.85.936-6.109.935 2.037.935 1.629.936-.95 1.87.09 1.871-6.064.936.226.935 1.222 1.871 6.426.935 1.403.936.77.935 4.661.936.453.935-1.856.935 1.856.936.18.935-.18.936-2.308.935-.906.935 1.403.936-1.493.935.317.936-.181.935-.815.935 3.032.936 1.403.935.272.936 1.493.935-.045.935.136.936.95.935-.045.936-14.12.935-3.575.935.814.936-2.941.935.271.936-.724.935.272.935 13.848.936 1.765.935-.86.936.724.935-.407.935 1.222.936-1.539.935-1.04.936.09.935.452.935 1.765.936.453.935.226.936 1.81.935 1.222.935 1.81.936.317.935 1.041.935-1.539.936-.09.935-1.177 1.871-1.086.935-.77.936-1.493h.935l.936-1.946h.935l.935.589.936-1.403 1.87.679.936 1.04.935.181.936.725.935-.408.936 1.584.935-1.584.935-.724h.936l.935.815.936-.272.935-.498.935-4.208.936-.227.935-1.448.936-2.308.935.588.935 1.449 1.871 8.327.936 1.267.935 2.941.935 2.535.936-.77.935-1.765.936-2.896.935.045.935-.543.936-1.222.935-.769.936-.996.935.589.935-.68.936-.361.935 1.946.936.18.935.68.935 1.674.936-.136.935.498.936-.136.935-.316.935.09.936-.045.935 1.086.935-.09.936-1.584.935-.046.936-.724.935.362h.935l.936-2.262.935.271.936 1.312.935.227.935-.272.936-.905.935-.18.936.904.935-.452.935-1.856 1.871-2.444.936.046.935-.317.935-.86 2.807-2.127.935-.77.935-1.086.936-.362.935-2.217 1.871-1.765.935-.09.936.27.935-1.493.936-2.67.935.09.935-2.443.936-.09.935-.589.936-3.575.935-.905.935-.634.936-2.127.935 1.222.936-1.403.935-5.476.935.815.936-1.856 1.87-2.624.936-5.431.935 1.448.936-.181.935-9.096.936-2.263.935.679.935-5.703.936-4.616.935-13.712.935-6.29.936-2.4.935-8.689.936-2.262.935-4.073.935-4.843.936-1.539.935.498.936-2.534.935-.09.935-9.414.936 2.49.935 4.027.936 1.177.935-9.368.935 10.544.936-4.344.935 4.797.936-5.43.935-2.988.935-3.801.936-3.032.935-13.668 1.871-4.027.935 3.665.936 5.522.935 3.439.936 14.89.935-.77.935 7.92.936-2.806.935 1.72.936-6.698.935 2.58.935-4.888.936 8.01h.935l.936 6.562h.935l.935-1.63.936-4.208.935-2.037.936 2.444.935 6.472.935-.181.936 1.131.935 2.218.936-3.44.935-1.493.935-6.155.936-3.394.935-197.678.936-14.527.935-9.051.935-5.657.936-9.368.935-6.97.935-10.408.936 192.518.935 12.808.936-5.929.935-3.937.935 4.344 1.871 4.345.936 3.982.935-6.064.935 7.784 1.871 20.999.936-5.204.935-.046.935-2.941.936 1.176.935 3.757.936-.136.935-5.024.935 6.2.936 2.897.935-.453.936 7.015.935 12.128.935 4.707.936-1.674.935 1.9.936-.497.935 4.435.935-.634.936-10.409.935.589.936 5.702.935 2.85.935 7.83.936 5.024.935-8.735.936 3.394.935 1.358 1.87 6.336.936 1.267.936-9.82.935 4.254.935-.227.936-5.159.935-9.775.936-3.756.935-.906.935-6.29.936.498.935-5.612.936 4.435.935 2.67.935 9.775.936-3.801.935 10.726.935-5.205.936 4.345.935-5.476.936.588.935-8.146.935-2.353.936-2.942.935 1.72.936-3.937.935 1.402.935-4.118.936-5.793.935.996 1.871-3.077.935 2.081.936 4.888.935-9.051.936-2.127.935-7.875.935-.316.936-1.087.935-5.385.936-7.694.935 9.776.935 2.534.936 7.558.935 1.312.936 8.101.935 1.946 1.87 11.314.936 6.11.936 2.081.935 4.254.935 1.177.936 7.105.935 2.037.936-.136.935.136.935 4.39.936 3.167.935 3.802.936 2.172.935 2.625.935 7.422.936 4.209.935 3.394.936 7.784.935 2.76.935 6.11 1.871 6.834.936 6.698.935 3.258.935-3.801.936 4.344.935-50.143.935-7.784.936 3.62.935 1.946.936.77.935 2.308.935 1.81.936 54.714.935 16.111.936.498.935-.045.935.543.936-.317.935.996.936 2.036.935.996.935.18.936 2.807.935.905.936.588.935-.588h.935l.936-.407.935 1.72.936.407 1.87 1.403.936 1.448 1.87 2.036.936.09.935-.995.936-.452h.935l1.871-.362.935-.589.936-.226.935.95 1.871-.271.935-.815.936-.09.935.362 1.87.498.936.362.936.497.935.272.936-.724.935-1.132.935.09.936-.497.935-.271 2.806-.362.936.543.935-.136.935.045.936.77.935.18 1.871 1.856.935.09.936.272.935.09.936-1.176.935-.226 1.87-2.49.936-.724 1.871-2.58h.935l.936-.723.935-.317.936-.181.935-1.9.935-2.264 3.742-6.426.935-2.217.936-1.54.935-.542.936-1.267.935-1.765.935-.589.936-2.263 1.87-.18.936-1.087.935.181.936.589.935 1.04.936-2.76.935-2.353.935-3.214.936-.226.935-4.933.936 3.757.935-1.494.935-.498.936-1.176.935 2.036.936-6.155.935 1.901.935-5.974.936-1.538.935 1.855.936-1.04.935-1.313.935 2.625.936-1.222.935-.996.935.226.936-.588.935 1.086.936-.633.935 3.982.935.272.936.678.935-1.583.936 6.154.935-4.661.935-.362.936-4.57.935-.363.936-.226.935 2.308.935-7.558.936 4.526.935-.634.936 2.353.935.09 1.87-1.312.936 2.987.936-1.176.935.724.935-2.49.936.86.935 1.041.936-.135.935.18.935 1.042.936-.408.935 2.76.936.816.935 2.353.935 1.131.936.136.935.815.936 2.398.935 1.946.935 1.132.936-1.403.935 2.036.936.407.935.906.935.724.936.452.935-.905.936 2.987.935-1.04 1.87 5.882.936 2.308.935-.814.936 3.53.935-.09.936-1.358.935-3.53.935-1.177.936-2.715.935-.227.936-1.222.935-.452.935 1.72.936 2.534.935-.634.936 2.308.935 1.54.935.542.936.272.935.09.936-.995.935 1.176.935-1.81.936-.815.935-1.086.936-4.118.935-1.856.935-2.896.936-4.616.935-2.127 1.871-6.155.935.09.936-.045.935-2.85.936 1.447.935-1.72.935.499.936 1.04h.935l1.871-4.299 1.87-9.866 1.872-12.807.935-3.53 1.87-9.504.936-2.353.936-7.015.935-4.887.935-2.354.936-5.068.935-.996.936 1.267.935-10.635.935-8.1.936-12.99 1.87-37.2.936-14.527.935-24.755.936-36.295.935-55.484 1.87-136.401h0" style="fill:none;stroke:#d55e00;stroke-linecap:round;stroke-width:1.5" id="line2d_3"/><path clip-path="url(#p6ecc376622)" d="M149.973 554.04h53.317l.936-4.61h1.87l.936-2.305h.935l1.871-13.83.936-9.22.935-2.304.935-6.915.936-2.305 1.87-23.05.936-9.22.935 9.22.936-11.525.935-29.964.935-20.745.936 4.61.935 6.915.936 9.22.935-18.44.935-2.305.936 32.27.935 25.354.936-6.915.935 2.305.935-2.305.936 11.525.935 4.61.936-2.305h.935l1.87 4.61.936-2.305h.936l.935-4.61.935 2.305h1.871l1.871 13.83.935 4.61.936 9.22.935-2.305h.936l.935 11.524h.935l.936 4.61.935 6.915.936 4.61.935 6.915h.935l1.871-18.44 1.87-4.61h2.807l.936 9.22.935 6.915 2.806 6.915h5.612l.936-4.61h1.87l.936-6.915h2.806l.936 4.61h1.87l.936 6.915h.935l.936-2.305h.935l.935-2.305h3.742l.935 2.305h.936l.935 2.305h1.871l.935-4.61.936 2.305 2.806-6.915h1.87l.936-4.61h1.871l1.87 4.61h1.872l.935-4.61.935-2.305.936 2.305.935-2.305.936-4.61h1.87l.936 9.22h1.87l.936 2.305.935 4.61h1.871l.935 4.61.936-4.61 1.87-4.61h2.807l.935-2.305.936 6.915.935 2.305h5.612l.936-2.305.935 2.305h2.806l.936 2.305h2.806l.935-2.305h1.871l.936-2.305h.935l.935 2.305.936-2.305h2.806l.935 2.305.936-4.61.935-2.305h.936l.935 2.305h1.87l.936-2.305.936 4.61.935-6.915.935 2.305h2.807l.935 2.305.935-6.915.936 9.22h3.741l.936-2.305.935 6.915.935-4.61.936-2.305h2.806l.935-4.61h.936l1.87 4.61h2.807l.935 6.915h.936l.935 2.305h3.742l.935-4.61.935-2.305.936-11.525.935-20.744.936-4.61h2.806l.935-11.525 1.871 18.44 2.806-20.745h.936l.935 13.83.935-6.915 1.871 23.05 1.871 13.83 1.87-18.44.936-2.305 1.87-23.05h1.872l.935-13.83.936 6.915.935-4.61.935 4.61h2.807l.935-16.135.935-6.914.936 16.134.935-32.27.935-4.609h1.871l.936 6.915.935-18.44.935-27.66.936 20.745.935-16.134.936-11.525h.935l.935 4.61.936 9.22.935 13.83.936 18.439.935 32.27.935-34.575h1.871l.936 2.305.935-11.525.935-36.88.936-55.318.935 20.744h.936l.935 6.915.935-11.524.936 13.83.935-4.61.936 34.574.935 25.354h.935l.936-6.915.935 6.915.936-4.61.935 41.49.935-18.44h1.871l.936-29.964.935 4.61.935-46.1.936-11.525.935 39.185h1.87l.936-6.915.936 4.61.935 18.44.936-13.83h2.806l.935-6.915.936-29.965.935 11.525.935-9.22.936-27.66.935-23.049h.935l.936 25.355.935 16.135.936-2.305.935 11.524.935 4.61.936 23.05h.935l.936 50.709.935-23.05.935 11.525.936 13.83.935 16.135h1.871l.935-71.454.936 39.184.935 9.22.936-4.61.935-29.964.935-11.525h.936l.935 71.454.936 9.22.935-46.1.935-4.61.936 20.745.935 11.525h.936l.935-36.88.935-16.134.936 48.404 1.87 9.22.936-16.135h.935l.936 36.88.935-16.135h.936l.935 6.914h.935l.936 16.135.935-16.135.936-9.22.935 18.44.935 2.305.936-23.05.935-9.22h.936l.935 16.136.935-27.66.936-9.22.935-4.61.936 23.05.935-11.525h1.87l.936 4.61.935 13.83.936-4.61.935-25.355.936 20.745h1.87l.936-20.745.935-6.915h.936l.935 25.355h2.806l.936-2.305 1.87 4.61.936-11.525.935-4.61h.936l.935-20.744.935 29.964.936-4.61.935 9.22.936-23.05.935-4.61h.935l.936 20.745.935-13.83h.936l1.87-11.524v20.744l.936 9.22.935-2.305h.936l.935 16.135 1.87 13.83.936-6.915h.936l.935-9.22h.935l.936 16.134.935 9.22.936-2.305.935 11.525h.935l.936 11.525h.935l.936-6.915.935-4.61 1.87 13.83.936-9.22.936-2.305h.935l.935 9.22.936 4.61.935-6.915.935 4.61.936 16.135.935 2.305h.936l.935-4.61.935 2.305.936 11.524 1.87 9.22h1.871l.936 9.22h.935l.936 2.305.935-2.305h4.677l1.87-4.61h5.613l.936 4.61h3.741l.936-6.915h5.612l.935 6.915.936 2.305h7.483l.935-9.22h4.677l.936-2.305.935 9.22h5.612l.936-2.305h3.741l1.871-4.61.936 2.305h3.741l.936 2.305h.935l.935-13.83h1.871l.936-48.404.935-4.61.935-2.305.936-11.524.935 2.305h1.871l.935 32.269.936-2.305h.935l.936 11.525.935 9.22h1.87l.936-6.915h.936l.935-11.525.935-9.22.936-2.305h2.806l.935 2.305.936 11.525 1.87 9.22h1.871l.936 18.44.935-4.61 1.87-4.61h2.807l.935-11.525.936-6.915.935-11.525.936 6.915.935-11.525h1.87l.936 16.135.936-11.525.935 2.305.935 4.61h2.807l.935-20.745.935 20.745.936 4.61.935-18.44.936 2.305h1.87l.936-9.22.935 4.61.936-2.305.935 6.915.935 2.305h1.871l.936 20.745.935-4.61 1.87 4.61.936-2.305h2.806l.936 2.305.935-4.61.936 9.22.935-16.135h1.87l.936 9.22.936-9.22.935 9.22.935-4.61.936 20.745h1.87l.936-18.44.935 6.915.936 2.305.935-4.61h2.806l.936 13.83.935 4.61.935 2.304.936 4.61.935 2.305h1.871l.935-13.83.936-6.914h.935l.936 4.61.935-2.305h1.87l.936 6.914.936 4.61.935-20.744h.935l.936-11.525h1.87l.936-2.305.935-4.61.936 16.135.935-6.915.936 9.22h1.87l.936-20.745.935-2.305.936-11.525 1.87 13.83h1.871l.936-11.525.935-4.61.935 11.525.936-18.44.935-20.744h1.87l.936 16.135.936-6.915.935-23.05.936-4.61.935-2.305h1.87l.936-9.22.936-6.914.935-11.525.935-29.965.936 6.915.935-94.503.935-27.66h.936l.935-34.574.936-59.929.935-23.05.935 16.135.936 94.504.935 27.659h0" style="fill:none;stroke:#0072b2;stroke-linecap:round;stroke-width:1.5" id="line2d_4"/><path d="M117 576.72V77.76" style="fill:none;stroke:#d3d3d3;stroke-linecap:square;stroke-linejoin:miter;stroke-width:1.25" id="patch_3"/><path d="M117 576.72h725.4" style="fill:none;stroke:#d3d3d3;stroke-linecap:square;stroke-linejoin:miter;stroke-width:1.25" id="patch_4"/><g id="matplotlib.axis_1"><g id="xtick_1"><g style="fill:#696969" transform="matrix(.16 0 0 -.16 118.932 598.378)" id="text_1"><defs><path d="M9.813 72.906h9.859V5.078q0-13.187-5-19.14-5-5.954-16.094-5.954h-3.75v8.297h3.078q6.531 0 9.219 3.672Q9.813-4.39 9.813 5.078z" id="DejaVuSans-74"/><path d="M34.281 27.484q-10.89 0-15.093-2.484-4.204-2.484-4.204-8.5 0-4.781 3.157-7.594 3.156-2.797 8.562-2.797 7.485 0 12 5.297 4.516 5.297 4.516 14.078v2zm17.922 3.72V0H43.22v8.297Q40.14 3.328 35.547.953q-4.594-2.375-11.234-2.375-8.391 0-13.36 4.719Q6 8.016 6 15.922q0 9.219 6.172 13.906 6.187 4.688 18.437 4.688h12.61v.89q0 6.203-4.078 9.594-4.078 3.39-11.453 3.39-4.688 0-9.141-1.124-4.438-1.125-8.531-3.375v8.312q4.921 1.906 9.562 2.844 4.64.953 9.031.953 11.875 0 17.735-6.156 5.86-6.14 5.86-18.64z" id="DejaVuSans-97"/><path d="M54.89 33.016V0h-8.984v32.719q0 7.765-3.031 11.61-3.031 3.858-9.078 3.858-7.281 0-11.484-4.64-4.204-4.625-4.204-12.64V0H9.08v54.688h9.03v-8.5q3.235 4.937 7.594 7.374Q30.078 56 35.797 56q9.422 0 14.25-5.828 4.844-5.828 4.844-17.156z" id="DejaVuSans-110"/></defs><use xlink:href="#DejaVuSans-74"/><use x="29.492" xlink:href="#DejaVuSans-97"/><use x="90.771" xlink:href="#DejaVuSans-110"/></g></g><g id="xtick_2"><g style="fill:#696969" transform="matrix(.16 0 0 -.16 202.546 598.378)" id="text_2"><defs><path d="M34.188 63.188 20.797 26.906h26.812zm-5.579 9.718h11.188L67.578 0h-10.25l-6.64 18.703h-32.86L11.188 0H.78z" id="DejaVuSans-65"/><path d="M18.11 8.203v-29H9.077v75.484h9.031v-8.296q2.844 4.875 7.157 7.234Q29.594 56 35.594 56q9.968 0 16.187-7.906 6.235-7.907 6.235-20.797T51.78 6.484q-6.218-7.906-16.187-7.906-6 0-10.328 2.375-4.313 2.375-7.157 7.25zm30.578 19.094q0 9.906-4.079 15.547-4.078 5.64-11.203 5.64-7.14 0-11.218-5.64-4.079-5.64-4.079-15.547 0-9.906 4.078-15.547 4.079-5.64 11.22-5.64 7.124 0 11.202 5.64t4.078 15.547z" id="DejaVuSans-112"/><path d="M41.11 46.297q-1.516.875-3.297 1.281Q36.03 48 33.89 48q-7.625 0-11.703-4.953-4.079-4.953-4.079-14.234V0H9.08v54.688h9.03v-8.5q2.844 4.984 7.375 7.39Q30.031 56 36.531 56q.922 0 2.047-.125 1.125-.11 2.484-.36z" id="DejaVuSans-114"/></defs><use xlink:href="#DejaVuSans-65"/><use x="68.408" xlink:href="#DejaVuSans-112"/><use x="131.885" xlink:href="#DejaVuSans-114"/></g></g><g id="xtick_3"><g style="fill:#696969" transform="matrix(.16 0 0 -.16 291.854 598.378)" id="text_3"><defs><path d="M8.5 21.578v33.11h8.984V21.922q0-7.766 3.016-11.656 3.031-3.875 9.094-3.875 7.265 0 11.484 4.64 4.234 4.64 4.234 12.656v31h8.985V0h-8.984v8.406Q42.047 3.422 37.718 1q-4.313-2.422-10.032-2.422-9.421 0-14.312 5.86Q8.5 10.296 8.5 21.578zM31.11 56z" id="DejaVuSans-117"/><path d="M9.422 75.984h8.984V0H9.422z" id="DejaVuSans-108"/></defs><use xlink:href="#DejaVuSans-74"/><use x="29.492" xlink:href="#DejaVuSans-117"/><use x="92.871" xlink:href="#DejaVuSans-108"/></g></g><g id="xtick_4"><g style="fill:#696969" transform="matrix(.16 0 0 -.16 373.73 598.378)" id="text_4"><defs><path d="M39.406 66.219q-10.75 0-17.078-8.016-6.312-8-6.312-21.828 0-13.766 6.312-21.781 6.328-8 17.078-8 10.735 0 17.016 8 6.281 8.015 6.281 21.781 0 13.828-6.281 21.828-6.281 8.016-17.016 8.016zm0 8q15.328 0 24.5-10.281 9.188-10.282 9.188-27.563 0-17.234-9.188-27.516-9.172-10.28-24.5-10.28-15.375 0-24.593 10.25-9.204 10.265-9.204 27.546t9.204 27.563q9.218 10.28 24.593 10.28z" id="DejaVuSans-79"/><path d="M48.781 52.594v-8.407q-3.812 2.11-7.64 3.157-3.828 1.047-7.735 1.047-8.75 0-13.593-5.547-4.829-5.532-4.829-15.547 0-10.016 4.829-15.563 4.843-5.53 13.593-5.53 3.907 0 7.735 1.046 3.828 1.047 7.64 3.156V2.094Q45.016.344 40.984-.531q-4.015-.89-8.562-.89-12.36 0-19.64 7.765-7.266 7.765-7.266 20.953 0 13.375 7.343 21.031Q20.22 56 33.016 56q4.14 0 8.093-.86 3.953-.843 7.672-2.546z" id="DejaVuSans-99"/><path d="M18.313 70.219V54.688h18.5v-6.985h-18.5V18.016q0-6.688 1.828-8.594 1.828-1.906 7.453-1.906h9.218V0h-9.218q-10.407 0-14.36 3.875-3.953 3.89-3.953 14.14v29.688H2.687v6.984h6.594V70.22z" id="DejaVuSans-116"/></defs><use xlink:href="#DejaVuSans-79"/><use x="78.711" xlink:href="#DejaVuSans-99"/><use x="133.691" xlink:href="#DejaVuSans-116"/></g></g><g id="xtick_5"><g style="fill:#696969" transform="matrix(.16 0 0 -.16 461.287 598.378)" id="text_5"><use xlink:href="#DejaVuSans-74"/><use x="29.492" xlink:href="#DejaVuSans-97"/><use x="90.771" xlink:href="#DejaVuSans-110"/></g></g><g id="xtick_6"><g style="fill:#696969" transform="matrix(.16 0 0 -.16 543.966 598.378)" id="text_6"><use xlink:href="#DejaVuSans-65"/><use x="68.408" xlink:href="#DejaVuSans-112"/><use x="131.885" xlink:href="#DejaVuSans-114"/></g></g><g id="xtick_7"><g style="fill:#696969" transform="matrix(.16 0 0 -.16 633.274 598.378)" id="text_7"><use xlink:href="#DejaVuSans-74"/><use x="29.492" xlink:href="#DejaVuSans-117"/><use x="92.871" xlink:href="#DejaVuSans-108"/></g></g><g id="xtick_8"><g style="fill:#696969" transform="matrix(.16 0 0 -.16 715.15 598.378)" id="text_8"><use xlink:href="#DejaVuSans-79"/><use x="78.711" xlink:href="#DejaVuSans-99"/><use x="133.691" xlink:href="#DejaVuSans-116"/></g></g><g id="xtick_9"><g style="fill:#696969" transform="matrix(.16 0 0 -.16 802.707 598.378)" id="text_9"><use xlink:href="#DejaVuSans-74"/><use x="29.492" xlink:href="#DejaVuSans-97"/><use x="90.771" xlink:href="#DejaVuSans-110"/></g></g></g><g id="matplotlib.axis_2"><g id="ytick_1"><g style="fill:#696969" transform="matrix(.16 0 0 -.16 97.32 560.119)" id="text_10"><defs><path d="M31.781 66.406q-7.61 0-11.453-7.5Q16.5 51.422 16.5 36.375q0-14.984 3.828-22.484 3.844-7.5 11.453-7.5 7.672 0 11.5 7.5 3.844 7.5 3.844 22.484 0 15.047-3.844 22.531-3.828 7.5-11.5 7.5zm0 7.813q12.266 0 18.735-9.703 6.468-9.688 6.468-28.141 0-18.406-6.468-28.11-6.47-9.687-18.735-9.687-12.25 0-18.718 9.688-6.47 9.703-6.47 28.109 0 18.453 6.47 28.14Q19.53 74.22 31.78 74.22z" id="DejaVuSans-48"/></defs><use xlink:href="#DejaVuSans-48"/></g></g><g id="ytick_2"><g style="fill:#696969" transform="matrix(.16 0 0 -.16 87.14 501.056)" id="text_11"><defs><path d="M19.188 8.297h34.421V0H7.33v8.297q5.609 5.812 15.296 15.594 9.703 9.797 12.188 12.64 4.734 5.313 6.609 9 1.89 3.688 1.89 7.25 0 5.813-4.078 9.469-4.078 3.672-10.625 3.672-4.64 0-9.797-1.61-5.14-1.609-11-4.89v9.969Q13.767 71.78 18.938 73q5.188 1.219 9.485 1.219 11.328 0 18.062-5.672 6.735-5.656 6.735-15.125 0-4.5-1.688-8.531-1.672-4.016-6.125-9.485-1.218-1.422-7.765-8.187-6.532-6.766-18.453-18.922z" id="DejaVuSans-50"/></defs><use xlink:href="#DejaVuSans-50"/><use x="63.623" xlink:href="#DejaVuSans-48"/></g></g><g id="ytick_3"><g style="fill:#696969" transform="matrix(.16 0 0 -.16 87.14 441.993)" id="text_12"><defs><path d="M37.797 64.313 12.89 25.39h24.906zm-2.594 8.593H47.61V25.391h10.407v-8.203H47.609V0h-9.812v17.188H4.89v9.515z" id="DejaVuSans-52"/></defs><use xlink:href="#DejaVuSans-52"/><use x="63.623" xlink:href="#DejaVuSans-48"/></g></g><g id="ytick_4"><g style="fill:#696969" transform="matrix(.16 0 0 -.16 87.14 382.93)" id="text_13"><defs><path d="M33.016 40.375q-6.641 0-10.532-4.547-3.875-4.531-3.875-12.437 0-7.86 3.875-12.438 3.891-4.562 10.532-4.562 6.64 0 10.515 4.562 3.875 4.578 3.875 12.438 0 7.906-3.875 12.437-3.875 4.547-10.515 4.547zm19.578 30.922v-8.984q-3.719 1.75-7.5 2.671-3.782.938-7.5.938-9.766 0-14.922-6.594-5.14-6.594-5.875-19.922 2.875 4.25 7.219 6.516 4.359 2.266 9.578 2.266 10.984 0 17.36-6.672 6.374-6.657 6.374-18.125 0-11.235-6.64-18.032-6.641-6.78-17.672-6.78-12.657 0-19.344 9.687-6.688 9.703-6.688 28.109 0 17.281 8.204 27.563 8.203 10.28 22.015 10.28 3.719 0 7.5-.734t7.89-2.187z" id="DejaVuSans-54"/></defs><use xlink:href="#DejaVuSans-54"/><use x="63.623" xlink:href="#DejaVuSans-48"/></g></g><g id="ytick_5"><g style="fill:#696969" transform="matrix(.16 0 0 -.16 87.14 323.868)" id="text_14"><defs><path d="M31.781 34.625q-7.031 0-11.062-3.766-4.016-3.765-4.016-10.343 0-6.594 4.016-10.36Q24.75 6.391 31.78 6.391q7.032 0 11.078 3.78 4.063 3.798 4.063 10.345 0 6.578-4.031 10.343-4.016 3.766-11.11 3.766zm-9.86 4.188q-6.343 1.562-9.89 5.906Q8.5 49.079 8.5 55.329q0 8.733 6.219 13.812 6.234 5.078 17.062 5.078 10.89 0 17.094-5.078 6.203-5.079 6.203-13.813 0-6.25-3.547-10.61-3.531-4.343-9.828-5.906 7.125-1.656 11.094-6.5 3.984-4.828 3.984-11.796 0-10.61-6.468-16.282-6.47-5.656-18.532-5.656-12.047 0-18.531 5.656-6.469 5.672-6.469 16.282 0 6.968 4 11.797 4.016 4.843 11.14 6.5zM18.314 54.39q0-5.657 3.53-8.828 3.548-3.172 9.938-3.172 6.36 0 9.938 3.172 3.593 3.171 3.593 8.828 0 5.672-3.593 8.843-3.578 3.172-9.938 3.172-6.39 0-9.937-3.172-3.532-3.172-3.532-8.843z" id="DejaVuSans-56"/></defs><use xlink:href="#DejaVuSans-56"/><use x="63.623" xlink:href="#DejaVuSans-48"/></g></g><g id="ytick_6"><g style="fill:#696969" transform="matrix(.16 0 0 -.16 76.96 264.805)" id="text_15"><defs><path d="M12.406 8.297h16.11v55.625l-17.532-3.516v8.985l17.438 3.515h9.86V8.296H54.39V0H12.406z" id="DejaVuSans-49"/></defs><use xlink:href="#DejaVuSans-49"/><use x="63.623" xlink:href="#DejaVuSans-48"/><use x="127.246" xlink:href="#DejaVuSans-48"/></g></g><g id="ytick_7"><g style="fill:#696969" transform="matrix(.16 0 0 -.16 76.96 205.742)" id="text_16"><use xlink:href="#DejaVuSans-49"/><use x="63.623" xlink:href="#DejaVuSans-50"/><use x="127.246" xlink:href="#DejaVuSans-48"/></g></g><g id="ytick_8"><g style="fill:#696969" transform="matrix(.16 0 0 -.16 76.96 146.68)" id="text_17"><use xlink:href="#DejaVuSans-49"/><use x="63.623" xlink:href="#DejaVuSans-52"/><use x="127.246" xlink:href="#DejaVuSans-48"/></g></g><g id="ytick_9"><g style="fill:#696969" transform="matrix(.16 0 0 -.16 76.96 87.617)" id="text_18"><use xlink:href="#DejaVuSans-49"/><use x="63.623" xlink:href="#DejaVuSans-54"/><use x="127.246" xlink:href="#DejaVuSans-48"/></g></g><g style="fill:#696969" transform="matrix(0 -.2 -.2 0 68.8 379.813)" id="text_19"><defs><path d="M51.125 44H36.922l-4.11-16.313h14.313zm-7.328 27.781-5.078-20.265h14.265L58.11 71.78h7.813L60.89 51.516h15.234V44h-17.14l-4-16.313h15.53V20.22H53.079L48 0h-7.813l5.032 20.219H30.906L25.875 0h-7.86l5.079 20.219H7.719v7.468h17.187L29 44H13.281v7.516h17.625l4.985 20.265z" id="DejaVuSans-35"/><path d="M30.61 48.39q-7.22 0-11.422-5.64-4.204-5.64-4.204-15.453 0-9.813 4.172-15.453 4.188-5.64 11.453-5.64 7.188 0 11.375 5.655 4.203 5.672 4.203 15.438 0 9.719-4.203 15.406-4.187 5.688-11.375 5.688zm0 7.61q11.718 0 18.406-7.625 6.703-7.61 6.703-21.078 0-13.422-6.703-21.078-6.688-7.64-18.407-7.64-11.765 0-18.437 7.64-6.656 7.656-6.656 21.078 0 13.469 6.656 21.078Q18.844 56 30.609 56z" id="DejaVuSans-111"/><path d="M37.11 75.984V68.5h-8.594q-4.828 0-6.72-1.953-1.874-1.953-1.874-7.031v-4.828h14.797v-6.985H19.922V0H10.89v47.703H2.297v6.984h8.594V58.5q0 9.125 4.25 13.297 4.25 4.187 13.468 4.187z" id="DejaVuSans-102"/><path d="M44.281 53.078v-8.5q-3.797 1.953-7.906 2.922-4.094.984-8.5.984-6.688 0-10.031-2.047-3.344-2.046-3.344-6.156 0-3.125 2.39-4.906 2.391-1.781 9.626-3.39l3.078-.688q9.562-2.047 13.593-5.781 4.032-3.735 4.032-10.422 0-7.625-6.032-12.078-6.03-4.438-16.578-4.438-4.39 0-9.156.86Q10.688.296 5.422 2v9.281q4.984-2.594 9.812-3.89 4.829-1.282 9.579-1.282 6.343 0 9.75 2.172 3.421 2.172 3.421 6.125 0 3.656-2.468 5.61-2.453 1.953-10.813 3.765l-3.125.735q-8.344 1.75-12.062 5.39-3.704 3.64-3.704 9.985 0 7.718 5.47 11.906Q16.75 56 26.811 56q4.97 0 9.36-.734 4.406-.72 8.11-2.188z" id="DejaVuSans-115"/><path d="M56.203 29.594v-4.39H14.891q.593-9.282 5.593-14.142 5-4.859 13.938-4.859 5.172 0 10.031 1.266 4.86 1.265 9.656 3.812v-8.5Q49.266.734 44.187-.344 39.11-1.422 33.892-1.422q-13.094 0-20.735 7.61-7.64 7.625-7.64 20.625 0 13.421 7.25 21.296Q20.016 56 32.328 56q11.031 0 17.453-7.11 6.422-7.093 6.422-19.296zm-8.984 2.64q-.094 7.36-4.125 11.75-4.032 4.407-10.672 4.407-7.516 0-12.031-4.25-4.516-4.25-5.203-11.97z" id="DejaVuSans-101"/></defs><use xlink:href="#DejaVuSans-35"/><use x="83.789" xlink:href="#DejaVuSans-32"/><use x="115.576" xlink:href="#DejaVuSans-111"/><use x="176.758" xlink:href="#DejaVuSans-102"/><use x="211.963" xlink:href="#DejaVuSans-32"/><use x="243.75" xlink:href="#DejaVuSans-99"/><use x="298.73" xlink:href="#DejaVuSans-97"/><use x="360.01" xlink:href="#DejaVuSans-115"/><use x="412.109" xlink:href="#DejaVuSans-101"/><use x="473.633" xlink:href="#DejaVuSans-115"/></g></g><g style="fill:#696969" transform="matrix(.24 0 0 -.24 209.887 71.76)" id="text_20"><defs><path d="M9.813 72.906h13.28l32.329-60.984v60.984h9.562V0h-13.28L19.39 60.984V0H9.813z" id="DejaVuSans-78"/><path d="M4.203 54.688h8.985l11.234-42.672 11.172 42.672h10.593l11.235-42.672 11.187 42.672h8.985L63.28 0H52.688L40.922 44.828 29.109 0H18.5z" id="DejaVuSans-119"/><path d="M64.406 67.281v-10.39q-4.984 4.64-10.625 6.922-5.64 2.296-11.984 2.296-12.5 0-19.14-7.64-6.641-7.64-6.641-22.094 0-14.406 6.64-22.047 6.64-7.64 19.14-7.64 6.345 0 11.985 2.296 5.64 2.297 10.625 6.938V5.609Q59.234 2.094 53.437.33q-5.78-1.75-12.218-1.75-16.563 0-26.094 10.124-9.516 10.14-9.516 27.672 0 17.578 9.516 27.703 9.531 10.14 26.094 10.14 6.531 0 12.312-1.734 5.797-1.734 10.875-5.203z" id="DejaVuSans-67"/><path d="M25.39 72.906h8.297L8.297-9.28H0z" id="DejaVuSans-47"/><path d="M9.813 72.906h9.859V42.094L52.39 72.906h12.703L28.906 38.922 67.672 0H54.688L19.672 35.11V0h-9.86z" id="DejaVuSans-75"/><path d="M9.422 54.688h8.984V0H9.422zm0 21.296h8.984v-11.39H9.422z" id="DejaVuSans-105"/><path d="M45.406 46.39v29.594h8.985V0h-8.985v8.203Q42.578 3.328 38.25.953q-4.313-2.375-10.375-2.375-9.906 0-16.14 7.906-6.22 7.922-6.22 20.813 0 12.89 6.22 20.797Q17.968 56 27.874 56q6.063 0 10.375-2.375 4.328-2.36 7.156-7.234zm-30.61-19.093q0-9.906 4.079-15.547 4.078-5.64 11.203-5.64 7.125 0 11.219 5.64 4.11 5.64 4.11 15.547 0 9.906-4.11 15.547-4.094 5.64-11.219 5.64-7.125 0-11.203-5.64-4.078-5.64-4.078-15.547z" id="DejaVuSans-100"/><path d="M4.89 31.39h26.313v-8H4.891z" id="DejaVuSans-45"/><path d="M8.203 72.906h46.875v-4.203L28.61 0H18.312L43.22 64.594H8.203z" id="DejaVuSans-55"/><path d="M32.172-5.078q-3.797-9.766-7.422-12.735-3.61-2.984-9.656-2.984H7.906v7.516h5.282q3.703 0 5.75 1.765Q21-9.766 23.483-3.219l1.61 4.094-22.11 53.813H12.5l17.094-42.766 17.093 42.766h9.516z" id="DejaVuSans-121"/><path d="M2.984 54.688H12.5L29.594 8.797l17.093 45.89h9.516L35.687 0H23.485z" id="DejaVuSans-118"/><path d="M45.406 27.984q0 9.766-4.031 15.125-4.016 5.375-11.297 5.375-7.219 0-11.25-5.375-4.031-5.359-4.031-15.125 0-9.718 4.031-15.093t11.25-5.375q7.281 0 11.297 5.375 4.031 5.375 4.031 15.093zm8.985-21.203q0-13.953-6.203-20.765Q42-20.797 29.203-20.797q-4.734 0-8.937.703-4.203.703-8.157 2.172v8.735q3.954-2.141 7.813-3.157 3.86-1.031 7.86-1.031 8.843 0 13.234 4.61 4.39 4.609 4.39 13.937v4.453q-2.781-4.844-7.125-7.234Q33.938 0 27.875 0 17.828 0 11.672 7.656q-6.156 7.672-6.156 20.328 0 12.688 6.156 20.344Q17.828 56 27.875 56q6.063 0 10.406-2.39 4.344-2.391 7.125-7.22v8.297h8.985z" id="DejaVuSans-103"/></defs><use xlink:href="#DejaVuSans-78"/><use x="74.805" xlink:href="#DejaVuSans-101"/><use x="136.328" xlink:href="#DejaVuSans-119"/><use x="218.115" xlink:href="#DejaVuSans-32"/><use x="249.902" xlink:href="#DejaVuSans-67"/><use x="319.727" xlink:href="#DejaVuSans-97"/><use x="381.006" xlink:href="#DejaVuSans-115"/><use x="433.105" xlink:href="#DejaVuSans-101"/><use x="494.629" xlink:href="#DejaVuSans-115"/><use x="546.729" xlink:href="#DejaVuSans-32"/><use x="578.516" xlink:href="#DejaVuSans-47"/><use x="612.207" xlink:href="#DejaVuSans-32"/><use x="643.994" xlink:href="#DejaVuSans-49"/><use x="707.617" xlink:href="#DejaVuSans-48"/><use x="771.24" xlink:href="#DejaVuSans-48"/><use x="834.863" xlink:href="#DejaVuSans-75"/><use x="900.439" xlink:href="#DejaVuSans-32"/><use x="932.227" xlink:href="#DejaVuSans-114"/><use x="971.09" xlink:href="#DejaVuSans-101"/><use x="1032.613" xlink:href="#DejaVuSans-115"/><use x="1084.713" xlink:href="#DejaVuSans-105"/><use x="1112.496" xlink:href="#DejaVuSans-100"/><use x="1175.973" xlink:href="#DejaVuSans-101"/><use x="1237.496" xlink:href="#DejaVuSans-110"/><use x="1300.875" xlink:href="#DejaVuSans-116"/><use x="1340.084" xlink:href="#DejaVuSans-115"/><use x="1392.184" xlink:href="#DejaVuSans-32"/><use x="1423.971" xlink:href="#DejaVuSans-45"/><use x="1460.055" xlink:href="#DejaVuSans-45"/><use x="1496.139" xlink:href="#DejaVuSans-32"/><use x="1527.926" xlink:href="#DejaVuSans-55"/><use x="1591.549" xlink:href="#DejaVuSans-32"/><use x="1623.336" xlink:href="#DejaVuSans-100"/><use x="1686.813" xlink:href="#DejaVuSans-97"/><use x="1748.092" xlink:href="#DejaVuSans-121"/><use x="1807.271" xlink:href="#DejaVuSans-32"/><use x="1839.059" xlink:href="#DejaVuSans-97"/><use x="1900.338" xlink:href="#DejaVuSans-118"/><use x="1959.518" xlink:href="#DejaVuSans-101"/><use x="2021.041" xlink:href="#DejaVuSans-114"/><use x="2062.154" xlink:href="#DejaVuSans-97"/><use x="2123.434" xlink:href="#DejaVuSans-103"/><use x="2186.91" xlink:href="#DejaVuSans-101"/></g><g id="legend_1"><path d="M128.2 184.5h136.45q3.2 0 3.2-3.2V88.96q0-3.2-3.2-3.2H128.2q-3.2 0-3.2 3.2v92.34q0 3.2 3.2 3.2z" style="fill:none;opacity:.8;stroke:#ccc;stroke-linejoin:miter" id="patch_5"/><path d="M131.4 98.718h32" style="fill:none;stroke:#000;stroke-linecap:round;stroke-width:1.5" id="line2d_5"/><g style="fill:#696969" transform="matrix(.16 0 0 -.16 176.2 104.317)" id="text_21"><defs><path d="M8.688 72.906h9.921V28.61q0-11.718 4.235-16.875 4.25-5.14 13.781-5.14 9.469 0 13.719 5.14 4.25 5.157 4.25 16.875v44.297H64.5V27.391q0-14.25-7.063-21.532-7.046-7.28-20.812-7.28-13.828 0-20.89 7.28-7.047 7.282-7.047 21.532z" id="DejaVuSans-85"/><path d="M53.516 70.516V60.89q-5.61 2.687-10.594 4-4.984 1.328-9.625 1.328-8.047 0-12.422-3.125t-4.375-8.89q0-4.845 2.906-7.313 2.907-2.453 11.016-3.97l5.953-1.218q11.031-2.11 16.281-7.406 5.25-5.297 5.25-14.172 0-10.61-7.11-16.078-7.093-5.469-20.812-5.469-5.172 0-11.015 1.172Q13.14.922 6.89 3.219v10.156q6-3.36 11.765-5.078 5.766-1.703 11.328-1.703 8.438 0 13.032 3.312 4.593 3.328 4.593 9.485 0 5.359-3.297 8.39-3.296 3.032-10.812 4.547L27.484 33.5q-11.03 2.188-15.968 6.875-4.922 4.688-4.922 13.047 0 9.672 6.812 15.234 6.813 5.563 18.766 5.563 5.14 0 10.453-.938 5.328-.922 10.89-2.765z" id="DejaVuSans-83"/></defs><use xlink:href="#DejaVuSans-85"/><use x="73.193" xlink:href="#DejaVuSans-83"/></g><path d="M131.4 122.203h32" style="fill:none;stroke:#009e73;stroke-linecap:round;stroke-width:1.5" id="line2d_7"/><g style="fill:#696969" transform="matrix(.16 0 0 -.16 176.2 127.802)" id="text_22"><use xlink:href="#DejaVuSans-78"/><use x="74.805" xlink:href="#DejaVuSans-74"/></g><path d="M131.4 145.688h32" style="fill:none;stroke:#d55e00;stroke-linecap:round;stroke-width:1.5" id="line2d_9"/><g style="fill:#696969" transform="matrix(.16 0 0 -.16 176.2 151.287)" id="text_23"><defs><path d="M19.672 34.813V8.108H35.5q7.953 0 11.781 3.297 3.844 3.297 3.844 10.078 0 6.844-3.844 10.078-3.828 3.25-11.781 3.25zm0 29.984V42.828h14.61q7.218 0 10.75 2.703 3.546 2.719 3.546 8.282 0 5.515-3.547 8.25-3.531 2.734-10.75 2.734zm-9.86 8.11h25.204q11.28 0 17.375-4.688Q58.5 63.53 58.5 54.89q0-6.703-3.125-10.657-3.125-3.953-9.188-4.922 7.282-1.562 11.313-6.53 4.031-4.954 4.031-12.376 0-9.765-6.64-15.093Q48.25 0 35.984 0H9.812z" id="DejaVuSans-66"/></defs><use xlink:href="#DejaVuSans-66"/><use x="68.604" xlink:href="#DejaVuSans-101"/><use x="130.127" xlink:href="#DejaVuSans-114"/><use x="169.49" xlink:href="#DejaVuSans-103"/><use x="232.967" xlink:href="#DejaVuSans-101"/><use x="294.49" xlink:href="#DejaVuSans-110"/></g><path d="M131.4 169.173h32" style="fill:none;stroke:#0072b2;stroke-linecap:round;stroke-width:1.5" id="line2d_11"/><g style="fill:#696969" transform="matrix(.16 0 0 -.16 176.2 174.773)" id="text_24"><defs><path d="M44.39 34.188q3.172-1.079 6.172-4.594 3-3.516 6.032-9.672L66.609 0H56l-9.313 18.703q-3.624 7.328-7.015 9.719-3.39 2.39-9.25 2.39h-10.75V0h-9.86v72.906h22.266q12.5 0 18.656-5.234 6.157-5.219 6.157-15.766 0-6.89-3.203-11.437-3.204-4.532-9.297-6.282zM19.673 64.797V38.922h12.406q7.125 0 10.766 3.297 3.64 3.297 3.64 9.687 0 6.39-3.64 9.64-3.64 3.25-10.766 3.25z" id="DejaVuSans-82"/><path d="M54.89 33.016V0h-8.984v32.719q0 7.765-3.031 11.61-3.031 3.858-9.078 3.858-7.281 0-11.484-4.64-4.204-4.625-4.204-12.64V0H9.08v75.984h9.03V46.188q3.235 4.937 7.594 7.374Q30.078 56 35.797 56q9.422 0 14.25-5.828 4.844-5.828 4.844-17.156z" id="DejaVuSans-104"/></defs><use xlink:href="#DejaVuSans-82"/><use x="64.982" xlink:href="#DejaVuSans-117"/><use x="128.361" xlink:href="#DejaVuSans-116"/><use x="167.57" xlink:href="#DejaVuSans-104"/><use x="230.949" xlink:href="#DejaVuSans-101"/><use x="292.473" xlink:href="#DejaVuSans-114"/><use x="333.586" xlink:href="#DejaVuSans-102"/><use x="368.791" xlink:href="#DejaVuSans-111"/><use x="429.973" xlink:href="#DejaVuSans-114"/><use x="469.336" xlink:href="#DejaVuSans-100"/></g></g></g></g><defs><clipPath id="p6ecc376622"><path d="M117 77.76h725.4v498.96H117z"/></clipPath></defs></svg>