<svg height="864" viewBox="0 0 936 648" width="1248" xmlns="http://www.w3.org/2000/svg" xmlns:xlink="http://www.w3.org/1999/xlink"><defs><style>*{stroke-linecap:butt;stroke-linejoin:round}</style></defs><g id="figure_1"><path d="M0 648h936V0H0z" style="fill:#fff" id="patch_1"/><g id="axes_1"><path d="M117 576.72h725.4V77.76H117z" style="fill:none" id="patch_2"/><path clip-path="url(#p8777887698)" d="m149.973 340.626 67.838-.113 7.889-.276 1.577-.116 1.578-.228 1.577-.374 3.156-1.121 1.577-.81 3.156-1.898 4.733-3.75 1.577-1.465 3.156-2.065 1.577-1.355 4.733-3.046 1.578-.857 3.155.086 1.578.335 3.155 1.599 1.578 1.105 1.577 1.876 1.578.885 9.466 10.268 3.155 1.75 3.155 1.372 1.578.295 1.578-.427 1.577-.983 1.578.014 1.578-.1 1.577-.291 4.733.17 1.578.17 1.577-.128 1.578.3 1.578-.025 1.577.089 1.578.423 3.155 2.32 1.578.756 3.155.073 1.578.113 3.155-.341 1.578-.39 1.577.074 1.578-.57 1.578.04 1.577-.416 1.578-.068 3.155-.743 1.578-.716 1.578-.169 3.155.172 1.577.178 4.733-.67 1.578.147 1.578-.337 3.155.037 1.578-.69 1.577-.054 1.578.317 3.155.091 1.578-.752 1.577-.504 1.578.415 1.578-.176 3.155.102 1.578-.438 1.577-.164 1.578-.602 1.578-.123 1.577-.793 1.578-.97 1.578-1.47 1.577-1.272 1.578-.887 1.577-1.207 1.578-1.874 1.578-.78 1.577-1.32 3.156-1.505 3.155-2.063 1.578-.658 1.577-.106 3.156.473 1.577.469 1.578.194 1.577.92 1.578.378 3.155-.037 1.578-.546 1.578.19 1.577.428 1.578-.147 1.578.934 1.577.626 1.578.083 1.578.994 1.577.63 1.578.846 1.577 1.048 1.578.887 1.578.668 1.577 2.209 3.156 2.997 1.577 1.24 1.578 1.764 1.578.747 1.577 1.222 1.578.826 3.155 2.016 1.578 1.514 1.577.602 1.578 1.102 1.578.62 1.577-.602 1.578-.041 1.578-.207 1.577-.367 1.578.25 1.578-.288 1.577-.57 1.578.305 1.578-.214 1.577.058 1.578-.188 1.577-.356 1.578.264 1.578.432 1.577.784 1.578-.334 1.578.404 1.577-.184 1.578-.317 1.578.082 1.577-.427 1.578-.78 1.577-.599 1.578-1.569 1.578.168 1.577-.922 1.578-1.674 1.578-.352 1.577-.667 1.578 1.487 1.578 1.157 1.577.149 1.578.828 3.155.503 1.578-.235 1.577-1.637 1.578-.567 1.578-1.969 1.577-.676 1.578.441 1.578-.53 1.577-.674 1.578-3.076 1.578-1.39 1.577-.146 1.578-.86 1.578-1.072 1.577-.422 1.578.251 1.577 3.068 1.578.416 3.155 1.2 1.578.243 1.578-.249 1.577.55 1.578-.732 1.578-.104 1.577-.908 1.578-1.054 1.578.032 1.577-.312 1.578-.919 1.577-.334 3.156-1.21 1.577-.811 1.578-1.309 1.578.416 1.577-.559 1.578.799 1.578-.737 1.577.689 1.578.02 1.578-.99 1.577-2.298 1.578-.22 1.577-2.47 1.578-.236 1.578-1.132 1.577-.687 1.578-.32 1.578-.474 1.577-1.19 1.578-.206 1.578-1.238 3.155-4.47 1.578-1.898 3.155-3.484 1.577-2.851 1.578-3.51 1.578-1.797 1.577-2.803 1.578-3.57 1.578-2.875 3.155-3.562 3.155-.739 1.578.712 1.578 1.63 1.577 3.015 3.155 4.902 1.578 3.252 1.578 2.765 1.577 13.286 1.578 4.361 1.578 5.642 1.577 3.793 1.578 5.026 1.578 1.626 1.577.927 1.578-9.525 1.578-.85 1.577-4.355 1.578-3.15 1.577-2.436 1.578-2.026 1.578-1.061 1.577-9.638 1.578-4.415 1.578-2.36 1.577-1.737 1.578-.913 1.578 2.435 1.577-.499 1.578 10.642 1.578 5.74 1.577 7.122 1.578 4.189 4.733 11.375 1.577 5.478 1.578 20.875 1.578-2.217 1.577 4.184 1.578.981 1.578-1.71 1.577 2.52 1.578-2.542 1.578-7.917 1.577-9.215 1.578-5.668 1.577-6.532 1.578-3.69 1.578-4.63 1.577-9.854 1.578-31.785 1.578 6.514 1.577-3.579 1.578 1.715 1.578.497 1.577 2.92 1.578 8.288 1.578 11.098 1.577 13.082 1.578 9.277 1.577 15 1.578 8.226 1.578 7.253 1.577 10.23 1.578 21.205 1.578-.584 1.577 4.857 1.578-4.401 1.578 2.941 1.577.495 1.578-1.76 1.578-3.521 1.577-1.719 1.578-2.382 1.577-6.756 1.578-1.145 1.578-.703 1.577-.948 1.578-1.368 1.578-.506 1.577-1.452 1.578 6.297 1.578-1.254 1.577-.654 1.578-.494 1.578.411 1.577-1.439 1.578.783 1.577 2.258 1.578-.17 1.578-1.138 1.577-.588 3.156-2.981 1.577-1.835 1.578-5.354 3.155-6.062 1.578-2.732 1.577-3.166 1.578-1.388 1.578-2.01 1.577-3.627 3.156-3.705 1.577-2.45 3.156-1.866 1.577.203 1.578-3.95 1.578.979 1.577 1.27 1.578 1.115 1.577.181 1.578-.016 1.578-.206 1.577 4.04 1.578-1.321 3.155-1.715 1.578-.943 1.578-1.151 1.577-.71h0" style="fill:none;stroke:#000;stroke-linecap:round;stroke-width:1.5" id="line2d_1"/><path clip-path="url(#p8777887698)" d="m149.973 340.624 69.416-.104 4.733-.251 3.155-.623 1.578-.58 1.577-1.165 1.578-.533 1.578-1.605 1.577-2.14 1.578-3.275 1.578-2.843 1.577-2.17 1.578-8.358 4.733-20.368 1.578-8.69 1.577-4.414 1.578-10.37 1.577-2.161 1.578-8.571 1.578-5.86 1.577-2.181 1.578 2 1.578-2.04 1.577 4.279 1.578 7.391 3.155 19.56 1.578 5.283 1.578 12.264 1.577 1.219 1.578 14.105 1.577.635 1.578 10.702 1.578 9.824 1.577 3.624 1.578-1.686 1.578 7.445 1.577-7 1.578 1.616 1.578.77 1.577-4.023 1.578 2.646 1.578 1.95 1.577 7.066 1.578.986 1.577 9.41 1.578-2.87 1.578.735 1.577 2.592 1.578 5.4 1.578-1.22 1.577 9.218 1.578 1.856 1.578-.866 3.155 9.607 1.578-4.807 1.577 2.37 1.578-2.281 1.577-4.39 1.578 3.67 1.578-1.365 1.577-1.106 1.578-3.547 1.578-2.011 1.577-6.498 1.578-2.212 1.578-2.96 1.577-.374 1.578-5.357 1.578 2.533 1.577-4.734 1.578.162 1.577-2.765 1.578-1.547 1.578-3.195 1.577.043 1.578 2.927 1.578.855 1.577 3.52 1.578 2.53 1.578 1.04 1.577-2.29 1.578 1.435 1.578-2.425 1.577.1 1.578-2.123 1.577.41 1.578.928 1.578 1.915 1.577-.843 1.578-1.37 3.155-.53 1.578-2.548 1.578-1.021 1.577-.402 1.578-2.313 1.578-.74 1.577-1.252 1.578.564 1.577-6.753 1.578-1.767 1.578-.26 1.577.016 1.578.279 1.578-.202 1.577-1.454 1.578 6.428 1.578.167 1.577-.406 1.578-.109 1.578-.263 1.577.48 1.578-.426 1.577 7.554 1.578.105 1.578-.345 1.577.12 1.578-.766 3.155-.328 1.578-6.653 1.578 1.184 1.577.27 1.578 1.664 1.578.63 1.577-.108 1.578.178 1.577-.844 1.578-1.686 1.578-.812 1.577-2.19 1.578-.982 1.578-.247 3.155.298 1.578-2.089 1.577.294 1.578-.72 1.578.546 3.155.244 1.577-.585 1.578 2.855 1.578.97 1.577 1.985 1.578 1.064 1.578.394 1.577-.089 1.578-1.238 1.578.085 1.577-.208 1.578.568 1.578-.924 1.577-.054 1.578.15 1.577 2.808 1.578-.193 1.578-.975 1.577-.433 1.578.314 1.578.452 1.577.762 1.578.29 1.578.55 1.577.347 1.578-1.833 1.577-.27 1.578-.546 1.578-.781 1.577-2.425 1.578-1.435 1.578 1.063 1.577.445 1.578-.27 1.578.092 1.577-.402 1.578.623 1.578.166 1.577-1.176 1.578.607 1.577.472 1.578-.506 1.578.042 1.577-.286 1.578.302 1.578-.14 1.577-.526 1.578-.29 1.578-.166 1.577.012 1.578.197 1.578-.14 1.577-.638 1.578-1.001 1.577-.639 1.578.5 1.578-.925 1.577.367 3.156-1.407 1.577.881 1.578.41 1.578-.707 1.577.839 1.578-2.665 1.578-.248 1.577 1.44 1.578.463 1.577.809 1.578-1.273 1.578-.503 1.577 1.459 1.578.955 1.578.491 1.577-2.305 1.578-2.982 1.578.669 1.577-1.122 1.578 1.907 1.578-.425 1.577-4.092 1.578 1.048 1.577-.255 1.578-1.16 1.578-.813 1.577-2.765 1.578-3.814 1.578 2.382 1.577-.348 1.578 2.209 1.578-.685 1.577-2.638 1.578-.854 1.578.193 1.577-3.342 1.578-1.609 1.577-2.576 1.578-5.005 1.578.07 1.577-4.417 1.578-1.18 1.578-6.563 1.577-7.391 1.578-.035 1.578-.279 1.577-.835 1.578-1.075 1.578-.17 1.577 5.89 1.578 3.249 1.577-2.6 1.578 6.591 1.578 2.387 1.577 4.792 1.578 2.967 1.578 7.805 1.577 10.265 1.578 2.135 1.578-.317 1.577 2.881 1.578 1.431 1.578-5.179 1.577-4.664 1.578-10.68 1.577 3.826 1.578-2.402 1.578-.6 1.577-.139 1.578 9.6 1.578-6.896 1.577 6.757 1.578-6.289 1.578 7.12 1.577-3.844 1.578 4.583 1.578 5.114 1.577 13.811 1.578 4.526 1.577 7.735 1.578.901 1.578 4.07 1.577-.473 1.578-12.288 1.578 4.286 1.577 3.786 1.578 6.429 1.578-2.182 1.577 5.14 1.578-4.861 1.578-.754 1.577-13.774 1.578-1.272 1.577-193.292 4.733-22.936 1.578-1.376 1.578-8.092 1.577-18.685 1.578 175.318 1.578 2.831 1.577-8.188 1.578 3.013 1.578 4.243 1.577 11.31 1.578 7.194 1.577 192.738 1.578 9.925 1.578 13.82 1.577 17.122 1.578 14.253 1.578 2.904 1.577 7.117 1.578-178.091 1.578-7.067 1.577 10.27 1.578-.33 1.578-9.445 3.155 3.62 1.577-3.31 1.578 6.447 1.578.232 1.577-2.27 1.578-1.574 1.578 7.399 1.577.356 1.578 4.811 1.578-1.075 1.577-10.397 1.578-2.587 1.578 8.826 1.577-4.336 1.578 4.564 1.577 1.888 1.578-6.506 1.578-8.656 3.155-8.312 1.578.445 1.577.7 1.578-8.56 1.578 3.49 1.577 11.796 1.578.263 1.577-5.101 1.578-7.775 1.578-9.758 1.577-6.01 1.578-.29 1.578-3.226 1.577.008 1.578-1.992 1.578-1.803 1.577-1.032 1.578 8.099 1.578-5.075 1.577-4.158 1.578-1.245 1.577 1.18 1.578 4.3 1.578-1.667 1.577-.297 1.578 2.088 1.578.14 1.577-4.023 1.578-1.342 1.578-5.628 1.577.782h0" style="fill:none;stroke:#009e73;stroke-linecap:round;stroke-width:1.5" id="line2d_2"/><path clip-path="url(#p8777887698)" d="m149.973 340.624 61.528-.11 7.888-.295 1.578-.11 1.577-.516h1.578l1.578-1.032 1.577-.774 1.578-1.622 1.577-5.933 1.578-1.474 1.578-.221 1.577-3.427 1.578-4.496 3.155-4.902 1.578-8.18 1.578-9.25 1.577-11.02 1.578-8.696 1.578-4.902 1.577-11.571 1.578-15.552 1.577-2.063 1.578-15.736 1.578-20.453 1.577-.074 1.578-8.807 1.578-6.45 1.577 11.535 1.578 13.23 1.578 16.067 1.577 28.487 1.578 8.881 1.578 19.458 1.577 24.765 1.578 14.225 1.577 4.643 1.578 22.074 1.578 25.612 1.577 1.548 1.578 10.982 1.578 8.587 1.577-5.602 1.578 2.285 1.578-1.548 1.577-19.716 1.578 8.992 3.155-10.06 1.578 7.96 1.577 10.724 1.578-1.364 1.578 3.575 1.577 2.58 1.578 3.906 1.578-.737 1.577 1.584 1.578-4.532 1.578-.738 1.577 4.57 1.578-6.007 1.578-8.66 1.577-3.059 1.578-4.938 1.577-1.474 1.578-4.017 1.578-6.891 1.577-.221 1.578-1.511 1.578 1.142 1.577-2.653 1.578-7.739 1.578-2.764 1.577-.479 1.578-3.943 1.578.11 1.577-4.2 1.578-2.396 1.577-8.44 1.578.738 1.578-.627 3.155 4.828 1.578 1.142 1.577-1.695 1.578 8.771 1.578-1.29 1.577-2.837 1.578 2.284 1.578.11 1.577-.183 1.578.479 1.577 1.842 1.578.958 1.578-2.21 3.155-5.123 1.578-1.806 1.577 1.843 1.578-2.654 1.578-.147 1.577 2.727 1.578-1.548 1.578-.037 1.577.922 1.578 1.842 1.577-10.76 1.578-4.054 1.578 1.88 1.577-2.654 1.578.368 1.578.074 1.577-2.248 1.578 10.135 1.578 1.216 1.577-1.917 1.578.627 1.578-.442 1.577.22 1.578-1.215 1.577 10.65 1.578 2.985 1.578-.295 1.577 3.833 1.578.147 1.578.774 1.577 1.253 1.578-10.282 1.578.037 1.577.958 1.578.258 1.578-.921 1.577-1.069 1.578.295 1.577.442 1.578-.553 1.578-.995 1.577-2.653 1.578-.368 1.578-1.77 1.577-1.473 1.578-.516 1.578-2.617 1.577.037 1.578-.59 1.578 2.1 1.577.222 1.578 1.548 1.577.074 1.578 1.768 1.578-.663 1.577.627h1.578l1.578 2.248 1.577-.222 1.578-.884 1.578-2.285 1.577-.479 1.578-1.437 1.578-2.727 1.577.331 1.578.59 1.577 3.538 3.156 4.606 1.577 2.985 1.578 2.064 3.155-2.506 1.578-1.953 1.578 3.464 1.577-.258 1.578.184 1.577 1.253 1.578-1.29 1.578-.7 3.155-7.628 1.578.553 1.577-2.248 1.578-1.511 1.578 1.99 1.577 1.327 1.578 2.763 1.578-.147 1.577.184 1.578 1.069 1.577.59 1.578 1.695 1.578-.553 1.577-.737 1.578.258 1.578-2.174 1.577.147 1.578-.553 1.578-3.206 1.577.332 1.578.663 1.578.295 1.577.037 1.578-.81 3.155-.259 3.155-.516 1.578-.958 1.578-.405 3.155-.516 1.578 1.142 1.577-.774 1.578-1.584 1.578-.848 1.577-.405 3.155-.295 1.578-2.543 1.578-.295 1.577.737 1.578.922 1.578 1.216 1.577-1.253 1.578-1.917 1.578.774 1.577-1.437 1.578.442 1.578.185 1.577-2.285 1.578.147 1.577-.22 1.578.073 1.578 1.658 1.577-.368 1.578-4.386 1.578.442 1.577-.294 1.578 1.068 1.578-1.105 1.577-2.432 1.578 1.253 1.578.331 1.577-4.496 1.578-1.105 1.577 1.068 1.578-2.91 1.578-4.755 1.577-10.024 1.578-.663 1.578-2.616 1.577-5.565 1.578-.737 1.578-2.285 1.577.48 1.578-2.433 1.578.553 1.577 5.343 1.578 1.77 1.577-8.219 3.156 13.71 1.577 12.123 1.578-2.506 1.578 10.54 1.577 3.538 1.578 5.749 1.578-1.106 1.577 1.511 1.578-1.842 1.578-2.875 1.577-9.065 1.578-1.511 1.577 5.97 1.578.958 1.578 1.216 1.577 1.843 1.578 19.752 1.578-9.213 1.577 9.987 1.578-6.191 1.578 5.823 1.577-3.022 1.578 5.196 1.578-1.511 1.577 17.652 1.578 1.585 1.577 7.038 1.578-2.985 3.155-12.05 1.578-13.783 1.578 2.617 1.577-1.18 1.578 2.138 1.578-.48 1.577 7.26 1.578-4.9 1.578 2.763 1.577-11.535 1.578-2.763 1.577-166.313 1.578-11.83 1.578-6.044 1.577-1.179 1.578-5.97 1.578-7.665 1.577-13.746 1.578 156.916 1.578 9.508 1.577-6.634 1.578-.405 1.578 4.754 1.577 6.707 1.578 4.606 1.577 164.213 1.578 6.891 3.155 27.123 1.578 15.92 1.578 1.437 1.577 8.44 1.578-159.164 1.578-9.471 1.577 7.886 1.578 3.096 1.578-7.629 1.577 3.354 1.578.516 1.577-3.612 1.578 10.65 1.578 3.538 1.577-4.975 1.578-9.655 1.578 5.786 1.577-.369 1.578 6.007 1.578-1.474 1.577-11.534 1.578.59 1.578 8.733 1.577-2.727 1.578 4.017 1.577 4.459 1.578-12.825 1.578-7.112 1.577-2.727 1.578 4.017 1.578.958 1.577 1.437 1.578-11.608 1.578 3.98 1.577 8.292 1.578-4.68 1.577-12.604 1.578-5.38 1.578-7.113 1.577-9.213 1.578 7.518 1.578-7.334 1.577 2.506 1.578-.479 1.578 5.454 1.577-4.127 1.578 16.73 1.578-7.701 1.577 3.722 1.578-.258 1.577 8.439 1.578-3.575 1.578-1.179 1.577 2.727 1.578.995 1.578 1.364 1.577-2.47 1.578-5.527 1.578-12.677 1.577 3.906h0" style="fill:none;stroke:#d55e00;stroke-linecap:round;stroke-width:1.5" id="line2d_3"/><path clip-path="url(#p8777887698)" d="M149.973 340.624h78.882l1.577-3.753h3.156l1.577-1.877h1.578l3.155-11.262 1.578-7.508 1.578-1.877 1.577-5.63 1.578-1.877 3.155-18.77 1.578-7.507 1.577 11.261 1.578-9.385 1.578-24.4 1.577-15.015 1.578 3.754 1.578 11.261 1.577 13.139 1.578-7.508h1.578l1.577 31.908 1.578 22.523 1.578 3.754 1.577 11.262 1.578 5.63 1.577 1.877 1.578 13.139 1.578 22.523 1.577 16.893 1.578-1.877 1.578-3.754 1.577-9.385 1.578 15.016 1.578-1.877 1.577-24.4 1.578-20.647 1.578 5.631 1.577 3.754 1.578 7.508 1.577-5.631 1.578 3.754h3.155l1.578 7.507 1.578-1.877 3.155 11.262 1.578 7.508 1.577 3.754h1.578l1.578-7.508 1.577-13.139 1.578-7.507 1.577-5.631 1.578-7.508 1.578 1.877h1.577l1.578-1.877 1.578 5.63 1.577-1.876 1.578-3.754 1.578-1.877 1.577-5.63h1.578l3.155 15.015 3.155 3.754 1.578-3.754h3.155l1.578-13.139 1.578-5.63 3.155-3.754 1.578 1.877h3.155l1.578 5.63h1.577l1.578-1.877h1.577l1.578 1.877h3.155l1.578 5.631h1.578l1.577 1.877h1.578l1.578-1.877h3.155l1.578-9.384 1.577 1.876h1.578l1.577-1.876h4.733l1.578-3.754h1.578l1.577-1.877 1.578 1.877h6.31l1.578-3.754 1.578 3.754h1.577l1.578-1.877h3.155l1.578 11.261h4.733l1.578 1.877h3.155l1.578 7.508 1.577-1.877 1.578-3.754h1.577l1.578 3.754h3.155l1.578-9.385 1.578 5.631 1.577 1.877 1.578-1.877 1.578-3.754h3.155l1.578-3.754 1.577 3.754h1.578l1.577 3.754h4.733l1.578 3.754 1.578-5.63 1.577-1.878h1.578l1.578-1.877h3.155l1.578-1.877h1.577l1.578 3.754 1.577-3.754h6.311l1.578-3.753 1.577-1.877h1.578l1.578 3.754h4.732l1.578 3.753 1.578-7.507 1.577 3.754h6.311l1.578-1.877 1.577 9.384h1.578l1.578-1.877h4.732l3.156 3.754 1.577-3.754h4.733l1.578-5.63 1.578 5.63 1.577-5.63 1.578 1.876h4.733l1.577 7.508 1.578-5.63 1.578 5.63 1.577 1.877h6.311l1.578-1.877 1.577-11.261 1.578-18.77 1.578-3.754h3.155l1.577-5.63 1.578-9.385 1.578 5.63 1.577 7.508 4.733-16.892 1.578 3.754 1.578 13.138 1.577 3.754 1.578 26.277 1.578 13.139 3.155 11.262 1.577-7.508 1.578 1.877 1.578-9.385 1.577-16.892 1.578-3.754 3.155 11.261 1.578-11.261 1.578-5.631 1.577 1.877 1.578-5.63 1.578-9.386 4.732-16.892 1.578 1.877 1.578 15.015 1.577-16.892 1.578 5.63h3.155l1.578 16.893 1.578-20.646 1.577-18.77 1.578 13.14 1.578-13.14 1.577-9.384h1.578l1.577 16.892 1.578 13.139 1.578-1.877 1.577 41.293 1.578 30.03 1.578-28.154h1.577l1.578-5.63 1.578 16.892 1.577 13.139 1.578-46.924 1.578-31.908 1.577 26.277h1.578l1.577 1.877 1.578-16.892h1.578l1.577-18.77 1.578 1.878 1.578 48.8h1.577l1.578-5.63 1.578 3.753 1.577 5.63 1.578 63.816 1.578 30.031 1.577-16.892h1.578l1.577-30.03 1.578 13.138 1.578-48.8 1.577-5.631 1.578 3.753 1.578-20.646h3.155l1.578-1.877 1.577 18.77 1.578-45.047 1.578 15.016h3.155l1.577 18.769 1.578-28.154 1.578 46.923 1.577 1.877 1.578-54.43 1.578-18.77h1.577l1.578 26.277 1.578 9.385 1.577-16.893 1.578 20.646 1.578 3.754 1.577 18.77h1.578l1.577 46.923 1.578 5.63h1.578l1.577 18.77 1.578 35.662 1.578 18.77h1.577l1.578-78.832 1.578 18.77 1.577 9.384 1.578-13.139 3.155-56.308h1.578l1.577 16.893 1.578 26.277 1.578-46.923 1.577-15.016 1.578 3.754 1.578 9.385h1.577l1.578 28.154 1.578-45.047 1.577 31.908 1.578 7.508 1.578 28.154 1.577-3.754h1.578l1.577-28.154 1.578-20.646 1.578 37.538 1.577 9.385 1.578-16.892 1.578 3.753 1.577-13.138 1.578 22.523 1.578 28.154 1.577-37.539 1.578-22.523 1.577-11.261 3.156 26.277 1.577-52.554 1.578 5.63 1.578-3.753 1.577 13.138 1.578-9.385 1.578-13.138 1.577 13.138 1.578 11.262 1.578-3.754 1.577-5.63 1.578-1.878 1.577 24.4h1.578l1.578-13.138 1.577 5.63 1.578 1.878 1.578 3.754 1.577 1.877 1.578 9.384h3.155" style="fill:none;stroke:#0072b2;stroke-linecap:round;stroke-width:1.5" id="line2d_4"/><path clip-path="url(#p8777887698)" d="M117 340.624h725.4" style="fill:none;stroke:red;stroke-dasharray:1.5,2.475;stroke-dashoffset:0;stroke-width:1.5" id="line2d_5"/><path d="M117 576.72V77.76" style="fill:none;stroke:#d3d3d3;stroke-linecap:square;stroke-linejoin:miter;stroke-width:1.25" id="patch_3"/><path d="M117 576.72h725.4" style="fill:none;stroke:#d3d3d3;stroke-linecap:square;stroke-linejoin:miter;stroke-width:1.25" id="patch_4"/><g id="matplotlib.axis_1"><g id="xtick_1"><g style="fill:#696969" transform="matrix(.16 0 0 -.16 186.941 598.378)" id="text_1"><defs><path d="M9.813 72.906h14.703l18.593-49.61 18.703 49.61h14.704V0H66.89v64.016l-18.797-50h-9.907l-18.796 50V0H9.813z" id="DejaVuSans-77"/><path d="M34.281 27.484q-10.89 0-15.093-2.484-4.204-2.484-4.204-8.5 0-4.781 3.157-7.594 3.156-2.797 8.562-2.797 7.485 0 12 5.297 4.516 5.297 4.516 14.078v2zm17.922 3.72V0H43.22v8.297Q40.14 3.328 35.547.953q-4.594-2.375-11.234-2.375-8.391 0-13.36 4.719Q6 8.016 6 15.922q0 9.219 6.172 13.906 6.187 4.688 18.437 4.688h12.61v.89q0 6.203-4.078 9.594-4.078 3.39-11.453 3.39-4.688 0-9.141-1.124-4.438-1.125-8.531-3.375v8.312q4.921 1.906 9.562 2.844 4.64.953 9.031.953 11.875 0 17.735-6.156 5.86-6.14 5.86-18.64z" id="DejaVuSans-97"/><path d="M41.11 46.297q-1.516.875-3.297 1.281Q36.03 48 33.89 48q-7.625 0-11.703-4.953-4.079-4.953-4.079-14.234V0H9.08v54.688h9.03v-8.5q2.844 4.984 7.375 7.39Q30.031 56 36.531 56q.922 0 2.047-.125 1.125-.11 2.484-.36z" id="DejaVuSans-114"/></defs><use xlink:href="#DejaVuSans-77"/><use x="86.279" xlink:href="#DejaVuSans-97"/><use x="147.559" xlink:href="#DejaVuSans-114"/></g></g><g id="xtick_2"><g style="fill:#696969" transform="matrix(.16 0 0 -.16 281.731 598.378)" id="text_2"><defs><path d="M32.172-5.078q-3.797-9.766-7.422-12.735-3.61-2.984-9.656-2.984H7.906v7.516h5.282q3.703 0 5.75 1.765Q21-9.766 23.483-3.219l1.61 4.094-22.11 53.813H12.5l17.094-42.766 17.093 42.766h9.516z" id="DejaVuSans-121"/></defs><use xlink:href="#DejaVuSans-77"/><use x="86.279" xlink:href="#DejaVuSans-97"/><use x="147.559" xlink:href="#DejaVuSans-121"/></g></g><g id="xtick_3"><g style="fill:#696969" transform="matrix(.16 0 0 -.16 384.855 598.378)" id="text_3"><defs><path d="M9.813 72.906h9.859V5.078q0-13.187-5-19.14-5-5.954-16.094-5.954h-3.75v8.297h3.078q6.531 0 9.219 3.672Q9.813-4.39 9.813 5.078z" id="DejaVuSans-74"/><path d="M8.5 21.578v33.11h8.984V21.922q0-7.766 3.016-11.656 3.031-3.875 9.094-3.875 7.265 0 11.484 4.64 4.234 4.64 4.234 12.656v31h8.985V0h-8.984v8.406Q42.047 3.422 37.718 1q-4.313-2.422-10.032-2.422-9.421 0-14.312 5.86Q8.5 10.296 8.5 21.578zM31.11 56z" id="DejaVuSans-117"/><path d="M9.422 75.984h8.984V0H9.422z" id="DejaVuSans-108"/></defs><use xlink:href="#DejaVuSans-74"/><use x="29.492" xlink:href="#DejaVuSans-117"/><use x="92.871" xlink:href="#DejaVuSans-108"/></g></g><g id="xtick_4"><g style="fill:#696969" transform="matrix(.16 0 0 -.16 477.241 598.378)" id="text_4"><defs><path d="M53.516 70.516V60.89q-5.61 2.687-10.594 4-4.984 1.328-9.625 1.328-8.047 0-12.422-3.125t-4.375-8.89q0-4.845 2.906-7.313 2.907-2.453 11.016-3.97l5.953-1.218q11.031-2.11 16.281-7.406 5.25-5.297 5.25-14.172 0-10.61-7.11-16.078-7.093-5.469-20.812-5.469-5.172 0-11.015 1.172Q13.14.922 6.89 3.219v10.156q6-3.36 11.765-5.078 5.766-1.703 11.328-1.703 8.438 0 13.032 3.312 4.593 3.328 4.593 9.485 0 5.359-3.297 8.39-3.296 3.032-10.812 4.547L27.484 33.5q-11.03 2.188-15.968 6.875-4.922 4.688-4.922 13.047 0 9.672 6.812 15.234 6.813 5.563 18.766 5.563 5.14 0 10.453-.938 5.328-.922 10.89-2.765z" id="DejaVuSans-83"/><path d="M56.203 29.594v-4.39H14.891q.593-9.282 5.593-14.142 5-4.859 13.938-4.859 5.172 0 10.031 1.266 4.86 1.265 9.656 3.812v-8.5Q49.266.734 44.187-.344 39.11-1.422 33.892-1.422q-13.094 0-20.735 7.61-7.64 7.625-7.64 20.625 0 13.421 7.25 21.296Q20.016 56 32.328 56q11.031 0 17.453-7.11 6.422-7.093 6.422-19.296zm-8.984 2.64q-.094 7.36-4.125 11.75-4.032 4.407-10.672 4.407-7.516 0-12.031-4.25-4.516-4.25-5.203-11.97z" id="DejaVuSans-101"/><path d="M18.11 8.203v-29H9.077v75.484h9.031v-8.296q2.844 4.875 7.157 7.234Q29.594 56 35.594 56q9.968 0 16.187-7.906 6.235-7.907 6.235-20.797T51.78 6.484q-6.218-7.906-16.187-7.906-6 0-10.328 2.375-4.313 2.375-7.157 7.25zm30.578 19.094q0 9.906-4.079 15.547-4.078 5.64-11.203 5.64-7.14 0-11.218-5.64-4.079-5.64-4.079-15.547 0-9.906 4.078-15.547 4.079-5.64 11.22-5.64 7.124 0 11.202 5.64t4.078 15.547z" id="DejaVuSans-112"/></defs><use xlink:href="#DejaVuSans-83"/><use x="63.477" xlink:href="#DejaVuSans-101"/><use x="125" xlink:href="#DejaVuSans-112"/></g></g><g id="xtick_5"><g style="fill:#696969" transform="matrix(.16 0 0 -.16 572.942 598.378)" id="text_5"><defs><path d="M9.813 72.906h13.28l32.329-60.984v60.984h9.562V0h-13.28L19.39 60.984V0H9.813z" id="DejaVuSans-78"/><path d="M30.61 48.39q-7.22 0-11.422-5.64-4.204-5.64-4.204-15.453 0-9.813 4.172-15.453 4.188-5.64 11.453-5.64 7.188 0 11.375 5.655 4.203 5.672 4.203 15.438 0 9.719-4.203 15.406-4.187 5.688-11.375 5.688zm0 7.61q11.718 0 18.406-7.625 6.703-7.61 6.703-21.078 0-13.422-6.703-21.078-6.688-7.64-18.407-7.64-11.765 0-18.437 7.64-6.656 7.656-6.656 21.078 0 13.469 6.656 21.078Q18.844 56 30.609 56z" id="DejaVuSans-111"/><path d="M2.984 54.688H12.5L29.594 8.797l17.093 45.89h9.516L35.687 0H23.485z" id="DejaVuSans-118"/></defs><use xlink:href="#DejaVuSans-78"/><use x="74.805" xlink:href="#DejaVuSans-111"/><use x="135.986" xlink:href="#DejaVuSans-118"/></g></g><g id="xtick_6"><g style="fill:#696969" transform="matrix(.16 0 0 -.16 672.461 598.378)" id="text_6"><defs><path d="M54.89 33.016V0h-8.984v32.719q0 7.765-3.031 11.61-3.031 3.858-9.078 3.858-7.281 0-11.484-4.64-4.204-4.625-4.204-12.64V0H9.08v54.688h9.03v-8.5q3.235 4.937 7.594 7.374Q30.078 56 35.797 56q9.422 0 14.25-5.828 4.844-5.828 4.844-17.156z" id="DejaVuSans-110"/></defs><use xlink:href="#DejaVuSans-74"/><use x="29.492" xlink:href="#DejaVuSans-97"/><use x="90.771" xlink:href="#DejaVuSans-110"/></g></g><g id="xtick_7"><g style="fill:#696969" transform="matrix(.16 0 0 -.16 762.78 598.378)" id="text_7"><use xlink:href="#DejaVuSans-77"/><use x="86.279" xlink:href="#DejaVuSans-97"/><use x="147.559" xlink:href="#DejaVuSans-114"/></g></g></g><g id="matplotlib.axis_2"><g id="ytick_1"><g style="fill:#696969" transform="matrix(.16 0 0 -.16 73.733 539.083)" id="text_8"><defs><path d="M10.594 35.5h62.593v-8.297H10.594z" id="DejaVuSans-8722"/><path d="M37.797 64.313 12.89 25.39h24.906zm-2.594 8.593H47.61V25.391h10.407v-8.203H47.609V0h-9.812v17.188H4.89v9.515z" id="DejaVuSans-52"/><path d="M31.781 66.406q-7.61 0-11.453-7.5Q16.5 51.422 16.5 36.375q0-14.984 3.828-22.484 3.844-7.5 11.453-7.5 7.672 0 11.5 7.5 3.844 7.5 3.844 22.484 0 15.047-3.844 22.531-3.828 7.5-11.5 7.5zm0 7.813q12.266 0 18.735-9.703 6.468-9.688 6.468-28.141 0-18.406-6.468-28.11-6.47-9.687-18.735-9.687-12.25 0-18.718 9.688-6.47 9.703-6.47 28.109 0 18.453 6.47 28.14Q19.53 74.22 31.78 74.22z" id="DejaVuSans-48"/></defs><use xlink:href="#DejaVuSans-8722"/><use x="83.789" xlink:href="#DejaVuSans-52"/><use x="147.412" xlink:href="#DejaVuSans-48"/></g></g><g id="ytick_2"><g style="fill:#696969" transform="matrix(.16 0 0 -.16 73.733 442.893)" id="text_9"><defs><path d="M19.188 8.297h34.421V0H7.33v8.297q5.609 5.812 15.296 15.594 9.703 9.797 12.188 12.64 4.734 5.313 6.609 9 1.89 3.688 1.89 7.25 0 5.813-4.078 9.469-4.078 3.672-10.625 3.672-4.64 0-9.797-1.61-5.14-1.609-11-4.89v9.969Q13.767 71.78 18.938 73q5.188 1.219 9.485 1.219 11.328 0 18.062-5.672 6.735-5.656 6.735-15.125 0-4.5-1.688-8.531-1.672-4.016-6.125-9.485-1.218-1.422-7.765-8.187-6.532-6.766-18.453-18.922z" id="DejaVuSans-50"/></defs><use xlink:href="#DejaVuSans-8722"/><use x="83.789" xlink:href="#DejaVuSans-50"/><use x="147.412" xlink:href="#DejaVuSans-48"/></g></g><g id="ytick_3"><use xlink:href="#DejaVuSans-48" transform="matrix(.16 0 0 -.16 97.32 346.703)" id="text_10"/></g><g id="ytick_4"><g style="fill:#696969" transform="matrix(.16 0 0 -.16 87.14 250.513)" id="text_11"><use xlink:href="#DejaVuSans-50"/><use x="63.623" xlink:href="#DejaVuSans-48"/></g></g><g id="ytick_5"><g style="fill:#696969" transform="matrix(.16 0 0 -.16 87.14 154.324)" id="text_12"><use xlink:href="#DejaVuSans-52"/><use x="63.623" xlink:href="#DejaVuSans-48"/></g></g><g style="fill:#696969" transform="matrix(0 -.2 -.2 0 65.573 379.813)" id="text_13"><defs><path d="M51.125 44H36.922l-4.11-16.313h14.313zm-7.328 27.781-5.078-20.265h14.265L58.11 71.78h7.813L60.89 51.516h15.234V44h-17.14l-4-16.313h15.53V20.22H53.079L48 0h-7.813l5.032 20.219H30.906L25.875 0h-7.86l5.079 20.219H7.719v7.468h17.187L29 44H13.281v7.516h17.625l4.985 20.265z" id="DejaVuSans-35"/><path d="M37.11 75.984V68.5h-8.594q-4.828 0-6.72-1.953-1.874-1.953-1.874-7.031v-4.828h14.797v-6.985H19.922V0H10.89v47.703H2.297v6.984h8.594V58.5q0 9.125 4.25 13.297 4.25 4.187 13.468 4.187z" id="DejaVuSans-102"/><path d="M48.781 52.594v-8.407q-3.812 2.11-7.64 3.157-3.828 1.047-7.735 1.047-8.75 0-13.593-5.547-4.829-5.532-4.829-15.547 0-10.016 4.829-15.563 4.843-5.53 13.593-5.53 3.907 0 7.735 1.046 3.828 1.047 7.64 3.156V2.094Q45.016.344 40.984-.531q-4.015-.89-8.562-.89-12.36 0-19.64 7.765-7.266 7.765-7.266 20.953 0 13.375 7.343 21.031Q20.22 56 33.016 56q4.14 0 8.093-.86 3.953-.843 7.672-2.546z" id="DejaVuSans-99"/><path d="M44.281 53.078v-8.5q-3.797 1.953-7.906 2.922-4.094.984-8.5.984-6.688 0-10.031-2.047-3.344-2.046-3.344-6.156 0-3.125 2.39-4.906 2.391-1.781 9.626-3.39l3.078-.688q9.562-2.047 13.593-5.781 4.032-3.735 4.032-10.422 0-7.625-6.032-12.078-6.03-4.438-16.578-4.438-4.39 0-9.156.86Q10.688.296 5.422 2v9.281q4.984-2.594 9.812-3.89 4.829-1.282 9.579-1.282 6.343 0 9.75 2.172 3.421 2.172 3.421 6.125 0 3.656-2.468 5.61-2.453 1.953-10.813 3.765l-3.125.735q-8.344 1.75-12.062 5.39-3.704 3.64-3.704 9.985 0 7.718 5.47 11.906Q16.75 56 26.811 56q4.97 0 9.36-.734 4.406-.72 8.11-2.188z" id="DejaVuSans-115"/></defs><use xlink:href="#DejaVuSans-35"/><use x="83.789" xlink:href="#DejaVuSans-32"/><use x="115.576" xlink:href="#DejaVuSans-111"/><use x="176.758" xlink:href="#DejaVuSans-102"/><use x="211.963" xlink:href="#DejaVuSans-32"/><use x="243.75" xlink:href="#DejaVuSans-99"/><use x="298.73" xlink:href="#DejaVuSans-97"/><use x="360.01" xlink:href="#DejaVuSans-115"/><use x="412.109" xlink:href="#DejaVuSans-101"/><use x="473.633" xlink:href="#DejaVuSans-115"/></g></g><g style="fill:#696969" transform="matrix(.24 0 0 -.24 261.11 71.76)" id="text_14"><defs><path d="M4.203 54.688h8.985l11.234-42.672 11.172 42.672h10.593l11.235-42.672 11.187 42.672h8.985L63.28 0H52.688L40.922 44.828 29.109 0H18.5z" id="DejaVuSans-119"/><path d="M64.406 67.281v-10.39q-4.984 4.64-10.625 6.922-5.64 2.296-11.984 2.296-12.5 0-19.14-7.64-6.641-7.64-6.641-22.094 0-14.406 6.64-22.047 6.64-7.64 19.14-7.64 6.345 0 11.985 2.296 5.64 2.297 10.625 6.938V5.609Q59.234 2.094 53.437.33q-5.78-1.75-12.218-1.75-16.563 0-26.094 10.124-9.516 10.14-9.516 27.672 0 17.578 9.516 27.703 9.531 10.14 26.094 10.14 6.531 0 12.312-1.734 5.797-1.734 10.875-5.203z" id="DejaVuSans-67"/><path d="M3.328 72.906h9.953L28.61 11.281l15.282 61.625h11.093l15.328-61.625 15.282 61.625h10.015L77.297 0H64.89L49.516 63.281 33.984 0H21.578z" id="DejaVuSans-87"/><path d="M9.078 75.984h9.031V31.11l26.813 23.578H56.39l-29-25.578L57.625 0H45.906L18.11 26.703V0H9.08z" id="DejaVuSans-107"/><path d="M4.89 31.39h26.313v-8H4.891z" id="DejaVuSans-45"/><path d="M11.719 12.406h10.297V0H11.719zm0 39.297h10.297v-12.39H11.719z" id="DejaVuSans-58"/><path d="M12.406 8.297h16.11v55.625l-17.532-3.516v8.985l17.438 3.515h9.86V8.296H54.39V0H12.406z" id="DejaVuSans-49"/><path d="M45.406 27.984q0 9.766-4.031 15.125-4.016 5.375-11.297 5.375-7.219 0-11.25-5.375-4.031-5.359-4.031-15.125 0-9.718 4.031-15.093t11.25-5.375q7.281 0 11.297 5.375 4.031 5.375 4.031 15.093zm8.985-21.203q0-13.953-6.203-20.765Q42-20.797 29.203-20.797q-4.734 0-8.937.703-4.203.703-8.157 2.172v8.735q3.954-2.141 7.813-3.157 3.86-1.031 7.86-1.031 8.843 0 13.234 4.61 4.39 4.609 4.39 13.937v4.453q-2.781-4.844-7.125-7.234Q33.938 0 27.875 0 17.828 0 11.672 7.656q-6.156 7.672-6.156 20.328 0 12.688 6.156 20.344Q17.828 56 27.875 56q6.063 0 10.406-2.39 4.344-2.391 7.125-7.22v8.297h8.985z" id="DejaVuSans-103"/></defs><use xlink:href="#DejaVuSans-78"/><use x="74.805" xlink:href="#DejaVuSans-101"/><use x="136.328" xlink:href="#DejaVuSans-119"/><use x="218.115" xlink:href="#DejaVuSans-32"/><use x="249.902" xlink:href="#DejaVuSans-67"/><use x="319.727" xlink:href="#DejaVuSans-97"/><use x="381.006" xlink:href="#DejaVuSans-115"/><use x="433.105" xlink:href="#DejaVuSans-101"/><use x="494.629" xlink:href="#DejaVuSans-115"/><use x="546.729" xlink:href="#DejaVuSans-32"/><use x="578.516" xlink:href="#DejaVuSans-87"/><use x="671.518" xlink:href="#DejaVuSans-101"/><use x="733.041" xlink:href="#DejaVuSans-101"/><use x="794.564" xlink:href="#DejaVuSans-107"/><use x="852.475" xlink:href="#DejaVuSans-45"/><use x="890.434" xlink:href="#DejaVuSans-111"/><use x="951.615" xlink:href="#DejaVuSans-118"/><use x="1010.795" xlink:href="#DejaVuSans-101"/><use x="1072.318" xlink:href="#DejaVuSans-114"/><use x="1107.057" xlink:href="#DejaVuSans-45"/><use x="1139.141" xlink:href="#DejaVuSans-87"/><use x="1232.143" xlink:href="#DejaVuSans-101"/><use x="1293.666" xlink:href="#DejaVuSans-101"/><use x="1355.189" xlink:href="#DejaVuSans-107"/><use x="1413.1" xlink:href="#DejaVuSans-58"/><use x="1446.791" xlink:href="#DejaVuSans-32"/><use x="1478.578" xlink:href="#DejaVuSans-49"/><use x="1542.201" xlink:href="#DejaVuSans-52"/><use x="1605.824" xlink:href="#DejaVuSans-32"/><use x="1637.611" xlink:href="#DejaVuSans-97"/><use x="1698.891" xlink:href="#DejaVuSans-118"/><use x="1758.07" xlink:href="#DejaVuSans-103"/></g><g id="legend_1"><path d="M128.2 184.5h136.45q3.2 0 3.2-3.2V88.96q0-3.2-3.2-3.2H128.2q-3.2 0-3.2 3.2v92.34q0 3.2 3.2 3.2z" style="fill:none;opacity:.8;stroke:#ccc;stroke-linejoin:miter" id="patch_5"/><path d="M131.4 98.718h32" style="fill:none;stroke:#000;stroke-linecap:round;stroke-width:1.5" id="line2d_6"/><g style="fill:#696969" transform="matrix(.16 0 0 -.16 176.2 104.317)" id="text_15"><defs><path d="M8.688 72.906h9.921V28.61q0-11.718 4.235-16.875 4.25-5.14 13.781-5.14 9.469 0 13.719 5.14 4.25 5.157 4.25 16.875v44.297H64.5V27.391q0-14.25-7.063-21.532-7.046-7.28-20.812-7.28-13.828 0-20.89 7.28-7.047 7.282-7.047 21.532z" id="DejaVuSans-85"/></defs><use xlink:href="#DejaVuSans-85"/><use x="73.193" xlink:href="#DejaVuSans-83"/></g><path d="M131.4 122.203h32" style="fill:none;stroke:#009e73;stroke-linecap:round;stroke-width:1.5" id="line2d_8"/><g style="fill:#696969" transform="matrix(.16 0 0 -.16 176.2 127.802)" id="text_16"><use xlink:href="#DejaVuSans-78"/><use x="74.805" xlink:href="#DejaVuSans-74"/></g><path d="M131.4 145.688h32" style="fill:none;stroke:#d55e00;stroke-linecap:round;stroke-width:1.5" id="line2d_10"/><g style="fill:#696969" transform="matrix(.16 0 0 -.16 176.2 151.287)" id="text_17"><defs><path d="M19.672 34.813V8.108H35.5q7.953 0 11.781 3.297 3.844 3.297 3.844 10.078 0 6.844-3.844 10.078-3.828 3.25-11.781 3.25zm0 29.984V42.828h14.61q7.218 0 10.75 2.703 3.546 2.719 3.546 8.282 0 5.515-3.547 8.25-3.531 2.734-10.75 2.734zm-9.86 8.11h25.204q11.28 0 17.375-4.688Q58.5 63.53 58.5 54.89q0-6.703-3.125-10.657-3.125-3.953-9.188-4.922 7.282-1.562 11.313-6.53 4.031-4.954 4.031-12.376 0-9.765-6.64-15.093Q48.25 0 35.984 0H9.812z" id="DejaVuSans-66"/></defs><use xlink:href="#DejaVuSans-66"/><use x="68.604" xlink:href="#DejaVuSans-101"/><use x="130.127" xlink:href="#DejaVuSans-114"/><use x="169.49" xlink:href="#DejaVuSans-103"/><use x="232.967" xlink:href="#DejaVuSans-101"/><use x="294.49" xlink:href="#DejaVuSans-110"/></g><path d="M131.4 169.173h32" style="fill:none;stroke:#0072b2;stroke-linecap:round;stroke-width:1.5" id="line2d_12"/><g style="fill:#696969" transform="matrix(.16 0 0 -.16 176.2 174.773)" id="text_18"><defs><path d="M44.39 34.188q3.172-1.079 6.172-4.594 3-3.516 6.032-9.672L66.609 0H56l-9.313 18.703q-3.624 7.328-7.015 9.719-3.39 2.39-9.25 2.39h-10.75V0h-9.86v72.906h22.266q12.5 0 18.656-5.234 6.157-5.219 6.157-15.766 0-6.89-3.203-11.437-3.204-4.532-9.297-6.282zM19.673 64.797V38.922h12.406q7.125 0 10.766 3.297 3.64 3.297 3.64 9.687 0 6.39-3.64 9.64-3.64 3.25-10.766 3.25z" id="DejaVuSans-82"/><path d="M18.313 70.219V54.688h18.5v-6.985h-18.5V18.016q0-6.688 1.828-8.594 1.828-1.906 7.453-1.906h9.218V0h-9.218q-10.407 0-14.36 3.875-3.953 3.89-3.953 14.14v29.688H2.687v6.984h6.594V70.22z" id="DejaVuSans-116"/><path d="M54.89 33.016V0h-8.984v32.719q0 7.765-3.031 11.61-3.031 3.858-9.078 3.858-7.281 0-11.484-4.64-4.204-4.625-4.204-12.64V0H9.08v75.984h9.03V46.188q3.235 4.937 7.594 7.374Q30.078 56 35.797 56q9.422 0 14.25-5.828 4.844-5.828 4.844-17.156z" id="DejaVuSans-104"/><path d="M45.406 46.39v29.594h8.985V0h-8.985v8.203Q42.578 3.328 38.25.953q-4.313-2.375-10.375-2.375-9.906 0-16.14 7.906-6.22 7.922-6.22 20.813 0 12.89 6.22 20.797Q17.968 56 27.874 56q6.063 0 10.375-2.375 4.328-2.36 7.156-7.234zm-30.61-19.093q0-9.906 4.079-15.547 4.078-5.64 11.203-5.64 7.125 0 11.219 5.64 4.11 5.64 4.11 15.547 0 9.906-4.11 15.547-4.094 5.64-11.219 5.64-7.125 0-11.203-5.64-4.078-5.64-4.078-15.547z" id="DejaVuSans-100"/></defs><use xlink:href="#DejaVuSans-82"/><use x="64.982" xlink:href="#DejaVuSans-117"/><use x="128.361" xlink:href="#DejaVuSans-116"/><use x="167.57" xlink:href="#DejaVuSans-104"/><use x="230.949" xlink:href="#DejaVuSans-101"/><use x="292.473" xlink:href="#DejaVuSans-114"/><use x="333.586" xlink:href="#DejaVuSans-102"/><use x="368.791" xlink:href="#DejaVuSans-111"/><use x="429.973" xlink:href="#DejaVuSans-114"/><use x="469.336" xlink:href="#DejaVuSans-100"/></g></g></g></g><defs><clipPath id="p8777887698"><path d="M117 77.76h725.4v498.96H117z"/></clipPath></defs></svg>