<svg height="864" viewBox="0 0 936 648" width="1248" xmlns="http://www.w3.org/2000/svg" xmlns:xlink="http://www.w3.org/1999/xlink"><defs><style>*{stroke-linecap:butt;stroke-linejoin:round}</style></defs><g id="figure_1"><path d="M0 648h936V0H0z" style="fill:#fff" id="patch_1"/><g id="axes_1"><path d="M117 576.72h725.4V77.76H117z" style="fill:none" id="patch_2"/><path clip-path="url(#pd00e245a96)" d="m149.973 554.04 50.646-.087 5.275-.247 3.166-.327 1.055-.297 1.055-.493 2.11-1.474 1.055-1.061 2.11-2.51 3.166-4.985 1.055-1.968 2.11-2.841 1.056-1.904 2.11-3.383 2.11-3.925 1.055-.96 1.055-1.277 2.11-1.45 1.056-.674 1.055-.156 1.055.457 1.055-.207 1.055.696 1.055.493 1.056.242 1.055.417 1.055.266 1.055.45 1.055.244 1.055-.22 2.11.322 1.056-.293 2.11-1.52 1.055-.19 1.055.568 1.055.117 1.055.308 3.166 1.504 2.11.248 1.055.127 2.11.531 1.055.855 1.056.623 1.055.788 1.055.587 1.055.19 1.055.455 4.22.736 1.056-.57 1.055.18 1.055-.26 1.055.166 1.055.33 1.055.187 1.056-.137 2.11.65 1.055.585 1.055.436 3.165-.336 1.056-.378 2.11-.424 1.055.12 1.055-.562 1.055.12 1.055.272 1.055.5 1.056.268 1.055-.388 1.055-.214 1.055.435 1.055-.381 1.055-.07 1.055-.258 1.055-.822 1.056-.38 2.11-1.38 2.11-1.884 3.165-4.31 4.221-6.925 1.055-1.221 4.22-7.077 1.056-1.043 1.055-.71 1.055-1.059 1.055-.77 1.055-1.282 1.055-.586 2.11-2.946 3.166-5.249 1.055-1.202 1.055-2.136 1.055-.365 1.056-.234 1.055-.605 1.055.228 1.055.043 1.055-.188 1.055.768 1.055-.352 1.055-.585 1.056 1.09 1.055.095 3.165.836 1.055.6 1.055 1.345 1.055.463 1.056 1.582 1.055 1.294 1.055 1.766 1.055 1.547 1.055 1.072 3.165.57 2.11-.049 1.056.467 1.055.227 1.055.608 1.055.858 2.11 2.675 1.056 1.523 1.055 1.087 1.055 1.413 1.055.773 1.055 1.326 1.055-.39 1.055.548 1.055-.312 1.056.056 1.055.334 1.055.056 1.055-.148 1.055.53 1.055-.658 1.055 1.74 1.055-.105 1.056-.75 1.055.32 1.055.464 1.055 1.53 1.055 2.044 1.055-.12 1.055 1.127 1.056.613 1.055.426 1.055-.452 2.11-2.975 1.055-.803 1.055-.98 1.055-.179 2.11-.773 1.056-2.444 1.055.247 1.055-.308 1.055.014 1.055-.77 2.11-.247 1.056 2.38 1.055-.853 3.165-.098 1.055-.688 1.055.303 1.056-3.389 1.055.113 2.11-2.83 1.055-.727 1.055-.524 1.055-1.314 1.055 1.947 1.056-1.56 1.055-.924 1.055-1.214 1.055-1.555 1.055-.15 1.055-.42 1.055-2.356 1.055-.84 1.056-.592 1.055-1.322 1.055-2.006 1.055-3.492 1.055-1.6 1.055-1.245 1.055-1.865 1.055-2.386 2.11-4.073 1.056-.76 1.055-1.96 2.11-5.057 1.055-3.543 2.11-8.606 1.056-5.643 1.055-3.952 1.055-4.929 1.055-6.402 1.055-4.706 1.055-5.721 1.056-6.583 3.165-13.659 1.055-2.96 1.055-3.976 1.055-3.226 1.055-2.349 1.056-1.744 1.055-.759 1.055-1.766 1.055-2.195 1.055-1.124 1.055 11.43 1.055-.943 1.055 2.776 1.056.631 1.055 1.619 1.055-.862 1.055-2.783 1.055-15.52 1.055-3.452 1.055-7.344 3.166-14.627 1.055-2.508 1.055-1.012 1.055-6.647 1.055-.247 1.055-1.663 1.055.492 1.056 2.24 1.055-3.396 1.055-1.689 1.055 3.966 1.055 1.843 1.055.583 1.055-.086 1.055.205 1.056 2.308 1.055 5.978 1.055 20.322 1.055-3.105 1.055 3.763 1.055 1.691 1.055.083 1.056-.16 1.055-5.074 1.055-6.265 1.055-10.11 1.055-6.72 1.055-8.496 1.055-4.596 1.055-3.654 1.056-6.67 1.055-20.764 1.055 5.368 1.055-.88 1.055 3.45 1.055.681 1.055 3.604 1.055 5.52 1.056 8.239 1.055 6.725 1.055 5.167 1.055 11.52 2.11 11.75 2.11 13.163 1.056 4.636 1.055 5.466 1.055-2.089 1.055 4.91 1.055 4.02 2.11 6.932 1.055 4.614 2.11 4.14 2.111 9.598 1.055 5.482 1.055 4.75 2.11 7.488 1.056 6.61 1.055 2.551 1.055 3.41 1.055 2.704 1.055 4.04 1.055 2.745 1.055 3.178 1.055 5.1 1.056 4.308 1.055 3.356 1.055 4.578 1.055 2.923 1.055 2.02 1.055 1.163 1.055-.567 1.056-.997 1.055-.546 1.055-.823 1.055-.042 1.055.953 1.055.578 1.055.375 1.055 1.93 1.056 1.025 1.055 1.434 1.055 1.707 1.055.823 1.055 1.467 1.055-5.115 1.055.236 1.055 1.138 1.056.662 1.055.207 1.055.95 1.055.281 1.055 5.052 1.055.185 1.055-.1 1.055.26 1.056.479 1.055-.659 1.055.514 1.055.33 1.055-.299 1.055-2.836 1.055-1.17 1.055-1.876 1.056-.849 1.055-1.396 1.055-2.167 1.055-.742 1.055 1.618 1.055-1.092 1.055.8 1.055-.466 1.056 1.04 1.055-.791 1.055.035 1.055-.697 1.055-.441 1.055-1.758 1.055-.084 1.055-1.508 1.056.63 1.055-2.076 1.055-.36 1.055.915 1.055.437 1.055 1.472 1.055.89 1.056.226 1.055 2.204 1.055 1.793 1.055 1.008 1.055 1.97 1.055.46 1.055 1.057 1.055 3.1 1.056 1.237 2.11 2.21 3.165 2.02 1.055-.353 2.11 2.843 2.11 2.828 1.056 1.5 1.055.988 1.055 1.81 1.055.936 2.11 2.5 1.056.882 1.055.624 1.055.76 1.055.994 2.11 1.74 1.055 1.193 2.11 3.07 1.056.347 1.055.484 2.11 1.41 1.055.254 3.166 2.766 1.055 2.722 1.055.036 1.055.883 1.055 1.12 1.055 6.224 2.11.324 1.056-1.886 1.055 1.134 1.055-.515 1.055.497 1.055-5.522 1.055.294 1.056-.086 1.055.586 1.055.313 1.055.845 2.11 1.047 1.055.095 1.055.368 2.11-.218 1.056.051 2.11-.645 2.11.103 1.055.04 1.056-.401 1.055-.263 1.055-6.798 1.055-.74 1.055.378 1.055.157 1.055 1.482 1.055-1.534 1.056-1.927 1.055 2.127 1.055-2.015 1.055-.509 1.055-.354 1.055-4.165 1.055-2.151 1.055-1.06 1.056 1.787 1.055-2.284 1.055-.634 1.055-.47 1.055-3.22 1.055-2.587 1.055-2.94 2.11-8.158 1.056-1.236 1.055-.65 1.055-4.586 1.055-6.046 1.055-3.404 1.055-4.436 1.055-5.357 2.11-2.322 2.111-11.71 2.11-7.581 1.055-6.178 2.11-3.461 1.056-5.751 1.055-1.593 1.055-5.847 1.055-1.588 1.055-2.575 2.11-2.09 1.056-10.928 1.055 2.407 1.055-1.222 1.055-2.846 1.055-1.652 1.055-4 1.055.439 2.11-1.698 1.056-.855 1.055-3.789 1.055.5 1.055-.793 1.055-.215 1.055-1.928 1.056-1.36 1.055-5.417 1.055 1.631 1.055.6 1.055 2.598 1.055-.306 1.055 27.513 1.055-19.055 1.056 3.626 1.055.693 1.055 2.05 1.055-1.064 1.055.657 1.055-28.143 1.055 20.077 1.055 1.892 1.056 2.122 1.055 1.193 1.055.78 1.055-.053 1.055 10.4 2.11 6.15 2.11 7.377 1.056 2.245 1.055.774 1.055 1.809 1.055 2.25 1.055 2.565 1.055 1.59 1.056 1.91 2.11 2.13 1.055 2.989 1.055 1.993 1.055.396 1.055 1.507h0" style="fill:none;stroke:#000;stroke-linecap:round;stroke-width:1.5" id="line2d_1"/><path clip-path="url(#pd00e245a96)" d="m149.973 554.04 52.756-.11 2.11-.12 2.11-.23 2.11-.804 1.056-.755 1.055-1.51 1.055-.699 1.055-2.074 1.055-2.773 1.056-4.258 1.055-3.694 1.055-2.838 1.055-10.825 3.165-26.642 1.056-11.594 1.055-6.142 1.055-14.153 1.055-4.303 1.055-11.774 1.055-9.645 1.055-5.592 1.055-1.674 1.056-6.327 1.055 2.688 1.055-1.274 2.11 7.047 1.055-1.59 1.055 4.253 1.055-4.567 1.056 4.072 1.055-3.483 1.055 2.054 1.055 3.049 1.055-.91 1.055-3.853 1.055 3.293 1.055-6.356 1.056.814 1.055 4.713 1.055-1.87 1.055 1.83 1.055 6.771 1.055 4.563 1.055 5.348 1.055 8.675 1.056-1.654 1.055 3.998 1.055 2.439 1.055 3.123 1.055 1.72 1.055 5.552 1.055 3.213 1.055 3.593 1.056 4.478 1.055 7.896 1.055.56 1.055 7.626 1.055 2.399 2.11 6.092 1.055 2.234 1.056 1.01 1.055-1.46 1.055-.88 1.055-2.843 1.055.355 1.055-.23 1.055 3.993 1.056.974 1.055 3.833 1.055 1.51 1.055 2.608 1.055-.57 1.055 1.09 1.055-1.894 1.055 1.065 1.056 2.323 1.055.225 1.055 1.704 1.055 3.624 2.11 2.149 1.055 2.828 1.055.7 1.056 1.64 2.11-.176 1.055 2.289 1.055.58 1.055-.025 1.055.554 1.055-.12 1.056 1.365 1.055.33 1.055-.205 1.055.515 3.165-.395 1.055.594 1.056-8.765 1.055.005 1.055.245 1.055-.005 1.055.914 1.055-.38 1.055-.514 1.055 8.635h2.11l1.056-.3 1.055-.594 1.055.64 1.055.044 1.055.995 1.055.14 1.056-.2 1.055.15 1.055-.075 2.11-1.32 1.055.04 1.055 1.54 1.056.34 1.055 1.849 1.055.22 1.055.5 1.055.274 1.055-.095 1.055-2.039 1.055-1.25 1.056-2.678 1.055-1.344 1.055-.95 1.055-.454 1.055.19 1.055-1.16 1.055.72 2.11 1.844 1.056.635 1.055.454 1.055-.85 1.055 1.65 1.055.005 1.055-.115 1.055.03 1.056-.44 1.055-.57 1.055-1.409 1.055-1.05 1.055.45 1.055 1.655 1.055-.27 2.11 1.214 1.056 2.779 1.055 1.4 1.055-1.255 1.055-.675 1.055.435 1.055.145 1.055.415 1.056-1.035 1.055-.34 1.055.9 2.11-1.335 1.055-.14 3.166-1.169 1.055.12 1.055-.1 1.055.085 1.055.265 1.055-.105 2.11-.355 1.056-.62 2.11.06 1.055-.794 1.055-.305 1.055-.725 2.11-.125 1.056-.78 1.055-.29 1.055.05 1.055-.09 1.055.026 1.055-.305 1.055-1.444 1.056-1.225 1.055-.834 1.055-.15 1.055-1.5 1.055-.25 2.11-1.943 1.055.36 1.056.24 1.055-.865 1.055.994 1.055-3.418 1.055-.625 1.055.415 1.055-.625 1.055.21 1.056-1.794 1.055-2.149 1.055 1.634 1.055.275 1.055-.35 1.055-2.618 1.055-3.613h1.055l1.056-.455 1.055-.955 1.055-1.174 1.055-4.873 1.055.73 1.055-.12 2.11-6.492 1.056-1.939 1.055-4.652 1.055 2.728 1.055-3.068 2.11-1.645 1.055-3.863 1.056-2.059 1.055-.924 1.055-9.19 1.055-1.35 1.055-3.448 1.055-9.76 1.055-3.109 1.055-7.646 2.11-11.93 1.056-12.618 1.055-.804 1.055-1.245 1.055-4.942 1.055-3.449 1.055-1.144 1.056-1.58 1.055 2.85 1.055-6.807 1.055-1.245 1.055-.025 1.055-1.454 1.055-2.344 1.055 4.333 1.056.645 1.055 1.954 1.055-1.654 1.055-1.22 1.055-1.599 2.11-15.442 1.055-10.95 1.056-1.864 1.055-4.348 1.055-.8 1.055-1.634 1.055 10.06 1.055-4.577L495 390.79l1.055-6.172 1.056 7.546 1.055-6.187 1.055 4.323 1.055-1.23 1.055 10.24 1.055-5.102 1.055 8.131 1.055-3.183 1.056 4.458 1.055-2.244 1.055-5.817 1.055.96 1.055 14.267 1.055 2.134 1.055 4.728 1.056.454 1.055-1.959 1.055-2.204 1.055-7.556 1.055-6.746 1.055-241.62 1.055-13.03 1.055-5.666 1.056-11.91 1.055-7.596 2.11-19.37 1.055 228.662 1.055 8.385 1.055-10.125 1.055 1.934 1.056 3.279 1.055 7.056 1.055 2.55 1.055 7.415 1.055-.204 1.055 12.188 2.11 21.035 1.056-5.742 1.055-.68 1.055-1.45 1.055-.744 1.055 3.144 1.055 1.509 1.055-8.926 1.055 9.366 1.056 4.917 1.055 3.139 1.055 8.126 1.055 12.489 1.055 7.28 1.055 8.787 1.055 3.818 1.055-.22 1.056 4.767 1.055-2.134 1.055-10.29 1.055-1.833 1.055 2.478 1.055 3.763 1.055 10.815 1.055 5.577 1.056-.28 1.055 1.305 1.055 1.899 1.055 3.428 1.055 4.393 1.055.685 1.055-6.292 1.056 2.374 1.055 4.952 1.055-1.494 1.055-4.113 1.055-6.282 1.055-1.794 1.055-2.189 1.055-.655 1.056-2.863 1.055 1.909 1.055.854 1.055 2.064 1.055-.65 1.055 4.174 1.055-4.183 1.055-.42 1.056-3.104 1.055-2.588 1.055-.725 1.055-3.948 1.055-2.574 1.055 2.044 1.055-2.683 1.055-3.289 1.056-.88 1.055-5.207 1.055.36 1.055-1.644 1.055-5.427 1.055 1.079 1.055 2.639 1.055-6.032 1.056 1.214 1.055-6.332 1.055-2.349 1.055-.35 1.055 2.14 1.055-8.316 1.055 5.347 1.055 1.104 1.056 3.519 1.055 3.948 1.055 5.802 1.055-2.864 1.055 6.377 1.055 1.68 1.055 4.227 1.055 2.07 1.056 1.773 1.055-1.21 1.055 3.39 1.055 2.068 1.055-.94 1.055-1.614 1.055 1.19 1.056 1.464 1.055 5.572 1.055.44 1.055 3.438 1.055 7.732 1.055 5.692 1.055 7.271 1.055 55.912 1.056 3.574 1.055 6.816 2.11 9.81 1.055 5.967 1.055 2.48 1.055-49.916 1.055 5.597 1.056-2.089 2.11 8.601 2.11 8.986 1.055 4.152 1.055 2.214 1.055 10.21 1.056 4.923 1.055 3.218 1.055.02 1.055.35 1.055-.98 1.055-.42 1.055.21 1.055-.664 1.056-1.644 1.055 1.34 1.055-.16 2.11 2.508 1.055.245 1.055.834 1.055 1.93 1.056.614 1.055.275 1.055-.475 1.055 1.155 2.11 1.174 1.055-.135 1.055-.515 1.056.185 1.055-.055 1.055-.184 1.055.444 1.055-.305 1.055.095 1.055.545 1.056.01 1.055-.115 1.055-.27 1.055-.494 1.055.52 1.055.04 2.11.519 1.056.45 2.11.165 1.055-.17 1.055-.415 1.055-.145 3.166-.02 2.11.635 3.165.62 2.11.65 1.056-.44 3.165-1.61 1.055-.854 1.055-.645 1.055-1.045 1.055-.41 2.11-1.054 1.056-1.19 1.055-.724 1.055-.485 1.055-1.474 2.11-3.168 1.056-2.074 1.055-1.56 1.055-.84 1.055-1.044 1.055-.68 1.055-1.244 1.055-1.654 1.055-1.05 2.11-3.263 1.056-1.784 1.055-2.594 1.055-1.409 1.055-1.944 1.055-1.134 1.056-1.784 1.055-1.205 1.055.085 1.055-1.58 1.055-2.278 1.055-1.939 1.055-2.489 1.055-5.122 1.056-.525 1.055-2.214 1.055-.96 1.055.046 1.055-.84 1.055-5.477 1.055 2.029 1.055-.88 1.056-1.6 1.055-.179 1.055-2.179 1.055-.16 1.055 1.74 1.055 1.119 1.055-2 1.055.58 1.056-1.354 1.055-.85 1.055-2.438 1.055 4.283 1.055-1.57 1.055.68 1.055-2.214 1.055 8.866 1.056-6.072 1.055 1.659 1.055-4.643 1.055-1.23 1.055-.664 1.055 2.03 1.055-8.417 1.055 6.112 1.056-3.738 1.055 1.45 1.055-.645 2.11-.7 1.055-.635 1.055-.38 1.055 3.529 1.056.69 1.055 1.944 1.055 3.993 1.055 2.318 1.055 1.385 1.055 1.769 1.055-.375 1.056 2.814 1.055 1.494 1.055-1.72 1.055-.434 1.055 1.2 1.055.724 1.055 1.31h0" style="fill:none;stroke:#009e73;stroke-linecap:round;stroke-width:1.5" id="line2d_2"/><path clip-path="url(#pd00e245a96)" d="m149.973 554.04 46.425-.095 7.386-.429 1.055-.143 1.055-.666h1.056l1.055-1.334 1.055-1 1.055-2.142 1.055-7.714 1.055-1.952 1.055-.286 1.055-4.476 1.056-5.857 2.11-6.57 1.055-10.62 1.055-12.094 1.055-14.904 1.055-11.237 1.056-7.666 1.055-15.952 1.055-22.237 1.055-10.38 1.055-22.284 1.055-26.713 1.055-4.571 1.055-17.237 1.056-11.619 1.055 11.619 1.055 6.476 1.055 8.666 1.055 21.903 1.055.238 2.11 33.522 1.056-3.857 1.055-4.38 2.11 12.618 1.055-2.571 1.055-3.048 1.055-.524 1.055 4.381 1.056 9.428 1.055 6.666 1.055-3.57 2.11 22.95 1.055 9.428 1.055 6.428 1.055 9.476 1.056 4.476 1.055 11 1.055.761 1.055 2 1.055-1.476 1.055 6.428 1.055 3.571 1.055 5.714 1.056 2.333 1.055 4.095 1.055-.095 1.055 5.476 1.055.048 1.055 7.57 1.055-.714 1.055 2.096 1.056.476 2.11.047 1.055 3 1.055-6.428 1.055 2.143 1.055 1.714 1.056-1 2.11.095 2.11-6.38 1.055.238 1.055 1.285 2.11 6.762 1.056 1.476 1.055.81 1.055 4.904 1.055.476 1.055-1.952 1.055 1.952 1.055.19 1.056-.19 1.055-2.428 1.055-.953 1.055 1.476 1.055-1.57 1.055.332 1.055-.19 1.055-.857 1.056 3.19 1.055 1.476 1.055.286 1.055 1.571 1.055-.047 1.055.143 1.055 1 1.055-.048 1.056-14.856 1.055-3.762 1.055.857 1.055-3.095 1.055.286 1.055-.762 1.055.285 1.055 14.571 1.056 1.857 1.055-.905 1.055.762 1.055-.428 1.055 1.285 1.055-1.619 1.055-1.095 1.055.095 1.056.477 1.055 1.857 1.055.476 1.055.238 1.055 1.905 1.055 1.285 1.055 1.905 1.056.333 1.055 1.095 1.055-1.619 1.055-.095 1.055-1.238 2.11-1.143 1.055-.81 1.056-1.57h1.055l1.055-2.048h1.055l1.055.619 1.055-1.476 2.11.714 1.056 1.095 1.055.19 1.055.763 1.055-.429 1.055 1.667 1.055-1.667 1.055-.762h1.055l1.056.857 1.055-.285 1.055-.524 1.055-4.428 1.055-.239 1.055-1.523 1.055-2.429 1.055.62 1.056 1.523 1.055 4.143 1.055 4.618 1.055 1.334 1.055 3.095 1.055 2.666 1.055-.81 1.055-1.856 1.056-3.048 1.055.048 1.055-.571 1.055-1.286 1.055-.81 1.055-1.047 1.055.619 1.055-.714 1.056-.381 1.055 2.047 1.055.19 1.055.715 1.055 1.762 1.055-.143 1.055.524 1.056-.143 1.055-.334 1.055.096 1.055-.048 1.055 1.143 1.055-.095 1.055-1.667 1.055-.048 1.056-.761 1.055.38h1.055l1.055-2.38 1.055.285 1.055 1.381 1.055.238 1.055-.285 1.056-.953 1.055-.19 1.055.952 1.055-.476 1.055-1.952 2.11-2.572 1.055.048 1.056-.333 1.055-.905 3.165-2.238 1.055-.81 1.055-1.142 1.055-.381 1.056-2.333 2.11-1.857 1.055-.096 1.055.286 1.055-1.571 1.055-2.81 1.055.096 1.056-2.572 1.055-.095 1.055-.619 1.055-3.762 1.055-.952 1.055-.666 1.055-2.238 1.055 1.285 1.056-1.476 1.055-5.761 1.055.857 1.055-1.953 2.11-2.761 1.055-5.714 1.056 1.523 1.055-.19 1.055-9.571 1.055-2.38 1.055.713 1.055-6 1.055-4.856 1.055-14.428 1.056-6.618 1.055-2.524 1.055-9.142 1.055-2.381 1.055-4.286 1.055-5.095 1.055-1.619 1.055.524 1.056-2.666 1.055-.096 1.055-9.904 1.055 2.62 1.055 4.237 1.055 1.238 1.055-9.857 1.055 11.095 1.056-4.571 1.055 5.047 1.055-5.714 1.055-3.142 1.055-4 1.055-3.19 1.055-14.38 2.11-4.238 1.056 3.856 1.055 5.81 1.055 3.619 1.055 15.665 1.055-.81L495 430.62l1.055-2.953 1.056 1.81 1.055-7.047 1.055 2.714 1.055-5.143 1.055 8.428h1.055l1.055 6.905h1.055l1.056-1.715 1.055-4.428 1.055-2.143 1.055 2.572 1.055 6.809 1.055-.19 1.055 1.19 1.056 2.333 1.055-3.619 1.055-1.571 1.055-6.476 1.055-3.571 1.055-207.988 1.055-15.285 1.055-9.523 1.056-5.952 1.055-9.857 1.055-7.333 1.055-10.951 1.055 202.56 1.055 13.475 1.055-6.238 1.055-4.143 1.056 4.571 2.11 4.572 1.055 4.19 1.055-6.38 1.055 8.19 2.11 22.093 1.056-5.476 1.055-.047 1.055-3.095 1.055 1.238 1.055 3.952 1.055-.143 1.055-5.285 1.055 6.523 1.056 3.047 1.055-.476 1.055 7.38 1.055 12.762 1.055 4.952 1.055-1.762 1.055 2 1.055-.524 1.056 4.667 1.055-.667 1.055-10.952 1.055.62 1.055 5.999 1.055 3 1.055 8.237 1.055 5.286 1.056-9.19 1.055 3.571 1.055 1.429 2.11 6.666 1.055 1.333 1.055-10.333 1.056 4.476 1.055-.238 1.055-5.428 1.055-10.285 1.055-3.952 1.055-.953 1.055-6.618 1.055.524 1.056-5.905 1.055 4.667 1.055 2.809 1.055 10.285 1.055-4 1.055 11.285 1.055-5.476 1.055 4.572 1.056-5.762 1.055.619 1.055-8.57 1.055-2.477 1.055-3.095 1.055 1.81 1.055-4.143 1.055 1.476 1.056-4.333 1.055-6.095 1.055 1.047 2.11-3.237 1.055 2.19 1.055 5.142 1.055-9.523 1.056-2.238 1.055-8.285 1.055-.333 1.055-1.143 1.055-5.666 1.055-8.095 1.055 10.285 1.055 2.666 1.056 7.952 1.055 1.381 1.055 8.524 1.055 2.047 2.11 11.904 1.055 6.428 1.055 2.19 1.056 4.477 1.055 1.238 1.055 7.475L624.78 439l1.055-.143 1.055.143 1.055 4.619 1.056 3.333 1.055 4 1.055 2.285 1.055 2.762 1.055 7.81 1.055 4.427 1.055 3.572 1.055 8.19 1.056 2.904 1.055 6.428 2.11 7.19 1.055 7.048 1.055 3.428 1.055-4 1.055 4.572 1.056-52.76 1.055-8.19 1.055 3.81 1.055 2.047 1.055.81 1.055 2.428 1.055 1.905 1.055 57.568 1.056 16.952 1.055.523 1.055-.047 1.055.571 1.055-.333 1.055 1.047 1.055 2.143 1.055 1.048 1.056.19 1.055 2.952 1.055.953 1.055.619 1.055-.62h1.055l1.055-.428 1.055 1.81 1.056.428 1.055.81 1.055.666 1.055 1.524 2.11 2.143 1.055.095 1.055-1.048 1.056-.476h1.055l2.11-.38 1.055-.62 1.055-.238 1.055 1 2.11-.286 1.056-.857 1.055-.095 1.055.38 2.11.525 1.055.38 1.056.524 1.055.286 1.055-.762 1.055-1.19 1.055.095 1.055-.524 1.055-.285 3.166-.381 1.055.571 1.055-.143 1.055.048 1.055.81 1.055.19 2.11 1.952 1.056.095 1.055.286 1.055.095 1.055-1.238 1.055-.238 2.11-2.619 1.056-.762 2.11-2.714h1.055l1.055-.762 1.055-.333 1.055-.19 1.055-2 1.056-2.381 4.22-6.762 1.055-2.333 1.055-1.619 1.055-.571 1.056-1.333 1.055-1.857 1.055-.62 1.055-2.38 2.11-.19 1.055-1.144 1.056.19 1.055.62 1.055 1.095 1.055-2.904 1.055-2.477 1.055-3.38 1.055-.238 1.055-5.19 1.056 3.952 1.055-1.572 1.055-.524 1.055-1.238 1.055 2.143 1.055-6.476 1.055 2 1.055-6.285 1.056-1.619 1.055 1.952 1.055-1.095 1.055-1.38 1.055 2.76 1.055-1.285 1.055-1.047 1.055.238 1.056-.62 1.055 1.144 1.055-.667 1.055 4.19 1.055.286 1.055.714 1.055-1.666 1.055 6.475 1.056-4.904 1.055-.381 1.055-4.81 1.055-.38 1.055-.238 1.055 2.428 1.055-7.952 1.055 4.762 1.056-.667 1.055 2.476 1.055.096 2.11-1.381 1.055 3.142 1.055-1.238 1.055.762 1.056-2.619 1.055.905 1.055 1.095 1.055-.143 1.055.19 1.055 1.096 1.055-.429 1.056 2.905 1.055.857 1.055 2.476 1.055 1.19 1.055.143 1.055.857 1.055 2.524h0" style="fill:none;stroke:#d55e00;stroke-linecap:round;stroke-width:1.5" id="line2d_3"/><path clip-path="url(#pd00e245a96)" d="M149.973 554.04h60.142l1.055-4.85h2.11l1.055-2.426h1.056l2.11-14.55 1.055-9.701 1.055-2.425 1.055-7.276 1.055-2.425 2.11-24.252 1.056-9.7 1.055 9.7 1.055-12.126 1.055-31.527 1.055-21.827 1.055 4.85 1.056 7.276 1.055 9.7 1.055-19.4 1.055-2.426 1.055 33.953 1.055 26.677 1.055-7.276 1.055 2.425 1.056-2.425 1.055 12.126 1.055 4.85 1.055-2.425h1.055l2.11 4.85 1.055-2.425h1.056l1.055-4.85 1.055 2.425h2.11l2.11 14.551 1.055 4.85 1.056 9.701 1.055-2.425h1.055l1.055 12.126h1.055l1.055 4.85 1.055 7.276 1.055 4.85 1.056 7.276h1.055l2.11-19.402 2.11-4.85h3.166l1.055 9.7 1.055 7.276 3.165 7.276h6.331l1.055-4.85h2.11l1.056-7.276h3.165l1.055 4.85h2.11l1.055 7.276h1.056l1.055-2.425h1.055l1.055-2.426h4.22l1.056 2.426h1.055l1.055 2.425h2.11l1.055-4.85 1.055 2.425 3.166-7.276h2.11l1.055-4.85h2.11l2.11 4.85h2.11l1.056-4.85 1.055-2.425 1.055 2.425 1.055-2.425 1.055-4.85h2.11l1.056 9.7h2.11l1.055 2.425 1.055 4.85h2.11l1.056 4.85 1.055-4.85 2.11-4.85h3.166l1.055-2.425 1.055 7.275 1.055 2.426h6.33l1.056-2.426 1.055 2.426h3.165l1.055 2.425h3.166l1.055-2.425h2.11l1.055-2.426h1.055l1.056 2.426 1.055-2.426h3.165l1.055 2.426 1.055-4.85 1.055-2.426h1.056l1.055 2.425h2.11l1.055-2.425 1.055 4.85 1.055-7.275 1.055 2.425h3.166l1.055 2.425 1.055-7.275 1.055 9.7h4.22l1.056-2.425 1.055 7.276 1.055-4.85 1.055-2.426h3.166l1.055-4.85h1.055l2.11 4.85h3.166l1.055 7.276h1.055l1.055 2.425h4.22l1.056-4.85 1.055-2.426 1.055-12.125 1.055-21.827 1.055-4.85h3.165l1.056-12.126 2.11 19.401 3.165-21.826h1.055l1.055 14.55 1.056-7.275 2.11 24.252 2.11 14.55 2.11-19.4 1.055-2.426 2.11-24.251h2.111l1.055-14.551 1.055 7.275 1.055-4.85 1.056 4.85h3.165l1.055-16.976 1.055-7.276 1.055 16.977 1.055-33.953 1.056-4.85h2.11l1.055 7.275 1.055-19.401 1.055-29.102 1.055 21.826 1.055-16.976 1.056-12.126h1.055l1.055 4.85 1.055 9.701 1.055 14.551 1.055 19.402 1.055 33.952 1.055-36.377h2.11l1.056 2.425 1.055-12.126 1.055-38.803 1.055-58.204 1.055 21.826h1.055l1.056 7.276 1.055-12.126 1.055 14.551 1.055-4.85 1.055 36.377 1.055 26.677H495l1.055-7.275 1.056 7.275 1.055-4.85 1.055 43.653 1.055-19.401h2.11l1.055-31.528 1.055 4.85 1.056-48.503 1.055-12.126 1.055 41.228h2.11l1.055-7.275 1.055 4.85 1.056 19.402 1.055-14.551h3.165l1.055-7.276 1.055-31.527 1.055 12.126 1.056-9.701 1.055-29.102 1.055-24.252h1.055l1.055 26.677 1.055 16.976 1.055-2.425 1.055 12.126 1.056 4.85 1.055 24.252h1.055l1.055 53.354 1.055-24.252 1.055 12.126 1.055 14.551 1.055 16.976h2.11l1.056-75.18 1.055 41.228 1.055 9.7 1.055-4.85 1.055-31.527 1.055-12.126h1.056l1.055 75.18 1.055 9.701 1.055-48.503 1.055-4.85 1.055 21.826 1.055 12.126h1.055l1.056-38.803 1.055-16.976 1.055 50.928 2.11 9.701 1.055-16.976h1.055l1.055 38.803 1.056-16.976h1.055l1.055 7.275h1.055l1.055 16.976 1.055-16.976 1.055-9.7 1.056 19.4 1.055 2.426 1.055-24.252 1.055-9.7h1.055l1.055 16.976 1.055-29.102 1.055-9.701 1.056-4.85 1.055 24.251 1.055-12.126h2.11l1.055 4.85 1.055 14.552 1.055-4.85 1.056-26.677 1.055 21.826h2.11l1.055-21.826 1.055-7.276h1.055l1.055 26.677h3.166l1.055-2.425 2.11 4.85 1.055-12.126 1.055-4.85h1.056l1.055-21.827 1.055 31.528 1.055-4.85 1.055 9.7 1.055-24.252 1.055-4.85h1.055l1.056 21.826 1.055-14.55h1.055l2.11-12.127v21.827l1.055 9.7 1.055-2.424h1.055l1.056 16.976 2.11 14.55 1.055-7.275h1.055l1.055-9.7h1.055l1.056 16.976 1.055 9.7 1.055-2.425 1.055 12.126h1.055l1.055 12.126h1.055l1.055-7.275 1.056-4.85 2.11 14.55 1.055-9.7 1.055-2.426h1.055l1.055 9.701 1.055 4.85 1.056-7.275 1.055 4.85 1.055 16.977 1.055 2.425h1.055l1.055-4.85 1.055 2.425 1.055 12.125 2.11 9.701h2.11l1.056 9.7h1.055l1.055 2.426 1.055-2.425h5.276l2.11-4.85h6.331l1.055 4.85h4.22l1.056-7.276h6.33l1.056 7.276 1.055 2.425h8.44l1.056-9.7h5.276l1.055-2.426 1.055 9.7h6.33l1.056-2.424h4.22l2.11-4.85 1.056 2.424h4.22l1.055 2.426h1.055l1.056-14.551h2.11l1.055-50.93 1.055-4.85 1.055-2.425 1.055-12.125 1.055 2.425h2.11l1.056 33.952 1.055-2.425h1.055l1.055 12.126 1.055 9.7h2.11l1.056-7.275h1.055l1.055-12.126 1.055-9.7 1.055-2.426h3.166l1.055 2.425 1.055 12.126 2.11 9.701h2.11l1.056 19.401 1.055-4.85 2.11-4.85h3.165l1.055-12.126 1.056-7.276 1.055-12.126 1.055 7.276 1.055-12.126h2.11l1.055 16.976 1.055-12.126 1.056 2.426 1.055 4.85h3.165l1.055-21.827 1.055 21.827 1.055 4.85 1.056-19.401 1.055 2.425h2.11l1.055-9.7 1.055 4.85 1.055-2.425 1.055 7.275 1.056 2.425h2.11l1.055 21.827 1.055-4.85 2.11 4.85 1.056-2.425h3.165l1.055 2.425 1.055-4.85 1.055 9.7h0" style="fill:none;stroke:#0072b2;stroke-linecap:round;stroke-width:1.5" id="line2d_4"/><path d="M117 576.72V77.76" style="fill:none;stroke:#d3d3d3;stroke-linecap:square;stroke-linejoin:miter;stroke-width:1.25" id="patch_3"/><path d="M117 576.72h725.4" style="fill:none;stroke:#d3d3d3;stroke-linecap:square;stroke-linejoin:miter;stroke-width:1.25" id="patch_4"/><g id="matplotlib.axis_1"><g id="xtick_1"><g style="fill:#696969" transform="matrix(.16 0 0 -.16 116.538 598.378)" id="text_1"><defs><path d="M9.813 72.906h9.859V5.078q0-13.187-5-19.14-5-5.954-16.094-5.954h-3.75v8.297h3.078q6.531 0 9.219 3.672Q9.813-4.39 9.813 5.078z" id="DejaVuSans-74"/><path d="M34.281 27.484q-10.89 0-15.093-2.484-4.204-2.484-4.204-8.5 0-4.781 3.157-7.594 3.156-2.797 8.562-2.797 7.485 0 12 5.297 4.516 5.297 4.516 14.078v2zm17.922 3.72V0H43.22v8.297Q40.14 3.328 35.547.953q-4.594-2.375-11.234-2.375-8.391 0-13.36 4.719Q6 8.016 6 15.922q0 9.219 6.172 13.906 6.187 4.688 18.437 4.688h12.61v.89q0 6.203-4.078 9.594-4.078 3.39-11.453 3.39-4.688 0-9.141-1.124-4.438-1.125-8.531-3.375v8.312q4.921 1.906 9.562 2.844 4.64.953 9.031.953 11.875 0 17.735-6.156 5.86-6.14 5.86-18.64z" id="DejaVuSans-97"/><path d="M54.89 33.016V0h-8.984v32.719q0 7.765-3.031 11.61-3.031 3.858-9.078 3.858-7.281 0-11.484-4.64-4.204-4.625-4.204-12.64V0H9.08v54.688h9.03v-8.5q3.235 4.937 7.594 7.374Q30.078 56 35.797 56q9.422 0 14.25-5.828 4.844-5.828 4.844-17.156z" id="DejaVuSans-110"/></defs><use xlink:href="#DejaVuSans-74"/><use x="29.492" xlink:href="#DejaVuSans-97"/><use x="90.771" xlink:href="#DejaVuSans-110"/></g></g><g id="xtick_2"><g style="fill:#696969" transform="matrix(.16 0 0 -.16 177.084 598.378)" id="text_2"><defs><path d="M9.813 72.906h14.703l18.593-49.61 18.703 49.61h14.704V0H66.89v64.016l-18.797-50h-9.907l-18.796 50V0H9.813z" id="DejaVuSans-77"/><path d="M41.11 46.297q-1.516.875-3.297 1.281Q36.03 48 33.89 48q-7.625 0-11.703-4.953-4.079-4.953-4.079-14.234V0H9.08v54.688h9.03v-8.5q2.844 4.984 7.375 7.39Q30.031 56 36.531 56q.922 0 2.047-.125 1.125-.11 2.484-.36z" id="DejaVuSans-114"/></defs><use xlink:href="#DejaVuSans-77"/><use x="86.279" xlink:href="#DejaVuSans-97"/><use x="147.559" xlink:href="#DejaVuSans-114"/></g></g><g id="xtick_3"><g style="fill:#696969" transform="matrix(.16 0 0 -.16 240 598.378)" id="text_3"><defs><path d="M32.172-5.078q-3.797-9.766-7.422-12.735-3.61-2.984-9.656-2.984H7.906v7.516h5.282q3.703 0 5.75 1.765Q21-9.766 23.483-3.219l1.61 4.094-22.11 53.813H12.5l17.094-42.766 17.093 42.766h9.516z" id="DejaVuSans-121"/></defs><use xlink:href="#DejaVuSans-77"/><use x="86.279" xlink:href="#DejaVuSans-97"/><use x="147.559" xlink:href="#DejaVuSans-121"/></g></g><g id="xtick_4"><g style="fill:#696969" transform="matrix(.16 0 0 -.16 311.25 598.378)" id="text_4"><defs><path d="M8.5 21.578v33.11h8.984V21.922q0-7.766 3.016-11.656 3.031-3.875 9.094-3.875 7.265 0 11.484 4.64 4.234 4.64 4.234 12.656v31h8.985V0h-8.984v8.406Q42.047 3.422 37.718 1q-4.313-2.422-10.032-2.422-9.421 0-14.312 5.86Q8.5 10.296 8.5 21.578zM31.11 56z" id="DejaVuSans-117"/><path d="M9.422 75.984h8.984V0H9.422z" id="DejaVuSans-108"/></defs><use xlink:href="#DejaVuSans-74"/><use x="29.492" xlink:href="#DejaVuSans-117"/><use x="92.871" xlink:href="#DejaVuSans-108"/></g></g><g id="xtick_5"><g style="fill:#696969" transform="matrix(.16 0 0 -.16 371.241 598.378)" id="text_5"><defs><path d="M53.516 70.516V60.89q-5.61 2.687-10.594 4-4.984 1.328-9.625 1.328-8.047 0-12.422-3.125t-4.375-8.89q0-4.845 2.906-7.313 2.907-2.453 11.016-3.97l5.953-1.218q11.031-2.11 16.281-7.406 5.25-5.297 5.25-14.172 0-10.61-7.11-16.078-7.093-5.469-20.812-5.469-5.172 0-11.015 1.172Q13.14.922 6.89 3.219v10.156q6-3.36 11.765-5.078 5.766-1.703 11.328-1.703 8.438 0 13.032 3.312 4.593 3.328 4.593 9.485 0 5.359-3.297 8.39-3.296 3.032-10.812 4.547L27.484 33.5q-11.03 2.188-15.968 6.875-4.922 4.688-4.922 13.047 0 9.672 6.812 15.234 6.813 5.563 18.766 5.563 5.14 0 10.453-.938 5.328-.922 10.89-2.765z" id="DejaVuSans-83"/><path d="M56.203 29.594v-4.39H14.891q.593-9.282 5.593-14.142 5-4.859 13.938-4.859 5.172 0 10.031 1.266 4.86 1.265 9.656 3.812v-8.5Q49.266.734 44.187-.344 39.11-1.422 33.892-1.422q-13.094 0-20.735 7.61-7.64 7.625-7.64 20.625 0 13.421 7.25 21.296Q20.016 56 32.328 56q11.031 0 17.453-7.11 6.422-7.093 6.422-19.296zm-8.984 2.64q-.094 7.36-4.125 11.75-4.032 4.407-10.672 4.407-7.516 0-12.031-4.25-4.516-4.25-5.203-11.97z" id="DejaVuSans-101"/><path d="M18.11 8.203v-29H9.077v75.484h9.031v-8.296q2.844 4.875 7.157 7.234Q29.594 56 35.594 56q9.968 0 16.187-7.906 6.235-7.907 6.235-20.797T51.78 6.484q-6.218-7.906-16.187-7.906-6 0-10.328 2.375-4.313 2.375-7.157 7.25zm30.578 19.094q0 9.906-4.079 15.547-4.078 5.64-11.203 5.64-7.14 0-11.218-5.64-4.079-5.64-4.079-15.547 0-9.906 4.078-15.547 4.079-5.64 11.22-5.64 7.124 0 11.202 5.64t4.078 15.547z" id="DejaVuSans-112"/></defs><use xlink:href="#DejaVuSans-83"/><use x="63.477" xlink:href="#DejaVuSans-101"/><use x="125" xlink:href="#DejaVuSans-112"/></g></g><g id="xtick_6"><g style="fill:#696969" transform="matrix(.16 0 0 -.16 435.069 598.378)" id="text_6"><defs><path d="M9.813 72.906h13.28l32.329-60.984v60.984h9.562V0h-13.28L19.39 60.984V0H9.813z" id="DejaVuSans-78"/><path d="M30.61 48.39q-7.22 0-11.422-5.64-4.204-5.64-4.204-15.453 0-9.813 4.172-15.453 4.188-5.64 11.453-5.64 7.188 0 11.375 5.655 4.203 5.672 4.203 15.438 0 9.719-4.203 15.406-4.187 5.688-11.375 5.688zm0 7.61q11.718 0 18.406-7.625 6.703-7.61 6.703-21.078 0-13.422-6.703-21.078-6.688-7.64-18.407-7.64-11.765 0-18.437 7.64-6.656 7.656-6.656 21.078 0 13.469 6.656 21.078Q18.844 56 30.609 56z" id="DejaVuSans-111"/><path d="M2.984 54.688H12.5L29.594 8.797l17.093 45.89h9.516L35.687 0H23.485z" id="DejaVuSans-118"/></defs><use xlink:href="#DejaVuSans-78"/><use x="74.805" xlink:href="#DejaVuSans-111"/><use x="135.986" xlink:href="#DejaVuSans-118"/></g></g><g id="xtick_7"><g style="fill:#696969" transform="matrix(.16 0 0 -.16 502.714 598.378)" id="text_7"><use xlink:href="#DejaVuSans-74"/><use x="29.492" xlink:href="#DejaVuSans-97"/><use x="90.771" xlink:href="#DejaVuSans-110"/></g></g><g id="xtick_8"><g style="fill:#696969" transform="matrix(.16 0 0 -.16 562.206 598.378)" id="text_8"><use xlink:href="#DejaVuSans-77"/><use x="86.279" xlink:href="#DejaVuSans-97"/><use x="147.559" xlink:href="#DejaVuSans-114"/></g></g><g id="xtick_9"><g style="fill:#696969" transform="matrix(.16 0 0 -.16 625.122 598.378)" id="text_9"><use xlink:href="#DejaVuSans-77"/><use x="86.279" xlink:href="#DejaVuSans-97"/><use x="147.559" xlink:href="#DejaVuSans-121"/></g></g><g id="xtick_10"><g style="fill:#696969" transform="matrix(.16 0 0 -.16 696.372 598.378)" id="text_10"><use xlink:href="#DejaVuSans-74"/><use x="29.492" xlink:href="#DejaVuSans-117"/><use x="92.871" xlink:href="#DejaVuSans-108"/></g></g><g id="xtick_11"><g style="fill:#696969" transform="matrix(.16 0 0 -.16 756.363 598.378)" id="text_11"><use xlink:href="#DejaVuSans-83"/><use x="63.477" xlink:href="#DejaVuSans-101"/><use x="125" xlink:href="#DejaVuSans-112"/></g></g><g id="xtick_12"><g style="fill:#696969" transform="matrix(.16 0 0 -.16 820.19 598.378)" id="text_12"><use xlink:href="#DejaVuSans-78"/><use x="74.805" xlink:href="#DejaVuSans-111"/><use x="135.986" xlink:href="#DejaVuSans-118"/></g></g></g><g id="matplotlib.axis_2"><g id="ytick_1"><g style="fill:#696969" transform="matrix(.16 0 0 -.16 97.32 560.119)" id="text_13"><defs><path d="M31.781 66.406q-7.61 0-11.453-7.5Q16.5 51.422 16.5 36.375q0-14.984 3.828-22.484 3.844-7.5 11.453-7.5 7.672 0 11.5 7.5 3.844 7.5 3.844 22.484 0 15.047-3.844 22.531-3.828 7.5-11.5 7.5zm0 7.813q12.266 0 18.735-9.703 6.468-9.688 6.468-28.141 0-18.406-6.468-28.11-6.47-9.687-18.735-9.687-12.25 0-18.718 9.688-6.47 9.703-6.47 28.109 0 18.453 6.47 28.14Q19.53 74.22 31.78 74.22z" id="DejaVuSans-48"/></defs><use xlink:href="#DejaVuSans-48"/></g></g><g id="ytick_2"><g style="fill:#696969" transform="matrix(.16 0 0 -.16 87.14 497.976)" id="text_14"><defs><path d="M19.188 8.297h34.421V0H7.33v8.297q5.609 5.812 15.296 15.594 9.703 9.797 12.188 12.64 4.734 5.313 6.609 9 1.89 3.688 1.89 7.25 0 5.813-4.078 9.469-4.078 3.672-10.625 3.672-4.64 0-9.797-1.61-5.14-1.609-11-4.89v9.969Q13.767 71.78 18.938 73q5.188 1.219 9.485 1.219 11.328 0 18.062-5.672 6.735-5.656 6.735-15.125 0-4.5-1.688-8.531-1.672-4.016-6.125-9.485-1.218-1.422-7.765-8.187-6.532-6.766-18.453-18.922z" id="DejaVuSans-50"/></defs><use xlink:href="#DejaVuSans-50"/><use x="63.623" xlink:href="#DejaVuSans-48"/></g></g><g id="ytick_3"><g style="fill:#696969" transform="matrix(.16 0 0 -.16 87.14 435.832)" id="text_15"><defs><path d="M37.797 64.313 12.89 25.39h24.906zm-2.594 8.593H47.61V25.391h10.407v-8.203H47.609V0h-9.812v17.188H4.89v9.515z" id="DejaVuSans-52"/></defs><use xlink:href="#DejaVuSans-52"/><use x="63.623" xlink:href="#DejaVuSans-48"/></g></g><g id="ytick_4"><g style="fill:#696969" transform="matrix(.16 0 0 -.16 87.14 373.69)" id="text_16"><defs><path d="M33.016 40.375q-6.641 0-10.532-4.547-3.875-4.531-3.875-12.437 0-7.86 3.875-12.438 3.891-4.562 10.532-4.562 6.64 0 10.515 4.562 3.875 4.578 3.875 12.438 0 7.906-3.875 12.437-3.875 4.547-10.515 4.547zm19.578 30.922v-8.984q-3.719 1.75-7.5 2.671-3.782.938-7.5.938-9.766 0-14.922-6.594-5.14-6.594-5.875-19.922 2.875 4.25 7.219 6.516 4.359 2.266 9.578 2.266 10.984 0 17.36-6.672 6.374-6.657 6.374-18.125 0-11.235-6.64-18.032-6.641-6.78-17.672-6.78-12.657 0-19.344 9.687-6.688 9.703-6.688 28.109 0 17.281 8.204 27.563 8.203 10.28 22.015 10.28 3.719 0 7.5-.734t7.89-2.187z" id="DejaVuSans-54"/></defs><use xlink:href="#DejaVuSans-54"/><use x="63.623" xlink:href="#DejaVuSans-48"/></g></g><g id="ytick_5"><g style="fill:#696969" transform="matrix(.16 0 0 -.16 87.14 311.546)" id="text_17"><defs><path d="M31.781 34.625q-7.031 0-11.062-3.766-4.016-3.765-4.016-10.343 0-6.594 4.016-10.36Q24.75 6.391 31.78 6.391q7.032 0 11.078 3.78 4.063 3.798 4.063 10.345 0 6.578-4.031 10.343-4.016 3.766-11.11 3.766zm-9.86 4.188q-6.343 1.562-9.89 5.906Q8.5 49.079 8.5 55.329q0 8.733 6.219 13.812 6.234 5.078 17.062 5.078 10.89 0 17.094-5.078 6.203-5.079 6.203-13.813 0-6.25-3.547-10.61-3.531-4.343-9.828-5.906 7.125-1.656 11.094-6.5 3.984-4.828 3.984-11.796 0-10.61-6.468-16.282-6.47-5.656-18.532-5.656-12.047 0-18.531 5.656-6.469 5.672-6.469 16.282 0 6.968 4 11.797 4.016 4.843 11.14 6.5zM18.314 54.39q0-5.657 3.53-8.828 3.548-3.172 9.938-3.172 6.36 0 9.938 3.172 3.593 3.171 3.593 8.828 0 5.672-3.593 8.843-3.578 3.172-9.938 3.172-6.39 0-9.937-3.172-3.532-3.172-3.532-8.843z" id="DejaVuSans-56"/></defs><use xlink:href="#DejaVuSans-56"/><use x="63.623" xlink:href="#DejaVuSans-48"/></g></g><g id="ytick_6"><g style="fill:#696969" transform="matrix(.16 0 0 -.16 76.96 249.403)" id="text_18"><defs><path d="M12.406 8.297h16.11v55.625l-17.532-3.516v8.985l17.438 3.515h9.86V8.296H54.39V0H12.406z" id="DejaVuSans-49"/></defs><use xlink:href="#DejaVuSans-49"/><use x="63.623" xlink:href="#DejaVuSans-48"/><use x="127.246" xlink:href="#DejaVuSans-48"/></g></g><g id="ytick_7"><g style="fill:#696969" transform="matrix(.16 0 0 -.16 76.96 187.26)" id="text_19"><use xlink:href="#DejaVuSans-49"/><use x="63.623" xlink:href="#DejaVuSans-50"/><use x="127.246" xlink:href="#DejaVuSans-48"/></g></g><g id="ytick_8"><g style="fill:#696969" transform="matrix(.16 0 0 -.16 76.96 125.117)" id="text_20"><use xlink:href="#DejaVuSans-49"/><use x="63.623" xlink:href="#DejaVuSans-52"/><use x="127.246" xlink:href="#DejaVuSans-48"/></g></g><g style="fill:#696969" transform="matrix(0 -.2 -.2 0 68.8 379.813)" id="text_21"><defs><path d="M51.125 44H36.922l-4.11-16.313h14.313zm-7.328 27.781-5.078-20.265h14.265L58.11 71.78h7.813L60.89 51.516h15.234V44h-17.14l-4-16.313h15.53V20.22H53.079L48 0h-7.813l5.032 20.219H30.906L25.875 0h-7.86l5.079 20.219H7.719v7.468h17.187L29 44H13.281v7.516h17.625l4.985 20.265z" id="DejaVuSans-35"/><path d="M37.11 75.984V68.5h-8.594q-4.828 0-6.72-1.953-1.874-1.953-1.874-7.031v-4.828h14.797v-6.985H19.922V0H10.89v47.703H2.297v6.984h8.594V58.5q0 9.125 4.25 13.297 4.25 4.187 13.468 4.187z" id="DejaVuSans-102"/><path d="M48.781 52.594v-8.407q-3.812 2.11-7.64 3.157-3.828 1.047-7.735 1.047-8.75 0-13.593-5.547-4.829-5.532-4.829-15.547 0-10.016 4.829-15.563 4.843-5.53 13.593-5.53 3.907 0 7.735 1.046 3.828 1.047 7.64 3.156V2.094Q45.016.344 40.984-.531q-4.015-.89-8.562-.89-12.36 0-19.64 7.765-7.266 7.765-7.266 20.953 0 13.375 7.343 21.031Q20.22 56 33.016 56q4.14 0 8.093-.86 3.953-.843 7.672-2.546z" id="DejaVuSans-99"/><path d="M44.281 53.078v-8.5q-3.797 1.953-7.906 2.922-4.094.984-8.5.984-6.688 0-10.031-2.047-3.344-2.046-3.344-6.156 0-3.125 2.39-4.906 2.391-1.781 9.626-3.39l3.078-.688q9.562-2.047 13.593-5.781 4.032-3.735 4.032-10.422 0-7.625-6.032-12.078-6.03-4.438-16.578-4.438-4.39 0-9.156.86Q10.688.296 5.422 2v9.281q4.984-2.594 9.812-3.89 4.829-1.282 9.579-1.282 6.343 0 9.75 2.172 3.421 2.172 3.421 6.125 0 3.656-2.468 5.61-2.453 1.953-10.813 3.765l-3.125.735q-8.344 1.75-12.062 5.39-3.704 3.64-3.704 9.985 0 7.718 5.47 11.906Q16.75 56 26.811 56q4.97 0 9.36-.734 4.406-.72 8.11-2.188z" id="DejaVuSans-115"/></defs><use xlink:href="#DejaVuSans-35"/><use x="83.789" xlink:href="#DejaVuSans-32"/><use x="115.576" xlink:href="#DejaVuSans-111"/><use x="176.758" xlink:href="#DejaVuSans-102"/><use x="211.963" xlink:href="#DejaVuSans-32"/><use x="243.75" xlink:href="#DejaVuSans-99"/><use x="298.73" xlink:href="#DejaVuSans-97"/><use x="360.01" xlink:href="#DejaVuSans-115"/><use x="412.109" xlink:href="#DejaVuSans-101"/><use x="473.633" xlink:href="#DejaVuSans-115"/></g></g><g style="fill:#696969" transform="matrix(.24 0 0 -.24 209.887 71.76)" id="text_22"><defs><path d="M4.203 54.688h8.985l11.234-42.672 11.172 42.672h10.593l11.235-42.672 11.187 42.672h8.985L63.28 0H52.688L40.922 44.828 29.109 0H18.5z" id="DejaVuSans-119"/><path d="M64.406 67.281v-10.39q-4.984 4.64-10.625 6.922-5.64 2.296-11.984 2.296-12.5 0-19.14-7.64-6.641-7.64-6.641-22.094 0-14.406 6.64-22.047 6.64-7.64 19.14-7.64 6.345 0 11.985 2.296 5.64 2.297 10.625 6.938V5.609Q59.234 2.094 53.437.33q-5.78-1.75-12.218-1.75-16.563 0-26.094 10.124-9.516 10.14-9.516 27.672 0 17.578 9.516 27.703 9.531 10.14 26.094 10.14 6.531 0 12.312-1.734 5.797-1.734 10.875-5.203z" id="DejaVuSans-67"/><path d="M25.39 72.906h8.297L8.297-9.28H0z" id="DejaVuSans-47"/><path d="M9.813 72.906h9.859V42.094L52.39 72.906h12.703L28.906 38.922 67.672 0H54.688L19.672 35.11V0h-9.86z" id="DejaVuSans-75"/><path d="M9.422 54.688h8.984V0H9.422zm0 21.296h8.984v-11.39H9.422z" id="DejaVuSans-105"/><path d="M45.406 46.39v29.594h8.985V0h-8.985v8.203Q42.578 3.328 38.25.953q-4.313-2.375-10.375-2.375-9.906 0-16.14 7.906-6.22 7.922-6.22 20.813 0 12.89 6.22 20.797Q17.968 56 27.874 56q6.063 0 10.375-2.375 4.328-2.36 7.156-7.234zm-30.61-19.093q0-9.906 4.079-15.547 4.078-5.64 11.203-5.64 7.125 0 11.219 5.64 4.11 5.64 4.11 15.547 0 9.906-4.11 15.547-4.094 5.64-11.219 5.64-7.125 0-11.203-5.64-4.078-5.64-4.078-15.547z" id="DejaVuSans-100"/><path d="M18.313 70.219V54.688h18.5v-6.985h-18.5V18.016q0-6.688 1.828-8.594 1.828-1.906 7.453-1.906h9.218V0h-9.218q-10.407 0-14.36 3.875-3.953 3.89-3.953 14.14v29.688H2.687v6.984h6.594V70.22z" id="DejaVuSans-116"/><path d="M4.89 31.39h26.313v-8H4.891z" id="DejaVuSans-45"/><path d="M8.203 72.906h46.875v-4.203L28.61 0H18.312L43.22 64.594H8.203z" id="DejaVuSans-55"/><path d="M45.406 27.984q0 9.766-4.031 15.125-4.016 5.375-11.297 5.375-7.219 0-11.25-5.375-4.031-5.359-4.031-15.125 0-9.718 4.031-15.093t11.25-5.375q7.281 0 11.297 5.375 4.031 5.375 4.031 15.093zm8.985-21.203q0-13.953-6.203-20.765Q42-20.797 29.203-20.797q-4.734 0-8.937.703-4.203.703-8.157 2.172v8.735q3.954-2.141 7.813-3.157 3.86-1.031 7.86-1.031 8.843 0 13.234 4.61 4.39 4.609 4.39 13.937v4.453q-2.781-4.844-7.125-7.234Q33.938 0 27.875 0 17.828 0 11.672 7.656q-6.156 7.672-6.156 20.328 0 12.688 6.156 20.344Q17.828 56 27.875 56q6.063 0 10.406-2.39 4.344-2.391 7.125-7.22v8.297h8.985z" id="DejaVuSans-103"/></defs><use xlink:href="#DejaVuSans-78"/><use x="74.805" xlink:href="#DejaVuSans-101"/><use x="136.328" xlink:href="#DejaVuSans-119"/><use x="218.115" xlink:href="#DejaVuSans-32"/><use x="249.902" xlink:href="#DejaVuSans-67"/><use x="319.727" xlink:href="#DejaVuSans-97"/><use x="381.006" xlink:href="#DejaVuSans-115"/><use x="433.105" xlink:href="#DejaVuSans-101"/><use x="494.629" xlink:href="#DejaVuSans-115"/><use x="546.729" xlink:href="#DejaVuSans-32"/><use x="578.516" xlink:href="#DejaVuSans-47"/><use x="612.207" xlink:href="#DejaVuSans-32"/><use x="643.994" xlink:href="#DejaVuSans-49"/><use x="707.617" xlink:href="#DejaVuSans-48"/><use x="771.24" xlink:href="#DejaVuSans-48"/><use x="834.863" xlink:href="#DejaVuSans-75"/><use x="900.439" xlink:href="#DejaVuSans-32"/><use x="932.227" xlink:href="#DejaVuSans-114"/><use x="971.09" xlink:href="#DejaVuSans-101"/><use x="1032.613" xlink:href="#DejaVuSans-115"/><use x="1084.713" xlink:href="#DejaVuSans-105"/><use x="1112.496" xlink:href="#DejaVuSans-100"/><use x="1175.973" xlink:href="#DejaVuSans-101"/><use x="1237.496" xlink:href="#DejaVuSans-110"/><use x="1300.875" xlink:href="#DejaVuSans-116"/><use x="1340.084" xlink:href="#DejaVuSans-115"/><use x="1392.184" xlink:href="#DejaVuSans-32"/><use x="1423.971" xlink:href="#DejaVuSans-45"/><use x="1460.055" xlink:href="#DejaVuSans-45"/><use x="1496.139" xlink:href="#DejaVuSans-32"/><use x="1527.926" xlink:href="#DejaVuSans-55"/><use x="1591.549" xlink:href="#DejaVuSans-32"/><use x="1623.336" xlink:href="#DejaVuSans-100"/><use x="1686.813" xlink:href="#DejaVuSans-97"/><use x="1748.092" xlink:href="#DejaVuSans-121"/><use x="1807.271" xlink:href="#DejaVuSans-32"/><use x="1839.059" xlink:href="#DejaVuSans-97"/><use x="1900.338" xlink:href="#DejaVuSans-118"/><use x="1959.518" xlink:href="#DejaVuSans-101"/><use x="2021.041" xlink:href="#DejaVuSans-114"/><use x="2062.154" xlink:href="#DejaVuSans-97"/><use x="2123.434" xlink:href="#DejaVuSans-103"/><use x="2186.91" xlink:href="#DejaVuSans-101"/></g><g id="legend_1"><path d="M694.75 184.5H831.2q3.2 0 3.2-3.2V88.96q0-3.2-3.2-3.2H694.75q-3.2 0-3.2 3.2v92.34q0 3.2 3.2 3.2z" style="fill:none;opacity:.8;stroke:#ccc;stroke-linejoin:miter" id="patch_5"/><path d="M697.95 98.718h32" style="fill:none;stroke:#000;stroke-linecap:round;stroke-width:1.5" id="line2d_5"/><g style="fill:#696969" transform="matrix(.16 0 0 -.16 742.75 104.317)" id="text_23"><defs><path d="M8.688 72.906h9.921V28.61q0-11.718 4.235-16.875 4.25-5.14 13.781-5.14 9.469 0 13.719 5.14 4.25 5.157 4.25 16.875v44.297H64.5V27.391q0-14.25-7.063-21.532-7.046-7.28-20.812-7.28-13.828 0-20.89 7.28-7.047 7.282-7.047 21.532z" id="DejaVuSans-85"/></defs><use xlink:href="#DejaVuSans-85"/><use x="73.193" xlink:href="#DejaVuSans-83"/></g><path d="M697.95 122.203h32" style="fill:none;stroke:#009e73;stroke-linecap:round;stroke-width:1.5" id="line2d_7"/><g style="fill:#696969" transform="matrix(.16 0 0 -.16 742.75 127.802)" id="text_24"><use xlink:href="#DejaVuSans-78"/><use x="74.805" xlink:href="#DejaVuSans-74"/></g><path d="M697.95 145.688h32" style="fill:none;stroke:#d55e00;stroke-linecap:round;stroke-width:1.5" id="line2d_9"/><g style="fill:#696969" transform="matrix(.16 0 0 -.16 742.75 151.287)" id="text_25"><defs><path d="M19.672 34.813V8.108H35.5q7.953 0 11.781 3.297 3.844 3.297 3.844 10.078 0 6.844-3.844 10.078-3.828 3.25-11.781 3.25zm0 29.984V42.828h14.61q7.218 0 10.75 2.703 3.546 2.719 3.546 8.282 0 5.515-3.547 8.25-3.531 2.734-10.75 2.734zm-9.86 8.11h25.204q11.28 0 17.375-4.688Q58.5 63.53 58.5 54.89q0-6.703-3.125-10.657-3.125-3.953-9.188-4.922 7.282-1.562 11.313-6.53 4.031-4.954 4.031-12.376 0-9.765-6.64-15.093Q48.25 0 35.984 0H9.812z" id="DejaVuSans-66"/></defs><use xlink:href="#DejaVuSans-66"/><use x="68.604" xlink:href="#DejaVuSans-101"/><use x="130.127" xlink:href="#DejaVuSans-114"/><use x="169.49" xlink:href="#DejaVuSans-103"/><use x="232.967" xlink:href="#DejaVuSans-101"/><use x="294.49" xlink:href="#DejaVuSans-110"/></g><path d="M697.95 169.173h32" style="fill:none;stroke:#0072b2;stroke-linecap:round;stroke-width:1.5" id="line2d_11"/><g style="fill:#696969" transform="matrix(.16 0 0 -.16 742.75 174.773)" id="text_26"><defs><path d="M44.39 34.188q3.172-1.079 6.172-4.594 3-3.516 6.032-9.672L66.609 0H56l-9.313 18.703q-3.624 7.328-7.015 9.719-3.39 2.39-9.25 2.39h-10.75V0h-9.86v72.906h22.266q12.5 0 18.656-5.234 6.157-5.219 6.157-15.766 0-6.89-3.203-11.437-3.204-4.532-9.297-6.282zM19.673 64.797V38.922h12.406q7.125 0 10.766 3.297 3.64 3.297 3.64 9.687 0 6.39-3.64 9.64-3.64 3.25-10.766 3.25z" id="DejaVuSans-82"/><path d="M54.89 33.016V0h-8.984v32.719q0 7.765-3.031 11.61-3.031 3.858-9.078 3.858-7.281 0-11.484-4.64-4.204-4.625-4.204-12.64V0H9.08v75.984h9.03V46.188q3.235 4.937 7.594 7.374Q30.078 56 35.797 56q9.422 0 14.25-5.828 4.844-5.828 4.844-17.156z" id="DejaVuSans-104"/></defs><use xlink:href="#DejaVuSans-82"/><use x="64.982" xlink:href="#DejaVuSans-117"/><use x="128.361" xlink:href="#DejaVuSans-116"/><use x="167.57" xlink:href="#DejaVuSans-104"/><use x="230.949" xlink:href="#DejaVuSans-101"/><use x="292.473" xlink:href="#DejaVuSans-114"/><use x="333.586" xlink:href="#DejaVuSans-102"/><use x="368.791" xlink:href="#DejaVuSans-111"/><use x="429.973" xlink:href="#DejaVuSans-114"/><use x="469.336" xlink:href="#DejaVuSans-100"/></g></g></g></g><defs><clipPath id="pd00e245a96"><path d="M117 77.76h725.4v498.96H117z"/></clipPath></defs></svg>