<svg height="864" viewBox="0 0 936 648" width="1248" xmlns="http://www.w3.org/2000/svg" xmlns:xlink="http://www.w3.org/1999/xlink"><defs><style>*{stroke-linecap:butt;stroke-linejoin:round}</style></defs><g id="figure_1"><path d="M0 648h936V0H0z" style="fill:#fff" id="patch_1"/><g id="axes_1"><path d="M117 576.72h725.4V77.76H117z" style="fill:none" id="patch_2"/><path clip-path="url(#pdc1a4fd7f5)" d="m149.973 554.04 37.974-.102 2.779-.136 1.852-.275 1.852-.43 1.853-.592 1.852-.898 1.853-1.078 1.852-1.113 2.779-2.125 1.852-1.604 1.852-1.089 1.853-1.076 1.852-.981 1.853-.56 2.778-.277 1.853-.032.926.195 1.852.11 1.853.226.926.027 1.852-.173 2.779.146 1.852.137 2.779-.126 1.852.21 1.853.28 2.778.726 2.779.387.926.098 2.779.6 1.852.083 2.779.233 1.852.084.926-.043 3.705.346 4.631.053.926.12.926-.143 10.189-.183 4.63-.914 1.853-.827 1.852-.931 5.558-3.614 1.852-1.56 3.705-2.096 2.778-1.852 6.484-3.72.926-.361.926-.508 2.779-.988.926-.293 1.852-.33 2.779.246.926.045.926.196 1.853.216 2.778 1.033 1.853.827 1.852.693.926.166 4.631 1.705 1.853.427 3.705 1.232 4.63 1.724 4.632 1.31 1.852.006.926.306 3.705.049.926.442 2.779.863.926-.029.926.16 1.853-.01.926.141.926-.198 2.779.138.926-.185.926-.864 3.705-.893 4.63-.444 1.853-.168.926-.173.927.037 2.778-.707.926-.325.927-.127 3.704-1.096 2.779-1.555.926-.144.926-.372.927-.088.926-.514.926-.325.926-.544 1.853-1.545.926-.433.926-.772 1.852-1.219 1.853-1.587 1.852-1.675 1.853-1.751 2.778-3.99 2.779-4.26 2.778-5.782 1.853-4.537.926-1.77 1.852-4.11 2.779-5.697.926-1.334.926-1.084.927-1.426 1.852-2.2.926 1.76.926-.706.927.221 1.852-.059.926-.655 2.779-2.658 1.852-1.882.926-.722 1.853-2.349.926-3.545.926-2.166.926-1.627.927-1.395.926-.964.926-.549.926-1.266 1.853-1.154.926.342.926-.232.926.088.926.524.927-.234.926.92.926 5.209.926-.271.926.932.927.344.926.062.926.46.926.194.926 3.015.927-2.834.926-.634.926-1.46 1.852-1.785.927-2.518.926-5.796.926-1.017.926-1.63.926-1.082.927-.84.926-.01.926-.247.926-2.686.926 2.593.927.92.926 3.21.926 1.394.926 2.044.926 2.606.927 3.167 1.852 4.717.926 2.022 1.853 4.435 2.778 6.293.926 1.633.927-.021 1.852 3.973 2.779 5.507.926 1.23.926 1.844 1.852 3.336 2.779 5.066.926 1.45.926 2.512 3.705 5.977 2.779 2.924 3.705 2.736.926.637.926.374.926-.042 1.853.303.926.131 2.778 1.177.927-1.017 3.704 1.789 1.853.755 1.852.076 2.779.568 1.852.233.926 1.154.927-.025.926-.63 1.852-.494.926-.323.927-.19.926-.393 1.852-.485.926-.485 2.779-.589.926-.634.926-.152.927.198.926-.33 1.852-.322 1.853-.135.926-.438.926-.227.926.102.926-.283.927.297.926-.132.926.183.926.028 1.853.72 1.852.93.926.417 2.779 2.059 2.778 1.307.927.34 2.778 1.688 2.779 1.497 1.852.64 4.631 2.597.926.375.927.601 1.852.842 2.779 1.505 1.852.555 2.779.985 1.852 1.057.926.27.926.687.927.153 1.852.64.926 1.538 3.705.89.926.08.926.346 1.853.246.926.019.926-.28.926.311.927.071.926.211.926-1.064 8.336.69 1.852-.125.926-.045.927-1.53.926-.225 1.852.137.926.326 1.853-.884.926-1.002.926-.59 1.853-.071.926-.575.926-.79.926-.641.926.84.927-.923 1.852-.422.926-1.583 1.853-1.874.926-.472.926-1.384.926-.401.926-.24 3.705-6.692.926-2.043 1.853-.903.926-2.233.926-2.558.926-1.524.927-1.783.926-2.473 1.852-1.24.926-2.483.927-1.603.926-2.048.926-1.172.926-1.877 1.853-1.19.926-3.577.926.174.926-1.516 2.779-2.938.926-.13.926-2.537.926.345.927-.446.926-1.422.926-.247.926-1.028.926.048.927-.607.926-.462.926-1.346.926-.462.926.236.927.387.926-.112.926 5.487.926-4.378.926-.385 2.779 1.396.926.075.926-.135.927.22.926 1.183 1.852 1.315.926-.062.927.13.926-3.805.926 4.964.926 1.064.926 1.239.927 1.053.926.648.926.154.926 2.618 3.705 4.666.926.695.926.41 1.853 1.938 1.852 1.276.926.785 1.853.739.926 2.062.926.051.926.637 1.853 1.58.926.31.926.106.926 1.47.927.432.926 1.14 1.852 1.424 1.853.39.926.526.926.7.926.349.926.08.927.286 1.852.215.926-.074.926.195 1.853.019 2.778-.336.927-.606.926.129.926-.131.926.626.926-1.178.927-.928.926-.137.926-.698.926-.392 2.779-2.453 1.852-.534.926-.941.927-.284.926-.604.926.978.926 2.258.926 1.065.927-.01.926-1.963.926-.546 1.852-1.549.927-.974.926-.495.926-.093.926-1.118.926-.616.927-.845.926-2.687.926-3.293.926-.774.926-.36.927.39 2.778-.613 1.853-.998.926-1.1.926-3.058.926-2.189.926-2.745.927-4.11.926-.547.926-.203.926-4.448.926-9.88.927-7.652.926-9.971.926-12.725.926-8.021.926-2.472.927-6.211 1.852-40.966 1.852-27.679.927-20.77.926-11.25.926-3.646.926-25.825 1.853-22.635.926-8.374.926-14.115h0" style="fill:none;stroke:#000;stroke-linecap:round;stroke-width:1.5" id="line2d_1"/><path clip-path="url(#pdc1a4fd7f5)" d="m149.973 554.04 37.974-.105 2.779-.352.926-.329.926-.17.926-.471.926-.618 1.853-1.877.926-.77.926-2.646.926-2.066 1.853-4.836.926-3.4.926-2.109 2.779-11.329.926-4.06 1.852-5.85 1.853-5.132.926-1.196.926-1.727 1.853-2.895.926.553.926-2.336.926 1.45.926-1.02 1.853 2.605.926-.536.926.086.926-.274 1.853-1.062.926 1.451 1.852.45.927.626.926 1.685.926-.216.926 2.035.926.656.927.456.926.915.926 2.122.926 1.347 1.853 4.887.926.416.926 1.818.926 2.216.926.79.927 2.004.926 1.705 1.852 2.766.926 1.44.927 1.909.926-.193.926 1.447.926-.096 1.853 1.333.926 1.336 1.852.934.926.135 1.853-.096.926.184 1.852.888.927 1.32.926.372.926.925.926.654.926.473.927-.184.926.834.926.649 1.852.736 1.853 1.498.926.346.926.602 2.779.858.926.062.926.447.926.235 1.853.024.926-.021.926.42.926-1.809.927-.043.926.163.926-.035.926.141 1.853-.06 3.704-.04 1.853.125.926-.1.926 2.064 1.853-.013.926-.032.926-.143.926.002.926-.138.927.221.926.36.926.03.926.43 1.853.002 3.704-.403 2.779-.515 1.852-.018.927-.686.926-.114.926-.377 1.852-.157h.927l.926-.142 1.852.26 2.779.42.926-.025.926-.485 1.853.227.926.33 1.852-.025.926.017.927.294.926.075.926-.173.926.21.926.036 1.853.38.926.374.926.227.926-.076.927-.298 2.778-.026.926-.298.927-.17.926.218 1.852-.29.926.027 4.631-.463.927.016 10.188-1.282 2.778-.994.927-.021.926-.341.926-.048.926-.271.926-.521 3.705-.639.926-.787.927-.34 1.852-.178.926.096.926-.57.927-.248.926-.382 1.852-.061 1.853-1.426.926-.384.926-.559.926.146.926-.193.927-1.12.926-.405 2.778-2.29.927-.62.926-1.25 1.852-.961.926-.189.927-.896.926-1.514.926-.858.926-1.196.926-1.385 1.853-1.85.926-2.283.926-1.495.926-2.08.927-1.524 1.852-6.2.926-.911.926-2.36.927-1.727.926-2.379 1.852-3.142.926-2.095.927-1.632.926-.534 1.852-2.116.926-.748.927.59.926.75.926-1.041.926-.622.926-.267.927-.655.926-2.183.926-.702.926-2.21.926.02.927-1.287.926-.433.926-.694.926.477.926-2.612.927-.338.926-1.723.926.686.926-1.499.926.577.927 1.894.926 1.214.926.916.926.42.926.936.927-.371.926.446.926-1.511.926 2.401 1.853 4.167.926.331.926 1.054.926-.902.926-1.72.927-1.414.926 1.613.926-51.356.926-1.78.926-1.118.927-2.974.926-2.102 1.852-7.22.926-2.78.927-.995.926-3.387.926-2.139.926-.926.926-.523.927-1.57.926 50.624.926 1.755.926.442.926 2.606.927 3.023.926.282.926.4.926 1.28.926-.204.927 3.288.926 2.514.926.407 1.852 1.685.927.363.926 1.583.926 3.352.926 1.885.926-.03.927 2.827.926 1.007.926 1.696.926 1.285.926.471.927 1.168.926 2.416.926 1.626 1.852 4.49.927-.518.926-1.927.926.014.926 1.267.926 1.75.927 2.465.926-.153.926.449.926 1.342.926.086.927-.147.926-.405.926-.238.926-1.818 1.853.816.926.09.926-.7.926-.904.926-.524.927.426.926-1.038.926-.704.926-.256.926-.372.927.287.926-.986.926.343.926-.458.926-.666.927-1.37.926-.744.926-1.272 2.779-2.4.926-.344.926-.14.926-1.481.926-.857.927-1.28.926-.857.926-1.238.926.69.926-1.218.927-.146.926.497.926-.604.926.343.926 1.17.927-.156.926-.416.926 1.507 3.705 4.554.926.112.926 1.811.926.159.927.56 1.852 1.394 2.779 2.937.926 1.457.926.874.926 1.814.926 12.304.927 1.961.926 1.557.926 1.794 1.852 5.205.927 2.09.926 1.287.926 1.966.926 1.014 1.853 3.948.926 2.286.926 1.452.926-9.813 1.853 3.416.926 1.946.926 1.644 1.852 2.006.927.681.926.385.926 2.234.926.913 1.853.63 1.852.094 1.852.281 1.853.098.926.419.926.025.926.161.927.522.926.184 1.852.684 2.779.007 1.852.434 1.853.047 2.778.012 1.853-.108 2.778.235 2.779.103.926-.09.926.075 1.853-.067 4.63.294 1.853-.027 4.631.096 1.852-.132 4.631-.792.927-.197 1.852-.723.926-.243 1.853-.985 1.852-.993.926-.59 1.853-.663.926-.462 2.778-1.97.927-.679 1.852-1.142 2.779-2.043.926-.468 1.852-1.34.926-.365 1.853-1.686 1.852-1.61.926-1.48 1.853-.828 2.778-1.62.927-1.707.926-.664.926-.301.926-.818.926-.244.927-.458.926-.214.926-.802.926.676.926-.618 1.853-.547 1.852-1.207.926 1.291.927-.096 1.852-.634.926 1.611.926-1.484 1.853-.244.926-.6 3.705.068.926-.446.926-.685.926-.401.927-.21.926.352.926-1.94.926 1.228.926-.045.927.46.926.278.926.79.926.413.926.161.927.298 3.704 2.652.927.404 1.852 1.09.926.2 1.853.828.926-.346 2.778.752.927.739.926.31 3.705 2.069.926.8.926.639.926.175 1.853 1.43.926.011.926.181.926.49.926-.35.927.082.926.238.926-.342 3.705-.277.926.344.926-.282.926-.15 1.853.108.926-.374.926.152 1.853-.99 2.778-1.661.926-.697 1.853-1.954 1.852-1.577.926-.74.927-1.26.926-.612.926-1.101 1.852-.724.927-.18.926-.942.926-1.62.926-1.33 1.853-4.514.926-2.374.926-2.03 1.852-2.953.927-2.197.926-2.964.926-3.557.926-2.793.926-2.115 1.853-2.34.926-1.93 1.852-6.103.927-3.462 1.852-8.525.926-4.87.926-8.196 1.853-27.845.926-15.952.926-11.057.926-6.915.927-11.614.926-23.024 1.852-58.17.926-26.52.927-20.477.926-15.698.926-22.634.926-27.198.926-15.156.927-20.92 2.778-43.829.926-10.904.927 3.427 1.852 23.704h0" style="fill:none;stroke:#009e73;stroke-linecap:round;stroke-width:1.5" id="line2d_2"/><path clip-path="url(#pdc1a4fd7f5)" d="m149.973 554.04 33.343-.071 4.63-.256 1.853-.53.927-.49.926-1.665.926-.45.926-.204.926-.96.927-1.541.926-.92.926-1.163.926-3.932 1.853-6.27.926-3.369.926-2.9.926-4.125.926-5.473.927-4.503.926-7.372.926-8.925.926-3.39 1.853-11.252.926-2.277.926-.837.926-2.92 1.853-1.961.926.05.926.95.926 1.665.926.45.927 3.195.926 6.065.926-.5 1.852 6.423.927.112.926 1.082.926 2.768.926.602.926 1.991 1.853 3.635.926 2.318.926 4.054.926 2.39.927 1.592 1.852 5.514.926 1.705 1.853 5.555.926 2.185.926 2.86.926 1.04.926.41.927.857.926 1.389.926 2.389 1.852 2.022.927.98.926-.01.926 1.174.926.653 1.853.552.926.817.926-.113 2.779.02.926-2.092.926.51 2.779 1.89.926.326.926-.48.926.337.926.153.927-.143.926 1.185.926.725.926.275.926-.347.927.848.926.418.926-.755.926.49h.926l.927-.225 1.852.276.926.378 3.705.081.926.674.926-2.869.927-.745.926.52.926-.674 2.779.194.926-.06.926-.41.926-.01.926-.5.927-.03.926.112.926-.286.926 2.89.926.418.927-.092.926.562.926.01.926.327 1.853.102.926.429.926.174.926.633.926-.245.927.03 1.852.307.926.275 1.853-.204 2.778-1.072.926.02.927-.449.926-.092.926-.265.926.234.926-.398.927.164 1.852.081.926-.275.926-.092 1.853.46.926.101.926-.204.926-.592 1.853-.899.926-.52 1.852.582.927.776.926.04 2.778.623 1.853-.112.926.235.926 1 .926.164 1.853.786.926-.398.926-.266.926-.806.927-.072.926.317.926-.235.926-.02 1.853.255 1.852-.153.926.367 1.853.204.926.623.926-.05.926-.246.926-.04.927-.235.926.102.926-.01.926-.266 2.779.02 1.852-.347.926-.04.927-.307 1.852-.163 3.705-.868.926.01.926-.255 1.853-1.021.926-.45 1.852-.388.926-.694 2.779-.899.926-.112 2.779-1.746.926-.735 1.852-.388.927-.746.926-.54.926-.746.926-.46 1.853-.612.926-1.369 1.852-1.245.926-.45.927-.765.926-.95.926.01.926-1.276.926-1.869.927-.929.926-.153.926-1.573.926-2.267.926-2.767.927-1.46 1.852-5.064.926-.358 1.853-4.34.926-3.44.926-1.308.926-1.113.926-1.98.927-2.635.926-.357 1.852-.266.926-2.001.927 1.807 1.852-2.042.926-.664.926.235.927-.592.926-2.798.926-.704.926-1.42.926.613.927-.398.926.572.926-.082.926 2.675.926-3.257.927 1.348.926-1.103.926 1.215.926-.266.926 1.359.927 2.256 1.852 3.42.926.848.926.388.927-1.878.926-.368.926-1.562.926 2.358 1.853 2.9.926.256.926.132.926-1.725 1.853-1.634.926.694.926-44.642.926-3.022.926-1.542.927-2.053.926-2.45 1.852-6.076.926-1.164.927-.388.926-3.38.926-2.164 1.852-2.237.927-1.838.926 44.336.926 1.522.926.418.926 1.552.927 3.278.926-.704.926.5.926.235.926-1.103 1.853 5.014.926 1.164.926.224.926.644.927-.766.926 1.848.926 3.584.926 1.031.926-1.51.927 1.827.926.541.926.899.926 1.44.926.387.927 1.195.926.909.926 1.072.926 1.654.926 2.134.927-2.113.926-1.583.926.439.926 2.022.926 1.337.927 2.053 1.852-2.094.926.715.926-.858.927-1.47.926-.153.926.082.926-3.635.926 1.072.927-1.318.926-.163.926-1.603.926 1.358.926-1.062.927 1 .926-1.061 1.852-.52.926.734.927.368.926-1.389.926 1.756.926-.786.926.092 1.853-1.715.926-3.145.926-.307.926-.99.927.02.926-.418.926 1.419.926-2.971 1.853-3.34.926-.398 1.852-1.358.926-.633 1.853.256.926-.072.926.225.926 1.582.927-.776.926-.48.926 3.503 1.852 4.125.927 1.256 1.852 4.135.926 1.716 1.853 2.675.926 1.46.926 1.675.926 1.123.926 2.093.927 1.052.926 1.644.926.98.926 1.757.926 2.47.927 1.481.926 1.869.926 1.358 1.852 4.911.927 1.501.926.899.926 1.603.926-9.935.926-.99.927 1.592.926 1.95.926.91.926-.338.926 1.389.927 1.031.926 1.88.926.928.926.43.926.295.927.45.926.633.926 12.804.926 3.86.926.153.927.623.926.327 1.852.153.926.46.927.132.926.429.926.725 1.852.653 2.779.562.926.408.926-.132 1.853.214 1.852.49.926.082 3.705-.204.926-.215 2.779-.122.926.275 1.853.133 1.852-.306.926-.174.926.072 1.853-.03 1.852.101 1.853-.306 3.704.01 2.779.51 1.852.062 2.779-.174 1.852-.214 3.705-.98 1.853-.674.926-.592 1.852-1.46.926-.338.927-.592.926-.388.926-.541 1.852-1.41 2.779-1.95.926-.827.926-.52 1.853-.735 1.852-.511.926.102.927-1.133.926-.552.926-.745.926-.296.926-1.072.927.98.926-.102 1.852-1.532.926-.265.927-1.44.926-.684.926-.5.926-.685.926.307.927-.5.926.163.926-.797.926.153.926-1.572.927-.296.926.286.926.01.926-.44.926 1.492.927-.215.926-.071.926-.307.926 1.256.926-.806 1.853-.358.926-.02 1.852.265.927-.316.926-.03.926-.225.926-.5.926-.062.927-.204.926.378.926-1.032.926.756 1.853-.01.926.214.926.082.926-.174.926.715 1.853.04.926.062.926.378.926.766.927.224.926.072 1.852.868.926 1.062.927.439.926.214.926.715.926.122.926.388.927.705.926.541.926.051.926.358.926.224 2.78 2.308.925-.082 1.853 1.246.926-.541.926-.123.926.388.926-.092.927-.234.926.52.926-.122.926.081.926-.224.927-.409.926-.092.926.297 1.852-.194 1.853.755 2.778.398.927-.122.926-.868.926-.398 5.557-5.27.926-.428.927-1.297.926-.715.926-.867 1.852-1.042.927.02.926-.51.926-1.113.926-.786 1.853-2.86.926-1.184.926-.796 2.779-4.759 1.852-5.268 1.852-3.89.927-1.267.926-.817.926-2.93.926-3.41.926-4.034 1.853-10.068.926-3.503.926-5.299.926-10.589.927-14.346 1.852-38.087.926-11.988.926-9.19.927-15.806.926-28.202.926-35.616 1.852-56.773 1.853-30.112 1.852-50.748.926-13.336.927-17.828 1.852-22.383.926-14.03.926-6.892.927 8.465.926 20.412.926 12.457h0" style="fill:none;stroke:#d55e00;stroke-linecap:round;stroke-width:1.5" id="line2d_3"/><path clip-path="url(#pdc1a4fd7f5)" d="M149.973 554.04h40.753l.926-1.04h1.852l.926-.52h.927l1.852-3.12.926-3.12.926-.521.927-1.56.926-1.04.926-2.6.926-4.161.926-3.64h.927l.926-3.12.926-8.322.926-5.2.926-1.56.927-1.04h.926l.926-2.08.926-3.121.926.52.927 1.04.926-.52.926 2.08.926 1.56.926-1.56.927.52.926 6.76.926 5.722.926-1.04.926 1.04.927-1.04.926 2.6h2.778l.927.52.926 2.08 2.778 3.12h1.853l.926 2.6.926 1.56 1.853 5.202.926 3.12.926 1.04h.926l.926.52.927-2.08.926.52 1.852 2.08.926 1.56h1.853l.926-.52h1.852l.927.52h1.852l.926 2.08.926 1.56 1.853 1.04.926-.52h1.852l.927-1.56h7.41l.925-.52h.927l.926.52h1.852l.926 1.56h5.558l.926-1.04.926.52h.926l.926-.52h2.779l.926-2.08.926.52.927-.52h3.704l.927-2.08.926-.52.926.52h.926l.926-.52h1.853l.926 1.04.926-.52.926.52h3.705l.926 3.12.927-1.04.926-.52h.926l.926 1.04h1.853l1.852 1.04h.926l.926-.52h2.779l.926-.52.926 1.56h.927l.926.52h2.778l.927.52h.926l.926-.52.926.52.926-.52h3.705l.926.52 1.853-1.04h2.778l.927-1.04h.926l.926-.52.926.52h3.705l.926-2.08 1.853 1.04h2.778l.926-.52 1.853 1.04h4.63l.927 1.04.926-.52H363l.926-1.56.926 1.56.926-.52h3.705l.926.52h.927l.926 1.04.926.52h2.779l.926.52.926-.52.926-2.08.926-4.68.927-1.04h1.852l.926-1.04.926-3.12.927-.52 1.852-5.201 1.852-3.12h.927l1.852 1.04.926 4.68.926 1.04h1.853l.926-2.08.926 1.04.926-2.08h1.853l1.852 3.12.926-5.2.927-.52 1.852-3.12.926-2.601h1.853l.926-6.76h.926l.926 2.6.926-6.241.927-1.04h1.852l.926-2.08.926-5.721 1.853-5.201.926-4.68.926-2.6h.926l.927 2.6.926-2.08.926-3.121.926 8.84.926 3.641.927-10.4h.926l.926 1.04.926 2.6.926.52.927-4.16.926-5.201.926-3.12h.926l.926 1.56.927-2.08.926.52.926-9.362.926-4.68.926 10.4h1.853l.926-1.04.926 2.08.926 8.322.927 3.64.926 5.72h.926l.926-8.32.926 2.6.927-11.441.926 6.76.926 4.681h1.852l.927-8.32.926 2.08 1.852-11.962.926 8.841h1.853l.926-3.12.926-5.72.926 6.76.927-5.2.926-6.241.926-5.201h.926l.926 4.16.927-3.12.926 2.08.926.52.926-5.2h1.853l.926 17.162.926-1.56.926 2.08.926 5.72 1.853 9.882h.926l.926-4.68.926 3.64.927 4.68.926 2.08.926-3.12.926-2.6h1.853l.926 10.92.926-8.32 1.852-4.16h1.853l.926 7.8.926-1.56.926.52h.927l.926 5.72.926-1.04h1.852l.927-7.28.926 10.921.926 2.6.926 1.04h.926l.927-3.64.926 6.24 1.852 1.041.926-3.64.927-2.08.926 3.64h.926l.926-8.321.926 2.08.927-.52h.926l.926-4.68h.926l.926 3.64.927-5.2.926 1.04.926-2.08.926-.52.926 2.08h1.853l.926-3.641.926 1.56.926-1.04h.927l.926 4.68h1.852l.926-5.2.927-1.04.926.52.926 3.12.926-1.04h.926l.927-4.68.926 6.24.926-.52.926 2.6.926-7.8.927-2.08h1.852l.926 3.64.926-1.04 1.853-1.04h0l.926 1.04.926-.52.926 4.68.927.52.926 1.56.926-1.04.926 3.12.926 2.08.927-2.6h.926l.926 7.281.926 3.64.926 1.561.927.52h.926l.926.52h.926l.926 2.08 1.853 2.08.926 4.161.926-2.08.926 2.08h.927l.926.52h1.852l.926 2.6.927 1.56h1.852l.926 1.04.926 1.561.927 1.04.926 2.08.926 4.68.926.52h.926l.927 1.041.926.52.926 3.12.926.52.926 1.04h1.853l.926 2.08h1.852l.927-1.04h4.63l.927-.52.926.52h3.705l.926-1.56h.926l.926 1.04h4.631l.927.52h4.63l.927 1.56.926.521h.926l.926-2.08h4.631l.927-.52h5.557l.926-.52.926 1.56h3.705l1.852-1.04h5.558l.926-.52.926-2.6h1.852l.927-10.922.926-1.04h.926l1.852-5.2h1.853l.926-3.641.926-1.56.926-.52h.927l.926 2.6h1.852l.926 5.72.927-.52.926-2.6.926.52.926 1.56h1.853l.926-1.56.926.52h.926l.926-1.04.927.52h1.852l.926 4.16.926-.52.927 2.081.926.52.926 1.04h1.852l.927 1.56.926-2.6.926-3.12.926 1.04.926-2.6h1.853l.926 1.04.926-4.16.926-2.081.927 2.6.926-2.6h1.852l.926-1.04.927 2.08.926 1.56.926-3.12.926.52h1.853l.926-6.76.926 5.72.926.52.926-2.6.927 1.04h1.852l.926 2.6h1.853l.926 2.08h2.778l.927 4.68 1.852-1.04.926 2.601.926-4.16h1.853l.926 2.08.926-1.56 2.779 3.12h1.852l.926-2.08.927-.52.926 2.6.926-2.08.926 4.68h1.853l.926-1.04.926 2.6.926 1.04h.926l.927.52h2.778l.926-.52.927.52.926 2.08h2.778l.927-1.56.926-.52.926-4.68.926 1.04.926-3.12h1.853l.926 1.04h.926l.926-1.04.927-1.56.926-.52h1.852l.926-5.201.927-1.56.926 1.04h.926l.926 3.64h1.853l.926-7.28.926-1.56h.926l.926-2.601.927-3.12h1.852l.926 1.04 1.853-5.2 1.852-10.402h1.852l.927 1.56.926-3.12 1.852-15.602.926 1.04.927-21.322.926-6.241.926-2.08.926-9.361.926-16.122.927-11.962.926-6.76.926-1.56.926-3.12.926-2.081 1.853-37.444.926-10.402.926-23.922.926-6.761.927-27.043.926-16.122.926-2.08.926-9.361.926-21.323.927-17.162.926-34.324.926-23.403.926-2.6.926 6.24.927 3.121.926-2.08.926 13.002.926 28.083h0" style="fill:none;stroke:#0072b2;stroke-linecap:round;stroke-width:1.5" id="line2d_4"/><path clip-path="url(#pdc1a4fd7f5)" d="M117 553.088h725.4" style="fill:none;stroke:green;stroke-dasharray:1.5,2.475;stroke-dashoffset:0;stroke-width:1.5" id="line2d_5"/><path clip-path="url(#pdc1a4fd7f5)" d="M117 549.28h725.4" style="fill:none;stroke:orange;stroke-dasharray:1.5,2.475;stroke-dashoffset:0;stroke-width:1.5" id="line2d_6"/><path clip-path="url(#pdc1a4fd7f5)" d="M117 544.521h725.4" style="fill:none;stroke:red;stroke-dasharray:1.5,2.475;stroke-dashoffset:0;stroke-width:1.5" id="line2d_7"/><path d="M117 576.72V77.76" style="fill:none;stroke:#d3d3d3;stroke-linecap:square;stroke-linejoin:miter;stroke-width:1.25" id="patch_3"/><path d="M117 576.72h725.4" style="fill:none;stroke:#d3d3d3;stroke-linecap:square;stroke-linejoin:miter;stroke-width:1.25" id="patch_4"/><g id="matplotlib.axis_1"><g id="xtick_1"><g style="fill:#696969" transform="matrix(.16 0 0 -.16 107.076 598.378)" id="text_1"><defs><path d="M9.813 72.906h9.859V5.078q0-13.187-5-19.14-5-5.954-16.094-5.954h-3.75v8.297h3.078q6.531 0 9.219 3.672Q9.813-4.39 9.813 5.078z" id="DejaVuSans-74"/><path d="M34.281 27.484q-10.89 0-15.093-2.484-4.204-2.484-4.204-8.5 0-4.781 3.157-7.594 3.156-2.797 8.562-2.797 7.485 0 12 5.297 4.516 5.297 4.516 14.078v2zm17.922 3.72V0H43.22v8.297Q40.14 3.328 35.547.953q-4.594-2.375-11.234-2.375-8.391 0-13.36 4.719Q6 8.016 6 15.922q0 9.219 6.172 13.906 6.187 4.688 18.437 4.688h12.61v.89q0 6.203-4.078 9.594-4.078 3.39-11.453 3.39-4.688 0-9.141-1.124-4.438-1.125-8.531-3.375v8.312q4.921 1.906 9.562 2.844 4.64.953 9.031.953 11.875 0 17.735-6.156 5.86-6.14 5.86-18.64z" id="DejaVuSans-97"/><path d="M54.89 33.016V0h-8.984v32.719q0 7.765-3.031 11.61-3.031 3.858-9.078 3.858-7.281 0-11.484-4.64-4.204-4.625-4.204-12.64V0H9.08v54.688h9.03v-8.5q3.235 4.937 7.594 7.374Q30.078 56 35.797 56q9.422 0 14.25-5.828 4.844-5.828 4.844-17.156z" id="DejaVuSans-110"/></defs><use xlink:href="#DejaVuSans-74"/><use x="29.492" xlink:href="#DejaVuSans-97"/><use x="90.771" xlink:href="#DejaVuSans-110"/></g></g><g id="xtick_2"><g style="fill:#696969" transform="matrix(.16 0 0 -.16 189.852 598.378)" id="text_2"><defs><path d="M34.188 63.188 20.797 26.906h26.812zm-5.579 9.718h11.188L67.578 0h-10.25l-6.64 18.703h-32.86L11.188 0H.78z" id="DejaVuSans-65"/><path d="M18.11 8.203v-29H9.077v75.484h9.031v-8.296q2.844 4.875 7.157 7.234Q29.594 56 35.594 56q9.968 0 16.187-7.906 6.235-7.907 6.235-20.797T51.78 6.484q-6.218-7.906-16.187-7.906-6 0-10.328 2.375-4.313 2.375-7.157 7.25zm30.578 19.094q0 9.906-4.079 15.547-4.078 5.64-11.203 5.64-7.14 0-11.218-5.64-4.079-5.64-4.079-15.547 0-9.906 4.078-15.547 4.079-5.64 11.22-5.64 7.124 0 11.202 5.64t4.078 15.547z" id="DejaVuSans-112"/><path d="M41.11 46.297q-1.516.875-3.297 1.281Q36.03 48 33.89 48q-7.625 0-11.703-4.953-4.079-4.953-4.079-14.234V0H9.08v54.688h9.03v-8.5q2.844 4.984 7.375 7.39Q30.031 56 36.531 56q.922 0 2.047-.125 1.125-.11 2.484-.36z" id="DejaVuSans-114"/></defs><use xlink:href="#DejaVuSans-65"/><use x="68.408" xlink:href="#DejaVuSans-112"/><use x="131.885" xlink:href="#DejaVuSans-114"/></g></g><g id="xtick_3"><g style="fill:#696969" transform="matrix(.16 0 0 -.16 278.324 598.378)" id="text_3"><defs><path d="M8.5 21.578v33.11h8.984V21.922q0-7.766 3.016-11.656 3.031-3.875 9.094-3.875 7.265 0 11.484 4.64 4.234 4.64 4.234 12.656v31h8.985V0h-8.984v8.406Q42.047 3.422 37.718 1q-4.313-2.422-10.032-2.422-9.421 0-14.312 5.86Q8.5 10.296 8.5 21.578zM31.11 56z" id="DejaVuSans-117"/><path d="M9.422 75.984h8.984V0H9.422z" id="DejaVuSans-108"/></defs><use xlink:href="#DejaVuSans-74"/><use x="29.492" xlink:href="#DejaVuSans-117"/><use x="92.871" xlink:href="#DejaVuSans-108"/></g></g><g id="xtick_4"><g style="fill:#696969" transform="matrix(.16 0 0 -.16 359.354 598.378)" id="text_4"><defs><path d="M39.406 66.219q-10.75 0-17.078-8.016-6.312-8-6.312-21.828 0-13.766 6.312-21.781 6.328-8 17.078-8 10.735 0 17.016 8 6.281 8.015 6.281 21.781 0 13.828-6.281 21.828-6.281 8.016-17.016 8.016zm0 8q15.328 0 24.5-10.281 9.188-10.282 9.188-27.563 0-17.234-9.188-27.516-9.172-10.28-24.5-10.28-15.375 0-24.593 10.25-9.204 10.265-9.204 27.546t9.204 27.563q9.218 10.28 24.593 10.28z" id="DejaVuSans-79"/><path d="M48.781 52.594v-8.407q-3.812 2.11-7.64 3.157-3.828 1.047-7.735 1.047-8.75 0-13.593-5.547-4.829-5.532-4.829-15.547 0-10.016 4.829-15.563 4.843-5.53 13.593-5.53 3.907 0 7.735 1.046 3.828 1.047 7.64 3.156V2.094Q45.016.344 40.984-.531q-4.015-.89-8.562-.89-12.36 0-19.64 7.765-7.266 7.765-7.266 20.953 0 13.375 7.343 21.031Q20.22 56 33.016 56q4.14 0 8.093-.86 3.953-.843 7.672-2.546z" id="DejaVuSans-99"/><path d="M18.313 70.219V54.688h18.5v-6.985h-18.5V18.016q0-6.688 1.828-8.594 1.828-1.906 7.453-1.906h9.218V0h-9.218q-10.407 0-14.36 3.875-3.953 3.89-3.953 14.14v29.688H2.687v6.984h6.594V70.22z" id="DejaVuSans-116"/></defs><use xlink:href="#DejaVuSans-79"/><use x="78.711" xlink:href="#DejaVuSans-99"/><use x="133.691" xlink:href="#DejaVuSans-116"/></g></g><g id="xtick_5"><g style="fill:#696969" transform="matrix(.16 0 0 -.16 446.065 598.378)" id="text_5"><use xlink:href="#DejaVuSans-74"/><use x="29.492" xlink:href="#DejaVuSans-97"/><use x="90.771" xlink:href="#DejaVuSans-110"/></g></g><g id="xtick_6"><g style="fill:#696969" transform="matrix(.16 0 0 -.16 527.915 598.378)" id="text_6"><use xlink:href="#DejaVuSans-65"/><use x="68.408" xlink:href="#DejaVuSans-112"/><use x="131.885" xlink:href="#DejaVuSans-114"/></g></g><g id="xtick_7"><g style="fill:#696969" transform="matrix(.16 0 0 -.16 616.387 598.378)" id="text_7"><use xlink:href="#DejaVuSans-74"/><use x="29.492" xlink:href="#DejaVuSans-117"/><use x="92.871" xlink:href="#DejaVuSans-108"/></g></g><g id="xtick_8"><g style="fill:#696969" transform="matrix(.16 0 0 -.16 697.418 598.378)" id="text_8"><use xlink:href="#DejaVuSans-79"/><use x="78.711" xlink:href="#DejaVuSans-99"/><use x="133.691" xlink:href="#DejaVuSans-116"/></g></g><g id="xtick_9"><g style="fill:#696969" transform="matrix(.16 0 0 -.16 784.128 598.378)" id="text_9"><use xlink:href="#DejaVuSans-74"/><use x="29.492" xlink:href="#DejaVuSans-97"/><use x="90.771" xlink:href="#DejaVuSans-110"/></g></g></g><g id="matplotlib.axis_2"><g id="ytick_1"><g style="fill:#696969" transform="matrix(.16 0 0 -.16 97.32 560.119)" id="text_10"><defs><path d="M31.781 66.406q-7.61 0-11.453-7.5Q16.5 51.422 16.5 36.375q0-14.984 3.828-22.484 3.844-7.5 11.453-7.5 7.672 0 11.5 7.5 3.844 7.5 3.844 22.484 0 15.047-3.844 22.531-3.828 7.5-11.5 7.5zm0 7.813q12.266 0 18.735-9.703 6.468-9.688 6.468-28.141 0-18.406-6.468-28.11-6.47-9.687-18.735-9.687-12.25 0-18.718 9.688-6.47 9.703-6.47 28.109 0 18.453 6.47 28.14Q19.53 74.22 31.78 74.22z" id="DejaVuSans-48"/></defs><use xlink:href="#DejaVuSans-48"/></g></g><g id="ytick_2"><g style="fill:#696969" transform="matrix(.16 0 0 -.16 66.78 464.932)" id="text_11"><defs><path d="M12.406 8.297h16.11v55.625l-17.532-3.516v8.985l17.438 3.515h9.86V8.296H54.39V0H12.406z" id="DejaVuSans-49"/></defs><use xlink:href="#DejaVuSans-49"/><use x="63.623" xlink:href="#DejaVuSans-48"/><use x="127.246" xlink:href="#DejaVuSans-48"/><use x="190.869" xlink:href="#DejaVuSans-48"/></g></g><g id="ytick_3"><g style="fill:#696969" transform="matrix(.16 0 0 -.16 66.78 369.746)" id="text_12"><defs><path d="M19.188 8.297h34.421V0H7.33v8.297q5.609 5.812 15.296 15.594 9.703 9.797 12.188 12.64 4.734 5.313 6.609 9 1.89 3.688 1.89 7.25 0 5.813-4.078 9.469-4.078 3.672-10.625 3.672-4.64 0-9.797-1.61-5.14-1.609-11-4.89v9.969Q13.767 71.78 18.938 73q5.188 1.219 9.485 1.219 11.328 0 18.062-5.672 6.735-5.656 6.735-15.125 0-4.5-1.688-8.531-1.672-4.016-6.125-9.485-1.218-1.422-7.765-8.187-6.532-6.766-18.453-18.922z" id="DejaVuSans-50"/></defs><use xlink:href="#DejaVuSans-50"/><use x="63.623" xlink:href="#DejaVuSans-48"/><use x="127.246" xlink:href="#DejaVuSans-48"/><use x="190.869" xlink:href="#DejaVuSans-48"/></g></g><g id="ytick_4"><g style="fill:#696969" transform="matrix(.16 0 0 -.16 66.78 274.56)" id="text_13"><defs><path d="M40.578 39.313Q47.656 37.797 51.625 33q3.984-4.781 3.984-11.813 0-10.78-7.422-16.703-7.421-5.906-21.093-5.906-4.578 0-9.438.906-4.86.907-10.031 2.72v9.515q4.094-2.39 8.969-3.61 4.89-1.218 10.218-1.218 9.266 0 14.125 3.656 4.86 3.656 4.86 10.64 0 6.454-4.516 10.079-4.515 3.64-12.562 3.64h-8.5v8.11h8.89q7.266 0 11.125 2.906 3.86 2.906 3.86 8.375 0 5.61-3.985 8.61-3.968 3.015-11.39 3.015-4.063 0-8.703-.89-4.641-.876-10.203-2.72v8.782q5.624 1.562 10.53 2.344 4.907.78 9.25.78 11.235 0 17.766-5.109 6.547-5.093 6.547-13.78 0-6.063-3.468-10.235-3.47-4.172-9.86-5.782z" id="DejaVuSans-51"/></defs><use xlink:href="#DejaVuSans-51"/><use x="63.623" xlink:href="#DejaVuSans-48"/><use x="127.246" xlink:href="#DejaVuSans-48"/><use x="190.869" xlink:href="#DejaVuSans-48"/></g></g><g id="ytick_5"><g style="fill:#696969" transform="matrix(.16 0 0 -.16 66.78 179.373)" id="text_14"><defs><path d="M37.797 64.313 12.89 25.39h24.906zm-2.594 8.593H47.61V25.391h10.407v-8.203H47.609V0h-9.812v17.188H4.89v9.515z" id="DejaVuSans-52"/></defs><use xlink:href="#DejaVuSans-52"/><use x="63.623" xlink:href="#DejaVuSans-48"/><use x="127.246" xlink:href="#DejaVuSans-48"/><use x="190.869" xlink:href="#DejaVuSans-48"/></g></g><g id="ytick_6"><g style="fill:#696969" transform="matrix(.16 0 0 -.16 66.78 84.186)" id="text_15"><defs><path d="M10.797 72.906h38.719v-8.312H19.828v-17.86q2.14.735 4.281 1.094 2.157.36 4.313.36 12.203 0 19.328-6.688 7.14-6.688 7.14-18.11 0-11.765-7.328-18.296-7.328-6.516-20.656-6.516-4.593 0-9.36.781-4.75.782-9.827 2.344v9.922q4.39-2.39 9.078-3.563 4.687-1.171 9.906-1.171 8.453 0 13.375 4.437 4.938 4.438 4.938 12.063 0 7.609-4.938 12.047-4.922 4.453-13.375 4.453-3.953 0-7.89-.875-3.922-.875-8.016-2.735z" id="DejaVuSans-53"/></defs><use xlink:href="#DejaVuSans-53"/><use x="63.623" xlink:href="#DejaVuSans-48"/><use x="127.246" xlink:href="#DejaVuSans-48"/><use x="190.869" xlink:href="#DejaVuSans-48"/></g></g><g style="fill:#696969" transform="matrix(0 -.2 -.2 0 58.62 379.813)" id="text_16"><defs><path d="M51.125 44H36.922l-4.11-16.313h14.313zm-7.328 27.781-5.078-20.265h14.265L58.11 71.78h7.813L60.89 51.516h15.234V44h-17.14l-4-16.313h15.53V20.22H53.079L48 0h-7.813l5.032 20.219H30.906L25.875 0h-7.86l5.079 20.219H7.719v7.468h17.187L29 44H13.281v7.516h17.625l4.985 20.265z" id="DejaVuSans-35"/><path d="M30.61 48.39q-7.22 0-11.422-5.64-4.204-5.64-4.204-15.453 0-9.813 4.172-15.453 4.188-5.64 11.453-5.64 7.188 0 11.375 5.655 4.203 5.672 4.203 15.438 0 9.719-4.203 15.406-4.187 5.688-11.375 5.688zm0 7.61q11.718 0 18.406-7.625 6.703-7.61 6.703-21.078 0-13.422-6.703-21.078-6.688-7.64-18.407-7.64-11.765 0-18.437 7.64-6.656 7.656-6.656 21.078 0 13.469 6.656 21.078Q18.844 56 30.609 56z" id="DejaVuSans-111"/><path d="M37.11 75.984V68.5h-8.594q-4.828 0-6.72-1.953-1.874-1.953-1.874-7.031v-4.828h14.797v-6.985H19.922V0H10.89v47.703H2.297v6.984h8.594V58.5q0 9.125 4.25 13.297 4.25 4.187 13.468 4.187z" id="DejaVuSans-102"/><path d="M44.281 53.078v-8.5q-3.797 1.953-7.906 2.922-4.094.984-8.5.984-6.688 0-10.031-2.047-3.344-2.046-3.344-6.156 0-3.125 2.39-4.906 2.391-1.781 9.626-3.39l3.078-.688q9.562-2.047 13.593-5.781 4.032-3.735 4.032-10.422 0-7.625-6.032-12.078-6.03-4.438-16.578-4.438-4.39 0-9.156.86Q10.688.296 5.422 2v9.281q4.984-2.594 9.812-3.89 4.829-1.282 9.579-1.282 6.343 0 9.75 2.172 3.421 2.172 3.421 6.125 0 3.656-2.468 5.61-2.453 1.953-10.813 3.765l-3.125.735q-8.344 1.75-12.062 5.39-3.704 3.64-3.704 9.985 0 7.718 5.47 11.906Q16.75 56 26.811 56q4.97 0 9.36-.734 4.406-.72 8.11-2.188z" id="DejaVuSans-115"/><path d="M56.203 29.594v-4.39H14.891q.593-9.282 5.593-14.142 5-4.859 13.938-4.859 5.172 0 10.031 1.266 4.86 1.265 9.656 3.812v-8.5Q49.266.734 44.187-.344 39.11-1.422 33.892-1.422q-13.094 0-20.735 7.61-7.64 7.625-7.64 20.625 0 13.421 7.25 21.296Q20.016 56 32.328 56q11.031 0 17.453-7.11 6.422-7.093 6.422-19.296zm-8.984 2.64q-.094 7.36-4.125 11.75-4.032 4.407-10.672 4.407-7.516 0-12.031-4.25-4.516-4.25-5.203-11.97z" id="DejaVuSans-101"/></defs><use xlink:href="#DejaVuSans-35"/><use x="83.789" xlink:href="#DejaVuSans-32"/><use x="115.576" xlink:href="#DejaVuSans-111"/><use x="176.758" xlink:href="#DejaVuSans-102"/><use x="211.963" xlink:href="#DejaVuSans-32"/><use x="243.75" xlink:href="#DejaVuSans-99"/><use x="298.73" xlink:href="#DejaVuSans-97"/><use x="360.01" xlink:href="#DejaVuSans-115"/><use x="412.109" xlink:href="#DejaVuSans-101"/><use x="473.633" xlink:href="#DejaVuSans-115"/></g></g><g style="fill:#696969" transform="matrix(.24 0 0 -.24 252.577 71.76)" id="text_17"><defs><path d="M9.813 72.906h13.28l32.329-60.984v60.984h9.562V0h-13.28L19.39 60.984V0H9.813z" id="DejaVuSans-78"/><path d="M4.203 54.688h8.985l11.234-42.672 11.172 42.672h10.593l11.235-42.672 11.187 42.672h8.985L63.28 0H52.688L40.922 44.828 29.109 0H18.5z" id="DejaVuSans-119"/><path d="M64.406 67.281v-10.39q-4.984 4.64-10.625 6.922-5.64 2.296-11.984 2.296-12.5 0-19.14-7.64-6.641-7.64-6.641-22.094 0-14.406 6.64-22.047 6.64-7.64 19.14-7.64 6.345 0 11.985 2.296 5.64 2.297 10.625 6.938V5.609Q59.234 2.094 53.437.33q-5.78-1.75-12.218-1.75-16.563 0-26.094 10.124-9.516 10.14-9.516 27.672 0 17.578 9.516 27.703 9.531 10.14 26.094 10.14 6.531 0 12.312-1.734 5.797-1.734 10.875-5.203z" id="DejaVuSans-67"/><path d="M25.39 72.906h8.297L8.297-9.28H0z" id="DejaVuSans-47"/><path d="M9.813 72.906h9.859V42.094L52.39 72.906h12.703L28.906 38.922 67.672 0H54.688L19.672 35.11V0h-9.86z" id="DejaVuSans-75"/><path d="M45.406 46.39v29.594h8.985V0h-8.985v8.203Q42.578 3.328 38.25.953q-4.313-2.375-10.375-2.375-9.906 0-16.14 7.906-6.22 7.922-6.22 20.813 0 12.89 6.22 20.797Q17.968 56 27.874 56q6.063 0 10.375-2.375 4.328-2.36 7.156-7.234zm-30.61-19.093q0-9.906 4.079-15.547 4.078-5.64 11.203-5.64 7.125 0 11.219 5.64 4.11 5.64 4.11 15.547 0 9.906-4.11 15.547-4.094 5.64-11.219 5.64-7.125 0-11.203-5.64-4.078-5.64-4.078-15.547z" id="DejaVuSans-100"/><path d="M9.422 54.688h8.984V0H9.422zm0 21.296h8.984v-11.39H9.422z" id="DejaVuSans-105"/><path d="M31 75.875q-6.531-11.219-9.719-22.219-3.172-10.984-3.172-22.265 0-11.266 3.203-22.328Q24.517-2 31-13.188h-7.813Q15.875-1.704 12.235 9.375q-3.64 11.078-3.64 22.016 0 10.89 3.61 21.922 3.624 11.046 10.983 22.562z" id="DejaVuSans-40"/><path d="M52 44.188q3.375 6.062 8.063 8.937Q64.75 56 71.093 56q8.548 0 13.188-5.984 4.64-5.97 4.64-17V0h-9.03v32.719q0 7.86-2.797 11.656-2.781 3.813-8.485 3.813-6.984 0-11.046-4.641-4.047-4.625-4.047-12.64V0h-9.032v32.719q0 7.906-2.78 11.687-2.782 3.782-8.595 3.782-6.89 0-10.953-4.657-4.047-4.656-4.047-12.625V0H9.08v54.688h9.03v-8.5q3.078 5.03 7.375 7.421Q29.781 56 35.687 56q5.97 0 10.141-3.031Q50 49.953 52 44.187z" id="DejaVuSans-109"/><path d="M8.016 75.875h7.812q7.313-11.516 10.953-22.563 3.64-11.03 3.64-21.921 0-10.938-3.64-22.016-3.64-11.078-10.953-22.563H8.016Q14.5-2 17.703 9.063q3.203 11.063 3.203 22.329 0 11.28-3.203 22.265-3.203 11-9.687 22.219z" id="DejaVuSans-41"/></defs><use xlink:href="#DejaVuSans-78"/><use x="74.805" xlink:href="#DejaVuSans-101"/><use x="136.328" xlink:href="#DejaVuSans-119"/><use x="218.115" xlink:href="#DejaVuSans-32"/><use x="249.902" xlink:href="#DejaVuSans-67"/><use x="319.727" xlink:href="#DejaVuSans-97"/><use x="381.006" xlink:href="#DejaVuSans-115"/><use x="433.105" xlink:href="#DejaVuSans-101"/><use x="494.629" xlink:href="#DejaVuSans-115"/><use x="546.729" xlink:href="#DejaVuSans-47"/><use x="580.42" xlink:href="#DejaVuSans-49"/><use x="644.043" xlink:href="#DejaVuSans-48"/><use x="707.666" xlink:href="#DejaVuSans-48"/><use x="771.289" xlink:href="#DejaVuSans-75"/><use x="836.865" xlink:href="#DejaVuSans-32"/><use x="868.652" xlink:href="#DejaVuSans-49"/><use x="932.275" xlink:href="#DejaVuSans-52"/><use x="995.898" xlink:href="#DejaVuSans-100"/><use x="1059.375" xlink:href="#DejaVuSans-32"/><use x="1091.162" xlink:href="#DejaVuSans-105"/><use x="1118.945" xlink:href="#DejaVuSans-110"/><use x="1182.324" xlink:href="#DejaVuSans-99"/><use x="1237.305" xlink:href="#DejaVuSans-105"/><use x="1265.088" xlink:href="#DejaVuSans-100"/><use x="1328.564" xlink:href="#DejaVuSans-101"/><use x="1390.088" xlink:href="#DejaVuSans-110"/><use x="1453.467" xlink:href="#DejaVuSans-99"/><use x="1508.447" xlink:href="#DejaVuSans-101"/><use x="1569.971" xlink:href="#DejaVuSans-32"/><use x="1601.758" xlink:href="#DejaVuSans-40"/><use x="1640.771" xlink:href="#DejaVuSans-115"/><use x="1692.871" xlink:href="#DejaVuSans-117"/><use x="1756.25" xlink:href="#DejaVuSans-109"/><use x="1853.662" xlink:href="#DejaVuSans-41"/></g><g id="legend_1"><path d="M128.2 184.5h136.45q3.2 0 3.2-3.2V88.96q0-3.2-3.2-3.2H128.2q-3.2 0-3.2 3.2v92.34q0 3.2 3.2 3.2z" style="fill:none;opacity:.8;stroke:#ccc;stroke-linejoin:miter" id="patch_5"/><path d="M131.4 98.718h32" style="fill:none;stroke:#000;stroke-linecap:round;stroke-width:1.5" id="line2d_8"/><g style="fill:#696969" transform="matrix(.16 0 0 -.16 176.2 104.317)" id="text_18"><defs><path d="M8.688 72.906h9.921V28.61q0-11.718 4.235-16.875 4.25-5.14 13.781-5.14 9.469 0 13.719 5.14 4.25 5.157 4.25 16.875v44.297H64.5V27.391q0-14.25-7.063-21.532-7.046-7.28-20.812-7.28-13.828 0-20.89 7.28-7.047 7.282-7.047 21.532z" id="DejaVuSans-85"/><path d="M53.516 70.516V60.89q-5.61 2.687-10.594 4-4.984 1.328-9.625 1.328-8.047 0-12.422-3.125t-4.375-8.89q0-4.845 2.906-7.313 2.907-2.453 11.016-3.97l5.953-1.218q11.031-2.11 16.281-7.406 5.25-5.297 5.25-14.172 0-10.61-7.11-16.078-7.093-5.469-20.812-5.469-5.172 0-11.015 1.172Q13.14.922 6.89 3.219v10.156q6-3.36 11.765-5.078 5.766-1.703 11.328-1.703 8.438 0 13.032 3.312 4.593 3.328 4.593 9.485 0 5.359-3.297 8.39-3.296 3.032-10.812 4.547L27.484 33.5q-11.03 2.188-15.968 6.875-4.922 4.688-4.922 13.047 0 9.672 6.812 15.234 6.813 5.563 18.766 5.563 5.14 0 10.453-.938 5.328-.922 10.89-2.765z" id="DejaVuSans-83"/></defs><use xlink:href="#DejaVuSans-85"/><use x="73.193" xlink:href="#DejaVuSans-83"/></g><path d="M131.4 122.203h32" style="fill:none;stroke:#009e73;stroke-linecap:round;stroke-width:1.5" id="line2d_10"/><g style="fill:#696969" transform="matrix(.16 0 0 -.16 176.2 127.802)" id="text_19"><use xlink:href="#DejaVuSans-78"/><use x="74.805" xlink:href="#DejaVuSans-74"/></g><path d="M131.4 145.688h32" style="fill:none;stroke:#d55e00;stroke-linecap:round;stroke-width:1.5" id="line2d_12"/><g style="fill:#696969" transform="matrix(.16 0 0 -.16 176.2 151.287)" id="text_20"><defs><path d="M19.672 34.813V8.108H35.5q7.953 0 11.781 3.297 3.844 3.297 3.844 10.078 0 6.844-3.844 10.078-3.828 3.25-11.781 3.25zm0 29.984V42.828h14.61q7.218 0 10.75 2.703 3.546 2.719 3.546 8.282 0 5.515-3.547 8.25-3.531 2.734-10.75 2.734zm-9.86 8.11h25.204q11.28 0 17.375-4.688Q58.5 63.53 58.5 54.89q0-6.703-3.125-10.657-3.125-3.953-9.188-4.922 7.282-1.562 11.313-6.53 4.031-4.954 4.031-12.376 0-9.765-6.64-15.093Q48.25 0 35.984 0H9.812z" id="DejaVuSans-66"/><path d="M45.406 27.984q0 9.766-4.031 15.125-4.016 5.375-11.297 5.375-7.219 0-11.25-5.375-4.031-5.359-4.031-15.125 0-9.718 4.031-15.093t11.25-5.375q7.281 0 11.297 5.375 4.031 5.375 4.031 15.093zm8.985-21.203q0-13.953-6.203-20.765Q42-20.797 29.203-20.797q-4.734 0-8.937.703-4.203.703-8.157 2.172v8.735q3.954-2.141 7.813-3.157 3.86-1.031 7.86-1.031 8.843 0 13.234 4.61 4.39 4.609 4.39 13.937v4.453q-2.781-4.844-7.125-7.234Q33.938 0 27.875 0 17.828 0 11.672 7.656q-6.156 7.672-6.156 20.328 0 12.688 6.156 20.344Q17.828 56 27.875 56q6.063 0 10.406-2.39 4.344-2.391 7.125-7.22v8.297h8.985z" id="DejaVuSans-103"/></defs><use xlink:href="#DejaVuSans-66"/><use x="68.604" xlink:href="#DejaVuSans-101"/><use x="130.127" xlink:href="#DejaVuSans-114"/><use x="169.49" xlink:href="#DejaVuSans-103"/><use x="232.967" xlink:href="#DejaVuSans-101"/><use x="294.49" xlink:href="#DejaVuSans-110"/></g><path d="M131.4 169.173h32" style="fill:none;stroke:#0072b2;stroke-linecap:round;stroke-width:1.5" id="line2d_14"/><g style="fill:#696969" transform="matrix(.16 0 0 -.16 176.2 174.773)" id="text_21"><defs><path d="M44.39 34.188q3.172-1.079 6.172-4.594 3-3.516 6.032-9.672L66.609 0H56l-9.313 18.703q-3.624 7.328-7.015 9.719-3.39 2.39-9.25 2.39h-10.75V0h-9.86v72.906h22.266q12.5 0 18.656-5.234 6.157-5.219 6.157-15.766 0-6.89-3.203-11.437-3.204-4.532-9.297-6.282zM19.673 64.797V38.922h12.406q7.125 0 10.766 3.297 3.64 3.297 3.64 9.687 0 6.39-3.64 9.64-3.64 3.25-10.766 3.25z" id="DejaVuSans-82"/><path d="M54.89 33.016V0h-8.984v32.719q0 7.765-3.031 11.61-3.031 3.858-9.078 3.858-7.281 0-11.484-4.64-4.204-4.625-4.204-12.64V0H9.08v75.984h9.03V46.188q3.235 4.937 7.594 7.374Q30.078 56 35.797 56q9.422 0 14.25-5.828 4.844-5.828 4.844-17.156z" id="DejaVuSans-104"/></defs><use xlink:href="#DejaVuSans-82"/><use x="64.982" xlink:href="#DejaVuSans-117"/><use x="128.361" xlink:href="#DejaVuSans-116"/><use x="167.57" xlink:href="#DejaVuSans-104"/><use x="230.949" xlink:href="#DejaVuSans-101"/><use x="292.473" xlink:href="#DejaVuSans-114"/><use x="333.586" xlink:href="#DejaVuSans-102"/><use x="368.791" xlink:href="#DejaVuSans-111"/><use x="429.973" xlink:href="#DejaVuSans-114"/><use x="469.336" xlink:href="#DejaVuSans-100"/></g></g></g></g><defs><clipPath id="pdc1a4fd7f5"><path d="M117 77.76h725.4v498.96H117z"/></clipPath></defs></svg>