<svg height="864" viewBox="0 0 936 648" width="1248" xmlns="http://www.w3.org/2000/svg" xmlns:xlink="http://www.w3.org/1999/xlink"><defs><style>*{stroke-linecap:butt;stroke-linejoin:round}</style></defs><g id="figure_1"><path d="M0 648h936V0H0z" style="fill:#fff" id="patch_1"/><g id="axes_1"><path d="M117 576.72h725.4V77.76H117z" style="fill:none" id="patch_2"/><path clip-path="url(#pdd31ab6024)" d="m149.973 554.04 46.914-.082 3.54-.156 1.771-.275 1.77-.43 1.77-.592 1.771-.898 1.77-1.078 1.77-1.113 2.656-2.125 1.77-1.604 1.77-1.089 1.771-1.076 1.77-.981 1.771-.56 2.656-.277 1.77-.032.885.195 1.77.11 1.77.226.886.027 1.77-.173 2.656.146 1.77.137 2.656-.126 1.77.21 1.77.28 2.656.726 2.655.387.886.098 2.655.6 1.77.083 2.656.233 1.77.084.885-.043 3.541.346 4.426.053.885.12.885-.143 9.737-.183 4.426-.914 1.77-.827 1.77-.931 5.312-3.614 1.77-1.56 3.54-2.096 2.656-1.852 6.197-3.72.885-.361.885-.508 2.656-.988.885-.293 1.77-.33 2.656.246.885.045.885.196 1.77.216 2.656 1.033 1.77.827 1.77.693.886.166 4.426 1.705 1.77.427 3.54 1.232 4.426 1.724 4.426 1.31 1.77.006.886.306 3.54.049.886.442 2.655.863.885-.029.886.16 1.77-.01.885.141.885-.198 2.656.138.885-.185.885-.864 3.54-.893 4.427-.444 1.77-.168.885-.173.885.037 2.656-.707.885-.325.885-.127 3.541-1.096 2.656-1.555.885-.144.885-.372.885-.088.885-.514.885-.325.886-.544 1.77-1.545.885-.433.885-.772 1.77-1.219 1.77-1.587 1.771-1.675 1.77-1.751 2.656-3.99 2.656-4.26 2.655-5.782 1.77-4.537.886-1.77 1.77-4.11 2.656-5.697.885-1.334.885-1.084.885-1.426 1.77-2.2.886 1.76.885-.706.885.221 1.77-.059.886-.655 2.655-2.658 1.77-1.882.886-.722 1.77-2.349.885-3.545.885-2.166.885-1.627.886-1.395.885-.964.885-.549.885-1.266 1.77-1.154.886.342.885-.232.885.088.885.524.885-.234.886.92.885 5.209.885-.271.885.932.885.344.885.062.886.46.885.194.885 3.015.885-2.834.885-.634.885-1.46 1.77-1.785.886-2.518.885-5.796.885-1.017.885-1.63.886-1.082.885-.84.885-.01.885-.247.885-2.686.886 2.593.885.92.885 3.21.885 1.394.885 2.044.885 2.606.886 3.167 1.77 4.717.885 2.022 1.77 4.435 2.656 6.293.885 1.633.885-.021 1.77 3.973 2.656 5.507.885 1.23.885 1.844 1.77 3.336 2.656 5.066.886 1.45.885 2.512 3.54 5.977 2.656 2.924 3.54 2.736.886.637.885.374.885-.042 1.77.303.886.131 2.655 1.177.885-1.017 3.541 1.789 1.77.755 1.77.076 2.656.568 1.77.233.886 1.154.885-.025.885-.63 1.77-.494.886-.323.885-.19.885-.393 1.77-.485.886-.485 2.655-.589.885-.634.885-.152.886.198.885-.33 1.77-.322 1.77-.135.886-.438.885-.227.885.102.885-.283.885.297.885-.132.886.183.885.028 1.77.72 1.77.93.886.417 2.655 2.059 2.656 1.307.885.34 3.54 2.226 1.771.96 1.77.639 4.426 2.597.885.375.886.601 1.77.842 2.655 1.505 1.77.555 2.656.985 1.77 1.057.886.27.885.687.885.153 1.77.64.886 1.538 3.54.89.886.08.885.346 1.77.246.885.019.885-.28.886.311.885.071.885.211.885-1.064 7.967.69 1.77-.125.885-.045.885-1.53.886-.225 1.77.137.885.326 1.77-.884.886-1.002.885-.59 1.77-.071.885-.575.885-.79.886-.641.885.84.885-.923 1.77-.422.885-1.583 1.77-1.874.886-.472.885-1.384.885-.401.886-.24 3.54-6.692.885-2.043 1.77-.903.886-2.233.885-2.558.885-1.524.885-1.783.886-2.473 1.77-1.24.885-2.483.885-1.603.885-2.048.886-1.172.885-1.877 1.77-1.19.885-3.577.886.174.885-1.516 2.655-2.938.885-.13.886-2.537.885.345.885-.446.885-1.422.885-.247.885-1.028.886.048.885-.607.885-.462.885-1.346.885-.462.885.236.886.387.885-.112.885 5.487.885-4.378.885-.385 2.656 1.396.885.075.885-.135.885.22.886 1.183 1.77 1.315.885-.062.885.13.885-3.805.886 4.964.885 1.064 1.77 2.292.885.648.885.154.886 2.618 3.54 4.666.886.695.885.41 1.77 1.938 1.77 1.276.886.785 1.77.739.885 2.062.885.051.885.637 1.77 1.58.886.31.885.106.885 1.47.885.432.886 1.14 1.77 1.424 1.77.39.886.526.885.7.885.349.885.08.885.286 1.77.215.886-.074.885.195 1.77.019 2.656-.336.885-.606.885.129.885-.131.885.626.886-1.178.885-.928.885-.137.885-.698.885-.392 2.656-2.453 1.77-.534.885-.941.886-.284.885-.604.885.978.885 2.258.885 1.065.885-.01.886-1.963.885-.546 1.77-1.549.885-.974.885-.495.886-.093.885-1.118.885-.616.885-.845.885-2.687.886-3.293.885-.774.885-.36.885.39 2.656-.613 1.77-.998.885-1.1.885-3.058.885-2.189.886-2.745.885-4.11.885-.547.885-.203.885-4.448.885-9.88.886-7.652.885-9.971.885-12.725.885-8.021.885-2.472.886-6.211 1.77-40.966 1.77-27.679.885-20.773.886-11.25.885-3.643.885-25.825 1.77-22.635.885-8.247.886-14.117.885-7.604.885-1.484.885 8.9.885-8.482.885-4.29.886.317.885 2.17 1.77 6.518.885 11.654.886 7.512.885 5.63.885 9.85.885 11.092.885 5.117.885 6.779.886 1.452.885 25.583.885 15.263.885 12.648h0" style="fill:none;stroke:#000;stroke-linecap:round;stroke-width:1.5" id="line2d_1"/><path clip-path="url(#pdd31ab6024)" d="m149.973 554.04 47.8-.105 2.655-.352.885-.329.885-.17.885-.471.885-.618 1.77-1.877.886-.77.885-2.646.885-2.066 1.77-4.836.886-3.4.885-2.109 2.655-11.329.886-4.06 1.77-5.85 1.77-5.132.885-1.196.886-1.727 1.77-2.895.885.553.885-2.336.886 1.45.885-1.02 1.77 2.605.885-.536.885.086.886-.274 1.77-1.062.885 1.451 1.77.45.886.626.885 1.685.885-.216.885 2.035.885.656.885.456.886.915.885 2.122.885 1.347 1.77 4.887.886.416.885 1.818.885 2.216.885.79.885 2.004.885 1.705 1.77 2.766.886 1.44.885 1.909.885-.193.885 1.447.886-.096 1.77 1.333.885 1.336 1.77.934.886.135 1.77-.096.885.184 1.77.888.886 1.32.885.372.885.925.885.654.885.473.886-.184.885.834.885.649 1.77.736 1.77 1.498.886.346.885.602 2.655.858.886.062.885.447.885.235 1.77.024.886-.021.885.42.885-1.809.885-.043.885.163.885-.035.886.141 1.77-.06 3.54-.04 1.77.125.886-.1.885 2.064 1.77-.013.886-.032.885-.143.885.002.885-.138.886.221.885.36.885.03.885.43 1.77.002 3.541-.403 2.656-.515 1.77-.018.885-.686.885-.114.885-.377 1.77-.157h.886l.885-.142 1.77.26 2.656.42.885-.025.885-.485 1.77.227.886.33 1.77-.025.885.017.886.294.885.075.885-.173.885.21.885.036 1.77.38.886.374.885.227.885-.076.885-.298 2.656-.026.885-.298.885-.17.885.218 1.77-.29.886.027 4.426-.463.885.016 9.737-1.282 2.655-.994.886-.021.885-.341.885-.048.885-.271.885-.521 3.54-.639.886-.787.885-.34 1.77-.178.886.096.885-.57.885-.248.885-.382 1.77-.061 1.771-1.426.885-.384.885-.559.886.146.885-.193.885-1.12.885-.405 2.656-2.29.885-.62.885-1.25 1.77-.961.885-.189.886-.896.885-1.514.885-.858.885-1.196.885-1.385 1.77-1.85.886-2.283.885-1.495.885-2.08.885-1.524 1.77-6.2.886-.911.885-2.36.885-1.727.885-2.379 1.77-3.142.886-2.095.885-1.632.885-.534 1.77-2.116.886-.748.885.59.885.75.885-1.041.886-.622.885-.267.885-.655.885-2.183.885-.702.885-2.21.886.02.885-1.287.885-.433.885-.694.885.477.885-2.612.886-.338.885-1.723.885.686.885-1.499.885.577.885 1.894.886 1.214.885.916.885.42.885.936.885-.371.886.446.885-1.511.885 2.401 1.77 4.167.885.331.886 1.054.885-.902.885-1.72.885-1.414.885 1.613.885-51.356.886-1.78.885-1.118.885-2.974.885-2.102 1.77-7.22.886-2.78.885-.995.885-3.387.885-2.139.885-.926.886-.523.885-1.57.885 50.624.885 1.755.885.442.885 2.606.886 3.023.885.282.885.4.885 1.28.885-.204.885 3.288.886 2.514.885.407 1.77 1.685.885.363.885 1.583.886 3.352.885 1.885.885-.03.885 2.827.885 1.007.885 1.696.886 1.285.885.471.885 1.168.885 2.416.885 1.626 1.77 4.49.886-.518.885-1.927.885.014.885 1.267.886 1.75.885 2.465.885-.153.885.449.885 1.342.885.086.886-.147.885-.405.885-.238.885-1.818 1.77.816.886.09.885-.7.885-.904.885-.524.885.426.886-1.038.885-.704.885-.256.885-.372.885.287.885-.986.886.343.885-.458.885-.666.885-1.37.885-.744.885-1.272 2.656-2.4.885-.344.885-.14.885-1.481.886-.857.885-1.28.885-.857.885-1.238.885.69.886-1.218.885-.146.885.497.885-.604.885.343.885 1.17.886-.156.885-.416.885 1.507 3.54 4.554.886.112.885 1.811.885.159.885.56 1.77 1.394 2.656 2.937.885 1.457.886.874.885 1.814.885 12.304.885 1.961.885 1.557.885 1.794 1.77 5.205.886 2.09.885 1.287.885 1.966.885 1.014 1.77 3.948.886 2.286.885 1.452.885-9.813 1.77 3.416.886 1.946.885 1.644 1.77 2.006.886.681.885.385.885 2.234.885.913 1.77.63 1.77.094 1.771.281 1.77.098.886.419.885.025.885.161.885.522.885.184 1.77.684 2.656.007 1.77.434 1.77.047 2.656.012 1.77-.108 2.656.235 2.656.103.885-.09.885.075 1.77-.067 4.426.294 1.77-.027 4.427.096 1.77-.132 4.426-.792.885-.197 1.77-.723.885-.243 1.77-.985 1.771-.993.885-.59 1.77-.663.886-.462 2.655-1.97.886-.679 1.77-1.142 2.655-2.043.886-.468 1.77-1.34.885-.365 1.77-1.686 1.77-1.61.886-1.48 1.77-.828 2.656-1.62.885-1.707.885-.664.885-.301.886-.818.885-.244.885-.458.885-.214.885-.802.885.676.886-.618 1.77-.547 1.77-1.207.885 1.291.886-.096 1.77-.634.885 1.611.885-1.484 1.77-.244.886-.6 3.54.068.886-.446.885-.685.885-.401.885-.21.885.352.886-1.94.885 1.228.885-.045.885.46.885.278.885.79.886.413.885.161.885.298 3.54 2.652.886.404 1.77 1.09.885.2 1.77.828.886-.346 2.655.752.886.739.885.31 3.54 2.069.886.8.885.639.885.175 1.77 1.43.886.011.885.181.885.49.885-.35.885.082.885.238.886-.342 3.54-.277.885.344.886-.282.885-.15 1.77.108.885-.374.885.152 1.77-.99 2.656-1.661.886-.697 1.77-1.954 1.77-1.577.885-.74.886-1.26.885-.612.885-1.101 1.77-.724.885-.18.886-.942.885-1.62.885-1.33 1.77-4.514.885-2.374.886-2.03 1.77-2.953.885-2.197.885-2.964.886-3.557.885-2.793.885-2.115 1.77-2.34.885-1.93 1.77-6.103.886-3.462 1.77-8.525.885-4.87.886-8.196 1.77-27.845.885-15.952.885-11.057.885-6.915.886-11.614.885-23.024 1.77-58.17.885-26.52.886-20.477.885-15.698.885-22.634.885-27.198.885-15.156.885-20.92 2.656-43.829.885-10.904.885 3.427 1.77 23.704.886 16.645.885 11.796.885 13.573.885 19.817.885 28.261.886 21.638 1.77 53.963 2.656 61.32 1.77 35.468L805 430.496l2.656 23.147.885 8.75h0" style="fill:none;stroke:#009e73;stroke-linecap:round;stroke-width:1.5" id="line2d_2"/><path clip-path="url(#pdd31ab6024)" d="m149.973 554.04 43.373-.071 4.426-.256 1.77-.53.886-.49.885-1.665.885-.45.885-.204.885-.96.886-1.541.885-.92.885-1.163.885-3.932 1.77-6.27.886-3.369.885-2.9.885-4.125.885-5.473.885-4.503.885-7.372.886-8.925.885-3.39 1.77-11.252.885-2.277.885-.837.886-2.92 1.77-1.961.885.05.885.95.886 1.665.885.45.885 3.195.885 6.065.885-.5 1.77 6.423.886.112.885 1.082.885 2.768.885.602 1.77 3.717.886 1.91.885 2.317.885 4.054.885 2.39.885 1.592 1.77 5.514.886 1.705 1.77 5.555.886 2.185.885 2.86.885 1.04.885.41.885.857.885 1.389.886 2.389 1.77 2.022.885.98.885-.01.885 1.174.886.653 1.77.552.885.817.885-.113 2.656.02.885-2.092.885.51 2.656 1.89.885.326.885-.48.885.337.885.153.886-.143.885 1.185.885.725.885.275.885-.347.885.848.886.418.885-.755.885.49h.885l.885-.225 1.77.276.886.378 3.54.081.886.674.885-2.869.885-.745.885.52.885-.674 2.656.194.885-.06.885-.41.885-.01.886-.5.885-.03.885.112.885-.286.885 2.89.885.418.886-.092.885.562.885.01.885.327 1.77.102.886.429.885.174.885.633.885-.245.885.03 1.77.307.886.275 1.77-.204 2.656-1.072.885.02.885-.449.885-.092.885-.265.886.234.885-.398.885.164 1.77.081.886-.275.885-.092 1.77.46.885.101.885-.204.886-.592 1.77-.899.885-.52 1.77.582.886.776.885.04 2.655.623 1.77-.112.886.235.885 1 .885.164 1.77.786.886-.398.885-.266.885-.806.885-.072.885.317.886-.235.885-.02 1.77.255 1.77-.153.886.367 1.77.204.885.623.885-.05.885-.246.886-.04.885-.235.885.102.885-.01.885-.266 2.656.02 1.77-.347.885-.04.886-.307 1.77-.163 3.54-.868.886.01.885-.255 1.77-1.021.885-.45 1.77-.388.886-.694 2.656-.899.885-.112 2.655-1.746.885-.735 1.77-.388.886-.746.885-.54.885-.746.885-.46 1.77-.612.886-1.369 1.77-1.245.885-.45.886-.765.885-.95.885.01.885-1.276.885-1.869.886-.929.885-.153.885-1.573.885-2.267.885-2.767.885-1.46 1.77-5.064.886-.358 1.77-4.34.885-3.44 1.77-2.42.886-1.981.885-2.635.885-.357 1.77-.266.886-2.001.885 1.807 1.77-2.042.886-.664.885.235.885-.592.885-2.798.885-.704.885-1.42.886.613.885-.398.885.572.885-.082.885 2.675.885-3.257.886 1.348.885-1.103.885 1.215.885-.266.885 1.359.885 2.256 1.77 3.42.886.848.885.388.885-1.878.886-.368.885-1.562.885 2.358 1.77 2.9.885.256.886.132.885-1.725 1.77-1.634.885.694.885-44.642.886-3.022.885-1.542.885-2.053.885-2.45 1.77-6.076.886-1.164.885-.388.885-3.38.885-2.164 1.77-2.237.886-1.838.885 44.336.885 1.522.885.418.885 1.552.886 3.278.885-.704.885.5.885.235.885-1.103 1.77 5.014.886 1.164.885.224.885.644.885-.766.885 1.848.886 3.584.885 1.031.885-1.51.885 1.827.885.541.885.899.886 1.44.885.387.885 1.195.885.909.885 1.072.886 1.654.885 2.134.885-2.113.885-1.583.885.439.885 2.022.886 1.337.885 2.053 1.77-2.094.885.715.885-.858.886-1.47.885-.153.885.082.885-3.635.885 1.072.885-1.318.886-.163.885-1.603.885 1.358.885-1.062.885 1 .886-1.061 1.77-.52.885.734.885.368.885-1.389.886 1.756.885-.786.885.092 1.77-1.715.885-3.145.886-.307.885-.99.885.02.885-.418.885 1.419.885-2.971 1.77-3.34.886-.398 1.77-1.358.886-.633 1.77.256.885-.072.885.225.885 1.582.886-.776.885-.48.885 3.503 1.77 4.125.885 1.256 1.77 4.135.886 1.716 1.77 2.675.885 1.46.886 1.675.885 1.123.885 2.093.885 1.052.885 1.644.886.98.885 1.757.885 2.47.885 1.481.885 1.869.885 1.358 1.77 4.911.886 1.501.885.899.885 1.603.885-9.935.886-.99.885 1.592.885 1.95.885.91.885-.338.885 1.389.886 1.031.885 1.88.885.928.885.43.885.295.886.45.885.633.885 12.804.885 3.86.885.153.885.623.886.327 1.77.153.885.46.885.132.885.429.886.725 1.77.653 2.655.562.886.408.885-.132 1.77.214 1.77.49.886.082 3.54-.204.886-.215 2.655-.122.885.275 1.77.133 1.771-.306.885-.174.885.072 1.77-.03 1.771.101 1.77-.306 3.541.01 2.656.51 1.77.062 2.655-.174 1.77-.214 3.541-.98 1.77-.674.886-.592 1.77-1.46.886-.338.885-.592.885-.388.885-.541 1.77-1.41 2.656-1.95.885-.827.885-.52 1.77-.735 1.771-.511.885.102.885-1.133.885-.552.886-.745.885-.296.885-1.072.885.98.885-.102 1.77-1.532.886-.265.885-1.44.885-.684.885-.5.886-.685.885.307.885-.5.885.163.885-.797.885.153.886-1.572.885-.296.885.286.885.01.885-.44.885 1.492.886-.215.885-.071.885-.307.885 1.256.885-.806 1.77-.358.886-.02 1.77.265.885-.316.886-.03.885-.225.885-.5.885-.062.885-.204.885.378.886-1.032.885.756 1.77-.01.885.214.885.082.886-.174.885.715 1.77.04.885.062.886.378.885.766.885.224.885.072 1.77.868.886 1.062.885.439.885.214.885.715.885.122.885.388.886.705.885.541.885.051.885.358.885.224 2.656 2.308.885-.082 1.77 1.246.886-.541.885-.123.885.388.885-.092.885-.234.885.52.886-.122.885.081.885-.224.885-.409.885-.092.885.297 1.77-.194 1.771.755 2.656.398.885-.122.885-.868.885-.398 5.311-5.27.885-.428.886-1.297.885-.715.885-.867 1.77-1.042.885.02.886-.51.885-1.113.885-.786 1.77-2.86.885-1.184.886-.796 2.655-4.759 1.77-5.268 1.77-3.89.886-1.267.885-.817.885-2.93.886-3.41.885-4.034 1.77-10.068.885-3.503.885-5.299.886-10.589.885-14.346 1.77-38.087.885-11.988.885-9.19.886-15.806.885-28.202.885-35.616 1.77-56.773 1.77-30.112 1.771-50.748.885-13.336.885-17.828 1.77-22.383.886-14.03.885-6.892.885 8.465.885 20.412.886 12.457.885 19.32.885 7.249.885 10.854.885 20.412.885 28.53.886 18.215 1.77 54.241.885 16.552 2.656 60.01 1.77 32.9.885 11.63.885 13.478 2.656 24.394.885 10.711h0" style="fill:none;stroke:#d55e00;stroke-linecap:round;stroke-width:1.5" id="line2d_3"/><path clip-path="url(#pdd31ab6024)" d="M149.973 554.04h50.455l.885-1.04h1.77l.885-.52h.886l1.77-3.12.885-3.12.885-.521.885-1.56.886-1.04.885-2.6 1.77-7.801h.885l.885-3.12.886-8.322.885-5.2.885-1.56.885-1.04h.885l.885-2.08.886-3.121.885.52.885 1.04.885-.52.885 2.08.886 1.56.885-1.56.885.52.885 6.76.885 5.722.885-1.04.886 1.04.885-1.04.885 2.6h2.655l.886.52.885 2.08 2.655 3.12h1.77l.886 2.6.885 1.56 1.77 5.202.886 3.12.885 1.04h.885l.885.52.885-2.08.885.52 1.77 2.08.886 1.56h1.77l.885-.52h1.77l.886.52h1.77l.885 2.08.886 1.56 1.77 1.04.885-.52h1.77l.886-1.56h7.081l.885-.52h.885l.886.52h1.77l.885 1.56h5.311l.885-1.04.886.52h.885l.885-.52h2.655l.886-2.08.885.52.885-.52h3.54l.886-2.08.885-.52.885.52h.885l.885-.52h1.77l.886 1.04.885-.52.885.52h3.541l.885 3.12.885-1.04.886-.52h.885l.885 1.04h1.77l1.77 1.04h.886l.885-.52h2.655l.886-.52.885 1.56h.885l.885.52h2.656l.885.52h.885l.885-.52.885.52.886-.52h3.54l.885.52 1.77-1.04h2.656l.885-1.04h.886l.885-.52.885.52h3.54l.886-2.08 1.77 1.04h2.656l.885-.52 1.77 1.04h4.426l.885 1.04.885-.52h2.656l.885-1.56.885 1.56.886-.52h3.54l.885.52h.886l.885 1.04.885.52h2.655l.886.52.885-.52.885-2.08.885-4.68.885-1.04h1.77l.886-1.04.885-3.12.885-.52 1.77-5.201 1.77-3.12h.886l1.77 1.04.886 4.68.885 1.04h1.77l.885-2.08.885 1.04.886-2.08h1.77l1.77 3.12.885-5.2.886-.52 1.77-3.12.885-2.601h1.77l.886-6.76h.885l.885 2.6.885-6.241.885-1.04h1.77l.886-2.08.885-5.721 1.77-5.201.886-4.68.885-2.6h.885l.885 2.6.885-2.08.885-3.121.886 8.84.885 3.641.885-10.4h.885l.885 1.04.886 2.6.885.52.885-4.16.885-5.201.885-3.12h.885l.886 1.56.885-2.08.885.52.885-9.362.885-4.68.885 10.4h1.77l.886-1.04.885 2.08.885 8.322.885 3.64.886 5.72h.885l.885-8.32.885 2.6.885-11.441.886 6.76.885 4.681h1.77l.885-8.32.885 2.08 1.77-11.962.886 8.841h1.77l.885-3.12.886-5.72.885 6.76.885-5.2.885-6.241.885-5.201h.885l.886 4.16.885-3.12.885 2.08.885.52.885-5.2h1.77l.886 17.162.885-1.56.885 2.08.885 5.72 1.77 9.882h.886l.885-4.68.885 3.64.885 4.68.886 2.08.885-3.12.885-2.6h1.77l.885 10.92.886-8.32 1.77-4.16h1.77l.885 7.8.886-1.56.885.52h.885l.885 5.72.885-1.04h1.77l.886-7.28.885 10.921.885 2.6.885 1.04h.886l.885-3.64.885 6.24 1.77 1.041.885-3.64.886-2.08.885 3.64h.885l.885-8.321.885 2.08.885-.52h.886l.885-4.68h.885l.885 3.64.885-5.2.886 1.04.885-2.08.885-.52.885 2.08h1.77l.886-3.641.885 1.56.885-1.04h.885l.885 4.68h1.77l.886-5.2.885-1.04.885.52.885 3.12.885-1.04h.886l.885-4.68.885 6.24.885-.52.885 2.6.886-7.8.885-2.08h1.77l.885 3.64.885-1.04 1.77-1.04h0l.886 1.04.885-.52.885 4.68.885.52.886 1.56.885-1.04.885 3.12.885 2.08.885-2.6h.885l.886 7.281.885 3.64.885 1.561.885.52h.885l.886.52h.885l.885 2.08 1.77 2.08.885 4.161.886-2.08.885 2.08h.885l.885.52h1.77l.886 2.6.885 1.56h1.77l.885 1.04.885 1.561.886 1.04.885 2.08.885 4.68.885.52h.885l.886 1.041.885.52.885 3.12.885.52.885 1.04h1.77l.886 2.08h1.77l.885-1.04h4.426l.885-.52.885.52h3.541l.885-1.56h.886l.885 1.04h4.426l.885.52h4.426l.885 1.56.885.521h.885l.885-2.08h4.426l.885-.52h5.311l.886-.52.885 1.56h3.54l1.77-1.04h5.312l.885-.52.885-2.6h1.77l.886-10.922.885-1.04h.885l1.77-5.2h1.77l.886-3.641.885-1.56.885-.52h.885l.886 2.6h1.77l.885 5.72.885-.52.885-2.6.886.52.885 1.56h1.77l.885-1.56.886.52h.885l.885-1.04.885.52h1.77l.886 4.16.885-.52.885 2.081.885.52.885 1.04h1.77l.886 1.56.885-2.6.885-3.12.885 1.04.885-2.6h1.77l.886 1.04.885-4.16.885-2.081.886 2.6.885-2.6h1.77l.885-1.04.885 2.08.886 1.56.885-3.12.885.52h1.77l.885-6.76.886 5.72.885.52.885-2.6.885 1.04h1.77l.886 2.6h1.77l.885 2.08h2.656l.885 4.68 1.77-1.04.885 2.601.886-4.16h1.77l.885 2.08.885-1.56 2.656 3.12h1.77l.885-2.08.885-.52.886 2.6.885-2.08.885 4.68h1.77l.886-1.04.885 2.6.885 1.04h.885l.885.52h2.656l.885-.52.885.52.885 2.08h2.656l.885-1.56.885-.52.885-4.68.885 1.04.886-3.12h1.77l.885 1.04h.885l.886-1.04.885-1.56.885-.52h1.77l.885-5.201.886-1.56.885 1.04h.885l.885 3.64h1.77l.886-7.28.885-1.56h.885l.885-2.601.885-3.12h1.77l.886 1.04 1.77-5.2 1.77-10.402h1.77l.886 1.56.885-3.12 1.77-15.602.886 1.04.885-21.322.885-6.241.885-2.08.885-9.361.886-16.122.885-11.962.885-6.76.885-1.56.885-3.12.885-2.081 1.77-37.444.886-10.402.885-23.922.885-6.761.886-27.043.885-16.122.885-2.08.885-9.361.885-21.323.885-17.162.886-34.324.885-23.403.885-2.6.885 6.24.885 3.121.885-2.08.886 13.002.885 17.161.885 24.443 1.77 19.242.885 22.883.886 31.204 1.77 45.765.885 23.403.885 11.961.886 14.562.885 22.882 1.77 29.124.885 4.16.885 6.761.886 13.001.885 4.16 2.655 18.203h0" style="fill:none;stroke:#0072b2;stroke-linecap:round;stroke-width:1.5" id="line2d_4"/><path d="M117 576.72V77.76" style="fill:none;stroke:#d3d3d3;stroke-linecap:square;stroke-linejoin:miter;stroke-width:1.25" id="patch_3"/><path d="M117 576.72h725.4" style="fill:none;stroke:#d3d3d3;stroke-linecap:square;stroke-linejoin:miter;stroke-width:1.25" id="patch_4"/><g id="matplotlib.axis_1"><g id="xtick_1"><g style="fill:#696969" transform="matrix(.16 0 0 -.16 119.937 598.378)" id="text_1"><defs><path d="M9.813 72.906h9.859V5.078q0-13.187-5-19.14-5-5.954-16.094-5.954h-3.75v8.297h3.078q6.531 0 9.219 3.672Q9.813-4.39 9.813 5.078z" id="DejaVuSans-74"/><path d="M34.281 27.484q-10.89 0-15.093-2.484-4.204-2.484-4.204-8.5 0-4.781 3.157-7.594 3.156-2.797 8.562-2.797 7.485 0 12 5.297 4.516 5.297 4.516 14.078v2zm17.922 3.72V0H43.22v8.297Q40.14 3.328 35.547.953q-4.594-2.375-11.234-2.375-8.391 0-13.36 4.719Q6 8.016 6 15.922q0 9.219 6.172 13.906 6.187 4.688 18.437 4.688h12.61v.89q0 6.203-4.078 9.594-4.078 3.39-11.453 3.39-4.688 0-9.141-1.124-4.438-1.125-8.531-3.375v8.312q4.921 1.906 9.562 2.844 4.64.953 9.031.953 11.875 0 17.735-6.156 5.86-6.14 5.86-18.64z" id="DejaVuSans-97"/><path d="M54.89 33.016V0h-8.984v32.719q0 7.765-3.031 11.61-3.031 3.858-9.078 3.858-7.281 0-11.484-4.64-4.204-4.625-4.204-12.64V0H9.08v54.688h9.03v-8.5q3.235 4.937 7.594 7.374Q30.078 56 35.797 56q9.422 0 14.25-5.828 4.844-5.828 4.844-17.156z" id="DejaVuSans-110"/></defs><use xlink:href="#DejaVuSans-74"/><use x="29.492" xlink:href="#DejaVuSans-97"/><use x="90.771" xlink:href="#DejaVuSans-110"/></g></g><g id="xtick_2"><g style="fill:#696969" transform="matrix(.16 0 0 -.16 198.98 598.378)" id="text_2"><defs><path d="M34.188 63.188 20.797 26.906h26.812zm-5.579 9.718h11.188L67.578 0h-10.25l-6.64 18.703h-32.86L11.188 0H.78z" id="DejaVuSans-65"/><path d="M18.11 8.203v-29H9.077v75.484h9.031v-8.296q2.844 4.875 7.157 7.234Q29.594 56 35.594 56q9.968 0 16.187-7.906 6.235-7.907 6.235-20.797T51.78 6.484q-6.218-7.906-16.187-7.906-6 0-10.328 2.375-4.313 2.375-7.157 7.25zm30.578 19.094q0 9.906-4.079 15.547-4.078 5.64-11.203 5.64-7.14 0-11.218-5.64-4.079-5.64-4.079-15.547 0-9.906 4.078-15.547 4.079-5.64 11.22-5.64 7.124 0 11.202 5.64t4.078 15.547z" id="DejaVuSans-112"/><path d="M41.11 46.297q-1.516.875-3.297 1.281Q36.03 48 33.89 48q-7.625 0-11.703-4.953-4.079-4.953-4.079-14.234V0H9.08v54.688h9.03v-8.5q2.844 4.984 7.375 7.39Q30.031 56 36.531 56q.922 0 2.047-.125 1.125-.11 2.484-.36z" id="DejaVuSans-114"/></defs><use xlink:href="#DejaVuSans-65"/><use x="68.408" xlink:href="#DejaVuSans-112"/><use x="131.885" xlink:href="#DejaVuSans-114"/></g></g><g id="xtick_3"><g style="fill:#696969" transform="matrix(.16 0 0 -.16 283.718 598.378)" id="text_3"><defs><path d="M8.5 21.578v33.11h8.984V21.922q0-7.766 3.016-11.656 3.031-3.875 9.094-3.875 7.265 0 11.484 4.64 4.234 4.64 4.234 12.656v31h8.985V0h-8.984v8.406Q42.047 3.422 37.718 1q-4.313-2.422-10.032-2.422-9.421 0-14.312 5.86Q8.5 10.296 8.5 21.578zM31.11 56z" id="DejaVuSans-117"/><path d="M9.422 75.984h8.984V0H9.422z" id="DejaVuSans-108"/></defs><use xlink:href="#DejaVuSans-74"/><use x="29.492" xlink:href="#DejaVuSans-117"/><use x="92.871" xlink:href="#DejaVuSans-108"/></g></g><g id="xtick_4"><g style="fill:#696969" transform="matrix(.16 0 0 -.16 360.974 598.378)" id="text_4"><defs><path d="M39.406 66.219q-10.75 0-17.078-8.016-6.312-8-6.312-21.828 0-13.766 6.312-21.781 6.328-8 17.078-8 10.735 0 17.016 8 6.281 8.015 6.281 21.781 0 13.828-6.281 21.828-6.281 8.016-17.016 8.016zm0 8q15.328 0 24.5-10.281 9.188-10.282 9.188-27.563 0-17.234-9.188-27.516-9.172-10.28-24.5-10.28-15.375 0-24.593 10.25-9.204 10.265-9.204 27.546t9.204 27.563q9.218 10.28 24.593 10.28z" id="DejaVuSans-79"/><path d="M48.781 52.594v-8.407q-3.812 2.11-7.64 3.157-3.828 1.047-7.735 1.047-8.75 0-13.593-5.547-4.829-5.532-4.829-15.547 0-10.016 4.829-15.563 4.843-5.53 13.593-5.53 3.907 0 7.735 1.046 3.828 1.047 7.64 3.156V2.094Q45.016.344 40.984-.531q-4.015-.89-8.562-.89-12.36 0-19.64 7.765-7.266 7.765-7.266 20.953 0 13.375 7.343 21.031Q20.22 56 33.016 56q4.14 0 8.093-.86 3.953-.843 7.672-2.546z" id="DejaVuSans-99"/><path d="M18.313 70.219V54.688h18.5v-6.985h-18.5V18.016q0-6.688 1.828-8.594 1.828-1.906 7.453-1.906h9.218V0h-9.218q-10.407 0-14.36 3.875-3.953 3.89-3.953 14.14v29.688H2.687v6.984h6.594V70.22z" id="DejaVuSans-116"/></defs><use xlink:href="#DejaVuSans-79"/><use x="78.711" xlink:href="#DejaVuSans-99"/><use x="133.691" xlink:href="#DejaVuSans-116"/></g></g><g id="xtick_5"><g style="fill:#696969" transform="matrix(.16 0 0 -.16 443.91 598.378)" id="text_5"><use xlink:href="#DejaVuSans-74"/><use x="29.492" xlink:href="#DejaVuSans-97"/><use x="90.771" xlink:href="#DejaVuSans-110"/></g></g><g id="xtick_6"><g style="fill:#696969" transform="matrix(.16 0 0 -.16 522.069 598.378)" id="text_6"><use xlink:href="#DejaVuSans-65"/><use x="68.408" xlink:href="#DejaVuSans-112"/><use x="131.885" xlink:href="#DejaVuSans-114"/></g></g><g id="xtick_7"><g style="fill:#696969" transform="matrix(.16 0 0 -.16 606.807 598.378)" id="text_7"><use xlink:href="#DejaVuSans-74"/><use x="29.492" xlink:href="#DejaVuSans-117"/><use x="92.871" xlink:href="#DejaVuSans-108"/></g></g><g id="xtick_8"><g style="fill:#696969" transform="matrix(.16 0 0 -.16 684.063 598.378)" id="text_8"><use xlink:href="#DejaVuSans-79"/><use x="78.711" xlink:href="#DejaVuSans-99"/><use x="133.691" xlink:href="#DejaVuSans-116"/></g></g><g id="xtick_9"><g style="fill:#696969" transform="matrix(.16 0 0 -.16 766.999 598.378)" id="text_9"><use xlink:href="#DejaVuSans-74"/><use x="29.492" xlink:href="#DejaVuSans-97"/><use x="90.771" xlink:href="#DejaVuSans-110"/></g></g></g><g id="matplotlib.axis_2"><g id="ytick_1"><g style="fill:#696969" transform="matrix(.16 0 0 -.16 97.32 560.119)" id="text_10"><defs><path d="M31.781 66.406q-7.61 0-11.453-7.5Q16.5 51.422 16.5 36.375q0-14.984 3.828-22.484 3.844-7.5 11.453-7.5 7.672 0 11.5 7.5 3.844 7.5 3.844 22.484 0 15.047-3.844 22.531-3.828 7.5-11.5 7.5zm0 7.813q12.266 0 18.735-9.703 6.468-9.688 6.468-28.141 0-18.406-6.468-28.11-6.47-9.687-18.735-9.687-12.25 0-18.718 9.688-6.47 9.703-6.47 28.109 0 18.453 6.47 28.14Q19.53 74.22 31.78 74.22z" id="DejaVuSans-48"/></defs><use xlink:href="#DejaVuSans-48"/></g></g><g id="ytick_2"><g style="fill:#696969" transform="matrix(.16 0 0 -.16 87.14 493.488)" id="text_11"><defs><path d="M10.797 72.906h38.719v-8.312H19.828v-17.86q2.14.735 4.281 1.094 2.157.36 4.313.36 12.203 0 19.328-6.688 7.14-6.688 7.14-18.11 0-11.765-7.328-18.296-7.328-6.516-20.656-6.516-4.593 0-9.36.781-4.75.782-9.827 2.344v9.922q4.39-2.39 9.078-3.563 4.687-1.171 9.906-1.171 8.453 0 13.375 4.437 4.938 4.438 4.938 12.063 0 7.609-4.938 12.047-4.922 4.453-13.375 4.453-3.953 0-7.89-.875-3.922-.875-8.016-2.735z" id="DejaVuSans-53"/></defs><use xlink:href="#DejaVuSans-53"/><use x="63.623" xlink:href="#DejaVuSans-48"/></g></g><g id="ytick_3"><g style="fill:#696969" transform="matrix(.16 0 0 -.16 76.96 426.858)" id="text_12"><defs><path d="M12.406 8.297h16.11v55.625l-17.532-3.516v8.985l17.438 3.515h9.86V8.296H54.39V0H12.406z" id="DejaVuSans-49"/></defs><use xlink:href="#DejaVuSans-49"/><use x="63.623" xlink:href="#DejaVuSans-48"/><use x="127.246" xlink:href="#DejaVuSans-48"/></g></g><g id="ytick_4"><g style="fill:#696969" transform="matrix(.16 0 0 -.16 76.96 360.227)" id="text_13"><use xlink:href="#DejaVuSans-49"/><use x="63.623" xlink:href="#DejaVuSans-53"/><use x="127.246" xlink:href="#DejaVuSans-48"/></g></g><g id="ytick_5"><g style="fill:#696969" transform="matrix(.16 0 0 -.16 76.96 293.596)" id="text_14"><defs><path d="M19.188 8.297h34.421V0H7.33v8.297q5.609 5.812 15.296 15.594 9.703 9.797 12.188 12.64 4.734 5.313 6.609 9 1.89 3.688 1.89 7.25 0 5.813-4.078 9.469-4.078 3.672-10.625 3.672-4.64 0-9.797-1.61-5.14-1.609-11-4.89v9.969Q13.767 71.78 18.938 73q5.188 1.219 9.485 1.219 11.328 0 18.062-5.672 6.735-5.656 6.735-15.125 0-4.5-1.688-8.531-1.672-4.016-6.125-9.485-1.218-1.422-7.765-8.187-6.532-6.766-18.453-18.922z" id="DejaVuSans-50"/></defs><use xlink:href="#DejaVuSans-50"/><use x="63.623" xlink:href="#DejaVuSans-48"/><use x="127.246" xlink:href="#DejaVuSans-48"/></g></g><g id="ytick_6"><g style="fill:#696969" transform="matrix(.16 0 0 -.16 76.96 226.966)" id="text_15"><use xlink:href="#DejaVuSans-50"/><use x="63.623" xlink:href="#DejaVuSans-53"/><use x="127.246" xlink:href="#DejaVuSans-48"/></g></g><g id="ytick_7"><g style="fill:#696969" transform="matrix(.16 0 0 -.16 76.96 160.335)" id="text_16"><defs><path d="M40.578 39.313Q47.656 37.797 51.625 33q3.984-4.781 3.984-11.813 0-10.78-7.422-16.703-7.421-5.906-21.093-5.906-4.578 0-9.438.906-4.86.907-10.031 2.72v9.515q4.094-2.39 8.969-3.61 4.89-1.218 10.218-1.218 9.266 0 14.125 3.656 4.86 3.656 4.86 10.64 0 6.454-4.516 10.079-4.515 3.64-12.562 3.64h-8.5v8.11h8.89q7.266 0 11.125 2.906 3.86 2.906 3.86 8.375 0 5.61-3.985 8.61-3.968 3.015-11.39 3.015-4.063 0-8.703-.89-4.641-.876-10.203-2.72v8.782q5.624 1.562 10.53 2.344 4.907.78 9.25.78 11.235 0 17.766-5.109 6.547-5.093 6.547-13.78 0-6.063-3.468-10.235-3.47-4.172-9.86-5.782z" id="DejaVuSans-51"/></defs><use xlink:href="#DejaVuSans-51"/><use x="63.623" xlink:href="#DejaVuSans-48"/><use x="127.246" xlink:href="#DejaVuSans-48"/></g></g><g id="ytick_8"><g style="fill:#696969" transform="matrix(.16 0 0 -.16 76.96 93.705)" id="text_17"><use xlink:href="#DejaVuSans-51"/><use x="63.623" xlink:href="#DejaVuSans-53"/><use x="127.246" xlink:href="#DejaVuSans-48"/></g></g><g style="fill:#696969" transform="matrix(0 -.2 -.2 0 68.8 379.813)" id="text_18"><defs><path d="M51.125 44H36.922l-4.11-16.313h14.313zm-7.328 27.781-5.078-20.265h14.265L58.11 71.78h7.813L60.89 51.516h15.234V44h-17.14l-4-16.313h15.53V20.22H53.079L48 0h-7.813l5.032 20.219H30.906L25.875 0h-7.86l5.079 20.219H7.719v7.468h17.187L29 44H13.281v7.516h17.625l4.985 20.265z" id="DejaVuSans-35"/><path d="M30.61 48.39q-7.22 0-11.422-5.64-4.204-5.64-4.204-15.453 0-9.813 4.172-15.453 4.188-5.64 11.453-5.64 7.188 0 11.375 5.655 4.203 5.672 4.203 15.438 0 9.719-4.203 15.406-4.187 5.688-11.375 5.688zm0 7.61q11.718 0 18.406-7.625 6.703-7.61 6.703-21.078 0-13.422-6.703-21.078-6.688-7.64-18.407-7.64-11.765 0-18.437 7.64-6.656 7.656-6.656 21.078 0 13.469 6.656 21.078Q18.844 56 30.609 56z" id="DejaVuSans-111"/><path d="M37.11 75.984V68.5h-8.594q-4.828 0-6.72-1.953-1.874-1.953-1.874-7.031v-4.828h14.797v-6.985H19.922V0H10.89v47.703H2.297v6.984h8.594V58.5q0 9.125 4.25 13.297 4.25 4.187 13.468 4.187z" id="DejaVuSans-102"/><path d="M44.281 53.078v-8.5q-3.797 1.953-7.906 2.922-4.094.984-8.5.984-6.688 0-10.031-2.047-3.344-2.046-3.344-6.156 0-3.125 2.39-4.906 2.391-1.781 9.626-3.39l3.078-.688q9.562-2.047 13.593-5.781 4.032-3.735 4.032-10.422 0-7.625-6.032-12.078-6.03-4.438-16.578-4.438-4.39 0-9.156.86Q10.688.296 5.422 2v9.281q4.984-2.594 9.812-3.89 4.829-1.282 9.579-1.282 6.343 0 9.75 2.172 3.421 2.172 3.421 6.125 0 3.656-2.468 5.61-2.453 1.953-10.813 3.765l-3.125.735q-8.344 1.75-12.062 5.39-3.704 3.64-3.704 9.985 0 7.718 5.47 11.906Q16.75 56 26.811 56q4.97 0 9.36-.734 4.406-.72 8.11-2.188z" id="DejaVuSans-115"/><path d="M56.203 29.594v-4.39H14.891q.593-9.282 5.593-14.142 5-4.859 13.938-4.859 5.172 0 10.031 1.266 4.86 1.265 9.656 3.812v-8.5Q49.266.734 44.187-.344 39.11-1.422 33.892-1.422q-13.094 0-20.735 7.61-7.64 7.625-7.64 20.625 0 13.421 7.25 21.296Q20.016 56 32.328 56q11.031 0 17.453-7.11 6.422-7.093 6.422-19.296zm-8.984 2.64q-.094 7.36-4.125 11.75-4.032 4.407-10.672 4.407-7.516 0-12.031-4.25-4.516-4.25-5.203-11.97z" id="DejaVuSans-101"/></defs><use xlink:href="#DejaVuSans-35"/><use x="83.789" xlink:href="#DejaVuSans-32"/><use x="115.576" xlink:href="#DejaVuSans-111"/><use x="176.758" xlink:href="#DejaVuSans-102"/><use x="211.963" xlink:href="#DejaVuSans-32"/><use x="243.75" xlink:href="#DejaVuSans-99"/><use x="298.73" xlink:href="#DejaVuSans-97"/><use x="360.01" xlink:href="#DejaVuSans-115"/><use x="412.109" xlink:href="#DejaVuSans-101"/><use x="473.633" xlink:href="#DejaVuSans-115"/></g></g><g style="fill:#696969" transform="matrix(.24 0 0 -.24 202.252 71.76)" id="text_19"><defs><path d="M9.813 72.906h13.28l32.329-60.984v60.984h9.562V0h-13.28L19.39 60.984V0H9.813z" id="DejaVuSans-78"/><path d="M4.203 54.688h8.985l11.234-42.672 11.172 42.672h10.593l11.235-42.672 11.187 42.672h8.985L63.28 0H52.688L40.922 44.828 29.109 0H18.5z" id="DejaVuSans-119"/><path d="M64.406 67.281v-10.39q-4.984 4.64-10.625 6.922-5.64 2.296-11.984 2.296-12.5 0-19.14-7.64-6.641-7.64-6.641-22.094 0-14.406 6.64-22.047 6.64-7.64 19.14-7.64 6.345 0 11.985 2.296 5.64 2.297 10.625 6.938V5.609Q59.234 2.094 53.437.33q-5.78-1.75-12.218-1.75-16.563 0-26.094 10.124-9.516 10.14-9.516 27.672 0 17.578 9.516 27.703 9.531 10.14 26.094 10.14 6.531 0 12.312-1.734 5.797-1.734 10.875-5.203z" id="DejaVuSans-67"/><path d="M25.39 72.906h8.297L8.297-9.28H0z" id="DejaVuSans-47"/><path d="M9.813 72.906h9.859V42.094L52.39 72.906h12.703L28.906 38.922 67.672 0H54.688L19.672 35.11V0h-9.86z" id="DejaVuSans-75"/><path d="M9.422 54.688h8.984V0H9.422zm0 21.296h8.984v-11.39H9.422z" id="DejaVuSans-105"/><path d="M45.406 46.39v29.594h8.985V0h-8.985v8.203Q42.578 3.328 38.25.953q-4.313-2.375-10.375-2.375-9.906 0-16.14 7.906-6.22 7.922-6.22 20.813 0 12.89 6.22 20.797Q17.968 56 27.874 56q6.063 0 10.375-2.375 4.328-2.36 7.156-7.234zm-30.61-19.093q0-9.906 4.079-15.547 4.078-5.64 11.203-5.64 7.125 0 11.219 5.64 4.11 5.64 4.11 15.547 0 9.906-4.11 15.547-4.094 5.64-11.219 5.64-7.125 0-11.203-5.64-4.078-5.64-4.078-15.547z" id="DejaVuSans-100"/><path d="M4.89 31.39h26.313v-8H4.891z" id="DejaVuSans-45"/><path d="M37.797 64.313 12.89 25.39h24.906zm-2.594 8.593H47.61V25.391h10.407v-8.203H47.609V0h-9.812v17.188H4.89v9.515z" id="DejaVuSans-52"/><path d="M32.172-5.078q-3.797-9.766-7.422-12.735-3.61-2.984-9.656-2.984H7.906v7.516h5.282q3.703 0 5.75 1.765Q21-9.766 23.483-3.219l1.61 4.094-22.11 53.813H12.5l17.094-42.766 17.093 42.766h9.516z" id="DejaVuSans-121"/><path d="M2.984 54.688H12.5L29.594 8.797l17.093 45.89h9.516L35.687 0H23.485z" id="DejaVuSans-118"/><path d="M45.406 27.984q0 9.766-4.031 15.125-4.016 5.375-11.297 5.375-7.219 0-11.25-5.375-4.031-5.359-4.031-15.125 0-9.718 4.031-15.093t11.25-5.375q7.281 0 11.297 5.375 4.031 5.375 4.031 15.093zm8.985-21.203q0-13.953-6.203-20.765Q42-20.797 29.203-20.797q-4.734 0-8.937.703-4.203.703-8.157 2.172v8.735q3.954-2.141 7.813-3.157 3.86-1.031 7.86-1.031 8.843 0 13.234 4.61 4.39 4.609 4.39 13.937v4.453q-2.781-4.844-7.125-7.234Q33.938 0 27.875 0 17.828 0 11.672 7.656q-6.156 7.672-6.156 20.328 0 12.688 6.156 20.344Q17.828 56 27.875 56q6.063 0 10.406-2.39 4.344-2.391 7.125-7.22v8.297h8.985z" id="DejaVuSans-103"/></defs><use xlink:href="#DejaVuSans-78"/><use x="74.805" xlink:href="#DejaVuSans-101"/><use x="136.328" xlink:href="#DejaVuSans-119"/><use x="218.115" xlink:href="#DejaVuSans-32"/><use x="249.902" xlink:href="#DejaVuSans-67"/><use x="319.727" xlink:href="#DejaVuSans-97"/><use x="381.006" xlink:href="#DejaVuSans-115"/><use x="433.105" xlink:href="#DejaVuSans-101"/><use x="494.629" xlink:href="#DejaVuSans-115"/><use x="546.729" xlink:href="#DejaVuSans-32"/><use x="578.516" xlink:href="#DejaVuSans-47"/><use x="612.207" xlink:href="#DejaVuSans-32"/><use x="643.994" xlink:href="#DejaVuSans-49"/><use x="707.617" xlink:href="#DejaVuSans-48"/><use x="771.24" xlink:href="#DejaVuSans-48"/><use x="834.863" xlink:href="#DejaVuSans-75"/><use x="900.439" xlink:href="#DejaVuSans-32"/><use x="932.227" xlink:href="#DejaVuSans-114"/><use x="971.09" xlink:href="#DejaVuSans-101"/><use x="1032.613" xlink:href="#DejaVuSans-115"/><use x="1084.713" xlink:href="#DejaVuSans-105"/><use x="1112.496" xlink:href="#DejaVuSans-100"/><use x="1175.973" xlink:href="#DejaVuSans-101"/><use x="1237.496" xlink:href="#DejaVuSans-110"/><use x="1300.875" xlink:href="#DejaVuSans-116"/><use x="1340.084" xlink:href="#DejaVuSans-115"/><use x="1392.184" xlink:href="#DejaVuSans-32"/><use x="1423.971" xlink:href="#DejaVuSans-45"/><use x="1460.055" xlink:href="#DejaVuSans-45"/><use x="1496.139" xlink:href="#DejaVuSans-32"/><use x="1527.926" xlink:href="#DejaVuSans-49"/><use x="1591.549" xlink:href="#DejaVuSans-52"/><use x="1655.172" xlink:href="#DejaVuSans-32"/><use x="1686.959" xlink:href="#DejaVuSans-100"/><use x="1750.436" xlink:href="#DejaVuSans-97"/><use x="1811.715" xlink:href="#DejaVuSans-121"/><use x="1870.895" xlink:href="#DejaVuSans-32"/><use x="1902.682" xlink:href="#DejaVuSans-97"/><use x="1963.961" xlink:href="#DejaVuSans-118"/><use x="2023.141" xlink:href="#DejaVuSans-101"/><use x="2084.664" xlink:href="#DejaVuSans-114"/><use x="2125.777" xlink:href="#DejaVuSans-97"/><use x="2187.057" xlink:href="#DejaVuSans-103"/><use x="2250.533" xlink:href="#DejaVuSans-101"/></g><g id="legend_1"><path d="M128.2 184.5h136.45q3.2 0 3.2-3.2V88.96q0-3.2-3.2-3.2H128.2q-3.2 0-3.2 3.2v92.34q0 3.2 3.2 3.2z" style="fill:none;opacity:.8;stroke:#ccc;stroke-linejoin:miter" id="patch_5"/><path d="M131.4 98.718h32" style="fill:none;stroke:#000;stroke-linecap:round;stroke-width:1.5" id="line2d_5"/><g style="fill:#696969" transform="matrix(.16 0 0 -.16 176.2 104.317)" id="text_20"><defs><path d="M8.688 72.906h9.921V28.61q0-11.718 4.235-16.875 4.25-5.14 13.781-5.14 9.469 0 13.719 5.14 4.25 5.157 4.25 16.875v44.297H64.5V27.391q0-14.25-7.063-21.532-7.046-7.28-20.812-7.28-13.828 0-20.89 7.28-7.047 7.282-7.047 21.532z" id="DejaVuSans-85"/><path d="M53.516 70.516V60.89q-5.61 2.687-10.594 4-4.984 1.328-9.625 1.328-8.047 0-12.422-3.125t-4.375-8.89q0-4.845 2.906-7.313 2.907-2.453 11.016-3.97l5.953-1.218q11.031-2.11 16.281-7.406 5.25-5.297 5.25-14.172 0-10.61-7.11-16.078-7.093-5.469-20.812-5.469-5.172 0-11.015 1.172Q13.14.922 6.89 3.219v10.156q6-3.36 11.765-5.078 5.766-1.703 11.328-1.703 8.438 0 13.032 3.312 4.593 3.328 4.593 9.485 0 5.359-3.297 8.39-3.296 3.032-10.812 4.547L27.484 33.5q-11.03 2.188-15.968 6.875-4.922 4.688-4.922 13.047 0 9.672 6.812 15.234 6.813 5.563 18.766 5.563 5.14 0 10.453-.938 5.328-.922 10.89-2.765z" id="DejaVuSans-83"/></defs><use xlink:href="#DejaVuSans-85"/><use x="73.193" xlink:href="#DejaVuSans-83"/></g><path d="M131.4 122.203h32" style="fill:none;stroke:#009e73;stroke-linecap:round;stroke-width:1.5" id="line2d_7"/><g style="fill:#696969" transform="matrix(.16 0 0 -.16 176.2 127.802)" id="text_21"><use xlink:href="#DejaVuSans-78"/><use x="74.805" xlink:href="#DejaVuSans-74"/></g><path d="M131.4 145.688h32" style="fill:none;stroke:#d55e00;stroke-linecap:round;stroke-width:1.5" id="line2d_9"/><g style="fill:#696969" transform="matrix(.16 0 0 -.16 176.2 151.287)" id="text_22"><defs><path d="M19.672 34.813V8.108H35.5q7.953 0 11.781 3.297 3.844 3.297 3.844 10.078 0 6.844-3.844 10.078-3.828 3.25-11.781 3.25zm0 29.984V42.828h14.61q7.218 0 10.75 2.703 3.546 2.719 3.546 8.282 0 5.515-3.547 8.25-3.531 2.734-10.75 2.734zm-9.86 8.11h25.204q11.28 0 17.375-4.688Q58.5 63.53 58.5 54.89q0-6.703-3.125-10.657-3.125-3.953-9.188-4.922 7.282-1.562 11.313-6.53 4.031-4.954 4.031-12.376 0-9.765-6.64-15.093Q48.25 0 35.984 0H9.812z" id="DejaVuSans-66"/></defs><use xlink:href="#DejaVuSans-66"/><use x="68.604" xlink:href="#DejaVuSans-101"/><use x="130.127" xlink:href="#DejaVuSans-114"/><use x="169.49" xlink:href="#DejaVuSans-103"/><use x="232.967" xlink:href="#DejaVuSans-101"/><use x="294.49" xlink:href="#DejaVuSans-110"/></g><path d="M131.4 169.173h32" style="fill:none;stroke:#0072b2;stroke-linecap:round;stroke-width:1.5" id="line2d_11"/><g style="fill:#696969" transform="matrix(.16 0 0 -.16 176.2 174.773)" id="text_23"><defs><path d="M44.39 34.188q3.172-1.079 6.172-4.594 3-3.516 6.032-9.672L66.609 0H56l-9.313 18.703q-3.624 7.328-7.015 9.719-3.39 2.39-9.25 2.39h-10.75V0h-9.86v72.906h22.266q12.5 0 18.656-5.234 6.157-5.219 6.157-15.766 0-6.89-3.203-11.437-3.204-4.532-9.297-6.282zM19.673 64.797V38.922h12.406q7.125 0 10.766 3.297 3.64 3.297 3.64 9.687 0 6.39-3.64 9.64-3.64 3.25-10.766 3.25z" id="DejaVuSans-82"/><path d="M54.89 33.016V0h-8.984v32.719q0 7.765-3.031 11.61-3.031 3.858-9.078 3.858-7.281 0-11.484-4.64-4.204-4.625-4.204-12.64V0H9.08v75.984h9.03V46.188q3.235 4.937 7.594 7.374Q30.078 56 35.797 56q9.422 0 14.25-5.828 4.844-5.828 4.844-17.156z" id="DejaVuSans-104"/></defs><use xlink:href="#DejaVuSans-82"/><use x="64.982" xlink:href="#DejaVuSans-117"/><use x="128.361" xlink:href="#DejaVuSans-116"/><use x="167.57" xlink:href="#DejaVuSans-104"/><use x="230.949" xlink:href="#DejaVuSans-101"/><use x="292.473" xlink:href="#DejaVuSans-114"/><use x="333.586" xlink:href="#DejaVuSans-102"/><use x="368.791" xlink:href="#DejaVuSans-111"/><use x="429.973" xlink:href="#DejaVuSans-114"/><use x="469.336" xlink:href="#DejaVuSans-100"/></g></g></g></g><defs><clipPath id="pdd31ab6024"><path d="M117 77.76h725.4v498.96H117z"/></clipPath></defs></svg>