<svg height="864" viewBox="0 0 936 648" width="1248" xmlns="http://www.w3.org/2000/svg" xmlns:xlink="http://www.w3.org/1999/xlink"><defs><style>*{stroke-linecap:butt;stroke-linejoin:round}</style></defs><g id="figure_1"><path d="M0 648h936V0H0z" style="fill:#fff" id="patch_1"/><g id="axes_1"><path d="M117 576.72h725.4V77.76H117z" style="fill:none" id="patch_2"/><path clip-path="url(#pa56dd43a6a)" d="m149.973 554.04 36.987-.102 2.706-.136 1.805-.275 1.804-.43 1.804-.592 1.804-.898 1.805-1.078 1.804-1.113 2.706-2.125 1.804-1.604 1.805-1.089 1.804-1.076 1.804-.981 1.804-.56 2.707-.277 1.804-.032.902.195 1.804.11 1.805.226.902.027 1.804-.173 2.706.146 1.805.137 2.706-.126 1.804.21 1.805.28 2.706.726 2.706.387.903.098 2.706.6 1.804.083 2.707.233 1.804.084.902-.043 3.608.346 4.511.053.902.12.902-.143 9.924-.183 4.51-.914 1.805-.827 1.804-.931 5.413-3.614 1.804-1.56 3.608-2.096 2.707-1.852 6.315-3.72.902-.361.902-.508 2.706-.988.902-.293 1.805-.33 2.706.246.902.045.902.196 1.805.216 2.706 1.033 1.804.827 1.804.693.903.166 4.51 1.705 1.804.427 3.609 1.232 4.51 1.724 4.511 1.31 1.804.006.903.306 3.608.049.902.442 2.707.863.902-.029.902.16 1.804-.01.902.141.902-.198 2.707.138.902-.185.902-.864 3.608-.893 4.511-.444 1.804-.168.902-.173.903.037 2.706-.707.902-.325.902-.127 3.609-1.096 2.706-1.555.902-.144.902-.372.903-.088.902-.514.902-.325.902-.544 1.804-1.545.902-.433.902-.772 1.805-1.219 1.804-1.587 1.804-1.675 1.804-1.751 2.707-3.99 2.706-4.26 2.707-5.782 1.804-4.537.902-1.77 1.804-4.11 2.707-5.697.902-1.334.902-1.084.902-1.426 1.804-2.2.902 1.76.902-.706.903.221 1.804-.059.902-.655 2.706-2.658 1.805-1.882.902-.722 1.804-2.349.902-3.545.902-2.166.902-1.627.902-1.395.903-.964.902-.549.902-1.266 1.804-1.154.902.342.902-.232.902.088.903.524.902-.234.902.92.902 5.209.902-.271.902.932.902.344.903.062.902.46.902.194.902 3.015.902-2.834.902-.634.902-1.46 1.805-1.785.902-2.518.902-5.796.902-1.017.902-1.63.902-1.082.902-.84.902-.01.903-.247.902-2.686.902 2.593.902.92.902 3.21.902 1.394.902 2.044.902 2.606.903 3.167 1.804 4.717.902 2.022 1.804 4.435 2.707 6.293.902 1.633.902-.021 1.804 3.973 2.706 5.507.903 1.23.902 1.844 1.804 3.336 2.706 5.066.902 1.45.903 2.512 3.608 5.977 2.706 2.924 3.609 2.736.902.637.902.374.902-.042 1.805.303.902.131 2.706 1.177.902-1.017 3.609 1.789 1.804.755 1.804.076 2.707.568 1.804.233.902 1.154.902-.025.902-.63 1.805-.494.902-.323.902-.19.902-.393 1.804-.485.902-.485 2.707-.589.902-.634.902-.152.902.198.902-.33 1.804-.322 1.805-.135.902-.438.902-.227.902.102.902-.283.902.297.902-.132.903.183.902.028 1.804.72 1.804.93.902.417 2.707 2.059 2.706 1.307.902.34 3.609 2.226 1.804.96 1.804.639 4.51 2.597.903.375.902.601 1.804.842 2.707 1.505 1.804.555 2.706.985 1.805 1.057.902.27.902.687.902.153 1.804.64.902 1.538 3.609.89.902.08.902.346 1.804.246.903.019.902-.28.902.311.902.071.902.211.902-1.064 8.12.69 1.804-.125.902-.045.902-1.53.902-.225 1.804.137.902.326 1.805-.884.902-1.002.902-.59 1.804-.071.902-.575.902-.79.902-.641.903.84.902-.923 1.804-.422.902-1.583 1.804-1.874.902-.472.903-1.384.902-.401.902-.24 3.608-6.692.902-2.043 1.805-.903.902-2.233.902-2.558.902-1.524.902-1.783.902-2.473 1.805-1.24.902-2.483.902-1.603.902-2.048.902-1.172.902-1.877 1.804-1.19.903-3.577.902.174.902-1.516 2.706-2.938.902-.13.903-2.537.902.345.902-.446.902-1.422.902-.247.902-1.028.902.048.902-.607.903-.462.902-1.346.902-.462.902.236.902.387.902-.112.902 5.487.902-4.378.903-.385 2.706 1.396.902.075.902-.135.902.22.902 1.183 1.805 1.315.902-.062.902.13.902-3.805.902 4.964.902 1.064 1.805 2.292.902.648.902.154.902 2.618 3.608 4.666.903.695.902.41 1.804 1.938 1.804 1.276.902.785 1.805.739.902 2.062.902.051.902.637 1.804 1.58.902.31.902.106.903 1.47.902.432.902 1.14 1.804 1.424 1.804.39.902.526.903.7.902.349.902.08.902.286 1.804.215.902-.074.902.195 1.805.019 2.706-.336.902-.606.902.129.903-.131.902.626.902-1.178.902-.928.902-.137.902-.698.902-.392 2.707-2.453 1.804-.534.902-.941.902-.284.902-.604.902.978.903 2.258.902 1.065.902-.01.902-1.963.902-.546 1.804-1.549.902-.974.903-.495.902-.093.902-1.118.902-.616.902-.845.902-2.687.902-3.293.902-.774.903-.36.902.39 2.706-.613 1.804-.998.902-1.1.903-3.058.902-2.189.902-2.745.902-4.11.902-.547.902-.203.902-4.448.902-9.88.903-7.652.902-9.971.902-12.725.902-8.021.902-2.472.902-6.211 1.804-40.966 1.805-27.679.902-20.773.902-11.25.902-3.643.902-25.825 1.804-22.635.903-8.247.902-14.117.902-7.604.902-1.484.902 8.9.902-8.482.902-4.29.903.317.902 2.17 1.804 6.518.902 11.654.902 7.512.902 5.63.902 9.85.903 11.092.902 5.117.902 6.779.902 1.452.902 25.583.902 15.263.902 12.648h0" style="fill:none;stroke:#000;stroke-linecap:round;stroke-width:1.5" id="line2d_1"/><path clip-path="url(#pa56dd43a6a)" d="m149.973 554.04 36.987-.105 2.706-.352.902-.329.903-.17.902-.471.902-.618 1.804-1.877.902-.77.902-2.646.902-2.066 1.805-4.836.902-3.4.902-2.109 2.706-11.329.902-4.06 1.805-5.85 1.804-5.132.902-1.196.902-1.727 1.804-2.895.903.553.902-2.336.902 1.45.902-1.02 1.804 2.605.902-.536.902.086.903-.274 1.804-1.062.902 1.451 1.804.45.902.626.902 1.685.903-.216.902 2.035.902.656.902.456.902.915.902 2.122.902 1.347 1.805 4.887.902.416.902 1.818.902 2.216.902.79.902 2.004.902 1.705 1.805 2.766.902 1.44.902 1.909.902-.193.902 1.447.902-.096 1.805 1.333.902 1.336 1.804.934.902.135 1.804-.096.902.184 1.805.888.902 1.32.902.372.902.925.902.654.902.473.902-.184.903.834.902.649 1.804.736 1.804 1.498.902.346.902.602 2.707.858.902.062.902.447.902.235 1.804.024.903-.021.902.42.902-1.809.902-.043.902.163.902-.035.902.141 1.805-.06 3.608-.04 1.804.125.902-.1.903 2.064 1.804-.013.902-.032.902-.143.902.002.902-.138.902.221.903.36.902.03.902.43 1.804.002 3.609-.403 2.706-.515 1.804-.018.902-.686.903-.114.902-.377 1.804-.157h.902l.902-.142 1.804.26 2.707.42.902-.025.902-.485 1.804.227.902.33 1.805-.025.902.017.902.294.902.075.902-.173.902.21.902.036 1.805.38.902.374.902.227.902-.076.902-.298 2.707-.026.902-.298.902-.17.902.218 1.804-.29.902.027 4.511-.463.902.016 9.923-1.282 2.707-.994.902-.021.902-.341.902-.048.902-.271.902-.521 3.609-.639.902-.787.902-.34 1.805-.178.902.096.902-.57.902-.248.902-.382 1.804-.061 1.805-1.426.902-.384.902-.559.902.146.902-.193.902-1.12.902-.405 2.707-2.29.902-.62.902-1.25 1.804-.961.902-.189.902-.896.903-1.514.902-.858.902-1.196.902-1.385 1.804-1.85.902-2.283.902-1.495.903-2.08.902-1.524 1.804-6.2.902-.911.902-2.36.902-1.727.902-2.379 1.805-3.142.902-2.095.902-1.632.902-.534 1.804-2.116.902-.748.903.59.902.75.902-1.041.902-.622.902-.267.902-.655.902-2.183.902-.702.903-2.21.902.02.902-1.287.902-.433.902-.694.902.477.902-2.612.902-.338.903-1.723.902.686.902-1.499.902.577.902 1.894.902 1.214.902.916.902.42.903.936.902-.371.902.446.902-1.511.902 2.401 1.804 4.167.903.331.902 1.054.902-.902.902-1.72.902-1.414.902 1.613.902-51.356.902-1.78.903-1.118.902-2.974.902-2.102 1.804-7.22.902-2.78.902-.995.902-3.387.903-2.139.902-.926.902-.523.902-1.57.902 50.624.902 1.755.902.442.902 2.606.903 3.023.902.282.902.4.902 1.28.902-.204.902 3.288.902 2.514.902.407 1.805 1.685.902.363.902 1.583.902 3.352.902 1.885.902-.03.902 2.827.903 1.007.902 1.696.902 1.285.902.471.902 1.168.902 2.416.902 1.626 1.805 4.49.902-.518.902-1.927.902.014.902 1.267.902 1.75.902 2.465.902-.153.903.449.902 1.342.902.086.902-.147.902-.405.902-.238.902-1.818 1.805.816.902.09.902-.7.902-.904.902-.524.902.426.902-1.038.902-.704.903-.256.902-.372.902.287.902-.986.902.343.902-.458.902-.666.903-1.37.902-.744.902-1.272 2.706-2.4.902-.344.902-.14.903-1.481.902-.857.902-1.28.902-.857.902-1.238.902.69.902-1.218.902-.146.903.497.902-.604.902.343.902 1.17.902-.156.902-.416.902 1.507 3.609 4.554.902.112.902 1.811.902.159.902.56 1.805 1.394 2.706 2.937.902 1.457.902.874.902 1.814.902 12.304.903 1.961.902 1.557.902 1.794 1.804 5.205.902 2.09.902 1.287.902 1.966.903 1.014 1.804 3.948.902 2.286.902 1.452.902-9.813 1.804 3.416.903 1.946.902 1.644 1.804 2.006.902.681.902.385.902 2.234.902.913 1.805.63 1.804.094 1.804.281 1.804.098.903.419.902.025.902.161.902.522.902.184 1.804.684 2.707.007 1.804.434 1.804.047 2.707.012 1.804-.108 2.706.235 2.707.103.902-.09.902.075 1.804-.067 4.51.294 1.805-.027 4.51.096 1.805-.132 4.51-.792.903-.197 1.804-.723.902-.243 1.804-.985 1.805-.993.902-.59 1.804-.663.902-.462 2.706-1.97.903-.679 1.804-1.142 2.706-2.043.902-.468 1.805-1.34.902-.365 1.804-1.686 1.804-1.61.902-1.48 1.805-.828 2.706-1.62.902-1.707.902-.664.902-.301.903-.818.902-.244.902-.458.902-.214.902-.802.902.676.902-.618 1.805-.547 1.804-1.207.902 1.291.902-.096 1.804-.634.902 1.611.903-1.484 1.804-.244.902-.6 3.608.068.903-.446.902-.685.902-.401.902-.21.902.352.902-1.94.902 1.228.902-.045.903.46.902.278.902.79.902.413.902.161.902.298 3.609 2.652.902.404 1.804 1.09.902.2 1.804.828.903-.346 2.706.752.902.739.902.31 3.609 2.069.902.8.902.639.902.175 1.804 1.43.902.011.903.181.902.49.902-.35.902.082.902.238.902-.342 3.609-.277.902.344.902-.282.902-.15 1.804.108.903-.374.902.152 1.804-.99 2.706-1.661.902-.697 1.805-1.954 1.804-1.577.902-.74.902-1.26.902-.612.902-1.101 1.805-.724.902-.18.902-.942.902-1.62.902-1.33 1.804-4.514.903-2.374.902-2.03 1.804-2.953.902-2.197.902-2.964.902-3.557.902-2.793.903-2.115 1.804-2.34.902-1.93 1.804-6.103.902-3.462 1.805-8.525.902-4.87.902-8.196 1.804-27.845.902-15.952.902-11.057.902-6.915.903-11.614.902-23.024 1.804-58.17.902-26.52.902-20.477.902-15.698.902-22.634.903-27.198.902-15.156.902-20.92 2.706-43.829.902-10.904.902 3.427 1.805 23.704.902 16.645.902 11.796.902 13.573.902 19.817.902 28.261.903 21.638 1.804 53.963 2.706 61.32 1.804 35.468 2.707 40.444 2.706 23.147.902 8.75h0" style="fill:none;stroke:#009e73;stroke-linecap:round;stroke-width:1.5" id="line2d_2"/><path clip-path="url(#pa56dd43a6a)" d="m149.973 554.04 32.476-.071 4.51-.256 1.805-.53.902-.49.902-1.665.903-.45.902-.204.902-.96.902-1.541.902-.92.902-1.163.902-3.932 1.805-6.27.902-3.369.902-2.9.902-4.125.902-5.473.902-4.503.902-7.372.902-8.925.903-3.39 1.804-11.252.902-2.277.902-.837.902-2.92 1.804-1.961.903.05.902.95.902 1.665.902.45.902 3.195.902 6.065.902-.5 1.805 6.423.902.112.902 1.082.902 2.768.902.602 1.804 3.717.902 1.91.903 2.317.902 4.054.902 2.39.902 1.592 1.804 5.514.902 1.705 1.805 5.555.902 2.185.902 2.86.902 1.04.902.41.902.857.902 1.389.903 2.389 1.804 2.022.902.98.902-.01.902 1.174.902.653 1.805.552.902.817.902-.113 2.706.02.902-2.092.902.51 2.707 1.89.902.326.902-.48.902.337.902.153.902-.143.903 1.185.902.725.902.275.902-.347.902.848.902.418.902-.755.902.49h.903l.902-.225 1.804.276.902.378 3.609.081.902.674.902-2.869.902-.745.902.52.902-.674 2.707.194.902-.06.902-.41.902-.01.902-.5.902-.03.902.112.902-.286.903 2.89.902.418.902-.092.902.562.902.01.902.327 1.804.102.903.429.902.174.902.633.902-.245.902.03 1.804.307.903.275 1.804-.204 2.706-1.072.902.02.902-.449.903-.092.902-.265.902.234.902-.398.902.164 1.804.081.902-.275.903-.092 1.804.46.902.101.902-.204.902-.592 1.804-.899.903-.52 1.804.582.902.776.902.04 2.706.623 1.805-.112.902.235.902 1 .902.164 1.804.786.902-.398.903-.266.902-.806.902-.072.902.317.902-.235.902-.02 1.804.255 1.805-.153.902.367 1.804.204.902.623.902-.05.902-.246.903-.04.902-.235.902.102.902-.01.902-.266 2.706.02 1.805-.347.902-.04.902-.307 1.804-.163 3.609-.868.902.01.902-.255 1.804-1.021.902-.45 1.805-.388.902-.694 2.706-.899.902-.112 2.707-1.746.902-.735 1.804-.388.902-.746.902-.54.902-.746.903-.46 1.804-.612.902-1.369 1.804-1.245.902-.45.902-.765.903-.95.902.01.902-1.276.902-1.869.902-.929.902-.153.902-1.573.902-2.267.903-2.767.902-1.46 1.804-5.064.902-.358 1.804-4.34.902-3.44 1.805-2.42.902-1.981.902-2.635.902-.357 1.804-.266.902-2.001.903 1.807 1.804-2.042.902-.664.902.235.902-.592.902-2.798.902-.704.903-1.42.902.613.902-.398.902.572.902-.082.902 2.675.902-3.257.902 1.348.903-1.103.902 1.215.902-.266.902 1.359.902 2.256 1.804 3.42.902.848.903.388.902-1.878.902-.368.902-1.562.902 2.358 1.804 2.9.903.256.902.132.902-1.725 1.804-1.634.902.694.902-44.642.902-3.022.903-1.542.902-2.053.902-2.45 1.804-6.076.902-1.164.902-.388.902-3.38.903-2.164 1.804-2.237.902-1.838.902 44.336.902 1.522.902.418.902 1.552.903 3.278.902-.704.902.5.902.235.902-1.103 1.804 5.014.902 1.164.903.224.902.644.902-.766.902 1.848.902 3.584.902 1.031.902-1.51.902 1.827.903.541.902.899.902 1.44.902.387.902 1.195.902.909.902 1.072.902 1.654.903 2.134.902-2.113.902-1.583.902.439.902 2.022.902 1.337.902 2.053 1.805-2.094.902.715.902-.858.902-1.47.902-.153.902.082.902-3.635.902 1.072.903-1.318.902-.163.902-1.603.902 1.358.902-1.062.902 1 .902-1.061 1.805-.52.902.734.902.368.902-1.389.902 1.756.902-.786.902.092 1.805-1.715.902-3.145.902-.307.902-.99.902.02.902-.418.902 1.419.903-2.971 1.804-3.34.902-.398 1.804-1.358.902-.633 1.805.256.902-.072.902.225.902 1.582.902-.776.902-.48.902 3.503 1.805 4.125.902 1.256 1.804 4.135.902 1.716 1.804 2.675.902 1.46.903 1.675.902 1.123.902 2.093.902 1.052.902 1.644.902.98.902 1.757.902 2.47.903 1.481.902 1.869.902 1.358 1.804 4.911.902 1.501.902.899.902 1.603.903-9.935.902-.99.902 1.592.902 1.95.902.91.902-.338.902 1.389.902 1.031.903 1.88.902.928.902.43.902.295.902.45.902.633.902 12.804.902 3.86.903.153.902.623.902.327 1.804.153.902.46.902.132.902.429.903.725 1.804.653 2.706.562.902.408.903-.132 1.804.214 1.804.49.902.082 3.609-.204.902-.215 2.706-.122.902.275 1.805.133 1.804-.306.902-.174.902.072 1.804-.03 1.805.101 1.804-.306 3.608.01 2.707.51 1.804.062 2.706-.174 1.805-.214 3.608-.98 1.804-.674.902-.592 1.805-1.46.902-.338.902-.592.902-.388.902-.541 1.804-1.41 2.707-1.95.902-.827.902-.52 1.804-.735 1.805-.511.902.102.902-1.133.902-.552.902-.745.902-.296.902-1.072.902.98.903-.102 1.804-1.532.902-.265.902-1.44.902-.684.902-.5.903-.685.902.307.902-.5.902.163.902-.797.902.153.902-1.572.902-.296.903.286.902.01.902-.44.902 1.492.902-.215.902-.071.902-.307.902 1.256.903-.806 1.804-.358.902-.02 1.804.265.902-.316.902-.03.903-.225.902-.5.902-.062.902-.204.902.378.902-1.032.902.756 1.805-.01.902.214.902.082.902-.174.902.715 1.804.04.902.062.903.378.902.766.902.224.902.072 1.804.868.902 1.062.902.439.903.214.902.715.902.122.902.388.902.705.902.541.902.051.902.358.903.224 2.706 2.308.902-.082 1.804 1.246.902-.541.903-.123.902.388.902-.092.902-.234.902.52.902-.122.902.081.902-.224.903-.409.902-.092.902.297 1.804-.194 1.804.755 2.707.398.902-.122.902-.868.902-.398 5.413-5.27.902-.428.902-1.297.902-.715.902-.867 1.805-1.042.902.02.902-.51.902-1.113.902-.786 1.804-2.86.903-1.184.902-.796 2.706-4.759 1.804-5.268 1.805-3.89.902-1.267.902-.817.902-2.93.902-3.41.902-4.034 1.804-10.068.903-3.503.902-5.299.902-10.589.902-14.346 1.804-38.087.902-11.988.902-9.19.903-15.806.902-28.202.902-35.616 1.804-56.773 1.804-30.112 1.805-50.748.902-13.336.902-17.828 1.804-22.383.902-14.03.902-6.892.902 8.465.903 20.412.902 12.457.902 19.32.902 7.249.902 10.854.902 20.412.902 28.53.903 18.215 1.804 54.241.902 16.552 2.706 60.01 1.805 32.9.902 11.63.902 13.478 2.706 24.394.902 10.711h0" style="fill:none;stroke:#d55e00;stroke-linecap:round;stroke-width:1.5" id="line2d_3"/><path clip-path="url(#pa56dd43a6a)" d="M149.973 554.04h39.693l.902-1.04h1.805l.902-.52h.902l1.804-3.12.902-3.12.902-.521.903-1.56.902-1.04.902-2.6 1.804-7.801h.902l.902-3.12.902-8.322.903-5.2.902-1.56.902-1.04h.902l.902-2.08.902-3.121.902.52.902 1.04.903-.52.902 2.08.902 1.56.902-1.56.902.52.902 6.76.902 5.722.902-1.04.903 1.04.902-1.04.902 2.6h2.706l.902.52.902 2.08 2.707 3.12h1.804l.902 2.6.902 1.56 1.805 5.202.902 3.12.902 1.04h.902l.902.52.902-2.08.902.52 1.805 2.08.902 1.56h1.804l.902-.52h1.804l.903.52h1.804l.902 2.08.902 1.56 1.804 1.04.902-.52h1.805l.902-1.56h7.217l.902-.52h.902l.902.52h1.804l.903 1.56h5.412l.902-1.04.903.52h.902l.902-.52h2.706l.902-2.08.902.52.903-.52h3.608l.902-2.08.902-.52.902.52h.903l.902-.52h1.804l.902 1.04.902-.52.902.52h3.609l.902 3.12.902-1.04.902-.52h.902l.903 1.04h1.804l1.804 1.04h.902l.902-.52h2.707l.902-.52.902 1.56h.902l.902.52h2.707l.902.52h.902l.902-.52.902.52.902-.52h3.609l.902.52 1.804-1.04h2.706l.903-1.04h.902l.902-.52.902.52h3.608l.903-2.08 1.804 1.04h2.706l.902-.52 1.805 1.04h4.51l.902 1.04.902-.52h2.707l.902-1.56.902 1.56.902-.52h3.609l.902.52h.902l.902 1.04.902.52h2.707l.902.52.902-.52.902-2.08.902-4.68.902-1.04h1.805l.902-1.04.902-3.12.902-.52 1.804-5.201 1.804-3.12h.903l1.804 1.04.902 4.68.902 1.04h1.804l.902-2.08.903 1.04.902-2.08h1.804l1.804 3.12.902-5.2.902-.52 1.805-3.12.902-2.601h1.804l.902-6.76h.902l.902 2.6.903-6.241.902-1.04h1.804l.902-2.08.902-5.721 1.804-5.201.903-4.68.902-2.6h.902l.902 2.6.902-2.08.902-3.121.902 8.84.902 3.641.903-10.4h.902l.902 1.04.902 2.6.902.52.902-4.16.902-5.201.902-3.12h.903l.902 1.56.902-2.08.902.52.902-9.362.902-4.68.902 10.4h1.805l.902-1.04.902 2.08.902 8.322.902 3.64.902 5.72h.902l.902-8.32.903 2.6.902-11.441.902 6.76.902 4.681h1.804l.902-8.32.903 2.08 1.804-11.962.902 8.841h1.804l.902-3.12.902-5.72.903 6.76.902-5.2.902-6.241.902-5.201h.902l.902 4.16.902-3.12.902 2.08.903.52.902-5.2h1.804l.902 17.162.902-1.56.902 2.08.902 5.72 1.805 9.882h.902l.902-4.68.902 3.64.902 4.68.902 2.08.902-3.12.903-2.6h1.804l.902 10.92.902-8.32 1.804-4.16h1.805l.902 7.8.902-1.56.902.52h.902l.902 5.72.902-1.04h1.805l.902-7.28.902 10.921.902 2.6.902 1.04h.902l.902-3.64.902 6.24 1.805 1.041.902-3.64.902-2.08.902 3.64h.902l.902-8.321.902 2.08.903-.52h.902l.902-4.68h.902l.902 3.64.902-5.2.902 1.04.902-2.08.903-.52.902 2.08h1.804l.902-3.641.902 1.56.902-1.04h.903l.902 4.68h1.804l.902-5.2.902-1.04.902.52.902 3.12.903-1.04h.902l.902-4.68.902 6.24.902-.52.902 2.6.902-7.8.902-2.08h1.805l.902 3.64.902-1.04 1.804-1.04h0l.902 1.04.902-.52.903 4.68.902.52.902 1.56.902-1.04.902 3.12.902 2.08.902-2.6h.902l.903 7.281.902 3.64.902 1.561.902.52h.902l.902.52h.902l.902 2.08 1.805 2.08.902 4.161.902-2.08.902 2.08h.902l.902.52h1.805l.902 2.6.902 1.56h1.804l.902 1.04.902 1.561.902 1.04.903 2.08.902 4.68.902.52h.902l.902 1.041.902.52.902 3.12.902.52.903 1.04h1.804l.902 2.08h1.804l.902-1.04h4.511l.902-.52.902.52h3.609l.902-1.56h.902l.902 1.04h4.51l.903.52h4.51l.903 1.56.902.521h.902l.902-2.08h4.51l.903-.52h5.413l.902-.52.902 1.56h3.608l1.805-1.04h5.412l.902-.52.903-2.6h1.804l.902-10.922.902-1.04h.902l1.804-5.2h1.805l.902-3.641.902-1.56.902-.52h.902l.902 2.6h1.805l.902 5.72.902-.52.902-2.6.902.52.902 1.56h1.804l.903-1.56.902.52h.902l.902-1.04.902.52h1.804l.903 4.16.902-.52.902 2.081.902.52.902 1.04h1.804l.902 1.56.903-2.6.902-3.12.902 1.04.902-2.6h1.804l.902 1.04.902-4.16.903-2.081.902 2.6.902-2.6h1.804l.902-1.04.902 2.08.902 1.56.903-3.12.902.52h1.804l.902-6.76.902 5.72.902.52.902-2.6.903 1.04h1.804l.902 2.6h1.804l.902 2.08h2.707l.902 4.68 1.804-1.04.902 2.601.902-4.16h1.805l.902 2.08.902-1.56 2.706 3.12h1.804l.903-2.08.902-.52.902 2.6.902-2.08.902 4.68h1.804l.902-1.04.903 2.6.902 1.04h.902l.902.52h2.706l.902-.52.903.52.902 2.08h2.706l.902-1.56.902-.52.903-4.68.902 1.04.902-3.12h1.804l.902 1.04h.902l.902-1.04.903-1.56.902-.52h1.804l.902-5.201.902-1.56.902 1.04h.902l.903 3.64h1.804l.902-7.28.902-1.56h.902l.902-2.601.902-3.12h1.805l.902 1.04 1.804-5.2 1.804-10.402h1.805l.902 1.56.902-3.12 1.804-15.602.902 1.04.902-21.322.902-6.241.903-2.08.902-9.361.902-16.122.902-11.962.902-6.76.902-1.56.902-3.12.902-2.081 1.805-37.444.902-10.402.902-23.922.902-6.761.902-27.043.902-16.122.902-2.08.903-9.361.902-21.323.902-17.162.902-34.324.902-23.403.902-2.6.902 6.24.902 3.121.903-2.08.902 13.002.902 17.161.902 24.443 1.804 19.242.902 22.883.903 31.204 1.804 45.765.902 23.403.902 11.961.902 14.562.902 22.882 1.805 29.124.902 4.16.902 6.761.902 13.001.902 4.16 1.804 12.482h0" style="fill:none;stroke:#0072b2;stroke-linecap:round;stroke-width:1.5" id="line2d_4"/><path clip-path="url(#pa56dd43a6a)" d="M117 553.088h725.4" style="fill:none;stroke:green;stroke-dasharray:1.5,2.475;stroke-dashoffset:0;stroke-width:1.5" id="line2d_5"/><path clip-path="url(#pa56dd43a6a)" d="M117 549.28h725.4" style="fill:none;stroke:orange;stroke-dasharray:1.5,2.475;stroke-dashoffset:0;stroke-width:1.5" id="line2d_6"/><path clip-path="url(#pa56dd43a6a)" d="M117 544.521h725.4" style="fill:none;stroke:red;stroke-dasharray:1.5,2.475;stroke-dashoffset:0;stroke-width:1.5" id="line2d_7"/><path d="M117 576.72V77.76" style="fill:none;stroke:#d3d3d3;stroke-linecap:square;stroke-linejoin:miter;stroke-width:1.25" id="patch_3"/><path d="M117 576.72h725.4" style="fill:none;stroke:#d3d3d3;stroke-linecap:square;stroke-linejoin:miter;stroke-width:1.25" id="patch_4"/><g id="matplotlib.axis_1"><g id="xtick_1"><g style="fill:#696969" transform="matrix(.16 0 0 -.16 107.87 598.378)" id="text_1"><defs><path d="M9.813 72.906h9.859V5.078q0-13.187-5-19.14-5-5.954-16.094-5.954h-3.75v8.297h3.078q6.531 0 9.219 3.672Q9.813-4.39 9.813 5.078z" id="DejaVuSans-74"/><path d="M34.281 27.484q-10.89 0-15.093-2.484-4.204-2.484-4.204-8.5 0-4.781 3.157-7.594 3.156-2.797 8.562-2.797 7.485 0 12 5.297 4.516 5.297 4.516 14.078v2zm17.922 3.72V0H43.22v8.297Q40.14 3.328 35.547.953q-4.594-2.375-11.234-2.375-8.391 0-13.36 4.719Q6 8.016 6 15.922q0 9.219 6.172 13.906 6.187 4.688 18.437 4.688h12.61v.89q0 6.203-4.078 9.594-4.078 3.39-11.453 3.39-4.688 0-9.141-1.124-4.438-1.125-8.531-3.375v8.312q4.921 1.906 9.562 2.844 4.64.953 9.031.953 11.875 0 17.735-6.156 5.86-6.14 5.86-18.64z" id="DejaVuSans-97"/><path d="M54.89 33.016V0h-8.984v32.719q0 7.765-3.031 11.61-3.031 3.858-9.078 3.858-7.281 0-11.484-4.64-4.204-4.625-4.204-12.64V0H9.08v54.688h9.03v-8.5q3.235 4.937 7.594 7.374Q30.078 56 35.797 56q9.422 0 14.25-5.828 4.844-5.828 4.844-17.156z" id="DejaVuSans-110"/></defs><use xlink:href="#DejaVuSans-74"/><use x="29.492" xlink:href="#DejaVuSans-97"/><use x="90.771" xlink:href="#DejaVuSans-110"/></g></g><g id="xtick_2"><g style="fill:#696969" transform="matrix(.16 0 0 -.16 188.456 598.378)" id="text_2"><defs><path d="M34.188 63.188 20.797 26.906h26.812zm-5.579 9.718h11.188L67.578 0h-10.25l-6.64 18.703h-32.86L11.188 0H.78z" id="DejaVuSans-65"/><path d="M18.11 8.203v-29H9.077v75.484h9.031v-8.296q2.844 4.875 7.157 7.234Q29.594 56 35.594 56q9.968 0 16.187-7.906 6.235-7.907 6.235-20.797T51.78 6.484q-6.218-7.906-16.187-7.906-6 0-10.328 2.375-4.313 2.375-7.157 7.25zm30.578 19.094q0 9.906-4.079 15.547-4.078 5.64-11.203 5.64-7.14 0-11.218-5.64-4.079-5.64-4.079-15.547 0-9.906 4.078-15.547 4.079-5.64 11.22-5.64 7.124 0 11.202 5.64t4.078 15.547z" id="DejaVuSans-112"/><path d="M41.11 46.297q-1.516.875-3.297 1.281Q36.03 48 33.89 48q-7.625 0-11.703-4.953-4.079-4.953-4.079-14.234V0H9.08v54.688h9.03v-8.5q2.844 4.984 7.375 7.39Q30.031 56 36.531 56q.922 0 2.047-.125 1.125-.11 2.484-.36z" id="DejaVuSans-114"/></defs><use xlink:href="#DejaVuSans-65"/><use x="68.408" xlink:href="#DejaVuSans-112"/><use x="131.885" xlink:href="#DejaVuSans-114"/></g></g><g id="xtick_3"><g style="fill:#696969" transform="matrix(.16 0 0 -.16 274.737 598.378)" id="text_3"><defs><path d="M8.5 21.578v33.11h8.984V21.922q0-7.766 3.016-11.656 3.031-3.875 9.094-3.875 7.265 0 11.484 4.64 4.234 4.64 4.234 12.656v31h8.985V0h-8.984v8.406Q42.047 3.422 37.718 1q-4.313-2.422-10.032-2.422-9.421 0-14.312 5.86Q8.5 10.296 8.5 21.578zM31.11 56z" id="DejaVuSans-117"/><path d="M9.422 75.984h8.984V0H9.422z" id="DejaVuSans-108"/></defs><use xlink:href="#DejaVuSans-74"/><use x="29.492" xlink:href="#DejaVuSans-117"/><use x="92.871" xlink:href="#DejaVuSans-108"/></g></g><g id="xtick_4"><g style="fill:#696969" transform="matrix(.16 0 0 -.16 353.553 598.378)" id="text_4"><defs><path d="M39.406 66.219q-10.75 0-17.078-8.016-6.312-8-6.312-21.828 0-13.766 6.312-21.781 6.328-8 17.078-8 10.735 0 17.016 8 6.281 8.015 6.281 21.781 0 13.828-6.281 21.828-6.281 8.016-17.016 8.016zm0 8q15.328 0 24.5-10.281 9.188-10.282 9.188-27.563 0-17.234-9.188-27.516-9.172-10.28-24.5-10.28-15.375 0-24.593 10.25-9.204 10.265-9.204 27.546t9.204 27.563q9.218 10.28 24.593 10.28z" id="DejaVuSans-79"/><path d="M48.781 52.594v-8.407q-3.812 2.11-7.64 3.157-3.828 1.047-7.735 1.047-8.75 0-13.593-5.547-4.829-5.532-4.829-15.547 0-10.016 4.829-15.563 4.843-5.53 13.593-5.53 3.907 0 7.735 1.046 3.828 1.047 7.64 3.156V2.094Q45.016.344 40.984-.531q-4.015-.89-8.562-.89-12.36 0-19.64 7.765-7.266 7.765-7.266 20.953 0 13.375 7.343 21.031Q20.22 56 33.016 56q4.14 0 8.093-.86 3.953-.843 7.672-2.546z" id="DejaVuSans-99"/><path d="M18.313 70.219V54.688h18.5v-6.985h-18.5V18.016q0-6.688 1.828-8.594 1.828-1.906 7.453-1.906h9.218V0h-9.218q-10.407 0-14.36 3.875-3.953 3.89-3.953 14.14v29.688H2.687v6.984h6.594V70.22z" id="DejaVuSans-116"/></defs><use xlink:href="#DejaVuSans-79"/><use x="78.711" xlink:href="#DejaVuSans-99"/><use x="133.691" xlink:href="#DejaVuSans-116"/></g></g><g id="xtick_5"><g style="fill:#696969" transform="matrix(.16 0 0 -.16 438.048 598.378)" id="text_5"><use xlink:href="#DejaVuSans-74"/><use x="29.492" xlink:href="#DejaVuSans-97"/><use x="90.771" xlink:href="#DejaVuSans-110"/></g></g><g id="xtick_6"><g style="fill:#696969" transform="matrix(.16 0 0 -.16 517.732 598.378)" id="text_6"><use xlink:href="#DejaVuSans-65"/><use x="68.408" xlink:href="#DejaVuSans-112"/><use x="131.885" xlink:href="#DejaVuSans-114"/></g></g><g id="xtick_7"><g style="fill:#696969" transform="matrix(.16 0 0 -.16 604.013 598.378)" id="text_7"><use xlink:href="#DejaVuSans-74"/><use x="29.492" xlink:href="#DejaVuSans-117"/><use x="92.871" xlink:href="#DejaVuSans-108"/></g></g><g id="xtick_8"><g style="fill:#696969" transform="matrix(.16 0 0 -.16 682.829 598.378)" id="text_8"><use xlink:href="#DejaVuSans-79"/><use x="78.711" xlink:href="#DejaVuSans-99"/><use x="133.691" xlink:href="#DejaVuSans-116"/></g></g><g id="xtick_9"><g style="fill:#696969" transform="matrix(.16 0 0 -.16 767.325 598.378)" id="text_9"><use xlink:href="#DejaVuSans-74"/><use x="29.492" xlink:href="#DejaVuSans-97"/><use x="90.771" xlink:href="#DejaVuSans-110"/></g></g></g><g id="matplotlib.axis_2"><g id="ytick_1"><g style="fill:#696969" transform="matrix(.16 0 0 -.16 97.32 560.119)" id="text_10"><defs><path d="M31.781 66.406q-7.61 0-11.453-7.5Q16.5 51.422 16.5 36.375q0-14.984 3.828-22.484 3.844-7.5 11.453-7.5 7.672 0 11.5 7.5 3.844 7.5 3.844 22.484 0 15.047-3.844 22.531-3.828 7.5-11.5 7.5zm0 7.813q12.266 0 18.735-9.703 6.468-9.688 6.468-28.141 0-18.406-6.468-28.11-6.47-9.687-18.735-9.687-12.25 0-18.718 9.688-6.47 9.703-6.47 28.109 0 18.453 6.47 28.14Q19.53 74.22 31.78 74.22z" id="DejaVuSans-48"/></defs><use xlink:href="#DejaVuSans-48"/></g></g><g id="ytick_2"><g style="fill:#696969" transform="matrix(.16 0 0 -.16 66.78 464.932)" id="text_11"><defs><path d="M12.406 8.297h16.11v55.625l-17.532-3.516v8.985l17.438 3.515h9.86V8.296H54.39V0H12.406z" id="DejaVuSans-49"/></defs><use xlink:href="#DejaVuSans-49"/><use x="63.623" xlink:href="#DejaVuSans-48"/><use x="127.246" xlink:href="#DejaVuSans-48"/><use x="190.869" xlink:href="#DejaVuSans-48"/></g></g><g id="ytick_3"><g style="fill:#696969" transform="matrix(.16 0 0 -.16 66.78 369.746)" id="text_12"><defs><path d="M19.188 8.297h34.421V0H7.33v8.297q5.609 5.812 15.296 15.594 9.703 9.797 12.188 12.64 4.734 5.313 6.609 9 1.89 3.688 1.89 7.25 0 5.813-4.078 9.469-4.078 3.672-10.625 3.672-4.64 0-9.797-1.61-5.14-1.609-11-4.89v9.969Q13.767 71.78 18.938 73q5.188 1.219 9.485 1.219 11.328 0 18.062-5.672 6.735-5.656 6.735-15.125 0-4.5-1.688-8.531-1.672-4.016-6.125-9.485-1.218-1.422-7.765-8.187-6.532-6.766-18.453-18.922z" id="DejaVuSans-50"/></defs><use xlink:href="#DejaVuSans-50"/><use x="63.623" xlink:href="#DejaVuSans-48"/><use x="127.246" xlink:href="#DejaVuSans-48"/><use x="190.869" xlink:href="#DejaVuSans-48"/></g></g><g id="ytick_4"><g style="fill:#696969" transform="matrix(.16 0 0 -.16 66.78 274.56)" id="text_13"><defs><path d="M40.578 39.313Q47.656 37.797 51.625 33q3.984-4.781 3.984-11.813 0-10.78-7.422-16.703-7.421-5.906-21.093-5.906-4.578 0-9.438.906-4.86.907-10.031 2.72v9.515q4.094-2.39 8.969-3.61 4.89-1.218 10.218-1.218 9.266 0 14.125 3.656 4.86 3.656 4.86 10.64 0 6.454-4.516 10.079-4.515 3.64-12.562 3.64h-8.5v8.11h8.89q7.266 0 11.125 2.906 3.86 2.906 3.86 8.375 0 5.61-3.985 8.61-3.968 3.015-11.39 3.015-4.063 0-8.703-.89-4.641-.876-10.203-2.72v8.782q5.624 1.562 10.53 2.344 4.907.78 9.25.78 11.235 0 17.766-5.109 6.547-5.093 6.547-13.78 0-6.063-3.468-10.235-3.47-4.172-9.86-5.782z" id="DejaVuSans-51"/></defs><use xlink:href="#DejaVuSans-51"/><use x="63.623" xlink:href="#DejaVuSans-48"/><use x="127.246" xlink:href="#DejaVuSans-48"/><use x="190.869" xlink:href="#DejaVuSans-48"/></g></g><g id="ytick_5"><g style="fill:#696969" transform="matrix(.16 0 0 -.16 66.78 179.373)" id="text_14"><defs><path d="M37.797 64.313 12.89 25.39h24.906zm-2.594 8.593H47.61V25.391h10.407v-8.203H47.609V0h-9.812v17.188H4.89v9.515z" id="DejaVuSans-52"/></defs><use xlink:href="#DejaVuSans-52"/><use x="63.623" xlink:href="#DejaVuSans-48"/><use x="127.246" xlink:href="#DejaVuSans-48"/><use x="190.869" xlink:href="#DejaVuSans-48"/></g></g><g id="ytick_6"><g style="fill:#696969" transform="matrix(.16 0 0 -.16 66.78 84.186)" id="text_15"><defs><path d="M10.797 72.906h38.719v-8.312H19.828v-17.86q2.14.735 4.281 1.094 2.157.36 4.313.36 12.203 0 19.328-6.688 7.14-6.688 7.14-18.11 0-11.765-7.328-18.296-7.328-6.516-20.656-6.516-4.593 0-9.36.781-4.75.782-9.827 2.344v9.922q4.39-2.39 9.078-3.563 4.687-1.171 9.906-1.171 8.453 0 13.375 4.437 4.938 4.438 4.938 12.063 0 7.609-4.938 12.047-4.922 4.453-13.375 4.453-3.953 0-7.89-.875-3.922-.875-8.016-2.735z" id="DejaVuSans-53"/></defs><use xlink:href="#DejaVuSans-53"/><use x="63.623" xlink:href="#DejaVuSans-48"/><use x="127.246" xlink:href="#DejaVuSans-48"/><use x="190.869" xlink:href="#DejaVuSans-48"/></g></g><g style="fill:#696969" transform="matrix(0 -.2 -.2 0 58.62 379.813)" id="text_16"><defs><path d="M51.125 44H36.922l-4.11-16.313h14.313zm-7.328 27.781-5.078-20.265h14.265L58.11 71.78h7.813L60.89 51.516h15.234V44h-17.14l-4-16.313h15.53V20.22H53.079L48 0h-7.813l5.032 20.219H30.906L25.875 0h-7.86l5.079 20.219H7.719v7.468h17.187L29 44H13.281v7.516h17.625l4.985 20.265z" id="DejaVuSans-35"/><path d="M30.61 48.39q-7.22 0-11.422-5.64-4.204-5.64-4.204-15.453 0-9.813 4.172-15.453 4.188-5.64 11.453-5.64 7.188 0 11.375 5.655 4.203 5.672 4.203 15.438 0 9.719-4.203 15.406-4.187 5.688-11.375 5.688zm0 7.61q11.718 0 18.406-7.625 6.703-7.61 6.703-21.078 0-13.422-6.703-21.078-6.688-7.64-18.407-7.64-11.765 0-18.437 7.64-6.656 7.656-6.656 21.078 0 13.469 6.656 21.078Q18.844 56 30.609 56z" id="DejaVuSans-111"/><path d="M37.11 75.984V68.5h-8.594q-4.828 0-6.72-1.953-1.874-1.953-1.874-7.031v-4.828h14.797v-6.985H19.922V0H10.89v47.703H2.297v6.984h8.594V58.5q0 9.125 4.25 13.297 4.25 4.187 13.468 4.187z" id="DejaVuSans-102"/><path d="M44.281 53.078v-8.5q-3.797 1.953-7.906 2.922-4.094.984-8.5.984-6.688 0-10.031-2.047-3.344-2.046-3.344-6.156 0-3.125 2.39-4.906 2.391-1.781 9.626-3.39l3.078-.688q9.562-2.047 13.593-5.781 4.032-3.735 4.032-10.422 0-7.625-6.032-12.078-6.03-4.438-16.578-4.438-4.39 0-9.156.86Q10.688.296 5.422 2v9.281q4.984-2.594 9.812-3.89 4.829-1.282 9.579-1.282 6.343 0 9.75 2.172 3.421 2.172 3.421 6.125 0 3.656-2.468 5.61-2.453 1.953-10.813 3.765l-3.125.735q-8.344 1.75-12.062 5.39-3.704 3.64-3.704 9.985 0 7.718 5.47 11.906Q16.75 56 26.811 56q4.97 0 9.36-.734 4.406-.72 8.11-2.188z" id="DejaVuSans-115"/><path d="M56.203 29.594v-4.39H14.891q.593-9.282 5.593-14.142 5-4.859 13.938-4.859 5.172 0 10.031 1.266 4.86 1.265 9.656 3.812v-8.5Q49.266.734 44.187-.344 39.11-1.422 33.892-1.422q-13.094 0-20.735 7.61-7.64 7.625-7.64 20.625 0 13.421 7.25 21.296Q20.016 56 32.328 56q11.031 0 17.453-7.11 6.422-7.093 6.422-19.296zm-8.984 2.64q-.094 7.36-4.125 11.75-4.032 4.407-10.672 4.407-7.516 0-12.031-4.25-4.516-4.25-5.203-11.97z" id="DejaVuSans-101"/></defs><use xlink:href="#DejaVuSans-35"/><use x="83.789" xlink:href="#DejaVuSans-32"/><use x="115.576" xlink:href="#DejaVuSans-111"/><use x="176.758" xlink:href="#DejaVuSans-102"/><use x="211.963" xlink:href="#DejaVuSans-32"/><use x="243.75" xlink:href="#DejaVuSans-99"/><use x="298.73" xlink:href="#DejaVuSans-97"/><use x="360.01" xlink:href="#DejaVuSans-115"/><use x="412.109" xlink:href="#DejaVuSans-101"/><use x="473.633" xlink:href="#DejaVuSans-115"/></g></g><g style="fill:#696969" transform="matrix(.24 0 0 -.24 252.577 71.76)" id="text_17"><defs><path d="M9.813 72.906h13.28l32.329-60.984v60.984h9.562V0h-13.28L19.39 60.984V0H9.813z" id="DejaVuSans-78"/><path d="M4.203 54.688h8.985l11.234-42.672 11.172 42.672h10.593l11.235-42.672 11.187 42.672h8.985L63.28 0H52.688L40.922 44.828 29.109 0H18.5z" id="DejaVuSans-119"/><path d="M64.406 67.281v-10.39q-4.984 4.64-10.625 6.922-5.64 2.296-11.984 2.296-12.5 0-19.14-7.64-6.641-7.64-6.641-22.094 0-14.406 6.64-22.047 6.64-7.64 19.14-7.64 6.345 0 11.985 2.296 5.64 2.297 10.625 6.938V5.609Q59.234 2.094 53.437.33q-5.78-1.75-12.218-1.75-16.563 0-26.094 10.124-9.516 10.14-9.516 27.672 0 17.578 9.516 27.703 9.531 10.14 26.094 10.14 6.531 0 12.312-1.734 5.797-1.734 10.875-5.203z" id="DejaVuSans-67"/><path d="M25.39 72.906h8.297L8.297-9.28H0z" id="DejaVuSans-47"/><path d="M9.813 72.906h9.859V42.094L52.39 72.906h12.703L28.906 38.922 67.672 0H54.688L19.672 35.11V0h-9.86z" id="DejaVuSans-75"/><path d="M45.406 46.39v29.594h8.985V0h-8.985v8.203Q42.578 3.328 38.25.953q-4.313-2.375-10.375-2.375-9.906 0-16.14 7.906-6.22 7.922-6.22 20.813 0 12.89 6.22 20.797Q17.968 56 27.874 56q6.063 0 10.375-2.375 4.328-2.36 7.156-7.234zm-30.61-19.093q0-9.906 4.079-15.547 4.078-5.64 11.203-5.64 7.125 0 11.219 5.64 4.11 5.64 4.11 15.547 0 9.906-4.11 15.547-4.094 5.64-11.219 5.64-7.125 0-11.203-5.64-4.078-5.64-4.078-15.547z" id="DejaVuSans-100"/><path d="M9.422 54.688h8.984V0H9.422zm0 21.296h8.984v-11.39H9.422z" id="DejaVuSans-105"/><path d="M31 75.875q-6.531-11.219-9.719-22.219-3.172-10.984-3.172-22.265 0-11.266 3.203-22.328Q24.517-2 31-13.188h-7.813Q15.875-1.704 12.235 9.375q-3.64 11.078-3.64 22.016 0 10.89 3.61 21.922 3.624 11.046 10.983 22.562z" id="DejaVuSans-40"/><path d="M52 44.188q3.375 6.062 8.063 8.937Q64.75 56 71.093 56q8.548 0 13.188-5.984 4.64-5.97 4.64-17V0h-9.03v32.719q0 7.86-2.797 11.656-2.781 3.813-8.485 3.813-6.984 0-11.046-4.641-4.047-4.625-4.047-12.64V0h-9.032v32.719q0 7.906-2.78 11.687-2.782 3.782-8.595 3.782-6.89 0-10.953-4.657-4.047-4.656-4.047-12.625V0H9.08v54.688h9.03v-8.5q3.078 5.03 7.375 7.421Q29.781 56 35.687 56q5.97 0 10.141-3.031Q50 49.953 52 44.187z" id="DejaVuSans-109"/><path d="M8.016 75.875h7.812q7.313-11.516 10.953-22.563 3.64-11.03 3.64-21.921 0-10.938-3.64-22.016-3.64-11.078-10.953-22.563H8.016Q14.5-2 17.703 9.063q3.203 11.063 3.203 22.329 0 11.28-3.203 22.265-3.203 11-9.687 22.219z" id="DejaVuSans-41"/></defs><use xlink:href="#DejaVuSans-78"/><use x="74.805" xlink:href="#DejaVuSans-101"/><use x="136.328" xlink:href="#DejaVuSans-119"/><use x="218.115" xlink:href="#DejaVuSans-32"/><use x="249.902" xlink:href="#DejaVuSans-67"/><use x="319.727" xlink:href="#DejaVuSans-97"/><use x="381.006" xlink:href="#DejaVuSans-115"/><use x="433.105" xlink:href="#DejaVuSans-101"/><use x="494.629" xlink:href="#DejaVuSans-115"/><use x="546.729" xlink:href="#DejaVuSans-47"/><use x="580.42" xlink:href="#DejaVuSans-49"/><use x="644.043" xlink:href="#DejaVuSans-48"/><use x="707.666" xlink:href="#DejaVuSans-48"/><use x="771.289" xlink:href="#DejaVuSans-75"/><use x="836.865" xlink:href="#DejaVuSans-32"/><use x="868.652" xlink:href="#DejaVuSans-49"/><use x="932.275" xlink:href="#DejaVuSans-52"/><use x="995.898" xlink:href="#DejaVuSans-100"/><use x="1059.375" xlink:href="#DejaVuSans-32"/><use x="1091.162" xlink:href="#DejaVuSans-105"/><use x="1118.945" xlink:href="#DejaVuSans-110"/><use x="1182.324" xlink:href="#DejaVuSans-99"/><use x="1237.305" xlink:href="#DejaVuSans-105"/><use x="1265.088" xlink:href="#DejaVuSans-100"/><use x="1328.564" xlink:href="#DejaVuSans-101"/><use x="1390.088" xlink:href="#DejaVuSans-110"/><use x="1453.467" xlink:href="#DejaVuSans-99"/><use x="1508.447" xlink:href="#DejaVuSans-101"/><use x="1569.971" xlink:href="#DejaVuSans-32"/><use x="1601.758" xlink:href="#DejaVuSans-40"/><use x="1640.771" xlink:href="#DejaVuSans-115"/><use x="1692.871" xlink:href="#DejaVuSans-117"/><use x="1756.25" xlink:href="#DejaVuSans-109"/><use x="1853.662" xlink:href="#DejaVuSans-41"/></g><g id="legend_1"><path d="M128.2 184.5h136.45q3.2 0 3.2-3.2V88.96q0-3.2-3.2-3.2H128.2q-3.2 0-3.2 3.2v92.34q0 3.2 3.2 3.2z" style="fill:none;opacity:.8;stroke:#ccc;stroke-linejoin:miter" id="patch_5"/><path d="M131.4 98.718h32" style="fill:none;stroke:#000;stroke-linecap:round;stroke-width:1.5" id="line2d_8"/><g style="fill:#696969" transform="matrix(.16 0 0 -.16 176.2 104.317)" id="text_18"><defs><path d="M8.688 72.906h9.921V28.61q0-11.718 4.235-16.875 4.25-5.14 13.781-5.14 9.469 0 13.719 5.14 4.25 5.157 4.25 16.875v44.297H64.5V27.391q0-14.25-7.063-21.532-7.046-7.28-20.812-7.28-13.828 0-20.89 7.28-7.047 7.282-7.047 21.532z" id="DejaVuSans-85"/><path d="M53.516 70.516V60.89q-5.61 2.687-10.594 4-4.984 1.328-9.625 1.328-8.047 0-12.422-3.125t-4.375-8.89q0-4.845 2.906-7.313 2.907-2.453 11.016-3.97l5.953-1.218q11.031-2.11 16.281-7.406 5.25-5.297 5.25-14.172 0-10.61-7.11-16.078-7.093-5.469-20.812-5.469-5.172 0-11.015 1.172Q13.14.922 6.89 3.219v10.156q6-3.36 11.765-5.078 5.766-1.703 11.328-1.703 8.438 0 13.032 3.312 4.593 3.328 4.593 9.485 0 5.359-3.297 8.39-3.296 3.032-10.812 4.547L27.484 33.5q-11.03 2.188-15.968 6.875-4.922 4.688-4.922 13.047 0 9.672 6.812 15.234 6.813 5.563 18.766 5.563 5.14 0 10.453-.938 5.328-.922 10.89-2.765z" id="DejaVuSans-83"/></defs><use xlink:href="#DejaVuSans-85"/><use x="73.193" xlink:href="#DejaVuSans-83"/></g><path d="M131.4 122.203h32" style="fill:none;stroke:#009e73;stroke-linecap:round;stroke-width:1.5" id="line2d_10"/><g style="fill:#696969" transform="matrix(.16 0 0 -.16 176.2 127.802)" id="text_19"><use xlink:href="#DejaVuSans-78"/><use x="74.805" xlink:href="#DejaVuSans-74"/></g><path d="M131.4 145.688h32" style="fill:none;stroke:#d55e00;stroke-linecap:round;stroke-width:1.5" id="line2d_12"/><g style="fill:#696969" transform="matrix(.16 0 0 -.16 176.2 151.287)" id="text_20"><defs><path d="M19.672 34.813V8.108H35.5q7.953 0 11.781 3.297 3.844 3.297 3.844 10.078 0 6.844-3.844 10.078-3.828 3.25-11.781 3.25zm0 29.984V42.828h14.61q7.218 0 10.75 2.703 3.546 2.719 3.546 8.282 0 5.515-3.547 8.25-3.531 2.734-10.75 2.734zm-9.86 8.11h25.204q11.28 0 17.375-4.688Q58.5 63.53 58.5 54.89q0-6.703-3.125-10.657-3.125-3.953-9.188-4.922 7.282-1.562 11.313-6.53 4.031-4.954 4.031-12.376 0-9.765-6.64-15.093Q48.25 0 35.984 0H9.812z" id="DejaVuSans-66"/><path d="M45.406 27.984q0 9.766-4.031 15.125-4.016 5.375-11.297 5.375-7.219 0-11.25-5.375-4.031-5.359-4.031-15.125 0-9.718 4.031-15.093t11.25-5.375q7.281 0 11.297 5.375 4.031 5.375 4.031 15.093zm8.985-21.203q0-13.953-6.203-20.765Q42-20.797 29.203-20.797q-4.734 0-8.937.703-4.203.703-8.157 2.172v8.735q3.954-2.141 7.813-3.157 3.86-1.031 7.86-1.031 8.843 0 13.234 4.61 4.39 4.609 4.39 13.937v4.453q-2.781-4.844-7.125-7.234Q33.938 0 27.875 0 17.828 0 11.672 7.656q-6.156 7.672-6.156 20.328 0 12.688 6.156 20.344Q17.828 56 27.875 56q6.063 0 10.406-2.39 4.344-2.391 7.125-7.22v8.297h8.985z" id="DejaVuSans-103"/></defs><use xlink:href="#DejaVuSans-66"/><use x="68.604" xlink:href="#DejaVuSans-101"/><use x="130.127" xlink:href="#DejaVuSans-114"/><use x="169.49" xlink:href="#DejaVuSans-103"/><use x="232.967" xlink:href="#DejaVuSans-101"/><use x="294.49" xlink:href="#DejaVuSans-110"/></g><path d="M131.4 169.173h32" style="fill:none;stroke:#0072b2;stroke-linecap:round;stroke-width:1.5" id="line2d_14"/><g style="fill:#696969" transform="matrix(.16 0 0 -.16 176.2 174.773)" id="text_21"><defs><path d="M44.39 34.188q3.172-1.079 6.172-4.594 3-3.516 6.032-9.672L66.609 0H56l-9.313 18.703q-3.624 7.328-7.015 9.719-3.39 2.39-9.25 2.39h-10.75V0h-9.86v72.906h22.266q12.5 0 18.656-5.234 6.157-5.219 6.157-15.766 0-6.89-3.203-11.437-3.204-4.532-9.297-6.282zM19.673 64.797V38.922h12.406q7.125 0 10.766 3.297 3.64 3.297 3.64 9.687 0 6.39-3.64 9.64-3.64 3.25-10.766 3.25z" id="DejaVuSans-82"/><path d="M54.89 33.016V0h-8.984v32.719q0 7.765-3.031 11.61-3.031 3.858-9.078 3.858-7.281 0-11.484-4.64-4.204-4.625-4.204-12.64V0H9.08v75.984h9.03V46.188q3.235 4.937 7.594 7.374Q30.078 56 35.797 56q9.422 0 14.25-5.828 4.844-5.828 4.844-17.156z" id="DejaVuSans-104"/></defs><use xlink:href="#DejaVuSans-82"/><use x="64.982" xlink:href="#DejaVuSans-117"/><use x="128.361" xlink:href="#DejaVuSans-116"/><use x="167.57" xlink:href="#DejaVuSans-104"/><use x="230.949" xlink:href="#DejaVuSans-101"/><use x="292.473" xlink:href="#DejaVuSans-114"/><use x="333.586" xlink:href="#DejaVuSans-102"/><use x="368.791" xlink:href="#DejaVuSans-111"/><use x="429.973" xlink:href="#DejaVuSans-114"/><use x="469.336" xlink:href="#DejaVuSans-100"/></g></g></g></g><defs><clipPath id="pa56dd43a6a"><path d="M117 77.76h725.4v498.96H117z"/></clipPath></defs></svg>