<svg height="864" viewBox="0 0 936 648" width="1248" xmlns="http://www.w3.org/2000/svg" xmlns:xlink="http://www.w3.org/1999/xlink"><defs><style>*{stroke-linecap:butt;stroke-linejoin:round}</style></defs><g id="figure_1"><path d="M0 648h936V0H0z" fill="#fff" id="patch_1"/><g id="axes_1"><path d="M117 576.72h725.4V77.76H117z" fill="none" id="patch_2"/><path clip-path="url(#pbebd543ff3)" d="M149.973 352.915l64.39-.094 11.103-.225 4.44-.2 6.662-.617 4.44-.716 2.22-.57 2.221-.845 2.22-1.115 2.221-1.359 2.22-1.743 4.441-4.325 2.22-1.948 2.221-2.291 2.22-2.479 2.22-2.173 2.221-1.349 2.22-.404 2.22-.93 2.221-1.4 2.22-.143 2.221.466 2.22.003 2.22.525 2.221 1.051 2.22 1.751 2.221 2.526 2.22 1.702 2.22 2.078 2.221 3.799 2.22 2.748 2.221 2.152 2.22 3.073 4.441 4.723 2.22 1.996 4.441 1.335 2.22-.385 2.221-1.53 2.22-.74 2.22-.62 2.221-1.123 2.22-2.169 2.221-1.69 2.22.688 2.22.905 2.221.461 2.22.663 2.22.898 2.221 2.654 2.22 2.292 4.441-.511 2.22.027 2.221-.153 2.22.716 2.221.203 2.22.054 2.22 1.055 2.221.174 4.44-.04 6.662-2.692 2.22-1.554 2.22-.731 2.221-.207 2.22-.537 4.441-.275 2.22.027 2.221.788 2.22 1.032 2.22.539 2.221.814 2.22.503 2.221-.432 2.22-.891 2.22-1.16 2.221-1.635 2.22-1.409 2.221-.64 2.22-.273 2.22.275 2.221 1.028 2.22 1.466 2.22 1.624 2.221.926 4.441-1.21 2.22-.6 2.22-1.26 2.221-1.405 2.22-1.992 2.221-1.709 2.22-.864 4.441-3.354 2.22-1.313 4.441-3.453 2.22-2.392 2.221-2.841 2.22-1.913 4.441-2.767 2.22-1.315 2.221-1.048 2.22-.003 2.22.274 2.221.419 2.22.554 2.221 1.215 4.44 5.825 2.221 1.441 2.22 1.257 2.22.663 2.221-.11 2.22-1.297 2.221-3.838 2.22-3.096 2.22.287 2.221.41 2.22-.333 2.221 1.431 2.22 2.788 2.22 4.346 2.221 3.915 4.44 2.786 2.221 3.126 2.22 1.88 2.221 1.236 4.44 2.095 2.221 2.135 2.22 1.796 4.441 2.798 4.441 4.058 2.22.913 2.22 1.254 2.221 2.718 2.22 1.74 2.221.35 2.22-2.071 2.22-2.231 2.221-1.289 2.22-3.742 2.221-4.04 2.22-2.297 2.22-1.87 2.221.232 2.22 1.194 2.22 2.225 2.221 4.806 2.22 2.937 2.221 1.875 2.22 2.908 2.22 1.453 2.221-.583 2.22-1.777 2.221-3.028 4.44-5.356 2.221-2.79 2.22-2.227 2.22-1.041 2.221-1.446 2.22.352 2.221 1.696 2.22-.869 2.22-1.163 2.221.844 2.22 1.235 2.221 3.828 2.22 1.713 2.22-.925 2.221 2.946 2.22 2.31 2.221-.597 2.22-2.383 4.441-12.048 2.22-3.1 2.22-3.305 2.221-2.23 2.22-.833 2.221.023 2.22-.269 2.22 1.257 2.221 2.382 2.22.082 2.221-.704 2.22.328 2.22 1.527 2.221 5.299 2.22 2.97 2.22-1.372 2.221 1.7 2.22 1.87 2.221-.664 2.22-1.26 2.22-3.006 2.221-2.334 2.22-1.145 2.221-3.033 2.22-2.393 4.441-2.406 2.22-1.488 2.22-.945 2.221.311 2.22-.361 2.221.388 2.22 1.869 2.22-.483 2.221-1.727 2.22-.231 2.221-.084 2.22-.569 2.22-4.177 2.221-5.92 2.22-.807 2.22 1.38 2.221-1.827 2.22-2.825 2.221-1.057 2.22 2.599 2.22 3.832 2.221-.94 2.22-2.498 2.221-1.429 2.22-2.707 2.22-3.707 2.221-6.547 2.22-8.566 2.22-6.604 4.442-13.793 4.44-7.352 2.22-1.97 2.221.958 2.22 1.49 2.221 3.923 2.22 6.016 2.22 3.941 2.221 4.427 4.441 13.067 2.22 8.023 2.22 6.203 2.221 2.155 2.22 12.837 2.22 15.602 2.221 4.738h0" fill="none" stroke="#000" stroke-linecap="round" stroke-width="1.5" id="line2d_1"/><path clip-path="url(#pbebd543ff3)" d="M149.973 352.915l73.272-.092 6.662-.188 6.66-.41 2.221-.613 2.22-.813 2.22-1.2 2.221-2.4 2.22-2.218 2.221-2.95 2.22-5.022 2.22-6.825 2.221-7.708 2.22-5.775 2.221-12.197 2.22-18.963 2.22-16.675 4.442-27.811 2.22-10.534 2.22-14.813 2.22-5.205 2.221 4 2.22-3.354 2.22 2.627 2.221 13.677 2.22 10.485 2.221 17.94 2.22 21.401 2.22 19.948 2.221 30.659 2.22 18.284 2.221 10.696 2.22 8.278 2.22 3.386 2.221-.889 2.22-4.171 2.22-2.094 2.221.43 2.22-7.998 2.221-.263 2.22-2.767 2.22-6.604 2.221 7.492 4.441-4.78 2.22 14.393 2.22 12.81 2.221 13.974 2.22 21.072 2.22 1.61 2.221-.538 2.22 6.975 2.221-3.272 2.22-6.992 2.22-2.842 2.221-5.663 2.22-.231 4.441 12.563 2.22 3.116 2.221 3.601 2.22 2.966 2.22-3.622 2.221-.77 2.22-2.96 4.441-19.426 2.22-11.336 2.221-14.807 2.22-8.5 2.221-6.426 2.22-1.68 2.22 1.858 2.221 5.662 4.44 16.718 2.221 4.877 2.22.425 2.221-4.92 2.22-6.243 2.22-1.529 2.221-3.009 2.22-2.357 2.221 3.541 2.22 4.543 2.22 3.181 2.221 5.055 2.22.15 2.22-.226 2.221-.457 2.22-5.927 2.221-2.68 2.22.775 2.22-3.563 2.221-3.23 2.22-2.05 2.221-.28 2.22 2.013 2.22-2.288 2.221-2.756 2.22-.215 2.22-1.017 4.442-1.4 2.22-.646 2.22.41 4.441-.189 2.22 1.426 2.221.83 2.22-1.626 2.22-2.4 2.221-1.201 2.22-.27 2.221-.591 2.22-1.943 2.22-.528 2.221 2.19 2.22 2.983 2.22 1.867 2.221-.226 2.22.28 2.221 1.044 2.22-.807 4.441-5.958 2.22.49 4.441 4.822 2.22 2.148 2.221 1.534 2.22 2.164 2.22.963 2.221-4 2.22-5.726 4.441-13.15 2.22-3.245 2.221-1.863 2.22.006 2.221 1.254 2.22 3.068 2.22 5.996 2.221 6.319 2.22 4.15 2.22 2.761 2.221-.064 2.22 1.905 2.221 2.255 2.22-1.884 4.441-4.198 2.22-2.341 2.221-1.787 2.22-3.51 2.22-2.427 2.221 2.384 2.22 1.583 2.22.759 2.221 2.373 2.22 5.803 2.221 7.148 2.22 1.394 2.22-4.344 2.221-2.341 2.22.306 2.221-.936 2.22-4.591 2.22-5.98 2.221-.738 2.22 2.277 2.22.005 2.221-1.442 2.22-.651 2.221.387 2.22.608 2.22-.371 2.221-.178 2.22.83 2.221 1.194 2.22.447 2.22.145 2.221.49 2.22-.441 2.221-.614 2.22.08 2.22-1.243 2.221-1.394 2.22-.786 2.22-.468 2.221.668 2.22-.313 2.221-1.216 2.22.608 4.441 2.202 2.22.549 2.221-1.75 2.22-1.97 2.22-1.065 2.221-.802 4.44-3.569 2.221-1.001 2.22-.21 2.221 2.201 2.22 2.864 2.22.387 2.221 1.965 2.22-.678 2.221-3.052 2.22 1.868 2.22.446 4.442-2.126 2.22-4.413 2.22 2.029 2.22 6.41 2.221.146 2.22-2.971 2.22-6.266 2.221-2.185 2.22 3.752 2.221-.97 2.22-4.348 2.22-6.432 2.221-1.265 2.22 7.368 2.22.216 2.221-6.475 2.22-3.989 2.221-4.807 2.22 4.441 2.22 4.096 2.221-4.78 4.441 3.757 2.22-.828 2.22 3.886 2.221-8.822 2.22-10.986 2.22-1.044 2.221-12.412 2.22-8.8 2.221-5.297 2.22-11.67 2.22-1.953 2.221-8.435 2.22-9.29 2.221 11.998 2.22 7.293 2.22 2.653 4.442 19.846 2.22 21.153 2.22 10.195 2.22-6.465 2.221 5.27 2.22 7.422 2.22.862 2.221-2.116h0" fill="none" stroke="#009e73" stroke-linecap="round" stroke-width="1.5" id="line2d_2"/><path clip-path="url(#pbebd543ff3)" d="M149.973 352.915l62.17-.052 19.984-.974 2.22-.82 2.22-.667 2.221-1.334 2.22-2.359 2.22-3.128 4.442-20.617 2.22-1.538 2.22-4.41 2.22-9.693 2.221-7.334 2.22-3.693 2.221-4.359 2.22-14.052 2.22-26.668 2.221-23.027 2.22-9.231 2.22-15.59 2.221-34.054 2.22-20.155 2.221-10.718 2.22-23.694 2.22-5.538 2.221-3.129 2.22-5.641 2.221 41.13 2.22 54.619 2.22 51.49 2.221 85.696 2.22 57.542 2.221 42.566 2.22 67.183 2.22 13.129 2.221-28.36 2.22-14.309 4.441-39.079 2.22-25.13 2.221-39.95 2.22-8.975 2.22 23.745 2.221 15.334 2.22-10.257 2.221 4.82 2.22 30.772 2.22 25.95 2.221 12.923 2.22 2.257 2.22-2.308 2.221 13.334 2.22 3.744 4.441-43.284 2.22-11.745 2.221-6.359 2.22-5.026 2.221-8 2.22-5.744 2.22 1.333 2.221 5.231 2.22.616 4.441-5.18 2.22-7.18 2.221-4.154 2.22-3.744 2.22-5.744 2.221-2.718 4.441-23.898 2.22 2.666 2.22-2 2.221-1.59 2.22.052 2.22-6.462 2.221-3.18 2.22 1.282 2.221-2.513 2.22 4.462 2.22 8.308 2.221 4.924 2.22 5.692 2.221 13.027 2.22 9.128 2.22-3.23 4.442-10.206 4.44-10.309 2.22-9.795 2.221-5.231 2.22 1.487 2.22-1.333 2.221-2.154 2.22-1.128 2.221 5.333 2.22 8.667 2.22 1.334 2.221 2.102 2.22 2.975 2.22-.051 2.221 2.359 2.22-1.487 4.441-43.028 2.22-5.129 2.221-4.051 2.22-3.129 2.221-1.743 2.22-1.539 2.22 32.053 2.221 37.746 2.22 4.154 2.221 2.256 2.22 3.385 2.22 1.436 2.221.154 4.44-37.694 2.221-.41 2.22 2.666 2.221 2.154 2.22-.154 2.22 2.667 2.221 6.36 2.22 4.512 2.221 1.795 2.22-.974 2.22-3.077 2.221-2.616 2.22-3.744 2.22-5.333 2.221-4.667 4.441-8.052 2.22-1.128 2.22-.359 2.221-.77 2.22 2.565 4.441.667 8.882 13.385 2.22-.308 2.22 2.257 2.221 1.18 2.22-3.385 2.22-2.36 4.442-.871 2.22-1.231 2.22-6.667 2.22-5.026 2.221.718 2.22-3.436 2.22-2.872 2.221 1.692 2.22 6.975 2.221 14.77 2.22 11.436 2.22 6.667 2.221 10.463 2.22 3.948 2.221-5.18 2.22-11.385 2.22-12.667 4.442-13.744 2.22-8.462 2.22-4 2.22 2.41 2.221 5.18 2.22 2.051 2.22 2.36 2.221 4.41 2.22 3.23 2.221 4.668 2.22 2.205 2.22.513 2.221 1.59 2.22-2.308 2.221-2.667 2.22-.923 2.22-1.487 2.221-.616 4.44-4.564 2.221-.36 2.22-.153 2.221.359 2.22-3.744 2.22-3.385 4.442 7.283 2.22.82 2.22-.923 2.22-1.64 2.221 3.384 2.22 2.77 2.22-4.411 2.221-5.231 2.22-2.718h2.221l2.22.923 4.441-4.41 2.22 1.128 2.221 1.846 2.22.974 2.22-.77 2.221-1.332 4.44-3.283 2.221-.513 2.22.462 2.221 2 2.22.718 2.22-3.077h2.221l2.22.77 2.221-.873 2.22.41 2.22-4.923 2.221-3.692 2.22 2.974 2.22-.205 2.221 1.641 2.22 2.667 2.221-7.026 2.22-.564 2.22 3.898 2.221-1.898 2.22.154 2.221-6.564 2.22-4.308 2.22 9.23 2.221-5.23 2.22-11.693 2.22 1.846 2.221-2.718 2.22-4.103 2.221-16.257 2.22-24.104 2.22.667 2.221.308 2.22-10.616 2.221-1.488 2.22 1.59 2.22 13.54 2.221 21.488 2.22 7.539 2.221 9.59 2.22 1.641 2.22-.667 2.221 17.488 2.22 13.13 2.22-8.104 2.221-18.924h0" fill="none" stroke="#d55e00" stroke-linecap="round" stroke-width="1.5" id="line2d_3"/><path clip-path="url(#pbebd543ff3)" d="M149.973 352.915h93.256l4.44-10.448h2.221l4.44-5.224 2.221-7.836 2.22-15.672 2.221-13.06 2.22-7.837 2.22-10.448 2.221-7.836 2.22-13.06 2.22-18.284 2.221-7.836 2.22 18.284 2.221 10.448 2.22-36.568 2.22-47.016 2.221-2.612 2.22 39.18 2.221 41.792 2.22-10.448 2.22-20.896 2.221 80.972 2.22 122.765 2.221 39.18 4.44-36.568 2.221 20.896 2.22 41.793 2.22-31.345 2.221-67.912 2.22-18.284 2.221 10.448h2.22l2.22-13.06 2.221-23.508 2.22-5.224 2.221 5.224 2.22-2.612 2.22 2.612 4.442 31.344 2.22 20.896 2.22 10.448 2.22-5.224 2.221 13.06 2.22 5.224 2.22-10.448h2.221l2.22-2.612 2.221 5.224 2.22 10.448 2.22-23.508 2.221-33.956 4.44-36.568 2.221-15.672 2.22-13.06 2.221-7.837 2.22 20.897 2.22 39.18 2.221 23.508 2.22 10.448 2.221 7.836 2.22 2.612h2.22l2.221-10.448 2.22-18.284 2.22-10.448 2.221-5.224 2.22-10.448 2.221-7.836h2.22l4.441-15.672h4.441l4.44 20.896h2.221l4.44 31.344 4.442-5.224 4.44-15.672h2.22l4.442-15.672 8.881 20.896h2.22l2.22-5.224 4.442-5.224 4.44-15.672 2.22-5.224h4.442l2.22-2.612h2.22l2.22 7.836 2.221 10.448 2.22 5.224h4.441l2.22-2.612h2.221l2.22-2.612 2.22-13.06 2.221-7.836h2.22l2.221 15.672 2.22 18.284h2.22l2.221 2.612 2.22 15.672 2.221 10.448h2.22l2.22-5.224 2.221-10.448 4.44-15.672 2.221-10.448 2.22-5.224h2.221l2.22-7.836 2.22 5.224 2.221 18.284 2.22 7.836 2.221 2.612h4.44l2.221 2.612 2.22-5.224 2.22-13.06 2.221-2.612 2.22 2.612h4.441l6.662 7.836h2.22l2.22-5.224 2.22-2.612h2.221l4.44-10.448 2.221 2.612h4.441l2.22 2.612h2.22l2.221 5.224h2.22l2.221-10.448 2.22-2.612 2.22 5.224 2.221 2.612h2.22l2.22-5.224 4.442 10.448 2.22-2.612h2.22l2.22-2.612h2.221l2.22 5.224 2.221-7.836 2.22 5.224 2.22 15.672 2.221-2.612h4.441l2.22-5.224 2.22 10.448h2.221l2.22-18.284 2.22-2.612h4.442l2.22-2.612 2.22-10.448h2.22l2.221 13.06 2.22 5.224h4.441l4.441 26.12h2.22l4.441-5.224h4.441l2.22-13.06 2.22-15.672 2.221-18.284 2.22-39.18 2.221-28.733 2.22-5.224h2.22l2.221 5.224 2.22-5.224 2.22 13.06 2.221 57.465 2.22 31.344 2.221-10.448 2.22-15.672 2.22-7.836 2.221 28.732 2.22 10.448 2.221-15.672 2.22 23.508 2.22 36.568 2.221 31.344 2.22 5.224 2.22-36.568 4.442-41.792 2.22-52.24 2.22-33.957 2.22-15.672 2.221-13.06 2.22 13.06 4.441 31.344 2.22 31.345 2.221 13.06h2.22l2.22-2.612 2.221-18.284 2.22 7.836 2.221-18.285 2.22-47.016 2.22-5.224h2.221l2.22 26.12 2.221 13.06 2.22-62.688 2.22 10.448 2.221 47.016 2.22-26.12 2.221-13.06 2.22-2.612 2.22 28.732 2.221 78.36 2.22 44.405 2.22 52.24 2.221 104.481h0" fill="none" stroke="#0072b2" stroke-linecap="round" stroke-width="1.5" id="line2d_4"/><path d="M117 576.72V77.76" fill="none" stroke="#d3d3d3" stroke-linecap="square" stroke-width="1.25" id="patch_3"/><path d="M117 576.72h725.4" fill="none" stroke="#d3d3d3" stroke-linecap="square" stroke-width="1.25" id="patch_4"/><g id="matplotlib.axis_1"><g id="xtick_1"><g transform="matrix(.16 0 0 -.16 129.15 598.378)" fill="#696969" id="text_1"><defs><path d="M9.813 72.906h41.89v-8.312H19.672V43.109h28.906v-8.297H19.672V0h-9.86z" id="DejaVuSans-70"/><path d="M56.203 29.594v-4.39H14.891q.593-9.282 5.593-14.142 5-4.859 13.938-4.859 5.172 0 10.031 1.266 4.86 1.265 9.656 3.812v-8.5Q49.266.734 44.187-.344 39.11-1.422 33.892-1.422q-13.094 0-20.735 7.61-7.64 7.625-7.64 20.625 0 13.421 7.25 21.296Q20.016 56 32.328 56q11.031 0 17.453-7.11 6.422-7.093 6.422-19.296zm-8.984 2.64q-.094 7.36-4.125 11.75-4.032 4.407-10.672 4.407-7.516 0-12.031-4.25-4.516-4.25-5.203-11.97z" id="DejaVuSans-101"/><path d="M48.688 27.297q0 9.906-4.079 15.547-4.078 5.64-11.203 5.64-7.14 0-11.218-5.64-4.079-5.64-4.079-15.547 0-9.906 4.078-15.547 4.079-5.64 11.22-5.64 7.124 0 11.202 5.64t4.078 15.547zM18.108 46.39q2.844 4.875 7.157 7.234Q29.594 56 35.594 56q9.968 0 16.187-7.906 6.235-7.907 6.235-20.797T51.78 6.484q-6.218-7.906-16.187-7.906-6 0-10.328 2.375-4.313 2.375-7.157 7.25V0H9.08v75.984h9.03z" id="DejaVuSans-98"/></defs><use xlink:href="#DejaVuSans-70"/><use x="52.02" xlink:href="#DejaVuSans-101"/><use x="113.543" xlink:href="#DejaVuSans-98"/></g></g><g id="xtick_2"><g transform="matrix(.16 0 0 -.16 192.609 598.378)" fill="#696969" id="text_2"><defs><path d="M9.813 72.906h14.703l18.593-49.61 18.703 49.61h14.704V0H66.89v64.016l-18.797-50h-9.907l-18.796 50V0H9.813z" id="DejaVuSans-77"/><path d="M34.281 27.484q-10.89 0-15.093-2.484-4.204-2.484-4.204-8.5 0-4.781 3.157-7.594 3.156-2.797 8.562-2.797 7.485 0 12 5.297 4.516 5.297 4.516 14.078v2zm17.922 3.72V0H43.22v8.297Q40.14 3.328 35.547.953q-4.594-2.375-11.234-2.375-8.391 0-13.36 4.719Q6 8.016 6 15.922q0 9.219 6.172 13.906 6.187 4.688 18.437 4.688h12.61v.89q0 6.203-4.078 9.594-4.078 3.39-11.453 3.39-4.688 0-9.141-1.124-4.438-1.125-8.531-3.375v8.312q4.921 1.906 9.562 2.844 4.64.953 9.031.953 11.875 0 17.735-6.156 5.86-6.14 5.86-18.64z" id="DejaVuSans-97"/><path d="M41.11 46.297q-1.516.875-3.297 1.281Q36.03 48 33.89 48q-7.625 0-11.703-4.953-4.079-4.953-4.079-14.234V0H9.08v54.688h9.03v-8.5q2.844 4.984 7.375 7.39Q30.031 56 36.531 56q.922 0 2.047-.125 1.125-.11 2.484-.36z" id="DejaVuSans-114"/></defs><use xlink:href="#DejaVuSans-77"/><use x="86.279" xlink:href="#DejaVuSans-97"/><use x="147.559" xlink:href="#DejaVuSans-114"/></g></g><g id="xtick_3"><g transform="matrix(.16 0 0 -.16 262.695 598.378)" fill="#696969" id="text_3"><defs><path d="M34.188 63.188L20.797 26.906h26.812zm-5.579 9.718h11.188L67.578 0h-10.25l-6.64 18.703h-32.86L11.188 0H.78z" id="DejaVuSans-65"/><path d="M18.11 8.203v-29H9.077v75.484h9.031v-8.296q2.844 4.875 7.157 7.234Q29.594 56 35.594 56q9.968 0 16.187-7.906 6.235-7.907 6.235-20.797T51.78 6.484q-6.218-7.906-16.187-7.906-6 0-10.328 2.375-4.313 2.375-7.157 7.25zm30.578 19.094q0 9.906-4.079 15.547-4.078 5.64-11.203 5.64-7.14 0-11.218-5.64-4.079-5.64-4.079-15.547 0-9.906 4.078-15.547 4.079-5.64 11.22-5.64 7.124 0 11.202 5.64t4.078 15.547z" id="DejaVuSans-112"/></defs><use xlink:href="#DejaVuSans-65"/><use x="68.408" xlink:href="#DejaVuSans-112"/><use x="131.885" xlink:href="#DejaVuSans-114"/></g></g><g id="xtick_4"><g transform="matrix(.16 0 0 -.16 326.606 598.378)" fill="#696969" id="text_4"><defs><path d="M32.172-5.078q-3.797-9.766-7.422-12.735-3.61-2.984-9.656-2.984H7.906v7.516h5.282q3.703 0 5.75 1.765Q21-9.766 23.483-3.219l1.61 4.094-22.11 53.813H12.5l17.094-42.766 17.093 42.766h9.516z" id="DejaVuSans-121"/></defs><use xlink:href="#DejaVuSans-77"/><use x="86.279" xlink:href="#DejaVuSans-97"/><use x="147.559" xlink:href="#DejaVuSans-121"/></g></g><g id="xtick_5"><g transform="matrix(.16 0 0 -.16 399.478 598.378)" fill="#696969" id="text_5"><defs><path d="M9.813 72.906h9.859V5.078q0-13.187-5-19.14-5-5.954-16.094-5.954h-3.75v8.297h3.078q6.531 0 9.219 3.672Q9.813-4.39 9.813 5.078z" id="DejaVuSans-74"/><path d="M8.5 21.578v33.11h8.984V21.922q0-7.766 3.016-11.656 3.031-3.875 9.094-3.875 7.265 0 11.484 4.64 4.234 4.64 4.234 12.656v31h8.985V0h-8.984v8.406Q42.047 3.422 37.718 1q-4.313-2.422-10.032-2.422-9.421 0-14.312 5.86Q8.5 10.296 8.5 21.578zM31.11 56z" id="DejaVuSans-117"/><path d="M54.89 33.016V0h-8.984v32.719q0 7.765-3.031 11.61-3.031 3.858-9.078 3.858-7.281 0-11.484-4.64-4.204-4.625-4.204-12.64V0H9.08v54.688h9.03v-8.5q3.235 4.937 7.594 7.374Q30.078 56 35.797 56q9.422 0 14.25-5.828 4.844-5.828 4.844-17.156z" id="DejaVuSans-110"/></defs><use xlink:href="#DejaVuSans-74"/><use x="29.492" xlink:href="#DejaVuSans-117"/><use x="92.871" xlink:href="#DejaVuSans-110"/></g></g><g id="xtick_6"><g transform="matrix(.16 0 0 -.16 468.937 598.378)" fill="#696969" id="text_6"><defs><path d="M9.422 75.984h8.984V0H9.422z" id="DejaVuSans-108"/></defs><use xlink:href="#DejaVuSans-74"/><use x="29.492" xlink:href="#DejaVuSans-117"/><use x="92.871" xlink:href="#DejaVuSans-108"/></g></g><g id="xtick_7"><g transform="matrix(.16 0 0 -.16 531.8 598.378)" fill="#696969" id="text_7"><defs><path d="M45.406 27.984q0 9.766-4.031 15.125-4.016 5.375-11.297 5.375-7.219 0-11.25-5.375-4.031-5.359-4.031-15.125 0-9.718 4.031-15.093t11.25-5.375q7.281 0 11.297 5.375 4.031 5.375 4.031 15.093zm8.985-21.203q0-13.953-6.203-20.765Q42-20.797 29.203-20.797q-4.734 0-8.937.703-4.203.703-8.157 2.172v8.735q3.954-2.141 7.813-3.157 3.86-1.031 7.86-1.031 8.843 0 13.234 4.61 4.39 4.609 4.39 13.937v4.453q-2.781-4.844-7.125-7.234Q33.938 0 27.875 0 17.828 0 11.672 7.656q-6.156 7.672-6.156 20.328 0 12.688 6.156 20.344Q17.828 56 27.875 56q6.063 0 10.406-2.39 4.344-2.391 7.125-7.22v8.297h8.985z" id="DejaVuSans-103"/></defs><use xlink:href="#DejaVuSans-65"/><use x="68.408" xlink:href="#DejaVuSans-117"/><use x="131.787" xlink:href="#DejaVuSans-103"/></g></g><g id="xtick_8"><g transform="matrix(.16 0 0 -.16 601.174 598.378)" fill="#696969" id="text_8"><defs><path d="M53.516 70.516V60.89q-5.61 2.687-10.594 4-4.984 1.328-9.625 1.328-8.047 0-12.422-3.125t-4.375-8.89q0-4.845 2.906-7.313 2.907-2.453 11.016-3.97l5.953-1.218q11.031-2.11 16.281-7.406 5.25-5.297 5.25-14.172 0-10.61-7.11-16.078-7.093-5.469-20.812-5.469-5.172 0-11.015 1.172Q13.14.922 6.89 3.219v10.156q6-3.36 11.765-5.078 5.766-1.703 11.328-1.703 8.438 0 13.032 3.312 4.593 3.328 4.593 9.485 0 5.359-3.297 8.39-3.296 3.032-10.812 4.547L27.484 33.5q-11.03 2.188-15.968 6.875-4.922 4.688-4.922 13.047 0 9.672 6.812 15.234 6.813 5.563 18.766 5.563 5.14 0 10.453-.938 5.328-.922 10.89-2.765z" id="DejaVuSans-83"/></defs><use xlink:href="#DejaVuSans-83"/><use x="63.477" xlink:href="#DejaVuSans-101"/><use x="125" xlink:href="#DejaVuSans-112"/></g></g><g id="xtick_9"><g transform="matrix(.16 0 0 -.16 669.033 598.378)" fill="#696969" id="text_9"><defs><path d="M39.406 66.219q-10.75 0-17.078-8.016-6.312-8-6.312-21.828 0-13.766 6.312-21.781 6.328-8 17.078-8 10.735 0 17.016 8 6.281 8.015 6.281 21.781 0 13.828-6.281 21.828-6.281 8.016-17.016 8.016zm0 8q15.328 0 24.5-10.281 9.188-10.282 9.188-27.563 0-17.234-9.188-27.516-9.172-10.28-24.5-10.28-15.375 0-24.593 10.25-9.204 10.265-9.204 27.546t9.204 27.563q9.218 10.28 24.593 10.28z" id="DejaVuSans-79"/><path d="M48.781 52.594v-8.407q-3.812 2.11-7.64 3.157-3.828 1.047-7.735 1.047-8.75 0-13.593-5.547-4.829-5.532-4.829-15.547 0-10.016 4.829-15.563 4.843-5.53 13.593-5.53 3.907 0 7.735 1.046 3.828 1.047 7.64 3.156V2.094Q45.016.344 40.984-.531q-4.015-.89-8.562-.89-12.36 0-19.64 7.765-7.266 7.765-7.266 20.953 0 13.375 7.343 21.031Q20.22 56 33.016 56q4.14 0 8.093-.86 3.953-.843 7.672-2.546z" id="DejaVuSans-99"/><path d="M18.313 70.219V54.688h18.5v-6.985h-18.5V18.016q0-6.688 1.828-8.594 1.828-1.906 7.453-1.906h9.218V0h-9.218q-10.407 0-14.36 3.875-3.953 3.89-3.953 14.14v29.688H2.687v6.984h6.594V70.22z" id="DejaVuSans-116"/></defs><use xlink:href="#DejaVuSans-79"/><use x="78.711" xlink:href="#DejaVuSans-99"/><use x="133.691" xlink:href="#DejaVuSans-116"/></g></g><g id="xtick_10"><g transform="matrix(.16 0 0 -.16 736.082 598.378)" fill="#696969" id="text_10"><defs><path d="M9.813 72.906h13.28l32.329-60.984v60.984h9.562V0h-13.28L19.39 60.984V0H9.813z" id="DejaVuSans-78"/><path d="M30.61 48.39q-7.22 0-11.422-5.64-4.204-5.64-4.204-15.453 0-9.813 4.172-15.453 4.188-5.64 11.453-5.64 7.188 0 11.375 5.655 4.203 5.672 4.203 15.438 0 9.719-4.203 15.406-4.187 5.688-11.375 5.688zm0 7.61q11.718 0 18.406-7.625 6.703-7.61 6.703-21.078 0-13.422-6.703-21.078-6.688-7.64-18.407-7.64-11.765 0-18.437 7.64-6.656 7.656-6.656 21.078 0 13.469 6.656 21.078Q18.844 56 30.609 56z" id="DejaVuSans-111"/><path d="M2.984 54.688H12.5L29.594 8.797l17.093 45.89h9.516L35.687 0H23.485z" id="DejaVuSans-118"/></defs><use xlink:href="#DejaVuSans-78"/><use x="74.805" xlink:href="#DejaVuSans-111"/><use x="135.986" xlink:href="#DejaVuSans-118"/></g></g><g id="xtick_11"><g transform="matrix(.16 0 0 -.16 802.828 598.378)" fill="#696969" id="text_11"><defs><path d="M19.672 64.797V8.109h11.922q15.093 0 22.093 6.829 7 6.843 7 21.593 0 14.64-7 21.453-7 6.813-22.093 6.813zm-9.86 8.11h20.266q21.188 0 31.094-8.813 9.922-8.813 9.922-27.563 0-18.86-9.969-27.703Q51.172 0 30.078 0H9.813z" id="DejaVuSans-68"/></defs><use xlink:href="#DejaVuSans-68"/><use x="77.002" xlink:href="#DejaVuSans-101"/><use x="138.525" xlink:href="#DejaVuSans-99"/></g></g></g><g id="matplotlib.axis_2"><g id="ytick_1"><g transform="matrix(.16 0 0 -.16 83.912 546.4)" fill="#696969" id="text_12"><defs><path d="M10.594 35.5h62.593v-8.297H10.594z" id="DejaVuSans-8722"/><path d="M37.797 64.313L12.89 25.39h24.906zm-2.594 8.593H47.61V25.391h10.407v-8.203H47.609V0h-9.812v17.188H4.89v9.515z" id="DejaVuSans-52"/></defs><use xlink:href="#DejaVuSans-8722"/><use x="83.789" xlink:href="#DejaVuSans-52"/></g></g><g id="ytick_2"><g transform="matrix(.16 0 0 -.16 83.912 452.697)" fill="#696969" id="text_13"><defs><path d="M19.188 8.297h34.421V0H7.33v8.297q5.609 5.812 15.296 15.594 9.703 9.797 12.188 12.64 4.734 5.313 6.609 9 1.89 3.688 1.89 7.25 0 5.813-4.078 9.469-4.078 3.672-10.625 3.672-4.64 0-9.797-1.61-5.14-1.609-11-4.89v9.969Q13.767 71.78 18.938 73q5.188 1.219 9.485 1.219 11.328 0 18.062-5.672 6.735-5.656 6.735-15.125 0-4.5-1.688-8.531-1.672-4.016-6.125-9.485-1.218-1.422-7.765-8.187-6.532-6.766-18.453-18.922z" id="DejaVuSans-50"/></defs><use xlink:href="#DejaVuSans-8722"/><use x="83.789" xlink:href="#DejaVuSans-50"/></g></g><g id="ytick_3"><g transform="matrix(.16 0 0 -.16 97.32 358.994)" fill="#696969" id="text_14"><defs><path d="M31.781 66.406q-7.61 0-11.453-7.5Q16.5 51.422 16.5 36.375q0-14.984 3.828-22.484 3.844-7.5 11.453-7.5 7.672 0 11.5 7.5 3.844 7.5 3.844 22.484 0 15.047-3.844 22.531-3.828 7.5-11.5 7.5zm0 7.813q12.266 0 18.735-9.703 6.468-9.688 6.468-28.141 0-18.406-6.468-28.11-6.47-9.687-18.735-9.687-12.25 0-18.718 9.688-6.47 9.703-6.47 28.109 0 18.453 6.47 28.14Q19.53 74.22 31.78 74.22z" id="DejaVuSans-48"/></defs><use xlink:href="#DejaVuSans-48"/></g></g><g id="ytick_4"><use xlink:href="#DejaVuSans-50" transform="matrix(.16 0 0 -.16 97.32 265.29)" fill="#696969" id="text_15"/></g><g id="ytick_5"><use xlink:href="#DejaVuSans-52" transform="matrix(.16 0 0 -.16 97.32 171.587)" fill="#696969" id="text_16"/></g><g transform="matrix(0 -.2 -.2 0 75.753 379.813)" fill="#696969" id="text_17"><defs><path d="M51.125 44H36.922l-4.11-16.313h14.313zm-7.328 27.781l-5.078-20.265h14.265L58.11 71.78h7.813L60.89 51.516h15.234V44h-17.14l-4-16.313h15.53V20.22H53.079L48 0h-7.813l5.032 20.219H30.906L25.875 0h-7.86l5.079 20.219H7.719v7.468h17.187L29 44H13.281v7.516h17.625l4.985 20.265z" id="DejaVuSans-35"/><path d="M37.11 75.984V68.5h-8.594q-4.828 0-6.72-1.953-1.874-1.953-1.874-7.031v-4.828h14.797v-6.985H19.922V0H10.89v47.703H2.297v6.984h8.594V58.5q0 9.125 4.25 13.297 4.25 4.187 13.468 4.187z" id="DejaVuSans-102"/><path d="M44.281 53.078v-8.5q-3.797 1.953-7.906 2.922-4.094.984-8.5.984-6.688 0-10.031-2.047-3.344-2.046-3.344-6.156 0-3.125 2.39-4.906 2.391-1.781 9.626-3.39l3.078-.688q9.562-2.047 13.593-5.781 4.032-3.735 4.032-10.422 0-7.625-6.032-12.078-6.03-4.438-16.578-4.438-4.39 0-9.156.86Q10.688.296 5.422 2v9.281q4.984-2.594 9.812-3.89 4.829-1.282 9.579-1.282 6.343 0 9.75 2.172 3.421 2.172 3.421 6.125 0 3.656-2.468 5.61-2.453 1.953-10.813 3.765l-3.125.735q-8.344 1.75-12.062 5.39-3.704 3.64-3.704 9.985 0 7.718 5.47 11.906Q16.75 56 26.811 56q4.97 0 9.36-.734 4.406-.72 8.11-2.188z" id="DejaVuSans-115"/></defs><use xlink:href="#DejaVuSans-35"/><use x="83.789" xlink:href="#DejaVuSans-32"/><use x="115.576" xlink:href="#DejaVuSans-111"/><use x="176.758" xlink:href="#DejaVuSans-102"/><use x="211.963" xlink:href="#DejaVuSans-32"/><use x="243.75" xlink:href="#DejaVuSans-99"/><use x="298.73" xlink:href="#DejaVuSans-97"/><use x="360.01" xlink:href="#DejaVuSans-115"/><use x="412.109" xlink:href="#DejaVuSans-101"/><use x="473.633" xlink:href="#DejaVuSans-115"/></g></g><g transform="matrix(.24 0 0 -.24 245.86 71.76)" fill="#696969" id="text_18"><defs><path d="M4.203 54.688h8.985l11.234-42.672 11.172 42.672h10.593l11.235-42.672 11.187 42.672h8.985L63.28 0H52.688L40.922 44.828 29.109 0H18.5z" id="DejaVuSans-119"/><path d="M64.406 67.281v-10.39q-4.984 4.64-10.625 6.922-5.64 2.296-11.984 2.296-12.5 0-19.14-7.64-6.641-7.64-6.641-22.094 0-14.406 6.64-22.047 6.64-7.64 19.14-7.64 6.345 0 11.985 2.296 5.64 2.297 10.625 6.938V5.609Q59.234 2.094 53.437.33q-5.78-1.75-12.218-1.75-16.563 0-26.094 10.124-9.516 10.14-9.516 27.672 0 17.578 9.516 27.703 9.531 10.14 26.094 10.14 6.531 0 12.312-1.734 5.797-1.734 10.875-5.203z" id="DejaVuSans-67"/><path d="M8.203 72.906h46.875v-4.203L28.61 0H18.312L43.22 64.594H8.203z" id="DejaVuSans-55"/><path d="M45.406 46.39v29.594h8.985V0h-8.985v8.203Q42.578 3.328 38.25.953q-4.313-2.375-10.375-2.375-9.906 0-16.14 7.906-6.22 7.922-6.22 20.813 0 12.89 6.22 20.797Q17.968 56 27.874 56q6.063 0 10.375-2.375 4.328-2.36 7.156-7.234zm-30.61-19.093q0-9.906 4.079-15.547 4.078-5.64 11.203-5.64 7.125 0 11.219 5.64 4.11 5.64 4.11 15.547 0 9.906-4.11 15.547-4.094 5.64-11.219 5.64-7.125 0-11.203-5.64-4.078-5.64-4.078-15.547z" id="DejaVuSans-100"/><path d="M25.39 72.906h8.297L8.297-9.28H0z" id="DejaVuSans-47"/><path d="M12.406 8.297h16.11v55.625l-17.532-3.516v8.985l17.438 3.515h9.86V8.296H54.39V0H12.406z" id="DejaVuSans-49"/><path d="M9.813 72.906h9.859V42.094L52.39 72.906h12.703L28.906 38.922 67.672 0H54.688L19.672 35.11V0h-9.86z" id="DejaVuSans-75"/></defs><use xlink:href="#DejaVuSans-78"/><use x="74.805" xlink:href="#DejaVuSans-101"/><use x="136.328" xlink:href="#DejaVuSans-119"/><use x="218.115" xlink:href="#DejaVuSans-32"/><use x="249.902" xlink:href="#DejaVuSans-67"/><use x="319.727" xlink:href="#DejaVuSans-97"/><use x="381.006" xlink:href="#DejaVuSans-115"/><use x="433.105" xlink:href="#DejaVuSans-101"/><use x="494.629" xlink:href="#DejaVuSans-115"/><use x="546.729" xlink:href="#DejaVuSans-32"/><use x="578.516" xlink:href="#DejaVuSans-55"/><use x="642.139" xlink:href="#DejaVuSans-100"/><use x="705.615" xlink:href="#DejaVuSans-32"/><use x="737.402" xlink:href="#DejaVuSans-97"/><use x="798.682" xlink:href="#DejaVuSans-118"/><use x="857.861" xlink:href="#DejaVuSans-103"/><use x="921.338" xlink:href="#DejaVuSans-32"/><use x="953.125" xlink:href="#DejaVuSans-115"/><use x="1005.225" xlink:href="#DejaVuSans-108"/><use x="1033.008" xlink:href="#DejaVuSans-111"/><use x="1094.189" xlink:href="#DejaVuSans-112"/><use x="1157.666" xlink:href="#DejaVuSans-101"/><use x="1219.189" xlink:href="#DejaVuSans-32"/><use x="1250.977" xlink:href="#DejaVuSans-111"/><use x="1312.158" xlink:href="#DejaVuSans-102"/><use x="1347.363" xlink:href="#DejaVuSans-32"/><use x="1379.15" xlink:href="#DejaVuSans-55"/><use x="1442.773" xlink:href="#DejaVuSans-32"/><use x="1474.561" xlink:href="#DejaVuSans-97"/><use x="1535.84" xlink:href="#DejaVuSans-118"/><use x="1595.02" xlink:href="#DejaVuSans-103"/><use x="1658.496" xlink:href="#DejaVuSans-47"/><use x="1692.188" xlink:href="#DejaVuSans-49"/><use x="1755.811" xlink:href="#DejaVuSans-48"/><use x="1819.434" xlink:href="#DejaVuSans-48"/><use x="1883.057" xlink:href="#DejaVuSans-75"/></g><g id="legend_1"><path d="M694.75 184.5H831.2q3.2 0 3.2-3.2V88.96q0-3.2-3.2-3.2H694.75q-3.2 0-3.2 3.2v92.34q0 3.2 3.2 3.2z" fill="none" opacity=".8" stroke="#ccc" id="patch_5"/><path d="M697.95 98.718h32" fill="none" stroke="#000" stroke-linecap="round" stroke-width="1.5" id="line2d_5"/><g transform="matrix(.16 0 0 -.16 742.75 104.317)" fill="#696969" id="text_19"><defs><path d="M8.688 72.906h9.921V28.61q0-11.718 4.235-16.875 4.25-5.14 13.781-5.14 9.469 0 13.719 5.14 4.25 5.157 4.25 16.875v44.297H64.5V27.391q0-14.25-7.063-21.532-7.046-7.28-20.812-7.28-13.828 0-20.89 7.28-7.047 7.282-7.047 21.532z" id="DejaVuSans-85"/></defs><use xlink:href="#DejaVuSans-85"/><use x="73.193" xlink:href="#DejaVuSans-83"/></g><path d="M697.95 122.203h32" fill="none" stroke="#009e73" stroke-linecap="round" stroke-width="1.5" id="line2d_7"/><g transform="matrix(.16 0 0 -.16 742.75 127.802)" fill="#696969" id="text_20"><use xlink:href="#DejaVuSans-78"/><use x="74.805" xlink:href="#DejaVuSans-74"/></g><path d="M697.95 145.688h32" fill="none" stroke="#d55e00" stroke-linecap="round" stroke-width="1.5" id="line2d_9"/><g transform="matrix(.16 0 0 -.16 742.75 151.287)" fill="#696969" id="text_21"><defs><path d="M19.672 34.813V8.108H35.5q7.953 0 11.781 3.297 3.844 3.297 3.844 10.078 0 6.844-3.844 10.078-3.828 3.25-11.781 3.25zm0 29.984V42.828h14.61q7.218 0 10.75 2.703 3.546 2.719 3.546 8.282 0 5.515-3.547 8.25-3.531 2.734-10.75 2.734zm-9.86 8.11h25.204q11.28 0 17.375-4.688Q58.5 63.53 58.5 54.89q0-6.703-3.125-10.657-3.125-3.953-9.188-4.922 7.282-1.562 11.313-6.53 4.031-4.954 4.031-12.376 0-9.765-6.64-15.093Q48.25 0 35.984 0H9.812z" id="DejaVuSans-66"/></defs><use xlink:href="#DejaVuSans-66"/><use x="68.604" xlink:href="#DejaVuSans-101"/><use x="130.127" xlink:href="#DejaVuSans-114"/><use x="169.49" xlink:href="#DejaVuSans-103"/><use x="232.967" xlink:href="#DejaVuSans-101"/><use x="294.49" xlink:href="#DejaVuSans-110"/></g><path d="M697.95 169.173h32" fill="none" stroke="#0072b2" stroke-linecap="round" stroke-width="1.5" id="line2d_11"/><g transform="matrix(.16 0 0 -.16 742.75 174.773)" fill="#696969" id="text_22"><defs><path d="M44.39 34.188q3.172-1.079 6.172-4.594 3-3.516 6.032-9.672L66.609 0H56l-9.313 18.703q-3.624 7.328-7.015 9.719-3.39 2.39-9.25 2.39h-10.75V0h-9.86v72.906h22.266q12.5 0 18.656-5.234 6.157-5.219 6.157-15.766 0-6.89-3.203-11.437-3.204-4.532-9.297-6.282zM19.673 64.797V38.922h12.406q7.125 0 10.766 3.297 3.64 3.297 3.64 9.687 0 6.39-3.64 9.64-3.64 3.25-10.766 3.25z" id="DejaVuSans-82"/><path d="M54.89 33.016V0h-8.984v32.719q0 7.765-3.031 11.61-3.031 3.858-9.078 3.858-7.281 0-11.484-4.64-4.204-4.625-4.204-12.64V0H9.08v75.984h9.03V46.188q3.235 4.937 7.594 7.374Q30.078 56 35.797 56q9.422 0 14.25-5.828 4.844-5.828 4.844-17.156z" id="DejaVuSans-104"/></defs><use xlink:href="#DejaVuSans-82"/><use x="64.982" xlink:href="#DejaVuSans-117"/><use x="128.361" xlink:href="#DejaVuSans-116"/><use x="167.57" xlink:href="#DejaVuSans-104"/><use x="230.949" xlink:href="#DejaVuSans-101"/><use x="292.473" xlink:href="#DejaVuSans-114"/><use x="333.586" xlink:href="#DejaVuSans-102"/><use x="368.791" xlink:href="#DejaVuSans-111"/><use x="429.973" xlink:href="#DejaVuSans-114"/><use x="469.336" xlink:href="#DejaVuSans-100"/></g></g></g></g><defs><clipPath id="pbebd543ff3"><path d="M117 77.76h725.4v498.96H117z"/></clipPath></defs></svg>