<svg height="864" viewBox="0 0 936 648" width="1248" xmlns="http://www.w3.org/2000/svg" xmlns:xlink="http://www.w3.org/1999/xlink"><defs><style>*{stroke-linecap:butt;stroke-linejoin:round}</style></defs><g id="figure_1"><path d="M0 648h936V0H0z" style="fill:#fff" id="patch_1"/><g id="axes_1"><path d="M117 576.72h725.4V77.76H117z" style="fill:none" id="patch_2"/><path clip-path="url(#p379b0ea156)" d="m149.973 353.66 50.263-.134 5.026-.279 1.006-.165 1.005-.304 2.01-1.022 1.006-.722 3.015-2.917 1.006-1.11 2.01-1.803 1.006-.623 1.005-.21 2.01-.673 1.006.008 2.01-.334 2.01.452 1.006.566 2.01 1.772 1.006 1.24 1.005 1.798 3.016 3.867 2.01 1.778 1.006.644 2.01.364 1.005-.197 1.006-.532 1.005-.176 1.005-.335 1.005-.716 1.006-.951 1.005-.722 1.005.15 1.006.318 1.005.043 1.005.383 1.005.782 1.006 1.09 1.005.744 5.026-.216 2.01.468 1.006.48 2.01.307 1.006.055 1.005-.304 2.01-.933 1.006-.752 1.005-.497 2.01-.63 2.011.113 1.005-.123 1.006.265 3.016 1.32 1.005-.069 1.005-.328 1.005-.121 1.006-.294 3.015-1.55 1.006-.33 1.005-.08 1.005.266 2.01 1.12 1.006.13 1.005-.236 2.01.493 2.011-.826 1.006-.786 1.005-.46 1.005-.185 3.016-2.007 1.005-.873 2.01-1.447 2.011-1.979 1.006-.744 1.005-.544 1.005-.263 1.005-.105 2.01-.445 1.006.103 1.005.324 2.01 1.123 1.006.509 1.005.64 1.006.781 1.005.61 1.005-.14 1.005-.621 2.011-1.523 1.005-.3 1.006-.627 1.005-.177 2.01 2.008 5.027 7.028 1.005-.144 2.01 1.236 1.006.05 1.005.356 1.005-.015 1.006.139 1.005 1.226 1.005.554 1.005.366 3.016 3.244 1.005.798 1.006-.28 1.005-.545 1.005-.719 2.01-2.517 1.006-1.242 1.005-.82 1.006-.192 1.005.4 1.005.769 3.016 3.303 1.005.768 1.005.575 1.006.27 1.005-.523 2.01-2.2 1.006-1.22 3.016-2.593 1.005-.236 1.005-.122 1.005.36 1.006.805 1.005-.53 1.005-.348 1.005.372 1.006.686 1.005 1.575 1.005.358 1.005-.268 1.006 1.105 1.005.625 1.005-.345 1.006-1.715 1.005-2.786 1.005-1.75 2.01-2.421 1.006-.674 2.01-.664 1.006.332 1.005.906 1.005.633 1.005.172 1.006-.147 1.005.224 1.005 2.17 1.006 1.584 1.005-.365 1.005.026 1.005.309 1.006.143 1.005-.059 2.01-4.313 1.006-.19 1.005-1.105 1.005-.87 1.005-.298 1.006-.618 2.01 3.14 1.006-.474 1.005.294 2.01-.488 1.006.54 2.01-2.975 1.005.448 1.006.095 1.005-.238 1.005-1.613 1.005-1.924 2.011.007 2.01-2.294 1.006-.316 2.01 2.186 3.016-2.302 1.005-1.363 1.006-1.93 2.01-6.058 1.005-1.83 1.006-2.669 1.005-2.18 1.005-1.165 1.005-1.572 1.006-.409 1.005.35 1.005-.129 1.006 1.484 1.005 1.775 1.005 1.371 4.021 11.326 2.01 3.19 2.011 14.28 2.01 5.036 2.011 4.038 1.006-.14 2.01-24.7 1.005-5.372 1.006-6.634 1.005-5.137 1.005-4.485 1.005-1.558 1.006 6.288 1.005 4.813 1.005 1.66 1.005 4.371 1.006 3.682 1.005 5.325 1.005 2.617 1.006-.666 1.005 4.227 1.005 5.404 1.005 1.844 1.006.71 1.005-1.111 1.005 1.56 1.005 5.688 1.006 10.219 1.005 4.853 1.005-.752 1.005 2.109 1.006.704 1.005-1.103 1.005-5.75 2.01-30.3 1.006-7.44 1.005-8.793 1.006-6.325 1.005-3.476 1.005-2.165 1.005-6.847 1.006.416 1.005 9.068 2.01 14.894 1.006 5.332 1.005 8.272 1.005 17.523 1.006 12.916 1.005 3.15 2.01 11.624 1.006 3.175 1.005 1.463 1.005-.254 1.005-1.615 1.006-.762 2.01-11.838 1.005-1.2 1.006-2.234 1.005-2.651 1.005-1.237 1.006-1.42 1.005.323 1.005 1.682 1.005.285 2.01 2.675 1.006.167 1.005.309 1.006 2.576 1.005 1.015 1.005-1.548 1.005-1.779 1.006-1.483 3.015-2.275 1.006.105 2.01 1.498 1.006.322 1.005-.783 1.005-1.166 1.005-3.268 1.006-4.668 3.015-11.433 1.006-1.714 1.005-.703 1.005.152 1.005 1.646 1.006 1.913 2.01 3.332 1.006.69 1.005.322 1.005-1.957 1.005-3.056 1.006-.673 1.005-.28 1.005-.966 1.005-.584 1.006-.45 1.005 3.82 1.005 4.302 1.005-.548 1.006-.698 1.005-.055 2.01-1.154 1.006-1.91 1.005-2.213 1.005-1.37 2.01-3.383 1.006-1.083 1.005-.893 1.006-1.875 1.005-1.25 1.005 1.706 1.005 1.928 3.016 3.672 1.006 1.622 1.005.915 2.01-1.362 2.01-1.736 1.006-.923 1.005-.479 1.006-.293 1.005-.755 1.005.721 2.01 3.105 1.006 1.683 1.005.848 1.006 1.648 1.005 2.737 1.005.955 1.005.692 1.006.222 1.005-.359 1.005 1.293 1.005.812 1.006-.732 1.005-.252 2.01-.869 1.006-.088 1.005-1.69 1.005-1.368 2.01.452 1.006.402 1.005.64 1.006.503 1.005 1.112 1.005.69 1.005-.28 1.006-.086 1.005-.296 1.005-.632 3.016-1.304 2.01-.36 1.006.289 1.005.666 1.005.176 2.01-.676 1.006-.14 1.005-.474 1.006-.687 1.005-.515 1.005.01 1.005 1.19 1.006.678 1.005-.209 1.005.433 1.005 2.615 1.006 1.92 1.005-.636 1.005-2.272 1.006-1.493 1.005-.128 1.005-.86 2.01-10.197 1.006-.05 1.005.942 1.005.702 1.006.23 1.005.575 2.01 5.084 1.006.109 1.005-.098 2.01-.997 2.011-1.41 1.005-.362 2.01-.253 1.006-.06 1.005-.254 2.01-5.814 1.006-.069 1.005.184 1.006.682 1.005.131 1.005-1.19 2.01 6.344 1.006-.92 1.005-.595 2.01-5.284 1.006.106 1.005.224 2.01-.426 1.006-.103 1.005.353 1.006.217 1.005-.985 2.01-6.516 1.006-1.059 1.005-.332 1.005-.658 1.006-2.052 1.005-1.67 1.005-.388 1.005-.695 1.006-.445 1.005-.185 1.005-.773 1.005-.459 1.006-.057 1.005.11 1.005-.113 2.01-1.081 1.006-.204 1.005 1.857 1.006.912 1.005.063 1.005 2.507 1.005 1.804 1.006.583 1.005-1.89 1.005-.501 1.005 3.669 1.006 1.432 1.005-.143 1.005-.865 1.006-.626 1.005 4.899 1.005 2.902 1.005-1.207 1.006-.245 1.005.515 1.005 2.279 1.005 1.086 2.01-1.392 1.006-2.18 1.005.365 1.006 2.348 2.01 2.89 1.006 12.484 1.005 4.997 1.005-3.68 1.005 3.447 1.006.218 1.005-.94 1.005-1.15 1.005-23.265 1.006-7.03 1.005 15.91 1.005-.13 1.005.275 2.011.932 1.005 16.093 1.006 9.162 1.005-6.732 1.005 1.153 2.01 3.295 1.006.976 1.005-3.302 1.005-4.004 1.006-.565 1.005-1.098 1.005-1.614 1.005-1.26 1.006-.377 1.005.655 1.005.393 2.01-2.048 2.011-.236 1.006-.35 1.005 1.228 1.005-.046 1.005-.625 1.006 1.292 1.005.411 1.005-.09 1.005-.289 1.006-2.835 1.005-.374 1.005 2.382 1.005-.51 1.006-.72 1.005-.183 1.005.235 1.006 1.092 1.005-.967 1.005-3.422 1.005-2.251 1.006-1.378 1.005-.92 1.005-.583 1.005-2.435 1.006-1.223 1.005 1.841 1.005 1.437 1.005.32 2.011-.475h0" style="fill:none;stroke:#000;stroke-linecap:round;stroke-width:1.5" id="line2d_1"/><path clip-path="url(#p379b0ea156)" d="m149.973 353.656 50.263-.097 3.016-.228 1.005-.185 1.005-.323 1.006-.485 3.015-2.912 1.006-1.964 3.015-8.102 1.006-4.85 1.005-7.466 1.005-6.573 2.01-10.99 1.006-4.163 1.005-5.855 1.006-2.039 1.005 1.567 1.005-1.358 1.005 1.05 1.006 5.42 1.005 4.142 1.005 7.086 2.01 16.33 1.006 12.11 1.005 7.222 1.006 4.224 1.005 3.27 1.005 1.337 1.005-.351 1.006-1.648 1.005-.827 1.005.17 1.005-3.159 1.006-.104 1.005-1.092 1.005-2.609 1.005 2.96 2.011-1.889 2.01 10.745 1.006 5.519 1.005 8.323 1.005.635 1.006-.212 1.005 2.755 1.005-1.293 1.005-2.761 1.006-1.123 1.005-2.236 1.005-.092 2.01 4.962 1.006 1.231 1.005 1.422 1.006 1.172 1.005-1.431 1.005-.304 1.005-1.17 2.01-7.672 1.006-4.477 1.005-5.848 1.006-3.357 1.005-2.538 1.005-.664 1.005.734 1.006 2.236 2.01 6.603 1.006 1.926 1.005.168 1.005-1.943 1.005-2.466 1.006-.604 1.005-1.188 1.005-.931 1.005 1.399 1.006 1.794 1.005 1.256 1.005 1.997 1.005.06 2.011-.27 1.005-2.341 1.006-1.06 1.005.307 2.01-2.683 1.006-.81 1.005-.11 1.005.795 1.005-.904 1.006-1.088 1.005-.085 2.01-.687 1.006-.268 2.01-7.976 2.01-.075 1.006.564 1.005.327 1.006-.642 2.01 14.335 1.005-.106 1.006-.234 1.005-.768 1.005-.208 1.005.672 2.011-6.208 1.005-.025 1.005.11 1.006.413 1.005-.32 2.01-1.57 1.006.189 2.01 1.777 1.006.849 1.005.605 1.005.891 1.005.353 1.006-1.58 1.005-2.198 2.01-5.193 1.006-1.282 1.005-.927 1.005-.19 1.006.496 1.005 1.212 2.01 4.864 1.006 1.639 1.005 1.06 1.005-.054 2.01 1.643 2.011-1.565 3.016-2.404 1.005-1.386 1.006-.96 1.005.943 1.005.625 1.005.3 1.006.945 1.005 2.3 1.005 2.824 1.005.317 1.006-1.716 1.005-.69 1.005.12 1.005-.278 1.006-1.722 1.005-2.362 1.005.176 1.006.9 3.015-1.486 1.006-.04 1.005.24 1.005-.381 1.005-.07 2.01 1.033 1.006.28 2.01.356 2.011-.417 1.006.032 2.01-1.027 2.01-.48 1.006.263 1.005-.123 1.005-.48 1.006.24 2.01.86 1.005.218 2.011-1.47 2.01-.737 2.011-1.401 1.005-.396 1.006-.082 1.005.869 1.005 1.131 1.005.153 1.006.757 1.005-.287 1.005-1.206 1.005.738 1.006.177 2.01-.84 1.006-1.733 1.005.812 1.005 2.532 1.005.058 1.006-1.174 1.005-2.474 1.005-.863 1.005 1.483 1.006-.38 1.005-1.718 1.005-2.54 1.005-.5 1.006 2.91 1.005.086 1.005-2.569 1.005-1.585 1.006-1.899 2.01 3.372 1.006-1.888 2.01 1.494 1.005-.333 1.006 1.535 1.005-3.485 1.005-4.339 1.005-.412 1.006-4.92 1.005-3.454 1.005-2.056 1.005-4.61 1.006-.773 2.01-7 1.006 4.747 1.005 2.842 1.005 1.006 2.01 7.842 1.006 8.355 1.005 4.027 1.005-2.554 1.006 2.092 1.005 2.94 1.005.338 1.005 2.005 1.006 1.578 1.005 2.789 1.005 3.552 2.01-1.252 1.006-2.398 1.005-7.415 1.006-10.011 1.005-6.556 1.005-2.77 1.005-.968 1.006.164 1.005 7.598 1.005 8.901 1.005 9.934 1.006 6.814 1.005 3.227 1.005 2.768 1.006.242 1.005-2.268 1.005 1.5 1.005.145 1.006-.074 1.005 1.52 1.005-.036 1.005 1.735 1.006-4.745 1.005-5.9 1.005 4.292 1.005 5.69 1.006.814 1.005 1.662 1.005-1.582 1.006 1.659 1.005-2.086 1.005-12.562 2.01-223.875 1.006-10.157 2.01-13.364 1.006-3.118 1.005-2.156 2.01 407.887 1.006 7.213 1.005 3.992 2.01 22.182 1.006 12.326 2.01-186.601 1.006 5.837 1.005 13.015 1.005 6.73 1.005-2.236 1.006-6.817 1.005-5.145 2.01-8.078 1.006-7.552 1.005-12.102 1.005-1.973 1.006 8.807 1.005 4.333 1.005 5.725 1.005 7.749 1.006 6.43 1.005 9.99 1.005 5.175 1.005-4.545 1.006-1.493 1.005-3.671 2.01-27.622 1.006-6.56 1.005-2.707 2.01 9.71 1.006 1.132 1.005 5.721 1.005 6.52 1.006 1.992 1.005.672 1.005-4.041 1.005-9.359 1.006-3.92 1.005 2.681 1.005.108 1.005-4.651 1.006-7.749 1.005-5.595 1.005.69 1.005.458 1.006-4.614 1.005-1.877 1.005 3.561 1.006 5.664 1.005 4.037 1.005 3.193 1.005 1.205 1.006-.461 1.005-1.093 1.005-3.597 2.01-5.24 1.006-4.273 1.005-.221 1.005 1.685 1.006-1.041 1.005.648 1.005-1.18 1.006-.074 1.005 2.228 1.005-2.783 1.005-1.577 1.006 4.122 1.005.33 1.005.54 1.005-.116 1.006-3.146 1.005 1.86 1.005 2.61 1.005-4.209 1.006.181 1.005 4.794 1.005 4.143 1.006 6.87 1.005 5.295 1.005.489 1.005 4.122 1.006 4.69 1.005-.232 1.005.712 1.005-1.541 1.006-3.908 1.005-.323 1.005.827 1.005-2.946 1.006-3.6 1.005-2.859 1.005-.506 1.006 2.753 1.005 1.631 1.005-.672 1.005 4.271 1.006 6.797 1.005 5.695 1.005 25.749 1.005 22.311 1.006 1.863 1.005 3.346 1.005-.579 1.005-1.094 1.006-1.922 2.01-91.214 1.006-2.928 1.005-4.117 1.005-.515 1.005-.727 1.006.23 2.01 45.332 1.005 3.793 1.006 5.56 1.005-.196 1.005-2.511 3.016-10.83 1.005-5.374 1.006-6.63 1.005-4.446 1.005-1.507 1.005.344 1.006.723 1.005 1.663 2.01 1.39 1.006 2.158 1.005 1.212 1.005-.124 1.005-.54 1.006-.778 2.01.143 1.005-.993 1.006-1.359 1.005-.518 1.005.14 1.006-.391 1.005-.64 1.005-.44 1.005-.272 1.006.548 1.005.377 2.01-.162 1.006-.436 1.005-.049 1.005.328 1.005-.168 1.006-.015 3.016 1.159 1.005-.052 1.005-.486 3.016-.989 1.005-.225 1.005.102 1.006.31 2.01.868 3.016.763 1.005-.213 2.01-1.322 1.006-.627 2.01-1.65 1.006-.995 1.005-.578 2.01-.013 2.011-.46 1.005.124 1.006-.115 1.005-.718 3.016-2.836 2.01-.493 1.006.1 1.005.518 1.005.115 2.01.787 1.006-.368 1.005-.663 1.005-1.13 1.006-.884 2.01-.353 1.006-.112 1.005.117 1.005.988 1.005 1.227 1.006.062 1.005-.368 1.005-.574 1.005-1.996 1.006-1.131 2.01-1.403 1.005 1.252 1.006 1.456 1.005-.804 1.005 1.771 1.006 2.891 1.005.111 1.005.593 2.01-1.271 1.006 3.359 1.005 2.683 1.005-.863 2.01.878 1.006.065 1.005-.404 1.006.113 3.016-.115 1.005 3.16 1.005 2.125 1.005-.478 1.006-2.054 1.005-3.652 1.005-.427 1.005 1.233 1.006-5.547 1.005-2.168 1.005 2.887 1.005.295 1.006 2.84 1.005.4 1.005-.878 1.006 2.281 1.005.549 1.005.33 1.005 2.767 1.006.778 2.01 5.915 2.01 3.784 2.011-1.503 1.005.712 1.006-2.621 1.005-3.602 1.005-1.25 1.005-.523 1.006.273 1.005-.898 1.005-2.021 1.006.367 1.005 1.582 1.005.308 1.005-.58 1.006.268 3.015 5.491 1.006.874 1.005.623 1.005 1.981 1.005.589 1.006-2.266 1.005-1.856 1.005-1.046 1.006-1.682 1.005-2.13 2.01-6.276 1.006.12 1.005.682 1.005-1.996 1.005-.508 1.006 1.681 1.005 1.418 1.005 2.407 1.005 1.018 1.006-1.195 1.005.366h0" style="fill:none;stroke:#009e73;stroke-linecap:round;stroke-width:1.5" id="line2d_2"/><path clip-path="url(#p379b0ea156)" d="m149.973 353.656 44.231-.1 4.021-.143 3.016-.162 2.01-.587 1.006-.527 1.005-.931 1.006-1.236 2.01-8.143 1.005-.607 1.006-1.742 1.005-3.829 1.005-2.896 1.005-1.459 1.006-1.721 1.005-5.55 1.005-10.533 1.006-9.095 1.005-3.646 1.005-6.158 1.005-13.45 1.006-7.96 1.005-4.233 1.005-9.358 1.005-2.188 1.006-1.236 1.005-2.228 1.005 16.245 2.01 41.91 1.006 33.846 1.005 22.727 1.006 16.812 1.005 26.535 1.005 5.185 1.005-11.201 1.006-5.651 2.01-15.435 1.005-9.925 1.006-15.78 1.005-3.544 1.005 9.378 1.005 6.057 1.006-4.052 1.005 1.904 1.005 12.154 1.006 10.25 1.005 5.104 1.005.89 1.005-.91 1.006 5.266 1.005 1.478 2.01-17.095 1.006-4.639 1.005-2.512 1.005-1.985 1.005-3.16 1.006-2.268 1.005.527 1.005 2.066 1.006.243 2.01-2.046 1.005-2.836 2.01-3.12 1.006-2.268 1.005-1.073 2.01-9.44 1.006 1.054 1.005-.79 1.006-.628 1.005.02 1.005-2.552 1.006-1.256 1.005.506 1.005-.992 1.005 1.762 1.006 3.282 1.005 1.944 1.005 2.248 1.005 5.145 1.006 3.606 1.005-1.276 4.021-8.102 1.005-3.87 1.006-2.065 1.005.587 1.005-.527 1.005-.85 1.006-.446 1.005 2.107 1.005 3.423 1.005.527 1.006.83 1.005 1.175 1.005-.02 1.005.931 1.006-.587 2.01-16.995 1.006-2.025 1.005-1.6 1.005-1.236 2.01-1.296 1.006 12.66 1.005 14.908 1.005 1.64 1.006.892 1.005 1.336 1.005.568 1.005.06 2.011-14.887 1.005-.163 1.005 1.054 1.006.85 1.005-.06 1.005 1.053 1.006 2.512 1.005 1.782 1.005.71 1.005-.386 1.006-1.215 1.005-1.033 1.005-1.479 1.005-2.106 1.006-1.844 2.01-3.18 1.005-.445 1.006-.142 1.005-.304 1.005 1.013 2.01.263 4.022 5.287 1.005-.122 1.005.892 1.006.465 1.005-1.336 1.005-.932 2.01-.345 1.006-.486 1.005-2.633 1.006-1.985 1.005.284 1.005-1.357 1.005-1.135 1.006.669 1.005 2.754 1.005 5.834 1.005 4.517 1.006 2.633 1.005 4.132 1.005 1.56 1.005-2.046 2.011-9.5 2.01-5.428 1.006-3.342 1.005-1.58 1.005.952 1.006 2.046 2.01 1.742 1.005 1.742 1.006 1.276 1.005 1.843 1.005.87 1.005.203 1.006.628 2.01-1.964 1.006-.365 1.005-.587 1.005-.243 2.01-1.803 2.011-.203 1.005.142 2.01-2.816 2.011 2.877 1.006.324 1.005-.365 1.005-.648 1.006 1.337 1.005 1.094 1.005-1.742 1.005-2.066 1.006-1.074h1.005l1.005.365 2.01-1.742 1.006.445 1.005.73 1.005.384 1.006-.303 2.01-1.155 1.006-.668 1.005-.203 1.005.182 1.005.79 1.006.284 1.005-1.215h1.005l1.005.303 1.006-.344 1.005.162 1.005-1.944 1.005-1.459 1.006 1.175 1.005-.081 1.005.648 1.005 1.053 1.006-2.775 1.005-.222 1.005 1.539 1.006-.75 1.005.061 1.005-2.592 1.005-1.702 1.006 3.646 1.005-2.066 1.005-4.618 1.005.729 1.006-1.074 1.005-1.62 1.005-6.421 1.005-9.52 1.006.263 1.005.122 1.005-4.193 1.006-.588 1.005.628 1.005 5.348 1.005 8.487 1.006 2.977 1.005 3.788 1.005.648 1.005-.263 1.006 6.907 1.005 5.186 1.005-3.2 1.005 1.437 1.006 3.95 1.005 4.457 1.005 2.815 1.006-6.684 1.005-5.368 1.005.608 1.005-8.001 1.006-9.763 1.005-2.006 1.005.993 2.01 14.928 1.006 11.262 1.005 13.794 1.005 10.189 1.006 4.091 1.005-1.195 2.01-12.194 1.006-9.236 1.005-4.922 1.005.385 1.006.648 1.005 3.423 1.005 1.499 1.005-.77 1.006-1.762 1.005-1.215 1.005.405 1.005-.122 1.006-2.511 2.01 4.294 1.006.587 1.005-3.605 1.005-8.265 2.01-188.214 1.006-12.052 1.005-6.037 1.005-4.517 2.01-7.393 2.011 358.382 1.006 13.632 1.005 2.167 1.005 6.907 2.01 19.912 1.006-78.713 1.005-92.832 1.006-2.309 1.005 12.74 1.005 9.217 1.005-.648 2.01-8.426 1.006.141 1.005 1.439 1.006-6.705 1.005-11.708 1.005-1.701 1.006 6.42 1.005 2.432 1.005 3.727 2.01 12.274 1.006 3.667 1.005-.426 1.005-3.443 1.006.668 1.005-1.235L537 361.8l1.005-11.931 1.006 1.458 2.01 7.88 1.005 3.99 1.006-3.363 1.005 2.553 1.005 6.522 1.006-.75 1.005-.992 1.005-2.836 1.005-9.58 1.006-.831 1.005 4.193 1.005-4.538 2.01-17.642 1.006-4.031 1.005.608 1.005-.102 1.006-4.091 1.005 1.884 1.005 9.864 1.006 11.627 1.005 4.76 1.005 6.32 1.005 5.063 1.006 1.904 1.005.02 1.005-5.367 1.005-8.953 1.006-7.373 1.005-5.47 1.005-3.017 2.01-1.236 1.006.973 1.005-1.054 1.006 2.552 1.005 2.168 1.005-.83 1.005 1.194 1.006 4.254 2.01-1.215 1.005-2.33 1.006-3.463 1.005.75 1.005-3.1 1.005-8.973 1.006 2.795 1.005 10.513 1.005 8.993 1.006 7.637 1.005 4.84 1.005 7.394 1.005 9.216 1.006 4.132 1.005-.202 1.005-.851 1.005-1.134 1.006-1.783 1.005-.79 1.005.73 1.005-4.214 1.006-5.307 1.005-1.64 1.005.547 1.006.688 1.005-1.033 1.005-1.944 1.005 3.646 1.006 5.205 1.005 1.378 2.01 3.22 1.006 1.297 1.005 2.106 1.005-1.438 1.005-.668 1.006 1.053 1.005-5.246 1.005-4.477 1.006-24.468 1.005-30.181 1.005-4.922 1.005-2.046 1.006-3.241 2.01 3.22 1.005 45.798 1.006 57.628 1.005 9.297 1.005-2.289 1.005-.993 1.006-1.276 1.005-1.54 1.005-23.941 1.006-30.343 1.005-6.907 1.005 1.134 1.005 1.438 1.006.567 1.005-.303 2.01-3.16 1.006.06 1.005-.384 1.005-1.135 1.005-.04 1.006.932 1.005 1.397 1.005 1.094 1.005-.121 2.011-2.532 1.005-.83 1.006-.993 2.01-2.573 1.005-.83 1.006.729 1.005 1.013 1.005.08 1.005-.364 1.006-.243 1.005.486 1.005.628 2.01-.182 1.006.506 1.005.77 1.006.202 1.005-.952 1.005-.729 1.005-.405 2.01-1.195 1.006-.486 1.005.101 1.006 1.053 1.005.649 1.005.141 2.01 1.317 1.006.648 1.005.932 1.006.223 1.005-.02 1.005.202 1.005-.85 2.01-2.229 1.006-1.944 1.005-1.317 1.006-1.053 1.005-1.317 1.005-.101 2.01.506 1.006.891 1.005-.06 1.006-.973 1.005-.587 1.005-.81 1.005-1.195 1.006-1.013 1.005-1.398 1.005-.75 2.01 1.864 1.006.04 1.005.467 1.005.202 1.006.567 1.005 1.6 2.01.81 2.011 3.485 1.005.506 1.006-1.235 1.005-2.41 1.005-1.014 1.005-1.904 1.006-.87 1.005.283 1.005-.121 1.005 1.539 1.006 2.876 1.005-.304 1.005.405 1.006-1.296 1.005-4.375 2.01 2.147 1.006-1.438 2.01 4.962 1.005.831 1.006 3.018 1.005-.304 1.005-.142 1.005 1.256 1.006.912 2.01 2.694 1.006-.061 1.005 2.208 1.005.445 1.005-2.45 2.01-7.82 1.006-.688 1.005 1.337 1.006-4.395 1.005-2.026 1.005 3.99 2.01 6.28h1.006l1.005-1.52 1.006 3.403 1.005 2.168 1.005-1.945 1.005-1.56 1.006-1.822 2.01 2.106 1.005-1.033 1.006-.263 1.005.486 1.005 1.843 1.005 2.33 1.006.567 1.005 1.154 1.005.547 1.005-.121 1.006 1.154 1.005.891 1.005-.222 1.006-1.54 1.005-1.276 1.005.527 1.005.162 1.006-.71 2.01-2.997 1.005 1.053 1.006.588 1.005-.223 1.005 2.046 1.005 1.6 1.006.142 1.005 1.418 1.005.607 1.006-1.519 1.005-3.058 1.005-4.74 1.005-4.072 3.016-6.137 1.005 1.215 1.006 4.092 1.005 2.957 1.005 2.492 1.005 3.038 1.006 1.58 1.005 1.235h0" style="fill:none;stroke:#d55e00;stroke-linecap:round;stroke-width:1.5" id="line2d_3"/><path clip-path="url(#p379b0ea156)" d="M149.973 353.656h56.295l2.01-4.126h1.005l2.011-2.063 1.005-3.095 1.005-6.19 1.006-5.159 1.005-3.094 1.005-4.127 1.006-3.095 1.005-5.158 1.005-7.222 1.005-3.095 1.006 7.222 1.005 4.126 1.005-14.443 1.005-18.57 1.006-1.031 2.01 31.981 1.005-4.126 1.006-8.254 1.005 31.981 1.005 48.488 1.006 15.475 2.01-14.443 1.005 8.253 1.006 16.506 1.005-12.38 1.005-26.822 1.005-7.222 1.006 4.127h1.005l1.005-5.159 1.005-9.285 1.006-2.063 1.005 2.063 1.005-1.031 1.006 1.031 2.01 12.38 1.005 8.253 1.006 4.127 1.005-2.063 1.005 5.158 1.005 2.063 1.006-4.126h1.005l1.005-1.032 1.005 2.063 1.006 4.127 1.005-9.285 1.005-13.411 2.01-14.443 1.006-6.19 1.005-5.159 1.006-3.095 1.005 8.254 1.005 15.474 1.005 9.285 1.006 4.127 1.005 3.095 1.005 1.031h1.005l1.006-4.126 1.005-7.222 1.005-4.126 1.006-2.064 1.005-4.126 1.005-3.095h1.005l2.01-6.19h2.011l2.01 8.253h1.006l2.01 12.38 2.011-2.063 2.01-6.19h1.006l2.01-6.19 4.022 8.253h1.005l1.005-2.063 2.01-2.064 2.011-6.19 1.006-2.063h2.01l1.005-1.031h1.006l1.005 3.095 1.005 4.126 1.005 2.063h2.01l1.006-1.031h1.005l1.006-1.032 1.005-5.158 1.005-3.095h1.005l1.006 6.19 1.005 7.221h1.005l1.006 1.032 1.005 6.19 1.005 4.127h1.005l1.006-2.064 1.005-4.126 2.01-6.19 1.006-4.127 1.005-2.063h1.005l1.005-3.095 1.006 2.063 1.005 7.222 1.005 3.095 1.006 1.031h2.01l1.005 1.032 1.006-2.063 1.005-5.159 1.005-1.031 1.005 1.031h2.01l3.017 3.095h1.005l1.005-2.063 1.006-1.032h1.005l2.01-4.126 1.006 1.032h2.01l1.005 1.031h1.006l1.005 2.063h1.005l1.005-4.126 1.006-1.032 1.005 2.064 1.005 1.031h1.006l1.005-2.063 2.01 4.126 1.006-1.031h1.005l1.005-1.032h1.005l1.006 2.063 1.005-3.094 1.005 2.063 1.005 6.19 1.006-1.032h2.01l1.006-2.063 1.005 4.126h1.005l1.005-7.221 1.006-1.032h2.01l1.005-1.031 1.006-4.127h1.005l1.005 5.158 1.005 2.063h2.011l2.01 10.317h1.006l2.01-2.063h2.01l1.006-5.159 1.005-6.19 1.006-7.221 1.005-15.475 1.005-11.348 1.005-2.063h1.006l1.005 2.063 1.005-2.063 1.006 5.158 1.005 22.696 1.005 12.38 1.005-4.126 1.006-6.19 1.005-3.095 1.005 11.348 1.005 4.126 1.006-6.19 1.005 9.285 1.005 14.443 1.005 12.38 1.006 2.064 1.005-14.444 2.01-16.506 1.006-20.633 1.005-13.411 1.005-6.19 1.006-5.158 1.005 5.158 2.01 12.38 1.006 12.38 1.005 5.158h1.005l1.005-1.032 1.006-7.222 1.005 3.095 1.005-7.221 1.005-18.57 1.006-2.063h1.005l1.005 10.316 1.006 5.159 1.005-24.76 1.005 4.127 1.005 18.57 1.006-10.317 1.005-5.158 1.005-1.032 1.005 11.348 1.006 30.95 1.005 17.538 1.005 20.633 1.005 11.348 1.006-10.317 1.005-2.063 1.005-5.158 1.006-14.443 1.005-36.108 1.005-63.962 1.005-14.444 1.006 24.76 1.005 3.095 1.005-3.095 1.005 5.158 1.006 25.792 1.005 54.677 1.005 42.298 1.005 2.063 1.006-6.19 1.005 2.063h1.005l1.006 12.38 1.005-3.095 1.005-35.076 3.016-33.013 1.005-19.601 1.005-42.298 1.006 2.064 1.005 25.79h1.005l2.01 20.634 2.011 56.74 2.01-36.107h2.011l1.006-15.475 1.005-18.57 1.005-1.031 1.005-10.317 1.006-22.696 1.005-10.317 1.005 14.444 1.005 35.076 1.006 14.443 1.005 3.095 1.005 23.728 1.006 35.076 1.005 20.633 1.005 11.348 1.005-6.19 1.006-11.348 1.005 7.221 1.005 6.19 1.005-5.158 1.006-10.317 1.005-54.677 1.005-26.823 1.005 26.823 1.006-9.285 2.01-54.677 1.006-5.158 1.005 63.962 1.005 50.55 1.005-38.17 1.006-24.76 1.005 22.696 1.005 33.013 1.005 10.317 1.006-48.488 1.005-59.836 1.005 30.95 1.005 46.424 1.006-3.095 1.005-19.601 1.005-12.38 2.01 66.026 2.011-42.298 1.006-1.032 1.005 12.38 1.005 7.222 1.005-27.855 1.006-5.158 1.005 16.506 1.005-12.38 1.005-17.538 1.006-11.348 1.005 7.222 1.005 6.19 1.005-20.633 1.006-15.475 1.005 17.538 1.005 19.601 1.006-1.031 1.005-7.222 1.005 7.222 1.005 24.76 1.006 10.316 1.005-21.665 1.005-7.221 1.005 14.443h1.006l1.005-11.348 1.005-20.633 1.005-7.222 1.006 24.76 1.005 13.411 1.005-9.285h1.006l1.005 8.253 1.005 12.38 1.005 5.158 1.006-15.474 1.005-18.57 1.005-2.063 1.005-9.285 1.006 5.158 1.005 11.348h1.005l1.005-2.063 1.006-5.158h1.005l1.005 18.57 1.006-1.032 1.005-17.538 1.005-7.222 2.01 10.317v25.79l1.006 5.16 1.005-10.317 1.005 4.126 1.006 16.507 1.005 11.348 1.005-4.127 1.005-16.506 1.006-7.222 1.005-3.095h1.005l1.006 1.032 1.005-3.095 1.005 4.127 1.005 8.253 2.01 18.57 1.006-10.317L613.4 368.1l1.006-2.064 1.005 2.064 1.005-6.19 1.005-10.317 1.006-6.19 1.005 7.222 1.005 11.348 1.006-2.063 1.005-7.222 1.005 10.317 1.005 13.411 1.006 2.063 1.005-6.19 1.005-7.221 1.005 7.221 1.006 8.254 1.005-5.159 1.005-6.19 1.005-1.031 1.006 6.19 1.005 5.158 1.005-5.158 1.006-7.222 1.005-5.158 1.005-2.063h1.005l2.01-8.254 2.011-4.126h5.027l1.005 1.032 1.005 4.126 1.005 3.095h3.016l2.01-6.19 2.011-4.126h3.016l1.005 6.19 1.006 7.221 1.005 1.032h4.021l1.005-3.095 1.006-4.127 1.005-1.032 2.01-8.253h4.021l1.006-1.031 1.005 7.221 1.005 8.253h4.021l1.006 1.032 1.005-4.127 1.005-5.158h3.016l1.005-1.031 1.005-2.064 1.006 1.032 1.005 2.063h3.016l1.005 2.063 1.005 3.095 1.006-6.19 1.005-7.221h1.005l2.01-45.393 1.006-4.126 1.005-7.222 1.005 2.064 1.006 7.221h1.005l2.01 73.247 1.006 2.064 1.005 11.348 1.005 13.411 1.006 3.095h1.005l2.01-34.044 1.006-4.127 2.01-28.886 1.005-5.158h1.006l1.005 3.095 1.005 4.126 1.005 11.348 1.006 16.507 1.005 9.285 1.005 3.094h1.006l1.005 8.254 1.005 5.158 2.01-18.57 1.006-5.158 1.005-2.063h1.005l2.01-27.855 1.006-5.158h1.005l1.006-1.032 1.005-5.158h1.005l1.006 12.38 1.005 10.316 1.005 4.127 1.005 5.158 1.006 4.127 1.005 5.158h1.005l1.005-16.506 1.006-2.064 1.005 15.475 2.01-18.57 1.006 1.032h1.005l1.005 5.158 1.006-2.063 1.005-10.317 1.005 8.254 1.005 11.348h2.01l1.006 13.411 1.005 9.285 1.006-2.063h1.005l1.005-4.127 1.005-2.063h1.006l1.005-9.285 1.005-6.19h2.01l1.006-3.095 1.005-6.19h1.006l1.005 4.127 1.005-1.032 1.005 1.032h1.006l1.005 10.316 1.005 16.507h1.005l1.006-12.38 1.005-5.158 1.005 4.126 1.005-3.095 2.011-18.57h1.005l2.01 27.855 1.006-1.031 1.005 4.126 1.006 5.158 1.005 1.032h1.005l1.005-12.38 1.006-17.538 1.005-6.19 1.005-1.031 2.01-4.127h1.006l1.005 6.19h0" style="fill:none;stroke:#0072b2;stroke-linecap:round;stroke-width:1.5" id="line2d_4"/><path clip-path="url(#p379b0ea156)" d="M117 353.656h725.4" style="fill:none;stroke:red;stroke-dasharray:1.5,2.475;stroke-dashoffset:0;stroke-width:1.5" id="line2d_5"/><path d="M117 576.72V77.76" style="fill:none;stroke:#d3d3d3;stroke-linecap:square;stroke-linejoin:miter;stroke-width:1.25" id="patch_3"/><path d="M117 576.72h725.4" style="fill:none;stroke:#d3d3d3;stroke-linecap:square;stroke-linejoin:miter;stroke-width:1.25" id="patch_4"/><g id="matplotlib.axis_1"><g id="xtick_1"><g style="fill:#696969" transform="matrix(.16 0 0 -.16 117.535 598.378)" id="text_1"><defs><path d="M9.813 72.906h9.859V5.078q0-13.187-5-19.14-5-5.954-16.094-5.954h-3.75v8.297h3.078q6.531 0 9.219 3.672Q9.813-4.39 9.813 5.078z" id="DejaVuSans-74"/><path d="M34.281 27.484q-10.89 0-15.093-2.484-4.204-2.484-4.204-8.5 0-4.781 3.157-7.594 3.156-2.797 8.562-2.797 7.485 0 12 5.297 4.516 5.297 4.516 14.078v2zm17.922 3.72V0H43.22v8.297Q40.14 3.328 35.547.953q-4.594-2.375-11.234-2.375-8.391 0-13.36 4.719Q6 8.016 6 15.922q0 9.219 6.172 13.906 6.187 4.688 18.437 4.688h12.61v.89q0 6.203-4.078 9.594-4.078 3.39-11.453 3.39-4.688 0-9.141-1.124-4.438-1.125-8.531-3.375v8.312q4.921 1.906 9.562 2.844 4.64.953 9.031.953 11.875 0 17.735-6.156 5.86-6.14 5.86-18.64z" id="DejaVuSans-97"/><path d="M54.89 33.016V0h-8.984v32.719q0 7.765-3.031 11.61-3.031 3.858-9.078 3.858-7.281 0-11.484-4.64-4.204-4.625-4.204-12.64V0H9.08v54.688h9.03v-8.5q3.235 4.937 7.594 7.374Q30.078 56 35.797 56q9.422 0 14.25-5.828 4.844-5.828 4.844-17.156z" id="DejaVuSans-110"/></defs><use xlink:href="#DejaVuSans-74"/><use x="29.492" xlink:href="#DejaVuSans-97"/><use x="90.771" xlink:href="#DejaVuSans-110"/></g></g><g id="xtick_2"><g style="fill:#696969" transform="matrix(.16 0 0 -.16 207.507 598.378)" id="text_2"><defs><path d="M34.188 63.188 20.797 26.906h26.812zm-5.579 9.718h11.188L67.578 0h-10.25l-6.64 18.703h-32.86L11.188 0H.78z" id="DejaVuSans-65"/><path d="M18.11 8.203v-29H9.077v75.484h9.031v-8.296q2.844 4.875 7.157 7.234Q29.594 56 35.594 56q9.968 0 16.187-7.906 6.235-7.907 6.235-20.797T51.78 6.484q-6.218-7.906-16.187-7.906-6 0-10.328 2.375-4.313 2.375-7.157 7.25zm30.578 19.094q0 9.906-4.079 15.547-4.078 5.64-11.203 5.64-7.14 0-11.218-5.64-4.079-5.64-4.079-15.547 0-9.906 4.078-15.547 4.079-5.64 11.22-5.64 7.124 0 11.202 5.64t4.078 15.547z" id="DejaVuSans-112"/><path d="M41.11 46.297q-1.516.875-3.297 1.281Q36.03 48 33.89 48q-7.625 0-11.703-4.953-4.079-4.953-4.079-14.234V0H9.08v54.688h9.03v-8.5q2.844 4.984 7.375 7.39Q30.031 56 36.531 56q.922 0 2.047-.125 1.125-.11 2.484-.36z" id="DejaVuSans-114"/></defs><use xlink:href="#DejaVuSans-65"/><use x="68.408" xlink:href="#DejaVuSans-112"/><use x="131.885" xlink:href="#DejaVuSans-114"/></g></g><g id="xtick_3"><g style="fill:#696969" transform="matrix(.16 0 0 -.16 303.173 598.378)" id="text_3"><defs><path d="M8.5 21.578v33.11h8.984V21.922q0-7.766 3.016-11.656 3.031-3.875 9.094-3.875 7.265 0 11.484 4.64 4.234 4.64 4.234 12.656v31h8.985V0h-8.984v8.406Q42.047 3.422 37.718 1q-4.313-2.422-10.032-2.422-9.421 0-14.312 5.86Q8.5 10.296 8.5 21.578zM31.11 56z" id="DejaVuSans-117"/><path d="M9.422 75.984h8.984V0H9.422z" id="DejaVuSans-108"/></defs><use xlink:href="#DejaVuSans-74"/><use x="29.492" xlink:href="#DejaVuSans-117"/><use x="92.871" xlink:href="#DejaVuSans-108"/></g></g><g id="xtick_4"><g style="fill:#696969" transform="matrix(.16 0 0 -.16 391.478 598.378)" id="text_4"><defs><path d="M39.406 66.219q-10.75 0-17.078-8.016-6.312-8-6.312-21.828 0-13.766 6.312-21.781 6.328-8 17.078-8 10.735 0 17.016 8 6.281 8.015 6.281 21.781 0 13.828-6.281 21.828-6.281 8.016-17.016 8.016zm0 8q15.328 0 24.5-10.281 9.188-10.282 9.188-27.563 0-17.234-9.188-27.516-9.172-10.28-24.5-10.28-15.375 0-24.593 10.25-9.204 10.265-9.204 27.546t9.204 27.563q9.218 10.28 24.593 10.28z" id="DejaVuSans-79"/><path d="M48.781 52.594v-8.407q-3.812 2.11-7.64 3.157-3.828 1.047-7.735 1.047-8.75 0-13.593-5.547-4.829-5.532-4.829-15.547 0-10.016 4.829-15.563 4.843-5.53 13.593-5.53 3.907 0 7.735 1.046 3.828 1.047 7.64 3.156V2.094Q45.016.344 40.984-.531q-4.015-.89-8.562-.89-12.36 0-19.64 7.765-7.266 7.765-7.266 20.953 0 13.375 7.343 21.031Q20.22 56 33.016 56q4.14 0 8.093-.86 3.953-.843 7.672-2.546z" id="DejaVuSans-99"/><path d="M18.313 70.219V54.688h18.5v-6.985h-18.5V18.016q0-6.688 1.828-8.594 1.828-1.906 7.453-1.906h9.218V0h-9.218q-10.407 0-14.36 3.875-3.953 3.89-3.953 14.14v29.688H2.687v6.984h6.594V70.22z" id="DejaVuSans-116"/></defs><use xlink:href="#DejaVuSans-79"/><use x="78.711" xlink:href="#DejaVuSans-99"/><use x="133.691" xlink:href="#DejaVuSans-116"/></g></g><g id="xtick_5"><g style="fill:#696969" transform="matrix(.16 0 0 -.16 485.462 598.378)" id="text_5"><use xlink:href="#DejaVuSans-74"/><use x="29.492" xlink:href="#DejaVuSans-97"/><use x="90.771" xlink:href="#DejaVuSans-110"/></g></g><g id="xtick_6"><g style="fill:#696969" transform="matrix(.16 0 0 -.16 574.429 598.378)" id="text_6"><use xlink:href="#DejaVuSans-65"/><use x="68.408" xlink:href="#DejaVuSans-112"/><use x="131.885" xlink:href="#DejaVuSans-114"/></g></g><g id="xtick_7"><g style="fill:#696969" transform="matrix(.16 0 0 -.16 670.095 598.378)" id="text_7"><use xlink:href="#DejaVuSans-74"/><use x="29.492" xlink:href="#DejaVuSans-117"/><use x="92.871" xlink:href="#DejaVuSans-108"/></g></g><g id="xtick_8"><g style="fill:#696969" transform="matrix(.16 0 0 -.16 758.4 598.378)" id="text_8"><use xlink:href="#DejaVuSans-79"/><use x="78.711" xlink:href="#DejaVuSans-99"/><use x="133.691" xlink:href="#DejaVuSans-116"/></g></g></g><g id="matplotlib.axis_2"><g id="ytick_1"><g style="fill:#696969" transform="matrix(.16 0 0 -.16 73.733 544.782)" id="text_9"><defs><path d="M10.594 35.5h62.593v-8.297H10.594z" id="DejaVuSans-8722"/><path d="M12.406 8.297h16.11v55.625l-17.532-3.516v8.985l17.438 3.515h9.86V8.296H54.39V0H12.406z" id="DejaVuSans-49"/><path d="M31.781 66.406q-7.61 0-11.453-7.5Q16.5 51.422 16.5 36.375q0-14.984 3.828-22.484 3.844-7.5 11.453-7.5 7.672 0 11.5 7.5 3.844 7.5 3.844 22.484 0 15.047-3.844 22.531-3.828 7.5-11.5 7.5zm0 7.813q12.266 0 18.735-9.703 6.468-9.688 6.468-28.141 0-18.406-6.468-28.11-6.47-9.687-18.735-9.687-12.25 0-18.718 9.688-6.47 9.703-6.47 28.109 0 18.453 6.47 28.14Q19.53 74.22 31.78 74.22z" id="DejaVuSans-48"/></defs><use xlink:href="#DejaVuSans-8722"/><use x="83.789" xlink:href="#DejaVuSans-49"/><use x="147.412" xlink:href="#DejaVuSans-48"/></g></g><g id="ytick_2"><g style="fill:#696969" transform="matrix(.16 0 0 -.16 83.912 452.258)" id="text_10"><defs><path d="M10.797 72.906h38.719v-8.312H19.828v-17.86q2.14.735 4.281 1.094 2.157.36 4.313.36 12.203 0 19.328-6.688 7.14-6.688 7.14-18.11 0-11.765-7.328-18.296-7.328-6.516-20.656-6.516-4.593 0-9.36.781-4.75.782-9.827 2.344v9.922q4.39-2.39 9.078-3.563 4.687-1.171 9.906-1.171 8.453 0 13.375 4.437 4.938 4.438 4.938 12.063 0 7.609-4.938 12.047-4.922 4.453-13.375 4.453-3.953 0-7.89-.875-3.922-.875-8.016-2.735z" id="DejaVuSans-53"/></defs><use xlink:href="#DejaVuSans-8722"/><use x="83.789" xlink:href="#DejaVuSans-53"/></g></g><g id="ytick_3"><use xlink:href="#DejaVuSans-48" style="fill:#696969" transform="matrix(.16 0 0 -.16 97.32 359.735)" id="text_11"/></g><g id="ytick_4"><use xlink:href="#DejaVuSans-53" style="fill:#696969" transform="matrix(.16 0 0 -.16 97.32 267.212)" id="text_12"/></g><g id="ytick_5"><g style="fill:#696969" transform="matrix(.16 0 0 -.16 87.14 174.689)" id="text_13"><use xlink:href="#DejaVuSans-49"/><use x="63.623" xlink:href="#DejaVuSans-48"/></g></g><g style="fill:#696969" transform="matrix(0 -.2 -.2 0 65.573 445.117)" id="text_14"><defs><path d="M64.406 67.281v-10.39q-4.984 4.64-10.625 6.922-5.64 2.296-11.984 2.296-12.5 0-19.14-7.64-6.641-7.64-6.641-22.094 0-14.406 6.64-22.047 6.64-7.64 19.14-7.64 6.345 0 11.985 2.296 5.64 2.297 10.625 6.938V5.609Q59.234 2.094 53.437.33q-5.78-1.75-12.218-1.75-16.563 0-26.094 10.124-9.516 10.14-9.516 27.672 0 17.578 9.516 27.703 9.531 10.14 26.094 10.14 6.531 0 12.312-1.734 5.797-1.734 10.875-5.203z" id="DejaVuSans-67"/><path d="M44.281 53.078v-8.5q-3.797 1.953-7.906 2.922-4.094.984-8.5.984-6.688 0-10.031-2.047-3.344-2.046-3.344-6.156 0-3.125 2.39-4.906 2.391-1.781 9.626-3.39l3.078-.688q9.562-2.047 13.593-5.781 4.032-3.735 4.032-10.422 0-7.625-6.032-12.078-6.03-4.438-16.578-4.438-4.39 0-9.156.86Q10.688.296 5.422 2v9.281q4.984-2.594 9.812-3.89 4.829-1.282 9.579-1.282 6.343 0 9.75 2.172 3.421 2.172 3.421 6.125 0 3.656-2.468 5.61-2.453 1.953-10.813 3.765l-3.125.735q-8.344 1.75-12.062 5.39-3.704 3.64-3.704 9.985 0 7.718 5.47 11.906Q16.75 56 26.811 56q4.97 0 9.36-.734 4.406-.72 8.11-2.188z" id="DejaVuSans-115"/><path d="M56.203 29.594v-4.39H14.891q.593-9.282 5.593-14.142 5-4.859 13.938-4.859 5.172 0 10.031 1.266 4.86 1.265 9.656 3.812v-8.5Q49.266.734 44.187-.344 39.11-1.422 33.892-1.422q-13.094 0-20.735 7.61-7.64 7.625-7.64 20.625 0 13.421 7.25 21.296Q20.016 56 32.328 56q11.031 0 17.453-7.11 6.422-7.093 6.422-19.296zm-8.984 2.64q-.094 7.36-4.125 11.75-4.032 4.407-10.672 4.407-7.516 0-12.031-4.25-4.516-4.25-5.203-11.97z" id="DejaVuSans-101"/><path d="M44.39 34.188q3.172-1.079 6.172-4.594 3-3.516 6.032-9.672L66.609 0H56l-9.313 18.703q-3.624 7.328-7.015 9.719-3.39 2.39-9.25 2.39h-10.75V0h-9.86v72.906h22.266q12.5 0 18.656-5.234 6.157-5.219 6.157-15.766 0-6.89-3.203-11.437-3.204-4.532-9.297-6.282zM19.673 64.797V38.922h12.406q7.125 0 10.766 3.297 3.64 3.297 3.64 9.687 0 6.39-3.64 9.64-3.64 3.25-10.766 3.25z" id="DejaVuSans-82"/><path d="M8.594 75.984h20.703V69H17.578V-6.203h11.719v-6.984H8.594z" id="DejaVuSans-91"/><path d="M25.39 72.906h8.297L8.297-9.28H0z" id="DejaVuSans-47"/><path d="M45.406 46.39v29.594h8.985V0h-8.985v8.203Q42.578 3.328 38.25.953q-4.313-2.375-10.375-2.375-9.906 0-16.14 7.906-6.22 7.922-6.22 20.813 0 12.89 6.22 20.797Q17.968 56 27.874 56q6.063 0 10.375-2.375 4.328-2.36 7.156-7.234zm-30.61-19.093q0-9.906 4.079-15.547 4.078-5.64 11.203-5.64 7.125 0 11.219 5.64 4.11 5.64 4.11 15.547 0 9.906-4.11 15.547-4.094 5.64-11.219 5.64-7.125 0-11.203-5.64-4.078-5.64-4.078-15.547z" id="DejaVuSans-100"/><path d="M32.172-5.078q-3.797-9.766-7.422-12.735-3.61-2.984-9.656-2.984H7.906v7.516h5.282q3.703 0 5.75 1.765Q21-9.766 23.483-3.219l1.61 4.094-22.11 53.813H12.5l17.094-42.766 17.093 42.766h9.516z" id="DejaVuSans-121"/><path d="M30.422 75.984v-89.171H9.719v6.984H21.39V69H9.719v6.984z" id="DejaVuSans-93"/></defs><use xlink:href="#DejaVuSans-67"/><use x="69.824" xlink:href="#DejaVuSans-97"/><use x="131.104" xlink:href="#DejaVuSans-115"/><use x="183.203" xlink:href="#DejaVuSans-101"/><use x="244.727" xlink:href="#DejaVuSans-32"/><use x="276.514" xlink:href="#DejaVuSans-82"/><use x="343.746" xlink:href="#DejaVuSans-97"/><use x="405.025" xlink:href="#DejaVuSans-116"/><use x="444.234" xlink:href="#DejaVuSans-101"/><use x="505.758" xlink:href="#DejaVuSans-32"/><use x="537.545" xlink:href="#DejaVuSans-91"/><use x="576.559" xlink:href="#DejaVuSans-32"/><use x="608.346" xlink:href="#DejaVuSans-99"/><use x="663.326" xlink:href="#DejaVuSans-97"/><use x="724.605" xlink:href="#DejaVuSans-115"/><use x="776.705" xlink:href="#DejaVuSans-101"/><use x="838.229" xlink:href="#DejaVuSans-115"/><use x="890.328" xlink:href="#DejaVuSans-47"/><use x="924.02" xlink:href="#DejaVuSans-100"/><use x="987.496" xlink:href="#DejaVuSans-97"/><use x="1048.775" xlink:href="#DejaVuSans-121"/><use x="1107.955" xlink:href="#DejaVuSans-32"/><use x="1139.742" xlink:href="#DejaVuSans-93"/></g></g><g style="fill:#696969" transform="matrix(.24 0 0 -.24 245.86 71.76)" id="text_15"><defs><path d="M9.813 72.906h13.28l32.329-60.984v60.984h9.562V0h-13.28L19.39 60.984V0H9.813z" id="DejaVuSans-78"/><path d="M4.203 54.688h8.985l11.234-42.672 11.172 42.672h10.593l11.235-42.672 11.187 42.672h8.985L63.28 0H52.688L40.922 44.828 29.109 0H18.5z" id="DejaVuSans-119"/><path d="M8.203 72.906h46.875v-4.203L28.61 0H18.312L43.22 64.594H8.203z" id="DejaVuSans-55"/><path d="M2.984 54.688H12.5L29.594 8.797l17.093 45.89h9.516L35.687 0H23.485z" id="DejaVuSans-118"/><path d="M45.406 27.984q0 9.766-4.031 15.125-4.016 5.375-11.297 5.375-7.219 0-11.25-5.375-4.031-5.359-4.031-15.125 0-9.718 4.031-15.093t11.25-5.375q7.281 0 11.297 5.375 4.031 5.375 4.031 15.093zm8.985-21.203q0-13.953-6.203-20.765Q42-20.797 29.203-20.797q-4.734 0-8.937.703-4.203.703-8.157 2.172v8.735q3.954-2.141 7.813-3.157 3.86-1.031 7.86-1.031 8.843 0 13.234 4.61 4.39 4.609 4.39 13.937v4.453q-2.781-4.844-7.125-7.234Q33.938 0 27.875 0 17.828 0 11.672 7.656q-6.156 7.672-6.156 20.328 0 12.688 6.156 20.344Q17.828 56 27.875 56q6.063 0 10.406-2.39 4.344-2.391 7.125-7.22v8.297h8.985z" id="DejaVuSans-103"/><path d="M30.61 48.39q-7.22 0-11.422-5.64-4.204-5.64-4.204-15.453 0-9.813 4.172-15.453 4.188-5.64 11.453-5.64 7.188 0 11.375 5.655 4.203 5.672 4.203 15.438 0 9.719-4.203 15.406-4.187 5.688-11.375 5.688zm0 7.61q11.718 0 18.406-7.625 6.703-7.61 6.703-21.078 0-13.422-6.703-21.078-6.688-7.64-18.407-7.64-11.765 0-18.437 7.64-6.656 7.656-6.656 21.078 0 13.469 6.656 21.078Q18.844 56 30.609 56z" id="DejaVuSans-111"/><path d="M37.11 75.984V68.5h-8.594q-4.828 0-6.72-1.953-1.874-1.953-1.874-7.031v-4.828h14.797v-6.985H19.922V0H10.89v47.703H2.297v6.984h8.594V58.5q0 9.125 4.25 13.297 4.25 4.187 13.468 4.187z" id="DejaVuSans-102"/><path d="M9.813 72.906h9.859V42.094L52.39 72.906h12.703L28.906 38.922 67.672 0H54.688L19.672 35.11V0h-9.86z" id="DejaVuSans-75"/></defs><use xlink:href="#DejaVuSans-78"/><use x="74.805" xlink:href="#DejaVuSans-101"/><use x="136.328" xlink:href="#DejaVuSans-119"/><use x="218.115" xlink:href="#DejaVuSans-32"/><use x="249.902" xlink:href="#DejaVuSans-67"/><use x="319.727" xlink:href="#DejaVuSans-97"/><use x="381.006" xlink:href="#DejaVuSans-115"/><use x="433.105" xlink:href="#DejaVuSans-101"/><use x="494.629" xlink:href="#DejaVuSans-115"/><use x="546.729" xlink:href="#DejaVuSans-32"/><use x="578.516" xlink:href="#DejaVuSans-55"/><use x="642.139" xlink:href="#DejaVuSans-100"/><use x="705.615" xlink:href="#DejaVuSans-32"/><use x="737.402" xlink:href="#DejaVuSans-97"/><use x="798.682" xlink:href="#DejaVuSans-118"/><use x="857.861" xlink:href="#DejaVuSans-103"/><use x="921.338" xlink:href="#DejaVuSans-32"/><use x="953.125" xlink:href="#DejaVuSans-115"/><use x="1005.225" xlink:href="#DejaVuSans-108"/><use x="1033.008" xlink:href="#DejaVuSans-111"/><use x="1094.189" xlink:href="#DejaVuSans-112"/><use x="1157.666" xlink:href="#DejaVuSans-101"/><use x="1219.189" xlink:href="#DejaVuSans-32"/><use x="1250.977" xlink:href="#DejaVuSans-111"/><use x="1312.158" xlink:href="#DejaVuSans-102"/><use x="1347.363" xlink:href="#DejaVuSans-32"/><use x="1379.15" xlink:href="#DejaVuSans-55"/><use x="1442.773" xlink:href="#DejaVuSans-32"/><use x="1474.561" xlink:href="#DejaVuSans-97"/><use x="1535.84" xlink:href="#DejaVuSans-118"/><use x="1595.02" xlink:href="#DejaVuSans-103"/><use x="1658.496" xlink:href="#DejaVuSans-47"/><use x="1692.188" xlink:href="#DejaVuSans-49"/><use x="1755.811" xlink:href="#DejaVuSans-48"/><use x="1819.434" xlink:href="#DejaVuSans-48"/><use x="1883.057" xlink:href="#DejaVuSans-75"/></g><g id="legend_1"><path d="M694.75 184.5H831.2q3.2 0 3.2-3.2V88.96q0-3.2-3.2-3.2H694.75q-3.2 0-3.2 3.2v92.34q0 3.2 3.2 3.2z" style="fill:none;opacity:.8;stroke:#ccc;stroke-linejoin:miter" id="patch_5"/><path d="M697.95 98.718h32" style="fill:none;stroke:#000;stroke-linecap:round;stroke-width:1.5" id="line2d_6"/><g style="fill:#696969" transform="matrix(.16 0 0 -.16 742.75 104.317)" id="text_16"><defs><path d="M8.688 72.906h9.921V28.61q0-11.718 4.235-16.875 4.25-5.14 13.781-5.14 9.469 0 13.719 5.14 4.25 5.157 4.25 16.875v44.297H64.5V27.391q0-14.25-7.063-21.532-7.046-7.28-20.812-7.28-13.828 0-20.89 7.28-7.047 7.282-7.047 21.532z" id="DejaVuSans-85"/><path d="M53.516 70.516V60.89q-5.61 2.687-10.594 4-4.984 1.328-9.625 1.328-8.047 0-12.422-3.125t-4.375-8.89q0-4.845 2.906-7.313 2.907-2.453 11.016-3.97l5.953-1.218q11.031-2.11 16.281-7.406 5.25-5.297 5.25-14.172 0-10.61-7.11-16.078-7.093-5.469-20.812-5.469-5.172 0-11.015 1.172Q13.14.922 6.89 3.219v10.156q6-3.36 11.765-5.078 5.766-1.703 11.328-1.703 8.438 0 13.032 3.312 4.593 3.328 4.593 9.485 0 5.359-3.297 8.39-3.296 3.032-10.812 4.547L27.484 33.5q-11.03 2.188-15.968 6.875-4.922 4.688-4.922 13.047 0 9.672 6.812 15.234 6.813 5.563 18.766 5.563 5.14 0 10.453-.938 5.328-.922 10.89-2.765z" id="DejaVuSans-83"/></defs><use xlink:href="#DejaVuSans-85"/><use x="73.193" xlink:href="#DejaVuSans-83"/></g><path d="M697.95 122.203h32" style="fill:none;stroke:#009e73;stroke-linecap:round;stroke-width:1.5" id="line2d_8"/><g style="fill:#696969" transform="matrix(.16 0 0 -.16 742.75 127.802)" id="text_17"><use xlink:href="#DejaVuSans-78"/><use x="74.805" xlink:href="#DejaVuSans-74"/></g><path d="M697.95 145.688h32" style="fill:none;stroke:#d55e00;stroke-linecap:round;stroke-width:1.5" id="line2d_10"/><g style="fill:#696969" transform="matrix(.16 0 0 -.16 742.75 151.287)" id="text_18"><defs><path d="M19.672 34.813V8.108H35.5q7.953 0 11.781 3.297 3.844 3.297 3.844 10.078 0 6.844-3.844 10.078-3.828 3.25-11.781 3.25zm0 29.984V42.828h14.61q7.218 0 10.75 2.703 3.546 2.719 3.546 8.282 0 5.515-3.547 8.25-3.531 2.734-10.75 2.734zm-9.86 8.11h25.204q11.28 0 17.375-4.688Q58.5 63.53 58.5 54.89q0-6.703-3.125-10.657-3.125-3.953-9.188-4.922 7.282-1.562 11.313-6.53 4.031-4.954 4.031-12.376 0-9.765-6.64-15.093Q48.25 0 35.984 0H9.812z" id="DejaVuSans-66"/></defs><use xlink:href="#DejaVuSans-66"/><use x="68.604" xlink:href="#DejaVuSans-101"/><use x="130.127" xlink:href="#DejaVuSans-114"/><use x="169.49" xlink:href="#DejaVuSans-103"/><use x="232.967" xlink:href="#DejaVuSans-101"/><use x="294.49" xlink:href="#DejaVuSans-110"/></g><path d="M697.95 169.173h32" style="fill:none;stroke:#0072b2;stroke-linecap:round;stroke-width:1.5" id="line2d_12"/><g style="fill:#696969" transform="matrix(.16 0 0 -.16 742.75 174.773)" id="text_19"><defs><path d="M54.89 33.016V0h-8.984v32.719q0 7.765-3.031 11.61-3.031 3.858-9.078 3.858-7.281 0-11.484-4.64-4.204-4.625-4.204-12.64V0H9.08v75.984h9.03V46.188q3.235 4.937 7.594 7.374Q30.078 56 35.797 56q9.422 0 14.25-5.828 4.844-5.828 4.844-17.156z" id="DejaVuSans-104"/></defs><use xlink:href="#DejaVuSans-82"/><use x="64.982" xlink:href="#DejaVuSans-117"/><use x="128.361" xlink:href="#DejaVuSans-116"/><use x="167.57" xlink:href="#DejaVuSans-104"/><use x="230.949" xlink:href="#DejaVuSans-101"/><use x="292.473" xlink:href="#DejaVuSans-114"/><use x="333.586" xlink:href="#DejaVuSans-102"/><use x="368.791" xlink:href="#DejaVuSans-111"/><use x="429.973" xlink:href="#DejaVuSans-114"/><use x="469.336" xlink:href="#DejaVuSans-100"/></g></g></g></g><defs><clipPath id="p379b0ea156"><path d="M117 77.76h725.4v498.96H117z"/></clipPath></defs></svg>