<svg height="864" viewBox="0 0 936 648" width="1248" xmlns="http://www.w3.org/2000/svg" xmlns:xlink="http://www.w3.org/1999/xlink"><defs><style>*{stroke-linecap:butt;stroke-linejoin:round}</style></defs><g id="figure_1"><path d="M0 648h936V0H0z" style="fill:#fff" id="patch_1"/><g id="axes_1"><path d="M117 576.72h725.4V77.76H117z" style="fill:none" id="patch_2"/><g id="PolyCollection_1"><defs><path d="M150.875-97.514H201.394l.902-.637.902.084.902.054.902-.334.903.065.902-1.05.902-.918.902-1.89.902.048.902-.81.902-.448.902-1.634.903-2.666.902-2.135.902.573.902-2.006.902-5.729.902-3.05.902-.497.902-.397.903.105.902-1.623.902-2.628.902.039.902.03.902-1.44.902.663.902.235.903-2.874.902-1.491.902 5.24.902 5.927.902-.17.902 1.517.902-.474.903 2.623.902.08.902-.08.902-.179.902.03.902 1.463.902.605.902.156.903-.256.902-.36.902.121.902 2.373.902 1.6.902 2.486.902 2.781.902 3.314.903 1.355.902.185.902.453.902-1.911.902.218.902.642.902.631.902.96.903-.645.902-.59.902-1.148.902-.597.902-.389.902.402.902.01.902-.01.903 1.904.902 1.385.902.502.902.553.902-.383.902.09.902.05.902-1.35.903-.103.902-.134.902-.174.902-.157.902-.205.902-.294.902-.036.902.009.903-.435.902-.09.902.348.902-.124.902-.241.902 1.544.902.125.902.085.903.06.902.044.902.027.902.015.902-.886.902.414.902-.075.902-.525.903-.04.902-.046.902-.053.902-1.439.902.534.902-.32.902.065.902.025.903-.013.902-.05.902-1.526.902-.284.902.445h.902l.902-.445.903-.077.902-.157.902.835.902-.514.902.37.902-.082.902-.103.902-.137.903-.205.902 3.11.902-.762.902-.39.902.029.902.925.902.01.902-.036.903.485.902.448.902.01.902-.5.902-.108.902-.164.902-.27.902-.44.903 1.36.902-.03.902.412.902.05.902.02.902-.006.902.492.902.055.903-.426.902.435.902-.48.902-.064.902-.087.902-.276.902-.035.902.406.903-.435.902-.386.902.036.902.03h.902l.902-.749.902.093.902-.34.903.466.902.016.902.003.902-.012.902-.026.902-1.619.902.459.902.424.903-.033.902-.06.902-.09.902-.417.902.413.902.435.902-.026.902-.03.903-.033.902-.039.902-.044.902.9.902-.446.902.014.902.005.902-.005.903-1.253.902 1.24.902-.464h3.608l.903.439h.902l.902.934.902.58.902.104.902.08.902.061.902.414.903-.411.902-1.738.902-3.226.902-.294.902.4.902.3.902-.552.902-2.06.903-.056.902-1.727.902-1.676.902-.916.902-1.04.902-.095.902.039.902-.053.903 3.568.902.55.902-.387.902-.48.902-2.25.902.663.902-1.964.902-.054.903-.002.902 1.27.902 1.176.902-4.503.902-.491.902-1.116.902-.865.902-1.626.903.309.902.137.902-4.711.902.497.902 2.33.902-4.613.902-.448.902.011.903-.49.902-1.773.902-4.462.902-1.8.902-1.766.902-3.143.902-1.605.902.06.903 2.236.902-1.771.902-3 .902 6.856.902 2.464.902-9.212.902-.89.902-.233.903 1.532.902-.015.902-3.672.902-3.881.902-1.895.902.533.902 1.527.902-1.376.903.697.902-7.08.902-3.444.902 8.694.902-.08.902-.246.902-1.488.903.69.902 6.654.902 3.659.902 6.087.902.951.902-6.808.902 2.415.902-9.521.903 5.222.902 2.864.902-.182.902-.303.902-7.291.902 1.12.902-5.154.902-3.625.903 7.437.902-.453.902-.677.902-2.538.902-4.545.902 5.648.902-4.137.902-4.94.903-3.827.902-.01.902 3.543.902-2.662.902 1.804.902.572.902-4.387.902-.306.903-.615.902 14.336.902-1.01.902 1.68.902 5.828.902 5.386.902 5.802.902.897.903-3.56.902 3.246.902 4.309.902 1.976.902-3.498.902-3.788.902-2.604.902-.631.903 8.742.902-8.208.902-2.534.902-2.014.902.055.902.051.902 6.381.902-1.33.903.49.902-.028.902 5.324.902-.64.902.124.902.027.902-6.308.902 9.587.903 2.638.902 1.025.902-.124.902-3.707.902 5.617.902.585.902.474.902-3.41.903-1.808.902 2.984.902-.131.902-6.99.902.36.902-.32.902.174.903-3.328.902.403.902 3.125.902-4.115.902.778.902-1.91.902-.391.902 1.673.903-.575.902-.933.902-2.834.902 1.099.902-1.07.902-.38.902 3.94.902.027.903-.371.902-4.219.902-.724.902.54.902 2.605.902-.9.902-.04.902-3.657.903 5.218.902-.422.902 2.291.902-6.304.902-1.494.902.09.902-.046.902 3.044.903-.846 1.804-.394v-.499l.902.803.902-.514.902 4.004.902.391.902 1.446.903-1.095.902 3.085.902 2.175.902-2.19.902-.142.902 6.847.902 3.905.902 1.44.903 1.177.902.092.902.224.902-.015.902 1.724.902.853.902.578.902 3.62.903-1.854.902 1.2.902-1.06.902.14.902-.079.902-.118.902 2.233.902 1.344.903-.105.902-.32.902.7.902 1.221.902.823.902 2.149.902 4.567.902.97.903.276.902 1.072.902.47.902 2.704.902.562.902 1 .902-.09.903-.325.902 1.432.902-.4.902-.566.902-1.512.902-.216.902-.265.902-.402.903-.419.902-.584.902-.607.902.281.902-.05.902-.064.902-.084.902-.055.903-1.206.902.029.902.867.902-.003.902-.006.902-.007.902-.01.902-.014.903.448h4.51l.902 1.414.902.547.903.124.902-1.755.902-.02.902-.022.902-.023.902-.026h.902l.902-.409.903.024.902.022.902.02.902.017.902-.054.902-.17.902-.73.902 1.357.903.043.902.036.902.03.902.027.902-.434.902-.435h5.413l.902-.434.902-1.753.902.217.902.128.903-7.138.902.244.902.71.902-1.41.902-1.416.902.456.902.213.902-2.755.903-1.186.902-.606.902-.476.902 1.493.902-1.054.902-1.755.902 4.469.903-.696.902-2.6.902.26.902 1.393.902.083.902.077.902-1.34.902.27.903-.304.902-1.314.902.251.902-.242.902-.349.902 3.708.902-.287.902 2.093.903.737.902 1.231.902.262.902.19.902 1.49.902-2.221.902-2.724.902.619.903-2.307.902-.146.902-.162.902.928.902-3.042.902-1.189.902 2.284.902-1.989.903.042.902-.094.902-1.259.902 1.353.902 1.13.902-2.867.902.333.902-.163.903-.242.902-5.356.902 4.721.902.435.902-2.207.902.888.902.009h.902l.903 2.208.902-.027.902-.172.902 1.94.902.157.902.133.902.114.902 3.965.903-.1.902-.24.902 2.346.902-3.652.902-.256.902-.36.902 1.657.902-1.51.903.606.902.815.902.83.902-.124.902-.233.902-1.743.902-.42.902 2.232.903-1.844.902 4.182.902.138.902.038.902-.831.902 2.29.902 1.082.903.172.902.628.902.128.902.075.902-.153.902-.806.902.293.902 1.274.903.063.902-.007.902-.078.902-1.731.902-.545.902-3.342.902 1.102.902-2.03.903.392.902.282.902.993.902.096.902-.765.902-1.297.902-.52.902-.237.903-.435.902-4.21.902-1.176.902 1.11.902.011.902 2.986.902-.08.902-.105.903-5.809.902-1.06.902.119.902-1.818.902-2.072.902.247.902.007.902 1.008.903-1.862.902-1.816.902-3.653.902-3.698.902.128.902-.357.902 1.23.902-2.532.903-5.935.902-5.214.902 1.636.902-14.73.902-2.67.902-.208.902-5.998.902-10.643.903-6.812.902-2.865.902.292.902-1.919.902-2.236.902-15.508.902-14.42.902-7.473.903-18.228.902-3.357.902-18.783.902-10.301.902-.182.902-6.158.902-15.173.903-11.761.902-24.938.902-16.276.902-2.052.902 3.48.902-.132.902-5.763.902 6.458.903 8.084.902 15.94.902 4.78.902 5.643.902 19.707.902 32.215.902 26.271v-86.595l-.902-10.219-.902-19.914-.902-18.521-.902-10.865-.902-10.859-.902-24.894-.903-20.586-.902-15.262-.902-2.288-.902-5.346-.902-6.945-.902 2.292-.902 22.82-.903 32.405-.902 16.91-.902 20.448-.902 9.48-.902 3.294-.902 16.632-.902 26.395-.902 7.938-.903 21.737-.902 9.904-.902 16.857-.902 15.769-.902 1.24-.902 3.293-.902 2.899-.902 8.43-.903 13.17-.902 16.29-.902 9.641-.902 3.268-.902 7.755-.902 20.892-.902-.102-.902 7.818-.903 7.097-.902 2.68-.902-1.375-.902-.357-.902.128-.902 4.99-.902 5.035-.902 2.528-.903 2.483-.902-.73-.902.007-.902.247-.902 3.14-.902 2.527-.902.12-.902 1.545-.903 6.354-.902-.105-.902-.08-.902-3.096-.902.011-.902-.627-.902 1.43-.902 4.48-.903-.436-.902-.238-.902.35-.902 1.31-.902.971-.902.097-.902-.745-.902.282-.903.392-.902 3.183-.902-.635-.902 4.477-.902.324-.902.875-.902-.078-.902-.007-.903.063-.902-2.201-.902-.576-.902.063-.902-.153-.902.074-.902.129-.902-.242-.903.173-.902-.655-.902-2.055-.902.906-.902.039-.902.138-.902-3.637-.903 1.63-.902-2.112-.902.45-.902 1.732-.902-.234-.902-.123-.902-.908-.902-.923-.903-1.13-.902 1.095-.902-1.817-.902-.362-.902-.255-.902 3.298-.902-1.997-.902.628-.903.77-.902-3.855-.902.114-.902.133-.902.157-.902-1.536-.902-.171-.902-.028-.903-2.135h-.902l-.902.009-.902-.85-.902 2.137-.902-.434-.902-4.836-.902 5.938-.903-.242-.902-.162-.902-.536-.902 2.346-.902-1.477-.902-2.122-.902.478-.902-.094-.903.042-.902 2.356-.902-2.06-.902 2.286-.902 3.908-.902-.809-.902-.162-.902-.147-.903 2.038-.902-1.12-.902 2.49-.902 2.123-.902-1.117-.902.19-.902.263-.902-.507-.903-.132-.902-1.382-.902.582-.902-3.243-.902-.349-.902-.242-.902-.618-.902.424-.903-.304-.902-.6-.902 1.268-.902.077-.902.083-.902-1.213-.902-.61-.902 1.744-.903.174-.902-5.089-.902-1.754-.902-1.055-.902-2.85-.902-.476-.902.262-.903 1.421-.902 3.326-.902.213-.902.456-.902 2.928-.902 2.934-.902.71-.902 1.983-.903 11.106-.902.128-.902.218-.902 2.59-.902.435h-5.413l-.902.434-.902.434-.902.027-.902.03-.902.037-.903.042-.902-1.25-.902.14-.902-.17-.902-.054-.902.018-.902.02-.902.021-.903.024-.902.46h-.902l-.902-.026-.902-.024-.902-.021-.902-.02-.902 1.72-.903.124-.902-.322-.902-1.192h-4.51l-.903-.421-.902-.013-.902-.01-.902-.008-.902-.006-.902-.003-.902-.87-.902.028-.903 1.401-.902-.055-.902-.084-.902-.064-.902-.05-.902-.587-.902.261-.902-.584-.903-.42-.902-.401-.902-.265-.902-.216-.902.226-.902-.566-.902-.4-.902-2.043-.903-.326-.902-.09-.902-.738-.902-.306-.902-2.509-.902-.4-.902-.664-.903.275-.902.101-.902-3.252-.902-1.326-.902-.915-.902-1.384-.902-1.039-.902-.32-.903-.104-.902-1.263-.902-2.111-.902-.118-.902-.08-.902-.728-.902-1.06-.902-2.275-.903 1.62-.902-3.33-.902-1.159-.902-.885-.902-1.75-.902-.016-.902-.645-.902.092-.903-.56-.902-.298-.902-2.177-.902-5.316-.902-.142-.902 2.154-.902-1.3-.902-2.128-.903.642-.902-1.16-.902-.478-.902-3.815-.902.355-.902-.935v.37l-1.804.475-.903.892-.902-3.038-.902-.047-.902.09-.902 1.982-.902 6.728-.902-2.053-.902.446-.903-5.207-.902 4.162-.902-.04-.902.838-.902-2.608-.902-.329-.902 1.014-.902 4.47-.903-.372-.902.028-.902-3.881-.902-.379-.902.667-.902-1.507-.902 3.248-.902-.933-.903-.575-.902-1.803-.902.477-.902 1.566-.902-.96-.902 4.574-.902-2.957-.902.403-.903 4.491-.902.174-.902.55-.902-3.116-.902 6.911-.902-.13-.902-3.098-.903 1.667-.902 2.671-.902-.394-.902-.284-.902-4.81-.902 2.376-.902-.125-.902-.712-.903-1.706-.902-8.658-.902 5.855-.902.028-.902.123-.902 1.098-.902-4.233-.902-.028-.903-.378-.902 1.275-.902-6.651-.902.051-.902.055-.902 1.461-.902.942-.902 5.693-.903-9.503-.902-.632-.902-2.604-.902.557-.902 1.714-.902-1.498-.902-3.511-.902-2.836-.903 4.26-.902.896-.902-2.885-.902-2.434-.902-3.729-.902-1.795-.902 1.597-.902-14.336-.903-.615-.902-.306-.902 4.302-.902-.297-.902-1.671-.902 2.551-.902-3.408-.902-.01-.903 4.861-.902 5.486-.902 4.551-.902-5.647-.902 5.012-.902 2.675-.902-.676-.902-.453-.903-7.334-.902 5.933-.902 5.27-.902-2.354-.902 6.61-.902-.303-.902-.182-.902-4.955-.903-6.073-.902 9.593-.902-1.929-.902 7.093-.902.952-.902-3.47-.902-2.424-.902-7.247-.903-2.785-.902.25-.902-.247-.902-.08-.902-8.682-.902 4.376-.902 8.559-.903-.173-.902 2.1-.902-1.08-.902.533-.902 3.319-.902 4.807-.902 3.278-.902-.883-.903-2.812-.902-1.97-.902-.891-.902 8.163-.902-3.617-.902-7.914-.902 2.213-.902 1.705-.903-2.108-.902.06-.902 2.739-.902 4.676-.902 2.578-.902 2.544-.902 5.095-.902 1.702-.903-.49-.902.01-.902 1.29-.902 5.814-.902-2.015-.902.497-.902 6.584-.902.137-.903.31-.902 2.717-.902 1.742-.902 1.49-.902.378-.902 4.185-.902-1.431-.902-1.336-.903-.002-.902-.054-.902 1.51-.902-1.074-.902 1.227-.902-.48-.902-.388-.902-1.187-.903-4.252-.902-.921-.902-.83-.902-.095-.902 1.566-.902 1.69-.902 2.668-.902 2.618-.903.812-.902 3.153-.902 1.186-.902.3-.902.4-.902 1.443-.902 4.593-.902 1.738-.903.458-.902-.456-.902.062-.902.08-.902.104-.902-.29-.902-.803h-.902l-.903-.43h-3.608l-.902.406-.902-1.367-.903 1.353-.902-.005-.902.005-.902.014-.902.424-.902-.839-.902-.044-.902-.038-.903-.033-.902-.03-.902-.026-.902-.435-.902-.455-.902.453-.902-.092-.902-.059-.903-.033-.902-.445-.902-.41-.902 1.857-.902-.027-.902-.011-.902.002-.902.016-.903-.402-.902.528-.902.093-.902.99h-.902l-.902.029-.902.037-.902.482-.903.434-.902-.463-.902-.035-.902-.276-.902-.088-.902-.063-.902.389-.902-.434-.903.442-.902.056-.902-.377-.902-.007-.902.02-.902.05-.902-.456-.902-.03-.903-1.246-.902.43-.902-.271-.902-.165-.902-.107-.902.368-.902.01-.902-.42-.903-.384-.902-.036-.902.01-.902-.813-.902.028-.902.48-.902.975-.902-2.103-.903-.205-.902-.136-.902-.104-.902-.08-.902-.5-.902.354-.902-.902-.902-.157-.903-.077-.902.424h-.902l-.902-.424-.902.585-.902 1.95-.902-.051-.903-.013-.902.025-.902.065-.902.55-.902-.336-.902 2.036-.902-.053-.902-.046-.903-.04-.902.344-.902-.075-.902-.454-.902.851-.902.015-.902.027-.902.043-.903.061-.902.085-.902.125-.902-1.063-.902-.24-.902-.125-.902-.52-.902-.09-.903.434-.902.009-.902-.036-.902-.294-.902-.205-.902-.158-.902-.173-.902-.134-.903-.104-.902 1.256-.902.05-.902.09-.902.486-.902-.315-.902-.367-.902-1.221-.903-1.572-.902-.01-.902.01-.902-.467-.902-.388-.902-.597-.902-.28-.902-.59-.903-.645-.902-1.647-.902-1.106-.902-1.095-.902-.65-.902 1.564-.902-.417-.902.186-.903-.383-.902-1.9-.902-1.562-.902-1.859-.902-1.005-.902-1.972-.902.122-.902-.361-.903-1.994-.902-1.58-.902-1.134-.902-2.013-.902-.838-.902-.178-.902-.08-.902.079-.903-1.721-.902 1.264-.902-.221-.902 1.568-.902-3.63-.902-6.054-.902-2.361-.903-.267-.902-2.372-.902-2.811-.902-.572-.902-1.707-.902-.83-.902 2.585-.902 1.851-.903.105-.902 1.342-.902 2.108-.902 5.639-.902 8.172-.902 3.207-.902.572-.902 3.948-.903 4.284-.902 2.71-.902 1.29-.902 1.796-.902.917-.902 3.323-.902 1.688-.902 1.557-.903.065-.902.534-.902.055-.902.083-.902 1.101H150.875z" id="m474b5b1869" style="stroke:#fff;stroke-opacity:.2"/></defs><g clip-path="url(#p55cc04544d)"><use style="fill:#089fff;fill-opacity:.2;stroke:#fff;stroke-opacity:.2" xlink:href="#m474b5b1869" y="648"/></g></g><g id="LineCollection_1"><path clip-path="url(#p55cc04544d)" d="M202.296 550.486v-12.163M205.002 550.486v-6.082M206.807 550.486v-18.245M207.709 550.486v-18.245M208.611 550.486v-36.49M209.513 550.486v-6.082M210.415 550.486v-18.245M211.317 550.486v-12.163M212.22 550.486v-30.408M213.122 550.486v-48.654M214.024 550.486v-42.572M214.926 550.486v-12.163M215.828 550.486v-36.49M216.73 550.486V453.18M217.632 550.486v-66.899M218.534 550.486v-18.245M219.436 550.486v-30.408M220.339 550.486v-18.245M221.24 550.486V489.67M222.143 550.486v-42.572M223.045 550.486v-12.163M224.85 550.486v-36.49M225.751 550.486V526.16M226.653 550.486V526.16M227.556 550.486v-30.408M228.458 550.486v-30.408M229.36 550.486v-18.245M231.164 550.486v-30.408M232.066 550.486v-18.245M232.968 550.486v-30.408M233.87 550.486v-30.408M234.773 550.486v-42.572M235.675 550.486v-12.163M237.479 550.486v-30.408M239.283 550.486v-12.163M240.185 550.486v-18.245M241.088 550.486v-18.245M241.99 550.486v-18.245M247.402 550.486v-6.082M250.109 550.486V526.16M251.01 550.486V526.16M251.913 550.486v-6.082M252.815 550.486v-6.082M253.717 550.486v-6.082M257.326 550.486v-6.082M263.64 550.486v-6.082M266.347 550.486v-12.163M269.053 550.486v-18.245M269.956 550.486v-6.082M276.27 550.486v-6.082M277.173 550.486v-6.082M278.977 550.486v-6.082M282.585 550.486v-6.082M287.998 550.486v-12.163M289.802 550.486v-6.082M290.704 550.486v-6.082M291.607 550.486v-6.082M294.313 550.486V526.16M296.117 550.486v-6.082M300.628 550.486v-36.49M301.53 550.486v-6.082M303.334 550.486v-6.082M304.236 550.486v-12.163M306.943 550.486v-12.163M307.845 550.486v-6.082M314.16 550.486v-18.245M315.062 550.486v-6.082M315.964 550.486v-6.082M319.573 550.486v-6.082M322.279 550.486v-6.082M325.887 550.486v-6.082M327.692 550.486v-6.082M334.007 550.486v-6.082M335.81 550.486v-6.082M338.517 550.486v-6.082M341.224 550.486v-6.082M342.126 550.486v-6.082M345.734 550.486v-12.163M346.636 550.486v-6.082M347.538 550.486v-6.082M351.147 550.486v-6.082M352.951 550.486V526.16M358.364 550.486v-18.245M363.777 550.486v-6.082M365.581 550.486v-12.163M366.483 550.486v-6.082M370.092 550.486v-18.245M371.896 550.486v-6.082M382.721 550.486v-12.163M383.624 550.486v-6.082M384.526 550.486v-30.408M385.428 550.486v-54.735M386.33 550.486v-12.163M389.036 550.486v-12.163M389.938 550.486v-36.49M390.84 550.486v-6.082M391.743 550.486v-30.408M392.645 550.486v-30.408M393.547 550.486v-18.245M394.449 550.486v-18.245M395.351 550.486v-12.163M397.155 550.486V526.16M401.666 550.486v-36.49M402.568 550.486V526.16M403.47 550.486v-30.408M404.372 550.486v-30.408M405.275 550.486v-30.408M407.98 550.486v-72.98M408.883 550.486v-6.082M409.785 550.486v-42.572M410.687 550.486v-18.245M411.59 550.486v-30.408M414.296 550.486V434.934M415.198 550.486V526.16M417.002 550.486V447.097M417.904 550.486v-42.572M420.61 550.486V453.18M421.513 550.486v-72.98M422.415 550.486v-72.98M423.317 550.486v-48.654M424.22 550.486v-85.144M425.121 550.486v-30.408M426.926 550.486v-85.144M427.828 550.486v-48.654M428.73 550.486v-36.49M431.436 550.486V428.852M433.24 550.486v-85.144M434.143 550.486v-42.572M435.045 550.486v-66.899M435.947 550.486V453.18M436.849 550.486v-145.96M437.751 550.486v-66.899M439.555 550.486v-66.899M440.457 550.486v-72.98M441.36 550.486v-30.408M442.262 550.486v-109.47M443.164 550.486v-54.735M445.87 550.486v-85.144M446.772 550.486v-54.735M447.675 550.486v-42.572M449.479 550.486V447.097M452.185 550.486V386.28M453.087 550.486v-42.572M453.99 550.486V386.28M454.892 550.486v-30.408M458.5 550.486V368.035M459.402 550.486v-30.408M460.304 550.486V434.934M461.206 550.486v-66.899M464.815 550.486V349.79M465.717 550.486v-109.47M466.62 550.486v-85.144M467.521 550.486v-91.225M468.423 550.486v-72.98M469.326 550.486V489.67M471.13 550.486V416.69M472.032 550.486v-66.899M472.934 550.486v-91.225M473.836 550.486V489.67M474.738 550.486V489.67M478.347 550.486V422.77M479.249 550.486V489.67M480.151 550.486V526.16M481.053 550.486v-18.245M483.76 550.486V361.953M484.662 550.486V526.16M485.564 550.486v-36.49M486.466 550.486v-36.49M487.368 550.486V453.18M488.27 550.486v-30.408M491.879 550.486V392.362M492.78 550.486v-48.654M493.683 550.486v-42.572M496.39 550.486V453.18M497.291 550.486v-42.572M498.194 550.486v-30.408M499.096 550.486v-36.49M499.998 550.486v-30.408M500.9 550.486v-42.572M503.606 550.486v-85.144M504.508 550.486v-30.408M505.41 550.486v-18.245M506.313 550.486v-30.408M508.117 550.486v-42.572M509.02 550.486V526.16M509.921 550.486v-36.49M510.823 550.486V526.16M511.725 550.486v-79.062M512.628 550.486v-54.735M515.334 550.486V453.18M516.236 550.486V489.67M517.138 550.486v-36.49M518.04 550.486v-18.245M518.943 550.486v-85.144M521.649 550.486v-85.144M522.551 550.486V526.16M523.453 550.486v-48.654M524.355 550.486v-85.144M525.257 550.486v-30.408M527.964 550.486v-139.88M528.866 550.486v-42.572M529.768 550.486v-48.654M530.67 550.486v-18.245M531.572 550.486v-30.408M534.279 550.486v-145.96M535.18 550.486v-36.49M536.083 550.486v-42.572M536.985 550.486v-48.654M537.887 550.486v-42.572M539.691 550.486v-54.735M540.594 550.486v-66.899M541.496 550.486v-48.654M542.398 550.486v-18.245M543.3 550.486v-109.47M544.202 550.486v-54.735M546.908 550.486V447.097M547.81 550.486v-48.654M549.615 550.486v-48.654M549.615 550.486v-54.735M550.517 550.486v-30.408M551.42 550.486v-6.082M553.223 550.486V489.67M554.125 550.486v-30.408M555.028 550.486v-30.408M555.93 550.486v-72.98M556.832 550.486v-30.408M557.734 550.486v-30.408M559.538 550.486v-18.245M560.44 550.486v-6.082M561.342 550.486v-36.49M562.245 550.486v-42.572M563.147 550.486v-30.408M565.853 550.486v-36.49M566.755 550.486v-18.245M567.657 550.486v-18.245M568.56 550.486V526.16M569.462 550.486v-54.735M570.364 550.486v-6.082M572.168 550.486v-12.163M573.07 550.486v-6.082M573.972 550.486v-36.49M574.874 550.486v-12.163M575.776 550.486v-12.163M578.483 550.486V526.16M580.287 550.486v-6.082M587.504 550.486v-6.082M592.917 550.486v-6.082M593.819 550.486v-12.163M599.232 550.486v-6.082M604.645 550.486v-18.245M605.547 550.486v-6.082M619.98 550.486V526.16M625.393 550.486v-6.082M631.708 550.486v-6.082M632.61 550.486v-6.082M637.121 550.486v-6.082M638.023 550.486v-12.163M644.338 550.486v-12.163M645.24 550.486v-36.49M647.947 550.486V422.77M648.849 550.486v-12.163M649.75 550.486v-6.082M650.653 550.486v-42.572M651.555 550.486v-30.408M654.261 550.486v-42.572M655.164 550.486v-18.245M656.066 550.486v-6.082M656.968 550.486v-12.163M657.87 550.486v-6.082M660.576 550.486V489.67M661.479 550.486v-18.245M662.38 550.486v-36.49M663.283 550.486v-36.49M664.185 550.486v-12.163M666.891 550.486V489.67M667.793 550.486v-12.163M668.696 550.486v-6.082M669.598 550.486V526.16M673.206 550.486v-12.163M674.108 550.486V526.16M675.01 550.486v-12.163M675.913 550.486v-30.408M679.521 550.486v-42.572M680.423 550.486v-42.572M681.325 550.486v-42.572M682.227 550.486v-12.163M683.13 550.486v-30.408M686.738 550.486v-72.98M687.64 550.486v-36.49M689.444 550.486v-30.408M692.15 550.486v-54.735M693.053 550.486v-18.245M693.955 550.486V526.16M694.857 550.486v-48.654M695.76 550.486V526.16M698.466 550.486v-79.062M699.368 550.486v-6.082M700.27 550.486v-30.408M701.172 550.486v-30.408M702.074 550.486v-18.245M704.78 550.486V526.16M705.683 550.486v-18.245M706.585 550.486V526.16M707.487 550.486V526.16M708.39 550.486V526.16M711.095 550.486V526.16M711.998 550.486v-12.163M712.9 550.486v-36.49M714.704 550.486v-66.899M718.312 550.486v-36.49M719.215 550.486v-12.163M720.117 550.486v-12.163M721.019 550.486v-12.163M723.725 550.486v-48.654M724.627 550.486v-18.245M725.53 550.486v-6.082M726.432 550.486V526.16M727.334 550.486v-12.163M730.04 550.486v-12.163M730.942 550.486v-6.082M732.747 550.486v-12.163M733.649 550.486v-6.082M736.355 550.486v-48.654M737.257 550.486V526.16M739.964 550.486v-12.163M742.67 550.486v-30.408M743.572 550.486v-12.163M744.474 550.486v-54.735M746.278 550.486v-42.572M748.985 550.486v-36.49M749.887 550.486V526.16M750.789 550.486v-12.163M751.691 550.486v-18.245M752.593 550.486v-18.245M755.3 550.486v-91.225M756.202 550.486v-30.408M757.104 550.486v-42.572M761.615 550.486V428.852M762.517 550.486v-42.572M763.419 550.486v-12.163M764.32 550.486v-48.654M765.223 550.486v-54.735M767.93 550.486v-79.062M768.832 550.486V489.67M769.734 550.486v-72.98M770.636 550.486V489.67M771.538 550.486V489.67M774.244 550.486V447.097M775.146 550.486v-79.062M776.049 550.486V447.097M776.95 550.486v-139.88M777.853 550.486v-42.572M778.755 550.486v-249.35M779.657 550.486v-72.98M780.56 550.486V447.097M781.461 550.486V380.198M782.363 550.486V288.973M783.266 550.486V349.79M784.168 550.486v-139.88M785.07 550.486v-18.245M785.972 550.486v-36.49M786.874 550.486V422.77M787.776 550.486V252.483M788.678 550.486v-322.33M789.58 550.486V288.973M790.483 550.486v-322.33M791.385 550.486V222.074M792.287 550.486V161.257M793.189 550.486V258.564M794.091 550.486V355.872M794.993 550.486V179.502M795.895 550.486V100.44M796.798 550.486V209.911M797.7 550.486V130.85M798.602 550.486V240.32M799.504 550.486V392.362M800.406 550.486V325.463M801.308 550.486v-285.84M802.21 550.486v-285.84M803.112 550.486V380.198M804.015 550.486V422.77M804.917 550.486V447.097M805.819 550.486V368.035M806.72 550.486v-79.062M807.623 550.486V447.097M808.525 550.486v-85.144M809.427 550.486v-85.144" style="fill:none;stroke:#000;stroke-dasharray:1.5,2.475;stroke-dashoffset:0;stroke-width:1.5"/></g><path clip-path="url(#p55cc04544d)" d="M149.973 550.486h51.42l.903-.869h1.804l.902-.434h.903l1.804-2.607.902-2.606.902-.434.902-1.304.902-.868.902-2.173 1.805-6.516h.902l.902-2.606.902-6.95.902-4.345.902-1.303.902-.869h.903l.902-1.737.902-2.607.902.435.902.868.902-.434.902 1.738.902 1.303.903-1.303.902.434.902 5.647.902 4.779.902-.869.902.869.902-.869.903 2.172h2.706l.902.434.902 1.738 2.707 2.607h1.804l.902 2.172.902 1.303 1.804 4.344.902 2.606.903.87h.902l.902.434.902-1.738.902.434 1.804 1.738.902 1.303h1.805l.902-.434h1.804l.902.434h1.804l.903 1.738.902 1.303 1.804.869.902-.435h1.804l.902-1.303h7.217l.903-.434h.902l.902.434h1.804l.902 1.303h5.413l.902-.868.902.434h.902l.902-.434h2.707l.902-1.738.902.434.902-.434h3.609l.902-1.738.902-.434.902.434h.902l.902-.434h1.805l.902.869.902-.435.902.435h3.609l.902 2.606.902-.869.902-.434h.902l.902.869h1.804l1.805.869h.902l.902-.435h2.706l.902-.434.903 1.303h.902l.902.434h2.706l.902.435h.902l.903-.435.902.435.902-.435h3.608l.902.435 1.805-.869h2.706l.902-.869h.902l.902-.434.903.434h3.608l.902-1.737 1.804.868h2.707l.902-.434 1.804.869h4.51l.903.869.902-.435h2.706l.903-1.303.902 1.303.902-.434h3.608l.903.434h.902l.902.87.902.433h2.706l.902.435.903-.435.902-1.737.902-3.91.902-.869h1.804l.902-.868.902-2.607.903-.434 1.804-4.344 1.804-2.607h.902l1.804.869.903 3.91.902.868h1.804l.902-1.737.902.869.902-1.738h1.805l1.804 2.606.902-4.344.902-.434 1.804-2.606.902-2.173h1.805l.902-5.647h.902l.902 2.172.902-5.213.902-.868h1.805l.902-1.738.902-4.779 1.804-4.344.902-3.91.902-2.171h.902l.903 2.172.902-1.738.902-2.606.902 7.385.902 3.04.902-8.688h.902l.902.87.903 2.171.902.434.902-3.475.902-4.344.902-2.606h.902l.902 1.303.902-1.738.903.435.902-7.82.902-3.91.902 8.689h1.804l.902-.869.903 1.738.902 6.95.902 3.041.902 4.779h.902l.902-6.951.902 2.172.902-9.557.903 5.647.902 3.91h1.804l.902-6.95.902 1.737 1.804-9.991.903 7.385h1.804l.902-2.607.902-4.778.902 5.647.902-4.344.902-5.213.903-4.344h.902l.902 3.475.902-2.606.902 1.737.902.435.902-4.344h1.805l.902 14.335.902-1.303.902 1.738.902 4.778 1.804 8.254h.902l.903-3.91.902 3.041.902 3.91.902 1.737.902-2.606.902-2.172h1.804l.903 9.122.902-6.95 1.804-3.475h1.804l.902 6.516.902-1.303.903.434h.902l.902 4.778.902-.868h1.804l.902-6.082.902 9.122.903 2.173.902.868h.902l.902-3.04.902 5.212 1.804.87.902-3.042.903-1.737.902 3.04h.902l.902-6.95.902 1.738.902-.435h.902l.903-3.91h.902l.902 3.041.902-4.344.902.87.902-1.738.902-.435.902 1.738h1.805l.902-3.041.902 1.303.902-.869h.902l.902 3.91h1.805l.902-4.344.902-.869.902.435.902 2.606.902-.869h.902l.902-3.91.903 5.213.902-.434.902 2.172.902-6.516.902-1.738h1.804l.902 3.041.903-.869 1.804-.434v-.435l.902.87.902-.435.902 3.91.902.434.902 1.303.903-.869.902 2.607.902 1.737.902-2.172h.902l.902 6.082.902 3.041 1.805 1.738h.902l.902.434h.902l.902 1.738 1.804 1.737.902 3.476.903-1.738.902 1.738h.902l.902.434h1.804l.902 2.172.902 1.303h1.805l.902.869.902 1.303.902.87.902 1.737.902 3.91.902.434h.903l.902.869.902.434.902 2.606.902.435.902.869h1.805l.902 1.737h1.804l.902-.869h4.51l.903-.434.902.434h3.608l.903-1.303h.902l.902.87h4.51l.903.433h4.51l.902 1.304.902.434h.903l.902-1.738h4.51l.902-.434h5.413l.902-.434.902 1.303h3.609l1.804-.869h5.413l.902-.434.902-2.172h1.804l.903-9.123.902-.869h.902l1.804-4.344h1.804l.902-3.04.903-1.304.902-.434h.902l.902 2.172h1.804l.902 4.778.903-.434.902-2.172.902.434.902 1.303h1.804l.902-1.303.902.435h.903l.902-.87.902.435h1.804l.902 3.475.902-.434.902 1.738.903.434.902.869h1.804l.902 1.303.902-2.172.902-2.606.902.868.903-2.172h1.804l.902.87.902-3.476.902-1.738.902 2.172.902-2.172h1.805l.902-.869.902 1.738.902 1.303.902-2.606.902.434h1.805l.902-5.647.902 4.778.902.435.902-2.172.902.869h1.804l.903 2.172h1.804l.902 1.737h2.706l.902 3.91 1.805-.869.902 2.172.902-3.475h1.804l.902 1.738.902-1.304 2.707 2.607h1.804l.902-1.738.902-.434.902 2.172.903-1.738.902 3.91h1.804l.902-.869.902 2.172.902.869h.903l.902.434h2.706l.902-.434.902.434.902 1.738h2.707l.902-1.303.902-.435.902-3.91.902.87.902-2.607h1.805l.902.869h.902l.902-.869.902-1.303.902-.435h1.805l.902-4.344.902-1.303.902.869h.902l.902 3.04h1.804l.903-6.08.902-1.304h.902l.902-2.172.902-2.607h1.804l.902.87 1.805-4.345 1.804-8.688h1.804l.902 1.303.902-2.606 1.805-13.033.902.87.902-17.811.902-5.213.902-1.738.902-7.82.902-13.466.903-9.991.902-5.648.902-1.303.902-2.606.902-1.738 1.804-31.277.902-8.688.903-19.983.902-5.647.902-22.59.902-13.466.902-1.738.902-7.82.902-17.81.903-14.335.902-28.671.902-19.549.902-2.172.902 5.213.902 2.607.902-1.738.902 10.86.903 14.336.902 20.417 1.804 16.073.902 19.114.902 26.064.902 18.245h0" style="fill:none;stroke:#000;stroke-linecap:round;stroke-width:1.5" id="line2d_1"/><path d="M117 576.72V77.76" style="fill:none;stroke:#d3d3d3;stroke-linecap:square;stroke-linejoin:miter;stroke-width:1.25" id="patch_3"/><path d="M117 576.72h725.4" style="fill:none;stroke:#d3d3d3;stroke-linecap:square;stroke-linejoin:miter;stroke-width:1.25" id="patch_4"/><g id="matplotlib.axis_1"><g id="xtick_1"><g style="fill:#696969" transform="matrix(.16 0 0 -.16 119.598 598.378)" id="text_1"><defs><path d="M9.813 72.906h9.859V5.078q0-13.187-5-19.14-5-5.954-16.094-5.954h-3.75v8.297h3.078q6.531 0 9.219 3.672Q9.813-4.39 9.813 5.078z" id="DejaVuSans-74"/><path d="M34.281 27.484q-10.89 0-15.093-2.484-4.204-2.484-4.204-8.5 0-4.781 3.157-7.594 3.156-2.797 8.562-2.797 7.485 0 12 5.297 4.516 5.297 4.516 14.078v2zm17.922 3.72V0H43.22v8.297Q40.14 3.328 35.547.953q-4.594-2.375-11.234-2.375-8.391 0-13.36 4.719Q6 8.016 6 15.922q0 9.219 6.172 13.906 6.187 4.688 18.437 4.688h12.61v.89q0 6.203-4.078 9.594-4.078 3.39-11.453 3.39-4.688 0-9.141-1.124-4.438-1.125-8.531-3.375v8.312q4.921 1.906 9.562 2.844 4.64.953 9.031.953 11.875 0 17.735-6.156 5.86-6.14 5.86-18.64z" id="DejaVuSans-97"/><path d="M54.89 33.016V0h-8.984v32.719q0 7.765-3.031 11.61-3.031 3.858-9.078 3.858-7.281 0-11.484-4.64-4.204-4.625-4.204-12.64V0H9.08v54.688h9.03v-8.5q3.235 4.937 7.594 7.374Q30.078 56 35.797 56q9.422 0 14.25-5.828 4.844-5.828 4.844-17.156z" id="DejaVuSans-110"/></defs><use xlink:href="#DejaVuSans-74"/><use x="29.492" xlink:href="#DejaVuSans-97"/><use x="90.771" xlink:href="#DejaVuSans-110"/></g></g><g id="xtick_2"><g style="fill:#696969" transform="matrix(.16 0 0 -.16 200.184 598.378)" id="text_2"><defs><path d="M34.188 63.188 20.797 26.906h26.812zm-5.579 9.718h11.188L67.578 0h-10.25l-6.64 18.703h-32.86L11.188 0H.78z" id="DejaVuSans-65"/><path d="M18.11 8.203v-29H9.077v75.484h9.031v-8.296q2.844 4.875 7.157 7.234Q29.594 56 35.594 56q9.968 0 16.187-7.906 6.235-7.907 6.235-20.797T51.78 6.484q-6.218-7.906-16.187-7.906-6 0-10.328 2.375-4.313 2.375-7.157 7.25zm30.578 19.094q0 9.906-4.079 15.547-4.078 5.64-11.203 5.64-7.14 0-11.218-5.64-4.079-5.64-4.079-15.547 0-9.906 4.078-15.547 4.079-5.64 11.22-5.64 7.124 0 11.202 5.64t4.078 15.547z" id="DejaVuSans-112"/><path d="M41.11 46.297q-1.516.875-3.297 1.281Q36.03 48 33.89 48q-7.625 0-11.703-4.953-4.079-4.953-4.079-14.234V0H9.08v54.688h9.03v-8.5q2.844 4.984 7.375 7.39Q30.031 56 36.531 56q.922 0 2.047-.125 1.125-.11 2.484-.36z" id="DejaVuSans-114"/></defs><use xlink:href="#DejaVuSans-65"/><use x="68.408" xlink:href="#DejaVuSans-112"/><use x="131.885" xlink:href="#DejaVuSans-114"/></g></g><g id="xtick_3"><g style="fill:#696969" transform="matrix(.16 0 0 -.16 286.465 598.378)" id="text_3"><defs><path d="M8.5 21.578v33.11h8.984V21.922q0-7.766 3.016-11.656 3.031-3.875 9.094-3.875 7.265 0 11.484 4.64 4.234 4.64 4.234 12.656v31h8.985V0h-8.984v8.406Q42.047 3.422 37.718 1q-4.313-2.422-10.032-2.422-9.421 0-14.312 5.86Q8.5 10.296 8.5 21.578zM31.11 56z" id="DejaVuSans-117"/><path d="M9.422 75.984h8.984V0H9.422z" id="DejaVuSans-108"/></defs><use xlink:href="#DejaVuSans-74"/><use x="29.492" xlink:href="#DejaVuSans-117"/><use x="92.871" xlink:href="#DejaVuSans-108"/></g></g><g id="xtick_4"><g style="fill:#696969" transform="matrix(.16 0 0 -.16 365.28 598.378)" id="text_4"><defs><path d="M39.406 66.219q-10.75 0-17.078-8.016-6.312-8-6.312-21.828 0-13.766 6.312-21.781 6.328-8 17.078-8 10.735 0 17.016 8 6.281 8.015 6.281 21.781 0 13.828-6.281 21.828-6.281 8.016-17.016 8.016zm0 8q15.328 0 24.5-10.281 9.188-10.282 9.188-27.563 0-17.234-9.188-27.516-9.172-10.28-24.5-10.28-15.375 0-24.593 10.25-9.204 10.265-9.204 27.546t9.204 27.563q9.218 10.28 24.593 10.28z" id="DejaVuSans-79"/><path d="M48.781 52.594v-8.407q-3.812 2.11-7.64 3.157-3.828 1.047-7.735 1.047-8.75 0-13.593-5.547-4.829-5.532-4.829-15.547 0-10.016 4.829-15.563 4.843-5.53 13.593-5.53 3.907 0 7.735 1.046 3.828 1.047 7.64 3.156V2.094Q45.016.344 40.984-.531q-4.015-.89-8.562-.89-12.36 0-19.64 7.765-7.266 7.765-7.266 20.953 0 13.375 7.343 21.031Q20.22 56 33.016 56q4.14 0 8.093-.86 3.953-.843 7.672-2.546z" id="DejaVuSans-99"/><path d="M18.313 70.219V54.688h18.5v-6.985h-18.5V18.016q0-6.688 1.828-8.594 1.828-1.906 7.453-1.906h9.218V0h-9.218q-10.407 0-14.36 3.875-3.953 3.89-3.953 14.14v29.688H2.687v6.984h6.594V70.22z" id="DejaVuSans-116"/></defs><use xlink:href="#DejaVuSans-79"/><use x="78.711" xlink:href="#DejaVuSans-99"/><use x="133.691" xlink:href="#DejaVuSans-116"/></g></g><g id="xtick_5"><g style="fill:#696969" transform="matrix(.16 0 0 -.16 449.776 598.378)" id="text_5"><use xlink:href="#DejaVuSans-74"/><use x="29.492" xlink:href="#DejaVuSans-97"/><use x="90.771" xlink:href="#DejaVuSans-110"/></g></g><g id="xtick_6"><g style="fill:#696969" transform="matrix(.16 0 0 -.16 529.46 598.378)" id="text_6"><use xlink:href="#DejaVuSans-65"/><use x="68.408" xlink:href="#DejaVuSans-112"/><use x="131.885" xlink:href="#DejaVuSans-114"/></g></g><g id="xtick_7"><g style="fill:#696969" transform="matrix(.16 0 0 -.16 615.74 598.378)" id="text_7"><use xlink:href="#DejaVuSans-74"/><use x="29.492" xlink:href="#DejaVuSans-117"/><use x="92.871" xlink:href="#DejaVuSans-108"/></g></g><g id="xtick_8"><g style="fill:#696969" transform="matrix(.16 0 0 -.16 694.557 598.378)" id="text_8"><use xlink:href="#DejaVuSans-79"/><use x="78.711" xlink:href="#DejaVuSans-99"/><use x="133.691" xlink:href="#DejaVuSans-116"/></g></g><g id="xtick_9"><g style="fill:#696969" transform="matrix(.16 0 0 -.16 779.052 598.378)" id="text_9"><use xlink:href="#DejaVuSans-74"/><use x="29.492" xlink:href="#DejaVuSans-97"/><use x="90.771" xlink:href="#DejaVuSans-110"/></g></g></g><g id="matplotlib.axis_2"><g id="ytick_1"><g style="fill:#696969" transform="matrix(.16 0 0 -.16 97.32 556.565)" id="text_10"><defs><path d="M31.781 66.406q-7.61 0-11.453-7.5Q16.5 51.422 16.5 36.375q0-14.984 3.828-22.484 3.844-7.5 11.453-7.5 7.672 0 11.5 7.5 3.844 7.5 3.844 22.484 0 15.047-3.844 22.531-3.828 7.5-11.5 7.5zm0 7.813q12.266 0 18.735-9.703 6.468-9.688 6.468-28.141 0-18.406-6.468-28.11-6.47-9.687-18.735-9.687-12.25 0-18.718 9.688-6.47 9.703-6.47 28.109 0 18.453 6.47 28.14Q19.53 74.22 31.78 74.22z" id="DejaVuSans-48"/></defs><use xlink:href="#DejaVuSans-48"/></g></g><g id="ytick_2"><g style="fill:#696969" transform="matrix(.16 0 0 -.16 87.14 495.748)" id="text_11"><defs><path d="M12.406 8.297h16.11v55.625l-17.532-3.516v8.985l17.438 3.515h9.86V8.296H54.39V0H12.406z" id="DejaVuSans-49"/></defs><use xlink:href="#DejaVuSans-49"/><use x="63.623" xlink:href="#DejaVuSans-48"/></g></g><g id="ytick_3"><g style="fill:#696969" transform="matrix(.16 0 0 -.16 87.14 434.93)" id="text_12"><defs><path d="M19.188 8.297h34.421V0H7.33v8.297q5.609 5.812 15.296 15.594 9.703 9.797 12.188 12.64 4.734 5.313 6.609 9 1.89 3.688 1.89 7.25 0 5.813-4.078 9.469-4.078 3.672-10.625 3.672-4.64 0-9.797-1.61-5.14-1.609-11-4.89v9.969Q13.767 71.78 18.938 73q5.188 1.219 9.485 1.219 11.328 0 18.062-5.672 6.735-5.656 6.735-15.125 0-4.5-1.688-8.531-1.672-4.016-6.125-9.485-1.218-1.422-7.765-8.187-6.532-6.766-18.453-18.922z" id="DejaVuSans-50"/></defs><use xlink:href="#DejaVuSans-50"/><use x="63.623" xlink:href="#DejaVuSans-48"/></g></g><g id="ytick_4"><g style="fill:#696969" transform="matrix(.16 0 0 -.16 87.14 374.114)" id="text_13"><defs><path d="M40.578 39.313Q47.656 37.797 51.625 33q3.984-4.781 3.984-11.813 0-10.78-7.422-16.703-7.421-5.906-21.093-5.906-4.578 0-9.438.906-4.86.907-10.031 2.72v9.515q4.094-2.39 8.969-3.61 4.89-1.218 10.218-1.218 9.266 0 14.125 3.656 4.86 3.656 4.86 10.64 0 6.454-4.516 10.079-4.515 3.64-12.562 3.64h-8.5v8.11h8.89q7.266 0 11.125 2.906 3.86 2.906 3.86 8.375 0 5.61-3.985 8.61-3.968 3.015-11.39 3.015-4.063 0-8.703-.89-4.641-.876-10.203-2.72v8.782q5.624 1.562 10.53 2.344 4.907.78 9.25.78 11.235 0 17.766-5.109 6.547-5.093 6.547-13.78 0-6.063-3.468-10.235-3.47-4.172-9.86-5.782z" id="DejaVuSans-51"/></defs><use xlink:href="#DejaVuSans-51"/><use x="63.623" xlink:href="#DejaVuSans-48"/></g></g><g id="ytick_5"><g style="fill:#696969" transform="matrix(.16 0 0 -.16 87.14 313.297)" id="text_14"><defs><path d="M37.797 64.313 12.89 25.39h24.906zm-2.594 8.593H47.61V25.391h10.407v-8.203H47.609V0h-9.812v17.188H4.89v9.515z" id="DejaVuSans-52"/></defs><use xlink:href="#DejaVuSans-52"/><use x="63.623" xlink:href="#DejaVuSans-48"/></g></g><g id="ytick_6"><g style="fill:#696969" transform="matrix(.16 0 0 -.16 87.14 252.48)" id="text_15"><defs><path d="M10.797 72.906h38.719v-8.312H19.828v-17.86q2.14.735 4.281 1.094 2.157.36 4.313.36 12.203 0 19.328-6.688 7.14-6.688 7.14-18.11 0-11.765-7.328-18.296-7.328-6.516-20.656-6.516-4.593 0-9.36.781-4.75.782-9.827 2.344v9.922q4.39-2.39 9.078-3.563 4.687-1.171 9.906-1.171 8.453 0 13.375 4.437 4.938 4.438 4.938 12.063 0 7.609-4.938 12.047-4.922 4.453-13.375 4.453-3.953 0-7.89-.875-3.922-.875-8.016-2.735z" id="DejaVuSans-53"/></defs><use xlink:href="#DejaVuSans-53"/><use x="63.623" xlink:href="#DejaVuSans-48"/></g></g><g id="ytick_7"><g style="fill:#696969" transform="matrix(.16 0 0 -.16 87.14 191.663)" id="text_16"><defs><path d="M33.016 40.375q-6.641 0-10.532-4.547-3.875-4.531-3.875-12.437 0-7.86 3.875-12.438 3.891-4.562 10.532-4.562 6.64 0 10.515 4.562 3.875 4.578 3.875 12.438 0 7.906-3.875 12.437-3.875 4.547-10.515 4.547zm19.578 30.922v-8.984q-3.719 1.75-7.5 2.671-3.782.938-7.5.938-9.766 0-14.922-6.594-5.14-6.594-5.875-19.922 2.875 4.25 7.219 6.516 4.359 2.266 9.578 2.266 10.984 0 17.36-6.672 6.374-6.657 6.374-18.125 0-11.235-6.64-18.032-6.641-6.78-17.672-6.78-12.657 0-19.344 9.687-6.688 9.703-6.688 28.109 0 17.281 8.204 27.563 8.203 10.28 22.015 10.28 3.719 0 7.5-.734t7.89-2.187z" id="DejaVuSans-54"/></defs><use xlink:href="#DejaVuSans-54"/><use x="63.623" xlink:href="#DejaVuSans-48"/></g></g><g id="ytick_8"><g style="fill:#696969" transform="matrix(.16 0 0 -.16 87.14 130.846)" id="text_17"><defs><path d="M8.203 72.906h46.875v-4.203L28.61 0H18.312L43.22 64.594H8.203z" id="DejaVuSans-55"/></defs><use xlink:href="#DejaVuSans-55"/><use x="63.623" xlink:href="#DejaVuSans-48"/></g></g><g style="fill:#696969" transform="matrix(0 -.2 -.2 0 78.98 379.813)" id="text_18"><defs><path d="M51.125 44H36.922l-4.11-16.313h14.313zm-7.328 27.781-5.078-20.265h14.265L58.11 71.78h7.813L60.89 51.516h15.234V44h-17.14l-4-16.313h15.53V20.22H53.079L48 0h-7.813l5.032 20.219H30.906L25.875 0h-7.86l5.079 20.219H7.719v7.468h17.187L29 44H13.281v7.516h17.625l4.985 20.265z" id="DejaVuSans-35"/><path d="M30.61 48.39q-7.22 0-11.422-5.64-4.204-5.64-4.204-15.453 0-9.813 4.172-15.453 4.188-5.64 11.453-5.64 7.188 0 11.375 5.655 4.203 5.672 4.203 15.438 0 9.719-4.203 15.406-4.187 5.688-11.375 5.688zm0 7.61q11.718 0 18.406-7.625 6.703-7.61 6.703-21.078 0-13.422-6.703-21.078-6.688-7.64-18.407-7.64-11.765 0-18.437 7.64-6.656 7.656-6.656 21.078 0 13.469 6.656 21.078Q18.844 56 30.609 56z" id="DejaVuSans-111"/><path d="M37.11 75.984V68.5h-8.594q-4.828 0-6.72-1.953-1.874-1.953-1.874-7.031v-4.828h14.797v-6.985H19.922V0H10.89v47.703H2.297v6.984h8.594V58.5q0 9.125 4.25 13.297 4.25 4.187 13.468 4.187z" id="DejaVuSans-102"/><path d="M44.281 53.078v-8.5q-3.797 1.953-7.906 2.922-4.094.984-8.5.984-6.688 0-10.031-2.047-3.344-2.046-3.344-6.156 0-3.125 2.39-4.906 2.391-1.781 9.626-3.39l3.078-.688q9.562-2.047 13.593-5.781 4.032-3.735 4.032-10.422 0-7.625-6.032-12.078-6.03-4.438-16.578-4.438-4.39 0-9.156.86Q10.688.296 5.422 2v9.281q4.984-2.594 9.812-3.89 4.829-1.282 9.579-1.282 6.343 0 9.75 2.172 3.421 2.172 3.421 6.125 0 3.656-2.468 5.61-2.453 1.953-10.813 3.765l-3.125.735q-8.344 1.75-12.062 5.39-3.704 3.64-3.704 9.985 0 7.718 5.47 11.906Q16.75 56 26.811 56q4.97 0 9.36-.734 4.406-.72 8.11-2.188z" id="DejaVuSans-115"/><path d="M56.203 29.594v-4.39H14.891q.593-9.282 5.593-14.142 5-4.859 13.938-4.859 5.172 0 10.031 1.266 4.86 1.265 9.656 3.812v-8.5Q49.266.734 44.187-.344 39.11-1.422 33.892-1.422q-13.094 0-20.735 7.61-7.64 7.625-7.64 20.625 0 13.421 7.25 21.296Q20.016 56 32.328 56q11.031 0 17.453-7.11 6.422-7.093 6.422-19.296zm-8.984 2.64q-.094 7.36-4.125 11.75-4.032 4.407-10.672 4.407-7.516 0-12.031-4.25-4.516-4.25-5.203-11.97z" id="DejaVuSans-101"/></defs><use xlink:href="#DejaVuSans-35"/><use x="83.789" xlink:href="#DejaVuSans-32"/><use x="115.576" xlink:href="#DejaVuSans-111"/><use x="176.758" xlink:href="#DejaVuSans-102"/><use x="211.963" xlink:href="#DejaVuSans-32"/><use x="243.75" xlink:href="#DejaVuSans-99"/><use x="298.73" xlink:href="#DejaVuSans-97"/><use x="360.01" xlink:href="#DejaVuSans-115"/><use x="412.109" xlink:href="#DejaVuSans-101"/><use x="473.633" xlink:href="#DejaVuSans-115"/></g></g><g style="fill:#696969" transform="matrix(.24 0 0 -.24 308.75 71.76)" id="text_19"><defs><path d="M44.39 34.188q3.172-1.079 6.172-4.594 3-3.516 6.032-9.672L66.609 0H56l-9.313 18.703q-3.624 7.328-7.015 9.719-3.39 2.39-9.25 2.39h-10.75V0h-9.86v72.906h22.266q12.5 0 18.656-5.234 6.157-5.219 6.157-15.766 0-6.89-3.203-11.437-3.204-4.532-9.297-6.282zM19.673 64.797V38.922h12.406q7.125 0 10.766 3.297 3.64 3.297 3.64 9.687 0 6.39-3.64 9.64-3.64 3.25-10.766 3.25z" id="DejaVuSans-82"/><path d="M54.89 33.016V0h-8.984v32.719q0 7.765-3.031 11.61-3.031 3.858-9.078 3.858-7.281 0-11.484-4.64-4.204-4.625-4.204-12.64V0H9.08v75.984h9.03V46.188q3.235 4.937 7.594 7.374Q30.078 56 35.797 56q9.422 0 14.25-5.828 4.844-5.828 4.844-17.156z" id="DejaVuSans-104"/><path d="M45.406 46.39v29.594h8.985V0h-8.985v8.203Q42.578 3.328 38.25.953q-4.313-2.375-10.375-2.375-9.906 0-16.14 7.906-6.22 7.922-6.22 20.813 0 12.89 6.22 20.797Q17.968 56 27.874 56q6.063 0 10.375-2.375 4.328-2.36 7.156-7.234zm-30.61-19.093q0-9.906 4.079-15.547 4.078-5.64 11.203-5.64 7.125 0 11.219 5.64 4.11 5.64 4.11 15.547 0 9.906-4.11 15.547-4.094 5.64-11.219 5.64-7.125 0-11.203-5.64-4.078-5.64-4.078-15.547z" id="DejaVuSans-100"/><path d="M9.813 72.906h13.28l32.329-60.984v60.984h9.562V0h-13.28L19.39 60.984V0H9.813z" id="DejaVuSans-78"/><path d="M4.203 54.688h8.985l11.234-42.672 11.172 42.672h10.593l11.235-42.672 11.187 42.672h8.985L63.28 0H52.688L40.922 44.828 29.109 0H18.5z" id="DejaVuSans-119"/><path d="M64.406 67.281v-10.39q-4.984 4.64-10.625 6.922-5.64 2.296-11.984 2.296-12.5 0-19.14-7.64-6.641-7.64-6.641-22.094 0-14.406 6.64-22.047 6.64-7.64 19.14-7.64 6.345 0 11.985 2.296 5.64 2.297 10.625 6.938V5.609Q59.234 2.094 53.437.33q-5.78-1.75-12.218-1.75-16.563 0-26.094 10.124-9.516 10.14-9.516 27.672 0 17.578 9.516 27.703 9.531 10.14 26.094 10.14 6.531 0 12.312-1.734 5.797-1.734 10.875-5.203z" id="DejaVuSans-67"/><path d="M2.984 54.688H12.5L29.594 8.797l17.093 45.89h9.516L35.687 0H23.485z" id="DejaVuSans-118"/><path d="M9.422 54.688h8.984V0H9.422zm0 21.296h8.984v-11.39H9.422z" id="DejaVuSans-105"/></defs><use xlink:href="#DejaVuSans-82"/><use x="64.982" xlink:href="#DejaVuSans-117"/><use x="128.361" xlink:href="#DejaVuSans-116"/><use x="167.57" xlink:href="#DejaVuSans-104"/><use x="230.949" xlink:href="#DejaVuSans-101"/><use x="292.473" xlink:href="#DejaVuSans-114"/><use x="333.586" xlink:href="#DejaVuSans-102"/><use x="368.791" xlink:href="#DejaVuSans-111"/><use x="429.973" xlink:href="#DejaVuSans-114"/><use x="469.336" xlink:href="#DejaVuSans-100"/><use x="532.813" xlink:href="#DejaVuSans-32"/><use x="564.6" xlink:href="#DejaVuSans-78"/><use x="639.404" xlink:href="#DejaVuSans-101"/><use x="700.928" xlink:href="#DejaVuSans-119"/><use x="782.715" xlink:href="#DejaVuSans-32"/><use x="814.502" xlink:href="#DejaVuSans-67"/><use x="884.326" xlink:href="#DejaVuSans-111"/><use x="945.508" xlink:href="#DejaVuSans-118"/><use x="1004.688" xlink:href="#DejaVuSans-105"/><use x="1032.471" xlink:href="#DejaVuSans-100"/><use x="1095.947" xlink:href="#DejaVuSans-32"/><use x="1127.734" xlink:href="#DejaVuSans-67"/><use x="1197.559" xlink:href="#DejaVuSans-97"/><use x="1258.838" xlink:href="#DejaVuSans-115"/><use x="1310.938" xlink:href="#DejaVuSans-101"/><use x="1372.461" xlink:href="#DejaVuSans-115"/></g><g id="legend_1"><path d="M128.2 161.015h144.675q3.2 0 3.2-3.2V88.96q0-3.2-3.2-3.2H128.2q-3.2 0-3.2 3.2v68.855q0 3.2 3.2 3.2z" style="fill:none;opacity:.8;stroke:#ccc;stroke-linejoin:miter" id="patch_5"/><path d="M131.4 98.718h32" style="fill:none;stroke:#000;stroke-linecap:round;stroke-width:1.5" id="line2d_4"/><g style="fill:#696969" transform="matrix(.16 0 0 -.16 176.2 104.317)" id="text_20"><defs><path d="M45.406 27.984q0 9.766-4.031 15.125-4.016 5.375-11.297 5.375-7.219 0-11.25-5.375-4.031-5.359-4.031-15.125 0-9.718 4.031-15.093t11.25-5.375q7.281 0 11.297 5.375 4.031 5.375 4.031 15.093zm8.985-21.203q0-13.953-6.203-20.765Q42-20.797 29.203-20.797q-4.734 0-8.937.703-4.203.703-8.157 2.172v8.735q3.954-2.141 7.813-3.157 3.86-1.031 7.86-1.031 8.843 0 13.234 4.61 4.39 4.609 4.39 13.937v4.453q-2.781-4.844-7.125-7.234Q33.938 0 27.875 0 17.828 0 11.672 7.656q-6.156 7.672-6.156 20.328 0 12.688 6.156 20.344Q17.828 56 27.875 56q6.063 0 10.406-2.39 4.344-2.391 7.125-7.22v8.297h8.985z" id="DejaVuSans-103"/></defs><use xlink:href="#DejaVuSans-49"/><use x="63.623" xlink:href="#DejaVuSans-52"/><use x="127.246" xlink:href="#DejaVuSans-100"/><use x="190.723" xlink:href="#DejaVuSans-32"/><use x="222.51" xlink:href="#DejaVuSans-97"/><use x="283.789" xlink:href="#DejaVuSans-118"/><use x="342.969" xlink:href="#DejaVuSans-103"/></g><path d="M131.4 127.802h32v-11.2h-32z" style="fill:#089fff;opacity:.2;stroke:#fff;stroke-linejoin:miter" id="patch_6"/><g style="fill:#696969" transform="matrix(.16 0 0 -.16 176.2 127.802)" id="text_21"><defs><path d="M8.688 72.906h9.921V28.61q0-11.718 4.235-16.875 4.25-5.14 13.781-5.14 9.469 0 13.719 5.14 4.25 5.157 4.25 16.875v44.297H64.5V27.391q0-14.25-7.063-21.532-7.046-7.28-20.812-7.28-13.828 0-20.89 7.28-7.047 7.282-7.047 21.532z" id="DejaVuSans-85"/><path d="M32.172-5.078q-3.797-9.766-7.422-12.735-3.61-2.984-9.656-2.984H7.906v7.516h5.282q3.703 0 5.75 1.765Q21-9.766 23.483-3.219l1.61 4.094-22.11 53.813H12.5l17.094-42.766 17.093 42.766h9.516z" id="DejaVuSans-121"/></defs><use xlink:href="#DejaVuSans-85"/><use x="73.193" xlink:href="#DejaVuSans-110"/><use x="136.572" xlink:href="#DejaVuSans-99"/><use x="191.553" xlink:href="#DejaVuSans-101"/><use x="253.076" xlink:href="#DejaVuSans-114"/><use x="294.189" xlink:href="#DejaVuSans-116"/><use x="333.398" xlink:href="#DejaVuSans-97"/><use x="394.678" xlink:href="#DejaVuSans-105"/><use x="422.461" xlink:href="#DejaVuSans-110"/><use x="485.84" xlink:href="#DejaVuSans-116"/><use x="525.049" xlink:href="#DejaVuSans-121"/></g><path d="M147.4 151.287v-7.7" style="fill:none;stroke:#000;stroke-dasharray:2.25,3.7125;stroke-dashoffset:0;stroke-width:1.5" id="line2d_6"/><g style="fill:#696969" transform="matrix(.16 0 0 -.16 176.2 151.287)" id="text_22"><defs><path d="M19.672 64.797V8.109h11.922q15.093 0 22.093 6.829 7 6.843 7 21.593 0 14.64-7 21.453-7 6.813-22.093 6.813zm-9.86 8.11h20.266q21.188 0 31.094-8.813 9.922-8.813 9.922-27.563 0-18.86-9.969-27.703Q51.172 0 30.078 0H9.813z" id="DejaVuSans-68"/></defs><use xlink:href="#DejaVuSans-68"/><use x="77.002" xlink:href="#DejaVuSans-97"/><use x="138.281" xlink:href="#DejaVuSans-105"/><use x="166.064" xlink:href="#DejaVuSans-108"/><use x="193.848" xlink:href="#DejaVuSans-121"/><use x="253.027" xlink:href="#DejaVuSans-32"/><use x="284.814" xlink:href="#DejaVuSans-67"/><use x="354.639" xlink:href="#DejaVuSans-97"/><use x="415.918" xlink:href="#DejaVuSans-115"/><use x="468.018" xlink:href="#DejaVuSans-101"/><use x="529.541" xlink:href="#DejaVuSans-115"/></g></g></g></g><defs><clipPath id="p55cc04544d"><path d="M117 77.76h725.4v498.96H117z"/></clipPath></defs></svg>