<svg height="864" viewBox="0 0 936 648" width="1248" xmlns="http://www.w3.org/2000/svg" xmlns:xlink="http://www.w3.org/1999/xlink"><defs><style>*{stroke-linecap:butt;stroke-linejoin:round}</style></defs><g id="figure_1"><path d="M0 648h936V0H0z" style="fill:#fff" id="patch_1"/><g id="axes_1"><path d="M117 576.72h725.4V77.76H117z" style="fill:none" id="patch_2"/><path clip-path="url(#p89e4c62d67)" d="m149.973 554.04 56.223-.087 5.857-.247 3.514-.327 1.171-.297 1.171-.493 2.343-1.474 1.171-1.061 2.343-2.51 3.514-4.985 1.171-1.968 2.343-2.841 1.171-1.904 2.343-3.383 2.343-3.925 1.17-.96 1.172-1.277 2.343-1.45 1.171-.674 1.172-.156 1.17.457 1.172-.207 1.171.696 1.172.493 1.171.242 1.171.417 1.172.266 1.171.45 1.171.244 1.172-.22 2.342.322 1.172-.293 2.342-1.52 1.172-.19 1.171.568 1.171.117 1.172.308 3.514 1.504 2.342.248 1.172.127 2.342.531 1.172.855 1.17.623 1.172.788 1.172.587 1.17.19 1.172.455 4.685.736 1.172-.57 1.171.18 1.171-.26 1.172.166 1.171.33 1.171.187 1.172-.137 2.342.65 1.172.585 1.171.436 3.514-.336 1.171-.378 2.343-.424 1.171.12 1.172-.562 1.17.12 1.172.272 1.172.5 1.17.268 1.172-.388 1.172-.214 1.17.435 1.172-.381 1.171-.07 1.172-.258 1.171-.822 1.171-.38 2.343-1.38 2.343-1.884 3.514-4.31 1.171-1.773 1.171-1.987 1.172-1.39 1.171-1.775 1.171-1.221 4.686-7.077 1.17-1.043 1.172-.71 1.172-1.059 1.17-.77 1.172-1.282 1.172-.586 2.342-2.946 3.514-5.249 1.171-1.202 1.172-2.136 1.171-.365 1.171-.234 1.172-.605 1.171.228 1.171.043 1.172-.188 1.171.768 1.171-.352 1.172-.585 1.171 1.09 1.171.095 3.514.836 1.172.6 1.171 1.345 1.171.463 1.172 1.582 1.17 1.294 1.172 1.766 1.172 1.547 1.17 1.072 3.515.57 2.343-.049 1.17.467 1.172.227 1.171.608 1.172.858 2.342 2.675 1.172 1.523 1.171 1.087 1.171 1.413 1.172.773 1.171 1.326 1.171-.39 1.172.548 1.171-.312 1.171.056 1.172.334 1.171.056 1.171-.148 1.172.53 1.171-.658 1.171 1.74 1.172-.105 1.17-.75 1.172.32 1.172.464 1.17 1.53 1.172 2.044 1.172-.12 1.17 1.127 1.172.613 1.172.426 1.17-.452 1.172-1.585 1.171-1.39 1.172-.803 1.171-.98 1.171-.179 2.343-.773 1.171-2.444 1.172.247 1.171-.308 1.171.014 1.172-.77 2.342-.247 1.172 2.38 1.171-.853 3.514-.098 1.171-.688 1.172.303 1.17-3.389 1.172.113 2.343-2.83 1.171-.727 1.172-.524 1.17-1.314 1.172 1.947 1.172-1.56 1.17-.924 1.172-1.214 1.171-1.555 1.172-.15 1.171-.42 1.171-2.356 1.172-.84 1.171-.592 1.171-1.322 1.172-2.006 1.171-3.492 1.171-1.6 1.172-1.245 1.171-1.865 1.171-2.386 2.343-4.073 1.171-.76 1.172-1.96 2.342-5.057 1.172-3.543 2.342-8.606 1.172-5.643 1.17-3.952 1.172-4.929 1.172-6.402 1.17-4.706 1.172-5.721 1.171-6.583 3.514-13.659 1.172-2.96 1.171-3.976 1.171-3.226 1.172-2.349 1.171-1.744 1.171-.759 1.172-1.766 1.171-2.195 1.171-1.124 1.172 11.43 1.171-.943 1.171 2.776 1.172.631 1.171 1.619 1.171-.862 1.172-2.783 1.17-15.52 1.172-3.452 1.172-7.344 3.514-14.627 1.17-2.508 1.172-1.012 1.172-6.647 1.17-.247 1.172-1.663 1.171.492 1.172 2.24 1.171-3.396 1.171-1.689 1.172 3.966 1.171 1.843 1.171.583 1.172-.086 1.171.205 1.171 2.308 1.172 5.978 1.171 20.322 1.171-3.105 1.172 3.763 1.171 1.691 1.171.083 1.172-.16 1.171-5.074 1.171-6.265 1.172-10.11 1.17-6.72 1.172-8.496 1.172-4.596 1.17-3.654 1.172-6.67 1.172-20.764 1.17 5.368 1.172-.88 1.172 3.45 1.17.681 1.172 3.604 1.171 5.52 1.172 8.239 1.171 6.725 1.171 5.167 1.172 11.52 2.342 11.75 2.343 13.163 1.171 4.636 1.172 5.466 1.171-2.089 1.171 4.91 1.172 4.02 1.171 3.287 1.171 3.645 1.172 4.614 2.342 4.14 2.343 9.598 1.171 5.482 1.172 4.75 2.342 7.488 1.172 6.61 1.17 2.551 1.172 3.41 1.172 2.704 1.17 4.04 1.172 2.745 1.171 3.178 1.172 5.1 1.171 4.308 1.171 3.356 1.172 4.578 1.171 2.923 1.171 2.02 1.172 1.163 1.171-.567 1.171-.997 1.172-.546 1.171-.823 1.171-.042 1.172.953 1.171.578 1.171.375 1.172 1.93 1.171 1.025 1.171 1.434 1.172 1.707 1.17.823 1.172 1.467 1.172-5.115 1.17.236 1.172 1.138 1.172.662 1.17.207 1.172.95 1.172.281 1.17 5.052 1.172.185 1.171-.1 1.172.26 1.171.479 1.171-.659 1.172.514 1.171.33 1.171-.299 1.172-2.836 1.171-1.17 1.171-1.876 1.172-.849 1.171-1.396 1.171-2.167 1.172-.742 1.171 1.618 1.171-1.092 1.172.8 1.171-.466 1.171 1.04 1.172-.791 1.17.035 1.172-.697 1.172-.441 1.17-1.758 1.172-.084 1.172-1.508 1.17.63 1.172-2.076 1.172-.36 1.17.915 1.172.437 1.171 1.472 1.172.89 1.171.226 1.171 2.204 1.172 1.793 1.171 1.008 1.171 1.97 1.172.46 1.171 1.057 1.171 3.1 1.172 1.237 2.342 2.21 3.514 2.02 1.172-.353 2.342 2.843 2.343 2.828 1.171 1.5 1.172.988 1.17 1.81 1.172.936 2.343 2.5 1.171.882 1.172.624 1.17.76 1.172.994 2.343 1.74 1.171 1.193 2.343 3.07 1.171.347 1.171.484 2.343 1.41 1.171.254 3.514 2.766 1.172 2.722 1.171.036 1.171.883 1.172 1.12 1.171 6.224 2.343.324 1.17-1.886 1.172 1.134 1.172-.515 1.17.497 1.172-5.522 1.172.294 1.17-.086 1.172.586 1.172.313 1.17.845 2.343 1.047 1.172.095 1.171.368 2.343-.218 1.171.051 2.343-.645 2.342.103 1.172.04 1.171-.401 1.171-.263 1.172-6.798 1.171-.74 1.171.378 1.172.157 1.171 1.482 1.171-1.534 1.172-1.926 1.17 2.127 1.172-2.016 1.172-.509 1.17-.354 1.172-4.165 1.172-1.924 1.17-1.063 1.172 1.788 1.172-2.285 1.17-.633 1.172-.472 1.171-3.218 2.343-5.764 2.343-8.137 1.171-1.237 1.171-.65 1.172-4.585 1.171-6.034 1.171-3.404 1.172-4.412 1.171-5.358 1.171-1.096 1.172-1.258 2.342-11.714 2.343-7.634 1.171-5.994h0" style="fill:none;stroke:#000;stroke-linecap:round;stroke-width:1.5" id="line2d_1"/><path clip-path="url(#p89e4c62d67)" d="m149.973 554.04 58.566-.11 2.342-.12 2.343-.23 2.343-.804 1.171-.755 1.171-1.51 1.172-.699 1.171-2.074 1.171-2.773 1.172-4.258 1.171-3.694 1.171-2.838 1.172-10.825 3.514-26.642 1.171-11.594 1.171-6.142 1.172-14.153 1.17-4.303 1.172-11.774 1.172-9.645 1.17-5.592 1.172-1.674 1.172-6.327 1.17 2.688 1.172-1.274 1.172 3.718 1.17 3.329 1.172-1.59 1.171 4.253 1.172-4.567 1.171 4.072 1.171-3.483 1.172 2.054 1.171 3.049 1.171-.91 1.172-3.853 1.171 3.293 1.171-6.356 1.172.814 1.171 4.713 1.171-1.87 1.172 1.83 1.171 6.771 1.171 4.563 1.172 5.348 1.171 8.675 1.171-1.654 1.172 3.998 1.17 2.439 1.172 3.123 1.172 1.72 1.17 5.552 1.172 3.213 1.172 3.593 1.17 4.478 1.172 7.896 1.172.56 1.17 7.626 1.172 2.399 2.343 6.092 1.171 2.234 1.171 1.01 1.172-1.46 1.171-.88 1.171-2.843 1.172.355 1.171-.23 1.171 3.993 1.172.974 1.171 3.833 1.171 1.51 1.172 2.608 1.171-.57 1.171 1.09 1.172-1.894 1.171 1.065 1.171 2.323 1.172.225 1.17 1.704 1.172 3.624 2.343 2.149 1.171 2.828 1.172.7 1.17 1.64 2.344-.176 1.17 2.289 1.172.58 1.171-.025 1.172.554 1.171-.12 1.171 1.365 1.172.33 1.171-.205 1.171.515 3.514-.395 1.172.594 1.171-8.765 1.171.005 1.172.245 1.171-.005 1.171.914 1.172-.38 1.171-.514 1.171 8.635h2.343l1.171-.3 1.172-.594 1.17.64 1.172.044 1.172.995 1.17.14 1.172-.2 1.172.15 1.17-.075 2.343-1.32 1.172.04 1.171 1.54 1.171.34 1.172 1.849 1.171.22 1.171.5 1.172.274 1.171-.095 1.171-2.039 1.172-1.25 1.171-2.678 1.171-1.344 1.172-.95 1.171-.454 1.171.19 1.172-1.16 1.171.72 2.343 1.844 1.17.635 1.172.454 1.172-.85 1.17 1.65 1.172.005 1.172-.115 1.17.03 1.172-.44 1.172-.57 1.17-1.409 1.172-1.05 1.171.45 1.172 1.655 1.171-.27 2.343 1.214 1.171 2.779 1.171 1.4 1.172-1.255 1.171-.675 1.171.435 1.172.145 1.171.415 1.171-1.035 1.172-.34 1.171.9 2.343-1.335 1.171-.14 3.514-1.169 1.171.12 1.172-.1 1.17.085 1.172.265 1.172-.105 2.342-.355 1.172-.62 2.342.06 1.171-.794 1.172-.305 1.171-.725 2.343-.125 1.171-.78 1.171-.29 1.172.05 1.171-.09 1.171.026 1.172-.305 1.171-1.444 1.171-1.225 1.172-.834 1.171-.15 1.171-1.5 1.172-.25 2.342-1.943 1.172.36 1.17.24 1.172-.865 1.172.994 1.17-3.418 1.172-.625 1.172.415 1.17-.625 1.172.21 1.172-1.794 1.17-2.149 1.172 1.634 1.171.275 1.172-.35 1.171-2.618 1.171-3.613h1.172l1.171-.455 1.171-.955 1.172-1.174 1.171-4.873 1.171.73 1.172-.12 2.342-6.492 1.172-1.939 1.171-4.652 1.171 2.728 1.172-3.068 2.342-1.645 1.172-3.863 1.17-2.059 1.172-.924 1.172-9.19 1.17-1.35 1.172-3.448 1.172-9.76 1.17-3.109 1.172-7.646 2.343-11.93 1.171-12.618 1.171-.804 1.172-1.245 1.171-4.942 1.171-3.449 1.172-1.144 1.171-1.58 1.171 2.85 1.172-6.807 1.171-1.245 1.171-.025 1.172-1.454 1.171-2.344 1.171 4.333 1.172.645 1.171 1.954 1.171-1.654 1.172-1.22 1.17-1.599 2.344-15.442 1.17-10.95 1.172-1.864 1.172-4.348 1.17-.8 1.172-1.634 1.172 10.06 1.17-4.577 1.172 9.375 1.171-6.172 1.172 7.546 1.171-6.187 1.171 4.323 1.172-1.23 1.171 10.24 1.171-5.102 1.172 8.131 1.171-3.183 1.171 4.458 1.172-2.244 1.171-5.817 1.171.96 1.172 14.267 1.171 2.134 1.171 4.728 1.172.454 1.171-1.959 1.171-2.204 1.172-7.556 1.17-6.746 1.172-241.62 1.172-13.03 1.17-5.666 1.172-11.91 1.172-7.596 2.342-19.37 1.172 228.662 1.17 8.385 1.172-10.125 1.171 1.934 1.172 3.279 1.171 7.056 1.171 2.55 1.172 7.415 1.171-.204 1.171 12.188 2.343 21.035 1.171-5.742 1.172-.68 1.171-1.45 1.171-.744 1.172 3.144 1.171 1.509 1.171-8.926 1.172 9.366 1.171 4.917 1.171 3.139 1.172 8.126 1.17 12.489 1.172 7.28 1.172 8.787 1.17 3.818 1.172-.22 1.172 4.767 1.17-2.134 1.172-10.29 1.172-1.833 1.17 2.478 1.172 3.763 1.171 10.815 1.172 5.577 1.171-.28 1.171 1.305 1.172 1.899 1.171 3.428 1.171 4.393 1.172.685 1.171-6.292 1.171 2.374 1.172 4.952 1.171-1.494 1.171-4.113 1.172-6.282 1.171-1.794 1.171-2.189 1.172-.655 1.171-2.863 1.171 1.909 1.172.854 1.17 2.064 1.172-.65 1.172 4.174 1.17-4.183 1.172-.42 1.172-3.104 1.17-2.588 1.172-.725 1.172-3.948 1.17-2.574 1.172 2.044 1.171-2.683 1.172-3.289 1.171-.88 1.171-5.207 1.172.36 1.171-1.644 1.171-5.427 1.172 1.079 1.171 2.639 1.171-6.032 1.172 1.214 1.171-6.332 1.171-2.349 1.172-.35 1.171 2.14 1.171-8.316 1.172 5.347 1.171 1.104 1.171 3.519 1.172 3.948 1.17 5.802 1.172-2.864 1.172 6.377 1.17 1.68 1.172 4.227 1.172 2.07 1.17 1.773 1.172-1.21 1.172 3.39 1.17 2.068 1.172-.94 1.171-1.614 1.172 1.19 1.171 1.464 1.171 5.572 1.172.44 1.171 3.438 1.171 7.732 1.172 5.692 1.171 7.271 1.171 55.912 1.172 3.574 1.171 6.816 2.343 9.81 1.171 5.967 1.171 2.48 1.172-49.916 1.171 5.597 1.171-2.089 2.343 8.601 2.343 8.986 1.17 4.152 1.172 2.214 1.172 10.21 1.17 4.923 1.172 3.218 1.172.02 1.17.35 1.172-.98 1.171-.42 1.172.21 1.171-.664 1.171-1.644 1.172 1.34 1.171-.16 2.343 2.508 1.171.245 1.171.834 1.172 1.93 1.171.614 1.171.275 1.172-.475 1.171 1.155 2.343 1.174 1.171-.135 1.171-.515 1.172.185 1.17-.055 1.172-.184 1.172.444 1.17-.305 1.172.095 1.172.545 1.17.01 1.172-.115 1.172-.27 1.17-.494 1.172.52 1.171.04 2.343.519 1.171.45 2.343.165 1.171-.17 1.172-.415 1.171-.145 3.514-.02 2.343.635 3.514.62 2.342.65 1.172-.44 1.17-.565 1.172-.44 1.172-.605 1.17-.854 1.172-.645 1.172-1.045 1.17-.41 2.344-1.054 1.17-1.19 1.172-.724 1.171-.485 1.172-1.474 2.342-3.168 1.172-2.074 1.171-1.56 1.171-.84 1.172-1.044 1.171-.68 1.171-1.244 1.172-1.654 1.171-1.05 2.343-3.263 1.171-1.784 1.171-2.594 1.172-1.409 1.17-1.944 1.172-1.134h0" style="fill:none;stroke:#009e73;stroke-linecap:round;stroke-width:1.5" id="line2d_2"/><path clip-path="url(#p89e4c62d67)" d="m149.973 554.04 51.538-.095 8.2-.429 1.17-.143 1.172-.666h1.171l1.171-1.334 1.172-1 1.171-2.142 1.171-7.714 1.172-1.952 1.171-.286 1.171-4.476 1.172-5.857 2.342-6.57 1.172-10.62 1.171-12.094 1.171-14.904 1.172-11.237 1.171-7.666 1.171-15.952 1.172-22.237 1.17-10.38 1.172-22.284 1.172-26.713 1.17-4.571 1.172-17.237 1.172-11.619 1.17 11.619 1.172 6.476 1.172 8.666 1.17 21.903 1.172.238 2.343 33.522 1.171-3.857 1.171-4.38 2.343 12.618 1.171-2.571 1.172-3.048 1.171-.524 1.171 4.381 1.172 9.428 1.171 6.666 1.171-3.57 2.343 22.95 1.171 9.428 1.172 6.428 1.171 9.476 1.171 4.476 1.172 11 1.17.761 1.172 2 1.172-1.476 1.17 6.428 1.172 3.571 1.172 5.714 1.17 2.333 1.172 4.095 1.172-.095 1.17 5.476 1.172.048 1.171 7.57 1.172-.714 1.171 2.096 1.171.476 2.343.047 1.171 3 1.172-6.428 1.171 2.143 1.171 1.714 1.172-1 2.342.095 2.343-6.38 1.171.238 1.172 1.285 1.171 3.572 1.171 3.19 1.172 1.476 1.17.81 1.172 4.904 1.172.476 1.17-1.952 1.172 1.952 1.172.19 1.17-.19 1.172-2.428 1.172-.953 1.17 1.476 1.172-1.57 1.171.332 1.172-.19 1.171-.857 1.171 3.19 1.172 1.476 1.171.286 1.171 1.571 1.172-.047 1.171.143 1.171 1 1.172-.048 1.171-14.856 1.171-3.762 1.172.857 1.171-3.095 1.171.286 1.172-.762 1.171.285 1.171 14.571 1.172 1.857 1.17-.905 1.172.762 1.172-.428 1.17 1.285 1.172-1.619 1.172-1.095 1.17.095 1.172.477 1.172 1.857 1.17.476 1.172.238 1.171 1.905 1.172 1.285 1.171 1.905 1.171.333 1.172 1.095 1.171-1.619 1.171-.095 1.172-1.238 2.342-1.143 1.172-.81 1.171-1.57h1.171l1.172-2.048h1.171l1.171.619 1.172-1.476 2.342.714 1.172 1.095 1.17.19 1.172.763 1.172-.429 1.17 1.667 1.172-1.667 1.172-.762h1.17l1.172.857 1.172-.285 1.17-.524 1.172-4.428 1.171-.239 1.172-1.523 1.171-2.429 1.171.62 1.172 1.523 1.171 4.143 1.171 4.618 1.172 1.334 1.171 3.095 1.171 2.666 1.172-.81 1.171-1.856 1.171-3.048 1.172.048 1.171-.571 1.171-1.286 1.172-.81 1.171-1.047 1.171.619 1.172-.714 1.17-.381 1.172 2.047 1.172.19 1.17.715 1.172 1.762 1.172-.143 1.17.524 1.172-.143 1.172-.334 1.17.096 1.172-.048 1.171 1.143 1.172-.095 1.171-1.667 1.171-.048 1.172-.761 1.171.38h1.171l1.172-2.38 1.171.285 1.171 1.381 1.172.238 1.171-.285 1.171-.953 1.172-.19 1.171.952 1.171-.476 1.172-1.952 2.342-2.572 1.172.048 1.17-.333 1.172-.905 3.514-2.238 1.172-.81 1.17-1.142 1.172-.381 1.172-2.333 1.17-.857 1.172-1 1.171-.096 1.172.286 1.171-1.571 1.171-2.81 1.172.096 1.171-2.572 1.171-.095 1.172-.619 1.171-3.762 1.171-.952 1.172-.666 1.171-2.238 1.171 1.285 1.172-1.476 1.171-5.761 1.171.857 1.172-1.953 2.342-2.761 1.172-5.714 1.17 1.523 1.172-.19 1.172-9.571 1.17-2.38 1.172.713 1.172-6 1.17-4.856 1.172-14.428 1.171-6.618 1.172-2.524 1.171-9.142 1.171-2.381 1.172-4.286 1.171-5.095 1.171-1.619 1.172.524 1.171-2.666 1.171-.096L509.57 419l1.171 2.62 1.171 4.237 1.172 1.238 1.171-9.857 1.171 11.095 1.172-4.571 1.171 5.047 1.171-5.714 1.172-3.142 1.17-4 1.172-3.19 1.172-14.38 2.342-4.238L527.14 398l1.17 5.81 1.172 3.619 1.172 15.665 1.17-.81 1.172 8.334 1.171-2.953 1.172 1.81 1.171-7.047 1.171 2.714 1.172-5.143 1.171 8.428h1.171l1.172 6.905h1.171l1.171-1.715 1.172-4.428 1.171-2.143 1.171 2.572 1.172 6.809 1.171-.19 1.171 1.19 1.172 2.333 1.171-3.619 1.171-1.571 1.172-6.476 1.17-3.571 1.172-207.988 1.172-15.285 1.17-9.523 1.172-5.952 1.172-9.857 1.17-7.333 1.172-10.951 1.172 202.56 1.17 13.475 1.172-6.238 1.171-4.143 1.172 4.571 2.342 4.572 1.172 4.19 1.171-6.38 1.171 8.19 2.343 22.093 1.171-5.476 1.172-.047 1.171-3.095 1.171 1.238 1.172 3.952 1.171-.143 1.171-5.285 1.172 6.523 1.171 3.047 1.171-.476 1.172 7.38 1.17 12.762 1.172 4.952 1.172-1.762 1.17 2 1.172-.524 1.172 4.667 1.17-.667 1.172-10.952 1.172.62 1.17 5.999 1.172 3 1.171 8.237 1.172 5.286 1.171-9.19 1.171 3.571 1.172 1.429 2.342 6.666 1.172 1.333 1.171-10.333 1.171 4.476 1.172-.238 1.171-5.428 1.171-10.285 1.172-3.952 1.171-.953 1.171-6.618 1.172.524 1.171-5.905 1.171 4.667 1.172 2.809 1.17 10.285 1.172-4 1.172 11.285 1.17-5.476L634.9 431l1.172-5.762 1.17.619 1.172-8.57 1.172-2.477 1.17-3.095 1.172 1.81 1.171-4.143 1.172 1.476 1.171-4.333 1.171-6.095 1.172 1.047 1.171-1.523 1.171-1.714 1.172 2.19 1.171 5.142 1.171-9.523 1.172-2.238 1.171-8.285 1.171-.333 1.172-1.143 1.171-5.666 1.171-8.095 1.172 10.285 1.171 2.666 1.171 7.952 1.172 1.381 1.17 8.524 1.172 2.047 2.343 11.904 1.171 6.428 1.172 2.19 1.17 4.477 1.172 1.238 1.172 7.475 1.17 2.143 1.172-.143 1.171.143 1.172 4.619 1.171 3.333 1.171 4 1.172 2.285 1.171 2.762 1.171 7.81 1.172 4.427 1.171 3.572 1.171 8.19 1.172 2.904 1.171 6.428 2.343 7.19 1.171 7.048 1.171 3.428 1.172-4 1.171 4.572 1.171-52.76 1.172-8.19 1.17 3.81 1.172 2.047 1.172.81 1.17 2.428 1.172 1.905 1.172 57.568 1.17 16.952 1.172.523 1.172-.047 1.17.571 1.172-.333 1.171 1.047 1.172 2.143 1.171 1.048 1.171.19 1.172 2.952 1.171.953 1.171.619 1.172-.62h1.171l1.171-.428 1.172 1.81 1.171.428 1.171.81 1.172.666 1.171 1.524 2.343 2.143 1.171.095 1.171-1.048 1.172-.476h1.17l2.344-.38 1.17-.62 1.172-.238 1.172 1 2.342-.286 1.172-.857 1.17-.095 1.172.38 2.343.525 1.171.38 1.171.524 1.172.286 1.171-.762 1.171-1.19 1.172.095 1.171-.524 1.171-.285 3.514-.381 1.172.571 1.171-.143 1.171.048 1.172.81 1.171.19 2.343 1.952 1.17.095 1.172.286 1.172.095 1.17-1.238 1.172-.238 2.343-2.619 1.171-.762 2.343-2.714h1.171l1.171-.762 1.172-.333 1.171-.19 1.171-2 1.172-2.381 4.685-6.762 1.171-2.333 1.172-1.619 1.171-.571 1.171-1.333 1.172-1.857 1.171-.62 1.171-2.38 2.343-.19 1.171-1.144h0" style="fill:none;stroke:#d55e00;stroke-linecap:round;stroke-width:1.5" id="line2d_3"/><path clip-path="url(#p89e4c62d67)" d="M149.973 554.04h66.765l1.171-4.85h2.343l1.171-2.426h1.172l2.342-14.55 1.172-9.701 1.171-2.425 1.171-7.276 1.172-2.425 2.342-24.252 1.172-9.7 1.17 9.7 1.172-12.126 1.172-31.527 1.17-21.827 1.172 4.85 1.172 7.276 1.17 9.7 1.172-19.4 1.172-2.426 1.17 33.953 1.172 26.677 1.171-7.276 1.172 2.425 1.171-2.425 1.171 12.126 1.172 4.85 1.171-2.425h1.171l2.343 4.85 1.171-2.425h1.172l1.171-4.85 1.171 2.425h2.343l2.343 14.551 1.171 4.85 1.171 9.701 1.172-2.425h1.17l1.172 12.126h1.172l1.17 4.85 1.172 7.276 1.172 4.85 1.17 7.276h1.172l2.343-19.402 2.342-4.85h3.514l1.172 9.7 1.171 7.276 3.514 7.276h7.028l1.171-4.85h2.343l1.171-7.276h3.514l1.172 4.85h2.342l1.172 7.276h1.17l1.172-2.425h1.172l1.17-2.426h4.686l1.171 2.426h1.172l1.171 2.425h2.343l1.171-4.85 1.171 2.425 3.514-7.276h2.343l1.171-4.85h2.343l2.343 4.85h2.342l1.172-4.85 1.17-2.425 1.172 2.425 1.172-2.425 1.17-4.85h2.344l1.17 9.7h2.343l1.172 2.425 1.171 4.85h2.343l1.171 4.85 1.171-4.85 2.343-4.85h3.514l1.171-2.425 1.172 7.275 1.171 2.426h7.028l1.171-2.426 1.172 2.426h3.514l1.17 2.425h3.515l1.171-2.425h2.343l1.171-2.426h1.171l1.172 2.426 1.171-2.426h3.514l1.171 2.426 1.172-4.85 1.171-2.426h1.171l1.172 2.425h2.342l1.172-2.425 1.171 4.85 1.171-7.275 1.172 2.425h3.514l1.17 2.425 1.172-7.275 1.172 9.7h4.685l1.171-2.425 1.171 7.276 1.172-4.85 1.171-2.426h3.514l1.171-4.85h1.172l2.342 4.85h3.514l1.172 7.276h1.171l1.171 2.425h4.686l1.17-4.85 1.172-2.426 1.172-12.125 1.17-21.827 1.172-4.85h3.514l1.172-12.126 2.342 19.401 3.514-21.826h1.171l1.172 14.55 1.171-7.275 2.343 24.252 2.342 14.55 2.343-19.4 1.171-2.426 2.343-24.251h2.343l1.171-14.551 1.171 7.275 1.172-4.85 1.17 4.85H492l1.171-16.976 1.172-7.276 1.17 16.977 1.172-33.953 1.171-4.85h2.343l1.171 7.275 1.172-19.401 1.171-29.102 1.171 21.826 1.172-16.976 1.171-12.126h1.171l1.172 4.85 1.171 9.701 1.171 14.551 1.172 19.402 1.171 33.952 1.171-36.377h2.343l1.171 2.425 1.172-12.126 1.17-38.803 1.172-58.204 1.172 21.826h1.17l1.172 7.276 1.172-12.126 1.17 14.551 1.172-4.85 1.172 36.377 1.17 26.677h1.172l1.171-7.275 1.172 7.275 1.171-4.85 1.171 43.653 1.172-19.401h2.342l1.172-31.528 1.171 4.85 1.171-48.503 1.172-12.126 1.171 41.228h2.343l1.171-7.275 1.171 4.85 1.172 19.402 1.171-14.551h3.514l1.171-7.276 1.172-31.527 1.17 12.126 1.172-9.701 1.172-29.102 1.17-24.252h1.172l1.172 26.677 1.17 16.976 1.172-2.425 1.171 12.126 1.172 4.85 1.171 24.252h1.171l1.172 53.354 1.171-24.252 1.171 12.126 1.172 14.551 1.171 16.976h2.343l1.171-75.18 1.171 41.228 1.172 9.7 1.171-4.85 1.171-31.527 1.172-12.126h1.171l1.171 75.18 1.172 9.701 1.17-48.503 1.172-4.85 1.172 21.826 1.17 12.126h1.172l1.172-38.803 1.17-16.976 1.172 50.928 2.343 9.701 1.171-16.976h1.171l1.172 38.803 1.171-16.976h1.171l1.172 7.275h1.171l1.171 16.976 1.172-16.976 1.171-9.7 1.171 19.4 1.172 2.426 1.171-24.252 1.171-9.7h1.172l1.171 16.976 1.171-29.102 1.172-9.701 1.171-4.85 1.171 24.251 1.172-12.126h2.342l1.172 4.85 1.17 14.552 1.172-4.85 1.172-26.677 1.17 21.826h2.344l1.17-21.826 1.172-7.276h1.171l1.172 26.677h3.514l1.171-2.425 2.343 4.85 1.171-12.126 1.171-4.85h1.172l1.171-21.827 1.171 31.528 1.172-4.85 1.171 9.7 1.171-24.252 1.172-4.85h1.171l1.171 21.826 1.172-14.55h1.17l2.344-12.127v21.827l1.17 9.7 1.172-2.424h1.172l1.17 16.976 2.344 14.55 1.17-7.275h1.172l1.171-9.7h1.172l1.171 16.976 1.171 9.7 1.172-2.425 1.171 12.126h1.171l1.172 12.126h1.171l1.171-7.275 1.172-4.85 2.342 14.55 1.172-9.7 1.171-2.426h1.171l1.172 9.701 1.171 4.85 1.171-7.275 1.172 4.85 1.17 16.977 1.172 2.425h1.172l1.17-4.85 1.172 2.425 1.172 12.125 2.342 9.701h2.343l1.171 9.7h1.171l1.172 2.426 1.171-2.425h5.857l2.342-4.85h7.028l1.172 4.85h4.685l1.171-7.276h7.028l1.172 7.276 1.17 2.425h9.371l1.172-9.7h5.856l1.172-2.426 1.171 9.7h7.028l1.171-2.424h4.686l2.342-4.85 1.172 2.424h4.685l1.171 2.426h1.171l1.172-14.551h2.342l1.172-50.93 1.171-4.85 1.171-2.425 1.172-12.125 1.171 2.425h2.343l1.171 33.952 1.171-2.425h1.172l1.17 12.126 1.172 9.7h0" style="fill:none;stroke:#0072b2;stroke-linecap:round;stroke-width:1.5" id="line2d_4"/><path d="M117 576.72V77.76" style="fill:none;stroke:#d3d3d3;stroke-linecap:square;stroke-linejoin:miter;stroke-width:1.25" id="patch_3"/><path d="M117 576.72h725.4" style="fill:none;stroke:#d3d3d3;stroke-linecap:square;stroke-linejoin:miter;stroke-width:1.25" id="patch_4"/><g id="matplotlib.axis_1"><g id="xtick_1"><g style="fill:#696969" transform="matrix(.16 0 0 -.16 114.214 598.378)" id="text_1"><defs><path d="M9.813 72.906h9.859V5.078q0-13.187-5-19.14-5-5.954-16.094-5.954h-3.75v8.297h3.078q6.531 0 9.219 3.672Q9.813-4.39 9.813 5.078z" id="DejaVuSans-74"/><path d="M34.281 27.484q-10.89 0-15.093-2.484-4.204-2.484-4.204-8.5 0-4.781 3.157-7.594 3.156-2.797 8.562-2.797 7.485 0 12 5.297 4.516 5.297 4.516 14.078v2zm17.922 3.72V0H43.22v8.297Q40.14 3.328 35.547.953q-4.594-2.375-11.234-2.375-8.391 0-13.36 4.719Q6 8.016 6 15.922q0 9.219 6.172 13.906 6.187 4.688 18.437 4.688h12.61v.89q0 6.203-4.078 9.594-4.078 3.39-11.453 3.39-4.688 0-9.141-1.124-4.438-1.125-8.531-3.375v8.312q4.921 1.906 9.562 2.844 4.64.953 9.031.953 11.875 0 17.735-6.156 5.86-6.14 5.86-18.64z" id="DejaVuSans-97"/><path d="M54.89 33.016V0h-8.984v32.719q0 7.765-3.031 11.61-3.031 3.858-9.078 3.858-7.281 0-11.484-4.64-4.204-4.625-4.204-12.64V0H9.08v54.688h9.03v-8.5q3.235 4.937 7.594 7.374Q30.078 56 35.797 56q9.422 0 14.25-5.828 4.844-5.828 4.844-17.156z" id="DejaVuSans-110"/></defs><use xlink:href="#DejaVuSans-74"/><use x="29.492" xlink:href="#DejaVuSans-97"/><use x="90.771" xlink:href="#DejaVuSans-110"/></g></g><g id="xtick_2"><g style="fill:#696969" transform="matrix(.16 0 0 -.16 181.732 598.378)" id="text_2"><defs><path d="M9.813 72.906h14.703l18.593-49.61 18.703 49.61h14.704V0H66.89v64.016l-18.797-50h-9.907l-18.796 50V0H9.813z" id="DejaVuSans-77"/><path d="M41.11 46.297q-1.516.875-3.297 1.281Q36.03 48 33.89 48q-7.625 0-11.703-4.953-4.079-4.953-4.079-14.234V0H9.08v54.688h9.03v-8.5q2.844 4.984 7.375 7.39Q30.031 56 36.531 56q.922 0 2.047-.125 1.125-.11 2.484-.36z" id="DejaVuSans-114"/></defs><use xlink:href="#DejaVuSans-77"/><use x="86.279" xlink:href="#DejaVuSans-97"/><use x="147.559" xlink:href="#DejaVuSans-114"/></g></g><g id="xtick_3"><g style="fill:#696969" transform="matrix(.16 0 0 -.16 251.736 598.378)" id="text_3"><defs><path d="M32.172-5.078q-3.797-9.766-7.422-12.735-3.61-2.984-9.656-2.984H7.906v7.516h5.282q3.703 0 5.75 1.765Q21-9.766 23.483-3.219l1.61 4.094-22.11 53.813H12.5l17.094-42.766 17.093 42.766h9.516z" id="DejaVuSans-121"/></defs><use xlink:href="#DejaVuSans-77"/><use x="86.279" xlink:href="#DejaVuSans-97"/><use x="147.559" xlink:href="#DejaVuSans-121"/></g></g><g id="xtick_4"><g style="fill:#696969" transform="matrix(.16 0 0 -.16 330.074 598.378)" id="text_4"><defs><path d="M8.5 21.578v33.11h8.984V21.922q0-7.766 3.016-11.656 3.031-3.875 9.094-3.875 7.265 0 11.484 4.64 4.234 4.64 4.234 12.656v31h8.985V0h-8.984v8.406Q42.047 3.422 37.718 1q-4.313-2.422-10.032-2.422-9.421 0-14.312 5.86Q8.5 10.296 8.5 21.578zM31.11 56z" id="DejaVuSans-117"/><path d="M9.422 75.984h8.984V0H9.422z" id="DejaVuSans-108"/></defs><use xlink:href="#DejaVuSans-74"/><use x="29.492" xlink:href="#DejaVuSans-117"/><use x="92.871" xlink:href="#DejaVuSans-108"/></g></g><g id="xtick_5"><g style="fill:#696969" transform="matrix(.16 0 0 -.16 397.269 598.378)" id="text_5"><defs><path d="M53.516 70.516V60.89q-5.61 2.687-10.594 4-4.984 1.328-9.625 1.328-8.047 0-12.422-3.125t-4.375-8.89q0-4.845 2.906-7.313 2.907-2.453 11.016-3.97l5.953-1.218q11.031-2.11 16.281-7.406 5.25-5.297 5.25-14.172 0-10.61-7.11-16.078-7.093-5.469-20.812-5.469-5.172 0-11.015 1.172Q13.14.922 6.89 3.219v10.156q6-3.36 11.765-5.078 5.766-1.703 11.328-1.703 8.438 0 13.032 3.312 4.593 3.328 4.593 9.485 0 5.359-3.297 8.39-3.296 3.032-10.812 4.547L27.484 33.5q-11.03 2.188-15.968 6.875-4.922 4.688-4.922 13.047 0 9.672 6.812 15.234 6.813 5.563 18.766 5.563 5.14 0 10.453-.938 5.328-.922 10.89-2.765z" id="DejaVuSans-83"/><path d="M56.203 29.594v-4.39H14.891q.593-9.282 5.593-14.142 5-4.859 13.938-4.859 5.172 0 10.031 1.266 4.86 1.265 9.656 3.812v-8.5Q49.266.734 44.187-.344 39.11-1.422 33.892-1.422q-13.094 0-20.735 7.61-7.64 7.625-7.64 20.625 0 13.421 7.25 21.296Q20.016 56 32.328 56q11.031 0 17.453-7.11 6.422-7.093 6.422-19.296zm-8.984 2.64q-.094 7.36-4.125 11.75-4.032 4.407-10.672 4.407-7.516 0-12.031-4.25-4.516-4.25-5.203-11.97z" id="DejaVuSans-101"/><path d="M18.11 8.203v-29H9.077v75.484h9.031v-8.296q2.844 4.875 7.157 7.234Q29.594 56 35.594 56q9.968 0 16.187-7.906 6.235-7.907 6.235-20.797T51.78 6.484q-6.218-7.906-16.187-7.906-6 0-10.328 2.375-4.313 2.375-7.157 7.25zm30.578 19.094q0 9.906-4.079 15.547-4.078 5.64-11.203 5.64-7.14 0-11.218-5.64-4.079-5.64-4.079-15.547 0-9.906 4.078-15.547 4.079-5.64 11.22-5.64 7.124 0 11.202 5.64t4.078 15.547z" id="DejaVuSans-112"/></defs><use xlink:href="#DejaVuSans-83"/><use x="63.477" xlink:href="#DejaVuSans-101"/><use x="125" xlink:href="#DejaVuSans-112"/></g></g><g id="xtick_6"><g style="fill:#696969" transform="matrix(.16 0 0 -.16 468.185 598.378)" id="text_6"><defs><path d="M9.813 72.906h13.28l32.329-60.984v60.984h9.562V0h-13.28L19.39 60.984V0H9.813z" id="DejaVuSans-78"/><path d="M30.61 48.39q-7.22 0-11.422-5.64-4.204-5.64-4.204-15.453 0-9.813 4.172-15.453 4.188-5.64 11.453-5.64 7.188 0 11.375 5.655 4.203 5.672 4.203 15.438 0 9.719-4.203 15.406-4.187 5.688-11.375 5.688zm0 7.61q11.718 0 18.406-7.625 6.703-7.61 6.703-21.078 0-13.422-6.703-21.078-6.688-7.64-18.407-7.64-11.765 0-18.437 7.64-6.656 7.656-6.656 21.078 0 13.469 6.656 21.078Q18.844 56 30.609 56z" id="DejaVuSans-111"/><path d="M2.984 54.688H12.5L29.594 8.797l17.093 45.89h9.516L35.687 0H23.485z" id="DejaVuSans-118"/></defs><use xlink:href="#DejaVuSans-78"/><use x="74.805" xlink:href="#DejaVuSans-111"/><use x="135.986" xlink:href="#DejaVuSans-118"/></g></g><g id="xtick_7"><g style="fill:#696969" transform="matrix(.16 0 0 -.16 542.918 598.378)" id="text_7"><use xlink:href="#DejaVuSans-74"/><use x="29.492" xlink:href="#DejaVuSans-97"/><use x="90.771" xlink:href="#DejaVuSans-110"/></g></g><g id="xtick_8"><g style="fill:#696969" transform="matrix(.16 0 0 -.16 609.265 598.378)" id="text_8"><use xlink:href="#DejaVuSans-77"/><use x="86.279" xlink:href="#DejaVuSans-97"/><use x="147.559" xlink:href="#DejaVuSans-114"/></g></g><g id="xtick_9"><g style="fill:#696969" transform="matrix(.16 0 0 -.16 679.269 598.378)" id="text_9"><use xlink:href="#DejaVuSans-77"/><use x="86.279" xlink:href="#DejaVuSans-97"/><use x="147.559" xlink:href="#DejaVuSans-121"/></g></g><g id="xtick_10"><g style="fill:#696969" transform="matrix(.16 0 0 -.16 757.607 598.378)" id="text_10"><use xlink:href="#DejaVuSans-74"/><use x="29.492" xlink:href="#DejaVuSans-117"/><use x="92.871" xlink:href="#DejaVuSans-108"/></g></g><g id="xtick_11"><g style="fill:#696969" transform="matrix(.16 0 0 -.16 824.802 598.378)" id="text_11"><use xlink:href="#DejaVuSans-83"/><use x="63.477" xlink:href="#DejaVuSans-101"/><use x="125" xlink:href="#DejaVuSans-112"/></g></g></g><g id="matplotlib.axis_2"><g id="ytick_1"><g style="fill:#696969" transform="matrix(.16 0 0 -.16 97.32 560.119)" id="text_12"><defs><path d="M31.781 66.406q-7.61 0-11.453-7.5Q16.5 51.422 16.5 36.375q0-14.984 3.828-22.484 3.844-7.5 11.453-7.5 7.672 0 11.5 7.5 3.844 7.5 3.844 22.484 0 15.047-3.844 22.531-3.828 7.5-11.5 7.5zm0 7.813q12.266 0 18.735-9.703 6.468-9.688 6.468-28.141 0-18.406-6.468-28.11-6.47-9.687-18.735-9.687-12.25 0-18.718 9.688-6.47 9.703-6.47 28.109 0 18.453 6.47 28.14Q19.53 74.22 31.78 74.22z" id="DejaVuSans-48"/></defs><use xlink:href="#DejaVuSans-48"/></g></g><g id="ytick_2"><g style="fill:#696969" transform="matrix(.16 0 0 -.16 87.14 497.976)" id="text_13"><defs><path d="M19.188 8.297h34.421V0H7.33v8.297q5.609 5.812 15.296 15.594 9.703 9.797 12.188 12.64 4.734 5.313 6.609 9 1.89 3.688 1.89 7.25 0 5.813-4.078 9.469-4.078 3.672-10.625 3.672-4.64 0-9.797-1.61-5.14-1.609-11-4.89v9.969Q13.767 71.78 18.938 73q5.188 1.219 9.485 1.219 11.328 0 18.062-5.672 6.735-5.656 6.735-15.125 0-4.5-1.688-8.531-1.672-4.016-6.125-9.485-1.218-1.422-7.765-8.187-6.532-6.766-18.453-18.922z" id="DejaVuSans-50"/></defs><use xlink:href="#DejaVuSans-50"/><use x="63.623" xlink:href="#DejaVuSans-48"/></g></g><g id="ytick_3"><g style="fill:#696969" transform="matrix(.16 0 0 -.16 87.14 435.832)" id="text_14"><defs><path d="M37.797 64.313 12.89 25.39h24.906zm-2.594 8.593H47.61V25.391h10.407v-8.203H47.609V0h-9.812v17.188H4.89v9.515z" id="DejaVuSans-52"/></defs><use xlink:href="#DejaVuSans-52"/><use x="63.623" xlink:href="#DejaVuSans-48"/></g></g><g id="ytick_4"><g style="fill:#696969" transform="matrix(.16 0 0 -.16 87.14 373.69)" id="text_15"><defs><path d="M33.016 40.375q-6.641 0-10.532-4.547-3.875-4.531-3.875-12.437 0-7.86 3.875-12.438 3.891-4.562 10.532-4.562 6.64 0 10.515 4.562 3.875 4.578 3.875 12.438 0 7.906-3.875 12.437-3.875 4.547-10.515 4.547zm19.578 30.922v-8.984q-3.719 1.75-7.5 2.671-3.782.938-7.5.938-9.766 0-14.922-6.594-5.14-6.594-5.875-19.922 2.875 4.25 7.219 6.516 4.359 2.266 9.578 2.266 10.984 0 17.36-6.672 6.374-6.657 6.374-18.125 0-11.235-6.64-18.032-6.641-6.78-17.672-6.78-12.657 0-19.344 9.687-6.688 9.703-6.688 28.109 0 17.281 8.204 27.563 8.203 10.28 22.015 10.28 3.719 0 7.5-.734t7.89-2.187z" id="DejaVuSans-54"/></defs><use xlink:href="#DejaVuSans-54"/><use x="63.623" xlink:href="#DejaVuSans-48"/></g></g><g id="ytick_5"><g style="fill:#696969" transform="matrix(.16 0 0 -.16 87.14 311.546)" id="text_16"><defs><path d="M31.781 34.625q-7.031 0-11.062-3.766-4.016-3.765-4.016-10.343 0-6.594 4.016-10.36Q24.75 6.391 31.78 6.391q7.032 0 11.078 3.78 4.063 3.798 4.063 10.345 0 6.578-4.031 10.343-4.016 3.766-11.11 3.766zm-9.86 4.188q-6.343 1.562-9.89 5.906Q8.5 49.079 8.5 55.329q0 8.733 6.219 13.812 6.234 5.078 17.062 5.078 10.89 0 17.094-5.078 6.203-5.079 6.203-13.813 0-6.25-3.547-10.61-3.531-4.343-9.828-5.906 7.125-1.656 11.094-6.5 3.984-4.828 3.984-11.796 0-10.61-6.468-16.282-6.47-5.656-18.532-5.656-12.047 0-18.531 5.656-6.469 5.672-6.469 16.282 0 6.968 4 11.797 4.016 4.843 11.14 6.5zM18.314 54.39q0-5.657 3.53-8.828 3.548-3.172 9.938-3.172 6.36 0 9.938 3.172 3.593 3.171 3.593 8.828 0 5.672-3.593 8.843-3.578 3.172-9.938 3.172-6.39 0-9.937-3.172-3.532-3.172-3.532-8.843z" id="DejaVuSans-56"/></defs><use xlink:href="#DejaVuSans-56"/><use x="63.623" xlink:href="#DejaVuSans-48"/></g></g><g id="ytick_6"><g style="fill:#696969" transform="matrix(.16 0 0 -.16 76.96 249.403)" id="text_17"><defs><path d="M12.406 8.297h16.11v55.625l-17.532-3.516v8.985l17.438 3.515h9.86V8.296H54.39V0H12.406z" id="DejaVuSans-49"/></defs><use xlink:href="#DejaVuSans-49"/><use x="63.623" xlink:href="#DejaVuSans-48"/><use x="127.246" xlink:href="#DejaVuSans-48"/></g></g><g id="ytick_7"><g style="fill:#696969" transform="matrix(.16 0 0 -.16 76.96 187.26)" id="text_18"><use xlink:href="#DejaVuSans-49"/><use x="63.623" xlink:href="#DejaVuSans-50"/><use x="127.246" xlink:href="#DejaVuSans-48"/></g></g><g id="ytick_8"><g style="fill:#696969" transform="matrix(.16 0 0 -.16 76.96 125.117)" id="text_19"><use xlink:href="#DejaVuSans-49"/><use x="63.623" xlink:href="#DejaVuSans-52"/><use x="127.246" xlink:href="#DejaVuSans-48"/></g></g><g style="fill:#696969" transform="matrix(0 -.2 -.2 0 68.8 379.813)" id="text_20"><defs><path d="M51.125 44H36.922l-4.11-16.313h14.313zm-7.328 27.781-5.078-20.265h14.265L58.11 71.78h7.813L60.89 51.516h15.234V44h-17.14l-4-16.313h15.53V20.22H53.079L48 0h-7.813l5.032 20.219H30.906L25.875 0h-7.86l5.079 20.219H7.719v7.468h17.187L29 44H13.281v7.516h17.625l4.985 20.265z" id="DejaVuSans-35"/><path d="M37.11 75.984V68.5h-8.594q-4.828 0-6.72-1.953-1.874-1.953-1.874-7.031v-4.828h14.797v-6.985H19.922V0H10.89v47.703H2.297v6.984h8.594V58.5q0 9.125 4.25 13.297 4.25 4.187 13.468 4.187z" id="DejaVuSans-102"/><path d="M48.781 52.594v-8.407q-3.812 2.11-7.64 3.157-3.828 1.047-7.735 1.047-8.75 0-13.593-5.547-4.829-5.532-4.829-15.547 0-10.016 4.829-15.563 4.843-5.53 13.593-5.53 3.907 0 7.735 1.046 3.828 1.047 7.64 3.156V2.094Q45.016.344 40.984-.531q-4.015-.89-8.562-.89-12.36 0-19.64 7.765-7.266 7.765-7.266 20.953 0 13.375 7.343 21.031Q20.22 56 33.016 56q4.14 0 8.093-.86 3.953-.843 7.672-2.546z" id="DejaVuSans-99"/><path d="M44.281 53.078v-8.5q-3.797 1.953-7.906 2.922-4.094.984-8.5.984-6.688 0-10.031-2.047-3.344-2.046-3.344-6.156 0-3.125 2.39-4.906 2.391-1.781 9.626-3.39l3.078-.688q9.562-2.047 13.593-5.781 4.032-3.735 4.032-10.422 0-7.625-6.032-12.078-6.03-4.438-16.578-4.438-4.39 0-9.156.86Q10.688.296 5.422 2v9.281q4.984-2.594 9.812-3.89 4.829-1.282 9.579-1.282 6.343 0 9.75 2.172 3.421 2.172 3.421 6.125 0 3.656-2.468 5.61-2.453 1.953-10.813 3.765l-3.125.735q-8.344 1.75-12.062 5.39-3.704 3.64-3.704 9.985 0 7.718 5.47 11.906Q16.75 56 26.811 56q4.97 0 9.36-.734 4.406-.72 8.11-2.188z" id="DejaVuSans-115"/></defs><use xlink:href="#DejaVuSans-35"/><use x="83.789" xlink:href="#DejaVuSans-32"/><use x="115.576" xlink:href="#DejaVuSans-111"/><use x="176.758" xlink:href="#DejaVuSans-102"/><use x="211.963" xlink:href="#DejaVuSans-32"/><use x="243.75" xlink:href="#DejaVuSans-99"/><use x="298.73" xlink:href="#DejaVuSans-97"/><use x="360.01" xlink:href="#DejaVuSans-115"/><use x="412.109" xlink:href="#DejaVuSans-101"/><use x="473.633" xlink:href="#DejaVuSans-115"/></g></g><g style="fill:#696969" transform="matrix(.24 0 0 -.24 209.887 71.76)" id="text_21"><defs><path d="M4.203 54.688h8.985l11.234-42.672 11.172 42.672h10.593l11.235-42.672 11.187 42.672h8.985L63.28 0H52.688L40.922 44.828 29.109 0H18.5z" id="DejaVuSans-119"/><path d="M64.406 67.281v-10.39q-4.984 4.64-10.625 6.922-5.64 2.296-11.984 2.296-12.5 0-19.14-7.64-6.641-7.64-6.641-22.094 0-14.406 6.64-22.047 6.64-7.64 19.14-7.64 6.345 0 11.985 2.296 5.64 2.297 10.625 6.938V5.609Q59.234 2.094 53.437.33q-5.78-1.75-12.218-1.75-16.563 0-26.094 10.124-9.516 10.14-9.516 27.672 0 17.578 9.516 27.703 9.531 10.14 26.094 10.14 6.531 0 12.312-1.734 5.797-1.734 10.875-5.203z" id="DejaVuSans-67"/><path d="M25.39 72.906h8.297L8.297-9.28H0z" id="DejaVuSans-47"/><path d="M9.813 72.906h9.859V42.094L52.39 72.906h12.703L28.906 38.922 67.672 0H54.688L19.672 35.11V0h-9.86z" id="DejaVuSans-75"/><path d="M9.422 54.688h8.984V0H9.422zm0 21.296h8.984v-11.39H9.422z" id="DejaVuSans-105"/><path d="M45.406 46.39v29.594h8.985V0h-8.985v8.203Q42.578 3.328 38.25.953q-4.313-2.375-10.375-2.375-9.906 0-16.14 7.906-6.22 7.922-6.22 20.813 0 12.89 6.22 20.797Q17.968 56 27.874 56q6.063 0 10.375-2.375 4.328-2.36 7.156-7.234zm-30.61-19.093q0-9.906 4.079-15.547 4.078-5.64 11.203-5.64 7.125 0 11.219 5.64 4.11 5.64 4.11 15.547 0 9.906-4.11 15.547-4.094 5.64-11.219 5.64-7.125 0-11.203-5.64-4.078-5.64-4.078-15.547z" id="DejaVuSans-100"/><path d="M18.313 70.219V54.688h18.5v-6.985h-18.5V18.016q0-6.688 1.828-8.594 1.828-1.906 7.453-1.906h9.218V0h-9.218q-10.407 0-14.36 3.875-3.953 3.89-3.953 14.14v29.688H2.687v6.984h6.594V70.22z" id="DejaVuSans-116"/><path d="M4.89 31.39h26.313v-8H4.891z" id="DejaVuSans-45"/><path d="M8.203 72.906h46.875v-4.203L28.61 0H18.312L43.22 64.594H8.203z" id="DejaVuSans-55"/><path d="M45.406 27.984q0 9.766-4.031 15.125-4.016 5.375-11.297 5.375-7.219 0-11.25-5.375-4.031-5.359-4.031-15.125 0-9.718 4.031-15.093t11.25-5.375q7.281 0 11.297 5.375 4.031 5.375 4.031 15.093zm8.985-21.203q0-13.953-6.203-20.765Q42-20.797 29.203-20.797q-4.734 0-8.937.703-4.203.703-8.157 2.172v8.735q3.954-2.141 7.813-3.157 3.86-1.031 7.86-1.031 8.843 0 13.234 4.61 4.39 4.609 4.39 13.937v4.453q-2.781-4.844-7.125-7.234Q33.938 0 27.875 0 17.828 0 11.672 7.656q-6.156 7.672-6.156 20.328 0 12.688 6.156 20.344Q17.828 56 27.875 56q6.063 0 10.406-2.39 4.344-2.391 7.125-7.22v8.297h8.985z" id="DejaVuSans-103"/></defs><use xlink:href="#DejaVuSans-78"/><use x="74.805" xlink:href="#DejaVuSans-101"/><use x="136.328" xlink:href="#DejaVuSans-119"/><use x="218.115" xlink:href="#DejaVuSans-32"/><use x="249.902" xlink:href="#DejaVuSans-67"/><use x="319.727" xlink:href="#DejaVuSans-97"/><use x="381.006" xlink:href="#DejaVuSans-115"/><use x="433.105" xlink:href="#DejaVuSans-101"/><use x="494.629" xlink:href="#DejaVuSans-115"/><use x="546.729" xlink:href="#DejaVuSans-32"/><use x="578.516" xlink:href="#DejaVuSans-47"/><use x="612.207" xlink:href="#DejaVuSans-32"/><use x="643.994" xlink:href="#DejaVuSans-49"/><use x="707.617" xlink:href="#DejaVuSans-48"/><use x="771.24" xlink:href="#DejaVuSans-48"/><use x="834.863" xlink:href="#DejaVuSans-75"/><use x="900.439" xlink:href="#DejaVuSans-32"/><use x="932.227" xlink:href="#DejaVuSans-114"/><use x="971.09" xlink:href="#DejaVuSans-101"/><use x="1032.613" xlink:href="#DejaVuSans-115"/><use x="1084.713" xlink:href="#DejaVuSans-105"/><use x="1112.496" xlink:href="#DejaVuSans-100"/><use x="1175.973" xlink:href="#DejaVuSans-101"/><use x="1237.496" xlink:href="#DejaVuSans-110"/><use x="1300.875" xlink:href="#DejaVuSans-116"/><use x="1340.084" xlink:href="#DejaVuSans-115"/><use x="1392.184" xlink:href="#DejaVuSans-32"/><use x="1423.971" xlink:href="#DejaVuSans-45"/><use x="1460.055" xlink:href="#DejaVuSans-45"/><use x="1496.139" xlink:href="#DejaVuSans-32"/><use x="1527.926" xlink:href="#DejaVuSans-55"/><use x="1591.549" xlink:href="#DejaVuSans-32"/><use x="1623.336" xlink:href="#DejaVuSans-100"/><use x="1686.813" xlink:href="#DejaVuSans-97"/><use x="1748.092" xlink:href="#DejaVuSans-121"/><use x="1807.271" xlink:href="#DejaVuSans-32"/><use x="1839.059" xlink:href="#DejaVuSans-97"/><use x="1900.338" xlink:href="#DejaVuSans-118"/><use x="1959.518" xlink:href="#DejaVuSans-101"/><use x="2021.041" xlink:href="#DejaVuSans-114"/><use x="2062.154" xlink:href="#DejaVuSans-97"/><use x="2123.434" xlink:href="#DejaVuSans-103"/><use x="2186.91" xlink:href="#DejaVuSans-101"/></g><g id="legend_1"><path d="M694.75 184.5H831.2q3.2 0 3.2-3.2V88.96q0-3.2-3.2-3.2H694.75q-3.2 0-3.2 3.2v92.34q0 3.2 3.2 3.2z" style="fill:none;opacity:.8;stroke:#ccc;stroke-linejoin:miter" id="patch_5"/><path d="M697.95 98.718h32" style="fill:none;stroke:#000;stroke-linecap:round;stroke-width:1.5" id="line2d_5"/><g style="fill:#696969" transform="matrix(.16 0 0 -.16 742.75 104.317)" id="text_22"><defs><path d="M8.688 72.906h9.921V28.61q0-11.718 4.235-16.875 4.25-5.14 13.781-5.14 9.469 0 13.719 5.14 4.25 5.157 4.25 16.875v44.297H64.5V27.391q0-14.25-7.063-21.532-7.046-7.28-20.812-7.28-13.828 0-20.89 7.28-7.047 7.282-7.047 21.532z" id="DejaVuSans-85"/></defs><use xlink:href="#DejaVuSans-85"/><use x="73.193" xlink:href="#DejaVuSans-83"/></g><path d="M697.95 122.203h32" style="fill:none;stroke:#009e73;stroke-linecap:round;stroke-width:1.5" id="line2d_7"/><g style="fill:#696969" transform="matrix(.16 0 0 -.16 742.75 127.802)" id="text_23"><use xlink:href="#DejaVuSans-78"/><use x="74.805" xlink:href="#DejaVuSans-74"/></g><path d="M697.95 145.688h32" style="fill:none;stroke:#d55e00;stroke-linecap:round;stroke-width:1.5" id="line2d_9"/><g style="fill:#696969" transform="matrix(.16 0 0 -.16 742.75 151.287)" id="text_24"><defs><path d="M19.672 34.813V8.108H35.5q7.953 0 11.781 3.297 3.844 3.297 3.844 10.078 0 6.844-3.844 10.078-3.828 3.25-11.781 3.25zm0 29.984V42.828h14.61q7.218 0 10.75 2.703 3.546 2.719 3.546 8.282 0 5.515-3.547 8.25-3.531 2.734-10.75 2.734zm-9.86 8.11h25.204q11.28 0 17.375-4.688Q58.5 63.53 58.5 54.89q0-6.703-3.125-10.657-3.125-3.953-9.188-4.922 7.282-1.562 11.313-6.53 4.031-4.954 4.031-12.376 0-9.765-6.64-15.093Q48.25 0 35.984 0H9.812z" id="DejaVuSans-66"/></defs><use xlink:href="#DejaVuSans-66"/><use x="68.604" xlink:href="#DejaVuSans-101"/><use x="130.127" xlink:href="#DejaVuSans-114"/><use x="169.49" xlink:href="#DejaVuSans-103"/><use x="232.967" xlink:href="#DejaVuSans-101"/><use x="294.49" xlink:href="#DejaVuSans-110"/></g><path d="M697.95 169.173h32" style="fill:none;stroke:#0072b2;stroke-linecap:round;stroke-width:1.5" id="line2d_11"/><g style="fill:#696969" transform="matrix(.16 0 0 -.16 742.75 174.773)" id="text_25"><defs><path d="M44.39 34.188q3.172-1.079 6.172-4.594 3-3.516 6.032-9.672L66.609 0H56l-9.313 18.703q-3.624 7.328-7.015 9.719-3.39 2.39-9.25 2.39h-10.75V0h-9.86v72.906h22.266q12.5 0 18.656-5.234 6.157-5.219 6.157-15.766 0-6.89-3.203-11.437-3.204-4.532-9.297-6.282zM19.673 64.797V38.922h12.406q7.125 0 10.766 3.297 3.64 3.297 3.64 9.687 0 6.39-3.64 9.64-3.64 3.25-10.766 3.25z" id="DejaVuSans-82"/><path d="M54.89 33.016V0h-8.984v32.719q0 7.765-3.031 11.61-3.031 3.858-9.078 3.858-7.281 0-11.484-4.64-4.204-4.625-4.204-12.64V0H9.08v75.984h9.03V46.188q3.235 4.937 7.594 7.374Q30.078 56 35.797 56q9.422 0 14.25-5.828 4.844-5.828 4.844-17.156z" id="DejaVuSans-104"/></defs><use xlink:href="#DejaVuSans-82"/><use x="64.982" xlink:href="#DejaVuSans-117"/><use x="128.361" xlink:href="#DejaVuSans-116"/><use x="167.57" xlink:href="#DejaVuSans-104"/><use x="230.949" xlink:href="#DejaVuSans-101"/><use x="292.473" xlink:href="#DejaVuSans-114"/><use x="333.586" xlink:href="#DejaVuSans-102"/><use x="368.791" xlink:href="#DejaVuSans-111"/><use x="429.973" xlink:href="#DejaVuSans-114"/><use x="469.336" xlink:href="#DejaVuSans-100"/></g></g></g></g><defs><clipPath id="p89e4c62d67"><path d="M117 77.76h725.4v498.96H117z"/></clipPath></defs></svg>