<svg height="864" viewBox="0 0 936 648" width="1248" xmlns="http://www.w3.org/2000/svg" xmlns:xlink="http://www.w3.org/1999/xlink"><defs><style>*{stroke-linecap:butt;stroke-linejoin:round}</style></defs><g id="figure_1"><path d="M0 648h936V0H0z" style="fill:#fff" id="patch_1"/><g id="axes_1"><path d="M117 576.72h725.4V77.76H117z" style="fill:none" id="patch_2"/><path clip-path="url(#pa558808b84)" d="m149.973 338.045 75.28-.139 7.528-.325 1.506-.177 1.505-.31 1.506-.46 1.505-.578 1.506-.725 3.011-1.897 1.506-1.119 6.022-5.229 1.506-1.062 3.011-2.495 4.517-3.033 1.505-.4 1.506.044 1.506.176 1.505.566 1.506.823 1.505.998 3.012 2.955 1.505 1.327 3.011 3.54 3.012 3.374 1.505 1.848 1.506 1.415 3.011 1.7 1.506.705 1.505.48 1.506-.067 1.506-.726 1.505-.499 1.506-.044 3.01-.325 6.023.258 4.517.263 1.506.263 1.505.84 1.506 1.195 1.506.96 1.505.398 4.517.08 4.517-.612 9.033-1.597 3.012-.997 1.505-.05 4.517.207 3.011-.47 3.011-.125 1.506-.137 1.506.02 3.01-.757 4.518.398 1.505-.392 1.506-.647 1.505-.045 1.506.122 1.506-.086 1.505.053 1.506-.178 3.011-.703 3.011-.845 1.506-.907 1.506-1.256 1.505-1.411 3.011-2.189 1.506-1.585 1.506-1.367 3.01-2.144 1.506-.774 4.517-2.853 1.506-.393 1.505.053 1.506.243 3.011.719 3.011 1.24 1.506.172 1.506-.019 3.01-.46 1.506.319 1.506.144 1.506.405 1.505.803 1.506.365 1.505.554 4.517 2.57 1.506.996 1.505.8 1.506 1.481 1.506 1.942 1.505 1.543 1.506 1.375 1.505 1.546 1.506 1.292 6.023 4.07 1.505 1.277 1.506 1.088 3.01 1.763 1.507.01 1.505-.331 1.506-.128 1.505-.295 3.012-.08 1.505-.442 1.506-.136 1.505.047 3.012-.147 1.505-.28 1.506-.047 1.505.358 1.506.625 1.506.232 3.01.15 1.506-.258 3.012-.3 3.01-1.33 1.506-1.115 1.506-.721 1.506-.388 1.505-1.337 1.506-1.042 1.505-.524 1.506.421 1.506 1.361 1.505.672 3.011 1.04 1.506.26 1.506.026 1.505-.964 1.506-1.134 3.011-2.666 3.011-.166 1.506-.62 1.505-1.93 1.506-2.298 1.506-.79 1.505-.52 1.506-.993 1.506-.769 1.505-.088 3.011 3.501 4.517 1.574 1.506-.003 1.505.155 1.506-.094 3.011-.95 1.506-1.01 1.505-.526 1.506-.144 3.011-1.279 1.506-.453 1.505-.623 1.506-.758 1.506-1.091 1.505-.46 1.506-.074 3.011.156 1.506-.025 1.505.365 1.506-.5 1.505-1.691 3.012-2.68 1.505-1.393 1.506-.704 1.505-.936 3.012-.927 1.505-.857 3.011-1.461 1.506-1.812 3.011-4.403 3.011-3.626 1.506-2.404 1.506-3.274 1.505-2.73 1.506-2.368 3.011-6.596 1.506-2.411 1.505-1.833 1.506-1.11 1.506-.38 1.505.193 1.506 1.205 1.505 2.391 1.506 2.822 1.506 2.522 3.01 6.023 1.506 8.26 1.506 9.083 3.011 10.003 1.506 4.539 1.505 3.423 1.506 1.314 1.506-4.425 1.505-5.339 1.506-2.679 1.505-3.862 1.506-2.875 1.506-2.296 1.505-1.59 1.506-5.505 1.505-7.233 1.506-3.486 1.506-2.109 1.505-1.363 1.506.783 1.505.997 1.506 5.22 1.506 8.43 1.505 6.62 1.506 5.82 3.011 8.02 1.506 3.917 1.505 4.747 1.506 13.562 1.505 9.602 1.506 1.012 1.506 2.658 1.505-.375 1.506.416 1.505-.01 1.506-5.383 1.506-8.816 1.505-7.66 1.506-6.279 1.506-5.26 1.505-4.281 1.506-7.455 1.505-21.429 1.506-13.005 1.506 1.51 1.505-.96 1.506 1.14 1.505 1.758 1.506 5.768 1.506 9.976 1.505 12.444 1.506 11.507 3.011 24.447 1.506 7.966 1.505 8.998 1.506 16.178 1.505 10.612 1.506 2.198 1.506.235 1.505-.751 1.506 1.768 1.505-.65 3.012-5.416 1.505-2.11 1.506-4.703 1.505-4.066 3.012-1.8 1.505-1.193 3.011-1.972 3.012 5.09 1.505-.983 1.506-.59 1.505-.043 1.506-.532 1.506-.341 1.505 1.565 1.506 1.074 1.505-.673 1.506-.888 1.506-1.088 1.505-1.531 1.506-1.69 1.506-3.7 1.505-4.308 4.517-9.129 1.506-2.34 1.505-1.745 3.011-5.741 1.506-1.907 1.506-2.191 1.505-1.742 1.506-.966 1.505-.378 1.506-1.93 1.506-1.53 3.01 2.384 1.506.668 1.506.088 1.506-.115 1.505 1.972 1.506 1.401 1.505-1.1 3.012-1.834 3.01-2.033 3.012 4.179 1.506-1.799 1.505-2.285 3.011-3.102 1.506-1.392 1.506-3.797 1.505-3.458 1.506.287 1.505.11 1.506-.41 1.506.213 1.505-.04h0" style="fill:none;stroke:#000;stroke-linecap:round;stroke-width:1.5" id="line2d_1"/><path clip-path="url(#pa558808b84)" d="m149.973 338.04 75.28-.098 4.517-.227 1.505-.187 1.506-.32 1.506-.474 3.01-1.772 1.506-1.1 1.506-1.927 1.506-2.787 1.505-3.15 1.506-2.579 1.505-5.418 1.506-7.823 9.034-42.716 1.505-5.523 1.506-7.427 1.505-4.138 3.012-.113 1.505 1.152 1.506 6.005 1.505 8.844 1.506 10.066 1.506 7.745 1.505 9.031 1.506 6.939 3.011 15.472 1.506 5.834 1.505 10.564 1.506 6.92 1.505.998 1.506 2.964 1.506.229 1.505-2.771 1.506 1.228 1.506-1.674 1.505-.709 1.506 2.365 1.505 4.64 1.506 4.144 1.506 5.35 1.505 3.367 1.506-1.1 1.505 1.713 1.506 4.112 1.506 2.152 1.505 4.116 1.506 5.699 1.505.51 1.506 2.081 1.506 4.945 1.505-.058 1.506-1.254 1.505.046 1.506-3.434 1.506-.37 1.505 1.186 1.506-1.272 1.505-2.394 1.506-2.86 3.011-8.862 1.506-2.661 1.505-1.716 1.506-2.95 1.506-1.453 1.505-1.133 1.506-2.353 1.505-1.34 1.506-2.219 1.506-2.44 1.505-1.622 1.506 1.529 1.505 1.946 1.506 2.251 1.506 3.114 1.505 1.837 1.506-.643 3.011-.95 1.506-1.196 1.505-1.04 1.506-.883 1.505.689 1.506 1.463 1.506.551 1.505-1.138 1.506-.842 1.506-.273 1.505-1.447 1.506-1.837 1.505-.733 1.506-1.397 1.506-1.57 1.505-1.026 1.506-.354 1.505-3.185 1.506-4.385 1.506-1.043 1.505-.125 3.011.19 1.506-.851 1.506 2.56 1.505 3.394 1.506-.124 3.011-.456 3.011.14 3.011 7.61 3.012-.24 1.505-.332 1.506-.494 1.505-.169 1.506-3.493 1.506-2.815 1.505.749 1.506.995 1.505 1.18 1.506.27 1.506.035 1.505-.342 3.011-2.588 3.012-3.177 1.505-.633 1.506-.034 1.505.154 3.012-1.94 1.505-.218 1.506-.09 1.506.335 1.505.125 1.506-.229 1.505 1.169 1.506 1.968 3.011 3.09 1.506.75 1.505.157 3.012-1.276 1.505-.063 1.506.185 1.505-.184 1.506-.503 1.506.05 1.505 1.522 1.506 1.346 1.505-.601 1.506-.725 1.506-.061 1.505.394 3.011 1.166 3.012.894 1.505-.764 1.506-1.083 1.505-.42 1.506-.683 1.506-1.65 1.505-1.987 1.506-.19 1.505.776 1.506.09 3.011-.252 1.506.114 1.505.406 1.506-.52 1.506-.292 1.505.555 1.506-.018 1.505-.239 1.506-.125 3.011.091 4.517-.997 1.506-.08 3.01.138 1.507-.4 3.01-1.688 1.506-.072 4.517-.673 1.506-.724 1.505.085 1.506.665 1.506-.153 1.505.068 1.506-.94 1.505-1.499 1.506.613 1.506.98 1.505.655 1.506-.24 1.505-.913 1.506.492 1.506 1.242 1.505.744 1.506-.933 1.505-2.721 1.506-1.19 1.506-.233 1.505.404 1.506.762 1.505-2.325 1.506-1.566 1.506.408 1.505-.729 1.506-1.015 1.505-1.841 1.506-3.386 1.506-.737 3.01 2.005 1.506.784 3.012-3.507 1.505-.34 1.506-1.62 1.505-2.549 1.506-2.153 1.506-3.902 1.505-2.54 1.506-2.237 1.506-2.88 1.505-3.985 1.506-7.182 1.505-3.822 1.506-.16 1.506-.574 1.505-.983 1.506-.641 1.505 2.944 1.506 4.703 1.506.335 1.505 2.054 1.506 4.62 1.505 3.694 1.506 3.993 1.506 5.544 1.505 9.3 1.506 6.38 1.505.936 1.506 1.32 1.506 2.22 1.505-1.93 1.506-5.065 1.505-7.897 1.506-3.527 1.506.733 1.505-1.545 1.506-.38 1.505 4.869 1.506 1.391 1.506-.072 1.505.241 1.506.428 1.505 1.686 1.506.38 1.506 4.99 3.01 19.177 1.506 6.31 1.506 4.445 1.506 2.557 1.505 1.852 1.506-6.567 1.505-4.118 1.506 4.154 1.506 5.257 1.505 2.185 1.506 1.523 1.505.143 1.506-2.89 3.011-15.22 3.012-203.525 3.01-15.837 3.012-9.43 1.506-13.781 1.505 80.61 1.506 91.681 3.011-5.42 1.506 3.734 1.505 8.004 1.506 9.523 3.011 207.19 1.506 12.22 3.01 32.07 1.506 8.83 1.506 5.158 1.506-87.99 1.505-95.289 1.506 1.648 1.505 5.116 1.506-5.03 1.506-3.941 1.505 1.863 1.506-.76 1.505 1.614 1.506 3.437 1.506-1.049 1.505-1.978 1.506 2.997 1.505 3.991 1.506 2.66 1.506 1.923 1.505-5.904 1.506-6.682 1.505 3.21 1.506 2.311 1.506.118 1.505 3.32 1.506-2.377 1.505-7.803 1.506-6.598 1.506-4.278 1.505-1.905 1.506.59 1.506-4.045 1.505-2.61 1.506 7.867 1.505 6.206 1.506-2.49 1.506-6.626 1.505-9.023 1.506-8.115 1.505-3.243 3.012-3.465 1.505-1.021 1.506-1.953 1.505-1.46 1.506 3.637 1.506 1.557 1.505-4.751 1.506-2.781 1.505-.034 1.506 2.82 1.506 1.356 1.505-1.011 1.506.922 1.505 1.146 1.506-1.998 1.506-2.761 1.505-3.587 1.506-2.494 1.505-1.915 1.506-2.812 1.506.101 1.505 2.884 1.506.916 1.505-.6 1.506-.176 3.011-1.724 1.506.967 1.505-.081 1.506.477 1.506 4.994 1.505 5.817h0" style="fill:none;stroke:#009e73;stroke-linecap:round;stroke-width:1.5" id="line2d_2"/><path clip-path="url(#pa558808b84)" d="m149.973 338.04 66.246-.095 6.023-.133 4.517-.247 3.01-.588 1.506-.53 1.506-.93 1.506-1.233 3.01-7.7 1.506-.872 1.506-1.878 1.506-4.077 1.505-3.585 1.506-2.522 1.505-5.462 1.506-8.97 3.011-20.578 1.506-6.998 1.505-8.478 1.506-13.958 3.011-18.226 1.506-18.624 1.505-10.564 1.506-4.57 1.506-7.852 1.505 2.617 1.506 12.745 1.505 15.077 1.506 22.93 1.506 19.23 1.505 14.585 1.506 22.758 1.505 20.065 1.506 9.71 1.506 13.75 1.505 24.542 1.506 13.977 1.505 6.449 1.506 10.07 1.506 1.536 1.505-1.706 1.506.379 1.506-10.943 1.505-5.52 1.506 2.087 1.505-5.177 1.506 1.46 1.506 9.615 1.505 4.818 1.506 1.137 3.01 6.506 1.507 1.63 1.505.437 1.506-1.517 1.505-2.712 1.506 1.972 1.506-.74 1.505-7.548 1.506-6.03 1.505-4.116 1.506-3.3 1.506-2.826 1.505-5.614 1.506-3.66 1.505-.892 1.506-.19 1.506-.777 3.01-10.753 1.506-1.67 1.506-2.275 3.011-4.078 1.506-3.394 1.505-5.576 1.506-3.964 1.506.057 1.505.91 1.506 2.485 1.505 1.84 1.506-.285 3.011 7.491 1.506-2.124 1.505-.284 1.506 1.232 1.506-.038 1.505.152 1.506 1.195 1.505 1.441 1.506-.645 4.517-7.34 1.506.02 1.505-.417 1.506-1.442 1.505 1.328 1.506.607 1.506-.816 1.505.455 1.506 1.423 1.505-4.59 1.506-7.624 1.506-1.119 1.505-.398 1.506-1.176 1.505.228 1.506-1.12 1.506 4.06 1.505 5.84 1.506-.36 1.505-.664 1.506.095 1.506-.114 1.505-.512 1.506 4.855 1.505 7.018 1.506 1.384 1.506 1.82 1.505 2.05 1.506.473 1.505 1.043 1.506-4.646 1.506-5.273 3.01 1.138 1.506-.341 1.506-1.024 1.506-.398 1.505.379 1.506-.057 1.505-.797 1.506-1.877 1.506-1.555 1.505-1.1 1.506-1.67 1.505-1.023 1.506-1.612 1.506-1.328 1.505-.285 1.506.778 1.506 1.195 4.516 2.693 1.506.569 1.506-.019 1.505.322 3.011 2.2 1.506-.569 1.506-1.63 1.505-1.423 1.506-.986 1.505-2.143 1.506-1.233 1.506.474 1.505 2.124 1.506 2.997 1.505 2.37 3.012 5.33 1.505.398 1.506-1.29 1.505-1.63 1.506.777 1.506 1.65 1.505-.038 1.506.74 1.505-.02 1.506-1.024 1.506-2.294 1.505-3.926 1.506-1.707 1.505-.872 1.506-1.935 1.506.247 1.505 1.706 1.506 2.106 1.505 1.346 1.506.02 1.506.644 1.505.853 1.506 1.176 1.505.588 1.506-.664 1.506-.246 3.01-2.03 1.506-.208 1.506-1.935 1.506-1.479 3.01 1.005 1.507.171 3.01-.872 3.012-.36 1.506-.266 3.01-1.309 3.012-.607 1.506.455 1.505.19 3.011-2.465 1.506-.645 1.506-.285 1.505-.151 3.011-2.845 1.506.227 1.506.854 1.505 1.1 1.506-.02 1.505-1.63 1.506-.588 1.506-.342 1.505-.512 1.506.323 3.011-2.181 3.011-.114 1.506.891 1.505.664 1.506-2.446 1.506-2.03 1.505.076 1.506.398 1.505-.018 1.506-1.821 1.506-.607 1.505.815 1.506-2.143 1.505-2.882 1.506-.02 1.506-.948 1.505-3.944 1.506-7.606 1.506-5.5 1.505-1.687 1.506-4.21 1.505-3.244 1.506-1.555 4.517-2.902 1.505 3.035 1.506 3.66 1.506-3.319 1.505-.796 1.506 7.055 1.505 9.862 1.506 4.95 1.506 4.134 1.505 7.245 1.506 4.78 1.505 2.389 1.506.208 1.506-.17 1.505-2.428 1.506-6.145 1.505-5.443 1.506 2.295 1.506 3.566 1.505 1.119 1.506 1.574 1.505 11.113 1.506 5.425 1.506.398 1.505 1.953 1.506-.19 1.505 1.442 1.506 1.119 1.506 1.896 1.505 8.307 1.506 9.9 1.505 4.438 1.506 2.086 1.506-4.532 1.505-6.202 1.506-10.298 1.505-5.747 1.506.74 1.506.493 1.505.853 1.506 3.49 1.505 1.214 1.506-1.1 1.506-4.514 1.505-7.358 3.012-178.692 1.505-9.199 3.011-7.396 1.506-7.017 1.506-11.02 1.505 73.681 1.506 85.648 1.505 1.48 1.506-3.623 1.506 2.238 3.01 11.72 3.012 174.937 1.506 10.602 1.505 13.958 1.506 15.097 1.505 8.933 1.506 5.082 1.506-77.568 1.505-86.786 1.506-.815 1.505 5.651 3.012-4.532 1.505 1.991 1.506-1.593 1.505 3.622 1.506 7.302 1.506-.74 1.505-7.529 1.506-1.991 3.011 5.69 1.506 2.332 1.505-6.695 1.506-5.632 1.505 4.798 1.506 3.091 1.506.664 1.505 4.362 1.506-4.305 1.505-10.26 1.506-5.064 1.506.664 1.505 2.56 1.506 1.233 1.506-5.235 1.505-3.926 1.506 6.316 1.505 1.859 3.012-18.15 1.505-6.43 1.506-8.401 1.505-.873 1.506.095 1.506-2.484 1.505 1.043 1.506 2.56 1.505.683 1.506 6.486 1.506 4.647 1.505-2.049 1.506 1.783 1.505 4.21 1.506 2.504 1.506-2.447 1.505.797 1.506 1.915 1.505 1.214 1.506-.569 1.506-4.115 1.505-9.37 1.506-4.513 1.505-3.091 1.506-3.604 1.506.55 1.505 3.395 1.506.303 1.505-1.517 1.506.209 1.506-1.214 1.505-.076 1.506-1.783 1.505-4.419 1.506 2.01 1.506 9.313 1.505 6.543h0" style="fill:none;stroke:#d55e00;stroke-linecap:round;stroke-width:1.5" id="line2d_3"/><path clip-path="url(#pa558808b84)" d="M149.973 338.04h84.314l3.01-3.864h1.506l3.012-1.932 1.505-2.898 1.506-5.796 1.505-6.761 1.506-4.83 3.011-7.727 1.506-5.796 1.505-9.66 1.506-8.693 1.506 1.932 1.505.966 1.506-17.387 1.505-20.285 1.506-5.795 1.506 7.727 1.505 12.557 1.506 2.898 1.505-3.864 1.506 16.421 1.506 28.013 1.505 13.523 1.506 7.727 1.505 8.694 1.506 3.863 1.506 7.728 1.505 18.353 1.506 20.285 1.505 7.727 1.506-2.898 1.506-6.761 1.505 2.897 1.506 6.762 1.506-13.523 1.505-23.183 1.506-7.727 1.505 4.83 1.506 5.795 1.506.966 1.505-.966 1.506 1.932h1.505l1.506 3.864 1.506 2.898 1.505 1.932 1.506 5.795 1.505 6.762 1.506 5.795 1.506 1.932 1.505-3.864 3.011-21.25 3.012-13.523 1.505-2.898 1.506.966 1.505-.966 3.012 3.864 3.01-5.796 1.506-3.864 1.506-2.898 1.506 3.864 1.505 7.728 1.506 4.83 1.505 1.931 1.506-.966 1.506-1.932h1.505l1.506-6.761 1.505-9.66 1.506-3.863 1.506-1.932h1.505l1.506.966h1.505l3.012 5.795 3.01-1.931 3.012 1.931h1.506l3.01 5.796 3.012 1.932 3.011-1.932h1.506l1.506-4.83 1.505-3.863 1.506.966 3.01-1.932h3.012l3.011-3.864 1.506-.966h1.506l1.505.966h4.517l1.506-1.932h1.505l1.506 1.932 3.011-1.932h1.506l3.01 11.591h3.012l3.011 1.932h1.506l1.505 3.864 1.506 2.898 1.506-2.898 1.505-1.932 3.011 3.864h1.506l1.506-4.83 1.505-1.932 1.506 3.864h1.505l1.506-2.898 1.506-1.932h1.505l1.506-1.932h1.506l4.516 5.796h3.012l1.505 1.932 1.506-.966 1.505-3.864 4.517-2.898h1.506l3.011-1.931 1.506 1.931h1.505l1.506-1.931h4.517l1.505-1.932 1.506-2.898 1.505-.966 3.012 3.864h3.01l1.506 1.932 3.012-3.864 1.505 1.932h4.517l1.506-.966 1.505 3.863 1.506 4.83 3.011-1.932h3.011l1.506.966 1.505 1.932 1.506-.966 1.506-1.932h3.01l1.506-2.898h3.012l1.505-1.931 1.506.966h3.011l1.506 3.863 1.505.966h1.506l1.506 3.864 1.505.966h4.517l1.506-.966 1.505-6.762 1.506-15.455 1.505-11.59 1.506-1.933h1.506l1.505-2.898 1.506-7.727 1.505-1.932 1.506 6.762 1.506.966 3.01-11.592 1.506-.966 3.012 17.387 1.505 15.455 1.506 20.285 1.505 9.66 1.506 5.795 1.506-.966 1.505-2.898 1.506-3.863 1.505-13.524 1.506-10.625 1.506.966 1.505 5.796 1.506-2.898 1.505-8.694 3.012-3.863 3.01-15.455 3.012-11.592 1.506-1.932 1.505 8.694 1.506-.966 1.506-5.796 1.505 2.898h1.506l1.505 8.694 1.506-1.932 1.506-20.285 1.505-2.898h1.506l1.505-11.591 1.506-4.83 1.506 8.694 1.505 15.455 1.506 5.795 1.505 20.285 1.506 36.706 1.506.966 1.505-14.49 1.506-2.897 1.505 5.795 1.506 15.455 1.506-17.387 1.505-40.569 1.506-2.898 1.505 13.523 1.506.966 1.506-7.727 1.505-8.694 1.506-9.659 1.505-8.693 3.012 51.194 1.505-2.898 1.506-.965 1.505 4.83 1.506 35.739 1.506 48.297 1.505 6.761 1.506-8.693 1.505-15.455 1.506-8.693 1.506-18.353 1.505-28.013 1.506-.965 1.505-8.694 1.506-10.625h1.506l1.505-.966 1.506 8.693 1.505-13.523 1.506-15.455 1.506 7.728h1.505l1.506 9.659 1.506-4.83 1.505 9.66 1.506 25.114 1.505-27.046 1.506-37.672 1.506-9.66 1.505 13.524 1.506 18.353 1.505-3.864 1.506 1.932 1.506 12.557 1.505 11.591 1.506 9.66L695 356.392l1.506 27.047 1.506 2.897 1.505 9.66 3.011 56.024 1.506 9.66 1.506-40.57 1.505-30.91 1.506 14.49 1.505-1.933 1.506-21.25 1.506-28.978 1.505-14.49 1.506 8.694 1.505 22.216 1.506-10.625 1.506-31.876 1.505-5.795 1.506 6.761 1.505 4.83 1.506 14.489 1.506-8.694 1.505-6.761 1.506 20.285 1.505 18.352 1.506 12.558 1.506-1.932 1.505-14.49 1.506-25.114 1.505 8.694 1.506 24.148 1.506-3.864 1.505-6.761 1.506-4.83 1.506 4.83 1.505 26.08 1.506-4.83 1.505-30.91 1.506-17.386 1.506.965 1.505 13.524 1.506-20.285 1.505-24.149 1.506.966 1.506 4.83 1.505 1.932 1.506-11.591h1.505l1.506 12.557 1.506 3.864 1.505-4.83 1.506-3.864 1.505 11.591 1.506 12.558 1.506-6.762 1.505-3.864 1.506 3.864 3.011 5.796 1.506 5.795 1.505 4.83h1.506l1.505-2.898 1.506-7.727 1.506-1.932 1.505 8.693 1.506-4.83 1.505-10.625 1.506-8.693 1.506 12.557 1.505 22.217 1.506 4.83 1.505-16.422 1.506-22.216 1.506-1.932 1.505 8.693h0" style="fill:none;stroke:#0072b2;stroke-linecap:round;stroke-width:1.5" id="line2d_4"/><path clip-path="url(#pa558808b84)" d="M117 338.04h725.4" style="fill:none;stroke:red;stroke-dasharray:1.5,2.475;stroke-dashoffset:0;stroke-width:1.5" id="line2d_5"/><path d="M117 576.72V77.76" style="fill:none;stroke:#d3d3d3;stroke-linecap:square;stroke-linejoin:miter;stroke-width:1.25" id="patch_3"/><path d="M117 576.72h725.4" style="fill:none;stroke:#d3d3d3;stroke-linecap:square;stroke-linejoin:miter;stroke-width:1.25" id="patch_4"/><g id="matplotlib.axis_1"><g id="xtick_1"><g style="fill:#696969" transform="matrix(.16 0 0 -.16 107.528 598.378)" id="text_1"><defs><path d="M9.813 72.906h9.859V5.078q0-13.187-5-19.14-5-5.954-16.094-5.954h-3.75v8.297h3.078q6.531 0 9.219 3.672Q9.813-4.39 9.813 5.078z" id="DejaVuSans-74"/><path d="M34.281 27.484q-10.89 0-15.093-2.484-4.204-2.484-4.204-8.5 0-4.781 3.157-7.594 3.156-2.797 8.562-2.797 7.485 0 12 5.297 4.516 5.297 4.516 14.078v2zm17.922 3.72V0H43.22v8.297Q40.14 3.328 35.547.953q-4.594-2.375-11.234-2.375-8.391 0-13.36 4.719Q6 8.016 6 15.922q0 9.219 6.172 13.906 6.187 4.688 18.437 4.688h12.61v.89q0 6.203-4.078 9.594-4.078 3.39-11.453 3.39-4.688 0-9.141-1.124-4.438-1.125-8.531-3.375v8.312q4.921 1.906 9.562 2.844 4.64.953 9.031.953 11.875 0 17.735-6.156 5.86-6.14 5.86-18.64z" id="DejaVuSans-97"/><path d="M54.89 33.016V0h-8.984v32.719q0 7.765-3.031 11.61-3.031 3.858-9.078 3.858-7.281 0-11.484-4.64-4.204-4.625-4.204-12.64V0H9.08v54.688h9.03v-8.5q3.235 4.937 7.594 7.374Q30.078 56 35.797 56q9.422 0 14.25-5.828 4.844-5.828 4.844-17.156z" id="DejaVuSans-110"/></defs><use xlink:href="#DejaVuSans-74"/><use x="29.492" xlink:href="#DejaVuSans-97"/><use x="90.771" xlink:href="#DejaVuSans-110"/></g></g><g id="xtick_2"><g style="fill:#696969" transform="matrix(.16 0 0 -.16 195.103 598.378)" id="text_2"><defs><path d="M9.813 72.906h14.703l18.593-49.61 18.703 49.61h14.704V0H66.89v64.016l-18.797-50h-9.907l-18.796 50V0H9.813z" id="DejaVuSans-77"/><path d="M41.11 46.297q-1.516.875-3.297 1.281Q36.03 48 33.89 48q-7.625 0-11.703-4.953-4.079-4.953-4.079-14.234V0H9.08v54.688h9.03v-8.5q2.844 4.984 7.375 7.39Q30.031 56 36.531 56q.922 0 2.047-.125 1.125-.11 2.484-.36z" id="DejaVuSans-114"/></defs><use xlink:href="#DejaVuSans-77"/><use x="86.279" xlink:href="#DejaVuSans-97"/><use x="147.559" xlink:href="#DejaVuSans-114"/></g></g><g id="xtick_3"><g style="fill:#696969" transform="matrix(.16 0 0 -.16 285.499 598.378)" id="text_3"><defs><path d="M32.172-5.078q-3.797-9.766-7.422-12.735-3.61-2.984-9.656-2.984H7.906v7.516h5.282q3.703 0 5.75 1.765Q21-9.766 23.483-3.219l1.61 4.094-22.11 53.813H12.5l17.094-42.766 17.093 42.766h9.516z" id="DejaVuSans-121"/></defs><use xlink:href="#DejaVuSans-77"/><use x="86.279" xlink:href="#DejaVuSans-97"/><use x="147.559" xlink:href="#DejaVuSans-121"/></g></g><g id="xtick_4"><g style="fill:#696969" transform="matrix(.16 0 0 -.16 384.228 598.378)" id="text_4"><defs><path d="M8.5 21.578v33.11h8.984V21.922q0-7.766 3.016-11.656 3.031-3.875 9.094-3.875 7.265 0 11.484 4.64 4.234 4.64 4.234 12.656v31h8.985V0h-8.984v8.406Q42.047 3.422 37.718 1q-4.313-2.422-10.032-2.422-9.421 0-14.312 5.86Q8.5 10.296 8.5 21.578zM31.11 56z" id="DejaVuSans-117"/><path d="M9.422 75.984h8.984V0H9.422z" id="DejaVuSans-108"/></defs><use xlink:href="#DejaVuSans-74"/><use x="29.492" xlink:href="#DejaVuSans-117"/><use x="92.871" xlink:href="#DejaVuSans-108"/></g></g><g id="xtick_5"><g style="fill:#696969" transform="matrix(.16 0 0 -.16 472.148 598.378)" id="text_5"><defs><path d="M53.516 70.516V60.89q-5.61 2.687-10.594 4-4.984 1.328-9.625 1.328-8.047 0-12.422-3.125t-4.375-8.89q0-4.845 2.906-7.313 2.907-2.453 11.016-3.97l5.953-1.218q11.031-2.11 16.281-7.406 5.25-5.297 5.25-14.172 0-10.61-7.11-16.078-7.093-5.469-20.812-5.469-5.172 0-11.015 1.172Q13.14.922 6.89 3.219v10.156q6-3.36 11.765-5.078 5.766-1.703 11.328-1.703 8.438 0 13.032 3.312 4.593 3.328 4.593 9.485 0 5.359-3.297 8.39-3.296 3.032-10.812 4.547L27.484 33.5q-11.03 2.188-15.968 6.875-4.922 4.688-4.922 13.047 0 9.672 6.812 15.234 6.813 5.563 18.766 5.563 5.14 0 10.453-.938 5.328-.922 10.89-2.765z" id="DejaVuSans-83"/><path d="M56.203 29.594v-4.39H14.891q.593-9.282 5.593-14.142 5-4.859 13.938-4.859 5.172 0 10.031 1.266 4.86 1.265 9.656 3.812v-8.5Q49.266.734 44.187-.344 39.11-1.422 33.892-1.422q-13.094 0-20.735 7.61-7.64 7.625-7.64 20.625 0 13.421 7.25 21.296Q20.016 56 32.328 56q11.031 0 17.453-7.11 6.422-7.093 6.422-19.296zm-8.984 2.64q-.094 7.36-4.125 11.75-4.032 4.407-10.672 4.407-7.516 0-12.031-4.25-4.516-4.25-5.203-11.97z" id="DejaVuSans-101"/><path d="M18.11 8.203v-29H9.077v75.484h9.031v-8.296q2.844 4.875 7.157 7.234Q29.594 56 35.594 56q9.968 0 16.187-7.906 6.235-7.907 6.235-20.797T51.78 6.484q-6.218-7.906-16.187-7.906-6 0-10.328 2.375-4.313 2.375-7.157 7.25zm30.578 19.094q0 9.906-4.079 15.547-4.078 5.64-11.203 5.64-7.14 0-11.218-5.64-4.079-5.64-4.079-15.547 0-9.906 4.078-15.547 4.079-5.64 11.22-5.64 7.124 0 11.202 5.64t4.078 15.547z" id="DejaVuSans-112"/></defs><use xlink:href="#DejaVuSans-83"/><use x="63.477" xlink:href="#DejaVuSans-101"/><use x="125" xlink:href="#DejaVuSans-112"/></g></g><g id="xtick_6"><g style="fill:#696969" transform="matrix(.16 0 0 -.16 563.455 598.378)" id="text_6"><defs><path d="M9.813 72.906h13.28l32.329-60.984v60.984h9.562V0h-13.28L19.39 60.984V0H9.813z" id="DejaVuSans-78"/><path d="M30.61 48.39q-7.22 0-11.422-5.64-4.204-5.64-4.204-15.453 0-9.813 4.172-15.453 4.188-5.64 11.453-5.64 7.188 0 11.375 5.655 4.203 5.672 4.203 15.438 0 9.719-4.203 15.406-4.187 5.688-11.375 5.688zm0 7.61q11.718 0 18.406-7.625 6.703-7.61 6.703-21.078 0-13.422-6.703-21.078-6.688-7.64-18.407-7.64-11.765 0-18.437 7.64-6.656 7.656-6.656 21.078 0 13.469 6.656 21.078Q18.844 56 30.609 56z" id="DejaVuSans-111"/><path d="M2.984 54.688H12.5L29.594 8.797l17.093 45.89h9.516L35.687 0H23.485z" id="DejaVuSans-118"/></defs><use xlink:href="#DejaVuSans-78"/><use x="74.805" xlink:href="#DejaVuSans-111"/><use x="135.986" xlink:href="#DejaVuSans-118"/></g></g><g id="xtick_7"><g style="fill:#696969" transform="matrix(.16 0 0 -.16 658.58 598.378)" id="text_7"><use xlink:href="#DejaVuSans-74"/><use x="29.492" xlink:href="#DejaVuSans-97"/><use x="90.771" xlink:href="#DejaVuSans-110"/></g></g><g id="xtick_8"><g style="fill:#696969" transform="matrix(.16 0 0 -.16 744.649 598.378)" id="text_8"><use xlink:href="#DejaVuSans-77"/><use x="86.279" xlink:href="#DejaVuSans-97"/><use x="147.559" xlink:href="#DejaVuSans-114"/></g></g></g><g id="matplotlib.axis_2"><g id="ytick_1"><g style="fill:#696969" transform="matrix(.16 0 0 -.16 83.912 552.03)" id="text_9"><defs><path d="M10.594 35.5h62.593v-8.297H10.594z" id="DejaVuSans-8722"/><path d="M33.016 40.375q-6.641 0-10.532-4.547-3.875-4.531-3.875-12.437 0-7.86 3.875-12.438 3.891-4.562 10.532-4.562 6.64 0 10.515 4.562 3.875 4.578 3.875 12.438 0 7.906-3.875 12.437-3.875 4.547-10.515 4.547zm19.578 30.922v-8.984q-3.719 1.75-7.5 2.671-3.782.938-7.5.938-9.766 0-14.922-6.594-5.14-6.594-5.875-19.922 2.875 4.25 7.219 6.516 4.359 2.266 9.578 2.266 10.984 0 17.36-6.672 6.374-6.657 6.374-18.125 0-11.235-6.64-18.032-6.641-6.78-17.672-6.78-12.657 0-19.344 9.687-6.688 9.703-6.688 28.109 0 17.281 8.204 27.563 8.203 10.28 22.015 10.28 3.719 0 7.5-.734t7.89-2.187z" id="DejaVuSans-54"/></defs><use xlink:href="#DejaVuSans-8722"/><use x="83.789" xlink:href="#DejaVuSans-54"/></g></g><g id="ytick_2"><g style="fill:#696969" transform="matrix(.16 0 0 -.16 83.912 482.726)" id="text_10"><defs><path d="M37.797 64.313 12.89 25.39h24.906zm-2.594 8.593H47.61V25.391h10.407v-8.203H47.609V0h-9.812v17.188H4.89v9.515z" id="DejaVuSans-52"/></defs><use xlink:href="#DejaVuSans-8722"/><use x="83.789" xlink:href="#DejaVuSans-52"/></g></g><g id="ytick_3"><g style="fill:#696969" transform="matrix(.16 0 0 -.16 83.912 413.422)" id="text_11"><defs><path d="M19.188 8.297h34.421V0H7.33v8.297q5.609 5.812 15.296 15.594 9.703 9.797 12.188 12.64 4.734 5.313 6.609 9 1.89 3.688 1.89 7.25 0 5.813-4.078 9.469-4.078 3.672-10.625 3.672-4.64 0-9.797-1.61-5.14-1.609-11-4.89v9.969Q13.767 71.78 18.938 73q5.188 1.219 9.485 1.219 11.328 0 18.062-5.672 6.735-5.656 6.735-15.125 0-4.5-1.688-8.531-1.672-4.016-6.125-9.485-1.218-1.422-7.765-8.187-6.532-6.766-18.453-18.922z" id="DejaVuSans-50"/></defs><use xlink:href="#DejaVuSans-8722"/><use x="83.789" xlink:href="#DejaVuSans-50"/></g></g><g id="ytick_4"><g style="fill:#696969" transform="matrix(.16 0 0 -.16 97.32 344.118)" id="text_12"><defs><path d="M31.781 66.406q-7.61 0-11.453-7.5Q16.5 51.422 16.5 36.375q0-14.984 3.828-22.484 3.844-7.5 11.453-7.5 7.672 0 11.5 7.5 3.844 7.5 3.844 22.484 0 15.047-3.844 22.531-3.828 7.5-11.5 7.5zm0 7.813q12.266 0 18.735-9.703 6.468-9.688 6.468-28.141 0-18.406-6.468-28.11-6.47-9.687-18.735-9.687-12.25 0-18.718 9.688-6.47 9.703-6.47 28.109 0 18.453 6.47 28.14Q19.53 74.22 31.78 74.22z" id="DejaVuSans-48"/></defs><use xlink:href="#DejaVuSans-48"/></g></g><g id="ytick_5"><use xlink:href="#DejaVuSans-50" style="fill:#696969" transform="matrix(.16 0 0 -.16 97.32 274.814)" id="text_13"/></g><g id="ytick_6"><use xlink:href="#DejaVuSans-52" style="fill:#696969" transform="matrix(.16 0 0 -.16 97.32 205.51)" id="text_14"/></g><g id="ytick_7"><use xlink:href="#DejaVuSans-54" style="fill:#696969" transform="matrix(.16 0 0 -.16 97.32 136.206)" id="text_15"/></g><g style="fill:#696969" transform="matrix(0 -.2 -.2 0 75.753 445.117)" id="text_16"><defs><path d="M64.406 67.281v-10.39q-4.984 4.64-10.625 6.922-5.64 2.296-11.984 2.296-12.5 0-19.14-7.64-6.641-7.64-6.641-22.094 0-14.406 6.64-22.047 6.64-7.64 19.14-7.64 6.345 0 11.985 2.296 5.64 2.297 10.625 6.938V5.609Q59.234 2.094 53.437.33q-5.78-1.75-12.218-1.75-16.563 0-26.094 10.124-9.516 10.14-9.516 27.672 0 17.578 9.516 27.703 9.531 10.14 26.094 10.14 6.531 0 12.312-1.734 5.797-1.734 10.875-5.203z" id="DejaVuSans-67"/><path d="M44.281 53.078v-8.5q-3.797 1.953-7.906 2.922-4.094.984-8.5.984-6.688 0-10.031-2.047-3.344-2.046-3.344-6.156 0-3.125 2.39-4.906 2.391-1.781 9.626-3.39l3.078-.688q9.562-2.047 13.593-5.781 4.032-3.735 4.032-10.422 0-7.625-6.032-12.078-6.03-4.438-16.578-4.438-4.39 0-9.156.86Q10.688.296 5.422 2v9.281q4.984-2.594 9.812-3.89 4.829-1.282 9.579-1.282 6.343 0 9.75 2.172 3.421 2.172 3.421 6.125 0 3.656-2.468 5.61-2.453 1.953-10.813 3.765l-3.125.735q-8.344 1.75-12.062 5.39-3.704 3.64-3.704 9.985 0 7.718 5.47 11.906Q16.75 56 26.811 56q4.97 0 9.36-.734 4.406-.72 8.11-2.188z" id="DejaVuSans-115"/><path d="M44.39 34.188q3.172-1.079 6.172-4.594 3-3.516 6.032-9.672L66.609 0H56l-9.313 18.703q-3.624 7.328-7.015 9.719-3.39 2.39-9.25 2.39h-10.75V0h-9.86v72.906h22.266q12.5 0 18.656-5.234 6.157-5.219 6.157-15.766 0-6.89-3.203-11.437-3.204-4.532-9.297-6.282zM19.673 64.797V38.922h12.406q7.125 0 10.766 3.297 3.64 3.297 3.64 9.687 0 6.39-3.64 9.64-3.64 3.25-10.766 3.25z" id="DejaVuSans-82"/><path d="M18.313 70.219V54.688h18.5v-6.985h-18.5V18.016q0-6.688 1.828-8.594 1.828-1.906 7.453-1.906h9.218V0h-9.218q-10.407 0-14.36 3.875-3.953 3.89-3.953 14.14v29.688H2.687v6.984h6.594V70.22z" id="DejaVuSans-116"/><path d="M8.594 75.984h20.703V69H17.578V-6.203h11.719v-6.984H8.594z" id="DejaVuSans-91"/><path d="M48.781 52.594v-8.407q-3.812 2.11-7.64 3.157-3.828 1.047-7.735 1.047-8.75 0-13.593-5.547-4.829-5.532-4.829-15.547 0-10.016 4.829-15.563 4.843-5.53 13.593-5.53 3.907 0 7.735 1.046 3.828 1.047 7.64 3.156V2.094Q45.016.344 40.984-.531q-4.015-.89-8.562-.89-12.36 0-19.64 7.765-7.266 7.765-7.266 20.953 0 13.375 7.343 21.031Q20.22 56 33.016 56q4.14 0 8.093-.86 3.953-.843 7.672-2.546z" id="DejaVuSans-99"/><path d="M25.39 72.906h8.297L8.297-9.28H0z" id="DejaVuSans-47"/><path d="M45.406 46.39v29.594h8.985V0h-8.985v8.203Q42.578 3.328 38.25.953q-4.313-2.375-10.375-2.375-9.906 0-16.14 7.906-6.22 7.922-6.22 20.813 0 12.89 6.22 20.797Q17.968 56 27.874 56q6.063 0 10.375-2.375 4.328-2.36 7.156-7.234zm-30.61-19.093q0-9.906 4.079-15.547 4.078-5.64 11.203-5.64 7.125 0 11.219 5.64 4.11 5.64 4.11 15.547 0 9.906-4.11 15.547-4.094 5.64-11.219 5.64-7.125 0-11.203-5.64-4.078-5.64-4.078-15.547z" id="DejaVuSans-100"/><path d="M30.422 75.984v-89.171H9.719v6.984H21.39V69H9.719v6.984z" id="DejaVuSans-93"/></defs><use xlink:href="#DejaVuSans-67"/><use x="69.824" xlink:href="#DejaVuSans-97"/><use x="131.104" xlink:href="#DejaVuSans-115"/><use x="183.203" xlink:href="#DejaVuSans-101"/><use x="244.727" xlink:href="#DejaVuSans-32"/><use x="276.514" xlink:href="#DejaVuSans-82"/><use x="343.746" xlink:href="#DejaVuSans-97"/><use x="405.025" xlink:href="#DejaVuSans-116"/><use x="444.234" xlink:href="#DejaVuSans-101"/><use x="505.758" xlink:href="#DejaVuSans-32"/><use x="537.545" xlink:href="#DejaVuSans-91"/><use x="576.559" xlink:href="#DejaVuSans-32"/><use x="608.346" xlink:href="#DejaVuSans-99"/><use x="663.326" xlink:href="#DejaVuSans-97"/><use x="724.605" xlink:href="#DejaVuSans-115"/><use x="776.705" xlink:href="#DejaVuSans-101"/><use x="838.229" xlink:href="#DejaVuSans-115"/><use x="890.328" xlink:href="#DejaVuSans-47"/><use x="924.02" xlink:href="#DejaVuSans-100"/><use x="987.496" xlink:href="#DejaVuSans-97"/><use x="1048.775" xlink:href="#DejaVuSans-121"/><use x="1107.955" xlink:href="#DejaVuSans-32"/><use x="1139.742" xlink:href="#DejaVuSans-93"/></g></g><g style="fill:#696969" transform="matrix(.24 0 0 -.24 238.224 71.76)" id="text_17"><defs><path d="M4.203 54.688h8.985l11.234-42.672 11.172 42.672h10.593l11.235-42.672 11.187 42.672h8.985L63.28 0H52.688L40.922 44.828 29.109 0H18.5z" id="DejaVuSans-119"/><path d="M8.203 72.906h46.875v-4.203L28.61 0H18.312L43.22 64.594H8.203z" id="DejaVuSans-55"/><path d="M45.406 27.984q0 9.766-4.031 15.125-4.016 5.375-11.297 5.375-7.219 0-11.25-5.375-4.031-5.359-4.031-15.125 0-9.718 4.031-15.093t11.25-5.375q7.281 0 11.297 5.375 4.031 5.375 4.031 15.093zm8.985-21.203q0-13.953-6.203-20.765Q42-20.797 29.203-20.797q-4.734 0-8.937.703-4.203.703-8.157 2.172v8.735q3.954-2.141 7.813-3.157 3.86-1.031 7.86-1.031 8.843 0 13.234 4.61 4.39 4.609 4.39 13.937v4.453q-2.781-4.844-7.125-7.234Q33.938 0 27.875 0 17.828 0 11.672 7.656q-6.156 7.672-6.156 20.328 0 12.688 6.156 20.344Q17.828 56 27.875 56q6.063 0 10.406-2.39 4.344-2.391 7.125-7.22v8.297h8.985z" id="DejaVuSans-103"/><path d="M37.11 75.984V68.5h-8.594q-4.828 0-6.72-1.953-1.874-1.953-1.874-7.031v-4.828h14.797v-6.985H19.922V0H10.89v47.703H2.297v6.984h8.594V58.5q0 9.125 4.25 13.297 4.25 4.187 13.468 4.187z" id="DejaVuSans-102"/><path d="M12.406 8.297h16.11v55.625l-17.532-3.516v8.985l17.438 3.515h9.86V8.296H54.39V0H12.406z" id="DejaVuSans-49"/><path d="M9.813 72.906h9.859V42.094L52.39 72.906h12.703L28.906 38.922 67.672 0H54.688L19.672 35.11V0h-9.86z" id="DejaVuSans-75"/></defs><use xlink:href="#DejaVuSans-78"/><use x="74.805" xlink:href="#DejaVuSans-101"/><use x="136.328" xlink:href="#DejaVuSans-119"/><use x="218.115" xlink:href="#DejaVuSans-32"/><use x="249.902" xlink:href="#DejaVuSans-67"/><use x="319.727" xlink:href="#DejaVuSans-97"/><use x="381.006" xlink:href="#DejaVuSans-115"/><use x="433.105" xlink:href="#DejaVuSans-101"/><use x="494.629" xlink:href="#DejaVuSans-115"/><use x="546.729" xlink:href="#DejaVuSans-32"/><use x="578.516" xlink:href="#DejaVuSans-55"/><use x="642.139" xlink:href="#DejaVuSans-100"/><use x="705.615" xlink:href="#DejaVuSans-32"/><use x="737.402" xlink:href="#DejaVuSans-97"/><use x="798.682" xlink:href="#DejaVuSans-118"/><use x="857.861" xlink:href="#DejaVuSans-103"/><use x="921.338" xlink:href="#DejaVuSans-32"/><use x="953.125" xlink:href="#DejaVuSans-115"/><use x="1005.225" xlink:href="#DejaVuSans-108"/><use x="1033.008" xlink:href="#DejaVuSans-111"/><use x="1094.189" xlink:href="#DejaVuSans-112"/><use x="1157.666" xlink:href="#DejaVuSans-101"/><use x="1219.189" xlink:href="#DejaVuSans-32"/><use x="1250.977" xlink:href="#DejaVuSans-111"/><use x="1312.158" xlink:href="#DejaVuSans-102"/><use x="1347.363" xlink:href="#DejaVuSans-32"/><use x="1379.15" xlink:href="#DejaVuSans-49"/><use x="1442.773" xlink:href="#DejaVuSans-52"/><use x="1506.396" xlink:href="#DejaVuSans-32"/><use x="1538.184" xlink:href="#DejaVuSans-97"/><use x="1599.463" xlink:href="#DejaVuSans-118"/><use x="1658.643" xlink:href="#DejaVuSans-103"/><use x="1722.119" xlink:href="#DejaVuSans-47"/><use x="1755.811" xlink:href="#DejaVuSans-49"/><use x="1819.434" xlink:href="#DejaVuSans-48"/><use x="1883.057" xlink:href="#DejaVuSans-48"/><use x="1946.68" xlink:href="#DejaVuSans-75"/></g><g id="legend_1"><path d="M694.75 184.5H831.2q3.2 0 3.2-3.2V88.96q0-3.2-3.2-3.2H694.75q-3.2 0-3.2 3.2v92.34q0 3.2 3.2 3.2z" style="fill:none;opacity:.8;stroke:#ccc;stroke-linejoin:miter" id="patch_5"/><path d="M697.95 98.718h32" style="fill:none;stroke:#000;stroke-linecap:round;stroke-width:1.5" id="line2d_6"/><g style="fill:#696969" transform="matrix(.16 0 0 -.16 742.75 104.317)" id="text_18"><defs><path d="M8.688 72.906h9.921V28.61q0-11.718 4.235-16.875 4.25-5.14 13.781-5.14 9.469 0 13.719 5.14 4.25 5.157 4.25 16.875v44.297H64.5V27.391q0-14.25-7.063-21.532-7.046-7.28-20.812-7.28-13.828 0-20.89 7.28-7.047 7.282-7.047 21.532z" id="DejaVuSans-85"/></defs><use xlink:href="#DejaVuSans-85"/><use x="73.193" xlink:href="#DejaVuSans-83"/></g><path d="M697.95 122.203h32" style="fill:none;stroke:#009e73;stroke-linecap:round;stroke-width:1.5" id="line2d_8"/><g style="fill:#696969" transform="matrix(.16 0 0 -.16 742.75 127.802)" id="text_19"><use xlink:href="#DejaVuSans-78"/><use x="74.805" xlink:href="#DejaVuSans-74"/></g><path d="M697.95 145.688h32" style="fill:none;stroke:#d55e00;stroke-linecap:round;stroke-width:1.5" id="line2d_10"/><g style="fill:#696969" transform="matrix(.16 0 0 -.16 742.75 151.287)" id="text_20"><defs><path d="M19.672 34.813V8.108H35.5q7.953 0 11.781 3.297 3.844 3.297 3.844 10.078 0 6.844-3.844 10.078-3.828 3.25-11.781 3.25zm0 29.984V42.828h14.61q7.218 0 10.75 2.703 3.546 2.719 3.546 8.282 0 5.515-3.547 8.25-3.531 2.734-10.75 2.734zm-9.86 8.11h25.204q11.28 0 17.375-4.688Q58.5 63.53 58.5 54.89q0-6.703-3.125-10.657-3.125-3.953-9.188-4.922 7.282-1.562 11.313-6.53 4.031-4.954 4.031-12.376 0-9.765-6.64-15.093Q48.25 0 35.984 0H9.812z" id="DejaVuSans-66"/></defs><use xlink:href="#DejaVuSans-66"/><use x="68.604" xlink:href="#DejaVuSans-101"/><use x="130.127" xlink:href="#DejaVuSans-114"/><use x="169.49" xlink:href="#DejaVuSans-103"/><use x="232.967" xlink:href="#DejaVuSans-101"/><use x="294.49" xlink:href="#DejaVuSans-110"/></g><path d="M697.95 169.173h32" style="fill:none;stroke:#0072b2;stroke-linecap:round;stroke-width:1.5" id="line2d_12"/><g style="fill:#696969" transform="matrix(.16 0 0 -.16 742.75 174.773)" id="text_21"><defs><path d="M54.89 33.016V0h-8.984v32.719q0 7.765-3.031 11.61-3.031 3.858-9.078 3.858-7.281 0-11.484-4.64-4.204-4.625-4.204-12.64V0H9.08v75.984h9.03V46.188q3.235 4.937 7.594 7.374Q30.078 56 35.797 56q9.422 0 14.25-5.828 4.844-5.828 4.844-17.156z" id="DejaVuSans-104"/></defs><use xlink:href="#DejaVuSans-82"/><use x="64.982" xlink:href="#DejaVuSans-117"/><use x="128.361" xlink:href="#DejaVuSans-116"/><use x="167.57" xlink:href="#DejaVuSans-104"/><use x="230.949" xlink:href="#DejaVuSans-101"/><use x="292.473" xlink:href="#DejaVuSans-114"/><use x="333.586" xlink:href="#DejaVuSans-102"/><use x="368.791" xlink:href="#DejaVuSans-111"/><use x="429.973" xlink:href="#DejaVuSans-114"/><use x="469.336" xlink:href="#DejaVuSans-100"/></g></g></g></g><defs><clipPath id="pa558808b84"><path d="M117 77.76h725.4v498.96H117z"/></clipPath></defs></svg>