<svg height="864" viewBox="0 0 936 648" width="1248" xmlns="http://www.w3.org/2000/svg" xmlns:xlink="http://www.w3.org/1999/xlink"><defs><style>*{stroke-linecap:butt;stroke-linejoin:round}</style></defs><g id="figure_1"><path d="M0 648h936V0H0z" fill="#fff" id="patch_1"/><g id="axes_1"><path d="M117 576.72h725.4V77.76H117z" fill="none" id="patch_2"/><g id="PolyCollection_1"><defs><path d="M175.198-94.741H265.287l1.802-1.437 1.802.188 1.802.123 1.801-.754 1.802.146 1.802-2.367 1.802-2.072 1.801-4.266 1.802.11 1.802-1.83 1.802-1.01 1.802-3.685 1.801-6.017 1.802-4.815 1.802 1.292 1.802-4.526 1.802-12.925 1.801-6.882 1.802-1.123 1.802-.894 1.802.237 1.802-3.664 1.801-5.928 1.802.087 1.802.068 1.802-3.25 1.801 1.499 1.802.528 1.802-6.483 1.802-3.365 1.802 11.825 1.801 13.37 1.802-.381 1.802 3.42 1.802-1.068 1.802 5.918 1.801.179 1.802-.18 1.802-.403 1.802.069 1.802 3.3 1.801 1.364 1.802.353 1.802-.578 1.802-.814 1.801.275 1.802 5.353 1.802 3.612 1.802 5.607 1.802 6.275 1.801 7.477 1.802 3.057 1.802.419 1.802 1.02 1.802-4.311 1.801.491 1.802 1.45 1.802 1.425 1.802 2.165 1.801-1.456 1.802-1.332 1.802-2.59 1.802-1.347 1.802-.876 1.801.907 1.802.024 1.802-.024 1.802 4.295 1.802 3.126 1.801 1.132 1.802 1.248 1.802-.865 1.802.204 1.802.113 1.801-3.046 1.802-.234 1.802-.303 1.802-.391 1.801-.355 1.802-.463 1.802-.663 1.802-.08 1.802.02 1.801-.98 1.802-.207 1.802.788 1.802-.281 1.802-.543 1.801 3.483 1.802.282 1.802.192 1.802.137 1.802.097 1.801.063 1.802.033 1.802-2 1.802.935 1.801-.17 1.802-1.184 1.802-.09 1.802-.104 1.802-.12 1.801-3.246 1.802 1.204 1.802-.722 1.802.147 1.802.056 1.801-.028 1.802-.115 1.802-3.442 1.802-.64 1.801 1.003h1.802l1.802-1.004 1.802-.173 1.802-.354 1.801 1.884 1.802-1.16 1.802.833 1.802-.183 1.802-.233 1.801-.308 1.802-.463 1.802 7.017 1.802-1.72 1.802-.877 1.801.062 1.802 2.089 1.802.021 1.802-.08 1.801 1.093 1.802 1.012 1.802.022 1.802-1.13 1.802-.242 1.801-.37 1.802-.611 1.802-.99 1.802 3.069 1.802-.07 1.801.931 1.802.113 1.802.046 1.802-.015 1.801 1.11 1.802.125 1.802-.961 1.802.98 1.802-1.083 1.801-.143 1.802-.197 1.802-.623 1.802-.08 1.802.916 1.801-.98 1.802-.872 1.802.082 1.802.066h1.802l1.801-1.688 1.802.21 1.802-.768 1.802 1.052 1.801.037 1.802.005 1.802-.026 1.802-.06 1.802-3.652 1.801 1.035 1.802.956 1.802-.074 1.802-.132 1.802-.208 1.801-.938 1.802.932 1.802.98 1.802-.059 1.802-.067 1.801-.075 1.802-.086 1.802-.1 1.802 2.029 1.801-1.004 1.802.032 1.802.01 1.802-.01 1.802-2.829 1.801 2.797 1.802-1.045H613.032l1.802.989 1.802.003 1.802 2.106 1.801 1.308 1.802.235 1.802.18 1.802.139 1.802.932 1.801-.927 1.802-3.92 1.802-7.28 1.802-.664 1.802.903 1.801.678 1.802-1.247 1.802-4.647 1.802-.127 1.802-3.896 1.801-3.78 1.802-2.067 1.802-2.348 1.802-.214 1.801.087 1.802-.118 1.802 8.05 1.802 1.24 1.802-.873 1.801-1.084 1.802-5.074 1.802 1.496 1.802-4.433 1.802-.12 1.801-.006 1.802 2.867 1.802 2.652 1.802-10.159 1.802-1.11 1.801-2.517 1.802-1.952 1.802-3.668 1.802.697 1.801.31 1.802-10.63 1.802 1.122 1.802 5.255 1.802-10.407 1.801-1.009 1.802.024 1.802-1.106 1.802-4 1.802-10.067 1.801-4.061 1.802-3.986 1.802-7.092 1.802-3.62 1.801.135 1.802 5.045 1.802-3.996 1.802-6.767 1.802 15.468 1.801 5.56 1.802-20.786 1.802-2.01 1.802-.524 1.802 3.457 1.801-.034 1.802-8.284 1.802-8.758 1.802-4.274 1.802 1.203 1.801 3.446 1.802-3.105 1.802 1.57 1.802-15.973 1.801-7.77 1.802 19.616 1.802-.18 1.802-.555 1.802-3.357 1.801 1.555 1.802 15.015 1.802 8.253 1.802 13.734 1.802 2.147 1.801-15.36 1.802 5.449 1.802-21.483 1.802 11.782 1.802 6.462 1.801-.41 1.802-.684 1.802-16.45 1.802 2.528 1.801-11.63 1.802-8.178 1.802 16.778 1.802-1.022 1.802-1.527 1.801-5.726 1.802-10.254 1.802 12.742 1.802-9.333 1.802-11.146 1.801-8.636 1.802-.02 1.802 7.991 1.802-6.004 1.801 4.069 1.802 1.29v-28.026h0l-1.802-.67-1.801-3.771-1.802 5.757-1.802-7.69-1.802-.021-1.801 10.966-1.802 12.377-1.802 10.27-1.802-12.742-1.802 11.31-1.801 6.035-1.802-1.527-1.802-1.022-1.802-16.546-1.802 13.385-1.801 11.892-1.802-5.312-1.802 14.914-1.802-.684-1.801-.41-1.802-11.18-1.802-13.702-1.802 21.643-1.802-4.352-1.801 16.004-1.802 2.147-1.802-7.83-1.802-5.468-1.802-16.35-1.801-6.285-1.802.563-1.802-.555-1.802-.18-1.802-19.59-1.801 9.873-1.802 19.311-1.802-.39-1.802 4.737-1.801-2.435-1.802 1.203-1.802 7.488-1.802 10.845-1.802 7.397-1.801-1.994-1.802-6.344-1.802-4.445-1.802-2.01-1.802 18.42-1.801-8.162-1.802-17.857-1.802 4.995-1.802 3.845-1.802-4.756-1.801.135-1.802 6.18-1.802 10.551-1.802 5.816-1.801 5.74-1.802 11.496-1.802 3.84-1.802-1.106-1.802.024-1.801 2.912-1.802 13.116-1.802-4.546-1.802 1.121-1.802 14.855-1.801.31-1.802.697-1.802 6.132-1.802 3.93-1.801 3.362-1.802.851-1.802 9.444-1.802-3.23-1.802-3.013-1.801-.006-1.802-.12-1.802 3.408-1.802-2.425-1.802 2.767-1.801-1.084-1.802-.873-1.802-2.679-1.802-9.593-1.802-2.079-1.801-1.873-1.802-.213-1.802 3.533-1.802 3.814-1.801 6.02-1.802 5.905-1.802 1.834-1.802 7.114-1.802 2.674-1.801.678-1.802.903-1.802 3.256-1.802 10.363-1.802 3.92-1.801 1.034-1.802-1.028-1.802.139-1.802.18-1.802.235-1.801-.653-1.802-1.814-1.802.003-1.802-.972H605.825l-1.802.916-1.801-3.084-1.802 3.052-1.802-.01-1.802.01-1.802.032-1.801.956-1.802-1.892-1.802-.1-1.802-.085-1.801-.076-1.802-.067-1.802-.059-1.802-.98-1.802-1.027-1.801 1.02-1.802-.206-1.802-.132-1.802-.075-1.802-1.004-1.801-.926-1.802 4.19-1.802-.06-1.802-.026-1.802.005-1.801.037-1.802-.909-1.802 1.193-1.802.21-1.801 2.233h-1.802l-1.802.065-1.802.083-1.802 1.088-1.801.98-1.802-1.045-1.802-.08-1.802-.622-1.802-.197-1.801-.143-1.802.877-1.802-.98-1.802 1-1.802.124-1.801-.85-1.802-.015-1.802.045-1.802.113-1.801-1.03-1.802-.069-1.802-2.81-1.802.969-1.802-.61-1.801-.371-1.802-.243-1.802.831-1.802.022-1.802-.948-1.801-.867-1.802-.08-1.802.021-1.802-1.832-1.801.063-1.802 1.082-1.802 2.2-1.802-4.744-1.802-.463-1.801-.308-1.802-.233-1.802-.183-1.802-1.127-1.802.8-1.801-2.036-1.802-.354-1.802-.174-1.802.957h-1.802l-1.801-.957-1.802 1.32-1.802 4.399-1.802-.115-1.801-.028-1.802.056-1.802.147-1.802 1.239-1.802-.757-1.801 4.595-1.802-.12-1.802-.103-1.802-.09-1.802.776-1.801-.17-1.802-1.026-1.802 1.921-1.802.033-1.801.063-1.802.096-1.802.138-1.802.192-1.802.282-1.801-2.398-1.802-.543-1.802-.282-1.802-1.172-1.802-.206-1.801.98-1.802.02-1.802-.08-1.802-.663-1.802-.464-1.801-.354-1.802-.392-1.802-.302-1.802-.234-1.801 2.834-1.802.114-1.802.203-1.802 1.096-1.802-.713-1.801-.827-1.802-2.756-1.802-3.545-1.802-.024-1.802.024-1.801-1.054-1.802-.876-1.802-1.347-1.802-.63-1.802-1.332-1.801-1.456-1.802-3.715-1.802-2.496-1.802-2.47-1.801-1.47-1.802 3.53-1.802-.94-1.802.42-1.802-.864-1.801-4.285-1.802-3.526-1.802-4.194-1.802-2.269-1.802-4.448-1.801.275-1.802-.815-1.802-4.498-1.802-3.567-1.801-2.557-1.802-4.54-1.802-1.892-1.802-.403-1.802-.18-1.801.179-1.802-3.883-1.802 2.851-1.802-.499-1.802 3.54-1.801-8.193-1.802-13.659-1.802-5.326-1.802-.602-1.802-5.352-1.801-6.343-1.802-1.29-1.802-3.852-1.802-1.873-1.801 5.833-1.802 4.178-1.802.237-1.802 3.026-1.802 4.758-1.801 12.72-1.802 18.44-1.802 7.235-1.802 1.292-1.802 8.907-1.801 9.665-1.802 6.115-1.802 2.911-1.802 4.052-1.802 2.07-1.801 7.495-1.802 3.81-1.802 3.512-1.802.147-1.801 1.206-1.802.123-1.802.188-1.802 2.484H175.198z" id="m292de0e7d8" stroke="#fff" stroke-opacity=".2"/></defs><g clip-path="url(#p289a77c8c9)"><use xlink:href="#m292de0e7d8" y="648" fill="#089fff" fill-opacity=".2" stroke="#fff" stroke-opacity=".2"/></g></g><g id="LineCollection_1" fill="none" stroke="#000" stroke-dasharray="1.5,2.475" stroke-width="1.5"><path clip-path="url(#p289a77c8c9)" d="M149.973 553.259h0M151.775 553.259h0M153.576 553.259h0M155.378 553.259h0M157.18 553.259h0M158.982 553.259h0M160.783 553.259h0M162.585 553.259h0M164.387 553.259h0M166.189 553.259h0M167.99 553.259h0M169.792 553.259h0M171.594 553.259h0M173.396 553.259h0M175.198 553.259h0M177 553.259h0M178.801 553.259h0M180.603 553.259h0M182.405 553.259h0M184.207 553.259h0M186.008 553.259h0M187.81 553.259h0M189.612 553.259h0M191.414 553.259h0M193.216 553.259h0M195.017 553.259h0M196.82 553.259h0M198.621 553.259h0M200.423 553.259h0M202.225 553.259h0M204.026 553.259h0M205.828 553.259h0M207.63 553.259h0M209.432 553.259h0M211.234 553.259h0M213.035 553.259h0M214.837 553.259h0M216.639 553.259h0M218.44 553.259h0M220.242 553.259h0M222.044 553.259h0M223.846 553.259h0M225.648 553.259h0M227.45 553.259h0M229.251 553.259h0M231.053 553.259h0M232.855 553.259h0M234.657 553.259h0M236.459 553.259h0M238.26 553.259h0M240.062 553.259h0M241.864 553.259h0M243.666 553.259h0M245.468 553.259h0M247.27 553.259h0M249.071 553.259h0M250.873 553.259h0M252.675 553.259h0M254.476 553.259h0M256.278 553.259h0M258.08 553.259h0M259.882 553.259h0M261.684 553.259h0M263.485 553.259h0M265.287 553.259h0M267.089 553.259v-27.444M268.89 553.259h0M270.693 553.259h0M272.494 553.259v-13.722M274.296 553.259h0M276.098 553.259v-41.166M277.9 553.259v-41.166M279.701 553.259v-82.33M281.503 553.259v-13.722M283.305 553.259v-41.166M285.107 553.259v-27.444M286.909 553.259v-68.61M288.71 553.259V443.485M290.512 553.259v-96.053M292.314 553.259v-27.444M294.116 553.259v-82.33M295.918 553.259V333.71M297.72 553.259v-150.94M299.521 553.259v-41.166M301.323 553.259v-68.61M303.125 553.259v-41.166M304.927 553.259V416.04M306.728 553.259v-96.053M308.53 553.259v-27.444M310.332 553.259h0M312.134 553.259v-82.33M313.935 553.259v-54.887M315.737 553.259v-54.887M317.539 553.259v-68.61M319.34 553.259v-68.61M321.143 553.259v-41.166M322.944 553.259h0M324.746 553.259v-68.61M326.548 553.259v-41.166M328.35 553.259v-68.61M330.152 553.259v-68.61M331.953 553.259v-96.053M333.755 553.259v-27.444M335.557 553.259h0M337.359 553.259v-68.61M339.16 553.259h0M340.962 553.259v-27.444M342.764 553.259v-41.166M344.566 553.259v-41.166M346.368 553.259v-41.166M348.17 553.259h0M349.971 553.259h0M351.773 553.259h0M353.575 553.259h0M355.377 553.259h0M357.178 553.259v-13.722M358.98 553.259h0M360.782 553.259h0M362.584 553.259v-54.887M364.386 553.259v-54.887M366.187 553.259v-13.722M367.99 553.259v-13.722M369.79 553.259v-13.722M371.593 553.259h0M373.394 553.259h0M375.196 553.259h0M376.998 553.259v-13.722M378.8 553.259h0M380.602 553.259h0M382.403 553.259h0M384.205 553.259h0M386.007 553.259h0M387.809 553.259h0M389.61 553.259v-13.722M391.412 553.259h0M393.214 553.259h0M395.016 553.259v-27.444M396.818 553.259h0M398.62 553.259h0M400.421 553.259v-41.166M402.223 553.259v-13.722M404.025 553.259h0M405.827 553.259h0M407.628 553.259h0M409.43 553.259h0M411.232 553.259h0M413.034 553.259h0M414.836 553.259v-13.722M416.637 553.259v-13.722M418.44 553.259h0M420.241 553.259v-13.722M422.043 553.259h0M423.845 553.259h0M425.646 553.259h0M427.448 553.259v-13.722M429.25 553.259h0M431.052 553.259h0M432.854 553.259h0M434.655 553.259h0M436.457 553.259h0M438.259 553.259v-27.444M440.06 553.259h0M441.862 553.259v-13.722M443.664 553.259v-13.722M445.466 553.259v-13.722M447.268 553.259h0M449.07 553.259h0M450.871 553.259v-54.887M452.673 553.259h0M454.475 553.259v-13.722M456.277 553.259h0M458.079 553.259h0M459.88 553.259h0M461.682 553.259h0M463.484 553.259v-82.33M465.286 553.259v-13.722M467.087 553.259h0M468.89 553.259v-13.722M470.691 553.259v-27.444M472.493 553.259h0M474.295 553.259h0M476.096 553.259v-27.444M477.898 553.259v-13.722M479.7 553.259h0M481.502 553.259h0M483.304 553.259h0M485.105 553.259h0M486.907 553.259h0M488.709 553.259h0M490.51 553.259v-41.166M492.313 553.259v-13.722M494.114 553.259v-13.722M495.916 553.259h0M497.718 553.259h0M499.52 553.259h0M501.321 553.259v-13.722M503.123 553.259h0M504.925 553.259h0M506.727 553.259v-13.722M508.529 553.259h0M510.33 553.259h0M512.132 553.259h0M513.934 553.259v-13.722M515.736 553.259h0M517.538 553.259v-13.722M519.34 553.259h0M521.141 553.259h0M522.943 553.259h0M524.745 553.259h0M526.546 553.259h0M528.348 553.259h0M530.15 553.259v-13.722M531.952 553.259h0M533.754 553.259v-13.722M535.555 553.259h0M537.357 553.259h0M539.159 553.259v-13.722M540.96 553.259h0M542.763 553.259h0M544.564 553.259v-13.722M546.366 553.259v-13.722M548.168 553.259h0M549.97 553.259h0M551.772 553.259h0M553.573 553.259v-27.444M555.375 553.259v-13.722M557.177 553.259v-13.722M558.979 553.259h0M560.78 553.259h0M562.582 553.259h0M564.384 553.259v-13.722M566.186 553.259h0M567.988 553.259v-54.887M569.79 553.259h0M571.591 553.259h0M573.393 553.259h0M575.195 553.259h0M576.997 553.259h0M578.798 553.259v-41.166M580.6 553.259h0M582.402 553.259h0M584.204 553.259h0M586.006 553.259h0M587.807 553.259h0M589.61 553.259v-13.722M591.41 553.259h0M593.213 553.259v-27.444M595.014 553.259v-13.722M596.816 553.259h0M598.618 553.259h0M600.42 553.259h0M602.222 553.259v-41.166M604.023 553.259h0M605.825 553.259v-13.722M607.627 553.259h0M609.429 553.259h0M611.23 553.259h0M613.032 553.259h0M614.834 553.259h0M616.636 553.259h0M618.438 553.259h0M620.24 553.259h0M622.041 553.259h0M623.843 553.259h0M625.645 553.259h0M627.447 553.259v-27.444M629.248 553.259v-13.722M631.05 553.259v-68.61M632.852 553.259V429.763M634.654 553.259v-27.444M636.456 553.259h0M638.257 553.259h0M640.06 553.259v-27.444M641.861 553.259v-82.33M643.663 553.259v-13.722M645.465 553.259v-68.61M647.266 553.259v-68.61M649.068 553.259v-41.166M650.87 553.259v-41.166M652.672 553.259v-27.444M654.473 553.259h0M656.275 553.259v-54.887M658.077 553.259h0M659.879 553.259h0M661.68 553.259h0M663.482 553.259h0M665.284 553.259v-82.33M667.086 553.259v-54.887M668.888 553.259v-68.61M670.69 553.259v-68.61M672.491 553.259v-68.61M674.293 553.259h0M676.095 553.259h0M677.897 553.259V388.597M679.699 553.259v-13.722M681.5 553.259v-96.053M683.302 553.259v-41.166M685.104 553.259v-68.61M686.906 553.259h0M688.707 553.259h0M690.51 553.259V292.545M692.311 553.259v-54.887M694.113 553.259h0M695.915 553.259v-233.27M697.716 553.259v-96.053M699.518 553.259h0M701.32 553.259h0M703.122 553.259V333.71M704.924 553.259V388.597M706.725 553.259V388.597M708.527 553.259V443.485M710.329 553.259V361.154M712.13 553.259v-68.61M713.932 553.259h0M715.734 553.259V361.154M717.536 553.259V443.485M719.338 553.259v-82.33M721.14 553.259h0M722.941 553.259h0M724.743 553.259V278.823M726.545 553.259h0M728.347 553.259V361.154M730.149 553.259v-96.053M731.95 553.259v-150.94M733.752 553.259V333.71M735.554 553.259V223.936M737.356 553.259v-150.94M739.158 553.259h0M740.96 553.259v-150.94M742.761 553.259V388.597M744.563 553.259v-68.61M746.365 553.259V306.267M748.166 553.259V429.763M749.968 553.259h0M751.77 553.259h0M753.572 553.259V361.154M755.374 553.259V429.763M757.175 553.259v-96.053M758.977 553.259h0M760.779 553.259v-233.27M762.58 553.259h0M764.383 553.259h0M766.184 553.259V182.77M767.986 553.259v-96.053M769.788 553.259V182.77M771.59 553.259v-68.61M773.392 553.259h0M775.193 553.259h0M776.995 553.259h0M778.797 553.259V141.605M780.599 553.259v-68.61M782.4 553.259V292.545M784.202 553.259v-150.94M786.004 553.259h0M787.806 553.259h0M789.608 553.259h0M791.41 553.259V100.44M793.211 553.259V306.267M795.013 553.259V361.154M796.815 553.259V347.432M798.617 553.259V388.597M800.418 553.259V416.04M802.22 553.259h0M804.022 553.259v-301.88M805.824 553.259v-150.94M807.625 553.259V347.432M809.427 553.259V416.04"/></g><path clip-path="url(#p289a77c8c9)" d="M173.396 553.259h91.891l1.802-1.96h3.604l1.801-.98h1.802l3.604-5.881 1.801-5.881 1.802-.98 1.802-2.94 1.802-1.96 1.802-4.902 1.801-7.84 1.802-6.861h1.802l1.802-5.881 1.802-15.682 1.801-9.801 1.802-2.94 1.802-1.961h1.802l1.802-3.92 1.801-5.881 1.802.98 1.802 1.96 1.802-.98 1.801 3.92 1.802 2.94 1.802-2.94 1.802.98 1.802 12.742 1.801 10.782 1.802-1.96 1.802 1.96 1.802-1.96 1.802 4.9h5.405l1.802.98 1.802 3.92 5.405 5.881h3.603l1.802 4.901 1.802 2.94 3.604 9.802 1.801 5.88 1.802 1.96h1.802l1.802.98 1.802-3.92 1.801.98 3.604 3.92 1.802 2.941h3.603l1.802-.98h3.604l1.801.98h3.604l1.802 3.92 1.802 2.941 3.603 1.96 1.802-.98h3.604l1.801-2.94h14.415l1.801-.98h1.802l1.802.98h3.604l1.801 2.94h10.811l1.802-1.96 1.802.98h1.801l1.802-.98h5.406l1.801-3.92 1.802.98 1.802-.98h7.207l1.802-3.921 1.802-.98 1.801.98h1.802l1.802-.98h3.604l1.801 1.96 1.802-.98 1.802.98h7.207l1.802 5.88 1.802-1.96 1.802-.98h1.801l1.802 1.96h3.604l3.603 1.961h1.802l1.802-.98h5.405l1.802-.98 1.802 2.94h1.802l1.801.98h5.406l1.801.98h1.802l1.802-.98 1.802.98 1.802-.98h7.207l1.802.98 3.603-1.96h5.406l1.801-1.96h1.802l1.802-.98 1.802.98h7.207l1.802-3.92 3.603 1.96h5.406l1.801-.98 3.604 1.96h9.009l1.802 1.96 1.801-.98h5.406l1.802-2.94 1.801 2.94 1.802-.98h7.207l1.802.98h1.802l1.802 1.96 1.801.98h5.406l1.802.98 1.801-.98 1.802-3.92 1.802-8.821 1.802-1.96h3.603l1.802-1.96 1.802-5.882 1.802-.98 3.603-9.801 3.604-5.88h1.802l3.603 1.96 1.802 8.82 1.802 1.96h3.603l1.802-3.92 1.802 1.96 1.802-3.92h3.603l3.604 5.88 1.802-9.8 1.802-.98 3.603-5.881 1.802-4.901h3.603l1.802-12.742h1.802l1.802 4.901 1.802-11.761 1.801-1.96h3.604l1.802-3.921 1.802-10.782 3.603-9.8 1.802-8.822 1.802-4.9h1.801l1.802 4.9 1.802-3.92 1.802-5.881 1.802 16.662 1.801 6.86 1.802-19.602h1.802l1.802 1.96 1.802 4.901 1.801.98 1.802-7.84 1.802-9.802 1.802-5.88h1.802l1.801 2.94 1.802-3.921 1.802.98 1.802-17.642 1.801-8.821L749.968 418h3.604l1.802-1.96 1.801 3.92 1.802 15.683 1.802 6.86 1.802 10.782h1.802l1.801-15.682 1.802 4.9 1.802-21.562 1.802 12.741 1.802 8.821h3.603l1.802-15.682 1.802 3.92 1.801-11.76 1.802-10.782 1.802 16.662h3.604l1.801-5.88 1.802-10.782 1.802 12.742 1.802-9.802 1.802-11.761 1.801-9.801h1.802l1.802 7.84 1.802-5.88 1.801 3.92 1.802.98h0" fill="none" stroke="#000" stroke-linecap="round" stroke-width="1.5" id="line2d_1"/><path d="M117 576.72V77.76" fill="none" stroke="#d3d3d3" stroke-linecap="square" stroke-width="1.25" id="patch_3"/><path d="M117 576.72h725.4" fill="none" stroke="#d3d3d3" stroke-linecap="square" stroke-width="1.25" id="patch_4"/><g id="matplotlib.axis_1"><g id="xtick_1"><g transform="matrix(.16 0 0 -.16 114.217 598.378)" fill="#696969" id="text_1"><defs><path d="M9.813 72.906h9.859V5.078q0-13.187-5-19.14-5-5.954-16.094-5.954h-3.75v8.297h3.078q6.531 0 9.219 3.672Q9.813-4.39 9.813 5.078z" id="DejaVuSans-74"/><path d="M34.281 27.484q-10.89 0-15.093-2.484-4.204-2.484-4.204-8.5 0-4.781 3.157-7.594 3.156-2.797 8.562-2.797 7.485 0 12 5.297 4.516 5.297 4.516 14.078v2zm17.922 3.72V0H43.22v8.297Q40.14 3.328 35.547.953q-4.594-2.375-11.234-2.375-8.391 0-13.36 4.719Q6 8.016 6 15.922q0 9.219 6.172 13.906 6.187 4.688 18.437 4.688h12.61v.89q0 6.203-4.078 9.594-4.078 3.39-11.453 3.39-4.688 0-9.141-1.124-4.438-1.125-8.531-3.375v8.312q4.921 1.906 9.562 2.844 4.64.953 9.031.953 11.875 0 17.735-6.156 5.86-6.14 5.86-18.64z" id="DejaVuSans-97"/><path d="M54.89 33.016V0h-8.984v32.719q0 7.765-3.031 11.61-3.031 3.858-9.078 3.858-7.281 0-11.484-4.64-4.204-4.625-4.204-12.64V0H9.08v54.688h9.03v-8.5q3.235 4.937 7.594 7.374Q30.078 56 35.797 56q9.422 0 14.25-5.828 4.844-5.828 4.844-17.156z" id="DejaVuSans-110"/></defs><use xlink:href="#DejaVuSans-74"/><use x="29.492" xlink:href="#DejaVuSans-97"/><use x="90.771" xlink:href="#DejaVuSans-110"/></g></g><g id="xtick_2"><g transform="matrix(.16 0 0 -.16 219.563 598.378)" fill="#696969" id="text_2"><defs><path d="M9.813 72.906h14.703l18.593-49.61 18.703 49.61h14.704V0H66.89v64.016l-18.797-50h-9.907l-18.796 50V0H9.813z" id="DejaVuSans-77"/><path d="M41.11 46.297q-1.516.875-3.297 1.281Q36.03 48 33.89 48q-7.625 0-11.703-4.953-4.079-4.953-4.079-14.234V0H9.08v54.688h9.03v-8.5q2.844 4.984 7.375 7.39Q30.031 56 36.531 56q.922 0 2.047-.125 1.125-.11 2.484-.36z" id="DejaVuSans-114"/></defs><use xlink:href="#DejaVuSans-77"/><use x="86.279" xlink:href="#DejaVuSans-97"/><use x="147.559" xlink:href="#DejaVuSans-114"/></g></g><g id="xtick_3"><g transform="matrix(.16 0 0 -.16 328.026 598.378)" fill="#696969" id="text_3"><defs><path d="M32.172-5.078q-3.797-9.766-7.422-12.735-3.61-2.984-9.656-2.984H7.906v7.516h5.282q3.703 0 5.75 1.765Q21-9.766 23.483-3.219l1.61 4.094-22.11 53.813H12.5l17.094-42.766 17.093 42.766h9.516z" id="DejaVuSans-121"/></defs><use xlink:href="#DejaVuSans-77"/><use x="86.279" xlink:href="#DejaVuSans-97"/><use x="147.559" xlink:href="#DejaVuSans-121"/></g></g><g id="xtick_4"><g transform="matrix(.16 0 0 -.16 444.822 598.378)" fill="#696969" id="text_4"><defs><path d="M8.5 21.578v33.11h8.984V21.922q0-7.766 3.016-11.656 3.031-3.875 9.094-3.875 7.265 0 11.484 4.64 4.234 4.64 4.234 12.656v31h8.985V0h-8.984v8.406Q42.047 3.422 37.718 1q-4.313-2.422-10.032-2.422-9.421 0-14.312 5.86Q8.5 10.296 8.5 21.578zM31.11 56z" id="DejaVuSans-117"/><path d="M9.422 75.984h8.984V0H9.422z" id="DejaVuSans-108"/></defs><use xlink:href="#DejaVuSans-74"/><use x="29.492" xlink:href="#DejaVuSans-117"/><use x="92.871" xlink:href="#DejaVuSans-108"/></g></g><g id="xtick_5"><g transform="matrix(.16 0 0 -.16 551.106 598.378)" fill="#696969" id="text_5"><defs><path d="M53.516 70.516V60.89q-5.61 2.687-10.594 4-4.984 1.328-9.625 1.328-8.047 0-12.422-3.125t-4.375-8.89q0-4.845 2.906-7.313 2.907-2.453 11.016-3.97l5.953-1.218q11.031-2.11 16.281-7.406 5.25-5.297 5.25-14.172 0-10.61-7.11-16.078-7.093-5.469-20.812-5.469-5.172 0-11.015 1.172Q13.14.922 6.89 3.219v10.156q6-3.36 11.765-5.078 5.766-1.703 11.328-1.703 8.438 0 13.032 3.312 4.593 3.328 4.593 9.485 0 5.359-3.297 8.39-3.296 3.032-10.812 4.547L27.484 33.5q-11.03 2.188-15.968 6.875-4.922 4.688-4.922 13.047 0 9.672 6.812 15.234 6.813 5.563 18.766 5.563 5.14 0 10.453-.938 5.328-.922 10.89-2.765z" id="DejaVuSans-83"/><path d="M56.203 29.594v-4.39H14.891q.593-9.282 5.593-14.142 5-4.859 13.938-4.859 5.172 0 10.031 1.266 4.86 1.265 9.656 3.812v-8.5Q49.266.734 44.187-.344 39.11-1.422 33.892-1.422q-13.094 0-20.735 7.61-7.64 7.625-7.64 20.625 0 13.421 7.25 21.296Q20.016 56 32.328 56q11.031 0 17.453-7.11 6.422-7.093 6.422-19.296zm-8.984 2.64q-.094 7.36-4.125 11.75-4.032 4.407-10.672 4.407-7.516 0-12.031-4.25-4.516-4.25-5.203-11.97z" id="DejaVuSans-101"/><path d="M18.11 8.203v-29H9.077v75.484h9.031v-8.296q2.844 4.875 7.157 7.234Q29.594 56 35.594 56q9.968 0 16.187-7.906 6.235-7.907 6.235-20.797T51.78 6.484q-6.218-7.906-16.187-7.906-6 0-10.328 2.375-4.313 2.375-7.157 7.25zm30.578 19.094q0 9.906-4.079 15.547-4.078 5.64-11.203 5.64-7.14 0-11.218-5.64-4.079-5.64-4.079-15.547 0-9.906 4.078-15.547 4.079-5.64 11.22-5.64 7.124 0 11.202 5.64t4.078 15.547z" id="DejaVuSans-112"/></defs><use xlink:href="#DejaVuSans-83"/><use x="63.477" xlink:href="#DejaVuSans-101"/><use x="125" xlink:href="#DejaVuSans-112"/></g></g><g id="xtick_6"><g transform="matrix(.16 0 0 -.16 660.48 598.378)" fill="#696969" id="text_6"><defs><path d="M9.813 72.906h13.28l32.329-60.984v60.984h9.562V0h-13.28L19.39 60.984V0H9.813z" id="DejaVuSans-78"/><path d="M30.61 48.39q-7.22 0-11.422-5.64-4.204-5.64-4.204-15.453 0-9.813 4.172-15.453 4.188-5.64 11.453-5.64 7.188 0 11.375 5.655 4.203 5.672 4.203 15.438 0 9.719-4.203 15.406-4.187 5.688-11.375 5.688zm0 7.61q11.718 0 18.406-7.625 6.703-7.61 6.703-21.078 0-13.422-6.703-21.078-6.688-7.64-18.407-7.64-11.765 0-18.437 7.64-6.656 7.656-6.656 21.078 0 13.469 6.656 21.078Q18.844 56 30.609 56z" id="DejaVuSans-111"/><path d="M2.984 54.688H12.5L29.594 8.797l17.093 45.89h9.516L35.687 0H23.485z" id="DejaVuSans-118"/></defs><use xlink:href="#DejaVuSans-78"/><use x="74.805" xlink:href="#DejaVuSans-111"/><use x="135.986" xlink:href="#DejaVuSans-118"/></g></g><g id="xtick_7"><g transform="matrix(.16 0 0 -.16 773.672 598.378)" fill="#696969" id="text_7"><use xlink:href="#DejaVuSans-74"/><use x="29.492" xlink:href="#DejaVuSans-97"/><use x="90.771" xlink:href="#DejaVuSans-110"/></g></g></g><g id="matplotlib.axis_2"><g id="ytick_1"><g transform="matrix(.16 0 0 -.16 97.32 559.338)" fill="#696969" id="text_8"><defs><path d="M31.781 66.406q-7.61 0-11.453-7.5Q16.5 51.422 16.5 36.375q0-14.984 3.828-22.484 3.844-7.5 11.453-7.5 7.672 0 11.5 7.5 3.844 7.5 3.844 22.484 0 15.047-3.844 22.531-3.828 7.5-11.5 7.5zm0 7.813q12.266 0 18.735-9.703 6.468-9.688 6.468-28.141 0-18.406-6.468-28.11-6.47-9.687-18.735-9.687-12.25 0-18.718 9.688-6.47 9.703-6.47 28.109 0 18.453 6.47 28.14Q19.53 74.22 31.78 74.22z" id="DejaVuSans-48"/></defs><use xlink:href="#DejaVuSans-48"/></g></g><g id="ytick_2"><g transform="matrix(.16 0 0 -.16 97.32 490.729)" fill="#696969" id="text_9"><defs><path d="M10.797 72.906h38.719v-8.312H19.828v-17.86q2.14.735 4.281 1.094 2.157.36 4.313.36 12.203 0 19.328-6.688 7.14-6.688 7.14-18.11 0-11.765-7.328-18.296-7.328-6.516-20.656-6.516-4.593 0-9.36.781-4.75.782-9.827 2.344v9.922q4.39-2.39 9.078-3.563 4.687-1.171 9.906-1.171 8.453 0 13.375 4.437 4.938 4.438 4.938 12.063 0 7.609-4.938 12.047-4.922 4.453-13.375 4.453-3.953 0-7.89-.875-3.922-.875-8.016-2.735z" id="DejaVuSans-53"/></defs><use xlink:href="#DejaVuSans-53"/></g></g><g id="ytick_3"><g transform="matrix(.16 0 0 -.16 87.14 422.12)" fill="#696969" id="text_10"><defs><path d="M12.406 8.297h16.11v55.625l-17.532-3.516v8.985l17.438 3.515h9.86V8.296H54.39V0H12.406z" id="DejaVuSans-49"/></defs><use xlink:href="#DejaVuSans-49"/><use x="63.623" xlink:href="#DejaVuSans-48"/></g></g><g id="ytick_4"><g transform="matrix(.16 0 0 -.16 87.14 353.51)" fill="#696969" id="text_11"><use xlink:href="#DejaVuSans-49"/><use x="63.623" xlink:href="#DejaVuSans-53"/></g></g><g id="ytick_5"><g transform="matrix(.16 0 0 -.16 87.14 284.902)" fill="#696969" id="text_12"><defs><path d="M19.188 8.297h34.421V0H7.33v8.297q5.609 5.812 15.296 15.594 9.703 9.797 12.188 12.64 4.734 5.313 6.609 9 1.89 3.688 1.89 7.25 0 5.813-4.078 9.469-4.078 3.672-10.625 3.672-4.64 0-9.797-1.61-5.14-1.609-11-4.89v9.969Q13.767 71.78 18.938 73q5.188 1.219 9.485 1.219 11.328 0 18.062-5.672 6.735-5.656 6.735-15.125 0-4.5-1.688-8.531-1.672-4.016-6.125-9.485-1.218-1.422-7.765-8.187-6.532-6.766-18.453-18.922z" id="DejaVuSans-50"/></defs><use xlink:href="#DejaVuSans-50"/><use x="63.623" xlink:href="#DejaVuSans-48"/></g></g><g id="ytick_6"><g transform="matrix(.16 0 0 -.16 87.14 216.293)" fill="#696969" id="text_13"><use xlink:href="#DejaVuSans-50"/><use x="63.623" xlink:href="#DejaVuSans-53"/></g></g><g id="ytick_7"><g transform="matrix(.16 0 0 -.16 87.14 147.684)" fill="#696969" id="text_14"><defs><path d="M40.578 39.313Q47.656 37.797 51.625 33q3.984-4.781 3.984-11.813 0-10.78-7.422-16.703-7.421-5.906-21.093-5.906-4.578 0-9.438.906-4.86.907-10.031 2.72v9.515q4.094-2.39 8.969-3.61 4.89-1.218 10.218-1.218 9.266 0 14.125 3.656 4.86 3.656 4.86 10.64 0 6.454-4.516 10.079-4.515 3.64-12.562 3.64h-8.5v8.11h8.89q7.266 0 11.125 2.906 3.86 2.906 3.86 8.375 0 5.61-3.985 8.61-3.968 3.015-11.39 3.015-4.063 0-8.703-.89-4.641-.876-10.203-2.72v8.782q5.624 1.562 10.53 2.344 4.907.78 9.25.78 11.235 0 17.766-5.109 6.547-5.093 6.547-13.78 0-6.063-3.468-10.235-3.47-4.172-9.86-5.782z" id="DejaVuSans-51"/></defs><use xlink:href="#DejaVuSans-51"/><use x="63.623" xlink:href="#DejaVuSans-48"/></g></g><g transform="matrix(0 -.2 -.2 0 78.98 379.813)" fill="#696969" id="text_15"><defs><path d="M51.125 44H36.922l-4.11-16.313h14.313zm-7.328 27.781l-5.078-20.265h14.265L58.11 71.78h7.813L60.89 51.516h15.234V44h-17.14l-4-16.313h15.53V20.22H53.079L48 0h-7.813l5.032 20.219H30.906L25.875 0h-7.86l5.079 20.219H7.719v7.468h17.187L29 44H13.281v7.516h17.625l4.985 20.265z" id="DejaVuSans-35"/><path d="M37.11 75.984V68.5h-8.594q-4.828 0-6.72-1.953-1.874-1.953-1.874-7.031v-4.828h14.797v-6.985H19.922V0H10.89v47.703H2.297v6.984h8.594V58.5q0 9.125 4.25 13.297 4.25 4.187 13.468 4.187z" id="DejaVuSans-102"/><path d="M48.781 52.594v-8.407q-3.812 2.11-7.64 3.157-3.828 1.047-7.735 1.047-8.75 0-13.593-5.547-4.829-5.532-4.829-15.547 0-10.016 4.829-15.563 4.843-5.53 13.593-5.53 3.907 0 7.735 1.046 3.828 1.047 7.64 3.156V2.094Q45.016.344 40.984-.531q-4.015-.89-8.562-.89-12.36 0-19.64 7.765-7.266 7.765-7.266 20.953 0 13.375 7.343 21.031Q20.22 56 33.016 56q4.14 0 8.093-.86 3.953-.843 7.672-2.546z" id="DejaVuSans-99"/><path d="M44.281 53.078v-8.5q-3.797 1.953-7.906 2.922-4.094.984-8.5.984-6.688 0-10.031-2.047-3.344-2.046-3.344-6.156 0-3.125 2.39-4.906 2.391-1.781 9.626-3.39l3.078-.688q9.562-2.047 13.593-5.781 4.032-3.735 4.032-10.422 0-7.625-6.032-12.078-6.03-4.438-16.578-4.438-4.39 0-9.156.86Q10.688.296 5.422 2v9.281q4.984-2.594 9.812-3.89 4.829-1.282 9.579-1.282 6.343 0 9.75 2.172 3.421 2.172 3.421 6.125 0 3.656-2.468 5.61-2.453 1.953-10.813 3.765l-3.125.735q-8.344 1.75-12.062 5.39-3.704 3.64-3.704 9.985 0 7.718 5.47 11.906Q16.75 56 26.811 56q4.97 0 9.36-.734 4.406-.72 8.11-2.188z" id="DejaVuSans-115"/></defs><use xlink:href="#DejaVuSans-35"/><use x="83.789" xlink:href="#DejaVuSans-32"/><use x="115.576" xlink:href="#DejaVuSans-111"/><use x="176.758" xlink:href="#DejaVuSans-102"/><use x="211.963" xlink:href="#DejaVuSans-32"/><use x="243.75" xlink:href="#DejaVuSans-99"/><use x="298.73" xlink:href="#DejaVuSans-97"/><use x="360.01" xlink:href="#DejaVuSans-115"/><use x="412.109" xlink:href="#DejaVuSans-101"/><use x="473.633" xlink:href="#DejaVuSans-115"/></g></g><g transform="matrix(.24 0 0 -.24 308.75 71.76)" fill="#696969" id="text_16"><defs><path d="M44.39 34.188q3.172-1.079 6.172-4.594 3-3.516 6.032-9.672L66.609 0H56l-9.313 18.703q-3.624 7.328-7.015 9.719-3.39 2.39-9.25 2.39h-10.75V0h-9.86v72.906h22.266q12.5 0 18.656-5.234 6.157-5.219 6.157-15.766 0-6.89-3.203-11.437-3.204-4.532-9.297-6.282zM19.673 64.797V38.922h12.406q7.125 0 10.766 3.297 3.64 3.297 3.64 9.687 0 6.39-3.64 9.64-3.64 3.25-10.766 3.25z" id="DejaVuSans-82"/><path d="M18.313 70.219V54.688h18.5v-6.985h-18.5V18.016q0-6.688 1.828-8.594 1.828-1.906 7.453-1.906h9.218V0h-9.218q-10.407 0-14.36 3.875-3.953 3.89-3.953 14.14v29.688H2.687v6.984h6.594V70.22z" id="DejaVuSans-116"/><path d="M54.89 33.016V0h-8.984v32.719q0 7.765-3.031 11.61-3.031 3.858-9.078 3.858-7.281 0-11.484-4.64-4.204-4.625-4.204-12.64V0H9.08v75.984h9.03V46.188q3.235 4.937 7.594 7.374Q30.078 56 35.797 56q9.422 0 14.25-5.828 4.844-5.828 4.844-17.156z" id="DejaVuSans-104"/><path d="M45.406 46.39v29.594h8.985V0h-8.985v8.203Q42.578 3.328 38.25.953q-4.313-2.375-10.375-2.375-9.906 0-16.14 7.906-6.22 7.922-6.22 20.813 0 12.89 6.22 20.797Q17.968 56 27.874 56q6.063 0 10.375-2.375 4.328-2.36 7.156-7.234zm-30.61-19.093q0-9.906 4.079-15.547 4.078-5.64 11.203-5.64 7.125 0 11.219 5.64 4.11 5.64 4.11 15.547 0 9.906-4.11 15.547-4.094 5.64-11.219 5.64-7.125 0-11.203-5.64-4.078-5.64-4.078-15.547z" id="DejaVuSans-100"/><path d="M4.203 54.688h8.985l11.234-42.672 11.172 42.672h10.593l11.235-42.672 11.187 42.672h8.985L63.28 0H52.688L40.922 44.828 29.109 0H18.5z" id="DejaVuSans-119"/><path d="M64.406 67.281v-10.39q-4.984 4.64-10.625 6.922-5.64 2.296-11.984 2.296-12.5 0-19.14-7.64-6.641-7.64-6.641-22.094 0-14.406 6.64-22.047 6.64-7.64 19.14-7.64 6.345 0 11.985 2.296 5.64 2.297 10.625 6.938V5.609Q59.234 2.094 53.437.33q-5.78-1.75-12.218-1.75-16.563 0-26.094 10.124-9.516 10.14-9.516 27.672 0 17.578 9.516 27.703 9.531 10.14 26.094 10.14 6.531 0 12.312-1.734 5.797-1.734 10.875-5.203z" id="DejaVuSans-67"/><path d="M9.422 54.688h8.984V0H9.422zm0 21.296h8.984v-11.39H9.422z" id="DejaVuSans-105"/></defs><use xlink:href="#DejaVuSans-82"/><use x="64.982" xlink:href="#DejaVuSans-117"/><use x="128.361" xlink:href="#DejaVuSans-116"/><use x="167.57" xlink:href="#DejaVuSans-104"/><use x="230.949" xlink:href="#DejaVuSans-101"/><use x="292.473" xlink:href="#DejaVuSans-114"/><use x="333.586" xlink:href="#DejaVuSans-102"/><use x="368.791" xlink:href="#DejaVuSans-111"/><use x="429.973" xlink:href="#DejaVuSans-114"/><use x="469.336" xlink:href="#DejaVuSans-100"/><use x="532.813" xlink:href="#DejaVuSans-32"/><use x="564.6" xlink:href="#DejaVuSans-78"/><use x="639.404" xlink:href="#DejaVuSans-101"/><use x="700.928" xlink:href="#DejaVuSans-119"/><use x="782.715" xlink:href="#DejaVuSans-32"/><use x="814.502" xlink:href="#DejaVuSans-67"/><use x="884.326" xlink:href="#DejaVuSans-111"/><use x="945.508" xlink:href="#DejaVuSans-118"/><use x="1004.688" xlink:href="#DejaVuSans-105"/><use x="1032.471" xlink:href="#DejaVuSans-100"/><use x="1095.947" xlink:href="#DejaVuSans-32"/><use x="1127.734" xlink:href="#DejaVuSans-67"/><use x="1197.559" xlink:href="#DejaVuSans-97"/><use x="1258.838" xlink:href="#DejaVuSans-115"/><use x="1310.938" xlink:href="#DejaVuSans-101"/><use x="1372.461" xlink:href="#DejaVuSans-115"/></g><g id="legend_1"><path d="M128.2 161.015h144.675q3.2 0 3.2-3.2V88.96q0-3.2-3.2-3.2H128.2q-3.2 0-3.2 3.2v68.855q0 3.2 3.2 3.2z" fill="none" opacity=".8" stroke="#ccc" id="patch_5"/><path d="M131.4 98.718h32" fill="none" stroke="#000" stroke-linecap="round" stroke-width="1.5" id="line2d_4"/><g transform="matrix(.16 0 0 -.16 176.2 104.317)" fill="#696969" id="text_17"><defs><path d="M37.797 64.313L12.89 25.39h24.906zm-2.594 8.593H47.61V25.391h10.407v-8.203H47.609V0h-9.812v17.188H4.89v9.515z" id="DejaVuSans-52"/><path d="M45.406 27.984q0 9.766-4.031 15.125-4.016 5.375-11.297 5.375-7.219 0-11.25-5.375-4.031-5.359-4.031-15.125 0-9.718 4.031-15.093t11.25-5.375q7.281 0 11.297 5.375 4.031 5.375 4.031 15.093zm8.985-21.203q0-13.953-6.203-20.765Q42-20.797 29.203-20.797q-4.734 0-8.937.703-4.203.703-8.157 2.172v8.735q3.954-2.141 7.813-3.157 3.86-1.031 7.86-1.031 8.843 0 13.234 4.61 4.39 4.609 4.39 13.937v4.453q-2.781-4.844-7.125-7.234Q33.938 0 27.875 0 17.828 0 11.672 7.656q-6.156 7.672-6.156 20.328 0 12.688 6.156 20.344Q17.828 56 27.875 56q6.063 0 10.406-2.39 4.344-2.391 7.125-7.22v8.297h8.985z" id="DejaVuSans-103"/></defs><use xlink:href="#DejaVuSans-49"/><use x="63.623" xlink:href="#DejaVuSans-52"/><use x="127.246" xlink:href="#DejaVuSans-100"/><use x="190.723" xlink:href="#DejaVuSans-32"/><use x="222.51" xlink:href="#DejaVuSans-97"/><use x="283.789" xlink:href="#DejaVuSans-118"/><use x="342.969" xlink:href="#DejaVuSans-103"/></g><path d="M131.4 127.802h32v-11.2h-32z" fill="#089fff" opacity=".2" stroke="#fff" id="patch_6"/><g transform="matrix(.16 0 0 -.16 176.2 127.802)" fill="#696969" id="text_18"><defs><path d="M8.688 72.906h9.921V28.61q0-11.718 4.235-16.875 4.25-5.14 13.781-5.14 9.469 0 13.719 5.14 4.25 5.157 4.25 16.875v44.297H64.5V27.391q0-14.25-7.063-21.532-7.046-7.28-20.812-7.28-13.828 0-20.89 7.28-7.047 7.282-7.047 21.532z" id="DejaVuSans-85"/></defs><use xlink:href="#DejaVuSans-85"/><use x="73.193" xlink:href="#DejaVuSans-110"/><use x="136.572" xlink:href="#DejaVuSans-99"/><use x="191.553" xlink:href="#DejaVuSans-101"/><use x="253.076" xlink:href="#DejaVuSans-114"/><use x="294.189" xlink:href="#DejaVuSans-116"/><use x="333.398" xlink:href="#DejaVuSans-97"/><use x="394.678" xlink:href="#DejaVuSans-105"/><use x="422.461" xlink:href="#DejaVuSans-110"/><use x="485.84" xlink:href="#DejaVuSans-116"/><use x="525.049" xlink:href="#DejaVuSans-121"/></g><path d="M147.4 151.287v-7.7" fill="none" stroke="#000" stroke-dasharray="2.25,3.7125" stroke-width="1.5" id="line2d_6"/><g transform="matrix(.16 0 0 -.16 176.2 151.287)" fill="#696969" id="text_19"><defs><path d="M19.672 64.797V8.109h11.922q15.093 0 22.093 6.829 7 6.843 7 21.593 0 14.64-7 21.453-7 6.813-22.093 6.813zm-9.86 8.11h20.266q21.188 0 31.094-8.813 9.922-8.813 9.922-27.563 0-18.86-9.969-27.703Q51.172 0 30.078 0H9.813z" id="DejaVuSans-68"/></defs><use xlink:href="#DejaVuSans-68"/><use x="77.002" xlink:href="#DejaVuSans-97"/><use x="138.281" xlink:href="#DejaVuSans-105"/><use x="166.064" xlink:href="#DejaVuSans-108"/><use x="193.848" xlink:href="#DejaVuSans-121"/><use x="253.027" xlink:href="#DejaVuSans-32"/><use x="284.814" xlink:href="#DejaVuSans-67"/><use x="354.639" xlink:href="#DejaVuSans-97"/><use x="415.918" xlink:href="#DejaVuSans-115"/><use x="468.018" xlink:href="#DejaVuSans-101"/><use x="529.541" xlink:href="#DejaVuSans-115"/></g></g></g></g><defs><clipPath id="p289a77c8c9"><path d="M117 77.76h725.4v498.96H117z"/></clipPath></defs></svg>