<svg height="864" viewBox="0 0 936 648" width="1248" xmlns="http://www.w3.org/2000/svg" xmlns:xlink="http://www.w3.org/1999/xlink"><defs><style>*{stroke-linecap:butt;stroke-linejoin:round}</style></defs><g id="figure_1"><path d="M0 648h936V0H0z" style="fill:#fff" id="patch_1"/><g id="axes_1"><path d="M117 576.72h725.4V77.76H117z" style="fill:none" id="patch_2"/><g id="PolyCollection_1"><defs><path d="M151.376-95.58H229.949l1.403-1.435 1.403.188 1.403.123 1.404-.753 1.403.146 1.403-2.363 1.403-2.068 1.403-4.258 1.403.109 1.403-1.825 1.403-1.008 1.403-3.68 1.403-6.005 1.403-4.806 1.404 1.29 1.403-4.519 1.403-12.9 1.403-6.87 1.403-1.12 1.403-.893 1.403.236 1.403-3.656 1.403-5.917 1.403.087 1.403.067 1.404-3.243 1.403 1.495 1.403.528 1.403-6.471 1.403-3.36 1.403 11.803 1.403 13.346 1.403-.38 1.403 3.414 1.403-1.067 1.404 5.908 1.403.178 1.403-.18 1.403-.402 1.403.069 1.403 3.294 1.403 1.361 1.403.352 1.403-.576 1.403-.813 1.403.274 1.404 5.343 1.403 3.606 1.403 5.597 1.403 6.263 1.403 7.463 1.403 3.051 1.403.418 1.403 1.019 1.403-4.304 1.403.491 1.404 1.447 1.403 1.422 1.403 2.162 1.403-1.454 1.403-1.33 1.403-2.585 1.403-1.344 1.403-.874 1.403.905 1.403.024 1.403-.024 1.404 4.287 1.403 3.12 1.403 1.13 1.403 1.246 1.403-.863 1.403.203 1.403.113 1.403-3.04 1.403-.234 1.403-.302 1.404-.391 1.403-.354 1.403-.462 1.403-.662 1.403-.08 1.403.02 1.403-.979 1.403-.205 1.403.786 1.403-.281 1.403-.542 1.404 3.477 1.403.281 1.403.192 1.403.137 1.403.096 1.403.063 1.403.033 1.403-1.996 1.403.934 1.403-.17 1.404-1.182 1.403-.09 1.403-.103 1.403-.12 1.403-3.24 1.403 1.2 1.403-.72 1.403.147 1.403.056 1.403-.028 1.403-.114 1.404-3.437 1.403-.639 1.403 1.003h1.403l1.403-1.003 1.403-.173 1.403-.353 1.403 1.88 1.403-1.158 1.403.833 1.404-.184 1.403-.232 1.403-.308 1.403-.461 1.403 7.003 1.403-1.716 1.403-.876 1.403.062 1.403 2.085 1.403.022 1.403-.082 1.404 1.092 1.403 1.01 1.403.022 1.403-1.127 1.403-.242 1.403-.37 1.403-.61 1.403-.988 1.403 3.064 1.403-.07 1.403.93 1.404.112 1.403.046 1.403-.015 1.403 1.108 1.403.124 1.403-.959 1.403.978 1.403-1.08 1.403-.143 1.403-.197 1.404-.622 1.403-.08 1.403.915 1.403-.979 1.403-.87 1.403.082 1.403.066h1.403l1.403-1.685 1.403.21 1.403-.766 1.404 1.049 1.403.037 1.403.005 1.403-.026 1.403-.06 1.403-3.645 1.403 1.033 1.403.955 1.403-.075 1.403-.132 1.404-.206 1.403-.938 1.403.932 1.403.978 1.403-.06 1.403-.066 1.403-.075 1.403-.086 1.403-.1 1.403 2.025 1.403-1.002 1.404.032 1.403.01 1.403-.01 1.403-2.824 1.403 2.792 1.403-1.043h5.612l1.404.987 1.403.003 1.403 2.102 1.403 1.306 1.403.235 1.403.179 1.403.139 1.403.93 1.403-.925 1.403-3.913 1.403-7.266 1.404-.663 1.403.9 1.403.678 1.403-1.244 1.403-4.64 1.403-.126 1.403-3.888 1.403-3.774 1.403-2.063 1.403-2.344 1.404-.213 1.403.087 1.403-.118 1.403 8.034 1.403 1.24 1.403-.872 1.403-1.082 1.403-5.065 1.403 1.493 1.403-4.425 1.403-.12 1.404-.006 1.403 2.862 1.403 2.647 1.403-10.14 1.403-1.107 1.403-2.513 1.403-1.948 1.403-3.662 1.403.696 1.403.309 1.403-10.61 1.404 1.12 1.403 5.245 1.403-10.387 1.403-1.007 1.403.024 1.403-1.104 1.403-3.994 1.403-10.047 1.403-4.054 1.403-3.978 1.404-7.079 1.403-3.614 1.403.135 1.403 5.036 1.403-3.989 1.403-6.754 1.403 15.439 1.403 5.55 1.403-20.747 1.403-2.006 1.403-.524 1.404 3.45 1.403-.033 1.403-8.27 1.403-8.74 1.403-4.267 1.403 1.2 1.403 3.44 1.403-3.099 1.403 1.568 1.403-15.944 1.404-7.755 1.403 19.579 1.403-.18 1.403-.553 1.403-3.352 1.403 1.553 1.403 14.986 1.403 8.239 1.403 13.708 1.403 2.143 1.403-15.332 1.404 5.44 1.403-21.443 1.403 11.76 1.403 6.45 1.403-.41 1.403-.683 1.403-16.42 1.403 2.525 1.403-11.61 1.403-8.162 1.404 16.747 1.403-1.02 1.403-1.524 1.403-5.715 1.403-10.235 1.403 12.718 1.403-9.316 1.403-11.125 1.403-8.62 1.403-.021 1.403 7.977 1.404-5.993 1.403 4.061 1.403 1.289 1.403-9.879 1.403-.689 1.403-1.385 1.403 32.284 1.403-2.273 1.403 3.783 1.403 13.125 1.404 12.13 1.403 13.067 1.403 2.018 1.403-8.015 1.403 7.31 1.403 9.703 1.403 4.45 1.403-7.878 1.403-8.53 1.403-5.864 1.403-1.423 1.404 19.688 1.403-18.485 1.403-5.706 1.403-4.536 1.403.124 1.403.116 1.403 14.37 1.403-2.998 1.403 1.105 1.403-.062 1.404 11.989 1.403-1.44 1.403.278 1.403.06 1.403-14.205 1.403 21.591 1.403 5.941 1.403 2.308 1.403-.28 1.403-8.347 1.403 12.649 1.404 1.317 1.403 1.069 1.403-7.682 1.403-4.07 1.403 6.72 1.403-.295 1.403-15.741 1.403.809 1.403-.718 1.403.39 1.403-7.494 1.404.907 1.403 7.037 1.403-9.267 1.403 1.752 1.403-4.3 1.403-.882 1.403 3.768 1.403-1.295 1.403-2.102 1.403-6.382 1.404 2.475 1.403-2.41 1.403-.853 1.403 8.87 1.403.063 1.403-.837 1.403-9.5 1.403-1.631 1.403 1.215 1.403 5.868 1.403-2.026 1.404-.091 1.403-8.237 1.403 11.753 1.403-.952 1.403 5.16 1.403-14.197 1.403-3.365 1.403.204 1.403-.105 1.403 6.855 1.404-1.905 2.806-.887v-1.123l1.403 1.807 1.403-1.157 1.403 9.018 1.403.881 1.403 3.256 1.403-2.467 1.403 6.949 1.403 4.897 1.404-4.933 1.403-.319 1.403 15.42 1.403 8.795 1.403 3.242 1.403 2.65 1.403.209 1.403.504 1.403-.034 1.403 3.883 1.404 1.92 1.403 1.302 1.403 8.154 1.403-4.176 1.403 2.704 1.403-2.39 1.403.317 1.403-.179 1.403-.265v-14.811l-1.403-.265-1.403-.18-1.403-1.64-1.403-2.389-1.403-5.122-1.403 3.65-1.403-7.499-1.403-2.611-1.404-1.993-1.403-3.943-1.403-.034-1.403-1.453-1.403.208-1.403-1.262-1.403-.672-1.403-4.901-1.403-11.973-1.403-.319-1.404 4.85-1.403-2.929-1.403-4.79-1.403 1.445-1.403-2.613-1.403-1.076-1.403-8.591-1.403.8-1.403-2.107v.834l-2.806 1.07-1.404 2.007-1.403-6.84-1.403-.106-1.403.204-1.403 4.462-1.403 15.152-1.403-4.624-1.403 1.005-1.403-11.726-1.403 9.373-1.404-.091-1.403 1.887-1.403-5.872-1.403-.741-1.403 2.282-1.403 10.066-1.403-.837-1.403.063-1.403-8.74-1.403-.852-1.403 1.502-1.404-3.395-1.403 7.315-1.403-2.102-1.403-1.295-1.403-4.059-1.403 1.074-1.403 3.527-1.403-2.16-1.403 10.299-1.403-6.66-1.404.907-1.403 10.115-1.403.39-1.403 1.24-1.403-7.018-1.403 15.565-1.403-.295-1.403-6.976-1.403 3.756-1.403 6.015-1.403-.888-1.404-.64-1.403-10.83-1.403 5.349-1.403-.28-1.403-1.606-1.403-3.842-1.403-19.498-1.403 13.187-1.403.062-1.403.277-1.403 2.474-1.404-9.534-1.403-.062-1.403-.852-1.403 2.872-1.403-14.98-1.403.116-1.403.125-1.403 3.29-1.403 2.12-1.403 12.821-1.404-21.4-1.403-1.423-1.403-5.865-1.403 1.253-1.403 3.862-1.403-3.376-1.403-7.906-1.403-6.387-1.403 9.594-1.403 2.019-1.403-6.499-1.404-5.48-1.403-8.398-1.403-4.043-1.403 3.596-1.403-32.284-1.403-1.385-1.403-.69-1.403 9.688-1.403-.668-1.403-3.765-1.404 5.746-1.403-7.675-1.403-.021-1.403 10.946-1.403 12.354-1.403 10.25-1.403-12.717-1.403 11.288-1.403 6.024-1.403-1.524-1.403-1.02-1.404-16.516-1.403 13.361-1.403 11.87-1.403-5.302-1.403 14.886-1.403-.683-1.403-.41-1.403-11.16-1.403-13.675-1.403 21.603-1.404-4.344-1.403 15.974-1.403 2.143-1.403-7.815-1.403-5.458-1.403-16.32-1.403-6.273-1.403.562-1.403-.554-1.403-.18-1.403-19.553-1.404 9.855-1.403 19.275-1.403-.389-1.403 4.728-1.403-2.43-1.403 1.2-1.403 7.473-1.403 10.825-1.403 7.384-1.403-1.99-1.404-6.333-1.403-4.437-1.403-2.006-1.403 18.386-1.403-8.147-1.403-17.824-1.403 4.986-1.403 3.838-1.403-4.747-1.403.134-1.403 6.17-1.404 10.53-1.403 5.805-1.403 5.73-1.403 11.475-1.403 3.833-1.403-1.104-1.403.024-1.403 2.906-1.403 13.092-1.403-4.537-1.404 1.119-1.403 14.827-1.403.309-1.403.695-1.403 6.121-1.403 3.923-1.403 3.356-1.403.85-1.403 9.426-1.403-3.223-1.403-3.008-1.404-.006-1.403-.12-1.403 3.402-1.403-2.42-1.403 2.761-1.403-1.082-1.403-.871-1.403-2.675-1.403-9.575-1.403-2.075-1.403-1.87-1.404-.212-1.403 3.526-1.403 3.807-1.403 6.01-1.403 5.893-1.403 1.83-1.403 7.102-1.403 2.669-1.403.677-1.403.9-1.404 3.25-1.403 10.344-1.403 3.914-1.403 1.031-1.403-1.026-1.403.139-1.403.179-1.403.235-1.403-.651-1.403-1.811-1.403.003-1.404-.97h-5.612l-1.403.914-1.403-3.078-1.403 3.046-1.403-.01-1.403.01-1.404.032-1.403.954-1.403-1.888-1.403-.1-1.403-.085-1.403-.076-1.403-.066-1.403-.06-1.403-.978-1.403-1.025-1.403 1.019-1.404-.207-1.403-.132-1.403-.074-1.403-1.002-1.403-.924-1.403 4.181-1.403-.06-1.403-.025-1.403.005-1.403.037-1.404-.907-1.403 1.19-1.403.21-1.403 2.228h-1.403l-1.403.066-1.403.082-1.403 1.086-1.403.979-1.403-1.043-1.403-.08-1.404-.621-1.403-.197-1.403-.143-1.403.876-1.403-.978-1.403.997-1.403.124-1.403-.848-1.403-.015-1.403.045-1.404.113-1.403-1.028-1.403-.069-1.403-2.806-1.403.968-1.403-.609-1.403-.37-1.403-.242-1.403.83-1.403.02-1.403-.945-1.404-.865-1.403-.081-1.403.022-1.403-1.83-1.403.063-1.403 1.08-1.403 2.198-1.403-4.737-1.403-.461-1.403-.308-1.403-.232-1.404-.183-1.403-1.125-1.403.799-1.403-2.033-1.403-.354-1.403-.173-1.403.955h-1.403l-1.403-.955-1.403 1.318-1.404 4.39-1.403-.114-1.403-.028-1.403.056-1.403.146-1.403 1.237-1.403-.756-1.403 4.587-1.403-.12-1.403-.103-1.403-.09-1.404.775-1.403-.17-1.403-1.024-1.403 1.918-1.403.033-1.403.062-1.403.097-1.403.137-1.403.192-1.403.28-1.404-2.392-1.403-.542-1.403-.281-1.403-1.17-1.403-.206-1.403.978-1.403.02-1.403-.08-1.403-.662-1.403-.462-1.403-.354-1.404-.391-1.403-.302-1.403-.233-1.403 2.829-1.403.113-1.403.203-1.403 1.093-1.403-.71-1.403-.827-1.403-2.75-1.404-3.54-1.403-.023-1.403.024-1.403-1.051-1.403-.875-1.403-1.344-1.403-.629-1.403-1.33-1.403-1.453-1.403-3.708-1.403-2.492-1.404-2.466-1.403-1.466-1.403 3.523-1.403-.938-1.403.418-1.403-.861-1.403-4.277-1.403-3.52-1.403-4.186-1.403-2.265-1.404-4.44-1.403.275-1.403-.814-1.403-4.49-1.403-3.56-1.403-2.552-1.403-4.532-1.403-1.888-1.403-.402-1.403-.18-1.403.178-1.404-3.875-1.403 2.846-1.403-.499-1.403 3.533-1.403-8.177-1.403-13.633-1.403-5.316-1.403-.602-1.403-5.342-1.403-6.33-1.404-1.288-1.403-3.845-1.403-1.87-1.403 5.823-1.403 4.17-1.403.236-1.403 3.02-1.403 4.75-1.403 12.697-1.403 18.405-1.403 7.221-1.404 1.29-1.403 8.89-1.403 9.648-1.403 6.104-1.403 2.905-1.403 4.044-1.403 2.066-1.403 7.482-1.403 3.802-1.403 3.506-1.403.147-1.404 1.203-1.403.123-1.403.188-1.403 2.48H151.376z" id="m16288fb5c6" style="stroke:#fff;stroke-opacity:.2"/></defs><g clip-path="url(#pd04d62ba14)"><use style="fill:#089fff;fill-opacity:.2;stroke:#fff;stroke-opacity:.2" xlink:href="#m16288fb5c6" y="648"/></g></g><path clip-path="url(#pd04d62ba14)" d="m149.973 552.42 49.108.064 5.612.271 7.016.599 7.015.625 2.807.061 2.806-.215 1.403-.255 1.403-.384 1.403-.536 1.403-.715 1.403-.916 1.403-1.143 1.403-1.393 1.404-1.668 1.403-1.964 1.403-2.266 1.403-2.575 1.403-2.886 1.403-3.197 2.806-7.231 2.806-8.152 7.016-21.523 2.806-7.512 1.403-3.2 1.403-2.763 1.403-2.292 1.403-1.789 1.403-1.26 1.404-.744 1.403-.249 1.403.225 1.403.67 1.403 1.063 1.403 1.394 1.403 1.664 2.806 3.917 4.21 6.66 8.418 13.91 8.419 13.918 2.806 4.336 2.806 3.908 2.806 3.382 2.807 2.858 2.806 2.374 2.806 1.962 2.806 1.631 2.806 1.39 2.806 1.198 2.807 1.022 2.806.821 2.806.568 2.806.32 4.21.168 9.821.161 11.225.52 2.806-.14 2.806-.341 2.807-.548 2.806-.74 4.209-1.384 8.419-2.948 2.806-.763 2.806-.523 2.806-.244 2.806.056 2.807.329 2.806.563 4.209 1.139 11.225 3.343 5.612 1.366 5.612 1.144 4.21.652 4.21.37 4.208.047 4.21-.271 4.209-.557 5.612-1.068 8.419-1.69 4.21-.622 4.208-.34 4.21-.014 4.209.265 5.612.615 9.822 1.144 4.21.274 2.806-.042 2.806-.369 1.403-.354 1.403-.49 1.403-.645 1.403-.818 1.403-1.002 1.403-1.178 2.806-2.829 2.807-3.34 7.015-8.85 2.806-2.973 1.403-1.244 1.404-1.069 1.403-.882 1.403-.696 2.806-.985 5.612-1.571 1.403-.538 1.403-.667 1.404-.82 1.403-.999 1.403-1.199 1.403-1.419 1.403-1.641 1.403-1.862 1.403-2.08 2.806-4.788 2.806-5.505 2.807-6.071 4.209-9.805 7.015-16.555 2.807-5.958 2.806-5.187 2.806-4.445 2.806-3.829 4.21-5.145 5.612-6.491 2.806-2.936 1.403-1.274 1.403-1.094 1.403-.88 1.403-.63 1.404-.35 1.403-.047 1.403.239 1.403.495 1.403.722 2.806 1.928 2.806 2 1.403.81 1.403.616 1.404.389 1.403.129 1.403-.157 1.403-.447 1.403-.733 1.403-1.017 1.403-1.292 1.403-1.535 2.806-3.647 2.807-4.166 7.015-10.77 1.403-1.814 1.403-1.556 1.403-1.237 1.403-.858 1.404-.418 1.403.072 1.403.578 1.403 1.088 1.403 1.603 1.403 2.108 1.403 2.55 1.403 2.91 2.806 6.585 5.613 13.734 2.806 5.927 1.403 2.596 1.403 2.325 1.403 2.067 1.403 1.833 1.403 1.62 2.807 2.73 4.209 3.46 4.21 3.543 2.805 2.673 5.613 5.815 4.21 4.218 2.805 2.378 1.403.95 1.403.747 1.404.524 1.403.288 1.403.04 1.403-.218 1.403-.455 1.403-.672 1.403-.862 2.806-2.188 4.21-3.897 4.209-3.875 2.806-2.267 2.806-1.923 2.806-1.56 2.807-1.248 4.209-1.47 12.628-4.132 4.209-1.253 2.806-.504 1.403-.078 1.403.074 4.21.71v.668l1.403.885 1.403 1.106 1.403 1.328 1.403 1.539 1.403 1.734 2.806 3.996 2.807 4.58 2.806 5.002 9.821 17.975 4.21 7.081 4.209 6.68 4.21 6.46h0" style="fill:none;stroke:#000;stroke-linecap:round;stroke-width:1.5" id="line2d_1"/><g id="line2d_2"><defs><path d="M0 3a3 3 0 1 0 0-6 3 3 0 0 0 0 6z" id="me462ae1a2d" style="stroke:#4c72b0"/></defs><g clip-path="url(#pd04d62ba14)"><use style="fill-opacity:0;stroke:#4c72b0" x="149.973" xlink:href="#me462ae1a2d" y="552.419"/><use style="fill-opacity:0;stroke:#4c72b0" x="151.376" xlink:href="#me462ae1a2d" y="552.419"/><use style="fill-opacity:0;stroke:#4c72b0" x="152.779" xlink:href="#me462ae1a2d" y="552.419"/><use style="fill-opacity:0;stroke:#4c72b0" x="154.182" xlink:href="#me462ae1a2d" y="552.419"/><use style="fill-opacity:0;stroke:#4c72b0" x="155.585" xlink:href="#me462ae1a2d" y="552.419"/><use style="fill-opacity:0;stroke:#4c72b0" x="156.988" xlink:href="#me462ae1a2d" y="552.419"/><use style="fill-opacity:0;stroke:#4c72b0" x="158.391" xlink:href="#me462ae1a2d" y="552.419"/><use style="fill-opacity:0;stroke:#4c72b0" x="159.794" xlink:href="#me462ae1a2d" y="552.419"/><use style="fill-opacity:0;stroke:#4c72b0" x="161.197" xlink:href="#me462ae1a2d" y="552.419"/><use style="fill-opacity:0;stroke:#4c72b0" x="162.601" xlink:href="#me462ae1a2d" y="552.419"/><use style="fill-opacity:0;stroke:#4c72b0" x="164.004" xlink:href="#me462ae1a2d" y="552.419"/><use style="fill-opacity:0;stroke:#4c72b0" x="165.407" xlink:href="#me462ae1a2d" y="552.419"/><use style="fill-opacity:0;stroke:#4c72b0" x="166.81" xlink:href="#me462ae1a2d" y="552.419"/><use style="fill-opacity:0;stroke:#4c72b0" x="168.213" xlink:href="#me462ae1a2d" y="552.419"/><use style="fill-opacity:0;stroke:#4c72b0" x="169.616" xlink:href="#me462ae1a2d" y="552.419"/><use style="fill-opacity:0;stroke:#4c72b0" x="171.019" xlink:href="#me462ae1a2d" y="552.419"/><use style="fill-opacity:0;stroke:#4c72b0" x="172.422" xlink:href="#me462ae1a2d" y="552.419"/><use style="fill-opacity:0;stroke:#4c72b0" x="173.825" xlink:href="#me462ae1a2d" y="552.419"/><use style="fill-opacity:0;stroke:#4c72b0" x="175.228" xlink:href="#me462ae1a2d" y="552.419"/><use style="fill-opacity:0;stroke:#4c72b0" x="176.632" xlink:href="#me462ae1a2d" y="552.419"/><use style="fill-opacity:0;stroke:#4c72b0" x="178.035" xlink:href="#me462ae1a2d" y="552.419"/><use style="fill-opacity:0;stroke:#4c72b0" x="179.438" xlink:href="#me462ae1a2d" y="552.419"/><use style="fill-opacity:0;stroke:#4c72b0" x="180.841" xlink:href="#me462ae1a2d" y="552.419"/><use style="fill-opacity:0;stroke:#4c72b0" x="182.244" xlink:href="#me462ae1a2d" y="552.419"/><use style="fill-opacity:0;stroke:#4c72b0" x="183.647" xlink:href="#me462ae1a2d" y="552.419"/><use style="fill-opacity:0;stroke:#4c72b0" x="185.05" xlink:href="#me462ae1a2d" y="552.419"/><use style="fill-opacity:0;stroke:#4c72b0" x="186.453" xlink:href="#me462ae1a2d" y="552.419"/><use style="fill-opacity:0;stroke:#4c72b0" x="187.856" xlink:href="#me462ae1a2d" y="552.419"/><use style="fill-opacity:0;stroke:#4c72b0" x="189.259" xlink:href="#me462ae1a2d" y="552.419"/><use style="fill-opacity:0;stroke:#4c72b0" x="190.662" xlink:href="#me462ae1a2d" y="552.419"/><use style="fill-opacity:0;stroke:#4c72b0" x="192.066" xlink:href="#me462ae1a2d" y="552.419"/><use style="fill-opacity:0;stroke:#4c72b0" x="193.469" xlink:href="#me462ae1a2d" y="552.419"/><use style="fill-opacity:0;stroke:#4c72b0" x="194.872" xlink:href="#me462ae1a2d" y="552.419"/><use style="fill-opacity:0;stroke:#4c72b0" x="196.275" xlink:href="#me462ae1a2d" y="552.419"/><use style="fill-opacity:0;stroke:#4c72b0" x="197.678" xlink:href="#me462ae1a2d" y="552.419"/><use style="fill-opacity:0;stroke:#4c72b0" x="199.081" xlink:href="#me462ae1a2d" y="552.419"/><use style="fill-opacity:0;stroke:#4c72b0" x="200.484" xlink:href="#me462ae1a2d" y="552.419"/><use style="fill-opacity:0;stroke:#4c72b0" x="201.887" xlink:href="#me462ae1a2d" y="552.419"/><use style="fill-opacity:0;stroke:#4c72b0" x="203.29" xlink:href="#me462ae1a2d" y="552.419"/><use style="fill-opacity:0;stroke:#4c72b0" x="204.693" xlink:href="#me462ae1a2d" y="552.419"/><use style="fill-opacity:0;stroke:#4c72b0" x="206.097" xlink:href="#me462ae1a2d" y="552.419"/><use style="fill-opacity:0;stroke:#4c72b0" x="207.5" xlink:href="#me462ae1a2d" y="552.419"/><use style="fill-opacity:0;stroke:#4c72b0" x="208.903" xlink:href="#me462ae1a2d" y="552.419"/><use style="fill-opacity:0;stroke:#4c72b0" x="210.306" xlink:href="#me462ae1a2d" y="552.419"/><use style="fill-opacity:0;stroke:#4c72b0" x="211.709" xlink:href="#me462ae1a2d" y="552.419"/><use style="fill-opacity:0;stroke:#4c72b0" x="213.112" xlink:href="#me462ae1a2d" y="552.419"/><use style="fill-opacity:0;stroke:#4c72b0" x="214.515" xlink:href="#me462ae1a2d" y="552.419"/><use style="fill-opacity:0;stroke:#4c72b0" x="215.918" xlink:href="#me462ae1a2d" y="552.419"/><use style="fill-opacity:0;stroke:#4c72b0" x="217.321" xlink:href="#me462ae1a2d" y="552.419"/><use style="fill-opacity:0;stroke:#4c72b0" x="218.724" xlink:href="#me462ae1a2d" y="552.419"/><use style="fill-opacity:0;stroke:#4c72b0" x="220.127" xlink:href="#me462ae1a2d" y="552.419"/><use style="fill-opacity:0;stroke:#4c72b0" x="221.531" xlink:href="#me462ae1a2d" y="552.419"/><use style="fill-opacity:0;stroke:#4c72b0" x="222.934" xlink:href="#me462ae1a2d" y="552.419"/><use style="fill-opacity:0;stroke:#4c72b0" x="224.337" xlink:href="#me462ae1a2d" y="552.419"/><use style="fill-opacity:0;stroke:#4c72b0" x="225.74" xlink:href="#me462ae1a2d" y="552.419"/><use style="fill-opacity:0;stroke:#4c72b0" x="227.143" xlink:href="#me462ae1a2d" y="552.419"/><use style="fill-opacity:0;stroke:#4c72b0" x="228.546" xlink:href="#me462ae1a2d" y="552.419"/><use style="fill-opacity:0;stroke:#4c72b0" x="229.949" xlink:href="#me462ae1a2d" y="552.419"/><use style="fill-opacity:0;stroke:#4c72b0" x="231.352" xlink:href="#me462ae1a2d" y="525.026"/><use style="fill-opacity:0;stroke:#4c72b0" x="232.755" xlink:href="#me462ae1a2d" y="552.419"/><use style="fill-opacity:0;stroke:#4c72b0" x="234.158" xlink:href="#me462ae1a2d" y="552.419"/><use style="fill-opacity:0;stroke:#4c72b0" x="235.562" xlink:href="#me462ae1a2d" y="538.723"/><use style="fill-opacity:0;stroke:#4c72b0" x="236.965" xlink:href="#me462ae1a2d" y="552.419"/><use style="fill-opacity:0;stroke:#4c72b0" x="238.368" xlink:href="#me462ae1a2d" y="511.33"/><use style="fill-opacity:0;stroke:#4c72b0" x="239.771" xlink:href="#me462ae1a2d" y="511.33"/><use style="fill-opacity:0;stroke:#4c72b0" x="241.174" xlink:href="#me462ae1a2d" y="470.241"/><use style="fill-opacity:0;stroke:#4c72b0" x="242.577" xlink:href="#me462ae1a2d" y="538.723"/><use style="fill-opacity:0;stroke:#4c72b0" x="243.98" xlink:href="#me462ae1a2d" y="511.33"/><use style="fill-opacity:0;stroke:#4c72b0" x="245.383" xlink:href="#me462ae1a2d" y="525.026"/><use style="fill-opacity:0;stroke:#4c72b0" x="246.786" xlink:href="#me462ae1a2d" y="483.937"/><use style="fill-opacity:0;stroke:#4c72b0" x="248.189" xlink:href="#me462ae1a2d" y="442.848"/><use style="fill-opacity:0;stroke:#4c72b0" x="249.592" xlink:href="#me462ae1a2d" y="456.545"/><use style="fill-opacity:0;stroke:#4c72b0" x="250.996" xlink:href="#me462ae1a2d" y="525.026"/><use style="fill-opacity:0;stroke:#4c72b0" x="252.399" xlink:href="#me462ae1a2d" y="470.241"/><use style="fill-opacity:0;stroke:#4c72b0" x="253.802" xlink:href="#me462ae1a2d" y="333.278"/><use style="fill-opacity:0;stroke:#4c72b0" x="255.205" xlink:href="#me462ae1a2d" y="401.759"/><use style="fill-opacity:0;stroke:#4c72b0" x="256.608" xlink:href="#me462ae1a2d" y="511.33"/><use style="fill-opacity:0;stroke:#4c72b0" x="258.011" xlink:href="#me462ae1a2d" y="483.937"/><use style="fill-opacity:0;stroke:#4c72b0" x="259.414" xlink:href="#me462ae1a2d" y="511.33"/><use style="fill-opacity:0;stroke:#4c72b0" x="260.817" xlink:href="#me462ae1a2d" y="415.456"/><use style="fill-opacity:0;stroke:#4c72b0" x="262.22" xlink:href="#me462ae1a2d" y="456.545"/><use style="fill-opacity:0;stroke:#4c72b0" x="263.623" xlink:href="#me462ae1a2d" y="525.026"/><use style="fill-opacity:0;stroke:#4c72b0" x="265.026" xlink:href="#me462ae1a2d" y="552.419"/><use style="fill-opacity:0;stroke:#4c72b0" x="266.43" xlink:href="#me462ae1a2d" y="470.241"/><use style="fill-opacity:0;stroke:#4c72b0" x="267.833" xlink:href="#me462ae1a2d" y="497.634"/><use style="fill-opacity:0;stroke:#4c72b0" x="269.236" xlink:href="#me462ae1a2d" y="497.634"/><use style="fill-opacity:0;stroke:#4c72b0" x="270.639" xlink:href="#me462ae1a2d" y="483.937"/><use style="fill-opacity:0;stroke:#4c72b0" x="272.042" xlink:href="#me462ae1a2d" y="483.937"/><use style="fill-opacity:0;stroke:#4c72b0" x="273.445" xlink:href="#me462ae1a2d" y="511.33"/><use style="fill-opacity:0;stroke:#4c72b0" x="274.848" xlink:href="#me462ae1a2d" y="552.419"/><use style="fill-opacity:0;stroke:#4c72b0" x="276.251" xlink:href="#me462ae1a2d" y="483.937"/><use style="fill-opacity:0;stroke:#4c72b0" x="277.654" xlink:href="#me462ae1a2d" y="511.33"/><use style="fill-opacity:0;stroke:#4c72b0" x="279.057" xlink:href="#me462ae1a2d" y="483.937"/><use style="fill-opacity:0;stroke:#4c72b0" x="280.461" xlink:href="#me462ae1a2d" y="483.937"/><use style="fill-opacity:0;stroke:#4c72b0" x="281.864" xlink:href="#me462ae1a2d" y="456.545"/><use style="fill-opacity:0;stroke:#4c72b0" x="283.267" xlink:href="#me462ae1a2d" y="525.026"/><use style="fill-opacity:0;stroke:#4c72b0" x="284.67" xlink:href="#me462ae1a2d" y="552.419"/><use style="fill-opacity:0;stroke:#4c72b0" x="286.073" xlink:href="#me462ae1a2d" y="483.937"/><use style="fill-opacity:0;stroke:#4c72b0" x="287.476" xlink:href="#me462ae1a2d" y="552.419"/><use style="fill-opacity:0;stroke:#4c72b0" x="288.879" xlink:href="#me462ae1a2d" y="525.026"/><use style="fill-opacity:0;stroke:#4c72b0" x="290.282" xlink:href="#me462ae1a2d" y="511.33"/><use style="fill-opacity:0;stroke:#4c72b0" x="291.685" xlink:href="#me462ae1a2d" y="511.33"/><use style="fill-opacity:0;stroke:#4c72b0" x="293.088" xlink:href="#me462ae1a2d" y="511.33"/><use style="fill-opacity:0;stroke:#4c72b0" x="294.491" xlink:href="#me462ae1a2d" y="552.419"/><use style="fill-opacity:0;stroke:#4c72b0" x="295.895" xlink:href="#me462ae1a2d" y="552.419"/><use style="fill-opacity:0;stroke:#4c72b0" x="297.298" xlink:href="#me462ae1a2d" y="552.419"/><use style="fill-opacity:0;stroke:#4c72b0" x="298.701" xlink:href="#me462ae1a2d" y="552.419"/><use style="fill-opacity:0;stroke:#4c72b0" x="300.104" xlink:href="#me462ae1a2d" y="552.419"/><use style="fill-opacity:0;stroke:#4c72b0" x="301.507" xlink:href="#me462ae1a2d" y="538.723"/><use style="fill-opacity:0;stroke:#4c72b0" x="302.91" xlink:href="#me462ae1a2d" y="552.419"/><use style="fill-opacity:0;stroke:#4c72b0" x="304.313" xlink:href="#me462ae1a2d" y="552.419"/><use style="fill-opacity:0;stroke:#4c72b0" x="305.716" xlink:href="#me462ae1a2d" y="497.634"/><use style="fill-opacity:0;stroke:#4c72b0" x="307.119" xlink:href="#me462ae1a2d" y="497.634"/><use style="fill-opacity:0;stroke:#4c72b0" x="308.522" xlink:href="#me462ae1a2d" y="538.723"/><use style="fill-opacity:0;stroke:#4c72b0" x="309.926" xlink:href="#me462ae1a2d" y="538.723"/><use style="fill-opacity:0;stroke:#4c72b0" x="311.329" xlink:href="#me462ae1a2d" y="538.723"/><use style="fill-opacity:0;stroke:#4c72b0" x="312.732" xlink:href="#me462ae1a2d" y="552.419"/><use style="fill-opacity:0;stroke:#4c72b0" x="314.135" xlink:href="#me462ae1a2d" y="552.419"/><use style="fill-opacity:0;stroke:#4c72b0" x="315.538" xlink:href="#me462ae1a2d" y="552.419"/><use style="fill-opacity:0;stroke:#4c72b0" x="316.941" xlink:href="#me462ae1a2d" y="538.723"/><use style="fill-opacity:0;stroke:#4c72b0" x="318.344" xlink:href="#me462ae1a2d" y="552.419"/><use style="fill-opacity:0;stroke:#4c72b0" x="319.747" xlink:href="#me462ae1a2d" y="552.419"/><use style="fill-opacity:0;stroke:#4c72b0" x="321.15" xlink:href="#me462ae1a2d" y="552.419"/><use style="fill-opacity:0;stroke:#4c72b0" x="322.553" xlink:href="#me462ae1a2d" y="552.419"/><use style="fill-opacity:0;stroke:#4c72b0" x="323.956" xlink:href="#me462ae1a2d" y="552.419"/><use style="fill-opacity:0;stroke:#4c72b0" x="325.36" xlink:href="#me462ae1a2d" y="552.419"/><use style="fill-opacity:0;stroke:#4c72b0" x="326.763" xlink:href="#me462ae1a2d" y="538.723"/><use style="fill-opacity:0;stroke:#4c72b0" x="328.166" xlink:href="#me462ae1a2d" y="552.419"/><use style="fill-opacity:0;stroke:#4c72b0" x="329.569" xlink:href="#me462ae1a2d" y="552.419"/><use style="fill-opacity:0;stroke:#4c72b0" x="330.972" xlink:href="#me462ae1a2d" y="525.026"/><use style="fill-opacity:0;stroke:#4c72b0" x="332.375" xlink:href="#me462ae1a2d" y="552.419"/><use style="fill-opacity:0;stroke:#4c72b0" x="333.778" xlink:href="#me462ae1a2d" y="552.419"/><use style="fill-opacity:0;stroke:#4c72b0" x="335.181" xlink:href="#me462ae1a2d" y="511.33"/><use style="fill-opacity:0;stroke:#4c72b0" x="336.584" xlink:href="#me462ae1a2d" y="538.723"/><use style="fill-opacity:0;stroke:#4c72b0" x="337.987" xlink:href="#me462ae1a2d" y="552.419"/><use style="fill-opacity:0;stroke:#4c72b0" x="339.391" xlink:href="#me462ae1a2d" y="552.419"/><use style="fill-opacity:0;stroke:#4c72b0" x="340.794" xlink:href="#me462ae1a2d" y="552.419"/><use style="fill-opacity:0;stroke:#4c72b0" x="342.197" xlink:href="#me462ae1a2d" y="552.419"/><use style="fill-opacity:0;stroke:#4c72b0" x="343.6" xlink:href="#me462ae1a2d" y="552.419"/><use style="fill-opacity:0;stroke:#4c72b0" x="345.003" xlink:href="#me462ae1a2d" y="552.419"/><use style="fill-opacity:0;stroke:#4c72b0" x="346.406" xlink:href="#me462ae1a2d" y="538.723"/><use style="fill-opacity:0;stroke:#4c72b0" x="347.809" xlink:href="#me462ae1a2d" y="538.723"/><use style="fill-opacity:0;stroke:#4c72b0" x="349.212" xlink:href="#me462ae1a2d" y="552.419"/><use style="fill-opacity:0;stroke:#4c72b0" x="350.615" xlink:href="#me462ae1a2d" y="538.723"/><use style="fill-opacity:0;stroke:#4c72b0" x="352.018" xlink:href="#me462ae1a2d" y="552.419"/><use style="fill-opacity:0;stroke:#4c72b0" x="353.421" xlink:href="#me462ae1a2d" y="552.419"/><use style="fill-opacity:0;stroke:#4c72b0" x="354.825" xlink:href="#me462ae1a2d" y="552.419"/><use style="fill-opacity:0;stroke:#4c72b0" x="356.228" xlink:href="#me462ae1a2d" y="538.723"/><use style="fill-opacity:0;stroke:#4c72b0" x="357.631" xlink:href="#me462ae1a2d" y="552.419"/><use style="fill-opacity:0;stroke:#4c72b0" x="359.034" xlink:href="#me462ae1a2d" y="552.419"/><use style="fill-opacity:0;stroke:#4c72b0" x="360.437" xlink:href="#me462ae1a2d" y="552.419"/><use style="fill-opacity:0;stroke:#4c72b0" x="361.84" xlink:href="#me462ae1a2d" y="552.419"/><use style="fill-opacity:0;stroke:#4c72b0" x="363.243" xlink:href="#me462ae1a2d" y="552.419"/><use style="fill-opacity:0;stroke:#4c72b0" x="364.646" xlink:href="#me462ae1a2d" y="525.026"/><use style="fill-opacity:0;stroke:#4c72b0" x="366.049" xlink:href="#me462ae1a2d" y="552.419"/><use style="fill-opacity:0;stroke:#4c72b0" x="367.452" xlink:href="#me462ae1a2d" y="538.723"/><use style="fill-opacity:0;stroke:#4c72b0" x="368.856" xlink:href="#me462ae1a2d" y="538.723"/><use style="fill-opacity:0;stroke:#4c72b0" x="370.259" xlink:href="#me462ae1a2d" y="538.723"/><use style="fill-opacity:0;stroke:#4c72b0" x="371.662" xlink:href="#me462ae1a2d" y="552.419"/><use style="fill-opacity:0;stroke:#4c72b0" x="373.065" xlink:href="#me462ae1a2d" y="552.419"/><use style="fill-opacity:0;stroke:#4c72b0" x="374.468" xlink:href="#me462ae1a2d" y="497.634"/><use style="fill-opacity:0;stroke:#4c72b0" x="375.871" xlink:href="#me462ae1a2d" y="552.419"/><use style="fill-opacity:0;stroke:#4c72b0" x="377.274" xlink:href="#me462ae1a2d" y="538.723"/><use style="fill-opacity:0;stroke:#4c72b0" x="378.677" xlink:href="#me462ae1a2d" y="552.419"/><use style="fill-opacity:0;stroke:#4c72b0" x="380.08" xlink:href="#me462ae1a2d" y="552.419"/><use style="fill-opacity:0;stroke:#4c72b0" x="381.483" xlink:href="#me462ae1a2d" y="552.419"/><use style="fill-opacity:0;stroke:#4c72b0" x="382.886" xlink:href="#me462ae1a2d" y="552.419"/><use style="fill-opacity:0;stroke:#4c72b0" x="384.29" xlink:href="#me462ae1a2d" y="470.241"/><use style="fill-opacity:0;stroke:#4c72b0" x="385.693" xlink:href="#me462ae1a2d" y="538.723"/><use style="fill-opacity:0;stroke:#4c72b0" x="387.096" xlink:href="#me462ae1a2d" y="552.419"/><use style="fill-opacity:0;stroke:#4c72b0" x="388.499" xlink:href="#me462ae1a2d" y="538.723"/><use style="fill-opacity:0;stroke:#4c72b0" x="389.902" xlink:href="#me462ae1a2d" y="525.026"/><use style="fill-opacity:0;stroke:#4c72b0" x="391.305" xlink:href="#me462ae1a2d" y="552.419"/><use style="fill-opacity:0;stroke:#4c72b0" x="392.708" xlink:href="#me462ae1a2d" y="552.419"/><use style="fill-opacity:0;stroke:#4c72b0" x="394.111" xlink:href="#me462ae1a2d" y="525.026"/><use style="fill-opacity:0;stroke:#4c72b0" x="395.514" xlink:href="#me462ae1a2d" y="538.723"/><use style="fill-opacity:0;stroke:#4c72b0" x="396.917" xlink:href="#me462ae1a2d" y="552.419"/><use style="fill-opacity:0;stroke:#4c72b0" x="398.321" xlink:href="#me462ae1a2d" y="552.419"/><use style="fill-opacity:0;stroke:#4c72b0" x="399.724" xlink:href="#me462ae1a2d" y="552.419"/><use style="fill-opacity:0;stroke:#4c72b0" x="401.127" xlink:href="#me462ae1a2d" y="552.419"/><use style="fill-opacity:0;stroke:#4c72b0" x="402.53" xlink:href="#me462ae1a2d" y="552.419"/><use style="fill-opacity:0;stroke:#4c72b0" x="403.933" xlink:href="#me462ae1a2d" y="552.419"/><use style="fill-opacity:0;stroke:#4c72b0" x="405.336" xlink:href="#me462ae1a2d" y="511.33"/><use style="fill-opacity:0;stroke:#4c72b0" x="406.739" xlink:href="#me462ae1a2d" y="538.723"/><use style="fill-opacity:0;stroke:#4c72b0" x="408.142" xlink:href="#me462ae1a2d" y="538.723"/><use style="fill-opacity:0;stroke:#4c72b0" x="409.545" xlink:href="#me462ae1a2d" y="552.419"/><use style="fill-opacity:0;stroke:#4c72b0" x="410.948" xlink:href="#me462ae1a2d" y="552.419"/><use style="fill-opacity:0;stroke:#4c72b0" x="412.351" xlink:href="#me462ae1a2d" y="552.419"/><use style="fill-opacity:0;stroke:#4c72b0" x="413.755" xlink:href="#me462ae1a2d" y="538.723"/><use style="fill-opacity:0;stroke:#4c72b0" x="415.158" xlink:href="#me462ae1a2d" y="552.419"/><use style="fill-opacity:0;stroke:#4c72b0" x="416.561" xlink:href="#me462ae1a2d" y="552.419"/><use style="fill-opacity:0;stroke:#4c72b0" x="417.964" xlink:href="#me462ae1a2d" y="538.723"/><use style="fill-opacity:0;stroke:#4c72b0" x="419.367" xlink:href="#me462ae1a2d" y="552.419"/><use style="fill-opacity:0;stroke:#4c72b0" x="420.77" xlink:href="#me462ae1a2d" y="552.419"/><use style="fill-opacity:0;stroke:#4c72b0" x="422.173" xlink:href="#me462ae1a2d" y="552.419"/><use style="fill-opacity:0;stroke:#4c72b0" x="423.576" xlink:href="#me462ae1a2d" y="538.723"/><use style="fill-opacity:0;stroke:#4c72b0" x="424.979" xlink:href="#me462ae1a2d" y="552.419"/><use style="fill-opacity:0;stroke:#4c72b0" x="426.382" xlink:href="#me462ae1a2d" y="538.723"/><use style="fill-opacity:0;stroke:#4c72b0" x="427.785" xlink:href="#me462ae1a2d" y="552.419"/><use style="fill-opacity:0;stroke:#4c72b0" x="429.189" xlink:href="#me462ae1a2d" y="552.419"/><use style="fill-opacity:0;stroke:#4c72b0" x="430.592" xlink:href="#me462ae1a2d" y="552.419"/><use style="fill-opacity:0;stroke:#4c72b0" x="431.995" xlink:href="#me462ae1a2d" y="552.419"/><use style="fill-opacity:0;stroke:#4c72b0" x="433.398" xlink:href="#me462ae1a2d" y="552.419"/><use style="fill-opacity:0;stroke:#4c72b0" x="434.801" xlink:href="#me462ae1a2d" y="552.419"/><use style="fill-opacity:0;stroke:#4c72b0" x="436.204" xlink:href="#me462ae1a2d" y="538.723"/><use style="fill-opacity:0;stroke:#4c72b0" x="437.607" xlink:href="#me462ae1a2d" y="552.419"/><use style="fill-opacity:0;stroke:#4c72b0" x="439.01" xlink:href="#me462ae1a2d" y="538.723"/><use style="fill-opacity:0;stroke:#4c72b0" x="440.413" xlink:href="#me462ae1a2d" y="552.419"/><use style="fill-opacity:0;stroke:#4c72b0" x="441.816" xlink:href="#me462ae1a2d" y="552.419"/><use style="fill-opacity:0;stroke:#4c72b0" x="443.22" xlink:href="#me462ae1a2d" y="538.723"/><use style="fill-opacity:0;stroke:#4c72b0" x="444.623" xlink:href="#me462ae1a2d" y="552.419"/><use style="fill-opacity:0;stroke:#4c72b0" x="446.026" xlink:href="#me462ae1a2d" y="552.419"/><use style="fill-opacity:0;stroke:#4c72b0" x="447.429" xlink:href="#me462ae1a2d" y="538.723"/><use style="fill-opacity:0;stroke:#4c72b0" x="448.832" xlink:href="#me462ae1a2d" y="538.723"/><use style="fill-opacity:0;stroke:#4c72b0" x="450.235" xlink:href="#me462ae1a2d" y="552.419"/><use style="fill-opacity:0;stroke:#4c72b0" x="451.638" xlink:href="#me462ae1a2d" y="552.419"/><use style="fill-opacity:0;stroke:#4c72b0" x="453.041" xlink:href="#me462ae1a2d" y="552.419"/><use style="fill-opacity:0;stroke:#4c72b0" x="454.444" xlink:href="#me462ae1a2d" y="525.026"/><use style="fill-opacity:0;stroke:#4c72b0" x="455.847" xlink:href="#me462ae1a2d" y="538.723"/><use style="fill-opacity:0;stroke:#4c72b0" x="457.25" xlink:href="#me462ae1a2d" y="538.723"/><use style="fill-opacity:0;stroke:#4c72b0" x="458.654" xlink:href="#me462ae1a2d" y="552.419"/><use style="fill-opacity:0;stroke:#4c72b0" x="460.057" xlink:href="#me462ae1a2d" y="552.419"/><use style="fill-opacity:0;stroke:#4c72b0" x="461.46" xlink:href="#me462ae1a2d" y="552.419"/><use style="fill-opacity:0;stroke:#4c72b0" x="462.863" xlink:href="#me462ae1a2d" y="538.723"/><use style="fill-opacity:0;stroke:#4c72b0" x="464.266" xlink:href="#me462ae1a2d" y="552.419"/><use style="fill-opacity:0;stroke:#4c72b0" x="465.669" xlink:href="#me462ae1a2d" y="497.634"/><use style="fill-opacity:0;stroke:#4c72b0" x="467.072" xlink:href="#me462ae1a2d" y="552.419"/><use style="fill-opacity:0;stroke:#4c72b0" x="468.475" xlink:href="#me462ae1a2d" y="552.419"/><use style="fill-opacity:0;stroke:#4c72b0" x="469.878" xlink:href="#me462ae1a2d" y="552.419"/><use style="fill-opacity:0;stroke:#4c72b0" x="471.281" xlink:href="#me462ae1a2d" y="552.419"/><use style="fill-opacity:0;stroke:#4c72b0" x="472.685" xlink:href="#me462ae1a2d" y="552.419"/><use style="fill-opacity:0;stroke:#4c72b0" x="474.088" xlink:href="#me462ae1a2d" y="511.33"/><use style="fill-opacity:0;stroke:#4c72b0" x="475.491" xlink:href="#me462ae1a2d" y="552.419"/><use style="fill-opacity:0;stroke:#4c72b0" x="476.894" xlink:href="#me462ae1a2d" y="552.419"/><use style="fill-opacity:0;stroke:#4c72b0" x="478.297" xlink:href="#me462ae1a2d" y="552.419"/><use style="fill-opacity:0;stroke:#4c72b0" x="479.7" xlink:href="#me462ae1a2d" y="552.419"/><use style="fill-opacity:0;stroke:#4c72b0" x="481.103" xlink:href="#me462ae1a2d" y="552.419"/><use style="fill-opacity:0;stroke:#4c72b0" x="482.506" xlink:href="#me462ae1a2d" y="538.723"/><use style="fill-opacity:0;stroke:#4c72b0" x="483.909" xlink:href="#me462ae1a2d" y="552.419"/><use style="fill-opacity:0;stroke:#4c72b0" x="485.312" xlink:href="#me462ae1a2d" y="525.026"/><use style="fill-opacity:0;stroke:#4c72b0" x="486.715" xlink:href="#me462ae1a2d" y="538.723"/><use style="fill-opacity:0;stroke:#4c72b0" x="488.119" xlink:href="#me462ae1a2d" y="552.419"/><use style="fill-opacity:0;stroke:#4c72b0" x="489.522" xlink:href="#me462ae1a2d" y="552.419"/><use style="fill-opacity:0;stroke:#4c72b0" x="490.925" xlink:href="#me462ae1a2d" y="552.419"/><use style="fill-opacity:0;stroke:#4c72b0" x="492.328" xlink:href="#me462ae1a2d" y="511.33"/><use style="fill-opacity:0;stroke:#4c72b0" x="493.731" xlink:href="#me462ae1a2d" y="552.419"/><use style="fill-opacity:0;stroke:#4c72b0" x="495.134" xlink:href="#me462ae1a2d" y="538.723"/><use style="fill-opacity:0;stroke:#4c72b0" x="496.537" xlink:href="#me462ae1a2d" y="552.419"/><use style="fill-opacity:0;stroke:#4c72b0" x="497.94" xlink:href="#me462ae1a2d" y="552.419"/><use style="fill-opacity:0;stroke:#4c72b0" x="499.343" xlink:href="#me462ae1a2d" y="552.419"/><use style="fill-opacity:0;stroke:#4c72b0" x="500.746" xlink:href="#me462ae1a2d" y="552.419"/><use style="fill-opacity:0;stroke:#4c72b0" x="502.15" xlink:href="#me462ae1a2d" y="552.419"/><use style="fill-opacity:0;stroke:#4c72b0" x="503.553" xlink:href="#me462ae1a2d" y="552.419"/><use style="fill-opacity:0;stroke:#4c72b0" x="504.956" xlink:href="#me462ae1a2d" y="552.419"/><use style="fill-opacity:0;stroke:#4c72b0" x="506.359" xlink:href="#me462ae1a2d" y="552.419"/><use style="fill-opacity:0;stroke:#4c72b0" x="507.762" xlink:href="#me462ae1a2d" y="552.419"/><use style="fill-opacity:0;stroke:#4c72b0" x="509.165" xlink:href="#me462ae1a2d" y="552.419"/><use style="fill-opacity:0;stroke:#4c72b0" x="510.568" xlink:href="#me462ae1a2d" y="552.419"/><use style="fill-opacity:0;stroke:#4c72b0" x="511.971" xlink:href="#me462ae1a2d" y="525.026"/><use style="fill-opacity:0;stroke:#4c72b0" x="513.374" xlink:href="#me462ae1a2d" y="538.723"/><use style="fill-opacity:0;stroke:#4c72b0" x="514.777" xlink:href="#me462ae1a2d" y="483.937"/><use style="fill-opacity:0;stroke:#4c72b0" x="516.18" xlink:href="#me462ae1a2d" y="429.152"/><use style="fill-opacity:0;stroke:#4c72b0" x="517.584" xlink:href="#me462ae1a2d" y="525.026"/><use style="fill-opacity:0;stroke:#4c72b0" x="518.987" xlink:href="#me462ae1a2d" y="552.419"/><use style="fill-opacity:0;stroke:#4c72b0" x="520.39" xlink:href="#me462ae1a2d" y="552.419"/><use style="fill-opacity:0;stroke:#4c72b0" x="521.793" xlink:href="#me462ae1a2d" y="525.026"/><use style="fill-opacity:0;stroke:#4c72b0" x="523.196" xlink:href="#me462ae1a2d" y="470.241"/><use style="fill-opacity:0;stroke:#4c72b0" x="524.599" xlink:href="#me462ae1a2d" y="538.723"/><use style="fill-opacity:0;stroke:#4c72b0" x="526.002" xlink:href="#me462ae1a2d" y="483.937"/><use style="fill-opacity:0;stroke:#4c72b0" x="527.405" xlink:href="#me462ae1a2d" y="483.937"/><use style="fill-opacity:0;stroke:#4c72b0" x="528.808" xlink:href="#me462ae1a2d" y="511.33"/><use style="fill-opacity:0;stroke:#4c72b0" x="530.211" xlink:href="#me462ae1a2d" y="511.33"/><use style="fill-opacity:0;stroke:#4c72b0" x="531.615" xlink:href="#me462ae1a2d" y="525.026"/><use style="fill-opacity:0;stroke:#4c72b0" x="533.018" xlink:href="#me462ae1a2d" y="552.419"/><use style="fill-opacity:0;stroke:#4c72b0" x="534.421" xlink:href="#me462ae1a2d" y="497.634"/><use style="fill-opacity:0;stroke:#4c72b0" x="535.824" xlink:href="#me462ae1a2d" y="552.419"/><use style="fill-opacity:0;stroke:#4c72b0" x="537.227" xlink:href="#me462ae1a2d" y="552.419"/><use style="fill-opacity:0;stroke:#4c72b0" x="538.63" xlink:href="#me462ae1a2d" y="552.419"/><use style="fill-opacity:0;stroke:#4c72b0" x="540.033" xlink:href="#me462ae1a2d" y="552.419"/><use style="fill-opacity:0;stroke:#4c72b0" x="541.436" xlink:href="#me462ae1a2d" y="470.241"/><use style="fill-opacity:0;stroke:#4c72b0" x="542.839" xlink:href="#me462ae1a2d" y="497.634"/><use style="fill-opacity:0;stroke:#4c72b0" x="544.242" xlink:href="#me462ae1a2d" y="483.937"/><use style="fill-opacity:0;stroke:#4c72b0" x="545.645" xlink:href="#me462ae1a2d" y="483.937"/><use style="fill-opacity:0;stroke:#4c72b0" x="547.049" xlink:href="#me462ae1a2d" y="483.937"/><use style="fill-opacity:0;stroke:#4c72b0" x="548.452" xlink:href="#me462ae1a2d" y="552.419"/><use style="fill-opacity:0;stroke:#4c72b0" x="549.855" xlink:href="#me462ae1a2d" y="552.419"/><use style="fill-opacity:0;stroke:#4c72b0" x="551.258" xlink:href="#me462ae1a2d" y="388.063"/><use style="fill-opacity:0;stroke:#4c72b0" x="552.661" xlink:href="#me462ae1a2d" y="538.723"/><use style="fill-opacity:0;stroke:#4c72b0" x="554.064" xlink:href="#me462ae1a2d" y="456.545"/><use style="fill-opacity:0;stroke:#4c72b0" x="555.467" xlink:href="#me462ae1a2d" y="511.33"/><use style="fill-opacity:0;stroke:#4c72b0" x="556.87" xlink:href="#me462ae1a2d" y="483.937"/><use style="fill-opacity:0;stroke:#4c72b0" x="558.273" xlink:href="#me462ae1a2d" y="552.419"/><use style="fill-opacity:0;stroke:#4c72b0" x="559.676" xlink:href="#me462ae1a2d" y="552.419"/><use style="fill-opacity:0;stroke:#4c72b0" x="561.079" xlink:href="#me462ae1a2d" y="292.189"/><use style="fill-opacity:0;stroke:#4c72b0" x="562.483" xlink:href="#me462ae1a2d" y="497.634"/><use style="fill-opacity:0;stroke:#4c72b0" x="563.886" xlink:href="#me462ae1a2d" y="552.419"/><use style="fill-opacity:0;stroke:#4c72b0" x="565.289" xlink:href="#me462ae1a2d" y="319.581"/><use style="fill-opacity:0;stroke:#4c72b0" x="566.692" xlink:href="#me462ae1a2d" y="456.545"/><use style="fill-opacity:0;stroke:#4c72b0" x="568.095" xlink:href="#me462ae1a2d" y="552.419"/><use style="fill-opacity:0;stroke:#4c72b0" x="569.498" xlink:href="#me462ae1a2d" y="552.419"/><use style="fill-opacity:0;stroke:#4c72b0" x="570.901" xlink:href="#me462ae1a2d" y="333.278"/><use style="fill-opacity:0;stroke:#4c72b0" x="572.304" xlink:href="#me462ae1a2d" y="388.063"/><use style="fill-opacity:0;stroke:#4c72b0" x="573.707" xlink:href="#me462ae1a2d" y="388.063"/><use style="fill-opacity:0;stroke:#4c72b0" x="575.11" xlink:href="#me462ae1a2d" y="442.848"/><use style="fill-opacity:0;stroke:#4c72b0" x="576.514" xlink:href="#me462ae1a2d" y="360.67"/><use style="fill-opacity:0;stroke:#4c72b0" x="577.917" xlink:href="#me462ae1a2d" y="483.937"/><use style="fill-opacity:0;stroke:#4c72b0" x="579.32" xlink:href="#me462ae1a2d" y="552.419"/><use style="fill-opacity:0;stroke:#4c72b0" x="580.723" xlink:href="#me462ae1a2d" y="360.67"/><use style="fill-opacity:0;stroke:#4c72b0" x="582.126" xlink:href="#me462ae1a2d" y="442.848"/><use style="fill-opacity:0;stroke:#4c72b0" x="583.529" xlink:href="#me462ae1a2d" y="470.241"/><use style="fill-opacity:0;stroke:#4c72b0" x="584.932" xlink:href="#me462ae1a2d" y="552.419"/><use style="fill-opacity:0;stroke:#4c72b0" x="586.335" xlink:href="#me462ae1a2d" y="552.419"/><use style="fill-opacity:0;stroke:#4c72b0" x="587.738" xlink:href="#me462ae1a2d" y="278.492"/><use style="fill-opacity:0;stroke:#4c72b0" x="589.141" xlink:href="#me462ae1a2d" y="552.419"/><use style="fill-opacity:0;stroke:#4c72b0" x="590.544" xlink:href="#me462ae1a2d" y="360.67"/><use style="fill-opacity:0;stroke:#4c72b0" x="591.948" xlink:href="#me462ae1a2d" y="456.545"/><use style="fill-opacity:0;stroke:#4c72b0" x="593.351" xlink:href="#me462ae1a2d" y="401.759"/><use style="fill-opacity:0;stroke:#4c72b0" x="594.754" xlink:href="#me462ae1a2d" y="333.278"/><use style="fill-opacity:0;stroke:#4c72b0" x="596.157" xlink:href="#me462ae1a2d" y="223.707"/><use style="fill-opacity:0;stroke:#4c72b0" x="597.56" xlink:href="#me462ae1a2d" y="401.759"/><use style="fill-opacity:0;stroke:#4c72b0" x="598.963" xlink:href="#me462ae1a2d" y="552.419"/><use style="fill-opacity:0;stroke:#4c72b0" x="600.366" xlink:href="#me462ae1a2d" y="401.759"/><use style="fill-opacity:0;stroke:#4c72b0" x="601.769" xlink:href="#me462ae1a2d" y="388.063"/><use style="fill-opacity:0;stroke:#4c72b0" x="603.172" xlink:href="#me462ae1a2d" y="483.937"/><use style="fill-opacity:0;stroke:#4c72b0" x="604.575" xlink:href="#me462ae1a2d" y="305.885"/><use style="fill-opacity:0;stroke:#4c72b0" x="605.979" xlink:href="#me462ae1a2d" y="429.152"/><use style="fill-opacity:0;stroke:#4c72b0" x="607.382" xlink:href="#me462ae1a2d" y="552.419"/><use style="fill-opacity:0;stroke:#4c72b0" x="608.785" xlink:href="#me462ae1a2d" y="552.419"/><use style="fill-opacity:0;stroke:#4c72b0" x="610.188" xlink:href="#me462ae1a2d" y="360.67"/><use style="fill-opacity:0;stroke:#4c72b0" x="611.591" xlink:href="#me462ae1a2d" y="429.152"/><use style="fill-opacity:0;stroke:#4c72b0" x="612.994" xlink:href="#me462ae1a2d" y="456.545"/><use style="fill-opacity:0;stroke:#4c72b0" x="614.397" xlink:href="#me462ae1a2d" y="552.419"/><use style="fill-opacity:0;stroke:#4c72b0" x="615.8" xlink:href="#me462ae1a2d" y="319.581"/><use style="fill-opacity:0;stroke:#4c72b0" x="617.203" xlink:href="#me462ae1a2d" y="552.419"/><use style="fill-opacity:0;stroke:#4c72b0" x="618.606" xlink:href="#me462ae1a2d" y="552.419"/><use style="fill-opacity:0;stroke:#4c72b0" x="620.009" xlink:href="#me462ae1a2d" y="182.618"/><use style="fill-opacity:0;stroke:#4c72b0" x="621.413" xlink:href="#me462ae1a2d" y="456.545"/><use style="fill-opacity:0;stroke:#4c72b0" x="622.816" xlink:href="#me462ae1a2d" y="182.618"/><use style="fill-opacity:0;stroke:#4c72b0" x="624.219" xlink:href="#me462ae1a2d" y="483.937"/><use style="fill-opacity:0;stroke:#4c72b0" x="625.622" xlink:href="#me462ae1a2d" y="552.419"/><use style="fill-opacity:0;stroke:#4c72b0" x="627.025" xlink:href="#me462ae1a2d" y="552.419"/><use style="fill-opacity:0;stroke:#4c72b0" x="628.428" xlink:href="#me462ae1a2d" y="552.419"/><use style="fill-opacity:0;stroke:#4c72b0" x="629.831" xlink:href="#me462ae1a2d" y="141.529"/><use style="fill-opacity:0;stroke:#4c72b0" x="631.234" xlink:href="#me462ae1a2d" y="483.937"/><use style="fill-opacity:0;stroke:#4c72b0" x="632.637" xlink:href="#me462ae1a2d" y="292.189"/><use style="fill-opacity:0;stroke:#4c72b0" x="634.04" xlink:href="#me462ae1a2d" y="401.759"/><use style="fill-opacity:0;stroke:#4c72b0" x="635.444" xlink:href="#me462ae1a2d" y="552.419"/><use style="fill-opacity:0;stroke:#4c72b0" x="636.847" xlink:href="#me462ae1a2d" y="552.419"/><use style="fill-opacity:0;stroke:#4c72b0" x="638.25" xlink:href="#me462ae1a2d" y="552.419"/><use style="fill-opacity:0;stroke:#4c72b0" x="639.653" xlink:href="#me462ae1a2d" y="100.44"/><use style="fill-opacity:0;stroke:#4c72b0" x="641.056" xlink:href="#me462ae1a2d" y="305.885"/><use style="fill-opacity:0;stroke:#4c72b0" x="642.459" xlink:href="#me462ae1a2d" y="360.67"/><use style="fill-opacity:0;stroke:#4c72b0" x="643.862" xlink:href="#me462ae1a2d" y="346.974"/><use style="fill-opacity:0;stroke:#4c72b0" x="645.265" xlink:href="#me462ae1a2d" y="388.063"/><use style="fill-opacity:0;stroke:#4c72b0" x="646.668" xlink:href="#me462ae1a2d" y="415.456"/><use style="fill-opacity:0;stroke:#4c72b0" x="648.071" xlink:href="#me462ae1a2d" y="552.419"/><use style="fill-opacity:0;stroke:#4c72b0" x="649.474" xlink:href="#me462ae1a2d" y="251.1"/><use style="fill-opacity:0;stroke:#4c72b0" x="650.878" xlink:href="#me462ae1a2d" y="401.759"/><use style="fill-opacity:0;stroke:#4c72b0" x="652.281" xlink:href="#me462ae1a2d" y="346.974"/><use style="fill-opacity:0;stroke:#4c72b0" x="653.684" xlink:href="#me462ae1a2d" y="415.456"/><use style="fill-opacity:0;stroke:#4c72b0" x="655.087" xlink:href="#me462ae1a2d" y="415.456"/><use style="fill-opacity:0;stroke:#4c72b0" x="656.49" xlink:href="#me462ae1a2d" y="552.419"/><use style="fill-opacity:0;stroke:#4c72b0" x="657.893" xlink:href="#me462ae1a2d" y="552.419"/><use style="fill-opacity:0;stroke:#4c72b0" x="659.296" xlink:href="#me462ae1a2d" y="552.419"/><use style="fill-opacity:0;stroke:#4c72b0" x="660.699" xlink:href="#me462ae1a2d" y="264.796"/><use style="fill-opacity:0;stroke:#4c72b0" x="662.102" xlink:href="#me462ae1a2d" y="415.456"/><use style="fill-opacity:0;stroke:#4c72b0" x="663.505" xlink:href="#me462ae1a2d" y="497.634"/><use style="fill-opacity:0;stroke:#4c72b0" x="664.909" xlink:href="#me462ae1a2d" y="511.33"/><use style="fill-opacity:0;stroke:#4c72b0" x="666.312" xlink:href="#me462ae1a2d" y="552.419"/><use style="fill-opacity:0;stroke:#4c72b0" x="667.715" xlink:href="#me462ae1a2d" y="552.419"/><use style="fill-opacity:0;stroke:#4c72b0" x="669.118" xlink:href="#me462ae1a2d" y="127.833"/><use style="fill-opacity:0;stroke:#4c72b0" x="670.521" xlink:href="#me462ae1a2d" y="497.634"/><use style="fill-opacity:0;stroke:#4c72b0" x="671.924" xlink:href="#me462ae1a2d" y="470.241"/><use style="fill-opacity:0;stroke:#4c72b0" x="673.327" xlink:href="#me462ae1a2d" y="470.241"/><use style="fill-opacity:0;stroke:#4c72b0" x="674.73" xlink:href="#me462ae1a2d" y="333.278"/><use style="fill-opacity:0;stroke:#4c72b0" x="676.133" xlink:href="#me462ae1a2d" y="483.937"/><use style="fill-opacity:0;stroke:#4c72b0" x="677.536" xlink:href="#me462ae1a2d" y="552.419"/><use style="fill-opacity:0;stroke:#4c72b0" x="678.939" xlink:href="#me462ae1a2d" y="552.419"/><use style="fill-opacity:0;stroke:#4c72b0" x="680.343" xlink:href="#me462ae1a2d" y="552.419"/><use style="fill-opacity:0;stroke:#4c72b0" x="681.746" xlink:href="#me462ae1a2d" y="196.314"/><use style="fill-opacity:0;stroke:#4c72b0" x="683.149" xlink:href="#me462ae1a2d" y="442.848"/><use style="fill-opacity:0;stroke:#4c72b0" x="684.552" xlink:href="#me462ae1a2d" y="456.545"/><use style="fill-opacity:0;stroke:#4c72b0" x="685.955" xlink:href="#me462ae1a2d" y="552.419"/><use style="fill-opacity:0;stroke:#4c72b0" x="687.358" xlink:href="#me462ae1a2d" y="552.419"/><use style="fill-opacity:0;stroke:#4c72b0" x="688.761" xlink:href="#me462ae1a2d" y="333.278"/><use style="fill-opacity:0;stroke:#4c72b0" x="690.164" xlink:href="#me462ae1a2d" y="456.545"/><use style="fill-opacity:0;stroke:#4c72b0" x="691.567" xlink:href="#me462ae1a2d" y="483.937"/><use style="fill-opacity:0;stroke:#4c72b0" x="692.97" xlink:href="#me462ae1a2d" y="470.241"/><use style="fill-opacity:0;stroke:#4c72b0" x="694.374" xlink:href="#me462ae1a2d" y="483.937"/><use style="fill-opacity:0;stroke:#4c72b0" x="695.777" xlink:href="#me462ae1a2d" y="456.545"/><use style="fill-opacity:0;stroke:#4c72b0" x="697.18" xlink:href="#me462ae1a2d" y="552.419"/><use style="fill-opacity:0;stroke:#4c72b0" x="698.583" xlink:href="#me462ae1a2d" y="552.419"/><use style="fill-opacity:0;stroke:#4c72b0" x="699.986" xlink:href="#me462ae1a2d" y="360.67"/><use style="fill-opacity:0;stroke:#4c72b0" x="701.389" xlink:href="#me462ae1a2d" y="483.937"/><use style="fill-opacity:0;stroke:#4c72b0" x="702.792" xlink:href="#me462ae1a2d" y="511.33"/><use style="fill-opacity:0;stroke:#4c72b0" x="704.195" xlink:href="#me462ae1a2d" y="483.937"/><use style="fill-opacity:0;stroke:#4c72b0" x="705.598" xlink:href="#me462ae1a2d" y="552.419"/><use style="fill-opacity:0;stroke:#4c72b0" x="707.001" xlink:href="#me462ae1a2d" y="456.545"/><use style="fill-opacity:0;stroke:#4c72b0" x="708.404" xlink:href="#me462ae1a2d" y="497.634"/><use style="fill-opacity:0;stroke:#4c72b0" x="709.808" xlink:href="#me462ae1a2d" y="470.241"/><use style="fill-opacity:0;stroke:#4c72b0" x="711.211" xlink:href="#me462ae1a2d" y="497.634"/><use style="fill-opacity:0;stroke:#4c72b0" x="712.614" xlink:href="#me462ae1a2d" y="374.367"/><use style="fill-opacity:0;stroke:#4c72b0" x="714.017" xlink:href="#me462ae1a2d" y="429.152"/><use style="fill-opacity:0;stroke:#4c72b0" x="715.42" xlink:href="#me462ae1a2d" y="552.419"/><use style="fill-opacity:0;stroke:#4c72b0" x="716.823" xlink:href="#me462ae1a2d" y="552.419"/><use style="fill-opacity:0;stroke:#4c72b0" x="718.226" xlink:href="#me462ae1a2d" y="333.278"/><use style="fill-opacity:0;stroke:#4c72b0" x="719.629" xlink:href="#me462ae1a2d" y="415.456"/><use style="fill-opacity:0;stroke:#4c72b0" x="721.032" xlink:href="#me462ae1a2d" y="470.241"/><use style="fill-opacity:0;stroke:#4c72b0" x="722.435" xlink:href="#me462ae1a2d" y="511.33"/><use style="fill-opacity:0;stroke:#4c72b0" x="723.838" xlink:href="#me462ae1a2d" y="360.67"/><use style="fill-opacity:0;stroke:#4c72b0" x="725.242" xlink:href="#me462ae1a2d" y="552.419"/><use style="fill-opacity:0;stroke:#4c72b0" x="726.645" xlink:href="#me462ae1a2d" y="552.419"/><use style="fill-opacity:0;stroke:#4c72b0" x="728.048" xlink:href="#me462ae1a2d" y="360.67"/><use style="fill-opacity:0;stroke:#4c72b0" x="729.451" xlink:href="#me462ae1a2d" y="497.634"/><use style="fill-opacity:0;stroke:#4c72b0" x="730.854" xlink:href="#me462ae1a2d" y="442.848"/><use style="fill-opacity:0;stroke:#4c72b0" x="732.257" xlink:href="#me462ae1a2d" y="360.67"/><use style="fill-opacity:0;stroke:#4c72b0" x="733.66" xlink:href="#me462ae1a2d" y="483.937"/><use style="fill-opacity:0;stroke:#4c72b0" x="735.063" xlink:href="#me462ae1a2d" y="552.419"/><use style="fill-opacity:0;stroke:#4c72b0" x="736.466" xlink:href="#me462ae1a2d" y="552.419"/><use style="fill-opacity:0;stroke:#4c72b0" x="737.869" xlink:href="#me462ae1a2d" y="237.403"/><use style="fill-opacity:0;stroke:#4c72b0" x="739.273" xlink:href="#me462ae1a2d" y="456.545"/><use style="fill-opacity:0;stroke:#4c72b0" x="740.676" xlink:href="#me462ae1a2d" y="442.848"/><use style="fill-opacity:0;stroke:#4c72b0" x="742.079" xlink:href="#me462ae1a2d" y="511.33"/><use style="fill-opacity:0;stroke:#4c72b0" x="743.482" xlink:href="#me462ae1a2d" y="483.937"/><use style="fill-opacity:0;stroke:#4c72b0" x="744.885" xlink:href="#me462ae1a2d" y="552.419"/><use style="fill-opacity:0;stroke:#4c72b0" x="746.288" xlink:href="#me462ae1a2d" y="552.419"/><use style="fill-opacity:0;stroke:#4c72b0" x="747.691" xlink:href="#me462ae1a2d" y="223.707"/><use style="fill-opacity:0;stroke:#4c72b0" x="749.094" xlink:href="#me462ae1a2d" y="470.241"/><use style="fill-opacity:0;stroke:#4c72b0" x="750.497" xlink:href="#me462ae1a2d" y="456.545"/><use style="fill-opacity:0;stroke:#4c72b0" x="751.9" xlink:href="#me462ae1a2d" y="442.848"/><use style="fill-opacity:0;stroke:#4c72b0" x="753.303" xlink:href="#me462ae1a2d" y="456.545"/><use style="fill-opacity:0;stroke:#4c72b0" x="754.707" xlink:href="#me462ae1a2d" y="552.419"/><use style="fill-opacity:0;stroke:#4c72b0" x="756.11" xlink:href="#me462ae1a2d" y="429.152"/><use style="fill-opacity:0;stroke:#4c72b0" x="757.513" xlink:href="#me462ae1a2d" y="401.759"/><use style="fill-opacity:0;stroke:#4c72b0" x="758.916" xlink:href="#me462ae1a2d" y="442.848"/><use style="fill-opacity:0;stroke:#4c72b0" x="760.319" xlink:href="#me462ae1a2d" y="511.33"/><use style="fill-opacity:0;stroke:#4c72b0" x="761.722" xlink:href="#me462ae1a2d" y="305.885"/><use style="fill-opacity:0;stroke:#4c72b0" x="763.125" xlink:href="#me462ae1a2d" y="429.152"/><use style="fill-opacity:0;stroke:#4c72b0" x="764.528" xlink:href="#me462ae1a2d" y="552.419"/><use style="fill-opacity:0;stroke:#4c72b0" x="765.931" xlink:href="#me462ae1a2d" y="552.419"/><use style="fill-opacity:0;stroke:#4c72b0" x="767.334" xlink:href="#me462ae1a2d" y="319.581"/><use style="fill-opacity:0;stroke:#4c72b0" x="768.738" xlink:href="#me462ae1a2d" y="442.848"/><use style="fill-opacity:0;stroke:#4c72b0" x="771.544" xlink:href="#me462ae1a2d" y="442.848"/><use style="fill-opacity:0;stroke:#4c72b0" x="771.544" xlink:href="#me462ae1a2d" y="429.152"/><use style="fill-opacity:0;stroke:#4c72b0" x="772.947" xlink:href="#me462ae1a2d" y="483.937"/><use style="fill-opacity:0;stroke:#4c72b0" x="774.35" xlink:href="#me462ae1a2d" y="538.723"/><use style="fill-opacity:0;stroke:#4c72b0" x="775.753" xlink:href="#me462ae1a2d" y="552.419"/><use style="fill-opacity:0;stroke:#4c72b0" x="777.156" xlink:href="#me462ae1a2d" y="415.456"/><use style="fill-opacity:0;stroke:#4c72b0" x="778.559" xlink:href="#me462ae1a2d" y="483.937"/><use style="fill-opacity:0;stroke:#4c72b0" x="779.962" xlink:href="#me462ae1a2d" y="483.937"/><use style="fill-opacity:0;stroke:#4c72b0" x="781.365" xlink:href="#me462ae1a2d" y="388.063"/><use style="fill-opacity:0;stroke:#4c72b0" x="782.768" xlink:href="#me462ae1a2d" y="483.937"/><use style="fill-opacity:0;stroke:#4c72b0" x="784.172" xlink:href="#me462ae1a2d" y="483.937"/><use style="fill-opacity:0;stroke:#4c72b0" x="785.575" xlink:href="#me462ae1a2d" y="552.419"/><use style="fill-opacity:0;stroke:#4c72b0" x="786.978" xlink:href="#me462ae1a2d" y="511.33"/><use style="fill-opacity:0;stroke:#4c72b0" x="788.381" xlink:href="#me462ae1a2d" y="538.723"/><use style="fill-opacity:0;stroke:#4c72b0" x="789.784" xlink:href="#me462ae1a2d" y="470.241"/><use style="fill-opacity:0;stroke:#4c72b0" x="791.187" xlink:href="#me462ae1a2d" y="456.545"/><use style="fill-opacity:0;stroke:#4c72b0" x="792.59" xlink:href="#me462ae1a2d" y="483.937"/><use style="fill-opacity:0;stroke:#4c72b0" x="793.993" xlink:href="#me462ae1a2d" y="552.419"/><use style="fill-opacity:0;stroke:#4c72b0" x="795.396" xlink:href="#me462ae1a2d" y="552.419"/><use style="fill-opacity:0;stroke:#4c72b0" x="796.799" xlink:href="#me462ae1a2d" y="470.241"/><use style="fill-opacity:0;stroke:#4c72b0" x="798.203" xlink:href="#me462ae1a2d" y="511.33"/><use style="fill-opacity:0;stroke:#4c72b0" x="799.606" xlink:href="#me462ae1a2d" y="511.33"/><use style="fill-opacity:0;stroke:#4c72b0" x="801.009" xlink:href="#me462ae1a2d" y="497.634"/><use style="fill-opacity:0;stroke:#4c72b0" x="802.412" xlink:href="#me462ae1a2d" y="429.152"/><use style="fill-opacity:0;stroke:#4c72b0" x="803.815" xlink:href="#me462ae1a2d" y="538.723"/><use style="fill-opacity:0;stroke:#4c72b0" x="805.218" xlink:href="#me462ae1a2d" y="552.419"/><use style="fill-opacity:0;stroke:#4c72b0" x="806.621" xlink:href="#me462ae1a2d" y="525.026"/><use style="fill-opacity:0;stroke:#4c72b0" x="808.024" xlink:href="#me462ae1a2d" y="538.723"/><use style="fill-opacity:0;stroke:#4c72b0" x="809.427" xlink:href="#me462ae1a2d" y="470.241"/></g></g><path d="M117 576.72V77.76" style="fill:none;stroke:#d3d3d3;stroke-linecap:square;stroke-linejoin:miter;stroke-width:1.25" id="patch_3"/><path d="M117 576.72h725.4" style="fill:none;stroke:#d3d3d3;stroke-linecap:square;stroke-linejoin:miter;stroke-width:1.25" id="patch_4"/><g id="matplotlib.axis_1"><g id="xtick_1"><g style="fill:#696969" transform="matrix(.16 0 0 -.16 109.578 598.378)" id="text_1"><defs><path d="M9.813 72.906h9.859V5.078q0-13.187-5-19.14-5-5.954-16.094-5.954h-3.75v8.297h3.078q6.531 0 9.219 3.672Q9.813-4.39 9.813 5.078z" id="DejaVuSans-74"/><path d="M34.281 27.484q-10.89 0-15.093-2.484-4.204-2.484-4.204-8.5 0-4.781 3.157-7.594 3.156-2.797 8.562-2.797 7.485 0 12 5.297 4.516 5.297 4.516 14.078v2zm17.922 3.72V0H43.22v8.297Q40.14 3.328 35.547.953q-4.594-2.375-11.234-2.375-8.391 0-13.36 4.719Q6 8.016 6 15.922q0 9.219 6.172 13.906 6.187 4.688 18.437 4.688h12.61v.89q0 6.203-4.078 9.594-4.078 3.39-11.453 3.39-4.688 0-9.141-1.124-4.438-1.125-8.531-3.375v8.312q4.921 1.906 9.562 2.844 4.64.953 9.031.953 11.875 0 17.735-6.156 5.86-6.14 5.86-18.64z" id="DejaVuSans-97"/><path d="M54.89 33.016V0h-8.984v32.719q0 7.765-3.031 11.61-3.031 3.858-9.078 3.858-7.281 0-11.484-4.64-4.204-4.625-4.204-12.64V0H9.08v54.688h9.03v-8.5q3.235 4.937 7.594 7.374Q30.078 56 35.797 56q9.422 0 14.25-5.828 4.844-5.828 4.844-17.156z" id="DejaVuSans-110"/></defs><use xlink:href="#DejaVuSans-74"/><use x="29.492" xlink:href="#DejaVuSans-97"/><use x="90.771" xlink:href="#DejaVuSans-110"/></g></g><g id="xtick_2"><g style="fill:#696969" transform="matrix(.16 0 0 -.16 191.003 598.378)" id="text_2"><defs><path d="M9.813 72.906h14.703l18.593-49.61 18.703 49.61h14.704V0H66.89v64.016l-18.797-50h-9.907l-18.796 50V0H9.813z" id="DejaVuSans-77"/><path d="M41.11 46.297q-1.516.875-3.297 1.281Q36.03 48 33.89 48q-7.625 0-11.703-4.953-4.079-4.953-4.079-14.234V0H9.08v54.688h9.03v-8.5q2.844 4.984 7.375 7.39Q30.031 56 36.531 56q.922 0 2.047-.125 1.125-.11 2.484-.36z" id="DejaVuSans-114"/></defs><use xlink:href="#DejaVuSans-77"/><use x="86.279" xlink:href="#DejaVuSans-97"/><use x="147.559" xlink:href="#DejaVuSans-114"/></g></g><g id="xtick_3"><g style="fill:#696969" transform="matrix(.16 0 0 -.16 275.145 598.378)" id="text_3"><defs><path d="M32.172-5.078q-3.797-9.766-7.422-12.735-3.61-2.984-9.656-2.984H7.906v7.516h5.282q3.703 0 5.75 1.765Q21-9.766 23.483-3.219l1.61 4.094-22.11 53.813H12.5l17.094-42.766 17.093 42.766h9.516z" id="DejaVuSans-121"/></defs><use xlink:href="#DejaVuSans-77"/><use x="86.279" xlink:href="#DejaVuSans-97"/><use x="147.559" xlink:href="#DejaVuSans-121"/></g></g><g id="xtick_4"><g style="fill:#696969" transform="matrix(.16 0 0 -.16 367.622 598.378)" id="text_4"><defs><path d="M8.5 21.578v33.11h8.984V21.922q0-7.766 3.016-11.656 3.031-3.875 9.094-3.875 7.265 0 11.484 4.64 4.234 4.64 4.234 12.656v31h8.985V0h-8.984v8.406Q42.047 3.422 37.718 1q-4.313-2.422-10.032-2.422-9.421 0-14.312 5.86Q8.5 10.296 8.5 21.578zM31.11 56z" id="DejaVuSans-117"/><path d="M9.422 75.984h8.984V0H9.422z" id="DejaVuSans-108"/></defs><use xlink:href="#DejaVuSans-74"/><use x="29.492" xlink:href="#DejaVuSans-117"/><use x="92.871" xlink:href="#DejaVuSans-108"/></g></g><g id="xtick_5"><g style="fill:#696969" transform="matrix(.16 0 0 -.16 449.186 598.378)" id="text_5"><defs><path d="M53.516 70.516V60.89q-5.61 2.687-10.594 4-4.984 1.328-9.625 1.328-8.047 0-12.422-3.125t-4.375-8.89q0-4.845 2.906-7.313 2.907-2.453 11.016-3.97l5.953-1.218q11.031-2.11 16.281-7.406 5.25-5.297 5.25-14.172 0-10.61-7.11-16.078-7.093-5.469-20.812-5.469-5.172 0-11.015 1.172Q13.14.922 6.89 3.219v10.156q6-3.36 11.765-5.078 5.766-1.703 11.328-1.703 8.438 0 13.032 3.312 4.593 3.328 4.593 9.485 0 5.359-3.297 8.39-3.296 3.032-10.812 4.547L27.484 33.5q-11.03 2.188-15.968 6.875-4.922 4.688-4.922 13.047 0 9.672 6.812 15.234 6.813 5.563 18.766 5.563 5.14 0 10.453-.938 5.328-.922 10.89-2.765z" id="DejaVuSans-83"/><path d="M56.203 29.594v-4.39H14.891q.593-9.282 5.593-14.142 5-4.859 13.938-4.859 5.172 0 10.031 1.266 4.86 1.265 9.656 3.812v-8.5Q49.266.734 44.187-.344 39.11-1.422 33.892-1.422q-13.094 0-20.735 7.61-7.64 7.625-7.64 20.625 0 13.421 7.25 21.296Q20.016 56 32.328 56q11.031 0 17.453-7.11 6.422-7.093 6.422-19.296zm-8.984 2.64q-.094 7.36-4.125 11.75-4.032 4.407-10.672 4.407-7.516 0-12.031-4.25-4.516-4.25-5.203-11.97z" id="DejaVuSans-101"/><path d="M18.11 8.203v-29H9.077v75.484h9.031v-8.296q2.844 4.875 7.157 7.234Q29.594 56 35.594 56q9.968 0 16.187-7.906 6.235-7.907 6.235-20.797T51.78 6.484q-6.218-7.906-16.187-7.906-6 0-10.328 2.375-4.313 2.375-7.157 7.25zm30.578 19.094q0 9.906-4.079 15.547-4.078 5.64-11.203 5.64-7.14 0-11.218-5.64-4.079-5.64-4.079-15.547 0-9.906 4.078-15.547 4.079-5.64 11.22-5.64 7.124 0 11.202 5.64t4.078 15.547z" id="DejaVuSans-112"/></defs><use xlink:href="#DejaVuSans-83"/><use x="63.477" xlink:href="#DejaVuSans-101"/><use x="125" xlink:href="#DejaVuSans-112"/></g></g><g id="xtick_6"><g style="fill:#696969" transform="matrix(.16 0 0 -.16 534.24 598.378)" id="text_6"><defs><path d="M9.813 72.906h13.28l32.329-60.984v60.984h9.562V0h-13.28L19.39 60.984V0H9.813z" id="DejaVuSans-78"/><path d="M30.61 48.39q-7.22 0-11.422-5.64-4.204-5.64-4.204-15.453 0-9.813 4.172-15.453 4.188-5.64 11.453-5.64 7.188 0 11.375 5.655 4.203 5.672 4.203 15.438 0 9.719-4.203 15.406-4.187 5.688-11.375 5.688zm0 7.61q11.718 0 18.406-7.625 6.703-7.61 6.703-21.078 0-13.422-6.703-21.078-6.688-7.64-18.407-7.64-11.765 0-18.437 7.64-6.656 7.656-6.656 21.078 0 13.469 6.656 21.078Q18.844 56 30.609 56z" id="DejaVuSans-111"/><path d="M2.984 54.688H12.5L29.594 8.797l17.093 45.89h9.516L35.687 0H23.485z" id="DejaVuSans-118"/></defs><use xlink:href="#DejaVuSans-78"/><use x="74.805" xlink:href="#DejaVuSans-111"/><use x="135.986" xlink:href="#DejaVuSans-118"/></g></g><g id="xtick_7"><g style="fill:#696969" transform="matrix(.16 0 0 -.16 623.111 598.378)" id="text_7"><use xlink:href="#DejaVuSans-74"/><use x="29.492" xlink:href="#DejaVuSans-97"/><use x="90.771" xlink:href="#DejaVuSans-110"/></g></g><g id="xtick_8"><g style="fill:#696969" transform="matrix(.16 0 0 -.16 703.132 598.378)" id="text_8"><use xlink:href="#DejaVuSans-77"/><use x="86.279" xlink:href="#DejaVuSans-97"/><use x="147.559" xlink:href="#DejaVuSans-114"/></g></g><g id="xtick_9"><g style="fill:#696969" transform="matrix(.16 0 0 -.16 787.275 598.378)" id="text_9"><use xlink:href="#DejaVuSans-77"/><use x="86.279" xlink:href="#DejaVuSans-97"/><use x="147.559" xlink:href="#DejaVuSans-121"/></g></g></g><g id="matplotlib.axis_2"><g id="ytick_1"><g style="fill:#696969" transform="matrix(.16 0 0 -.16 97.32 558.498)" id="text_10"><defs><path d="M31.781 66.406q-7.61 0-11.453-7.5Q16.5 51.422 16.5 36.375q0-14.984 3.828-22.484 3.844-7.5 11.453-7.5 7.672 0 11.5 7.5 3.844 7.5 3.844 22.484 0 15.047-3.844 22.531-3.828 7.5-11.5 7.5zm0 7.813q12.266 0 18.735-9.703 6.468-9.688 6.468-28.141 0-18.406-6.468-28.11-6.47-9.687-18.735-9.687-12.25 0-18.718 9.688-6.47 9.703-6.47 28.109 0 18.453 6.47 28.14Q19.53 74.22 31.78 74.22z" id="DejaVuSans-48"/></defs><use xlink:href="#DejaVuSans-48"/></g></g><g id="ytick_2"><g style="fill:#696969" transform="matrix(.16 0 0 -.16 97.32 490.016)" id="text_11"><defs><path d="M10.797 72.906h38.719v-8.312H19.828v-17.86q2.14.735 4.281 1.094 2.157.36 4.313.36 12.203 0 19.328-6.688 7.14-6.688 7.14-18.11 0-11.765-7.328-18.296-7.328-6.516-20.656-6.516-4.593 0-9.36.781-4.75.782-9.827 2.344v9.922q4.39-2.39 9.078-3.563 4.687-1.171 9.906-1.171 8.453 0 13.375 4.437 4.938 4.438 4.938 12.063 0 7.609-4.938 12.047-4.922 4.453-13.375 4.453-3.953 0-7.89-.875-3.922-.875-8.016-2.735z" id="DejaVuSans-53"/></defs><use xlink:href="#DejaVuSans-53"/></g></g><g id="ytick_3"><g style="fill:#696969" transform="matrix(.16 0 0 -.16 87.14 421.534)" id="text_12"><defs><path d="M12.406 8.297h16.11v55.625l-17.532-3.516v8.985l17.438 3.515h9.86V8.296H54.39V0H12.406z" id="DejaVuSans-49"/></defs><use xlink:href="#DejaVuSans-49"/><use x="63.623" xlink:href="#DejaVuSans-48"/></g></g><g id="ytick_4"><g style="fill:#696969" transform="matrix(.16 0 0 -.16 87.14 353.053)" id="text_13"><use xlink:href="#DejaVuSans-49"/><use x="63.623" xlink:href="#DejaVuSans-53"/></g></g><g id="ytick_5"><g style="fill:#696969" transform="matrix(.16 0 0 -.16 87.14 284.571)" id="text_14"><defs><path d="M19.188 8.297h34.421V0H7.33v8.297q5.609 5.812 15.296 15.594 9.703 9.797 12.188 12.64 4.734 5.313 6.609 9 1.89 3.688 1.89 7.25 0 5.813-4.078 9.469-4.078 3.672-10.625 3.672-4.64 0-9.797-1.61-5.14-1.609-11-4.89v9.969Q13.767 71.78 18.938 73q5.188 1.219 9.485 1.219 11.328 0 18.062-5.672 6.735-5.656 6.735-15.125 0-4.5-1.688-8.531-1.672-4.016-6.125-9.485-1.218-1.422-7.765-8.187-6.532-6.766-18.453-18.922z" id="DejaVuSans-50"/></defs><use xlink:href="#DejaVuSans-50"/><use x="63.623" xlink:href="#DejaVuSans-48"/></g></g><g id="ytick_6"><g style="fill:#696969" transform="matrix(.16 0 0 -.16 87.14 216.09)" id="text_15"><use xlink:href="#DejaVuSans-50"/><use x="63.623" xlink:href="#DejaVuSans-53"/></g></g><g id="ytick_7"><g style="fill:#696969" transform="matrix(.16 0 0 -.16 87.14 147.608)" id="text_16"><defs><path d="M40.578 39.313Q47.656 37.797 51.625 33q3.984-4.781 3.984-11.813 0-10.78-7.422-16.703-7.421-5.906-21.093-5.906-4.578 0-9.438.906-4.86.907-10.031 2.72v9.515q4.094-2.39 8.969-3.61 4.89-1.218 10.218-1.218 9.266 0 14.125 3.656 4.86 3.656 4.86 10.64 0 6.454-4.516 10.079-4.515 3.64-12.562 3.64h-8.5v8.11h8.89q7.266 0 11.125 2.906 3.86 2.906 3.86 8.375 0 5.61-3.985 8.61-3.968 3.015-11.39 3.015-4.063 0-8.703-.89-4.641-.876-10.203-2.72v8.782q5.624 1.562 10.53 2.344 4.907.78 9.25.78 11.235 0 17.766-5.109 6.547-5.093 6.547-13.78 0-6.063-3.468-10.235-3.47-4.172-9.86-5.782z" id="DejaVuSans-51"/></defs><use xlink:href="#DejaVuSans-51"/><use x="63.623" xlink:href="#DejaVuSans-48"/></g></g><g style="fill:#696969" transform="matrix(0 -.2 -.2 0 78.98 379.813)" id="text_17"><defs><path d="M51.125 44H36.922l-4.11-16.313h14.313zm-7.328 27.781-5.078-20.265h14.265L58.11 71.78h7.813L60.89 51.516h15.234V44h-17.14l-4-16.313h15.53V20.22H53.079L48 0h-7.813l5.032 20.219H30.906L25.875 0h-7.86l5.079 20.219H7.719v7.468h17.187L29 44H13.281v7.516h17.625l4.985 20.265z" id="DejaVuSans-35"/><path d="M37.11 75.984V68.5h-8.594q-4.828 0-6.72-1.953-1.874-1.953-1.874-7.031v-4.828h14.797v-6.985H19.922V0H10.89v47.703H2.297v6.984h8.594V58.5q0 9.125 4.25 13.297 4.25 4.187 13.468 4.187z" id="DejaVuSans-102"/><path d="M48.781 52.594v-8.407q-3.812 2.11-7.64 3.157-3.828 1.047-7.735 1.047-8.75 0-13.593-5.547-4.829-5.532-4.829-15.547 0-10.016 4.829-15.563 4.843-5.53 13.593-5.53 3.907 0 7.735 1.046 3.828 1.047 7.64 3.156V2.094Q45.016.344 40.984-.531q-4.015-.89-8.562-.89-12.36 0-19.64 7.765-7.266 7.765-7.266 20.953 0 13.375 7.343 21.031Q20.22 56 33.016 56q4.14 0 8.093-.86 3.953-.843 7.672-2.546z" id="DejaVuSans-99"/><path d="M44.281 53.078v-8.5q-3.797 1.953-7.906 2.922-4.094.984-8.5.984-6.688 0-10.031-2.047-3.344-2.046-3.344-6.156 0-3.125 2.39-4.906 2.391-1.781 9.626-3.39l3.078-.688q9.562-2.047 13.593-5.781 4.032-3.735 4.032-10.422 0-7.625-6.032-12.078-6.03-4.438-16.578-4.438-4.39 0-9.156.86Q10.688.296 5.422 2v9.281q4.984-2.594 9.812-3.89 4.829-1.282 9.579-1.282 6.343 0 9.75 2.172 3.421 2.172 3.421 6.125 0 3.656-2.468 5.61-2.453 1.953-10.813 3.765l-3.125.735q-8.344 1.75-12.062 5.39-3.704 3.64-3.704 9.985 0 7.718 5.47 11.906Q16.75 56 26.811 56q4.97 0 9.36-.734 4.406-.72 8.11-2.188z" id="DejaVuSans-115"/></defs><use xlink:href="#DejaVuSans-35"/><use x="83.789" xlink:href="#DejaVuSans-32"/><use x="115.576" xlink:href="#DejaVuSans-111"/><use x="176.758" xlink:href="#DejaVuSans-102"/><use x="211.963" xlink:href="#DejaVuSans-32"/><use x="243.75" xlink:href="#DejaVuSans-99"/><use x="298.73" xlink:href="#DejaVuSans-97"/><use x="360.01" xlink:href="#DejaVuSans-115"/><use x="412.109" xlink:href="#DejaVuSans-101"/><use x="473.633" xlink:href="#DejaVuSans-115"/></g></g><g style="fill:#696969" transform="matrix(.24 0 0 -.24 308.75 71.76)" id="text_18"><defs><path d="M44.39 34.188q3.172-1.079 6.172-4.594 3-3.516 6.032-9.672L66.609 0H56l-9.313 18.703q-3.624 7.328-7.015 9.719-3.39 2.39-9.25 2.39h-10.75V0h-9.86v72.906h22.266q12.5 0 18.656-5.234 6.157-5.219 6.157-15.766 0-6.89-3.203-11.437-3.204-4.532-9.297-6.282zM19.673 64.797V38.922h12.406q7.125 0 10.766 3.297 3.64 3.297 3.64 9.687 0 6.39-3.64 9.64-3.64 3.25-10.766 3.25z" id="DejaVuSans-82"/><path d="M18.313 70.219V54.688h18.5v-6.985h-18.5V18.016q0-6.688 1.828-8.594 1.828-1.906 7.453-1.906h9.218V0h-9.218q-10.407 0-14.36 3.875-3.953 3.89-3.953 14.14v29.688H2.687v6.984h6.594V70.22z" id="DejaVuSans-116"/><path d="M54.89 33.016V0h-8.984v32.719q0 7.765-3.031 11.61-3.031 3.858-9.078 3.858-7.281 0-11.484-4.64-4.204-4.625-4.204-12.64V0H9.08v75.984h9.03V46.188q3.235 4.937 7.594 7.374Q30.078 56 35.797 56q9.422 0 14.25-5.828 4.844-5.828 4.844-17.156z" id="DejaVuSans-104"/><path d="M45.406 46.39v29.594h8.985V0h-8.985v8.203Q42.578 3.328 38.25.953q-4.313-2.375-10.375-2.375-9.906 0-16.14 7.906-6.22 7.922-6.22 20.813 0 12.89 6.22 20.797Q17.968 56 27.874 56q6.063 0 10.375-2.375 4.328-2.36 7.156-7.234zm-30.61-19.093q0-9.906 4.079-15.547 4.078-5.64 11.203-5.64 7.125 0 11.219 5.64 4.11 5.64 4.11 15.547 0 9.906-4.11 15.547-4.094 5.64-11.219 5.64-7.125 0-11.203-5.64-4.078-5.64-4.078-15.547z" id="DejaVuSans-100"/><path d="M4.203 54.688h8.985l11.234-42.672 11.172 42.672h10.593l11.235-42.672 11.187 42.672h8.985L63.28 0H52.688L40.922 44.828 29.109 0H18.5z" id="DejaVuSans-119"/><path d="M64.406 67.281v-10.39q-4.984 4.64-10.625 6.922-5.64 2.296-11.984 2.296-12.5 0-19.14-7.64-6.641-7.64-6.641-22.094 0-14.406 6.64-22.047 6.64-7.64 19.14-7.64 6.345 0 11.985 2.296 5.64 2.297 10.625 6.938V5.609Q59.234 2.094 53.437.33q-5.78-1.75-12.218-1.75-16.563 0-26.094 10.124-9.516 10.14-9.516 27.672 0 17.578 9.516 27.703 9.531 10.14 26.094 10.14 6.531 0 12.312-1.734 5.797-1.734 10.875-5.203z" id="DejaVuSans-67"/><path d="M9.422 54.688h8.984V0H9.422zm0 21.296h8.984v-11.39H9.422z" id="DejaVuSans-105"/></defs><use xlink:href="#DejaVuSans-82"/><use x="64.982" xlink:href="#DejaVuSans-117"/><use x="128.361" xlink:href="#DejaVuSans-116"/><use x="167.57" xlink:href="#DejaVuSans-104"/><use x="230.949" xlink:href="#DejaVuSans-101"/><use x="292.473" xlink:href="#DejaVuSans-114"/><use x="333.586" xlink:href="#DejaVuSans-102"/><use x="368.791" xlink:href="#DejaVuSans-111"/><use x="429.973" xlink:href="#DejaVuSans-114"/><use x="469.336" xlink:href="#DejaVuSans-100"/><use x="532.813" xlink:href="#DejaVuSans-32"/><use x="564.6" xlink:href="#DejaVuSans-78"/><use x="639.404" xlink:href="#DejaVuSans-101"/><use x="700.928" xlink:href="#DejaVuSans-119"/><use x="782.715" xlink:href="#DejaVuSans-32"/><use x="814.502" xlink:href="#DejaVuSans-67"/><use x="884.326" xlink:href="#DejaVuSans-111"/><use x="945.508" xlink:href="#DejaVuSans-118"/><use x="1004.688" xlink:href="#DejaVuSans-105"/><use x="1032.471" xlink:href="#DejaVuSans-100"/><use x="1095.947" xlink:href="#DejaVuSans-32"/><use x="1127.734" xlink:href="#DejaVuSans-67"/><use x="1197.559" xlink:href="#DejaVuSans-97"/><use x="1258.838" xlink:href="#DejaVuSans-115"/><use x="1310.938" xlink:href="#DejaVuSans-101"/><use x="1372.461" xlink:href="#DejaVuSans-115"/></g><g id="legend_1"><path d="M128.2 161.015h163.945q3.2 0 3.2-3.2V88.96q0-3.2-3.2-3.2H128.2q-3.2 0-3.2 3.2v68.855q0 3.2 3.2 3.2z" style="fill:none;opacity:.8;stroke:#ccc;stroke-linejoin:miter" id="patch_5"/><path d="M131.4 98.718h32" style="fill:none;stroke:#000;stroke-linecap:round;stroke-width:1.5" id="line2d_3"/><g style="fill:#696969" transform="matrix(.16 0 0 -.16 176.2 104.317)" id="text_19"><defs><path d="M37.797 64.313 12.89 25.39h24.906zm-2.594 8.593H47.61V25.391h10.407v-8.203H47.609V0h-9.812v17.188H4.89v9.515z" id="DejaVuSans-52"/><path d="M45.406 27.984q0 9.766-4.031 15.125-4.016 5.375-11.297 5.375-7.219 0-11.25-5.375-4.031-5.359-4.031-15.125 0-9.718 4.031-15.093t11.25-5.375q7.281 0 11.297 5.375 4.031 5.375 4.031 15.093zm8.985-21.203q0-13.953-6.203-20.765Q42-20.797 29.203-20.797q-4.734 0-8.937.703-4.203.703-8.157 2.172v8.735q3.954-2.141 7.813-3.157 3.86-1.031 7.86-1.031 8.843 0 13.234 4.61 4.39 4.609 4.39 13.937v4.453q-2.781-4.844-7.125-7.234Q33.938 0 27.875 0 17.828 0 11.672 7.656q-6.156 7.672-6.156 20.328 0 12.688 6.156 20.344Q17.828 56 27.875 56q6.063 0 10.406-2.39 4.344-2.391 7.125-7.22v8.297h8.985z" id="DejaVuSans-103"/></defs><use xlink:href="#DejaVuSans-49"/><use x="63.623" xlink:href="#DejaVuSans-52"/><use x="127.246" xlink:href="#DejaVuSans-100"/><use x="190.723" xlink:href="#DejaVuSans-32"/><use x="222.51" xlink:href="#DejaVuSans-97"/><use x="283.789" xlink:href="#DejaVuSans-118"/><use x="342.969" xlink:href="#DejaVuSans-103"/><use x="406.445" xlink:href="#DejaVuSans-32"/><use x="438.232" xlink:href="#DejaVuSans-102"/><use x="473.438" xlink:href="#DejaVuSans-105"/><use x="501.221" xlink:href="#DejaVuSans-116"/><use x="540.43" xlink:href="#DejaVuSans-116"/><use x="579.639" xlink:href="#DejaVuSans-101"/><use x="641.162" xlink:href="#DejaVuSans-100"/></g><use style="fill-opacity:0;stroke:#4c72b0" x="147.4" xlink:href="#me462ae1a2d" y="122.203" id="line2d_6"/><g style="fill:#696969" transform="matrix(.16 0 0 -.16 176.2 127.802)" id="text_20"><defs><path d="M19.672 64.797V8.109h11.922q15.093 0 22.093 6.829 7 6.843 7 21.593 0 14.64-7 21.453-7 6.813-22.093 6.813zm-9.86 8.11h20.266q21.188 0 31.094-8.813 9.922-8.813 9.922-27.563 0-18.86-9.969-27.703Q51.172 0 30.078 0H9.813z" id="DejaVuSans-68"/></defs><use xlink:href="#DejaVuSans-68"/><use x="77.002" xlink:href="#DejaVuSans-97"/><use x="138.281" xlink:href="#DejaVuSans-105"/><use x="166.064" xlink:href="#DejaVuSans-108"/><use x="193.848" xlink:href="#DejaVuSans-121"/><use x="253.027" xlink:href="#DejaVuSans-32"/><use x="284.814" xlink:href="#DejaVuSans-67"/><use x="354.639" xlink:href="#DejaVuSans-97"/><use x="415.918" xlink:href="#DejaVuSans-115"/><use x="468.018" xlink:href="#DejaVuSans-101"/><use x="529.541" xlink:href="#DejaVuSans-115"/></g><path d="M131.4 151.287h32v-11.2h-32z" style="fill:#089fff;opacity:.2;stroke:#fff;stroke-linejoin:miter" id="patch_6"/><g style="fill:#696969" transform="matrix(.16 0 0 -.16 176.2 151.287)" id="text_21"><defs><path d="M8.688 72.906h9.921V28.61q0-11.718 4.235-16.875 4.25-5.14 13.781-5.14 9.469 0 13.719 5.14 4.25 5.157 4.25 16.875v44.297H64.5V27.391q0-14.25-7.063-21.532-7.046-7.28-20.812-7.28-13.828 0-20.89 7.28-7.047 7.282-7.047 21.532z" id="DejaVuSans-85"/></defs><use xlink:href="#DejaVuSans-85"/><use x="73.193" xlink:href="#DejaVuSans-110"/><use x="136.572" xlink:href="#DejaVuSans-99"/><use x="191.553" xlink:href="#DejaVuSans-101"/><use x="253.076" xlink:href="#DejaVuSans-114"/><use x="294.189" xlink:href="#DejaVuSans-116"/><use x="333.398" xlink:href="#DejaVuSans-97"/><use x="394.678" xlink:href="#DejaVuSans-105"/><use x="422.461" xlink:href="#DejaVuSans-110"/><use x="485.84" xlink:href="#DejaVuSans-116"/><use x="525.049" xlink:href="#DejaVuSans-121"/></g></g></g></g><defs><clipPath id="pd04d62ba14"><path d="M117 77.76h725.4v498.96H117z"/></clipPath></defs></svg>