<svg height="864" viewBox="0 0 936 648" width="1248" xmlns="http://www.w3.org/2000/svg" xmlns:xlink="http://www.w3.org/1999/xlink"><defs><style>*{stroke-linecap:butt;stroke-linejoin:round}</style></defs><g id="figure_1"><path d="M0 648h936V0H0z" style="fill:#fff" id="patch_1"/><g id="axes_1"><path d="M117 576.72h725.4V77.76H117z" style="fill:none" id="patch_2"/><path clip-path="url(#p0efe0aa653)" d="m149.973 554.04 35.023-.102 2.562-.136 1.709-.275 1.708-.43 1.709-.592 1.708-.898 1.708-1.078 1.709-1.113 2.562-2.125 1.709-1.604 1.708-1.089 1.709-1.076 1.708-.981 1.709-.56 2.562-.277 1.709-.032.854.195 1.708.11 1.709.226.854.027 1.708-.173 2.563.146 1.708.137 2.563-.126 1.709.21 1.708.28 2.563.726 2.562.387.855.098 2.562.6 1.709.083 2.562.233 1.709.084.854-.043 3.417.346 4.27.053.855.12.854-.143 9.397-.183 4.27-.914 1.71-.827 1.708-.931 5.125-3.614 1.708-1.56 3.417-2.096 2.563-1.852 5.98-3.72.854-.361.854-.508 2.562-.988.855-.293 1.708-.33 2.563.246.854.045.854.196 1.709.216 2.562 1.033 1.709.827 1.708.693.854.166 4.271 1.705 1.709.427 3.417 1.232 4.27 1.724 4.272 1.31 1.708.006.854.306 3.417.049.855.442 2.562.863.854-.029.855.16 1.708-.01.854.141.854-.198 2.563.138.854-.185.855-.864 3.416-.893 4.272-.444 1.708-.168.854-.173.854.037 2.563-.707.854-.325.854-.127 3.417-1.096 2.563-1.555.854-.144.854-.372.855-.088.854-.514.854-.325.854-.544 1.709-1.545.854-.433.854-.772 1.709-1.219 1.708-1.587 1.708-1.675 1.709-1.751 2.562-3.99 2.563-4.26 2.563-5.782 1.708-4.537.854-1.77 1.709-4.11 2.563-5.697.854-1.334.854-1.084.854-1.426 1.709-2.2.854 1.76.854-.706.854.221 1.709-.059.854-.655 2.563-2.658 1.708-1.882.854-.722 1.709-2.349.854-3.545.854-2.166 1.708-3.022.855-.964.854-.549.854-1.266 1.709-1.154.854.342.854-.232.854.088.854.524.855-.234.854.92.854 5.209.854-.271.854.932.855.344.854.062.854.46.854.194.855 3.015.854-2.834.854-.634.854-1.46 1.709-1.785.854-2.518.854-5.796.854-1.017.855-1.63.854-1.082.854-.84.854-.01.854-.247.855-2.686.854 2.593.854.92.854 3.21.854 1.394.855 2.044.854 2.606.854 3.167 1.709 4.717 1.708 4.324 3.417 8.426.854 1.633.854-.021 1.709 3.973 2.562 5.507.855 1.23.854 1.844 1.708 3.336 2.563 5.066.854 1.45.854 2.512 3.417 5.977 2.563 2.924 3.417 2.736.854.637.854.374.854-.042 1.709.303.854.131 2.563 1.177.854-1.017 3.417 1.789 1.708.755 1.709.076 2.562.568 1.709.233.854 1.154.854-.025.854-.63 1.709-.494.854-.323.854-.19.854-.393 1.709-.485.854-.485 2.563-.589.854-.634.854-.152.854.198.854-.33 1.709-.322 1.708-.135.855-.438.854-.227.854.102.854-.283.854.297.855-.132.854.183.854.028 1.709.72 1.708.93.854.417 2.563 2.059 2.562 1.307.855.34 3.417 2.226 1.708.96 1.708.639 4.271 2.597.855.375.854.601 1.708.842 2.563 1.505 1.708.555 2.563.985 1.708 1.057.855.27.854.687.854.153 1.709.64.854 1.538 3.417.89.854.08.854.346 1.709.246.854.019.854-.28.854.311.854.071.855.211.854-1.064 7.688.69 1.708-.125.854-.045.855-1.53.854-.225 1.708.137.854.326 1.709-.884.854-1.002.854-.59 1.709-.071.854-.575 1.708-1.431.855.84.854-.923 1.708-.422.854-1.583 1.709-1.874.854-.472.854-1.384.855-.401.854-.24 3.417-6.692.854-2.043 1.708-.903.855-2.233.854-2.558.854-1.524.854-1.783.854-2.473 1.709-1.24.854-2.483.854-1.603.854-2.048.855-1.172.854-1.877 1.708-1.19.855-3.577.854.174.854-1.516 2.563-2.938.854-.13.854-2.537.854.345.854-.446.855-1.422.854-.247.854-1.028.854.048.855-.607.854-.462.854-1.346.854-.462.854.236.855.387.854-.112.854 5.487.854-4.378.854-.385 2.563 1.396.854.075.855-.135.854.22.854 1.183 1.708 1.315.855-.062.854.13.854-3.805.854 4.964 2.563 3.356.854.648.854.154.855 2.618 3.416 4.666.855.695.854.41 1.708 1.938 1.709 1.276.854.785 1.708.739.855 2.062.854.051.854.637 1.708 1.58.855.309.854.107.854 1.47.854.432.855 1.14 1.708 1.424 1.708.39.855.526.854.7.854.349.854.08.855.286 1.708.214.854-.073.854.195 1.709.019 2.562-.336.855-.606.854.129.854-.131.854.626.855-1.178.854-.928.854-.137.854-.698.854-.392 2.563-2.453 1.708-.534.855-.941.854-.284.854-.604.854.978.855 2.258.854 1.065.854-.01.854-1.964.854-.545 1.709-1.549.854-.974.854-.496.854-.092.855-1.118.854-.616.854-.845.854-2.688.855-3.292.854-.774.854-.36.854.39 2.563-.613 1.708-.998.855-1.1.854-3.058.854-2.189.854-2.745.854-4.11.855-.547.854-.203.854-4.448.854-9.88.854-7.652.855-9.971.854-12.725.854-7.987.854-2.506.855-6.211 1.708-40.966 1.708-27.679.855-20.773.854-11.25.854-3.643.854-25.825 1.709-22.635.854-8.247.854-14.117.854-7.604.855-1.484.854 8.9.854-8.482.854-4.29.854.316.855 2.171 1.708 6.518.854 11.653.854 7.513.855 5.63 1.708 20.806.854 5.252.855 6.78.854 1.451.854 25.584.854 15.282.854 12.647.855 14.882.854 6.2.854 4.09.854 19.839.855 9.176.854 13.336 1.708 21.518.854 5.167.855 2.02.854 13.216 1.708 10.576 1.709 11.92.854 2.243.854.938.854 8.482.855 2.07.854 4.113.854 2.905.854 2.432.854 1.123.855.734.854 2.858.854 1.974.854 2.409 1.709 3.235.854.862.854.562.854-.214.855 2.585 2.562 3.297.854.416.855.078.854 1.704.854.63h0" style="fill:none;stroke:#000;stroke-linecap:round;stroke-width:1.5" id="line2d_1"/><path clip-path="url(#p0efe0aa653)" d="m149.973 554.04 35.023-.105 2.562-.352.854-.329.855-.17.854-.471.854-.618 1.709-1.877.854-.77.854-2.646.854-2.066 1.709-4.836.854-3.4.854-2.109 2.563-11.329.854-4.06 1.708-5.85 1.709-5.132.854-1.196.854-1.727 1.709-2.895.854.553.854-2.336.854 1.45.854-1.02 1.709 2.605.854-.536.854.086.855-.274 1.708-1.062.854 1.451 1.709.45.854.626.854 1.685.854-.216.854 2.035.855.656.854.456.854.915.854 2.122.855 1.347 1.708 4.887.854.416.854 1.818.855 2.216.854.79.854 2.004.854 1.705 2.563 4.205.854 1.91.854-.193.855 1.447.854-.096 1.708 1.333.854 1.336 1.709.934.854.135 1.709-.096.854.184 1.708.888.854 1.32.855.372.854.925.854.654.854.473.854-.184.855.834.854.649 1.708.736 1.709 1.498.854.346.854.602 2.563.858.854.062.854.447.854.235 1.709.024.854-.021.854.42.855-1.809.854-.043.854.163.854-.035.854.141 1.709-.06 3.417-.04 1.708.125.854-.1.855 2.064 1.708-.013.854-.032.854-.143.855.002.854-.138.854.221.854.36.855.03.854.43 1.708.002 3.417-.403 2.563-.515 1.708-.018.854-.686.855-.114.854-.377 1.708-.157h.854l.855-.142 1.708.26 2.563.42.854-.025.854-.485 1.709.227.854.33 1.708-.025.854.017.855.294.854.075.854-.173.854.21.855.036 1.708.38.854.374.854.227.855-.076.854-.298 2.562-.026.855-.298.854-.17.854.218 1.709-.29.854.027 4.27-.463.855.016 9.396-1.282 2.563-.994.854-.021.855-.341.854-.048.854-.271.854-.521 3.417-.639.854-.787.854-.34 1.709-.178.854.096.854-.57.855-.248.854-.382 1.708-.061 1.709-1.426.854-.384.854-.559.854.146.854-.193.855-1.12.854-.405 2.563-2.29.854-.62.854-1.25 1.708-.961.855-.189.854-.896.854-1.514.854-.858 2.563-3.529.854-.902.854-2.283.855-1.495.854-2.08.854-1.524 1.708-6.2.855-.911.854-2.36.854-1.727.854-2.379 1.709-3.142.854-2.095.854-1.632.854-.534 1.709-2.116.854-.748.854.59.854.75.855-1.041.854-.622.854-.267.854-.655.855-2.183.854-.702.854-2.21.854.02.854-1.287.855-.433.854-.694.854.477.854-2.612.854-.338.855-1.723.854.686.854-1.499.854.577.855 1.894.854 1.214.854.916.854.42.854.936.855-.371.854.446.854-1.511.854 2.401 1.709 4.167.854.331.854 1.054.854-.902.855-1.72.854-1.414.854 1.613.854-51.356.854-1.78.855-1.118.854-2.974.854-2.102 1.709-7.22.854-2.78.854-.995.854-3.387.854-2.139.855-.926.854-.523.854-1.57.854 50.624.854 1.755.855.442.854 2.606.854 3.023.854.282.855.4.854 1.28.854-.204.854 3.288.854 2.514.855.407 1.708 1.685.854.363.854 1.583.855 3.352.854 1.885.854-.03.854 2.827.855 1.007.854 1.696.854 1.285.854.471.854 1.168.855 2.416.854 1.626 1.708 4.49.854-.518.855-1.927.854.014.854 1.267.854 1.75.855 2.465.854-.153.854.449.854 1.342.854.086.855-.147.854-.405.854-.238.854-1.818 1.709.816.854.09.854-.7.854-.904.855-.524.854.426.854-1.038.854-.704 1.709-.628.854.287.854-.986.854.343.855-.458.854-.666.854-1.37.854-.744.854-1.272 2.563-2.4.854-.344.854-.14.855-1.481.854-.857.854-1.28.854-.857.855-1.238.854.69.854-1.218.854-.146.854.497.855-.604.854.343.854 1.17.854-.156.854-.416.855 1.507 3.417 4.554.854.112.854 1.811.854.159.854.56 1.709 1.394 2.563 2.937.854 1.457.854.874.854 1.814.854 12.304.855 1.961.854 1.557.854 1.794 1.708 5.205.855 2.09.854 1.287.854 1.966.854 1.014 1.709 3.948.854 2.286.854 1.452.854-9.813 1.709 3.416.854 1.946.854 1.644 1.709 2.006.854.681.854.385.854 2.234.855.913 1.708.63 1.708.094 1.709.281 1.708.098.854.419.855.025.854.161.854.522.854.184 1.709.684 2.562.007 1.709.434 1.708.047 2.563.012 1.708-.108 2.563.235 2.563.103.854-.09.854.075 1.709-.067 4.27.294 1.709-.027 4.271.096 1.709-.132 4.27-.792.855-.197 1.708-.723.854-.243 1.709-.985 1.708-.993.855-.59 2.562-1.125 2.563-1.97.854-.679 1.709-1.142 2.562-2.043.854-.468 1.709-1.34.854-.365 1.708-1.686 1.709-1.61.854-1.48 1.709-.828 2.562-1.62.854-1.707.855-.664.854-.301.854-.818.854-.244.854-.458.855-.214.854-.802.854.676.854-.618 1.709-.547 1.708-1.207.854 1.291.855-.096 1.708-.634.854 1.611.854-1.484 1.709-.244.854-.6 3.417.068.854-.446.854-.685.855-.401.854-.21.854.352.854-1.94.855 1.228.854-.045.854.46.854.278.854.79.855.413.854.161.854.298 3.417 2.652.854.404 1.709 1.09.854.2 1.708.828.854-.346 2.563.752.854.739.854.31 3.417 2.069.855.8.854.639.854.175 1.708 1.43.855.011.854.181.854.49.854-.35.855.082.854.238.854-.342 3.417-.277.854.344.854-.282.854-.15 1.709.108.854-.374.854.152 1.709-.99 2.562-1.661.855-.697 1.708-1.954 1.708-1.577.855-.74.854-1.26.854-.612.854-1.101 1.709-.724.854-.18.854-.942.854-1.62.855-1.33 1.708-4.514.854-2.374.854-2.03 1.709-2.953.854-2.197.854-2.964.855-3.557.854-2.793.854-2.115 1.708-2.34.855-1.93 1.708-6.103.854-3.462 1.709-8.525.854-4.87.854-8.196 1.709-27.845.854-15.952.854-11.057.854-6.915.854-11.614.855-23.024 1.708-58.17.854-26.52.855-20.477.854-15.698.854-22.634.854-27.198.854-15.156.855-20.92 2.562-43.829.854-10.904.855 3.427 1.708 23.704.854 16.645.855 11.796.854 13.573.854 19.817.854 28.261.854 21.638 1.709 53.963 2.562 61.32 1.709 35.468 2.563 40.444 2.562 23.147 1.709 18.245.854 6.39.854 7.9 1.709 8.062.854 5.142.854 3.785.854 8.08.854 3.737 1.709 2.16.854 2.01.854 1.607.854 1.25.855.768.854 1.783 1.708.9.855.752.854 1.245.854 1.546.854 1.232.854.833.855-.121.854.34.854.488.854 1.14.854 1.57.855.937.854.273.854.806.854-.272.855.008.854.217.854.397.854.203.854.578.855.717 1.708.765h0" style="fill:none;stroke:#009e73;stroke-linecap:round;stroke-width:1.5" id="line2d_2"/><path clip-path="url(#p0efe0aa653)" d="m149.973 554.04 30.751-.071 4.272-.256 1.708-.53.854-.49.854-1.665.855-.45.854-.204.854-.96.854-1.541.855-.92.854-1.163.854-3.932 1.708-6.27.855-3.369.854-2.9.854-4.125.854-5.473.854-4.503.855-7.372.854-8.925.854-3.39 1.709-11.252.854-2.277.854-.837.854-2.92 1.709-1.961.854.05.854.95.854 1.665.854.45.855 3.195.854 6.065.854-.5 1.709 6.423.854.112.854 1.082.854 2.768.854.602 1.709 3.717.854 1.91.854 2.317.854 4.054.855 2.39.854 1.592 1.708 5.514.855 1.705 1.708 5.555.854 2.185.854 2.86.855 1.04.854.41.854.857.854 1.389.855 2.389 1.708 2.022.854.98.854-.01.855 1.174.854.653 1.708.552.854.817.855-.113 2.562.02.855-2.092.854.51 2.562 1.89.855.326.854-.48.854.337.854.153.854-.143.855 1.185.854.725.854.275.854-.347.855.848.854.418.854-.755.854.49h.854l.855-.225 1.708.276.854.378 3.417.081.854.674.855-2.869.854-.745.854.52.854-.674 2.563.194.854-.06.854-.41.855-.01.854-.5.854-.03.854.112.854-.286.855 2.89.854.418.854-.092.854.562.854.01.855.327 1.708.102.854.429.855.174.854.633.854-.245.854.03 1.709.307.854.275 1.708-.204 2.563-1.072.854.02.854-.449.855-.092.854-.265.854.234.854-.398.854.164 1.709.081.854-.275.854-.092 1.709.46.854.101.854-.204.854-.592 1.709-.899.854-.52 1.708.582.855.776.854.04 2.563.623 1.708-.112.854.235.854 1 .855.164 1.708.786.854-.398.854-.266.855-.806.854-.072.854.317.854-.235.855-.02 1.708.255 1.708-.153.855.367 1.708.204.854.623.854-.05.855-.246.854-.04.854-.235.854.102.855-.01.854-.266 2.562.02 1.709-.347.854-.04.854-.307 1.709-.163 3.417-.868.854.01.854-.255 1.708-1.021.855-.45 1.708-.388.854-.694 2.563-.899.854-.112 2.563-1.746.854-.735 1.708-.388.855-.746.854-.54.854-.746.854-.46 1.709-.612.854-1.369 1.708-1.245.855-.45.854-.765.854-.95.854.01.854-1.276.855-1.869.854-.929.854-.153.854-1.573.855-2.267.854-2.767.854-1.46 1.708-5.064.855-.358 1.708-4.34.854-3.44 1.709-2.42.854-1.981.854-2.635.854-.357 1.709-.266.854-2.001.854 1.807 1.709-2.042.854-.664.854.235.854-.592.855-2.798.854-.704.854-1.42.854.613.854-.398.855.572.854-.082.854 2.675.854-3.257.854 1.348.855-1.103.854 1.215.854-.266.854 1.359.855 2.256 1.708 3.42.854.848.854.388.855-1.878.854-.368.854-1.562.854 2.358 1.709 2.9.854.256.854.132.854-1.725 1.709-1.634.854.694.854-44.642.854-3.022.855-1.542.854-2.053.854-2.45 1.709-6.076.854-1.164.854-.388.854-3.38.854-2.164 1.709-2.237.854-1.838.854 44.336.854 1.522.855.418.854 1.552.854 3.278.854-.704.855.5.854.235.854-1.103 1.708 5.014.855 1.164.854.224.854.644.854-.766.854 1.848.855 3.584.854 1.031.854-1.51.854 1.827.855.541.854.899.854 1.44.854.387.854 1.195.855.909.854 1.072.854 1.654.854 2.134.854-2.113.855-1.583.854.439.854 2.022.854 1.337.855 2.053 1.708-2.094.854.715.854-.858.855-1.47.854-.153.854.082.854-3.635.855 1.072.854-1.318.854-.163.854-1.603.854 1.358.855-1.062.854 1 .854-1.061 1.708-.52.855.734.854.368.854-1.389.854 1.756.855-.786.854.092 1.708-1.715.854-3.145.855-.307.854-.99.854.02.854-.418.854 1.419.855-2.971 1.708-3.34.854-.398 1.709-1.358.854-.633 1.708.256.855-.072.854.225.854 1.582.854-.776.854-.48.855 3.503 1.708 4.125.854 1.256 1.709 4.135.854 1.716 1.708 2.675 2.563 4.258.854 2.093.855 1.052.854 1.644.854.98.854 1.757.854 2.47.855 1.481.854 1.869.854 1.358 1.708 4.911.855 1.501.854.899.854 1.603.854-9.935.855-.99.854 1.592.854 1.95.854.91.854-.338.855 1.389.854 1.031.854 1.88.854.928.854.43.855.295.854.45.854.633.854 12.804.855 3.86.854.153.854.623.854.327 1.709.153.854.46.854.132.854.429.854.725 1.709.653 2.563.562.854.408.854-.132 1.708.214 1.709.49.854.082 3.417-.204.854-.215 2.563-.122.854.275 1.708.133 1.709-.306.854-.174.854.072 1.709-.03 1.708.101 1.709-.306 3.416.01 2.563.51 1.709.062 2.562-.174 1.709-.214 3.416-.98 1.709-.674.854-.592 1.709-1.46.854-.338.854-.592.854-.388.854-.541 1.709-1.41 2.563-1.95.854-.827.854-.52 1.708-.735 1.709-.511.854.102.854-1.133.854-.552.855-.745.854-.296.854-1.072.854.98.855-.102 1.708-1.532.854-.265.854-1.44.855-.684.854-.5.854-.685.854.307.854-.5.855.163.854-.797.854.153.854-1.572.855-.296.854.286.854.01.854-.44.854 1.492.855-.215.854-.071.854-.307.854 1.256.854-.806 1.709-.358.854-.02 1.709.265.854-.316.854-.03.854-.225.854-.5.855-.062.854-.204.854.378.854-1.032.855.756 1.708-.01.854.214.854.082.855-.174.854.715 1.708.04.854.062.855.378.854.766.854.224.854.072 1.709.868.854 1.062.854.439.854.214.855.715.854.122.854.388.854.705.854.541.855.051.854.358.854.224 2.563 2.308.854-.082 1.708 1.246.855-.541.854-.123.854.388.854-.092.855-.234.854.52.854-.122.854.081.854-.224.855-.409.854-.092.854.297 1.708-.194 1.709.755 2.563.398.854-.122.854-.868.854-.398 5.125-5.27.855-.428.854-1.297.854-.715.854-.867 1.709-1.042.854.02.854-.51.854-1.113.855-.786 1.708-2.86.854-1.184.854-.796 2.563-4.759 1.709-5.268 1.708-3.89.854-1.267.854-.817.855-2.93.854-3.41.854-4.034 1.709-10.068.854-3.503.854-5.299.854-10.589.854-14.346 1.709-38.087.854-11.988.854-9.19.854-15.806.855-28.202.854-35.616 1.708-56.773 1.709-30.112 1.708-50.748.854-13.336.855-17.828 1.708-22.383.854-14.03.854-6.892.855 8.465.854 20.412.854 12.457.854 19.32.855 7.249.854 10.854.854 20.412.854 28.53.854 18.215 1.709 54.241.854 16.552 2.563 60.01 1.708 32.9.854 11.63.855 13.478 2.562 24.394 1.709 20.728.854 6.361.854 7.577.854 4.493.855 3.594.854 4.564.854.531.854 5.606.854 3.952.855.081.854 1.154.854 2.665.854 2.247.854 1.286.855.082.854 1.195.854.418.854-.153.855 1.072.854 1.41.854 2.225.854.797.854-.123.855.051 1.708 1.41.854-.062 1.709 1.43.854.03.854.838.854-.133.855-.368.854-.561.854-.051.854.275.854 1.563.855-.664.854.286.854.45h0" style="fill:none;stroke:#d55e00;stroke-linecap:round;stroke-width:1.5" id="line2d_3"/><path clip-path="url(#p0efe0aa653)" d="M149.973 554.04h37.585l.854-1.04h1.709l.854-.52h.854l1.709-3.12.854-3.12.854-.521.854-1.56.855-1.04.854-2.6 1.708-7.801h.854l.855-3.12.854-8.322.854-5.2.854-1.56.855-1.04h.854l.854-2.08.854-3.121.854.52.855 1.04.854-.52.854 2.08.854 1.56.854-1.56.855.52.854 6.76.854 5.722.854-1.04.855 1.04.854-1.04.854 2.6h2.563l.854.52.854 2.08 2.563 3.12h1.708l.854 2.6.855 1.56 1.708 5.202.854 3.12.854 1.04h.855l.854.52.854-2.08.854.52 1.709 2.08.854 1.56h1.708l.855-.52h1.708l.854.52h1.709l.854 2.08.854 1.56 1.709 1.04.854-.52h1.708l.854-1.56h6.834l.854-.52h.855l.854.52h1.708l.854 1.56h5.126l.854-1.04.854.52h.854l.855-.52h2.562l.854-2.08.855.52.854-.52h3.417l.854-2.08.854-.52.854.52h.855l.854-.52h1.708l.854 1.04.855-.52.854.52h3.417l.854 3.12.854-1.04.854-.52h.855l.854 1.04h1.708l1.709 1.04h.854l.854-.52h2.563l.854-.52.854 1.56h.854l.855.52h2.562l.855.52h.854l.854-.52.854.52.854-.52h3.417l.854.52 1.709-1.04h2.563l.854-1.04h.854l.854-.52.854.52h3.417l.854-2.08 1.709 1.04h2.563l.854-.52 1.708 1.04h4.271l.854 1.04.855-.52h2.562l.855-1.56.854 1.56.854-.52h3.417l.854.52h.854l.855 1.04.854.52h2.562l.855.52.854-.52.854-2.08.854-4.68.854-1.04h1.709l.854-1.04.854-3.12.855-.52 1.708-5.201 1.708-3.12h.855l1.708 1.04.854 4.68.854 1.04h1.709l.854-2.08.854 1.04.855-2.08h1.708l1.708 3.12.855-5.2.854-.52 1.708-3.12.854-2.601h1.709l.854-6.76h.854l.855 2.6.854-6.241.854-1.04h1.708l.855-2.08.854-5.721 1.708-5.201.855-4.68.854-2.6h.854l.854 2.6.854-2.08.855-3.121.854 8.84.854 3.641.854-10.4h.854l.855 1.04.854 2.6.854.52.854-4.16.855-5.201.854-3.12h.854l.854 1.56.854-2.08.855.52.854-9.362.854-4.68.854 10.4h1.709l.854-1.04.854 2.08.854 8.322.855 3.64.854 5.72h.854l.854-8.32.854 2.6.855-11.441.854 6.76.854 4.681h1.708l.855-8.32.854 2.08 1.708-11.962.855 8.841h1.708l.854-3.12.854-5.72.855 6.76.854-5.2.854-6.241.854-5.201h.855l.854 4.16.854-3.12.854 2.08.854.52.855-5.2h1.708l.854 17.162.854-1.56.855 2.08.854 5.72 1.708 9.882h.855l.854-4.68.854 3.64.854 4.68.854 2.08.855-3.12.854-2.6h1.708l.854 10.92.855-8.32 1.708-4.16h1.709l.854 7.8.854-1.56.854.52h.854l.855 5.72.854-1.04h1.708l.854-7.28.855 10.921.854 2.6.854 1.04h.854l.855-3.64.854 6.24 1.708 1.041.854-3.64.855-2.08.854 3.64h.854l.854-8.321.855 2.08.854-.52h.854l.854-4.68h.854l.855 3.64.854-5.2.854 1.04.854-2.08.854-.52.855 2.08h1.708l.854-3.641.855 1.56.854-1.04h.854l.854 4.68h1.709l.854-5.2.854-1.04.854.52.854 3.12.855-1.04h.854l.854-4.68.854 6.24.855-.52.854 2.6.854-7.8.854-2.08h1.709l.854 3.64.854-1.04 1.708-1.04h0l.855 1.04.854-.52.854 4.68.854.52.855 1.56.854-1.04.854 3.12.854 2.08.854-2.6h.855l.854 7.281.854 3.64.854 1.561.855.52h.854l.854.52h.854l.854 2.08 1.709 2.08.854 4.161.854-2.08.854 2.08h.855l.854.52h1.708l.855 2.6.854 1.56h1.708l.854 1.04.855 1.561.854 1.04.854 2.08.854 4.68.854.52h.855l.854 1.041.854.52.854 3.12.855.52.854 1.04h1.708l.854 2.08h1.709l.854-1.04h4.271l.854-.52.855.52h3.416l.855-1.56h.854l.854 1.04h4.271l.854.52h4.271l.855 1.56.854.521h.854l.854-2.08h4.271l.855-.52h5.125l.854-.52.854 1.56h3.417l1.709-1.04h5.125l.854-.52.854-2.6h1.709l.854-10.922.854-1.04h.854l1.709-5.2h1.708l.855-3.641.854-1.56.854-.52h.854l.854 2.6h1.709l.854 5.72.854-.52.854-2.6.855.52.854 1.56h1.708l.855-1.56.854.52h.854l.854-1.04.854.52h1.709l.854 4.16.854-.52.854 2.081.855.52.854 1.04h1.708l.855 1.56.854-2.6.854-3.12.854 1.04.854-2.6h1.709l.854 1.04.854-4.16.854-2.081.855 2.6.854-2.6h1.708l.855-1.04.854 2.08.854 1.56.854-3.12.854.52h1.709l.854-6.76.854 5.72.855.52.854-2.6.854 1.04h1.708l.855 2.6h1.708l.854 2.08h2.563l.854 4.68 1.709-1.04.854 2.601.854-4.16h1.708l.855 2.08.854-1.56 2.562 3.12h1.709l.854-2.08.854-.52.855 2.6.854-2.08.854 4.68h1.708l.855-1.04.854 2.6.854 1.04h.854l.855.52h2.562l.854-.52.855.52.854 2.08h2.562l.855-1.56.854-.52.854-4.68.854 1.04.855-3.12h1.708l.854 1.04h.854l.855-1.04.854-1.56.854-.52h1.708l.855-5.201.854-1.56.854 1.04h.854l.855 3.64h1.708l.854-7.28.854-1.56h.855l.854-2.601.854-3.12h1.708l.855 1.04 1.708-5.2 1.709-10.402h1.708l.854 1.56.854-3.12 1.709-15.602.854 1.04.854-21.322.855-6.241.854-2.08.854-9.361.854-16.122.854-11.962.855-6.76.854-1.56.854-3.12.854-2.081 1.709-37.444.854-10.402.854-23.922.854-6.761.855-27.043.854-16.122.854-2.08.854-9.361.854-21.323.855-17.162.854-34.324.854-23.403.854-2.6.854 6.24.855 3.121.854-2.08.854 13.002.854 17.161.855 24.443 1.708 19.242.854 22.883.854 31.204 1.709 45.765.854 23.403.854 11.961.854 14.562.855 22.882 1.708 29.124.854 4.16.855 6.761.854 13.001.854 4.16 2.563 18.203.854 9.361h.854l.854-.52.855 2.08.854 1.04.854 7.801.854-1.04.854 5.2.855 1.56.854 2.601.854 1.56.854 1.04.854-1.56.855-.52.854.52.854 2.6.854 1.04.855 1.561.854-3.64.854 1.04h.854l.854-1.04.855.52h1.708l2.563 3.12.854 2.08.854-.52 1.709 1.04.854-2.08h.854l1.708 2.08h1.709l.854-3.64.854-1.04h0" style="fill:none;stroke:#0072b2;stroke-linecap:round;stroke-width:1.5" id="line2d_4"/><path clip-path="url(#p0efe0aa653)" d="M117 553.088h725.4" style="fill:none;stroke:green;stroke-dasharray:1.5,2.475;stroke-dashoffset:0;stroke-width:1.5" id="line2d_5"/><path clip-path="url(#p0efe0aa653)" d="M117 549.28h725.4" style="fill:none;stroke:orange;stroke-dasharray:1.5,2.475;stroke-dashoffset:0;stroke-width:1.5" id="line2d_6"/><path clip-path="url(#p0efe0aa653)" d="M117 544.521h725.4" style="fill:none;stroke:red;stroke-dasharray:1.5,2.475;stroke-dashoffset:0;stroke-width:1.5" id="line2d_7"/><path d="M117 576.72V77.76" style="fill:none;stroke:#d3d3d3;stroke-linecap:square;stroke-linejoin:miter;stroke-width:1.25" id="patch_3"/><path d="M117 576.72h725.4" style="fill:none;stroke:#d3d3d3;stroke-linecap:square;stroke-linejoin:miter;stroke-width:1.25" id="patch_4"/><g id="matplotlib.axis_1"><g id="xtick_1"><g style="fill:#696969" transform="matrix(.16 0 0 -.16 109.451 598.378)" id="text_1"><defs><path d="M9.813 72.906h9.859V5.078q0-13.187-5-19.14-5-5.954-16.094-5.954h-3.75v8.297h3.078q6.531 0 9.219 3.672Q9.813-4.39 9.813 5.078z" id="DejaVuSans-74"/><path d="M34.281 27.484q-10.89 0-15.093-2.484-4.204-2.484-4.204-8.5 0-4.781 3.157-7.594 3.156-2.797 8.562-2.797 7.485 0 12 5.297 4.516 5.297 4.516 14.078v2zm17.922 3.72V0H43.22v8.297Q40.14 3.328 35.547.953q-4.594-2.375-11.234-2.375-8.391 0-13.36 4.719Q6 8.016 6 15.922q0 9.219 6.172 13.906 6.187 4.688 18.437 4.688h12.61v.89q0 6.203-4.078 9.594-4.078 3.39-11.453 3.39-4.688 0-9.141-1.124-4.438-1.125-8.531-3.375v8.312q4.921 1.906 9.562 2.844 4.64.953 9.031.953 11.875 0 17.735-6.156 5.86-6.14 5.86-18.64z" id="DejaVuSans-97"/><path d="M54.89 33.016V0h-8.984v32.719q0 7.765-3.031 11.61-3.031 3.858-9.078 3.858-7.281 0-11.484-4.64-4.204-4.625-4.204-12.64V0H9.08v54.688h9.03v-8.5q3.235 4.937 7.594 7.374Q30.078 56 35.797 56q9.422 0 14.25-5.828 4.844-5.828 4.844-17.156z" id="DejaVuSans-110"/></defs><use xlink:href="#DejaVuSans-74"/><use x="29.492" xlink:href="#DejaVuSans-97"/><use x="90.771" xlink:href="#DejaVuSans-110"/></g></g><g id="xtick_2"><g style="fill:#696969" transform="matrix(.16 0 0 -.16 185.677 598.378)" id="text_2"><defs><path d="M34.188 63.188 20.797 26.906h26.812zm-5.579 9.718h11.188L67.578 0h-10.25l-6.64 18.703h-32.86L11.188 0H.78z" id="DejaVuSans-65"/><path d="M18.11 8.203v-29H9.077v75.484h9.031v-8.296q2.844 4.875 7.157 7.234Q29.594 56 35.594 56q9.968 0 16.187-7.906 6.235-7.907 6.235-20.797T51.78 6.484q-6.218-7.906-16.187-7.906-6 0-10.328 2.375-4.313 2.375-7.157 7.25zm30.578 19.094q0 9.906-4.079 15.547-4.078 5.64-11.203 5.64-7.14 0-11.218-5.64-4.079-5.64-4.079-15.547 0-9.906 4.078-15.547 4.079-5.64 11.22-5.64 7.124 0 11.202 5.64t4.078 15.547z" id="DejaVuSans-112"/><path d="M41.11 46.297q-1.516.875-3.297 1.281Q36.03 48 33.89 48q-7.625 0-11.703-4.953-4.079-4.953-4.079-14.234V0H9.08v54.688h9.03v-8.5q2.844 4.984 7.375 7.39Q30.031 56 36.531 56q.922 0 2.047-.125 1.125-.11 2.484-.36z" id="DejaVuSans-114"/></defs><use xlink:href="#DejaVuSans-65"/><use x="68.408" xlink:href="#DejaVuSans-112"/><use x="131.885" xlink:href="#DejaVuSans-114"/></g></g><g id="xtick_3"><g style="fill:#696969" transform="matrix(.16 0 0 -.16 267.598 598.378)" id="text_3"><defs><path d="M8.5 21.578v33.11h8.984V21.922q0-7.766 3.016-11.656 3.031-3.875 9.094-3.875 7.265 0 11.484 4.64 4.234 4.64 4.234 12.656v31h8.985V0h-8.984v8.406Q42.047 3.422 37.718 1q-4.313-2.422-10.032-2.422-9.421 0-14.312 5.86Q8.5 10.296 8.5 21.578zM31.11 56z" id="DejaVuSans-117"/><path d="M9.422 75.984h8.984V0H9.422z" id="DejaVuSans-108"/></defs><use xlink:href="#DejaVuSans-74"/><use x="29.492" xlink:href="#DejaVuSans-117"/><use x="92.871" xlink:href="#DejaVuSans-108"/></g></g><g id="xtick_4"><g style="fill:#696969" transform="matrix(.16 0 0 -.16 342.006 598.378)" id="text_4"><defs><path d="M39.406 66.219q-10.75 0-17.078-8.016-6.312-8-6.312-21.828 0-13.766 6.312-21.781 6.328-8 17.078-8 10.735 0 17.016 8 6.281 8.015 6.281 21.781 0 13.828-6.281 21.828-6.281 8.016-17.016 8.016zm0 8q15.328 0 24.5-10.281 9.188-10.282 9.188-27.563 0-17.234-9.188-27.516-9.172-10.28-24.5-10.28-15.375 0-24.593 10.25-9.204 10.265-9.204 27.546t9.204 27.563q9.218 10.28 24.593 10.28z" id="DejaVuSans-79"/><path d="M48.781 52.594v-8.407q-3.812 2.11-7.64 3.157-3.828 1.047-7.735 1.047-8.75 0-13.593-5.547-4.829-5.532-4.829-15.547 0-10.016 4.829-15.563 4.843-5.53 13.593-5.53 3.907 0 7.735 1.046 3.828 1.047 7.64 3.156V2.094Q45.016.344 40.984-.531q-4.015-.89-8.562-.89-12.36 0-19.64 7.765-7.266 7.765-7.266 20.953 0 13.375 7.343 21.031Q20.22 56 33.016 56q4.14 0 8.093-.86 3.953-.843 7.672-2.546z" id="DejaVuSans-99"/><path d="M18.313 70.219V54.688h18.5v-6.985h-18.5V18.016q0-6.688 1.828-8.594 1.828-1.906 7.453-1.906h9.218V0h-9.218q-10.407 0-14.36 3.875-3.953 3.89-3.953 14.14v29.688H2.687v6.984h6.594V70.22z" id="DejaVuSans-116"/></defs><use xlink:href="#DejaVuSans-79"/><use x="78.711" xlink:href="#DejaVuSans-99"/><use x="133.691" xlink:href="#DejaVuSans-116"/></g></g><g id="xtick_5"><g style="fill:#696969" transform="matrix(.16 0 0 -.16 422.094 598.378)" id="text_5"><use xlink:href="#DejaVuSans-74"/><use x="29.492" xlink:href="#DejaVuSans-97"/><use x="90.771" xlink:href="#DejaVuSans-110"/></g></g><g id="xtick_6"><g style="fill:#696969" transform="matrix(.16 0 0 -.16 497.466 598.378)" id="text_6"><use xlink:href="#DejaVuSans-65"/><use x="68.408" xlink:href="#DejaVuSans-112"/><use x="131.885" xlink:href="#DejaVuSans-114"/></g></g><g id="xtick_7"><g style="fill:#696969" transform="matrix(.16 0 0 -.16 579.387 598.378)" id="text_7"><use xlink:href="#DejaVuSans-74"/><use x="29.492" xlink:href="#DejaVuSans-117"/><use x="92.871" xlink:href="#DejaVuSans-108"/></g></g><g id="xtick_8"><g style="fill:#696969" transform="matrix(.16 0 0 -.16 653.795 598.378)" id="text_8"><use xlink:href="#DejaVuSans-79"/><use x="78.711" xlink:href="#DejaVuSans-99"/><use x="133.691" xlink:href="#DejaVuSans-116"/></g></g><g id="xtick_9"><g style="fill:#696969" transform="matrix(.16 0 0 -.16 733.883 598.378)" id="text_9"><use xlink:href="#DejaVuSans-74"/><use x="29.492" xlink:href="#DejaVuSans-97"/><use x="90.771" xlink:href="#DejaVuSans-110"/></g></g><g id="xtick_10"><g style="fill:#696969" transform="matrix(.16 0 0 -.16 809.255 598.378)" id="text_10"><use xlink:href="#DejaVuSans-65"/><use x="68.408" xlink:href="#DejaVuSans-112"/><use x="131.885" xlink:href="#DejaVuSans-114"/></g></g></g><g id="matplotlib.axis_2"><g id="ytick_1"><g style="fill:#696969" transform="matrix(.16 0 0 -.16 97.32 560.119)" id="text_11"><defs><path d="M31.781 66.406q-7.61 0-11.453-7.5Q16.5 51.422 16.5 36.375q0-14.984 3.828-22.484 3.844-7.5 11.453-7.5 7.672 0 11.5 7.5 3.844 7.5 3.844 22.484 0 15.047-3.844 22.531-3.828 7.5-11.5 7.5zm0 7.813q12.266 0 18.735-9.703 6.468-9.688 6.468-28.141 0-18.406-6.468-28.11-6.47-9.687-18.735-9.687-12.25 0-18.718 9.688-6.47 9.703-6.47 28.109 0 18.453 6.47 28.14Q19.53 74.22 31.78 74.22z" id="DejaVuSans-48"/></defs><use xlink:href="#DejaVuSans-48"/></g></g><g id="ytick_2"><g style="fill:#696969" transform="matrix(.16 0 0 -.16 66.78 464.932)" id="text_12"><defs><path d="M12.406 8.297h16.11v55.625l-17.532-3.516v8.985l17.438 3.515h9.86V8.296H54.39V0H12.406z" id="DejaVuSans-49"/></defs><use xlink:href="#DejaVuSans-49"/><use x="63.623" xlink:href="#DejaVuSans-48"/><use x="127.246" xlink:href="#DejaVuSans-48"/><use x="190.869" xlink:href="#DejaVuSans-48"/></g></g><g id="ytick_3"><g style="fill:#696969" transform="matrix(.16 0 0 -.16 66.78 369.746)" id="text_13"><defs><path d="M19.188 8.297h34.421V0H7.33v8.297q5.609 5.812 15.296 15.594 9.703 9.797 12.188 12.64 4.734 5.313 6.609 9 1.89 3.688 1.89 7.25 0 5.813-4.078 9.469-4.078 3.672-10.625 3.672-4.64 0-9.797-1.61-5.14-1.609-11-4.89v9.969Q13.767 71.78 18.938 73q5.188 1.219 9.485 1.219 11.328 0 18.062-5.672 6.735-5.656 6.735-15.125 0-4.5-1.688-8.531-1.672-4.016-6.125-9.485-1.218-1.422-7.765-8.187-6.532-6.766-18.453-18.922z" id="DejaVuSans-50"/></defs><use xlink:href="#DejaVuSans-50"/><use x="63.623" xlink:href="#DejaVuSans-48"/><use x="127.246" xlink:href="#DejaVuSans-48"/><use x="190.869" xlink:href="#DejaVuSans-48"/></g></g><g id="ytick_4"><g style="fill:#696969" transform="matrix(.16 0 0 -.16 66.78 274.56)" id="text_14"><defs><path d="M40.578 39.313Q47.656 37.797 51.625 33q3.984-4.781 3.984-11.813 0-10.78-7.422-16.703-7.421-5.906-21.093-5.906-4.578 0-9.438.906-4.86.907-10.031 2.72v9.515q4.094-2.39 8.969-3.61 4.89-1.218 10.218-1.218 9.266 0 14.125 3.656 4.86 3.656 4.86 10.64 0 6.454-4.516 10.079-4.515 3.64-12.562 3.64h-8.5v8.11h8.89q7.266 0 11.125 2.906 3.86 2.906 3.86 8.375 0 5.61-3.985 8.61-3.968 3.015-11.39 3.015-4.063 0-8.703-.89-4.641-.876-10.203-2.72v8.782q5.624 1.562 10.53 2.344 4.907.78 9.25.78 11.235 0 17.766-5.109 6.547-5.093 6.547-13.78 0-6.063-3.468-10.235-3.47-4.172-9.86-5.782z" id="DejaVuSans-51"/></defs><use xlink:href="#DejaVuSans-51"/><use x="63.623" xlink:href="#DejaVuSans-48"/><use x="127.246" xlink:href="#DejaVuSans-48"/><use x="190.869" xlink:href="#DejaVuSans-48"/></g></g><g id="ytick_5"><g style="fill:#696969" transform="matrix(.16 0 0 -.16 66.78 179.373)" id="text_15"><defs><path d="M37.797 64.313 12.89 25.39h24.906zm-2.594 8.593H47.61V25.391h10.407v-8.203H47.609V0h-9.812v17.188H4.89v9.515z" id="DejaVuSans-52"/></defs><use xlink:href="#DejaVuSans-52"/><use x="63.623" xlink:href="#DejaVuSans-48"/><use x="127.246" xlink:href="#DejaVuSans-48"/><use x="190.869" xlink:href="#DejaVuSans-48"/></g></g><g id="ytick_6"><g style="fill:#696969" transform="matrix(.16 0 0 -.16 66.78 84.186)" id="text_16"><defs><path d="M10.797 72.906h38.719v-8.312H19.828v-17.86q2.14.735 4.281 1.094 2.157.36 4.313.36 12.203 0 19.328-6.688 7.14-6.688 7.14-18.11 0-11.765-7.328-18.296-7.328-6.516-20.656-6.516-4.593 0-9.36.781-4.75.782-9.827 2.344v9.922q4.39-2.39 9.078-3.563 4.687-1.171 9.906-1.171 8.453 0 13.375 4.437 4.938 4.438 4.938 12.063 0 7.609-4.938 12.047-4.922 4.453-13.375 4.453-3.953 0-7.89-.875-3.922-.875-8.016-2.735z" id="DejaVuSans-53"/></defs><use xlink:href="#DejaVuSans-53"/><use x="63.623" xlink:href="#DejaVuSans-48"/><use x="127.246" xlink:href="#DejaVuSans-48"/><use x="190.869" xlink:href="#DejaVuSans-48"/></g></g><g style="fill:#696969" transform="matrix(0 -.2 -.2 0 58.62 379.813)" id="text_17"><defs><path d="M51.125 44H36.922l-4.11-16.313h14.313zm-7.328 27.781-5.078-20.265h14.265L58.11 71.78h7.813L60.89 51.516h15.234V44h-17.14l-4-16.313h15.53V20.22H53.079L48 0h-7.813l5.032 20.219H30.906L25.875 0h-7.86l5.079 20.219H7.719v7.468h17.187L29 44H13.281v7.516h17.625l4.985 20.265z" id="DejaVuSans-35"/><path d="M30.61 48.39q-7.22 0-11.422-5.64-4.204-5.64-4.204-15.453 0-9.813 4.172-15.453 4.188-5.64 11.453-5.64 7.188 0 11.375 5.655 4.203 5.672 4.203 15.438 0 9.719-4.203 15.406-4.187 5.688-11.375 5.688zm0 7.61q11.718 0 18.406-7.625 6.703-7.61 6.703-21.078 0-13.422-6.703-21.078-6.688-7.64-18.407-7.64-11.765 0-18.437 7.64-6.656 7.656-6.656 21.078 0 13.469 6.656 21.078Q18.844 56 30.609 56z" id="DejaVuSans-111"/><path d="M37.11 75.984V68.5h-8.594q-4.828 0-6.72-1.953-1.874-1.953-1.874-7.031v-4.828h14.797v-6.985H19.922V0H10.89v47.703H2.297v6.984h8.594V58.5q0 9.125 4.25 13.297 4.25 4.187 13.468 4.187z" id="DejaVuSans-102"/><path d="M44.281 53.078v-8.5q-3.797 1.953-7.906 2.922-4.094.984-8.5.984-6.688 0-10.031-2.047-3.344-2.046-3.344-6.156 0-3.125 2.39-4.906 2.391-1.781 9.626-3.39l3.078-.688q9.562-2.047 13.593-5.781 4.032-3.735 4.032-10.422 0-7.625-6.032-12.078-6.03-4.438-16.578-4.438-4.39 0-9.156.86Q10.688.296 5.422 2v9.281q4.984-2.594 9.812-3.89 4.829-1.282 9.579-1.282 6.343 0 9.75 2.172 3.421 2.172 3.421 6.125 0 3.656-2.468 5.61-2.453 1.953-10.813 3.765l-3.125.735q-8.344 1.75-12.062 5.39-3.704 3.64-3.704 9.985 0 7.718 5.47 11.906Q16.75 56 26.811 56q4.97 0 9.36-.734 4.406-.72 8.11-2.188z" id="DejaVuSans-115"/><path d="M56.203 29.594v-4.39H14.891q.593-9.282 5.593-14.142 5-4.859 13.938-4.859 5.172 0 10.031 1.266 4.86 1.265 9.656 3.812v-8.5Q49.266.734 44.187-.344 39.11-1.422 33.892-1.422q-13.094 0-20.735 7.61-7.64 7.625-7.64 20.625 0 13.421 7.25 21.296Q20.016 56 32.328 56q11.031 0 17.453-7.11 6.422-7.093 6.422-19.296zm-8.984 2.64q-.094 7.36-4.125 11.75-4.032 4.407-10.672 4.407-7.516 0-12.031-4.25-4.516-4.25-5.203-11.97z" id="DejaVuSans-101"/></defs><use xlink:href="#DejaVuSans-35"/><use x="83.789" xlink:href="#DejaVuSans-32"/><use x="115.576" xlink:href="#DejaVuSans-111"/><use x="176.758" xlink:href="#DejaVuSans-102"/><use x="211.963" xlink:href="#DejaVuSans-32"/><use x="243.75" xlink:href="#DejaVuSans-99"/><use x="298.73" xlink:href="#DejaVuSans-97"/><use x="360.01" xlink:href="#DejaVuSans-115"/><use x="412.109" xlink:href="#DejaVuSans-101"/><use x="473.633" xlink:href="#DejaVuSans-115"/></g></g><g style="fill:#696969" transform="matrix(.24 0 0 -.24 252.577 71.76)" id="text_18"><defs><path d="M9.813 72.906h13.28l32.329-60.984v60.984h9.562V0h-13.28L19.39 60.984V0H9.813z" id="DejaVuSans-78"/><path d="M4.203 54.688h8.985l11.234-42.672 11.172 42.672h10.593l11.235-42.672 11.187 42.672h8.985L63.28 0H52.688L40.922 44.828 29.109 0H18.5z" id="DejaVuSans-119"/><path d="M64.406 67.281v-10.39q-4.984 4.64-10.625 6.922-5.64 2.296-11.984 2.296-12.5 0-19.14-7.64-6.641-7.64-6.641-22.094 0-14.406 6.64-22.047 6.64-7.64 19.14-7.64 6.345 0 11.985 2.296 5.64 2.297 10.625 6.938V5.609Q59.234 2.094 53.437.33q-5.78-1.75-12.218-1.75-16.563 0-26.094 10.124-9.516 10.14-9.516 27.672 0 17.578 9.516 27.703 9.531 10.14 26.094 10.14 6.531 0 12.312-1.734 5.797-1.734 10.875-5.203z" id="DejaVuSans-67"/><path d="M25.39 72.906h8.297L8.297-9.28H0z" id="DejaVuSans-47"/><path d="M9.813 72.906h9.859V42.094L52.39 72.906h12.703L28.906 38.922 67.672 0H54.688L19.672 35.11V0h-9.86z" id="DejaVuSans-75"/><path d="M45.406 46.39v29.594h8.985V0h-8.985v8.203Q42.578 3.328 38.25.953q-4.313-2.375-10.375-2.375-9.906 0-16.14 7.906-6.22 7.922-6.22 20.813 0 12.89 6.22 20.797Q17.968 56 27.874 56q6.063 0 10.375-2.375 4.328-2.36 7.156-7.234zm-30.61-19.093q0-9.906 4.079-15.547 4.078-5.64 11.203-5.64 7.125 0 11.219 5.64 4.11 5.64 4.11 15.547 0 9.906-4.11 15.547-4.094 5.64-11.219 5.64-7.125 0-11.203-5.64-4.078-5.64-4.078-15.547z" id="DejaVuSans-100"/><path d="M9.422 54.688h8.984V0H9.422zm0 21.296h8.984v-11.39H9.422z" id="DejaVuSans-105"/><path d="M31 75.875q-6.531-11.219-9.719-22.219-3.172-10.984-3.172-22.265 0-11.266 3.203-22.328Q24.517-2 31-13.188h-7.813Q15.875-1.704 12.235 9.375q-3.64 11.078-3.64 22.016 0 10.89 3.61 21.922 3.624 11.046 10.983 22.562z" id="DejaVuSans-40"/><path d="M52 44.188q3.375 6.062 8.063 8.937Q64.75 56 71.093 56q8.548 0 13.188-5.984 4.64-5.97 4.64-17V0h-9.03v32.719q0 7.86-2.797 11.656-2.781 3.813-8.485 3.813-6.984 0-11.046-4.641-4.047-4.625-4.047-12.64V0h-9.032v32.719q0 7.906-2.78 11.687-2.782 3.782-8.595 3.782-6.89 0-10.953-4.657-4.047-4.656-4.047-12.625V0H9.08v54.688h9.03v-8.5q3.078 5.03 7.375 7.421Q29.781 56 35.687 56q5.97 0 10.141-3.031Q50 49.953 52 44.187z" id="DejaVuSans-109"/><path d="M8.016 75.875h7.812q7.313-11.516 10.953-22.563 3.64-11.03 3.64-21.921 0-10.938-3.64-22.016-3.64-11.078-10.953-22.563H8.016Q14.5-2 17.703 9.063q3.203 11.063 3.203 22.329 0 11.28-3.203 22.265-3.203 11-9.687 22.219z" id="DejaVuSans-41"/></defs><use xlink:href="#DejaVuSans-78"/><use x="74.805" xlink:href="#DejaVuSans-101"/><use x="136.328" xlink:href="#DejaVuSans-119"/><use x="218.115" xlink:href="#DejaVuSans-32"/><use x="249.902" xlink:href="#DejaVuSans-67"/><use x="319.727" xlink:href="#DejaVuSans-97"/><use x="381.006" xlink:href="#DejaVuSans-115"/><use x="433.105" xlink:href="#DejaVuSans-101"/><use x="494.629" xlink:href="#DejaVuSans-115"/><use x="546.729" xlink:href="#DejaVuSans-47"/><use x="580.42" xlink:href="#DejaVuSans-49"/><use x="644.043" xlink:href="#DejaVuSans-48"/><use x="707.666" xlink:href="#DejaVuSans-48"/><use x="771.289" xlink:href="#DejaVuSans-75"/><use x="836.865" xlink:href="#DejaVuSans-32"/><use x="868.652" xlink:href="#DejaVuSans-49"/><use x="932.275" xlink:href="#DejaVuSans-52"/><use x="995.898" xlink:href="#DejaVuSans-100"/><use x="1059.375" xlink:href="#DejaVuSans-32"/><use x="1091.162" xlink:href="#DejaVuSans-105"/><use x="1118.945" xlink:href="#DejaVuSans-110"/><use x="1182.324" xlink:href="#DejaVuSans-99"/><use x="1237.305" xlink:href="#DejaVuSans-105"/><use x="1265.088" xlink:href="#DejaVuSans-100"/><use x="1328.564" xlink:href="#DejaVuSans-101"/><use x="1390.088" xlink:href="#DejaVuSans-110"/><use x="1453.467" xlink:href="#DejaVuSans-99"/><use x="1508.447" xlink:href="#DejaVuSans-101"/><use x="1569.971" xlink:href="#DejaVuSans-32"/><use x="1601.758" xlink:href="#DejaVuSans-40"/><use x="1640.771" xlink:href="#DejaVuSans-115"/><use x="1692.871" xlink:href="#DejaVuSans-117"/><use x="1756.25" xlink:href="#DejaVuSans-109"/><use x="1853.662" xlink:href="#DejaVuSans-41"/></g><g id="legend_1"><path d="M128.2 184.5h136.45q3.2 0 3.2-3.2V88.96q0-3.2-3.2-3.2H128.2q-3.2 0-3.2 3.2v92.34q0 3.2 3.2 3.2z" style="fill:none;opacity:.8;stroke:#ccc;stroke-linejoin:miter" id="patch_5"/><path d="M131.4 98.718h32" style="fill:none;stroke:#000;stroke-linecap:round;stroke-width:1.5" id="line2d_8"/><g style="fill:#696969" transform="matrix(.16 0 0 -.16 176.2 104.317)" id="text_19"><defs><path d="M8.688 72.906h9.921V28.61q0-11.718 4.235-16.875 4.25-5.14 13.781-5.14 9.469 0 13.719 5.14 4.25 5.157 4.25 16.875v44.297H64.5V27.391q0-14.25-7.063-21.532-7.046-7.28-20.812-7.28-13.828 0-20.89 7.28-7.047 7.282-7.047 21.532z" id="DejaVuSans-85"/><path d="M53.516 70.516V60.89q-5.61 2.687-10.594 4-4.984 1.328-9.625 1.328-8.047 0-12.422-3.125t-4.375-8.89q0-4.845 2.906-7.313 2.907-2.453 11.016-3.97l5.953-1.218q11.031-2.11 16.281-7.406 5.25-5.297 5.25-14.172 0-10.61-7.11-16.078-7.093-5.469-20.812-5.469-5.172 0-11.015 1.172Q13.14.922 6.89 3.219v10.156q6-3.36 11.765-5.078 5.766-1.703 11.328-1.703 8.438 0 13.032 3.312 4.593 3.328 4.593 9.485 0 5.359-3.297 8.39-3.296 3.032-10.812 4.547L27.484 33.5q-11.03 2.188-15.968 6.875-4.922 4.688-4.922 13.047 0 9.672 6.812 15.234 6.813 5.563 18.766 5.563 5.14 0 10.453-.938 5.328-.922 10.89-2.765z" id="DejaVuSans-83"/></defs><use xlink:href="#DejaVuSans-85"/><use x="73.193" xlink:href="#DejaVuSans-83"/></g><path d="M131.4 122.203h32" style="fill:none;stroke:#009e73;stroke-linecap:round;stroke-width:1.5" id="line2d_10"/><g style="fill:#696969" transform="matrix(.16 0 0 -.16 176.2 127.802)" id="text_20"><use xlink:href="#DejaVuSans-78"/><use x="74.805" xlink:href="#DejaVuSans-74"/></g><path d="M131.4 145.688h32" style="fill:none;stroke:#d55e00;stroke-linecap:round;stroke-width:1.5" id="line2d_12"/><g style="fill:#696969" transform="matrix(.16 0 0 -.16 176.2 151.287)" id="text_21"><defs><path d="M19.672 34.813V8.108H35.5q7.953 0 11.781 3.297 3.844 3.297 3.844 10.078 0 6.844-3.844 10.078-3.828 3.25-11.781 3.25zm0 29.984V42.828h14.61q7.218 0 10.75 2.703 3.546 2.719 3.546 8.282 0 5.515-3.547 8.25-3.531 2.734-10.75 2.734zm-9.86 8.11h25.204q11.28 0 17.375-4.688Q58.5 63.53 58.5 54.89q0-6.703-3.125-10.657-3.125-3.953-9.188-4.922 7.282-1.562 11.313-6.53 4.031-4.954 4.031-12.376 0-9.765-6.64-15.093Q48.25 0 35.984 0H9.812z" id="DejaVuSans-66"/><path d="M45.406 27.984q0 9.766-4.031 15.125-4.016 5.375-11.297 5.375-7.219 0-11.25-5.375-4.031-5.359-4.031-15.125 0-9.718 4.031-15.093t11.25-5.375q7.281 0 11.297 5.375 4.031 5.375 4.031 15.093zm8.985-21.203q0-13.953-6.203-20.765Q42-20.797 29.203-20.797q-4.734 0-8.937.703-4.203.703-8.157 2.172v8.735q3.954-2.141 7.813-3.157 3.86-1.031 7.86-1.031 8.843 0 13.234 4.61 4.39 4.609 4.39 13.937v4.453q-2.781-4.844-7.125-7.234Q33.938 0 27.875 0 17.828 0 11.672 7.656q-6.156 7.672-6.156 20.328 0 12.688 6.156 20.344Q17.828 56 27.875 56q6.063 0 10.406-2.39 4.344-2.391 7.125-7.22v8.297h8.985z" id="DejaVuSans-103"/></defs><use xlink:href="#DejaVuSans-66"/><use x="68.604" xlink:href="#DejaVuSans-101"/><use x="130.127" xlink:href="#DejaVuSans-114"/><use x="169.49" xlink:href="#DejaVuSans-103"/><use x="232.967" xlink:href="#DejaVuSans-101"/><use x="294.49" xlink:href="#DejaVuSans-110"/></g><path d="M131.4 169.173h32" style="fill:none;stroke:#0072b2;stroke-linecap:round;stroke-width:1.5" id="line2d_14"/><g style="fill:#696969" transform="matrix(.16 0 0 -.16 176.2 174.773)" id="text_22"><defs><path d="M44.39 34.188q3.172-1.079 6.172-4.594 3-3.516 6.032-9.672L66.609 0H56l-9.313 18.703q-3.624 7.328-7.015 9.719-3.39 2.39-9.25 2.39h-10.75V0h-9.86v72.906h22.266q12.5 0 18.656-5.234 6.157-5.219 6.157-15.766 0-6.89-3.203-11.437-3.204-4.532-9.297-6.282zM19.673 64.797V38.922h12.406q7.125 0 10.766 3.297 3.64 3.297 3.64 9.687 0 6.39-3.64 9.64-3.64 3.25-10.766 3.25z" id="DejaVuSans-82"/><path d="M54.89 33.016V0h-8.984v32.719q0 7.765-3.031 11.61-3.031 3.858-9.078 3.858-7.281 0-11.484-4.64-4.204-4.625-4.204-12.64V0H9.08v75.984h9.03V46.188q3.235 4.937 7.594 7.374Q30.078 56 35.797 56q9.422 0 14.25-5.828 4.844-5.828 4.844-17.156z" id="DejaVuSans-104"/></defs><use xlink:href="#DejaVuSans-82"/><use x="64.982" xlink:href="#DejaVuSans-117"/><use x="128.361" xlink:href="#DejaVuSans-116"/><use x="167.57" xlink:href="#DejaVuSans-104"/><use x="230.949" xlink:href="#DejaVuSans-101"/><use x="292.473" xlink:href="#DejaVuSans-114"/><use x="333.586" xlink:href="#DejaVuSans-102"/><use x="368.791" xlink:href="#DejaVuSans-111"/><use x="429.973" xlink:href="#DejaVuSans-114"/><use x="469.336" xlink:href="#DejaVuSans-100"/></g></g></g></g><defs><clipPath id="p0efe0aa653"><path d="M117 77.76h725.4v498.96H117z"/></clipPath></defs></svg>