<svg height="864" viewBox="0 0 936 648" width="1248" xmlns="http://www.w3.org/2000/svg" xmlns:xlink="http://www.w3.org/1999/xlink"><defs><style>*{stroke-linecap:butt;stroke-linejoin:round}</style></defs><g id="figure_1"><path d="M0 648h936V0H0z" style="fill:#fff" id="patch_1"/><g id="axes_1"><path d="M117 576.72h725.4V77.76H117z" style="fill:none" id="patch_2"/><g id="PolyCollection_1"><defs><path d="M150.973-101.853H207.012l1-1.413 1.001.185 1.001.12 1-.742 1.001.144 1.001-2.33 1-2.04 1.002-4.198 1 .107 1-1.8 1.002-.994 1-3.628 1.001-5.922 1-4.74 1.001 1.272 1.001-4.455 1-12.722 1.001-6.774 1.001-1.105 1-.88 1.002.233 1-3.606 1-5.835 1.002.086 1 .067 1.001-3.2 1 1.476 1.001.52 1.001-6.381 1-3.313 1.001 11.64 1.001 13.16 1-.376 1.001 3.368 1.001-1.052 1 5.825 1.002.176 1-.177 1-.397 1.002.068 1 3.248 1.001 1.342 1 .348 1.001-.568 1.001-.802 1 .27 1.001 5.27 1.001 3.555 1 5.519 1.002 6.176 1 7.36 1 3.009 1.002.412 1 1.004 1.001-4.243 1 .484 1.001 1.427 1.001 1.402 1 2.132 1.001-1.434 1.001-1.311 1-2.55 1.001-1.325 1.001-.863 1 .893 1.002.024 1-.024 1 4.228 1.002 3.076 1 1.115 1.001 1.228 1-.85 1.001.2 1.001.111 1-2.999 1.001-.23 1.001-.297 1-.386 1.002-.349 1-.456 1-.652 1.002-.08 1 .02 1.001-.965 1-.202 1.001.775 1.001-.277 1-.534 1.001 3.428 1.001.277 1 .19 1.001.135 1.001.095 1 .062 1.002.032 1-1.968 1 .92 1.002-.167 1-1.166 1.001-.089 1-.101 1.001-.118 1.001-3.195 1 1.184 1.001-.71 1.001.144 1 .056 1.002-.028 1-.113 1-3.389 1.002-.63 1 .989h1.001l1-.989 1.001-.17 1.001-.349 1 1.855 1.001-1.142 1.001.82 1-.18 1.002-.23 1-.303 1-.455 1.002 6.906 1-1.692 1.001-.864 1 .061 1.001 2.056 1.001.021 1-.08 1.001 1.077 1.001.996 1 .021 1.001-1.111 1.001-.238 1-.366 1.002-.6 1-.975 1 3.021 1.002-.068 1 .916 1.001.111 1 .045 1.001-.015 1.001 1.093 1 .123 1.001-.946 1.001.964 1-1.065 1.002-.141 1-.194 1-.613 1.002-.079 1 .902 1.001-.965 1-.859 1.001.081 1.001.065h1l1.001-1.661 1.001.207 1-.756 1.001 1.035 1.001.036 1 .005 1.002-.025 1-.059 1-3.595 1.002 1.02 1 .94 1.001-.073 1-.13 1.001-.204 1.001-.924 1 .918 1.001.965 1.001-.059 1-.066 1.002-.074 1-.085 1-.098 1.002 1.997 1-.988 1.001.031 1 .01 1.001-.01 1.001-2.784 1 2.753 1.001-1.028h4.003l1 .973 1.002.003 1 2.073 1 1.287 1.002.232 1 .177 1.001.136 1 .918 1.001-.912 1.001-3.86 1-7.164 1.001-.654 1.001.888 1 .668 1.002-1.227 1-4.575 1-.124 1.002-3.835 1-3.722 1.001-2.034 1-2.31 1.001-.211 1.001.086 1-.117 1.001 7.923 1.001 1.222 1-.86 1.001-1.067 1.001-4.994 1 1.472 1.002-4.363 1-.118 1-.006 1.002 2.822 1 2.61 1.001-10 1-1.09 1.001-2.48 1.001-1.92 1-3.611 1.001.686 1.001.304 1-10.462 1.002 1.104 1 5.173 1-10.243 1.002-.994 1 .024 1.001-1.088 1-3.939 1.001-9.908 1.001-3.997 1-3.923 1.001-6.98 1.001-3.564 1 .132 1.001 4.966 1.001-3.933 1-6.66 1.002 15.224 1 5.473 1-20.459 1.002-1.978 1-.516 1.001 3.402 1-.033 1.001-8.155 1.001-8.62 1-4.206 1.001 1.183 1.001 3.392 1-3.056 1.002 1.546 1-15.722 1-7.648 1.002 19.307 1-.177 1.001-.546 1-3.305 1.001 1.532 1.001 14.778 1 8.124 1.001 13.518 1.001 2.113 1-15.119 1.001 5.364 1.001-21.145 1 11.597 1.002 6.36 1-.403 1-.674 1.002-16.192 1 2.49 1.001-11.45 1-8.048 1.001 16.515 1.001-1.006 1-1.503 1.001-5.636 1.001-10.093 1 12.541 1.002-9.186 1-10.971 1-8.5 1.002-.021 1 7.867 1.001-5.91 1 4.005 1.001 1.27 1.001-9.741 1-.68 1.001-1.366 1.001 31.836 1-2.242 1.001 3.731 1.001 12.943 1 11.96 1.002 12.887 1 1.99 1-7.903 1.002 7.208 1 9.568 1.001 4.39 1-7.77 1.001-8.411 1.001-5.783 1-1.403 1.001 19.414 1.001-18.228 1-5.627 1.002-4.473 1 .123 1 .114 1.002 14.17 1-2.956 1.001 1.09 1-.062 1.001 11.823 1.001-1.42 1 .274 1.001.06 1.001-14.008 1 21.291 1.001 5.859 1.001 2.276 1-.277 1.002-8.231 1 12.473 1 1.3 1.002 1.053 1-7.575 1.001-4.014 1 6.627 1.001-.291 1.001-15.523 1 .799 1.001-.708 1.001.385 1-7.39 1.002.894 1 6.939 1-9.139 1.002 1.728 1-4.24 1.001-.87 1 3.716 1.001-1.278 1.001-2.072 1-6.293 1.001 2.44 1.001-2.377 1-.84 1.001 8.746 1.001.062 1-.825 1.002-9.368 1-1.609 1 1.2 1.002 5.785 1-1.998 1.001-.09 1-8.122 1.001 11.59 1.001-.938 1 5.088 1.001-14 1.001-3.319 1 .202 1.002-.104 1 6.76 1-1.88 2.002-1.79v-.15l1.001 1.777 1-1.147 1.001 8.9 1.001.869 1 3.212 1.001-2.434 1.001 6.86 1 4.84 1.001-4.85 1.001-.299 1 15.205 1.002 8.675 1 4.214 1 1.626 1.002.187 1 .484 1.001-.047 1 3.815 1.001 1.88 1.001 1.27 1 8.022 1.001-4.132 1.001 2.646 1-2.388 1.002.288 1-.194 1-.164 1.002 4.96 1 2.982 1.001-.233 1-.709 1.001 1.553 1.001 2.713 1 1.827 1.001 4.772 1.001 10.143 1 2.155 1.001.611 1.001 2.383 1 1.042 1.002 6.005 1 1.25 1 2.22 1.002-.2 1-.723 1.001 3.181 1-.89 1.001-1.256 1.001-3.358 1-.479 1.001-.588 1.001-.892 1-.931 1.002-1.299 1-1.348 1 .625 1.002-.111 1-.142 1.001-.186 1-.123 1.001-2.677 1.001.063 1 1.927 1.001-.008 1.001-.012 1-.017 1.001-.023 1.001-.03 1 .994h5.004l1.001 3.142 1 1.214 1.001.276 1.001-3.899 1-.043 1.001-.048 1.001-.053 1-.057h1.002l1-.907 1 .052 1.002.048 1 .043 1.001.04 1-.12 1.001-.378 1.001-1.619 1 3.013 1.001.095 1.001.08 1 .068 1.002.059 1-.965 1-.965H697.35l1-.965 1.001-3.894 1.001.483 1 .285 1.001-15.854 1.001.542 1 1.58 1.002-3.133 1-3.144 1 1.012 1.002.474 1-6.12 1.001-2.634 1-1.346 1.001-1.056 1.001 3.316 1-2.342 1.001-3.896 1.001 9.923 1-1.544 1.002-5.774 1 .574 1 3.095 1.002.185 1 .17 1.001-2.973 1 .598 1.001-.674 1.001-2.919 1 .557 1.001-.537 1.001-.775 1 8.234 1.001-.637 1.001 4.649 1 1.636 1.002 2.734 1 .582 1 .424 1.002 3.308 1-4.935 1.001-6.047 1 1.373 1.001-5.122 1.001-.326 1-.36 1.001 2.063 1.001-6.756 1-2.64 1.002 5.071 1-4.416 1 .093 1.002-.21 1-2.795 1.001 3.004 1 2.51 1.001-6.368 1.001.74 1-.36 1.001-.539 1.001-11.895 1 10.485 1.001.966 1.001-4.901 1 1.97 1.002.02h1l1 4.905 1.002-.06 1-.381 1.001 4.307 1 .348 1.001.296 1.001.253 1 8.805 1.001-.22 1.001-.535 1 5.212 1.002-8.111 1-.568 1-.802 1.002 3.682 1-3.356 1.001 1.348 1 1.81 1.001 1.843 1.001-.275 1-.518 1.001-3.87 1.001-.932 1 4.955 1.001-4.095 1.001 9.287 1 .307 1.002.085 1-1.846 1 5.084 1.002 2.404 1 .383 1.001 1.393 1 .286 1.001.165 1.001-.339 1-1.79 1.001.65 1.001 2.83 1 .14 1.002-.015 1-.174 1-3.844 1.002-1.211 1-7.422v-6.454l-1 9.944-1.001.718-1 1.944-1.001-.173-1.001-.015-1 .14-1.002-4.89-1-1.277-1 .138-1.002-.338-1 .164-1.001.286-1-.536-1.001.383-1.001-1.455-1-4.563-1.001 2.013-1.001.085-1 .307-1.002-8.078-1 3.622-1-4.692-1.002.998-1 3.848-1.001-.519-1-.274-1.001-2.016-1.001-2.05-1-2.51-1.001 2.432-1.001-4.035-1-.803-1.001-.567-1.001 7.324-1-4.435-1.002 1.395-1 1.708-1-8.56-1.002.253-1 .296-1.001.348-1-3.41-1.001-.381-1.001-.06-1-4.744h-1.001l-1.001.02-1-1.888-1.002 4.747-1-.964-1-10.74-1.002 13.189-1-.538-1.001-.361-1-1.19-1.001 5.21-1.001-3.279-1-4.714-1.001 1.063-1.001-.209-1 .093-1.001 5.231-1.001-4.576-1 5.078-1.002 8.68-1-1.796-1-.36-1.002-.326-1 4.525-1.001-2.485-1 5.528-1.001 4.713-1.001-2.48-1 .424-1.001.582-1.001-1.125-1-.293-1.002-3.07-1 1.293-1-7.202-1.002-.775-1-.537-1.001-1.372-1 .94-1.001-.674-1.001-1.332-1 2.815-1.001.17-1.001.186-1-2.694-1.001-1.355-1.001 3.873-1 .385-1.002-11.3-1-3.897-1-2.341-1.002-6.332-1-1.055-1.001.583-1 3.155-1.001 7.386-1.001.473-1 1.013-1.001 6.503-1.001 6.514-1 1.58-1.002 4.4-1 24.666-1 .284-1.002.483-1 5.754-1.001.964h-6.004l-1 .965-1.001.965-1.001.059-1 .068-1.002.08-1 .095-1-2.776-1.002.31-1-.377-1.001-.12-1 .04-1.001.043-1.001.048-1 .052-1.001 1.022h-1.001l-1-.057-1.002-.053-1-.048-1-.043-1.002 3.82-1 .274-1.001-.715-1-2.646h-5.004l-1-.936-1.002-.03-1-.022-1-.018-1.002-.012-1-.007-1-1.932-1.002.062-1 3.112-1.001-.123-1-.186-1.001-.142-1.001-.111-1-1.305-1.001.582-1.001-1.299-1-.93-1.002-.893-1-.588-1-.48-1.002.502-1-1.256-1.001-.89-1-4.537-1.001-.723-1.001-.2-1-1.638-1.001-.68-1.001-5.572-1-.887-1.002-1.477-1 .611-1 .226-1.002-7.223-1-2.945-1.001-2.032-1-3.075-1.001-2.306-1.001-.71-1-.233-1.001-2.805-1.001-4.688-1-.164-1.001-.194-1.001-1.641-1-2.389-1.002-5.072-1 3.587-1-7.414-1.002-2.59-1-1.979-1.001-3.902-1-.047-1.001-1.446-1.001.188-1-.304-1.001-1.575-1.001-4.831-1-11.808-1.002-.298-1 4.797-1-2.878-1.002-4.717-1 1.426-1.001-2.577-1-1.061-1.001-8.464-1.001.782-1-2.082v-.15l-2.002 2.068-1 1.98-1.001-6.746-1.001-.104-1 .201-1.002 4.4-1 14.941-1-4.559-1.002.992-1-11.564-1.001 9.243-1-.09-1.001 1.86-1.001-5.79-1-.73-1.001 2.25-1.001 9.926-1-.825-1.002.062-1-8.619-1-.84-1.002 1.481-1-3.347-1.001 7.212-1-2.072-1.001-1.277-1.001-4.002-1 1.059-1.001 3.478-1.001-2.131-1 10.156-1.001-6.567-1.001.895-1 9.974-1.002.385-1 1.222-1-6.92-1.002 15.349-1-.291-1.001-6.879-1 3.703-1.001 5.932-1.001-.876-1-.63-1.001-10.68-1.001 5.274-1-.276-1.002-1.583-1-3.789-1-19.227-1.002 13.004-1 .06-1.001.274-1 2.44-1.001-9.402-1.001-.062-1-.84-1.001 2.832-1.001-14.77-1 .113-1.001.123-1.001 3.244-1 2.092-1.002 12.643-1-21.104-1-1.404-1.002-5.782-1 1.235-1.001 3.808-1-3.329-1.001-7.797-1.001-6.298-1 9.462-1.001 1.99-1.001-6.408-1-5.404-1.002-8.282-1-3.987-1 3.546-1.002-31.836-1-1.366-1.001-.68-1 9.554-1.001-.66-1.001-3.712-1 5.667-1.001-7.57-1.001-.02-1 10.794-1.001 12.183-1.001 10.108-1-12.541-1.002 11.13-1 5.942-1-1.503-1.002-1.006-1-16.287-1.001 13.176-1 11.705-1.001-5.228-1.001 14.68-1-.675-1.001-.403-1.001-11.005-1-13.486-1.002 21.303-1-4.284-1 15.753-1.002 2.113-1-7.706-1.001-5.382-1-16.094-1.001-6.186-1.001.554-1-.546-1.001-.177-1.001-19.282-1 9.717-1.001 19.008-1.001-.383-1 4.662-1.002-2.397-1 1.184-1 7.37-1.002 10.675-1 7.28-1.001-1.962-1-6.245-1.001-4.375-1.001-1.978-1 18.13-1.001-8.033-1.001-17.577-1 4.917-1.002 3.785-1-4.682-1 .133-1.002 6.083-1 10.385-1.001 5.725-1 5.65-1.001 11.316-1.001 3.78-1-1.09-1.001.024-1.001 2.866-1 12.91-1.001-4.474-1.001 1.103-1 14.622-1.002.304-1 .686-1 6.036-1.002 3.868-1 3.31-1.001.838-1 9.295-1.001-3.178-1.001-2.966-1-.006-1.001-.118-1.001 3.354-1-2.387-1.002 2.724-1-1.067-1-.86-1.002-2.637-1-9.442-1.001-2.046-1-1.844-1.001-.21-1.001 3.478-1 3.754-1.001 5.926-1.001 5.812-1 1.805-1.001 7.002-1.001 2.632-1 .668-1.002.888-1 3.205-1 10.2-1.002 3.86-1 1.017-1.001-1.012-1 .136-1.001.177-1.001.232-1-.642-1.001-1.786-1.001.003-1-.956h-4.004l-1 .9-1.001-3.035-1 3.004-1.001-.01-1.001.01-1 .032-1.001.94-1.001-1.861-1-.098-1.001-.085-1.001-.074-1-.066-1.002-.059-1-.964-1-1.011-1.002 1.005-1-.204-1.001-.13-1-.073-1.001-.989-1.001-.91-1 4.122-1.001-.058-1.001-.026-1 .005-1.002.037-1-.895-1 1.174-1.002.207-1 2.197h-1.001l-1 .065-1.001.081-1.001 1.071-1 .965-1.001-1.028-1.001-.078-1-.614-1.001-.194-1.001-.14-1 .863-1.002-.965-1 .984-1 .123-1.002-.837-1-.015-1.001.045-1 .111-1.001-1.013-1.001-.068-1-2.767-1.001.954-1.001-.6-1-.366-1.002-.238-1 .818-1 .02-1.002-.932-1-.853-1.001-.08-1 .021-1.001-1.803-1.001.062-1 1.065-1.001 2.166-1.001-4.67-1-.455-1.001-.304-1.001-.229-1-.18-1.002-1.11-1 .788-1-2.004-1.002-.349-1-.17-1.001.94h-1l-1.001-.94-1.001 1.299-1 4.33-1.001-.114-1.001-.027-1 .055-1.002.144-1 1.22-1-.746-1.002 4.523-1-.118-1.001-.101-1-.089-1.001.764-1.001-.168-1-1.009-1.001 1.891-1.001.032-1 .062-1.002.095-1 .135-1 .19-1.002.277-1-2.36-1-.534-1.002-.278-1-1.154-1.001-.202-1 .965-1.001.02-1.001-.08-1-.653-1.001-.456-1.001-.348-1-.386-1.002-.298-1-.23-1 2.79-1.002.111-1 .201-1.001 1.078-1-.701-1.001-.815-1.001-2.712-1-3.49-1.001-.023-1.001.023-1-1.037-1.002-.862-1-1.326-1-.62-1.002-1.31-1-1.434-1.001-3.657-1-2.457-1.001-2.432-1.001-1.445-1 3.474-1.001-.925-1.001.412-1-.85-1.001-4.217-1.001-3.471-1-4.128-1.002-2.233-1-4.379-1 .271-1.002-.802-1-4.427-1.001-3.512-1-2.516-1.001-4.47-1.001-1.862-1-.396-1.001-.177-1.001.176-1-3.822-1.002 2.806-1-.491-1 3.484-1.002-8.064-1-13.444-1.001-5.242-1-.593-1.001-5.268-1.001-6.243-1-1.27-1.001-3.792-1.001-1.844-1 5.742-1.001 4.112-1.001.233-1 2.98-1.002 4.682-1 12.521-1 18.15-1.002 7.121-1 1.272-1.001 8.767-1 9.513-1.001 6.02-1.001 2.865-1 3.988-1.001 2.037-1.001 7.378-1 3.75-1.002 3.457-1 .145-1 1.186-1.002.121-1 .185-1.001 2.445H150.973z" id="m747e11a1c2" style="stroke:#fff;stroke-opacity:.2"/></defs><g clip-path="url(#pf97502e7a1)"><use style="fill:#089fff;fill-opacity:.2;stroke:#fff;stroke-opacity:.2" xlink:href="#m747e11a1c2" y="648"/></g></g><g id="LineCollection_1"><path clip-path="url(#pf97502e7a1)" d="M208.013 546.147v-27.012M211.015 546.147v-13.506M213.016 546.147V505.63M214.017 546.147V505.63M215.018 546.147V465.11M216.018 546.147v-13.506M217.019 546.147V505.63M218.02 546.147v-27.012M219.02 546.147v-67.531M220.021 546.147v-108.05M221.022 546.147v-94.544M222.022 546.147v-27.012M223.023 546.147V465.11M224.024 546.147v-216.1M225.024 546.147V397.578M226.025 546.147V505.63M227.026 546.147v-67.531M228.027 546.147V505.63M229.027 546.147V411.085M230.028 546.147v-94.544M231.029 546.147v-27.012M233.03 546.147V465.11M234.03 546.147v-54.025M235.031 546.147v-54.025M236.032 546.147v-67.531M237.033 546.147v-67.531M238.033 546.147V505.63M240.035 546.147v-67.531M241.035 546.147V505.63M242.036 546.147v-67.531M243.037 546.147v-67.531M244.038 546.147v-94.544M245.038 546.147v-27.012M247.04 546.147v-67.531M249.041 546.147v-27.012M250.042 546.147V505.63M251.042 546.147V505.63M252.043 546.147V505.63M258.047 546.147v-13.506M261.05 546.147v-54.025M262.05 546.147v-54.025M263.05 546.147v-13.506M264.051 546.147v-13.506M265.052 546.147v-13.506M269.055 546.147v-13.506M276.06 546.147v-13.506M279.062 546.147v-27.012M282.064 546.147V505.63M283.064 546.147v-13.506M290.07 546.147v-13.506M291.07 546.147v-13.506M293.071 546.147v-13.506M297.074 546.147v-13.506M303.078 546.147v-27.012M305.08 546.147v-13.506M306.08 546.147v-13.506M307.081 546.147v-13.506M310.083 546.147v-54.025M312.084 546.147v-13.506M317.088 546.147V465.11M318.089 546.147v-13.506M320.09 546.147v-13.506M321.09 546.147v-27.012M324.093 546.147v-27.012M325.093 546.147v-13.506M332.098 546.147V505.63M333.099 546.147v-13.506M334.1 546.147v-13.506M338.102 546.147v-13.506M341.104 546.147v-13.506M345.107 546.147v-13.506M347.109 546.147v-13.506M354.113 546.147v-13.506M356.115 546.147v-13.506M359.117 546.147v-13.506M362.119 546.147v-13.506M363.12 546.147v-13.506M367.122 546.147v-27.012M368.123 546.147v-13.506M369.124 546.147v-13.506M373.127 546.147v-13.506M375.128 546.147v-54.025M381.132 546.147V505.63M387.136 546.147v-13.506M389.138 546.147v-27.012M390.138 546.147v-13.506M394.141 546.147V505.63M396.142 546.147v-13.506M408.15 546.147v-27.012M409.151 546.147v-13.506M410.152 546.147v-67.531M411.153 546.147V424.591M412.153 546.147v-27.012M415.156 546.147v-27.012M416.156 546.147V465.11M417.157 546.147v-13.506M418.158 546.147v-67.531M419.158 546.147v-67.531M420.159 546.147V505.63M421.16 546.147V505.63M422.16 546.147v-27.012M424.162 546.147v-54.025M429.165 546.147V465.11M430.166 546.147v-54.025M431.167 546.147v-67.531M432.167 546.147v-67.531M433.168 546.147v-67.531M436.17 546.147V384.072M437.17 546.147v-13.506M438.171 546.147v-94.544M439.172 546.147V505.63M440.173 546.147v-67.531M443.175 546.147V289.528M444.176 546.147v-54.025M446.177 546.147V316.541M447.178 546.147v-94.544M450.18 546.147v-216.1M451.18 546.147V384.072M452.181 546.147V384.072M453.182 546.147v-108.05M454.182 546.147V357.06M455.183 546.147v-67.531M457.184 546.147V357.06M458.185 546.147v-108.05M459.186 546.147V465.11M462.188 546.147V276.022M464.19 546.147V357.06M465.19 546.147v-94.544M466.19 546.147V397.578M467.191 546.147v-216.1M468.192 546.147v-324.15M469.193 546.147V397.578M471.194 546.147V397.578M472.195 546.147V384.072M473.196 546.147v-67.531M474.196 546.147V303.034M475.197 546.147V424.591M478.199 546.147V357.06M479.2 546.147V424.591M480.2 546.147v-94.544M482.202 546.147V316.541M485.204 546.147v-364.67M486.204 546.147v-94.544M487.205 546.147v-364.67M488.206 546.147v-67.531M492.209 546.147V140.96M493.21 546.147v-67.531M494.21 546.147V289.528M495.21 546.147V397.578M499.213 546.147V100.44M500.214 546.147V303.034M501.215 546.147V357.06M502.216 546.147V343.553M503.216 546.147V384.072M504.217 546.147V411.085M506.218 546.147V249.01M507.219 546.147V397.578M508.22 546.147V343.553M509.22 546.147V411.085M510.221 546.147V411.085M514.224 546.147V262.515M515.224 546.147V411.085M516.225 546.147v-54.025M517.226 546.147V505.63M520.228 546.147V127.453M521.229 546.147v-54.025M522.23 546.147V465.11M523.23 546.147V465.11M524.23 546.147v-216.1M525.231 546.147v-67.531M529.234 546.147V194.984M530.235 546.147v-108.05M531.236 546.147v-94.544M534.238 546.147v-216.1M535.238 546.147v-94.544M536.239 546.147v-67.531M537.24 546.147V465.11M538.24 546.147v-67.531M539.241 546.147v-94.544M542.243 546.147V357.06M543.244 546.147v-67.531M544.244 546.147V505.63M545.245 546.147v-67.531M547.247 546.147v-94.544M548.247 546.147v-54.025M549.248 546.147V465.11M550.249 546.147v-54.025M551.25 546.147V370.566M552.25 546.147V424.591M555.252 546.147v-216.1M556.253 546.147V411.085M557.253 546.147V465.11M558.254 546.147V505.63M559.255 546.147V357.06M562.257 546.147V357.06M563.258 546.147v-54.025M564.258 546.147v-108.05M565.259 546.147V357.06M566.26 546.147v-67.531M569.262 546.147V235.503M570.262 546.147v-94.544M571.263 546.147v-108.05M572.264 546.147V505.63M573.264 546.147v-67.531M576.267 546.147v-324.15M577.267 546.147V465.11M578.268 546.147v-94.544M579.269 546.147v-108.05M580.27 546.147v-94.544M582.27 546.147V424.591M583.271 546.147V397.578M584.272 546.147v-108.05M585.273 546.147V505.63M586.273 546.147V303.034M587.274 546.147V424.591M590.276 546.147V316.541M591.277 546.147v-108.05M593.278 546.147V424.591M593.278 546.147v-108.05M594.279 546.147v-67.531M595.28 546.147v-13.506M597.281 546.147V411.085M598.282 546.147v-67.531M599.282 546.147v-67.531M600.283 546.147V384.072M601.284 546.147v-67.531M602.284 546.147v-67.531M604.286 546.147V505.63M605.287 546.147v-13.506M606.287 546.147V465.11M607.288 546.147v-94.544M608.289 546.147v-67.531M611.29 546.147V465.11M612.291 546.147V505.63M613.292 546.147V505.63M614.293 546.147v-54.025M615.293 546.147V424.591M616.294 546.147v-13.506M618.296 546.147v-27.012M619.296 546.147v-13.506M620.297 546.147V465.11M621.298 546.147v-27.012M622.298 546.147v-27.012M625.3 546.147v-54.025M627.302 546.147v-13.506M635.307 546.147v-13.506M641.311 546.147v-13.506M642.312 546.147v-27.012M648.316 546.147v-13.506M654.32 546.147V505.63M655.321 546.147v-13.506M671.332 546.147v-54.025M677.336 546.147v-13.506M684.341 546.147v-13.506M685.342 546.147v-13.506M690.345 546.147v-13.506M691.346 546.147v-27.012M698.35 546.147v-27.012M699.351 546.147V465.11M702.353 546.147V262.515M703.354 546.147v-27.012M704.355 546.147v-13.506M705.356 546.147v-94.544M706.356 546.147v-67.531M709.358 546.147v-94.544M710.359 546.147V505.63M711.36 546.147v-13.506M712.36 546.147v-27.012M713.361 546.147v-13.506M716.363 546.147V411.085M717.364 546.147V505.63M718.365 546.147V465.11M719.365 546.147V465.11M720.366 546.147v-27.012M723.368 546.147V411.085M724.369 546.147v-27.012M725.37 546.147v-13.506M726.37 546.147v-54.025M730.373 546.147v-27.012M731.373 546.147v-54.025M732.374 546.147v-27.012M733.375 546.147v-67.531M737.378 546.147v-94.544M738.378 546.147v-94.544M739.379 546.147v-94.544M740.38 546.147v-27.012M741.38 546.147v-67.531M745.383 546.147V384.072M746.384 546.147V465.11M748.385 546.147v-67.531M751.387 546.147V424.591M752.388 546.147V505.63M753.389 546.147v-54.025M754.39 546.147v-108.05M755.39 546.147v-54.025M758.392 546.147V370.566M759.393 546.147v-13.506M760.393 546.147v-67.531M761.394 546.147v-67.531M762.395 546.147V505.63M765.397 546.147v-54.025M766.398 546.147V505.63M767.398 546.147v-54.025M768.399 546.147v-54.025M769.4 546.147v-54.025M772.402 546.147v-54.025M773.402 546.147v-27.012M774.403 546.147V465.11M776.405 546.147V397.578M780.407 546.147V465.11M781.408 546.147v-27.012M782.409 546.147v-27.012M783.41 546.147v-27.012M786.411 546.147v-108.05M787.412 546.147V505.63M788.413 546.147v-13.506M789.413 546.147v-54.025M790.414 546.147v-27.012M793.416 546.147v-27.012M794.417 546.147v-13.506M796.418 546.147v-27.012M797.419 546.147v-13.506M800.421 546.147v-108.05M801.422 546.147v-54.025M804.424 546.147v-27.012M807.426 546.147v-67.531M808.427 546.147v-27.012M809.427 546.147V424.591" style="fill:none;stroke:#000;stroke-dasharray:1.5,2.475;stroke-dashoffset:0;stroke-width:1.5"/></g><path clip-path="url(#pf97502e7a1)" d="M149.973 546.147h57.039l1-1.929h2.002l1-.965h1.001l2.002-5.788 1-5.789 1.001-.964 1-2.895 1.002-1.929 1-4.824 1.001-7.718 1-6.753h1.001l1.001-5.788 1-15.436 1.001-9.647 1.001-2.894 1-1.93h1.002l1-3.859 1-5.788 1.002.965 1 1.929 1.001-.965 1 3.86 1.001 2.893 1.001-2.894 1 .965 1.001 12.541 1.001 10.613 1-1.93 1.001 1.93 1.001-1.93 1 4.824h3.003l1 .965 1.001 3.858 3.002 5.789h2.002l1 4.824 1.001 2.894 2.002 9.647 1 5.788 1 1.93h1.002l1 .965 1.001-3.86 1 .965 2.002 3.86 1 2.894h2.002l1-.965h2.002l1 .965h2.002l1 3.859 1.002 2.894 2.001 1.93 1-.965h2.002l1-2.895h8.006l1.001-.964h1l1.001.964h2.002l1 2.895h6.005l1-1.93 1 .965h1.002l1-.965h3.002l1.001-3.859 1 .965 1.001-.965h4.003l1-3.859 1.002-.965 1 .965h1.001l1-.965h2.002l1 1.93 1.001-.965 1.001.965h4.003l1 5.788 1.001-1.93 1.001-.964h1l1.001 1.93h2.002l2.001 1.929h1l1.001-.965h3.003l1-.964 1 2.894h1.002l1 .965h3.002l1.001.964h1l1.001-.964 1.001.964 1-.964h4.004l1 .964 2.002-1.93h3.002l1-1.929h1.001l1-.964 1.001.964h4.003l1-3.859 2.002 1.93h3.002l1.001-.965 2.001 1.93h5.004l1 1.929 1.001-.965h3.002l1.001-2.894 1 2.894 1.001-.964h4.003l1 .964h1.002l1 1.93 1 .965h3.003l1 .964 1.001-.964 1.001-3.86 1-8.682 1.001-1.93h2.002l1-1.929 1.001-5.788 1-.965 2.002-9.647 2.002-5.789h1l2.002 1.93 1 8.682 1.001 1.93h2.001l1.001-3.86 1 1.93 1.002-3.859h2l2.002 5.789 1.001-9.648 1-.964 2.002-5.789 1-4.823h2.002l1-12.542h1.002l1 4.824 1-11.577 1.002-1.93h2.001l1-3.859 1.001-10.612 2.002-9.647 1-8.683 1.001-4.823h1l1.001 4.823 1.001-3.859 1-5.788 1.002 16.4 1 6.754 1-19.295h1.002l1 1.93 1.001 4.823 1 .965 1.001-7.718 1.001-9.647 1-5.789h1.001l1.001 2.894 1-3.859 1.002.965 1-17.365 1-8.683 1.002 19.295h2.001l1-1.93 1.001 3.86 1.001 15.435 1 6.753 1.001 10.613h1.001l1-15.436 1.001 4.823 1.001-21.224 1 12.542 1.002 8.682h2l1.002-15.435 1 3.859 2.002-22.19 1 16.401h2.002l1-5.788 1.001-10.612 1 12.541 1.002-9.647 1-11.577 1-9.647h1.002l1 7.718 1.001-5.789 1 3.86 1.001.964 1.001-9.647h2.001l1.001 31.836 1-2.894 1.001 3.859 1.001 10.612 2.002 18.33h1l1-8.683 1.002 6.753 1 8.683 1.001 3.859 1-5.789 1.001-4.823h2.002l1 20.259 1.001-15.436 2.002-7.718h2l1.002 14.471 1-2.894 1.001.965h1l1.001 10.612 1.001-1.93h2.001l1.001-13.506 1 20.26 1.001 4.823 1.001 1.93h1l1.002-6.753 1 11.576 2.002 1.93 1-6.753 1.001-3.86 1 6.754h1.001l1.001-15.436 1 3.86 1.001-.966h1.001l1-8.682h1.002l1 6.753 1-9.647 1.002 1.93 1-3.86 1.001-.965 1 3.86h2.002l1-6.754 1.001 2.894 1.001-1.929h1l1.001 8.683h2.002l1-9.648 1.001-1.93 1 .966 1.002 5.788 1-1.93h1.001l1-8.682 1.001 11.577 1.001-.965 1 4.824 1.001-14.471 1.001-3.86h2.002l1 6.754 1-1.93 2.002-1.93 1.001 1.93 1-.964 1.001 8.682 1.001.965 1 2.894 1.001-1.93 1.001 5.79 1 3.858 1.001-4.824h1.001l1 13.507 1.002 6.753 1 2.894 1 .965h1.002l1 .964h1.001l1 3.86 2.002 3.858 1 7.718 1.001-3.859 1.001 3.86h1l1.002.964h2l1.002 4.824 1 2.894h2.002l1 1.93 1.001 2.893 1 1.93 1.001 3.859 1.001 8.682 1 .965h1.001l1.001 1.93 1 .964 1.002 5.789 1 .965 1 1.929h2.002l1.001 3.859h2.001l1.001-1.93h5.004l1-.964 1 .965h4.004l1-2.895h1.001l1 1.93h5.004l1 .965h5.004l1.001 2.894 1 .964h1.001l1.001-3.858h5.004l1-.965h6.004l1.001-.965 1 2.894h4.004l2-1.93h6.005l1-.964 1.001-4.824h2.002l1-20.26 1.001-1.929h1l2.002-9.647h2.002l1-6.753 1.001-2.894 1-.965h1.001l1.001 4.824h2.001l1.001 10.612 1-.965 1.002-4.824 1 .965 1 2.894h2.002l1.001-2.894 1 .965h1.001l1.001-1.93 1 .965h2.002l1 7.718 1.001-.965 1.001 3.86 1 .964 1.002 1.93h2l1.002 2.894 1-4.824 1.001-5.788 1 1.929 1.001-4.824h2.002l1 1.93 1.001-7.718 1-3.859 1.002 4.824 1-4.824h2.002l1-1.93 1.001 3.86 1 2.894 1.001-5.789 1.001.965h2.001l1.001-12.542 1 10.613 1.001.964 1.001-4.823 1 1.929h2.002l1 4.824h2.002l1.001 3.859h3.002l1 8.682 2.002-1.93 1 4.824 1.002-7.717h2l1.002 3.859 1-2.895 3.002 5.789h2.002l1-3.86 1.001-.964 1 4.824 1.001-3.86 1.001 8.683h2.002l1-1.93 1 4.825 1.002 1.93h1l1.001.964h3.002l1-.965 1.001.965 1.001 3.859h3.002l1-2.894 1.002-.965 1-8.683h0" style="fill:none;stroke:#000;stroke-linecap:round;stroke-width:1.5" id="line2d_1"/><path d="M117 576.72V77.76" style="fill:none;stroke:#d3d3d3;stroke-linecap:square;stroke-linejoin:miter;stroke-width:1.25" id="patch_3"/><path d="M117 576.72h725.4" style="fill:none;stroke:#d3d3d3;stroke-linecap:square;stroke-linejoin:miter;stroke-width:1.25" id="patch_4"/><g id="matplotlib.axis_1"><g id="xtick_1"><g style="fill:#696969" transform="matrix(.16 0 0 -.16 117.626 598.378)" id="text_1"><defs><path d="M9.813 72.906h9.859V5.078q0-13.187-5-19.14-5-5.954-16.094-5.954h-3.75v8.297h3.078q6.531 0 9.219 3.672Q9.813-4.39 9.813 5.078z" id="DejaVuSans-74"/><path d="M34.281 27.484q-10.89 0-15.093-2.484-4.204-2.484-4.204-8.5 0-4.781 3.157-7.594 3.156-2.797 8.562-2.797 7.485 0 12 5.297 4.516 5.297 4.516 14.078v2zm17.922 3.72V0H43.22v8.297Q40.14 3.328 35.547.953q-4.594-2.375-11.234-2.375-8.391 0-13.36 4.719Q6 8.016 6 15.922q0 9.219 6.172 13.906 6.187 4.688 18.437 4.688h12.61v.89q0 6.203-4.078 9.594-4.078 3.39-11.453 3.39-4.688 0-9.141-1.124-4.438-1.125-8.531-3.375v8.312q4.921 1.906 9.562 2.844 4.64.953 9.031.953 11.875 0 17.735-6.156 5.86-6.14 5.86-18.64z" id="DejaVuSans-97"/><path d="M54.89 33.016V0h-8.984v32.719q0 7.765-3.031 11.61-3.031 3.858-9.078 3.858-7.281 0-11.484-4.64-4.204-4.625-4.204-12.64V0H9.08v54.688h9.03v-8.5q3.235 4.937 7.594 7.374Q30.078 56 35.797 56q9.422 0 14.25-5.828 4.844-5.828 4.844-17.156z" id="DejaVuSans-110"/></defs><use xlink:href="#DejaVuSans-74"/><use x="29.492" xlink:href="#DejaVuSans-97"/><use x="90.771" xlink:href="#DejaVuSans-110"/></g></g><g id="xtick_2"><g style="fill:#696969" transform="matrix(.16 0 0 -.16 207.182 598.378)" id="text_2"><defs><path d="M34.188 63.188 20.797 26.906h26.812zm-5.579 9.718h11.188L67.578 0h-10.25l-6.64 18.703h-32.86L11.188 0H.78z" id="DejaVuSans-65"/><path d="M18.11 8.203v-29H9.077v75.484h9.031v-8.296q2.844 4.875 7.157 7.234Q29.594 56 35.594 56q9.968 0 16.187-7.906 6.235-7.907 6.235-20.797T51.78 6.484q-6.218-7.906-16.187-7.906-6 0-10.328 2.375-4.313 2.375-7.157 7.25zm30.578 19.094q0 9.906-4.079 15.547-4.078 5.64-11.203 5.64-7.14 0-11.218-5.64-4.079-5.64-4.079-15.547 0-9.906 4.078-15.547 4.079-5.64 11.22-5.64 7.124 0 11.202 5.64t4.078 15.547z" id="DejaVuSans-112"/><path d="M41.11 46.297q-1.516.875-3.297 1.281Q36.03 48 33.89 48q-7.625 0-11.703-4.953-4.079-4.953-4.079-14.234V0H9.08v54.688h9.03v-8.5q2.844 4.984 7.375 7.39Q30.031 56 36.531 56q.922 0 2.047-.125 1.125-.11 2.484-.36z" id="DejaVuSans-114"/></defs><use xlink:href="#DejaVuSans-65"/><use x="68.408" xlink:href="#DejaVuSans-112"/><use x="131.885" xlink:href="#DejaVuSans-114"/></g></g><g id="xtick_3"><g style="fill:#696969" transform="matrix(.16 0 0 -.16 302.432 598.378)" id="text_3"><defs><path d="M8.5 21.578v33.11h8.984V21.922q0-7.766 3.016-11.656 3.031-3.875 9.094-3.875 7.265 0 11.484 4.64 4.234 4.64 4.234 12.656v31h8.985V0h-8.984v8.406Q42.047 3.422 37.718 1q-4.313-2.422-10.032-2.422-9.421 0-14.312 5.86Q8.5 10.296 8.5 21.578zM31.11 56z" id="DejaVuSans-117"/><path d="M9.422 75.984h8.984V0H9.422z" id="DejaVuSans-108"/></defs><use xlink:href="#DejaVuSans-74"/><use x="29.492" xlink:href="#DejaVuSans-117"/><use x="92.871" xlink:href="#DejaVuSans-108"/></g></g><g id="xtick_4"><g style="fill:#696969" transform="matrix(.16 0 0 -.16 390.315 598.378)" id="text_4"><defs><path d="M39.406 66.219q-10.75 0-17.078-8.016-6.312-8-6.312-21.828 0-13.766 6.312-21.781 6.328-8 17.078-8 10.735 0 17.016 8 6.281 8.015 6.281 21.781 0 13.828-6.281 21.828-6.281 8.016-17.016 8.016zm0 8q15.328 0 24.5-10.281 9.188-10.282 9.188-27.563 0-17.234-9.188-27.516-9.172-10.28-24.5-10.28-15.375 0-24.593 10.25-9.204 10.265-9.204 27.546t9.204 27.563q9.218 10.28 24.593 10.28z" id="DejaVuSans-79"/><path d="M48.781 52.594v-8.407q-3.812 2.11-7.64 3.157-3.828 1.047-7.735 1.047-8.75 0-13.593-5.547-4.829-5.532-4.829-15.547 0-10.016 4.829-15.563 4.843-5.53 13.593-5.53 3.907 0 7.735 1.046 3.828 1.047 7.64 3.156V2.094Q45.016.344 40.984-.531q-4.015-.89-8.562-.89-12.36 0-19.64 7.765-7.266 7.765-7.266 20.953 0 13.375 7.343 21.031Q20.22 56 33.016 56q4.14 0 8.093-.86 3.953-.843 7.672-2.546z" id="DejaVuSans-99"/><path d="M18.313 70.219V54.688h18.5v-6.985h-18.5V18.016q0-6.688 1.828-8.594 1.828-1.906 7.453-1.906h9.218V0h-9.218q-10.407 0-14.36 3.875-3.953 3.89-3.953 14.14v29.688H2.687v6.984h6.594V70.22z" id="DejaVuSans-116"/></defs><use xlink:href="#DejaVuSans-79"/><use x="78.711" xlink:href="#DejaVuSans-99"/><use x="133.691" xlink:href="#DejaVuSans-116"/></g></g><g id="xtick_5"><g style="fill:#696969" transform="matrix(.16 0 0 -.16 483.879 598.378)" id="text_5"><use xlink:href="#DejaVuSans-74"/><use x="29.492" xlink:href="#DejaVuSans-97"/><use x="90.771" xlink:href="#DejaVuSans-110"/></g></g><g id="xtick_6"><g style="fill:#696969" transform="matrix(.16 0 0 -.16 572.433 598.378)" id="text_6"><use xlink:href="#DejaVuSans-65"/><use x="68.408" xlink:href="#DejaVuSans-112"/><use x="131.885" xlink:href="#DejaVuSans-114"/></g></g><g id="xtick_7"><g style="fill:#696969" transform="matrix(.16 0 0 -.16 667.684 598.378)" id="text_7"><use xlink:href="#DejaVuSans-74"/><use x="29.492" xlink:href="#DejaVuSans-117"/><use x="92.871" xlink:href="#DejaVuSans-108"/></g></g><g id="xtick_8"><g style="fill:#696969" transform="matrix(.16 0 0 -.16 755.567 598.378)" id="text_8"><use xlink:href="#DejaVuSans-79"/><use x="78.711" xlink:href="#DejaVuSans-99"/><use x="133.691" xlink:href="#DejaVuSans-116"/></g></g></g><g id="matplotlib.axis_2"><g id="ytick_1"><g style="fill:#696969" transform="matrix(.16 0 0 -.16 97.32 552.226)" id="text_9"><defs><path d="M31.781 66.406q-7.61 0-11.453-7.5Q16.5 51.422 16.5 36.375q0-14.984 3.828-22.484 3.844-7.5 11.453-7.5 7.672 0 11.5 7.5 3.844 7.5 3.844 22.484 0 15.047-3.844 22.531-3.828 7.5-11.5 7.5zm0 7.813q12.266 0 18.735-9.703 6.468-9.688 6.468-28.141 0-18.406-6.468-28.11-6.47-9.687-18.735-9.687-12.25 0-18.718 9.688-6.47 9.703-6.47 28.109 0 18.453 6.47 28.14Q19.53 74.22 31.78 74.22z" id="DejaVuSans-48"/></defs><use xlink:href="#DejaVuSans-48"/></g></g><g id="ytick_2"><g style="fill:#696969" transform="matrix(.16 0 0 -.16 97.32 484.695)" id="text_10"><defs><path d="M10.797 72.906h38.719v-8.312H19.828v-17.86q2.14.735 4.281 1.094 2.157.36 4.313.36 12.203 0 19.328-6.688 7.14-6.688 7.14-18.11 0-11.765-7.328-18.296-7.328-6.516-20.656-6.516-4.593 0-9.36.781-4.75.782-9.827 2.344v9.922q4.39-2.39 9.078-3.563 4.687-1.171 9.906-1.171 8.453 0 13.375 4.437 4.938 4.438 4.938 12.063 0 7.609-4.938 12.047-4.922 4.453-13.375 4.453-3.953 0-7.89-.875-3.922-.875-8.016-2.735z" id="DejaVuSans-53"/></defs><use xlink:href="#DejaVuSans-53"/></g></g><g id="ytick_3"><g style="fill:#696969" transform="matrix(.16 0 0 -.16 87.14 417.163)" id="text_11"><defs><path d="M12.406 8.297h16.11v55.625l-17.532-3.516v8.985l17.438 3.515h9.86V8.296H54.39V0H12.406z" id="DejaVuSans-49"/></defs><use xlink:href="#DejaVuSans-49"/><use x="63.623" xlink:href="#DejaVuSans-48"/></g></g><g id="ytick_4"><g style="fill:#696969" transform="matrix(.16 0 0 -.16 87.14 349.632)" id="text_12"><use xlink:href="#DejaVuSans-49"/><use x="63.623" xlink:href="#DejaVuSans-53"/></g></g><g id="ytick_5"><g style="fill:#696969" transform="matrix(.16 0 0 -.16 87.14 282.1)" id="text_13"><defs><path d="M19.188 8.297h34.421V0H7.33v8.297q5.609 5.812 15.296 15.594 9.703 9.797 12.188 12.64 4.734 5.313 6.609 9 1.89 3.688 1.89 7.25 0 5.813-4.078 9.469-4.078 3.672-10.625 3.672-4.64 0-9.797-1.61-5.14-1.609-11-4.89v9.969Q13.767 71.78 18.938 73q5.188 1.219 9.485 1.219 11.328 0 18.062-5.672 6.735-5.656 6.735-15.125 0-4.5-1.688-8.531-1.672-4.016-6.125-9.485-1.218-1.422-7.765-8.187-6.532-6.766-18.453-18.922z" id="DejaVuSans-50"/></defs><use xlink:href="#DejaVuSans-50"/><use x="63.623" xlink:href="#DejaVuSans-48"/></g></g><g id="ytick_6"><g style="fill:#696969" transform="matrix(.16 0 0 -.16 87.14 214.569)" id="text_14"><use xlink:href="#DejaVuSans-50"/><use x="63.623" xlink:href="#DejaVuSans-53"/></g></g><g id="ytick_7"><g style="fill:#696969" transform="matrix(.16 0 0 -.16 87.14 147.038)" id="text_15"><defs><path d="M40.578 39.313Q47.656 37.797 51.625 33q3.984-4.781 3.984-11.813 0-10.78-7.422-16.703-7.421-5.906-21.093-5.906-4.578 0-9.438.906-4.86.907-10.031 2.72v9.515q4.094-2.39 8.969-3.61 4.89-1.218 10.218-1.218 9.266 0 14.125 3.656 4.86 3.656 4.86 10.64 0 6.454-4.516 10.079-4.515 3.64-12.562 3.64h-8.5v8.11h8.89q7.266 0 11.125 2.906 3.86 2.906 3.86 8.375 0 5.61-3.985 8.61-3.968 3.015-11.39 3.015-4.063 0-8.703-.89-4.641-.876-10.203-2.72v8.782q5.624 1.562 10.53 2.344 4.907.78 9.25.78 11.235 0 17.766-5.109 6.547-5.093 6.547-13.78 0-6.063-3.468-10.235-3.47-4.172-9.86-5.782z" id="DejaVuSans-51"/></defs><use xlink:href="#DejaVuSans-51"/><use x="63.623" xlink:href="#DejaVuSans-48"/></g></g><g style="fill:#696969" transform="matrix(0 -.2 -.2 0 78.98 379.813)" id="text_16"><defs><path d="M51.125 44H36.922l-4.11-16.313h14.313zm-7.328 27.781-5.078-20.265h14.265L58.11 71.78h7.813L60.89 51.516h15.234V44h-17.14l-4-16.313h15.53V20.22H53.079L48 0h-7.813l5.032 20.219H30.906L25.875 0h-7.86l5.079 20.219H7.719v7.468h17.187L29 44H13.281v7.516h17.625l4.985 20.265z" id="DejaVuSans-35"/><path d="M30.61 48.39q-7.22 0-11.422-5.64-4.204-5.64-4.204-15.453 0-9.813 4.172-15.453 4.188-5.64 11.453-5.64 7.188 0 11.375 5.655 4.203 5.672 4.203 15.438 0 9.719-4.203 15.406-4.187 5.688-11.375 5.688zm0 7.61q11.718 0 18.406-7.625 6.703-7.61 6.703-21.078 0-13.422-6.703-21.078-6.688-7.64-18.407-7.64-11.765 0-18.437 7.64-6.656 7.656-6.656 21.078 0 13.469 6.656 21.078Q18.844 56 30.609 56z" id="DejaVuSans-111"/><path d="M37.11 75.984V68.5h-8.594q-4.828 0-6.72-1.953-1.874-1.953-1.874-7.031v-4.828h14.797v-6.985H19.922V0H10.89v47.703H2.297v6.984h8.594V58.5q0 9.125 4.25 13.297 4.25 4.187 13.468 4.187z" id="DejaVuSans-102"/><path d="M44.281 53.078v-8.5q-3.797 1.953-7.906 2.922-4.094.984-8.5.984-6.688 0-10.031-2.047-3.344-2.046-3.344-6.156 0-3.125 2.39-4.906 2.391-1.781 9.626-3.39l3.078-.688q9.562-2.047 13.593-5.781 4.032-3.735 4.032-10.422 0-7.625-6.032-12.078-6.03-4.438-16.578-4.438-4.39 0-9.156.86Q10.688.296 5.422 2v9.281q4.984-2.594 9.812-3.89 4.829-1.282 9.579-1.282 6.343 0 9.75 2.172 3.421 2.172 3.421 6.125 0 3.656-2.468 5.61-2.453 1.953-10.813 3.765l-3.125.735q-8.344 1.75-12.062 5.39-3.704 3.64-3.704 9.985 0 7.718 5.47 11.906Q16.75 56 26.811 56q4.97 0 9.36-.734 4.406-.72 8.11-2.188z" id="DejaVuSans-115"/><path d="M56.203 29.594v-4.39H14.891q.593-9.282 5.593-14.142 5-4.859 13.938-4.859 5.172 0 10.031 1.266 4.86 1.265 9.656 3.812v-8.5Q49.266.734 44.187-.344 39.11-1.422 33.892-1.422q-13.094 0-20.735 7.61-7.64 7.625-7.64 20.625 0 13.421 7.25 21.296Q20.016 56 32.328 56q11.031 0 17.453-7.11 6.422-7.093 6.422-19.296zm-8.984 2.64q-.094 7.36-4.125 11.75-4.032 4.407-10.672 4.407-7.516 0-12.031-4.25-4.516-4.25-5.203-11.97z" id="DejaVuSans-101"/></defs><use xlink:href="#DejaVuSans-35"/><use x="83.789" xlink:href="#DejaVuSans-32"/><use x="115.576" xlink:href="#DejaVuSans-111"/><use x="176.758" xlink:href="#DejaVuSans-102"/><use x="211.963" xlink:href="#DejaVuSans-32"/><use x="243.75" xlink:href="#DejaVuSans-99"/><use x="298.73" xlink:href="#DejaVuSans-97"/><use x="360.01" xlink:href="#DejaVuSans-115"/><use x="412.109" xlink:href="#DejaVuSans-101"/><use x="473.633" xlink:href="#DejaVuSans-115"/></g></g><g style="fill:#696969" transform="matrix(.24 0 0 -.24 308.75 71.76)" id="text_17"><defs><path d="M44.39 34.188q3.172-1.079 6.172-4.594 3-3.516 6.032-9.672L66.609 0H56l-9.313 18.703q-3.624 7.328-7.015 9.719-3.39 2.39-9.25 2.39h-10.75V0h-9.86v72.906h22.266q12.5 0 18.656-5.234 6.157-5.219 6.157-15.766 0-6.89-3.203-11.437-3.204-4.532-9.297-6.282zM19.673 64.797V38.922h12.406q7.125 0 10.766 3.297 3.64 3.297 3.64 9.687 0 6.39-3.64 9.64-3.64 3.25-10.766 3.25z" id="DejaVuSans-82"/><path d="M54.89 33.016V0h-8.984v32.719q0 7.765-3.031 11.61-3.031 3.858-9.078 3.858-7.281 0-11.484-4.64-4.204-4.625-4.204-12.64V0H9.08v75.984h9.03V46.188q3.235 4.937 7.594 7.374Q30.078 56 35.797 56q9.422 0 14.25-5.828 4.844-5.828 4.844-17.156z" id="DejaVuSans-104"/><path d="M45.406 46.39v29.594h8.985V0h-8.985v8.203Q42.578 3.328 38.25.953q-4.313-2.375-10.375-2.375-9.906 0-16.14 7.906-6.22 7.922-6.22 20.813 0 12.89 6.22 20.797Q17.968 56 27.874 56q6.063 0 10.375-2.375 4.328-2.36 7.156-7.234zm-30.61-19.093q0-9.906 4.079-15.547 4.078-5.64 11.203-5.64 7.125 0 11.219 5.64 4.11 5.64 4.11 15.547 0 9.906-4.11 15.547-4.094 5.64-11.219 5.64-7.125 0-11.203-5.64-4.078-5.64-4.078-15.547z" id="DejaVuSans-100"/><path d="M9.813 72.906h13.28l32.329-60.984v60.984h9.562V0h-13.28L19.39 60.984V0H9.813z" id="DejaVuSans-78"/><path d="M4.203 54.688h8.985l11.234-42.672 11.172 42.672h10.593l11.235-42.672 11.187 42.672h8.985L63.28 0H52.688L40.922 44.828 29.109 0H18.5z" id="DejaVuSans-119"/><path d="M64.406 67.281v-10.39q-4.984 4.64-10.625 6.922-5.64 2.296-11.984 2.296-12.5 0-19.14-7.64-6.641-7.64-6.641-22.094 0-14.406 6.64-22.047 6.64-7.64 19.14-7.64 6.345 0 11.985 2.296 5.64 2.297 10.625 6.938V5.609Q59.234 2.094 53.437.33q-5.78-1.75-12.218-1.75-16.563 0-26.094 10.124-9.516 10.14-9.516 27.672 0 17.578 9.516 27.703 9.531 10.14 26.094 10.14 6.531 0 12.312-1.734 5.797-1.734 10.875-5.203z" id="DejaVuSans-67"/><path d="M2.984 54.688H12.5L29.594 8.797l17.093 45.89h9.516L35.687 0H23.485z" id="DejaVuSans-118"/><path d="M9.422 54.688h8.984V0H9.422zm0 21.296h8.984v-11.39H9.422z" id="DejaVuSans-105"/></defs><use xlink:href="#DejaVuSans-82"/><use x="64.982" xlink:href="#DejaVuSans-117"/><use x="128.361" xlink:href="#DejaVuSans-116"/><use x="167.57" xlink:href="#DejaVuSans-104"/><use x="230.949" xlink:href="#DejaVuSans-101"/><use x="292.473" xlink:href="#DejaVuSans-114"/><use x="333.586" xlink:href="#DejaVuSans-102"/><use x="368.791" xlink:href="#DejaVuSans-111"/><use x="429.973" xlink:href="#DejaVuSans-114"/><use x="469.336" xlink:href="#DejaVuSans-100"/><use x="532.813" xlink:href="#DejaVuSans-32"/><use x="564.6" xlink:href="#DejaVuSans-78"/><use x="639.404" xlink:href="#DejaVuSans-101"/><use x="700.928" xlink:href="#DejaVuSans-119"/><use x="782.715" xlink:href="#DejaVuSans-32"/><use x="814.502" xlink:href="#DejaVuSans-67"/><use x="884.326" xlink:href="#DejaVuSans-111"/><use x="945.508" xlink:href="#DejaVuSans-118"/><use x="1004.688" xlink:href="#DejaVuSans-105"/><use x="1032.471" xlink:href="#DejaVuSans-100"/><use x="1095.947" xlink:href="#DejaVuSans-32"/><use x="1127.734" xlink:href="#DejaVuSans-67"/><use x="1197.559" xlink:href="#DejaVuSans-97"/><use x="1258.838" xlink:href="#DejaVuSans-115"/><use x="1310.938" xlink:href="#DejaVuSans-101"/><use x="1372.461" xlink:href="#DejaVuSans-115"/></g><g id="legend_1"><path d="M686.525 161.015H831.2q3.2 0 3.2-3.2V88.96q0-3.2-3.2-3.2H686.525q-3.2 0-3.2 3.2v68.855q0 3.2 3.2 3.2z" style="fill:none;opacity:.8;stroke:#ccc;stroke-linejoin:miter" id="patch_5"/><path d="M689.725 98.718h32" style="fill:none;stroke:#000;stroke-linecap:round;stroke-width:1.5" id="line2d_4"/><g style="fill:#696969" transform="matrix(.16 0 0 -.16 734.525 104.317)" id="text_18"><defs><path d="M37.797 64.313 12.89 25.39h24.906zm-2.594 8.593H47.61V25.391h10.407v-8.203H47.609V0h-9.812v17.188H4.89v9.515z" id="DejaVuSans-52"/><path d="M45.406 27.984q0 9.766-4.031 15.125-4.016 5.375-11.297 5.375-7.219 0-11.25-5.375-4.031-5.359-4.031-15.125 0-9.718 4.031-15.093t11.25-5.375q7.281 0 11.297 5.375 4.031 5.375 4.031 15.093zm8.985-21.203q0-13.953-6.203-20.765Q42-20.797 29.203-20.797q-4.734 0-8.937.703-4.203.703-8.157 2.172v8.735q3.954-2.141 7.813-3.157 3.86-1.031 7.86-1.031 8.843 0 13.234 4.61 4.39 4.609 4.39 13.937v4.453q-2.781-4.844-7.125-7.234Q33.938 0 27.875 0 17.828 0 11.672 7.656q-6.156 7.672-6.156 20.328 0 12.688 6.156 20.344Q17.828 56 27.875 56q6.063 0 10.406-2.39 4.344-2.391 7.125-7.22v8.297h8.985z" id="DejaVuSans-103"/></defs><use xlink:href="#DejaVuSans-49"/><use x="63.623" xlink:href="#DejaVuSans-52"/><use x="127.246" xlink:href="#DejaVuSans-100"/><use x="190.723" xlink:href="#DejaVuSans-32"/><use x="222.51" xlink:href="#DejaVuSans-97"/><use x="283.789" xlink:href="#DejaVuSans-118"/><use x="342.969" xlink:href="#DejaVuSans-103"/></g><path d="M689.725 127.802h32v-11.2h-32z" style="fill:#089fff;opacity:.2;stroke:#fff;stroke-linejoin:miter" id="patch_6"/><g style="fill:#696969" transform="matrix(.16 0 0 -.16 734.525 127.802)" id="text_19"><defs><path d="M8.688 72.906h9.921V28.61q0-11.718 4.235-16.875 4.25-5.14 13.781-5.14 9.469 0 13.719 5.14 4.25 5.157 4.25 16.875v44.297H64.5V27.391q0-14.25-7.063-21.532-7.046-7.28-20.812-7.28-13.828 0-20.89 7.28-7.047 7.282-7.047 21.532z" id="DejaVuSans-85"/><path d="M32.172-5.078q-3.797-9.766-7.422-12.735-3.61-2.984-9.656-2.984H7.906v7.516h5.282q3.703 0 5.75 1.765Q21-9.766 23.483-3.219l1.61 4.094-22.11 53.813H12.5l17.094-42.766 17.093 42.766h9.516z" id="DejaVuSans-121"/></defs><use xlink:href="#DejaVuSans-85"/><use x="73.193" xlink:href="#DejaVuSans-110"/><use x="136.572" xlink:href="#DejaVuSans-99"/><use x="191.553" xlink:href="#DejaVuSans-101"/><use x="253.076" xlink:href="#DejaVuSans-114"/><use x="294.189" xlink:href="#DejaVuSans-116"/><use x="333.398" xlink:href="#DejaVuSans-97"/><use x="394.678" xlink:href="#DejaVuSans-105"/><use x="422.461" xlink:href="#DejaVuSans-110"/><use x="485.84" xlink:href="#DejaVuSans-116"/><use x="525.049" xlink:href="#DejaVuSans-121"/></g><path d="M705.725 151.287v-7.7" style="fill:none;stroke:#000;stroke-dasharray:2.25,3.7125;stroke-dashoffset:0;stroke-width:1.5" id="line2d_6"/><g style="fill:#696969" transform="matrix(.16 0 0 -.16 734.525 151.287)" id="text_20"><defs><path d="M19.672 64.797V8.109h11.922q15.093 0 22.093 6.829 7 6.843 7 21.593 0 14.64-7 21.453-7 6.813-22.093 6.813zm-9.86 8.11h20.266q21.188 0 31.094-8.813 9.922-8.813 9.922-27.563 0-18.86-9.969-27.703Q51.172 0 30.078 0H9.813z" id="DejaVuSans-68"/></defs><use xlink:href="#DejaVuSans-68"/><use x="77.002" xlink:href="#DejaVuSans-97"/><use x="138.281" xlink:href="#DejaVuSans-105"/><use x="166.064" xlink:href="#DejaVuSans-108"/><use x="193.848" xlink:href="#DejaVuSans-121"/><use x="253.027" xlink:href="#DejaVuSans-32"/><use x="284.814" xlink:href="#DejaVuSans-67"/><use x="354.639" xlink:href="#DejaVuSans-97"/><use x="415.918" xlink:href="#DejaVuSans-115"/><use x="468.018" xlink:href="#DejaVuSans-101"/><use x="529.541" xlink:href="#DejaVuSans-115"/></g></g></g></g><defs><clipPath id="pf97502e7a1"><path d="M117 77.76h725.4v498.96H117z"/></clipPath></defs></svg>