<svg height="864" viewBox="0 0 936 648" width="1248" xmlns="http://www.w3.org/2000/svg" xmlns:xlink="http://www.w3.org/1999/xlink"><defs><style>*{stroke-linecap:butt;stroke-linejoin:round}</style></defs><g id="figure_1"><path d="M0 648h936V0H0z" style="fill:#fff" id="patch_1"/><g id="axes_1"><path d="M117 576.72h725.4V77.76H117z" style="fill:none" id="patch_2"/><g id="PolyCollection_1"><defs><path d="M150.91-100.042H203.443l.938-1.09.938.143.938.094.938-.573.938.112.938-1.796.938-1.571.938-3.236.939.083.938-1.387.938-.766.938-2.796.938-4.563.938-3.652.938.98.938-3.433.938-9.803.938-5.22.938-.852.938-.678.938.18.938-2.779.938-4.496.938.066.938.052.939-2.465.938 1.136.938.401.938-4.917.938-2.553.938 8.97.938 10.14.938-.29.938 2.596.938-.811.938 4.489.938.135.938-.136.938-.306.938.052.938 2.503.938 1.035.938.267.939-.438.938-.617.938.208.938 4.06.938 2.74.938 4.253.938 4.759.938 5.67.938 2.32.938.317.938.774.938-3.27.938.373.938 1.1.938 1.08.938 1.643.938-1.105.939-1.01.938-1.965.938-1.021.938-.665.938.688.938.018.938-.018.938 3.258.938 2.37.938.86.938.946.938-.656.938.154.938.086.938-2.31.938-.178.938-.23.939-.296.938-.269.938-.351.938-.503.938-.062.938.016.938-.744.938-.156.938.598.938-.214.938-.411.938 2.641.938.214.938.146.938.104.938.073.938.048.938.025.939-1.517.938.71.938-.13.938-.898.938-.068.938-.078.938-.091.938-2.462.938.912.938-.547.938.111.938.043.938-.021.938-.087.938-2.611.938-.486.938.762h.939l.938-.762.938-.131.938-.27.938 1.43.938-.88.938.632.938-.139.938-.176.938-.234.938-.351.938 5.322.938-1.304.938-.666.938.047.938 1.584.938.017.939-.062.938.83.938.768.938.016.938-.857.938-.183.938-.282.938-.463.938-.751.938 2.328.938-.052.938.705.938.086.938.035.938-.012.938.842.938.095.938-.729.939.743.938-.821.938-.108.938-.15.938-.473.938-.06.938.695.938-.744.938-.661.938.062.938.05h.938l.938-1.28.938.16.938-.583.938.798.938.028.939.003.938-.02.938-.044.938-2.77.938.785.938.725.938-.057.938-.1.938-.157.938-.712.938.707.938.744.938-.045.938-.051.938-.057.938-.066.938-.075.939 1.539.938-.762.938.024.938.008.938-.008.938-2.145.938 2.12.938-.791h3.752l.938.75.938.002.938 1.597.938.992.938.179.938.136.939.105.938.707.938-.703.938-2.973.938-5.52.938-.505.938.685.938.514.938-.945.938-3.525.938-.096.938-2.955.938-2.868.938-1.568.938-1.78.938-.162.938.066.939-.09.938 6.105.938.942.938-.663.938-.822.938-3.848.938 1.134.938-3.362.938-.091.938-.005.938 2.175.938 2.011.938-7.705.938-.841.938-1.91.938-1.48.938-2.783.939.529.938.235.938-8.062.938.85.938 3.987.938-7.893.938-.766.938.018.938-.838.938-3.035.938-7.635.938-3.08.938-3.023.938-5.379.938-2.746.938.102.938 3.827.938-3.03.939-5.133.938 11.731.938 4.218.938-15.765.938-1.525.938-.398.938 2.622.938-.025.938-6.284.938-6.642.938-3.242.938.913.938 2.613.938-2.355.938 1.192.938-12.116.938-5.892.939 14.877.938-.137.938-.42.938-2.547.938 1.18.938 11.388.938 6.26.938 10.416.938 1.629.938-11.65.938 4.133.938-16.294.938 8.936.938 4.9.938-.31.938-.52.938-12.476.939 1.918.938-8.821.938-6.202.938 12.725.938-.775.938-1.158.938-4.343.938-7.777.938 9.664.938-7.079.938-8.454.938-6.55.938-.016.938 6.062.938-4.554.938 3.086.938.98.938-7.507.939-.524.938-1.052.938 24.531.938-1.727.938 2.875.938 9.972.938 9.217.938 9.93.938 1.534.938-6.09.938 5.553.938 7.374.938 3.382.938-5.987.938-6.482.938-4.456.938-1.08.939 14.96.938-14.047.938-4.335.938-3.447.938.094.938.088.938 10.92.938-2.279.938.84.938-.047.938 9.11.938-1.094.938.21.938.047.938-10.794.938 16.406.938 4.515.939 1.753.938-.213.938-6.343.938 9.612.938 1 .938.813.938-5.837.938-3.093.938 5.106.938-.224.938-11.96.938.614.938-.546.938.297.938-5.695.938.69.938 5.347.938-7.042.939 1.332.938-3.267.938-.671.938 2.863.938-.984.938-1.597.938-4.85.938 1.881.938-1.832.938-.647.938 6.74.938.047.938-.636.938-7.219.938-1.239.938.924.938 4.458.939-1.54.938-.069.938-6.258.938 8.93.938-.723.938 3.921.938-10.788.938-2.557.938.155.938-.08.938 5.21.938-1.449 1.876-.673v-.854l.938 1.373.938-.879.938 6.853.939.67.938 2.474.938-1.875.938 5.28.938 3.721.938-3.748.938-.242.938 11.717.938 6.683.938 2.463.938 2.014.938.158.938.383.938-.026.938 2.951.938 1.46.938.989.938 6.195.939-3.173.938 2.055.938-1.816.938.24.938-.135.938-.202.938 3.822.938 2.299.938-.18.938-.546.938 1.196.938 2.09.938 1.409.938 3.677.938 7.816.938 1.66.938.471.939 1.836.938.803.938 4.627.938.963.938 1.712.938-.155.938-.557.938 2.451.938-.686.938-.968.938-2.587.938-.369.938-.453.938-.688.938-.717.938-1 .938-1.04.939.482.938-.086.938-.11.938-.143.938-.094.938-2.063.938.048.938 1.485.938-.005.938-.01.938-.013.938-.018.938-.022.938.765h4.691l.938 2.421.938.936.938.212.938-3.004.938-.034.938-.036.938-.04.938-.045h.938l.938-.7.938.041.938.037.938.034.938.03.938-.092.938-.292.939-1.247.938 2.321.938.074.938.061.938.053.938.045.938-.744.938-.743H663.09l.938-.743.938-3 .938.371.939.22.938-12.217.938.418.938 1.217.938-2.414.938-2.423.938.78.938.365.938-4.716.938-2.029.938-1.037.938-.814.938 2.555.938-1.804.938-3.002.938 7.646.938-1.19.938-4.449.939.443.938 2.384.938.143.938.131.938-2.29.938.46.938-.52.938-2.249.938.43.938-.415.938-.597.938 6.345.938-.49.938 3.581.938 1.26.938 2.108.938.448.939.327.938 2.549.938-3.802.938-4.66.938 1.058.938-3.947.938-.251.938-.278.938 1.59.938-5.206.938-2.035.938 3.908.938-3.403.938.072.938-.161.938-2.154.938 2.314.939 1.934.938-4.906.938.57.938-.278.938-.415.938-9.166.938 8.08.938.744.938-3.777.938 1.519.938.015h.938l.938 3.78.938-.047.938-.294.938 3.32.938.268.938.228.939.195.938 6.784.938-.17.938-.412.938 4.016.938-6.25.938-.437.938-.618.938 2.837.938-2.586.938 1.039.938 1.395.938 1.42.938-.212.938-.4.938-2.982.938-.717.939 3.818.938-3.156.938 7.156.938.237.938.066.938-1.423.938 3.917.938 1.853.938.295.938 1.074.938.22.938.127.938-.261.938-1.38.938.502.938 2.18.938.108.939-.012.938-.133.938-2.963.938-.933.938-5.719.938 1.887.938-3.474.938.671.938.483.938 1.698.938.165.938-1.31.938-2.22.938-.887.938-.408.938-.745.938-7.202.938-2.014.939 1.9.938.02.938 5.108.938-.136.938-.18.938-9.94.938-1.816.938.205.938-3.111.938-3.547.938.423.938.013.938 1.724.938-3.186.938-3.107.938-6.253.938-6.328.939.22.938-.612.938 2.107.938-4.333.938-10.157.938-8.922.938 2.798.938-25.205.938-4.571.938-.356.938-10.264.938-18.212.938-11.658.938 10.066v-87.757l-.938-4.802-.938 22.538-.938 27.877-.938 16.498-.938 5.592-.938 13.27-.938 35.753-.938-.176-.938 13.38-.938 12.145-.938 4.587-.938-2.354-.938-.612-.939.22-.938 8.54-.938 8.615-.938 4.327-.938 4.248-.938-1.25-.938.013-.938.423-.938 5.374-.938 4.323-.938.205-.938 2.645-.938 10.874-.938-.18-.938-.136-.938-5.299-.938.019-.939-1.073-.938 2.446-.938 7.666-.938-.745-.938-.408-.938.6-.938 2.24-.938 1.663-.938.166-.938-1.275-.938.482-.938.67-.938 5.448-.938-1.087-.938 7.662-.938.554-.938 1.498-.938-.134-.939-.012-.938.108-.938-3.767-.938-.985-.938.107-.938-.26-.938.126-.938.22-.938-.413-.938.295-.938-1.12-.938-3.517-.938 1.551-.938.066-.938.236-.938-6.225-.938 2.792-.939-3.616-.938.77-.938 2.964-.938-.4-.938-.21-.938-1.555-.938-1.578-.938-1.935-.938 1.874-.938-3.11-.938-.618-.938-.437-.938 5.644-.938-3.418-.938 1.075-.938 1.317-.938-6.597-.939.196-.938.228-.938.268-.938-2.628-.938-.294-.938-.047-.938-3.654h-.938l-.938.015-.938-1.455-.938 3.658-.938-.743-.938-8.275-.938 10.162-.938-.414-.938-.278-.938-.917-.938 4.014-.939-2.526-.938-3.633-.938.82-.938-.162-.938.072-.938 4.03-.938-3.525-.938 3.913-.938 6.688-.938-1.384-.938-.278-.938-.25-.938 3.486-.938-1.915-.938 4.26-.938 3.632-.938-1.911-.939.326-.938.449-.938-.867-.938-.226-.938-2.365-.938.996-.938-5.55-.938-.597-.938-.414-.938-1.057-.938.724-.938-.519-.938-1.026-.938 2.169-.938.131-.938.143-.938-2.076-.939-1.044-.938 2.985-.938.296-.938-8.708-.938-3.002-.938-1.804-.938-4.88-.938-.812-.938.449-.938 2.431-.938 5.691-.938.365-.938.78-.938 5.012-.938 5.02-.938 1.216-.938 3.392-.938 19.005-.939.22-.938.372-.938 4.433-.938.744H657.462l-.938.743-.938.743-.938.046-.938.052-.938.062-.938.073-.938-2.139-.939.24-.938-.292-.938-.092-.938.03-.938.034-.938.037-.938.04-.938.788h-.938l-.938-.044-.938-.041-.938-.037-.938-.033-.938 2.943-.938.212-.938-.551-.938-2.04H630.258l-.938-.721-.938-.022-.938-.018-.938-.013-.938-.01-.938-.005-.938-1.49-.938.05-.938 2.397-.938-.095-.938-.143-.938-.11-.938-.086-.939-1.005-.938.448-.938-1-.938-.718-.938-.687-.938-.454-.938-.368-.938.386-.938-.968-.938-.686-.938-3.496-.938-.557-.938-.155-.938-1.262-.938-.524-.938-4.293-.938-.683-.939-1.138-.938.47-.938.174-.938-5.565-.938-2.27-.938-1.566-.938-2.369-.938-1.777-.938-.547-.938-.179-.938-2.162-.938-3.612-.938-.202-.938-.135-.938-1.247-.938-1.815-.938-3.893-.939 2.774-.938-5.698-.938-1.985-.938-1.514-.938-2.996-.938-.026-.938-1.104-.938.158-.938-.959-.938-.51-.938-3.725-.938-9.097-.938-.243-.938 3.686-.938-2.226-.938-3.64-.938 1.098-.938-1.986-.939-.817-.938-6.528-.938.607-.938-1.6v.633l-1.876.813-.938 1.526-.938-5.199-.938-.08-.938.156-.938 3.39-.938 11.513-.938-3.513-.938.764-.938-8.91-.938 7.122-.938-.07-.939 1.434-.938-4.462-.938-.563-.938 1.734-.938 7.65-.938-.637-.938.048-.938-6.641-.938-.648-.938 1.142-.938-2.58-.938 5.558-.938-1.597-.938-.984-.938-3.084-.938.816-.938 2.68-.939-1.642-.938 7.826-.938-5.06-.938.69-.938 7.685-.938.297-.938.941-.938-5.332-.938 11.827-.938-.224-.938-5.3-.938 2.853-.938 4.57-.938-.674-.938-.486-.938-8.23-.938 4.065-.938-.213-.939-1.22-.938-2.92-.938-14.815-.938 10.02-.938.047-.938.21-.938 1.88-.938-7.244-.938-.047-.938-.648-.938 2.183-.938-11.382-.938.087-.938.095-.938 2.5-.938 1.612-.938 9.742-.939-16.262-.938-1.082-.938-4.456-.938.953-.938 2.934-.938-2.565-.938-6.008-.938-4.853-.938 7.29-.938 1.534-.938-4.938-.938-4.164-.938-6.382-.938-3.072-.938 2.733-.938-24.532-.938-1.053-.939-.523-.938 7.361-.938-.508-.938-2.86-.938 4.366-.938-5.832-.938-.016-.938 8.317-.938 9.388-.938 7.789-.938-9.664-.938 8.577-.938 4.578-.938-1.158-.938-.776-.938-12.55-.938 10.153-.938 9.02-.939-4.029-.938 11.312-.938-.52-.938-.31-.938-8.48-.938-10.392-.938 16.415-.938-3.3-.938 12.137-.938 1.629-.938-5.938-.938-4.148-.938-12.4-.938-4.768-.938.427-.938-.42-.938-.137-.939-14.858-.938 7.488-.938 14.647-.938-.296-.938 3.593-.938-1.847-.938.912-.938 5.679-.938 8.226-.938 5.61-.938-1.512-.938-4.812-.938-3.372-.938-1.524-.938 13.97-.938-6.19-.938-13.543-.939 3.788-.938 2.917-.938-3.608-.938.102-.938 4.688-.938 8.003-.938 4.41-.938 4.354-.938 8.72-.938 2.912-.938-.839-.938.019-.938 2.208-.938 9.948-.938-3.448-.938.85-.938 11.267-.938.235-.939.528-.938 4.652-.938 2.98-.938 2.55-.938.646-.938 7.162-.938-2.449-.938-2.285-.938-.005-.938-.09-.938 2.584-.938-1.839-.938 2.099-.938-.823-.938-.662-.938-2.032-.938-7.276-.939-1.576-.938-1.421-.938-.162-.938 2.68-.938 2.892-.938 4.567-.938 4.478-.938 1.391-.938 5.396-.938 2.028-.938.514-.938.685-.938 2.47-.938 7.86-.938 2.973-.938.784-.938-.78-.939.106-.938.136-.938.178-.938-.494-.938-1.377-.938.003-.938-.737h-3.752l-.938.694-.938-2.339-.938 2.315-.938-.008-.938.008-.938.024-.938.725-.939-1.434-.938-.076-.938-.065-.938-.058-.938-.05-.938-.045-.938-.744-.938-.779-.938.775-.938-.157-.938-.1-.938-.057-.938-.762-.938-.702-.938 3.178-.938-.045-.938-.02-.939.004-.938.028-.938-.69-.938.905-.938.16-.938 1.693h-.938l-.938.05-.938.062-.938.825-.938.744-.938-.793-.938-.06-.938-.472-.938-.15-.938-.108-.938.665-.939-.743-.938.757-.938.095-.938-.645-.938-.011-.938.034-.938.086-.938-.78-.938-.053-.938-2.132-.938.735-.938-.463-.938-.281-.938-.184-.938.63-.938.016-.938-.718-.938-.658-.939-.061-.938.016-.938-1.39-.938.048-.938.821-.938 1.67-.938-3.6-.938-.35-.938-.234-.938-.176-.938-.14-.938-.854-.938.607-.938-1.545-.938-.268-.938-.132-.938.725h-.939l-.938-.725-.938 1.001-.938 3.336-.938-.087-.938-.021-.938.043-.938.11-.938.94-.938-.574-.938 3.485-.938-.09-.938-.079-.938-.068-.938.588-.938-.129-.938-.777-.939 1.457-.938.025-.938.047-.938.073-.938.105-.938.145-.938.214-.938-1.818-.938-.412-.938-.214-.938-.889-.938-.156-.938.743-.938.016-.938-.062-.938-.502-.938-.352-.938-.269-.939-.297-.938-.23-.938-.176-.938 2.15-.938.085-.938.155-.938.83-.938-.54-.938-.628-.938-2.09-.938-2.689-.938-.018-.938.018-.938-.799-.938-.664-.938-1.022-.938-.477-.939-1.01-.938-1.105-.938-2.818-.938-1.893-.938-1.874-.938-1.114-.938 2.677-.938-.713-.938.318-.938-.655-.938-3.25-.938-2.674-.938-3.181-.938-1.72-.938-3.375-.938.209-.938-.618-.939-3.411-.938-2.706-.938-1.94-.938-3.443-.938-1.435-.938-.306-.938-.136-.938.135-.938-2.945-.938 2.163-.938-.379-.938 2.685-.938-6.214-.938-10.36-.938-4.039-.938-.457-.938-4.059-.938-4.81-.939-.979-.938-2.922-.938-1.42-.938 4.424-.938 3.168-.938.18-.938 2.295-.938 3.61-.938 9.647-.938 13.986-.938 5.487-.938.98-.938 6.755-.938 7.331-.938 4.638-.938 2.208-.938 3.073-.939 1.57-.938 5.685-.938 2.89-.938 2.664-.938.111-.938.914-.938.094-.938.142-.938 1.884H150.911z" id="m8b39f204cc" style="stroke:#fff;stroke-opacity:.2"/></defs><g clip-path="url(#pe4853e482d)"><use style="fill:#089fff;fill-opacity:.2;stroke:#fff;stroke-opacity:.2" xlink:href="#m8b39f204cc" y="648"/></g></g><g id="LineCollection_1"><path clip-path="url(#pe4853e482d)" d="M204.38 547.958v-20.814M207.194 547.958v-10.407M209.07 547.958v-31.222M210.008 547.958v-31.222M210.946 547.958v-62.444M211.885 547.958v-10.407M212.823 547.958v-31.222M213.76 547.958v-20.814M214.699 547.958v-52.037M215.637 547.958V464.7M216.575 547.958v-72.851M217.513 547.958v-20.814M218.45 547.958v-62.444M219.389 547.958V381.44M220.327 547.958V433.477M221.265 547.958v-31.222M222.203 547.958v-52.037M223.141 547.958v-31.222M224.08 547.958V443.884M225.017 547.958v-72.851M225.955 547.958v-20.814M227.832 547.958v-62.444M228.77 547.958v-41.63M229.708 547.958v-41.63M230.646 547.958v-52.037M231.584 547.958v-52.037M232.522 547.958v-31.222M234.398 547.958v-52.037M235.336 547.958v-31.222M236.274 547.958v-52.037M237.212 547.958v-52.037M238.15 547.958v-72.851M239.088 547.958v-20.814M240.964 547.958v-52.037M242.84 547.958v-20.814M243.778 547.958v-31.222M244.717 547.958v-31.222M245.655 547.958v-31.222M251.283 547.958v-10.407M254.097 547.958v-41.63M255.035 547.958v-41.63M255.973 547.958v-10.407M256.911 547.958v-10.407M257.85 547.958v-10.407M261.602 547.958v-10.407M268.168 547.958v-10.407M270.982 547.958v-20.814M273.796 547.958v-31.222M274.734 547.958v-10.407M281.3 547.958v-10.407M282.239 547.958v-10.407M284.115 547.958v-10.407M287.867 547.958v-10.407M293.496 547.958v-20.814M295.372 547.958v-10.407M296.31 547.958v-10.407M297.248 547.958v-10.407M300.062 547.958v-41.63M301.938 547.958v-10.407M306.628 547.958v-62.444M307.566 547.958v-10.407M309.443 547.958v-10.407M310.38 547.958v-20.814M313.195 547.958v-20.814M314.133 547.958v-10.407M320.7 547.958v-31.222M321.637 547.958v-10.407M322.575 547.958v-10.407M326.328 547.958v-10.407M329.142 547.958v-10.407M332.894 547.958v-10.407M334.77 547.958v-10.407M341.336 547.958v-10.407M343.213 547.958v-10.407M346.027 547.958v-10.407M348.841 547.958v-10.407M349.779 547.958v-10.407M353.531 547.958v-20.814M354.47 547.958v-10.407M355.407 547.958v-10.407M359.16 547.958v-10.407M361.036 547.958v-41.63M366.664 547.958v-31.222M372.292 547.958v-10.407M374.169 547.958v-20.814M375.107 547.958v-10.407M378.859 547.958v-31.222M380.735 547.958v-10.407M391.992 547.958v-20.814M392.93 547.958v-10.407M393.868 547.958v-52.037M394.806 547.958v-93.666M395.744 547.958v-20.814M398.558 547.958v-20.814M399.496 547.958v-62.444M400.434 547.958v-10.407M401.372 547.958v-52.037M402.31 547.958v-52.037M403.248 547.958v-31.222M404.186 547.958v-31.222M405.124 547.958v-20.814M407 547.958v-41.63M411.69 547.958v-62.444M412.629 547.958v-41.63M413.567 547.958v-52.037M414.505 547.958v-52.037M415.443 547.958v-52.037M418.257 547.958V423.07M419.195 547.958v-10.407M420.133 547.958v-72.851M421.071 547.958v-31.222M422.01 547.958v-52.037M424.824 547.958v-197.74M425.762 547.958v-41.63M427.638 547.958V371.032M428.576 547.958v-72.851M431.39 547.958V381.44M432.328 547.958V423.07M433.266 547.958V423.07M434.204 547.958V464.7M435.142 547.958V402.255M436.08 547.958v-52.037M437.956 547.958V402.255M438.894 547.958V464.7M439.833 547.958v-62.444M442.647 547.958V339.81M444.523 547.958V402.255M445.46 547.958v-72.851M446.399 547.958V433.477M447.337 547.958V381.44M448.275 547.958V298.181M449.213 547.958V433.477M451.09 547.958V433.477M452.027 547.958V423.07M452.965 547.958v-52.037M453.903 547.958V360.625M454.841 547.958v-93.666M457.656 547.958V402.255M458.594 547.958v-93.666M459.532 547.958v-72.851M461.408 547.958V371.032M464.222 547.958v-281M465.16 547.958v-72.851M466.098 547.958v-281M467.036 547.958v-52.037M470.788 547.958V235.736M471.727 547.958v-52.037M472.665 547.958v-197.74M473.603 547.958V433.477M477.355 547.958V204.514M478.293 547.958V360.625M479.231 547.958V402.255M480.169 547.958v-156.11M481.107 547.958V423.07M482.045 547.958V443.884M483.921 547.958V318.995M484.86 547.958V433.477M485.797 547.958v-156.11M486.735 547.958V443.884M487.673 547.958V443.884M491.426 547.958V329.403M492.364 547.958V443.884M493.302 547.958v-41.63M494.24 547.958v-31.222M497.054 547.958v-322.63M497.992 547.958v-41.63M498.93 547.958v-62.444M499.868 547.958v-62.444M500.806 547.958V381.44M501.744 547.958v-52.037M505.497 547.958V277.366M506.435 547.958V464.7M507.373 547.958v-72.851M510.187 547.958V381.44M511.125 547.958v-72.851M512.063 547.958v-52.037M513.001 547.958v-62.444M513.94 547.958v-52.037M514.877 547.958v-72.851M517.691 547.958V402.255M518.63 547.958v-52.037M519.567 547.958v-31.222M520.506 547.958v-52.037M522.382 547.958v-72.851M523.32 547.958v-41.63M524.258 547.958v-62.444M525.196 547.958v-41.63M526.134 547.958V412.662M527.072 547.958v-93.666M529.886 547.958V381.44M530.824 547.958V443.884M531.762 547.958v-62.444M532.7 547.958v-31.222M533.638 547.958V402.255M536.452 547.958V402.255M537.39 547.958v-41.63M538.329 547.958V464.7M539.267 547.958V402.255M540.205 547.958v-52.037M543.019 547.958v-239.37M543.957 547.958v-72.851M544.895 547.958V464.7M545.833 547.958v-31.222M546.771 547.958v-52.037M549.585 547.958V298.181M550.523 547.958v-62.444M551.461 547.958v-72.851M552.4 547.958V464.7M553.338 547.958v-72.851M555.214 547.958v-93.666M556.152 547.958V433.477M557.09 547.958V464.7M558.028 547.958v-31.222M558.966 547.958V360.625M559.904 547.958v-93.666M562.718 547.958V371.032M563.656 547.958V464.7M565.532 547.958V464.7M565.532 547.958v-93.666M566.47 547.958v-52.037M567.408 547.958v-10.407M569.285 547.958V443.884M570.223 547.958v-52.037M571.16 547.958v-52.037M572.099 547.958V423.07M573.037 547.958v-52.037M573.975 547.958v-52.037M575.85 547.958v-31.222M576.789 547.958v-10.407M577.727 547.958v-62.444M578.665 547.958v-72.851M579.603 547.958v-52.037M582.417 547.958v-62.444M583.355 547.958v-31.222M584.293 547.958v-31.222M585.231 547.958v-41.63M586.17 547.958v-93.666M587.108 547.958v-10.407M588.984 547.958v-20.814M589.922 547.958v-10.407M590.86 547.958v-62.444M591.798 547.958v-20.814M592.736 547.958v-20.814M595.55 547.958v-41.63M597.426 547.958v-10.407M604.93 547.958v-10.407M610.559 547.958v-10.407M611.497 547.958v-20.814M617.125 547.958v-10.407M622.754 547.958v-31.222M623.692 547.958v-10.407M638.7 547.958v-41.63M644.33 547.958v-10.407M650.896 547.958v-10.407M651.834 547.958v-10.407M656.524 547.958v-10.407M657.462 547.958v-20.814M664.028 547.958v-20.814M664.966 547.958v-62.444M667.78 547.958V329.403M668.719 547.958v-20.814M669.657 547.958v-10.407M670.595 547.958v-72.851M671.533 547.958v-52.037M674.347 547.958v-72.851M675.285 547.958v-31.222M676.223 547.958v-10.407M677.161 547.958v-20.814M678.1 547.958v-10.407M680.913 547.958V443.884M681.851 547.958v-31.222M682.79 547.958v-62.444M683.728 547.958v-62.444M684.666 547.958v-20.814M687.48 547.958V443.884M688.418 547.958v-20.814M689.356 547.958v-10.407M690.294 547.958v-41.63M694.046 547.958v-20.814M694.984 547.958v-41.63M695.922 547.958v-20.814M696.86 547.958v-52.037M700.613 547.958v-72.851M701.55 547.958v-72.851M702.489 547.958v-72.851M703.427 547.958v-20.814M704.365 547.958v-52.037M708.117 547.958V423.07M709.055 547.958v-62.444M710.931 547.958v-52.037M713.745 547.958v-93.666M714.683 547.958v-31.222M715.622 547.958v-41.63M716.56 547.958V464.7M717.498 547.958v-41.63M720.312 547.958V412.662M721.25 547.958v-10.407M722.188 547.958v-52.037M723.126 547.958v-52.037M724.064 547.958v-31.222M726.878 547.958v-41.63M727.816 547.958v-31.222M728.754 547.958v-41.63M729.692 547.958v-41.63M730.63 547.958v-41.63M733.445 547.958v-41.63M734.383 547.958v-20.814M735.32 547.958v-62.444M737.197 547.958V433.477M740.95 547.958v-62.444M741.887 547.958v-20.814M742.825 547.958v-20.814M743.763 547.958v-20.814M746.577 547.958V464.7M747.515 547.958v-31.222M748.454 547.958v-10.407M749.392 547.958v-41.63M750.33 547.958v-20.814M753.144 547.958v-20.814M754.082 547.958v-10.407M755.958 547.958v-20.814M756.896 547.958v-10.407M759.71 547.958V464.7M760.648 547.958v-41.63M763.462 547.958v-20.814M766.277 547.958v-52.037M767.215 547.958v-20.814M768.153 547.958v-93.666M770.029 547.958v-72.851M772.843 547.958v-62.444M773.781 547.958v-41.63M774.72 547.958v-20.814M775.657 547.958v-31.222M776.595 547.958v-31.222M779.41 547.958v-156.11M780.347 547.958v-52.037M781.286 547.958v-72.851M785.976 547.958V339.81M786.914 547.958v-72.851M787.852 547.958v-20.814M788.79 547.958V464.7M789.728 547.958v-93.666M792.542 547.958V412.662M793.48 547.958V443.884M794.418 547.958V423.07M795.356 547.958V443.884M796.294 547.958V443.884M799.109 547.958V371.032M800.047 547.958V412.662M800.985 547.958V371.032M801.923 547.958v-239.37M802.86 547.958v-72.851M803.799 547.958V121.255M804.737 547.958V423.07M805.675 547.958V371.032M806.613 547.958V256.551M807.551 547.958V100.44M808.49 547.958V204.514M809.427 547.958" style="fill:none;stroke:#000;stroke-dasharray:1.5,2.475;stroke-dashoffset:0;stroke-width:1.5"/></g><path clip-path="url(#pe4853e482d)" d="M149.973 547.958h53.469l.938-1.486h1.876l.938-.744h.938l1.876-4.46.938-4.46.939-.744.938-2.23.938-1.487.938-3.717.938-5.947.938-5.204h.938l.938-4.46.938-11.894.938-7.434.938-2.23.938-1.487h.938l.938-2.973.938-4.46.938.743.938 1.487.939-.744.938 2.974.938 2.23.938-2.23.938.743.938 9.664.938 8.177.938-1.486.938 1.486.938-1.486.938 3.716h2.814l.938.744.938 2.973 2.815 4.46h1.876l.938 3.718.938 2.23 1.876 7.434.938 4.46.938 1.487h.938l.938.743.938-2.973.938.743 1.876 2.974.938 2.23h1.877l.938-.744h1.876l.938.744h1.876l.938 2.973.938 2.23 1.876 1.487.938-.743h1.876l.938-2.23h7.505l.938-.744h.938l.938.744h1.876l.938 2.23h5.628l.939-1.487.938.743h.938l.938-.743h2.814l.938-2.974.938.744.938-.744h3.752l.938-2.973.938-.743.938.743h.939l.938-.743h1.876l.938 1.486.938-.743.938.743h3.752l.938 4.46.938-1.486.938-.744h.938l.938 1.487h1.877l1.876 1.487h.938l.938-.743h2.814l.938-.744.938 2.23h.938l.938.744h2.814l.938.743h.938l.938-.743.939.743.938-.743h3.752l.938.743 1.876-1.487h2.814l.938-1.486h.938l.938-.744.938.744h3.753l.938-2.974 1.876 1.487h2.814l.938-.744 1.876 1.487h4.69l.939 1.487.938-.743h2.814l.938-2.23.938 2.23.938-.744h3.752l.938.744h.938l.938 1.486.938.744h2.815l.938.743.938-.743.938-2.974.938-6.69.938-1.487h1.876l.938-1.487.938-4.46.938-.743 1.876-7.434 1.876-4.46h.938l1.877 1.486.938 6.69.938 1.487h1.876l.938-2.973.938 1.487.938-2.974h1.876l1.876 4.46.938-7.434.938-.743 1.876-4.46.938-3.717h1.877l.938-9.664h.938l.938 3.717.938-8.92.938-1.488h1.876l.938-2.973.938-8.177 1.876-7.434.938-6.69.938-3.718h.938l.938 3.717.938-2.973.939-4.46.938 12.637.938 5.204.938-14.868h.938l.938 1.487.938 3.717.938.743.938-5.947.938-7.434.938-4.46h.938l.938 2.23.938-2.974.938.744.938-13.381.938-6.69.939 14.867h1.876l.938-1.487.938 2.974.938 11.894.938 5.204.938 8.177h.938l.938-11.894.938 3.717.938-16.355.938 9.664.938 6.69h1.876l.938-11.893.939 2.973 1.876-17.098.938 12.638h1.876l.938-4.46.938-8.178.938 9.664.938-7.434.938-8.92.938-7.434h.938l.938 5.947.938-4.46.938 2.973.938.744.938-7.434h1.877l.938 24.531.938-2.23.938 2.974.938 8.177 1.876 14.124h.938l.938-6.69.938 5.204.938 6.69.938 2.974.938-4.46.938-3.718h1.876l.939 15.612.938-11.895 1.876-5.947h1.876l.938 11.151.938-2.23.938.743h.938l.938 8.178.938-1.487h1.876l.938-10.408.938 15.611.938 3.717.939 1.487h.938l.938-5.204.938 8.921 1.876 1.487.938-5.204.938-2.973.938 5.203h.938l.938-11.894.938 2.974.938-.744h.938l.938-6.69h.938l.938 5.204.938-7.434.939 1.486.938-2.973.938-.743.938 2.973h1.876l.938-5.204.938 2.23.938-1.486h.938l.938 6.69h1.876l.938-7.434.938-1.486.938.743.938 4.46.939-1.486h.938l.938-6.691.938 8.92.938-.743.938 3.717.938-11.15.938-2.974h1.876l.938 5.204.938-1.487 1.876-.744v-.743l.938 1.487.938-.744.938 6.69.939.744.938 2.23.938-1.486.938 4.46.938 2.974.938-3.717h.938l.938 10.407.938 5.204 1.876 2.973h.938l.938.744h.938l.938 2.973 1.876 2.974.938 5.947.939-2.974.938 2.974h.938l.938.743h1.876l.938 3.717.938 2.23h1.876l.938 1.487.938 2.23.938 1.487.938 2.974.938 6.69.938.743h.938l.939 1.487.938.744.938 4.46.938.743.938 1.487h1.876l.938 2.974h1.876l.938-1.487h4.69l.938-.744.939.744h3.752l.938-2.23h.938l.938 1.486h4.69l.938.744h4.69l.939 2.23.938.743h.938l.938-2.973h4.69l.938-.744h5.628l.939-.743.938 2.23h3.752l1.876-1.487h5.628l.938-.743.938-3.717h1.877l.938-15.611.938-1.487h.938l1.876-7.434h1.876l.938-5.203.938-2.23.938-.744h.938l.938 3.717h1.876l.938 8.177.938-.743.938-3.717.939.743.938 2.23h1.876l.938-2.23.938.744h.938l.938-1.487.938.743h1.876l.938 5.947.938-.743.938 2.974.938.743.938 1.487h1.877l.938 2.23.938-3.717.938-4.46.938 1.486.938-3.717h1.876l.938 1.487.938-5.947.938-2.973.938 3.717.938-3.717h1.876l.938-1.487.938 2.973.939 2.23.938-4.46.938.744h1.876l.938-9.664.938 8.177.938.743.938-3.717.938 1.487h1.876l.938 3.717h1.876l.938 2.974h2.815l.938 6.69 1.876-1.487.938 3.717.938-5.947h1.876l.938 2.974.938-2.23 2.814 4.46h1.876l.938-2.974.938-.743.939 3.717.938-2.974.938 6.69h1.876l.938-1.486.938 3.717.938 1.487h.938l.938.743h2.814l.938-.743.938.743.938 2.974h2.815l.938-2.23.938-.744.938-6.69.938 1.486.938-4.46h1.876l.938 1.487h.938l.938-1.487.938-2.23.938-.744h1.876l.938-7.433.938-2.23.939 1.486h.938l.938 5.204h1.876l.938-10.407.938-2.23h.938l.938-3.718.938-4.46h1.876l.938 1.487 1.876-7.434 1.876-14.868h1.877l.938 2.23.938-4.46 1.876-22.301.938 1.486.938-30.478.938-8.921.938-2.974.938-13.38.938-23.046.938-17.097.938 7.433h0" style="fill:none;stroke:#000;stroke-linecap:round;stroke-width:1.5" id="line2d_1"/><path d="M117 576.72V77.76" style="fill:none;stroke:#d3d3d3;stroke-linecap:square;stroke-linejoin:miter;stroke-width:1.25" id="patch_3"/><path d="M117 576.72h725.4" style="fill:none;stroke:#d3d3d3;stroke-linecap:square;stroke-linejoin:miter;stroke-width:1.25" id="patch_4"/><g id="matplotlib.axis_1"><g id="xtick_1"><g style="fill:#696969" transform="matrix(.16 0 0 -.16 118.88 598.378)" id="text_1"><defs><path d="M9.813 72.906h9.859V5.078q0-13.187-5-19.14-5-5.954-16.094-5.954h-3.75v8.297h3.078q6.531 0 9.219 3.672Q9.813-4.39 9.813 5.078z" id="DejaVuSans-74"/><path d="M34.281 27.484q-10.89 0-15.093-2.484-4.204-2.484-4.204-8.5 0-4.781 3.157-7.594 3.156-2.797 8.562-2.797 7.485 0 12 5.297 4.516 5.297 4.516 14.078v2zm17.922 3.72V0H43.22v8.297Q40.14 3.328 35.547.953q-4.594-2.375-11.234-2.375-8.391 0-13.36 4.719Q6 8.016 6 15.922q0 9.219 6.172 13.906 6.187 4.688 18.437 4.688h12.61v.89q0 6.203-4.078 9.594-4.078 3.39-11.453 3.39-4.688 0-9.141-1.124-4.438-1.125-8.531-3.375v8.312q4.921 1.906 9.562 2.844 4.64.953 9.031.953 11.875 0 17.735-6.156 5.86-6.14 5.86-18.64z" id="DejaVuSans-97"/><path d="M54.89 33.016V0h-8.984v32.719q0 7.765-3.031 11.61-3.031 3.858-9.078 3.858-7.281 0-11.484-4.64-4.204-4.625-4.204-12.64V0H9.08v54.688h9.03v-8.5q3.235 4.937 7.594 7.374Q30.078 56 35.797 56q9.422 0 14.25-5.828 4.844-5.828 4.844-17.156z" id="DejaVuSans-110"/></defs><use xlink:href="#DejaVuSans-74"/><use x="29.492" xlink:href="#DejaVuSans-97"/><use x="90.771" xlink:href="#DejaVuSans-110"/></g></g><g id="xtick_2"><g style="fill:#696969" transform="matrix(.16 0 0 -.16 202.735 598.378)" id="text_2"><defs><path d="M34.188 63.188 20.797 26.906h26.812zm-5.579 9.718h11.188L67.578 0h-10.25l-6.64 18.703h-32.86L11.188 0H.78z" id="DejaVuSans-65"/><path d="M18.11 8.203v-29H9.077v75.484h9.031v-8.296q2.844 4.875 7.157 7.234Q29.594 56 35.594 56q9.968 0 16.187-7.906 6.235-7.907 6.235-20.797T51.78 6.484q-6.218-7.906-16.187-7.906-6 0-10.328 2.375-4.313 2.375-7.157 7.25zm30.578 19.094q0 9.906-4.079 15.547-4.078 5.64-11.203 5.64-7.14 0-11.218-5.64-4.079-5.64-4.079-15.547 0-9.906 4.078-15.547 4.079-5.64 11.22-5.64 7.124 0 11.202 5.64t4.078 15.547z" id="DejaVuSans-112"/><path d="M41.11 46.297q-1.516.875-3.297 1.281Q36.03 48 33.89 48q-7.625 0-11.703-4.953-4.079-4.953-4.079-14.234V0H9.08v54.688h9.03v-8.5q2.844 4.984 7.375 7.39Q30.031 56 36.531 56q.922 0 2.047-.125 1.125-.11 2.484-.36z" id="DejaVuSans-114"/></defs><use xlink:href="#DejaVuSans-65"/><use x="68.408" xlink:href="#DejaVuSans-112"/><use x="131.885" xlink:href="#DejaVuSans-114"/></g></g><g id="xtick_3"><g style="fill:#696969" transform="matrix(.16 0 0 -.16 292.286 598.378)" id="text_3"><defs><path d="M8.5 21.578v33.11h8.984V21.922q0-7.766 3.016-11.656 3.031-3.875 9.094-3.875 7.265 0 11.484 4.64 4.234 4.64 4.234 12.656v31h8.985V0h-8.984v8.406Q42.047 3.422 37.718 1q-4.313-2.422-10.032-2.422-9.421 0-14.312 5.86Q8.5 10.296 8.5 21.578zM31.11 56z" id="DejaVuSans-117"/><path d="M9.422 75.984h8.984V0H9.422z" id="DejaVuSans-108"/></defs><use xlink:href="#DejaVuSans-74"/><use x="29.492" xlink:href="#DejaVuSans-117"/><use x="92.871" xlink:href="#DejaVuSans-108"/></g></g><g id="xtick_4"><g style="fill:#696969" transform="matrix(.16 0 0 -.16 374.407 598.378)" id="text_4"><defs><path d="M39.406 66.219q-10.75 0-17.078-8.016-6.312-8-6.312-21.828 0-13.766 6.312-21.781 6.328-8 17.078-8 10.735 0 17.016 8 6.281 8.015 6.281 21.781 0 13.828-6.281 21.828-6.281 8.016-17.016 8.016zm0 8q15.328 0 24.5-10.281 9.188-10.282 9.188-27.563 0-17.234-9.188-27.516-9.172-10.28-24.5-10.28-15.375 0-24.593 10.25-9.204 10.265-9.204 27.546t9.204 27.563q9.218 10.28 24.593 10.28z" id="DejaVuSans-79"/><path d="M48.781 52.594v-8.407q-3.812 2.11-7.64 3.157-3.828 1.047-7.735 1.047-8.75 0-13.593-5.547-4.829-5.532-4.829-15.547 0-10.016 4.829-15.563 4.843-5.53 13.593-5.53 3.907 0 7.735 1.046 3.828 1.047 7.64 3.156V2.094Q45.016.344 40.984-.531q-4.015-.89-8.562-.89-12.36 0-19.64 7.765-7.266 7.765-7.266 20.953 0 13.375 7.343 21.031Q20.22 56 33.016 56q4.14 0 8.093-.86 3.953-.843 7.672-2.546z" id="DejaVuSans-99"/><path d="M18.313 70.219V54.688h18.5v-6.985h-18.5V18.016q0-6.688 1.828-8.594 1.828-1.906 7.453-1.906h9.218V0h-9.218q-10.407 0-14.36 3.875-3.953 3.89-3.953 14.14v29.688H2.687v6.984h6.594V70.22z" id="DejaVuSans-116"/></defs><use xlink:href="#DejaVuSans-79"/><use x="78.711" xlink:href="#DejaVuSans-99"/><use x="133.691" xlink:href="#DejaVuSans-116"/></g></g><g id="xtick_5"><g style="fill:#696969" transform="matrix(.16 0 0 -.16 462.208 598.378)" id="text_5"><use xlink:href="#DejaVuSans-74"/><use x="29.492" xlink:href="#DejaVuSans-97"/><use x="90.771" xlink:href="#DejaVuSans-110"/></g></g><g id="xtick_6"><g style="fill:#696969" transform="matrix(.16 0 0 -.16 545.126 598.378)" id="text_6"><use xlink:href="#DejaVuSans-65"/><use x="68.408" xlink:href="#DejaVuSans-112"/><use x="131.885" xlink:href="#DejaVuSans-114"/></g></g><g id="xtick_7"><g style="fill:#696969" transform="matrix(.16 0 0 -.16 634.677 598.378)" id="text_7"><use xlink:href="#DejaVuSans-74"/><use x="29.492" xlink:href="#DejaVuSans-117"/><use x="92.871" xlink:href="#DejaVuSans-108"/></g></g><g id="xtick_8"><g style="fill:#696969" transform="matrix(.16 0 0 -.16 716.798 598.378)" id="text_8"><use xlink:href="#DejaVuSans-79"/><use x="78.711" xlink:href="#DejaVuSans-99"/><use x="133.691" xlink:href="#DejaVuSans-116"/></g></g><g id="xtick_9"><g style="fill:#696969" transform="matrix(.16 0 0 -.16 804.6 598.378)" id="text_9"><use xlink:href="#DejaVuSans-74"/><use x="29.492" xlink:href="#DejaVuSans-97"/><use x="90.771" xlink:href="#DejaVuSans-110"/></g></g></g><g id="matplotlib.axis_2"><g id="ytick_1"><g style="fill:#696969" transform="matrix(.16 0 0 -.16 97.32 554.037)" id="text_10"><defs><path d="M31.781 66.406q-7.61 0-11.453-7.5Q16.5 51.422 16.5 36.375q0-14.984 3.828-22.484 3.844-7.5 11.453-7.5 7.672 0 11.5 7.5 3.844 7.5 3.844 22.484 0 15.047-3.844 22.531-3.828 7.5-11.5 7.5zm0 7.813q12.266 0 18.735-9.703 6.468-9.688 6.468-28.141 0-18.406-6.468-28.11-6.47-9.687-18.735-9.687-12.25 0-18.718 9.688-6.47 9.703-6.47 28.109 0 18.453 6.47 28.14Q19.53 74.22 31.78 74.22z" id="DejaVuSans-48"/></defs><use xlink:href="#DejaVuSans-48"/></g></g><g id="ytick_2"><g style="fill:#696969" transform="matrix(.16 0 0 -.16 87.14 449.963)" id="text_11"><defs><path d="M12.406 8.297h16.11v55.625l-17.532-3.516v8.985l17.438 3.515h9.86V8.296H54.39V0H12.406z" id="DejaVuSans-49"/></defs><use xlink:href="#DejaVuSans-49"/><use x="63.623" xlink:href="#DejaVuSans-48"/></g></g><g id="ytick_3"><g style="fill:#696969" transform="matrix(.16 0 0 -.16 87.14 345.889)" id="text_12"><defs><path d="M19.188 8.297h34.421V0H7.33v8.297q5.609 5.812 15.296 15.594 9.703 9.797 12.188 12.64 4.734 5.313 6.609 9 1.89 3.688 1.89 7.25 0 5.813-4.078 9.469-4.078 3.672-10.625 3.672-4.64 0-9.797-1.61-5.14-1.609-11-4.89v9.969Q13.767 71.78 18.938 73q5.188 1.219 9.485 1.219 11.328 0 18.062-5.672 6.735-5.656 6.735-15.125 0-4.5-1.688-8.531-1.672-4.016-6.125-9.485-1.218-1.422-7.765-8.187-6.532-6.766-18.453-18.922z" id="DejaVuSans-50"/></defs><use xlink:href="#DejaVuSans-50"/><use x="63.623" xlink:href="#DejaVuSans-48"/></g></g><g id="ytick_4"><g style="fill:#696969" transform="matrix(.16 0 0 -.16 87.14 241.815)" id="text_13"><defs><path d="M40.578 39.313Q47.656 37.797 51.625 33q3.984-4.781 3.984-11.813 0-10.78-7.422-16.703-7.421-5.906-21.093-5.906-4.578 0-9.438.906-4.86.907-10.031 2.72v9.515q4.094-2.39 8.969-3.61 4.89-1.218 10.218-1.218 9.266 0 14.125 3.656 4.86 3.656 4.86 10.64 0 6.454-4.516 10.079-4.515 3.64-12.562 3.64h-8.5v8.11h8.89q7.266 0 11.125 2.906 3.86 2.906 3.86 8.375 0 5.61-3.985 8.61-3.968 3.015-11.39 3.015-4.063 0-8.703-.89-4.641-.876-10.203-2.72v8.782q5.624 1.562 10.53 2.344 4.907.78 9.25.78 11.235 0 17.766-5.109 6.547-5.093 6.547-13.78 0-6.063-3.468-10.235-3.47-4.172-9.86-5.782z" id="DejaVuSans-51"/></defs><use xlink:href="#DejaVuSans-51"/><use x="63.623" xlink:href="#DejaVuSans-48"/></g></g><g id="ytick_5"><g style="fill:#696969" transform="matrix(.16 0 0 -.16 87.14 137.741)" id="text_14"><defs><path d="M37.797 64.313 12.89 25.39h24.906zm-2.594 8.593H47.61V25.391h10.407v-8.203H47.609V0h-9.812v17.188H4.89v9.515z" id="DejaVuSans-52"/></defs><use xlink:href="#DejaVuSans-52"/><use x="63.623" xlink:href="#DejaVuSans-48"/></g></g><g style="fill:#696969" transform="matrix(0 -.2 -.2 0 78.98 379.813)" id="text_15"><defs><path d="M51.125 44H36.922l-4.11-16.313h14.313zm-7.328 27.781-5.078-20.265h14.265L58.11 71.78h7.813L60.89 51.516h15.234V44h-17.14l-4-16.313h15.53V20.22H53.079L48 0h-7.813l5.032 20.219H30.906L25.875 0h-7.86l5.079 20.219H7.719v7.468h17.187L29 44H13.281v7.516h17.625l4.985 20.265z" id="DejaVuSans-35"/><path d="M30.61 48.39q-7.22 0-11.422-5.64-4.204-5.64-4.204-15.453 0-9.813 4.172-15.453 4.188-5.64 11.453-5.64 7.188 0 11.375 5.655 4.203 5.672 4.203 15.438 0 9.719-4.203 15.406-4.187 5.688-11.375 5.688zm0 7.61q11.718 0 18.406-7.625 6.703-7.61 6.703-21.078 0-13.422-6.703-21.078-6.688-7.64-18.407-7.64-11.765 0-18.437 7.64-6.656 7.656-6.656 21.078 0 13.469 6.656 21.078Q18.844 56 30.609 56z" id="DejaVuSans-111"/><path d="M37.11 75.984V68.5h-8.594q-4.828 0-6.72-1.953-1.874-1.953-1.874-7.031v-4.828h14.797v-6.985H19.922V0H10.89v47.703H2.297v6.984h8.594V58.5q0 9.125 4.25 13.297 4.25 4.187 13.468 4.187z" id="DejaVuSans-102"/><path d="M44.281 53.078v-8.5q-3.797 1.953-7.906 2.922-4.094.984-8.5.984-6.688 0-10.031-2.047-3.344-2.046-3.344-6.156 0-3.125 2.39-4.906 2.391-1.781 9.626-3.39l3.078-.688q9.562-2.047 13.593-5.781 4.032-3.735 4.032-10.422 0-7.625-6.032-12.078-6.03-4.438-16.578-4.438-4.39 0-9.156.86Q10.688.296 5.422 2v9.281q4.984-2.594 9.812-3.89 4.829-1.282 9.579-1.282 6.343 0 9.75 2.172 3.421 2.172 3.421 6.125 0 3.656-2.468 5.61-2.453 1.953-10.813 3.765l-3.125.735q-8.344 1.75-12.062 5.39-3.704 3.64-3.704 9.985 0 7.718 5.47 11.906Q16.75 56 26.811 56q4.97 0 9.36-.734 4.406-.72 8.11-2.188z" id="DejaVuSans-115"/><path d="M56.203 29.594v-4.39H14.891q.593-9.282 5.593-14.142 5-4.859 13.938-4.859 5.172 0 10.031 1.266 4.86 1.265 9.656 3.812v-8.5Q49.266.734 44.187-.344 39.11-1.422 33.892-1.422q-13.094 0-20.735 7.61-7.64 7.625-7.64 20.625 0 13.421 7.25 21.296Q20.016 56 32.328 56q11.031 0 17.453-7.11 6.422-7.093 6.422-19.296zm-8.984 2.64q-.094 7.36-4.125 11.75-4.032 4.407-10.672 4.407-7.516 0-12.031-4.25-4.516-4.25-5.203-11.97z" id="DejaVuSans-101"/></defs><use xlink:href="#DejaVuSans-35"/><use x="83.789" xlink:href="#DejaVuSans-32"/><use x="115.576" xlink:href="#DejaVuSans-111"/><use x="176.758" xlink:href="#DejaVuSans-102"/><use x="211.963" xlink:href="#DejaVuSans-32"/><use x="243.75" xlink:href="#DejaVuSans-99"/><use x="298.73" xlink:href="#DejaVuSans-97"/><use x="360.01" xlink:href="#DejaVuSans-115"/><use x="412.109" xlink:href="#DejaVuSans-101"/><use x="473.633" xlink:href="#DejaVuSans-115"/></g></g><g style="fill:#696969" transform="matrix(.24 0 0 -.24 308.75 71.76)" id="text_16"><defs><path d="M44.39 34.188q3.172-1.079 6.172-4.594 3-3.516 6.032-9.672L66.609 0H56l-9.313 18.703q-3.624 7.328-7.015 9.719-3.39 2.39-9.25 2.39h-10.75V0h-9.86v72.906h22.266q12.5 0 18.656-5.234 6.157-5.219 6.157-15.766 0-6.89-3.203-11.437-3.204-4.532-9.297-6.282zM19.673 64.797V38.922h12.406q7.125 0 10.766 3.297 3.64 3.297 3.64 9.687 0 6.39-3.64 9.64-3.64 3.25-10.766 3.25z" id="DejaVuSans-82"/><path d="M54.89 33.016V0h-8.984v32.719q0 7.765-3.031 11.61-3.031 3.858-9.078 3.858-7.281 0-11.484-4.64-4.204-4.625-4.204-12.64V0H9.08v75.984h9.03V46.188q3.235 4.937 7.594 7.374Q30.078 56 35.797 56q9.422 0 14.25-5.828 4.844-5.828 4.844-17.156z" id="DejaVuSans-104"/><path d="M45.406 46.39v29.594h8.985V0h-8.985v8.203Q42.578 3.328 38.25.953q-4.313-2.375-10.375-2.375-9.906 0-16.14 7.906-6.22 7.922-6.22 20.813 0 12.89 6.22 20.797Q17.968 56 27.874 56q6.063 0 10.375-2.375 4.328-2.36 7.156-7.234zm-30.61-19.093q0-9.906 4.079-15.547 4.078-5.64 11.203-5.64 7.125 0 11.219 5.64 4.11 5.64 4.11 15.547 0 9.906-4.11 15.547-4.094 5.64-11.219 5.64-7.125 0-11.203-5.64-4.078-5.64-4.078-15.547z" id="DejaVuSans-100"/><path d="M9.813 72.906h13.28l32.329-60.984v60.984h9.562V0h-13.28L19.39 60.984V0H9.813z" id="DejaVuSans-78"/><path d="M4.203 54.688h8.985l11.234-42.672 11.172 42.672h10.593l11.235-42.672 11.187 42.672h8.985L63.28 0H52.688L40.922 44.828 29.109 0H18.5z" id="DejaVuSans-119"/><path d="M64.406 67.281v-10.39q-4.984 4.64-10.625 6.922-5.64 2.296-11.984 2.296-12.5 0-19.14-7.64-6.641-7.64-6.641-22.094 0-14.406 6.64-22.047 6.64-7.64 19.14-7.64 6.345 0 11.985 2.296 5.64 2.297 10.625 6.938V5.609Q59.234 2.094 53.437.33q-5.78-1.75-12.218-1.75-16.563 0-26.094 10.124-9.516 10.14-9.516 27.672 0 17.578 9.516 27.703 9.531 10.14 26.094 10.14 6.531 0 12.312-1.734 5.797-1.734 10.875-5.203z" id="DejaVuSans-67"/><path d="M2.984 54.688H12.5L29.594 8.797l17.093 45.89h9.516L35.687 0H23.485z" id="DejaVuSans-118"/><path d="M9.422 54.688h8.984V0H9.422zm0 21.296h8.984v-11.39H9.422z" id="DejaVuSans-105"/></defs><use xlink:href="#DejaVuSans-82"/><use x="64.982" xlink:href="#DejaVuSans-117"/><use x="128.361" xlink:href="#DejaVuSans-116"/><use x="167.57" xlink:href="#DejaVuSans-104"/><use x="230.949" xlink:href="#DejaVuSans-101"/><use x="292.473" xlink:href="#DejaVuSans-114"/><use x="333.586" xlink:href="#DejaVuSans-102"/><use x="368.791" xlink:href="#DejaVuSans-111"/><use x="429.973" xlink:href="#DejaVuSans-114"/><use x="469.336" xlink:href="#DejaVuSans-100"/><use x="532.813" xlink:href="#DejaVuSans-32"/><use x="564.6" xlink:href="#DejaVuSans-78"/><use x="639.404" xlink:href="#DejaVuSans-101"/><use x="700.928" xlink:href="#DejaVuSans-119"/><use x="782.715" xlink:href="#DejaVuSans-32"/><use x="814.502" xlink:href="#DejaVuSans-67"/><use x="884.326" xlink:href="#DejaVuSans-111"/><use x="945.508" xlink:href="#DejaVuSans-118"/><use x="1004.688" xlink:href="#DejaVuSans-105"/><use x="1032.471" xlink:href="#DejaVuSans-100"/><use x="1095.947" xlink:href="#DejaVuSans-32"/><use x="1127.734" xlink:href="#DejaVuSans-67"/><use x="1197.559" xlink:href="#DejaVuSans-97"/><use x="1258.838" xlink:href="#DejaVuSans-115"/><use x="1310.938" xlink:href="#DejaVuSans-101"/><use x="1372.461" xlink:href="#DejaVuSans-115"/></g><g id="legend_1"><path d="M128.2 161.015h144.675q3.2 0 3.2-3.2V88.96q0-3.2-3.2-3.2H128.2q-3.2 0-3.2 3.2v68.855q0 3.2 3.2 3.2z" style="fill:none;opacity:.8;stroke:#ccc;stroke-linejoin:miter" id="patch_5"/><path d="M131.4 98.718h32" style="fill:none;stroke:#000;stroke-linecap:round;stroke-width:1.5" id="line2d_4"/><g style="fill:#696969" transform="matrix(.16 0 0 -.16 176.2 104.317)" id="text_17"><defs><path d="M45.406 27.984q0 9.766-4.031 15.125-4.016 5.375-11.297 5.375-7.219 0-11.25-5.375-4.031-5.359-4.031-15.125 0-9.718 4.031-15.093t11.25-5.375q7.281 0 11.297 5.375 4.031 5.375 4.031 15.093zm8.985-21.203q0-13.953-6.203-20.765Q42-20.797 29.203-20.797q-4.734 0-8.937.703-4.203.703-8.157 2.172v8.735q3.954-2.141 7.813-3.157 3.86-1.031 7.86-1.031 8.843 0 13.234 4.61 4.39 4.609 4.39 13.937v4.453q-2.781-4.844-7.125-7.234Q33.938 0 27.875 0 17.828 0 11.672 7.656q-6.156 7.672-6.156 20.328 0 12.688 6.156 20.344Q17.828 56 27.875 56q6.063 0 10.406-2.39 4.344-2.391 7.125-7.22v8.297h8.985z" id="DejaVuSans-103"/></defs><use xlink:href="#DejaVuSans-49"/><use x="63.623" xlink:href="#DejaVuSans-52"/><use x="127.246" xlink:href="#DejaVuSans-100"/><use x="190.723" xlink:href="#DejaVuSans-32"/><use x="222.51" xlink:href="#DejaVuSans-97"/><use x="283.789" xlink:href="#DejaVuSans-118"/><use x="342.969" xlink:href="#DejaVuSans-103"/></g><path d="M131.4 127.802h32v-11.2h-32z" style="fill:#089fff;opacity:.2;stroke:#fff;stroke-linejoin:miter" id="patch_6"/><g style="fill:#696969" transform="matrix(.16 0 0 -.16 176.2 127.802)" id="text_18"><defs><path d="M8.688 72.906h9.921V28.61q0-11.718 4.235-16.875 4.25-5.14 13.781-5.14 9.469 0 13.719 5.14 4.25 5.157 4.25 16.875v44.297H64.5V27.391q0-14.25-7.063-21.532-7.046-7.28-20.812-7.28-13.828 0-20.89 7.28-7.047 7.282-7.047 21.532z" id="DejaVuSans-85"/><path d="M32.172-5.078q-3.797-9.766-7.422-12.735-3.61-2.984-9.656-2.984H7.906v7.516h5.282q3.703 0 5.75 1.765Q21-9.766 23.483-3.219l1.61 4.094-22.11 53.813H12.5l17.094-42.766 17.093 42.766h9.516z" id="DejaVuSans-121"/></defs><use xlink:href="#DejaVuSans-85"/><use x="73.193" xlink:href="#DejaVuSans-110"/><use x="136.572" xlink:href="#DejaVuSans-99"/><use x="191.553" xlink:href="#DejaVuSans-101"/><use x="253.076" xlink:href="#DejaVuSans-114"/><use x="294.189" xlink:href="#DejaVuSans-116"/><use x="333.398" xlink:href="#DejaVuSans-97"/><use x="394.678" xlink:href="#DejaVuSans-105"/><use x="422.461" xlink:href="#DejaVuSans-110"/><use x="485.84" xlink:href="#DejaVuSans-116"/><use x="525.049" xlink:href="#DejaVuSans-121"/></g><path d="M147.4 151.287v-7.7" style="fill:none;stroke:#000;stroke-dasharray:2.25,3.7125;stroke-dashoffset:0;stroke-width:1.5" id="line2d_6"/><g style="fill:#696969" transform="matrix(.16 0 0 -.16 176.2 151.287)" id="text_19"><defs><path d="M19.672 64.797V8.109h11.922q15.093 0 22.093 6.829 7 6.843 7 21.593 0 14.64-7 21.453-7 6.813-22.093 6.813zm-9.86 8.11h20.266q21.188 0 31.094-8.813 9.922-8.813 9.922-27.563 0-18.86-9.969-27.703Q51.172 0 30.078 0H9.813z" id="DejaVuSans-68"/></defs><use xlink:href="#DejaVuSans-68"/><use x="77.002" xlink:href="#DejaVuSans-97"/><use x="138.281" xlink:href="#DejaVuSans-105"/><use x="166.064" xlink:href="#DejaVuSans-108"/><use x="193.848" xlink:href="#DejaVuSans-121"/><use x="253.027" xlink:href="#DejaVuSans-32"/><use x="284.814" xlink:href="#DejaVuSans-67"/><use x="354.639" xlink:href="#DejaVuSans-97"/><use x="415.918" xlink:href="#DejaVuSans-115"/><use x="468.018" xlink:href="#DejaVuSans-101"/><use x="529.541" xlink:href="#DejaVuSans-115"/></g></g></g></g><defs><clipPath id="pe4853e482d"><path d="M117 77.76h725.4v498.96H117z"/></clipPath></defs></svg>