<svg height="864" viewBox="0 0 936 648" width="1248" xmlns="http://www.w3.org/2000/svg" xmlns:xlink="http://www.w3.org/1999/xlink"><defs><style>*{stroke-linecap:butt;stroke-linejoin:round}</style></defs><g id="figure_1"><path d="M0 648h936V0H0z" style="fill:#fff" id="patch_1"/><g id="axes_1"><path d="M117 576.72h725.4V77.76H117z" style="fill:none" id="patch_2"/><path clip-path="url(#p50bce0487d)" d="m149.973 554.039 77.016-.064 9.627-.259 3.21-.209 1.604-.222 1.604-.366 3.21-1.1 1.604-.778 3.209-1.88 1.605-1.326 3.209-3.076 1.604-1.88 1.605-1.643 1.604-1.895 3.21-4.388 3.208-4.828 1.605-2.635 1.604-1.574 3.21-3.723 4.813-4.705 1.604-.982 1.605-.795 1.604-.396 4.814-.662 1.604.074 1.605.618 1.604.026 1.605.325 1.604.444 1.605.276 1.604.085 3.21-.55 1.604.038 6.418.862 1.604-.227 3.21-.173 1.604.5 1.605.167 3.209.887 3.209 1.718 3.209 1.105 1.604.217 1.605.499 1.604.313 1.605.713 1.604.536 1.605.657 1.604.012 1.605.252 1.604.133 4.814.847 1.604.026 1.605-.136 4.813.945 1.605.156 1.604.024 1.605-.149 3.209.01 3.209.664 1.604-.452 1.605-.023 3.209.213 1.604.008 1.605-.379 3.209-.15 1.604-.179 3.21.303 1.604-.378 3.21-1.116 1.604-.196 1.604-.877 1.605-.715 1.604-1.13 1.605-1.5 1.604-1.302 1.605-1.657 1.604-1.847 1.605-1.564 3.209-3.665 3.209-4.41 3.209-4.96 6.418-6.66 1.604-2.072 1.605-1.725 1.604-2.093 3.21-3.385 1.604-2.034 3.209-3.28 1.604-1.856 3.21-2.417 1.604-1.614 3.209-2.19 3.209-1.881 3.209-1.047 3.209.55 3.21.374 1.604.621 1.604.17 1.605.518 4.813 3.283 1.605 1.476 4.813 3.356 1.605.528 1.604 1.107 1.605.9 1.604 1.153 1.605 1.372 1.604.886 1.605.561 3.209 1.717 3.209 1.938 4.813 3.118 1.605 1.489 1.604.624 1.605 1.307 3.209 1.605 1.604 1.19 1.605.566 1.604.802 1.605.096 1.604-.075 1.605.974 1.605-.034 1.604-.283 3.209.47 1.605 1.405 1.604.945 1.605 1.105 1.604.696 1.605-.093 1.604.508 3.21-.03 1.604.446 1.604-.629 1.605.1 1.604.297 1.605.04 1.604-.586 1.605-2.745 3.209-1.537 3.209-1.305 3.209-.696 1.604-.043 1.605-.413 1.604-.258 1.605-.102 1.604-.432 1.605-.55 1.604.119 1.605-.688 1.604-.505 3.21-2.088 1.604-.403 1.604-.826 1.605-.69 3.209-1.968 4.814-4.943 1.604-.459 1.605-1.182 1.604-.279 1.605-1.635 1.604-1.034 1.605-1.728 3.209-4.91 1.604-1.377 1.605-2.454 1.604-1.843 1.605-2.031 1.604-2.333 8.023-13.603 3.209-8.302 3.209-8.746 1.604-4.03 1.605-5.144 4.813-18.378 1.605-7.525 1.604-6.898 1.605-5.623 3.209-13.07 4.813-18.109 1.605-4.242 1.604-3.45 1.605-4.544 3.209-7 1.605 5.6 1.604-2.249 1.605.727 3.209-.227 1.604-2.085 3.21-5.456 4.813-8.989 1.604-2.264 3.21-7.47 1.604-11.278 1.604-6.885 1.605-5.188 1.604-4.412 1.605-3.068 1.604-1.725 1.605-4.041 3.209-3.734 1.604 1.084 1.605-.723 1.604.247 1.605 1.68 1.604-.742 1.605 2.92 1.604 16.556 1.605-.869 1.604 2.962 1.605 1.112 1.604.173 1.605 1.477 1.604.681 1.605 9.585 1.604-8.985 1.605-2.03 1.605-4.642 1.604-3.076 1.605-2.579 1.604-7.995 1.605-18.406 1.604-3.251 1.605-5.185 1.604-3.123 1.605-2.637 1.604-.028 1.605-.697 1.604-8.636 1.605 8.272 1.604 2.982 1.605 10.077 1.604 4.606 1.605 6.346 1.604 8.31 1.605 10.038 3.209 15.027 1.604 6.198 3.21 13.99 4.813 19.948 1.604 5.173 1.605.257 4.813 18.285 3.21 11.532 1.604 3.89 1.604 5.8 1.605 5.083 4.813 17.192 3.21 9.112 1.604 7.788 4.814 14.506 1.604 4.751 1.605 3.255 3.209 6.034 1.604 2.275 1.605 1.916 1.604 2.562 3.21 3.995 1.604 1.191 1.604-.12 1.605.608 3.209.73 3.209 2.348 1.604 1.37h0" style="fill:none;stroke:#000;stroke-linecap:round;stroke-width:1.5" id="line2d_1"/><path clip-path="url(#p50bce0487d)" d="m149.973 554.04 81.83-.099 4.813-.235 3.21-.579 1.604-.538 1.604-1.046 1.605-.542 1.604-1.498 1.605-1.963 1.604-3.15 1.605-2.818 1.605-2.449 1.604-8.407 1.605-6.568 3.209-15.373 1.604-10.806 1.605-6.704 1.604-11.582 1.605-10.311 1.604-14.117 1.605-12.907 3.209-18.592 1.604-8.5 1.605-7.814 1.604-3.801 1.605-5.492 1.604-4.306 1.605-4.895 1.604 1.758 1.605-7.426 1.604 4.609 1.605-3.243 1.604 3.934 1.605 4.347 1.604-1.703 1.605.272 1.604-.868 1.605-1.557 1.604-1.82 1.605 4.613 1.604.804 1.605.627 1.604 1.99 1.605 5.354 1.604-.688 1.605 6.47 1.604 2.084 1.605 1.451 1.604 2.91 1.605 6.744 1.605 4.282 1.604 7.43 1.605 8.104 1.604 1.321 1.605 5.778 1.604 7.044 1.605 2.51 1.604 6.371 1.605 5.42 1.604 4.237 3.21 9.13 1.604 6.07 1.604-.613 1.605 4.599 1.604-.304 1.605 2.29 1.604 1.948 1.605 4.245 1.604 1.352 1.605 1.618 1.604.43 3.21-.307 1.604.586 3.209 2.82 1.604 4.197 1.605 1.182 1.604 2.94 1.605 2.081 1.604 1.502 1.605-.586 1.604 2.654 1.605 2.061 1.604 1.27 1.605 1.07 3.209 4.763 1.604 1.1 1.605 1.91 1.605.856 1.604 1.035 1.605.838 1.604.198 1.605 1.42 1.604.747 1.605-.126 1.604.204 1.605-.068 1.604 1.335 1.605-5.75 1.604-.136 1.605.518 1.604-.113 1.605.45 1.604-.245 1.605.054 3.209-.078 1.604.16 1.605-.208 3.209.395 1.604-.32 1.605 6.564 1.604.102 3.21-.245 1.604-.456 1.604.006 1.605-.439 1.604.705 1.605 1.145 1.604.095 1.605 1.363 1.604.099 1.605-.09 1.604-.282 1.605-.037 1.604-.34 4.814-1.953 1.605-.306 1.604-.123 1.605.065 1.604-2.18 1.605-.362 1.604-1.199 3.21-.5h1.604l1.604-.45 1.605.334 3.209 1.042 1.604.65 1.605.134 1.604-.079 1.605-1.54 3.209.72 1.604 1.049 1.605-.164 3.209.14 1.604.933 1.605.239 1.604-.549 1.605.668 1.604.112 1.605.484 1.604.725 1.605 1.19 1.604.722 1.605-.242 1.604-.947 1.605-.126 3.209.04 1.605-.947 1.604-.541 1.605.695 1.604-.555 1.605-.365 1.604.085 3.21-.715 3.208-.736 3.21.03 3.208-.64 1.605-.65 1.604-.13 3.21-.947 1.604-.204 1.604-.508 1.605-.269 1.604-.477 1.605-.252 1.604-1.025 1.605-1.366 1.604-.767 1.605-.068 1.604-1.083 1.605-.153 1.604-.862 1.605-1.656 1.604-.59 1.605-.404 1.604-.692 1.605-.344 1.604-2.5 1.605-1.08 1.604-.389 1.605-.18 1.604.306 1.605-1.812 1.605-.787 1.604-1.216 1.605-.238 1.604.044 3.21-4.53 1.604-1.223 1.604-1.775 1.605.463 1.604-.613 1.605-3.56 1.604-1.288 1.605-2.544 1.604-2.245 1.605-2.49 1.604-1.973 1.605-3.972 3.209-3.055 1.604-.6 1.605-2.847 1.604-4.814 1.605-2.725 1.604-3.802 1.605-4.404 3.209-5.88 1.604-7.256 1.605-4.752 1.604-6.615 1.605-4.84 3.209-19.707 1.604-2.899 1.605-7.501 1.604-5.488 1.605-7.562 3.209-9.988 1.604-6.66 1.605-5.188 1.605-1.696 3.209-6.728 1.604-2.378 1.605 1.877 1.604 2.381 1.605-3.307 1.604-1.976 1.605-.848 1.604-2.082 1.605-6.939 1.604-2.231 1.605-7.024 1.604.061 1.605-4.091 1.604-1.376 1.605-2.204 1.604 1.516 1.605-8.305 1.604-1.073 1.605-5.478 1.604 2.18 1.605-4.762 1.604 1.833 1.605 6.019 1.604 3.86 1.605 2.912 1.604 1.335 1.605 2.974 1.604-1.179 1.605 1.418 1.604-4.804 1.605 7.634 1.604 6.248 1.605 6.997 1.604 1.052 1.605 3.349 1.604-2.865 1.605-5.467 1.604-4.497 1.605 5.127 1.605-163.242 1.604-5.658 1.605-3.553 1.604-9.453 1.605-6.68 3.209-22.953 1.604-8.833 1.605-3.165 1.604-10.764 1.605-6.8 1.604-2.943 1.605-1.662 1.604-4.994 1.605 160.919 1.604 5.576 1.605 1.407 1.604 8.281 1.605 9.61 1.604.896 1.605 1.274 1.604 4.067 1.605-.647 1.604 10.45 1.605 7.993 1.604 1.29 1.605 2.47 1.604 2.889 1.605 1.151 1.604 5.032 1.605 10.655 1.604 5.992 1.605-.095 1.604 8.986 1.605 3.202 1.604 5.39 1.605 4.084 1.604 1.498 1.605 3.714 1.604 7.678 1.605 5.167 3.209 14.274 1.605-1.646 1.604-6.125 1.605.045 1.604 4.026 1.605 5.56 1.604 7.838 1.605-.487 1.604 1.427 1.605 4.265 1.604.276 1.605-.467 1.604-1.288 1.605-.756 1.604-5.78 1.605 1.171 1.604 1.424 1.605.283 1.604-2.221 1.605-2.875 1.604-1.666h0" style="fill:none;stroke:#009e73;stroke-linecap:round;stroke-width:1.5" id="line2d_2"/><path clip-path="url(#p50bce0487d)" d="m149.973 554.04 73.807-.097 4.814-.13 4.813-.325 1.605-.454 1.604-.033 1.605-.94 1.604-.747 1.605-1.558 1.604-5.29 1.605-1.429 1.604-.649 1.605-3.051 1.604-4.9 1.605-2.922 1.605-3.7 1.604-12.496 1.605-9.575 3.209-21.064 1.604-9.218 1.605-13.113 1.604-17.397 1.605-14.313 1.604-23.434 1.605-28.367 1.604-10.776 1.605-16.975 1.604-18.792 1.605-7.238 1.604-2.662 1.605-9.282 1.604-3.278 1.605-2.954 1.604.162 1.605 3.019 1.604 5.29 1.605 1.428 1.604 10.16 1.605 19.279 1.604-1.59 1.605 9.834 1.604 10.58 1.605.358 1.604 3.44 1.605 8.796 1.604 1.915 1.605 6.329 1.604 5.485 1.605 6.07 1.604 7.367 1.605 12.886 1.604 7.595 1.605 5.063 3.209 17.527 1.605 5.42 3.209 17.656 1.604 6.946 1.605 9.088 1.604 3.31 1.605 1.299 1.604 2.726 1.605 4.415 1.604 7.594 1.605 3.408 3.209 6.135 1.604-.033 1.605 3.733 1.604 2.077 1.605.779 1.604.974 1.605 2.596 1.604-.357 3.21.098 1.604-.033 1.604-6.653 1.605 1.622 1.604 2.045 1.605 1.753 1.604 2.207 1.605 1.038 1.604-1.525 1.605 1.071 1.604.487 1.605-.454 1.604 3.765 1.605 2.304 1.604.876 1.605-1.103 1.604 2.694 1.605 1.33 1.604-2.401 1.605 1.558h1.605l1.604-.714 1.605.519 1.604.357 1.605 1.2h1.604l1.605.195 1.604-.032 1.605.097 1.604 2.143 1.605-9.12 1.604-2.37 1.605 1.655 1.604-2.142 1.605.292 3.209.325 1.604-.195 1.605-1.298 1.604-.033 1.605-1.59 1.604-.098 1.605.357 1.604-.908 1.605 9.185 1.604 1.33 1.605-.291 1.604 1.785 1.605.032 1.604 1.039 3.21.324 1.604 1.364 1.604.551 1.605 2.013 1.604-.78 1.605.098 3.209.974 1.604.876 3.21-.65 1.604-1.103 1.605-1.46 1.604-.844 1.605.065 1.604-1.428 1.605-.292 1.604-.844 1.605.746 1.604-1.266 1.605.52 3.209.26 1.604-.877 1.605-.292 3.209 1.46 1.604.325 1.605-.649 1.604-1.883 1.605-1.298 3.209-3.213 1.604 1.006 1.605.844 1.604 2.467 1.605.13 1.604.746 1.605 1.071 1.604.162 3.21-.357 1.604.747 1.604 3.18 1.605.52 3.209 2.5 1.604-1.267 1.605-.844 1.605-2.564 1.604-.227 1.605 1.006 1.604-.746 1.605-.065 1.604.487 1.605.324 1.604-.13 1.605-.357 1.604 1.169 1.605.195 1.604.454 1.605 1.98 1.604-.162 1.605-.78 1.604-.13 1.605-.746 1.604.325 1.605-.033 1.604-.843 1.605.13 1.604-.195 1.605.13 1.604-.715 1.605-.389 1.604-.13 1.605-.974 1.604-.13 1.605-.389 1.604-.714 1.605-1.071 1.604-.617 1.605-.357 1.604.033 1.605-.812 1.604-1.785 3.21-2.888 1.604-.747 1.604-.487 1.605-2.207 3.209-2.207 1.605-.65 1.604-.356 1.605-1.85 1.604-2.175 1.605-1.525 1.604-2.337 1.605-.747 1.604-.486 1.605-2.37 1.604-1.72 1.605-2.37 1.604-1.46 1.605-.876 1.604-1.071 1.605-4.35 3.209-3.96 1.604-1.427 1.605-2.435 1.604-3.018 1.605.032 1.604-4.057 1.605-5.94 1.604-2.953 1.605-.487 1.604-4.998 1.605-7.206 1.604-8.795 1.605-4.642 3.209-16.098 1.604-1.136 3.21-13.795 1.604-10.938 1.604-4.154 1.605-3.538 1.604-6.296 1.605-8.374 1.605-1.136 1.604-.584 1.605-.26 1.604-6.362 1.605 5.745 3.209-6.491 1.604-2.11 1.605.747 1.604-1.883 1.605-8.893 1.604-2.24 1.605-4.511 1.604 1.947 1.605-1.266 1.604 1.818 1.605-.26 1.604 8.504 1.605-10.354 1.604 4.285 1.605-3.506 1.604 3.863 1.605-.844 1.604 4.317 1.605 7.173 1.604 5.193 1.605 5.68 1.604 2.694 1.605 1.233 1.604-5.972 1.605-1.169 1.604-4.966 1.605 7.498 3.209 9.218 1.604.811 1.605.422 1.604-5.485 3.21-5.193 1.604 2.207 1.605-141.902 1.604-9.607 1.605-4.9 1.604-6.525 1.605-7.79 3.209-19.311 1.604-3.7 1.605-1.233 1.604-10.744 1.605-6.88 3.209-7.109 1.604-5.842 1.605 140.928 1.604 4.836 1.605 1.33 1.604 4.934 1.605 10.419 1.604-2.24 1.605 1.59 1.604.747 1.605-3.505 1.604 8.276 1.605 7.66 1.604 3.7 1.605.714 1.604 2.045 1.605-2.434 1.604 5.874 1.605 11.393 1.604 3.278 1.605-4.804 1.604 5.81 1.605 1.72 1.604 2.857 1.605 4.576 1.604 1.233 1.605 3.798 1.604 2.888 1.605 3.408 1.605 5.258 1.604 6.784 1.605-6.719 1.604-5.03 1.605 1.395 1.604 6.427 1.605 4.251 1.604 6.524 3.21-6.653 1.604 2.272 1.604-2.727 1.605-4.674 1.604-.486 1.605.26 1.604-11.555 1.605 3.408 1.604-4.187 1.605-.52 1.604-5.095 1.605 4.316 1.604-3.375h0" style="fill:none;stroke:#d55e00;stroke-linecap:round;stroke-width:1.5" id="line2d_3"/><path clip-path="url(#p50bce0487d)" d="M149.973 554.04h91.457l1.604-3.306h3.21l1.604-1.653h1.604l3.21-9.919 1.604-9.918 1.605-1.653 1.604-4.96 1.605-3.306 1.604-8.265 1.605-13.225 1.604-11.571h1.605l1.604-9.919 1.605-26.45 1.604-16.53 1.605-4.96 1.604-3.305h1.605l1.604-6.613 1.605-9.918 1.604 1.653 1.605 3.306 1.604-1.653 1.605 6.612 1.604 4.96 1.605-4.96 1.604 1.653 1.605 21.49 1.604 18.184 1.605-3.306 1.604 3.306 1.605-3.306 1.604 8.266h4.814l1.604 1.653 1.605 6.612 4.813 9.918h3.21l1.604 8.266 1.605 4.96 3.209 16.53 1.604 9.918 1.605 3.307h1.604l1.605 1.653 1.604-6.613 1.605 1.653 3.209 6.613 1.604 4.959h3.21l1.604-1.653h3.209l1.604 1.653h3.21l1.604 6.612 1.604 4.96 3.21 3.306 1.604-1.653h3.209l1.604-4.96h12.836l1.605-1.653h1.604l1.605 1.653h3.209l1.605 4.96h9.627l1.604-3.306 1.605 1.653h1.604l1.605-1.653h4.813l1.605-6.613 1.604 1.653 1.605-1.653h6.418l1.604-6.612 1.605-1.653 1.604 1.653h1.605l1.604-1.653h3.21l1.604 3.306 1.604-1.653 1.605 1.653h6.418l1.604 9.918 1.605-3.306 1.604-1.653h1.605l1.604 3.306h3.21l3.209 3.307h1.604l1.605-1.654h4.813l1.605-1.653 1.604 4.96h1.605l1.604 1.653h4.814l1.604 1.653h1.605l1.604-1.653 1.605 1.653 1.604-1.653h6.418l1.605 1.653 3.209-3.306h4.813l1.605-3.307h1.604l1.605-1.653 1.604 1.653h6.418l1.605-6.612 3.209 3.306h4.814l1.604-1.653 3.21 3.306h8.022l1.604 3.307 1.605-1.654h4.813l1.605-4.959 1.604 4.96 1.605-1.654h6.418l1.604 1.653h1.605l1.604 3.307 1.605 1.653h4.813l1.605 1.653 1.604-1.653 1.605-6.613 1.604-14.877 1.605-3.307h3.209l1.604-3.306 1.605-9.918 1.605-1.653 3.209-16.531 3.209-9.919h1.604l3.21 3.307 1.604 14.877 1.604 3.306h3.21l1.604-6.612 1.604 3.306 1.605-6.612h3.209l3.209 9.918 1.604-16.53 1.605-1.653 3.209-9.919 1.604-8.265h3.21l1.604-21.49h1.604l1.605 8.265 1.604-19.837 1.605-3.306h3.209l1.604-6.612 1.605-18.184 3.209-16.531 1.604-14.878 1.605-8.265h1.604l1.605 8.265 1.605-6.612 1.604-9.919 1.605 28.103 1.604 11.571 1.605-33.061h1.604l1.605 3.306 1.604 8.265L657 377.16l1.604-13.224 1.605-16.531 1.604-9.919h1.605l1.604 4.96 1.605-6.613 1.604 1.653 1.605-29.755 1.604-14.878 1.605 33.062h3.209l1.604-3.306 1.605 6.612 1.604 26.45 1.605 11.57 1.604 18.185h1.605l1.604-26.45 1.605 8.266 1.604-36.368 1.605 21.49 1.604 14.878h3.21l1.604-26.45 1.604 6.613 1.605-19.837 1.604-18.184 1.605 28.102h3.209l1.605-9.918 1.604-18.184 1.605 21.49 1.604-16.53 1.605-19.838 1.604-16.53h1.605l1.604 13.224 1.605-9.918 1.604 6.612 1.605 1.653 1.604-16.53h3.21l1.604 54.55 1.604-4.958 1.605 6.612 1.604 18.184 1.605 14.878 1.604 16.53h1.605l1.604-14.877 1.605 11.571 1.604 14.878 1.605 6.612 1.604-9.918 1.605-8.266h3.209l1.604 34.715 1.605-26.45 3.209-13.224h3.209l1.604 24.796 1.605-4.959 1.604 1.653h1.605l1.604 18.184 1.605-3.306h3.209l1.605-23.143 1.604 34.714 1.605 8.266 1.604 3.306h1.605l1.604-11.572 1.605 19.837 3.209 3.307 1.604-11.572 1.605-6.612 1.604 11.571h1.605l1.604-26.449 1.605 6.612 1.604-1.653h1.605l1.604-14.877h1.605l1.604 11.571h0" style="fill:none;stroke:#0072b2;stroke-linecap:round;stroke-width:1.5" id="line2d_4"/><path d="M117 576.72V77.76" style="fill:none;stroke:#d3d3d3;stroke-linecap:square;stroke-linejoin:miter;stroke-width:1.25" id="patch_3"/><path d="M117 576.72h725.4" style="fill:none;stroke:#d3d3d3;stroke-linecap:square;stroke-linejoin:miter;stroke-width:1.25" id="patch_4"/><g id="matplotlib.axis_1"><g id="xtick_1"><g style="fill:#696969" transform="matrix(.16 0 0 -.16 105.55 598.378)" id="text_1"><defs><path d="M9.813 72.906h9.859V5.078q0-13.187-5-19.14-5-5.954-16.094-5.954h-3.75v8.297h3.078q6.531 0 9.219 3.672Q9.813-4.39 9.813 5.078z" id="DejaVuSans-74"/><path d="M34.281 27.484q-10.89 0-15.093-2.484-4.204-2.484-4.204-8.5 0-4.781 3.157-7.594 3.156-2.797 8.562-2.797 7.485 0 12 5.297 4.516 5.297 4.516 14.078v2zm17.922 3.72V0H43.22v8.297Q40.14 3.328 35.547.953q-4.594-2.375-11.234-2.375-8.391 0-13.36 4.719Q6 8.016 6 15.922q0 9.219 6.172 13.906 6.187 4.688 18.437 4.688h12.61v.89q0 6.203-4.078 9.594-4.078 3.39-11.453 3.39-4.688 0-9.141-1.124-4.438-1.125-8.531-3.375v8.312q4.921 1.906 9.562 2.844 4.64.953 9.031.953 11.875 0 17.735-6.156 5.86-6.14 5.86-18.64z" id="DejaVuSans-97"/><path d="M54.89 33.016V0h-8.984v32.719q0 7.765-3.031 11.61-3.031 3.858-9.078 3.858-7.281 0-11.484-4.64-4.204-4.625-4.204-12.64V0H9.08v54.688h9.03v-8.5q3.235 4.937 7.594 7.374Q30.078 56 35.797 56q9.422 0 14.25-5.828 4.844-5.828 4.844-17.156z" id="DejaVuSans-110"/></defs><use xlink:href="#DejaVuSans-74"/><use x="29.492" xlink:href="#DejaVuSans-97"/><use x="90.771" xlink:href="#DejaVuSans-110"/></g></g><g id="xtick_2"><g style="fill:#696969" transform="matrix(.16 0 0 -.16 199.06 598.378)" id="text_2"><defs><path d="M9.813 72.906h14.703l18.593-49.61 18.703 49.61h14.704V0H66.89v64.016l-18.797-50h-9.907l-18.796 50V0H9.813z" id="DejaVuSans-77"/><path d="M41.11 46.297q-1.516.875-3.297 1.281Q36.03 48 33.89 48q-7.625 0-11.703-4.953-4.079-4.953-4.079-14.234V0H9.08v54.688h9.03v-8.5q2.844 4.984 7.375 7.39Q30.031 56 36.531 56q.922 0 2.047-.125 1.125-.11 2.484-.36z" id="DejaVuSans-114"/></defs><use xlink:href="#DejaVuSans-77"/><use x="86.279" xlink:href="#DejaVuSans-97"/><use x="147.559" xlink:href="#DejaVuSans-114"/></g></g><g id="xtick_3"><g style="fill:#696969" transform="matrix(.16 0 0 -.16 295.488 598.378)" id="text_3"><defs><path d="M32.172-5.078q-3.797-9.766-7.422-12.735-3.61-2.984-9.656-2.984H7.906v7.516h5.282q3.703 0 5.75 1.765Q21-9.766 23.483-3.219l1.61 4.094-22.11 53.813H12.5l17.094-42.766 17.093 42.766h9.516z" id="DejaVuSans-121"/></defs><use xlink:href="#DejaVuSans-77"/><use x="86.279" xlink:href="#DejaVuSans-97"/><use x="147.559" xlink:href="#DejaVuSans-121"/></g></g><g id="xtick_4"><g style="fill:#696969" transform="matrix(.16 0 0 -.16 400.251 598.378)" id="text_4"><defs><path d="M8.5 21.578v33.11h8.984V21.922q0-7.766 3.016-11.656 3.031-3.875 9.094-3.875 7.265 0 11.484 4.64 4.234 4.64 4.234 12.656v31h8.985V0h-8.984v8.406Q42.047 3.422 37.718 1q-4.313-2.422-10.032-2.422-9.421 0-14.312 5.86Q8.5 10.296 8.5 21.578zM31.11 56z" id="DejaVuSans-117"/><path d="M9.422 75.984h8.984V0H9.422z" id="DejaVuSans-108"/></defs><use xlink:href="#DejaVuSans-74"/><use x="29.492" xlink:href="#DejaVuSans-117"/><use x="92.871" xlink:href="#DejaVuSans-108"/></g></g><g id="xtick_5"><g style="fill:#696969" transform="matrix(.16 0 0 -.16 494.303 598.378)" id="text_5"><defs><path d="M53.516 70.516V60.89q-5.61 2.687-10.594 4-4.984 1.328-9.625 1.328-8.047 0-12.422-3.125t-4.375-8.89q0-4.845 2.906-7.313 2.907-2.453 11.016-3.97l5.953-1.218q11.031-2.11 16.281-7.406 5.25-5.297 5.25-14.172 0-10.61-7.11-16.078-7.093-5.469-20.812-5.469-5.172 0-11.015 1.172Q13.14.922 6.89 3.219v10.156q6-3.36 11.765-5.078 5.766-1.703 11.328-1.703 8.438 0 13.032 3.312 4.593 3.328 4.593 9.485 0 5.359-3.297 8.39-3.296 3.032-10.812 4.547L27.484 33.5q-11.03 2.188-15.968 6.875-4.922 4.688-4.922 13.047 0 9.672 6.812 15.234 6.813 5.563 18.766 5.563 5.14 0 10.453-.938 5.328-.922 10.89-2.765z" id="DejaVuSans-83"/><path d="M56.203 29.594v-4.39H14.891q.593-9.282 5.593-14.142 5-4.859 13.938-4.859 5.172 0 10.031 1.266 4.86 1.265 9.656 3.812v-8.5Q49.266.734 44.187-.344 39.11-1.422 33.892-1.422q-13.094 0-20.735 7.61-7.64 7.625-7.64 20.625 0 13.421 7.25 21.296Q20.016 56 32.328 56q11.031 0 17.453-7.11 6.422-7.093 6.422-19.296zm-8.984 2.64q-.094 7.36-4.125 11.75-4.032 4.407-10.672 4.407-7.516 0-12.031-4.25-4.516-4.25-5.203-11.97z" id="DejaVuSans-101"/><path d="M18.11 8.203v-29H9.077v75.484h9.031v-8.296q2.844 4.875 7.157 7.234Q29.594 56 35.594 56q9.968 0 16.187-7.906 6.235-7.907 6.235-20.797T51.78 6.484q-6.218-7.906-16.187-7.906-6 0-10.328 2.375-4.313 2.375-7.157 7.25zm30.578 19.094q0 9.906-4.079 15.547-4.078 5.64-11.203 5.64-7.14 0-11.218-5.64-4.079-5.64-4.079-15.547 0-9.906 4.078-15.547 4.079-5.64 11.22-5.64 7.124 0 11.202 5.64t4.078 15.547z" id="DejaVuSans-112"/></defs><use xlink:href="#DejaVuSans-83"/><use x="63.477" xlink:href="#DejaVuSans-101"/><use x="125" xlink:href="#DejaVuSans-112"/></g></g><g id="xtick_6"><g style="fill:#696969" transform="matrix(.16 0 0 -.16 591.644 598.378)" id="text_6"><defs><path d="M9.813 72.906h13.28l32.329-60.984v60.984h9.562V0h-13.28L19.39 60.984V0H9.813z" id="DejaVuSans-78"/><path d="M30.61 48.39q-7.22 0-11.422-5.64-4.204-5.64-4.204-15.453 0-9.813 4.172-15.453 4.188-5.64 11.453-5.64 7.188 0 11.375 5.655 4.203 5.672 4.203 15.438 0 9.719-4.203 15.406-4.187 5.688-11.375 5.688zm0 7.61q11.718 0 18.406-7.625 6.703-7.61 6.703-21.078 0-13.422-6.703-21.078-6.688-7.64-18.407-7.64-11.765 0-18.437 7.64-6.656 7.656-6.656 21.078 0 13.469 6.656 21.078Q18.844 56 30.609 56z" id="DejaVuSans-111"/><path d="M2.984 54.688H12.5L29.594 8.797l17.093 45.89h9.516L35.687 0H23.485z" id="DejaVuSans-118"/></defs><use xlink:href="#DejaVuSans-78"/><use x="74.805" xlink:href="#DejaVuSans-111"/><use x="135.986" xlink:href="#DejaVuSans-118"/></g></g><g id="xtick_7"><g style="fill:#696969" transform="matrix(.16 0 0 -.16 692.801 598.378)" id="text_7"><use xlink:href="#DejaVuSans-74"/><use x="29.492" xlink:href="#DejaVuSans-97"/><use x="90.771" xlink:href="#DejaVuSans-110"/></g></g><g id="xtick_8"><g style="fill:#696969" transform="matrix(.16 0 0 -.16 784.706 598.378)" id="text_8"><use xlink:href="#DejaVuSans-77"/><use x="86.279" xlink:href="#DejaVuSans-97"/><use x="147.559" xlink:href="#DejaVuSans-114"/></g></g></g><g id="matplotlib.axis_2"><g id="ytick_1"><g style="fill:#696969" transform="matrix(.16 0 0 -.16 97.32 560.119)" id="text_9"><defs><path d="M31.781 66.406q-7.61 0-11.453-7.5Q16.5 51.422 16.5 36.375q0-14.984 3.828-22.484 3.844-7.5 11.453-7.5 7.672 0 11.5 7.5 3.844 7.5 3.844 22.484 0 15.047-3.844 22.531-3.828 7.5-11.5 7.5zm0 7.813q12.266 0 18.735-9.703 6.468-9.688 6.468-28.141 0-18.406-6.468-28.11-6.47-9.687-18.735-9.687-12.25 0-18.718 9.688-6.47 9.703-6.47 28.109 0 18.453 6.47 28.14Q19.53 74.22 31.78 74.22z" id="DejaVuSans-48"/></defs><use xlink:href="#DejaVuSans-48"/></g></g><g id="ytick_2"><g style="fill:#696969" transform="matrix(.16 0 0 -.16 87.14 475.401)" id="text_10"><defs><path d="M19.188 8.297h34.421V0H7.33v8.297q5.609 5.812 15.296 15.594 9.703 9.797 12.188 12.64 4.734 5.313 6.609 9 1.89 3.688 1.89 7.25 0 5.813-4.078 9.469-4.078 3.672-10.625 3.672-4.64 0-9.797-1.61-5.14-1.609-11-4.89v9.969Q13.767 71.78 18.938 73q5.188 1.219 9.485 1.219 11.328 0 18.062-5.672 6.735-5.656 6.735-15.125 0-4.5-1.688-8.531-1.672-4.016-6.125-9.485-1.218-1.422-7.765-8.187-6.532-6.766-18.453-18.922z" id="DejaVuSans-50"/></defs><use xlink:href="#DejaVuSans-50"/><use x="63.623" xlink:href="#DejaVuSans-48"/></g></g><g id="ytick_3"><g style="fill:#696969" transform="matrix(.16 0 0 -.16 87.14 390.683)" id="text_11"><defs><path d="M37.797 64.313 12.89 25.39h24.906zm-2.594 8.593H47.61V25.391h10.407v-8.203H47.609V0h-9.812v17.188H4.89v9.515z" id="DejaVuSans-52"/></defs><use xlink:href="#DejaVuSans-52"/><use x="63.623" xlink:href="#DejaVuSans-48"/></g></g><g id="ytick_4"><g style="fill:#696969" transform="matrix(.16 0 0 -.16 87.14 305.965)" id="text_12"><defs><path d="M33.016 40.375q-6.641 0-10.532-4.547-3.875-4.531-3.875-12.437 0-7.86 3.875-12.438 3.891-4.562 10.532-4.562 6.64 0 10.515 4.562 3.875 4.578 3.875 12.438 0 7.906-3.875 12.437-3.875 4.547-10.515 4.547zm19.578 30.922v-8.984q-3.719 1.75-7.5 2.671-3.782.938-7.5.938-9.766 0-14.922-6.594-5.14-6.594-5.875-19.922 2.875 4.25 7.219 6.516 4.359 2.266 9.578 2.266 10.984 0 17.36-6.672 6.374-6.657 6.374-18.125 0-11.235-6.64-18.032-6.641-6.78-17.672-6.78-12.657 0-19.344 9.687-6.688 9.703-6.688 28.109 0 17.281 8.204 27.563 8.203 10.28 22.015 10.28 3.719 0 7.5-.734t7.89-2.187z" id="DejaVuSans-54"/></defs><use xlink:href="#DejaVuSans-54"/><use x="63.623" xlink:href="#DejaVuSans-48"/></g></g><g id="ytick_5"><g style="fill:#696969" transform="matrix(.16 0 0 -.16 87.14 221.248)" id="text_13"><defs><path d="M31.781 34.625q-7.031 0-11.062-3.766-4.016-3.765-4.016-10.343 0-6.594 4.016-10.36Q24.75 6.391 31.78 6.391q7.032 0 11.078 3.78 4.063 3.798 4.063 10.345 0 6.578-4.031 10.343-4.016 3.766-11.11 3.766zm-9.86 4.188q-6.343 1.562-9.89 5.906Q8.5 49.079 8.5 55.329q0 8.733 6.219 13.812 6.234 5.078 17.062 5.078 10.89 0 17.094-5.078 6.203-5.079 6.203-13.813 0-6.25-3.547-10.61-3.531-4.343-9.828-5.906 7.125-1.656 11.094-6.5 3.984-4.828 3.984-11.796 0-10.61-6.468-16.282-6.47-5.656-18.532-5.656-12.047 0-18.531 5.656-6.469 5.672-6.469 16.282 0 6.968 4 11.797 4.016 4.843 11.14 6.5zM18.314 54.39q0-5.657 3.53-8.828 3.548-3.172 9.938-3.172 6.36 0 9.938 3.172 3.593 3.171 3.593 8.828 0 5.672-3.593 8.843-3.578 3.172-9.938 3.172-6.39 0-9.937-3.172-3.532-3.172-3.532-8.843z" id="DejaVuSans-56"/></defs><use xlink:href="#DejaVuSans-56"/><use x="63.623" xlink:href="#DejaVuSans-48"/></g></g><g id="ytick_6"><g style="fill:#696969" transform="matrix(.16 0 0 -.16 76.96 136.53)" id="text_14"><defs><path d="M12.406 8.297h16.11v55.625l-17.532-3.516v8.985l17.438 3.515h9.86V8.296H54.39V0H12.406z" id="DejaVuSans-49"/></defs><use xlink:href="#DejaVuSans-49"/><use x="63.623" xlink:href="#DejaVuSans-48"/><use x="127.246" xlink:href="#DejaVuSans-48"/></g></g><g style="fill:#696969" transform="matrix(0 -.2 -.2 0 68.8 379.813)" id="text_15"><defs><path d="M51.125 44H36.922l-4.11-16.313h14.313zm-7.328 27.781-5.078-20.265h14.265L58.11 71.78h7.813L60.89 51.516h15.234V44h-17.14l-4-16.313h15.53V20.22H53.079L48 0h-7.813l5.032 20.219H30.906L25.875 0h-7.86l5.079 20.219H7.719v7.468h17.187L29 44H13.281v7.516h17.625l4.985 20.265z" id="DejaVuSans-35"/><path d="M37.11 75.984V68.5h-8.594q-4.828 0-6.72-1.953-1.874-1.953-1.874-7.031v-4.828h14.797v-6.985H19.922V0H10.89v47.703H2.297v6.984h8.594V58.5q0 9.125 4.25 13.297 4.25 4.187 13.468 4.187z" id="DejaVuSans-102"/><path d="M48.781 52.594v-8.407q-3.812 2.11-7.64 3.157-3.828 1.047-7.735 1.047-8.75 0-13.593-5.547-4.829-5.532-4.829-15.547 0-10.016 4.829-15.563 4.843-5.53 13.593-5.53 3.907 0 7.735 1.046 3.828 1.047 7.64 3.156V2.094Q45.016.344 40.984-.531q-4.015-.89-8.562-.89-12.36 0-19.64 7.765-7.266 7.765-7.266 20.953 0 13.375 7.343 21.031Q20.22 56 33.016 56q4.14 0 8.093-.86 3.953-.843 7.672-2.546z" id="DejaVuSans-99"/><path d="M44.281 53.078v-8.5q-3.797 1.953-7.906 2.922-4.094.984-8.5.984-6.688 0-10.031-2.047-3.344-2.046-3.344-6.156 0-3.125 2.39-4.906 2.391-1.781 9.626-3.39l3.078-.688q9.562-2.047 13.593-5.781 4.032-3.735 4.032-10.422 0-7.625-6.032-12.078-6.03-4.438-16.578-4.438-4.39 0-9.156.86Q10.688.296 5.422 2v9.281q4.984-2.594 9.812-3.89 4.829-1.282 9.579-1.282 6.343 0 9.75 2.172 3.421 2.172 3.421 6.125 0 3.656-2.468 5.61-2.453 1.953-10.813 3.765l-3.125.735q-8.344 1.75-12.062 5.39-3.704 3.64-3.704 9.985 0 7.718 5.47 11.906Q16.75 56 26.811 56q4.97 0 9.36-.734 4.406-.72 8.11-2.188z" id="DejaVuSans-115"/></defs><use xlink:href="#DejaVuSans-35"/><use x="83.789" xlink:href="#DejaVuSans-32"/><use x="115.576" xlink:href="#DejaVuSans-111"/><use x="176.758" xlink:href="#DejaVuSans-102"/><use x="211.963" xlink:href="#DejaVuSans-32"/><use x="243.75" xlink:href="#DejaVuSans-99"/><use x="298.73" xlink:href="#DejaVuSans-97"/><use x="360.01" xlink:href="#DejaVuSans-115"/><use x="412.109" xlink:href="#DejaVuSans-101"/><use x="473.633" xlink:href="#DejaVuSans-115"/></g></g><g style="fill:#696969" transform="matrix(.24 0 0 -.24 202.252 71.76)" id="text_16"><defs><path d="M4.203 54.688h8.985l11.234-42.672 11.172 42.672h10.593l11.235-42.672 11.187 42.672h8.985L63.28 0H52.688L40.922 44.828 29.109 0H18.5z" id="DejaVuSans-119"/><path d="M64.406 67.281v-10.39q-4.984 4.64-10.625 6.922-5.64 2.296-11.984 2.296-12.5 0-19.14-7.64-6.641-7.64-6.641-22.094 0-14.406 6.64-22.047 6.64-7.64 19.14-7.64 6.345 0 11.985 2.296 5.64 2.297 10.625 6.938V5.609Q59.234 2.094 53.437.33q-5.78-1.75-12.218-1.75-16.563 0-26.094 10.124-9.516 10.14-9.516 27.672 0 17.578 9.516 27.703 9.531 10.14 26.094 10.14 6.531 0 12.312-1.734 5.797-1.734 10.875-5.203z" id="DejaVuSans-67"/><path d="M25.39 72.906h8.297L8.297-9.28H0z" id="DejaVuSans-47"/><path d="M9.813 72.906h9.859V42.094L52.39 72.906h12.703L28.906 38.922 67.672 0H54.688L19.672 35.11V0h-9.86z" id="DejaVuSans-75"/><path d="M9.422 54.688h8.984V0H9.422zm0 21.296h8.984v-11.39H9.422z" id="DejaVuSans-105"/><path d="M45.406 46.39v29.594h8.985V0h-8.985v8.203Q42.578 3.328 38.25.953q-4.313-2.375-10.375-2.375-9.906 0-16.14 7.906-6.22 7.922-6.22 20.813 0 12.89 6.22 20.797Q17.968 56 27.874 56q6.063 0 10.375-2.375 4.328-2.36 7.156-7.234zm-30.61-19.093q0-9.906 4.079-15.547 4.078-5.64 11.203-5.64 7.125 0 11.219 5.64 4.11 5.64 4.11 15.547 0 9.906-4.11 15.547-4.094 5.64-11.219 5.64-7.125 0-11.203-5.64-4.078-5.64-4.078-15.547z" id="DejaVuSans-100"/><path d="M18.313 70.219V54.688h18.5v-6.985h-18.5V18.016q0-6.688 1.828-8.594 1.828-1.906 7.453-1.906h9.218V0h-9.218q-10.407 0-14.36 3.875-3.953 3.89-3.953 14.14v29.688H2.687v6.984h6.594V70.22z" id="DejaVuSans-116"/><path d="M4.89 31.39h26.313v-8H4.891z" id="DejaVuSans-45"/><path d="M45.406 27.984q0 9.766-4.031 15.125-4.016 5.375-11.297 5.375-7.219 0-11.25-5.375-4.031-5.359-4.031-15.125 0-9.718 4.031-15.093t11.25-5.375q7.281 0 11.297 5.375 4.031 5.375 4.031 15.093zm8.985-21.203q0-13.953-6.203-20.765Q42-20.797 29.203-20.797q-4.734 0-8.937.703-4.203.703-8.157 2.172v8.735q3.954-2.141 7.813-3.157 3.86-1.031 7.86-1.031 8.843 0 13.234 4.61 4.39 4.609 4.39 13.937v4.453q-2.781-4.844-7.125-7.234Q33.938 0 27.875 0 17.828 0 11.672 7.656q-6.156 7.672-6.156 20.328 0 12.688 6.156 20.344Q17.828 56 27.875 56q6.063 0 10.406-2.39 4.344-2.391 7.125-7.22v8.297h8.985z" id="DejaVuSans-103"/></defs><use xlink:href="#DejaVuSans-78"/><use x="74.805" xlink:href="#DejaVuSans-101"/><use x="136.328" xlink:href="#DejaVuSans-119"/><use x="218.115" xlink:href="#DejaVuSans-32"/><use x="249.902" xlink:href="#DejaVuSans-67"/><use x="319.727" xlink:href="#DejaVuSans-97"/><use x="381.006" xlink:href="#DejaVuSans-115"/><use x="433.105" xlink:href="#DejaVuSans-101"/><use x="494.629" xlink:href="#DejaVuSans-115"/><use x="546.729" xlink:href="#DejaVuSans-32"/><use x="578.516" xlink:href="#DejaVuSans-47"/><use x="612.207" xlink:href="#DejaVuSans-32"/><use x="643.994" xlink:href="#DejaVuSans-49"/><use x="707.617" xlink:href="#DejaVuSans-48"/><use x="771.24" xlink:href="#DejaVuSans-48"/><use x="834.863" xlink:href="#DejaVuSans-75"/><use x="900.439" xlink:href="#DejaVuSans-32"/><use x="932.227" xlink:href="#DejaVuSans-114"/><use x="971.09" xlink:href="#DejaVuSans-101"/><use x="1032.613" xlink:href="#DejaVuSans-115"/><use x="1084.713" xlink:href="#DejaVuSans-105"/><use x="1112.496" xlink:href="#DejaVuSans-100"/><use x="1175.973" xlink:href="#DejaVuSans-101"/><use x="1237.496" xlink:href="#DejaVuSans-110"/><use x="1300.875" xlink:href="#DejaVuSans-116"/><use x="1340.084" xlink:href="#DejaVuSans-115"/><use x="1392.184" xlink:href="#DejaVuSans-32"/><use x="1423.971" xlink:href="#DejaVuSans-45"/><use x="1460.055" xlink:href="#DejaVuSans-45"/><use x="1496.139" xlink:href="#DejaVuSans-32"/><use x="1527.926" xlink:href="#DejaVuSans-49"/><use x="1591.549" xlink:href="#DejaVuSans-52"/><use x="1655.172" xlink:href="#DejaVuSans-32"/><use x="1686.959" xlink:href="#DejaVuSans-100"/><use x="1750.436" xlink:href="#DejaVuSans-97"/><use x="1811.715" xlink:href="#DejaVuSans-121"/><use x="1870.895" xlink:href="#DejaVuSans-32"/><use x="1902.682" xlink:href="#DejaVuSans-97"/><use x="1963.961" xlink:href="#DejaVuSans-118"/><use x="2023.141" xlink:href="#DejaVuSans-101"/><use x="2084.664" xlink:href="#DejaVuSans-114"/><use x="2125.777" xlink:href="#DejaVuSans-97"/><use x="2187.057" xlink:href="#DejaVuSans-103"/><use x="2250.533" xlink:href="#DejaVuSans-101"/></g><g id="legend_1"><path d="M128.2 184.5h136.45q3.2 0 3.2-3.2V88.96q0-3.2-3.2-3.2H128.2q-3.2 0-3.2 3.2v92.34q0 3.2 3.2 3.2z" style="fill:none;opacity:.8;stroke:#ccc;stroke-linejoin:miter" id="patch_5"/><path d="M131.4 98.718h32" style="fill:none;stroke:#000;stroke-linecap:round;stroke-width:1.5" id="line2d_5"/><g style="fill:#696969" transform="matrix(.16 0 0 -.16 176.2 104.317)" id="text_17"><defs><path d="M8.688 72.906h9.921V28.61q0-11.718 4.235-16.875 4.25-5.14 13.781-5.14 9.469 0 13.719 5.14 4.25 5.157 4.25 16.875v44.297H64.5V27.391q0-14.25-7.063-21.532-7.046-7.28-20.812-7.28-13.828 0-20.89 7.28-7.047 7.282-7.047 21.532z" id="DejaVuSans-85"/></defs><use xlink:href="#DejaVuSans-85"/><use x="73.193" xlink:href="#DejaVuSans-83"/></g><path d="M131.4 122.203h32" style="fill:none;stroke:#009e73;stroke-linecap:round;stroke-width:1.5" id="line2d_7"/><g style="fill:#696969" transform="matrix(.16 0 0 -.16 176.2 127.802)" id="text_18"><use xlink:href="#DejaVuSans-78"/><use x="74.805" xlink:href="#DejaVuSans-74"/></g><path d="M131.4 145.688h32" style="fill:none;stroke:#d55e00;stroke-linecap:round;stroke-width:1.5" id="line2d_9"/><g style="fill:#696969" transform="matrix(.16 0 0 -.16 176.2 151.287)" id="text_19"><defs><path d="M19.672 34.813V8.108H35.5q7.953 0 11.781 3.297 3.844 3.297 3.844 10.078 0 6.844-3.844 10.078-3.828 3.25-11.781 3.25zm0 29.984V42.828h14.61q7.218 0 10.75 2.703 3.546 2.719 3.546 8.282 0 5.515-3.547 8.25-3.531 2.734-10.75 2.734zm-9.86 8.11h25.204q11.28 0 17.375-4.688Q58.5 63.53 58.5 54.89q0-6.703-3.125-10.657-3.125-3.953-9.188-4.922 7.282-1.562 11.313-6.53 4.031-4.954 4.031-12.376 0-9.765-6.64-15.093Q48.25 0 35.984 0H9.812z" id="DejaVuSans-66"/></defs><use xlink:href="#DejaVuSans-66"/><use x="68.604" xlink:href="#DejaVuSans-101"/><use x="130.127" xlink:href="#DejaVuSans-114"/><use x="169.49" xlink:href="#DejaVuSans-103"/><use x="232.967" xlink:href="#DejaVuSans-101"/><use x="294.49" xlink:href="#DejaVuSans-110"/></g><path d="M131.4 169.173h32" style="fill:none;stroke:#0072b2;stroke-linecap:round;stroke-width:1.5" id="line2d_11"/><g style="fill:#696969" transform="matrix(.16 0 0 -.16 176.2 174.773)" id="text_20"><defs><path d="M44.39 34.188q3.172-1.079 6.172-4.594 3-3.516 6.032-9.672L66.609 0H56l-9.313 18.703q-3.624 7.328-7.015 9.719-3.39 2.39-9.25 2.39h-10.75V0h-9.86v72.906h22.266q12.5 0 18.656-5.234 6.157-5.219 6.157-15.766 0-6.89-3.203-11.437-3.204-4.532-9.297-6.282zM19.673 64.797V38.922h12.406q7.125 0 10.766 3.297 3.64 3.297 3.64 9.687 0 6.39-3.64 9.64-3.64 3.25-10.766 3.25z" id="DejaVuSans-82"/><path d="M54.89 33.016V0h-8.984v32.719q0 7.765-3.031 11.61-3.031 3.858-9.078 3.858-7.281 0-11.484-4.64-4.204-4.625-4.204-12.64V0H9.08v75.984h9.03V46.188q3.235 4.937 7.594 7.374Q30.078 56 35.797 56q9.422 0 14.25-5.828 4.844-5.828 4.844-17.156z" id="DejaVuSans-104"/></defs><use xlink:href="#DejaVuSans-82"/><use x="64.982" xlink:href="#DejaVuSans-117"/><use x="128.361" xlink:href="#DejaVuSans-116"/><use x="167.57" xlink:href="#DejaVuSans-104"/><use x="230.949" xlink:href="#DejaVuSans-101"/><use x="292.473" xlink:href="#DejaVuSans-114"/><use x="333.586" xlink:href="#DejaVuSans-102"/><use x="368.791" xlink:href="#DejaVuSans-111"/><use x="429.973" xlink:href="#DejaVuSans-114"/><use x="469.336" xlink:href="#DejaVuSans-100"/></g></g></g></g><defs><clipPath id="p50bce0487d"><path d="M117 77.76h725.4v498.96H117z"/></clipPath></defs></svg>