<svg height="864" viewBox="0 0 936 648" width="1248" xmlns="http://www.w3.org/2000/svg" xmlns:xlink="http://www.w3.org/1999/xlink"><defs><style>*{stroke-linecap:butt;stroke-linejoin:round}</style></defs><g id="figure_1"><path d="M0 648h936V0H0z" style="fill:#fff" id="patch_1"/><g id="axes_1"><path d="M117 576.72h725.4V77.76H117z" style="fill:none" id="patch_2"/><path clip-path="url(#p8386ff3757)" d="m149.973 554.039 34.506-.089 3.834-.17 2.876-.273.958-.222.959-.366 1.917-1.1.958-.778 1.917-1.88.959-1.326 1.917-3.076 3.834-7.549 1.917-4.624 1.917-5.096.958-1.574 1.917-3.723 2.876-4.705.958-.982.959-.795.958-.396 2.876-.662.958.074.959.618.958.026.959.325.958.444.959.276.958.085 1.918-.55.958.038 3.834.862.959-.227 1.917-.173.958.5.959.167 1.917.887 1.917 1.718 1.917 1.105.958.217.959.499.958.313.959.713 1.917 1.193.958.012.959.252.958.133 2.876.847.958.026.959-.136 2.875.945.959.156.958.024.959-.149 1.917.01 1.917.664.958-.452.959-.023 1.917.213.958.008.959-.379 1.917-.15.958-.179 1.917.303.959-.378 1.917-1.116.959-.196.958-.877.959-.715.958-1.13 2.876-4.46.958-1.846.959-1.564 2.875-5.832.959-2.242 1.917-4.961 3.834-6.66.958-2.072.959-1.725.958-2.093 1.917-3.385.959-2.034 1.917-3.28.958-1.856 1.917-2.417.959-1.614 1.917-2.19 1.917-1.881 1.917-1.047 1.917.55 1.917.374.958.621.959.17.958.518 2.876 3.283.958 1.476 2.876 3.356.959.528.958 1.107.959.9.958 1.153.959 1.372.958.886.959.561 1.917 1.717 2.875 2.997.959 1.118.958.941.959 1.489.958.624.959 1.307 1.917 1.605.958 1.19.959.565.958.803.959.096.958-.075.959.974.958-.034.959-.283 1.917.47.958 1.405.959.945.958 1.105.959.696.958-.093.959.508 1.917-.03.958.446.959-.629.958.1.959.297.958.04.959-.586.958-2.746 2.876-2.195.958-.646 1.917-.696.959-.043.959-.413.958-.258.959-.102 1.917-.983.958.12.959-.688.958-.505 1.917-2.087.959-.404 2.875-2.498.959-.986 2.875-4.943.959-.459.958-1.182.959-.279.958-1.634.959-1.035.958-1.728 1.917-4.91.959-1.377.958-2.455 1.917-3.874.959-2.333 4.792-13.603 1.917-8.302 3.834-17.92 2.876-18.378 1.917-14.423.958-5.623 1.917-13.07 2.876-18.105.959-4.241.958-3.446.959-4.533 1.917-6.99.958 5.592.959-2.244.958.703 1.917-.188.959-2.083 1.917-5.45 2.875-8.98.959-2.296 1.917-7.466.958-11.268.959-6.884.958-5.174.959-4.434.958-3.063.959-1.745.958-4.024 1.917-3.669.959 1.088.958-.736.959.277.958 1.666.959-.742.958 2.924.959 16.555.958-.86.959 2.962.958 1.095.959.196.958 1.464.959.616.958 9.582.959-9.007.958-2.016.959-4.638.958-3.077.959-2.6.958-8.005.959-18.423.958-3.232.959-5.182.958-3.439.959-2.668.959-.035.958-.784.959-8.537.958 8.244.959 2.92.958 10.206.959 4.431.958 6.498.959 8.283.958 10.068 1.917 14.992.959 6.43 1.917 14.094 2.875 20.003.959 5.19.958-.066 1.917 12.63 2.876 17.504.958 3.908.959 5.863.958 5.001 2.876 17.176 1.917 9.142.958 7.982 3.834 18.998 1.917 6.206.959 3.09.958 2.257.959 1.916.958 2.559 1.917 3.99.959 1.187.958-.131.959.636 1.917.742 1.917 2.347.959 1.393.958-3.23 2.876 4.379 1.917 2.514.958 1.19.959-.043.958.287 1.917 1.337.959.467.958.2.959.54.958 3.67.959-.079.958-2.001.959-.62 1.917-1.98.958-.602.959-1.251 1.917-1.54.958-1.542.959-.735.958-.895.959-.242.958-2.017.959-.482.958.628.959-1.046.958-.653 1.917-.693.959-.11.958-1.39.959-.721.958.323.959-.9.958.945.959-.421.958.583.959.088.958.977.959 1.31.958 1.641 1.917 2.644 2.876 6.543.959 1.485.958 1.829.959.84.958 1.085 1.917 3.723 3.834 6.4 1.917 2.031 1.917 3.427 1.917 3.381.959 1.448.958 1.192.959 1.911.958 1.207 1.917 3.135.959 1.704.958 1.415.959.754 3.834 4.14 1.917 3.36.958.855.959 2.186.958.488 1.917 2.035.959 4.887 1.917 1.463.958.57.959.797.958.25.959 1.102.958.48.959.302.958.06.959-.886.958.986.959.226.958.671.959-3.383 2.876.79.958.13.959.612 2.875.411.959.249.958-.04.959-.355.958-.144.959-4.865.958-.714.959.331.958.105.959 1.038 1.917-2.812.958-3.184.959-1.879 1.917-.223.958-1.829.959-2.512.958-2.035.959 2.668.958-2.93.959-.78.958-.563.959-5.032.958-3.23.959-2.726.958-1.5.959-4.4.958-1.275.959-.764 3.834-21.27.958-6.495.959-1.59.958-1.279.959-7.097.958-8.131.959-4.845.958-5.667.959-7.863 1.917-3.942.958-7.892.959-5.095.959-6.51.958-3.726.959-5.966 1.917-3.784.958-11.369.959.555.958-4.819 2.876-9.34.958-.415.959-8.062.958 1.096.959-1.416.958-4.522.959-.785.958-3.268.959.153.958-1.927.959-1.47.958-4.277.959-1.47.958.75.959 1.23.958-.355.959 17.44.958-13.916.959-1.222.958 1.585.959 1.807.958 1.044.959.24.958-.429.959.696.958 3.762.959 1.918.958 2.262.959-.196.958.412.959-12.095.958 15.78.959 3.383.958 3.937.959 3.347.958 2.059.959.49.958 8.322 3.834 14.831.959 2.209.959 1.301 1.917 6.162 1.917 4.057.958 2.496.959 1.315.958 1.032.959 6.555.958.163.959 2.024 1.917 5.02.958.985.959.34.958 4.67.959 1.376.958 3.626 1.917 4.525.959.692.958.548.959 1.67.958 2.227.959 1.107.958.257.959.907 1.917.682.958-.234.959.621.958.164.959-.105.958-.412.959-.195.958-.46.959-1.926.958.41.959-.417.958 1.99.959-3.746.958-2.948.959-.436.958-2.218.959-1.248 1.917-5.227.958-2.57 1.917-1.698.959-2.99.958-.903.959-1.92.959 3.111.958 7.175.959 3.385.958-.032.959-6.24.958-1.734.959-2.304.958-2.623.959-3.097.958-1.574.959-.295.958-3.554.959-1.957.958-2.687.959-8.541.958-10.467.959-2.458.958-1.143.959 1.238 2.875-1.979 1.917-3.17.959-3.494.958-9.72.959-6.956h0" style="fill:none;stroke:#000;stroke-linecap:round;stroke-width:1.5" id="line2d_1"/><path clip-path="url(#p8386ff3757)" d="m149.973 554.04 36.423-.099 2.876-.235 1.917-.579.958-.538.959-1.046.958-.542.959-1.498.958-1.963 1.917-5.968.959-2.449.958-8.407.959-6.568 1.917-15.373.958-10.806.959-6.704 2.875-36.01.959-12.907 1.917-18.592 1.917-16.314.958-3.801.959-5.492.958-4.306.959-4.895.958 1.758.959-7.426.958 4.609.959-3.243 1.917 8.281.958-1.703.959.272.958-.868.959-1.557.958-1.82.959 4.613.959.804.958.627.959 1.99.958 5.354.959-.688.958 6.47.959 2.084.958 1.451.959 2.91.958 6.744.959 4.282 1.917 15.534.958 1.321.959 5.778.958 7.044.959 2.51.958 6.371.959 5.42 1.917 8.792.958 4.575.959 6.07.958-.613.959 4.599.958-.304.959 2.29.958 1.948.959 4.245.958 1.352.959 1.618.958.43 1.917-.307.959.586 1.917 2.82.958 4.197.959 1.182.958 2.94.959 2.081.958 1.502.959-.586.958 2.654.959 2.061.958 1.27.959 1.07 1.917 4.763.958 1.1.959 1.91.958.856.959 1.035.959.838.958.198.959 1.42.958.747.959-.126.958.204.959-.068.958 1.335.959-5.75.958-.136.959.518.958-.113.959.45.958-.245.959.054 1.917-.078.958.16.959-.208 1.917.395.958-.32.959 6.564.958.102 1.917-.245.959-.456.958.006.959-.439.958.705.959 1.145.958.095.959 1.363.958.099.959-.09.958-.282.959-.037.958-.34 2.876-1.953.958-.306.959-.123.958.065.959-2.18.958-.362.959-1.199 1.917-.5h.958l.959-.45.958.334 1.918 1.042.958.65.959.134.958-.079.959-1.54 1.917.72.958 1.049.959-.164 1.917.14.958.933.959.239.958-.549.959.668.958.112.959.484.958.725.959 1.19.958.722.959-.242.958-.947.959-.126 1.917.04.958-.947.959-.541.958.695.959-.555.958-.365.959.085 1.917-.715 1.917-.736 1.917.03 1.917-.64.958-.65.959-.13 1.917-.947.958-.204.959-.508.958-.269.959-.477.958-.252.959-1.025.958-1.366.959-.767.959-.068.958-1.083.959-.153.958-.862.959-1.656.958-.59.959-.404.958-.692.959-.344.958-2.5.959-1.08.958-.389.959-.18.958.306.959-1.812.958-.787.959-1.216.958-.238.959.044 1.917-4.53.958-1.223.959-1.775.958.463.959-.613.958-3.56.959-1.288 1.917-4.79.958-2.49.959-1.972.958-3.972 1.917-3.055.959-.6.958-2.847.959-4.814.958-2.725.959-3.802.958-4.404 1.917-5.88.959-7.256.958-4.752.959-6.615.958-4.84 1.917-19.707.959-2.899.958-7.501.959-5.488.958-7.562 1.918-9.988.958-6.66.959-5.188.958-1.696 1.917-6.728.959-2.378.958 1.877.959 2.381.958-3.307.959-1.976.958-.848.959-2.082.958-6.939.959-2.231.958-7.024.959.061.958-4.091.959-1.376.958-2.204.959 1.516.958-8.305.959-1.073.958-5.478.959 2.18.958-4.762.959 1.833.958 6.019.959 3.86.958 2.912.959 1.335.958 2.974.959-1.179.958 1.418.959-4.804.958 7.634.959 6.248.958 6.997.959 1.052.958 3.349.959-2.865.958-5.467.959-4.497.958 5.127.959-163.242.958-5.658.959-3.553.958-9.453.959-6.68 1.917-22.953.958-8.833.959-3.165.959-10.764.958-6.8.959-2.943.958-1.662.959-4.994.958 160.919.959 5.576.958 1.407.959 8.281.958 9.61.959.896.958 1.274.959 4.067.958-.647.959 10.45.958 7.993.959 1.29.958 2.47.959 2.889.958 1.151.959 5.032.958 10.655.959 5.992.958-.095.959 8.986.958 3.202.959 5.39.958 4.084.959 1.498.958 3.714.959 7.678.958 5.167 1.917 14.274.959-1.646.958-6.125.959.045.958 4.026.959 5.56.958 7.838.959-.487.958 1.427.959 4.265.958.276.959-.467.958-1.288.959-.756.958-5.78.959 1.171.958 1.424.959.283.958-2.221.959-2.875.959-1.666.958 1.352.959-3.297.958-2.238.959-.814.958-1.182.959.913.958-3.134.959 1.09.958-1.458.959-2.116.958-4.357.959-2.364.958-4.043.959-2.446.958-2.875.959-2.306.958-1.094.959-.443.958-4.71.959-2.723.958-4.07.959-2.722.958-3.938.959 2.194.958-3.87.959-.467.958 1.581.959-1.918.958 1.09.959 3.717.958-.494.959-1.322.958 4.79 1.917 7.443.959 3.9.958 3.13.959.358.958 5.757.959.504.958 1.782 1.917 4.428.959 2.974.958 2.61.959 3.754.958 4.629.959 2.78.958 5.767.959 39.11.958 6.234.959 4.946.959 5.702 1.917 16.545.958 6.647.959 4.087.958 6.251.959 3.223 1.917 12.55.958 7.265.959 4.616.958-31.193 1.917 10.86.959 6.186.958 5.225 1.917 6.377.959 2.163.958 1.223.959 7.103.958 2.902 1.917 2 1.917.3.959.586.958.31 1.917.31.959 1.331.958.079.959.514.958 1.66.959.582.958.953.959 1.223.958.068.959.314.958-.361 1.917 1.38.959.177 1.917-.007.958.133.959-.116.958-.31.959-.034 1.917.238.959.511 1.917.45.958-.123.959-.286.958.238.959-.255.958.04 4.793.938.958-.15 1.917.17 1.917.45.959-.051 2.875-.62.959-.453.958-.232 1.917-1.056.959-.777.958-.627 1.917-2.299.959-.77.958-1.717 1.917-2.83 1.917-3.615 1.917-2.108.959-1.468 1.917-4.136 1.917-4.285 1.917-3.632.958-2.23.959-1.81.958-2.452.959-1.489.958-2.31.959-1.951.958-1.159 1.918-5.358 1.917-5.117.958-4.707.959-1.179.958-1.451 2.876-5.147.958-5.43.959-2.109.958-.957.959-2.6.958-.776.959-1.455.958-.68.959-2.549.958 2.146.959-1.962.958-.695.959-1.046.958-2.064.959-1.771.958 4.104.959-.306.958-.9.959-1.113.958 5.12.959-4.718.958-.532.959-.245.958-1.908.959.01.958-.125.959.306.958.027.959-1.417.958-2.176.959-1.278.958-.664.959 1.117.958-6.169.959 3.907.958-.143.959 1.458.958.886.959 2.51.958 1.315.959.511.958.947 1.917 4.538.959 2.343.959 1.55.958 1.285 1.917 3.46.959.638 1.917 2.633.958-1.1.959.698 1.917 1.693.958 2.347.959.988.958 1.645.959 1.9.958 1.633.959 1.396.958 2.541.959 2.034.958.555 1.917 4.545.959.037.958.576.959 1.557.958-1.114.959.262.958.756.959-1.086.958-.184.959.078.958-.654.959-.123.958 1.094.959-.896.958-.474.959.31.958.031.959-1.189.958.484.959-1.754.958-1.39 1.917-3.499.959-1.785.958-2.214 1.917-6.21.959-2.712 1.917-4.656.958-4.006.959-1.942.959-3.502 1.917-2.3.958-.571.959-2.995.958-5.15.959-4.224.958-6.776 1.917-15.121.959-6.452 1.917-9.388.958-6.984.959-9.422.958-11.306.959-8.877.958-6.721 1.917-7.44.959-6.135 1.917-19.4.958-11.003 1.917-27.099.959-15.479h0" style="fill:none;stroke:#009e73;stroke-linecap:round;stroke-width:1.5" id="line2d_2"/><path clip-path="url(#p8386ff3757)" d="m149.973 554.04 31.63-.097 2.876-.13 2.876-.325.958-.454.959-.033.958-.94.959-.747.958-1.558.959-5.29.958-1.429.959-.649.958-3.051.959-4.9.958-2.922.959-3.7.958-12.496 1.917-19.929.959-10.71.958-9.218.959-13.113.958-17.397.959-14.313.958-23.434.959-28.367.958-10.776 1.917-35.767.959-7.238.958-2.662.959-9.282 1.917-6.232.958.162.959 3.019.958 5.29.959 1.428.958 10.16.959 19.279.958-1.59 1.917 20.415.959.357.958 3.44.959 8.796.959 1.915.958 6.329 1.917 11.555.959 7.367.958 12.886.959 7.595.958 5.063 1.917 17.527.959 5.42 1.917 17.656.958 6.946.959 9.088.958 3.31.959 1.299.958 2.726.959 4.415.958 7.594 1.917 6.427.959 3.116.958-.033.959 3.733.958 2.077.959.779.958.974.959 2.596.958-.357 1.917.098.959-.033.958-6.653.959 1.622.958 2.045.959 1.753.958 2.207.959 1.038.958-1.525.959 1.071.958.487.959-.454.958 3.765.959 2.304.958.876.959-1.103.958 2.694.959 1.33.958-2.401.959 1.558h.958l.959-.714.959.519.958.357.959 1.2h.958l.959.195.958-.032.959.097.958 2.143.959-9.12.958-2.37.959 1.655.958-2.142.959.292 1.917.325.958-.195.959-1.298.958-.033.959-1.59.958-.098.959.357.958-.908.959 9.185.958 1.33.959-.291.958 1.785.959.032.958 1.039 1.917.324.959 1.364.958.551.959 2.013.958-.78.959.098 1.917.974.958.876 1.917-.65.959-1.103.958-1.46.959-.844.958.065.959-1.428.958-.292.959-.844.958.746.959-1.266.958.52 1.917.26.959-.877.959-.292 1.917 1.46.958.325.959-.649.958-1.883.959-1.298 1.917-3.213.958 1.006.959.844.958 2.467.959.13.958.746.959 1.071.958.162 1.917-.357.959.747.958 3.18.959.52 1.917 2.5.958-1.267.959-.844.958-2.564.959-.227.958 1.006.959-.746.958-.065.959.487.958.324.959-.13.958-.357.959 1.169.958.195.959.454.958 1.98.959-.162.958-.78.959-.13.958-.746.959.325.958-.033.959-.843.958.13.959-.195.958.13.959-.715.958-.389.959-.13.959-.974.958-.13.959-.389.958-.714.959-1.071.958-.617.959-.357.958.033.959-.812.958-1.785 1.917-2.888.959-.747.958-.487.959-2.207 1.917-2.207.958-.65.959-.356.958-1.85.959-2.175.958-1.525.959-2.337.958-.747.959-.486.958-2.37.959-1.72.958-2.37.959-1.46.958-.876.959-1.071.958-4.35 1.917-3.96.959-1.427.958-2.435.959-3.018.958.032.959-4.057.958-5.94.959-2.953.958-.487.959-4.998.958-7.206.959-8.795.958-4.642 1.917-16.098.959-1.136 1.917-13.795.958-10.938.959-4.154.959-3.538.958-6.296.959-8.374.958-1.136.959-.584.958-.26.959-6.362.958 5.745 1.917-6.491.959-2.11.958.747.959-1.883.958-8.893.959-2.24.958-4.511.959 1.947.958-1.266.959 1.818.958-.26.959 8.504.958-10.354.959 4.285.958-3.506.959 3.863.958-.844.959 4.317.958 7.173 1.917 10.873.959 2.694.958 1.233.959-5.972.958-1.169.959-4.966.958 7.498 1.917 9.218.959.811.958.422.959-5.485 1.917-5.193.958 2.207.959-141.902.958-9.607.959-4.9.958-6.525.959-7.79 1.917-19.311.958-3.7.959-1.233.959-10.744.958-6.88 1.917-7.109.959-5.842.958 140.928.959 4.836.958 1.33.959 4.934.958 10.419.959-2.24.958 1.59.959.747.958-3.505 1.917 15.936.959 3.7.958.714.959 2.045.958-2.434.959 5.874.958 11.393.959 3.278.958-4.804.959 5.81.958 1.72.959 2.857.958 4.576.959 1.233.958 3.798.959 2.888.958 3.408.959 5.258.958 6.784.959-6.719.958-5.03.959 1.395.958 6.427.959 4.251.958 6.524 1.917-6.653.959 2.272.958-2.727.959-4.674.958-.486.959.26.958-11.555.959 3.408.958-4.187.959-.52.958-5.095.959 4.316.959-3.375.958 3.18.959-3.375.958-.909.959-.746.958 2.337.959 1.168.958-4.414.959 5.583.958-2.5.959.293.958-2.922.959-2.531.958-9.997.959-.974.958-3.148.959.065.958-1.33.959 4.51.958-9.444.959-5.68.958-4.934.959-1.265.958-1.948.959-2.37.958-2.012.959.52.958.292.959-.227.958.714.959 5.03.958-2.466.959-1.526.958 11.133 1.917 13.113.959 3.992 1.917 13.145.958 5.453 1.917 8.503.959 4.642.958 5.323.959 3.57.958 6.653.959 3.344.958 5.225.959 3.116.958 5.583.959 7.854.958 4.706.959 5.94.959 4.317 1.917 15.611.958 4.772.959 2.856.958 5.096.959-31.581.958-3.148.959 5.063.958 6.2.959 2.888.958-1.071.959 4.414.958 3.278.959 5.972.958 2.954.959 1.363.958.941.959 1.428.958 2.013.959 40.7.958 12.27.959.486.958 1.98.959 1.039 1.917.486.958 1.461.959.422.958 1.363.959 2.305.958 1.2.959.877.958.616.959.78.958.389.959 1.298.958-.422.959.227.958.455.959.941.958.617.959.26 1.917-.13.958-.422.959-.098.958-.681 1.917-.39h.959l.959.877 1.917.421.958-.389 1.917-1.136.959.227.958-.162.959.065.958.26.959.064.958-.551.959-.422.958-.033.959-.324.958.357.959.032 2.875 1.623 1.917.195.959-.292.958-.033 1.917-.454.959-.455.958-.714 1.917-1.72.959-.682 1.917-2.142.958-1.882.959-2.532.958-2.11.959-1.07.958-1.883.959-1.233.958-1.72.959-2.467 1.917-4.09.958-2.337.959-1.785.958-2.629.959-1.655 1.917-2.337 1.917-1.623.958.325.959-3.603.959-1.753.958-2.37.959-.94.958-3.408.959 3.115.958-.324 1.917-4.869.959-.843.958-4.577.959-2.175.958-1.59.959-2.175.958.974.959-1.59.958.52.959-2.533.958.487.959-4.998.958-.941.959.909.958.032.959-1.396.958 4.739.959-.682.958-.227.959-.973.958 3.992.959-2.564.958-.714.959-.422.958-.065.959.324.958.52.959-1.007.958-.097.959-.714.958-1.59.959-.195.958-.65.959 1.202.958-3.278.959 2.401.958.065.959-.097.958.681.959.26.958-.552.959 2.272.958-.097 1.917.422.959 1.2.959 2.435.958.714.959.227 1.917 2.76.958 3.375.959 1.395.958.682.959 2.272.958.39.959 1.233.958 2.24.959 1.72.958.162.959 1.136.958.714 2.876 7.335.958-.26 1.917 3.96.959-1.72.958-.39.959 1.234.958-.292.959-.747.958 1.655.959-.389.958.26.959-.714.958-1.299.959-.292.958.941.959-.486.958-.13.959 1.298.958 1.104 2.876 1.265.958-.39.959-2.758.958-1.266 2.876-8.081.958-2.694 1.917-5.972.959-1.364.958-4.122.959-2.272.959-2.758 1.917-3.311.958.065.959-1.623.958-3.538.959-2.499 1.917-9.088.958-3.765.959-2.532 2.875-15.124 1.917-16.748 1.917-12.366.959-4.025.958-2.596.959-9.316.958-10.84.959-12.82 1.917-32.003.958-11.133.959-16.845h0" style="fill:none;stroke:#d55e00;stroke-linecap:round;stroke-width:1.5" id="line2d_3"/><path clip-path="url(#p8386ff3757)" d="M149.973 554.04h42.174l.959-3.306h1.917l.958-1.653h.959l1.917-9.919.958-9.918.959-1.653.958-4.96.959-3.306.958-8.265.959-13.225.958-11.571h.959l.958-9.919.959-26.45.958-16.53.959-4.96.958-3.305h.959l.958-6.613.959-9.918.958 1.653.959 3.306.958-1.653.959 6.612.958 4.96.959-4.96.958 1.653.959 21.49.958 18.184.959-3.306.958 3.306.959-3.306.958 8.266h2.876l.959 1.653.958 6.612 2.876 9.918h1.917l.958 8.266.959 4.96 1.917 16.53.958 9.918.959 3.307h.958l.959 1.653.958-6.613.959 1.653 1.917 6.613.958 4.959h1.917l.959-1.653h1.917l.958 1.653h1.917l.959 6.612.958 4.96 1.917 3.306.959-1.653h1.917l.958-4.96h7.668l.959-1.653h.958l.959 1.653h1.917l.958 4.96h5.752l.958-3.306.959 1.653h.958l.959-1.653h2.875l.959-6.613.958 1.653.959-1.653h3.834l.958-6.612.959-1.653.958 1.653h.959l.958-1.653h1.917l.959 3.306.958-1.653.959 1.653h3.834l.958 9.918.959-3.306.958-1.653h.959l.958 3.306h1.917l1.917 3.307h.959l.958-1.654h2.876l.958-1.653.959 4.96h.958l.959 1.653h2.876l.958 1.653h.959l.958-1.653.959 1.653.958-1.653h3.834l.959 1.653 1.917-3.306h2.875l.959-3.307h.958l.959-1.653.958 1.653h3.834l.959-6.612 1.917 3.306h2.875l.959-1.653 1.917 3.306h4.792l.959 3.307.958-1.654h2.876l.958-4.959.959 4.96.958-1.654h3.834l.959 1.653h.959l.958 3.307.959 1.653h2.875l.959 1.653.958-1.653.959-6.613.958-14.877.959-3.307h1.917l.958-3.306.959-9.918.958-1.653 1.917-16.531 1.917-9.919h.959l1.917 3.307.958 14.877.959 3.306h1.917l.958-6.612.959 3.306.958-6.612h1.917l1.917 9.918.959-16.53.958-1.653 1.917-9.919.959-8.265h1.917l.958-21.49h.959l.958 8.265.959-19.837.958-3.306h1.917l.959-6.612.958-18.184 1.917-16.531.959-14.878.959-8.265h.958l.959 8.265.958-6.612.959-9.919.958 28.103.959 11.571.958-33.061h.959l.958 3.306.959 8.265.958 1.653.959-13.224.958-16.531.959-9.919h.958l.959 4.96.958-6.613.959 1.653.958-29.755.959-14.878.958 33.062h1.917l.959-3.306.958 6.612.959 26.45.958 11.57.959 18.185h.958l.959-26.45.958 8.266.959-36.368.958 21.49.959 14.878h1.917l.958-26.45.959 6.613 1.917-38.021.958 28.102h1.917l.959-9.918.958-18.184.959 21.49.958-16.53.959-19.838.958-16.53h.959l.958 13.224.959-9.918.959 6.612.958 1.653.959-16.53h1.917l.958 54.55.959-4.958.958 6.612.959 18.184 1.917 31.408h.958l.959-14.877.958 11.571.959 14.878.958 6.612.959-9.918.958-8.266h1.917l.959 34.715.958-26.45 1.917-13.224h1.917l.959 24.796.958-4.959.959 1.653h.958l.959 18.184.958-3.306h1.917l.959-23.143.958 34.714.959 8.266.958 3.306h.959l.958-11.572.959 19.837 1.917 3.307.958-11.572.959-6.612.958 11.571h.959l.958-26.449.959 6.612.958-1.653h.959l.958-14.877h.959l.959 11.571.958-16.53.959 3.305.958-6.612.959-1.653.958 6.612h1.917l.959-11.571.958 4.959.959-3.306h.958l.959 14.878h1.917l.958-16.531.959-3.306.958 1.653.959 9.918.958-3.306h.959l.958-14.878.959 19.837.958-1.653.959 8.266.958-24.797.959-6.612h1.917l.958 11.572.959-3.307 1.917-1.653v-1.653l.958 3.306.959-1.653.958 14.878.959 1.653.958 4.96.959-3.307.958 9.919.959 6.612.958-8.265h.959l.958 23.143.959 11.571 1.917 6.613h.958l.959 1.653h.958l.959 6.612 1.917 6.612.959 13.225.958-6.612.959 6.612h.958l.959 1.653h1.917l.958 8.266.959 4.959h1.917l.958 3.306.959 4.96.958 3.305.959 6.613.958 14.877.959 1.654h.958l.959 3.306.958 1.653.959 9.918.958 1.653.959 3.307h1.917l.958 6.612h1.917l.959-3.306h4.792l.959-1.653.958 1.653h3.834l.959-4.96h.958l.959 3.307h4.792l.959 1.653h4.793l.958 4.959.959 1.653h.958l.959-6.612h4.792l.959-1.653h5.75l.96-1.653.958 4.959h3.834l1.917-3.306h5.75l.96-1.653.958-8.266h1.917l.958-34.715.959-3.306h.958l1.917-16.53h1.917l.959-11.572.958-4.96.959-1.652h.958l.959 8.265h1.917l.958 18.184.959-1.653.959-8.266.958 1.653.959 4.96h1.917l.958-4.96.959 1.653h.958l.959-3.306.958 1.653h1.917l.959 13.225.958-1.653.959 6.612.958 1.653.959 3.307h1.917l.958 4.959.959-8.266.958-9.918.959 3.306.958-8.265h1.917l.959 3.306.958-13.225.959-6.612.958 8.265.959-8.265h1.917l.958-3.306.959 6.612.958 4.96.959-9.92.958 1.654h1.917l.959-21.49.958 18.184.959 1.653.958-8.266.959 3.307h1.917l.958 8.265h1.917l.959 6.612h2.876l.958 14.878 1.917-3.306.959 8.265.958-13.224h1.917l.959 6.612.958-4.96 2.876 9.92h1.917l.958-6.613.959-1.653.958 8.265.959-6.612.958 14.878h1.917l.959-3.307.958 8.266.959 3.306h.958l.959 1.653h2.875l.959-1.653.958 1.653.959 6.612h2.875l.959-4.959.958-1.653.959-14.878.958 3.306.959-9.918h1.917l.958 3.306h.959l.958-3.306.959-4.96.958-1.652h1.917l.959-16.531.958-4.96.959 3.307h.959l.958 11.571h1.917l.959-23.143.958-4.96h.959l.958-8.264.959-9.919h1.917l.958 3.306 1.917-16.53 1.917-33.062h1.917l.959 4.959.958-9.918 1.917-49.593.959 3.306.958-67.776.959-19.837.958-6.612.959-29.756.958 19.837h0" style="fill:none;stroke:#0072b2;stroke-linecap:round;stroke-width:1.5" id="line2d_4"/><path clip-path="url(#p8386ff3757)" d="M117 551.014h725.4" style="fill:none;stroke:green;stroke-dasharray:1.5,2.475;stroke-dashoffset:0;stroke-width:1.5" id="line2d_5"/><path clip-path="url(#p8386ff3757)" d="M117 538.912h725.4" style="fill:none;stroke:orange;stroke-dasharray:1.5,2.475;stroke-dashoffset:0;stroke-width:1.5" id="line2d_6"/><path clip-path="url(#p8386ff3757)" d="M117 523.784h725.4" style="fill:none;stroke:red;stroke-dasharray:1.5,2.475;stroke-dashoffset:0;stroke-width:1.5" id="line2d_7"/><path d="M117 576.72V77.76" style="fill:none;stroke:#d3d3d3;stroke-linecap:square;stroke-linejoin:miter;stroke-width:1.25" id="patch_3"/><path d="M117 576.72h725.4" style="fill:none;stroke:#d3d3d3;stroke-linecap:square;stroke-linejoin:miter;stroke-width:1.25" id="patch_4"/><g id="matplotlib.axis_1"><g id="xtick_1"><g style="fill:#696969" transform="matrix(.16 0 0 -.16 106.01 598.378)" id="text_1"><defs><path d="M9.813 72.906h9.859V5.078q0-13.187-5-19.14-5-5.954-16.094-5.954h-3.75v8.297h3.078q6.531 0 9.219 3.672Q9.813-4.39 9.813 5.078z" id="DejaVuSans-74"/><path d="M34.281 27.484q-10.89 0-15.093-2.484-4.204-2.484-4.204-8.5 0-4.781 3.157-7.594 3.156-2.797 8.562-2.797 7.485 0 12 5.297 4.516 5.297 4.516 14.078v2zm17.922 3.72V0H43.22v8.297Q40.14 3.328 35.547.953q-4.594-2.375-11.234-2.375-8.391 0-13.36 4.719Q6 8.016 6 15.922q0 9.219 6.172 13.906 6.187 4.688 18.437 4.688h12.61v.89q0 6.203-4.078 9.594-4.078 3.39-11.453 3.39-4.688 0-9.141-1.124-4.438-1.125-8.531-3.375v8.312q4.921 1.906 9.562 2.844 4.64.953 9.031.953 11.875 0 17.735-6.156 5.86-6.14 5.86-18.64z" id="DejaVuSans-97"/><path d="M54.89 33.016V0h-8.984v32.719q0 7.765-3.031 11.61-3.031 3.858-9.078 3.858-7.281 0-11.484-4.64-4.204-4.625-4.204-12.64V0H9.08v54.688h9.03v-8.5q3.235 4.937 7.594 7.374Q30.078 56 35.797 56q9.422 0 14.25-5.828 4.844-5.828 4.844-17.156z" id="DejaVuSans-110"/></defs><use xlink:href="#DejaVuSans-74"/><use x="29.492" xlink:href="#DejaVuSans-97"/><use x="90.771" xlink:href="#DejaVuSans-110"/></g></g><g id="xtick_2"><g style="fill:#696969" transform="matrix(.16 0 0 -.16 191.726 598.378)" id="text_2"><defs><path d="M34.188 63.188 20.797 26.906h26.812zm-5.579 9.718h11.188L67.578 0h-10.25l-6.64 18.703h-32.86L11.188 0H.78z" id="DejaVuSans-65"/><path d="M18.11 8.203v-29H9.077v75.484h9.031v-8.296q2.844 4.875 7.157 7.234Q29.594 56 35.594 56q9.968 0 16.187-7.906 6.235-7.907 6.235-20.797T51.78 6.484q-6.218-7.906-16.187-7.906-6 0-10.328 2.375-4.313 2.375-7.157 7.25zm30.578 19.094q0 9.906-4.079 15.547-4.078 5.64-11.203 5.64-7.14 0-11.218-5.64-4.079-5.64-4.079-15.547 0-9.906 4.078-15.547 4.079-5.64 11.22-5.64 7.124 0 11.202 5.64t4.078 15.547z" id="DejaVuSans-112"/><path d="M41.11 46.297q-1.516.875-3.297 1.281Q36.03 48 33.89 48q-7.625 0-11.703-4.953-4.079-4.953-4.079-14.234V0H9.08v54.688h9.03v-8.5q2.844 4.984 7.375 7.39Q30.031 56 36.531 56q.922 0 2.047-.125 1.125-.11 2.484-.36z" id="DejaVuSans-114"/></defs><use xlink:href="#DejaVuSans-65"/><use x="68.408" xlink:href="#DejaVuSans-112"/><use x="131.885" xlink:href="#DejaVuSans-114"/></g></g><g id="xtick_3"><g style="fill:#696969" transform="matrix(.16 0 0 -.16 283.138 598.378)" id="text_3"><defs><path d="M8.5 21.578v33.11h8.984V21.922q0-7.766 3.016-11.656 3.031-3.875 9.094-3.875 7.265 0 11.484 4.64 4.234 4.64 4.234 12.656v31h8.985V0h-8.984v8.406Q42.047 3.422 37.718 1q-4.313-2.422-10.032-2.422-9.421 0-14.312 5.86Q8.5 10.296 8.5 21.578zM31.11 56z" id="DejaVuSans-117"/><path d="M9.422 75.984h8.984V0H9.422z" id="DejaVuSans-108"/></defs><use xlink:href="#DejaVuSans-74"/><use x="29.492" xlink:href="#DejaVuSans-117"/><use x="92.871" xlink:href="#DejaVuSans-108"/></g></g><g id="xtick_4"><g style="fill:#696969" transform="matrix(.16 0 0 -.16 367.141 598.378)" id="text_4"><defs><path d="M39.406 66.219q-10.75 0-17.078-8.016-6.312-8-6.312-21.828 0-13.766 6.312-21.781 6.328-8 17.078-8 10.735 0 17.016 8 6.281 8.015 6.281 21.781 0 13.828-6.281 21.828-6.281 8.016-17.016 8.016zm0 8q15.328 0 24.5-10.281 9.188-10.282 9.188-27.563 0-17.234-9.188-27.516-9.172-10.28-24.5-10.28-15.375 0-24.593 10.25-9.204 10.265-9.204 27.546t9.204 27.563q9.218 10.28 24.593 10.28z" id="DejaVuSans-79"/><path d="M48.781 52.594v-8.407q-3.812 2.11-7.64 3.157-3.828 1.047-7.735 1.047-8.75 0-13.593-5.547-4.829-5.532-4.829-15.547 0-10.016 4.829-15.563 4.843-5.53 13.593-5.53 3.907 0 7.735 1.046 3.828 1.047 7.64 3.156V2.094Q45.016.344 40.984-.531q-4.015-.89-8.562-.89-12.36 0-19.64 7.765-7.266 7.765-7.266 20.953 0 13.375 7.343 21.031Q20.22 56 33.016 56q4.14 0 8.093-.86 3.953-.843 7.672-2.546z" id="DejaVuSans-99"/><path d="M18.313 70.219V54.688h18.5v-6.985h-18.5V18.016q0-6.688 1.828-8.594 1.828-1.906 7.453-1.906h9.218V0h-9.218q-10.407 0-14.36 3.875-3.953 3.89-3.953 14.14v29.688H2.687v6.984h6.594V70.22z" id="DejaVuSans-116"/></defs><use xlink:href="#DejaVuSans-79"/><use x="78.711" xlink:href="#DejaVuSans-99"/><use x="133.691" xlink:href="#DejaVuSans-116"/></g></g><g id="xtick_5"><g style="fill:#696969" transform="matrix(.16 0 0 -.16 456.824 598.378)" id="text_5"><use xlink:href="#DejaVuSans-74"/><use x="29.492" xlink:href="#DejaVuSans-97"/><use x="90.771" xlink:href="#DejaVuSans-110"/></g></g><g id="xtick_6"><g style="fill:#696969" transform="matrix(.16 0 0 -.16 541.582 598.378)" id="text_6"><use xlink:href="#DejaVuSans-65"/><use x="68.408" xlink:href="#DejaVuSans-112"/><use x="131.885" xlink:href="#DejaVuSans-114"/></g></g><g id="xtick_7"><g style="fill:#696969" transform="matrix(.16 0 0 -.16 632.994 598.378)" id="text_7"><use xlink:href="#DejaVuSans-74"/><use x="29.492" xlink:href="#DejaVuSans-117"/><use x="92.871" xlink:href="#DejaVuSans-108"/></g></g><g id="xtick_8"><g style="fill:#696969" transform="matrix(.16 0 0 -.16 716.997 598.378)" id="text_8"><use xlink:href="#DejaVuSans-79"/><use x="78.711" xlink:href="#DejaVuSans-99"/><use x="133.691" xlink:href="#DejaVuSans-116"/></g></g><g id="xtick_9"><g style="fill:#696969" transform="matrix(.16 0 0 -.16 806.68 598.378)" id="text_9"><use xlink:href="#DejaVuSans-74"/><use x="29.492" xlink:href="#DejaVuSans-97"/><use x="90.771" xlink:href="#DejaVuSans-110"/></g></g></g><g id="matplotlib.axis_2"><g id="ytick_1"><g style="fill:#696969" transform="matrix(.16 0 0 -.16 97.32 560.119)" id="text_10"><defs><path d="M31.781 66.406q-7.61 0-11.453-7.5Q16.5 51.422 16.5 36.375q0-14.984 3.828-22.484 3.844-7.5 11.453-7.5 7.672 0 11.5 7.5 3.844 7.5 3.844 22.484 0 15.047-3.844 22.531-3.828 7.5-11.5 7.5zm0 7.813q12.266 0 18.735-9.703 6.468-9.688 6.468-28.141 0-18.406-6.468-28.11-6.47-9.687-18.735-9.687-12.25 0-18.718 9.688-6.47 9.703-6.47 28.109 0 18.453 6.47 28.14Q19.53 74.22 31.78 74.22z" id="DejaVuSans-48"/></defs><use xlink:href="#DejaVuSans-48"/></g></g><g id="ytick_2"><g style="fill:#696969" transform="matrix(.16 0 0 -.16 76.96 499.606)" id="text_11"><defs><path d="M19.188 8.297h34.421V0H7.33v8.297q5.609 5.812 15.296 15.594 9.703 9.797 12.188 12.64 4.734 5.313 6.609 9 1.89 3.688 1.89 7.25 0 5.813-4.078 9.469-4.078 3.672-10.625 3.672-4.64 0-9.797-1.61-5.14-1.609-11-4.89v9.969Q13.767 71.78 18.938 73q5.188 1.219 9.485 1.219 11.328 0 18.062-5.672 6.735-5.656 6.735-15.125 0-4.5-1.688-8.531-1.672-4.016-6.125-9.485-1.218-1.422-7.765-8.187-6.532-6.766-18.453-18.922z" id="DejaVuSans-50"/></defs><use xlink:href="#DejaVuSans-50"/><use x="63.623" xlink:href="#DejaVuSans-48"/><use x="127.246" xlink:href="#DejaVuSans-48"/></g></g><g id="ytick_3"><g style="fill:#696969" transform="matrix(.16 0 0 -.16 76.96 439.093)" id="text_12"><defs><path d="M37.797 64.313 12.89 25.39h24.906zm-2.594 8.593H47.61V25.391h10.407v-8.203H47.609V0h-9.812v17.188H4.89v9.515z" id="DejaVuSans-52"/></defs><use xlink:href="#DejaVuSans-52"/><use x="63.623" xlink:href="#DejaVuSans-48"/><use x="127.246" xlink:href="#DejaVuSans-48"/></g></g><g id="ytick_4"><g style="fill:#696969" transform="matrix(.16 0 0 -.16 76.96 378.58)" id="text_13"><defs><path d="M33.016 40.375q-6.641 0-10.532-4.547-3.875-4.531-3.875-12.437 0-7.86 3.875-12.438 3.891-4.562 10.532-4.562 6.64 0 10.515 4.562 3.875 4.578 3.875 12.438 0 7.906-3.875 12.437-3.875 4.547-10.515 4.547zm19.578 30.922v-8.984q-3.719 1.75-7.5 2.671-3.782.938-7.5.938-9.766 0-14.922-6.594-5.14-6.594-5.875-19.922 2.875 4.25 7.219 6.516 4.359 2.266 9.578 2.266 10.984 0 17.36-6.672 6.374-6.657 6.374-18.125 0-11.235-6.64-18.032-6.641-6.78-17.672-6.78-12.657 0-19.344 9.687-6.688 9.703-6.688 28.109 0 17.281 8.204 27.563 8.203 10.28 22.015 10.28 3.719 0 7.5-.734t7.89-2.187z" id="DejaVuSans-54"/></defs><use xlink:href="#DejaVuSans-54"/><use x="63.623" xlink:href="#DejaVuSans-48"/><use x="127.246" xlink:href="#DejaVuSans-48"/></g></g><g id="ytick_5"><g style="fill:#696969" transform="matrix(.16 0 0 -.16 76.96 318.068)" id="text_14"><defs><path d="M31.781 34.625q-7.031 0-11.062-3.766-4.016-3.765-4.016-10.343 0-6.594 4.016-10.36Q24.75 6.391 31.78 6.391q7.032 0 11.078 3.78 4.063 3.798 4.063 10.345 0 6.578-4.031 10.343-4.016 3.766-11.11 3.766zm-9.86 4.188q-6.343 1.562-9.89 5.906Q8.5 49.079 8.5 55.329q0 8.733 6.219 13.812 6.234 5.078 17.062 5.078 10.89 0 17.094-5.078 6.203-5.079 6.203-13.813 0-6.25-3.547-10.61-3.531-4.343-9.828-5.906 7.125-1.656 11.094-6.5 3.984-4.828 3.984-11.796 0-10.61-6.468-16.282-6.47-5.656-18.532-5.656-12.047 0-18.531 5.656-6.469 5.672-6.469 16.282 0 6.968 4 11.797 4.016 4.843 11.14 6.5zM18.314 54.39q0-5.657 3.53-8.828 3.548-3.172 9.938-3.172 6.36 0 9.938 3.172 3.593 3.171 3.593 8.828 0 5.672-3.593 8.843-3.578 3.172-9.938 3.172-6.39 0-9.937-3.172-3.532-3.172-3.532-8.843z" id="DejaVuSans-56"/></defs><use xlink:href="#DejaVuSans-56"/><use x="63.623" xlink:href="#DejaVuSans-48"/><use x="127.246" xlink:href="#DejaVuSans-48"/></g></g><g id="ytick_6"><g style="fill:#696969" transform="matrix(.16 0 0 -.16 66.78 257.555)" id="text_15"><defs><path d="M12.406 8.297h16.11v55.625l-17.532-3.516v8.985l17.438 3.515h9.86V8.296H54.39V0H12.406z" id="DejaVuSans-49"/></defs><use xlink:href="#DejaVuSans-49"/><use x="63.623" xlink:href="#DejaVuSans-48"/><use x="127.246" xlink:href="#DejaVuSans-48"/><use x="190.869" xlink:href="#DejaVuSans-48"/></g></g><g id="ytick_7"><g style="fill:#696969" transform="matrix(.16 0 0 -.16 66.78 197.043)" id="text_16"><use xlink:href="#DejaVuSans-49"/><use x="63.623" xlink:href="#DejaVuSans-50"/><use x="127.246" xlink:href="#DejaVuSans-48"/><use x="190.869" xlink:href="#DejaVuSans-48"/></g></g><g id="ytick_8"><g style="fill:#696969" transform="matrix(.16 0 0 -.16 66.78 136.53)" id="text_17"><use xlink:href="#DejaVuSans-49"/><use x="63.623" xlink:href="#DejaVuSans-52"/><use x="127.246" xlink:href="#DejaVuSans-48"/><use x="190.869" xlink:href="#DejaVuSans-48"/></g></g><g style="fill:#696969" transform="matrix(0 -.2 -.2 0 58.62 379.813)" id="text_18"><defs><path d="M51.125 44H36.922l-4.11-16.313h14.313zm-7.328 27.781-5.078-20.265h14.265L58.11 71.78h7.813L60.89 51.516h15.234V44h-17.14l-4-16.313h15.53V20.22H53.079L48 0h-7.813l5.032 20.219H30.906L25.875 0h-7.86l5.079 20.219H7.719v7.468h17.187L29 44H13.281v7.516h17.625l4.985 20.265z" id="DejaVuSans-35"/><path d="M30.61 48.39q-7.22 0-11.422-5.64-4.204-5.64-4.204-15.453 0-9.813 4.172-15.453 4.188-5.64 11.453-5.64 7.188 0 11.375 5.655 4.203 5.672 4.203 15.438 0 9.719-4.203 15.406-4.187 5.688-11.375 5.688zm0 7.61q11.718 0 18.406-7.625 6.703-7.61 6.703-21.078 0-13.422-6.703-21.078-6.688-7.64-18.407-7.64-11.765 0-18.437 7.64-6.656 7.656-6.656 21.078 0 13.469 6.656 21.078Q18.844 56 30.609 56z" id="DejaVuSans-111"/><path d="M37.11 75.984V68.5h-8.594q-4.828 0-6.72-1.953-1.874-1.953-1.874-7.031v-4.828h14.797v-6.985H19.922V0H10.89v47.703H2.297v6.984h8.594V58.5q0 9.125 4.25 13.297 4.25 4.187 13.468 4.187z" id="DejaVuSans-102"/><path d="M44.281 53.078v-8.5q-3.797 1.953-7.906 2.922-4.094.984-8.5.984-6.688 0-10.031-2.047-3.344-2.046-3.344-6.156 0-3.125 2.39-4.906 2.391-1.781 9.626-3.39l3.078-.688q9.562-2.047 13.593-5.781 4.032-3.735 4.032-10.422 0-7.625-6.032-12.078-6.03-4.438-16.578-4.438-4.39 0-9.156.86Q10.688.296 5.422 2v9.281q4.984-2.594 9.812-3.89 4.829-1.282 9.579-1.282 6.343 0 9.75 2.172 3.421 2.172 3.421 6.125 0 3.656-2.468 5.61-2.453 1.953-10.813 3.765l-3.125.735q-8.344 1.75-12.062 5.39-3.704 3.64-3.704 9.985 0 7.718 5.47 11.906Q16.75 56 26.811 56q4.97 0 9.36-.734 4.406-.72 8.11-2.188z" id="DejaVuSans-115"/><path d="M56.203 29.594v-4.39H14.891q.593-9.282 5.593-14.142 5-4.859 13.938-4.859 5.172 0 10.031 1.266 4.86 1.265 9.656 3.812v-8.5Q49.266.734 44.187-.344 39.11-1.422 33.892-1.422q-13.094 0-20.735 7.61-7.64 7.625-7.64 20.625 0 13.421 7.25 21.296Q20.016 56 32.328 56q11.031 0 17.453-7.11 6.422-7.093 6.422-19.296zm-8.984 2.64q-.094 7.36-4.125 11.75-4.032 4.407-10.672 4.407-7.516 0-12.031-4.25-4.516-4.25-5.203-11.97z" id="DejaVuSans-101"/></defs><use xlink:href="#DejaVuSans-35"/><use x="83.789" xlink:href="#DejaVuSans-32"/><use x="115.576" xlink:href="#DejaVuSans-111"/><use x="176.758" xlink:href="#DejaVuSans-102"/><use x="211.963" xlink:href="#DejaVuSans-32"/><use x="243.75" xlink:href="#DejaVuSans-99"/><use x="298.73" xlink:href="#DejaVuSans-97"/><use x="360.01" xlink:href="#DejaVuSans-115"/><use x="412.109" xlink:href="#DejaVuSans-101"/><use x="473.633" xlink:href="#DejaVuSans-115"/></g></g><g style="fill:#696969" transform="matrix(.24 0 0 -.24 252.577 71.76)" id="text_19"><defs><path d="M9.813 72.906h13.28l32.329-60.984v60.984h9.562V0h-13.28L19.39 60.984V0H9.813z" id="DejaVuSans-78"/><path d="M4.203 54.688h8.985l11.234-42.672 11.172 42.672h10.593l11.235-42.672 11.187 42.672h8.985L63.28 0H52.688L40.922 44.828 29.109 0H18.5z" id="DejaVuSans-119"/><path d="M64.406 67.281v-10.39q-4.984 4.64-10.625 6.922-5.64 2.296-11.984 2.296-12.5 0-19.14-7.64-6.641-7.64-6.641-22.094 0-14.406 6.64-22.047 6.64-7.64 19.14-7.64 6.345 0 11.985 2.296 5.64 2.297 10.625 6.938V5.609Q59.234 2.094 53.437.33q-5.78-1.75-12.218-1.75-16.563 0-26.094 10.124-9.516 10.14-9.516 27.672 0 17.578 9.516 27.703 9.531 10.14 26.094 10.14 6.531 0 12.312-1.734 5.797-1.734 10.875-5.203z" id="DejaVuSans-67"/><path d="M25.39 72.906h8.297L8.297-9.28H0z" id="DejaVuSans-47"/><path d="M9.813 72.906h9.859V42.094L52.39 72.906h12.703L28.906 38.922 67.672 0H54.688L19.672 35.11V0h-9.86z" id="DejaVuSans-75"/><path d="M45.406 46.39v29.594h8.985V0h-8.985v8.203Q42.578 3.328 38.25.953q-4.313-2.375-10.375-2.375-9.906 0-16.14 7.906-6.22 7.922-6.22 20.813 0 12.89 6.22 20.797Q17.968 56 27.874 56q6.063 0 10.375-2.375 4.328-2.36 7.156-7.234zm-30.61-19.093q0-9.906 4.079-15.547 4.078-5.64 11.203-5.64 7.125 0 11.219 5.64 4.11 5.64 4.11 15.547 0 9.906-4.11 15.547-4.094 5.64-11.219 5.64-7.125 0-11.203-5.64-4.078-5.64-4.078-15.547z" id="DejaVuSans-100"/><path d="M9.422 54.688h8.984V0H9.422zm0 21.296h8.984v-11.39H9.422z" id="DejaVuSans-105"/><path d="M31 75.875q-6.531-11.219-9.719-22.219-3.172-10.984-3.172-22.265 0-11.266 3.203-22.328Q24.517-2 31-13.188h-7.813Q15.875-1.704 12.235 9.375q-3.64 11.078-3.64 22.016 0 10.89 3.61 21.922 3.624 11.046 10.983 22.562z" id="DejaVuSans-40"/><path d="M52 44.188q3.375 6.062 8.063 8.937Q64.75 56 71.093 56q8.548 0 13.188-5.984 4.64-5.97 4.64-17V0h-9.03v32.719q0 7.86-2.797 11.656-2.781 3.813-8.485 3.813-6.984 0-11.046-4.641-4.047-4.625-4.047-12.64V0h-9.032v32.719q0 7.906-2.78 11.687-2.782 3.782-8.595 3.782-6.89 0-10.953-4.657-4.047-4.656-4.047-12.625V0H9.08v54.688h9.03v-8.5q3.078 5.03 7.375 7.421Q29.781 56 35.687 56q5.97 0 10.141-3.031Q50 49.953 52 44.187z" id="DejaVuSans-109"/><path d="M8.016 75.875h7.812q7.313-11.516 10.953-22.563 3.64-11.03 3.64-21.921 0-10.938-3.64-22.016-3.64-11.078-10.953-22.563H8.016Q14.5-2 17.703 9.063q3.203 11.063 3.203 22.329 0 11.28-3.203 22.265-3.203 11-9.687 22.219z" id="DejaVuSans-41"/></defs><use xlink:href="#DejaVuSans-78"/><use x="74.805" xlink:href="#DejaVuSans-101"/><use x="136.328" xlink:href="#DejaVuSans-119"/><use x="218.115" xlink:href="#DejaVuSans-32"/><use x="249.902" xlink:href="#DejaVuSans-67"/><use x="319.727" xlink:href="#DejaVuSans-97"/><use x="381.006" xlink:href="#DejaVuSans-115"/><use x="433.105" xlink:href="#DejaVuSans-101"/><use x="494.629" xlink:href="#DejaVuSans-115"/><use x="546.729" xlink:href="#DejaVuSans-47"/><use x="580.42" xlink:href="#DejaVuSans-49"/><use x="644.043" xlink:href="#DejaVuSans-48"/><use x="707.666" xlink:href="#DejaVuSans-48"/><use x="771.289" xlink:href="#DejaVuSans-75"/><use x="836.865" xlink:href="#DejaVuSans-32"/><use x="868.652" xlink:href="#DejaVuSans-49"/><use x="932.275" xlink:href="#DejaVuSans-52"/><use x="995.898" xlink:href="#DejaVuSans-100"/><use x="1059.375" xlink:href="#DejaVuSans-32"/><use x="1091.162" xlink:href="#DejaVuSans-105"/><use x="1118.945" xlink:href="#DejaVuSans-110"/><use x="1182.324" xlink:href="#DejaVuSans-99"/><use x="1237.305" xlink:href="#DejaVuSans-105"/><use x="1265.088" xlink:href="#DejaVuSans-100"/><use x="1328.564" xlink:href="#DejaVuSans-101"/><use x="1390.088" xlink:href="#DejaVuSans-110"/><use x="1453.467" xlink:href="#DejaVuSans-99"/><use x="1508.447" xlink:href="#DejaVuSans-101"/><use x="1569.971" xlink:href="#DejaVuSans-32"/><use x="1601.758" xlink:href="#DejaVuSans-40"/><use x="1640.771" xlink:href="#DejaVuSans-115"/><use x="1692.871" xlink:href="#DejaVuSans-117"/><use x="1756.25" xlink:href="#DejaVuSans-109"/><use x="1853.662" xlink:href="#DejaVuSans-41"/></g><g id="legend_1"><path d="M694.75 184.5H831.2q3.2 0 3.2-3.2V88.96q0-3.2-3.2-3.2H694.75q-3.2 0-3.2 3.2v92.34q0 3.2 3.2 3.2z" style="fill:none;opacity:.8;stroke:#ccc;stroke-linejoin:miter" id="patch_5"/><path d="M697.95 98.718h32" style="fill:none;stroke:#000;stroke-linecap:round;stroke-width:1.5" id="line2d_8"/><g style="fill:#696969" transform="matrix(.16 0 0 -.16 742.75 104.317)" id="text_20"><defs><path d="M8.688 72.906h9.921V28.61q0-11.718 4.235-16.875 4.25-5.14 13.781-5.14 9.469 0 13.719 5.14 4.25 5.157 4.25 16.875v44.297H64.5V27.391q0-14.25-7.063-21.532-7.046-7.28-20.812-7.28-13.828 0-20.89 7.28-7.047 7.282-7.047 21.532z" id="DejaVuSans-85"/><path d="M53.516 70.516V60.89q-5.61 2.687-10.594 4-4.984 1.328-9.625 1.328-8.047 0-12.422-3.125t-4.375-8.89q0-4.845 2.906-7.313 2.907-2.453 11.016-3.97l5.953-1.218q11.031-2.11 16.281-7.406 5.25-5.297 5.25-14.172 0-10.61-7.11-16.078-7.093-5.469-20.812-5.469-5.172 0-11.015 1.172Q13.14.922 6.89 3.219v10.156q6-3.36 11.765-5.078 5.766-1.703 11.328-1.703 8.438 0 13.032 3.312 4.593 3.328 4.593 9.485 0 5.359-3.297 8.39-3.296 3.032-10.812 4.547L27.484 33.5q-11.03 2.188-15.968 6.875-4.922 4.688-4.922 13.047 0 9.672 6.812 15.234 6.813 5.563 18.766 5.563 5.14 0 10.453-.938 5.328-.922 10.89-2.765z" id="DejaVuSans-83"/></defs><use xlink:href="#DejaVuSans-85"/><use x="73.193" xlink:href="#DejaVuSans-83"/></g><path d="M697.95 122.203h32" style="fill:none;stroke:#009e73;stroke-linecap:round;stroke-width:1.5" id="line2d_10"/><g style="fill:#696969" transform="matrix(.16 0 0 -.16 742.75 127.802)" id="text_21"><use xlink:href="#DejaVuSans-78"/><use x="74.805" xlink:href="#DejaVuSans-74"/></g><path d="M697.95 145.688h32" style="fill:none;stroke:#d55e00;stroke-linecap:round;stroke-width:1.5" id="line2d_12"/><g style="fill:#696969" transform="matrix(.16 0 0 -.16 742.75 151.287)" id="text_22"><defs><path d="M19.672 34.813V8.108H35.5q7.953 0 11.781 3.297 3.844 3.297 3.844 10.078 0 6.844-3.844 10.078-3.828 3.25-11.781 3.25zm0 29.984V42.828h14.61q7.218 0 10.75 2.703 3.546 2.719 3.546 8.282 0 5.515-3.547 8.25-3.531 2.734-10.75 2.734zm-9.86 8.11h25.204q11.28 0 17.375-4.688Q58.5 63.53 58.5 54.89q0-6.703-3.125-10.657-3.125-3.953-9.188-4.922 7.282-1.562 11.313-6.53 4.031-4.954 4.031-12.376 0-9.765-6.64-15.093Q48.25 0 35.984 0H9.812z" id="DejaVuSans-66"/><path d="M45.406 27.984q0 9.766-4.031 15.125-4.016 5.375-11.297 5.375-7.219 0-11.25-5.375-4.031-5.359-4.031-15.125 0-9.718 4.031-15.093t11.25-5.375q7.281 0 11.297 5.375 4.031 5.375 4.031 15.093zm8.985-21.203q0-13.953-6.203-20.765Q42-20.797 29.203-20.797q-4.734 0-8.937.703-4.203.703-8.157 2.172v8.735q3.954-2.141 7.813-3.157 3.86-1.031 7.86-1.031 8.843 0 13.234 4.61 4.39 4.609 4.39 13.937v4.453q-2.781-4.844-7.125-7.234Q33.938 0 27.875 0 17.828 0 11.672 7.656q-6.156 7.672-6.156 20.328 0 12.688 6.156 20.344Q17.828 56 27.875 56q6.063 0 10.406-2.39 4.344-2.391 7.125-7.22v8.297h8.985z" id="DejaVuSans-103"/></defs><use xlink:href="#DejaVuSans-66"/><use x="68.604" xlink:href="#DejaVuSans-101"/><use x="130.127" xlink:href="#DejaVuSans-114"/><use x="169.49" xlink:href="#DejaVuSans-103"/><use x="232.967" xlink:href="#DejaVuSans-101"/><use x="294.49" xlink:href="#DejaVuSans-110"/></g><path d="M697.95 169.173h32" style="fill:none;stroke:#0072b2;stroke-linecap:round;stroke-width:1.5" id="line2d_14"/><g style="fill:#696969" transform="matrix(.16 0 0 -.16 742.75 174.773)" id="text_23"><defs><path d="M44.39 34.188q3.172-1.079 6.172-4.594 3-3.516 6.032-9.672L66.609 0H56l-9.313 18.703q-3.624 7.328-7.015 9.719-3.39 2.39-9.25 2.39h-10.75V0h-9.86v72.906h22.266q12.5 0 18.656-5.234 6.157-5.219 6.157-15.766 0-6.89-3.203-11.437-3.204-4.532-9.297-6.282zM19.673 64.797V38.922h12.406q7.125 0 10.766 3.297 3.64 3.297 3.64 9.687 0 6.39-3.64 9.64-3.64 3.25-10.766 3.25z" id="DejaVuSans-82"/><path d="M54.89 33.016V0h-8.984v32.719q0 7.765-3.031 11.61-3.031 3.858-9.078 3.858-7.281 0-11.484-4.64-4.204-4.625-4.204-12.64V0H9.08v75.984h9.03V46.188q3.235 4.937 7.594 7.374Q30.078 56 35.797 56q9.422 0 14.25-5.828 4.844-5.828 4.844-17.156z" id="DejaVuSans-104"/></defs><use xlink:href="#DejaVuSans-82"/><use x="64.982" xlink:href="#DejaVuSans-117"/><use x="128.361" xlink:href="#DejaVuSans-116"/><use x="167.57" xlink:href="#DejaVuSans-104"/><use x="230.949" xlink:href="#DejaVuSans-101"/><use x="292.473" xlink:href="#DejaVuSans-114"/><use x="333.586" xlink:href="#DejaVuSans-102"/><use x="368.791" xlink:href="#DejaVuSans-111"/><use x="429.973" xlink:href="#DejaVuSans-114"/><use x="469.336" xlink:href="#DejaVuSans-100"/></g></g></g></g><defs><clipPath id="p8386ff3757"><path d="M117 77.76h725.4v498.96H117z"/></clipPath></defs></svg>