<svg height="864" viewBox="0 0 936 648" width="1248" xmlns="http://www.w3.org/2000/svg" xmlns:xlink="http://www.w3.org/1999/xlink"><defs><style>*{stroke-linecap:butt;stroke-linejoin:round}</style></defs><g id="figure_1"><path d="M0 648h936V0H0z" style="fill:#fff" id="patch_1"/><g id="axes_1"><path d="M117 576.72h725.4V77.76H117z" style="fill:none" id="patch_2"/><g id="PolyCollection_1"><defs><path d="M150.83-97.514H198.788l.857-.637.856.084.857.054.856-.334.857.065.856-1.05.857-.918.856-1.89.856.048.857-.81.856-.448.857-1.634.856-2.666.857-2.135.856.573.856-2.006.857-5.729.856-3.05.857-.497.856-.397.857.105.856-1.623.856-2.628.857.039.856.03.857-1.44.856.663.857.235.856-2.874.857-1.491.856 5.24.856 5.927.857-.17.856 1.517.857-.474.856 2.623.857.08.856-.08.856-.179.857.03.856 1.463.857.605.856.156.857-.256.856-.36.856.121.857 2.373.856 1.6.857 2.486.856 2.781.857 3.314.856 1.355.857.185.856.453.856-1.911.857.218.856.642.857.631.856.96.857-.645.856-.59.856-1.148.857-.597.856-.389.857.402.856.01.857-.01.856 1.904.856 1.385.857.502.856.553.857-.383.856.09.857.05.856-1.35.857-.103.856-.134.856-.174.857-.157.856-.205.857-.294.856-.036.857.009.856-.435.856-.09.857.348.856-.124.857-.241.856 1.544.857.125.856.085.856.06.857.044.856.027.857.015.856-.886.857.414.856-.075.857-.525.856-.04.856-.046.857-.053.856-1.439.857.534.856-.32.857.065.856.025.856-.013.857-.05.856-1.526.857-.284.856.445h.857l.856-.445.856-.077.857-.157.856.835.857-.514.856.37.857-.082.856-.103.856-.137.857-.205.856 3.11.857-.762.856-.39.857.029.856.925.857.01.856-.036.856.485.857.448.856.01.857-.5.856-.108.857-.164.856-.27.856-.44.857 1.36.856-.03.857.412.856.05.857.02.856-.006.856.492.857.055.856-.426.857.435.856-.48.857-.064.856-.087.857-.276.856-.035.856.406.857-.435.856-.386.857.036.856.03h.857l.856-.749.856.093.857-.34.856.466.857.016.856.003.857-.012.856-.026.856-1.619.857.459.856.424.857-.033.856-.06.857-.09.856-.417.857.413.856.435.856-.026.857-.03.856-.033.857-.039.856-.044.857.9.856-.446.856.014.857.005.856-.005.857-1.253.856 1.24.857-.464h3.425l.857.439h.856l.857.934.856.58.857.104.856.08.856.061.857.414.856-.411.857-1.738.856-3.226.857-.294.856.4.856.3.857-.552.856-2.06.857-.056.856-1.727.857-1.676.856-.916.856-1.04.857-.095.856.039.857-.053.856 3.568.857.55.856-.387.857-.48.856-2.25.856.663.857-1.964.856-.054.857-.002.856 1.27.857 1.176.856-4.503.856-.491.857-1.116.856-.865.857-1.626.856.309.857.137.856-4.711.856.497.857 2.33.856-4.613.857-.448.856.011.857-.49.856-1.773.857-4.462.856-1.8.856-1.766.857-3.143.856-1.605.857.06.856 2.236.857-1.771.856-3 .856 6.856.857 2.464.856-9.212.857-.89.856-.233.857 1.532.856-.015.856-3.672.857-3.881.856-1.895.857.533.856 1.527.857-1.376.856.697.856-7.08.857-3.444.856 8.694.857-.08.856-.246.857-1.488.856.69.857 6.654.856 3.659.856 6.087.857.951.856-6.808.857 2.415.856-9.521.857 5.222.856 2.864.856-.182.857-.303.856-7.291.857 1.12.856-5.154.857-3.625.856 7.437.856-.453.857-.677.856-2.538.857-4.545.856 5.648.857-4.137.856-4.94.857-3.827.856-.01.856 3.543.857-2.662.856 1.804.857.572.856-4.387.857-.306.856-.615.856 14.336.857-1.01.856 1.68.857 5.828.856 5.386.857 5.802.856.897.856-3.56.857 3.246.856 4.309.857 1.976.856-3.498.857-3.788.856-2.604.857-.631.856 8.742.856-8.208.857-2.534.856-2.014.857.055.856.051.857 6.381.856-1.33.856.49.857-.028.856 5.324.857-.64.856.124.857.027.856-6.308.856 9.587.857 2.638.856 1.025.857-.124.856-3.707.857 5.617.856.585.857.474.856-3.41.856-1.808.857 2.984.856-.131.857-6.99.856.36.857-.32.856.174.856-3.328.857.403.856 3.125.857-4.115.856.778.857-1.91.856-.391.856 1.673.857-.575.856-.933.857-2.834.856 1.099.857-1.07.856-.38.857 3.94.856.027.856-.371.857-4.219.856-.724.857.54.856 2.605.857-.9.856-.04.856-3.657.857 5.218.856-.422.857 2.291.856-6.304.857-1.494.856.09.856-.046.857 3.044.856-.846 1.713-.807v-.068l.857.8.856-.516.857 4.008.856.391.856 1.446.857-1.095.856 3.088.857 2.18.856-2.184.857-.134.856 6.846.856 3.906.857 1.898.856.732.857.084.856.218.857-.021.856 1.718.856.846.857.572.856 3.612.857-1.86.856 1.191.857-1.075.856.13.856-.088.857-.074.856 2.233.857 1.344.856-.105.857-.32.856.7.857 1.221.856.823.856 2.149.857 4.567.856.97.857.276.856 1.072.857.47.856 2.704.856.562.857 1 .856-.09.857-.325.856 1.432.857-.4.856-.566.856-1.512.857-.216.856-.265.857-.402.856-.419.857-.584.856-.607.857.281.856-.05.856-.064.857-.084.856-.055.857-1.206.856.029.857.867.856-.003.856-.006.857-.007.856-.01.857-.014.856.448h4.282l.857 1.414.856.547.857.124.856-1.755.857-.02.856-.022.856-.023.857-.026h.856l.857-.409.856.024.857.022.856.02.856.017.857-.054.856-.17.857-.73.856 1.357.857.043.856.036.856.03.857.027.856-.434.857-.435h5.138l.857-.434.856-1.753.857.217.856.128.857-7.138.856.244.856.71.857-1.41.856-1.416.857.456.856.213.857-2.755.856-1.186.856-.606.857-.476.856 1.493.857-1.054.856-1.755.857 4.469.856-.696.857-2.6.856.26.856 1.393.857.083.856.077.857-1.34.856.27.857-.304.856-1.314.856.251.857-.242.856-.349.857 3.708.856-.287.857 2.093.856.737.856 1.231.857.262.856.19.857 1.49.856-2.221.857-2.724.856.619.857-2.307.856-.146.856-.162.857.928.856-3.042.857-1.189.856 2.284.857-1.989.856.042.856-.094.857-1.259.856 1.353.857 1.13.856-2.867.857.333.856-.163.856-.242.857-5.356.856 4.721.857.435.856-2.207.857.888.856.009h.856l.857 2.208.856-.027.857-.172.856 1.94.857.157.856.133.857.114.856 3.965.856-.1.857-.24.856 2.346.857-3.652.856-.256.857-.36.856 1.657.856-1.51.857.606.856.815.857.83.856-.124.857-.233.856-1.743.856-.42.857 2.232.856-1.844.857 4.182.856.138.857.038.856-.831.857 2.29.856 1.082.856.172.857.628.856.128.857.075.856-.153.857-.806.856.293.856 1.274.857.063.856-.007.857-.078.856-1.731.857-.545.856-3.342.856 1.102.857-2.03.856.392.857.282.856.993.857.096.856-.765.857-1.297.856-.52.856-.237.857-.435.856-4.21.857-1.176.856 1.11.857.011.856 2.986.856-.08.857-.105.856-5.809.857-1.06.856.119.857-1.818.856-2.072.856.247.857.007.856 1.008.857-1.862.856-1.816.857-3.653.856-3.698.857.128.856-.357.856 1.23.857-2.532.856-5.935.857-5.214.856 1.636.857-14.73.856-2.67.856-.208.857-5.998.856-10.643.857-6.812.856-2.865.857.292.856-1.919.856-2.236.857-15.508.856-14.42.857-7.473.856-18.228.857-3.357.856-18.783.857-10.301.856-.182.856-6.158.857-15.173.856-11.761.857-24.938.856-16.276.857-2.052.856 3.48.856-.132.857-5.763.856 6.458.857 8.084.856 15.94.857 4.78.856 5.643.856 19.707.857 32.215.856 26.271.857 28.154.856 26.228.857 14.518.856 15.572.857 21.923.856 12.698.856 11.698.857 1.52.856 3.473.857 7.449.856-2.13.857-.835.856.185.856-.162.857 3.852.856-3.476.857-4.732.856-2.758.857-2.302.856 4.348.856-2.495.857 2.509.856-.712.857 1.14.856.074.857-.262.856-2.438.856-1.427.857.167.856 1.821.857.176.856.567.857-4.39.856.38.857-1.021.856-1.352.856.026.857-.147.856-.038v-2.49l-.856-.039-.857-.146-.856-.843-.856.386-.857-1.02-.856-1.358-.857 1.69-.856-2.039-.857-1.562-.856-2.523-.857-.701-.856-.559-.856.17-.857-2-.856-2.533-.857-3.204-.856-3.318-.857-6.18-.856-.757-.856-8.685-.857-4.039-.856-6.234-.857-3.863-.856-3.475-.857-11.787-.856-9.719-.856-10.24-.857-11.261-.856-9.081-.857-14.272-.856-7.822-.857-5.43-.856-12.629-.856-11.629-.857-16.305-.856-8.754-.857-5.465-.856-12.868-.857-11.812-.856-10.219-.857-19.914-.856-18.521-.856-10.865-.857-10.859-.856-24.894-.857-20.586-.856-15.262-.857-2.288-.856-5.346-.856-6.945-.857 2.292-.856 22.82-.857 32.405-.856 16.91-.857 20.448-.856 9.48-.856 3.294-.857 16.632-.856 26.395-.857 7.938-.856 21.737-.857 9.904-.856 16.857-.857 15.769-.856 1.24-.856 3.293-.857 2.899-.856 8.43-.857 13.17-.856 16.29-.857 9.641-.856 3.268-.856 7.755-.857 20.892-.856-.102-.857 7.818-.856 7.097-.857 2.68-.856-1.375-.856-.357-.857.128-.856 4.99-.857 5.035-.856 2.528-.857 2.483-.856-.73-.857.007-.856.247-.856 3.14-.857 2.527-.856.12-.857 1.545-.856 6.354-.857-.105-.856-.08-.856-3.096-.857.011-.856-.627-.857 1.43-.856 4.48-.857-.436-.856-.238-.856.35-.857 1.31-.856.971-.857.097-.856-.745-.857.282-.856.392-.857 3.183-.856-.635-.856 4.477-.857.324-.856.875-.857-.078-.856-.007-.857.063-.856-2.201-.856-.576-.857.063-.856-.153-.857.074-.856.129-.857-.242-.856.173-.856-.655-.857-2.055-.856.906-.857.039-.856.138-.857-3.637-.856 1.63-.857-2.112-.856.45-.856 1.732-.857-.234-.856-.123-.857-.908-.856-.923-.857-1.13-.856 1.095-.856-1.817-.857-.362-.856-.255-.857 3.298-.856-1.997-.857.628-.856.77-.856-3.855-.857.114-.856.133-.857.157-.856-1.536-.857-.171-.856-.028-.857-2.135h-.856l-.856.009-.857-.85-.856 2.137-.857-.434-.856-4.836-.857 5.938-.856-.242-.856-.162-.857-.536-.856 2.346-.857-1.477-.856-2.122-.857.478-.856-.094-.856.042-.857 2.356-.856-2.06-.857 2.286-.856 3.908-.857-.809-.856-.162-.856-.147-.857 2.038-.856-1.12-.857 2.49-.856 2.123-.857-1.117-.856.19-.857.263-.856-.507-.856-.132-.857-1.382-.856.582-.857-3.243-.856-.349-.857-.242-.856-.618-.856.424-.857-.304-.856-.6-.857 1.268-.856.077-.857.083-.856-1.213-.856-.61-.857 1.744-.856.174-.857-5.089-.856-1.754-.857-1.055-.856-2.85-.857-.476-.856.262-.856 1.421-.857 3.326-.856.213-.857.456-.856 2.928-.857 2.934-.856.71-.856 1.983-.857 11.106-.856.128-.857.218-.856 2.59-.857.435h-5.138l-.857.434-.856.434-.857.027-.856.03-.856.037-.857.042-.856-1.25-.857.14-.856-.17-.857-.054-.856.018-.856.02-.857.021-.856.024-.857.46h-.856l-.857-.026-.856-.024-.856-.021-.857-.02-.856 1.72-.857.124-.856-.322-.857-1.192h-4.282l-.856-.421-.857-.013-.856-.01-.857-.008-.856-.006-.856-.003-.857-.87-.856.028-.857 1.401-.856-.055-.857-.084-.856-.064-.856-.05-.857-.587-.856.261-.857-.584-.856-.42-.857-.401-.856-.265-.857-.216-.856.226-.856-.566-.857-.4-.856-2.043-.857-.326-.856-.09-.857-.738-.856-.306-.856-2.509-.857-.4-.856-.664-.857.275-.856.101-.857-3.252-.856-1.326-.856-.915-.857-1.384-.856-1.039-.857-.32-.856-.104-.857-1.263-.856-2.111-.857-.074-.856-.088-.856-.739-.857-1.075-.856-2.284-.857 1.615-.856-3.338-.857-1.166-.856-.892-.856-1.757-.857-.02-.856-.652-.857.085-.856-.137-.857-.71-.856-2.175-.856-5.317-.857-.134-.856 2.16-.857-1.296-.856-2.124-.857.642-.856-1.16-.856-.478-.857-3.811-.856.352-.857-.938v-.067l-1.713.931-.856.892-.857-3.038-.856-.047-.856.09-.857 1.982-.856 6.728-.857-2.053-.856.446-.857-5.207-.856 4.162-.856-.04-.857.838-.856-2.608-.857-.329-.856 1.014-.857 4.47-.856-.372-.856.028-.857-3.881-.856-.379-.857.667-.856-1.507-.857 3.248-.856-.933-.857-.575-.856-1.803-.856.477-.857 1.566-.856-.96-.857 4.574-.856-2.957-.857.403-.856 4.491-.856.174-.857.55-.856-3.116-.857 6.911-.856-.13-.857-3.098-.856 1.667-.856 2.671-.857-.394-.856-.284-.857-4.81-.856 2.376-.857-.125-.856-.712-.857-1.706-.856-8.658-.856 5.855-.857.028-.856.123-.857 1.098-.856-4.233-.857-.028-.856-.378-.856 1.275-.857-6.651-.856.051-.857.055-.856 1.461-.857.942-.856 5.693-.856-9.503-.857-.632-.856-2.604-.857.557-.856 1.714-.857-1.498-.856-3.511-.857-2.836-.856 4.26-.856.896-.857-2.885-.856-2.434-.857-3.729-.856-1.795-.857 1.597-.856-14.336-.856-.615-.857-.306-.856 4.302-.857-.297-.856-1.671-.857 2.551-.856-3.408-.856-.01-.857 4.861-.856 5.486-.857 4.551-.856-5.647-.857 5.012-.856 2.675-.857-.676-.856-.453-.856-7.334-.857 5.933-.856 5.27-.857-2.354-.856 6.61-.857-.303-.856-.182-.856-4.955-.857-6.073-.856 9.593-.857-1.929-.856 7.093-.857.952-.856-3.47-.856-2.424-.857-7.247-.856-2.785-.857.25-.856-.247-.857-.08-.856-8.682-.857 4.376-.856 8.559-.856-.173-.857 2.1-.856-1.08-.857.533-.856 3.319-.857 4.807-.856 3.278-.856-.883-.857-2.812-.856-1.97-.857-.891-.856 8.163-.857-3.617-.856-7.914-.856 2.213-.857 1.705-.856-2.108-.857.06-.856 2.739-.857 4.676-.856 2.578-.856 2.544-.857 5.095-.856 1.702-.857-.49-.856.01-.857 1.29-.856 5.814-.857-2.015-.856.497-.856 6.584-.857.137-.856.31-.857 2.717-.856 1.742-.857 1.49-.856.378-.856 4.185-.857-1.431-.856-1.336-.857-.002-.856-.054-.857 1.51-.856-1.074-.856 1.227-.857-.48-.856-.388-.857-1.187-.856-4.252-.857-.921-.856-.83-.857-.095-.856 1.566-.856 1.69-.857 2.668-.856 2.618-.857.812-.856 3.153-.857 1.186-.856.3-.856.4-.857 1.443-.856 4.593-.857 1.738-.856.458-.857-.456-.856.062-.856.08-.857.104-.856-.29-.857-.803h-.856l-.857-.43h-3.425l-.857.406-.856-1.367-.857 1.353-.856-.005-.857.005-.856.014-.856.424-.857-.839-.856-.044-.857-.038-.856-.033-.857-.03-.856-.026-.856-.435-.857-.455-.856.453-.857-.092-.856-.059-.857-.033-.856-.445-.857-.41-.856 1.857-.856-.027-.857-.011-.856.002-.857.016-.856-.402-.857.528-.856.093-.856.99h-.857l-.856.029-.857.037-.856.482-.857.434-.856-.463-.856-.035-.857-.276-.856-.088-.857-.063-.856.389-.857-.434-.856.442-.857.056-.856-.377-.856-.007-.857.02-.856.05-.857-.456-.856-.03-.857-1.246-.856.43-.856-.271-.857-.165-.856-.107-.857.368-.856.01-.857-.42-.856-.384-.856-.036-.857.01-.856-.813-.857.028-.856.48-.857.975-.856-2.103-.857-.205-.856-.136-.856-.104-.857-.08-.856-.5-.857.354-.856-.902-.857-.157-.856-.077-.856.424h-.857l-.856-.424-.857.585-.856 1.95-.857-.051-.856-.013-.856.025-.857.065-.856.55-.857-.336-.856 2.036-.857-.053-.856-.046-.856-.04-.857.344-.856-.075-.857-.454-.856.851-.857.015-.856.027-.857.043-.856.061-.856.085-.857.125-.856-1.063-.857-.24-.856-.125-.857-.52-.856-.09-.856.434-.857.009-.856-.036-.857-.294-.856-.205-.857-.158-.856-.173-.856-.134-.857-.104-.856 1.256-.857.05-.856.09-.857.486-.856-.315-.857-.367-.856-1.221-.856-1.572-.857-.01-.856.01-.857-.467-.856-.388-.857-.597-.856-.28-.856-.59-.857-.645-.856-1.647-.857-1.106-.856-1.095-.857-.65-.856 1.564-.856-.417-.857.186-.856-.383-.857-1.9-.856-1.562-.857-1.859-.856-1.005-.857-1.972-.856.122-.856-.361-.857-1.994-.856-1.58-.857-1.134-.856-2.013-.857-.838-.856-.178-.856-.08-.857.079-.856-1.721-.857 1.264-.856-.221-.857 1.568-.856-3.63-.856-6.054-.857-2.361-.856-.267-.857-2.372-.856-2.811-.857-.572-.856-1.707-.857-.83-.856 2.585-.856 1.851-.857.105-.856 1.342-.857 2.108-.856 5.639-.857 8.172-.856 3.207-.856.572-.857 3.948-.856 4.284-.857 2.71-.856 1.29-.857 1.796-.856.917-.856 3.323-.857 1.688-.856 1.557-.857.065-.856.534-.857.055-.856.083-.857 1.101H150.83z" id="m23835b2096" style="stroke:#fff;stroke-opacity:.2"/></defs><g clip-path="url(#pa52b731a33)"><use style="fill:#089fff;fill-opacity:.2;stroke:#fff;stroke-opacity:.2" xlink:href="#m23835b2096" y="648"/></g></g><g id="LineCollection_1"><path clip-path="url(#pa52b731a33)" d="M199.646 550.486v-12.163M202.215 550.486v-6.082M203.928 550.486v-18.245M204.785 550.486v-18.245M205.641 550.486v-36.49M206.497 550.486v-6.082M207.354 550.486v-18.245M208.21 550.486v-12.163M209.067 550.486v-30.408M209.923 550.486v-48.654M210.78 550.486v-42.572M211.636 550.486v-12.163M212.492 550.486v-36.49M213.349 550.486V453.18M214.205 550.486v-66.899M215.062 550.486v-18.245M215.918 550.486v-30.408M216.775 550.486v-18.245M217.631 550.486V489.67M218.487 550.486v-42.572M219.344 550.486v-12.163M221.057 550.486v-36.49M221.913 550.486V526.16M222.77 550.486V526.16M223.626 550.486v-30.408M224.483 550.486v-30.408M225.339 550.486v-18.245M227.052 550.486v-30.408M227.908 550.486v-18.245M228.765 550.486v-30.408M229.621 550.486v-30.408M230.478 550.486v-42.572M231.334 550.486v-12.163M233.047 550.486v-30.408M234.76 550.486v-12.163M235.616 550.486v-18.245M236.473 550.486v-18.245M237.329 550.486v-18.245M242.468 550.486v-6.082M245.037 550.486V526.16M245.893 550.486V526.16M246.75 550.486v-6.082M247.606 550.486v-6.082M248.463 550.486v-6.082M251.888 550.486v-6.082M257.883 550.486v-6.082M260.453 550.486v-12.163M263.022 550.486v-18.245M263.879 550.486v-6.082M269.874 550.486v-6.082M270.73 550.486v-6.082M272.443 550.486v-6.082M275.869 550.486v-6.082M281.007 550.486v-12.163M282.72 550.486v-6.082M283.577 550.486v-6.082M284.433 550.486v-6.082M287.002 550.486V526.16M288.715 550.486v-6.082M292.997 550.486v-36.49M293.854 550.486v-6.082M295.567 550.486v-6.082M296.423 550.486v-12.163M298.992 550.486v-12.163M299.849 550.486v-6.082M305.844 550.486v-18.245M306.7 550.486v-6.082M307.557 550.486v-6.082M310.982 550.486v-6.082M313.552 550.486v-6.082M316.977 550.486v-6.082M318.69 550.486v-6.082M324.685 550.486v-6.082M326.398 550.486v-6.082M328.968 550.486v-6.082M331.537 550.486v-6.082M332.393 550.486v-6.082M335.819 550.486v-12.163M336.675 550.486v-6.082M337.532 550.486v-6.082M340.958 550.486v-6.082M342.67 550.486V526.16M347.81 550.486v-18.245M352.948 550.486v-6.082M354.66 550.486v-12.163M355.517 550.486v-6.082M358.943 550.486v-18.245M360.656 550.486v-6.082M370.933 550.486v-12.163M371.79 550.486v-6.082M372.646 550.486v-30.408M373.502 550.486v-54.735M374.359 550.486v-12.163M376.928 550.486v-12.163M377.784 550.486v-36.49M378.64 550.486v-6.082M379.497 550.486v-30.408M380.354 550.486v-30.408M381.21 550.486v-18.245M382.066 550.486v-18.245M382.923 550.486v-12.163M384.636 550.486V526.16M388.918 550.486v-36.49M389.774 550.486V526.16M390.63 550.486v-30.408M391.487 550.486v-30.408M392.344 550.486v-30.408M394.913 550.486v-72.98M395.77 550.486v-6.082M396.626 550.486v-42.572M397.482 550.486v-18.245M398.339 550.486v-30.408M400.908 550.486V434.934M401.764 550.486V526.16M403.477 550.486V447.097M404.334 550.486v-42.572M406.903 550.486V453.18M407.76 550.486v-72.98M408.616 550.486v-72.98M409.472 550.486v-48.654M410.329 550.486v-85.144M411.185 550.486v-30.408M412.898 550.486v-85.144M413.755 550.486v-48.654M414.611 550.486v-36.49M417.18 550.486V428.852M418.893 550.486v-85.144M419.75 550.486v-42.572M420.606 550.486v-66.899M421.462 550.486V453.18M422.319 550.486v-145.96M423.175 550.486v-66.899M424.888 550.486v-66.899M425.745 550.486v-72.98M426.601 550.486v-30.408M427.457 550.486v-109.47M428.314 550.486v-54.735M430.883 550.486v-85.144M431.74 550.486v-54.735M432.596 550.486v-42.572M434.309 550.486V447.097M436.878 550.486V386.28M437.735 550.486v-42.572M438.591 550.486V386.28M439.448 550.486v-30.408M442.873 550.486V368.035M443.73 550.486v-30.408M444.586 550.486V434.934M445.443 550.486v-66.899M448.868 550.486V349.79M449.725 550.486v-109.47M450.581 550.486v-85.144M451.438 550.486v-91.225M452.294 550.486v-72.98M453.15 550.486V489.67M454.863 550.486V416.69M455.72 550.486v-66.899M456.576 550.486v-91.225M457.433 550.486V489.67M458.29 550.486V489.67M461.715 550.486V422.77M462.571 550.486V489.67M463.428 550.486V526.16M464.284 550.486v-18.245M466.853 550.486V361.953M467.71 550.486V526.16M468.566 550.486v-36.49M469.423 550.486v-36.49M470.28 550.486V453.18M471.136 550.486v-30.408M474.561 550.486V392.362M475.418 550.486v-48.654M476.274 550.486v-42.572M478.844 550.486V453.18M479.7 550.486v-42.572M480.556 550.486v-30.408M481.413 550.486v-36.49M482.27 550.486v-30.408M483.126 550.486v-42.572M485.695 550.486v-85.144M486.551 550.486v-30.408M487.408 550.486v-18.245M488.264 550.486v-30.408M489.977 550.486v-42.572M490.834 550.486V526.16M491.69 550.486v-36.49M492.547 550.486V526.16M493.403 550.486v-79.062M494.26 550.486v-54.735M496.829 550.486V453.18M497.685 550.486V489.67M498.542 550.486v-36.49M499.398 550.486v-18.245M500.254 550.486v-85.144M502.824 550.486v-85.144M503.68 550.486V526.16M504.537 550.486v-48.654M505.393 550.486v-85.144M506.25 550.486v-30.408M508.819 550.486v-139.88M509.675 550.486v-42.572M510.532 550.486v-48.654M511.388 550.486v-18.245M512.245 550.486v-30.408M514.814 550.486v-145.96M515.67 550.486v-36.49M516.527 550.486v-42.572M517.383 550.486v-48.654M518.24 550.486v-42.572M519.952 550.486v-54.735M520.809 550.486v-66.899M521.665 550.486v-48.654M522.522 550.486v-18.245M523.378 550.486v-109.47M524.235 550.486v-54.735M526.804 550.486V447.097M527.66 550.486v-48.654M529.373 550.486v-54.735M529.373 550.486v-48.654M530.23 550.486v-30.408M531.086 550.486v-6.082M532.799 550.486V489.67M533.655 550.486v-30.408M534.512 550.486v-30.408M535.368 550.486v-72.98M536.225 550.486v-30.408M537.081 550.486v-30.408M538.794 550.486v-18.245M539.65 550.486v-6.082M540.507 550.486v-36.49M541.363 550.486v-42.572M542.22 550.486v-30.408M544.789 550.486v-36.49M545.645 550.486v-18.245M546.502 550.486v-18.245M547.358 550.486V526.16M548.215 550.486v-54.735M549.071 550.486v-6.082M550.784 550.486v-12.163M551.64 550.486v-6.082M552.497 550.486v-36.49M553.353 550.486v-12.163M554.21 550.486v-12.163M556.78 550.486V526.16M558.492 550.486v-6.082M565.343 550.486v-6.082M570.482 550.486v-6.082M571.338 550.486v-12.163M576.477 550.486v-6.082M581.616 550.486v-18.245M582.472 550.486v-6.082M596.175 550.486V526.16M601.314 550.486v-6.082M607.309 550.486v-6.082M608.165 550.486v-6.082M612.447 550.486v-6.082M613.304 550.486v-12.163M619.299 550.486v-12.163M620.155 550.486v-36.49M622.725 550.486V422.77M623.581 550.486v-12.163M624.437 550.486v-6.082M625.294 550.486v-42.572M626.15 550.486v-30.408M628.72 550.486v-42.572M629.576 550.486v-18.245M630.432 550.486v-6.082M631.289 550.486v-12.163M632.145 550.486v-6.082M634.715 550.486V489.67M635.571 550.486v-18.245M636.428 550.486v-36.49M637.284 550.486v-36.49M638.14 550.486v-12.163M640.71 550.486V489.67M641.566 550.486v-12.163M642.423 550.486v-6.082M643.279 550.486V526.16M646.705 550.486v-12.163M647.561 550.486V526.16M648.418 550.486v-12.163M649.274 550.486v-30.408M652.7 550.486v-42.572M653.556 550.486v-42.572M654.413 550.486v-42.572M655.27 550.486v-12.163M656.126 550.486v-30.408M659.551 550.486v-72.98M660.408 550.486v-36.49M662.12 550.486v-30.408M664.69 550.486v-54.735M665.546 550.486v-18.245M666.403 550.486V526.16M667.26 550.486v-48.654M668.116 550.486V526.16M670.685 550.486v-79.062M671.541 550.486v-6.082M672.398 550.486v-30.408M673.254 550.486v-30.408M674.11 550.486v-18.245M676.68 550.486V526.16M677.536 550.486v-18.245M678.393 550.486V526.16M679.25 550.486V526.16M680.106 550.486V526.16M682.675 550.486V526.16M683.531 550.486v-12.163M684.388 550.486v-36.49M686.1 550.486v-66.899M689.526 550.486v-36.49M690.383 550.486v-12.163M691.24 550.486v-12.163M692.096 550.486v-12.163M694.665 550.486v-48.654M695.521 550.486v-18.245M696.378 550.486v-6.082M697.234 550.486V526.16M698.09 550.486v-12.163M700.66 550.486v-12.163M701.517 550.486v-6.082M703.23 550.486v-12.163M704.086 550.486v-6.082M706.655 550.486v-48.654M707.512 550.486V526.16M710.08 550.486v-12.163M712.65 550.486v-30.408M713.507 550.486v-12.163M714.363 550.486v-54.735M716.076 550.486v-42.572M718.645 550.486v-36.49M719.502 550.486V526.16M720.358 550.486v-12.163M721.215 550.486v-18.245M722.071 550.486v-18.245M724.64 550.486v-91.225M725.497 550.486v-30.408M726.353 550.486v-42.572M730.635 550.486V428.852M731.492 550.486v-42.572M732.348 550.486v-12.163M733.205 550.486v-48.654M734.061 550.486v-54.735M736.63 550.486v-79.062M737.487 550.486V489.67M738.343 550.486v-72.98M739.2 550.486V489.67M740.056 550.486V489.67M742.625 550.486V447.097M743.482 550.486v-79.062M744.338 550.486V447.097M745.195 550.486v-139.88M746.051 550.486v-42.572M746.908 550.486v-249.35M747.764 550.486v-72.98M748.62 550.486V447.097M749.477 550.486V380.198M750.333 550.486V288.973M751.19 550.486V349.79M752.046 550.486v-139.88M752.903 550.486v-18.245M753.759 550.486v-36.49M754.615 550.486V422.77M755.472 550.486V252.483M756.328 550.486v-322.33M757.185 550.486V288.973M758.041 550.486v-322.33M758.898 550.486V222.074M759.754 550.486V161.257M760.61 550.486V258.564M761.467 550.486V355.872M762.323 550.486V179.502M763.18 550.486V100.44M764.036 550.486V209.911M764.893 550.486V130.85M765.75 550.486V240.32M766.606 550.486V392.362M767.462 550.486V325.463M768.318 550.486v-285.84M769.175 550.486v-285.84M770.031 550.486V380.198M770.888 550.486V422.77M771.744 550.486V447.097M772.6 550.486V368.035M773.457 550.486v-79.062M774.313 550.486V447.097M775.17 550.486v-85.144M776.026 550.486v-85.144M776.883 550.486v-139.88M777.74 550.486v-36.49M778.596 550.486v-18.245M779.452 550.486v-54.735M780.309 550.486v-18.245M781.165 550.486V434.934M782.878 550.486v-79.062M783.734 550.486V526.16M784.59 550.486v-30.408M785.447 550.486v-30.408M786.304 550.486v-30.408M787.16 550.486v-12.163M788.016 550.486v-18.245M788.873 550.486v-30.408M789.73 550.486v-36.49M790.586 550.486V526.16M791.442 550.486v-30.408M792.299 550.486v-6.082M793.155 550.486V526.16M794.011 550.486v-12.163M794.868 550.486v-18.245M795.724 550.486v-6.082M797.437 550.486v-12.163M798.294 550.486v-18.245M799.15 550.486v-30.408M800.006 550.486V526.16M800.863 550.486V526.16M801.72 550.486v-6.082M802.576 550.486v-12.163M803.432 550.486v-12.163M804.289 550.486v-48.654M805.145 550.486v-12.163M806.002 550.486v-12.163M806.858 550.486v-30.408M809.427 550.486v-12.163" style="fill:none;stroke:#000;stroke-dasharray:1.5,2.475;stroke-dashoffset:0;stroke-width:1.5"/></g><path clip-path="url(#pa52b731a33)" d="M149.973 550.486h48.816l.857-.869h1.713l.856-.434h.857l1.713-2.607.856-2.606.856-.434.857-1.304.856-.868.857-2.173 1.713-6.516h.856l.856-2.606.857-6.95.856-4.345.857-1.303.856-.869h.857l.856-1.737.856-2.607.857.435.856.868.857-.434.856 1.738.857 1.303.856-1.303.857.434.856 5.647.856 4.779.857-.869.856.869.857-.869.856 2.172h2.57l.856.434.856 1.738 2.57 2.607h1.712l.857 2.172.856 1.303 1.713 4.344.857 2.606.856.87h.857l.856.434.856-1.738.857.434 1.713 1.738.856 1.303h1.713l.856-.434h1.713l.857.434h1.713l.856 1.738.856 1.303 1.713.869.857-.435h1.713l.856-1.303h6.852l.856-.434h.856l.857.434h1.713l.856 1.303h5.139l.856-.868.857.434h.856l.857-.434h2.569l.856-1.738.857.434.856-.434h3.426l.856-1.738.857-.434.856.434h.857l.856-.434h1.713l.856.869.857-.435.856.435h3.426l.856 2.606.857-.869.856-.434h.857l.856.869h1.713l1.713.869h.856l.857-.435h2.569l.856-.434.857 1.303h.856l.857.434h2.57l.855.435h.857l.856-.435.857.435.856-.435h3.426l.856.435 1.713-.869h2.57l.856-.869h.856l.857-.434.856.434h3.426l.856-1.737 1.713.868h2.57l.856-.434 1.713.869h4.282l.857.869.856-.435h2.57l.856-1.303.856 1.303.857-.434h3.425l.857.434h.856l.857.87.856.433h2.57l.856.435.856-.435.857-1.737.856-3.91.857-.869h1.712l.857-.868.856-2.607.857-.434 1.713-4.344 1.712-2.607h.857l1.713.869.856 3.91.857.868h1.713l.856-1.737.856.869.857-1.738h1.713l1.713 2.606.856-4.344.856-.434 1.713-2.606.857-2.173h1.713l.856-5.647h.856l.857 2.172.856-5.213.857-.868h1.713l.856-1.738.857-4.779 1.712-4.344.857-3.91.856-2.171h.857l.856 2.172.857-1.738.856-2.606.856 7.385.857 3.04.856-8.688h.857l.856.87.857 2.171.856.434.856-3.475.857-4.344.856-2.606h.857l.856 1.303.857-1.738.856.435.856-7.82.857-3.91.856 8.689h1.713l.857-.869.856 1.738.857 6.95.856 3.041.856 4.779h.857l.856-6.951.857 2.172.856-9.557.857 5.647.856 3.91h1.713l.856-6.95.857 1.737 1.713-9.991.856 7.385h1.713l.856-2.607.857-4.778.856 5.647.857-4.344.856-5.213.857-4.344h.856l.856 3.475.857-2.606.856 1.737.857.435.856-4.344h1.713l.856 14.335.857-1.303.856 1.738.857 4.778 1.713 8.254h.856l.856-3.91.857 3.041.856 3.91.857 1.737.856-2.606.857-2.172h1.713l.856 9.122.856-6.95 1.713-3.475h1.713l.857 6.516.856-1.303.856.434h.857l.856 4.778.857-.868h1.713l.856-6.082.856 9.122.857 2.173.856.868h.857l.856-3.04.857 5.212 1.713.87.856-3.042.856-1.737.857 3.04h.856l.857-6.95.856 1.738.857-.435h.856l.856-3.91h.857l.856 3.041.857-4.344.856.87.857-1.738.856-.435.856 1.738h1.713l.857-3.041.856 1.303.857-.869h.856l.857 3.91h1.712l.857-4.344.856-.869.857.435.856 2.606.857-.869h.856l.856-3.91.857 5.213.856-.434.857 2.172.856-6.516.857-1.738h1.712l.857 3.041.856-.869 1.713-.869h0l.857.87.856-.435.857 3.91.856.434.856 1.303.857-.869.856 2.607.857 1.737.856-2.172h.857l.856 6.082.856 3.041.857 1.303.856.435h.857l.856.434h.857l.856 1.738 1.713 1.737.856 3.476.857-1.738.856 1.738h.857l.856.434h1.713l.856 2.172.857 1.303h1.713l.856.869.857 1.303.856.87.856 1.737.857 3.91.856.434h.857l.856.869.857.434.856 2.606.856.435.857.869h1.713l.856 1.737h1.713l.856-.869h4.283l.856-.434.857.434h3.425l.857-1.303h.856l.857.87h4.282l.856.433h4.282l.857 1.304.856.434h.857l.856-1.738h4.282l.857-.434h5.138l.857-.434.856 1.303h3.426l1.713-.869h5.138l.857-.434.856-2.172h1.713l.857-9.123.856-.869h.856l1.713-4.344h1.713l.857-3.04.856-1.304.856-.434h.857l.856 2.172h1.713l.857 4.778.856-.434.857-2.172.856.434.856 1.303h1.713l.857-1.303.856.435h.857l.856-.87.856.435h1.713l.857 3.475.856-.434.857 1.738.856.434.856.869h1.713l.857 1.303.856-2.172.857-2.606.856.868.857-2.172h1.712l.857.87.856-3.476.857-1.738.856 2.172.857-2.172h1.712l.857-.869.856 1.738.857 1.303.856-2.606.857.434h1.712l.857-5.647.856 4.778.857.435.856-2.172.857.869h1.712l.857 2.172h1.713l.856 1.737h2.57l.856 3.91 1.713-.869.856 2.172.857-3.475h1.713l.856 1.738.856-1.304 2.57 2.607h1.713l.856-1.738.856-.434.857 2.172.856-1.738.857 3.91h1.713l.856-.869.857 2.172.856.869h.856l.857.434h2.57l.856-.434.856.434.856 1.738h2.57l.856-1.303.857-.435.856-3.91.856.87.857-2.607h1.713l.856.869h.857l.856-.869.857-1.303.856-.435h1.713l.856-4.344.857-1.303.856.869h.857l.856 3.04h1.713l.856-6.08.857-1.304h.856l.857-2.172.856-2.607h1.713l.856.87 1.713-4.345 1.713-8.688h1.713l.856 1.303.857-2.606 1.713-13.033.856.87.857-17.811.856-5.213.856-1.738.857-7.82.856-13.466.857-9.991.856-5.648.857-1.303.856-2.606.856-1.738 1.713-31.277.857-8.688.856-19.983.857-5.647.856-22.59.857-13.466.856-1.738.856-7.82.857-17.81.856-14.335.857-28.671.856-19.549.857-2.172.856 5.213.856 2.607.857-1.738.856 10.86.857 14.336.856 20.417 1.713 16.073.856 19.114.857 26.064 1.713 38.228.856 19.549.857 9.99.856 12.164.857 19.114 1.712 24.327.857 3.475.856 5.648.857 10.86.856 3.475 2.57 15.204.856 7.82h.856l.857-.435.856 1.738.857.869.856 6.516.856-.869.857 4.344.856 1.303.857 2.172.856 1.304.857.868.856-1.303.856-.434.857.434.856 2.172.857.869.856 1.303.857-3.04.856.868h.857l.856-.869.856.435h1.713" style="fill:none;stroke:#000;stroke-linecap:round;stroke-width:1.5" id="line2d_1"/><path d="M117 576.72V77.76" style="fill:none;stroke:#d3d3d3;stroke-linecap:square;stroke-linejoin:miter;stroke-width:1.25" id="patch_3"/><path d="M117 576.72h725.4" style="fill:none;stroke:#d3d3d3;stroke-linecap:square;stroke-linejoin:miter;stroke-width:1.25" id="patch_4"/><g id="matplotlib.axis_1"><g id="xtick_1"><g style="fill:#696969" transform="matrix(.16 0 0 -.16 120.512 598.378)" id="text_1"><defs><path d="M9.813 72.906h9.859V5.078q0-13.187-5-19.14-5-5.954-16.094-5.954h-3.75v8.297h3.078q6.531 0 9.219 3.672Q9.813-4.39 9.813 5.078z" id="DejaVuSans-74"/><path d="M34.281 27.484q-10.89 0-15.093-2.484-4.204-2.484-4.204-8.5 0-4.781 3.157-7.594 3.156-2.797 8.562-2.797 7.485 0 12 5.297 4.516 5.297 4.516 14.078v2zm17.922 3.72V0H43.22v8.297Q40.14 3.328 35.547.953q-4.594-2.375-11.234-2.375-8.391 0-13.36 4.719Q6 8.016 6 15.922q0 9.219 6.172 13.906 6.187 4.688 18.437 4.688h12.61v.89q0 6.203-4.078 9.594-4.078 3.39-11.453 3.39-4.688 0-9.141-1.124-4.438-1.125-8.531-3.375v8.312q4.921 1.906 9.562 2.844 4.64.953 9.031.953 11.875 0 17.735-6.156 5.86-6.14 5.86-18.64z" id="DejaVuSans-97"/><path d="M54.89 33.016V0h-8.984v32.719q0 7.765-3.031 11.61-3.031 3.858-9.078 3.858-7.281 0-11.484-4.64-4.204-4.625-4.204-12.64V0H9.08v54.688h9.03v-8.5q3.235 4.937 7.594 7.374Q30.078 56 35.797 56q9.422 0 14.25-5.828 4.844-5.828 4.844-17.156z" id="DejaVuSans-110"/></defs><use xlink:href="#DejaVuSans-74"/><use x="29.492" xlink:href="#DejaVuSans-97"/><use x="90.771" xlink:href="#DejaVuSans-110"/></g></g><g id="xtick_2"><g style="fill:#696969" transform="matrix(.16 0 0 -.16 196.94 598.378)" id="text_2"><defs><path d="M34.188 63.188 20.797 26.906h26.812zm-5.579 9.718h11.188L67.578 0h-10.25l-6.64 18.703h-32.86L11.188 0H.78z" id="DejaVuSans-65"/><path d="M18.11 8.203v-29H9.077v75.484h9.031v-8.296q2.844 4.875 7.157 7.234Q29.594 56 35.594 56q9.968 0 16.187-7.906 6.235-7.907 6.235-20.797T51.78 6.484q-6.218-7.906-16.187-7.906-6 0-10.328 2.375-4.313 2.375-7.157 7.25zm30.578 19.094q0 9.906-4.079 15.547-4.078 5.64-11.203 5.64-7.14 0-11.218-5.64-4.079-5.64-4.079-15.547 0-9.906 4.078-15.547 4.079-5.64 11.22-5.64 7.124 0 11.202 5.64t4.078 15.547z" id="DejaVuSans-112"/><path d="M41.11 46.297q-1.516.875-3.297 1.281Q36.03 48 33.89 48q-7.625 0-11.703-4.953-4.079-4.953-4.079-14.234V0H9.08v54.688h9.03v-8.5q2.844 4.984 7.375 7.39Q30.031 56 36.531 56q.922 0 2.047-.125 1.125-.11 2.484-.36z" id="DejaVuSans-114"/></defs><use xlink:href="#DejaVuSans-65"/><use x="68.408" xlink:href="#DejaVuSans-112"/><use x="131.885" xlink:href="#DejaVuSans-114"/></g></g><g id="xtick_3"><g style="fill:#696969" transform="matrix(.16 0 0 -.16 279.063 598.378)" id="text_3"><defs><path d="M8.5 21.578v33.11h8.984V21.922q0-7.766 3.016-11.656 3.031-3.875 9.094-3.875 7.265 0 11.484 4.64 4.234 4.64 4.234 12.656v31h8.985V0h-8.984v8.406Q42.047 3.422 37.718 1q-4.313-2.422-10.032-2.422-9.421 0-14.312 5.86Q8.5 10.296 8.5 21.578zM31.11 56z" id="DejaVuSans-117"/><path d="M9.422 75.984h8.984V0H9.422z" id="DejaVuSans-108"/></defs><use xlink:href="#DejaVuSans-74"/><use x="29.492" xlink:href="#DejaVuSans-117"/><use x="92.871" xlink:href="#DejaVuSans-108"/></g></g><g id="xtick_4"><g style="fill:#696969" transform="matrix(.16 0 0 -.16 353.675 598.378)" id="text_4"><defs><path d="M39.406 66.219q-10.75 0-17.078-8.016-6.312-8-6.312-21.828 0-13.766 6.312-21.781 6.328-8 17.078-8 10.735 0 17.016 8 6.281 8.015 6.281 21.781 0 13.828-6.281 21.828-6.281 8.016-17.016 8.016zm0 8q15.328 0 24.5-10.281 9.188-10.282 9.188-27.563 0-17.234-9.188-27.516-9.172-10.28-24.5-10.28-15.375 0-24.593 10.25-9.204 10.265-9.204 27.546t9.204 27.563q9.218 10.28 24.593 10.28z" id="DejaVuSans-79"/><path d="M48.781 52.594v-8.407q-3.812 2.11-7.64 3.157-3.828 1.047-7.735 1.047-8.75 0-13.593-5.547-4.829-5.532-4.829-15.547 0-10.016 4.829-15.563 4.843-5.53 13.593-5.53 3.907 0 7.735 1.046 3.828 1.047 7.64 3.156V2.094Q45.016.344 40.984-.531q-4.015-.89-8.562-.89-12.36 0-19.64 7.765-7.266 7.765-7.266 20.953 0 13.375 7.343 21.031Q20.22 56 33.016 56q4.14 0 8.093-.86 3.953-.843 7.672-2.546z" id="DejaVuSans-99"/><path d="M18.313 70.219V54.688h18.5v-6.985h-18.5V18.016q0-6.688 1.828-8.594 1.828-1.906 7.453-1.906h9.218V0h-9.218q-10.407 0-14.36 3.875-3.953 3.89-3.953 14.14v29.688H2.687v6.984h6.594V70.22z" id="DejaVuSans-116"/></defs><use xlink:href="#DejaVuSans-79"/><use x="78.711" xlink:href="#DejaVuSans-99"/><use x="133.691" xlink:href="#DejaVuSans-116"/></g></g><g id="xtick_5"><g style="fill:#696969" transform="matrix(.16 0 0 -.16 433.967 598.378)" id="text_5"><use xlink:href="#DejaVuSans-74"/><use x="29.492" xlink:href="#DejaVuSans-97"/><use x="90.771" xlink:href="#DejaVuSans-110"/></g></g><g id="xtick_6"><g style="fill:#696969" transform="matrix(.16 0 0 -.16 509.538 598.378)" id="text_6"><use xlink:href="#DejaVuSans-65"/><use x="68.408" xlink:href="#DejaVuSans-112"/><use x="131.885" xlink:href="#DejaVuSans-114"/></g></g><g id="xtick_7"><g style="fill:#696969" transform="matrix(.16 0 0 -.16 591.661 598.378)" id="text_7"><use xlink:href="#DejaVuSans-74"/><use x="29.492" xlink:href="#DejaVuSans-117"/><use x="92.871" xlink:href="#DejaVuSans-108"/></g></g><g id="xtick_8"><g style="fill:#696969" transform="matrix(.16 0 0 -.16 666.273 598.378)" id="text_8"><use xlink:href="#DejaVuSans-79"/><use x="78.711" xlink:href="#DejaVuSans-99"/><use x="133.691" xlink:href="#DejaVuSans-116"/></g></g><g id="xtick_9"><g style="fill:#696969" transform="matrix(.16 0 0 -.16 746.565 598.378)" id="text_9"><use xlink:href="#DejaVuSans-74"/><use x="29.492" xlink:href="#DejaVuSans-97"/><use x="90.771" xlink:href="#DejaVuSans-110"/></g></g><g id="xtick_10"><g style="fill:#696969" transform="matrix(.16 0 0 -.16 822.137 598.378)" id="text_10"><use xlink:href="#DejaVuSans-65"/><use x="68.408" xlink:href="#DejaVuSans-112"/><use x="131.885" xlink:href="#DejaVuSans-114"/></g></g></g><g id="matplotlib.axis_2"><g id="ytick_1"><g style="fill:#696969" transform="matrix(.16 0 0 -.16 97.32 556.565)" id="text_11"><defs><path d="M31.781 66.406q-7.61 0-11.453-7.5Q16.5 51.422 16.5 36.375q0-14.984 3.828-22.484 3.844-7.5 11.453-7.5 7.672 0 11.5 7.5 3.844 7.5 3.844 22.484 0 15.047-3.844 22.531-3.828 7.5-11.5 7.5zm0 7.813q12.266 0 18.735-9.703 6.468-9.688 6.468-28.141 0-18.406-6.468-28.11-6.47-9.687-18.735-9.687-12.25 0-18.718 9.688-6.47 9.703-6.47 28.109 0 18.453 6.47 28.14Q19.53 74.22 31.78 74.22z" id="DejaVuSans-48"/></defs><use xlink:href="#DejaVuSans-48"/></g></g><g id="ytick_2"><g style="fill:#696969" transform="matrix(.16 0 0 -.16 87.14 495.748)" id="text_12"><defs><path d="M12.406 8.297h16.11v55.625l-17.532-3.516v8.985l17.438 3.515h9.86V8.296H54.39V0H12.406z" id="DejaVuSans-49"/></defs><use xlink:href="#DejaVuSans-49"/><use x="63.623" xlink:href="#DejaVuSans-48"/></g></g><g id="ytick_3"><g style="fill:#696969" transform="matrix(.16 0 0 -.16 87.14 434.93)" id="text_13"><defs><path d="M19.188 8.297h34.421V0H7.33v8.297q5.609 5.812 15.296 15.594 9.703 9.797 12.188 12.64 4.734 5.313 6.609 9 1.89 3.688 1.89 7.25 0 5.813-4.078 9.469-4.078 3.672-10.625 3.672-4.64 0-9.797-1.61-5.14-1.609-11-4.89v9.969Q13.767 71.78 18.938 73q5.188 1.219 9.485 1.219 11.328 0 18.062-5.672 6.735-5.656 6.735-15.125 0-4.5-1.688-8.531-1.672-4.016-6.125-9.485-1.218-1.422-7.765-8.187-6.532-6.766-18.453-18.922z" id="DejaVuSans-50"/></defs><use xlink:href="#DejaVuSans-50"/><use x="63.623" xlink:href="#DejaVuSans-48"/></g></g><g id="ytick_4"><g style="fill:#696969" transform="matrix(.16 0 0 -.16 87.14 374.114)" id="text_14"><defs><path d="M40.578 39.313Q47.656 37.797 51.625 33q3.984-4.781 3.984-11.813 0-10.78-7.422-16.703-7.421-5.906-21.093-5.906-4.578 0-9.438.906-4.86.907-10.031 2.72v9.515q4.094-2.39 8.969-3.61 4.89-1.218 10.218-1.218 9.266 0 14.125 3.656 4.86 3.656 4.86 10.64 0 6.454-4.516 10.079-4.515 3.64-12.562 3.64h-8.5v8.11h8.89q7.266 0 11.125 2.906 3.86 2.906 3.86 8.375 0 5.61-3.985 8.61-3.968 3.015-11.39 3.015-4.063 0-8.703-.89-4.641-.876-10.203-2.72v8.782q5.624 1.562 10.53 2.344 4.907.78 9.25.78 11.235 0 17.766-5.109 6.547-5.093 6.547-13.78 0-6.063-3.468-10.235-3.47-4.172-9.86-5.782z" id="DejaVuSans-51"/></defs><use xlink:href="#DejaVuSans-51"/><use x="63.623" xlink:href="#DejaVuSans-48"/></g></g><g id="ytick_5"><g style="fill:#696969" transform="matrix(.16 0 0 -.16 87.14 313.297)" id="text_15"><defs><path d="M37.797 64.313 12.89 25.39h24.906zm-2.594 8.593H47.61V25.391h10.407v-8.203H47.609V0h-9.812v17.188H4.89v9.515z" id="DejaVuSans-52"/></defs><use xlink:href="#DejaVuSans-52"/><use x="63.623" xlink:href="#DejaVuSans-48"/></g></g><g id="ytick_6"><g style="fill:#696969" transform="matrix(.16 0 0 -.16 87.14 252.48)" id="text_16"><defs><path d="M10.797 72.906h38.719v-8.312H19.828v-17.86q2.14.735 4.281 1.094 2.157.36 4.313.36 12.203 0 19.328-6.688 7.14-6.688 7.14-18.11 0-11.765-7.328-18.296-7.328-6.516-20.656-6.516-4.593 0-9.36.781-4.75.782-9.827 2.344v9.922q4.39-2.39 9.078-3.563 4.687-1.171 9.906-1.171 8.453 0 13.375 4.437 4.938 4.438 4.938 12.063 0 7.609-4.938 12.047-4.922 4.453-13.375 4.453-3.953 0-7.89-.875-3.922-.875-8.016-2.735z" id="DejaVuSans-53"/></defs><use xlink:href="#DejaVuSans-53"/><use x="63.623" xlink:href="#DejaVuSans-48"/></g></g><g id="ytick_7"><g style="fill:#696969" transform="matrix(.16 0 0 -.16 87.14 191.663)" id="text_17"><defs><path d="M33.016 40.375q-6.641 0-10.532-4.547-3.875-4.531-3.875-12.437 0-7.86 3.875-12.438 3.891-4.562 10.532-4.562 6.64 0 10.515 4.562 3.875 4.578 3.875 12.438 0 7.906-3.875 12.437-3.875 4.547-10.515 4.547zm19.578 30.922v-8.984q-3.719 1.75-7.5 2.671-3.782.938-7.5.938-9.766 0-14.922-6.594-5.14-6.594-5.875-19.922 2.875 4.25 7.219 6.516 4.359 2.266 9.578 2.266 10.984 0 17.36-6.672 6.374-6.657 6.374-18.125 0-11.235-6.64-18.032-6.641-6.78-17.672-6.78-12.657 0-19.344 9.687-6.688 9.703-6.688 28.109 0 17.281 8.204 27.563 8.203 10.28 22.015 10.28 3.719 0 7.5-.734t7.89-2.187z" id="DejaVuSans-54"/></defs><use xlink:href="#DejaVuSans-54"/><use x="63.623" xlink:href="#DejaVuSans-48"/></g></g><g id="ytick_8"><g style="fill:#696969" transform="matrix(.16 0 0 -.16 87.14 130.846)" id="text_18"><defs><path d="M8.203 72.906h46.875v-4.203L28.61 0H18.312L43.22 64.594H8.203z" id="DejaVuSans-55"/></defs><use xlink:href="#DejaVuSans-55"/><use x="63.623" xlink:href="#DejaVuSans-48"/></g></g><g style="fill:#696969" transform="matrix(0 -.2 -.2 0 78.98 379.813)" id="text_19"><defs><path d="M51.125 44H36.922l-4.11-16.313h14.313zm-7.328 27.781-5.078-20.265h14.265L58.11 71.78h7.813L60.89 51.516h15.234V44h-17.14l-4-16.313h15.53V20.22H53.079L48 0h-7.813l5.032 20.219H30.906L25.875 0h-7.86l5.079 20.219H7.719v7.468h17.187L29 44H13.281v7.516h17.625l4.985 20.265z" id="DejaVuSans-35"/><path d="M30.61 48.39q-7.22 0-11.422-5.64-4.204-5.64-4.204-15.453 0-9.813 4.172-15.453 4.188-5.64 11.453-5.64 7.188 0 11.375 5.655 4.203 5.672 4.203 15.438 0 9.719-4.203 15.406-4.187 5.688-11.375 5.688zm0 7.61q11.718 0 18.406-7.625 6.703-7.61 6.703-21.078 0-13.422-6.703-21.078-6.688-7.64-18.407-7.64-11.765 0-18.437 7.64-6.656 7.656-6.656 21.078 0 13.469 6.656 21.078Q18.844 56 30.609 56z" id="DejaVuSans-111"/><path d="M37.11 75.984V68.5h-8.594q-4.828 0-6.72-1.953-1.874-1.953-1.874-7.031v-4.828h14.797v-6.985H19.922V0H10.89v47.703H2.297v6.984h8.594V58.5q0 9.125 4.25 13.297 4.25 4.187 13.468 4.187z" id="DejaVuSans-102"/><path d="M44.281 53.078v-8.5q-3.797 1.953-7.906 2.922-4.094.984-8.5.984-6.688 0-10.031-2.047-3.344-2.046-3.344-6.156 0-3.125 2.39-4.906 2.391-1.781 9.626-3.39l3.078-.688q9.562-2.047 13.593-5.781 4.032-3.735 4.032-10.422 0-7.625-6.032-12.078-6.03-4.438-16.578-4.438-4.39 0-9.156.86Q10.688.296 5.422 2v9.281q4.984-2.594 9.812-3.89 4.829-1.282 9.579-1.282 6.343 0 9.75 2.172 3.421 2.172 3.421 6.125 0 3.656-2.468 5.61-2.453 1.953-10.813 3.765l-3.125.735q-8.344 1.75-12.062 5.39-3.704 3.64-3.704 9.985 0 7.718 5.47 11.906Q16.75 56 26.811 56q4.97 0 9.36-.734 4.406-.72 8.11-2.188z" id="DejaVuSans-115"/><path d="M56.203 29.594v-4.39H14.891q.593-9.282 5.593-14.142 5-4.859 13.938-4.859 5.172 0 10.031 1.266 4.86 1.265 9.656 3.812v-8.5Q49.266.734 44.187-.344 39.11-1.422 33.892-1.422q-13.094 0-20.735 7.61-7.64 7.625-7.64 20.625 0 13.421 7.25 21.296Q20.016 56 32.328 56q11.031 0 17.453-7.11 6.422-7.093 6.422-19.296zm-8.984 2.64q-.094 7.36-4.125 11.75-4.032 4.407-10.672 4.407-7.516 0-12.031-4.25-4.516-4.25-5.203-11.97z" id="DejaVuSans-101"/></defs><use xlink:href="#DejaVuSans-35"/><use x="83.789" xlink:href="#DejaVuSans-32"/><use x="115.576" xlink:href="#DejaVuSans-111"/><use x="176.758" xlink:href="#DejaVuSans-102"/><use x="211.963" xlink:href="#DejaVuSans-32"/><use x="243.75" xlink:href="#DejaVuSans-99"/><use x="298.73" xlink:href="#DejaVuSans-97"/><use x="360.01" xlink:href="#DejaVuSans-115"/><use x="412.109" xlink:href="#DejaVuSans-101"/><use x="473.633" xlink:href="#DejaVuSans-115"/></g></g><g style="fill:#696969" transform="matrix(.24 0 0 -.24 308.75 71.76)" id="text_20"><defs><path d="M44.39 34.188q3.172-1.079 6.172-4.594 3-3.516 6.032-9.672L66.609 0H56l-9.313 18.703q-3.624 7.328-7.015 9.719-3.39 2.39-9.25 2.39h-10.75V0h-9.86v72.906h22.266q12.5 0 18.656-5.234 6.157-5.219 6.157-15.766 0-6.89-3.203-11.437-3.204-4.532-9.297-6.282zM19.673 64.797V38.922h12.406q7.125 0 10.766 3.297 3.64 3.297 3.64 9.687 0 6.39-3.64 9.64-3.64 3.25-10.766 3.25z" id="DejaVuSans-82"/><path d="M54.89 33.016V0h-8.984v32.719q0 7.765-3.031 11.61-3.031 3.858-9.078 3.858-7.281 0-11.484-4.64-4.204-4.625-4.204-12.64V0H9.08v75.984h9.03V46.188q3.235 4.937 7.594 7.374Q30.078 56 35.797 56q9.422 0 14.25-5.828 4.844-5.828 4.844-17.156z" id="DejaVuSans-104"/><path d="M45.406 46.39v29.594h8.985V0h-8.985v8.203Q42.578 3.328 38.25.953q-4.313-2.375-10.375-2.375-9.906 0-16.14 7.906-6.22 7.922-6.22 20.813 0 12.89 6.22 20.797Q17.968 56 27.874 56q6.063 0 10.375-2.375 4.328-2.36 7.156-7.234zm-30.61-19.093q0-9.906 4.079-15.547 4.078-5.64 11.203-5.64 7.125 0 11.219 5.64 4.11 5.64 4.11 15.547 0 9.906-4.11 15.547-4.094 5.64-11.219 5.64-7.125 0-11.203-5.64-4.078-5.64-4.078-15.547z" id="DejaVuSans-100"/><path d="M9.813 72.906h13.28l32.329-60.984v60.984h9.562V0h-13.28L19.39 60.984V0H9.813z" id="DejaVuSans-78"/><path d="M4.203 54.688h8.985l11.234-42.672 11.172 42.672h10.593l11.235-42.672 11.187 42.672h8.985L63.28 0H52.688L40.922 44.828 29.109 0H18.5z" id="DejaVuSans-119"/><path d="M64.406 67.281v-10.39q-4.984 4.64-10.625 6.922-5.64 2.296-11.984 2.296-12.5 0-19.14-7.64-6.641-7.64-6.641-22.094 0-14.406 6.64-22.047 6.64-7.64 19.14-7.64 6.345 0 11.985 2.296 5.64 2.297 10.625 6.938V5.609Q59.234 2.094 53.437.33q-5.78-1.75-12.218-1.75-16.563 0-26.094 10.124-9.516 10.14-9.516 27.672 0 17.578 9.516 27.703 9.531 10.14 26.094 10.14 6.531 0 12.312-1.734 5.797-1.734 10.875-5.203z" id="DejaVuSans-67"/><path d="M2.984 54.688H12.5L29.594 8.797l17.093 45.89h9.516L35.687 0H23.485z" id="DejaVuSans-118"/><path d="M9.422 54.688h8.984V0H9.422zm0 21.296h8.984v-11.39H9.422z" id="DejaVuSans-105"/></defs><use xlink:href="#DejaVuSans-82"/><use x="64.982" xlink:href="#DejaVuSans-117"/><use x="128.361" xlink:href="#DejaVuSans-116"/><use x="167.57" xlink:href="#DejaVuSans-104"/><use x="230.949" xlink:href="#DejaVuSans-101"/><use x="292.473" xlink:href="#DejaVuSans-114"/><use x="333.586" xlink:href="#DejaVuSans-102"/><use x="368.791" xlink:href="#DejaVuSans-111"/><use x="429.973" xlink:href="#DejaVuSans-114"/><use x="469.336" xlink:href="#DejaVuSans-100"/><use x="532.813" xlink:href="#DejaVuSans-32"/><use x="564.6" xlink:href="#DejaVuSans-78"/><use x="639.404" xlink:href="#DejaVuSans-101"/><use x="700.928" xlink:href="#DejaVuSans-119"/><use x="782.715" xlink:href="#DejaVuSans-32"/><use x="814.502" xlink:href="#DejaVuSans-67"/><use x="884.326" xlink:href="#DejaVuSans-111"/><use x="945.508" xlink:href="#DejaVuSans-118"/><use x="1004.688" xlink:href="#DejaVuSans-105"/><use x="1032.471" xlink:href="#DejaVuSans-100"/><use x="1095.947" xlink:href="#DejaVuSans-32"/><use x="1127.734" xlink:href="#DejaVuSans-67"/><use x="1197.559" xlink:href="#DejaVuSans-97"/><use x="1258.838" xlink:href="#DejaVuSans-115"/><use x="1310.938" xlink:href="#DejaVuSans-101"/><use x="1372.461" xlink:href="#DejaVuSans-115"/></g><g id="legend_1"><path d="M128.2 161.015h144.675q3.2 0 3.2-3.2V88.96q0-3.2-3.2-3.2H128.2q-3.2 0-3.2 3.2v68.855q0 3.2 3.2 3.2z" style="fill:none;opacity:.8;stroke:#ccc;stroke-linejoin:miter" id="patch_5"/><path d="M131.4 98.718h32" style="fill:none;stroke:#000;stroke-linecap:round;stroke-width:1.5" id="line2d_4"/><g style="fill:#696969" transform="matrix(.16 0 0 -.16 176.2 104.317)" id="text_21"><defs><path d="M45.406 27.984q0 9.766-4.031 15.125-4.016 5.375-11.297 5.375-7.219 0-11.25-5.375-4.031-5.359-4.031-15.125 0-9.718 4.031-15.093t11.25-5.375q7.281 0 11.297 5.375 4.031 5.375 4.031 15.093zm8.985-21.203q0-13.953-6.203-20.765Q42-20.797 29.203-20.797q-4.734 0-8.937.703-4.203.703-8.157 2.172v8.735q3.954-2.141 7.813-3.157 3.86-1.031 7.86-1.031 8.843 0 13.234 4.61 4.39 4.609 4.39 13.937v4.453q-2.781-4.844-7.125-7.234Q33.938 0 27.875 0 17.828 0 11.672 7.656q-6.156 7.672-6.156 20.328 0 12.688 6.156 20.344Q17.828 56 27.875 56q6.063 0 10.406-2.39 4.344-2.391 7.125-7.22v8.297h8.985z" id="DejaVuSans-103"/></defs><use xlink:href="#DejaVuSans-49"/><use x="63.623" xlink:href="#DejaVuSans-52"/><use x="127.246" xlink:href="#DejaVuSans-100"/><use x="190.723" xlink:href="#DejaVuSans-32"/><use x="222.51" xlink:href="#DejaVuSans-97"/><use x="283.789" xlink:href="#DejaVuSans-118"/><use x="342.969" xlink:href="#DejaVuSans-103"/></g><path d="M131.4 127.802h32v-11.2h-32z" style="fill:#089fff;opacity:.2;stroke:#fff;stroke-linejoin:miter" id="patch_6"/><g style="fill:#696969" transform="matrix(.16 0 0 -.16 176.2 127.802)" id="text_22"><defs><path d="M8.688 72.906h9.921V28.61q0-11.718 4.235-16.875 4.25-5.14 13.781-5.14 9.469 0 13.719 5.14 4.25 5.157 4.25 16.875v44.297H64.5V27.391q0-14.25-7.063-21.532-7.046-7.28-20.812-7.28-13.828 0-20.89 7.28-7.047 7.282-7.047 21.532z" id="DejaVuSans-85"/><path d="M32.172-5.078q-3.797-9.766-7.422-12.735-3.61-2.984-9.656-2.984H7.906v7.516h5.282q3.703 0 5.75 1.765Q21-9.766 23.483-3.219l1.61 4.094-22.11 53.813H12.5l17.094-42.766 17.093 42.766h9.516z" id="DejaVuSans-121"/></defs><use xlink:href="#DejaVuSans-85"/><use x="73.193" xlink:href="#DejaVuSans-110"/><use x="136.572" xlink:href="#DejaVuSans-99"/><use x="191.553" xlink:href="#DejaVuSans-101"/><use x="253.076" xlink:href="#DejaVuSans-114"/><use x="294.189" xlink:href="#DejaVuSans-116"/><use x="333.398" xlink:href="#DejaVuSans-97"/><use x="394.678" xlink:href="#DejaVuSans-105"/><use x="422.461" xlink:href="#DejaVuSans-110"/><use x="485.84" xlink:href="#DejaVuSans-116"/><use x="525.049" xlink:href="#DejaVuSans-121"/></g><path d="M147.4 151.287v-7.7" style="fill:none;stroke:#000;stroke-dasharray:2.25,3.7125;stroke-dashoffset:0;stroke-width:1.5" id="line2d_6"/><g style="fill:#696969" transform="matrix(.16 0 0 -.16 176.2 151.287)" id="text_23"><defs><path d="M19.672 64.797V8.109h11.922q15.093 0 22.093 6.829 7 6.843 7 21.593 0 14.64-7 21.453-7 6.813-22.093 6.813zm-9.86 8.11h20.266q21.188 0 31.094-8.813 9.922-8.813 9.922-27.563 0-18.86-9.969-27.703Q51.172 0 30.078 0H9.813z" id="DejaVuSans-68"/></defs><use xlink:href="#DejaVuSans-68"/><use x="77.002" xlink:href="#DejaVuSans-97"/><use x="138.281" xlink:href="#DejaVuSans-105"/><use x="166.064" xlink:href="#DejaVuSans-108"/><use x="193.848" xlink:href="#DejaVuSans-121"/><use x="253.027" xlink:href="#DejaVuSans-32"/><use x="284.814" xlink:href="#DejaVuSans-67"/><use x="354.639" xlink:href="#DejaVuSans-97"/><use x="415.918" xlink:href="#DejaVuSans-115"/><use x="468.018" xlink:href="#DejaVuSans-101"/><use x="529.541" xlink:href="#DejaVuSans-115"/></g></g></g></g><defs><clipPath id="pa52b731a33"><path d="M117 77.76h725.4v498.96H117z"/></clipPath></defs></svg>