<svg height="864" viewBox="0 0 936 648" width="1248" xmlns="http://www.w3.org/2000/svg" xmlns:xlink="http://www.w3.org/1999/xlink"><defs><style>*{stroke-linecap:butt;stroke-linejoin:round}</style></defs><g id="figure_1"><path d="M0 648h936V0H0z" style="fill:#fff" id="patch_1"/><g id="axes_1"><path d="M117 576.72h725.4V77.76H117z" style="fill:none" id="patch_2"/><path clip-path="url(#p8b6ebad123)" d="m149.973 338.045 68.125-.139 6.813-.325 1.362-.177 1.363-.31 2.725-1.038 1.362-.725 2.725-1.897 1.363-1.119 5.45-5.229 1.362-1.062 2.725-2.495 4.088-3.033 1.362-.4 1.363.044 1.362.176 1.363.566 1.362.823 1.363.998 2.725 2.955 1.362 1.327 2.726 3.54 2.725 3.374 1.362 1.848 1.363 1.415 2.725 1.7 1.362.705 1.363.48 1.362-.067 1.363-.726 1.362-.499 1.363-.044 2.725-.325 5.45.258 4.087.263 1.363.263 1.362.84 1.363 1.195 1.362.96 1.363.398 4.087.08 4.088-.612 8.175-1.597 2.725-.997 1.362-.05 4.088.207 2.725-.47 2.725-.125 1.362-.137 1.363.02 2.725-.757 4.088.398 1.362-.392 1.363-.647 1.362-.045 1.363.122 1.362-.086 1.363.053 1.362-.178 2.725-.703 2.725-.845 1.363-.907 1.362-1.256 1.363-1.411 2.725-2.189 1.362-1.585 1.363-1.367 2.725-2.144 1.362-.774 4.088-2.853 1.362-.393 1.363.053 1.362.243 2.725.719 2.725 1.24 1.363.172 1.362-.019 2.725-.46 1.363.319 1.362.144 1.363.405 1.362.803 1.363.365 1.362.554 4.088 2.57 1.362.996 1.363.8 1.362 1.481 1.363 1.942 4.088 4.464 1.362 1.292 5.45 4.07 1.363 1.277 1.362 1.088 2.725 1.763 1.363.01 1.362-.331 1.363-.128 1.362-.295 2.725-.08 1.363-.442 1.362-.136 1.363.047 2.725-.147 1.362-.28 1.363-.047 1.362.358 1.363.625 1.362.232 2.725.15 1.363-.258 2.725-.3 2.725-1.33 1.362-1.115 1.363-.721 1.362-.388 1.363-1.337 1.362-1.042 1.363-.524 1.362.421 1.363 1.361 1.362.672 2.725 1.04 1.363.26 1.362.026 1.363-.964 1.362-1.134 2.725-2.666 2.725-.166 1.363-.62 1.363-1.93 1.362-2.298 1.363-.79 1.362-.52 1.363-.993 1.362-.769 1.363-.088 2.725 3.501 4.087 1.574 1.363-.003 1.362.155 1.363-.094 2.725-.95 1.362-1.01 1.363-.526 1.362-.144 2.725-1.279 1.363-.453 1.362-.623 1.363-.758 1.362-1.091 1.363-.46 1.362-.074 2.725.156 1.363-.025 1.362.365 1.363-.5 1.362-1.691 2.725-2.68 1.363-1.393 1.362-.704 1.363-.936 2.725-.927 1.362-.857 2.725-1.461 1.363-1.812 2.725-4.403 2.725-3.626 1.362-2.404 1.363-3.274 1.362-2.73 1.363-2.368 2.725-6.596 1.363-2.411 1.362-1.833 1.363-1.11 1.362-.38 1.363.193 1.362 1.205 1.363 2.391 1.362 2.822 1.363 2.522 2.725 6.023 1.362 8.26 1.363 9.083 2.725 10.003 1.362 4.539 1.363 3.423 1.362 1.314 1.363-4.425 1.362-5.339 1.363-2.679 1.362-3.862 1.363-2.875 1.362-2.296 1.363-1.59 1.362-5.505 1.363-7.233 1.362-3.486 1.363-2.109 1.362-1.363 1.363.783 1.362.997 1.363 5.22 1.362 8.43 1.363 6.62 1.362 5.82 5.45 16.684 1.363 13.562 1.362 9.602 1.363 1.012 1.362 2.659 1.363-.375 1.362.416 1.363-.011 1.362-5.382 1.363-8.817 1.362-7.66 1.363-6.279 1.363-5.26 1.362-4.28 1.363-7.455 1.362-21.43 1.363-13.004 1.362 1.51 1.363-1.23 1.362.862 1.363 1.748 1.362 5.758 1.363 9.968 5.45 48.94 1.362 7.948 1.363 9.007 1.362 16.171 1.363 10.605 1.362 2.2 1.363.482 1.362-.467 1.363 1.798 1.362-.647 2.725-5.396 1.363-2.124 1.362-4.982 1.363-4.309 2.725-1.8 1.362-1.187 2.725-1.967 2.725 5.1 1.363-.995 1.362-.575 1.363-.052 1.362-.538 1.363-.336 1.362 1.582 1.363 1.074 1.362-.681 1.363-.878 1.362-1.085 2.725-3.23 1.363-3.708 1.362-4.31 4.088-9.145 1.363-2.336 1.362-1.748 2.725-5.757 1.363-1.89 1.362-2.19 1.363-1.745 1.362-.962 1.363-.358 1.362-1.689 1.363-1.313 2.725 2.412 1.362.672 1.363.086 1.362-.117 1.363 1.743 1.362 1.17 1.363-1.125 2.725-1.834 2.725-2.037 2.725 3.726 1.362-1.801 1.363-2.313 2.725-3.102 1.362-1.385 2.725-6.773 1.363.303 1.362.138 1.363-.402 2.725.498 2.725-.557 1.362.993 1.363 1.144 4.087.948 1.363 1.059 1.362.572 1.363-1.316 1.362.018 4.088 1.967 1.362.355 1.363 1.302 1.362 1.855 1.363 1.552 1.363 2.07 1.362 1.697 1.363 1.233 1.362 2.022 1.363 2.294 1.362 1.877 1.363.656 1.362.208 1.363-.15 4.087-1.309 1.363-.466 2.725-.07 1.362.197 1.363.383 2.725-1.155 1.362-.027 2.725.218 2.725.033 1.363.612 1.362.264 1.363-.596h0" style="fill:none;stroke:#000;stroke-linecap:round;stroke-width:1.5" id="line2d_1"/><path clip-path="url(#p8b6ebad123)" d="m149.973 338.04 68.125-.098 4.088-.227 1.362-.187 1.363-.32 1.362-.474 2.725-1.772 1.363-1.1 1.362-1.927 1.363-2.787 1.362-3.15 1.363-2.579 1.362-5.418 1.363-7.823 8.175-42.716 1.362-5.523 1.363-7.427 1.362-4.138 2.725-.113 1.363 1.152 1.362 6.005 1.363 8.844 1.362 10.066 1.363 7.745 1.362 9.031 1.363 6.939 2.725 15.472 1.363 5.834 1.362 10.564 1.363 6.92 1.362.998 1.363 2.964 1.362.229 1.363-2.771 1.362 1.228 1.363-1.674 1.362-.709 1.363 2.365 1.362 4.64 1.363 4.144 1.362 5.35 1.363 3.367 1.362-1.1 1.363 1.713 1.362 4.112 1.363 2.152 1.362 4.116 1.363 5.699 1.362.51 1.363 2.081 1.362 4.945 1.363-.058 1.362-1.254 1.363.046 1.362-3.434 1.363-.37 1.362 1.186 1.363-1.272 1.362-2.394 1.363-2.86 2.725-8.862 1.362-2.661 1.363-1.716 1.362-2.95 1.363-1.453 1.362-1.133 1.363-2.353 1.362-1.34 1.363-2.219 1.362-2.44 1.363-1.622 1.362 1.529 1.363 1.946 1.362 2.251 1.363 3.114 1.362 1.837 1.363-.643 2.725-.95 1.363-1.196 1.362-1.04 1.363-.883 1.362.689 1.363 1.463 1.362.551 1.363-1.138 1.362-.842 1.363-.273 1.362-1.447 1.363-1.837 1.362-.733 1.363-1.397 1.362-1.57 1.363-1.026 1.362-.354 1.363-3.185 1.362-4.385 1.363-1.043 1.362-.125 2.725.19 1.363-.851 1.362 2.56 1.363 3.394 1.362-.124 2.725-.456 2.725.14 2.725 7.61 2.725-.24 1.363-.332 1.362-.494 1.363-.169 1.362-3.493 1.363-2.815 1.362.749 1.363.995 1.362 1.18 1.363.27 1.362.035 1.363-.342 2.725-2.588 2.725-3.177 1.362-.633 1.363-.034 1.363.154 2.725-1.94 1.362-.218 1.363-.09 1.362.335 1.363.125 1.362-.229 1.363 1.169 1.362 1.968 2.725 3.09 1.363.75 1.362.157 2.725-1.276 1.363-.063 1.362.185 1.363-.184 1.362-.503 1.363.05 1.362 1.522 1.363 1.346 1.362-.601 1.363-.725 1.362-.061 1.363.394 2.725 1.166 2.725.894 1.362-.764 1.363-1.083 1.362-.42 1.363-.683 1.362-1.65 1.363-1.987 1.362-.19 1.363.776 1.362.09 2.725-.252 1.363.114 1.362.406 1.363-.52 1.362-.292 1.363.555 1.362-.018 1.363-.239 1.362-.125 2.725.091 4.088-.997 1.363-.08 2.725.138 1.362-.4 2.725-1.688 1.363-.072 4.087-.673 1.363-.724 1.362.085 1.363.665 1.362-.153 1.363.068 1.362-.94 1.363-1.499 1.362.613 1.363.98 1.362.655 1.363-.24 1.362-.913 1.363.492 1.362 1.242 1.363.744 1.362-.933 1.363-2.721 1.362-1.19 1.363-.233 1.362.404 1.363.762 1.362-2.325 1.363-1.566 1.362.408 1.363-.729 1.362-1.015 1.363-1.841 1.362-3.386 1.363-.737 2.725 2.005 1.362.784 2.725-3.507 1.363-.34 1.362-1.62 1.363-2.549 1.362-2.153 1.363-3.902 1.362-2.54 1.363-2.237 1.363-2.88 1.362-3.985 1.363-7.182 1.362-3.822 1.363-.16 1.362-.574 1.363-.983 1.362-.641 1.363 2.944 1.362 4.703 1.363.335 1.362 2.054 1.363 4.62 2.725 7.687 1.362 5.544 1.363 9.3 1.362 6.38 1.363.936 1.362 1.32 1.363 2.22 1.362-1.93 1.363-5.065 1.362-7.897 1.363-3.527 1.362.733 1.363-1.545 1.362-.38 1.363 4.869 1.362 1.391 1.363-.072 1.362.241 1.363.428 1.362 1.686 1.363.38 1.362 4.99 2.725 19.177 1.363 6.31 1.362 4.445 1.363 2.557 1.362 1.852 1.363-6.567 1.362-4.118 1.363 4.154 1.362 5.257 1.363 2.185 1.362 1.523 1.363.143 1.362-2.89 2.725-15.22 2.726-203.525 2.725-15.837 2.725-9.43 1.362-13.781 1.363 80.61 1.362 91.681 2.725-5.42 1.363 3.734 1.362 8.004 1.363 9.523 2.725 207.19 1.362 12.22 2.725 32.07 1.363 8.83 1.362 5.158 1.363-87.99 1.362-95.289 1.363 1.648 1.362 5.116 1.363-5.03 1.362-3.941 1.363 1.863 1.362-.76 1.363 1.614 1.362 3.437 1.363-1.049 1.362-1.978 1.363 2.997 1.362 3.991 1.363 2.66 1.362 1.923 1.363-5.904 1.362-6.682 1.363 3.21 1.362 2.311 1.363.118 1.362 3.32 1.363-2.377 1.362-7.803 1.363-6.598 1.362-4.278 1.363-1.905 1.362.59 1.363-4.045 1.362-2.61 1.363 7.867 1.362 6.206 1.363-2.49 1.363-6.626 1.362-9.023 1.363-8.115 1.362-3.243 2.725-3.465 1.363-1.021 1.362-1.953 1.363-1.46 1.362 3.637 1.363 1.557 1.362-4.751 1.363-2.781 1.362-.034 1.363 2.82 1.362 1.356 1.363-1.011 1.362.922 1.363 1.146 1.362-1.998 1.363-2.761 1.362-3.587 1.363-2.494 1.362-1.915 1.363-2.812 1.362.101 1.363 2.884 1.362.916 1.363-.6 1.362-.176 2.725-1.724 1.363.967 1.362-.081 1.363.477 1.362 4.994 2.725 7.258 1.363 6.7 1.362 2.902 1.363-.082 5.45 18.367 1.362 1.3 1.363.155 1.362 4.634 1.363 1.632 1.362-3.587 2.725-3.927 1.363-1.081 1.362 1.224 1.363.145 1.363 1.24 1.362 2.994 1.363 2.655 2.725 47.103 1.362 3.27 1.363 2.505 1.362 3.457 1.363 5.339 1.362 3.533 2.725-40.405 1.363-.997 1.362-.723 1.363-1.023 2.725-3.29 2.725-42.96 1.362.811 1.363 1.35 1.362-.665 2.725-6.248 1.363 18.643 1.362 17.094 1.363-4.917h0" style="fill:none;stroke:#009e73;stroke-linecap:round;stroke-width:1.5" id="line2d_2"/><path clip-path="url(#p8b6ebad123)" d="m149.973 338.04 59.95-.095 5.45-.133 4.088-.247 2.725-.588 1.362-.53 1.363-.93 1.362-1.233 2.725-7.7 1.363-.872 1.362-1.878 1.363-4.077 1.362-3.585 1.363-2.522 1.362-5.462 1.363-8.97 2.725-20.578 1.362-6.998 1.363-8.478 1.362-13.958 2.725-18.226 1.363-18.624 1.362-10.564 1.363-4.57 1.362-7.852 1.363 2.617 1.362 12.745 1.363 15.077 1.362 22.93 1.363 19.23 1.362 14.585 1.363 22.758 1.363 20.065 1.362 9.71 1.363 13.75 1.362 24.542 1.363 13.977 1.362 6.449 1.363 10.07 1.362 1.536 1.363-1.706 1.362.379 1.363-10.943 1.362-5.52 1.363 2.087 1.362-5.177 1.363 1.46 1.362 9.615 1.363 4.818 1.362 1.137 2.725 6.506 1.363 1.63 1.362.437 1.363-1.517 1.362-2.712 1.363 1.972 1.362-.74 1.363-7.548 1.362-6.03 1.363-4.116 1.362-3.3 1.363-2.826 1.362-5.614 1.363-3.66 1.362-.892 1.363-.19 1.362-.777 2.725-10.753 1.363-1.67 1.362-2.275 2.725-4.078 1.363-3.394 1.362-5.576 1.363-3.964 1.362.057 1.363.91 1.362 2.485 1.363 1.84 1.362-.285 2.725 7.491 1.363-2.124 1.363-.284 1.362 1.232 1.363-.038 1.362.152 1.363 1.195 1.362 1.441 1.363-.645 4.087-7.34 1.363.02 1.362-.417 1.363-1.442 1.362 1.328 1.363.607 1.362-.816 1.363.455 1.362 1.423 1.363-4.59 1.362-7.624 1.363-1.119 1.362-.398 1.363-1.176 1.362.228 1.363-1.12 1.362 4.06 1.363 5.84 1.362-.36 1.363-.664 1.362.095 1.363-.114 1.362-.512 1.363 4.855 1.362 7.018 1.363 1.384 1.362 1.82 1.363 2.05 1.362.473 1.363 1.043 1.362-4.646 1.363-5.273 2.725 1.138 1.362-.341 1.363-1.024 1.362-.398 1.363.379 1.362-.057 1.363-.797 1.362-1.877 1.363-1.555 1.362-1.1 1.363-1.67 1.363-1.023 1.362-1.612 1.363-1.328 1.362-.285 1.363.778 1.362 1.195 4.088 2.693 1.362.569 1.363-.019 1.362.322 2.725 2.2 1.363-.569 1.362-1.63 1.363-1.423 1.362-.986 1.363-2.143 1.362-1.233 1.363.474 1.362 2.124 1.363 2.997 1.362 2.37 2.725 5.33 1.363.398 1.362-1.29 1.363-1.63 1.362.777 1.363 1.65 1.362-.038 1.363.74 1.362-.02 1.363-1.024 1.362-2.294 1.363-3.926 1.362-1.707 1.363-.872 1.362-1.935 1.363.247 1.362 1.706 1.363 2.106 1.362 1.346 1.363.02 1.362.644 1.363.853 1.362 1.176 1.363.588 1.362-.664 1.363-.246 2.725-2.03 1.363-.208 1.362-1.935 1.363-1.479 2.725 1.005 1.362.171 2.725-.872 2.725-.36 1.363-.266 2.725-1.309 2.725-.607 1.362.455 1.363.19 2.725-2.465 1.362-.645 1.363-.285 1.362-.151 2.725-2.845 1.363.227 1.362.854 1.363 1.1 1.362-.02 1.363-1.63 1.362-.588 1.363-.342 1.362-.512 1.363.323 2.725-2.181 2.725-.114 1.362.891 1.363.664 1.362-2.446 1.363-2.03 1.362.076 1.363.398 1.362-.018 1.363-1.821 1.362-.607 1.363.815 1.362-2.143 1.363-2.882 1.362-.02 1.363-.948 1.362-3.944 1.363-7.606 1.363-5.5 1.362-1.687 1.363-4.21 1.362-3.244 1.363-1.555 4.087-2.902 1.363 3.035 1.362 3.66 1.363-3.319 1.362-.796 1.363 7.055 1.362 9.862 1.363 4.95 1.362 4.134 1.363 7.245 1.362 4.78 1.363 2.389 1.362.208 1.363-.17 1.362-2.428 1.363-6.145 1.362-5.443 1.363 2.295 1.362 3.566 1.363 1.119 1.362 1.574 1.363 11.113 1.362 5.425 1.363.398 1.362 1.953 1.363-.19 1.362 1.442 1.363 1.119 1.362 1.896 1.363 8.307 1.362 9.9 1.363 4.438 1.362 2.086 1.363-4.532 1.362-6.202 1.363-10.298 1.362-5.747 1.363.74 1.362.493 1.363.853 1.362 3.49 1.363 1.214 1.362-1.1 1.363-4.514 1.362-7.358 2.726-178.692 1.362-9.199 2.725-7.396 1.363-7.017 1.362-11.02 1.363 73.681 1.362 85.648 1.363 1.48 1.362-3.623 1.363 2.238 2.725 11.72 2.725 174.937 1.362 10.602 2.725 29.055 1.363 8.933 1.362 5.082 1.363-77.568 1.362-86.786 1.363-.815 1.362 5.651 2.725-4.532 1.363 1.991 1.362-1.593 1.363 3.622 1.362 7.302 1.363-.74 1.362-7.529 1.363-1.991 2.725 5.69 1.362 2.332 1.363-6.695 1.362-5.632 1.363 4.798 1.362 3.091 1.363.664 1.362 4.362 1.363-4.305 1.362-10.26 1.363-5.064 1.362.664 1.363 2.56 1.362 1.233 1.363-5.235 1.362-3.926 1.363 6.316 1.362 1.859 2.726-18.15 1.362-6.43 1.363-8.401 1.362-.873 1.363.095 1.362-2.484 1.363 1.043 1.362 2.56 1.363.683 1.362 6.486 1.363 4.647 1.362-2.049 1.363 1.783 1.362 4.21 1.363 2.504 1.362-2.447 1.363.797 1.362 1.915 1.363 1.214 1.362-.569 1.363-4.115 1.362-9.37 1.363-4.513 1.362-3.091 1.363-3.604 1.362.55 1.363 3.395 1.362.303 1.363-1.517 1.362.209 1.363-1.214 1.362-.076 1.363-1.783 1.362-4.419 1.363 2.01 1.362 9.313 1.363 6.24 1.362 3.906 1.363 5.235 1.362 4.02 1.363.228 1.362 6.486 1.363 9.654 1.362 7.624 1.363 6.087 1.362 2.864 1.363 6.183 1.362 9.312 1.363-.076 1.362-5.158 1.363-2.333 1.362-.55 1.363-1.024 1.362-1.707 1.363-1.138 1.363-.531 1.362-.095 1.363-.247 2.725 4.173 2.725.398 1.362 2.067 1.363 4.249 1.362 2.275 1.363-3.394 1.362-2.693 1.363-21.697 1.362-26.286 1.363-5.955 1.362-2.541 1.363-2.049 1.362-3.394 1.363-2.694 1.362 19.971 1.363 25.698 1.362 4.097 2.725-8.023 1.363.323 1.362.057 1.363-2.143h0" style="fill:none;stroke:#d55e00;stroke-linecap:round;stroke-width:1.5" id="line2d_3"/><path clip-path="url(#p8b6ebad123)" d="M149.973 338.04h76.3l2.725-3.864h1.363l2.725-1.932 1.362-2.898 1.363-5.796 1.362-6.761 1.363-4.83 2.725-7.727 1.362-5.796 1.363-9.66 1.362-8.693 1.363 1.932 1.362.966 1.363-17.387 1.362-20.285 1.363-5.795 1.362 7.727 1.363 12.557 1.362 2.898 1.363-3.864 1.362 16.421 1.363 28.013 1.362 13.523 1.363 7.727 1.363 8.694 1.362 3.863 1.363 7.728 1.362 18.353 1.363 20.285 1.362 7.727 1.363-2.898 1.362-6.761 1.363 2.897 1.362 6.762 1.363-13.523 1.362-23.183 1.363-7.727 1.362 4.83 1.363 5.795 1.362.966 1.363-.966 1.362 1.932h1.363l1.362 3.864 1.363 2.898 1.362 1.932 1.363 5.795 1.362 6.762 1.363 5.795 1.362 1.932 1.363-3.864 2.725-21.25 2.725-13.523 1.362-2.898 1.363.966 1.362-.966 2.725 3.864 2.725-5.796 1.363-3.864 1.362-2.898 1.363 3.864 1.362 7.728 1.363 4.83 1.362 1.931 1.363-.966 1.362-1.932h1.363l1.362-6.761 1.363-9.66 1.362-3.863 1.363-1.932h1.362l1.363.966h1.363l2.725 5.795 2.725-1.931 2.725 1.931h1.362l2.725 5.796 2.725 1.932 2.725-1.932h1.363l1.362-4.83 1.363-3.863 1.362.966 2.725-1.932h2.725l2.725-3.864 1.363-.966h1.362l1.363.966h4.087l1.363-1.932h1.362l1.363 1.932 2.725-1.932h1.362l2.725 11.591h2.725l2.725 1.932h1.363l1.362 3.864 1.363 2.898 1.362-2.898 1.363-1.932 2.725 3.864h1.362l1.363-4.83 1.362-1.932 1.363 3.864h1.363l1.362-2.898 1.363-1.932h1.362l1.363-1.932h1.362l4.088 5.796h2.725l1.362 1.932 1.363-.966 1.362-3.864 4.088-2.898h1.362l2.725-1.931 1.363 1.931h1.362l1.363-1.931h4.087l1.363-1.932 1.362-2.898 1.363-.966 2.725 3.864h2.725l1.362 1.932 2.725-3.864 1.363 1.932h4.087l1.363-.966 1.362 3.863 1.363 4.83 2.725-1.932h2.725l1.362.966 1.363 1.932 1.362-.966 1.363-1.932h2.725l1.363-2.898h2.725l1.362-1.931 1.363.966h2.725l1.362 3.863 1.363.966h1.362l1.363 3.864 1.362.966h4.088l1.362-.966 1.363-6.762 1.362-15.455 1.363-11.59 1.362-1.933h1.363l1.362-2.898 1.363-7.727 1.362-1.932 1.363 6.762 1.362.966 2.725-11.592 1.363-.966 2.725 17.387 1.362 15.455 1.363 20.285 1.362 9.66 1.363 5.795 1.362-.966 1.363-2.898 1.362-3.863 1.363-13.524 1.362-10.625 1.363.966 1.362 5.796 1.363-2.898 1.362-8.694 2.725-3.863 2.725-15.455 2.725-11.592 1.363-1.932 1.362 8.694 1.363-.966 1.363-5.796 1.362 2.898h1.363l1.362 8.694 1.363-1.932 1.362-20.285 1.363-2.898h1.362l1.363-11.591 1.362-4.83 1.363 8.694 1.362 15.455 1.363 5.795 1.362 20.285 1.363 36.706 1.362.966 1.363-14.49 1.362-2.897 1.363 5.795 1.362 15.455 1.363-17.387 1.362-40.569 1.363-2.898 1.362 13.523 1.363.966 1.362-7.727 1.363-8.694 1.362-9.659 1.363-8.693 2.725 51.194 1.362-2.898 1.363-.965 1.362 4.83 1.363 35.739 1.362 48.297 1.363 6.761 1.362-8.693 1.363-15.455 1.362-8.693 1.363-18.353 1.362-28.013 1.363-.965 1.362-8.694 1.363-10.625h1.362l1.363-.966 1.362 8.693 1.363-13.523 1.362-15.455 1.363 7.728h1.362l1.363 9.659 1.363-4.83 1.362 9.66 1.363 25.114 1.362-27.046 1.363-37.672 1.362-9.66 1.363 13.524 1.362 18.353 1.363-3.864 1.362 1.932 2.725 24.148 1.363 9.66 1.362 24.148 1.363 27.047 1.362 2.897 1.363 9.66 2.725 56.024 1.362 9.66 1.363-40.57 1.362-30.91 1.363 14.49 1.362-1.933 1.363-21.25 1.362-28.978 1.363-14.49 1.362 8.694 1.363 22.216L665 358.324l1.363-31.876 1.362-5.795 1.363 6.761 1.362 4.83 1.363 14.489 1.362-8.694 1.363-6.761 1.362 20.285 1.363 18.352 1.362 12.558 1.363-1.932 1.362-14.49 1.363-25.114 1.362 8.694 1.363 24.148 1.362-3.864 1.363-6.761 1.362-4.83 1.363 4.83 1.362 26.08 1.363-4.83 1.362-30.91 1.363-17.386 1.363.965 1.362 13.524 1.363-20.285 1.362-24.149 1.363.966 1.362 4.83 1.363 1.932 1.362-11.591h1.363l1.362 12.557 1.363 3.864 1.362-4.83 1.363-3.864 1.362 11.591 1.363 12.558 1.362-6.762 1.363-3.864 1.362 3.864 2.725 5.796 1.363 5.795 1.362 4.83h1.363l1.362-2.898 1.363-7.727 1.362-1.932 1.363 8.693 1.362-4.83 1.363-10.625 1.362-8.693 1.363 12.557 1.362 22.217 1.363 4.83 1.362-16.422 1.363-22.216 1.362-1.932 1.363 8.693 1.362 3.864 1.363-5.796 1.362-6.761 2.725 7.727v19.32l1.363 4.829 1.362 7.727 1.363 2.898 1.362-.966 1.363 3.864 1.362 5.796 1.363 8.693 1.362-1.932 1.363-12.557 1.362 3.864 1.363 16.42 1.362 7.728h1.363l1.363-7.727 1.362 1.932 1.363 5.795 1.362-9.66 1.363-14.488 1.362-4.83 1.363 5.796 1.362 1.932 1.363-.966 1.362 2.897 1.363-2.897 1.362-4.83 1.363-3.864 1.362-4.83 1.363 3.864 1.362 2.898 1.363-3.864 1.362.966 1.363 3.864 1.362 4.83 1.363.966 1.362 4.83 1.363 6.76 1.362.967h1.363l1.362-1.932 1.363 1.932 1.362 5.795h0" style="fill:none;stroke:#0072b2;stroke-linecap:round;stroke-width:1.5" id="line2d_4"/><path clip-path="url(#p8b6ebad123)" d="M117 338.04h725.4" style="fill:none;stroke:red;stroke-dasharray:1.5,2.475;stroke-dashoffset:0;stroke-width:1.5" id="line2d_5"/><path d="M117 576.72V77.76" style="fill:none;stroke:#d3d3d3;stroke-linecap:square;stroke-linejoin:miter;stroke-width:1.25" id="patch_3"/><path d="M117 576.72h725.4" style="fill:none;stroke:#d3d3d3;stroke-linecap:square;stroke-linejoin:miter;stroke-width:1.25" id="patch_4"/><g id="matplotlib.axis_1"><g id="xtick_1"><g style="fill:#696969" transform="matrix(.16 0 0 -.16 110.39 598.378)" id="text_1"><defs><path d="M9.813 72.906h9.859V5.078q0-13.187-5-19.14-5-5.954-16.094-5.954h-3.75v8.297h3.078q6.531 0 9.219 3.672Q9.813-4.39 9.813 5.078z" id="DejaVuSans-74"/><path d="M34.281 27.484q-10.89 0-15.093-2.484-4.204-2.484-4.204-8.5 0-4.781 3.157-7.594 3.156-2.797 8.562-2.797 7.485 0 12 5.297 4.516 5.297 4.516 14.078v2zm17.922 3.72V0H43.22v8.297Q40.14 3.328 35.547.953q-4.594-2.375-11.234-2.375-8.391 0-13.36 4.719Q6 8.016 6 15.922q0 9.219 6.172 13.906 6.187 4.688 18.437 4.688h12.61v.89q0 6.203-4.078 9.594-4.078 3.39-11.453 3.39-4.688 0-9.141-1.124-4.438-1.125-8.531-3.375v8.312q4.921 1.906 9.562 2.844 4.64.953 9.031.953 11.875 0 17.735-6.156 5.86-6.14 5.86-18.64z" id="DejaVuSans-97"/><path d="M54.89 33.016V0h-8.984v32.719q0 7.765-3.031 11.61-3.031 3.858-9.078 3.858-7.281 0-11.484-4.64-4.204-4.625-4.204-12.64V0H9.08v54.688h9.03v-8.5q3.235 4.937 7.594 7.374Q30.078 56 35.797 56q9.422 0 14.25-5.828 4.844-5.828 4.844-17.156z" id="DejaVuSans-110"/></defs><use xlink:href="#DejaVuSans-74"/><use x="29.492" xlink:href="#DejaVuSans-97"/><use x="90.771" xlink:href="#DejaVuSans-110"/></g></g><g id="xtick_2"><g style="fill:#696969" transform="matrix(.16 0 0 -.16 189.38 598.378)" id="text_2"><defs><path d="M9.813 72.906h14.703l18.593-49.61 18.703 49.61h14.704V0H66.89v64.016l-18.797-50h-9.907l-18.796 50V0H9.813z" id="DejaVuSans-77"/><path d="M41.11 46.297q-1.516.875-3.297 1.281Q36.03 48 33.89 48q-7.625 0-11.703-4.953-4.079-4.953-4.079-14.234V0H9.08v54.688h9.03v-8.5q2.844 4.984 7.375 7.39Q30.031 56 36.531 56q.922 0 2.047-.125 1.125-.11 2.484-.36z" id="DejaVuSans-114"/></defs><use xlink:href="#DejaVuSans-77"/><use x="86.279" xlink:href="#DejaVuSans-97"/><use x="147.559" xlink:href="#DejaVuSans-114"/></g></g><g id="xtick_3"><g style="fill:#696969" transform="matrix(.16 0 0 -.16 271.046 598.378)" id="text_3"><defs><path d="M32.172-5.078q-3.797-9.766-7.422-12.735-3.61-2.984-9.656-2.984H7.906v7.516h5.282q3.703 0 5.75 1.765Q21-9.766 23.483-3.219l1.61 4.094-22.11 53.813H12.5l17.094-42.766 17.093 42.766h9.516z" id="DejaVuSans-121"/></defs><use xlink:href="#DejaVuSans-77"/><use x="86.279" xlink:href="#DejaVuSans-97"/><use x="147.559" xlink:href="#DejaVuSans-121"/></g></g><g id="xtick_4"><g style="fill:#696969" transform="matrix(.16 0 0 -.16 361.047 598.378)" id="text_4"><defs><path d="M8.5 21.578v33.11h8.984V21.922q0-7.766 3.016-11.656 3.031-3.875 9.094-3.875 7.265 0 11.484 4.64 4.234 4.64 4.234 12.656v31h8.985V0h-8.984v8.406Q42.047 3.422 37.718 1q-4.313-2.422-10.032-2.422-9.421 0-14.312 5.86Q8.5 10.296 8.5 21.578zM31.11 56z" id="DejaVuSans-117"/><path d="M9.422 75.984h8.984V0H9.422z" id="DejaVuSans-108"/></defs><use xlink:href="#DejaVuSans-74"/><use x="29.492" xlink:href="#DejaVuSans-117"/><use x="92.871" xlink:href="#DejaVuSans-108"/></g></g><g id="xtick_5"><g style="fill:#696969" transform="matrix(.16 0 0 -.16 440.095 598.378)" id="text_5"><defs><path d="M53.516 70.516V60.89q-5.61 2.687-10.594 4-4.984 1.328-9.625 1.328-8.047 0-12.422-3.125t-4.375-8.89q0-4.845 2.906-7.313 2.907-2.453 11.016-3.97l5.953-1.218q11.031-2.11 16.281-7.406 5.25-5.297 5.25-14.172 0-10.61-7.11-16.078-7.093-5.469-20.812-5.469-5.172 0-11.015 1.172Q13.14.922 6.89 3.219v10.156q6-3.36 11.765-5.078 5.766-1.703 11.328-1.703 8.438 0 13.032 3.312 4.593 3.328 4.593 9.485 0 5.359-3.297 8.39-3.296 3.032-10.812 4.547L27.484 33.5q-11.03 2.188-15.968 6.875-4.922 4.688-4.922 13.047 0 9.672 6.812 15.234 6.813 5.563 18.766 5.563 5.14 0 10.453-.938 5.328-.922 10.89-2.765z" id="DejaVuSans-83"/><path d="M56.203 29.594v-4.39H14.891q.593-9.282 5.593-14.142 5-4.859 13.938-4.859 5.172 0 10.031 1.266 4.86 1.265 9.656 3.812v-8.5Q49.266.734 44.187-.344 39.11-1.422 33.892-1.422q-13.094 0-20.735 7.61-7.64 7.625-7.64 20.625 0 13.421 7.25 21.296Q20.016 56 32.328 56q11.031 0 17.453-7.11 6.422-7.093 6.422-19.296zm-8.984 2.64q-.094 7.36-4.125 11.75-4.032 4.407-10.672 4.407-7.516 0-12.031-4.25-4.516-4.25-5.203-11.97z" id="DejaVuSans-101"/><path d="M18.11 8.203v-29H9.077v75.484h9.031v-8.296q2.844 4.875 7.157 7.234Q29.594 56 35.594 56q9.968 0 16.187-7.906 6.235-7.907 6.235-20.797T51.78 6.484q-6.218-7.906-16.187-7.906-6 0-10.328 2.375-4.313 2.375-7.157 7.25zm30.578 19.094q0 9.906-4.079 15.547-4.078 5.64-11.203 5.64-7.14 0-11.218-5.64-4.079-5.64-4.079-15.547 0-9.906 4.078-15.547 4.079-5.64 11.22-5.64 7.124 0 11.202 5.64t4.078 15.547z" id="DejaVuSans-112"/></defs><use xlink:href="#DejaVuSans-83"/><use x="63.477" xlink:href="#DejaVuSans-101"/><use x="125" xlink:href="#DejaVuSans-112"/></g></g><g id="xtick_6"><g style="fill:#696969" transform="matrix(.16 0 0 -.16 522.673 598.378)" id="text_6"><defs><path d="M9.813 72.906h13.28l32.329-60.984v60.984h9.562V0h-13.28L19.39 60.984V0H9.813z" id="DejaVuSans-78"/><path d="M30.61 48.39q-7.22 0-11.422-5.64-4.204-5.64-4.204-15.453 0-9.813 4.172-15.453 4.188-5.64 11.453-5.64 7.188 0 11.375 5.655 4.203 5.672 4.203 15.438 0 9.719-4.203 15.406-4.187 5.688-11.375 5.688zm0 7.61q11.718 0 18.406-7.625 6.703-7.61 6.703-21.078 0-13.422-6.703-21.078-6.688-7.64-18.407-7.64-11.765 0-18.437 7.64-6.656 7.656-6.656 21.078 0 13.469 6.656 21.078Q18.844 56 30.609 56z" id="DejaVuSans-111"/><path d="M2.984 54.688H12.5L29.594 8.797l17.093 45.89h9.516L35.687 0H23.485z" id="DejaVuSans-118"/></defs><use xlink:href="#DejaVuSans-78"/><use x="74.805" xlink:href="#DejaVuSans-111"/><use x="135.986" xlink:href="#DejaVuSans-118"/></g></g><g id="xtick_7"><g style="fill:#696969" transform="matrix(.16 0 0 -.16 609.068 598.378)" id="text_7"><use xlink:href="#DejaVuSans-74"/><use x="29.492" xlink:href="#DejaVuSans-97"/><use x="90.771" xlink:href="#DejaVuSans-110"/></g></g><g id="xtick_8"><g style="fill:#696969" transform="matrix(.16 0 0 -.16 686.695 598.378)" id="text_8"><use xlink:href="#DejaVuSans-77"/><use x="86.279" xlink:href="#DejaVuSans-97"/><use x="147.559" xlink:href="#DejaVuSans-114"/></g></g><g id="xtick_9"><g style="fill:#696969" transform="matrix(.16 0 0 -.16 768.362 598.378)" id="text_9"><use xlink:href="#DejaVuSans-77"/><use x="86.279" xlink:href="#DejaVuSans-97"/><use x="147.559" xlink:href="#DejaVuSans-121"/></g></g></g><g id="matplotlib.axis_2"><g id="ytick_1"><g style="fill:#696969" transform="matrix(.16 0 0 -.16 83.912 552.03)" id="text_10"><defs><path d="M10.594 35.5h62.593v-8.297H10.594z" id="DejaVuSans-8722"/><path d="M33.016 40.375q-6.641 0-10.532-4.547-3.875-4.531-3.875-12.437 0-7.86 3.875-12.438 3.891-4.562 10.532-4.562 6.64 0 10.515 4.562 3.875 4.578 3.875 12.438 0 7.906-3.875 12.437-3.875 4.547-10.515 4.547zm19.578 30.922v-8.984q-3.719 1.75-7.5 2.671-3.782.938-7.5.938-9.766 0-14.922-6.594-5.14-6.594-5.875-19.922 2.875 4.25 7.219 6.516 4.359 2.266 9.578 2.266 10.984 0 17.36-6.672 6.374-6.657 6.374-18.125 0-11.235-6.64-18.032-6.641-6.78-17.672-6.78-12.657 0-19.344 9.687-6.688 9.703-6.688 28.109 0 17.281 8.204 27.563 8.203 10.28 22.015 10.28 3.719 0 7.5-.734t7.89-2.187z" id="DejaVuSans-54"/></defs><use xlink:href="#DejaVuSans-8722"/><use x="83.789" xlink:href="#DejaVuSans-54"/></g></g><g id="ytick_2"><g style="fill:#696969" transform="matrix(.16 0 0 -.16 83.912 482.726)" id="text_11"><defs><path d="M37.797 64.313 12.89 25.39h24.906zm-2.594 8.593H47.61V25.391h10.407v-8.203H47.609V0h-9.812v17.188H4.89v9.515z" id="DejaVuSans-52"/></defs><use xlink:href="#DejaVuSans-8722"/><use x="83.789" xlink:href="#DejaVuSans-52"/></g></g><g id="ytick_3"><g style="fill:#696969" transform="matrix(.16 0 0 -.16 83.912 413.422)" id="text_12"><defs><path d="M19.188 8.297h34.421V0H7.33v8.297q5.609 5.812 15.296 15.594 9.703 9.797 12.188 12.64 4.734 5.313 6.609 9 1.89 3.688 1.89 7.25 0 5.813-4.078 9.469-4.078 3.672-10.625 3.672-4.64 0-9.797-1.61-5.14-1.609-11-4.89v9.969Q13.767 71.78 18.938 73q5.188 1.219 9.485 1.219 11.328 0 18.062-5.672 6.735-5.656 6.735-15.125 0-4.5-1.688-8.531-1.672-4.016-6.125-9.485-1.218-1.422-7.765-8.187-6.532-6.766-18.453-18.922z" id="DejaVuSans-50"/></defs><use xlink:href="#DejaVuSans-8722"/><use x="83.789" xlink:href="#DejaVuSans-50"/></g></g><g id="ytick_4"><g style="fill:#696969" transform="matrix(.16 0 0 -.16 97.32 344.118)" id="text_13"><defs><path d="M31.781 66.406q-7.61 0-11.453-7.5Q16.5 51.422 16.5 36.375q0-14.984 3.828-22.484 3.844-7.5 11.453-7.5 7.672 0 11.5 7.5 3.844 7.5 3.844 22.484 0 15.047-3.844 22.531-3.828 7.5-11.5 7.5zm0 7.813q12.266 0 18.735-9.703 6.468-9.688 6.468-28.141 0-18.406-6.468-28.11-6.47-9.687-18.735-9.687-12.25 0-18.718 9.688-6.47 9.703-6.47 28.109 0 18.453 6.47 28.14Q19.53 74.22 31.78 74.22z" id="DejaVuSans-48"/></defs><use xlink:href="#DejaVuSans-48"/></g></g><g id="ytick_5"><use xlink:href="#DejaVuSans-50" style="fill:#696969" transform="matrix(.16 0 0 -.16 97.32 274.814)" id="text_14"/></g><g id="ytick_6"><use xlink:href="#DejaVuSans-52" style="fill:#696969" transform="matrix(.16 0 0 -.16 97.32 205.51)" id="text_15"/></g><g id="ytick_7"><use xlink:href="#DejaVuSans-54" style="fill:#696969" transform="matrix(.16 0 0 -.16 97.32 136.206)" id="text_16"/></g><g style="fill:#696969" transform="matrix(0 -.2 -.2 0 75.753 445.117)" id="text_17"><defs><path d="M64.406 67.281v-10.39q-4.984 4.64-10.625 6.922-5.64 2.296-11.984 2.296-12.5 0-19.14-7.64-6.641-7.64-6.641-22.094 0-14.406 6.64-22.047 6.64-7.64 19.14-7.64 6.345 0 11.985 2.296 5.64 2.297 10.625 6.938V5.609Q59.234 2.094 53.437.33q-5.78-1.75-12.218-1.75-16.563 0-26.094 10.124-9.516 10.14-9.516 27.672 0 17.578 9.516 27.703 9.531 10.14 26.094 10.14 6.531 0 12.312-1.734 5.797-1.734 10.875-5.203z" id="DejaVuSans-67"/><path d="M44.281 53.078v-8.5q-3.797 1.953-7.906 2.922-4.094.984-8.5.984-6.688 0-10.031-2.047-3.344-2.046-3.344-6.156 0-3.125 2.39-4.906 2.391-1.781 9.626-3.39l3.078-.688q9.562-2.047 13.593-5.781 4.032-3.735 4.032-10.422 0-7.625-6.032-12.078-6.03-4.438-16.578-4.438-4.39 0-9.156.86Q10.688.296 5.422 2v9.281q4.984-2.594 9.812-3.89 4.829-1.282 9.579-1.282 6.343 0 9.75 2.172 3.421 2.172 3.421 6.125 0 3.656-2.468 5.61-2.453 1.953-10.813 3.765l-3.125.735q-8.344 1.75-12.062 5.39-3.704 3.64-3.704 9.985 0 7.718 5.47 11.906Q16.75 56 26.811 56q4.97 0 9.36-.734 4.406-.72 8.11-2.188z" id="DejaVuSans-115"/><path d="M44.39 34.188q3.172-1.079 6.172-4.594 3-3.516 6.032-9.672L66.609 0H56l-9.313 18.703q-3.624 7.328-7.015 9.719-3.39 2.39-9.25 2.39h-10.75V0h-9.86v72.906h22.266q12.5 0 18.656-5.234 6.157-5.219 6.157-15.766 0-6.89-3.203-11.437-3.204-4.532-9.297-6.282zM19.673 64.797V38.922h12.406q7.125 0 10.766 3.297 3.64 3.297 3.64 9.687 0 6.39-3.64 9.64-3.64 3.25-10.766 3.25z" id="DejaVuSans-82"/><path d="M18.313 70.219V54.688h18.5v-6.985h-18.5V18.016q0-6.688 1.828-8.594 1.828-1.906 7.453-1.906h9.218V0h-9.218q-10.407 0-14.36 3.875-3.953 3.89-3.953 14.14v29.688H2.687v6.984h6.594V70.22z" id="DejaVuSans-116"/><path d="M8.594 75.984h20.703V69H17.578V-6.203h11.719v-6.984H8.594z" id="DejaVuSans-91"/><path d="M48.781 52.594v-8.407q-3.812 2.11-7.64 3.157-3.828 1.047-7.735 1.047-8.75 0-13.593-5.547-4.829-5.532-4.829-15.547 0-10.016 4.829-15.563 4.843-5.53 13.593-5.53 3.907 0 7.735 1.046 3.828 1.047 7.64 3.156V2.094Q45.016.344 40.984-.531q-4.015-.89-8.562-.89-12.36 0-19.64 7.765-7.266 7.765-7.266 20.953 0 13.375 7.343 21.031Q20.22 56 33.016 56q4.14 0 8.093-.86 3.953-.843 7.672-2.546z" id="DejaVuSans-99"/><path d="M25.39 72.906h8.297L8.297-9.28H0z" id="DejaVuSans-47"/><path d="M45.406 46.39v29.594h8.985V0h-8.985v8.203Q42.578 3.328 38.25.953q-4.313-2.375-10.375-2.375-9.906 0-16.14 7.906-6.22 7.922-6.22 20.813 0 12.89 6.22 20.797Q17.968 56 27.874 56q6.063 0 10.375-2.375 4.328-2.36 7.156-7.234zm-30.61-19.093q0-9.906 4.079-15.547 4.078-5.64 11.203-5.64 7.125 0 11.219 5.64 4.11 5.64 4.11 15.547 0 9.906-4.11 15.547-4.094 5.64-11.219 5.64-7.125 0-11.203-5.64-4.078-5.64-4.078-15.547z" id="DejaVuSans-100"/><path d="M30.422 75.984v-89.171H9.719v6.984H21.39V69H9.719v6.984z" id="DejaVuSans-93"/></defs><use xlink:href="#DejaVuSans-67"/><use x="69.824" xlink:href="#DejaVuSans-97"/><use x="131.104" xlink:href="#DejaVuSans-115"/><use x="183.203" xlink:href="#DejaVuSans-101"/><use x="244.727" xlink:href="#DejaVuSans-32"/><use x="276.514" xlink:href="#DejaVuSans-82"/><use x="343.746" xlink:href="#DejaVuSans-97"/><use x="405.025" xlink:href="#DejaVuSans-116"/><use x="444.234" xlink:href="#DejaVuSans-101"/><use x="505.758" xlink:href="#DejaVuSans-32"/><use x="537.545" xlink:href="#DejaVuSans-91"/><use x="576.559" xlink:href="#DejaVuSans-32"/><use x="608.346" xlink:href="#DejaVuSans-99"/><use x="663.326" xlink:href="#DejaVuSans-97"/><use x="724.605" xlink:href="#DejaVuSans-115"/><use x="776.705" xlink:href="#DejaVuSans-101"/><use x="838.229" xlink:href="#DejaVuSans-115"/><use x="890.328" xlink:href="#DejaVuSans-47"/><use x="924.02" xlink:href="#DejaVuSans-100"/><use x="987.496" xlink:href="#DejaVuSans-97"/><use x="1048.775" xlink:href="#DejaVuSans-121"/><use x="1107.955" xlink:href="#DejaVuSans-32"/><use x="1139.742" xlink:href="#DejaVuSans-93"/></g></g><g style="fill:#696969" transform="matrix(.24 0 0 -.24 238.224 71.76)" id="text_18"><defs><path d="M4.203 54.688h8.985l11.234-42.672 11.172 42.672h10.593l11.235-42.672 11.187 42.672h8.985L63.28 0H52.688L40.922 44.828 29.109 0H18.5z" id="DejaVuSans-119"/><path d="M8.203 72.906h46.875v-4.203L28.61 0H18.312L43.22 64.594H8.203z" id="DejaVuSans-55"/><path d="M45.406 27.984q0 9.766-4.031 15.125-4.016 5.375-11.297 5.375-7.219 0-11.25-5.375-4.031-5.359-4.031-15.125 0-9.718 4.031-15.093t11.25-5.375q7.281 0 11.297 5.375 4.031 5.375 4.031 15.093zm8.985-21.203q0-13.953-6.203-20.765Q42-20.797 29.203-20.797q-4.734 0-8.937.703-4.203.703-8.157 2.172v8.735q3.954-2.141 7.813-3.157 3.86-1.031 7.86-1.031 8.843 0 13.234 4.61 4.39 4.609 4.39 13.937v4.453q-2.781-4.844-7.125-7.234Q33.938 0 27.875 0 17.828 0 11.672 7.656q-6.156 7.672-6.156 20.328 0 12.688 6.156 20.344Q17.828 56 27.875 56q6.063 0 10.406-2.39 4.344-2.391 7.125-7.22v8.297h8.985z" id="DejaVuSans-103"/><path d="M37.11 75.984V68.5h-8.594q-4.828 0-6.72-1.953-1.874-1.953-1.874-7.031v-4.828h14.797v-6.985H19.922V0H10.89v47.703H2.297v6.984h8.594V58.5q0 9.125 4.25 13.297 4.25 4.187 13.468 4.187z" id="DejaVuSans-102"/><path d="M12.406 8.297h16.11v55.625l-17.532-3.516v8.985l17.438 3.515h9.86V8.296H54.39V0H12.406z" id="DejaVuSans-49"/><path d="M9.813 72.906h9.859V42.094L52.39 72.906h12.703L28.906 38.922 67.672 0H54.688L19.672 35.11V0h-9.86z" id="DejaVuSans-75"/></defs><use xlink:href="#DejaVuSans-78"/><use x="74.805" xlink:href="#DejaVuSans-101"/><use x="136.328" xlink:href="#DejaVuSans-119"/><use x="218.115" xlink:href="#DejaVuSans-32"/><use x="249.902" xlink:href="#DejaVuSans-67"/><use x="319.727" xlink:href="#DejaVuSans-97"/><use x="381.006" xlink:href="#DejaVuSans-115"/><use x="433.105" xlink:href="#DejaVuSans-101"/><use x="494.629" xlink:href="#DejaVuSans-115"/><use x="546.729" xlink:href="#DejaVuSans-32"/><use x="578.516" xlink:href="#DejaVuSans-55"/><use x="642.139" xlink:href="#DejaVuSans-100"/><use x="705.615" xlink:href="#DejaVuSans-32"/><use x="737.402" xlink:href="#DejaVuSans-97"/><use x="798.682" xlink:href="#DejaVuSans-118"/><use x="857.861" xlink:href="#DejaVuSans-103"/><use x="921.338" xlink:href="#DejaVuSans-32"/><use x="953.125" xlink:href="#DejaVuSans-115"/><use x="1005.225" xlink:href="#DejaVuSans-108"/><use x="1033.008" xlink:href="#DejaVuSans-111"/><use x="1094.189" xlink:href="#DejaVuSans-112"/><use x="1157.666" xlink:href="#DejaVuSans-101"/><use x="1219.189" xlink:href="#DejaVuSans-32"/><use x="1250.977" xlink:href="#DejaVuSans-111"/><use x="1312.158" xlink:href="#DejaVuSans-102"/><use x="1347.363" xlink:href="#DejaVuSans-32"/><use x="1379.15" xlink:href="#DejaVuSans-49"/><use x="1442.773" xlink:href="#DejaVuSans-52"/><use x="1506.396" xlink:href="#DejaVuSans-32"/><use x="1538.184" xlink:href="#DejaVuSans-97"/><use x="1599.463" xlink:href="#DejaVuSans-118"/><use x="1658.643" xlink:href="#DejaVuSans-103"/><use x="1722.119" xlink:href="#DejaVuSans-47"/><use x="1755.811" xlink:href="#DejaVuSans-49"/><use x="1819.434" xlink:href="#DejaVuSans-48"/><use x="1883.057" xlink:href="#DejaVuSans-48"/><use x="1946.68" xlink:href="#DejaVuSans-75"/></g><g id="legend_1"><path d="M694.75 184.5H831.2q3.2 0 3.2-3.2V88.96q0-3.2-3.2-3.2H694.75q-3.2 0-3.2 3.2v92.34q0 3.2 3.2 3.2z" style="fill:none;opacity:.8;stroke:#ccc;stroke-linejoin:miter" id="patch_5"/><path d="M697.95 98.718h32" style="fill:none;stroke:#000;stroke-linecap:round;stroke-width:1.5" id="line2d_6"/><g style="fill:#696969" transform="matrix(.16 0 0 -.16 742.75 104.317)" id="text_19"><defs><path d="M8.688 72.906h9.921V28.61q0-11.718 4.235-16.875 4.25-5.14 13.781-5.14 9.469 0 13.719 5.14 4.25 5.157 4.25 16.875v44.297H64.5V27.391q0-14.25-7.063-21.532-7.046-7.28-20.812-7.28-13.828 0-20.89 7.28-7.047 7.282-7.047 21.532z" id="DejaVuSans-85"/></defs><use xlink:href="#DejaVuSans-85"/><use x="73.193" xlink:href="#DejaVuSans-83"/></g><path d="M697.95 122.203h32" style="fill:none;stroke:#009e73;stroke-linecap:round;stroke-width:1.5" id="line2d_8"/><g style="fill:#696969" transform="matrix(.16 0 0 -.16 742.75 127.802)" id="text_20"><use xlink:href="#DejaVuSans-78"/><use x="74.805" xlink:href="#DejaVuSans-74"/></g><path d="M697.95 145.688h32" style="fill:none;stroke:#d55e00;stroke-linecap:round;stroke-width:1.5" id="line2d_10"/><g style="fill:#696969" transform="matrix(.16 0 0 -.16 742.75 151.287)" id="text_21"><defs><path d="M19.672 34.813V8.108H35.5q7.953 0 11.781 3.297 3.844 3.297 3.844 10.078 0 6.844-3.844 10.078-3.828 3.25-11.781 3.25zm0 29.984V42.828h14.61q7.218 0 10.75 2.703 3.546 2.719 3.546 8.282 0 5.515-3.547 8.25-3.531 2.734-10.75 2.734zm-9.86 8.11h25.204q11.28 0 17.375-4.688Q58.5 63.53 58.5 54.89q0-6.703-3.125-10.657-3.125-3.953-9.188-4.922 7.282-1.562 11.313-6.53 4.031-4.954 4.031-12.376 0-9.765-6.64-15.093Q48.25 0 35.984 0H9.812z" id="DejaVuSans-66"/></defs><use xlink:href="#DejaVuSans-66"/><use x="68.604" xlink:href="#DejaVuSans-101"/><use x="130.127" xlink:href="#DejaVuSans-114"/><use x="169.49" xlink:href="#DejaVuSans-103"/><use x="232.967" xlink:href="#DejaVuSans-101"/><use x="294.49" xlink:href="#DejaVuSans-110"/></g><path d="M697.95 169.173h32" style="fill:none;stroke:#0072b2;stroke-linecap:round;stroke-width:1.5" id="line2d_12"/><g style="fill:#696969" transform="matrix(.16 0 0 -.16 742.75 174.773)" id="text_22"><defs><path d="M54.89 33.016V0h-8.984v32.719q0 7.765-3.031 11.61-3.031 3.858-9.078 3.858-7.281 0-11.484-4.64-4.204-4.625-4.204-12.64V0H9.08v75.984h9.03V46.188q3.235 4.937 7.594 7.374Q30.078 56 35.797 56q9.422 0 14.25-5.828 4.844-5.828 4.844-17.156z" id="DejaVuSans-104"/></defs><use xlink:href="#DejaVuSans-82"/><use x="64.982" xlink:href="#DejaVuSans-117"/><use x="128.361" xlink:href="#DejaVuSans-116"/><use x="167.57" xlink:href="#DejaVuSans-104"/><use x="230.949" xlink:href="#DejaVuSans-101"/><use x="292.473" xlink:href="#DejaVuSans-114"/><use x="333.586" xlink:href="#DejaVuSans-102"/><use x="368.791" xlink:href="#DejaVuSans-111"/><use x="429.973" xlink:href="#DejaVuSans-114"/><use x="469.336" xlink:href="#DejaVuSans-100"/></g></g></g></g><defs><clipPath id="p8b6ebad123"><path d="M117 77.76h725.4v498.96H117z"/></clipPath></defs></svg>