<svg height="864" viewBox="0 0 936 648" width="1248" xmlns="http://www.w3.org/2000/svg" xmlns:xlink="http://www.w3.org/1999/xlink"><defs><style>*{stroke-linecap:butt;stroke-linejoin:round}</style></defs><g id="figure_1"><path d="M0 648h936V0H0z" style="fill:#fff" id="patch_1"/><g id="axes_1"><path d="M117 576.72h725.4V77.76H117z" style="fill:none" id="patch_2"/><path clip-path="url(#p10b11d60ee)" d="m149.973 340.626 59.572-.113 6.927-.276 1.386-.116 1.385-.228 1.386-.374 2.77-1.121 1.386-.81 2.77-1.898 4.157-3.75 1.385-1.465 2.771-2.065 1.385-1.355 4.157-3.046 1.385-.857 2.77.086 1.386.335 2.771 1.599 1.386 1.105 1.385 1.876 1.385.885 8.313 10.268 2.77 1.75 2.771 1.372 1.386.295 1.385-.427 1.386-.983 1.385.014 1.386-.1 1.385-.291 4.156.17 1.386.17 1.385-.128 1.385.3 1.386-.025 1.385.089 1.386.423 2.77 2.32 1.386.756 2.77.073 1.386.113 2.77-.341 1.386-.39 1.386.074 1.385-.57 1.386.04 1.385-.416 1.385-.068 2.771-.743 1.386-.716 1.385-.169 2.77.172 1.386.178 4.156-.67 1.386.147 1.385-.337 2.771.037 1.385-.69 1.386-.054 1.385.317 2.771.091 1.385-.752 1.386-.504 1.385.415 1.386-.176 2.77.102 1.386-.438 1.385-.164 1.386-.602 1.385-.123 1.386-.793 1.385-.97 1.385-1.47 1.386-1.272 1.385-.887 1.386-1.207 1.385-1.874 1.385-.78 1.386-1.32 2.77-1.505 2.771-2.063 1.386-.658 1.385-.106 2.771.473 1.386.469 1.385.194 1.385.92 1.386.378 2.77-.037 1.386-.546 1.385.19 1.386.428 1.385-.147 1.386.934 1.385.626 1.385.083 1.386.994 1.385.63 1.386.846 1.385 1.048 1.385.887 1.386.668 1.385 2.209 2.771 2.997 1.386 1.24 1.385 1.764 1.385.747 1.386 1.222 1.385.826 2.771 2.016 1.385 1.514 1.386.602 1.385 1.102 1.386.62 1.385-.602 1.385-.041 1.386-.207 1.385-.367 1.386.25 1.385-.288 1.385-.57 1.386.305 1.385-.214 1.386.058 1.385-.188 1.386-.356 1.385.264 1.385.432 1.386.784 1.385-.334 1.386.404 1.385-.184 1.385-.317 1.386.082 1.385-.427 1.386-.78 1.385-.599 1.385-1.569 1.386.168 1.385-.922 1.386-1.674 1.385-.352 1.385-.667 1.386 1.487 1.385 1.157 1.386.149 1.385.828 2.77.503 1.386-.235 1.386-1.637 1.385-.567 1.386-1.969 1.385-.676 1.385.441 1.386-.53 1.385-.674 1.386-3.076 1.385-1.39 1.385-.146 1.386-.86 1.385-1.072 1.386-.422 1.385.251 1.385 3.068 1.386.416 2.77 1.2 1.386.243 1.385-.249 1.386.55 1.385-.732 1.386-.104 1.385-.908 1.386-1.054 1.385.032 1.385-.312 1.386-.919 1.385-.334 2.771-1.21 1.385-.811 1.386-1.309 1.385.416 1.386-.559 1.385.799 1.385-.737 1.386.689 1.385.02 1.386-.99 1.385-2.298 1.385-.22 1.386-2.47 1.385-.236 1.386-1.132 1.385-.687 1.386-.32 1.385-.474 1.385-1.19 1.386-.206 1.385-1.238 2.771-4.47 1.385-1.898 2.771-3.484 1.386-2.851 1.385-3.51 1.385-1.797 1.386-2.803 1.385-3.57 1.386-2.875 2.77-3.562 2.771-.739 1.386.712 1.385 1.63 1.386 3.015 2.77 4.902 1.386 3.252 1.385 2.765 1.386 13.286 1.385 4.361 1.385 5.642 1.386 3.793 1.385 5.026 1.386 1.626 1.385.927 1.385-9.525 1.386-.85 1.385-4.355 1.386-3.15 1.385-2.436 1.385-2.026 1.386-1.061 1.385-9.638 1.386-4.415 1.385-2.36 1.386-1.737 1.385-.913 1.385 2.435 1.386-.499 1.385 10.642 1.386 5.74 1.385 7.122 1.385 4.189 4.157 11.375 1.385 5.478 1.385 20.875 1.386-2.217 1.385 4.184 1.386.983 1.385-1.71 1.385 2.517 1.386-2.54 1.385-7.918 1.386-9.215 1.385-5.668 1.386-6.532 1.385-3.69 1.385-4.628 1.386-9.856 1.385-31.783 1.386 6.512 1.385-3.579 1.385 1.19 1.386.485 1.385 2.913 1.386 8.274 1.385 11.095 1.385 13.095 1.386 9.285 1.385 15.535 1.386 8.173 1.385 7.27 1.385 10.232 1.386 21.19 1.385-.584 1.386 4.858 1.385-3.92 1.385 3.013 1.386.48 1.385-1.737 1.386-3.508 1.385-1.733 1.386-2.393 1.385-7.288 1.385-1.084 1.386-.731 1.385-.952 1.386-1.354 1.385-.507 1.385-1.454 1.386 6.34 1.385-1.316 1.386-.62 1.385-.496 1.385.395 1.386-1.44 1.385.787 1.386 2.288 1.385-.202 1.385-1.122 1.386-.584 2.77-2.98 1.386-1.84 1.386-5.365 5.541-11.968 1.386-1.384 1.385-2.011 1.385-3.66 2.771-3.671 1.386-2.443 2.77-1.87 1.386.23 1.385-3.512 1.386.959 1.385 1.297 1.385 1.134 1.386.172 1.385-.004 1.386-.225 1.385 3.612 1.386-1.339 2.77-1.74 1.386-.93 1.385-1.147 1.386-.733 1.385 4.198 1.385-.425 1.386-3.074 1.385-1.42 1.386-1.609 2.77-2.69 1.386-5.573 1.385-.715 1.386 1.304 1.385-1.037 4.156.817 1.386-.88 1.385.269 1.386 1.659 1.385.564 1.385.096 1.386.59 1.385-.093 1.386 2.15 1.385-1.04 1.385-1.517 1.386 1.554 1.385-.307 1.386 1.505 1.385-.129 1.385.819 1.386 1.71 1.385 1.895 1.386 1.122 1.385 2.9 1.385.397 2.771 3.928 1.386 2.53 1.385 1.117 2.77.402 1.386-.533 1.386-.26 1.385-.447 1.386-.597 1.385-.309 1.385.3 1.386-.427 1.385.81 1.386-.066 1.385-.993 1.385-.191 4.157.342 1.385-.117 1.385.174 1.386 1.016 1.385-.504h0" style="fill:none;stroke:#000;stroke-linecap:round;stroke-width:1.5" id="line2d_1"/><path clip-path="url(#p10b11d60ee)" d="m149.973 340.624 60.958-.104 4.156-.251 2.77-.623 1.386-.58 1.386-1.165 1.385-.533 1.385-1.605 1.386-2.14 1.385-3.275 1.386-2.843 1.385-2.17 1.385-8.358 4.157-20.368 1.385-8.69 1.385-4.414 1.386-10.37 1.385-2.161 1.386-8.571 1.385-5.86 1.386-2.181 1.385 2 1.385-2.04 1.386 4.279 1.385 7.391 2.771 19.56 1.385 5.283 1.386 12.264 1.385 1.219 1.386 14.105 1.385.635 1.385 10.702 1.386 9.824 1.385 3.624 1.386-1.686 1.385 7.445 1.385-7 1.386 1.616 1.385.77 1.386-4.023 1.385 2.646 1.386 1.95 1.385 7.066 1.385.986 1.386 9.41 1.385-2.87 1.386.735 1.385 2.592 1.385 5.4 1.386-1.22 1.385 9.218 1.386 1.856 1.385-.866 2.77 9.607 1.386-4.807 1.386 2.37 1.385-2.281 1.385-4.39 1.386 3.67 1.385-1.365 1.386-1.106 1.385-3.547 1.386-2.011 1.385-6.498 1.385-2.212 1.386-2.96 1.385-.374 1.386-5.357 1.385 2.533 1.385-4.734 1.386.162 1.385-2.765 1.386-1.547 1.385-3.195 1.385.043 1.386 2.927 1.385.855 1.386 3.52 1.385 2.53 1.385 1.04 1.386-2.29 1.385 1.435 1.386-2.425 1.385.1 1.385-2.123 1.386.41 1.385.928 1.386 1.915 1.385-.843 1.386-1.37 2.77-.53 1.386-2.548 1.385-1.021 1.386-.402 1.385-2.313 1.385-.74 1.386-1.252 1.385.564 1.386-6.753 1.385-1.767 1.385-.26 1.386.016 1.385.279 1.386-.202 1.385-1.454 1.385 6.428 1.386.167 1.385-.406 1.386-.109 1.385-.263 1.386.48 1.385-.426 1.385 7.554 1.386.105 1.385-.345 1.386.12 1.385-.766 2.77-.328 1.386-6.653 1.386 1.184 1.385.27 1.385 1.664 1.386.63 1.385-.108 1.386.178 1.385-.844 1.385-1.686 1.386-.812 1.385-2.19 1.386-.982 1.385-.247 2.77.298 1.386-2.089 1.386.294 1.385-.72 1.386.546 2.77.244 1.386-.585 1.385 2.855 1.386.97 1.385 1.985 1.385 1.064 1.386.394 1.385-.089 1.386-1.238 1.385.085 1.385-.208 1.386.568 1.385-.924 1.386-.054 1.385.15 1.386 2.808 1.385-.193 1.385-.975 1.386-.433 1.385.314 1.386.452 1.385.762 1.385.29 1.386.55 1.385.347 1.386-1.833 1.385-.27 1.385-.546 1.386-.781 1.385-2.425 1.386-1.435 1.385 1.063 1.385.445 1.386-.27 1.385.092 1.386-.402 1.385.623 1.386.166 1.385-1.176 1.385.607 1.386.472 1.385-.506 1.386.042 1.385-.286 1.385.302 1.386-.14 1.385-.526 1.386-.29 1.385-.166 1.385.012 1.386.197 1.385-.14 1.386-.638 1.385-1.001 1.385-.639 1.386.5 1.385-.925 1.386.367 2.77-1.407 1.386.881 1.385.41 1.386-.707 1.385.839 1.386-2.665 1.385-.248 1.385 1.44 1.386.463 1.385.809 1.386-1.273 1.385-.503 1.385 1.459 1.386.955 1.385.491 1.386-2.305 1.385-2.982 1.385.669 1.386-1.122 1.385 1.907 1.386-.425 1.385-4.092 1.385 1.048 1.386-.255 1.385-1.16 1.386-.813 1.385-2.765 1.386-3.814 1.385 2.382 1.385-.348 1.386 2.209 1.385-.685 1.386-2.638 1.385-.854 1.385.193 1.386-3.342 1.385-1.609 1.386-2.576 1.385-5.005 1.385.07 1.386-4.417 1.385-1.18 1.386-6.563 1.385-7.391 1.385-.035 1.386-.279 1.385-.835 1.386-1.075 1.385-.17 1.386 5.89 1.385 3.249 1.385-2.6 1.386 6.591 1.385 2.387 1.386 4.792 1.385 2.967 1.385 7.805 1.386 10.265 1.385 2.135 1.386-.317 1.385 2.881 1.385 1.431 1.386-5.179 1.385-4.664 1.386-10.68 1.385 3.826 1.385-2.402 1.386-.6 1.385-.139 1.386 9.6 1.385-6.896 1.386 6.757 1.385-6.289 1.385 7.12 1.386-3.844 1.385 4.583 1.386 5.114 1.385 13.811 1.385 4.526 1.386 7.735 1.385.901 1.386 4.07 1.385-.473 1.385-12.288 1.386 4.286 1.385 3.786 1.386 6.429 1.385-2.182 1.385 5.14 1.386-4.861 1.385-.754 1.386-13.774 1.385-1.272 1.386-193.292 4.156-22.936 1.385-1.376 1.386-8.092 1.385-18.685 1.385 175.318 1.386 2.831 1.385-8.188 1.386 3.013 1.385 4.243 1.385 11.31 1.386 7.194 1.385 192.738 1.386 9.925 1.385 13.82 1.385 17.122 1.386 14.253 1.385 2.904 1.386 7.117 1.385-178.091 1.385-7.067 1.386 10.27 1.385-.33 1.386-9.445 2.77 3.62 1.386-3.31 1.385 6.447 1.386.232 1.385-2.27 1.386-1.574 1.385 7.399 1.385.356 1.386 4.811 1.385-1.075 1.386-10.397 1.385-2.587 1.385 8.826 1.386-4.336 1.385 4.564 1.386 1.888 1.385-6.506 1.385-8.656 2.771-8.312 1.386.445 1.385.7 1.386-8.56 1.385 3.49 1.385 11.796 1.386.263 1.385-5.101 1.386-7.775 1.385-9.758 1.385-6.01 1.386-.29 1.385-3.226 1.386.008 2.77-3.795 1.386-1.032 1.385 8.099 1.386-5.075 1.385-4.158 1.385-1.245 1.386 1.18 1.385 4.3 1.386-1.667 1.385-.297 1.386 2.088 1.385.14 1.385-4.023 1.386-1.342 1.385-5.628 1.386.782 1.385-4.502 1.385-.964 1.386 1.16 1.385 4.445 1.386-2.665 1.385 1.5 1.385-1.844 1.386.174 1.385-1.853 1.386 3.733 1.385-3.891 2.77 9.704 1.386 2.444 1.386 4.328 1.385 8.691 1.386-3.052 1.385 2.894 1.385 5.967 1.386 2.333 1.385 6.501 1.386 3.191 1.385-.665 1.385.967 1.386 8.037 1.385-4.865 1.386-2.104 2.77-3.725 1.386-.178 1.385 2.557 1.386-2.275 1.385 4.684 1.385 1.133 1.386 4.027 1.385 41.9 1.386 3.7 1.385 2.654 1.386 2.212 1.385 4.506 1.385 5.868 1.386.998 1.385-39.765 1.386.02 1.385-1.958 1.385.553 1.386-2.54 1.385-.774 1.386-2.305 1.385-40.059 1.385-1.052 1.386 2.626 1.385-.004 1.386-1.288 1.385-4.602 1.385-1.648 1.386 37.873 1.385-4.656h0" style="fill:none;stroke:#009e73;stroke-linecap:round;stroke-width:1.5" id="line2d_2"/><path clip-path="url(#p10b11d60ee)" d="m149.973 340.624 54.03-.11 6.928-.295 1.385-.11 1.386-.516h1.385l1.385-1.032 1.386-.774 1.385-1.622 1.386-5.933 1.385-1.474 1.385-.221 1.386-3.427 1.385-4.496 2.771-4.902 1.385-8.18 1.386-9.25 1.385-11.02 1.386-8.696 1.385-4.902 1.385-11.571 1.386-15.552 1.385-2.063 1.386-15.736 1.385-20.453 1.386-.074 1.385-8.807 1.385-6.45 1.386 11.535 1.385 13.23 1.386 16.067 1.385 28.487 1.385 8.881 1.386 19.458 1.385 24.765 1.386 14.225 1.385 4.643 1.385 22.074 1.386 25.612 1.385 1.548 1.386 10.982 1.385 8.587 1.385-5.602 1.386 2.285 1.385-1.548 1.386-19.716 1.385 8.992 2.77-10.06 1.386 7.96 1.386 10.724 1.385-1.364 1.386 3.575 1.385 2.58 1.385 3.906 1.386-.737 1.385 1.584 1.386-4.532 1.385-.738 1.385 4.57 1.386-6.007 1.385-8.66 1.386-3.059 1.385-4.938 1.385-1.474 1.386-4.017 1.385-6.891 1.386-.221 1.385-1.511 1.386 1.142 1.385-2.653 1.385-7.739 1.386-2.764 1.385-.479 1.386-3.943 1.385.11 1.385-4.2 1.386-2.396 1.385-8.44 1.386.738 1.385-.627 2.77 4.828 1.386 1.142 1.386-1.695 1.385 8.771 1.385-1.29 1.386-2.837 1.385 2.284 1.386.11 1.385-.183 1.385.479 1.386 1.842 1.385.958 1.386-2.21 2.77-5.123 1.386-1.806 1.385 1.843 1.386-2.654 1.385-.147 1.386 2.727 1.385-1.548 1.385-.037 1.386.922 1.385 1.842 1.386-10.76 1.385-4.054 1.385 1.88 1.386-2.654 1.385.368 1.386.074 1.385-2.248 1.385 10.135 1.386 1.216 1.385-1.917 1.386.627 1.385-.442 1.386.22 1.385-1.215 1.385 10.65 1.386 2.985 1.385-.295 1.386 3.833 1.385.147 1.385.774 1.386 1.253 1.385-10.282 1.386.037 1.385.958 1.385.258 1.386-.921 1.385-1.069 1.386.295 1.385.442 1.385-.553 1.386-.995 1.385-2.653 1.386-.368 1.385-1.77 1.386-1.473 1.385-.516 1.385-2.617 1.386.037 1.385-.59 1.386 2.1 1.385.222 1.385 1.548 1.386.074 1.385 1.768 1.386-.663 1.385.627h1.385l1.386 2.248 1.385-.222 1.386-.884 1.385-2.285 1.385-.479 1.386-1.437 1.385-2.727 1.386.331 1.385.59 1.386 3.538 2.77 4.606 1.386 2.985 1.385 2.064 2.771-2.506 1.385-1.953 1.386 3.464 1.385-.258 1.386.184 1.385 1.253 1.385-1.29 1.386-.7 2.77-7.628 1.386.553 1.385-2.248 1.386-1.511 1.385 1.99 1.386 1.327 1.385 2.763 1.386-.147 1.385.184 1.385 1.069 1.386.59 1.385 1.695 1.386-.553 1.385-.737 1.385.258 1.386-2.174 1.385.147 1.386-.553 1.385-3.206 1.385.332 1.386.663 1.385.295 1.386.037 1.385-.81 2.77-.259 2.772-.516 1.385-.958 1.385-.405 2.771-.516 1.386 1.142 1.385-.774 1.386-1.584 1.385-.848 1.385-.405 2.771-.295 1.386-2.543 1.385-.295 1.385.737 1.386.922 1.385 1.216 1.386-1.253 1.385-1.917 1.385.774 1.386-1.437 1.385.442 1.386.185 1.385-2.285 1.385.147 1.386-.22 1.385.073 1.386 1.658 1.385-.368 1.386-4.386 1.385.442 1.385-.294 1.386 1.068 1.385-1.105 1.386-2.432 1.385 1.253 1.385.331 1.386-4.496 1.385-1.105 1.386 1.068 1.385-2.91 1.385-4.755 1.386-10.024 1.385-.663 1.386-2.616 1.385-5.565 1.385-.737 1.386-2.285 1.385.48 1.386-2.433 1.385.553 1.386 5.343 1.385 1.77 1.385-8.219 2.771 13.71 1.386 12.123 1.385-2.506 1.385 10.54 1.386 3.538 1.385 5.749 1.386-1.106 1.385 1.511 1.385-1.842 1.386-2.875 1.385-9.065 1.386-1.511 1.385 5.97 1.385.958 1.386 1.216 1.385 1.843 1.386 19.752 1.385-9.213 1.386 9.987 1.385-6.191 1.385 5.823 1.386-3.022 1.385 5.196 1.386-1.511 1.385 17.652 1.385 1.585 1.386 7.038 1.385-2.985 2.771-12.05 1.385-13.783 1.386 2.617 1.385-1.18 1.386 2.138 1.385-.48 1.385 7.26 1.386-4.9 1.385 2.763 1.386-11.535 1.385-2.763 1.386-166.313 1.385-11.83 1.385-6.044 1.386-1.179 1.385-5.97 1.386-7.665 1.385-13.746 1.385 156.916 1.386 9.508 1.385-6.634 1.386-.405 1.385 4.754 1.385 6.707 1.386 4.606 1.385 164.213 1.386 6.891 2.77 27.123 1.386 15.92 1.385 1.437 1.386 8.44 1.385-159.164 1.385-9.471 1.386 7.886 1.385 3.096 1.386-7.629 1.385 3.354 1.386.516 1.385-3.612 1.385 10.65 1.386 3.538 1.385-4.975 1.386-9.655 1.385 5.786 1.385-.369 1.386 6.007 1.385-1.474 1.386-11.534 1.385.59 1.385 8.733 1.386-2.727 1.385 4.017 1.386 4.459 1.385-12.825 1.385-7.112 1.386-2.727 1.385 4.017 1.386.958 1.385 1.437 1.386-11.608 1.385 3.98 1.385 8.292 1.386-4.68 1.385-12.604 1.386-5.38 1.385-7.113 1.385-9.213 1.386 7.518 1.385-7.334 1.386 2.506 1.385-.479 1.385 5.454 1.386-4.127 1.385 16.73 1.386-7.701 1.385 3.722 1.385-.258 1.386 8.439 1.385-3.575 1.386-1.179 1.385 2.727 1.386.995 1.385 1.364 1.385-2.47 1.386-5.527 1.385-12.677 1.386 3.906 1.385-9.913 1.385 2.911 1.386-1.843 1.385 8.44 1.386-7.85 1.385 4.901 1.385-4.496 1.386 2.138 1.385-2.285 1.386-1.18 1.385-7.406 1.385 11.313 1.386 6.78 1.385 5.344 1.386 2.248 1.385 7.924 1.386-.111 1.385.553 1.385 12.05 1.386 6.707 1.385 8.108 1.386 3.722 1.385 1.842 1.385 10.172 1.386 7.923 1.385-8.07 1.386-1.954 1.385-2.58 1.385 1.511 1.386-3.5 1.385.184 1.386-2.396 1.385 1.364 1.385-1.548 1.386 1.069 1.385 2.874 1.386 1.29 1.385-.81 1.386 1.105 1.385 2.911 1.385 5.344 1.386-.922 1.385-5.675 1.386.442 1.385-42.6 1.385-8.476 1.386-3.096 1.385-1.843 1.386-2.137 1.385-4.46 1.385-.773 1.386 39.579 1.385 10.355 1.386-2.395 1.385-5.49 1.385-2.212 1.386 2.838 1.385-2.727h0" style="fill:none;stroke:#d55e00;stroke-linecap:round;stroke-width:1.5" id="line2d_3"/><path clip-path="url(#p10b11d60ee)" d="M149.973 340.624h69.27l1.386-3.753h2.77l1.386-1.877h1.385l2.771-11.262 1.385-7.508 1.386-1.877 1.385-5.63 1.386-1.877 2.77-18.77 1.386-7.507 1.385 11.261 1.386-9.385 1.385-24.4 1.386-15.015 1.385 3.754 1.385 11.261 1.386 13.139 1.385-7.508h1.386l1.385 31.908 1.385 22.523 1.386 3.754 1.385 11.262 1.386 5.63 1.385 1.877 1.385 13.139 1.386 22.523 1.385 16.893 1.386-1.877 1.385-3.754 1.385-9.385 1.386 15.016 1.385-1.877 1.386-24.4 1.385-20.647 1.386 5.631 1.385 3.754 1.385 7.508 1.386-5.631 1.385 3.754h2.771l1.385 7.507 1.386-1.877 2.77 11.262 1.386 7.508 1.385 3.754h1.386l1.385-7.508 1.386-13.139 1.385-7.507 1.385-5.631 1.386-7.508 1.385 1.877h1.386l1.385-1.877 1.386 5.63 1.385-1.876 1.385-3.754 1.386-1.877 1.385-5.63h1.386l2.77 15.015 2.771 3.754 1.386-3.754h2.77l1.386-13.139 1.385-5.63 2.771-3.754 1.385 1.877h2.771l1.386 5.63h1.385l1.385-1.877h1.386l1.385 1.877h2.771l1.386 5.631h1.385l1.385 1.877h1.386l1.385-1.877h2.771l1.385-9.384 1.386 1.876h1.385l1.386-1.876h4.156l1.385-3.754h1.386l1.385-1.877 1.385 1.877h5.542l1.386-3.754 1.385 3.754h1.385l1.386-1.877h2.77l1.386 11.261h4.156l1.386 1.877h2.77l1.386 7.508 1.385-1.877 1.386-3.754h1.385l1.385 3.754h2.771l1.386-9.385 1.385 5.631 1.386 1.877 1.385-1.877 1.385-3.754h2.771l1.386-3.754 1.385 3.754h1.385l1.386 3.754h4.156l1.385 3.754 1.386-5.63 1.385-1.878h1.386l1.385-1.877h2.77l1.386-1.877h1.386l1.385 3.754 1.386-3.754h5.541l1.386-3.753 1.385-1.877h1.385l1.386 3.754h4.156l1.385 3.753 1.386-7.507 1.385 3.754h5.542l1.385-1.877 1.386 9.384h1.385l1.386-1.877h4.156l2.77 3.754 1.386-3.754h4.156l1.386-5.63 1.385 5.63 1.385-5.63 1.386 1.876h4.156l1.385 7.508 1.386-5.63 1.385 5.63 1.386 1.877h5.541l1.386-1.877 1.385-11.261 1.386-18.77 1.385-3.754h2.77l1.386-5.63 1.386-9.385 1.385 5.63 1.385 7.508 4.157-16.892 1.385 3.754 1.385 13.138 1.386 3.754 1.385 26.277 1.386 13.139 2.77 11.262 1.386-7.508 1.385 1.877 1.386-9.385 1.385-16.892 1.386-3.754 2.77 11.261 1.386-11.261 1.385-5.631 1.386 1.877 1.385-5.63 1.385-9.386 4.157-16.892 1.385 1.877 1.385 15.015 1.386-16.892 1.385 5.63h2.771l1.385 16.893 1.386-20.646 1.385-18.77 1.386 13.14 1.385-13.14 1.386-9.384h1.385l1.385 16.892 1.386 13.139 1.385-1.877 1.386 41.293 1.385 30.03 1.385-28.154h1.386l1.385-5.63 1.386 16.892 1.385 13.139 1.385-46.924 1.386-31.908 1.385 26.277h1.386l1.385 1.877 1.385-16.892h1.386l1.385-18.77 1.386 1.878 1.385 48.8h1.386l1.385-5.63 1.385 3.753 1.386 5.63 1.385 63.816 1.386 30.031 1.385-16.892h1.385l1.386-30.03 1.385 13.138 1.386-48.8 1.385-5.631 1.385 3.753 1.386-20.646h2.77l1.386-1.877 1.385 18.77 1.386-45.047 1.385 15.016h2.771l1.386 18.769 1.385-28.154 1.385 46.923 1.386 1.877 1.385-54.43 1.386-18.77h1.385l1.385 26.277 1.386 9.385 1.385-16.893 1.386 20.646 1.385 3.754 1.385 18.77h1.386l1.385 46.923 1.386 5.63h1.385l1.385 18.77 1.386 35.662 1.385 18.77h1.386l1.385-78.832 1.385 18.77 1.386 9.384 1.385-13.139 2.771-56.308h1.386l1.385 16.893 1.385 26.277 1.386-46.923 1.385-15.016 1.386 3.754 1.385 9.385h1.385l1.386 28.154 1.385-45.047 1.386 31.908 1.385 7.508 1.385 28.154 1.386-3.754h1.385l1.386-28.154 1.385-20.646 1.385 37.538 1.386 9.385 1.385-16.892 1.386 3.753 1.385-13.138 1.386 22.523 1.385 28.154 1.385-37.539 1.386-22.523 1.385-11.261 2.771 26.277 1.385-52.554 1.386 5.63 1.385-3.753 1.386 13.138 1.385-9.385 1.385-13.138 1.386 13.138 1.385 11.262 1.386-3.754 1.385-5.63 1.385-1.878 1.386 24.4h1.385l1.386-13.138 1.385 5.63 1.386 1.878 1.385 3.754 1.385 1.877 1.386 9.384h2.77l1.386-5.63 1.385-9.385 1.386 5.63 1.385 11.262 1.386-20.646h1.385l1.385-16.893 1.386 41.293 1.385 1.877 1.386 7.508 1.385-39.416 1.385-3.754h1.386l1.385 16.893 1.386-9.385 1.385-1.877 2.77 15.015v11.262l1.386 11.262 1.386-1.877 1.385 16.892 1.386-11.261 1.385 9.384 1.385-11.261 1.386 11.261 1.385 3.754 1.386-7.508 1.385-16.892 1.385 24.4 1.386 7.508 1.385-18.77 1.386 7.508 1.385-7.508 1.385 11.262h1.386l1.385-18.77 1.386-9.384 1.385 9.385 1.386 13.138 1.385-7.507 1.385 5.63h1.386l1.385-5.63 2.771-7.508 1.385-5.631 1.386 13.139 1.385-7.508h1.386l1.385 1.877 1.385 5.63 1.386 3.754 1.385-1.877 1.386 11.262 1.385 1.877h2.77l1.386-3.754h0" style="fill:none;stroke:#0072b2;stroke-linecap:round;stroke-width:1.5" id="line2d_4"/><path clip-path="url(#p10b11d60ee)" d="M117 340.624h725.4" style="fill:none;stroke:red;stroke-dasharray:1.5,2.475;stroke-dashoffset:0;stroke-width:1.5" id="line2d_5"/><path d="M117 576.72V77.76" style="fill:none;stroke:#d3d3d3;stroke-linecap:square;stroke-linejoin:miter;stroke-width:1.25" id="patch_3"/><path d="M117 576.72h725.4" style="fill:none;stroke:#d3d3d3;stroke-linecap:square;stroke-linejoin:miter;stroke-width:1.25" id="patch_4"/><g id="matplotlib.axis_1"><g id="xtick_1"><g style="fill:#696969" transform="matrix(.16 0 0 -.16 180.597 598.378)" id="text_1"><defs><path d="M9.813 72.906h14.703l18.593-49.61 18.703 49.61h14.704V0H66.89v64.016l-18.797-50h-9.907l-18.796 50V0H9.813z" id="DejaVuSans-77"/><path d="M34.281 27.484q-10.89 0-15.093-2.484-4.204-2.484-4.204-8.5 0-4.781 3.157-7.594 3.156-2.797 8.562-2.797 7.485 0 12 5.297 4.516 5.297 4.516 14.078v2zm17.922 3.72V0H43.22v8.297Q40.14 3.328 35.547.953q-4.594-2.375-11.234-2.375-8.391 0-13.36 4.719Q6 8.016 6 15.922q0 9.219 6.172 13.906 6.187 4.688 18.437 4.688h12.61v.89q0 6.203-4.078 9.594-4.078 3.39-11.453 3.39-4.688 0-9.141-1.124-4.438-1.125-8.531-3.375v8.312q4.921 1.906 9.562 2.844 4.64.953 9.031.953 11.875 0 17.735-6.156 5.86-6.14 5.86-18.64z" id="DejaVuSans-97"/><path d="M41.11 46.297q-1.516.875-3.297 1.281Q36.03 48 33.89 48q-7.625 0-11.703-4.953-4.079-4.953-4.079-14.234V0H9.08v54.688h9.03v-8.5q2.844 4.984 7.375 7.39Q30.031 56 36.531 56q.922 0 2.047-.125 1.125-.11 2.484-.36z" id="DejaVuSans-114"/></defs><use xlink:href="#DejaVuSans-77"/><use x="86.279" xlink:href="#DejaVuSans-97"/><use x="147.559" xlink:href="#DejaVuSans-114"/></g></g><g id="xtick_2"><g style="fill:#696969" transform="matrix(.16 0 0 -.16 263.661 598.378)" id="text_2"><defs><path d="M32.172-5.078q-3.797-9.766-7.422-12.735-3.61-2.984-9.656-2.984H7.906v7.516h5.282q3.703 0 5.75 1.765Q21-9.766 23.483-3.219l1.61 4.094-22.11 53.813H12.5l17.094-42.766 17.093 42.766h9.516z" id="DejaVuSans-121"/></defs><use xlink:href="#DejaVuSans-77"/><use x="86.279" xlink:href="#DejaVuSans-97"/><use x="147.559" xlink:href="#DejaVuSans-121"/></g></g><g id="xtick_3"><g style="fill:#696969" transform="matrix(.16 0 0 -.16 355.059 598.378)" id="text_3"><defs><path d="M9.813 72.906h9.859V5.078q0-13.187-5-19.14-5-5.954-16.094-5.954h-3.75v8.297h3.078q6.531 0 9.219 3.672Q9.813-4.39 9.813 5.078z" id="DejaVuSans-74"/><path d="M8.5 21.578v33.11h8.984V21.922q0-7.766 3.016-11.656 3.031-3.875 9.094-3.875 7.265 0 11.484 4.64 4.234 4.64 4.234 12.656v31h8.985V0h-8.984v8.406Q42.047 3.422 37.718 1q-4.313-2.422-10.032-2.422-9.421 0-14.312 5.86Q8.5 10.296 8.5 21.578zM31.11 56z" id="DejaVuSans-117"/><path d="M9.422 75.984h8.984V0H9.422z" id="DejaVuSans-108"/></defs><use xlink:href="#DejaVuSans-74"/><use x="29.492" xlink:href="#DejaVuSans-117"/><use x="92.871" xlink:href="#DejaVuSans-108"/></g></g><g id="xtick_4"><g style="fill:#696969" transform="matrix(.16 0 0 -.16 435.526 598.378)" id="text_4"><defs><path d="M53.516 70.516V60.89q-5.61 2.687-10.594 4-4.984 1.328-9.625 1.328-8.047 0-12.422-3.125t-4.375-8.89q0-4.845 2.906-7.313 2.907-2.453 11.016-3.97l5.953-1.218q11.031-2.11 16.281-7.406 5.25-5.297 5.25-14.172 0-10.61-7.11-16.078-7.093-5.469-20.812-5.469-5.172 0-11.015 1.172Q13.14.922 6.89 3.219v10.156q6-3.36 11.765-5.078 5.766-1.703 11.328-1.703 8.438 0 13.032 3.312 4.593 3.328 4.593 9.485 0 5.359-3.297 8.39-3.296 3.032-10.812 4.547L27.484 33.5q-11.03 2.188-15.968 6.875-4.922 4.688-4.922 13.047 0 9.672 6.812 15.234 6.813 5.563 18.766 5.563 5.14 0 10.453-.938 5.328-.922 10.89-2.765z" id="DejaVuSans-83"/><path d="M56.203 29.594v-4.39H14.891q.593-9.282 5.593-14.142 5-4.859 13.938-4.859 5.172 0 10.031 1.266 4.86 1.265 9.656 3.812v-8.5Q49.266.734 44.187-.344 39.11-1.422 33.892-1.422q-13.094 0-20.735 7.61-7.64 7.625-7.64 20.625 0 13.421 7.25 21.296Q20.016 56 32.328 56q11.031 0 17.453-7.11 6.422-7.093 6.422-19.296zm-8.984 2.64q-.094 7.36-4.125 11.75-4.032 4.407-10.672 4.407-7.516 0-12.031-4.25-4.516-4.25-5.203-11.97z" id="DejaVuSans-101"/><path d="M18.11 8.203v-29H9.077v75.484h9.031v-8.296q2.844 4.875 7.157 7.234Q29.594 56 35.594 56q9.968 0 16.187-7.906 6.235-7.907 6.235-20.797T51.78 6.484q-6.218-7.906-16.187-7.906-6 0-10.328 2.375-4.313 2.375-7.157 7.25zm30.578 19.094q0 9.906-4.079 15.547-4.078 5.64-11.203 5.64-7.14 0-11.218-5.64-4.079-5.64-4.079-15.547 0-9.906 4.078-15.547 4.079-5.64 11.22-5.64 7.124 0 11.202 5.64t4.078 15.547z" id="DejaVuSans-112"/></defs><use xlink:href="#DejaVuSans-83"/><use x="63.477" xlink:href="#DejaVuSans-101"/><use x="125" xlink:href="#DejaVuSans-112"/></g></g><g id="xtick_5"><g style="fill:#696969" transform="matrix(.16 0 0 -.16 519.501 598.378)" id="text_5"><defs><path d="M9.813 72.906h13.28l32.329-60.984v60.984h9.562V0h-13.28L19.39 60.984V0H9.813z" id="DejaVuSans-78"/><path d="M30.61 48.39q-7.22 0-11.422-5.64-4.204-5.64-4.204-15.453 0-9.813 4.172-15.453 4.188-5.64 11.453-5.64 7.188 0 11.375 5.655 4.203 5.672 4.203 15.438 0 9.719-4.203 15.406-4.187 5.688-11.375 5.688zm0 7.61q11.718 0 18.406-7.625 6.703-7.61 6.703-21.078 0-13.422-6.703-21.078-6.688-7.64-18.407-7.64-11.765 0-18.437 7.64-6.656 7.656-6.656 21.078 0 13.469 6.656 21.078Q18.844 56 30.609 56z" id="DejaVuSans-111"/><path d="M2.984 54.688H12.5L29.594 8.797l17.093 45.89h9.516L35.687 0H23.485z" id="DejaVuSans-118"/></defs><use xlink:href="#DejaVuSans-78"/><use x="74.805" xlink:href="#DejaVuSans-111"/><use x="135.986" xlink:href="#DejaVuSans-118"/></g></g><g id="xtick_6"><g style="fill:#696969" transform="matrix(.16 0 0 -.16 607.294 598.378)" id="text_6"><defs><path d="M54.89 33.016V0h-8.984v32.719q0 7.765-3.031 11.61-3.031 3.858-9.078 3.858-7.281 0-11.484-4.64-4.204-4.625-4.204-12.64V0H9.08v54.688h9.03v-8.5q3.235 4.937 7.594 7.374Q30.078 56 35.797 56q9.422 0 14.25-5.828 4.844-5.828 4.844-17.156z" id="DejaVuSans-110"/></defs><use xlink:href="#DejaVuSans-74"/><use x="29.492" xlink:href="#DejaVuSans-97"/><use x="90.771" xlink:href="#DejaVuSans-110"/></g></g><g id="xtick_7"><g style="fill:#696969" transform="matrix(.16 0 0 -.16 686.272 598.378)" id="text_7"><use xlink:href="#DejaVuSans-77"/><use x="86.279" xlink:href="#DejaVuSans-97"/><use x="147.559" xlink:href="#DejaVuSans-114"/></g></g><g id="xtick_8"><g style="fill:#696969" transform="matrix(.16 0 0 -.16 769.335 598.378)" id="text_8"><use xlink:href="#DejaVuSans-77"/><use x="86.279" xlink:href="#DejaVuSans-97"/><use x="147.559" xlink:href="#DejaVuSans-121"/></g></g></g><g id="matplotlib.axis_2"><g id="ytick_1"><g style="fill:#696969" transform="matrix(.16 0 0 -.16 73.733 539.083)" id="text_9"><defs><path d="M10.594 35.5h62.593v-8.297H10.594z" id="DejaVuSans-8722"/><path d="M37.797 64.313 12.89 25.39h24.906zm-2.594 8.593H47.61V25.391h10.407v-8.203H47.609V0h-9.812v17.188H4.89v9.515z" id="DejaVuSans-52"/><path d="M31.781 66.406q-7.61 0-11.453-7.5Q16.5 51.422 16.5 36.375q0-14.984 3.828-22.484 3.844-7.5 11.453-7.5 7.672 0 11.5 7.5 3.844 7.5 3.844 22.484 0 15.047-3.844 22.531-3.828 7.5-11.5 7.5zm0 7.813q12.266 0 18.735-9.703 6.468-9.688 6.468-28.141 0-18.406-6.468-28.11-6.47-9.687-18.735-9.687-12.25 0-18.718 9.688-6.47 9.703-6.47 28.109 0 18.453 6.47 28.14Q19.53 74.22 31.78 74.22z" id="DejaVuSans-48"/></defs><use xlink:href="#DejaVuSans-8722"/><use x="83.789" xlink:href="#DejaVuSans-52"/><use x="147.412" xlink:href="#DejaVuSans-48"/></g></g><g id="ytick_2"><g style="fill:#696969" transform="matrix(.16 0 0 -.16 73.733 442.893)" id="text_10"><defs><path d="M19.188 8.297h34.421V0H7.33v8.297q5.609 5.812 15.296 15.594 9.703 9.797 12.188 12.64 4.734 5.313 6.609 9 1.89 3.688 1.89 7.25 0 5.813-4.078 9.469-4.078 3.672-10.625 3.672-4.64 0-9.797-1.61-5.14-1.609-11-4.89v9.969Q13.767 71.78 18.938 73q5.188 1.219 9.485 1.219 11.328 0 18.062-5.672 6.735-5.656 6.735-15.125 0-4.5-1.688-8.531-1.672-4.016-6.125-9.485-1.218-1.422-7.765-8.187-6.532-6.766-18.453-18.922z" id="DejaVuSans-50"/></defs><use xlink:href="#DejaVuSans-8722"/><use x="83.789" xlink:href="#DejaVuSans-50"/><use x="147.412" xlink:href="#DejaVuSans-48"/></g></g><g id="ytick_3"><use xlink:href="#DejaVuSans-48" style="fill:#696969" transform="matrix(.16 0 0 -.16 97.32 346.703)" id="text_11"/></g><g id="ytick_4"><g style="fill:#696969" transform="matrix(.16 0 0 -.16 87.14 250.513)" id="text_12"><use xlink:href="#DejaVuSans-50"/><use x="63.623" xlink:href="#DejaVuSans-48"/></g></g><g id="ytick_5"><g style="fill:#696969" transform="matrix(.16 0 0 -.16 87.14 154.324)" id="text_13"><use xlink:href="#DejaVuSans-52"/><use x="63.623" xlink:href="#DejaVuSans-48"/></g></g><g style="fill:#696969" transform="matrix(0 -.2 -.2 0 65.573 379.813)" id="text_14"><defs><path d="M51.125 44H36.922l-4.11-16.313h14.313zm-7.328 27.781-5.078-20.265h14.265L58.11 71.78h7.813L60.89 51.516h15.234V44h-17.14l-4-16.313h15.53V20.22H53.079L48 0h-7.813l5.032 20.219H30.906L25.875 0h-7.86l5.079 20.219H7.719v7.468h17.187L29 44H13.281v7.516h17.625l4.985 20.265z" id="DejaVuSans-35"/><path d="M37.11 75.984V68.5h-8.594q-4.828 0-6.72-1.953-1.874-1.953-1.874-7.031v-4.828h14.797v-6.985H19.922V0H10.89v47.703H2.297v6.984h8.594V58.5q0 9.125 4.25 13.297 4.25 4.187 13.468 4.187z" id="DejaVuSans-102"/><path d="M48.781 52.594v-8.407q-3.812 2.11-7.64 3.157-3.828 1.047-7.735 1.047-8.75 0-13.593-5.547-4.829-5.532-4.829-15.547 0-10.016 4.829-15.563 4.843-5.53 13.593-5.53 3.907 0 7.735 1.046 3.828 1.047 7.64 3.156V2.094Q45.016.344 40.984-.531q-4.015-.89-8.562-.89-12.36 0-19.64 7.765-7.266 7.765-7.266 20.953 0 13.375 7.343 21.031Q20.22 56 33.016 56q4.14 0 8.093-.86 3.953-.843 7.672-2.546z" id="DejaVuSans-99"/><path d="M44.281 53.078v-8.5q-3.797 1.953-7.906 2.922-4.094.984-8.5.984-6.688 0-10.031-2.047-3.344-2.046-3.344-6.156 0-3.125 2.39-4.906 2.391-1.781 9.626-3.39l3.078-.688q9.562-2.047 13.593-5.781 4.032-3.735 4.032-10.422 0-7.625-6.032-12.078-6.03-4.438-16.578-4.438-4.39 0-9.156.86Q10.688.296 5.422 2v9.281q4.984-2.594 9.812-3.89 4.829-1.282 9.579-1.282 6.343 0 9.75 2.172 3.421 2.172 3.421 6.125 0 3.656-2.468 5.61-2.453 1.953-10.813 3.765l-3.125.735q-8.344 1.75-12.062 5.39-3.704 3.64-3.704 9.985 0 7.718 5.47 11.906Q16.75 56 26.811 56q4.97 0 9.36-.734 4.406-.72 8.11-2.188z" id="DejaVuSans-115"/></defs><use xlink:href="#DejaVuSans-35"/><use x="83.789" xlink:href="#DejaVuSans-32"/><use x="115.576" xlink:href="#DejaVuSans-111"/><use x="176.758" xlink:href="#DejaVuSans-102"/><use x="211.963" xlink:href="#DejaVuSans-32"/><use x="243.75" xlink:href="#DejaVuSans-99"/><use x="298.73" xlink:href="#DejaVuSans-97"/><use x="360.01" xlink:href="#DejaVuSans-115"/><use x="412.109" xlink:href="#DejaVuSans-101"/><use x="473.633" xlink:href="#DejaVuSans-115"/></g></g><g style="fill:#696969" transform="matrix(.24 0 0 -.24 261.11 71.76)" id="text_15"><defs><path d="M4.203 54.688h8.985l11.234-42.672 11.172 42.672h10.593l11.235-42.672 11.187 42.672h8.985L63.28 0H52.688L40.922 44.828 29.109 0H18.5z" id="DejaVuSans-119"/><path d="M64.406 67.281v-10.39q-4.984 4.64-10.625 6.922-5.64 2.296-11.984 2.296-12.5 0-19.14-7.64-6.641-7.64-6.641-22.094 0-14.406 6.64-22.047 6.64-7.64 19.14-7.64 6.345 0 11.985 2.296 5.64 2.297 10.625 6.938V5.609Q59.234 2.094 53.437.33q-5.78-1.75-12.218-1.75-16.563 0-26.094 10.124-9.516 10.14-9.516 27.672 0 17.578 9.516 27.703 9.531 10.14 26.094 10.14 6.531 0 12.312-1.734 5.797-1.734 10.875-5.203z" id="DejaVuSans-67"/><path d="M3.328 72.906h9.953L28.61 11.281l15.282 61.625h11.093l15.328-61.625 15.282 61.625h10.015L77.297 0H64.89L49.516 63.281 33.984 0H21.578z" id="DejaVuSans-87"/><path d="M9.078 75.984h9.031V31.11l26.813 23.578H56.39l-29-25.578L57.625 0H45.906L18.11 26.703V0H9.08z" id="DejaVuSans-107"/><path d="M4.89 31.39h26.313v-8H4.891z" id="DejaVuSans-45"/><path d="M11.719 12.406h10.297V0H11.719zm0 39.297h10.297v-12.39H11.719z" id="DejaVuSans-58"/><path d="M12.406 8.297h16.11v55.625l-17.532-3.516v8.985l17.438 3.515h9.86V8.296H54.39V0H12.406z" id="DejaVuSans-49"/><path d="M45.406 27.984q0 9.766-4.031 15.125-4.016 5.375-11.297 5.375-7.219 0-11.25-5.375-4.031-5.359-4.031-15.125 0-9.718 4.031-15.093t11.25-5.375q7.281 0 11.297 5.375 4.031 5.375 4.031 15.093zm8.985-21.203q0-13.953-6.203-20.765Q42-20.797 29.203-20.797q-4.734 0-8.937.703-4.203.703-8.157 2.172v8.735q3.954-2.141 7.813-3.157 3.86-1.031 7.86-1.031 8.843 0 13.234 4.61 4.39 4.609 4.39 13.937v4.453q-2.781-4.844-7.125-7.234Q33.938 0 27.875 0 17.828 0 11.672 7.656q-6.156 7.672-6.156 20.328 0 12.688 6.156 20.344Q17.828 56 27.875 56q6.063 0 10.406-2.39 4.344-2.391 7.125-7.22v8.297h8.985z" id="DejaVuSans-103"/></defs><use xlink:href="#DejaVuSans-78"/><use x="74.805" xlink:href="#DejaVuSans-101"/><use x="136.328" xlink:href="#DejaVuSans-119"/><use x="218.115" xlink:href="#DejaVuSans-32"/><use x="249.902" xlink:href="#DejaVuSans-67"/><use x="319.727" xlink:href="#DejaVuSans-97"/><use x="381.006" xlink:href="#DejaVuSans-115"/><use x="433.105" xlink:href="#DejaVuSans-101"/><use x="494.629" xlink:href="#DejaVuSans-115"/><use x="546.729" xlink:href="#DejaVuSans-32"/><use x="578.516" xlink:href="#DejaVuSans-87"/><use x="671.518" xlink:href="#DejaVuSans-101"/><use x="733.041" xlink:href="#DejaVuSans-101"/><use x="794.564" xlink:href="#DejaVuSans-107"/><use x="852.475" xlink:href="#DejaVuSans-45"/><use x="890.434" xlink:href="#DejaVuSans-111"/><use x="951.615" xlink:href="#DejaVuSans-118"/><use x="1010.795" xlink:href="#DejaVuSans-101"/><use x="1072.318" xlink:href="#DejaVuSans-114"/><use x="1107.057" xlink:href="#DejaVuSans-45"/><use x="1139.141" xlink:href="#DejaVuSans-87"/><use x="1232.143" xlink:href="#DejaVuSans-101"/><use x="1293.666" xlink:href="#DejaVuSans-101"/><use x="1355.189" xlink:href="#DejaVuSans-107"/><use x="1413.1" xlink:href="#DejaVuSans-58"/><use x="1446.791" xlink:href="#DejaVuSans-32"/><use x="1478.578" xlink:href="#DejaVuSans-49"/><use x="1542.201" xlink:href="#DejaVuSans-52"/><use x="1605.824" xlink:href="#DejaVuSans-32"/><use x="1637.611" xlink:href="#DejaVuSans-97"/><use x="1698.891" xlink:href="#DejaVuSans-118"/><use x="1758.07" xlink:href="#DejaVuSans-103"/></g><g id="legend_1"><path d="M694.75 184.5H831.2q3.2 0 3.2-3.2V88.96q0-3.2-3.2-3.2H694.75q-3.2 0-3.2 3.2v92.34q0 3.2 3.2 3.2z" style="fill:none;opacity:.8;stroke:#ccc;stroke-linejoin:miter" id="patch_5"/><path d="M697.95 98.718h32" style="fill:none;stroke:#000;stroke-linecap:round;stroke-width:1.5" id="line2d_6"/><g style="fill:#696969" transform="matrix(.16 0 0 -.16 742.75 104.317)" id="text_16"><defs><path d="M8.688 72.906h9.921V28.61q0-11.718 4.235-16.875 4.25-5.14 13.781-5.14 9.469 0 13.719 5.14 4.25 5.157 4.25 16.875v44.297H64.5V27.391q0-14.25-7.063-21.532-7.046-7.28-20.812-7.28-13.828 0-20.89 7.28-7.047 7.282-7.047 21.532z" id="DejaVuSans-85"/></defs><use xlink:href="#DejaVuSans-85"/><use x="73.193" xlink:href="#DejaVuSans-83"/></g><path d="M697.95 122.203h32" style="fill:none;stroke:#009e73;stroke-linecap:round;stroke-width:1.5" id="line2d_8"/><g style="fill:#696969" transform="matrix(.16 0 0 -.16 742.75 127.802)" id="text_17"><use xlink:href="#DejaVuSans-78"/><use x="74.805" xlink:href="#DejaVuSans-74"/></g><path d="M697.95 145.688h32" style="fill:none;stroke:#d55e00;stroke-linecap:round;stroke-width:1.5" id="line2d_10"/><g style="fill:#696969" transform="matrix(.16 0 0 -.16 742.75 151.287)" id="text_18"><defs><path d="M19.672 34.813V8.108H35.5q7.953 0 11.781 3.297 3.844 3.297 3.844 10.078 0 6.844-3.844 10.078-3.828 3.25-11.781 3.25zm0 29.984V42.828h14.61q7.218 0 10.75 2.703 3.546 2.719 3.546 8.282 0 5.515-3.547 8.25-3.531 2.734-10.75 2.734zm-9.86 8.11h25.204q11.28 0 17.375-4.688Q58.5 63.53 58.5 54.89q0-6.703-3.125-10.657-3.125-3.953-9.188-4.922 7.282-1.562 11.313-6.53 4.031-4.954 4.031-12.376 0-9.765-6.64-15.093Q48.25 0 35.984 0H9.812z" id="DejaVuSans-66"/></defs><use xlink:href="#DejaVuSans-66"/><use x="68.604" xlink:href="#DejaVuSans-101"/><use x="130.127" xlink:href="#DejaVuSans-114"/><use x="169.49" xlink:href="#DejaVuSans-103"/><use x="232.967" xlink:href="#DejaVuSans-101"/><use x="294.49" xlink:href="#DejaVuSans-110"/></g><path d="M697.95 169.173h32" style="fill:none;stroke:#0072b2;stroke-linecap:round;stroke-width:1.5" id="line2d_12"/><g style="fill:#696969" transform="matrix(.16 0 0 -.16 742.75 174.773)" id="text_19"><defs><path d="M44.39 34.188q3.172-1.079 6.172-4.594 3-3.516 6.032-9.672L66.609 0H56l-9.313 18.703q-3.624 7.328-7.015 9.719-3.39 2.39-9.25 2.39h-10.75V0h-9.86v72.906h22.266q12.5 0 18.656-5.234 6.157-5.219 6.157-15.766 0-6.89-3.203-11.437-3.204-4.532-9.297-6.282zM19.673 64.797V38.922h12.406q7.125 0 10.766 3.297 3.64 3.297 3.64 9.687 0 6.39-3.64 9.64-3.64 3.25-10.766 3.25z" id="DejaVuSans-82"/><path d="M18.313 70.219V54.688h18.5v-6.985h-18.5V18.016q0-6.688 1.828-8.594 1.828-1.906 7.453-1.906h9.218V0h-9.218q-10.407 0-14.36 3.875-3.953 3.89-3.953 14.14v29.688H2.687v6.984h6.594V70.22z" id="DejaVuSans-116"/><path d="M54.89 33.016V0h-8.984v32.719q0 7.765-3.031 11.61-3.031 3.858-9.078 3.858-7.281 0-11.484-4.64-4.204-4.625-4.204-12.64V0H9.08v75.984h9.03V46.188q3.235 4.937 7.594 7.374Q30.078 56 35.797 56q9.422 0 14.25-5.828 4.844-5.828 4.844-17.156z" id="DejaVuSans-104"/><path d="M45.406 46.39v29.594h8.985V0h-8.985v8.203Q42.578 3.328 38.25.953q-4.313-2.375-10.375-2.375-9.906 0-16.14 7.906-6.22 7.922-6.22 20.813 0 12.89 6.22 20.797Q17.968 56 27.874 56q6.063 0 10.375-2.375 4.328-2.36 7.156-7.234zm-30.61-19.093q0-9.906 4.079-15.547 4.078-5.64 11.203-5.64 7.125 0 11.219 5.64 4.11 5.64 4.11 15.547 0 9.906-4.11 15.547-4.094 5.64-11.219 5.64-7.125 0-11.203-5.64-4.078-5.64-4.078-15.547z" id="DejaVuSans-100"/></defs><use xlink:href="#DejaVuSans-82"/><use x="64.982" xlink:href="#DejaVuSans-117"/><use x="128.361" xlink:href="#DejaVuSans-116"/><use x="167.57" xlink:href="#DejaVuSans-104"/><use x="230.949" xlink:href="#DejaVuSans-101"/><use x="292.473" xlink:href="#DejaVuSans-114"/><use x="333.586" xlink:href="#DejaVuSans-102"/><use x="368.791" xlink:href="#DejaVuSans-111"/><use x="429.973" xlink:href="#DejaVuSans-114"/><use x="469.336" xlink:href="#DejaVuSans-100"/></g></g></g></g><defs><clipPath id="p10b11d60ee"><path d="M117 77.76h725.4v498.96H117z"/></clipPath></defs></svg>