<svg height="864" viewBox="0 0 936 648" width="1248" xmlns="http://www.w3.org/2000/svg" xmlns:xlink="http://www.w3.org/1999/xlink"><defs><style>*{stroke-linecap:butt;stroke-linejoin:round}</style></defs><g id="figure_1"><path d="M0 648h936V0H0z" style="fill:#fff" id="patch_1"/><g id="axes_1"><path d="M117 576.72h725.4V77.76H117z" style="fill:none" id="patch_2"/><path clip-path="url(#p93621bd9b5)" d="m149.973 554.039 42.242-.089 4.694-.17 3.52-.273 1.174-.222 1.173-.366 2.347-1.1 1.173-.778 2.347-1.88 1.173-1.326 2.347-3.076 1.174-1.88 1.173-1.643 1.174-1.895 2.346-4.388 2.347-4.828 1.174-2.635 1.173-1.574 2.347-3.723 3.52-4.705 1.173-.982 1.174-.795 1.173-.396 3.52-.662 1.174.074 1.173.618 1.174.026 1.173.325 1.173.444 1.174.276 1.173.085 2.347-.55 1.173.038 4.694.862 1.174-.227 2.346-.173 1.174.5 1.173.167 2.347.887 2.347 1.718 2.347 1.105 1.173.217 1.173.499 1.174.313 1.173.713 2.347 1.193 1.173.012 1.174.252 1.173.133 3.52.847 1.174.026 1.173-.136 3.52.945 1.174.156 1.173.024 1.174-.149 2.347.01 2.346.664 1.174-.452 1.173-.023 2.347.213 1.173.008 1.174-.379 2.347-.15 1.173-.179 2.347.303 1.173-.378 2.347-1.116 1.173-.196 1.174-.877 1.173-.715 1.174-1.13 1.173-1.5 1.173-1.302 3.52-5.068 3.52-5.832 1.174-2.242 2.347-4.961 4.694-6.66 1.173-2.072 1.174-1.725 1.173-2.093 2.347-3.385 1.173-2.034 2.347-3.28 1.173-1.856 2.347-2.417 1.174-1.614 2.346-2.19 2.347-1.881 2.347-1.047 2.347.55 2.347.374 1.173.621 1.174.17 1.173.518 3.52 3.283 1.174 1.476 3.52 3.356 1.173.528 1.174 1.107 1.173.9 1.173 1.153 1.174 1.372 1.173.886 1.174.561 2.346 1.717 2.347 1.938 3.52 3.118 1.174 1.489 1.173.624 1.174 1.307 2.346 1.605 1.174 1.19 1.173.565 1.174.803 1.173.096 1.174-.075 1.173.974 1.173-.034 1.174-.283 2.347.47 1.173 1.405 1.173.945 1.174 1.105 1.173.696 1.174-.093 1.173.508 2.347-.03 1.173.446 1.174-.629 1.173.1 1.173.297 1.174.04 1.173-.586 1.174-2.746 2.346-1.536 2.347-1.305 2.347-.696 1.174-.043 1.173-.413 1.173-.258 1.174-.102 2.347-.983 1.173.12 1.173-.688 1.174-.505 2.347-2.087 1.173-.404 3.52-2.498 1.174-.986 3.52-4.943 1.173-.459 1.174-1.182 1.173-.279 1.173-1.634 1.174-1.035 1.173-1.728 2.347-4.91 1.173-1.377 1.174-2.455 2.347-3.874 1.173-2.333 5.867-13.603 2.347-8.302 4.694-17.92 3.52-18.378 2.347-14.423 1.173-5.623 2.347-13.07 3.52-18.105 1.173-4.241 1.174-3.446 1.173-4.533 2.347-6.99 1.174 5.592 1.173-2.244 1.173.703 2.347-.188 1.174-2.083 2.346-5.45 3.52-8.98 1.174-2.296 2.347-7.466 1.173-11.268 1.174-6.884 1.173-5.174 1.173-4.434 1.174-3.063 1.173-1.745 1.174-4.024 2.346-3.669 1.174 1.088 1.173-.736 1.174.277 1.173 1.666 1.173-.742 1.174 2.924 1.173 16.555 1.174-.86 1.173 2.962 1.174 1.095 1.173.196 1.173 1.464 1.174.616 1.173 9.582 1.174-9.007 1.173-2.016 1.173-4.638 1.174-3.077 1.173-2.6 1.174-8.005 1.173-18.423 1.173-3.232 1.174-5.182 1.173-3.439 1.174-2.668 1.173-.035 1.173-.784 1.174-8.537 1.173 8.244 1.174 2.92 1.173 10.206 1.173 4.431 1.174 6.498 1.173 8.283 1.174 10.068 2.346 14.992 1.174 6.43 2.347 14.094 3.52 20.003 1.173 5.19 1.174-.066 2.347 12.63 3.52 17.504 1.173 3.908 1.174 5.863 1.173 5.001 3.52 17.176 2.347 9.142 1.173 7.982 4.694 18.998 2.347 6.206 1.173 3.09 1.174 2.257 1.173 1.916 1.174 2.559 2.346 3.99 1.174 1.187 1.173-.131 1.174.636 2.346.742 2.347 2.347 1.174 1.393 1.173-3.23 3.52 4.379 2.347 2.514 1.173 1.19 1.174-.043 1.173.287 2.347 1.337 1.173.467 1.174.2 1.173.54 1.174 3.67 1.173-.079 1.173-2.001 1.174-.62 2.347-1.98 1.173-.602 1.174-1.251 2.346-1.54 1.174-1.542 1.173-.735 1.174-.895 1.173-.242 1.173-2.017 1.174-.482 1.173.628 1.174-1.046 1.173-.653 2.347-.693 1.173-.11 1.174-1.39 1.173-.721 1.173.323 1.174-.9 1.173.945 1.174-.421 1.173.583 1.173.088 1.174.977 1.173 1.31 1.174 1.641 2.347 2.644 2.346 4.613 1.174 1.93 1.173 1.485 1.174 1.829 1.173.84 1.173 1.085 2.347 3.723 4.694 6.4 2.347 2.031 2.346 3.427 2.347 3.381 1.174 1.448 1.173 1.192 1.173 1.911 1.174 1.207 1.173 1.468 2.347 3.37 1.173 1.416 1.174.754 4.694 4.14 2.346 3.36 1.174.855 1.173 2.186 1.174.488 1.173 1.1 1.173.935 1.174 4.887 2.347 1.463 1.173.57 1.173.797 1.174.25 1.173 1.102 1.174.48 1.173.302 1.173.06 1.174-.886 1.173.986 1.174.226 1.173.671 1.173-3.383 3.52.79 1.174.13 1.173.612 3.52.411 1.174.249 1.174-.04 1.173-.355 1.173-.144 1.174-4.865 1.173-.714 1.174.331 1.173.105 1.173 1.038 1.174-1.32 1.173-1.492 1.174-3.184 1.173-1.879 2.347-.223 1.173-1.829 1.174-2.512 1.173-2.035 1.173 2.668 1.174-2.93 1.173-.78 1.174-.563 1.173-5.032 1.173-3.23 1.174-2.726 1.173-1.5 1.174-4.4 1.173-1.275 1.174-.764 1.173-5.32 1.173-5.885 1.174-4.324 1.173-5.741 1.174-6.495 1.173-1.59 1.173-1.279 1.174-7.097 1.173-8.131L793 448.83l1.173-5.667 1.173-7.863 2.347-3.942 1.174-7.892 1.173-5.095 1.173-6.51 1.174-3.726 1.173-5.966 2.347-3.784 1.173-11.369 1.174.555h0" style="fill:none;stroke:#000;stroke-linecap:round;stroke-width:1.5" id="line2d_1"/><path clip-path="url(#p93621bd9b5)" d="m149.973 554.04 44.59-.099 3.52-.235 2.346-.579 1.174-.538 1.173-1.046 1.173-.542 1.174-1.498 1.173-1.963 1.174-3.15 1.173-2.818 1.173-2.449 1.174-8.407 1.173-6.568 2.347-15.373 1.174-10.806 1.173-6.704 1.173-11.582 1.174-10.311 2.347-27.024 2.346-18.592 2.347-16.314 1.174-3.801 1.173-5.492 1.173-4.306 1.174-4.895 1.173 1.758 1.174-7.426 1.173 4.609 1.173-3.243 1.174 3.934 1.173 4.347 1.174-1.703 1.173.272 1.173-.868 1.174-1.557 1.173-1.82 1.174 4.613 1.173.804 1.173.627 1.174 1.99 1.173 5.354 1.174-.688 1.173 6.47 1.174 2.084 1.173 1.451 1.173 2.91 1.174 6.744 1.173 4.282 2.347 15.534 1.173 1.321 1.174 5.778 1.173 7.044 1.174 2.51 1.173 6.371 1.173 5.42 2.347 8.792 1.174 4.575 1.173 6.07 1.173-.613 1.174 4.599 1.173-.304 1.174 2.29 1.173 1.948 1.173 4.245 1.174 1.352 1.173 1.618 1.174.43 2.346-.307 1.174.586 2.347 2.82 1.173 4.197 1.174 1.182 1.173 2.94 1.173 2.081 1.174 1.502 1.173-.586 1.174 2.654 1.173 2.061 1.173 1.27 1.174 1.07 2.347 4.763 1.173 1.1 1.173 1.91 1.174.856 1.173 1.035 1.174.838 1.173.198 1.173 1.42 1.174.747 1.173-.126 1.174.204 1.173-.068 1.173 1.335 1.174-5.75 1.173-.136 1.174.518 1.173-.113 1.174.45 1.173-.245 1.173.054 2.347-.078 1.174.16 1.173-.208 2.347.395 1.173-.32 1.174 6.564 1.173.102 2.347-.245 1.173-.456 1.174.006 1.173-.439 1.173.705 1.174 1.145 1.173.095 1.174 1.363 1.173.099 1.173-.09 1.174-.282 1.173-.037 1.174-.34 3.52-1.953 1.173-.306 1.174-.123 1.173.065 1.174-2.18 1.173-.362 1.173-1.199 2.347-.5h1.174l1.173-.45 1.173.334 2.347 1.042 1.174.65 1.173.134 1.173-.079 1.174-1.54 2.347.72 1.173 1.049 1.173-.164 2.347.14 1.174.933 1.173.239 1.173-.549 1.174.668 1.173.112 1.174.484 1.173.725 1.173 1.19 1.174.722 1.173-.242 1.174-.947 1.173-.126 2.347.04 1.173-.947 1.174-.541 1.173.695 1.174-.555 1.173-.365 1.173.085 2.347-.715 2.347-.736 2.347.03 2.347-.64 1.173-.65 1.173-.13 2.347-.947 1.174-.204 1.173-.508 1.173-.269 1.174-.477 1.173-.252 1.174-1.025 1.173-1.366 1.174-.767 1.173-.068 1.173-1.083 1.174-.153 1.173-.862 1.174-1.656 1.173-.59 1.173-.404 1.174-.692 1.173-.344 1.174-2.5 1.173-1.08 1.173-.389 1.174-.18 1.173.306 1.174-1.812 1.173-.787 1.173-1.216 1.174-.238 1.173.044 2.347-4.53 1.173-1.223 1.174-1.775 1.173.463 1.174-.613 1.173-3.56 1.173-1.288 1.174-2.544 1.173-2.245 1.174-2.49 1.173-1.973 1.174-3.972 2.346-3.055 1.174-.6 1.173-2.847 1.174-4.814 1.173-2.725 1.173-3.802 1.174-4.404 2.347-5.88 1.173-7.256 1.173-4.752 1.174-6.615 1.173-4.84 2.347-19.707 1.173-2.899 1.174-7.501 1.173-5.488 1.174-7.562 2.346-9.988 1.174-6.66 1.173-5.188 1.174-1.696 2.347-6.728 1.173-2.378 1.173 1.877 1.174 2.381 1.173-3.307 1.174-1.976 1.173-.848 1.173-2.082 1.174-6.939 1.173-2.231 1.174-7.024 1.173.061 1.173-4.091 1.174-1.376 1.173-2.204 1.174 1.516 1.173-8.305 1.173-1.073 1.174-5.478 1.173 2.18 1.174-4.762 1.173 1.833 1.173 6.019 1.174 3.86 1.173 2.912 1.174 1.335 1.173 2.974 1.173-1.179 1.174 1.418 1.173-4.804 1.174 7.634 1.173 6.248 1.174 6.997 1.173 1.052 1.173 3.349 1.174-2.865 1.173-5.467 1.174-4.497 1.173 5.127 1.173-163.242 1.174-5.658 1.173-3.553 1.174-9.453 1.173-6.68 2.347-22.953 1.173-8.833 1.174-3.165 1.173-10.764 1.173-6.8 1.174-2.943 1.173-1.662 1.174-4.994 1.173 160.919 1.173 5.576 1.174 1.407 1.173 8.281 1.174 9.61 1.173.896 1.173 1.274 1.174 4.067 1.173-.647 1.174 10.45 1.173 7.993 1.174 1.29 1.173 2.47 1.173 2.889 1.174 1.151 1.173 5.032 1.174 10.655 1.173 5.992 1.173-.095 1.174 8.986 1.173 3.202 1.174 5.39 1.173 4.084 1.173 1.498 1.174 3.714 1.173 7.678 1.174 5.167 2.346 14.274 1.174-1.646 1.173-6.125 1.174.045 1.173 4.026 1.173 5.56 1.174 7.838 1.173-.487 1.174 1.427 1.173 4.265 1.174.276 1.173-.467 1.173-1.288 1.174-.756 1.173-5.78 1.174 1.171 1.173 1.424 1.173.283 1.174-2.221 1.173-2.875 1.174-1.666 1.173 1.352 1.173-3.297 1.174-2.238 1.173-.814 1.174-1.182 1.173.913 1.173-3.134 1.174 1.09 1.173-1.458 1.174-2.116 1.173-4.357 1.173-2.364 1.174-4.043 1.173-2.446 1.174-2.875 1.173-2.306 1.173-1.094 1.174-.443 1.173-4.71 1.174-2.723 1.173-4.07 1.174-2.722 1.173-3.938 1.173 2.194 1.174-3.87 1.173-.467 1.174 1.581 1.173-1.918 1.173 1.09 1.174 3.717 1.173-.494 1.174-1.322 1.173 4.79 2.347 7.443 1.173 3.9 1.174 3.13 1.173.358 1.173 5.757 1.174.504 1.173 1.782 2.347 4.428 1.173 2.974 1.174 2.61 1.173 3.754 1.174 4.629 1.173 2.78 1.174 5.767 1.173 39.11 1.173 6.234 1.174 4.946 1.173 5.702 2.347 16.545 1.173 6.647 1.174 4.087 1.173 6.251 1.174 3.223 2.346 12.55 1.174 7.265 1.173 4.616 1.174-31.193 2.346 10.86 1.174 6.186 1.173 5.225 2.347 6.377 1.173 2.163 1.174 1.223 1.173 7.103 1.174 2.902 2.346 2 2.347.3 1.174.586 1.173.31 2.347.31 1.173 1.331 1.174.079 1.173.514 1.174 1.66 1.173.582 1.173.953 1.174 1.223 1.173.068 1.174.314 1.173-.361 2.347 1.38 1.173.177 2.347-.007 1.173.133 1.174-.116 1.173-.31 1.174-.034 2.346.238 1.174.511 2.347.45 1.173-.123 1.173-.286 1.174.238 1.173-.255 1.174.04 5.867.938 1.173-.15 2.347.17 2.347.45 1.173-.051 3.52-.62 1.174-.453 1.173-.232 2.347-1.056 1.173-.777 1.174-.627 2.347-2.299 1.173-.77 1.173-1.717 2.347-2.83 2.347-3.615 2.347-2.108 1.173-1.468 2.347-4.136 2.347-4.285 1.173-1.704 1.174-1.928 1.173-2.23 1.174-1.81 1.173-2.452 1.173-1.489 1.174-2.31 1.173-1.951 1.174-1.159 1.173-2.844 3.52-7.63 1.174-4.708 1.173-1.179 1.173-1.451 1.174-1.73h0" style="fill:none;stroke:#009e73;stroke-linecap:round;stroke-width:1.5" id="line2d_2"/><path clip-path="url(#p93621bd9b5)" d="m149.973 554.04 38.722-.097 3.52-.13 3.52-.325 1.174-.454 1.173-.033 1.174-.94 1.173-.747 1.174-1.558 1.173-5.29 1.173-1.429 1.174-.649 1.173-3.051 1.174-4.9 1.173-2.922 1.173-3.7 1.174-12.496 2.347-19.929 1.173-10.71 1.174-9.218 1.173-13.113 1.173-17.397 1.174-14.313 1.173-23.434 1.174-28.367 1.173-10.776 1.173-16.975 1.174-18.792 1.173-7.238 1.174-2.662 1.173-9.282 2.347-6.232 1.173.162 1.174 3.019 1.173 5.29 1.173 1.428 1.174 10.16 1.173 19.279 1.174-1.59 2.346 20.415 1.174.357 1.173 3.44 1.174 8.796 1.173 1.915 1.173 6.329 1.174 5.485 1.173 6.07 1.174 7.367 1.173 12.886 1.174 7.595 1.173 5.063 2.347 17.527 1.173 5.42 2.347 17.656 1.173 6.946 1.174 9.088 1.173 3.31 1.174 1.299 1.173 2.726 1.173 4.415 1.174 7.594 1.173 3.408 2.347 6.135 1.173-.033 1.174 3.733 1.173 2.077 1.174.779 1.173.974 1.173 2.596 1.174-.357 2.347.098 1.173-.033 1.173-6.653 1.174 1.622 1.173 2.045 1.174 1.753 1.173 2.207 1.174 1.038 1.173-1.525 1.173 1.071 1.174.487 1.173-.454 1.174 3.765 1.173 2.304 1.173.876 1.174-1.103 1.173 2.694 1.174 1.33 1.173-2.401 1.173 1.558h1.174l1.173-.714 1.174.519 1.173.357 1.173 1.2h1.174l1.173.195 1.174-.032 1.173.097 1.173 2.143 1.174-9.12 1.173-2.37 1.174 1.655 1.173-2.142 1.174.292 2.346.325 1.174-.195 1.173-1.298 1.174-.033 1.173-1.59 1.173-.098 1.174.357 1.173-.908 1.174 9.185 1.173 1.33 1.173-.291 1.174 1.785 1.173.032 1.174 1.039 2.346.324 1.174 1.364 1.173.551 1.174 2.013 1.173-.78 1.173.098 2.347.974 1.174.876 2.346-.65 1.174-1.103 1.173-1.46 1.174-.844 1.173.065 1.174-1.428 1.173-.292 1.173-.844 1.174.746 1.173-1.266 1.174.52 2.346.26 1.174-.877 1.173-.292 2.347 1.46 1.173.325 1.174-.649 1.173-1.883 1.174-1.298 2.346-3.213 1.174 1.006 1.173.844 1.174 2.467 1.173.13 1.173.746 1.174 1.071 1.173.162 2.347-.357 1.173.747 1.174 3.18 1.173.52 2.347 2.5 1.174-1.267 1.173-.844 1.173-2.564 1.174-.227 1.173 1.006 1.174-.746 1.173-.065 1.173.487 1.174.324 1.173-.13 1.174-.357 1.173 1.169 1.173.195 1.174.454 1.173 1.98 1.174-.162 1.173-.78 1.173-.13 1.174-.746 1.173.325 1.174-.033 1.173-.843 1.173.13 1.174-.195 1.173.13 1.174-.715 1.173-.389 1.174-.13 1.173-.974 1.173-.13 1.174-.389 1.173-.714 1.174-1.071 1.173-.617 1.173-.357 1.174.033 1.173-.812 1.174-1.785 2.346-2.888 1.174-.747 1.173-.487 1.174-2.207 2.346-2.207 1.174-.65 1.173-.356 1.174-1.85 1.173-2.175 1.173-1.525 1.174-2.337 1.173-.747 1.174-.486 1.173-2.37 1.173-1.72 1.174-2.37 1.173-1.46 1.174-.876 1.173-1.071 1.174-4.35 2.346-3.96 1.174-1.427 1.173-2.435 1.174-3.018 1.173.032 1.173-4.057 1.174-5.94 1.173-2.953 1.174-.487 1.173-4.998 1.173-7.206 1.174-8.795 1.173-4.642 2.347-16.098 1.173-1.136 2.347-13.795 1.174-10.938 1.173-4.154 1.173-3.538 1.174-6.296 1.173-8.374 1.174-1.136 1.173-.584 1.174-.26 1.173-6.362 1.173 5.745 2.347-6.491 1.174-2.11 1.173.747 1.173-1.883 1.174-8.893 1.173-2.24 1.174-4.511 1.173 1.947 1.173-1.266 1.174 1.818 1.173-.26 1.174 8.504 1.173-10.354 1.173 4.285 1.174-3.506 1.173 3.863 1.174-.844 1.173 4.317 1.173 7.173 2.347 10.873 1.174 2.694 1.173 1.233 1.173-5.972 1.174-1.169 1.173-4.966 1.174 7.498 2.347 9.218 1.173.811 1.173.422 1.174-5.485 2.347-5.193 1.173 2.207 1.173-141.902 1.174-9.607 1.173-4.9 1.174-6.525 1.173-7.79 2.347-19.311 1.173-3.7 1.174-1.233 1.173-10.744 1.173-6.88 2.347-7.109 1.174-5.842 1.173 140.928 1.173 4.836 1.174 1.33 1.173 4.934 1.174 10.419 1.173-2.24 1.173 1.59 1.174.747 1.173-3.505 2.347 15.936 1.174 3.7 1.173.714 1.173 2.045 1.174-2.434 1.173 5.874 1.174 11.393 1.173 3.278 1.173-4.804 1.174 5.81 1.173 1.72 1.174 2.857 1.173 4.576 1.173 1.233 1.174 3.798 1.173 2.888 1.174 3.408 1.173 5.258 1.173 6.784 1.174-6.719 1.173-5.03 1.174 1.395 1.173 6.427 1.173 4.251 1.174 6.524 2.347-6.653 1.173 2.272 1.174-2.727 1.173-4.674 1.173-.486 1.174.26 1.173-11.555 1.174 3.408 1.173-4.187 1.173-.52 1.174-5.095 1.173 4.316 1.174-3.375 1.173 3.18 1.173-3.375 1.174-.909 1.173-.746 1.174 2.337 1.173 1.168 1.173-4.414 1.174 5.583 1.173-2.5 1.174.293 1.173-2.922 1.173-2.531 1.174-9.997 1.173-.974 1.174-3.148 1.173.065 1.173-1.33 1.174 4.51 1.173-9.444 1.174-5.68 1.173-4.934 1.174-1.265 1.173-1.948 1.173-2.37 1.174-2.012 1.173.52 1.174.292 1.173-.227 1.173.714 1.174 5.03 1.173-2.466 1.174-1.526 1.173 11.133 1.173 6.2 1.174 6.913 1.173 3.992 2.347 13.145 1.173 5.453 1.174 4.024 2.347 9.12 1.173 5.324 1.173 3.57 1.174 6.653 1.173 3.344 1.174 5.225 1.173 3.116 1.174 5.583 1.173 7.854 1.173 4.706 1.174 5.94 1.173 4.317 2.347 15.611 1.173 4.772 1.174 2.856 1.173 5.096 1.174-31.581 1.173-3.148 1.173 5.063 1.174 6.2 1.173 2.888 1.174-1.071 1.173 4.414 1.173 3.278 1.174 5.972 1.173 2.954 1.174 1.363 1.173.941 1.173 1.428 1.174 2.013 1.173 40.7 1.174 12.27 1.173.486 1.173 1.98 1.174 1.039 2.347.486 1.173 1.461 1.174.422 1.173 1.363 1.173 2.305 1.174 1.2 1.173.877 1.174.616 1.173.78 1.173.389 1.174 1.298 1.173-.422 1.174.227 1.173.455 1.173.941 1.174.617 1.173.26 2.347-.13 1.173-.422 1.174-.098 1.173-.681 2.347-.39h1.173l1.174.877 2.347.421 1.173-.389 2.347-1.136 1.173.227 1.174-.162 1.173.065 1.174.26 1.173.064 1.173-.551 1.174-.422 1.173-.033 1.174-.324 1.173.357 1.173.032 3.52 1.623 2.347.195 1.174-.292 1.173-.033 2.347-.454 1.173-.455 1.174-.714 2.347-1.72 1.173-.682 2.347-2.142 1.173-1.882 1.174-2.532 1.173-2.11 1.174-1.07 1.173-1.883 1.173-1.233 1.174-1.72 1.173-2.467 2.347-4.09 1.173-2.337 1.174-1.785 1.173-2.629 1.174-1.655 2.346-2.337 2.347-1.623 1.174.325 1.173-3.603 1.173-1.753 1.174-2.37 1.173-.94 1.174-3.408 1.173 3.115 1.173-.324 1.174-2.337h0" style="fill:none;stroke:#d55e00;stroke-linecap:round;stroke-width:1.5" id="line2d_3"/><path clip-path="url(#p93621bd9b5)" d="M149.973 554.04h51.63l1.173-3.306h2.347l1.173-1.653h1.174l2.346-9.919 1.174-9.918 1.173-1.653 1.174-4.96 1.173-3.306 1.174-8.265 1.173-13.225 1.173-11.571h1.174l1.173-9.919 1.174-26.45 1.173-16.53 1.173-4.96 1.174-3.305h1.173l1.174-6.613 1.173-9.918 1.173 1.653 1.174 3.306 1.173-1.653 1.174 6.612 1.173 4.96 1.173-4.96 1.174 1.653 1.173 21.49 1.174 18.184 1.173-3.306 1.173 3.306 1.174-3.306 1.173 8.266h3.52l1.174 1.653 1.173 6.612 3.52 9.918h2.347l1.174 8.266 1.173 4.96 2.347 16.53 1.173 9.918 1.174 3.307h1.173l1.174 1.653 1.173-6.613 1.173 1.653 2.347 6.613 1.174 4.959h2.346l1.174-1.653h2.347l1.173 1.653h2.347l1.173 6.612 1.174 4.96 2.346 3.306 1.174-1.653h2.347l1.173-4.96h9.387l1.174-1.653h1.173l1.174 1.653h2.346l1.174 4.96h7.04l1.174-3.306 1.173 1.653h1.173l1.174-1.653h3.52l1.174-6.613 1.173 1.653 1.173-1.653h4.694l1.173-6.612 1.174-1.653 1.173 1.653h1.174l1.173-1.653h2.347l1.173 3.306 1.174-1.653 1.173 1.653h4.694l1.173 9.918 1.173-3.306 1.174-1.653h1.173l1.174 3.306h2.346l2.347 3.307h1.174l1.173-1.654h3.52l1.174-1.653 1.173 4.96h1.174l1.173 1.653h3.52l1.174 1.653h1.173l1.173-1.653 1.174 1.653 1.173-1.653h4.694l1.173 1.653 2.347-3.306h3.52l1.174-3.307h1.173l1.173-1.653 1.174 1.653h4.694l1.173-6.612 2.347 3.306h3.52l1.173-1.653 2.347 3.306h5.867l1.174 3.307 1.173-1.654h3.52l1.174-4.959 1.173 4.96 1.173-1.654h4.694l1.174 1.653h1.173l1.173 3.307 1.174 1.653h3.52l1.173 1.653 1.174-1.653 1.173-6.613 1.174-14.877 1.173-3.307h2.347l1.173-3.306 1.174-9.918 1.173-1.653 2.347-16.531 2.347-9.919h1.173l2.347 3.307 1.173 14.877 1.174 3.306h2.346l1.174-6.612 1.173 3.306 1.174-6.612h2.347l2.346 9.918 1.174-16.53 1.173-1.653 2.347-9.919 1.173-8.265h2.347l1.174-21.49h1.173l1.173 8.265 1.174-19.837 1.173-3.306h2.347l1.173-6.612 1.174-18.184 2.347-16.531 1.173-14.878 1.173-8.265h1.174l1.173 8.265 1.174-6.612 1.173-9.919 1.174 28.103 1.173 11.571 1.173-33.061h1.174l1.173 3.306 1.174 8.265 1.173 1.653 1.173-13.224 1.174-16.531 1.173-9.919h1.174l1.173 4.96 1.173-6.613 1.174 1.653 1.173-29.755 1.174-14.878 1.173 33.062h2.347l1.173-3.306 1.174 6.612 1.173 26.45 1.173 11.57 1.174 18.185h1.173l1.174-26.45 1.173 8.266 1.173-36.368 1.174 21.49 1.173 14.878h2.347l1.174-26.45 1.173 6.613 2.347-38.021 1.173 28.102h2.347l1.173-9.918 1.174-18.184 1.173 21.49 1.174-16.53 1.173-19.838 1.173-16.53h1.174l1.173 13.224 1.174-9.918 1.173 6.612 1.173 1.653 1.174-16.53h2.347l1.173 54.55 1.173-4.958 1.174 6.612 1.173 18.184 1.174 14.878 1.173 16.53h1.173l1.174-14.877 1.173 11.571 1.174 14.878 1.173 6.612 1.174-9.918 1.173-8.266h2.347l1.173 34.715 1.174-26.45 2.346-13.224h2.347l1.174 24.796 1.173-4.959 1.173 1.653h1.174L590 413.528l1.174-3.306h2.346l1.174-23.143 1.173 34.714 1.174 8.266 1.173 3.306h1.173l1.174-11.572 1.173 19.837 2.347 3.307 1.174-11.572 1.173-6.612 1.173 11.571h1.174l1.173-26.449 1.174 6.612 1.173-1.653h1.173l1.174-14.877h1.173l1.174 11.571 1.173-16.53 1.173 3.305 1.174-6.612 1.173-1.653 1.174 6.612h2.346l1.174-11.571 1.173 4.959 1.174-3.306h1.173l1.173 14.878h2.347l1.174-16.531 1.173-3.306 1.173 1.653 1.174 9.918 1.173-3.306h1.174l1.173-14.878 1.174 19.837 1.173-1.653 1.173 8.266 1.174-24.797 1.173-6.612h2.347l1.173 11.572 1.174-3.307 2.347-1.653v-1.653l1.173 3.306 1.173-1.653 1.174 14.878 1.173 1.653 1.174 4.96 1.173-3.307 1.173 9.919 1.174 6.612 1.173-8.265h1.174l1.173 23.143 1.173 11.571 2.347 6.613h1.174l1.173 1.653h1.174l1.173 6.612 2.347 6.612 1.173 13.225 1.174-6.612 1.173 6.612h1.173l1.174 1.653h2.347l1.173 8.266 1.173 4.959h2.347l1.174 3.306 1.173 4.96 1.173 3.305 1.174 6.613 1.173 14.877 1.174 1.654h1.173l1.173 3.306 1.174 1.653 1.173 9.918 1.174 1.653 1.173 3.307h2.347l1.173 6.612h2.347l1.174-3.306h5.867l1.173-1.653 1.173 1.653h4.694l1.173-4.96h1.174l1.173 3.307h5.867l1.174 1.653h5.867l1.173 4.959 1.173 1.653h1.174l1.173-6.612h5.867l1.174-1.653h7.04l1.174-1.653 1.173 4.959h4.694l2.346-3.306h7.04l1.174-1.653 1.174-8.266h2.347l1.173-34.715 1.173-3.306h1.174l2.347-16.53h2.346l1.174-11.572 1.173-4.96 1.174-1.652h1.173l1.173 8.265h2.347l1.174 18.184 1.173-1.653 1.173-8.266 1.174 1.653 1.173 4.96h2.347l1.173-4.96 1.174 1.653h1.173" style="fill:none;stroke:#0072b2;stroke-linecap:round;stroke-width:1.5" id="line2d_4"/><path clip-path="url(#p93621bd9b5)" d="M117 551.014h725.4" style="fill:none;stroke:green;stroke-dasharray:1.5,2.475;stroke-dashoffset:0;stroke-width:1.5" id="line2d_5"/><path clip-path="url(#p93621bd9b5)" d="M117 538.912h725.4" style="fill:none;stroke:orange;stroke-dasharray:1.5,2.475;stroke-dashoffset:0;stroke-width:1.5" id="line2d_6"/><path clip-path="url(#p93621bd9b5)" d="M117 523.784h725.4" style="fill:none;stroke:red;stroke-dasharray:1.5,2.475;stroke-dashoffset:0;stroke-width:1.5" id="line2d_7"/><path d="M117 576.72V77.76" style="fill:none;stroke:#d3d3d3;stroke-linecap:square;stroke-linejoin:miter;stroke-width:1.25" id="patch_3"/><path d="M117 576.72h725.4" style="fill:none;stroke:#d3d3d3;stroke-linecap:square;stroke-linejoin:miter;stroke-width:1.25" id="patch_4"/><g id="matplotlib.axis_1"><g id="xtick_1"><g style="fill:#696969" transform="matrix(.16 0 0 -.16 166.561 598.378)" id="text_1"><defs><path d="M9.813 72.906h14.703l18.593-49.61 18.703 49.61h14.704V0H66.89v64.016l-18.797-50h-9.907l-18.796 50V0H9.813z" id="DejaVuSans-77"/><path d="M34.281 27.484q-10.89 0-15.093-2.484-4.204-2.484-4.204-8.5 0-4.781 3.157-7.594 3.156-2.797 8.562-2.797 7.485 0 12 5.297 4.516 5.297 4.516 14.078v2zm17.922 3.72V0H43.22v8.297Q40.14 3.328 35.547.953q-4.594-2.375-11.234-2.375-8.391 0-13.36 4.719Q6 8.016 6 15.922q0 9.219 6.172 13.906 6.187 4.688 18.437 4.688h12.61v.89q0 6.203-4.078 9.594-4.078 3.39-11.453 3.39-4.688 0-9.141-1.124-4.438-1.125-8.531-3.375v8.312q4.921 1.906 9.562 2.844 4.64.953 9.031.953 11.875 0 17.735-6.156 5.86-6.14 5.86-18.64z" id="DejaVuSans-97"/><path d="M41.11 46.297q-1.516.875-3.297 1.281Q36.03 48 33.89 48q-7.625 0-11.703-4.953-4.079-4.953-4.079-14.234V0H9.08v54.688h9.03v-8.5q2.844 4.984 7.375 7.39Q30.031 56 36.531 56q.922 0 2.047-.125 1.125-.11 2.484-.36z" id="DejaVuSans-114"/></defs><use xlink:href="#DejaVuSans-77"/><use x="86.279" xlink:href="#DejaVuSans-97"/><use x="147.559" xlink:href="#DejaVuSans-114"/></g></g><g id="xtick_2"><g style="fill:#696969" transform="matrix(.16 0 0 -.16 236.693 598.378)" id="text_2"><defs><path d="M32.172-5.078q-3.797-9.766-7.422-12.735-3.61-2.984-9.656-2.984H7.906v7.516h5.282q3.703 0 5.75 1.765Q21-9.766 23.483-3.219l1.61 4.094-22.11 53.813H12.5l17.094-42.766 17.093 42.766h9.516z" id="DejaVuSans-121"/></defs><use xlink:href="#DejaVuSans-77"/><use x="86.279" xlink:href="#DejaVuSans-97"/><use x="147.559" xlink:href="#DejaVuSans-121"/></g></g><g id="xtick_3"><g style="fill:#696969" transform="matrix(.16 0 0 -.16 315.158 598.378)" id="text_3"><defs><path d="M9.813 72.906h9.859V5.078q0-13.187-5-19.14-5-5.954-16.094-5.954h-3.75v8.297h3.078q6.531 0 9.219 3.672Q9.813-4.39 9.813 5.078z" id="DejaVuSans-74"/><path d="M8.5 21.578v33.11h8.984V21.922q0-7.766 3.016-11.656 3.031-3.875 9.094-3.875 7.265 0 11.484 4.64 4.234 4.64 4.234 12.656v31h8.985V0h-8.984v8.406Q42.047 3.422 37.718 1q-4.313-2.422-10.032-2.422-9.421 0-14.312 5.86Q8.5 10.296 8.5 21.578zM31.11 56z" id="DejaVuSans-117"/><path d="M9.422 75.984h8.984V0H9.422z" id="DejaVuSans-108"/></defs><use xlink:href="#DejaVuSans-74"/><use x="29.492" xlink:href="#DejaVuSans-117"/><use x="92.871" xlink:href="#DejaVuSans-108"/></g></g><g id="xtick_4"><g style="fill:#696969" transform="matrix(.16 0 0 -.16 382.482 598.378)" id="text_4"><defs><path d="M53.516 70.516V60.89q-5.61 2.687-10.594 4-4.984 1.328-9.625 1.328-8.047 0-12.422-3.125t-4.375-8.89q0-4.845 2.906-7.313 2.907-2.453 11.016-3.97l5.953-1.218q11.031-2.11 16.281-7.406 5.25-5.297 5.25-14.172 0-10.61-7.11-16.078-7.093-5.469-20.812-5.469-5.172 0-11.015 1.172Q13.14.922 6.89 3.219v10.156q6-3.36 11.765-5.078 5.766-1.703 11.328-1.703 8.438 0 13.032 3.312 4.593 3.328 4.593 9.485 0 5.359-3.297 8.39-3.296 3.032-10.812 4.547L27.484 33.5q-11.03 2.188-15.968 6.875-4.922 4.688-4.922 13.047 0 9.672 6.812 15.234 6.813 5.563 18.766 5.563 5.14 0 10.453-.938 5.328-.922 10.89-2.765z" id="DejaVuSans-83"/><path d="M56.203 29.594v-4.39H14.891q.593-9.282 5.593-14.142 5-4.859 13.938-4.859 5.172 0 10.031 1.266 4.86 1.265 9.656 3.812v-8.5Q49.266.734 44.187-.344 39.11-1.422 33.892-1.422q-13.094 0-20.735 7.61-7.64 7.625-7.64 20.625 0 13.421 7.25 21.296Q20.016 56 32.328 56q11.031 0 17.453-7.11 6.422-7.093 6.422-19.296zm-8.984 2.64q-.094 7.36-4.125 11.75-4.032 4.407-10.672 4.407-7.516 0-12.031-4.25-4.516-4.25-5.203-11.97z" id="DejaVuSans-101"/><path d="M18.11 8.203v-29H9.077v75.484h9.031v-8.296q2.844 4.875 7.157 7.234Q29.594 56 35.594 56q9.968 0 16.187-7.906 6.235-7.907 6.235-20.797T51.78 6.484q-6.218-7.906-16.187-7.906-6 0-10.328 2.375-4.313 2.375-7.157 7.25zm30.578 19.094q0 9.906-4.079 15.547-4.078 5.64-11.203 5.64-7.14 0-11.218-5.64-4.079-5.64-4.079-15.547 0-9.906 4.078-15.547 4.079-5.64 11.22-5.64 7.124 0 11.202 5.64t4.078 15.547z" id="DejaVuSans-112"/></defs><use xlink:href="#DejaVuSans-83"/><use x="63.477" xlink:href="#DejaVuSans-101"/><use x="125" xlink:href="#DejaVuSans-112"/></g></g><g id="xtick_5"><g style="fill:#696969" transform="matrix(.16 0 0 -.16 453.524 598.378)" id="text_5"><defs><path d="M9.813 72.906h13.28l32.329-60.984v60.984h9.562V0h-13.28L19.39 60.984V0H9.813z" id="DejaVuSans-78"/><path d="M30.61 48.39q-7.22 0-11.422-5.64-4.204-5.64-4.204-15.453 0-9.813 4.172-15.453 4.188-5.64 11.453-5.64 7.188 0 11.375 5.655 4.203 5.672 4.203 15.438 0 9.719-4.203 15.406-4.187 5.688-11.375 5.688zm0 7.61q11.718 0 18.406-7.625 6.703-7.61 6.703-21.078 0-13.422-6.703-21.078-6.688-7.64-18.407-7.64-11.765 0-18.437 7.64-6.656 7.656-6.656 21.078 0 13.469 6.656 21.078Q18.844 56 30.609 56z" id="DejaVuSans-111"/><path d="M2.984 54.688H12.5L29.594 8.797l17.093 45.89h9.516L35.687 0H23.485z" id="DejaVuSans-118"/></defs><use xlink:href="#DejaVuSans-78"/><use x="74.805" xlink:href="#DejaVuSans-111"/><use x="135.986" xlink:href="#DejaVuSans-118"/></g></g><g id="xtick_6"><g style="fill:#696969" transform="matrix(.16 0 0 -.16 528.385 598.378)" id="text_6"><defs><path d="M54.89 33.016V0h-8.984v32.719q0 7.765-3.031 11.61-3.031 3.858-9.078 3.858-7.281 0-11.484-4.64-4.204-4.625-4.204-12.64V0H9.08v54.688h9.03v-8.5q3.235 4.937 7.594 7.374Q30.078 56 35.797 56q9.422 0 14.25-5.828 4.844-5.828 4.844-17.156z" id="DejaVuSans-110"/></defs><use xlink:href="#DejaVuSans-74"/><use x="29.492" xlink:href="#DejaVuSans-97"/><use x="90.771" xlink:href="#DejaVuSans-110"/></g></g><g id="xtick_7"><g style="fill:#696969" transform="matrix(.16 0 0 -.16 594.854 598.378)" id="text_7"><use xlink:href="#DejaVuSans-77"/><use x="86.279" xlink:href="#DejaVuSans-97"/><use x="147.559" xlink:href="#DejaVuSans-114"/></g></g><g id="xtick_8"><g style="fill:#696969" transform="matrix(.16 0 0 -.16 664.986 598.378)" id="text_8"><use xlink:href="#DejaVuSans-77"/><use x="86.279" xlink:href="#DejaVuSans-97"/><use x="147.559" xlink:href="#DejaVuSans-121"/></g></g><g id="xtick_9"><g style="fill:#696969" transform="matrix(.16 0 0 -.16 743.451 598.378)" id="text_9"><use xlink:href="#DejaVuSans-74"/><use x="29.492" xlink:href="#DejaVuSans-117"/><use x="92.871" xlink:href="#DejaVuSans-108"/></g></g><g id="xtick_10"><g style="fill:#696969" transform="matrix(.16 0 0 -.16 810.775 598.378)" id="text_10"><use xlink:href="#DejaVuSans-83"/><use x="63.477" xlink:href="#DejaVuSans-101"/><use x="125" xlink:href="#DejaVuSans-112"/></g></g></g><g id="matplotlib.axis_2"><g id="ytick_1"><g style="fill:#696969" transform="matrix(.16 0 0 -.16 97.32 560.119)" id="text_11"><defs><path d="M31.781 66.406q-7.61 0-11.453-7.5Q16.5 51.422 16.5 36.375q0-14.984 3.828-22.484 3.844-7.5 11.453-7.5 7.672 0 11.5 7.5 3.844 7.5 3.844 22.484 0 15.047-3.844 22.531-3.828 7.5-11.5 7.5zm0 7.813q12.266 0 18.735-9.703 6.468-9.688 6.468-28.141 0-18.406-6.468-28.11-6.47-9.687-18.735-9.687-12.25 0-18.718 9.688-6.47 9.703-6.47 28.109 0 18.453 6.47 28.14Q19.53 74.22 31.78 74.22z" id="DejaVuSans-48"/></defs><use xlink:href="#DejaVuSans-48"/></g></g><g id="ytick_2"><g style="fill:#696969" transform="matrix(.16 0 0 -.16 76.96 499.606)" id="text_12"><defs><path d="M19.188 8.297h34.421V0H7.33v8.297q5.609 5.812 15.296 15.594 9.703 9.797 12.188 12.64 4.734 5.313 6.609 9 1.89 3.688 1.89 7.25 0 5.813-4.078 9.469-4.078 3.672-10.625 3.672-4.64 0-9.797-1.61-5.14-1.609-11-4.89v9.969Q13.767 71.78 18.938 73q5.188 1.219 9.485 1.219 11.328 0 18.062-5.672 6.735-5.656 6.735-15.125 0-4.5-1.688-8.531-1.672-4.016-6.125-9.485-1.218-1.422-7.765-8.187-6.532-6.766-18.453-18.922z" id="DejaVuSans-50"/></defs><use xlink:href="#DejaVuSans-50"/><use x="63.623" xlink:href="#DejaVuSans-48"/><use x="127.246" xlink:href="#DejaVuSans-48"/></g></g><g id="ytick_3"><g style="fill:#696969" transform="matrix(.16 0 0 -.16 76.96 439.093)" id="text_13"><defs><path d="M37.797 64.313 12.89 25.39h24.906zm-2.594 8.593H47.61V25.391h10.407v-8.203H47.609V0h-9.812v17.188H4.89v9.515z" id="DejaVuSans-52"/></defs><use xlink:href="#DejaVuSans-52"/><use x="63.623" xlink:href="#DejaVuSans-48"/><use x="127.246" xlink:href="#DejaVuSans-48"/></g></g><g id="ytick_4"><g style="fill:#696969" transform="matrix(.16 0 0 -.16 76.96 378.58)" id="text_14"><defs><path d="M33.016 40.375q-6.641 0-10.532-4.547-3.875-4.531-3.875-12.437 0-7.86 3.875-12.438 3.891-4.562 10.532-4.562 6.64 0 10.515 4.562 3.875 4.578 3.875 12.438 0 7.906-3.875 12.437-3.875 4.547-10.515 4.547zm19.578 30.922v-8.984q-3.719 1.75-7.5 2.671-3.782.938-7.5.938-9.766 0-14.922-6.594-5.14-6.594-5.875-19.922 2.875 4.25 7.219 6.516 4.359 2.266 9.578 2.266 10.984 0 17.36-6.672 6.374-6.657 6.374-18.125 0-11.235-6.64-18.032-6.641-6.78-17.672-6.78-12.657 0-19.344 9.687-6.688 9.703-6.688 28.109 0 17.281 8.204 27.563 8.203 10.28 22.015 10.28 3.719 0 7.5-.734t7.89-2.187z" id="DejaVuSans-54"/></defs><use xlink:href="#DejaVuSans-54"/><use x="63.623" xlink:href="#DejaVuSans-48"/><use x="127.246" xlink:href="#DejaVuSans-48"/></g></g><g id="ytick_5"><g style="fill:#696969" transform="matrix(.16 0 0 -.16 76.96 318.068)" id="text_15"><defs><path d="M31.781 34.625q-7.031 0-11.062-3.766-4.016-3.765-4.016-10.343 0-6.594 4.016-10.36Q24.75 6.391 31.78 6.391q7.032 0 11.078 3.78 4.063 3.798 4.063 10.345 0 6.578-4.031 10.343-4.016 3.766-11.11 3.766zm-9.86 4.188q-6.343 1.562-9.89 5.906Q8.5 49.079 8.5 55.329q0 8.733 6.219 13.812 6.234 5.078 17.062 5.078 10.89 0 17.094-5.078 6.203-5.079 6.203-13.813 0-6.25-3.547-10.61-3.531-4.343-9.828-5.906 7.125-1.656 11.094-6.5 3.984-4.828 3.984-11.796 0-10.61-6.468-16.282-6.47-5.656-18.532-5.656-12.047 0-18.531 5.656-6.469 5.672-6.469 16.282 0 6.968 4 11.797 4.016 4.843 11.14 6.5zM18.314 54.39q0-5.657 3.53-8.828 3.548-3.172 9.938-3.172 6.36 0 9.938 3.172 3.593 3.171 3.593 8.828 0 5.672-3.593 8.843-3.578 3.172-9.938 3.172-6.39 0-9.937-3.172-3.532-3.172-3.532-8.843z" id="DejaVuSans-56"/></defs><use xlink:href="#DejaVuSans-56"/><use x="63.623" xlink:href="#DejaVuSans-48"/><use x="127.246" xlink:href="#DejaVuSans-48"/></g></g><g id="ytick_6"><g style="fill:#696969" transform="matrix(.16 0 0 -.16 66.78 257.555)" id="text_16"><defs><path d="M12.406 8.297h16.11v55.625l-17.532-3.516v8.985l17.438 3.515h9.86V8.296H54.39V0H12.406z" id="DejaVuSans-49"/></defs><use xlink:href="#DejaVuSans-49"/><use x="63.623" xlink:href="#DejaVuSans-48"/><use x="127.246" xlink:href="#DejaVuSans-48"/><use x="190.869" xlink:href="#DejaVuSans-48"/></g></g><g id="ytick_7"><g style="fill:#696969" transform="matrix(.16 0 0 -.16 66.78 197.043)" id="text_17"><use xlink:href="#DejaVuSans-49"/><use x="63.623" xlink:href="#DejaVuSans-50"/><use x="127.246" xlink:href="#DejaVuSans-48"/><use x="190.869" xlink:href="#DejaVuSans-48"/></g></g><g id="ytick_8"><g style="fill:#696969" transform="matrix(.16 0 0 -.16 66.78 136.53)" id="text_18"><use xlink:href="#DejaVuSans-49"/><use x="63.623" xlink:href="#DejaVuSans-52"/><use x="127.246" xlink:href="#DejaVuSans-48"/><use x="190.869" xlink:href="#DejaVuSans-48"/></g></g><g style="fill:#696969" transform="matrix(0 -.2 -.2 0 58.62 379.813)" id="text_19"><defs><path d="M51.125 44H36.922l-4.11-16.313h14.313zm-7.328 27.781-5.078-20.265h14.265L58.11 71.78h7.813L60.89 51.516h15.234V44h-17.14l-4-16.313h15.53V20.22H53.079L48 0h-7.813l5.032 20.219H30.906L25.875 0h-7.86l5.079 20.219H7.719v7.468h17.187L29 44H13.281v7.516h17.625l4.985 20.265z" id="DejaVuSans-35"/><path d="M37.11 75.984V68.5h-8.594q-4.828 0-6.72-1.953-1.874-1.953-1.874-7.031v-4.828h14.797v-6.985H19.922V0H10.89v47.703H2.297v6.984h8.594V58.5q0 9.125 4.25 13.297 4.25 4.187 13.468 4.187z" id="DejaVuSans-102"/><path d="M48.781 52.594v-8.407q-3.812 2.11-7.64 3.157-3.828 1.047-7.735 1.047-8.75 0-13.593-5.547-4.829-5.532-4.829-15.547 0-10.016 4.829-15.563 4.843-5.53 13.593-5.53 3.907 0 7.735 1.046 3.828 1.047 7.64 3.156V2.094Q45.016.344 40.984-.531q-4.015-.89-8.562-.89-12.36 0-19.64 7.765-7.266 7.765-7.266 20.953 0 13.375 7.343 21.031Q20.22 56 33.016 56q4.14 0 8.093-.86 3.953-.843 7.672-2.546z" id="DejaVuSans-99"/><path d="M44.281 53.078v-8.5q-3.797 1.953-7.906 2.922-4.094.984-8.5.984-6.688 0-10.031-2.047-3.344-2.046-3.344-6.156 0-3.125 2.39-4.906 2.391-1.781 9.626-3.39l3.078-.688q9.562-2.047 13.593-5.781 4.032-3.735 4.032-10.422 0-7.625-6.032-12.078-6.03-4.438-16.578-4.438-4.39 0-9.156.86Q10.688.296 5.422 2v9.281q4.984-2.594 9.812-3.89 4.829-1.282 9.579-1.282 6.343 0 9.75 2.172 3.421 2.172 3.421 6.125 0 3.656-2.468 5.61-2.453 1.953-10.813 3.765l-3.125.735q-8.344 1.75-12.062 5.39-3.704 3.64-3.704 9.985 0 7.718 5.47 11.906Q16.75 56 26.811 56q4.97 0 9.36-.734 4.406-.72 8.11-2.188z" id="DejaVuSans-115"/></defs><use xlink:href="#DejaVuSans-35"/><use x="83.789" xlink:href="#DejaVuSans-32"/><use x="115.576" xlink:href="#DejaVuSans-111"/><use x="176.758" xlink:href="#DejaVuSans-102"/><use x="211.963" xlink:href="#DejaVuSans-32"/><use x="243.75" xlink:href="#DejaVuSans-99"/><use x="298.73" xlink:href="#DejaVuSans-97"/><use x="360.01" xlink:href="#DejaVuSans-115"/><use x="412.109" xlink:href="#DejaVuSans-101"/><use x="473.633" xlink:href="#DejaVuSans-115"/></g></g><g style="fill:#696969" transform="matrix(.24 0 0 -.24 252.577 71.76)" id="text_20"><defs><path d="M4.203 54.688h8.985l11.234-42.672 11.172 42.672h10.593l11.235-42.672 11.187 42.672h8.985L63.28 0H52.688L40.922 44.828 29.109 0H18.5z" id="DejaVuSans-119"/><path d="M64.406 67.281v-10.39q-4.984 4.64-10.625 6.922-5.64 2.296-11.984 2.296-12.5 0-19.14-7.64-6.641-7.64-6.641-22.094 0-14.406 6.64-22.047 6.64-7.64 19.14-7.64 6.345 0 11.985 2.296 5.64 2.297 10.625 6.938V5.609Q59.234 2.094 53.437.33q-5.78-1.75-12.218-1.75-16.563 0-26.094 10.124-9.516 10.14-9.516 27.672 0 17.578 9.516 27.703 9.531 10.14 26.094 10.14 6.531 0 12.312-1.734 5.797-1.734 10.875-5.203z" id="DejaVuSans-67"/><path d="M25.39 72.906h8.297L8.297-9.28H0z" id="DejaVuSans-47"/><path d="M9.813 72.906h9.859V42.094L52.39 72.906h12.703L28.906 38.922 67.672 0H54.688L19.672 35.11V0h-9.86z" id="DejaVuSans-75"/><path d="M45.406 46.39v29.594h8.985V0h-8.985v8.203Q42.578 3.328 38.25.953q-4.313-2.375-10.375-2.375-9.906 0-16.14 7.906-6.22 7.922-6.22 20.813 0 12.89 6.22 20.797Q17.968 56 27.874 56q6.063 0 10.375-2.375 4.328-2.36 7.156-7.234zm-30.61-19.093q0-9.906 4.079-15.547 4.078-5.64 11.203-5.64 7.125 0 11.219 5.64 4.11 5.64 4.11 15.547 0 9.906-4.11 15.547-4.094 5.64-11.219 5.64-7.125 0-11.203-5.64-4.078-5.64-4.078-15.547z" id="DejaVuSans-100"/><path d="M9.422 54.688h8.984V0H9.422zm0 21.296h8.984v-11.39H9.422z" id="DejaVuSans-105"/><path d="M31 75.875q-6.531-11.219-9.719-22.219-3.172-10.984-3.172-22.265 0-11.266 3.203-22.328Q24.517-2 31-13.188h-7.813Q15.875-1.704 12.235 9.375q-3.64 11.078-3.64 22.016 0 10.89 3.61 21.922 3.624 11.046 10.983 22.562z" id="DejaVuSans-40"/><path d="M52 44.188q3.375 6.062 8.063 8.937Q64.75 56 71.093 56q8.548 0 13.188-5.984 4.64-5.97 4.64-17V0h-9.03v32.719q0 7.86-2.797 11.656-2.781 3.813-8.485 3.813-6.984 0-11.046-4.641-4.047-4.625-4.047-12.64V0h-9.032v32.719q0 7.906-2.78 11.687-2.782 3.782-8.595 3.782-6.89 0-10.953-4.657-4.047-4.656-4.047-12.625V0H9.08v54.688h9.03v-8.5q3.078 5.03 7.375 7.421Q29.781 56 35.687 56q5.97 0 10.141-3.031Q50 49.953 52 44.187z" id="DejaVuSans-109"/><path d="M8.016 75.875h7.812q7.313-11.516 10.953-22.563 3.64-11.03 3.64-21.921 0-10.938-3.64-22.016-3.64-11.078-10.953-22.563H8.016Q14.5-2 17.703 9.063q3.203 11.063 3.203 22.329 0 11.28-3.203 22.265-3.203 11-9.687 22.219z" id="DejaVuSans-41"/></defs><use xlink:href="#DejaVuSans-78"/><use x="74.805" xlink:href="#DejaVuSans-101"/><use x="136.328" xlink:href="#DejaVuSans-119"/><use x="218.115" xlink:href="#DejaVuSans-32"/><use x="249.902" xlink:href="#DejaVuSans-67"/><use x="319.727" xlink:href="#DejaVuSans-97"/><use x="381.006" xlink:href="#DejaVuSans-115"/><use x="433.105" xlink:href="#DejaVuSans-101"/><use x="494.629" xlink:href="#DejaVuSans-115"/><use x="546.729" xlink:href="#DejaVuSans-47"/><use x="580.42" xlink:href="#DejaVuSans-49"/><use x="644.043" xlink:href="#DejaVuSans-48"/><use x="707.666" xlink:href="#DejaVuSans-48"/><use x="771.289" xlink:href="#DejaVuSans-75"/><use x="836.865" xlink:href="#DejaVuSans-32"/><use x="868.652" xlink:href="#DejaVuSans-49"/><use x="932.275" xlink:href="#DejaVuSans-52"/><use x="995.898" xlink:href="#DejaVuSans-100"/><use x="1059.375" xlink:href="#DejaVuSans-32"/><use x="1091.162" xlink:href="#DejaVuSans-105"/><use x="1118.945" xlink:href="#DejaVuSans-110"/><use x="1182.324" xlink:href="#DejaVuSans-99"/><use x="1237.305" xlink:href="#DejaVuSans-105"/><use x="1265.088" xlink:href="#DejaVuSans-100"/><use x="1328.564" xlink:href="#DejaVuSans-101"/><use x="1390.088" xlink:href="#DejaVuSans-110"/><use x="1453.467" xlink:href="#DejaVuSans-99"/><use x="1508.447" xlink:href="#DejaVuSans-101"/><use x="1569.971" xlink:href="#DejaVuSans-32"/><use x="1601.758" xlink:href="#DejaVuSans-40"/><use x="1640.771" xlink:href="#DejaVuSans-115"/><use x="1692.871" xlink:href="#DejaVuSans-117"/><use x="1756.25" xlink:href="#DejaVuSans-109"/><use x="1853.662" xlink:href="#DejaVuSans-41"/></g><g id="legend_1"><path d="M694.75 184.5H831.2q3.2 0 3.2-3.2V88.96q0-3.2-3.2-3.2H694.75q-3.2 0-3.2 3.2v92.34q0 3.2 3.2 3.2z" style="fill:none;opacity:.8;stroke:#ccc;stroke-linejoin:miter" id="patch_5"/><path d="M697.95 98.718h32" style="fill:none;stroke:#000;stroke-linecap:round;stroke-width:1.5" id="line2d_8"/><g style="fill:#696969" transform="matrix(.16 0 0 -.16 742.75 104.317)" id="text_21"><defs><path d="M8.688 72.906h9.921V28.61q0-11.718 4.235-16.875 4.25-5.14 13.781-5.14 9.469 0 13.719 5.14 4.25 5.157 4.25 16.875v44.297H64.5V27.391q0-14.25-7.063-21.532-7.046-7.28-20.812-7.28-13.828 0-20.89 7.28-7.047 7.282-7.047 21.532z" id="DejaVuSans-85"/></defs><use xlink:href="#DejaVuSans-85"/><use x="73.193" xlink:href="#DejaVuSans-83"/></g><path d="M697.95 122.203h32" style="fill:none;stroke:#009e73;stroke-linecap:round;stroke-width:1.5" id="line2d_10"/><g style="fill:#696969" transform="matrix(.16 0 0 -.16 742.75 127.802)" id="text_22"><use xlink:href="#DejaVuSans-78"/><use x="74.805" xlink:href="#DejaVuSans-74"/></g><path d="M697.95 145.688h32" style="fill:none;stroke:#d55e00;stroke-linecap:round;stroke-width:1.5" id="line2d_12"/><g style="fill:#696969" transform="matrix(.16 0 0 -.16 742.75 151.287)" id="text_23"><defs><path d="M19.672 34.813V8.108H35.5q7.953 0 11.781 3.297 3.844 3.297 3.844 10.078 0 6.844-3.844 10.078-3.828 3.25-11.781 3.25zm0 29.984V42.828h14.61q7.218 0 10.75 2.703 3.546 2.719 3.546 8.282 0 5.515-3.547 8.25-3.531 2.734-10.75 2.734zm-9.86 8.11h25.204q11.28 0 17.375-4.688Q58.5 63.53 58.5 54.89q0-6.703-3.125-10.657-3.125-3.953-9.188-4.922 7.282-1.562 11.313-6.53 4.031-4.954 4.031-12.376 0-9.765-6.64-15.093Q48.25 0 35.984 0H9.812z" id="DejaVuSans-66"/><path d="M45.406 27.984q0 9.766-4.031 15.125-4.016 5.375-11.297 5.375-7.219 0-11.25-5.375-4.031-5.359-4.031-15.125 0-9.718 4.031-15.093t11.25-5.375q7.281 0 11.297 5.375 4.031 5.375 4.031 15.093zm8.985-21.203q0-13.953-6.203-20.765Q42-20.797 29.203-20.797q-4.734 0-8.937.703-4.203.703-8.157 2.172v8.735q3.954-2.141 7.813-3.157 3.86-1.031 7.86-1.031 8.843 0 13.234 4.61 4.39 4.609 4.39 13.937v4.453q-2.781-4.844-7.125-7.234Q33.938 0 27.875 0 17.828 0 11.672 7.656q-6.156 7.672-6.156 20.328 0 12.688 6.156 20.344Q17.828 56 27.875 56q6.063 0 10.406-2.39 4.344-2.391 7.125-7.22v8.297h8.985z" id="DejaVuSans-103"/></defs><use xlink:href="#DejaVuSans-66"/><use x="68.604" xlink:href="#DejaVuSans-101"/><use x="130.127" xlink:href="#DejaVuSans-114"/><use x="169.49" xlink:href="#DejaVuSans-103"/><use x="232.967" xlink:href="#DejaVuSans-101"/><use x="294.49" xlink:href="#DejaVuSans-110"/></g><path d="M697.95 169.173h32" style="fill:none;stroke:#0072b2;stroke-linecap:round;stroke-width:1.5" id="line2d_14"/><g style="fill:#696969" transform="matrix(.16 0 0 -.16 742.75 174.773)" id="text_24"><defs><path d="M44.39 34.188q3.172-1.079 6.172-4.594 3-3.516 6.032-9.672L66.609 0H56l-9.313 18.703q-3.624 7.328-7.015 9.719-3.39 2.39-9.25 2.39h-10.75V0h-9.86v72.906h22.266q12.5 0 18.656-5.234 6.157-5.219 6.157-15.766 0-6.89-3.203-11.437-3.204-4.532-9.297-6.282zM19.673 64.797V38.922h12.406q7.125 0 10.766 3.297 3.64 3.297 3.64 9.687 0 6.39-3.64 9.64-3.64 3.25-10.766 3.25z" id="DejaVuSans-82"/><path d="M18.313 70.219V54.688h18.5v-6.985h-18.5V18.016q0-6.688 1.828-8.594 1.828-1.906 7.453-1.906h9.218V0h-9.218q-10.407 0-14.36 3.875-3.953 3.89-3.953 14.14v29.688H2.687v6.984h6.594V70.22z" id="DejaVuSans-116"/><path d="M54.89 33.016V0h-8.984v32.719q0 7.765-3.031 11.61-3.031 3.858-9.078 3.858-7.281 0-11.484-4.64-4.204-4.625-4.204-12.64V0H9.08v75.984h9.03V46.188q3.235 4.937 7.594 7.374Q30.078 56 35.797 56q9.422 0 14.25-5.828 4.844-5.828 4.844-17.156z" id="DejaVuSans-104"/></defs><use xlink:href="#DejaVuSans-82"/><use x="64.982" xlink:href="#DejaVuSans-117"/><use x="128.361" xlink:href="#DejaVuSans-116"/><use x="167.57" xlink:href="#DejaVuSans-104"/><use x="230.949" xlink:href="#DejaVuSans-101"/><use x="292.473" xlink:href="#DejaVuSans-114"/><use x="333.586" xlink:href="#DejaVuSans-102"/><use x="368.791" xlink:href="#DejaVuSans-111"/><use x="429.973" xlink:href="#DejaVuSans-114"/><use x="469.336" xlink:href="#DejaVuSans-100"/></g></g></g></g><defs><clipPath id="p93621bd9b5"><path d="M117 77.76h725.4v498.96H117z"/></clipPath></defs></svg>