<svg height="864" viewBox="0 0 936 648" width="1248" xmlns="http://www.w3.org/2000/svg" xmlns:xlink="http://www.w3.org/1999/xlink"><defs><style>*{stroke-linecap:butt;stroke-linejoin:round}</style></defs><g id="figure_1"><path d="M0 648h936V0H0z" style="fill:#fff" id="patch_1"/><g id="axes_1"><path d="M117 576.72h725.4V77.76H117z" style="fill:none" id="patch_2"/><path clip-path="url(#p84761529ca)" d="m149.973 554.04 48.746-.09 3.679-.173 1.84-.305 1.839-.476 1.84-.654 1.839-.995 1.84-1.192 1.839-1.232 2.76-2.351 1.839-1.775 1.84-1.205 1.839-1.19 1.839-1.086 1.84-.619 2.759-.308 1.84-.034.919.215 1.84.122 1.839.25.92.03 1.84-.191 1.839.095 2.759.218 2.76-.14.919.175 1.84.197.92.17 2.758.804 2.76.428.92.109 2.758.663 1.84.092 1.84.134 1.839.207 2.76.071 3.678.283 2.76-.049 1.839.231.92-.157 6.438-.115 1.84-.014.919.057 1.84-.314.92-.206.919-.069 2.76-.947 3.678-2.195 1.84-1.199 1.84-1.376 1.839-1.663.92-.845 3.678-2.318 2.76-2.05 6.438-4.117.92-.399.92-.562 2.758-1.093.92-.324 1.84-.365 2.759.272.92.05.92.216.92.06.919.18 2.759 1.143 1.84.914 1.839.768.92.184 4.598 1.886 1.84.473 3.679 1.363 4.599 1.907 4.598 1.45 1.84.007.92.339 3.678.053.92.49 2.76.955.92-.032.919.177 1.84-.01.92.155.919-.22 2.76.153.919-.204.92-.956 3.679-.99 4.598-.49.92-.036 1.84-.342.92.042 2.758-.783.92-.359.92-.14 3.679-1.213 2.76-1.721.919-.16.92-.411.92-.097.92-.57.919-.36.92-.601 1.84-1.71.919-.479.92-.854 1.839-1.349 1.84-1.756 1.839-1.854 1.84-1.938 2.759-4.415 2.759-4.713 2.76-6.397 1.839-5.021.92-1.958 1.839-4.55 2.76-6.302.919-1.477.92-1.2.92-1.578 1.839-2.433.92 1.947.92-.781.919.244 1.84-.065.92-.725 1.839-1.897 2.759-3.127.92-.799 1.84-2.599.919-3.922.92-2.397.92-1.8.92-1.544.919-1.067.92-.607.92-1.401 1.839-1.277.92.379.92-.257.92.097.919.58.92-.258.92 1.017.919 5.764.92-.3.92 1.031.92.381.919.068.92.51.92.215.92 3.335.919-3.135.92-.702.92-1.615 1.839-1.976.92-2.786.92-6.414.92-1.125.919-1.804.92-1.197.92-.929.92-.012.919-.273.92-2.972.92 2.87.92 1.017.919 3.552.92 1.543.92 2.262.92 2.883.919 3.505 1.84 5.22.919 2.237 1.84 4.907 2.759 6.963.92 1.807.92-.023 1.839 4.396 2.759 6.094.92 1.36.92 2.042 1.839 3.692 2.76 5.605.919 1.605.92 2.779 3.679 6.613 2.759 3.237 3.679 3.027.92.705.92.413.919-.045 1.84.335.92.144 2.758 1.302.92-1.124 3.68 1.978 1.839.836.92-.015.92.1 2.758.628.92.069.92.188.92 1.278.92-.028.919-.696.92-.216 4.598-1.582.92-.289.92-.536 2.76-.652.919-.702.92-.168.92.219.92-.364 1.839-.358 1.84-.15.919-.483.92-.251.92.112.92-.313.919.33.92-.148.92.204.919.03 1.84.796 1.839 1.03.92.462 2.759 2.277 2.76 1.447.919.377 2.76 1.867 2.758 1.657 1.84.707 4.599 2.875.92.414.92.666 1.839.93 2.759 1.667 1.84.613 2.758 1.09 1.84 1.17.92.298.92.76.92.17 1.839.71.92 1.7 3.678.986.92.087.92.383 1.84.272.92.021.919-.308.92.343.92.079.919.233.92-1.177 8.277.763 1.84-.138.92-.05.92-1.694.92-.248 1.839.152.92.361 1.839-.979.92-1.108.92-.654 1.839-.078.92-.636.92-.875.92-.709.919.93.92-1.021 1.839-.467.92-1.752 1.84-2.073.919-.523.92-1.531.92-.444.92-.266 3.678-7.405.92-2.26 1.84-1 .92-2.47.919-2.83.92-1.687.92-1.973.92-2.737 1.839-1.372.92-2.747.92-1.774.919-2.267.92-1.297.92-2.076 1.839-1.318.92-3.957.92.193.919-1.678 2.76-3.251.919-.145.92-2.806.92.381.92-.493.919-1.574.92-.273.92-1.138.92.054.919-.671.92-.512.92-1.489.92-.512.919.261.92.428.92-.123.92 6.071.919-4.844.92-.425 2.759 1.544.92.083.92-.15.919.243.92 1.31 1.84 1.455.919-.068.92.143.92-4.21.92 5.493.919 1.178.92 1.37.92 1.165.92.717.919.17.92 2.898 3.679 5.163.92.768.92.454 1.839 2.145 1.84 1.412.919.869 1.84.817.919 2.282.92.056.92.705 1.839 1.748.92.342.92.119.92 1.626.919.479.92 1.262 1.84 1.575 1.839.432.92.581.92.775.919.386.92.09.92.315 1.839.237.92-.081.92.216 1.839.02 2.76-.37.919-.671.92.142.92-.145.919.693.92-1.304.92-1.026.92-.152.919-.772.92-.435 2.759-2.714 1.84-.59.92-1.042.919-.314.92-.669.92 1.083.92 2.498.919 1.178.92-.01.92-2.173.92-.603 1.839-1.714.92-1.078.92-.548.919-.103.92-1.237.92-.681.919-.936.92-2.973.92-3.644.92-.856.919-.398.92.431 2.759-.678 1.84-1.105.92-1.216.919-3.385.92-2.422.92-3.037.92-4.548.919-.605.92-.225.92-4.922.92-10.932.919-8.468.92-11.033.92-14.08.92-8.877.919-2.735.92-6.872 1.839-45.33 1.84-30.628.92-22.982h0" style="fill:none;stroke:#000;stroke-linecap:round;stroke-width:1.5" id="line2d_1"/><path clip-path="url(#p84761529ca)" d="m149.973 554.04 48.746-.089 1.84-.12 1.839-.296.92-.364.92-.189.92-.522.919-.683 1.84-2.077.92-.853.919-2.927.92-2.286 1.84-5.352.919-3.761.92-2.334 2.759-12.535.92-4.494 1.84-6.472 1.839-5.68.92-1.322.919-1.912 1.84-3.203.92.612.919-2.585.92 1.604.92-1.129 1.839 2.883.92-.593.92.095.92-.302 1.839-1.176.92 1.606 1.839.498.92.693.92 1.864.92-.24.919 2.252.92.726.92.505.92 1.013.919 2.348.92 1.49 1.84 5.408.919.46.92 2.011.92 2.453.919.873.92 2.218.92 1.887 1.839 3.06.92 1.593.92 2.113.92-.213.919 1.6.92-.105 1.84 1.475.919 1.478 1.84 1.034.92.15 1.839-.107.92.204 1.839.981.92 1.461.92.412.92 1.023.919.725.92.523.92-.204.919.924.92.717 1.84.815 1.839 1.658.92.383.92.665 2.758.95.92.069.92.494.92.26.92-.044 1.839.047.92.465.92-2.002.92-.047.919.18.92-.039.92.157 1.839-.067 1.84-.027.919.056.92-.073 1.84.138.919-.112.92 2.286 1.84-.015.919-.035.92-.16.92.003.92-.153.919.246.92.398.92.033.92.475 1.839.003 3.679-.446 2.759-.57 1.84-.02.92-.76.919-.125.92-.417 1.839-.175h.92l.92-.156 1.839.288 2.76.464.919-.028.92-.536 1.84.25.919.366 1.84-.027.92.019.919.325.92.083.92-.191.92.232.919.04 1.84.42.92.414.919.251.92-.084.92-.33 2.759-.03.92-.329.919-.188.92.242 1.84-.32.919.03 4.599-.513.92.018 10.117-1.42 2.759-1.1.92-.023.92-.377.919-.053.92-.3.92-.577 2.759-.587.92-.12.92-.87.919-.376 1.84-.198.92.107.919-.631.92-.274.92-.423 1.839-.068 1.84-1.577.92-.426.919-.618.92.162.92-.214.92-1.239.919-.448 2.759-2.534.92-.687.92-1.383 1.839-1.063.92-.21.92-.99.92-1.676.919-.949.92-1.323.92-1.533 1.839-2.047.92-2.526.92-1.654.92-2.303.919-1.685 1.84-6.86.92-1.01.919-2.61.92-1.911.92-2.633 1.839-3.477.92-2.318.92-1.806.92-.59 1.839-2.343.92-.828.919.654.92.829.92-1.152.92-.688.919-.295.92-.724.92-2.416.92-.777.919-2.445.92.021.92-1.424.92-.479.919-.767.92.528.92-2.891.92-.374.919-1.907.92.76.92-1.659.92.638.919 2.096.92 1.343.92 1.014.92.465.919 1.035.92-.41.92.493.919-1.672.92 2.658 1.84 4.61.919.367.92 1.165.92-.997.92-1.903.919-1.566.92 1.785.92-56.827.92-1.97.919-1.237.92-3.29.92-2.326 1.839-7.99.92-3.075.92-1.102.92-3.747.919-2.367.92-1.024.92-.58.92-1.738.919 56.019.92 1.941.92.49.92 2.883.919 3.345.92.312.92.443.919 1.416.92-.225.92 3.638.92 2.782.919.45 1.84 1.865.92.4.919 1.752.92 3.71.92 2.086.92-.034.919 3.129.92 1.114.92 1.876.92 1.422.919.522.92 1.292.92 2.673.92 1.8 1.839 4.968.92-.573.92-2.132.919.016.92 1.401.92 1.936.919 2.728.92-.17.92.497.92 1.485.919.096.92-.162.92-.449.92-.263.919-2.012 1.84.903.92.099.919-.773.92-1.001.92-.58.92.47.919-1.147.92-.78.92-.283.92-.411.919.318.92-1.091.92.38.92-.508.919-.737.92-1.517.92-.823.92-1.407 2.758-2.655.92-.38.92-.155.92-1.64.92-.948.919-1.417.92-.947.92-1.371.92.764.919-1.347.92-.163.92.55.92-.667.919.38.92 1.293.92-.172.92-.46.919 1.667 3.679 5.039.92.124.92 2.004.92.176.919.62 1.84 1.542 2.759 3.25.92 1.612.919.967.92 2.008.92 13.615.92 2.17.919 1.722.92 1.985 1.84 5.76.919 2.313.92 1.423.92 2.176.92 1.122 1.839 4.369.92 2.53.92 1.606.919-10.859 1.84 3.78.92 2.154.919 1.82 1.84 2.22.92.752.919.426.92 2.472.92 1.01 1.839.697 1.84.104 1.839.312 1.84.108.919.464.92.027.92.179.92.577.919.203 1.84.758 2.759.007 1.84.48 1.839.053 2.759.013 1.84-.12 2.759.26 1.839.157 4.599-.134 4.598.326 1.84-.03 4.599.106 1.84-.146 4.598-.876.92-.218 1.839-.8.92-.269 1.84-1.09 1.839-1.099.92-.652 1.839-.734.92-.511 2.759-2.18.92-.751 1.84-1.265.919-.776.92-.63.92-.854.92-.518 1.839-1.484.92-.403 1.839-1.865 1.84-1.781.919-1.64 1.84-.915 2.759-1.791.92-1.89.92-.735.919-.333.92-.905.92-.27.92-.506.919-.238.92-.887.92.747.92-.683.919-.241.92-.365 1.84-1.335.919 1.43.92-.108 1.84-.7.919 1.782.92-1.642 1.84-.27.919-.665 3.679.076.92-.493.92-.758.919-.445.92-.231.92.389.92-2.148.919 1.36.92-.05.92.508.92.309.919.874.92.457.92.178.92.33 1.839 1.58.92.815 3.678 2.192.92.221 1.84.917.92-.383 2.759.833.92.817.919.343 3.679 2.29.92.884.92.708.92.193 1.839 1.582.92.013.92.2.919.542.92-.387.92.09.92.264.919-.378 3.679-.307.92.38.92-.311.92-.165 1.839.118.92-.414.919.169 1.84-1.095 2.759-1.839.92-.77 1.839-2.163 1.84-1.745.92-.82.919-1.394.92-.676.92-1.22 1.839-.8.92-.199.92-1.042.92-1.793.919-1.47 1.84-4.997.92-2.626.919-2.246 1.84-3.268.919-2.431.92-3.28.92-3.936.92-3.09.919-2.34 1.84-2.59.92-2.136 1.839-6.753.92-3.83 1.839-9.434.92-5.389.92-9.07 1.839-30.811.92-17.651.92-12.235.92-7.652.919-12.851.92-25.477 1.84-64.367.919-29.346.92-22.658.92-17.37.919-25.046.92-30.095.92-16.77.92-23.148h0" style="fill:none;stroke:#009e73;stroke-linecap:round;stroke-width:1.5" id="line2d_2"/><path clip-path="url(#p84761529ca)" d="m149.973 554.04 45.067-.08 4.599-.282 1.84-.587.919-.542.92-1.842.92-.497.92-.226.919-1.062.92-1.706.92-1.017.92-1.288.919-4.35 1.84-6.938.92-3.728.919-3.21.92-4.564.92-6.056.92-4.983.919-8.158.92-9.875.92-3.75 1.839-12.452.92-2.52.92-.926.919-3.232 1.84-2.17.92.057.919 1.051.92 1.842.92.497.92 3.537.919 6.711.92-.554 1.84 7.107.919.125.92 1.197.92 3.062.92.667.919 2.203 1.84 4.022.92 2.565.919 4.486.92 2.644.92 1.762 1.839 6.102.92 1.887 1.84 6.146.919 2.418.92 3.164.92 1.152.919.452.92.95.92 1.536.92 2.644 1.839 2.237.92 1.085.92-.012.919 1.3.92.723 1.84.61.919.904.92-.124 2.759.022.92-2.316.92.565 2.759 2.09.92.362.92-.531.919.373.92.169.92-.158.919 1.31.92.803.92.305.92-.384.919.937.92.464.92-.836.92.542h.919l.92-.249 1.84.305.919.418 3.679.09.92.747.92-3.175.92-.825.919.576.92-.746 2.759.215.92-.068.92-.452.919-.011.92-.554.92-.034.92.125.919-.317.92 3.198.92.463.92-.102.919.622.92.011.92.362 1.839.113.92.474.92.192.92.7.919-.27.92.034 1.84.339.919.305 1.84-.226.92-.385.919-.508.92-.294.92.023.92-.497.919-.102.92-.294.92.26.919-.44.92.18 1.84.09.919-.304.92-.102 1.84.508.919.113.92-.226.92-.655 1.839-.994.92-.577 1.84.645.919.858.92.045 2.759.69 1.84-.125.92.26.919 1.108.92.18 1.839.87.92-.44.92-.294.92-.893.919-.079.92.35.92-.26.92-.022 1.839.282 1.84-.169.919.407 1.84.226.92.689.919-.057.92-.27.92-.046.92-.26.919.113.92-.011.92-.294.92.045.919-.067.92.045 1.84-.384.919-.046.92-.339 1.839-.18.92-.249.92-.373 1.839-.339.92.012.92-.283 1.839-1.13.92-.497 1.84-.43.919-.768 1.84-.768 1.839-.35 2.76-1.932.919-.814 1.84-.43.92-.824.919-.599.92-.825.92-.508 1.839-.678.92-1.514 1.839-1.378.92-.498.92-.847.92-1.05.919.01.92-1.412.92-2.068.92-1.028.919-.17.92-1.74.92-2.508.92-3.062.919-1.615 1.84-5.604.92-.396 1.839-4.802.92-3.808.92-1.446.919-1.231.92-2.192.92-2.915.92-.396 1.839-.294.92-2.214.919 2 1.84-2.26.92-.734.919.26.92-.656.92-3.096.92-.78.919-1.57.92.678.92-.44.92.632.919-.09.92 2.96.92-3.604.92 1.491.919-1.22.92 1.344.92-.293.92 1.502.919 2.497 1.84 3.785.92.938.919.43.92-2.08.92-.406.919-1.729.92 2.61 1.84 3.21.919.282.92.146.92-1.91 1.839-1.807.92.768.92-49.398.92-3.344.919-1.706.92-2.271.92-2.712 1.839-6.723.92-1.288.92-.43.92-3.74.919-2.394 1.84-2.475.92-2.034.919 49.06.92 1.683.92.463.92 1.718.919 3.627.92-.78.92.554.919.26.92-1.22 1.84 5.547.919 1.288.92.249.92.711.92-.847.919 2.045.92 3.966.92 1.141.92-1.672.919 2.022.92.6.92.994.92 1.593.919.429.92 1.322.92 1.006.92 1.186.919 1.83.92 2.362.92-2.34.92-1.75.919.485.92 2.238.92 1.48.919 2.27 1.84-2.315.92.79.919-.949.92-1.627.92-.17.92.091.919-4.022.92 1.186.92-1.457.92-.181.919-1.774.92 1.503.92-1.175.92 1.107.919-1.175 1.84-.576.92.813.919.407.92-1.537.92 1.944.92-.87.919.101 1.84-1.898.92-3.48.919-.339.92-1.096.92.023.919-.463.92 1.57.92-3.288 1.839-3.695.92-.44.92-.678 1.839-1.525 1.84.282.92-.08.919.25.92 1.75.92-.858.92-.53.919 3.875 1.84 4.564.92 1.39 1.839 4.576.92 1.898 1.839 2.96.92 1.616.92 1.853.919 1.243.92 2.316.92 1.164.92 1.82.919 1.084.92 1.943.92 2.735.92 1.638.919 2.068.92 1.502 1.84 5.435.919 1.66.92.995.92 1.774.92-10.994.919-1.096.92 1.763.92 2.158.92 1.006.919-.373.92 1.536.92 1.142.92 2.079.919 1.028.92.474.92.328.92.497.919.7.92 14.17.92 4.27.919.17.92.689.92.361 1.839.17.92.508.92.147.92.475.919.802 1.84.723 2.759.622.92.452.92-.147 1.839.237 1.84.542.919.09 3.679-.225.92-.238 2.759-.135.92.305 1.839.147 1.84-.34.92-.191.919.079 1.84-.034 1.839.113 1.84-.339 3.678.011 2.76.565 1.84.068 1.839-.113 2.759-.316 3.679-1.085 1.84-.746.919-.655 1.84-1.616.92-.373.919-.655.92-.43.92-.598.92-.859 3.678-2.858.92-.916.92-.576 1.84-.813 1.839-.565.92.113.92-1.255.919-.61.92-.824.92-.328.919-1.187.92 1.085.92-.113 1.839-1.695.92-.293.92-1.594.92-.757.919-.553.92-.757.92.339.92-.554.919.18.92-.88.92.17.92-1.74.919-.329.92.317.92.011.92-.486.919 1.65.92-.237.92-.08.92-.338.919 1.39.92-.893 1.84-.396.919-.022 1.84.293.919-.35.92-.034.92-.248.92-.554.919-.068.92-.226.92.418.92-1.14.919.835 1.84-.011.92.237.919.09.92-.191.92.79.92-.033 1.839.146.92.418.92.848.919.248.92.08 1.84.96.919 1.175.92.486.92.237.919.791.92.136.92.429.92.78.919.598.92.057.92.395.92.249 2.758 2.553.92-.09 1.84 1.379.92-.6.92-.135.919.43.92-.102.92-.26.92.576.919-.135.92.09.92-.249.92-.452.919-.101.92.327.92-.17.92-.044 1.839.836 2.759.44.92-.135.92-.96.919-.441 5.518-5.83.92-.475.92-1.435.92-.79.92-.961 1.839-1.153.92.023.92-.565.92-1.231.919-.87 1.84-3.164.92-1.31.919-.882 2.759-5.265 1.84-5.83 1.839-4.305.92-1.401.92-.904.92-3.243.919-3.774.92-4.463 1.84-11.14.919-3.876.92-5.864.92-11.717.92-15.874 1.839-42.145.92-13.265.92-10.168.919-17.491.92-31.207.92-39.41 1.839-62.821 1.84-33.32 1.839-56.155.92-14.756.92-19.728h0" style="fill:none;stroke:#d55e00;stroke-linecap:round;stroke-width:1.5" id="line2d_3"/><path clip-path="url(#p84761529ca)" d="M149.973 554.04h52.425l.92-1.15h1.84l.919-.576h.92l1.84-3.453.919-3.453.92-.575.92-1.727.92-1.15.919-2.878.92-4.604.92-4.028h.92l.919-3.453.92-9.207.92-5.755.92-1.726.919-1.151h.92l.92-2.302.919-3.453.92.576.92 1.15.92-.575.919 2.302.92 1.726.92-1.726.92.575.919 7.481.92 6.33.92-1.15.92 1.15.919-1.15.92 2.877h2.759l.92.575.92 2.302 2.759 3.453h1.84l.919 2.877.92 1.727 1.84 5.754.919 3.453.92 1.151h.92l.919.576.92-2.302.92.575 1.839 2.302.92 1.726h1.84l.919-.575h1.84l.92.575h1.839l.92 2.302.92 1.727 1.839 1.15.92-.575h1.839l.92-1.726h7.358l.92-.576h.919l.92.576h1.84l.919 1.726h5.518l.92-1.15.92.575h.92l.92-.576h2.759l.92-2.302.92.576.919-.576h3.679l.92-2.302.92-.575.919.575h.92l.92-.575h1.839l.92 1.151.92-.576.92.576h3.678l.92 3.453.92-1.151.92-.576h.92l.919 1.151h1.84l1.839 1.151h.92l.92-.575h2.759l.92-.576.919 1.727h.92l.92.575h2.759l.92.576h.92l.919-.576.92.576.92-.576h3.678l.92.576 1.84-1.151h2.759l.92-1.151h.92l.92-.576.919.576h3.679l.92-2.302 1.839 1.15h2.76l.919-.575 1.84 1.151h4.598l.92 1.151.92-.575h2.759l.92-1.727.92 1.727.92-.576h3.678l.92.576h.92l.92 1.15.919.576h2.76l.919.576.92-.576.92-2.302.92-5.179.919-1.15h1.84l.92-1.152.919-3.453.92-.575 1.84-5.755 1.839-3.452h.92l1.839 1.15.92 5.18.92 1.15h1.839l.92-2.301.92 1.15.919-2.301h1.84l1.839 3.453.92-5.755.92-.576 1.839-3.452.92-2.878h1.84l.919-7.48h.92l.92 2.877.92-6.906.919-1.15h1.84l.92-2.303.919-6.33 1.84-5.754.92-5.18.919-2.877h.92l.92 2.877.92-2.301.919-3.453.92 9.783.92 4.028.919-11.51h.92l.92 1.152.92 2.877.919.575.92-4.603.92-5.755.92-3.453h.919l.92 1.727.92-2.302.92.575.919-10.358.92-5.18.92 11.51h1.839l.92-1.151.92 2.302.92 9.207.919 4.029.92 6.33h.92l.92-9.208.919 2.878.92-12.66.92 7.48.919 5.18h1.84l.92-9.208.919 2.302 1.84-13.236.92 9.783h1.839l.92-3.453.92-6.33.919 7.481.92-5.754.92-6.906.92-5.755h.919l.92 4.604.92-3.453.92 2.302.919.576.92-5.755h1.84l.919 18.99.92-1.726.92 2.302.92 6.33 1.839 10.934h.92l.919-5.18.92 4.029.92 5.179.92 2.302.919-3.453.92-2.877h1.84l.919 12.085.92-9.208 1.84-4.604h1.839l.92 8.632.92-1.726.919.575h.92l.92 6.33.92-1.15h1.839l.92-8.057.92 12.085.919 2.877.92 1.151h.92l.919-4.028.92 6.905 1.84 1.151.919-4.028.92-2.302.92 4.028h.92l.919-9.207.92 2.302.92-.576h.92l.919-5.179h.92l.92 4.029.92-5.755.919 1.15.92-2.301.92-.576.92 2.302h1.839l.92-4.028.92 1.726.919-1.15h.92l.92 5.179h1.839l.92-5.755.92-1.15.919.575.92 3.452.92-1.15h.92l.919-5.18.92 6.906.92-.576.92 2.878.919-8.632.92-2.302h1.84l.919 4.028.92-1.15 1.84-1.152h0l.919 1.151.92-.575.92 5.179.92.575.919 1.727.92-1.151.92 3.453.92 2.302.919-2.878h.92l.92 8.057.919 4.028.92 1.726.92.576h.92l.919.575h.92l.92 2.302 1.839 2.302.92 4.604.92-2.302.92 2.302h.919l.92.575h1.84l.919 2.877.92 1.727h1.84l.919 1.15.92 1.727.92 1.151.92 2.302.919 5.18.92.575h.92l.92 1.15.919.576.92 3.453.92.575.919 1.151h1.84l.92 2.302h1.839l.92-1.15h4.598l.92-.576.92.575h3.679l.92-1.726h.92l.919 1.15h4.599l.92.576h4.598l.92 1.727.92.575h.92l.919-2.302h4.599l.92-.575h5.518l.92-.576.92 1.727h3.678l1.84-1.151h5.518l.92-.576.92-2.877h1.84l.919-12.085.92-1.15h.92l1.839-5.755h1.84l.92-4.029.919-1.726.92-.576h.92l.92 2.878h1.839l.92 6.33.92-.576.919-2.877.92.576.92 1.726h1.839l.92-1.726.92.575h.919l.92-1.15.92.575h1.839l.92 4.603.92-.575.92 2.302.919.575.92 1.151h1.84l.919 1.726.92-2.877.92-3.453.92 1.151.919-2.877h1.84l.92 1.15.919-4.603.92-2.302.92 2.878.92-2.878h1.839l.92-1.15.919 2.301.92 1.727.92-3.453.92.575h1.839l.92-7.48.92 6.33.919.575.92-2.877.92 1.15h1.839l.92 2.878h1.84l.919 2.302h2.76l.919 5.179 1.84-1.151.92 2.877.919-4.604h1.84l.919 2.302.92-1.726 2.759 3.453h1.84l.92-2.302.919-.576.92 2.878.92-2.302.92 5.18h1.839l.92-1.152.92 2.877.919 1.151h.92l.92.576h2.759l.92-.576.92.576.919 2.302h2.76l.919-1.727.92-.575.92-5.18.919 1.152.92-3.453h1.84l.919 1.15h.92l.92-1.15.92-1.727.919-.575h1.84l.92-5.755.919-1.726.92 1.15h.92l.92 4.03h1.839l.92-8.057.92-1.727h.919l.92-2.877.92-3.453h1.839l.92 1.151 1.839-5.755 1.84-11.509h1.839l.92 1.726.92-3.452 1.839-17.264.92 1.15.92-23.593.92-6.906.919-2.302.92-10.358.92-17.84.92-13.235.919-7.481.92-1.727.92-3.452.92-2.302 1.839-41.434.92-11.509.92-26.471.919-7.481.92-29.925.92-17.839.919-2.302.92-10.358.92-23.594.92-18.99h0" style="fill:none;stroke:#0072b2;stroke-linecap:round;stroke-width:1.5" id="line2d_4"/><path d="M117 576.72V77.76" style="fill:none;stroke:#d3d3d3;stroke-linecap:square;stroke-linejoin:miter;stroke-width:1.25" id="patch_3"/><path d="M117 576.72h725.4" style="fill:none;stroke:#d3d3d3;stroke-linecap:square;stroke-linejoin:miter;stroke-width:1.25" id="patch_4"/><g id="matplotlib.axis_1"><g id="xtick_1"><g style="fill:#696969" transform="matrix(.16 0 0 -.16 119.245 598.378)" id="text_1"><defs><path d="M9.813 72.906h9.859V5.078q0-13.187-5-19.14-5-5.954-16.094-5.954h-3.75v8.297h3.078q6.531 0 9.219 3.672Q9.813-4.39 9.813 5.078z" id="DejaVuSans-74"/><path d="M34.281 27.484q-10.89 0-15.093-2.484-4.204-2.484-4.204-8.5 0-4.781 3.157-7.594 3.156-2.797 8.562-2.797 7.485 0 12 5.297 4.516 5.297 4.516 14.078v2zm17.922 3.72V0H43.22v8.297Q40.14 3.328 35.547.953q-4.594-2.375-11.234-2.375-8.391 0-13.36 4.719Q6 8.016 6 15.922q0 9.219 6.172 13.906 6.187 4.688 18.437 4.688h12.61v.89q0 6.203-4.078 9.594-4.078 3.39-11.453 3.39-4.688 0-9.141-1.124-4.438-1.125-8.531-3.375v8.312q4.921 1.906 9.562 2.844 4.64.953 9.031.953 11.875 0 17.735-6.156 5.86-6.14 5.86-18.64z" id="DejaVuSans-97"/><path d="M54.89 33.016V0h-8.984v32.719q0 7.765-3.031 11.61-3.031 3.858-9.078 3.858-7.281 0-11.484-4.64-4.204-4.625-4.204-12.64V0H9.08v54.688h9.03v-8.5q3.235 4.937 7.594 7.374Q30.078 56 35.797 56q9.422 0 14.25-5.828 4.844-5.828 4.844-17.156z" id="DejaVuSans-110"/></defs><use xlink:href="#DejaVuSans-74"/><use x="29.492" xlink:href="#DejaVuSans-97"/><use x="90.771" xlink:href="#DejaVuSans-110"/></g></g><g id="xtick_2"><g style="fill:#696969" transform="matrix(.16 0 0 -.16 201.434 598.378)" id="text_2"><defs><path d="M34.188 63.188 20.797 26.906h26.812zm-5.579 9.718h11.188L67.578 0h-10.25l-6.64 18.703h-32.86L11.188 0H.78z" id="DejaVuSans-65"/><path d="M18.11 8.203v-29H9.077v75.484h9.031v-8.296q2.844 4.875 7.157 7.234Q29.594 56 35.594 56q9.968 0 16.187-7.906 6.235-7.907 6.235-20.797T51.78 6.484q-6.218-7.906-16.187-7.906-6 0-10.328 2.375-4.313 2.375-7.157 7.25zm30.578 19.094q0 9.906-4.079 15.547-4.078 5.64-11.203 5.64-7.14 0-11.218-5.64-4.079-5.64-4.079-15.547 0-9.906 4.078-15.547 4.079-5.64 11.22-5.64 7.124 0 11.202 5.64t4.078 15.547z" id="DejaVuSans-112"/><path d="M41.11 46.297q-1.516.875-3.297 1.281Q36.03 48 33.89 48q-7.625 0-11.703-4.953-4.079-4.953-4.079-14.234V0H9.08v54.688h9.03v-8.5q2.844 4.984 7.375 7.39Q30.031 56 36.531 56q.922 0 2.047-.125 1.125-.11 2.484-.36z" id="DejaVuSans-114"/></defs><use xlink:href="#DejaVuSans-65"/><use x="68.408" xlink:href="#DejaVuSans-112"/><use x="131.885" xlink:href="#DejaVuSans-114"/></g></g><g id="xtick_3"><g style="fill:#696969" transform="matrix(.16 0 0 -.16 289.318 598.378)" id="text_3"><defs><path d="M8.5 21.578v33.11h8.984V21.922q0-7.766 3.016-11.656 3.031-3.875 9.094-3.875 7.265 0 11.484 4.64 4.234 4.64 4.234 12.656v31h8.985V0h-8.984v8.406Q42.047 3.422 37.718 1q-4.313-2.422-10.032-2.422-9.421 0-14.312 5.86Q8.5 10.296 8.5 21.578zM31.11 56z" id="DejaVuSans-117"/><path d="M9.422 75.984h8.984V0H9.422z" id="DejaVuSans-108"/></defs><use xlink:href="#DejaVuSans-74"/><use x="29.492" xlink:href="#DejaVuSans-117"/><use x="92.871" xlink:href="#DejaVuSans-108"/></g></g><g id="xtick_4"><g style="fill:#696969" transform="matrix(.16 0 0 -.16 369.755 598.378)" id="text_4"><defs><path d="M39.406 66.219q-10.75 0-17.078-8.016-6.312-8-6.312-21.828 0-13.766 6.312-21.781 6.328-8 17.078-8 10.735 0 17.016 8 6.281 8.015 6.281 21.781 0 13.828-6.281 21.828-6.281 8.016-17.016 8.016zm0 8q15.328 0 24.5-10.281 9.188-10.282 9.188-27.563 0-17.234-9.188-27.516-9.172-10.28-24.5-10.28-15.375 0-24.593 10.25-9.204 10.265-9.204 27.546t9.204 27.563q9.218 10.28 24.593 10.28z" id="DejaVuSans-79"/><path d="M48.781 52.594v-8.407q-3.812 2.11-7.64 3.157-3.828 1.047-7.735 1.047-8.75 0-13.593-5.547-4.829-5.532-4.829-15.547 0-10.016 4.829-15.563 4.843-5.53 13.593-5.53 3.907 0 7.735 1.046 3.828 1.047 7.64 3.156V2.094Q45.016.344 40.984-.531q-4.015-.89-8.562-.89-12.36 0-19.64 7.765-7.266 7.765-7.266 20.953 0 13.375 7.343 21.031Q20.22 56 33.016 56q4.14 0 8.093-.86 3.953-.843 7.672-2.546z" id="DejaVuSans-99"/><path d="M18.313 70.219V54.688h18.5v-6.985h-18.5V18.016q0-6.688 1.828-8.594 1.828-1.906 7.453-1.906h9.218V0h-9.218q-10.407 0-14.36 3.875-3.953 3.89-3.953 14.14v29.688H2.687v6.984h6.594V70.22z" id="DejaVuSans-116"/></defs><use xlink:href="#DejaVuSans-79"/><use x="78.711" xlink:href="#DejaVuSans-99"/><use x="133.691" xlink:href="#DejaVuSans-116"/></g></g><g id="xtick_5"><g style="fill:#696969" transform="matrix(.16 0 0 -.16 455.87 598.378)" id="text_5"><use xlink:href="#DejaVuSans-74"/><use x="29.492" xlink:href="#DejaVuSans-97"/><use x="90.771" xlink:href="#DejaVuSans-110"/></g></g><g id="xtick_6"><g style="fill:#696969" transform="matrix(.16 0 0 -.16 537.14 598.378)" id="text_6"><use xlink:href="#DejaVuSans-65"/><use x="68.408" xlink:href="#DejaVuSans-112"/><use x="131.885" xlink:href="#DejaVuSans-114"/></g></g><g id="xtick_7"><g style="fill:#696969" transform="matrix(.16 0 0 -.16 625.024 598.378)" id="text_7"><use xlink:href="#DejaVuSans-74"/><use x="29.492" xlink:href="#DejaVuSans-117"/><use x="92.871" xlink:href="#DejaVuSans-108"/></g></g><g id="xtick_8"><g style="fill:#696969" transform="matrix(.16 0 0 -.16 705.46 598.378)" id="text_8"><use xlink:href="#DejaVuSans-79"/><use x="78.711" xlink:href="#DejaVuSans-99"/><use x="133.691" xlink:href="#DejaVuSans-116"/></g></g><g id="xtick_9"><g style="fill:#696969" transform="matrix(.16 0 0 -.16 791.576 598.378)" id="text_9"><use xlink:href="#DejaVuSans-74"/><use x="29.492" xlink:href="#DejaVuSans-97"/><use x="90.771" xlink:href="#DejaVuSans-110"/></g></g></g><g id="matplotlib.axis_2"><g id="ytick_1"><g style="fill:#696969" transform="matrix(.16 0 0 -.16 97.32 560.119)" id="text_10"><defs><path d="M31.781 66.406q-7.61 0-11.453-7.5Q16.5 51.422 16.5 36.375q0-14.984 3.828-22.484 3.844-7.5 11.453-7.5 7.672 0 11.5 7.5 3.844 7.5 3.844 22.484 0 15.047-3.844 22.531-3.828 7.5-11.5 7.5zm0 7.813q12.266 0 18.735-9.703 6.468-9.688 6.468-28.141 0-18.406-6.468-28.11-6.47-9.687-18.735-9.687-12.25 0-18.718 9.688-6.47 9.703-6.47 28.109 0 18.453 6.47 28.14Q19.53 74.22 31.78 74.22z" id="DejaVuSans-48"/></defs><use xlink:href="#DejaVuSans-48"/></g></g><g id="ytick_2"><g style="fill:#696969" transform="matrix(.16 0 0 -.16 87.14 486.39)" id="text_11"><defs><path d="M10.797 72.906h38.719v-8.312H19.828v-17.86q2.14.735 4.281 1.094 2.157.36 4.313.36 12.203 0 19.328-6.688 7.14-6.688 7.14-18.11 0-11.765-7.328-18.296-7.328-6.516-20.656-6.516-4.593 0-9.36.781-4.75.782-9.827 2.344v9.922q4.39-2.39 9.078-3.563 4.687-1.171 9.906-1.171 8.453 0 13.375 4.437 4.938 4.438 4.938 12.063 0 7.609-4.938 12.047-4.922 4.453-13.375 4.453-3.953 0-7.89-.875-3.922-.875-8.016-2.735z" id="DejaVuSans-53"/></defs><use xlink:href="#DejaVuSans-53"/><use x="63.623" xlink:href="#DejaVuSans-48"/></g></g><g id="ytick_3"><g style="fill:#696969" transform="matrix(.16 0 0 -.16 76.96 412.66)" id="text_12"><defs><path d="M12.406 8.297h16.11v55.625l-17.532-3.516v8.985l17.438 3.515h9.86V8.296H54.39V0H12.406z" id="DejaVuSans-49"/></defs><use xlink:href="#DejaVuSans-49"/><use x="63.623" xlink:href="#DejaVuSans-48"/><use x="127.246" xlink:href="#DejaVuSans-48"/></g></g><g id="ytick_4"><g style="fill:#696969" transform="matrix(.16 0 0 -.16 76.96 338.931)" id="text_13"><use xlink:href="#DejaVuSans-49"/><use x="63.623" xlink:href="#DejaVuSans-53"/><use x="127.246" xlink:href="#DejaVuSans-48"/></g></g><g id="ytick_5"><g style="fill:#696969" transform="matrix(.16 0 0 -.16 76.96 265.202)" id="text_14"><defs><path d="M19.188 8.297h34.421V0H7.33v8.297q5.609 5.812 15.296 15.594 9.703 9.797 12.188 12.64 4.734 5.313 6.609 9 1.89 3.688 1.89 7.25 0 5.813-4.078 9.469-4.078 3.672-10.625 3.672-4.64 0-9.797-1.61-5.14-1.609-11-4.89v9.969Q13.767 71.78 18.938 73q5.188 1.219 9.485 1.219 11.328 0 18.062-5.672 6.735-5.656 6.735-15.125 0-4.5-1.688-8.531-1.672-4.016-6.125-9.485-1.218-1.422-7.765-8.187-6.532-6.766-18.453-18.922z" id="DejaVuSans-50"/></defs><use xlink:href="#DejaVuSans-50"/><use x="63.623" xlink:href="#DejaVuSans-48"/><use x="127.246" xlink:href="#DejaVuSans-48"/></g></g><g id="ytick_6"><g style="fill:#696969" transform="matrix(.16 0 0 -.16 76.96 191.473)" id="text_15"><use xlink:href="#DejaVuSans-50"/><use x="63.623" xlink:href="#DejaVuSans-53"/><use x="127.246" xlink:href="#DejaVuSans-48"/></g></g><g id="ytick_7"><g style="fill:#696969" transform="matrix(.16 0 0 -.16 76.96 117.744)" id="text_16"><defs><path d="M40.578 39.313Q47.656 37.797 51.625 33q3.984-4.781 3.984-11.813 0-10.78-7.422-16.703-7.421-5.906-21.093-5.906-4.578 0-9.438.906-4.86.907-10.031 2.72v9.515q4.094-2.39 8.969-3.61 4.89-1.218 10.218-1.218 9.266 0 14.125 3.656 4.86 3.656 4.86 10.64 0 6.454-4.516 10.079-4.515 3.64-12.562 3.64h-8.5v8.11h8.89q7.266 0 11.125 2.906 3.86 2.906 3.86 8.375 0 5.61-3.985 8.61-3.968 3.015-11.39 3.015-4.063 0-8.703-.89-4.641-.876-10.203-2.72v8.782q5.624 1.562 10.53 2.344 4.907.78 9.25.78 11.235 0 17.766-5.109 6.547-5.093 6.547-13.78 0-6.063-3.468-10.235-3.47-4.172-9.86-5.782z" id="DejaVuSans-51"/></defs><use xlink:href="#DejaVuSans-51"/><use x="63.623" xlink:href="#DejaVuSans-48"/><use x="127.246" xlink:href="#DejaVuSans-48"/></g></g><g style="fill:#696969" transform="matrix(0 -.2 -.2 0 68.8 379.813)" id="text_17"><defs><path d="M51.125 44H36.922l-4.11-16.313h14.313zm-7.328 27.781-5.078-20.265h14.265L58.11 71.78h7.813L60.89 51.516h15.234V44h-17.14l-4-16.313h15.53V20.22H53.079L48 0h-7.813l5.032 20.219H30.906L25.875 0h-7.86l5.079 20.219H7.719v7.468h17.187L29 44H13.281v7.516h17.625l4.985 20.265z" id="DejaVuSans-35"/><path d="M30.61 48.39q-7.22 0-11.422-5.64-4.204-5.64-4.204-15.453 0-9.813 4.172-15.453 4.188-5.64 11.453-5.64 7.188 0 11.375 5.655 4.203 5.672 4.203 15.438 0 9.719-4.203 15.406-4.187 5.688-11.375 5.688zm0 7.61q11.718 0 18.406-7.625 6.703-7.61 6.703-21.078 0-13.422-6.703-21.078-6.688-7.64-18.407-7.64-11.765 0-18.437 7.64-6.656 7.656-6.656 21.078 0 13.469 6.656 21.078Q18.844 56 30.609 56z" id="DejaVuSans-111"/><path d="M37.11 75.984V68.5h-8.594q-4.828 0-6.72-1.953-1.874-1.953-1.874-7.031v-4.828h14.797v-6.985H19.922V0H10.89v47.703H2.297v6.984h8.594V58.5q0 9.125 4.25 13.297 4.25 4.187 13.468 4.187z" id="DejaVuSans-102"/><path d="M44.281 53.078v-8.5q-3.797 1.953-7.906 2.922-4.094.984-8.5.984-6.688 0-10.031-2.047-3.344-2.046-3.344-6.156 0-3.125 2.39-4.906 2.391-1.781 9.626-3.39l3.078-.688q9.562-2.047 13.593-5.781 4.032-3.735 4.032-10.422 0-7.625-6.032-12.078-6.03-4.438-16.578-4.438-4.39 0-9.156.86Q10.688.296 5.422 2v9.281q4.984-2.594 9.812-3.89 4.829-1.282 9.579-1.282 6.343 0 9.75 2.172 3.421 2.172 3.421 6.125 0 3.656-2.468 5.61-2.453 1.953-10.813 3.765l-3.125.735q-8.344 1.75-12.062 5.39-3.704 3.64-3.704 9.985 0 7.718 5.47 11.906Q16.75 56 26.811 56q4.97 0 9.36-.734 4.406-.72 8.11-2.188z" id="DejaVuSans-115"/><path d="M56.203 29.594v-4.39H14.891q.593-9.282 5.593-14.142 5-4.859 13.938-4.859 5.172 0 10.031 1.266 4.86 1.265 9.656 3.812v-8.5Q49.266.734 44.187-.344 39.11-1.422 33.892-1.422q-13.094 0-20.735 7.61-7.64 7.625-7.64 20.625 0 13.421 7.25 21.296Q20.016 56 32.328 56q11.031 0 17.453-7.11 6.422-7.093 6.422-19.296zm-8.984 2.64q-.094 7.36-4.125 11.75-4.032 4.407-10.672 4.407-7.516 0-12.031-4.25-4.516-4.25-5.203-11.97z" id="DejaVuSans-101"/></defs><use xlink:href="#DejaVuSans-35"/><use x="83.789" xlink:href="#DejaVuSans-32"/><use x="115.576" xlink:href="#DejaVuSans-111"/><use x="176.758" xlink:href="#DejaVuSans-102"/><use x="211.963" xlink:href="#DejaVuSans-32"/><use x="243.75" xlink:href="#DejaVuSans-99"/><use x="298.73" xlink:href="#DejaVuSans-97"/><use x="360.01" xlink:href="#DejaVuSans-115"/><use x="412.109" xlink:href="#DejaVuSans-101"/><use x="473.633" xlink:href="#DejaVuSans-115"/></g></g><g style="fill:#696969" transform="matrix(.24 0 0 -.24 202.252 71.76)" id="text_18"><defs><path d="M9.813 72.906h13.28l32.329-60.984v60.984h9.562V0h-13.28L19.39 60.984V0H9.813z" id="DejaVuSans-78"/><path d="M4.203 54.688h8.985l11.234-42.672 11.172 42.672h10.593l11.235-42.672 11.187 42.672h8.985L63.28 0H52.688L40.922 44.828 29.109 0H18.5z" id="DejaVuSans-119"/><path d="M64.406 67.281v-10.39q-4.984 4.64-10.625 6.922-5.64 2.296-11.984 2.296-12.5 0-19.14-7.64-6.641-7.64-6.641-22.094 0-14.406 6.64-22.047 6.64-7.64 19.14-7.64 6.345 0 11.985 2.296 5.64 2.297 10.625 6.938V5.609Q59.234 2.094 53.437.33q-5.78-1.75-12.218-1.75-16.563 0-26.094 10.124-9.516 10.14-9.516 27.672 0 17.578 9.516 27.703 9.531 10.14 26.094 10.14 6.531 0 12.312-1.734 5.797-1.734 10.875-5.203z" id="DejaVuSans-67"/><path d="M25.39 72.906h8.297L8.297-9.28H0z" id="DejaVuSans-47"/><path d="M9.813 72.906h9.859V42.094L52.39 72.906h12.703L28.906 38.922 67.672 0H54.688L19.672 35.11V0h-9.86z" id="DejaVuSans-75"/><path d="M9.422 54.688h8.984V0H9.422zm0 21.296h8.984v-11.39H9.422z" id="DejaVuSans-105"/><path d="M45.406 46.39v29.594h8.985V0h-8.985v8.203Q42.578 3.328 38.25.953q-4.313-2.375-10.375-2.375-9.906 0-16.14 7.906-6.22 7.922-6.22 20.813 0 12.89 6.22 20.797Q17.968 56 27.874 56q6.063 0 10.375-2.375 4.328-2.36 7.156-7.234zm-30.61-19.093q0-9.906 4.079-15.547 4.078-5.64 11.203-5.64 7.125 0 11.219 5.64 4.11 5.64 4.11 15.547 0 9.906-4.11 15.547-4.094 5.64-11.219 5.64-7.125 0-11.203-5.64-4.078-5.64-4.078-15.547z" id="DejaVuSans-100"/><path d="M4.89 31.39h26.313v-8H4.891z" id="DejaVuSans-45"/><path d="M37.797 64.313 12.89 25.39h24.906zm-2.594 8.593H47.61V25.391h10.407v-8.203H47.609V0h-9.812v17.188H4.89v9.515z" id="DejaVuSans-52"/><path d="M32.172-5.078q-3.797-9.766-7.422-12.735-3.61-2.984-9.656-2.984H7.906v7.516h5.282q3.703 0 5.75 1.765Q21-9.766 23.483-3.219l1.61 4.094-22.11 53.813H12.5l17.094-42.766 17.093 42.766h9.516z" id="DejaVuSans-121"/><path d="M2.984 54.688H12.5L29.594 8.797l17.093 45.89h9.516L35.687 0H23.485z" id="DejaVuSans-118"/><path d="M45.406 27.984q0 9.766-4.031 15.125-4.016 5.375-11.297 5.375-7.219 0-11.25-5.375-4.031-5.359-4.031-15.125 0-9.718 4.031-15.093t11.25-5.375q7.281 0 11.297 5.375 4.031 5.375 4.031 15.093zm8.985-21.203q0-13.953-6.203-20.765Q42-20.797 29.203-20.797q-4.734 0-8.937.703-4.203.703-8.157 2.172v8.735q3.954-2.141 7.813-3.157 3.86-1.031 7.86-1.031 8.843 0 13.234 4.61 4.39 4.609 4.39 13.937v4.453q-2.781-4.844-7.125-7.234Q33.938 0 27.875 0 17.828 0 11.672 7.656q-6.156 7.672-6.156 20.328 0 12.688 6.156 20.344Q17.828 56 27.875 56q6.063 0 10.406-2.39 4.344-2.391 7.125-7.22v8.297h8.985z" id="DejaVuSans-103"/></defs><use xlink:href="#DejaVuSans-78"/><use x="74.805" xlink:href="#DejaVuSans-101"/><use x="136.328" xlink:href="#DejaVuSans-119"/><use x="218.115" xlink:href="#DejaVuSans-32"/><use x="249.902" xlink:href="#DejaVuSans-67"/><use x="319.727" xlink:href="#DejaVuSans-97"/><use x="381.006" xlink:href="#DejaVuSans-115"/><use x="433.105" xlink:href="#DejaVuSans-101"/><use x="494.629" xlink:href="#DejaVuSans-115"/><use x="546.729" xlink:href="#DejaVuSans-32"/><use x="578.516" xlink:href="#DejaVuSans-47"/><use x="612.207" xlink:href="#DejaVuSans-32"/><use x="643.994" xlink:href="#DejaVuSans-49"/><use x="707.617" xlink:href="#DejaVuSans-48"/><use x="771.24" xlink:href="#DejaVuSans-48"/><use x="834.863" xlink:href="#DejaVuSans-75"/><use x="900.439" xlink:href="#DejaVuSans-32"/><use x="932.227" xlink:href="#DejaVuSans-114"/><use x="971.09" xlink:href="#DejaVuSans-101"/><use x="1032.613" xlink:href="#DejaVuSans-115"/><use x="1084.713" xlink:href="#DejaVuSans-105"/><use x="1112.496" xlink:href="#DejaVuSans-100"/><use x="1175.973" xlink:href="#DejaVuSans-101"/><use x="1237.496" xlink:href="#DejaVuSans-110"/><use x="1300.875" xlink:href="#DejaVuSans-116"/><use x="1340.084" xlink:href="#DejaVuSans-115"/><use x="1392.184" xlink:href="#DejaVuSans-32"/><use x="1423.971" xlink:href="#DejaVuSans-45"/><use x="1460.055" xlink:href="#DejaVuSans-45"/><use x="1496.139" xlink:href="#DejaVuSans-32"/><use x="1527.926" xlink:href="#DejaVuSans-49"/><use x="1591.549" xlink:href="#DejaVuSans-52"/><use x="1655.172" xlink:href="#DejaVuSans-32"/><use x="1686.959" xlink:href="#DejaVuSans-100"/><use x="1750.436" xlink:href="#DejaVuSans-97"/><use x="1811.715" xlink:href="#DejaVuSans-121"/><use x="1870.895" xlink:href="#DejaVuSans-32"/><use x="1902.682" xlink:href="#DejaVuSans-97"/><use x="1963.961" xlink:href="#DejaVuSans-118"/><use x="2023.141" xlink:href="#DejaVuSans-101"/><use x="2084.664" xlink:href="#DejaVuSans-114"/><use x="2125.777" xlink:href="#DejaVuSans-97"/><use x="2187.057" xlink:href="#DejaVuSans-103"/><use x="2250.533" xlink:href="#DejaVuSans-101"/></g><g id="legend_1"><path d="M128.2 184.5h136.45q3.2 0 3.2-3.2V88.96q0-3.2-3.2-3.2H128.2q-3.2 0-3.2 3.2v92.34q0 3.2 3.2 3.2z" style="fill:none;opacity:.8;stroke:#ccc;stroke-linejoin:miter" id="patch_5"/><path d="M131.4 98.718h32" style="fill:none;stroke:#000;stroke-linecap:round;stroke-width:1.5" id="line2d_5"/><g style="fill:#696969" transform="matrix(.16 0 0 -.16 176.2 104.317)" id="text_19"><defs><path d="M8.688 72.906h9.921V28.61q0-11.718 4.235-16.875 4.25-5.14 13.781-5.14 9.469 0 13.719 5.14 4.25 5.157 4.25 16.875v44.297H64.5V27.391q0-14.25-7.063-21.532-7.046-7.28-20.812-7.28-13.828 0-20.89 7.28-7.047 7.282-7.047 21.532z" id="DejaVuSans-85"/><path d="M53.516 70.516V60.89q-5.61 2.687-10.594 4-4.984 1.328-9.625 1.328-8.047 0-12.422-3.125t-4.375-8.89q0-4.845 2.906-7.313 2.907-2.453 11.016-3.97l5.953-1.218q11.031-2.11 16.281-7.406 5.25-5.297 5.25-14.172 0-10.61-7.11-16.078-7.093-5.469-20.812-5.469-5.172 0-11.015 1.172Q13.14.922 6.89 3.219v10.156q6-3.36 11.765-5.078 5.766-1.703 11.328-1.703 8.438 0 13.032 3.312 4.593 3.328 4.593 9.485 0 5.359-3.297 8.39-3.296 3.032-10.812 4.547L27.484 33.5q-11.03 2.188-15.968 6.875-4.922 4.688-4.922 13.047 0 9.672 6.812 15.234 6.813 5.563 18.766 5.563 5.14 0 10.453-.938 5.328-.922 10.89-2.765z" id="DejaVuSans-83"/></defs><use xlink:href="#DejaVuSans-85"/><use x="73.193" xlink:href="#DejaVuSans-83"/></g><path d="M131.4 122.203h32" style="fill:none;stroke:#009e73;stroke-linecap:round;stroke-width:1.5" id="line2d_7"/><g style="fill:#696969" transform="matrix(.16 0 0 -.16 176.2 127.802)" id="text_20"><use xlink:href="#DejaVuSans-78"/><use x="74.805" xlink:href="#DejaVuSans-74"/></g><path d="M131.4 145.688h32" style="fill:none;stroke:#d55e00;stroke-linecap:round;stroke-width:1.5" id="line2d_9"/><g style="fill:#696969" transform="matrix(.16 0 0 -.16 176.2 151.287)" id="text_21"><defs><path d="M19.672 34.813V8.108H35.5q7.953 0 11.781 3.297 3.844 3.297 3.844 10.078 0 6.844-3.844 10.078-3.828 3.25-11.781 3.25zm0 29.984V42.828h14.61q7.218 0 10.75 2.703 3.546 2.719 3.546 8.282 0 5.515-3.547 8.25-3.531 2.734-10.75 2.734zm-9.86 8.11h25.204q11.28 0 17.375-4.688Q58.5 63.53 58.5 54.89q0-6.703-3.125-10.657-3.125-3.953-9.188-4.922 7.282-1.562 11.313-6.53 4.031-4.954 4.031-12.376 0-9.765-6.64-15.093Q48.25 0 35.984 0H9.812z" id="DejaVuSans-66"/></defs><use xlink:href="#DejaVuSans-66"/><use x="68.604" xlink:href="#DejaVuSans-101"/><use x="130.127" xlink:href="#DejaVuSans-114"/><use x="169.49" xlink:href="#DejaVuSans-103"/><use x="232.967" xlink:href="#DejaVuSans-101"/><use x="294.49" xlink:href="#DejaVuSans-110"/></g><path d="M131.4 169.173h32" style="fill:none;stroke:#0072b2;stroke-linecap:round;stroke-width:1.5" id="line2d_11"/><g style="fill:#696969" transform="matrix(.16 0 0 -.16 176.2 174.773)" id="text_22"><defs><path d="M44.39 34.188q3.172-1.079 6.172-4.594 3-3.516 6.032-9.672L66.609 0H56l-9.313 18.703q-3.624 7.328-7.015 9.719-3.39 2.39-9.25 2.39h-10.75V0h-9.86v72.906h22.266q12.5 0 18.656-5.234 6.157-5.219 6.157-15.766 0-6.89-3.203-11.437-3.204-4.532-9.297-6.282zM19.673 64.797V38.922h12.406q7.125 0 10.766 3.297 3.64 3.297 3.64 9.687 0 6.39-3.64 9.64-3.64 3.25-10.766 3.25z" id="DejaVuSans-82"/><path d="M54.89 33.016V0h-8.984v32.719q0 7.765-3.031 11.61-3.031 3.858-9.078 3.858-7.281 0-11.484-4.64-4.204-4.625-4.204-12.64V0H9.08v75.984h9.03V46.188q3.235 4.937 7.594 7.374Q30.078 56 35.797 56q9.422 0 14.25-5.828 4.844-5.828 4.844-17.156z" id="DejaVuSans-104"/></defs><use xlink:href="#DejaVuSans-82"/><use x="64.982" xlink:href="#DejaVuSans-117"/><use x="128.361" xlink:href="#DejaVuSans-116"/><use x="167.57" xlink:href="#DejaVuSans-104"/><use x="230.949" xlink:href="#DejaVuSans-101"/><use x="292.473" xlink:href="#DejaVuSans-114"/><use x="333.586" xlink:href="#DejaVuSans-102"/><use x="368.791" xlink:href="#DejaVuSans-111"/><use x="429.973" xlink:href="#DejaVuSans-114"/><use x="469.336" xlink:href="#DejaVuSans-100"/></g></g></g></g><defs><clipPath id="p84761529ca"><path d="M117 77.76h725.4v498.96H117z"/></clipPath></defs></svg>