<svg height="864" viewBox="0 0 936 648" width="1248" xmlns="http://www.w3.org/2000/svg" xmlns:xlink="http://www.w3.org/1999/xlink"><defs><style>*{stroke-linecap:butt;stroke-linejoin:round}</style></defs><g id="figure_1"><path d="M0 648h936V0H0z" style="fill:#fff" id="patch_1"/><g id="axes_1"><path d="M117 576.72h725.4V77.76H117z" style="fill:none" id="patch_2"/><path clip-path="url(#p7ab11a17c0)" d="m149.973 554.039 62.805-.064 7.85-.259 2.617-.209 1.309-.222 1.308-.366 2.617-1.1 1.309-.778 2.617-1.88 1.308-1.326 2.617-3.076 1.308-1.88 1.309-1.643 1.308-1.895 2.617-4.388 2.617-4.828 1.308-2.635 1.309-1.574 2.617-3.723 3.925-4.705 1.308-.982 1.309-.795 1.308-.396 3.926-.662 1.308.074 1.309.618 1.308.026 1.308.325 1.309.444 1.308.276 1.309.085 2.617-.55 1.308.038 5.234.862 1.308-.227 2.617-.173 1.309.5 1.308.167 2.617.887 2.617 1.718 2.617 1.105 1.308.217 1.309.499 1.308.313 1.309.713 1.308.536 1.308.657 1.309.012 1.308.252 1.309.133 3.925.847 1.308.026 1.309-.136 3.925.945 1.309.156 1.308.024 1.309-.149 2.616.01 2.617.664 1.309-.452 1.308-.023 2.617.213 1.309.008 1.308-.379 2.617-.15 1.308-.179 2.617.303 1.309-.378 2.617-1.116 1.308-.196 1.308-.877 1.309-.715 1.308-1.13 1.309-1.5 1.308-1.302 1.309-1.657 1.308-1.847 1.308-1.564 2.617-3.665 2.617-4.41 2.617-4.96 5.234-6.66 1.308-2.072 1.309-1.725 1.308-2.093 2.617-3.385 1.309-2.034 2.616-3.28 1.309-1.856 2.617-2.417 1.308-1.614 2.617-2.19 2.617-1.881 2.617-1.047 2.617.55 2.617.374 1.308.621 1.309.17 1.308.518 3.925 3.283 1.309 1.476 3.925 3.356 1.308.528 1.309 1.107 1.308.9 1.309 1.153 1.308 1.372 1.309.886 1.308.561 2.617 1.717 2.617 1.938 3.925 3.118 1.309 1.489 1.308.624 1.309 1.307 2.616 1.605 1.309 1.19 1.308.566 1.309.802 1.308.096 1.309-.075 1.308.974 1.309-.034 1.308-.283 2.617.47 1.308 1.405 1.309.945 1.308 1.105 1.309.696 1.308-.093 1.308.508 2.617-.03 1.309.446 1.308-.629 1.309.1 1.308.297 1.309.04 1.308-.586 1.308-2.745 2.617-1.537 2.617-1.305 2.617-.696 1.309-.043 1.308-.413 1.308-.258 1.309-.102 1.308-.432 1.309-.55 1.308.119 1.309-.688 1.308-.505 2.617-2.088 1.308-.403 1.309-.826 1.308-.69 2.617-1.968 3.926-4.943 1.308-.459 1.308-1.182 1.309-.279 1.308-1.635 1.309-1.034 1.308-1.728 2.617-4.91 1.308-1.377 1.309-2.454 2.617-3.874 1.308-2.333 6.542-13.603 2.617-8.302 3.926-12.775 1.308-5.145 3.925-18.378 2.617-14.423 1.309-5.623 2.617-13.069 3.925-18.107 1.308-4.24 1.309-3.447 1.308-4.533 2.617-6.99 1.309 5.591 1.308-2.244 1.308.703 2.617-.185 1.309-2.084 2.617-5.45 3.925-8.98 1.308-2.293 2.617-7.467 1.309-11.266 1.308-6.885 1.309-5.174 1.308-4.434 1.309-3.067 1.308-1.741 1.308-4.024 2.617-3.67 1.309 1.089 1.308-.737 1.309.275 1.308 1.67 1.309-.742 1.308 2.92 1.308 16.556 1.309-.86 1.308 2.962 1.309 1.096 1.308.192 1.309 1.463 1.308.618 1.309 9.582 1.308-9.008 1.308-2.016 1.309-4.638 1.308-3.077 1.309-2.6 1.308-8.004 1.309-18.421 1.308-3.232 1.308-5.182 1.309-3.44 1.308-2.668 1.309-.034 1.308-.784 1.309-8.537 1.308 8.243 1.309 2.922 1.308 10.205 1.308 4.43 1.309 6.497 1.308 8.284 1.309 10.068 2.617 14.992 1.308 6.43 2.617 14.095 3.925 20.002 1.309 5.19 1.308-.067 1.309 6.61 3.925 17.72 1.308 5.805 1.309 3.908 1.308 5.863 1.309 5 3.925 17.178 2.617 9.142 1.308 7.982 5.234 18.996 2.617 6.207 1.308 3.09 1.309 2.256 1.308 1.916 1.309 2.558 2.617 3.991 1.308 1.187 1.309-.13 1.308.634 2.617.743 2.617 2.346 1.308 1.394 1.309-3.231 3.925 4.38 2.617 2.514 1.308 1.191 1.309-.043 1.308.287 2.617 1.336 1.309.468 1.308.2 1.308.54 1.309 3.67 1.308-.08 1.309-2 1.308-.62 2.617-1.98 1.308-.602 1.309-1.252 2.617-1.54 1.308-1.542 1.309-.734 1.308-.896 1.309-.242 1.308-2.017 1.308-.482 1.309.628 1.308-1.046 1.309-.652 2.617-.694 1.308-.11 1.309-1.39 1.308-.72 1.308.322 1.309-.9 1.308.946 1.309-.422 1.308.584 1.309-.133 2.617 2.507 1.308 1.641 2.617 2.644 2.617 4.613 1.308 1.93 1.309 1.485 1.308 1.829 1.308.84 1.309 1.085 1.308 1.873 1.309 2.07 1.308 1.419 1.309 1.71 2.617 3.05 2.616 2.033 2.617 3.426 2.617 3.383 1.309 1.448 1.308 1.191 1.309 1.912 1.308 1.207 1.308 1.467 2.617 3.37 1.309 1.415 1.308.754 5.234 4.142 2.617 3.392 1.308.854 1.309 2.18 1.308.491 1.309 1.1 1.308.933 1.309 1.152 2.616 1.472 1.309 1.094 1.308.71h0" style="fill:none;stroke:#000;stroke-linecap:round;stroke-width:1.5" id="line2d_1"/><path clip-path="url(#p7ab11a17c0)" d="m149.973 554.04 66.73-.099 3.926-.235 2.616-.579 1.309-.538 1.308-1.046 1.309-.542 1.308-1.498 1.309-1.963 1.308-3.15 1.309-2.818 1.308-2.449 1.308-8.407 1.309-6.568 2.617-15.373 1.308-10.806 1.309-6.704 1.308-11.582 1.309-10.311 1.308-14.117 1.308-12.907 2.617-18.592 2.617-16.314 1.309-3.801 1.308-5.492 1.308-4.306 1.309-4.895 1.308 1.758 1.309-7.426 1.308 4.609 1.309-3.243 1.308 3.934 1.309 4.347 1.308-1.703 1.308.272 1.309-.868 1.308-1.557 1.309-1.82 1.308 4.613 1.309.804 1.308.627 1.309 1.99 1.308 5.354 1.308-.688 1.309 6.47 1.308 2.084 1.309 1.451 1.308 2.91 1.309 6.744 1.308 4.282 1.309 7.43 1.308 8.104 1.308 1.321 1.309 5.778 1.308 7.044 1.309 2.51 1.308 6.371 1.309 5.42 2.617 8.792 1.308 4.575 1.308 6.07 1.309-.613 1.308 4.599 1.309-.304 1.308 2.29 1.309 1.948 1.308 4.245 1.308 1.352 1.309 1.618 1.308.43 2.617-.307 1.309.586 2.617 2.82 1.308 4.197 1.308 1.182 1.309 2.94 1.308 2.081 1.309 1.502 1.308-.586 1.309 2.654 1.308 2.061 1.309 1.27 1.308 1.07 2.617 4.763 1.308 1.1 1.309 1.91 1.308.856 1.309 1.035 1.308.838 1.309.198 1.308 1.42 1.308.747 1.309-.126 1.308.204 1.309-.068 1.308 1.335 1.309-5.75 1.308-.136 1.308.518 1.309-.113 1.308.45 1.309-.245 1.308.054 2.617-.078 1.309.16 1.308-.208 2.617.395 1.308-.32 1.309 6.564 1.308.102 2.617-.245 1.309-.456 1.308.006 1.308-.439 1.309.705 1.308 1.145 1.309.095 1.308 1.363 1.309.099 1.308-.09 1.309-.282 1.308-.037 1.308-.34 3.926-1.953 1.308-.306 1.309-.123 1.308.065 1.309-2.18 1.308-.362 1.308-1.199 2.617-.5h1.309l1.308-.45 1.309.334 2.616 1.042 1.309.65 1.308.134 1.309-.079 1.308-1.54 2.617.72 1.309 1.049 1.308-.164 2.617.14 1.308.933 1.309.239 1.308-.549 1.309.668 1.308.112 1.309.484 1.308.725 1.308 1.19 1.309.722 1.308-.242 1.309-.947 1.308-.126 2.617.04 1.309-.947 1.308-.541 1.308.695 1.309-.555 1.308-.365 1.309.085 2.617-.715 2.616-.736 2.617.03 2.617-.64 1.309-.65 1.308-.13 2.617-.947 1.308-.204 1.309-.508 1.308-.269 1.309-.477 1.308-.252 1.309-1.025 1.308-1.366 1.309-.767 1.308-.068 1.308-1.083 1.309-.153 1.308-.862 1.309-1.656 1.308-.59 1.309-.404 1.308-.692 1.309-.344 1.308-2.5 1.308-1.08 1.309-.389 1.308-.18 1.309.306 1.308-1.812 1.309-.787 1.308-1.216 1.309-.238 1.308.044 2.617-4.53 1.308-1.223 1.309-1.775 1.308.463 1.309-.613 1.308-3.56 1.308-1.288 1.309-2.544 1.308-2.245 1.309-2.49 1.308-1.973 1.309-3.972 2.617-3.055 1.308-.6 1.308-2.847 1.309-4.814 1.308-2.725 1.309-3.802 1.308-4.404 2.617-5.88 1.309-7.256 1.308-4.752 1.308-6.615 1.309-4.84 2.617-19.707 1.308-2.899 1.309-7.501 1.308-5.488 1.309-7.562 2.616-9.988 1.309-6.66 1.308-5.188 1.309-1.696 2.617-6.728 1.308-2.378 1.308 1.877 1.309 2.381 1.308-3.307 1.309-1.976 1.308-.848 1.309-2.082 1.308-6.939 1.309-2.231 1.308-7.024 1.308.061 1.309-4.091 1.308-1.376 1.309-2.204 1.308 1.516 1.309-8.305 1.308-1.073 1.309-5.478 1.308 2.18 1.308-4.762 1.309 1.833 1.308 6.019 1.309 3.86 1.308 2.912 1.309 1.335 1.308 2.974 1.309-1.179 1.308 1.418 1.308-4.804 1.309 7.634 1.308 6.248 1.309 6.997 1.308 1.052 1.309 3.349 1.308-2.865 1.309-5.467 1.308-4.497 1.308 5.127 1.309-163.242 1.308-5.658 1.309-3.553 1.308-9.453 1.309-6.68 2.616-22.953 1.309-8.833 1.308-3.165 1.309-10.764 1.308-6.8 1.309-2.943 1.308-1.662 1.309-4.994 1.308 160.919 1.308 5.576 1.309 1.407 1.308 8.281 1.309 9.61 1.308.896 1.309 1.274 1.308 4.067 1.309-.647 1.308 10.45 1.308 7.993 1.309 1.29 1.308 2.47 1.309 2.889 1.308 1.151 1.309 5.032 1.308 10.655 1.309 5.992 1.308-.095 1.308 8.986 1.309 3.202 1.308 5.39 1.309 4.084 1.308 1.498 1.309 3.714 1.308 7.678 1.308 5.167 2.617 14.274 1.309-1.646 1.308-6.125 1.309.045 1.308 4.026 1.309 5.56 1.308 7.838 1.308-.487 1.309 1.427 1.308 4.265 1.309.276 1.308-.467 1.309-1.288 1.308-.756 1.309-5.78 1.308 1.171 1.308 1.424 1.309.283 1.308-2.221 1.309-2.875 1.308-1.666 1.309 1.352 1.308-3.297 1.309-2.238 1.308-.814 1.308-1.182 1.309.913 1.308-3.134 1.309 1.09 1.308-1.458 1.309-2.116 1.308-4.357 1.309-2.364 1.308-4.043 1.308-2.446 1.309-2.875 1.308-2.306 1.309-1.094 1.308-.443 1.309-4.71 1.308-2.723 1.308-4.07 1.309-2.722 1.308-3.938 1.309 2.194 1.308-3.87 1.309-.467 1.308 1.581 1.309-1.918 1.308 1.09 1.308 3.717 1.309-.494 1.308-1.322 1.309 4.79 2.617 7.443 1.308 3.9 1.309 3.13 1.308.358 1.308 5.757 1.309.504 1.308 1.782 2.617 4.428 1.309 2.974 1.308 2.61 1.309 3.754 1.308 4.629 1.308 2.78 1.309 5.767 1.308 39.11 1.309 6.234 1.308 4.946 1.309 5.702 2.616 16.545 1.309 6.647 1.308 4.087 1.309 6.251 1.308 3.223 2.617 12.55 1.309 7.265 1.308 4.616 1.308-31.193 2.617 10.86 1.309 6.186 1.308 5.225 2.617 6.377 1.309 2.163 1.308 1.223 1.308 7.103 1.309 2.902 1.308 1.073 1.309.927 2.617.3 1.308.586 1.309.31 2.616.31 1.309 1.331 1.308.079 1.309.514 1.308 1.66 1.309.582 1.308.953 1.309 1.223 1.308.068 1.308.314 1.309-.361 1.308.66h0" style="fill:none;stroke:#009e73;stroke-linecap:round;stroke-width:1.5" id="line2d_2"/><path clip-path="url(#p7ab11a17c0)" d="m149.973 554.04 60.188-.097 3.925-.13 3.926-.325 1.308-.454 1.309-.033 1.308-.94 1.308-.747 1.309-1.558 1.308-5.29 1.309-1.429 1.308-.649 1.309-3.051 1.308-4.9 1.309-2.922 1.308-3.7 1.308-12.496 2.617-19.929 1.309-10.71 1.308-9.218 1.309-13.113 1.308-17.397 1.309-14.313 1.308-23.434 1.308-28.367 1.309-10.776 1.308-16.975 1.309-18.792 1.308-7.238 1.309-2.662 1.308-9.282 1.308-3.278 1.309-2.954 1.308.162 1.309 3.019 1.308 5.29 1.309 1.428 1.308 10.16 1.309 19.279 1.308-1.59 2.617 20.415 1.308.357 1.309 3.44 1.308 8.796 1.309 1.915 1.308 6.329 1.309 5.485 1.308 6.07 1.308 7.367 1.309 12.886 1.308 7.595 1.309 5.063 2.617 17.527 1.308 5.42 2.617 17.656 1.308 6.946 1.309 9.088 1.308 3.31 1.309 1.299 1.308 2.726 1.309 4.415 1.308 7.594 1.309 3.408 2.616 6.135 1.309-.033 1.308 3.733 1.309 2.077 1.308.779 1.309.974 1.308 2.596 1.308-.357 2.617.098 1.309-.033 1.308-6.653 1.309 1.622 1.308 2.045 1.309 1.753 1.308 2.207 1.308 1.038 1.309-1.525 1.308 1.071 1.309.487 1.308-.454 1.309 3.765 1.308 2.304 1.309.876 1.308-1.103 1.308 2.694 1.309 1.33 1.308-2.401 1.309 1.558h1.308l1.309-.714 1.308.519 1.309.357 1.308 1.2h1.308l1.309.195 1.308-.032 1.309.097 1.308 2.143 1.309-9.12 1.308-2.37 1.308 1.655 1.309-2.142 1.308.292 2.617.325 1.309-.195 1.308-1.298 1.309-.033 1.308-1.59 1.308-.098 1.309.357 1.308-.908 1.309 9.185 1.308 1.33 1.309-.291 1.308 1.785 1.309.032 1.308 1.039 2.617.324 1.308 1.364 1.309.551 1.308 2.013 1.309-.78 1.308.098 2.617.974 1.308.876 2.617-.65 1.309-1.103 1.308-1.46 1.309-.844 1.308.065 1.309-1.428 1.308-.292 1.308-.844 1.309.746 1.308-1.266 1.309.52 2.617.26 1.308-.877 1.308-.292 2.617 1.46 1.309.325 1.308-.649 1.309-1.883 1.308-1.298 2.617-3.213 1.308 1.006 1.309.844 1.308 2.467 1.309.13 1.308.746 1.309 1.071 1.308.162 2.617-.357 1.308.747 1.309 3.18 1.308.52 2.617 2.5 1.309-1.267 1.308-.844 1.309-2.564 1.308-.227 1.308 1.006 1.309-.746 1.308-.065 1.309.487 1.308.324 1.309-.13 1.308-.357 1.308 1.169 1.309.195 1.308.454 1.309 1.98 1.308-.162 1.309-.78 1.308-.13 1.309-.746 1.308.325 1.308-.033 1.309-.843 1.308.13 1.309-.195 1.308.13 1.309-.715 1.308-.389 1.309-.13 1.308-.974 1.308-.13 1.309-.389 1.308-.714 1.309-1.071 1.308-.617 1.309-.357 1.308.033 1.309-.812 1.308-1.785 2.617-2.888 1.308-.747 1.309-.487 1.308-2.207 2.617-2.207 1.309-.65 1.308-.356 1.308-1.85 1.309-2.175 1.308-1.525 1.309-2.337 1.308-.747 1.309-.486 1.308-2.37 1.308-1.72 1.309-2.37 1.308-1.46 1.309-.876 1.308-1.071 1.309-4.35 2.617-3.96 1.308-1.427 1.308-2.435 1.309-3.018 1.308.032 1.309-4.057 1.308-5.94 1.309-2.953 1.308-.487 1.309-4.998 1.308-7.206 1.308-8.795 1.309-4.642 2.617-16.098 1.308-1.136 2.617-13.795 1.309-10.938 1.308-4.154 1.308-3.538 1.309-6.296 1.308-8.374 1.309-1.136 1.308-.584 1.309-.26 1.308-6.362 1.308 5.745 2.617-6.491 1.309-2.11 1.308.747 1.309-1.883 1.308-8.893 1.309-2.24 1.308-4.511 1.308 1.947 1.309-1.266 1.308 1.818 1.309-.26 1.308 8.504 1.309-10.354 1.308 4.285 1.309-3.506 1.308 3.863 1.308-.844 1.309 4.317 1.308 7.173 1.309 5.193 1.308 5.68 1.309 2.694 1.308 1.233 1.309-5.972 1.308-1.169 1.308-4.966 1.309 7.498 2.617 9.218 1.308.811 1.309.422 1.308-5.485 2.617-5.193 1.308 2.207 1.309-141.902 1.308-9.607 1.309-4.9 1.308-6.525 1.309-7.79 2.616-19.311 1.309-3.7 1.308-1.233 1.309-10.744 1.308-6.88 2.617-7.109 1.309-5.842 1.308 140.928 1.308 4.836 1.309 1.33 1.308 4.934 1.309 10.419 1.308-2.24 1.309 1.59 1.308.747 1.309-3.505 2.616 15.936 1.309 3.7 1.308.714 1.309 2.045 1.308-2.434 1.309 5.874 1.308 11.393 1.309 3.278 1.308-4.804 1.308 5.81 1.309 1.72 1.308 2.857 1.309 4.576 1.308 1.233 1.309 3.798 1.308 2.888 1.308 3.408 1.309 5.258 1.308 6.784 1.309-6.719 1.308-5.03 1.309 1.395 1.308 6.427 1.309 4.251 1.308 6.524 2.617-6.653 1.308 2.272 1.309-2.727 1.308-4.674 1.309-.486 1.308.26 1.309-11.555 1.308 3.408 1.308-4.187 1.309-.52 1.308-5.095 1.309 4.316 1.308-3.375 1.309 3.18 1.308-3.375 1.309-.909 1.308-.746 1.308 2.337 1.309 1.168 1.308-4.414 1.309 5.583 1.308-2.5 1.309.293 1.308-2.922 1.309-2.531 1.308-9.997 1.308-.974 1.309-3.148 1.308.065 1.309-1.33 1.308 4.51 1.309-9.444 1.308-5.68 1.308-4.934 1.309-1.265 1.308-1.948 1.309-2.37 1.308-2.012 1.309.52 1.308.292 1.309-.227 1.308.714 1.308 5.03 1.309-2.466 1.308-1.526 1.309 11.133 1.308 6.2 1.309 6.913 1.308 3.992 2.617 13.145 1.308 5.453 1.309 4.024 2.617 9.12 1.308 5.324 1.309 3.57 1.308 6.653 1.309 3.344 1.308 5.225 1.308 3.116 1.309 5.583 1.308 7.854 1.309 4.706 1.308 5.94 1.309 4.317 2.616 15.611 1.309 4.772 1.308 2.856 1.309 5.096 1.308-31.581 1.309-3.148 1.308 5.063 1.309 6.2 1.308 2.888 1.308-1.071 1.309 4.414 1.308 3.278 1.309 5.972 1.308 2.954 1.309 1.363 1.308.941 1.309 1.428 1.308 2.013 1.308 40.7 1.309 12.27 1.308.486 1.309 1.98 1.308 1.039 2.617.486 1.309 1.461 1.308.422 1.308 1.363 1.309 2.305 1.308 1.2 1.309.877 1.308.616 1.309.78 1.308.389 1.309 1.298 1.308-.422 1.308.227 1.309.455 1.308.941h0" style="fill:none;stroke:#d55e00;stroke-linecap:round;stroke-width:1.5" id="line2d_3"/><path clip-path="url(#p7ab11a17c0)" d="M149.973 554.04h74.58l1.31-3.306h2.616l1.309-1.653h1.308l2.617-9.919 1.308-9.918 1.309-1.653 1.308-4.96 1.309-3.306 1.308-8.265 1.309-13.225 1.308-11.571h1.309l1.308-9.919 1.308-26.45 1.309-16.53 1.308-4.96 1.309-3.305h1.308l1.309-6.613 1.308-9.918 1.308 1.653 1.309 3.306 1.308-1.653 1.309 6.612 1.308 4.96 1.309-4.96 1.308 1.653 1.309 21.49 1.308 18.184 1.308-3.306 1.309 3.306 1.308-3.306 1.309 8.266h3.925l1.309 1.653 1.308 6.612 3.925 9.918h2.617l1.309 8.266 1.308 4.96 2.617 16.53 1.308 9.918 1.309 3.307h1.308l1.309 1.653 1.308-6.613 1.309 1.653 2.617 6.613 1.308 4.959h2.617l1.308-1.653h2.617l1.309 1.653h2.616l1.309 6.612 1.308 4.96 2.617 3.306 1.309-1.653h2.617l1.308-4.96h10.468l1.308-1.653h1.308l1.309 1.653h2.617l1.308 4.96h7.85l1.31-3.306 1.308 1.653h1.308l1.309-1.653h3.925l1.308-6.613 1.309 1.653 1.308-1.653h5.234l1.308-6.612 1.309-1.653 1.308 1.653h1.309l1.308-1.653h2.617l1.309 3.306 1.308-1.653 1.308 1.653h5.234l1.309 9.918 1.308-3.306 1.309-1.653h1.308l1.308 3.306h2.617l2.617 3.307h1.309l1.308-1.654h3.925l1.309-1.653 1.308 4.96h1.309l1.308 1.653h3.925l1.309 1.653h1.308l1.309-1.653 1.308 1.653 1.309-1.653h5.233l1.309 1.653 2.617-3.306h3.925l1.309-3.307h1.308l1.308-1.653 1.309 1.653h5.234l1.308-6.612 2.617 3.306h3.925l1.309-1.653 2.617 3.306h6.542l1.308 3.307 1.309-1.654h3.925l1.308-4.959 1.309 4.96 1.308-1.654h5.234l1.309 1.653h1.308l1.308 3.307 1.309 1.653h3.925l1.309 1.653 1.308-1.653 1.309-6.613 1.308-14.877 1.308-3.307h2.617l1.309-3.306 1.308-9.918 1.309-1.653 2.617-16.531 2.616-9.919h1.309l2.617 3.307 1.308 14.877 1.309 3.306h2.616l1.309-6.612 1.308 3.306 1.309-6.612h2.617l2.617 9.918 1.308-16.53 1.308-1.653 2.617-9.919 1.309-8.265h2.617l1.308-21.49h1.309l1.308 8.265 1.308-19.837 1.309-3.306h2.617l1.308-6.612 1.309-18.184 2.617-16.531 1.308-14.878 1.308-8.265h1.309l1.308 8.265 1.309-6.612 1.308-9.919 1.309 28.103 1.308 11.571 1.308-33.061h1.309l1.308 3.306 1.309 8.265 1.308 1.653 1.309-13.224 1.308-16.531 1.309-9.919h1.308l1.308 4.96 1.309-6.613 1.308 1.653 1.309-29.755 1.308-14.878 1.309 33.062h2.617l1.308-3.306 1.308 6.612 1.309 26.45 1.308 11.57 1.309 18.185h1.308l1.309-26.45 1.308 8.266 1.309-36.368 1.308 21.49 1.308 14.878h2.617l1.309-26.45 1.308 6.613 2.617-38.021 1.309 28.102h2.616l1.309-9.918 1.308-18.184 1.309 21.49 1.308-16.53 1.309-19.838 1.308-16.53h1.308l1.309 13.224 1.308-9.918 1.309 6.612 1.308 1.653 1.309-16.53h2.617l1.308 54.55 1.308-4.958 1.309 6.612 1.308 18.184 1.309 14.878 1.308 16.53h1.309l1.308-14.877 1.309 11.571 1.308 14.878 1.308 6.612 1.309-9.918 1.308-8.266h2.617l1.309 34.715 1.308-26.45 2.617-13.224h2.617l1.308 24.796 1.309-4.959 1.308 1.653h1.309l1.308 18.184 1.308-3.306h2.617l1.309-23.143 1.308 34.714 1.309 8.266 1.308 3.306h1.309l1.308-11.572 1.308 19.837 2.617 3.307 1.309-11.572 1.308-6.612 1.309 11.571h1.308l1.309-26.449 1.308 6.612 1.308-1.653h1.309l1.308-14.877h1.309l1.308 11.571 1.309-16.53 1.308 3.305 1.309-6.612 1.308-1.653 1.308 6.612h2.617l1.309-11.571 1.308 4.959 1.309-3.306h1.308l1.309 14.878h2.616l1.309-16.531 1.308-3.306 1.309 1.653 1.308 9.918 1.309-3.306h1.308l1.308-14.878 1.309 19.837 1.308-1.653 1.309 8.266 1.308-24.797 1.309-6.612h2.617l1.308 11.572 1.308-3.307 2.617-1.653v-1.653l1.309 3.306 1.308-1.653 1.309 14.878 1.308 1.653 1.309 4.96 1.308-3.307 1.308 9.919 1.309 6.612 1.308-8.265h1.309l1.308 23.143 1.309 11.571 2.617 6.613h1.308l1.308 1.653h1.309l1.308 6.612 2.617 6.612 1.309 13.225 1.308-6.612 1.308 6.612h1.309l1.308 1.653h2.617l1.309 8.266 1.308 4.959h2.617l1.308 3.306 1.309 4.96 1.308 3.305 1.309 6.613 1.308 14.877 1.309 1.654h1.308l1.309 3.306 1.308 1.653 1.308 9.918 1.309 1.653 1.308 3.307h2.617l1.309 6.612h2.617l1.308-3.306h6.542l1.309-1.653 1.308 1.653h5.234l1.308-4.96h0" style="fill:none;stroke:#0072b2;stroke-linecap:round;stroke-width:1.5" id="line2d_4"/><path d="M117 576.72V77.76" style="fill:none;stroke:#d3d3d3;stroke-linecap:square;stroke-linejoin:miter;stroke-width:1.25" id="patch_3"/><path d="M117 576.72h725.4" style="fill:none;stroke:#d3d3d3;stroke-linecap:square;stroke-linejoin:miter;stroke-width:1.25" id="patch_4"/><g id="matplotlib.axis_1"><g id="xtick_1"><g style="fill:#696969" transform="matrix(.16 0 0 -.16 111.471 598.378)" id="text_1"><defs><path d="M9.813 72.906h9.859V5.078q0-13.187-5-19.14-5-5.954-16.094-5.954h-3.75v8.297h3.078q6.531 0 9.219 3.672Q9.813-4.39 9.813 5.078z" id="DejaVuSans-74"/><path d="M34.281 27.484q-10.89 0-15.093-2.484-4.204-2.484-4.204-8.5 0-4.781 3.157-7.594 3.156-2.797 8.562-2.797 7.485 0 12 5.297 4.516 5.297 4.516 14.078v2zm17.922 3.72V0H43.22v8.297Q40.14 3.328 35.547.953q-4.594-2.375-11.234-2.375-8.391 0-13.36 4.719Q6 8.016 6 15.922q0 9.219 6.172 13.906 6.187 4.688 18.437 4.688h12.61v.89q0 6.203-4.078 9.594-4.078 3.39-11.453 3.39-4.688 0-9.141-1.124-4.438-1.125-8.531-3.375v8.312q4.921 1.906 9.562 2.844 4.64.953 9.031.953 11.875 0 17.735-6.156 5.86-6.14 5.86-18.64z" id="DejaVuSans-97"/><path d="M54.89 33.016V0h-8.984v32.719q0 7.765-3.031 11.61-3.031 3.858-9.078 3.858-7.281 0-11.484-4.64-4.204-4.625-4.204-12.64V0H9.08v54.688h9.03v-8.5q3.235 4.937 7.594 7.374Q30.078 56 35.797 56q9.422 0 14.25-5.828 4.844-5.828 4.844-17.156z" id="DejaVuSans-110"/></defs><use xlink:href="#DejaVuSans-74"/><use x="29.492" xlink:href="#DejaVuSans-97"/><use x="90.771" xlink:href="#DejaVuSans-110"/></g></g><g id="xtick_2"><g style="fill:#696969" transform="matrix(.16 0 0 -.16 187.217 598.378)" id="text_2"><defs><path d="M9.813 72.906h14.703l18.593-49.61 18.703 49.61h14.704V0H66.89v64.016l-18.797-50h-9.907l-18.796 50V0H9.813z" id="DejaVuSans-77"/><path d="M41.11 46.297q-1.516.875-3.297 1.281Q36.03 48 33.89 48q-7.625 0-11.703-4.953-4.079-4.953-4.079-14.234V0H9.08v54.688h9.03v-8.5q2.844 4.984 7.375 7.39Q30.031 56 36.531 56q.922 0 2.047-.125 1.125-.11 2.484-.36z" id="DejaVuSans-114"/></defs><use xlink:href="#DejaVuSans-77"/><use x="86.279" xlink:href="#DejaVuSans-97"/><use x="147.559" xlink:href="#DejaVuSans-114"/></g></g><g id="xtick_3"><g style="fill:#696969" transform="matrix(.16 0 0 -.16 265.585 598.378)" id="text_3"><defs><path d="M32.172-5.078q-3.797-9.766-7.422-12.735-3.61-2.984-9.656-2.984H7.906v7.516h5.282q3.703 0 5.75 1.765Q21-9.766 23.483-3.219l1.61 4.094-22.11 53.813H12.5l17.094-42.766 17.093 42.766h9.516z" id="DejaVuSans-121"/></defs><use xlink:href="#DejaVuSans-77"/><use x="86.279" xlink:href="#DejaVuSans-97"/><use x="147.559" xlink:href="#DejaVuSans-121"/></g></g><g id="xtick_4"><g style="fill:#696969" transform="matrix(.16 0 0 -.16 352.288 598.378)" id="text_4"><defs><path d="M8.5 21.578v33.11h8.984V21.922q0-7.766 3.016-11.656 3.031-3.875 9.094-3.875 7.265 0 11.484 4.64 4.234 4.64 4.234 12.656v31h8.985V0h-8.984v8.406Q42.047 3.422 37.718 1q-4.313-2.422-10.032-2.422-9.421 0-14.312 5.86Q8.5 10.296 8.5 21.578zM31.11 56z" id="DejaVuSans-117"/><path d="M9.422 75.984h8.984V0H9.422z" id="DejaVuSans-108"/></defs><use xlink:href="#DejaVuSans-74"/><use x="29.492" xlink:href="#DejaVuSans-117"/><use x="92.871" xlink:href="#DejaVuSans-108"/></g></g><g id="xtick_5"><g style="fill:#696969" transform="matrix(.16 0 0 -.16 427.984 598.378)" id="text_5"><defs><path d="M53.516 70.516V60.89q-5.61 2.687-10.594 4-4.984 1.328-9.625 1.328-8.047 0-12.422-3.125t-4.375-8.89q0-4.845 2.906-7.313 2.907-2.453 11.016-3.97l5.953-1.218q11.031-2.11 16.281-7.406 5.25-5.297 5.25-14.172 0-10.61-7.11-16.078-7.093-5.469-20.812-5.469-5.172 0-11.015 1.172Q13.14.922 6.89 3.219v10.156q6-3.36 11.765-5.078 5.766-1.703 11.328-1.703 8.438 0 13.032 3.312 4.593 3.328 4.593 9.485 0 5.359-3.297 8.39-3.296 3.032-10.812 4.547L27.484 33.5q-11.03 2.188-15.968 6.875-4.922 4.688-4.922 13.047 0 9.672 6.812 15.234 6.813 5.563 18.766 5.563 5.14 0 10.453-.938 5.328-.922 10.89-2.765z" id="DejaVuSans-83"/><path d="M56.203 29.594v-4.39H14.891q.593-9.282 5.593-14.142 5-4.859 13.938-4.859 5.172 0 10.031 1.266 4.86 1.265 9.656 3.812v-8.5Q49.266.734 44.187-.344 39.11-1.422 33.892-1.422q-13.094 0-20.735 7.61-7.64 7.625-7.64 20.625 0 13.421 7.25 21.296Q20.016 56 32.328 56q11.031 0 17.453-7.11 6.422-7.093 6.422-19.296zm-8.984 2.64q-.094 7.36-4.125 11.75-4.032 4.407-10.672 4.407-7.516 0-12.031-4.25-4.516-4.25-5.203-11.97z" id="DejaVuSans-101"/><path d="M18.11 8.203v-29H9.077v75.484h9.031v-8.296q2.844 4.875 7.157 7.234Q29.594 56 35.594 56q9.968 0 16.187-7.906 6.235-7.907 6.235-20.797T51.78 6.484q-6.218-7.906-16.187-7.906-6 0-10.328 2.375-4.313 2.375-7.157 7.25zm30.578 19.094q0 9.906-4.079 15.547-4.078 5.64-11.203 5.64-7.14 0-11.218-5.64-4.079-5.64-4.079-15.547 0-9.906 4.078-15.547 4.079-5.64 11.22-5.64 7.124 0 11.202 5.64t4.078 15.547z" id="DejaVuSans-112"/></defs><use xlink:href="#DejaVuSans-83"/><use x="63.477" xlink:href="#DejaVuSans-101"/><use x="125" xlink:href="#DejaVuSans-112"/></g></g><g id="xtick_6"><g style="fill:#696969" transform="matrix(.16 0 0 -.16 507.264 598.378)" id="text_6"><defs><path d="M9.813 72.906h13.28l32.329-60.984v60.984h9.562V0h-13.28L19.39 60.984V0H9.813z" id="DejaVuSans-78"/><path d="M30.61 48.39q-7.22 0-11.422-5.64-4.204-5.64-4.204-15.453 0-9.813 4.172-15.453 4.188-5.64 11.453-5.64 7.188 0 11.375 5.655 4.203 5.672 4.203 15.438 0 9.719-4.203 15.406-4.187 5.688-11.375 5.688zm0 7.61q11.718 0 18.406-7.625 6.703-7.61 6.703-21.078 0-13.422-6.703-21.078-6.688-7.64-18.407-7.64-11.765 0-18.437 7.64-6.656 7.656-6.656 21.078 0 13.469 6.656 21.078Q18.844 56 30.609 56z" id="DejaVuSans-111"/><path d="M2.984 54.688H12.5L29.594 8.797l17.093 45.89h9.516L35.687 0H23.485z" id="DejaVuSans-118"/></defs><use xlink:href="#DejaVuSans-78"/><use x="74.805" xlink:href="#DejaVuSans-111"/><use x="135.986" xlink:href="#DejaVuSans-118"/></g></g><g id="xtick_7"><g style="fill:#696969" transform="matrix(.16 0 0 -.16 590.361 598.378)" id="text_7"><use xlink:href="#DejaVuSans-74"/><use x="29.492" xlink:href="#DejaVuSans-97"/><use x="90.771" xlink:href="#DejaVuSans-110"/></g></g><g id="xtick_8"><g style="fill:#696969" transform="matrix(.16 0 0 -.16 664.798 598.378)" id="text_8"><use xlink:href="#DejaVuSans-77"/><use x="86.279" xlink:href="#DejaVuSans-97"/><use x="147.559" xlink:href="#DejaVuSans-114"/></g></g><g id="xtick_9"><g style="fill:#696969" transform="matrix(.16 0 0 -.16 743.166 598.378)" id="text_9"><use xlink:href="#DejaVuSans-77"/><use x="86.279" xlink:href="#DejaVuSans-97"/><use x="147.559" xlink:href="#DejaVuSans-121"/></g></g><g id="xtick_10"><g style="fill:#696969" transform="matrix(.16 0 0 -.16 829.869 598.378)" id="text_10"><use xlink:href="#DejaVuSans-74"/><use x="29.492" xlink:href="#DejaVuSans-117"/><use x="92.871" xlink:href="#DejaVuSans-108"/></g></g></g><g id="matplotlib.axis_2"><g id="ytick_1"><g style="fill:#696969" transform="matrix(.16 0 0 -.16 97.32 560.119)" id="text_11"><defs><path d="M31.781 66.406q-7.61 0-11.453-7.5Q16.5 51.422 16.5 36.375q0-14.984 3.828-22.484 3.844-7.5 11.453-7.5 7.672 0 11.5 7.5 3.844 7.5 3.844 22.484 0 15.047-3.844 22.531-3.828 7.5-11.5 7.5zm0 7.813q12.266 0 18.735-9.703 6.468-9.688 6.468-28.141 0-18.406-6.468-28.11-6.47-9.687-18.735-9.687-12.25 0-18.718 9.688-6.47 9.703-6.47 28.109 0 18.453 6.47 28.14Q19.53 74.22 31.78 74.22z" id="DejaVuSans-48"/></defs><use xlink:href="#DejaVuSans-48"/></g></g><g id="ytick_2"><g style="fill:#696969" transform="matrix(.16 0 0 -.16 87.14 475.401)" id="text_12"><defs><path d="M19.188 8.297h34.421V0H7.33v8.297q5.609 5.812 15.296 15.594 9.703 9.797 12.188 12.64 4.734 5.313 6.609 9 1.89 3.688 1.89 7.25 0 5.813-4.078 9.469-4.078 3.672-10.625 3.672-4.64 0-9.797-1.61-5.14-1.609-11-4.89v9.969Q13.767 71.78 18.938 73q5.188 1.219 9.485 1.219 11.328 0 18.062-5.672 6.735-5.656 6.735-15.125 0-4.5-1.688-8.531-1.672-4.016-6.125-9.485-1.218-1.422-7.765-8.187-6.532-6.766-18.453-18.922z" id="DejaVuSans-50"/></defs><use xlink:href="#DejaVuSans-50"/><use x="63.623" xlink:href="#DejaVuSans-48"/></g></g><g id="ytick_3"><g style="fill:#696969" transform="matrix(.16 0 0 -.16 87.14 390.683)" id="text_13"><defs><path d="M37.797 64.313 12.89 25.39h24.906zm-2.594 8.593H47.61V25.391h10.407v-8.203H47.609V0h-9.812v17.188H4.89v9.515z" id="DejaVuSans-52"/></defs><use xlink:href="#DejaVuSans-52"/><use x="63.623" xlink:href="#DejaVuSans-48"/></g></g><g id="ytick_4"><g style="fill:#696969" transform="matrix(.16 0 0 -.16 87.14 305.965)" id="text_14"><defs><path d="M33.016 40.375q-6.641 0-10.532-4.547-3.875-4.531-3.875-12.437 0-7.86 3.875-12.438 3.891-4.562 10.532-4.562 6.64 0 10.515 4.562 3.875 4.578 3.875 12.438 0 7.906-3.875 12.437-3.875 4.547-10.515 4.547zm19.578 30.922v-8.984q-3.719 1.75-7.5 2.671-3.782.938-7.5.938-9.766 0-14.922-6.594-5.14-6.594-5.875-19.922 2.875 4.25 7.219 6.516 4.359 2.266 9.578 2.266 10.984 0 17.36-6.672 6.374-6.657 6.374-18.125 0-11.235-6.64-18.032-6.641-6.78-17.672-6.78-12.657 0-19.344 9.687-6.688 9.703-6.688 28.109 0 17.281 8.204 27.563 8.203 10.28 22.015 10.28 3.719 0 7.5-.734t7.89-2.187z" id="DejaVuSans-54"/></defs><use xlink:href="#DejaVuSans-54"/><use x="63.623" xlink:href="#DejaVuSans-48"/></g></g><g id="ytick_5"><g style="fill:#696969" transform="matrix(.16 0 0 -.16 87.14 221.248)" id="text_15"><defs><path d="M31.781 34.625q-7.031 0-11.062-3.766-4.016-3.765-4.016-10.343 0-6.594 4.016-10.36Q24.75 6.391 31.78 6.391q7.032 0 11.078 3.78 4.063 3.798 4.063 10.345 0 6.578-4.031 10.343-4.016 3.766-11.11 3.766zm-9.86 4.188q-6.343 1.562-9.89 5.906Q8.5 49.079 8.5 55.329q0 8.733 6.219 13.812 6.234 5.078 17.062 5.078 10.89 0 17.094-5.078 6.203-5.079 6.203-13.813 0-6.25-3.547-10.61-3.531-4.343-9.828-5.906 7.125-1.656 11.094-6.5 3.984-4.828 3.984-11.796 0-10.61-6.468-16.282-6.47-5.656-18.532-5.656-12.047 0-18.531 5.656-6.469 5.672-6.469 16.282 0 6.968 4 11.797 4.016 4.843 11.14 6.5zM18.314 54.39q0-5.657 3.53-8.828 3.548-3.172 9.938-3.172 6.36 0 9.938 3.172 3.593 3.171 3.593 8.828 0 5.672-3.593 8.843-3.578 3.172-9.938 3.172-6.39 0-9.937-3.172-3.532-3.172-3.532-8.843z" id="DejaVuSans-56"/></defs><use xlink:href="#DejaVuSans-56"/><use x="63.623" xlink:href="#DejaVuSans-48"/></g></g><g id="ytick_6"><g style="fill:#696969" transform="matrix(.16 0 0 -.16 76.96 136.53)" id="text_16"><defs><path d="M12.406 8.297h16.11v55.625l-17.532-3.516v8.985l17.438 3.515h9.86V8.296H54.39V0H12.406z" id="DejaVuSans-49"/></defs><use xlink:href="#DejaVuSans-49"/><use x="63.623" xlink:href="#DejaVuSans-48"/><use x="127.246" xlink:href="#DejaVuSans-48"/></g></g><g style="fill:#696969" transform="matrix(0 -.2 -.2 0 68.8 379.813)" id="text_17"><defs><path d="M51.125 44H36.922l-4.11-16.313h14.313zm-7.328 27.781-5.078-20.265h14.265L58.11 71.78h7.813L60.89 51.516h15.234V44h-17.14l-4-16.313h15.53V20.22H53.079L48 0h-7.813l5.032 20.219H30.906L25.875 0h-7.86l5.079 20.219H7.719v7.468h17.187L29 44H13.281v7.516h17.625l4.985 20.265z" id="DejaVuSans-35"/><path d="M37.11 75.984V68.5h-8.594q-4.828 0-6.72-1.953-1.874-1.953-1.874-7.031v-4.828h14.797v-6.985H19.922V0H10.89v47.703H2.297v6.984h8.594V58.5q0 9.125 4.25 13.297 4.25 4.187 13.468 4.187z" id="DejaVuSans-102"/><path d="M48.781 52.594v-8.407q-3.812 2.11-7.64 3.157-3.828 1.047-7.735 1.047-8.75 0-13.593-5.547-4.829-5.532-4.829-15.547 0-10.016 4.829-15.563 4.843-5.53 13.593-5.53 3.907 0 7.735 1.046 3.828 1.047 7.64 3.156V2.094Q45.016.344 40.984-.531q-4.015-.89-8.562-.89-12.36 0-19.64 7.765-7.266 7.765-7.266 20.953 0 13.375 7.343 21.031Q20.22 56 33.016 56q4.14 0 8.093-.86 3.953-.843 7.672-2.546z" id="DejaVuSans-99"/><path d="M44.281 53.078v-8.5q-3.797 1.953-7.906 2.922-4.094.984-8.5.984-6.688 0-10.031-2.047-3.344-2.046-3.344-6.156 0-3.125 2.39-4.906 2.391-1.781 9.626-3.39l3.078-.688q9.562-2.047 13.593-5.781 4.032-3.735 4.032-10.422 0-7.625-6.032-12.078-6.03-4.438-16.578-4.438-4.39 0-9.156.86Q10.688.296 5.422 2v9.281q4.984-2.594 9.812-3.89 4.829-1.282 9.579-1.282 6.343 0 9.75 2.172 3.421 2.172 3.421 6.125 0 3.656-2.468 5.61-2.453 1.953-10.813 3.765l-3.125.735q-8.344 1.75-12.062 5.39-3.704 3.64-3.704 9.985 0 7.718 5.47 11.906Q16.75 56 26.811 56q4.97 0 9.36-.734 4.406-.72 8.11-2.188z" id="DejaVuSans-115"/></defs><use xlink:href="#DejaVuSans-35"/><use x="83.789" xlink:href="#DejaVuSans-32"/><use x="115.576" xlink:href="#DejaVuSans-111"/><use x="176.758" xlink:href="#DejaVuSans-102"/><use x="211.963" xlink:href="#DejaVuSans-32"/><use x="243.75" xlink:href="#DejaVuSans-99"/><use x="298.73" xlink:href="#DejaVuSans-97"/><use x="360.01" xlink:href="#DejaVuSans-115"/><use x="412.109" xlink:href="#DejaVuSans-101"/><use x="473.633" xlink:href="#DejaVuSans-115"/></g></g><g style="fill:#696969" transform="matrix(.24 0 0 -.24 202.252 71.76)" id="text_18"><defs><path d="M4.203 54.688h8.985l11.234-42.672 11.172 42.672h10.593l11.235-42.672 11.187 42.672h8.985L63.28 0H52.688L40.922 44.828 29.109 0H18.5z" id="DejaVuSans-119"/><path d="M64.406 67.281v-10.39q-4.984 4.64-10.625 6.922-5.64 2.296-11.984 2.296-12.5 0-19.14-7.64-6.641-7.64-6.641-22.094 0-14.406 6.64-22.047 6.64-7.64 19.14-7.64 6.345 0 11.985 2.296 5.64 2.297 10.625 6.938V5.609Q59.234 2.094 53.437.33q-5.78-1.75-12.218-1.75-16.563 0-26.094 10.124-9.516 10.14-9.516 27.672 0 17.578 9.516 27.703 9.531 10.14 26.094 10.14 6.531 0 12.312-1.734 5.797-1.734 10.875-5.203z" id="DejaVuSans-67"/><path d="M25.39 72.906h8.297L8.297-9.28H0z" id="DejaVuSans-47"/><path d="M9.813 72.906h9.859V42.094L52.39 72.906h12.703L28.906 38.922 67.672 0H54.688L19.672 35.11V0h-9.86z" id="DejaVuSans-75"/><path d="M9.422 54.688h8.984V0H9.422zm0 21.296h8.984v-11.39H9.422z" id="DejaVuSans-105"/><path d="M45.406 46.39v29.594h8.985V0h-8.985v8.203Q42.578 3.328 38.25.953q-4.313-2.375-10.375-2.375-9.906 0-16.14 7.906-6.22 7.922-6.22 20.813 0 12.89 6.22 20.797Q17.968 56 27.874 56q6.063 0 10.375-2.375 4.328-2.36 7.156-7.234zm-30.61-19.093q0-9.906 4.079-15.547 4.078-5.64 11.203-5.64 7.125 0 11.219 5.64 4.11 5.64 4.11 15.547 0 9.906-4.11 15.547-4.094 5.64-11.219 5.64-7.125 0-11.203-5.64-4.078-5.64-4.078-15.547z" id="DejaVuSans-100"/><path d="M18.313 70.219V54.688h18.5v-6.985h-18.5V18.016q0-6.688 1.828-8.594 1.828-1.906 7.453-1.906h9.218V0h-9.218q-10.407 0-14.36 3.875-3.953 3.89-3.953 14.14v29.688H2.687v6.984h6.594V70.22z" id="DejaVuSans-116"/><path d="M4.89 31.39h26.313v-8H4.891z" id="DejaVuSans-45"/><path d="M45.406 27.984q0 9.766-4.031 15.125-4.016 5.375-11.297 5.375-7.219 0-11.25-5.375-4.031-5.359-4.031-15.125 0-9.718 4.031-15.093t11.25-5.375q7.281 0 11.297 5.375 4.031 5.375 4.031 15.093zm8.985-21.203q0-13.953-6.203-20.765Q42-20.797 29.203-20.797q-4.734 0-8.937.703-4.203.703-8.157 2.172v8.735q3.954-2.141 7.813-3.157 3.86-1.031 7.86-1.031 8.843 0 13.234 4.61 4.39 4.609 4.39 13.937v4.453q-2.781-4.844-7.125-7.234Q33.938 0 27.875 0 17.828 0 11.672 7.656q-6.156 7.672-6.156 20.328 0 12.688 6.156 20.344Q17.828 56 27.875 56q6.063 0 10.406-2.39 4.344-2.391 7.125-7.22v8.297h8.985z" id="DejaVuSans-103"/></defs><use xlink:href="#DejaVuSans-78"/><use x="74.805" xlink:href="#DejaVuSans-101"/><use x="136.328" xlink:href="#DejaVuSans-119"/><use x="218.115" xlink:href="#DejaVuSans-32"/><use x="249.902" xlink:href="#DejaVuSans-67"/><use x="319.727" xlink:href="#DejaVuSans-97"/><use x="381.006" xlink:href="#DejaVuSans-115"/><use x="433.105" xlink:href="#DejaVuSans-101"/><use x="494.629" xlink:href="#DejaVuSans-115"/><use x="546.729" xlink:href="#DejaVuSans-32"/><use x="578.516" xlink:href="#DejaVuSans-47"/><use x="612.207" xlink:href="#DejaVuSans-32"/><use x="643.994" xlink:href="#DejaVuSans-49"/><use x="707.617" xlink:href="#DejaVuSans-48"/><use x="771.24" xlink:href="#DejaVuSans-48"/><use x="834.863" xlink:href="#DejaVuSans-75"/><use x="900.439" xlink:href="#DejaVuSans-32"/><use x="932.227" xlink:href="#DejaVuSans-114"/><use x="971.09" xlink:href="#DejaVuSans-101"/><use x="1032.613" xlink:href="#DejaVuSans-115"/><use x="1084.713" xlink:href="#DejaVuSans-105"/><use x="1112.496" xlink:href="#DejaVuSans-100"/><use x="1175.973" xlink:href="#DejaVuSans-101"/><use x="1237.496" xlink:href="#DejaVuSans-110"/><use x="1300.875" xlink:href="#DejaVuSans-116"/><use x="1340.084" xlink:href="#DejaVuSans-115"/><use x="1392.184" xlink:href="#DejaVuSans-32"/><use x="1423.971" xlink:href="#DejaVuSans-45"/><use x="1460.055" xlink:href="#DejaVuSans-45"/><use x="1496.139" xlink:href="#DejaVuSans-32"/><use x="1527.926" xlink:href="#DejaVuSans-49"/><use x="1591.549" xlink:href="#DejaVuSans-52"/><use x="1655.172" xlink:href="#DejaVuSans-32"/><use x="1686.959" xlink:href="#DejaVuSans-100"/><use x="1750.436" xlink:href="#DejaVuSans-97"/><use x="1811.715" xlink:href="#DejaVuSans-121"/><use x="1870.895" xlink:href="#DejaVuSans-32"/><use x="1902.682" xlink:href="#DejaVuSans-97"/><use x="1963.961" xlink:href="#DejaVuSans-118"/><use x="2023.141" xlink:href="#DejaVuSans-101"/><use x="2084.664" xlink:href="#DejaVuSans-114"/><use x="2125.777" xlink:href="#DejaVuSans-97"/><use x="2187.057" xlink:href="#DejaVuSans-103"/><use x="2250.533" xlink:href="#DejaVuSans-101"/></g><g id="legend_1"><path d="M694.75 184.5H831.2q3.2 0 3.2-3.2V88.96q0-3.2-3.2-3.2H694.75q-3.2 0-3.2 3.2v92.34q0 3.2 3.2 3.2z" style="fill:none;opacity:.8;stroke:#ccc;stroke-linejoin:miter" id="patch_5"/><path d="M697.95 98.718h32" style="fill:none;stroke:#000;stroke-linecap:round;stroke-width:1.5" id="line2d_5"/><g style="fill:#696969" transform="matrix(.16 0 0 -.16 742.75 104.317)" id="text_19"><defs><path d="M8.688 72.906h9.921V28.61q0-11.718 4.235-16.875 4.25-5.14 13.781-5.14 9.469 0 13.719 5.14 4.25 5.157 4.25 16.875v44.297H64.5V27.391q0-14.25-7.063-21.532-7.046-7.28-20.812-7.28-13.828 0-20.89 7.28-7.047 7.282-7.047 21.532z" id="DejaVuSans-85"/></defs><use xlink:href="#DejaVuSans-85"/><use x="73.193" xlink:href="#DejaVuSans-83"/></g><path d="M697.95 122.203h32" style="fill:none;stroke:#009e73;stroke-linecap:round;stroke-width:1.5" id="line2d_7"/><g style="fill:#696969" transform="matrix(.16 0 0 -.16 742.75 127.802)" id="text_20"><use xlink:href="#DejaVuSans-78"/><use x="74.805" xlink:href="#DejaVuSans-74"/></g><path d="M697.95 145.688h32" style="fill:none;stroke:#d55e00;stroke-linecap:round;stroke-width:1.5" id="line2d_9"/><g style="fill:#696969" transform="matrix(.16 0 0 -.16 742.75 151.287)" id="text_21"><defs><path d="M19.672 34.813V8.108H35.5q7.953 0 11.781 3.297 3.844 3.297 3.844 10.078 0 6.844-3.844 10.078-3.828 3.25-11.781 3.25zm0 29.984V42.828h14.61q7.218 0 10.75 2.703 3.546 2.719 3.546 8.282 0 5.515-3.547 8.25-3.531 2.734-10.75 2.734zm-9.86 8.11h25.204q11.28 0 17.375-4.688Q58.5 63.53 58.5 54.89q0-6.703-3.125-10.657-3.125-3.953-9.188-4.922 7.282-1.562 11.313-6.53 4.031-4.954 4.031-12.376 0-9.765-6.64-15.093Q48.25 0 35.984 0H9.812z" id="DejaVuSans-66"/></defs><use xlink:href="#DejaVuSans-66"/><use x="68.604" xlink:href="#DejaVuSans-101"/><use x="130.127" xlink:href="#DejaVuSans-114"/><use x="169.49" xlink:href="#DejaVuSans-103"/><use x="232.967" xlink:href="#DejaVuSans-101"/><use x="294.49" xlink:href="#DejaVuSans-110"/></g><path d="M697.95 169.173h32" style="fill:none;stroke:#0072b2;stroke-linecap:round;stroke-width:1.5" id="line2d_11"/><g style="fill:#696969" transform="matrix(.16 0 0 -.16 742.75 174.773)" id="text_22"><defs><path d="M44.39 34.188q3.172-1.079 6.172-4.594 3-3.516 6.032-9.672L66.609 0H56l-9.313 18.703q-3.624 7.328-7.015 9.719-3.39 2.39-9.25 2.39h-10.75V0h-9.86v72.906h22.266q12.5 0 18.656-5.234 6.157-5.219 6.157-15.766 0-6.89-3.203-11.437-3.204-4.532-9.297-6.282zM19.673 64.797V38.922h12.406q7.125 0 10.766 3.297 3.64 3.297 3.64 9.687 0 6.39-3.64 9.64-3.64 3.25-10.766 3.25z" id="DejaVuSans-82"/><path d="M54.89 33.016V0h-8.984v32.719q0 7.765-3.031 11.61-3.031 3.858-9.078 3.858-7.281 0-11.484-4.64-4.204-4.625-4.204-12.64V0H9.08v75.984h9.03V46.188q3.235 4.937 7.594 7.374Q30.078 56 35.797 56q9.422 0 14.25-5.828 4.844-5.828 4.844-17.156z" id="DejaVuSans-104"/></defs><use xlink:href="#DejaVuSans-82"/><use x="64.982" xlink:href="#DejaVuSans-117"/><use x="128.361" xlink:href="#DejaVuSans-116"/><use x="167.57" xlink:href="#DejaVuSans-104"/><use x="230.949" xlink:href="#DejaVuSans-101"/><use x="292.473" xlink:href="#DejaVuSans-114"/><use x="333.586" xlink:href="#DejaVuSans-102"/><use x="368.791" xlink:href="#DejaVuSans-111"/><use x="429.973" xlink:href="#DejaVuSans-114"/><use x="469.336" xlink:href="#DejaVuSans-100"/></g></g></g></g><defs><clipPath id="p7ab11a17c0"><path d="M117 77.76h725.4v498.96H117z"/></clipPath></defs></svg>