<svg height="864" viewBox="0 0 936 648" width="1248" xmlns="http://www.w3.org/2000/svg" xmlns:xlink="http://www.w3.org/1999/xlink"><defs><style>*{stroke-linecap:butt;stroke-linejoin:round}</style></defs><g id="figure_1"><path d="M0 648h936V0H0z" style="fill:#fff" id="patch_1"/><g id="axes_1"><path d="M117 576.72h725.4V77.76H117z" style="fill:none" id="patch_2"/><path clip-path="url(#pc1ae50ca77)" d="m149.973 328.59 45.906-.123 3.53-.199 1.766-.423 1.766-.72 2.648-1.628 1.766-1.133.883-.494.883-.348 1.765-.327.883-.165 1.766-.094.882-.089 1.766.253.883.316 1.765.989.883.693.883 1.003 2.648 2.159 1.766.992.883.36 1.765.203.883-.11.883-.297 1.766-.285.882-.4 1.766-.934 2.649.286.882.213.883.437.883.608.883.416 4.414-.12 1.765.26.883.268 1.766.172.883.03 1.765-.436.883-.254.883-.42 1.765-.45.883-.179 3.531.142 2.649.737.883-.038.882-.184 1.766-.231 2.648-.866.883-.184.883-.045.883.149 1.765.625.883.073.883-.132 1.766.275 1.765-.46.883-.44.883-.257.883-.103 4.414-2.01.883-.405 2.648-1.52.883-.304 2.648-.36.883-.094.883.058.883.18 5.296 2.046.883-.08 1.766-.802.883-.394.882-.168.883-.349.883-.1 1.766 1.122 4.414 3.923.882-.08 1.766.69.883.028.883.199 1.765.069.883.684 1.766.514 3.53 2.256.884-.156 1.765-.706 3.532-2.555.882-.108.883.223.883.43 2.648 1.844 1.766.75.883.15.883-.292 3.53-2.41 1.766-.947 1.766-.2.883.202.883.449 1.765-.49.883.207.883.383.883.88.882.2.883-.15.883.616.883.35.883-.193.882-.958.883-1.555.883-.977 1.766-1.351.882-.377 1.766-.37.883.185.883.506.882.354.883.095.883-.082.883.125.883 1.212.883.884.882-.204.883.014 1.766.253.883-.033 1.765-2.408.883-.106 1.766-1.103.882-.166.883-.345 1.766 1.753.883-.264.882.164 1.766-.273.883.301 1.765-1.66.883.25.883.053.883-.133.883-.9.882-1.074 1.766.004 1.766-1.281.882-.177 1.766 1.22 2.648-1.284.883-.761.883-1.077 1.766-3.383.882-1.021.883-1.49.883-1.217.883-.65.883-.878.882-.228.883.195.883-.072.883.828.883.991.883.766 3.53 6.323 1.766 1.78 1.766 7.973 1.766 2.81 1.765 2.255.883-.078 1.766-13.79.882-2.998.883-3.703 1.766-5.372.883-.87.882 3.51.883 2.687.883.927.883 2.44.883 2.056.882 2.973.883 1.46.883-.371.883 2.36.883 3.016.882 1.03.883.396.883-.62.883.87.883 3.176.882 5.705.883 2.709.883-.42.883 1.177.883.393.882-.615.883-3.21 1.766-16.916.883-4.153.882-4.909.883-3.53.883-1.94.883-1.21.883-3.822.883.232.882 5.063 1.766 8.314.883 2.977.883 4.618.882 9.782.883 7.21.883 1.759 1.766 6.49.882 1.772.883.816.883-.141.883-.902.883-.425 1.765-6.61.883-.669.883-1.247.883-1.48 1.765-1.484.883.181.883.94.883.158 1.765 1.493 1.766.266.883 1.438.882.567 2.649-2.685 2.648-1.27.883.058 1.766.837.882.18.883-.438.883-.651.883-1.824.883-2.606 2.648-6.382.883-.958.883-.392.883.085 2.648 2.896.883.951.883.385.882.18.883-1.093.883-1.706.883-.375.883-.157.882-.54 1.766-.577 1.766 4.535 1.765-.696.883-.03 1.766-.645 2.648-3.067 1.766-1.888 1.765-1.103.883-1.046.883-.699 1.765 2.03 2.649 2.05.883.904.882.512 2.649-1.213 1.765-1.032 2.649-.852.883.402 2.648 2.672.883.474.883.92.883 1.528.882.533.883.387.883.124.883-.201.883.722.882.453.883-.409.883-.14 1.766-.485.882-.05.883-.943.883-.763 2.648.476 1.766.638.883.621.883.385 3.53-.722 2.65-.728 1.765-.201.883.161.882.372.883.098 1.766-.377.883-.079.882-.264 1.766-.67.883.005.883.664.882.379.883-.117.883.242.883 1.46.883 1.072.883-.356.882-1.268.883-.834.883-.071.883-.48 1.765-5.693.883-.027.883.525.883.392.883.128.882.321 1.766 2.839.883.06.883-.054 1.765-.557 1.766-.787.883-.202 3.53-.316 1.766-3.246.883-.039.883.103.883.38.883.074.882-.664 1.766 3.541.883-.513.883-.333 1.765-2.95 1.766.185 1.765-.238.883-.057 1.766.318.883-.55 1.765-3.638.883-.59.883-.186.883-.367.883-1.146.882-.932.883-.217.883-.388.883-.249.883-.103.882-.431.883-.256 2.649-.034 1.765-.604.883-.114.883 1.037.883.51.882.035.883 1.4.883 1.006.883.326.883-1.056.882-.28.883 2.05.883.799.883-.08.883-.483.882-.35.883 2.735.883 1.62.883-.673.883-.137.882.287.883 1.272.883.607 1.766-.777.882-1.217.883.204.883 1.31 1.766 1.613.882 6.97.883 2.79.883-2.055.883 1.925.883.121 1.765-1.166.883-12.988.883-3.925.883 8.882.883-.073 1.765.406.883.268.883 8.984.883 5.115.882-3.758.883.643 1.766 1.84.883.545.882-1.844.883-2.235.883-.315.883-.613.883-.901.882-.704.883-.21.883.366.883.219 1.765-1.144 1.766-.131.883-.195.883.685.882-.026.883-.349.883.722.883.23 1.765-.212.883-1.583.883-.21.883 1.33.883-.284.882-.402.883-.102.883.131.883.61.883-.54.882-1.91.883-1.257.883-.77.883-.513.883-.326.882-1.359.883-.683.883 1.023.883.802.883.184 1.765-.287.883.504.883.02.883-1.3.883-.273.882-.615.883-1.974.883-.811 1.766-1.296.882-.082.883-2.095.883-.542.883 3.118.883 1.399.882.181 1.766 1.03.883 4.332.883 5.894.882 1.75.883.36.883-1.026.883-1.971.883-.903.882-6.461.883-11.47.883-7.057.883-2.18.883 1.87.882 2.83.883.69.883 4.265.883 6.84.883 4.18.882 1.578.883-.497.883-.722.883.493.883-.788.882-.999.883-.783.883-2.108.883-4.14 1.765-10.8.883-6.368.883-3.377.883 1.058.883-1.257.883-7.122 1.765-16.856.883-11.174.883-14.442.883-11.848.882-3.208.883-6.887.883-17.624.883-9.108.883 5.655.882-1.455.883-11.994.883-3.669.883 4.13 1.765 43.086.883 3.3.883 15.558.883 23.403.883 10.098.882 36.718.883 19.672.883-10.275.883 13.998.883 11.963 1.765 13.734.883-28.303.883 1.09.883 38.973 1.765 16.02.883 5.498.883-1.226.883 20.791.882 7.625.883-8.294.883 6.222.883-1.115.883-.037.882-.618.883-12.154h0" style="fill:none;stroke:#000;stroke-linecap:round;stroke-width:1.5" id="line2d_1"/><path clip-path="url(#pc1ae50ca77)" d="m149.973 328.589 45.023-.08 2.648-.205 1.766-.451 2.648-1.626.883-1.097 2.648-4.522.883-2.708 1.766-7.837 1.765-6.136.883-2.324.883-3.268.883-1.138.883.874.882-.758.883.586.883 3.027.883 2.312.883 3.955 1.765 9.117.883 6.76.883 4.032.883 2.358.882 1.825.883.747.883-.196.883-.92.883-.462.882.095.883-1.763.883-.058.883-.61.883-1.457.882 1.652 1.766-1.053 1.766 5.998.883 3.08.882 4.647.883.355.883-.119.883 1.538.883-.721.882-1.542.883-.627.883-1.248.883-.051 1.765 2.77 2.649 2.135.883-.799.882-.17.883-.652 2.649-6.783.882-3.265.883-1.874.883-1.417.883-.37.883.41.882 1.248 1.766 3.686.883 1.075.883.094.882-1.085.883-1.376.883-.337.883-.664.883-.52.882.781.883 1.002.883.701.883 1.115 1.765-.017.883-.1.883-1.307.883-.591.883.17 1.765-1.497.883-.452.883-.062.883.444 1.765-1.112.883-.048 1.766-.383.883-.15 1.765-4.453 1.766-.041.883.314.882.183.883-.358 1.766 8.002 1.765-.19.883-.428.883-.116.883.375 1.765-3.466 1.766.048.883.23.883-.178 1.765-.877.883.106 4.414 2.3.883.198.883-.882.882-1.227 1.766-2.9.883-.715.883-.518.882-.105.883.276.883.677 1.766 2.715.882.915.883.592.883-.03 1.766.917 2.648-1.341 1.766-.875.883-.774.882-.535.883.526.883.349.883.167.883.528.882 1.284.883 1.576.883.177.883-.957.883-.386.882.068.883-.156.883-.961.883-1.319.883.099.882.502 2.649-.83.883-.022.882.134.883-.213.883-.039 1.766.577 1.765.247.883.108 3.531-.49.883-.298 1.766-.269.882.148.883-.07.883-.267.883.134 1.765.48.883.121 2.649-1.055.883-.176 1.765-.783.883-.22.883-.047.883.486.882.631.883.086.883.422.883-.16.883-.673.882.412.883.098 1.766-.468.883-.968.882.454.883 1.413.883.032.883-.655.883-1.381.882-.482.883.828.883-.212.883-.96.883-1.417.882-.28.883 1.625.883.048.883-1.434.883-.885.882-1.06 1.766 1.882.883-1.054 1.765.835.883-.187.883.857.883-1.945.883-2.422.882-.23.883-2.747.883-1.928.883-1.148.883-2.574.882-.43 1.766-3.909.883 2.65.883 1.587.883.561 1.765 4.378.883 4.665.883 2.247.883-1.425.882 1.168.883 1.641.883.189.883 1.119.883.88.882 1.558.883 1.983 1.766-.7.883-1.338.882-4.14.883-5.588.883-3.66.883-1.547.883-.54.882.092.883 4.241 2.649 14.32.882 1.8.883 1.546.883.135.883-1.266.883.838.882.08.883-.041.883.849.883-.02.883.968.882-2.65.883-3.293.883 2.397.883 3.175.883.455.882.928.883-.883.883.926.883-1.164.883-7.013 1.765-124.98.883-5.67 1.766-7.46.883-1.741.882-1.204 1.766 227.705.883 4.027.883 2.229 1.765 12.383.883 6.881 1.766-104.171.882 3.259.883 7.265.883 3.758.883-1.249.883-3.806.882-2.872 1.766-4.51.883-4.215.883-6.757.882-1.101.883 4.917.883 2.419.883 3.196.883 4.326.882 3.59.883 5.576.883 2.889.883-2.537.883-.834.882-2.05 1.766-15.42.883-3.662.883-1.51 1.765 5.42.883.632.883 3.194.883 3.64.882 1.112.883.375.883-2.256.883-5.225.883-2.188.883 1.497.882.06.883-2.597.883-4.325.883-3.124.883.386.882.255.883-2.576.883-1.048.883 1.988.883 3.162.882 2.254.883 1.782.883.673.883-.257.883-.61.882-2.008 1.766-2.926.883-2.385.883-.124.882.941.883-.581.883.362.883-.659.883-.041.882 1.243.883-1.553.883-.88.883 2.3.883.184.882.302.883-.064.883-1.757.883 1.039.883 1.457.882-2.35.883.101.883 2.676.883 2.313.883 3.835.882 2.956.883.273.883 2.301.883 2.619.883-.13.882.398.883-.86.883-2.182.883-.18.883.461.883-1.645.882-2.009.883-1.596.883-.283.883 1.537.883.91.882-.374.883 2.384.883 3.794.883 3.18.883 14.374.882 12.455.883 1.04.883 1.868.883-.323.883-.611.882-1.073 1.766-50.92.883-1.635.883-2.299.882-.287.883-.406.883.128 1.766 25.308.882 2.117.883 3.103.883-.109.883-1.401 2.648-6.046.883-3 .883-3.702.883-2.481.882-.842.883.193.883.403.883.928 1.765.776.883 1.205.883.676.883-.069.883-.301.882-.434 1.766.08.883-.555.883-.758.883-.29.882.078.883-.218 1.766-.603.883-.152 1.765.516 1.766-.09.883-.243.882-.027.883.182 1.766-.102 2.648.647.883-.028 1.766-.463 2.648-.487.883.057 1.765.423 1.766.377 1.766.284.882-.119 4.414-2.01.883-.555.883-.322 1.766-.008 1.765-.256.883.069.883-.064 1.765-.92 1.766-1.064 1.766-.276.883.056.882.29.883.064 1.766.439.883-.206.882-.37 1.766-1.124 2.648-.26.883.066.883.551.883.685.883.035.882-.206.883-.32.883-1.114.883-.632 1.765-.783 1.766 1.512.883-.449.883.989.882 1.614.883.062.883.33 1.766-.709.882 1.875.883 1.498.883-.482 1.766.49.882.037.883-.225 1.766.028 1.765-.03.883 1.764.883 1.187.883-.267.883-1.147.882-2.039.883-.238.883.688.883-3.096.883-1.21.883 1.61.882.166.883 1.585.883.224.883-.49.883 1.273.882.306.883.184.883 1.545.883.435 1.765 3.301 1.766 2.113 1.766-.84.882.398.883-1.463.883-2.01.883-.698.883-.292.882.152.883-.501.883-1.129.883.205.883.883.882.172.883-.324.883.15 2.648 3.066.883.487.883.348.883 1.106.883.329.882-1.265.883-1.036.883-.584.883-.939.883-1.19 1.765-3.503.883.067.883.38.883-1.114.882-.283 1.766 1.73.883 1.344.883.568.883-.667 1.765 1.422.883-.783.883-.995 1.765-2.668.883-.497.883-1.336.883-1.832.883-.599.882.005 2.649-1.095.883.65.882 1.429.883-.353.883-.684.883.383.883.931.882 1.523.883.48.883-1.049.883-.269.883-.51.882-2.318.883-4.328.883-5.99.883-4.739.883-1.673 1.765-.375.883.434.883 2.107 1.765 8.407.883 2.064 1.766 1.544.883-.133.882-1.644.883-4.51 1.766-15.08.883-8.516.882-11.673.883-18.37 1.766-44.27.883-14.36.883-2.53.882-1.738.883-12.216.883-16.383.883-11.147.883-5.118.882-7.776.883-17.627.883-20.192.883-4.611.883 28.15.882 35.615 2.649 78.813.883 34.753.882 51.516.883 36.2.883 30.584.883 43.009 1.765 73.229.883 30.112.883 10.009.883 1.61.883-1.33.882-14.279 1.766-37.132 1.766-42.834 2.648-52.673.883-4.298.883-.825.882-5.447.883-4.487.883-3.783.883 3.317.883 4.988.882-9.247.883-10.78h0" style="fill:none;stroke:#009e73;stroke-linecap:round;stroke-width:1.5" id="line2d_2"/><path clip-path="url(#pc1ae50ca77)" d="m149.973 328.589 41.492-.102 3.53-.124 2.65-.622.882-.52.883-.69 1.765-4.546.883-.34.883-.972.883-2.137.883-1.617 1.765-1.775.883-3.098.883-5.88.883-5.078.882-2.035.883-3.438.883-7.508.883-4.444.883-2.363.882-5.225.883-1.22.883-.69.883-1.244.883 9.068 1.765 23.396.883 18.896.883 12.687.883 9.385.882 14.814.883 2.894.883-6.253.883-3.155 1.765-8.616.883-5.541.883-8.809.883-1.979.883 5.236.882 3.38.883-2.26.883 1.062.883 6.785.883 5.722.883 2.85.882.497.883-.51.883 2.94.883.826 1.765-9.543.883-2.59.883-1.402.883-1.108.883-1.764.882-1.267.883.294.883 1.154.883.135 1.765-1.142.883-1.583 1.766-1.741.883-1.267.882-.599 1.766-5.27.883.589 1.765-.792.883.011.883-1.424.883-.702.883.283.882-.554.883.984.883 1.832 1.766 2.34.882 2.873.883 2.012.883-.712 3.531-4.523.883-2.16.883-1.153.883.328.882-.294.883-.475.883-.25.883 1.177.883 1.911.883.294.882.464.883.655.883-.01.883.52.883-.329 1.765-9.487.883-1.13.883-.894.883-.69 1.765-.723.883 7.067.883 8.322.883.916.882.498.883.746.883.317.883.034 1.765-8.311.883-.09 1.766 1.062.883-.034.882.588.883 1.402.883.995.883.396.883-.215 2.648-2.08 1.766-2.205 1.765-1.776.883-.248 1.766-.25.882.566 1.766.147 3.531 2.951.883-.067.883.497.883.26.883-.746.882-.52 1.766-.192.883-.272.883-1.47.882-1.108.883.158 1.766-1.39.883.373.882 1.537.883 3.257.883 2.522.883 1.47.883 2.307.882.87.883-1.142 1.766-5.303 1.765-3.03.883-1.866.883-.882.883.531.883 1.142 1.765.973.883.972.883.712.883 1.03.882.486.883.113.883.35 1.766-1.097.882-.203.883-.328.883-.136 1.766-1.006 1.765-.113.883.079 1.766-1.572 1.765 1.606.883.18.883-.203.883-.362 1.765 1.357.883-.972.883-1.154.883-.599h.883l.882.204 1.766-.973.883.249.883.407.882.215.883-.17 1.766-.644.883-.373.882-.113.883.101.883.441.883.159.883-.679h.882l.883.17.883-.192.883.09.883-1.086.882-.814.883.656.883-.045.883.362.883.588.882-1.55.883-.124.883.86.883-.419.883.034.882-1.447.883-.95.883 2.035.883-1.153.883-2.578.882.407.883-.6.883-.904.883-3.585.883-5.314 1.765.214.883-2.34.883-.328.883.35.883 2.986.882 4.738.883 1.662.883 2.114.883.362.883-.147.882 3.856.883 2.895.883-1.787.883.803 1.765 4.693.883 1.572.883-3.732.883-2.996.883.339.882-4.467.883-5.45.883-1.12.883.555 1.765 8.333.883 6.287.883 7.701.883 5.688.883 2.284.882-.667 1.766-6.807.883-5.157.883-2.748.882.215.883.362.883 1.911.883.837.883-.43.882-.983.883-.679.883.226.883-.068.883-1.402 1.765 2.397.883.328.883-2.012.883-4.614 1.765-105.072.883-6.728.883-3.37.883-2.521 1.765-4.128 1.766 200.069.883 7.61.883 1.21.882 3.856 1.766 11.115.883-43.942.883-51.823.882-1.29.883 7.113.883 5.145.883-.361 1.765-4.705.883.08.883.802.883-3.742.883-6.536.882-.95.883 3.584.883 1.357.883 2.081 1.765 6.853.883 2.046.883-.237.883-1.923.883.374.882-.69 1.766-14.203.883.814 1.765 4.4.883 2.227.883-1.877.883 1.424.883 3.642.882-.419.883-.554.883-1.583.883-5.349.883-.463.883 2.34.882-2.532 1.766-9.85.883-2.25.883.34.882-.057.883-2.284.883 1.051.883 5.507.883 6.49.882 2.658.883 3.528.883 2.827.883 1.063.883.011.882-2.996.883-4.998.883-4.116.883-3.053.883-1.685 1.765-.69.883.543.883-.588.883 1.425.882 1.21.883-.464.883.667.883 2.375 1.765-.679.883-1.3.883-1.934.883.419.883-1.73.882-5.01.883 1.56.883 5.87.883 5.02.883 4.263.882 2.703.883 4.127.883 5.145.883 2.307.883-.113.882-.475.883-.633.883-.995.883-.441.883.407.883-2.352.882-2.963.883-.916 1.766.69.883-.577.882-1.085.883 2.035.883 2.906 1.766 1.674.882.893.883.724.883 1.176.883-.803.883-.373.882.588.883-2.93.883-2.498.883-13.66.883-16.849.882-2.747.883-1.142.883-1.81 1.766 1.798.882 25.567.883 32.17.883 5.191.883-1.278.883-.554.882-.712.883-.86.883-13.365.883-16.94.883-3.855.882.633.883.803.883.316.883-.17 1.765-1.763.883.034.883-.215.883-.633.883-.023.882.52.883.78.883.611.883-.068 1.766-1.413 1.765-1.018 1.766-1.436.883-.464.882.407.883.566.883.045 1.766-.34 1.765.623 1.766-.102.883.283.882.43.883.112 1.766-.938.883-.226 2.648-.939.883.057.883.588.882.361.883.08 3.531 1.617.883.124.883-.011.883.113 1.765-1.063.883-.656.883-1.086.883-.735.883-.588.882-.735.883-.056 1.766.283.883.497.882-.034.883-.543.883-.327.883-.453 2.648-2.013.883-.418 1.766 1.04.883.023.882.26.883.113.883.317.883.893 1.765.452 1.766 1.945.883.283.883-.69.882-1.345.883-.566.883-1.063.883-.486.883.158.882-.067.883.859.883 1.606.883-.17.883.226.882-.724.883-2.442 1.766 1.199.883-.803 1.765 2.77.883.464.883 1.685 1.765-.25.883.702.883.509 1.766 1.504.882-.034.883 1.232.883.25.883-1.37 1.765-4.364.883-.384.883.746.883-2.454.883-1.13.883 2.227 1.765 3.505h.883l.883-.848.883 1.9.882 1.21.883-1.086 1.766-1.888 1.765 1.176.883-.577.883-.147.883.272.883 1.029.882 1.3.883.317.883.644.883.306.883-.068.882.644.883.498.883-.125 1.766-1.571.882.294.883.09.883-.396 1.766-1.673.882.588.883.328.883-.125.883 1.142.883.894.882.079.883.791.883.34.883-.848.883-1.708.882-2.646.883-2.273 2.649-3.426.882.678.883 2.285.883 1.65.883 1.391.883 1.697.883.882.882.622.883-.227.883-1.289.883-.43.883-.576.882-1.617.883-.995 1.766-3.087.883-.961.882-1.923.883-1.526.883-.61.883-1.064.883.52.882 1.504.883.464 1.766 3.143.883.962.882 1.922.883 1.04.883-.565.883-.35.883-1.403 1.765-4.953.883-3.584.883-2.714 1.765-2.782.883-.056.883.124.883-.113.883 1.39 1.765 1.12.883 2.443.883-.532 1.765-4.636.883-6.287 1.766-13.999.883-9.883.882-12.914.883-18.25 1.766-51.236.883-16.962 1.765-15.355.883-18.229.883-24.809.883-9.985 1.765 10.155.883-2.59.883-8.695.883 10.765 1.765 98.456.883 24.968.883 18.002.883 8.48.883 29.955.882 47.176 1.766 47.956.883 42.834 1.765 75.231.883 27.84.883 5.28.883-3.754.883-10.007 3.53-70.402.884-15.978.882-8.006.883-4.365.883-12.02.883-2.092.883.362 1.765-19.483.883-11.964.883-9.114.883.068.882-10.28.883-13.354h0" style="fill:none;stroke:#d55e00;stroke-linecap:round;stroke-width:1.5" id="line2d_3"/><path clip-path="url(#pc1ae50ca77)" d="M149.973 328.589h49.437l1.765-2.304h.883l1.766-1.152.883-1.728.882-3.455.883-2.88.883-1.727.883-2.304.883-1.728.882-2.88.883-4.031.883-1.728.883 4.032.883 2.303.882-8.063.883-10.366.883-.576 1.766 17.854.882-2.304.883-4.608.883 17.854.883 27.069.883 8.638 1.765-8.063.883 4.608.883 9.215.883-6.911.882-14.974.883-4.032.883 2.304h.883l.883-2.88.882-5.183.883-1.152.883 1.152.883-.576.883.576 1.765 6.91.883 4.608.883 2.304.883-1.152.883 2.88.882 1.152.883-2.304h.883l.883-.576.883 1.152.882 2.304.883-5.184.883-7.487 1.766-8.063.882-3.455.883-2.88.883-1.728.883 4.608.883 8.639.882 5.183.883 2.304.883 1.727.883.576h.883l.882-2.303.883-4.032.883-2.304.883-1.151.883-2.304.882-1.728h.883l1.766-3.455h1.765l1.766 4.607h.883l1.765 6.911 1.766-1.152 1.766-3.455h.882l1.766-3.456 3.531 4.607h.883l.883-1.151 1.766-1.152 1.765-3.456.883-1.152h1.766l.882-.576h.883l.883 1.728.883 2.304.883 1.152h1.765l.883-.576h.883l.883-.576.882-2.88.883-1.727h.883l.883 3.455.883 4.032h.882l.883.575.883 3.456.883 2.304h.883l.882-1.152.883-2.304 1.766-3.455.883-2.304.882-1.152h.883l.883-1.728.883 1.152.883 4.032.882 1.727.883.576h1.766l.883.576.882-1.152.883-2.88.883-.575.883.576h1.766l2.648 1.728h.883l.883-1.152.882-.576h.883l1.766-2.304.883.576h1.765l.883.576h.883l.883 1.152h.882l.883-2.304.883-.576.883 1.152.883.576h.882l.883-1.152 1.766 2.304.883-.576h.882l.883-.576h.883l.883 1.152.883-1.728.882 1.152.883 3.455.883-.576h1.766l.882-1.151.883 2.303h.883l.883-4.031.883-.576h1.765l.883-.576.883-2.304h.883l.882 2.88.883 1.152h1.766l1.766 5.759h.882l1.766-1.152h1.766l.882-2.88.883-3.455.883-4.031.883-8.64.883-6.334.882-1.152h.883l.883 1.152.883-1.152.883 2.88.882 12.67.883 6.91.883-2.303.883-3.456.883-1.727.882 6.335.883 2.304.883-3.456.883 5.183.883 8.063.882 6.911.883 1.152.883-8.063 1.766-9.215.882-11.518.883-7.487.883-3.456.883-2.88.883 2.88 1.765 6.912.883 6.91.883 2.88h.883l.882-.576.883-4.031.883 1.728.883-4.032.883-10.366.882-1.152h.883l.883 5.759.883 2.88.883-13.823.883 2.304.882 10.367.883-5.76.883-2.88.883-.575.883 6.335.882 17.278.883 9.79.883 11.519.883 6.335.883-5.76.882-1.15.883-2.88.883-8.063.883-20.158.883-35.707.882-8.063.883 13.822.883 1.728.883-1.728.883 2.88.882 14.398.883 30.524.883 23.613.883 1.152.883-3.456.882 1.152h.883l.883 6.91.883-1.727.883-19.581 2.648-18.43.883-10.942.883-23.613.882 1.152.883 14.398h.883l1.766 11.518 1.765 31.676 1.766-20.157h1.765l.883-8.64.883-10.366.883-.576.883-5.759.883-12.67.882-5.76.883 8.063.883 19.582.883 8.063.883 1.727.882 13.247.883 19.581.883 11.519.883 6.335.883-3.456.882-6.335.883 4.032.883 3.455.883-2.88.883-5.759.882-30.524.883-14.974.883 14.974.883-5.183 1.765-30.524.883-2.88.883 35.708.883 28.22.883-21.31.882-13.821.883 12.67.883 18.43.883 5.759.883-27.069.882-33.403.883 17.277.883 25.917.883-1.728.883-10.942.882-6.911 1.766 36.859 1.766-23.613.882-.576.883 6.911.883 4.031.883-15.55.883-2.88.883 9.216.882-6.911.883-9.791.883-6.335.883 4.031.883 3.456.882-11.519.883-8.639 1.766 20.734.883-.576.882-4.032.883 4.032.883 13.822.883 5.76.883-12.095.882-4.032.883 8.063h.883l.883-6.335.883-11.518.882-4.032.883 13.822.883 7.487.883-5.183h.883l.882 4.607.883 6.911.883 2.88.883-8.639.883-10.366.882-1.152.883-5.184.883 2.88.883 6.335h.883l.882-1.152.883-2.88h.883l.883 10.367.883-.576.882-9.79.883-4.032 1.766 5.76v14.398l.883 2.88.882-5.76.883 2.304.883 9.214.883 6.336.883-2.304.883-9.215.882-4.031.883-1.728h.883l.883.576.883-1.728.882 2.304 1.766 9.79.883 5.184.883-5.76.882-9.214.883-1.152.883 1.152.883-3.456.883-5.76.882-3.455.883 4.032.883 6.335.883-1.152.883-4.031.882 5.759.883 7.487.883 1.152.883-3.456.883-4.031.882 4.031.883 4.608.883-2.88.883-3.455.883-.576.882 3.455.883 2.88.883-2.88.883-4.031.883-2.88.882-1.152h.883l1.766-4.607 1.765-2.304h4.414l.883.576.883 2.304.883 1.727h2.648l1.766-3.455 1.766-2.304h2.648l.883 3.456.883 4.031.882.576h3.532l.882-1.728.883-2.303.883-.576 1.766-4.608h3.53l.884-.576.882 4.032.883 4.607h3.531l.883.576.883-2.303.883-2.88h2.648l.883-.576.883-1.152.883.576.882 1.152h2.649l.883 1.152.882 1.728.883-3.456.883-4.031h.883l1.766-25.341.882-2.304.883-4.031.883 1.152.883 4.031h.883l1.765 40.89.883 1.153.883 6.335.883 7.487.882 1.727h.883l1.766-19.005.883-2.304 1.765-16.126.883-2.88h.883l.883 1.729.882 2.303.883 6.335.883 9.215.883 5.184.883 1.727h.882l.883 4.608.883 2.88 1.766-10.367.882-2.88.883-1.152h.883l1.766-15.55.882-2.88h.883l.883-.575.883-2.88h.883l.882 6.911.883 5.76.883 2.303.883 2.88.883 2.303.882 2.88h.883l.883-9.215.883-1.152.883 8.64 1.765-10.367.883.576h.883l.883 2.88.883-1.153.882-5.759.883 4.607.883 6.336h1.766l.882 7.487.883 5.183.883-1.152h.883l.883-2.304.882-1.151h.883l.883-5.184.883-3.455h1.765l.883-1.728.883-3.456h.883l.883 2.304.882-.576.883.576h.883l.883 5.76.883 9.214h.882l.883-6.911.883-2.88.883 2.304.883-1.728 1.765-10.366h.883l1.766 15.55.882-.576.883 2.303.883 2.88.883.576h.883l.882-6.911.883-9.79.883-3.456.883-.576 1.766-2.304h.882l.883 5.183.883 8.063.883-2.303.883-6.336.882-3.455.883-2.304h.883l.883-2.304.883-4.607 1.765 14.398.883 3.456.883 5.183h.883l1.765-8.639.883-6.335.883-3.456.883 2.88.882-.576h.883l.883 2.304.883 1.728.883 5.183.882-.576.883-13.246.883-6.911h.883l1.765 13.246.883-9.215.883-5.183.883 8.063.883 4.607h.882l1.766-12.67.883 2.88.883-3.456.882-4.032.883-21.309.883-30.524 1.766-9.214.882-19.006 1.766-19.581.883 34.555.883 55.865.883 8.063.882-5.76.883 5.76.883 9.214.883-8.063.883-59.32.882-88.116.883-50.105.883 8.638.883 23.037.883-10.942.882 3.455.883 36.284 1.766 130.734.883 15.55h.882l1.766 97.331 1.766 102.515.882-2.88.883 1.728.883 25.917.883 12.67.883-4.607.882-36.86.883-42.042.883 4.607.883 6.335.883-20.733.882-31.1.883-21.885.883 6.911.883 1.728.883-21.885.882-16.702.883-9.215.883 3.456.883 2.88.883-8.063.882 2.88.883 4.607h0" style="fill:none;stroke:#0072b2;stroke-linecap:round;stroke-width:1.5" id="line2d_4"/><path clip-path="url(#pc1ae50ca77)" d="M117 328.589h725.4" style="fill:none;stroke:red;stroke-dasharray:1.5,2.475;stroke-dashoffset:0;stroke-width:1.5" id="line2d_5"/><path d="M117 576.72V77.76" style="fill:none;stroke:#d3d3d3;stroke-linecap:square;stroke-linejoin:miter;stroke-width:1.25" id="patch_3"/><path d="M117 576.72h725.4" style="fill:none;stroke:#d3d3d3;stroke-linecap:square;stroke-linejoin:miter;stroke-width:1.25" id="patch_4"/><g id="matplotlib.axis_1"><g id="xtick_1"><g style="fill:#696969" transform="matrix(.16 0 0 -.16 119.984 598.378)" id="text_1"><defs><path d="M9.813 72.906h9.859V5.078q0-13.187-5-19.14-5-5.954-16.094-5.954h-3.75v8.297h3.078q6.531 0 9.219 3.672Q9.813-4.39 9.813 5.078z" id="DejaVuSans-74"/><path d="M34.281 27.484q-10.89 0-15.093-2.484-4.204-2.484-4.204-8.5 0-4.781 3.157-7.594 3.156-2.797 8.562-2.797 7.485 0 12 5.297 4.516 5.297 4.516 14.078v2zm17.922 3.72V0H43.22v8.297Q40.14 3.328 35.547.953q-4.594-2.375-11.234-2.375-8.391 0-13.36 4.719Q6 8.016 6 15.922q0 9.219 6.172 13.906 6.187 4.688 18.437 4.688h12.61v.89q0 6.203-4.078 9.594-4.078 3.39-11.453 3.39-4.688 0-9.141-1.124-4.438-1.125-8.531-3.375v8.312q4.921 1.906 9.562 2.844 4.64.953 9.031.953 11.875 0 17.735-6.156 5.86-6.14 5.86-18.64z" id="DejaVuSans-97"/><path d="M54.89 33.016V0h-8.984v32.719q0 7.765-3.031 11.61-3.031 3.858-9.078 3.858-7.281 0-11.484-4.64-4.204-4.625-4.204-12.64V0H9.08v54.688h9.03v-8.5q3.235 4.937 7.594 7.374Q30.078 56 35.797 56q9.422 0 14.25-5.828 4.844-5.828 4.844-17.156z" id="DejaVuSans-110"/></defs><use xlink:href="#DejaVuSans-74"/><use x="29.492" xlink:href="#DejaVuSans-97"/><use x="90.771" xlink:href="#DejaVuSans-110"/></g></g><g id="xtick_2"><g style="fill:#696969" transform="matrix(.16 0 0 -.16 198.812 598.378)" id="text_2"><defs><path d="M34.188 63.188 20.797 26.906h26.812zm-5.579 9.718h11.188L67.578 0h-10.25l-6.64 18.703h-32.86L11.188 0H.78z" id="DejaVuSans-65"/><path d="M18.11 8.203v-29H9.077v75.484h9.031v-8.296q2.844 4.875 7.157 7.234Q29.594 56 35.594 56q9.968 0 16.187-7.906 6.235-7.907 6.235-20.797T51.78 6.484q-6.218-7.906-16.187-7.906-6 0-10.328 2.375-4.313 2.375-7.157 7.25zm30.578 19.094q0 9.906-4.079 15.547-4.078 5.64-11.203 5.64-7.14 0-11.218-5.64-4.079-5.64-4.079-15.547 0-9.906 4.078-15.547 4.079-5.64 11.22-5.64 7.124 0 11.202 5.64t4.078 15.547z" id="DejaVuSans-112"/><path d="M41.11 46.297q-1.516.875-3.297 1.281Q36.03 48 33.89 48q-7.625 0-11.703-4.953-4.079-4.953-4.079-14.234V0H9.08v54.688h9.03v-8.5q2.844 4.984 7.375 7.39Q30.031 56 36.531 56q.922 0 2.047-.125 1.125-.11 2.484-.36z" id="DejaVuSans-114"/></defs><use xlink:href="#DejaVuSans-65"/><use x="68.408" xlink:href="#DejaVuSans-112"/><use x="131.885" xlink:href="#DejaVuSans-114"/></g></g><g id="xtick_3"><g style="fill:#696969" transform="matrix(.16 0 0 -.16 283.334 598.378)" id="text_3"><defs><path d="M8.5 21.578v33.11h8.984V21.922q0-7.766 3.016-11.656 3.031-3.875 9.094-3.875 7.265 0 11.484 4.64 4.234 4.64 4.234 12.656v31h8.985V0h-8.984v8.406Q42.047 3.422 37.718 1q-4.313-2.422-10.032-2.422-9.421 0-14.312 5.86Q8.5 10.296 8.5 21.578zM31.11 56z" id="DejaVuSans-117"/><path d="M9.422 75.984h8.984V0H9.422z" id="DejaVuSans-108"/></defs><use xlink:href="#DejaVuSans-74"/><use x="29.492" xlink:href="#DejaVuSans-117"/><use x="92.871" xlink:href="#DejaVuSans-108"/></g></g><g id="xtick_4"><g style="fill:#696969" transform="matrix(.16 0 0 -.16 360.372 598.378)" id="text_4"><defs><path d="M39.406 66.219q-10.75 0-17.078-8.016-6.312-8-6.312-21.828 0-13.766 6.312-21.781 6.328-8 17.078-8 10.735 0 17.016 8 6.281 8.015 6.281 21.781 0 13.828-6.281 21.828-6.281 8.016-17.016 8.016zm0 8q15.328 0 24.5-10.281 9.188-10.282 9.188-27.563 0-17.234-9.188-27.516-9.172-10.28-24.5-10.28-15.375 0-24.593 10.25-9.204 10.265-9.204 27.546t9.204 27.563q9.218 10.28 24.593 10.28z" id="DejaVuSans-79"/><path d="M48.781 52.594v-8.407q-3.812 2.11-7.64 3.157-3.828 1.047-7.735 1.047-8.75 0-13.593-5.547-4.829-5.532-4.829-15.547 0-10.016 4.829-15.563 4.843-5.53 13.593-5.53 3.907 0 7.735 1.046 3.828 1.047 7.64 3.156V2.094Q45.016.344 40.984-.531q-4.015-.89-8.562-.89-12.36 0-19.64 7.765-7.266 7.765-7.266 20.953 0 13.375 7.343 21.031Q20.22 56 33.016 56q4.14 0 8.093-.86 3.953-.843 7.672-2.546z" id="DejaVuSans-99"/><path d="M18.313 70.219V54.688h18.5v-6.985h-18.5V18.016q0-6.688 1.828-8.594 1.828-1.906 7.453-1.906h9.218V0h-9.218q-10.407 0-14.36 3.875-3.953 3.89-3.953 14.14v29.688H2.687v6.984h6.594V70.22z" id="DejaVuSans-116"/></defs><use xlink:href="#DejaVuSans-79"/><use x="78.711" xlink:href="#DejaVuSans-99"/><use x="133.691" xlink:href="#DejaVuSans-116"/></g></g><g id="xtick_5"><g style="fill:#696969" transform="matrix(.16 0 0 -.16 443.09 598.378)" id="text_5"><use xlink:href="#DejaVuSans-74"/><use x="29.492" xlink:href="#DejaVuSans-97"/><use x="90.771" xlink:href="#DejaVuSans-110"/></g></g><g id="xtick_6"><g style="fill:#696969" transform="matrix(.16 0 0 -.16 521.035 598.378)" id="text_6"><use xlink:href="#DejaVuSans-65"/><use x="68.408" xlink:href="#DejaVuSans-112"/><use x="131.885" xlink:href="#DejaVuSans-114"/></g></g><g id="xtick_7"><g style="fill:#696969" transform="matrix(.16 0 0 -.16 605.558 598.378)" id="text_7"><use xlink:href="#DejaVuSans-74"/><use x="29.492" xlink:href="#DejaVuSans-117"/><use x="92.871" xlink:href="#DejaVuSans-108"/></g></g><g id="xtick_8"><g style="fill:#696969" transform="matrix(.16 0 0 -.16 682.596 598.378)" id="text_8"><use xlink:href="#DejaVuSans-79"/><use x="78.711" xlink:href="#DejaVuSans-99"/><use x="133.691" xlink:href="#DejaVuSans-116"/></g></g><g id="xtick_9"><g style="fill:#696969" transform="matrix(.16 0 0 -.16 765.314 598.378)" id="text_9"><use xlink:href="#DejaVuSans-74"/><use x="29.492" xlink:href="#DejaVuSans-97"/><use x="90.771" xlink:href="#DejaVuSans-110"/></g></g></g><g id="matplotlib.axis_2"><g id="ytick_1"><g style="fill:#696969" transform="matrix(.16 0 0 -.16 73.733 541.274)" id="text_10"><defs><path d="M10.594 35.5h62.593v-8.297H10.594z" id="DejaVuSans-8722"/><path d="M19.188 8.297h34.421V0H7.33v8.297q5.609 5.812 15.296 15.594 9.703 9.797 12.188 12.64 4.734 5.313 6.609 9 1.89 3.688 1.89 7.25 0 5.813-4.078 9.469-4.078 3.672-10.625 3.672-4.64 0-9.797-1.61-5.14-1.609-11-4.89v9.969Q13.767 71.78 18.938 73q5.188 1.219 9.485 1.219 11.328 0 18.062-5.672 6.735-5.656 6.735-15.125 0-4.5-1.688-8.531-1.672-4.016-6.125-9.485-1.218-1.422-7.765-8.187-6.532-6.766-18.453-18.922z" id="DejaVuSans-50"/><path d="M31.781 66.406q-7.61 0-11.453-7.5Q16.5 51.422 16.5 36.375q0-14.984 3.828-22.484 3.844-7.5 11.453-7.5 7.672 0 11.5 7.5 3.844 7.5 3.844 22.484 0 15.047-3.844 22.531-3.828 7.5-11.5 7.5zm0 7.813q12.266 0 18.735-9.703 6.468-9.688 6.468-28.141 0-18.406-6.468-28.11-6.47-9.687-18.735-9.687-12.25 0-18.718 9.688-6.47 9.703-6.47 28.109 0 18.453 6.47 28.14Q19.53 74.22 31.78 74.22z" id="DejaVuSans-48"/></defs><use xlink:href="#DejaVuSans-8722"/><use x="83.789" xlink:href="#DejaVuSans-50"/><use x="147.412" xlink:href="#DejaVuSans-48"/></g></g><g id="ytick_2"><g style="fill:#696969" transform="matrix(.16 0 0 -.16 73.733 437.97)" id="text_11"><defs><path d="M12.406 8.297h16.11v55.625l-17.532-3.516v8.985l17.438 3.515h9.86V8.296H54.39V0H12.406z" id="DejaVuSans-49"/></defs><use xlink:href="#DejaVuSans-8722"/><use x="83.789" xlink:href="#DejaVuSans-49"/><use x="147.412" xlink:href="#DejaVuSans-48"/></g></g><g id="ytick_3"><use xlink:href="#DejaVuSans-48" style="fill:#696969" transform="matrix(.16 0 0 -.16 97.32 334.668)" id="text_12"/></g><g id="ytick_4"><g style="fill:#696969" transform="matrix(.16 0 0 -.16 87.14 231.364)" id="text_13"><use xlink:href="#DejaVuSans-49"/><use x="63.623" xlink:href="#DejaVuSans-48"/></g></g><g id="ytick_5"><g style="fill:#696969" transform="matrix(.16 0 0 -.16 87.14 128.061)" id="text_14"><use xlink:href="#DejaVuSans-50"/><use x="63.623" xlink:href="#DejaVuSans-48"/></g></g><g style="fill:#696969" transform="matrix(0 -.2 -.2 0 65.573 445.117)" id="text_15"><defs><path d="M64.406 67.281v-10.39q-4.984 4.64-10.625 6.922-5.64 2.296-11.984 2.296-12.5 0-19.14-7.64-6.641-7.64-6.641-22.094 0-14.406 6.64-22.047 6.64-7.64 19.14-7.64 6.345 0 11.985 2.296 5.64 2.297 10.625 6.938V5.609Q59.234 2.094 53.437.33q-5.78-1.75-12.218-1.75-16.563 0-26.094 10.124-9.516 10.14-9.516 27.672 0 17.578 9.516 27.703 9.531 10.14 26.094 10.14 6.531 0 12.312-1.734 5.797-1.734 10.875-5.203z" id="DejaVuSans-67"/><path d="M44.281 53.078v-8.5q-3.797 1.953-7.906 2.922-4.094.984-8.5.984-6.688 0-10.031-2.047-3.344-2.046-3.344-6.156 0-3.125 2.39-4.906 2.391-1.781 9.626-3.39l3.078-.688q9.562-2.047 13.593-5.781 4.032-3.735 4.032-10.422 0-7.625-6.032-12.078-6.03-4.438-16.578-4.438-4.39 0-9.156.86Q10.688.296 5.422 2v9.281q4.984-2.594 9.812-3.89 4.829-1.282 9.579-1.282 6.343 0 9.75 2.172 3.421 2.172 3.421 6.125 0 3.656-2.468 5.61-2.453 1.953-10.813 3.765l-3.125.735q-8.344 1.75-12.062 5.39-3.704 3.64-3.704 9.985 0 7.718 5.47 11.906Q16.75 56 26.811 56q4.97 0 9.36-.734 4.406-.72 8.11-2.188z" id="DejaVuSans-115"/><path d="M56.203 29.594v-4.39H14.891q.593-9.282 5.593-14.142 5-4.859 13.938-4.859 5.172 0 10.031 1.266 4.86 1.265 9.656 3.812v-8.5Q49.266.734 44.187-.344 39.11-1.422 33.892-1.422q-13.094 0-20.735 7.61-7.64 7.625-7.64 20.625 0 13.421 7.25 21.296Q20.016 56 32.328 56q11.031 0 17.453-7.11 6.422-7.093 6.422-19.296zm-8.984 2.64q-.094 7.36-4.125 11.75-4.032 4.407-10.672 4.407-7.516 0-12.031-4.25-4.516-4.25-5.203-11.97z" id="DejaVuSans-101"/><path d="M44.39 34.188q3.172-1.079 6.172-4.594 3-3.516 6.032-9.672L66.609 0H56l-9.313 18.703q-3.624 7.328-7.015 9.719-3.39 2.39-9.25 2.39h-10.75V0h-9.86v72.906h22.266q12.5 0 18.656-5.234 6.157-5.219 6.157-15.766 0-6.89-3.203-11.437-3.204-4.532-9.297-6.282zM19.673 64.797V38.922h12.406q7.125 0 10.766 3.297 3.64 3.297 3.64 9.687 0 6.39-3.64 9.64-3.64 3.25-10.766 3.25z" id="DejaVuSans-82"/><path d="M8.594 75.984h20.703V69H17.578V-6.203h11.719v-6.984H8.594z" id="DejaVuSans-91"/><path d="M25.39 72.906h8.297L8.297-9.28H0z" id="DejaVuSans-47"/><path d="M45.406 46.39v29.594h8.985V0h-8.985v8.203Q42.578 3.328 38.25.953q-4.313-2.375-10.375-2.375-9.906 0-16.14 7.906-6.22 7.922-6.22 20.813 0 12.89 6.22 20.797Q17.968 56 27.874 56q6.063 0 10.375-2.375 4.328-2.36 7.156-7.234zm-30.61-19.093q0-9.906 4.079-15.547 4.078-5.64 11.203-5.64 7.125 0 11.219 5.64 4.11 5.64 4.11 15.547 0 9.906-4.11 15.547-4.094 5.64-11.219 5.64-7.125 0-11.203-5.64-4.078-5.64-4.078-15.547z" id="DejaVuSans-100"/><path d="M32.172-5.078q-3.797-9.766-7.422-12.735-3.61-2.984-9.656-2.984H7.906v7.516h5.282q3.703 0 5.75 1.765Q21-9.766 23.483-3.219l1.61 4.094-22.11 53.813H12.5l17.094-42.766 17.093 42.766h9.516z" id="DejaVuSans-121"/><path d="M30.422 75.984v-89.171H9.719v6.984H21.39V69H9.719v6.984z" id="DejaVuSans-93"/></defs><use xlink:href="#DejaVuSans-67"/><use x="69.824" xlink:href="#DejaVuSans-97"/><use x="131.104" xlink:href="#DejaVuSans-115"/><use x="183.203" xlink:href="#DejaVuSans-101"/><use x="244.727" xlink:href="#DejaVuSans-32"/><use x="276.514" xlink:href="#DejaVuSans-82"/><use x="343.746" xlink:href="#DejaVuSans-97"/><use x="405.025" xlink:href="#DejaVuSans-116"/><use x="444.234" xlink:href="#DejaVuSans-101"/><use x="505.758" xlink:href="#DejaVuSans-32"/><use x="537.545" xlink:href="#DejaVuSans-91"/><use x="576.559" xlink:href="#DejaVuSans-32"/><use x="608.346" xlink:href="#DejaVuSans-99"/><use x="663.326" xlink:href="#DejaVuSans-97"/><use x="724.605" xlink:href="#DejaVuSans-115"/><use x="776.705" xlink:href="#DejaVuSans-101"/><use x="838.229" xlink:href="#DejaVuSans-115"/><use x="890.328" xlink:href="#DejaVuSans-47"/><use x="924.02" xlink:href="#DejaVuSans-100"/><use x="987.496" xlink:href="#DejaVuSans-97"/><use x="1048.775" xlink:href="#DejaVuSans-121"/><use x="1107.955" xlink:href="#DejaVuSans-32"/><use x="1139.742" xlink:href="#DejaVuSans-93"/></g></g><g style="fill:#696969" transform="matrix(.24 0 0 -.24 245.86 71.76)" id="text_16"><defs><path d="M9.813 72.906h13.28l32.329-60.984v60.984h9.562V0h-13.28L19.39 60.984V0H9.813z" id="DejaVuSans-78"/><path d="M4.203 54.688h8.985l11.234-42.672 11.172 42.672h10.593l11.235-42.672 11.187 42.672h8.985L63.28 0H52.688L40.922 44.828 29.109 0H18.5z" id="DejaVuSans-119"/><path d="M8.203 72.906h46.875v-4.203L28.61 0H18.312L43.22 64.594H8.203z" id="DejaVuSans-55"/><path d="M2.984 54.688H12.5L29.594 8.797l17.093 45.89h9.516L35.687 0H23.485z" id="DejaVuSans-118"/><path d="M45.406 27.984q0 9.766-4.031 15.125-4.016 5.375-11.297 5.375-7.219 0-11.25-5.375-4.031-5.359-4.031-15.125 0-9.718 4.031-15.093t11.25-5.375q7.281 0 11.297 5.375 4.031 5.375 4.031 15.093zm8.985-21.203q0-13.953-6.203-20.765Q42-20.797 29.203-20.797q-4.734 0-8.937.703-4.203.703-8.157 2.172v8.735q3.954-2.141 7.813-3.157 3.86-1.031 7.86-1.031 8.843 0 13.234 4.61 4.39 4.609 4.39 13.937v4.453q-2.781-4.844-7.125-7.234Q33.938 0 27.875 0 17.828 0 11.672 7.656q-6.156 7.672-6.156 20.328 0 12.688 6.156 20.344Q17.828 56 27.875 56q6.063 0 10.406-2.39 4.344-2.391 7.125-7.22v8.297h8.985z" id="DejaVuSans-103"/><path d="M30.61 48.39q-7.22 0-11.422-5.64-4.204-5.64-4.204-15.453 0-9.813 4.172-15.453 4.188-5.64 11.453-5.64 7.188 0 11.375 5.655 4.203 5.672 4.203 15.438 0 9.719-4.203 15.406-4.187 5.688-11.375 5.688zm0 7.61q11.718 0 18.406-7.625 6.703-7.61 6.703-21.078 0-13.422-6.703-21.078-6.688-7.64-18.407-7.64-11.765 0-18.437 7.64-6.656 7.656-6.656 21.078 0 13.469 6.656 21.078Q18.844 56 30.609 56z" id="DejaVuSans-111"/><path d="M37.11 75.984V68.5h-8.594q-4.828 0-6.72-1.953-1.874-1.953-1.874-7.031v-4.828h14.797v-6.985H19.922V0H10.89v47.703H2.297v6.984h8.594V58.5q0 9.125 4.25 13.297 4.25 4.187 13.468 4.187z" id="DejaVuSans-102"/><path d="M9.813 72.906h9.859V42.094L52.39 72.906h12.703L28.906 38.922 67.672 0H54.688L19.672 35.11V0h-9.86z" id="DejaVuSans-75"/></defs><use xlink:href="#DejaVuSans-78"/><use x="74.805" xlink:href="#DejaVuSans-101"/><use x="136.328" xlink:href="#DejaVuSans-119"/><use x="218.115" xlink:href="#DejaVuSans-32"/><use x="249.902" xlink:href="#DejaVuSans-67"/><use x="319.727" xlink:href="#DejaVuSans-97"/><use x="381.006" xlink:href="#DejaVuSans-115"/><use x="433.105" xlink:href="#DejaVuSans-101"/><use x="494.629" xlink:href="#DejaVuSans-115"/><use x="546.729" xlink:href="#DejaVuSans-32"/><use x="578.516" xlink:href="#DejaVuSans-55"/><use x="642.139" xlink:href="#DejaVuSans-100"/><use x="705.615" xlink:href="#DejaVuSans-32"/><use x="737.402" xlink:href="#DejaVuSans-97"/><use x="798.682" xlink:href="#DejaVuSans-118"/><use x="857.861" xlink:href="#DejaVuSans-103"/><use x="921.338" xlink:href="#DejaVuSans-32"/><use x="953.125" xlink:href="#DejaVuSans-115"/><use x="1005.225" xlink:href="#DejaVuSans-108"/><use x="1033.008" xlink:href="#DejaVuSans-111"/><use x="1094.189" xlink:href="#DejaVuSans-112"/><use x="1157.666" xlink:href="#DejaVuSans-101"/><use x="1219.189" xlink:href="#DejaVuSans-32"/><use x="1250.977" xlink:href="#DejaVuSans-111"/><use x="1312.158" xlink:href="#DejaVuSans-102"/><use x="1347.363" xlink:href="#DejaVuSans-32"/><use x="1379.15" xlink:href="#DejaVuSans-55"/><use x="1442.773" xlink:href="#DejaVuSans-32"/><use x="1474.561" xlink:href="#DejaVuSans-97"/><use x="1535.84" xlink:href="#DejaVuSans-118"/><use x="1595.02" xlink:href="#DejaVuSans-103"/><use x="1658.496" xlink:href="#DejaVuSans-47"/><use x="1692.188" xlink:href="#DejaVuSans-49"/><use x="1755.811" xlink:href="#DejaVuSans-48"/><use x="1819.434" xlink:href="#DejaVuSans-48"/><use x="1883.057" xlink:href="#DejaVuSans-75"/></g><g id="legend_1"><path d="M128.2 184.5h136.45q3.2 0 3.2-3.2V88.96q0-3.2-3.2-3.2H128.2q-3.2 0-3.2 3.2v92.34q0 3.2 3.2 3.2z" style="fill:none;opacity:.8;stroke:#ccc;stroke-linejoin:miter" id="patch_5"/><path d="M131.4 98.718h32" style="fill:none;stroke:#000;stroke-linecap:round;stroke-width:1.5" id="line2d_6"/><g style="fill:#696969" transform="matrix(.16 0 0 -.16 176.2 104.317)" id="text_17"><defs><path d="M8.688 72.906h9.921V28.61q0-11.718 4.235-16.875 4.25-5.14 13.781-5.14 9.469 0 13.719 5.14 4.25 5.157 4.25 16.875v44.297H64.5V27.391q0-14.25-7.063-21.532-7.046-7.28-20.812-7.28-13.828 0-20.89 7.28-7.047 7.282-7.047 21.532z" id="DejaVuSans-85"/><path d="M53.516 70.516V60.89q-5.61 2.687-10.594 4-4.984 1.328-9.625 1.328-8.047 0-12.422-3.125t-4.375-8.89q0-4.845 2.906-7.313 2.907-2.453 11.016-3.97l5.953-1.218q11.031-2.11 16.281-7.406 5.25-5.297 5.25-14.172 0-10.61-7.11-16.078-7.093-5.469-20.812-5.469-5.172 0-11.015 1.172Q13.14.922 6.89 3.219v10.156q6-3.36 11.765-5.078 5.766-1.703 11.328-1.703 8.438 0 13.032 3.312 4.593 3.328 4.593 9.485 0 5.359-3.297 8.39-3.296 3.032-10.812 4.547L27.484 33.5q-11.03 2.188-15.968 6.875-4.922 4.688-4.922 13.047 0 9.672 6.812 15.234 6.813 5.563 18.766 5.563 5.14 0 10.453-.938 5.328-.922 10.89-2.765z" id="DejaVuSans-83"/></defs><use xlink:href="#DejaVuSans-85"/><use x="73.193" xlink:href="#DejaVuSans-83"/></g><path d="M131.4 122.203h32" style="fill:none;stroke:#009e73;stroke-linecap:round;stroke-width:1.5" id="line2d_8"/><g style="fill:#696969" transform="matrix(.16 0 0 -.16 176.2 127.802)" id="text_18"><use xlink:href="#DejaVuSans-78"/><use x="74.805" xlink:href="#DejaVuSans-74"/></g><path d="M131.4 145.688h32" style="fill:none;stroke:#d55e00;stroke-linecap:round;stroke-width:1.5" id="line2d_10"/><g style="fill:#696969" transform="matrix(.16 0 0 -.16 176.2 151.287)" id="text_19"><defs><path d="M19.672 34.813V8.108H35.5q7.953 0 11.781 3.297 3.844 3.297 3.844 10.078 0 6.844-3.844 10.078-3.828 3.25-11.781 3.25zm0 29.984V42.828h14.61q7.218 0 10.75 2.703 3.546 2.719 3.546 8.282 0 5.515-3.547 8.25-3.531 2.734-10.75 2.734zm-9.86 8.11h25.204q11.28 0 17.375-4.688Q58.5 63.53 58.5 54.89q0-6.703-3.125-10.657-3.125-3.953-9.188-4.922 7.282-1.562 11.313-6.53 4.031-4.954 4.031-12.376 0-9.765-6.64-15.093Q48.25 0 35.984 0H9.812z" id="DejaVuSans-66"/></defs><use xlink:href="#DejaVuSans-66"/><use x="68.604" xlink:href="#DejaVuSans-101"/><use x="130.127" xlink:href="#DejaVuSans-114"/><use x="169.49" xlink:href="#DejaVuSans-103"/><use x="232.967" xlink:href="#DejaVuSans-101"/><use x="294.49" xlink:href="#DejaVuSans-110"/></g><path d="M131.4 169.173h32" style="fill:none;stroke:#0072b2;stroke-linecap:round;stroke-width:1.5" id="line2d_12"/><g style="fill:#696969" transform="matrix(.16 0 0 -.16 176.2 174.773)" id="text_20"><defs><path d="M54.89 33.016V0h-8.984v32.719q0 7.765-3.031 11.61-3.031 3.858-9.078 3.858-7.281 0-11.484-4.64-4.204-4.625-4.204-12.64V0H9.08v75.984h9.03V46.188q3.235 4.937 7.594 7.374Q30.078 56 35.797 56q9.422 0 14.25-5.828 4.844-5.828 4.844-17.156z" id="DejaVuSans-104"/></defs><use xlink:href="#DejaVuSans-82"/><use x="64.982" xlink:href="#DejaVuSans-117"/><use x="128.361" xlink:href="#DejaVuSans-116"/><use x="167.57" xlink:href="#DejaVuSans-104"/><use x="230.949" xlink:href="#DejaVuSans-101"/><use x="292.473" xlink:href="#DejaVuSans-114"/><use x="333.586" xlink:href="#DejaVuSans-102"/><use x="368.791" xlink:href="#DejaVuSans-111"/><use x="429.973" xlink:href="#DejaVuSans-114"/><use x="469.336" xlink:href="#DejaVuSans-100"/></g></g></g></g><defs><clipPath id="pc1ae50ca77"><path d="M117 77.76h725.4v498.96H117z"/></clipPath></defs></svg>