<svg height="864" viewBox="0 0 936 648" width="1248" xmlns="http://www.w3.org/2000/svg" xmlns:xlink="http://www.w3.org/1999/xlink"><defs><style>*{stroke-linecap:butt;stroke-linejoin:round}</style></defs><g id="figure_1"><path d="M0 648h936V0H0z" style="fill:#fff" id="patch_1"/><g id="axes_1"><path d="M117 576.72h725.4V77.76H117z" style="fill:none" id="patch_2"/><path clip-path="url(#p192e18e299)" d="m149.973 362.549 40.567-.108 4.717-.227.944-.094.943-.213.943-.354 1.887-1.058.944-.778 4.717-4.572.943-.933 1.887-.39.944-.54 1.886.014.944-.351.943.055.944.308.943.17 2.83 2.506.944 1.482.943 1.865.944.597.943 1.564.944 1.015.943.715.943.865.944.334.943-.006.944.357.943-.726.943-.264.944-.063.943-.562.944-.771.943-1 .944-.344.943.624.943-.033.944.115.943.598.944.857.943 1.173.944.213.943-.317 1.887-.016.943-.165.944.38.943-.035.944.56.943.333 2.83.152.944-.526.943-.364.944-.484.943-.916.943-.01.944-.566.943-.03 1.887.13.944-.25.943.743.943.082.944.67.943.213 1.887-.612.944.045.943-.592.943-.426.944-.597.943-.249.944-.365 1.886.496.944.695.943.416 1.887-.44.944.79.943-.396.943-.271.944-.6.943-.864.944.006.943-.35.944-.917.943-.415.943-.722.944-.904.943-.439 2.83-2.8.944-.384.943-.63.944.142.943-.338 1.887-.313 1.887.603.943.843.944.13.943.818.944.375.943 1.078.944.059.943-.322 1.887-1.523.943-.624.944.064.943-1.229 2.83 2.778.944 1.707.943 1.269.944.802.943 2.301.943.01.944-.278.943 1.343.944-.104.943.196.944.467.943-.496.943.755.944 1.529.943-.497.944 1.178.943.793 1.887 2.194.943.374.944-.895.943-.12.944-1.22.943-1.004.944-1.458.943-.855.943-.67.944.312.943.432 1.887 2.064.944 1.266.943.491.943.94.944.13.943.37.944-1.342.943-.65.944-1.454 1.886-1.671.944-.568.943-1.168.944.728.943-.955.944 1.627.943-.13.943-.857.944.208.943.485.944.793.943 2.14.944-1.474 1.886 2.056.944.085.943-.726 1.887-5.188.943-.54.944-1.67 1.887-1.255.943.036.944-.68.943 1.296.943.392.944.788.943-.469 1.887.417.944 3.82.943-.87.943.19.944-.142.943.717.944-.45.943.34.944-4.568.943.765.943-1.12.944-.937.943-.684.944.13.943-1.28.944 4.226.943-1.325.943.442.944.106.943-.656.944.296.943.709.944-3.41.943.572.943.262.944-.086.943-.357.944-2.646.943-.936.944.881.943-.813.943-1.421.944-.617.943.028.944 2.163.943-.284.943-1.09.944-.453.943-.916.944-1.622.943-1.97.944-3.867.943-1.579.943-1.83.944-3.139.943-.922.944-1.245.943-1.684.944.924.943-.274.943.035.944 2.727.943.579.944 1.976.943 3.354.944 2.165 1.886 5.273.944.605.943 2.26.944 11.61.943 1.113.944 3.58.943 1.102.943 2.681.944 1.056.943-1.315.944-21.347.943-1.987.944-8.017.943-4.336.943-5.23.944-3.12.943.218.944 11.491.943-2.53.944 5.622.943 2.518.943 4.339.944 5.576.943-.704.944-.535.943 8.407 1.887 3.434.943-.457.944-1.612.943 4.518.944 6.073.943 12.956.943-3.92.944 2.52.943 1.408.944-.098.943-1.955.944-8.754.943-21.06.943-5.549 1.887-16.374.944-3.706.943-2.768.944-1.264.943-11.486.943 12.26.944 4.626.943 9.464.944 4.18.943 5.75.944 9.655.943 22.975.943 1.075.944 4.79.943 6.393.944 4.07.943 1.843.944.882.943-1.354.943-1.655.944.237.943-10.78.944-.721.943-1.513.944-2.65.943-2.286.943-.017.944-2.628.943 3.231.944-.099.943.63.944 1.738.943.875.943-.564.944 1.14.943 3.658.944-1.77.943-1.112.943-2.2.944-.562.943-.917.944-.323.943-1.195.944 1.39.943-.042.943 1.485.944-.885.943-.575.944-1.596 1.887-8.692.943-3.09.943-4.28.944-2.348.943-.844.944-.464.943.746.944 2.319.943 1.244.943 1.788.944 1.385.943-.102.944.703.943-4.348.944-1.342.943.09.943-.611.944-1.189.943.1.944-.938.943 8.052.944-.04.943-.98.943-.32.944.216.943-1.274.944.184.943-3.74.944-.383.943-2.168.943-1.132.944-1.866.943-.15.944-1.513.943-1.979.943-.35.944 3.528.943.061.944 2.12.943.304.944 1.93.943 1.09.943.616.944-1.835.943.516.944-2.025.943.301.944-2.019.943 1.127.943-1.673.944.268.943 1.074.944 1.738.943 1.232.944 1.9.943-.32.943 3.39.944 1.705.943.074.944 1.215.943-.8.944.13.943 2.278.943-.766.944-.598.943.13.944-.997.943.246.944-.412.943-2.736 2.83.582 1.887 1.193.944.359.943 1.713.943-.429 1.887-.16.944-.484.943-.694.943-.18.944-.647.943-.079.944-.273.943-.046 1.887 1.24 1.887-.732 1.887-.26.943-.745 1.887-.96.943.444.944 1.773.943-.51.944.12.943.687.944 4.182 1.886-1.185.944-3.651.943.87.944-1.107.943-.494.944-9.304.943.113.943-.206.944 1.959.943-.65.944 1.077.943-.007.944 4.816.943-.157.943.36.944-.542.943-.343 2.83-1.97.944.01.943-.295.944.11 1.887-.472.943-5.116.944-.344 1.886.342.944 1.142.943-.897.944-1.318.943 7.07.943-1.01.944-.703.943-.405.944-4.473.943-.488.944.686 1.886-.482 1.887-.192.944.75.943-.346.944-1.489.943-4.574.943-1.495.944-.477.943-.142.944-1.082.943-2.74 1.887-.723.943-.94.944.11.943-.455.944-.984.943.13.944-.237.943.441.943-.65 1.887-.902.944.06.943 3.398.944-1.698.943 1.815.943 2.854 1.887 1.086.944-4.101.943 3.168.944 3.664.943-.997.943.731.944-2.343.943 1.178.944 7.944.943-2.539.943.29.944-.746.943 1.705.944 2.54.943-.518.944-.815.943-.444.943-3.615.944 4.294.943.08.944 2.685.943-.072.944 23.321.943-14.016.943 7.163.944-.743.943 1.148.944-2.9.943.762.944-44.087.943 30.998.943-1.373.944 1.132.943-.62.944 1.46.943-.564.944 30.53.943-13.469.943.933.944 1.214.943 1.88.944 1.162.943.656.944-6.805.943-.652.943-.399.944-1.646.943-1.36.944-.987.943.286.944.934.943-.203.943-1.76 2.83-.29.944-.6.943 2.885.944-2.97.943 1.805.944.603.943.162.944-.332.943-.204.943-5.075.944 4.378.943.057.944-1.008.943-.332.944-.008.943.446.943 1.588 1.887-6.373 1.887-2.567.944-.354.943-.731.943-3.802.944 1.524.943 1.888.944.786.943-.174.944-.315.943-.152.943 1.834.944-1.77.943-2.562.944 1.649.943-3.7.944-2.886.943.18.943-2.172 1.887-.273.944-6.873 1.887 10.4.943-.668.943 1.274.944.559.943 1.045.944 13.402.943 6.259.944-.423.943 1.627.943-5.05 1.887-3.018 1.887-38.261.943-5.34.944-1.934.943 8.172.944 1.267.943 1.048.944 13.186.943 9.632.943 4.314.944.947.943-2.603.944.196.943 1.397.944-4.071.943.74 1.887-7.028.943-10.132.944-7.469 1.887-21.138.943-.988.943 4.494.944-8.692.943-15.054h0" style="fill:none;stroke:#000;stroke-linecap:round;stroke-width:1.5" id="line2d_1"/><path clip-path="url(#p192e18e299)" d="m149.973 362.548 41.51-.1 2.83-.24 1.888-.602.943-.57.943-1.176.944-.48.943-1.543.944-2.114.943-3.084.944-2.577.943-1.65 1.887-13.904.943-5.716.944-4.47.943-5.811.944-1.94.943-8.963.943 5.167.944-2.249.943-.281.944 2.237.943 7.858.944-.147.943 13.341.943 2.4.944 12.271.943 10.277.944 3.171.943 4.695.944 1.394.943 1.096.943-1.75.944-1.318.943-.221.944.538.943-6.421.943 6.227.944-8.262.943 3.405.944 2.106.943-3.896.944 2.17.943 8.416.943 1.005.944 9.272.943 6.227.944-5.044.943 4.648.944.483.943-2.89.943-2.252.944.162.943-4.327.944 4.157.943.38.944 4.323.943-2.031.943 4.68.944-2.499.943-.166.944-.4.943-1.777.944-5.456.943-1.599.943-6.738.944-4.152.943-2.099.944-2.628.943 1.393.944-.027.943 4.192.943 1.892.944 4.32.943-.733.944 1.045.943-4.664.944.072 1.886-2.213.944-.717.943 3.322.944.02.943 2.32.943 1.397.944-1.287.943 1.12.944-1.456.943-2.902.944.93.943-.36.943-2.26.944-.115.943-1.394.944 1.188.943.293.944-1.976 1.886-.158.944-.641.943.11.944-.61.943-7.204.944.166.943-.214.943.123.944.927.943-.317.944-.879.943 13.784.944.004 1.886-.435.944-1.196.943.808.944.443.943-6.053.944.103.943-.15 1.887.768.943-1.006.944-.582.943-.756.944 1.109.943.427.943 1.346.944.234 1.887 1.659.943-.107.943-2.835.944-1.259.943-3.586 1.887-2.387.944-.578.943.225.943.697.944 1.56.943 2.85.944 1.797.943 1.255.944.72.943-.823.943 2.225.944-.566 3.774-3.19.943-.444.943-2.138.944.352.943 1.402.944-.238.943.796.944.966.943 3.317.943 1.94.944-1.35.943-1.845.944.559.943-.333.944-.186.943-3.02.943-1.378.944 1.706.943-.032.944-.835.943-.225.944-.614.943.538.943-.09.944-.618 2.83 1.365 2.83.563.944-.586.943.134.944-.075.943-.84.943-.158.944-.391.943.047.944.443.943-.673.944-.221.943.669.943.17.944.594.943-.19.944-1.097 2.83-.942.943-1.116.944-.218.943-.519.944.365.943 1.254.944.852.943-.566.943 1.975.944-2.51.943.265.944 1.109.943-.78.944-.024.943-.736.943-2.49.944 4.002.943.713.944-.606.943-1.58.944-3.028 1.886 2.763.944-2.05.943-1.148.944-3.583 1.887 5.42.943-2.61.943-2.173.944-.78.943-2.755.944 6.021.943-3.008.943-.507.944 1.908.943-.526.944-.095.943 2.953.944-9.442.943 1.362.943-2.13.944-7.03.943.597 1.887-8.586.944 2.723.943-8.927.943 2.095.944 6.745.943-1.453.944 3.326.943 3.986.944 3.306.943 12.252.943-4.754h.944l.943 3.895.944 1.58.943-.95.944 4.683.943-1.746.943 6.94.944-.325.943-.946.944-.115.943-4.35 1.887-18.642.943-3.025.944-2.134.943.333.944-.028.943 14.176.944 2.4.943 16.1.943-3.413.944 9.422.943-4.268.944 4.72.943-8.944.943 11.738.944-11.468.943 11.33.944-8.5.943 8.432.944-5.202.943-3.634.943-7.351.944 15.344.943-4.75.944 6.266.943-3.17.944.225.943 2.862.943-6.746.944-16.646.943-193.088.944-14.065.943-4.85.944-7.881.943-4.272.943-1.536.944-2.478.943 372.53.944 16.962.943-3.53.944 10.965.943 8.614.943 13.112.944 9.841.943-175.257.944-6.805.943 17.675 1.887 12.534.943-10.139.944-2.557.943-7.023.944-.427 1.887-14.062.943-15.64.943 11.967.944 4.433.943 3.634 1.887 14.43.944 4.572.943 14.03 1.887-8.464.943 1.29.944-8.126.943-18.044.943-7.221.944-4.996.943-.044.944 8.741.943.642.944 1.468.943 9.185.943 2.957.944.752.943.499.944-8.025.943-9.402.944 2.103.943 2.89.943-2.689.944-5.973.943-8.456.944-1.964.943 3.25.944-2.399.943-6.191.943 2.696.944 3.935.943 6.61.944.907.943 5.04.944-2.795.943 1.936.943-3.97.944-2.728.943-2.21.944-2.612.943-5.344.944 4.932.943-1.793.943-.147.944 1.354.943-3.55.944 3.412.943.736.944-5.918.943 2.98.943 4.696.944-4.082.943 5.087.944-5.3.943-.559.943 4.022.944.84.943-8.678.944 9.014.943-.087.944 7.803 1.886 9.861.944-3.963.943 11.639.944-2.906.943 2.475.944-1.149.943-1.722.943-5.554.944 4.953.943-3.413.944-2.074.943-4.628.944-.697.943-.245.943 5.372.944-2.336.943 1.085.944 6.868.943 5.788.944 4.818.943 43.13.943-1.583.944 5.051.943 1.18.944-2.257.943.218.944-3.796.943-83.83.943 1.603.944-7.055.943-.613.944-.345.943-1.01.944 1.438.943 42.83.943-2.68.944 9.742.943.61.944-.974.943-3.702.943-3.123.944-4.066.943-2.086.944-7.922.943-4.425.944-3.852.943 1.045.943-.404.944 1.75.943 1.346.944.027.943 1.188.944 2.83.943-.573.943.344.944-1.35.943-.099.944.289.943-.214.944-1.635.943-.894.943-.072.944.333.943-1.061.944-.13.943-.69.944.183.943.839 1.887-.186.943-.068.944-.744.943.653.944-.043.943-.27.943.242.944.448.943.285.944.45.943-.545 1.887-.638 1.887-.653.943-.04.944.23.943.348.944.483.943.301 1.887.44.943.241 4.717-3.294.944-.752.943-1.1 2.83-.016.944-.463 1.887.23.943-.341.944-.998.943-.732.943-1.263.944-.293.943-.09.944-.444.943.63.944.336.943-.123.943.811.944-.035 1.887-1.235.943-1.516 3.774-.57.943.36.944 1.48.943.804.944-.689.943.004.943-1.073.944-2.644.943.538.944-1.82.943.49.944 1.84.943.872.943-2.368.944 5.665.943-.28.944.486.943.618.943-1.762.944.539.943 5.716.944-.72.943-.887.944 1.726.943-.93.943 1.052.944-1.805.943 2.015.944-2.13.943 2.122.944-2.213.943 8.096.943-4.137.944 3.246.943-7.07.944.27.943-1.066.944 3.361.943-13.689.943 9.651.944-4.275.943 4.826.944.463.943.28.944-1.915.943 6.164.943-5.143.944 5.756.943-.602.944 2.051.943 3.409.944 2.145 1.886 3.302.944-3.092.943 1.683.944-.357.943-4.525.944-2.18.943-.147.943-.828.944 1.334.943-3.004.944-.76 1.886 2.945.944-.926.943-.155.944.653.943 2.7.944 1.065.943 2.043.943-.416.944 1.576.943 2.114.944-1.018.943-3.202.944-.254.943-1.694.943-1.437.944-2.53.943-3.258.944-2.64.943 2.862.944-1.591.943-2.126.943 1.18.944 1.951.943.689.944 3.792.943-1.896.944-.328.943 2.838.943-.606.944-2.007.943-1.31.944-3.088.943-1.413.944-.246.943-4.212.943-1.896.944-.103.943.119.944-1.31.943.07.944-1.29.943 3.46.943 1.303.944-2.479.943.198.944 1.077.943 2.03.944 3.05.943-1.45.943-2.046.944 1.148.943-2.85.944-4.882 1.886-19.98.944-5.383.943-.198 1.887-.705.944 1.805.943 5.222.943 8.875.944 5.071.943 1.813.944.998.943 1.342.944-1.785.943-3.698 1.887-23.843 1.887-28.408.943-24.489 2.83-109.625.944-13.108.943 4.668h0" style="fill:none;stroke:#009e73;stroke-linecap:round;stroke-width:1.5" id="line2d_2"/><path clip-path="url(#p192e18e299)" d="m149.973 362.548 34.906-.076 7.548-.34.943-.527.944.038.943-1.019.944-.716.943-1.585.943-6.072.944-1.434.943.302 1.887-7.129.944-1.81.943-.906.943-2.3.944-8.035.943-11.58.944-5.355.943-1.434.944-10.033.943-15.012.943.189.944-8.072.943-9.354.944 5.28.943-7.581.944 3.432.943 26.818.943 13.353.944 24.517.943 38.51.944 3.81.943 27.497.944 21.915.943-12.259.943-8.6.944-1.923.943-12.296.944-2.226.943-16.257.943-13.126.944 6.526.943 10.938.944.34.943-7.884 1.887 22.632.943 7.883.944 1.622.943.037.944-1.735.943 11.542.944-8.788.943-7.204.943-8.638h.944l.943-4.677.944.98.943-6.864.944 2.64.943-1.66.943 5.507.944-5.054.943 3.168.944-5.092.943-.188.944-2.867.943.113.943-4.337.944 2.338.943-11.09.944 2.264.943-.302.944-1.17 1.886.039.944-4.79.943 2.451.944-1.509.943-.34.944 3.622.943 2.49.943 1.13.944 3.056.943 6.525.944.189.943-2.565.943-1.282.944-2.377.943-1.32.944-2.565.943-4.639.944.792.943.302.943-1.283.944-.301.943-.528.944 4.45.943 1.924.944-.943.943 2.49.943-.302.944.264.943 1.47.944-2.564.943-12.938.944-3.206.943-.565.943-2.414.944.113.943-1.396.944.264.943 23.31.944 4.451.943-1.395.943 3.055.944-.566.943 1.622.944-1.509.943-12.41.944-1.395.943 1.094 1.887 1.584.943-.83.944 2.791.943 1.886.944 1.434.943-.113.943-.604.944-1.66.943-.264.944-2.489.943-1.433.943-2 .944-.905.943-2.112.944 1.283.943-1.547 1.887 1.886.943-.679.944.943.943 1.509.944.867.943 1.773.944.604.943-.83.943 2.49.944-1.623 1.887-1.735.943.528.944-.83.943-.075.943-4.828.944 1.132.943-.604.944-1.924.943-.188.944 1.433.943 3.697.943 7.166.944 1.245 1.887 7.695.943-1.132.944-2.678.943-5.696.943-3.62.944-1.51.943-3.47.944-2.753.943-.189 1.887 3.81.943-.34.944 2.075 1.887 2.376.943 2.226.944-.604.943.981.943.189.944-1.886.943-.076 1.887-1.094.943.038.944-1.735.943.075.944-.339.943.226.944.038.943-2.791.943.302.944 2.414.943.226.944.377.943-1.056.944-.15.943 2.64.943-.604.944-2.64.943-1.207.944-.793.943.793.944-.114.943-1.47.943-.19.944 1.02 1.887.716.943-.943.944-.038.943-1.131.943-.114.944-.264.943.604.944.867.943-.339.944-1.924.943 1.924.943-1.358.944.717.943-.415.944-3.206.943.49.944 1.697.943-1.848.943 3.055.944-1.093.943-4.074.944 3.659.943-.792.943-.604.944.717.943-5.545.944 2.376.943 4.413.944-8.26.943-.34.943 1.698.944-3.696.943.678.944-12.635.943-5.092.944 5.582.943-5.356.943-2.452.944 1.358.943-.189.944 10.147.943 5.658.944-.113.943 7.166.943-5.96.944 5.47.943 7.393.944 2.263.943-8.223.944 10.9.943-3.545.943 11.844 1.887-12.447.944-4.15.943 5.281.944-20.18.943 2 .943-5.733 1.887 14.672.944 6.035.943 14.937.944 10.75.943 8.222.943-.603.944-1.622.943-10.184.944-.717.943-16.483.943 7.318.944-6.601.943 7.808.944-1.434.943 4.225.944-5.658.943 2.376.943-4.64.944 5.395.943-5.62.944.942.943 3.207.944.64.943.453.943-7.166.944-8.223.943-164.605.944-13.05.943-9.392.944-1.849.943-6.563.943-.679.944-5.846.943 325.211.944 22.783.943 2.602.944 1.433.943 11.43.943 7.543.944 10.561.943-157.136.944-15.729 1.887 23.725.943 4.866.943-6.073.944-1.923.943-5.771.944 6.035.943-3.357.944-9.128.943-12.674.943 9.505.944 2.452.943 2.075.944 4.865.943 6.978.944 4.036.943 2.791.943-3.583.944-2.829.943 4.074.944-6.375.943-18.784.943-3.432.944 6.148.943.792.944 6.94.943.49.944-6.75.943 11.503.943.642.944-2.037.943.188.944-5.469.943-12.372.944 10.826.943-3.018.943-5.431.944-10.863.943-5.696.944-1.81.943 2.942.944-3.131.943-4.489.943 7.997 1.887 21.65.944-2.414.943 14.183.944-4.753.943 8.298.943-8.26.944-1.735.943-14.937.944 1.207.943-11.39.944 5.77.943-6.902.943 5.733.944-3.923.943 1.961.944 2.792.943 1.244.944-2.79.943 5.016.943 2.904.944-4.111.943 3.055.944-7.393.943.943.943.453.944-6.224.943-10.486.944 15.691.943 3.885.944 12.862.943 1.358.943 7.657.944 6.11.943 11.052.944-3.357.943 2.98.944-4.564.943 2.452.943-5.771.944 4.3.943-2.942 1.887-9.883.944 1.924.943-.905.943 2.187.944-4.11.943.49.944 6.298.943 3.395.944-.83.943 3.848.943-.868.944 3.282.943.64.944-3.318.943 2.074.944-.113.943-9.656.943 1.32.944-46.884.943-9.317.944.151.943-3.96.944-2.075.943 5.092.943-2.112.944 87.394.943 19.916.944-2.603.943-1.66.943-.188.944-2.188.943-.679.944-43.904.943-12.598.944-.264.943 2.376.943.302.944.754.943-1.32.944-1.698.943-1.169.944 1.283.943-2 .943-.113.944.038.943 1.697.944.906.943 1.131 1.887-2.527.943-1.018.944-.528.943-1.32.944-1.094.943-1.283.944-.264.943 1.622.943.264.944-.113.943-.566.944.113.943.792.944.378.943-.566 1.887.943.943.905.944-.528.943-1.245.944-.113 1.886-1.17.944-.527.943-.377.944.565.943 1.396.944-.189.943.453.943.867.944.265 1.887 1.735.943-.378.943.34.944.038.943-1.622.944-.34 1.887-3.62.943-.68 1.887-2.451.943.98.944-.415 1.887 1.66 1.886-1.81.944-.265.943-1.244 1.887-1.886.944-1.698.943.302.943 1.433.944.302.943-.226.944 1.094.943-.717.944 1.773.943 1.207.943-.453.944 1.207.943 1.962.944 1.358.943-.415.944-1.886.943-2.603.943.717.944-4.262.943 2.64.944-2.112.943 1.886.944.98.943 4.376.943-4.942.944 5.696.943-8.11.944-.037.943 1.961.943.113.944-2.791.943 7.317.944-2.602.943 4.149.944 1.471.943-2.037.943 1.773.944.566 1.887 2.376.943 1.396.944-1.51.943 5.621.943-4.79.944.226.943-7.129.944-.528.943-.754.944 3.244.943-11.43.943 7.658.944-.227.943 5.771.944.377.943-.377.944-2.451.943 8.788.943-4.753.944 1.132.943-4.036.944.641.943 1.434.944.415.943-2.339.943 1.848.944-.943.943 4.376.944-.038 1.887 2.15.943-.038.943-.188.944 2.338.943-.679.944.264.943-3.13.943.754.944.226.943.076 2.83-4.338.944 3.659.943-2.565.944 2.15.943 1.66.944 1.32.943-1.056.944 3.696.943-2.565.943-.264.944-5.431.943-3.395.944-4.187.943.49.944-3.96.943-.302.943 2.565.944 5.054.943.453.944 4.187 1.887 2.942.943.603.943-1.358.944-2.942.943 1.51.944-3.433.943-1.962.944-1.357.943-3.66 1.887-3.205.943-4.828.944-.264 1.887-3.546.943 3.508.943 1.509.944.037.943 5.055.944.34.943 2.866.944 3.545.943-.075.943-1.81.944.64.943-5.318.944-2.678 1.886-11.957.944-2.942.943-1.999.944-2.338.943 2.15.944-1.735.943 1.357.943 3.282.944-1.282.943 3.017.944 5.13.943-6.903.944-.905.943-6.752.943-14.22 1.887-21.876 1.887-43.075.944-39.492 1.886-86.678.944-14.635.943-9.731h0" style="fill:none;stroke:#d55e00;stroke-linecap:round;stroke-width:1.5" id="line2d_3"/><path clip-path="url(#p192e18e299)" d="M149.973 362.548h47.171l.943-3.842h1.887l.944-1.921h.943l1.887-11.527.943-3.842.944-1.921.943-5.763h.944l.943-9.606.944-3.842.943-1.921.943 15.369.944-7.685.943-19.21.944-15.37.943 13.448 1.887 30.738.943-23.053.944 7.684.943 51.87.944 38.42.943-9.605.944-3.842.943-9.605.943 24.974.944 5.763.943-28.816.944-21.132.943 7.684h1.887l.943-9.605.944-7.684.943 3.842h.944l.943-1.921.943 3.842.944 7.684.943 3.842.944 11.527.943-3.842h.944l.943 9.605.943-5.763.944-1.921.943 1.92.944-3.841.943 7.684h.944l.943-17.29.943-7.684.944-5.763.943-7.685.944-3.842.943-5.763h.944l.943 15.369.943 13.447 1.887 7.685.944 1.92h1.887l.943-7.684.943-5.763 1.887-3.842.944-5.763h1.887l.943-5.764h2.83l.944 7.685h1.886l.944 11.526h.943l.944-1.92h.943l.944-5.764h1.886l.944-5.763h.943l.944 3.842h.943l.944 3.842h1.886l.944-3.842.943 1.92.944-3.841.943-1.921.944-3.842h2.83l.943-1.922.944 1.922 1.887 7.684h2.83l.943-1.921.944 1.92.943-3.841.944-5.764h1.886l.944 11.527.943 1.921.944-1.921.943 3.842.944 7.684h1.886l1.887-7.684.944-1.921 1.886-7.684h1.887l.944-5.764.943 9.606.944 3.842.943 1.921h2.83l.944 1.921.943-5.763.944-3.842.943 1.92h2.83l.944 1.922h.943l.944 1.921 1.886-3.842h1.887l.944-3.842h.943l.944 1.92.943-1.92.943 1.92h1.887l.944 3.843 1.887-7.684 1.886 3.842h1.887l.944-3.842.943 7.684.944-3.842.943 1.92.943-1.92h1.887l.944 3.842.943-9.605.944 13.447.943-1.921h2.83l.944-3.842.943 11.526.943-11.526.944-1.921h2.83l.944-1.921.943-5.764.943 5.764.944 3.842h2.83l.944 9.605h1.886l.944-1.92h2.83l.944-9.606.943-1.921.943-11.527.944-17.29.943-3.842h1.887l.944 3.842.943-7.684.943 17.29.944 24.974.943-1.921 1.887-11.527h.944l.943 21.132.943-13.447.944 1.92.943 15.37 1.887 23.052.944-7.684.943-19.21.943 3.841 1.887-38.421 1.887-11.527.943-3.842.944 13.448.943-1.921.944 13.447.943 9.606h1.887l.943-1.921.944-11.527.943 17.29.944-30.738.943-3.842h1.887l.943 19.211.944-9.605.943-36.5.944 44.184 1.887-19.21h.943l.943-1.922.944 23.053.943 34.58.944-1.922.943 40.343.944-19.21h.943l.943-3.843.944-5.763.943-21.132.944-46.106.943-73 .944 46.105h.943l.943 5.763.944-11.526.943 21.132.944 26.895.943 74.922.944 3.842h.943l.943-11.526.944 15.368.943-15.368.944 38.421.943-44.185.943-21.132h.944l.943-19.21.944-1.921.943-34.58.944-44.185.943 48.027h1.887l.943 19.211h.944l.943 53.79.944-1.92.943-32.66h2.83l.944-28.815.943-5.764.944 3.843.943-23.053.943-19.211h.944l.943 26.895.944 38.422.943-11.527.944 17.29.943 26.895.943 38.422h.944l.943 21.131.944-32.658.943 11.527.944 1.92.943 9.606.943-19.21h.944l.943-101.818.944 51.87.943-1.922.944-15.369.943-38.421.943-9.606h.944l.943 119.107.944-24.974.943-46.106h.944l.943 42.264.943 19.211h.944l.943-90.29.944-21.133.943 78.765.943 7.684.944-13.448.943-23.053h.944l.943 61.475h.944l.943-40.343.943 1.921.944-3.842.943 26.895.944-13.447.943-38.422.944 28.816.943 1.921.943-24.974.944-7.684.943-13.447.944 26.895.943-15.369.944-23.053.943-5.763.943 38.421.944-1.92h.943l.944-13.448.943 26.895.944 19.21h.943l.943-40.342.944 26.895h1.887l.943-21.132.944-17.29.943 3.843.943 42.263.944-17.29h1.887l.943 15.37.944 7.684.943 1.92.943-30.736.944-3.843h.943l.944-17.29.943 26.896.943-5.763.944 5.763.943-9.606h1.887l.944 34.58.943-36.5.943 3.841 1.887 9.606v21.132l.944 11.526.943-1.92.944-17.29.943 24.973.943 5.764.944-21.132.943-9.606.944-7.684.943-5.763h1.887l1.887 3.842.943 17.29h.944l.943 17.29h.944l.943-19.211.943-11.527.944 7.684.943-3.842.944-7.684.943-11.526h.944l.943 13.447.943 7.684.944-11.526.943-1.921.944 21.132.943 3.842h.944l.943-11.527.943-1.92.944 15.368h.943l.944-9.605.943-1.922h.943l.944 11.527.943-1.921.944-7.684.943-5.764.944-3.842h1.886l.944-7.684h.943l.944-3.842h5.66l.944 1.92.943 5.764h3.774l.943-5.763h.944l.943-3.842h3.774l.943 11.526.944 1.921h4.717l.943-5.763.944-1.921h.943l.944-7.684h4.717l.943-1.922.944 15.37h4.717l.943 1.92.943-9.605h3.774l1.887-3.842.943 3.842h3.774l.944 3.842.943 1.921.943-13.448h1.887l.944-40.342 1.887-7.685.943-9.605.943 13.448h1.887l.944 67.237 1.887 3.843.943 19.21.943 5.764h1.887l.944-32.659.943 1.921.944-9.605.943-17.29.943-9.605h1.887l.944 5.763.943 1.921.944 19.21.943 11.527.943 5.764h1.887l.944 15.368.943-5.763.943-11.526.944-5.764.943-3.842h1.887l.944-24.974.943-1.921.943-7.684.944 7.684.943-9.605h1.887l.944 23.053.943-3.843.943 11.527.944-1.921.943 9.605h1.887l.944-30.737.943 26.895.943 1.921.944-19.21.943 1.92h1.887l.944 9.606.943-13.448.943-5.763.944 21.132h2.83l.944 24.974.943-7.684.943 3.842 1.887-7.685h1.887l.944-17.29.943 5.764.943-5.763.944 5.763.943-11.526h1.887l.943 7.684.944-9.606.943 11.527.944-11.527.943 30.738h1.887l.943-23.053.944 13.447.943-5.763h.944l.943-17.29h1.887l.943 26.895.944-1.92h.943l.944 7.684.943 1.92h1.887l.943-23.052.944-9.606.943-1.92h.944l.943-3.843h1.887l.943 17.29.944 9.605.943-17.29.944-3.842.943-7.684h1.887l1.887-15.369.943 30.738.944-5.763.943 17.29h1.887l.943-15.37.944 1.922.943-23.053.944 11.526.943-1.92h1.887l.943 7.683.944-1.92.943 19.21 1.887-44.185h1.887l.943 23.053.944-1.92.943-28.817.944 11.526.943 15.37h1.887l.943-21.133h.944l.943 9.606.944-21.132.943 7.684.943-78.764.944-23.053.943 7.684.944-23.053.943-40.342.944 5.763.943-36.5.943 151.765.944 34.579.943-7.684h0" style="fill:none;stroke:#0072b2;stroke-linecap:round;stroke-width:1.5" id="line2d_4"/><path clip-path="url(#p192e18e299)" d="M117 362.548h725.4" style="fill:none;stroke:red;stroke-dasharray:1.5,2.475;stroke-dashoffset:0;stroke-width:1.5" id="line2d_5"/><path d="M117 576.72V77.76" style="fill:none;stroke:#d3d3d3;stroke-linecap:square;stroke-linejoin:miter;stroke-width:1.25" id="patch_3"/><path d="M117 576.72h725.4" style="fill:none;stroke:#d3d3d3;stroke-linecap:square;stroke-linejoin:miter;stroke-width:1.25" id="patch_4"/><g id="matplotlib.axis_1"><g id="xtick_1"><g style="fill:#696969" transform="matrix(.16 0 0 -.16 112.168 598.378)" id="text_1"><defs><path d="M9.813 72.906h9.859V5.078q0-13.187-5-19.14-5-5.954-16.094-5.954h-3.75v8.297h3.078q6.531 0 9.219 3.672Q9.813-4.39 9.813 5.078z" id="DejaVuSans-74"/><path d="M34.281 27.484q-10.89 0-15.093-2.484-4.204-2.484-4.204-8.5 0-4.781 3.157-7.594 3.156-2.797 8.562-2.797 7.485 0 12 5.297 4.516 5.297 4.516 14.078v2zm17.922 3.72V0H43.22v8.297Q40.14 3.328 35.547.953q-4.594-2.375-11.234-2.375-8.391 0-13.36 4.719Q6 8.016 6 15.922q0 9.219 6.172 13.906 6.187 4.688 18.437 4.688h12.61v.89q0 6.203-4.078 9.594-4.078 3.39-11.453 3.39-4.688 0-9.141-1.124-4.438-1.125-8.531-3.375v8.312q4.921 1.906 9.562 2.844 4.64.953 9.031.953 11.875 0 17.735-6.156 5.86-6.14 5.86-18.64z" id="DejaVuSans-97"/><path d="M54.89 33.016V0h-8.984v32.719q0 7.765-3.031 11.61-3.031 3.858-9.078 3.858-7.281 0-11.484-4.64-4.204-4.625-4.204-12.64V0H9.08v54.688h9.03v-8.5q3.235 4.937 7.594 7.374Q30.078 56 35.797 56q9.422 0 14.25-5.828 4.844-5.828 4.844-17.156z" id="DejaVuSans-110"/></defs><use xlink:href="#DejaVuSans-74"/><use x="29.492" xlink:href="#DejaVuSans-97"/><use x="90.771" xlink:href="#DejaVuSans-110"/></g></g><g id="xtick_2"><g style="fill:#696969" transform="matrix(.16 0 0 -.16 196.512 598.378)" id="text_2"><defs><path d="M34.188 63.188 20.797 26.906h26.812zm-5.579 9.718h11.188L67.578 0h-10.25l-6.64 18.703h-32.86L11.188 0H.78z" id="DejaVuSans-65"/><path d="M18.11 8.203v-29H9.077v75.484h9.031v-8.296q2.844 4.875 7.157 7.234Q29.594 56 35.594 56q9.968 0 16.187-7.906 6.235-7.907 6.235-20.797T51.78 6.484q-6.218-7.906-16.187-7.906-6 0-10.328 2.375-4.313 2.375-7.157 7.25zm30.578 19.094q0 9.906-4.079 15.547-4.078 5.64-11.203 5.64-7.14 0-11.218-5.64-4.079-5.64-4.079-15.547 0-9.906 4.078-15.547 4.079-5.64 11.22-5.64 7.124 0 11.202 5.64t4.078 15.547z" id="DejaVuSans-112"/><path d="M41.11 46.297q-1.516.875-3.297 1.281Q36.03 48 33.89 48q-7.625 0-11.703-4.953-4.079-4.953-4.079-14.234V0H9.08v54.688h9.03v-8.5q2.844 4.984 7.375 7.39Q30.031 56 36.531 56q.922 0 2.047-.125 1.125-.11 2.484-.36z" id="DejaVuSans-114"/></defs><use xlink:href="#DejaVuSans-65"/><use x="68.408" xlink:href="#DejaVuSans-112"/><use x="131.885" xlink:href="#DejaVuSans-114"/></g></g><g id="xtick_3"><g style="fill:#696969" transform="matrix(.16 0 0 -.16 286.551 598.378)" id="text_3"><defs><path d="M8.5 21.578v33.11h8.984V21.922q0-7.766 3.016-11.656 3.031-3.875 9.094-3.875 7.265 0 11.484 4.64 4.234 4.64 4.234 12.656v31h8.985V0h-8.984v8.406Q42.047 3.422 37.718 1q-4.313-2.422-10.032-2.422-9.421 0-14.312 5.86Q8.5 10.296 8.5 21.578zM31.11 56z" id="DejaVuSans-117"/><path d="M9.422 75.984h8.984V0H9.422z" id="DejaVuSans-108"/></defs><use xlink:href="#DejaVuSans-74"/><use x="29.492" xlink:href="#DejaVuSans-117"/><use x="92.871" xlink:href="#DejaVuSans-108"/></g></g><g id="xtick_4"><g style="fill:#696969" transform="matrix(.16 0 0 -.16 369.166 598.378)" id="text_4"><defs><path d="M39.406 66.219q-10.75 0-17.078-8.016-6.312-8-6.312-21.828 0-13.766 6.312-21.781 6.328-8 17.078-8 10.735 0 17.016 8 6.281 8.015 6.281 21.781 0 13.828-6.281 21.828-6.281 8.016-17.016 8.016zm0 8q15.328 0 24.5-10.281 9.188-10.282 9.188-27.563 0-17.234-9.188-27.516-9.172-10.28-24.5-10.28-15.375 0-24.593 10.25-9.204 10.265-9.204 27.546t9.204 27.563q9.218 10.28 24.593 10.28z" id="DejaVuSans-79"/><path d="M48.781 52.594v-8.407q-3.812 2.11-7.64 3.157-3.828 1.047-7.735 1.047-8.75 0-13.593-5.547-4.829-5.532-4.829-15.547 0-10.016 4.829-15.563 4.843-5.53 13.593-5.53 3.907 0 7.735 1.046 3.828 1.047 7.64 3.156V2.094Q45.016.344 40.984-.531q-4.015-.89-8.562-.89-12.36 0-19.64 7.765-7.266 7.765-7.266 20.953 0 13.375 7.343 21.031Q20.22 56 33.016 56q4.14 0 8.093-.86 3.953-.843 7.672-2.546z" id="DejaVuSans-99"/><path d="M18.313 70.219V54.688h18.5v-6.985h-18.5V18.016q0-6.688 1.828-8.594 1.828-1.906 7.453-1.906h9.218V0h-9.218q-10.407 0-14.36 3.875-3.953 3.89-3.953 14.14v29.688H2.687v6.984h6.594V70.22z" id="DejaVuSans-116"/></defs><use xlink:href="#DejaVuSans-79"/><use x="78.711" xlink:href="#DejaVuSans-99"/><use x="133.691" xlink:href="#DejaVuSans-116"/></g></g><g id="xtick_5"><g style="fill:#696969" transform="matrix(.16 0 0 -.16 457.462 598.378)" id="text_5"><use xlink:href="#DejaVuSans-74"/><use x="29.492" xlink:href="#DejaVuSans-97"/><use x="90.771" xlink:href="#DejaVuSans-110"/></g></g><g id="xtick_6"><g style="fill:#696969" transform="matrix(.16 0 0 -.16 540.862 598.378)" id="text_6"><use xlink:href="#DejaVuSans-65"/><use x="68.408" xlink:href="#DejaVuSans-112"/><use x="131.885" xlink:href="#DejaVuSans-114"/></g></g><g id="xtick_7"><g style="fill:#696969" transform="matrix(.16 0 0 -.16 630.902 598.378)" id="text_7"><use xlink:href="#DejaVuSans-74"/><use x="29.492" xlink:href="#DejaVuSans-117"/><use x="92.871" xlink:href="#DejaVuSans-108"/></g></g><g id="xtick_8"><g style="fill:#696969" transform="matrix(.16 0 0 -.16 713.517 598.378)" id="text_8"><use xlink:href="#DejaVuSans-79"/><use x="78.711" xlink:href="#DejaVuSans-99"/><use x="133.691" xlink:href="#DejaVuSans-116"/></g></g><g id="xtick_9"><g style="fill:#696969" transform="matrix(.16 0 0 -.16 801.812 598.378)" id="text_9"><use xlink:href="#DejaVuSans-74"/><use x="29.492" xlink:href="#DejaVuSans-97"/><use x="90.771" xlink:href="#DejaVuSans-110"/></g></g></g><g id="matplotlib.axis_2"><g id="ytick_1"><g style="fill:#696969" transform="matrix(.16 0 0 -.16 73.733 553.225)" id="text_10"><defs><path d="M10.594 35.5h62.593v-8.297H10.594z" id="DejaVuSans-8722"/><path d="M8.203 72.906h46.875v-4.203L28.61 0H18.312L43.22 64.594H8.203z" id="DejaVuSans-55"/><path d="M10.797 72.906h38.719v-8.312H19.828v-17.86q2.14.735 4.281 1.094 2.157.36 4.313.36 12.203 0 19.328-6.688 7.14-6.688 7.14-18.11 0-11.765-7.328-18.296-7.328-6.516-20.656-6.516-4.593 0-9.36.781-4.75.782-9.827 2.344v9.922q4.39-2.39 9.078-3.563 4.687-1.171 9.906-1.171 8.453 0 13.375 4.437 4.938 4.438 4.938 12.063 0 7.609-4.938 12.047-4.922 4.453-13.375 4.453-3.953 0-7.89-.875-3.922-.875-8.016-2.735z" id="DejaVuSans-53"/></defs><use xlink:href="#DejaVuSans-8722"/><use x="83.789" xlink:href="#DejaVuSans-55"/><use x="147.412" xlink:href="#DejaVuSans-53"/></g></g><g id="ytick_2"><g style="fill:#696969" transform="matrix(.16 0 0 -.16 73.733 491.692)" id="text_11"><defs><path d="M31.781 66.406q-7.61 0-11.453-7.5Q16.5 51.422 16.5 36.375q0-14.984 3.828-22.484 3.844-7.5 11.453-7.5 7.672 0 11.5 7.5 3.844 7.5 3.844 22.484 0 15.047-3.844 22.531-3.828 7.5-11.5 7.5zm0 7.813q12.266 0 18.735-9.703 6.468-9.688 6.468-28.141 0-18.406-6.468-28.11-6.47-9.687-18.735-9.687-12.25 0-18.718 9.688-6.47 9.703-6.47 28.109 0 18.453 6.47 28.14Q19.53 74.22 31.78 74.22z" id="DejaVuSans-48"/></defs><use xlink:href="#DejaVuSans-8722"/><use x="83.789" xlink:href="#DejaVuSans-53"/><use x="147.412" xlink:href="#DejaVuSans-48"/></g></g><g id="ytick_3"><g style="fill:#696969" transform="matrix(.16 0 0 -.16 73.733 430.16)" id="text_12"><defs><path d="M19.188 8.297h34.421V0H7.33v8.297q5.609 5.812 15.296 15.594 9.703 9.797 12.188 12.64 4.734 5.313 6.609 9 1.89 3.688 1.89 7.25 0 5.813-4.078 9.469-4.078 3.672-10.625 3.672-4.64 0-9.797-1.61-5.14-1.609-11-4.89v9.969Q13.767 71.78 18.938 73q5.188 1.219 9.485 1.219 11.328 0 18.062-5.672 6.735-5.656 6.735-15.125 0-4.5-1.688-8.531-1.672-4.016-6.125-9.485-1.218-1.422-7.765-8.187-6.532-6.766-18.453-18.922z" id="DejaVuSans-50"/></defs><use xlink:href="#DejaVuSans-8722"/><use x="83.789" xlink:href="#DejaVuSans-50"/><use x="147.412" xlink:href="#DejaVuSans-53"/></g></g><g id="ytick_4"><use xlink:href="#DejaVuSans-48" style="fill:#696969" transform="matrix(.16 0 0 -.16 97.32 368.627)" id="text_13"/></g><g id="ytick_5"><g style="fill:#696969" transform="matrix(.16 0 0 -.16 87.14 307.094)" id="text_14"><use xlink:href="#DejaVuSans-50"/><use x="63.623" xlink:href="#DejaVuSans-53"/></g></g><g id="ytick_6"><g style="fill:#696969" transform="matrix(.16 0 0 -.16 87.14 245.561)" id="text_15"><use xlink:href="#DejaVuSans-53"/><use x="63.623" xlink:href="#DejaVuSans-48"/></g></g><g id="ytick_7"><g style="fill:#696969" transform="matrix(.16 0 0 -.16 87.14 184.029)" id="text_16"><use xlink:href="#DejaVuSans-55"/><use x="63.623" xlink:href="#DejaVuSans-53"/></g></g><g id="ytick_8"><g style="fill:#696969" transform="matrix(.16 0 0 -.16 76.96 122.496)" id="text_17"><defs><path d="M12.406 8.297h16.11v55.625l-17.532-3.516v8.985l17.438 3.515h9.86V8.296H54.39V0H12.406z" id="DejaVuSans-49"/></defs><use xlink:href="#DejaVuSans-49"/><use x="63.623" xlink:href="#DejaVuSans-48"/><use x="127.246" xlink:href="#DejaVuSans-48"/></g></g><g style="fill:#696969" transform="matrix(0 -.2 -.2 0 65.573 379.813)" id="text_18"><defs><path d="M51.125 44H36.922l-4.11-16.313h14.313zm-7.328 27.781-5.078-20.265h14.265L58.11 71.78h7.813L60.89 51.516h15.234V44h-17.14l-4-16.313h15.53V20.22H53.079L48 0h-7.813l5.032 20.219H30.906L25.875 0h-7.86l5.079 20.219H7.719v7.468h17.187L29 44H13.281v7.516h17.625l4.985 20.265z" id="DejaVuSans-35"/><path d="M30.61 48.39q-7.22 0-11.422-5.64-4.204-5.64-4.204-15.453 0-9.813 4.172-15.453 4.188-5.64 11.453-5.64 7.188 0 11.375 5.655 4.203 5.672 4.203 15.438 0 9.719-4.203 15.406-4.187 5.688-11.375 5.688zm0 7.61q11.718 0 18.406-7.625 6.703-7.61 6.703-21.078 0-13.422-6.703-21.078-6.688-7.64-18.407-7.64-11.765 0-18.437 7.64-6.656 7.656-6.656 21.078 0 13.469 6.656 21.078Q18.844 56 30.609 56z" id="DejaVuSans-111"/><path d="M37.11 75.984V68.5h-8.594q-4.828 0-6.72-1.953-1.874-1.953-1.874-7.031v-4.828h14.797v-6.985H19.922V0H10.89v47.703H2.297v6.984h8.594V58.5q0 9.125 4.25 13.297 4.25 4.187 13.468 4.187z" id="DejaVuSans-102"/><path d="M44.281 53.078v-8.5q-3.797 1.953-7.906 2.922-4.094.984-8.5.984-6.688 0-10.031-2.047-3.344-2.046-3.344-6.156 0-3.125 2.39-4.906 2.391-1.781 9.626-3.39l3.078-.688q9.562-2.047 13.593-5.781 4.032-3.735 4.032-10.422 0-7.625-6.032-12.078-6.03-4.438-16.578-4.438-4.39 0-9.156.86Q10.688.296 5.422 2v9.281q4.984-2.594 9.812-3.89 4.829-1.282 9.579-1.282 6.343 0 9.75 2.172 3.421 2.172 3.421 6.125 0 3.656-2.468 5.61-2.453 1.953-10.813 3.765l-3.125.735q-8.344 1.75-12.062 5.39-3.704 3.64-3.704 9.985 0 7.718 5.47 11.906Q16.75 56 26.811 56q4.97 0 9.36-.734 4.406-.72 8.11-2.188z" id="DejaVuSans-115"/><path d="M56.203 29.594v-4.39H14.891q.593-9.282 5.593-14.142 5-4.859 13.938-4.859 5.172 0 10.031 1.266 4.86 1.265 9.656 3.812v-8.5Q49.266.734 44.187-.344 39.11-1.422 33.892-1.422q-13.094 0-20.735 7.61-7.64 7.625-7.64 20.625 0 13.421 7.25 21.296Q20.016 56 32.328 56q11.031 0 17.453-7.11 6.422-7.093 6.422-19.296zm-8.984 2.64q-.094 7.36-4.125 11.75-4.032 4.407-10.672 4.407-7.516 0-12.031-4.25-4.516-4.25-5.203-11.97z" id="DejaVuSans-101"/></defs><use xlink:href="#DejaVuSans-35"/><use x="83.789" xlink:href="#DejaVuSans-32"/><use x="115.576" xlink:href="#DejaVuSans-111"/><use x="176.758" xlink:href="#DejaVuSans-102"/><use x="211.963" xlink:href="#DejaVuSans-32"/><use x="243.75" xlink:href="#DejaVuSans-99"/><use x="298.73" xlink:href="#DejaVuSans-97"/><use x="360.01" xlink:href="#DejaVuSans-115"/><use x="412.109" xlink:href="#DejaVuSans-101"/><use x="473.633" xlink:href="#DejaVuSans-115"/></g></g><g style="fill:#696969" transform="matrix(.24 0 0 -.24 268.746 71.76)" id="text_19"><defs><path d="M9.813 72.906h13.28l32.329-60.984v60.984h9.562V0h-13.28L19.39 60.984V0H9.813z" id="DejaVuSans-78"/><path d="M4.203 54.688h8.985l11.234-42.672 11.172 42.672h10.593l11.235-42.672 11.187 42.672h8.985L63.28 0H52.688L40.922 44.828 29.109 0H18.5z" id="DejaVuSans-119"/><path d="M64.406 67.281v-10.39q-4.984 4.64-10.625 6.922-5.64 2.296-11.984 2.296-12.5 0-19.14-7.64-6.641-7.64-6.641-22.094 0-14.406 6.64-22.047 6.64-7.64 19.14-7.64 6.345 0 11.985 2.296 5.64 2.297 10.625 6.938V5.609Q59.234 2.094 53.437.33q-5.78-1.75-12.218-1.75-16.563 0-26.094 10.124-9.516 10.14-9.516 27.672 0 17.578 9.516 27.703 9.531 10.14 26.094 10.14 6.531 0 12.312-1.734 5.797-1.734 10.875-5.203z" id="DejaVuSans-67"/><path d="M3.328 72.906h9.953L28.61 11.281l15.282 61.625h11.093l15.328-61.625 15.282 61.625h10.015L77.297 0H64.89L49.516 63.281 33.984 0H21.578z" id="DejaVuSans-87"/><path d="M9.078 75.984h9.031V31.11l26.813 23.578H56.39l-29-25.578L57.625 0H45.906L18.11 26.703V0H9.08z" id="DejaVuSans-107"/><path d="M4.89 31.39h26.313v-8H4.891z" id="DejaVuSans-45"/><path d="M2.984 54.688H12.5L29.594 8.797l17.093 45.89h9.516L35.687 0H23.485z" id="DejaVuSans-118"/><path d="M11.719 12.406h10.297V0H11.719zm0 39.297h10.297v-12.39H11.719z" id="DejaVuSans-58"/><path d="M45.406 27.984q0 9.766-4.031 15.125-4.016 5.375-11.297 5.375-7.219 0-11.25-5.375-4.031-5.359-4.031-15.125 0-9.718 4.031-15.093t11.25-5.375q7.281 0 11.297 5.375 4.031 5.375 4.031 15.093zm8.985-21.203q0-13.953-6.203-20.765Q42-20.797 29.203-20.797q-4.734 0-8.937.703-4.203.703-8.157 2.172v8.735q3.954-2.141 7.813-3.157 3.86-1.031 7.86-1.031 8.843 0 13.234 4.61 4.39 4.609 4.39 13.937v4.453q-2.781-4.844-7.125-7.234Q33.938 0 27.875 0 17.828 0 11.672 7.656q-6.156 7.672-6.156 20.328 0 12.688 6.156 20.344Q17.828 56 27.875 56q6.063 0 10.406-2.39 4.344-2.391 7.125-7.22v8.297h8.985z" id="DejaVuSans-103"/></defs><use xlink:href="#DejaVuSans-78"/><use x="74.805" xlink:href="#DejaVuSans-101"/><use x="136.328" xlink:href="#DejaVuSans-119"/><use x="218.115" xlink:href="#DejaVuSans-32"/><use x="249.902" xlink:href="#DejaVuSans-67"/><use x="319.727" xlink:href="#DejaVuSans-97"/><use x="381.006" xlink:href="#DejaVuSans-115"/><use x="433.105" xlink:href="#DejaVuSans-101"/><use x="494.629" xlink:href="#DejaVuSans-115"/><use x="546.729" xlink:href="#DejaVuSans-32"/><use x="578.516" xlink:href="#DejaVuSans-87"/><use x="671.518" xlink:href="#DejaVuSans-101"/><use x="733.041" xlink:href="#DejaVuSans-101"/><use x="794.564" xlink:href="#DejaVuSans-107"/><use x="852.475" xlink:href="#DejaVuSans-45"/><use x="890.434" xlink:href="#DejaVuSans-111"/><use x="951.615" xlink:href="#DejaVuSans-118"/><use x="1010.795" xlink:href="#DejaVuSans-101"/><use x="1072.318" xlink:href="#DejaVuSans-114"/><use x="1107.057" xlink:href="#DejaVuSans-45"/><use x="1139.141" xlink:href="#DejaVuSans-87"/><use x="1232.143" xlink:href="#DejaVuSans-101"/><use x="1293.666" xlink:href="#DejaVuSans-101"/><use x="1355.189" xlink:href="#DejaVuSans-107"/><use x="1413.1" xlink:href="#DejaVuSans-58"/><use x="1446.791" xlink:href="#DejaVuSans-32"/><use x="1478.578" xlink:href="#DejaVuSans-55"/><use x="1542.201" xlink:href="#DejaVuSans-32"/><use x="1573.988" xlink:href="#DejaVuSans-97"/><use x="1635.268" xlink:href="#DejaVuSans-118"/><use x="1694.447" xlink:href="#DejaVuSans-103"/></g><g id="legend_1"><path d="M128.2 184.5h136.45q3.2 0 3.2-3.2V88.96q0-3.2-3.2-3.2H128.2q-3.2 0-3.2 3.2v92.34q0 3.2 3.2 3.2z" style="fill:none;opacity:.8;stroke:#ccc;stroke-linejoin:miter" id="patch_5"/><path d="M131.4 98.718h32" style="fill:none;stroke:#000;stroke-linecap:round;stroke-width:1.5" id="line2d_6"/><g style="fill:#696969" transform="matrix(.16 0 0 -.16 176.2 104.317)" id="text_20"><defs><path d="M8.688 72.906h9.921V28.61q0-11.718 4.235-16.875 4.25-5.14 13.781-5.14 9.469 0 13.719 5.14 4.25 5.157 4.25 16.875v44.297H64.5V27.391q0-14.25-7.063-21.532-7.046-7.28-20.812-7.28-13.828 0-20.89 7.28-7.047 7.282-7.047 21.532z" id="DejaVuSans-85"/><path d="M53.516 70.516V60.89q-5.61 2.687-10.594 4-4.984 1.328-9.625 1.328-8.047 0-12.422-3.125t-4.375-8.89q0-4.845 2.906-7.313 2.907-2.453 11.016-3.97l5.953-1.218q11.031-2.11 16.281-7.406 5.25-5.297 5.25-14.172 0-10.61-7.11-16.078-7.093-5.469-20.812-5.469-5.172 0-11.015 1.172Q13.14.922 6.89 3.219v10.156q6-3.36 11.765-5.078 5.766-1.703 11.328-1.703 8.438 0 13.032 3.312 4.593 3.328 4.593 9.485 0 5.359-3.297 8.39-3.296 3.032-10.812 4.547L27.484 33.5q-11.03 2.188-15.968 6.875-4.922 4.688-4.922 13.047 0 9.672 6.812 15.234 6.813 5.563 18.766 5.563 5.14 0 10.453-.938 5.328-.922 10.89-2.765z" id="DejaVuSans-83"/></defs><use xlink:href="#DejaVuSans-85"/><use x="73.193" xlink:href="#DejaVuSans-83"/></g><path d="M131.4 122.203h32" style="fill:none;stroke:#009e73;stroke-linecap:round;stroke-width:1.5" id="line2d_8"/><g style="fill:#696969" transform="matrix(.16 0 0 -.16 176.2 127.802)" id="text_21"><use xlink:href="#DejaVuSans-78"/><use x="74.805" xlink:href="#DejaVuSans-74"/></g><path d="M131.4 145.688h32" style="fill:none;stroke:#d55e00;stroke-linecap:round;stroke-width:1.5" id="line2d_10"/><g style="fill:#696969" transform="matrix(.16 0 0 -.16 176.2 151.287)" id="text_22"><defs><path d="M19.672 34.813V8.108H35.5q7.953 0 11.781 3.297 3.844 3.297 3.844 10.078 0 6.844-3.844 10.078-3.828 3.25-11.781 3.25zm0 29.984V42.828h14.61q7.218 0 10.75 2.703 3.546 2.719 3.546 8.282 0 5.515-3.547 8.25-3.531 2.734-10.75 2.734zm-9.86 8.11h25.204q11.28 0 17.375-4.688Q58.5 63.53 58.5 54.89q0-6.703-3.125-10.657-3.125-3.953-9.188-4.922 7.282-1.562 11.313-6.53 4.031-4.954 4.031-12.376 0-9.765-6.64-15.093Q48.25 0 35.984 0H9.812z" id="DejaVuSans-66"/></defs><use xlink:href="#DejaVuSans-66"/><use x="68.604" xlink:href="#DejaVuSans-101"/><use x="130.127" xlink:href="#DejaVuSans-114"/><use x="169.49" xlink:href="#DejaVuSans-103"/><use x="232.967" xlink:href="#DejaVuSans-101"/><use x="294.49" xlink:href="#DejaVuSans-110"/></g><path d="M131.4 169.173h32" style="fill:none;stroke:#0072b2;stroke-linecap:round;stroke-width:1.5" id="line2d_12"/><g style="fill:#696969" transform="matrix(.16 0 0 -.16 176.2 174.773)" id="text_23"><defs><path d="M44.39 34.188q3.172-1.079 6.172-4.594 3-3.516 6.032-9.672L66.609 0H56l-9.313 18.703q-3.624 7.328-7.015 9.719-3.39 2.39-9.25 2.39h-10.75V0h-9.86v72.906h22.266q12.5 0 18.656-5.234 6.157-5.219 6.157-15.766 0-6.89-3.203-11.437-3.204-4.532-9.297-6.282zM19.673 64.797V38.922h12.406q7.125 0 10.766 3.297 3.64 3.297 3.64 9.687 0 6.39-3.64 9.64-3.64 3.25-10.766 3.25z" id="DejaVuSans-82"/><path d="M54.89 33.016V0h-8.984v32.719q0 7.765-3.031 11.61-3.031 3.858-9.078 3.858-7.281 0-11.484-4.64-4.204-4.625-4.204-12.64V0H9.08v75.984h9.03V46.188q3.235 4.937 7.594 7.374Q30.078 56 35.797 56q9.422 0 14.25-5.828 4.844-5.828 4.844-17.156z" id="DejaVuSans-104"/><path d="M45.406 46.39v29.594h8.985V0h-8.985v8.203Q42.578 3.328 38.25.953q-4.313-2.375-10.375-2.375-9.906 0-16.14 7.906-6.22 7.922-6.22 20.813 0 12.89 6.22 20.797Q17.968 56 27.874 56q6.063 0 10.375-2.375 4.328-2.36 7.156-7.234zm-30.61-19.093q0-9.906 4.079-15.547 4.078-5.64 11.203-5.64 7.125 0 11.219 5.64 4.11 5.64 4.11 15.547 0 9.906-4.11 15.547-4.094 5.64-11.219 5.64-7.125 0-11.203-5.64-4.078-5.64-4.078-15.547z" id="DejaVuSans-100"/></defs><use xlink:href="#DejaVuSans-82"/><use x="64.982" xlink:href="#DejaVuSans-117"/><use x="128.361" xlink:href="#DejaVuSans-116"/><use x="167.57" xlink:href="#DejaVuSans-104"/><use x="230.949" xlink:href="#DejaVuSans-101"/><use x="292.473" xlink:href="#DejaVuSans-114"/><use x="333.586" xlink:href="#DejaVuSans-102"/><use x="368.791" xlink:href="#DejaVuSans-111"/><use x="429.973" xlink:href="#DejaVuSans-114"/><use x="469.336" xlink:href="#DejaVuSans-100"/></g></g></g></g><defs><clipPath id="p192e18e299"><path d="M117 77.76h725.4v498.96H117z"/></clipPath></defs></svg>