<svg height="864" viewBox="0 0 936 648" width="1248" xmlns="http://www.w3.org/2000/svg" xmlns:xlink="http://www.w3.org/1999/xlink"><defs><style>*{stroke-linecap:butt;stroke-linejoin:round}</style></defs><g id="figure_1"><path d="M0 648h936V0H0z" style="fill:#fff" id="patch_1"/><g id="axes_1"><path d="M117 576.72h725.4V77.76H117z" style="fill:none" id="patch_2"/><path clip-path="url(#p0cf2ab2321)" d="m149.973 351.329 40.977-.114 4.765-.24.953-.1.953-.226.953-.374 1.906-1.12.953-.823 4.765-4.84.953-.988 1.906-.414.953-.571 1.906.015.953-.372.953.059.953.326.953.18 2.858 2.653.953 1.569.953 1.974.953.632.953 1.655.953 1.075.953.757.953.915.953.354.953-.007.953.379.953-.769.953-.28.953-.066.953-.595.953-.816.953-1.059.953-.364.953.66.953-.035.953.122.953.633.953.908.953 1.24.953.227.953-.336 1.906-.017.953-.174.953.402.953-.037.953.593.953.352 2.858.161.953-.557.953-.385.953-.513.953-.97.953-.009.953-.6.953-.032 1.906.137.953-.263.953.786.953.086.953.71.953.225 1.906-.647.953.047.953-.627.953-.45.953-.632.953-.264.953-.387 1.906.525.953.736.953.44 1.906-.465.953.837.952-.42.953-.287.953-.635.953-.915.953.007.953-.371.953-.97.953-.44.953-.764.953-.957.953-.464 2.86-2.964.952-.407.953-.667.953.15.953-.358 1.906-.331 1.906.638.953.893.953.137.953.866.953.398.953 1.14.953.063.953-.341.953-.883 1.906-1.39.952.068.953-1.3 2.86 2.94.952 1.807.953 1.343.953.85.953 2.435.953.011.953-.294.953 1.42.953-.11.953.208.953.494.953-.524.953.798.953 1.619.953-.526.953 1.247.953.84 1.906 2.322.953.396.953-.948.953-.126.953-1.29.953-1.064.953-1.544.953-.905.953-.71.953.33.952.458 1.906 2.185.953 1.34.953.52.953.994.953.139.953.392.953-1.42.953-.69.953-1.539 1.906-1.769.953-.6.953-1.237.953.77.953-1.01.953 1.721.953-.136.953-.907.953.22.953.513.953.84.953 2.265.953-1.561 1.906 2.177.953.09.953-.769 1.906-5.492.953-.572.953-1.768 1.905-1.328.953.038.953-.72.953 1.373.953.414.953.834.953-.496 1.906.442.953 4.044.953-.922.953.2.953-.15.953.76.953-.476.953.36.953-4.836.953.81.953-1.186.953-.992.953-.724.953.138.953-1.356.953 4.474.953-1.402.953.467.953.113.953-.694.953.312.953.751.953-3.609.952.605.953.278.953-.091.953-.378.953-2.802.953-.99.953.932.953-.86.953-1.505.953-.653.953.03.953 2.29.953-.3.953-1.154.953-.48.953-.97.953-1.718.953-2.085.953-4.093.953-1.672.953-1.936.953-3.324.953-.976.953-1.318.953-1.782.953.978.953-.29.953.037.953 2.887.953.612.953 2.092.953 3.55.952 2.292 1.906 5.582.953.641.953 2.392.953 12.29.953 1.178.953 3.791.953 1.166.953 2.838.953 1.118.953-1.392.953-22.598.953-2.104.953-8.486.953-4.59.953-5.537.953-3.302.953.23.953 12.165.953-2.678.953 5.95.953 2.666.953 4.594.953 5.902.953-.744.953-.567.953 8.9 1.906 3.635.953-.485.953-1.706.952 4.783.953 6.429.953 13.715.953-4.149.953 2.667.953 1.49.953-.103.953-2.07.953-9.266.953-22.294.953-5.874 1.906-17.334.953-3.924.953-2.93.953-1.337.953-12.16.953 12.98.953 4.896.953 10.018.953 4.426.953 6.086.953 10.22.953 24.322.953 1.138.953 5.072.953 6.767.953 4.309.953 1.95.953.933.953-1.433.953-1.752.953.251.952-11.412.953-.763.953-1.601.953-2.805.953-2.42.953-.018.953-2.783.953 3.421.953-.105.953.666.953 1.84.953.927.953-.597.953 1.206.953 3.873.953-1.873.953-1.178.953-2.33.953-.594.953-.97.953-.342.953-1.266.953 1.473.953-.045.953 1.571.953-.937.953-.608.953-1.69 1.906-9.2.953-3.272.953-4.53.952-2.486.953-.894.953-.49.953.79.953 2.454.953 1.317.953 1.893.953 1.466.953-.109.953.745.953-4.603.953-1.42.953.094.953-.647.953-1.258.953.107.953-.994.953 8.524.953-.042.953-1.039.953-.337.953.228.953-1.349.953.195.953-3.958.953-.406.953-2.295.953-1.198.953-1.976.953-.16.953-1.6.953-2.095.952-.372.953 3.736.953.065.953 2.244.953.322.953 2.043.953 1.153.953.652.953-1.942.953.546.953-2.144.953.32.953-2.138.953 1.193.953-1.77.953.282.953 1.137.953 1.84.953 1.305.953 2.011.953-.34.953 3.59.953 1.805.953.078.953 1.286.953-.848.953.14.953 2.41.953-.81.953-.633.953.136.953-1.055.952.261.953-.436.953-2.896 2.86.615 1.905 1.264.953.38.953 1.813.953-.454 1.906-.17.953-.511.953-.735.953-.191.953-.685.953-.083.953-.29.953-.048 1.906 1.312 1.906-.774 1.906-.276.953-.788 1.906-1.017.953.47.953 1.877.953-.54.953.128.952.726.953 4.427 1.906-1.254.953-3.865.953.92.953-1.171.953-.522.953-9.85.953.12.953-.218.953 2.073.953-.688.953 1.14.953-.006.953 5.098.953-.167.953.38.953-.573.953-.363 2.859-2.085.953.01.953-.311.953.116 1.906-.5.953-5.416.953-.364 1.906.363.952 1.209.953-.95.953-1.395.953 7.484.953-1.07.953-.744.953-.429.953-4.735.953-.517.953.727 1.906-.51 1.906-.203.953.793.953-.366.953-1.576.953-4.842.953-1.582.953-.506.953-.15.953-1.146.953-2.9 1.906-.766.953-.995.953.118.953-.483.953-1.04.953.137.953-.251.953.467.952-.688 1.906-.955.953.064.953 3.596.953-1.797.953 1.92.953 3.022 1.906 1.15.953-4.342.953 3.354.953 3.879.953-1.056.953.775.953-2.481.953 1.247.953 8.41.953-2.688.953.307.953-.79.953 1.804.953 2.689.953-.548.953-.862.953-.47.953-3.827.953 4.545.953.084.953 2.844.953-.077.953 24.688.952-14.838.953 7.583.953-.787.953 1.216.953-3.07.953.807.953-46.67.953 32.813.953-1.453.953 1.198.953-.656.953 1.545.953-.596.953 32.319.953-14.258.953.987.953 1.285.953 1.99.953 1.23.953.694.953-7.203.953-.69.953-.422.953-1.743.953-1.44.953-1.045.953.304.953.988.953-.215.953-1.863 2.859-.308.952-.634.953 3.053.953-3.143.953 1.91.953.638.953.172.953-.35.953-.218.953-5.372.953 4.635.953.06.953-1.066.953-.352.953-.009.953.472.953 1.682 1.906-6.747 1.906-2.717.953-.374.953-.775.953-4.024.953 1.613.953 1.998.953.832.953-.183.953-.334.953-.161.953 1.941.953-1.873.953-2.712.952 1.745.953-3.917.953-3.054.953.19.953-2.299 1.906-.289.953-7.276 1.906 11.01.953-.708.953 1.348.953.592.953 1.107.953 14.187.953 6.626.953-.448.953 1.722.953-5.346 1.906-3.195 1.906-40.502.953-5.654.953-2.046.953 8.65.953 1.342.953 1.11.953 13.96.953 10.193.953 4.567.953 1.003.952-2.751.953.204.953 1.478.953-4.303.953.782 1.906-7.445h0" style="fill:none;stroke:#000;stroke-linecap:round;stroke-width:1.5" id="line2d_1"/><path clip-path="url(#p0cf2ab2321)" d="m149.973 351.328 41.93-.105 2.86-.255 1.905-.637.953-.604.953-1.244.953-.507.953-1.635.953-2.238.953-3.264.953-2.728.953-1.748 1.906-14.718.953-6.05.953-4.732.953-6.152.953-2.054.953-9.487.953 5.469.953-2.38.953-.298.953 2.367.953 8.319.953-.155.953 14.123.952 2.54.953 12.99.953 10.88.953 3.356.953 4.97.953 1.475.953 1.161.953-1.852.953-1.396.953-.234.953.57.953-6.798.953 6.592.953-8.746.953 3.604.953 2.23.953-4.124.953 2.297.953 8.909.953 1.064.953 9.815.953 6.592.953-5.339.953 4.92.953.511.953-3.06.953-2.384.953.172.953-4.58.953 4.4.953.402.953 4.577.953-2.15.952 4.953.953-2.644.953-.176.953-.423.953-1.882.953-5.775.953-1.693.953-7.132.953-4.396.953-2.222.953-2.782.953 1.475.953-.03.953 4.439.953 2.003.953 4.572.953-.776.953 1.107.953-4.937.953.076.953-1.266.953-1.077.953-.758.953 3.516.953.02.953 2.456.953 1.48.953-1.362.953 1.186.953-1.543.953-3.071.953.984.952-.381.953-2.393.953-.121.953-1.476.953 1.258.953.31.953-2.091 1.906-.168.953-.679.953.117.953-.645.953-7.627.953.176.953-.226.953.13.953.98.953-.335.953-.93.953 14.592.953.004 1.906-.461.953-1.266.953.855.953.47.953-6.408.953.109.953-.16 1.906.814.953-1.065.952-.616.953-.8.953 1.173.953.453.953 1.425.953.247 1.906 1.756.953-.113.953-3 .953-1.334.953-3.796 1.906-2.527.953-.612.953.239.953.737.953 1.651.953 3.018.953 1.902.953 1.329.953.762.953-.871.953 2.355.953-.6 3.812-3.377.953-.47.953-2.262.953.373.952 1.483.953-.251.953.842.953 1.023.953 3.511.953 2.054.953-1.43.953-1.952.953.59.953-.351.953-.197.953-3.198.953-1.458.953 1.806.953-.033.953-.885.953-.238.953-.65.953.57.953-.096.953-.654 2.859 1.446 2.859.595.953-.62.953.142.953-.08.953-.888.953-.168.953-.415.952.05.953.47.953-.712.953-.235.953.708.953.18.953.629.953-.201.953-1.161 1.906-.83.953-.167.953-1.182.953-.23.953-.55.953.386.953 1.328.953.901.953-.599.953 2.091.953-2.657.953.281.953 1.173.953-.825.953-.025.953-.78.953-2.636.953 4.237.953.754.953-.64.953-1.673.953-3.206 1.905 2.925.953-2.17.953-1.216.953-3.792 1.906 5.737.953-2.762.953-2.3.953-.826.953-2.917.953 6.374.953-3.185.953-.536.953 2.02.953-.558.953-.1.953 3.126.953-9.995.953 1.442.953-2.255.953-7.442.953.632 1.906-9.09.953 2.884.953-9.45.953 2.217.953 7.14.953-1.537.953 3.52.953 4.22.952 3.5.953 12.97.953-5.034h.953l.953 4.124.953 1.672.953-1.006.953 4.958.953-1.848.953 7.346.953-.343.953-1.002.953-.122.953-4.605 1.906-19.734.953-3.202.953-2.259.953.352.953-.029.953 15.007.953 2.54.953 17.043.953-3.612.953 9.974.953-4.518.953 4.995.953-9.466.953 12.425.953-12.14.953 11.993.953-8.997.952 8.926.953-5.507.953-3.847.953-7.782.953 16.243.953-5.028.953 6.633.953-3.356.953.239.953 3.03.953-7.142.953-17.621.953-204.401.953-14.89.953-5.133.953-8.344.953-4.522.953-1.626.953-2.623.953 394.356.953 17.957.953-3.738.953 11.608.953 9.12.953 13.879.953 10.418.953-185.526.953-7.204.953 18.712 1.906 13.267.953-10.732.953-2.707.952-7.434.953-.453 1.906-14.885.953-16.558.953 12.669.953 4.693.953 3.847 1.906 15.275.953 4.84.953 14.852 1.906-8.96.953 1.367.953-8.604.953-19.1.953-7.645.953-5.288.953-.046.953 9.253.953.679.953 1.554.953 9.723.953 3.13.953.796.953.529.953-8.495.953-9.953.953 2.225.953 3.06.953-2.846.952-6.324.953-8.951.953-2.079.953 3.441.953-2.54.953-6.554.953 2.854.953 4.166.953 6.998.953.96.953 5.334.953-2.958.953 2.05.953-4.204.953-2.888.953-2.338.953-2.766.953-5.657.953 5.221.953-1.898.953-.155.953 1.433.953-3.759.953 3.612.953.78.953-6.265.953 3.155.953 4.97.953-4.32.953 5.385.953-5.611.953-.591.952 4.258.953.888.953-9.186.953 9.542.953-.092.953 8.26 1.906 10.439.953-4.195.953 12.32.953-3.075.953 2.619.953-1.216.953-1.822.953-5.88.953 5.243.953-3.613.953-2.196.953-4.899.953-.737.953-.26.953 5.687.953-2.473.953 1.148.953 7.271.953 6.127.953 5.1.953 45.658.953-1.677.953 5.348.953 1.249.953-2.39.952.231.953-4.018.953-88.742.953 1.697.953-7.468.953-.65.953-.364.953-1.069.953 1.521.953 45.34.953-2.838.953 10.314.953.645.953-1.03.953-3.92.953-3.306.953-4.304.953-2.208.953-8.386.953-4.685.953-4.077.953 1.106.953-.427.953 1.852.953 1.425.953.029.953 1.257.953 2.997.953-.608.953.365.953-1.43.953-.104.953.306.952-.227.953-1.73.953-.947.953-.076.953.352.953-1.123.953-.138.953-.73.953.193.953.889 1.906-.197.953-.071.953-.788.953.691.953-.046.953-.285.953.256.953.473.953.302.953.478.953-.579 1.906-.674 1.906-.692.953-.042.953.243.953.37.953.51.953.319 1.905.465.953.256 4.765-3.487.953-.796.953-1.165 2.86-.017.952-.49 1.906.243.953-.36.953-1.057.953-.775.953-1.337.953-.31.953-.096.953-.47.953.667.953.356.953-.13.953.86.953-.039 1.906-1.307.953-1.605 3.811-.604.953.382.953 1.567.953.85.953-.728.953.004.953-1.136.953-2.8.953.57.953-1.927.953.52.953 1.948.953.922.953-2.506.953 5.997.953-.297.953.515.953.654.953-1.865.953.57.953 6.051.953-.763.953-.938.953 1.827.953-.985.953 1.115.953-1.911.953 2.133.953-2.255.953 2.247.953-2.343.952 8.57.953-4.38.953 3.437.953-7.485.953.285.953-1.127.953 3.558.953-14.491.953 10.216.953-4.525.953 5.108.953.49.953.298.953-2.028.953 6.524.953-5.443.953 6.093.953-.637.953 2.17.953 3.609.953 2.271 1.906 3.495.953-3.273.953 1.781.953-.377.953-4.79.953-2.309.953-.155.953-.876.953 1.413.953-3.181.953-.805 1.905 3.118.953-.98.953-.164.953.692.953 2.858.953 1.127.953 2.162.953-.44.953 1.668.953 2.238.953-1.077.953-3.39.953-.268.953-1.794.953-1.521.953-2.678.953-3.45.953-2.794.953 3.03.953-1.685.953-2.25.953 1.248.953 2.066.953.73.953 4.014.953-2.007.953-.348.953 3.005.953-.641.953-2.125.953-1.387.952-3.269.953-1.496.953-.26.953-4.459.953-2.007.953-.109.953.126.953-1.387.953.075.953-1.366.953 3.663.953 1.378.953-2.623.953.21.953 1.14.953 2.15.953 3.226.953-1.534.953-2.166.953 1.215.953-3.017.953-5.168 1.906-21.15.953-5.7.953-.209 1.906-.746.953 1.911.953 5.528.953 9.395.953 5.368.952 1.92.953 1.056.953 1.42.953-1.89.953-3.914 1.906-25.24h0" style="fill:none;stroke:#009e73;stroke-linecap:round;stroke-width:1.5" id="line2d_2"/><path clip-path="url(#p0cf2ab2321)" d="m149.973 351.328 35.26-.08 7.623-.36.953-.558.953.04.953-1.078.953-.759.953-1.677.953-6.428.953-1.518.953.32 1.906-7.547.953-1.916.953-.959.953-2.435.953-8.505.953-12.258.953-5.67.953-1.518.953-10.62.953-15.892.953.2.953-8.545.953-9.903.953 5.59.953-8.025.953 3.633.953 28.39.952 14.134.953 25.954.953 40.767.953 4.033.953 29.108.953 23.199.953-12.977.953-9.104.953-2.036.953-13.017.953-2.356.953-17.21.953-13.894.953 6.907.953 11.58.953.36.953-8.346 1.906 23.957.953 8.345.953 1.717.953.04.953-1.837.953 12.219.953-9.304.953-7.626.953-9.144h.953l.953-4.951.953 1.038.953-7.267.953 2.795.953-1.757.952 5.83.953-5.35.953 3.353.953-5.39.953-.2.953-3.034.953.12.953-4.592.953 2.475.953-11.739.953 2.396.953-.32.953-1.237 1.906.04.953-5.071.953 2.595.953-1.597.953-.36.953 3.834.953 2.635.953 1.198.953 3.234.953 6.908.953.2.953-2.716.953-1.357.953-2.516.953-1.397.953-2.715.953-4.912.953.839.952.32.953-1.358.953-.32.953-.559.953 4.712.953 2.036.953-.998.953 2.635.953-.319.953.28.953 1.557.953-2.715.953-13.696.953-3.394.953-.599.953-2.555.953.12.953-1.478.953.28.953 24.676.953 4.711.953-1.477.953 3.234.953-.599.953 1.717.953-1.597.953-13.137.953-1.477.953 1.158.953.918.953.759.953-.879.952 2.955.953 1.997.953 1.517.953-.12.953-.639.953-1.757.953-.28.953-2.634.953-1.518.953-2.116.953-.958.953-2.236.953 1.357.953-1.637 1.906 1.997.953-.719.953.998.953 1.597.953.919.953 1.876.953.64.953-.88.953 2.636.953-1.717 1.906-1.837.953.56.953-.879.953-.08.953-5.11.953 1.197.952-.639.953-2.036.953-.2.953 1.518.953 3.913.953 7.586.953 1.318 1.906 8.145.953-1.198.953-2.835.953-6.029.953-3.833.953-1.597.953-3.674.953-2.914.953-.2 1.906 4.033.953-.36.953 2.196 1.906 2.516.953 2.356.953-.64.953 1.039.953.2.953-1.997.953-.08 1.906-1.158.953.04.953-1.836.952.08.953-.36.953.24.953.04.953-2.955.953.32.953 2.555.953.24.953.399.953-1.118.953-.16.953 2.795.953-.639.953-2.795.953-1.278.953-.838.953.838.953-.12.953-1.557.953-.2.953 1.079 1.906.758.953-.998.953-.04.953-1.198.953-.12.953-.279.953.639.953.918.953-.359.953-2.036.952 2.036.953-1.437.953.758.953-.439.953-3.394.953.52.953 1.796.953-1.957.953 3.235.953-1.158.953-4.313.953 3.873.953-.838.953-.639.953.759.953-5.87.953 2.516.953 4.671.953-8.744.953-.36.953 1.797.953-3.913.953.72.953-13.377.953-5.39.953 5.91.953-5.67.953-2.596.953 1.437.953-.2.953 10.741.953 5.99.952-.12.953 7.586.953-6.308.953 5.79.953 7.825.953 2.396.953-8.704.953 11.54.953-3.754.953 12.537 1.906-13.176.953-4.392.953 5.59.953-21.362.953 2.116.953-6.07 1.906 15.533.953 6.389.953 15.812.953 11.38.953 8.704.953-.64.953-1.716.953-10.78.953-.76.953-17.448.953 7.746.953-6.988.953 8.266.953-1.518.952 4.472.953-5.989.953 2.516.953-4.912.953 5.71.953-5.95.953.999.953 3.394.953.679.953.479.953-7.587.953-8.704.953-174.25.953-13.815.953-9.942.953-1.956.953-6.948.953-.719.953-6.189.953 344.266.953 24.117.953 2.755.953 1.518.953 12.098.953 7.986.953 11.18.953-166.344.953-16.65 1.906 25.115.953 5.151.953-6.428.953-2.037.952-6.109.953 6.389.953-3.554.953-9.663.953-13.416.953 10.062.953 2.596.953 2.196.953 5.15.953 7.387.953 4.273.953 2.955.953-3.794.953-2.994.953 4.312.953-6.748.953-19.885.953-3.633.953 6.508.953.839.953 7.347.953.519.953-7.147.953 12.178.953.679.953-2.157.953.2.953-5.79.953-13.096.953 11.46.953-3.195.953-5.75.952-11.5.953-6.028.953-1.917.953 3.114.953-3.314.953-4.751.953 8.465 1.906 22.919.953-2.556.953 15.014.953-5.031.953 8.784.953-8.744.953-1.837.953-15.812.953 1.278.953-12.059.953 6.11.953-7.308.953 6.07.953-4.153.953 2.076.953 2.955.953 1.318.953-2.955.953 5.31.953 3.075.953-4.352.953 3.234.953-7.826.953.998.952.48.953-6.589.953-11.1.953 16.61.953 4.113.953 13.616.953 1.437.953 8.106.953 6.468.953 11.7.953-3.554.953 3.154.953-4.832.953 2.596.953-6.11.953 4.553.953-3.115 1.906-10.461.953 2.036.953-.958.953 2.316.953-4.352.953.519.953 6.668.953 3.593.953-.878.953 4.073.953-.919.953 3.474.953.679.953-3.514.952 2.196.953-.12.953-10.221.953 1.397.953-49.631.953-9.863.953.16.953-4.193.953-2.196.953 5.39.953-2.235.953 92.515.953 21.082.953-2.755.953-1.757.953-.2.953-2.315.953-.719.953-46.477.953-13.336.953-.28.953 2.516.953.32.953.798.953-1.398.953-1.797.953-1.237.953 1.357.953-2.116.953-.12.953.04.953 1.797.953.958.952 1.198 1.906-2.675.953-1.078.953-.56.953-1.397.953-1.158.953-1.357.953-.28.953 1.717.953.28.953-.12.953-.6.953.12.953.84.953.399.953-.6 1.906.999.953.958.953-.559.953-1.318.953-.12 1.906-1.237.953-.56.953-.398.953.598.953 1.478.953-.2.953.48.953.918.952.28 1.906 1.836.953-.4.953.36.953.04.953-1.717.953-.36 1.906-3.833.953-.718 1.906-2.596.953 1.039.953-.44 1.906 1.757 1.906-1.916.953-.28.953-1.318 1.906-1.996.953-1.797.953.32.953 1.517.953.32.953-.24.953 1.158.953-.759.953 1.877.953 1.277.952-.479.953 1.278.953 2.076.953 1.438.953-.44.953-1.996.953-2.755.953.759.953-4.512.953 2.795.953-2.236.953 1.996.953 1.038.953 4.632.953-5.23.953 6.029.953-8.585.953-.04.953 2.076.953.12.953-2.955.953 7.747.953-2.756.953 4.393.953 1.557.953-2.156.953 1.876.953.6 1.906 2.515.953 1.477.953-1.597.952 5.95.953-5.072.953.24.953-7.547.953-.559.953-.798.953 3.434.953-12.099.953 8.106.953-.24.953 6.11.953.399.953-.4.953-2.595.953 9.303.953-5.03.953 1.197.953-4.272.953.679.953 1.517.953.44.953-2.476.953 1.956.953-.998.953 4.632.953-.04 1.906 2.276.953-.04.953-.2.953 2.476.953-.719.953.28.952-3.315.953.799.953.24.953.08 2.86-4.592.952 3.873.953-2.715.953 2.275.953 1.757.953 1.398.953-1.118.953 3.913.953-2.715.953-.28.953-5.75.953-3.593.953-4.432.953.519.953-4.193.953-.32.953 2.716.953 5.35.953.48.953 4.432 1.906 3.114.953.639.953-1.437.953-3.115.953 1.597.952-3.633.953-2.077.953-1.437.953-3.873 1.906-3.394.953-5.11.953-.28 1.906-3.754.953 3.714.953 1.597.953.04.953 5.35.953.36.953 3.034.953 3.753.953-.08.953-1.916.953.679.953-5.63.953-2.835 1.906-12.657.953-3.115.953-2.116.953-2.476.953 2.276.953-1.837.953 1.438.953 3.474.953-1.358.952 3.194.953 5.43.953-7.306.953-.958.953-7.148.953-15.053.953-11.22h0" style="fill:none;stroke:#d55e00;stroke-linecap:round;stroke-width:1.5" id="line2d_3"/><path clip-path="url(#p0cf2ab2321)" d="M149.973 351.328h47.648l.953-4.067h1.906l.953-2.034h.953l1.906-12.202.953-4.067.953-2.034.953-6.1h.953l.953-10.169.953-4.067.953-2.034.953 16.27.953-8.135.953-20.336.953-16.27.953 14.236 1.906 32.538.952-24.404.953 8.135.953 54.908.953 40.673.953-10.168.953-4.067.953-10.169.953 26.438.953 6.1.953-30.504.953-22.37.953 8.135h1.906l.953-10.169.953-8.134.953 4.067h.953l.953-2.034.953 4.068.953 8.134.953 4.068.953 12.201.953-4.067h.953l.953 10.168.953-6.1.953-2.034.953 2.033.953-4.067.953 8.135h.953l.953-18.303.952-8.135.953-6.1.953-8.135.953-4.067.953-6.101h.953l.953 16.269.953 14.235 1.906 8.135.953 2.033h1.906l.953-8.134.953-6.101 1.906-4.067.953-6.101h1.906l.953-6.101h2.859l.953 8.134h1.906l.953 12.202h.953l.953-2.033h.953l.953-6.101h1.905l.953-6.101h.953l.953 4.067h.953l.953 4.067h1.906l.953-4.067.953 2.034.953-4.068.953-2.033.953-4.067h2.859l.953-2.034.953 2.034 1.906 8.134h2.859l.953-2.034.953 2.034.953-4.067.953-6.101h1.906l.953 12.202.953 2.033.952-2.033.953 4.067.953 8.135h1.906l1.906-8.135.953-2.034 1.906-8.134h1.906l.953-6.101.953 10.168.953 4.067.953 2.034h2.859l.953 2.034.953-6.101.953-4.068.953 2.034h2.859l.953 2.034h.953l.953 2.033 1.906-4.067h1.905l.953-4.067h.953l.953 2.033.953-2.033.953 2.033h1.906l.953 4.068 1.906-8.135 1.906 4.067h1.906l.953-4.067.953 8.135.953-4.068.953 2.034.953-2.034h1.906l.953 4.068.953-10.168.953 14.235.953-2.034h2.859l.953-4.067.953 12.202.953-12.202.953-2.034h2.858l.953-2.033.953-6.101.953 6.1.953 4.068h2.86l.952 10.168h1.906l.953-2.033h2.859l.953-10.169.953-2.033.953-12.202.953-18.303.953-4.067h1.906l.953 4.067.953-8.134.953 18.302.953 26.438.953-2.034 1.906-12.202h.953l.952 22.37.953-14.235.953 2.033.953 16.27 1.906 24.403.953-8.134.953-20.337.953 4.068 1.906-40.673 1.906-12.202.953-4.067.953 14.235.953-2.034.953 14.236.953 10.168h1.906l.953-2.033.953-12.202.953 18.302.953-32.538.953-4.067h1.906l.953 20.336.953-10.168.953-38.639.953 46.774 1.905-20.337h.953l.953-2.033.953 24.403.953 36.606.953-2.034.953 42.707.953-20.337h.953l.953-4.067.953-6.101.953-22.37.953-48.807.953-77.279.953 48.808h.953l.953 6.1.953-12.201.953 22.37.953 28.47.953 79.313.953 4.067h.953l.953-12.202.953 16.27.953-16.27.953 40.673.953-46.774.953-22.37h.953l.953-20.336.953-2.034.952-36.605.953-46.774.953 50.84h1.906l.953 20.337h.953l.953 56.942.953-2.033.953-34.572h2.86l.952-30.505.953-6.1.953 4.066.953-24.403.953-20.337h.953l.953 28.471.953 40.673.953-12.202.953 18.303.953 28.471.953 40.673h.953l.953 22.37.953-34.572.953 12.202.953 2.033.953 10.169.953-20.337h.953l.952-107.783.953 54.909.953-2.034.953-16.27.953-40.672.953-10.168h.953l.953 126.086.953-26.438.953-48.807h.953l.953 44.74.953 20.336h.953l.953-95.58.953-22.37.953 83.378.953 8.135.953-14.235.953-24.404h.953l.953 65.076h.953l.953-42.706.953 2.034.953-4.068.953 28.471.953-14.235.953-40.673.953 30.505.953 2.033.953-26.437.952-8.135.953-14.235.953 28.47.953-16.268.953-24.404.953-6.1.953 40.672.953-2.034h.953l.953-14.235.953 28.47.953 20.337h.953l.953-42.706.953 28.47h1.906l.953-22.37.953-18.302.953 4.067.953 44.74.953-18.303h1.906l.953 16.27.953 8.134.953 2.034.953-32.538.953-4.068h.953l.953-18.303.953 28.471.952-6.1.953 6.1.953-10.168h1.906l.953 36.606.953-38.64.953 4.068 1.906 12.202v18.302l.953 12.202.953-2.033.953-18.303.953 26.437.953 6.101.953-24.404.953-4.067.953-8.134.953-6.101h1.906l1.906 4.067.953 16.27h.953l.953 18.302h.953l.953-20.337.953-12.201.953 8.134.953-4.067.953-8.135.952-12.201h.953l.953 14.235.953 8.135.953-12.202.953-2.034.953 22.37.953 4.067h.953l.953-12.201.953-2.034.953 16.269h.953l.953-10.168.953-2.034h.953l.953 12.202.953-2.034.953-8.134.953-6.101.953-4.067h1.906l.953-8.135h.953l.953-4.067h5.718l.953 2.033.952 6.101h3.812l.953-6.1h.953l.953-4.068h3.812l.953 12.202.953 2.034h4.765l.953-6.101.953-2.034h.953l.953-8.134h4.765l.953-2.034.953 16.269h4.764l.953 2.034.953-10.169h3.812l1.906-4.067.953 4.067h3.812l.953 4.068.953 2.033.953-14.235h1.906l.953-42.707 1.906-8.134.953-10.168.953 14.235h1.906l.953 71.178 1.906 4.067.953 20.336.952 6.101h1.906l.953-34.572.953 2.034.953-10.168.953-18.303.953-10.168h1.906l.953 6.1.953 2.034.953 20.337.953 12.202.953 6.1h1.906l.953 16.27.953-6.101.953-12.202.953-6.101.953-4.067h1.906l.953-26.438.953-2.033.953-8.135.953 8.135.953-10.169h1.906l.953 24.404.952-4.067.953 12.202.953-2.034.953 10.168h1.906l.953-32.538.953 28.471.953 2.034.953-20.337.953 2.034h1.906l.953 10.168.953-14.235.953-6.101.953 22.37h2.859l.953 26.437.953-8.135.953 4.068 1.906-8.135h1.906l.953-18.303.953 6.101.953-6.1.953 6.1.953-12.201h1.905l.953 8.134.953-10.168.953 12.202.953-12.202.953 32.538h1.906l.953-24.404.953 14.236.953-6.101h.953l.953-18.303h1.906l.953 28.471.953-2.033h.953l.953 8.134.953 2.034h1.906l.953-24.404.953-10.168.953-2.034h.953l.953-4.067h1.906l.953 18.303.953 10.168.953-18.303.952-4.067.953-8.135h1.906l1.906-16.269.953 32.538.953-6.1.953 18.302h1.906l.953-16.269.953 2.034.953-24.404.953 12.202.953-2.034h1.906l.953 8.135.953-2.034.953 20.337 1.906-46.774h1.906l.953 24.404.953-2.034.953-30.505.953 12.202.953 16.27h1.906l.952-22.37h.953l.953 10.167.953-22.37.953 8.135.953-83.38.953-24.403.953 8.135h0" style="fill:none;stroke:#0072b2;stroke-linecap:round;stroke-width:1.5" id="line2d_4"/><path clip-path="url(#p0cf2ab2321)" d="M117 351.328h725.4" style="fill:none;stroke:red;stroke-dasharray:1.5,2.475;stroke-dashoffset:0;stroke-width:1.5" id="line2d_5"/><path d="M117 576.72V77.76" style="fill:none;stroke:#d3d3d3;stroke-linecap:square;stroke-linejoin:miter;stroke-width:1.25" id="patch_3"/><path d="M117 576.72h725.4" style="fill:none;stroke:#d3d3d3;stroke-linecap:square;stroke-linejoin:miter;stroke-width:1.25" id="patch_4"/><g id="matplotlib.axis_1"><g id="xtick_1"><g style="fill:#696969" transform="matrix(.16 0 0 -.16 111.91 598.378)" id="text_1"><defs><path d="M9.813 72.906h9.859V5.078q0-13.187-5-19.14-5-5.954-16.094-5.954h-3.75v8.297h3.078q6.531 0 9.219 3.672Q9.813-4.39 9.813 5.078z" id="DejaVuSans-74"/><path d="M34.281 27.484q-10.89 0-15.093-2.484-4.204-2.484-4.204-8.5 0-4.781 3.157-7.594 3.156-2.797 8.562-2.797 7.485 0 12 5.297 4.516 5.297 4.516 14.078v2zm17.922 3.72V0H43.22v8.297Q40.14 3.328 35.547.953q-4.594-2.375-11.234-2.375-8.391 0-13.36 4.719Q6 8.016 6 15.922q0 9.219 6.172 13.906 6.187 4.688 18.437 4.688h12.61v.89q0 6.203-4.078 9.594-4.078 3.39-11.453 3.39-4.688 0-9.141-1.124-4.438-1.125-8.531-3.375v8.312q4.921 1.906 9.562 2.844 4.64.953 9.031.953 11.875 0 17.735-6.156 5.86-6.14 5.86-18.64z" id="DejaVuSans-97"/><path d="M54.89 33.016V0h-8.984v32.719q0 7.765-3.031 11.61-3.031 3.858-9.078 3.858-7.281 0-11.484-4.64-4.204-4.625-4.204-12.64V0H9.08v54.688h9.03v-8.5q3.235 4.937 7.594 7.374Q30.078 56 35.797 56q9.422 0 14.25-5.828 4.844-5.828 4.844-17.156z" id="DejaVuSans-110"/></defs><use xlink:href="#DejaVuSans-74"/><use x="29.492" xlink:href="#DejaVuSans-97"/><use x="90.771" xlink:href="#DejaVuSans-110"/></g></g><g id="xtick_2"><g style="fill:#696969" transform="matrix(.16 0 0 -.16 197.123 598.378)" id="text_2"><defs><path d="M34.188 63.188 20.797 26.906h26.812zm-5.579 9.718h11.188L67.578 0h-10.25l-6.64 18.703h-32.86L11.188 0H.78z" id="DejaVuSans-65"/><path d="M18.11 8.203v-29H9.077v75.484h9.031v-8.296q2.844 4.875 7.157 7.234Q29.594 56 35.594 56q9.968 0 16.187-7.906 6.235-7.907 6.235-20.797T51.78 6.484q-6.218-7.906-16.187-7.906-6 0-10.328 2.375-4.313 2.375-7.157 7.25zm30.578 19.094q0 9.906-4.079 15.547-4.078 5.64-11.203 5.64-7.14 0-11.218-5.64-4.079-5.64-4.079-15.547 0-9.906 4.078-15.547 4.079-5.64 11.22-5.64 7.124 0 11.202 5.64t4.078 15.547z" id="DejaVuSans-112"/><path d="M41.11 46.297q-1.516.875-3.297 1.281Q36.03 48 33.89 48q-7.625 0-11.703-4.953-4.079-4.953-4.079-14.234V0H9.08v54.688h9.03v-8.5q2.844 4.984 7.375 7.39Q30.031 56 36.531 56q.922 0 2.047-.125 1.125-.11 2.484-.36z" id="DejaVuSans-114"/></defs><use xlink:href="#DejaVuSans-65"/><use x="68.408" xlink:href="#DejaVuSans-112"/><use x="131.885" xlink:href="#DejaVuSans-114"/></g></g><g id="xtick_3"><g style="fill:#696969" transform="matrix(.16 0 0 -.16 288.03 598.378)" id="text_3"><defs><path d="M8.5 21.578v33.11h8.984V21.922q0-7.766 3.016-11.656 3.031-3.875 9.094-3.875 7.265 0 11.484 4.64 4.234 4.64 4.234 12.656v31h8.985V0h-8.984v8.406Q42.047 3.422 37.718 1q-4.313-2.422-10.032-2.422-9.421 0-14.312 5.86Q8.5 10.296 8.5 21.578zM31.11 56z" id="DejaVuSans-117"/><path d="M9.422 75.984h8.984V0H9.422z" id="DejaVuSans-108"/></defs><use xlink:href="#DejaVuSans-74"/><use x="29.492" xlink:href="#DejaVuSans-117"/><use x="92.871" xlink:href="#DejaVuSans-108"/></g></g><g id="xtick_4"><g style="fill:#696969" transform="matrix(.16 0 0 -.16 371.524 598.378)" id="text_4"><defs><path d="M39.406 66.219q-10.75 0-17.078-8.016-6.312-8-6.312-21.828 0-13.766 6.312-21.781 6.328-8 17.078-8 10.735 0 17.016 8 6.281 8.015 6.281 21.781 0 13.828-6.281 21.828-6.281 8.016-17.016 8.016zm0 8q15.328 0 24.5-10.281 9.188-10.282 9.188-27.563 0-17.234-9.188-27.516-9.172-10.28-24.5-10.28-15.375 0-24.593 10.25-9.204 10.265-9.204 27.546t9.204 27.563q9.218 10.28 24.593 10.28z" id="DejaVuSans-79"/><path d="M48.781 52.594v-8.407q-3.812 2.11-7.64 3.157-3.828 1.047-7.735 1.047-8.75 0-13.593-5.547-4.829-5.532-4.829-15.547 0-10.016 4.829-15.563 4.843-5.53 13.593-5.53 3.907 0 7.735 1.046 3.828 1.047 7.64 3.156V2.094Q45.016.344 40.984-.531q-4.015-.89-8.562-.89-12.36 0-19.64 7.765-7.266 7.765-7.266 20.953 0 13.375 7.343 21.031Q20.22 56 33.016 56q4.14 0 8.093-.86 3.953-.843 7.672-2.546z" id="DejaVuSans-99"/><path d="M18.313 70.219V54.688h18.5v-6.985h-18.5V18.016q0-6.688 1.828-8.594 1.828-1.906 7.453-1.906h9.218V0h-9.218q-10.407 0-14.36 3.875-3.953 3.89-3.953 14.14v29.688H2.687v6.984h6.594V70.22z" id="DejaVuSans-116"/></defs><use xlink:href="#DejaVuSans-79"/><use x="78.711" xlink:href="#DejaVuSans-99"/><use x="133.691" xlink:href="#DejaVuSans-116"/></g></g><g id="xtick_5"><g style="fill:#696969" transform="matrix(.16 0 0 -.16 460.697 598.378)" id="text_5"><use xlink:href="#DejaVuSans-74"/><use x="29.492" xlink:href="#DejaVuSans-97"/><use x="90.771" xlink:href="#DejaVuSans-110"/></g></g><g id="xtick_6"><g style="fill:#696969" transform="matrix(.16 0 0 -.16 544.956 598.378)" id="text_6"><use xlink:href="#DejaVuSans-65"/><use x="68.408" xlink:href="#DejaVuSans-112"/><use x="131.885" xlink:href="#DejaVuSans-114"/></g></g><g id="xtick_7"><g style="fill:#696969" transform="matrix(.16 0 0 -.16 635.864 598.378)" id="text_7"><use xlink:href="#DejaVuSans-74"/><use x="29.492" xlink:href="#DejaVuSans-117"/><use x="92.871" xlink:href="#DejaVuSans-108"/></g></g><g id="xtick_8"><g style="fill:#696969" transform="matrix(.16 0 0 -.16 719.357 598.378)" id="text_8"><use xlink:href="#DejaVuSans-79"/><use x="78.711" xlink:href="#DejaVuSans-99"/><use x="133.691" xlink:href="#DejaVuSans-116"/></g></g><g id="xtick_9"><g style="fill:#696969" transform="matrix(.16 0 0 -.16 808.53 598.378)" id="text_9"><use xlink:href="#DejaVuSans-74"/><use x="29.492" xlink:href="#DejaVuSans-97"/><use x="90.771" xlink:href="#DejaVuSans-110"/></g></g></g><g id="matplotlib.axis_2"><g id="ytick_1"><g style="fill:#696969" transform="matrix(.16 0 0 -.16 73.733 552.82)" id="text_10"><defs><path d="M10.594 35.5h62.593v-8.297H10.594z" id="DejaVuSans-8722"/><path d="M8.203 72.906h46.875v-4.203L28.61 0H18.312L43.22 64.594H8.203z" id="DejaVuSans-55"/><path d="M10.797 72.906h38.719v-8.312H19.828v-17.86q2.14.735 4.281 1.094 2.157.36 4.313.36 12.203 0 19.328-6.688 7.14-6.688 7.14-18.11 0-11.765-7.328-18.296-7.328-6.516-20.656-6.516-4.593 0-9.36.781-4.75.782-9.827 2.344v9.922q4.39-2.39 9.078-3.563 4.687-1.171 9.906-1.171 8.453 0 13.375 4.437 4.938 4.438 4.938 12.063 0 7.609-4.938 12.047-4.922 4.453-13.375 4.453-3.953 0-7.89-.875-3.922-.875-8.016-2.735z" id="DejaVuSans-53"/></defs><use xlink:href="#DejaVuSans-8722"/><use x="83.789" xlink:href="#DejaVuSans-55"/><use x="147.412" xlink:href="#DejaVuSans-53"/></g></g><g id="ytick_2"><g style="fill:#696969" transform="matrix(.16 0 0 -.16 73.733 487.683)" id="text_11"><defs><path d="M31.781 66.406q-7.61 0-11.453-7.5Q16.5 51.422 16.5 36.375q0-14.984 3.828-22.484 3.844-7.5 11.453-7.5 7.672 0 11.5 7.5 3.844 7.5 3.844 22.484 0 15.047-3.844 22.531-3.828 7.5-11.5 7.5zm0 7.813q12.266 0 18.735-9.703 6.468-9.688 6.468-28.141 0-18.406-6.468-28.11-6.47-9.687-18.735-9.687-12.25 0-18.718 9.688-6.47 9.703-6.47 28.109 0 18.453 6.47 28.14Q19.53 74.22 31.78 74.22z" id="DejaVuSans-48"/></defs><use xlink:href="#DejaVuSans-8722"/><use x="83.789" xlink:href="#DejaVuSans-53"/><use x="147.412" xlink:href="#DejaVuSans-48"/></g></g><g id="ytick_3"><g style="fill:#696969" transform="matrix(.16 0 0 -.16 73.733 422.545)" id="text_12"><defs><path d="M19.188 8.297h34.421V0H7.33v8.297q5.609 5.812 15.296 15.594 9.703 9.797 12.188 12.64 4.734 5.313 6.609 9 1.89 3.688 1.89 7.25 0 5.813-4.078 9.469-4.078 3.672-10.625 3.672-4.64 0-9.797-1.61-5.14-1.609-11-4.89v9.969Q13.767 71.78 18.938 73q5.188 1.219 9.485 1.219 11.328 0 18.062-5.672 6.735-5.656 6.735-15.125 0-4.5-1.688-8.531-1.672-4.016-6.125-9.485-1.218-1.422-7.765-8.187-6.532-6.766-18.453-18.922z" id="DejaVuSans-50"/></defs><use xlink:href="#DejaVuSans-8722"/><use x="83.789" xlink:href="#DejaVuSans-50"/><use x="147.412" xlink:href="#DejaVuSans-53"/></g></g><g id="ytick_4"><use xlink:href="#DejaVuSans-48" style="fill:#696969" transform="matrix(.16 0 0 -.16 97.32 357.407)" id="text_13"/></g><g id="ytick_5"><g style="fill:#696969" transform="matrix(.16 0 0 -.16 87.14 292.269)" id="text_14"><use xlink:href="#DejaVuSans-50"/><use x="63.623" xlink:href="#DejaVuSans-53"/></g></g><g id="ytick_6"><g style="fill:#696969" transform="matrix(.16 0 0 -.16 87.14 227.13)" id="text_15"><use xlink:href="#DejaVuSans-53"/><use x="63.623" xlink:href="#DejaVuSans-48"/></g></g><g id="ytick_7"><g style="fill:#696969" transform="matrix(.16 0 0 -.16 87.14 161.993)" id="text_16"><use xlink:href="#DejaVuSans-55"/><use x="63.623" xlink:href="#DejaVuSans-53"/></g></g><g id="ytick_8"><g style="fill:#696969" transform="matrix(.16 0 0 -.16 76.96 96.855)" id="text_17"><defs><path d="M12.406 8.297h16.11v55.625l-17.532-3.516v8.985l17.438 3.515h9.86V8.296H54.39V0H12.406z" id="DejaVuSans-49"/></defs><use xlink:href="#DejaVuSans-49"/><use x="63.623" xlink:href="#DejaVuSans-48"/><use x="127.246" xlink:href="#DejaVuSans-48"/></g></g><g style="fill:#696969" transform="matrix(0 -.2 -.2 0 65.573 379.813)" id="text_18"><defs><path d="M51.125 44H36.922l-4.11-16.313h14.313zm-7.328 27.781-5.078-20.265h14.265L58.11 71.78h7.813L60.89 51.516h15.234V44h-17.14l-4-16.313h15.53V20.22H53.079L48 0h-7.813l5.032 20.219H30.906L25.875 0h-7.86l5.079 20.219H7.719v7.468h17.187L29 44H13.281v7.516h17.625l4.985 20.265z" id="DejaVuSans-35"/><path d="M30.61 48.39q-7.22 0-11.422-5.64-4.204-5.64-4.204-15.453 0-9.813 4.172-15.453 4.188-5.64 11.453-5.64 7.188 0 11.375 5.655 4.203 5.672 4.203 15.438 0 9.719-4.203 15.406-4.187 5.688-11.375 5.688zm0 7.61q11.718 0 18.406-7.625 6.703-7.61 6.703-21.078 0-13.422-6.703-21.078-6.688-7.64-18.407-7.64-11.765 0-18.437 7.64-6.656 7.656-6.656 21.078 0 13.469 6.656 21.078Q18.844 56 30.609 56z" id="DejaVuSans-111"/><path d="M37.11 75.984V68.5h-8.594q-4.828 0-6.72-1.953-1.874-1.953-1.874-7.031v-4.828h14.797v-6.985H19.922V0H10.89v47.703H2.297v6.984h8.594V58.5q0 9.125 4.25 13.297 4.25 4.187 13.468 4.187z" id="DejaVuSans-102"/><path d="M44.281 53.078v-8.5q-3.797 1.953-7.906 2.922-4.094.984-8.5.984-6.688 0-10.031-2.047-3.344-2.046-3.344-6.156 0-3.125 2.39-4.906 2.391-1.781 9.626-3.39l3.078-.688q9.562-2.047 13.593-5.781 4.032-3.735 4.032-10.422 0-7.625-6.032-12.078-6.03-4.438-16.578-4.438-4.39 0-9.156.86Q10.688.296 5.422 2v9.281q4.984-2.594 9.812-3.89 4.829-1.282 9.579-1.282 6.343 0 9.75 2.172 3.421 2.172 3.421 6.125 0 3.656-2.468 5.61-2.453 1.953-10.813 3.765l-3.125.735q-8.344 1.75-12.062 5.39-3.704 3.64-3.704 9.985 0 7.718 5.47 11.906Q16.75 56 26.811 56q4.97 0 9.36-.734 4.406-.72 8.11-2.188z" id="DejaVuSans-115"/><path d="M56.203 29.594v-4.39H14.891q.593-9.282 5.593-14.142 5-4.859 13.938-4.859 5.172 0 10.031 1.266 4.86 1.265 9.656 3.812v-8.5Q49.266.734 44.187-.344 39.11-1.422 33.892-1.422q-13.094 0-20.735 7.61-7.64 7.625-7.64 20.625 0 13.421 7.25 21.296Q20.016 56 32.328 56q11.031 0 17.453-7.11 6.422-7.093 6.422-19.296zm-8.984 2.64q-.094 7.36-4.125 11.75-4.032 4.407-10.672 4.407-7.516 0-12.031-4.25-4.516-4.25-5.203-11.97z" id="DejaVuSans-101"/></defs><use xlink:href="#DejaVuSans-35"/><use x="83.789" xlink:href="#DejaVuSans-32"/><use x="115.576" xlink:href="#DejaVuSans-111"/><use x="176.758" xlink:href="#DejaVuSans-102"/><use x="211.963" xlink:href="#DejaVuSans-32"/><use x="243.75" xlink:href="#DejaVuSans-99"/><use x="298.73" xlink:href="#DejaVuSans-97"/><use x="360.01" xlink:href="#DejaVuSans-115"/><use x="412.109" xlink:href="#DejaVuSans-101"/><use x="473.633" xlink:href="#DejaVuSans-115"/></g></g><g style="fill:#696969" transform="matrix(.24 0 0 -.24 268.746 71.76)" id="text_19"><defs><path d="M9.813 72.906h13.28l32.329-60.984v60.984h9.562V0h-13.28L19.39 60.984V0H9.813z" id="DejaVuSans-78"/><path d="M4.203 54.688h8.985l11.234-42.672 11.172 42.672h10.593l11.235-42.672 11.187 42.672h8.985L63.28 0H52.688L40.922 44.828 29.109 0H18.5z" id="DejaVuSans-119"/><path d="M64.406 67.281v-10.39q-4.984 4.64-10.625 6.922-5.64 2.296-11.984 2.296-12.5 0-19.14-7.64-6.641-7.64-6.641-22.094 0-14.406 6.64-22.047 6.64-7.64 19.14-7.64 6.345 0 11.985 2.296 5.64 2.297 10.625 6.938V5.609Q59.234 2.094 53.437.33q-5.78-1.75-12.218-1.75-16.563 0-26.094 10.124-9.516 10.14-9.516 27.672 0 17.578 9.516 27.703 9.531 10.14 26.094 10.14 6.531 0 12.312-1.734 5.797-1.734 10.875-5.203z" id="DejaVuSans-67"/><path d="M3.328 72.906h9.953L28.61 11.281l15.282 61.625h11.093l15.328-61.625 15.282 61.625h10.015L77.297 0H64.89L49.516 63.281 33.984 0H21.578z" id="DejaVuSans-87"/><path d="M9.078 75.984h9.031V31.11l26.813 23.578H56.39l-29-25.578L57.625 0H45.906L18.11 26.703V0H9.08z" id="DejaVuSans-107"/><path d="M4.89 31.39h26.313v-8H4.891z" id="DejaVuSans-45"/><path d="M2.984 54.688H12.5L29.594 8.797l17.093 45.89h9.516L35.687 0H23.485z" id="DejaVuSans-118"/><path d="M11.719 12.406h10.297V0H11.719zm0 39.297h10.297v-12.39H11.719z" id="DejaVuSans-58"/><path d="M45.406 27.984q0 9.766-4.031 15.125-4.016 5.375-11.297 5.375-7.219 0-11.25-5.375-4.031-5.359-4.031-15.125 0-9.718 4.031-15.093t11.25-5.375q7.281 0 11.297 5.375 4.031 5.375 4.031 15.093zm8.985-21.203q0-13.953-6.203-20.765Q42-20.797 29.203-20.797q-4.734 0-8.937.703-4.203.703-8.157 2.172v8.735q3.954-2.141 7.813-3.157 3.86-1.031 7.86-1.031 8.843 0 13.234 4.61 4.39 4.609 4.39 13.937v4.453q-2.781-4.844-7.125-7.234Q33.938 0 27.875 0 17.828 0 11.672 7.656q-6.156 7.672-6.156 20.328 0 12.688 6.156 20.344Q17.828 56 27.875 56q6.063 0 10.406-2.39 4.344-2.391 7.125-7.22v8.297h8.985z" id="DejaVuSans-103"/></defs><use xlink:href="#DejaVuSans-78"/><use x="74.805" xlink:href="#DejaVuSans-101"/><use x="136.328" xlink:href="#DejaVuSans-119"/><use x="218.115" xlink:href="#DejaVuSans-32"/><use x="249.902" xlink:href="#DejaVuSans-67"/><use x="319.727" xlink:href="#DejaVuSans-97"/><use x="381.006" xlink:href="#DejaVuSans-115"/><use x="433.105" xlink:href="#DejaVuSans-101"/><use x="494.629" xlink:href="#DejaVuSans-115"/><use x="546.729" xlink:href="#DejaVuSans-32"/><use x="578.516" xlink:href="#DejaVuSans-87"/><use x="671.518" xlink:href="#DejaVuSans-101"/><use x="733.041" xlink:href="#DejaVuSans-101"/><use x="794.564" xlink:href="#DejaVuSans-107"/><use x="852.475" xlink:href="#DejaVuSans-45"/><use x="890.434" xlink:href="#DejaVuSans-111"/><use x="951.615" xlink:href="#DejaVuSans-118"/><use x="1010.795" xlink:href="#DejaVuSans-101"/><use x="1072.318" xlink:href="#DejaVuSans-114"/><use x="1107.057" xlink:href="#DejaVuSans-45"/><use x="1139.141" xlink:href="#DejaVuSans-87"/><use x="1232.143" xlink:href="#DejaVuSans-101"/><use x="1293.666" xlink:href="#DejaVuSans-101"/><use x="1355.189" xlink:href="#DejaVuSans-107"/><use x="1413.1" xlink:href="#DejaVuSans-58"/><use x="1446.791" xlink:href="#DejaVuSans-32"/><use x="1478.578" xlink:href="#DejaVuSans-55"/><use x="1542.201" xlink:href="#DejaVuSans-32"/><use x="1573.988" xlink:href="#DejaVuSans-97"/><use x="1635.268" xlink:href="#DejaVuSans-118"/><use x="1694.447" xlink:href="#DejaVuSans-103"/></g><g id="legend_1"><path d="M694.75 184.5H831.2q3.2 0 3.2-3.2V88.96q0-3.2-3.2-3.2H694.75q-3.2 0-3.2 3.2v92.34q0 3.2 3.2 3.2z" style="fill:none;opacity:.8;stroke:#ccc;stroke-linejoin:miter" id="patch_5"/><path d="M697.95 98.718h32" style="fill:none;stroke:#000;stroke-linecap:round;stroke-width:1.5" id="line2d_6"/><g style="fill:#696969" transform="matrix(.16 0 0 -.16 742.75 104.317)" id="text_20"><defs><path d="M8.688 72.906h9.921V28.61q0-11.718 4.235-16.875 4.25-5.14 13.781-5.14 9.469 0 13.719 5.14 4.25 5.157 4.25 16.875v44.297H64.5V27.391q0-14.25-7.063-21.532-7.046-7.28-20.812-7.28-13.828 0-20.89 7.28-7.047 7.282-7.047 21.532z" id="DejaVuSans-85"/><path d="M53.516 70.516V60.89q-5.61 2.687-10.594 4-4.984 1.328-9.625 1.328-8.047 0-12.422-3.125t-4.375-8.89q0-4.845 2.906-7.313 2.907-2.453 11.016-3.97l5.953-1.218q11.031-2.11 16.281-7.406 5.25-5.297 5.25-14.172 0-10.61-7.11-16.078-7.093-5.469-20.812-5.469-5.172 0-11.015 1.172Q13.14.922 6.89 3.219v10.156q6-3.36 11.765-5.078 5.766-1.703 11.328-1.703 8.438 0 13.032 3.312 4.593 3.328 4.593 9.485 0 5.359-3.297 8.39-3.296 3.032-10.812 4.547L27.484 33.5q-11.03 2.188-15.968 6.875-4.922 4.688-4.922 13.047 0 9.672 6.812 15.234 6.813 5.563 18.766 5.563 5.14 0 10.453-.938 5.328-.922 10.89-2.765z" id="DejaVuSans-83"/></defs><use xlink:href="#DejaVuSans-85"/><use x="73.193" xlink:href="#DejaVuSans-83"/></g><path d="M697.95 122.203h32" style="fill:none;stroke:#009e73;stroke-linecap:round;stroke-width:1.5" id="line2d_8"/><g style="fill:#696969" transform="matrix(.16 0 0 -.16 742.75 127.802)" id="text_21"><use xlink:href="#DejaVuSans-78"/><use x="74.805" xlink:href="#DejaVuSans-74"/></g><path d="M697.95 145.688h32" style="fill:none;stroke:#d55e00;stroke-linecap:round;stroke-width:1.5" id="line2d_10"/><g style="fill:#696969" transform="matrix(.16 0 0 -.16 742.75 151.287)" id="text_22"><defs><path d="M19.672 34.813V8.108H35.5q7.953 0 11.781 3.297 3.844 3.297 3.844 10.078 0 6.844-3.844 10.078-3.828 3.25-11.781 3.25zm0 29.984V42.828h14.61q7.218 0 10.75 2.703 3.546 2.719 3.546 8.282 0 5.515-3.547 8.25-3.531 2.734-10.75 2.734zm-9.86 8.11h25.204q11.28 0 17.375-4.688Q58.5 63.53 58.5 54.89q0-6.703-3.125-10.657-3.125-3.953-9.188-4.922 7.282-1.562 11.313-6.53 4.031-4.954 4.031-12.376 0-9.765-6.64-15.093Q48.25 0 35.984 0H9.812z" id="DejaVuSans-66"/></defs><use xlink:href="#DejaVuSans-66"/><use x="68.604" xlink:href="#DejaVuSans-101"/><use x="130.127" xlink:href="#DejaVuSans-114"/><use x="169.49" xlink:href="#DejaVuSans-103"/><use x="232.967" xlink:href="#DejaVuSans-101"/><use x="294.49" xlink:href="#DejaVuSans-110"/></g><path d="M697.95 169.173h32" style="fill:none;stroke:#0072b2;stroke-linecap:round;stroke-width:1.5" id="line2d_12"/><g style="fill:#696969" transform="matrix(.16 0 0 -.16 742.75 174.773)" id="text_23"><defs><path d="M44.39 34.188q3.172-1.079 6.172-4.594 3-3.516 6.032-9.672L66.609 0H56l-9.313 18.703q-3.624 7.328-7.015 9.719-3.39 2.39-9.25 2.39h-10.75V0h-9.86v72.906h22.266q12.5 0 18.656-5.234 6.157-5.219 6.157-15.766 0-6.89-3.203-11.437-3.204-4.532-9.297-6.282zM19.673 64.797V38.922h12.406q7.125 0 10.766 3.297 3.64 3.297 3.64 9.687 0 6.39-3.64 9.64-3.64 3.25-10.766 3.25z" id="DejaVuSans-82"/><path d="M54.89 33.016V0h-8.984v32.719q0 7.765-3.031 11.61-3.031 3.858-9.078 3.858-7.281 0-11.484-4.64-4.204-4.625-4.204-12.64V0H9.08v75.984h9.03V46.188q3.235 4.937 7.594 7.374Q30.078 56 35.797 56q9.422 0 14.25-5.828 4.844-5.828 4.844-17.156z" id="DejaVuSans-104"/><path d="M45.406 46.39v29.594h8.985V0h-8.985v8.203Q42.578 3.328 38.25.953q-4.313-2.375-10.375-2.375-9.906 0-16.14 7.906-6.22 7.922-6.22 20.813 0 12.89 6.22 20.797Q17.968 56 27.874 56q6.063 0 10.375-2.375 4.328-2.36 7.156-7.234zm-30.61-19.093q0-9.906 4.079-15.547 4.078-5.64 11.203-5.64 7.125 0 11.219 5.64 4.11 5.64 4.11 15.547 0 9.906-4.11 15.547-4.094 5.64-11.219 5.64-7.125 0-11.203-5.64-4.078-5.64-4.078-15.547z" id="DejaVuSans-100"/></defs><use xlink:href="#DejaVuSans-82"/><use x="64.982" xlink:href="#DejaVuSans-117"/><use x="128.361" xlink:href="#DejaVuSans-116"/><use x="167.57" xlink:href="#DejaVuSans-104"/><use x="230.949" xlink:href="#DejaVuSans-101"/><use x="292.473" xlink:href="#DejaVuSans-114"/><use x="333.586" xlink:href="#DejaVuSans-102"/><use x="368.791" xlink:href="#DejaVuSans-111"/><use x="429.973" xlink:href="#DejaVuSans-114"/><use x="469.336" xlink:href="#DejaVuSans-100"/></g></g></g></g><defs><clipPath id="p0cf2ab2321"><path d="M117 77.76h725.4v498.96H117z"/></clipPath></defs></svg>