<svg height="864" viewBox="0 0 936 648" width="1248" xmlns="http://www.w3.org/2000/svg" xmlns:xlink="http://www.w3.org/1999/xlink"><defs><style>*{stroke-linecap:butt;stroke-linejoin:round}</style></defs><g id="figure_1"><path d="M0 648h936V0H0z" style="fill:#fff" id="patch_1"/><g id="axes_1"><path d="M117 576.72h725.4V77.76H117z" style="fill:none" id="patch_2"/><g id="PolyCollection_1"><defs><path d="M150.923-101.853H204.135l.95-1.413.95.185.951.12.95-.742.95.144.95-2.33.951-2.04.95-4.198.95.107.95-1.8.95-.994.951-3.628.95-5.922.95-4.74.95 1.272.951-4.455.95-12.722.95-6.774.95-1.105.95-.88.951.233.95-3.606.95-5.835.95.086.951.067.95-3.2.95 1.476.95.52.95-6.381.951-3.313.95 11.64.95 13.16.95-.376.951 3.368.95-1.052.95 5.825.95.176.95-.177.951-.397.95.068.95 3.248.95 1.342.951.348.95-.568.95-.802.95.27.95 5.27.951 3.555.95 5.519.95 6.176.95 7.36.951 3.009.95.412.95 1.004.95-4.243.95.484.951 1.427.95 1.402.95 2.132.95-1.434.951-1.311.95-2.55.95-1.325.95-.863.95.893.951.024.95-.024.95 4.228.95 3.076.951 1.115.95 1.228.95-.85.95.2.95.111.951-2.999.95-.23.95-.297.95-.386.951-.349.95-.456.95-.652.95-.08.95.02.951-.965.95-.202.95.775.95-.277.951-.534.95 3.428.95.277.95.19.95.135.951.095.95.062.95.032.95-1.968.951.92.95-.167.95-1.166.95-.089.95-.101.951-.118.95-3.195.95 1.184.95-.71.951.144.95.056.95-.028.95-.113.95-3.389.951-.63.95.989h.95l.95-.989.951-.17.95-.349.95 1.855.95-1.142.95.82.951-.18.95-.23.95-.303.95-.455.951 6.906.95-1.692.95-.864.95.061.95 2.056.951.021.95-.08.95 1.077.95.996.951.021.95-1.111.95-.238.95-.366.95-.6.951-.975.95 3.021.95-.068.95.916.951.111.95.045.95-.015.95 1.093.95.123.951-.946.95.964.95-1.065.95-.141.951-.194.95-.613.95-.079.95.902.95-.965.951-.859.95.081.95.065h.95l.951-1.661.95.207.95-.756.95 1.035.95.036.951.005.95-.025.95-.059.95-3.595.951 1.02.95.94.95-.073.95-.13.95-.204.951-.924.95.918.95.965.95-.059.951-.066.95-.074.95-.085.95-.098.95 1.997.951-.988.95.031.95.01.95-.01.951-2.784.95 2.753.95-1.028h3.801l.95.973.95.003.951 2.073.95 1.287.95.232.95.177.951.136.95.918.95-.912.95-3.86.95-7.164.951-.654.95.888.95.668.95-1.227.951-4.575.95-.124.95-3.835.95-3.722.95-2.034.951-2.31.95-.211.95.086.95-.117.951 7.923.95 1.222.95-.86.95-1.067.95-4.994.951 1.472.95-4.363.95-.118.95-.006.951 2.822.95 2.61.95-10 .95-1.09.95-2.48.951-1.92.95-3.611.95.686.95.304.951-10.462.95 1.104.95 5.173.95-10.243.95-.994.951.024.95-1.088.95-3.939.95-9.908.951-3.997.95-3.923.95-6.98.95-3.564.95.132.951 4.966.95-3.933.95-6.66.95 15.224.951 5.473.95-20.459.95-1.978.95-.516.95 3.402.951-.033.95-8.155.95-8.62.95-4.206.951 1.183.95 3.392.95-3.056.95 1.546.95-15.722.951-7.648.95 19.307.95-.177.95-.546.951-3.305.95 1.532.95 14.778.95 8.124.95 13.518.951 2.113.95-15.119.95 5.364.95-21.145.951 11.597.95 6.36.95-.403.95-.674.95-16.192.951 2.49.95-11.45.95-8.048.95 16.515.951-1.006.95-1.503.95-5.636.95-10.093.95 12.541.951-9.186.95-10.971.95-8.5.95-.021.951 7.867.95-5.91.95 4.005.95 1.27.95-9.741.951-.68.95-1.366.95 31.836.95-2.242.951 3.731.95 12.943.95 11.96.95 12.887.95 1.99.951-7.903.95 7.208.95 9.568.95 4.39.951-7.77.95-8.411.95-5.783.95-1.403.95 19.414.951-18.228.95-5.627.95-4.473.95.123.951.114.95 14.17.95-2.956.95 1.09.95-.062.951 11.823.95-1.42.95.274.95.06.951-14.008.95 21.291.95 5.859.95 2.276.95-.277.951-8.231.95 12.473.95 1.3.95 1.053.951-7.575.95-4.014.95 6.627.95-.291.95-15.523.951.799.95-.708.95.385.95-7.39.951.894.95 6.939.95-9.139.95 1.728.95-4.24.951-.87.95 3.716.95-1.278.95-2.072.951-6.293.95 2.44.95-2.377.95-.84.95 8.746.951.062.95-.825.95-9.368.95-1.609.951 1.2.95 5.785.95-1.998.95-.09.95-8.122.951 11.59.95-.938.95 5.088.95-14 .951-3.319.95.202.95-.104.95 6.76.95-1.88 1.901-.874v-1.107l.95 1.782.95-1.141.951 8.893.95.869.95 3.21.95-2.432.95 6.852.951 4.829.95-4.864.95-.315.95 15.206.951 8.673.95 3.197.95 2.614.95.205.95.497.951-.033.95 3.83.95 1.893.95 1.284.951 8.04.95-4.118.95 2.667.95-2.356.95.312.951-.177.95-.261.95 4.96.95 2.982.951-.233.95-.709.95 1.553.95 2.713.95 1.827.951 4.772.95 10.143.95 2.155.95.611.951 2.383.95 1.042.95 6.005.95 1.25.951 2.22.95-.2.95-.723.95 3.181.95-.89.951-1.256.95-3.358.95-.479.95-.588.951-.892.95-.931.95-1.299.95-1.348.95.625.951-.111.95-.142.95-.186.95-.123.951-2.677.95.063.95 1.927.95-.008.95-.012.951-.017.95-.023.95-.03.95.994h4.751l.951 3.142.95 1.214.95.276.95-3.899.951-.043.95-.048.95-.053.95-.057h.95l.951-.907.95.052.95.048.95.043.951.04.95-.12.95-.378.95-1.619.95 3.013.951.095.95.08.95.068.95.059.951-.965.95-.965h5.701l.95-.965.951-3.894.95.483.95.285.95-15.854.95.542.951 1.58.95-3.133.95-3.144.95 1.012.951.474.95-6.12.95-2.634.95-1.346.95-1.056.951 3.316.95-2.342.95-3.896.95 9.923.951-1.544.95-5.774.95.574.95 3.095.95.185.951.17.95-2.973.95.598.95-.674.951-2.919.95.557.95-.537.95-.775.95 8.234.951-.637.95 4.649.95 1.636.95 2.734.951.582.95.424.95 3.308.95-4.935.95-6.047.951 1.373.95-5.122.95-.326.95-.36.951 2.063.95-6.756.95-2.64.95 5.071.95-4.416.951.093.95-.21.95-2.795.95 3.004.951 2.51.95-6.368.95.74.95-.36.95-.539.951-11.895.95 10.485.95.966.95-4.901.951 1.97.95.02h.95l.95 4.905.95-.06.951-.381.95 4.307.95.348.95.296.951.253.95 8.805.95-.22.95-.535.95 5.212.951-8.111.95-.568.95-.802.95 3.682.951-3.356.95 1.348.95 1.81.95 1.843.95-.275.951-.518.95-3.87.95-.932.95 4.955.951-4.095.95 9.287.95.307.95.085.95-1.846.951 5.084.95 2.404.95.383.95 1.393.951.286.95.165.95-.339.95-1.79.95.65.951 2.83.95.14.95-.015.95-.174.951-3.844.95-1.211.95-7.422.95 2.449.95-4.508.951.87.95.626.95 2.204.95.215.951-1.7.95-2.88.95-1.153.95-.529.95-.966.951-9.347.95-2.614.95 2.467.95.024.951 6.63.95-.176.95-.234.95-12.9.95-2.357.951.266.95-4.037.95-4.603.95.55.951.015.95 2.238.95-4.135.95-4.032.95-8.114.951-8.212.95.286.95-.795.95 2.734.951-5.624.95-13.18v-31.343l-.95 15.76-.95 5.954-.95-3.054-.95-.795-.95.286-.951 11.082-.95 11.18-.95 5.616-.95 5.512-.951-1.62-.95.015-.95.55-.95 6.973-.95 5.611-.951.266-.95 3.432-.95 14.112-.95-.234-.951-.176-.95-6.876-.95.024-.95-1.392-.95 3.174-.951 9.948-.95-.967-.95-.528-.95.777-.951 2.908-.95 2.158-.95.215-.95-1.655-.95.626-.951.87-.95 7.07-.95-1.41-.95 9.943-.951.718-.95 1.944-.95-.173-.95-.015-.95.14-.951-4.89-.95-1.277-.95.138-.95-.338-.951.164-.95.286-.95-.536-.95.383-.95-1.455-.951-4.563-.95 2.013-.95.085-.95.307-.951-8.078-.95 3.622-.95-4.692-.95.998-.95 3.848-.951-.519-.95-.274-.95-2.016-.95-2.05-.951-2.51-.95 2.432-.95-4.035-.95-.803-.95-.567-.951 7.324-.95-4.435-.95 1.395-.95 1.708-.951-8.56-.95.253-.95.296-.95.348-.95-3.41-.951-.381-.95-.06-.95-4.744h-.95l-.951.02-.95-1.888-.95 4.747-.95-.964-.95-10.74-.951 13.189-.95-.538-.95-.361-.95-1.19-.951 5.21-.95-3.279-.95-4.714-.95 1.063-.95-.209-.951.093-.95 5.231-.95-4.576-.95 5.078-.951 8.68-.95-1.796-.95-.36-.95-.326-.95 4.525-.951-2.485-.95 5.528-.95 4.713-.95-2.48-.951.424-.95.582-.95-1.125-.95-.293-.95-3.07-.951 1.293-.95-7.202-.95-.775-.95-.537-.951-1.372-.95.94-.95-.674-.95-1.332-.95 2.815-.951.17-.95.186-.95-2.694-.95-1.355-.951 3.873-.95.385-.95-11.3-.95-3.897-.95-2.341-.951-6.332-.95-1.055-.95.583-.95 3.155-.951 7.386-.95.473-.95 1.013-.95 6.503-.95 6.514-.951 1.58-.95 4.4-.95 24.666-.95.284-.951.483-.95 5.754-.95.964H664.044l-.951.965-.95.965-.95.059-.95.068-.95.08-.951.095-.95-2.776-.95.31-.95-.377-.951-.12-.95.04-.95.043-.95.048-.95.052-.951 1.022h-.95l-.95-.057-.95-.053-.951-.048-.95-.043-.95 3.82-.95.274-.95-.715-.951-2.646H636.487l-.95-.936-.95-.03-.95-.022-.951-.018-.95-.012-.95-.007-.95-1.932-.951.062-.95 3.112-.95-.123-.95-.186-.95-.142-.951-.111-.95-1.305-.95.582-.95-1.299-.951-.93-.95-.893-.95-.588-.95-.48-.95.502-.951-1.256-.95-.89-.95-4.537-.95-.723-.951-.2-.95-1.638-.95-.68-.95-5.572-.95-.887-.951-1.477-.95.611-.95.226-.95-7.223-.951-2.945-.95-2.032-.95-3.075-.95-2.306-.95-.71-.951-.233-.95-2.805-.95-4.688-.95-.261-.951-.177-.95-1.617-.95-2.356-.95-5.052-.95 3.6-.951-7.395-.95-2.575-.95-1.966-.95-3.888-.951-.033-.95-1.433-.95.205-.95-1.245-.95-.662-.951-4.833-.95-11.807-.95-.315-.95 4.784-.951-2.89-.95-4.723-.95 1.425-.95-2.577-.951-1.061-.95-8.471-.95.788-.95-2.077v.822l-1.901 1.055-.95 1.98-.95-6.746-.95-.104-.951.201-.95 4.4-.95 14.941-.95-4.559-.95.992-.951-11.564-.95 9.243-.95-.09-.95 1.86-.951-5.79-.95-.73-.95 2.25-.95 9.926-.95-.825-.951.062-.95-8.619-.95-.84-.95 1.481-.951-3.347-.95 7.212-.95-2.072-.95-1.277-.95-4.002-.951 1.059-.95 3.478-.95-2.131-.95 10.156-.951-6.567-.95.895-.95 9.974-.95.385-.95 1.222-.951-6.92-.95 15.349-.95-.291-.95-6.879-.951 3.703-.95 5.932-.95-.876-.95-.63-.95-10.68-.951 5.274-.95-.276-.95-1.583-.95-3.789-.951-19.227-.95 13.004-.95.06-.95.274-.95 2.44-.951-9.402-.95-.062-.95-.84-.95 2.832-.951-14.77-.95.113-.95.123-.95 3.244-.95 2.092-.951 12.643-.95-21.104-.95-1.404-.95-5.782-.951 1.235-.95 3.808-.95-3.329-.95-7.797-.95-6.298-.951 9.462-.95 1.99-.95-6.408-.95-5.404-.951-8.282-.95-3.987-.95 3.546-.95-31.836-.95-1.366-.951-.68-.95 9.554-.95-.66-.95-3.712-.951 5.667-.95-7.57-.95-.02-.95 10.794-.95 12.183-.951 10.108-.95-12.541-.95 11.13-.95 5.942-.951-1.503-.95-1.006-.95-16.287-.95 13.176-.95 11.705-.951-5.228-.95 14.68-.95-.675-.95-.403-.951-11.005-.95-13.486-.95 21.303-.95-4.284-.95 15.753-.951 2.113-.95-7.706-.95-5.382-.95-16.094-.951-6.186-.95.554-.95-.546-.95-.177-.95-19.282-.951 9.717-.95 19.008-.95-.383-.95 4.662-.951-2.397-.95 1.184-.95 7.37-.95 10.675-.95 7.28-.951-1.962-.95-6.245-.95-4.375-.95-1.978-.951 18.13-.95-8.033-.95-17.577-.95 4.917-.95 3.785-.951-4.682-.95.133-.95 6.083-.95 10.385-.951 5.725-.95 5.65-.95 11.316-.95 3.78-.95-1.09-.951.024-.95 2.866-.95 12.91-.95-4.474-.951 1.103-.95 14.622-.95.304-.95.686-.95 6.036-.951 3.868-.95 3.31-.95.838-.95 9.295-.951-3.178-.95-2.966-.95-.006-.95-.118-.95 3.354-.951-2.387-.95 2.724-.95-1.067-.95-.86-.951-2.637-.95-9.442-.95-2.046-.95-1.844-.95-.21-.951 3.478-.95 3.754-.95 5.926-.95 5.812-.951 1.805-.95 7.002-.95 2.632-.95.668-.95.888-.951 3.205-.95 10.2-.95 3.86-.95 1.017-.951-1.012-.95.136-.95.177-.95.232-.95-.642-.951-1.786-.95.003-.95-.956h-3.801l-.95.9-.95-3.035-.951 3.004-.95-.01-.95.01-.95.032-.951.94-.95-1.861-.95-.098-.95-.085-.95-.074-.951-.066-.95-.059-.95-.964-.95-1.011-.951 1.005-.95-.204-.95-.13-.95-.073-.95-.989-.951-.91-.95 4.122-.95-.058-.95-.026-.951.005-.95.037-.95-.895-.95 1.174-.95.207-.951 2.197h-.95l-.95.065-.95.081-.951 1.071-.95.965-.95-1.028-.95-.078-.951-.614-.95-.194-.95-.14-.95.863-.95-.965-.951.984-.95.123-.95-.837-.95-.015-.951.045-.95.111-.95-1.013-.95-.068-.95-2.767-.951.954-.95-.6-.95-.366-.95-.238-.951.818-.95.02-.95-.932-.95-.853-.95-.08-.951.021-.95-1.803-.95.062-.95 1.065-.951 2.166-.95-4.67-.95-.455-.95-.304-.95-.229-.951-.18-.95-1.11-.95.788-.95-2.004-.951-.349-.95-.17-.95.94h-.95l-.95-.94-.951 1.299-.95 4.33-.95-.114-.95-.027-.951.055-.95.144-.95 1.22-.95-.746-.95 4.523-.951-.118-.95-.101-.95-.089-.95.764-.951-.168-.95-1.009-.95 1.891-.95.032-.95.062-.951.095-.95.135-.95.19-.95.277-.951-2.36-.95-.534-.95-.278-.95-1.154-.95-.202-.951.965-.95.02-.95-.08-.95-.653-.951-.456-.95-.348-.95-.386-.95-.298-.95-.23-.951 2.79-.95.111-.95.201-.95 1.078-.951-.701-.95-.815-.95-2.712-.95-3.49-.95-.023-.951.023-.95-1.037-.95-.862-.95-1.326-.951-.62-.95-1.31-.95-1.434-.95-3.657-.95-2.457-.951-2.432-.95-1.445-.95 3.474-.95-.925-.951.412-.95-.85-.95-4.217-.95-3.471-.95-4.128-.951-2.233-.95-4.379-.95.271-.95-.802-.951-4.427-.95-3.512-.95-2.516-.95-4.47-.95-1.862-.951-.396-.95-.177-.95.176-.95-3.822-.951 2.806-.95-.491-.95 3.484-.95-8.064-.95-13.444-.951-5.242-.95-.593-.95-5.268-.95-6.243-.951-1.27-.95-3.792-.95-1.844-.95 5.742-.95 4.112-.951.233-.95 2.98-.95 4.682-.95 12.521-.951 18.15-.95 7.121-.95 1.272-.95 8.767-.95 9.513-.951 6.02-.95 2.865-.95 3.988-.95 2.037-.951 7.378-.95 3.75-.95 3.457-.95.145-.95 1.186-.951.121-.95.185-.95 2.445H150.922z" id="m0cbf32460f" style="stroke:#fff;stroke-opacity:.2"/></defs><g clip-path="url(#p3deb195d45)"><use style="fill:#089fff;fill-opacity:.2;stroke:#fff;stroke-opacity:.2" xlink:href="#m0cbf32460f" y="648"/></g></g><g id="LineCollection_1"><path clip-path="url(#p3deb195d45)" d="M205.086 546.147v-27.012M207.936 546.147v-13.506M209.837 546.147V505.63M210.787 546.147V505.63M211.737 546.147V465.11M212.687 546.147v-13.506M213.638 546.147V505.63M214.588 546.147v-27.012M215.538 546.147v-67.531M216.488 546.147v-108.05M217.439 546.147v-94.544M218.389 546.147v-27.012M219.339 546.147V465.11M220.29 546.147v-216.1M221.24 546.147V397.578M222.19 546.147V505.63M223.14 546.147v-67.531M224.09 546.147V505.63M225.04 546.147V411.085M225.99 546.147v-94.544M226.94 546.147v-27.012M228.841 546.147V465.11M229.791 546.147v-54.025M230.742 546.147v-54.025M231.692 546.147v-67.531M232.642 546.147v-67.531M233.592 546.147V505.63M235.493 546.147v-67.531M236.443 546.147V505.63M237.393 546.147v-67.531M238.343 546.147v-67.531M239.294 546.147v-94.544M240.244 546.147v-27.012M242.144 546.147v-67.531M244.045 546.147v-27.012M244.995 546.147V505.63M245.945 546.147V505.63M246.895 546.147V505.63M252.597 546.147v-13.506M255.447 546.147v-54.025M256.398 546.147v-54.025M257.348 546.147v-13.506M258.298 546.147v-13.506M259.248 546.147v-13.506M263.05 546.147v-13.506M269.7 546.147v-13.506M272.551 546.147v-27.012M275.402 546.147V505.63M276.352 546.147v-13.506M283.004 546.147v-13.506M283.954 546.147v-13.506M285.855 546.147v-13.506M289.655 546.147v-13.506M295.357 546.147v-27.012M297.257 546.147v-13.506M298.207 546.147v-13.506M299.158 546.147v-13.506M302.008 546.147v-54.025M303.909 546.147v-13.506M308.66 546.147V465.11M309.61 546.147v-13.506M311.51 546.147v-13.506M312.46 546.147v-27.012M315.311 546.147v-27.012M316.262 546.147v-13.506M322.913 546.147V505.63M323.863 546.147v-13.506M324.814 546.147v-13.506M328.615 546.147v-13.506M331.465 546.147v-13.506M335.266 546.147v-13.506M337.167 546.147v-13.506M343.818 546.147v-13.506M345.719 546.147v-13.506M348.57 546.147v-13.506M351.42 546.147v-13.506M352.37 546.147v-13.506M356.171 546.147v-27.012M357.121 546.147v-13.506M358.071 546.147v-13.506M361.872 546.147v-13.506M363.773 546.147v-54.025M369.474 546.147V505.63M375.176 546.147v-13.506M377.076 546.147v-27.012M378.026 546.147v-13.506M381.827 546.147V505.63M383.728 546.147v-13.506M395.13 546.147v-27.012M396.08 546.147v-13.506M397.03 546.147v-67.531M397.98 546.147V424.591M398.931 546.147v-27.012M401.782 546.147v-27.012M402.732 546.147V465.11M403.682 546.147v-13.506M404.632 546.147v-67.531M405.583 546.147v-67.531M406.533 546.147V505.63M407.483 546.147V505.63M408.433 546.147v-27.012M410.334 546.147v-54.025M415.085 546.147V465.11M416.035 546.147v-54.025M416.985 546.147v-67.531M417.936 546.147v-67.531M418.886 546.147v-67.531M421.736 546.147V384.072M422.687 546.147v-13.506M423.637 546.147v-94.544M424.587 546.147V505.63M425.537 546.147v-67.531M428.388 546.147V289.528M429.338 546.147v-54.025M431.239 546.147V316.541M432.189 546.147v-94.544M435.04 546.147v-216.1M435.99 546.147V384.072M436.94 546.147V384.072M437.89 546.147v-108.05M438.84 546.147V357.06M439.79 546.147v-67.531M441.691 546.147V357.06M442.641 546.147v-108.05M443.592 546.147V465.11M446.442 546.147V276.022M448.343 546.147V357.06M449.293 546.147v-94.544M450.243 546.147V397.578M451.193 546.147v-216.1M452.144 546.147v-324.15M453.094 546.147V397.578M454.994 546.147V397.578M455.944 546.147V384.072M456.895 546.147v-67.531M457.845 546.147V303.034M458.795 546.147V424.591M461.646 546.147V357.06M462.596 546.147V424.591M463.546 546.147v-94.544M465.447 546.147V316.541M468.297 546.147v-364.67M469.248 546.147v-94.544M470.198 546.147v-364.67M471.148 546.147v-67.531M474.949 546.147V140.96M475.9 546.147v-67.531M476.85 546.147V289.528M477.8 546.147V397.578M481.6 546.147V100.44M482.55 546.147V303.034M483.5 546.147V357.06M484.451 546.147V343.553M485.401 546.147V384.072M486.352 546.147V411.085M488.252 546.147V249.01M489.202 546.147V397.578M490.152 546.147V343.553M491.103 546.147V411.085M492.053 546.147V411.085M495.854 546.147V262.515M496.804 546.147V411.085M497.754 546.147v-54.025M498.704 546.147V505.63M501.555 546.147V127.453M502.505 546.147v-54.025M503.456 546.147V465.11M504.406 546.147V465.11M505.356 546.147v-216.1M506.306 546.147v-67.531M510.107 546.147V194.984M511.057 546.147v-108.05M512.008 546.147v-94.544M514.858 546.147v-216.1M515.808 546.147v-94.544M516.759 546.147v-67.531M517.709 546.147V465.11M518.66 546.147v-67.531M519.61 546.147v-94.544M522.46 546.147V357.06M523.41 546.147v-67.531M524.36 546.147V505.63M525.31 546.147v-67.531M527.211 546.147v-94.544M528.161 546.147v-54.025M529.112 546.147V465.11M530.062 546.147v-54.025M531.012 546.147V370.566M531.962 546.147V424.591M534.813 546.147v-216.1M535.763 546.147V411.085M536.713 546.147V465.11M537.664 546.147V505.63M538.614 546.147V357.06M541.464 546.147V357.06M542.415 546.147v-54.025M543.365 546.147v-108.05M544.315 546.147V357.06M545.265 546.147v-67.531M548.116 546.147V235.503M549.066 546.147v-94.544M550.016 546.147v-108.05M550.967 546.147V505.63M551.917 546.147v-67.531M554.768 546.147v-324.15M555.718 546.147V465.11M556.668 546.147v-94.544M557.618 546.147v-108.05M558.568 546.147v-94.544M560.469 546.147V424.591M561.42 546.147V397.578M562.37 546.147v-108.05M563.32 546.147V505.63M564.27 546.147V303.034M565.22 546.147V424.591M568.07 546.147V316.541M569.02 546.147v-108.05M570.921 546.147v-108.05M570.921 546.147V424.591M571.872 546.147v-67.531M572.822 546.147v-13.506M574.722 546.147V411.085M575.672 546.147v-67.531M576.623 546.147v-67.531M577.573 546.147V384.072M578.523 546.147v-67.531M579.473 546.147v-67.531M581.374 546.147V505.63M582.324 546.147v-13.506M583.274 546.147V465.11M584.224 546.147v-94.544M585.175 546.147v-67.531M588.025 546.147V465.11M588.976 546.147V505.63M589.926 546.147V505.63M590.876 546.147v-54.025M591.826 546.147V424.591M592.777 546.147v-13.506M594.677 546.147v-27.012M595.627 546.147v-13.506M596.577 546.147V465.11M597.528 546.147v-27.012M598.478 546.147v-27.012M601.329 546.147v-54.025M603.229 546.147v-13.506M610.83 546.147v-13.506M616.532 546.147v-13.506M617.482 546.147v-27.012M623.184 546.147v-13.506M628.885 546.147V505.63M629.835 546.147v-13.506M645.039 546.147v-54.025M650.74 546.147v-13.506M657.392 546.147v-13.506M658.342 546.147v-13.506M663.093 546.147v-13.506M664.043 546.147v-27.012M670.695 546.147v-27.012M671.645 546.147V465.11M674.496 546.147V262.515M675.446 546.147v-27.012M676.396 546.147v-13.506M677.346 546.147v-94.544M678.297 546.147v-67.531M681.147 546.147v-94.544M682.097 546.147V505.63M683.048 546.147v-13.506M683.998 546.147v-27.012M684.948 546.147v-13.506M687.799 546.147V411.085M688.749 546.147V505.63M689.7 546.147V465.11M690.65 546.147V465.11M691.6 546.147v-27.012M694.45 546.147V411.085M695.4 546.147v-27.012M696.35 546.147v-13.506M697.301 546.147v-54.025M701.102 546.147v-27.012M702.052 546.147v-54.025M703.002 546.147v-27.012M703.953 546.147v-67.531M707.753 546.147v-94.544M708.704 546.147v-94.544M709.654 546.147v-94.544M710.604 546.147v-27.012M711.554 546.147v-67.531M715.355 546.147V384.072M716.305 546.147V465.11M718.206 546.147v-67.531M721.057 546.147V424.591M722.007 546.147V505.63M722.957 546.147v-54.025M723.907 546.147v-108.05M724.857 546.147v-54.025M727.708 546.147V370.566M728.658 546.147v-13.506M729.609 546.147v-67.531M730.559 546.147v-67.531M731.509 546.147V505.63M734.36 546.147v-54.025M735.31 546.147V505.63M736.26 546.147v-54.025M737.21 546.147v-54.025M738.16 546.147v-54.025M741.011 546.147v-54.025M741.961 546.147v-27.012M742.912 546.147V465.11M744.812 546.147V397.578M748.613 546.147V465.11M749.563 546.147v-27.012M750.513 546.147v-27.012M751.464 546.147v-27.012M754.314 546.147v-108.05M755.265 546.147V505.63M756.215 546.147v-13.506M757.165 546.147v-54.025M758.115 546.147v-27.012M760.966 546.147v-27.012M761.916 546.147v-13.506M763.817 546.147v-27.012M764.767 546.147v-13.506M767.617 546.147v-108.05M768.568 546.147v-54.025M771.418 546.147v-27.012M774.269 546.147v-67.531M775.22 546.147v-27.012M776.17 546.147V424.591M778.07 546.147v-94.544M780.92 546.147V465.11M781.87 546.147v-54.025M782.821 546.147v-27.012M783.771 546.147V505.63M784.721 546.147V505.63M787.572 546.147V343.553M788.522 546.147v-67.531M789.473 546.147v-94.544M794.224 546.147V276.022M795.174 546.147v-94.544M796.124 546.147v-27.012M797.074 546.147v-108.05M798.025 546.147V424.591M800.875 546.147V370.566M801.825 546.147V411.085M802.776 546.147V384.072M803.726 546.147V411.085M804.676 546.147V411.085M807.527 546.147V316.541M808.477 546.147V370.566M809.427 546.147V316.541" style="fill:none;stroke:#000;stroke-dasharray:1.5,2.475;stroke-dashoffset:0;stroke-width:1.5"/></g><path clip-path="url(#p3deb195d45)" d="M149.973 546.147h54.162l.95-1.929h1.901l.95-.965h.95l1.901-5.788.95-5.789.95-.964.95-2.895.95-1.929.951-4.824.95-7.718.95-6.753h.95l.951-5.788.95-15.436.95-9.647.95-2.894.95-1.93h.951l.95-3.859.95-5.788.95.965.951 1.929.95-.965.95 3.86.95 2.893.95-2.894.951.965.95 12.541.95 10.613.95-1.93.951 1.93.95-1.93.95 4.824h2.851l.95.965.95 3.858 2.851 5.789h1.9l.95 4.824.951 2.894 1.9 9.647.95 5.788.951 1.93h.95l.95.965.95-3.86.95.965 1.901 3.86.95 2.894h1.901l.95-.965h1.9l.95.965h1.901l.95 3.859.95 2.894 1.901 1.93.95-.965h1.9l.951-2.895h7.602l.95-.964h.95l.95.964h1.901l.95 2.895h5.702l.95-1.93.95.965h.95l.95-.965h2.851l.95-3.859.95.965.95-.965h3.802l.95-3.859.95-.965.95.965h.95l.95-.965h1.901l.95 1.93.95-.965.95.965h3.802l.95 5.788.95-1.93.95-.964h.95l.95 1.93h1.901l1.9 1.929h.951l.95-.965h2.85l.951-.964.95 2.894h.95l.95.965h2.851l.95.964h.95l.951-.964.95.964.95-.964h3.801l.95.964 1.901-1.93h2.85l.951-1.929h.95l.95-.964.95.964h3.802l.95-3.859 1.9 1.93h2.85l.951-.965 1.9 1.93h4.752l.95 1.929.95-.965h2.85l.951-2.894.95 2.894.95-.964h3.801l.95.964h.95l.951 1.93.95.965h2.851l.95.964.95-.964.95-3.86.95-8.682.951-1.93h1.9l.95-1.929.951-5.788.95-.965 1.9-9.647 1.901-5.789h.95l1.9 1.93.951 8.682.95 1.93h1.9l.95-3.86.951 1.93.95-3.859h1.9l1.901 5.789.95-9.648.95-.964 1.901-5.789.95-4.823h1.9l.951-12.542h.95l.95 4.824.95-11.577.95-1.93h1.901l.95-3.859.95-10.612 1.901-9.647.95-8.683.95-4.823h.95l.951 4.823.95-3.859.95-5.788.95 16.4.951 6.754.95-19.295h.95l.95 1.93.95 4.823.951.965.95-7.718.95-9.647.95-5.789h.951l.95 2.894.95-3.859.95.965.95-17.365.951-8.683.95 19.295h1.9l.951-1.93.95 3.86.95 15.435.95 6.753.95 10.613h.951l.95-15.436.95 4.823.95-21.224.951 12.542.95 8.682h1.9l.95-15.435.951 3.859 1.9-22.19.95 16.401h1.901l.95-5.788.95-10.612.95 12.541.951-9.647.95-11.577.95-9.647h.95l.951 7.718.95-5.789.95 3.86.95.964.95-9.647h1.901l.95 31.836.95-2.894.951 3.859.95 10.612 1.9 18.33h.95l.951-8.683.95 6.753.95 8.683.95 3.859.951-5.789.95-4.823h1.9l.95 20.259.951-15.436 1.9-7.718h1.901l.95 14.471.95-2.894.95.965h.95l.951 10.612.95-1.93h1.9l.951-13.506.95 20.26.95 4.823.95 1.93h.95l.951-6.753.95 11.576 1.9 1.93.951-6.753.95-3.86.95 6.754h.95l.95-15.436.951 3.86.95-.966h.95l.95-8.682h.951l.95 6.753.95-9.647.95 1.93.95-3.86.951-.965.95 3.86h1.9l.951-6.754.95 2.894.95-1.929h.95l.95 8.683h1.901l.95-9.648.95-1.93.951.966.95 5.788.95-1.93h.95l.95-8.682.951 11.577.95-.965.95 4.824.95-14.471.951-3.86h1.9l.95 6.754.95-1.93 1.901-.964v-.965l.95 1.93.95-.965.951 8.682.95.965.95 2.894.95-1.93.95 5.79.951 3.858.95-4.824h.95l.95 13.507.951 6.753 1.9 3.859h.95l.95.964h.951l.95 3.86 1.9 3.858.951 7.718.95-3.859.95 3.86h.95l.95.964h1.901l.95 4.824.95 2.894h1.901l.95 1.93.95 2.893.95 1.93.951 3.859.95 8.682.95.965h.95l.951 1.93.95.964.95 5.789.95.965.951 1.929h1.9l.95 3.859h1.901l.95-1.93h4.751l.95-.964.95.965h3.802l.95-2.895h.95l.95 1.93h4.752l.95.965h4.75l.951 2.894.95.964h.95l.95-3.858h4.752l.95-.965h5.701l.95-.965.95 2.894h3.802l1.9-1.93h5.702l.95-.964.95-4.824h1.9l.95-20.26.95-1.929h.951l1.9-9.647h1.901l.95-6.753.95-2.894.95-.965h.95l.951 4.824h1.9l.95 10.612.951-.965.95-4.824.95.965.95 2.894h1.901l.95-2.894.95.965h.95l.951-1.93.95.965h1.9l.95 7.718.951-.965.95 3.86.95.964.95 1.93h1.901l.95 2.894.95-4.824.95-5.788.951 1.929.95-4.824h1.9l.951 1.93.95-7.718.95-3.859.95 4.824.95-4.824h1.901l.95-1.93.95 3.86.951 2.894.95-5.789.95.965h1.9l.951-12.542.95 10.613.95.964.95-4.823.951 1.929h1.9l.95 4.824h1.901l.95 3.859h2.851l.95 8.682 1.9-1.93.95 4.824.951-7.717h1.9l.95 3.859.951-2.895 2.85 5.789h1.901l.95-3.86.95-.964.95 4.824.951-3.86.95 8.683h1.9l.95-1.93.951 4.825.95 1.93h.95l.95.964h2.851l.95-.965.95.965.951 3.859h2.85l.951-2.894.95-.965.95-8.683.95 1.93.95-5.789h1.901l.95 1.93h.95l.951-1.93.95-2.894.95-.965h1.9l.951-9.647.95-2.894.95 1.93h.95l.951 6.752h1.9l.95-13.506.95-2.894h.951l.95-4.824.95-5.788h1.901l.95 1.93 1.9-9.648 1.901-19.295h1.9l.95 2.894.951-5.788.95-14.471h0" style="fill:none;stroke:#000;stroke-linecap:round;stroke-width:1.5" id="line2d_1"/><path d="M117 576.72V77.76" style="fill:none;stroke:#d3d3d3;stroke-linecap:square;stroke-linejoin:miter;stroke-width:1.25" id="patch_3"/><path d="M117 576.72h725.4" style="fill:none;stroke:#d3d3d3;stroke-linecap:square;stroke-linejoin:miter;stroke-width:1.25" id="patch_4"/><g id="matplotlib.axis_1"><g id="xtick_1"><g style="fill:#696969" transform="matrix(.16 0 0 -.16 118.636 598.378)" id="text_1"><defs><path d="M9.813 72.906h9.859V5.078q0-13.187-5-19.14-5-5.954-16.094-5.954h-3.75v8.297h3.078q6.531 0 9.219 3.672Q9.813-4.39 9.813 5.078z" id="DejaVuSans-74"/><path d="M34.281 27.484q-10.89 0-15.093-2.484-4.204-2.484-4.204-8.5 0-4.781 3.157-7.594 3.156-2.797 8.562-2.797 7.485 0 12 5.297 4.516 5.297 4.516 14.078v2zm17.922 3.72V0H43.22v8.297Q40.14 3.328 35.547.953q-4.594-2.375-11.234-2.375-8.391 0-13.36 4.719Q6 8.016 6 15.922q0 9.219 6.172 13.906 6.187 4.688 18.437 4.688h12.61v.89q0 6.203-4.078 9.594-4.078 3.39-11.453 3.39-4.688 0-9.141-1.124-4.438-1.125-8.531-3.375v8.312q4.921 1.906 9.562 2.844 4.64.953 9.031.953 11.875 0 17.735-6.156 5.86-6.14 5.86-18.64z" id="DejaVuSans-97"/><path d="M54.89 33.016V0h-8.984v32.719q0 7.765-3.031 11.61-3.031 3.858-9.078 3.858-7.281 0-11.484-4.64-4.204-4.625-4.204-12.64V0H9.08v54.688h9.03v-8.5q3.235 4.937 7.594 7.374Q30.078 56 35.797 56q9.422 0 14.25-5.828 4.844-5.828 4.844-17.156z" id="DejaVuSans-110"/></defs><use xlink:href="#DejaVuSans-74"/><use x="29.492" xlink:href="#DejaVuSans-97"/><use x="90.771" xlink:href="#DejaVuSans-110"/></g></g><g id="xtick_2"><g style="fill:#696969" transform="matrix(.16 0 0 -.16 203.599 598.378)" id="text_2"><defs><path d="M34.188 63.188 20.797 26.906h26.812zm-5.579 9.718h11.188L67.578 0h-10.25l-6.64 18.703h-32.86L11.188 0H.78z" id="DejaVuSans-65"/><path d="M18.11 8.203v-29H9.077v75.484h9.031v-8.296q2.844 4.875 7.157 7.234Q29.594 56 35.594 56q9.968 0 16.187-7.906 6.235-7.907 6.235-20.797T51.78 6.484q-6.218-7.906-16.187-7.906-6 0-10.328 2.375-4.313 2.375-7.157 7.25zm30.578 19.094q0 9.906-4.079 15.547-4.078 5.64-11.203 5.64-7.14 0-11.218-5.64-4.079-5.64-4.079-15.547 0-9.906 4.078-15.547 4.079-5.64 11.22-5.64 7.124 0 11.202 5.64t4.078 15.547z" id="DejaVuSans-112"/><path d="M41.11 46.297q-1.516.875-3.297 1.281Q36.03 48 33.89 48q-7.625 0-11.703-4.953-4.079-4.953-4.079-14.234V0H9.08v54.688h9.03v-8.5q2.844 4.984 7.375 7.39Q30.031 56 36.531 56q.922 0 2.047-.125 1.125-.11 2.484-.36z" id="DejaVuSans-114"/></defs><use xlink:href="#DejaVuSans-65"/><use x="68.408" xlink:href="#DejaVuSans-112"/><use x="131.885" xlink:href="#DejaVuSans-114"/></g></g><g id="xtick_3"><g style="fill:#696969" transform="matrix(.16 0 0 -.16 294.256 598.378)" id="text_3"><defs><path d="M8.5 21.578v33.11h8.984V21.922q0-7.766 3.016-11.656 3.031-3.875 9.094-3.875 7.265 0 11.484 4.64 4.234 4.64 4.234 12.656v31h8.985V0h-8.984v8.406Q42.047 3.422 37.718 1q-4.313-2.422-10.032-2.422-9.421 0-14.312 5.86Q8.5 10.296 8.5 21.578zM31.11 56z" id="DejaVuSans-117"/><path d="M9.422 75.984h8.984V0H9.422z" id="DejaVuSans-108"/></defs><use xlink:href="#DejaVuSans-74"/><use x="29.492" xlink:href="#DejaVuSans-117"/><use x="92.871" xlink:href="#DejaVuSans-108"/></g></g><g id="xtick_4"><g style="fill:#696969" transform="matrix(.16 0 0 -.16 377.497 598.378)" id="text_4"><defs><path d="M39.406 66.219q-10.75 0-17.078-8.016-6.312-8-6.312-21.828 0-13.766 6.312-21.781 6.328-8 17.078-8 10.735 0 17.016 8 6.281 8.015 6.281 21.781 0 13.828-6.281 21.828-6.281 8.016-17.016 8.016zm0 8q15.328 0 24.5-10.281 9.188-10.282 9.188-27.563 0-17.234-9.188-27.516-9.172-10.28-24.5-10.28-15.375 0-24.593 10.25-9.204 10.265-9.204 27.546t9.204 27.563q9.218 10.28 24.593 10.28z" id="DejaVuSans-79"/><path d="M48.781 52.594v-8.407q-3.812 2.11-7.64 3.157-3.828 1.047-7.735 1.047-8.75 0-13.593-5.547-4.829-5.532-4.829-15.547 0-10.016 4.829-15.563 4.843-5.53 13.593-5.53 3.907 0 7.735 1.046 3.828 1.047 7.64 3.156V2.094Q45.016.344 40.984-.531q-4.015-.89-8.562-.89-12.36 0-19.64 7.765-7.266 7.765-7.266 20.953 0 13.375 7.343 21.031Q20.22 56 33.016 56q4.14 0 8.093-.86 3.953-.843 7.672-2.546z" id="DejaVuSans-99"/><path d="M18.313 70.219V54.688h18.5v-6.985h-18.5V18.016q0-6.688 1.828-8.594 1.828-1.906 7.453-1.906h9.218V0h-9.218q-10.407 0-14.36 3.875-3.953 3.89-3.953 14.14v29.688H2.687v6.984h6.594V70.22z" id="DejaVuSans-116"/></defs><use xlink:href="#DejaVuSans-79"/><use x="78.711" xlink:href="#DejaVuSans-99"/><use x="133.691" xlink:href="#DejaVuSans-116"/></g></g><g id="xtick_5"><g style="fill:#696969" transform="matrix(.16 0 0 -.16 466.417 598.378)" id="text_5"><use xlink:href="#DejaVuSans-74"/><use x="29.492" xlink:href="#DejaVuSans-97"/><use x="90.771" xlink:href="#DejaVuSans-110"/></g></g><g id="xtick_6"><g style="fill:#696969" transform="matrix(.16 0 0 -.16 550.43 598.378)" id="text_6"><use xlink:href="#DejaVuSans-65"/><use x="68.408" xlink:href="#DejaVuSans-112"/><use x="131.885" xlink:href="#DejaVuSans-114"/></g></g><g id="xtick_7"><g style="fill:#696969" transform="matrix(.16 0 0 -.16 641.088 598.378)" id="text_7"><use xlink:href="#DejaVuSans-74"/><use x="29.492" xlink:href="#DejaVuSans-117"/><use x="92.871" xlink:href="#DejaVuSans-108"/></g></g><g id="xtick_8"><g style="fill:#696969" transform="matrix(.16 0 0 -.16 724.328 598.378)" id="text_8"><use xlink:href="#DejaVuSans-79"/><use x="78.711" xlink:href="#DejaVuSans-99"/><use x="133.691" xlink:href="#DejaVuSans-116"/></g></g><g id="xtick_9"><g style="fill:#696969" transform="matrix(.16 0 0 -.16 813.249 598.378)" id="text_9"><use xlink:href="#DejaVuSans-74"/><use x="29.492" xlink:href="#DejaVuSans-97"/><use x="90.771" xlink:href="#DejaVuSans-110"/></g></g></g><g id="matplotlib.axis_2"><g id="ytick_1"><g style="fill:#696969" transform="matrix(.16 0 0 -.16 97.32 552.226)" id="text_10"><defs><path d="M31.781 66.406q-7.61 0-11.453-7.5Q16.5 51.422 16.5 36.375q0-14.984 3.828-22.484 3.844-7.5 11.453-7.5 7.672 0 11.5 7.5 3.844 7.5 3.844 22.484 0 15.047-3.844 22.531-3.828 7.5-11.5 7.5zm0 7.813q12.266 0 18.735-9.703 6.468-9.688 6.468-28.141 0-18.406-6.468-28.11-6.47-9.687-18.735-9.687-12.25 0-18.718 9.688-6.47 9.703-6.47 28.109 0 18.453 6.47 28.14Q19.53 74.22 31.78 74.22z" id="DejaVuSans-48"/></defs><use xlink:href="#DejaVuSans-48"/></g></g><g id="ytick_2"><g style="fill:#696969" transform="matrix(.16 0 0 -.16 97.32 484.695)" id="text_11"><defs><path d="M10.797 72.906h38.719v-8.312H19.828v-17.86q2.14.735 4.281 1.094 2.157.36 4.313.36 12.203 0 19.328-6.688 7.14-6.688 7.14-18.11 0-11.765-7.328-18.296-7.328-6.516-20.656-6.516-4.593 0-9.36.781-4.75.782-9.827 2.344v9.922q4.39-2.39 9.078-3.563 4.687-1.171 9.906-1.171 8.453 0 13.375 4.437 4.938 4.438 4.938 12.063 0 7.609-4.938 12.047-4.922 4.453-13.375 4.453-3.953 0-7.89-.875-3.922-.875-8.016-2.735z" id="DejaVuSans-53"/></defs><use xlink:href="#DejaVuSans-53"/></g></g><g id="ytick_3"><g style="fill:#696969" transform="matrix(.16 0 0 -.16 87.14 417.163)" id="text_12"><defs><path d="M12.406 8.297h16.11v55.625l-17.532-3.516v8.985l17.438 3.515h9.86V8.296H54.39V0H12.406z" id="DejaVuSans-49"/></defs><use xlink:href="#DejaVuSans-49"/><use x="63.623" xlink:href="#DejaVuSans-48"/></g></g><g id="ytick_4"><g style="fill:#696969" transform="matrix(.16 0 0 -.16 87.14 349.632)" id="text_13"><use xlink:href="#DejaVuSans-49"/><use x="63.623" xlink:href="#DejaVuSans-53"/></g></g><g id="ytick_5"><g style="fill:#696969" transform="matrix(.16 0 0 -.16 87.14 282.1)" id="text_14"><defs><path d="M19.188 8.297h34.421V0H7.33v8.297q5.609 5.812 15.296 15.594 9.703 9.797 12.188 12.64 4.734 5.313 6.609 9 1.89 3.688 1.89 7.25 0 5.813-4.078 9.469-4.078 3.672-10.625 3.672-4.64 0-9.797-1.61-5.14-1.609-11-4.89v9.969Q13.767 71.78 18.938 73q5.188 1.219 9.485 1.219 11.328 0 18.062-5.672 6.735-5.656 6.735-15.125 0-4.5-1.688-8.531-1.672-4.016-6.125-9.485-1.218-1.422-7.765-8.187-6.532-6.766-18.453-18.922z" id="DejaVuSans-50"/></defs><use xlink:href="#DejaVuSans-50"/><use x="63.623" xlink:href="#DejaVuSans-48"/></g></g><g id="ytick_6"><g style="fill:#696969" transform="matrix(.16 0 0 -.16 87.14 214.569)" id="text_15"><use xlink:href="#DejaVuSans-50"/><use x="63.623" xlink:href="#DejaVuSans-53"/></g></g><g id="ytick_7"><g style="fill:#696969" transform="matrix(.16 0 0 -.16 87.14 147.038)" id="text_16"><defs><path d="M40.578 39.313Q47.656 37.797 51.625 33q3.984-4.781 3.984-11.813 0-10.78-7.422-16.703-7.421-5.906-21.093-5.906-4.578 0-9.438.906-4.86.907-10.031 2.72v9.515q4.094-2.39 8.969-3.61 4.89-1.218 10.218-1.218 9.266 0 14.125 3.656 4.86 3.656 4.86 10.64 0 6.454-4.516 10.079-4.515 3.64-12.562 3.64h-8.5v8.11h8.89q7.266 0 11.125 2.906 3.86 2.906 3.86 8.375 0 5.61-3.985 8.61-3.968 3.015-11.39 3.015-4.063 0-8.703-.89-4.641-.876-10.203-2.72v8.782q5.624 1.562 10.53 2.344 4.907.78 9.25.78 11.235 0 17.766-5.109 6.547-5.093 6.547-13.78 0-6.063-3.468-10.235-3.47-4.172-9.86-5.782z" id="DejaVuSans-51"/></defs><use xlink:href="#DejaVuSans-51"/><use x="63.623" xlink:href="#DejaVuSans-48"/></g></g><g style="fill:#696969" transform="matrix(0 -.2 -.2 0 78.98 379.813)" id="text_17"><defs><path d="M51.125 44H36.922l-4.11-16.313h14.313zm-7.328 27.781-5.078-20.265h14.265L58.11 71.78h7.813L60.89 51.516h15.234V44h-17.14l-4-16.313h15.53V20.22H53.079L48 0h-7.813l5.032 20.219H30.906L25.875 0h-7.86l5.079 20.219H7.719v7.468h17.187L29 44H13.281v7.516h17.625l4.985 20.265z" id="DejaVuSans-35"/><path d="M30.61 48.39q-7.22 0-11.422-5.64-4.204-5.64-4.204-15.453 0-9.813 4.172-15.453 4.188-5.64 11.453-5.64 7.188 0 11.375 5.655 4.203 5.672 4.203 15.438 0 9.719-4.203 15.406-4.187 5.688-11.375 5.688zm0 7.61q11.718 0 18.406-7.625 6.703-7.61 6.703-21.078 0-13.422-6.703-21.078-6.688-7.64-18.407-7.64-11.765 0-18.437 7.64-6.656 7.656-6.656 21.078 0 13.469 6.656 21.078Q18.844 56 30.609 56z" id="DejaVuSans-111"/><path d="M37.11 75.984V68.5h-8.594q-4.828 0-6.72-1.953-1.874-1.953-1.874-7.031v-4.828h14.797v-6.985H19.922V0H10.89v47.703H2.297v6.984h8.594V58.5q0 9.125 4.25 13.297 4.25 4.187 13.468 4.187z" id="DejaVuSans-102"/><path d="M44.281 53.078v-8.5q-3.797 1.953-7.906 2.922-4.094.984-8.5.984-6.688 0-10.031-2.047-3.344-2.046-3.344-6.156 0-3.125 2.39-4.906 2.391-1.781 9.626-3.39l3.078-.688q9.562-2.047 13.593-5.781 4.032-3.735 4.032-10.422 0-7.625-6.032-12.078-6.03-4.438-16.578-4.438-4.39 0-9.156.86Q10.688.296 5.422 2v9.281q4.984-2.594 9.812-3.89 4.829-1.282 9.579-1.282 6.343 0 9.75 2.172 3.421 2.172 3.421 6.125 0 3.656-2.468 5.61-2.453 1.953-10.813 3.765l-3.125.735q-8.344 1.75-12.062 5.39-3.704 3.64-3.704 9.985 0 7.718 5.47 11.906Q16.75 56 26.811 56q4.97 0 9.36-.734 4.406-.72 8.11-2.188z" id="DejaVuSans-115"/><path d="M56.203 29.594v-4.39H14.891q.593-9.282 5.593-14.142 5-4.859 13.938-4.859 5.172 0 10.031 1.266 4.86 1.265 9.656 3.812v-8.5Q49.266.734 44.187-.344 39.11-1.422 33.892-1.422q-13.094 0-20.735 7.61-7.64 7.625-7.64 20.625 0 13.421 7.25 21.296Q20.016 56 32.328 56q11.031 0 17.453-7.11 6.422-7.093 6.422-19.296zm-8.984 2.64q-.094 7.36-4.125 11.75-4.032 4.407-10.672 4.407-7.516 0-12.031-4.25-4.516-4.25-5.203-11.97z" id="DejaVuSans-101"/></defs><use xlink:href="#DejaVuSans-35"/><use x="83.789" xlink:href="#DejaVuSans-32"/><use x="115.576" xlink:href="#DejaVuSans-111"/><use x="176.758" xlink:href="#DejaVuSans-102"/><use x="211.963" xlink:href="#DejaVuSans-32"/><use x="243.75" xlink:href="#DejaVuSans-99"/><use x="298.73" xlink:href="#DejaVuSans-97"/><use x="360.01" xlink:href="#DejaVuSans-115"/><use x="412.109" xlink:href="#DejaVuSans-101"/><use x="473.633" xlink:href="#DejaVuSans-115"/></g></g><g style="fill:#696969" transform="matrix(.24 0 0 -.24 308.75 71.76)" id="text_18"><defs><path d="M44.39 34.188q3.172-1.079 6.172-4.594 3-3.516 6.032-9.672L66.609 0H56l-9.313 18.703q-3.624 7.328-7.015 9.719-3.39 2.39-9.25 2.39h-10.75V0h-9.86v72.906h22.266q12.5 0 18.656-5.234 6.157-5.219 6.157-15.766 0-6.89-3.203-11.437-3.204-4.532-9.297-6.282zM19.673 64.797V38.922h12.406q7.125 0 10.766 3.297 3.64 3.297 3.64 9.687 0 6.39-3.64 9.64-3.64 3.25-10.766 3.25z" id="DejaVuSans-82"/><path d="M54.89 33.016V0h-8.984v32.719q0 7.765-3.031 11.61-3.031 3.858-9.078 3.858-7.281 0-11.484-4.64-4.204-4.625-4.204-12.64V0H9.08v75.984h9.03V46.188q3.235 4.937 7.594 7.374Q30.078 56 35.797 56q9.422 0 14.25-5.828 4.844-5.828 4.844-17.156z" id="DejaVuSans-104"/><path d="M45.406 46.39v29.594h8.985V0h-8.985v8.203Q42.578 3.328 38.25.953q-4.313-2.375-10.375-2.375-9.906 0-16.14 7.906-6.22 7.922-6.22 20.813 0 12.89 6.22 20.797Q17.968 56 27.874 56q6.063 0 10.375-2.375 4.328-2.36 7.156-7.234zm-30.61-19.093q0-9.906 4.079-15.547 4.078-5.64 11.203-5.64 7.125 0 11.219 5.64 4.11 5.64 4.11 15.547 0 9.906-4.11 15.547-4.094 5.64-11.219 5.64-7.125 0-11.203-5.64-4.078-5.64-4.078-15.547z" id="DejaVuSans-100"/><path d="M9.813 72.906h13.28l32.329-60.984v60.984h9.562V0h-13.28L19.39 60.984V0H9.813z" id="DejaVuSans-78"/><path d="M4.203 54.688h8.985l11.234-42.672 11.172 42.672h10.593l11.235-42.672 11.187 42.672h8.985L63.28 0H52.688L40.922 44.828 29.109 0H18.5z" id="DejaVuSans-119"/><path d="M64.406 67.281v-10.39q-4.984 4.64-10.625 6.922-5.64 2.296-11.984 2.296-12.5 0-19.14-7.64-6.641-7.64-6.641-22.094 0-14.406 6.64-22.047 6.64-7.64 19.14-7.64 6.345 0 11.985 2.296 5.64 2.297 10.625 6.938V5.609Q59.234 2.094 53.437.33q-5.78-1.75-12.218-1.75-16.563 0-26.094 10.124-9.516 10.14-9.516 27.672 0 17.578 9.516 27.703 9.531 10.14 26.094 10.14 6.531 0 12.312-1.734 5.797-1.734 10.875-5.203z" id="DejaVuSans-67"/><path d="M2.984 54.688H12.5L29.594 8.797l17.093 45.89h9.516L35.687 0H23.485z" id="DejaVuSans-118"/><path d="M9.422 54.688h8.984V0H9.422zm0 21.296h8.984v-11.39H9.422z" id="DejaVuSans-105"/></defs><use xlink:href="#DejaVuSans-82"/><use x="64.982" xlink:href="#DejaVuSans-117"/><use x="128.361" xlink:href="#DejaVuSans-116"/><use x="167.57" xlink:href="#DejaVuSans-104"/><use x="230.949" xlink:href="#DejaVuSans-101"/><use x="292.473" xlink:href="#DejaVuSans-114"/><use x="333.586" xlink:href="#DejaVuSans-102"/><use x="368.791" xlink:href="#DejaVuSans-111"/><use x="429.973" xlink:href="#DejaVuSans-114"/><use x="469.336" xlink:href="#DejaVuSans-100"/><use x="532.813" xlink:href="#DejaVuSans-32"/><use x="564.6" xlink:href="#DejaVuSans-78"/><use x="639.404" xlink:href="#DejaVuSans-101"/><use x="700.928" xlink:href="#DejaVuSans-119"/><use x="782.715" xlink:href="#DejaVuSans-32"/><use x="814.502" xlink:href="#DejaVuSans-67"/><use x="884.326" xlink:href="#DejaVuSans-111"/><use x="945.508" xlink:href="#DejaVuSans-118"/><use x="1004.688" xlink:href="#DejaVuSans-105"/><use x="1032.471" xlink:href="#DejaVuSans-100"/><use x="1095.947" xlink:href="#DejaVuSans-32"/><use x="1127.734" xlink:href="#DejaVuSans-67"/><use x="1197.559" xlink:href="#DejaVuSans-97"/><use x="1258.838" xlink:href="#DejaVuSans-115"/><use x="1310.938" xlink:href="#DejaVuSans-101"/><use x="1372.461" xlink:href="#DejaVuSans-115"/></g><g id="legend_1"><path d="M686.525 161.015H831.2q3.2 0 3.2-3.2V88.96q0-3.2-3.2-3.2H686.525q-3.2 0-3.2 3.2v68.855q0 3.2 3.2 3.2z" style="fill:none;opacity:.8;stroke:#ccc;stroke-linejoin:miter" id="patch_5"/><path d="M689.725 98.718h32" style="fill:none;stroke:#000;stroke-linecap:round;stroke-width:1.5" id="line2d_4"/><g style="fill:#696969" transform="matrix(.16 0 0 -.16 734.525 104.317)" id="text_19"><defs><path d="M37.797 64.313 12.89 25.39h24.906zm-2.594 8.593H47.61V25.391h10.407v-8.203H47.609V0h-9.812v17.188H4.89v9.515z" id="DejaVuSans-52"/><path d="M45.406 27.984q0 9.766-4.031 15.125-4.016 5.375-11.297 5.375-7.219 0-11.25-5.375-4.031-5.359-4.031-15.125 0-9.718 4.031-15.093t11.25-5.375q7.281 0 11.297 5.375 4.031 5.375 4.031 15.093zm8.985-21.203q0-13.953-6.203-20.765Q42-20.797 29.203-20.797q-4.734 0-8.937.703-4.203.703-8.157 2.172v8.735q3.954-2.141 7.813-3.157 3.86-1.031 7.86-1.031 8.843 0 13.234 4.61 4.39 4.609 4.39 13.937v4.453q-2.781-4.844-7.125-7.234Q33.938 0 27.875 0 17.828 0 11.672 7.656q-6.156 7.672-6.156 20.328 0 12.688 6.156 20.344Q17.828 56 27.875 56q6.063 0 10.406-2.39 4.344-2.391 7.125-7.22v8.297h8.985z" id="DejaVuSans-103"/></defs><use xlink:href="#DejaVuSans-49"/><use x="63.623" xlink:href="#DejaVuSans-52"/><use x="127.246" xlink:href="#DejaVuSans-100"/><use x="190.723" xlink:href="#DejaVuSans-32"/><use x="222.51" xlink:href="#DejaVuSans-97"/><use x="283.789" xlink:href="#DejaVuSans-118"/><use x="342.969" xlink:href="#DejaVuSans-103"/></g><path d="M689.725 127.802h32v-11.2h-32z" style="fill:#089fff;opacity:.2;stroke:#fff;stroke-linejoin:miter" id="patch_6"/><g style="fill:#696969" transform="matrix(.16 0 0 -.16 734.525 127.802)" id="text_20"><defs><path d="M8.688 72.906h9.921V28.61q0-11.718 4.235-16.875 4.25-5.14 13.781-5.14 9.469 0 13.719 5.14 4.25 5.157 4.25 16.875v44.297H64.5V27.391q0-14.25-7.063-21.532-7.046-7.28-20.812-7.28-13.828 0-20.89 7.28-7.047 7.282-7.047 21.532z" id="DejaVuSans-85"/><path d="M32.172-5.078q-3.797-9.766-7.422-12.735-3.61-2.984-9.656-2.984H7.906v7.516h5.282q3.703 0 5.75 1.765Q21-9.766 23.483-3.219l1.61 4.094-22.11 53.813H12.5l17.094-42.766 17.093 42.766h9.516z" id="DejaVuSans-121"/></defs><use xlink:href="#DejaVuSans-85"/><use x="73.193" xlink:href="#DejaVuSans-110"/><use x="136.572" xlink:href="#DejaVuSans-99"/><use x="191.553" xlink:href="#DejaVuSans-101"/><use x="253.076" xlink:href="#DejaVuSans-114"/><use x="294.189" xlink:href="#DejaVuSans-116"/><use x="333.398" xlink:href="#DejaVuSans-97"/><use x="394.678" xlink:href="#DejaVuSans-105"/><use x="422.461" xlink:href="#DejaVuSans-110"/><use x="485.84" xlink:href="#DejaVuSans-116"/><use x="525.049" xlink:href="#DejaVuSans-121"/></g><path d="M705.725 151.287v-7.7" style="fill:none;stroke:#000;stroke-dasharray:2.25,3.7125;stroke-dashoffset:0;stroke-width:1.5" id="line2d_6"/><g style="fill:#696969" transform="matrix(.16 0 0 -.16 734.525 151.287)" id="text_21"><defs><path d="M19.672 64.797V8.109h11.922q15.093 0 22.093 6.829 7 6.843 7 21.593 0 14.64-7 21.453-7 6.813-22.093 6.813zm-9.86 8.11h20.266q21.188 0 31.094-8.813 9.922-8.813 9.922-27.563 0-18.86-9.969-27.703Q51.172 0 30.078 0H9.813z" id="DejaVuSans-68"/></defs><use xlink:href="#DejaVuSans-68"/><use x="77.002" xlink:href="#DejaVuSans-97"/><use x="138.281" xlink:href="#DejaVuSans-105"/><use x="166.064" xlink:href="#DejaVuSans-108"/><use x="193.848" xlink:href="#DejaVuSans-121"/><use x="253.027" xlink:href="#DejaVuSans-32"/><use x="284.814" xlink:href="#DejaVuSans-67"/><use x="354.639" xlink:href="#DejaVuSans-97"/><use x="415.918" xlink:href="#DejaVuSans-115"/><use x="468.018" xlink:href="#DejaVuSans-101"/><use x="529.541" xlink:href="#DejaVuSans-115"/></g></g></g></g><defs><clipPath id="p3deb195d45"><path d="M117 77.76h725.4v498.96H117z"/></clipPath></defs></svg>