<svg height="864" viewBox="0 0 936 648" width="1248" xmlns="http://www.w3.org/2000/svg" xmlns:xlink="http://www.w3.org/1999/xlink"><defs><style>*{stroke-linecap:butt;stroke-linejoin:round}</style></defs><g id="figure_1"><path d="M0 648h936V0H0z" style="fill:#fff" id="patch_1"/><g id="axes_1"><path d="M117 576.72h725.4V77.76H117z" style="fill:none" id="patch_2"/><g id="PolyCollection_1"><defs><path d="M151.438-95.509H233.504l1.465-1.434 1.466.188 1.465.122 1.465-.753 1.466.147 1.465-2.364 1.466-2.068 1.465-4.259 1.466.11 1.465-1.826 1.466-1.009 1.465-3.68 1.466-6.006 1.465-4.807 1.465 1.29 1.466-4.519 1.465-12.903 1.466-6.87 1.465-1.12 1.466-.894 1.465.237 1.466-3.657 1.465-5.918 1.466.087 1.465.067 1.465-3.244 1.466 1.496 1.465.528 1.466-6.472 1.465-3.36 1.466 11.805 1.465 13.347 1.466-.38 1.465 3.415 1.466-1.067 1.465 5.908 1.465.178 1.466-.18 1.465-.401 1.466.068 1.465 3.295 1.466 1.361 1.465.353 1.466-.577 1.465-.813 1.466.275 1.465 5.343 1.465 3.606 1.466 5.598 1.465 6.265 1.466 7.463 1.465 3.052 1.466.419 1.465 1.018 1.466-4.304 1.465.491 1.466 1.447 1.465 1.422 1.465 2.162 1.466-1.453 1.465-1.33 1.466-2.586 1.465-1.344 1.466-.875 1.465.905 1.466.024 1.465-.024 1.466 4.288 1.465 3.12 1.465 1.131 1.466 1.246 1.465-.864 1.466.204 1.465.113 1.466-3.041 1.465-.234 1.466-.302 1.465-.39 1.466-.354 1.465-.463 1.465-.662 1.466-.08 1.465.02 1.466-.979 1.465-.205 1.466.786 1.465-.281 1.466-.542 1.465 3.477 1.466.282 1.465.192 1.465.137 1.466.096 1.465.063 1.466.033 1.465-1.997 1.466.934 1.465-.17 1.466-1.182 1.465-.09 1.466-.103 1.465-.12 1.465-3.24 1.466 1.2 1.465-.72 1.466.147 1.465.056 1.466-.028 1.465-.115 1.466-3.436 1.465-.64 1.466 1.003h1.465l1.465-1.003 1.466-.173 1.465-.353 1.466 1.88 1.465-1.157 1.466.832 1.465-.183 1.466-.233 1.465-.308 1.466-.461 1.465 7.004 1.465-1.716 1.466-.877 1.465.063 1.466 2.085 1.465.022 1.466-.082 1.465 1.092 1.466 1.011 1.465.021 1.466-1.127 1.465-.242 1.465-.37 1.466-.61 1.465-.988 1.466 3.064 1.465-.069 1.466.93 1.465.112 1.466.045 1.465-.015 1.466 1.109 1.465.124 1.465-.96 1.466.98 1.465-1.082 1.466-.143 1.465-.196 1.466-.622 1.465-.08 1.466.914 1.465-.978 1.466-.87 1.465.081 1.465.066h1.466l1.465-1.685 1.466.21 1.465-.766 1.466 1.049 1.465.037 1.466.005 1.465-.026 1.466-.06 1.465-3.645 1.465 1.033 1.466.954 1.465-.074 1.466-.132 1.465-.207 1.466-.937 1.465.931 1.466.979 1.465-.06 1.466-.066 1.465-.076 1.465-.085 1.466-.1 1.465 2.025 1.466-1.002 1.465.032 1.466.01 1.465-.01 1.466-2.824 1.465 2.792 1.466-1.043h5.861l1.466.987 1.465.003 1.466 2.103 1.465 1.305 1.466.235 1.465.18 1.466.138 1.465.93 1.465-.924 1.466-3.914 1.465-7.267 1.466-.663 1.465.9 1.466.678 1.465-1.245 1.466-4.64 1.465-.126 1.466-3.89 1.465-3.774 1.465-2.063 1.466-2.344 1.465-.213 1.466.087 1.465-.118 1.466 8.036 1.465 1.239 1.466-.872 1.465-1.082 1.466-5.066 1.465 1.494 1.465-4.426 1.466-.12 1.465-.006 1.466 2.863 1.465 2.647 1.466-10.142 1.465-1.107 1.466-2.514 1.465-1.948 1.466-3.662 1.465.695 1.465.31 1.466-10.611 1.465 1.12 1.466 5.246 1.465-10.39 1.466-1.007 1.465.024 1.466-1.104 1.465-3.994 1.466-10.05 1.465-4.054 1.465-3.979 1.466-7.08 1.465-3.614 1.466.135 1.465 5.036 1.466-3.989 1.465-6.755 1.466 15.441 1.465 5.551 1.466-20.75 1.465-2.006 1.465-.524 1.466 3.45 1.465-.033 1.466-8.27 1.465-8.743 1.466-4.267 1.465 1.2 1.466 3.44 1.465-3.098 1.466 1.568 1.465-15.947 1.465-7.756 1.466 19.582 1.465-.18 1.466-.554 1.465-3.352 1.466 1.554 1.465 14.988 1.466 8.24 1.465 13.71 1.466 2.144 1.465-15.335 1.465 5.44 1.466-21.446 1.465 11.762 1.466 6.451 1.465-.41 1.466-.683 1.465-16.422 1.466 2.525 1.465-11.612 1.466-8.163 1.465 16.75 1.465-1.02 1.466-1.525 1.465-5.716 1.466-10.237 1.465 12.72 1.466-9.317 1.465-11.127 1.466-8.621 1.465-.021 1.466 7.979 1.465-5.995 1.465 4.062 1.466 1.29 1.465-9.881 1.466-.69 1.465-1.385 1.466 32.29 1.465-2.274 1.466 3.784 1.465 13.126 1.466 12.132 1.465 13.07 1.465 2.018 1.466-8.016 1.465 7.31 1.466 9.705 1.465 4.452 1.466-7.88 1.465-8.531 1.466-5.865 1.465-1.424 1.466 19.692 1.465-18.488 1.465-5.707 1.466-4.537 1.465.124 1.466.116 1.465 14.372 1.466-2.998 1.465 1.105 1.466-.062 1.465 11.99 1.466-1.44 1.465.278 1.465.062 1.466-14.208 1.465 21.594 1.466 5.942 1.465 2.309 1.466-.28 1.465-8.35 1.466 12.652 1.465 1.317 1.466 1.069 1.465-7.683 1.465-4.071 1.466 6.721 1.465-.295 1.466-15.743 1.465.809 1.466-.718 1.465.39 1.466-7.495 1.465.907 1.466 7.038 1.465-9.269 1.465 1.753 1.466-4.3 1.465-.883 1.466 3.768 1.465-1.295 1.466-2.102 1.465-6.383 1.466 2.476 1.465-2.411 1.466-.853 1.465 8.871 1.465.063 1.466-.837 1.465-9.502 1.466-1.63 1.465 1.215 1.466 5.869 1.465-2.027 1.466-.091 1.465-8.238 1.466 11.755 1.465-.952 1.465 5.16 1.466-14.2 1.465-3.364 1.466.204 1.465-.105 1.466 6.856 1.465-1.906 2.931-.887v-1.123l1.466 1.807 1.465-1.157 1.465 9.02 1.466.881 1.465 3.257 1.466-2.468 1.465 6.95v-13.589l-1.465-4.791-1.466 1.446-1.465-2.614-1.466-1.077-1.465-8.592-1.465.8-1.466-2.106v.833l-2.93 1.07-1.466 2.008-1.466-6.842-1.465-.105-1.466.204-1.465 4.462-1.466 15.155-1.465-4.625-1.465 1.006-1.466-11.728-1.465 9.374-1.466-.091-1.465 1.887-1.466-5.873-1.465-.741-1.466 2.283-1.465 10.067-1.466-.837-1.465.063-1.465-8.741-1.466-.853-1.465 1.503-1.466-3.395-1.465 7.315-1.466-2.102-1.465-1.295-1.466-4.06-1.465 1.075-1.466 3.527-1.465-2.16-1.465 10.3-1.466-6.66-1.465.907-1.466 10.116-1.465.39-1.466 1.24-1.465-7.019-1.466 15.568-1.465-.295-1.466-6.977-1.465 3.756-1.465 6.016-1.466-.888-1.465-.64-1.466-10.832-1.465 5.35-1.466-.28-1.465-1.606-1.466-3.843-1.465-19.5-1.466 13.188-1.465.062-1.465.277-1.466 2.474-1.465-9.535-1.466-.062-1.465-.852-1.466 2.872-1.465-14.981-1.466.115-1.465.124-1.466 3.291-1.465 2.121-1.465 12.823-1.466-21.404-1.465-1.423-1.466-5.865-1.465 1.253-1.466 3.862-1.465-3.376-1.466-7.908-1.465-6.388-1.466 9.596-1.465 2.019-1.465-6.5-1.466-5.48-1.465-8.4-1.466-4.044-1.465 3.597-1.466-32.29-1.465-1.385-1.466-.689-1.465 9.689-1.466-.668-1.465-3.766-1.465 5.747-1.466-7.676-1.465-.021-1.466 10.948-1.465 12.356-1.466 10.252-1.465-12.72-1.466 11.29-1.465 6.025-1.466-1.524-1.465-1.02-1.465-16.519-1.466 13.363-1.465 11.872-1.466-5.303-1.465 14.888-1.466-.683-1.465-.41-1.466-11.16-1.465-13.679-1.466 21.606-1.465-4.344-1.465 15.976-1.466 2.144-1.465-7.816-1.466-5.459-1.465-16.322-1.466-6.275-1.465.562-1.466-.554-1.465-.179-1.466-19.557-1.465 9.856-1.465 19.278-1.466-.388-1.465 4.728-1.466-2.43-1.465 1.2-1.466 7.475-1.465 10.826-1.466 7.385-1.465-1.99-1.466-6.334-1.465-4.438-1.465-2.006-1.466 18.388-1.465-8.147-1.466-17.827-1.465 4.987-1.466 3.838-1.465-4.748-1.466.134-1.465 6.17-1.466 10.534-1.465 5.805-1.465 5.73-1.466 11.478-1.465 3.833-1.466-1.104-1.465.024-1.466 2.907-1.465 13.094-1.466-4.539-1.465 1.12-1.466 14.83-1.465.308-1.465.696-1.466 6.122-1.465 3.923-1.466 3.357-1.465.85-1.466 9.427-1.465-3.224-1.466-3.008-1.465-.006-1.466-.12-1.465 3.403-1.465-2.421-1.466 2.762-1.465-1.082-1.466-.872-1.465-2.674-1.466-9.577-1.465-2.075-1.466-1.87-1.465-.213-1.466 3.527-1.465 3.807-1.465 6.01-1.466 5.896-1.465 1.83-1.466 7.102-1.465 2.67-1.466.677-1.465.9-1.466 3.25-1.465 10.347-1.466 3.914-1.465 1.031-1.465-1.026-1.466.139-1.465.179-1.466.235-1.465-.651-1.466-1.812-1.465.003-1.466-.97h-5.861l-1.466.915-1.465-3.08-1.466 3.048-1.465-.01-1.466.01-1.465.032-1.466.954-1.465-1.889-1.466-.099-1.465-.086-1.465-.075-1.466-.067-1.465-.06-1.466-.978-1.465-1.025-1.466 1.02-1.465-.207-1.466-.132-1.465-.075-1.466-1.002-1.465-.924-1.465 4.182-1.466-.06-1.465-.026-1.466.006-1.465.036-1.466-.907-1.465 1.19-1.466.21-1.465 2.23h-1.466l-1.465.065-1.465.082-1.466 1.086-1.465.979-1.466-1.043-1.465-.08-1.466-.621-1.465-.197-1.466-.143-1.465.876-1.466-.978-1.465.997-1.465.124-1.466-.848-1.465-.015-1.466.045-1.465.113-1.466-1.028-1.465-.069-1.466-2.806-1.465.968-1.466-.61-1.465-.37-1.465-.242-1.466.83-1.465.021-1.466-.946-1.465-.865-1.466-.081-1.465.022-1.466-1.83-1.465.063-1.466 1.08-1.465 2.198-1.465-4.737-1.466-.462-1.465-.307-1.466-.233-1.465-.183-1.466-1.125-1.465.799-1.466-2.033-1.465-.353-1.466-.173-1.465.954h-1.465l-1.466-.954-1.465 1.317-1.466 4.391-1.465-.114-1.466-.028-1.465.056-1.466.146-1.465 1.237-1.466-.756-1.465 4.587-1.465-.12-1.466-.102-1.465-.09-1.466.775-1.465-.17-1.466-1.024-1.465 1.918-1.466.033-1.465.062-1.466.097-1.465.137-1.465.192-1.466.281-1.465-2.394-1.466-.541-1.465-.282-1.466-1.17-1.465-.205-1.466.978-1.465.02-1.466-.08-1.465-.662-1.465-.463-1.466-.354-1.465-.39-1.466-.303-1.465-.233-1.466 2.83-1.465.112-1.466.204-1.465 1.093-1.466-.71-1.465-.827-1.465-2.75-1.466-3.54-1.465-.024-1.466.023-1.465-1.051-1.466-.875-1.465-1.344-1.466-.629-1.465-1.33-1.466-1.454-1.465-3.708-1.465-2.492-1.466-2.467-1.465-1.466-1.466 3.524-1.465-.938-1.466.418-1.465-.862-1.466-4.278-1.465-3.52-1.466-4.187-1.465-2.265-1.465-4.44-1.466.274-1.465-.813-1.466-4.49-1.465-3.562-1.466-2.552-1.465-4.534-1.466-1.888-1.465-.402-1.466-.18-1.465.179-1.465-3.877-1.466 2.847-1.465-.498-1.466 3.533-1.465-8.179-1.466-13.635-1.465-5.317-1.466-.601-1.465-5.343-1.466-6.332-1.465-1.288-1.465-3.846-1.466-1.87-1.465 5.824-1.466 4.17-1.465.237-1.466 3.021-1.465 4.75-1.466 12.699-1.465 18.408-1.466 7.223-1.465 1.29-1.465 8.891-1.466 9.65-1.465 6.104-1.466 2.906-1.465 4.045-1.466 2.066-1.465 7.483-1.466 3.803-1.465 3.507-1.466.146-1.465 1.204-1.465.122-1.466.188-1.465 2.48H151.438z" id="m4d892975df" style="stroke:#fff;stroke-opacity:.2"/></defs><g clip-path="url(#p56c190d888)"><use style="fill:#089fff;fill-opacity:.2;stroke:#fff;stroke-opacity:.2" xlink:href="#m4d892975df" y="648"/></g></g><path clip-path="url(#p56c190d888)" d="m149.973 552.491 54.222.107 5.861.316 7.328.644 5.861.45 2.931.005 2.931-.314 1.466-.332 1.465-.478 1.466-.653 1.465-.853 1.466-1.083 1.465-1.339 1.465-1.616 1.466-1.912 1.465-2.23 1.466-2.563 1.465-2.89 1.466-3.206 1.465-3.515 2.931-7.86 2.931-8.657 5.862-17.725 2.93-7.734 1.466-3.3 1.466-2.826 1.465-2.322 1.466-1.8 1.465-1.258 1.465-.708 1.466-.184 1.465.303 1.466.753 1.465 1.16 1.466 1.503 1.465 1.776 2.931 4.094 4.396 6.8 19.051 29.991 2.931 4.165 2.931 3.648 2.931 3.102 2.931 2.575 2.93 2.12 2.932 1.747 2.93 1.473 2.932 1.282 2.93 1.113 2.931.941 2.931.712 2.931.433 2.931.202 5.862.045 5.862.073 5.862.348 5.861.348 2.931-.017 2.931-.218 2.931-.439 2.931-.652 2.931-.84 4.396-1.5 7.328-2.53 2.93-.79 2.931-.549 2.931-.242 2.931.063 2.931.35 2.931.589 4.396 1.188 10.259 3.003 5.861 1.408 5.862 1.198 4.397.73 4.396.484 4.396.163 4.397-.165 4.396-.473 4.396-.73 14.655-2.767 4.396-.456 2.931-.122 4.397.09 4.396.341 8.793 1.006 7.327.793 4.396.251 2.931-.118 1.466-.197 1.465-.318 1.466-.462 1.465-.629 1.466-.815 1.465-1.004 1.465-1.187 1.466-1.37 2.93-3.224 4.397-5.534 2.931-3.712 2.931-3.353 1.465-1.457 1.466-1.276 1.465-1.071 1.466-.852 1.465-.657 1.466-.498 2.93-.677 2.932-.575 2.93-.844 1.466-.607 1.465-.77 1.466-.96 1.465-1.169 1.466-1.388 1.465-1.623 1.466-1.866 1.465-2.099 2.931-4.836 2.93-5.577 2.932-6.157 4.396-9.938 7.327-16.785 2.931-5.99 2.931-5.168 2.931-4.337 2.931-3.736 4.396-5.042 7.328-8.179 2.93-2.845 1.466-1.168 1.466-.936 1.465-.672 1.465-.38 1.466-.061 1.465.274 1.466.57 1.465.815 2.931 2.142 2.931 2.264 1.466.926 1.465.712 1.465.467 1.466.187 1.465-.117 1.466-.426 1.465-.73 1.466-1.032 1.465-1.325 1.466-1.583 1.465-1.8 2.931-4.089 4.396-6.822 2.931-4.58 2.931-4.063 1.466-1.67 1.465-1.342 1.466-.944 1.465-.48 1.465.042 1.466.576 1.465 1.116 1.466 1.659 1.465 2.192 1.466 2.663 1.465 3.055 2.931 6.938 4.396 10.865 2.931 6.528 1.466 2.893 1.465 2.593 1.466 2.301 1.465 2.027 1.466 1.77 1.465 1.535 2.931 2.54 4.396 3.173 2.931 2.17 2.931 2.5 2.931 2.797 10.258 10.25 1.466 1.178 1.465 1.008 1.466.804 1.465.565 1.466.3 1.465.036 1.465-.222 1.466-.475 1.465-.714 1.466-.922 2.93-2.31 4.397-4.078 4.396-3.995 2.931-2.303 2.931-1.896 2.931-1.496 2.931-1.143 2.931-.891L790.376 452l2.931-.45 1.466-.077 4.396.198v.291l2.931.923 2.93 1.273 4.397 2.245h0" style="fill:none;stroke:#000;stroke-linecap:round;stroke-width:1.5" id="line2d_1"/><g id="line2d_2"><defs><path d="M0 3a3 3 0 1 0 0-6 3 3 0 0 0 0 6z" id="mf8a403fd61" style="stroke:#4c72b0"/></defs><g clip-path="url(#p56c190d888)"><use style="fill-opacity:0;stroke:#4c72b0" x="149.973" xlink:href="#mf8a403fd61" y="552.491"/><use style="fill-opacity:0;stroke:#4c72b0" x="151.438" xlink:href="#mf8a403fd61" y="552.491"/><use style="fill-opacity:0;stroke:#4c72b0" x="152.904" xlink:href="#mf8a403fd61" y="552.491"/><use style="fill-opacity:0;stroke:#4c72b0" x="154.369" xlink:href="#mf8a403fd61" y="552.491"/><use style="fill-opacity:0;stroke:#4c72b0" x="155.835" xlink:href="#mf8a403fd61" y="552.491"/><use style="fill-opacity:0;stroke:#4c72b0" x="157.3" xlink:href="#mf8a403fd61" y="552.491"/><use style="fill-opacity:0;stroke:#4c72b0" x="158.765" xlink:href="#mf8a403fd61" y="552.491"/><use style="fill-opacity:0;stroke:#4c72b0" x="160.231" xlink:href="#mf8a403fd61" y="552.491"/><use style="fill-opacity:0;stroke:#4c72b0" x="161.696" xlink:href="#mf8a403fd61" y="552.491"/><use style="fill-opacity:0;stroke:#4c72b0" x="163.162" xlink:href="#mf8a403fd61" y="552.491"/><use style="fill-opacity:0;stroke:#4c72b0" x="164.627" xlink:href="#mf8a403fd61" y="552.491"/><use style="fill-opacity:0;stroke:#4c72b0" x="166.093" xlink:href="#mf8a403fd61" y="552.491"/><use style="fill-opacity:0;stroke:#4c72b0" x="167.558" xlink:href="#mf8a403fd61" y="552.491"/><use style="fill-opacity:0;stroke:#4c72b0" x="169.024" xlink:href="#mf8a403fd61" y="552.491"/><use style="fill-opacity:0;stroke:#4c72b0" x="170.489" xlink:href="#mf8a403fd61" y="552.491"/><use style="fill-opacity:0;stroke:#4c72b0" x="171.955" xlink:href="#mf8a403fd61" y="552.491"/><use style="fill-opacity:0;stroke:#4c72b0" x="173.42" xlink:href="#mf8a403fd61" y="552.491"/><use style="fill-opacity:0;stroke:#4c72b0" x="174.885" xlink:href="#mf8a403fd61" y="552.491"/><use style="fill-opacity:0;stroke:#4c72b0" x="176.351" xlink:href="#mf8a403fd61" y="552.491"/><use style="fill-opacity:0;stroke:#4c72b0" x="177.816" xlink:href="#mf8a403fd61" y="552.491"/><use style="fill-opacity:0;stroke:#4c72b0" x="179.282" xlink:href="#mf8a403fd61" y="552.491"/><use style="fill-opacity:0;stroke:#4c72b0" x="180.747" xlink:href="#mf8a403fd61" y="552.491"/><use style="fill-opacity:0;stroke:#4c72b0" x="182.213" xlink:href="#mf8a403fd61" y="552.491"/><use style="fill-opacity:0;stroke:#4c72b0" x="183.678" xlink:href="#mf8a403fd61" y="552.491"/><use style="fill-opacity:0;stroke:#4c72b0" x="185.144" xlink:href="#mf8a403fd61" y="552.491"/><use style="fill-opacity:0;stroke:#4c72b0" x="186.609" xlink:href="#mf8a403fd61" y="552.491"/><use style="fill-opacity:0;stroke:#4c72b0" x="188.075" xlink:href="#mf8a403fd61" y="552.491"/><use style="fill-opacity:0;stroke:#4c72b0" x="189.54" xlink:href="#mf8a403fd61" y="552.491"/><use style="fill-opacity:0;stroke:#4c72b0" x="191.005" xlink:href="#mf8a403fd61" y="552.491"/><use style="fill-opacity:0;stroke:#4c72b0" x="192.471" xlink:href="#mf8a403fd61" y="552.491"/><use style="fill-opacity:0;stroke:#4c72b0" x="193.936" xlink:href="#mf8a403fd61" y="552.491"/><use style="fill-opacity:0;stroke:#4c72b0" x="195.402" xlink:href="#mf8a403fd61" y="552.491"/><use style="fill-opacity:0;stroke:#4c72b0" x="196.867" xlink:href="#mf8a403fd61" y="552.491"/><use style="fill-opacity:0;stroke:#4c72b0" x="198.333" xlink:href="#mf8a403fd61" y="552.491"/><use style="fill-opacity:0;stroke:#4c72b0" x="199.798" xlink:href="#mf8a403fd61" y="552.491"/><use style="fill-opacity:0;stroke:#4c72b0" x="201.264" xlink:href="#mf8a403fd61" y="552.491"/><use style="fill-opacity:0;stroke:#4c72b0" x="202.729" xlink:href="#mf8a403fd61" y="552.491"/><use style="fill-opacity:0;stroke:#4c72b0" x="204.195" xlink:href="#mf8a403fd61" y="552.491"/><use style="fill-opacity:0;stroke:#4c72b0" x="205.66" xlink:href="#mf8a403fd61" y="552.491"/><use style="fill-opacity:0;stroke:#4c72b0" x="207.125" xlink:href="#mf8a403fd61" y="552.491"/><use style="fill-opacity:0;stroke:#4c72b0" x="208.591" xlink:href="#mf8a403fd61" y="552.491"/><use style="fill-opacity:0;stroke:#4c72b0" x="210.056" xlink:href="#mf8a403fd61" y="552.491"/><use style="fill-opacity:0;stroke:#4c72b0" x="211.522" xlink:href="#mf8a403fd61" y="552.491"/><use style="fill-opacity:0;stroke:#4c72b0" x="212.987" xlink:href="#mf8a403fd61" y="552.491"/><use style="fill-opacity:0;stroke:#4c72b0" x="214.453" xlink:href="#mf8a403fd61" y="552.491"/><use style="fill-opacity:0;stroke:#4c72b0" x="215.918" xlink:href="#mf8a403fd61" y="552.491"/><use style="fill-opacity:0;stroke:#4c72b0" x="217.384" xlink:href="#mf8a403fd61" y="552.491"/><use style="fill-opacity:0;stroke:#4c72b0" x="218.849" xlink:href="#mf8a403fd61" y="552.491"/><use style="fill-opacity:0;stroke:#4c72b0" x="220.315" xlink:href="#mf8a403fd61" y="552.491"/><use style="fill-opacity:0;stroke:#4c72b0" x="221.78" xlink:href="#mf8a403fd61" y="552.491"/><use style="fill-opacity:0;stroke:#4c72b0" x="223.245" xlink:href="#mf8a403fd61" y="552.491"/><use style="fill-opacity:0;stroke:#4c72b0" x="224.711" xlink:href="#mf8a403fd61" y="552.491"/><use style="fill-opacity:0;stroke:#4c72b0" x="226.176" xlink:href="#mf8a403fd61" y="552.491"/><use style="fill-opacity:0;stroke:#4c72b0" x="227.642" xlink:href="#mf8a403fd61" y="552.491"/><use style="fill-opacity:0;stroke:#4c72b0" x="229.107" xlink:href="#mf8a403fd61" y="552.491"/><use style="fill-opacity:0;stroke:#4c72b0" x="230.573" xlink:href="#mf8a403fd61" y="552.491"/><use style="fill-opacity:0;stroke:#4c72b0" x="232.038" xlink:href="#mf8a403fd61" y="552.491"/><use style="fill-opacity:0;stroke:#4c72b0" x="233.504" xlink:href="#mf8a403fd61" y="552.491"/><use style="fill-opacity:0;stroke:#4c72b0" x="234.969" xlink:href="#mf8a403fd61" y="525.094"/><use style="fill-opacity:0;stroke:#4c72b0" x="236.435" xlink:href="#mf8a403fd61" y="552.491"/><use style="fill-opacity:0;stroke:#4c72b0" x="237.9" xlink:href="#mf8a403fd61" y="552.491"/><use style="fill-opacity:0;stroke:#4c72b0" x="239.365" xlink:href="#mf8a403fd61" y="538.792"/><use style="fill-opacity:0;stroke:#4c72b0" x="240.831" xlink:href="#mf8a403fd61" y="552.491"/><use style="fill-opacity:0;stroke:#4c72b0" x="242.296" xlink:href="#mf8a403fd61" y="511.395"/><use style="fill-opacity:0;stroke:#4c72b0" x="243.762" xlink:href="#mf8a403fd61" y="511.395"/><use style="fill-opacity:0;stroke:#4c72b0" x="245.227" xlink:href="#mf8a403fd61" y="470.3"/><use style="fill-opacity:0;stroke:#4c72b0" x="246.693" xlink:href="#mf8a403fd61" y="538.792"/><use style="fill-opacity:0;stroke:#4c72b0" x="248.158" xlink:href="#mf8a403fd61" y="511.395"/><use style="fill-opacity:0;stroke:#4c72b0" x="249.624" xlink:href="#mf8a403fd61" y="525.094"/><use style="fill-opacity:0;stroke:#4c72b0" x="251.089" xlink:href="#mf8a403fd61" y="483.998"/><use style="fill-opacity:0;stroke:#4c72b0" x="252.555" xlink:href="#mf8a403fd61" y="442.903"/><use style="fill-opacity:0;stroke:#4c72b0" x="254.02" xlink:href="#mf8a403fd61" y="456.601"/><use style="fill-opacity:0;stroke:#4c72b0" x="255.485" xlink:href="#mf8a403fd61" y="525.094"/><use style="fill-opacity:0;stroke:#4c72b0" x="256.951" xlink:href="#mf8a403fd61" y="470.3"/><use style="fill-opacity:0;stroke:#4c72b0" x="258.416" xlink:href="#mf8a403fd61" y="333.315"/><use style="fill-opacity:0;stroke:#4c72b0" x="259.882" xlink:href="#mf8a403fd61" y="401.807"/><use style="fill-opacity:0;stroke:#4c72b0" x="261.347" xlink:href="#mf8a403fd61" y="511.395"/><use style="fill-opacity:0;stroke:#4c72b0" x="262.813" xlink:href="#mf8a403fd61" y="483.998"/><use style="fill-opacity:0;stroke:#4c72b0" x="264.278" xlink:href="#mf8a403fd61" y="511.395"/><use style="fill-opacity:0;stroke:#4c72b0" x="265.744" xlink:href="#mf8a403fd61" y="415.506"/><use style="fill-opacity:0;stroke:#4c72b0" x="267.209" xlink:href="#mf8a403fd61" y="456.601"/><use style="fill-opacity:0;stroke:#4c72b0" x="268.675" xlink:href="#mf8a403fd61" y="525.094"/><use style="fill-opacity:0;stroke:#4c72b0" x="270.14" xlink:href="#mf8a403fd61" y="552.491"/><use style="fill-opacity:0;stroke:#4c72b0" x="271.605" xlink:href="#mf8a403fd61" y="470.3"/><use style="fill-opacity:0;stroke:#4c72b0" x="273.071" xlink:href="#mf8a403fd61" y="497.697"/><use style="fill-opacity:0;stroke:#4c72b0" x="274.536" xlink:href="#mf8a403fd61" y="497.697"/><use style="fill-opacity:0;stroke:#4c72b0" x="276.002" xlink:href="#mf8a403fd61" y="483.998"/><use style="fill-opacity:0;stroke:#4c72b0" x="277.467" xlink:href="#mf8a403fd61" y="483.998"/><use style="fill-opacity:0;stroke:#4c72b0" x="278.933" xlink:href="#mf8a403fd61" y="511.395"/><use style="fill-opacity:0;stroke:#4c72b0" x="280.398" xlink:href="#mf8a403fd61" y="552.491"/><use style="fill-opacity:0;stroke:#4c72b0" x="281.864" xlink:href="#mf8a403fd61" y="483.998"/><use style="fill-opacity:0;stroke:#4c72b0" x="283.329" xlink:href="#mf8a403fd61" y="511.395"/><use style="fill-opacity:0;stroke:#4c72b0" x="284.795" xlink:href="#mf8a403fd61" y="483.998"/><use style="fill-opacity:0;stroke:#4c72b0" x="286.26" xlink:href="#mf8a403fd61" y="483.998"/><use style="fill-opacity:0;stroke:#4c72b0" x="287.725" xlink:href="#mf8a403fd61" y="456.601"/><use style="fill-opacity:0;stroke:#4c72b0" x="289.191" xlink:href="#mf8a403fd61" y="525.094"/><use style="fill-opacity:0;stroke:#4c72b0" x="290.656" xlink:href="#mf8a403fd61" y="552.491"/><use style="fill-opacity:0;stroke:#4c72b0" x="292.122" xlink:href="#mf8a403fd61" y="483.998"/><use style="fill-opacity:0;stroke:#4c72b0" x="293.587" xlink:href="#mf8a403fd61" y="552.491"/><use style="fill-opacity:0;stroke:#4c72b0" x="295.053" xlink:href="#mf8a403fd61" y="525.094"/><use style="fill-opacity:0;stroke:#4c72b0" x="296.518" xlink:href="#mf8a403fd61" y="511.395"/><use style="fill-opacity:0;stroke:#4c72b0" x="297.984" xlink:href="#mf8a403fd61" y="511.395"/><use style="fill-opacity:0;stroke:#4c72b0" x="299.449" xlink:href="#mf8a403fd61" y="511.395"/><use style="fill-opacity:0;stroke:#4c72b0" x="300.915" xlink:href="#mf8a403fd61" y="552.491"/><use style="fill-opacity:0;stroke:#4c72b0" x="302.38" xlink:href="#mf8a403fd61" y="552.491"/><use style="fill-opacity:0;stroke:#4c72b0" x="303.845" xlink:href="#mf8a403fd61" y="552.491"/><use style="fill-opacity:0;stroke:#4c72b0" x="305.311" xlink:href="#mf8a403fd61" y="552.491"/><use style="fill-opacity:0;stroke:#4c72b0" x="306.776" xlink:href="#mf8a403fd61" y="552.491"/><use style="fill-opacity:0;stroke:#4c72b0" x="308.242" xlink:href="#mf8a403fd61" y="538.792"/><use style="fill-opacity:0;stroke:#4c72b0" x="309.707" xlink:href="#mf8a403fd61" y="552.491"/><use style="fill-opacity:0;stroke:#4c72b0" x="311.173" xlink:href="#mf8a403fd61" y="552.491"/><use style="fill-opacity:0;stroke:#4c72b0" x="312.638" xlink:href="#mf8a403fd61" y="497.697"/><use style="fill-opacity:0;stroke:#4c72b0" x="314.104" xlink:href="#mf8a403fd61" y="497.697"/><use style="fill-opacity:0;stroke:#4c72b0" x="315.569" xlink:href="#mf8a403fd61" y="538.792"/><use style="fill-opacity:0;stroke:#4c72b0" x="317.035" xlink:href="#mf8a403fd61" y="538.792"/><use style="fill-opacity:0;stroke:#4c72b0" x="318.5" xlink:href="#mf8a403fd61" y="538.792"/><use style="fill-opacity:0;stroke:#4c72b0" x="319.965" xlink:href="#mf8a403fd61" y="552.491"/><use style="fill-opacity:0;stroke:#4c72b0" x="321.431" xlink:href="#mf8a403fd61" y="552.491"/><use style="fill-opacity:0;stroke:#4c72b0" x="322.896" xlink:href="#mf8a403fd61" y="552.491"/><use style="fill-opacity:0;stroke:#4c72b0" x="324.362" xlink:href="#mf8a403fd61" y="538.792"/><use style="fill-opacity:0;stroke:#4c72b0" x="325.827" xlink:href="#mf8a403fd61" y="552.491"/><use style="fill-opacity:0;stroke:#4c72b0" x="327.293" xlink:href="#mf8a403fd61" y="552.491"/><use style="fill-opacity:0;stroke:#4c72b0" x="328.758" xlink:href="#mf8a403fd61" y="552.491"/><use style="fill-opacity:0;stroke:#4c72b0" x="330.224" xlink:href="#mf8a403fd61" y="552.491"/><use style="fill-opacity:0;stroke:#4c72b0" x="331.689" xlink:href="#mf8a403fd61" y="552.491"/><use style="fill-opacity:0;stroke:#4c72b0" x="333.155" xlink:href="#mf8a403fd61" y="552.491"/><use style="fill-opacity:0;stroke:#4c72b0" x="334.62" xlink:href="#mf8a403fd61" y="538.792"/><use style="fill-opacity:0;stroke:#4c72b0" x="336.085" xlink:href="#mf8a403fd61" y="552.491"/><use style="fill-opacity:0;stroke:#4c72b0" x="337.551" xlink:href="#mf8a403fd61" y="552.491"/><use style="fill-opacity:0;stroke:#4c72b0" x="339.016" xlink:href="#mf8a403fd61" y="525.094"/><use style="fill-opacity:0;stroke:#4c72b0" x="340.482" xlink:href="#mf8a403fd61" y="552.491"/><use style="fill-opacity:0;stroke:#4c72b0" x="341.947" xlink:href="#mf8a403fd61" y="552.491"/><use style="fill-opacity:0;stroke:#4c72b0" x="343.413" xlink:href="#mf8a403fd61" y="511.395"/><use style="fill-opacity:0;stroke:#4c72b0" x="344.878" xlink:href="#mf8a403fd61" y="538.792"/><use style="fill-opacity:0;stroke:#4c72b0" x="346.344" xlink:href="#mf8a403fd61" y="552.491"/><use style="fill-opacity:0;stroke:#4c72b0" x="347.809" xlink:href="#mf8a403fd61" y="552.491"/><use style="fill-opacity:0;stroke:#4c72b0" x="349.275" xlink:href="#mf8a403fd61" y="552.491"/><use style="fill-opacity:0;stroke:#4c72b0" x="350.74" xlink:href="#mf8a403fd61" y="552.491"/><use style="fill-opacity:0;stroke:#4c72b0" x="352.205" xlink:href="#mf8a403fd61" y="552.491"/><use style="fill-opacity:0;stroke:#4c72b0" x="353.671" xlink:href="#mf8a403fd61" y="552.491"/><use style="fill-opacity:0;stroke:#4c72b0" x="355.136" xlink:href="#mf8a403fd61" y="538.792"/><use style="fill-opacity:0;stroke:#4c72b0" x="356.602" xlink:href="#mf8a403fd61" y="538.792"/><use style="fill-opacity:0;stroke:#4c72b0" x="358.067" xlink:href="#mf8a403fd61" y="552.491"/><use style="fill-opacity:0;stroke:#4c72b0" x="359.533" xlink:href="#mf8a403fd61" y="538.792"/><use style="fill-opacity:0;stroke:#4c72b0" x="360.998" xlink:href="#mf8a403fd61" y="552.491"/><use style="fill-opacity:0;stroke:#4c72b0" x="362.464" xlink:href="#mf8a403fd61" y="552.491"/><use style="fill-opacity:0;stroke:#4c72b0" x="363.929" xlink:href="#mf8a403fd61" y="552.491"/><use style="fill-opacity:0;stroke:#4c72b0" x="365.395" xlink:href="#mf8a403fd61" y="538.792"/><use style="fill-opacity:0;stroke:#4c72b0" x="366.86" xlink:href="#mf8a403fd61" y="552.491"/><use style="fill-opacity:0;stroke:#4c72b0" x="368.325" xlink:href="#mf8a403fd61" y="552.491"/><use style="fill-opacity:0;stroke:#4c72b0" x="369.791" xlink:href="#mf8a403fd61" y="552.491"/><use style="fill-opacity:0;stroke:#4c72b0" x="371.256" xlink:href="#mf8a403fd61" y="552.491"/><use style="fill-opacity:0;stroke:#4c72b0" x="372.722" xlink:href="#mf8a403fd61" y="552.491"/><use style="fill-opacity:0;stroke:#4c72b0" x="374.187" xlink:href="#mf8a403fd61" y="525.094"/><use style="fill-opacity:0;stroke:#4c72b0" x="375.653" xlink:href="#mf8a403fd61" y="552.491"/><use style="fill-opacity:0;stroke:#4c72b0" x="377.118" xlink:href="#mf8a403fd61" y="538.792"/><use style="fill-opacity:0;stroke:#4c72b0" x="378.584" xlink:href="#mf8a403fd61" y="538.792"/><use style="fill-opacity:0;stroke:#4c72b0" x="380.049" xlink:href="#mf8a403fd61" y="538.792"/><use style="fill-opacity:0;stroke:#4c72b0" x="381.515" xlink:href="#mf8a403fd61" y="552.491"/><use style="fill-opacity:0;stroke:#4c72b0" x="382.98" xlink:href="#mf8a403fd61" y="552.491"/><use style="fill-opacity:0;stroke:#4c72b0" x="384.445" xlink:href="#mf8a403fd61" y="497.697"/><use style="fill-opacity:0;stroke:#4c72b0" x="385.911" xlink:href="#mf8a403fd61" y="552.491"/><use style="fill-opacity:0;stroke:#4c72b0" x="387.376" xlink:href="#mf8a403fd61" y="538.792"/><use style="fill-opacity:0;stroke:#4c72b0" x="388.842" xlink:href="#mf8a403fd61" y="552.491"/><use style="fill-opacity:0;stroke:#4c72b0" x="390.307" xlink:href="#mf8a403fd61" y="552.491"/><use style="fill-opacity:0;stroke:#4c72b0" x="391.773" xlink:href="#mf8a403fd61" y="552.491"/><use style="fill-opacity:0;stroke:#4c72b0" x="393.238" xlink:href="#mf8a403fd61" y="552.491"/><use style="fill-opacity:0;stroke:#4c72b0" x="394.704" xlink:href="#mf8a403fd61" y="470.3"/><use style="fill-opacity:0;stroke:#4c72b0" x="396.169" xlink:href="#mf8a403fd61" y="538.792"/><use style="fill-opacity:0;stroke:#4c72b0" x="397.635" xlink:href="#mf8a403fd61" y="552.491"/><use style="fill-opacity:0;stroke:#4c72b0" x="399.1" xlink:href="#mf8a403fd61" y="538.792"/><use style="fill-opacity:0;stroke:#4c72b0" x="400.565" xlink:href="#mf8a403fd61" y="525.094"/><use style="fill-opacity:0;stroke:#4c72b0" x="402.031" xlink:href="#mf8a403fd61" y="552.491"/><use style="fill-opacity:0;stroke:#4c72b0" x="403.496" xlink:href="#mf8a403fd61" y="552.491"/><use style="fill-opacity:0;stroke:#4c72b0" x="404.962" xlink:href="#mf8a403fd61" y="525.094"/><use style="fill-opacity:0;stroke:#4c72b0" x="406.427" xlink:href="#mf8a403fd61" y="538.792"/><use style="fill-opacity:0;stroke:#4c72b0" x="407.893" xlink:href="#mf8a403fd61" y="552.491"/><use style="fill-opacity:0;stroke:#4c72b0" x="409.358" xlink:href="#mf8a403fd61" y="552.491"/><use style="fill-opacity:0;stroke:#4c72b0" x="410.824" xlink:href="#mf8a403fd61" y="552.491"/><use style="fill-opacity:0;stroke:#4c72b0" x="412.289" xlink:href="#mf8a403fd61" y="552.491"/><use style="fill-opacity:0;stroke:#4c72b0" x="413.755" xlink:href="#mf8a403fd61" y="552.491"/><use style="fill-opacity:0;stroke:#4c72b0" x="415.22" xlink:href="#mf8a403fd61" y="552.491"/><use style="fill-opacity:0;stroke:#4c72b0" x="416.685" xlink:href="#mf8a403fd61" y="511.395"/><use style="fill-opacity:0;stroke:#4c72b0" x="418.151" xlink:href="#mf8a403fd61" y="538.792"/><use style="fill-opacity:0;stroke:#4c72b0" x="419.616" xlink:href="#mf8a403fd61" y="538.792"/><use style="fill-opacity:0;stroke:#4c72b0" x="421.082" xlink:href="#mf8a403fd61" y="552.491"/><use style="fill-opacity:0;stroke:#4c72b0" x="422.547" xlink:href="#mf8a403fd61" y="552.491"/><use style="fill-opacity:0;stroke:#4c72b0" x="424.013" xlink:href="#mf8a403fd61" y="552.491"/><use style="fill-opacity:0;stroke:#4c72b0" x="425.478" xlink:href="#mf8a403fd61" y="538.792"/><use style="fill-opacity:0;stroke:#4c72b0" x="426.944" xlink:href="#mf8a403fd61" y="552.491"/><use style="fill-opacity:0;stroke:#4c72b0" x="428.409" xlink:href="#mf8a403fd61" y="552.491"/><use style="fill-opacity:0;stroke:#4c72b0" x="429.875" xlink:href="#mf8a403fd61" y="538.792"/><use style="fill-opacity:0;stroke:#4c72b0" x="431.34" xlink:href="#mf8a403fd61" y="552.491"/><use style="fill-opacity:0;stroke:#4c72b0" x="432.805" xlink:href="#mf8a403fd61" y="552.491"/><use style="fill-opacity:0;stroke:#4c72b0" x="434.271" xlink:href="#mf8a403fd61" y="552.491"/><use style="fill-opacity:0;stroke:#4c72b0" x="435.736" xlink:href="#mf8a403fd61" y="538.792"/><use style="fill-opacity:0;stroke:#4c72b0" x="437.202" xlink:href="#mf8a403fd61" y="552.491"/><use style="fill-opacity:0;stroke:#4c72b0" x="438.667" xlink:href="#mf8a403fd61" y="538.792"/><use style="fill-opacity:0;stroke:#4c72b0" x="440.133" xlink:href="#mf8a403fd61" y="552.491"/><use style="fill-opacity:0;stroke:#4c72b0" x="441.598" xlink:href="#mf8a403fd61" y="552.491"/><use style="fill-opacity:0;stroke:#4c72b0" x="443.064" xlink:href="#mf8a403fd61" y="552.491"/><use style="fill-opacity:0;stroke:#4c72b0" x="444.529" xlink:href="#mf8a403fd61" y="552.491"/><use style="fill-opacity:0;stroke:#4c72b0" x="445.995" xlink:href="#mf8a403fd61" y="552.491"/><use style="fill-opacity:0;stroke:#4c72b0" x="447.46" xlink:href="#mf8a403fd61" y="552.491"/><use style="fill-opacity:0;stroke:#4c72b0" x="448.925" xlink:href="#mf8a403fd61" y="538.792"/><use style="fill-opacity:0;stroke:#4c72b0" x="450.391" xlink:href="#mf8a403fd61" y="552.491"/><use style="fill-opacity:0;stroke:#4c72b0" x="451.856" xlink:href="#mf8a403fd61" y="538.792"/><use style="fill-opacity:0;stroke:#4c72b0" x="453.322" xlink:href="#mf8a403fd61" y="552.491"/><use style="fill-opacity:0;stroke:#4c72b0" x="454.787" xlink:href="#mf8a403fd61" y="552.491"/><use style="fill-opacity:0;stroke:#4c72b0" x="456.253" xlink:href="#mf8a403fd61" y="538.792"/><use style="fill-opacity:0;stroke:#4c72b0" x="457.718" xlink:href="#mf8a403fd61" y="552.491"/><use style="fill-opacity:0;stroke:#4c72b0" x="459.184" xlink:href="#mf8a403fd61" y="552.491"/><use style="fill-opacity:0;stroke:#4c72b0" x="460.649" xlink:href="#mf8a403fd61" y="538.792"/><use style="fill-opacity:0;stroke:#4c72b0" x="462.115" xlink:href="#mf8a403fd61" y="538.792"/><use style="fill-opacity:0;stroke:#4c72b0" x="463.58" xlink:href="#mf8a403fd61" y="552.491"/><use style="fill-opacity:0;stroke:#4c72b0" x="465.045" xlink:href="#mf8a403fd61" y="552.491"/><use style="fill-opacity:0;stroke:#4c72b0" x="466.511" xlink:href="#mf8a403fd61" y="552.491"/><use style="fill-opacity:0;stroke:#4c72b0" x="467.976" xlink:href="#mf8a403fd61" y="525.094"/><use style="fill-opacity:0;stroke:#4c72b0" x="469.442" xlink:href="#mf8a403fd61" y="538.792"/><use style="fill-opacity:0;stroke:#4c72b0" x="470.907" xlink:href="#mf8a403fd61" y="538.792"/><use style="fill-opacity:0;stroke:#4c72b0" x="472.373" xlink:href="#mf8a403fd61" y="552.491"/><use style="fill-opacity:0;stroke:#4c72b0" x="473.838" xlink:href="#mf8a403fd61" y="552.491"/><use style="fill-opacity:0;stroke:#4c72b0" x="475.304" xlink:href="#mf8a403fd61" y="552.491"/><use style="fill-opacity:0;stroke:#4c72b0" x="476.769" xlink:href="#mf8a403fd61" y="538.792"/><use style="fill-opacity:0;stroke:#4c72b0" x="478.235" xlink:href="#mf8a403fd61" y="552.491"/><use style="fill-opacity:0;stroke:#4c72b0" x="479.7" xlink:href="#mf8a403fd61" y="497.697"/><use style="fill-opacity:0;stroke:#4c72b0" x="481.165" xlink:href="#mf8a403fd61" y="552.491"/><use style="fill-opacity:0;stroke:#4c72b0" x="482.631" xlink:href="#mf8a403fd61" y="552.491"/><use style="fill-opacity:0;stroke:#4c72b0" x="484.096" xlink:href="#mf8a403fd61" y="552.491"/><use style="fill-opacity:0;stroke:#4c72b0" x="485.562" xlink:href="#mf8a403fd61" y="552.491"/><use style="fill-opacity:0;stroke:#4c72b0" x="487.027" xlink:href="#mf8a403fd61" y="552.491"/><use style="fill-opacity:0;stroke:#4c72b0" x="488.493" xlink:href="#mf8a403fd61" y="511.395"/><use style="fill-opacity:0;stroke:#4c72b0" x="489.958" xlink:href="#mf8a403fd61" y="552.491"/><use style="fill-opacity:0;stroke:#4c72b0" x="491.424" xlink:href="#mf8a403fd61" y="552.491"/><use style="fill-opacity:0;stroke:#4c72b0" x="492.889" xlink:href="#mf8a403fd61" y="552.491"/><use style="fill-opacity:0;stroke:#4c72b0" x="494.355" xlink:href="#mf8a403fd61" y="552.491"/><use style="fill-opacity:0;stroke:#4c72b0" x="495.82" xlink:href="#mf8a403fd61" y="552.491"/><use style="fill-opacity:0;stroke:#4c72b0" x="497.285" xlink:href="#mf8a403fd61" y="538.792"/><use style="fill-opacity:0;stroke:#4c72b0" x="498.751" xlink:href="#mf8a403fd61" y="552.491"/><use style="fill-opacity:0;stroke:#4c72b0" x="500.216" xlink:href="#mf8a403fd61" y="525.094"/><use style="fill-opacity:0;stroke:#4c72b0" x="501.682" xlink:href="#mf8a403fd61" y="538.792"/><use style="fill-opacity:0;stroke:#4c72b0" x="503.147" xlink:href="#mf8a403fd61" y="552.491"/><use style="fill-opacity:0;stroke:#4c72b0" x="504.613" xlink:href="#mf8a403fd61" y="552.491"/><use style="fill-opacity:0;stroke:#4c72b0" x="506.078" xlink:href="#mf8a403fd61" y="552.491"/><use style="fill-opacity:0;stroke:#4c72b0" x="507.544" xlink:href="#mf8a403fd61" y="511.395"/><use style="fill-opacity:0;stroke:#4c72b0" x="509.009" xlink:href="#mf8a403fd61" y="552.491"/><use style="fill-opacity:0;stroke:#4c72b0" x="510.475" xlink:href="#mf8a403fd61" y="538.792"/><use style="fill-opacity:0;stroke:#4c72b0" x="511.94" xlink:href="#mf8a403fd61" y="552.491"/><use style="fill-opacity:0;stroke:#4c72b0" x="513.405" xlink:href="#mf8a403fd61" y="552.491"/><use style="fill-opacity:0;stroke:#4c72b0" x="514.871" xlink:href="#mf8a403fd61" y="552.491"/><use style="fill-opacity:0;stroke:#4c72b0" x="516.336" xlink:href="#mf8a403fd61" y="552.491"/><use style="fill-opacity:0;stroke:#4c72b0" x="517.802" xlink:href="#mf8a403fd61" y="552.491"/><use style="fill-opacity:0;stroke:#4c72b0" x="519.267" xlink:href="#mf8a403fd61" y="552.491"/><use style="fill-opacity:0;stroke:#4c72b0" x="520.733" xlink:href="#mf8a403fd61" y="552.491"/><use style="fill-opacity:0;stroke:#4c72b0" x="522.198" xlink:href="#mf8a403fd61" y="552.491"/><use style="fill-opacity:0;stroke:#4c72b0" x="523.664" xlink:href="#mf8a403fd61" y="552.491"/><use style="fill-opacity:0;stroke:#4c72b0" x="525.129" xlink:href="#mf8a403fd61" y="552.491"/><use style="fill-opacity:0;stroke:#4c72b0" x="526.595" xlink:href="#mf8a403fd61" y="552.491"/><use style="fill-opacity:0;stroke:#4c72b0" x="528.06" xlink:href="#mf8a403fd61" y="525.094"/><use style="fill-opacity:0;stroke:#4c72b0" x="529.525" xlink:href="#mf8a403fd61" y="538.792"/><use style="fill-opacity:0;stroke:#4c72b0" x="530.991" xlink:href="#mf8a403fd61" y="483.998"/><use style="fill-opacity:0;stroke:#4c72b0" x="532.456" xlink:href="#mf8a403fd61" y="429.204"/><use style="fill-opacity:0;stroke:#4c72b0" x="533.922" xlink:href="#mf8a403fd61" y="525.094"/><use style="fill-opacity:0;stroke:#4c72b0" x="535.387" xlink:href="#mf8a403fd61" y="552.491"/><use style="fill-opacity:0;stroke:#4c72b0" x="536.853" xlink:href="#mf8a403fd61" y="552.491"/><use style="fill-opacity:0;stroke:#4c72b0" x="538.318" xlink:href="#mf8a403fd61" y="525.094"/><use style="fill-opacity:0;stroke:#4c72b0" x="539.784" xlink:href="#mf8a403fd61" y="470.3"/><use style="fill-opacity:0;stroke:#4c72b0" x="541.249" xlink:href="#mf8a403fd61" y="538.792"/><use style="fill-opacity:0;stroke:#4c72b0" x="542.715" xlink:href="#mf8a403fd61" y="483.998"/><use style="fill-opacity:0;stroke:#4c72b0" x="544.18" xlink:href="#mf8a403fd61" y="483.998"/><use style="fill-opacity:0;stroke:#4c72b0" x="545.645" xlink:href="#mf8a403fd61" y="511.395"/><use style="fill-opacity:0;stroke:#4c72b0" x="547.111" xlink:href="#mf8a403fd61" y="511.395"/><use style="fill-opacity:0;stroke:#4c72b0" x="548.576" xlink:href="#mf8a403fd61" y="525.094"/><use style="fill-opacity:0;stroke:#4c72b0" x="550.042" xlink:href="#mf8a403fd61" y="552.491"/><use style="fill-opacity:0;stroke:#4c72b0" x="551.507" xlink:href="#mf8a403fd61" y="497.697"/><use style="fill-opacity:0;stroke:#4c72b0" x="552.973" xlink:href="#mf8a403fd61" y="552.491"/><use style="fill-opacity:0;stroke:#4c72b0" x="554.438" xlink:href="#mf8a403fd61" y="552.491"/><use style="fill-opacity:0;stroke:#4c72b0" x="555.904" xlink:href="#mf8a403fd61" y="552.491"/><use style="fill-opacity:0;stroke:#4c72b0" x="557.369" xlink:href="#mf8a403fd61" y="552.491"/><use style="fill-opacity:0;stroke:#4c72b0" x="558.835" xlink:href="#mf8a403fd61" y="470.3"/><use style="fill-opacity:0;stroke:#4c72b0" x="560.3" xlink:href="#mf8a403fd61" y="497.697"/><use style="fill-opacity:0;stroke:#4c72b0" x="561.765" xlink:href="#mf8a403fd61" y="483.998"/><use style="fill-opacity:0;stroke:#4c72b0" x="563.231" xlink:href="#mf8a403fd61" y="483.998"/><use style="fill-opacity:0;stroke:#4c72b0" x="564.696" xlink:href="#mf8a403fd61" y="483.998"/><use style="fill-opacity:0;stroke:#4c72b0" x="566.162" xlink:href="#mf8a403fd61" y="552.491"/><use style="fill-opacity:0;stroke:#4c72b0" x="567.627" xlink:href="#mf8a403fd61" y="552.491"/><use style="fill-opacity:0;stroke:#4c72b0" x="569.093" xlink:href="#mf8a403fd61" y="388.109"/><use style="fill-opacity:0;stroke:#4c72b0" x="570.558" xlink:href="#mf8a403fd61" y="538.792"/><use style="fill-opacity:0;stroke:#4c72b0" x="572.024" xlink:href="#mf8a403fd61" y="456.601"/><use style="fill-opacity:0;stroke:#4c72b0" x="573.489" xlink:href="#mf8a403fd61" y="511.395"/><use style="fill-opacity:0;stroke:#4c72b0" x="574.955" xlink:href="#mf8a403fd61" y="483.998"/><use style="fill-opacity:0;stroke:#4c72b0" x="576.42" xlink:href="#mf8a403fd61" y="552.491"/><use style="fill-opacity:0;stroke:#4c72b0" x="577.885" xlink:href="#mf8a403fd61" y="552.491"/><use style="fill-opacity:0;stroke:#4c72b0" x="579.351" xlink:href="#mf8a403fd61" y="292.219"/><use style="fill-opacity:0;stroke:#4c72b0" x="580.816" xlink:href="#mf8a403fd61" y="497.697"/><use style="fill-opacity:0;stroke:#4c72b0" x="582.282" xlink:href="#mf8a403fd61" y="552.491"/><use style="fill-opacity:0;stroke:#4c72b0" x="583.747" xlink:href="#mf8a403fd61" y="319.616"/><use style="fill-opacity:0;stroke:#4c72b0" x="585.213" xlink:href="#mf8a403fd61" y="456.601"/><use style="fill-opacity:0;stroke:#4c72b0" x="586.678" xlink:href="#mf8a403fd61" y="552.491"/><use style="fill-opacity:0;stroke:#4c72b0" x="588.144" xlink:href="#mf8a403fd61" y="552.491"/><use style="fill-opacity:0;stroke:#4c72b0" x="589.609" xlink:href="#mf8a403fd61" y="333.315"/><use style="fill-opacity:0;stroke:#4c72b0" x="591.075" xlink:href="#mf8a403fd61" y="388.109"/><use style="fill-opacity:0;stroke:#4c72b0" x="592.54" xlink:href="#mf8a403fd61" y="388.109"/><use style="fill-opacity:0;stroke:#4c72b0" x="594.005" xlink:href="#mf8a403fd61" y="442.903"/><use style="fill-opacity:0;stroke:#4c72b0" x="595.471" xlink:href="#mf8a403fd61" y="360.712"/><use style="fill-opacity:0;stroke:#4c72b0" x="596.936" xlink:href="#mf8a403fd61" y="483.998"/><use style="fill-opacity:0;stroke:#4c72b0" x="598.402" xlink:href="#mf8a403fd61" y="552.491"/><use style="fill-opacity:0;stroke:#4c72b0" x="599.867" xlink:href="#mf8a403fd61" y="360.712"/><use style="fill-opacity:0;stroke:#4c72b0" x="601.333" xlink:href="#mf8a403fd61" y="442.903"/><use style="fill-opacity:0;stroke:#4c72b0" x="602.798" xlink:href="#mf8a403fd61" y="470.3"/><use style="fill-opacity:0;stroke:#4c72b0" x="604.264" xlink:href="#mf8a403fd61" y="552.491"/><use style="fill-opacity:0;stroke:#4c72b0" x="605.729" xlink:href="#mf8a403fd61" y="552.491"/><use style="fill-opacity:0;stroke:#4c72b0" x="607.195" xlink:href="#mf8a403fd61" y="278.521"/><use style="fill-opacity:0;stroke:#4c72b0" x="608.66" xlink:href="#mf8a403fd61" y="552.491"/><use style="fill-opacity:0;stroke:#4c72b0" x="610.125" xlink:href="#mf8a403fd61" y="360.712"/><use style="fill-opacity:0;stroke:#4c72b0" x="611.591" xlink:href="#mf8a403fd61" y="456.601"/><use style="fill-opacity:0;stroke:#4c72b0" x="613.056" xlink:href="#mf8a403fd61" y="401.807"/><use style="fill-opacity:0;stroke:#4c72b0" x="614.522" xlink:href="#mf8a403fd61" y="333.315"/><use style="fill-opacity:0;stroke:#4c72b0" x="615.987" xlink:href="#mf8a403fd61" y="223.727"/><use style="fill-opacity:0;stroke:#4c72b0" x="617.453" xlink:href="#mf8a403fd61" y="401.807"/><use style="fill-opacity:0;stroke:#4c72b0" x="618.918" xlink:href="#mf8a403fd61" y="552.491"/><use style="fill-opacity:0;stroke:#4c72b0" x="620.384" xlink:href="#mf8a403fd61" y="401.807"/><use style="fill-opacity:0;stroke:#4c72b0" x="621.849" xlink:href="#mf8a403fd61" y="388.109"/><use style="fill-opacity:0;stroke:#4c72b0" x="623.315" xlink:href="#mf8a403fd61" y="483.998"/><use style="fill-opacity:0;stroke:#4c72b0" x="624.78" xlink:href="#mf8a403fd61" y="305.918"/><use style="fill-opacity:0;stroke:#4c72b0" x="626.245" xlink:href="#mf8a403fd61" y="429.204"/><use style="fill-opacity:0;stroke:#4c72b0" x="627.711" xlink:href="#mf8a403fd61" y="552.491"/><use style="fill-opacity:0;stroke:#4c72b0" x="629.176" xlink:href="#mf8a403fd61" y="552.491"/><use style="fill-opacity:0;stroke:#4c72b0" x="630.642" xlink:href="#mf8a403fd61" y="360.712"/><use style="fill-opacity:0;stroke:#4c72b0" x="632.107" xlink:href="#mf8a403fd61" y="429.204"/><use style="fill-opacity:0;stroke:#4c72b0" x="633.573" xlink:href="#mf8a403fd61" y="456.601"/><use style="fill-opacity:0;stroke:#4c72b0" x="635.038" xlink:href="#mf8a403fd61" y="552.491"/><use style="fill-opacity:0;stroke:#4c72b0" x="636.504" xlink:href="#mf8a403fd61" y="319.616"/><use style="fill-opacity:0;stroke:#4c72b0" x="637.969" xlink:href="#mf8a403fd61" y="552.491"/><use style="fill-opacity:0;stroke:#4c72b0" x="639.435" xlink:href="#mf8a403fd61" y="552.491"/><use style="fill-opacity:0;stroke:#4c72b0" x="640.9" xlink:href="#mf8a403fd61" y="182.631"/><use style="fill-opacity:0;stroke:#4c72b0" x="642.365" xlink:href="#mf8a403fd61" y="456.601"/><use style="fill-opacity:0;stroke:#4c72b0" x="643.831" xlink:href="#mf8a403fd61" y="182.631"/><use style="fill-opacity:0;stroke:#4c72b0" x="645.296" xlink:href="#mf8a403fd61" y="483.998"/><use style="fill-opacity:0;stroke:#4c72b0" x="646.762" xlink:href="#mf8a403fd61" y="552.491"/><use style="fill-opacity:0;stroke:#4c72b0" x="648.227" xlink:href="#mf8a403fd61" y="552.491"/><use style="fill-opacity:0;stroke:#4c72b0" x="649.693" xlink:href="#mf8a403fd61" y="552.491"/><use style="fill-opacity:0;stroke:#4c72b0" x="651.158" xlink:href="#mf8a403fd61" y="141.536"/><use style="fill-opacity:0;stroke:#4c72b0" x="652.624" xlink:href="#mf8a403fd61" y="483.998"/><use style="fill-opacity:0;stroke:#4c72b0" x="654.089" xlink:href="#mf8a403fd61" y="292.219"/><use style="fill-opacity:0;stroke:#4c72b0" x="655.555" xlink:href="#mf8a403fd61" y="401.807"/><use style="fill-opacity:0;stroke:#4c72b0" x="657.02" xlink:href="#mf8a403fd61" y="552.491"/><use style="fill-opacity:0;stroke:#4c72b0" x="658.485" xlink:href="#mf8a403fd61" y="552.491"/><use style="fill-opacity:0;stroke:#4c72b0" x="659.951" xlink:href="#mf8a403fd61" y="552.491"/><use style="fill-opacity:0;stroke:#4c72b0" x="661.416" xlink:href="#mf8a403fd61" y="100.44"/><use style="fill-opacity:0;stroke:#4c72b0" x="662.882" xlink:href="#mf8a403fd61" y="305.918"/><use style="fill-opacity:0;stroke:#4c72b0" x="664.347" xlink:href="#mf8a403fd61" y="360.712"/><use style="fill-opacity:0;stroke:#4c72b0" x="665.813" xlink:href="#mf8a403fd61" y="347.013"/><use style="fill-opacity:0;stroke:#4c72b0" x="667.278" xlink:href="#mf8a403fd61" y="388.109"/><use style="fill-opacity:0;stroke:#4c72b0" x="668.744" xlink:href="#mf8a403fd61" y="415.506"/><use style="fill-opacity:0;stroke:#4c72b0" x="670.209" xlink:href="#mf8a403fd61" y="552.491"/><use style="fill-opacity:0;stroke:#4c72b0" x="671.675" xlink:href="#mf8a403fd61" y="251.124"/><use style="fill-opacity:0;stroke:#4c72b0" x="673.14" xlink:href="#mf8a403fd61" y="401.807"/><use style="fill-opacity:0;stroke:#4c72b0" x="674.605" xlink:href="#mf8a403fd61" y="347.013"/><use style="fill-opacity:0;stroke:#4c72b0" x="676.071" xlink:href="#mf8a403fd61" y="415.506"/><use style="fill-opacity:0;stroke:#4c72b0" x="677.536" xlink:href="#mf8a403fd61" y="415.506"/><use style="fill-opacity:0;stroke:#4c72b0" x="679.002" xlink:href="#mf8a403fd61" y="552.491"/><use style="fill-opacity:0;stroke:#4c72b0" x="680.467" xlink:href="#mf8a403fd61" y="552.491"/><use style="fill-opacity:0;stroke:#4c72b0" x="681.933" xlink:href="#mf8a403fd61" y="552.491"/><use style="fill-opacity:0;stroke:#4c72b0" x="683.398" xlink:href="#mf8a403fd61" y="264.822"/><use style="fill-opacity:0;stroke:#4c72b0" x="684.864" xlink:href="#mf8a403fd61" y="415.506"/><use style="fill-opacity:0;stroke:#4c72b0" x="686.329" xlink:href="#mf8a403fd61" y="497.697"/><use style="fill-opacity:0;stroke:#4c72b0" x="687.795" xlink:href="#mf8a403fd61" y="511.395"/><use style="fill-opacity:0;stroke:#4c72b0" x="689.26" xlink:href="#mf8a403fd61" y="552.491"/><use style="fill-opacity:0;stroke:#4c72b0" x="690.725" xlink:href="#mf8a403fd61" y="552.491"/><use style="fill-opacity:0;stroke:#4c72b0" x="692.191" xlink:href="#mf8a403fd61" y="127.837"/><use style="fill-opacity:0;stroke:#4c72b0" x="693.656" xlink:href="#mf8a403fd61" y="497.697"/><use style="fill-opacity:0;stroke:#4c72b0" x="695.122" xlink:href="#mf8a403fd61" y="470.3"/><use style="fill-opacity:0;stroke:#4c72b0" x="696.587" xlink:href="#mf8a403fd61" y="470.3"/><use style="fill-opacity:0;stroke:#4c72b0" x="698.053" xlink:href="#mf8a403fd61" y="333.315"/><use style="fill-opacity:0;stroke:#4c72b0" x="699.518" xlink:href="#mf8a403fd61" y="483.998"/><use style="fill-opacity:0;stroke:#4c72b0" x="700.984" xlink:href="#mf8a403fd61" y="552.491"/><use style="fill-opacity:0;stroke:#4c72b0" x="702.449" xlink:href="#mf8a403fd61" y="552.491"/><use style="fill-opacity:0;stroke:#4c72b0" x="703.915" xlink:href="#mf8a403fd61" y="552.491"/><use style="fill-opacity:0;stroke:#4c72b0" x="705.38" xlink:href="#mf8a403fd61" y="196.33"/><use style="fill-opacity:0;stroke:#4c72b0" x="706.845" xlink:href="#mf8a403fd61" y="442.903"/><use style="fill-opacity:0;stroke:#4c72b0" x="708.311" xlink:href="#mf8a403fd61" y="456.601"/><use style="fill-opacity:0;stroke:#4c72b0" x="709.776" xlink:href="#mf8a403fd61" y="552.491"/><use style="fill-opacity:0;stroke:#4c72b0" x="711.242" xlink:href="#mf8a403fd61" y="552.491"/><use style="fill-opacity:0;stroke:#4c72b0" x="712.707" xlink:href="#mf8a403fd61" y="333.315"/><use style="fill-opacity:0;stroke:#4c72b0" x="714.173" xlink:href="#mf8a403fd61" y="456.601"/><use style="fill-opacity:0;stroke:#4c72b0" x="715.638" xlink:href="#mf8a403fd61" y="483.998"/><use style="fill-opacity:0;stroke:#4c72b0" x="717.104" xlink:href="#mf8a403fd61" y="470.3"/><use style="fill-opacity:0;stroke:#4c72b0" x="718.569" xlink:href="#mf8a403fd61" y="483.998"/><use style="fill-opacity:0;stroke:#4c72b0" x="720.035" xlink:href="#mf8a403fd61" y="456.601"/><use style="fill-opacity:0;stroke:#4c72b0" x="721.5" xlink:href="#mf8a403fd61" y="552.491"/><use style="fill-opacity:0;stroke:#4c72b0" x="722.965" xlink:href="#mf8a403fd61" y="552.491"/><use style="fill-opacity:0;stroke:#4c72b0" x="724.431" xlink:href="#mf8a403fd61" y="360.712"/><use style="fill-opacity:0;stroke:#4c72b0" x="725.896" xlink:href="#mf8a403fd61" y="483.998"/><use style="fill-opacity:0;stroke:#4c72b0" x="727.362" xlink:href="#mf8a403fd61" y="511.395"/><use style="fill-opacity:0;stroke:#4c72b0" x="728.827" xlink:href="#mf8a403fd61" y="483.998"/><use style="fill-opacity:0;stroke:#4c72b0" x="730.293" xlink:href="#mf8a403fd61" y="552.491"/><use style="fill-opacity:0;stroke:#4c72b0" x="731.758" xlink:href="#mf8a403fd61" y="456.601"/><use style="fill-opacity:0;stroke:#4c72b0" x="733.224" xlink:href="#mf8a403fd61" y="497.697"/><use style="fill-opacity:0;stroke:#4c72b0" x="734.689" xlink:href="#mf8a403fd61" y="470.3"/><use style="fill-opacity:0;stroke:#4c72b0" x="736.155" xlink:href="#mf8a403fd61" y="497.697"/><use style="fill-opacity:0;stroke:#4c72b0" x="737.62" xlink:href="#mf8a403fd61" y="374.41"/><use style="fill-opacity:0;stroke:#4c72b0" x="739.085" xlink:href="#mf8a403fd61" y="429.204"/><use style="fill-opacity:0;stroke:#4c72b0" x="740.551" xlink:href="#mf8a403fd61" y="552.491"/><use style="fill-opacity:0;stroke:#4c72b0" x="742.016" xlink:href="#mf8a403fd61" y="552.491"/><use style="fill-opacity:0;stroke:#4c72b0" x="743.482" xlink:href="#mf8a403fd61" y="333.315"/><use style="fill-opacity:0;stroke:#4c72b0" x="744.947" xlink:href="#mf8a403fd61" y="415.506"/><use style="fill-opacity:0;stroke:#4c72b0" x="746.413" xlink:href="#mf8a403fd61" y="470.3"/><use style="fill-opacity:0;stroke:#4c72b0" x="747.878" xlink:href="#mf8a403fd61" y="511.395"/><use style="fill-opacity:0;stroke:#4c72b0" x="749.344" xlink:href="#mf8a403fd61" y="360.712"/><use style="fill-opacity:0;stroke:#4c72b0" x="750.809" xlink:href="#mf8a403fd61" y="552.491"/><use style="fill-opacity:0;stroke:#4c72b0" x="752.275" xlink:href="#mf8a403fd61" y="552.491"/><use style="fill-opacity:0;stroke:#4c72b0" x="753.74" xlink:href="#mf8a403fd61" y="360.712"/><use style="fill-opacity:0;stroke:#4c72b0" x="755.205" xlink:href="#mf8a403fd61" y="497.697"/><use style="fill-opacity:0;stroke:#4c72b0" x="756.671" xlink:href="#mf8a403fd61" y="442.903"/><use style="fill-opacity:0;stroke:#4c72b0" x="758.136" xlink:href="#mf8a403fd61" y="360.712"/><use style="fill-opacity:0;stroke:#4c72b0" x="759.602" xlink:href="#mf8a403fd61" y="483.998"/><use style="fill-opacity:0;stroke:#4c72b0" x="761.067" xlink:href="#mf8a403fd61" y="552.491"/><use style="fill-opacity:0;stroke:#4c72b0" x="762.533" xlink:href="#mf8a403fd61" y="552.491"/><use style="fill-opacity:0;stroke:#4c72b0" x="763.998" xlink:href="#mf8a403fd61" y="237.425"/><use style="fill-opacity:0;stroke:#4c72b0" x="765.464" xlink:href="#mf8a403fd61" y="456.601"/><use style="fill-opacity:0;stroke:#4c72b0" x="766.929" xlink:href="#mf8a403fd61" y="442.903"/><use style="fill-opacity:0;stroke:#4c72b0" x="768.395" xlink:href="#mf8a403fd61" y="511.395"/><use style="fill-opacity:0;stroke:#4c72b0" x="769.86" xlink:href="#mf8a403fd61" y="483.998"/><use style="fill-opacity:0;stroke:#4c72b0" x="771.325" xlink:href="#mf8a403fd61" y="552.491"/><use style="fill-opacity:0;stroke:#4c72b0" x="772.791" xlink:href="#mf8a403fd61" y="552.491"/><use style="fill-opacity:0;stroke:#4c72b0" x="774.256" xlink:href="#mf8a403fd61" y="223.727"/><use style="fill-opacity:0;stroke:#4c72b0" x="775.722" xlink:href="#mf8a403fd61" y="470.3"/><use style="fill-opacity:0;stroke:#4c72b0" x="777.187" xlink:href="#mf8a403fd61" y="456.601"/><use style="fill-opacity:0;stroke:#4c72b0" x="778.653" xlink:href="#mf8a403fd61" y="442.903"/><use style="fill-opacity:0;stroke:#4c72b0" x="780.118" xlink:href="#mf8a403fd61" y="456.601"/><use style="fill-opacity:0;stroke:#4c72b0" x="781.584" xlink:href="#mf8a403fd61" y="552.491"/><use style="fill-opacity:0;stroke:#4c72b0" x="783.049" xlink:href="#mf8a403fd61" y="429.204"/><use style="fill-opacity:0;stroke:#4c72b0" x="784.515" xlink:href="#mf8a403fd61" y="401.807"/><use style="fill-opacity:0;stroke:#4c72b0" x="785.98" xlink:href="#mf8a403fd61" y="442.903"/><use style="fill-opacity:0;stroke:#4c72b0" x="787.445" xlink:href="#mf8a403fd61" y="511.395"/><use style="fill-opacity:0;stroke:#4c72b0" x="788.911" xlink:href="#mf8a403fd61" y="305.918"/><use style="fill-opacity:0;stroke:#4c72b0" x="790.376" xlink:href="#mf8a403fd61" y="429.204"/><use style="fill-opacity:0;stroke:#4c72b0" x="791.842" xlink:href="#mf8a403fd61" y="552.491"/><use style="fill-opacity:0;stroke:#4c72b0" x="793.307" xlink:href="#mf8a403fd61" y="552.491"/><use style="fill-opacity:0;stroke:#4c72b0" x="794.773" xlink:href="#mf8a403fd61" y="319.616"/><use style="fill-opacity:0;stroke:#4c72b0" x="796.238" xlink:href="#mf8a403fd61" y="442.903"/><use style="fill-opacity:0;stroke:#4c72b0" x="799.169" xlink:href="#mf8a403fd61" y="442.903"/><use style="fill-opacity:0;stroke:#4c72b0" x="799.169" xlink:href="#mf8a403fd61" y="429.204"/><use style="fill-opacity:0;stroke:#4c72b0" x="800.635" xlink:href="#mf8a403fd61" y="483.998"/><use style="fill-opacity:0;stroke:#4c72b0" x="802.1" xlink:href="#mf8a403fd61" y="538.792"/><use style="fill-opacity:0;stroke:#4c72b0" x="803.565" xlink:href="#mf8a403fd61" y="552.491"/><use style="fill-opacity:0;stroke:#4c72b0" x="805.031" xlink:href="#mf8a403fd61" y="415.506"/><use style="fill-opacity:0;stroke:#4c72b0" x="806.496" xlink:href="#mf8a403fd61" y="483.998"/><use style="fill-opacity:0;stroke:#4c72b0" x="807.962" xlink:href="#mf8a403fd61" y="483.998"/><use style="fill-opacity:0;stroke:#4c72b0" x="809.427" xlink:href="#mf8a403fd61" y="388.109"/></g></g><path d="M117 576.72V77.76" style="fill:none;stroke:#d3d3d3;stroke-linecap:square;stroke-linejoin:miter;stroke-width:1.25" id="patch_3"/><path d="M117 576.72h725.4" style="fill:none;stroke:#d3d3d3;stroke-linecap:square;stroke-linejoin:miter;stroke-width:1.25" id="patch_4"/><g id="matplotlib.axis_1"><g id="xtick_1"><g style="fill:#696969" transform="matrix(.16 0 0 -.16 108.331 598.378)" id="text_1"><defs><path d="M9.813 72.906h9.859V5.078q0-13.187-5-19.14-5-5.954-16.094-5.954h-3.75v8.297h3.078q6.531 0 9.219 3.672Q9.813-4.39 9.813 5.078z" id="DejaVuSans-74"/><path d="M34.281 27.484q-10.89 0-15.093-2.484-4.204-2.484-4.204-8.5 0-4.781 3.157-7.594 3.156-2.797 8.562-2.797 7.485 0 12 5.297 4.516 5.297 4.516 14.078v2zm17.922 3.72V0H43.22v8.297Q40.14 3.328 35.547.953q-4.594-2.375-11.234-2.375-8.391 0-13.36 4.719Q6 8.016 6 15.922q0 9.219 6.172 13.906 6.187 4.688 18.437 4.688h12.61v.89q0 6.203-4.078 9.594-4.078 3.39-11.453 3.39-4.688 0-9.141-1.124-4.438-1.125-8.531-3.375v8.312q4.921 1.906 9.562 2.844 4.64.953 9.031.953 11.875 0 17.735-6.156 5.86-6.14 5.86-18.64z" id="DejaVuSans-97"/><path d="M54.89 33.016V0h-8.984v32.719q0 7.765-3.031 11.61-3.031 3.858-9.078 3.858-7.281 0-11.484-4.64-4.204-4.625-4.204-12.64V0H9.08v54.688h9.03v-8.5q3.235 4.937 7.594 7.374Q30.078 56 35.797 56q9.422 0 14.25-5.828 4.844-5.828 4.844-17.156z" id="DejaVuSans-110"/></defs><use xlink:href="#DejaVuSans-74"/><use x="29.492" xlink:href="#DejaVuSans-97"/><use x="90.771" xlink:href="#DejaVuSans-110"/></g></g><g id="xtick_2"><g style="fill:#696969" transform="matrix(.16 0 0 -.16 193.497 598.378)" id="text_2"><defs><path d="M9.813 72.906h14.703l18.593-49.61 18.703 49.61h14.704V0H66.89v64.016l-18.797-50h-9.907l-18.796 50V0H9.813z" id="DejaVuSans-77"/><path d="M41.11 46.297q-1.516.875-3.297 1.281Q36.03 48 33.89 48q-7.625 0-11.703-4.953-4.079-4.953-4.079-14.234V0H9.08v54.688h9.03v-8.5q2.844 4.984 7.375 7.39Q30.031 56 36.531 56q.922 0 2.047-.125 1.125-.11 2.484-.36z" id="DejaVuSans-114"/></defs><use xlink:href="#DejaVuSans-77"/><use x="86.279" xlink:href="#DejaVuSans-97"/><use x="147.559" xlink:href="#DejaVuSans-114"/></g></g><g id="xtick_3"><g style="fill:#696969" transform="matrix(.16 0 0 -.16 281.444 598.378)" id="text_3"><defs><path d="M32.172-5.078q-3.797-9.766-7.422-12.735-3.61-2.984-9.656-2.984H7.906v7.516h5.282q3.703 0 5.75 1.765Q21-9.766 23.483-3.219l1.61 4.094-22.11 53.813H12.5l17.094-42.766 17.093 42.766h9.516z" id="DejaVuSans-121"/></defs><use xlink:href="#DejaVuSans-77"/><use x="86.279" xlink:href="#DejaVuSans-97"/><use x="147.559" xlink:href="#DejaVuSans-121"/></g></g><g id="xtick_4"><g style="fill:#696969" transform="matrix(.16 0 0 -.16 377.724 598.378)" id="text_4"><defs><path d="M8.5 21.578v33.11h8.984V21.922q0-7.766 3.016-11.656 3.031-3.875 9.094-3.875 7.265 0 11.484 4.64 4.234 4.64 4.234 12.656v31h8.985V0h-8.984v8.406Q42.047 3.422 37.718 1q-4.313-2.422-10.032-2.422-9.421 0-14.312 5.86Q8.5 10.296 8.5 21.578zM31.11 56z" id="DejaVuSans-117"/><path d="M9.422 75.984h8.984V0H9.422z" id="DejaVuSans-108"/></defs><use xlink:href="#DejaVuSans-74"/><use x="29.492" xlink:href="#DejaVuSans-117"/><use x="92.871" xlink:href="#DejaVuSans-108"/></g></g><g id="xtick_5"><g style="fill:#696969" transform="matrix(.16 0 0 -.16 463.155 598.378)" id="text_5"><defs><path d="M53.516 70.516V60.89q-5.61 2.687-10.594 4-4.984 1.328-9.625 1.328-8.047 0-12.422-3.125t-4.375-8.89q0-4.845 2.906-7.313 2.907-2.453 11.016-3.97l5.953-1.218q11.031-2.11 16.281-7.406 5.25-5.297 5.25-14.172 0-10.61-7.11-16.078-7.093-5.469-20.812-5.469-5.172 0-11.015 1.172Q13.14.922 6.89 3.219v10.156q6-3.36 11.765-5.078 5.766-1.703 11.328-1.703 8.438 0 13.032 3.312 4.593 3.328 4.593 9.485 0 5.359-3.297 8.39-3.296 3.032-10.812 4.547L27.484 33.5q-11.03 2.188-15.968 6.875-4.922 4.688-4.922 13.047 0 9.672 6.812 15.234 6.813 5.563 18.766 5.563 5.14 0 10.453-.938 5.328-.922 10.89-2.765z" id="DejaVuSans-83"/><path d="M56.203 29.594v-4.39H14.891q.593-9.282 5.593-14.142 5-4.859 13.938-4.859 5.172 0 10.031 1.266 4.86 1.265 9.656 3.812v-8.5Q49.266.734 44.187-.344 39.11-1.422 33.892-1.422q-13.094 0-20.735 7.61-7.64 7.625-7.64 20.625 0 13.421 7.25 21.296Q20.016 56 32.328 56q11.031 0 17.453-7.11 6.422-7.093 6.422-19.296zm-8.984 2.64q-.094 7.36-4.125 11.75-4.032 4.407-10.672 4.407-7.516 0-12.031-4.25-4.516-4.25-5.203-11.97z" id="DejaVuSans-101"/><path d="M18.11 8.203v-29H9.077v75.484h9.031v-8.296q2.844 4.875 7.157 7.234Q29.594 56 35.594 56q9.968 0 16.187-7.906 6.235-7.907 6.235-20.797T51.78 6.484q-6.218-7.906-16.187-7.906-6 0-10.328 2.375-4.313 2.375-7.157 7.25zm30.578 19.094q0 9.906-4.079 15.547-4.078 5.64-11.203 5.64-7.14 0-11.218-5.64-4.079-5.64-4.079-15.547 0-9.906 4.078-15.547 4.079-5.64 11.22-5.64 7.124 0 11.202 5.64t4.078 15.547z" id="DejaVuSans-112"/></defs><use xlink:href="#DejaVuSans-83"/><use x="63.477" xlink:href="#DejaVuSans-101"/><use x="125" xlink:href="#DejaVuSans-112"/></g></g><g id="xtick_6"><g style="fill:#696969" transform="matrix(.16 0 0 -.16 552.012 598.378)" id="text_6"><defs><path d="M9.813 72.906h13.28l32.329-60.984v60.984h9.562V0h-13.28L19.39 60.984V0H9.813z" id="DejaVuSans-78"/><path d="M30.61 48.39q-7.22 0-11.422-5.64-4.204-5.64-4.204-15.453 0-9.813 4.172-15.453 4.188-5.64 11.453-5.64 7.188 0 11.375 5.655 4.203 5.672 4.203 15.438 0 9.719-4.203 15.406-4.187 5.688-11.375 5.688zm0 7.61q11.718 0 18.406-7.625 6.703-7.61 6.703-21.078 0-13.422-6.703-21.078-6.688-7.64-18.407-7.64-11.765 0-18.437 7.64-6.656 7.656-6.656 21.078 0 13.469 6.656 21.078Q18.844 56 30.609 56z" id="DejaVuSans-111"/><path d="M2.984 54.688H12.5L29.594 8.797l17.093 45.89h9.516L35.687 0H23.485z" id="DejaVuSans-118"/></defs><use xlink:href="#DejaVuSans-78"/><use x="74.805" xlink:href="#DejaVuSans-111"/><use x="135.986" xlink:href="#DejaVuSans-118"/></g></g><g id="xtick_7"><g style="fill:#696969" transform="matrix(.16 0 0 -.16 644.688 598.378)" id="text_7"><use xlink:href="#DejaVuSans-74"/><use x="29.492" xlink:href="#DejaVuSans-97"/><use x="90.771" xlink:href="#DejaVuSans-110"/></g></g><g id="xtick_8"><g style="fill:#696969" transform="matrix(.16 0 0 -.16 728.388 598.378)" id="text_8"><use xlink:href="#DejaVuSans-77"/><use x="86.279" xlink:href="#DejaVuSans-97"/><use x="147.559" xlink:href="#DejaVuSans-114"/></g></g><g id="xtick_9"><g style="fill:#696969" transform="matrix(.16 0 0 -.16 816.335 598.378)" id="text_9"><use xlink:href="#DejaVuSans-77"/><use x="86.279" xlink:href="#DejaVuSans-97"/><use x="147.559" xlink:href="#DejaVuSans-121"/></g></g></g><g id="matplotlib.axis_2"><g id="ytick_1"><g style="fill:#696969" transform="matrix(.16 0 0 -.16 97.32 558.57)" id="text_10"><defs><path d="M31.781 66.406q-7.61 0-11.453-7.5Q16.5 51.422 16.5 36.375q0-14.984 3.828-22.484 3.844-7.5 11.453-7.5 7.672 0 11.5 7.5 3.844 7.5 3.844 22.484 0 15.047-3.844 22.531-3.828 7.5-11.5 7.5zm0 7.813q12.266 0 18.735-9.703 6.468-9.688 6.468-28.141 0-18.406-6.468-28.11-6.47-9.687-18.735-9.687-12.25 0-18.718 9.688-6.47 9.703-6.47 28.109 0 18.453 6.47 28.14Q19.53 74.22 31.78 74.22z" id="DejaVuSans-48"/></defs><use xlink:href="#DejaVuSans-48"/></g></g><g id="ytick_2"><g style="fill:#696969" transform="matrix(.16 0 0 -.16 97.32 490.077)" id="text_11"><defs><path d="M10.797 72.906h38.719v-8.312H19.828v-17.86q2.14.735 4.281 1.094 2.157.36 4.313.36 12.203 0 19.328-6.688 7.14-6.688 7.14-18.11 0-11.765-7.328-18.296-7.328-6.516-20.656-6.516-4.593 0-9.36.781-4.75.782-9.827 2.344v9.922q4.39-2.39 9.078-3.563 4.687-1.171 9.906-1.171 8.453 0 13.375 4.437 4.938 4.438 4.938 12.063 0 7.609-4.938 12.047-4.922 4.453-13.375 4.453-3.953 0-7.89-.875-3.922-.875-8.016-2.735z" id="DejaVuSans-53"/></defs><use xlink:href="#DejaVuSans-53"/></g></g><g id="ytick_3"><g style="fill:#696969" transform="matrix(.16 0 0 -.16 87.14 421.585)" id="text_12"><defs><path d="M12.406 8.297h16.11v55.625l-17.532-3.516v8.985l17.438 3.515h9.86V8.296H54.39V0H12.406z" id="DejaVuSans-49"/></defs><use xlink:href="#DejaVuSans-49"/><use x="63.623" xlink:href="#DejaVuSans-48"/></g></g><g id="ytick_4"><g style="fill:#696969" transform="matrix(.16 0 0 -.16 87.14 353.092)" id="text_13"><use xlink:href="#DejaVuSans-49"/><use x="63.623" xlink:href="#DejaVuSans-53"/></g></g><g id="ytick_5"><g style="fill:#696969" transform="matrix(.16 0 0 -.16 87.14 284.6)" id="text_14"><defs><path d="M19.188 8.297h34.421V0H7.33v8.297q5.609 5.812 15.296 15.594 9.703 9.797 12.188 12.64 4.734 5.313 6.609 9 1.89 3.688 1.89 7.25 0 5.813-4.078 9.469-4.078 3.672-10.625 3.672-4.64 0-9.797-1.61-5.14-1.609-11-4.89v9.969Q13.767 71.78 18.938 73q5.188 1.219 9.485 1.219 11.328 0 18.062-5.672 6.735-5.656 6.735-15.125 0-4.5-1.688-8.531-1.672-4.016-6.125-9.485-1.218-1.422-7.765-8.187-6.532-6.766-18.453-18.922z" id="DejaVuSans-50"/></defs><use xlink:href="#DejaVuSans-50"/><use x="63.623" xlink:href="#DejaVuSans-48"/></g></g><g id="ytick_6"><g style="fill:#696969" transform="matrix(.16 0 0 -.16 87.14 216.107)" id="text_15"><use xlink:href="#DejaVuSans-50"/><use x="63.623" xlink:href="#DejaVuSans-53"/></g></g><g id="ytick_7"><g style="fill:#696969" transform="matrix(.16 0 0 -.16 87.14 147.614)" id="text_16"><defs><path d="M40.578 39.313Q47.656 37.797 51.625 33q3.984-4.781 3.984-11.813 0-10.78-7.422-16.703-7.421-5.906-21.093-5.906-4.578 0-9.438.906-4.86.907-10.031 2.72v9.515q4.094-2.39 8.969-3.61 4.89-1.218 10.218-1.218 9.266 0 14.125 3.656 4.86 3.656 4.86 10.64 0 6.454-4.516 10.079-4.515 3.64-12.562 3.64h-8.5v8.11h8.89q7.266 0 11.125 2.906 3.86 2.906 3.86 8.375 0 5.61-3.985 8.61-3.968 3.015-11.39 3.015-4.063 0-8.703-.89-4.641-.876-10.203-2.72v8.782q5.624 1.562 10.53 2.344 4.907.78 9.25.78 11.235 0 17.766-5.109 6.547-5.093 6.547-13.78 0-6.063-3.468-10.235-3.47-4.172-9.86-5.782z" id="DejaVuSans-51"/></defs><use xlink:href="#DejaVuSans-51"/><use x="63.623" xlink:href="#DejaVuSans-48"/></g></g><g style="fill:#696969" transform="matrix(0 -.2 -.2 0 78.98 379.813)" id="text_17"><defs><path d="M51.125 44H36.922l-4.11-16.313h14.313zm-7.328 27.781-5.078-20.265h14.265L58.11 71.78h7.813L60.89 51.516h15.234V44h-17.14l-4-16.313h15.53V20.22H53.079L48 0h-7.813l5.032 20.219H30.906L25.875 0h-7.86l5.079 20.219H7.719v7.468h17.187L29 44H13.281v7.516h17.625l4.985 20.265z" id="DejaVuSans-35"/><path d="M37.11 75.984V68.5h-8.594q-4.828 0-6.72-1.953-1.874-1.953-1.874-7.031v-4.828h14.797v-6.985H19.922V0H10.89v47.703H2.297v6.984h8.594V58.5q0 9.125 4.25 13.297 4.25 4.187 13.468 4.187z" id="DejaVuSans-102"/><path d="M48.781 52.594v-8.407q-3.812 2.11-7.64 3.157-3.828 1.047-7.735 1.047-8.75 0-13.593-5.547-4.829-5.532-4.829-15.547 0-10.016 4.829-15.563 4.843-5.53 13.593-5.53 3.907 0 7.735 1.046 3.828 1.047 7.64 3.156V2.094Q45.016.344 40.984-.531q-4.015-.89-8.562-.89-12.36 0-19.64 7.765-7.266 7.765-7.266 20.953 0 13.375 7.343 21.031Q20.22 56 33.016 56q4.14 0 8.093-.86 3.953-.843 7.672-2.546z" id="DejaVuSans-99"/><path d="M44.281 53.078v-8.5q-3.797 1.953-7.906 2.922-4.094.984-8.5.984-6.688 0-10.031-2.047-3.344-2.046-3.344-6.156 0-3.125 2.39-4.906 2.391-1.781 9.626-3.39l3.078-.688q9.562-2.047 13.593-5.781 4.032-3.735 4.032-10.422 0-7.625-6.032-12.078-6.03-4.438-16.578-4.438-4.39 0-9.156.86Q10.688.296 5.422 2v9.281q4.984-2.594 9.812-3.89 4.829-1.282 9.579-1.282 6.343 0 9.75 2.172 3.421 2.172 3.421 6.125 0 3.656-2.468 5.61-2.453 1.953-10.813 3.765l-3.125.735q-8.344 1.75-12.062 5.39-3.704 3.64-3.704 9.985 0 7.718 5.47 11.906Q16.75 56 26.811 56q4.97 0 9.36-.734 4.406-.72 8.11-2.188z" id="DejaVuSans-115"/></defs><use xlink:href="#DejaVuSans-35"/><use x="83.789" xlink:href="#DejaVuSans-32"/><use x="115.576" xlink:href="#DejaVuSans-111"/><use x="176.758" xlink:href="#DejaVuSans-102"/><use x="211.963" xlink:href="#DejaVuSans-32"/><use x="243.75" xlink:href="#DejaVuSans-99"/><use x="298.73" xlink:href="#DejaVuSans-97"/><use x="360.01" xlink:href="#DejaVuSans-115"/><use x="412.109" xlink:href="#DejaVuSans-101"/><use x="473.633" xlink:href="#DejaVuSans-115"/></g></g><g style="fill:#696969" transform="matrix(.24 0 0 -.24 308.75 71.76)" id="text_18"><defs><path d="M44.39 34.188q3.172-1.079 6.172-4.594 3-3.516 6.032-9.672L66.609 0H56l-9.313 18.703q-3.624 7.328-7.015 9.719-3.39 2.39-9.25 2.39h-10.75V0h-9.86v72.906h22.266q12.5 0 18.656-5.234 6.157-5.219 6.157-15.766 0-6.89-3.203-11.437-3.204-4.532-9.297-6.282zM19.673 64.797V38.922h12.406q7.125 0 10.766 3.297 3.64 3.297 3.64 9.687 0 6.39-3.64 9.64-3.64 3.25-10.766 3.25z" id="DejaVuSans-82"/><path d="M18.313 70.219V54.688h18.5v-6.985h-18.5V18.016q0-6.688 1.828-8.594 1.828-1.906 7.453-1.906h9.218V0h-9.218q-10.407 0-14.36 3.875-3.953 3.89-3.953 14.14v29.688H2.687v6.984h6.594V70.22z" id="DejaVuSans-116"/><path d="M54.89 33.016V0h-8.984v32.719q0 7.765-3.031 11.61-3.031 3.858-9.078 3.858-7.281 0-11.484-4.64-4.204-4.625-4.204-12.64V0H9.08v75.984h9.03V46.188q3.235 4.937 7.594 7.374Q30.078 56 35.797 56q9.422 0 14.25-5.828 4.844-5.828 4.844-17.156z" id="DejaVuSans-104"/><path d="M45.406 46.39v29.594h8.985V0h-8.985v8.203Q42.578 3.328 38.25.953q-4.313-2.375-10.375-2.375-9.906 0-16.14 7.906-6.22 7.922-6.22 20.813 0 12.89 6.22 20.797Q17.968 56 27.874 56q6.063 0 10.375-2.375 4.328-2.36 7.156-7.234zm-30.61-19.093q0-9.906 4.079-15.547 4.078-5.64 11.203-5.64 7.125 0 11.219 5.64 4.11 5.64 4.11 15.547 0 9.906-4.11 15.547-4.094 5.64-11.219 5.64-7.125 0-11.203-5.64-4.078-5.64-4.078-15.547z" id="DejaVuSans-100"/><path d="M4.203 54.688h8.985l11.234-42.672 11.172 42.672h10.593l11.235-42.672 11.187 42.672h8.985L63.28 0H52.688L40.922 44.828 29.109 0H18.5z" id="DejaVuSans-119"/><path d="M64.406 67.281v-10.39q-4.984 4.64-10.625 6.922-5.64 2.296-11.984 2.296-12.5 0-19.14-7.64-6.641-7.64-6.641-22.094 0-14.406 6.64-22.047 6.64-7.64 19.14-7.64 6.345 0 11.985 2.296 5.64 2.297 10.625 6.938V5.609Q59.234 2.094 53.437.33q-5.78-1.75-12.218-1.75-16.563 0-26.094 10.124-9.516 10.14-9.516 27.672 0 17.578 9.516 27.703 9.531 10.14 26.094 10.14 6.531 0 12.312-1.734 5.797-1.734 10.875-5.203z" id="DejaVuSans-67"/><path d="M9.422 54.688h8.984V0H9.422zm0 21.296h8.984v-11.39H9.422z" id="DejaVuSans-105"/></defs><use xlink:href="#DejaVuSans-82"/><use x="64.982" xlink:href="#DejaVuSans-117"/><use x="128.361" xlink:href="#DejaVuSans-116"/><use x="167.57" xlink:href="#DejaVuSans-104"/><use x="230.949" xlink:href="#DejaVuSans-101"/><use x="292.473" xlink:href="#DejaVuSans-114"/><use x="333.586" xlink:href="#DejaVuSans-102"/><use x="368.791" xlink:href="#DejaVuSans-111"/><use x="429.973" xlink:href="#DejaVuSans-114"/><use x="469.336" xlink:href="#DejaVuSans-100"/><use x="532.813" xlink:href="#DejaVuSans-32"/><use x="564.6" xlink:href="#DejaVuSans-78"/><use x="639.404" xlink:href="#DejaVuSans-101"/><use x="700.928" xlink:href="#DejaVuSans-119"/><use x="782.715" xlink:href="#DejaVuSans-32"/><use x="814.502" xlink:href="#DejaVuSans-67"/><use x="884.326" xlink:href="#DejaVuSans-111"/><use x="945.508" xlink:href="#DejaVuSans-118"/><use x="1004.688" xlink:href="#DejaVuSans-105"/><use x="1032.471" xlink:href="#DejaVuSans-100"/><use x="1095.947" xlink:href="#DejaVuSans-32"/><use x="1127.734" xlink:href="#DejaVuSans-67"/><use x="1197.559" xlink:href="#DejaVuSans-97"/><use x="1258.838" xlink:href="#DejaVuSans-115"/><use x="1310.938" xlink:href="#DejaVuSans-101"/><use x="1372.461" xlink:href="#DejaVuSans-115"/></g><g id="legend_1"><path d="M128.2 161.015h163.945q3.2 0 3.2-3.2V88.96q0-3.2-3.2-3.2H128.2q-3.2 0-3.2 3.2v68.855q0 3.2 3.2 3.2z" style="fill:none;opacity:.8;stroke:#ccc;stroke-linejoin:miter" id="patch_5"/><path d="M131.4 98.718h32" style="fill:none;stroke:#000;stroke-linecap:round;stroke-width:1.5" id="line2d_3"/><g style="fill:#696969" transform="matrix(.16 0 0 -.16 176.2 104.317)" id="text_19"><defs><path d="M37.797 64.313 12.89 25.39h24.906zm-2.594 8.593H47.61V25.391h10.407v-8.203H47.609V0h-9.812v17.188H4.89v9.515z" id="DejaVuSans-52"/><path d="M45.406 27.984q0 9.766-4.031 15.125-4.016 5.375-11.297 5.375-7.219 0-11.25-5.375-4.031-5.359-4.031-15.125 0-9.718 4.031-15.093t11.25-5.375q7.281 0 11.297 5.375 4.031 5.375 4.031 15.093zm8.985-21.203q0-13.953-6.203-20.765Q42-20.797 29.203-20.797q-4.734 0-8.937.703-4.203.703-8.157 2.172v8.735q3.954-2.141 7.813-3.157 3.86-1.031 7.86-1.031 8.843 0 13.234 4.61 4.39 4.609 4.39 13.937v4.453q-2.781-4.844-7.125-7.234Q33.938 0 27.875 0 17.828 0 11.672 7.656q-6.156 7.672-6.156 20.328 0 12.688 6.156 20.344Q17.828 56 27.875 56q6.063 0 10.406-2.39 4.344-2.391 7.125-7.22v8.297h8.985z" id="DejaVuSans-103"/></defs><use xlink:href="#DejaVuSans-49"/><use x="63.623" xlink:href="#DejaVuSans-52"/><use x="127.246" xlink:href="#DejaVuSans-100"/><use x="190.723" xlink:href="#DejaVuSans-32"/><use x="222.51" xlink:href="#DejaVuSans-97"/><use x="283.789" xlink:href="#DejaVuSans-118"/><use x="342.969" xlink:href="#DejaVuSans-103"/><use x="406.445" xlink:href="#DejaVuSans-32"/><use x="438.232" xlink:href="#DejaVuSans-102"/><use x="473.438" xlink:href="#DejaVuSans-105"/><use x="501.221" xlink:href="#DejaVuSans-116"/><use x="540.43" xlink:href="#DejaVuSans-116"/><use x="579.639" xlink:href="#DejaVuSans-101"/><use x="641.162" xlink:href="#DejaVuSans-100"/></g><use style="fill-opacity:0;stroke:#4c72b0" x="147.4" xlink:href="#mf8a403fd61" y="122.203" id="line2d_6"/><g style="fill:#696969" transform="matrix(.16 0 0 -.16 176.2 127.802)" id="text_20"><defs><path d="M19.672 64.797V8.109h11.922q15.093 0 22.093 6.829 7 6.843 7 21.593 0 14.64-7 21.453-7 6.813-22.093 6.813zm-9.86 8.11h20.266q21.188 0 31.094-8.813 9.922-8.813 9.922-27.563 0-18.86-9.969-27.703Q51.172 0 30.078 0H9.813z" id="DejaVuSans-68"/></defs><use xlink:href="#DejaVuSans-68"/><use x="77.002" xlink:href="#DejaVuSans-97"/><use x="138.281" xlink:href="#DejaVuSans-105"/><use x="166.064" xlink:href="#DejaVuSans-108"/><use x="193.848" xlink:href="#DejaVuSans-121"/><use x="253.027" xlink:href="#DejaVuSans-32"/><use x="284.814" xlink:href="#DejaVuSans-67"/><use x="354.639" xlink:href="#DejaVuSans-97"/><use x="415.918" xlink:href="#DejaVuSans-115"/><use x="468.018" xlink:href="#DejaVuSans-101"/><use x="529.541" xlink:href="#DejaVuSans-115"/></g><path d="M131.4 151.287h32v-11.2h-32z" style="fill:#089fff;opacity:.2;stroke:#fff;stroke-linejoin:miter" id="patch_6"/><g style="fill:#696969" transform="matrix(.16 0 0 -.16 176.2 151.287)" id="text_21"><defs><path d="M8.688 72.906h9.921V28.61q0-11.718 4.235-16.875 4.25-5.14 13.781-5.14 9.469 0 13.719 5.14 4.25 5.157 4.25 16.875v44.297H64.5V27.391q0-14.25-7.063-21.532-7.046-7.28-20.812-7.28-13.828 0-20.89 7.28-7.047 7.282-7.047 21.532z" id="DejaVuSans-85"/></defs><use xlink:href="#DejaVuSans-85"/><use x="73.193" xlink:href="#DejaVuSans-110"/><use x="136.572" xlink:href="#DejaVuSans-99"/><use x="191.553" xlink:href="#DejaVuSans-101"/><use x="253.076" xlink:href="#DejaVuSans-114"/><use x="294.189" xlink:href="#DejaVuSans-116"/><use x="333.398" xlink:href="#DejaVuSans-97"/><use x="394.678" xlink:href="#DejaVuSans-105"/><use x="422.461" xlink:href="#DejaVuSans-110"/><use x="485.84" xlink:href="#DejaVuSans-116"/><use x="525.049" xlink:href="#DejaVuSans-121"/></g></g></g></g><defs><clipPath id="p56c190d888"><path d="M117 77.76h725.4v498.96H117z"/></clipPath></defs></svg>