<svg height="864" viewBox="0 0 936 648" width="1248" xmlns="http://www.w3.org/2000/svg" xmlns:xlink="http://www.w3.org/1999/xlink"><defs><style>*{stroke-linecap:butt;stroke-linejoin:round}</style></defs><g id="figure_1"><path d="M0 648h936V0H0z" fill="#fff" id="patch_1"/><g id="axes_1"><path d="M117 576.72h725.4V77.76H117z" fill="none" id="patch_2"/><g id="PolyCollection_1"><defs><path d="M151.65-101.726H245.62l1.678-2.401 1.678.425 1.678.18 1.678-1.575h1.678l1.678-4.71 1.678-4.13 1.678-4.778 1.678-.483 1.678-4.609 1.678-1.807 1.678-9.487 1.678-8.314 1.678-6.167 1.678 6.83 1.678-10.314 1.678-20.37 1.678-12.492 1.678 4.576 1.678 4.642 1.678 5.85 1.678-20.412 1.678-8.908 1.678 29.588 1.678 28.3 1.678-4.037 1.678 2.988 1.678-1.477 1.678 7.02 1.678-4.824 1.678-5.595 1.678.366 1.678 1.5 1.678 1.464 1.678-5.136 1.678-.552 1.678-3.308 1.678 1.93h3.356l1.678 6.362 1.678 8.025 1.678 5.922 1.678 10.05 1.678-1.51 1.678-.748 1.678 9.149 1.678-1.044 1.678 3.559 1.678 6.273 1.678 5.303 1.678 6.652 1.678-1.325 1.678-8.808 1.678-8.602 1.678-1.514 1.678-.679 1.678.594 1.678-1.211 1.678-3.177 1.678 6.394 1.678 8.153 1.678 3.552 1.678 2.797 1.678 2.154 1.678-.939 1.678-2.81 1.678-1.93 1.678-.826 1.678-.79 1.678-.729 1.678-2.401 1.678.425 1.678.18 1.678-4.356 1.678.475 1.678-.113 1.678-.765 1.678 3.59 1.678-.333 1.678-.429 1.678 7.226 1.678.474 1.678-2.305 1.678-.901 1.678-2.171 1.678-.308 1.678-.411 1.678-.218 1.678-.577 1.678 1.93h1.678l1.678 2.507 1.678.218h1.678l1.678-3.86 1.678 1.652 1.678-1.652 1.678-1.322 1.678-1.388h1.678l1.678-.542 1.678-3.082 1.678-.298 1.678-.406 1.678 1.441 1.678 1.93h3.356l1.678-3.86 1.678-1.515 1.678 1.93 1.678-1.578 1.678-3.136h1.678l1.678-.724 1.678 8.146 1.678.475 1.678.262 1.678 2.507 1.678 4.388 1.678-.39 1.678-1.657 1.678 4.54 1.678-4.335 1.678-2.708 1.678-1.93 1.678.352 1.678.19 1.678.061 1.678-3.042 1.678 5.79 1.678 2.79 1.678.456 1.678.164 1.678-.08 1.678-.349 1.678-2.157 1.678-.73 1.678-1.2 1.678 1.93h5.034l1.678 2.314 1.678.218 1.678-.3h1.678l1.678-1.93h3.356l1.678-1.503 1.678.117 1.678 1.686 1.678-2.23h1.678l1.678-.09 1.678-.212 1.678 2.142 1.678-3.47 1.678-1.426 1.678.352 1.678 1.89 1.678-.085 1.678-.133 1.678-2.828 1.678 4.287 1.678-5.366 1.678 1.93h1.678l1.678-.047 1.678-.1 1.678 2.03 1.678-5.79 1.678 8.229 1.678.352 1.678.19 1.678.061 1.678-.06 1.678-1.93 1.678 4.639 1.678-3.86 1.678-1.737 1.678.133 1.678.085 1.678.04 1.678-3.16 1.678-.7 1.678 1.578 1.678 1.93h5.034l1.678 6.902 1.678.147 1.678 2.334 1.678.197 1.678-.197 1.678-.674 1.678-1.883 1.678-3.283 1.678-1.03 1.678-6.34 1.678-10.958 1.678-.561 1.678.85 1.678-1.181 1.678-2.383 1.678-13.025 1.678 2.517 1.678 8.147 1.678-5.79 1.678-5.454 1.678-4.627 1.678.504 1.678 11.444 1.678-5.79 1.678 9.179 1.678 12.712 1.678 8.75 1.678 7.248 1.678-9.87 1.678-8.662 1.678-4.946 1.678-8.169 1.678-5.7 1.678 1.27 1.678-2.073 1.678-11.736 1.678 4.091 1.678-6.78 1.678 1.502 1.678-.462 1.678-.729 1.678-1.228 1.678-10.858 1.678-2.926 1.678 13.487 1.678-22.439 1.678-1.404 1.678.112 1.678-2.17 1.678 4.623 1.678-14.523 1.678-22.484 1.678 17.304 1.678-11.812 1.678-7.649 1.678-.21 1.678-1.424 1.678 4.375 1.678 13.354 1.678 19.643 1.678 37.315 1.678-30.154 1.678-2.785 1.678-3.835 1.678-1.883 1.678-10.74 1.678-22.716 1.678-33.543 1.678 20.808 1.678.257 1.678 2.428 1.678-16.763 1.678-.194 1.678-9.513 1.678 32.758 1.678 30.17 1.678 3.473 1.678-5.241 1.678 2.871 1.678-7.49 1.678 31.689 1.678-17.783 1.678.266 1.678-.159 1.678-24.289 1.678 4.63 1.678-28.587 1.678-5.46 1.678 30.77 1.678-3.53 1.678-5.895 1.678-7.205 1.678 1 1.678 16.176 1.678-19.69 1.678-.014 1.678-.03 1.678-.045 1.678-6.179 1.678-17.487 1.678 9.182 1.678-6.23 1.678-18.002 1.678-13.529 1.678.26 1.678 16.225 1.678 12.871 1.678-4.914 1.678 9.65 1.678 6.222 1.678 20.822 1.678-3.884 1.678 52.106 1.678-18.833 1.678 8.265 1.678 10.583 1.678 11.384 1.678-1.738 1.678-6.828 1.678-50.96 1.678 32.093 1.678 7.512 1.678-3.82 1.678-24.288 1.678-9.887 1.678-4.221 1.678 64.178 1.678 13.032 1.678-38.858 1.678-3.973 1.678 16.644 1.678 6.29 1.678-7.635 1.678-29.469 1.678-13.836 1.678 41.36 1.678 4.14 1.678 4.942 1.678-14.082 1.678-.715 1.678 33.177 1.678-22.524 1.678-.049v-21.705h0l-1.678-.05-1.678 4.497-1.678-28.583-1.678-.716-1.678 12.939-1.678-2.778-1.678-3.58-1.678-39.701-1.678 13.184-1.678 32.292-1.678-7.635-1.678-13.01-1.678-18.097-1.678 3.747-1.678 38.343-1.678-2.409-1.678-55.482-1.678-4.221-1.678 9.412-1.678 25.893-1.678 3.9-1.678-7.927-1.678-33.528-1.678 68.7-1.678-6.827-1.678-1.738-1.678-15.637-1.678-12.576-1.678-11.036-1.678 19.767-1.678-32.814-1.678-3.884-1.678-17.778-1.678-1.499-1.678-9.65-1.678-1.054-1.678-14.15-1.678-26.235-1.678.26-1.678 25.071-1.678 28.32-1.678 9.21-1.678-10.119-1.678 32.693-1.678 5.402-1.678-.045-1.678-.03-1.678-.015-1.678 3.471-1.678-14.703-1.678-6.721-1.678 4.375-1.678-5.895-1.678-3.53-1.678-34.851-1.678 13.84-1.678 48.614-1.678-3.09-1.678 25.891-1.678-.159-1.678.266-1.678 13.098-1.678-37.792-1.678.23-1.678-8.709-1.678 6.34-1.678 3.473-1.678-12.291-1.678-25.143-1.678-1.793-1.678-23.354-1.678 2.537-1.678-9.152-1.678.258-1.678-13.933-1.678 59.097-1.678 39.046-1.678 8.56-1.678-5.744-1.678-3.835-1.678-2.784-1.678 27.746-1.678-16.725-1.678-11.238-1.678-9.806-1.678-11.065-1.678-9.144-1.678-.21-1.678 11.651-1.678 15.208-1.678-17.436-1.678 23.836-1.678 16.358-1.678-6.958-1.678-2.17-1.678.112-1.678 6.317-1.678 31.6-1.678-13.532-1.678 8.654-1.678 16.162-1.678-1.228-1.678-.73-1.678-.461-1.678-6.218-1.678.94-1.678-7.489-1.678 11.424-1.678-2.073-1.678 1.27-1.678 13.6-1.678 11.132-1.678-1.086-1.678 6.778-1.678 5.57-1.678-4.333-1.678-2.83-1.678-6.587-1.678-10.122-1.678 5.79-1.678-11.716-1.678.505-1.678 6.952-1.678 6.127-1.678 5.79-1.678-7.293-1.678-12.924-1.678 6.276-1.678-2.383-1.678-1.181-1.678.85-1.678 7.159-1.678 23.782-1.678 12.96-1.678 2.83-1.678 4.437-1.678-1.883-1.678-.673-1.678-.198-1.678.198-1.678-1.527-1.678.147-1.678-4.678h-5.034l-1.678-1.93-1.678-2.282-1.678-.7-1.678 4.56-1.678.04-1.678.085-1.678.133-1.678 2.124-1.678 3.86-1.678-6.941-1.678 1.93-1.678-.061-1.678.06-1.678.191-1.678.352-1.678-7.21-1.678 5.79-1.678-1.832-1.678-.099-1.678-.048h-1.678l-1.678-1.93-1.678 6.215-1.678-3.433-1.678 1.032-1.678-.133-1.678-.085-1.678-1.97-1.678.352-1.678 2.434-1.678 4.25-1.678-1.717-1.678-.213-1.678-.09h-1.678l-1.678 1.63-1.678-2.174-1.678.117-1.678 2.357h-3.356l-1.678 1.93h-1.678l-1.678-.3-1.678.218-1.678-1.545h-5.034l-1.678-1.93-1.678 2.659-1.678-.73-1.678-2.157-1.678-.348-1.678-.081-1.678.164-1.678.455-1.678-1.069-1.678-5.79-1.678.818-1.678.06-1.678.191-1.678.352-1.678 1.93-1.678 1.152-1.678 3.385-1.678-3.18-1.678-1.657-1.678-.39-1.678-3.332-1.678-1.353-1.678.262-1.678.475-1.678-7.294-1.678-.725h-1.678l-1.678 4.585-1.678 2.282-1.678-1.93-1.678 2.345-1.678 3.86h-3.356l-1.678-1.93-1.678-2.42-1.678-.405-1.678-.298-1.678 4.638-1.678-.542h-1.678l-1.678 2.472-1.678 2.539-1.678 2.207-1.678-2.207-1.678 3.86h-1.678l-1.678.218-1.678-1.354h-1.678l-1.678-1.93-1.678-.576-1.678-.218-1.678-.411-1.678-.309-1.678 1.69-1.678-.902-1.678 1.555-1.678.475-1.678-4.355-1.678-.429-1.678-.333-1.678-4.13-1.678-.765-1.678-.113-1.678.475-1.678 7.225-1.678.18-1.678.424-1.678 5.32-1.678-.73-1.678-.79-1.678-.826-1.678-1.93-1.678-2.81-1.678-.94-1.678-1.705-1.678-1.063-1.678-.308-1.678-3.427-1.678-9.046-1.678-3.177-1.678-1.211-1.678.594-1.678 3.18-1.678 2.347-1.678 6.838-1.678 6.633-1.678-1.326-1.678-4.928-1.678-2.417-1.678-5.307-1.678-4.161-1.678-1.044-1.678-10.15-1.678-.75-1.678 2.35-1.678-5.389-1.678-1.798-1.678-3.556-1.678-5.218h-3.356l-1.678-1.93-1.678 4.412-1.678-.552-1.678-1.275-1.678-2.397-1.678-2.36-1.678.367-1.678-1.736-1.678-12.543-1.678-12.28-1.678 2.382-1.678-.872-1.678 7.543-1.678-14.16-1.678-24.453-1.678-5.047-1.678 10.468-1.678-9.59-1.678-6.939-1.678-3.144-1.678 22.248-1.678 29.81-1.678 8.986-1.678-8.61-1.678 9.275-1.678 10.986-1.678 9.812-1.678 2.053-1.678 6.971-1.678 3.378-1.678 10.663-1.678 7.45-1.678 6.869h-1.678l-1.678 2.286-1.678.18-1.678.424-1.678 5.32H151.65z" id="mcd53dc3517" stroke="#fff" stroke-opacity=".2"/></defs><g clip-path="url(#pdb99724c19)"><use xlink:href="#mcd53dc3517" y="648" fill="#089fff" fill-opacity=".2" stroke="#fff" stroke-opacity=".2"/></g></g><path clip-path="url(#pdb99724c19)" d="M149.973 546.274l62.086.078 6.712.354 6.712.608 6.712.608 3.356.072 1.678-.094 1.678-.22 1.678-.383 1.678-.579 1.678-.812 1.678-1.085 1.678-1.4 1.678-1.752 1.678-2.131 1.678-2.535 1.678-2.962 1.678-3.405 1.678-3.833 1.678-4.238 3.356-9.528 3.356-10.451 5.034-15.879 1.678-4.883 1.678-4.464 1.678-3.908 1.678-3.217 1.678-2.411 1.678-1.568 1.678-.706 1.678.147 1.678.895 1.678 1.509 1.678 1.991 1.678 2.343 10.068 15.298 3.356 4.308 8.39 10.106 3.356 4.56 5.034 7.448 3.356 4.967 3.356 4.564 1.678 2.025 1.678 1.798 1.678 1.537 1.678 1.28 1.678 1.034 1.678.812 3.356 1.204 3.356 1.098 3.356 1.31 8.39 3.702 1.678.543 1.678.418 1.678.279 1.678.15 3.356-.035 5.034-.56 3.356-.324 3.356-.088 3.356.222 13.424 1.482 3.356.115 3.356-.114 3.356-.428 3.356-.781 3.356-1.089 11.746-4.328 3.356-.947 3.356-.738 3.356-.49 3.356-.124 1.678.115 1.678.236 3.356.81 5.034 1.722 3.356 1.147 3.356.944 5.034 1.032 8.39 1.569 6.712 1.3 5.034.737 5.034.49 3.356.17 3.356.001 3.356-.191 3.356-.376 5.034-.808 8.39-1.658 6.712-1.288 5.034-.685 3.356-.273 3.356-.1 3.356.092 3.356.265 15.102 1.6 6.712.515 5.034.615 3.356.402 1.678.11 1.678-.013 1.678-.183 1.678-.4 1.678-.66 1.678-.968 1.678-1.309 1.678-1.635 1.678-1.94 1.678-2.217 3.356-5.054 3.356-5.144 1.678-2.368 1.678-2.145 1.678-1.858 1.678-1.522 1.678-1.18 1.678-.848 1.678-.528 1.678-.238 1.678.019 1.678.243 6.712 1.657 1.678.063 1.678-.239 1.678-.61 1.678-1.033 1.678-1.415 1.678-1.74 1.678-2.01 3.356-4.655 3.356-5.24 3.356-5.739 3.356-6.357 3.356-6.98 5.034-11.32 3.356-7.484 3.356-6.876 1.678-3.064 1.678-2.749 1.678-2.39 1.678-1.987 1.678-1.562 1.678-1.2 1.678-.92 5.034-2.272 1.678-1.11 1.678-1.52 1.678-1.932 1.678-2.315 6.712-10.432 1.678-1.83 1.678-1.175 1.678-.411 1.678.421 1.678 1.154 1.678 1.742 1.678 2.187 5.034 7.489 1.678 2.129 1.678 1.703 1.678 1.186 1.678.578 1.678-.09 1.678-.676 1.678-1.154 1.678-1.52 1.678-1.787 5.034-6.02 3.356-4.2 3.356-4.673 3.356-5.27 6.712-11.357 1.678-2.368 1.678-1.849 1.678-1.146 1.678-.285 1.678.645 1.678 1.62 1.678 2.604 1.678 3.465 1.678 4.164 1.678 4.704 6.712 20.246 1.678 4.402 1.678 3.871 1.678 3.236 1.678 2.533 1.678 1.903 1.678 1.382 1.678.971 1.678.681 6.712 2.085 3.356 1.364 3.356 1.602 3.356 1.853 1.678 1.071 1.678 1.228 1.678 1.42 1.678 1.603 3.356 3.657 3.356 4.096 3.356 4.302h0" fill="none" stroke="#000" stroke-linecap="round" stroke-width="1.5" id="line2d_1"/><g id="line2d_2"><defs><path d="M0 3a3 3 0 100-6 3 3 0 000 6z" id="m1f0407bf03" stroke="#4c72b0"/></defs><g clip-path="url(#pdb99724c19)" fill-opacity="0" stroke="#4c72b0"><use x="149.973" xlink:href="#m1f0407bf03" y="546.274"/><use x="151.651" xlink:href="#m1f0407bf03" y="546.274"/><use x="153.329" xlink:href="#m1f0407bf03" y="546.274"/><use x="155.007" xlink:href="#m1f0407bf03" y="546.274"/><use x="156.685" xlink:href="#m1f0407bf03" y="546.274"/><use x="158.363" xlink:href="#m1f0407bf03" y="546.274"/><use x="160.041" xlink:href="#m1f0407bf03" y="546.274"/><use x="161.719" xlink:href="#m1f0407bf03" y="546.274"/><use x="163.397" xlink:href="#m1f0407bf03" y="546.274"/><use x="165.075" xlink:href="#m1f0407bf03" y="546.274"/><use x="166.753" xlink:href="#m1f0407bf03" y="546.274"/><use x="168.431" xlink:href="#m1f0407bf03" y="546.274"/><use x="170.109" xlink:href="#m1f0407bf03" y="546.274"/><use x="171.787" xlink:href="#m1f0407bf03" y="546.274"/><use x="173.465" xlink:href="#m1f0407bf03" y="546.274"/><use x="175.143" xlink:href="#m1f0407bf03" y="546.274"/><use x="176.821" xlink:href="#m1f0407bf03" y="546.274"/><use x="178.499" xlink:href="#m1f0407bf03" y="546.274"/><use x="180.177" xlink:href="#m1f0407bf03" y="546.274"/><use x="181.855" xlink:href="#m1f0407bf03" y="546.274"/><use x="183.533" xlink:href="#m1f0407bf03" y="546.274"/><use x="185.211" xlink:href="#m1f0407bf03" y="546.274"/><use x="186.889" xlink:href="#m1f0407bf03" y="546.274"/><use x="188.567" xlink:href="#m1f0407bf03" y="546.274"/><use x="190.245" xlink:href="#m1f0407bf03" y="546.274"/><use x="191.923" xlink:href="#m1f0407bf03" y="546.274"/><use x="193.601" xlink:href="#m1f0407bf03" y="546.274"/><use x="195.279" xlink:href="#m1f0407bf03" y="546.274"/><use x="196.957" xlink:href="#m1f0407bf03" y="546.274"/><use x="198.635" xlink:href="#m1f0407bf03" y="546.274"/><use x="200.313" xlink:href="#m1f0407bf03" y="546.274"/><use x="201.991" xlink:href="#m1f0407bf03" y="546.274"/><use x="203.669" xlink:href="#m1f0407bf03" y="546.274"/><use x="205.347" xlink:href="#m1f0407bf03" y="546.274"/><use x="207.025" xlink:href="#m1f0407bf03" y="546.274"/><use x="208.703" xlink:href="#m1f0407bf03" y="546.274"/><use x="210.381" xlink:href="#m1f0407bf03" y="546.274"/><use x="212.059" xlink:href="#m1f0407bf03" y="546.274"/><use x="213.737" xlink:href="#m1f0407bf03" y="546.274"/><use x="215.415" xlink:href="#m1f0407bf03" y="546.274"/><use x="217.093" xlink:href="#m1f0407bf03" y="546.274"/><use x="218.771" xlink:href="#m1f0407bf03" y="546.274"/><use x="220.449" xlink:href="#m1f0407bf03" y="546.274"/><use x="222.127" xlink:href="#m1f0407bf03" y="546.274"/><use x="223.805" xlink:href="#m1f0407bf03" y="546.274"/><use x="225.483" xlink:href="#m1f0407bf03" y="546.274"/><use x="227.161" xlink:href="#m1f0407bf03" y="546.274"/><use x="228.839" xlink:href="#m1f0407bf03" y="546.274"/><use x="230.517" xlink:href="#m1f0407bf03" y="546.274"/><use x="232.195" xlink:href="#m1f0407bf03" y="546.274"/><use x="233.873" xlink:href="#m1f0407bf03" y="546.274"/><use x="235.551" xlink:href="#m1f0407bf03" y="546.274"/><use x="237.229" xlink:href="#m1f0407bf03" y="546.274"/><use x="238.907" xlink:href="#m1f0407bf03" y="546.274"/><use x="240.585" xlink:href="#m1f0407bf03" y="546.274"/><use x="242.263" xlink:href="#m1f0407bf03" y="546.274"/><use x="243.941" xlink:href="#m1f0407bf03" y="546.274"/><use x="245.619" xlink:href="#m1f0407bf03" y="546.274"/><use x="247.297" xlink:href="#m1f0407bf03" y="519.254"/><use x="248.975" xlink:href="#m1f0407bf03" y="546.274"/><use x="250.653" xlink:href="#m1f0407bf03" y="546.274"/><use x="252.331" xlink:href="#m1f0407bf03" y="532.764"/><use x="254.009" xlink:href="#m1f0407bf03" y="546.274"/><use x="255.687" xlink:href="#m1f0407bf03" y="505.744"/><use x="257.365" xlink:href="#m1f0407bf03" y="505.744"/><use x="259.043" xlink:href="#m1f0407bf03" y="465.213"/><use x="260.721" xlink:href="#m1f0407bf03" y="532.764"/><use x="262.399" xlink:href="#m1f0407bf03" y="505.744"/><use x="264.077" xlink:href="#m1f0407bf03" y="519.254"/><use x="265.755" xlink:href="#m1f0407bf03" y="478.723"/><use x="267.433" xlink:href="#m1f0407bf03" y="438.193"/><use x="269.111" xlink:href="#m1f0407bf03" y="451.703"/><use x="270.789" xlink:href="#m1f0407bf03" y="519.254"/><use x="272.467" xlink:href="#m1f0407bf03" y="465.213"/><use x="274.145" xlink:href="#m1f0407bf03" y="330.112"/><use x="275.823" xlink:href="#m1f0407bf03" y="397.663"/><use x="277.501" xlink:href="#m1f0407bf03" y="505.744"/><use x="279.179" xlink:href="#m1f0407bf03" y="478.723"/><use x="280.857" xlink:href="#m1f0407bf03" y="505.744"/><use x="282.535" xlink:href="#m1f0407bf03" y="411.173"/><use x="284.213" xlink:href="#m1f0407bf03" y="451.703"/><use x="285.891" xlink:href="#m1f0407bf03" y="519.254"/><use x="287.569" xlink:href="#m1f0407bf03" y="546.274"/><use x="289.247" xlink:href="#m1f0407bf03" y="465.213"/><use x="290.925" xlink:href="#m1f0407bf03" y="492.234"/><use x="292.603" xlink:href="#m1f0407bf03" y="492.234"/><use x="294.281" xlink:href="#m1f0407bf03" y="478.723"/><use x="295.959" xlink:href="#m1f0407bf03" y="478.723"/><use x="297.637" xlink:href="#m1f0407bf03" y="505.744"/><use x="299.315" xlink:href="#m1f0407bf03" y="546.274"/><use x="300.993" xlink:href="#m1f0407bf03" y="478.723"/><use x="302.671" xlink:href="#m1f0407bf03" y="505.744"/><use x="304.349" xlink:href="#m1f0407bf03" y="478.723"/><use x="306.027" xlink:href="#m1f0407bf03" y="478.723"/><use x="307.705" xlink:href="#m1f0407bf03" y="451.703"/><use x="309.383" xlink:href="#m1f0407bf03" y="519.254"/><use x="311.061" xlink:href="#m1f0407bf03" y="546.274"/><use x="312.739" xlink:href="#m1f0407bf03" y="478.723"/><use x="314.417" xlink:href="#m1f0407bf03" y="546.274"/><use x="316.095" xlink:href="#m1f0407bf03" y="519.254"/><use x="317.773" xlink:href="#m1f0407bf03" y="505.744"/><use x="319.451" xlink:href="#m1f0407bf03" y="505.744"/><use x="321.129" xlink:href="#m1f0407bf03" y="505.744"/><use x="322.807" xlink:href="#m1f0407bf03" y="546.274"/><use x="324.485" xlink:href="#m1f0407bf03" y="546.274"/><use x="326.163" xlink:href="#m1f0407bf03" y="546.274"/><use x="327.841" xlink:href="#m1f0407bf03" y="546.274"/><use x="329.519" xlink:href="#m1f0407bf03" y="546.274"/><use x="331.197" xlink:href="#m1f0407bf03" y="532.764"/><use x="332.875" xlink:href="#m1f0407bf03" y="546.274"/><use x="334.553" xlink:href="#m1f0407bf03" y="546.274"/><use x="336.231" xlink:href="#m1f0407bf03" y="492.234"/><use x="337.909" xlink:href="#m1f0407bf03" y="492.234"/><use x="339.587" xlink:href="#m1f0407bf03" y="532.764"/><use x="341.265" xlink:href="#m1f0407bf03" y="532.764"/><use x="342.943" xlink:href="#m1f0407bf03" y="532.764"/><use x="344.621" xlink:href="#m1f0407bf03" y="546.274"/><use x="346.299" xlink:href="#m1f0407bf03" y="546.274"/><use x="347.977" xlink:href="#m1f0407bf03" y="546.274"/><use x="349.655" xlink:href="#m1f0407bf03" y="532.764"/><use x="351.333" xlink:href="#m1f0407bf03" y="546.274"/><use x="353.011" xlink:href="#m1f0407bf03" y="546.274"/><use x="354.689" xlink:href="#m1f0407bf03" y="546.274"/><use x="356.367" xlink:href="#m1f0407bf03" y="546.274"/><use x="358.045" xlink:href="#m1f0407bf03" y="546.274"/><use x="359.723" xlink:href="#m1f0407bf03" y="546.274"/><use x="361.401" xlink:href="#m1f0407bf03" y="532.764"/><use x="363.079" xlink:href="#m1f0407bf03" y="546.274"/><use x="364.757" xlink:href="#m1f0407bf03" y="546.274"/><use x="366.435" xlink:href="#m1f0407bf03" y="519.254"/><use x="368.113" xlink:href="#m1f0407bf03" y="546.274"/><use x="369.791" xlink:href="#m1f0407bf03" y="546.274"/><use x="371.469" xlink:href="#m1f0407bf03" y="505.744"/><use x="373.147" xlink:href="#m1f0407bf03" y="532.764"/><use x="374.825" xlink:href="#m1f0407bf03" y="546.274"/><use x="376.503" xlink:href="#m1f0407bf03" y="546.274"/><use x="378.181" xlink:href="#m1f0407bf03" y="546.274"/><use x="379.859" xlink:href="#m1f0407bf03" y="546.274"/><use x="381.537" xlink:href="#m1f0407bf03" y="546.274"/><use x="383.215" xlink:href="#m1f0407bf03" y="546.274"/><use x="384.893" xlink:href="#m1f0407bf03" y="532.764"/><use x="386.571" xlink:href="#m1f0407bf03" y="532.764"/><use x="388.249" xlink:href="#m1f0407bf03" y="546.274"/><use x="389.927" xlink:href="#m1f0407bf03" y="532.764"/><use x="391.605" xlink:href="#m1f0407bf03" y="546.274"/><use x="393.283" xlink:href="#m1f0407bf03" y="546.274"/><use x="394.961" xlink:href="#m1f0407bf03" y="546.274"/><use x="396.639" xlink:href="#m1f0407bf03" y="532.764"/><use x="398.317" xlink:href="#m1f0407bf03" y="546.274"/><use x="399.995" xlink:href="#m1f0407bf03" y="546.274"/><use x="401.673" xlink:href="#m1f0407bf03" y="546.274"/><use x="403.351" xlink:href="#m1f0407bf03" y="546.274"/><use x="405.029" xlink:href="#m1f0407bf03" y="546.274"/><use x="406.707" xlink:href="#m1f0407bf03" y="519.254"/><use x="408.385" xlink:href="#m1f0407bf03" y="546.274"/><use x="410.063" xlink:href="#m1f0407bf03" y="532.764"/><use x="411.741" xlink:href="#m1f0407bf03" y="532.764"/><use x="413.419" xlink:href="#m1f0407bf03" y="532.764"/><use x="415.097" xlink:href="#m1f0407bf03" y="546.274"/><use x="416.775" xlink:href="#m1f0407bf03" y="546.274"/><use x="418.453" xlink:href="#m1f0407bf03" y="492.234"/><use x="420.131" xlink:href="#m1f0407bf03" y="546.274"/><use x="421.809" xlink:href="#m1f0407bf03" y="532.764"/><use x="423.487" xlink:href="#m1f0407bf03" y="546.274"/><use x="425.165" xlink:href="#m1f0407bf03" y="546.274"/><use x="426.843" xlink:href="#m1f0407bf03" y="546.274"/><use x="428.521" xlink:href="#m1f0407bf03" y="546.274"/><use x="430.199" xlink:href="#m1f0407bf03" y="465.213"/><use x="431.877" xlink:href="#m1f0407bf03" y="532.764"/><use x="433.555" xlink:href="#m1f0407bf03" y="546.274"/><use x="435.233" xlink:href="#m1f0407bf03" y="532.764"/><use x="436.911" xlink:href="#m1f0407bf03" y="519.254"/><use x="438.589" xlink:href="#m1f0407bf03" y="546.274"/><use x="440.267" xlink:href="#m1f0407bf03" y="546.274"/><use x="441.945" xlink:href="#m1f0407bf03" y="519.254"/><use x="443.623" xlink:href="#m1f0407bf03" y="532.764"/><use x="445.301" xlink:href="#m1f0407bf03" y="546.274"/><use x="446.979" xlink:href="#m1f0407bf03" y="546.274"/><use x="448.657" xlink:href="#m1f0407bf03" y="546.274"/><use x="450.335" xlink:href="#m1f0407bf03" y="546.274"/><use x="452.013" xlink:href="#m1f0407bf03" y="546.274"/><use x="453.691" xlink:href="#m1f0407bf03" y="546.274"/><use x="455.369" xlink:href="#m1f0407bf03" y="505.744"/><use x="457.047" xlink:href="#m1f0407bf03" y="532.764"/><use x="458.725" xlink:href="#m1f0407bf03" y="532.764"/><use x="460.403" xlink:href="#m1f0407bf03" y="546.274"/><use x="462.081" xlink:href="#m1f0407bf03" y="546.274"/><use x="463.759" xlink:href="#m1f0407bf03" y="546.274"/><use x="465.437" xlink:href="#m1f0407bf03" y="532.764"/><use x="467.115" xlink:href="#m1f0407bf03" y="546.274"/><use x="468.793" xlink:href="#m1f0407bf03" y="546.274"/><use x="470.471" xlink:href="#m1f0407bf03" y="532.764"/><use x="472.149" xlink:href="#m1f0407bf03" y="546.274"/><use x="473.827" xlink:href="#m1f0407bf03" y="546.274"/><use x="475.505" xlink:href="#m1f0407bf03" y="546.274"/><use x="477.183" xlink:href="#m1f0407bf03" y="532.764"/><use x="478.861" xlink:href="#m1f0407bf03" y="546.274"/><use x="480.539" xlink:href="#m1f0407bf03" y="532.764"/><use x="482.217" xlink:href="#m1f0407bf03" y="546.274"/><use x="483.895" xlink:href="#m1f0407bf03" y="546.274"/><use x="485.573" xlink:href="#m1f0407bf03" y="546.274"/><use x="487.251" xlink:href="#m1f0407bf03" y="546.274"/><use x="488.929" xlink:href="#m1f0407bf03" y="546.274"/><use x="490.607" xlink:href="#m1f0407bf03" y="546.274"/><use x="492.285" xlink:href="#m1f0407bf03" y="532.764"/><use x="493.963" xlink:href="#m1f0407bf03" y="546.274"/><use x="495.641" xlink:href="#m1f0407bf03" y="532.764"/><use x="497.319" xlink:href="#m1f0407bf03" y="546.274"/><use x="498.997" xlink:href="#m1f0407bf03" y="546.274"/><use x="500.675" xlink:href="#m1f0407bf03" y="532.764"/><use x="502.353" xlink:href="#m1f0407bf03" y="546.274"/><use x="504.031" xlink:href="#m1f0407bf03" y="546.274"/><use x="505.709" xlink:href="#m1f0407bf03" y="532.764"/><use x="507.387" xlink:href="#m1f0407bf03" y="532.764"/><use x="509.065" xlink:href="#m1f0407bf03" y="546.274"/><use x="510.743" xlink:href="#m1f0407bf03" y="546.274"/><use x="512.421" xlink:href="#m1f0407bf03" y="546.274"/><use x="514.099" xlink:href="#m1f0407bf03" y="519.254"/><use x="515.777" xlink:href="#m1f0407bf03" y="532.764"/><use x="517.455" xlink:href="#m1f0407bf03" y="532.764"/><use x="519.133" xlink:href="#m1f0407bf03" y="546.274"/><use x="520.811" xlink:href="#m1f0407bf03" y="546.274"/><use x="522.489" xlink:href="#m1f0407bf03" y="546.274"/><use x="524.167" xlink:href="#m1f0407bf03" y="532.764"/><use x="525.845" xlink:href="#m1f0407bf03" y="546.274"/><use x="527.523" xlink:href="#m1f0407bf03" y="492.234"/><use x="529.201" xlink:href="#m1f0407bf03" y="546.274"/><use x="530.879" xlink:href="#m1f0407bf03" y="546.274"/><use x="532.557" xlink:href="#m1f0407bf03" y="546.274"/><use x="534.235" xlink:href="#m1f0407bf03" y="546.274"/><use x="535.913" xlink:href="#m1f0407bf03" y="546.274"/><use x="537.591" xlink:href="#m1f0407bf03" y="505.744"/><use x="539.269" xlink:href="#m1f0407bf03" y="546.274"/><use x="540.947" xlink:href="#m1f0407bf03" y="546.274"/><use x="542.625" xlink:href="#m1f0407bf03" y="546.274"/><use x="544.303" xlink:href="#m1f0407bf03" y="546.274"/><use x="545.981" xlink:href="#m1f0407bf03" y="546.274"/><use x="547.659" xlink:href="#m1f0407bf03" y="532.764"/><use x="549.337" xlink:href="#m1f0407bf03" y="546.274"/><use x="551.015" xlink:href="#m1f0407bf03" y="519.254"/><use x="552.693" xlink:href="#m1f0407bf03" y="532.764"/><use x="554.371" xlink:href="#m1f0407bf03" y="546.274"/><use x="556.049" xlink:href="#m1f0407bf03" y="546.274"/><use x="557.727" xlink:href="#m1f0407bf03" y="546.274"/><use x="559.405" xlink:href="#m1f0407bf03" y="505.744"/><use x="561.083" xlink:href="#m1f0407bf03" y="546.274"/><use x="562.761" xlink:href="#m1f0407bf03" y="532.764"/><use x="564.439" xlink:href="#m1f0407bf03" y="546.274"/><use x="566.117" xlink:href="#m1f0407bf03" y="546.274"/><use x="567.795" xlink:href="#m1f0407bf03" y="546.274"/><use x="569.473" xlink:href="#m1f0407bf03" y="546.274"/><use x="571.151" xlink:href="#m1f0407bf03" y="546.274"/><use x="572.829" xlink:href="#m1f0407bf03" y="546.274"/><use x="574.507" xlink:href="#m1f0407bf03" y="546.274"/><use x="576.185" xlink:href="#m1f0407bf03" y="546.274"/><use x="577.863" xlink:href="#m1f0407bf03" y="546.274"/><use x="579.541" xlink:href="#m1f0407bf03" y="546.274"/><use x="581.219" xlink:href="#m1f0407bf03" y="546.274"/><use x="582.897" xlink:href="#m1f0407bf03" y="519.254"/><use x="584.575" xlink:href="#m1f0407bf03" y="532.764"/><use x="586.253" xlink:href="#m1f0407bf03" y="478.723"/><use x="587.931" xlink:href="#m1f0407bf03" y="424.683"/><use x="589.609" xlink:href="#m1f0407bf03" y="519.254"/><use x="591.287" xlink:href="#m1f0407bf03" y="546.274"/><use x="592.965" xlink:href="#m1f0407bf03" y="546.274"/><use x="594.643" xlink:href="#m1f0407bf03" y="519.254"/><use x="596.321" xlink:href="#m1f0407bf03" y="465.213"/><use x="597.999" xlink:href="#m1f0407bf03" y="532.764"/><use x="599.677" xlink:href="#m1f0407bf03" y="478.723"/><use x="601.355" xlink:href="#m1f0407bf03" y="478.723"/><use x="603.033" xlink:href="#m1f0407bf03" y="505.744"/><use x="604.711" xlink:href="#m1f0407bf03" y="505.744"/><use x="606.389" xlink:href="#m1f0407bf03" y="519.254"/><use x="608.067" xlink:href="#m1f0407bf03" y="546.274"/><use x="609.745" xlink:href="#m1f0407bf03" y="492.234"/><use x="611.423" xlink:href="#m1f0407bf03" y="546.274"/><use x="613.101" xlink:href="#m1f0407bf03" y="546.274"/><use x="614.779" xlink:href="#m1f0407bf03" y="546.274"/><use x="616.457" xlink:href="#m1f0407bf03" y="546.274"/><use x="618.135" xlink:href="#m1f0407bf03" y="465.213"/><use x="619.813" xlink:href="#m1f0407bf03" y="492.234"/><use x="621.491" xlink:href="#m1f0407bf03" y="478.723"/><use x="623.169" xlink:href="#m1f0407bf03" y="478.723"/><use x="624.847" xlink:href="#m1f0407bf03" y="478.723"/><use x="626.525" xlink:href="#m1f0407bf03" y="546.274"/><use x="628.203" xlink:href="#m1f0407bf03" y="546.274"/><use x="629.881" xlink:href="#m1f0407bf03" y="384.153"/><use x="631.559" xlink:href="#m1f0407bf03" y="532.764"/><use x="633.237" xlink:href="#m1f0407bf03" y="451.703"/><use x="634.915" xlink:href="#m1f0407bf03" y="505.744"/><use x="636.593" xlink:href="#m1f0407bf03" y="478.723"/><use x="638.271" xlink:href="#m1f0407bf03" y="546.274"/><use x="639.949" xlink:href="#m1f0407bf03" y="546.274"/><use x="641.627" xlink:href="#m1f0407bf03" y="289.582"/><use x="643.305" xlink:href="#m1f0407bf03" y="492.234"/><use x="644.983" xlink:href="#m1f0407bf03" y="546.274"/><use x="646.661" xlink:href="#m1f0407bf03" y="316.602"/><use x="648.339" xlink:href="#m1f0407bf03" y="451.703"/><use x="650.017" xlink:href="#m1f0407bf03" y="546.274"/><use x="651.695" xlink:href="#m1f0407bf03" y="546.274"/><use x="653.373" xlink:href="#m1f0407bf03" y="330.112"/><use x="655.051" xlink:href="#m1f0407bf03" y="384.153"/><use x="656.729" xlink:href="#m1f0407bf03" y="384.153"/><use x="658.407" xlink:href="#m1f0407bf03" y="438.193"/><use x="660.085" xlink:href="#m1f0407bf03" y="357.132"/><use x="661.763" xlink:href="#m1f0407bf03" y="478.723"/><use x="663.441" xlink:href="#m1f0407bf03" y="546.274"/><use x="665.119" xlink:href="#m1f0407bf03" y="357.132"/><use x="666.797" xlink:href="#m1f0407bf03" y="438.193"/><use x="668.475" xlink:href="#m1f0407bf03" y="465.213"/><use x="670.153" xlink:href="#m1f0407bf03" y="546.274"/><use x="671.831" xlink:href="#m1f0407bf03" y="546.274"/><use x="673.509" xlink:href="#m1f0407bf03" y="276.072"/><use x="675.187" xlink:href="#m1f0407bf03" y="546.274"/><use x="676.865" xlink:href="#m1f0407bf03" y="357.132"/><use x="678.543" xlink:href="#m1f0407bf03" y="451.703"/><use x="680.221" xlink:href="#m1f0407bf03" y="397.663"/><use x="681.899" xlink:href="#m1f0407bf03" y="330.112"/><use x="683.577" xlink:href="#m1f0407bf03" y="222.031"/><use x="685.255" xlink:href="#m1f0407bf03" y="397.663"/><use x="686.933" xlink:href="#m1f0407bf03" y="546.274"/><use x="688.611" xlink:href="#m1f0407bf03" y="397.663"/><use x="690.289" xlink:href="#m1f0407bf03" y="384.153"/><use x="691.967" xlink:href="#m1f0407bf03" y="478.723"/><use x="693.645" xlink:href="#m1f0407bf03" y="303.092"/><use x="695.323" xlink:href="#m1f0407bf03" y="424.683"/><use x="697.001" xlink:href="#m1f0407bf03" y="546.274"/><use x="698.679" xlink:href="#m1f0407bf03" y="546.274"/><use x="700.357" xlink:href="#m1f0407bf03" y="357.132"/><use x="702.035" xlink:href="#m1f0407bf03" y="424.683"/><use x="703.713" xlink:href="#m1f0407bf03" y="451.703"/><use x="705.391" xlink:href="#m1f0407bf03" y="546.274"/><use x="707.069" xlink:href="#m1f0407bf03" y="316.602"/><use x="708.747" xlink:href="#m1f0407bf03" y="546.274"/><use x="710.425" xlink:href="#m1f0407bf03" y="546.274"/><use x="712.103" xlink:href="#m1f0407bf03" y="181.501"/><use x="713.781" xlink:href="#m1f0407bf03" y="451.703"/><use x="715.459" xlink:href="#m1f0407bf03" y="181.501"/><use x="717.137" xlink:href="#m1f0407bf03" y="478.723"/><use x="718.815" xlink:href="#m1f0407bf03" y="546.274"/><use x="720.493" xlink:href="#m1f0407bf03" y="546.274"/><use x="722.171" xlink:href="#m1f0407bf03" y="546.274"/><use x="723.849" xlink:href="#m1f0407bf03" y="140.97"/><use x="725.527" xlink:href="#m1f0407bf03" y="478.723"/><use x="727.205" xlink:href="#m1f0407bf03" y="289.582"/><use x="728.883" xlink:href="#m1f0407bf03" y="397.663"/><use x="730.561" xlink:href="#m1f0407bf03" y="546.274"/><use x="732.239" xlink:href="#m1f0407bf03" y="546.274"/><use x="733.917" xlink:href="#m1f0407bf03" y="546.274"/><use x="735.595" xlink:href="#m1f0407bf03" y="100.44"/><use x="737.273" xlink:href="#m1f0407bf03" y="303.092"/><use x="738.951" xlink:href="#m1f0407bf03" y="357.132"/><use x="740.629" xlink:href="#m1f0407bf03" y="343.622"/><use x="742.307" xlink:href="#m1f0407bf03" y="384.153"/><use x="743.985" xlink:href="#m1f0407bf03" y="411.173"/><use x="745.663" xlink:href="#m1f0407bf03" y="546.274"/><use x="747.341" xlink:href="#m1f0407bf03" y="249.051"/><use x="749.019" xlink:href="#m1f0407bf03" y="397.663"/><use x="750.697" xlink:href="#m1f0407bf03" y="343.622"/><use x="752.375" xlink:href="#m1f0407bf03" y="411.173"/><use x="754.053" xlink:href="#m1f0407bf03" y="411.173"/><use x="755.731" xlink:href="#m1f0407bf03" y="546.274"/><use x="757.409" xlink:href="#m1f0407bf03" y="546.274"/><use x="759.087" xlink:href="#m1f0407bf03" y="546.274"/><use x="760.765" xlink:href="#m1f0407bf03" y="262.561"/><use x="762.443" xlink:href="#m1f0407bf03" y="411.173"/><use x="764.121" xlink:href="#m1f0407bf03" y="492.234"/><use x="765.799" xlink:href="#m1f0407bf03" y="505.744"/><use x="767.477" xlink:href="#m1f0407bf03" y="546.274"/><use x="769.155" xlink:href="#m1f0407bf03" y="546.274"/><use x="770.833" xlink:href="#m1f0407bf03" y="127.46"/><use x="772.511" xlink:href="#m1f0407bf03" y="492.234"/><use x="774.189" xlink:href="#m1f0407bf03" y="465.213"/><use x="775.867" xlink:href="#m1f0407bf03" y="465.213"/><use x="777.545" xlink:href="#m1f0407bf03" y="330.112"/><use x="779.223" xlink:href="#m1f0407bf03" y="478.723"/><use x="780.901" xlink:href="#m1f0407bf03" y="546.274"/><use x="782.579" xlink:href="#m1f0407bf03" y="546.274"/><use x="784.257" xlink:href="#m1f0407bf03" y="546.274"/><use x="785.935" xlink:href="#m1f0407bf03" y="195.011"/><use x="787.613" xlink:href="#m1f0407bf03" y="438.193"/><use x="789.291" xlink:href="#m1f0407bf03" y="451.703"/><use x="790.969" xlink:href="#m1f0407bf03" y="546.274"/><use x="792.647" xlink:href="#m1f0407bf03" y="546.274"/><use x="794.325" xlink:href="#m1f0407bf03" y="330.112"/><use x="796.003" xlink:href="#m1f0407bf03" y="451.703"/><use x="797.681" xlink:href="#m1f0407bf03" y="478.723"/><use x="799.359" xlink:href="#m1f0407bf03" y="465.213"/><use x="801.037" xlink:href="#m1f0407bf03" y="478.723"/><use x="802.715" xlink:href="#m1f0407bf03" y="451.703"/><use x="804.393" xlink:href="#m1f0407bf03" y="546.274"/><use x="806.071" xlink:href="#m1f0407bf03" y="546.274"/><use x="807.749" xlink:href="#m1f0407bf03" y="357.132"/><use x="809.427" xlink:href="#m1f0407bf03" y="478.723"/></g></g><path d="M117 576.72V77.76" fill="none" stroke="#d3d3d3" stroke-linecap="square" stroke-width="1.25" id="patch_3"/><path d="M117 576.72h725.4" fill="none" stroke="#d3d3d3" stroke-linecap="square" stroke-width="1.25" id="patch_4"/><g id="matplotlib.axis_1"><g id="xtick_1"><g transform="matrix(.16 0 0 -.16 201.999 598.378)" fill="#696969" id="text_1"><defs><path d="M9.813 72.906h14.703l18.593-49.61 18.703 49.61h14.704V0H66.89v64.016l-18.797-50h-9.907l-18.796 50V0H9.813z" id="DejaVuSans-77"/><path d="M34.281 27.484q-10.89 0-15.093-2.484-4.204-2.484-4.204-8.5 0-4.781 3.157-7.594 3.156-2.797 8.562-2.797 7.485 0 12 5.297 4.516 5.297 4.516 14.078v2zm17.922 3.72V0H43.22v8.297Q40.14 3.328 35.547.953q-4.594-2.375-11.234-2.375-8.391 0-13.36 4.719Q6 8.016 6 15.922q0 9.219 6.172 13.906 6.187 4.688 18.437 4.688h12.61v.89q0 6.203-4.078 9.594-4.078 3.39-11.453 3.39-4.688 0-9.141-1.124-4.438-1.125-8.531-3.375v8.312q4.921 1.906 9.562 2.844 4.64.953 9.031.953 11.875 0 17.735-6.156 5.86-6.14 5.86-18.64z" id="DejaVuSans-97"/><path d="M41.11 46.297q-1.516.875-3.297 1.281Q36.03 48 33.89 48q-7.625 0-11.703-4.953-4.079-4.953-4.079-14.234V0H9.08v54.688h9.03v-8.5q2.844 4.984 7.375 7.39Q30.031 56 36.531 56q.922 0 2.047-.125 1.125-.11 2.484-.36z" id="DejaVuSans-114"/></defs><use xlink:href="#DejaVuSans-77"/><use x="86.279" xlink:href="#DejaVuSans-97"/><use x="147.559" xlink:href="#DejaVuSans-114"/></g></g><g id="xtick_2"><g transform="matrix(.16 0 0 -.16 302.91 598.378)" fill="#696969" id="text_2"><defs><path d="M32.172-5.078q-3.797-9.766-7.422-12.735-3.61-2.984-9.656-2.984H7.906v7.516h5.282q3.703 0 5.75 1.765Q21-9.766 23.483-3.219l1.61 4.094-22.11 53.813H12.5l17.094-42.766 17.093 42.766h9.516z" id="DejaVuSans-121"/></defs><use xlink:href="#DejaVuSans-77"/><use x="86.279" xlink:href="#DejaVuSans-97"/><use x="147.559" xlink:href="#DejaVuSans-121"/></g></g><g id="xtick_3"><g transform="matrix(.16 0 0 -.16 412.156 598.378)" fill="#696969" id="text_3"><defs><path d="M9.813 72.906h9.859V5.078q0-13.187-5-19.14-5-5.954-16.094-5.954h-3.75v8.297h3.078q6.531 0 9.219 3.672Q9.813-4.39 9.813 5.078z" id="DejaVuSans-74"/><path d="M8.5 21.578v33.11h8.984V21.922q0-7.766 3.016-11.656 3.031-3.875 9.094-3.875 7.265 0 11.484 4.64 4.234 4.64 4.234 12.656v31h8.985V0h-8.984v8.406Q42.047 3.422 37.718 1q-4.313-2.422-10.032-2.422-9.421 0-14.312 5.86Q8.5 10.296 8.5 21.578zM31.11 56z" id="DejaVuSans-117"/><path d="M9.422 75.984h8.984V0H9.422z" id="DejaVuSans-108"/></defs><use xlink:href="#DejaVuSans-74"/><use x="29.492" xlink:href="#DejaVuSans-117"/><use x="92.871" xlink:href="#DejaVuSans-108"/></g></g><g id="xtick_4"><g transform="matrix(.16 0 0 -.16 510.765 598.378)" fill="#696969" id="text_4"><defs><path d="M53.516 70.516V60.89q-5.61 2.687-10.594 4-4.984 1.328-9.625 1.328-8.047 0-12.422-3.125t-4.375-8.89q0-4.845 2.906-7.313 2.907-2.453 11.016-3.97l5.953-1.218q11.031-2.11 16.281-7.406 5.25-5.297 5.25-14.172 0-10.61-7.11-16.078-7.093-5.469-20.812-5.469-5.172 0-11.015 1.172Q13.14.922 6.89 3.219v10.156q6-3.36 11.765-5.078 5.766-1.703 11.328-1.703 8.438 0 13.032 3.312 4.593 3.328 4.593 9.485 0 5.359-3.297 8.39-3.296 3.032-10.812 4.547L27.484 33.5q-11.03 2.188-15.968 6.875-4.922 4.688-4.922 13.047 0 9.672 6.812 15.234 6.813 5.563 18.766 5.563 5.14 0 10.453-.938 5.328-.922 10.89-2.765z" id="DejaVuSans-83"/><path d="M56.203 29.594v-4.39H14.891q.593-9.282 5.593-14.142 5-4.859 13.938-4.859 5.172 0 10.031 1.266 4.86 1.265 9.656 3.812v-8.5Q49.266.734 44.187-.344 39.11-1.422 33.892-1.422q-13.094 0-20.735 7.61-7.64 7.625-7.64 20.625 0 13.421 7.25 21.296Q20.016 56 32.328 56q11.031 0 17.453-7.11 6.422-7.093 6.422-19.296zm-8.984 2.64q-.094 7.36-4.125 11.75-4.032 4.407-10.672 4.407-7.516 0-12.031-4.25-4.516-4.25-5.203-11.97z" id="DejaVuSans-101"/><path d="M18.11 8.203v-29H9.077v75.484h9.031v-8.296q2.844 4.875 7.157 7.234Q29.594 56 35.594 56q9.968 0 16.187-7.906 6.235-7.907 6.235-20.797T51.78 6.484q-6.218-7.906-16.187-7.906-6 0-10.328 2.375-4.313 2.375-7.157 7.25zm30.578 19.094q0 9.906-4.079 15.547-4.078 5.64-11.203 5.64-7.14 0-11.218-5.64-4.079-5.64-4.079-15.547 0-9.906 4.078-15.547 4.079-5.64 11.22-5.64 7.124 0 11.202 5.64t4.078 15.547z" id="DejaVuSans-112"/></defs><use xlink:href="#DejaVuSans-83"/><use x="63.477" xlink:href="#DejaVuSans-101"/><use x="125" xlink:href="#DejaVuSans-112"/></g></g><g id="xtick_5"><g transform="matrix(.16 0 0 -.16 612.588 598.378)" fill="#696969" id="text_5"><defs><path d="M9.813 72.906h13.28l32.329-60.984v60.984h9.562V0h-13.28L19.39 60.984V0H9.813z" id="DejaVuSans-78"/><path d="M30.61 48.39q-7.22 0-11.422-5.64-4.204-5.64-4.204-15.453 0-9.813 4.172-15.453 4.188-5.64 11.453-5.64 7.188 0 11.375 5.655 4.203 5.672 4.203 15.438 0 9.719-4.203 15.406-4.187 5.688-11.375 5.688zm0 7.61q11.718 0 18.406-7.625 6.703-7.61 6.703-21.078 0-13.422-6.703-21.078-6.688-7.64-18.407-7.64-11.765 0-18.437 7.64-6.656 7.656-6.656 21.078 0 13.469 6.656 21.078Q18.844 56 30.609 56z" id="DejaVuSans-111"/><path d="M2.984 54.688H12.5L29.594 8.797l17.093 45.89h9.516L35.687 0H23.485z" id="DejaVuSans-118"/></defs><use xlink:href="#DejaVuSans-78"/><use x="74.805" xlink:href="#DejaVuSans-111"/><use x="135.986" xlink:href="#DejaVuSans-118"/></g></g><g id="xtick_6"><g transform="matrix(.16 0 0 -.16 718.229 598.378)" fill="#696969" id="text_6"><defs><path d="M54.89 33.016V0h-8.984v32.719q0 7.765-3.031 11.61-3.031 3.858-9.078 3.858-7.281 0-11.484-4.64-4.204-4.625-4.204-12.64V0H9.08v54.688h9.03v-8.5q3.235 4.937 7.594 7.374Q30.078 56 35.797 56q9.422 0 14.25-5.828 4.844-5.828 4.844-17.156z" id="DejaVuSans-110"/></defs><use xlink:href="#DejaVuSans-74"/><use x="29.492" xlink:href="#DejaVuSans-97"/><use x="90.771" xlink:href="#DejaVuSans-110"/></g></g><g id="xtick_7"><g transform="matrix(.16 0 0 -.16 814.47 598.378)" fill="#696969" id="text_7"><use xlink:href="#DejaVuSans-77"/><use x="86.279" xlink:href="#DejaVuSans-97"/><use x="147.559" xlink:href="#DejaVuSans-114"/></g></g></g><g id="matplotlib.axis_2"><g id="ytick_1"><g transform="matrix(.16 0 0 -.16 97.32 552.353)" fill="#696969" id="text_8"><defs><path d="M31.781 66.406q-7.61 0-11.453-7.5Q16.5 51.422 16.5 36.375q0-14.984 3.828-22.484 3.844-7.5 11.453-7.5 7.672 0 11.5 7.5 3.844 7.5 3.844 22.484 0 15.047-3.844 22.531-3.828 7.5-11.5 7.5zm0 7.813q12.266 0 18.735-9.703 6.468-9.688 6.468-28.141 0-18.406-6.468-28.11-6.47-9.687-18.735-9.687-12.25 0-18.718 9.688-6.47 9.703-6.47 28.109 0 18.453 6.47 28.14Q19.53 74.22 31.78 74.22z" id="DejaVuSans-48"/></defs><use xlink:href="#DejaVuSans-48"/></g></g><g id="ytick_2"><g transform="matrix(.16 0 0 -.16 97.32 484.802)" fill="#696969" id="text_9"><defs><path d="M10.797 72.906h38.719v-8.312H19.828v-17.86q2.14.735 4.281 1.094 2.157.36 4.313.36 12.203 0 19.328-6.688 7.14-6.688 7.14-18.11 0-11.765-7.328-18.296-7.328-6.516-20.656-6.516-4.593 0-9.36.781-4.75.782-9.827 2.344v9.922q4.39-2.39 9.078-3.563 4.687-1.171 9.906-1.171 8.453 0 13.375 4.437 4.938 4.438 4.938 12.063 0 7.609-4.938 12.047-4.922 4.453-13.375 4.453-3.953 0-7.89-.875-3.922-.875-8.016-2.735z" id="DejaVuSans-53"/></defs><use xlink:href="#DejaVuSans-53"/></g></g><g id="ytick_3"><g transform="matrix(.16 0 0 -.16 87.14 417.252)" fill="#696969" id="text_10"><defs><path d="M12.406 8.297h16.11v55.625l-17.532-3.516v8.985l17.438 3.515h9.86V8.296H54.39V0H12.406z" id="DejaVuSans-49"/></defs><use xlink:href="#DejaVuSans-49"/><use x="63.623" xlink:href="#DejaVuSans-48"/></g></g><g id="ytick_4"><g transform="matrix(.16 0 0 -.16 87.14 349.701)" fill="#696969" id="text_11"><use xlink:href="#DejaVuSans-49"/><use x="63.623" xlink:href="#DejaVuSans-53"/></g></g><g id="ytick_5"><g transform="matrix(.16 0 0 -.16 87.14 282.15)" fill="#696969" id="text_12"><defs><path d="M19.188 8.297h34.421V0H7.33v8.297q5.609 5.812 15.296 15.594 9.703 9.797 12.188 12.64 4.734 5.313 6.609 9 1.89 3.688 1.89 7.25 0 5.813-4.078 9.469-4.078 3.672-10.625 3.672-4.64 0-9.797-1.61-5.14-1.609-11-4.89v9.969Q13.767 71.78 18.938 73q5.188 1.219 9.485 1.219 11.328 0 18.062-5.672 6.735-5.656 6.735-15.125 0-4.5-1.688-8.531-1.672-4.016-6.125-9.485-1.218-1.422-7.765-8.187-6.532-6.766-18.453-18.922z" id="DejaVuSans-50"/></defs><use xlink:href="#DejaVuSans-50"/><use x="63.623" xlink:href="#DejaVuSans-48"/></g></g><g id="ytick_6"><g transform="matrix(.16 0 0 -.16 87.14 214.6)" fill="#696969" id="text_13"><use xlink:href="#DejaVuSans-50"/><use x="63.623" xlink:href="#DejaVuSans-53"/></g></g><g id="ytick_7"><g transform="matrix(.16 0 0 -.16 87.14 147.05)" fill="#696969" id="text_14"><defs><path d="M40.578 39.313Q47.656 37.797 51.625 33q3.984-4.781 3.984-11.813 0-10.78-7.422-16.703-7.421-5.906-21.093-5.906-4.578 0-9.438.906-4.86.907-10.031 2.72v9.515q4.094-2.39 8.969-3.61 4.89-1.218 10.218-1.218 9.266 0 14.125 3.656 4.86 3.656 4.86 10.64 0 6.454-4.516 10.079-4.515 3.64-12.562 3.64h-8.5v8.11h8.89q7.266 0 11.125 2.906 3.86 2.906 3.86 8.375 0 5.61-3.985 8.61-3.968 3.015-11.39 3.015-4.063 0-8.703-.89-4.641-.876-10.203-2.72v8.782q5.624 1.562 10.53 2.344 4.907.78 9.25.78 11.235 0 17.766-5.109 6.547-5.093 6.547-13.78 0-6.063-3.468-10.235-3.47-4.172-9.86-5.782z" id="DejaVuSans-51"/></defs><use xlink:href="#DejaVuSans-51"/><use x="63.623" xlink:href="#DejaVuSans-48"/></g></g><g transform="matrix(0 -.2 -.2 0 78.98 379.813)" fill="#696969" id="text_15"><defs><path d="M51.125 44H36.922l-4.11-16.313h14.313zm-7.328 27.781l-5.078-20.265h14.265L58.11 71.78h7.813L60.89 51.516h15.234V44h-17.14l-4-16.313h15.53V20.22H53.079L48 0h-7.813l5.032 20.219H30.906L25.875 0h-7.86l5.079 20.219H7.719v7.468h17.187L29 44H13.281v7.516h17.625l4.985 20.265z" id="DejaVuSans-35"/><path d="M37.11 75.984V68.5h-8.594q-4.828 0-6.72-1.953-1.874-1.953-1.874-7.031v-4.828h14.797v-6.985H19.922V0H10.89v47.703H2.297v6.984h8.594V58.5q0 9.125 4.25 13.297 4.25 4.187 13.468 4.187z" id="DejaVuSans-102"/><path d="M48.781 52.594v-8.407q-3.812 2.11-7.64 3.157-3.828 1.047-7.735 1.047-8.75 0-13.593-5.547-4.829-5.532-4.829-15.547 0-10.016 4.829-15.563 4.843-5.53 13.593-5.53 3.907 0 7.735 1.046 3.828 1.047 7.64 3.156V2.094Q45.016.344 40.984-.531q-4.015-.89-8.562-.89-12.36 0-19.64 7.765-7.266 7.765-7.266 20.953 0 13.375 7.343 21.031Q20.22 56 33.016 56q4.14 0 8.093-.86 3.953-.843 7.672-2.546z" id="DejaVuSans-99"/><path d="M44.281 53.078v-8.5q-3.797 1.953-7.906 2.922-4.094.984-8.5.984-6.688 0-10.031-2.047-3.344-2.046-3.344-6.156 0-3.125 2.39-4.906 2.391-1.781 9.626-3.39l3.078-.688q9.562-2.047 13.593-5.781 4.032-3.735 4.032-10.422 0-7.625-6.032-12.078-6.03-4.438-16.578-4.438-4.39 0-9.156.86Q10.688.296 5.422 2v9.281q4.984-2.594 9.812-3.89 4.829-1.282 9.579-1.282 6.343 0 9.75 2.172 3.421 2.172 3.421 6.125 0 3.656-2.468 5.61-2.453 1.953-10.813 3.765l-3.125.735q-8.344 1.75-12.062 5.39-3.704 3.64-3.704 9.985 0 7.718 5.47 11.906Q16.75 56 26.811 56q4.97 0 9.36-.734 4.406-.72 8.11-2.188z" id="DejaVuSans-115"/></defs><use xlink:href="#DejaVuSans-35"/><use x="83.789" xlink:href="#DejaVuSans-32"/><use x="115.576" xlink:href="#DejaVuSans-111"/><use x="176.758" xlink:href="#DejaVuSans-102"/><use x="211.963" xlink:href="#DejaVuSans-32"/><use x="243.75" xlink:href="#DejaVuSans-99"/><use x="298.73" xlink:href="#DejaVuSans-97"/><use x="360.01" xlink:href="#DejaVuSans-115"/><use x="412.109" xlink:href="#DejaVuSans-101"/><use x="473.633" xlink:href="#DejaVuSans-115"/></g></g><g transform="matrix(.24 0 0 -.24 308.75 71.76)" fill="#696969" id="text_16"><defs><path d="M44.39 34.188q3.172-1.079 6.172-4.594 3-3.516 6.032-9.672L66.609 0H56l-9.313 18.703q-3.624 7.328-7.015 9.719-3.39 2.39-9.25 2.39h-10.75V0h-9.86v72.906h22.266q12.5 0 18.656-5.234 6.157-5.219 6.157-15.766 0-6.89-3.203-11.437-3.204-4.532-9.297-6.282zM19.673 64.797V38.922h12.406q7.125 0 10.766 3.297 3.64 3.297 3.64 9.687 0 6.39-3.64 9.64-3.64 3.25-10.766 3.25z" id="DejaVuSans-82"/><path d="M18.313 70.219V54.688h18.5v-6.985h-18.5V18.016q0-6.688 1.828-8.594 1.828-1.906 7.453-1.906h9.218V0h-9.218q-10.407 0-14.36 3.875-3.953 3.89-3.953 14.14v29.688H2.687v6.984h6.594V70.22z" id="DejaVuSans-116"/><path d="M54.89 33.016V0h-8.984v32.719q0 7.765-3.031 11.61-3.031 3.858-9.078 3.858-7.281 0-11.484-4.64-4.204-4.625-4.204-12.64V0H9.08v75.984h9.03V46.188q3.235 4.937 7.594 7.374Q30.078 56 35.797 56q9.422 0 14.25-5.828 4.844-5.828 4.844-17.156z" id="DejaVuSans-104"/><path d="M45.406 46.39v29.594h8.985V0h-8.985v8.203Q42.578 3.328 38.25.953q-4.313-2.375-10.375-2.375-9.906 0-16.14 7.906-6.22 7.922-6.22 20.813 0 12.89 6.22 20.797Q17.968 56 27.874 56q6.063 0 10.375-2.375 4.328-2.36 7.156-7.234zm-30.61-19.093q0-9.906 4.079-15.547 4.078-5.64 11.203-5.64 7.125 0 11.219 5.64 4.11 5.64 4.11 15.547 0 9.906-4.11 15.547-4.094 5.64-11.219 5.64-7.125 0-11.203-5.64-4.078-5.64-4.078-15.547z" id="DejaVuSans-100"/><path d="M4.203 54.688h8.985l11.234-42.672 11.172 42.672h10.593l11.235-42.672 11.187 42.672h8.985L63.28 0H52.688L40.922 44.828 29.109 0H18.5z" id="DejaVuSans-119"/><path d="M64.406 67.281v-10.39q-4.984 4.64-10.625 6.922-5.64 2.296-11.984 2.296-12.5 0-19.14-7.64-6.641-7.64-6.641-22.094 0-14.406 6.64-22.047 6.64-7.64 19.14-7.64 6.345 0 11.985 2.296 5.64 2.297 10.625 6.938V5.609Q59.234 2.094 53.437.33q-5.78-1.75-12.218-1.75-16.563 0-26.094 10.124-9.516 10.14-9.516 27.672 0 17.578 9.516 27.703 9.531 10.14 26.094 10.14 6.531 0 12.312-1.734 5.797-1.734 10.875-5.203z" id="DejaVuSans-67"/><path d="M9.422 54.688h8.984V0H9.422zm0 21.296h8.984v-11.39H9.422z" id="DejaVuSans-105"/></defs><use xlink:href="#DejaVuSans-82"/><use x="64.982" xlink:href="#DejaVuSans-117"/><use x="128.361" xlink:href="#DejaVuSans-116"/><use x="167.57" xlink:href="#DejaVuSans-104"/><use x="230.949" xlink:href="#DejaVuSans-101"/><use x="292.473" xlink:href="#DejaVuSans-114"/><use x="333.586" xlink:href="#DejaVuSans-102"/><use x="368.791" xlink:href="#DejaVuSans-111"/><use x="429.973" xlink:href="#DejaVuSans-114"/><use x="469.336" xlink:href="#DejaVuSans-100"/><use x="532.813" xlink:href="#DejaVuSans-32"/><use x="564.6" xlink:href="#DejaVuSans-78"/><use x="639.404" xlink:href="#DejaVuSans-101"/><use x="700.928" xlink:href="#DejaVuSans-119"/><use x="782.715" xlink:href="#DejaVuSans-32"/><use x="814.502" xlink:href="#DejaVuSans-67"/><use x="884.326" xlink:href="#DejaVuSans-111"/><use x="945.508" xlink:href="#DejaVuSans-118"/><use x="1004.688" xlink:href="#DejaVuSans-105"/><use x="1032.471" xlink:href="#DejaVuSans-100"/><use x="1095.947" xlink:href="#DejaVuSans-32"/><use x="1127.734" xlink:href="#DejaVuSans-67"/><use x="1197.559" xlink:href="#DejaVuSans-97"/><use x="1258.838" xlink:href="#DejaVuSans-115"/><use x="1310.938" xlink:href="#DejaVuSans-101"/><use x="1372.461" xlink:href="#DejaVuSans-115"/></g><g id="legend_1"><path d="M128.2 161.015h153.765q3.2 0 3.2-3.2V88.96q0-3.2-3.2-3.2H128.2q-3.2 0-3.2 3.2v68.855q0 3.2 3.2 3.2z" fill="none" opacity=".8" stroke="#ccc" id="patch_5"/><path d="M131.4 98.718h32" fill="none" stroke="#000" stroke-linecap="round" stroke-width="1.5" id="line2d_3"/><g transform="matrix(.16 0 0 -.16 176.2 104.317)" fill="#696969" id="text_17"><defs><path d="M8.203 72.906h46.875v-4.203L28.61 0H18.312L43.22 64.594H8.203z" id="DejaVuSans-55"/><path d="M45.406 27.984q0 9.766-4.031 15.125-4.016 5.375-11.297 5.375-7.219 0-11.25-5.375-4.031-5.359-4.031-15.125 0-9.718 4.031-15.093t11.25-5.375q7.281 0 11.297 5.375 4.031 5.375 4.031 15.093zm8.985-21.203q0-13.953-6.203-20.765Q42-20.797 29.203-20.797q-4.734 0-8.937.703-4.203.703-8.157 2.172v8.735q3.954-2.141 7.813-3.157 3.86-1.031 7.86-1.031 8.843 0 13.234 4.61 4.39 4.609 4.39 13.937v4.453q-2.781-4.844-7.125-7.234Q33.938 0 27.875 0 17.828 0 11.672 7.656q-6.156 7.672-6.156 20.328 0 12.688 6.156 20.344Q17.828 56 27.875 56q6.063 0 10.406-2.39 4.344-2.391 7.125-7.22v8.297h8.985z" id="DejaVuSans-103"/></defs><use xlink:href="#DejaVuSans-55"/><use x="63.623" xlink:href="#DejaVuSans-100"/><use x="127.1" xlink:href="#DejaVuSans-32"/><use x="158.887" xlink:href="#DejaVuSans-97"/><use x="220.166" xlink:href="#DejaVuSans-118"/><use x="279.346" xlink:href="#DejaVuSans-103"/><use x="342.822" xlink:href="#DejaVuSans-32"/><use x="374.609" xlink:href="#DejaVuSans-102"/><use x="409.814" xlink:href="#DejaVuSans-105"/><use x="437.598" xlink:href="#DejaVuSans-116"/><use x="476.807" xlink:href="#DejaVuSans-116"/><use x="516.016" xlink:href="#DejaVuSans-101"/><use x="577.539" xlink:href="#DejaVuSans-100"/></g><use x="147.4" xlink:href="#m1f0407bf03" y="122.203" fill-opacity="0" stroke="#4c72b0" id="line2d_6"/><g transform="matrix(.16 0 0 -.16 176.2 127.802)" fill="#696969" id="text_18"><defs><path d="M19.672 64.797V8.109h11.922q15.093 0 22.093 6.829 7 6.843 7 21.593 0 14.64-7 21.453-7 6.813-22.093 6.813zm-9.86 8.11h20.266q21.188 0 31.094-8.813 9.922-8.813 9.922-27.563 0-18.86-9.969-27.703Q51.172 0 30.078 0H9.813z" id="DejaVuSans-68"/></defs><use xlink:href="#DejaVuSans-68"/><use x="77.002" xlink:href="#DejaVuSans-97"/><use x="138.281" xlink:href="#DejaVuSans-105"/><use x="166.064" xlink:href="#DejaVuSans-108"/><use x="193.848" xlink:href="#DejaVuSans-121"/><use x="253.027" xlink:href="#DejaVuSans-32"/><use x="284.814" xlink:href="#DejaVuSans-67"/><use x="354.639" xlink:href="#DejaVuSans-97"/><use x="415.918" xlink:href="#DejaVuSans-115"/><use x="468.018" xlink:href="#DejaVuSans-101"/><use x="529.541" xlink:href="#DejaVuSans-115"/></g><path d="M131.4 151.287h32v-11.2h-32z" fill="#089fff" opacity=".2" stroke="#fff" id="patch_6"/><g transform="matrix(.16 0 0 -.16 176.2 151.287)" fill="#696969" id="text_19"><defs><path d="M8.688 72.906h9.921V28.61q0-11.718 4.235-16.875 4.25-5.14 13.781-5.14 9.469 0 13.719 5.14 4.25 5.157 4.25 16.875v44.297H64.5V27.391q0-14.25-7.063-21.532-7.046-7.28-20.812-7.28-13.828 0-20.89 7.28-7.047 7.282-7.047 21.532z" id="DejaVuSans-85"/></defs><use xlink:href="#DejaVuSans-85"/><use x="73.193" xlink:href="#DejaVuSans-110"/><use x="136.572" xlink:href="#DejaVuSans-99"/><use x="191.553" xlink:href="#DejaVuSans-101"/><use x="253.076" xlink:href="#DejaVuSans-114"/><use x="294.189" xlink:href="#DejaVuSans-116"/><use x="333.398" xlink:href="#DejaVuSans-97"/><use x="394.678" xlink:href="#DejaVuSans-105"/><use x="422.461" xlink:href="#DejaVuSans-110"/><use x="485.84" xlink:href="#DejaVuSans-116"/><use x="525.049" xlink:href="#DejaVuSans-121"/></g></g></g></g><defs><clipPath id="pdb99724c19"><path d="M117 77.76h725.4v498.96H117z"/></clipPath></defs></svg>