<svg height="864" viewBox="0 0 936 648" width="1248" xmlns="http://www.w3.org/2000/svg" xmlns:xlink="http://www.w3.org/1999/xlink"><defs><style>*{stroke-linecap:butt;stroke-linejoin:round}</style></defs><g id="figure_1"><path d="M0 648h936V0H0z" style="fill:#fff" id="patch_1"/><g id="axes_1"><path d="M117 576.72h725.4V77.76H117z" style="fill:none" id="patch_2"/><path clip-path="url(#p322234224e)" d="m149.973 554.04 31.15-.102 2.278-.136 1.52-.275 1.52-.43 2.278-1.01 2.28-1.558 1.52-1.113 2.278-2.125 1.52-1.604 1.52-1.089 1.519-1.076 1.52-.981 1.519-.56 2.279-.277 1.52-.032.76.195 1.519.11 1.52.226.759.027 1.52-.173 2.279.146 1.52.137 2.278-.126 1.52.21 1.52.28 2.279.726 2.279.387.76.098 2.279.6 1.52.083 2.278.233 1.52.084.76-.043 3.039.346 3.798.053.76.12.76-.143 8.357-.183 3.799-.914 1.52-.827 1.519-.931 4.558-3.614 1.52-1.56 3.038-2.096 2.28-1.852 5.318-3.72.76-.361.76-.508 2.279-.988.76-.293 1.519-.33 2.279.246.76.045.76.196 1.519.216 2.28 1.033 1.519.827 1.52.693.759.166 3.799 1.705 1.52.427 3.038 1.232 3.799 1.724 3.798 1.31 1.52.006.76.306 3.039.049.76.442 2.279.863.76-.029.76.16 1.519-.01.76.141.759-.198 2.28.138.759-.185.76-.864 3.039-.893 3.798-.444 1.52-.168.76-.173.76.037 2.279-.707.76-.325.76-.127 3.038-1.096 2.28-1.555.759-.144.76-.372.76-.088.76-.514.759-.325.76-.544 1.52-1.545.759-.433.76-.772 1.52-1.219 1.519-1.587 1.52-1.675 1.519-1.751 2.279-3.99 2.279-4.26 2.28-5.782 1.519-4.537.76-1.77 1.519-4.11 2.28-5.697.759-1.334.76-1.084.76-1.426 1.519-2.2.76 1.76.76-.706.76.221 1.519-.059.76-.655 2.279-2.658 1.519-1.882.76-.722 1.52-2.349.759-3.545.76-2.166 1.52-3.022.759-.964.76-.549.76-1.266 1.519-1.154.76.342.76-.232.76.088.759.524.76-.234.76.92.76 5.209.759-.271.76.932.76.344.759.062.76.46.76.194.76 3.015.759-2.834.76-.634.76-1.46 1.519-1.785.76-2.518.76-5.796.76-1.017.759-1.63.76-1.082.76-.84.76-.01.759-.247.76-2.686.76 2.593.76.92.759 3.21.76 1.394.76 2.044.759 2.606.76 3.167 1.52 4.717 1.519 4.324 3.039 8.426.76 1.633.76-.021 1.519 3.973 2.279 5.507.76 1.23 1.52 3.417 3.038 6.83.76 1.45.76 2.51 3.039 5.978 2.279 2.924 3.039 2.736.76.637.76.374.759-.042 1.52.303.76.131 2.278 1.177.76-1.017 3.04 1.789 1.519.755 1.519.076 2.28.568 1.519.233.76 1.154.76-.025.759-.63 1.52-.494.76-.323.759-.19.76-.393 1.52-.485.759-.485 2.28-.589.759-.634.76-.152.76.198.759-.33 1.52-.322 1.519-.135.76-.438.76-.227.76.102.759-.283.76.297.76-.132.76.183.759.028 1.52.72 1.519.93.76.417 2.279 2.059 2.28 1.307.759.34 3.039 2.226 1.52.96 1.519.639 5.318 3.573 1.52.842 2.279 1.505 1.52.555 2.278.985 1.52 1.057.76.27.76.687.759.153 1.52.64.76 1.538 3.038.89.76.08.76.346 1.52.246.759.019.76-.28.76.311.76.071.759.211.76-1.064 6.837.69 1.52-.125.76-.045.76-1.53.759-.225 1.52.137.76.326 1.519-.884.76-1.002.76-.59 1.519-.071.76-.575 1.519-1.431.76.84.76-.923 1.519-.422.76-1.583 1.519-1.874.76-.472.76-1.384.76-.401.759-.24 3.039-6.692.76-2.043 1.52-.903 1.519-4.79.76-1.525.76-1.783.759-2.473 1.52-1.24.76-2.483.759-1.603.76-2.048.76-1.172.76-1.877 1.519-1.19.76-3.577.759.174.76-1.516 2.279-2.938.76-.13.76-2.537.76.345.759-.446.76-1.422.76-.247.76-1.028.759.048.76-.607.76-.462.76-1.346.759-.462.76.236.76.387.76-.112.759 5.487.76-4.378.76-.385 2.279 1.396.76.075.759-.135.76.22.76 1.183 1.519 1.315.76-.062.76.13.76-3.805.759 4.964 2.28 3.356.759.648.76.154.76 2.618 3.038 4.666.76.695.76.41 1.52 1.938 1.519 1.276.76.785 1.519.739.76 2.062.76.051.76.637 1.519 1.58.76.309.76.107.759 1.47.76.432.76 1.14 1.519 1.424 1.52.39.76.526.759.7.76.349.76.08.76.286 1.519.214.76-.073.759.195 1.52.019 2.279-.336.76-.606.76.129.759-.131.76.626.76-1.178.76-.928.759-.137.76-.698.76-.392 2.279-2.453 1.52-.534.759-.941.76-.284.76-.604.759.978.76 2.258.76 1.065.76-.01.759-1.964.76-.545 1.52-1.549.759-.974.76-.496.76-.092.76-1.118.759-.616.76-.845.76-2.688.76-3.292.759-.774.76-.36.76.39 2.279-.613 1.52-.998.759-1.1.76-3.058.76-2.189.759-2.745.76-4.11.76-.547.76-.203.759-4.448.76-9.88.76-7.652.76-9.971.759-12.725.76-7.987.76-2.506.76-6.211 1.519-40.966 1.52-27.679.759-20.773.76-11.25.76-3.643.76-25.825 1.519-22.635.76-8.247.76-14.117.759-7.604.76-1.484.76 8.9.759-8.482.76-4.29.76.316.76 2.171 1.519 6.518.76 11.653.76 7.513.759 5.679 1.52 20.786.76 5.253.759 6.78.76 1.452.76 25.58.76 15.282.759 12.648.76 14.859.76 6.195.76 4.09.759 19.839.76 9.176.76 13.286 1.519 21.538.76 5.167.76 2.02.759 13.216 1.52 10.578 1.519 11.942.76 2.25.76.937.76 8.482.759 2.07.76 4.113.76 2.905.76 2.432.759 1.123.76.734.76 2.858 2.279 6.006.76 1.74.76.859.759.562.76-.214.76 2.584 2.279 3.297.76.414.759.079.76 1.703.76-.14 1.519 1.002.76.38.76.13.76-.03.759.49.76.242 1.52.03.759.31 1.52-.066.76.198.759.66.76-.175.76-.052 1.519.138 1.52.232 1.519-.216.76.06.76-.301 1.519-.063.76-.225.76-.098.759-.246 1.52-1.011.76.014.759-.184 1.52-1.107.76-.394 1.519-1.379 1.52-.278 1.519-1.458.76-.886.759-.467.76-.992.76-.332.76-.118.759-1.038.76-.56.76-1.227.76-.991.759-.786.76-.332.76.017 1.519-2.233.76-2.235.76-1.212.76-.947 1.519-.197.76-1.566 1.519-3.725.76-.805.76-1.286 1.519-.497.76-.6.76-1.124.759-.754.76-.267.76-.709 1.519.63.76 3.412 1.52-2.86.759.285 1.52-.26.76.159.759-.11.76-.303 1.52.441.759.083.76-.627.76-.271.76-2.705 1.519 2.731.76.209 1.519 1.583.76.055.76 2.404h0" style="fill:none;stroke:#000;stroke-linecap:round;stroke-width:1.5" id="line2d_1"/><path clip-path="url(#p322234224e)" d="m149.973 554.04 31.15-.105 2.278-.352.76-.329.76-.17.76-.471.76-.618 1.519-1.877.76-.77.76-2.646.759-2.066 1.52-4.836.76-3.4.759-2.109 2.28-11.329.759-4.06 1.52-5.85 1.519-5.132.76-1.196.76-1.727 1.519-2.895.76.553.76-2.336.759 1.45.76-1.02 1.52 2.605.759-.536.76.086.76-.274 1.519-1.062.76 1.451 1.52.45.759.626.76 1.685.76-.216.76 2.035.759.656.76.456.76.915.76 2.122.759 1.347 1.52 4.887.76.416.759 1.818.76 2.216.76.79 1.519 3.709 2.279 4.205.76 1.91.76-.193.76 1.447.759-.096 1.52 1.333.76 1.336 1.519.934.76.135 1.519-.096.76.184 1.52.888.759 1.32.76.372.76.925.759.654.76.473.76-.184.76.834.759.649 1.52.736 1.519 1.498.76.346.76.602 2.279.858.76.062.76.447.759.235 1.52.024.76-.021.759.42.76-1.809.76-.043.76.163.759-.035.76.141 1.519-.06 3.039-.04 1.52.125.76-.1.759 2.064 1.52-.013.76-.032.759-.143.76.002.76-.138.76.221.759.36.76.03.76.43 1.519.002 3.039-.403 2.279-.515 1.52-.018.76-.686.759-.114.76-.377 1.52-.157h.759l.76-.142 1.52.26 2.278.42.76-.025.76-.485 1.52.227.76.33 1.519-.025.76.017.759.294.76.075.76-.173.76.21.759.036 1.52.38.76.374.759.227.76-.076.76-.298 2.279-.026.76-.298.76-.17.759.218 1.52-.29.76.027 3.798-.463.76.016 8.357-1.282 2.279-.994.76-.021.76-.341.76-.048.759-.271.76-.521 3.039-.639.76-.787.76-.34 1.519-.178.76.096.759-.57.76-.248.76-.382 1.519-.061 1.52-1.426.76-.384.759-.559.76.146.76-.193.76-1.12.759-.405 2.28-2.29.759-.62.76-1.25 1.52-.961.759-.189.76-.896.76-1.514.759-.858 2.28-3.529.759-.902.76-2.283.76-1.495.76-2.08.759-1.524 1.52-6.2.76-.911.759-2.36.76-1.727.76-2.379 1.519-3.142.76-2.095.76-1.632.76-.534 1.519-2.116.76-.748.76.59.759.75.76-1.041.76-.622.759-.267.76-.655.76-2.183.76-.702.759-2.21.76.02.76-1.287.76-.433.759-.694.76.477.76-2.612.76-.338.759-1.723.76.686.76-1.499.76.577.759 1.894.76 1.214.76.916.76.42.759.936.76-.371.76.446.76-1.511.759 2.401 1.52 4.167.759.331.76 1.054.76-.902.76-1.72.759-1.414.76 1.613.76-51.356.76-1.78.759-1.118.76-2.974.76-2.102 1.519-7.22.76-2.78.76-.995.76-3.387.759-2.139.76-.926.76-.523.76-1.57.759 50.624.76 1.755.76.442.759 2.606.76 3.023.76.282.76.4.759 1.28.76-.204.76 3.288.76 2.514.759.407 1.52 1.685.76.363.759 1.583.76 3.352.76 1.885.76-.03.759 2.827.76 1.007.76 1.696.76 1.285.759.471.76 1.168.76 2.416.76 1.626 1.519 4.49.76-.518.759-1.927.76.014.76 1.267.76 1.75.759 2.465.76-.153.76.449.76 1.342.759.086.76-.147.76-.405.76-.238.759-1.818 1.52.816.76.09.759-.7.76-.904.76-.524.76.426.759-1.038.76-.704 1.52-.628.759.287.76-.986.76.343.759-.458.76-.666.76-1.37.76-.744.759-1.272 2.28-2.4.759-.344.76-.14.76-1.481.76-.857.759-1.28.76-.857.76-1.238.76.69.759-1.218.76-.146.76.497.76-.604.759.343.76 1.17.76-.156.759-.416.76 1.507 3.039 4.554.76.112.76 1.811.759.159.76.56 1.52 1.394 2.278 2.937.76 1.457.76.874.76 1.814.76 12.304.76 1.961 1.519 3.35 1.52 5.206.759 2.09.76 1.287.76 1.966.759 1.014 1.52 3.948.76 2.286.759 1.452.76-9.813 1.52 3.416 1.519 3.59 1.52 2.006.759.681.76.385.76 2.234.76.913 1.519.63 1.52.094 1.519.281 1.52.098.759.419.76.025.76.161.759.522.76.184 1.52.684 2.278.007 1.52.434 1.52.047 2.279.012 1.52-.108 2.278.235 2.28.103.76-.09.759.075 1.52-.067 3.798.294 1.52-.027 3.798.096 1.52-.132 3.799-.792.76-.197 1.519-.723.76-.243 1.519-.985 1.52-.993.76-.59 2.278-1.125 2.28-1.97 1.52-1.215L566.31 540l.76-.772.76-.468 1.52-1.34.76-.365 2.278-2.519.76-.777.76-1.48 1.52-.828 2.278-1.62.76-1.707.76-.664.76-.301.76-.818.76-.244.759-.458.76-.214.76-.802.76.676.759-.618 1.52-.547 1.519-1.207.76 1.291.76-.096 1.519-.634.76 1.611.76-1.484 1.519-.244.76-.6 3.038.068.76-.446.76-.685.76-.401.76-.21.76.352.759-1.94.76 1.228.76-.045.76.46.759.278.76.79.76.413.76.161.759.298 3.039 2.652.76.404 1.519 1.09.76.2 1.52.828.759-.346 2.28.752.759.739.76.31 3.039 2.069 1.52 1.439.759.175 1.52 1.43.76.011.759.181.76.49.76-.35.76.082.759.238.76-.342 3.038-.277.76.344.76-.282.76-.15 1.52.108.759-.374.76.152 1.52-.99 2.278-1.661.76-.697 1.52-1.954 1.52-1.577.759-.74.76-1.26.76-.612.759-1.101 1.52-.724.76-.18.759-.942.76-1.62.76-1.33 1.519-4.514 1.52-4.404 1.519-2.953.76-2.197.76-2.964.76-3.557.759-2.793.76-2.115 1.52-2.34.759-1.93 1.52-6.103.76-3.462 1.519-8.525.76-4.87.759-8.196 1.52-27.845.76-15.952.759-11.057.76-6.915.76-11.614.76-23.024 1.519-58.17.76-26.52.76-20.477.759-15.698.76-22.634.76-27.198.76-15.156.759-20.92 3.039-54.733.76 3.427 1.52 23.704.759 16.645.76 11.796.76 13.573.759 19.817.76 28.261.76 21.638 1.519 53.963 2.28 61.32 2.278 49.39.76 12.303.76 14.219 2.28 23.147 1.519 18.245.76 6.39.76 7.9 1.519 8.062.76 5.142.759 3.785.76 8.08.76 3.737 1.519 2.16.76 2.01.76 1.607.76 1.25.759.768.76 1.783 1.52.9.759.752.76 1.245.76 1.546.76 1.232.759.833.76-.121.76.34.76.488.759 1.14.76 1.57.76.937.76.273.759.806.76-.272.76.008.759.217.76.397.76.203 2.279 1.645.76.415.76-.271.759.209.76-.098 1.52.333 1.519.813.76-.256.76-.078.759.068 1.52-.716 1.519-.526.76.336.76-.412.76.006 1.519-1.21.76-.276 1.519-1.511.76-.705 2.279-2.607.76-.51 1.519-2.012.76-1.353.76-.062.76-.914.759-1.338 1.52-.422.76-.41.759-.737 1.52-1.883.76.137.759-.21 1.52-1.67.759-.46.76-1.779.76-.973.76-.032.759-2.164.76-.885.76-1.239 3.038-6.446.76-.883 1.52-3.759 1.52-6.708 1.519-3.849.76-.328 1.519-3.95 2.28-5.148.759-.662.76-.875.76-1.855.759.078.76.746 1.52 2.561.759-.577.76.973.76 2.352.76 1.66 1.519 2.824 1.52 1.976.759.594.76 2.607.76 1.434 1.519 3.481.76.848.76 2.45.76 1.536.759-.753.76.527.76 1.649.76 1.376.759 1.876.76.662.76 1.032h0" style="fill:none;stroke:#009e73;stroke-linecap:round;stroke-width:1.5" id="line2d_2"/><path clip-path="url(#p322234224e)" d="m149.973 554.04 27.35-.071 3.8-.256 1.519-.53.76-.49.759-1.665.76-.45.76-.204.76-.96.759-1.541.76-.92.76-1.163.76-3.932 1.519-6.27 2.279-10.394.76-5.473.76-4.503.76-7.372.759-8.925.76-3.39 1.52-11.252.759-2.277.76-.837.76-2.92 1.519-1.961.76.05.76.95.759 1.665.76.45.76 3.195.76 6.065.759-.5 1.52 6.423.76.112.759 1.082.76 2.768.76.602 1.519 3.717.76 1.91.76 2.317.76 4.054.759 2.39.76 1.592 1.52 5.514.759 1.705 1.52 5.555.76 2.185.759 2.86.76 1.04.76.41.759.857.76 1.389.76 2.389 1.519 2.022.76.98.76-.01.76 1.174.759.653 1.52.552.76.817.759-.113 2.28.02.759-2.092 1.52 1.153.76.552.759.694.76.327.76-.48.759.337.76.153.76-.143.76 1.185.759.725.76.275.76-.347.76.848.759.418.76-.755.76.49h.76l.759-.225 1.52.276.76.378 3.038.081.76.674.76-2.869.76-.745.76.52.759-.674 2.279.194.76-.06.76-.41.76-.01.759-.5.76-.03.76.112.76-.286.759 2.89.76.418.76-.092.76.562.759.01.76.327 1.52.102.759.429.76.174.76.633.76-.245.759.03 1.52.307.76.275 1.519-.204 2.279-1.072.76.02.76-.449.759-.092.76-.265.76.234.76-.398.759.164 1.52.081.76-.275.759-.092 1.52.46.76.101.759-.204.76-.592 1.52-.899.759-.52 1.52.582.759.776.76.04 2.279.623 1.52-.112.76.235.759 1 .76.164 1.52.786.759-.398.76-.266.76-.806.76-.072.759.317.76-.235.76-.02 1.519.255 1.52-.153.76.367 1.519.204.76.623.759-.05.76-.246.76-.04.76-.235.759.102.76-.01.76-.266 2.279.02 1.52-.347.759-.04.76-.307 1.52-.163 3.038-.868.76.01.76-.255 1.52-1.021.759-.45 1.52-.388.759-.694 2.28-.899.759-.112 2.28-1.746.759-.735 1.52-.388.76-.746.759-.54.76-.746.76-.46 1.519-.612.76-1.369 1.52-1.245.759-.45.76-.765.76-.95.759.01.76-1.276.76-1.869.76-.929.759-.153.76-1.573.76-2.267.76-2.767.759-1.46 1.52-5.064.76-.358 1.519-4.34.76-3.44 1.519-2.42.76-1.981.76-2.635.76-.357 1.519-.266.76-2.001.76 1.807 1.519-2.042.76-.664.759.235.76-.592.76-2.798.76-.704.759-1.42.76.613.76-.398.76.572.759-.082.76 2.675.76-3.257.76 1.348.759-1.103.76 1.215.76-.266.76 1.359.759 2.256 1.52 3.42.76.848.759.388.76-1.878.76-.368.76-1.562.759 2.358 1.52 2.9.759.256.76.132.76-1.725 1.519-1.634.76.694.76-44.642.76-3.022.759-1.542.76-2.053.76-2.45 1.519-6.076.76-1.164.76-.388.76-3.38.759-2.164 1.52-2.237.76-1.838.759 44.336.76 1.522.76.418.759 1.552.76 3.278.76-.704.76.5.759.235.76-1.103 1.52 5.014.759 1.164.76.224.76.644.76-.766.759 1.848.76 3.584.76 1.031.76-1.51.759 1.827.76.541.76.899.76 1.44.759.387.76 1.195 1.52 1.98.759 1.655.76 2.134.76-2.113.759-1.583.76.439.76 2.022.76 1.337.759 2.053 1.52-2.094.76.715.759-.858.76-1.47.76-.153.76.082.759-3.635.76 1.072.76-1.318.76-.163.759-1.603.76 1.358.76-1.062.76 1 .759-1.061 1.52-.52.76.734.759.368.76-1.389.76 1.756.759-.786.76.092 1.52-1.715.759-3.145.76-.307.76-.99.76.02.759-.418.76 1.419.76-2.971 1.519-3.34.76-.398 1.52-1.358.759-.633 1.52.256.76-.072.759.225.76 1.582.76-.776.759-.48.76 3.503 1.52 4.125.759 1.256 1.52 4.135.76 1.716 1.519 2.675 2.279 4.258.76 2.093.76 1.052.76 1.644.759.98.76 1.757.76 2.47.76 1.481.759 1.869.76 1.358 1.52 4.911.759 1.501.76.899.76 1.603.759-9.935.76-.99.76 1.592.76 1.95.759.91.76-.338.76 1.389.76 1.031.759 1.88.76.928.76.43.76.295.759.45.76.633.76 12.804.76 3.86.759.153.76.623.76.327 1.519.153.76.46.76.132.76.429.759.725 1.52.653 2.278.562.76.408.76-.132 1.52.214 1.519.49.76.082 3.039-.204.76-.215 2.279-.122.76.275 1.519.133 3.039-.408 1.52-.03 1.519.101 1.52-.306 3.038.01 2.28.51 1.519.062 2.28-.174 1.519-.214 3.039-.98 1.519-.674.76-.592 1.52-1.46.759-.338.76-.592.76-.388.76-.541 1.519-1.41 2.279-1.95.76-.827.76-.52 2.279-.98.76-.266.76.102.759-1.133.76-.552.76-.745.76-.296.759-1.072.76.98.76-.102 1.519-1.532.76-.265.76-1.44.759-.684.76-.5.76-.685.76.307.759-.5.76.163.76-.797.76.153.759-1.572.76-.296.76.286.76.01.759-.44.76 1.492.76-.215.76-.071.759-.307.76 1.256.76-.806 1.519-.358.76-.02 1.519.265.76-.316.76-.03.76-.225.759-.5.76-.062.76-.204.76.378.759-1.032.76.756 1.52-.01.759.214.76.082.76-.174.76.715 1.519.04.76.062.76.378.759.766.76.224.76.072 1.519.868.76 1.062.76.439.759.214.76.715.76.122.76.388.759.705.76.541.76.051.76.358.759.224 2.28 2.308.759-.082 1.52 1.246.76-.541.759-.123.76.388.76-.092.76-.234.759.52.76-.122.76.081.759-.224.76-.409.76-.092.76.297 1.519-.194 1.52.755 2.278.398.76-.122.76-.868.76-.398 4.558-5.27.76-.428.76-1.297.76-.715.759-.867 1.52-1.042.76.02.759-.51.76-1.113.76-.786 1.519-2.86.76-1.184.76-.796 2.279-4.759 1.52-5.268 1.519-3.89.76-1.267.76-.817.759-2.93.76-3.41.76-4.034 1.519-10.068.76-3.503.76-5.299.759-10.589.76-14.346 1.52-38.087.759-11.988.76-9.19.76-15.806.76-28.202.759-35.616 1.52-56.773 1.519-30.112 1.52-50.748.76-13.336.759-17.828 2.28-36.412.759-6.893.76 8.465.76 20.412.76 12.457.759 19.32.76 7.249.76 10.854.759 20.412.76 28.53.76 18.215 1.519 54.241.76 16.552 2.279 60.01 1.52 32.9.76 11.63.759 13.478 2.28 24.394 1.519 20.728.76 6.361.76 7.577.759 4.493.76 3.594.76 4.564.759.531.76 5.606.76 3.952.76.081.759 1.154.76 2.665.76 2.247.76 1.286.759.082.76 1.195.76.418.76-.153.759 1.072.76 1.41.76 2.225.76.797.759-.123.76.051 1.52 1.41.759-.062 1.52 1.43.76.03.759.838.76-.133.76-.368.759-.561.76-.051.76.275.76 1.563.759-.664.76.286.76.45.76-1.471 2.278-1.154.76-.164.76.44.76-.082.76-.337.76.194.759-.541.76-1.348.76.378.76-.49.759-.838.76 1.511.76-.306.76.143.759-.909 1.52-1.347.759-1.205 1.52-3.115.76-1.215.759-.664 1.52-1.98 2.279-4.749.76 2.104.76-4.003.759-.868.76-.429.76-.867.76-.041.759-.245.76-1.634.76-2.104.76.031.759 1.093 1.52-1.318.759-1.102.76-4.881.76 1.817.76-.857.759-2.053.76-.776 1.52-4.452.759-1.542.76-1.97.76-2.482.76-2.021 1.519-6.25.76-2.41.76-4.564.759-2.338.76-1.787.76-.633.76-1.205.759-1.91.76-1.01.76-1.205.76.051.759.603.76-.603.76-1.664.759 1.041.76.838.76 3.165.76 2.532.759.225.76 1.225.76 2.308.76 3.88.759-.01.76 1.92 1.52 2.287.759.684.76 3.553 2.279 6.872.76.102 1.52 4.514.759-1.062.76-.419.76 3.196.76 1.031.759 2.073.76.684.76 1.226h0" style="fill:none;stroke:#d55e00;stroke-linecap:round;stroke-width:1.5" id="line2d_3"/><path clip-path="url(#p322234224e)" d="M149.973 554.04H183.4l.76-1.04h1.52l.76-.52h.759l1.52-3.12.76-3.12.759-.521.76-1.56.76-1.04.76-2.6 1.519-7.801h.76l.76-3.12.759-8.322.76-5.2.76-1.56.76-1.04h.759l.76-2.08.76-3.121.76.52.759 1.04.76-.52.76 2.08.759 1.56.76-1.56.76.52.76 6.76.759 5.722.76-1.04.76 1.04.76-1.04.759 2.6h2.28l.759.52.76 2.08 2.279 3.12h1.52l.76 2.6.759 1.56 1.52 5.202.76 3.12.759 1.04h.76l.76.52.759-2.08.76.52 1.52 2.08.759 1.56h1.52l.76-.52h1.519l.76.52h1.519l.76 2.08.76 1.56 1.519 1.04.76-.52h1.52l.759-1.56h6.078l.76-.52h.76l.759.52h1.52l.76 1.56h4.558l.76-1.04.76.52h.759l.76-.52h2.279l.76-2.08.76.52.759-.52h3.039l.76-2.08.76-.52.76.52h.759l.76-.52h1.52l.759 1.04.76-.52.76.52h3.038l.76 3.12.76-1.04.76-.52h.76l.76 1.04h1.519l1.519 1.04h.76l.76-.52h2.279l.76-.52.76 1.56h.759l.76.52h2.279l.76.52h.76l.76-.52.759.52.76-.52h3.039l.76.52 1.519-1.04h2.279l.76-1.04h.76l.76-.52.759.52h3.039l.76-2.08 1.52 1.04h2.278l.76-.52 1.52 1.04h3.798l.76 1.04.76-.52h2.279l.76-1.56.76 1.56.76-.52h3.038l.76.52h.76l.76 1.04.76.52h2.278l.76.52.76-.52.76-2.08.76-4.68.76-1.04h1.519l.76-1.04.759-3.12.76-.52 1.52-5.201 1.519-3.12h.76l1.519 1.04.76 4.68.76 1.04h1.519l.76-2.08.76 1.04.76-2.08h1.519l1.52 3.12.759-5.2.76-.52 1.519-3.12.76-2.601h1.52l.759-6.76h.76l.76 2.6.76-6.241.759-1.04h1.52l.76-2.08.759-5.721 1.52-5.201.76-4.68.759-2.6h.76l.76 2.6.76-2.08.759-3.121.76 8.84.76 3.641.76-10.4h.759l.76 1.04.76 2.6.759.52.76-4.16.76-5.201.76-3.12h.759l.76 1.56.76-2.08.76.52.759-9.362.76-4.68.76 10.4h1.519l.76-1.04.76 2.08.76 8.322.759 3.64.76 5.72h.76l.76-8.32.759 2.6.76-11.441.76 6.76.76 4.681h1.519l.76-8.32.759 2.08 1.52-11.962.76 8.841h1.519l.76-3.12.76-5.72.759 6.76.76-5.2.76-6.241.76-5.201h.759l.76 4.16.76-3.12.76 2.08.759.52.76-5.2h1.52l.759 17.162.76-1.56.76 2.08.759 5.72 1.52 9.882h.76l.759-4.68.76 3.64.76 4.68.76 2.08.759-3.12.76-2.6h1.52l.759 10.92.76-8.32 1.52-4.16h1.519l.76 7.8.76-1.56.759.52h.76l.76 5.72.76-1.04h1.519l.76-7.28.759 10.921.76 2.6.76 1.04h.76l.759-3.64.76 6.24 1.52 1.041.759-3.64.76-2.08.76 3.64h.76l.759-8.321.76 2.08.76-.52h.76l.759-4.68h.76l.76 3.64.76-5.2.759 1.04.76-2.08.76-.52.76 2.08h1.519l.76-3.641.759 1.56.76-1.04h.76l.76 4.68h1.519l.76-5.2.76-1.04.759.52.76 3.12.76-1.04h.76l.759-4.68.76 6.24.76-.52.76 2.6.759-7.8.76-2.08h1.52l.759 3.64.76-1.04 1.519-.52v-.52l.76 1.04.76-.52.76 4.68.759.52.76 1.56.76-1.04.76 3.12.759 2.08.76-2.6h.76l.76 7.281.759 3.64 1.52 2.081h.76l.759.52h.76l.76 2.08 1.519 2.08.76 4.161.76-2.08.76 2.08h.759l.76.52h1.519l.76 2.6.76 1.56h1.519l.76 1.04.76 1.561.76 1.04.759 2.08.76 4.68.76.52h.76l.759 1.041.76.52.76 3.12.76.52.759 1.04h1.52l.76 2.08h1.519l.76-1.04h3.798l.76-.52.76.52h3.038l.76-1.56h.76l.76 1.04h3.798l.76.52h3.799l.76 1.56.76.521h.759l.76-2.08h3.798l.76-.52h4.559l.76-.52.76 1.56h3.038l1.52-1.04h4.558l.76-.52.76-2.6h1.519l.76-10.922.76-1.04h.76l1.519-5.2h1.52l.759-3.641.76-1.56.76-.52h.76l.759 2.6h1.52l.76 5.72.759-.52.76-2.6.76.52.76 1.56h1.519l.76-1.56.759.52h.76l.76-1.04.76.52h1.519l.76 4.16.76-.52.759 2.081.76.52.76 1.04h1.519l.76 1.56.76-2.6.76-3.12.759 1.04.76-2.6h1.52l.759 1.04.76-4.16.76-2.081.759 2.6.76-2.6h1.52l.759-1.04.76 2.08.76 1.56.76-3.12.759.52h1.52l.76-6.76.759 5.72.76.52.76-2.6.76 1.04h1.519l.76 2.6h1.519l.76 2.08h2.279l.76 4.68 1.519-1.04.76 2.601.76-4.16h1.519l.76 2.08.76-1.56 2.279 3.12h1.52l.759-2.08.76-.52.76 2.6.76-2.08.759 4.68h1.52l.76-1.04.759 2.6.76 1.04h.76l.76.52h2.278l.76-.52.76.52.76 2.08h2.279l.76-1.56.76-.52.759-4.68.76 1.04.76-3.12h1.519l.76 1.04h.76l.76-1.04.759-1.56.76-.52h1.52l.759-5.201.76-1.56.76 1.04h.759l.76 3.64h1.52l.759-7.28.76-1.56h.76l.76-2.601.759-3.12h1.52l.76 1.04 1.519-5.2 1.52-10.402h1.519l.76 1.56.76-3.12 1.519-15.602.76 1.04.76-21.322.759-6.241.76-2.08.76-9.361.759-16.122.76-11.962.76-6.76.76-1.56.759-3.12.76-2.081 1.52-37.444.759-10.402.76-23.922.76-6.761.76-27.043.759-16.122.76-2.08.76-9.361.76-21.323.759-17.162.76-34.324.76-23.403.76-2.6.759 6.24.76 3.121.76-2.08.76 13.002.759 17.161.76 24.443 1.519 19.242.76 22.883.76 31.204 1.519 45.765.76 23.403.76 11.961.76 14.562.759 22.882 1.52 29.124.76 4.16.759 6.761.76 13.001.76 4.16 2.279 18.203.76 9.361h.76l.759-.52.76 2.08.76 1.04.759 7.801.76-1.04.76 5.2.76 1.56.759 2.601.76 1.56.76 1.04.76-1.56.759-.52.76.52.76 2.6.76 1.04.759 1.561.76-3.64.76 1.04h.76l.759-1.04.76.52h1.52l2.278 3.12.76 2.08.76-.52 1.52 1.04.759-2.08h.76l1.52 2.08h1.519l.76-3.64.76-1.04.759-.52.76-1.04h.76l.76 1.04 1.519 1.04.76 6.24.76 1.04.759-6.24.76 1.56h1.52l.759 4.68.76 1.56.76 2.081.76-18.202h4.557l.76-14.042h3.799l.76-15.601.76 20.282h4.558l.76-3.64h3.798l.76 15.601.76-26.003h4.558l.76-4.16h4.558l.76-21.843h4.559l.76-5.72h4.558l.76 5.72h4.558l.76-2.08h4.558l.76 24.443h4.558l.76 17.162h0" style="fill:none;stroke:#0072b2;stroke-linecap:round;stroke-width:1.5" id="line2d_4"/><path clip-path="url(#p322234224e)" d="M117 553.088h725.4" style="fill:none;stroke:green;stroke-dasharray:1.5,2.475;stroke-dashoffset:0;stroke-width:1.5" id="line2d_5"/><path clip-path="url(#p322234224e)" d="M117 549.28h725.4" style="fill:none;stroke:orange;stroke-dasharray:1.5,2.475;stroke-dashoffset:0;stroke-width:1.5" id="line2d_6"/><path clip-path="url(#p322234224e)" d="M117 544.521h725.4" style="fill:none;stroke:red;stroke-dasharray:1.5,2.475;stroke-dashoffset:0;stroke-width:1.5" id="line2d_7"/><path d="M117 576.72V77.76" style="fill:none;stroke:#d3d3d3;stroke-linecap:square;stroke-linejoin:miter;stroke-width:1.25" id="patch_3"/><path d="M117 576.72h725.4" style="fill:none;stroke:#d3d3d3;stroke-linecap:square;stroke-linejoin:miter;stroke-width:1.25" id="patch_4"/><g id="matplotlib.axis_1"><g id="xtick_1"><g style="fill:#696969" transform="matrix(.16 0 0 -.16 112.569 598.378)" id="text_1"><defs><path d="M9.813 72.906h9.859V5.078q0-13.187-5-19.14-5-5.954-16.094-5.954h-3.75v8.297h3.078q6.531 0 9.219 3.672Q9.813-4.39 9.813 5.078z" id="DejaVuSans-74"/><path d="M34.281 27.484q-10.89 0-15.093-2.484-4.204-2.484-4.204-8.5 0-4.781 3.157-7.594 3.156-2.797 8.562-2.797 7.485 0 12 5.297 4.516 5.297 4.516 14.078v2zm17.922 3.72V0H43.22v8.297Q40.14 3.328 35.547.953q-4.594-2.375-11.234-2.375-8.391 0-13.36 4.719Q6 8.016 6 15.922q0 9.219 6.172 13.906 6.187 4.688 18.437 4.688h12.61v.89q0 6.203-4.078 9.594-4.078 3.39-11.453 3.39-4.688 0-9.141-1.124-4.438-1.125-8.531-3.375v8.312q4.921 1.906 9.562 2.844 4.64.953 9.031.953 11.875 0 17.735-6.156 5.86-6.14 5.86-18.64z" id="DejaVuSans-97"/><path d="M54.89 33.016V0h-8.984v32.719q0 7.765-3.031 11.61-3.031 3.858-9.078 3.858-7.281 0-11.484-4.64-4.204-4.625-4.204-12.64V0H9.08v54.688h9.03v-8.5q3.235 4.937 7.594 7.374Q30.078 56 35.797 56q9.422 0 14.25-5.828 4.844-5.828 4.844-17.156z" id="DejaVuSans-110"/></defs><use xlink:href="#DejaVuSans-74"/><use x="29.492" xlink:href="#DejaVuSans-97"/><use x="90.771" xlink:href="#DejaVuSans-110"/></g></g><g id="xtick_2"><g style="fill:#696969" transform="matrix(.16 0 0 -.16 180.198 598.378)" id="text_2"><defs><path d="M34.188 63.188 20.797 26.906h26.812zm-5.579 9.718h11.188L67.578 0h-10.25l-6.64 18.703h-32.86L11.188 0H.78z" id="DejaVuSans-65"/><path d="M18.11 8.203v-29H9.077v75.484h9.031v-8.296q2.844 4.875 7.157 7.234Q29.594 56 35.594 56q9.968 0 16.187-7.906 6.235-7.907 6.235-20.797T51.78 6.484q-6.218-7.906-16.187-7.906-6 0-10.328 2.375-4.313 2.375-7.157 7.25zm30.578 19.094q0 9.906-4.079 15.547-4.078 5.64-11.203 5.64-7.14 0-11.218-5.64-4.079-5.64-4.079-15.547 0-9.906 4.078-15.547 4.079-5.64 11.22-5.64 7.124 0 11.202 5.64t4.078 15.547z" id="DejaVuSans-112"/><path d="M41.11 46.297q-1.516.875-3.297 1.281Q36.03 48 33.89 48q-7.625 0-11.703-4.953-4.079-4.953-4.079-14.234V0H9.08v54.688h9.03v-8.5q2.844 4.984 7.375 7.39Q30.031 56 36.531 56q.922 0 2.047-.125 1.125-.11 2.484-.36z" id="DejaVuSans-114"/></defs><use xlink:href="#DejaVuSans-65"/><use x="68.408" xlink:href="#DejaVuSans-112"/><use x="131.885" xlink:href="#DejaVuSans-114"/></g></g><g id="xtick_3"><g style="fill:#696969" transform="matrix(.16 0 0 -.16 253.522 598.378)" id="text_3"><defs><path d="M8.5 21.578v33.11h8.984V21.922q0-7.766 3.016-11.656 3.031-3.875 9.094-3.875 7.265 0 11.484 4.64 4.234 4.64 4.234 12.656v31h8.985V0h-8.984v8.406Q42.047 3.422 37.718 1q-4.313-2.422-10.032-2.422-9.421 0-14.312 5.86Q8.5 10.296 8.5 21.578zM31.11 56z" id="DejaVuSans-117"/><path d="M9.422 75.984h8.984V0H9.422z" id="DejaVuSans-108"/></defs><use xlink:href="#DejaVuSans-74"/><use x="29.492" xlink:href="#DejaVuSans-117"/><use x="92.871" xlink:href="#DejaVuSans-108"/></g></g><g id="xtick_4"><g style="fill:#696969" transform="matrix(.16 0 0 -.16 319.238 598.378)" id="text_4"><defs><path d="M39.406 66.219q-10.75 0-17.078-8.016-6.312-8-6.312-21.828 0-13.766 6.312-21.781 6.328-8 17.078-8 10.735 0 17.016 8 6.281 8.015 6.281 21.781 0 13.828-6.281 21.828-6.281 8.016-17.016 8.016zm0 8q15.328 0 24.5-10.281 9.188-10.282 9.188-27.563 0-17.234-9.188-27.516-9.172-10.28-24.5-10.28-15.375 0-24.593 10.25-9.204 10.265-9.204 27.546t9.204 27.563q9.218 10.28 24.593 10.28z" id="DejaVuSans-79"/><path d="M48.781 52.594v-8.407q-3.812 2.11-7.64 3.157-3.828 1.047-7.735 1.047-8.75 0-13.593-5.547-4.829-5.532-4.829-15.547 0-10.016 4.829-15.563 4.843-5.53 13.593-5.53 3.907 0 7.735 1.046 3.828 1.047 7.64 3.156V2.094Q45.016.344 40.984-.531q-4.015-.89-8.562-.89-12.36 0-19.64 7.765-7.266 7.765-7.266 20.953 0 13.375 7.343 21.031Q20.22 56 33.016 56q4.14 0 8.093-.86 3.953-.843 7.672-2.546z" id="DejaVuSans-99"/><path d="M18.313 70.219V54.688h18.5v-6.985h-18.5V18.016q0-6.688 1.828-8.594 1.828-1.906 7.453-1.906h9.218V0h-9.218q-10.407 0-14.36 3.875-3.953 3.89-3.953 14.14v29.688H2.687v6.984h6.594V70.22z" id="DejaVuSans-116"/></defs><use xlink:href="#DejaVuSans-79"/><use x="78.711" xlink:href="#DejaVuSans-99"/><use x="133.691" xlink:href="#DejaVuSans-116"/></g></g><g id="xtick_5"><g style="fill:#696969" transform="matrix(.16 0 0 -.16 390.634 598.378)" id="text_5"><use xlink:href="#DejaVuSans-74"/><use x="29.492" xlink:href="#DejaVuSans-97"/><use x="90.771" xlink:href="#DejaVuSans-110"/></g></g><g id="xtick_6"><g style="fill:#696969" transform="matrix(.16 0 0 -.16 457.503 598.378)" id="text_6"><use xlink:href="#DejaVuSans-65"/><use x="68.408" xlink:href="#DejaVuSans-112"/><use x="131.885" xlink:href="#DejaVuSans-114"/></g></g><g id="xtick_7"><g style="fill:#696969" transform="matrix(.16 0 0 -.16 530.827 598.378)" id="text_7"><use xlink:href="#DejaVuSans-74"/><use x="29.492" xlink:href="#DejaVuSans-117"/><use x="92.871" xlink:href="#DejaVuSans-108"/></g></g><g id="xtick_8"><g style="fill:#696969" transform="matrix(.16 0 0 -.16 596.543 598.378)" id="text_8"><use xlink:href="#DejaVuSans-79"/><use x="78.711" xlink:href="#DejaVuSans-99"/><use x="133.691" xlink:href="#DejaVuSans-116"/></g></g><g id="xtick_9"><g style="fill:#696969" transform="matrix(.16 0 0 -.16 667.939 598.378)" id="text_9"><use xlink:href="#DejaVuSans-74"/><use x="29.492" xlink:href="#DejaVuSans-97"/><use x="90.771" xlink:href="#DejaVuSans-110"/></g></g><g id="xtick_10"><g style="fill:#696969" transform="matrix(.16 0 0 -.16 734.808 598.378)" id="text_10"><use xlink:href="#DejaVuSans-65"/><use x="68.408" xlink:href="#DejaVuSans-112"/><use x="131.885" xlink:href="#DejaVuSans-114"/></g></g><g id="xtick_11"><g style="fill:#696969" transform="matrix(.16 0 0 -.16 808.132 598.378)" id="text_11"><use xlink:href="#DejaVuSans-74"/><use x="29.492" xlink:href="#DejaVuSans-117"/><use x="92.871" xlink:href="#DejaVuSans-108"/></g></g></g><g id="matplotlib.axis_2"><g id="ytick_1"><g style="fill:#696969" transform="matrix(.16 0 0 -.16 97.32 560.119)" id="text_12"><defs><path d="M31.781 66.406q-7.61 0-11.453-7.5Q16.5 51.422 16.5 36.375q0-14.984 3.828-22.484 3.844-7.5 11.453-7.5 7.672 0 11.5 7.5 3.844 7.5 3.844 22.484 0 15.047-3.844 22.531-3.828 7.5-11.5 7.5zm0 7.813q12.266 0 18.735-9.703 6.468-9.688 6.468-28.141 0-18.406-6.468-28.11-6.47-9.687-18.735-9.687-12.25 0-18.718 9.688-6.47 9.703-6.47 28.109 0 18.453 6.47 28.14Q19.53 74.22 31.78 74.22z" id="DejaVuSans-48"/></defs><use xlink:href="#DejaVuSans-48"/></g></g><g id="ytick_2"><g style="fill:#696969" transform="matrix(.16 0 0 -.16 66.78 464.932)" id="text_13"><defs><path d="M12.406 8.297h16.11v55.625l-17.532-3.516v8.985l17.438 3.515h9.86V8.296H54.39V0H12.406z" id="DejaVuSans-49"/></defs><use xlink:href="#DejaVuSans-49"/><use x="63.623" xlink:href="#DejaVuSans-48"/><use x="127.246" xlink:href="#DejaVuSans-48"/><use x="190.869" xlink:href="#DejaVuSans-48"/></g></g><g id="ytick_3"><g style="fill:#696969" transform="matrix(.16 0 0 -.16 66.78 369.746)" id="text_14"><defs><path d="M19.188 8.297h34.421V0H7.33v8.297q5.609 5.812 15.296 15.594 9.703 9.797 12.188 12.64 4.734 5.313 6.609 9 1.89 3.688 1.89 7.25 0 5.813-4.078 9.469-4.078 3.672-10.625 3.672-4.64 0-9.797-1.61-5.14-1.609-11-4.89v9.969Q13.767 71.78 18.938 73q5.188 1.219 9.485 1.219 11.328 0 18.062-5.672 6.735-5.656 6.735-15.125 0-4.5-1.688-8.531-1.672-4.016-6.125-9.485-1.218-1.422-7.765-8.187-6.532-6.766-18.453-18.922z" id="DejaVuSans-50"/></defs><use xlink:href="#DejaVuSans-50"/><use x="63.623" xlink:href="#DejaVuSans-48"/><use x="127.246" xlink:href="#DejaVuSans-48"/><use x="190.869" xlink:href="#DejaVuSans-48"/></g></g><g id="ytick_4"><g style="fill:#696969" transform="matrix(.16 0 0 -.16 66.78 274.56)" id="text_15"><defs><path d="M40.578 39.313Q47.656 37.797 51.625 33q3.984-4.781 3.984-11.813 0-10.78-7.422-16.703-7.421-5.906-21.093-5.906-4.578 0-9.438.906-4.86.907-10.031 2.72v9.515q4.094-2.39 8.969-3.61 4.89-1.218 10.218-1.218 9.266 0 14.125 3.656 4.86 3.656 4.86 10.64 0 6.454-4.516 10.079-4.515 3.64-12.562 3.64h-8.5v8.11h8.89q7.266 0 11.125 2.906 3.86 2.906 3.86 8.375 0 5.61-3.985 8.61-3.968 3.015-11.39 3.015-4.063 0-8.703-.89-4.641-.876-10.203-2.72v8.782q5.624 1.562 10.53 2.344 4.907.78 9.25.78 11.235 0 17.766-5.109 6.547-5.093 6.547-13.78 0-6.063-3.468-10.235-3.47-4.172-9.86-5.782z" id="DejaVuSans-51"/></defs><use xlink:href="#DejaVuSans-51"/><use x="63.623" xlink:href="#DejaVuSans-48"/><use x="127.246" xlink:href="#DejaVuSans-48"/><use x="190.869" xlink:href="#DejaVuSans-48"/></g></g><g id="ytick_5"><g style="fill:#696969" transform="matrix(.16 0 0 -.16 66.78 179.373)" id="text_16"><defs><path d="M37.797 64.313 12.89 25.39h24.906zm-2.594 8.593H47.61V25.391h10.407v-8.203H47.609V0h-9.812v17.188H4.89v9.515z" id="DejaVuSans-52"/></defs><use xlink:href="#DejaVuSans-52"/><use x="63.623" xlink:href="#DejaVuSans-48"/><use x="127.246" xlink:href="#DejaVuSans-48"/><use x="190.869" xlink:href="#DejaVuSans-48"/></g></g><g id="ytick_6"><g style="fill:#696969" transform="matrix(.16 0 0 -.16 66.78 84.186)" id="text_17"><defs><path d="M10.797 72.906h38.719v-8.312H19.828v-17.86q2.14.735 4.281 1.094 2.157.36 4.313.36 12.203 0 19.328-6.688 7.14-6.688 7.14-18.11 0-11.765-7.328-18.296-7.328-6.516-20.656-6.516-4.593 0-9.36.781-4.75.782-9.827 2.344v9.922q4.39-2.39 9.078-3.563 4.687-1.171 9.906-1.171 8.453 0 13.375 4.437 4.938 4.438 4.938 12.063 0 7.609-4.938 12.047-4.922 4.453-13.375 4.453-3.953 0-7.89-.875-3.922-.875-8.016-2.735z" id="DejaVuSans-53"/></defs><use xlink:href="#DejaVuSans-53"/><use x="63.623" xlink:href="#DejaVuSans-48"/><use x="127.246" xlink:href="#DejaVuSans-48"/><use x="190.869" xlink:href="#DejaVuSans-48"/></g></g><g style="fill:#696969" transform="matrix(0 -.2 -.2 0 58.62 379.813)" id="text_18"><defs><path d="M51.125 44H36.922l-4.11-16.313h14.313zm-7.328 27.781-5.078-20.265h14.265L58.11 71.78h7.813L60.89 51.516h15.234V44h-17.14l-4-16.313h15.53V20.22H53.079L48 0h-7.813l5.032 20.219H30.906L25.875 0h-7.86l5.079 20.219H7.719v7.468h17.187L29 44H13.281v7.516h17.625l4.985 20.265z" id="DejaVuSans-35"/><path d="M30.61 48.39q-7.22 0-11.422-5.64-4.204-5.64-4.204-15.453 0-9.813 4.172-15.453 4.188-5.64 11.453-5.64 7.188 0 11.375 5.655 4.203 5.672 4.203 15.438 0 9.719-4.203 15.406-4.187 5.688-11.375 5.688zm0 7.61q11.718 0 18.406-7.625 6.703-7.61 6.703-21.078 0-13.422-6.703-21.078-6.688-7.64-18.407-7.64-11.765 0-18.437 7.64-6.656 7.656-6.656 21.078 0 13.469 6.656 21.078Q18.844 56 30.609 56z" id="DejaVuSans-111"/><path d="M37.11 75.984V68.5h-8.594q-4.828 0-6.72-1.953-1.874-1.953-1.874-7.031v-4.828h14.797v-6.985H19.922V0H10.89v47.703H2.297v6.984h8.594V58.5q0 9.125 4.25 13.297 4.25 4.187 13.468 4.187z" id="DejaVuSans-102"/><path d="M44.281 53.078v-8.5q-3.797 1.953-7.906 2.922-4.094.984-8.5.984-6.688 0-10.031-2.047-3.344-2.046-3.344-6.156 0-3.125 2.39-4.906 2.391-1.781 9.626-3.39l3.078-.688q9.562-2.047 13.593-5.781 4.032-3.735 4.032-10.422 0-7.625-6.032-12.078-6.03-4.438-16.578-4.438-4.39 0-9.156.86Q10.688.296 5.422 2v9.281q4.984-2.594 9.812-3.89 4.829-1.282 9.579-1.282 6.343 0 9.75 2.172 3.421 2.172 3.421 6.125 0 3.656-2.468 5.61-2.453 1.953-10.813 3.765l-3.125.735q-8.344 1.75-12.062 5.39-3.704 3.64-3.704 9.985 0 7.718 5.47 11.906Q16.75 56 26.811 56q4.97 0 9.36-.734 4.406-.72 8.11-2.188z" id="DejaVuSans-115"/><path d="M56.203 29.594v-4.39H14.891q.593-9.282 5.593-14.142 5-4.859 13.938-4.859 5.172 0 10.031 1.266 4.86 1.265 9.656 3.812v-8.5Q49.266.734 44.187-.344 39.11-1.422 33.892-1.422q-13.094 0-20.735 7.61-7.64 7.625-7.64 20.625 0 13.421 7.25 21.296Q20.016 56 32.328 56q11.031 0 17.453-7.11 6.422-7.093 6.422-19.296zm-8.984 2.64q-.094 7.36-4.125 11.75-4.032 4.407-10.672 4.407-7.516 0-12.031-4.25-4.516-4.25-5.203-11.97z" id="DejaVuSans-101"/></defs><use xlink:href="#DejaVuSans-35"/><use x="83.789" xlink:href="#DejaVuSans-32"/><use x="115.576" xlink:href="#DejaVuSans-111"/><use x="176.758" xlink:href="#DejaVuSans-102"/><use x="211.963" xlink:href="#DejaVuSans-32"/><use x="243.75" xlink:href="#DejaVuSans-99"/><use x="298.73" xlink:href="#DejaVuSans-97"/><use x="360.01" xlink:href="#DejaVuSans-115"/><use x="412.109" xlink:href="#DejaVuSans-101"/><use x="473.633" xlink:href="#DejaVuSans-115"/></g></g><g style="fill:#696969" transform="matrix(.24 0 0 -.24 252.577 71.76)" id="text_19"><defs><path d="M9.813 72.906h13.28l32.329-60.984v60.984h9.562V0h-13.28L19.39 60.984V0H9.813z" id="DejaVuSans-78"/><path d="M4.203 54.688h8.985l11.234-42.672 11.172 42.672h10.593l11.235-42.672 11.187 42.672h8.985L63.28 0H52.688L40.922 44.828 29.109 0H18.5z" id="DejaVuSans-119"/><path d="M64.406 67.281v-10.39q-4.984 4.64-10.625 6.922-5.64 2.296-11.984 2.296-12.5 0-19.14-7.64-6.641-7.64-6.641-22.094 0-14.406 6.64-22.047 6.64-7.64 19.14-7.64 6.345 0 11.985 2.296 5.64 2.297 10.625 6.938V5.609Q59.234 2.094 53.437.33q-5.78-1.75-12.218-1.75-16.563 0-26.094 10.124-9.516 10.14-9.516 27.672 0 17.578 9.516 27.703 9.531 10.14 26.094 10.14 6.531 0 12.312-1.734 5.797-1.734 10.875-5.203z" id="DejaVuSans-67"/><path d="M25.39 72.906h8.297L8.297-9.28H0z" id="DejaVuSans-47"/><path d="M9.813 72.906h9.859V42.094L52.39 72.906h12.703L28.906 38.922 67.672 0H54.688L19.672 35.11V0h-9.86z" id="DejaVuSans-75"/><path d="M45.406 46.39v29.594h8.985V0h-8.985v8.203Q42.578 3.328 38.25.953q-4.313-2.375-10.375-2.375-9.906 0-16.14 7.906-6.22 7.922-6.22 20.813 0 12.89 6.22 20.797Q17.968 56 27.874 56q6.063 0 10.375-2.375 4.328-2.36 7.156-7.234zm-30.61-19.093q0-9.906 4.079-15.547 4.078-5.64 11.203-5.64 7.125 0 11.219 5.64 4.11 5.64 4.11 15.547 0 9.906-4.11 15.547-4.094 5.64-11.219 5.64-7.125 0-11.203-5.64-4.078-5.64-4.078-15.547z" id="DejaVuSans-100"/><path d="M9.422 54.688h8.984V0H9.422zm0 21.296h8.984v-11.39H9.422z" id="DejaVuSans-105"/><path d="M31 75.875q-6.531-11.219-9.719-22.219-3.172-10.984-3.172-22.265 0-11.266 3.203-22.328Q24.517-2 31-13.188h-7.813Q15.875-1.704 12.235 9.375q-3.64 11.078-3.64 22.016 0 10.89 3.61 21.922 3.624 11.046 10.983 22.562z" id="DejaVuSans-40"/><path d="M52 44.188q3.375 6.062 8.063 8.937Q64.75 56 71.093 56q8.548 0 13.188-5.984 4.64-5.97 4.64-17V0h-9.03v32.719q0 7.86-2.797 11.656-2.781 3.813-8.485 3.813-6.984 0-11.046-4.641-4.047-4.625-4.047-12.64V0h-9.032v32.719q0 7.906-2.78 11.687-2.782 3.782-8.595 3.782-6.89 0-10.953-4.657-4.047-4.656-4.047-12.625V0H9.08v54.688h9.03v-8.5q3.078 5.03 7.375 7.421Q29.781 56 35.687 56q5.97 0 10.141-3.031Q50 49.953 52 44.187z" id="DejaVuSans-109"/><path d="M8.016 75.875h7.812q7.313-11.516 10.953-22.563 3.64-11.03 3.64-21.921 0-10.938-3.64-22.016-3.64-11.078-10.953-22.563H8.016Q14.5-2 17.703 9.063q3.203 11.063 3.203 22.329 0 11.28-3.203 22.265-3.203 11-9.687 22.219z" id="DejaVuSans-41"/></defs><use xlink:href="#DejaVuSans-78"/><use x="74.805" xlink:href="#DejaVuSans-101"/><use x="136.328" xlink:href="#DejaVuSans-119"/><use x="218.115" xlink:href="#DejaVuSans-32"/><use x="249.902" xlink:href="#DejaVuSans-67"/><use x="319.727" xlink:href="#DejaVuSans-97"/><use x="381.006" xlink:href="#DejaVuSans-115"/><use x="433.105" xlink:href="#DejaVuSans-101"/><use x="494.629" xlink:href="#DejaVuSans-115"/><use x="546.729" xlink:href="#DejaVuSans-47"/><use x="580.42" xlink:href="#DejaVuSans-49"/><use x="644.043" xlink:href="#DejaVuSans-48"/><use x="707.666" xlink:href="#DejaVuSans-48"/><use x="771.289" xlink:href="#DejaVuSans-75"/><use x="836.865" xlink:href="#DejaVuSans-32"/><use x="868.652" xlink:href="#DejaVuSans-49"/><use x="932.275" xlink:href="#DejaVuSans-52"/><use x="995.898" xlink:href="#DejaVuSans-100"/><use x="1059.375" xlink:href="#DejaVuSans-32"/><use x="1091.162" xlink:href="#DejaVuSans-105"/><use x="1118.945" xlink:href="#DejaVuSans-110"/><use x="1182.324" xlink:href="#DejaVuSans-99"/><use x="1237.305" xlink:href="#DejaVuSans-105"/><use x="1265.088" xlink:href="#DejaVuSans-100"/><use x="1328.564" xlink:href="#DejaVuSans-101"/><use x="1390.088" xlink:href="#DejaVuSans-110"/><use x="1453.467" xlink:href="#DejaVuSans-99"/><use x="1508.447" xlink:href="#DejaVuSans-101"/><use x="1569.971" xlink:href="#DejaVuSans-32"/><use x="1601.758" xlink:href="#DejaVuSans-40"/><use x="1640.771" xlink:href="#DejaVuSans-115"/><use x="1692.871" xlink:href="#DejaVuSans-117"/><use x="1756.25" xlink:href="#DejaVuSans-109"/><use x="1853.662" xlink:href="#DejaVuSans-41"/></g><g id="legend_1"><path d="M128.2 184.5h136.45q3.2 0 3.2-3.2V88.96q0-3.2-3.2-3.2H128.2q-3.2 0-3.2 3.2v92.34q0 3.2 3.2 3.2z" style="fill:none;opacity:.8;stroke:#ccc;stroke-linejoin:miter" id="patch_5"/><path d="M131.4 98.718h32" style="fill:none;stroke:#000;stroke-linecap:round;stroke-width:1.5" id="line2d_8"/><g style="fill:#696969" transform="matrix(.16 0 0 -.16 176.2 104.317)" id="text_20"><defs><path d="M8.688 72.906h9.921V28.61q0-11.718 4.235-16.875 4.25-5.14 13.781-5.14 9.469 0 13.719 5.14 4.25 5.157 4.25 16.875v44.297H64.5V27.391q0-14.25-7.063-21.532-7.046-7.28-20.812-7.28-13.828 0-20.89 7.28-7.047 7.282-7.047 21.532z" id="DejaVuSans-85"/><path d="M53.516 70.516V60.89q-5.61 2.687-10.594 4-4.984 1.328-9.625 1.328-8.047 0-12.422-3.125t-4.375-8.89q0-4.845 2.906-7.313 2.907-2.453 11.016-3.97l5.953-1.218q11.031-2.11 16.281-7.406 5.25-5.297 5.25-14.172 0-10.61-7.11-16.078-7.093-5.469-20.812-5.469-5.172 0-11.015 1.172Q13.14.922 6.89 3.219v10.156q6-3.36 11.765-5.078 5.766-1.703 11.328-1.703 8.438 0 13.032 3.312 4.593 3.328 4.593 9.485 0 5.359-3.297 8.39-3.296 3.032-10.812 4.547L27.484 33.5q-11.03 2.188-15.968 6.875-4.922 4.688-4.922 13.047 0 9.672 6.812 15.234 6.813 5.563 18.766 5.563 5.14 0 10.453-.938 5.328-.922 10.89-2.765z" id="DejaVuSans-83"/></defs><use xlink:href="#DejaVuSans-85"/><use x="73.193" xlink:href="#DejaVuSans-83"/></g><path d="M131.4 122.203h32" style="fill:none;stroke:#009e73;stroke-linecap:round;stroke-width:1.5" id="line2d_10"/><g style="fill:#696969" transform="matrix(.16 0 0 -.16 176.2 127.802)" id="text_21"><use xlink:href="#DejaVuSans-78"/><use x="74.805" xlink:href="#DejaVuSans-74"/></g><path d="M131.4 145.688h32" style="fill:none;stroke:#d55e00;stroke-linecap:round;stroke-width:1.5" id="line2d_12"/><g style="fill:#696969" transform="matrix(.16 0 0 -.16 176.2 151.287)" id="text_22"><defs><path d="M19.672 34.813V8.108H35.5q7.953 0 11.781 3.297 3.844 3.297 3.844 10.078 0 6.844-3.844 10.078-3.828 3.25-11.781 3.25zm0 29.984V42.828h14.61q7.218 0 10.75 2.703 3.546 2.719 3.546 8.282 0 5.515-3.547 8.25-3.531 2.734-10.75 2.734zm-9.86 8.11h25.204q11.28 0 17.375-4.688Q58.5 63.53 58.5 54.89q0-6.703-3.125-10.657-3.125-3.953-9.188-4.922 7.282-1.562 11.313-6.53 4.031-4.954 4.031-12.376 0-9.765-6.64-15.093Q48.25 0 35.984 0H9.812z" id="DejaVuSans-66"/><path d="M45.406 27.984q0 9.766-4.031 15.125-4.016 5.375-11.297 5.375-7.219 0-11.25-5.375-4.031-5.359-4.031-15.125 0-9.718 4.031-15.093t11.25-5.375q7.281 0 11.297 5.375 4.031 5.375 4.031 15.093zm8.985-21.203q0-13.953-6.203-20.765Q42-20.797 29.203-20.797q-4.734 0-8.937.703-4.203.703-8.157 2.172v8.735q3.954-2.141 7.813-3.157 3.86-1.031 7.86-1.031 8.843 0 13.234 4.61 4.39 4.609 4.39 13.937v4.453q-2.781-4.844-7.125-7.234Q33.938 0 27.875 0 17.828 0 11.672 7.656q-6.156 7.672-6.156 20.328 0 12.688 6.156 20.344Q17.828 56 27.875 56q6.063 0 10.406-2.39 4.344-2.391 7.125-7.22v8.297h8.985z" id="DejaVuSans-103"/></defs><use xlink:href="#DejaVuSans-66"/><use x="68.604" xlink:href="#DejaVuSans-101"/><use x="130.127" xlink:href="#DejaVuSans-114"/><use x="169.49" xlink:href="#DejaVuSans-103"/><use x="232.967" xlink:href="#DejaVuSans-101"/><use x="294.49" xlink:href="#DejaVuSans-110"/></g><path d="M131.4 169.173h32" style="fill:none;stroke:#0072b2;stroke-linecap:round;stroke-width:1.5" id="line2d_14"/><g style="fill:#696969" transform="matrix(.16 0 0 -.16 176.2 174.773)" id="text_23"><defs><path d="M44.39 34.188q3.172-1.079 6.172-4.594 3-3.516 6.032-9.672L66.609 0H56l-9.313 18.703q-3.624 7.328-7.015 9.719-3.39 2.39-9.25 2.39h-10.75V0h-9.86v72.906h22.266q12.5 0 18.656-5.234 6.157-5.219 6.157-15.766 0-6.89-3.203-11.437-3.204-4.532-9.297-6.282zM19.673 64.797V38.922h12.406q7.125 0 10.766 3.297 3.64 3.297 3.64 9.687 0 6.39-3.64 9.64-3.64 3.25-10.766 3.25z" id="DejaVuSans-82"/><path d="M54.89 33.016V0h-8.984v32.719q0 7.765-3.031 11.61-3.031 3.858-9.078 3.858-7.281 0-11.484-4.64-4.204-4.625-4.204-12.64V0H9.08v75.984h9.03V46.188q3.235 4.937 7.594 7.374Q30.078 56 35.797 56q9.422 0 14.25-5.828 4.844-5.828 4.844-17.156z" id="DejaVuSans-104"/></defs><use xlink:href="#DejaVuSans-82"/><use x="64.982" xlink:href="#DejaVuSans-117"/><use x="128.361" xlink:href="#DejaVuSans-116"/><use x="167.57" xlink:href="#DejaVuSans-104"/><use x="230.949" xlink:href="#DejaVuSans-101"/><use x="292.473" xlink:href="#DejaVuSans-114"/><use x="333.586" xlink:href="#DejaVuSans-102"/><use x="368.791" xlink:href="#DejaVuSans-111"/><use x="429.973" xlink:href="#DejaVuSans-114"/><use x="469.336" xlink:href="#DejaVuSans-100"/></g></g></g></g><defs><clipPath id="p322234224e"><path d="M117 77.76h725.4v498.96H117z"/></clipPath></defs></svg>