<svg height="864" viewBox="0 0 936 648" width="1248" xmlns="http://www.w3.org/2000/svg" xmlns:xlink="http://www.w3.org/1999/xlink"><defs><style>*{stroke-linecap:butt;stroke-linejoin:round}</style></defs><g id="figure_1"><path d="M0 648h936V0H0z" fill="#fff" id="patch_1"/><g id="axes_1"><path d="M117 576.72h725.4V77.76H117z" fill="none" id="patch_2"/><path clip-path="url(#p9b7eeb50c9)" d="M149.973 426.431l63.261-.088 7.668-.162 5.751-.349 3.835-.397 1.917-.263 1.917-.447 1.917-.61 3.834-1.722 1.917-1.238 3.834-2.792 1.917-1.414 5.75-5.831 3.835-2.823 1.917-1.959 1.917-1.687 1.917-1.02 3.834-2.346 3.834.661 1.917.519 1.917.711 1.917.965 1.917 1.812 1.917 2.311 1.917 1.274 1.917 2.226 1.917 2.955 3.834 4.528 1.917 2.248 1.917 2.639 1.917 1.091 5.751 2.54 1.917 1.05 1.917-.094 1.917-1.514 1.917.407 1.917-.079 1.917-.593 1.917.293 1.917-.256 1.917-.027 1.917.51 1.917.13 1.917.305 1.917.478 1.917.047 1.918.504 1.917 1.243 1.917 1.842 1.917.704 1.917.086 1.917-.14 1.917.111 1.917-.225 1.917.05 1.917-.79 1.917-.127 1.917-.424 3.834-.29 1.917-.453 1.917-.675 1.917-.417 1.917-.535 1.917-.315 1.917.635 1.917-.24 1.917.55 1.917-.187 3.834-.938 1.917.151 1.917-.773 1.917-.204 1.917.372 3.834-.182 3.834.37 1.917-.157 1.917-.44 1.917-.885 1.917-.09 1.917-.262 3.834.03 1.917-.458 1.917-.335 1.917-1.149 3.834-2.524 1.917-1.602 1.917-1.844 3.834-4.424 1.917-1.737 1.917-2.137 1.917-1.288 1.918-1.586 1.917-1.749 1.917-1.183 3.834-2.832 1.917-.3 1.917-.792 1.917.628 3.834 2.138 1.917.543 1.917 1.102 1.917.113 1.917.476 3.834-1.183 3.834 1.812 1.917.398 1.917.052 1.917 1.526 1.917.132 1.917.333 1.917-.038 1.917 1.829 1.917.753 1.917 2.227 1.917 1.238 1.917 3.14 1.917 2.89 3.834 3.779 1.917 2.191 1.917 2.647 1.917.997 1.917 1.61 5.751 5.41 1.917 2.516 1.917.875 1.917 1.137 3.834-.256 3.834-2.688 1.917-.034 1.917-.554 1.917-1.083 1.917.146 1.917-1.295 1.917 1.22 1.917-.06 1.918-1.139 1.917.622 1.917.458 3.834.58 1.917 1.105 1.917.675 1.917-.379 1.917-.577 1.917.757 1.917-1.464 1.917-.113 1.917-3.22 1.917.415 1.917-1.345 1.917-2.547 1.917-1.733 1.917.208 1.917.06 1.917 2.648 1.917-.143 3.834 2.239 1.917.122 1.917-.087 1.917-1.325 1.917-1.11 1.917-3.696 1.917-.842 1.917.432 1.917-.41 1.917-1.081 1.917-1.448 1.917-5.423 1.917.173 1.917-1.164 1.917-2.344 1.917-.723 1.917.32 1.917 1.471 1.917 3.906 3.834 1.237 1.917 1.361 1.917-.053 1.917-.332 1.917.499 1.917 1.95 1.917-1.162 1.917-1.516 1.917.063 1.917-.8 3.835-2.88 1.917-3.234 1.917-.1 1.917-.915 1.917-2.78 1.917.605 1.917.302 3.834-3.751 1.917.32 1.917-.034 1.917-1.052 1.917-3.05 1.917-1.286 1.917-.058 1.917-.54 1.917-1.895 1.917-1.25 1.917-.568 1.917-1.198 1.917-12.067 1.917-.871 1.917-.646 1.917-3.336 1.917-3.074 1.917-2.646 1.917-2.312 1.917 7.347 1.917-4.567 1.917-4.995 1.917-4.041 1.917-3.555 1.917-4.708 1.917-4.392 1.917 6.79 1.917-1.81 1.917-1.322 1.917 1.036 1.917-.108 1.917 1.304 1.917 3.863 1.917-5.842 1.917 4.738 1.917 5.902 1.917 3.72 1.917 15.244 1.917 6.96 1.917 10.57 1.917 8.145 1.917 5.782 1.917 1.907 1.917.747 1.918-8.703 1.917-1.532 1.917-7.797 1.917-5.97 1.917-4.377 1.917-4.903 1.917 1.148 1.917-9.98 1.917-.72 1.917-6.2 1.917-3.4 1.917-2.613 1.917 6.23 1.917-.513 1.917 10.094 1.917 4.44 1.917 13.78 1.917 5.484 1.917 7.37 1.917 5.819 1.917 3.74 1.917 6.61 1.917 18.886 1.917 3.38 1.917 7.49 1.917 4.34 1.917-4.863 1.917 2 1.917.282 1.917-7.917 1.917-17.52 1.917-6.984 1.917-4.632 1.917-3.062 1.917-5.114 1.917-13.025 1.917-35.854 1.917-.15 1.917-9.796 1.917-5.07h0" fill="none" stroke="#000" stroke-linecap="round" stroke-width="1.5" id="line2d_1"/><path clip-path="url(#p9b7eeb50c9)" d="M149.973 426.431l69.012-.093 5.751-.216 3.835-.228 3.834-.93 1.917-.905 1.917-1.765 1.917-.707 1.917-2.43 1.917-3.302 1.917-4.915 1.917-4.33 1.917-3.26 1.917-12.588 5.75-30.83 1.918-13.143 1.917-6.667 1.917-15.643 1.917-3.255 1.917-13.049 1.917-8.847 1.917-3.226 1.917 3.01 1.917-3.062 1.917 6.445 1.917 11.138 3.834 29.644 1.917 7.93 1.917 18.53 1.917 1.84 1.917 21.312 1.917.959 1.917 16.169 1.917 14.843 1.917 5.475 1.917-2.548 1.917 11.25 1.917-10.578 1.917 2.443 1.917 1.163 1.917-6.078 1.917 3.997 1.917 2.946 1.917 10.676 1.917 1.49 1.917 14.217 1.917-4.336 1.917 1.029 1.917 3.892 1.917 8.151 1.917-1.887 1.917 13.86 1.918 2.782 1.917-1.355 3.834 14.474 1.917-7.27 1.917 3.542 1.917-3.477 1.917-6.685 1.917 5.487 1.917-1.97 1.917-1.624 1.917-5.382 1.917-2.986 1.917-9.77 1.917-3.401 1.917-4.424 1.917-.63 1.917-8.053 1.917 3.845 1.917-7.053 1.917.292 1.917-4.067 1.917-2.297 1.917-4.774 1.917.018 1.917 4.476 1.917 1.233 1.917 5.247 1.917 3.898 1.917 1.601 1.917-3.418 1.917 2.162 1.917-3.717 1.917.082 1.917-3.144 1.917.573 1.917 1.367 1.917 2.829 1.917-1.28 1.917-2.092 3.834-.777 1.917-3.892 1.917-1.549 1.917-.637 1.917-3.512 1.917-1.104 1.917-1.94 3.834 1.367 1.917-2.676 1.917-.362 1.918.023 1.917.403 1.917-.327 1.917-2.121 1.917-1.18 1.917.122 1.917-.602 1.917-.093 1.917-.415 1.917.806 1.917-.158 1.917.707 1.917.03 1.917-.573 1.917.058 1.917-1.198 1.917-.362 1.917-.555 1.917.678 1.917 2.08 1.917.403 1.917 2.548 1.917 1.075 1.917-.175 1.917-.666 1.917-1.45 1.917-2.33 1.917-1.181 1.917-3.214 1.917-1.467 1.917-.14 1.917.683 1.917.486 1.917-3.302 1.917.403 1.917-1.186 1.917.742 1.917.117 1.917.947 1.917-.918 1.917 4.248 1.917 1.526 1.917 3.138 1.917 1.7 1.917.503 1.917-.123 1.917-2.016 1.917.14 1.917-.234 1.917.783 1.917-1.425 3.834-.182 1.918 4.371 1.917-.263 1.917-.882 1.917-1.303 1.917.38 1.917.654 1.917.923 1.917.415 1.917.743 1.917-.129 1.917-2.034 1.917-.315 3.834-1.578 1.917-3.676 1.917-2.18 1.917.848 1.917 1.14 1.917-.398 1.917.275 1.917-.579 1.917.877 1.917.251 1.917-1.087 1.917.345 1.917.62 1.917-.912 1.917-.187 1.917-.497 1.917.392 1.917-.088 1.917-.748 3.834-1.005 1.917-.012 1.917.357 1.917-.263 1.917-1.163 1.917-1.741 1.917-1.029 1.917.818 1.917-1.624 1.917.432 1.917-1.075 1.917-1.227 1.917 1.309 1.917.625 1.917-.865 1.917 1.443 1.917-4.02 1.917-.403 1.917 2.185 1.918.73 1.917 1.228 1.917-2.244 1.917-1.104 1.917 1.782 1.917 1.134 1.917.245 1.917-3.752 1.917-5.013 1.917.461 1.917-2.115 1.917 2.518 1.917-.993 1.917-6.41 1.917.987 1.917-.876 1.917-2.46 1.917-1.128 1.917-4.453 1.917-6.23 1.917 3.676 1.917-.794 1.917 3.027 1.917-1.368 1.917-5.06 1.917-1.976 1.917-.344 1.917-5.885 1.917-2.285 1.917-3.704 1.917-6.92 1.917.13 1.917-6.61 1.917-.981 1.917-9.496 1.917-10.688 1.917.695 1.917.14h1.917l1.917-.187 1.917.421 1.917 10.326 1.917 5.662 1.917-3.202 1.917 10.483 1.917 4.067 1.917 8.012 1.917 6.305 1.917 11.056 1.917 14.55 1.917 2.373 1.917-1.005 1.917 3.658 1.918 1.397 1.917-9.508 1.917-7.222 1.917-15.977 1.917 5.75 1.917-3.74 3.834.45 1.917 13.224 1.917-9.127 1.917 11.564 1.917-8.327 1.917 12.213 1.917-4.599 1.917 7.51 1.917 10.629 1.917 20.727 1.917 6.504 1.917 11.53 1.917 1.817 1.917 4.774 1.917-1.023 1.917-18.997 1.917 7.994 1.917 5.347 1.917 9.192 1.917-4.436 1.917 8.24 1.917-7.428 1.917-1.186 1.917-20.435 1.917-1.01 1.917-4.068 1.917-7.59 3.834-16.824 1.917.754 1.917-12.6 1.917-25.676 1.917-19.57h0" fill="none" stroke="#009e73" stroke-linecap="round" stroke-width="1.5" id="line2d_2"/><path clip-path="url(#p9b7eeb50c9)" d="M149.973 426.431l57.51-.055 11.502-.334 5.751-.39 1.917-.78h1.918l1.917-1.558 1.917-1.17 1.917-2.45 1.917-8.964 1.917-2.227 1.917-.334 1.917-5.178 1.917-6.792 3.834-7.405 1.917-12.36 1.917-13.976 1.917-16.647 1.917-13.14 1.917-7.405 1.917-17.483 1.917-23.496 1.917-3.118 1.917-23.774 1.917-30.901 1.917-.112 1.917-13.307 1.917-9.743 1.917 17.427 1.917 19.988 1.917 24.276 1.917 43.038 1.917 13.418 1.917 29.398 1.917 37.415 1.917 21.492 1.917 7.015 1.917 33.351 1.917 38.696 1.917 2.338 1.917 16.592 1.917 12.973 1.917-8.463 1.917 3.452 1.917-2.338 1.917-29.788 1.917 13.586 3.834-15.2 1.917 12.026 1.917 16.202 1.917-2.06 1.917 5.4 1.917 3.898 1.917 5.902 1.917-1.114 1.917 2.395 1.918-6.849 1.917-1.113 1.917 6.904 1.917-9.076 1.917-13.084 1.917-4.621 1.917-7.461 1.917-2.227 1.917-6.069 1.917-10.412 1.917-.334 1.917-2.282 1.917 1.726 1.917-4.01 1.917-11.691 1.917-4.176 1.917-.724 1.917-5.958 1.917.167 1.917-6.347 1.917-3.619 1.917-12.75 1.917 1.114 1.917-.947 3.834 7.294 1.917 1.726 1.917-2.561 1.917 13.25 1.917-1.948 1.917-4.287 1.917 3.452 1.917.167 1.917-.278 1.917.723 1.917 2.784 1.917 1.448 1.917-3.34 3.834-7.74 1.917-2.728 1.917 2.784 1.917-4.009 1.917-.223 1.917 4.12 1.917-2.338 1.917-.056 1.917 1.392 1.917 2.784 1.917-16.258 1.917-6.124 1.917 2.84 1.918-4.01 1.917.557 1.917.112 1.917-3.397 1.917 15.312 1.917 1.837 1.917-2.895 1.917.946 1.917-.668 1.917.334 1.917-1.837 1.917 16.09 1.917 4.51 1.917-.445 1.917 5.79 1.917.223 1.917 1.17 1.917 1.893 1.917-15.534 1.917.055 1.917 1.448 1.917.39 1.917-1.392 1.917-1.615 1.917.445 1.917.669 1.917-.836 1.917-1.503 1.917-4.009 1.917-.556 1.917-2.673 1.917-2.227 1.917-.78 1.917-3.953 1.917.056 1.917-.89 1.917 3.173 1.917.334 1.917 2.338 1.917.112 1.917 2.672 1.917-1.002 1.917.947h1.917l1.917 3.396 1.917-.334 1.917-1.336 1.917-3.452 1.917-.724 1.917-2.172 1.917-4.12 1.917.501 1.917.891 1.918 5.345 3.834 6.96 1.917 4.51 1.917 3.118 3.834-3.786 1.917-2.951 1.917 5.233 1.917-.39 1.917.279 1.917 1.893 1.917-1.949 1.917-1.058 3.834-11.525 1.917.835 1.917-3.396 1.917-2.283 1.917 3.007 1.917 2.004 1.917 4.176 1.917-.223 1.917.279 1.917 1.614 1.917.891 1.917 2.561 1.917-.835 1.917-1.113 1.917.39 1.917-3.286 1.917.223 1.917-.835 1.917-4.844 1.917.501 1.917 1.002 1.917.446 1.917.055 1.917-1.224 3.834-.39 3.834-.78 1.917-1.447 1.917-.613 3.834-.78 1.917 1.727 1.917-1.17 1.917-2.394 1.917-1.28 1.917-.613 3.835-.445 1.917-3.842 1.917-.445 1.917 1.113 1.917 1.392 1.917 1.838 1.917-1.893 1.917-2.896 1.917 1.17 1.917-2.172 1.917.668 1.917.279 1.917-3.452 1.917.222 1.917-.334 1.917.112 1.917 2.505 1.917-.557 1.917-6.625 1.917.668 1.917-.446 1.917 1.615 1.917-1.67 1.917-3.675 1.917 1.893 1.917.501 1.917-6.792 1.917-1.67 1.917 1.614 1.917-4.399 1.917-7.182 1.917-15.144 1.917-1.002 1.917-3.954 1.917-8.407 1.917-1.113 1.917-3.452 1.917.723 1.917-3.674 1.917.835 1.917 8.073 1.917 2.673 1.917-12.416 3.834 20.712 1.917 18.317 1.917-3.786 1.917 15.924 1.917 5.345 1.917 8.686 1.917-1.67 1.917 2.282 1.918-2.784 1.917-4.342 1.917-13.697 1.917-2.283 1.917 9.02 1.917 1.447 1.917 1.838 1.917 2.784 1.917 29.843L750 419.36l1.917 15.089 1.917-9.354 1.917 8.797 1.917-4.565 1.917 7.85 1.917-2.283 1.917 26.67 1.917 2.394 1.917 10.634 1.917-4.51 1.917-8.796 1.917-9.41 1.917-20.823 1.917 3.953 1.917-1.782 1.917 3.23 1.917-.724 1.917 10.968 1.917-7.405 1.917 4.176 1.917-17.427 1.917-4.176 1.917-251.272 1.917-17.873 1.917-9.131 1.917-1.782 1.917-9.02 1.917-11.58 1.917-20.768 1.917 237.075h0" fill="none" stroke="#d55e00" stroke-linecap="round" stroke-width="1.5" id="line2d_3"/><path clip-path="url(#p9b7eeb50c9)" d="M149.973 426.431h84.349l1.917-5.671h3.834l1.917-2.836h1.917l3.834-17.014 1.917-11.343 1.917-2.836 1.917-8.507 1.917-2.836 3.834-28.357 1.917-11.343 1.917 17.014 1.917-14.179 1.917-36.864 1.917-22.686 1.917 5.671 1.917 17.015 1.917 19.85 1.917-11.343h1.917l1.917 48.208 1.917 34.029 1.917 5.671 1.917 17.015 1.917 8.507 1.917 2.835 1.917 19.85 1.917 34.03 1.917 25.521 1.917-2.835 1.917-5.672 1.917-14.179 1.917 22.686 1.917-2.835 1.917-36.865 1.917-31.193 1.917 8.507 1.917 5.671 1.917 11.343 1.917-8.507 1.917 5.672h3.834l1.917 11.343 1.917-2.836 3.835 17.014 1.917 11.343 1.917 5.672h1.917l1.917-11.343 1.917-19.85 1.917-11.343 1.917-8.508 1.917-11.343 1.917 2.836h1.917l1.917-2.836 1.917 8.508 1.917-2.836 1.917-5.672 1.917-2.835 1.917-8.508h1.917l3.834 22.686 3.834 5.672 1.917-5.672h3.834l1.917-19.85 1.917-8.507 3.834-5.671 1.917 2.835h3.834l1.917 8.507h1.917l1.917-2.835h1.917l1.917 2.835h3.834l1.917 8.508h1.917l1.917 2.835h1.917l1.917-2.835h3.834l1.917-14.179 1.917 2.836h1.917l1.917-2.836h5.752l1.917-5.671h1.917l1.917-2.836 1.917 2.836h7.668l1.917-5.672 1.917 5.672h1.917l1.917-2.836h3.834l1.917 17.014h5.75l1.918 2.836h3.834l1.917 11.343 1.917-2.836 1.917-5.671h1.917l1.917 5.671h3.834l1.917-14.179 1.917 8.508 1.917 2.835 1.917-2.835 1.917-5.672h3.834l1.917-5.671 1.917 5.671h1.917l1.917 5.672h5.751l1.917 5.671 1.917-8.507 1.917-2.836h1.917l1.917-2.836h3.834l1.917-2.835h1.917l1.917 5.671 1.918-5.671h7.668l1.917-5.672 1.917-2.835h1.917l1.917 5.671h5.75l1.918 5.671 1.917-11.342 1.917 5.671h7.668l1.917-2.836 1.917 14.179h1.917l1.917-2.836h5.751l3.834 5.672 1.917-5.672h5.751l1.917-8.507 1.917 8.507 1.917-8.507 1.917 2.836h5.751l1.917 11.343 1.917-8.508 1.917 8.508 1.917 2.835h7.668l1.917-2.835 1.917-17.015 1.917-28.357 1.917-5.672h3.835l1.917-8.507 1.917-14.179 1.917 8.508 1.917 11.343 5.75-25.522 1.918 5.671 1.917 19.85 1.917 5.672 1.917 39.7 1.917 19.85 3.834 17.015 1.917-11.343 1.917 2.836 1.917-14.179 1.917-25.521 1.917-5.672 3.834 17.014 1.917-17.014 1.917-8.507 1.917 2.836 1.917-8.508 1.917-14.178 5.751-25.522 1.917 2.836 1.917 22.686 1.917-25.522 1.917 8.507h3.834l1.917 25.522 1.917-31.193 1.917-28.358 1.917 19.85 1.917-19.85 1.917-14.179h1.917l1.917 25.522 1.917 19.85 1.917-2.835 1.917 62.386 1.917 45.372 1.917-42.536h1.917l1.917-8.507 1.917 25.521 1.917 19.85 1.918-70.893 1.917-48.208 1.917 39.7h1.917l1.917 2.836 1.917-25.521h1.917l1.917-28.358 1.917 2.836 1.917 73.73h1.917l1.917-8.508 1.917 5.672 1.917 8.507 1.917 96.415 1.917 45.372 1.917-25.522h1.917l1.917-45.372 1.917 19.85 1.917-73.729 1.917-8.507 1.917 5.671 1.917-31.193h3.834l1.917-2.835 1.917 28.357 1.917-68.058 1.917 22.686h3.834l1.917 28.358 1.917-42.537 1.917 70.894 1.917 2.836 1.917-82.237 1.917-28.357h1.917l1.917 39.7 1.917 14.179h0" fill="none" stroke="#0072b2" stroke-linecap="round" stroke-width="1.5" id="line2d_4"/><path clip-path="url(#p9b7eeb50c9)" d="M117 426.431h725.4" fill="none" stroke="red" stroke-dasharray="1.5,2.475" stroke-width="1.5" id="line2d_5"/><path d="M117 576.72V77.76" fill="none" stroke="#d3d3d3" stroke-linecap="square" stroke-width="1.25" id="patch_3"/><path d="M117 576.72h725.4" fill="none" stroke="#d3d3d3" stroke-linecap="square" stroke-width="1.25" id="patch_4"/><g id="matplotlib.axis_1"><g id="xtick_1"><g transform="matrix(.16 0 0 -.16 186.638 598.378)" fill="#696969" id="text_1"><defs><path d="M9.813 72.906h14.703l18.593-49.61 18.703 49.61h14.704V0H66.89v64.016l-18.797-50h-9.907l-18.796 50V0H9.813z" id="DejaVuSans-77"/><path d="M34.281 27.484q-10.89 0-15.093-2.484-4.204-2.484-4.204-8.5 0-4.781 3.157-7.594 3.156-2.797 8.562-2.797 7.485 0 12 5.297 4.516 5.297 4.516 14.078v2zm17.922 3.72V0H43.22v8.297Q40.14 3.328 35.547.953q-4.594-2.375-11.234-2.375-8.391 0-13.36 4.719Q6 8.016 6 15.922q0 9.219 6.172 13.906 6.187 4.688 18.437 4.688h12.61v.89q0 6.203-4.078 9.594-4.078 3.39-11.453 3.39-4.688 0-9.141-1.124-4.438-1.125-8.531-3.375v8.312q4.921 1.906 9.562 2.844 4.64.953 9.031.953 11.875 0 17.735-6.156 5.86-6.14 5.86-18.64z" id="DejaVuSans-97"/><path d="M41.11 46.297q-1.516.875-3.297 1.281Q36.03 48 33.89 48q-7.625 0-11.703-4.953-4.079-4.953-4.079-14.234V0H9.08v54.688h9.03v-8.5q2.844 4.984 7.375 7.39Q30.031 56 36.531 56q.922 0 2.047-.125 1.125-.11 2.484-.36z" id="DejaVuSans-114"/></defs><use xlink:href="#DejaVuSans-77"/><use x="86.279" xlink:href="#DejaVuSans-97"/><use x="147.559" xlink:href="#DejaVuSans-114"/></g></g><g id="xtick_2"><g transform="matrix(.16 0 0 -.16 302.13 598.378)" fill="#696969" id="text_2"><defs><path d="M32.172-5.078q-3.797-9.766-7.422-12.735-3.61-2.984-9.656-2.984H7.906v7.516h5.282q3.703 0 5.75 1.765Q21-9.766 23.483-3.219l1.61 4.094-22.11 53.813H12.5l17.094-42.766 17.093 42.766h9.516z" id="DejaVuSans-121"/></defs><use xlink:href="#DejaVuSans-77"/><use x="86.279" xlink:href="#DejaVuSans-97"/><use x="147.559" xlink:href="#DejaVuSans-121"/></g></g><g id="xtick_3"><g transform="matrix(.16 0 0 -.16 425.956 598.378)" fill="#696969" id="text_3"><defs><path d="M9.813 72.906h9.859V5.078q0-13.187-5-19.14-5-5.954-16.094-5.954h-3.75v8.297h3.078q6.531 0 9.219 3.672Q9.813-4.39 9.813 5.078z" id="DejaVuSans-74"/><path d="M8.5 21.578v33.11h8.984V21.922q0-7.766 3.016-11.656 3.031-3.875 9.094-3.875 7.265 0 11.484 4.64 4.234 4.64 4.234 12.656v31h8.985V0h-8.984v8.406Q42.047 3.422 37.718 1q-4.313-2.422-10.032-2.422-9.421 0-14.312 5.86Q8.5 10.296 8.5 21.578zM31.11 56z" id="DejaVuSans-117"/><path d="M9.422 75.984h8.984V0H9.422z" id="DejaVuSans-108"/></defs><use xlink:href="#DejaVuSans-74"/><use x="29.492" xlink:href="#DejaVuSans-117"/><use x="92.871" xlink:href="#DejaVuSans-108"/></g></g><g id="xtick_4"><g transform="matrix(.16 0 0 -.16 539.384 598.378)" fill="#696969" id="text_4"><defs><path d="M53.516 70.516V60.89q-5.61 2.687-10.594 4-4.984 1.328-9.625 1.328-8.047 0-12.422-3.125t-4.375-8.89q0-4.845 2.906-7.313 2.907-2.453 11.016-3.97l5.953-1.218q11.031-2.11 16.281-7.406 5.25-5.297 5.25-14.172 0-10.61-7.11-16.078-7.093-5.469-20.812-5.469-5.172 0-11.015 1.172Q13.14.922 6.89 3.219v10.156q6-3.36 11.765-5.078 5.766-1.703 11.328-1.703 8.438 0 13.032 3.312 4.593 3.328 4.593 9.485 0 5.359-3.297 8.39-3.296 3.032-10.812 4.547L27.484 33.5q-11.03 2.188-15.968 6.875-4.922 4.688-4.922 13.047 0 9.672 6.812 15.234 6.813 5.563 18.766 5.563 5.14 0 10.453-.938 5.328-.922 10.89-2.765z" id="DejaVuSans-83"/><path d="M56.203 29.594v-4.39H14.891q.593-9.282 5.593-14.142 5-4.859 13.938-4.859 5.172 0 10.031 1.266 4.86 1.265 9.656 3.812v-8.5Q49.266.734 44.187-.344 39.11-1.422 33.892-1.422q-13.094 0-20.735 7.61-7.64 7.625-7.64 20.625 0 13.421 7.25 21.296Q20.016 56 32.328 56q11.031 0 17.453-7.11 6.422-7.093 6.422-19.296zm-8.984 2.64q-.094 7.36-4.125 11.75-4.032 4.407-10.672 4.407-7.516 0-12.031-4.25-4.516-4.25-5.203-11.97z" id="DejaVuSans-101"/><path d="M18.11 8.203v-29H9.077v75.484h9.031v-8.296q2.844 4.875 7.157 7.234Q29.594 56 35.594 56q9.968 0 16.187-7.906 6.235-7.907 6.235-20.797T51.78 6.484q-6.218-7.906-16.187-7.906-6 0-10.328 2.375-4.313 2.375-7.157 7.25zm30.578 19.094q0 9.906-4.079 15.547-4.078 5.64-11.203 5.64-7.14 0-11.218-5.64-4.079-5.64-4.079-15.547 0-9.906 4.078-15.547 4.079-5.64 11.22-5.64 7.124 0 11.202 5.64t4.078 15.547z" id="DejaVuSans-112"/></defs><use xlink:href="#DejaVuSans-83"/><use x="63.477" xlink:href="#DejaVuSans-101"/><use x="125" xlink:href="#DejaVuSans-112"/></g></g><g id="xtick_5"><g transform="matrix(.16 0 0 -.16 655.787 598.378)" fill="#696969" id="text_5"><defs><path d="M9.813 72.906h13.28l32.329-60.984v60.984h9.562V0h-13.28L19.39 60.984V0H9.813z" id="DejaVuSans-78"/><path d="M30.61 48.39q-7.22 0-11.422-5.64-4.204-5.64-4.204-15.453 0-9.813 4.172-15.453 4.188-5.64 11.453-5.64 7.188 0 11.375 5.655 4.203 5.672 4.203 15.438 0 9.719-4.203 15.406-4.187 5.688-11.375 5.688zm0 7.61q11.718 0 18.406-7.625 6.703-7.61 6.703-21.078 0-13.422-6.703-21.078-6.688-7.64-18.407-7.64-11.765 0-18.437 7.64-6.656 7.656-6.656 21.078 0 13.469 6.656 21.078Q18.844 56 30.609 56z" id="DejaVuSans-111"/><path d="M2.984 54.688H12.5L29.594 8.797l17.093 45.89h9.516L35.687 0H23.485z" id="DejaVuSans-118"/></defs><use xlink:href="#DejaVuSans-78"/><use x="74.805" xlink:href="#DejaVuSans-111"/><use x="135.986" xlink:href="#DejaVuSans-118"/></g></g><g id="xtick_6"><g transform="matrix(.16 0 0 -.16 776.008 598.378)" fill="#696969" id="text_6"><defs><path d="M54.89 33.016V0h-8.984v32.719q0 7.765-3.031 11.61-3.031 3.858-9.078 3.858-7.281 0-11.484-4.64-4.204-4.625-4.204-12.64V0H9.08v54.688h9.03v-8.5q3.235 4.937 7.594 7.374Q30.078 56 35.797 56q9.422 0 14.25-5.828 4.844-5.828 4.844-17.156z" id="DejaVuSans-110"/></defs><use xlink:href="#DejaVuSans-74"/><use x="29.492" xlink:href="#DejaVuSans-97"/><use x="90.771" xlink:href="#DejaVuSans-110"/></g></g></g><g id="matplotlib.axis_2"><g id="ytick_1"><g transform="matrix(.16 0 0 -.16 73.733 577.838)" fill="#696969" id="text_7"><defs><path d="M10.594 35.5h62.593v-8.297H10.594z" id="DejaVuSans-8722"/><path d="M19.188 8.297h34.421V0H7.33v8.297q5.609 5.812 15.296 15.594 9.703 9.797 12.188 12.64 4.734 5.313 6.609 9 1.89 3.688 1.89 7.25 0 5.813-4.078 9.469-4.078 3.672-10.625 3.672-4.64 0-9.797-1.61-5.14-1.609-11-4.89v9.969Q13.767 71.78 18.938 73q5.188 1.219 9.485 1.219 11.328 0 18.062-5.672 6.735-5.656 6.735-15.125 0-4.5-1.688-8.531-1.672-4.016-6.125-9.485-1.218-1.422-7.765-8.187-6.532-6.766-18.453-18.922z" id="DejaVuSans-50"/><path d="M31.781 66.406q-7.61 0-11.453-7.5Q16.5 51.422 16.5 36.375q0-14.984 3.828-22.484 3.844-7.5 11.453-7.5 7.672 0 11.5 7.5 3.844 7.5 3.844 22.484 0 15.047-3.844 22.531-3.828 7.5-11.5 7.5zm0 7.813q12.266 0 18.735-9.703 6.468-9.688 6.468-28.141 0-18.406-6.468-28.11-6.47-9.687-18.735-9.687-12.25 0-18.718 9.688-6.47 9.703-6.47 28.109 0 18.453 6.47 28.14Q19.53 74.22 31.78 74.22z" id="DejaVuSans-48"/></defs><use xlink:href="#DejaVuSans-8722"/><use x="83.789" xlink:href="#DejaVuSans-50"/><use x="147.412" xlink:href="#DejaVuSans-48"/></g></g><g id="ytick_2"><g transform="matrix(.16 0 0 -.16 73.733 505.174)" fill="#696969" id="text_8"><defs><path d="M12.406 8.297h16.11v55.625l-17.532-3.516v8.985l17.438 3.515h9.86V8.296H54.39V0H12.406z" id="DejaVuSans-49"/></defs><use xlink:href="#DejaVuSans-8722"/><use x="83.789" xlink:href="#DejaVuSans-49"/><use x="147.412" xlink:href="#DejaVuSans-48"/></g></g><g id="ytick_3"><use xlink:href="#DejaVuSans-48" transform="matrix(.16 0 0 -.16 97.32 432.51)" fill="#696969" id="text_9"/></g><g id="ytick_4"><g transform="matrix(.16 0 0 -.16 87.14 359.847)" fill="#696969" id="text_10"><use xlink:href="#DejaVuSans-49"/><use x="63.623" xlink:href="#DejaVuSans-48"/></g></g><g id="ytick_5"><g transform="matrix(.16 0 0 -.16 87.14 287.183)" fill="#696969" id="text_11"><use xlink:href="#DejaVuSans-50"/><use x="63.623" xlink:href="#DejaVuSans-48"/></g></g><g id="ytick_6"><g transform="matrix(.16 0 0 -.16 87.14 214.52)" fill="#696969" id="text_12"><defs><path d="M40.578 39.313Q47.656 37.797 51.625 33q3.984-4.781 3.984-11.813 0-10.78-7.422-16.703-7.421-5.906-21.093-5.906-4.578 0-9.438.906-4.86.907-10.031 2.72v9.515q4.094-2.39 8.969-3.61 4.89-1.218 10.218-1.218 9.266 0 14.125 3.656 4.86 3.656 4.86 10.64 0 6.454-4.516 10.079-4.515 3.64-12.562 3.64h-8.5v8.11h8.89q7.266 0 11.125 2.906 3.86 2.906 3.86 8.375 0 5.61-3.985 8.61-3.968 3.015-11.39 3.015-4.063 0-8.703-.89-4.641-.876-10.203-2.72v8.782q5.624 1.562 10.53 2.344 4.907.78 9.25.78 11.235 0 17.766-5.109 6.547-5.093 6.547-13.78 0-6.063-3.468-10.235-3.47-4.172-9.86-5.782z" id="DejaVuSans-51"/></defs><use xlink:href="#DejaVuSans-51"/><use x="63.623" xlink:href="#DejaVuSans-48"/></g></g><g id="ytick_7"><g transform="matrix(.16 0 0 -.16 87.14 141.855)" fill="#696969" id="text_13"><defs><path d="M37.797 64.313L12.89 25.39h24.906zm-2.594 8.593H47.61V25.391h10.407v-8.203H47.609V0h-9.812v17.188H4.89v9.515z" id="DejaVuSans-52"/></defs><use xlink:href="#DejaVuSans-52"/><use x="63.623" xlink:href="#DejaVuSans-48"/></g></g><g transform="matrix(0 -.2 -.2 0 65.573 379.813)" fill="#696969" id="text_14"><defs><path d="M51.125 44H36.922l-4.11-16.313h14.313zm-7.328 27.781l-5.078-20.265h14.265L58.11 71.78h7.813L60.89 51.516h15.234V44h-17.14l-4-16.313h15.53V20.22H53.079L48 0h-7.813l5.032 20.219H30.906L25.875 0h-7.86l5.079 20.219H7.719v7.468h17.187L29 44H13.281v7.516h17.625l4.985 20.265z" id="DejaVuSans-35"/><path d="M37.11 75.984V68.5h-8.594q-4.828 0-6.72-1.953-1.874-1.953-1.874-7.031v-4.828h14.797v-6.985H19.922V0H10.89v47.703H2.297v6.984h8.594V58.5q0 9.125 4.25 13.297 4.25 4.187 13.468 4.187z" id="DejaVuSans-102"/><path d="M48.781 52.594v-8.407q-3.812 2.11-7.64 3.157-3.828 1.047-7.735 1.047-8.75 0-13.593-5.547-4.829-5.532-4.829-15.547 0-10.016 4.829-15.563 4.843-5.53 13.593-5.53 3.907 0 7.735 1.046 3.828 1.047 7.64 3.156V2.094Q45.016.344 40.984-.531q-4.015-.89-8.562-.89-12.36 0-19.64 7.765-7.266 7.765-7.266 20.953 0 13.375 7.343 21.031Q20.22 56 33.016 56q4.14 0 8.093-.86 3.953-.843 7.672-2.546z" id="DejaVuSans-99"/><path d="M44.281 53.078v-8.5q-3.797 1.953-7.906 2.922-4.094.984-8.5.984-6.688 0-10.031-2.047-3.344-2.046-3.344-6.156 0-3.125 2.39-4.906 2.391-1.781 9.626-3.39l3.078-.688q9.562-2.047 13.593-5.781 4.032-3.735 4.032-10.422 0-7.625-6.032-12.078-6.03-4.438-16.578-4.438-4.39 0-9.156.86Q10.688.296 5.422 2v9.281q4.984-2.594 9.812-3.89 4.829-1.282 9.579-1.282 6.343 0 9.75 2.172 3.421 2.172 3.421 6.125 0 3.656-2.468 5.61-2.453 1.953-10.813 3.765l-3.125.735q-8.344 1.75-12.062 5.39-3.704 3.64-3.704 9.985 0 7.718 5.47 11.906Q16.75 56 26.811 56q4.97 0 9.36-.734 4.406-.72 8.11-2.188z" id="DejaVuSans-115"/></defs><use xlink:href="#DejaVuSans-35"/><use x="83.789" xlink:href="#DejaVuSans-32"/><use x="115.576" xlink:href="#DejaVuSans-111"/><use x="176.758" xlink:href="#DejaVuSans-102"/><use x="211.963" xlink:href="#DejaVuSans-32"/><use x="243.75" xlink:href="#DejaVuSans-99"/><use x="298.73" xlink:href="#DejaVuSans-97"/><use x="360.01" xlink:href="#DejaVuSans-115"/><use x="412.109" xlink:href="#DejaVuSans-101"/><use x="473.633" xlink:href="#DejaVuSans-115"/></g></g><g transform="matrix(.24 0 0 -.24 261.11 71.76)" fill="#696969" id="text_15"><defs><path d="M4.203 54.688h8.985l11.234-42.672 11.172 42.672h10.593l11.235-42.672 11.187 42.672h8.985L63.28 0H52.688L40.922 44.828 29.109 0H18.5z" id="DejaVuSans-119"/><path d="M64.406 67.281v-10.39q-4.984 4.64-10.625 6.922-5.64 2.296-11.984 2.296-12.5 0-19.14-7.64-6.641-7.64-6.641-22.094 0-14.406 6.64-22.047 6.64-7.64 19.14-7.64 6.345 0 11.985 2.296 5.64 2.297 10.625 6.938V5.609Q59.234 2.094 53.437.33q-5.78-1.75-12.218-1.75-16.563 0-26.094 10.124-9.516 10.14-9.516 27.672 0 17.578 9.516 27.703 9.531 10.14 26.094 10.14 6.531 0 12.312-1.734 5.797-1.734 10.875-5.203z" id="DejaVuSans-67"/><path d="M3.328 72.906h9.953L28.61 11.281l15.282 61.625h11.093l15.328-61.625 15.282 61.625h10.015L77.297 0H64.89L49.516 63.281 33.984 0H21.578z" id="DejaVuSans-87"/><path d="M9.078 75.984h9.031V31.11l26.813 23.578H56.39l-29-25.578L57.625 0H45.906L18.11 26.703V0H9.08z" id="DejaVuSans-107"/><path d="M4.89 31.39h26.313v-8H4.891z" id="DejaVuSans-45"/><path d="M11.719 12.406h10.297V0H11.719zm0 39.297h10.297v-12.39H11.719z" id="DejaVuSans-58"/><path d="M45.406 27.984q0 9.766-4.031 15.125-4.016 5.375-11.297 5.375-7.219 0-11.25-5.375-4.031-5.359-4.031-15.125 0-9.718 4.031-15.093t11.25-5.375q7.281 0 11.297 5.375 4.031 5.375 4.031 15.093zm8.985-21.203q0-13.953-6.203-20.765Q42-20.797 29.203-20.797q-4.734 0-8.937.703-4.203.703-8.157 2.172v8.735q3.954-2.141 7.813-3.157 3.86-1.031 7.86-1.031 8.843 0 13.234 4.61 4.39 4.609 4.39 13.937v4.453q-2.781-4.844-7.125-7.234Q33.938 0 27.875 0 17.828 0 11.672 7.656q-6.156 7.672-6.156 20.328 0 12.688 6.156 20.344Q17.828 56 27.875 56q6.063 0 10.406-2.39 4.344-2.391 7.125-7.22v8.297h8.985z" id="DejaVuSans-103"/></defs><use xlink:href="#DejaVuSans-78"/><use x="74.805" xlink:href="#DejaVuSans-101"/><use x="136.328" xlink:href="#DejaVuSans-119"/><use x="218.115" xlink:href="#DejaVuSans-32"/><use x="249.902" xlink:href="#DejaVuSans-67"/><use x="319.727" xlink:href="#DejaVuSans-97"/><use x="381.006" xlink:href="#DejaVuSans-115"/><use x="433.105" xlink:href="#DejaVuSans-101"/><use x="494.629" xlink:href="#DejaVuSans-115"/><use x="546.729" xlink:href="#DejaVuSans-32"/><use x="578.516" xlink:href="#DejaVuSans-87"/><use x="671.518" xlink:href="#DejaVuSans-101"/><use x="733.041" xlink:href="#DejaVuSans-101"/><use x="794.564" xlink:href="#DejaVuSans-107"/><use x="852.475" xlink:href="#DejaVuSans-45"/><use x="890.434" xlink:href="#DejaVuSans-111"/><use x="951.615" xlink:href="#DejaVuSans-118"/><use x="1010.795" xlink:href="#DejaVuSans-101"/><use x="1072.318" xlink:href="#DejaVuSans-114"/><use x="1107.057" xlink:href="#DejaVuSans-45"/><use x="1139.141" xlink:href="#DejaVuSans-87"/><use x="1232.143" xlink:href="#DejaVuSans-101"/><use x="1293.666" xlink:href="#DejaVuSans-101"/><use x="1355.189" xlink:href="#DejaVuSans-107"/><use x="1413.1" xlink:href="#DejaVuSans-58"/><use x="1446.791" xlink:href="#DejaVuSans-32"/><use x="1478.578" xlink:href="#DejaVuSans-49"/><use x="1542.201" xlink:href="#DejaVuSans-52"/><use x="1605.824" xlink:href="#DejaVuSans-32"/><use x="1637.611" xlink:href="#DejaVuSans-97"/><use x="1698.891" xlink:href="#DejaVuSans-118"/><use x="1758.07" xlink:href="#DejaVuSans-103"/></g><g id="legend_1"><path d="M128.2 184.5h136.45q3.2 0 3.2-3.2V88.96q0-3.2-3.2-3.2H128.2q-3.2 0-3.2 3.2v92.34q0 3.2 3.2 3.2z" fill="none" opacity=".8" stroke="#ccc" id="patch_5"/><path d="M131.4 98.718h32" fill="none" stroke="#000" stroke-linecap="round" stroke-width="1.5" id="line2d_6"/><g transform="matrix(.16 0 0 -.16 176.2 104.317)" fill="#696969" id="text_16"><defs><path d="M8.688 72.906h9.921V28.61q0-11.718 4.235-16.875 4.25-5.14 13.781-5.14 9.469 0 13.719 5.14 4.25 5.157 4.25 16.875v44.297H64.5V27.391q0-14.25-7.063-21.532-7.046-7.28-20.812-7.28-13.828 0-20.89 7.28-7.047 7.282-7.047 21.532z" id="DejaVuSans-85"/></defs><use xlink:href="#DejaVuSans-85"/><use x="73.193" xlink:href="#DejaVuSans-83"/></g><path d="M131.4 122.203h32" fill="none" stroke="#009e73" stroke-linecap="round" stroke-width="1.5" id="line2d_8"/><g transform="matrix(.16 0 0 -.16 176.2 127.802)" fill="#696969" id="text_17"><use xlink:href="#DejaVuSans-78"/><use x="74.805" xlink:href="#DejaVuSans-74"/></g><path d="M131.4 145.688h32" fill="none" stroke="#d55e00" stroke-linecap="round" stroke-width="1.5" id="line2d_10"/><g transform="matrix(.16 0 0 -.16 176.2 151.287)" fill="#696969" id="text_18"><defs><path d="M19.672 34.813V8.108H35.5q7.953 0 11.781 3.297 3.844 3.297 3.844 10.078 0 6.844-3.844 10.078-3.828 3.25-11.781 3.25zm0 29.984V42.828h14.61q7.218 0 10.75 2.703 3.546 2.719 3.546 8.282 0 5.515-3.547 8.25-3.531 2.734-10.75 2.734zm-9.86 8.11h25.204q11.28 0 17.375-4.688Q58.5 63.53 58.5 54.89q0-6.703-3.125-10.657-3.125-3.953-9.188-4.922 7.282-1.562 11.313-6.53 4.031-4.954 4.031-12.376 0-9.765-6.64-15.093Q48.25 0 35.984 0H9.812z" id="DejaVuSans-66"/></defs><use xlink:href="#DejaVuSans-66"/><use x="68.604" xlink:href="#DejaVuSans-101"/><use x="130.127" xlink:href="#DejaVuSans-114"/><use x="169.49" xlink:href="#DejaVuSans-103"/><use x="232.967" xlink:href="#DejaVuSans-101"/><use x="294.49" xlink:href="#DejaVuSans-110"/></g><path d="M131.4 169.173h32" fill="none" stroke="#0072b2" stroke-linecap="round" stroke-width="1.5" id="line2d_12"/><g transform="matrix(.16 0 0 -.16 176.2 174.773)" fill="#696969" id="text_19"><defs><path d="M44.39 34.188q3.172-1.079 6.172-4.594 3-3.516 6.032-9.672L66.609 0H56l-9.313 18.703q-3.624 7.328-7.015 9.719-3.39 2.39-9.25 2.39h-10.75V0h-9.86v72.906h22.266q12.5 0 18.656-5.234 6.157-5.219 6.157-15.766 0-6.89-3.203-11.437-3.204-4.532-9.297-6.282zM19.673 64.797V38.922h12.406q7.125 0 10.766 3.297 3.64 3.297 3.64 9.687 0 6.39-3.64 9.64-3.64 3.25-10.766 3.25z" id="DejaVuSans-82"/><path d="M18.313 70.219V54.688h18.5v-6.985h-18.5V18.016q0-6.688 1.828-8.594 1.828-1.906 7.453-1.906h9.218V0h-9.218q-10.407 0-14.36 3.875-3.953 3.89-3.953 14.14v29.688H2.687v6.984h6.594V70.22z" id="DejaVuSans-116"/><path d="M54.89 33.016V0h-8.984v32.719q0 7.765-3.031 11.61-3.031 3.858-9.078 3.858-7.281 0-11.484-4.64-4.204-4.625-4.204-12.64V0H9.08v75.984h9.03V46.188q3.235 4.937 7.594 7.374Q30.078 56 35.797 56q9.422 0 14.25-5.828 4.844-5.828 4.844-17.156z" id="DejaVuSans-104"/><path d="M45.406 46.39v29.594h8.985V0h-8.985v8.203Q42.578 3.328 38.25.953q-4.313-2.375-10.375-2.375-9.906 0-16.14 7.906-6.22 7.922-6.22 20.813 0 12.89 6.22 20.797Q17.968 56 27.874 56q6.063 0 10.375-2.375 4.328-2.36 7.156-7.234zm-30.61-19.093q0-9.906 4.079-15.547 4.078-5.64 11.203-5.64 7.125 0 11.219 5.64 4.11 5.64 4.11 15.547 0 9.906-4.11 15.547-4.094 5.64-11.219 5.64-7.125 0-11.203-5.64-4.078-5.64-4.078-15.547z" id="DejaVuSans-100"/></defs><use xlink:href="#DejaVuSans-82"/><use x="64.982" xlink:href="#DejaVuSans-117"/><use x="128.361" xlink:href="#DejaVuSans-116"/><use x="167.57" xlink:href="#DejaVuSans-104"/><use x="230.949" xlink:href="#DejaVuSans-101"/><use x="292.473" xlink:href="#DejaVuSans-114"/><use x="333.586" xlink:href="#DejaVuSans-102"/><use x="368.791" xlink:href="#DejaVuSans-111"/><use x="429.973" xlink:href="#DejaVuSans-114"/><use x="469.336" xlink:href="#DejaVuSans-100"/></g></g></g></g><defs><clipPath id="p9b7eeb50c9"><path d="M117 77.76h725.4v498.96H117z"/></clipPath></defs></svg>