<svg height="864" viewBox="0 0 936 648" width="1248" xmlns="http://www.w3.org/2000/svg" xmlns:xlink="http://www.w3.org/1999/xlink"><defs><style>*{stroke-linecap:butt;stroke-linejoin:round}</style></defs><g id="figure_1"><path d="M0 648h936V0H0z" style="fill:#fff" id="patch_1"/><g id="axes_1"><path d="M117 576.72h725.4V77.76H117z" style="fill:none" id="patch_2"/><path clip-path="url(#pdfc570e5b8)" d="m149.973 333.818 38.281-.107 2.167-.124 1.445-.278 1.444-.47 2.167-1.086 3.612-2.266 2.167-1.272 1.444-.72.722-.144 1.445.08 1.445.5.722.36 4.334 3.397 2.167 1.812 2.166.866.723.173.722-.024 1.445-.441 5.056-.04 2.889.19.722.302 1.445.777.722.143 2.89-.035 8.667-1.078 1.444.043 2.167-.18 2.89-.211.722-.138 2.167.143 2.166-.39 2.167.031 1.445-.175 2.167-.446.722-.327 5.778-3.586 1.445-.617 1.445-.69.722-.141 1.445.106 2.166.466.723.24 1.444.055 1.445-.165 2.167.312.722.29 1.445.33 3.611 1.574.722.534 1.445 1.255 2.89 1.883 5.055 2.589.723.003 2.166-.271 1.445-.029 1.445-.208 2.166-.036 1.445-.118 2.89.45.722.041 2.889-.424.722-.255.722-.403.723-.26.722-.14 1.444-.856.723-.189.722.152.722.49 2.167.617 1.445.103 1.444-.756 1.445-.96 1.445-.06.722-.224 1.444-1.523 2.89-1.107.722-.031 1.445 1.261 2.166.567 2.167.021 1.445-.343.722-.363.722-.19.723-.052 3.611-1.121.723-.394.722-.165 2.167.03.722-.01.722.132.723-.18 1.444-1.077 1.445-1 5.056-1.76.722-.653 1.445-1.586 1.444-1.307.723-.866 1.444-2.164.722-.852 1.445-2.377.722-.869.723-.66.722-.4.722-.137.723.07.722.435 1.444 1.88 1.445 1.97.722 1.117 1.445 6.247 1.444 3.598.723 1.64.722 1.234.722.473.723-1.593.722-1.923.722-.962.723-1.39.722-1.047.722-.836.722-.572.723-1.985.722-2.604.722-1.252.723-.763.722-.49 1.444.64.723 1.897.722 3.049 1.445 4.48 2.889 6.006.722 4.874.722 3.46.723.368.722.951.722-.137.723.154.722-.021.722-1.954 1.445-5.947 1.444-4.15.723-1.545.722-2.67.722-7.712.723-4.68.722.55.722-.415.722.339.723.626.722 2.06.722 3.602 2.89 17.565 1.444 6.154.722 5.826.723 3.812.722.805.722.116.723-.188.722.667.722-.26 1.445-1.943.722-.736 1.445-3.317 1.444-.633 2.167-1.157 1.445 1.888.722-.426.722-.171.723-.027 1.444-.332.722.594.723.378 1.444-.617.723-.392 1.444-1.15 2.167-3.994 1.445-2.165.722-.843.722-.63 1.445-2.071 2.167-2.087.722-.347.722-.128 1.445-1.084 1.444.873.723.249 1.444-.008.723.628.722.421 1.445-.742 2.166-1.083 1.445 1.35.722-.647.723-.834 2.166-1.617 1.445-2.446 1.445.166.722-.148 1.445.177 1.444-.198 1.445.766 2.167.342.722.386.722.21.722-.476.723.004 2.889.843.722.457 2.89 2.59.722.447 2.167 2.228.722.237.722.077 1.445-.212 2.889-.501 1.445.059.722.139 1.444-.423 2.167.064 1.445.014.722.226.722.1 1.445-.244 2.167-.09 1.445-.51 1.444-.328.722-.135 1.445.114.722.269.723.133 1.444-.131.723.65.722.474.722-.211 1.445-.64 1.444-.258 1.445-1.91.722-.231.722-.45.723-.266.722.034.722-.095 1.445-1.725.722.02.723.284.722.077 1.444-.138 1.445 1.35 1.445-.081 1.444-.442 1.445-2.437.722-.146.722.01.723.197.722.024.722-.487 1.445.179.722-.334.722-.139.723-.653.722-.855.722-.365 1.445 2.128.722-.367.722-.235 1.445-1.59.722-.297 1.445-2.21.722-.414 1.445-.25.722-.619.722-.895 1.445-2.564.722-.507.723-.175.722-.482.722-.847.722-.583.723-.094 2.889-1.18.722.472.723.289.722.058.722.808.722.407.723.033.722-.706.722.457.723 1.546.722.504.722.798.722.316.723-.014.722 1.015 1.445 1.64.722.401.722.126.723.476.722.156.722 1.41.722.752.723-1.143.722.04.722.967.723 1.27.722.84.722 3.97.722 1.457.723-1.976.722 1.286.722.865 1.445.27.722-3.637.723-.686.722 4.126.722 1.12.722.165 1.445-.39.722-2.42.723.72.722 3.096.722.345 2.167 1.848.722 4.315.723 1.74.722-2.462 2.167.16.722.203.722-.893.723-1.219.722-.546 1.445-1.293.722-.462.722-.245.722.636.723.117.722-.567 1.445.196.722-.067.722-.215.723-.542.722-.142.722.593.722.264 2.167-.215 1.445-1.04.722-.351.722-.932.723-.708.722-.372.722-.117.723-.453.722-.739.722-.536 1.445-.629 2.889-1.598.722-.167.723.32.722-.261.722-1.282.722-.575.723-.056.722-.41.722-.834.723-1.432.722-.7.722.692.723.355.722-.251.722-.09.722.241.723 1.351 1.444 6.176.723 1.063.722-.51.722-.86.722-.254.723-1.288 1.444-6.576.723-1.1 1.444 1.03.723-.13.722-1.327.722-2.798.722-1.737.723-.365.722.83.722 1.274.723.716.722 2.1.722 3.507.722 2.053.723-.298.722-2.802.722-3.625.723-3.04.722-4.324.722-2.621.723.166.722-2.057.722-6.805 1.445-16.713 1.444-21.345.723-6.52.722-2.721.722-8.466.722-15.682.723-10.658.722-3.336.722-9.628.723-14.408.722-4.133.722-1.667.723 2.578.722 7.305.722 5.412.722 8.523.723 6.894.722 3.885 1.445 49.8.722 6.599.722 10.453L677.97 327l.722 10.443.722 5.084.723 12.547.722 17.376 1.445 25.288.722 7.277.722 3.69.722-4.538.723 5.265.722 18.517.722 8.308.723 4.497.722 3.247.722-1.17.722 10.505.723 1.327.722-12.313.722-2.877.723-3.994.722-3.142.722-2.073.723-5.817 1.444-15.016.722-8.201 1.445-11.918.722-2.678.723-3.892.722-5.293 1.444-5.857.723-4.42.722-3.074.722-.889 1.445-7.653.722-1.13.723-2.074.722-1.395.722-.64.722-.292.723-2.17.722-1.723.722-.563.723-1.225 2.166-1.96.723.96.722-.54.722-2.174.723-.728.722-.931.722-.744.723-.263.722-.885.722-.557.722-.096.723-.65.722-.344 2.167-.464 1.444.234 2.167-.437 1.445.16 1.445-1.046.722.148.722-.205.722-.322.723-.113 1.444-.533.723-.086 1.444-1.058 1.445-.127.722-.329 1.445-.928 1.444-.42.723-.286 1.444-.14.722-.234.723-.456.722-.185.722-.054.723-.315 2.889-.465.722-.515.722-.213 1.445.228.722.047.723-.426.722-1.119.722-.886.722-.255 1.445.14.722-.4.723-.81.722-.304.722.47.722.036 1.445-.519.722.536 2.167 3.615 2.167 2.258.722 3.076.723 2.491.722-.658.722-.102.723.801.722.09.722-.438.722-2.46.723-1.632.722 1.872.722 1.081.723.04.722-.198.722-.584.723-2.017.722-.613.722 1.87.722.761.723.449 1.444 2.622.723 3.637.722 1.209.722-2.966 1.445-1.862.722-1.676.722-.832.723-1.775.722-.194.722.913.723-1.037.722-.718.722-.029.722.433.723.64.722.803 1.445-1.232.722.67.722.868.722.186.723-1.43.722-2.954.722-.31.723 1.207.722-.339 1.445-1.582.722-1.977.722-.181.722 2.19.723.432.722-.403h0" style="fill:none;stroke:#000;stroke-linecap:round;stroke-width:1.5" id="line2d_1"/><path clip-path="url(#pdfc570e5b8)" d="m149.973 333.816 37.559-.084 1.445-.1 1.444-.287 2.167-1.035.722-.694 2.167-3.068.723-1.952 1.444-5.403 2.167-7.741 1.445-5.065.722-1.99.722-2.676.722-1.491 1.445-.041.722.415.723 2.164 2.889 12.858 1.444 5.341.723 2.733.722 2.102.722 3.806.723 2.494.722.36.722 1.067.722.083.723-.999.722.443.722-.603.723-.256.722.852 2.167 5.093.722 1.213.722-.396.723.617.722 1.481.722.776.723 1.483.722 2.053.722.184.722.75.723 1.781.722-.02.722-.452.723.016.722-1.237.722-.133.723.427.722-.458 1.444-1.894 1.445-3.192.722-.96.723-.618.722-1.062 1.444-.932.723-.848.722-.482 2.167-2.264.722.551 1.445 1.513.722 1.121.722.662 1.445-.39.722-.184 1.445-.806.722-.317.722.248.723.527.722.199 1.445-.714.722-.098.722-.522.723-.662.722-.264 2.167-1.438.722-.128.722-1.147.723-1.58.722-.376 1.444.01.723.014.722-.307.722.922.723 1.223 3.611-.159 1.445 2.742 2.167-.206.722-.178.722-.06.722-1.26.723-1.013 1.444.628.723.425 1.444.11.723-.124 2.166-1.488.723-.588.722-.229 1.445.043 1.444-.698 1.445-.111 1.444.165.723-.082.722.421.722.71 1.445 1.112.722.27.722.057 1.445-.46 2.167-.022.722-.181.722.018 1.445 1.033 1.445-.477.722-.023 1.445.368 2.166.517 2.89-1.063 1.444-1.31.722-.07.723.28h1.444l1.445-.017.722.147 1.445-.293.722.2 1.445-.092 1.444-.043.723.03 2.889-.388 1.444.05.723-.144 1.444-.608 1.445-.105 1.444-.164.723-.26.722.03.722.24 1.445-.031.722-.339.722-.54.723.221 1.444.589.723-.086.722-.33.722.178.723.447.722.269.722-.337.722-.98.723-.429.722-.084.722.146.723.274.722-.837.722-.565.722.147 1.445-.628.722-.663.723-1.22.722-.266 1.445.723.722.282 1.444-1.264.723-.122.722-.584 1.445-1.694.722-1.406 2.167-2.759.722-1.435.722-2.588.723-1.377.722-.058.722-.207 1.445-.585.722 1.06.722 1.696.723.12.722.74.722 1.665 1.445 2.77.722 1.997.722 3.35.723 2.3.722.337.722.475.723.8.722-.695.722-1.825.723-2.845.722-1.271.722.264.722-.557.723-.137.722 1.755.722.5.723-.025 1.444.241.722.607.723.137.722 1.798 1.445 6.91.722 2.273.722 1.602.723.921.722.667.722-2.366.722-1.484.723 1.497.722 1.894.722.788.723.548.722.052.722-1.041 1.445-5.484 1.444-73.33 1.445-5.706 1.445-3.398.722-4.965 1.444 62.076 1.445-1.953.722 1.346.723 2.884.722 3.43 1.444 74.651.723 4.403 1.444 11.555.723 3.182.722 1.858 1.445-66.036.722.594.722 1.843.722-1.812.723-1.42.722.671.722-.274.723.582.722 1.239.722-.378.722-.713.723 1.08.722 1.438.722.958.723.693 1.444-4.535.723 1.157.722.832.722.043.722 1.196.723-.856 1.444-5.189.723-1.541.722-.687.722.213.722-1.458.723-.94.722 2.834.722 2.237.723-.898.722-2.387 1.445-6.175.722-1.168 1.444-1.249.723-.368.722-.703.722-.526.723 1.31.722.561.722-1.712.722-1.002.723-.012.722 1.016.722.489.723-.365 1.444.746.723-.72.722-.995.722-1.293.722-.898.723-.69.722-1.013.722.036.723 1.04.722.33.722-.217.722-.063 1.445-.622.722.349.723-.03.722.173.722 1.8 1.445 2.614.722 2.414.722 1.046.723-.03 2.889 6.618.722.468.722.056.723 1.67.722.588.722-1.293 1.445-1.415.722-.39.723.442.722.052.722.447 1.445 2.035 1.444 16.972.723 1.178.722.902.722 1.246.722 1.923.723 1.273 1.444-14.558 2.167-.988 1.445-1.185 1.444-15.479.723.292.722.487.722-.24 1.445-2.251 1.445 12.876.722-.534.722-.361 1.445-2.921 1.444-2.179.723-.553.722-1.565.722-2.016.722-.772.723-.1 1.444.137 2.89 1.208.722-.05 3.611-1.062.723-.426.722-.274 2.167-.187.722-.363.722-.165 1.445.147 2.167.325 2.167-.1 1.444-.278 1.445.063 1.444.256 5.057-.192 1.444-.13 2.167-.634 5.056-1.973 1.445-.748 1.444-.74 1.445-.19 1.444-.073 1.445-.511 1.445-.335 1.444-.668 1.445-.15 1.444.174.723-.085 1.444.143 2.167-.714.722-.712.723-.342 1.444.274 1.445.81.722-.464.722-.076.723.594.722-.196.722-.04 1.445.484.722.862.723 1.503.722.684.722.19.722.344.723-.185.722-.358.722 1.171.723.884.722-.292.722.135.722 1.21.723.74.722-.298.722-.655.723-1.253.722-.145.722.399.723-.805.722-.015.722.813.722-.593.723-.274.722-.01.722.12.723-1.101.722-.547 2.889 4.463.722.71.723 1.448.722.783.722-.14.723.678.722.503.722.105.722-.21.723.258.722.421.722-.16 2.167-1.76.722-.68 1.445-.69.722.181.723.305h.722l1.445 1.516.722.314.722.472.722.29.723-.158.722.056.722.21.723-.272 1.444-.889 1.445-1.594.722-.396.722-1.026.723-.739.722-.151.722-.57.723-.257.722.384 1.444-.392.723.233.722.094.722-.123.723.015.722-.471.722-.704.722-.353 2.167-2.136 1.445-2.052 1.445-.936.722-.244.722-.575.722-.41.723.015.722.338 1.445 1.382.722.23.722-.376.722-.722.723-1.17.722-2.052 1.445-5.273.722-1.645.722-.261.723-.436 2.166-3.547.723-.337.722.236 1.445.706 1.444.462.722-.171.723-1.793.722-3.546.722-4.637.723-6.63.722-11.182 2.167-43.468 1.444-12.518.723-14.436 1.444-41.295.723-16.287 2.166-38.81.723-10.169.722 7.111 1.445 27.936.722 11.675.722 4.358.723 8.799.722 28.344 5.056 273.136.722 22.849 1.445 35.039.722 11.873.722 9.94.723 4.835.722-6.475.722-9.656.723-12.07.722-18.563 1.444-25.535 1.445-31.887.722-12.916.723-9.262.722-6.919.722-8.186.722-6.596.723-5.131 2.167-13.402.722-2.723 1.445-12.833 1.444-7.09.722-4.062 1.445-12.791.722-1.734.723-.843 1.444-2.344.722-.044.723.508.722-.325.722-1.019.723-.455 1.444-.496.723-.054.722-.182.722-.571 1.445.457.722-.731.722-.94 1.445-2.678.722-.288.722.144.723.357.722.689.722-.055 3.612-2.198 1.444.004 2.167-.514 1.445-1.498.722-.896.722-.043.723.172 3.611-1.37 1.445-1.931 1.444-1.481 2.89-1.402.722-.608.722.13.722.466.723-.366.722-.064.722.758 1.445 1.71.722-.158.723-.607 1.444 1.928.722-.39.723-.695.722-.124.722-.395.723-.581.722-.115 1.444-2.787.723-.305.722-1.043.722-.608.723-.2.722-1.535.722-.287.723.254.722-1.094.722-1.54.722-2.383.723-1.663.722-.368.722.333.723.15.722-.127.722 1.061.722 1.964 1.445 2.66.722.394.723-.19.722 1.454.722 2.966 1.445 7.925.722 1.762.722 1.293 1.445 7.926.722 1.463.723.463.722-.074 1.444 1.724 1.445-.064.722.186.723.44.722.015.722.885.723 1.602.722-1.618.722-2.856.722-.744.723-.306.722.52.722-.507.723-1.534 1.444 1.485.722-1.114.723-1.387 2.889-7.602 1.445-1.89 1.444-2.33.722-.646.723.147.722.913.722 1.23.723.404.722-.744.722-.44.722.295.723-.004.722-1.041.722-1.802.723-.505 1.444 1.621 1.445.076.722-.8.722-1.177 1.445-.775h0" style="fill:none;stroke:#009e73;stroke-linecap:round;stroke-width:1.5" id="line2d_2"/><path clip-path="url(#pdfc570e5b8)" d="m149.973 333.816 34.67-.082 2.889-.205 1.445-.287 1.444-.78 1.445-2.773.722-.315.722-.676 1.445-2.76.722-.91.723-1.968.722-3.232 1.444-7.414.723-2.521.722-3.055.722-5.03 1.445-6.566.722-6.71.722-3.806.723-1.647.722-2.829.722.943.723 4.592.722 5.432.722 8.262.723 6.929.722 5.254 1.444 15.43.723 3.499.722 4.954.722 8.842.723 5.036.722 2.323.722 3.629.722.553.723-.615.722.137.722-3.943.723-1.988.722.751.722-1.865.723.526.722 3.464.722 1.736.722.41 1.445 2.344.722.587.723.158.722-.547.722-.977.722.71.723-.266.722-2.72.722-2.173.723-1.482 1.444-2.208.723-2.022.722-1.319.722-.321.722-.068.723-.28 1.444-3.875.723-.601 1.444-1.531.722-.759.723-1.223.722-2.009.722-1.428.723.02.722.329.722.895.723.663.722-.103 1.444 2.7.723-.766.722-.103.722.445 1.445.04 1.444.95.723-.232 2.167-2.644.722.006.722-.15.723-.52.722.48.722.218.722-.294.723.164.722.512.722-1.653.723-2.747.722-.403.722-.144.722-.423.723.082.722-.404.722 1.463.723 2.104 2.167-.335.722-.04.722-.185.722 1.75.723 2.528.722.498 1.445 1.394.722.171.722.376 1.445-3.574 1.444.41.723-.123.722-.369.722-.143.723.136.722-.02.722-.287 1.445-1.237.722-.396.722-.602.723-.369 1.444-1.059.722-.102.723.28 1.444.758 2.167.848.723-.007.722.116 1.444.793.723-.205 1.444-1.1.723-.356.722-.772.722-.444.722.17.723.766.722 1.08 1.445 1.838.722.936.722.144 1.445-1.053.722.28.722.595.723-.014.722.267.722-.007.723-.37.722-.826.722-1.414.722-.615.723-.315.722-.697.722.09 2.167 1.858.723.007 1.444.54.722.423.723.212.722-.24.722-.088 1.445-.731.722-.075.722-.697.723-.533 1.444.362.723.061 2.167-.362 1.444-.178 2.167-.594.722-.096 1.445.233 1.444-.889.723-.232 1.444-.157 1.445-1.025.722.082 1.445.704.722-.007.722-.588 1.445-.335.722-.184.723.116 1.444-.786 1.445-.04 1.444.56 1.445-1.613.722.027.723.144.722-.007.722-.656.722-.219.723.294.722-.772.722-1.039.723-.007.722-.341.722-1.422.722-2.74.723-1.981.722-.608.722-1.517.723-1.169.722-.56 2.167-1.046.722 1.094.722 1.318.723-1.195.722-.287.722 2.542.723 3.553 1.444 3.273.722 2.61.723 1.722.722.861.722.075.723-.061.722-.875 1.445-4.175.722.827.722 1.285.722.403.723.567.722 4.004.722 1.954.723.144.722.704.722-.069 2.167 1.606.722 2.993.723 3.567.722 1.6.722.75.723-1.632.722-2.235.722-3.71.722-2.07 2.167.75.723 1.258.722.438.722-.397.722-1.626.723-2.651 1.444-64.383.723-3.314 1.444-2.665.723-2.529.722-3.97.722 26.547.722 30.86.723.532.722-1.305.722.807 1.445 4.223 1.444 63.03.723 3.82 1.444 10.468.723 3.218.722 1.831 1.445-59.216.722-.294.722 2.036 1.445-1.633.722.717.722-.574.723 1.306.722 2.63.722-.266.722-2.713.723-.717 2.167 2.89 1.444-4.442.723 1.73.722 1.113.722.24.722 1.57.723-1.55.722-3.697.722-1.825.723.24.722.922.722.444.722-1.886.723-1.414.722 2.275.722.67 1.445-6.54.722-2.316.723-3.027.722-.314.722.034.722-.895.723.375.722.923.722.246.723 2.337.722 1.674.722-.738.722.642.723 1.517.722.902.722-.881.723.287.722.69.722.437.723-.205.722-1.483.722-3.375.722-1.626 1.445-2.413.722.199.723 1.223.722.11.722-.548.722.076.723-.438.722-.027.722-.642.723-1.593.722.725.722 3.355.723 2.248.722 1.408.722 1.886.722 1.448.723.082.722 2.337.722 3.478.723 2.747.722 2.194.722 1.032.722 2.227.723 3.355.722-.027.722-1.859.723-.84.722-.198.722-.37.723-.614.722-.41.722-.192 1.445-.123 1.444 1.504 1.445.143.722.745.722 1.53.723.82.722-1.222.722-.97.723-7.818.722-9.47.722-2.146 2.167-2.877.722-.97.723 7.195.722 9.259.722 1.476 1.445-2.89 1.445.136.722 7.373.722 9.204.722.807.723-.39.722.15.722-.239.723-.621.722-8.624.722-10.755.722-2.31.723.253 1.444.28.723.212 2.167-.246.722-.588.722-.779.722-.294 2.167-.048 1.445-.533.722-.054.722-.253 2.167-1.244.723-.068 2.889.861.722-.014.722-.157.723-.034 2.167-.43 2.166.232 2.89-.075.722.054 2.167.991.722.116 1.445-.198.722-.178 6.5-3.17 1.445-1.326 2.167-.881 2.167-.458.722.116 2.89-1.06.722.288 1.444.902.723.588.722.758.722.24 2.167-.705.722-.505.723.28.722.697 2.167.39 1.444-.95.723-.732.722-1.38.722.308.723.895.722.485.722.717.723.991.722-.157.722-.458 1.445.574.722-.061 1.445 2.412.722.758.722.998.722.642.723.103.722-.403 1.445-1.9.722.246.722.43.723-.738.722-.533.722.52 2.167-.752.722-.061.723-.335.722.048.722.69 2.167 1.353.722-.178 1.445 1.442.722-.492 1.445.266.722.568.722.724 1.445-.294.722.554.723.922.722.71.722-.327.722-.041.723.362.722.014.722.15.723-.178.722-.608 1.445-.396.722.102.722.745.722.3.723-.43.722-.054.722.56.723-.314 1.444-2.016.722-.834.723-.622.722-.15.722-.567.723-.103.722.349 1.445-1.135.722.356.722-.096.722-.396.723.273 2.167 1.831.722.048.722-.068.722-.533.723-1.093 3.611-6.642.723-.595.722-.048 1.444-.54.723.055.722.212.722.52.723.942.722.568 1.444.143.723-.471 2.167-2.98.722-1.237 1.445-1.879.722-1.373.722-1.613 1.445-2.603.722-.581.722.69.723-.355 1.444-2.795.722-2.959 2.167-12.28.723-8.124.722-12.443.722-16.646.723-19.502.722-14.746.722-8.378.722-10.837.723-18.82.722-26.02.722-21.293.723-12.504.722-7.312.722-5.979.722-10.12.723-4.51.722 16.407.722 22.064.723 18.286.722 13.817.722 3.56.723 12.846.722 35.014 1.444 88.477.723 40.972 2.889 128.09.722 11.957.722 8.706.723 15.033.722 11.083.722 12.833.723 6.676 1.444-13.57.723-8.685.722-18.115 1.444-22.591 1.445-31.577.722-12.067 1.445-15.368 1.444-13.817 1.445-11.439 1.445-18.463.722-4.565 1.445-13.878.722-2.856.722-2.173.722-1.046.723-3.19.722-5.543.722-1.62.723-.648 1.444-3.567.722.068.723 1.107.722-.403.722-1.128 1.445.697.722-1.27.723-2.01.722-1.066.722.062.722.629.723-.076.722-1.277 1.445-1.845.722-.807.722.718.722.02.723-.724.722.827.722-.062 1.445-1.585.722-1.743.723-.881.722.437.722-.252.722.403.723 1.148.722.369.722-.752 1.445-.629.722-1.127.722.731.723.902.722.123.722.752.723-.41.722-.827.722-.37.723-2.384.722-2.89.722-1.66.722-.746.723-.068 1.444-.854.723-.267.722-.048.722 2.2.722-.013.723-2.132.722.458.722.82.723 1.592.722 1.94.722-1.687.723-1.23 1.444 3.492.722 1.134.723-.273.722-.964.722-2.747.723.451.722 2.03.722-2.7.722-2.159.723-1.086.722-1.825.722 1.442.723-.3.722-3.622.722-1.066.723-1.51.722-2.214.722-.766 1.445-4.373.722.219.722 1.394 1.445 4.27.722 1.79.722 3.185.723 3.847.722 3.198.722 1.62.723-.287.722 1.667.722 3.212 1.445 8.746.722 1.408.722.97.723 3.881.722 4.558.722 1.333.723-1.401.722-1.784.722-.314.722.273.723.472.722-.212.722.65.723 1.77.722-.602.722-.055.723 1.777.722-1.934.722-4.92.722-1.38.723-.219.722.65.722.368.723-1.742.722 1.066.722 1.544 1.445-5.193.722-1.647 1.445-4.606.722-2.774.722-.936.723-.15.722-.827.722-1.08.722-.69.723.137.722.6.722 1.149.723.676.722-.635.722-.123 1.445 3.307.722-1.018.722-2.371.723-.615.722.635.722-.444.723-1.421 1.444-1.449.722-.45 1.445-.137h0" style="fill:none;stroke:#d55e00;stroke-linecap:round;stroke-width:1.5" id="line2d_3"/><path clip-path="url(#pdfc570e5b8)" d="M149.973 333.816h40.448l1.445-1.392h.722l1.445-.696.722-1.044.722-2.089.723-2.436.722-1.74 1.444-2.784.723-2.088 1.444-6.613.723.696.722.348.722-6.264.722-7.309.723-2.088.722 2.784.722 4.525.723 1.044.722-1.393.722 5.917.723 10.093.722 4.872 1.444 5.917.723 1.392.722 2.784 1.445 13.921.722 2.784.722-1.044.722-2.436.723 1.044.722 2.436.722-4.872.723-8.353.722-2.784.722 1.74.723 2.088.722.348.722-.348.722.696h.723l.722 1.393.722 1.044.723.696.722 2.088 1.444 4.524.723.696.722-1.392 1.445-7.656 1.444-4.873.723-1.044.722.348.722-.348 1.445 1.392 1.444-2.088.723-1.392.722-1.044.722 1.392.722 2.784.723 1.74.722.696.722-.348.723-.696h.722l.722-2.436.723-3.48.722-1.392.722-.696h.722l.723.348h.722l1.445 2.088 1.444-.696 1.445.696h.722l1.445 2.088 1.444.696 1.445-.696h.722l.722-1.74.723-1.392.722.348 1.445-.696h1.444l1.445-1.392.722-.348h.722l.723.348h2.167l.722-.696h.722l.722.696 1.445-.696h.722l1.445 4.176h1.444l1.445.696h.722l.723 1.392.722 1.044.722-1.044.723-.696 1.444 1.392h.722l.723-1.74.722-.696.722 1.392h.723l.722-1.044.722-.696h.722l.723-.696h.722l2.167 2.088h1.445l.722.696.722-.348.722-1.392 2.167-1.044h.723l1.444-.696.722.696h.723l.722-.696h2.167l.722-.696.723-1.044.722-.348 1.444 1.392h1.445l.722.696 1.445-1.392.722.696h2.167l.722-.348.723 1.392.722 1.74 1.445-.696h1.444l.722.348.723.696.722-.348.722-.696h1.445l.722-1.044h1.445l.722-.696.722.348h1.445l.722 1.392.723.348h.722l.722 1.392.722.348h2.167l.723-.348.722-2.436.722-5.569.722-4.176.723-.696h.722l.722-1.044.723-2.784.722-.696.722 2.436.723.348 1.444-4.177.722-.348 1.445 6.265.722 5.568.723 7.309.722 3.48.722 2.088.722-.348.723-1.044.722-1.392.722-4.872.723-3.828.722.348.722 2.088.723-1.044.722-3.133 1.444-1.392 1.445-5.568 1.445-4.177.722-.696.722 3.133.722-.348.723-2.089.722 1.045h.722l.723 3.132.722-.696.722-7.309.723-1.044h.722l.722-4.176.722-1.74.723 3.132.722 5.568.722 2.088.723 7.31.722 13.224.722.348.722-5.22.723-1.044.722 2.088.722 5.568.723-6.264.722-14.617.722-1.045.723 4.873.722.348 1.444-5.917 1.445-6.612 1.445 18.445.722-1.044.722-.348.722 1.74.723 12.877.722 17.402.722 2.436.723-3.132.722-5.569.722-3.132.723-6.612.722-10.093.722-.348.722-3.133.723-3.828h.722l.722-.348.723 3.132 1.444-10.44.722 2.784h.723l.722 3.48.722-1.74.723 3.48.722 9.049.722-9.745.723-13.573.722-3.48.722 4.872.722 6.613.723-1.392.722.696 1.445 8.7.722 3.48 1.444 18.446.723 1.044.722 3.48 1.445 20.186.722 3.48.722-14.617.723-11.137.722 5.22.722-.695.722-7.657.723-10.44.722-5.221.722 3.132.723 8.005.722-3.829.722-11.485.722-2.088.723 2.436.722 1.74.722 5.221.723-3.132.722-2.436 1.445 13.92.722 4.525.722-.696.722-5.22.723-9.05.722 3.133.722 8.7.723-1.391.722-2.436.722-1.74.722 1.74.723 9.396.722-1.74.722-11.137.723-6.264.722.348.722 4.872.723-7.308.722-8.701.722.348.722 1.74.723.696.722-4.176h.722l.723 4.524.722 1.392.722-1.74.722-1.392 1.445 8.7.722-2.436.723-1.392.722 1.392 1.445 2.089.722 2.088.722 1.74h.722l.723-1.044.722-2.784.722-.696.723 3.132.722-1.74.722-3.829.722-3.132.723 4.525.722 8.004.722 1.74.723-5.916.722-8.005.722-.696.723 3.132.722 1.392.722-2.088.722-2.436 1.445 2.784v6.96l.722 1.741.723 2.784.722 1.044.722-.348.722 1.392.723 2.089.722 3.132.722-.696.723-4.525.722 1.393.722 5.916.723 2.784h.722l.722-2.784.722.696.723 2.088.722-3.48.722-5.22.723-1.74.722 2.088.722.696.722-.348.723 1.044.722-1.044.722-1.74.723-1.393.722-1.74.722 1.392.723 1.044.722-1.392.722.348.722 1.392.723 1.74.722.349.722 1.74.723 2.436.722.348h.722l.722-.696.723.696.722.348.722-3.48.723-2.784.722-.349.722.697.723.348.722-2.437.722-3.132.722-1.74.723-.696h.722l1.445-2.784.722-.348.722.696.723 1.044h2.166l.723-1.044.722-.696.722.696.723.348h2.166l.723 1.044.722 1.392.722-.348.723-.696h2.167l1.444 2.088h.722l1.445-2.784h1.445l.722-1.044.722-1.392.722-.696.723 1.044.722 1.392h3.612l1.444 2.088h2.167l1.445-.696 1.444-2.088h2.167l1.445.696 1.444-3.48h.723l1.444-15.314.722-.696 1.445-2.784h1.445l1.444 9.397.722-.696.723 1.392.722 5.22.722 3.48h.723l1.444 13.226.723-.697.722-1.044.722-.348.722-.696h.723l1.444-9.048.723 2.436.722.696.722-1.74.722-.696h.723l.722 3.828.722 3.132.723.696.722 2.436.722 1.393.723.348h.722l.722-1.74.722-3.133.723-4.872.722-3.132.722-2.089.723-2.436h.722l.722-.348.722-1.392.723-.348.722 1.74.722 1.044h1.445l.722-1.392.723 2.784.722 6.613.722-1.392.722-1.74.723 2.088h.722l.722-3.829.723-1.392.722 1.74.722-.348.722.697.723.348h.722l.722 6.264.723 2.436.722-4.176 1.445 5.22.722-.696h.722l.722 1.392.723 1.045.722-.697h.722l1.445-5.22h.722l.722-1.74.723-2.436.722.348h.722l.723 2.436.722 3.48h.722l.723-2.784.722-2.088.722 1.74.722-1.044.723.348.722 2.436h.722l.723.696.722 2.784.722 1.044.722.348.723-1.392.722-2.784h.722l.723.696.722-1.392.722-2.436 1.445 2.088.722-.348h.722l1.445-2.088.722-3.48.723-4.177.722-2.784.722-2.088h.722l.723 1.74.722 2.088.722 2.784.723.696h.722l.722 1.74h.723l.722-4.176.722-5.22.722.348.723 2.436.722 3.828.722 2.785h.723l1.444-2.785.722-.696.723-2.436.722-6.264.722-4.525h.723l1.444 10.441.723-2.436 1.444-6.613.722-1.392h.723l.722.348h.722l.723-3.828.722-5.22.722 2.436.722-10.093.723-18.446 1.444-13.225 1.445-18.097.722-8.005.723 8.005.722 15.313.722 2.088.722-6.264.723-8.005.722-.696.722-10.44.723-14.966.722-19.49.722-25.406.722 1.74.723 17.402.722-1.044.722-2.784 1.445-29.93.722 11.484 1.445 28.538.722 21.23.722 33.063.723 54.64.722 66.474.722 40.023.723 10.44.722 15.662.722 35.499.722 28.19.723 10.441.722 3.828.722 1.045.723 4.872.722 3.132.722-11.137 1.445-34.107.722-24.362.722-10.44.723-6.265 1.444-34.803.723-11.485.722-2.436.722-1.044.722-13.573.723-10.44.722-4.873.722-2.436.723-3.48.722-7.31.722-1.74.723 3.133.722 1.74.722-.348 1.445-12.181 1.444-5.22.723-.349.722-1.044.722-3.132.722-1.392.723 2.088.722-.696 1.445-4.524.722-1.74.722 2.088.723 3.132.722.696.722 2.784.722 1.392.723-.348.722.696.722-1.74.723-2.784 1.444-1.392.722-.348h.723l.722-3.132.722-2.089.723.348.722-1.74.722-2.088h.723l.722 1.044.722 3.133.722 7.656.723 5.917 1.444-4.873.723.348.722-1.044.722 2.436.722-.348.723-2.436.722-7.308.722-9.05.723-1.043h.722l.722-3.133.723-4.176.722-2.436.722 1.392.722 2.784h2.89l.722-10.44.722 12.528.722 22.97h2.89l.722 10.441.722-5.568.723-16.01h2.889l.722 10.441.722-4.524.723-14.965h2.889l.722-10.441.722 4.176.723 14.617h3.611l1.445-23.666h3.611l1.445 21.578h3.611l1.445 15.313h3.611l1.445-10.44h3.611l1.445 35.498h3.611l1.445-9.744h3.611l1.445-23.666h3.612l1.444-6.96h3.612l1.444-13.922h3.612l1.444 25.754h3.612l.722 4.525.722 11.136h0" style="fill:none;stroke:#0072b2;stroke-linecap:round;stroke-width:1.5" id="line2d_4"/><path clip-path="url(#pdfc570e5b8)" d="M117 333.816h725.4" style="fill:none;stroke:red;stroke-dasharray:1.5,2.475;stroke-dashoffset:0;stroke-width:1.5" id="line2d_5"/><path d="M117 576.72V77.76" style="fill:none;stroke:#d3d3d3;stroke-linecap:square;stroke-linejoin:miter;stroke-width:1.25" id="patch_3"/><path d="M117 576.72h725.4" style="fill:none;stroke:#d3d3d3;stroke-linecap:square;stroke-linejoin:miter;stroke-width:1.25" id="patch_4"/><g id="matplotlib.axis_1"><g id="xtick_1"><g style="fill:#696969" transform="matrix(.16 0 0 -.16 123.194 598.378)" id="text_1"><defs><path d="M9.813 72.906h9.859V5.078q0-13.187-5-19.14-5-5.954-16.094-5.954h-3.75v8.297h3.078q6.531 0 9.219 3.672Q9.813-4.39 9.813 5.078z" id="DejaVuSans-74"/><path d="M34.281 27.484q-10.89 0-15.093-2.484-4.204-2.484-4.204-8.5 0-4.781 3.157-7.594 3.156-2.797 8.562-2.797 7.485 0 12 5.297 4.516 5.297 4.516 14.078v2zm17.922 3.72V0H43.22v8.297Q40.14 3.328 35.547.953q-4.594-2.375-11.234-2.375-8.391 0-13.36 4.719Q6 8.016 6 15.922q0 9.219 6.172 13.906 6.187 4.688 18.437 4.688h12.61v.89q0 6.203-4.078 9.594-4.078 3.39-11.453 3.39-4.688 0-9.141-1.124-4.438-1.125-8.531-3.375v8.312q4.921 1.906 9.562 2.844 4.64.953 9.031.953 11.875 0 17.735-6.156 5.86-6.14 5.86-18.64z" id="DejaVuSans-97"/><path d="M54.89 33.016V0h-8.984v32.719q0 7.765-3.031 11.61-3.031 3.858-9.078 3.858-7.281 0-11.484-4.64-4.204-4.625-4.204-12.64V0H9.08v54.688h9.03v-8.5q3.235 4.937 7.594 7.374Q30.078 56 35.797 56q9.422 0 14.25-5.828 4.844-5.828 4.844-17.156z" id="DejaVuSans-110"/></defs><use xlink:href="#DejaVuSans-74"/><use x="29.492" xlink:href="#DejaVuSans-97"/><use x="90.771" xlink:href="#DejaVuSans-110"/></g></g><g id="xtick_2"><g style="fill:#696969" transform="matrix(.16 0 0 -.16 187.416 598.378)" id="text_2"><defs><path d="M34.188 63.188 20.797 26.906h26.812zm-5.579 9.718h11.188L67.578 0h-10.25l-6.64 18.703h-32.86L11.188 0H.78z" id="DejaVuSans-65"/><path d="M18.11 8.203v-29H9.077v75.484h9.031v-8.296q2.844 4.875 7.157 7.234Q29.594 56 35.594 56q9.968 0 16.187-7.906 6.235-7.907 6.235-20.797T51.78 6.484q-6.218-7.906-16.187-7.906-6 0-10.328 2.375-4.313 2.375-7.157 7.25zm30.578 19.094q0 9.906-4.079 15.547-4.078 5.64-11.203 5.64-7.14 0-11.218-5.64-4.079-5.64-4.079-15.547 0-9.906 4.078-15.547 4.079-5.64 11.22-5.64 7.124 0 11.202 5.64t4.078 15.547z" id="DejaVuSans-112"/><path d="M41.11 46.297q-1.516.875-3.297 1.281Q36.03 48 33.89 48q-7.625 0-11.703-4.953-4.079-4.953-4.079-14.234V0H9.08v54.688h9.03v-8.5q2.844 4.984 7.375 7.39Q30.031 56 36.531 56q.922 0 2.047-.125 1.125-.11 2.484-.36z" id="DejaVuSans-114"/></defs><use xlink:href="#DejaVuSans-65"/><use x="68.408" xlink:href="#DejaVuSans-112"/><use x="131.885" xlink:href="#DejaVuSans-114"/></g></g><g id="xtick_3"><g style="fill:#696969" transform="matrix(.16 0 0 -.16 257.332 598.378)" id="text_3"><defs><path d="M8.5 21.578v33.11h8.984V21.922q0-7.766 3.016-11.656 3.031-3.875 9.094-3.875 7.265 0 11.484 4.64 4.234 4.64 4.234 12.656v31h8.985V0h-8.984v8.406Q42.047 3.422 37.718 1q-4.313-2.422-10.032-2.422-9.421 0-14.312 5.86Q8.5 10.296 8.5 21.578zM31.11 56z" id="DejaVuSans-117"/><path d="M9.422 75.984h8.984V0H9.422z" id="DejaVuSans-108"/></defs><use xlink:href="#DejaVuSans-74"/><use x="29.492" xlink:href="#DejaVuSans-117"/><use x="92.871" xlink:href="#DejaVuSans-108"/></g></g><g id="xtick_4"><g style="fill:#696969" transform="matrix(.16 0 0 -.16 319.603 598.378)" id="text_4"><defs><path d="M39.406 66.219q-10.75 0-17.078-8.016-6.312-8-6.312-21.828 0-13.766 6.312-21.781 6.328-8 17.078-8 10.735 0 17.016 8 6.281 8.015 6.281 21.781 0 13.828-6.281 21.828-6.281 8.016-17.016 8.016zm0 8q15.328 0 24.5-10.281 9.188-10.282 9.188-27.563 0-17.234-9.188-27.516-9.172-10.28-24.5-10.28-15.375 0-24.593 10.25-9.204 10.265-9.204 27.546t9.204 27.563q9.218 10.28 24.593 10.28z" id="DejaVuSans-79"/><path d="M48.781 52.594v-8.407q-3.812 2.11-7.64 3.157-3.828 1.047-7.735 1.047-8.75 0-13.593-5.547-4.829-5.532-4.829-15.547 0-10.016 4.829-15.563 4.843-5.53 13.593-5.53 3.907 0 7.735 1.046 3.828 1.047 7.64 3.156V2.094Q45.016.344 40.984-.531q-4.015-.89-8.562-.89-12.36 0-19.64 7.765-7.266 7.765-7.266 20.953 0 13.375 7.343 21.031Q20.22 56 33.016 56q4.14 0 8.093-.86 3.953-.843 7.672-2.546z" id="DejaVuSans-99"/><path d="M18.313 70.219V54.688h18.5v-6.985h-18.5V18.016q0-6.688 1.828-8.594 1.828-1.906 7.453-1.906h9.218V0h-9.218q-10.407 0-14.36 3.875-3.953 3.89-3.953 14.14v29.688H2.687v6.984h6.594V70.22z" id="DejaVuSans-116"/></defs><use xlink:href="#DejaVuSans-79"/><use x="78.711" xlink:href="#DejaVuSans-99"/><use x="133.691" xlink:href="#DejaVuSans-116"/></g></g><g id="xtick_5"><g style="fill:#696969" transform="matrix(.16 0 0 -.16 387.554 598.378)" id="text_5"><use xlink:href="#DejaVuSans-74"/><use x="29.492" xlink:href="#DejaVuSans-97"/><use x="90.771" xlink:href="#DejaVuSans-110"/></g></g><g id="xtick_6"><g style="fill:#696969" transform="matrix(.16 0 0 -.16 451.053 598.378)" id="text_6"><use xlink:href="#DejaVuSans-65"/><use x="68.408" xlink:href="#DejaVuSans-112"/><use x="131.885" xlink:href="#DejaVuSans-114"/></g></g><g id="xtick_7"><g style="fill:#696969" transform="matrix(.16 0 0 -.16 520.97 598.378)" id="text_7"><use xlink:href="#DejaVuSans-74"/><use x="29.492" xlink:href="#DejaVuSans-117"/><use x="92.871" xlink:href="#DejaVuSans-108"/></g></g><g id="xtick_8"><g style="fill:#696969" transform="matrix(.16 0 0 -.16 583.24 598.378)" id="text_8"><use xlink:href="#DejaVuSans-79"/><use x="78.711" xlink:href="#DejaVuSans-99"/><use x="133.691" xlink:href="#DejaVuSans-116"/></g></g><g id="xtick_9"><g style="fill:#696969" transform="matrix(.16 0 0 -.16 651.191 598.378)" id="text_9"><use xlink:href="#DejaVuSans-74"/><use x="29.492" xlink:href="#DejaVuSans-97"/><use x="90.771" xlink:href="#DejaVuSans-110"/></g></g><g id="xtick_10"><g style="fill:#696969" transform="matrix(.16 0 0 -.16 714.69 598.378)" id="text_10"><use xlink:href="#DejaVuSans-65"/><use x="68.408" xlink:href="#DejaVuSans-112"/><use x="131.885" xlink:href="#DejaVuSans-114"/></g></g><g id="xtick_11"><g style="fill:#696969" transform="matrix(.16 0 0 -.16 784.607 598.378)" id="text_11"><use xlink:href="#DejaVuSans-74"/><use x="29.492" xlink:href="#DejaVuSans-117"/><use x="92.871" xlink:href="#DejaVuSans-108"/></g></g></g><g id="matplotlib.axis_2"><g id="ytick_1"><g style="fill:#696969" transform="matrix(.16 0 0 -.16 73.733 527.172)" id="text_12"><defs><path d="M10.594 35.5h62.593v-8.297H10.594z" id="DejaVuSans-8722"/><path d="M12.406 8.297h16.11v55.625l-17.532-3.516v8.985l17.438 3.515h9.86V8.296H54.39V0H12.406z" id="DejaVuSans-49"/><path d="M10.797 72.906h38.719v-8.312H19.828v-17.86q2.14.735 4.281 1.094 2.157.36 4.313.36 12.203 0 19.328-6.688 7.14-6.688 7.14-18.11 0-11.765-7.328-18.296-7.328-6.516-20.656-6.516-4.593 0-9.36.781-4.75.782-9.827 2.344v9.922q4.39-2.39 9.078-3.563 4.687-1.171 9.906-1.171 8.453 0 13.375 4.437 4.938 4.438 4.938 12.063 0 7.609-4.938 12.047-4.922 4.453-13.375 4.453-3.953 0-7.89-.875-3.922-.875-8.016-2.735z" id="DejaVuSans-53"/></defs><use xlink:href="#DejaVuSans-8722"/><use x="83.789" xlink:href="#DejaVuSans-49"/><use x="147.412" xlink:href="#DejaVuSans-53"/></g></g><g id="ytick_2"><g style="fill:#696969" transform="matrix(.16 0 0 -.16 73.733 464.746)" id="text_13"><defs><path d="M31.781 66.406q-7.61 0-11.453-7.5Q16.5 51.422 16.5 36.375q0-14.984 3.828-22.484 3.844-7.5 11.453-7.5 7.672 0 11.5 7.5 3.844 7.5 3.844 22.484 0 15.047-3.844 22.531-3.828 7.5-11.5 7.5zm0 7.813q12.266 0 18.735-9.703 6.468-9.688 6.468-28.141 0-18.406-6.468-28.11-6.47-9.687-18.735-9.687-12.25 0-18.718 9.688-6.47 9.703-6.47 28.109 0 18.453 6.47 28.14Q19.53 74.22 31.78 74.22z" id="DejaVuSans-48"/></defs><use xlink:href="#DejaVuSans-8722"/><use x="83.789" xlink:href="#DejaVuSans-49"/><use x="147.412" xlink:href="#DejaVuSans-48"/></g></g><g id="ytick_3"><g style="fill:#696969" transform="matrix(.16 0 0 -.16 83.912 402.32)" id="text_14"><use xlink:href="#DejaVuSans-8722"/><use x="83.789" xlink:href="#DejaVuSans-53"/></g></g><g id="ytick_4"><use xlink:href="#DejaVuSans-48" style="fill:#696969" transform="matrix(.16 0 0 -.16 97.32 339.895)" id="text_15"/></g><g id="ytick_5"><use xlink:href="#DejaVuSans-53" style="fill:#696969" transform="matrix(.16 0 0 -.16 97.32 277.469)" id="text_16"/></g><g id="ytick_6"><g style="fill:#696969" transform="matrix(.16 0 0 -.16 87.14 215.043)" id="text_17"><use xlink:href="#DejaVuSans-49"/><use x="63.623" xlink:href="#DejaVuSans-48"/></g></g><g id="ytick_7"><g style="fill:#696969" transform="matrix(.16 0 0 -.16 87.14 152.618)" id="text_18"><use xlink:href="#DejaVuSans-49"/><use x="63.623" xlink:href="#DejaVuSans-53"/></g></g><g id="ytick_8"><g style="fill:#696969" transform="matrix(.16 0 0 -.16 87.14 90.192)" id="text_19"><defs><path d="M19.188 8.297h34.421V0H7.33v8.297q5.609 5.812 15.296 15.594 9.703 9.797 12.188 12.64 4.734 5.313 6.609 9 1.89 3.688 1.89 7.25 0 5.813-4.078 9.469-4.078 3.672-10.625 3.672-4.64 0-9.797-1.61-5.14-1.609-11-4.89v9.969Q13.767 71.78 18.938 73q5.188 1.219 9.485 1.219 11.328 0 18.062-5.672 6.735-5.656 6.735-15.125 0-4.5-1.688-8.531-1.672-4.016-6.125-9.485-1.218-1.422-7.765-8.187-6.532-6.766-18.453-18.922z" id="DejaVuSans-50"/></defs><use xlink:href="#DejaVuSans-50"/><use x="63.623" xlink:href="#DejaVuSans-48"/></g></g><g style="fill:#696969" transform="matrix(0 -.2 -.2 0 65.573 445.117)" id="text_20"><defs><path d="M64.406 67.281v-10.39q-4.984 4.64-10.625 6.922-5.64 2.296-11.984 2.296-12.5 0-19.14-7.64-6.641-7.64-6.641-22.094 0-14.406 6.64-22.047 6.64-7.64 19.14-7.64 6.345 0 11.985 2.296 5.64 2.297 10.625 6.938V5.609Q59.234 2.094 53.437.33q-5.78-1.75-12.218-1.75-16.563 0-26.094 10.124-9.516 10.14-9.516 27.672 0 17.578 9.516 27.703 9.531 10.14 26.094 10.14 6.531 0 12.312-1.734 5.797-1.734 10.875-5.203z" id="DejaVuSans-67"/><path d="M44.281 53.078v-8.5q-3.797 1.953-7.906 2.922-4.094.984-8.5.984-6.688 0-10.031-2.047-3.344-2.046-3.344-6.156 0-3.125 2.39-4.906 2.391-1.781 9.626-3.39l3.078-.688q9.562-2.047 13.593-5.781 4.032-3.735 4.032-10.422 0-7.625-6.032-12.078-6.03-4.438-16.578-4.438-4.39 0-9.156.86Q10.688.296 5.422 2v9.281q4.984-2.594 9.812-3.89 4.829-1.282 9.579-1.282 6.343 0 9.75 2.172 3.421 2.172 3.421 6.125 0 3.656-2.468 5.61-2.453 1.953-10.813 3.765l-3.125.735q-8.344 1.75-12.062 5.39-3.704 3.64-3.704 9.985 0 7.718 5.47 11.906Q16.75 56 26.811 56q4.97 0 9.36-.734 4.406-.72 8.11-2.188z" id="DejaVuSans-115"/><path d="M56.203 29.594v-4.39H14.891q.593-9.282 5.593-14.142 5-4.859 13.938-4.859 5.172 0 10.031 1.266 4.86 1.265 9.656 3.812v-8.5Q49.266.734 44.187-.344 39.11-1.422 33.892-1.422q-13.094 0-20.735 7.61-7.64 7.625-7.64 20.625 0 13.421 7.25 21.296Q20.016 56 32.328 56q11.031 0 17.453-7.11 6.422-7.093 6.422-19.296zm-8.984 2.64q-.094 7.36-4.125 11.75-4.032 4.407-10.672 4.407-7.516 0-12.031-4.25-4.516-4.25-5.203-11.97z" id="DejaVuSans-101"/><path d="M44.39 34.188q3.172-1.079 6.172-4.594 3-3.516 6.032-9.672L66.609 0H56l-9.313 18.703q-3.624 7.328-7.015 9.719-3.39 2.39-9.25 2.39h-10.75V0h-9.86v72.906h22.266q12.5 0 18.656-5.234 6.157-5.219 6.157-15.766 0-6.89-3.203-11.437-3.204-4.532-9.297-6.282zM19.673 64.797V38.922h12.406q7.125 0 10.766 3.297 3.64 3.297 3.64 9.687 0 6.39-3.64 9.64-3.64 3.25-10.766 3.25z" id="DejaVuSans-82"/><path d="M8.594 75.984h20.703V69H17.578V-6.203h11.719v-6.984H8.594z" id="DejaVuSans-91"/><path d="M25.39 72.906h8.297L8.297-9.28H0z" id="DejaVuSans-47"/><path d="M45.406 46.39v29.594h8.985V0h-8.985v8.203Q42.578 3.328 38.25.953q-4.313-2.375-10.375-2.375-9.906 0-16.14 7.906-6.22 7.922-6.22 20.813 0 12.89 6.22 20.797Q17.968 56 27.874 56q6.063 0 10.375-2.375 4.328-2.36 7.156-7.234zm-30.61-19.093q0-9.906 4.079-15.547 4.078-5.64 11.203-5.64 7.125 0 11.219 5.64 4.11 5.64 4.11 15.547 0 9.906-4.11 15.547-4.094 5.64-11.219 5.64-7.125 0-11.203-5.64-4.078-5.64-4.078-15.547z" id="DejaVuSans-100"/><path d="M32.172-5.078q-3.797-9.766-7.422-12.735-3.61-2.984-9.656-2.984H7.906v7.516h5.282q3.703 0 5.75 1.765Q21-9.766 23.483-3.219l1.61 4.094-22.11 53.813H12.5l17.094-42.766 17.093 42.766h9.516z" id="DejaVuSans-121"/><path d="M30.422 75.984v-89.171H9.719v6.984H21.39V69H9.719v6.984z" id="DejaVuSans-93"/></defs><use xlink:href="#DejaVuSans-67"/><use x="69.824" xlink:href="#DejaVuSans-97"/><use x="131.104" xlink:href="#DejaVuSans-115"/><use x="183.203" xlink:href="#DejaVuSans-101"/><use x="244.727" xlink:href="#DejaVuSans-32"/><use x="276.514" xlink:href="#DejaVuSans-82"/><use x="343.746" xlink:href="#DejaVuSans-97"/><use x="405.025" xlink:href="#DejaVuSans-116"/><use x="444.234" xlink:href="#DejaVuSans-101"/><use x="505.758" xlink:href="#DejaVuSans-32"/><use x="537.545" xlink:href="#DejaVuSans-91"/><use x="576.559" xlink:href="#DejaVuSans-32"/><use x="608.346" xlink:href="#DejaVuSans-99"/><use x="663.326" xlink:href="#DejaVuSans-97"/><use x="724.605" xlink:href="#DejaVuSans-115"/><use x="776.705" xlink:href="#DejaVuSans-101"/><use x="838.229" xlink:href="#DejaVuSans-115"/><use x="890.328" xlink:href="#DejaVuSans-47"/><use x="924.02" xlink:href="#DejaVuSans-100"/><use x="987.496" xlink:href="#DejaVuSans-97"/><use x="1048.775" xlink:href="#DejaVuSans-121"/><use x="1107.955" xlink:href="#DejaVuSans-32"/><use x="1139.742" xlink:href="#DejaVuSans-93"/></g></g><g style="fill:#696969" transform="matrix(.24 0 0 -.24 238.224 71.76)" id="text_21"><defs><path d="M9.813 72.906h13.28l32.329-60.984v60.984h9.562V0h-13.28L19.39 60.984V0H9.813z" id="DejaVuSans-78"/><path d="M4.203 54.688h8.985l11.234-42.672 11.172 42.672h10.593l11.235-42.672 11.187 42.672h8.985L63.28 0H52.688L40.922 44.828 29.109 0H18.5z" id="DejaVuSans-119"/><path d="M8.203 72.906h46.875v-4.203L28.61 0H18.312L43.22 64.594H8.203z" id="DejaVuSans-55"/><path d="M2.984 54.688H12.5L29.594 8.797l17.093 45.89h9.516L35.687 0H23.485z" id="DejaVuSans-118"/><path d="M45.406 27.984q0 9.766-4.031 15.125-4.016 5.375-11.297 5.375-7.219 0-11.25-5.375-4.031-5.359-4.031-15.125 0-9.718 4.031-15.093t11.25-5.375q7.281 0 11.297 5.375 4.031 5.375 4.031 15.093zm8.985-21.203q0-13.953-6.203-20.765Q42-20.797 29.203-20.797q-4.734 0-8.937.703-4.203.703-8.157 2.172v8.735q3.954-2.141 7.813-3.157 3.86-1.031 7.86-1.031 8.843 0 13.234 4.61 4.39 4.609 4.39 13.937v4.453q-2.781-4.844-7.125-7.234Q33.938 0 27.875 0 17.828 0 11.672 7.656q-6.156 7.672-6.156 20.328 0 12.688 6.156 20.344Q17.828 56 27.875 56q6.063 0 10.406-2.39 4.344-2.391 7.125-7.22v8.297h8.985z" id="DejaVuSans-103"/><path d="M30.61 48.39q-7.22 0-11.422-5.64-4.204-5.64-4.204-15.453 0-9.813 4.172-15.453 4.188-5.64 11.453-5.64 7.188 0 11.375 5.655 4.203 5.672 4.203 15.438 0 9.719-4.203 15.406-4.187 5.688-11.375 5.688zm0 7.61q11.718 0 18.406-7.625 6.703-7.61 6.703-21.078 0-13.422-6.703-21.078-6.688-7.64-18.407-7.64-11.765 0-18.437 7.64-6.656 7.656-6.656 21.078 0 13.469 6.656 21.078Q18.844 56 30.609 56z" id="DejaVuSans-111"/><path d="M37.11 75.984V68.5h-8.594q-4.828 0-6.72-1.953-1.874-1.953-1.874-7.031v-4.828h14.797v-6.985H19.922V0H10.89v47.703H2.297v6.984h8.594V58.5q0 9.125 4.25 13.297 4.25 4.187 13.468 4.187z" id="DejaVuSans-102"/><path d="M37.797 64.313 12.89 25.39h24.906zm-2.594 8.593H47.61V25.391h10.407v-8.203H47.609V0h-9.812v17.188H4.89v9.515z" id="DejaVuSans-52"/><path d="M9.813 72.906h9.859V42.094L52.39 72.906h12.703L28.906 38.922 67.672 0H54.688L19.672 35.11V0h-9.86z" id="DejaVuSans-75"/></defs><use xlink:href="#DejaVuSans-78"/><use x="74.805" xlink:href="#DejaVuSans-101"/><use x="136.328" xlink:href="#DejaVuSans-119"/><use x="218.115" xlink:href="#DejaVuSans-32"/><use x="249.902" xlink:href="#DejaVuSans-67"/><use x="319.727" xlink:href="#DejaVuSans-97"/><use x="381.006" xlink:href="#DejaVuSans-115"/><use x="433.105" xlink:href="#DejaVuSans-101"/><use x="494.629" xlink:href="#DejaVuSans-115"/><use x="546.729" xlink:href="#DejaVuSans-32"/><use x="578.516" xlink:href="#DejaVuSans-55"/><use x="642.139" xlink:href="#DejaVuSans-100"/><use x="705.615" xlink:href="#DejaVuSans-32"/><use x="737.402" xlink:href="#DejaVuSans-97"/><use x="798.682" xlink:href="#DejaVuSans-118"/><use x="857.861" xlink:href="#DejaVuSans-103"/><use x="921.338" xlink:href="#DejaVuSans-32"/><use x="953.125" xlink:href="#DejaVuSans-115"/><use x="1005.225" xlink:href="#DejaVuSans-108"/><use x="1033.008" xlink:href="#DejaVuSans-111"/><use x="1094.189" xlink:href="#DejaVuSans-112"/><use x="1157.666" xlink:href="#DejaVuSans-101"/><use x="1219.189" xlink:href="#DejaVuSans-32"/><use x="1250.977" xlink:href="#DejaVuSans-111"/><use x="1312.158" xlink:href="#DejaVuSans-102"/><use x="1347.363" xlink:href="#DejaVuSans-32"/><use x="1379.15" xlink:href="#DejaVuSans-49"/><use x="1442.773" xlink:href="#DejaVuSans-52"/><use x="1506.396" xlink:href="#DejaVuSans-32"/><use x="1538.184" xlink:href="#DejaVuSans-97"/><use x="1599.463" xlink:href="#DejaVuSans-118"/><use x="1658.643" xlink:href="#DejaVuSans-103"/><use x="1722.119" xlink:href="#DejaVuSans-47"/><use x="1755.811" xlink:href="#DejaVuSans-49"/><use x="1819.434" xlink:href="#DejaVuSans-48"/><use x="1883.057" xlink:href="#DejaVuSans-48"/><use x="1946.68" xlink:href="#DejaVuSans-75"/></g><g id="legend_1"><path d="M694.75 184.5H831.2q3.2 0 3.2-3.2V88.96q0-3.2-3.2-3.2H694.75q-3.2 0-3.2 3.2v92.34q0 3.2 3.2 3.2z" style="fill:none;opacity:.8;stroke:#ccc;stroke-linejoin:miter" id="patch_5"/><path d="M697.95 98.718h32" style="fill:none;stroke:#000;stroke-linecap:round;stroke-width:1.5" id="line2d_6"/><g style="fill:#696969" transform="matrix(.16 0 0 -.16 742.75 104.317)" id="text_22"><defs><path d="M8.688 72.906h9.921V28.61q0-11.718 4.235-16.875 4.25-5.14 13.781-5.14 9.469 0 13.719 5.14 4.25 5.157 4.25 16.875v44.297H64.5V27.391q0-14.25-7.063-21.532-7.046-7.28-20.812-7.28-13.828 0-20.89 7.28-7.047 7.282-7.047 21.532z" id="DejaVuSans-85"/><path d="M53.516 70.516V60.89q-5.61 2.687-10.594 4-4.984 1.328-9.625 1.328-8.047 0-12.422-3.125t-4.375-8.89q0-4.845 2.906-7.313 2.907-2.453 11.016-3.97l5.953-1.218q11.031-2.11 16.281-7.406 5.25-5.297 5.25-14.172 0-10.61-7.11-16.078-7.093-5.469-20.812-5.469-5.172 0-11.015 1.172Q13.14.922 6.89 3.219v10.156q6-3.36 11.765-5.078 5.766-1.703 11.328-1.703 8.438 0 13.032 3.312 4.593 3.328 4.593 9.485 0 5.359-3.297 8.39-3.296 3.032-10.812 4.547L27.484 33.5q-11.03 2.188-15.968 6.875-4.922 4.688-4.922 13.047 0 9.672 6.812 15.234 6.813 5.563 18.766 5.563 5.14 0 10.453-.938 5.328-.922 10.89-2.765z" id="DejaVuSans-83"/></defs><use xlink:href="#DejaVuSans-85"/><use x="73.193" xlink:href="#DejaVuSans-83"/></g><path d="M697.95 122.203h32" style="fill:none;stroke:#009e73;stroke-linecap:round;stroke-width:1.5" id="line2d_8"/><g style="fill:#696969" transform="matrix(.16 0 0 -.16 742.75 127.802)" id="text_23"><use xlink:href="#DejaVuSans-78"/><use x="74.805" xlink:href="#DejaVuSans-74"/></g><path d="M697.95 145.688h32" style="fill:none;stroke:#d55e00;stroke-linecap:round;stroke-width:1.5" id="line2d_10"/><g style="fill:#696969" transform="matrix(.16 0 0 -.16 742.75 151.287)" id="text_24"><defs><path d="M19.672 34.813V8.108H35.5q7.953 0 11.781 3.297 3.844 3.297 3.844 10.078 0 6.844-3.844 10.078-3.828 3.25-11.781 3.25zm0 29.984V42.828h14.61q7.218 0 10.75 2.703 3.546 2.719 3.546 8.282 0 5.515-3.547 8.25-3.531 2.734-10.75 2.734zm-9.86 8.11h25.204q11.28 0 17.375-4.688Q58.5 63.53 58.5 54.89q0-6.703-3.125-10.657-3.125-3.953-9.188-4.922 7.282-1.562 11.313-6.53 4.031-4.954 4.031-12.376 0-9.765-6.64-15.093Q48.25 0 35.984 0H9.812z" id="DejaVuSans-66"/></defs><use xlink:href="#DejaVuSans-66"/><use x="68.604" xlink:href="#DejaVuSans-101"/><use x="130.127" xlink:href="#DejaVuSans-114"/><use x="169.49" xlink:href="#DejaVuSans-103"/><use x="232.967" xlink:href="#DejaVuSans-101"/><use x="294.49" xlink:href="#DejaVuSans-110"/></g><path d="M697.95 169.173h32" style="fill:none;stroke:#0072b2;stroke-linecap:round;stroke-width:1.5" id="line2d_12"/><g style="fill:#696969" transform="matrix(.16 0 0 -.16 742.75 174.773)" id="text_25"><defs><path d="M54.89 33.016V0h-8.984v32.719q0 7.765-3.031 11.61-3.031 3.858-9.078 3.858-7.281 0-11.484-4.64-4.204-4.625-4.204-12.64V0H9.08v75.984h9.03V46.188q3.235 4.937 7.594 7.374Q30.078 56 35.797 56q9.422 0 14.25-5.828 4.844-5.828 4.844-17.156z" id="DejaVuSans-104"/></defs><use xlink:href="#DejaVuSans-82"/><use x="64.982" xlink:href="#DejaVuSans-117"/><use x="128.361" xlink:href="#DejaVuSans-116"/><use x="167.57" xlink:href="#DejaVuSans-104"/><use x="230.949" xlink:href="#DejaVuSans-101"/><use x="292.473" xlink:href="#DejaVuSans-114"/><use x="333.586" xlink:href="#DejaVuSans-102"/><use x="368.791" xlink:href="#DejaVuSans-111"/><use x="429.973" xlink:href="#DejaVuSans-114"/><use x="469.336" xlink:href="#DejaVuSans-100"/></g></g></g></g><defs><clipPath id="pdfc570e5b8"><path d="M117 77.76h725.4v498.96H117z"/></clipPath></defs></svg>