<svg height="864" viewBox="0 0 936 648" width="1248" xmlns="http://www.w3.org/2000/svg" xmlns:xlink="http://www.w3.org/1999/xlink"><defs><style>*{stroke-linecap:butt;stroke-linejoin:round}</style></defs><g id="figure_1"><path d="M0 648h936V0H0z" style="fill:#fff" id="patch_1"/><g id="axes_1"><path d="M117 576.72h725.4V77.76H117z" style="fill:none" id="patch_2"/><path clip-path="url(#pb20e8f7416)" d="m149.973 554.039 39.633-.089 4.404-.17 3.303-.273 1.1-.222 1.101-.366 2.202-1.1 1.101-.778 2.202-1.88 1.1-1.326 2.203-3.076 1.1-1.88 1.102-1.643 1.1-1.895 2.202-4.388 2.202-4.828 1.101-2.635 1.101-1.574 2.202-3.723 3.303-4.705 1.1-.982 1.102-.795 1.1-.396 3.303-.662 1.101.074 1.101.618 1.101.026 1.101.325 1.1.444 1.102.276 1.1.085 2.203-.55 1.1.038 4.404.862 1.101-.227 2.202-.173 1.101.5 1.1.167 2.203.887 2.202 1.718 2.201 1.105 1.101.217 1.101.499 1.101.313 1.101.713 2.202 1.193 1.1.012 1.102.252 1.1.133 3.304.847 1.1.026 1.101-.136 3.303.945 1.101.156 1.101.024 1.101-.149 2.202.01 2.202.664 1.1-.452 1.102-.023 2.201.213 1.101.008 1.101-.379 2.202-.15 1.101-.179 2.202.303 1.1-.378 2.203-1.116 1.1-.196 1.101-.877 1.101-.715 1.101-1.13 1.101-1.5 1.101-1.302 3.303-5.068 3.303-5.832 1.1-2.242 2.203-4.961 4.403-6.66 1.101-2.072 1.101-1.725 1.101-2.093 2.202-3.385 1.1-2.034 2.203-3.28 1.1-1.856 2.202-2.417 1.101-1.614 2.202-2.19 2.202-1.881 2.202-1.047 2.202.55 2.202.374 1.1.621 1.101.17 1.101.518 3.303 3.283 1.101 1.476 3.303 3.356 1.1.528 1.102 1.107 1.1.9 1.102 1.153 1.1 1.372 1.101.886 1.101.561 2.202 1.717 3.303 2.997 1.1 1.118 1.102.941 1.1 1.489 1.102.624 1.1 1.307 2.202 1.605 1.101 1.19 1.101.565 1.101.803 1.101.096 1.101-.075 1.101.974 1.1-.034 1.102-.283 2.202.47 1.1 1.405 1.102.945 1.1 1.105 1.101.696 1.101-.093 1.101.508 2.202-.03 1.101.446 1.101-.629 1.1.1 1.102.297 1.1.04 1.102-.586 1.1-2.746 2.202-1.536 2.202-1.305 2.202-.696 1.101-.043 1.101-.413 1.1-.258 1.102-.102 2.202-.983 1.1.12 1.102-.688 1.1-.505 2.202-2.087 1.101-.404 3.303-2.498 1.101-.986 3.303-4.943 1.1-.459 1.102-1.182 1.1-.279 1.101-1.634 1.101-1.035 1.101-1.728 2.202-4.91 1.101-1.377 1.101-2.455 2.202-3.874 1.1-2.333 5.505-13.603 2.202-8.302 4.404-17.92 3.303-18.378 2.202-14.423 1.1-5.623 2.202-13.07 3.303-18.105 1.101-4.241 1.101-3.446 1.1-4.533 2.203-6.99 1.1 5.592 1.102-2.244 1.1.703 2.202-.188 1.101-2.083 2.202-5.45 3.303-8.98 1.1-2.296 2.203-7.466 1.1-11.268 1.102-6.884 1.1-5.174 1.101-4.434 1.101-3.063 1.101-1.745 1.101-4.024 2.202-3.669 1.101 1.088 1.1-.736 1.102.277 1.1 1.666 1.102-.742 1.1 2.924 1.102 16.555 1.1-.86 1.101 2.962 1.101 1.095 1.101.196 1.101 1.464 1.101.616 1.101 9.582 1.1-9.007 1.102-2.016 1.1-4.638 1.102-3.077 1.1-2.6 1.102-8.005 1.1-18.423 1.101-3.232 1.101-5.182 1.101-3.439 1.101-2.668 1.101-.035 1.101-.784 1.101-8.537 1.1 8.244 1.102 2.92 1.1 10.206 1.102 4.431 1.1 6.498 1.102 8.283 1.1 10.068 2.202 14.992 1.101 6.43 2.202 14.094 3.303 20.003 1.1 5.19 1.102-.066 2.202 12.63 3.302 17.504 1.101 3.908 1.101 5.863 1.101 5.001 3.303 17.176 2.202 9.142 1.1 7.982 4.404 18.998 2.202 6.206 1.101 3.09 1.101 2.257 1.101 1.916 1.1 2.559 2.203 3.99 1.1 1.187 1.102-.131 1.1.636 2.202.742 2.202 2.347 1.101 1.393 1.101-3.23 3.303 4.379 2.202 2.514 1.1 1.19 1.102-.043 1.1.287 2.202 1.337 1.101.467 1.101.2 1.101.54 1.101 3.67 1.101-.079 1.1-2.001 1.102-.62 2.202-1.98 1.1-.602 1.102-1.251 2.201-1.54 1.101-1.542 1.101-.735 1.101-.895 1.101-.242 1.101-2.017 1.101-.482 1.1.628 1.102-1.046 1.1-.653 2.203-.693 1.1-.11 1.101-1.39 1.101-.721 1.101.323 1.101-.9 1.101.945 1.101-.421 1.101.583 1.1.088 1.102.977 1.1 1.31 1.102 1.641 2.202 2.644 2.201 4.613 1.101 1.93 1.101 1.485 1.101 1.829 1.101.84 1.101 1.085 2.202 3.723 4.404 6.4 2.201 2.031 2.202 3.427 2.202 3.381 1.101 1.448 1.101 1.192 1.1 1.911 1.102 1.207 1.1 1.468 2.203 3.37 1.1 1.416 1.101.754 4.404 4.14 2.202 3.36 1.101.855 1.1 2.186 1.102.488 1.1 1.1 1.102.935 1.1 4.887 2.202 1.463 1.101.57 1.101.797 1.101.25 1.101 1.102 1.101.48 1.101.302 1.1.06 1.102-.886 1.1.986 1.102.226 1.1.671 1.102-3.383 3.302.79 1.101.13 1.101.612 3.303.411 1.1.249 1.102-.04 1.1-.355 1.102-.144 1.1-4.865 1.102-.714 1.1.331 1.101.105 1.101 1.038 2.202-2.812 1.101-3.184 1.101-1.879 2.202-.223 1.1-1.829 1.102-2.512 1.1-2.035 1.102 2.668 1.1-2.93 1.101-.78 1.101-.563 1.101-5.032 1.101-3.23 1.101-2.726 1.101-1.5 1.1-4.4 1.102-1.275 1.1-.764 1.102-5.32 1.1-5.885 1.102-4.324 1.1-5.741 1.101-6.495 1.101-1.59 1.101-1.279 1.101-7.097 1.101-8.131 1.101-4.845 1.101-5.667 1.1-7.863 2.203-3.942 1.1-7.892 1.102-5.095 1.1-6.51 1.101-3.726 1.101-5.966 2.202-3.784 1.101-11.369 1.101.555 1.101-4.819 3.303-9.34 1.1-.415 1.102-8.062 1.1 1.096 1.101-1.416 1.101-4.522 1.101-.785 1.101-3.268 1.101.153 1.101-1.927 1.101-1.47 1.101-4.277 1.1-1.47 1.102.75 1.1 1.23 1.102-.355 1.1 17.44 1.102-13.916 1.1-1.222 1.101 1.585 1.101 1.807 1.101 1.044 1.101.24 1.101-.429 1.101.696 1.1 3.762 1.102 1.918 1.1 2.211 1.102-.194 1.1.412 1.102-12.093 1.1 15.78 1.101 3.386 1.101 3.94 1.101 3.348h0" style="fill:none;stroke:#000;stroke-linecap:round;stroke-width:1.5" id="line2d_1"/><path clip-path="url(#pb20e8f7416)" d="m149.973 554.04 41.835-.099 3.303-.235 2.202-.579 1.1-.538 1.101-1.046 1.101-.542 1.101-1.498 1.101-1.963 2.202-5.968 1.1-2.449 1.102-8.407 1.1-6.568 2.203-15.373 1.1-10.806 1.101-6.704 1.101-11.582 1.101-10.311 2.202-27.024 2.202-18.592 2.202-16.314 1.1-3.801 1.102-5.492 1.1-4.306 1.102-4.895 1.1 1.758 1.101-7.426 1.101 4.609 1.101-3.243 2.202 8.281 1.101-1.703 1.101.272 1.1-.868 1.102-1.557 1.1-1.82 1.102 4.613 1.1.804 1.102.627 1.1 1.99 1.101 5.354 1.101-.688 1.101 6.47 1.101 2.084 1.101 1.451 1.101 2.91 1.101 6.744 1.1 4.282 2.203 15.534 1.1 1.321 1.102 5.778 1.1 7.044 1.101 2.51 1.101 6.371 1.101 5.42 2.202 8.792 1.101 4.575 1.101 6.07 1.1-.613 1.102 4.599 1.1-.304 1.102 2.29 1.1 1.948 1.102 4.245 1.1 1.352 1.101 1.618 1.101.43 2.202-.307 1.101.586 2.202 2.82 1.1 4.197 1.102 1.182 1.1 2.94 1.102 2.081 1.1 1.502 1.102-.586 1.1 2.654 1.101 2.061 1.101 1.27 1.101 1.07 2.202 4.763 1.101 1.1 1.1 1.91 1.102.856 1.1 1.035 1.102.838 1.1.198 1.102 1.42 1.1.747 1.101-.126 1.101.204 1.101-.068 1.101 1.335 1.101-5.75 1.101-.136 1.101.518 1.1-.113 1.102.45 1.1-.245 1.102.054 2.202-.078 1.1.16 1.101-.208 2.202.395 1.101-.32 1.101 6.564 1.101.102 2.202-.245 1.1-.456 1.102.006 1.1-.439 1.102.705 1.1 1.145 1.101.095 1.101 1.363 1.101.099 1.101-.09 1.101-.282 1.101-.037 1.101-.34 3.303-1.953 1.1-.306 1.102-.123 1.1.065 1.101-2.18 1.101-.362 1.101-1.199 2.202-.5h1.101l1.101-.45 1.1.334 2.203 1.042 1.1.65 1.102.134 1.1-.079 1.101-1.54 2.202.72 1.101 1.049 1.101-.164 2.202.14 1.101.933 1.1.239 1.102-.549 1.1.668 1.102.112 1.1.484 1.102.725 1.1 1.19 1.101.722 1.101-.242 1.101-.947 1.101-.126 2.202.04 1.1-.947 1.102-.541 1.1.695 1.102-.555 1.1-.365 1.102.085 2.201-.715 2.202-.736 2.202.03 2.202-.64 1.1-.65 1.102-.13 2.202-.947 1.1-.204 1.102-.508 1.1-.269 1.101-.477 1.101-.252 1.101-1.025 1.101-1.366 1.101-.767 1.101-.068 1.1-1.083 1.102-.153 1.1-.862 1.102-1.656 1.1-.59 1.102-.404 1.1-.692 1.101-.344 1.101-2.5 1.101-1.08 1.101-.389 1.101-.18 1.101.306 1.101-1.812 1.1-.787 1.102-1.216 1.1-.238 1.102.044 2.202-4.53 1.1-1.223 1.101-1.775 1.101.463 1.101-.613 1.101-3.56 1.101-1.288 1.101-2.544 3.303-6.708 1.1-3.972 2.203-3.055 1.1-.6 1.101-2.847 1.101-4.814 1.101-2.725 1.101-3.802 1.101-4.404 2.202-5.88 1.1-7.256 1.102-4.752 1.1-6.615 1.102-4.84 2.202-19.707 1.1-2.899 1.101-7.501 1.101-5.488 1.101-7.562 2.202-9.988 1.101-6.66 1.1-5.188 1.102-1.696 2.202-6.728 1.1-2.378 1.102 1.877 1.1 2.381 1.101-3.307 1.101-1.976 1.101-.848 1.101-2.082 1.101-6.939 1.101-2.231 1.1-7.024 1.102.061 1.1-4.091 1.102-1.376 1.1-2.204 1.102 1.516 1.1-8.305 1.101-1.073 1.101-5.478 1.101 2.18 1.101-4.762 1.101 1.833 1.101 6.019 1.101 3.86 1.1 2.912 1.102 1.335 1.1 2.974 1.102-1.179 1.1 1.418 1.102-4.804 1.1 7.634 1.101 6.248 1.101 6.997 1.101 1.052 1.101 3.349 1.101-2.865 1.101-5.467 1.1-4.497 1.102 5.127 1.1-163.242 1.102-5.658 1.1-3.553 1.102-9.453 1.1-6.68 2.202-22.953 1.101-8.833 1.101-3.165 1.101-10.764 1.101-6.8 1.101-2.943 1.1-1.662 1.102-4.994 1.1 160.919 1.102 5.576 1.1 1.407 1.102 8.281 1.1 9.61 1.101.896 1.101 1.274 1.101 4.067 1.101-.647 1.101 10.45 1.101 7.993 1.1 1.29 1.102 2.47 1.1 2.889 1.102 1.151 1.1 5.032 1.102 10.655 1.1 5.992 1.101-.095 1.101 8.986 1.101 3.202 1.101 5.39 1.101 4.084 1.101 1.498 1.101 3.714 1.1 7.678 1.102 5.167 2.202 14.274 1.1-1.646 1.102-6.125 1.1.045 1.101 4.026 1.101 5.56 1.101 7.838 1.101-.487 1.101 1.427 1.101 4.265 1.1.276 1.102-.467 1.1-1.288 1.102-.756 1.1-5.78 1.102 1.171 1.1 1.424 1.101.283 1.101-2.221 1.101-2.875 1.101-1.666 1.101 1.352 1.101-3.297 1.101-2.238 1.1-.814 1.102-1.182 1.1.913 1.102-3.134 1.1 1.09 1.102-1.458 1.1-2.116 1.101-4.357 1.101-2.364 1.101-4.043 1.101-2.446 1.101-2.875 1.101-2.306 1.1-1.094 1.102-.443 1.1-4.71 1.102-2.723 1.1-4.07 1.102-2.722 1.1-3.938 1.101 2.194 1.101-3.87 1.101-.467 1.101 1.581 1.101-1.918 1.101 1.09 1.101 3.717 1.1-.494 1.102-1.322 1.1 4.79 2.203 7.443 1.1 3.9 1.101 3.13 1.101.358 1.101 5.757 1.101.504 1.101 1.782 2.202 4.428 1.1 2.974 1.102 2.61 1.1 3.754 1.102 4.629 1.1 2.78 1.102 5.767 1.1 39.11 1.101 6.234 1.101 4.946 1.101 5.702 2.202 16.545 1.101 6.647 1.101 4.087 1.1 6.251 1.102 3.223 2.202 12.55 1.1 7.265 1.102 4.616 1.1-31.193 2.202 10.86 1.101 6.186 1.101 5.225 2.202 6.377 1.1 2.163 1.102 1.223 1.1 7.103 1.102 2.902 2.202 2 2.201.3 1.101.586 1.101.31 2.202.31 1.101 1.331 1.101.079 1.1.514 1.102 1.66 1.1.582 1.102.953 1.1 1.223 1.102.068 1.1.314 1.101-.361 2.202 1.38 1.101.177 2.202-.007 1.1.133 1.102-.116 1.1-.31 1.102-.034 2.202.238 1.1.511 2.202.45 1.101-.123 1.101-.286 1.101.238 1.101-.255 1.101.04 5.505.938 1.1-.15 2.202.17 2.202.45 1.101-.051 3.303-.62 1.1-.453 1.102-.232 2.202-1.056 1.1-.777 1.101-.627 2.202-2.299 1.101-.77 1.101-1.717 2.202-2.83 2.202-3.615 2.202-2.108 1.1-1.468 2.203-4.136 2.201-4.285 1.101-1.704 1.101-1.928 1.101-2.23 1.101-1.81 1.101-2.452 1.1-1.489 1.102-2.31 1.1-1.951 1.102-1.159 1.1-2.844 3.303-7.63 1.101-4.708 1.101-1.179 1.101-1.451 1.101-1.73 1.101-1.523 1.1-1.894 1.102-5.43 1.1-2.109 1.102-.957 1.1-2.6 1.102-.776 1.1-1.455 1.101-.68 1.101-2.549 1.101 2.146 1.101-1.962 1.101-.695 1.101-1.046 1.101-2.064 1.1-1.771 1.102 4.104 1.1-.306 1.102-.9 1.1-1.113 1.102 5.12 1.1-4.718 1.101-.532 1.101-.245 1.101-1.908 1.101.01 1.101-.125 1.101.306 1.1.027 1.102-1.417 1.1-2.176 1.102-1.278 1.1-.664 1.102 1.117 1.1-6.169 1.101 3.907 1.101-.143 1.101 1.458h0" style="fill:none;stroke:#009e73;stroke-linecap:round;stroke-width:1.5" id="line2d_2"/><path clip-path="url(#pb20e8f7416)" d="m149.973 554.04 36.33-.097 3.303-.13 3.303-.325 1.1-.454 1.102-.033 1.1-.94 1.102-.747 1.1-1.558 1.101-5.29 1.101-1.429 1.101-.649 1.101-3.051 1.101-4.9 1.101-2.922 1.1-3.7 1.102-12.496 2.202-19.929 1.1-10.71 1.102-9.218 1.1-13.113 1.101-17.397 1.101-14.313 1.101-23.434 1.101-28.367 1.101-10.776 1.101-16.975 1.101-18.792 1.1-7.238 1.102-2.662 1.1-9.282 2.203-6.232 1.1.162 1.101 3.019 1.101 5.29 1.101 1.428 1.101 10.16 1.101 19.279 1.101-1.59 2.202 20.415 1.1.357 1.102 3.44 1.1 8.796 1.102 1.915 1.1 6.329 1.101 5.485 1.101 6.07 1.101 7.367 1.101 12.886 1.101 7.595 1.101 5.063 2.202 17.527 1.1 5.42 2.203 17.656 1.1 6.946 1.102 9.088 1.1 3.31 1.101 1.299 1.101 2.726 1.101 4.415 1.101 7.594 1.101 3.408 2.202 6.135 1.1-.033 1.102 3.733 1.1 2.077 1.102.779 1.1.974 1.102 2.596 1.1-.357 2.202.098 1.101-.033 1.101-6.653 1.101 1.622 1.101 2.045 1.101 1.753 1.1 2.207 1.102 1.038 1.1-1.525 1.102 1.071 1.1.487 1.102-.454 1.1 3.765 1.101 2.304 1.101.876 1.101-1.103 1.101 2.694 1.101 1.33 1.101-2.401 1.1 1.558h1.102l1.1-.714 1.102.519 1.1.357 1.102 1.2h1.1l1.101.195 1.101-.032 1.101.097 1.101 2.143 1.101-9.12 1.101-2.37 1.101 1.655 1.1-2.142 1.102.292 2.202.325 1.1-.195 1.102-1.298 1.1-.033 1.101-1.59 1.101-.098 1.101.357 1.101-.908 1.101 9.185 1.101 1.33 1.1-.291 1.102 1.785 1.1.032 1.102 1.039 2.202.324 1.1 1.364 1.101.551 1.101 2.013 1.101-.78 1.101.098 2.202.974 1.101.876 2.202-.65 1.1-1.103 1.102-1.46 1.1-.844 1.102.065 1.1-1.428 1.101-.292 1.101-.844 1.101.746 1.101-1.266 1.101.52 2.202.26 1.1-.877 1.102-.292 2.202 1.46 1.1.325 1.101-.649 1.101-1.883 1.101-1.298 2.202-3.213 1.101 1.006 1.101.844 1.101 2.467 1.1.13 1.102.746 1.1 1.071 1.102.162 2.202-.357 1.1.747 1.101 3.18 1.101.52 2.202 2.5 1.101-1.267 1.101-.844 1.1-2.564 1.102-.227 1.1 1.006 1.102-.746 1.1-.065 1.102.487 1.1.324 1.101-.13 1.101-.357 1.101 1.169 1.101.195 1.101.454 1.101 1.98 1.101-.162 1.1-.78 1.102-.13 1.1-.746 1.102.325 1.1-.033 1.102-.843 1.1.13 1.101-.195 1.101.13 1.101-.715 1.101-.389 1.101-.13 1.101-.974 1.1-.13 1.102-.389 1.1-.714 1.102-1.071 1.1-.617 1.102-.357 1.1.033 1.101-.812 1.101-1.785 2.202-2.888 1.101-.747 1.101-.487 1.101-2.207 2.202-2.207 1.1-.65 1.102-.356 1.1-1.85 1.102-2.175 1.1-1.525 1.101-2.337 1.101-.747 1.101-.486 1.101-2.37 1.101-1.72 1.101-2.37 1.1-1.46 1.102-.876 1.1-1.071 1.102-4.35 2.202-3.96 1.1-1.427 1.101-2.435 1.101-3.018 1.101.032 1.101-4.057 1.101-5.94 1.101-2.953 1.1-.487 1.102-4.998 1.1-7.206 1.102-8.795 1.1-4.642 2.203-16.098 1.1-1.136 2.202-13.795 1.101-10.938 1.101-4.154 1.101-3.538 1.101-6.296 1.1-8.374 1.102-1.136 1.1-.584 1.102-.26 1.1-6.362 1.102 5.745 2.201-6.491 1.101-2.11 1.101.747 1.101-1.883 1.101-8.893 1.101-2.24 1.1-4.511 1.102 1.947 1.1-1.266 1.102 1.818 1.1-.26 1.102 8.504 1.1-10.354 1.101 4.285 1.101-3.506 1.101 3.863 1.101-.844 1.101 4.317 1.101 7.173 2.202 10.873 1.1 2.694 1.102 1.233 1.1-5.972 1.102-1.169 1.1-4.966 1.101 7.498 2.202 9.218 1.101.811 1.101.422 1.101-5.485 2.202-5.193 1.1 2.207 1.102-141.902 1.1-9.607 1.102-4.9 1.1-6.525 1.101-7.79 2.202-19.311 1.101-3.7 1.101-1.233 1.101-10.744 1.101-6.88 2.202-7.109 1.1-5.842 1.102 140.928 1.1 4.836 1.102 1.33 1.1 4.934 1.101 10.419 1.101-2.24 1.101 1.59 1.101.747 1.101-3.505 2.202 15.936 1.1 3.7 1.102.714 1.1 2.045 1.102-2.434 1.1 5.874 1.102 11.393 1.1 3.278 1.101-4.804 1.101 5.81 1.101 1.72 1.101 2.857 1.101 4.576 1.101 1.233 1.101 3.798 1.1 2.888 1.102 3.408 1.1 5.258 1.102 6.784 1.1-6.719 1.102-5.03 1.1 1.395 1.101 6.427 1.101 4.251 1.101 6.524 2.202-6.653 1.101 2.272 1.1-2.727 1.102-4.674 1.1-.486 1.102.26 1.1-11.555 1.102 3.408 1.1-4.187 1.101-.52 1.101-5.095 1.101 4.316 1.101-3.375 1.101 3.18 1.101-3.375 1.101-.909 1.1-.746 1.102 2.337 1.1 1.168 1.102-4.414 1.1 5.583 1.102-2.5 1.1.293 1.101-2.922 1.101-2.531 1.101-9.997 1.101-.974 1.101-3.148 1.101.065 1.1-1.33 1.102 4.51 1.1-9.444 1.102-5.68 1.1-4.934 1.102-1.265 1.1-1.948 1.101-2.37 1.101-2.012 1.101.52 1.101.292 1.101-.227 1.101.714 1.101 5.03 1.1-2.466 1.102-1.526 1.1 11.133 1.102 6.2 1.1 6.913 1.102 3.992 2.201 13.145 1.101 5.453 1.101 4.024 2.202 9.12 1.101 5.324 1.1 3.57 1.102 6.653 1.1 3.344 1.102 5.225 1.1 3.116 1.102 5.583 1.1 7.854 1.101 4.706 1.101 5.94 1.101 4.317 2.202 15.611 1.101 4.772 1.101 2.856 1.1 5.096 1.102-31.581 1.1-3.148 1.102 5.063 1.1 6.2 1.102 2.888 1.1-1.071 1.101 4.414 1.101 3.278 1.101 5.972 1.101 2.954 1.101 1.363 1.101.941 1.1 1.428 1.102 2.013 1.1 40.7 1.102 12.27 1.1.486 1.102 1.98 1.1 1.039 2.202.486 1.101 1.461 1.101.422 1.101 1.363 1.101 2.305 1.101 1.2 1.1.877 1.102.616 1.1.78 1.102.389 1.1 1.298 1.102-.422 1.1.227 1.101.455 1.101.941 1.101.617 1.101.26 2.202-.13 1.1-.422 1.102-.098 1.1-.681 2.203-.39h1.1l1.101.877 2.202.421 1.101-.389 2.202-1.136 1.101.227 1.101-.162 1.1.065 1.102.26 1.1.064 1.102-.551 1.1-.422 1.102-.033 1.1-.324 1.101.357 1.101.032 3.303 1.623 2.202.195 1.1-.292 1.102-.033 2.202-.454 1.1-.455 1.101-.714 2.202-1.72 1.101-.682 2.202-2.142 1.101-1.882 1.1-2.532 1.102-2.11 1.1-1.07 1.102-1.883 1.1-1.233 1.102-1.72 1.1-2.467 2.202-4.09 1.101-2.337 1.101-1.785 1.101-2.629 1.101-1.655 2.202-2.337 2.202-1.623 1.1.325 1.102-3.603 1.1-1.753 1.101-2.37 1.101-.94 1.101-3.408 1.101 3.115 1.101-.324 2.202-4.869 1.1-.843 1.102-4.577 1.1-2.175 1.102-1.59 1.1-2.175 1.102.974 1.1-1.59 1.101.52 1.101-2.533 1.101.487 1.101-4.998 1.101-.941 1.101.909 1.101.032 1.1-1.396 1.102 4.739 1.1-.682 1.102-.227 1.1-.973 1.102 3.992 1.1-2.564 1.101-.714 1.101-.422 1.101-.065 1.101.324 1.101.52 1.101-1.007 1.1-.097 1.102-.714 1.1-1.59 1.102-.195 1.1-.65 1.102 1.202 1.1-3.278 1.101 2.401 1.101.065 1.101-.097h0" style="fill:none;stroke:#d55e00;stroke-linecap:round;stroke-width:1.5" id="line2d_3"/><path clip-path="url(#pb20e8f7416)" d="M149.973 554.04h48.44l1.101-3.306h2.202l1.101-1.653h1.101l2.202-9.919 1.1-9.918 1.102-1.653 1.1-4.96 1.102-3.306 1.1-8.265 1.101-13.225 1.101-11.571h1.101l1.101-9.919 1.101-26.45 1.101-16.53 1.101-4.96 1.101-3.305h1.1l1.102-6.613 1.1-9.918 1.102 1.653 1.1 3.306 1.102-1.653 1.1 6.612 1.101 4.96 1.101-4.96 1.101 1.653 1.101 21.49 1.101 18.184 1.101-3.306 1.1 3.306 1.102-3.306 1.1 8.266h3.304l1.1 1.653 1.101 6.612 3.303 9.918h2.202l1.101 8.266 1.1 4.96 2.203 16.53 1.1 9.918 1.102 3.307h1.1l1.101 1.653 1.101-6.613 1.101 1.653 2.202 6.613 1.101 4.959h2.202l1.1-1.653h2.203l1.1 1.653h2.202l1.101 6.612 1.101 4.96 2.202 3.306 1.101-1.653h2.202l1.1-4.96h8.808l1.101-1.653h1.101l1.101 1.653h2.202l1.1 4.96h6.606l1.101-3.306 1.101 1.653h1.101l1.101-1.653h3.303l1.1-6.613 1.102 1.653 1.1-1.653h4.404l1.101-6.612 1.101-1.653 1.101 1.653h1.101l1.101-1.653h2.202l1.1 3.306 1.102-1.653 1.1 1.653h4.404l1.101 9.918 1.101-3.306 1.101-1.653h1.101l1.101 3.306h2.202l2.202 3.307h1.1l1.102-1.654h3.302l1.101-1.653 1.101 4.96h1.101l1.101 1.653h3.303l1.1 1.653h1.102l1.1-1.653 1.101 1.653 1.101-1.653h4.404l1.101 1.653 2.202-3.306h3.303l1.1-3.307h1.102l1.1-1.653 1.101 1.653h4.404l1.101-6.612 2.202 3.306h3.303l1.1-1.653 2.202 3.306h5.505l1.101 3.307 1.1-1.654h3.304l1.1-4.959 1.102 4.96 1.1-1.654h4.404l1.101 1.653h1.101l1.1 3.307 1.102 1.653h3.303l1.1 1.653 1.101-1.653 1.101-6.613 1.101-14.877 1.101-3.307h2.202l1.101-3.306 1.101-9.918 1.1-1.653 2.203-16.531 2.202-9.919h1.1l2.202 3.307 1.101 14.877 1.101 3.306h2.202l1.101-6.612 1.1 3.306 1.102-6.612h2.202l2.202 9.918 1.1-16.53 1.101-1.653 2.202-9.919 1.101-8.265h2.202l1.1-21.49h1.102l1.1 8.265 1.102-19.837 1.1-3.306h2.203l1.1-6.612 1.101-18.184 2.202-16.531 1.101-14.878 1.101-8.265h1.101l1.1 8.265 1.102-6.612 1.1-9.919 1.102 28.103 1.1 11.571 1.102-33.061h1.1l1.101 3.306 1.101 8.265 1.101 1.653 1.101-13.224 1.101-16.531 1.101-9.919h1.1l1.102 4.96 1.1-6.613 1.102 1.653 1.1-29.755 1.102-14.878 1.1 33.062h2.202l1.101-3.306 1.101 6.612 1.101 26.45 1.101 11.57 1.101 18.185h1.1l1.102-26.45 1.1 8.266 1.102-36.368 1.1 21.49 1.102 14.878h2.201l1.101-26.45 1.101 6.613 2.202-38.021 1.101 28.102h2.202l1.1-9.918 1.102-18.184 1.1 21.49 1.102-16.53 1.1-19.838 1.101-16.53h1.101l1.101 13.224 1.101-9.918 1.101 6.612 1.101 1.653 1.101-16.53h2.202l1.1 54.55 1.102-4.958 1.1 6.612 1.102 18.184 1.1 14.878 1.101 16.53h1.101l1.101-14.877 1.101 11.571 1.101 14.878 1.101 6.612 1.1-9.918 1.102-8.266h2.202l1.1 34.715 1.102-26.45 2.201-13.224h2.202l1.101 24.796 1.101-4.959 1.101 1.653h1.101l1.1 18.184 1.102-3.306h2.202l1.1-23.143 1.102 34.714 1.1 8.266 1.101 3.306h1.101l1.101-11.572 1.101 19.837 2.202 3.307 1.1-11.572 1.102-6.612 1.1 11.571h1.102l1.1-26.449 1.102 6.612 1.1-1.653h1.101l1.101-14.877h1.101l1.101 11.571 1.101-16.53 1.101 3.305 1.101-6.612 1.1-1.653 1.102 6.612h2.202l1.1-11.571 1.102 4.959 1.1-3.306h1.101l1.101 14.878h2.202l1.101-16.531 1.101-3.306 1.1 1.653 1.102 9.918 1.1-3.306h1.102l1.1-14.878 1.102 19.837 1.1-1.653 1.101 8.266 1.101-24.797 1.101-6.612h2.202l1.101 11.572 1.101-3.307 2.202-1.653v-1.653l1.1 3.306 1.102-1.653 1.1 14.878 1.102 1.653 1.1 4.96 1.101-3.307 1.101 9.919 1.101 6.612 1.101-8.265h1.101l1.101 23.143 1.1 11.571 2.203 6.613h1.1l1.102 1.653h1.1l1.101 6.612 2.202 6.612 1.101 13.225 1.101-6.612 1.101 6.612h1.101l1.101 1.653h2.202l1.1 8.266 1.102 4.959h2.202l1.1 3.306 1.101 4.96 1.101 3.305 1.101 6.613 1.101 14.877 1.101 1.654h1.101l1.1 3.306 1.102 1.653 1.1 9.918 1.102 1.653 1.1 3.307h2.202l1.101 6.612h2.202l1.101-3.306h5.505l1.1-1.653 1.102 1.653h4.403l1.101-4.96h1.101l1.101 3.307h5.505l1.1 1.653h5.505l1.101 4.959 1.101 1.653h1.101l1.101-6.612h5.505l1.1-1.653h6.606l1.101-1.653 1.101 4.959h4.404l2.202-3.306h6.605l1.101-1.653 1.1-8.266h2.203l1.1-34.715 1.102-3.306h1.1l2.202-16.53h2.202l1.101-11.572 1.101-4.96 1.101-1.652h1.101l1.1 8.265h2.203l1.1 18.184 1.102-1.653 1.1-8.266 1.101 1.653 1.101 4.96h2.202l1.101-4.96 1.101 1.653h1.101l1.1-3.306 1.102 1.653h2.202l1.1 13.225 1.102-1.653 1.1 6.612 1.101 1.653 1.101 3.307h2.202l1.101 4.959 1.101-8.266 1.101-9.918 1.1 3.306 1.102-8.265h2.202l1.1 3.306 1.102-13.225 1.1-6.612 1.101 8.265 1.101-8.265h2.202l1.101-3.306 1.101 6.612 1.1 4.96 1.102-9.92 1.1 1.654h2.203l1.1-21.49 1.101 18.184 1.101 1.653 1.101-8.266 1.101 3.307h0" style="fill:none;stroke:#0072b2;stroke-linecap:round;stroke-width:1.5" id="line2d_4"/><path clip-path="url(#pb20e8f7416)" d="M117 551.014h725.4" style="fill:none;stroke:green;stroke-dasharray:1.5,2.475;stroke-dashoffset:0;stroke-width:1.5" id="line2d_5"/><path clip-path="url(#pb20e8f7416)" d="M117 538.912h725.4" style="fill:none;stroke:orange;stroke-dasharray:1.5,2.475;stroke-dashoffset:0;stroke-width:1.5" id="line2d_6"/><path clip-path="url(#pb20e8f7416)" d="M117 523.784h725.4" style="fill:none;stroke:red;stroke-dasharray:1.5,2.475;stroke-dashoffset:0;stroke-width:1.5" id="line2d_7"/><path d="M117 576.72V77.76" style="fill:none;stroke:#d3d3d3;stroke-linecap:square;stroke-linejoin:miter;stroke-width:1.25" id="patch_3"/><path d="M117 576.72h725.4" style="fill:none;stroke:#d3d3d3;stroke-linecap:square;stroke-linejoin:miter;stroke-width:1.25" id="patch_4"/><g id="matplotlib.axis_1"><g id="xtick_1"><g style="fill:#696969" transform="matrix(.16 0 0 -.16 164.604 598.378)" id="text_1"><defs><path d="M9.813 72.906h14.703l18.593-49.61 18.703 49.61h14.704V0H66.89v64.016l-18.797-50h-9.907l-18.796 50V0H9.813z" id="DejaVuSans-77"/><path d="M34.281 27.484q-10.89 0-15.093-2.484-4.204-2.484-4.204-8.5 0-4.781 3.157-7.594 3.156-2.797 8.562-2.797 7.485 0 12 5.297 4.516 5.297 4.516 14.078v2zm17.922 3.72V0H43.22v8.297Q40.14 3.328 35.547.953q-4.594-2.375-11.234-2.375-8.391 0-13.36 4.719Q6 8.016 6 15.922q0 9.219 6.172 13.906 6.187 4.688 18.437 4.688h12.61v.89q0 6.203-4.078 9.594-4.078 3.39-11.453 3.39-4.688 0-9.141-1.124-4.438-1.125-8.531-3.375v8.312q4.921 1.906 9.562 2.844 4.64.953 9.031.953 11.875 0 17.735-6.156 5.86-6.14 5.86-18.64z" id="DejaVuSans-97"/><path d="M41.11 46.297q-1.516.875-3.297 1.281Q36.03 48 33.89 48q-7.625 0-11.703-4.953-4.079-4.953-4.079-14.234V0H9.08v54.688h9.03v-8.5q2.844 4.984 7.375 7.39Q30.031 56 36.531 56q.922 0 2.047-.125 1.125-.11 2.484-.36z" id="DejaVuSans-114"/></defs><use xlink:href="#DejaVuSans-77"/><use x="86.279" xlink:href="#DejaVuSans-97"/><use x="147.559" xlink:href="#DejaVuSans-114"/></g></g><g id="xtick_2"><g style="fill:#696969" transform="matrix(.16 0 0 -.16 230.314 598.378)" id="text_2"><defs><path d="M32.172-5.078q-3.797-9.766-7.422-12.735-3.61-2.984-9.656-2.984H7.906v7.516h5.282q3.703 0 5.75 1.765Q21-9.766 23.483-3.219l1.61 4.094-22.11 53.813H12.5l17.094-42.766 17.093 42.766h9.516z" id="DejaVuSans-121"/></defs><use xlink:href="#DejaVuSans-77"/><use x="86.279" xlink:href="#DejaVuSans-97"/><use x="147.559" xlink:href="#DejaVuSans-121"/></g></g><g id="xtick_3"><g style="fill:#696969" transform="matrix(.16 0 0 -.16 304.358 598.378)" id="text_3"><defs><path d="M9.813 72.906h9.859V5.078q0-13.187-5-19.14-5-5.954-16.094-5.954h-3.75v8.297h3.078q6.531 0 9.219 3.672Q9.813-4.39 9.813 5.078z" id="DejaVuSans-74"/><path d="M8.5 21.578v33.11h8.984V21.922q0-7.766 3.016-11.656 3.031-3.875 9.094-3.875 7.265 0 11.484 4.64 4.234 4.64 4.234 12.656v31h8.985V0h-8.984v8.406Q42.047 3.422 37.718 1q-4.313-2.422-10.032-2.422-9.421 0-14.312 5.86Q8.5 10.296 8.5 21.578zM31.11 56z" id="DejaVuSans-117"/><path d="M9.422 75.984h8.984V0H9.422z" id="DejaVuSans-108"/></defs><use xlink:href="#DejaVuSans-74"/><use x="29.492" xlink:href="#DejaVuSans-117"/><use x="92.871" xlink:href="#DejaVuSans-108"/></g></g><g id="xtick_4"><g style="fill:#696969" transform="matrix(.16 0 0 -.16 367.188 598.378)" id="text_4"><defs><path d="M53.516 70.516V60.89q-5.61 2.687-10.594 4-4.984 1.328-9.625 1.328-8.047 0-12.422-3.125t-4.375-8.89q0-4.845 2.906-7.313 2.907-2.453 11.016-3.97l5.953-1.218q11.031-2.11 16.281-7.406 5.25-5.297 5.25-14.172 0-10.61-7.11-16.078-7.093-5.469-20.812-5.469-5.172 0-11.015 1.172Q13.14.922 6.89 3.219v10.156q6-3.36 11.765-5.078 5.766-1.703 11.328-1.703 8.438 0 13.032 3.312 4.593 3.328 4.593 9.485 0 5.359-3.297 8.39-3.296 3.032-10.812 4.547L27.484 33.5q-11.03 2.188-15.968 6.875-4.922 4.688-4.922 13.047 0 9.672 6.812 15.234 6.813 5.563 18.766 5.563 5.14 0 10.453-.938 5.328-.922 10.89-2.765z" id="DejaVuSans-83"/><path d="M56.203 29.594v-4.39H14.891q.593-9.282 5.593-14.142 5-4.859 13.938-4.859 5.172 0 10.031 1.266 4.86 1.265 9.656 3.812v-8.5Q49.266.734 44.187-.344 39.11-1.422 33.892-1.422q-13.094 0-20.735 7.61-7.64 7.625-7.64 20.625 0 13.421 7.25 21.296Q20.016 56 32.328 56q11.031 0 17.453-7.11 6.422-7.093 6.422-19.296zm-8.984 2.64q-.094 7.36-4.125 11.75-4.032 4.407-10.672 4.407-7.516 0-12.031-4.25-4.516-4.25-5.203-11.97z" id="DejaVuSans-101"/><path d="M18.11 8.203v-29H9.077v75.484h9.031v-8.296q2.844 4.875 7.157 7.234Q29.594 56 35.594 56q9.968 0 16.187-7.906 6.235-7.907 6.235-20.797T51.78 6.484q-6.218-7.906-16.187-7.906-6 0-10.328 2.375-4.313 2.375-7.157 7.25zm30.578 19.094q0 9.906-4.079 15.547-4.078 5.64-11.203 5.64-7.14 0-11.218-5.64-4.079-5.64-4.079-15.547 0-9.906 4.078-15.547 4.079-5.64 11.22-5.64 7.124 0 11.202 5.64t4.078 15.547z" id="DejaVuSans-112"/></defs><use xlink:href="#DejaVuSans-83"/><use x="63.477" xlink:href="#DejaVuSans-101"/><use x="125" xlink:href="#DejaVuSans-112"/></g></g><g id="xtick_5"><g style="fill:#696969" transform="matrix(.16 0 0 -.16 433.81 598.378)" id="text_5"><defs><path d="M9.813 72.906h13.28l32.329-60.984v60.984h9.562V0h-13.28L19.39 60.984V0H9.813z" id="DejaVuSans-78"/><path d="M30.61 48.39q-7.22 0-11.422-5.64-4.204-5.64-4.204-15.453 0-9.813 4.172-15.453 4.188-5.64 11.453-5.64 7.188 0 11.375 5.655 4.203 5.672 4.203 15.438 0 9.719-4.203 15.406-4.187 5.688-11.375 5.688zm0 7.61q11.718 0 18.406-7.625 6.703-7.61 6.703-21.078 0-13.422-6.703-21.078-6.688-7.64-18.407-7.64-11.765 0-18.437 7.64-6.656 7.656-6.656 21.078 0 13.469 6.656 21.078Q18.844 56 30.609 56z" id="DejaVuSans-111"/><path d="M2.984 54.688H12.5L29.594 8.797l17.093 45.89h9.516L35.687 0H23.485z" id="DejaVuSans-118"/></defs><use xlink:href="#DejaVuSans-78"/><use x="74.805" xlink:href="#DejaVuSans-111"/><use x="135.986" xlink:href="#DejaVuSans-118"/></g></g><g id="xtick_6"><g style="fill:#696969" transform="matrix(.16 0 0 -.16 504.249 598.378)" id="text_6"><defs><path d="M54.89 33.016V0h-8.984v32.719q0 7.765-3.031 11.61-3.031 3.858-9.078 3.858-7.281 0-11.484-4.64-4.204-4.625-4.204-12.64V0H9.08v54.688h9.03v-8.5q3.235 4.937 7.594 7.374Q30.078 56 35.797 56q9.422 0 14.25-5.828 4.844-5.828 4.844-17.156z" id="DejaVuSans-110"/></defs><use xlink:href="#DejaVuSans-74"/><use x="29.492" xlink:href="#DejaVuSans-97"/><use x="90.771" xlink:href="#DejaVuSans-110"/></g></g><g id="xtick_7"><g style="fill:#696969" transform="matrix(.16 0 0 -.16 566.442 598.378)" id="text_7"><use xlink:href="#DejaVuSans-77"/><use x="86.279" xlink:href="#DejaVuSans-97"/><use x="147.559" xlink:href="#DejaVuSans-114"/></g></g><g id="xtick_8"><g style="fill:#696969" transform="matrix(.16 0 0 -.16 632.152 598.378)" id="text_8"><use xlink:href="#DejaVuSans-77"/><use x="86.279" xlink:href="#DejaVuSans-97"/><use x="147.559" xlink:href="#DejaVuSans-121"/></g></g><g id="xtick_9"><g style="fill:#696969" transform="matrix(.16 0 0 -.16 706.196 598.378)" id="text_9"><use xlink:href="#DejaVuSans-74"/><use x="29.492" xlink:href="#DejaVuSans-117"/><use x="92.871" xlink:href="#DejaVuSans-108"/></g></g><g id="xtick_10"><g style="fill:#696969" transform="matrix(.16 0 0 -.16 769.026 598.378)" id="text_10"><use xlink:href="#DejaVuSans-83"/><use x="63.477" xlink:href="#DejaVuSans-101"/><use x="125" xlink:href="#DejaVuSans-112"/></g></g></g><g id="matplotlib.axis_2"><g id="ytick_1"><g style="fill:#696969" transform="matrix(.16 0 0 -.16 97.32 560.119)" id="text_11"><defs><path d="M31.781 66.406q-7.61 0-11.453-7.5Q16.5 51.422 16.5 36.375q0-14.984 3.828-22.484 3.844-7.5 11.453-7.5 7.672 0 11.5 7.5 3.844 7.5 3.844 22.484 0 15.047-3.844 22.531-3.828 7.5-11.5 7.5zm0 7.813q12.266 0 18.735-9.703 6.468-9.688 6.468-28.141 0-18.406-6.468-28.11-6.47-9.687-18.735-9.687-12.25 0-18.718 9.688-6.47 9.703-6.47 28.109 0 18.453 6.47 28.14Q19.53 74.22 31.78 74.22z" id="DejaVuSans-48"/></defs><use xlink:href="#DejaVuSans-48"/></g></g><g id="ytick_2"><g style="fill:#696969" transform="matrix(.16 0 0 -.16 76.96 499.606)" id="text_12"><defs><path d="M19.188 8.297h34.421V0H7.33v8.297q5.609 5.812 15.296 15.594 9.703 9.797 12.188 12.64 4.734 5.313 6.609 9 1.89 3.688 1.89 7.25 0 5.813-4.078 9.469-4.078 3.672-10.625 3.672-4.64 0-9.797-1.61-5.14-1.609-11-4.89v9.969Q13.767 71.78 18.938 73q5.188 1.219 9.485 1.219 11.328 0 18.062-5.672 6.735-5.656 6.735-15.125 0-4.5-1.688-8.531-1.672-4.016-6.125-9.485-1.218-1.422-7.765-8.187-6.532-6.766-18.453-18.922z" id="DejaVuSans-50"/></defs><use xlink:href="#DejaVuSans-50"/><use x="63.623" xlink:href="#DejaVuSans-48"/><use x="127.246" xlink:href="#DejaVuSans-48"/></g></g><g id="ytick_3"><g style="fill:#696969" transform="matrix(.16 0 0 -.16 76.96 439.093)" id="text_13"><defs><path d="M37.797 64.313 12.89 25.39h24.906zm-2.594 8.593H47.61V25.391h10.407v-8.203H47.609V0h-9.812v17.188H4.89v9.515z" id="DejaVuSans-52"/></defs><use xlink:href="#DejaVuSans-52"/><use x="63.623" xlink:href="#DejaVuSans-48"/><use x="127.246" xlink:href="#DejaVuSans-48"/></g></g><g id="ytick_4"><g style="fill:#696969" transform="matrix(.16 0 0 -.16 76.96 378.58)" id="text_14"><defs><path d="M33.016 40.375q-6.641 0-10.532-4.547-3.875-4.531-3.875-12.437 0-7.86 3.875-12.438 3.891-4.562 10.532-4.562 6.64 0 10.515 4.562 3.875 4.578 3.875 12.438 0 7.906-3.875 12.437-3.875 4.547-10.515 4.547zm19.578 30.922v-8.984q-3.719 1.75-7.5 2.671-3.782.938-7.5.938-9.766 0-14.922-6.594-5.14-6.594-5.875-19.922 2.875 4.25 7.219 6.516 4.359 2.266 9.578 2.266 10.984 0 17.36-6.672 6.374-6.657 6.374-18.125 0-11.235-6.64-18.032-6.641-6.78-17.672-6.78-12.657 0-19.344 9.687-6.688 9.703-6.688 28.109 0 17.281 8.204 27.563 8.203 10.28 22.015 10.28 3.719 0 7.5-.734t7.89-2.187z" id="DejaVuSans-54"/></defs><use xlink:href="#DejaVuSans-54"/><use x="63.623" xlink:href="#DejaVuSans-48"/><use x="127.246" xlink:href="#DejaVuSans-48"/></g></g><g id="ytick_5"><g style="fill:#696969" transform="matrix(.16 0 0 -.16 76.96 318.068)" id="text_15"><defs><path d="M31.781 34.625q-7.031 0-11.062-3.766-4.016-3.765-4.016-10.343 0-6.594 4.016-10.36Q24.75 6.391 31.78 6.391q7.032 0 11.078 3.78 4.063 3.798 4.063 10.345 0 6.578-4.031 10.343-4.016 3.766-11.11 3.766zm-9.86 4.188q-6.343 1.562-9.89 5.906Q8.5 49.079 8.5 55.329q0 8.733 6.219 13.812 6.234 5.078 17.062 5.078 10.89 0 17.094-5.078 6.203-5.079 6.203-13.813 0-6.25-3.547-10.61-3.531-4.343-9.828-5.906 7.125-1.656 11.094-6.5 3.984-4.828 3.984-11.796 0-10.61-6.468-16.282-6.47-5.656-18.532-5.656-12.047 0-18.531 5.656-6.469 5.672-6.469 16.282 0 6.968 4 11.797 4.016 4.843 11.14 6.5zM18.314 54.39q0-5.657 3.53-8.828 3.548-3.172 9.938-3.172 6.36 0 9.938 3.172 3.593 3.171 3.593 8.828 0 5.672-3.593 8.843-3.578 3.172-9.938 3.172-6.39 0-9.937-3.172-3.532-3.172-3.532-8.843z" id="DejaVuSans-56"/></defs><use xlink:href="#DejaVuSans-56"/><use x="63.623" xlink:href="#DejaVuSans-48"/><use x="127.246" xlink:href="#DejaVuSans-48"/></g></g><g id="ytick_6"><g style="fill:#696969" transform="matrix(.16 0 0 -.16 66.78 257.555)" id="text_16"><defs><path d="M12.406 8.297h16.11v55.625l-17.532-3.516v8.985l17.438 3.515h9.86V8.296H54.39V0H12.406z" id="DejaVuSans-49"/></defs><use xlink:href="#DejaVuSans-49"/><use x="63.623" xlink:href="#DejaVuSans-48"/><use x="127.246" xlink:href="#DejaVuSans-48"/><use x="190.869" xlink:href="#DejaVuSans-48"/></g></g><g id="ytick_7"><g style="fill:#696969" transform="matrix(.16 0 0 -.16 66.78 197.043)" id="text_17"><use xlink:href="#DejaVuSans-49"/><use x="63.623" xlink:href="#DejaVuSans-50"/><use x="127.246" xlink:href="#DejaVuSans-48"/><use x="190.869" xlink:href="#DejaVuSans-48"/></g></g><g id="ytick_8"><g style="fill:#696969" transform="matrix(.16 0 0 -.16 66.78 136.53)" id="text_18"><use xlink:href="#DejaVuSans-49"/><use x="63.623" xlink:href="#DejaVuSans-52"/><use x="127.246" xlink:href="#DejaVuSans-48"/><use x="190.869" xlink:href="#DejaVuSans-48"/></g></g><g style="fill:#696969" transform="matrix(0 -.2 -.2 0 58.62 379.813)" id="text_19"><defs><path d="M51.125 44H36.922l-4.11-16.313h14.313zm-7.328 27.781-5.078-20.265h14.265L58.11 71.78h7.813L60.89 51.516h15.234V44h-17.14l-4-16.313h15.53V20.22H53.079L48 0h-7.813l5.032 20.219H30.906L25.875 0h-7.86l5.079 20.219H7.719v7.468h17.187L29 44H13.281v7.516h17.625l4.985 20.265z" id="DejaVuSans-35"/><path d="M37.11 75.984V68.5h-8.594q-4.828 0-6.72-1.953-1.874-1.953-1.874-7.031v-4.828h14.797v-6.985H19.922V0H10.89v47.703H2.297v6.984h8.594V58.5q0 9.125 4.25 13.297 4.25 4.187 13.468 4.187z" id="DejaVuSans-102"/><path d="M48.781 52.594v-8.407q-3.812 2.11-7.64 3.157-3.828 1.047-7.735 1.047-8.75 0-13.593-5.547-4.829-5.532-4.829-15.547 0-10.016 4.829-15.563 4.843-5.53 13.593-5.53 3.907 0 7.735 1.046 3.828 1.047 7.64 3.156V2.094Q45.016.344 40.984-.531q-4.015-.89-8.562-.89-12.36 0-19.64 7.765-7.266 7.765-7.266 20.953 0 13.375 7.343 21.031Q20.22 56 33.016 56q4.14 0 8.093-.86 3.953-.843 7.672-2.546z" id="DejaVuSans-99"/><path d="M44.281 53.078v-8.5q-3.797 1.953-7.906 2.922-4.094.984-8.5.984-6.688 0-10.031-2.047-3.344-2.046-3.344-6.156 0-3.125 2.39-4.906 2.391-1.781 9.626-3.39l3.078-.688q9.562-2.047 13.593-5.781 4.032-3.735 4.032-10.422 0-7.625-6.032-12.078-6.03-4.438-16.578-4.438-4.39 0-9.156.86Q10.688.296 5.422 2v9.281q4.984-2.594 9.812-3.89 4.829-1.282 9.579-1.282 6.343 0 9.75 2.172 3.421 2.172 3.421 6.125 0 3.656-2.468 5.61-2.453 1.953-10.813 3.765l-3.125.735q-8.344 1.75-12.062 5.39-3.704 3.64-3.704 9.985 0 7.718 5.47 11.906Q16.75 56 26.811 56q4.97 0 9.36-.734 4.406-.72 8.11-2.188z" id="DejaVuSans-115"/></defs><use xlink:href="#DejaVuSans-35"/><use x="83.789" xlink:href="#DejaVuSans-32"/><use x="115.576" xlink:href="#DejaVuSans-111"/><use x="176.758" xlink:href="#DejaVuSans-102"/><use x="211.963" xlink:href="#DejaVuSans-32"/><use x="243.75" xlink:href="#DejaVuSans-99"/><use x="298.73" xlink:href="#DejaVuSans-97"/><use x="360.01" xlink:href="#DejaVuSans-115"/><use x="412.109" xlink:href="#DejaVuSans-101"/><use x="473.633" xlink:href="#DejaVuSans-115"/></g></g><g style="fill:#696969" transform="matrix(.24 0 0 -.24 252.577 71.76)" id="text_20"><defs><path d="M4.203 54.688h8.985l11.234-42.672 11.172 42.672h10.593l11.235-42.672 11.187 42.672h8.985L63.28 0H52.688L40.922 44.828 29.109 0H18.5z" id="DejaVuSans-119"/><path d="M64.406 67.281v-10.39q-4.984 4.64-10.625 6.922-5.64 2.296-11.984 2.296-12.5 0-19.14-7.64-6.641-7.64-6.641-22.094 0-14.406 6.64-22.047 6.64-7.64 19.14-7.64 6.345 0 11.985 2.296 5.64 2.297 10.625 6.938V5.609Q59.234 2.094 53.437.33q-5.78-1.75-12.218-1.75-16.563 0-26.094 10.124-9.516 10.14-9.516 27.672 0 17.578 9.516 27.703 9.531 10.14 26.094 10.14 6.531 0 12.312-1.734 5.797-1.734 10.875-5.203z" id="DejaVuSans-67"/><path d="M25.39 72.906h8.297L8.297-9.28H0z" id="DejaVuSans-47"/><path d="M9.813 72.906h9.859V42.094L52.39 72.906h12.703L28.906 38.922 67.672 0H54.688L19.672 35.11V0h-9.86z" id="DejaVuSans-75"/><path d="M45.406 46.39v29.594h8.985V0h-8.985v8.203Q42.578 3.328 38.25.953q-4.313-2.375-10.375-2.375-9.906 0-16.14 7.906-6.22 7.922-6.22 20.813 0 12.89 6.22 20.797Q17.968 56 27.874 56q6.063 0 10.375-2.375 4.328-2.36 7.156-7.234zm-30.61-19.093q0-9.906 4.079-15.547 4.078-5.64 11.203-5.64 7.125 0 11.219 5.64 4.11 5.64 4.11 15.547 0 9.906-4.11 15.547-4.094 5.64-11.219 5.64-7.125 0-11.203-5.64-4.078-5.64-4.078-15.547z" id="DejaVuSans-100"/><path d="M9.422 54.688h8.984V0H9.422zm0 21.296h8.984v-11.39H9.422z" id="DejaVuSans-105"/><path d="M31 75.875q-6.531-11.219-9.719-22.219-3.172-10.984-3.172-22.265 0-11.266 3.203-22.328Q24.517-2 31-13.188h-7.813Q15.875-1.704 12.235 9.375q-3.64 11.078-3.64 22.016 0 10.89 3.61 21.922 3.624 11.046 10.983 22.562z" id="DejaVuSans-40"/><path d="M52 44.188q3.375 6.062 8.063 8.937Q64.75 56 71.093 56q8.548 0 13.188-5.984 4.64-5.97 4.64-17V0h-9.03v32.719q0 7.86-2.797 11.656-2.781 3.813-8.485 3.813-6.984 0-11.046-4.641-4.047-4.625-4.047-12.64V0h-9.032v32.719q0 7.906-2.78 11.687-2.782 3.782-8.595 3.782-6.89 0-10.953-4.657-4.047-4.656-4.047-12.625V0H9.08v54.688h9.03v-8.5q3.078 5.03 7.375 7.421Q29.781 56 35.687 56q5.97 0 10.141-3.031Q50 49.953 52 44.187z" id="DejaVuSans-109"/><path d="M8.016 75.875h7.812q7.313-11.516 10.953-22.563 3.64-11.03 3.64-21.921 0-10.938-3.64-22.016-3.64-11.078-10.953-22.563H8.016Q14.5-2 17.703 9.063q3.203 11.063 3.203 22.329 0 11.28-3.203 22.265-3.203 11-9.687 22.219z" id="DejaVuSans-41"/></defs><use xlink:href="#DejaVuSans-78"/><use x="74.805" xlink:href="#DejaVuSans-101"/><use x="136.328" xlink:href="#DejaVuSans-119"/><use x="218.115" xlink:href="#DejaVuSans-32"/><use x="249.902" xlink:href="#DejaVuSans-67"/><use x="319.727" xlink:href="#DejaVuSans-97"/><use x="381.006" xlink:href="#DejaVuSans-115"/><use x="433.105" xlink:href="#DejaVuSans-101"/><use x="494.629" xlink:href="#DejaVuSans-115"/><use x="546.729" xlink:href="#DejaVuSans-47"/><use x="580.42" xlink:href="#DejaVuSans-49"/><use x="644.043" xlink:href="#DejaVuSans-48"/><use x="707.666" xlink:href="#DejaVuSans-48"/><use x="771.289" xlink:href="#DejaVuSans-75"/><use x="836.865" xlink:href="#DejaVuSans-32"/><use x="868.652" xlink:href="#DejaVuSans-49"/><use x="932.275" xlink:href="#DejaVuSans-52"/><use x="995.898" xlink:href="#DejaVuSans-100"/><use x="1059.375" xlink:href="#DejaVuSans-32"/><use x="1091.162" xlink:href="#DejaVuSans-105"/><use x="1118.945" xlink:href="#DejaVuSans-110"/><use x="1182.324" xlink:href="#DejaVuSans-99"/><use x="1237.305" xlink:href="#DejaVuSans-105"/><use x="1265.088" xlink:href="#DejaVuSans-100"/><use x="1328.564" xlink:href="#DejaVuSans-101"/><use x="1390.088" xlink:href="#DejaVuSans-110"/><use x="1453.467" xlink:href="#DejaVuSans-99"/><use x="1508.447" xlink:href="#DejaVuSans-101"/><use x="1569.971" xlink:href="#DejaVuSans-32"/><use x="1601.758" xlink:href="#DejaVuSans-40"/><use x="1640.771" xlink:href="#DejaVuSans-115"/><use x="1692.871" xlink:href="#DejaVuSans-117"/><use x="1756.25" xlink:href="#DejaVuSans-109"/><use x="1853.662" xlink:href="#DejaVuSans-41"/></g><g id="legend_1"><path d="M694.75 184.5H831.2q3.2 0 3.2-3.2V88.96q0-3.2-3.2-3.2H694.75q-3.2 0-3.2 3.2v92.34q0 3.2 3.2 3.2z" style="fill:none;opacity:.8;stroke:#ccc;stroke-linejoin:miter" id="patch_5"/><path d="M697.95 98.718h32" style="fill:none;stroke:#000;stroke-linecap:round;stroke-width:1.5" id="line2d_8"/><g style="fill:#696969" transform="matrix(.16 0 0 -.16 742.75 104.317)" id="text_21"><defs><path d="M8.688 72.906h9.921V28.61q0-11.718 4.235-16.875 4.25-5.14 13.781-5.14 9.469 0 13.719 5.14 4.25 5.157 4.25 16.875v44.297H64.5V27.391q0-14.25-7.063-21.532-7.046-7.28-20.812-7.28-13.828 0-20.89 7.28-7.047 7.282-7.047 21.532z" id="DejaVuSans-85"/></defs><use xlink:href="#DejaVuSans-85"/><use x="73.193" xlink:href="#DejaVuSans-83"/></g><path d="M697.95 122.203h32" style="fill:none;stroke:#009e73;stroke-linecap:round;stroke-width:1.5" id="line2d_10"/><g style="fill:#696969" transform="matrix(.16 0 0 -.16 742.75 127.802)" id="text_22"><use xlink:href="#DejaVuSans-78"/><use x="74.805" xlink:href="#DejaVuSans-74"/></g><path d="M697.95 145.688h32" style="fill:none;stroke:#d55e00;stroke-linecap:round;stroke-width:1.5" id="line2d_12"/><g style="fill:#696969" transform="matrix(.16 0 0 -.16 742.75 151.287)" id="text_23"><defs><path d="M19.672 34.813V8.108H35.5q7.953 0 11.781 3.297 3.844 3.297 3.844 10.078 0 6.844-3.844 10.078-3.828 3.25-11.781 3.25zm0 29.984V42.828h14.61q7.218 0 10.75 2.703 3.546 2.719 3.546 8.282 0 5.515-3.547 8.25-3.531 2.734-10.75 2.734zm-9.86 8.11h25.204q11.28 0 17.375-4.688Q58.5 63.53 58.5 54.89q0-6.703-3.125-10.657-3.125-3.953-9.188-4.922 7.282-1.562 11.313-6.53 4.031-4.954 4.031-12.376 0-9.765-6.64-15.093Q48.25 0 35.984 0H9.812z" id="DejaVuSans-66"/><path d="M45.406 27.984q0 9.766-4.031 15.125-4.016 5.375-11.297 5.375-7.219 0-11.25-5.375-4.031-5.359-4.031-15.125 0-9.718 4.031-15.093t11.25-5.375q7.281 0 11.297 5.375 4.031 5.375 4.031 15.093zm8.985-21.203q0-13.953-6.203-20.765Q42-20.797 29.203-20.797q-4.734 0-8.937.703-4.203.703-8.157 2.172v8.735q3.954-2.141 7.813-3.157 3.86-1.031 7.86-1.031 8.843 0 13.234 4.61 4.39 4.609 4.39 13.937v4.453q-2.781-4.844-7.125-7.234Q33.938 0 27.875 0 17.828 0 11.672 7.656q-6.156 7.672-6.156 20.328 0 12.688 6.156 20.344Q17.828 56 27.875 56q6.063 0 10.406-2.39 4.344-2.391 7.125-7.22v8.297h8.985z" id="DejaVuSans-103"/></defs><use xlink:href="#DejaVuSans-66"/><use x="68.604" xlink:href="#DejaVuSans-101"/><use x="130.127" xlink:href="#DejaVuSans-114"/><use x="169.49" xlink:href="#DejaVuSans-103"/><use x="232.967" xlink:href="#DejaVuSans-101"/><use x="294.49" xlink:href="#DejaVuSans-110"/></g><path d="M697.95 169.173h32" style="fill:none;stroke:#0072b2;stroke-linecap:round;stroke-width:1.5" id="line2d_14"/><g style="fill:#696969" transform="matrix(.16 0 0 -.16 742.75 174.773)" id="text_24"><defs><path d="M44.39 34.188q3.172-1.079 6.172-4.594 3-3.516 6.032-9.672L66.609 0H56l-9.313 18.703q-3.624 7.328-7.015 9.719-3.39 2.39-9.25 2.39h-10.75V0h-9.86v72.906h22.266q12.5 0 18.656-5.234 6.157-5.219 6.157-15.766 0-6.89-3.203-11.437-3.204-4.532-9.297-6.282zM19.673 64.797V38.922h12.406q7.125 0 10.766 3.297 3.64 3.297 3.64 9.687 0 6.39-3.64 9.64-3.64 3.25-10.766 3.25z" id="DejaVuSans-82"/><path d="M18.313 70.219V54.688h18.5v-6.985h-18.5V18.016q0-6.688 1.828-8.594 1.828-1.906 7.453-1.906h9.218V0h-9.218q-10.407 0-14.36 3.875-3.953 3.89-3.953 14.14v29.688H2.687v6.984h6.594V70.22z" id="DejaVuSans-116"/><path d="M54.89 33.016V0h-8.984v32.719q0 7.765-3.031 11.61-3.031 3.858-9.078 3.858-7.281 0-11.484-4.64-4.204-4.625-4.204-12.64V0H9.08v75.984h9.03V46.188q3.235 4.937 7.594 7.374Q30.078 56 35.797 56q9.422 0 14.25-5.828 4.844-5.828 4.844-17.156z" id="DejaVuSans-104"/></defs><use xlink:href="#DejaVuSans-82"/><use x="64.982" xlink:href="#DejaVuSans-117"/><use x="128.361" xlink:href="#DejaVuSans-116"/><use x="167.57" xlink:href="#DejaVuSans-104"/><use x="230.949" xlink:href="#DejaVuSans-101"/><use x="292.473" xlink:href="#DejaVuSans-114"/><use x="333.586" xlink:href="#DejaVuSans-102"/><use x="368.791" xlink:href="#DejaVuSans-111"/><use x="429.973" xlink:href="#DejaVuSans-114"/><use x="469.336" xlink:href="#DejaVuSans-100"/></g></g></g></g><defs><clipPath id="pb20e8f7416"><path d="M117 77.76h725.4v498.96H117z"/></clipPath></defs></svg>