<svg height="864" viewBox="0 0 936 648" width="1248" xmlns="http://www.w3.org/2000/svg" xmlns:xlink="http://www.w3.org/1999/xlink"><defs><style>*{stroke-linecap:butt;stroke-linejoin:round}</style></defs><g id="figure_1"><path d="M0 648h936V0H0z" style="fill:#fff" id="patch_1"/><g id="axes_1"><path d="M117 576.72h725.4V77.76H117z" style="fill:none" id="patch_2"/><path clip-path="url(#p594c627855)" d="m149.973 334.1 38.407-.116 2.451-.154 1.634-.33 1.635-.52 2.451-1.163 3.269-1.824 4.903-2.34 2.451.156 1.635.59.817.408.817.692.817.326 4.903 3.788 2.452.917.817.235.817.11.817-.158.818-.363 1.634-.032.817-.107 6.537.212.818.156 1.634.856.817.28 4.086-.058.817-.144.817.027.817-.21.818.015.817-.153.817-.026 3.269-.6 3.268.046 1.635-.164.817.054.817-.124 1.634.013.817-.255.818-.02 1.634.155.817-.004 1.634-.463.818.153 1.634-.062.817.035 2.452-.444.817-.046 1.634-.65 1.634-1.012 1.635-.772.817-.692.817-.288.817-.487 1.635-.555 1.634-.761.817-.243.817-.039 1.635.175 3.268.723 1.635-.013.817-.202 2.451.174 1.635.575.817.03.817.368 1.634.544 1.635.714.817.247.817.815 1.634 1.105.817.458.818.65.817.276.817.451 1.634.692.817.357.818.558.817.222.817.407.817.228.817-.222 1.635-.09.817-.137.817.093 1.634-.317.817.113 3.27-.258 1.633.256.818.29.817-.124.817.15 3.269-.313 1.634-.509.817-.578.817.062.818-.34.817-.618.817-.13.817-.246 1.634.975.818.055.817.306 1.634.185.817-.086.817-.604.818-.21.817-.726.817-.25.817.164 1.634-.445.818-1.135.817-.512.817-.054 2.451-.869.818.093.817 1.132 1.634.363.817.233.817.09.818-.092.817.202.817-.27.817-.038 1.634-.724.818.012.817-.115.817-.339 1.634-.325 1.635-.544.817-.483.817.154.817-.206.817.294.817-.272.818.254.817.008.817-.365.817-.848.817-.082.817-.91.818-.088.817-.418.817-.253 1.634-.293.817-.44.818-.075.817-.456 1.634-1.65 2.452-1.985.817-1.052.817-1.296.817-.662.817-1.034.817-1.317.818-1.06 1.634-1.315 1.634-.273.817.264.818.602.817 1.113 1.634 1.815 1.634 2.224.818 4.897.817 1.61.817 2.071.817 1.408.817 1.856.817.6.818.34.817-3.51.817-.315.817-1.599.817-1.166.817-.92.818-.743.817-.395.817-3.553.817-1.628.817-.863.817-.656.818-.321.817.885.817-.175.817 3.95.817 2.118.817 2.623 1.635 2.948 1.634 2.804.817 1.996.817 7.7.818-.816.817 1.55.817.342.817-.616.817.924.817-.967.818-2.92.817-3.414.817-2.085.817-2.401.817-1.371.818-1.703.817-3.61.817-11.732.817 2.42.817-1.327.817.502.818.172.817 1.074.817 3.025.817 4.141.817 4.807.817 3.394.818 5.716 1.634 5.71.817 3.798.817 7.794.817-.21.818 1.813.817-1.582.817 1.208.817.119.817-.638.817-1.312.818-.602.817-.862.817-2.721 2.451-.943.818-.508.817-.21.817-.537.817 2.484.817-.674 1.635-.34.817.113.817-.534.817.294.817.888.817-.137.818-.416.817-.258 1.634-1.059.817-.692.817-2.049 2.452-3.15.817-1.165.817-.512.817-.742.818-1.35 1.634-1.344.817-.898 1.634-.688.818.086.817-1.298.817.352 1.634.905 1.635.07.817-.085.817 1.335.817-.498 2.452-1.007.817-.423.817-.272.817 1.555.817-.153.817-1.135 3.27-2.11.816-2.062.817-.264.818.49.817-.386 2.451.297.817-.32.818.096.817.61.817.208.817.034.817.219.817-.033.818.8.817-.382.817-.564.817.573.817-.104.817.553.818-.043.817.29 2.451 1.745.817 1.064.818.156 1.634 1.437.817.946.817.4 1.635.151 1.634-.3 2.451-.495.818.094.817-.137.817.297.817-.02.817-.368.818-.086 2.451.13 1.634.023.818.384 1.634-.315 3.269-.201.817-.38 1.634-.22.817-.285 2.452.143.817.493.817-.228 1.634-.027.818 1.315.817-.372.817-.049.817-.677.817.13.817-.356.818.07.817-1.847 1.634-.46.817-.61 1.635.068.817-.18.817-1.618 1.634.04.817.51.818-.358.817.162.817-.239.817 1.49 2.452-.186 1.634-.52.817-2.081.817-.371.817.081.818-.06.817.451.817-.404.817-.565.817.705.817-.488 1.635-.277.817-1.2.817-.5.817-.227.817 2.451.818-.44 1.634-.47.817-1.341 1.634-.59.818-1.746.817-.616.817-.207 1.634-.205.817-1.112.818-.67.817-1.776.817-.878 1.634-.347.817-.745.818-.94.817-.219.817.031.817-.573.817-.126 1.635-.656.817 1.271.817-.697 1.634 1.607 1.635.067.817-1.457.817 2.367.817.708.817.295.817 1.293.818-.663.817.634.817 1.385.817.227.817 1.426.817-.629.818.878.817.07.817.239.817 2.57 1.634-2.274.818 1.279.817.643.817 1.884.817-.213.817 8.113.817-5.213 1.635 2.559.817.443.817-.078.817.25.817-7.486.818 6.12.817 2.088 1.634.33.817-.519.818.072.817-4.886.817 6.318.817-.159.817.846.817.454.818.945.817.033.817 8.552.817-5.09.817.193.817-.156.818.187.817.063.817.34.817-2.117.817-.308 1.635-1.404.817-.543.817-.375.817-.113.817 1.377.817-1.144.818.016.817.185.817.005.817-.138.817-.29.817-.79.818.508.817.671 2.451-.33.817.087.818-1.256.817.356.817-1.055.817-.798.817-.61 1.635-.234 1.634-1.47.817-.395.817-.152.817-.552 1.635-.56.817-.709.817-.089.817-.243.817.878.818-1.397.817-1.153.817.01.817-.122.817-.695.817-.965.818-1.883.817.492.817.883.817-.176.817-.324.817.145.818.335.817 2.353.817 4.082.817 1.77.817.346.817-1.361.818-.348.817-.16.817-2.401.817-4.303.817-2.078.817-.11.818 1.125 1.634-.255.817-2.48.817-3.087 1.635-.725.817 2.007.817.527.817.896 1.634 6.978.818.391.817-.984.817-4.591.817-2.623.817-3.425.817-5.179.818-.037.817.368.817-4.459.817-9.082.817-7.275.817-9.621 1.635-21.378.817-3.066.817-2.348.817-14.496.817-16.705.818-4.502.817-2.135.817-17.023.817-11.643.817 3.42.817-6.736.818 11.864.817 2.671 1.634 16.958.817 4.855.817 2.875.818 46.237.817 3.735.817 9.397.817 11.402.817 21.688.817 14.328.818 6.45.817 3.666.817 21.298 1.634 25.95.818 11.689.817 2.79.817 4.553.817-13.583.817 24.057.817 12.786.818 3.743.817 5.205.817 1.256.817-3.582.817 24.482.817-21.841.818-2.658.817-3.067.817-4.88.817-1.37.817-2.755.817-8.82.818-5.233.817-10.59.817-5.727.817-7.051.817-3.885.817-1.443.818-6.301.817-4.23.817-1.623 1.634-8.794.817-1.5.818-.27.817-7.49.817.022.817-2.27.817-1.855.817-.92.818-.353.817-.228.817-4.09.817.663.817-1.784 3.269-2.6.817 2.554.817-3.626 1.635-1.45.817-1.1.817-.38.817-.145.817-1.616.817.508 1.635-1.29.817-.097.817-.217.817-.001.817-.39.818.557.817-.258.817-.086.817-.255 2.452.161.817-1.081 1.634.295.817-.556 1.635-.224.817-.496.817.07.817-.24h0" style="fill:none;stroke:#000;stroke-linecap:round;stroke-width:1.5" id="line2d_1"/><path clip-path="url(#p594c627855)" d="m149.973 334.1 37.59-.101 1.634-.135 1.634-.34.817-.429.817-.197.818-.592.817-.789 1.634-2.257.817-.8.817-3.084 2.452-7.515.817-3.206.817-1.628.817-3.826.818-.798.817-3.162.817-2.162.817-.804.817.737.817-.752.818 1.579.817 2.727 1.634 7.216.817 1.949.817 4.525.818.45.817 5.203.817.234 1.634 7.573.817 1.337.818-.622.817 2.747.817-2.583.817.597.817.284.818-1.485.817.977.817.719.817 2.607.817.364.817 3.471.818-1.058.817.27.817.957.817 1.992.817-.45.817 3.4.818.686.817-.32 1.634 3.545.817-1.774.817.875.818-.842.817-1.62.817 1.354 1.634-.912.817-1.308.818-.742.817-2.397.817-.817.817-1.091.817-.139.817-1.976.818.935.817-1.747.817.06.817-1.02.817-.571.817-1.179.818.016.817 1.08.817.316.817 1.298.817.933.817.384.818-.845.817.53.817-.895.817.037.817-.783.817.151.818.343.817.706.817-.311.817-.505 1.634-.196.818-.94.817-.377.817-.148.817-.854.817-.272.817-.462.818.208.817-2.492.817-.652 1.634-.09.817.103.818-.074.817-.537.817 2.372.817.061 1.634-.19.818-.096.817.176.817-.156.817 2.786.817.039.817-.127.818.044.817-.282 1.634-.122.817-2.454.817.437.818.1.817.613.817.233 1.634.025.817-.31.818-.623.817-.3.817-.807.817-.363.817-.091 1.635.11.817-.77.817.108.817-.266.817.202 1.635.09.817-.216.817 1.053.817.358.817.732.817.393.818.145.817-.033.817-.456 2.451.164.818-.341 1.634.036.817 1.036.817-.072.817-.36.818-.16 1.634.283.817.281 1.635.31.817.128.817-.676 1.634-.301.817-.288.818-.895.817-.53.817.393.817.164.817-.1.817.035.818-.149.817.23.817.061.817-.434 1.634.399.818-.187.817.015.817-.105.817.111.817-.051 1.635-.301 1.634-.057.817.072.817-.051.817-.236.818-.37.817-.235.817.185.817-.342.817.136 1.635-.52.817.326.817.151.817-.26.817.309.817-.983.818-.092.817.531.817.171.817.299.817-.47.817-.185.818.538.817.352.817.181.817-.85.817-1.1.817.246.818-.413.817.703.817-.157.817-1.51.817.387.817-.094.818-.428.817-.3.817-1.02.817-1.407.817.879.817-.128.818.814.817-.252.817-.973.817-.316.817.072.817-1.233.818-.594.817-.95.817-1.847.817.026.817-1.63.817-.435 1.635-5.148 1.634-.116 1.634-.705.818-.063.817 2.174.817 1.198.817-.959.817 2.432.817.88.818 1.768.817 1.095.817 2.88.817 3.787.817.787.817-.117.818 1.063.817.528 1.634-3.631.817-3.94.817 1.411.818-.886.817-.221.817-.052.817 3.542.817-2.544.817 2.493.818-2.32.817 2.627.817-1.419 1.634 3.578.817 5.095.818 1.67.817 2.854.817.332.817 1.501.817-.174.817-4.533 1.635 2.978.817 2.371.817-.804.817 1.896.817-1.794.818-.278.817-5.081.817-.47.817-71.312 2.452-8.461.817-.508.817-2.986.817-6.893.817 64.68.818 1.045.817-3.02.817 1.11.817 1.566.817 4.173.817 2.654.818 71.107.817 3.662.817 5.099.817 6.317.817 5.258.817 1.072.818 2.625.817-65.704.817-2.607.817 3.789.817-.122.817-3.484 1.635 1.336.817-1.222.817 2.379.817.085.817-.837.818-.581.817 2.73.817.131.817 1.775.817-.397.817-3.835.818-.955.817 3.256.817-1.6.817 1.685.817.696.817-2.4.818-3.194 1.634-3.066 1.634.422.817-3.158.818 1.288.817 4.352.817.097.817-1.882.817-2.869.817-3.6.818-2.217.817-.107.817-1.19.817.003 1.634-1.4.818-.381.817 2.988.817-1.872.817-1.534.817-.46.817.435.818 1.587.817-.615.817-.11.817.77.817.052.817-1.484.818-.495.817-2.076.817.288.817-1.661.817-.355.817.428.818 1.64.817-.984.817.554.817-.68.817.063.817-.683.818 1.377.817-1.436 1.634 3.58.817.902.817 1.597.818 3.207.817-1.126.817 1.067.817 2.202.817.86.817 2.399.818 1.177.817-.245.817.357.817 2.965.817-1.795 1.635-1.442.817-.709.817-.065.817.943.817-.84.817 1.729.818.418.817 1.485.817 15.458.817 1.366 1.634 1.795.818 1.663.817 2.164.817.368.817-14.67.817.007.817-.722.818.204.817-.937.817-.286.817-.85.817-14.78.818-.387.817.969.817-.002.817-.475.817-1.698.817-.608.818 13.973.817-1.718.817.656.817-1.376.817-1.739.817-.957.818-1.272.817-.835.817-.266.817-2.846.817-1.167.817-.368.818.17.817-.022.817.144.817.45.817.114 1.635.782.817-.53.817.099 1.634-.785.817.057.818-.325.817-.524 2.451.007 1.635-.722 1.634.037.817.206 1.634.181.818.079.817-.106.817.039 2.451-.354 1.635.112.817.246.817-.072 1.634.053 4.903-.27 1.635-.368.817-.175 1.634-.53 1.635-.435.817-.406 1.634-.487.817-.52 3.269-1.356.817.004.817-.114.817.104 2.452-.71.817-.118 1.634-.638.818-.32.817.075.817-.127.817.268 1.634-.168.818.322 1.634-.552.817-.081.817-.411.817-1.005.818.324.817-.123 1.634.882.817.316.817-1.24.818 1.088.817.093.817-.48.817.399.817.028.817.508.818 1.208.817 1.782.817-.421.817.797.817-.112.817-.256.818-.456.817 2.787.817-1.028.817.445.817-.175.817 2.583.818-1.112.817.52.817-1.823.817-.67 1.634.794.818-2.016.817 1.988.817-.371.817-.81.817.265.818-.283.817.521.817-2.713.817 1.626.817.533.817 1.523.818.906.817 1.33.817.083.817 2.798.817-1.24.817.96.818.39.817.61.817-.402.817-.013.817.524.817.315.818-.633 1.634-.88.817-1.11.817-.245 1.635-.74.817.716.817-.11.817.11.817 1.257.817.391.818.234.817.706 1.634-.312.817.292.817.126.818-.668 1.634-.756.817-1.319.817-.122.817-.665.818-1.377.817-.093.817-.208.817-.926 1.634.763.818-.692 1.634.464.817-.02.817-.224.817.254.818-1.193.817-.207.817-.495 1.634-1.663.817-.43.818-1.585 1.634-1.037 1.634-.485.817-.93.818.114.817-.085 1.634 1.392.817.725.817-.269.818-.48.817-.955.817-1.371 2.451-7.834.818-.81.817.289 1.634-2.265.817-1.562.817-.558.818-.113.817.582.817.234.817.356.817.007.817.55.818-.891.817-2.677 1.634-9.227.817-8.343 1.635-28.95.817-16.631.817-9.23.817-3.349.817-8.98 2.452-60.12 1.634-26.615.817-11.694.817-14.674.818-5.558.817 19.707.817 9.713.817 16.45.817 6.78.817 1.89.818 15.618 3.268 161.4 1.635 73.275.817 40.906.817 33.067.817 12.396.817 22.778 1.635 23.625.817 7.915.817 1.705.817-14.588.817-4.626 1.635-36.934.817-8.634 2.451-46.302.818-12.533.817-5.894 1.634-16.288.817-4.709.817-5.5.818-3.03.817-6.61.817-1.884.817-3.535.817-9.068.817-3.862.818-2.77.817-4.707.817-3.375.817-9.737.817-2.6 1.635-1.678.817-1.677.817-.48.817.392.817.62.817-1.267.818-.762.817-.144.817-.35.817-.14.817.03.817-.392.818-.744.817 1.234.817-.815.817-.64.817-1.23.817-1.559.818-.979.817.405.817-.118.817.83.817.54.817-.65.818-.25 1.634-.922.817-.758.817.137 1.635-.054.817-.381.817.22 2.451-2.305.818-.875.817.79.817-.447.817-.082.817-.416.817-.243.818-.063.817-.675.817-1.388.817-.39.817-1.21.817-.137.818-.52 2.451-.98h0" style="fill:none;stroke:#009e73;stroke-linecap:round;stroke-width:1.5" id="line2d_2"/><path clip-path="url(#p594c627855)" d="m149.973 334.1 34.32-.095 2.452-.095.817-.19h.818l2.451-1.265.817-2.19.817-.543.818-.082.817-1.264.817-1.659 1.634-1.808 1.635-6.43.817-4.066.817-3.209.817-1.808.817-4.269.817-5.738.818-.76.817-5.806.817-7.546.817-.027.817-3.25.817-2.379.818 4.256.817 4.88.817 5.928.817 10.51.817 3.277.817 7.178.818 9.137.817 5.248.817 1.713.817 8.144.817 9.449.817.571.818 4.052.817 3.167.817-2.066.817.843.817-.571.818-7.274.817 3.317 1.634-3.711.817 2.936.817 3.957.818-.503.817 1.319.817.951.817 1.441.817-.271.817.584.818-1.672.817-.272.817 1.686.817-2.216.817-3.195.817-1.129.818-1.822.817-.543.817-1.482.817-2.543.817-.081.817-.558.818.422.817-.98.817-2.854.817-1.02.817-.177.817-1.455.818.041.817-1.55.817-.884.817-3.113.817.272.817-.231 1.635 1.78.817.422.817-.625.817 3.236.817-.476.818-1.047.817.843 2.451.15.817.68.818.353 1.634-1.74.817-.966.817-.666.817.68.818-.98.817-.054.817 1.007.817-.571.817-.014.817.34.818.68.817-3.97.817-1.496.817.693.817-.978 1.635.163.817-.83.817 3.74.817.448.817-.707.817.231.818-.163.817.081.817-.448.817 3.929.817 1.101.817-.108.818 1.414.817.054.817.285.817.463.817-3.794.817.014.818.354.817.095 1.634-.735 1.634.272.818-.204.817-.367.817-.979.817-.135 1.634-1.197.818-.19.817-.966.817.014.817-.218.817.775.817.082.818.571.817.027.817.653.817-.245.817.231h.817l.818.83.817-.082.817-.326.817-.843.817-.177.817-.53.818-1.006 1.634.34.817 1.305 1.634 1.7.818 1.1.817.762 1.634-.925.817-.72.818 1.278.817-.095.817.068.817.462.817-.476.817-.258 1.635-2.815.817.204.817-.829.817-.557.817.734.818.49.817 1.019.817-.055.817.068.817.395.817.217.818.626 1.634-.476.817.095.817-.802.817.054.818-.204.817-1.183.817.123.817.245 1.634.122.818-.3 2.451-.203.817-.082.817-.353 2.452-.34.817.421.817-.285.817-.585.818-.313 1.634-.203.817-.055.817-.938.817-.109 1.635.612.817.449.817-.462.817-.707.817.285.818-.53 1.634.23.817-.842.817.054 1.635-.054.817.612.817-.136.817-1.618.817.163.817-.109.818.395.817-.408.817-.898.817.463.817.122.817-1.659.818-.408.817.395.817-1.074.817-1.754.817-3.698.817-.245.818-.965.817-2.053.817-.272.817-.843.817.176.817-.897.818.204.817 1.972.817.652.817-3.032 1.634 5.058.818 4.473.817-.925.817 3.889.817 1.305.817 2.121.817-.408.818.558.817-.68.817-1.06.817-3.345.817-.558.817 2.203 1.635.802.817.68.817 7.287.817-3.399.817 3.685.818-2.284.817 2.148.817-1.115.817 1.917.817-.557.817 6.512.818.585.817 2.596.817-1.1 1.634-4.447.817-5.085.818.966.817-.435.817.788.817-.177.817 2.679.817-1.808.818 1.02.817-4.256.817-1.02.817-61.358.817-4.365.818-2.23.817-.435.817-2.202.817-2.828.817-5.071.817 57.891.818 3.508.817-2.447.817-.15.817 1.754.817 2.474.817 1.7.818 60.584.817 2.542 1.634 10.007.817 5.873.817.53.818 3.114.817-58.721.817-3.494.817 2.91.817 1.141.817-2.814.818 1.237.817.19.817-1.332.817 3.93.817 1.305.817-1.836.818-3.562.817 2.134.817-.135.817 2.216.817-.544.817-4.256.818.218.817 3.222.817-1.006 1.634 3.127.817-4.731.818-2.624.817-1.006.817 1.481.817.354.817.53.817-4.282.818 1.468.817 3.059.817-1.727.817-4.65.817-1.985.817-2.624.818-3.399.817 2.774.817-2.706.817.925.817-.177.817 2.012.818-1.522.817 6.172.817-2.841.817 1.373.817-.095.817 3.113.818-1.319.817-.435.817 1.006.817.367.817.504.817-.911.818-2.04.817-4.677.817 1.441.817-3.657.817 1.074.817-.68.818 3.114.817-2.896.817 1.808.817-1.659.817.789.817-.843.818-.435.817-2.733.817 4.174.817 2.502.817 1.971.817.83.818 2.923.817-.041.817.204.817 4.446.817 2.474.817 2.991.818 1.373.817.68.817 3.753.817 2.923.817-2.978.817-.72.818-.952.817.558.817-1.292.817.068.817-.884.817.503.818-.57.817.393.817 1.06.817.477.817-.3.817.409.818 1.074.817 1.971.817-.34.817-2.094.817.164.817-15.717.818-3.127.817-1.143 1.634-1.468.817-1.645.818-.286.817 14.603.817 3.82.817-.884.817-2.026.817-.815.818 1.047.817-1.007.817 15.677.817 2.637.817-1.033.817.258.818.041.817-.517.817-.72.817-16.438.817-4.962.817.367 3.269.625.817-.285 1.635-.041.817-1.142.817-.408.817-.177.817.136 1.635-.122.817-.585.817.163 1.634-.503.817-.68.818-.353.817-.177.817.041.817.38 1.634.395.818.122 1.634-.312.817.095.817-.435 1.635-.04.817.19 2.451-.041.817-.068.818.122.817-.095.817.204 1.634.856.817.055.818.176.817-.271.817-.028 3.269-1.4.817-.408 1.634-.503 1.634-.707.818-.598.817-.762.817-.516.817-.095.817-.503.817-.041 1.635-.544.817.217.817.014.817-.53.817.04.818-.584.817.027.817.544.817.354 1.634 1.169.818.884.817-.408.817-.041.817-.503.817.095.817-1.101.818 1.658.817-.272.817.53.817-.326.817.64.817-1.523.818.516.817-1.971.817-.775.817 1.387.817.394.817.571.818.857.817 1.114.817-1.427.817.517.817-.028.817.68.818-.802.817 3.045.817-.489.817 1.999.817-.014.817 1.292.818-1.088.817.285.817-2.161 1.634.49.817.625.818-2.094.817 1.033h.817l.817-.49.817-.054.818-.408.817.286.817-.952.817 1.047.817.326.817.626 1.635.748.817-.735.817 2.325.817-1.047 1.635.19.817.218.817.911.817.53.817-.856 1.635 1.101.817 1.333.817.081.817-.734.817.653 1.635.027.817.34.817-.694.817-.516.817.19.817-.653.818.857.817.625.817-.027.817-.83.817.721.817.395 1.635-2.203.817-.625.817-1.034 1.634-.299.818-1.033.817.83.817-.137.817-1.06h.817l.817.707.818-.897.817.108.817.435 1.634 1.469.817.272.818-.177.817.04 1.634-2.175.817-1.631 1.635-2.529.817-1.346.817-1.128 1.634-.096.817-.557 1.635.109.817.394.817.639.817 1.237.817-.109.818.245.817-.095.817-.843 3.269-4.46.817-.611.817-1.142 1.634-3.209.817-1.02.818-1.522.817.367.817 1.006.817-1.713.817-.952.817-1.944 1.635-8.226.817-2.977.817-5.969.817-10.197.817-14.561 1.635-38.803.817-9.096.817-7.573.817-13.99.817-23.453.818-28.32.817-14.045.817-10.836.817-3.711.817-8.185.817-11.951.818 2.978.817 29.666.817 14.235.817 22.148.817 5.343.817 1.74.818 23.82 1.634 90.78 1.634 81.522.817 23.983 2.452 96.205.817-2.923.817 20.244.817 9.667 1.635 25.533.817.136.817-12.998.817-1.142.818-16.138.817-19.905.817-4.092 1.634-32.263.817-15.16.818-8.85 2.451-22.23.817-4.759.817-7.124.818-3.752.817-13.556.817-5.873.817-3.209.817-9.98.817-4.445.818-1.237.817-3.087.817 1.007.817-7.356.817-3.67.817.448.818-1.74.817-2.121.817-1.115.817 1.25.817.952.817-1.754.818-.489.817 1.224.817-.571 1.634-3.998.817-.081.818.204.817 1.047 1.634-2.543.817-.666.817-.992.818-.612.817 2.04.817-2 .817.558.817 1.088.817-1.21.818-.45.817-1.046.817-2.42.817.666.817.204.817-.707.818 1.51.817.774.817-.04.817-1.455.817.72.817-1.237.818-1.006.817 2.46.817-.665.817.91.817.585.817-1.4.818-.245.817-.49.817-4.255.817-1.496.817-1.808.817.327 2.452-1.32.817-.054h0" style="fill:none;stroke:#d55e00;stroke-linecap:round;stroke-width:1.5" id="line2d_3"/><path clip-path="url(#p594c627855)" d="M149.973 334.1h40.858l.817-1.385h1.635l.817-.692h.817l1.634-4.155.817-2.77.818-.693.817-2.077.817-.692 1.634-6.925.817-2.77.818 4.155.817-3.462.817-9.002.817-5.54.817 1.385.817 4.155.818 4.847.817-2.77h.817l.817 11.772.817 8.31.817 1.384.818 4.155.817 2.077.817.693.817 4.847.817 8.31.817 6.232.818-.693.817-1.384.817-3.463.817 5.54.817-.693.818-9.002.817-7.617.817 2.078.817 1.385.817 2.77.817-2.078.818 1.385h1.634l.817 2.77.817-.693 1.635 4.155.817 2.77.817 1.385h.817l.817-2.77.817-4.847.818-2.77.817-2.077.817-2.77.817.692h.817l.817-.692.818 2.077.817-.692.817-1.385.817-.693.817-2.077h.817l1.635 5.54 1.634 1.385.817-1.385h1.635l.817-4.848.817-2.077 1.634-1.385.817.693h1.635l.817 2.077h.817l.817-.693h.817l.818.693h1.634l.817 2.077h.817l.817.693h.818l.817-.693h1.634l.817-3.462.817.692h.818l.817-.692h2.451l.817-1.385h.818l.817-.692.817.692h3.269l.817-1.385.817 1.385h.817l.817-.692h1.635l.817 4.154h2.451l.817.693h1.635l.817 2.77.817-.693.817-1.385h.817l.818 1.385h1.634l.817-3.462.817 2.077.817.693.818-.693.817-1.385h1.634l.817-1.385.817 1.385h.818l.817 1.385h2.451l.817 1.385.818-2.077.817-.693h.817l.817-.692h1.634l.818-.693h.817l.817 1.385.817-1.385h3.269l.817-1.384.817-.693h.817l.818 1.385h2.451l.817 1.385.817-2.77.818 1.385h3.268l.817-.692.818 3.462h.817l.817-.693h2.451l1.635 1.385.817-1.385h2.451l.818-2.077.817 2.077.817-2.077.817.692h2.452l.817 2.77.817-2.077.817 2.077.817.693h3.269l.817-.693.817-4.154.817-6.925.818-1.385h1.634l.817-2.077.817-3.463.817 2.078.818 2.77 2.451-6.233.817 1.385.817 4.848.818 1.384.817 9.695.817 4.847 1.634 4.155.817-2.77.818.693.817-3.463.817-6.232.817-1.385 1.634 4.155.818-4.155.817-2.077.817.692.817-2.077.817-3.462 2.452-6.233.817.693.817 5.54.817-6.233.817 2.078h1.635l.817 6.232 1.634-14.542.817 4.847.818-4.847.817-3.462h.817l.817 6.232.817 4.847.817-.692.818 15.234.817 11.08.817-10.388h.817l.817-2.077.817 6.232.818 4.848.817-17.312.817-11.772.817 9.695h.817l.817.692.818-6.232h.817l.817-6.925.817.693.817 18.004h.817l.818-2.078.817 1.385.817 2.078.817 23.543.817 11.08.817-6.232h.818l.817-11.08.817 4.847.817-18.004.817-2.077.817 1.385.818-7.617h1.634l.817-.693.817 6.925.817-16.62.818 5.54h1.634l.817 6.925.817-10.387.818 17.312.817.692.817-20.081.817-6.925h.817l.817 9.695.818 3.462.817-6.232.817 7.617.817 1.385.817 6.925h.817l.818 17.311.817 2.078h.817l.817 6.924.817 13.157.817 6.925h.818l.817-29.084.817 6.925.817 3.462.817-4.847 1.635-20.774h.817l.817 6.232.817 9.695.817-17.312.817-5.54.818 1.385.817 3.463h.817l.817 10.387.817-16.62.817 11.772.818 2.77.817 10.387.817-1.385h.817l.817-10.387.817-7.617.818 13.85.817 3.462.817-6.232.817 1.384.817-4.847.817 8.31.818 10.387.817-13.85.817-8.31.817-4.154 1.634 9.695.818-19.39.817 2.078.817-1.385.817 4.847.817-3.462.817-4.847.818 4.847.817 4.155.817-1.385.817-2.078.817-.692.817 9.002h.818l.817-4.847.817 2.077.817.693.817 1.385.817.692.818 3.462h1.634l.817-2.077.817-3.462.817 2.077.818 4.155.817-7.617h.817l.817-6.232.817 15.234.817.692.818 2.77.817-14.542.817-1.385h.817l.817 6.233.817-3.463.818-.692 1.634 6.232v2.77l.817 4.155.817-.693.817 6.232.818-4.154.817 3.462.817-4.155.817 4.847.817 1.385.817-2.77.818-6.232.817 9.002.817 2.77.817-7.617.817 4.155.817-2.77.818 4.155h.817l.817-6.925.817-3.462.817 3.462.817 4.155.818-2.77.817 2.077h.817l.817-2.077 1.634-2.77.818-2.077.817 4.847.817-2.77h.817l.817.693.818 2.077.817 1.385.817-.693.817 4.155.817.693h1.635l.817-1.385.817 2.77.817-2.078.817-4.847.817-.692h.818l.817 1.384.817-.692.817-4.155.817-2.077.817-1.385h1.635l.817-2.77h.817l.817-.692.817 2.077h3.269l.817-2.077 1.635 1.384h3.268l.817 2.078.818.692.817-1.385h3.268l.818 2.078h1.634l.817-2.77h2.452l.817-2.077 1.634-1.385.817 2.77h4.903l.817 2.077h3.27l.816-.693h.817l.818-2.077h3.268l.817.692h.818l.817-3.462h1.634l.817-14.542.817-1.385h.818l.817-2.77h2.451l.817 9.695 1.635-1.385.817 3.463.817 6.924h1.634l.818 12.465.817 1.384.817-2.77.817.693.817-1.385h1.635l.817-9.694.817 1.385.817 3.462.817-2.078.817-1.384h1.635l.817 7.617.817-1.385.817 2.77.817 2.077.818.692h1.634l.817-3.462.817-2.77.817-6.924.818.692.817-4.847h1.634l.817-.693.817-2.077.818 1.385.817 2.077h2.451l.817-2.77.818 8.31.817 4.847.817-7.617.817 4.155h1.635l.817-7.617.817 4.847.817-1.385 1.634 1.385h1.635l.817 12.464.817-7.617.817-.692.817 6.232.818-1.385h1.634l.817 2.77 1.634-1.385.818.693.817-5.54h1.634l.817-3.463.817-1.384.818 2.077.817-2.077.817 6.924h1.634l.817-5.54.818 1.385.817 2.078.817-4.155.817 4.847h1.634l.818 1.385.817 4.155.817-2.077.817 2.77.817-5.54h1.635l.817 1.385.817-4.155.817-.693.817 2.77.817-.692h1.635l.817-2.078h.817l.817-6.924.817-1.385.818-4.155h1.634l.817 3.462.817.693.817 4.847.818-3.462.817 3.462h1.634l.817-8.31.817-2.077.818 2.77.817 2.077.817 5.54h1.634l.817-2.77h.818l.817-1.385.817-3.462.817-9.002h1.634l.818 11.08.817-1.386 1.634-6.924.817-2.77h1.635l.817.692.817-.692.817-6.925.817-3.462.817 8.31.818-28.391.817-8.31.817-4.847.817-8.31.817-11.08.817-5.539.818-10.387.817 26.314.817 4.154h.817l.817-12.464.817-3.462.818 2.077.817-22.851.817-6.925.817-31.853.817-18.697.817 22.16.818 12.464.817-14.542.817 9.002.817-36.7.817 4.847.817 18.004.818 11.079.817 16.62.817 25.62.817 40.163 1.634 132.26.818 15.928.817 4.847.817 26.313.817 44.318.817 11.772.817 9.002.818-1.385.817 3.462.817 6.233h.817l.817-22.16.818-9.694.817-26.313.817-22.16.817 1.386.817-13.85.817-22.158 1.635-22.852.817 6.925.817-9.002.817-18.004.817-2.77.818-6.925.817 2.078.817-9.002.817-5.54.817 2.077.817 4.155.818-.692h.817l.817-12.465.817.693.817-6.232.817 1.385.818-2.078h.817l.817-6.232.817 3.462.817.693.817-2.078.818-2.77.817-1.384.817-2.078.817 6.232h.817l.817 1.385.818 4.155.817-1.385 1.634 1.385.817-4.155.817-1.385h.818l.817-1.385.817.693.817-.693.817-5.54.817 1.386.818-.693.817-2.77.817-1.385.817 1.385.817.693.817 5.54.818 9.694.817 2.077.817-6.924.817 2.077.817-1.385.817-.692.818 5.54.817-6.233.817 1.385.817-15.926.817-2.078h1.635l.817-6.232.817-2.077.817-2.77.817 5.54h4.086l.817-20.775h0" style="fill:none;stroke:#0072b2;stroke-linecap:round;stroke-width:1.5" id="line2d_4"/><path clip-path="url(#p594c627855)" d="M117 334.1h725.4" style="fill:none;stroke:red;stroke-dasharray:1.5,2.475;stroke-dashoffset:0;stroke-width:1.5" id="line2d_5"/><path d="M117 576.72V77.76" style="fill:none;stroke:#d3d3d3;stroke-linecap:square;stroke-linejoin:miter;stroke-width:1.25" id="patch_3"/><path d="M117 576.72h725.4" style="fill:none;stroke:#d3d3d3;stroke-linecap:square;stroke-linejoin:miter;stroke-width:1.25" id="patch_4"/><g id="matplotlib.axis_1"><g id="xtick_1"><g style="fill:#696969" transform="matrix(.16 0 0 -.16 115.577 598.378)" id="text_1"><defs><path d="M9.813 72.906h9.859V5.078q0-13.187-5-19.14-5-5.954-16.094-5.954h-3.75v8.297h3.078q6.531 0 9.219 3.672Q9.813-4.39 9.813 5.078z" id="DejaVuSans-74"/><path d="M34.281 27.484q-10.89 0-15.093-2.484-4.204-2.484-4.204-8.5 0-4.781 3.157-7.594 3.156-2.797 8.562-2.797 7.485 0 12 5.297 4.516 5.297 4.516 14.078v2zm17.922 3.72V0H43.22v8.297Q40.14 3.328 35.547.953q-4.594-2.375-11.234-2.375-8.391 0-13.36 4.719Q6 8.016 6 15.922q0 9.219 6.172 13.906 6.187 4.688 18.437 4.688h12.61v.89q0 6.203-4.078 9.594-4.078 3.39-11.453 3.39-4.688 0-9.141-1.124-4.438-1.125-8.531-3.375v8.312q4.921 1.906 9.562 2.844 4.64.953 9.031.953 11.875 0 17.735-6.156 5.86-6.14 5.86-18.64z" id="DejaVuSans-97"/><path d="M54.89 33.016V0h-8.984v32.719q0 7.765-3.031 11.61-3.031 3.858-9.078 3.858-7.281 0-11.484-4.64-4.204-4.625-4.204-12.64V0H9.08v54.688h9.03v-8.5q3.235 4.937 7.594 7.374Q30.078 56 35.797 56q9.422 0 14.25-5.828 4.844-5.828 4.844-17.156z" id="DejaVuSans-110"/></defs><use xlink:href="#DejaVuSans-74"/><use x="29.492" xlink:href="#DejaVuSans-97"/><use x="90.771" xlink:href="#DejaVuSans-110"/></g></g><g id="xtick_2"><g style="fill:#696969" transform="matrix(.16 0 0 -.16 188.431 598.378)" id="text_2"><defs><path d="M34.188 63.188 20.797 26.906h26.812zm-5.579 9.718h11.188L67.578 0h-10.25l-6.64 18.703h-32.86L11.188 0H.78z" id="DejaVuSans-65"/><path d="M18.11 8.203v-29H9.077v75.484h9.031v-8.296q2.844 4.875 7.157 7.234Q29.594 56 35.594 56q9.968 0 16.187-7.906 6.235-7.907 6.235-20.797T51.78 6.484q-6.218-7.906-16.187-7.906-6 0-10.328 2.375-4.313 2.375-7.157 7.25zm30.578 19.094q0 9.906-4.079 15.547-4.078 5.64-11.203 5.64-7.14 0-11.218-5.64-4.079-5.64-4.079-15.547 0-9.906 4.078-15.547 4.079-5.64 11.22-5.64 7.124 0 11.202 5.64t4.078 15.547z" id="DejaVuSans-112"/><path d="M41.11 46.297q-1.516.875-3.297 1.281Q36.03 48 33.89 48q-7.625 0-11.703-4.953-4.079-4.953-4.079-14.234V0H9.08v54.688h9.03v-8.5q2.844 4.984 7.375 7.39Q30.031 56 36.531 56q.922 0 2.047-.125 1.125-.11 2.484-.36z" id="DejaVuSans-114"/></defs><use xlink:href="#DejaVuSans-65"/><use x="68.408" xlink:href="#DejaVuSans-112"/><use x="131.885" xlink:href="#DejaVuSans-114"/></g></g><g id="xtick_3"><g style="fill:#696969" transform="matrix(.16 0 0 -.16 266.981 598.378)" id="text_3"><defs><path d="M8.5 21.578v33.11h8.984V21.922q0-7.766 3.016-11.656 3.031-3.875 9.094-3.875 7.265 0 11.484 4.64 4.234 4.64 4.234 12.656v31h8.985V0h-8.984v8.406Q42.047 3.422 37.718 1q-4.313-2.422-10.032-2.422-9.421 0-14.312 5.86Q8.5 10.296 8.5 21.578zM31.11 56z" id="DejaVuSans-117"/><path d="M9.422 75.984h8.984V0H9.422z" id="DejaVuSans-108"/></defs><use xlink:href="#DejaVuSans-74"/><use x="29.492" xlink:href="#DejaVuSans-117"/><use x="92.871" xlink:href="#DejaVuSans-108"/></g></g><g id="xtick_4"><g style="fill:#696969" transform="matrix(.16 0 0 -.16 337.98 598.378)" id="text_4"><defs><path d="M39.406 66.219q-10.75 0-17.078-8.016-6.312-8-6.312-21.828 0-13.766 6.312-21.781 6.328-8 17.078-8 10.735 0 17.016 8 6.281 8.015 6.281 21.781 0 13.828-6.281 21.828-6.281 8.016-17.016 8.016zm0 8q15.328 0 24.5-10.281 9.188-10.282 9.188-27.563 0-17.234-9.188-27.516-9.172-10.28-24.5-10.28-15.375 0-24.593 10.25-9.204 10.265-9.204 27.546t9.204 27.563q9.218 10.28 24.593 10.28z" id="DejaVuSans-79"/><path d="M48.781 52.594v-8.407q-3.812 2.11-7.64 3.157-3.828 1.047-7.735 1.047-8.75 0-13.593-5.547-4.829-5.532-4.829-15.547 0-10.016 4.829-15.563 4.843-5.53 13.593-5.53 3.907 0 7.735 1.046 3.828 1.047 7.64 3.156V2.094Q45.016.344 40.984-.531q-4.015-.89-8.562-.89-12.36 0-19.64 7.765-7.266 7.765-7.266 20.953 0 13.375 7.343 21.031Q20.22 56 33.016 56q4.14 0 8.093-.86 3.953-.843 7.672-2.546z" id="DejaVuSans-99"/><path d="M18.313 70.219V54.688h18.5v-6.985h-18.5V18.016q0-6.688 1.828-8.594 1.828-1.906 7.453-1.906h9.218V0h-9.218q-10.407 0-14.36 3.875-3.953 3.89-3.953 14.14v29.688H2.687v6.984h6.594V70.22z" id="DejaVuSans-116"/></defs><use xlink:href="#DejaVuSans-79"/><use x="78.711" xlink:href="#DejaVuSans-99"/><use x="133.691" xlink:href="#DejaVuSans-116"/></g></g><g id="xtick_5"><g style="fill:#696969" transform="matrix(.16 0 0 -.16 414.66 598.378)" id="text_5"><use xlink:href="#DejaVuSans-74"/><use x="29.492" xlink:href="#DejaVuSans-97"/><use x="90.771" xlink:href="#DejaVuSans-110"/></g></g><g id="xtick_6"><g style="fill:#696969" transform="matrix(.16 0 0 -.16 486.698 598.378)" id="text_6"><use xlink:href="#DejaVuSans-65"/><use x="68.408" xlink:href="#DejaVuSans-112"/><use x="131.885" xlink:href="#DejaVuSans-114"/></g></g><g id="xtick_7"><g style="fill:#696969" transform="matrix(.16 0 0 -.16 565.248 598.378)" id="text_7"><use xlink:href="#DejaVuSans-74"/><use x="29.492" xlink:href="#DejaVuSans-117"/><use x="92.871" xlink:href="#DejaVuSans-108"/></g></g><g id="xtick_8"><g style="fill:#696969" transform="matrix(.16 0 0 -.16 636.247 598.378)" id="text_8"><use xlink:href="#DejaVuSans-79"/><use x="78.711" xlink:href="#DejaVuSans-99"/><use x="133.691" xlink:href="#DejaVuSans-116"/></g></g><g id="xtick_9"><g style="fill:#696969" transform="matrix(.16 0 0 -.16 712.926 598.378)" id="text_9"><use xlink:href="#DejaVuSans-74"/><use x="29.492" xlink:href="#DejaVuSans-97"/><use x="90.771" xlink:href="#DejaVuSans-110"/></g></g><g id="xtick_10"><g style="fill:#696969" transform="matrix(.16 0 0 -.16 784.964 598.378)" id="text_10"><use xlink:href="#DejaVuSans-65"/><use x="68.408" xlink:href="#DejaVuSans-112"/><use x="131.885" xlink:href="#DejaVuSans-114"/></g></g></g><g id="matplotlib.axis_2"><g id="ytick_1"><g style="fill:#696969" transform="matrix(.16 0 0 -.16 63.553 517.617)" id="text_11"><defs><path d="M10.594 35.5h62.593v-8.297H10.594z" id="DejaVuSans-8722"/><path d="M12.406 8.297h16.11v55.625l-17.532-3.516v8.985l17.438 3.515h9.86V8.296H54.39V0H12.406z" id="DejaVuSans-49"/><path d="M31.781 66.406q-7.61 0-11.453-7.5Q16.5 51.422 16.5 36.375q0-14.984 3.828-22.484 3.844-7.5 11.453-7.5 7.672 0 11.5 7.5 3.844 7.5 3.844 22.484 0 15.047-3.844 22.531-3.828 7.5-11.5 7.5zm0 7.813q12.266 0 18.735-9.703 6.468-9.688 6.468-28.141 0-18.406-6.468-28.11-6.47-9.687-18.735-9.687-12.25 0-18.718 9.688-6.47 9.703-6.47 28.109 0 18.453 6.47 28.14Q19.53 74.22 31.78 74.22z" id="DejaVuSans-48"/></defs><use xlink:href="#DejaVuSans-8722"/><use x="83.789" xlink:href="#DejaVuSans-49"/><use x="147.412" xlink:href="#DejaVuSans-48"/><use x="211.035" xlink:href="#DejaVuSans-48"/></g></g><g id="ytick_2"><g style="fill:#696969" transform="matrix(.16 0 0 -.16 73.733 428.898)" id="text_12"><defs><path d="M10.797 72.906h38.719v-8.312H19.828v-17.86q2.14.735 4.281 1.094 2.157.36 4.313.36 12.203 0 19.328-6.688 7.14-6.688 7.14-18.11 0-11.765-7.328-18.296-7.328-6.516-20.656-6.516-4.593 0-9.36.781-4.75.782-9.827 2.344v9.922q4.39-2.39 9.078-3.563 4.687-1.171 9.906-1.171 8.453 0 13.375 4.437 4.938 4.438 4.938 12.063 0 7.609-4.938 12.047-4.922 4.453-13.375 4.453-3.953 0-7.89-.875-3.922-.875-8.016-2.735z" id="DejaVuSans-53"/></defs><use xlink:href="#DejaVuSans-8722"/><use x="83.789" xlink:href="#DejaVuSans-53"/><use x="147.412" xlink:href="#DejaVuSans-48"/></g></g><g id="ytick_3"><use xlink:href="#DejaVuSans-48" style="fill:#696969" transform="matrix(.16 0 0 -.16 97.32 340.179)" id="text_13"/></g><g id="ytick_4"><g style="fill:#696969" transform="matrix(.16 0 0 -.16 87.14 251.46)" id="text_14"><use xlink:href="#DejaVuSans-53"/><use x="63.623" xlink:href="#DejaVuSans-48"/></g></g><g id="ytick_5"><g style="fill:#696969" transform="matrix(.16 0 0 -.16 76.96 162.74)" id="text_15"><use xlink:href="#DejaVuSans-49"/><use x="63.623" xlink:href="#DejaVuSans-48"/><use x="127.246" xlink:href="#DejaVuSans-48"/></g></g><g style="fill:#696969" transform="matrix(0 -.2 -.2 0 55.393 379.813)" id="text_16"><defs><path d="M51.125 44H36.922l-4.11-16.313h14.313zm-7.328 27.781-5.078-20.265h14.265L58.11 71.78h7.813L60.89 51.516h15.234V44h-17.14l-4-16.313h15.53V20.22H53.079L48 0h-7.813l5.032 20.219H30.906L25.875 0h-7.86l5.079 20.219H7.719v7.468h17.187L29 44H13.281v7.516h17.625l4.985 20.265z" id="DejaVuSans-35"/><path d="M30.61 48.39q-7.22 0-11.422-5.64-4.204-5.64-4.204-15.453 0-9.813 4.172-15.453 4.188-5.64 11.453-5.64 7.188 0 11.375 5.655 4.203 5.672 4.203 15.438 0 9.719-4.203 15.406-4.187 5.688-11.375 5.688zm0 7.61q11.718 0 18.406-7.625 6.703-7.61 6.703-21.078 0-13.422-6.703-21.078-6.688-7.64-18.407-7.64-11.765 0-18.437 7.64-6.656 7.656-6.656 21.078 0 13.469 6.656 21.078Q18.844 56 30.609 56z" id="DejaVuSans-111"/><path d="M37.11 75.984V68.5h-8.594q-4.828 0-6.72-1.953-1.874-1.953-1.874-7.031v-4.828h14.797v-6.985H19.922V0H10.89v47.703H2.297v6.984h8.594V58.5q0 9.125 4.25 13.297 4.25 4.187 13.468 4.187z" id="DejaVuSans-102"/><path d="M44.281 53.078v-8.5q-3.797 1.953-7.906 2.922-4.094.984-8.5.984-6.688 0-10.031-2.047-3.344-2.046-3.344-6.156 0-3.125 2.39-4.906 2.391-1.781 9.626-3.39l3.078-.688q9.562-2.047 13.593-5.781 4.032-3.735 4.032-10.422 0-7.625-6.032-12.078-6.03-4.438-16.578-4.438-4.39 0-9.156.86Q10.688.296 5.422 2v9.281q4.984-2.594 9.812-3.89 4.829-1.282 9.579-1.282 6.343 0 9.75 2.172 3.421 2.172 3.421 6.125 0 3.656-2.468 5.61-2.453 1.953-10.813 3.765l-3.125.735q-8.344 1.75-12.062 5.39-3.704 3.64-3.704 9.985 0 7.718 5.47 11.906Q16.75 56 26.811 56q4.97 0 9.36-.734 4.406-.72 8.11-2.188z" id="DejaVuSans-115"/><path d="M56.203 29.594v-4.39H14.891q.593-9.282 5.593-14.142 5-4.859 13.938-4.859 5.172 0 10.031 1.266 4.86 1.265 9.656 3.812v-8.5Q49.266.734 44.187-.344 39.11-1.422 33.892-1.422q-13.094 0-20.735 7.61-7.64 7.625-7.64 20.625 0 13.421 7.25 21.296Q20.016 56 32.328 56q11.031 0 17.453-7.11 6.422-7.093 6.422-19.296zm-8.984 2.64q-.094 7.36-4.125 11.75-4.032 4.407-10.672 4.407-7.516 0-12.031-4.25-4.516-4.25-5.203-11.97z" id="DejaVuSans-101"/></defs><use xlink:href="#DejaVuSans-35"/><use x="83.789" xlink:href="#DejaVuSans-32"/><use x="115.576" xlink:href="#DejaVuSans-111"/><use x="176.758" xlink:href="#DejaVuSans-102"/><use x="211.963" xlink:href="#DejaVuSans-32"/><use x="243.75" xlink:href="#DejaVuSans-99"/><use x="298.73" xlink:href="#DejaVuSans-97"/><use x="360.01" xlink:href="#DejaVuSans-115"/><use x="412.109" xlink:href="#DejaVuSans-101"/><use x="473.633" xlink:href="#DejaVuSans-115"/></g></g><g style="fill:#696969" transform="matrix(.24 0 0 -.24 261.11 71.76)" id="text_17"><defs><path d="M9.813 72.906h13.28l32.329-60.984v60.984h9.562V0h-13.28L19.39 60.984V0H9.813z" id="DejaVuSans-78"/><path d="M4.203 54.688h8.985l11.234-42.672 11.172 42.672h10.593l11.235-42.672 11.187 42.672h8.985L63.28 0H52.688L40.922 44.828 29.109 0H18.5z" id="DejaVuSans-119"/><path d="M64.406 67.281v-10.39q-4.984 4.64-10.625 6.922-5.64 2.296-11.984 2.296-12.5 0-19.14-7.64-6.641-7.64-6.641-22.094 0-14.406 6.64-22.047 6.64-7.64 19.14-7.64 6.345 0 11.985 2.296 5.64 2.297 10.625 6.938V5.609Q59.234 2.094 53.437.33q-5.78-1.75-12.218-1.75-16.563 0-26.094 10.124-9.516 10.14-9.516 27.672 0 17.578 9.516 27.703 9.531 10.14 26.094 10.14 6.531 0 12.312-1.734 5.797-1.734 10.875-5.203z" id="DejaVuSans-67"/><path d="M3.328 72.906h9.953L28.61 11.281l15.282 61.625h11.093l15.328-61.625 15.282 61.625h10.015L77.297 0H64.89L49.516 63.281 33.984 0H21.578z" id="DejaVuSans-87"/><path d="M9.078 75.984h9.031V31.11l26.813 23.578H56.39l-29-25.578L57.625 0H45.906L18.11 26.703V0H9.08z" id="DejaVuSans-107"/><path d="M4.89 31.39h26.313v-8H4.891z" id="DejaVuSans-45"/><path d="M2.984 54.688H12.5L29.594 8.797l17.093 45.89h9.516L35.687 0H23.485z" id="DejaVuSans-118"/><path d="M11.719 12.406h10.297V0H11.719zm0 39.297h10.297v-12.39H11.719z" id="DejaVuSans-58"/><path d="M37.797 64.313 12.89 25.39h24.906zm-2.594 8.593H47.61V25.391h10.407v-8.203H47.609V0h-9.812v17.188H4.89v9.515z" id="DejaVuSans-52"/><path d="M45.406 27.984q0 9.766-4.031 15.125-4.016 5.375-11.297 5.375-7.219 0-11.25-5.375-4.031-5.359-4.031-15.125 0-9.718 4.031-15.093t11.25-5.375q7.281 0 11.297 5.375 4.031 5.375 4.031 15.093zm8.985-21.203q0-13.953-6.203-20.765Q42-20.797 29.203-20.797q-4.734 0-8.937.703-4.203.703-8.157 2.172v8.735q3.954-2.141 7.813-3.157 3.86-1.031 7.86-1.031 8.843 0 13.234 4.61 4.39 4.609 4.39 13.937v4.453q-2.781-4.844-7.125-7.234Q33.938 0 27.875 0 17.828 0 11.672 7.656q-6.156 7.672-6.156 20.328 0 12.688 6.156 20.344Q17.828 56 27.875 56q6.063 0 10.406-2.39 4.344-2.391 7.125-7.22v8.297h8.985z" id="DejaVuSans-103"/></defs><use xlink:href="#DejaVuSans-78"/><use x="74.805" xlink:href="#DejaVuSans-101"/><use x="136.328" xlink:href="#DejaVuSans-119"/><use x="218.115" xlink:href="#DejaVuSans-32"/><use x="249.902" xlink:href="#DejaVuSans-67"/><use x="319.727" xlink:href="#DejaVuSans-97"/><use x="381.006" xlink:href="#DejaVuSans-115"/><use x="433.105" xlink:href="#DejaVuSans-101"/><use x="494.629" xlink:href="#DejaVuSans-115"/><use x="546.729" xlink:href="#DejaVuSans-32"/><use x="578.516" xlink:href="#DejaVuSans-87"/><use x="671.518" xlink:href="#DejaVuSans-101"/><use x="733.041" xlink:href="#DejaVuSans-101"/><use x="794.564" xlink:href="#DejaVuSans-107"/><use x="852.475" xlink:href="#DejaVuSans-45"/><use x="890.434" xlink:href="#DejaVuSans-111"/><use x="951.615" xlink:href="#DejaVuSans-118"/><use x="1010.795" xlink:href="#DejaVuSans-101"/><use x="1072.318" xlink:href="#DejaVuSans-114"/><use x="1107.057" xlink:href="#DejaVuSans-45"/><use x="1139.141" xlink:href="#DejaVuSans-87"/><use x="1232.143" xlink:href="#DejaVuSans-101"/><use x="1293.666" xlink:href="#DejaVuSans-101"/><use x="1355.189" xlink:href="#DejaVuSans-107"/><use x="1413.1" xlink:href="#DejaVuSans-58"/><use x="1446.791" xlink:href="#DejaVuSans-32"/><use x="1478.578" xlink:href="#DejaVuSans-49"/><use x="1542.201" xlink:href="#DejaVuSans-52"/><use x="1605.824" xlink:href="#DejaVuSans-32"/><use x="1637.611" xlink:href="#DejaVuSans-97"/><use x="1698.891" xlink:href="#DejaVuSans-118"/><use x="1758.07" xlink:href="#DejaVuSans-103"/></g><g id="legend_1"><path d="M128.2 184.5h136.45q3.2 0 3.2-3.2V88.96q0-3.2-3.2-3.2H128.2q-3.2 0-3.2 3.2v92.34q0 3.2 3.2 3.2z" style="fill:none;opacity:.8;stroke:#ccc;stroke-linejoin:miter" id="patch_5"/><path d="M131.4 98.718h32" style="fill:none;stroke:#000;stroke-linecap:round;stroke-width:1.5" id="line2d_6"/><g style="fill:#696969" transform="matrix(.16 0 0 -.16 176.2 104.317)" id="text_18"><defs><path d="M8.688 72.906h9.921V28.61q0-11.718 4.235-16.875 4.25-5.14 13.781-5.14 9.469 0 13.719 5.14 4.25 5.157 4.25 16.875v44.297H64.5V27.391q0-14.25-7.063-21.532-7.046-7.28-20.812-7.28-13.828 0-20.89 7.28-7.047 7.282-7.047 21.532z" id="DejaVuSans-85"/><path d="M53.516 70.516V60.89q-5.61 2.687-10.594 4-4.984 1.328-9.625 1.328-8.047 0-12.422-3.125t-4.375-8.89q0-4.845 2.906-7.313 2.907-2.453 11.016-3.97l5.953-1.218q11.031-2.11 16.281-7.406 5.25-5.297 5.25-14.172 0-10.61-7.11-16.078-7.093-5.469-20.812-5.469-5.172 0-11.015 1.172Q13.14.922 6.89 3.219v10.156q6-3.36 11.765-5.078 5.766-1.703 11.328-1.703 8.438 0 13.032 3.312 4.593 3.328 4.593 9.485 0 5.359-3.297 8.39-3.296 3.032-10.812 4.547L27.484 33.5q-11.03 2.188-15.968 6.875-4.922 4.688-4.922 13.047 0 9.672 6.812 15.234 6.813 5.563 18.766 5.563 5.14 0 10.453-.938 5.328-.922 10.89-2.765z" id="DejaVuSans-83"/></defs><use xlink:href="#DejaVuSans-85"/><use x="73.193" xlink:href="#DejaVuSans-83"/></g><path d="M131.4 122.203h32" style="fill:none;stroke:#009e73;stroke-linecap:round;stroke-width:1.5" id="line2d_8"/><g style="fill:#696969" transform="matrix(.16 0 0 -.16 176.2 127.802)" id="text_19"><use xlink:href="#DejaVuSans-78"/><use x="74.805" xlink:href="#DejaVuSans-74"/></g><path d="M131.4 145.688h32" style="fill:none;stroke:#d55e00;stroke-linecap:round;stroke-width:1.5" id="line2d_10"/><g style="fill:#696969" transform="matrix(.16 0 0 -.16 176.2 151.287)" id="text_20"><defs><path d="M19.672 34.813V8.108H35.5q7.953 0 11.781 3.297 3.844 3.297 3.844 10.078 0 6.844-3.844 10.078-3.828 3.25-11.781 3.25zm0 29.984V42.828h14.61q7.218 0 10.75 2.703 3.546 2.719 3.546 8.282 0 5.515-3.547 8.25-3.531 2.734-10.75 2.734zm-9.86 8.11h25.204q11.28 0 17.375-4.688Q58.5 63.53 58.5 54.89q0-6.703-3.125-10.657-3.125-3.953-9.188-4.922 7.282-1.562 11.313-6.53 4.031-4.954 4.031-12.376 0-9.765-6.64-15.093Q48.25 0 35.984 0H9.812z" id="DejaVuSans-66"/></defs><use xlink:href="#DejaVuSans-66"/><use x="68.604" xlink:href="#DejaVuSans-101"/><use x="130.127" xlink:href="#DejaVuSans-114"/><use x="169.49" xlink:href="#DejaVuSans-103"/><use x="232.967" xlink:href="#DejaVuSans-101"/><use x="294.49" xlink:href="#DejaVuSans-110"/></g><path d="M131.4 169.173h32" style="fill:none;stroke:#0072b2;stroke-linecap:round;stroke-width:1.5" id="line2d_12"/><g style="fill:#696969" transform="matrix(.16 0 0 -.16 176.2 174.773)" id="text_21"><defs><path d="M44.39 34.188q3.172-1.079 6.172-4.594 3-3.516 6.032-9.672L66.609 0H56l-9.313 18.703q-3.624 7.328-7.015 9.719-3.39 2.39-9.25 2.39h-10.75V0h-9.86v72.906h22.266q12.5 0 18.656-5.234 6.157-5.219 6.157-15.766 0-6.89-3.203-11.437-3.204-4.532-9.297-6.282zM19.673 64.797V38.922h12.406q7.125 0 10.766 3.297 3.64 3.297 3.64 9.687 0 6.39-3.64 9.64-3.64 3.25-10.766 3.25z" id="DejaVuSans-82"/><path d="M54.89 33.016V0h-8.984v32.719q0 7.765-3.031 11.61-3.031 3.858-9.078 3.858-7.281 0-11.484-4.64-4.204-4.625-4.204-12.64V0H9.08v75.984h9.03V46.188q3.235 4.937 7.594 7.374Q30.078 56 35.797 56q9.422 0 14.25-5.828 4.844-5.828 4.844-17.156z" id="DejaVuSans-104"/><path d="M45.406 46.39v29.594h8.985V0h-8.985v8.203Q42.578 3.328 38.25.953q-4.313-2.375-10.375-2.375-9.906 0-16.14 7.906-6.22 7.922-6.22 20.813 0 12.89 6.22 20.797Q17.968 56 27.874 56q6.063 0 10.375-2.375 4.328-2.36 7.156-7.234zm-30.61-19.093q0-9.906 4.079-15.547 4.078-5.64 11.203-5.64 7.125 0 11.219 5.64 4.11 5.64 4.11 15.547 0 9.906-4.11 15.547-4.094 5.64-11.219 5.64-7.125 0-11.203-5.64-4.078-5.64-4.078-15.547z" id="DejaVuSans-100"/></defs><use xlink:href="#DejaVuSans-82"/><use x="64.982" xlink:href="#DejaVuSans-117"/><use x="128.361" xlink:href="#DejaVuSans-116"/><use x="167.57" xlink:href="#DejaVuSans-104"/><use x="230.949" xlink:href="#DejaVuSans-101"/><use x="292.473" xlink:href="#DejaVuSans-114"/><use x="333.586" xlink:href="#DejaVuSans-102"/><use x="368.791" xlink:href="#DejaVuSans-111"/><use x="429.973" xlink:href="#DejaVuSans-114"/><use x="469.336" xlink:href="#DejaVuSans-100"/></g></g></g></g><defs><clipPath id="p594c627855"><path d="M117 77.76h725.4v498.96H117z"/></clipPath></defs></svg>