<svg height="864" viewBox="0 0 936 648" width="1248" xmlns="http://www.w3.org/2000/svg" xmlns:xlink="http://www.w3.org/1999/xlink"><defs><style>*{stroke-linecap:butt;stroke-linejoin:round}</style></defs><g id="figure_1"><path d="M0 648h936V0H0z" style="fill:#fff" id="patch_1"/><g id="axes_1"><path d="M117 576.72h725.4V77.76H117z" style="fill:none" id="patch_2"/><path clip-path="url(#pca73cb8eca)" d="m149.973 340.626 45.443-.113 5.284-.276 1.057-.116 1.057-.228 1.056-.374 2.114-1.121 1.057-.81 2.114-1.898 3.17-3.75 1.057-1.465 2.113-2.065 1.057-1.355 3.17-3.046 1.058-.857 2.113.086 1.057.335 2.114 1.599 1.056 1.105 1.057 1.876 1.057.885 6.341 10.268 2.114 1.75 2.113 1.372 1.057.295 1.057-.427 1.057-.983 1.057.014 1.056-.1 1.057-.291 3.17.17 1.057.17 1.057-.128 1.057.3 1.057-.025 1.057.089 1.057.423 2.113 2.32 1.057.756 2.114.073 1.056.113 2.114-.341 1.057-.39 1.057.074 1.057-.57 1.056.04 1.057-.416 1.057-.068 2.114-.743 1.056-.716 1.057-.169 2.114.172 1.057.178 3.17-.67 1.057.147 1.057-.337 2.113.037 1.057-.69 1.057-.054 1.057.317 2.114.091 1.056-.752 1.057-.504 1.057.415 1.057-.176 2.113.102 1.057-.438 1.057-.164 1.057-.602 1.057-.123 1.057-.793 1.056-.97 1.057-1.47 1.057-1.272 1.057-.887 1.057-1.207 1.056-1.874 1.057-.78 1.057-1.32 2.114-1.505 2.113-2.063 1.057-.658 1.057-.106 2.114.473 1.056.469 1.057.194 1.057.92 1.057.378 2.114-.037 1.056-.546 1.057.19 1.057.428 1.057-.147 1.057.934 1.056.626 1.057.083 1.057.994 1.057.63 1.057.846 1.057 1.048 1.056.887 1.057.668 1.057 2.209 2.114 2.997 1.056 1.24 1.057 1.764 1.057.747 1.057 1.222 1.057.826 2.113 2.016 1.057 1.514 1.057.602 1.057 1.102 1.057.62 1.056-.602 1.057-.041 1.057-.207 1.057-.367 1.057.25 1.057-.288 1.056-.57 1.057.305 1.057-.214 1.057.058 1.057-.188 1.056-.356 1.057.264 1.057.432 1.057.784 1.057-.334 1.057.404 1.056-.184 1.057-.318 1.057.083 1.057-.427 1.057-.78 1.056-.6 1.057-1.568 1.057.168 1.057-.923 1.057-1.673 1.057-.352 1.056-.667 1.057 1.487 1.057 1.157 1.057.149 1.057.829 2.113.502 1.057-.235 1.057-1.637 1.057-.566 1.057-1.97 1.056-.676 1.057.441 1.057-.53 1.057-.674 1.057-3.076 1.056-1.39 1.057-.146 1.057-.861 1.057-1.07 1.057-.423 1.057.251 1.056 3.069 1.057.415 2.114 1.2 1.057.243 1.056-.249 1.057.55 1.057-.732 1.057-.104 2.114-1.962 1.056.032 1.057-.312 1.057-.919 1.057-.334 2.113-1.21 1.057-.811 1.057-1.31 1.057.417 1.057-.559 1.057.799 1.056-.737 1.057.689 1.057.02 1.057-.99 1.057-2.298 1.056-.22 1.057-2.47 1.057-.237 1.057-1.132 1.057-.687 1.057-.321 1.056-.473 1.057-1.191 1.057-.204 1.057-1.238 2.113-4.47 1.057-1.898 2.114-3.484 1.057-2.852 1.057-3.511 1.056-1.796 1.057-2.801 1.057-3.57 1.057-2.875 2.113-3.563 2.114-.74 1.057.715 1.057 1.632 1.057 3.017 2.113 4.92 1.057 3.255 1.057 2.773 1.057 13.274 1.056 4.364 1.057 5.613 1.057 3.815 1.057 5.033 1.057 1.623 1.057.924 1.056-9.514 1.057-.855 1.057-4.333 1.057-3.16 1.057-2.492 1.056-2.016 1.057-1.071 1.057-9.63 1.057-4.414 1.057-2.339 1.057-1.776 1.056-.872 1.057 2.4 1.057-.474 1.057 10.704 1.057 5.742 1.056 7.11 2.114 7.99 2.114 7.6 1.057 5.41 1.056 20.873 1.057-2.212 1.057 4.2 1.057.928 1.057-1.67 1.056 2.504 1.057-2.62 1.057-7.917 1.057-9.25 1.057-5.653 1.057-6.51 1.056-3.715 1.057-4.614 1.057-9.788 1.057-31.798 1.057 6.557 1.056-3.594 1.057 1.361 1.057.464 1.057 2.913 1.057 8.198 1.057 11.226 1.056 13.029 1.057 9.2 1.057 15.491 2.114 15.479 1.056 10.294 1.057 21.125 1.057-.567 1.057 4.913 1.057-4.287 1.057 3.272 1.056.323 1.057-1.728 1.057-3.556 1.057-1.634 1.057-2.336 1.056-7.376 2.114-1.664 1.057-.89 1.057-1.379 1.057-.568 1.056-1.455 1.057 6.732 1.057-1.825 2.114-.924 1.056.306 1.057-1.446 1.057.797 1.057 2.406 1.057-.37 1.057-1.127 1.056-.7 2.114-2.87 1.057-1.875 1.057-5.555 1.056-2.746 3.17-8.95 1.058-1.387 1.057-2.013 1.056-3.657 2.114-3.644 1.057-2.434 2.113-1.867 1.057.235 1.057-3.52 1.057.955 2.114 2.453 1.056.192 1.057-.002 1.057-.23 1.057 3.62 1.057-1.351 3.17-2.73 1.057-1.147 1.057-.737 1.057 4.214 1.056-.414 1.057-3.076 1.057-1.418 1.057-1.612 2.113-2.69 1.057-5.587 1.057-.717 1.057 1.33 1.057-1.047 3.17.806 1.057-.87 1.057.26 1.057 1.655 1.056.564 1.057.092 1.057.592 1.057-.087 1.057 2.165 1.057-1.032 1.056-1.531 1.057 1.553 1.057-.28 1.057 1.498 1.057-.116 1.056.788 1.057 1.678 1.057 1.927 1.057 1.122 1.057 2.885 1.057.422 2.113 3.896 1.057 2.564 1.057 1.082 2.113.412 1.057-.542 1.057-.274 3.17-1.341 1.057.255 1.057-.371 1.057.804 1.057-.053 1.057-.998 1.056-.234 2.114.226 1.057.13 1.057-.114 1.057.174 1.056 1.042 1.057-.497 1.057-.357 1.057-.111 1.057.099 1.056-.038 1.057-.496 1.057-1.027 1.057-.198 1.057-.4 1.057-.773 1.056.05 2.114.337 1.057 1.338 1.057-.619 2.113-.074 1.057 3.565 1.057-1.008 1.057-.133 1.057-1.834 1.056.351 1.057-.964 1.057.188 1.057-5.004 1.057-.48 1.056-.769 1.057-1.653 1.057.214 1.057-.029 1.057-.488 1.057-4.385 1.056-.043 1.057.15 1.057 1.384 1.057-.97 1.057.437 1.056-.646 1.057 4.036 1.057-.144 1.057.063 1.057-.422 1.057-.553 1.056-.858 1.057-5.64 1.057-1.004 1.057.22 1.057-.164 1.056 1.223 1.057-1.095 1.057-1.53 1.057 1.908 1.057-1.322 1.057-.477 1.056-.272 1.057-3.254L712.2 328l1.057-.617 1.057 6.645 1.056-1.195 1.057-.783 1.057-.487 1.057-3.638 2.114-1.599 1.056-4.732 1.057-1.668 1.057-.564 2.114-.554 1.056-3.015 1.057-1.814 1.057-4.816 1.057-2.378 1.057-.359 1.057-.583 1.056-2.019 1.057-2.55 1.057-.591 1.057.084 1.057-1.553 1.056-.343 2.114-1.778 1.057 3.447 1.057-1.89 2.113 4.356 2.114.18 1.057-3.948 1.057 6.415 1.056 1.92 1.057.8 1.057 3.503 1.057-1.796 1.057 1.718 1.057 3.755 1.056.615 1.057 3.863 1.057-1.703 1.057 2.38 1.057.192 1.056.645 1.057 6.966 1.057-2.915 1.057-3.247 1.057 3.465 1.057 1.743 1.056 5.106 1.057-.576 1.057 21.99 1.057-14.13 2.113 6.936 1.057 1.2 1.057-.21 1.057.675 1.057-20.289 1.057 16.59 1.056 5.658 2.114.839 1.057-1.408 1.057.197 1.056-13.244 1.057 17.127 1.057-.427 1.057 2.294 1.057 1.293 1.057 2.56 1.056.091 1.057 23.18 1.057-13.796 1.057.52 1.057-.422 1.056.565 1.057.17 1.057.917 1.057-5.737 1.057-.837 1.057-2.111 2.113-3.233 1.057-1.016 1.057-.305 1.057 3.745 1.056-3.114 1.057.057h0" style="fill:none;stroke:#000;stroke-linecap:round;stroke-width:1.5" id="line2d_1"/><path clip-path="url(#pca73cb8eca)" d="m149.973 340.624 46.5-.104 3.17-.251 2.114-.623 1.057-.58 1.056-1.165 1.057-.533 1.057-1.605 1.057-2.14 1.057-3.275 1.057-2.843 1.056-2.17 1.057-8.358 3.17-20.368 1.057-8.69 1.057-4.414 1.057-10.37 1.057-2.161 1.057-8.571 1.057-5.86 1.056-2.181 1.057 2 1.057-2.04 1.057 4.279 1.057 7.391 2.113 19.56 1.057 5.283 1.057 12.264 1.057 1.219 1.057 14.105 1.056.635 2.114 20.526 1.057 3.624 1.057-1.686 1.056 7.445 1.057-7 1.057 1.616 1.057.77 1.057-4.023 1.057 2.646 1.056 1.95 1.057 7.066 1.057.986 1.057 9.41 1.057-2.87 1.056.735 1.057 2.592 1.057 5.4 1.057-1.22 1.057 9.218 1.057 1.856 1.056-.866 2.114 9.607 1.057-4.807 1.057 2.37 1.056-2.281 1.057-4.39 1.057 3.67 1.057-1.365 1.057-1.106 1.057-3.547 1.056-2.011 1.057-6.498 1.057-2.212 1.057-2.96 1.057-.374 1.056-5.357 1.057 2.533 1.057-4.734 1.057.162 1.057-2.765 1.057-1.547 1.056-3.195 1.057.043 1.057 2.927 1.057.855 1.057 3.52 1.056 2.53 1.057 1.04 1.057-2.29 1.057 1.435 1.057-2.425 1.057.1 1.056-2.123 1.057.41 1.057.928 1.057 1.915 1.057-.843 1.056-1.37 2.114-.53 1.057-2.548 1.057-1.021 1.057-.402 1.056-2.313 1.057-.74 1.057-1.252 1.057.564 1.057-6.753 1.056-1.767 1.057-.26 1.057.016 1.057.279 1.057-.202 1.057-1.454 1.056 6.428 1.057.167 1.057-.406 1.057-.109 1.057-.263 1.056.48 1.057-.426 1.057 7.554 1.057.105 1.057-.345 1.057.12 1.056-.766 2.114-.328 1.057-6.653 1.057 1.184 1.056.27 1.057 1.664 1.057.63 1.057-.108 1.057.178 1.057-.844 1.056-1.686 1.057-.812 1.057-2.19 1.057-.982 1.057-.247 2.113.298 1.057-2.089 1.057.294 1.057-.72 1.057.546 2.113.244 1.057-.585 1.057 2.855 1.057.97 1.056 1.985 1.057 1.064 1.057.394 1.057-.089 1.057-1.238 1.057.085 1.056-.208 1.057.568 1.057-.924 1.057-.054 1.057.15 1.056 2.808 1.057-.193 1.057-.975 1.057-.433 1.057.314 1.057.452 1.056.762 1.057.29 1.057.55 1.057.347 1.057-1.833 1.056-.27 1.057-.546 1.057-.781 1.057-2.425 1.057-1.435 1.057 1.063 1.056.445 1.057-.27 1.057.092 1.057-.402 1.057.623 1.056.166 1.057-1.176 1.057.607 1.057.472 1.057-.506 1.057.042 1.056-.286 1.057.302 1.057-.14 1.057-.526 1.057-.29 1.056-.166 1.057.012 1.057.197 1.057-.14 1.057-.638 1.057-1.001 1.056-.639 1.057.5 1.057-.925 1.057.367 2.113-1.407 1.057.881 1.057.41 1.057-.707 1.057.839 1.057-2.665 1.056-.248 1.057 1.44 1.057.463 1.057.809 1.057-1.273 1.056-.503 1.057 1.459 1.057.955 1.057.491 1.057-2.305 1.057-2.982 1.056.669 1.057-1.122 1.057 1.907 1.057-.425 1.057-4.092 1.056 1.048 1.057-.255 1.057-1.16 1.057-.813 1.057-2.765 1.057-3.814 1.056 2.382 1.057-.348 1.057 2.209 1.057-.685 1.057-2.638 1.056-.854 1.057.193 1.057-3.342 1.057-1.609 1.057-2.576 1.057-5.005 1.056.07 1.057-4.417 1.057-1.18 1.057-6.563 1.057-7.391 1.056-.035 1.057-.279 1.057-.835 1.057-1.075 1.057-.17 1.057 5.89 1.056 3.249 1.057-2.6 1.057 6.591 1.057 2.387 1.057 4.792 1.056 2.967 1.057 7.805 1.057 10.265 1.057 2.135 1.057-.317 1.057 2.881 1.056 1.431 2.114-9.843 1.057-10.68 1.057 3.826 1.056-2.402 1.057-.6 1.057-.139 1.057 9.6 1.057-6.896 1.057 6.757 1.056-6.289 1.057 7.12 1.057-3.844 1.057 4.583 1.057 5.114 1.056 13.811 1.057 4.526 1.057 7.735 1.057.901 1.057 4.07 1.057-.473 1.056-12.288 1.057 4.286 1.057 3.786 1.057 6.429 1.057-2.182 1.056 5.14 1.057-4.861 1.057-.754 1.057-13.774 1.057-1.272 1.057-193.292 3.17-22.936 1.057-1.376 1.057-8.092 1.056-18.685 1.057 175.318 1.057 2.831 1.057-8.188 1.057 3.013 1.057 4.243 1.056 11.31 1.057 7.194 1.057 192.738 1.057 9.925 1.057 13.82 1.056 17.122 1.057 14.253 1.057 2.904 1.057 7.117 1.057-178.091 1.057-7.067 1.056 10.27 1.057-.33 1.057-9.445 2.114 3.62 1.056-3.31 1.057 6.447 1.057.232 1.057-2.27 1.057-1.574 1.057 7.399 1.056.356 1.057 4.811 1.057-1.075 1.057-10.397 1.057-2.587 1.056 8.826 1.057-4.336 1.057 4.564 1.057 1.888 1.057-6.506 1.057-8.656 2.113-8.312 1.057.445 1.057.7 1.057-8.56 1.056 3.49 1.057 11.796 1.057.263 1.057-5.101 1.057-7.775 1.057-9.758 1.056-6.01 1.057-.29 1.057-3.226 1.057.008 2.113-3.795 1.057-1.032 1.057 8.099 1.057-5.075 1.057-4.158 1.057-1.245 1.056 1.18 1.057 4.3 1.057-1.667 1.057-.297 1.057 2.088 1.056.14 1.057-4.023 1.057-1.342 1.057-5.628 1.057.782 1.057-4.502 1.056-.964 1.057 1.16 1.057 4.445 1.057-2.665 1.057 1.5 1.056-1.844 1.057.174 1.057-1.853 1.057 3.733 1.057-3.891 2.113 9.704 1.057 2.444 1.057 4.328 1.057 8.691 1.057-3.052 1.056 2.894 1.057 5.967 1.057 2.333 1.057 6.501 1.057 3.191 1.057-.665 1.056.967 1.057 8.037 1.057-4.865 1.057-2.104 2.113-3.725 1.057-.178 1.057 2.557 1.057-2.275 1.057 4.684 1.057 1.133 1.056 4.027 1.057 41.9 1.057 3.7 1.057 2.654 1.057 2.212 1.056 4.506 1.057 5.868 1.057.998 1.057-39.765 1.057.02 1.057-1.958 1.056.553 1.057-2.54 1.057-.774 1.057-2.305 1.057-40.059 1.056-1.052 1.057 2.626 1.057-.004 1.057-1.288 1.057-4.602 1.057-1.648 1.056 37.873 1.057-4.656 1.057 1.779 1.057-3.729 1.057-4.715 1.056-2.595 1.057-3.446 1.057-2.263 1.057-.723 1.057-7.712 1.057-3.164 1.056-.998 1.057.46 1.057-.058 1.057.39 1.057 1.22 1.056.309 1.057.951 1.057 1.168 1.057-1.435 1.057.267 2.113-2.127 1.057.155 1.057-.882 1.057-1.42 1.057-.054 1.056-.205 1.057.279 1.057-1.103 1.057-.855 1.057-.034 1.057.135 1.056.557 1.057.1 1.057.391 1.057.213 1.057-.286 1.056.104 1.057-.394 1.057-.534 2.114.035 1.057.24 1.056.665 1.057-.194 2.114.143 2.113-.208 1.057.197 2.114-.704 1.057-.02 1.057-.355 1.056-.638 1.057-.476 1.057-.84 3.17-1.775 1.057-1.102 2.114-1.319 1.057-1.408 1.057-.951 1.056-.724 1.057-1.264 1.057-.74 1.057.013 1.057-.31 1.056.282 1.057-.645 1.057-.836 2.114-.762 1.057-.723 2.113-1.872 1.057.201 1.057-.344 1.057.727 2.113-.457 1.057.875 2.114-1.497 1.057-.22 1.056-1.115 1.057-2.722 1.057.877 1.057-.332 2.113 2.39 1.057.855 1.057-3.361 1.057 2.95 1.057.252 1.057-1.303 1.056 1.083 1.057.077 1.057 1.377 1.057 3.272 1.057 4.831 1.056-1.14 1.057 2.161 1.057-.305 1.057-.693 1.057-1.237 1.057 7.553 1.056-2.784 1.057 1.206 1.057-.475 1.057 7 1.057-3.013 1.056 1.408 1.057-4.939 1.057-1.818 2.114 2.154 1.057-5.465 1.056 5.388 1.057-1.005 1.057-2.194 1.057.716 1.057-.766 1.056 1.412 1.057-7.353 1.057 4.406 1.057 1.446 1.057 4.127 1.057 2.456 1.056 3.605 1.057.224 1.057 7.585 1.057-3.361 1.057 2.603 1.056 1.056 1.057 1.655 1.057-1.09 1.057-.035 1.057 1.42 1.057.854 1.056-1.717 1.057-1.292 1.057-1.09 1.057-3.01 1.057-.665 2.113-2.008h0" style="fill:none;stroke:#009e73;stroke-linecap:round;stroke-width:1.5" id="line2d_2"/><path clip-path="url(#pca73cb8eca)" d="m149.973 340.624 41.216-.11 5.284-.295 1.057-.11 1.056-.516h1.057l1.057-1.032 1.057-.774 1.057-1.622 1.056-5.933 1.057-1.474 1.057-.221 1.057-3.427 1.057-4.496 2.113-4.902 1.057-8.18 1.057-9.25 1.057-11.02 1.057-8.696 1.056-4.902 1.057-11.571 1.057-15.552 1.057-2.063 1.057-15.736 1.057-20.453 1.056-.074 1.057-8.807 1.057-6.45 1.057 11.535 1.057 13.23 1.056 16.067 1.057 28.487 1.057 8.881 1.057 19.458 1.057 24.765 1.057 14.225 1.056 4.643 1.057 22.074 1.057 25.612 1.057 1.548 1.057 10.982 1.056 8.587 1.057-5.602 1.057 2.285 1.057-1.548 1.057-19.716 1.057 8.992 2.113-10.06 1.057 7.96 1.057 10.724 1.057-1.364 1.056 3.575 1.057 2.58 1.057 3.906 1.057-.737 1.057 1.584 1.057-4.532 1.056-.738 1.057 4.57 1.057-6.007 1.057-8.66 1.057-3.059 1.056-4.938 1.057-1.474 1.057-4.017 1.057-6.891 1.057-.221 1.057-1.511 1.056 1.142 1.057-2.653 1.057-7.739 1.057-2.764 1.057-.479 1.056-3.943 1.057.11 1.057-4.2 1.057-2.396 1.057-8.44 1.057.738 1.056-.627 2.114 4.828 1.057 1.142 1.057-1.695 1.056 8.771 1.057-1.29 1.057-2.837 1.057 2.284 1.057.11 1.057-.183 1.056.479 1.057 1.842 1.057.958 1.057-2.21 2.113-5.123 1.057-1.806 1.057 1.843 1.057-2.654 1.057-.147 1.057 2.727 1.056-1.548 1.057-.037 1.057.922 1.057 1.842 1.057-10.76 1.056-4.054 1.057 1.88 1.057-2.654 1.057.368 1.057.074 1.057-2.248 1.056 10.135 1.057 1.216 1.057-1.917 1.057.627 1.057-.442 1.056.22 1.057-1.215 1.057 10.65 1.057 2.985 1.057-.295 1.057 3.833 1.056.147 1.057.774 1.057 1.253 1.057-10.282 1.057.037 1.056.958 1.057.258 1.057-.921 1.057-1.069 1.057.295 1.057.442 1.056-.553 1.057-.995 1.057-2.653 1.057-.368 1.057-1.77 1.056-1.473 1.057-.516 1.057-2.617 1.057.037 1.057-.59 1.057 2.1 1.056.222 1.057 1.548 1.057.074 1.057 1.768 1.057-.663 1.056.627h1.057l1.057 2.248 1.057-.222 1.057-.884 1.057-2.285 1.056-.479 1.057-1.437 1.057-2.727 1.057.331 1.057.59 1.056 3.538 2.114 4.606 1.057 2.985 1.057 2.064 2.113-2.506 1.057-1.953 1.057 3.464 1.057-.258 1.057.184 1.056 1.253 1.057-1.29 1.057-.7 2.114-7.628 1.057.553 1.056-2.248 1.057-1.511 1.057 1.99 1.057 1.327 1.057 2.763 1.056-.147 1.057.184 1.057 1.069 1.057.59 1.057 1.695 1.057-.553 1.056-.737 1.057.258 1.057-2.174 1.057.147 1.057-.553 1.056-3.206 1.057.332 1.057.663 1.057.295 1.057.037 1.057-.81 2.113-.259 2.114-.516 1.057-.958 1.056-.405 2.114-.516 1.057 1.142 1.057-.774 1.057-1.584 1.056-.848 1.057-.405 2.114-.295 1.057-2.543 1.056-.295 1.057.737 1.057.922 1.057 1.216 1.057-1.253 1.057-1.917 1.056.774 1.057-1.437 1.057.442 1.057.185 1.057-2.285 1.056.147 1.057-.22 1.057.073 1.057 1.658 1.057-.368 1.057-4.386 1.056.442 1.057-.294 1.057 1.068 1.057-1.105 1.057-2.432 1.056 1.253 1.057.331 1.057-4.496 1.057-1.105 1.057 1.068 1.057-2.91 1.056-4.755 1.057-10.024 1.057-.663 1.057-2.616 1.057-5.565 1.056-.737 1.057-2.285 1.057.48 1.057-2.433 1.057.553 1.057 5.343 1.056 1.77 1.057-8.219 2.114 13.71 1.057 12.123 1.056-2.506 1.057 10.54 1.057 3.538 1.057 5.749 1.057-1.106 1.057 1.511 1.056-1.842 1.057-2.875 1.057-9.065 1.057-1.511 1.057 5.97 1.056.958 1.057 1.216 1.057 1.843 1.057 19.752 1.057-9.213 1.057 9.987 1.056-6.191 1.057 5.823 1.057-3.022 1.057 5.196 1.057-1.511 1.056 17.652 1.057 1.585 1.057 7.038 1.057-2.985 2.114-12.05 1.056-13.783 1.057 2.617 1.057-1.18 1.057 2.138 1.057-.48 1.056 7.26 1.057-4.9 1.057 2.763 1.057-11.535 1.057-2.763 1.057-166.313 1.056-11.83 1.057-6.044 1.057-1.179 1.057-5.97 1.057-7.665 1.056-13.746 1.057 156.916 1.057 9.508 1.057-6.634 1.057-.405 1.057 4.754 1.056 6.707 1.057 4.606 1.057 164.213 1.057 6.891 2.113 27.123 1.057 15.92 1.057 1.437 1.057 8.44 1.057-159.164 1.057-9.471 1.056 7.886 1.057 3.096 1.057-7.629 1.057 3.354 1.057.516 1.056-3.612 1.057 10.65 1.057 3.538 1.057-4.975 1.057-9.655 1.057 5.786 1.056-.369 1.057 6.007 1.057-1.474 1.057-11.534 1.057.59 1.056 8.733 1.057-2.727 1.057 4.017 1.057 4.459 1.057-12.825 1.057-7.112 1.056-2.727 1.057 4.017 1.057.958 1.057 1.437 1.057-11.608 1.056 3.98 1.057 8.292 1.057-4.68 1.057-12.604 1.057-5.38 1.057-7.113 1.056-9.213 1.057 7.518 1.057-7.334 1.057 2.506 1.057-.479 1.056 5.454 1.057-4.127 1.057 16.73 1.057-7.701 1.057 3.722 1.057-.258 1.056 8.439 1.057-3.575 1.057-1.179 1.057 2.727 1.057.995 1.056 1.364 1.057-2.47 1.057-5.527 1.057-12.677 1.057 3.906 1.057-9.913 1.056 2.911 1.057-1.843 1.057 8.44 1.057-7.85 1.057 4.901 1.056-4.496 1.057 2.138 1.057-2.285 1.057-1.18 1.057-7.406 1.057 11.313 1.056 6.78 1.057 5.344 1.057 2.248 1.057 7.924 1.057-.111 1.056.553 1.057 12.05 1.057 6.707 1.057 8.108 1.057 3.722 1.057 1.842 1.056 10.172 1.057 7.923 1.057-8.07 1.057-1.954 1.057-2.58 1.056 1.511 1.057-3.5 1.057.184 1.057-2.396 1.057 1.364 1.057-1.548 1.056 1.069 1.057 2.874 1.057 1.29 1.057-.81 1.057 1.105 1.056 2.911 1.057 5.344 1.057-.922 1.057-5.675 1.057.442 1.057-42.6 1.056-8.476 1.057-3.096 1.057-1.843 1.057-2.137 1.057-4.46 1.056-.773 1.057 39.579 1.057 10.355 1.057-2.395 1.057-5.49 1.057-2.212 1.056 2.838 1.057-2.727 1.057 42.49 1.057 7.15 1.057-2.802 1.056.7 1.057.111 1.057-1.4 1.057-1.953 1.057-44.554 1.057-13.451 1.056.995 1.057.368 1.057.184 1.057.774 1.057.369 1.056-.774 2.114-.11 1.057-3.096 1.057-1.106 1.057-.479 1.056.369 2.114-.332 1.057-1.585 1.057.443 2.113-1.364 1.057-1.843 1.057-.958 1.057-.479 1.057.11 1.056 1.033 1.057.663 2.114.737 2.113-.848 1.057.258 1.057-1.179 2.114-.11 1.057.516 2.113.184 2.114-.48 1.057.332 1.056-.258 1.057.553 1.057 1.327 1.057.995 1.057.147 1.057.48 1.056-.738 1.057-.073 2.114-1.843 3.17-3.059 2.114-1.363 2.114-1.917 1.056-1.621 1.057-2.064 1.057-1.4 1.057-.258 1.057-1.364 1.056-.11 1.057-.81 1.057-.664 1.057.59 1.057.036 1.057-1.437 1.056.11 1.057-1.584 1.057.074 1.057 1.474 1.057.958 1.056 1.474 1.057 1.695 1.057 2.396 1.057-1.106 1.057-.11 1.057-1.364 1.056.258 1.057-2.985 1.057 4.496 1.057-.737 1.057 1.437 1.056-.884 1.057 1.732 1.057-4.128 1.057 1.4 1.057-5.343 1.057-2.1 1.056 3.758 1.057 1.069 1.057 1.548 1.057 2.321 1.057 3.022 1.056-3.87 1.057 1.401 1.057-.073 1.057 1.842 1.057-2.174 1.057 8.255 1.056-1.327 1.057 5.417 1.057-.037 1.057 3.501 1.057-2.948 1.056.774 1.057-5.86 2.114 1.327 1.057 1.696 1.057-5.676 1.056 2.801h1.057l1.057-1.327 1.057-.147 1.057-1.106 1.056.774 1.057-2.58 1.057 2.838 1.057.885 1.057 1.695 2.113 2.027 1.057-1.99 1.057 6.301 1.057-2.837 1.057.184 1.056.332 1.057.59 1.057 2.469 1.057 1.437 1.057-2.322 1.057 1.622 1.056 1.363 1.057 3.612 1.057.22 1.057-1.99 1.057 1.77 1.056.184 1.057-.11h0" style="fill:none;stroke:#d55e00;stroke-linecap:round;stroke-width:1.5" id="line2d_3"/><path clip-path="url(#pca73cb8eca)" d="M149.973 340.624h52.84l1.057-3.753h2.114l1.057-1.877h1.057l2.113-11.262 1.057-7.508 1.057-1.877 1.057-5.63 1.057-1.877 2.113-18.77 1.057-7.507 1.057 11.261 1.057-9.385 1.057-24.4 1.056-15.015 1.057 3.754 1.057 11.261 1.057 13.139 1.057-7.508h1.056l1.057 31.908 1.057 22.523 1.057 3.754 1.057 11.262 1.057 5.63 1.056 1.877 1.057 13.139 1.057 22.523 1.057 16.893 1.057-1.877 1.056-3.754 1.057-9.385 1.057 15.016 1.057-1.877 1.057-24.4 1.057-20.647 1.056 5.631 1.057 3.754 1.057 7.508 1.057-5.631 1.057 3.754h2.113l1.057 7.507 1.057-1.877 2.114 11.262 1.056 7.508 1.057 3.754h1.057l1.057-7.508 1.057-13.139 1.056-7.507 1.057-5.631 1.057-7.508 1.057 1.877h1.057l1.057-1.877 1.056 5.63 1.057-1.876 1.057-3.754 1.057-1.877 1.057-5.63h1.056l2.114 15.015 2.114 3.754 1.057-3.754h2.113l1.057-13.139 1.057-5.63 2.113-3.754 1.057 1.877h2.114l1.057 5.63h1.057l1.056-1.877h1.057l1.057 1.877h2.114l1.056 5.631h1.057l1.057 1.877h1.057l1.057-1.877h2.113l1.057-9.384 1.057 1.876h1.057l1.057-1.876h3.17l1.057-3.754h1.057l1.057-1.877 1.056 1.877h4.228l1.056-3.754 1.057 3.754h1.057l1.057-1.877h2.114l1.056 11.261h3.17l1.058 1.877h2.113l1.057 7.508 1.057-1.877 1.057-3.754h1.057l1.056 3.754h2.114l1.057-9.385 1.057 5.631 1.056 1.877 1.057-1.877 1.057-3.754h2.114l1.057-3.754 1.056 3.754h1.057l1.057 3.754h3.17l1.057 3.754 1.057-5.63 1.057-1.878h1.057l1.057-1.877h2.113l1.057-1.877h1.057l1.057 3.754 1.056-3.754h4.228l1.057-3.753 1.056-1.877h1.057l1.057 3.754h3.17l1.057 3.753 1.057-7.507 1.057 3.754h4.227l1.057-1.877 1.057 9.384h1.057l1.056-1.877h3.17l2.115 3.754 1.056-3.754h3.17l1.058-5.63 1.056 5.63 1.057-5.63 1.057 1.876h3.17l1.057 7.508 1.057-5.63 1.057 5.63 1.057 1.877h4.227l1.057-1.877 1.057-11.261 1.057-18.77 1.056-3.754h2.114l1.057-5.63 1.057-9.385 1.056 5.63 1.057 7.508 3.17-16.892 1.058 3.754 1.056 13.138 1.057 3.754 1.057 26.277 1.057 13.139 2.113 11.262 1.057-7.508 1.057 1.877 1.057-9.385 1.057-16.892 1.057-3.754 2.113 11.261 1.057-11.261 1.057-5.631 1.057 1.877 1.056-5.63 1.057-9.386 3.17-16.892 1.058 1.877 1.056 15.015 1.057-16.892 1.057 5.63h2.114l1.056 16.893 2.114-39.415 1.057 13.138 1.057-13.138 1.057-9.385h1.056l1.057 16.892 1.057 13.139 1.057-1.877 1.057 41.293 1.056 30.03 1.057-28.154h1.057l1.057-5.63 1.057 16.892 1.057 13.139 1.056-46.924 1.057-31.908 1.057 26.277h1.057l1.057 1.877 1.056-16.892h1.057l1.057-18.77 1.057 1.878 1.057 48.8h1.057l1.056-5.63 1.057 3.753 1.057 5.63 1.057 63.816 1.057 30.031 1.056-16.892h1.057l1.057-30.03 1.057 13.138 1.057-48.8 1.057-5.631 1.056 3.753 1.057-20.646h2.114l1.057-1.877 1.056 18.77 1.057-45.047 1.057 15.016h2.114l1.057 18.769 1.056-28.154 1.057 46.923 1.057 1.877 1.057-54.43 1.057-18.77h1.056l1.057 26.277 1.057 9.385 1.057-16.893 1.057 20.646 1.057 3.754 1.056 18.77h1.057l1.057 46.923 1.057 5.63h1.057l1.056 18.77 1.057 35.662 1.057 18.77h1.057l1.057-78.832 1.057 18.77 1.056 9.384 1.057-13.139 2.114-56.308h1.057l1.056 16.893 1.057 26.277 1.057-46.923 1.057-15.016 1.057 3.754 1.057 9.385h1.056l1.057 28.154 1.057-45.047 1.057 31.908 1.057 7.508 1.056 28.154 1.057-3.754h1.057l1.057-28.154 1.057-20.646 1.057 37.538 1.056 9.385 1.057-16.892 1.057 3.753 1.057-13.138 1.057 22.523 1.056 28.154 1.057-37.539 1.057-22.523 1.057-11.261 2.114 26.277 1.056-52.554 1.057 5.63 1.057-3.753 1.057 13.138 1.057-9.385 1.056-13.138 1.057 13.138 1.057 11.262 1.057-3.754 1.057-5.63 1.057-1.878 1.056 24.4h1.057l1.057-13.138 1.057 5.63 1.057 1.878 1.056 3.754 1.057 1.877 1.057 9.384h2.114l1.057-5.63 1.056-9.385 1.057 5.63 1.057 11.262 1.057-20.646h1.057l1.056-16.893 1.057 41.293 1.057 1.877 1.057 7.508 1.057-39.416 1.057-3.754h1.056l1.057 16.893 1.057-9.385 1.057-1.877 2.113 15.015v11.262l1.057 11.262 1.057-1.877 1.057 16.892 1.057-11.261 1.057 9.384 1.056-11.261 1.057 11.261 1.057 3.754 1.057-7.508 1.057-16.892 1.056 24.4 1.057 7.508 1.057-18.77 1.057 7.508 1.057-7.508 1.057 11.262h1.056l1.057-18.77 1.057-9.384 1.057 9.385 1.057 13.138 1.056-7.507 1.057 5.63h1.057l1.057-5.63 2.114-7.508 1.056-5.631 1.057 13.139 1.057-7.508h1.057l1.057 1.877 1.056 5.63 1.057 3.754 1.057-1.877 1.057 11.262 1.057 1.877h2.113l1.057-3.754 1.057 7.508 1.057-5.63 1.057-13.14 1.056-1.876h1.057l1.057 3.753 1.057-1.876 1.057-11.262 1.057-5.63 1.056-3.755h2.114l1.057-7.507h1.057l1.056-1.877 1.057 5.63h4.228l1.056-5.63 2.114 3.753h4.227l1.057 5.631 1.057 1.877 1.057-3.754h4.227l1.057 5.631h2.113l1.057-7.508h3.17l1.058-5.63 2.113-3.754 1.057 7.507h6.34l1.058 5.631h4.227l1.057-1.877h1.057l1.056-5.63h4.228l1.057 1.876h1.056l1.057-9.384h2.114l1.057-39.416 1.056-3.754h1.057l1.057-7.507h3.17l1.057 26.277 2.114-3.754 1.057 9.384 1.057 18.77h2.113l1.057 33.785 1.057 3.753 1.057-7.507 1.057 1.877 1.056-3.754h2.114l1.057-26.277 1.057 3.754 1.056 9.384 1.057-5.63 1.057-3.754h2.114l1.057 20.646 1.056-3.754 1.057 7.508 1.057 5.63 1.057 1.877h2.113l1.057-9.384 1.057-7.508 1.057-18.77 1.057 1.878 1.057-13.139h2.113l1.057-1.877 1.057-5.63 1.057 3.753 1.056 5.631h3.17l1.058-7.508 1.057 22.524 1.056 13.138 1.057-20.646 1.057 11.261h2.114l1.056-20.646 1.057 13.139 1.057-3.754 2.114 3.754h2.113l1.057 33.784 1.057-20.646 1.057-1.877 1.057 16.893 1.056-3.754h2.114l1.057 7.508 2.114-3.754 1.056 1.877 1.057-15.016h2.114l1.057-9.385 1.056-3.753 1.057 5.63h0" style="fill:none;stroke:#0072b2;stroke-linecap:round;stroke-width:1.5" id="line2d_4"/><path clip-path="url(#pca73cb8eca)" d="M117 340.624h725.4" style="fill:none;stroke:red;stroke-dasharray:1.5,2.475;stroke-dashoffset:0;stroke-width:1.5" id="line2d_5"/><path d="M117 576.72V77.76" style="fill:none;stroke:#d3d3d3;stroke-linecap:square;stroke-linejoin:miter;stroke-width:1.25" id="patch_3"/><path d="M117 576.72h725.4" style="fill:none;stroke:#d3d3d3;stroke-linecap:square;stroke-linejoin:miter;stroke-width:1.25" id="patch_4"/><g id="matplotlib.axis_1"><g id="xtick_1"><g style="fill:#696969" transform="matrix(.16 0 0 -.16 109.106 598.378)" id="text_1"><defs><path d="M9.813 72.906h9.859V5.078q0-13.187-5-19.14-5-5.954-16.094-5.954h-3.75v8.297h3.078q6.531 0 9.219 3.672Q9.813-4.39 9.813 5.078z" id="DejaVuSans-74"/><path d="M34.281 27.484q-10.89 0-15.093-2.484-4.204-2.484-4.204-8.5 0-4.781 3.157-7.594 3.156-2.797 8.562-2.797 7.485 0 12 5.297 4.516 5.297 4.516 14.078v2zm17.922 3.72V0H43.22v8.297Q40.14 3.328 35.547.953q-4.594-2.375-11.234-2.375-8.391 0-13.36 4.719Q6 8.016 6 15.922q0 9.219 6.172 13.906 6.187 4.688 18.437 4.688h12.61v.89q0 6.203-4.078 9.594-4.078 3.39-11.453 3.39-4.688 0-9.141-1.124-4.438-1.125-8.531-3.375v8.312q4.921 1.906 9.562 2.844 4.64.953 9.031.953 11.875 0 17.735-6.156 5.86-6.14 5.86-18.64z" id="DejaVuSans-97"/><path d="M54.89 33.016V0h-8.984v32.719q0 7.765-3.031 11.61-3.031 3.858-9.078 3.858-7.281 0-11.484-4.64-4.204-4.625-4.204-12.64V0H9.08v54.688h9.03v-8.5q3.235 4.937 7.594 7.374Q30.078 56 35.797 56q9.422 0 14.25-5.828 4.844-5.828 4.844-17.156z" id="DejaVuSans-110"/></defs><use xlink:href="#DejaVuSans-74"/><use x="29.492" xlink:href="#DejaVuSans-97"/><use x="90.771" xlink:href="#DejaVuSans-110"/></g></g><g id="xtick_2"><g style="fill:#696969" transform="matrix(.16 0 0 -.16 169.754 598.378)" id="text_2"><defs><path d="M9.813 72.906h14.703l18.593-49.61 18.703 49.61h14.704V0H66.89v64.016l-18.797-50h-9.907l-18.796 50V0H9.813z" id="DejaVuSans-77"/><path d="M41.11 46.297q-1.516.875-3.297 1.281Q36.03 48 33.89 48q-7.625 0-11.703-4.953-4.079-4.953-4.079-14.234V0H9.08v54.688h9.03v-8.5q2.844 4.984 7.375 7.39Q30.031 56 36.531 56q.922 0 2.047-.125 1.125-.11 2.484-.36z" id="DejaVuSans-114"/></defs><use xlink:href="#DejaVuSans-77"/><use x="86.279" xlink:href="#DejaVuSans-97"/><use x="147.559" xlink:href="#DejaVuSans-114"/></g></g><g id="xtick_3"><g style="fill:#696969" transform="matrix(.16 0 0 -.16 232.774 598.378)" id="text_3"><defs><path d="M32.172-5.078q-3.797-9.766-7.422-12.735-3.61-2.984-9.656-2.984H7.906v7.516h5.282q3.703 0 5.75 1.765Q21-9.766 23.483-3.219l1.61 4.094-22.11 53.813H12.5l17.094-42.766 17.093 42.766h9.516z" id="DejaVuSans-121"/></defs><use xlink:href="#DejaVuSans-77"/><use x="86.279" xlink:href="#DejaVuSans-97"/><use x="147.559" xlink:href="#DejaVuSans-121"/></g></g><g id="xtick_4"><g style="fill:#696969" transform="matrix(.16 0 0 -.16 304.127 598.378)" id="text_4"><defs><path d="M8.5 21.578v33.11h8.984V21.922q0-7.766 3.016-11.656 3.031-3.875 9.094-3.875 7.265 0 11.484 4.64 4.234 4.64 4.234 12.656v31h8.985V0h-8.984v8.406Q42.047 3.422 37.718 1q-4.313-2.422-10.032-2.422-9.421 0-14.312 5.86Q8.5 10.296 8.5 21.578zM31.11 56z" id="DejaVuSans-117"/><path d="M9.422 75.984h8.984V0H9.422z" id="DejaVuSans-108"/></defs><use xlink:href="#DejaVuSans-74"/><use x="29.492" xlink:href="#DejaVuSans-117"/><use x="92.871" xlink:href="#DejaVuSans-108"/></g></g><g id="xtick_5"><g style="fill:#696969" transform="matrix(.16 0 0 -.16 364.222 598.378)" id="text_5"><defs><path d="M53.516 70.516V60.89q-5.61 2.687-10.594 4-4.984 1.328-9.625 1.328-8.047 0-12.422-3.125t-4.375-8.89q0-4.845 2.906-7.313 2.907-2.453 11.016-3.97l5.953-1.218q11.031-2.11 16.281-7.406 5.25-5.297 5.25-14.172 0-10.61-7.11-16.078-7.093-5.469-20.812-5.469-5.172 0-11.015 1.172Q13.14.922 6.89 3.219v10.156q6-3.36 11.765-5.078 5.766-1.703 11.328-1.703 8.438 0 13.032 3.312 4.593 3.328 4.593 9.485 0 5.359-3.297 8.39-3.296 3.032-10.812 4.547L27.484 33.5q-11.03 2.188-15.968 6.875-4.922 4.688-4.922 13.047 0 9.672 6.812 15.234 6.813 5.563 18.766 5.563 5.14 0 10.453-.938 5.328-.922 10.89-2.765z" id="DejaVuSans-83"/><path d="M56.203 29.594v-4.39H14.891q.593-9.282 5.593-14.142 5-4.859 13.938-4.859 5.172 0 10.031 1.266 4.86 1.265 9.656 3.812v-8.5Q49.266.734 44.187-.344 39.11-1.422 33.892-1.422q-13.094 0-20.735 7.61-7.64 7.625-7.64 20.625 0 13.421 7.25 21.296Q20.016 56 32.328 56q11.031 0 17.453-7.11 6.422-7.093 6.422-19.296zm-8.984 2.64q-.094 7.36-4.125 11.75-4.032 4.407-10.672 4.407-7.516 0-12.031-4.25-4.516-4.25-5.203-11.97z" id="DejaVuSans-101"/><path d="M18.11 8.203v-29H9.077v75.484h9.031v-8.296q2.844 4.875 7.157 7.234Q29.594 56 35.594 56q9.968 0 16.187-7.906 6.235-7.907 6.235-20.797T51.78 6.484q-6.218-7.906-16.187-7.906-6 0-10.328 2.375-4.313 2.375-7.157 7.25zm30.578 19.094q0 9.906-4.079 15.547-4.078 5.64-11.203 5.64-7.14 0-11.218-5.64-4.079-5.64-4.079-15.547 0-9.906 4.078-15.547 4.079-5.64 11.22-5.64 7.124 0 11.202 5.64t4.078 15.547z" id="DejaVuSans-112"/></defs><use xlink:href="#DejaVuSans-83"/><use x="63.477" xlink:href="#DejaVuSans-101"/><use x="125" xlink:href="#DejaVuSans-112"/></g></g><g id="xtick_6"><g style="fill:#696969" transform="matrix(.16 0 0 -.16 428.153 598.378)" id="text_6"><defs><path d="M9.813 72.906h13.28l32.329-60.984v60.984h9.562V0h-13.28L19.39 60.984V0H9.813z" id="DejaVuSans-78"/><path d="M30.61 48.39q-7.22 0-11.422-5.64-4.204-5.64-4.204-15.453 0-9.813 4.172-15.453 4.188-5.64 11.453-5.64 7.188 0 11.375 5.655 4.203 5.672 4.203 15.438 0 9.719-4.203 15.406-4.187 5.688-11.375 5.688zm0 7.61q11.718 0 18.406-7.625 6.703-7.61 6.703-21.078 0-13.422-6.703-21.078-6.688-7.64-18.407-7.64-11.765 0-18.437 7.64-6.656 7.656-6.656 21.078 0 13.469 6.656 21.078Q18.844 56 30.609 56z" id="DejaVuSans-111"/><path d="M2.984 54.688H12.5L29.594 8.797l17.093 45.89h9.516L35.687 0H23.485z" id="DejaVuSans-118"/></defs><use xlink:href="#DejaVuSans-78"/><use x="74.805" xlink:href="#DejaVuSans-111"/><use x="135.986" xlink:href="#DejaVuSans-118"/></g></g><g id="xtick_7"><g style="fill:#696969" transform="matrix(.16 0 0 -.16 495.902 598.378)" id="text_7"><use xlink:href="#DejaVuSans-74"/><use x="29.492" xlink:href="#DejaVuSans-97"/><use x="90.771" xlink:href="#DejaVuSans-110"/></g></g><g id="xtick_8"><g style="fill:#696969" transform="matrix(.16 0 0 -.16 555.493 598.378)" id="text_8"><use xlink:href="#DejaVuSans-77"/><use x="86.279" xlink:href="#DejaVuSans-97"/><use x="147.559" xlink:href="#DejaVuSans-114"/></g></g><g id="xtick_9"><g style="fill:#696969" transform="matrix(.16 0 0 -.16 618.512 598.378)" id="text_9"><use xlink:href="#DejaVuSans-77"/><use x="86.279" xlink:href="#DejaVuSans-97"/><use x="147.559" xlink:href="#DejaVuSans-121"/></g></g><g id="xtick_10"><g style="fill:#696969" transform="matrix(.16 0 0 -.16 689.866 598.378)" id="text_10"><use xlink:href="#DejaVuSans-74"/><use x="29.492" xlink:href="#DejaVuSans-117"/><use x="92.871" xlink:href="#DejaVuSans-108"/></g></g><g id="xtick_11"><g style="fill:#696969" transform="matrix(.16 0 0 -.16 749.96 598.378)" id="text_11"><use xlink:href="#DejaVuSans-83"/><use x="63.477" xlink:href="#DejaVuSans-101"/><use x="125" xlink:href="#DejaVuSans-112"/></g></g><g id="xtick_12"><g style="fill:#696969" transform="matrix(.16 0 0 -.16 813.892 598.378)" id="text_12"><use xlink:href="#DejaVuSans-78"/><use x="74.805" xlink:href="#DejaVuSans-111"/><use x="135.986" xlink:href="#DejaVuSans-118"/></g></g></g><g id="matplotlib.axis_2"><g id="ytick_1"><g style="fill:#696969" transform="matrix(.16 0 0 -.16 73.733 539.083)" id="text_13"><defs><path d="M10.594 35.5h62.593v-8.297H10.594z" id="DejaVuSans-8722"/><path d="M37.797 64.313 12.89 25.39h24.906zm-2.594 8.593H47.61V25.391h10.407v-8.203H47.609V0h-9.812v17.188H4.89v9.515z" id="DejaVuSans-52"/><path d="M31.781 66.406q-7.61 0-11.453-7.5Q16.5 51.422 16.5 36.375q0-14.984 3.828-22.484 3.844-7.5 11.453-7.5 7.672 0 11.5 7.5 3.844 7.5 3.844 22.484 0 15.047-3.844 22.531-3.828 7.5-11.5 7.5zm0 7.813q12.266 0 18.735-9.703 6.468-9.688 6.468-28.141 0-18.406-6.468-28.11-6.47-9.687-18.735-9.687-12.25 0-18.718 9.688-6.47 9.703-6.47 28.109 0 18.453 6.47 28.14Q19.53 74.22 31.78 74.22z" id="DejaVuSans-48"/></defs><use xlink:href="#DejaVuSans-8722"/><use x="83.789" xlink:href="#DejaVuSans-52"/><use x="147.412" xlink:href="#DejaVuSans-48"/></g></g><g id="ytick_2"><g style="fill:#696969" transform="matrix(.16 0 0 -.16 73.733 442.893)" id="text_14"><defs><path d="M19.188 8.297h34.421V0H7.33v8.297q5.609 5.812 15.296 15.594 9.703 9.797 12.188 12.64 4.734 5.313 6.609 9 1.89 3.688 1.89 7.25 0 5.813-4.078 9.469-4.078 3.672-10.625 3.672-4.64 0-9.797-1.61-5.14-1.609-11-4.89v9.969Q13.767 71.78 18.938 73q5.188 1.219 9.485 1.219 11.328 0 18.062-5.672 6.735-5.656 6.735-15.125 0-4.5-1.688-8.531-1.672-4.016-6.125-9.485-1.218-1.422-7.765-8.187-6.532-6.766-18.453-18.922z" id="DejaVuSans-50"/></defs><use xlink:href="#DejaVuSans-8722"/><use x="83.789" xlink:href="#DejaVuSans-50"/><use x="147.412" xlink:href="#DejaVuSans-48"/></g></g><g id="ytick_3"><use xlink:href="#DejaVuSans-48" style="fill:#696969" transform="matrix(.16 0 0 -.16 97.32 346.703)" id="text_15"/></g><g id="ytick_4"><g style="fill:#696969" transform="matrix(.16 0 0 -.16 87.14 250.513)" id="text_16"><use xlink:href="#DejaVuSans-50"/><use x="63.623" xlink:href="#DejaVuSans-48"/></g></g><g id="ytick_5"><g style="fill:#696969" transform="matrix(.16 0 0 -.16 87.14 154.324)" id="text_17"><use xlink:href="#DejaVuSans-52"/><use x="63.623" xlink:href="#DejaVuSans-48"/></g></g><g style="fill:#696969" transform="matrix(0 -.2 -.2 0 65.573 379.813)" id="text_18"><defs><path d="M51.125 44H36.922l-4.11-16.313h14.313zm-7.328 27.781-5.078-20.265h14.265L58.11 71.78h7.813L60.89 51.516h15.234V44h-17.14l-4-16.313h15.53V20.22H53.079L48 0h-7.813l5.032 20.219H30.906L25.875 0h-7.86l5.079 20.219H7.719v7.468h17.187L29 44H13.281v7.516h17.625l4.985 20.265z" id="DejaVuSans-35"/><path d="M37.11 75.984V68.5h-8.594q-4.828 0-6.72-1.953-1.874-1.953-1.874-7.031v-4.828h14.797v-6.985H19.922V0H10.89v47.703H2.297v6.984h8.594V58.5q0 9.125 4.25 13.297 4.25 4.187 13.468 4.187z" id="DejaVuSans-102"/><path d="M48.781 52.594v-8.407q-3.812 2.11-7.64 3.157-3.828 1.047-7.735 1.047-8.75 0-13.593-5.547-4.829-5.532-4.829-15.547 0-10.016 4.829-15.563 4.843-5.53 13.593-5.53 3.907 0 7.735 1.046 3.828 1.047 7.64 3.156V2.094Q45.016.344 40.984-.531q-4.015-.89-8.562-.89-12.36 0-19.64 7.765-7.266 7.765-7.266 20.953 0 13.375 7.343 21.031Q20.22 56 33.016 56q4.14 0 8.093-.86 3.953-.843 7.672-2.546z" id="DejaVuSans-99"/><path d="M44.281 53.078v-8.5q-3.797 1.953-7.906 2.922-4.094.984-8.5.984-6.688 0-10.031-2.047-3.344-2.046-3.344-6.156 0-3.125 2.39-4.906 2.391-1.781 9.626-3.39l3.078-.688q9.562-2.047 13.593-5.781 4.032-3.735 4.032-10.422 0-7.625-6.032-12.078-6.03-4.438-16.578-4.438-4.39 0-9.156.86Q10.688.296 5.422 2v9.281q4.984-2.594 9.812-3.89 4.829-1.282 9.579-1.282 6.343 0 9.75 2.172 3.421 2.172 3.421 6.125 0 3.656-2.468 5.61-2.453 1.953-10.813 3.765l-3.125.735q-8.344 1.75-12.062 5.39-3.704 3.64-3.704 9.985 0 7.718 5.47 11.906Q16.75 56 26.811 56q4.97 0 9.36-.734 4.406-.72 8.11-2.188z" id="DejaVuSans-115"/></defs><use xlink:href="#DejaVuSans-35"/><use x="83.789" xlink:href="#DejaVuSans-32"/><use x="115.576" xlink:href="#DejaVuSans-111"/><use x="176.758" xlink:href="#DejaVuSans-102"/><use x="211.963" xlink:href="#DejaVuSans-32"/><use x="243.75" xlink:href="#DejaVuSans-99"/><use x="298.73" xlink:href="#DejaVuSans-97"/><use x="360.01" xlink:href="#DejaVuSans-115"/><use x="412.109" xlink:href="#DejaVuSans-101"/><use x="473.633" xlink:href="#DejaVuSans-115"/></g></g><g style="fill:#696969" transform="matrix(.24 0 0 -.24 261.11 71.76)" id="text_19"><defs><path d="M4.203 54.688h8.985l11.234-42.672 11.172 42.672h10.593l11.235-42.672 11.187 42.672h8.985L63.28 0H52.688L40.922 44.828 29.109 0H18.5z" id="DejaVuSans-119"/><path d="M64.406 67.281v-10.39q-4.984 4.64-10.625 6.922-5.64 2.296-11.984 2.296-12.5 0-19.14-7.64-6.641-7.64-6.641-22.094 0-14.406 6.64-22.047 6.64-7.64 19.14-7.64 6.345 0 11.985 2.296 5.64 2.297 10.625 6.938V5.609Q59.234 2.094 53.437.33q-5.78-1.75-12.218-1.75-16.563 0-26.094 10.124-9.516 10.14-9.516 27.672 0 17.578 9.516 27.703 9.531 10.14 26.094 10.14 6.531 0 12.312-1.734 5.797-1.734 10.875-5.203z" id="DejaVuSans-67"/><path d="M3.328 72.906h9.953L28.61 11.281l15.282 61.625h11.093l15.328-61.625 15.282 61.625h10.015L77.297 0H64.89L49.516 63.281 33.984 0H21.578z" id="DejaVuSans-87"/><path d="M9.078 75.984h9.031V31.11l26.813 23.578H56.39l-29-25.578L57.625 0H45.906L18.11 26.703V0H9.08z" id="DejaVuSans-107"/><path d="M4.89 31.39h26.313v-8H4.891z" id="DejaVuSans-45"/><path d="M11.719 12.406h10.297V0H11.719zm0 39.297h10.297v-12.39H11.719z" id="DejaVuSans-58"/><path d="M12.406 8.297h16.11v55.625l-17.532-3.516v8.985l17.438 3.515h9.86V8.296H54.39V0H12.406z" id="DejaVuSans-49"/><path d="M45.406 27.984q0 9.766-4.031 15.125-4.016 5.375-11.297 5.375-7.219 0-11.25-5.375-4.031-5.359-4.031-15.125 0-9.718 4.031-15.093t11.25-5.375q7.281 0 11.297 5.375 4.031 5.375 4.031 15.093zm8.985-21.203q0-13.953-6.203-20.765Q42-20.797 29.203-20.797q-4.734 0-8.937.703-4.203.703-8.157 2.172v8.735q3.954-2.141 7.813-3.157 3.86-1.031 7.86-1.031 8.843 0 13.234 4.61 4.39 4.609 4.39 13.937v4.453q-2.781-4.844-7.125-7.234Q33.938 0 27.875 0 17.828 0 11.672 7.656q-6.156 7.672-6.156 20.328 0 12.688 6.156 20.344Q17.828 56 27.875 56q6.063 0 10.406-2.39 4.344-2.391 7.125-7.22v8.297h8.985z" id="DejaVuSans-103"/></defs><use xlink:href="#DejaVuSans-78"/><use x="74.805" xlink:href="#DejaVuSans-101"/><use x="136.328" xlink:href="#DejaVuSans-119"/><use x="218.115" xlink:href="#DejaVuSans-32"/><use x="249.902" xlink:href="#DejaVuSans-67"/><use x="319.727" xlink:href="#DejaVuSans-97"/><use x="381.006" xlink:href="#DejaVuSans-115"/><use x="433.105" xlink:href="#DejaVuSans-101"/><use x="494.629" xlink:href="#DejaVuSans-115"/><use x="546.729" xlink:href="#DejaVuSans-32"/><use x="578.516" xlink:href="#DejaVuSans-87"/><use x="671.518" xlink:href="#DejaVuSans-101"/><use x="733.041" xlink:href="#DejaVuSans-101"/><use x="794.564" xlink:href="#DejaVuSans-107"/><use x="852.475" xlink:href="#DejaVuSans-45"/><use x="890.434" xlink:href="#DejaVuSans-111"/><use x="951.615" xlink:href="#DejaVuSans-118"/><use x="1010.795" xlink:href="#DejaVuSans-101"/><use x="1072.318" xlink:href="#DejaVuSans-114"/><use x="1107.057" xlink:href="#DejaVuSans-45"/><use x="1139.141" xlink:href="#DejaVuSans-87"/><use x="1232.143" xlink:href="#DejaVuSans-101"/><use x="1293.666" xlink:href="#DejaVuSans-101"/><use x="1355.189" xlink:href="#DejaVuSans-107"/><use x="1413.1" xlink:href="#DejaVuSans-58"/><use x="1446.791" xlink:href="#DejaVuSans-32"/><use x="1478.578" xlink:href="#DejaVuSans-49"/><use x="1542.201" xlink:href="#DejaVuSans-52"/><use x="1605.824" xlink:href="#DejaVuSans-32"/><use x="1637.611" xlink:href="#DejaVuSans-97"/><use x="1698.891" xlink:href="#DejaVuSans-118"/><use x="1758.07" xlink:href="#DejaVuSans-103"/></g><g id="legend_1"><path d="M694.75 184.5H831.2q3.2 0 3.2-3.2V88.96q0-3.2-3.2-3.2H694.75q-3.2 0-3.2 3.2v92.34q0 3.2 3.2 3.2z" style="fill:none;opacity:.8;stroke:#ccc;stroke-linejoin:miter" id="patch_5"/><path d="M697.95 98.718h32" style="fill:none;stroke:#000;stroke-linecap:round;stroke-width:1.5" id="line2d_6"/><g style="fill:#696969" transform="matrix(.16 0 0 -.16 742.75 104.317)" id="text_20"><defs><path d="M8.688 72.906h9.921V28.61q0-11.718 4.235-16.875 4.25-5.14 13.781-5.14 9.469 0 13.719 5.14 4.25 5.157 4.25 16.875v44.297H64.5V27.391q0-14.25-7.063-21.532-7.046-7.28-20.812-7.28-13.828 0-20.89 7.28-7.047 7.282-7.047 21.532z" id="DejaVuSans-85"/></defs><use xlink:href="#DejaVuSans-85"/><use x="73.193" xlink:href="#DejaVuSans-83"/></g><path d="M697.95 122.203h32" style="fill:none;stroke:#009e73;stroke-linecap:round;stroke-width:1.5" id="line2d_8"/><g style="fill:#696969" transform="matrix(.16 0 0 -.16 742.75 127.802)" id="text_21"><use xlink:href="#DejaVuSans-78"/><use x="74.805" xlink:href="#DejaVuSans-74"/></g><path d="M697.95 145.688h32" style="fill:none;stroke:#d55e00;stroke-linecap:round;stroke-width:1.5" id="line2d_10"/><g style="fill:#696969" transform="matrix(.16 0 0 -.16 742.75 151.287)" id="text_22"><defs><path d="M19.672 34.813V8.108H35.5q7.953 0 11.781 3.297 3.844 3.297 3.844 10.078 0 6.844-3.844 10.078-3.828 3.25-11.781 3.25zm0 29.984V42.828h14.61q7.218 0 10.75 2.703 3.546 2.719 3.546 8.282 0 5.515-3.547 8.25-3.531 2.734-10.75 2.734zm-9.86 8.11h25.204q11.28 0 17.375-4.688Q58.5 63.53 58.5 54.89q0-6.703-3.125-10.657-3.125-3.953-9.188-4.922 7.282-1.562 11.313-6.53 4.031-4.954 4.031-12.376 0-9.765-6.64-15.093Q48.25 0 35.984 0H9.812z" id="DejaVuSans-66"/></defs><use xlink:href="#DejaVuSans-66"/><use x="68.604" xlink:href="#DejaVuSans-101"/><use x="130.127" xlink:href="#DejaVuSans-114"/><use x="169.49" xlink:href="#DejaVuSans-103"/><use x="232.967" xlink:href="#DejaVuSans-101"/><use x="294.49" xlink:href="#DejaVuSans-110"/></g><path d="M697.95 169.173h32" style="fill:none;stroke:#0072b2;stroke-linecap:round;stroke-width:1.5" id="line2d_12"/><g style="fill:#696969" transform="matrix(.16 0 0 -.16 742.75 174.773)" id="text_23"><defs><path d="M44.39 34.188q3.172-1.079 6.172-4.594 3-3.516 6.032-9.672L66.609 0H56l-9.313 18.703q-3.624 7.328-7.015 9.719-3.39 2.39-9.25 2.39h-10.75V0h-9.86v72.906h22.266q12.5 0 18.656-5.234 6.157-5.219 6.157-15.766 0-6.89-3.203-11.437-3.204-4.532-9.297-6.282zM19.673 64.797V38.922h12.406q7.125 0 10.766 3.297 3.64 3.297 3.64 9.687 0 6.39-3.64 9.64-3.64 3.25-10.766 3.25z" id="DejaVuSans-82"/><path d="M18.313 70.219V54.688h18.5v-6.985h-18.5V18.016q0-6.688 1.828-8.594 1.828-1.906 7.453-1.906h9.218V0h-9.218q-10.407 0-14.36 3.875-3.953 3.89-3.953 14.14v29.688H2.687v6.984h6.594V70.22z" id="DejaVuSans-116"/><path d="M54.89 33.016V0h-8.984v32.719q0 7.765-3.031 11.61-3.031 3.858-9.078 3.858-7.281 0-11.484-4.64-4.204-4.625-4.204-12.64V0H9.08v75.984h9.03V46.188q3.235 4.937 7.594 7.374Q30.078 56 35.797 56q9.422 0 14.25-5.828 4.844-5.828 4.844-17.156z" id="DejaVuSans-104"/><path d="M45.406 46.39v29.594h8.985V0h-8.985v8.203Q42.578 3.328 38.25.953q-4.313-2.375-10.375-2.375-9.906 0-16.14 7.906-6.22 7.922-6.22 20.813 0 12.89 6.22 20.797Q17.968 56 27.874 56q6.063 0 10.375-2.375 4.328-2.36 7.156-7.234zm-30.61-19.093q0-9.906 4.079-15.547 4.078-5.64 11.203-5.64 7.125 0 11.219 5.64 4.11 5.64 4.11 15.547 0 9.906-4.11 15.547-4.094 5.64-11.219 5.64-7.125 0-11.203-5.64-4.078-5.64-4.078-15.547z" id="DejaVuSans-100"/></defs><use xlink:href="#DejaVuSans-82"/><use x="64.982" xlink:href="#DejaVuSans-117"/><use x="128.361" xlink:href="#DejaVuSans-116"/><use x="167.57" xlink:href="#DejaVuSans-104"/><use x="230.949" xlink:href="#DejaVuSans-101"/><use x="292.473" xlink:href="#DejaVuSans-114"/><use x="333.586" xlink:href="#DejaVuSans-102"/><use x="368.791" xlink:href="#DejaVuSans-111"/><use x="429.973" xlink:href="#DejaVuSans-114"/><use x="469.336" xlink:href="#DejaVuSans-100"/></g></g></g></g><defs><clipPath id="pca73cb8eca"><path d="M117 77.76h725.4v498.96H117z"/></clipPath></defs></svg>