<svg height="864" viewBox="0 0 936 648" width="1248" xmlns="http://www.w3.org/2000/svg" xmlns:xlink="http://www.w3.org/1999/xlink"><defs><style>*{stroke-linecap:butt;stroke-linejoin:round}</style></defs><g id="figure_1"><path d="M0 648h936V0H0z" style="fill:#fff" id="patch_1"/><g id="axes_1"><path d="M117 576.72h725.4V77.76H117z" style="fill:none" id="patch_2"/><path clip-path="url(#p6acc84b838)" d="m149.973 340.626 41.7-.113 4.85-.276 1.939-.344.97-.374 1.94-1.121.97-.81 1.939-1.898 2.91-3.75.969-1.465 1.94-2.065.97-1.355 2.909-3.046.97-.857 1.939.086.97.335 1.94 1.599.97 1.105.969 1.876.97.885 5.818 10.268 1.94 1.75 1.94 1.372.97.295.97-.427.969-.983.97.014.97-.1.97-.291 2.909.17.97.17.97-.128.969.3.97-.025.97.089.97.423 1.939 2.32.97.756 1.94.073.97.113 1.939-.341.97-.39.97.074.969-.57.97.04.97-.416.97-.068 1.939-.743.97-.716.97-.169 1.94.172.969.178 2.91-.67.969.147.97-.337 1.94.037.97-.69.969-.054.97.317 1.94.091.97-.752.969-.504.97.415.97-.176 1.939.102.97-.438.97-.164.97-.602.97-.123.969-.793.97-.97 1.94-2.742.97-.887.969-1.207.97-1.874.97-.78.97-1.32 1.939-1.505 1.94-2.063.97-.658.969-.106 1.94.473.97.469.97.194.969.92.97.378 1.94-.037.969-.546.97.19.97.428.97-.147.97.934.969.626.97.083.97.994.97.63.97.846 1.939 1.935.97.668.97 2.209 1.939 2.997.97 1.24.97 1.764.97.747.969 1.222.97.826 1.94 2.016.97 1.514.969.602.97 1.102.97.62.97-.602.969-.041.97-.207.97-.367.97.25.97-.288.969-.57.97.305.97-.214.97.058.97-.188.969-.356.97.264.97.432.97.784.969-.334.97.404.97-.184.97-.318.97.083.969-.427.97-.78.97-.6.97-1.568.97.168.969-.923.97-1.673.97-.352.97-.667.969 1.487.97 1.157.97.149.97.829 1.939.502.97-.235.97-1.637.97-.566.97-1.97.969-.676.97.441.97-.53.97-.674.969-3.076.97-1.39.97-.146.97-.861.97-1.07.969-.423.97.251.97 3.069.97.415 1.939 1.2.97.243.97-.249.97.55.969-.732.97-.104 1.94-1.962.97.032.969-.312.97-.919.97-.334 1.94-1.21.969-.811.97-1.31.97.417.97-.559.969.799.97-.737.97.689.97.02.97-.99.969-2.298.97-.22.97-2.47.97-.237.97-1.132.969-.687.97-.321.97-.473.97-1.191.969-.204.97-1.238 1.94-4.47 1.939-3.563.97-1.82.97-2.851.97-3.511.97-1.796.969-2.801.97-3.57.97-2.875 1.94-3.563 1.939-.74.97.715.97 1.632.969 3.017 1.94 4.92.97 3.255.97 2.773.969 13.274.97 4.364.97 5.613.97 3.815.97 5.033.969 1.623.97.924.97-9.514.97-.855.969-4.333.97-3.16.97-2.492.97-2.016.97-1.071.969-9.63.97-4.414.97-2.339.97-1.776.97-.872.969 2.4.97-.474.97 10.704.97 5.742.969 7.11 1.94 7.99 1.94 7.6.969 5.41.97 20.873.97-2.212.97 4.2.97.928.969-1.67.97 2.504.97-2.62.97-7.917.969-9.25.97-5.653.97-6.51.97-3.715.97-4.614.969-9.788.97-31.798.97 6.557.97-3.594.97 1.361.969.464.97 2.913.97 8.198.97 11.226.969 13.029.97 9.2.97 15.491 1.94 15.479.969 10.294.97 21.125.97-.567.97 4.913.97-4.287.969 3.272.97.323.97-1.728.97-3.556.969-1.634.97-2.336.97-7.376 1.94-1.664.969-.89.97-1.379.97-.568.97-1.455.97 6.732.969-1.825 1.94-.924.97.306.969-1.446.97.797.97 2.406.97-.37.97-1.127.969-.7 1.94-2.87.97-1.875.97-5.555 2.908-8.538.97-3.159.97-1.386.97-2.013.97-3.657 1.94-3.644.969-2.434 1.94-1.867.97.235.97-3.52.969.955 1.94 2.453.97.192.969-.002.97-.23.97 3.62.97-1.351 2.909-2.73.97-1.147.97-.737.97 4.214.969-.414.97-3.076 3.879-5.72.97-5.587.97-.717.97 1.33.969-1.047 2.91.806.97-.87.969.26.97 1.655.97.564.97.092.969.592.97-.087.97 2.165.97-1.032.97-1.531.969 1.553.97-.28.97 1.498.97-.116.97.788.969 1.678.97 1.927.97 1.122.97 2.885.969.422 1.94 3.896.97 2.564.97 1.082 1.939.412.97-.542.97-.274 2.909-1.341.97.255.97-.371.969.804.97-.053.97-.998.97-.234 1.939.226.97.13.97-.114.97.174.97 1.042.969-.497.97-.357.97-.111.97.099.97-.038.969-.496.97-1.027.97-.198.97-.4.969-.773.97.05 1.94.337.97 1.338.969-.619 1.94-.074.97 3.565.97-1.008.969-.133.97-1.834.97.351.97-.964.969.188.97-5.004.97-.48.97-.769.97-1.653.969.214.97-.029.97-.488.97-4.385.97-.043.969.15.97 1.384.97-.97.97.437.969-.646.97 4.036.97-.144.97.063.97-.422.969-.553.97-.858.97-5.64.97-1.004.97.22.969-.164.97 1.223.97-1.095.97-1.53.969 1.908.97-1.322.97-.477.97-.272.97-3.254.969-1.354.97-.617.97 6.645.97-1.195.97-.783.969-.487.97-3.638 1.94-1.599.969-4.732.97-1.668.97-.564 1.94-.554.969-3.015.97-1.814.97-4.816.97-2.378.97-.359.969-.583.97-2.019.97-2.55.97-.591.969.084.97-1.553.97-.343 1.94-1.778.969 3.447.97-1.89 1.94 4.356 1.939.18.97-3.948.97 6.415.97 1.92.969.8.97 3.503.97-1.796.97 1.718.97 3.755.969.615.97 3.863.97-1.703.97 2.38.97.192.969.645.97 6.966 1.94-6.162.969 3.465.97 1.743.97 5.106.97-.576.97 21.99.969-14.13 1.94 6.936.97 1.2.97-.21.969.675.97-20.289.97 16.59.97 5.658.969.38.97.517.97-1.409.97.195.97-13.245.969 17.125.97-.43.97 2.293.97 1.231.97 2.56.969.09.97 23.181.97-13.796.97.522.969-.422.97.508.97.17.97.92.97-5.735.969-.836.97-2.109 1.94-3.17.97-1.015.969-.306.97 3.73.97-3.099.97.044.969.5.97.014.97-.375.97-.786.97-2.14.969 1.377.97 1.82.97-.397.97-.166.97-.332.969.236.97-3.407.97.967.97-2.86.969-2.164.97-1.653 1.94-.633.97-2.162.969-1.823.97-1.071.97-.41.97-1.499.97-.653.969-.864.97-1.922.97-.24.97-.66.969 2.38.97-3.785.97-3.127.97.027.97-.33.969-1.883.97-2.616.97-5.105.97 1.334.97 2.393.969-.477.97-.878.97.393.97.909.97 6.378.969 11.064.97 4.799.97.936.97-3.69.969-.943.97-.437.97-6.51.97-11.663.97-5.63.969-.3.97 3.05.97-.253h0" style="fill:none;stroke:#000;stroke-linecap:round;stroke-width:1.5" id="line2d_1"/><path clip-path="url(#p6acc84b838)" d="m149.973 340.624 42.67-.104 2.91-.251 1.94-.623.969-.58.97-1.165.97-.533.97-1.605.97-2.14.969-3.275.97-2.843.97-2.17.97-8.358 2.909-20.368.97-8.69.97-4.414.969-10.37.97-2.161.97-8.571.97-5.86.97-2.181.969 2 .97-2.04.97 4.279.97 7.391 1.939 19.56.97 5.283.97 12.264.97 1.219.969 14.105.97.635 1.94 20.526.97 3.624.969-1.686.97 7.445.97-7 .97 1.616.97.77.969-4.023.97 2.646.97 1.95.97 7.066.969.986.97 9.41.97-2.87.97.735.97 2.592.969 5.4.97-1.22.97 9.218.97 1.856.97-.866 1.939 9.607.97-4.807.97 2.37.97-2.281.969-4.39.97 3.67.97-1.365.97-1.106.969-3.547.97-2.011.97-6.498.97-2.212.97-2.96.969-.374.97-5.357.97 2.533.97-4.734.97.162.969-2.765.97-1.547.97-3.195.97.043.969 2.927.97.855.97 3.52.97 2.53.97 1.04.969-2.29.97 1.435.97-2.425.97.1.97-2.123.969.41.97.928.97 1.915.97-.843.969-1.37 1.94-.53.97-2.548.97-1.021.969-.402.97-2.313.97-.74.97-1.252.97.564.969-6.753.97-1.767.97-.26.97.016.969.279.97-.202.97-1.454.97 6.428.97.167.969-.406.97-.109.97-.263.97.48.97-.426.969 7.554.97.105.97-.345.97.12.969-.766 1.94-.328.97-6.653.97 1.184.969.27.97 1.664.97.63.97-.108.97.178.969-.844.97-1.686.97-.812.97-2.19.969-.982.97-.247 1.94.298.97-2.089.969.294.97-.72.97.546 1.94.244.969-.585.97 2.855.97.97.97 1.985.969 1.064.97.394.97-.089.97-1.238.97.085.969-.208.97.568.97-.924.97-.054.97.15.969 2.808.97-.193.97-.975.97-.433.969.314.97.452.97.762.97.29.97.55.969.347.97-1.833.97-.27.97-.546.97-.781.969-2.425.97-1.435.97 1.063.97.445.969-.27.97.092.97-.402.97.623.97.166.969-1.176.97.607.97.472.97-.506.97.042.969-.286.97.302.97-.14.97-.526.969-.29.97-.166.97.012.97.197.97-.14.969-.638.97-1.001.97-.639.97.5.97-.925.969.367 1.94-1.407.97.881.969.41.97-.707.97.839.97-2.665.97-.248.969 1.44.97.463.97.809.97-1.273.97-.503.969 1.459.97.955.97.491.97-2.305.969-2.982.97.669.97-1.122.97 1.907.97-.425.969-4.092.97 1.048.97-.255.97-1.16.97-.813.969-2.765.97-3.814.97 2.382.97-.348.969 2.209.97-.685.97-2.638.97-.854.97.193.969-3.342.97-1.609.97-2.576.97-5.005.97.07.969-4.417.97-1.18.97-6.563.97-7.391.97-.035.969-.279.97-.835.97-1.075.97-.17.969 5.89.97 3.249.97-2.6.97 6.591.97 2.387.969 4.792.97 2.967.97 7.805.97 10.265.97 2.135.969-.317.97 2.881.97 1.431 1.939-9.843.97-10.68.97 3.826.97-2.402.97-.6.969-.139.97 9.6.97-6.896.97 6.757.97-6.289.969 7.12.97-3.844 1.94 9.697.969 13.811.97 4.526.97 7.735.97.901.97 4.07.969-.473.97-12.288 1.94 8.072.97 6.429.969-2.182.97 5.14.97-4.861.97-.754.969-13.774.97-1.272.97-193.292 2.909-22.936.97-1.376.97-8.092.97-18.685.97 175.318.969 2.831.97-8.188.97 3.013.97 4.243.969 11.31.97 7.194.97 192.738.97 9.925.97 13.82.969 17.122.97 14.253.97 2.904.97 7.117.97-178.091.969-7.067.97 10.27.97-.33.97-9.445 1.939 3.62.97-3.31.97 6.447.97.232.969-2.27.97-1.574.97 7.399.97.356.97 4.811.969-1.075.97-10.397.97-2.587.97 8.826.969-4.336.97 4.564.97 1.888.97-6.506.97-8.656 1.939-8.312.97.445.97.7.97-8.56.969 3.49.97 11.796.97.263.97-5.101.969-7.775.97-9.758.97-6.01.97-.29.97-3.226.969.008 1.94-3.795.97-1.032.97 8.099.969-5.075.97-4.158.97-1.245.97 1.18.969 4.3.97-1.667.97-.297.97 2.088.97.14.969-4.023.97-1.342.97-5.628.97.782.97-4.502.969-.964.97 1.16.97 4.445.97-2.665.969 1.5.97-1.844.97.174.97-1.853.97 3.733.969-3.891 1.94 9.704.97 2.444.97 4.328.969 8.691.97-3.052.97 2.894.97 5.967.969 2.333.97 6.501.97 3.191.97-.665.97.967.969 8.037.97-4.865.97-2.104 1.94-3.725.969-.178.97 2.557.97-2.275.97 4.684.969 1.133.97 4.027.97 41.9.97 3.7.97 2.654.969 2.212.97 4.506.97 5.868.97.998.97-39.765.969.02.97-1.958.97.553.97-2.54.969-.774.97-2.305.97-40.059.97-1.052.97 2.626.969-.004.97-1.288.97-4.602.97-1.648.97 37.873.969-4.656.97 1.779.97-3.729.97-4.715.97-2.595.969-3.446.97-2.263.97-.723.97-7.712.969-3.164.97-.998.97.46.97-.058.97.39.969 1.22.97.309.97.951.97 1.168.97-1.435.969.267 1.94-2.127.97.155.969-.882.97-1.42.97-.054.97-.205.97.279.969-1.103.97-.855.97-.034.97.135.97.557.969.1.97.391.97.213.97-.286.969.104.97-.394.97-.534 1.94.035.969.24.97.665.97-.194 1.94.143 1.939-.208.97.197 1.939-.704.97-.02.97-.355.97-.638.97-.476.969-.84 2.91-1.775.97-1.102 1.939-1.319.97-1.408.97-.951.969-.724.97-1.264.97-.74.97.013.97-.31.969.282.97-.645.97-.836 1.94-.762.969-.723 1.94-1.872.97.201.969-.344.97.727 1.94-.457.97.875 1.939-1.497.97-.22.97-1.115.97-2.722.969.877.97-.332 1.94 2.39.969.855.97-3.361.97 2.95.97.252.97-1.303.969 1.083.97.077.97 1.377.97 3.272.97 4.831.969-1.14.97 2.161.97-.305.97-.693.969-1.237.97 7.553.97-2.784.97 1.206.97-.475.969 7 .97-3.013.97 1.408.97-4.939.97-1.818 1.939 2.154.97-5.465.97 5.388.969-1.005.97-2.194.97.716.97-.766.97 1.412.969-7.353.97 4.406.97 1.446.97 4.127.97 2.456.969 3.605.97.224.97 7.585.97-3.361.969 2.603.97 1.056.97 1.655.97-1.09.97-.035.969 1.42.97.854.97-1.717.97-1.292.97-1.09.969-3.01.97-.665 1.94-2.008.969 1.942.97-.298.97.298.97 3.407.97 1.06.969.635.97 1.914.97-.356.97-.491.97.793.969.34.97-1.81.97-.932.97-1.118.969-3.574.97-.332.97-1.803.97-3.732.97-.251.969-.565.97-2.51.97 1.125.97.944.97-1.876 1.939 1.257.97-.054.97-.607.969.688.97-3.233.97-.561.97-1.342.97-2.445.969-2.061.97-1.164.97-4.297.97-1.312.97-1.5.969-.735.97-.58.97-2.522.97.31.97-.229.969 2.054.97 1.717.97 1.965.97-.727.969-1.3.97-2.591.97-3.717 2.909-21.234.97-2.193.97.781h0" style="fill:none;stroke:#009e73;stroke-linecap:round;stroke-width:1.5" id="line2d_2"/><path clip-path="url(#p6acc84b838)" d="m149.973 340.624 37.821-.11 4.85-.295.97-.11.969-.516h.97l.97-1.032.97-.774.969-1.622.97-5.933.97-1.474.97-.221.97-3.427.969-4.496 1.94-4.902.97-8.18.97-9.25.969-11.02.97-8.696.97-4.902.97-11.571.969-15.552.97-2.063.97-15.736.97-20.453.97-.074.969-8.807.97-6.45.97 11.535.97 13.23.97 16.067.969 28.487.97 8.881.97 19.458.97 24.765.969 14.225.97 4.643.97 22.074.97 25.612.97 1.548.969 10.982.97 8.587.97-5.602.97 2.285.97-1.548.969-19.716.97 8.992 1.94-10.06.969 7.96.97 10.724.97-1.364.97 3.575.97 2.58.969 3.906.97-.737.97 1.584.97-4.532.97-.738.969 4.57.97-6.007.97-8.66.97-3.059.97-4.938.969-1.474.97-4.017.97-6.891.97-.221.969-1.511.97 1.142.97-2.653.97-7.739.97-2.764.969-.479.97-3.943.97.11.97-4.2.97-2.396.969-8.44.97.738.97-.627 1.939 4.828.97 1.142.97-1.695.97 8.771.97-1.29.969-2.837.97 2.284.97.11.97-.183.97.479.969 1.842.97.958.97-2.21 1.939-5.123.97-1.806.97 1.843.97-2.654.97-.147.969 2.727.97-1.548.97-.037.97.922.97 1.842.969-10.76.97-4.054.97 1.88.97-2.654.969.368.97.074.97-2.248.97 10.135.97 1.216.969-1.917.97.627.97-.442.97.22.97-1.215.969 10.65.97 2.985.97-.295.97 3.833.969.147.97.774.97 1.253.97-10.282.97.037.969.958.97.258 1.94-1.99.97.295.969.442.97-.553.97-.995.97-2.653.969-.368.97-1.77.97-1.473.97-.516.97-2.617.969.037.97-.59.97 2.1.97.222.97 1.548.969.074.97 1.768.97-.663.97.627h.969l.97 2.248.97-.222.97-.884.97-2.285.969-.479.97-1.437.97-2.727.97.331.97.59.969 3.538 1.94 4.606.97 2.985.969 2.064 1.94-2.506.97-1.953.97 3.464.969-.258.97.184.97 1.253.97-1.29.97-.7 1.939-7.628.97.553.97-2.248.969-1.511.97 1.99.97 1.327.97 2.763.97-.147.969.184.97 1.069.97.59.97 1.695.97-.553.969-.737.97.258.97-2.174.97.147.969-.553.97-3.206.97.332.97.663.97.295.969.037.97-.81 1.94-.259 1.939-.516.97-.958.97-.405 1.939-.516.97 1.142.97-.774.97-1.584.97-.848.969-.405 1.94-.295.97-2.543.97-.295.969.737.97.922.97 1.216.97-1.253.969-1.917.97.774.97-1.437.97.442.97.185.969-2.285.97.147.97-.22.97.073.97 1.658.969-.368.97-4.386.97.442.97-.294.969 1.068.97-1.105.97-2.432.97 1.253.97.331.969-4.496.97-1.105.97 1.068.97-2.91.97-4.755.969-10.024.97-.663.97-2.616.97-5.565.97-.737.969-2.285.97.48.97-2.433.97.553.969 5.343.97 1.77.97-8.219 1.94 13.71.969 12.123.97-2.506.97 10.54.97 3.538.97 5.749.969-1.106.97 1.511.97-1.842.97-2.875.969-9.065.97-1.511.97 5.97.97.958.97 1.216.969 1.843.97 19.752.97-9.213.97 9.987.97-6.191.969 5.823.97-3.022.97 5.196.97-1.511.969 17.652.97 1.585.97 7.038.97-2.985 1.939-12.05.97-13.783.97 2.617.97-1.18.97 2.138.969-.48.97 7.26.97-4.9.97 2.763.969-11.535.97-2.763.97-166.313.97-11.83.97-6.044.969-1.179.97-5.97.97-7.665.97-13.746.97 156.916.969 9.508.97-6.634.97-.405.97 4.754.969 6.707.97 4.606.97 164.213.97 6.891 1.939 27.123.97 15.92.97 1.437.97 8.44.97-159.164.969-9.471.97 7.886.97 3.096.97-7.629.969 3.354.97.516.97-3.612.97 10.65.97 3.538.969-4.975.97-9.655.97 5.786.97-.369.97 6.007.969-1.474.97-11.534.97.59.97 8.733.969-2.727 1.94 8.476.97-12.825.97-7.112.969-2.727.97 4.017.97.958.97 1.437.97-11.608.969 3.98.97 8.292.97-4.68.97-12.604.969-5.38.97-7.113.97-9.213.97 7.518.97-7.334.969 2.506.97-.479.97 5.454.97-4.127.97 16.73.969-7.701.97 3.722.97-.258.97 8.439.969-3.575.97-1.179.97 2.727.97.995.97 1.364.969-2.47.97-5.527.97-12.677.97 3.906.97-9.913.969 2.911.97-1.843.97 8.44.97-7.85.969 4.901.97-4.496.97 2.138.97-2.285.97-1.18.969-7.406.97 11.313.97 6.78.97 5.344.97 2.248.969 7.924.97-.111.97.553.97 12.05.969 6.707.97 8.108.97 3.722.97 1.842.97 10.172.969 7.923.97-8.07.97-1.954.97-2.58.97 1.511.969-3.5.97.184.97-2.396.97 1.364.969-1.548.97 1.069.97 2.874.97 1.29.97-.81.969 1.105.97 2.911.97 5.344.97-.922.97-5.675.969.442.97-42.6.97-8.476.97-3.096.969-1.843.97-2.137.97-4.46.97-.773.97 39.579.969 10.355.97-2.395.97-5.49.97-2.212.97 2.838.969-2.727.97 42.49.97 7.15.97-2.802.97.7.969.111.97-1.4.97-1.953.97-44.554.969-13.451.97.995.97.368.97.184.97.774.969.369.97-.774 1.94-.11.97-3.096.969-1.106.97-.479.97.369 1.939-.332.97-1.585.97.443 1.94-1.364.969-1.843.97-.958.97-.479.97.11.97 1.033.969.663 1.94.737 1.939-.848.97.258.97-1.179 1.94-.11.969.516 1.94.184 1.94-.48.969.332.97-.258.97.553.97 1.327.969.995.97.147.97.48.97-.738.97-.073 1.939-1.843 2.91-3.059 1.939-1.363 1.94-1.917.969-1.621.97-2.064.97-1.4.97-.258.97-1.364.969-.11.97-.81.97-.664.97.59.97.036.969-1.437.97.11.97-1.584.97.074.969 1.474.97.958.97 1.474.97 1.695.97 2.396.969-1.106.97-.11.97-1.364.97.258.97-2.985.969 4.496.97-.737.97 1.437.97-.884.969 1.732.97-4.128.97 1.4.97-5.343.97-2.1.969 3.758.97 1.069.97 1.548.97 2.321.97 3.022.969-3.87.97 1.401.97-.073.97 1.842.969-2.174.97 8.255.97-1.327.97 5.417.97-.037.969 3.501.97-2.948.97.774.97-5.86 1.939 1.327.97 1.696.97-5.676.97 2.801h.969l.97-1.327.97-.147.97-1.106.97.774.969-2.58.97 2.838.97.885.97 1.695 1.939 2.027.97-1.99.97 6.301.97-2.837.969.184.97.332.97.59.97 2.469.97 1.437.969-2.322.97 1.622.97 1.363.97 3.612.97.22.969-1.99.97 1.77.97.184.97-.11.969.92.97-1.879.97-1.4.97.516.97-1.77.969 2.322.97 1.696.97-.074.97-2.248.97 1.953.969 1.069.97-2.764.97-3.206.97-1.695.969-2.801.97-.553.97-.258.97-2.8.97 2.247.969-.368.97-2.875h.97l.97 1.917.97-2.433.969.295.97 1.18 1.94 3.98.969.737.97-.48.97.111 1.94-5.896.969-4.423 1.94-6.854.97-3.648.97-3.059 1.939-.258.97-1.51.97.22.97.074.969 1.069.97 1.732.97 3.353.97-.295.969.664.97-.258.97-2.285.97-2.911.97-2.506.969-2.949.97-3.722.97-1.658h0" style="fill:none;stroke:#d55e00;stroke-linecap:round;stroke-width:1.5" id="line2d_3"/><path clip-path="url(#p6acc84b838)" d="M149.973 340.624h48.489l.97-3.753h1.94l.97-1.877h.969l1.94-11.262.97-7.508.97-1.877.969-5.63.97-1.877 1.94-18.77.969-7.507.97 11.261.97-9.385.97-24.4.97-15.015.969 3.754.97 11.261.97 13.139.97-7.508h.97l.969 31.908.97 22.523.97 3.754.97 11.262.969 5.63.97 1.877.97 13.139.97 22.523.97 16.893.969-1.877.97-3.754.97-9.385.97 15.016.97-1.877.969-24.4.97-20.647.97 5.631.97 3.754.969 7.508.97-5.631.97 3.754h1.94l.969 7.507.97-1.877 1.94 11.262.97 7.508.969 3.754h.97l.97-7.508.97-13.139.97-7.507.969-5.631.97-7.508.97 1.877h.97l.969-1.877.97 5.63.97-1.876.97-3.754.97-1.877.969-5.63h.97l1.94 15.015 1.939 3.754.97-3.754h1.94l.969-13.139.97-5.63 1.94-3.754.97 1.877h1.939l.97 5.63h.97l.97-1.877h.969l.97 1.877h1.94l.969 5.631h.97l.97 1.877h.97l.97-1.877h1.939l.97-9.384.97 1.876h.97l.969-1.876h2.91l.969-3.754h.97l.97-1.877.97 1.877h3.879l.97-3.754.97 3.754h.969l.97-1.877h1.94l.969 11.261h2.91l.97 1.877h1.939l.97 7.508.97-1.877.97-3.754h.969l.97 3.754h1.94l.969-9.385.97 5.631.97 1.877.97-1.877.97-3.754h1.939l.97-3.754.97 3.754h.97l.969 3.754h2.91l.969 3.754.97-5.63.97-1.878h.97l.97-1.877h1.939l.97-1.877h.97l.97 3.754.969-3.754h3.879l.97-3.753.97-1.877h.97l.97 3.754h2.909l.97 3.753.97-7.507.969 3.754h3.879l.97-1.877.97 9.384h.97l.97-1.877h2.909l1.94 3.754.969-3.754h2.91l.969-5.63.97 5.63.97-5.63.97 1.876h2.909l.97 7.508.97-5.63.97 5.63.969 1.877h3.879l.97-1.877.97-11.261.97-18.77.97-3.754h1.939l.97-5.63.97-9.385.97 5.63.969 7.508 2.91-16.892.969 3.754.97 13.138.97 3.754.97 26.277.97 13.139 1.939 11.262.97-7.508.97 1.877.97-9.385.969-16.892.97-3.754 1.94 11.261.969-11.261.97-5.631.97 1.877.97-5.63.97-9.386 2.909-16.892.97 1.877.97 15.015.969-16.892.97 5.63h1.94l.97 16.893 1.939-39.415.97 13.138.97-13.138.969-9.385h.97l.97 16.892.97 13.139.97-1.877.969 41.293.97 30.03.97-28.154h.97l.97-5.63.969 16.892.97 13.139.97-46.924.97-31.908.969 26.277h.97l.97 1.877.97-16.892h.97l.969-18.77.97 1.878.97 48.8h.97l.97-5.63.969 3.753.97 5.63.97 63.816.97 30.031.969-16.892h.97l.97-30.03.97 13.138.97-48.8.969-5.631.97 3.753.97-20.646h1.94l.969-1.877.97 18.77.97-45.047.97 15.016h1.939l.97 18.769.97-28.154.97 46.923.969 1.877.97-54.43.97-18.77h.97l.97 26.277.969 9.385.97-16.893.97 20.646.97 3.754.969 18.77h.97l.97 46.923.97 5.63h.97l.969 18.77.97 35.662.97 18.77h.97l.97-78.832.969 18.77.97 9.384.97-13.139 1.939-56.308h.97l.97 16.893.97 26.277.97-46.923.969-15.016.97 3.754.97 9.385h.97l.97 28.154.969-45.047.97 31.908.97 7.508.97 28.154.969-3.754h.97l.97-28.154.97-20.646.97 37.538.969 9.385.97-16.892.97 3.753.97-13.138.97 22.523.969 28.154.97-37.539.97-22.523.97-11.261 1.939 26.277.97-52.554.97 5.63.97-3.753.969 13.138.97-9.385.97-13.138.97 13.138.97 11.262.969-3.754.97-5.63.97-1.878.97 24.4h.969l.97-13.138.97 5.63.97 1.878.97 3.754.969 1.877.97 9.384h1.94l.97-5.63.969-9.385.97 5.63.97 11.262.97-20.646h.969l.97-16.893.97 41.293.97 1.877.97 7.508.969-39.416.97-3.754h.97l.97 16.893.97-9.385.969-1.877 1.94 16.892v7.508l.97 11.262.969-1.877.97 16.892.97-11.261.97 9.384.97-11.261.969 13.138.97 3.754.97-7.508.97-16.892.97 24.4.969 7.508.97-20.646.97 11.261.97-7.508.969 11.262h.97l.97-18.77.97-9.384.97 9.385.969 11.261.97-7.507.97 5.63h.97l.97-5.63 1.939-7.508.97-5.631.97 13.139.969-7.508h.97l.97 1.877.97 5.63.97 3.754.969-1.877.97 11.262.97 1.877h1.94l.969-3.754.97 7.508.97-5.63.97-13.14.97-1.876h.969l.97 3.753.97-1.876.97-11.262.969-5.63.97-3.755h1.94l.97-7.507h.969l.97-1.877.97 5.63h3.879l.97-5.63 1.939 3.753h3.88l.969 5.631.97 1.877.97-3.754h3.879l.97 5.631h1.939l.97-7.508h2.91l.969-5.63 1.94-3.754.97 7.507h5.818l.97 5.631h3.879l.97-1.877h.97l.97-5.63h3.878l.97 1.876h.97l.97-9.384h1.94l.97-39.416.969-3.754h.97l.97-7.507h2.909l.97 26.277 1.94-3.754.969 9.384.97 18.77h1.94l.97 33.785.969 3.753.97-7.507.97 1.877.97-3.754h1.939l.97-26.277.97 3.754.97 9.384.969-5.63.97-3.754h1.94l.97 20.646.969-3.754.97 7.508.97 5.63.97 1.877h1.939l.97-9.384.97-7.508.97-18.77.969 1.878.97-13.139h1.94l.97-1.877.969-5.63.97 3.753.97 5.631h2.909l.97-7.508.97 22.524.97 13.138.969-20.646.97 11.261h1.94l.97-20.646.969 13.139.97-3.754 1.94 3.754h1.939l.97 33.784.97-20.646.97-1.877.969 16.893.97-3.754h1.94l.97 7.508 1.939-3.754.97 1.877.97-15.016h1.939l.97-9.385.97-3.753.97 5.63.969-5.63.97 18.769h1.94l.97-15.016.969 3.754.97 5.631.97-11.261.97 13.138h1.939l.97 3.754.97 11.262.97-5.631.969 7.507.97-15.015h1.94l.97 3.754.969-11.262.97-1.877.97 7.508.97-1.877h1.939l.97-5.63h.97l.97-18.77.969-3.754.97-11.261h1.94l.97 9.384.969 1.877.97 13.139.97-9.385.97 9.385h1.939l.97-22.524.97-5.63.97 7.507.97 5.631.969 15.016h1.94l.97-7.508h.969l.97-3.754.97-9.385.97-24.4h1.939l.97 37.539.97-3.754.97-9.385h0" style="fill:none;stroke:#0072b2;stroke-linecap:round;stroke-width:1.5" id="line2d_4"/><path clip-path="url(#p6acc84b838)" d="M117 340.624h725.4" style="fill:none;stroke:red;stroke-dasharray:1.5,2.475;stroke-dashoffset:0;stroke-width:1.5" id="line2d_5"/><path d="M117 576.72V77.76" style="fill:none;stroke:#d3d3d3;stroke-linecap:square;stroke-linejoin:miter;stroke-width:1.25" id="patch_3"/><path d="M117 576.72h725.4" style="fill:none;stroke:#d3d3d3;stroke-linecap:square;stroke-linejoin:miter;stroke-width:1.25" id="patch_4"/><g id="matplotlib.axis_1"><g id="xtick_1"><g style="fill:#696969" transform="matrix(.16 0 0 -.16 111.456 598.378)" id="text_1"><defs><path d="M9.813 72.906h9.859V5.078q0-13.187-5-19.14-5-5.954-16.094-5.954h-3.75v8.297h3.078q6.531 0 9.219 3.672Q9.813-4.39 9.813 5.078z" id="DejaVuSans-74"/><path d="M34.281 27.484q-10.89 0-15.093-2.484-4.204-2.484-4.204-8.5 0-4.781 3.157-7.594 3.156-2.797 8.562-2.797 7.485 0 12 5.297 4.516 5.297 4.516 14.078v2zm17.922 3.72V0H43.22v8.297Q40.14 3.328 35.547.953q-4.594-2.375-11.234-2.375-8.391 0-13.36 4.719Q6 8.016 6 15.922q0 9.219 6.172 13.906 6.187 4.688 18.437 4.688h12.61v.89q0 6.203-4.078 9.594-4.078 3.39-11.453 3.39-4.688 0-9.141-1.124-4.438-1.125-8.531-3.375v8.312q4.921 1.906 9.562 2.844 4.64.953 9.031.953 11.875 0 17.735-6.156 5.86-6.14 5.86-18.64z" id="DejaVuSans-97"/><path d="M54.89 33.016V0h-8.984v32.719q0 7.765-3.031 11.61-3.031 3.858-9.078 3.858-7.281 0-11.484-4.64-4.204-4.625-4.204-12.64V0H9.08v54.688h9.03v-8.5q3.235 4.937 7.594 7.374Q30.078 56 35.797 56q9.422 0 14.25-5.828 4.844-5.828 4.844-17.156z" id="DejaVuSans-110"/></defs><use xlink:href="#DejaVuSans-74"/><use x="29.492" xlink:href="#DejaVuSans-97"/><use x="90.771" xlink:href="#DejaVuSans-110"/></g></g><g id="xtick_2"><g style="fill:#696969" transform="matrix(.16 0 0 -.16 198.199 598.378)" id="text_2"><defs><path d="M34.188 63.188 20.797 26.906h26.812zm-5.579 9.718h11.188L67.578 0h-10.25l-6.64 18.703h-32.86L11.188 0H.78z" id="DejaVuSans-65"/><path d="M18.11 8.203v-29H9.077v75.484h9.031v-8.296q2.844 4.875 7.157 7.234Q29.594 56 35.594 56q9.968 0 16.187-7.906 6.235-7.907 6.235-20.797T51.78 6.484q-6.218-7.906-16.187-7.906-6 0-10.328 2.375-4.313 2.375-7.157 7.25zm30.578 19.094q0 9.906-4.079 15.547-4.078 5.64-11.203 5.64-7.14 0-11.218-5.64-4.079-5.64-4.079-15.547 0-9.906 4.078-15.547 4.079-5.64 11.22-5.64 7.124 0 11.202 5.64t4.078 15.547z" id="DejaVuSans-112"/><path d="M41.11 46.297q-1.516.875-3.297 1.281Q36.03 48 33.89 48q-7.625 0-11.703-4.953-4.079-4.953-4.079-14.234V0H9.08v54.688h9.03v-8.5q2.844 4.984 7.375 7.39Q30.031 56 36.531 56q.922 0 2.047-.125 1.125-.11 2.484-.36z" id="DejaVuSans-114"/></defs><use xlink:href="#DejaVuSans-65"/><use x="68.408" xlink:href="#DejaVuSans-112"/><use x="131.885" xlink:href="#DejaVuSans-114"/></g></g><g id="xtick_3"><g style="fill:#696969" transform="matrix(.16 0 0 -.16 290.637 598.378)" id="text_3"><defs><path d="M8.5 21.578v33.11h8.984V21.922q0-7.766 3.016-11.656 3.031-3.875 9.094-3.875 7.265 0 11.484 4.64 4.234 4.64 4.234 12.656v31h8.985V0h-8.984v8.406Q42.047 3.422 37.718 1q-4.313-2.422-10.032-2.422-9.421 0-14.312 5.86Q8.5 10.296 8.5 21.578zM31.11 56z" id="DejaVuSans-117"/><path d="M9.422 75.984h8.984V0H9.422z" id="DejaVuSans-108"/></defs><use xlink:href="#DejaVuSans-74"/><use x="29.492" xlink:href="#DejaVuSans-117"/><use x="92.871" xlink:href="#DejaVuSans-108"/></g></g><g id="xtick_4"><g style="fill:#696969" transform="matrix(.16 0 0 -.16 375.677 598.378)" id="text_4"><defs><path d="M39.406 66.219q-10.75 0-17.078-8.016-6.312-8-6.312-21.828 0-13.766 6.312-21.781 6.328-8 17.078-8 10.735 0 17.016 8 6.281 8.015 6.281 21.781 0 13.828-6.281 21.828-6.281 8.016-17.016 8.016zm0 8q15.328 0 24.5-10.281 9.188-10.282 9.188-27.563 0-17.234-9.188-27.516-9.172-10.28-24.5-10.28-15.375 0-24.593 10.25-9.204 10.265-9.204 27.546t9.204 27.563q9.218 10.28 24.593 10.28z" id="DejaVuSans-79"/><path d="M48.781 52.594v-8.407q-3.812 2.11-7.64 3.157-3.828 1.047-7.735 1.047-8.75 0-13.593-5.547-4.829-5.532-4.829-15.547 0-10.016 4.829-15.563 4.843-5.53 13.593-5.53 3.907 0 7.735 1.046 3.828 1.047 7.64 3.156V2.094Q45.016.344 40.984-.531q-4.015-.89-8.562-.89-12.36 0-19.64 7.765-7.266 7.765-7.266 20.953 0 13.375 7.343 21.031Q20.22 56 33.016 56q4.14 0 8.093-.86 3.953-.843 7.672-2.546z" id="DejaVuSans-99"/><path d="M18.313 70.219V54.688h18.5v-6.985h-18.5V18.016q0-6.688 1.828-8.594 1.828-1.906 7.453-1.906h9.218V0h-9.218q-10.407 0-14.36 3.875-3.953 3.89-3.953 14.14v29.688H2.687v6.984h6.594V70.22z" id="DejaVuSans-116"/></defs><use xlink:href="#DejaVuSans-79"/><use x="78.711" xlink:href="#DejaVuSans-99"/><use x="133.691" xlink:href="#DejaVuSans-116"/></g></g><g id="xtick_5"><g style="fill:#696969" transform="matrix(.16 0 0 -.16 466.398 598.378)" id="text_5"><use xlink:href="#DejaVuSans-74"/><use x="29.492" xlink:href="#DejaVuSans-97"/><use x="90.771" xlink:href="#DejaVuSans-110"/></g></g><g id="xtick_6"><g style="fill:#696969" transform="matrix(.16 0 0 -.16 552.171 598.378)" id="text_6"><use xlink:href="#DejaVuSans-65"/><use x="68.408" xlink:href="#DejaVuSans-112"/><use x="131.885" xlink:href="#DejaVuSans-114"/></g></g><g id="xtick_7"><g style="fill:#696969" transform="matrix(.16 0 0 -.16 644.609 598.378)" id="text_7"><use xlink:href="#DejaVuSans-74"/><use x="29.492" xlink:href="#DejaVuSans-117"/><use x="92.871" xlink:href="#DejaVuSans-108"/></g></g><g id="xtick_8"><g style="fill:#696969" transform="matrix(.16 0 0 -.16 729.65 598.378)" id="text_8"><use xlink:href="#DejaVuSans-79"/><use x="78.711" xlink:href="#DejaVuSans-99"/><use x="133.691" xlink:href="#DejaVuSans-116"/></g></g><g id="xtick_9"><g style="fill:#696969" transform="matrix(.16 0 0 -.16 820.37 598.378)" id="text_9"><use xlink:href="#DejaVuSans-74"/><use x="29.492" xlink:href="#DejaVuSans-97"/><use x="90.771" xlink:href="#DejaVuSans-110"/></g></g></g><g id="matplotlib.axis_2"><g id="ytick_1"><g style="fill:#696969" transform="matrix(.16 0 0 -.16 73.733 539.083)" id="text_10"><defs><path d="M10.594 35.5h62.593v-8.297H10.594z" id="DejaVuSans-8722"/><path d="M37.797 64.313 12.89 25.39h24.906zm-2.594 8.593H47.61V25.391h10.407v-8.203H47.609V0h-9.812v17.188H4.89v9.515z" id="DejaVuSans-52"/><path d="M31.781 66.406q-7.61 0-11.453-7.5Q16.5 51.422 16.5 36.375q0-14.984 3.828-22.484 3.844-7.5 11.453-7.5 7.672 0 11.5 7.5 3.844 7.5 3.844 22.484 0 15.047-3.844 22.531-3.828 7.5-11.5 7.5zm0 7.813q12.266 0 18.735-9.703 6.468-9.688 6.468-28.141 0-18.406-6.468-28.11-6.47-9.687-18.735-9.687-12.25 0-18.718 9.688-6.47 9.703-6.47 28.109 0 18.453 6.47 28.14Q19.53 74.22 31.78 74.22z" id="DejaVuSans-48"/></defs><use xlink:href="#DejaVuSans-8722"/><use x="83.789" xlink:href="#DejaVuSans-52"/><use x="147.412" xlink:href="#DejaVuSans-48"/></g></g><g id="ytick_2"><g style="fill:#696969" transform="matrix(.16 0 0 -.16 73.733 442.893)" id="text_11"><defs><path d="M19.188 8.297h34.421V0H7.33v8.297q5.609 5.812 15.296 15.594 9.703 9.797 12.188 12.64 4.734 5.313 6.609 9 1.89 3.688 1.89 7.25 0 5.813-4.078 9.469-4.078 3.672-10.625 3.672-4.64 0-9.797-1.61-5.14-1.609-11-4.89v9.969Q13.767 71.78 18.938 73q5.188 1.219 9.485 1.219 11.328 0 18.062-5.672 6.735-5.656 6.735-15.125 0-4.5-1.688-8.531-1.672-4.016-6.125-9.485-1.218-1.422-7.765-8.187-6.532-6.766-18.453-18.922z" id="DejaVuSans-50"/></defs><use xlink:href="#DejaVuSans-8722"/><use x="83.789" xlink:href="#DejaVuSans-50"/><use x="147.412" xlink:href="#DejaVuSans-48"/></g></g><g id="ytick_3"><use xlink:href="#DejaVuSans-48" style="fill:#696969" transform="matrix(.16 0 0 -.16 97.32 346.703)" id="text_12"/></g><g id="ytick_4"><g style="fill:#696969" transform="matrix(.16 0 0 -.16 87.14 250.513)" id="text_13"><use xlink:href="#DejaVuSans-50"/><use x="63.623" xlink:href="#DejaVuSans-48"/></g></g><g id="ytick_5"><g style="fill:#696969" transform="matrix(.16 0 0 -.16 87.14 154.324)" id="text_14"><use xlink:href="#DejaVuSans-52"/><use x="63.623" xlink:href="#DejaVuSans-48"/></g></g><g style="fill:#696969" transform="matrix(0 -.2 -.2 0 65.573 379.813)" id="text_15"><defs><path d="M51.125 44H36.922l-4.11-16.313h14.313zm-7.328 27.781-5.078-20.265h14.265L58.11 71.78h7.813L60.89 51.516h15.234V44h-17.14l-4-16.313h15.53V20.22H53.079L48 0h-7.813l5.032 20.219H30.906L25.875 0h-7.86l5.079 20.219H7.719v7.468h17.187L29 44H13.281v7.516h17.625l4.985 20.265z" id="DejaVuSans-35"/><path d="M30.61 48.39q-7.22 0-11.422-5.64-4.204-5.64-4.204-15.453 0-9.813 4.172-15.453 4.188-5.64 11.453-5.64 7.188 0 11.375 5.655 4.203 5.672 4.203 15.438 0 9.719-4.203 15.406-4.187 5.688-11.375 5.688zm0 7.61q11.718 0 18.406-7.625 6.703-7.61 6.703-21.078 0-13.422-6.703-21.078-6.688-7.64-18.407-7.64-11.765 0-18.437 7.64-6.656 7.656-6.656 21.078 0 13.469 6.656 21.078Q18.844 56 30.609 56z" id="DejaVuSans-111"/><path d="M37.11 75.984V68.5h-8.594q-4.828 0-6.72-1.953-1.874-1.953-1.874-7.031v-4.828h14.797v-6.985H19.922V0H10.89v47.703H2.297v6.984h8.594V58.5q0 9.125 4.25 13.297 4.25 4.187 13.468 4.187z" id="DejaVuSans-102"/><path d="M44.281 53.078v-8.5q-3.797 1.953-7.906 2.922-4.094.984-8.5.984-6.688 0-10.031-2.047-3.344-2.046-3.344-6.156 0-3.125 2.39-4.906 2.391-1.781 9.626-3.39l3.078-.688q9.562-2.047 13.593-5.781 4.032-3.735 4.032-10.422 0-7.625-6.032-12.078-6.03-4.438-16.578-4.438-4.39 0-9.156.86Q10.688.296 5.422 2v9.281q4.984-2.594 9.812-3.89 4.829-1.282 9.579-1.282 6.343 0 9.75 2.172 3.421 2.172 3.421 6.125 0 3.656-2.468 5.61-2.453 1.953-10.813 3.765l-3.125.735q-8.344 1.75-12.062 5.39-3.704 3.64-3.704 9.985 0 7.718 5.47 11.906Q16.75 56 26.811 56q4.97 0 9.36-.734 4.406-.72 8.11-2.188z" id="DejaVuSans-115"/><path d="M56.203 29.594v-4.39H14.891q.593-9.282 5.593-14.142 5-4.859 13.938-4.859 5.172 0 10.031 1.266 4.86 1.265 9.656 3.812v-8.5Q49.266.734 44.187-.344 39.11-1.422 33.892-1.422q-13.094 0-20.735 7.61-7.64 7.625-7.64 20.625 0 13.421 7.25 21.296Q20.016 56 32.328 56q11.031 0 17.453-7.11 6.422-7.093 6.422-19.296zm-8.984 2.64q-.094 7.36-4.125 11.75-4.032 4.407-10.672 4.407-7.516 0-12.031-4.25-4.516-4.25-5.203-11.97z" id="DejaVuSans-101"/></defs><use xlink:href="#DejaVuSans-35"/><use x="83.789" xlink:href="#DejaVuSans-32"/><use x="115.576" xlink:href="#DejaVuSans-111"/><use x="176.758" xlink:href="#DejaVuSans-102"/><use x="211.963" xlink:href="#DejaVuSans-32"/><use x="243.75" xlink:href="#DejaVuSans-99"/><use x="298.73" xlink:href="#DejaVuSans-97"/><use x="360.01" xlink:href="#DejaVuSans-115"/><use x="412.109" xlink:href="#DejaVuSans-101"/><use x="473.633" xlink:href="#DejaVuSans-115"/></g></g><g style="fill:#696969" transform="matrix(.24 0 0 -.24 261.11 71.76)" id="text_16"><defs><path d="M9.813 72.906h13.28l32.329-60.984v60.984h9.562V0h-13.28L19.39 60.984V0H9.813z" id="DejaVuSans-78"/><path d="M4.203 54.688h8.985l11.234-42.672 11.172 42.672h10.593l11.235-42.672 11.187 42.672h8.985L63.28 0H52.688L40.922 44.828 29.109 0H18.5z" id="DejaVuSans-119"/><path d="M64.406 67.281v-10.39q-4.984 4.64-10.625 6.922-5.64 2.296-11.984 2.296-12.5 0-19.14-7.64-6.641-7.64-6.641-22.094 0-14.406 6.64-22.047 6.64-7.64 19.14-7.64 6.345 0 11.985 2.296 5.64 2.297 10.625 6.938V5.609Q59.234 2.094 53.437.33q-5.78-1.75-12.218-1.75-16.563 0-26.094 10.124-9.516 10.14-9.516 27.672 0 17.578 9.516 27.703 9.531 10.14 26.094 10.14 6.531 0 12.312-1.734 5.797-1.734 10.875-5.203z" id="DejaVuSans-67"/><path d="M3.328 72.906h9.953L28.61 11.281l15.282 61.625h11.093l15.328-61.625 15.282 61.625h10.015L77.297 0H64.89L49.516 63.281 33.984 0H21.578z" id="DejaVuSans-87"/><path d="M9.078 75.984h9.031V31.11l26.813 23.578H56.39l-29-25.578L57.625 0H45.906L18.11 26.703V0H9.08z" id="DejaVuSans-107"/><path d="M4.89 31.39h26.313v-8H4.891z" id="DejaVuSans-45"/><path d="M2.984 54.688H12.5L29.594 8.797l17.093 45.89h9.516L35.687 0H23.485z" id="DejaVuSans-118"/><path d="M11.719 12.406h10.297V0H11.719zm0 39.297h10.297v-12.39H11.719z" id="DejaVuSans-58"/><path d="M12.406 8.297h16.11v55.625l-17.532-3.516v8.985l17.438 3.515h9.86V8.296H54.39V0H12.406z" id="DejaVuSans-49"/><path d="M45.406 27.984q0 9.766-4.031 15.125-4.016 5.375-11.297 5.375-7.219 0-11.25-5.375-4.031-5.359-4.031-15.125 0-9.718 4.031-15.093t11.25-5.375q7.281 0 11.297 5.375 4.031 5.375 4.031 15.093zm8.985-21.203q0-13.953-6.203-20.765Q42-20.797 29.203-20.797q-4.734 0-8.937.703-4.203.703-8.157 2.172v8.735q3.954-2.141 7.813-3.157 3.86-1.031 7.86-1.031 8.843 0 13.234 4.61 4.39 4.609 4.39 13.937v4.453q-2.781-4.844-7.125-7.234Q33.938 0 27.875 0 17.828 0 11.672 7.656q-6.156 7.672-6.156 20.328 0 12.688 6.156 20.344Q17.828 56 27.875 56q6.063 0 10.406-2.39 4.344-2.391 7.125-7.22v8.297h8.985z" id="DejaVuSans-103"/></defs><use xlink:href="#DejaVuSans-78"/><use x="74.805" xlink:href="#DejaVuSans-101"/><use x="136.328" xlink:href="#DejaVuSans-119"/><use x="218.115" xlink:href="#DejaVuSans-32"/><use x="249.902" xlink:href="#DejaVuSans-67"/><use x="319.727" xlink:href="#DejaVuSans-97"/><use x="381.006" xlink:href="#DejaVuSans-115"/><use x="433.105" xlink:href="#DejaVuSans-101"/><use x="494.629" xlink:href="#DejaVuSans-115"/><use x="546.729" xlink:href="#DejaVuSans-32"/><use x="578.516" xlink:href="#DejaVuSans-87"/><use x="671.518" xlink:href="#DejaVuSans-101"/><use x="733.041" xlink:href="#DejaVuSans-101"/><use x="794.564" xlink:href="#DejaVuSans-107"/><use x="852.475" xlink:href="#DejaVuSans-45"/><use x="890.434" xlink:href="#DejaVuSans-111"/><use x="951.615" xlink:href="#DejaVuSans-118"/><use x="1010.795" xlink:href="#DejaVuSans-101"/><use x="1072.318" xlink:href="#DejaVuSans-114"/><use x="1107.057" xlink:href="#DejaVuSans-45"/><use x="1139.141" xlink:href="#DejaVuSans-87"/><use x="1232.143" xlink:href="#DejaVuSans-101"/><use x="1293.666" xlink:href="#DejaVuSans-101"/><use x="1355.189" xlink:href="#DejaVuSans-107"/><use x="1413.1" xlink:href="#DejaVuSans-58"/><use x="1446.791" xlink:href="#DejaVuSans-32"/><use x="1478.578" xlink:href="#DejaVuSans-49"/><use x="1542.201" xlink:href="#DejaVuSans-52"/><use x="1605.824" xlink:href="#DejaVuSans-32"/><use x="1637.611" xlink:href="#DejaVuSans-97"/><use x="1698.891" xlink:href="#DejaVuSans-118"/><use x="1758.07" xlink:href="#DejaVuSans-103"/></g><g id="legend_1"><path d="M694.75 184.5H831.2q3.2 0 3.2-3.2V88.96q0-3.2-3.2-3.2H694.75q-3.2 0-3.2 3.2v92.34q0 3.2 3.2 3.2z" style="fill:none;opacity:.8;stroke:#ccc;stroke-linejoin:miter" id="patch_5"/><path d="M697.95 98.718h32" style="fill:none;stroke:#000;stroke-linecap:round;stroke-width:1.5" id="line2d_6"/><g style="fill:#696969" transform="matrix(.16 0 0 -.16 742.75 104.317)" id="text_17"><defs><path d="M8.688 72.906h9.921V28.61q0-11.718 4.235-16.875 4.25-5.14 13.781-5.14 9.469 0 13.719 5.14 4.25 5.157 4.25 16.875v44.297H64.5V27.391q0-14.25-7.063-21.532-7.046-7.28-20.812-7.28-13.828 0-20.89 7.28-7.047 7.282-7.047 21.532z" id="DejaVuSans-85"/><path d="M53.516 70.516V60.89q-5.61 2.687-10.594 4-4.984 1.328-9.625 1.328-8.047 0-12.422-3.125t-4.375-8.89q0-4.845 2.906-7.313 2.907-2.453 11.016-3.97l5.953-1.218q11.031-2.11 16.281-7.406 5.25-5.297 5.25-14.172 0-10.61-7.11-16.078-7.093-5.469-20.812-5.469-5.172 0-11.015 1.172Q13.14.922 6.89 3.219v10.156q6-3.36 11.765-5.078 5.766-1.703 11.328-1.703 8.438 0 13.032 3.312 4.593 3.328 4.593 9.485 0 5.359-3.297 8.39-3.296 3.032-10.812 4.547L27.484 33.5q-11.03 2.188-15.968 6.875-4.922 4.688-4.922 13.047 0 9.672 6.812 15.234 6.813 5.563 18.766 5.563 5.14 0 10.453-.938 5.328-.922 10.89-2.765z" id="DejaVuSans-83"/></defs><use xlink:href="#DejaVuSans-85"/><use x="73.193" xlink:href="#DejaVuSans-83"/></g><path d="M697.95 122.203h32" style="fill:none;stroke:#009e73;stroke-linecap:round;stroke-width:1.5" id="line2d_8"/><g style="fill:#696969" transform="matrix(.16 0 0 -.16 742.75 127.802)" id="text_18"><use xlink:href="#DejaVuSans-78"/><use x="74.805" xlink:href="#DejaVuSans-74"/></g><path d="M697.95 145.688h32" style="fill:none;stroke:#d55e00;stroke-linecap:round;stroke-width:1.5" id="line2d_10"/><g style="fill:#696969" transform="matrix(.16 0 0 -.16 742.75 151.287)" id="text_19"><defs><path d="M19.672 34.813V8.108H35.5q7.953 0 11.781 3.297 3.844 3.297 3.844 10.078 0 6.844-3.844 10.078-3.828 3.25-11.781 3.25zm0 29.984V42.828h14.61q7.218 0 10.75 2.703 3.546 2.719 3.546 8.282 0 5.515-3.547 8.25-3.531 2.734-10.75 2.734zm-9.86 8.11h25.204q11.28 0 17.375-4.688Q58.5 63.53 58.5 54.89q0-6.703-3.125-10.657-3.125-3.953-9.188-4.922 7.282-1.562 11.313-6.53 4.031-4.954 4.031-12.376 0-9.765-6.64-15.093Q48.25 0 35.984 0H9.812z" id="DejaVuSans-66"/></defs><use xlink:href="#DejaVuSans-66"/><use x="68.604" xlink:href="#DejaVuSans-101"/><use x="130.127" xlink:href="#DejaVuSans-114"/><use x="169.49" xlink:href="#DejaVuSans-103"/><use x="232.967" xlink:href="#DejaVuSans-101"/><use x="294.49" xlink:href="#DejaVuSans-110"/></g><path d="M697.95 169.173h32" style="fill:none;stroke:#0072b2;stroke-linecap:round;stroke-width:1.5" id="line2d_12"/><g style="fill:#696969" transform="matrix(.16 0 0 -.16 742.75 174.773)" id="text_20"><defs><path d="M44.39 34.188q3.172-1.079 6.172-4.594 3-3.516 6.032-9.672L66.609 0H56l-9.313 18.703q-3.624 7.328-7.015 9.719-3.39 2.39-9.25 2.39h-10.75V0h-9.86v72.906h22.266q12.5 0 18.656-5.234 6.157-5.219 6.157-15.766 0-6.89-3.203-11.437-3.204-4.532-9.297-6.282zM19.673 64.797V38.922h12.406q7.125 0 10.766 3.297 3.64 3.297 3.64 9.687 0 6.39-3.64 9.64-3.64 3.25-10.766 3.25z" id="DejaVuSans-82"/><path d="M54.89 33.016V0h-8.984v32.719q0 7.765-3.031 11.61-3.031 3.858-9.078 3.858-7.281 0-11.484-4.64-4.204-4.625-4.204-12.64V0H9.08v75.984h9.03V46.188q3.235 4.937 7.594 7.374Q30.078 56 35.797 56q9.422 0 14.25-5.828 4.844-5.828 4.844-17.156z" id="DejaVuSans-104"/><path d="M45.406 46.39v29.594h8.985V0h-8.985v8.203Q42.578 3.328 38.25.953q-4.313-2.375-10.375-2.375-9.906 0-16.14 7.906-6.22 7.922-6.22 20.813 0 12.89 6.22 20.797Q17.968 56 27.874 56q6.063 0 10.375-2.375 4.328-2.36 7.156-7.234zm-30.61-19.093q0-9.906 4.079-15.547 4.078-5.64 11.203-5.64 7.125 0 11.219 5.64 4.11 5.64 4.11 15.547 0 9.906-4.11 15.547-4.094 5.64-11.219 5.64-7.125 0-11.203-5.64-4.078-5.64-4.078-15.547z" id="DejaVuSans-100"/></defs><use xlink:href="#DejaVuSans-82"/><use x="64.982" xlink:href="#DejaVuSans-117"/><use x="128.361" xlink:href="#DejaVuSans-116"/><use x="167.57" xlink:href="#DejaVuSans-104"/><use x="230.949" xlink:href="#DejaVuSans-101"/><use x="292.473" xlink:href="#DejaVuSans-114"/><use x="333.586" xlink:href="#DejaVuSans-102"/><use x="368.791" xlink:href="#DejaVuSans-111"/><use x="429.973" xlink:href="#DejaVuSans-114"/><use x="469.336" xlink:href="#DejaVuSans-100"/></g></g></g></g><defs><clipPath id="p6acc84b838"><path d="M117 77.76h725.4v498.96H117z"/></clipPath></defs></svg>