<svg height="864" viewBox="0 0 936 648" width="1248" xmlns="http://www.w3.org/2000/svg" xmlns:xlink="http://www.w3.org/1999/xlink"><defs><style>*{stroke-linecap:butt;stroke-linejoin:round}</style></defs><g id="figure_1"><path d="M0 648h936V0H0z" style="fill:#fff" id="patch_1"/><g id="axes_1"><path d="M117 576.72h725.4V77.76H117z" style="fill:none" id="patch_2"/><path clip-path="url(#p9d52ecd789)" d="m149.973 328.59 45.12-.123 3.471-.199 1.736-.423 1.735-.72 2.603-1.628 1.735-1.133.868-.494.868-.348 1.735-.327.868-.165 1.735-.094.868-.089 1.735.253.868.316 1.736.989.867.693.868 1.003 2.603 2.159 1.736.992.867.36 1.736.203.867-.11.868-.297 1.735-.285.868-.4 1.736-.934 2.603.286.867.213.868.437.868.608.867.416 4.339-.12 1.735.26.868.268 1.736.172.867.03 1.736-.436.867-.254.868-.42 1.735-.45.868-.179 3.47.142 2.604.737.868-.038.867-.184 1.736-.231 2.603-.866.868-.184.867-.045.868.149 1.735.625.868.073.868-.132 1.735.275 1.736-.46.867-.44.868-.257.868-.103 4.338-2.01.868-.405 2.603-1.52.868-.304 2.603-.36.868-.094.867.058.868.18 5.206 2.046.868-.08 1.735-.802.868-.394.868-.168.868-.349.867-.1 1.736 1.122 4.338 3.923.868-.08 1.735.69.868.028.868.199 1.735.069.868.684 1.735.514 3.471 2.256.868-.156 1.735-.706 3.47-2.555.869-.108.867.223.868.43 2.603 1.844 1.736.75.867.15.868-.292 3.47-2.41 1.736-.947 1.736-.2.867.202.868.449 1.735-.49.868.207.868.383.867.88.868.2.868-.15.868.616.867.35.868-.193.868-.958.867-1.555.868-.977 1.736-1.351.867-.377 1.736-.37.867.185.868.506.868.354.867.095.868-.082.868.125.868 1.212.867.884.868-.204.868.014 1.735.253.868-.033 1.735-2.408.868-.106 1.735-1.103.868-.166.868-.345 1.735 1.753.868-.264.868.164 1.735-.273.868.301 1.735-1.66.868.25.867.053.868-.133.868-.9.868-1.074 1.735.004 1.735-1.281.868-.177 1.735 1.22 2.604-1.284.867-.761.868-1.077 1.735-3.383.868-1.021.868-1.49.868-1.217.867-.65.868-.878.868-.228.867.195.868-.072.868.828.867.991.868.766 3.471 6.323 1.735 1.78 1.736 7.973 1.735 2.81 1.736 2.255.867-.078 1.736-13.79.867-2.998.868-3.703 1.736-5.372.867-.87.868 3.51.868 2.687.867.927.868 2.44.868 2.056.867 2.973.868 1.46.868-.371.868 2.36.867 3.016.868 1.03.868.396.867-.62.868.87.868 3.176.867 5.705.868 2.709.868-.42.868 1.177.867.393.868-.615.868-3.21 1.735-16.916.868-4.153.867-4.909.868-3.53.868-1.94.868-1.21.867-3.822.868.232.868 5.063 1.735 8.314.868 2.977.868 4.618.867 9.782.868 7.21.868 1.759 1.735 6.49.868 1.772.867.816.868-.141.868-.902.868-.425 1.735-6.61.868-.669.867-1.247.868-1.48 1.735-1.484.868.181.868.94.868.158 1.735 1.493 1.735.266.868 1.438.868.567 2.603-2.685 2.603-1.27.868.058 1.735.837.868.18.868-.438.867-.651.868-1.824.868-2.606 2.603-6.382.867-.958.868-.392.868.085 2.603 2.896.868.951.867.385.868.18.868-1.093.868-1.706.867-.375.868-.157.868-.54 1.735-.577 1.735 4.535 1.736-.696.868-.03 1.735-.645 2.603-3.067 1.735-1.888 1.736-1.103.868-1.046.867-.699 1.736 2.03 2.603 2.05.867.904.868.512 2.603-1.213 1.736-1.032 2.603-.852.868.402 2.603 2.672.867.474.868.92.868 1.528.867.533.868.387.868.124.868-.201.867.722.868.453.868-.409.867-.14 1.736-.485.867-.05.868-.943.868-.763 2.603.476 1.735.638.868.621.868.385 3.47-.722 2.604-.728 1.735-.201.868.161.868.372.867.098 1.736-.377.867-.079.868-.264 1.735-.67.868.005.868.664.868.379.867-.117.868.242.868 1.46.867 1.072.868-.356.868-1.268.868-.834.867-.071.868-.48 1.735-5.693.868-.027.868.525.867.392.868.128.868.321 1.735 2.839.868.06.868-.054 1.735-.557 1.735-.787.868-.202 3.471-.316 1.735-3.246.868-.039.868.103.868.38.867.074.868-.664 1.735 3.541.868-.513.868-.333 1.735-2.95 1.736.185 1.735-.238.868-.057 1.735.318.868-.55 1.735-3.638.868-.59.868-.186.867-.367.868-1.146.868-.932.867-.217.868-.388.868-.249.867-.103.868-.431.868-.256 2.603-.034 1.735-.604.868-.114.868 1.037.868.51.867.035.868 1.4.868 1.006.867.326.868-1.056.868-.28.867 2.05.868.799.868-.08.868-.483.867-.35.868 2.735.868 1.62.867-.673.868-.137.868.287.867 1.272.868.607 1.736-.777.867-1.217.868.204.868 1.31 1.735 1.613.868 6.97.868 2.79.867-2.055.868 1.925.868.121 1.735-1.166.868-12.988.867-3.925.868 8.882.868-.073 1.735.406.868.268.868 8.984.867 5.115.868-3.758.868.643 1.735 1.84.868.545.868-1.844.867-2.235.868-.315.868-.613.867-.901.868-.704.868-.21.868.366.867.219 1.736-1.144 1.735-.131.868-.195.867.685.868-.026.868-.349.868.722.867.23 1.736-.212.867-1.583.868-.21.868 1.33 2.603-.788.868.131.867.61.868-.54.868-1.91.867-1.257.868-.77.868-.513.867-.326.868-1.359.868-.683.868 1.023.867.802.868.184 1.735-.287.868.504.868.02.868-1.3.867-.273.868-.615.868-1.974.867-.811 1.736-1.296.867-.082.868-2.095.868-.542.868 3.118.867 1.399.868.181 1.735 1.03.868 4.332.868 5.894.867 1.75.868.36.868-1.026.868-1.971.867-.903.868-6.461.868-11.47.867-7.057.868-2.18.868 1.87.868 2.83.867.69.868 4.265.868 6.84.867 4.18.868 1.578.868-.497.867-.722.868.493.868-.788.868-1.037.867-.783.868-2.07.868-4.14 1.735-10.8.868-6.368.867-3.302.868 1.058.868-1.332.868-7.122 1.735-16.856.868-11.174.867-14.48.868-11.847.868-3.17.868-6.888.867-17.624.868-9.108.868 5.655.867-1.455.868-11.994.868-3.669.867 4.13 1.736 43.086.868 3.3.867 15.558.868 23.403.868 10.098.867 36.718.868 19.672.868-10.275.867 13.998.868 11.963 1.736 13.734.867-28.303.868 1.09.868 38.973 1.735 15.868.868 5.498.868-1.075.867 20.792.868 7.625.868-8.273.867 6.242.868-.878.868-.102.867-.854.868-3.408.868-5.433 1.735-23.012 1.736-10.91.867-2.582 1.736-12.477.867-1.167.868-2.65.868-4.875.868-4.003.867-1.549h0" style="fill:none;stroke:#000;stroke-linecap:round;stroke-width:1.5" id="line2d_1"/><path clip-path="url(#p9d52ecd789)" d="m149.973 328.589 44.253-.08 2.603-.205 1.735-.451 2.603-1.626.868-1.097 2.603-4.522.868-2.708 1.735-7.837 1.736-6.136.867-2.324.868-3.268.868-1.138.867.874.868-.758.868.586.867 3.027.868 2.312.868 3.955 1.735 9.117.868 6.76.868 4.032.867 2.358.868 1.825.868.747.868-.196.867-.92.868-.462.868.095.867-1.763.868-.058.868-.61.867-1.457.868 1.652 1.736-1.053 1.735 5.998.868 3.08.867 4.647.868.355.868-.119.867 1.538.868-.721.868-1.542.868-.627.867-1.248.868-.051 1.735 2.77 2.604 2.135.867-.799.868-.17.868-.652 2.603-6.783.867-3.265.868-1.874.868-1.417.868-.37.867.41.868 1.248 1.735 3.686.868 1.075.868.094.867-1.085.868-1.376.868-.337.868-.664.867-.52.868.781.868 1.002.867.701.868 1.115 1.735-.017.868-.1.868-1.307.868-.591.867.17 1.736-1.497.867-.452.868-.062.868.444 1.735-1.112.868-.048 1.735-.383.868-.15 1.735-4.453 1.736-.041.868.314.867.183.868-.358 1.735 8.002 1.736-.19.867-.428.868-.116.868.375 1.735-3.466 1.736.048.867.23.868-.178 1.736-.877.867.106 4.339 2.3.867.198.868-.882.868-1.227 1.735-2.9.868-.715.868-.518.867-.105.868.276.868.677 1.735 2.715.868.915.868.592.867-.03 1.736.917 2.603-1.341 1.735-.875.868-.774.868-.535.867.526.868.349.868.167.867.528.868 1.284.868 1.576.868.177.867-.957.868-.386.868.068.867-.156.868-.961.868-1.319.867.099.868.502 2.603-.83.868-.022.868.134.867-.213.868-.039 1.735.577 1.736.247.868.108 3.47-.49.868-.298 1.736-.269.867.148.868-.07.868-.267.867.134 1.736.48.867.121 2.604-1.055.867-.176 1.736-.783.867-.22.868-.047.868.486.867.631.868.086.868.422.868-.16.867-.673.868.412.868.098 1.735-.468.868-.968.868.454.867 1.413.868.032.868-.655.867-1.381.868-.482.868.828.867-.212.868-.96.868-1.417.868-.28.867 1.625.868.048.868-1.434.867-.885.868-1.06 1.735 1.882.868-1.054 1.736.835.867-.187.868.857.868-1.945.867-2.422.868-.23.868-2.747.868-1.928.867-1.148.868-2.574.868-.43 1.735-3.909.868 2.65.867 1.587.868.561 1.736 4.378.867 4.665.868 2.247.868-1.425.867 1.168.868 1.641.868.189.867 1.119.868.88.868 1.558.868 1.983 1.735-.7.868-1.338.867-4.14.868-5.588.868-3.66.868-1.547.867-.54.868.092.868 4.241 2.603 14.32.867 1.8.868 1.546.868.135.868-1.266.867.838.868.08.868-.041.867.849.868-.02.868.968.867-2.65.868-3.293.868 2.397.868 3.175.867.455.868.928.868-.883.867.926.868-1.164.868-7.013 1.735-124.98.868-5.67 1.735-7.46.868-1.741.868-1.204 1.735 227.705.868 4.027.868 2.229 1.735 12.383.868 6.881 1.735-104.171.868 3.259.867 7.265.868 3.758.868-1.249.868-3.806.867-2.872 1.736-4.51.867-4.215.868-6.757.868-1.101.867 4.917.868 2.419.868 3.196.868 4.326.867 3.59.868 5.576.868 2.889.867-2.537.868-.834.868-2.05 1.735-15.42.868-3.662.868-1.51 1.735 5.42.868.632.867 3.194.868 3.64.868 1.112.868.375.867-2.256.868-5.225.868-2.188.867 1.497.868.06.868-2.597.867-4.325.868-3.124.868.386.868.255.867-2.576.868-1.048.868 1.988.867 3.162.868 2.254.868 1.782.868.673.867-.257.868-.61.868-2.008 1.735-2.926.868-2.385.867-.124.868.941.868-.581.868.362.867-.659.868-.041.868 1.243.867-1.553.868-.88.868 2.3.867.184.868.302.868-.064.868-1.757.867 1.039.868 1.457.868-2.35.867.101.868 2.676.868 2.313.867 3.835.868 2.956.868.273.868 2.301.867 2.619.868-.13.868.398.867-.86.868-2.182.868-.18.868.461.867-1.645.868-2.009.868-1.596.867-.283.868 1.537.868.91.867-.374.868 2.384.868 3.794.868 3.18.867 14.374.868 12.455.868 1.04.867 1.868.868-.323.868-.611.867-1.073 1.736-50.92.868-1.635.867-2.299.868-.287.868-.406.867.128 1.736 25.308.868 2.117.867 3.103.868-.109.868-1.401 2.603-6.046.867-3 .868-3.702.868-2.481.868-.842.867.193.868.403.868.928 1.735.776.868 1.205.867.676.868-.069.868-.301.868-.434 1.735.08.868-.555.867-.758.868-.29.868.078.868-.218 1.735-.603.868-.152 1.735.516 1.735-.09.868-.243.868-.027.868.182 1.735-.102 2.603.647.868-.028 1.735-.463 2.603-.487.868.057 1.735.423 1.736.377 1.735.284.868-.119 4.338-2.01.868-.555.868-.322 1.735-.008 1.736-.256.867.069.868-.064 1.735-.92 1.736-1.064 1.735-.276.868.056.868.29.867.064 1.736.439.867-.206.868-.37 1.736-1.124 2.603-.26.867.066.868.551.868.685.868.035.867-.206.868-.32.868-1.114.867-.632 1.736-.783 1.735 1.512.868-.449.868.989.867 1.614.868.062.868.33 1.735-.709.868 1.875.867 1.498.868-.482 1.736.49.867.037.868-.225 1.735.028 1.736-.03.868 1.764.867 1.187.868-.267.868-1.147.867-2.039.868-.238.868.688.867-3.096.868-1.21.868 1.61.868.166.867 1.585.868.224.868-.49.867 1.273.868.306.868.184.867 1.545.868.435 1.736 3.301 1.735 2.113 1.735-.84.868.398.868-1.463.868-2.01.867-.698.868-.292.868.152.867-.501.868-1.129.868.205.867.883.868.172.868-.324.868.15 2.603 3.066.867.487.868.348.868 1.106.867.329.868-1.265.868-1.036.868-.584.867-.939.868-1.19 1.735-3.503.868.067.868.38.867-1.114.868-.283 1.736 1.73.867 1.344.868.568.868-.667 1.735 1.422.868-.783.868-.995 1.735-2.668.868-.497.867-1.336.868-1.832.868-.599.867.005 2.604-1.095.867.65.868 1.429.868-.353.867-.684.868.383.868.931.867 1.523.868.48.868-1.049.868-.269.867-.51.868-2.318.868-4.328.867-5.99.868-4.739.868-1.673 1.735-.375.868.434.868 2.107 1.735 8.407.868 2.064 1.735 1.544.868-.133.868-1.644.867-4.51 1.736-15.08.867-8.516.868-11.673.868-18.37 1.735-44.27.868-14.36.868-2.53.867-1.738.868-12.216.868-16.383.867-11.147.868-5.118.868-7.776.868-17.627.867-20.192.868-4.611.868 28.15.867 35.615 2.603 78.813.868 34.753.868 51.516.868 36.2.867 30.584.868 43.009 1.735 73.229.868 30.112.868 10.009.867 1.61.868-1.33.868-14.279 1.735-37.132 1.736-42.834 2.603-52.673.868-4.298.867-.825.868-5.447.868-4.487.867-3.783.868 3.317.868 4.988 1.735-19.338.868-3.044.868-2.608.867-4.235 1.736-19.876.867-1.234.868-.664.868-2.47.867-3.611.868-2.488.868-.523 1.735-1.406h0" style="fill:none;stroke:#009e73;stroke-linecap:round;stroke-width:1.5" id="line2d_2"/><path clip-path="url(#p9d52ecd789)" d="m149.973 328.589 40.782-.102 3.47-.124 2.604-.622.867-.52.868-.69 1.736-4.546.867-.34.868-.972.868-2.137.867-1.617 1.736-1.775.867-3.098.868-5.88.868-5.078.868-2.035.867-3.438.868-7.508.868-4.444.867-2.363.868-5.225.868-1.22.867-.69.868-1.244.868 9.068 1.735 23.396.868 18.896.868 12.687.867 9.385.868 14.814.868 2.894.868-6.253.867-3.155 1.736-8.616.867-5.541.868-8.809.868-1.979.867 5.236.868 3.38.868-2.26.868 1.062.867 6.785.868 5.722.868 2.85.867.497.868-.51.868 2.94.867.826 1.736-9.543.868-2.59.867-1.402.868-1.108.868-1.764.867-1.267.868.294.868 1.154.868.135 1.735-1.142.868-1.583 1.735-1.741.868-1.267.867-.599 1.736-5.27.868.589 1.735-.792.868.011.867-1.424.868-.702.868.283.867-.554.868.984.868 1.832 1.735 2.34.868 2.873.868 2.012.867-.712 3.471-4.523.868-2.16.868-1.153.867.328.868-.294.868-.475.867-.25.868 1.177.868 1.911.868.294.867.464.868.655.868-.01.867.52.868-.329 1.735-9.487.868-1.13.868-.894.868-.69 1.735-.723.868 7.067.867 8.322.868.916.868.498.867.746.868.317.868.034 1.735-8.311.868-.09 1.735 1.062.868-.034.868.588.868 1.402.867.995.868.396.868-.215 2.603-2.08 1.735-2.205 1.736-1.776.867-.248 1.736-.25.867.566 1.736.147 3.47 2.951.868-.067.868.497.868.26.867-.746.868-.52 1.736-.192.867-.272.868-1.47.868-1.108.867.158 1.736-1.39.867.373.868 1.537.868 3.257.868 2.522.867 1.47.868 2.307.868.87.867-1.142 1.736-5.303 1.735-3.03.868-1.866.868-.882.867.531.868 1.142 1.735.973.868.972.868.712.867 1.03.868.486.868.113.868.35 1.735-1.097.868-.203.867-.328.868-.136 1.736-1.006 1.735-.113.868.079 1.735-1.572 1.735 1.606.868.18.868-.203.868-.362 1.735 1.357.868-.972.867-1.154.868-.599h.868l.867.204 1.736-.973.868.249.867.407.868.215.868-.17 1.735-.644.868-.373.868-.113.867.101.868.441.868.159.867-.679h.868l.868.17.867-.192.868.09.868-1.086.868-.814.867.656.868-.045.868.362.867.588.868-1.55.868-.124.867.86.868-.419.868.034.868-1.447.867-.95.868 2.035.868-1.153.867-2.578.868.407.868-.6.868-.904.867-3.585.868-5.314 1.735.214.868-2.34.868-.328.867.35.868 2.986.868 4.738.868 1.662.867 2.114.868.362.868-.147.867 3.856.868 2.895.868-1.787.867.803 1.736 4.693.868 1.572.867-3.732.868-2.996.868.339.867-4.467.868-5.45.868-1.12.868.555 1.735 8.333.868 6.287.867 7.701.868 5.688.868 2.284.867-.667 1.736-6.807.868-5.157.867-2.748.868.215.868.362.867 1.911.868.837.868-.43.867-.983.868-.679.868.226.868-.068.867-1.402 1.736 2.397.867.328.868-2.012.868-4.614 1.735-105.072.868-6.728.868-3.37.867-2.521 1.736-4.128 1.735 200.069.868 7.61.868 1.21.867 3.856 1.736 11.115.867-43.942.868-51.823.868-1.29.867 7.113.868 5.145.868-.361 1.735-4.705.868.08.868.802.867-3.742.868-6.536.868-.95.867 3.584.868 1.357.868 2.081 1.735 6.853.868 2.046.868-.237.867-1.923.868.374.868-.69 1.735-14.203.868.814 1.735 4.4.868 2.227.868-1.877.867 1.424.868 3.642.868-.419.868-.554.867-1.583.868-5.349.868-.463.867 2.34.868-2.532 1.735-9.85.868-2.25.868.34.868-.057.867-2.284.868 1.051.868 5.507.867 6.49.868 2.658.868 3.528.868 2.827.867 1.063.868.011.868-2.996.867-4.998.868-4.116.868-3.053.867-1.685 1.736-.69.868.543.867-.588.868 1.425.868 1.21.867-.464.868.667.868 2.375 1.735-.679.868-1.3.868-1.934.867.419.868-1.73.868-5.01.867 1.56.868 5.87.868 5.02.867 4.263.868 2.703.868 4.127.868 5.145.867 2.307.868-.113.868-.475.867-.633.868-.995.868-.441.868.407.867-2.352.868-2.963.868-.916 1.735.69.868-.577.867-1.085.868 2.035.868 2.906 1.735 1.674.868.893.868.724.867 1.176.868-.803.868-.373.867.588.868-2.93.868-2.498.868-13.66.867-16.849.868-2.747.868-1.142.867-1.81 1.736 1.798.868 25.567.867 32.17.868 5.191.868-1.278.867-.554.868-.712.868-.86.867-13.365.868-16.94.868-3.855.868.633.867.803.868.316.868-.17 1.735-1.763.868.034.867-.215.868-.633.868-.023.868.52.867.78.868.611.868-.068 1.735-1.413 1.736-1.018 1.735-1.436.868-.464.867.407.868.566.868.045 1.735-.34 1.736.623 1.735-.102.868.283.867.43.868.112 1.735-.938.868-.226 2.603-.939.868.057.868.588.867.361.868.08 3.47 1.617.869.124.867-.011.868.113 1.735-1.063.868-.656.868-1.086.868-.735.867-.588.868-.735.868-.056 1.735.283.868.497.867-.034.868-.543.868-.327.868-.453 2.603-2.013.867-.418 1.736 1.04.867.023.868.26.868.113.868.317.867.893 1.736.452 1.735 1.945.868.283.868-.69.867-1.345.868-.566.868-1.063.867-.486.868.158.868-.067.867.859.868 1.606.868-.17.868.226.867-.724.868-2.442 1.735 1.199.868-.803 1.735 2.77.868.464.868 1.685 1.735-.25.868.702.868.509 1.735 1.504.868-.034.868 1.232.867.25.868-1.37 1.735-4.364.868-.384.868.746.867-2.454.868-1.13.868 2.227 1.735 3.505h.868l.868-.848.867 1.9.868 1.21.868-1.086 1.735-1.888 1.736 1.176.867-.577.868-.147.868.272.867 1.029.868 1.3.868.317.868.644.867.306.868-.068.868.644.867.498.868-.125 1.735-1.571.868.294.868.09.868-.396 1.735-1.673.868.588.867.328.868-.125.868 1.142.867.894.868.079.868.791.868.34.867-.848.868-1.708.868-2.646.867-2.273 2.603-3.426.868.678.868 2.285.868 1.65.867 1.391.868 1.697.868.882.867.622.868-.227.868-1.289.868-.43.867-.576.868-1.617.868-.995 1.735-3.087.868-.961.867-1.923.868-1.526.868-.61.868-1.064.867.52.868 1.504.868.464 1.735 3.143.868.962.867 1.922.868 1.04.868-.565.868-.35.867-1.403 1.736-4.953.867-3.584.868-2.714 1.736-2.782.867-.056.868.124.868-.113.867 1.39 1.736 1.12.867 2.443.868-.532 1.736-4.636.867-6.287 1.736-13.999.867-9.883.868-12.914.868-18.25 1.735-51.236.868-16.962 1.735-15.355.868-18.229.868-24.809.867-9.985 1.736 10.155.868-2.59.867-8.695.868 10.765 1.735 98.456.868 24.968.868 18.002.867 8.48.868 29.955.868 47.176 1.735 47.956.868 42.834 1.735 75.231.868 27.84.868 5.28.867-3.754.868-10.007 3.471-70.402.868-15.978.867-8.006.868-4.365.868-12.02.868-2.092.867.362 1.736-19.483.867-11.964.868-9.114.868.068 1.735-21.135.868.159.868.396.867-2.432 1.736-14.666.867-.69.868-1.142.868-4.885.867-3.991.868.7.868 1.765 1.735-3.144h0" style="fill:none;stroke:#d55e00;stroke-linecap:round;stroke-width:1.5" id="line2d_3"/><path clip-path="url(#p9d52ecd789)" d="M149.973 328.589h48.591l1.736-2.304h.867l1.736-1.152.867-1.728.868-3.455.868-2.88.867-1.727.868-2.304.868-1.728.868-2.88.867-4.031.868-1.728.868 4.032.867 2.303.868-8.063.868-10.366.867-.576 1.736 17.854.868-2.304.867-4.608.868 17.854.868 27.069.867 8.638 1.736-8.063.868 4.608.867 9.215.868-6.911.868-14.974.867-4.032.868 2.304h.868l.867-2.88.868-5.183.868-1.152.868 1.152.867-.576.868.576 1.735 6.91.868 4.608.868 2.304.867-1.152.868 2.88.868 1.152.868-2.304h.867l.868-.576.868 1.152.867 2.304.868-5.184.868-7.487 1.735-8.063.868-3.455.868-2.88.867-1.728.868 4.608.868 8.639.867 5.183.868 2.304.868 1.727.868.576h.867l.868-2.303.868-4.032.867-2.304.868-1.151.868-2.304.867-1.728h.868l1.736-3.455h1.735l1.735 4.607h.868l1.735 6.911 1.736-1.152 1.735-3.455h.868l1.735-3.456 3.471 4.607h.868l.868-1.151 1.735-1.152 1.735-3.456.868-1.152h1.736l.867-.576h.868l.868 1.728.867 2.304.868 1.152h1.735l.868-.576h.868l.868-.576.867-2.88.868-1.727h.868l.867 3.455.868 4.032h.868l.868.575.867 3.456.868 2.304h.868l.867-1.152.868-2.304 1.735-3.455.868-2.304.868-1.152h.868l.867-1.728.868 1.152.868 4.032.867 1.727.868.576h1.735l.868.576.868-1.152.868-2.88.867-.575.868.576h1.735l2.604 1.728h.867l.868-1.152.868-.576h.867l1.736-2.304.867.576h1.736l.868.576h.867l.868 1.152h.868l.867-2.304.868-.576.868 1.152.867.576h.868l.868-1.152 1.735 2.304.868-.576h.868l.867-.576h.868l.868 1.152.867-1.728.868 1.152.868 3.455.868-.576h1.735l.868-1.151.867 2.303h.868l.868-4.031.868-.576h1.735l.868-.576.867-2.304h.868l.868 2.88.867 1.152h1.736l1.735 5.759h.868l1.735-1.152h1.736l.867-2.88.868-3.455.868-4.031.868-8.64.867-6.334.868-1.152h.868l.867 1.152.868-1.152.868 2.88.868 12.67.867 6.91.868-2.303.868-3.456.867-1.727.868 6.335.868 2.304.867-3.456.868 5.183.868 8.063.868 6.911.867 1.152.868-8.063 1.735-9.215.868-11.518.868-7.487.867-3.456.868-2.88.868 2.88 1.735 6.912.868 6.91.868 2.88h.867l.868-.576.868-4.031.868 1.728.867-4.032.868-10.366.868-1.152h.867l.868 5.759.868 2.88.867-13.823.868 2.304.868 10.367.868-5.76.867-2.88.868-.575.868 6.335.867 17.278.868 9.79.868 11.519.867 6.335.868-5.76.868-1.15.868-2.88.867-8.063.868-20.158.868-35.707.867-8.063.868 13.822.868 1.728.868-1.728.867 2.88.868 14.398.868 30.524.867 23.613.868 1.152.868-3.456.867 1.152h.868l.868 6.91.868-1.727.867-19.581 2.603-18.43.868-10.942.868-23.613.867 1.152.868 14.398h.868l1.735 11.518 1.736 31.676 1.735-20.157h1.735l.868-8.64.868-10.366.868-.576.867-5.759.868-12.67.868-5.76.867 8.063.868 19.582.868 8.063.868 1.727.867 13.247.868 19.581.868 11.519.867 6.335.868-3.456.868-6.335.867 4.032.868 3.455.868-2.88.868-5.759.867-30.524.868-14.974.868 14.974.867-5.183 1.736-30.524.867-2.88.868 35.708.868 28.22.868-21.31.867-13.821.868 12.67.868 18.43.867 5.759.868-27.069.868-33.403.868 17.277.867 25.917.868-1.728.868-10.942.867-6.911 1.736 36.859 1.735-23.613.868-.576.868 6.911.867 4.031.868-15.55.868-2.88.867 9.216.868-6.911.868-9.791.867-6.335.868 4.031.868 3.456.868-11.519.867-8.639 1.736 20.734.867-.576.868-4.032.868 4.032.868 13.822.867 5.76.868-12.095.868-4.032.867 8.063h.868l.868-6.335.867-11.518.868-4.032.868 13.822.868 7.487.867-5.183h.868l.868 4.607.867 6.911.868 2.88.868-8.639.867-10.366.868-1.152.868-5.184.868 2.88.867 6.335h.868l.868-1.152.867-2.88h.868l.868 10.367.867-.576.868-9.79.868-4.608 1.735 5.76v14.974l.868 2.88.868-5.76.867 2.304.868 9.214.868 7.487.868-2.303.867-10.367.868-4.031.868-1.728h.867l.868.576.868-2.304.867 2.304 2.604 15.55.867-5.76.868-9.214.868-1.152.867 1.152.868-3.456.868-5.76.867-3.455.868 4.032.868 6.335.868-1.152.867-4.031.868 5.759.868 7.487.867 1.152.868-3.456.868-4.031.868 4.031.867 4.608.868-2.88.868-3.455.867-.576.868 3.455.868 2.88.867-2.88.868-4.031.868-2.88.868-1.152h.867l1.736-4.607 1.735-2.304h4.339l.867.576.868 2.304.868 1.727h2.603l1.735-3.455 1.736-2.304h2.603l.867 3.456.868 4.031.868.576h3.47l.868-1.728.868-2.303.868-.576 1.735-4.608h3.471l.868-.576.867 4.032.868 4.607h3.47l.869.576.867-2.303.868-2.88h2.603l.868-.576.868-1.152.867.576.868 1.152h2.603l.868 1.152.867 1.728.868-3.456.868-4.031h.868l1.735-25.341.868-2.304.867-4.031.868 1.152.868 4.031h.867l1.736 40.89.868 1.153.867 6.335.868 7.487.868 1.727h.867l1.736-19.005.868-2.304 1.735-16.126.868-2.88h.867l.868 1.729.868 2.303.867 6.335.868 9.215.868 5.184.868 1.727h.867l.868 4.608.868 2.88 1.735-10.367.868-2.88.867-1.152h.868l1.736-15.55.867-2.88h.868l.868-.575.867-2.88h.868l.868 6.911.868 5.76.867 2.303.868 2.88.868 2.303.867 2.88h.868l.868-9.215.867-1.152.868 8.64 1.736-10.367.867.576h.868l.868 2.88.867-1.153.868-5.759.868 4.607.867 6.336h1.736l.868 7.487.867 5.183.868-1.152h.868l.867-2.304.868-1.151h.868l.868-5.184.867-3.455h1.736l.867-1.728.868-3.456h.868l.867 2.304.868-.576.868.576h.868l.867 5.76.868 9.214h.868l.867-6.911.868-2.88.868 2.304.867-1.728 1.736-10.366h.868l1.735 15.55.868-.576.867 2.303.868 2.88.868.576h.867l.868-6.911.868-9.79.868-3.456.867-.576 1.736-2.304h.867l.868 5.183.868 8.063.868-2.303.867-6.336.868-3.455.868-2.304h.867l.868-2.304.868-4.607 1.735 14.398.868 3.456.868 5.183h.867l1.736-8.639.867-6.335.868-3.456.868 2.88.867-.576h.868l.868 2.304.868 1.728.867 5.183.868-.576.868-13.246.867-6.911h.868l1.736 13.246.867-9.215.868-5.183.868 8.063.867 4.607h.868l1.735-12.67.868 2.88.868-3.456.868-4.032.867-21.309.868-30.524 1.735-9.214.868-19.006 1.735-19.581.868 34.555.868 55.865.868 8.063.867-5.76.868 5.76.868 9.214.867-8.063.868-59.32.868-88.116.868-50.105.867 8.638.868 23.037.868-10.942.867 3.455.868 36.284 1.735 130.734.868 15.55h.868l1.735 97.331 1.736 102.515.867-2.88.868 1.728.868 25.917.867 12.67.868-4.607.868-36.86.868-42.042.867 4.607.868 6.335.868-20.733.867-31.1.868-21.885.868 6.911.868 1.728.867-21.885.868-16.702.868-9.215.867 3.456.868 2.88.868-10.943.867-3.456 1.736-1.151.868 1.151.867-7.487.868-8.638.868-1.152.867.576.868 5.759.868 3.455.867-1.727.868-2.88 1.736-2.304.867-.576h0" style="fill:none;stroke:#0072b2;stroke-linecap:round;stroke-width:1.5" id="line2d_4"/><path clip-path="url(#p9d52ecd789)" d="M117 328.589h725.4" style="fill:none;stroke:red;stroke-dasharray:1.5,2.475;stroke-dashoffset:0;stroke-width:1.5" id="line2d_5"/><path d="M117 576.72V77.76" style="fill:none;stroke:#d3d3d3;stroke-linecap:square;stroke-linejoin:miter;stroke-width:1.25" id="patch_3"/><path d="M117 576.72h725.4" style="fill:none;stroke:#d3d3d3;stroke-linecap:square;stroke-linejoin:miter;stroke-width:1.25" id="patch_4"/><g id="matplotlib.axis_1"><g id="xtick_1"><g style="fill:#696969" transform="matrix(.16 0 0 -.16 120.286 598.378)" id="text_1"><defs><path d="M9.813 72.906h9.859V5.078q0-13.187-5-19.14-5-5.954-16.094-5.954h-3.75v8.297h3.078q6.531 0 9.219 3.672Q9.813-4.39 9.813 5.078z" id="DejaVuSans-74"/><path d="M34.281 27.484q-10.89 0-15.093-2.484-4.204-2.484-4.204-8.5 0-4.781 3.157-7.594 3.156-2.797 8.562-2.797 7.485 0 12 5.297 4.516 5.297 4.516 14.078v2zm17.922 3.72V0H43.22v8.297Q40.14 3.328 35.547.953q-4.594-2.375-11.234-2.375-8.391 0-13.36 4.719Q6 8.016 6 15.922q0 9.219 6.172 13.906 6.187 4.688 18.437 4.688h12.61v.89q0 6.203-4.078 9.594-4.078 3.39-11.453 3.39-4.688 0-9.141-1.124-4.438-1.125-8.531-3.375v8.312q4.921 1.906 9.562 2.844 4.64.953 9.031.953 11.875 0 17.735-6.156 5.86-6.14 5.86-18.64z" id="DejaVuSans-97"/><path d="M54.89 33.016V0h-8.984v32.719q0 7.765-3.031 11.61-3.031 3.858-9.078 3.858-7.281 0-11.484-4.64-4.204-4.625-4.204-12.64V0H9.08v54.688h9.03v-8.5q3.235 4.937 7.594 7.374Q30.078 56 35.797 56q9.422 0 14.25-5.828 4.844-5.828 4.844-17.156z" id="DejaVuSans-110"/></defs><use xlink:href="#DejaVuSans-74"/><use x="29.492" xlink:href="#DejaVuSans-97"/><use x="90.771" xlink:href="#DejaVuSans-110"/></g></g><g id="xtick_2"><g style="fill:#696969" transform="matrix(.16 0 0 -.16 197.74 598.378)" id="text_2"><defs><path d="M34.188 63.188 20.797 26.906h26.812zm-5.579 9.718h11.188L67.578 0h-10.25l-6.64 18.703h-32.86L11.188 0H.78z" id="DejaVuSans-65"/><path d="M18.11 8.203v-29H9.077v75.484h9.031v-8.296q2.844 4.875 7.157 7.234Q29.594 56 35.594 56q9.968 0 16.187-7.906 6.235-7.907 6.235-20.797T51.78 6.484q-6.218-7.906-16.187-7.906-6 0-10.328 2.375-4.313 2.375-7.157 7.25zm30.578 19.094q0 9.906-4.079 15.547-4.078 5.64-11.203 5.64-7.14 0-11.218-5.64-4.079-5.64-4.079-15.547 0-9.906 4.078-15.547 4.079-5.64 11.22-5.64 7.124 0 11.202 5.64t4.078 15.547z" id="DejaVuSans-112"/><path d="M41.11 46.297q-1.516.875-3.297 1.281Q36.03 48 33.89 48q-7.625 0-11.703-4.953-4.079-4.953-4.079-14.234V0H9.08v54.688h9.03v-8.5q2.844 4.984 7.375 7.39Q30.031 56 36.531 56q.922 0 2.047-.125 1.125-.11 2.484-.36z" id="DejaVuSans-114"/></defs><use xlink:href="#DejaVuSans-65"/><use x="68.408" xlink:href="#DejaVuSans-112"/><use x="131.885" xlink:href="#DejaVuSans-114"/></g></g><g id="xtick_3"><g style="fill:#696969" transform="matrix(.16 0 0 -.16 280.888 598.378)" id="text_3"><defs><path d="M8.5 21.578v33.11h8.984V21.922q0-7.766 3.016-11.656 3.031-3.875 9.094-3.875 7.265 0 11.484 4.64 4.234 4.64 4.234 12.656v31h8.985V0h-8.984v8.406Q42.047 3.422 37.718 1q-4.313-2.422-10.032-2.422-9.421 0-14.312 5.86Q8.5 10.296 8.5 21.578zM31.11 56z" id="DejaVuSans-117"/><path d="M9.422 75.984h8.984V0H9.422z" id="DejaVuSans-108"/></defs><use xlink:href="#DejaVuSans-74"/><use x="29.492" xlink:href="#DejaVuSans-117"/><use x="92.871" xlink:href="#DejaVuSans-108"/></g></g><g id="xtick_4"><g style="fill:#696969" transform="matrix(.16 0 0 -.16 356.537 598.378)" id="text_4"><defs><path d="M39.406 66.219q-10.75 0-17.078-8.016-6.312-8-6.312-21.828 0-13.766 6.312-21.781 6.328-8 17.078-8 10.735 0 17.016 8 6.281 8.015 6.281 21.781 0 13.828-6.281 21.828-6.281 8.016-17.016 8.016zm0 8q15.328 0 24.5-10.281 9.188-10.282 9.188-27.563 0-17.234-9.188-27.516-9.172-10.28-24.5-10.28-15.375 0-24.593 10.25-9.204 10.265-9.204 27.546t9.204 27.563q9.218 10.28 24.593 10.28z" id="DejaVuSans-79"/><path d="M48.781 52.594v-8.407q-3.812 2.11-7.64 3.157-3.828 1.047-7.735 1.047-8.75 0-13.593-5.547-4.829-5.532-4.829-15.547 0-10.016 4.829-15.563 4.843-5.53 13.593-5.53 3.907 0 7.735 1.046 3.828 1.047 7.64 3.156V2.094Q45.016.344 40.984-.531q-4.015-.89-8.562-.89-12.36 0-19.64 7.765-7.266 7.765-7.266 20.953 0 13.375 7.343 21.031Q20.22 56 33.016 56q4.14 0 8.093-.86 3.953-.843 7.672-2.546z" id="DejaVuSans-99"/><path d="M18.313 70.219V54.688h18.5v-6.985h-18.5V18.016q0-6.688 1.828-8.594 1.828-1.906 7.453-1.906h9.218V0h-9.218q-10.407 0-14.36 3.875-3.953 3.89-3.953 14.14v29.688H2.687v6.984h6.594V70.22z" id="DejaVuSans-116"/></defs><use xlink:href="#DejaVuSans-79"/><use x="78.711" xlink:href="#DejaVuSans-99"/><use x="133.691" xlink:href="#DejaVuSans-116"/></g></g><g id="xtick_5"><g style="fill:#696969" transform="matrix(.16 0 0 -.16 437.866 598.378)" id="text_5"><use xlink:href="#DejaVuSans-74"/><use x="29.492" xlink:href="#DejaVuSans-97"/><use x="90.771" xlink:href="#DejaVuSans-110"/></g></g><g id="xtick_6"><g style="fill:#696969" transform="matrix(.16 0 0 -.16 514.451 598.378)" id="text_6"><use xlink:href="#DejaVuSans-65"/><use x="68.408" xlink:href="#DejaVuSans-112"/><use x="131.885" xlink:href="#DejaVuSans-114"/></g></g><g id="xtick_7"><g style="fill:#696969" transform="matrix(.16 0 0 -.16 597.6 598.378)" id="text_7"><use xlink:href="#DejaVuSans-74"/><use x="29.492" xlink:href="#DejaVuSans-117"/><use x="92.871" xlink:href="#DejaVuSans-108"/></g></g><g id="xtick_8"><g style="fill:#696969" transform="matrix(.16 0 0 -.16 673.249 598.378)" id="text_8"><use xlink:href="#DejaVuSans-79"/><use x="78.711" xlink:href="#DejaVuSans-99"/><use x="133.691" xlink:href="#DejaVuSans-116"/></g></g><g id="xtick_9"><g style="fill:#696969" transform="matrix(.16 0 0 -.16 754.577 598.378)" id="text_9"><use xlink:href="#DejaVuSans-74"/><use x="29.492" xlink:href="#DejaVuSans-97"/><use x="90.771" xlink:href="#DejaVuSans-110"/></g></g></g><g id="matplotlib.axis_2"><g id="ytick_1"><g style="fill:#696969" transform="matrix(.16 0 0 -.16 73.733 541.274)" id="text_10"><defs><path d="M10.594 35.5h62.593v-8.297H10.594z" id="DejaVuSans-8722"/><path d="M19.188 8.297h34.421V0H7.33v8.297q5.609 5.812 15.296 15.594 9.703 9.797 12.188 12.64 4.734 5.313 6.609 9 1.89 3.688 1.89 7.25 0 5.813-4.078 9.469-4.078 3.672-10.625 3.672-4.64 0-9.797-1.61-5.14-1.609-11-4.89v9.969Q13.767 71.78 18.938 73q5.188 1.219 9.485 1.219 11.328 0 18.062-5.672 6.735-5.656 6.735-15.125 0-4.5-1.688-8.531-1.672-4.016-6.125-9.485-1.218-1.422-7.765-8.187-6.532-6.766-18.453-18.922z" id="DejaVuSans-50"/><path d="M31.781 66.406q-7.61 0-11.453-7.5Q16.5 51.422 16.5 36.375q0-14.984 3.828-22.484 3.844-7.5 11.453-7.5 7.672 0 11.5 7.5 3.844 7.5 3.844 22.484 0 15.047-3.844 22.531-3.828 7.5-11.5 7.5zm0 7.813q12.266 0 18.735-9.703 6.468-9.688 6.468-28.141 0-18.406-6.468-28.11-6.47-9.687-18.735-9.687-12.25 0-18.718 9.688-6.47 9.703-6.47 28.109 0 18.453 6.47 28.14Q19.53 74.22 31.78 74.22z" id="DejaVuSans-48"/></defs><use xlink:href="#DejaVuSans-8722"/><use x="83.789" xlink:href="#DejaVuSans-50"/><use x="147.412" xlink:href="#DejaVuSans-48"/></g></g><g id="ytick_2"><g style="fill:#696969" transform="matrix(.16 0 0 -.16 73.733 437.97)" id="text_11"><defs><path d="M12.406 8.297h16.11v55.625l-17.532-3.516v8.985l17.438 3.515h9.86V8.296H54.39V0H12.406z" id="DejaVuSans-49"/></defs><use xlink:href="#DejaVuSans-8722"/><use x="83.789" xlink:href="#DejaVuSans-49"/><use x="147.412" xlink:href="#DejaVuSans-48"/></g></g><g id="ytick_3"><use xlink:href="#DejaVuSans-48" style="fill:#696969" transform="matrix(.16 0 0 -.16 97.32 334.668)" id="text_12"/></g><g id="ytick_4"><g style="fill:#696969" transform="matrix(.16 0 0 -.16 87.14 231.364)" id="text_13"><use xlink:href="#DejaVuSans-49"/><use x="63.623" xlink:href="#DejaVuSans-48"/></g></g><g id="ytick_5"><g style="fill:#696969" transform="matrix(.16 0 0 -.16 87.14 128.061)" id="text_14"><use xlink:href="#DejaVuSans-50"/><use x="63.623" xlink:href="#DejaVuSans-48"/></g></g><g style="fill:#696969" transform="matrix(0 -.2 -.2 0 65.573 445.117)" id="text_15"><defs><path d="M64.406 67.281v-10.39q-4.984 4.64-10.625 6.922-5.64 2.296-11.984 2.296-12.5 0-19.14-7.64-6.641-7.64-6.641-22.094 0-14.406 6.64-22.047 6.64-7.64 19.14-7.64 6.345 0 11.985 2.296 5.64 2.297 10.625 6.938V5.609Q59.234 2.094 53.437.33q-5.78-1.75-12.218-1.75-16.563 0-26.094 10.124-9.516 10.14-9.516 27.672 0 17.578 9.516 27.703 9.531 10.14 26.094 10.14 6.531 0 12.312-1.734 5.797-1.734 10.875-5.203z" id="DejaVuSans-67"/><path d="M44.281 53.078v-8.5q-3.797 1.953-7.906 2.922-4.094.984-8.5.984-6.688 0-10.031-2.047-3.344-2.046-3.344-6.156 0-3.125 2.39-4.906 2.391-1.781 9.626-3.39l3.078-.688q9.562-2.047 13.593-5.781 4.032-3.735 4.032-10.422 0-7.625-6.032-12.078-6.03-4.438-16.578-4.438-4.39 0-9.156.86Q10.688.296 5.422 2v9.281q4.984-2.594 9.812-3.89 4.829-1.282 9.579-1.282 6.343 0 9.75 2.172 3.421 2.172 3.421 6.125 0 3.656-2.468 5.61-2.453 1.953-10.813 3.765l-3.125.735q-8.344 1.75-12.062 5.39-3.704 3.64-3.704 9.985 0 7.718 5.47 11.906Q16.75 56 26.811 56q4.97 0 9.36-.734 4.406-.72 8.11-2.188z" id="DejaVuSans-115"/><path d="M56.203 29.594v-4.39H14.891q.593-9.282 5.593-14.142 5-4.859 13.938-4.859 5.172 0 10.031 1.266 4.86 1.265 9.656 3.812v-8.5Q49.266.734 44.187-.344 39.11-1.422 33.892-1.422q-13.094 0-20.735 7.61-7.64 7.625-7.64 20.625 0 13.421 7.25 21.296Q20.016 56 32.328 56q11.031 0 17.453-7.11 6.422-7.093 6.422-19.296zm-8.984 2.64q-.094 7.36-4.125 11.75-4.032 4.407-10.672 4.407-7.516 0-12.031-4.25-4.516-4.25-5.203-11.97z" id="DejaVuSans-101"/><path d="M44.39 34.188q3.172-1.079 6.172-4.594 3-3.516 6.032-9.672L66.609 0H56l-9.313 18.703q-3.624 7.328-7.015 9.719-3.39 2.39-9.25 2.39h-10.75V0h-9.86v72.906h22.266q12.5 0 18.656-5.234 6.157-5.219 6.157-15.766 0-6.89-3.203-11.437-3.204-4.532-9.297-6.282zM19.673 64.797V38.922h12.406q7.125 0 10.766 3.297 3.64 3.297 3.64 9.687 0 6.39-3.64 9.64-3.64 3.25-10.766 3.25z" id="DejaVuSans-82"/><path d="M8.594 75.984h20.703V69H17.578V-6.203h11.719v-6.984H8.594z" id="DejaVuSans-91"/><path d="M25.39 72.906h8.297L8.297-9.28H0z" id="DejaVuSans-47"/><path d="M45.406 46.39v29.594h8.985V0h-8.985v8.203Q42.578 3.328 38.25.953q-4.313-2.375-10.375-2.375-9.906 0-16.14 7.906-6.22 7.922-6.22 20.813 0 12.89 6.22 20.797Q17.968 56 27.874 56q6.063 0 10.375-2.375 4.328-2.36 7.156-7.234zm-30.61-19.093q0-9.906 4.079-15.547 4.078-5.64 11.203-5.64 7.125 0 11.219 5.64 4.11 5.64 4.11 15.547 0 9.906-4.11 15.547-4.094 5.64-11.219 5.64-7.125 0-11.203-5.64-4.078-5.64-4.078-15.547z" id="DejaVuSans-100"/><path d="M32.172-5.078q-3.797-9.766-7.422-12.735-3.61-2.984-9.656-2.984H7.906v7.516h5.282q3.703 0 5.75 1.765Q21-9.766 23.483-3.219l1.61 4.094-22.11 53.813H12.5l17.094-42.766 17.093 42.766h9.516z" id="DejaVuSans-121"/><path d="M30.422 75.984v-89.171H9.719v6.984H21.39V69H9.719v6.984z" id="DejaVuSans-93"/></defs><use xlink:href="#DejaVuSans-67"/><use x="69.824" xlink:href="#DejaVuSans-97"/><use x="131.104" xlink:href="#DejaVuSans-115"/><use x="183.203" xlink:href="#DejaVuSans-101"/><use x="244.727" xlink:href="#DejaVuSans-32"/><use x="276.514" xlink:href="#DejaVuSans-82"/><use x="343.746" xlink:href="#DejaVuSans-97"/><use x="405.025" xlink:href="#DejaVuSans-116"/><use x="444.234" xlink:href="#DejaVuSans-101"/><use x="505.758" xlink:href="#DejaVuSans-32"/><use x="537.545" xlink:href="#DejaVuSans-91"/><use x="576.559" xlink:href="#DejaVuSans-32"/><use x="608.346" xlink:href="#DejaVuSans-99"/><use x="663.326" xlink:href="#DejaVuSans-97"/><use x="724.605" xlink:href="#DejaVuSans-115"/><use x="776.705" xlink:href="#DejaVuSans-101"/><use x="838.229" xlink:href="#DejaVuSans-115"/><use x="890.328" xlink:href="#DejaVuSans-47"/><use x="924.02" xlink:href="#DejaVuSans-100"/><use x="987.496" xlink:href="#DejaVuSans-97"/><use x="1048.775" xlink:href="#DejaVuSans-121"/><use x="1107.955" xlink:href="#DejaVuSans-32"/><use x="1139.742" xlink:href="#DejaVuSans-93"/></g></g><g style="fill:#696969" transform="matrix(.24 0 0 -.24 245.86 71.76)" id="text_16"><defs><path d="M9.813 72.906h13.28l32.329-60.984v60.984h9.562V0h-13.28L19.39 60.984V0H9.813z" id="DejaVuSans-78"/><path d="M4.203 54.688h8.985l11.234-42.672 11.172 42.672h10.593l11.235-42.672 11.187 42.672h8.985L63.28 0H52.688L40.922 44.828 29.109 0H18.5z" id="DejaVuSans-119"/><path d="M8.203 72.906h46.875v-4.203L28.61 0H18.312L43.22 64.594H8.203z" id="DejaVuSans-55"/><path d="M2.984 54.688H12.5L29.594 8.797l17.093 45.89h9.516L35.687 0H23.485z" id="DejaVuSans-118"/><path d="M45.406 27.984q0 9.766-4.031 15.125-4.016 5.375-11.297 5.375-7.219 0-11.25-5.375-4.031-5.359-4.031-15.125 0-9.718 4.031-15.093t11.25-5.375q7.281 0 11.297 5.375 4.031 5.375 4.031 15.093zm8.985-21.203q0-13.953-6.203-20.765Q42-20.797 29.203-20.797q-4.734 0-8.937.703-4.203.703-8.157 2.172v8.735q3.954-2.141 7.813-3.157 3.86-1.031 7.86-1.031 8.843 0 13.234 4.61 4.39 4.609 4.39 13.937v4.453q-2.781-4.844-7.125-7.234Q33.938 0 27.875 0 17.828 0 11.672 7.656q-6.156 7.672-6.156 20.328 0 12.688 6.156 20.344Q17.828 56 27.875 56q6.063 0 10.406-2.39 4.344-2.391 7.125-7.22v8.297h8.985z" id="DejaVuSans-103"/><path d="M30.61 48.39q-7.22 0-11.422-5.64-4.204-5.64-4.204-15.453 0-9.813 4.172-15.453 4.188-5.64 11.453-5.64 7.188 0 11.375 5.655 4.203 5.672 4.203 15.438 0 9.719-4.203 15.406-4.187 5.688-11.375 5.688zm0 7.61q11.718 0 18.406-7.625 6.703-7.61 6.703-21.078 0-13.422-6.703-21.078-6.688-7.64-18.407-7.64-11.765 0-18.437 7.64-6.656 7.656-6.656 21.078 0 13.469 6.656 21.078Q18.844 56 30.609 56z" id="DejaVuSans-111"/><path d="M37.11 75.984V68.5h-8.594q-4.828 0-6.72-1.953-1.874-1.953-1.874-7.031v-4.828h14.797v-6.985H19.922V0H10.89v47.703H2.297v6.984h8.594V58.5q0 9.125 4.25 13.297 4.25 4.187 13.468 4.187z" id="DejaVuSans-102"/><path d="M9.813 72.906h9.859V42.094L52.39 72.906h12.703L28.906 38.922 67.672 0H54.688L19.672 35.11V0h-9.86z" id="DejaVuSans-75"/></defs><use xlink:href="#DejaVuSans-78"/><use x="74.805" xlink:href="#DejaVuSans-101"/><use x="136.328" xlink:href="#DejaVuSans-119"/><use x="218.115" xlink:href="#DejaVuSans-32"/><use x="249.902" xlink:href="#DejaVuSans-67"/><use x="319.727" xlink:href="#DejaVuSans-97"/><use x="381.006" xlink:href="#DejaVuSans-115"/><use x="433.105" xlink:href="#DejaVuSans-101"/><use x="494.629" xlink:href="#DejaVuSans-115"/><use x="546.729" xlink:href="#DejaVuSans-32"/><use x="578.516" xlink:href="#DejaVuSans-55"/><use x="642.139" xlink:href="#DejaVuSans-100"/><use x="705.615" xlink:href="#DejaVuSans-32"/><use x="737.402" xlink:href="#DejaVuSans-97"/><use x="798.682" xlink:href="#DejaVuSans-118"/><use x="857.861" xlink:href="#DejaVuSans-103"/><use x="921.338" xlink:href="#DejaVuSans-32"/><use x="953.125" xlink:href="#DejaVuSans-115"/><use x="1005.225" xlink:href="#DejaVuSans-108"/><use x="1033.008" xlink:href="#DejaVuSans-111"/><use x="1094.189" xlink:href="#DejaVuSans-112"/><use x="1157.666" xlink:href="#DejaVuSans-101"/><use x="1219.189" xlink:href="#DejaVuSans-32"/><use x="1250.977" xlink:href="#DejaVuSans-111"/><use x="1312.158" xlink:href="#DejaVuSans-102"/><use x="1347.363" xlink:href="#DejaVuSans-32"/><use x="1379.15" xlink:href="#DejaVuSans-55"/><use x="1442.773" xlink:href="#DejaVuSans-32"/><use x="1474.561" xlink:href="#DejaVuSans-97"/><use x="1535.84" xlink:href="#DejaVuSans-118"/><use x="1595.02" xlink:href="#DejaVuSans-103"/><use x="1658.496" xlink:href="#DejaVuSans-47"/><use x="1692.188" xlink:href="#DejaVuSans-49"/><use x="1755.811" xlink:href="#DejaVuSans-48"/><use x="1819.434" xlink:href="#DejaVuSans-48"/><use x="1883.057" xlink:href="#DejaVuSans-75"/></g><g id="legend_1"><path d="M128.2 184.5h136.45q3.2 0 3.2-3.2V88.96q0-3.2-3.2-3.2H128.2q-3.2 0-3.2 3.2v92.34q0 3.2 3.2 3.2z" style="fill:none;opacity:.8;stroke:#ccc;stroke-linejoin:miter" id="patch_5"/><path d="M131.4 98.718h32" style="fill:none;stroke:#000;stroke-linecap:round;stroke-width:1.5" id="line2d_6"/><g style="fill:#696969" transform="matrix(.16 0 0 -.16 176.2 104.317)" id="text_17"><defs><path d="M8.688 72.906h9.921V28.61q0-11.718 4.235-16.875 4.25-5.14 13.781-5.14 9.469 0 13.719 5.14 4.25 5.157 4.25 16.875v44.297H64.5V27.391q0-14.25-7.063-21.532-7.046-7.28-20.812-7.28-13.828 0-20.89 7.28-7.047 7.282-7.047 21.532z" id="DejaVuSans-85"/><path d="M53.516 70.516V60.89q-5.61 2.687-10.594 4-4.984 1.328-9.625 1.328-8.047 0-12.422-3.125t-4.375-8.89q0-4.845 2.906-7.313 2.907-2.453 11.016-3.97l5.953-1.218q11.031-2.11 16.281-7.406 5.25-5.297 5.25-14.172 0-10.61-7.11-16.078-7.093-5.469-20.812-5.469-5.172 0-11.015 1.172Q13.14.922 6.89 3.219v10.156q6-3.36 11.765-5.078 5.766-1.703 11.328-1.703 8.438 0 13.032 3.312 4.593 3.328 4.593 9.485 0 5.359-3.297 8.39-3.296 3.032-10.812 4.547L27.484 33.5q-11.03 2.188-15.968 6.875-4.922 4.688-4.922 13.047 0 9.672 6.812 15.234 6.813 5.563 18.766 5.563 5.14 0 10.453-.938 5.328-.922 10.89-2.765z" id="DejaVuSans-83"/></defs><use xlink:href="#DejaVuSans-85"/><use x="73.193" xlink:href="#DejaVuSans-83"/></g><path d="M131.4 122.203h32" style="fill:none;stroke:#009e73;stroke-linecap:round;stroke-width:1.5" id="line2d_8"/><g style="fill:#696969" transform="matrix(.16 0 0 -.16 176.2 127.802)" id="text_18"><use xlink:href="#DejaVuSans-78"/><use x="74.805" xlink:href="#DejaVuSans-74"/></g><path d="M131.4 145.688h32" style="fill:none;stroke:#d55e00;stroke-linecap:round;stroke-width:1.5" id="line2d_10"/><g style="fill:#696969" transform="matrix(.16 0 0 -.16 176.2 151.287)" id="text_19"><defs><path d="M19.672 34.813V8.108H35.5q7.953 0 11.781 3.297 3.844 3.297 3.844 10.078 0 6.844-3.844 10.078-3.828 3.25-11.781 3.25zm0 29.984V42.828h14.61q7.218 0 10.75 2.703 3.546 2.719 3.546 8.282 0 5.515-3.547 8.25-3.531 2.734-10.75 2.734zm-9.86 8.11h25.204q11.28 0 17.375-4.688Q58.5 63.53 58.5 54.89q0-6.703-3.125-10.657-3.125-3.953-9.188-4.922 7.282-1.562 11.313-6.53 4.031-4.954 4.031-12.376 0-9.765-6.64-15.093Q48.25 0 35.984 0H9.812z" id="DejaVuSans-66"/></defs><use xlink:href="#DejaVuSans-66"/><use x="68.604" xlink:href="#DejaVuSans-101"/><use x="130.127" xlink:href="#DejaVuSans-114"/><use x="169.49" xlink:href="#DejaVuSans-103"/><use x="232.967" xlink:href="#DejaVuSans-101"/><use x="294.49" xlink:href="#DejaVuSans-110"/></g><path d="M131.4 169.173h32" style="fill:none;stroke:#0072b2;stroke-linecap:round;stroke-width:1.5" id="line2d_12"/><g style="fill:#696969" transform="matrix(.16 0 0 -.16 176.2 174.773)" id="text_20"><defs><path d="M54.89 33.016V0h-8.984v32.719q0 7.765-3.031 11.61-3.031 3.858-9.078 3.858-7.281 0-11.484-4.64-4.204-4.625-4.204-12.64V0H9.08v75.984h9.03V46.188q3.235 4.937 7.594 7.374Q30.078 56 35.797 56q9.422 0 14.25-5.828 4.844-5.828 4.844-17.156z" id="DejaVuSans-104"/></defs><use xlink:href="#DejaVuSans-82"/><use x="64.982" xlink:href="#DejaVuSans-117"/><use x="128.361" xlink:href="#DejaVuSans-116"/><use x="167.57" xlink:href="#DejaVuSans-104"/><use x="230.949" xlink:href="#DejaVuSans-101"/><use x="292.473" xlink:href="#DejaVuSans-114"/><use x="333.586" xlink:href="#DejaVuSans-102"/><use x="368.791" xlink:href="#DejaVuSans-111"/><use x="429.973" xlink:href="#DejaVuSans-114"/><use x="469.336" xlink:href="#DejaVuSans-100"/></g></g></g></g><defs><clipPath id="p9d52ecd789"><path d="M117 77.76h725.4v498.96H117z"/></clipPath></defs></svg>