<svg height="864" viewBox="0 0 936 648" width="1248" xmlns="http://www.w3.org/2000/svg" xmlns:xlink="http://www.w3.org/1999/xlink"><defs><style>*{stroke-linecap:butt;stroke-linejoin:round}</style></defs><g id="figure_1"><path d="M0 648h936V0H0z" fill="#fff" id="patch_1"/><g id="axes_1"><path d="M117 576.72h725.4V77.76H117z" fill="none" id="patch_2"/><path clip-path="url(#pf9d3ad0e21)" d="M149.973 365.414l73.703-.071 11.638-.27 5.819-.463 3.879-.555 1.94-.338 1.939-.665 1.94-.829 1.94-1.139 1.939-1.268 1.94-1.702 1.939-2.008 1.94-1.772 1.939-1.575 1.94-2.306 1.94-1.964 1.939-1.736 1.94-.614 1.939-.139 1.94-1.331 1.939-1.097 1.94.69 1.94.116 1.939-.124 1.94 1.049 1.939.743 3.879 4.378 1.94.837 1.94 2.754 1.939 3.784 1.94.97 1.939 2.78 1.94 2.528 1.939 1.453 1.94 2.655 1.94.807 1.939.396 1.94.76 1.939-1.459 1.94-1.194 1.939-.088 3.88-1.948 1.939-2.793 1.94-.115 1.939 1.333 1.94.255 3.879 1.139 1.94.912 1.939 3.604 1.94.323 1.939-.85 1.94.503 1.939-.474 1.94.213 1.94 1.058 1.939-.687 1.94.794 1.939.986 1.94-.723 1.939.652 1.94-.568 1.94-.976 1.939-.569 1.94-.996 1.939-1.657 1.94.439 1.939-.833 5.819-.329 1.94.147 1.939 1.158 3.879 1.013 1.94 1.011 1.94-.203 1.939-.577 3.879-1.888 1.94-1.784 1.939-.77 1.94-.425 1.94.001 1.939.487 3.879 2.476 1.94 1.54 1.939.07 1.94-.976 1.94-.14 1.939-.902 3.879-2.425 1.94-2.266 1.939-.603 1.94-.84 1.94-1.954 1.939-1.001 1.94-1.28 1.939-1.752 1.94-1.125 1.939-3.005 1.94-1.91 1.94-1.43 1.939-1.041 1.94-1.233 1.939-1.016 1.94-.748 1.939.761 1.94-.331 1.94.962 1.939-.216 1.94 2.224 1.939 2.76 1.94 2.387 1.939.102 1.94 2.078 1.94-.785 1.939.972 1.94-3.138 1.939-3.712 1.94-.914 1.939 1.297 1.94-1.451 1.94.862 1.939 1.444 1.94 3.346 1.939 4.234 1.94.855 1.939 1.596 3.88 5.308 1.939.514 1.94 1.623 1.939.343 1.94 2.181 1.939 1.343 1.94.82 1.94 1.527 1.939 1.066 1.94.93 1.939 2.468 1.94.683 1.939 1.551 1.94 3.167 1.94-.138 1.939.732 1.94-1.204 3.878-5.35 1.94-3.748 1.94-3.215 1.94-.74 1.939-2.449 1.94 1.437 1.939.561 1.94 4.67 1.939 3.666 1.94 1.404 1.94 1.722 1.939 3.179 1.94-.961 1.939-.116 1.94-2.918 1.939-2.598 1.94-2.003 1.94-2.634 1.939-1.978 1.94-1.363 1.939-.066 1.94-2.182 1.939 3.248 1.94-.125 1.94-1.4 1.939-.762 1.94 1.7 1.939.162 1.94 6.369 1.939-3.465 1.94 2 1.94 3.073 1.939.954 1.94-1.842 1.939-2.256 1.94-8.121 1.939-2.391 1.94-3.331 1.94-2.386 1.939-1.61 1.94.13 1.939-.037 1.94-.454 1.94 2.665 1.939 1.485 1.94-1.324 3.878.858 1.94 2.372 1.94 6.637 1.94-1.607 1.939-.57 1.94 3.481 1.939-.55 1.94-.912 1.939-1.58 1.94-3.559 1.94-.239 1.939-1.83 1.94-3.38 1.939-.719 1.94-1.35 1.939-.72 1.94-1.55 1.94.098 1.939.4 1.94-1.01 3.878 3.538 1.94-2.296 1.94-1.33 1.94.425 1.939-.437 1.94-.641 1.939-6.518 1.94-3.853 1.939 2.225 1.94.507 1.94-3.43 1.939-1.53 1.94-.24 1.939 4.617 1.94-15.246 1.939-3.591 1.94-1.518 1.94-1.805 1.939-3.307 1.94-3.925 1.939-8.243 1.94 26.876 1.939-3.65 1.94-6.42 1.94-4.6 1.939-2.324 1.94-3.567 1.939 1.27 1.94-16.144 1.939.752 1.94 4.303 1.94 6.188 1.939 2.092 1.94 5.602 1.939 4.788 3.879 13.579 1.94 5.02 1.94-.31 1.939 22.016 1.94 5.342 1.939 11.983 1.94 6.084 1.939 2.474 1.94-1.98 1.94 1.52 1.939-35.767 1.94-7.696 1.939-24.324 1.94-15.547 1.939-9.403 1.94-5.78 1.94.255 1.939 19.941 1.94 6.61 1.939 14.45 1.94 10.104 1.939 5.215 1.94 15.586 1.94-1.116 1.939-3.98 1.94.299 1.939 7.379 1.94-1.406 1.939 6.463 1.94-6.381 1.94 7.085 1.939 14.46 1.94 29.631 1.939-2.09 1.94 13.284 1.939.432 1.94-1.28 1.94-3.921 1.939-13.613 1.94-40.515h0" fill="none" stroke="#000" stroke-linecap="round" stroke-width="1.5" id="line2d_1"/><path clip-path="url(#pf9d3ad0e21)" d="M149.973 365.414l81.462-.102 5.818-.157 1.94-.185 1.94.056 1.94-.408 3.878-1.397 1.94-1.314 1.94-2.814 1.94-1 1.939-4.071 1.94-4.563 1.939-7.172 1.94-6.08 1.939-3.85 1.94-17.122 1.94-15.483 1.939-13.188 1.94-10.513 1.939-13.605 1.94-4.507 1.939-20.962 1.94 12.013 1.94-5.136 1.939-.63 1.94 5.146 1.939 18.37 1.94-.342 1.939 31.188 1.94 5.609 1.94 28.69 1.939 24.025 1.94 7.413 1.939 10.976 1.94 3.257 1.939 2.564 1.94-4.09 1.94-3.082 1.939-.519 1.94 1.259 1.939-15.011 1.94 14.557 1.939-19.314 1.94 7.959 1.94 4.923 1.939-9.106 1.94 5.071 1.939 19.676 1.94 2.35 1.939 21.675 1.94 14.558 1.94-11.79 1.939 10.864 1.94 1.13 1.939-6.756 1.94-5.266 1.939.379 1.94-10.115 1.94 9.717 1.939.889 1.94 10.106 1.939-4.748 1.94 10.94 1.939-5.84 1.94-.39 1.94-.934 1.939-4.155 1.94-12.753 1.939-3.74 1.94-15.75 1.939-9.71 1.94-4.904 1.94-6.145 1.939 3.257 1.94-.064 1.939 9.8 1.94 4.424 1.939 10.097 1.94-1.712 1.94 2.443 1.939-10.902 1.94.167 1.939-2.795 1.94-2.379 1.939-1.675 1.94 7.765 1.94.046 1.939 5.423 1.94 3.267 1.939-3.007 1.94 2.619 1.939-3.406 1.94-6.784 1.94 2.175 1.939-.842 1.94-5.285 1.939-.268 1.94-3.258 1.939 2.777 1.94.685 1.94-4.618 1.939-.12 1.94-.25 1.939-1.5 1.94.26 1.939-1.426 3.88.703 1.939-.5 1.94.288 1.939 2.165 1.94-.74 3.879-4.128 1.94.01 3.878-1.019 1.94-2.795 3.879 3.767 1.94 3.249 1.94-.037 1.939-.352 1.94.833 1.939.962 1.94-2.35 1.939-2.795 1.94-2.305 1.94 3.147 1.939 1 1.94 3.146 1.939.546 1.94 2.092 1.939 1.628 1.94.028 1.94-6.904 1.939-2.943 1.94-8.385 1.939-2.896 1.94-2.684 1.939-.519 1.94.528 1.94 1.629 1.939 3.646 1.94 6.664 1.939 4.201 1.94 2.934 1.939 1.814 1.94-1.925 1.94 5.201 1.939-1.323 1.94-1.916 1.939-1.657 3.879-4.025 1.94-1.037 1.94-4.998 1.939.824 1.94 3.276 1.939-.555 1.94 1.86 1.939 2.221 1.94 7.756 1.94 4.535 1.939-2.138 1.94-5.331 1.939 1.305 3.879-1.61 1.94-7.062 1.94-3.22 3.878 3.914 1.94-1.952 3.879-1.12 1.94 1.258 1.94-.212 1.939-.426 1.94.12 1.939 1.305 1.94.75 1.939.018 1.94.232 1.94.61 1.939-1.37 1.94.315 1.939-.175 1.94-1.962 1.939-.435 1.94-.917 1.94.111 1.939 1.037 1.94-1.573 1.939-.519 1.94 1.564 1.94.417 1.939 1.388 1.94-.444 1.939-2.564 1.94-.823 1.939-1.01 1.94-.37 1.94-2.628 1.939-.509 1.94-1.212 1.939.851 1.94 2.934 1.939 1.99 1.94-1.323 1.94 4.7 1.939-5.867 1.94.62 1.939 2.592 1.94-1.823 1.939-.056 1.94-1.721 1.94-5.868 1.939 9.357 1.94 1.666 1.939-1.416 1.94-3.693 1.939-7.08 3.88 6.45 1.939-4.793 1.94-2.684 1.939-8.376 3.879 12.67 1.94-6.099 1.94-5.034 1.939-1.824 1.94-6.44 1.939 14.076 1.94-7.034 1.939-1.185 1.94 4.424 1.94-1.203 1.939-.222 1.94 6.904 1.939-22.073 1.94 3.184 1.939-4.979 1.94-16.362 1.94 1.23 1.939-10.337 1.94-9.727 1.939 6.368 1.94-20.87 1.939 4.896 1.94 15.733 1.94-3.193 1.939 7.756 1.94 9.319 1.939 7.728 1.94 28.643 1.939-11.115h1.94l1.94 9.06 1.939 3.702 1.94-2.22 1.939 10.948 1.94-4.082 1.939 16.224 1.94-.76 1.94-2.359 1.939-.268 1.94-10.171 3.878-43.58 1.94-7.071 1.94-4.989 1.94 1.102 1.939-.065 1.94 33.14 1.939 5.61 1.94 37.638 1.939-7.977 1.94 22.026 1.94-10.134 1.939 11.032 1.94-20.907 1.939 27.44 1.94-26.81 1.939 26.487 1.94-19.593 1.94 19.333 1.939-12.16 1.94-8.496 1.939-17.186 1.94 35.871 1.939-11.106 1.94 14.095 1.94-6.469 1.939.528 1.94 6.691h0" fill="none" stroke="#009e73" stroke-linecap="round" stroke-width="1.5" id="line2d_2"/><path clip-path="url(#pf9d3ad0e21)" d="M149.973 365.414l71.764-.088 17.456-.882 1.94-1.234 1.94.088 1.939-2.38 1.94-1.676 1.939-3.704 1.94-14.197 1.94-3.35 1.939.705 3.879-16.666 1.94-4.232 1.939-2.117 1.94-5.378 1.94-18.783 1.939-27.07 1.94-12.522 1.939-3.35 1.94-23.456 1.939-35.095 1.94.44 1.94-18.87 1.939-21.868 1.94 12.345 1.939-17.724 1.94 8.024 1.939 62.695 1.94 31.216 1.94 57.316 1.939 90.03 1.94 8.907 1.939 64.282 1.94 51.232 1.939-28.658 1.94-20.105 1.94-4.497 1.939-28.747 1.94-5.202 1.939-38.005 1.94-30.686 1.939 15.255 1.94 25.571 1.94.794 1.939-18.43 3.879 52.908 1.94 18.43 1.939 3.79 1.94.09 1.94-4.057 1.939 26.983 1.94-20.546 1.939-16.842 1.94-20.193h1.939l1.94-10.934 1.94 2.292 1.939-16.048 1.94 6.172 1.939-3.88 1.94 12.875 1.939-11.816 1.94 7.407 1.94-11.904 1.939-.441 1.94-6.702 1.939.265 1.94-10.141 1.939 5.467 1.94-25.924 1.94 5.29 1.939-.705 1.94-2.734 3.878.088 1.94-11.198 1.94 5.731 1.94-3.527 1.939-.793 1.94 8.465 1.939 5.82 1.94 2.645 1.939 7.142 1.94 15.255 1.94.441 1.939-5.996 1.94-2.998 1.939-5.555 1.94-3.087 1.939-5.996 1.94-10.846 1.94 1.852 1.939.706 1.94-2.999 1.939-.705 1.94-1.234 1.939 10.405 1.94 4.497 1.94-2.205 1.939 5.82 1.94-.705 1.939.617 1.94 3.439 1.939-5.996 1.94-30.246 1.94-7.495 1.939-1.322 1.94-5.644 1.939.265 1.94-3.263 1.939.617 1.94 54.495 1.94 10.405 1.939-3.263 1.94 7.143 1.939-1.323 1.94 3.792 1.939-3.527 1.94-29.011 1.94-3.263 1.939 2.557 1.94 2.028 1.939 1.676 1.94-1.94 1.939 6.525 1.94 4.409 1.94 3.35 1.939-.264 1.94-1.41 1.939-3.88 1.94-.618 1.939-5.82 1.94-3.35 1.94-4.674 1.939-2.116 1.94-4.938 1.939 2.998 1.94-3.615 1.939 2.292 1.94 2.117 1.94-1.588 1.939 2.205 1.94 3.527 1.939 2.028 1.94 4.145 1.939 1.41 1.94-1.94 1.94 5.82 1.939-3.791 3.879-4.057 1.94 1.235 1.939-1.94 1.94-.176 1.94-11.287 1.939 2.645 1.94-1.41 1.939-4.498 1.94-.44 1.939 3.35 1.94 8.641 1.94 16.754 1.939 2.91 1.94 8.554 1.939 9.435 1.94-2.646 1.939-6.26 1.94-13.315 1.94-8.465 1.939-3.528 1.94-8.112 1.939-6.437 1.94-.44 3.879 8.905 1.94-.793 1.939 4.85 3.879 5.555 1.94 5.202 1.939-1.41 1.94 2.292 1.94.44 1.939-4.408 1.94-.176 1.939-1.411 1.94-1.147 1.939.089 1.94-4.057 1.94.177 1.939-.794 1.94.53 1.939.087 1.94-6.525 1.94.706 1.939 5.643 1.94.529 1.939.882 1.94-2.47 1.939-.352 1.94 6.173 1.94-1.411 1.939-6.173 1.94-2.821 1.939-1.852 1.94 1.852 1.939-.265 1.94-3.439 1.94-.44 1.939 2.38 3.879 1.675 1.94-2.204 1.939-.088 1.94-2.646 1.94-.264 1.939-.617 1.94 1.41 1.939 2.029 1.94-.794 1.939-4.497 1.94 4.497 1.94-3.175 1.939 1.676 1.94-.97 1.939-7.495 1.94 1.146 1.939 3.968 1.94-4.32 1.94 7.142 1.939-2.557 1.94-9.524 1.939 8.554 1.94-1.852 1.939-1.411 1.94 1.675 1.94-12.962 1.939 5.555 1.94 10.317 1.939-19.31 1.94-.794 1.939 3.968 1.94-8.642 1.94 1.587 1.939-29.54 1.94-11.904 1.939 13.05 1.94-12.52 1.939-5.732 1.94 3.174 1.94-.44 1.939 23.72 1.94 13.226 1.939-.264 1.94 16.754 1.939-13.933 1.94 12.786 1.94 17.283 1.939 5.291 1.94-19.223 1.939 25.484 1.94-8.289 1.939 27.688 1.94-15.431 1.94-13.668 1.939-9.7 1.94 12.345 1.939-47.175 1.94 4.673 1.939-13.403 1.94 17.724 1.94 16.578 1.939 14.108 1.94 34.919 1.939 25.131 1.94 19.223 1.939-1.41 1.94-3.793 1.94-23.808 1.939-1.675 1.94-38.534 1.939 17.106 1.94-15.431 1.939 18.253 1.94-3.35 1.94 9.875 1.939-13.227 1.94 5.556 1.939-10.846 1.94 12.61 1.939-13.14 1.94 2.205 1.94 7.495 1.939 1.5 1.94 1.057h0" fill="none" stroke="#d55e00" stroke-linecap="round" stroke-width="1.5" id="line2d_3"/><path clip-path="url(#pf9d3ad0e21)" d="M149.973 365.414h98.918l1.94-8.982h3.879l1.94-4.491h1.939l3.879-26.947 1.94-8.982 1.94-4.49 1.939-13.474h1.94l1.939-22.456 1.94-8.982 1.939-4.49 1.94 35.928 1.94-17.964 1.939-44.911 1.94-35.929 1.939 31.438 3.879 71.857 1.94-53.893 1.94 17.964 1.939 121.26 1.94 89.821 1.939-22.455 1.94-8.982 1.939-22.456 1.94 58.385 1.94 13.473 1.939-67.366 1.94-49.402 1.939 17.964h3.879l1.94-22.456 1.94-17.964 1.939 8.982h1.94l1.939-4.49 1.94 8.981 1.939 17.965 1.94 8.982 1.94 26.946 1.939-8.982h1.94l1.939 22.456 1.94-13.474 1.939-4.49 1.94 4.49 1.94-8.982 1.939 17.965h1.94l1.939-40.42 1.94-17.965 1.939-13.473 1.94-17.964 1.94-8.982 1.939-13.474h1.94l1.939 35.93 1.94 31.437 3.879 17.964 1.94 4.491h3.878l1.94-17.964 1.94-13.473 3.879-8.983 1.94-13.473h3.878l1.94-13.473h5.819l1.94 17.964h3.878l1.94 26.947h1.94l1.939-4.491h1.94l1.94-13.474h3.878l1.94-13.473h1.94l1.939 8.982h1.94l1.94 8.982h3.878l1.94-8.982 1.94 4.491 1.939-8.982 1.94-4.49 1.94-8.983h5.818l1.94-4.491 1.939 4.49 3.88 17.965h5.818l1.94-4.49 1.939 4.49 1.94-8.982 1.94-13.473h3.878l1.94 26.946 1.94 4.491 1.939-4.49 1.94 8.982 1.94 17.964h3.878l3.88-17.964 1.939-4.492 3.88-17.964h3.878l1.94-13.473 1.94 22.455 1.939 8.982 1.94 4.492h5.818l1.94 4.49 1.94-13.473 1.939-8.982 1.94 4.491h5.818l1.94 4.491h1.94l1.939 4.491 3.88-8.982h3.878l1.94-8.982h1.94l1.939 4.491 1.94-4.49 1.94 4.49h3.878l1.94 8.982 3.879-17.964 3.88 8.982h3.878l1.94-8.982 1.94 17.964 1.939-8.982 1.94 4.491 1.94-4.49h3.878l1.94 8.981 1.94-22.455 1.939 31.438 1.94-4.492h5.818l1.94-8.982 1.94 26.947 1.939-26.947 1.94-4.49h5.818l1.94-4.492 1.94-13.473 1.94 13.473 1.939 8.982h5.818l1.94 22.456h3.88l1.939-4.491h5.818l1.94-22.456 1.94-4.49 1.94-26.947 1.939-40.42 1.94-8.982h3.878l1.94 8.982 1.94-17.965 1.94 40.42 1.939 58.384 1.94-4.49 3.878-26.947h1.94l1.94 49.402 1.94-31.438 1.939 4.491 1.94 35.929 3.878 53.893 1.94-17.964 1.94-44.911 1.94 8.982 3.878-89.822 3.88-26.946 1.939-8.983 1.94 31.438 1.94-4.491 1.939 31.438 1.94 22.455h3.878l1.94-4.491 1.94-26.947 1.94 40.42 1.939-71.857 1.94-8.982h3.878l1.94 44.91 1.94-22.455 1.94-85.33 1.939 103.294 3.879-44.91h1.94l1.939-4.492 1.94 53.893 1.94 80.84 1.939-4.491 1.94 94.313 1.939-44.911h1.94l1.939-8.982 1.94-13.473 1.94-49.402L753.18 271.1l1.94-170.661 1.939 107.786h1.94l1.939 13.473 1.94-26.946 1.94 49.402 1.939 62.875 1.94 175.153 1.939 8.982h1.94l1.939-26.947 1.94 35.929 1.94-35.929 1.939 89.822 1.94-103.295 1.939-49.402h1.94l1.939-44.91 1.94-4.492 1.94-80.84 1.939-103.295 1.94 112.278h3.878l1.94 44.91h1.94l1.94 125.75 1.939-4.49 1.94-76.349h0" fill="none" stroke="#0072b2" stroke-linecap="round" stroke-width="1.5" id="line2d_4"/><path clip-path="url(#pf9d3ad0e21)" d="M117 365.414h725.4" fill="none" stroke="red" stroke-dasharray="1.5,2.475" stroke-width="1.5" id="line2d_5"/><path d="M117 576.72V77.76" fill="none" stroke="#d3d3d3" stroke-linecap="square" stroke-width="1.25" id="patch_3"/><path d="M117 576.72h725.4" fill="none" stroke="#d3d3d3" stroke-linecap="square" stroke-width="1.25" id="patch_4"/><g id="matplotlib.axis_1"><g id="xtick_1"><g transform="matrix(.16 0 0 -.16 200.824 598.378)" fill="#696969" id="text_1"><defs><path d="M9.813 72.906h14.703l18.593-49.61 18.703 49.61h14.704V0H66.89v64.016l-18.797-50h-9.907l-18.796 50V0H9.813z" id="DejaVuSans-77"/><path d="M34.281 27.484q-10.89 0-15.093-2.484-4.204-2.484-4.204-8.5 0-4.781 3.157-7.594 3.156-2.797 8.562-2.797 7.485 0 12 5.297 4.516 5.297 4.516 14.078v2zm17.922 3.72V0H43.22v8.297Q40.14 3.328 35.547.953q-4.594-2.375-11.234-2.375-8.391 0-13.36 4.719Q6 8.016 6 15.922q0 9.219 6.172 13.906 6.187 4.688 18.437 4.688h12.61v.89q0 6.203-4.078 9.594-4.078 3.39-11.453 3.39-4.688 0-9.141-1.124-4.438-1.125-8.531-3.375v8.312q4.921 1.906 9.562 2.844 4.64.953 9.031.953 11.875 0 17.735-6.156 5.86-6.14 5.86-18.64z" id="DejaVuSans-97"/><path d="M41.11 46.297q-1.516.875-3.297 1.281Q36.03 48 33.89 48q-7.625 0-11.703-4.953-4.079-4.953-4.079-14.234V0H9.08v54.688h9.03v-8.5q2.844 4.984 7.375 7.39Q30.031 56 36.531 56q.922 0 2.047-.125 1.125-.11 2.484-.36z" id="DejaVuSans-114"/></defs><use xlink:href="#DejaVuSans-77"/><use x="86.279" xlink:href="#DejaVuSans-97"/><use x="147.559" xlink:href="#DejaVuSans-114"/></g></g><g id="xtick_2"><g transform="matrix(.16 0 0 -.16 317.692 598.378)" fill="#696969" id="text_2"><defs><path d="M32.172-5.078q-3.797-9.766-7.422-12.735-3.61-2.984-9.656-2.984H7.906v7.516h5.282q3.703 0 5.75 1.765Q21-9.766 23.483-3.219l1.61 4.094-22.11 53.813H12.5l17.094-42.766 17.093 42.766h9.516z" id="DejaVuSans-121"/></defs><use xlink:href="#DejaVuSans-77"/><use x="86.279" xlink:href="#DejaVuSans-97"/><use x="147.559" xlink:href="#DejaVuSans-121"/></g></g><g id="xtick_3"><g transform="matrix(.16 0 0 -.16 442.893 598.378)" fill="#696969" id="text_3"><defs><path d="M9.813 72.906h9.859V5.078q0-13.187-5-19.14-5-5.954-16.094-5.954h-3.75v8.297h3.078q6.531 0 9.219 3.672Q9.813-4.39 9.813 5.078z" id="DejaVuSans-74"/><path d="M8.5 21.578v33.11h8.984V21.922q0-7.766 3.016-11.656 3.031-3.875 9.094-3.875 7.265 0 11.484 4.64 4.234 4.64 4.234 12.656v31h8.985V0h-8.984v8.406Q42.047 3.422 37.718 1q-4.313-2.422-10.032-2.422-9.421 0-14.312 5.86Q8.5 10.296 8.5 21.578zM31.11 56z" id="DejaVuSans-117"/><path d="M9.422 75.984h8.984V0H9.422z" id="DejaVuSans-108"/></defs><use xlink:href="#DejaVuSans-74"/><use x="29.492" xlink:href="#DejaVuSans-117"/><use x="92.871" xlink:href="#DejaVuSans-108"/></g></g><g id="xtick_4"><g transform="matrix(.16 0 0 -.16 557.72 598.378)" fill="#696969" id="text_4"><defs><path d="M53.516 70.516V60.89q-5.61 2.687-10.594 4-4.984 1.328-9.625 1.328-8.047 0-12.422-3.125t-4.375-8.89q0-4.845 2.906-7.313 2.907-2.453 11.016-3.97l5.953-1.218q11.031-2.11 16.281-7.406 5.25-5.297 5.25-14.172 0-10.61-7.11-16.078-7.093-5.469-20.812-5.469-5.172 0-11.015 1.172Q13.14.922 6.89 3.219v10.156q6-3.36 11.765-5.078 5.766-1.703 11.328-1.703 8.438 0 13.032 3.312 4.593 3.328 4.593 9.485 0 5.359-3.297 8.39-3.296 3.032-10.812 4.547L27.484 33.5q-11.03 2.188-15.968 6.875-4.922 4.688-4.922 13.047 0 9.672 6.812 15.234 6.813 5.563 18.766 5.563 5.14 0 10.453-.938 5.328-.922 10.89-2.765z" id="DejaVuSans-83"/><path d="M56.203 29.594v-4.39H14.891q.593-9.282 5.593-14.142 5-4.859 13.938-4.859 5.172 0 10.031 1.266 4.86 1.265 9.656 3.812v-8.5Q49.266.734 44.187-.344 39.11-1.422 33.892-1.422q-13.094 0-20.735 7.61-7.64 7.625-7.64 20.625 0 13.421 7.25 21.296Q20.016 56 32.328 56q11.031 0 17.453-7.11 6.422-7.093 6.422-19.296zm-8.984 2.64q-.094 7.36-4.125 11.75-4.032 4.407-10.672 4.407-7.516 0-12.031-4.25-4.516-4.25-5.203-11.97z" id="DejaVuSans-101"/><path d="M18.11 8.203v-29H9.077v75.484h9.031v-8.296q2.844 4.875 7.157 7.234Q29.594 56 35.594 56q9.968 0 16.187-7.906 6.235-7.907 6.235-20.797T51.78 6.484q-6.218-7.906-16.187-7.906-6 0-10.328 2.375-4.313 2.375-7.157 7.25zm30.578 19.094q0 9.906-4.079 15.547-4.078 5.64-11.203 5.64-7.14 0-11.218-5.64-4.079-5.64-4.079-15.547 0-9.906 4.078-15.547 4.079-5.64 11.22-5.64 7.124 0 11.202 5.64t4.078 15.547z" id="DejaVuSans-112"/></defs><use xlink:href="#DejaVuSans-83"/><use x="63.477" xlink:href="#DejaVuSans-101"/><use x="125" xlink:href="#DejaVuSans-112"/></g></g><g id="xtick_5"><g transform="matrix(.16 0 0 -.16 675.498 598.378)" fill="#696969" id="text_5"><defs><path d="M9.813 72.906h13.28l32.329-60.984v60.984h9.562V0h-13.28L19.39 60.984V0H9.813z" id="DejaVuSans-78"/><path d="M30.61 48.39q-7.22 0-11.422-5.64-4.204-5.64-4.204-15.453 0-9.813 4.172-15.453 4.188-5.64 11.453-5.64 7.188 0 11.375 5.655 4.203 5.672 4.203 15.438 0 9.719-4.203 15.406-4.187 5.688-11.375 5.688zm0 7.61q11.718 0 18.406-7.625 6.703-7.61 6.703-21.078 0-13.422-6.703-21.078-6.688-7.64-18.407-7.64-11.765 0-18.437 7.64-6.656 7.656-6.656 21.078 0 13.469 6.656 21.078Q18.844 56 30.609 56z" id="DejaVuSans-111"/><path d="M2.984 54.688H12.5L29.594 8.797l17.093 45.89h9.516L35.687 0H23.485z" id="DejaVuSans-118"/></defs><use xlink:href="#DejaVuSans-78"/><use x="74.805" xlink:href="#DejaVuSans-111"/><use x="135.986" xlink:href="#DejaVuSans-118"/></g></g><g id="xtick_6"><g transform="matrix(.16 0 0 -.16 797.095 598.378)" fill="#696969" id="text_6"><defs><path d="M54.89 33.016V0h-8.984v32.719q0 7.765-3.031 11.61-3.031 3.858-9.078 3.858-7.281 0-11.484-4.64-4.204-4.625-4.204-12.64V0H9.08v54.688h9.03v-8.5q3.235 4.937 7.594 7.374Q30.078 56 35.797 56q9.422 0 14.25-5.828 4.844-5.828 4.844-17.156z" id="DejaVuSans-110"/></defs><use xlink:href="#DejaVuSans-74"/><use x="29.492" xlink:href="#DejaVuSans-97"/><use x="90.771" xlink:href="#DejaVuSans-110"/></g></g></g><g id="matplotlib.axis_2"><g id="ytick_1"><g transform="matrix(.16 0 0 -.16 73.733 544.114)" fill="#696969" id="text_7"><defs><path d="M10.594 35.5h62.593v-8.297H10.594z" id="DejaVuSans-8722"/><path d="M40.578 39.313Q47.656 37.797 51.625 33q3.984-4.781 3.984-11.813 0-10.78-7.422-16.703-7.421-5.906-21.093-5.906-4.578 0-9.438.906-4.86.907-10.031 2.72v9.515q4.094-2.39 8.969-3.61 4.89-1.218 10.218-1.218 9.266 0 14.125 3.656 4.86 3.656 4.86 10.64 0 6.454-4.516 10.079-4.515 3.64-12.562 3.64h-8.5v8.11h8.89q7.266 0 11.125 2.906 3.86 2.906 3.86 8.375 0 5.61-3.985 8.61-3.968 3.015-11.39 3.015-4.063 0-8.703-.89-4.641-.876-10.203-2.72v8.782q5.624 1.562 10.53 2.344 4.907.78 9.25.78 11.235 0 17.766-5.109 6.547-5.093 6.547-13.78 0-6.063-3.468-10.235-3.47-4.172-9.86-5.782z" id="DejaVuSans-51"/><path d="M31.781 66.406q-7.61 0-11.453-7.5Q16.5 51.422 16.5 36.375q0-14.984 3.828-22.484 3.844-7.5 11.453-7.5 7.672 0 11.5 7.5 3.844 7.5 3.844 22.484 0 15.047-3.844 22.531-3.828 7.5-11.5 7.5zm0 7.813q12.266 0 18.735-9.703 6.468-9.688 6.468-28.141 0-18.406-6.468-28.11-6.47-9.687-18.735-9.687-12.25 0-18.718 9.688-6.47 9.703-6.47 28.109 0 18.453 6.47 28.14Q19.53 74.22 31.78 74.22z" id="DejaVuSans-48"/></defs><use xlink:href="#DejaVuSans-8722"/><use x="83.789" xlink:href="#DejaVuSans-51"/><use x="147.412" xlink:href="#DejaVuSans-48"/></g></g><g id="ytick_2"><g transform="matrix(.16 0 0 -.16 73.733 486.574)" fill="#696969" id="text_8"><defs><path d="M19.188 8.297h34.421V0H7.33v8.297q5.609 5.812 15.296 15.594 9.703 9.797 12.188 12.64 4.734 5.313 6.609 9 1.89 3.688 1.89 7.25 0 5.813-4.078 9.469-4.078 3.672-10.625 3.672-4.64 0-9.797-1.61-5.14-1.609-11-4.89v9.969Q13.767 71.78 18.938 73q5.188 1.219 9.485 1.219 11.328 0 18.062-5.672 6.735-5.656 6.735-15.125 0-4.5-1.688-8.531-1.672-4.016-6.125-9.485-1.218-1.422-7.765-8.187-6.532-6.766-18.453-18.922z" id="DejaVuSans-50"/></defs><use xlink:href="#DejaVuSans-8722"/><use x="83.789" xlink:href="#DejaVuSans-50"/><use x="147.412" xlink:href="#DejaVuSans-48"/></g></g><g id="ytick_3"><g transform="matrix(.16 0 0 -.16 73.733 429.033)" fill="#696969" id="text_9"><defs><path d="M12.406 8.297h16.11v55.625l-17.532-3.516v8.985l17.438 3.515h9.86V8.296H54.39V0H12.406z" id="DejaVuSans-49"/></defs><use xlink:href="#DejaVuSans-8722"/><use x="83.789" xlink:href="#DejaVuSans-49"/><use x="147.412" xlink:href="#DejaVuSans-48"/></g></g><g id="ytick_4"><use xlink:href="#DejaVuSans-48" transform="matrix(.16 0 0 -.16 97.32 371.493)" fill="#696969" id="text_10"/></g><g id="ytick_5"><g transform="matrix(.16 0 0 -.16 87.14 313.953)" fill="#696969" id="text_11"><use xlink:href="#DejaVuSans-49"/><use x="63.623" xlink:href="#DejaVuSans-48"/></g></g><g id="ytick_6"><g transform="matrix(.16 0 0 -.16 87.14 256.412)" fill="#696969" id="text_12"><use xlink:href="#DejaVuSans-50"/><use x="63.623" xlink:href="#DejaVuSans-48"/></g></g><g id="ytick_7"><g transform="matrix(.16 0 0 -.16 87.14 198.872)" fill="#696969" id="text_13"><use xlink:href="#DejaVuSans-51"/><use x="63.623" xlink:href="#DejaVuSans-48"/></g></g><g id="ytick_8"><g transform="matrix(.16 0 0 -.16 87.14 141.332)" fill="#696969" id="text_14"><defs><path d="M37.797 64.313L12.89 25.39h24.906zm-2.594 8.593H47.61V25.391h10.407v-8.203H47.609V0h-9.812v17.188H4.89v9.515z" id="DejaVuSans-52"/></defs><use xlink:href="#DejaVuSans-52"/><use x="63.623" xlink:href="#DejaVuSans-48"/></g></g><g transform="matrix(0 -.2 -.2 0 65.573 379.813)" fill="#696969" id="text_15"><defs><path d="M51.125 44H36.922l-4.11-16.313h14.313zm-7.328 27.781l-5.078-20.265h14.265L58.11 71.78h7.813L60.89 51.516h15.234V44h-17.14l-4-16.313h15.53V20.22H53.079L48 0h-7.813l5.032 20.219H30.906L25.875 0h-7.86l5.079 20.219H7.719v7.468h17.187L29 44H13.281v7.516h17.625l4.985 20.265z" id="DejaVuSans-35"/><path d="M37.11 75.984V68.5h-8.594q-4.828 0-6.72-1.953-1.874-1.953-1.874-7.031v-4.828h14.797v-6.985H19.922V0H10.89v47.703H2.297v6.984h8.594V58.5q0 9.125 4.25 13.297 4.25 4.187 13.468 4.187z" id="DejaVuSans-102"/><path d="M48.781 52.594v-8.407q-3.812 2.11-7.64 3.157-3.828 1.047-7.735 1.047-8.75 0-13.593-5.547-4.829-5.532-4.829-15.547 0-10.016 4.829-15.563 4.843-5.53 13.593-5.53 3.907 0 7.735 1.046 3.828 1.047 7.64 3.156V2.094Q45.016.344 40.984-.531q-4.015-.89-8.562-.89-12.36 0-19.64 7.765-7.266 7.765-7.266 20.953 0 13.375 7.343 21.031Q20.22 56 33.016 56q4.14 0 8.093-.86 3.953-.843 7.672-2.546z" id="DejaVuSans-99"/><path d="M44.281 53.078v-8.5q-3.797 1.953-7.906 2.922-4.094.984-8.5.984-6.688 0-10.031-2.047-3.344-2.046-3.344-6.156 0-3.125 2.39-4.906 2.391-1.781 9.626-3.39l3.078-.688q9.562-2.047 13.593-5.781 4.032-3.735 4.032-10.422 0-7.625-6.032-12.078-6.03-4.438-16.578-4.438-4.39 0-9.156.86Q10.688.296 5.422 2v9.281q4.984-2.594 9.812-3.89 4.829-1.282 9.579-1.282 6.343 0 9.75 2.172 3.421 2.172 3.421 6.125 0 3.656-2.468 5.61-2.453 1.953-10.813 3.765l-3.125.735q-8.344 1.75-12.062 5.39-3.704 3.64-3.704 9.985 0 7.718 5.47 11.906Q16.75 56 26.811 56q4.97 0 9.36-.734 4.406-.72 8.11-2.188z" id="DejaVuSans-115"/></defs><use xlink:href="#DejaVuSans-35"/><use x="83.789" xlink:href="#DejaVuSans-32"/><use x="115.576" xlink:href="#DejaVuSans-111"/><use x="176.758" xlink:href="#DejaVuSans-102"/><use x="211.963" xlink:href="#DejaVuSans-32"/><use x="243.75" xlink:href="#DejaVuSans-99"/><use x="298.73" xlink:href="#DejaVuSans-97"/><use x="360.01" xlink:href="#DejaVuSans-115"/><use x="412.109" xlink:href="#DejaVuSans-101"/><use x="473.633" xlink:href="#DejaVuSans-115"/></g></g><g transform="matrix(.24 0 0 -.24 268.746 71.76)" fill="#696969" id="text_16"><defs><path d="M4.203 54.688h8.985l11.234-42.672 11.172 42.672h10.593l11.235-42.672 11.187 42.672h8.985L63.28 0H52.688L40.922 44.828 29.109 0H18.5z" id="DejaVuSans-119"/><path d="M64.406 67.281v-10.39q-4.984 4.64-10.625 6.922-5.64 2.296-11.984 2.296-12.5 0-19.14-7.64-6.641-7.64-6.641-22.094 0-14.406 6.64-22.047 6.64-7.64 19.14-7.64 6.345 0 11.985 2.296 5.64 2.297 10.625 6.938V5.609Q59.234 2.094 53.437.33q-5.78-1.75-12.218-1.75-16.563 0-26.094 10.124-9.516 10.14-9.516 27.672 0 17.578 9.516 27.703 9.531 10.14 26.094 10.14 6.531 0 12.312-1.734 5.797-1.734 10.875-5.203z" id="DejaVuSans-67"/><path d="M3.328 72.906h9.953L28.61 11.281l15.282 61.625h11.093l15.328-61.625 15.282 61.625h10.015L77.297 0H64.89L49.516 63.281 33.984 0H21.578z" id="DejaVuSans-87"/><path d="M9.078 75.984h9.031V31.11l26.813 23.578H56.39l-29-25.578L57.625 0H45.906L18.11 26.703V0H9.08z" id="DejaVuSans-107"/><path d="M4.89 31.39h26.313v-8H4.891z" id="DejaVuSans-45"/><path d="M11.719 12.406h10.297V0H11.719zm0 39.297h10.297v-12.39H11.719z" id="DejaVuSans-58"/><path d="M8.203 72.906h46.875v-4.203L28.61 0H18.312L43.22 64.594H8.203z" id="DejaVuSans-55"/><path d="M45.406 27.984q0 9.766-4.031 15.125-4.016 5.375-11.297 5.375-7.219 0-11.25-5.375-4.031-5.359-4.031-15.125 0-9.718 4.031-15.093t11.25-5.375q7.281 0 11.297 5.375 4.031 5.375 4.031 15.093zm8.985-21.203q0-13.953-6.203-20.765Q42-20.797 29.203-20.797q-4.734 0-8.937.703-4.203.703-8.157 2.172v8.735q3.954-2.141 7.813-3.157 3.86-1.031 7.86-1.031 8.843 0 13.234 4.61 4.39 4.609 4.39 13.937v4.453q-2.781-4.844-7.125-7.234Q33.938 0 27.875 0 17.828 0 11.672 7.656q-6.156 7.672-6.156 20.328 0 12.688 6.156 20.344Q17.828 56 27.875 56q6.063 0 10.406-2.39 4.344-2.391 7.125-7.22v8.297h8.985z" id="DejaVuSans-103"/></defs><use xlink:href="#DejaVuSans-78"/><use x="74.805" xlink:href="#DejaVuSans-101"/><use x="136.328" xlink:href="#DejaVuSans-119"/><use x="218.115" xlink:href="#DejaVuSans-32"/><use x="249.902" xlink:href="#DejaVuSans-67"/><use x="319.727" xlink:href="#DejaVuSans-97"/><use x="381.006" xlink:href="#DejaVuSans-115"/><use x="433.105" xlink:href="#DejaVuSans-101"/><use x="494.629" xlink:href="#DejaVuSans-115"/><use x="546.729" xlink:href="#DejaVuSans-32"/><use x="578.516" xlink:href="#DejaVuSans-87"/><use x="671.518" xlink:href="#DejaVuSans-101"/><use x="733.041" xlink:href="#DejaVuSans-101"/><use x="794.564" xlink:href="#DejaVuSans-107"/><use x="852.475" xlink:href="#DejaVuSans-45"/><use x="890.434" xlink:href="#DejaVuSans-111"/><use x="951.615" xlink:href="#DejaVuSans-118"/><use x="1010.795" xlink:href="#DejaVuSans-101"/><use x="1072.318" xlink:href="#DejaVuSans-114"/><use x="1107.057" xlink:href="#DejaVuSans-45"/><use x="1139.141" xlink:href="#DejaVuSans-87"/><use x="1232.143" xlink:href="#DejaVuSans-101"/><use x="1293.666" xlink:href="#DejaVuSans-101"/><use x="1355.189" xlink:href="#DejaVuSans-107"/><use x="1413.1" xlink:href="#DejaVuSans-58"/><use x="1446.791" xlink:href="#DejaVuSans-32"/><use x="1478.578" xlink:href="#DejaVuSans-55"/><use x="1542.201" xlink:href="#DejaVuSans-32"/><use x="1573.988" xlink:href="#DejaVuSans-97"/><use x="1635.268" xlink:href="#DejaVuSans-118"/><use x="1694.447" xlink:href="#DejaVuSans-103"/></g><g id="legend_1"><path d="M128.2 184.5h136.45q3.2 0 3.2-3.2V88.96q0-3.2-3.2-3.2H128.2q-3.2 0-3.2 3.2v92.34q0 3.2 3.2 3.2z" fill="none" opacity=".8" stroke="#ccc" id="patch_5"/><path d="M131.4 98.718h32" fill="none" stroke="#000" stroke-linecap="round" stroke-width="1.5" id="line2d_6"/><g transform="matrix(.16 0 0 -.16 176.2 104.317)" fill="#696969" id="text_17"><defs><path d="M8.688 72.906h9.921V28.61q0-11.718 4.235-16.875 4.25-5.14 13.781-5.14 9.469 0 13.719 5.14 4.25 5.157 4.25 16.875v44.297H64.5V27.391q0-14.25-7.063-21.532-7.046-7.28-20.812-7.28-13.828 0-20.89 7.28-7.047 7.282-7.047 21.532z" id="DejaVuSans-85"/></defs><use xlink:href="#DejaVuSans-85"/><use x="73.193" xlink:href="#DejaVuSans-83"/></g><path d="M131.4 122.203h32" fill="none" stroke="#009e73" stroke-linecap="round" stroke-width="1.5" id="line2d_8"/><g transform="matrix(.16 0 0 -.16 176.2 127.802)" fill="#696969" id="text_18"><use xlink:href="#DejaVuSans-78"/><use x="74.805" xlink:href="#DejaVuSans-74"/></g><path d="M131.4 145.688h32" fill="none" stroke="#d55e00" stroke-linecap="round" stroke-width="1.5" id="line2d_10"/><g transform="matrix(.16 0 0 -.16 176.2 151.287)" fill="#696969" id="text_19"><defs><path d="M19.672 34.813V8.108H35.5q7.953 0 11.781 3.297 3.844 3.297 3.844 10.078 0 6.844-3.844 10.078-3.828 3.25-11.781 3.25zm0 29.984V42.828h14.61q7.218 0 10.75 2.703 3.546 2.719 3.546 8.282 0 5.515-3.547 8.25-3.531 2.734-10.75 2.734zm-9.86 8.11h25.204q11.28 0 17.375-4.688Q58.5 63.53 58.5 54.89q0-6.703-3.125-10.657-3.125-3.953-9.188-4.922 7.282-1.562 11.313-6.53 4.031-4.954 4.031-12.376 0-9.765-6.64-15.093Q48.25 0 35.984 0H9.812z" id="DejaVuSans-66"/></defs><use xlink:href="#DejaVuSans-66"/><use x="68.604" xlink:href="#DejaVuSans-101"/><use x="130.127" xlink:href="#DejaVuSans-114"/><use x="169.49" xlink:href="#DejaVuSans-103"/><use x="232.967" xlink:href="#DejaVuSans-101"/><use x="294.49" xlink:href="#DejaVuSans-110"/></g><path d="M131.4 169.173h32" fill="none" stroke="#0072b2" stroke-linecap="round" stroke-width="1.5" id="line2d_12"/><g transform="matrix(.16 0 0 -.16 176.2 174.773)" fill="#696969" id="text_20"><defs><path d="M44.39 34.188q3.172-1.079 6.172-4.594 3-3.516 6.032-9.672L66.609 0H56l-9.313 18.703q-3.624 7.328-7.015 9.719-3.39 2.39-9.25 2.39h-10.75V0h-9.86v72.906h22.266q12.5 0 18.656-5.234 6.157-5.219 6.157-15.766 0-6.89-3.203-11.437-3.204-4.532-9.297-6.282zM19.673 64.797V38.922h12.406q7.125 0 10.766 3.297 3.64 3.297 3.64 9.687 0 6.39-3.64 9.64-3.64 3.25-10.766 3.25z" id="DejaVuSans-82"/><path d="M18.313 70.219V54.688h18.5v-6.985h-18.5V18.016q0-6.688 1.828-8.594 1.828-1.906 7.453-1.906h9.218V0h-9.218q-10.407 0-14.36 3.875-3.953 3.89-3.953 14.14v29.688H2.687v6.984h6.594V70.22z" id="DejaVuSans-116"/><path d="M54.89 33.016V0h-8.984v32.719q0 7.765-3.031 11.61-3.031 3.858-9.078 3.858-7.281 0-11.484-4.64-4.204-4.625-4.204-12.64V0H9.08v75.984h9.03V46.188q3.235 4.937 7.594 7.374Q30.078 56 35.797 56q9.422 0 14.25-5.828 4.844-5.828 4.844-17.156z" id="DejaVuSans-104"/><path d="M45.406 46.39v29.594h8.985V0h-8.985v8.203Q42.578 3.328 38.25.953q-4.313-2.375-10.375-2.375-9.906 0-16.14 7.906-6.22 7.922-6.22 20.813 0 12.89 6.22 20.797Q17.968 56 27.874 56q6.063 0 10.375-2.375 4.328-2.36 7.156-7.234zm-30.61-19.093q0-9.906 4.079-15.547 4.078-5.64 11.203-5.64 7.125 0 11.219 5.64 4.11 5.64 4.11 15.547 0 9.906-4.11 15.547-4.094 5.64-11.219 5.64-7.125 0-11.203-5.64-4.078-5.64-4.078-15.547z" id="DejaVuSans-100"/></defs><use xlink:href="#DejaVuSans-82"/><use x="64.982" xlink:href="#DejaVuSans-117"/><use x="128.361" xlink:href="#DejaVuSans-116"/><use x="167.57" xlink:href="#DejaVuSans-104"/><use x="230.949" xlink:href="#DejaVuSans-101"/><use x="292.473" xlink:href="#DejaVuSans-114"/><use x="333.586" xlink:href="#DejaVuSans-102"/><use x="368.791" xlink:href="#DejaVuSans-111"/><use x="429.973" xlink:href="#DejaVuSans-114"/><use x="469.336" xlink:href="#DejaVuSans-100"/></g></g></g></g><defs><clipPath id="pf9d3ad0e21"><path d="M117 77.76h725.4v498.96H117z"/></clipPath></defs></svg>