<svg height="864" viewBox="0 0 936 648" width="1248" xmlns="http://www.w3.org/2000/svg" xmlns:xlink="http://www.w3.org/1999/xlink"><defs><style>*{stroke-linecap:butt;stroke-linejoin:round}</style></defs><g id="figure_1"><path d="M0 648h936V0H0z" style="fill:#fff" id="patch_1"/><g id="axes_1"><path d="M117 576.72h725.4V77.76H117z" style="fill:none" id="patch_2"/><path clip-path="url(#pd9c3a67e0d)" d="m149.973 406.608 40.582-.106 4.611-.224 1.845-.437 1.844-.814 1.845-1.326.922-.652 1.845-1.593.922-.548.923-.719 1.844-.3.923-.416 1.844.01.922-.27.923.043 1.844.369 2.767 1.929.923 1.14.922 1.437.922.46.923 1.203.922.782 1.845 1.216.922.257.922-.004.922.275.923-.559.922-.204.922-.048.923-.433.922-.593.922-.77.923-.265.922.48.922-.025.923.088.922.46.922.66.923.903.922.165.922-.244 1.845-.013.922-.127.922.293.923-.027.922.432.922.256 2.767.117.923-.406 1.844-.653.923-.705.922-.007.922-.436 1.845.061.922.015.922-.191.923.572.922.062.922.516.923.164 1.844-.47.923.034.922-.456.922-.328.923-.46 1.844-.472 1.845.382.922.535.922.32 1.845-.339.922.609 2.767-.976.923-.666.922.006.922-.27.923-.706.922-.32.922-.555.923-.696.922-.338 2.767-2.156.922-.295.922-.485.923.108.922-.26 1.845-.241 1.844.465.923.649.922.1.922.63.923.288.922.83.922.046.923-.249 1.844-1.172.922-.48.923.049.922-.946 2.767 2.139.922 1.314.923.977.922.617.922 1.772.923.008.922-.214.922 1.033.923-.08.922.151.922.36.923-.382.922.58.922 1.178.922-.382.923.906.922.611 1.845 1.69.922.288.922-.69.923-.091.922-.94.922-.773.923-1.123.922-.658.922-.516 1.845.572 1.844 1.59.923.975.922.378.922.723.923.1.922.286.922-1.034.923-.5.922-1.12 1.845-1.287.922-.437.922-.899.923.56.922-.735.922 1.253.923-.1.922-.66.922.16.922.374.923.61.922 1.648.922-1.135 1.845 1.583.922.065.923-.559 1.844-3.994.923-.416.922-1.286 1.845-.966.922.028.922-.524.922.999.923.301.922.607.922-.361 1.845.321.922 2.941.923-.67.922.146.922-.11.923.553.922-.346.922.262.923-3.518.922.59 1.844-1.585.923-.526.922.1.922-.986.923 3.254.922-1.02.922.34.923.082.922-.505.922.228.923.546.922-2.625.922.44.923.202.922-.067.922-.274.923-2.038.922-.72.922.678.922-.626.923-1.094.922-.475.922.021.923 1.666.922-.219.922-.839.923-.35.922-.704.922-1.25.923-1.516.922-2.977.922-1.216.923-1.408.922-2.417.922-.71.922-.959.923-1.296.922.711.922-.21.923.026.922 2.1.922.445.923 1.522.922 2.582.922 1.667 1.845 4.06.922.466.923 1.74.922 8.938.922.857.923 2.757.922.848.922 2.064.922.813.923-1.012.922-16.436.922-1.53.923-6.172.922-3.338.922-4.028.923-2.401.922.168.922 8.847.923-1.948.922 4.328.922 1.939.923 3.34.922 4.294.922-.542.922-.412.923 6.472 1.844 2.644.923-.352.922-1.24.922 3.478.923 4.675.922 9.976.922-3.018.923 1.94.922 1.084.922-.075.923-1.506.922-6.74.922-16.214.923-4.272 1.844-12.607.922-2.854.923-2.13.922-.973.922-8.844.923 9.44.922 3.561.922 7.286.923 3.22.922 4.425.922 7.434.923 17.689.922.828.922 3.688.923 4.922.922 3.134.922 1.418.922.679.923-1.042.922-1.275.922.183.923-8.3.922-.555.922-1.164.923-2.04.922-1.76.922-.014.923-2.024.922 2.489.922-.077.923.484.922 1.34.922.673.922-.435.923.878.922 2.816.922-1.362.923-.856.922-1.695.922-.432.923-.706.922-.248.922-.92.923 1.07.922-.032.922 1.142.923-.68.922-.443.922-1.23 1.845-6.691.922-2.38.922-3.294.923-1.808.922-.65.922-.357.923.574.922 1.785.922.958.923 1.377.922 1.066.922-.079.923.542.922-3.348.922-1.033.923.07.922-.471.922-.916.922.078.923-.723.922 6.2.922-.031.923-.755.922-.246.922.166.923-.98.922.141.922-2.879.923-.295.922-1.67.922-.87.923-1.438.922-.116.922-1.164.923-1.524.922-.27.922 2.717.922.047.923 1.632.922.234.922 1.486.923.839.922.474.922-1.412.923.397.922-1.56.922.233.923-1.555.922.868.922-1.288.923.206.922.827.922 1.338.922.95.923 1.462.922-.247.922 2.61.923 1.313.922.057.922.936.923-.617.922.101.922 1.753 1.845-1.05.922.1.923-.767.922.19.922-.318.923-2.106 2.766.447 1.845.92.922.275.923 1.32.922-.33 1.845-.124.922-.372.922-.535.923-.139.922-.498.922-.06.923-.21.922-.036 1.844.955 2.767-.659.923-.105.922-.574 1.845-.739.922.342.922 1.365.923-.392.922.092.922.528.923 3.22 1.844-.912.922-2.81.923.669.922-.853.922-.38.923-7.163.922.087.922-.159.923 1.508.922-.5.922.83.923-.006.922 3.708.922-.121.923.277.922-.417.922-.264 2.767-1.517.922.008.923-.227.922.084 1.845-.363.922-3.94.922-.264 1.845.264.922.88.923-.692.922-1.014.922 5.443.923-.778.922-.541.922-.312.922-3.444.923-.376.922.529 1.845-.372 1.844-.147.923.577.922-.266.922-1.147.923-3.521.922-1.151.922-.368.923-.109.922-.833.922-2.11 1.845-.556.922-.724.922.085.923-.35.922-.758.922.1.923-.182.922.34.922-.501 1.845-.695.922.047.923 2.616.922-1.308.922 1.398.923 2.197 1.844.836.922-3.158.923 2.44.922 2.82.922-.767.923.563.922-1.804.922.907.923 6.116.922-1.954.922.223.923-.574.922 1.312.922 1.955.923-.398.922-.627.922-.343.923-2.782.922 3.305.922.061.922 2.068.923-.055.922 17.955.922-10.792.923 5.516.922-.573.922.885.923-2.234.922.587.922-33.943.923 23.866.922-1.057.922.871.923-.477.922 1.123.922-.433.922 23.506.923-10.37.922.718.922.935.923 1.447.922.894.922.505.923-5.239.922-.502.922-.307.923-1.267.922-1.047.922-.76.923.22.922.72.922-.157.922-1.355 2.767-.224.923-.461.922 2.22.922-2.285.923 1.389.922.464.922.125 1.845-.413.922-3.908.923 3.371.922.045.922-.777.923-.255.922-.007.922.344.922 1.223 1.845-4.907 1.845-1.976.922-.273.922-.563.923-2.927.922 1.173.922 1.454.923.605 2.767-.493.922 1.412.922-1.363.922-1.973.923 1.27.922-2.85.922-2.22.923.138.922-1.672 1.845-.21.922-5.292 1.845 8.007.922-.515.922.981.923.43.922.806.922 10.318.923 4.819.922-.326.922 1.252.922-3.888 1.845-2.32 1.845-29.457.922-4.112.922-1.488.923 6.292.922.975.922.8.923 10.15.922 7.416.922 3.321.923.73.922-2.006.922.152.922 1.114.923-3.136.922.57 1.845-5.414.922-7.801.922-5.753 1.845-16.354.922-.746.923 3.462.922-6.69.922-11.6.923-9.785.922-12.121.922-16.575.923-20.513.922-9.915.922 1.676.922-19.364.923-25.896.922 2.505.922 12.016 1.845-30.792 1.845 10.596.922 51.237.922 4.862h0" style="fill:none;stroke:#000;stroke-linecap:round;stroke-width:1.5" id="line2d_1"/><path clip-path="url(#pd9c3a67e0d)" d="m149.973 406.607 40.582-.076 2.766-.186 1.845-.463.922-.439.923-.905.922-.37.922-1.188.923-1.627.922-2.375.922-1.984.923-1.27 1.844-10.705.923-4.401.922-3.441.922-4.475.923-1.493.922-6.9.922 3.977.922-1.731.923-.217.922 1.723.922 6.05.923-.113.922 10.271.922 1.847.923 9.449.922 7.912.922 2.441.923 3.615.922 1.073.922.844.923-1.347.922-1.015.922-.17.922.414.923-4.944.922 4.795.922-6.361.923 2.621.922 1.621.922-2.999.923 1.67.922 6.48.922.775.923 7.138.922 4.794.922-3.883.923 3.578.922.372.922-2.225.923-1.734.922.125.922-3.331.922 3.2.923.292.922 3.329.922-1.564.923 3.603.922-1.923.922-.128.923-.308.922-1.369.922-4.2.923-1.231.922-5.188.922-3.197.923-1.615.922-2.024.922 1.073.922-.022.923 3.228.922 1.457.922 3.325.923-.564.922.805.922-3.59.923.054 1.844-1.703.923-.552.922 2.557.922.015.923 1.787.922 1.075.922-.99.922.862.923-1.121.922-2.234.922.716.923-.277.922-1.74.922-.09.923-1.072.922.914.922.226.923-1.521 1.844-.122.923-.494.922.086.922-.47.923-5.547.922.128.922-.164.922.094.923.713.922-.244.922-.676.923 10.613.922.003 1.845-.336.922-.92.922.622.923.341.922-4.66.922.079.923-.116 1.844.591.922-.774.923-.448.922-.582.922.854.923.329.922 1.036.922.18 1.845 1.277.922-.082.923-2.183.922-.969.922-2.761 1.845-1.838.922-.445.923.174.922.536.922 1.2.922 2.195.923 1.384.922.966.922.555.923-.634.922 1.713.922-.436 3.69-2.457.922-.34.922-1.647.923.272.922 1.078.922-.182 1.845 1.356.922 2.554.922 1.494.923-1.04.922-1.42.922.43 1.845-.4.922-2.325.923-1.06.922 1.313.922-.025.923-.643.922-.173.922-.473.923.415.922-.07.922-.476 2.767 1.052 2.767.432.922-.45.923.103.922-.058.922-.646.923-.122.922-.302.922.037.923.341.922-.518.922-.17.922.514.923.131.922.458.922-.147.923-.844 2.767-.725.922-.86.922-.167.923-.4.922.28.922.967.923.655.922-.436.922 1.521.922-1.932.923.204.922.853.922-.6.923-.018.922-.567.922-1.917.923 3.081.922.549.922-.467.923-1.216.922-2.331 1.845 2.127.922-1.579.922-.884.923-2.758 1.844 4.173.922-2.009.923-1.673.922-.6.922-2.122.923 4.636.922-2.317.922-.39.923 1.47.922-.406.922-.073.923 2.274.922-7.27.922 1.049.923-1.64.922-5.413.922.46 1.845-6.61.922 2.096.922-6.873.923 1.613.922 5.193.922-1.118.923 2.56.922 3.07.922 2.544.923 9.433.922-3.66h.922l.923 2.999.922 1.216.922-.731.923 3.605.922-1.344.922 5.343.922-.25.923-.728.922-.089.922-3.35 1.845-14.352.922-2.328.923-1.643.922.256.922-.022.923 10.915.922 1.847.922 12.396.923-2.627.922 7.253.922-3.285.922 3.633.923-6.885.922 9.037.922-8.83.923 8.723.922-6.544.922 6.492.923-4.005.922-2.798.922-5.66.923 11.814.922-3.657.922 4.824.923-2.44.922.173.922 2.203.923-5.193.922-12.817.922-148.66.922-10.83.923-3.733.922-6.069.922-3.289.923-1.182.922-1.908.922 286.816.923 13.06.922-2.719.922 8.443.923 6.632.922 10.095.922 7.577.923-134.933.922-5.24.922 13.61 1.845 9.649.922-7.806.922-1.969.923-5.407.922-.329 1.845-10.826.922-12.042.922 9.214.923 3.413.922 2.798 1.845 11.11.922 3.52.922 10.802 1.845-6.517.922.994.922-6.257.923-13.893.922-5.559.922-3.846.923-.034.922 6.73.922.494.923 1.13.922 7.071.922 2.277.923.58.922.383.922-6.178.923-7.239.922 1.619.922 2.225.922-2.07.923-4.599.922-6.51.922-1.512.923 2.502.922-1.847.922-4.767.923 2.076.922 3.03.922 5.09.923.698.922 3.88.922-2.152.923 1.49.922-3.057.922-2.1.922-1.7.923-2.012.922-4.115.922 3.798.923-1.38.922-.114.922 1.043.923-2.734.922 2.627.922.567.923-4.557.922 2.295.922 3.615.923-3.142.922 3.916.922-4.08.923-.43.922 3.096.922.646.922-6.68.923 6.94.922-.068.922 6.008 1.845 7.592.922-3.05.923 8.96.922-2.237.922 1.905.923-.884.922-1.326.922-4.276.923 3.813.922-2.628.922-1.597.922-3.563.923-.536.922-.19.922 4.137.923-1.798.922.835.922 5.288.923 4.456.922 3.71.922 33.206.923-1.22.922 3.89.922.908.923-1.737.922.168.922-2.923.923-64.543.922 1.235.922-5.432.922-.472.923-.265.922-.777.922 1.106.923 32.975.922-2.063.922 7.5.923.47.922-.75.922-2.85.923-2.404.922-3.13.922-1.607.923-6.099.922-3.407.922-2.966.922.805.923-.311.922 1.347.922 1.036.923.022.922.914.922 2.18.923-.443.922.266.922-1.04.923-.076.922.223.922-.165.923-1.259.922-.689.922-.054.922.256.923-.817.922-.1.922-.531.923.14.922.646 1.845-.143.922-.052.922-.573.923.503.922-.033.922-.208.923.186.922.345.922.219.923.347.922-.42 1.844-.49 2.767-.534 1.845.445.922.372 1.845.365 1.845.39 4.611-2.535.922-.58.923-.847 2.767-.012.922-.357 1.845.177.922-.262.922-.768.923-.564.922-.972.922-.226.923-.07.922-.341.922.485.923.259.922-.095.922.625.922-.028 1.845-.95.922-1.168 3.69-.439.922.278.922 1.14.923.618.922-.53.922.003.923-.826.922-2.036.922.415.922-1.402.923.377.922 1.418.922.67.923-1.822.922 4.361.922-.216 1.845.85.922-1.356.923.414.922 4.401 1.845-1.237.922 1.329.922-.716.923.81.922-1.39.922 1.552.922-1.64.923 1.634.922-1.704.922 6.233.923-3.185.922 2.5.922-5.444.923.207.922-.82.922 2.588.923-10.54.922 7.43.922-3.29.923 3.715.922.356.922.217.922-1.476.923 4.746.922-3.96.922 4.432.923-.463.922 1.579.922 2.624.923 1.652 1.844 2.542.923-2.38.922 1.295.922-.274.923-3.484.922-1.68.922-.112.922-.637.923 1.027.922-2.313.922-.586 1.845 2.268.922-.713.923-.12.922.504.922 2.078.923.82.922 1.573.922-.32.923 1.213.922 1.628.922-.784.923-2.465.922-.195.922-1.305.922-1.106.923-1.948.922-2.508.922-2.033.923 2.203.922-1.225.922-1.637.923.909.922 1.502.922.53.923 2.92.922-1.46.922-.252.923 2.185.922-.466.922-1.546.922-1.009.923-2.377.922-1.088.922-.189.923-3.243.922-1.46.922-.08.923.092.922-1.009.922.055.923-.993.922 2.664.922 1.002.923-1.908.922.153.922.829.923 1.563.922 2.347.922-1.115.922-1.576.923.884.922-2.195.922-3.758 1.845-15.382.922-4.146.923-.152 1.844-.543.923 1.39.922 4.02.922 6.834.923 3.904.922 1.396.922.768.922 1.033.923-1.374.922-2.847 1.845-18.357 1.844-21.872.923-18.854 2.767-84.403.922-10.091.922 3.593.923-8.055.922-23.317.922-18.756.923-9.873.922-3.27.922-16.7.922-28.57.923-23.286.922 11.445.922 60.848.923 30.619.922 38.406 1.845 63.79.922 56.645.922 75.655h0" style="fill:none;stroke:#009e73;stroke-linecap:round;stroke-width:1.5" id="line2d_2"/><path clip-path="url(#pd9c3a67e0d)" d="m149.973 406.607 35.97-.087 5.534-.232.922-.407.922.03.923-.785.922-.552.922-1.22.923-4.675.922-1.103.922.232 1.845-5.489.922-1.393.923-.697.922-1.772.922-6.185.923-8.916.922-4.124.922-1.103.923-7.725.922-11.558.922.145.922-6.214.923-7.202.922 4.065.922-5.837.923 2.643.922 20.648.922 10.28.923 18.876.922 29.65.922 2.933.923 21.17.922 16.873.922-9.438.923-6.621.922-1.481.922-9.467.922-1.714.923-12.516.922-10.106.922 5.024.923 8.421.922.262.922-6.07 1.845 17.425.922 6.069.923 1.249.922.029.922-1.336.923 8.886.922-6.766.922-5.547.923-6.65h.922l.922-3.601.922.755.923-5.285.922 2.032.922-1.277.923 4.24.922-3.892.922 2.44.923-3.92.922-.146.922-2.207.923.087.922-3.34.922 1.8.923-8.537.922 1.742.922-.232.922-.9 1.845.029.922-3.688.923 1.887.922-1.161.922-.262.923 2.788.922 1.917.922.871.923 2.352.922 5.024.922.146.923-1.975.922-.988.922-1.83.922-1.016.923-1.974.922-3.572.922.61.923.232.922-.987.922-.233.923-.406.922 3.426.922 1.482.923-.726.922 1.916.922-.232.923.203.922 1.133.922-1.975.923-9.96.922-2.47.922-.435.922-1.858.923.087.922-1.075.922.203.923 17.947.922 3.427.922-1.074.923 2.352.922-.436.922 1.249.923-1.162.922-9.554.922-1.074.923.842 1.844 1.22.922-.64.923 2.15.922 1.452.922 1.103.923-.087.922-.465.922-1.277.923-.204.922-1.916.922-1.104.923-1.539.922-.697.922-1.626.923.987.922-1.19 1.845 1.452.922-.523.922.726.922 1.161.923.668.922 1.365.922.465.923-.639.922 1.917.922-1.25 1.845-1.335.922.407.923-.64.922-.057.922-3.718.923.872.922-.465.922-1.481.922-.145.923 1.103.922 2.846.922 5.518.923.958 1.844 5.924.923-.87.922-2.063.922-4.385.923-2.788.922-1.161.922-2.672.923-2.12.922-.145 1.845 2.933.922-.261.922 1.597 1.845 1.83.922 1.713.922-.465.923.755.922.145.922-1.452.923-.058 1.844-.842.923.03.922-1.337.922.058.923-.26.922.173.922.03.922-2.15.923.233.922 1.858.922.175.923.29.922-.813.922-.116.923 2.032.922-.464.922-2.033.923-.93.922-.61.922.61.923-.086.922-1.133.922-.145.922.784 1.845.552.922-.726.923-.03.922-.87.922-.088.923-.203.922.465.922.668.923-.262.922-1.48.922 1.48.923-1.045.922.552.922-.32.923-2.468.922.377.922 1.307.922-1.423.923 2.352.922-.842.922-3.136.923 2.817.922-.61.922-.465.923.552.922-4.269.922 1.83.923 3.397.922-6.36.922-.26.923 1.306.922-2.846.922.523.922-9.729.923-3.92.922 4.298.922-4.124.923-1.888.922 1.046.922-.145.923 7.811.922 4.357.922-.088.923 5.518.922-4.588.922 4.21.923 5.692.922 1.743.922-6.33.923 8.392.922-2.73.922 9.119 1.845-9.584.922-3.194.922 4.065.923-15.536.922 1.54.922-4.415 1.845 11.297.922 4.646.923 11.5.922 8.276.922 6.331.923-.464.922-1.25.922-7.84.922-.552.923-12.69.922 5.633.922-5.082.923 6.012.922-1.104.922 3.253.923-4.356.922 1.83.922-3.573.923 4.153.922-4.327.922.726.923 2.468.922.494.922.349.923-5.518.922-6.33.922-126.733.922-10.047.923-7.232.922-1.422.922-5.053.923-.523.922-4.501.922 250.385.923 17.54.922 2.004.922 1.103.923 8.8.922 5.808.922 8.13.923-120.98.922-12.11 1.844 18.266.923 3.746.922-4.676.922-1.48.923-4.444.922 4.647.922-2.585.923-7.028.922-9.757.922 7.318.923 1.888.922 1.597.922 3.746.923 5.372.922 3.108.922 2.149.922-2.76.923-2.177.922 3.136.922-4.908.923-14.462.922-2.642.922 4.733.923.61.922 5.343.922.378.923-5.198.922 8.857.922.494.923-1.568.922.145.922-4.211.923-9.525.922 8.334.922-2.323.922-4.182.923-8.363.922-4.385.922-1.394.923 2.265.922-2.41.922-3.456.923 6.156 1.844 16.67.923-1.86.922 10.92.922-3.66.923 6.39.922-6.36.922-1.336.922-11.5.923.93.922-8.77.922 4.442.923-5.314.922 4.414.922-3.02.923 1.51.922 2.149.922.958.923-2.149.922 3.863.922 2.236.923-3.166.922 2.353.922-5.692.923.726.922.348.922-4.791.922-8.074.923 12.081.922 2.991.922 9.903.923 1.045.922 5.896.922 4.704.923 8.509.922-2.585.922 2.295.923-3.514.922 1.887.922-4.443.923 3.31.922-2.264 1.844-7.609.923 1.481.922-.697.922 1.684.923-3.165.922.378.922 4.85.923 2.613.922-.639.922 2.962.923-.668.922 2.527.922.493.923-2.555.922 1.597.922-.087.923-7.434.922 1.016.922-36.097.922-7.173.923.116.922-3.049.922-1.597.923 3.92.922-1.626.922 67.286.923 15.334.922-2.004.922-1.278.923-.145.922-1.685.922-.522.923-33.803.922-9.7.922-.203.922 1.83.923.232.922.58.922-1.016.923-1.306.922-.9.922.987.923-1.54.922-.087.922.03.923 1.306.922.697.922.871 1.845-1.945.922-.784.922-.407.923-1.016 1.844-1.83.923-.203.922 1.249.922.203.923-.087.922-.436.922.087.923.61.922.29.922-.435 1.845.726.922.697.923-.407.922-.958.922-.087 1.845-.9 1.844-.697.923.435.922 1.075.922-.145.923.348.922.668.922.203 1.845 1.336.922-.29.923.261.922.03.922-1.25.922-.26 1.845-2.789.922-.523 1.845-1.887.922.755.923-.32 1.844 1.278 1.845-1.394.922-.203.923-.958 1.844-1.452.923-1.307.922.232.922 1.104.922.232.923-.174.922.842.922-.552.923 1.365.922.93.922-.35.923.93.922 1.51.922 1.046.923-.32.922-1.452.922-2.004.923.552.922-3.281.922 2.033.922-1.627.923 1.452.922.755.922 3.369.923-3.804.922 4.385.922-6.244.923-.029.922 1.51.922.087.923-2.149.922 5.634.922-2.004.923 3.195.922 1.132.922-1.568.923 1.365.922.436 1.844 1.83.923 1.074.922-1.162.922 4.327.923-3.688.922.174.922-5.488.923-.407.922-.58.922 2.497.923-8.8.922 5.896.922-.175.923 4.444.922.29.922-.29.922-1.888.923 6.766.922-3.659.922.872.923-3.108.922.494.922 1.103.923.32.922-1.8.922 1.422.923-.726.922 3.369.922-.029 1.845 1.655.922-.029.922-.145.923 1.8.922-.522.922.203.923-2.41.922.58.922.175.923.058 2.767-3.34.922 2.817.922-1.975.923 1.656.922 1.277.922 1.017.923-.813.922 2.846.922-1.975.922-.203.923-4.182.922-2.614.922-3.223.923.377.922-3.049.922-.232.923 1.974.922 3.892.922.348.923 3.224 1.844 2.265.923.465.922-1.046.922-2.265.922 1.162.923-2.643.922-1.51.922-1.046.923-2.816 1.844-2.469.923-3.717.922-.203 1.845-2.73.922 2.7.922 1.162.923.03.922 3.89.922.262.923 2.207.922 2.73.922-.058.922-1.394.923.494.922-4.095.922-2.062 1.845-9.206.922-2.265.923-1.539.922-1.8.922 1.655.923-1.336.922 1.045.922 2.527.923-.987.922 2.323.922 3.95.922-5.315.923-.697.922-5.198.922-10.949 1.845-16.843 1.845-33.164.922-30.405 1.845-66.735.922-11.267.922-7.493.923-13.184 1.844-63.714.923 4.443.922 9.148.922 3.34.922-9.99.923-12.343.922 39.989.922 93.451.923 25.962.922 38.16.922 8.072.923 13.707 1.844 121.156h0" style="fill:none;stroke:#d55e00;stroke-linecap:round;stroke-width:1.5" id="line2d_3"/><path clip-path="url(#pd9c3a67e0d)" d="M149.973 406.607h46.115l.923-2.958h1.844l.923-1.479h.922l1.845-8.874.922-2.959.922-1.479.923-4.437h.922l.922-7.395.923-2.958.922-1.48.922 11.833.922-5.916.923-14.79.922-11.833.922 10.353 1.845 23.665.922-17.749.923 5.917.922 39.935.922 29.581.923-7.395.922-2.959.922-7.395.923 19.228.922 4.437.922-22.186.922-16.27.923 5.917h1.844l.923-7.396.922-5.916.922 2.958h.923l.922-1.479.922 2.958.923 5.917.922 2.958.922 8.874.923-2.958h.922l.922 7.395.923-4.437.922-1.479.922 1.48.922-2.959.923 5.916h.922l.922-13.311.923-5.917.922-4.437.922-5.916.923-2.958.922-4.437h.922l.923 11.832.922 10.354 1.845 5.916.922 1.479h1.844l.923-5.916.922-4.438 1.845-2.958.922-4.437h1.845l.922-4.437h2.767l.922 5.916h1.845l.922 8.875h.922l.923-1.48h.922l.922-4.437h1.845l.922-4.437h.923l.922 2.958h.922l.923 2.958h1.844l.923-2.958.922 1.48.922-2.959.923-1.479.922-2.958h2.767l.922-1.48.922 1.48 1.845 5.916h2.767l.922-1.479.923 1.48.922-2.959.922-4.437h1.845l.922 8.874.922 1.48.923-1.48.922 2.958.922 5.917h1.845l1.845-5.917.922-1.479 1.845-5.916h1.844l.923-4.437.922 7.395.922 2.958.923 1.48h2.766l.923 1.479.922-4.438.922-2.958.923 1.48h2.767l.922 1.478h.922l.923 1.48 1.844-2.959h1.845l.922-2.958h.922l.923 1.48.922-1.48.922 1.48h1.845l.922 2.957 1.845-5.916 1.845 2.958h1.844l.923-2.958.922 5.916.922-2.958.923 1.48.922-1.48h1.844l.923 2.958.922-7.395.922 10.353.923-1.479h2.767l.922-2.958.922 8.875.923-8.875.922-1.479h2.767l.922-1.479.922-4.437.923 4.437.922 2.958h2.767l.922 7.396h1.845l.922-1.48h2.767l.923-7.395.922-1.479.922-8.874.922-13.312.923-2.958h1.844l.923 2.958.922-5.916.922 13.311.923 19.228.922-1.479 1.845-8.874h.922l.922 16.27.923-10.354.922 1.48.922 11.832 1.845 17.749.922-5.917.922-14.79.923 2.958 1.844-29.582 1.845-8.874.922-2.958.923 10.353.922-1.479.922 10.354.923 7.395h1.844l.923-1.479.922-8.874.922 13.311.922-23.665.923-2.958h1.844l.923 14.79.922-7.395.922-28.102.923 34.019 1.844-14.791h.923l.922-1.48.922 17.75.923 26.623.922-1.48.922 31.061.923-14.79h.922l.922-2.959.922-4.437.923-16.27.922-35.497.922-56.205.923 35.498h.922l.922 4.437.923-8.874.922 16.27.922 20.706.923 57.684.922 2.958h.922l.923-8.874.922 11.832.922-11.832.922 29.581.923-34.018.922-16.27h.922l.923-14.79.922-1.48.922-26.623.923-34.019.922 36.977h1.845l.922 14.79h.922l.923 41.415.922-1.48.922-25.144h2.767l.922-22.186.923-4.437.922 2.958.922-17.749.923-14.79h.922l.922 20.707.923 29.581.922-8.874.922 13.311.923 20.707.922 29.582h.922l.923 16.27.922-25.145.922 8.875.922 1.479.923 7.395.922-14.79h.922l.923-78.391.922 39.935.922-1.48.923-11.832.922-29.581.922-7.396h.923l.922 91.702.922-19.227.923-35.498h.922l.922 32.54.922 14.79h.923l.922-69.516.922-16.27.923 60.642.922 5.916.922-10.353.923-17.75h.922l.922 47.331h.923l.922-31.06.922 1.479.923-2.958.922 20.707.922-10.354.923-29.581.922 22.186.922 1.479.922-19.228.923-5.916.922-10.354.922 20.707.923-11.832.922-17.75.922-4.436.923 29.58.922-1.478h.922l.923-10.354.922 20.707.922 14.791h.923l.922-31.06.922 20.707h1.845l.922-16.27.922-13.312.923 2.958.922 32.54.922-13.312h1.845l.922 11.833.923 5.916.922 1.48.922-23.666.923-2.958h.922l.922-13.312.923 20.707.922-4.437.922 4.437.922-7.395h1.845l.922 26.623.923-28.102.922 2.958 1.845 8.874v13.312l.922 8.874.922-1.479.923-13.311.922 19.228.922 4.437.923-17.75.922-2.957.922-5.916.922-4.438h1.845l1.845 2.958.922 11.833h.922l.923 13.312h.922l.922-14.791.923-8.874.922 5.916.922-2.958.923-5.917.922-8.874h.922l.923 10.353.922 5.917.922-8.875.922-1.479.923 16.27.922 2.958h.922l.923-8.874.922-1.48.922 11.833h.923l.922-7.395.922-1.48h.923l.922 8.875.922-1.479.923-5.916.922-4.437.922-2.958h1.845l.922-5.917h.922l.923-2.958h5.534l.922 1.48.922 4.436h3.69l.922-4.437h.922l.922-2.958h3.69l.922 8.874.922 1.48h4.612l.922-4.438.923-1.479h.922l.922-5.916h4.612l.922-1.48.922 11.833h4.612l.922 1.48.923-7.396h3.689l1.844-2.958.923 2.958h3.689l.922 2.958.923 1.48.922-10.354h1.845l.922-31.06 1.845-5.917.922-7.395.922 10.353h1.845l.922 51.768 1.845 2.958.922 14.79.922 4.438h1.845l.922-25.144.923 1.479.922-7.396.922-13.311.923-7.396h1.844l.922 4.438.923 1.479.922 14.79.922 8.875.923 4.437h1.844l.923 11.832.922-4.437.922-8.874.923-4.437.922-2.958h1.845l.922-19.228.922-1.48.923-5.916.922 5.917.922-7.396h1.845l.922 17.749.922-2.958.923 8.874.922-1.479.922 7.396h1.845l.922-23.666.923 20.707.922 1.48.922-14.791.923 1.479h1.844l.922 7.395.923-10.353.922-4.437.922 16.27h2.767l.923 19.227.922-5.916.922 2.958 1.845-5.916h1.845l.922-13.312.922 4.437.922-4.437.923 4.437.922-8.874h1.845l.922 5.916.922-7.395.923 8.874.922-8.874.922 23.665h1.845l.922-17.749.923 10.354.922-4.438h.922l.923-13.311h1.844l.922 20.707.923-1.48h.922l.922 5.917.923 1.48h1.844l.923-17.75.922-7.395.922-1.48h.923l.922-2.957h1.845l.922 13.311.922 7.396.922-13.312.923-2.958.922-5.916h1.845l1.844-11.833.923 23.665.922-4.437.922 13.312h1.845l.922-11.833.923 1.48.922-17.75.922 8.875.923-1.48h1.844l.922 5.917.923-1.48.922 14.792 1.845-34.02h1.844l.923 17.75.922-1.48.922-22.185.923 8.874.922 11.833h1.845l.922-16.27h.922l.922 7.395.923-16.27.922 5.917.922-60.642.923-17.749.922 5.916.922-17.748.923-31.06.922 4.436.922-28.102.923 116.846.922 26.624.922-5.917.923-8.874.922 23.665h.922l.923-20.707.922-131.637.922-94.66.922-34.019.923 56.205.922 2.958.922-31.06.923 39.934.922 53.247.922 105.014.923 72.474.922-32.54.922 32.54h0" style="fill:none;stroke:#0072b2;stroke-linecap:round;stroke-width:1.5" id="line2d_4"/><path clip-path="url(#pd9c3a67e0d)" d="M117 406.607h725.4" style="fill:none;stroke:red;stroke-dasharray:1.5,2.475;stroke-dashoffset:0;stroke-width:1.5" id="line2d_5"/><path d="M117 576.72V77.76" style="fill:none;stroke:#d3d3d3;stroke-linecap:square;stroke-linejoin:miter;stroke-width:1.25" id="patch_3"/><path d="M117 576.72h725.4" style="fill:none;stroke:#d3d3d3;stroke-linecap:square;stroke-linejoin:miter;stroke-width:1.25" id="patch_4"/><g id="matplotlib.axis_1"><g id="xtick_1"><g style="fill:#696969" transform="matrix(.16 0 0 -.16 112.738 598.378)" id="text_1"><defs><path d="M9.813 72.906h9.859V5.078q0-13.187-5-19.14-5-5.954-16.094-5.954h-3.75v8.297h3.078q6.531 0 9.219 3.672Q9.813-4.39 9.813 5.078z" id="DejaVuSans-74"/><path d="M34.281 27.484q-10.89 0-15.093-2.484-4.204-2.484-4.204-8.5 0-4.781 3.157-7.594 3.156-2.797 8.562-2.797 7.485 0 12 5.297 4.516 5.297 4.516 14.078v2zm17.922 3.72V0H43.22v8.297Q40.14 3.328 35.547.953q-4.594-2.375-11.234-2.375-8.391 0-13.36 4.719Q6 8.016 6 15.922q0 9.219 6.172 13.906 6.187 4.688 18.437 4.688h12.61v.89q0 6.203-4.078 9.594-4.078 3.39-11.453 3.39-4.688 0-9.141-1.124-4.438-1.125-8.531-3.375v8.312q4.921 1.906 9.562 2.844 4.64.953 9.031.953 11.875 0 17.735-6.156 5.86-6.14 5.86-18.64z" id="DejaVuSans-97"/><path d="M54.89 33.016V0h-8.984v32.719q0 7.765-3.031 11.61-3.031 3.858-9.078 3.858-7.281 0-11.484-4.64-4.204-4.625-4.204-12.64V0H9.08v54.688h9.03v-8.5q3.235 4.937 7.594 7.374Q30.078 56 35.797 56q9.422 0 14.25-5.828 4.844-5.828 4.844-17.156z" id="DejaVuSans-110"/></defs><use xlink:href="#DejaVuSans-74"/><use x="29.492" xlink:href="#DejaVuSans-97"/><use x="90.771" xlink:href="#DejaVuSans-110"/></g></g><g id="xtick_2"><g style="fill:#696969" transform="matrix(.16 0 0 -.16 195.16 598.378)" id="text_2"><defs><path d="M34.188 63.188 20.797 26.906h26.812zm-5.579 9.718h11.188L67.578 0h-10.25l-6.64 18.703h-32.86L11.188 0H.78z" id="DejaVuSans-65"/><path d="M18.11 8.203v-29H9.077v75.484h9.031v-8.296q2.844 4.875 7.157 7.234Q29.594 56 35.594 56q9.968 0 16.187-7.906 6.235-7.907 6.235-20.797T51.78 6.484q-6.218-7.906-16.187-7.906-6 0-10.328 2.375-4.313 2.375-7.157 7.25zm30.578 19.094q0 9.906-4.079 15.547-4.078 5.64-11.203 5.64-7.14 0-11.218-5.64-4.079-5.64-4.079-15.547 0-9.906 4.078-15.547 4.079-5.64 11.22-5.64 7.124 0 11.202 5.64t4.078 15.547z" id="DejaVuSans-112"/><path d="M41.11 46.297q-1.516.875-3.297 1.281Q36.03 48 33.89 48q-7.625 0-11.703-4.953-4.079-4.953-4.079-14.234V0H9.08v54.688h9.03v-8.5q2.844 4.984 7.375 7.39Q30.031 56 36.531 56q.922 0 2.047-.125 1.125-.11 2.484-.36z" id="DejaVuSans-114"/></defs><use xlink:href="#DejaVuSans-65"/><use x="68.408" xlink:href="#DejaVuSans-112"/><use x="131.885" xlink:href="#DejaVuSans-114"/></g></g><g id="xtick_3"><g style="fill:#696969" transform="matrix(.16 0 0 -.16 283.279 598.378)" id="text_3"><defs><path d="M8.5 21.578v33.11h8.984V21.922q0-7.766 3.016-11.656 3.031-3.875 9.094-3.875 7.265 0 11.484 4.64 4.234 4.64 4.234 12.656v31h8.985V0h-8.984v8.406Q42.047 3.422 37.718 1q-4.313-2.422-10.032-2.422-9.421 0-14.312 5.86Q8.5 10.296 8.5 21.578zM31.11 56z" id="DejaVuSans-117"/><path d="M9.422 75.984h8.984V0H9.422z" id="DejaVuSans-108"/></defs><use xlink:href="#DejaVuSans-74"/><use x="29.492" xlink:href="#DejaVuSans-117"/><use x="92.871" xlink:href="#DejaVuSans-108"/></g></g><g id="xtick_4"><g style="fill:#696969" transform="matrix(.16 0 0 -.16 363.952 598.378)" id="text_4"><defs><path d="M39.406 66.219q-10.75 0-17.078-8.016-6.312-8-6.312-21.828 0-13.766 6.312-21.781 6.328-8 17.078-8 10.735 0 17.016 8 6.281 8.015 6.281 21.781 0 13.828-6.281 21.828-6.281 8.016-17.016 8.016zm0 8q15.328 0 24.5-10.281 9.188-10.282 9.188-27.563 0-17.234-9.188-27.516-9.172-10.28-24.5-10.28-15.375 0-24.593 10.25-9.204 10.265-9.204 27.546t9.204 27.563q9.218 10.28 24.593 10.28z" id="DejaVuSans-79"/><path d="M48.781 52.594v-8.407q-3.812 2.11-7.64 3.157-3.828 1.047-7.735 1.047-8.75 0-13.593-5.547-4.829-5.532-4.829-15.547 0-10.016 4.829-15.563 4.843-5.53 13.593-5.53 3.907 0 7.735 1.046 3.828 1.047 7.64 3.156V2.094Q45.016.344 40.984-.531q-4.015-.89-8.562-.89-12.36 0-19.64 7.765-7.266 7.765-7.266 20.953 0 13.375 7.343 21.031Q20.22 56 33.016 56q4.14 0 8.093-.86 3.953-.843 7.672-2.546z" id="DejaVuSans-99"/><path d="M18.313 70.219V54.688h18.5v-6.985h-18.5V18.016q0-6.688 1.828-8.594 1.828-1.906 7.453-1.906h9.218V0h-9.218q-10.407 0-14.36 3.875-3.953 3.89-3.953 14.14v29.688H2.687v6.984h6.594V70.22z" id="DejaVuSans-116"/></defs><use xlink:href="#DejaVuSans-79"/><use x="78.711" xlink:href="#DejaVuSans-99"/><use x="133.691" xlink:href="#DejaVuSans-116"/></g></g><g id="xtick_5"><g style="fill:#696969" transform="matrix(.16 0 0 -.16 450.305 598.378)" id="text_5"><use xlink:href="#DejaVuSans-74"/><use x="29.492" xlink:href="#DejaVuSans-97"/><use x="90.771" xlink:href="#DejaVuSans-110"/></g></g><g id="xtick_6"><g style="fill:#696969" transform="matrix(.16 0 0 -.16 531.805 598.378)" id="text_6"><use xlink:href="#DejaVuSans-65"/><use x="68.408" xlink:href="#DejaVuSans-112"/><use x="131.885" xlink:href="#DejaVuSans-114"/></g></g><g id="xtick_7"><g style="fill:#696969" transform="matrix(.16 0 0 -.16 619.924 598.378)" id="text_7"><use xlink:href="#DejaVuSans-74"/><use x="29.492" xlink:href="#DejaVuSans-117"/><use x="92.871" xlink:href="#DejaVuSans-108"/></g></g><g id="xtick_8"><g style="fill:#696969" transform="matrix(.16 0 0 -.16 700.596 598.378)" id="text_8"><use xlink:href="#DejaVuSans-79"/><use x="78.711" xlink:href="#DejaVuSans-99"/><use x="133.691" xlink:href="#DejaVuSans-116"/></g></g><g id="xtick_9"><g style="fill:#696969" transform="matrix(.16 0 0 -.16 786.95 598.378)" id="text_9"><use xlink:href="#DejaVuSans-74"/><use x="29.492" xlink:href="#DejaVuSans-97"/><use x="90.771" xlink:href="#DejaVuSans-110"/></g></g></g><g id="matplotlib.axis_2"><g id="ytick_1"><g style="fill:#696969" transform="matrix(.16 0 0 -.16 73.733 507.436)" id="text_10"><defs><path d="M10.594 35.5h62.593v-8.297H10.594z" id="DejaVuSans-8722"/><path d="M10.797 72.906h38.719v-8.312H19.828v-17.86q2.14.735 4.281 1.094 2.157.36 4.313.36 12.203 0 19.328-6.688 7.14-6.688 7.14-18.11 0-11.765-7.328-18.296-7.328-6.516-20.656-6.516-4.593 0-9.36.781-4.75.782-9.827 2.344v9.922q4.39-2.39 9.078-3.563 4.687-1.171 9.906-1.171 8.453 0 13.375 4.437 4.938 4.438 4.938 12.063 0 7.609-4.938 12.047-4.922 4.453-13.375 4.453-3.953 0-7.89-.875-3.922-.875-8.016-2.735z" id="DejaVuSans-53"/><path d="M31.781 66.406q-7.61 0-11.453-7.5Q16.5 51.422 16.5 36.375q0-14.984 3.828-22.484 3.844-7.5 11.453-7.5 7.672 0 11.5 7.5 3.844 7.5 3.844 22.484 0 15.047-3.844 22.531-3.828 7.5-11.5 7.5zm0 7.813q12.266 0 18.735-9.703 6.468-9.688 6.468-28.141 0-18.406-6.468-28.11-6.47-9.687-18.735-9.687-12.25 0-18.718 9.688-6.47 9.703-6.47 28.109 0 18.453 6.47 28.14Q19.53 74.22 31.78 74.22z" id="DejaVuSans-48"/></defs><use xlink:href="#DejaVuSans-8722"/><use x="83.789" xlink:href="#DejaVuSans-53"/><use x="147.412" xlink:href="#DejaVuSans-48"/></g></g><g id="ytick_2"><use xlink:href="#DejaVuSans-48" style="fill:#696969" transform="matrix(.16 0 0 -.16 97.32 412.686)" id="text_11"/></g><g id="ytick_3"><g style="fill:#696969" transform="matrix(.16 0 0 -.16 87.14 317.936)" id="text_12"><use xlink:href="#DejaVuSans-53"/><use x="63.623" xlink:href="#DejaVuSans-48"/></g></g><g id="ytick_4"><g style="fill:#696969" transform="matrix(.16 0 0 -.16 76.96 223.186)" id="text_13"><defs><path d="M12.406 8.297h16.11v55.625l-17.532-3.516v8.985l17.438 3.515h9.86V8.296H54.39V0H12.406z" id="DejaVuSans-49"/></defs><use xlink:href="#DejaVuSans-49"/><use x="63.623" xlink:href="#DejaVuSans-48"/><use x="127.246" xlink:href="#DejaVuSans-48"/></g></g><g id="ytick_5"><g style="fill:#696969" transform="matrix(.16 0 0 -.16 76.96 128.436)" id="text_14"><use xlink:href="#DejaVuSans-49"/><use x="63.623" xlink:href="#DejaVuSans-53"/><use x="127.246" xlink:href="#DejaVuSans-48"/></g></g><g style="fill:#696969" transform="matrix(0 -.2 -.2 0 65.573 379.813)" id="text_15"><defs><path d="M51.125 44H36.922l-4.11-16.313h14.313zm-7.328 27.781-5.078-20.265h14.265L58.11 71.78h7.813L60.89 51.516h15.234V44h-17.14l-4-16.313h15.53V20.22H53.079L48 0h-7.813l5.032 20.219H30.906L25.875 0h-7.86l5.079 20.219H7.719v7.468h17.187L29 44H13.281v7.516h17.625l4.985 20.265z" id="DejaVuSans-35"/><path d="M30.61 48.39q-7.22 0-11.422-5.64-4.204-5.64-4.204-15.453 0-9.813 4.172-15.453 4.188-5.64 11.453-5.64 7.188 0 11.375 5.655 4.203 5.672 4.203 15.438 0 9.719-4.203 15.406-4.187 5.688-11.375 5.688zm0 7.61q11.718 0 18.406-7.625 6.703-7.61 6.703-21.078 0-13.422-6.703-21.078-6.688-7.64-18.407-7.64-11.765 0-18.437 7.64-6.656 7.656-6.656 21.078 0 13.469 6.656 21.078Q18.844 56 30.609 56z" id="DejaVuSans-111"/><path d="M37.11 75.984V68.5h-8.594q-4.828 0-6.72-1.953-1.874-1.953-1.874-7.031v-4.828h14.797v-6.985H19.922V0H10.89v47.703H2.297v6.984h8.594V58.5q0 9.125 4.25 13.297 4.25 4.187 13.468 4.187z" id="DejaVuSans-102"/><path d="M44.281 53.078v-8.5q-3.797 1.953-7.906 2.922-4.094.984-8.5.984-6.688 0-10.031-2.047-3.344-2.046-3.344-6.156 0-3.125 2.39-4.906 2.391-1.781 9.626-3.39l3.078-.688q9.562-2.047 13.593-5.781 4.032-3.735 4.032-10.422 0-7.625-6.032-12.078-6.03-4.438-16.578-4.438-4.39 0-9.156.86Q10.688.296 5.422 2v9.281q4.984-2.594 9.812-3.89 4.829-1.282 9.579-1.282 6.343 0 9.75 2.172 3.421 2.172 3.421 6.125 0 3.656-2.468 5.61-2.453 1.953-10.813 3.765l-3.125.735q-8.344 1.75-12.062 5.39-3.704 3.64-3.704 9.985 0 7.718 5.47 11.906Q16.75 56 26.811 56q4.97 0 9.36-.734 4.406-.72 8.11-2.188z" id="DejaVuSans-115"/><path d="M56.203 29.594v-4.39H14.891q.593-9.282 5.593-14.142 5-4.859 13.938-4.859 5.172 0 10.031 1.266 4.86 1.265 9.656 3.812v-8.5Q49.266.734 44.187-.344 39.11-1.422 33.892-1.422q-13.094 0-20.735 7.61-7.64 7.625-7.64 20.625 0 13.421 7.25 21.296Q20.016 56 32.328 56q11.031 0 17.453-7.11 6.422-7.093 6.422-19.296zm-8.984 2.64q-.094 7.36-4.125 11.75-4.032 4.407-10.672 4.407-7.516 0-12.031-4.25-4.516-4.25-5.203-11.97z" id="DejaVuSans-101"/></defs><use xlink:href="#DejaVuSans-35"/><use x="83.789" xlink:href="#DejaVuSans-32"/><use x="115.576" xlink:href="#DejaVuSans-111"/><use x="176.758" xlink:href="#DejaVuSans-102"/><use x="211.963" xlink:href="#DejaVuSans-32"/><use x="243.75" xlink:href="#DejaVuSans-99"/><use x="298.73" xlink:href="#DejaVuSans-97"/><use x="360.01" xlink:href="#DejaVuSans-115"/><use x="412.109" xlink:href="#DejaVuSans-101"/><use x="473.633" xlink:href="#DejaVuSans-115"/></g></g><g style="fill:#696969" transform="matrix(.24 0 0 -.24 268.746 71.76)" id="text_16"><defs><path d="M9.813 72.906h13.28l32.329-60.984v60.984h9.562V0h-13.28L19.39 60.984V0H9.813z" id="DejaVuSans-78"/><path d="M4.203 54.688h8.985l11.234-42.672 11.172 42.672h10.593l11.235-42.672 11.187 42.672h8.985L63.28 0H52.688L40.922 44.828 29.109 0H18.5z" id="DejaVuSans-119"/><path d="M64.406 67.281v-10.39q-4.984 4.64-10.625 6.922-5.64 2.296-11.984 2.296-12.5 0-19.14-7.64-6.641-7.64-6.641-22.094 0-14.406 6.64-22.047 6.64-7.64 19.14-7.64 6.345 0 11.985 2.296 5.64 2.297 10.625 6.938V5.609Q59.234 2.094 53.437.33q-5.78-1.75-12.218-1.75-16.563 0-26.094 10.124-9.516 10.14-9.516 27.672 0 17.578 9.516 27.703 9.531 10.14 26.094 10.14 6.531 0 12.312-1.734 5.797-1.734 10.875-5.203z" id="DejaVuSans-67"/><path d="M3.328 72.906h9.953L28.61 11.281l15.282 61.625h11.093l15.328-61.625 15.282 61.625h10.015L77.297 0H64.89L49.516 63.281 33.984 0H21.578z" id="DejaVuSans-87"/><path d="M9.078 75.984h9.031V31.11l26.813 23.578H56.39l-29-25.578L57.625 0H45.906L18.11 26.703V0H9.08z" id="DejaVuSans-107"/><path d="M4.89 31.39h26.313v-8H4.891z" id="DejaVuSans-45"/><path d="M2.984 54.688H12.5L29.594 8.797l17.093 45.89h9.516L35.687 0H23.485z" id="DejaVuSans-118"/><path d="M11.719 12.406h10.297V0H11.719zm0 39.297h10.297v-12.39H11.719z" id="DejaVuSans-58"/><path d="M8.203 72.906h46.875v-4.203L28.61 0H18.312L43.22 64.594H8.203z" id="DejaVuSans-55"/><path d="M45.406 27.984q0 9.766-4.031 15.125-4.016 5.375-11.297 5.375-7.219 0-11.25-5.375-4.031-5.359-4.031-15.125 0-9.718 4.031-15.093t11.25-5.375q7.281 0 11.297 5.375 4.031 5.375 4.031 15.093zm8.985-21.203q0-13.953-6.203-20.765Q42-20.797 29.203-20.797q-4.734 0-8.937.703-4.203.703-8.157 2.172v8.735q3.954-2.141 7.813-3.157 3.86-1.031 7.86-1.031 8.843 0 13.234 4.61 4.39 4.609 4.39 13.937v4.453q-2.781-4.844-7.125-7.234Q33.938 0 27.875 0 17.828 0 11.672 7.656q-6.156 7.672-6.156 20.328 0 12.688 6.156 20.344Q17.828 56 27.875 56q6.063 0 10.406-2.39 4.344-2.391 7.125-7.22v8.297h8.985z" id="DejaVuSans-103"/></defs><use xlink:href="#DejaVuSans-78"/><use x="74.805" xlink:href="#DejaVuSans-101"/><use x="136.328" xlink:href="#DejaVuSans-119"/><use x="218.115" xlink:href="#DejaVuSans-32"/><use x="249.902" xlink:href="#DejaVuSans-67"/><use x="319.727" xlink:href="#DejaVuSans-97"/><use x="381.006" xlink:href="#DejaVuSans-115"/><use x="433.105" xlink:href="#DejaVuSans-101"/><use x="494.629" xlink:href="#DejaVuSans-115"/><use x="546.729" xlink:href="#DejaVuSans-32"/><use x="578.516" xlink:href="#DejaVuSans-87"/><use x="671.518" xlink:href="#DejaVuSans-101"/><use x="733.041" xlink:href="#DejaVuSans-101"/><use x="794.564" xlink:href="#DejaVuSans-107"/><use x="852.475" xlink:href="#DejaVuSans-45"/><use x="890.434" xlink:href="#DejaVuSans-111"/><use x="951.615" xlink:href="#DejaVuSans-118"/><use x="1010.795" xlink:href="#DejaVuSans-101"/><use x="1072.318" xlink:href="#DejaVuSans-114"/><use x="1107.057" xlink:href="#DejaVuSans-45"/><use x="1139.141" xlink:href="#DejaVuSans-87"/><use x="1232.143" xlink:href="#DejaVuSans-101"/><use x="1293.666" xlink:href="#DejaVuSans-101"/><use x="1355.189" xlink:href="#DejaVuSans-107"/><use x="1413.1" xlink:href="#DejaVuSans-58"/><use x="1446.791" xlink:href="#DejaVuSans-32"/><use x="1478.578" xlink:href="#DejaVuSans-55"/><use x="1542.201" xlink:href="#DejaVuSans-32"/><use x="1573.988" xlink:href="#DejaVuSans-97"/><use x="1635.268" xlink:href="#DejaVuSans-118"/><use x="1694.447" xlink:href="#DejaVuSans-103"/></g><g id="legend_1"><path d="M128.2 184.5h136.45q3.2 0 3.2-3.2V88.96q0-3.2-3.2-3.2H128.2q-3.2 0-3.2 3.2v92.34q0 3.2 3.2 3.2z" style="fill:none;opacity:.8;stroke:#ccc;stroke-linejoin:miter" id="patch_5"/><path d="M131.4 98.718h32" style="fill:none;stroke:#000;stroke-linecap:round;stroke-width:1.5" id="line2d_6"/><g style="fill:#696969" transform="matrix(.16 0 0 -.16 176.2 104.317)" id="text_17"><defs><path d="M8.688 72.906h9.921V28.61q0-11.718 4.235-16.875 4.25-5.14 13.781-5.14 9.469 0 13.719 5.14 4.25 5.157 4.25 16.875v44.297H64.5V27.391q0-14.25-7.063-21.532-7.046-7.28-20.812-7.28-13.828 0-20.89 7.28-7.047 7.282-7.047 21.532z" id="DejaVuSans-85"/><path d="M53.516 70.516V60.89q-5.61 2.687-10.594 4-4.984 1.328-9.625 1.328-8.047 0-12.422-3.125t-4.375-8.89q0-4.845 2.906-7.313 2.907-2.453 11.016-3.97l5.953-1.218q11.031-2.11 16.281-7.406 5.25-5.297 5.25-14.172 0-10.61-7.11-16.078-7.093-5.469-20.812-5.469-5.172 0-11.015 1.172Q13.14.922 6.89 3.219v10.156q6-3.36 11.765-5.078 5.766-1.703 11.328-1.703 8.438 0 13.032 3.312 4.593 3.328 4.593 9.485 0 5.359-3.297 8.39-3.296 3.032-10.812 4.547L27.484 33.5q-11.03 2.188-15.968 6.875-4.922 4.688-4.922 13.047 0 9.672 6.812 15.234 6.813 5.563 18.766 5.563 5.14 0 10.453-.938 5.328-.922 10.89-2.765z" id="DejaVuSans-83"/></defs><use xlink:href="#DejaVuSans-85"/><use x="73.193" xlink:href="#DejaVuSans-83"/></g><path d="M131.4 122.203h32" style="fill:none;stroke:#009e73;stroke-linecap:round;stroke-width:1.5" id="line2d_8"/><g style="fill:#696969" transform="matrix(.16 0 0 -.16 176.2 127.802)" id="text_18"><use xlink:href="#DejaVuSans-78"/><use x="74.805" xlink:href="#DejaVuSans-74"/></g><path d="M131.4 145.688h32" style="fill:none;stroke:#d55e00;stroke-linecap:round;stroke-width:1.5" id="line2d_10"/><g style="fill:#696969" transform="matrix(.16 0 0 -.16 176.2 151.287)" id="text_19"><defs><path d="M19.672 34.813V8.108H35.5q7.953 0 11.781 3.297 3.844 3.297 3.844 10.078 0 6.844-3.844 10.078-3.828 3.25-11.781 3.25zm0 29.984V42.828h14.61q7.218 0 10.75 2.703 3.546 2.719 3.546 8.282 0 5.515-3.547 8.25-3.531 2.734-10.75 2.734zm-9.86 8.11h25.204q11.28 0 17.375-4.688Q58.5 63.53 58.5 54.89q0-6.703-3.125-10.657-3.125-3.953-9.188-4.922 7.282-1.562 11.313-6.53 4.031-4.954 4.031-12.376 0-9.765-6.64-15.093Q48.25 0 35.984 0H9.812z" id="DejaVuSans-66"/></defs><use xlink:href="#DejaVuSans-66"/><use x="68.604" xlink:href="#DejaVuSans-101"/><use x="130.127" xlink:href="#DejaVuSans-114"/><use x="169.49" xlink:href="#DejaVuSans-103"/><use x="232.967" xlink:href="#DejaVuSans-101"/><use x="294.49" xlink:href="#DejaVuSans-110"/></g><path d="M131.4 169.173h32" style="fill:none;stroke:#0072b2;stroke-linecap:round;stroke-width:1.5" id="line2d_12"/><g style="fill:#696969" transform="matrix(.16 0 0 -.16 176.2 174.773)" id="text_20"><defs><path d="M44.39 34.188q3.172-1.079 6.172-4.594 3-3.516 6.032-9.672L66.609 0H56l-9.313 18.703q-3.624 7.328-7.015 9.719-3.39 2.39-9.25 2.39h-10.75V0h-9.86v72.906h22.266q12.5 0 18.656-5.234 6.157-5.219 6.157-15.766 0-6.89-3.203-11.437-3.204-4.532-9.297-6.282zM19.673 64.797V38.922h12.406q7.125 0 10.766 3.297 3.64 3.297 3.64 9.687 0 6.39-3.64 9.64-3.64 3.25-10.766 3.25z" id="DejaVuSans-82"/><path d="M54.89 33.016V0h-8.984v32.719q0 7.765-3.031 11.61-3.031 3.858-9.078 3.858-7.281 0-11.484-4.64-4.204-4.625-4.204-12.64V0H9.08v75.984h9.03V46.188q3.235 4.937 7.594 7.374Q30.078 56 35.797 56q9.422 0 14.25-5.828 4.844-5.828 4.844-17.156z" id="DejaVuSans-104"/><path d="M45.406 46.39v29.594h8.985V0h-8.985v8.203Q42.578 3.328 38.25.953q-4.313-2.375-10.375-2.375-9.906 0-16.14 7.906-6.22 7.922-6.22 20.813 0 12.89 6.22 20.797Q17.968 56 27.874 56q6.063 0 10.375-2.375 4.328-2.36 7.156-7.234zm-30.61-19.093q0-9.906 4.079-15.547 4.078-5.64 11.203-5.64 7.125 0 11.219 5.64 4.11 5.64 4.11 15.547 0 9.906-4.11 15.547-4.094 5.64-11.219 5.64-7.125 0-11.203-5.64-4.078-5.64-4.078-15.547z" id="DejaVuSans-100"/></defs><use xlink:href="#DejaVuSans-82"/><use x="64.982" xlink:href="#DejaVuSans-117"/><use x="128.361" xlink:href="#DejaVuSans-116"/><use x="167.57" xlink:href="#DejaVuSans-104"/><use x="230.949" xlink:href="#DejaVuSans-101"/><use x="292.473" xlink:href="#DejaVuSans-114"/><use x="333.586" xlink:href="#DejaVuSans-102"/><use x="368.791" xlink:href="#DejaVuSans-111"/><use x="429.973" xlink:href="#DejaVuSans-114"/><use x="469.336" xlink:href="#DejaVuSans-100"/></g></g></g></g><defs><clipPath id="pd9c3a67e0d"><path d="M117 77.76h725.4v498.96H117z"/></clipPath></defs></svg>