<svg height="864" viewBox="0 0 936 648" width="1248" xmlns="http://www.w3.org/2000/svg" xmlns:xlink="http://www.w3.org/1999/xlink"><defs><style>*{stroke-linecap:butt;stroke-linejoin:round}</style></defs><g id="figure_1"><path d="M0 648h936V0H0z" style="fill:#fff" id="patch_1"/><g id="axes_1"><path d="M117 576.72h725.4V77.76H117z" style="fill:none" id="patch_2"/><path clip-path="url(#p0c4ed990b3)" d="m149.973 353.66 47.239-.134 4.723-.279.945-.165.945-.304 1.89-1.022.944-.722 2.835-2.917.944-1.11 1.89-1.803.945-.623.945-.21 1.89-.673.944.008 1.89-.334 1.889.452.945.566 1.89 1.772.944 1.24.945 1.798 2.834 3.867 1.89 1.778.945.644 1.89.364.944-.197.945-.532.944-.176.945-.335.945-.716.945-.951.945-.722.944.15.945.318.945.043.945.383.944.782.945 1.09.945.744 4.724-.216 1.89.468.944.48 1.89.307.945.055.944-.304 1.89-.933.945-.752.944-.497 1.89-.63 1.89.113.944-.123.945.265 2.834 1.32.945-.069.945-.328.945-.121.945-.294 2.834-1.55.945-.33.944-.08.945.266 1.89 1.12.945.13.944-.236 1.89.493 1.89-.826.944-.786.945-.46.945-.185 2.834-2.007.945-.873 1.89-1.447 1.889-1.979.945-.744.945-.544.944-.263.945-.105 1.89-.445.944.103.945.324 1.89 1.123.945.509.944.64.945.781.945.61.945-.14.944-.621 1.89-1.523.945-.3.945-.627.944-.177 1.89 2.008 4.724 7.028.945-.144 1.89 1.236.944.05.945.356.944-.015.945.139.945 1.226.945.554.945.366 2.834 3.244.945.798.944-.28.945-.545.945-.719 2.834-3.76.945-.818.945-.193.945.4.944.769 2.835 3.303.945.768.944.575.945.27.945-.523 1.89-2.2.944-1.22 2.835-2.593 1.89-.358.944.36.945.805.944-.53.945-.348.945.372.945.686.945 1.575.944.358.945-.268.945 1.105.945.625.944-.345.945-1.715.945-2.786.945-1.75 1.89-2.421.944-.674 1.89-.664.944.332.945.906.945.633.945.172.944-.147.945.224.945 2.17.945 1.584.945-.365.944.026.945.309.945.143.945-.059 1.89-4.313.944-.19.945-1.105.945-.87.944-.298.945-.618 1.89 3.14.944-.474.945.294 1.89-.488.945.54 1.89-2.975.944.448.945.095.944-.238.945-1.613.945-1.924 1.89.007 1.89-2.294.944-.316 1.89 2.186 2.834-2.302.945-1.363.944-1.93 1.89-6.058.945-1.83.944-2.669.945-2.18.945-1.165.945-1.572.945-.409.944.35.945-.129.945 1.484.945 1.775.944 1.371 3.78 11.326 1.89 3.19 1.889 14.28 1.89 5.036 1.889 4.038.945-.14 1.89-24.7.944-5.372.945-6.634.944-5.137.945-4.485.945-1.558.945 6.288.945 4.813.944 1.66.945 4.371.945 3.682.945 5.325.944 2.617.945-.666.945 4.227.945 5.404.945 1.844.944.71.945-1.111.945 1.56.945 5.688.944 10.219.945 4.853.945-.752.945 2.109.945.704.944-1.103.945-5.75 1.89-30.3.944-7.44.945-8.793.945-6.325.945-3.476.945-2.165.944-6.847.945.416.945 9.068 1.89 14.894.944 5.332.945 8.272.945 17.523.945 12.916.944 3.15 1.89 11.624.945 3.175.944 1.463.945-.254.945-1.615.945-.762 1.89-11.838.944-1.2.945-2.234.945-2.651.944-1.237.945-1.42.945.323.945 1.682.945.285 1.89 2.675.944.167.945.309.944 2.576.945 1.015.945-1.548.945-1.779.945-1.483 2.834-2.275.945.105 1.89 1.498.944.322.945-.783.945-1.166.944-3.268.945-4.668 2.834-11.433.945-1.714.945-.703.945.152.945 1.646.944 1.913 1.89 3.332.945.69.944.322.945-1.957.945-3.056.945-.673.945-.28.944-.966.945-.584.945-.45.945 3.82.944 4.302.945-.548.945-.698.945-.055 1.89-1.154.944-1.91.945-2.213.945-1.37 1.89-3.383.944-1.083.945-.893.945-1.875.944-1.25 1.89 3.634 2.834 3.672.945 1.622.945.915 1.89-1.362 1.889-1.736.945-.923.944-.479.945-.293.945-.755.945.721 1.89 3.105.944 1.683.945.848.945 1.648.944 2.737.945.955.945.692.945.222.945-.359.944 1.293.945.812.945-.732.945-.252 1.89-.869.944-.088.945-1.69.944-1.368 1.89.452.945.402.945.64.944.503.945 1.112.945.69.945-.28.944-.086.945-.296.945-.632 2.834-1.304 1.89-.36.945.289.944.666.945.176 1.89-.676.945-.14.944-.474.945-.687.945-.515.945.01.944 1.19.945.678.945-.209.945.433.945 2.615.944 1.92.945-.636.945-2.272.945-1.493.944-.128.945-.86 1.89-10.197.945-.05.944.942.945.702.945.23.945.575 1.89 5.084.944.109.945-.098 1.89-.997 1.889-1.41.945-.362 1.89-.253.944-.06.945-.254 1.89-5.814.944-.069.945.184.945.682.944.131.945-1.19 1.89 6.344.945-.92.944-.595 1.89-5.284.945.106.944.224 1.89-.426.945-.103.945.353.944.217.945-.985 1.89-6.516.944-1.059.945-.332.945-.658.945-2.052.945-1.67.944-.388.945-.695.945-.445.945-.185.944-.773.945-.459.945-.057.945.11.945-.113 1.89-1.081.944-.204.945 1.857.944.912.945.063.945 2.507.945 1.804.945.583.944-1.89.945-.501.945 3.669.945 1.432.944-.143.945-.865.945-.626.945 4.899.945 2.902.944-1.207.945-.245.945.515.945 2.279.944 1.086 1.89-1.392.945-2.18.945.365.944 2.348 1.89 2.89.945 12.484.944 4.997.945-3.68.945 3.447.945.218.945-.94.944-1.15.945-23.265.945-7.03.945 15.91.944-.13.945.275 1.89.932.945 16.093.944 9.162.945-6.732.945 1.153 1.89 3.295.944.976.945-3.302.945-4.004.945-.565.944-1.098.945-1.614.945-1.26.945-.377.944.655.945.393 1.89-2.048 1.89-.236.944-.35.945 1.228.945-.046.944-.625.945 1.292.945.411.945-.09.945-.289.944-2.835.945-.374.945 2.382.945-.51.944-.72.945-.183.945.235.945 1.092.945-.967.944-3.422.945-2.251.945-1.378.945-.92.944-.583.945-2.435.945-1.223.945 1.832.945 1.436.944.329 1.89-.513.945.903.944.034.945-2.326.945-.49.945-1.102.945-3.537.944-1.453.945-1.07.945-1.25.945-.147.944-3.753.945-.97.945 5.585.945 2.505.945.325 1.89 1.846.944 7.759.945 10.558.944 3.134.945.646.945-1.838.945-3.531.945-1.62.944-11.577.945-20.547.945-12.64.945-3.905.944 3.35.945 5.069.945 1.243.945 7.645.945 12.253.944 7.488.945 2.825.945-.887.945-1.292.944.853.945-1.433.945-1.786.945-1.405 1.89-7.52h0" style="fill:none;stroke:#000;stroke-linecap:round;stroke-width:1.5" id="line2d_1"/><path clip-path="url(#p0c4ed990b3)" d="m149.973 353.656 47.239-.097 2.834-.228.945-.185.944-.323.945-.485 2.835-2.912.944-1.964 2.835-8.102.944-4.85.945-7.466.945-6.573 1.89-10.99.944-4.163.945-5.855.945-2.039.945 1.567.944-1.358.945 1.05.945 5.42.945 4.142.945 7.086 1.89 16.33.944 12.11.945 7.222.944 4.224.945 3.27.945 1.337.945-.351.945-1.648.944-.827.945.17.945-3.159.945-.104.944-1.092.945-2.609.945 2.96 1.89-1.889 1.89 10.745.944 5.519.945 8.323.944.635.945-.212.945 2.755.945-1.293.945-2.761.944-1.123.945-2.236.945-.092 1.89 4.962.944 1.231.945 1.422.945 1.172.945-1.431.944-.304.945-1.17 1.89-7.672.944-4.477.945-5.848.945-3.357.945-2.538.945-.664.944.734.945 2.236 1.89 6.603.944 1.926.945.168.945-1.943.945-2.466.945-.604.944-1.188.945-.931.945 1.399.945 1.794.944 1.256.945 1.997.945.06 1.89-.27.944-2.341.945-1.06.945.307 1.89-2.683.944-.81.945-.11.945.795.945-.904.944-1.088.945-.085 1.89-.687.944-.268 1.89-7.976 1.89-.075.944.564.945.327.945-.642 1.89 14.335.944-.106.945-.234.945-.768.945-.208.944.672 1.89-6.208.945-.025.944.11.945.413.945-.32 1.89-1.57.944.189 1.89 1.777.945.849.944.605.945.891.945.353.945-1.58.945-2.198 1.89-5.193.944-1.282.945-.927.944-.19.945.496.945 1.212 1.89 4.864.944 1.639.945 1.06.945-.054 1.89 1.643 1.889-1.565 2.834-2.404.945-1.386.945-.96.945.943.944.625.945.3.945.945.945 2.3.945 2.824.944.317.945-1.716.945-.69.945.12.944-.278.945-1.722.945-2.362.945.176.945.9 2.834-1.486.945-.04.944.24.945-.381.945-.07 1.89 1.033.944.28 1.89.356 1.89-.417.944.032 1.89-1.027 1.89-.48.944.263.945-.123.945-.48.944.24 1.89.86.945.218 1.89-1.47 1.889-.737 1.89-1.401.944-.396.945-.082.945.869.944 1.131.945.153.945.757.945-.287.945-1.206.944.738.945.177 1.89-.84.944-1.733.945.812.945 2.532.945.058.945-1.174.944-2.474.945-.863.945 1.483.945-.38.944-1.718.945-2.54.945-.5.945 2.91.945.086.944-2.569.945-1.585.945-1.899 1.89 3.372.944-1.888 1.89 1.494.945-.333.944 1.535.945-3.485.945-4.339.945-.412.944-4.92.945-3.454.945-2.056.945-4.61.945-.773 1.89-7 .944 4.747.945 2.842.944 1.006 1.89 7.842.945 8.355.945 4.027.944-2.554.945 2.092.945 2.94.945.338.944 2.005.945 1.578.945 2.789.945 3.552 1.89-1.252.944-2.398.945-7.415.945-10.011.944-6.556.945-2.77.945-.968.945.164.945 7.598 1.89 18.835.944 6.814.945 3.227.944 2.768.945.242.945-2.268.945 1.5.945.145.944-.074.945 1.52.945-.036.945 1.735.944-4.745.945-5.9.945 4.292.945 5.69.945.814.944 1.662.945-1.582.945 1.659.945-2.086.944-12.562 1.89-223.875.945-10.157 1.89-13.364.944-3.118.945-2.156 1.89 407.887.944 7.213.945 3.992 1.89 22.182.944 12.326 1.89-186.601.945 5.837.944 13.015.945 6.73.945-2.236.945-6.817.945-5.145 1.89-8.078.944-7.552.945-12.102.944-1.973.945 8.807.945 4.333.945 5.725.945 7.749.944 6.43.945 9.99.945 5.175.945-4.545.944-1.493.945-3.671 1.89-27.622.945-6.56.944-2.707 1.89 9.71.945 1.132.944 5.721.945 6.52.945 1.992.945.672.945-4.041.944-9.359.945-3.92.945 2.681.945.108.944-4.651.945-7.749.945-5.595.945.69.945.458.944-4.614.945-1.877.945 3.561.945 5.664.944 4.037.945 3.193.945 1.205.945-.461.945-1.093.944-3.597 1.89-5.24.945-4.273.944-.221.945 1.685.945-1.041.945.648.945-1.18.944-.074.945 2.228.945-2.783.945-1.577.944 4.122.945.33.945.54.945-.116.945-3.146.944 1.86.945 2.61.945-4.209.945.181.944 4.794.945 4.143.945 6.87.945 5.295.945.489.944 4.122.945 4.69.945-.232.945.712.944-1.541.945-3.908.945-.323.945.827.945-2.946.944-3.6.945-2.859.945-.506.945 2.753.944 1.631.945-.672.945 4.271.945 6.797.945 5.695.944 25.749.945 22.311.945 1.863.945 3.346.944-.579.945-1.094.945-1.922 1.89-91.214.944-2.928.945-4.117.945-.515.945-.727.944.23 1.89 45.332.945 3.793.944 5.56.945-.196.945-2.511 2.834-10.83.945-5.374.945-6.63.945-4.446.944-1.507.945.344.945.723.945 1.663 1.89 1.39.944 2.158.945 1.212.945-.124.944-.54.945-.778 1.89.143.945-.993.944-1.359.945-.518.945.14.945-.391.944-.64.945-.44.945-.272.945.548.945.377 1.89-.162.944-.436.945-.049.944.328.945-.168.945-.015 2.834 1.159.945-.052.945-.486 2.834-.989.945-.225.945.102.945.31 1.89.868 2.833.763.945-.213 1.89-1.322.945-.627 1.89-1.65.944-.995.945-.578 1.89-.013 1.889-.46.945.124.944-.115.945-.718 2.834-2.836 1.89-.493.945.1.945.518.944.115 1.89.787.945-.368.944-.663.945-1.13.945-.884 1.89-.353.944-.112.945.117.945.988.945 1.227.944.062.945-.368.945-.574.945-1.996.945-1.131 1.89-1.403.944 1.252.945 1.456.944-.804.945 1.771.945 2.891.945.111.945.593 1.89-1.271.944 3.359.945 2.683.944-.863 1.89.878.945.065.945-.404.944.113 2.835-.115.944 3.16.945 2.125.945-.478.945-2.054.945-3.652.944-.427.945 1.233.945-5.547.945-2.168.944 2.887.945.295.945 2.84.945.4.945-.878.944 2.281.945.549.945.33.945 2.767.944.778 1.89 5.915 1.89 3.784 1.89-1.503.944.712.945-2.621.944-3.602.945-1.25.945-.523.945.273.945-.898.944-2.021.945.367.945 1.582.945.308.944-.58.945.268 2.835 5.491.944.874.945.623.945 1.981.945.589.944-2.266.945-1.856.945-1.046.945-1.682.945-2.13 1.89-6.276.944.12.945.682.944-1.996.945-.508.945 1.681.945 1.418.945 2.407.944 1.018.945-1.195 1.89 2.547.944-1.403.945-1.782 1.89-4.779.945-.89.944-2.394.945-3.28.945-1.074.945.009 2.834-1.96.945 1.164.945 2.558.944-.631.945-1.225.945.685.945 1.668.944 2.728.945.859.945-1.877.945-.483.945-.914.944-4.152.945-7.753.945-10.73.945-8.488.944-2.998 1.89-.672.945.778.945 3.774 1.89 15.06.944 3.697.945 1.51.944 1.256.945-.239.945-2.944.945-8.078 1.89-26.347h0" style="fill:none;stroke:#009e73;stroke-linecap:round;stroke-width:1.5" id="line2d_2"/><path clip-path="url(#p0c4ed990b3)" d="m149.973 353.656 41.57-.1 3.779-.143 2.834-.162 1.89-.587.945-.527.944-.931.945-1.236 1.89-8.143.945-.607.944-1.742.945-3.829.945-2.896.945-1.459.944-1.721.945-5.55.945-10.533.945-9.095.945-3.646.944-6.158.945-13.45.945-7.96.945-4.233.944-9.358.945-2.188.945-1.236.945-2.228.945 16.245 1.89 41.91.944 33.846.945 22.727.944 16.812.945 26.535.945 5.185.945-11.201.945-5.651 1.89-15.435.944-9.925.945-15.78.944-3.544.945 9.378.945 6.057.945-4.052.945 1.904.944 12.154.945 10.25.945 5.104.945.89.944-.91.945 5.266.945 1.478 1.89-17.095.944-4.639.945-2.512.945-1.985.945-3.16.944-2.268.945.527.945 2.066.945.243 1.89-2.046.944-2.836 1.89-3.12.944-2.268.945-1.073 1.89-9.44.945 1.054.944-.79.945-.628.945.02.945-2.552.944-1.256.945.506.945-.992.945 1.762.945 3.282.944 1.944.945 2.248.945 5.145.945 3.606.944-1.276 3.78-8.102.944-3.87.945-2.065.945.587.945-.527.944-.85.945-.446.945 2.107.945 3.423.945.527.944.83.945 1.175.945-.02.945.931.944-.587 1.89-16.995.945-2.025.945-1.6.944-1.236 1.89-1.296.945 12.66.944 14.908.945 1.64.945.892.945 1.336.945.568.944.06 1.89-14.887.945-.163.944 1.054.945.85.945-.06.945 1.053.945 2.512.944 1.782.945.71.945-.386.945-1.215.944-1.033.945-1.479 1.89-3.95 1.89-3.18.944-.445.945-.142.945-.304.944 1.013 1.89.263 3.78 5.287.944-.122.945.892.944.465.945-1.336.945-.932 1.89-.345.944-.486.945-2.633.945-1.985.945.284.944-1.357.945-1.135.945.669.945 2.754.945 5.834.944 4.517.945 2.633.945 4.132.945 1.56.944-2.046 1.89-9.5 1.89-5.428.944-3.342.945-1.58.945.952.945 2.046 1.89 1.742.944 1.742.945 1.276.945 1.843.944.87.945.203.945.628 1.89-1.964.944-.365.945-.587.945-.243 1.89-1.803 1.889-.203.945.142 1.89-2.816 1.889 2.877.944.324.945-.365.945-.648.945 1.337.945 1.094.944-1.742.945-2.066.945-1.074h.945l.944.365 1.89-1.742.945.445.945.73.944.384.945-.303 1.89-1.155.944-.668.945-.203.945.182.945.79.945.284.944-1.215h.945l.945.303.945-.344.944.162.945-1.944.945-1.459.945 1.175.945-.081.944.648.945 1.053.945-2.775.945-.222.944 1.539.945-.75.945.061.945-2.592.945-1.702.944 3.646.945-2.066.945-4.618.945.729.944-1.074.945-1.62.945-6.421.945-9.52.945.263.944.122.945-4.193.945-.588.945.628.944 5.348.945 8.487.945 2.977.945 3.788.945.648.944-.263.945 6.907.945 5.186.945-3.2.944 1.437.945 3.95.945 4.457.945 2.815.945-6.684.944-5.368.945.608.945-8.001.945-9.763.944-2.006.945.993 1.89 14.928.945 11.262.944 13.794.945 10.189.945 4.091.945-1.195 1.89-12.194.944-9.236.945-4.922.945.385.944.648.945 3.423.945 1.499.945-.77.944-1.762.945-1.215.945.405.945-.122.945-2.511 1.89 4.294.944.587.945-3.605.944-8.265 1.89-188.214.945-12.052.945-6.037.944-4.517 1.89-7.393 1.89 358.382.944 13.632.945 2.167.945 6.907 1.89 19.912.944-78.713.945-92.832.945-2.309.944 12.74.945 9.217.945-.648 1.89-8.426.944.141.945 1.439.945-6.705.945-11.708.944-1.701.945 6.42.945 2.432.945 3.727 1.89 12.274.944 3.667.945-.426.945-3.443.944.668.945-1.235 1.89-25.441.945 1.458 1.89 7.88.944 3.99.945-3.363.944 2.553.945 6.522.945-.75.945-.992.945-2.836.944-9.58.945-.831.945 4.193.945-4.538 1.89-17.642.944-4.031.945.608.945-.102.944-4.091.945 1.884.945 9.864.945 11.627.944 4.76.945 6.32.945 5.063.945 1.904.945.02.944-5.367.945-8.953.945-7.373.945-5.47.944-3.017 1.89-1.236.945.973.945-1.054.944 2.552.945 2.168.945-.83.945 1.194.944 4.254 1.89-1.215.945-2.33.945-3.463.944.75.945-3.1.945-8.973.945 2.795.944 10.513.945 8.993.945 7.637.945 4.84.945 7.394.944 9.216.945 4.132.945-.202.945-.851.944-1.134.945-1.783.945-.79.945.73.945-4.214.944-5.307.945-1.64.945.547.945.688.944-1.033.945-1.944.945 3.646.945 5.205.945 1.378 1.89 3.22.944 1.297.945 2.106.944-1.438.945-.668.945 1.053.945-5.246.944-4.477.945-24.468.945-30.181.945-4.922.945-2.046.944-3.241 1.89 3.22.945 45.798.944 57.628.945 9.297.945-2.289.945-.993.945-1.276.944-1.54.945-23.941.945-30.343.945-6.907.944 1.134.945 1.438.945.567.945-.303 1.89-3.16.944.06.945-.384.945-1.135.944-.04.945.932.945 1.397.945 1.094.945-.121 1.89-2.532.944-.83.945-.993 1.89-2.573.944-.83.945.729.945 1.013.944.08.945-.364.945-.243.945.486.944.628 1.89-.182.945.506.945.77.944.202.945-.952.945-.729.945-.405 1.89-1.195.944-.486.945.101.945 1.053.944.649.945.141 1.89 1.317.944.648.945.932.945.223.945-.02.945.202.944-.85 1.89-2.229.945-1.944.944-1.317.945-1.053.945-1.317.945-.101 1.89.506.944.891.945-.06.945-.973.944-.587.945-.81.945-1.195.945-1.013.945-1.398.944-.75 1.89 1.864.945.04.944.467.945.202.945.567.945 1.6 1.89.81 1.889 3.485.945.506.944-1.235.945-2.41.945-1.014.945-1.904.945-.87.944.283.945-.121.945 1.539.945 2.876.944-.304.945.405.945-1.296.945-4.375 1.89 2.147.944-1.438 1.89 4.962.944.831.945 3.018.945-.304.945-.142.945 1.256.944.912 1.89 2.694.945-.061.944 2.208.945.445.945-2.45 1.89-7.82.944-.688.945 1.337.945-4.395.945-2.026.944 3.99 1.89 6.28h.945l.945-1.52.944 3.403.945 2.168.945-1.945.945-1.56.944-1.822 1.89 2.106.945-1.033.945-.263.944.486.945 1.843.945 2.33.945.567.944 1.154.945.547.945-.121.945 1.154.945.891.944-.222.945-1.54.945-1.276.945.527.944.162.945-.71 1.89-2.997.945 1.053.944.588.945-.223.945 2.046.945 1.6.944.142.945 1.418.945.607.945-1.519.945-3.058.944-4.74.945-4.072 2.834-6.137.945 1.215.945 4.092.945 2.957.945 2.492.944 3.038.945 1.58.945 1.114.945-.405.944-2.31.945-.769.945-1.033.945-2.897.945-1.782 1.89-5.53.944-1.722.945-3.443.944-2.735.945-1.093.945-1.904.945.931.945 2.694.944.83 1.89 5.632.945 1.722.944 3.443.945 1.864.945-1.013.945-.628.945-2.512 1.89-8.872.944-6.42.945-4.862 1.89-4.983.944-.101.945.223.945-.203.944 2.491 1.89 2.006.945 4.375.944-.952 1.89-8.305.945-11.262 1.89-26.535h0" style="fill:none;stroke:#d55e00;stroke-linecap:round;stroke-width:1.5" id="line2d_3"/><path clip-path="url(#p0c4ed990b3)" d="M149.973 353.656h52.907l1.89-4.126h.945l1.89-2.063.944-3.095.945-6.19.944-5.159.945-3.094.945-4.127.945-3.095.945-5.158.944-7.222.945-3.095.945 7.222.945 4.126.944-14.443.945-18.57.945-1.031 1.89 31.981.944-4.126.945-8.254.945 31.981.945 48.488.944 15.475 1.89-14.443.945 8.253.945 16.506.944-12.38.945-26.822.945-7.222.945 4.127h.944l.945-5.159.945-9.285.945-2.063.945 2.063.944-1.031.945 1.031 1.89 12.38.944 8.253.945 4.127.945-2.063.945 5.158.945 2.063.944-4.126h.945l.945-1.032.945 2.063.944 4.127.945-9.285.945-13.411 1.89-14.443.944-6.19.945-5.159.945-3.095.945 8.254.944 15.474.945 9.285.945 4.127.945 3.095.945 1.031h.944l.945-4.126.945-7.222.945-4.126.944-2.064.945-4.126.945-3.095h.945l1.89-6.19h1.889l1.89 8.253h.944l1.89 12.38 1.89-2.063 1.889-6.19h.945l1.89-6.19 3.778 8.253h.945l.945-2.063 1.89-2.064 1.889-6.19.945-2.063h1.89l.944-1.031h.945l.945 3.095.944 4.126.945 2.063h1.89l.945-1.031h.944l.945-1.032.945-5.158.945-3.095h.944l.945 6.19.945 7.221h.945l.945 1.032.944 6.19.945 4.127h.945l.945-2.064.944-4.126 1.89-6.19.945-4.127.945-2.063h.944l.945-3.095.945 2.063.945 7.222.944 3.095.945 1.031h1.89l.945 1.032.944-2.063.945-5.159.945-1.031.945 1.031h1.89l2.834 3.095h.944l.945-2.063.945-1.032h.945l1.89-4.126.944 1.032h1.89l.944 1.031h.945l.945 2.063h.945l.944-4.126.945-1.032.945 2.064.945 1.031h.945l.944-2.063 1.89 4.126.945-1.031h.944l.945-1.032h.945l.945 2.063.945-3.094.944 2.063.945 6.19.945-1.032h1.89l.944-2.063.945 4.126h.945l.944-7.221.945-1.032h1.89l.945-1.031.944-4.127h.945l.945 5.158.945 2.063h1.89l1.889 10.317h.945l1.89-2.063h1.889l.944-5.159.945-6.19.945-7.221.945-15.475.945-11.348.944-2.063h.945l.945 2.063.945-2.063.944 5.158.945 22.696.945 12.38.945-4.126.945-6.19.944-3.095.945 11.348.945 4.126.945-6.19.944 9.285.945 14.443.945 12.38.945 2.064.945-14.444 1.89-16.506.944-20.633.945-13.411.944-6.19.945-5.158.945 5.158 1.89 12.38.944 12.38.945 5.158h.945l.945-1.032.944-7.222.945 3.095.945-7.221.945-18.57.945-2.063h.944l.945 10.316.945 5.159.945-24.76.944 4.127.945 18.57.945-10.317.945-5.158.945-1.032.944 11.348.945 30.95.945 17.538.945 20.633.944 11.348.945-10.317.945-2.063.945-5.158.945-14.443.944-36.108.945-63.962.945-14.444.945 24.76.944 3.095.945-3.095.945 5.158.945 25.792.945 54.677.944 42.298.945 2.063.945-6.19.945 2.063h.944l.945 12.38.945-3.095.945-35.076 2.834-33.013.945-19.601.945-42.298.944 2.064.945 25.79h.945l1.89 20.634 1.89 56.74 1.889-36.107h1.89l.944-15.475.945-18.57.945-1.031.944-10.317.945-22.696.945-10.317.945 14.444.944 35.076.945 14.443.945 3.095.945 23.728.945 35.076.944 20.633.945 11.348.945-6.19.945-11.348.944 7.221.945 6.19.945-5.158.945-10.317.945-54.677.944-26.823.945 26.823.945-9.285 1.89-54.677.944-5.158.945 63.962.945 50.55.945-38.17.944-24.76.945 22.696.945 33.013.945 10.317.944-48.488.945-59.836.945 30.95.945 46.424.945-3.095.944-19.601.945-12.38 1.89 66.026 1.89-42.298.944-1.032.945 12.38.945 7.222.944-27.855.945-5.158.945 16.506.945-12.38.944-17.538.945-11.348.945 7.222.945 6.19.945-20.633.944-15.475 1.89 37.14.945-1.032.944-7.222.945 7.222.945 24.76.945 10.316.945-21.665.944-7.221.945 14.443h.945l.945-11.348.944-20.633.945-7.222.945 24.76.945 13.411.945-9.285h.944l.945 8.253.945 12.38.945 5.158.944-15.474.945-18.57.945-2.063.945-9.285.945 5.158.944 11.348h.945l.945-2.063.945-5.158h.944l.945 18.57.945-1.032.945-17.538.945-7.222 1.89 10.317v25.79l.944 5.16.945-10.317.944 4.126.945 16.507.945 11.348.945-4.127.945-16.506.944-7.222.945-3.095h.945l.945 1.032.944-3.095.945 4.127.945 8.253 1.89 18.57.944-10.317.945-16.506.945-2.064.945 2.064.944-6.19.945-10.317.945-6.19.945 7.222.944 11.348.945-2.063.945-7.222.945 10.317.945 13.411.944 2.063.945-6.19.945-7.221.945 7.221.944 8.254.945-5.159.945-6.19.945-1.031.945 6.19.944 5.158.945-5.158.945-7.222.945-5.158.944-2.063h.945l1.89-8.254 1.89-4.126h4.723l.945 1.032.945 4.126.945 3.095h2.834l1.89-6.19 1.889-4.126h2.834l.945 6.19.945 7.221.945 1.032h3.779l.945-3.095.944-4.127.945-1.032 1.89-8.253h3.779l.945-1.031.944 7.221.945 8.253h3.78l.944 1.032.945-4.127.945-5.158h2.834l.945-1.031.944-2.064.945 1.032.945 2.063h2.834l.945 2.063.945 3.095.945-6.19.944-7.221h.945l1.89-45.393.945-4.126.944-7.222.945 2.064.945 7.221h.945l1.89 73.247.944 2.064.945 11.348.945 13.411.944 3.095h.945l1.89-34.044.944-4.127 1.89-28.886.945-5.158h.945l.944 3.095.945 4.126.945 11.348.945 16.507.944 9.285.945 3.094h.945l.945 8.254.945 5.158 1.89-18.57.944-5.158.945-2.063h.944l1.89-27.855.945-5.158h.945l.944-1.032.945-5.158h.945l.945 12.38.944 10.316.945 4.127.945 5.158.945 4.127.945 5.158h.944l.945-16.506.945-2.064.945 15.475 1.89-18.57.944 1.032h.945l.945 5.158.944-2.063.945-10.317.945 8.254.945 11.348h1.89l.944 13.411.945 9.285.945-2.063h.944l.945-4.127.945-2.063h.945l.944-9.285.945-6.19h1.89l.945-3.095.944-6.19h.945l.945 4.127.945-1.032.944 1.032h.945l.945 10.316.945 16.507h.945l.944-12.38.945-5.158.945 4.126.945-3.095 1.89-18.57h.944l1.89 27.855.944-1.031.945 4.126.945 5.158.945 1.032h.944l.945-12.38.945-17.538.945-6.19.945-1.031 1.89-4.127h.944l.945 9.285.944 14.443.945-4.127.945-11.348.945-6.19.945-4.126h.944l.945-4.127.945-8.253 1.89 25.791.944 6.19.945 9.285h.945l.945-8.253.944-7.222.945-11.348.945-6.19.945 5.158.944-1.031h.945l.945 4.126.945 3.095.945 9.285.944-1.031.945-23.728.945-12.38h.945l1.89 23.728.944-16.507.945-9.284.945 14.443.944 8.253h.945l1.89-22.696.944 5.158.945-6.19.945-7.222.945 4.127h.944l.945 4.127h0" style="fill:none;stroke:#0072b2;stroke-linecap:round;stroke-width:1.5" id="line2d_4"/><path clip-path="url(#p0c4ed990b3)" d="M117 353.656h725.4" style="fill:none;stroke:red;stroke-dasharray:1.5,2.475;stroke-dashoffset:0;stroke-width:1.5" id="line2d_5"/><path d="M117 576.72V77.76" style="fill:none;stroke:#d3d3d3;stroke-linecap:square;stroke-linejoin:miter;stroke-width:1.25" id="patch_3"/><path d="M117 576.72h725.4" style="fill:none;stroke:#d3d3d3;stroke-linecap:square;stroke-linejoin:miter;stroke-width:1.25" id="patch_4"/><g id="matplotlib.axis_1"><g id="xtick_1"><g style="fill:#696969" transform="matrix(.16 0 0 -.16 118.745 598.378)" id="text_1"><defs><path d="M9.813 72.906h9.859V5.078q0-13.187-5-19.14-5-5.954-16.094-5.954h-3.75v8.297h3.078q6.531 0 9.219 3.672Q9.813-4.39 9.813 5.078z" id="DejaVuSans-74"/><path d="M34.281 27.484q-10.89 0-15.093-2.484-4.204-2.484-4.204-8.5 0-4.781 3.157-7.594 3.156-2.797 8.562-2.797 7.485 0 12 5.297 4.516 5.297 4.516 14.078v2zm17.922 3.72V0H43.22v8.297Q40.14 3.328 35.547.953q-4.594-2.375-11.234-2.375-8.391 0-13.36 4.719Q6 8.016 6 15.922q0 9.219 6.172 13.906 6.187 4.688 18.437 4.688h12.61v.89q0 6.203-4.078 9.594-4.078 3.39-11.453 3.39-4.688 0-9.141-1.124-4.438-1.125-8.531-3.375v8.312q4.921 1.906 9.562 2.844 4.64.953 9.031.953 11.875 0 17.735-6.156 5.86-6.14 5.86-18.64z" id="DejaVuSans-97"/><path d="M54.89 33.016V0h-8.984v32.719q0 7.765-3.031 11.61-3.031 3.858-9.078 3.858-7.281 0-11.484-4.64-4.204-4.625-4.204-12.64V0H9.08v54.688h9.03v-8.5q3.235 4.937 7.594 7.374Q30.078 56 35.797 56q9.422 0 14.25-5.828 4.844-5.828 4.844-17.156z" id="DejaVuSans-110"/></defs><use xlink:href="#DejaVuSans-74"/><use x="29.492" xlink:href="#DejaVuSans-97"/><use x="90.771" xlink:href="#DejaVuSans-110"/></g></g><g id="xtick_2"><g style="fill:#696969" transform="matrix(.16 0 0 -.16 203.212 598.378)" id="text_2"><defs><path d="M34.188 63.188 20.797 26.906h26.812zm-5.579 9.718h11.188L67.578 0h-10.25l-6.64 18.703h-32.86L11.188 0H.78z" id="DejaVuSans-65"/><path d="M18.11 8.203v-29H9.077v75.484h9.031v-8.296q2.844 4.875 7.157 7.234Q29.594 56 35.594 56q9.968 0 16.187-7.906 6.235-7.907 6.235-20.797T51.78 6.484q-6.218-7.906-16.187-7.906-6 0-10.328 2.375-4.313 2.375-7.157 7.25zm30.578 19.094q0 9.906-4.079 15.547-4.078 5.64-11.203 5.64-7.14 0-11.218-5.64-4.079-5.64-4.079-15.547 0-9.906 4.078-15.547 4.079-5.64 11.22-5.64 7.124 0 11.202 5.64t4.078 15.547z" id="DejaVuSans-112"/><path d="M41.11 46.297q-1.516.875-3.297 1.281Q36.03 48 33.89 48q-7.625 0-11.703-4.953-4.079-4.953-4.079-14.234V0H9.08v54.688h9.03v-8.5q2.844 4.984 7.375 7.39Q30.031 56 36.531 56q.922 0 2.047-.125 1.125-.11 2.484-.36z" id="DejaVuSans-114"/></defs><use xlink:href="#DejaVuSans-65"/><use x="68.408" xlink:href="#DejaVuSans-112"/><use x="131.885" xlink:href="#DejaVuSans-114"/></g></g><g id="xtick_3"><g style="fill:#696969" transform="matrix(.16 0 0 -.16 293.374 598.378)" id="text_3"><defs><path d="M8.5 21.578v33.11h8.984V21.922q0-7.766 3.016-11.656 3.031-3.875 9.094-3.875 7.265 0 11.484 4.64 4.234 4.64 4.234 12.656v31h8.985V0h-8.984v8.406Q42.047 3.422 37.718 1q-4.313-2.422-10.032-2.422-9.421 0-14.312 5.86Q8.5 10.296 8.5 21.578zM31.11 56z" id="DejaVuSans-117"/><path d="M9.422 75.984h8.984V0H9.422z" id="DejaVuSans-108"/></defs><use xlink:href="#DejaVuSans-74"/><use x="29.492" xlink:href="#DejaVuSans-117"/><use x="92.871" xlink:href="#DejaVuSans-108"/></g></g><g id="xtick_4"><g style="fill:#696969" transform="matrix(.16 0 0 -.16 376.114 598.378)" id="text_4"><defs><path d="M39.406 66.219q-10.75 0-17.078-8.016-6.312-8-6.312-21.828 0-13.766 6.312-21.781 6.328-8 17.078-8 10.735 0 17.016 8 6.281 8.015 6.281 21.781 0 13.828-6.281 21.828-6.281 8.016-17.016 8.016zm0 8q15.328 0 24.5-10.281 9.188-10.282 9.188-27.563 0-17.234-9.188-27.516-9.172-10.28-24.5-10.28-15.375 0-24.593 10.25-9.204 10.265-9.204 27.546t9.204 27.563q9.218 10.28 24.593 10.28z" id="DejaVuSans-79"/><path d="M48.781 52.594v-8.407q-3.812 2.11-7.64 3.157-3.828 1.047-7.735 1.047-8.75 0-13.593-5.547-4.829-5.532-4.829-15.547 0-10.016 4.829-15.563 4.843-5.53 13.593-5.53 3.907 0 7.735 1.046 3.828 1.047 7.64 3.156V2.094Q45.016.344 40.984-.531q-4.015-.89-8.562-.89-12.36 0-19.64 7.765-7.266 7.765-7.266 20.953 0 13.375 7.343 21.031Q20.22 56 33.016 56q4.14 0 8.093-.86 3.953-.843 7.672-2.546z" id="DejaVuSans-99"/><path d="M18.313 70.219V54.688h18.5v-6.985h-18.5V18.016q0-6.688 1.828-8.594 1.828-1.906 7.453-1.906h9.218V0h-9.218q-10.407 0-14.36 3.875-3.953 3.89-3.953 14.14v29.688H2.687v6.984h6.594V70.22z" id="DejaVuSans-116"/></defs><use xlink:href="#DejaVuSans-79"/><use x="78.711" xlink:href="#DejaVuSans-99"/><use x="133.691" xlink:href="#DejaVuSans-116"/></g></g><g id="xtick_5"><g style="fill:#696969" transform="matrix(.16 0 0 -.16 464.533 598.378)" id="text_5"><use xlink:href="#DejaVuSans-74"/><use x="29.492" xlink:href="#DejaVuSans-97"/><use x="90.771" xlink:href="#DejaVuSans-110"/></g></g><g id="xtick_6"><g style="fill:#696969" transform="matrix(.16 0 0 -.16 548.056 598.378)" id="text_6"><use xlink:href="#DejaVuSans-65"/><use x="68.408" xlink:href="#DejaVuSans-112"/><use x="131.885" xlink:href="#DejaVuSans-114"/></g></g><g id="xtick_7"><g style="fill:#696969" transform="matrix(.16 0 0 -.16 638.218 598.378)" id="text_7"><use xlink:href="#DejaVuSans-74"/><use x="29.492" xlink:href="#DejaVuSans-117"/><use x="92.871" xlink:href="#DejaVuSans-108"/></g></g><g id="xtick_8"><g style="fill:#696969" transform="matrix(.16 0 0 -.16 720.957 598.378)" id="text_8"><use xlink:href="#DejaVuSans-79"/><use x="78.711" xlink:href="#DejaVuSans-99"/><use x="133.691" xlink:href="#DejaVuSans-116"/></g></g><g id="xtick_9"><g style="fill:#696969" transform="matrix(.16 0 0 -.16 809.377 598.378)" id="text_9"><use xlink:href="#DejaVuSans-74"/><use x="29.492" xlink:href="#DejaVuSans-97"/><use x="90.771" xlink:href="#DejaVuSans-110"/></g></g></g><g id="matplotlib.axis_2"><g id="ytick_1"><g style="fill:#696969" transform="matrix(.16 0 0 -.16 73.733 544.782)" id="text_10"><defs><path d="M10.594 35.5h62.593v-8.297H10.594z" id="DejaVuSans-8722"/><path d="M12.406 8.297h16.11v55.625l-17.532-3.516v8.985l17.438 3.515h9.86V8.296H54.39V0H12.406z" id="DejaVuSans-49"/><path d="M31.781 66.406q-7.61 0-11.453-7.5Q16.5 51.422 16.5 36.375q0-14.984 3.828-22.484 3.844-7.5 11.453-7.5 7.672 0 11.5 7.5 3.844 7.5 3.844 22.484 0 15.047-3.844 22.531-3.828 7.5-11.5 7.5zm0 7.813q12.266 0 18.735-9.703 6.468-9.688 6.468-28.141 0-18.406-6.468-28.11-6.47-9.687-18.735-9.687-12.25 0-18.718 9.688-6.47 9.703-6.47 28.109 0 18.453 6.47 28.14Q19.53 74.22 31.78 74.22z" id="DejaVuSans-48"/></defs><use xlink:href="#DejaVuSans-8722"/><use x="83.789" xlink:href="#DejaVuSans-49"/><use x="147.412" xlink:href="#DejaVuSans-48"/></g></g><g id="ytick_2"><g style="fill:#696969" transform="matrix(.16 0 0 -.16 83.912 452.258)" id="text_11"><defs><path d="M10.797 72.906h38.719v-8.312H19.828v-17.86q2.14.735 4.281 1.094 2.157.36 4.313.36 12.203 0 19.328-6.688 7.14-6.688 7.14-18.11 0-11.765-7.328-18.296-7.328-6.516-20.656-6.516-4.593 0-9.36.781-4.75.782-9.827 2.344v9.922q4.39-2.39 9.078-3.563 4.687-1.171 9.906-1.171 8.453 0 13.375 4.437 4.938 4.438 4.938 12.063 0 7.609-4.938 12.047-4.922 4.453-13.375 4.453-3.953 0-7.89-.875-3.922-.875-8.016-2.735z" id="DejaVuSans-53"/></defs><use xlink:href="#DejaVuSans-8722"/><use x="83.789" xlink:href="#DejaVuSans-53"/></g></g><g id="ytick_3"><use xlink:href="#DejaVuSans-48" style="fill:#696969" transform="matrix(.16 0 0 -.16 97.32 359.735)" id="text_12"/></g><g id="ytick_4"><use xlink:href="#DejaVuSans-53" style="fill:#696969" transform="matrix(.16 0 0 -.16 97.32 267.212)" id="text_13"/></g><g id="ytick_5"><g style="fill:#696969" transform="matrix(.16 0 0 -.16 87.14 174.689)" id="text_14"><use xlink:href="#DejaVuSans-49"/><use x="63.623" xlink:href="#DejaVuSans-48"/></g></g><g style="fill:#696969" transform="matrix(0 -.2 -.2 0 65.573 445.117)" id="text_15"><defs><path d="M64.406 67.281v-10.39q-4.984 4.64-10.625 6.922-5.64 2.296-11.984 2.296-12.5 0-19.14-7.64-6.641-7.64-6.641-22.094 0-14.406 6.64-22.047 6.64-7.64 19.14-7.64 6.345 0 11.985 2.296 5.64 2.297 10.625 6.938V5.609Q59.234 2.094 53.437.33q-5.78-1.75-12.218-1.75-16.563 0-26.094 10.124-9.516 10.14-9.516 27.672 0 17.578 9.516 27.703 9.531 10.14 26.094 10.14 6.531 0 12.312-1.734 5.797-1.734 10.875-5.203z" id="DejaVuSans-67"/><path d="M44.281 53.078v-8.5q-3.797 1.953-7.906 2.922-4.094.984-8.5.984-6.688 0-10.031-2.047-3.344-2.046-3.344-6.156 0-3.125 2.39-4.906 2.391-1.781 9.626-3.39l3.078-.688q9.562-2.047 13.593-5.781 4.032-3.735 4.032-10.422 0-7.625-6.032-12.078-6.03-4.438-16.578-4.438-4.39 0-9.156.86Q10.688.296 5.422 2v9.281q4.984-2.594 9.812-3.89 4.829-1.282 9.579-1.282 6.343 0 9.75 2.172 3.421 2.172 3.421 6.125 0 3.656-2.468 5.61-2.453 1.953-10.813 3.765l-3.125.735q-8.344 1.75-12.062 5.39-3.704 3.64-3.704 9.985 0 7.718 5.47 11.906Q16.75 56 26.811 56q4.97 0 9.36-.734 4.406-.72 8.11-2.188z" id="DejaVuSans-115"/><path d="M56.203 29.594v-4.39H14.891q.593-9.282 5.593-14.142 5-4.859 13.938-4.859 5.172 0 10.031 1.266 4.86 1.265 9.656 3.812v-8.5Q49.266.734 44.187-.344 39.11-1.422 33.892-1.422q-13.094 0-20.735 7.61-7.64 7.625-7.64 20.625 0 13.421 7.25 21.296Q20.016 56 32.328 56q11.031 0 17.453-7.11 6.422-7.093 6.422-19.296zm-8.984 2.64q-.094 7.36-4.125 11.75-4.032 4.407-10.672 4.407-7.516 0-12.031-4.25-4.516-4.25-5.203-11.97z" id="DejaVuSans-101"/><path d="M44.39 34.188q3.172-1.079 6.172-4.594 3-3.516 6.032-9.672L66.609 0H56l-9.313 18.703q-3.624 7.328-7.015 9.719-3.39 2.39-9.25 2.39h-10.75V0h-9.86v72.906h22.266q12.5 0 18.656-5.234 6.157-5.219 6.157-15.766 0-6.89-3.203-11.437-3.204-4.532-9.297-6.282zM19.673 64.797V38.922h12.406q7.125 0 10.766 3.297 3.64 3.297 3.64 9.687 0 6.39-3.64 9.64-3.64 3.25-10.766 3.25z" id="DejaVuSans-82"/><path d="M8.594 75.984h20.703V69H17.578V-6.203h11.719v-6.984H8.594z" id="DejaVuSans-91"/><path d="M25.39 72.906h8.297L8.297-9.28H0z" id="DejaVuSans-47"/><path d="M45.406 46.39v29.594h8.985V0h-8.985v8.203Q42.578 3.328 38.25.953q-4.313-2.375-10.375-2.375-9.906 0-16.14 7.906-6.22 7.922-6.22 20.813 0 12.89 6.22 20.797Q17.968 56 27.874 56q6.063 0 10.375-2.375 4.328-2.36 7.156-7.234zm-30.61-19.093q0-9.906 4.079-15.547 4.078-5.64 11.203-5.64 7.125 0 11.219 5.64 4.11 5.64 4.11 15.547 0 9.906-4.11 15.547-4.094 5.64-11.219 5.64-7.125 0-11.203-5.64-4.078-5.64-4.078-15.547z" id="DejaVuSans-100"/><path d="M32.172-5.078q-3.797-9.766-7.422-12.735-3.61-2.984-9.656-2.984H7.906v7.516h5.282q3.703 0 5.75 1.765Q21-9.766 23.483-3.219l1.61 4.094-22.11 53.813H12.5l17.094-42.766 17.093 42.766h9.516z" id="DejaVuSans-121"/><path d="M30.422 75.984v-89.171H9.719v6.984H21.39V69H9.719v6.984z" id="DejaVuSans-93"/></defs><use xlink:href="#DejaVuSans-67"/><use x="69.824" xlink:href="#DejaVuSans-97"/><use x="131.104" xlink:href="#DejaVuSans-115"/><use x="183.203" xlink:href="#DejaVuSans-101"/><use x="244.727" xlink:href="#DejaVuSans-32"/><use x="276.514" xlink:href="#DejaVuSans-82"/><use x="343.746" xlink:href="#DejaVuSans-97"/><use x="405.025" xlink:href="#DejaVuSans-116"/><use x="444.234" xlink:href="#DejaVuSans-101"/><use x="505.758" xlink:href="#DejaVuSans-32"/><use x="537.545" xlink:href="#DejaVuSans-91"/><use x="576.559" xlink:href="#DejaVuSans-32"/><use x="608.346" xlink:href="#DejaVuSans-99"/><use x="663.326" xlink:href="#DejaVuSans-97"/><use x="724.605" xlink:href="#DejaVuSans-115"/><use x="776.705" xlink:href="#DejaVuSans-101"/><use x="838.229" xlink:href="#DejaVuSans-115"/><use x="890.328" xlink:href="#DejaVuSans-47"/><use x="924.02" xlink:href="#DejaVuSans-100"/><use x="987.496" xlink:href="#DejaVuSans-97"/><use x="1048.775" xlink:href="#DejaVuSans-121"/><use x="1107.955" xlink:href="#DejaVuSans-32"/><use x="1139.742" xlink:href="#DejaVuSans-93"/></g></g><g style="fill:#696969" transform="matrix(.24 0 0 -.24 245.86 71.76)" id="text_16"><defs><path d="M9.813 72.906h13.28l32.329-60.984v60.984h9.562V0h-13.28L19.39 60.984V0H9.813z" id="DejaVuSans-78"/><path d="M4.203 54.688h8.985l11.234-42.672 11.172 42.672h10.593l11.235-42.672 11.187 42.672h8.985L63.28 0H52.688L40.922 44.828 29.109 0H18.5z" id="DejaVuSans-119"/><path d="M8.203 72.906h46.875v-4.203L28.61 0H18.312L43.22 64.594H8.203z" id="DejaVuSans-55"/><path d="M2.984 54.688H12.5L29.594 8.797l17.093 45.89h9.516L35.687 0H23.485z" id="DejaVuSans-118"/><path d="M45.406 27.984q0 9.766-4.031 15.125-4.016 5.375-11.297 5.375-7.219 0-11.25-5.375-4.031-5.359-4.031-15.125 0-9.718 4.031-15.093t11.25-5.375q7.281 0 11.297 5.375 4.031 5.375 4.031 15.093zm8.985-21.203q0-13.953-6.203-20.765Q42-20.797 29.203-20.797q-4.734 0-8.937.703-4.203.703-8.157 2.172v8.735q3.954-2.141 7.813-3.157 3.86-1.031 7.86-1.031 8.843 0 13.234 4.61 4.39 4.609 4.39 13.937v4.453q-2.781-4.844-7.125-7.234Q33.938 0 27.875 0 17.828 0 11.672 7.656q-6.156 7.672-6.156 20.328 0 12.688 6.156 20.344Q17.828 56 27.875 56q6.063 0 10.406-2.39 4.344-2.391 7.125-7.22v8.297h8.985z" id="DejaVuSans-103"/><path d="M30.61 48.39q-7.22 0-11.422-5.64-4.204-5.64-4.204-15.453 0-9.813 4.172-15.453 4.188-5.64 11.453-5.64 7.188 0 11.375 5.655 4.203 5.672 4.203 15.438 0 9.719-4.203 15.406-4.187 5.688-11.375 5.688zm0 7.61q11.718 0 18.406-7.625 6.703-7.61 6.703-21.078 0-13.422-6.703-21.078-6.688-7.64-18.407-7.64-11.765 0-18.437 7.64-6.656 7.656-6.656 21.078 0 13.469 6.656 21.078Q18.844 56 30.609 56z" id="DejaVuSans-111"/><path d="M37.11 75.984V68.5h-8.594q-4.828 0-6.72-1.953-1.874-1.953-1.874-7.031v-4.828h14.797v-6.985H19.922V0H10.89v47.703H2.297v6.984h8.594V58.5q0 9.125 4.25 13.297 4.25 4.187 13.468 4.187z" id="DejaVuSans-102"/><path d="M9.813 72.906h9.859V42.094L52.39 72.906h12.703L28.906 38.922 67.672 0H54.688L19.672 35.11V0h-9.86z" id="DejaVuSans-75"/></defs><use xlink:href="#DejaVuSans-78"/><use x="74.805" xlink:href="#DejaVuSans-101"/><use x="136.328" xlink:href="#DejaVuSans-119"/><use x="218.115" xlink:href="#DejaVuSans-32"/><use x="249.902" xlink:href="#DejaVuSans-67"/><use x="319.727" xlink:href="#DejaVuSans-97"/><use x="381.006" xlink:href="#DejaVuSans-115"/><use x="433.105" xlink:href="#DejaVuSans-101"/><use x="494.629" xlink:href="#DejaVuSans-115"/><use x="546.729" xlink:href="#DejaVuSans-32"/><use x="578.516" xlink:href="#DejaVuSans-55"/><use x="642.139" xlink:href="#DejaVuSans-100"/><use x="705.615" xlink:href="#DejaVuSans-32"/><use x="737.402" xlink:href="#DejaVuSans-97"/><use x="798.682" xlink:href="#DejaVuSans-118"/><use x="857.861" xlink:href="#DejaVuSans-103"/><use x="921.338" xlink:href="#DejaVuSans-32"/><use x="953.125" xlink:href="#DejaVuSans-115"/><use x="1005.225" xlink:href="#DejaVuSans-108"/><use x="1033.008" xlink:href="#DejaVuSans-111"/><use x="1094.189" xlink:href="#DejaVuSans-112"/><use x="1157.666" xlink:href="#DejaVuSans-101"/><use x="1219.189" xlink:href="#DejaVuSans-32"/><use x="1250.977" xlink:href="#DejaVuSans-111"/><use x="1312.158" xlink:href="#DejaVuSans-102"/><use x="1347.363" xlink:href="#DejaVuSans-32"/><use x="1379.15" xlink:href="#DejaVuSans-55"/><use x="1442.773" xlink:href="#DejaVuSans-32"/><use x="1474.561" xlink:href="#DejaVuSans-97"/><use x="1535.84" xlink:href="#DejaVuSans-118"/><use x="1595.02" xlink:href="#DejaVuSans-103"/><use x="1658.496" xlink:href="#DejaVuSans-47"/><use x="1692.188" xlink:href="#DejaVuSans-49"/><use x="1755.811" xlink:href="#DejaVuSans-48"/><use x="1819.434" xlink:href="#DejaVuSans-48"/><use x="1883.057" xlink:href="#DejaVuSans-75"/></g><g id="legend_1"><path d="M694.75 184.5H831.2q3.2 0 3.2-3.2V88.96q0-3.2-3.2-3.2H694.75q-3.2 0-3.2 3.2v92.34q0 3.2 3.2 3.2z" style="fill:none;opacity:.8;stroke:#ccc;stroke-linejoin:miter" id="patch_5"/><path d="M697.95 98.718h32" style="fill:none;stroke:#000;stroke-linecap:round;stroke-width:1.5" id="line2d_6"/><g style="fill:#696969" transform="matrix(.16 0 0 -.16 742.75 104.317)" id="text_17"><defs><path d="M8.688 72.906h9.921V28.61q0-11.718 4.235-16.875 4.25-5.14 13.781-5.14 9.469 0 13.719 5.14 4.25 5.157 4.25 16.875v44.297H64.5V27.391q0-14.25-7.063-21.532-7.046-7.28-20.812-7.28-13.828 0-20.89 7.28-7.047 7.282-7.047 21.532z" id="DejaVuSans-85"/><path d="M53.516 70.516V60.89q-5.61 2.687-10.594 4-4.984 1.328-9.625 1.328-8.047 0-12.422-3.125t-4.375-8.89q0-4.845 2.906-7.313 2.907-2.453 11.016-3.97l5.953-1.218q11.031-2.11 16.281-7.406 5.25-5.297 5.25-14.172 0-10.61-7.11-16.078-7.093-5.469-20.812-5.469-5.172 0-11.015 1.172Q13.14.922 6.89 3.219v10.156q6-3.36 11.765-5.078 5.766-1.703 11.328-1.703 8.438 0 13.032 3.312 4.593 3.328 4.593 9.485 0 5.359-3.297 8.39-3.296 3.032-10.812 4.547L27.484 33.5q-11.03 2.188-15.968 6.875-4.922 4.688-4.922 13.047 0 9.672 6.812 15.234 6.813 5.563 18.766 5.563 5.14 0 10.453-.938 5.328-.922 10.89-2.765z" id="DejaVuSans-83"/></defs><use xlink:href="#DejaVuSans-85"/><use x="73.193" xlink:href="#DejaVuSans-83"/></g><path d="M697.95 122.203h32" style="fill:none;stroke:#009e73;stroke-linecap:round;stroke-width:1.5" id="line2d_8"/><g style="fill:#696969" transform="matrix(.16 0 0 -.16 742.75 127.802)" id="text_18"><use xlink:href="#DejaVuSans-78"/><use x="74.805" xlink:href="#DejaVuSans-74"/></g><path d="M697.95 145.688h32" style="fill:none;stroke:#d55e00;stroke-linecap:round;stroke-width:1.5" id="line2d_10"/><g style="fill:#696969" transform="matrix(.16 0 0 -.16 742.75 151.287)" id="text_19"><defs><path d="M19.672 34.813V8.108H35.5q7.953 0 11.781 3.297 3.844 3.297 3.844 10.078 0 6.844-3.844 10.078-3.828 3.25-11.781 3.25zm0 29.984V42.828h14.61q7.218 0 10.75 2.703 3.546 2.719 3.546 8.282 0 5.515-3.547 8.25-3.531 2.734-10.75 2.734zm-9.86 8.11h25.204q11.28 0 17.375-4.688Q58.5 63.53 58.5 54.89q0-6.703-3.125-10.657-3.125-3.953-9.188-4.922 7.282-1.562 11.313-6.53 4.031-4.954 4.031-12.376 0-9.765-6.64-15.093Q48.25 0 35.984 0H9.812z" id="DejaVuSans-66"/></defs><use xlink:href="#DejaVuSans-66"/><use x="68.604" xlink:href="#DejaVuSans-101"/><use x="130.127" xlink:href="#DejaVuSans-114"/><use x="169.49" xlink:href="#DejaVuSans-103"/><use x="232.967" xlink:href="#DejaVuSans-101"/><use x="294.49" xlink:href="#DejaVuSans-110"/></g><path d="M697.95 169.173h32" style="fill:none;stroke:#0072b2;stroke-linecap:round;stroke-width:1.5" id="line2d_12"/><g style="fill:#696969" transform="matrix(.16 0 0 -.16 742.75 174.773)" id="text_20"><defs><path d="M54.89 33.016V0h-8.984v32.719q0 7.765-3.031 11.61-3.031 3.858-9.078 3.858-7.281 0-11.484-4.64-4.204-4.625-4.204-12.64V0H9.08v75.984h9.03V46.188q3.235 4.937 7.594 7.374Q30.078 56 35.797 56q9.422 0 14.25-5.828 4.844-5.828 4.844-17.156z" id="DejaVuSans-104"/></defs><use xlink:href="#DejaVuSans-82"/><use x="64.982" xlink:href="#DejaVuSans-117"/><use x="128.361" xlink:href="#DejaVuSans-116"/><use x="167.57" xlink:href="#DejaVuSans-104"/><use x="230.949" xlink:href="#DejaVuSans-101"/><use x="292.473" xlink:href="#DejaVuSans-114"/><use x="333.586" xlink:href="#DejaVuSans-102"/><use x="368.791" xlink:href="#DejaVuSans-111"/><use x="429.973" xlink:href="#DejaVuSans-114"/><use x="469.336" xlink:href="#DejaVuSans-100"/></g></g></g></g><defs><clipPath id="p0c4ed990b3"><path d="M117 77.76h725.4v498.96H117z"/></clipPath></defs></svg>