<svg height="864" viewBox="0 0 936 648" width="1248" xmlns="http://www.w3.org/2000/svg" xmlns:xlink="http://www.w3.org/1999/xlink"><defs><style>*{stroke-linecap:butt;stroke-linejoin:round}</style></defs><g id="figure_1"><path d="M0 648h936V0H0z" style="fill:#fff" id="patch_1"/><g id="axes_1"><path d="M117 576.72h725.4V77.76H117z" style="fill:none" id="patch_2"/><path clip-path="url(#pc7a7cf0cca)" d="m149.973 554.04 38.351-.11 2.806-.146 1.871-.296 1.87-.463 1.872-.637 1.87-.966 1.871-1.16 1.87-1.198 2.807-2.287 1.87-1.725 1.872-1.172 1.87-1.157 1.871-1.056 1.871-.602 2.806-.3 1.871-.033.935.209 1.871.119 1.871.243.935.03 1.871-.187 1.871.093 2.806.212 2.806-.136.936.17 1.87.191.936.165 2.806.782 2.806.416.936.106 2.806.646 1.87.089 1.872.13 1.87.202 3.742.144 1.87.191 4.678.058.935.128.935-.153 9.354-.07 1.871-.305.936-.2.935-.067 2.806-.922 3.742-2.134 1.87-1.166 1.871-1.338 1.871-1.617.936-.822 3.741-2.254 2.806-1.994 6.548-4.003.936-.388.935-.546 2.806-1.063.936-.316 1.87-.354 2.807.264.935.049.935.21.936.057.935.176 2.806 1.111 1.871.89 1.87.746.936.179 4.677 1.834 1.871.46 3.742 1.325 4.677 1.855 4.677 1.41 1.87.007.936.33 3.741.051.936.476 2.806.93.935-.032.936.172 1.87-.01.936.15.935-.212 2.807.148.935-.199.935-.93 3.742-.961 4.677-.477.935-.035 1.871-.332.935.04 2.807-.762.935-.348.935-.137 3.742-1.18 2.806-1.673.936-.155.935-.4.935-.095.936-.553.935-.35.936-.585 1.87-1.663.936-.466.935-.83 1.871-1.312 1.87-1.708 1.872-1.802 1.87-1.885 2.807-4.293 2.806-4.584 2.806-6.22 1.87-4.883.936-1.904 1.87-4.424 2.807-6.129.936-1.436.935-1.166.935-1.535 1.871-2.366.935 1.893.936-.76.935.238 1.871-.063.935-.705 1.871-1.845 2.806-3.04.936-.777 1.87-2.528.936-3.814.935-2.33.936-1.752.935-1.501.936-1.037.935-.59.935-1.363 1.871-1.242.936.368.935-.249.935.094.936.564.935-.251.936.99.935 5.604.935-.291.936 1.002.935.371.936.066.935.496.935.208.936 3.244.935-3.049.936-.682.935-1.57 1.87-1.922.936-2.71.936-6.237.935-1.094.935-1.754.936-1.164.935-.903.936-.012.935-.265.935-2.89.936 2.79.935.989.936 3.455.935 1.5.935 2.2.936 2.803.935 3.409 1.87 5.075.936 2.176 1.871 4.772 2.806 6.771.936 1.757.935-.023 1.87 4.276 2.807 5.925.935 1.323.936 1.985 1.87 3.59 2.807 5.451.935 1.561.936 2.702 3.741 6.431 2.806 3.147 3.742 2.944.935.686.936.402.935-.045 1.871.326.935.141 2.807 1.266.935-1.094 3.742 1.925 1.87.812.936-.015.935.098 2.806.61.936.068.935.183.935 1.242.936-.027.935-.677 1.871-.533.935-.347.936-.204.935-.424 1.871-.521.935-.522 2.807-.634.935-.682.935-.164.936.213.935-.354 1.871-.348 1.87-.145.936-.47.936-.245.935.11.935-.305.936.32.935-.143.936.198.935.03 1.87.774 1.872 1.001.935.45 2.806 2.214 2.806 1.407.936.367 2.806 1.815 2.806 1.611 1.87.688 4.678 2.795.935.404.936.647 1.87.905 2.807 1.62 1.87.596 2.807 1.061 1.87 1.138.936.289.935.74.936.165 1.87.689.936 1.654 3.741.958.936.085.935.373 1.871.265.935.02.936-.3.935.334.936.076.935.228.935-1.146 8.419.742 1.87-.133.936-.05.936-1.646.935-.242 1.87.148.936.351 1.87-.952.936-1.078.936-.635 1.87-.076.936-.62.935-.85.936-.689.935.904.935-.992 1.871-.455.936-1.703 1.87-2.017.936-.507.935-1.49.936-.431.935-.26 3.742-7.2.935-2.198 1.87-.971.936-2.403.936-2.752.935-1.64.935-1.919.936-2.661 1.87-1.335.936-2.671.935-1.725.936-2.204.935-1.261.936-2.02 1.87-1.281.936-3.849.935.188.936-1.631 2.806-3.162.935-.14.936-2.73.935.371.935-.479.936-1.53.935-.266.936-1.107.935.052.935-.652.936-.498.935-1.448.936-.497.935.253.935.417.936-.12.935 5.903.936-4.71.935-.414 2.806 1.502.935.081.936-.145.935.235.936 1.274 1.87 1.415.936-.066.935.139.936-4.094.935 5.341.935 1.146.936 1.332.935 1.133.936.697.935.166.935 2.818 3.742 5.02.935.748.936.44 1.87 2.086 1.871 1.373.936.846 1.87.794.936 2.22.935.054.936.685 1.87 1.7.936.333.935.115.936 1.581.935.466.936 1.228 1.87 1.531 1.871.42.936.565.935.754.935.375.936.087.935.307 1.87.23.936-.078.936.21 1.87.02 2.807-.361.935-.652.935.138.936-.14.935.673.936-1.268.935-.998.935-.148.936-.75.935-.423 2.806-2.64 1.871-.574.936-1.012.935-.306.935-.65.936 1.053.935 2.429.936 1.146.935-.01.935-2.113.936-.587 1.87-1.667.936-1.048.935-.533.936-.1.935-1.203.936-.662.935-.91.935-2.892.936-3.543.935-.832.936-.387.935.419 2.806-.66 1.87-1.074.936-1.183.936-3.29.935-2.356.936-2.954.935-4.422.935-.589.936-.219.935-4.785.936-10.632.935-8.234.935-10.729.936-13.692.935-8.632.935-2.66.936-6.683 1.87-44.08 1.871-29.784.936-22.348.935-12.105h0" style="fill:none;stroke:#000;stroke-linecap:round;stroke-width:1.5" id="line2d_1"/><path clip-path="url(#pc7a7cf0cca)" d="m149.973 554.04 37.416-.086 1.87-.117 1.871-.288.936-.354.935-.184.935-.507.936-.664 1.87-2.02.936-.83.935-2.846.936-2.223 1.87-5.204.936-3.658.935-2.27 2.807-12.19.935-4.369 1.87-6.294 1.872-5.522.935-1.287.935-1.86 1.871-3.114.935.595.936-2.514.935 1.56.936-1.097 1.87 2.803.936-.577.935.093.936-.294 1.87-1.143.936 1.561 1.87.485.936.673.935 1.813.936-.233.935 2.19.936.705.935.492.935.984.936 2.284.935 1.45 1.871 5.258.935.447.936 1.956.935 2.385.936.85.935 2.156.935 1.835 1.871 2.976.936 1.549.935 2.055.935-.208.936 1.557.935-.103 1.87 1.435.936 1.436 1.871 1.006.936.145 1.87-.103.936.198 1.87.955.936 1.42.935.4.936.996.935.704.935.509.936-.198.935.898.936.698 1.87.792 1.871 1.612.936.372.935.647 2.806.924.936.067.935.48.935.253.936-.042 1.87.046.936.452.935-1.947.936-.046.935.175.936-.038.935.153 1.87-.065 1.872-.027.935.055.935-.07 1.871.133.936-.108.935 2.222 1.87-.014.936-.035.936-.154.935.002.935-.149.936.24.935.387.936.032.935.461 1.87.004 3.742-.434 2.807-.555 1.87-.02.936-.737.935-.123.935-.405 1.871-.17h.936l.935-.152 1.87.28 2.807.45.935-.026.936-.52 1.87.242.936.356 1.87-.027.936.019.936.316.935.08.935-.185.936.226.935.038 1.871.409.935.402.936.245.935-.082.936-.32 2.806-.03.935-.32.936-.183.935.235 1.87-.311.936.028 4.677-.498.936.018 10.289-1.38 2.806-1.07.935-.023.936-.367.935-.051.936-.292.935-.56 3.742-.688.935-.846.935-.366 1.871-.192.936.103.935-.613.935-.266.936-.412 1.87-.066 1.871-1.534.936-.414.935-.6.936.156.935-.207.935-1.205.936-.436 2.806-2.464.935-.668.936-1.345 1.87-1.034.936-.203.935-.964.936-1.63.935-.922.936-1.287.935-1.491 1.87-1.99.936-2.457.936-1.608.935-2.24.935-1.638 1.871-6.671.936-.982.935-2.539.935-1.858.936-2.56 1.87-3.38.936-2.255.935-1.756.936-.575 1.87-2.277.936-.805.935.635.936.806.935-1.12.935-.668.936-.287.935-.705.936-2.349.935-.755.935-2.378.936.02.935-1.384.936-.466.935-.746.935.513.936-2.812.935-.363.936-1.854.935.738.935-1.612.936.62.935 2.038.936 1.306.935.986.935.452.936 1.007.935-.399.936.48.935-1.626.935 2.584 1.871 4.484.936.356.935 1.133.935-.97.936-1.85.935-1.522.936 1.735.935-55.26.935-1.916.936-1.203.935-3.2.936-2.261 1.87-7.77.936-2.99.935-1.072.936-3.643.935-2.302.935-.997.936-.562.935-1.69.936 54.473.935 1.888.935.476.936 2.804.935 3.253.935.303.936.431.935 1.377.936-.219.935 3.538.935 2.705.936.437 1.87 1.814.936.39.935 1.703.936 3.607.935 2.029.936-.032.935 3.042.935 1.084.936 1.824.935 1.383.936.507.935 1.257.935 2.6.936 1.748 1.87 4.832.936-.557.935-2.073.936.015.935 1.363.936 1.882.935 2.653.935-.165.936.484.935 1.443.936.094.935-.158.935-.436.936-.256.935-1.957 1.871.879.935.095.936-.752.935-.973.936-.564.935.458.935-1.116.936-.758.935-.275.936-.4.935.308.935-1.06.936.369.935-.494.936-.716.935-1.475.935-.8.936-1.37 2.806-2.581.935-.37.936-.15.935-1.595.935-.921.936-1.378.935-.922.936-1.333.935.743.935-1.31.936-.158.935.535.936-.65.935.37.935 1.258.936-.167.935-.448.936 1.622 3.741 4.9.936.12.935 1.95.935.17.936.603 1.87 1.5 2.807 3.16.935 1.567.936.941.935 1.952.935 13.24.936 2.11.935 1.675.936 1.93 1.87 5.6.936 2.25.935 1.384.936 2.117.935 1.09 1.87 4.249.936 2.46.936 1.562.935-10.56 1.87 3.677.936 2.094.936 1.769 1.87 2.159.936.732.935.414.935 2.404.936.983 1.87.676 1.871.102 1.871.303 1.871.105.935.451.936.027.935.174.936.561.935.198 1.87.736 2.807.007 1.87.467 1.872.051 2.806.013 1.87-.117 2.807.254 1.87.152 4.678-.13 4.677.317 1.87-.03 4.677.104 1.871-.142 4.677-.852.935-.212 1.871-.779.936-.26 1.87-1.061 1.871-1.068.936-.634 1.87-.714.936-.497 2.806-2.12.935-.73 1.871-1.23.936-.755.935-.613.935-.83.936-.504 1.87-1.443.936-.392 1.87-1.814 1.872-1.732.935-1.593 1.87-.89 2.807-1.743.935-1.838.936-.714.935-.324.936-.88.935-.263.935-.492.936-.23.935-.863.936.726.935-.664.935-.235.936-.354 1.87-1.299.936 1.39.935-.104 1.871-.682.936 1.734.935-1.597 1.87-.263.936-.646 3.742.074.935-.48.935-.737.936-.432.935-.225.936.378.935-2.088.935 1.322.936-.048.935.493.936.3.935.85.935.445.936.173.935.32 1.871 1.537.935.793 3.742 2.131.935.216 1.871.891.936-.372 2.806.81.935.794.936.334 3.741 2.226.936.86.935.689.935.188 1.871 1.538.936.013.935.194.935.527.936-.377.935.09.936.255.935-.368 3.741-.298.936.37.935-.304.936-.16 1.87.116.936-.403.935.164 1.871-1.065 2.806-1.788.936-.75 1.87-2.102 1.871-1.697.936-.797.935-1.356.935-.658.936-1.185 1.87-.778.936-.194.935-1.014.936-1.743.935-1.43 1.871-4.859.935-2.554.936-2.184 1.87-3.178.936-2.364.935-3.19.936-3.827.935-3.005.936-2.275 1.87-2.519.936-2.077 1.87-6.567.936-3.725 1.87-9.173.936-5.24.936-8.82 1.87-29.962.936-17.165.935-11.897.936-7.441.935-12.497.935-24.775 1.871-62.592.935-28.538.936-22.033.935-16.892.936-24.354.935-29.267.935-16.308.936-22.51.935-15.243h0" style="fill:none;stroke:#009e73;stroke-linecap:round;stroke-width:1.5" id="line2d_2"/><path clip-path="url(#pc7a7cf0cca)" d="m149.973 554.04 33.674-.077 4.677-.275 1.87-.57.936-.528.936-1.791.935-.484.935-.22.936-1.032.935-1.66.936-.988.935-1.253.935-4.23 1.871-6.746.936-3.626.935-3.12.935-4.44.936-5.888.935-4.846.936-7.933.935-9.602.935-3.648 1.871-12.108.936-2.45.935-.901.935-3.143 1.871-2.11.935.056.936 1.021.935 1.791.936.484.935 3.439.935 6.526.936-.538 1.87 6.91.936.122.935 1.164.936 2.978.935.648.936 2.143 1.87 3.911.936 2.494.935 4.362.936 2.571.935 1.714 1.87 5.934.936 1.834 1.871 5.977.935 2.352.936 3.076.935 1.12.936.44.935.923.935 1.495.936 2.57 1.87 2.176.936 1.055.935-.011.936 1.263.935.704 1.87.593.936.879.936-.12 2.806.021.935-2.252.936.549 2.806 2.033.935.351.936-.516.935.362.935.165.936-.154.935 1.275.936.78.935.297.935-.374.936.912.935.45.936-.812.935.527h.935l.936-.242 1.87.297.936.406 3.742.088.935.725.935-3.087.936-.802.935.56.936-.725 2.806.209.935-.066.936-.44.935-.01.935-.539.936-.033.935.121.936-.308.935 3.11.935.45.936-.099.935.605.936.01.935.352 1.87.11.936.462.936.186.935.682.935-.264.936.033 1.87.33.936.296 1.87-.22.936-.373.936-.495.935-.285.935.022.936-.484.935-.099.935-.285.936.252.935-.428.936.176 1.87.088.936-.297.935-.099 1.871.494.935.11.936-.22.935-.637 1.871-.967.935-.56 1.871.626.936.835.935.044 2.806.67 1.871-.12.935.252.936 1.077.935.176 1.871.846.935-.428.936-.286.935-.868.936-.077.935.34.935-.252.936-.022 1.87.275 1.871-.165.936.395 1.87.22.936.67.935-.055.936-.263.935-.044.936-.253.935.11.935-.011.936-.286 2.806.022 1.87-.373.936-.044.935-.33 1.871-.176.936-.242.935-.362 1.87-.33.936.011.936-.274 1.87-1.1.936-.483 1.87-.417.936-.747 1.87-.747 1.872-.341 2.806-1.879.935-.79 1.871-.418.935-.802.936-.583.935-.802.936-.494 1.87-.66.936-1.472 1.87-1.34.936-.484.935-.824.936-1.022.935.011.936-1.373.935-2.01.935-1 .936-.165.935-1.692.936-2.44.935-2.977.935-1.571 1.871-5.45.936-.385 1.87-4.67.936-3.702.935-1.406.936-1.198.935-2.131.935-2.835.936-.385 1.87-.285.936-2.154.935 1.945 1.871-2.198.935-.714.936.253.935-.637.936-3.01.935-.759.935-1.527.936.659.935-.429.936.616.935-.088.935 2.879.936-3.505.935 1.45.936-1.187.935 1.308.935-.286.936 1.461.935 2.429 1.871 3.68.935.912.936.418.935-2.022.936-.395.935-1.681.935 2.538 1.871 3.12.936.275.935.143.935-1.857 1.871-1.758.936.747.935-48.037.935-3.252.936-1.659.935-2.208.936-2.637 1.87-6.538.936-1.252.935-.418.936-3.637.935-2.329 1.87-2.406.936-1.978.936 47.707.935 1.637.935.45.936 1.67.935 3.528.935-.759.936.539.935.253.936-1.187 1.87 5.395.936 1.252.935.242.936.692.935-.824.935 1.989.936 3.856.935 1.11.936-1.626.935 1.967.935.582.936.967.935 1.55.936.417.935 1.285.935.978.936 1.154.935 1.78.936 2.296.935-2.274.935-1.703.936.472.935 2.175.936 1.44.935 2.208 1.87-2.252.936.769.936-.923.935-1.582.935-.165.936.088.935-3.912.936 1.154.935-1.417.935-.176.936-1.725.935 1.461.936-1.142.935 1.076.935-1.142 1.871-.56.936.79.935.396.935-1.494.936 1.89.935-.847.936.1 1.87-1.847.936-3.384.935-.33.935-1.065.936.022.935-.45.936 1.527.935-3.198 1.87-3.592.936-.429.936-.66 1.87-1.482 1.871.274.936-.077.935.242.935 1.703.936-.835.935-.516.936 3.768 1.87 4.44.936 1.35 1.87 4.45.936 1.846 1.87 2.879.936 1.571.936 1.802.935 1.209.935 2.252.936 1.132.935 1.769.936 1.055.935 1.89.935 2.658.936 1.593.935 2.011.936 1.461 1.87 5.285.936 1.615.935.967.936 1.725.935-10.69.935-1.066.936 1.714.935 2.099.936.977.935-.362.935 1.494.936 1.11.935 2.021.936 1 .935.462.935.318.936.484.935.681.935 13.778.936 4.153.935.165.936.67.935.352 1.87.165.936.494.936.143.935.462.935.78 1.871.703 2.806.604.936.44.935-.143 1.871.23 1.87.528.936.088 3.742-.22.935-.23 2.806-.133.936.297 1.87.143 1.871-.33.936-.186.935.076 1.871-.032 1.87.11 1.872-.33 3.741.01 2.806.55 1.871.066 2.806-.187 1.871-.23 3.742-1.055 1.87-.725.936-.638 1.87-1.57.936-.363.935-.638.936-.417.935-.583.936-.835 3.741-2.78.936-.89.935-.56 1.87-.79 1.872-.55.935.11.935-1.22.936-.593.935-.802.936-.319.935-1.154.935 1.055.936-.11 1.87-1.648.936-.285.935-1.55.936-.736.935-.538.936-.736.935.33.935-.54.936.177.935-.857.936.165.935-1.693.935-.318.936.307.935.011.936-.472.935 1.604.935-.23.936-.077.935-.33.936 1.351.935-.868 1.87-.384.936-.022 1.87.285.936-.34.936-.033.935-.242.935-.538.936-.066.935-.22.936.407.935-1.11.935.813 1.871-.011.936.23.935.089.935-.187.936.769 1.87.044.936.066.935.406.936.824.935.242.936.077 1.87.934.936 1.143.935.472.936.23.935.77.935.132.936.417.935.758.936.583.935.055.935.384.936.242 2.806 2.483.935-.088 1.871 1.34.936-.582.935-.131.935.417.936-.099.935-.253.936.56.935-.131.935.088.936-.242.935-.44.935-.098.936.318.935-.164.936-.044 1.87.813 2.807.428.935-.132.935-.934.936-.428 5.612-5.67.936-.461.935-1.395.935-.77.936-.933 1.87-1.121.936.022.935-.55.936-1.197.935-.846 1.871-3.077.935-1.274.936-.857 2.806-5.12 1.87-5.67 1.872-4.186.935-1.362.935-.88.936-3.153.935-3.67.936-4.34 1.87-10.833.936-3.768.935-5.703.936-11.394.935-15.437.935-19.338.936-21.645.935-12.899.936-9.888.935-17.009.935-30.347.936-38.323 1.87-61.09 1.871-32.401 1.871-54.607.935-14.35.936-19.183.935-12.504h0" style="fill:none;stroke:#d55e00;stroke-linecap:round;stroke-width:1.5" id="line2d_3"/><path clip-path="url(#pc7a7cf0cca)" d="M149.973 554.04h41.157l.936-1.12h1.87l.936-.559h.935l1.871-3.357.935-3.358.936-.56.935-1.678.936-1.12.935-2.798.935-4.476.936-3.918h.935l.936-3.357.935-8.954.935-5.596.936-1.679.935-1.119h.936l.935-2.238.935-3.358.936.56.935 1.119.935-.56.936 2.239.935 1.678.936-1.678.935.56.935 7.274.936 6.156.935-1.12.936 1.12.935-1.12.935 2.799h2.807l.935.56.935 2.238 2.807 3.357h1.87l.936 2.798.935 1.679 1.871 5.596.935 3.358.936 1.119h.935l.936.56.935-2.239.935.56 1.871 2.238.936 1.679h1.87l.936-.56h1.87l.936.56h1.87l.936 2.238.936 1.679 1.87 1.12.936-.56h1.87l.936-1.68h7.483l.935-.559h.936l.935.56h1.871l.935 1.679h5.613l.935-1.12.936.56h.935l.935-.56h2.807l.935-2.238.935.56.936-.56h3.741l.936-2.238.935-.56.936.56h.935l.935-.56h1.871l.936 1.12.935-.56.935.56h3.742l.935 3.357.936-1.12.935-.559h.936l.935 1.12h1.87l1.872 1.118h.935l.935-.56h2.806l.936-.559.935 1.679h.936l.935.56h2.806l.936.56h.935l.935-.56.936.56.935-.56h3.742l.935.56 1.871-1.12h2.806l.936-1.12h.935l.935-.559.936.56h3.741l.936-2.239 1.87 1.12h2.807l.935-.56 1.871 1.12h4.677l.935 1.118.936-.56h2.806l.935-1.678.936 1.679.935-.56h3.742l.935.56h.935l.936 1.119.935.56h2.806l.936.56.935-.56.936-2.239.935-5.036.935-1.12h1.871l.936-1.119.935-3.357.935-.56 1.871-5.596 1.871-3.357h.935l1.871 1.119.936 5.036.935 1.12h1.87l.936-2.24.936 1.12.935-2.238h1.87l1.872 3.357.935-5.596.935-.56 1.871-3.357.936-2.798h1.87l.936-7.275h.935l.936 2.798.935-6.715.935-1.12h1.871l.936-2.238.935-6.155 1.87-5.596.936-5.037.936-2.798h.935l.935 2.798.936-2.238.935-3.358.935 9.514.936 3.917.935-11.192h.936l.935 1.119.935 2.798.936.56.935-4.477.936-5.596.935-3.358h.935l.936 1.679.935-2.238.936.56.935-10.074.935-5.036.936 11.192h1.87l.936-1.12.935 2.24.936 8.953.935 3.917.936 6.156h.935l.935-8.954.936 2.798.935-12.311.936 7.275.935 5.036h1.87l.936-8.954.936 2.239 1.87-12.871.936 9.513h1.87l.936-3.357.935-6.156.936 7.275.935-5.596.936-6.715.935-5.596h.935l.936 4.476.935-3.357.936 2.238.935.56.935-5.596h1.871l.936 18.467.935-1.68.935 2.24.936 6.155 1.87 10.632h.936l.935-5.036.936 3.917.935 5.036.935 2.239.936-3.358.935-2.798h1.871l.935 11.752.936-8.954 1.87-4.477h1.871l.936 8.394.935-1.678.936.56h.935l.935 6.155.936-1.12h1.87l.936-7.834.935 11.752.936 2.798.935 1.12h.936l.935-3.918.935 6.715 1.871 1.12.936-3.918.935-2.238.935 3.917h.936l.935-8.954.936 2.239.935-.56h.935l.936-5.036h.935l.936 3.917.935-5.596.935 1.119.936-2.238.935-.56.936 2.238h1.87l.936-3.917.935 1.679.936-1.12h.935l.935 5.037h1.871l.935-5.596.936-1.119.935.56.936 3.357.935-1.119h.935l.936-5.036.935 6.715.936-.56.935 2.798.935-8.394.936-2.238h1.87l.936 3.917.935-1.12 1.871-1.118.936 1.119.935-.56.935 5.037.936.56.935 1.678.936-1.12.935 3.358.935 2.239.936-2.798h.935l.936 7.834.935 3.917.935 1.68.936.559h.935l.936.56h.935l.935 2.238 1.871 2.238.936 4.477.935-2.238.935 2.238h.936l.935.56h1.87l.936 2.798.936 1.679h1.87l.936 1.119.935 1.679.936 1.119.935 2.238.936 5.037.935.56h.935l.936 1.118.935.56.935 3.358.936.56.935 1.118h1.871l.935 2.239h1.871l.936-1.12h4.677l.935-.559.935.56h3.742l.935-1.68h.936l.935 1.12h4.677l.936.56h4.677l.935 1.678.935.56h.936l.935-2.238h4.677l.936-.56h5.612l.935-.56.936 1.68h3.741l1.871-1.12h5.612l.936-.56.935-2.798h1.871l.935-11.751.936-1.12h.935l1.871-5.595h1.87l.936-3.918.936-1.678.935-.56h.935l.936 2.798h1.87l.936 6.156.935-.56.936-2.798.935.56.936 1.678h1.87l.936-1.678.935.56h.936l.935-1.12.935.56h1.871l.936 4.476.935-.56.935 2.24.936.559.935 1.119h1.87l.936 1.679.936-2.798.935-3.358.936 1.12.935-2.799h1.87l.936 1.12.936-4.477.935-2.239.935 2.798.936-2.798h1.87l.936-1.119.935 2.239.936 1.678.935-3.357.935.56h1.871l.936-7.276.935 6.156.935.56.936-2.798.935 1.119h1.871l.935 2.798h1.871l.936 2.238h2.806l.935 5.037 1.871-1.12.935 2.799.936-4.477h1.87l.936 2.238.935-1.679 2.807 3.358h1.87l.936-2.238.935-.56.936 2.798.935-2.238.935 5.036h1.871l.936-1.12.935 2.799.935 1.119h.936l.935.56h2.806l.936-.56.935.56.935 2.238h2.807l.935-1.679.935-.56.936-5.036.935 1.12.936-3.358h1.87l.936 1.119h.935l.936-1.12.935-1.678.935-.56h1.871l.936-5.596.935-1.678.935 1.119h.936l.935 3.917h1.871l.935-7.834.936-1.68h.935l.936-2.797.935-3.358h1.87l.936 1.12 1.871-5.597 1.87-11.192h1.872l.935 1.679.935-3.358 1.871-16.788.936 1.12.935-22.944.935-6.715.936-2.239.935-10.073.936-17.347.935-12.871.935-7.275.936-1.679.935-3.357.936-2.239 1.87-40.291.936-11.192.935-25.742.935-7.275.936-29.099.935-17.347.936-2.239.935-10.073.935-22.943.936-18.467.935 1.679h0" style="fill:none;stroke:#0072b2;stroke-linecap:round;stroke-width:1.5" id="line2d_4"/><path clip-path="url(#pc7a7cf0cca)" d="M117 553.016h725.4" style="fill:none;stroke:green;stroke-dasharray:1.5,2.475;stroke-dashoffset:0;stroke-width:1.5" id="line2d_5"/><path clip-path="url(#pc7a7cf0cca)" d="M117 548.919h725.4" style="fill:none;stroke:orange;stroke-dasharray:1.5,2.475;stroke-dashoffset:0;stroke-width:1.5" id="line2d_6"/><path clip-path="url(#pc7a7cf0cca)" d="M117 543.798h725.4" style="fill:none;stroke:red;stroke-dasharray:1.5,2.475;stroke-dashoffset:0;stroke-width:1.5" id="line2d_7"/><path d="M117 576.72V77.76" style="fill:none;stroke:#d3d3d3;stroke-linecap:square;stroke-linejoin:miter;stroke-width:1.25" id="patch_3"/><path d="M117 576.72h725.4" style="fill:none;stroke:#d3d3d3;stroke-linecap:square;stroke-linejoin:miter;stroke-width:1.25" id="patch_4"/><g id="matplotlib.axis_1"><g id="xtick_1"><g style="fill:#696969" transform="matrix(.16 0 0 -.16 106.772 598.378)" id="text_1"><defs><path d="M9.813 72.906h9.859V5.078q0-13.187-5-19.14-5-5.954-16.094-5.954h-3.75v8.297h3.078q6.531 0 9.219 3.672Q9.813-4.39 9.813 5.078z" id="DejaVuSans-74"/><path d="M34.281 27.484q-10.89 0-15.093-2.484-4.204-2.484-4.204-8.5 0-4.781 3.157-7.594 3.156-2.797 8.562-2.797 7.485 0 12 5.297 4.516 5.297 4.516 14.078v2zm17.922 3.72V0H43.22v8.297Q40.14 3.328 35.547.953q-4.594-2.375-11.234-2.375-8.391 0-13.36 4.719Q6 8.016 6 15.922q0 9.219 6.172 13.906 6.187 4.688 18.437 4.688h12.61v.89q0 6.203-4.078 9.594-4.078 3.39-11.453 3.39-4.688 0-9.141-1.124-4.438-1.125-8.531-3.375v8.312q4.921 1.906 9.562 2.844 4.64.953 9.031.953 11.875 0 17.735-6.156 5.86-6.14 5.86-18.64z" id="DejaVuSans-97"/><path d="M54.89 33.016V0h-8.984v32.719q0 7.765-3.031 11.61-3.031 3.858-9.078 3.858-7.281 0-11.484-4.64-4.204-4.625-4.204-12.64V0H9.08v54.688h9.03v-8.5q3.235 4.937 7.594 7.374Q30.078 56 35.797 56q9.422 0 14.25-5.828 4.844-5.828 4.844-17.156z" id="DejaVuSans-110"/></defs><use xlink:href="#DejaVuSans-74"/><use x="29.492" xlink:href="#DejaVuSans-97"/><use x="90.771" xlink:href="#DejaVuSans-110"/></g></g><g id="xtick_2"><g style="fill:#696969" transform="matrix(.16 0 0 -.16 190.386 598.378)" id="text_2"><defs><path d="M34.188 63.188 20.797 26.906h26.812zm-5.579 9.718h11.188L67.578 0h-10.25l-6.64 18.703h-32.86L11.188 0H.78z" id="DejaVuSans-65"/><path d="M18.11 8.203v-29H9.077v75.484h9.031v-8.296q2.844 4.875 7.157 7.234Q29.594 56 35.594 56q9.968 0 16.187-7.906 6.235-7.907 6.235-20.797T51.78 6.484q-6.218-7.906-16.187-7.906-6 0-10.328 2.375-4.313 2.375-7.157 7.25zm30.578 19.094q0 9.906-4.079 15.547-4.078 5.64-11.203 5.64-7.14 0-11.218-5.64-4.079-5.64-4.079-15.547 0-9.906 4.078-15.547 4.079-5.64 11.22-5.64 7.124 0 11.202 5.64t4.078 15.547z" id="DejaVuSans-112"/><path d="M41.11 46.297q-1.516.875-3.297 1.281Q36.03 48 33.89 48q-7.625 0-11.703-4.953-4.079-4.953-4.079-14.234V0H9.08v54.688h9.03v-8.5q2.844 4.984 7.375 7.39Q30.031 56 36.531 56q.922 0 2.047-.125 1.125-.11 2.484-.36z" id="DejaVuSans-114"/></defs><use xlink:href="#DejaVuSans-65"/><use x="68.408" xlink:href="#DejaVuSans-112"/><use x="131.885" xlink:href="#DejaVuSans-114"/></g></g><g id="xtick_3"><g style="fill:#696969" transform="matrix(.16 0 0 -.16 279.694 598.378)" id="text_3"><defs><path d="M8.5 21.578v33.11h8.984V21.922q0-7.766 3.016-11.656 3.031-3.875 9.094-3.875 7.265 0 11.484 4.64 4.234 4.64 4.234 12.656v31h8.985V0h-8.984v8.406Q42.047 3.422 37.718 1q-4.313-2.422-10.032-2.422-9.421 0-14.312 5.86Q8.5 10.296 8.5 21.578zM31.11 56z" id="DejaVuSans-117"/><path d="M9.422 75.984h8.984V0H9.422z" id="DejaVuSans-108"/></defs><use xlink:href="#DejaVuSans-74"/><use x="29.492" xlink:href="#DejaVuSans-117"/><use x="92.871" xlink:href="#DejaVuSans-108"/></g></g><g id="xtick_4"><g style="fill:#696969" transform="matrix(.16 0 0 -.16 361.57 598.378)" id="text_4"><defs><path d="M39.406 66.219q-10.75 0-17.078-8.016-6.312-8-6.312-21.828 0-13.766 6.312-21.781 6.328-8 17.078-8 10.735 0 17.016 8 6.281 8.015 6.281 21.781 0 13.828-6.281 21.828-6.281 8.016-17.016 8.016zm0 8q15.328 0 24.5-10.281 9.188-10.282 9.188-27.563 0-17.234-9.188-27.516-9.172-10.28-24.5-10.28-15.375 0-24.593 10.25-9.204 10.265-9.204 27.546t9.204 27.563q9.218 10.28 24.593 10.28z" id="DejaVuSans-79"/><path d="M48.781 52.594v-8.407q-3.812 2.11-7.64 3.157-3.828 1.047-7.735 1.047-8.75 0-13.593-5.547-4.829-5.532-4.829-15.547 0-10.016 4.829-15.563 4.843-5.53 13.593-5.53 3.907 0 7.735 1.046 3.828 1.047 7.64 3.156V2.094Q45.016.344 40.984-.531q-4.015-.89-8.562-.89-12.36 0-19.64 7.765-7.266 7.765-7.266 20.953 0 13.375 7.343 21.031Q20.22 56 33.016 56q4.14 0 8.093-.86 3.953-.843 7.672-2.546z" id="DejaVuSans-99"/><path d="M18.313 70.219V54.688h18.5v-6.985h-18.5V18.016q0-6.688 1.828-8.594 1.828-1.906 7.453-1.906h9.218V0h-9.218q-10.407 0-14.36 3.875-3.953 3.89-3.953 14.14v29.688H2.687v6.984h6.594V70.22z" id="DejaVuSans-116"/></defs><use xlink:href="#DejaVuSans-79"/><use x="78.711" xlink:href="#DejaVuSans-99"/><use x="133.691" xlink:href="#DejaVuSans-116"/></g></g><g id="xtick_5"><g style="fill:#696969" transform="matrix(.16 0 0 -.16 449.127 598.378)" id="text_5"><use xlink:href="#DejaVuSans-74"/><use x="29.492" xlink:href="#DejaVuSans-97"/><use x="90.771" xlink:href="#DejaVuSans-110"/></g></g><g id="xtick_6"><g style="fill:#696969" transform="matrix(.16 0 0 -.16 531.805 598.378)" id="text_6"><use xlink:href="#DejaVuSans-65"/><use x="68.408" xlink:href="#DejaVuSans-112"/><use x="131.885" xlink:href="#DejaVuSans-114"/></g></g><g id="xtick_7"><g style="fill:#696969" transform="matrix(.16 0 0 -.16 621.114 598.378)" id="text_7"><use xlink:href="#DejaVuSans-74"/><use x="29.492" xlink:href="#DejaVuSans-117"/><use x="92.871" xlink:href="#DejaVuSans-108"/></g></g><g id="xtick_8"><g style="fill:#696969" transform="matrix(.16 0 0 -.16 702.99 598.378)" id="text_8"><use xlink:href="#DejaVuSans-79"/><use x="78.711" xlink:href="#DejaVuSans-99"/><use x="133.691" xlink:href="#DejaVuSans-116"/></g></g><g id="xtick_9"><g style="fill:#696969" transform="matrix(.16 0 0 -.16 790.547 598.378)" id="text_9"><use xlink:href="#DejaVuSans-74"/><use x="29.492" xlink:href="#DejaVuSans-97"/><use x="90.771" xlink:href="#DejaVuSans-110"/></g></g></g><g id="matplotlib.axis_2"><g id="ytick_1"><g style="fill:#696969" transform="matrix(.16 0 0 -.16 97.32 560.119)" id="text_10"><defs><path d="M31.781 66.406q-7.61 0-11.453-7.5Q16.5 51.422 16.5 36.375q0-14.984 3.828-22.484 3.844-7.5 11.453-7.5 7.672 0 11.5 7.5 3.844 7.5 3.844 22.484 0 15.047-3.844 22.531-3.828 7.5-11.5 7.5zm0 7.813q12.266 0 18.735-9.703 6.468-9.688 6.468-28.141 0-18.406-6.468-28.11-6.47-9.687-18.735-9.687-12.25 0-18.718 9.688-6.47 9.703-6.47 28.109 0 18.453 6.47 28.14Q19.53 74.22 31.78 74.22z" id="DejaVuSans-48"/></defs><use xlink:href="#DejaVuSans-48"/></g></g><g id="ytick_2"><g style="fill:#696969" transform="matrix(.16 0 0 -.16 66.78 457.695)" id="text_11"><defs><path d="M12.406 8.297h16.11v55.625l-17.532-3.516v8.985l17.438 3.515h9.86V8.296H54.39V0H12.406z" id="DejaVuSans-49"/></defs><use xlink:href="#DejaVuSans-49"/><use x="63.623" xlink:href="#DejaVuSans-48"/><use x="127.246" xlink:href="#DejaVuSans-48"/><use x="190.869" xlink:href="#DejaVuSans-48"/></g></g><g id="ytick_3"><g style="fill:#696969" transform="matrix(.16 0 0 -.16 66.78 355.271)" id="text_12"><defs><path d="M19.188 8.297h34.421V0H7.33v8.297q5.609 5.812 15.296 15.594 9.703 9.797 12.188 12.64 4.734 5.313 6.609 9 1.89 3.688 1.89 7.25 0 5.813-4.078 9.469-4.078 3.672-10.625 3.672-4.64 0-9.797-1.61-5.14-1.609-11-4.89v9.969Q13.767 71.78 18.938 73q5.188 1.219 9.485 1.219 11.328 0 18.062-5.672 6.735-5.656 6.735-15.125 0-4.5-1.688-8.531-1.672-4.016-6.125-9.485-1.218-1.422-7.765-8.187-6.532-6.766-18.453-18.922z" id="DejaVuSans-50"/></defs><use xlink:href="#DejaVuSans-50"/><use x="63.623" xlink:href="#DejaVuSans-48"/><use x="127.246" xlink:href="#DejaVuSans-48"/><use x="190.869" xlink:href="#DejaVuSans-48"/></g></g><g id="ytick_4"><g style="fill:#696969" transform="matrix(.16 0 0 -.16 66.78 252.847)" id="text_13"><defs><path d="M40.578 39.313Q47.656 37.797 51.625 33q3.984-4.781 3.984-11.813 0-10.78-7.422-16.703-7.421-5.906-21.093-5.906-4.578 0-9.438.906-4.86.907-10.031 2.72v9.515q4.094-2.39 8.969-3.61 4.89-1.218 10.218-1.218 9.266 0 14.125 3.656 4.86 3.656 4.86 10.64 0 6.454-4.516 10.079-4.515 3.64-12.562 3.64h-8.5v8.11h8.89q7.266 0 11.125 2.906 3.86 2.906 3.86 8.375 0 5.61-3.985 8.61-3.968 3.015-11.39 3.015-4.063 0-8.703-.89-4.641-.876-10.203-2.72v8.782q5.624 1.562 10.53 2.344 4.907.78 9.25.78 11.235 0 17.766-5.109 6.547-5.093 6.547-13.78 0-6.063-3.468-10.235-3.47-4.172-9.86-5.782z" id="DejaVuSans-51"/></defs><use xlink:href="#DejaVuSans-51"/><use x="63.623" xlink:href="#DejaVuSans-48"/><use x="127.246" xlink:href="#DejaVuSans-48"/><use x="190.869" xlink:href="#DejaVuSans-48"/></g></g><g id="ytick_5"><g style="fill:#696969" transform="matrix(.16 0 0 -.16 66.78 150.423)" id="text_14"><defs><path d="M37.797 64.313 12.89 25.39h24.906zm-2.594 8.593H47.61V25.391h10.407v-8.203H47.609V0h-9.812v17.188H4.89v9.515z" id="DejaVuSans-52"/></defs><use xlink:href="#DejaVuSans-52"/><use x="63.623" xlink:href="#DejaVuSans-48"/><use x="127.246" xlink:href="#DejaVuSans-48"/><use x="190.869" xlink:href="#DejaVuSans-48"/></g></g><g style="fill:#696969" transform="matrix(0 -.2 -.2 0 58.62 379.813)" id="text_15"><defs><path d="M51.125 44H36.922l-4.11-16.313h14.313zm-7.328 27.781-5.078-20.265h14.265L58.11 71.78h7.813L60.89 51.516h15.234V44h-17.14l-4-16.313h15.53V20.22H53.079L48 0h-7.813l5.032 20.219H30.906L25.875 0h-7.86l5.079 20.219H7.719v7.468h17.187L29 44H13.281v7.516h17.625l4.985 20.265z" id="DejaVuSans-35"/><path d="M30.61 48.39q-7.22 0-11.422-5.64-4.204-5.64-4.204-15.453 0-9.813 4.172-15.453 4.188-5.64 11.453-5.64 7.188 0 11.375 5.655 4.203 5.672 4.203 15.438 0 9.719-4.203 15.406-4.187 5.688-11.375 5.688zm0 7.61q11.718 0 18.406-7.625 6.703-7.61 6.703-21.078 0-13.422-6.703-21.078-6.688-7.64-18.407-7.64-11.765 0-18.437 7.64-6.656 7.656-6.656 21.078 0 13.469 6.656 21.078Q18.844 56 30.609 56z" id="DejaVuSans-111"/><path d="M37.11 75.984V68.5h-8.594q-4.828 0-6.72-1.953-1.874-1.953-1.874-7.031v-4.828h14.797v-6.985H19.922V0H10.89v47.703H2.297v6.984h8.594V58.5q0 9.125 4.25 13.297 4.25 4.187 13.468 4.187z" id="DejaVuSans-102"/><path d="M44.281 53.078v-8.5q-3.797 1.953-7.906 2.922-4.094.984-8.5.984-6.688 0-10.031-2.047-3.344-2.046-3.344-6.156 0-3.125 2.39-4.906 2.391-1.781 9.626-3.39l3.078-.688q9.562-2.047 13.593-5.781 4.032-3.735 4.032-10.422 0-7.625-6.032-12.078-6.03-4.438-16.578-4.438-4.39 0-9.156.86Q10.688.296 5.422 2v9.281q4.984-2.594 9.812-3.89 4.829-1.282 9.579-1.282 6.343 0 9.75 2.172 3.421 2.172 3.421 6.125 0 3.656-2.468 5.61-2.453 1.953-10.813 3.765l-3.125.735q-8.344 1.75-12.062 5.39-3.704 3.64-3.704 9.985 0 7.718 5.47 11.906Q16.75 56 26.811 56q4.97 0 9.36-.734 4.406-.72 8.11-2.188z" id="DejaVuSans-115"/><path d="M56.203 29.594v-4.39H14.891q.593-9.282 5.593-14.142 5-4.859 13.938-4.859 5.172 0 10.031 1.266 4.86 1.265 9.656 3.812v-8.5Q49.266.734 44.187-.344 39.11-1.422 33.892-1.422q-13.094 0-20.735 7.61-7.64 7.625-7.64 20.625 0 13.421 7.25 21.296Q20.016 56 32.328 56q11.031 0 17.453-7.11 6.422-7.093 6.422-19.296zm-8.984 2.64q-.094 7.36-4.125 11.75-4.032 4.407-10.672 4.407-7.516 0-12.031-4.25-4.516-4.25-5.203-11.97z" id="DejaVuSans-101"/></defs><use xlink:href="#DejaVuSans-35"/><use x="83.789" xlink:href="#DejaVuSans-32"/><use x="115.576" xlink:href="#DejaVuSans-111"/><use x="176.758" xlink:href="#DejaVuSans-102"/><use x="211.963" xlink:href="#DejaVuSans-32"/><use x="243.75" xlink:href="#DejaVuSans-99"/><use x="298.73" xlink:href="#DejaVuSans-97"/><use x="360.01" xlink:href="#DejaVuSans-115"/><use x="412.109" xlink:href="#DejaVuSans-101"/><use x="473.633" xlink:href="#DejaVuSans-115"/></g></g><g style="fill:#696969" transform="matrix(.24 0 0 -.24 252.577 71.76)" id="text_16"><defs><path d="M9.813 72.906h13.28l32.329-60.984v60.984h9.562V0h-13.28L19.39 60.984V0H9.813z" id="DejaVuSans-78"/><path d="M4.203 54.688h8.985l11.234-42.672 11.172 42.672h10.593l11.235-42.672 11.187 42.672h8.985L63.28 0H52.688L40.922 44.828 29.109 0H18.5z" id="DejaVuSans-119"/><path d="M64.406 67.281v-10.39q-4.984 4.64-10.625 6.922-5.64 2.296-11.984 2.296-12.5 0-19.14-7.64-6.641-7.64-6.641-22.094 0-14.406 6.64-22.047 6.64-7.64 19.14-7.64 6.345 0 11.985 2.296 5.64 2.297 10.625 6.938V5.609Q59.234 2.094 53.437.33q-5.78-1.75-12.218-1.75-16.563 0-26.094 10.124-9.516 10.14-9.516 27.672 0 17.578 9.516 27.703 9.531 10.14 26.094 10.14 6.531 0 12.312-1.734 5.797-1.734 10.875-5.203z" id="DejaVuSans-67"/><path d="M25.39 72.906h8.297L8.297-9.28H0z" id="DejaVuSans-47"/><path d="M9.813 72.906h9.859V42.094L52.39 72.906h12.703L28.906 38.922 67.672 0H54.688L19.672 35.11V0h-9.86z" id="DejaVuSans-75"/><path d="M45.406 46.39v29.594h8.985V0h-8.985v8.203Q42.578 3.328 38.25.953q-4.313-2.375-10.375-2.375-9.906 0-16.14 7.906-6.22 7.922-6.22 20.813 0 12.89 6.22 20.797Q17.968 56 27.874 56q6.063 0 10.375-2.375 4.328-2.36 7.156-7.234zm-30.61-19.093q0-9.906 4.079-15.547 4.078-5.64 11.203-5.64 7.125 0 11.219 5.64 4.11 5.64 4.11 15.547 0 9.906-4.11 15.547-4.094 5.64-11.219 5.64-7.125 0-11.203-5.64-4.078-5.64-4.078-15.547z" id="DejaVuSans-100"/><path d="M9.422 54.688h8.984V0H9.422zm0 21.296h8.984v-11.39H9.422z" id="DejaVuSans-105"/><path d="M31 75.875q-6.531-11.219-9.719-22.219-3.172-10.984-3.172-22.265 0-11.266 3.203-22.328Q24.517-2 31-13.188h-7.813Q15.875-1.704 12.235 9.375q-3.64 11.078-3.64 22.016 0 10.89 3.61 21.922 3.624 11.046 10.983 22.562z" id="DejaVuSans-40"/><path d="M52 44.188q3.375 6.062 8.063 8.937Q64.75 56 71.093 56q8.548 0 13.188-5.984 4.64-5.97 4.64-17V0h-9.03v32.719q0 7.86-2.797 11.656-2.781 3.813-8.485 3.813-6.984 0-11.046-4.641-4.047-4.625-4.047-12.64V0h-9.032v32.719q0 7.906-2.78 11.687-2.782 3.782-8.595 3.782-6.89 0-10.953-4.657-4.047-4.656-4.047-12.625V0H9.08v54.688h9.03v-8.5q3.078 5.03 7.375 7.421Q29.781 56 35.687 56q5.97 0 10.141-3.031Q50 49.953 52 44.187z" id="DejaVuSans-109"/><path d="M8.016 75.875h7.812q7.313-11.516 10.953-22.563 3.64-11.03 3.64-21.921 0-10.938-3.64-22.016-3.64-11.078-10.953-22.563H8.016Q14.5-2 17.703 9.063q3.203 11.063 3.203 22.329 0 11.28-3.203 22.265-3.203 11-9.687 22.219z" id="DejaVuSans-41"/></defs><use xlink:href="#DejaVuSans-78"/><use x="74.805" xlink:href="#DejaVuSans-101"/><use x="136.328" xlink:href="#DejaVuSans-119"/><use x="218.115" xlink:href="#DejaVuSans-32"/><use x="249.902" xlink:href="#DejaVuSans-67"/><use x="319.727" xlink:href="#DejaVuSans-97"/><use x="381.006" xlink:href="#DejaVuSans-115"/><use x="433.105" xlink:href="#DejaVuSans-101"/><use x="494.629" xlink:href="#DejaVuSans-115"/><use x="546.729" xlink:href="#DejaVuSans-47"/><use x="580.42" xlink:href="#DejaVuSans-49"/><use x="644.043" xlink:href="#DejaVuSans-48"/><use x="707.666" xlink:href="#DejaVuSans-48"/><use x="771.289" xlink:href="#DejaVuSans-75"/><use x="836.865" xlink:href="#DejaVuSans-32"/><use x="868.652" xlink:href="#DejaVuSans-49"/><use x="932.275" xlink:href="#DejaVuSans-52"/><use x="995.898" xlink:href="#DejaVuSans-100"/><use x="1059.375" xlink:href="#DejaVuSans-32"/><use x="1091.162" xlink:href="#DejaVuSans-105"/><use x="1118.945" xlink:href="#DejaVuSans-110"/><use x="1182.324" xlink:href="#DejaVuSans-99"/><use x="1237.305" xlink:href="#DejaVuSans-105"/><use x="1265.088" xlink:href="#DejaVuSans-100"/><use x="1328.564" xlink:href="#DejaVuSans-101"/><use x="1390.088" xlink:href="#DejaVuSans-110"/><use x="1453.467" xlink:href="#DejaVuSans-99"/><use x="1508.447" xlink:href="#DejaVuSans-101"/><use x="1569.971" xlink:href="#DejaVuSans-32"/><use x="1601.758" xlink:href="#DejaVuSans-40"/><use x="1640.771" xlink:href="#DejaVuSans-115"/><use x="1692.871" xlink:href="#DejaVuSans-117"/><use x="1756.25" xlink:href="#DejaVuSans-109"/><use x="1853.662" xlink:href="#DejaVuSans-41"/></g><g id="legend_1"><path d="M128.2 184.5h136.45q3.2 0 3.2-3.2V88.96q0-3.2-3.2-3.2H128.2q-3.2 0-3.2 3.2v92.34q0 3.2 3.2 3.2z" style="fill:none;opacity:.8;stroke:#ccc;stroke-linejoin:miter" id="patch_5"/><path d="M131.4 98.718h32" style="fill:none;stroke:#000;stroke-linecap:round;stroke-width:1.5" id="line2d_8"/><g style="fill:#696969" transform="matrix(.16 0 0 -.16 176.2 104.317)" id="text_17"><defs><path d="M8.688 72.906h9.921V28.61q0-11.718 4.235-16.875 4.25-5.14 13.781-5.14 9.469 0 13.719 5.14 4.25 5.157 4.25 16.875v44.297H64.5V27.391q0-14.25-7.063-21.532-7.046-7.28-20.812-7.28-13.828 0-20.89 7.28-7.047 7.282-7.047 21.532z" id="DejaVuSans-85"/><path d="M53.516 70.516V60.89q-5.61 2.687-10.594 4-4.984 1.328-9.625 1.328-8.047 0-12.422-3.125t-4.375-8.89q0-4.845 2.906-7.313 2.907-2.453 11.016-3.97l5.953-1.218q11.031-2.11 16.281-7.406 5.25-5.297 5.25-14.172 0-10.61-7.11-16.078-7.093-5.469-20.812-5.469-5.172 0-11.015 1.172Q13.14.922 6.89 3.219v10.156q6-3.36 11.765-5.078 5.766-1.703 11.328-1.703 8.438 0 13.032 3.312 4.593 3.328 4.593 9.485 0 5.359-3.297 8.39-3.296 3.032-10.812 4.547L27.484 33.5q-11.03 2.188-15.968 6.875-4.922 4.688-4.922 13.047 0 9.672 6.812 15.234 6.813 5.563 18.766 5.563 5.14 0 10.453-.938 5.328-.922 10.89-2.765z" id="DejaVuSans-83"/></defs><use xlink:href="#DejaVuSans-85"/><use x="73.193" xlink:href="#DejaVuSans-83"/></g><path d="M131.4 122.203h32" style="fill:none;stroke:#009e73;stroke-linecap:round;stroke-width:1.5" id="line2d_10"/><g style="fill:#696969" transform="matrix(.16 0 0 -.16 176.2 127.802)" id="text_18"><use xlink:href="#DejaVuSans-78"/><use x="74.805" xlink:href="#DejaVuSans-74"/></g><path d="M131.4 145.688h32" style="fill:none;stroke:#d55e00;stroke-linecap:round;stroke-width:1.5" id="line2d_12"/><g style="fill:#696969" transform="matrix(.16 0 0 -.16 176.2 151.287)" id="text_19"><defs><path d="M19.672 34.813V8.108H35.5q7.953 0 11.781 3.297 3.844 3.297 3.844 10.078 0 6.844-3.844 10.078-3.828 3.25-11.781 3.25zm0 29.984V42.828h14.61q7.218 0 10.75 2.703 3.546 2.719 3.546 8.282 0 5.515-3.547 8.25-3.531 2.734-10.75 2.734zm-9.86 8.11h25.204q11.28 0 17.375-4.688Q58.5 63.53 58.5 54.89q0-6.703-3.125-10.657-3.125-3.953-9.188-4.922 7.282-1.562 11.313-6.53 4.031-4.954 4.031-12.376 0-9.765-6.64-15.093Q48.25 0 35.984 0H9.812z" id="DejaVuSans-66"/><path d="M45.406 27.984q0 9.766-4.031 15.125-4.016 5.375-11.297 5.375-7.219 0-11.25-5.375-4.031-5.359-4.031-15.125 0-9.718 4.031-15.093t11.25-5.375q7.281 0 11.297 5.375 4.031 5.375 4.031 15.093zm8.985-21.203q0-13.953-6.203-20.765Q42-20.797 29.203-20.797q-4.734 0-8.937.703-4.203.703-8.157 2.172v8.735q3.954-2.141 7.813-3.157 3.86-1.031 7.86-1.031 8.843 0 13.234 4.61 4.39 4.609 4.39 13.937v4.453q-2.781-4.844-7.125-7.234Q33.938 0 27.875 0 17.828 0 11.672 7.656q-6.156 7.672-6.156 20.328 0 12.688 6.156 20.344Q17.828 56 27.875 56q6.063 0 10.406-2.39 4.344-2.391 7.125-7.22v8.297h8.985z" id="DejaVuSans-103"/></defs><use xlink:href="#DejaVuSans-66"/><use x="68.604" xlink:href="#DejaVuSans-101"/><use x="130.127" xlink:href="#DejaVuSans-114"/><use x="169.49" xlink:href="#DejaVuSans-103"/><use x="232.967" xlink:href="#DejaVuSans-101"/><use x="294.49" xlink:href="#DejaVuSans-110"/></g><path d="M131.4 169.173h32" style="fill:none;stroke:#0072b2;stroke-linecap:round;stroke-width:1.5" id="line2d_14"/><g style="fill:#696969" transform="matrix(.16 0 0 -.16 176.2 174.773)" id="text_20"><defs><path d="M44.39 34.188q3.172-1.079 6.172-4.594 3-3.516 6.032-9.672L66.609 0H56l-9.313 18.703q-3.624 7.328-7.015 9.719-3.39 2.39-9.25 2.39h-10.75V0h-9.86v72.906h22.266q12.5 0 18.656-5.234 6.157-5.219 6.157-15.766 0-6.89-3.203-11.437-3.204-4.532-9.297-6.282zM19.673 64.797V38.922h12.406q7.125 0 10.766 3.297 3.64 3.297 3.64 9.687 0 6.39-3.64 9.64-3.64 3.25-10.766 3.25z" id="DejaVuSans-82"/><path d="M54.89 33.016V0h-8.984v32.719q0 7.765-3.031 11.61-3.031 3.858-9.078 3.858-7.281 0-11.484-4.64-4.204-4.625-4.204-12.64V0H9.08v75.984h9.03V46.188q3.235 4.937 7.594 7.374Q30.078 56 35.797 56q9.422 0 14.25-5.828 4.844-5.828 4.844-17.156z" id="DejaVuSans-104"/></defs><use xlink:href="#DejaVuSans-82"/><use x="64.982" xlink:href="#DejaVuSans-117"/><use x="128.361" xlink:href="#DejaVuSans-116"/><use x="167.57" xlink:href="#DejaVuSans-104"/><use x="230.949" xlink:href="#DejaVuSans-101"/><use x="292.473" xlink:href="#DejaVuSans-114"/><use x="333.586" xlink:href="#DejaVuSans-102"/><use x="368.791" xlink:href="#DejaVuSans-111"/><use x="429.973" xlink:href="#DejaVuSans-114"/><use x="469.336" xlink:href="#DejaVuSans-100"/></g></g></g></g><defs><clipPath id="pc7a7cf0cca"><path d="M117 77.76h725.4v498.96H117z"/></clipPath></defs></svg>