<svg height="864" viewBox="0 0 936 648" width="1248" xmlns="http://www.w3.org/2000/svg" xmlns:xlink="http://www.w3.org/1999/xlink"><defs><style>*{stroke-linecap:butt;stroke-linejoin:round}</style></defs><g id="figure_1"><path d="M0 648h936V0H0z" fill="#fff" id="patch_1"/><g id="axes_1"><path d="M117 576.72h725.4V77.76H117z" fill="none" id="patch_2"/><path clip-path="url(#p5d97aeb0fd)" d="M149.973 397.634l62.992-.105 7.874-.204 3.938-.242 3.937-.38 3.937-.606 1.968-.483 1.969-.72 1.968-.97 1.969-1.174 1.968-1.461 5.906-5.605 1.968-2.311 3.937-5.308 1.969-2.287 1.968-1.919 1.969-2.257 1.968-2.484 1.969-1.843 3.937-3.084 1.969-.612 1.968.447 1.969.613 1.968.838 1.969 1.142 1.968 1.89 1.969 2.808 3.937 4.824 3.937 7.121 5.905 9.443 1.969 2.54 1.968 1.313 3.937 2.302 1.969 1.302 1.968.651 1.969-1.095 1.968-.753 1.969.223 1.968-.457 1.969-.204 1.969.025 1.968-.194 5.906 1.066 1.968.534 3.937.736 1.969 1.19 1.968 2.102 1.969 1.735 1.968.539 7.874-.248 1.969-.504 1.968-.627 3.937-.787 1.969-.2 1.968-.384 3.938-1.51 3.937-1.228 7.874.934 1.968-.414 1.969-.639 1.968-.25 1.969-.424 1.968-.663 3.937.28 1.969-.125 1.968.095 1.969.252 1.968.014 1.969-.405 1.968-.903 1.969-.663 3.937-.407 1.969.021 1.968-.299 1.969-.54 1.968-1.01 3.937-3.4 1.969-1.909 1.968-2.347 1.969-2.713 1.968-3.01 3.937-5.371 1.969-2.333 1.968-1.957 1.969-2.27 1.968-1.997 1.969-1.77 1.968-1.928 1.969-1.166 1.968-.74 1.969-.114 1.968 1.175 1.969 1.455 3.937 2.198 1.969.827 1.968.401 1.969-.068 1.968-.802 1.969.224 1.968 1.234 1.969.871 1.968.303 3.937 2.2 1.969.314 1.968.2 1.969 1.218 1.968 1.756 1.969 2.03 1.968 2.357 1.969 2.979 1.968 4.104 1.969 3.273 1.968 2.569 1.969 2.753 1.968 3.291 1.969 2.482 1.969 1.777 3.937 4.746 1.968 2.476 1.969 2.958 1.968 2.311 1.969 1.37 1.968.656 1.969-.179 1.968-.946 1.969-1.829 1.968-.965 1.969-.398 1.968-1.116 1.969-.637 1.968-.781 1.969-.052 1.968.794 1.969-.813 1.968-.356 1.969.736 1.968.518 1.969.396 1.968.945 1.969 1.212 1.969.202 1.968-.65 1.969.125 1.968-.483 1.969-1.078 1.968-2.27 1.969-1.914 1.968-.635 1.969-2.65 1.968-2.912 1.969-1.033 1.968.186 3.937 3.548 1.969.713 1.968 1.525 1.969.802 1.968.022 1.969-.962 1.968-1.653 3.937-6.362 1.969-.277 1.969.014 1.968-1.018 1.969-1.722 1.968-4.673 1.969-3.57 1.968-.675 1.969-2.389 1.968-2.083 1.969-.267 1.968 1.224 1.969 3.662 1.968 3.114 1.969.849 1.968 1.32 1.969.895 1.968-.26 1.969.114 1.968 1.663 1.969.53 1.968-1.825 1.969-.988 1.968-.502 1.969-1.518 1.969-1.962 1.968-3.185 1.969-2.257 1.968-.677 1.969-2.502 1.968-1.467 1.969.632 1.968-1.085 1.969-2.535 1.968-1.014 1.969.208 1.968-.725 3.937-5.72 1.969-.896 1.968-.385 1.969-1.646 1.968-2.137 3.937-2.42 3.937-17.829 1.969-1.021 1.968-2.686 1.969-4.33 1.969-3.871 1.968-3.35 1.969 3.442 1.968 1.887 3.937-12.693 1.969-5.175 1.968-5.642 1.969-6.22 1.968 1.617 1.969 3.369 1.968-2.157 1.969-.227 1.968.583 1.969.774 1.968 3.48 1.969-1.387 1.968-.78 1.969 7.222 1.968 6.536 1.969 12.891 1.968 15.07 1.969 11.917 1.969 12.775 1.968 9.518 1.969 5.26 1.968 1.828 1.969-5.393 1.968-6.924 1.969-6.317 1.968-9.375 1.969-7.048 1.968-6.316 1.969-2.573 1.968-6.041 1.969-7.272 1.968-4.712 1.969-6.585 1.968-4.14 1.969 2.414 1.968 3.846 1.969 6.492 1.968 9.833 1.969 12.355 1.968 13.126 3.937 17.74 1.969 6.523 1.969 7.072 1.968 17.375 1.969 15.142 1.968 7.381 1.969 8.072 1.968-.33 1.969-1.934 1.968 1.725 1.969-4.932 3.937-33.46 1.968-8.664h0" fill="none" stroke="#000" stroke-linecap="round" stroke-width="1.5" id="line2d_1"/><path clip-path="url(#p5d97aeb0fd)" d="M149.973 397.634l68.898-.103 7.874-.275 1.969-.17 1.968-.482 1.969-.637 1.968-.939 3.937-3.561 1.969-2.236 1.968-3.864 1.969-5.5 1.968-6.298 1.969-5.157 1.968-10.791 1.969-15.658 9.842-72.53 1.969-12.864 1.968-11.062 1.969-14.806 1.969-8.248 1.968-.259 1.969-.036 1.968 2.312 1.969 11.973 1.968 17.703 1.969 20.186 1.968 15.458 1.969 18.017 1.968 13.871 3.937 30.93 1.969 11.662 1.968 21.117 1.969 13.835 1.968 1.993 1.969 5.925 1.968.458 1.969-5.539 1.968 2.455 1.969-3.346 1.968-1.417 1.969 4.727 1.968 9.275 1.969 8.285 1.969 10.695 1.968 6.729 1.969-2.196 1.968 3.422 1.969 8.22 1.968 4.302 1.969 8.228 1.968 11.392 1.969 1.019 1.968 4.162 1.969 9.884 1.968-.115 1.969-2.507 1.968.091 1.969-6.864 1.968-.74 1.969 2.372 1.968-2.543 1.969-4.787 1.968-5.717 3.937-17.715 1.969-5.32 1.969-3.43 1.968-5.897 1.969-2.905 1.968-2.264 1.969-4.703 1.968-2.678 1.969-4.437 1.968-4.878 1.969-3.243 1.968 3.056 1.969 3.892 1.968 4.5 1.969 6.223 1.968 3.673 1.969-1.285 1.968-.88 1.969-1.018 1.968-2.392 1.969-2.08 1.968-1.764 1.969 1.377 1.968 2.925 1.969 1.102 1.969-2.276 1.968-1.683 1.969-.545 1.968-2.893 1.969-3.673 1.968-1.464 1.969-2.793 1.968-3.14 1.969-2.049 1.968-.708 1.969 1.01 1.968-1.388 1.969-2.085 1.968-.251 1.969.302 1.968.08 1.969-1.703 1.968-2.252 1.969-.585 1.968-.247 1.969-.529 1.968-.382 1.969.223 5.906 1.34 1.968-.365 1.969-.231 1.968-.665 1.969-.986 1.968-.593 1.969.012 5.905 5.348 1.969 2.36 1.968.536 1.969-.613 1.968-1.48 3.937-5.045 3.937-6.35 1.969-1.266 1.968.223 1.969.716 3.937-3.995 1.969-.438 1.968-.179 3.937 1.333 1.969-.044 1.968 2.336 1.969 3.935 3.937 6.176 1.968 1.5 1.969.31 1.968-1.368 1.969-1.186 1.968-.127 1.969.37 1.968-.366 1.969-1.007 1.968.024 1.969 2.968 1.968 2.69 1.969-.764 1.968-1.448 1.969-.561 1.968.787 1.969 1.063 3.937 1.759 1.969.485 1.968-1.528 1.969-1.727 1.968-.84 1.969-1.173 1.968-3.108 1.969-3.971 1.968-.82 1.969 1.552 1.968.617 3.937-.334 1.969.394 1.968.811 3.937-1.185 1.969.672 1.968-.036 1.969-.7 1.968-.474 1.969.016 1.969.167 1.968-.684 1.969-.84 1.968-.47 1.969-.178 1.968.195 1.969.06 1.968-.8 3.937-3.375 1.969-.143 1.968-.437 1.969-.573 1.968-.335 1.969-1.448 1.968.171 1.969 1.329 1.968-.306 1.969.163 1.968-1.85 1.969-2.997 1.968 1.226 1.969 1.958 1.969 1.309 1.968-.478 1.969-1.81 1.968.998 1.969 2.483 1.968 1.489 1.969-1.867 1.968-5.439 1.969-2.38 1.968-.489 1.969.784 1.968 1.524 1.969-4.648 1.968-3.131 1.969.816 1.968-1.457 1.969-2.013 1.968-3.665 1.969-6.768 1.968-1.472 1.969 2.093 1.968 1.913 1.969 1.552 3.937-6.963 1.969-.68 1.968-3.24 1.969-5.093 1.968-4.305 1.969-7.783 1.968-5.12 1.969-4.53 1.968-5.753 1.969-7.966L711 297.661l1.969-7.64 1.968-.306 1.969-1.115 1.968-1.953 1.969-1.285 1.968 5.885 1.969 9.402 1.968.668 1.969 4.09 1.968 9.288 1.969 7.449 1.968 7.978 1.969 11.081 1.969 18.59 1.968 12.757 1.969 1.87 1.968 2.555 1.969 4.357 1.968-3.852 1.969-10.126 1.968-15.785 1.969-7.051 1.968 1.464 1.969-3.012 1.968-.684 1.969 9.733 1.968 2.78 1.969-.142 1.968.481 1.969.856 1.968 3.441 1.969.832 1.968 9.976 3.937 38.334 1.969 12.613 1.968 9.005 1.969 5.002 1.969 3.47 1.968-13.128 1.969-8.232 1.968 8.304 1.969 10.509 1.968 4.25 1.969 3.167 1.968.529 1.969-5.778 3.937-30.424 1.968-3.493h0" fill="none" stroke="#009e73" stroke-linecap="round" stroke-width="1.5" id="line2d_2"/><path clip-path="url(#p5d97aeb0fd)" d="M149.973 397.634l57.087-.038 13.78-.606 3.937-.304 3.937-1.175 1.968-1.061 1.969-1.858 1.968-2.464 3.937-15.393 1.969-1.744 1.968-3.753 1.969-8.151 1.968-7.166 1.969-5.042 1.968-10.919 1.969-17.932 3.937-41.135 1.968-13.99 1.969-16.946 1.968-27.904 3.937-36.433 1.969-37.23 1.969-21.117 1.968-9.137 1.969-15.696 1.968 5.232 1.969 25.477 1.968 30.14 1.969 45.836 1.968 38.443 1.969 29.155 1.968 45.494 1.969 40.112 1.968 19.41 1.969 27.487 1.968 49.059 1.969 27.94 1.968 12.891 1.969 20.132 1.968 3.07 1.969-3.412 1.968.759 1.969-21.876 1.968-11.032 1.969 4.17 1.968-10.35 1.969 2.92 1.969 19.22 1.968 9.63 1.969 2.275 3.937 13.004 1.968 3.26 1.969.873 1.968-3.033 1.969-5.422 1.968 3.943 1.969-1.479 1.968-15.089 1.969-12.056 1.968-8.227 1.969-6.596 1.968-5.65 1.969-11.221 1.968-7.317 1.969-1.782 1.968-.38 1.969-1.554 3.937-21.496 1.969-3.336 1.968-4.55 1.969-3.943 1.968-4.208 1.969-6.786 1.968-11.147 1.969-7.923 1.968.114 1.969 1.82 1.968 4.966 1.969 3.677 1.968-.568 3.937 14.975 1.969-4.246 1.968-.569 1.969 2.464 1.968-.075 1.969.303 1.968 2.388 1.969 2.882 1.968-1.29 1.969-4.852 1.969-5.27 1.968-4.55 1.969.039 1.968-.835 1.969-2.88 1.968 2.653 1.969 1.213 1.968-1.63 1.969.91 1.968 2.843 1.969-9.174 1.968-15.241 1.969-2.237 1.968-.796 1.969-2.35 1.968.454 1.969-2.237 1.968 8.114 1.969 11.677 1.968-.72 1.969-1.328 1.968.19 1.969-.228 1.968-1.023 1.969 9.705 1.969 14.028 1.968 2.767 1.969 3.64 1.968 4.095 1.969.947 1.968 2.086 1.969-9.289 1.968-10.54 1.969 1.024 1.968 1.251 1.969-.682 1.968-2.048 1.969-.796 1.968.759 1.969-.114 1.968-1.593 1.969-3.753 1.968-3.109 1.969-2.199 1.968-3.336 1.969-2.047 1.968-3.223 1.969-2.653 1.969-.57 1.968 1.555 1.969 2.389 1.968 1.82 1.969 1.668 1.968 1.895 1.969 1.138 1.968-.038 1.969.644 1.968 2.313 1.969 2.085 1.968-1.137 1.969-3.26 1.968-2.844 1.969-1.972 1.968-4.284 1.969-2.464 1.968.948 1.969 4.246 1.968 5.99 1.969 4.74 3.937 10.652 1.968.797 1.969-2.578 1.969-3.26 1.968 1.554 1.969 3.298 1.968-.076 1.969 1.479 1.968-.038 1.969-2.048 1.968-4.587 1.969-7.848 1.968-3.412 1.969-1.744 1.968-3.867 1.969.493 1.968 3.412 1.969 4.208 1.968 2.692 1.969.038 1.968 1.29 1.969 1.705 1.968 2.35 1.969 1.176 1.968-1.327 1.969-.493 3.937-4.056 1.969-.417 1.968-3.868 1.969-2.957 3.937 2.01 1.968.34 1.969-.795 1.968-.948 1.969-.265 3.937-.986 1.968-1.213 1.969-1.403 1.968-.683 1.969-.53 1.968.91 1.969.379 3.937-4.929 1.968-1.289 1.969-.569 1.969-.303 3.937-5.687 1.968.455 1.969 1.706 1.968 2.2 1.969-.039 1.968-3.26 1.969-1.175 1.968-.683 1.969-1.024 1.968.645 3.937-4.36 3.937-.227 1.969 1.781 1.968 1.327 1.969-4.89 1.968-4.057 1.969.152 1.968.796 1.969-.038 1.968-3.64 1.969-1.213 1.969 1.63 1.968-4.284 1.969-5.762 1.968-.038 1.969-1.896 1.968-7.886 1.969-15.202 1.968-10.995 1.969-3.374L711 304.71l1.969-6.483 1.968-3.108 3.937-3.868 1.969-1.933 1.968 6.066 1.969 7.317 1.968-6.635 1.969-1.592 1.968 14.103 1.969 19.715 1.968 9.895 1.969 8.265 1.969 14.482 1.968 9.554 1.969 4.777 1.968.417 1.969-.341 1.968-4.853 1.969-12.283 1.968-10.881 1.969 4.587 1.968 7.128 1.969 2.236 1.968 3.147 1.969 22.217 1.968 10.843 1.969.796 1.968 3.905 1.969-.38 1.968 2.882 1.969 2.237 1.968 3.791 1.969 16.606 1.968 19.79 1.969 8.871 1.968 4.17 1.969-9.06 1.969-12.398 1.968-20.586 1.969-11.487 1.968 1.478 1.969.986 1.968 1.706 1.969 6.976 1.968 2.426 1.969-2.199 1.968-9.023 1.969-14.71 1.968-5.61h0" fill="none" stroke="#d55e00" stroke-linecap="round" stroke-width="1.5" id="line2d_3"/><path clip-path="url(#p5d97aeb0fd)" d="M149.973 397.634h84.646l3.937-7.723h1.969l3.937-3.862 1.968-5.793 1.969-11.586 1.968-13.516 1.969-9.655 3.937-15.447 1.968-11.586 1.969-19.31 1.968-17.378 1.969 3.862 1.968 1.931 1.969-34.757 1.969-40.55 1.968-11.585 1.969 15.447 1.968 25.103 1.969 5.792 1.968-7.723 1.969 32.826 1.968 55.997 1.969 27.033 1.968 15.447 1.969 17.379 1.968 7.723 1.969 15.448 1.968 36.688 1.969 40.55 1.968 15.447 1.969-5.793 1.968-13.517 1.969 5.793 1.968 13.517 1.969-27.033 1.968-46.343 1.969-15.447 1.968 9.654 1.969 11.586 1.969 1.93 1.968-1.93 1.969 3.862h1.968l1.969 7.724 1.968 5.792 1.969 3.862 1.968 11.586 1.969 13.516 1.968 11.586 1.969 3.862 1.968-7.724 3.937-42.48 3.937-27.033 1.969-5.793 1.968 1.93 1.969-1.93 3.937 7.723 3.937-11.585 1.969-7.724 1.968-5.793 1.969 7.724 1.968 15.448 1.969 9.654 1.968 3.862 1.969-1.93 1.968-3.863h1.969l1.968-13.516 1.969-19.31 1.968-7.723 1.969-3.862h1.968l1.969 1.93h1.968l3.937 11.586 3.937-3.862 3.937 3.862h1.969l3.937 11.586 3.937 3.862 3.937-3.862h1.969l1.968-9.655 1.969-7.724 1.968 1.931 3.937-3.861h3.937l3.937-7.724 1.969-1.931h1.968l1.969 1.93h5.905l1.969-3.861h1.968l1.969 3.862 3.937-3.862h1.969l3.937 23.171h3.937l3.937 3.862h1.968l1.969 7.724 1.968 5.793 1.969-5.793 1.968-3.862 3.937 7.724h1.969l1.968-9.655 1.969-3.862 1.968 7.724h1.969l1.968-5.793 1.969-3.862h1.969l1.968-3.862h1.969l5.905 11.586h3.937l1.969 3.862 1.968-1.931 1.969-7.724 5.905-5.793h1.969l3.937-3.862 1.968 3.862h1.969l1.968-3.862h5.906l1.968-3.861 1.969-5.793 1.969-1.931 3.937 7.724h3.937l1.968 3.861 3.937-7.723 1.969 3.862h5.905l1.969-1.931 1.968 7.723 1.969 9.655 3.937-3.862h3.937l1.968 1.931 1.969 3.862 1.968-1.931 1.969-3.862h3.937l1.969-5.793h3.937l1.968-3.862 1.969 1.931h3.937l1.968 7.724 1.969 1.931h1.968l1.969 7.724 1.968 1.93h5.906l1.968-1.93 1.969-13.517 1.968-30.895 1.969-23.17 1.968-3.863h1.969l1.969-5.793 1.968-15.447 1.969-3.862 1.968 13.517 1.969 1.93 3.937-23.17 1.968-1.932 3.937 34.757 1.969 30.895 1.968 40.55 1.969 19.31 1.968 11.585 1.969-1.931 1.968-5.793 1.969-7.724 1.968-27.033 1.969-21.24 1.968 1.93 1.969 11.586 1.968-5.792 1.969-17.379 3.937-7.723 3.937-30.895 3.937-23.172 1.969-3.861 1.968 17.378 1.969-1.931 1.968-11.586 1.969 5.793H711l1.969 17.379 1.968-3.862 1.969-40.55 1.968-5.793h1.969l1.968-23.17 1.969-9.656 1.968 17.379 1.969 30.895 1.968 11.585 1.969 40.55 1.968 73.376 1.969 1.93 1.969-28.964 1.968-5.792 1.969 11.585 1.968 30.895 1.969-34.757 1.968-81.099 1.969-5.793 1.968 27.033 1.969 1.931 1.968-15.447 1.969-17.379 1.968-19.309 1.969-17.378 3.937 102.34 1.968-5.794 1.969-1.93 1.968 9.654 1.969 71.445 1.968 96.546 1.969 13.517 1.968-17.378 1.969-30.895 1.968-17.379 1.969-36.688 1.969-55.997 1.968-1.93 1.969-17.379 1.968-21.24h1.969l1.968-1.931 1.969 17.378 1.968-27.033 1.969-30.895 1.968 15.448h1.969l1.968 30.895h0" fill="none" stroke="#0072b2" stroke-linecap="round" stroke-width="1.5" id="line2d_4"/><path clip-path="url(#p5d97aeb0fd)" d="M117 397.634h725.4" fill="none" stroke="red" stroke-dasharray="1.5,2.475" stroke-width="1.5" id="line2d_5"/><path d="M117 576.72V77.76" fill="none" stroke="#d3d3d3" stroke-linecap="square" stroke-width="1.25" id="patch_3"/><path d="M117 576.72h725.4" fill="none" stroke="#d3d3d3" stroke-linecap="square" stroke-width="1.25" id="patch_4"/><g id="matplotlib.axis_1"><g id="xtick_1"><g transform="matrix(.16 0 0 -.16 188.029 598.378)" fill="#696969" id="text_1"><defs><path d="M9.813 72.906h14.703l18.593-49.61 18.703 49.61h14.704V0H66.89v64.016l-18.797-50h-9.907l-18.796 50V0H9.813z" id="DejaVuSans-77"/><path d="M34.281 27.484q-10.89 0-15.093-2.484-4.204-2.484-4.204-8.5 0-4.781 3.157-7.594 3.156-2.797 8.562-2.797 7.485 0 12 5.297 4.516 5.297 4.516 14.078v2zm17.922 3.72V0H43.22v8.297Q40.14 3.328 35.547.953q-4.594-2.375-11.234-2.375-8.391 0-13.36 4.719Q6 8.016 6 15.922q0 9.219 6.172 13.906 6.187 4.688 18.437 4.688h12.61v.89q0 6.203-4.078 9.594-4.078 3.39-11.453 3.39-4.688 0-9.141-1.124-4.438-1.125-8.531-3.375v8.312q4.921 1.906 9.562 2.844 4.64.953 9.031.953 11.875 0 17.735-6.156 5.86-6.14 5.86-18.64z" id="DejaVuSans-97"/><path d="M41.11 46.297q-1.516.875-3.297 1.281Q36.03 48 33.89 48q-7.625 0-11.703-4.953-4.079-4.953-4.079-14.234V0H9.08v54.688h9.03v-8.5q2.844 4.984 7.375 7.39Q30.031 56 36.531 56q.922 0 2.047-.125 1.125-.11 2.484-.36z" id="DejaVuSans-114"/></defs><use xlink:href="#DejaVuSans-77"/><use x="86.279" xlink:href="#DejaVuSans-97"/><use x="147.559" xlink:href="#DejaVuSans-114"/></g></g><g id="xtick_2"><g transform="matrix(.16 0 0 -.16 306.663 598.378)" fill="#696969" id="text_2"><defs><path d="M32.172-5.078q-3.797-9.766-7.422-12.735-3.61-2.984-9.656-2.984H7.906v7.516h5.282q3.703 0 5.75 1.765Q21-9.766 23.483-3.219l1.61 4.094-22.11 53.813H12.5l17.094-42.766 17.093 42.766h9.516z" id="DejaVuSans-121"/></defs><use xlink:href="#DejaVuSans-77"/><use x="86.279" xlink:href="#DejaVuSans-97"/><use x="147.559" xlink:href="#DejaVuSans-121"/></g></g><g id="xtick_3"><g transform="matrix(.16 0 0 -.16 433.63 598.378)" fill="#696969" id="text_3"><defs><path d="M9.813 72.906h9.859V5.078q0-13.187-5-19.14-5-5.954-16.094-5.954h-3.75v8.297h3.078q6.531 0 9.219 3.672Q9.813-4.39 9.813 5.078z" id="DejaVuSans-74"/><path d="M8.5 21.578v33.11h8.984V21.922q0-7.766 3.016-11.656 3.031-3.875 9.094-3.875 7.265 0 11.484 4.64 4.234 4.64 4.234 12.656v31h8.985V0h-8.984v8.406Q42.047 3.422 37.718 1q-4.313-2.422-10.032-2.422-9.421 0-14.312 5.86Q8.5 10.296 8.5 21.578zM31.11 56z" id="DejaVuSans-117"/><path d="M9.422 75.984h8.984V0H9.422z" id="DejaVuSans-108"/></defs><use xlink:href="#DejaVuSans-74"/><use x="29.492" xlink:href="#DejaVuSans-117"/><use x="92.871" xlink:href="#DejaVuSans-108"/></g></g><g id="xtick_4"><g transform="matrix(.16 0 0 -.16 550.25 598.378)" fill="#696969" id="text_4"><defs><path d="M53.516 70.516V60.89q-5.61 2.687-10.594 4-4.984 1.328-9.625 1.328-8.047 0-12.422-3.125t-4.375-8.89q0-4.845 2.906-7.313 2.907-2.453 11.016-3.97l5.953-1.218q11.031-2.11 16.281-7.406 5.25-5.297 5.25-14.172 0-10.61-7.11-16.078-7.093-5.469-20.812-5.469-5.172 0-11.015 1.172Q13.14.922 6.89 3.219v10.156q6-3.36 11.765-5.078 5.766-1.703 11.328-1.703 8.438 0 13.032 3.312 4.593 3.328 4.593 9.485 0 5.359-3.297 8.39-3.296 3.032-10.812 4.547L27.484 33.5q-11.03 2.188-15.968 6.875-4.922 4.688-4.922 13.047 0 9.672 6.812 15.234 6.813 5.563 18.766 5.563 5.14 0 10.453-.938 5.328-.922 10.89-2.765z" id="DejaVuSans-83"/><path d="M56.203 29.594v-4.39H14.891q.593-9.282 5.593-14.142 5-4.859 13.938-4.859 5.172 0 10.031 1.266 4.86 1.265 9.656 3.812v-8.5Q49.266.734 44.187-.344 39.11-1.422 33.892-1.422q-13.094 0-20.735 7.61-7.64 7.625-7.64 20.625 0 13.421 7.25 21.296Q20.016 56 32.328 56q11.031 0 17.453-7.11 6.422-7.093 6.422-19.296zm-8.984 2.64q-.094 7.36-4.125 11.75-4.032 4.407-10.672 4.407-7.516 0-12.031-4.25-4.516-4.25-5.203-11.97z" id="DejaVuSans-101"/><path d="M18.11 8.203v-29H9.077v75.484h9.031v-8.296q2.844 4.875 7.157 7.234Q29.594 56 35.594 56q9.968 0 16.187-7.906 6.235-7.907 6.235-20.797T51.78 6.484q-6.218-7.906-16.187-7.906-6 0-10.328 2.375-4.313 2.375-7.157 7.25zm30.578 19.094q0 9.906-4.079 15.547-4.078 5.64-11.203 5.64-7.14 0-11.218-5.64-4.079-5.64-4.079-15.547 0-9.906 4.078-15.547 4.079-5.64 11.22-5.64 7.124 0 11.202 5.64t4.078 15.547z" id="DejaVuSans-112"/></defs><use xlink:href="#DejaVuSans-83"/><use x="63.477" xlink:href="#DejaVuSans-101"/><use x="125" xlink:href="#DejaVuSans-112"/></g></g><g id="xtick_5"><g transform="matrix(.16 0 0 -.16 669.795 598.378)" fill="#696969" id="text_5"><defs><path d="M9.813 72.906h13.28l32.329-60.984v60.984h9.562V0h-13.28L19.39 60.984V0H9.813z" id="DejaVuSans-78"/><path d="M30.61 48.39q-7.22 0-11.422-5.64-4.204-5.64-4.204-15.453 0-9.813 4.172-15.453 4.188-5.64 11.453-5.64 7.188 0 11.375 5.655 4.203 5.672 4.203 15.438 0 9.719-4.203 15.406-4.187 5.688-11.375 5.688zm0 7.61q11.718 0 18.406-7.625 6.703-7.61 6.703-21.078 0-13.422-6.703-21.078-6.688-7.64-18.407-7.64-11.765 0-18.437 7.64-6.656 7.656-6.656 21.078 0 13.469 6.656 21.078Q18.844 56 30.609 56z" id="DejaVuSans-111"/><path d="M2.984 54.688H12.5L29.594 8.797l17.093 45.89h9.516L35.687 0H23.485z" id="DejaVuSans-118"/></defs><use xlink:href="#DejaVuSans-78"/><use x="74.805" xlink:href="#DejaVuSans-111"/><use x="135.986" xlink:href="#DejaVuSans-118"/></g></g><g id="xtick_6"><g transform="matrix(.16 0 0 -.16 793.158 598.378)" fill="#696969" id="text_6"><defs><path d="M54.89 33.016V0h-8.984v32.719q0 7.765-3.031 11.61-3.031 3.858-9.078 3.858-7.281 0-11.484-4.64-4.204-4.625-4.204-12.64V0H9.08v54.688h9.03v-8.5q3.235 4.937 7.594 7.374Q30.078 56 35.797 56q9.422 0 14.25-5.828 4.844-5.828 4.844-17.156z" id="DejaVuSans-110"/></defs><use xlink:href="#DejaVuSans-74"/><use x="29.492" xlink:href="#DejaVuSans-97"/><use x="90.771" xlink:href="#DejaVuSans-110"/></g></g></g><g id="matplotlib.axis_2"><g id="ytick_1"><g transform="matrix(.16 0 0 -.16 83.912 542.253)" fill="#696969" id="text_7"><defs><path d="M10.594 35.5h62.593v-8.297H10.594z" id="DejaVuSans-8722"/><path d="M19.188 8.297h34.421V0H7.33v8.297q5.609 5.812 15.296 15.594 9.703 9.797 12.188 12.64 4.734 5.313 6.609 9 1.89 3.688 1.89 7.25 0 5.813-4.078 9.469-4.078 3.672-10.625 3.672-4.64 0-9.797-1.61-5.14-1.609-11-4.89v9.969Q13.767 71.78 18.938 73q5.188 1.219 9.485 1.219 11.328 0 18.062-5.672 6.735-5.656 6.735-15.125 0-4.5-1.688-8.531-1.672-4.016-6.125-9.485-1.218-1.422-7.765-8.187-6.532-6.766-18.453-18.922z" id="DejaVuSans-50"/></defs><use xlink:href="#DejaVuSans-8722"/><use x="83.789" xlink:href="#DejaVuSans-50"/></g></g><g id="ytick_2"><g transform="matrix(.16 0 0 -.16 83.912 472.983)" fill="#696969" id="text_8"><defs><path d="M12.406 8.297h16.11v55.625l-17.532-3.516v8.985l17.438 3.515h9.86V8.296H54.39V0H12.406z" id="DejaVuSans-49"/></defs><use xlink:href="#DejaVuSans-8722"/><use x="83.789" xlink:href="#DejaVuSans-49"/></g></g><g id="ytick_3"><g transform="matrix(.16 0 0 -.16 97.32 403.713)" fill="#696969" id="text_9"><defs><path d="M31.781 66.406q-7.61 0-11.453-7.5Q16.5 51.422 16.5 36.375q0-14.984 3.828-22.484 3.844-7.5 11.453-7.5 7.672 0 11.5 7.5 3.844 7.5 3.844 22.484 0 15.047-3.844 22.531-3.828 7.5-11.5 7.5zm0 7.813q12.266 0 18.735-9.703 6.468-9.688 6.468-28.141 0-18.406-6.468-28.11-6.47-9.687-18.735-9.687-12.25 0-18.718 9.688-6.47 9.703-6.47 28.109 0 18.453 6.47 28.14Q19.53 74.22 31.78 74.22z" id="DejaVuSans-48"/></defs><use xlink:href="#DejaVuSans-48"/></g></g><g id="ytick_4"><use xlink:href="#DejaVuSans-49" transform="matrix(.16 0 0 -.16 97.32 334.443)" fill="#696969" id="text_10"/></g><g id="ytick_5"><use xlink:href="#DejaVuSans-50" transform="matrix(.16 0 0 -.16 97.32 265.173)" fill="#696969" id="text_11"/></g><g id="ytick_6"><g transform="matrix(.16 0 0 -.16 97.32 195.903)" fill="#696969" id="text_12"><defs><path d="M40.578 39.313Q47.656 37.797 51.625 33q3.984-4.781 3.984-11.813 0-10.78-7.422-16.703-7.421-5.906-21.093-5.906-4.578 0-9.438.906-4.86.907-10.031 2.72v9.515q4.094-2.39 8.969-3.61 4.89-1.218 10.218-1.218 9.266 0 14.125 3.656 4.86 3.656 4.86 10.64 0 6.454-4.516 10.079-4.515 3.64-12.562 3.64h-8.5v8.11h8.89q7.266 0 11.125 2.906 3.86 2.906 3.86 8.375 0 5.61-3.985 8.61-3.968 3.015-11.39 3.015-4.063 0-8.703-.89-4.641-.876-10.203-2.72v8.782q5.624 1.562 10.53 2.344 4.907.78 9.25.78 11.235 0 17.766-5.109 6.547-5.093 6.547-13.78 0-6.063-3.468-10.235-3.47-4.172-9.86-5.782z" id="DejaVuSans-51"/></defs><use xlink:href="#DejaVuSans-51"/></g></g><g id="ytick_7"><g transform="matrix(.16 0 0 -.16 97.32 126.633)" fill="#696969" id="text_13"><defs><path d="M37.797 64.313L12.89 25.39h24.906zm-2.594 8.593H47.61V25.391h10.407v-8.203H47.609V0h-9.812v17.188H4.89v9.515z" id="DejaVuSans-52"/></defs><use xlink:href="#DejaVuSans-52"/></g></g><g transform="matrix(0 -.2 -.2 0 75.753 379.813)" fill="#696969" id="text_14"><defs><path d="M51.125 44H36.922l-4.11-16.313h14.313zm-7.328 27.781l-5.078-20.265h14.265L58.11 71.78h7.813L60.89 51.516h15.234V44h-17.14l-4-16.313h15.53V20.22H53.079L48 0h-7.813l5.032 20.219H30.906L25.875 0h-7.86l5.079 20.219H7.719v7.468h17.187L29 44H13.281v7.516h17.625l4.985 20.265z" id="DejaVuSans-35"/><path d="M37.11 75.984V68.5h-8.594q-4.828 0-6.72-1.953-1.874-1.953-1.874-7.031v-4.828h14.797v-6.985H19.922V0H10.89v47.703H2.297v6.984h8.594V58.5q0 9.125 4.25 13.297 4.25 4.187 13.468 4.187z" id="DejaVuSans-102"/><path d="M48.781 52.594v-8.407q-3.812 2.11-7.64 3.157-3.828 1.047-7.735 1.047-8.75 0-13.593-5.547-4.829-5.532-4.829-15.547 0-10.016 4.829-15.563 4.843-5.53 13.593-5.53 3.907 0 7.735 1.046 3.828 1.047 7.64 3.156V2.094Q45.016.344 40.984-.531q-4.015-.89-8.562-.89-12.36 0-19.64 7.765-7.266 7.765-7.266 20.953 0 13.375 7.343 21.031Q20.22 56 33.016 56q4.14 0 8.093-.86 3.953-.843 7.672-2.546z" id="DejaVuSans-99"/><path d="M44.281 53.078v-8.5q-3.797 1.953-7.906 2.922-4.094.984-8.5.984-6.688 0-10.031-2.047-3.344-2.046-3.344-6.156 0-3.125 2.39-4.906 2.391-1.781 9.626-3.39l3.078-.688q9.562-2.047 13.593-5.781 4.032-3.735 4.032-10.422 0-7.625-6.032-12.078-6.03-4.438-16.578-4.438-4.39 0-9.156.86Q10.688.296 5.422 2v9.281q4.984-2.594 9.812-3.89 4.829-1.282 9.579-1.282 6.343 0 9.75 2.172 3.421 2.172 3.421 6.125 0 3.656-2.468 5.61-2.453 1.953-10.813 3.765l-3.125.735q-8.344 1.75-12.062 5.39-3.704 3.64-3.704 9.985 0 7.718 5.47 11.906Q16.75 56 26.811 56q4.97 0 9.36-.734 4.406-.72 8.11-2.188z" id="DejaVuSans-115"/></defs><use xlink:href="#DejaVuSans-35"/><use x="83.789" xlink:href="#DejaVuSans-32"/><use x="115.576" xlink:href="#DejaVuSans-111"/><use x="176.758" xlink:href="#DejaVuSans-102"/><use x="211.963" xlink:href="#DejaVuSans-32"/><use x="243.75" xlink:href="#DejaVuSans-99"/><use x="298.73" xlink:href="#DejaVuSans-97"/><use x="360.01" xlink:href="#DejaVuSans-115"/><use x="412.109" xlink:href="#DejaVuSans-101"/><use x="473.633" xlink:href="#DejaVuSans-115"/></g></g><g transform="matrix(.24 0 0 -.24 238.224 71.76)" fill="#696969" id="text_15"><defs><path d="M4.203 54.688h8.985l11.234-42.672 11.172 42.672h10.593l11.235-42.672 11.187 42.672h8.985L63.28 0H52.688L40.922 44.828 29.109 0H18.5z" id="DejaVuSans-119"/><path d="M64.406 67.281v-10.39q-4.984 4.64-10.625 6.922-5.64 2.296-11.984 2.296-12.5 0-19.14-7.64-6.641-7.64-6.641-22.094 0-14.406 6.64-22.047 6.64-7.64 19.14-7.64 6.345 0 11.985 2.296 5.64 2.297 10.625 6.938V5.609Q59.234 2.094 53.437.33q-5.78-1.75-12.218-1.75-16.563 0-26.094 10.124-9.516 10.14-9.516 27.672 0 17.578 9.516 27.703 9.531 10.14 26.094 10.14 6.531 0 12.312-1.734 5.797-1.734 10.875-5.203z" id="DejaVuSans-67"/><path d="M8.203 72.906h46.875v-4.203L28.61 0H18.312L43.22 64.594H8.203z" id="DejaVuSans-55"/><path d="M45.406 46.39v29.594h8.985V0h-8.985v8.203Q42.578 3.328 38.25.953q-4.313-2.375-10.375-2.375-9.906 0-16.14 7.906-6.22 7.922-6.22 20.813 0 12.89 6.22 20.797Q17.968 56 27.874 56q6.063 0 10.375-2.375 4.328-2.36 7.156-7.234zm-30.61-19.093q0-9.906 4.079-15.547 4.078-5.64 11.203-5.64 7.125 0 11.219 5.64 4.11 5.64 4.11 15.547 0 9.906-4.11 15.547-4.094 5.64-11.219 5.64-7.125 0-11.203-5.64-4.078-5.64-4.078-15.547z" id="DejaVuSans-100"/><path d="M45.406 27.984q0 9.766-4.031 15.125-4.016 5.375-11.297 5.375-7.219 0-11.25-5.375-4.031-5.359-4.031-15.125 0-9.718 4.031-15.093t11.25-5.375q7.281 0 11.297 5.375 4.031 5.375 4.031 15.093zm8.985-21.203q0-13.953-6.203-20.765Q42-20.797 29.203-20.797q-4.734 0-8.937.703-4.203.703-8.157 2.172v8.735q3.954-2.141 7.813-3.157 3.86-1.031 7.86-1.031 8.843 0 13.234 4.61 4.39 4.609 4.39 13.937v4.453q-2.781-4.844-7.125-7.234Q33.938 0 27.875 0 17.828 0 11.672 7.656q-6.156 7.672-6.156 20.328 0 12.688 6.156 20.344Q17.828 56 27.875 56q6.063 0 10.406-2.39 4.344-2.391 7.125-7.22v8.297h8.985z" id="DejaVuSans-103"/><path d="M25.39 72.906h8.297L8.297-9.28H0z" id="DejaVuSans-47"/><path d="M9.813 72.906h9.859V42.094L52.39 72.906h12.703L28.906 38.922 67.672 0H54.688L19.672 35.11V0h-9.86z" id="DejaVuSans-75"/></defs><use xlink:href="#DejaVuSans-78"/><use x="74.805" xlink:href="#DejaVuSans-101"/><use x="136.328" xlink:href="#DejaVuSans-119"/><use x="218.115" xlink:href="#DejaVuSans-32"/><use x="249.902" xlink:href="#DejaVuSans-67"/><use x="319.727" xlink:href="#DejaVuSans-97"/><use x="381.006" xlink:href="#DejaVuSans-115"/><use x="433.105" xlink:href="#DejaVuSans-101"/><use x="494.629" xlink:href="#DejaVuSans-115"/><use x="546.729" xlink:href="#DejaVuSans-32"/><use x="578.516" xlink:href="#DejaVuSans-55"/><use x="642.139" xlink:href="#DejaVuSans-100"/><use x="705.615" xlink:href="#DejaVuSans-32"/><use x="737.402" xlink:href="#DejaVuSans-97"/><use x="798.682" xlink:href="#DejaVuSans-118"/><use x="857.861" xlink:href="#DejaVuSans-103"/><use x="921.338" xlink:href="#DejaVuSans-32"/><use x="953.125" xlink:href="#DejaVuSans-115"/><use x="1005.225" xlink:href="#DejaVuSans-108"/><use x="1033.008" xlink:href="#DejaVuSans-111"/><use x="1094.189" xlink:href="#DejaVuSans-112"/><use x="1157.666" xlink:href="#DejaVuSans-101"/><use x="1219.189" xlink:href="#DejaVuSans-32"/><use x="1250.977" xlink:href="#DejaVuSans-111"/><use x="1312.158" xlink:href="#DejaVuSans-102"/><use x="1347.363" xlink:href="#DejaVuSans-32"/><use x="1379.15" xlink:href="#DejaVuSans-49"/><use x="1442.773" xlink:href="#DejaVuSans-52"/><use x="1506.396" xlink:href="#DejaVuSans-32"/><use x="1538.184" xlink:href="#DejaVuSans-97"/><use x="1599.463" xlink:href="#DejaVuSans-118"/><use x="1658.643" xlink:href="#DejaVuSans-103"/><use x="1722.119" xlink:href="#DejaVuSans-47"/><use x="1755.811" xlink:href="#DejaVuSans-49"/><use x="1819.434" xlink:href="#DejaVuSans-48"/><use x="1883.057" xlink:href="#DejaVuSans-48"/><use x="1946.68" xlink:href="#DejaVuSans-75"/></g><g id="legend_1"><path d="M694.75 184.5H831.2q3.2 0 3.2-3.2V88.96q0-3.2-3.2-3.2H694.75q-3.2 0-3.2 3.2v92.34q0 3.2 3.2 3.2z" fill="none" opacity=".8" stroke="#ccc" id="patch_5"/><path d="M697.95 98.718h32" fill="none" stroke="#000" stroke-linecap="round" stroke-width="1.5" id="line2d_6"/><g transform="matrix(.16 0 0 -.16 742.75 104.317)" fill="#696969" id="text_16"><defs><path d="M8.688 72.906h9.921V28.61q0-11.718 4.235-16.875 4.25-5.14 13.781-5.14 9.469 0 13.719 5.14 4.25 5.157 4.25 16.875v44.297H64.5V27.391q0-14.25-7.063-21.532-7.046-7.28-20.812-7.28-13.828 0-20.89 7.28-7.047 7.282-7.047 21.532z" id="DejaVuSans-85"/></defs><use xlink:href="#DejaVuSans-85"/><use x="73.193" xlink:href="#DejaVuSans-83"/></g><path d="M697.95 122.203h32" fill="none" stroke="#009e73" stroke-linecap="round" stroke-width="1.5" id="line2d_8"/><g transform="matrix(.16 0 0 -.16 742.75 127.802)" fill="#696969" id="text_17"><use xlink:href="#DejaVuSans-78"/><use x="74.805" xlink:href="#DejaVuSans-74"/></g><path d="M697.95 145.688h32" fill="none" stroke="#d55e00" stroke-linecap="round" stroke-width="1.5" id="line2d_10"/><g transform="matrix(.16 0 0 -.16 742.75 151.287)" fill="#696969" id="text_18"><defs><path d="M19.672 34.813V8.108H35.5q7.953 0 11.781 3.297 3.844 3.297 3.844 10.078 0 6.844-3.844 10.078-3.828 3.25-11.781 3.25zm0 29.984V42.828h14.61q7.218 0 10.75 2.703 3.546 2.719 3.546 8.282 0 5.515-3.547 8.25-3.531 2.734-10.75 2.734zm-9.86 8.11h25.204q11.28 0 17.375-4.688Q58.5 63.53 58.5 54.89q0-6.703-3.125-10.657-3.125-3.953-9.188-4.922 7.282-1.562 11.313-6.53 4.031-4.954 4.031-12.376 0-9.765-6.64-15.093Q48.25 0 35.984 0H9.812z" id="DejaVuSans-66"/></defs><use xlink:href="#DejaVuSans-66"/><use x="68.604" xlink:href="#DejaVuSans-101"/><use x="130.127" xlink:href="#DejaVuSans-114"/><use x="169.49" xlink:href="#DejaVuSans-103"/><use x="232.967" xlink:href="#DejaVuSans-101"/><use x="294.49" xlink:href="#DejaVuSans-110"/></g><path d="M697.95 169.173h32" fill="none" stroke="#0072b2" stroke-linecap="round" stroke-width="1.5" id="line2d_12"/><g transform="matrix(.16 0 0 -.16 742.75 174.773)" fill="#696969" id="text_19"><defs><path d="M44.39 34.188q3.172-1.079 6.172-4.594 3-3.516 6.032-9.672L66.609 0H56l-9.313 18.703q-3.624 7.328-7.015 9.719-3.39 2.39-9.25 2.39h-10.75V0h-9.86v72.906h22.266q12.5 0 18.656-5.234 6.157-5.219 6.157-15.766 0-6.89-3.203-11.437-3.204-4.532-9.297-6.282zM19.673 64.797V38.922h12.406q7.125 0 10.766 3.297 3.64 3.297 3.64 9.687 0 6.39-3.64 9.64-3.64 3.25-10.766 3.25z" id="DejaVuSans-82"/><path d="M18.313 70.219V54.688h18.5v-6.985h-18.5V18.016q0-6.688 1.828-8.594 1.828-1.906 7.453-1.906h9.218V0h-9.218q-10.407 0-14.36 3.875-3.953 3.89-3.953 14.14v29.688H2.687v6.984h6.594V70.22z" id="DejaVuSans-116"/><path d="M54.89 33.016V0h-8.984v32.719q0 7.765-3.031 11.61-3.031 3.858-9.078 3.858-7.281 0-11.484-4.64-4.204-4.625-4.204-12.64V0H9.08v75.984h9.03V46.188q3.235 4.937 7.594 7.374Q30.078 56 35.797 56q9.422 0 14.25-5.828 4.844-5.828 4.844-17.156z" id="DejaVuSans-104"/></defs><use xlink:href="#DejaVuSans-82"/><use x="64.982" xlink:href="#DejaVuSans-117"/><use x="128.361" xlink:href="#DejaVuSans-116"/><use x="167.57" xlink:href="#DejaVuSans-104"/><use x="230.949" xlink:href="#DejaVuSans-101"/><use x="292.473" xlink:href="#DejaVuSans-114"/><use x="333.586" xlink:href="#DejaVuSans-102"/><use x="368.791" xlink:href="#DejaVuSans-111"/><use x="429.973" xlink:href="#DejaVuSans-114"/><use x="469.336" xlink:href="#DejaVuSans-100"/></g></g></g></g><defs><clipPath id="p5d97aeb0fd"><path d="M117 77.76h725.4v498.96H117z"/></clipPath></defs></svg>