<svg height="864" viewBox="0 0 936 648" width="1248" xmlns="http://www.w3.org/2000/svg" xmlns:xlink="http://www.w3.org/1999/xlink"><defs><style>*{stroke-linecap:butt;stroke-linejoin:round}</style></defs><g id="figure_1"><path d="M0 648h936V0H0z" style="fill:#fff" id="patch_1"/><g id="axes_1"><path d="M117 576.72h725.4V77.76H117z" style="fill:none" id="patch_2"/><path clip-path="url(#p482ef246a8)" d="m149.973 554.039 44.045-.089 4.894-.17 3.67-.273 1.224-.222 1.223-.366 2.447-1.1 1.224-.778 2.447-1.88 1.223-1.326 2.447-3.076 1.224-1.88 1.223-1.643 1.223-1.895 2.447-4.388 2.447-4.828 1.224-2.635 1.223-1.574 2.447-3.723 3.67-4.705 1.224-.982 1.224-.795 1.223-.396 3.67-.662 1.224.074 1.224.618 1.223.026 1.224.325 1.223.444 1.223.276 1.224.085 2.447-.55 1.223.038 4.894.862 1.224-.227 2.447-.173 1.223.5 1.224.167 2.447.887 2.447 1.718 2.447 1.105 1.223.217 1.224.499 1.223.313 1.223.713 2.447 1.193 1.224.012 1.223.252 1.224.133 3.67.847 1.224.026 1.223-.136 3.67.945 1.224.156 1.224.024 1.223-.149 2.447.01 2.447.664 1.223-.452 1.224-.023 2.447.213 1.223.008 1.224-.379 2.447-.15 1.223-.179 2.447.303 1.224-.378 2.447-1.116 1.223-.196 1.224-.877 1.223-.715 1.224-1.13 1.223-1.5 1.224-1.302 1.223-1.657 1.224-1.847 1.223-1.564 3.67-5.832 1.224-2.242 2.447-4.961 4.894-6.66 1.223-2.072 1.224-1.725 1.223-2.093 2.447-3.385 1.224-2.034 2.447-3.28 1.223-1.856 2.447-2.417 1.224-1.614 2.446-2.19 2.447-1.881 2.447-1.047 2.447.55 2.447.374 1.224.621 1.223.17 1.224.518 3.67 3.283 1.224 1.476 3.67 3.356 1.224.528 1.223 1.107 1.224.9 1.223 1.153 1.223 1.372 1.224.886 1.223.561 2.447 1.717 2.447 1.938 3.67 3.118 1.224 1.489 1.224.624 1.223 1.307 2.447 1.605 1.224 1.19 1.223.565 1.224.803 1.223.096 1.224-.075 1.223.974 1.224-.034 1.223-.283 2.447.47 1.223 1.406 1.224.944 1.223 1.105 1.224.696 1.223-.093 1.224.508 2.447-.03 1.223.446 1.224-.629 1.223.1 1.224.297 1.223.04 1.224-.586 1.223-2.746 2.447-1.536 2.447-1.305 2.447-.696 1.223-.043 1.224-.413 1.223-.258 1.224-.102 2.447-.983 1.223.12 1.224-.688 1.223-.505 2.447-2.087 1.224-.404 1.223-.826 1.224-.69 2.447-1.968 3.67-4.943 1.224-.459 1.223-1.182 1.223-.279 1.224-1.634 1.223-1.035 1.224-1.728 2.447-4.91 1.223-1.377 1.224-2.455 2.447-3.874 1.223-2.333 6.118-13.603 2.447-8.302 4.894-17.92 3.67-18.378 2.447-14.423 1.223-5.623 2.447-13.07 3.67-18.105 1.224-4.241 1.224-3.446 1.223-4.533 2.447-6.99 1.224 5.592 1.223-2.244 1.224.703 2.447-.188 1.223-2.083 2.447-5.45 3.67-8.98 1.224-2.296 2.447-7.466 1.223-11.268 1.224-6.884 1.223-5.174 1.224-4.434 1.223-3.063 1.224-1.745 1.223-4.024 2.447-3.669 1.224 1.088 1.223-.736 1.224.277 1.223 1.666 1.224-.742 1.223 2.924 1.223 16.555 1.224-.86 1.223 2.962 1.224 1.095 1.223.196 1.224 1.464 1.223.616 1.224 9.582 1.223-9.007 1.224-2.016 1.223-4.638 1.224-3.077 1.223-2.6 1.224-8.005 1.223-18.423 1.224-3.232 1.223-5.182 1.224-3.439 1.223-2.668 1.224-.035 1.223-.784 1.224-8.537 1.223 8.244 1.223 2.92 1.224 10.206 1.223 4.431 1.224 6.498 1.223 8.283 1.224 10.068 2.447 14.992 1.223 6.43 2.447 14.094 3.67 20.003 1.224 5.19 1.224-.066 2.447 12.63 3.67 17.504 1.224 3.908 1.223 5.863 1.223 5.001 3.67 17.176 2.448 9.142 1.223 7.982 4.894 18.998 2.447 6.206 1.224 3.09 1.223 2.257 1.224 1.916 1.223 2.559 2.447 3.99 1.224 1.187 1.223-.131 1.224.636 2.446.742 2.447 2.347 1.224 1.393 1.223-3.23 3.67 4.379 2.448 2.514 1.223 1.19 1.224-.043 1.223.287 2.447 1.337 1.224.467 1.223.2 1.224.54 1.223 3.67 1.224-.079 1.223-2.001 1.224-.62 2.446-1.98 1.224-.602 1.223-1.251 2.447-1.54 1.224-1.542 1.223-.735 1.224-.895 1.223-.242 1.224-2.017 1.223-.482 1.224.628 1.223-1.046 1.224-.653 2.447-.693 1.223-.11 1.224-1.39 1.223-.721 1.224.323 1.223-.9 1.223.945 1.224-.421 1.223.583 1.224.088 1.223.977 1.224 1.31 1.223 1.641 2.447 2.644 2.447 4.613 1.224 1.93 1.223 1.485 1.224 1.829 1.223.84 1.224 1.085 2.447 3.723 4.894 6.4 2.446 2.031 2.447 3.427 2.447 3.381 1.224 1.448 1.223 1.192 1.224 1.911 1.223 1.207 1.224 1.468 2.447 3.37 1.223 1.416 1.224.754 4.894 4.14 2.447 3.36 1.223.855 1.224 2.186 1.223.474 1.223 1.1 1.224.936 1.223 4.887 2.447 1.463 1.224.57 1.223.797 1.224.251 1.223 1.102 1.224.48 1.223.302 1.224.06 1.223-.886 1.224 1 1.223.225 1.224.671 1.223-3.384 3.67.79 1.224.13 1.224.612 3.67.411 1.223.249 1.224-.04 1.223-.355 1.224-.145 1.223-.398 1.224-.733 1.223.266 1.224.053 1.223.98 1.224-1.006 1.223-1.696 1.224-.775 1.223-1.863 2.447-.397 1.224-1.59 1.223-2.395 1.224-2.016 1.223-1.76 1.223-2.879 1.224-.766 1.223-.556 1.224-4.667 1.223-3.577 1.224-2.721 1.223-3.686 1.224-4.421 1.223-1.252 1.224-.77 1.223-4.946h0" style="fill:none;stroke:#000;stroke-linecap:round;stroke-width:1.5" id="line2d_1"/><path clip-path="url(#p482ef246a8)" d="m149.973 554.04 46.492-.099 3.67-.235 2.447-.579 1.224-.538 1.223-1.046 1.224-.542 1.223-1.498 1.224-1.963 1.223-3.15 1.224-2.818 1.223-2.449 1.224-8.407 1.223-6.568 2.447-15.373 1.223-10.806 1.224-6.704 1.223-11.582 1.224-10.311 2.447-27.024 2.447-18.592 2.447-16.314 1.223-3.801 1.224-5.492 1.223-4.306 1.224-4.895 1.223 1.758 1.224-7.426 1.223 4.609 1.224-3.243 1.223 3.934 1.224 4.347 1.223-1.703 1.224.272 1.223-.868 1.223-1.557 1.224-1.82 1.223 4.613 1.224.804 1.223.627 1.224 1.99 1.223 5.354 1.224-.688 1.223 6.47 1.224 2.084 1.223 1.451 1.224 2.91 1.223 6.744 1.224 4.282 2.447 15.534 1.223 1.321 1.224 5.778 1.223 7.044 1.224 2.51 1.223 6.371 1.224 5.42 2.446 8.792 1.224 4.575 1.223 6.07 1.224-.613 1.223 4.599 1.224-.304 1.223 2.29 1.224 1.948 1.223 4.245 1.224 1.352 1.223 1.618 1.224.43 2.447-.307 1.223.586 2.447 2.82 1.224 4.197 1.223 1.182 1.224 2.94 1.223 2.081 1.223 1.502 1.224-.586 1.223 2.654 1.224 2.061 1.223 1.27 1.224 1.07 2.447 4.763 1.223 1.1 1.224 1.91 1.223.856 1.224 1.035 1.223.838 1.224.198 1.223 1.42 1.224.747 1.223-.126 1.224.204 1.223-.068 1.224 1.335 1.223-5.75 1.224-.136 1.223.518 1.223-.113 1.224.45 1.223-.245 1.224.054 2.447-.078 1.223.16 1.224-.208 2.447.395 1.223-.32 1.224 6.564 1.223.102 2.447-.245 1.224-.456 1.223.006 1.224-.439 1.223.705 1.224 1.145 1.223.095 1.224 1.363 1.223.099 1.223-.09 1.224-.282 1.223-.037 1.224-.34 3.67-1.953 1.224-.306 1.223-.123 1.224.065 1.223-2.18 1.224-.362 1.223-1.199 2.447-.5h1.224l1.223-.45 1.224.334 2.447 1.042 1.223.65 1.224.134 1.223-.079 1.223-1.54 2.447.72 1.224 1.049 1.223-.164 2.447.14 1.224.933 1.223.239 1.224-.549 1.223.668 1.224.112 1.223.484 1.224.725 1.223 1.19 1.224.722 1.223-.242 1.224-.947 1.223-.126 2.447.04 1.224-.947 1.223-.541 1.223.695 1.224-.555 1.223-.365 1.224.085 2.447-.715 2.447-.736 2.447.03 2.447-.64 1.223-.65 1.224-.13 2.447-.947 1.223-.204 1.224-.508 1.223-.269 1.224-.477 1.223-.252 1.223-1.025 1.224-1.366 1.223-.767 1.224-.068 1.223-1.083 1.224-.153 1.223-.862 1.224-1.656 1.223-.59 1.224-.404 1.223-.692 1.224-.344 1.223-2.5 1.224-1.08 1.223-.389 1.224-.18 1.223.306 1.224-1.812 1.223-.787 1.224-1.216 1.223-.238 1.224.044 2.446-4.53 1.224-1.223 1.223-1.775 1.224.463 1.223-.613 1.224-3.56 1.223-1.288 1.224-2.544 1.223-2.245 1.224-2.49 1.223-1.973 1.224-3.972 2.447-3.055 1.223-.6 1.224-2.847 1.223-4.814 1.224-2.725 1.223-3.802 1.224-4.404 2.447-5.88 1.223-7.256 1.223-4.752 1.224-6.615 1.223-4.84 2.447-19.707 1.224-2.899 1.223-7.501 1.224-5.488 1.223-7.562 2.447-9.988 1.224-6.66 1.223-5.188 1.224-1.696 2.447-6.728 1.223-2.378 1.224 1.877 1.223 2.381 1.224-3.307 1.223-1.976 1.224-.848 1.223-2.082 1.223-6.939 1.224-2.231 1.223-7.024 1.224.061 1.223-4.091 1.224-1.376 1.223-2.204 1.224 1.516 1.223-8.305 1.224-1.073 1.223-5.478 1.224 2.18 1.223-4.762 1.224 1.833 1.223 6.019 1.224 3.86 1.223 2.912 1.224 1.335 1.223 2.974 1.224-1.179 1.223 1.418 1.223-4.804 1.224 7.634 1.223 6.248 1.224 6.997 1.223 1.052 1.224 3.349 1.223-2.865 1.224-5.467 1.223-4.497 1.224 5.127 1.223-163.242 1.224-5.658 1.223-3.553 1.224-9.453 1.223-6.68 2.447-22.953 1.224-8.833 1.223-3.165 1.224-10.764 1.223-6.8 1.224-2.943 1.223-1.662 1.223-4.994 1.224 160.919 1.223 5.576 1.224 1.407 1.223 8.281 1.224 9.61 1.223.896 1.224 1.274 1.223 4.067 1.224-.647 1.223 10.45 1.224 7.993 1.223 1.29 1.224 2.47 1.223 2.889 1.224 1.151 1.223 5.032 1.224 10.655 1.223 5.992 1.224-.095 1.223 8.986 1.224 3.202 1.223 5.39 1.223 4.084 1.224 1.498 1.223 3.714 1.224 7.678 1.223 5.167 2.447 14.274 1.224-1.646 1.223-6.125 1.224.045 1.223 4.026 1.224 5.56 1.223 7.838 1.224-.487 1.223 1.427 1.224 4.265 1.223.276 1.224-.467 1.223-1.288 1.224-.756 1.223-5.78 1.224 1.171 1.223 1.424 1.223.283 1.224-2.221 1.223-2.875 1.224-1.666 1.223 1.352 1.224-3.297 1.223-2.238 1.224-.814 1.223-1.182 1.224.913 1.223-3.134 1.224 1.09 1.223-1.458 1.224-2.116 1.223-4.357 1.224-2.364 1.223-4.043 1.224-2.446 1.223-2.875 1.224-2.306 1.223-1.094 1.224-.443 1.223-4.71 1.223-2.723 1.224-4.07 1.223-2.722 1.224-3.938 1.223 2.194 1.224-3.87 1.223-.467 1.224 1.581 1.223-1.918 1.224 1.09L673.62 350l1.224-.494 1.223-1.322 1.224 4.79 2.447 7.443 1.223 3.9 1.224 3.13 1.223.358 1.224 5.757 1.223.504 1.223 1.782 2.447 4.428 1.224 2.974 1.223 2.61 1.224 3.754 1.223 4.629 1.224 2.78 1.223 5.767 1.224 39.11 1.223 6.234 1.224 4.946 1.223 5.702 2.447 16.545 1.224 6.647 1.223 4.087 1.224 6.251 1.223 3.223 2.447 12.55 1.224 7.265 1.223 4.616 1.223-31.193 2.447 10.86 1.224 6.186 1.223 5.225 2.447 6.377 1.224 2.163 1.223 1.223 1.224 7.103 1.223 2.902 2.447 2 2.447.3 1.224.586 1.223.31 2.447.31 1.224 1.331 1.223.079 1.224.514 1.223 1.66 1.223.582 1.224.953 1.223 1.223 1.224.068 1.223.314 1.224-.361 2.447 1.38 1.223.177 2.447-.007 1.224.133 1.223-.116 1.224-.31 1.223-.034 2.447.238 1.224.511 2.447.45 1.223-.123 1.224-.286 1.223.238 1.223-.255 1.224.04 6.117.938 1.224-.15 2.447.17 2.447.45 1.223-.051 3.67-.62 1.224-.453 1.224-.232 2.447-1.056 1.223-.777 1.223-.627 2.447-2.299 1.224-.77 1.223-1.717 2.447-2.83 2.447-3.615 2.447-2.108h0" style="fill:none;stroke:#009e73;stroke-linecap:round;stroke-width:1.5" id="line2d_2"/><path clip-path="url(#p482ef246a8)" d="m149.973 554.04 40.374-.097 3.67-.13 3.671-.325 1.224-.454 1.223-.033 1.224-.94 1.223-.747 1.224-1.558 1.223-5.29 1.224-1.429 1.223-.649 1.224-3.051 1.223-4.9 1.224-2.922 1.223-3.7 1.224-12.496 2.447-19.929 1.223-10.71 1.223-9.218 1.224-13.113 1.223-17.397 1.224-14.313 1.223-23.434 1.224-28.367 1.223-10.776 1.224-16.975 1.223-18.792 1.224-7.238 1.223-2.662 1.224-9.282 1.223-3.278 1.224-2.954 1.223.162 1.224 3.019 1.223 5.29 1.224 1.428 1.223 10.16 1.224 19.279 1.223-1.59 2.447 20.415 1.223.357 1.224 3.44 1.223 8.796 1.224 1.915 1.223 6.329 1.224 5.485 1.223 6.07 1.224 7.367 1.223 12.886 1.224 7.595 1.223 5.063 2.447 17.527 1.224 5.42 2.447 17.656 1.223 6.946 1.224 9.088 1.223 3.31 1.224 1.299 1.223 2.726 1.224 4.415 1.223 7.594 1.223 3.408 2.447 6.135 1.224-.033 1.223 3.733 1.224 2.077 1.223.779 1.224.974 1.223 2.596 1.224-.357 2.447.098 1.223-.033 1.224-6.653 1.223 1.622 1.224 2.045 1.223 1.753 1.224 2.207 1.223 1.038 1.224-1.525 1.223 1.071 1.223.487 1.224-.454 1.223 3.765 1.224 2.304 1.223.876 1.224-1.103 1.223 2.694 1.224 1.33 1.223-2.401 1.224 1.558h1.223l1.224-.714 1.223.519 1.224.357 1.223 1.2h1.224l1.223.195 1.224-.032 1.223.097 1.224 2.143 1.223-9.12 1.224-2.37 1.223 1.655 1.223-2.142 1.224.292 2.447.325 1.223-.195 1.224-1.298 1.223-.033 1.224-1.59 1.223-.098 1.224.357 1.223-.908 1.224 9.185 1.223 1.33 1.224-.291 1.223 1.785 1.224.032 1.223 1.039 2.447.324 1.224 1.364 1.223.551 1.224 2.013 1.223-.78 1.223.098 2.447.974 1.224.876 2.447-.65 1.223-1.103 1.224-1.46 1.223-.844 1.224.065 1.223-1.428 1.224-.292 1.223-.844 1.224.746 1.223-1.266 1.224.52 2.447.26 1.223-.877 1.224-.292 2.447 1.46 1.223.325 1.223-.649 1.224-1.883 1.223-1.298 2.447-3.213 1.224 1.006 1.223.844 1.224 2.467 1.223.13 1.224.746 1.223 1.071 1.224.162 2.447-.357 1.223.747 1.224 3.18 1.223.52 2.447 2.5 1.224-1.267 1.223-.844 1.224-2.564 1.223-.227 1.223 1.006 1.224-.746 1.223-.065 1.224.487 1.223.324 1.224-.13 1.223-.357 1.224 1.169 1.223.195 1.224.454 1.223 1.98 1.224-.162 1.223-.78 1.224-.13 1.223-.746 1.224.325 1.223-.033 1.224-.843 1.223.13 1.224-.195 1.223.13 1.223-.715 1.224-.389 1.223-.13 1.224-.974 1.223-.13 1.224-.389 1.223-.714 1.224-1.071 1.223-.617 1.224-.357 1.223.033 1.224-.812 1.223-1.785 2.447-2.888 1.224-.747 1.223-.487 1.224-2.207 2.447-2.207 1.223-.65 1.224-.356 1.223-1.85 1.223-2.175 1.224-1.525 1.223-2.337 1.224-.747 1.223-.486 1.224-2.37 1.223-1.72 1.224-2.37 1.223-1.46 1.224-.876 1.223-1.071 1.224-4.35 2.447-3.96 1.223-1.427 1.224-2.435 1.223-3.018 1.224.032 1.223-4.057 1.224-5.94 1.223-2.953 1.224-.487 1.223-4.998 1.223-7.206 1.224-8.795 1.223-4.642 2.447-16.098 1.224-1.136 2.447-13.795 1.223-10.938 1.224-4.154 1.223-3.538 1.224-6.296 1.223-8.374 1.224-1.136 1.223-.584 1.224-.26 1.223-6.362 1.224 5.745 2.447-6.491 1.223-2.11 1.224.747 1.223-1.883 1.223-8.893 1.224-2.24 1.223-4.511 1.224 1.947 1.223-1.266 1.224 1.818 1.223-.26 1.224 8.504 1.223-10.354 1.224 4.285 1.223-3.506 1.224 3.863 1.223-.844 1.224 4.317 1.223 7.173 1.224 5.193 1.223 5.68 1.224 2.694 1.223 1.233 1.224-5.972 1.223-1.169 1.223-4.966 1.224 7.498 2.447 9.218 1.223.811 1.224.422 1.223-5.485 2.447-5.193 1.224 2.207 1.223-141.902 1.224-9.607 1.223-4.9 1.224-6.525 1.223-7.79 2.447-19.311 1.224-3.7 1.223-1.233 1.224-10.744 1.223-6.88 2.447-7.109 1.223-5.842 1.224 140.928 1.223 4.836 1.224 1.33 1.223 4.934 1.224 10.419 1.223-2.24 1.224 1.59 1.223.747 1.224-3.505 2.447 15.936 1.223 3.7 1.224.714 1.223 2.045 1.224-2.434 1.223 5.874 1.224 11.393 1.223 3.278 1.224-4.804 1.223 5.81 1.224 1.72 1.223 2.857 1.223 4.576 1.224 1.233 1.223 3.798 1.224 2.888 1.223 3.408 1.224 5.258 1.223 6.784 1.224-6.719 1.223-5.03 1.224 1.395 1.223 6.427 1.224 4.251 1.223 6.524 2.447-6.653 1.224 2.272 1.223-2.727 1.224-4.674 1.223-.486 1.224.26 1.223-11.555 1.224 3.408 1.223-4.187 1.223-.52 1.224-5.095 1.223 4.316 1.224-3.375 1.223 3.18 1.224-3.375 1.223-.909 1.224-.746 1.223 2.337 1.224 1.168 1.223-4.414 1.224 5.583 1.223-2.5 1.224.293 1.223-2.922 1.224-2.531 1.223-9.997 1.224-.974 1.223-3.148 1.224.065 1.223-1.33 1.224 4.51 1.223-9.444 1.223-5.68 1.224-4.934 1.223-1.265 1.224-1.948 1.223-2.37 1.224-2.012 1.223.52 1.224.292 1.223-.227 1.224.714 1.223 5.03 1.224-2.466 1.223-1.526 1.224 11.133 1.223 6.2 1.224 6.913 1.223 3.992 2.447 13.145 1.224 5.453 1.223 4.024 2.447 9.12 1.223 5.324 1.224 3.57 1.223 6.653 1.224 3.344 1.223 5.225 1.224 3.116 1.223 5.583 1.224 7.854 1.223 4.706 1.224 5.94 1.223 4.317 2.447 15.611 1.224 4.772 1.223 2.856 1.224 5.096 1.223-31.581 1.224-3.148 1.223 5.063 1.224 6.2 1.223 2.888 1.223-1.071 1.224 4.414 1.223 3.278 1.224 5.972 1.223 2.954 1.224 1.363 1.223.941 1.224 1.428 1.223 2.013 1.224 40.7 1.223 12.27 1.224.486 1.223 1.98 1.224 1.039 2.447.486 1.223 1.461 1.224.422 1.223 1.363 1.224 2.305 1.223 1.2 1.224.877 1.223.616 1.223.78 1.224.389 1.223 1.298 1.224-.422 1.223.227 1.224.455 1.223.941 1.224.617 1.223.26 2.447-.13 1.224-.422 1.223-.098 1.224-.681 2.447-.39h1.223l1.224.877 2.447.421 1.223-.389 2.447-1.136 1.223.227 1.224-.162 1.223.065 1.224.26 1.223.064 1.224-.551 1.223-.422 1.224-.033 1.223-.324 1.224.357 1.223.032 3.67 1.623 2.448.195 1.223-.292 1.224-.033 2.447-.454 1.223-.455 1.223-.714 2.447-1.72 1.224-.682 2.447-2.142 1.223-1.882 1.224-2.532 1.223-2.11 1.224-1.07 1.223-1.883h0" style="fill:none;stroke:#d55e00;stroke-linecap:round;stroke-width:1.5" id="line2d_3"/><path clip-path="url(#p482ef246a8)" d="M149.973 554.04h53.833l1.223-3.306h2.447l1.224-1.653h1.223l2.447-9.919 1.224-9.918 1.223-1.653 1.224-4.96 1.223-3.306 1.223-8.265 1.224-13.225 1.223-11.571h1.224l1.223-9.919 1.224-26.45 1.223-16.53 1.224-4.96 1.223-3.305h1.224l1.223-6.613 1.224-9.918 1.223 1.653 1.224 3.306 1.223-1.653 1.224 6.612 1.223 4.96 1.224-4.96 1.223 1.653 1.224 21.49 1.223 18.184 1.224-3.306 1.223 3.306 1.223-3.306 1.224 8.266h3.67l1.224 1.653 1.223 6.612 3.67 9.918h2.448l1.223 8.266 1.224 4.96 2.447 16.53 1.223 9.918 1.224 3.307h1.223l1.224 1.653 1.223-6.613 1.224 1.653 2.446 6.613 1.224 4.959h2.447l1.223-1.653h2.447l1.224 1.653h2.447l1.223 6.612 1.224 4.96 2.447 3.306 1.223-1.653h2.447l1.224-4.96h9.787l1.224-1.653h1.223l1.224 1.653h2.447l1.223 4.96h7.341l1.224-3.306 1.223 1.653h1.224l1.223-1.653h3.67l1.224-6.613 1.223 1.653 1.224-1.653h4.894l1.223-6.612 1.224-1.653 1.223 1.653h1.224l1.223-1.653h2.447l1.224 3.306 1.223-1.653 1.224 1.653h4.894l1.223 9.918 1.223-3.306 1.224-1.653h1.223l1.224 3.306h2.447l2.447 3.307h1.223l1.224-1.654h3.67l1.224-1.653 1.223 4.96h1.224l1.223 1.653h3.67l1.224 1.653h1.224l1.223-1.653 1.223 1.653 1.224-1.653h4.894l1.223 1.653 2.447-3.306h3.67l1.224-3.307h1.224l1.223-1.653 1.224 1.653h4.894l1.223-6.612 2.447 3.306h3.67l1.224-1.653 2.447 3.306h6.117l1.224 3.307 1.223-1.654h3.67l1.224-4.959 1.224 4.96 1.223-1.654h4.894l1.223 1.653h1.224l1.223 3.307 1.224 1.653h3.67l1.224 1.653 1.223-1.653 1.224-6.613 1.223-14.877 1.224-3.307h2.447l1.223-3.306 1.224-9.918 1.223-1.653 2.447-16.531 2.447-9.919h1.223l2.447 3.307 1.224 14.877 1.223 3.306h2.447l1.224-6.612 1.223 3.306 1.224-6.612h2.447l2.447 9.918 1.223-16.53 1.224-1.653 2.447-9.919 1.223-8.265h2.447l1.224-21.49h1.223l1.223 8.265 1.224-19.837 1.223-3.306h2.447l1.224-6.612 1.223-18.184 2.447-16.531 1.224-14.878 1.223-8.265h1.224l1.223 8.265 1.224-6.612 1.223-9.919 1.224 28.103 1.223 11.571 1.224-33.061h1.223l1.224 3.306 1.223 8.265 1.224 1.653 1.223-13.224 1.223-16.531 1.224-9.919h1.223l1.224 4.96 1.223-6.613 1.224 1.653 1.223-29.755 1.224-14.878 1.223 33.062h2.447l1.224-3.306 1.223 6.612 1.224 26.45 1.223 11.57 1.224 18.185h1.223l1.224-26.45 1.223 8.266 1.224-36.368 1.223 21.49 1.223 14.878h2.447l1.224-26.45 1.223 6.613 2.447-38.021 1.224 28.102h2.447l1.223-9.918 1.224-18.184 1.223 21.49 1.224-16.53 1.223-19.838 1.224-16.53h1.223l1.224 13.224 1.223-9.918 1.224 6.612 1.223 1.653 1.224-16.53h2.446l1.224 54.55 1.223-4.958 1.224 6.612 1.223 18.184 1.224 14.878 1.223 16.53h1.224l1.223-14.877 1.224 11.571 1.223 14.878 1.224 6.612 1.223-9.918 1.224-8.266h2.447l1.223 34.715 1.224-26.45 2.447-13.224h2.447l1.223 24.796 1.223-4.959 1.224 1.653h1.223l1.224 18.184 1.223-3.306h2.447l1.224-23.143 1.223 34.714 1.224 8.266 1.223 3.306h1.224l1.223-11.572 1.224 19.837 2.447 3.307 1.223-11.572 1.224-6.612 1.223 11.571h1.224l1.223-26.449 1.224 6.612 1.223-1.653h1.223l1.224-14.877h1.223l1.224 11.571 1.223-16.53 1.224 3.305 1.223-6.612 1.224-1.653 1.223 6.612h2.447l1.224-11.571 1.223 4.959 1.224-3.306h1.223l1.224 14.878h2.447l1.223-16.531 1.224-3.306 1.223 1.653 1.224 9.918 1.223-3.306h1.223l1.224-14.878 1.223 19.837 1.224-1.653 1.223 8.266 1.224-24.797 1.223-6.612h2.447l1.224 11.572 1.223-3.307 2.447-3.306h0l1.224 3.306 1.223-1.653 1.224 14.878 1.223 1.653 1.224 4.96 1.223-3.307 1.224 9.919 1.223 6.612 1.223-8.265h1.224l1.223 23.143 1.224 11.571 1.223 4.96 1.224 1.653h1.223l1.224 1.653h1.223l1.224 6.612 2.447 6.612 1.223 13.225 1.224-6.612 1.223 6.612h1.224l1.223 1.653h2.447l1.224 8.266 1.223 4.959h2.447l1.223 3.306 1.224 4.96 1.223 3.305 1.224 6.613 1.223 14.877 1.224 1.654h1.223l1.224 3.306 1.223 1.653 1.224 9.918 1.223 1.653 1.224 3.307h2.447l1.223 6.612h2.447l1.224-3.306h6.117l1.223-1.653 1.224 1.653h4.894l1.223-4.96h1.224l1.223 3.307h6.118l1.223 1.653h6.118l1.223 4.959 1.224 1.653h1.223l1.223-6.612h6.118l1.223-1.653h7.341l1.224-1.653 1.223 4.959h4.894l2.447-3.306h7.34l1.224-1.653 1.224-8.266h2.447l1.223-36.368h0" style="fill:none;stroke:#0072b2;stroke-linecap:round;stroke-width:1.5" id="line2d_4"/><path clip-path="url(#p482ef246a8)" d="M117 551.014h725.4" style="fill:none;stroke:green;stroke-dasharray:1.5,2.475;stroke-dashoffset:0;stroke-width:1.5" id="line2d_5"/><path clip-path="url(#p482ef246a8)" d="M117 538.912h725.4" style="fill:none;stroke:orange;stroke-dasharray:1.5,2.475;stroke-dashoffset:0;stroke-width:1.5" id="line2d_6"/><path clip-path="url(#p482ef246a8)" d="M117 523.784h725.4" style="fill:none;stroke:red;stroke-dasharray:1.5,2.475;stroke-dashoffset:0;stroke-width:1.5" id="line2d_7"/><path d="M117 576.72V77.76" style="fill:none;stroke:#d3d3d3;stroke-linecap:square;stroke-linejoin:miter;stroke-width:1.25" id="patch_3"/><path d="M117 576.72h725.4" style="fill:none;stroke:#d3d3d3;stroke-linecap:square;stroke-linejoin:miter;stroke-width:1.25" id="patch_4"/><g id="matplotlib.axis_1"><g id="xtick_1"><g style="fill:#696969" transform="matrix(.16 0 0 -.16 167.913 598.378)" id="text_1"><defs><path d="M9.813 72.906h14.703l18.593-49.61 18.703 49.61h14.704V0H66.89v64.016l-18.797-50h-9.907l-18.796 50V0H9.813z" id="DejaVuSans-77"/><path d="M34.281 27.484q-10.89 0-15.093-2.484-4.204-2.484-4.204-8.5 0-4.781 3.157-7.594 3.156-2.797 8.562-2.797 7.485 0 12 5.297 4.516 5.297 4.516 14.078v2zm17.922 3.72V0H43.22v8.297Q40.14 3.328 35.547.953q-4.594-2.375-11.234-2.375-8.391 0-13.36 4.719Q6 8.016 6 15.922q0 9.219 6.172 13.906 6.187 4.688 18.437 4.688h12.61v.89q0 6.203-4.078 9.594-4.078 3.39-11.453 3.39-4.688 0-9.141-1.124-4.438-1.125-8.531-3.375v8.312q4.921 1.906 9.562 2.844 4.64.953 9.031.953 11.875 0 17.735-6.156 5.86-6.14 5.86-18.64z" id="DejaVuSans-97"/><path d="M41.11 46.297q-1.516.875-3.297 1.281Q36.03 48 33.89 48q-7.625 0-11.703-4.953-4.079-4.953-4.079-14.234V0H9.08v54.688h9.03v-8.5q2.844 4.984 7.375 7.39Q30.031 56 36.531 56q.922 0 2.047-.125 1.125-.11 2.484-.36z" id="DejaVuSans-114"/></defs><use xlink:href="#DejaVuSans-77"/><use x="86.279" xlink:href="#DejaVuSans-97"/><use x="147.559" xlink:href="#DejaVuSans-114"/></g></g><g id="xtick_2"><g style="fill:#696969" transform="matrix(.16 0 0 -.16 241.099 598.378)" id="text_2"><defs><path d="M32.172-5.078q-3.797-9.766-7.422-12.735-3.61-2.984-9.656-2.984H7.906v7.516h5.282q3.703 0 5.75 1.765Q21-9.766 23.483-3.219l1.61 4.094-22.11 53.813H12.5l17.094-42.766 17.093 42.766h9.516z" id="DejaVuSans-121"/></defs><use xlink:href="#DejaVuSans-77"/><use x="86.279" xlink:href="#DejaVuSans-97"/><use x="147.559" xlink:href="#DejaVuSans-121"/></g></g><g id="xtick_3"><g style="fill:#696969" transform="matrix(.16 0 0 -.16 322.618 598.378)" id="text_3"><defs><path d="M9.813 72.906h9.859V5.078q0-13.187-5-19.14-5-5.954-16.094-5.954h-3.75v8.297h3.078q6.531 0 9.219 3.672Q9.813-4.39 9.813 5.078z" id="DejaVuSans-74"/><path d="M8.5 21.578v33.11h8.984V21.922q0-7.766 3.016-11.656 3.031-3.875 9.094-3.875 7.265 0 11.484 4.64 4.234 4.64 4.234 12.656v31h8.985V0h-8.984v8.406Q42.047 3.422 37.718 1q-4.313-2.422-10.032-2.422-9.421 0-14.312 5.86Q8.5 10.296 8.5 21.578zM31.11 56z" id="DejaVuSans-117"/><path d="M9.422 75.984h8.984V0H9.422z" id="DejaVuSans-108"/></defs><use xlink:href="#DejaVuSans-74"/><use x="29.492" xlink:href="#DejaVuSans-117"/><use x="92.871" xlink:href="#DejaVuSans-108"/></g></g><g id="xtick_4"><g style="fill:#696969" transform="matrix(.16 0 0 -.16 393.047 598.378)" id="text_4"><defs><path d="M53.516 70.516V60.89q-5.61 2.687-10.594 4-4.984 1.328-9.625 1.328-8.047 0-12.422-3.125t-4.375-8.89q0-4.845 2.906-7.313 2.907-2.453 11.016-3.97l5.953-1.218q11.031-2.11 16.281-7.406 5.25-5.297 5.25-14.172 0-10.61-7.11-16.078-7.093-5.469-20.812-5.469-5.172 0-11.015 1.172Q13.14.922 6.89 3.219v10.156q6-3.36 11.765-5.078 5.766-1.703 11.328-1.703 8.438 0 13.032 3.312 4.593 3.328 4.593 9.485 0 5.359-3.297 8.39-3.296 3.032-10.812 4.547L27.484 33.5q-11.03 2.188-15.968 6.875-4.922 4.688-4.922 13.047 0 9.672 6.812 15.234 6.813 5.563 18.766 5.563 5.14 0 10.453-.938 5.328-.922 10.89-2.765z" id="DejaVuSans-83"/><path d="M56.203 29.594v-4.39H14.891q.593-9.282 5.593-14.142 5-4.859 13.938-4.859 5.172 0 10.031 1.266 4.86 1.265 9.656 3.812v-8.5Q49.266.734 44.187-.344 39.11-1.422 33.892-1.422q-13.094 0-20.735 7.61-7.64 7.625-7.64 20.625 0 13.421 7.25 21.296Q20.016 56 32.328 56q11.031 0 17.453-7.11 6.422-7.093 6.422-19.296zm-8.984 2.64q-.094 7.36-4.125 11.75-4.032 4.407-10.672 4.407-7.516 0-12.031-4.25-4.516-4.25-5.203-11.97z" id="DejaVuSans-101"/><path d="M18.11 8.203v-29H9.077v75.484h9.031v-8.296q2.844 4.875 7.157 7.234Q29.594 56 35.594 56q9.968 0 16.187-7.906 6.235-7.907 6.235-20.797T51.78 6.484q-6.218-7.906-16.187-7.906-6 0-10.328 2.375-4.313 2.375-7.157 7.25zm30.578 19.094q0 9.906-4.079 15.547-4.078 5.64-11.203 5.64-7.14 0-11.218-5.64-4.079-5.64-4.079-15.547 0-9.906 4.078-15.547 4.079-5.64 11.22-5.64 7.124 0 11.202 5.64t4.078 15.547z" id="DejaVuSans-112"/></defs><use xlink:href="#DejaVuSans-83"/><use x="63.477" xlink:href="#DejaVuSans-101"/><use x="125" xlink:href="#DejaVuSans-112"/></g></g><g id="xtick_5"><g style="fill:#696969" transform="matrix(.16 0 0 -.16 467.144 598.378)" id="text_5"><defs><path d="M9.813 72.906h13.28l32.329-60.984v60.984h9.562V0h-13.28L19.39 60.984V0H9.813z" id="DejaVuSans-78"/><path d="M30.61 48.39q-7.22 0-11.422-5.64-4.204-5.64-4.204-15.453 0-9.813 4.172-15.453 4.188-5.64 11.453-5.64 7.188 0 11.375 5.655 4.203 5.672 4.203 15.438 0 9.719-4.203 15.406-4.187 5.688-11.375 5.688zm0 7.61q11.718 0 18.406-7.625 6.703-7.61 6.703-21.078 0-13.422-6.703-21.078-6.688-7.64-18.407-7.64-11.765 0-18.437 7.64-6.656 7.656-6.656 21.078 0 13.469 6.656 21.078Q18.844 56 30.609 56z" id="DejaVuSans-111"/><path d="M2.984 54.688H12.5L29.594 8.797l17.093 45.89h9.516L35.687 0H23.485z" id="DejaVuSans-118"/></defs><use xlink:href="#DejaVuSans-78"/><use x="74.805" xlink:href="#DejaVuSans-111"/><use x="135.986" xlink:href="#DejaVuSans-118"/></g></g><g id="xtick_6"><g style="fill:#696969" transform="matrix(.16 0 0 -.16 545.058 598.378)" id="text_6"><defs><path d="M54.89 33.016V0h-8.984v32.719q0 7.765-3.031 11.61-3.031 3.858-9.078 3.858-7.281 0-11.484-4.64-4.204-4.625-4.204-12.64V0H9.08v54.688h9.03v-8.5q3.235 4.937 7.594 7.374Q30.078 56 35.797 56q9.422 0 14.25-5.828 4.844-5.828 4.844-17.156z" id="DejaVuSans-110"/></defs><use xlink:href="#DejaVuSans-74"/><use x="29.492" xlink:href="#DejaVuSans-97"/><use x="90.771" xlink:href="#DejaVuSans-110"/></g></g><g id="xtick_7"><g style="fill:#696969" transform="matrix(.16 0 0 -.16 614.482 598.378)" id="text_7"><use xlink:href="#DejaVuSans-77"/><use x="86.279" xlink:href="#DejaVuSans-97"/><use x="147.559" xlink:href="#DejaVuSans-114"/></g></g><g id="xtick_8"><g style="fill:#696969" transform="matrix(.16 0 0 -.16 687.668 598.378)" id="text_8"><use xlink:href="#DejaVuSans-77"/><use x="86.279" xlink:href="#DejaVuSans-97"/><use x="147.559" xlink:href="#DejaVuSans-121"/></g></g><g id="xtick_9"><g style="fill:#696969" transform="matrix(.16 0 0 -.16 769.188 598.378)" id="text_9"><use xlink:href="#DejaVuSans-74"/><use x="29.492" xlink:href="#DejaVuSans-117"/><use x="92.871" xlink:href="#DejaVuSans-108"/></g></g></g><g id="matplotlib.axis_2"><g id="ytick_1"><g style="fill:#696969" transform="matrix(.16 0 0 -.16 97.32 560.119)" id="text_10"><defs><path d="M31.781 66.406q-7.61 0-11.453-7.5Q16.5 51.422 16.5 36.375q0-14.984 3.828-22.484 3.844-7.5 11.453-7.5 7.672 0 11.5 7.5 3.844 7.5 3.844 22.484 0 15.047-3.844 22.531-3.828 7.5-11.5 7.5zm0 7.813q12.266 0 18.735-9.703 6.468-9.688 6.468-28.141 0-18.406-6.468-28.11-6.47-9.687-18.735-9.687-12.25 0-18.718 9.688-6.47 9.703-6.47 28.109 0 18.453 6.47 28.14Q19.53 74.22 31.78 74.22z" id="DejaVuSans-48"/></defs><use xlink:href="#DejaVuSans-48"/></g></g><g id="ytick_2"><g style="fill:#696969" transform="matrix(.16 0 0 -.16 76.96 499.606)" id="text_11"><defs><path d="M19.188 8.297h34.421V0H7.33v8.297q5.609 5.812 15.296 15.594 9.703 9.797 12.188 12.64 4.734 5.313 6.609 9 1.89 3.688 1.89 7.25 0 5.813-4.078 9.469-4.078 3.672-10.625 3.672-4.64 0-9.797-1.61-5.14-1.609-11-4.89v9.969Q13.767 71.78 18.938 73q5.188 1.219 9.485 1.219 11.328 0 18.062-5.672 6.735-5.656 6.735-15.125 0-4.5-1.688-8.531-1.672-4.016-6.125-9.485-1.218-1.422-7.765-8.187-6.532-6.766-18.453-18.922z" id="DejaVuSans-50"/></defs><use xlink:href="#DejaVuSans-50"/><use x="63.623" xlink:href="#DejaVuSans-48"/><use x="127.246" xlink:href="#DejaVuSans-48"/></g></g><g id="ytick_3"><g style="fill:#696969" transform="matrix(.16 0 0 -.16 76.96 439.093)" id="text_12"><defs><path d="M37.797 64.313 12.89 25.39h24.906zm-2.594 8.593H47.61V25.391h10.407v-8.203H47.609V0h-9.812v17.188H4.89v9.515z" id="DejaVuSans-52"/></defs><use xlink:href="#DejaVuSans-52"/><use x="63.623" xlink:href="#DejaVuSans-48"/><use x="127.246" xlink:href="#DejaVuSans-48"/></g></g><g id="ytick_4"><g style="fill:#696969" transform="matrix(.16 0 0 -.16 76.96 378.58)" id="text_13"><defs><path d="M33.016 40.375q-6.641 0-10.532-4.547-3.875-4.531-3.875-12.437 0-7.86 3.875-12.438 3.891-4.562 10.532-4.562 6.64 0 10.515 4.562 3.875 4.578 3.875 12.438 0 7.906-3.875 12.437-3.875 4.547-10.515 4.547zm19.578 30.922v-8.984q-3.719 1.75-7.5 2.671-3.782.938-7.5.938-9.766 0-14.922-6.594-5.14-6.594-5.875-19.922 2.875 4.25 7.219 6.516 4.359 2.266 9.578 2.266 10.984 0 17.36-6.672 6.374-6.657 6.374-18.125 0-11.235-6.64-18.032-6.641-6.78-17.672-6.78-12.657 0-19.344 9.687-6.688 9.703-6.688 28.109 0 17.281 8.204 27.563 8.203 10.28 22.015 10.28 3.719 0 7.5-.734t7.89-2.187z" id="DejaVuSans-54"/></defs><use xlink:href="#DejaVuSans-54"/><use x="63.623" xlink:href="#DejaVuSans-48"/><use x="127.246" xlink:href="#DejaVuSans-48"/></g></g><g id="ytick_5"><g style="fill:#696969" transform="matrix(.16 0 0 -.16 76.96 318.068)" id="text_14"><defs><path d="M31.781 34.625q-7.031 0-11.062-3.766-4.016-3.765-4.016-10.343 0-6.594 4.016-10.36Q24.75 6.391 31.78 6.391q7.032 0 11.078 3.78 4.063 3.798 4.063 10.345 0 6.578-4.031 10.343-4.016 3.766-11.11 3.766zm-9.86 4.188q-6.343 1.562-9.89 5.906Q8.5 49.079 8.5 55.329q0 8.733 6.219 13.812 6.234 5.078 17.062 5.078 10.89 0 17.094-5.078 6.203-5.079 6.203-13.813 0-6.25-3.547-10.61-3.531-4.343-9.828-5.906 7.125-1.656 11.094-6.5 3.984-4.828 3.984-11.796 0-10.61-6.468-16.282-6.47-5.656-18.532-5.656-12.047 0-18.531 5.656-6.469 5.672-6.469 16.282 0 6.968 4 11.797 4.016 4.843 11.14 6.5zM18.314 54.39q0-5.657 3.53-8.828 3.548-3.172 9.938-3.172 6.36 0 9.938 3.172 3.593 3.171 3.593 8.828 0 5.672-3.593 8.843-3.578 3.172-9.938 3.172-6.39 0-9.937-3.172-3.532-3.172-3.532-8.843z" id="DejaVuSans-56"/></defs><use xlink:href="#DejaVuSans-56"/><use x="63.623" xlink:href="#DejaVuSans-48"/><use x="127.246" xlink:href="#DejaVuSans-48"/></g></g><g id="ytick_6"><g style="fill:#696969" transform="matrix(.16 0 0 -.16 66.78 257.555)" id="text_15"><defs><path d="M12.406 8.297h16.11v55.625l-17.532-3.516v8.985l17.438 3.515h9.86V8.296H54.39V0H12.406z" id="DejaVuSans-49"/></defs><use xlink:href="#DejaVuSans-49"/><use x="63.623" xlink:href="#DejaVuSans-48"/><use x="127.246" xlink:href="#DejaVuSans-48"/><use x="190.869" xlink:href="#DejaVuSans-48"/></g></g><g id="ytick_7"><g style="fill:#696969" transform="matrix(.16 0 0 -.16 66.78 197.043)" id="text_16"><use xlink:href="#DejaVuSans-49"/><use x="63.623" xlink:href="#DejaVuSans-50"/><use x="127.246" xlink:href="#DejaVuSans-48"/><use x="190.869" xlink:href="#DejaVuSans-48"/></g></g><g id="ytick_8"><g style="fill:#696969" transform="matrix(.16 0 0 -.16 66.78 136.53)" id="text_17"><use xlink:href="#DejaVuSans-49"/><use x="63.623" xlink:href="#DejaVuSans-52"/><use x="127.246" xlink:href="#DejaVuSans-48"/><use x="190.869" xlink:href="#DejaVuSans-48"/></g></g><g style="fill:#696969" transform="matrix(0 -.2 -.2 0 58.62 379.813)" id="text_18"><defs><path d="M51.125 44H36.922l-4.11-16.313h14.313zm-7.328 27.781-5.078-20.265h14.265L58.11 71.78h7.813L60.89 51.516h15.234V44h-17.14l-4-16.313h15.53V20.22H53.079L48 0h-7.813l5.032 20.219H30.906L25.875 0h-7.86l5.079 20.219H7.719v7.468h17.187L29 44H13.281v7.516h17.625l4.985 20.265z" id="DejaVuSans-35"/><path d="M37.11 75.984V68.5h-8.594q-4.828 0-6.72-1.953-1.874-1.953-1.874-7.031v-4.828h14.797v-6.985H19.922V0H10.89v47.703H2.297v6.984h8.594V58.5q0 9.125 4.25 13.297 4.25 4.187 13.468 4.187z" id="DejaVuSans-102"/><path d="M48.781 52.594v-8.407q-3.812 2.11-7.64 3.157-3.828 1.047-7.735 1.047-8.75 0-13.593-5.547-4.829-5.532-4.829-15.547 0-10.016 4.829-15.563 4.843-5.53 13.593-5.53 3.907 0 7.735 1.046 3.828 1.047 7.64 3.156V2.094Q45.016.344 40.984-.531q-4.015-.89-8.562-.89-12.36 0-19.64 7.765-7.266 7.765-7.266 20.953 0 13.375 7.343 21.031Q20.22 56 33.016 56q4.14 0 8.093-.86 3.953-.843 7.672-2.546z" id="DejaVuSans-99"/><path d="M44.281 53.078v-8.5q-3.797 1.953-7.906 2.922-4.094.984-8.5.984-6.688 0-10.031-2.047-3.344-2.046-3.344-6.156 0-3.125 2.39-4.906 2.391-1.781 9.626-3.39l3.078-.688q9.562-2.047 13.593-5.781 4.032-3.735 4.032-10.422 0-7.625-6.032-12.078-6.03-4.438-16.578-4.438-4.39 0-9.156.86Q10.688.296 5.422 2v9.281q4.984-2.594 9.812-3.89 4.829-1.282 9.579-1.282 6.343 0 9.75 2.172 3.421 2.172 3.421 6.125 0 3.656-2.468 5.61-2.453 1.953-10.813 3.765l-3.125.735q-8.344 1.75-12.062 5.39-3.704 3.64-3.704 9.985 0 7.718 5.47 11.906Q16.75 56 26.811 56q4.97 0 9.36-.734 4.406-.72 8.11-2.188z" id="DejaVuSans-115"/></defs><use xlink:href="#DejaVuSans-35"/><use x="83.789" xlink:href="#DejaVuSans-32"/><use x="115.576" xlink:href="#DejaVuSans-111"/><use x="176.758" xlink:href="#DejaVuSans-102"/><use x="211.963" xlink:href="#DejaVuSans-32"/><use x="243.75" xlink:href="#DejaVuSans-99"/><use x="298.73" xlink:href="#DejaVuSans-97"/><use x="360.01" xlink:href="#DejaVuSans-115"/><use x="412.109" xlink:href="#DejaVuSans-101"/><use x="473.633" xlink:href="#DejaVuSans-115"/></g></g><g style="fill:#696969" transform="matrix(.24 0 0 -.24 252.577 71.76)" id="text_19"><defs><path d="M4.203 54.688h8.985l11.234-42.672 11.172 42.672h10.593l11.235-42.672 11.187 42.672h8.985L63.28 0H52.688L40.922 44.828 29.109 0H18.5z" id="DejaVuSans-119"/><path d="M64.406 67.281v-10.39q-4.984 4.64-10.625 6.922-5.64 2.296-11.984 2.296-12.5 0-19.14-7.64-6.641-7.64-6.641-22.094 0-14.406 6.64-22.047 6.64-7.64 19.14-7.64 6.345 0 11.985 2.296 5.64 2.297 10.625 6.938V5.609Q59.234 2.094 53.437.33q-5.78-1.75-12.218-1.75-16.563 0-26.094 10.124-9.516 10.14-9.516 27.672 0 17.578 9.516 27.703 9.531 10.14 26.094 10.14 6.531 0 12.312-1.734 5.797-1.734 10.875-5.203z" id="DejaVuSans-67"/><path d="M25.39 72.906h8.297L8.297-9.28H0z" id="DejaVuSans-47"/><path d="M9.813 72.906h9.859V42.094L52.39 72.906h12.703L28.906 38.922 67.672 0H54.688L19.672 35.11V0h-9.86z" id="DejaVuSans-75"/><path d="M45.406 46.39v29.594h8.985V0h-8.985v8.203Q42.578 3.328 38.25.953q-4.313-2.375-10.375-2.375-9.906 0-16.14 7.906-6.22 7.922-6.22 20.813 0 12.89 6.22 20.797Q17.968 56 27.874 56q6.063 0 10.375-2.375 4.328-2.36 7.156-7.234zm-30.61-19.093q0-9.906 4.079-15.547 4.078-5.64 11.203-5.64 7.125 0 11.219 5.64 4.11 5.64 4.11 15.547 0 9.906-4.11 15.547-4.094 5.64-11.219 5.64-7.125 0-11.203-5.64-4.078-5.64-4.078-15.547z" id="DejaVuSans-100"/><path d="M9.422 54.688h8.984V0H9.422zm0 21.296h8.984v-11.39H9.422z" id="DejaVuSans-105"/><path d="M31 75.875q-6.531-11.219-9.719-22.219-3.172-10.984-3.172-22.265 0-11.266 3.203-22.328Q24.517-2 31-13.188h-7.813Q15.875-1.704 12.235 9.375q-3.64 11.078-3.64 22.016 0 10.89 3.61 21.922 3.624 11.046 10.983 22.562z" id="DejaVuSans-40"/><path d="M52 44.188q3.375 6.062 8.063 8.937Q64.75 56 71.093 56q8.548 0 13.188-5.984 4.64-5.97 4.64-17V0h-9.03v32.719q0 7.86-2.797 11.656-2.781 3.813-8.485 3.813-6.984 0-11.046-4.641-4.047-4.625-4.047-12.64V0h-9.032v32.719q0 7.906-2.78 11.687-2.782 3.782-8.595 3.782-6.89 0-10.953-4.657-4.047-4.656-4.047-12.625V0H9.08v54.688h9.03v-8.5q3.078 5.03 7.375 7.421Q29.781 56 35.687 56q5.97 0 10.141-3.031Q50 49.953 52 44.187z" id="DejaVuSans-109"/><path d="M8.016 75.875h7.812q7.313-11.516 10.953-22.563 3.64-11.03 3.64-21.921 0-10.938-3.64-22.016-3.64-11.078-10.953-22.563H8.016Q14.5-2 17.703 9.063q3.203 11.063 3.203 22.329 0 11.28-3.203 22.265-3.203 11-9.687 22.219z" id="DejaVuSans-41"/></defs><use xlink:href="#DejaVuSans-78"/><use x="74.805" xlink:href="#DejaVuSans-101"/><use x="136.328" xlink:href="#DejaVuSans-119"/><use x="218.115" xlink:href="#DejaVuSans-32"/><use x="249.902" xlink:href="#DejaVuSans-67"/><use x="319.727" xlink:href="#DejaVuSans-97"/><use x="381.006" xlink:href="#DejaVuSans-115"/><use x="433.105" xlink:href="#DejaVuSans-101"/><use x="494.629" xlink:href="#DejaVuSans-115"/><use x="546.729" xlink:href="#DejaVuSans-47"/><use x="580.42" xlink:href="#DejaVuSans-49"/><use x="644.043" xlink:href="#DejaVuSans-48"/><use x="707.666" xlink:href="#DejaVuSans-48"/><use x="771.289" xlink:href="#DejaVuSans-75"/><use x="836.865" xlink:href="#DejaVuSans-32"/><use x="868.652" xlink:href="#DejaVuSans-49"/><use x="932.275" xlink:href="#DejaVuSans-52"/><use x="995.898" xlink:href="#DejaVuSans-100"/><use x="1059.375" xlink:href="#DejaVuSans-32"/><use x="1091.162" xlink:href="#DejaVuSans-105"/><use x="1118.945" xlink:href="#DejaVuSans-110"/><use x="1182.324" xlink:href="#DejaVuSans-99"/><use x="1237.305" xlink:href="#DejaVuSans-105"/><use x="1265.088" xlink:href="#DejaVuSans-100"/><use x="1328.564" xlink:href="#DejaVuSans-101"/><use x="1390.088" xlink:href="#DejaVuSans-110"/><use x="1453.467" xlink:href="#DejaVuSans-99"/><use x="1508.447" xlink:href="#DejaVuSans-101"/><use x="1569.971" xlink:href="#DejaVuSans-32"/><use x="1601.758" xlink:href="#DejaVuSans-40"/><use x="1640.771" xlink:href="#DejaVuSans-115"/><use x="1692.871" xlink:href="#DejaVuSans-117"/><use x="1756.25" xlink:href="#DejaVuSans-109"/><use x="1853.662" xlink:href="#DejaVuSans-41"/></g><g id="legend_1"><path d="M694.75 184.5H831.2q3.2 0 3.2-3.2V88.96q0-3.2-3.2-3.2H694.75q-3.2 0-3.2 3.2v92.34q0 3.2 3.2 3.2z" style="fill:none;opacity:.8;stroke:#ccc;stroke-linejoin:miter" id="patch_5"/><path d="M697.95 98.718h32" style="fill:none;stroke:#000;stroke-linecap:round;stroke-width:1.5" id="line2d_8"/><g style="fill:#696969" transform="matrix(.16 0 0 -.16 742.75 104.317)" id="text_20"><defs><path d="M8.688 72.906h9.921V28.61q0-11.718 4.235-16.875 4.25-5.14 13.781-5.14 9.469 0 13.719 5.14 4.25 5.157 4.25 16.875v44.297H64.5V27.391q0-14.25-7.063-21.532-7.046-7.28-20.812-7.28-13.828 0-20.89 7.28-7.047 7.282-7.047 21.532z" id="DejaVuSans-85"/></defs><use xlink:href="#DejaVuSans-85"/><use x="73.193" xlink:href="#DejaVuSans-83"/></g><path d="M697.95 122.203h32" style="fill:none;stroke:#009e73;stroke-linecap:round;stroke-width:1.5" id="line2d_10"/><g style="fill:#696969" transform="matrix(.16 0 0 -.16 742.75 127.802)" id="text_21"><use xlink:href="#DejaVuSans-78"/><use x="74.805" xlink:href="#DejaVuSans-74"/></g><path d="M697.95 145.688h32" style="fill:none;stroke:#d55e00;stroke-linecap:round;stroke-width:1.5" id="line2d_12"/><g style="fill:#696969" transform="matrix(.16 0 0 -.16 742.75 151.287)" id="text_22"><defs><path d="M19.672 34.813V8.108H35.5q7.953 0 11.781 3.297 3.844 3.297 3.844 10.078 0 6.844-3.844 10.078-3.828 3.25-11.781 3.25zm0 29.984V42.828h14.61q7.218 0 10.75 2.703 3.546 2.719 3.546 8.282 0 5.515-3.547 8.25-3.531 2.734-10.75 2.734zm-9.86 8.11h25.204q11.28 0 17.375-4.688Q58.5 63.53 58.5 54.89q0-6.703-3.125-10.657-3.125-3.953-9.188-4.922 7.282-1.562 11.313-6.53 4.031-4.954 4.031-12.376 0-9.765-6.64-15.093Q48.25 0 35.984 0H9.812z" id="DejaVuSans-66"/><path d="M45.406 27.984q0 9.766-4.031 15.125-4.016 5.375-11.297 5.375-7.219 0-11.25-5.375-4.031-5.359-4.031-15.125 0-9.718 4.031-15.093t11.25-5.375q7.281 0 11.297 5.375 4.031 5.375 4.031 15.093zm8.985-21.203q0-13.953-6.203-20.765Q42-20.797 29.203-20.797q-4.734 0-8.937.703-4.203.703-8.157 2.172v8.735q3.954-2.141 7.813-3.157 3.86-1.031 7.86-1.031 8.843 0 13.234 4.61 4.39 4.609 4.39 13.937v4.453q-2.781-4.844-7.125-7.234Q33.938 0 27.875 0 17.828 0 11.672 7.656q-6.156 7.672-6.156 20.328 0 12.688 6.156 20.344Q17.828 56 27.875 56q6.063 0 10.406-2.39 4.344-2.391 7.125-7.22v8.297h8.985z" id="DejaVuSans-103"/></defs><use xlink:href="#DejaVuSans-66"/><use x="68.604" xlink:href="#DejaVuSans-101"/><use x="130.127" xlink:href="#DejaVuSans-114"/><use x="169.49" xlink:href="#DejaVuSans-103"/><use x="232.967" xlink:href="#DejaVuSans-101"/><use x="294.49" xlink:href="#DejaVuSans-110"/></g><path d="M697.95 169.173h32" style="fill:none;stroke:#0072b2;stroke-linecap:round;stroke-width:1.5" id="line2d_14"/><g style="fill:#696969" transform="matrix(.16 0 0 -.16 742.75 174.773)" id="text_23"><defs><path d="M44.39 34.188q3.172-1.079 6.172-4.594 3-3.516 6.032-9.672L66.609 0H56l-9.313 18.703q-3.624 7.328-7.015 9.719-3.39 2.39-9.25 2.39h-10.75V0h-9.86v72.906h22.266q12.5 0 18.656-5.234 6.157-5.219 6.157-15.766 0-6.89-3.203-11.437-3.204-4.532-9.297-6.282zM19.673 64.797V38.922h12.406q7.125 0 10.766 3.297 3.64 3.297 3.64 9.687 0 6.39-3.64 9.64-3.64 3.25-10.766 3.25z" id="DejaVuSans-82"/><path d="M18.313 70.219V54.688h18.5v-6.985h-18.5V18.016q0-6.688 1.828-8.594 1.828-1.906 7.453-1.906h9.218V0h-9.218q-10.407 0-14.36 3.875-3.953 3.89-3.953 14.14v29.688H2.687v6.984h6.594V70.22z" id="DejaVuSans-116"/><path d="M54.89 33.016V0h-8.984v32.719q0 7.765-3.031 11.61-3.031 3.858-9.078 3.858-7.281 0-11.484-4.64-4.204-4.625-4.204-12.64V0H9.08v75.984h9.03V46.188q3.235 4.937 7.594 7.374Q30.078 56 35.797 56q9.422 0 14.25-5.828 4.844-5.828 4.844-17.156z" id="DejaVuSans-104"/></defs><use xlink:href="#DejaVuSans-82"/><use x="64.982" xlink:href="#DejaVuSans-117"/><use x="128.361" xlink:href="#DejaVuSans-116"/><use x="167.57" xlink:href="#DejaVuSans-104"/><use x="230.949" xlink:href="#DejaVuSans-101"/><use x="292.473" xlink:href="#DejaVuSans-114"/><use x="333.586" xlink:href="#DejaVuSans-102"/><use x="368.791" xlink:href="#DejaVuSans-111"/><use x="429.973" xlink:href="#DejaVuSans-114"/><use x="469.336" xlink:href="#DejaVuSans-100"/></g></g></g></g><defs><clipPath id="p482ef246a8"><path d="M117 77.76h725.4v498.96H117z"/></clipPath></defs></svg>