<svg height="864" viewBox="0 0 936 648" width="1248" xmlns="http://www.w3.org/2000/svg" xmlns:xlink="http://www.w3.org/1999/xlink"><defs><style>*{stroke-linecap:butt;stroke-linejoin:round}</style></defs><g id="figure_1"><path d="M0 648h936V0H0z" style="fill:#fff" id="patch_1"/><g id="axes_1"><path d="M117 576.72h725.4V77.76H117z" style="fill:none" id="patch_2"/><g id="PolyCollection_1"><defs><path d="M151.455-101.726H234.442l1.482-2.401 1.482.425 1.482.18 1.482-1.575h1.482l1.482-4.71 1.482-4.13 1.482-4.778 1.481-.483 1.482-4.609 1.482-1.807 1.482-9.487 1.482-8.314 1.482-6.167 1.482 6.83 1.482-10.314 1.482-20.37 1.482-12.492 1.482 4.576 1.482 4.642 1.482 5.85 1.481-20.412 1.482-8.908 1.482 29.588 1.482 28.3 1.482-4.037 1.482 2.988 1.482-1.477 1.482 7.02 1.482-4.824 1.482-5.595 1.482.366 1.482 1.5 1.481 1.464 1.482-5.136 1.482-.552 1.482-3.308 1.482 1.93h2.964l1.482 6.362 1.482 8.025 1.482 5.922 1.482 10.05 1.482-1.51 1.482-.748 1.481 9.149 1.482-1.044 1.482 3.559 1.482 6.273 1.482 5.303 1.482 6.652 1.482-1.325 1.482-8.808 1.482-8.602 1.482-1.514 1.482-.679 1.482.594 1.481-1.211 1.482-3.177 1.482 6.394 1.482 8.153 1.482 3.552 1.482 2.797 1.482 2.154 1.482-.939 1.482-2.81 1.482-1.93 1.482-.826 1.482-.79 1.482-.729 1.481-2.401 1.482.425 1.482.18 1.482-4.356 1.482.475 1.482-.113 1.482-.765 1.482 3.59 1.482-.333 1.482-.429 1.482 7.226 1.482.474 1.481-2.305 1.482-.901 1.482-2.171 1.482-.308 1.482-.411 1.482-.218 1.482-.577 1.482 1.93h1.482l1.482 2.507 1.482.218h1.482l1.482-3.86 1.481 1.652 1.482-1.652 1.482-1.322 1.482-1.388h1.482l1.482-.542 1.482-3.082 1.482-.298 1.482-.406 1.482 1.441 1.482 1.93h2.964l1.481-3.86 1.482-1.515 1.482 1.93 1.482-1.578 1.482-3.136h1.482l1.482-.724 1.482 8.146 1.482.475 1.482.262 1.482 2.507 1.482 4.388 1.481-.39 1.482-1.657 1.482 4.54 1.482-4.335 1.482-2.708 1.482-1.93 1.482.352 1.482.19 1.482.061 1.482-3.042 1.482 5.79 1.482 2.79 1.482.456 1.481.164 1.482-.08 1.482-.349 1.482-2.157 1.482-.73 1.482-1.2 1.482 1.93h4.446l1.482 2.314 1.482.218 1.481-.3h1.482l1.482-1.93h2.964l1.482-1.503 1.482.117 1.482 1.686 1.482-2.23h1.482l1.482-.09 1.482-.212 1.482 2.142 1.481-3.47 1.482-1.426 1.482.352 1.482 1.89 1.482-.085 1.482-.133 1.482-2.828 1.482 4.287 1.482-5.366 1.482 1.93h1.482l1.482-.047 1.481-.1 1.482 2.03 1.482-5.79 1.482 8.229 1.482.352 1.482.19 1.482.061 1.482-.06 1.482-1.93 1.482 4.639 1.482-3.86 1.482-1.737 1.482.133 1.481.085 1.482.04 1.482-3.16 1.482-.7 1.482 1.578 1.482 1.93h4.446l1.482 6.902 1.482.147 1.482 2.334 1.481.197 1.482-.197 1.482-.674 1.482-1.883 1.482-3.283 1.482-1.03 1.482-6.34 1.482-10.958 1.482-.561 1.482.85 1.482-1.181 1.482-2.383 1.482-13.025 1.481 2.517 1.482 8.147 1.482-5.79 1.482-5.454 1.482-4.627 1.482.504 1.482 11.444 1.482-5.79 1.482 9.179 1.482 12.712 1.482 8.75 1.482 7.248 1.481-9.87 1.482-8.662 1.482-4.946 1.482-8.169 1.482-5.7 1.482 1.27 1.482-2.073 1.482-11.736 1.482 4.091 1.482-6.78 1.482 1.502 1.482-.462 1.482-.729 1.481-1.228 1.482-10.858 1.482-2.926 1.482 13.487 1.482-22.439 1.482-1.404 1.482.112 1.482-2.17 1.482 4.623 1.482-14.523 1.482-22.484 1.482 17.304 1.482-11.812 1.481-7.649 1.482-.21 1.482-1.424 1.482 4.375 1.482 13.354 1.482 19.643 1.482 37.315 1.482-30.154 1.482-2.785 1.482-3.835 1.482-1.883 1.482-10.74 1.481-22.716 1.482-33.543 1.482 20.808 1.482.257 1.482 2.428 1.482-16.763 1.482-.194 1.482-9.513 1.482 32.758 1.482 30.17 1.482 3.473 1.482-5.241 1.482 2.871 1.481-7.49 1.482 31.689 1.482-17.783 1.482.266 1.482-.159 1.482-24.289 1.482 4.63 1.482-28.587 1.482-5.46 1.482 30.77 1.482-3.53 1.482-5.895 1.481-7.205 1.482 1 1.482 16.176 1.482-19.69 1.482-.014 1.482-.03 1.482-.045 1.482-6.179 1.482-17.487 1.482 9.182 1.482-6.23 1.482-18.002 1.482-13.529 1.481.26 1.482 16.225 1.482 12.871 1.482-4.914 1.482 9.65 1.482 6.222 1.482 20.822 1.482-3.884 1.482 52.106 1.482-18.833 1.482 8.265 1.482 10.583 1.481 11.384 1.482-1.738 1.482-6.828 1.482-50.96 1.482 32.093 1.482 7.512 1.482-3.82 1.482-24.288 1.482-9.887 1.482-4.221 1.482 64.178 1.482 13.032 1.482-38.858 1.481-3.973 1.482 16.644 1.482 6.29 1.482-7.635 1.482-29.469 1.482-13.836 1.482 41.36 1.482 4.14 1.482 4.942 1.482-14.082 1.482-.715 1.482 33.177 1.481-22.524 1.482-.049 1.482 6.348 1.482.42 1.482 13.366 1.482-18.174 1.482-7.62 1.482 15.697 1.482 1.833 1.482-17.809 1.482-5.037 1.482-.378 1.482 13.317 1.481-20.411 1.482-6.62 1.482-5.793 1.482 18.328 1.482-9.695 1.482-.32 1.482-5.39 1.482 4.032 1.482 13.358 1.482-5.484 1.482-19.303 1.482 17.413 1.482-.128 1.481-.307 1.482-15.295 1.482-4.714h1.482l1.482 21.42 1.482-.246 1.482-.26 1.482-.275 1.482-2.23 1.482-.33 1.482-4.891 1.482-7.641 1.481-2.018 1.482.794 1.482-12.626 1.482 24.911 1.482-4.572 1.482 7.344 1.482-18.795 1.482-2.972 1.482.537 1.482 15.945 1.482-12.104 1.482-.343 2.963-11.708v18.227l1.482 9.225 1.482-2.027v-18.164l-1.482 1.833-1.482-6.215v-16.513l-2.963 7.593-1.482-.344-1.482 11.057-1.482-18.796-1.482.537-1.482 4.749-1.482 19.804-1.482-8.096-1.482 3.148-1.482-25.269-1.482 22.115-1.482.794-1.481 5.702-1.482 11.659-1.482-8.751-1.482-4.19-1.482 1.63-1.482-.275-1.482-.26-1.482-.247-1.482-21.04h-1.482l-1.482 6.866-1.482 19.446-1.481-.307-1.482-.128-1.482-17.328-1.482 23.157-1.482 2.237-1.482-9.803-1.482-3.687-1.482-5.39-1.482-.32-1.482 9.604-1.482-20.272-1.482 1.927L750.15-208l-1.481 25.91-1.482-13.705-1.482-.378-1.482 10.403-1.482 20.792-1.482-2.027-1.482-15.183-1.482 7.82-1.482 8.846-1.482-13.654-1.482.42-1.482-5.232-1.482-.05-1.481 4.497-1.482-28.583-1.482-.716-1.482 12.939-1.482-2.778-1.482-3.58-1.482-39.701-1.482 13.184-1.482 32.292-1.482-7.635-1.482-13.01-1.482-18.097-1.481 3.747-1.482 38.343-1.482-2.409-1.482-55.482-1.482-4.221-1.482 9.412-1.482 25.893-1.482 3.9-1.482-7.927-1.482-33.528-1.482 68.7-1.482-6.827-1.482-1.738-1.481-15.637-1.482-12.576-1.482-11.036-1.482 19.767-1.482-32.814-1.482-3.884-1.482-17.778-1.482-1.499-1.482-9.65-1.482-1.054-1.482-14.15-1.482-26.235-1.481.26-1.482 25.071-1.482 28.32-1.482 9.21-1.482-10.119-1.482 32.693-1.482 5.402-1.482-.045-1.482-.03-1.482-.015-1.482 3.471-1.482-14.703-1.482-6.721-1.481 4.375-1.482-5.895-1.482-3.53-1.482-34.851-1.482 13.84-1.482 48.614-1.482-3.09-1.482 25.891-1.482-.159-1.482.266-1.482 13.098-1.482-37.792-1.481.23-1.482-8.709-1.482 6.34-1.482 3.473-1.482-12.291-1.482-25.143-1.482-1.793-1.482-23.354-1.482 2.537-1.482-9.152-1.482.258-1.482-13.933-1.482 59.097-1.481 39.046-1.482 8.56-1.482-5.744-1.482-3.835-1.482-2.784-1.482 27.746-1.482-16.725-1.482-11.238-1.482-9.806-1.482-11.065-1.482-9.144-1.482-.21-1.481 11.651-1.482 15.208-1.482-17.436-1.482 23.836-1.482 16.358-1.482-6.958-1.482-2.17-1.482.112-1.482 6.317-1.482 31.6-1.482-13.532-1.482 8.654-1.482 16.162-1.481-1.228-1.482-.73-1.482-.461-1.482-6.218-1.482.94-1.482-7.489-1.482 11.424-1.482-2.073-1.482 1.27-1.482 13.6-1.482 11.132-1.482-1.086-1.482 6.778-1.481 5.57-1.482-4.333-1.482-2.83-1.482-6.587-1.482-10.122-1.482 5.79-1.482-11.716-1.482.505-1.482 6.952-1.482 6.127-1.482 5.79-1.482-7.293-1.481-12.924-1.482 6.276-1.482-2.383-1.482-1.181-1.482.85-1.482 7.159-1.482 23.782-1.482 12.96-1.482 2.83-1.482 4.437-1.482-1.883-1.482-.673-1.482-.198-1.481.198-1.482-1.527-1.482.147-1.482-4.678h-4.446l-1.482-1.93-1.482-2.282-1.482-.7-1.482 4.56-1.482.04-1.481.085-1.482.133-1.482 2.124-1.482 3.86-1.482-6.941-1.482 1.93-1.482-.061-1.482.06-1.482.191-1.482.352-1.482-7.21-1.482 5.79-1.482-1.832-1.481-.099-1.482-.048h-1.482l-1.482-1.93-1.482 6.215-1.482-3.433-1.482 1.032-1.482-.133-1.482-.085-1.482-1.97-1.482.352-1.482 2.434-1.481 4.25-1.482-1.717-1.482-.213-1.482-.09h-1.482l-1.482 1.63-1.482-2.174-1.482.117-1.482 2.357h-2.964l-1.482 1.93h-1.482l-1.481-.3-1.482.218-1.482-1.545h-4.446l-1.482-1.93-1.482 2.659-1.482-.73-1.482-2.157-1.482-.348-1.482-.081-1.481.164-1.482.455-1.482-1.069-1.482-5.79-1.482.818-1.482.06-1.482.191-1.482.352-1.482 1.93-1.482 1.152-1.482 3.385-1.482-3.18-1.482-1.657-1.481-.39-1.482-3.332-1.482-1.353-1.482.262-1.482.475-1.482-7.294-1.482-.725h-1.482l-1.482 4.585-1.482 2.282-1.482-1.93-1.482 2.345-1.481 3.86h-2.964l-1.482-1.93-1.482-2.42-1.482-.405-1.482-.298-1.482 4.638-1.482-.542h-1.482l-1.482 2.472-1.482 2.539-1.482 2.207-1.481-2.207-1.482 3.86h-1.482l-1.482.218-1.482-1.354h-1.482l-1.482-1.93-1.482-.576-1.482-.218-1.482-.411-1.482-.309-1.482 1.69-1.482-.902-1.481 1.555-1.482.475-1.482-4.355-1.482-.429-1.482-.333-1.482-4.13-1.482-.765-1.482-.113-1.482.475-1.482 7.225-1.482.18-1.482.424-1.481 5.32-1.482-.73-1.482-.79-1.482-.826-1.482-1.93-1.482-2.81-1.482-.94-1.482-1.705-1.482-1.063-1.482-.308-1.482-3.427-1.482-9.046-1.482-3.177-1.481-1.211-1.482.594-1.482 3.18-1.482 2.347-1.482 6.838-1.482 6.633-1.482-1.326-1.482-4.928-1.482-2.417-1.482-5.307-1.482-4.161-1.482-1.044-1.481-10.15-1.482-.75-1.482 2.35-1.482-5.389-1.482-1.798-1.482-3.556-1.482-5.218h-2.964l-1.482-1.93-1.482 4.412-1.482-.552-1.482-1.275-1.481-2.397-1.482-2.36-1.482.367-1.482-1.736-1.482-12.543-1.482-12.28-1.482 2.382-1.482-.872-1.482 7.543-1.482-14.16-1.482-24.453-1.482-5.047-1.481 10.468-1.482-9.59-1.482-6.939-1.482-3.144-1.482 22.248-1.482 29.81-1.482 8.986-1.482-8.61-1.482 9.275-1.482 10.986-1.482 9.812-1.482 2.053-1.482 6.971-1.481 3.378-1.482 10.663-1.482 7.45-1.482 6.869h-1.482l-1.482 2.286-1.482.18-1.482.424-1.482 5.32H151.455z" id="m50715df039" style="stroke:#fff;stroke-opacity:.2"/></defs><g clip-path="url(#p24631ef3a5)"><use style="fill:#089fff;fill-opacity:.2;stroke:#fff;stroke-opacity:.2" xlink:href="#m50715df039" y="648"/></g></g><path clip-path="url(#p24631ef3a5)" d="m149.973 546.274 50.385.069 5.928.324 5.927.564 8.892.91 2.964.028 1.482-.117 1.482-.236 1.482-.38 1.481-.557 1.482-.765 1.482-1.008 1.482-1.281 1.482-1.584 1.482-1.914 1.482-2.27 1.482-2.65 1.482-3.027 1.482-3.399 1.482-3.765 2.963-8.534 2.964-9.492 5.928-19.553 1.482-4.46 1.482-4.075 1.482-3.565 1.482-2.95 1.482-2.287 1.482-1.589 1.481-.858 1.482-.117 1.482.543 1.482 1.098 1.482 1.548 1.482 1.895 2.964 4.468 5.928 9.49 4.445 6.632 5.928 8.737 4.446 7.071 5.927 9.66 2.964 4.363 1.482 1.954 1.482 1.76 1.482 1.554 1.482 1.336 1.482 1.114 1.482.933 2.964 1.514 13.337 5.986 2.964.853 2.964.436 2.963.058 4.446-.309 2.964-.208 2.964-.02 2.964.17 11.855 1.08 2.964.024 2.964-.19 2.964-.453 2.963-.75 2.964-1.009 11.856-4.455 2.964-.792 2.963-.57 2.964-.268 2.964.094 2.964.504 2.964.85 8.891 2.987 4.446 1.13 13.337 2.962 4.446.716 4.446.454 4.446.156 2.963-.106 2.964-.282 4.446-.687 5.928-1.208 8.891-1.87 4.446-.649 2.964-.258 2.964-.095 2.963.083 4.446.41 13.338 1.637 10.373.894 2.964-.035 1.482-.182 1.482-.339 1.482-.53 1.481-.758 1.482-1.016 1.482-1.277 1.482-1.532 1.482-1.783 2.964-4.202 4.446-6.774 2.964-4.016 1.482-1.693 1.481-1.424 1.482-1.152 1.482-.887 1.482-.63 1.482-.388 1.482-.181 1.482-.02 5.928.43 1.482-.192 1.481-.445 1.482-.728 1.482-1.04 1.482-1.37 1.482-1.669 1.482-1.923 2.964-4.445 2.964-5.093 2.964-5.675 2.963-6.233 2.964-6.799 8.892-21.349 2.964-6.211 1.482-2.737 1.482-2.445 1.481-2.121 1.482-1.78 1.482-1.494 1.482-1.276 5.928-4.581 1.482-1.547 1.482-1.79 2.964-4.097 2.963-4.282 1.482-1.841 1.482-1.413 1.482-.844 1.482-.262 1.482.301 1.482.848 1.482 1.351 1.482 1.72 4.446 5.78 1.481 1.655 1.482 1.332 1.482.899 1.482.385 1.482-.106 1.482-.554 1.482-.952 1.482-1.301 1.482-1.576 2.964-3.662 2.963-3.957 2.964-4.305 2.964-4.717 5.928-10.012 1.482-2.19 1.482-1.86 1.482-1.399 1.482-.81 1.481-.089 1.482.734 1.482 1.533 1.482 2.28 1.482 2.977 1.482 3.598 2.964 8.443 4.446 13.281 1.482 4.015 1.481 3.599 1.482 3.084 1.482 2.589 1.482 2.138 1.482 1.734 1.482 1.384 1.482 1.124 4.446 2.748 4.446 2.902 2.963 2.15 2.964 2.39 2.964 2.72 2.964 3.17 5.928 6.898 1.481 1.551 1.482 1.376 1.482 1.144 1.482.865 1.482.56 1.482.234 1.482-.109 1.482-.463 1.482-.785 1.482-1.068 1.482-1.309 2.964-3.138 4.445-4.981 2.964-2.883 1.482-1.233 1.482-1.074 2.964-1.75 2.964-1.365 2.964-1.086 2.963-.868 2.964-.624 8.892-1.361 2.964-.889 2.963-1.162 7.41-3.133 2.964-1.051 2.964-.848 1.482-.335 2.963-.275v-.226l2.964-.372h0" style="fill:none;stroke:#000;stroke-linecap:round;stroke-width:1.5" id="line2d_1"/><g id="line2d_2"><defs><path d="M0 3a3 3 0 1 0 0-6 3 3 0 0 0 0 6z" id="ma4ec4e8458" style="stroke:#4c72b0"/></defs><g clip-path="url(#p24631ef3a5)"><use style="fill-opacity:0;stroke:#4c72b0" x="149.973" xlink:href="#ma4ec4e8458" y="546.274"/><use style="fill-opacity:0;stroke:#4c72b0" x="151.455" xlink:href="#ma4ec4e8458" y="546.274"/><use style="fill-opacity:0;stroke:#4c72b0" x="152.937" xlink:href="#ma4ec4e8458" y="546.274"/><use style="fill-opacity:0;stroke:#4c72b0" x="154.418" xlink:href="#ma4ec4e8458" y="546.274"/><use style="fill-opacity:0;stroke:#4c72b0" x="155.9" xlink:href="#ma4ec4e8458" y="546.274"/><use style="fill-opacity:0;stroke:#4c72b0" x="157.382" xlink:href="#ma4ec4e8458" y="546.274"/><use style="fill-opacity:0;stroke:#4c72b0" x="158.864" xlink:href="#ma4ec4e8458" y="546.274"/><use style="fill-opacity:0;stroke:#4c72b0" x="160.346" xlink:href="#ma4ec4e8458" y="546.274"/><use style="fill-opacity:0;stroke:#4c72b0" x="161.828" xlink:href="#ma4ec4e8458" y="546.274"/><use style="fill-opacity:0;stroke:#4c72b0" x="163.31" xlink:href="#ma4ec4e8458" y="546.274"/><use style="fill-opacity:0;stroke:#4c72b0" x="164.792" xlink:href="#ma4ec4e8458" y="546.274"/><use style="fill-opacity:0;stroke:#4c72b0" x="166.274" xlink:href="#ma4ec4e8458" y="546.274"/><use style="fill-opacity:0;stroke:#4c72b0" x="167.756" xlink:href="#ma4ec4e8458" y="546.274"/><use style="fill-opacity:0;stroke:#4c72b0" x="169.238" xlink:href="#ma4ec4e8458" y="546.274"/><use style="fill-opacity:0;stroke:#4c72b0" x="170.72" xlink:href="#ma4ec4e8458" y="546.274"/><use style="fill-opacity:0;stroke:#4c72b0" x="172.202" xlink:href="#ma4ec4e8458" y="546.274"/><use style="fill-opacity:0;stroke:#4c72b0" x="173.683" xlink:href="#ma4ec4e8458" y="546.274"/><use style="fill-opacity:0;stroke:#4c72b0" x="175.165" xlink:href="#ma4ec4e8458" y="546.274"/><use style="fill-opacity:0;stroke:#4c72b0" x="176.647" xlink:href="#ma4ec4e8458" y="546.274"/><use style="fill-opacity:0;stroke:#4c72b0" x="178.129" xlink:href="#ma4ec4e8458" y="546.274"/><use style="fill-opacity:0;stroke:#4c72b0" x="179.611" xlink:href="#ma4ec4e8458" y="546.274"/><use style="fill-opacity:0;stroke:#4c72b0" x="181.093" xlink:href="#ma4ec4e8458" y="546.274"/><use style="fill-opacity:0;stroke:#4c72b0" x="182.575" xlink:href="#ma4ec4e8458" y="546.274"/><use style="fill-opacity:0;stroke:#4c72b0" x="184.057" xlink:href="#ma4ec4e8458" y="546.274"/><use style="fill-opacity:0;stroke:#4c72b0" x="185.539" xlink:href="#ma4ec4e8458" y="546.274"/><use style="fill-opacity:0;stroke:#4c72b0" x="187.021" xlink:href="#ma4ec4e8458" y="546.274"/><use style="fill-opacity:0;stroke:#4c72b0" x="188.503" xlink:href="#ma4ec4e8458" y="546.274"/><use style="fill-opacity:0;stroke:#4c72b0" x="189.985" xlink:href="#ma4ec4e8458" y="546.274"/><use style="fill-opacity:0;stroke:#4c72b0" x="191.466" xlink:href="#ma4ec4e8458" y="546.274"/><use style="fill-opacity:0;stroke:#4c72b0" x="192.948" xlink:href="#ma4ec4e8458" y="546.274"/><use style="fill-opacity:0;stroke:#4c72b0" x="194.43" xlink:href="#ma4ec4e8458" y="546.274"/><use style="fill-opacity:0;stroke:#4c72b0" x="195.912" xlink:href="#ma4ec4e8458" y="546.274"/><use style="fill-opacity:0;stroke:#4c72b0" x="197.394" xlink:href="#ma4ec4e8458" y="546.274"/><use style="fill-opacity:0;stroke:#4c72b0" x="198.876" xlink:href="#ma4ec4e8458" y="546.274"/><use style="fill-opacity:0;stroke:#4c72b0" x="200.358" xlink:href="#ma4ec4e8458" y="546.274"/><use style="fill-opacity:0;stroke:#4c72b0" x="201.84" xlink:href="#ma4ec4e8458" y="546.274"/><use style="fill-opacity:0;stroke:#4c72b0" x="203.322" xlink:href="#ma4ec4e8458" y="546.274"/><use style="fill-opacity:0;stroke:#4c72b0" x="204.804" xlink:href="#ma4ec4e8458" y="546.274"/><use style="fill-opacity:0;stroke:#4c72b0" x="206.286" xlink:href="#ma4ec4e8458" y="546.274"/><use style="fill-opacity:0;stroke:#4c72b0" x="207.768" xlink:href="#ma4ec4e8458" y="546.274"/><use style="fill-opacity:0;stroke:#4c72b0" x="209.25" xlink:href="#ma4ec4e8458" y="546.274"/><use style="fill-opacity:0;stroke:#4c72b0" x="210.731" xlink:href="#ma4ec4e8458" y="546.274"/><use style="fill-opacity:0;stroke:#4c72b0" x="212.213" xlink:href="#ma4ec4e8458" y="546.274"/><use style="fill-opacity:0;stroke:#4c72b0" x="213.695" xlink:href="#ma4ec4e8458" y="546.274"/><use style="fill-opacity:0;stroke:#4c72b0" x="215.177" xlink:href="#ma4ec4e8458" y="546.274"/><use style="fill-opacity:0;stroke:#4c72b0" x="216.659" xlink:href="#ma4ec4e8458" y="546.274"/><use style="fill-opacity:0;stroke:#4c72b0" x="218.141" xlink:href="#ma4ec4e8458" y="546.274"/><use style="fill-opacity:0;stroke:#4c72b0" x="219.623" xlink:href="#ma4ec4e8458" y="546.274"/><use style="fill-opacity:0;stroke:#4c72b0" x="221.105" xlink:href="#ma4ec4e8458" y="546.274"/><use style="fill-opacity:0;stroke:#4c72b0" x="222.587" xlink:href="#ma4ec4e8458" y="546.274"/><use style="fill-opacity:0;stroke:#4c72b0" x="224.069" xlink:href="#ma4ec4e8458" y="546.274"/><use style="fill-opacity:0;stroke:#4c72b0" x="225.551" xlink:href="#ma4ec4e8458" y="546.274"/><use style="fill-opacity:0;stroke:#4c72b0" x="227.033" xlink:href="#ma4ec4e8458" y="546.274"/><use style="fill-opacity:0;stroke:#4c72b0" x="228.515" xlink:href="#ma4ec4e8458" y="546.274"/><use style="fill-opacity:0;stroke:#4c72b0" x="229.996" xlink:href="#ma4ec4e8458" y="546.274"/><use style="fill-opacity:0;stroke:#4c72b0" x="231.478" xlink:href="#ma4ec4e8458" y="546.274"/><use style="fill-opacity:0;stroke:#4c72b0" x="232.96" xlink:href="#ma4ec4e8458" y="546.274"/><use style="fill-opacity:0;stroke:#4c72b0" x="234.442" xlink:href="#ma4ec4e8458" y="546.274"/><use style="fill-opacity:0;stroke:#4c72b0" x="235.924" xlink:href="#ma4ec4e8458" y="519.254"/><use style="fill-opacity:0;stroke:#4c72b0" x="237.406" xlink:href="#ma4ec4e8458" y="546.274"/><use style="fill-opacity:0;stroke:#4c72b0" x="238.888" xlink:href="#ma4ec4e8458" y="546.274"/><use style="fill-opacity:0;stroke:#4c72b0" x="240.37" xlink:href="#ma4ec4e8458" y="532.764"/><use style="fill-opacity:0;stroke:#4c72b0" x="241.852" xlink:href="#ma4ec4e8458" y="546.274"/><use style="fill-opacity:0;stroke:#4c72b0" x="243.334" xlink:href="#ma4ec4e8458" y="505.744"/><use style="fill-opacity:0;stroke:#4c72b0" x="244.816" xlink:href="#ma4ec4e8458" y="505.744"/><use style="fill-opacity:0;stroke:#4c72b0" x="246.298" xlink:href="#ma4ec4e8458" y="465.213"/><use style="fill-opacity:0;stroke:#4c72b0" x="247.779" xlink:href="#ma4ec4e8458" y="532.764"/><use style="fill-opacity:0;stroke:#4c72b0" x="249.261" xlink:href="#ma4ec4e8458" y="505.744"/><use style="fill-opacity:0;stroke:#4c72b0" x="250.743" xlink:href="#ma4ec4e8458" y="519.254"/><use style="fill-opacity:0;stroke:#4c72b0" x="252.225" xlink:href="#ma4ec4e8458" y="478.723"/><use style="fill-opacity:0;stroke:#4c72b0" x="253.707" xlink:href="#ma4ec4e8458" y="438.193"/><use style="fill-opacity:0;stroke:#4c72b0" x="255.189" xlink:href="#ma4ec4e8458" y="451.703"/><use style="fill-opacity:0;stroke:#4c72b0" x="256.671" xlink:href="#ma4ec4e8458" y="519.254"/><use style="fill-opacity:0;stroke:#4c72b0" x="258.153" xlink:href="#ma4ec4e8458" y="465.213"/><use style="fill-opacity:0;stroke:#4c72b0" x="259.635" xlink:href="#ma4ec4e8458" y="330.112"/><use style="fill-opacity:0;stroke:#4c72b0" x="261.117" xlink:href="#ma4ec4e8458" y="397.663"/><use style="fill-opacity:0;stroke:#4c72b0" x="262.599" xlink:href="#ma4ec4e8458" y="505.744"/><use style="fill-opacity:0;stroke:#4c72b0" x="264.081" xlink:href="#ma4ec4e8458" y="478.723"/><use style="fill-opacity:0;stroke:#4c72b0" x="265.563" xlink:href="#ma4ec4e8458" y="505.744"/><use style="fill-opacity:0;stroke:#4c72b0" x="267.044" xlink:href="#ma4ec4e8458" y="411.173"/><use style="fill-opacity:0;stroke:#4c72b0" x="268.526" xlink:href="#ma4ec4e8458" y="451.703"/><use style="fill-opacity:0;stroke:#4c72b0" x="270.008" xlink:href="#ma4ec4e8458" y="519.254"/><use style="fill-opacity:0;stroke:#4c72b0" x="271.49" xlink:href="#ma4ec4e8458" y="546.274"/><use style="fill-opacity:0;stroke:#4c72b0" x="272.972" xlink:href="#ma4ec4e8458" y="465.213"/><use style="fill-opacity:0;stroke:#4c72b0" x="274.454" xlink:href="#ma4ec4e8458" y="492.234"/><use style="fill-opacity:0;stroke:#4c72b0" x="275.936" xlink:href="#ma4ec4e8458" y="492.234"/><use style="fill-opacity:0;stroke:#4c72b0" x="277.418" xlink:href="#ma4ec4e8458" y="478.723"/><use style="fill-opacity:0;stroke:#4c72b0" x="278.9" xlink:href="#ma4ec4e8458" y="478.723"/><use style="fill-opacity:0;stroke:#4c72b0" x="280.382" xlink:href="#ma4ec4e8458" y="505.744"/><use style="fill-opacity:0;stroke:#4c72b0" x="281.864" xlink:href="#ma4ec4e8458" y="546.274"/><use style="fill-opacity:0;stroke:#4c72b0" x="283.346" xlink:href="#ma4ec4e8458" y="478.723"/><use style="fill-opacity:0;stroke:#4c72b0" x="284.827" xlink:href="#ma4ec4e8458" y="505.744"/><use style="fill-opacity:0;stroke:#4c72b0" x="286.309" xlink:href="#ma4ec4e8458" y="478.723"/><use style="fill-opacity:0;stroke:#4c72b0" x="287.791" xlink:href="#ma4ec4e8458" y="478.723"/><use style="fill-opacity:0;stroke:#4c72b0" x="289.273" xlink:href="#ma4ec4e8458" y="451.703"/><use style="fill-opacity:0;stroke:#4c72b0" x="290.755" xlink:href="#ma4ec4e8458" y="519.254"/><use style="fill-opacity:0;stroke:#4c72b0" x="292.237" xlink:href="#ma4ec4e8458" y="546.274"/><use style="fill-opacity:0;stroke:#4c72b0" x="293.719" xlink:href="#ma4ec4e8458" y="478.723"/><use style="fill-opacity:0;stroke:#4c72b0" x="295.201" xlink:href="#ma4ec4e8458" y="546.274"/><use style="fill-opacity:0;stroke:#4c72b0" x="296.683" xlink:href="#ma4ec4e8458" y="519.254"/><use style="fill-opacity:0;stroke:#4c72b0" x="298.165" xlink:href="#ma4ec4e8458" y="505.744"/><use style="fill-opacity:0;stroke:#4c72b0" x="299.647" xlink:href="#ma4ec4e8458" y="505.744"/><use style="fill-opacity:0;stroke:#4c72b0" x="301.129" xlink:href="#ma4ec4e8458" y="505.744"/><use style="fill-opacity:0;stroke:#4c72b0" x="302.611" xlink:href="#ma4ec4e8458" y="546.274"/><use style="fill-opacity:0;stroke:#4c72b0" x="304.092" xlink:href="#ma4ec4e8458" y="546.274"/><use style="fill-opacity:0;stroke:#4c72b0" x="305.574" xlink:href="#ma4ec4e8458" y="546.274"/><use style="fill-opacity:0;stroke:#4c72b0" x="307.056" xlink:href="#ma4ec4e8458" y="546.274"/><use style="fill-opacity:0;stroke:#4c72b0" x="308.538" xlink:href="#ma4ec4e8458" y="546.274"/><use style="fill-opacity:0;stroke:#4c72b0" x="310.02" xlink:href="#ma4ec4e8458" y="532.764"/><use style="fill-opacity:0;stroke:#4c72b0" x="311.502" xlink:href="#ma4ec4e8458" y="546.274"/><use style="fill-opacity:0;stroke:#4c72b0" x="312.984" xlink:href="#ma4ec4e8458" y="546.274"/><use style="fill-opacity:0;stroke:#4c72b0" x="314.466" xlink:href="#ma4ec4e8458" y="492.234"/><use style="fill-opacity:0;stroke:#4c72b0" x="315.948" xlink:href="#ma4ec4e8458" y="492.234"/><use style="fill-opacity:0;stroke:#4c72b0" x="317.43" xlink:href="#ma4ec4e8458" y="532.764"/><use style="fill-opacity:0;stroke:#4c72b0" x="318.912" xlink:href="#ma4ec4e8458" y="532.764"/><use style="fill-opacity:0;stroke:#4c72b0" x="320.394" xlink:href="#ma4ec4e8458" y="532.764"/><use style="fill-opacity:0;stroke:#4c72b0" x="321.875" xlink:href="#ma4ec4e8458" y="546.274"/><use style="fill-opacity:0;stroke:#4c72b0" x="323.357" xlink:href="#ma4ec4e8458" y="546.274"/><use style="fill-opacity:0;stroke:#4c72b0" x="324.839" xlink:href="#ma4ec4e8458" y="546.274"/><use style="fill-opacity:0;stroke:#4c72b0" x="326.321" xlink:href="#ma4ec4e8458" y="532.764"/><use style="fill-opacity:0;stroke:#4c72b0" x="327.803" xlink:href="#ma4ec4e8458" y="546.274"/><use style="fill-opacity:0;stroke:#4c72b0" x="329.285" xlink:href="#ma4ec4e8458" y="546.274"/><use style="fill-opacity:0;stroke:#4c72b0" x="330.767" xlink:href="#ma4ec4e8458" y="546.274"/><use style="fill-opacity:0;stroke:#4c72b0" x="332.249" xlink:href="#ma4ec4e8458" y="546.274"/><use style="fill-opacity:0;stroke:#4c72b0" x="333.731" xlink:href="#ma4ec4e8458" y="546.274"/><use style="fill-opacity:0;stroke:#4c72b0" x="335.213" xlink:href="#ma4ec4e8458" y="546.274"/><use style="fill-opacity:0;stroke:#4c72b0" x="336.695" xlink:href="#ma4ec4e8458" y="532.764"/><use style="fill-opacity:0;stroke:#4c72b0" x="338.177" xlink:href="#ma4ec4e8458" y="546.274"/><use style="fill-opacity:0;stroke:#4c72b0" x="339.659" xlink:href="#ma4ec4e8458" y="546.274"/><use style="fill-opacity:0;stroke:#4c72b0" x="341.14" xlink:href="#ma4ec4e8458" y="519.254"/><use style="fill-opacity:0;stroke:#4c72b0" x="342.622" xlink:href="#ma4ec4e8458" y="546.274"/><use style="fill-opacity:0;stroke:#4c72b0" x="344.104" xlink:href="#ma4ec4e8458" y="546.274"/><use style="fill-opacity:0;stroke:#4c72b0" x="345.586" xlink:href="#ma4ec4e8458" y="505.744"/><use style="fill-opacity:0;stroke:#4c72b0" x="347.068" xlink:href="#ma4ec4e8458" y="532.764"/><use style="fill-opacity:0;stroke:#4c72b0" x="348.55" xlink:href="#ma4ec4e8458" y="546.274"/><use style="fill-opacity:0;stroke:#4c72b0" x="350.032" xlink:href="#ma4ec4e8458" y="546.274"/><use style="fill-opacity:0;stroke:#4c72b0" x="351.514" xlink:href="#ma4ec4e8458" y="546.274"/><use style="fill-opacity:0;stroke:#4c72b0" x="352.996" xlink:href="#ma4ec4e8458" y="546.274"/><use style="fill-opacity:0;stroke:#4c72b0" x="354.478" xlink:href="#ma4ec4e8458" y="546.274"/><use style="fill-opacity:0;stroke:#4c72b0" x="355.96" xlink:href="#ma4ec4e8458" y="546.274"/><use style="fill-opacity:0;stroke:#4c72b0" x="357.442" xlink:href="#ma4ec4e8458" y="532.764"/><use style="fill-opacity:0;stroke:#4c72b0" x="358.923" xlink:href="#ma4ec4e8458" y="532.764"/><use style="fill-opacity:0;stroke:#4c72b0" x="360.405" xlink:href="#ma4ec4e8458" y="546.274"/><use style="fill-opacity:0;stroke:#4c72b0" x="361.887" xlink:href="#ma4ec4e8458" y="532.764"/><use style="fill-opacity:0;stroke:#4c72b0" x="363.369" xlink:href="#ma4ec4e8458" y="546.274"/><use style="fill-opacity:0;stroke:#4c72b0" x="364.851" xlink:href="#ma4ec4e8458" y="546.274"/><use style="fill-opacity:0;stroke:#4c72b0" x="366.333" xlink:href="#ma4ec4e8458" y="546.274"/><use style="fill-opacity:0;stroke:#4c72b0" x="367.815" xlink:href="#ma4ec4e8458" y="532.764"/><use style="fill-opacity:0;stroke:#4c72b0" x="369.297" xlink:href="#ma4ec4e8458" y="546.274"/><use style="fill-opacity:0;stroke:#4c72b0" x="370.779" xlink:href="#ma4ec4e8458" y="546.274"/><use style="fill-opacity:0;stroke:#4c72b0" x="372.261" xlink:href="#ma4ec4e8458" y="546.274"/><use style="fill-opacity:0;stroke:#4c72b0" x="373.743" xlink:href="#ma4ec4e8458" y="546.274"/><use style="fill-opacity:0;stroke:#4c72b0" x="375.225" xlink:href="#ma4ec4e8458" y="546.274"/><use style="fill-opacity:0;stroke:#4c72b0" x="376.707" xlink:href="#ma4ec4e8458" y="519.254"/><use style="fill-opacity:0;stroke:#4c72b0" x="378.188" xlink:href="#ma4ec4e8458" y="546.274"/><use style="fill-opacity:0;stroke:#4c72b0" x="379.67" xlink:href="#ma4ec4e8458" y="532.764"/><use style="fill-opacity:0;stroke:#4c72b0" x="381.152" xlink:href="#ma4ec4e8458" y="532.764"/><use style="fill-opacity:0;stroke:#4c72b0" x="382.634" xlink:href="#ma4ec4e8458" y="532.764"/><use style="fill-opacity:0;stroke:#4c72b0" x="384.116" xlink:href="#ma4ec4e8458" y="546.274"/><use style="fill-opacity:0;stroke:#4c72b0" x="385.598" xlink:href="#ma4ec4e8458" y="546.274"/><use style="fill-opacity:0;stroke:#4c72b0" x="387.08" xlink:href="#ma4ec4e8458" y="492.234"/><use style="fill-opacity:0;stroke:#4c72b0" x="388.562" xlink:href="#ma4ec4e8458" y="546.274"/><use style="fill-opacity:0;stroke:#4c72b0" x="390.044" xlink:href="#ma4ec4e8458" y="532.764"/><use style="fill-opacity:0;stroke:#4c72b0" x="391.526" xlink:href="#ma4ec4e8458" y="546.274"/><use style="fill-opacity:0;stroke:#4c72b0" x="393.008" xlink:href="#ma4ec4e8458" y="546.274"/><use style="fill-opacity:0;stroke:#4c72b0" x="394.49" xlink:href="#ma4ec4e8458" y="546.274"/><use style="fill-opacity:0;stroke:#4c72b0" x="395.972" xlink:href="#ma4ec4e8458" y="546.274"/><use style="fill-opacity:0;stroke:#4c72b0" x="397.453" xlink:href="#ma4ec4e8458" y="465.213"/><use style="fill-opacity:0;stroke:#4c72b0" x="398.935" xlink:href="#ma4ec4e8458" y="532.764"/><use style="fill-opacity:0;stroke:#4c72b0" x="400.417" xlink:href="#ma4ec4e8458" y="546.274"/><use style="fill-opacity:0;stroke:#4c72b0" x="401.899" xlink:href="#ma4ec4e8458" y="532.764"/><use style="fill-opacity:0;stroke:#4c72b0" x="403.381" xlink:href="#ma4ec4e8458" y="519.254"/><use style="fill-opacity:0;stroke:#4c72b0" x="404.863" xlink:href="#ma4ec4e8458" y="546.274"/><use style="fill-opacity:0;stroke:#4c72b0" x="406.345" xlink:href="#ma4ec4e8458" y="546.274"/><use style="fill-opacity:0;stroke:#4c72b0" x="407.827" xlink:href="#ma4ec4e8458" y="519.254"/><use style="fill-opacity:0;stroke:#4c72b0" x="409.309" xlink:href="#ma4ec4e8458" y="532.764"/><use style="fill-opacity:0;stroke:#4c72b0" x="410.791" xlink:href="#ma4ec4e8458" y="546.274"/><use style="fill-opacity:0;stroke:#4c72b0" x="412.273" xlink:href="#ma4ec4e8458" y="546.274"/><use style="fill-opacity:0;stroke:#4c72b0" x="413.755" xlink:href="#ma4ec4e8458" y="546.274"/><use style="fill-opacity:0;stroke:#4c72b0" x="415.236" xlink:href="#ma4ec4e8458" y="546.274"/><use style="fill-opacity:0;stroke:#4c72b0" x="416.718" xlink:href="#ma4ec4e8458" y="546.274"/><use style="fill-opacity:0;stroke:#4c72b0" x="418.2" xlink:href="#ma4ec4e8458" y="546.274"/><use style="fill-opacity:0;stroke:#4c72b0" x="419.682" xlink:href="#ma4ec4e8458" y="505.744"/><use style="fill-opacity:0;stroke:#4c72b0" x="421.164" xlink:href="#ma4ec4e8458" y="532.764"/><use style="fill-opacity:0;stroke:#4c72b0" x="422.646" xlink:href="#ma4ec4e8458" y="532.764"/><use style="fill-opacity:0;stroke:#4c72b0" x="424.128" xlink:href="#ma4ec4e8458" y="546.274"/><use style="fill-opacity:0;stroke:#4c72b0" x="425.61" xlink:href="#ma4ec4e8458" y="546.274"/><use style="fill-opacity:0;stroke:#4c72b0" x="427.092" xlink:href="#ma4ec4e8458" y="546.274"/><use style="fill-opacity:0;stroke:#4c72b0" x="428.574" xlink:href="#ma4ec4e8458" y="532.764"/><use style="fill-opacity:0;stroke:#4c72b0" x="430.056" xlink:href="#ma4ec4e8458" y="546.274"/><use style="fill-opacity:0;stroke:#4c72b0" x="431.538" xlink:href="#ma4ec4e8458" y="546.274"/><use style="fill-opacity:0;stroke:#4c72b0" x="433.02" xlink:href="#ma4ec4e8458" y="532.764"/><use style="fill-opacity:0;stroke:#4c72b0" x="434.501" xlink:href="#ma4ec4e8458" y="546.274"/><use style="fill-opacity:0;stroke:#4c72b0" x="435.983" xlink:href="#ma4ec4e8458" y="546.274"/><use style="fill-opacity:0;stroke:#4c72b0" x="437.465" xlink:href="#ma4ec4e8458" y="546.274"/><use style="fill-opacity:0;stroke:#4c72b0" x="438.947" xlink:href="#ma4ec4e8458" y="532.764"/><use style="fill-opacity:0;stroke:#4c72b0" x="440.429" xlink:href="#ma4ec4e8458" y="546.274"/><use style="fill-opacity:0;stroke:#4c72b0" x="441.911" xlink:href="#ma4ec4e8458" y="532.764"/><use style="fill-opacity:0;stroke:#4c72b0" x="443.393" xlink:href="#ma4ec4e8458" y="546.274"/><use style="fill-opacity:0;stroke:#4c72b0" x="444.875" xlink:href="#ma4ec4e8458" y="546.274"/><use style="fill-opacity:0;stroke:#4c72b0" x="446.357" xlink:href="#ma4ec4e8458" y="546.274"/><use style="fill-opacity:0;stroke:#4c72b0" x="447.839" xlink:href="#ma4ec4e8458" y="546.274"/><use style="fill-opacity:0;stroke:#4c72b0" x="449.321" xlink:href="#ma4ec4e8458" y="546.274"/><use style="fill-opacity:0;stroke:#4c72b0" x="450.803" xlink:href="#ma4ec4e8458" y="546.274"/><use style="fill-opacity:0;stroke:#4c72b0" x="452.284" xlink:href="#ma4ec4e8458" y="532.764"/><use style="fill-opacity:0;stroke:#4c72b0" x="453.766" xlink:href="#ma4ec4e8458" y="546.274"/><use style="fill-opacity:0;stroke:#4c72b0" x="455.248" xlink:href="#ma4ec4e8458" y="532.764"/><use style="fill-opacity:0;stroke:#4c72b0" x="456.73" xlink:href="#ma4ec4e8458" y="546.274"/><use style="fill-opacity:0;stroke:#4c72b0" x="458.212" xlink:href="#ma4ec4e8458" y="546.274"/><use style="fill-opacity:0;stroke:#4c72b0" x="459.694" xlink:href="#ma4ec4e8458" y="532.764"/><use style="fill-opacity:0;stroke:#4c72b0" x="461.176" xlink:href="#ma4ec4e8458" y="546.274"/><use style="fill-opacity:0;stroke:#4c72b0" x="462.658" xlink:href="#ma4ec4e8458" y="546.274"/><use style="fill-opacity:0;stroke:#4c72b0" x="464.14" xlink:href="#ma4ec4e8458" y="532.764"/><use style="fill-opacity:0;stroke:#4c72b0" x="465.622" xlink:href="#ma4ec4e8458" y="532.764"/><use style="fill-opacity:0;stroke:#4c72b0" x="467.104" xlink:href="#ma4ec4e8458" y="546.274"/><use style="fill-opacity:0;stroke:#4c72b0" x="468.586" xlink:href="#ma4ec4e8458" y="546.274"/><use style="fill-opacity:0;stroke:#4c72b0" x="470.068" xlink:href="#ma4ec4e8458" y="546.274"/><use style="fill-opacity:0;stroke:#4c72b0" x="471.549" xlink:href="#ma4ec4e8458" y="519.254"/><use style="fill-opacity:0;stroke:#4c72b0" x="473.031" xlink:href="#ma4ec4e8458" y="532.764"/><use style="fill-opacity:0;stroke:#4c72b0" x="474.513" xlink:href="#ma4ec4e8458" y="532.764"/><use style="fill-opacity:0;stroke:#4c72b0" x="475.995" xlink:href="#ma4ec4e8458" y="546.274"/><use style="fill-opacity:0;stroke:#4c72b0" x="477.477" xlink:href="#ma4ec4e8458" y="546.274"/><use style="fill-opacity:0;stroke:#4c72b0" x="478.959" xlink:href="#ma4ec4e8458" y="546.274"/><use style="fill-opacity:0;stroke:#4c72b0" x="480.441" xlink:href="#ma4ec4e8458" y="532.764"/><use style="fill-opacity:0;stroke:#4c72b0" x="481.923" xlink:href="#ma4ec4e8458" y="546.274"/><use style="fill-opacity:0;stroke:#4c72b0" x="483.405" xlink:href="#ma4ec4e8458" y="492.234"/><use style="fill-opacity:0;stroke:#4c72b0" x="484.887" xlink:href="#ma4ec4e8458" y="546.274"/><use style="fill-opacity:0;stroke:#4c72b0" x="486.369" xlink:href="#ma4ec4e8458" y="546.274"/><use style="fill-opacity:0;stroke:#4c72b0" x="487.851" xlink:href="#ma4ec4e8458" y="546.274"/><use style="fill-opacity:0;stroke:#4c72b0" x="489.332" xlink:href="#ma4ec4e8458" y="546.274"/><use style="fill-opacity:0;stroke:#4c72b0" x="490.814" xlink:href="#ma4ec4e8458" y="546.274"/><use style="fill-opacity:0;stroke:#4c72b0" x="492.296" xlink:href="#ma4ec4e8458" y="505.744"/><use style="fill-opacity:0;stroke:#4c72b0" x="493.778" xlink:href="#ma4ec4e8458" y="546.274"/><use style="fill-opacity:0;stroke:#4c72b0" x="495.26" xlink:href="#ma4ec4e8458" y="546.274"/><use style="fill-opacity:0;stroke:#4c72b0" x="496.742" xlink:href="#ma4ec4e8458" y="546.274"/><use style="fill-opacity:0;stroke:#4c72b0" x="498.224" xlink:href="#ma4ec4e8458" y="546.274"/><use style="fill-opacity:0;stroke:#4c72b0" x="499.706" xlink:href="#ma4ec4e8458" y="546.274"/><use style="fill-opacity:0;stroke:#4c72b0" x="501.188" xlink:href="#ma4ec4e8458" y="532.764"/><use style="fill-opacity:0;stroke:#4c72b0" x="502.67" xlink:href="#ma4ec4e8458" y="546.274"/><use style="fill-opacity:0;stroke:#4c72b0" x="504.152" xlink:href="#ma4ec4e8458" y="519.254"/><use style="fill-opacity:0;stroke:#4c72b0" x="505.634" xlink:href="#ma4ec4e8458" y="532.764"/><use style="fill-opacity:0;stroke:#4c72b0" x="507.116" xlink:href="#ma4ec4e8458" y="546.274"/><use style="fill-opacity:0;stroke:#4c72b0" x="508.597" xlink:href="#ma4ec4e8458" y="546.274"/><use style="fill-opacity:0;stroke:#4c72b0" x="510.079" xlink:href="#ma4ec4e8458" y="546.274"/><use style="fill-opacity:0;stroke:#4c72b0" x="511.561" xlink:href="#ma4ec4e8458" y="505.744"/><use style="fill-opacity:0;stroke:#4c72b0" x="513.043" xlink:href="#ma4ec4e8458" y="546.274"/><use style="fill-opacity:0;stroke:#4c72b0" x="514.525" xlink:href="#ma4ec4e8458" y="532.764"/><use style="fill-opacity:0;stroke:#4c72b0" x="516.007" xlink:href="#ma4ec4e8458" y="546.274"/><use style="fill-opacity:0;stroke:#4c72b0" x="517.489" xlink:href="#ma4ec4e8458" y="546.274"/><use style="fill-opacity:0;stroke:#4c72b0" x="518.971" xlink:href="#ma4ec4e8458" y="546.274"/><use style="fill-opacity:0;stroke:#4c72b0" x="520.453" xlink:href="#ma4ec4e8458" y="546.274"/><use style="fill-opacity:0;stroke:#4c72b0" x="521.935" xlink:href="#ma4ec4e8458" y="546.274"/><use style="fill-opacity:0;stroke:#4c72b0" x="523.417" xlink:href="#ma4ec4e8458" y="546.274"/><use style="fill-opacity:0;stroke:#4c72b0" x="524.899" xlink:href="#ma4ec4e8458" y="546.274"/><use style="fill-opacity:0;stroke:#4c72b0" x="526.38" xlink:href="#ma4ec4e8458" y="546.274"/><use style="fill-opacity:0;stroke:#4c72b0" x="527.862" xlink:href="#ma4ec4e8458" y="546.274"/><use style="fill-opacity:0;stroke:#4c72b0" x="529.344" xlink:href="#ma4ec4e8458" y="546.274"/><use style="fill-opacity:0;stroke:#4c72b0" x="530.826" xlink:href="#ma4ec4e8458" y="546.274"/><use style="fill-opacity:0;stroke:#4c72b0" x="532.308" xlink:href="#ma4ec4e8458" y="519.254"/><use style="fill-opacity:0;stroke:#4c72b0" x="533.79" xlink:href="#ma4ec4e8458" y="532.764"/><use style="fill-opacity:0;stroke:#4c72b0" x="535.272" xlink:href="#ma4ec4e8458" y="478.723"/><use style="fill-opacity:0;stroke:#4c72b0" x="536.754" xlink:href="#ma4ec4e8458" y="424.683"/><use style="fill-opacity:0;stroke:#4c72b0" x="538.236" xlink:href="#ma4ec4e8458" y="519.254"/><use style="fill-opacity:0;stroke:#4c72b0" x="539.718" xlink:href="#ma4ec4e8458" y="546.274"/><use style="fill-opacity:0;stroke:#4c72b0" x="541.2" xlink:href="#ma4ec4e8458" y="546.274"/><use style="fill-opacity:0;stroke:#4c72b0" x="542.682" xlink:href="#ma4ec4e8458" y="519.254"/><use style="fill-opacity:0;stroke:#4c72b0" x="544.164" xlink:href="#ma4ec4e8458" y="465.213"/><use style="fill-opacity:0;stroke:#4c72b0" x="545.645" xlink:href="#ma4ec4e8458" y="532.764"/><use style="fill-opacity:0;stroke:#4c72b0" x="547.127" xlink:href="#ma4ec4e8458" y="478.723"/><use style="fill-opacity:0;stroke:#4c72b0" x="548.609" xlink:href="#ma4ec4e8458" y="478.723"/><use style="fill-opacity:0;stroke:#4c72b0" x="550.091" xlink:href="#ma4ec4e8458" y="505.744"/><use style="fill-opacity:0;stroke:#4c72b0" x="551.573" xlink:href="#ma4ec4e8458" y="505.744"/><use style="fill-opacity:0;stroke:#4c72b0" x="553.055" xlink:href="#ma4ec4e8458" y="519.254"/><use style="fill-opacity:0;stroke:#4c72b0" x="554.537" xlink:href="#ma4ec4e8458" y="546.274"/><use style="fill-opacity:0;stroke:#4c72b0" x="556.019" xlink:href="#ma4ec4e8458" y="492.234"/><use style="fill-opacity:0;stroke:#4c72b0" x="557.501" xlink:href="#ma4ec4e8458" y="546.274"/><use style="fill-opacity:0;stroke:#4c72b0" x="558.983" xlink:href="#ma4ec4e8458" y="546.274"/><use style="fill-opacity:0;stroke:#4c72b0" x="560.465" xlink:href="#ma4ec4e8458" y="546.274"/><use style="fill-opacity:0;stroke:#4c72b0" x="561.947" xlink:href="#ma4ec4e8458" y="546.274"/><use style="fill-opacity:0;stroke:#4c72b0" x="563.428" xlink:href="#ma4ec4e8458" y="465.213"/><use style="fill-opacity:0;stroke:#4c72b0" x="564.91" xlink:href="#ma4ec4e8458" y="492.234"/><use style="fill-opacity:0;stroke:#4c72b0" x="566.392" xlink:href="#ma4ec4e8458" y="478.723"/><use style="fill-opacity:0;stroke:#4c72b0" x="567.874" xlink:href="#ma4ec4e8458" y="478.723"/><use style="fill-opacity:0;stroke:#4c72b0" x="569.356" xlink:href="#ma4ec4e8458" y="478.723"/><use style="fill-opacity:0;stroke:#4c72b0" x="570.838" xlink:href="#ma4ec4e8458" y="546.274"/><use style="fill-opacity:0;stroke:#4c72b0" x="572.32" xlink:href="#ma4ec4e8458" y="546.274"/><use style="fill-opacity:0;stroke:#4c72b0" x="573.802" xlink:href="#ma4ec4e8458" y="384.153"/><use style="fill-opacity:0;stroke:#4c72b0" x="575.284" xlink:href="#ma4ec4e8458" y="532.764"/><use style="fill-opacity:0;stroke:#4c72b0" x="576.766" xlink:href="#ma4ec4e8458" y="451.703"/><use style="fill-opacity:0;stroke:#4c72b0" x="578.248" xlink:href="#ma4ec4e8458" y="505.744"/><use style="fill-opacity:0;stroke:#4c72b0" x="579.73" xlink:href="#ma4ec4e8458" y="478.723"/><use style="fill-opacity:0;stroke:#4c72b0" x="581.212" xlink:href="#ma4ec4e8458" y="546.274"/><use style="fill-opacity:0;stroke:#4c72b0" x="582.693" xlink:href="#ma4ec4e8458" y="546.274"/><use style="fill-opacity:0;stroke:#4c72b0" x="584.175" xlink:href="#ma4ec4e8458" y="289.582"/><use style="fill-opacity:0;stroke:#4c72b0" x="585.657" xlink:href="#ma4ec4e8458" y="492.234"/><use style="fill-opacity:0;stroke:#4c72b0" x="587.139" xlink:href="#ma4ec4e8458" y="546.274"/><use style="fill-opacity:0;stroke:#4c72b0" x="588.621" xlink:href="#ma4ec4e8458" y="316.602"/><use style="fill-opacity:0;stroke:#4c72b0" x="590.103" xlink:href="#ma4ec4e8458" y="451.703"/><use style="fill-opacity:0;stroke:#4c72b0" x="591.585" xlink:href="#ma4ec4e8458" y="546.274"/><use style="fill-opacity:0;stroke:#4c72b0" x="593.067" xlink:href="#ma4ec4e8458" y="546.274"/><use style="fill-opacity:0;stroke:#4c72b0" x="594.549" xlink:href="#ma4ec4e8458" y="330.112"/><use style="fill-opacity:0;stroke:#4c72b0" x="596.031" xlink:href="#ma4ec4e8458" y="384.153"/><use style="fill-opacity:0;stroke:#4c72b0" x="597.513" xlink:href="#ma4ec4e8458" y="384.153"/><use style="fill-opacity:0;stroke:#4c72b0" x="598.995" xlink:href="#ma4ec4e8458" y="438.193"/><use style="fill-opacity:0;stroke:#4c72b0" x="600.477" xlink:href="#ma4ec4e8458" y="357.132"/><use style="fill-opacity:0;stroke:#4c72b0" x="601.958" xlink:href="#ma4ec4e8458" y="478.723"/><use style="fill-opacity:0;stroke:#4c72b0" x="603.44" xlink:href="#ma4ec4e8458" y="546.274"/><use style="fill-opacity:0;stroke:#4c72b0" x="604.922" xlink:href="#ma4ec4e8458" y="357.132"/><use style="fill-opacity:0;stroke:#4c72b0" x="606.404" xlink:href="#ma4ec4e8458" y="438.193"/><use style="fill-opacity:0;stroke:#4c72b0" x="607.886" xlink:href="#ma4ec4e8458" y="465.213"/><use style="fill-opacity:0;stroke:#4c72b0" x="609.368" xlink:href="#ma4ec4e8458" y="546.274"/><use style="fill-opacity:0;stroke:#4c72b0" x="610.85" xlink:href="#ma4ec4e8458" y="546.274"/><use style="fill-opacity:0;stroke:#4c72b0" x="612.332" xlink:href="#ma4ec4e8458" y="276.072"/><use style="fill-opacity:0;stroke:#4c72b0" x="613.814" xlink:href="#ma4ec4e8458" y="546.274"/><use style="fill-opacity:0;stroke:#4c72b0" x="615.296" xlink:href="#ma4ec4e8458" y="357.132"/><use style="fill-opacity:0;stroke:#4c72b0" x="616.778" xlink:href="#ma4ec4e8458" y="451.703"/><use style="fill-opacity:0;stroke:#4c72b0" x="618.26" xlink:href="#ma4ec4e8458" y="397.663"/><use style="fill-opacity:0;stroke:#4c72b0" x="619.741" xlink:href="#ma4ec4e8458" y="330.112"/><use style="fill-opacity:0;stroke:#4c72b0" x="621.223" xlink:href="#ma4ec4e8458" y="222.031"/><use style="fill-opacity:0;stroke:#4c72b0" x="622.705" xlink:href="#ma4ec4e8458" y="397.663"/><use style="fill-opacity:0;stroke:#4c72b0" x="624.187" xlink:href="#ma4ec4e8458" y="546.274"/><use style="fill-opacity:0;stroke:#4c72b0" x="625.669" xlink:href="#ma4ec4e8458" y="397.663"/><use style="fill-opacity:0;stroke:#4c72b0" x="627.151" xlink:href="#ma4ec4e8458" y="384.153"/><use style="fill-opacity:0;stroke:#4c72b0" x="628.633" xlink:href="#ma4ec4e8458" y="478.723"/><use style="fill-opacity:0;stroke:#4c72b0" x="630.115" xlink:href="#ma4ec4e8458" y="303.092"/><use style="fill-opacity:0;stroke:#4c72b0" x="631.597" xlink:href="#ma4ec4e8458" y="424.683"/><use style="fill-opacity:0;stroke:#4c72b0" x="633.079" xlink:href="#ma4ec4e8458" y="546.274"/><use style="fill-opacity:0;stroke:#4c72b0" x="634.561" xlink:href="#ma4ec4e8458" y="546.274"/><use style="fill-opacity:0;stroke:#4c72b0" x="636.043" xlink:href="#ma4ec4e8458" y="357.132"/><use style="fill-opacity:0;stroke:#4c72b0" x="637.525" xlink:href="#ma4ec4e8458" y="424.683"/><use style="fill-opacity:0;stroke:#4c72b0" x="639.006" xlink:href="#ma4ec4e8458" y="451.703"/><use style="fill-opacity:0;stroke:#4c72b0" x="640.488" xlink:href="#ma4ec4e8458" y="546.274"/><use style="fill-opacity:0;stroke:#4c72b0" x="641.97" xlink:href="#ma4ec4e8458" y="316.602"/><use style="fill-opacity:0;stroke:#4c72b0" x="643.452" xlink:href="#ma4ec4e8458" y="546.274"/><use style="fill-opacity:0;stroke:#4c72b0" x="644.934" xlink:href="#ma4ec4e8458" y="546.274"/><use style="fill-opacity:0;stroke:#4c72b0" x="646.416" xlink:href="#ma4ec4e8458" y="181.501"/><use style="fill-opacity:0;stroke:#4c72b0" x="647.898" xlink:href="#ma4ec4e8458" y="451.703"/><use style="fill-opacity:0;stroke:#4c72b0" x="649.38" xlink:href="#ma4ec4e8458" y="181.501"/><use style="fill-opacity:0;stroke:#4c72b0" x="650.862" xlink:href="#ma4ec4e8458" y="478.723"/><use style="fill-opacity:0;stroke:#4c72b0" x="652.344" xlink:href="#ma4ec4e8458" y="546.274"/><use style="fill-opacity:0;stroke:#4c72b0" x="653.826" xlink:href="#ma4ec4e8458" y="546.274"/><use style="fill-opacity:0;stroke:#4c72b0" x="655.308" xlink:href="#ma4ec4e8458" y="546.274"/><use style="fill-opacity:0;stroke:#4c72b0" x="656.789" xlink:href="#ma4ec4e8458" y="140.97"/><use style="fill-opacity:0;stroke:#4c72b0" x="658.271" xlink:href="#ma4ec4e8458" y="478.723"/><use style="fill-opacity:0;stroke:#4c72b0" x="659.753" xlink:href="#ma4ec4e8458" y="289.582"/><use style="fill-opacity:0;stroke:#4c72b0" x="661.235" xlink:href="#ma4ec4e8458" y="397.663"/><use style="fill-opacity:0;stroke:#4c72b0" x="662.717" xlink:href="#ma4ec4e8458" y="546.274"/><use style="fill-opacity:0;stroke:#4c72b0" x="664.199" xlink:href="#ma4ec4e8458" y="546.274"/><use style="fill-opacity:0;stroke:#4c72b0" x="665.681" xlink:href="#ma4ec4e8458" y="546.274"/><use style="fill-opacity:0;stroke:#4c72b0" x="667.163" xlink:href="#ma4ec4e8458" y="100.44"/><use style="fill-opacity:0;stroke:#4c72b0" x="668.645" xlink:href="#ma4ec4e8458" y="303.092"/><use style="fill-opacity:0;stroke:#4c72b0" x="670.127" xlink:href="#ma4ec4e8458" y="357.132"/><use style="fill-opacity:0;stroke:#4c72b0" x="671.609" xlink:href="#ma4ec4e8458" y="343.622"/><use style="fill-opacity:0;stroke:#4c72b0" x="673.091" xlink:href="#ma4ec4e8458" y="384.153"/><use style="fill-opacity:0;stroke:#4c72b0" x="674.573" xlink:href="#ma4ec4e8458" y="411.173"/><use style="fill-opacity:0;stroke:#4c72b0" x="676.054" xlink:href="#ma4ec4e8458" y="546.274"/><use style="fill-opacity:0;stroke:#4c72b0" x="677.536" xlink:href="#ma4ec4e8458" y="249.051"/><use style="fill-opacity:0;stroke:#4c72b0" x="679.018" xlink:href="#ma4ec4e8458" y="397.663"/><use style="fill-opacity:0;stroke:#4c72b0" x="680.5" xlink:href="#ma4ec4e8458" y="343.622"/><use style="fill-opacity:0;stroke:#4c72b0" x="681.982" xlink:href="#ma4ec4e8458" y="411.173"/><use style="fill-opacity:0;stroke:#4c72b0" x="683.464" xlink:href="#ma4ec4e8458" y="411.173"/><use style="fill-opacity:0;stroke:#4c72b0" x="684.946" xlink:href="#ma4ec4e8458" y="546.274"/><use style="fill-opacity:0;stroke:#4c72b0" x="686.428" xlink:href="#ma4ec4e8458" y="546.274"/><use style="fill-opacity:0;stroke:#4c72b0" x="687.91" xlink:href="#ma4ec4e8458" y="546.274"/><use style="fill-opacity:0;stroke:#4c72b0" x="689.392" xlink:href="#ma4ec4e8458" y="262.561"/><use style="fill-opacity:0;stroke:#4c72b0" x="690.874" xlink:href="#ma4ec4e8458" y="411.173"/><use style="fill-opacity:0;stroke:#4c72b0" x="692.356" xlink:href="#ma4ec4e8458" y="492.234"/><use style="fill-opacity:0;stroke:#4c72b0" x="693.837" xlink:href="#ma4ec4e8458" y="505.744"/><use style="fill-opacity:0;stroke:#4c72b0" x="695.319" xlink:href="#ma4ec4e8458" y="546.274"/><use style="fill-opacity:0;stroke:#4c72b0" x="696.801" xlink:href="#ma4ec4e8458" y="546.274"/><use style="fill-opacity:0;stroke:#4c72b0" x="698.283" xlink:href="#ma4ec4e8458" y="127.46"/><use style="fill-opacity:0;stroke:#4c72b0" x="699.765" xlink:href="#ma4ec4e8458" y="492.234"/><use style="fill-opacity:0;stroke:#4c72b0" x="701.247" xlink:href="#ma4ec4e8458" y="465.213"/><use style="fill-opacity:0;stroke:#4c72b0" x="702.729" xlink:href="#ma4ec4e8458" y="465.213"/><use style="fill-opacity:0;stroke:#4c72b0" x="704.211" xlink:href="#ma4ec4e8458" y="330.112"/><use style="fill-opacity:0;stroke:#4c72b0" x="705.693" xlink:href="#ma4ec4e8458" y="478.723"/><use style="fill-opacity:0;stroke:#4c72b0" x="707.175" xlink:href="#ma4ec4e8458" y="546.274"/><use style="fill-opacity:0;stroke:#4c72b0" x="708.657" xlink:href="#ma4ec4e8458" y="546.274"/><use style="fill-opacity:0;stroke:#4c72b0" x="710.139" xlink:href="#ma4ec4e8458" y="546.274"/><use style="fill-opacity:0;stroke:#4c72b0" x="711.621" xlink:href="#ma4ec4e8458" y="195.011"/><use style="fill-opacity:0;stroke:#4c72b0" x="713.102" xlink:href="#ma4ec4e8458" y="438.193"/><use style="fill-opacity:0;stroke:#4c72b0" x="714.584" xlink:href="#ma4ec4e8458" y="451.703"/><use style="fill-opacity:0;stroke:#4c72b0" x="716.066" xlink:href="#ma4ec4e8458" y="546.274"/><use style="fill-opacity:0;stroke:#4c72b0" x="717.548" xlink:href="#ma4ec4e8458" y="546.274"/><use style="fill-opacity:0;stroke:#4c72b0" x="719.03" xlink:href="#ma4ec4e8458" y="330.112"/><use style="fill-opacity:0;stroke:#4c72b0" x="720.512" xlink:href="#ma4ec4e8458" y="451.703"/><use style="fill-opacity:0;stroke:#4c72b0" x="721.994" xlink:href="#ma4ec4e8458" y="478.723"/><use style="fill-opacity:0;stroke:#4c72b0" x="723.476" xlink:href="#ma4ec4e8458" y="465.213"/><use style="fill-opacity:0;stroke:#4c72b0" x="724.958" xlink:href="#ma4ec4e8458" y="478.723"/><use style="fill-opacity:0;stroke:#4c72b0" x="726.44" xlink:href="#ma4ec4e8458" y="451.703"/><use style="fill-opacity:0;stroke:#4c72b0" x="727.922" xlink:href="#ma4ec4e8458" y="546.274"/><use style="fill-opacity:0;stroke:#4c72b0" x="729.404" xlink:href="#ma4ec4e8458" y="546.274"/><use style="fill-opacity:0;stroke:#4c72b0" x="730.885" xlink:href="#ma4ec4e8458" y="357.132"/><use style="fill-opacity:0;stroke:#4c72b0" x="732.367" xlink:href="#ma4ec4e8458" y="478.723"/><use style="fill-opacity:0;stroke:#4c72b0" x="733.849" xlink:href="#ma4ec4e8458" y="505.744"/><use style="fill-opacity:0;stroke:#4c72b0" x="735.331" xlink:href="#ma4ec4e8458" y="478.723"/><use style="fill-opacity:0;stroke:#4c72b0" x="736.813" xlink:href="#ma4ec4e8458" y="546.274"/><use style="fill-opacity:0;stroke:#4c72b0" x="738.295" xlink:href="#ma4ec4e8458" y="451.703"/><use style="fill-opacity:0;stroke:#4c72b0" x="739.777" xlink:href="#ma4ec4e8458" y="492.234"/><use style="fill-opacity:0;stroke:#4c72b0" x="741.259" xlink:href="#ma4ec4e8458" y="465.213"/><use style="fill-opacity:0;stroke:#4c72b0" x="742.741" xlink:href="#ma4ec4e8458" y="492.234"/><use style="fill-opacity:0;stroke:#4c72b0" x="744.223" xlink:href="#ma4ec4e8458" y="370.642"/><use style="fill-opacity:0;stroke:#4c72b0" x="745.705" xlink:href="#ma4ec4e8458" y="424.683"/><use style="fill-opacity:0;stroke:#4c72b0" x="747.187" xlink:href="#ma4ec4e8458" y="546.274"/><use style="fill-opacity:0;stroke:#4c72b0" x="748.669" xlink:href="#ma4ec4e8458" y="546.274"/><use style="fill-opacity:0;stroke:#4c72b0" x="750.15" xlink:href="#ma4ec4e8458" y="330.112"/><use style="fill-opacity:0;stroke:#4c72b0" x="751.632" xlink:href="#ma4ec4e8458" y="411.173"/><use style="fill-opacity:0;stroke:#4c72b0" x="753.114" xlink:href="#ma4ec4e8458" y="465.213"/><use style="fill-opacity:0;stroke:#4c72b0" x="754.596" xlink:href="#ma4ec4e8458" y="505.744"/><use style="fill-opacity:0;stroke:#4c72b0" x="756.078" xlink:href="#ma4ec4e8458" y="357.132"/><use style="fill-opacity:0;stroke:#4c72b0" x="757.56" xlink:href="#ma4ec4e8458" y="546.274"/><use style="fill-opacity:0;stroke:#4c72b0" x="759.042" xlink:href="#ma4ec4e8458" y="546.274"/><use style="fill-opacity:0;stroke:#4c72b0" x="760.524" xlink:href="#ma4ec4e8458" y="357.132"/><use style="fill-opacity:0;stroke:#4c72b0" x="762.006" xlink:href="#ma4ec4e8458" y="492.234"/><use style="fill-opacity:0;stroke:#4c72b0" x="763.488" xlink:href="#ma4ec4e8458" y="438.193"/><use style="fill-opacity:0;stroke:#4c72b0" x="764.97" xlink:href="#ma4ec4e8458" y="357.132"/><use style="fill-opacity:0;stroke:#4c72b0" x="766.452" xlink:href="#ma4ec4e8458" y="478.723"/><use style="fill-opacity:0;stroke:#4c72b0" x="767.934" xlink:href="#ma4ec4e8458" y="546.274"/><use style="fill-opacity:0;stroke:#4c72b0" x="769.415" xlink:href="#ma4ec4e8458" y="546.274"/><use style="fill-opacity:0;stroke:#4c72b0" x="770.897" xlink:href="#ma4ec4e8458" y="235.541"/><use style="fill-opacity:0;stroke:#4c72b0" x="772.379" xlink:href="#ma4ec4e8458" y="451.703"/><use style="fill-opacity:0;stroke:#4c72b0" x="773.861" xlink:href="#ma4ec4e8458" y="438.193"/><use style="fill-opacity:0;stroke:#4c72b0" x="775.343" xlink:href="#ma4ec4e8458" y="505.744"/><use style="fill-opacity:0;stroke:#4c72b0" x="776.825" xlink:href="#ma4ec4e8458" y="478.723"/><use style="fill-opacity:0;stroke:#4c72b0" x="778.307" xlink:href="#ma4ec4e8458" y="546.274"/><use style="fill-opacity:0;stroke:#4c72b0" x="779.789" xlink:href="#ma4ec4e8458" y="546.274"/><use style="fill-opacity:0;stroke:#4c72b0" x="781.271" xlink:href="#ma4ec4e8458" y="222.031"/><use style="fill-opacity:0;stroke:#4c72b0" x="782.753" xlink:href="#ma4ec4e8458" y="465.213"/><use style="fill-opacity:0;stroke:#4c72b0" x="784.235" xlink:href="#ma4ec4e8458" y="451.703"/><use style="fill-opacity:0;stroke:#4c72b0" x="785.717" xlink:href="#ma4ec4e8458" y="438.193"/><use style="fill-opacity:0;stroke:#4c72b0" x="787.198" xlink:href="#ma4ec4e8458" y="451.703"/><use style="fill-opacity:0;stroke:#4c72b0" x="788.68" xlink:href="#ma4ec4e8458" y="546.274"/><use style="fill-opacity:0;stroke:#4c72b0" x="790.162" xlink:href="#ma4ec4e8458" y="424.683"/><use style="fill-opacity:0;stroke:#4c72b0" x="791.644" xlink:href="#ma4ec4e8458" y="397.663"/><use style="fill-opacity:0;stroke:#4c72b0" x="793.126" xlink:href="#ma4ec4e8458" y="438.193"/><use style="fill-opacity:0;stroke:#4c72b0" x="794.608" xlink:href="#ma4ec4e8458" y="505.744"/><use style="fill-opacity:0;stroke:#4c72b0" x="796.09" xlink:href="#ma4ec4e8458" y="303.092"/><use style="fill-opacity:0;stroke:#4c72b0" x="797.572" xlink:href="#ma4ec4e8458" y="424.683"/><use style="fill-opacity:0;stroke:#4c72b0" x="799.054" xlink:href="#ma4ec4e8458" y="546.274"/><use style="fill-opacity:0;stroke:#4c72b0" x="800.536" xlink:href="#ma4ec4e8458" y="546.274"/><use style="fill-opacity:0;stroke:#4c72b0" x="802.018" xlink:href="#ma4ec4e8458" y="316.602"/><use style="fill-opacity:0;stroke:#4c72b0" x="803.5" xlink:href="#ma4ec4e8458" y="438.193"/><use style="fill-opacity:0;stroke:#4c72b0" x="806.463" xlink:href="#ma4ec4e8458" y="438.193"/><use style="fill-opacity:0;stroke:#4c72b0" x="806.463" xlink:href="#ma4ec4e8458" y="424.683"/><use style="fill-opacity:0;stroke:#4c72b0" x="807.945" xlink:href="#ma4ec4e8458" y="478.723"/><use style="fill-opacity:0;stroke:#4c72b0" x="809.427" xlink:href="#ma4ec4e8458" y="532.764"/></g></g><path d="M117 576.72V77.76" style="fill:none;stroke:#d3d3d3;stroke-linecap:square;stroke-linejoin:miter;stroke-width:1.25" id="patch_3"/><path d="M117 576.72h725.4" style="fill:none;stroke:#d3d3d3;stroke-linecap:square;stroke-linejoin:miter;stroke-width:1.25" id="patch_4"/><g id="matplotlib.axis_1"><g id="xtick_1"><g style="fill:#696969" transform="matrix(.16 0 0 -.16 108.002 598.378)" id="text_1"><defs><path d="M9.813 72.906h9.859V5.078q0-13.187-5-19.14-5-5.954-16.094-5.954h-3.75v8.297h3.078q6.531 0 9.219 3.672Q9.813-4.39 9.813 5.078z" id="DejaVuSans-74"/><path d="M34.281 27.484q-10.89 0-15.093-2.484-4.204-2.484-4.204-8.5 0-4.781 3.157-7.594 3.156-2.797 8.562-2.797 7.485 0 12 5.297 4.516 5.297 4.516 14.078v2zm17.922 3.72V0H43.22v8.297Q40.14 3.328 35.547.953q-4.594-2.375-11.234-2.375-8.391 0-13.36 4.719Q6 8.016 6 15.922q0 9.219 6.172 13.906 6.187 4.688 18.437 4.688h12.61v.89q0 6.203-4.078 9.594-4.078 3.39-11.453 3.39-4.688 0-9.141-1.124-4.438-1.125-8.531-3.375v8.312q4.921 1.906 9.562 2.844 4.64.953 9.031.953 11.875 0 17.735-6.156 5.86-6.14 5.86-18.64z" id="DejaVuSans-97"/><path d="M54.89 33.016V0h-8.984v32.719q0 7.765-3.031 11.61-3.031 3.858-9.078 3.858-7.281 0-11.484-4.64-4.204-4.625-4.204-12.64V0H9.08v54.688h9.03v-8.5q3.235 4.937 7.594 7.374Q30.078 56 35.797 56q9.422 0 14.25-5.828 4.844-5.828 4.844-17.156z" id="DejaVuSans-110"/></defs><use xlink:href="#DejaVuSans-74"/><use x="29.492" xlink:href="#DejaVuSans-97"/><use x="90.771" xlink:href="#DejaVuSans-110"/></g></g><g id="xtick_2"><g style="fill:#696969" transform="matrix(.16 0 0 -.16 194.156 598.378)" id="text_2"><defs><path d="M9.813 72.906h14.703l18.593-49.61 18.703 49.61h14.704V0H66.89v64.016l-18.797-50h-9.907l-18.796 50V0H9.813z" id="DejaVuSans-77"/><path d="M41.11 46.297q-1.516.875-3.297 1.281Q36.03 48 33.89 48q-7.625 0-11.703-4.953-4.079-4.953-4.079-14.234V0H9.08v54.688h9.03v-8.5q2.844 4.984 7.375 7.39Q30.031 56 36.531 56q.922 0 2.047-.125 1.125-.11 2.484-.36z" id="DejaVuSans-114"/></defs><use xlink:href="#DejaVuSans-77"/><use x="86.279" xlink:href="#DejaVuSans-97"/><use x="147.559" xlink:href="#DejaVuSans-114"/></g></g><g id="xtick_3"><g style="fill:#696969" transform="matrix(.16 0 0 -.16 283.107 598.378)" id="text_3"><defs><path d="M32.172-5.078q-3.797-9.766-7.422-12.735-3.61-2.984-9.656-2.984H7.906v7.516h5.282q3.703 0 5.75 1.765Q21-9.766 23.483-3.219l1.61 4.094-22.11 53.813H12.5l17.094-42.766 17.093 42.766h9.516z" id="DejaVuSans-121"/></defs><use xlink:href="#DejaVuSans-77"/><use x="86.279" xlink:href="#DejaVuSans-97"/><use x="147.559" xlink:href="#DejaVuSans-121"/></g></g><g id="xtick_4"><g style="fill:#696969" transform="matrix(.16 0 0 -.16 380.391 598.378)" id="text_4"><defs><path d="M8.5 21.578v33.11h8.984V21.922q0-7.766 3.016-11.656 3.031-3.875 9.094-3.875 7.265 0 11.484 4.64 4.234 4.64 4.234 12.656v31h8.985V0h-8.984v8.406Q42.047 3.422 37.718 1q-4.313-2.422-10.032-2.422-9.421 0-14.312 5.86Q8.5 10.296 8.5 21.578zM31.11 56z" id="DejaVuSans-117"/><path d="M9.422 75.984h8.984V0H9.422z" id="DejaVuSans-108"/></defs><use xlink:href="#DejaVuSans-74"/><use x="29.492" xlink:href="#DejaVuSans-117"/><use x="92.871" xlink:href="#DejaVuSans-108"/></g></g><g id="xtick_5"><g style="fill:#696969" transform="matrix(.16 0 0 -.16 466.843 598.378)" id="text_5"><defs><path d="M53.516 70.516V60.89q-5.61 2.687-10.594 4-4.984 1.328-9.625 1.328-8.047 0-12.422-3.125t-4.375-8.89q0-4.845 2.906-7.313 2.907-2.453 11.016-3.97l5.953-1.218q11.031-2.11 16.281-7.406 5.25-5.297 5.25-14.172 0-10.61-7.11-16.078-7.093-5.469-20.812-5.469-5.172 0-11.015 1.172Q13.14.922 6.89 3.219v10.156q6-3.36 11.765-5.078 5.766-1.703 11.328-1.703 8.438 0 13.032 3.312 4.593 3.328 4.593 9.485 0 5.359-3.297 8.39-3.296 3.032-10.812 4.547L27.484 33.5q-11.03 2.188-15.968 6.875-4.922 4.688-4.922 13.047 0 9.672 6.812 15.234 6.813 5.563 18.766 5.563 5.14 0 10.453-.938 5.328-.922 10.89-2.765z" id="DejaVuSans-83"/><path d="M56.203 29.594v-4.39H14.891q.593-9.282 5.593-14.142 5-4.859 13.938-4.859 5.172 0 10.031 1.266 4.86 1.265 9.656 3.812v-8.5Q49.266.734 44.187-.344 39.11-1.422 33.892-1.422q-13.094 0-20.735 7.61-7.64 7.625-7.64 20.625 0 13.421 7.25 21.296Q20.016 56 32.328 56q11.031 0 17.453-7.11 6.422-7.093 6.422-19.296zm-8.984 2.64q-.094 7.36-4.125 11.75-4.032 4.407-10.672 4.407-7.516 0-12.031-4.25-4.516-4.25-5.203-11.97z" id="DejaVuSans-101"/><path d="M18.11 8.203v-29H9.077v75.484h9.031v-8.296q2.844 4.875 7.157 7.234Q29.594 56 35.594 56q9.968 0 16.187-7.906 6.235-7.907 6.235-20.797T51.78 6.484q-6.218-7.906-16.187-7.906-6 0-10.328 2.375-4.313 2.375-7.157 7.25zm30.578 19.094q0 9.906-4.079 15.547-4.078 5.64-11.203 5.64-7.14 0-11.218-5.64-4.079-5.64-4.079-15.547 0-9.906 4.078-15.547 4.079-5.64 11.22-5.64 7.124 0 11.202 5.64t4.078 15.547z" id="DejaVuSans-112"/></defs><use xlink:href="#DejaVuSans-83"/><use x="63.477" xlink:href="#DejaVuSans-101"/><use x="125" xlink:href="#DejaVuSans-112"/></g></g><g id="xtick_6"><g style="fill:#696969" transform="matrix(.16 0 0 -.16 556.705 598.378)" id="text_6"><defs><path d="M9.813 72.906h13.28l32.329-60.984v60.984h9.562V0h-13.28L19.39 60.984V0H9.813z" id="DejaVuSans-78"/><path d="M30.61 48.39q-7.22 0-11.422-5.64-4.204-5.64-4.204-15.453 0-9.813 4.172-15.453 4.188-5.64 11.453-5.64 7.188 0 11.375 5.655 4.203 5.672 4.203 15.438 0 9.719-4.203 15.406-4.187 5.688-11.375 5.688zm0 7.61q11.718 0 18.406-7.625 6.703-7.61 6.703-21.078 0-13.422-6.703-21.078-6.688-7.64-18.407-7.64-11.765 0-18.437 7.64-6.656 7.656-6.656 21.078 0 13.469 6.656 21.078Q18.844 56 30.609 56z" id="DejaVuSans-111"/><path d="M2.984 54.688H12.5L29.594 8.797l17.093 45.89h9.516L35.687 0H23.485z" id="DejaVuSans-118"/></defs><use xlink:href="#DejaVuSans-78"/><use x="74.805" xlink:href="#DejaVuSans-111"/><use x="135.986" xlink:href="#DejaVuSans-118"/></g></g><g id="xtick_7"><g style="fill:#696969" transform="matrix(.16 0 0 -.16 650.385 598.378)" id="text_7"><use xlink:href="#DejaVuSans-74"/><use x="29.492" xlink:href="#DejaVuSans-97"/><use x="90.771" xlink:href="#DejaVuSans-110"/></g></g><g id="xtick_8"><g style="fill:#696969" transform="matrix(.16 0 0 -.16 735.057 598.378)" id="text_8"><use xlink:href="#DejaVuSans-77"/><use x="86.279" xlink:href="#DejaVuSans-97"/><use x="147.559" xlink:href="#DejaVuSans-114"/></g></g><g id="xtick_9"><g style="fill:#696969" transform="matrix(.16 0 0 -.16 824.008 598.378)" id="text_9"><use xlink:href="#DejaVuSans-77"/><use x="86.279" xlink:href="#DejaVuSans-97"/><use x="147.559" xlink:href="#DejaVuSans-121"/></g></g></g><g id="matplotlib.axis_2"><g id="ytick_1"><g style="fill:#696969" transform="matrix(.16 0 0 -.16 97.32 552.353)" id="text_10"><defs><path d="M31.781 66.406q-7.61 0-11.453-7.5Q16.5 51.422 16.5 36.375q0-14.984 3.828-22.484 3.844-7.5 11.453-7.5 7.672 0 11.5 7.5 3.844 7.5 3.844 22.484 0 15.047-3.844 22.531-3.828 7.5-11.5 7.5zm0 7.813q12.266 0 18.735-9.703 6.468-9.688 6.468-28.141 0-18.406-6.468-28.11-6.47-9.687-18.735-9.687-12.25 0-18.718 9.688-6.47 9.703-6.47 28.109 0 18.453 6.47 28.14Q19.53 74.22 31.78 74.22z" id="DejaVuSans-48"/></defs><use xlink:href="#DejaVuSans-48"/></g></g><g id="ytick_2"><g style="fill:#696969" transform="matrix(.16 0 0 -.16 97.32 484.802)" id="text_11"><defs><path d="M10.797 72.906h38.719v-8.312H19.828v-17.86q2.14.735 4.281 1.094 2.157.36 4.313.36 12.203 0 19.328-6.688 7.14-6.688 7.14-18.11 0-11.765-7.328-18.296-7.328-6.516-20.656-6.516-4.593 0-9.36.781-4.75.782-9.827 2.344v9.922q4.39-2.39 9.078-3.563 4.687-1.171 9.906-1.171 8.453 0 13.375 4.437 4.938 4.438 4.938 12.063 0 7.609-4.938 12.047-4.922 4.453-13.375 4.453-3.953 0-7.89-.875-3.922-.875-8.016-2.735z" id="DejaVuSans-53"/></defs><use xlink:href="#DejaVuSans-53"/></g></g><g id="ytick_3"><g style="fill:#696969" transform="matrix(.16 0 0 -.16 87.14 417.252)" id="text_12"><defs><path d="M12.406 8.297h16.11v55.625l-17.532-3.516v8.985l17.438 3.515h9.86V8.296H54.39V0H12.406z" id="DejaVuSans-49"/></defs><use xlink:href="#DejaVuSans-49"/><use x="63.623" xlink:href="#DejaVuSans-48"/></g></g><g id="ytick_4"><g style="fill:#696969" transform="matrix(.16 0 0 -.16 87.14 349.701)" id="text_13"><use xlink:href="#DejaVuSans-49"/><use x="63.623" xlink:href="#DejaVuSans-53"/></g></g><g id="ytick_5"><g style="fill:#696969" transform="matrix(.16 0 0 -.16 87.14 282.15)" id="text_14"><defs><path d="M19.188 8.297h34.421V0H7.33v8.297q5.609 5.812 15.296 15.594 9.703 9.797 12.188 12.64 4.734 5.313 6.609 9 1.89 3.688 1.89 7.25 0 5.813-4.078 9.469-4.078 3.672-10.625 3.672-4.64 0-9.797-1.61-5.14-1.609-11-4.89v9.969Q13.767 71.78 18.938 73q5.188 1.219 9.485 1.219 11.328 0 18.062-5.672 6.735-5.656 6.735-15.125 0-4.5-1.688-8.531-1.672-4.016-6.125-9.485-1.218-1.422-7.765-8.187-6.532-6.766-18.453-18.922z" id="DejaVuSans-50"/></defs><use xlink:href="#DejaVuSans-50"/><use x="63.623" xlink:href="#DejaVuSans-48"/></g></g><g id="ytick_6"><g style="fill:#696969" transform="matrix(.16 0 0 -.16 87.14 214.6)" id="text_15"><use xlink:href="#DejaVuSans-50"/><use x="63.623" xlink:href="#DejaVuSans-53"/></g></g><g id="ytick_7"><g style="fill:#696969" transform="matrix(.16 0 0 -.16 87.14 147.05)" id="text_16"><defs><path d="M40.578 39.313Q47.656 37.797 51.625 33q3.984-4.781 3.984-11.813 0-10.78-7.422-16.703-7.421-5.906-21.093-5.906-4.578 0-9.438.906-4.86.907-10.031 2.72v9.515q4.094-2.39 8.969-3.61 4.89-1.218 10.218-1.218 9.266 0 14.125 3.656 4.86 3.656 4.86 10.64 0 6.454-4.516 10.079-4.515 3.64-12.562 3.64h-8.5v8.11h8.89q7.266 0 11.125 2.906 3.86 2.906 3.86 8.375 0 5.61-3.985 8.61-3.968 3.015-11.39 3.015-4.063 0-8.703-.89-4.641-.876-10.203-2.72v8.782q5.624 1.562 10.53 2.344 4.907.78 9.25.78 11.235 0 17.766-5.109 6.547-5.093 6.547-13.78 0-6.063-3.468-10.235-3.47-4.172-9.86-5.782z" id="DejaVuSans-51"/></defs><use xlink:href="#DejaVuSans-51"/><use x="63.623" xlink:href="#DejaVuSans-48"/></g></g><g style="fill:#696969" transform="matrix(0 -.2 -.2 0 78.98 379.813)" id="text_17"><defs><path d="M51.125 44H36.922l-4.11-16.313h14.313zm-7.328 27.781-5.078-20.265h14.265L58.11 71.78h7.813L60.89 51.516h15.234V44h-17.14l-4-16.313h15.53V20.22H53.079L48 0h-7.813l5.032 20.219H30.906L25.875 0h-7.86l5.079 20.219H7.719v7.468h17.187L29 44H13.281v7.516h17.625l4.985 20.265z" id="DejaVuSans-35"/><path d="M37.11 75.984V68.5h-8.594q-4.828 0-6.72-1.953-1.874-1.953-1.874-7.031v-4.828h14.797v-6.985H19.922V0H10.89v47.703H2.297v6.984h8.594V58.5q0 9.125 4.25 13.297 4.25 4.187 13.468 4.187z" id="DejaVuSans-102"/><path d="M48.781 52.594v-8.407q-3.812 2.11-7.64 3.157-3.828 1.047-7.735 1.047-8.75 0-13.593-5.547-4.829-5.532-4.829-15.547 0-10.016 4.829-15.563 4.843-5.53 13.593-5.53 3.907 0 7.735 1.046 3.828 1.047 7.64 3.156V2.094Q45.016.344 40.984-.531q-4.015-.89-8.562-.89-12.36 0-19.64 7.765-7.266 7.765-7.266 20.953 0 13.375 7.343 21.031Q20.22 56 33.016 56q4.14 0 8.093-.86 3.953-.843 7.672-2.546z" id="DejaVuSans-99"/><path d="M44.281 53.078v-8.5q-3.797 1.953-7.906 2.922-4.094.984-8.5.984-6.688 0-10.031-2.047-3.344-2.046-3.344-6.156 0-3.125 2.39-4.906 2.391-1.781 9.626-3.39l3.078-.688q9.562-2.047 13.593-5.781 4.032-3.735 4.032-10.422 0-7.625-6.032-12.078-6.03-4.438-16.578-4.438-4.39 0-9.156.86Q10.688.296 5.422 2v9.281q4.984-2.594 9.812-3.89 4.829-1.282 9.579-1.282 6.343 0 9.75 2.172 3.421 2.172 3.421 6.125 0 3.656-2.468 5.61-2.453 1.953-10.813 3.765l-3.125.735q-8.344 1.75-12.062 5.39-3.704 3.64-3.704 9.985 0 7.718 5.47 11.906Q16.75 56 26.811 56q4.97 0 9.36-.734 4.406-.72 8.11-2.188z" id="DejaVuSans-115"/></defs><use xlink:href="#DejaVuSans-35"/><use x="83.789" xlink:href="#DejaVuSans-32"/><use x="115.576" xlink:href="#DejaVuSans-111"/><use x="176.758" xlink:href="#DejaVuSans-102"/><use x="211.963" xlink:href="#DejaVuSans-32"/><use x="243.75" xlink:href="#DejaVuSans-99"/><use x="298.73" xlink:href="#DejaVuSans-97"/><use x="360.01" xlink:href="#DejaVuSans-115"/><use x="412.109" xlink:href="#DejaVuSans-101"/><use x="473.633" xlink:href="#DejaVuSans-115"/></g></g><g style="fill:#696969" transform="matrix(.24 0 0 -.24 308.75 71.76)" id="text_18"><defs><path d="M44.39 34.188q3.172-1.079 6.172-4.594 3-3.516 6.032-9.672L66.609 0H56l-9.313 18.703q-3.624 7.328-7.015 9.719-3.39 2.39-9.25 2.39h-10.75V0h-9.86v72.906h22.266q12.5 0 18.656-5.234 6.157-5.219 6.157-15.766 0-6.89-3.203-11.437-3.204-4.532-9.297-6.282zM19.673 64.797V38.922h12.406q7.125 0 10.766 3.297 3.64 3.297 3.64 9.687 0 6.39-3.64 9.64-3.64 3.25-10.766 3.25z" id="DejaVuSans-82"/><path d="M18.313 70.219V54.688h18.5v-6.985h-18.5V18.016q0-6.688 1.828-8.594 1.828-1.906 7.453-1.906h9.218V0h-9.218q-10.407 0-14.36 3.875-3.953 3.89-3.953 14.14v29.688H2.687v6.984h6.594V70.22z" id="DejaVuSans-116"/><path d="M54.89 33.016V0h-8.984v32.719q0 7.765-3.031 11.61-3.031 3.858-9.078 3.858-7.281 0-11.484-4.64-4.204-4.625-4.204-12.64V0H9.08v75.984h9.03V46.188q3.235 4.937 7.594 7.374Q30.078 56 35.797 56q9.422 0 14.25-5.828 4.844-5.828 4.844-17.156z" id="DejaVuSans-104"/><path d="M45.406 46.39v29.594h8.985V0h-8.985v8.203Q42.578 3.328 38.25.953q-4.313-2.375-10.375-2.375-9.906 0-16.14 7.906-6.22 7.922-6.22 20.813 0 12.89 6.22 20.797Q17.968 56 27.874 56q6.063 0 10.375-2.375 4.328-2.36 7.156-7.234zm-30.61-19.093q0-9.906 4.079-15.547 4.078-5.64 11.203-5.64 7.125 0 11.219 5.64 4.11 5.64 4.11 15.547 0 9.906-4.11 15.547-4.094 5.64-11.219 5.64-7.125 0-11.203-5.64-4.078-5.64-4.078-15.547z" id="DejaVuSans-100"/><path d="M4.203 54.688h8.985l11.234-42.672 11.172 42.672h10.593l11.235-42.672 11.187 42.672h8.985L63.28 0H52.688L40.922 44.828 29.109 0H18.5z" id="DejaVuSans-119"/><path d="M64.406 67.281v-10.39q-4.984 4.64-10.625 6.922-5.64 2.296-11.984 2.296-12.5 0-19.14-7.64-6.641-7.64-6.641-22.094 0-14.406 6.64-22.047 6.64-7.64 19.14-7.64 6.345 0 11.985 2.296 5.64 2.297 10.625 6.938V5.609Q59.234 2.094 53.437.33q-5.78-1.75-12.218-1.75-16.563 0-26.094 10.124-9.516 10.14-9.516 27.672 0 17.578 9.516 27.703 9.531 10.14 26.094 10.14 6.531 0 12.312-1.734 5.797-1.734 10.875-5.203z" id="DejaVuSans-67"/><path d="M9.422 54.688h8.984V0H9.422zm0 21.296h8.984v-11.39H9.422z" id="DejaVuSans-105"/></defs><use xlink:href="#DejaVuSans-82"/><use x="64.982" xlink:href="#DejaVuSans-117"/><use x="128.361" xlink:href="#DejaVuSans-116"/><use x="167.57" xlink:href="#DejaVuSans-104"/><use x="230.949" xlink:href="#DejaVuSans-101"/><use x="292.473" xlink:href="#DejaVuSans-114"/><use x="333.586" xlink:href="#DejaVuSans-102"/><use x="368.791" xlink:href="#DejaVuSans-111"/><use x="429.973" xlink:href="#DejaVuSans-114"/><use x="469.336" xlink:href="#DejaVuSans-100"/><use x="532.813" xlink:href="#DejaVuSans-32"/><use x="564.6" xlink:href="#DejaVuSans-78"/><use x="639.404" xlink:href="#DejaVuSans-101"/><use x="700.928" xlink:href="#DejaVuSans-119"/><use x="782.715" xlink:href="#DejaVuSans-32"/><use x="814.502" xlink:href="#DejaVuSans-67"/><use x="884.326" xlink:href="#DejaVuSans-111"/><use x="945.508" xlink:href="#DejaVuSans-118"/><use x="1004.688" xlink:href="#DejaVuSans-105"/><use x="1032.471" xlink:href="#DejaVuSans-100"/><use x="1095.947" xlink:href="#DejaVuSans-32"/><use x="1127.734" xlink:href="#DejaVuSans-67"/><use x="1197.559" xlink:href="#DejaVuSans-97"/><use x="1258.838" xlink:href="#DejaVuSans-115"/><use x="1310.938" xlink:href="#DejaVuSans-101"/><use x="1372.461" xlink:href="#DejaVuSans-115"/></g><g id="legend_1"><path d="M128.2 161.015h153.765q3.2 0 3.2-3.2V88.96q0-3.2-3.2-3.2H128.2q-3.2 0-3.2 3.2v68.855q0 3.2 3.2 3.2z" style="fill:none;opacity:.8;stroke:#ccc;stroke-linejoin:miter" id="patch_5"/><path d="M131.4 98.718h32" style="fill:none;stroke:#000;stroke-linecap:round;stroke-width:1.5" id="line2d_3"/><g style="fill:#696969" transform="matrix(.16 0 0 -.16 176.2 104.317)" id="text_19"><defs><path d="M8.203 72.906h46.875v-4.203L28.61 0H18.312L43.22 64.594H8.203z" id="DejaVuSans-55"/><path d="M45.406 27.984q0 9.766-4.031 15.125-4.016 5.375-11.297 5.375-7.219 0-11.25-5.375-4.031-5.359-4.031-15.125 0-9.718 4.031-15.093t11.25-5.375q7.281 0 11.297 5.375 4.031 5.375 4.031 15.093zm8.985-21.203q0-13.953-6.203-20.765Q42-20.797 29.203-20.797q-4.734 0-8.937.703-4.203.703-8.157 2.172v8.735q3.954-2.141 7.813-3.157 3.86-1.031 7.86-1.031 8.843 0 13.234 4.61 4.39 4.609 4.39 13.937v4.453q-2.781-4.844-7.125-7.234Q33.938 0 27.875 0 17.828 0 11.672 7.656q-6.156 7.672-6.156 20.328 0 12.688 6.156 20.344Q17.828 56 27.875 56q6.063 0 10.406-2.39 4.344-2.391 7.125-7.22v8.297h8.985z" id="DejaVuSans-103"/></defs><use xlink:href="#DejaVuSans-55"/><use x="63.623" xlink:href="#DejaVuSans-100"/><use x="127.1" xlink:href="#DejaVuSans-32"/><use x="158.887" xlink:href="#DejaVuSans-97"/><use x="220.166" xlink:href="#DejaVuSans-118"/><use x="279.346" xlink:href="#DejaVuSans-103"/><use x="342.822" xlink:href="#DejaVuSans-32"/><use x="374.609" xlink:href="#DejaVuSans-102"/><use x="409.814" xlink:href="#DejaVuSans-105"/><use x="437.598" xlink:href="#DejaVuSans-116"/><use x="476.807" xlink:href="#DejaVuSans-116"/><use x="516.016" xlink:href="#DejaVuSans-101"/><use x="577.539" xlink:href="#DejaVuSans-100"/></g><use style="fill-opacity:0;stroke:#4c72b0" x="147.4" xlink:href="#ma4ec4e8458" y="122.203" id="line2d_6"/><g style="fill:#696969" transform="matrix(.16 0 0 -.16 176.2 127.802)" id="text_20"><defs><path d="M19.672 64.797V8.109h11.922q15.093 0 22.093 6.829 7 6.843 7 21.593 0 14.64-7 21.453-7 6.813-22.093 6.813zm-9.86 8.11h20.266q21.188 0 31.094-8.813 9.922-8.813 9.922-27.563 0-18.86-9.969-27.703Q51.172 0 30.078 0H9.813z" id="DejaVuSans-68"/></defs><use xlink:href="#DejaVuSans-68"/><use x="77.002" xlink:href="#DejaVuSans-97"/><use x="138.281" xlink:href="#DejaVuSans-105"/><use x="166.064" xlink:href="#DejaVuSans-108"/><use x="193.848" xlink:href="#DejaVuSans-121"/><use x="253.027" xlink:href="#DejaVuSans-32"/><use x="284.814" xlink:href="#DejaVuSans-67"/><use x="354.639" xlink:href="#DejaVuSans-97"/><use x="415.918" xlink:href="#DejaVuSans-115"/><use x="468.018" xlink:href="#DejaVuSans-101"/><use x="529.541" xlink:href="#DejaVuSans-115"/></g><path d="M131.4 151.287h32v-11.2h-32z" style="fill:#089fff;opacity:.2;stroke:#fff;stroke-linejoin:miter" id="patch_6"/><g style="fill:#696969" transform="matrix(.16 0 0 -.16 176.2 151.287)" id="text_21"><defs><path d="M8.688 72.906h9.921V28.61q0-11.718 4.235-16.875 4.25-5.14 13.781-5.14 9.469 0 13.719 5.14 4.25 5.157 4.25 16.875v44.297H64.5V27.391q0-14.25-7.063-21.532-7.046-7.28-20.812-7.28-13.828 0-20.89 7.28-7.047 7.282-7.047 21.532z" id="DejaVuSans-85"/></defs><use xlink:href="#DejaVuSans-85"/><use x="73.193" xlink:href="#DejaVuSans-110"/><use x="136.572" xlink:href="#DejaVuSans-99"/><use x="191.553" xlink:href="#DejaVuSans-101"/><use x="253.076" xlink:href="#DejaVuSans-114"/><use x="294.189" xlink:href="#DejaVuSans-116"/><use x="333.398" xlink:href="#DejaVuSans-97"/><use x="394.678" xlink:href="#DejaVuSans-105"/><use x="422.461" xlink:href="#DejaVuSans-110"/><use x="485.84" xlink:href="#DejaVuSans-116"/><use x="525.049" xlink:href="#DejaVuSans-121"/></g></g></g></g><defs><clipPath id="p24631ef3a5"><path d="M117 77.76h725.4v498.96H117z"/></clipPath></defs></svg>