<svg height="864" viewBox="0 0 936 648" width="1248" xmlns="http://www.w3.org/2000/svg" xmlns:xlink="http://www.w3.org/1999/xlink"><defs><style>*{stroke-linecap:butt;stroke-linejoin:round}</style></defs><g id="figure_1"><path d="M0 648h936V0H0z" style="fill:#fff" id="patch_1"/><g id="axes_1"><path d="M117 576.72h725.4V77.76H117z" style="fill:none" id="patch_2"/><path clip-path="url(#pfb6e90501b)" d="m149.973 554.04 43.735-.08 4.287-.19 1.716-.323 1.715-.604 1.715-.96.857-.5 2.573-2.04.857-.804 1.716-1.163 1.715-1.458 1.715-1.533.857-.777.858-.392.857-.523 2.573-.868.858-.064.857.187.858-.085 1.715.487 2.572.378 1.716.284.857-.09 1.715.131.858-.12 1.715-.621.857-.078.858.232 1.715.174 3.43.648 3.43.338 1.715.605 1.716.562 1.715.264 3.43.3.857-.232.858.073.858-.106 5.145.49 1.715.417 2.573-.137 1.715-.26.857-.069.858.05.857-.23 1.715.16 1.715.314 1.716-.246.857.178.858-.156 1.715-.134.857-.337.858-.155 1.715-.564 1.715-.771 2.573-1.763 3.43-2.833.857-.5 3.43-2.894.858-.426.858-.291 2.572-1.272.858-.24 2.573-1.927.857-.788.858-.637.857-.492.858-.874 2.572-.492 1.715.11.858-.076.858.314 1.715-.383.857.445 1.715.16 2.573.467.858.55.857.19 3.43 2.53.858.44 3.43.243.858-.03 2.572.532.858.351 4.287 2.74.858.316.858.542.857-.16.858.225.857-.128.858.023.857.137 2.573.179.858-.27.857.713.858-.043.857-.307 1.715.32.858.627.857.836.858-.05.857.462 1.716.425.857-.185 1.715-1.217 1.715-.73 1.715-.223.858-.166.857-1 .858.101.858-.126.857.006.858-.315 1.715-.1.857.972.858-.349 2.573-.04.857-.28.858.123.857-1.386.858.046 1.715-1.157 1.715-.512.857-.538.858.797.858-.638 1.715-.875.857-.636 1.715-.233.858-.964 2.572-1.127.858-.82.858-1.428.857-.655.858-.509.857-.763 1.715-1.836.858-.806.857-.311.858-.801 1.715-2.07.858-1.448 1.715-3.52.857-2.31.858-1.616.857-2.016.858-2.618.857-1.926.858-2.34.858-2.692 2.572-5.587.858-1.21.857-1.627.858-1.32.857-.96.858-.715.857-.31.858-.722.858-.898.857-.46.858 4.676.857-.386.858 1.135.857.259.858.662.857-.353.858-1.139.857-6.347.858-1.413.858-3.004 2.572-5.983.858-1.026.857-.414.858-2.719.857-.1.858-.681.858.201.857.916.858-1.389.857-.69.858 1.622.857.754.858.238.857-.035.858.084.857.944.858 2.445.858 8.313.857-1.27.858 1.539.857.692 1.715-.032.858-2.075.857-2.563.858-4.135.857-2.75.858-3.474.858-1.88.857-1.495.858-2.728.857-8.494.858 2.196.857-.36.858 1.411.857.279.858 1.474.858 2.257.857 3.37.858 2.752.857 2.113.858 4.713 1.715 4.806 1.715 5.384.857 1.896.858 2.236.858-.854.857 2.008.858 1.644 1.715 2.836.857 1.888 1.715 1.693 1.715 3.926 1.716 4.185 1.715 3.063.857 2.704.858 1.043.857 1.395.858 1.106.857 1.653 1.716 2.423.857 2.086.858 1.762.857 1.373.858 1.872.857 1.196.858.826.857.476.858-.232.857-.408 2.573-.577.858.39 1.715.39.857.79.858.419 1.715 1.284.857.337.858.6.858-2.092.857.096.858.466.857.27.858.085.857.39.858.114.857 2.066.858.076.858-.04 1.715.301.857-.27 1.715.346.858-.122.857-1.16.858-.479.857-.767.858-.348.858-.57.857-.887.858-.304.857.662.858-.446.857.327.858-.19.857.425.858-.324.857.015 1.716-.466.857-.719.858-.034.857-.617.858.257.857-.849.858-.147.857.374.858.179.858.602.857.364.858.092.857.902.858.733.857.413.858.806.857.188.858.432.857 1.268 2.573 1.41 2.573.826.857-.144 4.288 2.934.858.404.857.74.858.383 1.715 1.023 1.715.615 1.715.718 1.715.712.858.488 1.715 1.256 1.715.34 1.715.576.857.104 2.573 1.131.858 1.114.857.014 1.715.82.858 2.546 1.715.132.857-.771.858.464.858-.211.857.203.858-2.258.857.12.858-.035 4.287 1.141.858.039.858.15 3.43-.206.857-.126 2.573.06 1.715-.273.858-2.78.857-.303 1.715.219.858.606.857-.628.858-.788.857.87.858-.824 1.715-.353.858-1.704.857-.88.858-.433.857.731.858-.934 1.715-.452.857-1.317 1.716-2.26 1.715-3.338.857-.506.858-.265.857-1.876.858-2.473.857-1.393.858-1.814.858-2.191 1.715-.95 1.715-4.79 1.715-3.101.857-2.527 1.715-1.416.858-2.352.858-.652.857-2.392.858-.65.857-1.053 1.715-.854.858-4.47.857.984.858-.5.857-1.164.858-.676.858-1.636.857.18 2.573-1.045.857-1.55.858.205.857-.325.858-.087.858-.789.857-.556.858-2.216.857.667.858.246.857 1.062.858-.125.857 11.254.858-7.794.857 1.483.858.283.858.84.857-.436.858.268.857-11.511.858 8.212 1.715 1.642.857.519.858.318.857-.022.858 4.254 1.715 2.512 1.715 2.985.858.918.857.316.858.74 2.572 2.615.858.788 1.715.872.858 1.222.857.815.858.142 2.572 1.69.858.155.858 2.711.857-.717 1.715 1.982.858.795.857.21 1.715.14.858 1.543.857 1.103.858.388.858.623 1.715.485.857.912.858-.207.857-.439.858-.234 2.572-.155.858-1.051 1.715 1.116.858.171 4.287-.924.858-.786.858 1.023.857-2.08.858-1.63.857-.084.858-1.226.857-.415.858-.846.857-2.527.858.537.857 1.125.858-.43.858-.568.857-.126.858-.307.857 4.394.858 3.769.857.906.858.41.857-3.175 1.715-1.99 1.716-11.593.857-1.852.858-.587.857 1.043.858-.26.857-.538.858.841.857-.654.858.377.858-.1.857-.3.858-.158.857.208.858-1.262.857-.336.858-1.29.857-1.999.858-5.533.857-4.017.858-5.445.858-6.577.857-.707.858.902.857-6.485.858-13.313.857-10.58.858-13.575.857-17.694.858-14.53 1.715-11.044 1.715-54.248.858-11.895.857-9.635.858-25.094.857-15.777.858-1.588.857-22.96.858 6.416.858-9.749.857-6.096.858-1.834.857 1.273.858-1.243.857 39.938.858-22.598.857 1.567 1.715 12.675.858 4.75.858 7.652.857-17.71.858 36.928.857 9.173.858 12.088.857 14.923 1.715 10.55.858 20.478.857 11.874.858 19.976 1.715 25.5.858 6.556.857 2.522.858 17.364 1.715 11.092 1.715 15.55.858 3.298.857 1.333.858 7.844 2.572 12.937.858 3.331.857.982.858.455.857 8.335.858-.424.858 3.137.857 1.685 1.715 2.47.858.944h0" style="fill:none;stroke:#000;stroke-linecap:round;stroke-width:1.5" id="line2d_1"/><path clip-path="url(#pfb6e90501b)" d="m149.973 554.04 44.592-.094 2.573-.243.857-.18.858-.309.858-.617.857-.286.858-.849.857-1.134 1.715-3.253.858-1.16.857-4.429 2.573-10.897.858-4.743.857-2.512.858-5.79.857-1.76.858-4.816.857-3.945.858-2.288.857-.684.858-2.588.857 1.1.858-.522 1.715 2.883.858-.65.857 1.74.858-1.87.857 1.667.858-1.425.857.84.858 1.247.858-.372.857-1.576.858 1.347.857-2.6.858.333.857 1.928.858-.765.857.748.858 2.77.857 1.867.858 2.187.858 3.549.857-.677.858 1.635.857.998.858 1.278.857.703.858 2.271 1.715 2.784.857 1.832.858 3.23.858.229.857 3.12.858.98 1.715 2.492.857.914.858.413.857-.597.858-.36.858-1.163.857.145.858-.094.857 1.634.858.398.857 1.568.858.617.857 1.068.858-.233.857.445.858-.775.858.436.857.95.858.092.857.697.858 1.483 1.715.879.857 1.157.858.286.857.67 1.716-.071.857.936.858.237.857-.01.858.227.857-.05.858.559.857.135.858-.084.858.21 2.572-.161.858.243.857-3.585 2.573.1.857.374 1.716-.366.857 3.532h1.715l.858-.122.857-.244.858.262.857.019.858.406.857.058.858-.082 1.715.03 1.715-.54.858.017.857.63.858.139.857.756.858.09 1.715.317.858-.039.857-.834.858-.511.857-1.096.858-.55.857-.388.858-.186.857.078.858-.475 1.715.67 1.715.639.858.186.857-.348.858.675 2.572-.033 1.716-.413.857-.576.858-.43.857.184.858.677.857-.11 1.715.496.858 1.137.857.572.858-.513.858-.276.857.178 1.715.23.858-.424.857-.14.858.369 1.715-.546 1.715-.204 1.715-.332 3.43.152 2.573-.188.858-.254 1.715.025.857-.325.858-.125.857-.296 1.715-.052.858-.318.857-.119 2.573-.006.858-.125 1.715-1.091.857-.342.858-.061.857-.613.858-.103 1.715-.795 1.715.246.858-.354.857.407.858-1.399.857-.255.858.17.857-.256.858.086 1.715-1.613.858.668.857.113.858-.143.857-1.071.858-1.478h.857l.858-.186 1.715-.871.858-1.993.857.298.858-.049 1.715-2.655.857-.794.858-1.903.857 1.116.858-1.255 1.715-.672.858-1.58.857-.843.858-.378.857-3.76.858-.551.857-1.41.858-3.993.857-1.271.858-3.128 1.715-4.88.858-5.161.857-.33.858-.508.857-2.022.858-1.41.857-.469.858-.646.857 1.165.858-2.784.858-.509.857-.01.858-.595.857-.959.858 1.773.857.263.858.8.857-.677.858-.499.857-.654 1.716-6.317.857-4.478.858-.763.857-1.778.858-.327.857-.669.858 4.115.857-1.872.858 3.835.858-2.525.857 3.087.858-2.531.857 1.768.858-.503.857 4.189.858-2.087.857 3.326.858-1.302.857 1.823.858-.918.858-2.38.857.393.858 5.836.857.873.858 1.934.857.186 1.715-1.703 1.715-5.85.858-98.834.858-5.33.857-2.318.858-4.871.857-3.107 1.715-7.924.858 93.534.857 3.43.858-4.142.858.791.857 1.341.858 2.887.857 1.042.858 3.034.857-.084.858 4.986 1.715 8.604.857-2.349.858-.278.858-.592.857-.305.858 1.286.857.617.858-3.65.857 3.83.858 2.012.857 1.283.858 3.324.857 5.109.858 2.978.858 3.594.857 1.562.858-.09.857 1.95.858-.873.857-4.209.858-.75.857 1.014.858 1.539.858 4.424.857 2.281.858-.114.857.533.858.777.857 1.402.858 1.797.857.28.858-2.574.857.971.858 2.026.858-.61.857-1.683.858-2.57.857-.734.858-.895.857-.268.858-1.171.857.78.858.35.857.844.858-.265.858 1.707.857-1.711.858-.172.857-1.27.858-1.058.857-.297.858-1.615.857-1.053.858.836.858-1.097.857-1.345.858-.36.857-2.13.858.147.857-.673.858-2.22.857.442.858 1.08.857-2.468.858.497.858-2.59.857-.961.858-.143.857.875.858-3.402.857 2.187.858.452 1.715 3.054.857 2.374.858-1.172.858 2.609.857.687.858 1.729 1.715 1.572.857-.495.858 1.386.857.847.858-.385.858-.66 1.715 1.085.857 2.28.858.18.857 1.406.858 3.162.857 2.329.858 2.974.857 22.87.858 1.462.858 2.789 1.715 4.013.857 2.44.858 1.014.857-20.417.858 2.29.857-.855 1.715 3.518 1.716 3.675.857 1.7.858.905.857 4.176.858 2.014.857 1.316.858.008.857.143.858-.4.857-.172.858.086.858-.272.857-.673.858.548.857-.065 1.715 1.026.858.1.857.342.858.789.858.251.857.112.858-.194.857.472 1.715.48.858-.054.857-.21 1.715.052.858-.075.858.182.857-.125.858.039.857.223 1.715-.043 1.715-.313.858.212 1.715.1 2.573.35 1.715-.039 1.715-.229 2.573-.008 2.572.34 3.43.44 2.573-.592 1.715-.597.858-.263.857-.428 2.573-.599.857-.486 1.715-.495 2.573-1.899.858-.848.857-.638 2.573-1.049.857-.509.858-.676.858-.43 2.572-2.064.858-1.061.857-.577.858-.795.857-.464.858-.73.857-.492.858.034.858-.646 2.572-2.743.858-2.095.857-.215.858-.905.857-.393.858.018.857-.343.858-2.24.858.83.857-.36.858-.654.857-.074.858-.891.857-.066.858.712.857.458.858-.818.858.237.857-.554.858-.348.857-.997.858 1.752.857-.642.858.278.857-.906.858 3.627.857-2.484.858.679.858-1.9.857-.502.858-.272.857.83.858-3.443.857 2.5.858-1.529.857.593.858-.263 1.715-.287 1.715-.415.858 1.444.857.282.858.795.857 1.633.858.949.857.566.858.724.857-.154.858 1.151.858.611.857-.703.858-.178.857.491.858.296.857.536.858-.4.857.218.858.043.858.597.857.012.858.217 2.572 2.635.858 1.098.857.382.858.826.857 1.308.858.348.858-.66.857.637.858.223.857-.36 1.715-.854.858-1.016.857.817.858-.184.857-.875.858.25.858.527.857-.018.858.942.857-.161.858-.354.857.59.858-.063.857-.509 1.716-1.347.857-.891.858-.48.857-1.585.858-1.042 1.715-1.196.857-1.329.858-.854.857-1.147.858.202.858-.37.857-1.842.858-.531.857-.773.858.194.857.428.858-.546 1.715-2.676.857-2.003.858-3.294 1.715-9.695.858-3.326 1.715-2.958 2.572-6.593.858-.372 2.573-2.214.857-1.494.858-3.283.857-3.954.858-6.23 1.715-14.962.857-8.375.858-14.14 1.715-45.879.858-24.197.857-13.93.858-5.39.857-13.778.858-29.778.857-34.86 1.715-56.61 1.716-49.683.857-29.396.858-22.102.857 5.95.858-9.683.857-.632.858-4.215.857-2.684.858 8.596.858 28.64.857 17.563 2.573 90.482 2.572 83.048 1.715 46.657.858 16.221.858 12.777.857 8.655.858 11.039.857 7.741.858 10.937.857 3.608.858 7.246.857 14.347.858 5.664.857 4.647 1.716 12.16.857 14.505.858 4.943.857.721.858 1.91 1.715 6.56.857 1.465.858.91.858 2.183.857 1.355.858.133.857.679.858-.337.857.92.858.553.857 1.219.858-.495 1.715 1.478.858 2.713 1.715 3.824 1.715.634h0" style="fill:none;stroke:#009e73;stroke-linecap:round;stroke-width:1.5" id="line2d_2"/><path clip-path="url(#pfb6e90501b)" d="m149.973 554.04 41.162-.097 3.43-.176.858-.272h.857l.858-.546.857-.409.858-.876.858-3.156.857-.798.858-.117.857-1.83.858-2.397 1.715-2.687.857-4.344.858-4.947.857-6.096.858-4.597.858-3.136.857-6.525.858-9.096.857-4.246.858-9.115.857-10.927.858-1.87.857-7.05.858-4.753.857 4.753.858 2.648.858 3.545.857 8.96.858.097 1.715 13.712 1.715-3.37 1.715 5.162.858-1.052.857-1.246.858-.214.857 1.791.858 3.857.857 2.727.858-1.461 1.715 9.388.857 3.857.858 2.629.858 3.876.857 1.83.858 4.5.857.312.858.818.857-.604.858 2.63.857 1.46.858 2.337.857.955.858 1.675.858-.039.857 2.24.858.02.857 3.096.858-.292.857.857.858.195 1.715.02.858 1.226.857-2.63.858.877.857.702.858-.41 1.715.04 1.715-2.61.857.097.858.526 1.715 2.766.858.603.857.332.858 2.006.857.194.858-.798.857.798.858.078.857-.078.858-.993.858-.39.857.604.858-.642.857.136.858-.078.857-.35.858 1.304.857.604.858.117.858.643 1.715.039.857.409.858-.02.857-6.077.858-1.538.857.35.858-1.266.857.117.858-.311.858.116.857 5.96.858.76.857-.37.858.312.857-.176.858.526.857-.662.858-.448.857.039.858.195.858.76 1.715.291.857.78.858.525.857.78.858.136.857.448.858-.662.857-.04.858-.506 1.715-.467.858-.331.857-.643h.858l.857-.838h.858l.857.254.858-.604 1.715.292.858.448.857.078.858.312.857-.176.858.682.857-.682.858-.311h.857l.858.35 1.715-.33.858-1.812.857-.098.858-.623.857-.993.858.253.857.623 1.715 3.584.858.545 1.715 2.357.858-.331.857-.76.858-1.246.857.02.858-.234.857-.526 1.716-.76.857.253.858-.292.857-.156.858.838.857.078.858.292.857.72.858-.058.857.214 3.43-.175.858.468.858-.04.857-.681.858-.02.857-.311.858.156h.857l.858-.974.858.117.857.564.858.098.857-.117.858-.39.857-.078.858.39.857-.195.858-.798 1.715-1.052.858.02.857-.137 1.715-.662 1.715-.623.858-.332.857-.467.858-.156.858-.954 1.715-.76.857-.039.858.117.857-.643.858-1.149.857.04.858-1.053.857-.039.858-.253.858-1.539 1.715-.662.857-.915.858.526.857-.604.858-2.357.857.35.858-.798 1.715-1.13.858-2.337.857.624.858-.078.857-3.915.858-.974.857.292.858-2.454.857-1.987.858-5.901.858-2.708.857-1.032.858-3.74.857-.974.858-1.753.857-2.084.858-.662.857.214.858-1.09.857-.04.858-4.05.858 1.07.857 1.734.858.507.857-4.032.858 4.538.857-1.87.858 2.065.857-2.338.858-1.285.857-1.636.858-1.305.858-5.882 1.715-1.734.857 1.578.858 2.376.857 1.48.858 6.408.857-.33.858 3.408.858-1.208.857.74.858-2.882.857 1.11.858-2.104.857 3.448h.858l.857 2.824h.858l.857-.701.858-1.811.858-.877.857 1.052.858 2.785.857-.078.858.487.857.955.858-1.48.857-.643.858-2.65.857-1.46.858-85.077.858-6.252.857-3.896.858-2.434.857-4.032.858-3 .857-4.48.858 82.857.857 5.512.858-2.551.858-1.695.857 1.87 1.715 1.87.858 1.714.857-2.61.858 3.35 1.715 9.037.857-2.24.858-.02.858-1.265.857.506.858 1.617.857-.059.858-2.162.857 2.669.858 1.246.857-.194.858 3.019.857 5.22.858 2.025.858-.72.857.818.858-.215.857 1.91.858-.274.857-4.48.858.254.857 2.454.858 1.227.858 3.37.857 2.162.858-3.76.857 1.461.858.585 1.715 2.726.857.546.858-4.227.857 1.831.858-.097.858-2.22.857-4.208.858-1.616.857-.39.858-2.707.857.214.858-2.415.857 1.909.858 1.149.857 4.207.858-1.636.858 4.616.857-2.24.858 1.87.857-2.357.858.253.857-3.506.858-1.013.857-1.266.858.74.858-1.694.857.604.858-1.773.857-2.493.858.429 1.715-1.325.857.896.858 2.104.857-3.896.858-.915.858-3.39.857-.135.858-.468.857-2.318.858-3.31.857 4.206.858 1.091.857 3.253.858.565.857 3.486.858.838 2.573 7.498.857.896.858 1.831.857.506.858 3.058.857.877.858-.059.858.059.857 1.89.858 1.363.857 1.636.858.935.857 1.13.858 3.194.857 1.81.858 1.462.857 3.35.858 1.188.858 2.63 1.715 2.94.857 2.883.858 1.402.857-1.636.858 1.87.857-21.58.858-3.35.857 1.557.858.838.858.331.857.993.858.78.857 23.548.858 6.933.857.215.858-.02.857.234.858-.136.857.428.858.877.858.428.857.078.858 1.208.857.39.858.252.857-.253h.858l.857-.175.858.74.858.175 1.715.604.857.623 1.715.877.858.039.857-.429.858-.195 1.715-.058.858-.097.857-.254.858-.097.857.41 1.715-.118.858-.35.857-.04 5.146.858.857-.312.858-.487.857.04 1.715-.332 2.573-.156.858.234 1.715-.04.857.332.858.078 1.715.799 2.573.194.857-.506.858-.098 1.715-1.07.857-.312 1.715-1.11h.858l.857-.312 1.716-.214.857-.819.858-.973 3.43-2.766.857-.955.858-.662.858-.234.857-.545.858-.76.857-.253.858-.974 1.715-.077.857-.468.858.078.857.253.858.448 2.573-3.584.857-.097.858-2.123.857 1.617.858-.643.857-.214.858-.507.857.877.858-2.65.858.819.857-2.571.858-.662.857.798 1.715-1.013.858 1.13 1.715-.954.858.097.857-.253.858.467.857-.272.858 1.714.857.116.858.293.857-.682.858 2.649.857-2.006.858-.156.858-1.967 1.715-.254.857.994.858-3.253.857 1.948.858-.273.857 1.013.858.039 1.715-.565.858 1.285.857-.506.858.312.857-1.072 1.715.819.858-.059.857.078.858.448.857-.175.858 1.188.858.35.857 1.013.858.487.857.059.858.35.857 1.032.858.838.857.487.858-.604.858.877.857.175 1.715.701.858.195.857-.39.858 1.286.857-.448 1.715 2.532.858.993.858-.35.857 1.519.858-.04.857-.583.858-1.52.857-.506.858-1.169.857-.097.858-.526.857-.195.858.74.858 1.091.857-.273.858.994.857.662.858.234 1.715.156.857-.429.858.506.858-.779 1.715-.818.857-1.772.858-.799.857-1.246.858-1.987.857-.915 1.715-2.65 1.716.02.857-1.227.858.623.857-.74.858.215.857.448h.858l1.715-1.85 1.715-4.247 1.715-5.512.858-1.52 1.715-4.09.857-1.012.858-3.02.857-2.103.858-1.013.858-2.181.857-.429.858.546.857-4.577.858-3.487.857-5.59 1.715-16.01.858-6.252.857-10.654.858-15.621.858-23.88 1.715-58.704.857-15.211.858-11.278.857-19.497.858-38.175.857-44.058 1.715-49.589.858-12.972.858-17.977.857-27.775.858-11.355.857 18.62.858-8.297.857 1.714.858-7.557.857-8.785.858 14.628.858 27.502.857 20.315 1.715 67.196.858 21.386.857 29.489 1.715 51.225.858 14.433.857 20.704.858 15.562 1.715 20.237.858 14.823.857 8.881.858 18.679.857 8.94.858 6.622.857 15.524.858 5.336.857 2.24.858 5.2.858 1.754.857 10.167.858 5.512.857-1.071.858 3.233.857 4.616.858 3.506.857-.74.858.526.858 2.025.857 1.227.858-1.032.857.468.858.779.857 3.194.858-.37.857.253.858-.428.857.74.858 1.577.858 1.91.857 1.05.858 1.89.857-.487.858.526h0" style="fill:none;stroke:#d55e00;stroke-linecap:round;stroke-width:1.5" id="line2d_3"/><path clip-path="url(#pfb6e90501b)" d="M149.973 554.04h48.88l.858-1.984h1.715l.857-.992h.858l1.715-5.952.857-3.968.858-.992.857-2.976.858-.992 1.715-9.92.858-3.968.857 3.968.858-4.96.857-12.896.858-8.929.857 1.984.858 2.977.857 3.968.858-7.937.858-.992.857 13.889.858 10.912.857-2.976.858.992.857-.992.858 4.96.857 1.984.858-.992h.858l1.715 1.984.857-.992h.858l.857-1.984.858.992h1.715l1.715 5.952.858 1.984.857 3.968.858-.992h.857l.858 4.96h.857l.858 1.984.857 2.976.858 1.984.857 2.976h.858l1.715-7.936 1.715-1.984h2.573l.857 3.968.858 2.976 2.573 2.976h5.145l.857-1.984h1.716l.857-2.976h2.573l.857 1.984h1.715l.858 2.976h.857l.858-.992h.858l.857-.992h3.43l.858.992h.857l.858.992h1.715l.858-1.984.857.992 2.573-2.976h1.715l.857-1.984h1.716l1.715 1.984h1.715l.857-1.984.858-.992.857.992.858-.992.857-1.984h1.716l.857 3.968h1.715l.858.992.857 1.984h1.715l.858 1.984.857-1.984 1.716-1.984h2.572l.858-.992.857 2.976.858.992h5.145l.858-.992.857.992h2.573l.857.992h2.573l.858-.992h1.715l.857-.992h.858l.857.992.858-.992h2.573l.857.992.858-1.984.857-.992h.858l.857.992h1.715l.858-.992.858 1.984.857-2.976.858.992h2.572l.858.992.857-2.976.858 3.968h3.43l.858-.992.857 2.976.858-1.984.857-.992h2.573l.857-1.984h.858l1.715 1.984h2.573l.857 2.976h.858l.857.992h3.43l.858-1.984.858-.992.857-4.96.858-8.928.857-1.984h2.573l.858-4.96 1.715 7.936 2.572-8.928h.858l.857 5.952.858-2.976 1.715 9.92 1.715 5.952 1.715-7.936.858-.992 1.715-9.92h1.715l.858-5.952.857 2.976.858-1.984.857 1.984h2.573l.857-6.944.858-2.976.857 6.944.858-13.888.858-1.984h1.715l.857 2.976.858-7.937.857-11.904.858 8.928.857-6.944.858-4.96h.857l.858 1.984.858 3.968.857 5.952.858 7.937.857 13.888.858-14.88h1.715l.857.992.858-4.96.857-15.873.858-23.808.858 8.928h.857l.858 2.976.857-4.96.858 5.952.857-1.984.858 14.88.857 10.912h.858l.858-2.976.857 2.976.858-1.984.857 17.857.858-7.936h1.715l.857-12.897.858 1.984.857-19.84.858-4.96.858 16.864h1.715l.857-2.976.858 1.984.857 7.936.858-5.952h2.572l.858-2.976.858-12.896.857 4.96.858-3.968.857-11.904.858-9.92h.857l.858 10.912.857 6.944.858-.992.858 4.96.857 1.984.858 9.92h.857l.858 21.825.857-9.92.858 4.96.857 5.952.858 6.944h1.715l.858-30.753.857 16.864.858 3.969.857-1.984.858-12.897.857-4.96h.858l.857 30.753.858 3.968.857-19.84.858-1.985.858 8.929.857 4.96h.858l.857-15.873.858-6.944.857 20.833 1.715 3.968.858-6.944h.858l.857 15.872.858-6.944h.857l.858 2.976h.857l.858 6.944.857-6.944.858-3.968.857 7.936.858.992.858-9.92.857-3.968h.858l.857 6.944.858-11.904.857-3.969.858-1.984.857 9.92.858-4.96h1.715l.858 1.985.857 5.952.858-1.984.857-10.913.858 8.929h1.715l.857-8.929.858-2.976h.858l.857 10.913h2.573l.857-.992 1.715 1.984.858-4.96.857-1.985h.858l.858-8.928.857 12.897.858-1.984.857 3.968.858-9.92.857-1.985h.858l.857 8.929.858-5.953h.857l1.716-4.96v8.928l.857 3.969.858-.992h.857l.858 6.944 1.715 5.952.857-2.976h.858l.858-3.968h.857l.858 6.944.857 3.968.858-.992.857 4.96h.858l.857 4.96h.858l.857-2.976.858-1.984 1.715 5.952.858-3.968.857-.992h.858l.857 3.968.858 1.984.857-2.976.858 1.984.857 6.944.858.992h.858l.857-1.984.858.992.857 4.96 1.715 3.968h1.715l.858 3.968h.857l.858.992.858-.992h4.287l1.715-1.984h5.146l.857 1.984h3.43l.858-2.976h5.145l.858 2.976.857.992h6.86l.858-3.968h4.288l.858-.992.857 3.968h5.145l.858-.992h3.43l1.715-1.984.858.992h3.43l.858.992h.857l.858-5.952h1.715l.857-20.832.858-1.984.857-.992.858-4.96.858.992h1.715l.857 13.888.858-.992h.857l.858 4.96.857 3.968h1.715l.858-2.976h.858l.857-4.96.858-3.968.857-.992h2.573l.857.992.858 4.96 1.715 3.968h1.715l.858 7.936.857-1.984 1.715-1.984h2.573l.858-4.96.857-2.976.858-4.96.857 2.976.858-4.96h1.715l.857 6.944.858-4.96.857.992.858 1.984h2.573l.857-8.928.858 8.928.857 1.984.858-7.936.857.992h1.715l.858-3.968.858 1.984.857-.992.858 2.976.857.992h1.715l.858 8.928.857-1.984 1.715 1.984.858-.992h2.573l.857.992.858-1.984.857 3.968.858-6.944h1.715l.858 3.968.857-3.968.858 3.968.857-1.984.858 8.928h1.715l.857-7.936.858 2.976.857.992.858-1.984h2.573l.857 5.952.858 1.984.857.992.858 1.984.857.992h1.715l.858-5.952.858-2.976h.857l.858 1.984.857-.992h1.715l.858 2.976.857 1.984.858-8.928h.858l.857-4.96h1.715l.858-.992.857-1.984.858 6.944.857-2.976.858 3.968h1.715l.858-8.928.857-.992.858-4.96 1.715 5.952h1.715l.857-4.96.858-1.984.857 4.96 1.716-16.864h1.715l.857 6.944.858-2.976.857-9.92.858-1.985.857-.992h1.716l.857-3.968.858-2.976.857-4.96.858-12.896.857 2.976.858-40.672.857-11.904h.858l.857-14.88.858-25.793.858-9.92.857-15.872.858 37.696.857 5.952.858-3.968.857-20.832 1.715-19.84.858-29.76.857-50.593.858-57.536.858-26.785.857 16.865.858-7.936.857-30.753.858-2.976.857-14.88.858 12.896.857 21.824.858-4.96.858 13.888 1.715 54.561.857 47.616.858 33.729.857-3.968.858 23.808 1.715 62.497.857 13.888.858-1.984.858 10.912.857 26.784.858 3.968.857 13.888.858-4.96.857 13.888.858 9.92.857 1.984.858-1.984.857 3.969.858-1.985.858 16.865.857-2.976.858 7.936.857-1.984.858.992h.857l.858 3.968.857-1.984.858.992.858 1.984.857 4.96.858 3.968.857 2.976.858-1.984.857-.992.858-1.984.857-.992h.858l.857-1.984h.858l.858-4.96.857 2.976.858 1.984.857-.992.858.992.857 1.984h0" style="fill:none;stroke:#0072b2;stroke-linecap:round;stroke-width:1.5" id="line2d_4"/><path d="M117 576.72V77.76" style="fill:none;stroke:#d3d3d3;stroke-linecap:square;stroke-linejoin:miter;stroke-width:1.25" id="patch_3"/><path d="M117 576.72h725.4" style="fill:none;stroke:#d3d3d3;stroke-linecap:square;stroke-linejoin:miter;stroke-width:1.25" id="patch_4"/><g id="matplotlib.axis_1"><g id="xtick_1"><g style="fill:#696969" transform="matrix(.16 0 0 -.16 120.49 598.378)" id="text_1"><defs><path d="M9.813 72.906h9.859V5.078q0-13.187-5-19.14-5-5.954-16.094-5.954h-3.75v8.297h3.078q6.531 0 9.219 3.672Q9.813-4.39 9.813 5.078z" id="DejaVuSans-74"/><path d="M34.281 27.484q-10.89 0-15.093-2.484-4.204-2.484-4.204-8.5 0-4.781 3.157-7.594 3.156-2.797 8.562-2.797 7.485 0 12 5.297 4.516 5.297 4.516 14.078v2zm17.922 3.72V0H43.22v8.297Q40.14 3.328 35.547.953q-4.594-2.375-11.234-2.375-8.391 0-13.36 4.719Q6 8.016 6 15.922q0 9.219 6.172 13.906 6.187 4.688 18.437 4.688h12.61v.89q0 6.203-4.078 9.594-4.078 3.39-11.453 3.39-4.688 0-9.141-1.124-4.438-1.125-8.531-3.375v8.312q4.921 1.906 9.562 2.844 4.64.953 9.031.953 11.875 0 17.735-6.156 5.86-6.14 5.86-18.64z" id="DejaVuSans-97"/><path d="M54.89 33.016V0h-8.984v32.719q0 7.765-3.031 11.61-3.031 3.858-9.078 3.858-7.281 0-11.484-4.64-4.204-4.625-4.204-12.64V0H9.08v54.688h9.03v-8.5q3.235 4.937 7.594 7.374Q30.078 56 35.797 56q9.422 0 14.25-5.828 4.844-5.828 4.844-17.156z" id="DejaVuSans-110"/></defs><use xlink:href="#DejaVuSans-74"/><use x="29.492" xlink:href="#DejaVuSans-97"/><use x="90.771" xlink:href="#DejaVuSans-110"/></g></g><g id="xtick_2"><g style="fill:#696969" transform="matrix(.16 0 0 -.16 197.019 598.378)" id="text_2"><defs><path d="M34.188 63.188 20.797 26.906h26.812zm-5.579 9.718h11.188L67.578 0h-10.25l-6.64 18.703h-32.86L11.188 0H.78z" id="DejaVuSans-65"/><path d="M18.11 8.203v-29H9.077v75.484h9.031v-8.296q2.844 4.875 7.157 7.234Q29.594 56 35.594 56q9.968 0 16.187-7.906 6.235-7.907 6.235-20.797T51.78 6.484q-6.218-7.906-16.187-7.906-6 0-10.328 2.375-4.313 2.375-7.157 7.25zm30.578 19.094q0 9.906-4.079 15.547-4.078 5.64-11.203 5.64-7.14 0-11.218-5.64-4.079-5.64-4.079-15.547 0-9.906 4.078-15.547 4.079-5.64 11.22-5.64 7.124 0 11.202 5.64t4.078 15.547z" id="DejaVuSans-112"/><path d="M41.11 46.297q-1.516.875-3.297 1.281Q36.03 48 33.89 48q-7.625 0-11.703-4.953-4.079-4.953-4.079-14.234V0H9.08v54.688h9.03v-8.5q2.844 4.984 7.375 7.39Q30.031 56 36.531 56q.922 0 2.047-.125 1.125-.11 2.484-.36z" id="DejaVuSans-114"/></defs><use xlink:href="#DejaVuSans-65"/><use x="68.408" xlink:href="#DejaVuSans-112"/><use x="131.885" xlink:href="#DejaVuSans-114"/></g></g><g id="xtick_3"><g style="fill:#696969" transform="matrix(.16 0 0 -.16 279.243 598.378)" id="text_3"><defs><path d="M8.5 21.578v33.11h8.984V21.922q0-7.766 3.016-11.656 3.031-3.875 9.094-3.875 7.265 0 11.484 4.64 4.234 4.64 4.234 12.656v31h8.985V0h-8.984v8.406Q42.047 3.422 37.718 1q-4.313-2.422-10.032-2.422-9.421 0-14.312 5.86Q8.5 10.296 8.5 21.578zM31.11 56z" id="DejaVuSans-117"/><path d="M9.422 75.984h8.984V0H9.422z" id="DejaVuSans-108"/></defs><use xlink:href="#DejaVuSans-74"/><use x="29.492" xlink:href="#DejaVuSans-117"/><use x="92.871" xlink:href="#DejaVuSans-108"/></g></g><g id="xtick_4"><g style="fill:#696969" transform="matrix(.16 0 0 -.16 353.957 598.378)" id="text_4"><defs><path d="M39.406 66.219q-10.75 0-17.078-8.016-6.312-8-6.312-21.828 0-13.766 6.312-21.781 6.328-8 17.078-8 10.735 0 17.016 8 6.281 8.015 6.281 21.781 0 13.828-6.281 21.828-6.281 8.016-17.016 8.016zm0 8q15.328 0 24.5-10.281 9.188-10.282 9.188-27.563 0-17.234-9.188-27.516-9.172-10.28-24.5-10.28-15.375 0-24.593 10.25-9.204 10.265-9.204 27.546t9.204 27.563q9.218 10.28 24.593 10.28z" id="DejaVuSans-79"/><path d="M48.781 52.594v-8.407q-3.812 2.11-7.64 3.157-3.828 1.047-7.735 1.047-8.75 0-13.593-5.547-4.829-5.532-4.829-15.547 0-10.016 4.829-15.563 4.843-5.53 13.593-5.53 3.907 0 7.735 1.046 3.828 1.047 7.64 3.156V2.094Q45.016.344 40.984-.531q-4.015-.89-8.562-.89-12.36 0-19.64 7.765-7.266 7.765-7.266 20.953 0 13.375 7.343 21.031Q20.22 56 33.016 56q4.14 0 8.093-.86 3.953-.843 7.672-2.546z" id="DejaVuSans-99"/><path d="M18.313 70.219V54.688h18.5v-6.985h-18.5V18.016q0-6.688 1.828-8.594 1.828-1.906 7.453-1.906h9.218V0h-9.218q-10.407 0-14.36 3.875-3.953 3.89-3.953 14.14v29.688H2.687v6.984h6.594V70.22z" id="DejaVuSans-116"/></defs><use xlink:href="#DejaVuSans-79"/><use x="78.711" xlink:href="#DejaVuSans-99"/><use x="133.691" xlink:href="#DejaVuSans-116"/></g></g><g id="xtick_5"><g style="fill:#696969" transform="matrix(.16 0 0 -.16 434.352 598.378)" id="text_5"><use xlink:href="#DejaVuSans-74"/><use x="29.492" xlink:href="#DejaVuSans-97"/><use x="90.771" xlink:href="#DejaVuSans-110"/></g></g><g id="xtick_6"><g style="fill:#696969" transform="matrix(.16 0 0 -.16 510.024 598.378)" id="text_6"><use xlink:href="#DejaVuSans-65"/><use x="68.408" xlink:href="#DejaVuSans-112"/><use x="131.885" xlink:href="#DejaVuSans-114"/></g></g><g id="xtick_7"><g style="fill:#696969" transform="matrix(.16 0 0 -.16 592.248 598.378)" id="text_7"><use xlink:href="#DejaVuSans-74"/><use x="29.492" xlink:href="#DejaVuSans-117"/><use x="92.871" xlink:href="#DejaVuSans-108"/></g></g><g id="xtick_8"><g style="fill:#696969" transform="matrix(.16 0 0 -.16 666.963 598.378)" id="text_8"><use xlink:href="#DejaVuSans-79"/><use x="78.711" xlink:href="#DejaVuSans-99"/><use x="133.691" xlink:href="#DejaVuSans-116"/></g></g><g id="xtick_9"><g style="fill:#696969" transform="matrix(.16 0 0 -.16 747.357 598.378)" id="text_9"><use xlink:href="#DejaVuSans-74"/><use x="29.492" xlink:href="#DejaVuSans-97"/><use x="90.771" xlink:href="#DejaVuSans-110"/></g></g><g id="xtick_10"><g style="fill:#696969" transform="matrix(.16 0 0 -.16 823.029 598.378)" id="text_10"><use xlink:href="#DejaVuSans-65"/><use x="68.408" xlink:href="#DejaVuSans-112"/><use x="131.885" xlink:href="#DejaVuSans-114"/></g></g></g><g id="matplotlib.axis_2"><g id="ytick_1"><g style="fill:#696969" transform="matrix(.16 0 0 -.16 97.32 560.119)" id="text_11"><defs><path d="M31.781 66.406q-7.61 0-11.453-7.5Q16.5 51.422 16.5 36.375q0-14.984 3.828-22.484 3.844-7.5 11.453-7.5 7.672 0 11.5 7.5 3.844 7.5 3.844 22.484 0 15.047-3.844 22.531-3.828 7.5-11.5 7.5zm0 7.813q12.266 0 18.735-9.703 6.468-9.688 6.468-28.141 0-18.406-6.468-28.11-6.47-9.687-18.735-9.687-12.25 0-18.718 9.688-6.47 9.703-6.47 28.109 0 18.453 6.47 28.14Q19.53 74.22 31.78 74.22z" id="DejaVuSans-48"/></defs><use xlink:href="#DejaVuSans-48"/></g></g><g id="ytick_2"><g style="fill:#696969" transform="matrix(.16 0 0 -.16 87.14 496.57)" id="text_12"><defs><path d="M10.797 72.906h38.719v-8.312H19.828v-17.86q2.14.735 4.281 1.094 2.157.36 4.313.36 12.203 0 19.328-6.688 7.14-6.688 7.14-18.11 0-11.765-7.328-18.296-7.328-6.516-20.656-6.516-4.593 0-9.36.781-4.75.782-9.827 2.344v9.922q4.39-2.39 9.078-3.563 4.687-1.171 9.906-1.171 8.453 0 13.375 4.437 4.938 4.438 4.938 12.063 0 7.609-4.938 12.047-4.922 4.453-13.375 4.453-3.953 0-7.89-.875-3.922-.875-8.016-2.735z" id="DejaVuSans-53"/></defs><use xlink:href="#DejaVuSans-53"/><use x="63.623" xlink:href="#DejaVuSans-48"/></g></g><g id="ytick_3"><g style="fill:#696969" transform="matrix(.16 0 0 -.16 76.96 433.021)" id="text_13"><defs><path d="M12.406 8.297h16.11v55.625l-17.532-3.516v8.985l17.438 3.515h9.86V8.296H54.39V0H12.406z" id="DejaVuSans-49"/></defs><use xlink:href="#DejaVuSans-49"/><use x="63.623" xlink:href="#DejaVuSans-48"/><use x="127.246" xlink:href="#DejaVuSans-48"/></g></g><g id="ytick_4"><g style="fill:#696969" transform="matrix(.16 0 0 -.16 76.96 369.473)" id="text_14"><use xlink:href="#DejaVuSans-49"/><use x="63.623" xlink:href="#DejaVuSans-53"/><use x="127.246" xlink:href="#DejaVuSans-48"/></g></g><g id="ytick_5"><g style="fill:#696969" transform="matrix(.16 0 0 -.16 76.96 305.924)" id="text_15"><defs><path d="M19.188 8.297h34.421V0H7.33v8.297q5.609 5.812 15.296 15.594 9.703 9.797 12.188 12.64 4.734 5.313 6.609 9 1.89 3.688 1.89 7.25 0 5.813-4.078 9.469-4.078 3.672-10.625 3.672-4.64 0-9.797-1.61-5.14-1.609-11-4.89v9.969Q13.767 71.78 18.938 73q5.188 1.219 9.485 1.219 11.328 0 18.062-5.672 6.735-5.656 6.735-15.125 0-4.5-1.688-8.531-1.672-4.016-6.125-9.485-1.218-1.422-7.765-8.187-6.532-6.766-18.453-18.922z" id="DejaVuSans-50"/></defs><use xlink:href="#DejaVuSans-50"/><use x="63.623" xlink:href="#DejaVuSans-48"/><use x="127.246" xlink:href="#DejaVuSans-48"/></g></g><g id="ytick_6"><g style="fill:#696969" transform="matrix(.16 0 0 -.16 76.96 242.376)" id="text_16"><use xlink:href="#DejaVuSans-50"/><use x="63.623" xlink:href="#DejaVuSans-53"/><use x="127.246" xlink:href="#DejaVuSans-48"/></g></g><g id="ytick_7"><g style="fill:#696969" transform="matrix(.16 0 0 -.16 76.96 178.827)" id="text_17"><defs><path d="M40.578 39.313Q47.656 37.797 51.625 33q3.984-4.781 3.984-11.813 0-10.78-7.422-16.703-7.421-5.906-21.093-5.906-4.578 0-9.438.906-4.86.907-10.031 2.72v9.515q4.094-2.39 8.969-3.61 4.89-1.218 10.218-1.218 9.266 0 14.125 3.656 4.86 3.656 4.86 10.64 0 6.454-4.516 10.079-4.515 3.64-12.562 3.64h-8.5v8.11h8.89q7.266 0 11.125 2.906 3.86 2.906 3.86 8.375 0 5.61-3.985 8.61-3.968 3.015-11.39 3.015-4.063 0-8.703-.89-4.641-.876-10.203-2.72v8.782q5.624 1.562 10.53 2.344 4.907.78 9.25.78 11.235 0 17.766-5.109 6.547-5.093 6.547-13.78 0-6.063-3.468-10.235-3.47-4.172-9.86-5.782z" id="DejaVuSans-51"/></defs><use xlink:href="#DejaVuSans-51"/><use x="63.623" xlink:href="#DejaVuSans-48"/><use x="127.246" xlink:href="#DejaVuSans-48"/></g></g><g id="ytick_8"><g style="fill:#696969" transform="matrix(.16 0 0 -.16 76.96 115.278)" id="text_18"><use xlink:href="#DejaVuSans-51"/><use x="63.623" xlink:href="#DejaVuSans-53"/><use x="127.246" xlink:href="#DejaVuSans-48"/></g></g><g style="fill:#696969" transform="matrix(0 -.2 -.2 0 68.8 379.813)" id="text_19"><defs><path d="M51.125 44H36.922l-4.11-16.313h14.313zm-7.328 27.781-5.078-20.265h14.265L58.11 71.78h7.813L60.89 51.516h15.234V44h-17.14l-4-16.313h15.53V20.22H53.079L48 0h-7.813l5.032 20.219H30.906L25.875 0h-7.86l5.079 20.219H7.719v7.468h17.187L29 44H13.281v7.516h17.625l4.985 20.265z" id="DejaVuSans-35"/><path d="M30.61 48.39q-7.22 0-11.422-5.64-4.204-5.64-4.204-15.453 0-9.813 4.172-15.453 4.188-5.64 11.453-5.64 7.188 0 11.375 5.655 4.203 5.672 4.203 15.438 0 9.719-4.203 15.406-4.187 5.688-11.375 5.688zm0 7.61q11.718 0 18.406-7.625 6.703-7.61 6.703-21.078 0-13.422-6.703-21.078-6.688-7.64-18.407-7.64-11.765 0-18.437 7.64-6.656 7.656-6.656 21.078 0 13.469 6.656 21.078Q18.844 56 30.609 56z" id="DejaVuSans-111"/><path d="M37.11 75.984V68.5h-8.594q-4.828 0-6.72-1.953-1.874-1.953-1.874-7.031v-4.828h14.797v-6.985H19.922V0H10.89v47.703H2.297v6.984h8.594V58.5q0 9.125 4.25 13.297 4.25 4.187 13.468 4.187z" id="DejaVuSans-102"/><path d="M44.281 53.078v-8.5q-3.797 1.953-7.906 2.922-4.094.984-8.5.984-6.688 0-10.031-2.047-3.344-2.046-3.344-6.156 0-3.125 2.39-4.906 2.391-1.781 9.626-3.39l3.078-.688q9.562-2.047 13.593-5.781 4.032-3.735 4.032-10.422 0-7.625-6.032-12.078-6.03-4.438-16.578-4.438-4.39 0-9.156.86Q10.688.296 5.422 2v9.281q4.984-2.594 9.812-3.89 4.829-1.282 9.579-1.282 6.343 0 9.75 2.172 3.421 2.172 3.421 6.125 0 3.656-2.468 5.61-2.453 1.953-10.813 3.765l-3.125.735q-8.344 1.75-12.062 5.39-3.704 3.64-3.704 9.985 0 7.718 5.47 11.906Q16.75 56 26.811 56q4.97 0 9.36-.734 4.406-.72 8.11-2.188z" id="DejaVuSans-115"/><path d="M56.203 29.594v-4.39H14.891q.593-9.282 5.593-14.142 5-4.859 13.938-4.859 5.172 0 10.031 1.266 4.86 1.265 9.656 3.812v-8.5Q49.266.734 44.187-.344 39.11-1.422 33.892-1.422q-13.094 0-20.735 7.61-7.64 7.625-7.64 20.625 0 13.421 7.25 21.296Q20.016 56 32.328 56q11.031 0 17.453-7.11 6.422-7.093 6.422-19.296zm-8.984 2.64q-.094 7.36-4.125 11.75-4.032 4.407-10.672 4.407-7.516 0-12.031-4.25-4.516-4.25-5.203-11.97z" id="DejaVuSans-101"/></defs><use xlink:href="#DejaVuSans-35"/><use x="83.789" xlink:href="#DejaVuSans-32"/><use x="115.576" xlink:href="#DejaVuSans-111"/><use x="176.758" xlink:href="#DejaVuSans-102"/><use x="211.963" xlink:href="#DejaVuSans-32"/><use x="243.75" xlink:href="#DejaVuSans-99"/><use x="298.73" xlink:href="#DejaVuSans-97"/><use x="360.01" xlink:href="#DejaVuSans-115"/><use x="412.109" xlink:href="#DejaVuSans-101"/><use x="473.633" xlink:href="#DejaVuSans-115"/></g></g><g style="fill:#696969" transform="matrix(.24 0 0 -.24 209.887 71.76)" id="text_20"><defs><path d="M9.813 72.906h13.28l32.329-60.984v60.984h9.562V0h-13.28L19.39 60.984V0H9.813z" id="DejaVuSans-78"/><path d="M4.203 54.688h8.985l11.234-42.672 11.172 42.672h10.593l11.235-42.672 11.187 42.672h8.985L63.28 0H52.688L40.922 44.828 29.109 0H18.5z" id="DejaVuSans-119"/><path d="M64.406 67.281v-10.39q-4.984 4.64-10.625 6.922-5.64 2.296-11.984 2.296-12.5 0-19.14-7.64-6.641-7.64-6.641-22.094 0-14.406 6.64-22.047 6.64-7.64 19.14-7.64 6.345 0 11.985 2.296 5.64 2.297 10.625 6.938V5.609Q59.234 2.094 53.437.33q-5.78-1.75-12.218-1.75-16.563 0-26.094 10.124-9.516 10.14-9.516 27.672 0 17.578 9.516 27.703 9.531 10.14 26.094 10.14 6.531 0 12.312-1.734 5.797-1.734 10.875-5.203z" id="DejaVuSans-67"/><path d="M25.39 72.906h8.297L8.297-9.28H0z" id="DejaVuSans-47"/><path d="M9.813 72.906h9.859V42.094L52.39 72.906h12.703L28.906 38.922 67.672 0H54.688L19.672 35.11V0h-9.86z" id="DejaVuSans-75"/><path d="M9.422 54.688h8.984V0H9.422zm0 21.296h8.984v-11.39H9.422z" id="DejaVuSans-105"/><path d="M45.406 46.39v29.594h8.985V0h-8.985v8.203Q42.578 3.328 38.25.953q-4.313-2.375-10.375-2.375-9.906 0-16.14 7.906-6.22 7.922-6.22 20.813 0 12.89 6.22 20.797Q17.968 56 27.874 56q6.063 0 10.375-2.375 4.328-2.36 7.156-7.234zm-30.61-19.093q0-9.906 4.079-15.547 4.078-5.64 11.203-5.64 7.125 0 11.219 5.64 4.11 5.64 4.11 15.547 0 9.906-4.11 15.547-4.094 5.64-11.219 5.64-7.125 0-11.203-5.64-4.078-5.64-4.078-15.547z" id="DejaVuSans-100"/><path d="M4.89 31.39h26.313v-8H4.891z" id="DejaVuSans-45"/><path d="M8.203 72.906h46.875v-4.203L28.61 0H18.312L43.22 64.594H8.203z" id="DejaVuSans-55"/><path d="M32.172-5.078q-3.797-9.766-7.422-12.735-3.61-2.984-9.656-2.984H7.906v7.516h5.282q3.703 0 5.75 1.765Q21-9.766 23.483-3.219l1.61 4.094-22.11 53.813H12.5l17.094-42.766 17.093 42.766h9.516z" id="DejaVuSans-121"/><path d="M2.984 54.688H12.5L29.594 8.797l17.093 45.89h9.516L35.687 0H23.485z" id="DejaVuSans-118"/><path d="M45.406 27.984q0 9.766-4.031 15.125-4.016 5.375-11.297 5.375-7.219 0-11.25-5.375-4.031-5.359-4.031-15.125 0-9.718 4.031-15.093t11.25-5.375q7.281 0 11.297 5.375 4.031 5.375 4.031 15.093zm8.985-21.203q0-13.953-6.203-20.765Q42-20.797 29.203-20.797q-4.734 0-8.937.703-4.203.703-8.157 2.172v8.735q3.954-2.141 7.813-3.157 3.86-1.031 7.86-1.031 8.843 0 13.234 4.61 4.39 4.609 4.39 13.937v4.453q-2.781-4.844-7.125-7.234Q33.938 0 27.875 0 17.828 0 11.672 7.656q-6.156 7.672-6.156 20.328 0 12.688 6.156 20.344Q17.828 56 27.875 56q6.063 0 10.406-2.39 4.344-2.391 7.125-7.22v8.297h8.985z" id="DejaVuSans-103"/></defs><use xlink:href="#DejaVuSans-78"/><use x="74.805" xlink:href="#DejaVuSans-101"/><use x="136.328" xlink:href="#DejaVuSans-119"/><use x="218.115" xlink:href="#DejaVuSans-32"/><use x="249.902" xlink:href="#DejaVuSans-67"/><use x="319.727" xlink:href="#DejaVuSans-97"/><use x="381.006" xlink:href="#DejaVuSans-115"/><use x="433.105" xlink:href="#DejaVuSans-101"/><use x="494.629" xlink:href="#DejaVuSans-115"/><use x="546.729" xlink:href="#DejaVuSans-32"/><use x="578.516" xlink:href="#DejaVuSans-47"/><use x="612.207" xlink:href="#DejaVuSans-32"/><use x="643.994" xlink:href="#DejaVuSans-49"/><use x="707.617" xlink:href="#DejaVuSans-48"/><use x="771.24" xlink:href="#DejaVuSans-48"/><use x="834.863" xlink:href="#DejaVuSans-75"/><use x="900.439" xlink:href="#DejaVuSans-32"/><use x="932.227" xlink:href="#DejaVuSans-114"/><use x="971.09" xlink:href="#DejaVuSans-101"/><use x="1032.613" xlink:href="#DejaVuSans-115"/><use x="1084.713" xlink:href="#DejaVuSans-105"/><use x="1112.496" xlink:href="#DejaVuSans-100"/><use x="1175.973" xlink:href="#DejaVuSans-101"/><use x="1237.496" xlink:href="#DejaVuSans-110"/><use x="1300.875" xlink:href="#DejaVuSans-116"/><use x="1340.084" xlink:href="#DejaVuSans-115"/><use x="1392.184" xlink:href="#DejaVuSans-32"/><use x="1423.971" xlink:href="#DejaVuSans-45"/><use x="1460.055" xlink:href="#DejaVuSans-45"/><use x="1496.139" xlink:href="#DejaVuSans-32"/><use x="1527.926" xlink:href="#DejaVuSans-55"/><use x="1591.549" xlink:href="#DejaVuSans-32"/><use x="1623.336" xlink:href="#DejaVuSans-100"/><use x="1686.813" xlink:href="#DejaVuSans-97"/><use x="1748.092" xlink:href="#DejaVuSans-121"/><use x="1807.271" xlink:href="#DejaVuSans-32"/><use x="1839.059" xlink:href="#DejaVuSans-97"/><use x="1900.338" xlink:href="#DejaVuSans-118"/><use x="1959.518" xlink:href="#DejaVuSans-101"/><use x="2021.041" xlink:href="#DejaVuSans-114"/><use x="2062.154" xlink:href="#DejaVuSans-97"/><use x="2123.434" xlink:href="#DejaVuSans-103"/><use x="2186.91" xlink:href="#DejaVuSans-101"/></g><g id="legend_1"><path d="M128.2 184.5h136.45q3.2 0 3.2-3.2V88.96q0-3.2-3.2-3.2H128.2q-3.2 0-3.2 3.2v92.34q0 3.2 3.2 3.2z" style="fill:none;opacity:.8;stroke:#ccc;stroke-linejoin:miter" id="patch_5"/><path d="M131.4 98.718h32" style="fill:none;stroke:#000;stroke-linecap:round;stroke-width:1.5" id="line2d_5"/><g style="fill:#696969" transform="matrix(.16 0 0 -.16 176.2 104.317)" id="text_21"><defs><path d="M8.688 72.906h9.921V28.61q0-11.718 4.235-16.875 4.25-5.14 13.781-5.14 9.469 0 13.719 5.14 4.25 5.157 4.25 16.875v44.297H64.5V27.391q0-14.25-7.063-21.532-7.046-7.28-20.812-7.28-13.828 0-20.89 7.28-7.047 7.282-7.047 21.532z" id="DejaVuSans-85"/><path d="M53.516 70.516V60.89q-5.61 2.687-10.594 4-4.984 1.328-9.625 1.328-8.047 0-12.422-3.125t-4.375-8.89q0-4.845 2.906-7.313 2.907-2.453 11.016-3.97l5.953-1.218q11.031-2.11 16.281-7.406 5.25-5.297 5.25-14.172 0-10.61-7.11-16.078-7.093-5.469-20.812-5.469-5.172 0-11.015 1.172Q13.14.922 6.89 3.219v10.156q6-3.36 11.765-5.078 5.766-1.703 11.328-1.703 8.438 0 13.032 3.312 4.593 3.328 4.593 9.485 0 5.359-3.297 8.39-3.296 3.032-10.812 4.547L27.484 33.5q-11.03 2.188-15.968 6.875-4.922 4.688-4.922 13.047 0 9.672 6.812 15.234 6.813 5.563 18.766 5.563 5.14 0 10.453-.938 5.328-.922 10.89-2.765z" id="DejaVuSans-83"/></defs><use xlink:href="#DejaVuSans-85"/><use x="73.193" xlink:href="#DejaVuSans-83"/></g><path d="M131.4 122.203h32" style="fill:none;stroke:#009e73;stroke-linecap:round;stroke-width:1.5" id="line2d_7"/><g style="fill:#696969" transform="matrix(.16 0 0 -.16 176.2 127.802)" id="text_22"><use xlink:href="#DejaVuSans-78"/><use x="74.805" xlink:href="#DejaVuSans-74"/></g><path d="M131.4 145.688h32" style="fill:none;stroke:#d55e00;stroke-linecap:round;stroke-width:1.5" id="line2d_9"/><g style="fill:#696969" transform="matrix(.16 0 0 -.16 176.2 151.287)" id="text_23"><defs><path d="M19.672 34.813V8.108H35.5q7.953 0 11.781 3.297 3.844 3.297 3.844 10.078 0 6.844-3.844 10.078-3.828 3.25-11.781 3.25zm0 29.984V42.828h14.61q7.218 0 10.75 2.703 3.546 2.719 3.546 8.282 0 5.515-3.547 8.25-3.531 2.734-10.75 2.734zm-9.86 8.11h25.204q11.28 0 17.375-4.688Q58.5 63.53 58.5 54.89q0-6.703-3.125-10.657-3.125-3.953-9.188-4.922 7.282-1.562 11.313-6.53 4.031-4.954 4.031-12.376 0-9.765-6.64-15.093Q48.25 0 35.984 0H9.812z" id="DejaVuSans-66"/></defs><use xlink:href="#DejaVuSans-66"/><use x="68.604" xlink:href="#DejaVuSans-101"/><use x="130.127" xlink:href="#DejaVuSans-114"/><use x="169.49" xlink:href="#DejaVuSans-103"/><use x="232.967" xlink:href="#DejaVuSans-101"/><use x="294.49" xlink:href="#DejaVuSans-110"/></g><path d="M131.4 169.173h32" style="fill:none;stroke:#0072b2;stroke-linecap:round;stroke-width:1.5" id="line2d_11"/><g style="fill:#696969" transform="matrix(.16 0 0 -.16 176.2 174.773)" id="text_24"><defs><path d="M44.39 34.188q3.172-1.079 6.172-4.594 3-3.516 6.032-9.672L66.609 0H56l-9.313 18.703q-3.624 7.328-7.015 9.719-3.39 2.39-9.25 2.39h-10.75V0h-9.86v72.906h22.266q12.5 0 18.656-5.234 6.157-5.219 6.157-15.766 0-6.89-3.203-11.437-3.204-4.532-9.297-6.282zM19.673 64.797V38.922h12.406q7.125 0 10.766 3.297 3.64 3.297 3.64 9.687 0 6.39-3.64 9.64-3.64 3.25-10.766 3.25z" id="DejaVuSans-82"/><path d="M54.89 33.016V0h-8.984v32.719q0 7.765-3.031 11.61-3.031 3.858-9.078 3.858-7.281 0-11.484-4.64-4.204-4.625-4.204-12.64V0H9.08v75.984h9.03V46.188q3.235 4.937 7.594 7.374Q30.078 56 35.797 56q9.422 0 14.25-5.828 4.844-5.828 4.844-17.156z" id="DejaVuSans-104"/></defs><use xlink:href="#DejaVuSans-82"/><use x="64.982" xlink:href="#DejaVuSans-117"/><use x="128.361" xlink:href="#DejaVuSans-116"/><use x="167.57" xlink:href="#DejaVuSans-104"/><use x="230.949" xlink:href="#DejaVuSans-101"/><use x="292.473" xlink:href="#DejaVuSans-114"/><use x="333.586" xlink:href="#DejaVuSans-102"/><use x="368.791" xlink:href="#DejaVuSans-111"/><use x="429.973" xlink:href="#DejaVuSans-114"/><use x="469.336" xlink:href="#DejaVuSans-100"/></g></g></g></g><defs><clipPath id="pfb6e90501b"><path d="M117 77.76h725.4v498.96H117z"/></clipPath></defs></svg>