<svg height="864" viewBox="0 0 936 648" width="1248" xmlns="http://www.w3.org/2000/svg" xmlns:xlink="http://www.w3.org/1999/xlink"><defs><style>*{stroke-linecap:butt;stroke-linejoin:round}</style></defs><g id="figure_1"><path d="M0 648h936V0H0z" style="fill:#fff" id="patch_1"/><g id="axes_1"><path d="M117 576.72h725.4V77.76H117z" style="fill:none" id="patch_2"/><g id="PolyCollection_1"><defs><path d="M151.122-101.853H215.459l1.149-1.413 1.148.185 1.15.12 1.148-.742 1.149.144 1.149-2.33 1.149-2.04 1.149-4.198 1.149.107 1.148-1.8 1.15-.994 1.148-3.628 1.149-5.922 1.149-4.74 1.149 1.272 1.149-4.455 1.149-12.722 1.148-6.774 1.15-1.105 1.148-.88 1.149.233 1.149-3.606 1.149-5.835 1.149.086 1.149.067 1.148-3.2 1.15 1.476 1.148.52 1.149-6.381 1.149-3.313 1.149 11.64 1.149 13.16 1.149-.376 1.148 3.368 1.15-1.052 1.148 5.825 1.149.176 1.149-.177 1.149-.397 1.149.068 1.149 3.248 1.148 1.342 1.15.348 1.148-.568 1.149-.802 1.149.27 1.149 5.27 1.149 3.555 1.149 5.519 1.148 6.176 1.15 7.36 1.148 3.009 1.149.412 1.149 1.004 1.149-4.243 1.149.484 1.149 1.427 1.148 1.402 1.15 2.132 1.148-1.434 1.149-1.311 1.149-2.55 1.149-1.325 1.149-.863 1.149.893 1.148.024 1.15-.024 1.148 4.228 1.149 3.076 1.149 1.115 1.149 1.228 1.149-.85 1.149.2 1.148.111 1.15-2.999 1.148-.23 1.149-.297 1.149-.386 1.149-.349 1.149-.456 1.149-.652 1.148-.08 1.15.02 1.148-.965 1.149-.202 1.149.775 1.149-.277 1.149-.534 1.149 3.428 1.148.277 1.15.19 1.148.135 1.15.095 1.148.062 1.149.032 1.149-1.968 1.149.92 1.148-.167 1.15-1.166 1.148-.089 1.15-.101 1.148-.118 1.149-3.195 1.149 1.184 1.149-.71 1.148.144 1.15.056 1.148-.028 1.15-.113 1.148-3.389 1.149-.63 1.149.989h1.149l1.148-.989 1.15-.17 1.148-.349 1.15 1.855 1.148-1.142 1.149.82 1.149-.18 1.149-.23 1.148-.303 1.15-.455 1.148 6.906 1.15-1.692 1.148-.864 1.149.061 1.149 2.056 1.149.021 1.148-.08 1.15 1.077 1.148.996 1.15.021 1.148-1.111 1.149-.238 1.149-.366 1.149-.6 1.148-.975 1.15 3.021 1.148-.068 1.15.916 1.148.111 1.149.045 1.149-.015 1.149 1.093 1.148.123 1.15-.946 1.148.964 1.15-1.065 1.148-.141 1.149-.194 1.149-.613 1.149-.079 1.148.902 1.15-.965 1.148-.859 1.15.081 1.148.065h1.149l1.149-1.661 1.149.207 1.148-.756 1.15 1.035 1.148.036 1.15.005 1.148-.025 1.149-.059 1.149-3.595 1.149 1.02 1.148.94 1.15-.073 1.148-.13 1.15-.204 1.148-.924 1.149.918 1.149.965 1.149-.059 1.148-.066 1.15-.074 1.148-.085 1.15-.098 1.148 1.997 1.149-.988 1.149.031 1.149.01 1.148-.01 1.15-2.784 1.148 2.753 1.15-1.028h4.595l1.148.973 1.15.003 1.148 2.073 1.15 1.287 1.148.232 1.149.177 1.149.136 1.149.918 1.148-.912 1.15-3.86 1.148-7.164 1.15-.654 1.148.888 1.149.668 1.149-1.227 1.149-4.575 1.148-.124 1.15-3.835 1.148-3.722 1.15-2.034 1.148-2.31 1.149-.211 1.149.086 1.149-.117 1.148 7.923 1.15 1.222 1.148-.86 1.15-1.067 1.148-4.994 1.149 1.472 1.149-4.363 1.149-.118 1.148-.006 1.15 2.822 1.148 2.61 1.15-10 1.148-1.09 1.149-2.48 1.149-1.92 1.149-3.611 1.149.686 1.148.304 1.15-10.462 1.148 1.104 1.149 5.173 1.149-10.243 1.149-.994 1.149.024 1.149-1.088 1.148-3.939 1.15-9.908 1.148-3.997 1.149-3.923 1.149-6.98 1.149-3.564 1.149.132 1.149 4.966 1.148-3.933 1.15-6.66 1.148 15.224 1.149 5.473 1.149-20.459 1.149-1.978 1.149-.516 1.149 3.402 1.148-.033 1.15-8.155 1.148-8.62 1.149-4.206 1.149 1.183 1.149 3.392 1.149-3.056 1.149 1.546 1.148-15.722 1.15-7.648 1.148 19.307 1.149-.177 1.149-.546 1.149-3.305 1.149 1.532 1.149 14.778 1.148 8.124 1.15 13.518 1.148 2.113 1.149-15.119 1.149 5.364 1.149-21.145 1.149 11.597 1.149 6.36 1.148-.403 1.15-.674 1.148-16.192 1.149 2.49 1.149-11.45 1.149-8.048 1.149 16.515 1.149-1.006 1.148-1.503 1.15-5.636 1.148-10.093 1.149 12.541 1.149-9.186 1.149-10.971 1.149-8.5 1.149-.021 1.148 7.867 1.15-5.91 1.148 4.005 1.149 1.27 1.149-9.741 1.149-.68 1.149-1.366 1.149 31.836 1.148-2.242 1.15 3.731 1.148 12.943 1.149 11.96 1.149 12.887 1.149 1.99 1.149-7.903 1.149 7.208 1.148 9.568 1.15 4.39 1.148-7.77 1.149-8.411 1.149-5.783 1.149-1.403 1.149 19.414 1.149-18.228 1.148-5.627 1.15-4.473 1.148.123 1.149.114 1.149 14.17 1.149-2.956 1.149 1.09 1.149-.062 1.148 11.823 1.15-1.42 1.148.274 1.15.06 1.148-14.008 1.149 21.291 1.149 5.859 1.149 2.276 1.148-.277 1.15-8.231 1.148 12.473 1.15 1.3 1.148 1.053 1.149-7.575 1.149-4.014 1.149 6.627 1.148-.291 1.15-15.523 1.148.799 1.15-.708 1.148.385 1.149-7.39 1.149.894 1.149 6.939 1.148-9.139 1.15 1.728 1.148-4.24 1.15-.87 1.148 3.716 1.149-1.278 1.149-2.072 1.149-6.293 1.148 2.44 1.15-2.377 1.148-.84 1.15 8.746 1.148.062 1.149-.825 1.149-9.368 1.149-1.609 1.148 1.2 1.15 5.785 1.148-1.998 1.15-.09 1.148-8.122 1.149 11.59 1.149-.938 1.149 5.088 1.148-14 1.15-3.319 1.148.202 1.15-.104 1.148 6.76 1.149-1.88 2.298-.874v-1.107l1.148 1.782 1.15-1.141 1.148 8.893 1.15.869 1.148 3.21 1.149-2.432 1.149 6.852 1.149 4.829 1.148-4.864 1.15-.315 1.148 15.206 1.15 8.673 1.148 3.197 1.149 2.614 1.149.205 1.149.497 1.148-.033 1.15 3.83 1.148 1.893 1.15 1.284 1.148 8.04 1.149-4.118 1.149 2.667 1.149-2.356 1.148.312 1.15-.177 1.148-.261 1.15 4.96 1.148 2.982 1.149-.233 1.149-.709 1.149 1.553 1.148 2.713 1.15 1.827 1.148 4.772 1.15 10.143 1.148 2.155 1.149.611 1.149 2.383 1.149 1.042 1.148 6.005 1.15 1.25 1.148 2.22 1.15-.2 1.148-.723 1.149 3.181 1.149-.89 1.149-1.256 1.148-3.358 1.15-.479 1.148-.588 1.15-.892 1.148-.931 1.149-1.299 1.149-1.348 1.149.625 1.148-.111 1.15-.142 1.148-.186 1.15-.123 1.148-2.677 1.149.063 1.149 1.927 1.149-.008 1.148-.012 1.15-.017 1.148-.023 1.15-.03 1.148.994H743.942l1.148 3.142 1.15 1.214 1.148.276 1.149-3.899 1.149-.043 1.149-.048 1.148-.053 1.15-.057h1.148l1.15-.907 1.148.052 1.149.048 1.149.043 1.149.04 1.149-.12 1.148-.378 1.15-1.619 1.148 3.013 1.149.095 1.149.08 1.149.068 1.149.059 1.149-.965 1.148-.965h6.894l1.149-.965 1.148-3.894 1.15.483 1.148.285 1.149-15.854 1.149.542 1.149 1.58 1.149-3.133 1.149-3.144 1.148 1.012 1.15.474 1.148-6.12 1.149-2.634 1.149-1.346 1.149-1.056 1.149 3.316 1.149-2.342 1.148-3.896 1.15 9.923 1.148-1.544 1.149-5.774 1.149.574 1.149 3.095 1.149.185 1.149.17 1.148-2.973 1.15.598v-10.506l-1.15-1.332-1.148 2.815-1.15.17-1.148.186-1.15-2.694-1.148-1.355-1.149 3.873-1.149.385-1.149-11.3-1.148-3.897-1.15-2.341-1.148-6.332-1.15-1.055-1.148.583-1.149 3.155-1.149 7.386-1.149.473-1.148 1.013-1.15 6.503-1.148 6.514-1.15 1.58-1.148 4.4-1.149 24.666-1.149.284-1.149.483-1.148 5.754-1.15.964h-6.893l-1.148.965-1.15.965-1.148.059-1.15.068-1.148.08-1.149.095-1.149-2.776-1.149.31-1.148-.377-1.15-.12-1.148.04-1.15.043-1.148.048-1.149.052-1.149 1.022h-1.149l-1.149-.057-1.148-.053-1.15-.048-1.148-.043-1.149 3.82-1.149.274-1.149-.715-1.149-2.646h-5.744l-1.149-.936-1.149-.03-1.149-.022-1.149-.018-1.148-.012-1.15-.007-1.148-1.932-1.149.062-1.149 3.112-1.149-.123-1.149-.186-1.149-.142-1.148-.111-1.15-1.305-1.148.582-1.149-1.299-1.149-.93-1.149-.893-1.149-.588-1.149-.48-1.148.502-1.15-1.256-1.148-.89-1.149-4.537-1.149-.723-1.149-.2-1.149-1.638-1.149-.68-1.148-5.572-1.15-.887-1.148-1.477-1.149.611-1.149.226-1.149-7.223-1.149-2.945-1.149-2.032-1.148-3.075-1.15-2.306-1.148-.71-1.149-.233-1.149-2.805-1.149-4.688-1.149-.261-1.149-.177-1.148-1.617-1.15-2.356-1.148-5.052-1.149 3.6-1.149-7.395-1.149-2.575-1.149-1.966-1.149-3.888-1.148-.033-1.15-1.433-1.148.205-1.149-1.245-1.149-.662-1.149-4.833-1.149-11.807-1.149-.315-1.148 4.784-1.15-2.89-1.148-4.723-1.149 1.425-1.149-2.577-1.149-1.061-1.149-8.471-1.149.788-1.148-2.077v.822l-2.298 1.055-1.149 1.98-1.149-6.746-1.149-.104-1.149.201-1.149 4.4-1.148 14.941-1.15-4.559-1.148.992-1.149-11.564-1.149 9.243-1.149-.09-1.149 1.86-1.149-5.79-1.148-.73-1.15 2.25-1.148 9.926-1.15-.825-1.148.062-1.149-8.619-1.149-.84-1.149 1.481-1.148-3.347-1.15 7.212-1.148-2.072-1.15-1.277-1.148-4.002-1.149 1.059-1.149 3.478-1.149-2.131-1.148 10.156-1.15-6.567-1.148.895-1.15 9.974-1.148.385-1.149 1.222-1.149-6.92-1.149 15.349-1.148-.291-1.15-6.879-1.148 3.703-1.15 5.932-1.148-.876-1.149-.63-1.149-10.68-1.149 5.274-1.148-.276-1.15-1.583-1.148-3.789-1.15-19.227-1.148 13.004-1.149.06-1.149.274-1.149 2.44-1.148-9.402-1.15-.062-1.148-.84-1.15 2.832-1.148-14.77-1.149.113-1.149.123-1.149 3.244-1.148 2.092-1.15 12.643-1.148-21.104-1.15-1.404-1.148-5.782-1.149 1.235-1.149 3.808-1.149-3.329-1.148-7.797-1.15-6.298-1.148 9.462-1.15 1.99-1.148-6.408-1.149-5.404-1.149-8.282-1.149-3.987-1.148 3.546-1.15-31.836-1.148-1.366-1.15-.68-1.148 9.554-1.149-.66-1.149-3.712-1.149 5.667-1.148-7.57-1.15-.02-1.148 10.794-1.15 12.183-1.148 10.108-1.149-12.541-1.149 11.13-1.149 5.942-1.148-1.503-1.15-1.006-1.148-16.287-1.15 13.176-1.148 11.705-1.149-5.228-1.149 14.68-1.149-.675-1.148-.403-1.15-11.005-1.148-13.486-1.15 21.303-1.148-4.284-1.149 15.753-1.149 2.113-1.149-7.706-1.148-5.382-1.15-16.094-1.148-6.186-1.15.554-1.148-.546-1.149-.177-1.149-19.282-1.149 9.717-1.148 19.008-1.15-.383-1.148 4.662-1.15-2.397-1.148 1.184-1.149 7.37-1.149 10.675-1.149 7.28-1.148-1.962-1.15-6.245-1.148-4.375-1.15-1.978-1.148 18.13-1.149-8.033-1.149-17.577-1.149 4.917-1.148 3.785-1.15-4.682-1.148.133-1.15 6.083-1.148 10.385-1.149 5.725-1.149 5.65-1.149 11.316-1.148 3.78-1.15-1.09-1.148.024-1.15 2.866-1.148 12.91-1.149-4.474-1.149 1.103-1.149 14.622-1.148.304-1.15.686-1.148 6.036-1.15 3.868-1.148 3.31-1.149.838-1.149 9.295-1.149-3.178-1.149-2.966-1.148-.006-1.15-.118-1.148 3.354-1.149-2.387-1.149 2.724-1.149-1.067-1.149-.86-1.149-2.637-1.148-9.442-1.15-2.046-1.148-1.844-1.149-.21-1.149 3.478-1.149 3.754-1.149 5.926-1.149 5.812-1.148 1.805-1.15 7.002-1.148 2.632-1.149.668-1.149.888-1.149 3.205-1.149 10.2-1.149 3.86-1.148 1.017-1.15-1.012-1.148.136-1.149.177-1.149.232-1.149-.642-1.149-1.786-1.149.003-1.148-.956h-4.596l-1.149.9-1.149-3.035-1.149 3.004-1.148-.01-1.15.01-1.148.032-1.149.94-1.149-1.861-1.149-.098-1.149-.085-1.149-.074-1.148-.066-1.15-.059-1.148-.964-1.149-1.011-1.149 1.005-1.149-.204-1.149-.13-1.149-.073-1.148-.989-1.15-.91-1.148 4.122-1.149-.058-1.149-.026-1.149.005-1.149.037-1.149-.895-1.148 1.174-1.15.207-1.148 2.197h-1.149l-1.149.065-1.149.081-1.149 1.071-1.149.965-1.148-1.028-1.15-.078-1.148-.614-1.149-.194-1.149-.14-1.149.863-1.149-.965-1.149.984-1.148.123-1.15-.837-1.148-.015-1.149.045-1.149.111-1.149-1.013-1.149-.068-1.149-2.767-1.148.954-1.15-.6-1.148-.366-1.149-.238-1.149.818-1.149.02-1.149-.932-1.149-.853-1.148-.08-1.15.021-1.148-1.803-1.15.062-1.148 1.065-1.149 2.166-1.149-4.67-1.149-.455-1.148-.304-1.15-.229-1.148-.18-1.15-1.11-1.148.788-1.149-2.004-1.149-.349-1.149-.17-1.148.94h-1.15l-1.148-.94-1.15 1.299-1.148 4.33-1.149-.114-1.149-.027-1.149.055-1.148.144-1.15 1.22-1.148-.746-1.15 4.523-1.148-.118-1.149-.101-1.149-.089-1.149.764-1.148-.168-1.15-1.009-1.148 1.891-1.15.032-1.148.062-1.149.095-1.149.135-1.149.19-1.148.277-1.15-2.36-1.148-.534-1.15-.278-1.148-1.154-1.149-.202-1.149.965-1.149.02-1.148-.08-1.15-.653-1.148-.456-1.15-.348-1.148-.386-1.149-.298-1.149-.23-1.149 2.79-1.148.111-1.15.201-1.148 1.078-1.15-.701-1.148-.815-1.149-2.712-1.149-3.49-1.149-.023-1.148.023-1.15-1.037-1.148-.862-1.15-1.326-1.148-.62-1.149-1.31-1.149-1.434-1.149-3.657-1.148-2.457-1.15-2.432-1.148-1.445-1.15 3.474-1.148-.925-1.149.412-1.149-.85-1.149-4.217-1.148-3.471-1.15-4.128-1.148-2.233-1.15-4.379-1.148.271-1.149-.802-1.149-4.427-1.149-3.512-1.148-2.516-1.15-4.47-1.148-1.862-1.15-.396-1.148-.177-1.149.176-1.149-3.822-1.149 2.806-1.148-.491-1.15 3.484-1.148-8.064-1.15-13.444-1.148-5.242-1.149-.593-1.149-5.268-1.149-6.243-1.148-1.27-1.15-3.792-1.148-1.844-1.15 5.742-1.148 4.112-1.149.233-1.149 2.98-1.149 4.682-1.148 12.521-1.15 18.15-1.148 7.121-1.15 1.272-1.148 8.767-1.149 9.513-1.149 6.02-1.149 2.865-1.148 3.988-1.15 2.037-1.148 7.378-1.15 3.75-1.148 3.457-1.149.145-1.149 1.186-1.149.121-1.148.185-1.15 2.445H151.123z" id="ma180232bbb" style="stroke:#fff;stroke-opacity:.2"/></defs><g clip-path="url(#p10a70f2f9b)"><use style="fill:#089fff;fill-opacity:.2;stroke:#fff;stroke-opacity:.2" xlink:href="#ma180232bbb" y="648"/></g></g><g id="LineCollection_1"><path clip-path="url(#p10a70f2f9b)" d="M216.608 546.147v-27.012M220.054 546.147v-13.506M222.352 546.147V505.63M223.5 546.147V505.63M224.65 546.147V465.11M225.799 546.147v-13.506M226.947 546.147V505.63M228.096 546.147v-27.012M229.245 546.147v-67.531M230.394 546.147v-108.05M231.543 546.147v-94.544M232.692 546.147v-27.012M233.84 546.147V465.11M234.99 546.147v-216.1M236.138 546.147V397.578M237.287 546.147V505.63M238.436 546.147v-67.531M239.585 546.147V505.63M240.734 546.147V411.085M241.883 546.147v-94.544M243.032 546.147v-27.012M245.33 546.147V465.11M246.478 546.147v-54.025M247.627 546.147v-54.025M248.776 546.147v-67.531M249.925 546.147v-67.531M251.074 546.147V505.63M253.372 546.147v-67.531M254.52 546.147V505.63M255.67 546.147v-67.531M256.818 546.147v-67.531M257.967 546.147v-94.544M259.116 546.147v-27.012M261.414 546.147v-67.531M263.711 546.147v-27.012M264.86 546.147V505.63M266.01 546.147V505.63M267.158 546.147V505.63M274.051 546.147v-13.506M277.498 546.147v-54.025M278.647 546.147v-54.025M279.796 546.147v-13.506M280.945 546.147v-13.506M282.093 546.147v-13.506M286.689 546.147v-13.506M294.731 546.147v-13.506M298.178 546.147v-27.012M301.624 546.147V505.63M302.773 546.147v-13.506M310.815 546.147v-13.506M311.964 546.147v-13.506M314.262 546.147v-13.506M318.857 546.147v-13.506M325.75 546.147v-27.012M328.048 546.147v-13.506M329.197 546.147v-13.506M330.346 546.147v-13.506M333.793 546.147v-54.025M336.09 546.147v-13.506M341.835 546.147V465.11M342.984 546.147v-13.506M345.282 546.147v-13.506M346.43 546.147v-27.012M349.877 546.147v-27.012M351.026 546.147v-13.506M359.068 546.147V505.63M360.217 546.147v-13.506M361.366 546.147v-13.506M365.961 546.147v-13.506M369.408 546.147v-13.506M374.003 546.147v-13.506M376.301 546.147v-13.506M384.343 546.147v-13.506M386.641 546.147v-13.506M390.088 546.147v-13.506M393.534 546.147v-13.506M394.683 546.147v-13.506M399.279 546.147v-27.012M400.428 546.147v-13.506M401.576 546.147v-13.506M406.172 546.147v-13.506M408.47 546.147v-54.025M415.363 546.147V505.63M422.256 546.147v-13.506M424.554 546.147v-27.012M425.703 546.147v-13.506M430.298 546.147V505.63M432.596 546.147v-13.506M446.383 546.147v-27.012M447.531 546.147v-13.506M448.68 546.147v-67.531M449.83 546.147V424.591M450.978 546.147v-27.012M454.425 546.147v-27.012M455.574 546.147V465.11M456.722 546.147v-13.506M457.871 546.147v-67.531M459.02 546.147v-67.531M460.17 546.147V505.63M461.318 546.147V505.63M462.467 546.147v-27.012M464.765 546.147v-54.025M470.509 546.147V465.11M471.658 546.147v-54.025M472.807 546.147v-67.531M473.956 546.147v-67.531M475.104 546.147v-67.531M478.551 546.147V384.072M479.7 546.147v-13.506M480.849 546.147v-94.544M481.998 546.147V505.63M483.147 546.147v-67.531M486.593 546.147V289.528M487.742 546.147v-54.025M490.04 546.147V316.541M491.189 546.147v-94.544M494.635 546.147v-216.1M495.784 546.147V384.072M496.933 546.147V384.072M498.082 546.147v-108.05M499.23 546.147V357.06M500.38 546.147v-67.531M502.678 546.147V357.06M503.826 546.147v-108.05M504.975 546.147V465.11M508.422 546.147V276.022M510.72 546.147V357.06M511.869 546.147v-94.544M513.017 546.147V397.578M514.166 546.147v-216.1M515.315 546.147v-324.15M516.464 546.147V397.578M518.762 546.147V397.578M519.91 546.147V384.072M521.06 546.147v-67.531M522.208 546.147V303.034M523.357 546.147V424.591M526.804 546.147V357.06M527.953 546.147V424.591M529.102 546.147v-94.544M531.4 546.147V316.541M534.846 546.147v-364.67M535.995 546.147v-94.544M537.144 546.147v-364.67M538.293 546.147v-67.531M542.888 546.147V140.96M544.037 546.147v-67.531M545.186 546.147V289.528M546.335 546.147V397.578M550.93 546.147V100.44M552.08 546.147V303.034M553.228 546.147V357.06M554.377 546.147V343.553M555.526 546.147V384.072M556.675 546.147V411.085M558.972 546.147V249.01M560.121 546.147V397.578M561.27 546.147V343.553M562.419 546.147V411.085M563.568 546.147V411.085M568.163 546.147V262.515M569.312 546.147V411.085M570.461 546.147v-54.025M571.61 546.147V505.63M575.057 546.147V127.453M576.206 546.147v-54.025M577.354 546.147V465.11M578.503 546.147V465.11M579.652 546.147v-216.1M580.801 546.147v-67.531M585.397 546.147V194.984M586.545 546.147v-108.05M587.694 546.147v-94.544M591.14 546.147v-216.1M592.29 546.147v-94.544M593.439 546.147v-67.531M594.588 546.147V465.11M595.736 546.147v-67.531M596.885 546.147v-94.544M600.332 546.147V357.06M601.48 546.147v-67.531M602.63 546.147V505.63M603.779 546.147v-67.531M606.076 546.147v-94.544M607.225 546.147v-54.025M608.374 546.147V465.11M609.523 546.147v-54.025M610.672 546.147V370.566M611.82 546.147V424.591M615.267 546.147v-216.1M616.416 546.147V411.085M617.565 546.147V465.11M618.714 546.147V505.63M619.863 546.147V357.06M623.31 546.147V357.06M624.458 546.147v-54.025M625.607 546.147v-108.05M626.756 546.147V357.06M627.905 546.147v-67.531M631.352 546.147V235.503M632.5 546.147v-94.544M633.65 546.147v-108.05M634.798 546.147V505.63M635.947 546.147v-67.531M639.394 546.147v-324.15M640.543 546.147V465.11M641.691 546.147v-94.544M642.84 546.147v-108.05M643.99 546.147v-94.544M646.287 546.147V424.591M647.436 546.147V397.578M648.585 546.147v-108.05M649.734 546.147V505.63M650.882 546.147V303.034M652.031 546.147V424.591M655.478 546.147V316.541M656.627 546.147v-108.05M658.925 546.147v-108.05M658.925 546.147V424.591M660.073 546.147v-67.531M661.222 546.147v-13.506M663.52 546.147V411.085M664.669 546.147v-67.531M665.818 546.147v-67.531M666.967 546.147V384.072M668.116 546.147v-67.531M669.264 546.147v-67.531M671.562 546.147V505.63M672.711 546.147v-13.506M673.86 546.147V465.11M675.009 546.147v-94.544M676.158 546.147v-67.531M679.604 546.147V465.11M680.753 546.147V505.63M681.902 546.147V505.63M683.051 546.147v-54.025M684.2 546.147V424.591M685.349 546.147v-13.506M687.646 546.147v-27.012M688.795 546.147v-13.506M689.944 546.147V465.11M691.093 546.147v-27.012M692.242 546.147v-27.012M695.689 546.147v-54.025M697.986 546.147v-13.506M707.177 546.147v-13.506M714.07 546.147v-13.506M715.22 546.147v-27.012M722.113 546.147v-13.506M729.006 546.147V505.63M730.155 546.147v-13.506M748.537 546.147v-54.025M755.43 546.147v-13.506M763.472 546.147v-13.506M764.621 546.147v-13.506M770.366 546.147v-13.506M771.514 546.147v-27.012M779.557 546.147v-27.012M780.705 546.147V465.11M784.152 546.147V262.515M785.3 546.147v-27.012M786.45 546.147v-13.506M787.599 546.147v-94.544M788.748 546.147v-67.531M792.194 546.147v-94.544M793.343 546.147V505.63M794.492 546.147v-13.506M795.64 546.147v-27.012M796.79 546.147v-13.506M800.236 546.147V411.085M801.385 546.147V505.63M802.534 546.147V465.11M803.683 546.147V465.11M804.832 546.147v-27.012M808.278 546.147V411.085M809.427 546.147v-27.012" style="fill:none;stroke:#000;stroke-dasharray:1.5,2.475;stroke-dashoffset:0;stroke-width:1.5"/></g><path clip-path="url(#p10a70f2f9b)" d="M149.973 546.147h65.486l1.149-1.929h2.297l1.15-.965h1.148l2.298-5.788 1.149-5.789 1.149-.964 1.148-2.895 1.15-1.929 1.148-4.824 1.149-7.718 1.149-6.753h1.149l1.149-5.788 1.149-15.436 1.148-9.647 1.15-2.894 1.148-1.93h1.149l1.149-3.859 1.149-5.788 1.149.965 1.149 1.929 1.148-.965 1.15 3.86 1.148 2.893 1.149-2.894 1.149.965 1.149 12.541 1.149 10.613 1.149-1.93 1.148 1.93 1.15-1.93 1.148 4.824h3.447l1.149.965 1.149 3.858 3.446 5.789h2.298l1.149 4.824 1.149 2.894 2.297 9.647 1.15 5.788 1.148 1.93h1.149l1.149.965 1.149-3.86 1.149.965 2.297 3.86 1.15 2.894h2.297l1.149-.965h2.298l1.149.965h2.297l1.15 3.859 1.148 2.894 2.298 1.93 1.149-.965h2.297l1.15-2.895h9.19l1.15-.964h1.148l1.149.964h2.298l1.149 2.895h6.893l1.149-1.93 1.149.965h1.148l1.15-.965h3.446l1.149-3.859 1.149.965 1.149-.965h4.595l1.149-3.859 1.149-.965 1.149.965h1.149l1.148-.965h2.298l1.15 1.93 1.148-.965 1.149.965h4.595l1.15 5.788 1.148-1.93 1.149-.964h1.149l1.149 1.93h2.297l2.298 1.929h1.15l1.148-.965h3.447l1.148-.964 1.15 2.894h1.148l1.15.965h3.446l1.149.964h1.148l1.15-.964 1.148.964 1.15-.964h4.595l1.148.964 2.298-1.93h3.447l1.149-1.929h1.149l1.148-.964 1.15.964h4.595l1.149-3.859 2.297 1.93h3.447l1.149-.965 2.298 1.93h5.744l1.149 1.929 1.149-.965h3.446l1.15-2.894 1.148 2.894 1.15-.964h4.595l1.148.964h1.15l1.148 1.93 1.15.965h3.446l1.149.964 1.148-.964 1.15-3.86 1.148-8.682 1.15-1.93h2.297l1.149-1.929 1.149-5.788 1.148-.965 2.298-9.647 2.298-5.789h1.149l2.298 1.93 1.148 8.682 1.15 1.93h2.297l1.149-3.86 1.149 1.93 1.149-3.859h2.297l2.298 5.789 1.15-9.648 1.148-.964 2.298-5.789 1.149-4.823h2.297l1.15-12.542h1.148l1.149 4.824 1.149-11.577 1.149-1.93h2.298l1.148-3.859 1.15-10.612 2.297-9.647 1.149-8.683 1.149-4.823h1.149l1.149 4.823 1.148-3.859 1.15-5.788 1.148 16.4 1.149 6.754 1.149-19.295h1.149l1.149 1.93 1.149 4.823 1.148.965 1.15-7.718 1.148-9.647 1.149-5.789h1.149l1.149 2.894 1.149-3.859 1.149.965 1.148-17.365 1.15-8.683 1.148 19.295h2.298l1.149-1.93 1.149 3.86 1.149 15.435 1.148 6.753 1.15 10.613h1.148l1.149-15.436 1.149 4.823 1.149-21.224 1.149 12.542 1.149 8.682h2.297l1.15-15.435 1.148 3.859 2.298-22.19 1.149 16.401h2.297l1.15-5.788 1.148-10.612 1.149 12.541 1.149-9.647 1.149-11.577 1.149-9.647h1.149l1.148 7.718 1.15-5.789 1.148 3.86 1.149.964 1.149-9.647h2.298l1.149 31.836 1.148-2.894 1.15 3.859 1.148 10.612 1.149 8.682 1.149 9.648h1.149l1.149-8.683 1.149 6.753 1.148 8.683 1.15 3.859 1.148-5.789 1.149-4.823h2.298l1.149 20.259 1.149-15.436 2.297-7.718h2.298l1.149 14.471 1.149-2.894 1.149.965h1.149l1.148 10.612 1.15-1.93h2.297l1.149-13.506 1.149 20.26 1.149 4.823 1.149 1.93h1.148l1.15-6.753 1.148 11.576 2.298 1.93 1.149-6.753 1.149-3.86 1.149 6.754h1.148l1.15-15.436 1.148 3.86 1.15-.966h1.148l1.149-8.682h1.149l1.149 6.753 1.148-9.647 1.15 1.93 1.148-3.86 1.15-.965 1.148 3.86h2.298l1.149-6.754 1.148 2.894 1.15-1.929h1.148l1.15 8.683h2.297l1.149-9.648 1.149-1.93 1.148.966 1.15 5.788 1.148-1.93h1.15l1.148-8.682 1.149 11.577 1.149-.965 1.149 4.824 1.148-14.471 1.15-3.86h2.297l1.149 6.754 1.149-1.93 2.298-.964v-.965l1.148 1.93 1.15-.965 1.148 8.682 1.15.965 1.148 2.894 1.149-1.93 1.149 5.79 1.149 3.858 1.148-4.824h1.15l1.148 13.507 1.15 6.753 2.297 3.859h1.149l1.149.964h1.148l1.15 3.86 2.297 3.858 1.149 7.718 1.149-3.859 1.149 3.86h1.149l1.148.964h2.298l1.15 4.824 1.148 2.894h2.298l1.149 1.93 1.148 2.893 1.15 1.93 1.148 3.859 1.15 8.682 1.148.965h1.149l1.149 1.93 1.149.964 1.148 5.789 1.15.965 1.148 1.929h2.298l1.149 3.859h2.298l1.148-1.93h5.745l1.149-.964 1.149.965h4.595l1.149-2.895h1.149l1.149 1.93h5.744l1.149.965h5.744l1.15 2.894 1.148.964h1.149l1.149-3.858h5.744l1.15-.965h6.892l1.15-.965 1.148 2.894h4.596l2.297-1.93h6.894l1.149-.964 1.148-4.824h2.298l1.149-20.26 1.149-1.929h1.149l2.298-9.647h2.297l1.15-6.753 1.148-2.894 1.149-.965h1.149l1.149 4.824h2.297l1.15 10.612 1.148-.965 1.149-4.824 1.149.965 1.149 2.894h2.298l1.148-2.894 1.15.965h0" style="fill:none;stroke:#000;stroke-linecap:round;stroke-width:1.5" id="line2d_1"/><path d="M117 576.72V77.76" style="fill:none;stroke:#d3d3d3;stroke-linecap:square;stroke-linejoin:miter;stroke-width:1.25" id="patch_3"/><path d="M117 576.72h725.4" style="fill:none;stroke:#d3d3d3;stroke-linecap:square;stroke-linejoin:miter;stroke-width:1.25" id="patch_4"/><g id="matplotlib.axis_1"><g id="xtick_1"><g style="fill:#696969" transform="matrix(.16 0 0 -.16 114.663 598.378)" id="text_1"><defs><path d="M9.813 72.906h9.859V5.078q0-13.187-5-19.14-5-5.954-16.094-5.954h-3.75v8.297h3.078q6.531 0 9.219 3.672Q9.813-4.39 9.813 5.078z" id="DejaVuSans-74"/><path d="M34.281 27.484q-10.89 0-15.093-2.484-4.204-2.484-4.204-8.5 0-4.781 3.157-7.594 3.156-2.797 8.562-2.797 7.485 0 12 5.297 4.516 5.297 4.516 14.078v2zm17.922 3.72V0H43.22v8.297Q40.14 3.328 35.547.953q-4.594-2.375-11.234-2.375-8.391 0-13.36 4.719Q6 8.016 6 15.922q0 9.219 6.172 13.906 6.187 4.688 18.437 4.688h12.61v.89q0 6.203-4.078 9.594-4.078 3.39-11.453 3.39-4.688 0-9.141-1.124-4.438-1.125-8.531-3.375v8.312q4.921 1.906 9.562 2.844 4.64.953 9.031.953 11.875 0 17.735-6.156 5.86-6.14 5.86-18.64z" id="DejaVuSans-97"/><path d="M54.89 33.016V0h-8.984v32.719q0 7.765-3.031 11.61-3.031 3.858-9.078 3.858-7.281 0-11.484-4.64-4.204-4.625-4.204-12.64V0H9.08v54.688h9.03v-8.5q3.235 4.937 7.594 7.374Q30.078 56 35.797 56q9.422 0 14.25-5.828 4.844-5.828 4.844-17.156z" id="DejaVuSans-110"/></defs><use xlink:href="#DejaVuSans-74"/><use x="29.492" xlink:href="#DejaVuSans-97"/><use x="90.771" xlink:href="#DejaVuSans-110"/></g></g><g id="xtick_2"><g style="fill:#696969" transform="matrix(.16 0 0 -.16 180.834 598.378)" id="text_2"><defs><path d="M9.813 72.906h14.703l18.593-49.61 18.703 49.61h14.704V0H66.89v64.016l-18.797-50h-9.907l-18.796 50V0H9.813z" id="DejaVuSans-77"/><path d="M41.11 46.297q-1.516.875-3.297 1.281Q36.03 48 33.89 48q-7.625 0-11.703-4.953-4.079-4.953-4.079-14.234V0H9.08v54.688h9.03v-8.5q2.844 4.984 7.375 7.39Q30.031 56 36.531 56q.922 0 2.047-.125 1.125-.11 2.484-.36z" id="DejaVuSans-114"/></defs><use xlink:href="#DejaVuSans-77"/><use x="86.279" xlink:href="#DejaVuSans-97"/><use x="147.559" xlink:href="#DejaVuSans-114"/></g></g><g id="xtick_3"><g style="fill:#696969" transform="matrix(.16 0 0 -.16 249.47 598.378)" id="text_3"><defs><path d="M32.172-5.078q-3.797-9.766-7.422-12.735-3.61-2.984-9.656-2.984H7.906v7.516h5.282q3.703 0 5.75 1.765Q21-9.766 23.483-3.219l1.61 4.094-22.11 53.813H12.5l17.094-42.766 17.093 42.766h9.516z" id="DejaVuSans-121"/></defs><use xlink:href="#DejaVuSans-77"/><use x="86.279" xlink:href="#DejaVuSans-97"/><use x="147.559" xlink:href="#DejaVuSans-121"/></g></g><g id="xtick_4"><g style="fill:#696969" transform="matrix(.16 0 0 -.16 326.438 598.378)" id="text_4"><defs><path d="M8.5 21.578v33.11h8.984V21.922q0-7.766 3.016-11.656 3.031-3.875 9.094-3.875 7.265 0 11.484 4.64 4.234 4.64 4.234 12.656v31h8.985V0h-8.984v8.406Q42.047 3.422 37.718 1q-4.313-2.422-10.032-2.422-9.421 0-14.312 5.86Q8.5 10.296 8.5 21.578zM31.11 56z" id="DejaVuSans-117"/><path d="M9.422 75.984h8.984V0H9.422z" id="DejaVuSans-108"/></defs><use xlink:href="#DejaVuSans-74"/><use x="29.492" xlink:href="#DejaVuSans-117"/><use x="92.871" xlink:href="#DejaVuSans-108"/></g></g><g id="xtick_5"><g style="fill:#696969" transform="matrix(.16 0 0 -.16 392.24 598.378)" id="text_5"><defs><path d="M53.516 70.516V60.89q-5.61 2.687-10.594 4-4.984 1.328-9.625 1.328-8.047 0-12.422-3.125t-4.375-8.89q0-4.845 2.906-7.313 2.907-2.453 11.016-3.97l5.953-1.218q11.031-2.11 16.281-7.406 5.25-5.297 5.25-14.172 0-10.61-7.11-16.078-7.093-5.469-20.812-5.469-5.172 0-11.015 1.172Q13.14.922 6.89 3.219v10.156q6-3.36 11.765-5.078 5.766-1.703 11.328-1.703 8.438 0 13.032 3.312 4.593 3.328 4.593 9.485 0 5.359-3.297 8.39-3.296 3.032-10.812 4.547L27.484 33.5q-11.03 2.188-15.968 6.875-4.922 4.688-4.922 13.047 0 9.672 6.812 15.234 6.813 5.563 18.766 5.563 5.14 0 10.453-.938 5.328-.922 10.89-2.765z" id="DejaVuSans-83"/><path d="M56.203 29.594v-4.39H14.891q.593-9.282 5.593-14.142 5-4.859 13.938-4.859 5.172 0 10.031 1.266 4.86 1.265 9.656 3.812v-8.5Q49.266.734 44.187-.344 39.11-1.422 33.892-1.422q-13.094 0-20.735 7.61-7.64 7.625-7.64 20.625 0 13.421 7.25 21.296Q20.016 56 32.328 56q11.031 0 17.453-7.11 6.422-7.093 6.422-19.296zm-8.984 2.64q-.094 7.36-4.125 11.75-4.032 4.407-10.672 4.407-7.516 0-12.031-4.25-4.516-4.25-5.203-11.97z" id="DejaVuSans-101"/><path d="M18.11 8.203v-29H9.077v75.484h9.031v-8.296q2.844 4.875 7.157 7.234Q29.594 56 35.594 56q9.968 0 16.187-7.906 6.235-7.907 6.235-20.797T51.78 6.484q-6.218-7.906-16.187-7.906-6 0-10.328 2.375-4.313 2.375-7.157 7.25zm30.578 19.094q0 9.906-4.079 15.547-4.078 5.64-11.203 5.64-7.14 0-11.218-5.64-4.079-5.64-4.079-15.547 0-9.906 4.078-15.547 4.079-5.64 11.22-5.64 7.124 0 11.202 5.64t4.078 15.547z" id="DejaVuSans-112"/></defs><use xlink:href="#DejaVuSans-83"/><use x="63.477" xlink:href="#DejaVuSans-101"/><use x="125" xlink:href="#DejaVuSans-112"/></g></g><g id="xtick_6"><g style="fill:#696969" transform="matrix(.16 0 0 -.16 461.787 598.378)" id="text_6"><defs><path d="M9.813 72.906h13.28l32.329-60.984v60.984h9.562V0h-13.28L19.39 60.984V0H9.813z" id="DejaVuSans-78"/><path d="M30.61 48.39q-7.22 0-11.422-5.64-4.204-5.64-4.204-15.453 0-9.813 4.172-15.453 4.188-5.64 11.453-5.64 7.188 0 11.375 5.655 4.203 5.672 4.203 15.438 0 9.719-4.203 15.406-4.187 5.688-11.375 5.688zm0 7.61q11.718 0 18.406-7.625 6.703-7.61 6.703-21.078 0-13.422-6.703-21.078-6.688-7.64-18.407-7.64-11.765 0-18.437 7.64-6.656 7.656-6.656 21.078 0 13.469 6.656 21.078Q18.844 56 30.609 56z" id="DejaVuSans-111"/><path d="M2.984 54.688H12.5L29.594 8.797l17.093 45.89h9.516L35.687 0H23.485z" id="DejaVuSans-118"/></defs><use xlink:href="#DejaVuSans-78"/><use x="74.805" xlink:href="#DejaVuSans-111"/><use x="135.986" xlink:href="#DejaVuSans-118"/></g></g><g id="xtick_7"><g style="fill:#696969" transform="matrix(.16 0 0 -.16 535.151 598.378)" id="text_7"><use xlink:href="#DejaVuSans-74"/><use x="29.492" xlink:href="#DejaVuSans-97"/><use x="90.771" xlink:href="#DejaVuSans-110"/></g></g><g id="xtick_8"><g style="fill:#696969" transform="matrix(.16 0 0 -.16 600.174 598.378)" id="text_8"><use xlink:href="#DejaVuSans-77"/><use x="86.279" xlink:href="#DejaVuSans-97"/><use x="147.559" xlink:href="#DejaVuSans-114"/></g></g><g id="xtick_9"><g style="fill:#696969" transform="matrix(.16 0 0 -.16 668.809 598.378)" id="text_9"><use xlink:href="#DejaVuSans-77"/><use x="86.279" xlink:href="#DejaVuSans-97"/><use x="147.559" xlink:href="#DejaVuSans-121"/></g></g><g id="xtick_10"><g style="fill:#696969" transform="matrix(.16 0 0 -.16 745.778 598.378)" id="text_10"><use xlink:href="#DejaVuSans-74"/><use x="29.492" xlink:href="#DejaVuSans-117"/><use x="92.871" xlink:href="#DejaVuSans-108"/></g></g><g id="xtick_11"><g style="fill:#696969" transform="matrix(.16 0 0 -.16 811.58 598.378)" id="text_11"><use xlink:href="#DejaVuSans-83"/><use x="63.477" xlink:href="#DejaVuSans-101"/><use x="125" xlink:href="#DejaVuSans-112"/></g></g></g><g id="matplotlib.axis_2"><g id="ytick_1"><g style="fill:#696969" transform="matrix(.16 0 0 -.16 97.32 552.226)" id="text_12"><defs><path d="M31.781 66.406q-7.61 0-11.453-7.5Q16.5 51.422 16.5 36.375q0-14.984 3.828-22.484 3.844-7.5 11.453-7.5 7.672 0 11.5 7.5 3.844 7.5 3.844 22.484 0 15.047-3.844 22.531-3.828 7.5-11.5 7.5zm0 7.813q12.266 0 18.735-9.703 6.468-9.688 6.468-28.141 0-18.406-6.468-28.11-6.47-9.687-18.735-9.687-12.25 0-18.718 9.688-6.47 9.703-6.47 28.109 0 18.453 6.47 28.14Q19.53 74.22 31.78 74.22z" id="DejaVuSans-48"/></defs><use xlink:href="#DejaVuSans-48"/></g></g><g id="ytick_2"><g style="fill:#696969" transform="matrix(.16 0 0 -.16 97.32 484.695)" id="text_13"><defs><path d="M10.797 72.906h38.719v-8.312H19.828v-17.86q2.14.735 4.281 1.094 2.157.36 4.313.36 12.203 0 19.328-6.688 7.14-6.688 7.14-18.11 0-11.765-7.328-18.296-7.328-6.516-20.656-6.516-4.593 0-9.36.781-4.75.782-9.827 2.344v9.922q4.39-2.39 9.078-3.563 4.687-1.171 9.906-1.171 8.453 0 13.375 4.437 4.938 4.438 4.938 12.063 0 7.609-4.938 12.047-4.922 4.453-13.375 4.453-3.953 0-7.89-.875-3.922-.875-8.016-2.735z" id="DejaVuSans-53"/></defs><use xlink:href="#DejaVuSans-53"/></g></g><g id="ytick_3"><g style="fill:#696969" transform="matrix(.16 0 0 -.16 87.14 417.163)" id="text_14"><defs><path d="M12.406 8.297h16.11v55.625l-17.532-3.516v8.985l17.438 3.515h9.86V8.296H54.39V0H12.406z" id="DejaVuSans-49"/></defs><use xlink:href="#DejaVuSans-49"/><use x="63.623" xlink:href="#DejaVuSans-48"/></g></g><g id="ytick_4"><g style="fill:#696969" transform="matrix(.16 0 0 -.16 87.14 349.632)" id="text_15"><use xlink:href="#DejaVuSans-49"/><use x="63.623" xlink:href="#DejaVuSans-53"/></g></g><g id="ytick_5"><g style="fill:#696969" transform="matrix(.16 0 0 -.16 87.14 282.1)" id="text_16"><defs><path d="M19.188 8.297h34.421V0H7.33v8.297q5.609 5.812 15.296 15.594 9.703 9.797 12.188 12.64 4.734 5.313 6.609 9 1.89 3.688 1.89 7.25 0 5.813-4.078 9.469-4.078 3.672-10.625 3.672-4.64 0-9.797-1.61-5.14-1.609-11-4.89v9.969Q13.767 71.78 18.938 73q5.188 1.219 9.485 1.219 11.328 0 18.062-5.672 6.735-5.656 6.735-15.125 0-4.5-1.688-8.531-1.672-4.016-6.125-9.485-1.218-1.422-7.765-8.187-6.532-6.766-18.453-18.922z" id="DejaVuSans-50"/></defs><use xlink:href="#DejaVuSans-50"/><use x="63.623" xlink:href="#DejaVuSans-48"/></g></g><g id="ytick_6"><g style="fill:#696969" transform="matrix(.16 0 0 -.16 87.14 214.569)" id="text_17"><use xlink:href="#DejaVuSans-50"/><use x="63.623" xlink:href="#DejaVuSans-53"/></g></g><g id="ytick_7"><g style="fill:#696969" transform="matrix(.16 0 0 -.16 87.14 147.038)" id="text_18"><defs><path d="M40.578 39.313Q47.656 37.797 51.625 33q3.984-4.781 3.984-11.813 0-10.78-7.422-16.703-7.421-5.906-21.093-5.906-4.578 0-9.438.906-4.86.907-10.031 2.72v9.515q4.094-2.39 8.969-3.61 4.89-1.218 10.218-1.218 9.266 0 14.125 3.656 4.86 3.656 4.86 10.64 0 6.454-4.516 10.079-4.515 3.64-12.562 3.64h-8.5v8.11h8.89q7.266 0 11.125 2.906 3.86 2.906 3.86 8.375 0 5.61-3.985 8.61-3.968 3.015-11.39 3.015-4.063 0-8.703-.89-4.641-.876-10.203-2.72v8.782q5.624 1.562 10.53 2.344 4.907.78 9.25.78 11.235 0 17.766-5.109 6.547-5.093 6.547-13.78 0-6.063-3.468-10.235-3.47-4.172-9.86-5.782z" id="DejaVuSans-51"/></defs><use xlink:href="#DejaVuSans-51"/><use x="63.623" xlink:href="#DejaVuSans-48"/></g></g><g style="fill:#696969" transform="matrix(0 -.2 -.2 0 78.98 379.813)" id="text_19"><defs><path d="M51.125 44H36.922l-4.11-16.313h14.313zm-7.328 27.781-5.078-20.265h14.265L58.11 71.78h7.813L60.89 51.516h15.234V44h-17.14l-4-16.313h15.53V20.22H53.079L48 0h-7.813l5.032 20.219H30.906L25.875 0h-7.86l5.079 20.219H7.719v7.468h17.187L29 44H13.281v7.516h17.625l4.985 20.265z" id="DejaVuSans-35"/><path d="M37.11 75.984V68.5h-8.594q-4.828 0-6.72-1.953-1.874-1.953-1.874-7.031v-4.828h14.797v-6.985H19.922V0H10.89v47.703H2.297v6.984h8.594V58.5q0 9.125 4.25 13.297 4.25 4.187 13.468 4.187z" id="DejaVuSans-102"/><path d="M48.781 52.594v-8.407q-3.812 2.11-7.64 3.157-3.828 1.047-7.735 1.047-8.75 0-13.593-5.547-4.829-5.532-4.829-15.547 0-10.016 4.829-15.563 4.843-5.53 13.593-5.53 3.907 0 7.735 1.046 3.828 1.047 7.64 3.156V2.094Q45.016.344 40.984-.531q-4.015-.89-8.562-.89-12.36 0-19.64 7.765-7.266 7.765-7.266 20.953 0 13.375 7.343 21.031Q20.22 56 33.016 56q4.14 0 8.093-.86 3.953-.843 7.672-2.546z" id="DejaVuSans-99"/><path d="M44.281 53.078v-8.5q-3.797 1.953-7.906 2.922-4.094.984-8.5.984-6.688 0-10.031-2.047-3.344-2.046-3.344-6.156 0-3.125 2.39-4.906 2.391-1.781 9.626-3.39l3.078-.688q9.562-2.047 13.593-5.781 4.032-3.735 4.032-10.422 0-7.625-6.032-12.078-6.03-4.438-16.578-4.438-4.39 0-9.156.86Q10.688.296 5.422 2v9.281q4.984-2.594 9.812-3.89 4.829-1.282 9.579-1.282 6.343 0 9.75 2.172 3.421 2.172 3.421 6.125 0 3.656-2.468 5.61-2.453 1.953-10.813 3.765l-3.125.735q-8.344 1.75-12.062 5.39-3.704 3.64-3.704 9.985 0 7.718 5.47 11.906Q16.75 56 26.811 56q4.97 0 9.36-.734 4.406-.72 8.11-2.188z" id="DejaVuSans-115"/></defs><use xlink:href="#DejaVuSans-35"/><use x="83.789" xlink:href="#DejaVuSans-32"/><use x="115.576" xlink:href="#DejaVuSans-111"/><use x="176.758" xlink:href="#DejaVuSans-102"/><use x="211.963" xlink:href="#DejaVuSans-32"/><use x="243.75" xlink:href="#DejaVuSans-99"/><use x="298.73" xlink:href="#DejaVuSans-97"/><use x="360.01" xlink:href="#DejaVuSans-115"/><use x="412.109" xlink:href="#DejaVuSans-101"/><use x="473.633" xlink:href="#DejaVuSans-115"/></g></g><g style="fill:#696969" transform="matrix(.24 0 0 -.24 308.75 71.76)" id="text_20"><defs><path d="M44.39 34.188q3.172-1.079 6.172-4.594 3-3.516 6.032-9.672L66.609 0H56l-9.313 18.703q-3.624 7.328-7.015 9.719-3.39 2.39-9.25 2.39h-10.75V0h-9.86v72.906h22.266q12.5 0 18.656-5.234 6.157-5.219 6.157-15.766 0-6.89-3.203-11.437-3.204-4.532-9.297-6.282zM19.673 64.797V38.922h12.406q7.125 0 10.766 3.297 3.64 3.297 3.64 9.687 0 6.39-3.64 9.64-3.64 3.25-10.766 3.25z" id="DejaVuSans-82"/><path d="M18.313 70.219V54.688h18.5v-6.985h-18.5V18.016q0-6.688 1.828-8.594 1.828-1.906 7.453-1.906h9.218V0h-9.218q-10.407 0-14.36 3.875-3.953 3.89-3.953 14.14v29.688H2.687v6.984h6.594V70.22z" id="DejaVuSans-116"/><path d="M54.89 33.016V0h-8.984v32.719q0 7.765-3.031 11.61-3.031 3.858-9.078 3.858-7.281 0-11.484-4.64-4.204-4.625-4.204-12.64V0H9.08v75.984h9.03V46.188q3.235 4.937 7.594 7.374Q30.078 56 35.797 56q9.422 0 14.25-5.828 4.844-5.828 4.844-17.156z" id="DejaVuSans-104"/><path d="M45.406 46.39v29.594h8.985V0h-8.985v8.203Q42.578 3.328 38.25.953q-4.313-2.375-10.375-2.375-9.906 0-16.14 7.906-6.22 7.922-6.22 20.813 0 12.89 6.22 20.797Q17.968 56 27.874 56q6.063 0 10.375-2.375 4.328-2.36 7.156-7.234zm-30.61-19.093q0-9.906 4.079-15.547 4.078-5.64 11.203-5.64 7.125 0 11.219 5.64 4.11 5.64 4.11 15.547 0 9.906-4.11 15.547-4.094 5.64-11.219 5.64-7.125 0-11.203-5.64-4.078-5.64-4.078-15.547z" id="DejaVuSans-100"/><path d="M4.203 54.688h8.985l11.234-42.672 11.172 42.672h10.593l11.235-42.672 11.187 42.672h8.985L63.28 0H52.688L40.922 44.828 29.109 0H18.5z" id="DejaVuSans-119"/><path d="M64.406 67.281v-10.39q-4.984 4.64-10.625 6.922-5.64 2.296-11.984 2.296-12.5 0-19.14-7.64-6.641-7.64-6.641-22.094 0-14.406 6.64-22.047 6.64-7.64 19.14-7.64 6.345 0 11.985 2.296 5.64 2.297 10.625 6.938V5.609Q59.234 2.094 53.437.33q-5.78-1.75-12.218-1.75-16.563 0-26.094 10.124-9.516 10.14-9.516 27.672 0 17.578 9.516 27.703 9.531 10.14 26.094 10.14 6.531 0 12.312-1.734 5.797-1.734 10.875-5.203z" id="DejaVuSans-67"/><path d="M9.422 54.688h8.984V0H9.422zm0 21.296h8.984v-11.39H9.422z" id="DejaVuSans-105"/></defs><use xlink:href="#DejaVuSans-82"/><use x="64.982" xlink:href="#DejaVuSans-117"/><use x="128.361" xlink:href="#DejaVuSans-116"/><use x="167.57" xlink:href="#DejaVuSans-104"/><use x="230.949" xlink:href="#DejaVuSans-101"/><use x="292.473" xlink:href="#DejaVuSans-114"/><use x="333.586" xlink:href="#DejaVuSans-102"/><use x="368.791" xlink:href="#DejaVuSans-111"/><use x="429.973" xlink:href="#DejaVuSans-114"/><use x="469.336" xlink:href="#DejaVuSans-100"/><use x="532.813" xlink:href="#DejaVuSans-32"/><use x="564.6" xlink:href="#DejaVuSans-78"/><use x="639.404" xlink:href="#DejaVuSans-101"/><use x="700.928" xlink:href="#DejaVuSans-119"/><use x="782.715" xlink:href="#DejaVuSans-32"/><use x="814.502" xlink:href="#DejaVuSans-67"/><use x="884.326" xlink:href="#DejaVuSans-111"/><use x="945.508" xlink:href="#DejaVuSans-118"/><use x="1004.688" xlink:href="#DejaVuSans-105"/><use x="1032.471" xlink:href="#DejaVuSans-100"/><use x="1095.947" xlink:href="#DejaVuSans-32"/><use x="1127.734" xlink:href="#DejaVuSans-67"/><use x="1197.559" xlink:href="#DejaVuSans-97"/><use x="1258.838" xlink:href="#DejaVuSans-115"/><use x="1310.938" xlink:href="#DejaVuSans-101"/><use x="1372.461" xlink:href="#DejaVuSans-115"/></g><g id="legend_1"><path d="M686.525 161.015H831.2q3.2 0 3.2-3.2V88.96q0-3.2-3.2-3.2H686.525q-3.2 0-3.2 3.2v68.855q0 3.2 3.2 3.2z" style="fill:none;opacity:.8;stroke:#ccc;stroke-linejoin:miter" id="patch_5"/><path d="M689.725 98.718h32" style="fill:none;stroke:#000;stroke-linecap:round;stroke-width:1.5" id="line2d_4"/><g style="fill:#696969" transform="matrix(.16 0 0 -.16 734.525 104.317)" id="text_21"><defs><path d="M37.797 64.313 12.89 25.39h24.906zm-2.594 8.593H47.61V25.391h10.407v-8.203H47.609V0h-9.812v17.188H4.89v9.515z" id="DejaVuSans-52"/><path d="M45.406 27.984q0 9.766-4.031 15.125-4.016 5.375-11.297 5.375-7.219 0-11.25-5.375-4.031-5.359-4.031-15.125 0-9.718 4.031-15.093t11.25-5.375q7.281 0 11.297 5.375 4.031 5.375 4.031 15.093zm8.985-21.203q0-13.953-6.203-20.765Q42-20.797 29.203-20.797q-4.734 0-8.937.703-4.203.703-8.157 2.172v8.735q3.954-2.141 7.813-3.157 3.86-1.031 7.86-1.031 8.843 0 13.234 4.61 4.39 4.609 4.39 13.937v4.453q-2.781-4.844-7.125-7.234Q33.938 0 27.875 0 17.828 0 11.672 7.656q-6.156 7.672-6.156 20.328 0 12.688 6.156 20.344Q17.828 56 27.875 56q6.063 0 10.406-2.39 4.344-2.391 7.125-7.22v8.297h8.985z" id="DejaVuSans-103"/></defs><use xlink:href="#DejaVuSans-49"/><use x="63.623" xlink:href="#DejaVuSans-52"/><use x="127.246" xlink:href="#DejaVuSans-100"/><use x="190.723" xlink:href="#DejaVuSans-32"/><use x="222.51" xlink:href="#DejaVuSans-97"/><use x="283.789" xlink:href="#DejaVuSans-118"/><use x="342.969" xlink:href="#DejaVuSans-103"/></g><path d="M689.725 127.802h32v-11.2h-32z" style="fill:#089fff;opacity:.2;stroke:#fff;stroke-linejoin:miter" id="patch_6"/><g style="fill:#696969" transform="matrix(.16 0 0 -.16 734.525 127.802)" id="text_22"><defs><path d="M8.688 72.906h9.921V28.61q0-11.718 4.235-16.875 4.25-5.14 13.781-5.14 9.469 0 13.719 5.14 4.25 5.157 4.25 16.875v44.297H64.5V27.391q0-14.25-7.063-21.532-7.046-7.28-20.812-7.28-13.828 0-20.89 7.28-7.047 7.282-7.047 21.532z" id="DejaVuSans-85"/></defs><use xlink:href="#DejaVuSans-85"/><use x="73.193" xlink:href="#DejaVuSans-110"/><use x="136.572" xlink:href="#DejaVuSans-99"/><use x="191.553" xlink:href="#DejaVuSans-101"/><use x="253.076" xlink:href="#DejaVuSans-114"/><use x="294.189" xlink:href="#DejaVuSans-116"/><use x="333.398" xlink:href="#DejaVuSans-97"/><use x="394.678" xlink:href="#DejaVuSans-105"/><use x="422.461" xlink:href="#DejaVuSans-110"/><use x="485.84" xlink:href="#DejaVuSans-116"/><use x="525.049" xlink:href="#DejaVuSans-121"/></g><path d="M705.725 151.287v-7.7" style="fill:none;stroke:#000;stroke-dasharray:2.25,3.7125;stroke-dashoffset:0;stroke-width:1.5" id="line2d_6"/><g style="fill:#696969" transform="matrix(.16 0 0 -.16 734.525 151.287)" id="text_23"><defs><path d="M19.672 64.797V8.109h11.922q15.093 0 22.093 6.829 7 6.843 7 21.593 0 14.64-7 21.453-7 6.813-22.093 6.813zm-9.86 8.11h20.266q21.188 0 31.094-8.813 9.922-8.813 9.922-27.563 0-18.86-9.969-27.703Q51.172 0 30.078 0H9.813z" id="DejaVuSans-68"/></defs><use xlink:href="#DejaVuSans-68"/><use x="77.002" xlink:href="#DejaVuSans-97"/><use x="138.281" xlink:href="#DejaVuSans-105"/><use x="166.064" xlink:href="#DejaVuSans-108"/><use x="193.848" xlink:href="#DejaVuSans-121"/><use x="253.027" xlink:href="#DejaVuSans-32"/><use x="284.814" xlink:href="#DejaVuSans-67"/><use x="354.639" xlink:href="#DejaVuSans-97"/><use x="415.918" xlink:href="#DejaVuSans-115"/><use x="468.018" xlink:href="#DejaVuSans-101"/><use x="529.541" xlink:href="#DejaVuSans-115"/></g></g></g></g><defs><clipPath id="p10a70f2f9b"><path d="M117 77.76h725.4v498.96H117z"/></clipPath></defs></svg>