<svg height="864" viewBox="0 0 936 648" width="1248" xmlns="http://www.w3.org/2000/svg" xmlns:xlink="http://www.w3.org/1999/xlink"><defs><style>*{stroke-linecap:butt;stroke-linejoin:round}</style></defs><g id="figure_1"><path d="M0 648h936V0H0z" style="fill:#fff" id="patch_1"/><g id="axes_1"><path d="M117 576.72h725.4V77.76H117z" style="fill:none" id="patch_2"/><path clip-path="url(#p511abd2b39)" d="m149.973 340.626 44.238-.113 5.144-.276 2.057-.344 1.029-.374 2.058-1.121 1.028-.81 2.058-1.898 3.086-3.75 1.03-1.465 2.057-2.065 1.029-1.355 3.086-3.046 1.029-.857 2.057.086 1.029.335 2.058 1.599 1.028 1.105 1.03 1.876 1.028.885 6.173 10.268 2.057 1.75 2.058 1.372 1.029.295 1.028-.427 1.03-.983 1.028.014 1.029-.1 1.029-.291 3.086.17 1.029.17 1.029-.128 1.028.3 1.03-.025 1.028.089 1.029.423 2.057 2.32 1.03.756 2.057.073 1.028.113 2.058-.341 1.029-.39 1.029.074 1.028-.57 1.03.04 1.028-.416 1.029-.068 2.057-.743 1.03-.716 1.028-.169 2.058.172 1.028.178 3.087-.67 1.029.147 1.028-.337 2.058.037 1.029-.69 1.028-.054 1.03.317 2.057.091 1.029-.752 1.028-.504 1.03.415 1.028-.176 2.058.102 1.028-.438 1.03-.164 1.028-.602 1.029-.123 1.029-.793 1.028-.97 1.03-1.47 1.028-1.272 1.029-.887 1.028-1.207 1.03-1.874 1.028-.78 1.029-1.32 2.057-1.505 2.058-2.063 1.029-.658 1.029-.106 2.057.473 1.029.469 1.029.194 1.029.92 1.028.378 2.058-.037 1.029-.546 1.028.19 1.03.428 1.028-.147 1.029.934 1.029.626 1.028.083 1.03.994 1.028.63 1.029.846 1.029 1.048 1.028.887 1.03.668 1.028 2.209 2.058 2.997 1.028 1.24 1.03 1.764 1.028.747 1.029 1.222 1.029.826 2.057 2.016 1.029 1.514 1.029.602 1.028 1.102 1.03.62 1.028-.602 1.029-.041 1.029-.207 1.028-.367 1.03.25 1.028-.288 1.029-.57 1.029.305 1.028-.214 1.03.058 1.028-.188 1.029-.356 1.029.264 1.028.432 1.03.784 1.028-.334 1.029.404 1.028-.184 1.03-.318 1.028.083 1.029-.427 1.029-.78 1.028-.6 1.03-1.568 1.028.168 1.029-.923 1.029-1.673 1.028-.352 1.03-.667 1.028 1.487 1.029 1.157 1.029.149 1.028.829 2.058.502 1.029-.235 1.028-1.637 1.03-.566 1.028-1.97 1.029-.676 1.029.441 1.028-.53 1.03-.674 1.028-3.076 1.029-1.39 1.029-.146 1.028-.861 1.03-1.07 1.028-.423 1.029.251 1.029 3.069 1.028.415 2.058 1.2 1.029.243 1.028-.249 1.03.55 1.028-.732 1.029-.104 2.057-1.962 1.03.032 1.028-.312 1.029-.919 1.029-.334 2.057-1.21 1.029-.811 1.029-1.31 1.029.417 1.028-.559 1.03.799 1.028-.737 1.029.689 1.029.02 1.028-.99 1.03-2.298 1.028-.22 1.029-2.47 1.028-.237 1.03-1.132 1.028-.687 1.029-.321 1.029-.473 1.028-1.191 1.03-.204 1.028-1.238 2.058-4.47 2.057-3.563 1.029-1.82 1.029-2.851 1.029-3.511 1.028-1.796 1.03-2.801 1.028-3.57 1.029-2.875 2.057-3.563 2.058-.74 1.029.715 1.028 1.632 1.03 3.017 2.057 4.92 1.029 3.255 1.028 2.773 1.03 13.274 1.028 4.364 1.029 5.613 1.029 3.815 1.028 5.033 1.03 1.623 1.028.924 1.029-9.514 1.028-.855 1.03-4.333 1.028-3.16 1.029-2.492 1.029-2.016 1.028-1.071 1.03-9.63 1.028-4.414 1.029-2.339 1.029-1.776 1.028-.872 1.03 2.4 1.028-.474 1.029 10.704 1.029 5.742 1.028 7.11 2.058 7.99 2.058 7.6 1.028 5.41 1.03 20.873 1.028-2.212 1.029 4.2 1.028.928 1.03-1.67 1.028 2.504 1.029-2.62 1.029-7.917 1.028-9.25 1.03-5.653 1.028-6.51 1.029-3.715 1.029-4.614 1.028-9.788 1.03-31.798 1.028 6.557 1.029-3.594 1.029 1.361 1.028.464 1.03 2.913 1.028 8.198 1.029 11.226 1.028 13.029 1.03 9.2 1.028 15.491 2.058 15.479 1.028 10.294 1.03 21.125 1.028-.567 1.029 4.913 1.029-4.287 1.028 3.272 1.03.323 1.028-1.728 1.029-3.556 1.029-1.634 1.028-2.336 1.03-7.376 2.057-1.664 1.028-.89 1.03-1.379 1.028-.568 1.029-1.455 1.029 6.732 1.028-1.825 2.058-.924 1.029.306 1.029-1.446 1.028.797 1.03 2.406 1.028-.37 1.029-1.127 1.029-.7 2.057-2.87 1.029-1.875 1.029-5.555 3.086-8.538 1.029-3.159 1.029-1.386 1.028-2.013 1.03-3.657 2.057-3.644 1.029-2.434 2.057-1.867 1.029.235 1.029-3.52 1.029.955 2.057 2.453 1.029.192 1.029-.002 1.029-.23 1.028 3.62 1.03-1.351 3.085-2.73 1.03-1.147 1.028-.737 1.029 4.214 1.029-.414 1.028-3.076 1.03-1.418 1.028-1.612 2.058-2.69 1.028-5.587 1.03-.717 1.028 1.33 1.029-1.047 3.086.806 1.029-.87 1.029.26 1.028 1.655 1.03.564 1.028.092 1.029.592 1.029-.087 1.028 2.165 1.03-1.032 1.028-1.531 1.029 1.553 1.029-.28 1.028 1.498 1.03-.116 1.028.788 1.029 1.678 1.029 1.927 1.028 1.122 1.03 2.885 1.028.422 2.057 3.896 1.03 2.564 1.028 1.082 2.058.412 1.028-.542 1.03-.274 3.086-1.341 1.028.255 1.03-.371 1.028.804 1.029-.053 1.029-.998 1.028-.234 2.058.226 1.029.13 1.029-.114 1.028.174 1.03 1.042 1.028-.497 1.029-.357 1.028-.111 1.03.099 1.028-.038 1.029-.496 1.029-1.027 1.028-.198 1.03-.4 1.028-.773 1.029.05 2.057.337 1.03 1.338 1.028-.619 2.058-.074 1.028 3.565 1.03-1.008 1.028-.133 1.029-1.834 1.028.351 1.03-.964 1.028.188 1.029-5.004 1.029-.48 1.028-.769 1.03-1.653 1.028.214 1.029-.029 1.029-.488 1.028-4.385 1.03-.043 1.028.15 1.029 1.384 1.029-.97 1.028.437 1.03-.646 1.028 4.036 1.029-.144 1.028.063 1.03-.422 1.028-.553 1.029-.858 1.029-5.64 1.028-1.004 1.03.22 1.028-.164 1.029 1.223 1.029-1.095 1.028-1.53 1.03 1.908 1.028-1.322 1.029-.477 1.029-.272 1.028-3.254 1.03-1.354 1.028-.617 1.029 6.645 1.029-1.195 1.028-.783 1.03-.487 1.028-3.638 2.057-1.599 1.03-4.732 1.028-1.668 1.029-.564 2.057-.554 1.03-3.015 1.028-1.814 1.029-4.816 1.029-2.378 1.028-.359 1.03-.583 1.028-2.019 1.029-2.55 1.029-.591 1.028.084 1.03-1.553 1.028-.343 2.057-1.778 1.03 3.447 1.028-1.89 2.058 4.356 2.057.18 1.029-3.948 1.029 6.415 1.029 1.92 1.028.8 1.03 3.503 1.028-1.796 1.029 1.718 1.029 3.755 1.028.615 1.03 3.863 1.028-1.703 1.029 2.38 1.028.192 1.03.645 1.028 6.966 2.058-6.162 1.028 3.465 1.03 1.743 1.028 5.106 1.029-.576 1.029 21.99 1.028-14.13 2.058 6.936 1.029 1.2 1.029-.21 1.028.675 1.03-20.289 1.028 16.59 1.029 5.658 1.029.38 1.028.517 1.03-1.409 1.028.195 1.029-13.245 1.028 17.125 1.03-.43 1.028 2.293 1.029 1.231 1.029 2.56 1.028.09 1.03 23.181 1.028-13.796 1.029.522 1.029-.422 1.028.508 1.03.17 1.028.92 1.029-5.735 1.029-.836 1.028-2.109 1.03-1.697 1.028-1.473 1.029-1.015 1.028-.306 1.03 3.73 1.028-3.099 1.029.044 1.029.5 1.028.014 1.03-.375 1.028-.786 1.029-2.14 1.029 1.383 1.028 1.823 1.03-.4 1.028-.172 1.029-.332 1.029.236 1.028-3.407 1.03.967 1.028-2.864 1.029-2.165 1.028-1.648h0" style="fill:none;stroke:#000;stroke-linecap:round;stroke-width:1.5" id="line2d_1"/><path clip-path="url(#p511abd2b39)" d="m149.973 340.624 45.266-.104 3.087-.251 2.057-.623 1.03-.58 1.028-1.165 1.029-.533 1.029-1.605 1.028-2.14 1.03-3.275 1.028-2.843 1.029-2.17 1.029-8.358 3.086-20.368 1.029-8.69 1.029-4.414 1.028-10.37 1.03-2.161 1.028-8.571 1.029-5.86 1.028-2.181 1.03 2 1.028-2.04 1.029 4.279 1.029 7.391 2.057 19.56 1.029 5.283 1.029 12.264 1.029 1.219 1.028 14.105 1.03.635 2.057 20.526 1.029 3.624 1.028-1.686 1.03 7.445 1.028-7 1.029 1.616 1.028.77 1.03-4.023 1.028 2.646 1.029 1.95 1.029 7.066 1.028.986 1.03 9.41 1.028-2.87 1.029.735 1.029 2.592 1.028 5.4 1.03-1.22 1.028 9.218 1.029 1.856 1.029-.866 2.057 9.607 1.029-4.807 1.029 2.37 1.028-2.281 1.03-4.39 1.028 3.67 1.029-1.365 1.029-1.106 1.028-3.547 1.03-2.011 1.028-6.498 1.029-2.212 1.029-2.96 1.028-.374 1.03-5.357 1.028 2.533 1.029-4.734 1.029.162 1.028-2.765 1.03-1.547 1.028-3.195 1.029.043 1.029 2.927 1.028.855 1.03 3.52 1.028 2.53 1.029 1.04 1.028-2.29 1.03 1.435 1.028-2.425 1.029.1 1.029-2.123 1.028.41 1.03.928 1.028 1.915 1.029-.843 1.029-1.37 2.057-.53 1.029-2.548 1.029-1.021 1.029-.402 1.028-2.313 1.03-.74 1.028-1.252 1.029.564 1.028-6.753 1.03-1.767 1.028-.26 1.029.016 1.029.279 1.028-.202 1.03-1.454 1.028 6.428 1.029.167 1.029-.406 1.028-.109 1.03-.263 1.028.48 1.029-.426 1.029 7.554 1.028.105 1.03-.345 1.028.12 1.029-.766 2.057-.328 1.03-6.653 1.028 1.184 1.029.27 1.028 1.664 1.03.63 1.028-.108 1.029.178 1.029-.844 1.028-1.686 1.03-.812 1.028-2.19 1.029-.982 1.029-.247 2.057.298 1.029-2.089 1.029.294 1.029-.72 1.028.546 2.058.244 1.029-.585 1.028 2.855 1.03.97 1.028 1.985 1.029 1.064 1.029.394 1.028-.089 1.03-1.238 1.028.085 1.029-.208 1.029.568 1.028-.924 1.03-.054 1.028.15 1.029 2.808 1.029-.193 1.028-.975 1.03-.433 1.028.314 1.029.452 1.028.762 1.03.29 1.028.55 1.029.347 1.029-1.833 1.028-.27 1.03-.546 1.028-.781 1.029-2.425 1.029-1.435 1.028 1.063 1.03.445 1.028-.27 1.029.092 1.029-.402 1.028.623 1.03.166 1.028-1.176 1.029.607 1.028.472 1.03-.506 1.028.042 1.029-.286 1.029.302 1.028-.14 1.03-.526 1.028-.29 1.029-.166 1.029.012 1.028.197 1.03-.14 1.028-.638 1.029-1.001 1.029-.639 1.028.5 1.03-.925 1.028.367 2.057-1.407 1.03.881 1.028.41 1.029-.707 1.029.839 1.028-2.665 1.03-.248 1.028 1.44 1.029.463 1.029.809 1.028-1.273 1.03-.503 1.028 1.459 1.029.955 1.029.491 1.028-2.305 1.03-2.982 1.028.669 1.029-1.122 1.029 1.907 1.028-.425 1.03-4.092 1.028 1.048 1.029-.255 1.028-1.16 1.03-.813 1.028-2.765 1.029-3.814 1.029 2.382 1.028-.348 1.03 2.209 1.028-.685 1.029-2.638 1.029-.854 1.028.193 1.03-3.342 1.028-1.609 1.029-2.576 1.029-5.005 1.028.07 1.03-4.417 1.028-1.18 1.029-6.563 1.028-7.391 1.03-.035 1.028-.279 1.029-.835 1.029-1.075 1.028-.17 1.03 5.89 1.028 3.249 1.029-2.6 1.029 6.591 1.028 2.387 1.03 4.792 1.028 2.967 1.029 7.805 1.029 10.265 1.028 2.135 1.03-.317 1.028 2.881 1.029 1.431 2.057-9.843 1.03-10.68 1.028 3.826 1.029-2.402 1.028-.6 1.03-.139 1.028 9.6 1.029-6.896 1.029 6.757 1.028-6.289 1.03 7.12 1.028-3.844 1.029 4.583 1.029 5.114 1.028 13.811 1.03 4.526 1.028 7.735 1.029.901 1.029 4.07 1.028-.473 1.03-12.288 1.028 4.286 1.029 3.786 1.028 6.429 1.03-2.182 1.028 5.14 1.029-4.861 1.029-.754 1.028-13.774 1.03-1.272 1.028-193.292 3.086-22.936 1.03-1.376 1.028-8.092 1.029-18.685 1.029 175.318 1.028 2.831 1.03-8.188 1.028 3.013 1.029 4.243 1.028 11.31 1.03 7.194 1.028 192.738 1.029 9.925 1.029 13.82 1.028 17.122 1.03 14.253 1.028 2.904 1.029 7.117 1.029-178.091 1.028-7.067 1.03 10.27 1.028-.33 1.029-9.445 2.057 3.62 1.03-3.31 1.028 6.447 1.029.232 1.028-2.27 1.03-1.574 1.028 7.399 1.029.356 1.029 4.811 1.028-1.075 1.03-10.397 1.028-2.587 1.029 8.826 1.029-4.336 1.028 4.564 1.03 1.888 1.028-6.506 1.029-8.656 2.057-8.312 1.03.445 1.028.7 1.029-8.56 1.029 3.49 1.028 11.796 1.03.263 1.028-5.101 1.029-7.775 1.028-9.758 1.03-6.01 1.028-.29 1.029-3.226 1.029.008 2.057-3.795 1.029-1.032 1.029 8.099 1.029-5.075 1.028-4.158 1.03-1.245 1.028 1.18 1.029 4.3 1.029-1.667 1.028-.297 1.03 2.088 1.028.14 1.029-4.023 1.028-1.342 1.03-5.628 1.028.782 1.029-4.502 1.029-.964 1.028 1.16 1.03 4.445 1.028-2.665 1.029 1.5 1.029-1.844 1.028.174 1.03-1.853 1.028 3.733 1.029-3.891 2.057 9.704 1.03 2.444 1.028 4.328 1.029 8.691 1.028-3.052 1.03 2.894 1.028 5.967 1.029 2.333 1.029 6.501 1.028 3.191 1.03-.665 1.028.967 1.029 8.037 1.029-4.865 1.028-2.104 2.058-3.725 1.029-.178 1.029 2.557 1.028-2.275 1.03 4.684 1.028 1.133 1.029 4.027 1.028 41.9 1.03 3.7 1.028 2.654 1.029 2.212 1.029 4.506 1.028 5.868 1.03.998 1.028-39.765 1.029.02 1.029-1.958 1.028.553 1.03-2.54 1.028-.774 1.029-2.305 1.029-40.059 1.028-1.052 1.03 2.626 1.028-.004 1.029-1.288 1.029-4.602 1.028-1.648 1.03 37.873 1.028-4.656 1.029 1.779 1.028-3.729 1.03-4.715 1.028-2.595 1.029-3.446 1.029-2.263 1.028-.723 1.03-7.712 1.028-3.164 1.029-.998 1.029.46 1.028-.058 1.03.39 1.028 1.22 1.029.309 1.029.951 1.028 1.168 1.03-1.435 1.028.267 2.057-2.127 1.03.155 1.028-.882 1.029-1.42 1.029-.054 1.028-.205 1.03.279 1.028-1.103 1.029-.855 1.029-.034 1.028.135 1.03.557 1.028.1 1.029.391 1.029.213 1.028-.286 1.03.104 1.028-.394 1.029-.534 2.057.035 1.03.24 1.028.665 1.029-.194 2.057.143 2.058-.208 1.029.197 2.057-.704 1.029-.02 1.029-.355 1.029-.638 1.028-.476 1.03-.84 3.086-1.775 1.028-1.102 2.058-1.319 1.029-1.408 1.028-.951 1.03-.724 1.028-1.264 1.029-.74 1.029.013 1.028-.31 1.03.282 1.028-.645 1.029-.836 2.057-.762 1.03-.723 2.057-1.872 1.029.201 1.028-.344 1.03.727 2.057-.457 1.028.875 2.058-1.497 1.029-.22 1.029-1.115 1.028-2.722 1.03.877 1.028-.332 2.058 2.39 1.028.855 1.03-3.361 1.028 2.95 1.029.252 1.029-1.303 1.028 1.083 1.03.077 1.028 1.377 1.029 3.272 1.028 4.831 1.03-1.14 1.028 2.161 1.029-.305 1.029-.693 1.028-1.237 1.03 7.553 1.028-2.784 1.029 1.206 1.029-.475 1.028 7 1.03-3.013 1.028 1.408 1.029-4.939 1.029-1.818 2.057 2.154 1.029-5.465 1.029 5.388 1.029-1.005 1.028-2.194 1.03.716 1.028-.766 1.029 1.412 1.028-7.353 1.03 4.406 1.028 1.446 1.029 4.127 1.029 2.456 1.028 3.605 1.03.224 1.028 7.585 1.029-3.361 1.029 2.603 1.028 1.056 1.03 1.655 1.028-1.09 1.029-.035 1.029 1.42 1.028.854 1.03-1.717 1.028-1.292 1.029-1.09 1.028-3.01 1.03-.665 2.057-2.008 1.029 1.942 1.028-.298 1.03.298 1.028 3.407 1.029 1.06 1.029.635 1.028 1.914 1.03-.356 1.028-.491 1.029.793 1.029.34 1.028-1.81 1.03-.932 1.028-1.118 1.029-3.574 1.028-.332h0" style="fill:none;stroke:#009e73;stroke-linecap:round;stroke-width:1.5" id="line2d_2"/><path clip-path="url(#p511abd2b39)" d="m149.973 340.624 40.123-.11 5.143-.295 1.03-.11 1.028-.516h1.029l1.029-1.032 1.028-.774 1.03-1.622 1.028-5.933 1.029-1.474 1.029-.221 1.028-3.427 1.03-4.496 2.057-4.902 1.029-8.18 1.028-9.25 1.03-11.02 1.028-8.696 1.029-4.902 1.029-11.571 1.028-15.552 1.03-2.063 1.028-15.736 1.029-20.453 1.028-.074 1.03-8.807 1.028-6.45 1.029 11.535 1.029 13.23 1.028 16.067 1.03 28.487 1.028 8.881 1.029 19.458 1.029 24.765 1.028 14.225 1.03 4.643 1.028 22.074 1.029 25.612 1.029 1.548 1.028 10.982 1.03 8.587 1.028-5.602 1.029 2.285 1.028-1.548 1.03-19.716 1.028 8.992 2.058-10.06 1.028 7.96 1.03 10.724 1.028-1.364 1.029 3.575 1.029 2.58 1.028 3.906 1.03-.737 1.028 1.584 1.029-4.532 1.029-.738 1.028 4.57 1.03-6.007 1.028-8.66 1.029-3.059 1.028-4.938 1.03-1.474 1.028-4.017 1.029-6.891 1.029-.221 1.028-1.511 1.03 1.142 1.028-2.653 1.029-7.739 1.029-2.764 1.028-.479 1.03-3.943 1.028.11 1.029-4.2 1.029-2.396 1.028-8.44 1.03.738 1.028-.627 2.058 4.828 1.028 1.142 1.03-1.695 1.028 8.771 1.029-1.29 1.028-2.837 1.03 2.284 1.028.11 1.029-.183 1.029.479 1.028 1.842 1.03.958 1.028-2.21 2.058-5.123 1.028-1.806 1.03 1.843 1.028-2.654 1.029-.147 1.029 2.727 1.028-1.548 1.03-.037 1.028.922 1.029 1.842 1.028-10.76 1.03-4.054 1.028 1.88 1.029-2.654 1.029.368 1.028.074 1.03-2.248 1.028 10.135 1.029 1.216 1.029-1.917 1.028.627 1.03-.442 1.028.22 1.029-1.215 1.029 10.65 1.028 2.985 1.03-.295 1.028 3.833 1.029.147 1.028.774 1.03 1.253 1.028-10.282 1.029.037 1.029.958 1.028.258 2.058-1.99 1.029.295 1.029.442 1.028-.553 1.03-.995 1.028-2.653 1.029-.368 1.029-1.77 1.028-1.473 1.03-.516 1.028-2.617 1.029.037 1.029-.59 1.028 2.1 1.03.222 1.028 1.548 1.029.074 1.028 1.768 1.03-.663 1.028.627h1.029l1.029 2.248 1.028-.222 1.03-.884 1.028-2.285 1.029-.479 1.029-1.437 1.028-2.727 1.03.331 1.028.59 1.029 3.538 2.057 4.606 1.03 2.985 1.028 2.064 2.057-2.506 1.03-1.953 1.028 3.464 1.029-.258 1.029.184 1.028 1.253 1.03-1.29 1.028-.7 2.058-7.628 1.028.553 1.03-2.248 1.028-1.511 1.029 1.99 1.029 1.327 1.028 2.763 1.03-.147 1.028.184 1.029 1.069 1.028.59 1.03 1.695 1.028-.553 1.029-.737 1.029.258 1.028-2.174 1.03.147 1.028-.553 1.029-3.206 1.029.332 1.028.663 1.03.295 1.028.037 1.029-.81 2.057-.259 2.058-.516 1.029-.958 1.028-.405 2.058-.516 1.029 1.142 1.029-.774 1.028-1.584 1.03-.848 1.028-.405 2.058-.295 1.028-2.543 1.03-.295 1.028.737 1.029.922 1.029 1.216 1.028-1.253 1.03-1.917 1.028.774 1.029-1.437 1.029.442 1.028.185 1.03-2.285 1.028.147 1.029-.22 1.028.073 1.03 1.658 1.028-.368 1.029-4.386 1.029.442 1.028-.294 1.03 1.068 1.028-1.105 1.029-2.432 1.029 1.253 1.028.331 1.03-4.496 1.028-1.105 1.029 1.068 1.029-2.91 1.028-4.755 1.03-10.024 1.028-.663 1.029-2.616 1.028-5.565 1.03-.737 1.028-2.285 1.029.48 1.029-2.433 1.028.553 1.03 5.343 1.028 1.77 1.029-8.219 2.057 13.71 1.03 12.123 1.028-2.506 1.029 10.54 1.029 3.538 1.028 5.749 1.03-1.106 1.028 1.511 1.029-1.842 1.028-2.875 1.03-9.065 1.028-1.511 1.029 5.97 1.029.958 1.028 1.216 1.03 1.843 1.028 19.752 1.029-9.213 1.029 9.987 1.028-6.191 1.03 5.823 1.028-3.022 1.029 5.196 1.029-1.511 1.028 17.652 1.03 1.585 1.028 7.038 1.029-2.985 2.057-12.05 1.03-13.783 1.028 2.617 1.029-1.18 1.028 2.138 1.03-.48 1.028 7.26 1.029-4.9 1.029 2.763 1.028-11.535 1.03-2.763 1.028-166.313 1.029-11.83 1.029-6.044 1.028-1.179 1.03-5.97 1.028-7.665 1.029-13.746 1.029 156.916 1.028 9.508 1.03-6.634 1.028-.405 1.029 4.754 1.028 6.707 1.03 4.606 1.028 164.213 1.029 6.891 2.057 27.123 1.03 15.92 1.028 1.437 1.029 8.44 1.029-159.164 1.028-9.471 1.03 7.886 1.028 3.096 1.029-7.629 1.029 3.354 1.028.516 1.03-3.612 1.028 10.65 1.029 3.538 1.028-4.975 1.03-9.655 1.028 5.786 1.029-.369 1.029 6.007 1.028-1.474 1.03-11.534 1.028.59 1.029 8.733 1.029-2.727 2.057 8.476 1.029-12.825 1.029-7.112 1.029-2.727 1.028 4.017 1.03.958 1.028 1.437 1.029-11.608 1.029 3.98 1.028 8.292 1.03-4.68 1.028-12.604 1.029-5.38 1.028-7.113 1.03-9.213 1.028 7.518 1.029-7.334 1.029 2.506 1.028-.479 1.03 5.454 1.028-4.127 1.029 16.73 1.029-7.701 1.028 3.722 1.03-.258 1.028 8.439 1.029-3.575 1.029-1.179 1.028 2.727 1.03.995 1.028 1.364 1.029-2.47 1.028-5.527 1.03-12.677 1.028 3.906 1.029-9.913 1.029 2.911 1.028-1.843 1.03 8.44 1.028-7.85 1.029 4.901 1.029-4.496 1.028 2.138 1.03-2.285 1.028-1.18 1.029-7.406 1.029 11.313 1.028 6.78 1.03 5.344 1.028 2.248 1.029 7.924 1.028-.111 1.03.553 1.028 12.05 1.029 6.707 1.029 8.108 1.028 3.722 1.03 1.842 1.028 10.172 1.029 7.923 1.029-8.07 1.028-1.954 1.03-2.58 1.028 1.511 1.029-3.5 1.029.184 1.028-2.396 1.03 1.364 1.028-1.548 1.029 1.069 1.028 2.874 1.03 1.29 1.028-.81 1.029 1.105 1.029 2.911 1.028 5.344 1.03-.922 1.028-5.675 1.029.442 1.029-42.6 1.028-8.476 1.03-3.096 1.028-1.843 1.029-2.137 1.029-4.46 1.028-.773 1.03 39.579 1.028 10.355 1.029-2.395 1.029-5.49 1.028-2.212 1.03 2.838 1.028-2.727 1.029 42.49 1.028 7.15 1.03-2.802 1.028.7 1.029.111 1.029-1.4 1.028-1.953 1.03-44.554 1.028-13.451 1.029.995 1.029.368 1.028.184 1.03.774 1.028.369 1.029-.774 2.057-.11 1.03-3.096 1.028-1.106 1.029-.479 1.028.369 2.058-.332 1.029-1.585 1.029.443 2.057-1.364 1.029-1.843 1.029-.958 1.029-.479 1.028.11 1.03 1.033 1.028.663 2.058.737 2.057-.848 1.029.258 1.029-1.179 2.057-.11 1.03.516 2.057.184 2.057-.48 1.029.332 1.029-.258 1.029.553 1.028 1.327 1.03.995 1.028.147 1.029.48 1.029-.738 1.028-.073 2.058-1.843 3.086-3.059 2.058-1.363 2.057-1.917 1.03-1.621 1.028-2.064 1.029-1.4 1.029-.258 1.028-1.364 1.03-.11 1.028-.81 1.029-.664 1.029.59 1.028.036 1.03-1.437 1.028.11 1.029-1.584 1.029.074 1.028 1.474 1.03.958 1.028 1.474 1.029 1.695 1.028 2.396 1.03-1.106 1.028-.11 1.029-1.364 1.029.258 1.028-2.985 1.03 4.496 1.028-.737 1.029 1.437 1.029-.884 1.028 1.732 1.03-4.128 1.028 1.4 1.029-5.343 1.029-2.1 1.028 3.758 1.03 1.069 1.028 1.548 1.029 2.321 1.028 3.022 1.03-3.87 1.028 1.401 1.029-.073 1.029 1.842 1.028-2.174 1.03 8.255 1.028-1.327 1.029 5.417 1.029-.037 1.028 3.501 1.03-2.948 1.028.774 1.029-5.86 2.057 1.327 1.03 1.696 1.028-5.676 1.029 2.801h1.029l1.028-1.327 1.03-.147 1.028-1.106 1.029.774 1.028-2.58 1.03 2.838 1.028.885 1.029 1.695 2.057 2.027 1.03-1.99 1.028 6.301 1.029-2.837 1.029.184 1.028.332 1.03.59 1.028 2.469 1.029 1.437 1.029-2.322 1.028 1.622 1.03 1.363 1.028 3.612 1.029.22 1.028-1.99 1.03 1.77 1.028.184 1.029-.11 1.029.92 1.028-1.879 1.03-1.4 1.028.516 1.029-1.77 1.029 2.322 1.028 1.696 1.03-.074 1.028-2.248 1.029 1.953 1.029 1.069 1.028-2.764 1.03-3.206 1.028-1.695 1.029-2.801 1.028-.553h0" style="fill:none;stroke:#d55e00;stroke-linecap:round;stroke-width:1.5" id="line2d_3"/><path clip-path="url(#p511abd2b39)" d="M149.973 340.624h51.44l1.028-3.753h2.058l1.028-1.877h1.03l2.057-11.262 1.029-7.508 1.028-1.877 1.03-5.63 1.028-1.877 2.058-18.77 1.028-7.507 1.03 11.261 1.028-9.385 1.029-24.4 1.028-15.015 1.03 3.754 1.028 11.261 1.029 13.139 1.029-7.508h1.028l1.03 31.908 1.028 22.523 1.029 3.754 1.029 11.262 1.028 5.63 1.03 1.877 1.028 13.139 1.029 22.523 1.029 16.893 1.028-1.877 1.03-3.754 1.028-9.385 1.029 15.016 1.028-1.877 1.03-24.4 1.028-20.647 1.029 5.631 1.029 3.754 1.028 7.508 1.03-5.631 1.028 3.754h2.058l1.028 7.507 1.03-1.877 2.057 11.262 1.029 7.508 1.028 3.754h1.03l1.028-7.508 1.029-13.139 1.028-7.507 1.03-5.631 1.028-7.508 1.029 1.877h1.029l1.028-1.877 1.03 5.63 1.028-1.876 1.029-3.754 1.029-1.877 1.028-5.63h1.03l2.057 15.015 2.057 3.754 1.03-3.754h2.057l1.029-13.139 1.028-5.63 2.058-3.754 1.029 1.877h2.057l1.029 5.63h1.029l1.029-1.877h1.028l1.03 1.877h2.057l1.029 5.631h1.028l1.03 1.877h1.028l1.029-1.877h2.057l1.03-9.384 1.028 1.876h1.029l1.028-1.876h3.087l1.029-3.754h1.028l1.03-1.877 1.028 1.877h4.115l1.029-3.754 1.029 3.754h1.029l1.028-1.877h2.058l1.029 11.261h3.086l1.029 1.877h2.057l1.03 7.508 1.028-1.877 1.029-3.754h1.029l1.028 3.754h2.058l1.029-9.385 1.029 5.631 1.028 1.877 1.03-1.877 1.028-3.754h2.058l1.028-3.754 1.03 3.754h1.028l1.029 3.754h3.086l1.029 3.754 1.029-5.63 1.028-1.878h1.03l1.028-1.877h2.058l1.028-1.877h1.03l1.028 3.754 1.029-3.754h4.115l1.029-3.753 1.028-1.877h1.03l1.028 3.754h3.086l1.03 3.753 1.028-7.507 1.029 3.754h4.115l1.029-1.877 1.029 9.384h1.028l1.03-1.877h3.085l2.058 3.754 1.029-3.754h3.086l1.029-5.63 1.029 5.63 1.029-5.63 1.028 1.876h3.087l1.029 7.508 1.028-5.63 1.03 5.63 1.028 1.877h4.115l1.029-1.877 1.029-11.261 1.028-18.77 1.03-3.754h2.057l1.029-5.63 1.028-9.385 1.03 5.63 1.028 7.508 3.086-16.892 1.03 3.754 1.028 13.138 1.029 3.754 1.029 26.277 1.028 13.139 2.058 11.262 1.029-7.508 1.028 1.877 1.03-9.385 1.028-16.892 1.029-3.754 2.057 11.261 1.03-11.261 1.028-5.631 1.029 1.877 1.029-5.63 1.028-9.386 3.087-16.892 1.029 1.877 1.028 15.015 1.03-16.892 1.028 5.63h2.057l1.03 16.893 2.057-39.415 1.029 13.138 1.028-13.138 1.03-9.385h1.028l1.029 16.892 1.029 13.139 1.028-1.877 1.03 41.293 1.028 30.03 1.029-28.154h1.029l1.028-5.63 1.03 16.892 1.028 13.139 1.029-46.924 1.028-31.908 1.03 26.277h1.028l1.029 1.877 1.029-16.892h1.028l1.03-18.77 1.028 1.878 1.029 48.8h1.029l1.028-5.63 1.03 3.753 1.028 5.63 1.029 63.816 1.029 30.031 1.028-16.892h1.03l1.028-30.03 1.029 13.138 1.029-48.8 1.028-5.631 1.03 3.753 1.028-20.646h2.057l1.03-1.877 1.028 18.77 1.029-45.047 1.029 15.016h2.057l1.029 18.769 1.029-28.154 1.029 46.923 1.028 1.877 1.03-54.43 1.028-18.77h1.029l1.029 26.277 1.028 9.385 1.03-16.893 1.028 20.646 1.029 3.754 1.028 18.77h1.03l1.028 46.923 1.029 5.63h1.029l1.028 18.77 1.03 35.662 1.028 18.77h1.029l1.029-78.832 1.028 18.77 1.03 9.384 1.028-13.139 2.058-56.308h1.028l1.03 16.893 1.028 26.277 1.029-46.923 1.028-15.016 1.03 3.754 1.028 9.385h1.029l1.029 28.154 1.028-45.047 1.03 31.908 1.028 7.508 1.029 28.154 1.029-3.754h1.028l1.03-28.154 1.028-20.646 1.029 37.538 1.029 9.385 1.028-16.892 1.03 3.753 1.028-13.138 1.029 22.523 1.029 28.154 1.028-37.539 1.03-22.523 1.028-11.261 2.057 26.277 1.03-52.554 1.028 5.63 1.029-3.753 1.029 13.138 1.028-9.385 1.03-13.138 1.028 13.138 1.029 11.262 1.029-3.754 1.028-5.63 1.03-1.878 1.028 24.4h1.029l1.029-13.138 1.028 5.63 1.03 1.878 1.028 3.754 1.029 1.877 1.028 9.384h2.058l1.029-5.63 1.029-9.385 1.028 5.63 1.03 11.262 1.028-20.646h1.029l1.029-16.893 1.028 41.293 1.03 1.877 1.028 7.508 1.029-39.416 1.029-3.754h1.028l1.03 16.893 1.028-9.385 1.029-1.877 2.057 16.892v7.508l1.03 11.262 1.028-1.877 1.029 16.892 1.028-11.261 1.03 9.384 1.028-11.261 1.029 13.138 1.029 3.754 1.028-7.508 1.03-16.892 1.028 24.4 1.029 7.508 1.029-20.646 1.028 11.261 1.03-7.508 1.028 11.262h1.029l1.028-18.77 1.03-9.384 1.028 9.385 1.029 11.261 1.029-7.507 1.028 5.63h1.03l1.028-5.63 2.058-7.508 1.028-5.631 1.03 13.139 1.028-7.508h1.029l1.029 1.877 1.028 5.63 1.03 3.754 1.028-1.877 1.029 11.262 1.029 1.877h2.057l1.029-3.754 1.029 7.508 1.028-5.63 1.03-13.14 1.028-1.876h1.029l1.029 3.753 1.028-1.876 1.03-11.262 1.028-5.63 1.029-3.755h2.057l1.03-7.507h1.028l1.029-1.877 1.029 5.63h4.115l1.028-5.63 2.058 3.753h4.115l1.029 5.631 1.029 1.877 1.029-3.754h4.115l1.029 5.631h2.057l1.029-7.508h3.086l1.03-5.63 2.057-3.754 1.028 7.507h6.173l1.029 5.631h4.115l1.029-1.877h1.029l1.029-5.63h4.115l1.028 1.876h1.03l1.028-9.384h2.058l1.028-39.416 1.03-3.754h1.028l1.029-7.507h3.086l1.029 26.277 2.058-3.754 1.028 9.384 1.03 18.77h2.057l1.028 33.785 1.03 3.753 1.028-7.507 1.029 1.877 1.029-3.754h2.057l1.029-26.277 1.029 3.754 1.029 9.384 1.028-5.63 1.03-3.754h2.057l1.029 20.646 1.028-3.754 1.03 7.508 1.028 5.63 1.029 1.877h2.057l1.03-9.384 1.028-7.508 1.029-18.77 1.028 1.878 1.03-13.139h2.057l1.029-1.877 1.028-5.63 1.03 3.753 1.028 5.631h3.086l1.03-7.508 1.028 22.524 1.029 13.138 1.029-20.646 1.028 11.261h2.058l1.029-20.646 1.028 13.139 1.03-3.754 2.057 3.754h2.057l1.03 33.784 1.028-20.646 1.029-1.877 1.029 16.893 1.028-3.754h2.058l1.029 7.508 2.057-3.754 1.03 1.877 1.028-15.016h2.057l1.03-9.385 1.028-3.753 1.029 5.63 1.029-5.63 1.028 18.769h2.058l1.029-15.016 1.029 3.754 1.028 5.631 1.03-11.261 1.028 13.138h2.058l1.028 3.754 1.03 11.262 1.028-5.631 1.029 7.507 1.028-15.015h1.03" style="fill:none;stroke:#0072b2;stroke-linecap:round;stroke-width:1.5" id="line2d_4"/><path clip-path="url(#p511abd2b39)" d="M117 340.624h725.4" style="fill:none;stroke:red;stroke-dasharray:1.5,2.475;stroke-dashoffset:0;stroke-width:1.5" id="line2d_5"/><path d="M117 576.72V77.76" style="fill:none;stroke:#d3d3d3;stroke-linecap:square;stroke-linejoin:miter;stroke-width:1.25" id="patch_3"/><path d="M117 576.72h725.4" style="fill:none;stroke:#d3d3d3;stroke-linecap:square;stroke-linejoin:miter;stroke-width:1.25" id="patch_4"/><g id="matplotlib.axis_1"><g id="xtick_1"><g style="fill:#696969" transform="matrix(.16 0 0 -.16 109.863 598.378)" id="text_1"><defs><path d="M9.813 72.906h9.859V5.078q0-13.187-5-19.14-5-5.954-16.094-5.954h-3.75v8.297h3.078q6.531 0 9.219 3.672Q9.813-4.39 9.813 5.078z" id="DejaVuSans-74"/><path d="M34.281 27.484q-10.89 0-15.093-2.484-4.204-2.484-4.204-8.5 0-4.781 3.157-7.594 3.156-2.797 8.562-2.797 7.485 0 12 5.297 4.516 5.297 4.516 14.078v2zm17.922 3.72V0H43.22v8.297Q40.14 3.328 35.547.953q-4.594-2.375-11.234-2.375-8.391 0-13.36 4.719Q6 8.016 6 15.922q0 9.219 6.172 13.906 6.187 4.688 18.437 4.688h12.61v.89q0 6.203-4.078 9.594-4.078 3.39-11.453 3.39-4.688 0-9.141-1.124-4.438-1.125-8.531-3.375v8.312q4.921 1.906 9.562 2.844 4.64.953 9.031.953 11.875 0 17.735-6.156 5.86-6.14 5.86-18.64z" id="DejaVuSans-97"/><path d="M54.89 33.016V0h-8.984v32.719q0 7.765-3.031 11.61-3.031 3.858-9.078 3.858-7.281 0-11.484-4.64-4.204-4.625-4.204-12.64V0H9.08v54.688h9.03v-8.5q3.235 4.937 7.594 7.374Q30.078 56 35.797 56q9.422 0 14.25-5.828 4.844-5.828 4.844-17.156z" id="DejaVuSans-110"/></defs><use xlink:href="#DejaVuSans-74"/><use x="29.492" xlink:href="#DejaVuSans-97"/><use x="90.771" xlink:href="#DejaVuSans-110"/></g></g><g id="xtick_2"><g style="fill:#696969" transform="matrix(.16 0 0 -.16 201.975 598.378)" id="text_2"><defs><path d="M34.188 63.188 20.797 26.906h26.812zm-5.579 9.718h11.188L67.578 0h-10.25l-6.64 18.703h-32.86L11.188 0H.78z" id="DejaVuSans-65"/><path d="M18.11 8.203v-29H9.077v75.484h9.031v-8.296q2.844 4.875 7.157 7.234Q29.594 56 35.594 56q9.968 0 16.187-7.906 6.235-7.907 6.235-20.797T51.78 6.484q-6.218-7.906-16.187-7.906-6 0-10.328 2.375-4.313 2.375-7.157 7.25zm30.578 19.094q0 9.906-4.079 15.547-4.078 5.64-11.203 5.64-7.14 0-11.218-5.64-4.079-5.64-4.079-15.547 0-9.906 4.078-15.547 4.079-5.64 11.22-5.64 7.124 0 11.202 5.64t4.078 15.547z" id="DejaVuSans-112"/><path d="M41.11 46.297q-1.516.875-3.297 1.281Q36.03 48 33.89 48q-7.625 0-11.703-4.953-4.079-4.953-4.079-14.234V0H9.08v54.688h9.03v-8.5q2.844 4.984 7.375 7.39Q30.031 56 36.531 56q.922 0 2.047-.125 1.125-.11 2.484-.36z" id="DejaVuSans-114"/></defs><use xlink:href="#DejaVuSans-65"/><use x="68.408" xlink:href="#DejaVuSans-112"/><use x="131.885" xlink:href="#DejaVuSans-114"/></g></g><g id="xtick_3"><g style="fill:#696969" transform="matrix(.16 0 0 -.16 299.783 598.378)" id="text_3"><defs><path d="M8.5 21.578v33.11h8.984V21.922q0-7.766 3.016-11.656 3.031-3.875 9.094-3.875 7.265 0 11.484 4.64 4.234 4.64 4.234 12.656v31h8.985V0h-8.984v8.406Q42.047 3.422 37.718 1q-4.313-2.422-10.032-2.422-9.421 0-14.312 5.86Q8.5 10.296 8.5 21.578zM31.11 56z" id="DejaVuSans-117"/><path d="M9.422 75.984h8.984V0H9.422z" id="DejaVuSans-108"/></defs><use xlink:href="#DejaVuSans-74"/><use x="29.492" xlink:href="#DejaVuSans-117"/><use x="92.871" xlink:href="#DejaVuSans-108"/></g></g><g id="xtick_4"><g style="fill:#696969" transform="matrix(.16 0 0 -.16 390.251 598.378)" id="text_4"><defs><path d="M39.406 66.219q-10.75 0-17.078-8.016-6.312-8-6.312-21.828 0-13.766 6.312-21.781 6.328-8 17.078-8 10.735 0 17.016 8 6.281 8.015 6.281 21.781 0 13.828-6.281 21.828-6.281 8.016-17.016 8.016zm0 8q15.328 0 24.5-10.281 9.188-10.282 9.188-27.563 0-17.234-9.188-27.516-9.172-10.28-24.5-10.28-15.375 0-24.593 10.25-9.204 10.265-9.204 27.546t9.204 27.563q9.218 10.28 24.593 10.28z" id="DejaVuSans-79"/><path d="M48.781 52.594v-8.407q-3.812 2.11-7.64 3.157-3.828 1.047-7.735 1.047-8.75 0-13.593-5.547-4.829-5.532-4.829-15.547 0-10.016 4.829-15.563 4.843-5.53 13.593-5.53 3.907 0 7.735 1.046 3.828 1.047 7.64 3.156V2.094Q45.016.344 40.984-.531q-4.015-.89-8.562-.89-12.36 0-19.64 7.765-7.266 7.765-7.266 20.953 0 13.375 7.343 21.031Q20.22 56 33.016 56q4.14 0 8.093-.86 3.953-.843 7.672-2.546z" id="DejaVuSans-99"/><path d="M18.313 70.219V54.688h18.5v-6.985h-18.5V18.016q0-6.688 1.828-8.594 1.828-1.906 7.453-1.906h9.218V0h-9.218q-10.407 0-14.36 3.875-3.953 3.89-3.953 14.14v29.688H2.687v6.984h6.594V70.22z" id="DejaVuSans-116"/></defs><use xlink:href="#DejaVuSans-79"/><use x="78.711" xlink:href="#DejaVuSans-99"/><use x="133.691" xlink:href="#DejaVuSans-116"/></g></g><g id="xtick_5"><g style="fill:#696969" transform="matrix(.16 0 0 -.16 486.4 598.378)" id="text_5"><use xlink:href="#DejaVuSans-74"/><use x="29.492" xlink:href="#DejaVuSans-97"/><use x="90.771" xlink:href="#DejaVuSans-110"/></g></g><g id="xtick_6"><g style="fill:#696969" transform="matrix(.16 0 0 -.16 577.484 598.378)" id="text_6"><use xlink:href="#DejaVuSans-65"/><use x="68.408" xlink:href="#DejaVuSans-112"/><use x="131.885" xlink:href="#DejaVuSans-114"/></g></g><g id="xtick_7"><g style="fill:#696969" transform="matrix(.16 0 0 -.16 675.291 598.378)" id="text_7"><use xlink:href="#DejaVuSans-74"/><use x="29.492" xlink:href="#DejaVuSans-117"/><use x="92.871" xlink:href="#DejaVuSans-108"/></g></g><g id="xtick_8"><g style="fill:#696969" transform="matrix(.16 0 0 -.16 765.76 598.378)" id="text_8"><use xlink:href="#DejaVuSans-79"/><use x="78.711" xlink:href="#DejaVuSans-99"/><use x="133.691" xlink:href="#DejaVuSans-116"/></g></g></g><g id="matplotlib.axis_2"><g id="ytick_1"><g style="fill:#696969" transform="matrix(.16 0 0 -.16 73.733 539.083)" id="text_9"><defs><path d="M10.594 35.5h62.593v-8.297H10.594z" id="DejaVuSans-8722"/><path d="M37.797 64.313 12.89 25.39h24.906zm-2.594 8.593H47.61V25.391h10.407v-8.203H47.609V0h-9.812v17.188H4.89v9.515z" id="DejaVuSans-52"/><path d="M31.781 66.406q-7.61 0-11.453-7.5Q16.5 51.422 16.5 36.375q0-14.984 3.828-22.484 3.844-7.5 11.453-7.5 7.672 0 11.5 7.5 3.844 7.5 3.844 22.484 0 15.047-3.844 22.531-3.828 7.5-11.5 7.5zm0 7.813q12.266 0 18.735-9.703 6.468-9.688 6.468-28.141 0-18.406-6.468-28.11-6.47-9.687-18.735-9.687-12.25 0-18.718 9.688-6.47 9.703-6.47 28.109 0 18.453 6.47 28.14Q19.53 74.22 31.78 74.22z" id="DejaVuSans-48"/></defs><use xlink:href="#DejaVuSans-8722"/><use x="83.789" xlink:href="#DejaVuSans-52"/><use x="147.412" xlink:href="#DejaVuSans-48"/></g></g><g id="ytick_2"><g style="fill:#696969" transform="matrix(.16 0 0 -.16 73.733 442.893)" id="text_10"><defs><path d="M19.188 8.297h34.421V0H7.33v8.297q5.609 5.812 15.296 15.594 9.703 9.797 12.188 12.64 4.734 5.313 6.609 9 1.89 3.688 1.89 7.25 0 5.813-4.078 9.469-4.078 3.672-10.625 3.672-4.64 0-9.797-1.61-5.14-1.609-11-4.89v9.969Q13.767 71.78 18.938 73q5.188 1.219 9.485 1.219 11.328 0 18.062-5.672 6.735-5.656 6.735-15.125 0-4.5-1.688-8.531-1.672-4.016-6.125-9.485-1.218-1.422-7.765-8.187-6.532-6.766-18.453-18.922z" id="DejaVuSans-50"/></defs><use xlink:href="#DejaVuSans-8722"/><use x="83.789" xlink:href="#DejaVuSans-50"/><use x="147.412" xlink:href="#DejaVuSans-48"/></g></g><g id="ytick_3"><use xlink:href="#DejaVuSans-48" style="fill:#696969" transform="matrix(.16 0 0 -.16 97.32 346.703)" id="text_11"/></g><g id="ytick_4"><g style="fill:#696969" transform="matrix(.16 0 0 -.16 87.14 250.513)" id="text_12"><use xlink:href="#DejaVuSans-50"/><use x="63.623" xlink:href="#DejaVuSans-48"/></g></g><g id="ytick_5"><g style="fill:#696969" transform="matrix(.16 0 0 -.16 87.14 154.324)" id="text_13"><use xlink:href="#DejaVuSans-52"/><use x="63.623" xlink:href="#DejaVuSans-48"/></g></g><g style="fill:#696969" transform="matrix(0 -.2 -.2 0 65.573 379.813)" id="text_14"><defs><path d="M51.125 44H36.922l-4.11-16.313h14.313zm-7.328 27.781-5.078-20.265h14.265L58.11 71.78h7.813L60.89 51.516h15.234V44h-17.14l-4-16.313h15.53V20.22H53.079L48 0h-7.813l5.032 20.219H30.906L25.875 0h-7.86l5.079 20.219H7.719v7.468h17.187L29 44H13.281v7.516h17.625l4.985 20.265z" id="DejaVuSans-35"/><path d="M30.61 48.39q-7.22 0-11.422-5.64-4.204-5.64-4.204-15.453 0-9.813 4.172-15.453 4.188-5.64 11.453-5.64 7.188 0 11.375 5.655 4.203 5.672 4.203 15.438 0 9.719-4.203 15.406-4.187 5.688-11.375 5.688zm0 7.61q11.718 0 18.406-7.625 6.703-7.61 6.703-21.078 0-13.422-6.703-21.078-6.688-7.64-18.407-7.64-11.765 0-18.437 7.64-6.656 7.656-6.656 21.078 0 13.469 6.656 21.078Q18.844 56 30.609 56z" id="DejaVuSans-111"/><path d="M37.11 75.984V68.5h-8.594q-4.828 0-6.72-1.953-1.874-1.953-1.874-7.031v-4.828h14.797v-6.985H19.922V0H10.89v47.703H2.297v6.984h8.594V58.5q0 9.125 4.25 13.297 4.25 4.187 13.468 4.187z" id="DejaVuSans-102"/><path d="M44.281 53.078v-8.5q-3.797 1.953-7.906 2.922-4.094.984-8.5.984-6.688 0-10.031-2.047-3.344-2.046-3.344-6.156 0-3.125 2.39-4.906 2.391-1.781 9.626-3.39l3.078-.688q9.562-2.047 13.593-5.781 4.032-3.735 4.032-10.422 0-7.625-6.032-12.078-6.03-4.438-16.578-4.438-4.39 0-9.156.86Q10.688.296 5.422 2v9.281q4.984-2.594 9.812-3.89 4.829-1.282 9.579-1.282 6.343 0 9.75 2.172 3.421 2.172 3.421 6.125 0 3.656-2.468 5.61-2.453 1.953-10.813 3.765l-3.125.735q-8.344 1.75-12.062 5.39-3.704 3.64-3.704 9.985 0 7.718 5.47 11.906Q16.75 56 26.811 56q4.97 0 9.36-.734 4.406-.72 8.11-2.188z" id="DejaVuSans-115"/><path d="M56.203 29.594v-4.39H14.891q.593-9.282 5.593-14.142 5-4.859 13.938-4.859 5.172 0 10.031 1.266 4.86 1.265 9.656 3.812v-8.5Q49.266.734 44.187-.344 39.11-1.422 33.892-1.422q-13.094 0-20.735 7.61-7.64 7.625-7.64 20.625 0 13.421 7.25 21.296Q20.016 56 32.328 56q11.031 0 17.453-7.11 6.422-7.093 6.422-19.296zm-8.984 2.64q-.094 7.36-4.125 11.75-4.032 4.407-10.672 4.407-7.516 0-12.031-4.25-4.516-4.25-5.203-11.97z" id="DejaVuSans-101"/></defs><use xlink:href="#DejaVuSans-35"/><use x="83.789" xlink:href="#DejaVuSans-32"/><use x="115.576" xlink:href="#DejaVuSans-111"/><use x="176.758" xlink:href="#DejaVuSans-102"/><use x="211.963" xlink:href="#DejaVuSans-32"/><use x="243.75" xlink:href="#DejaVuSans-99"/><use x="298.73" xlink:href="#DejaVuSans-97"/><use x="360.01" xlink:href="#DejaVuSans-115"/><use x="412.109" xlink:href="#DejaVuSans-101"/><use x="473.633" xlink:href="#DejaVuSans-115"/></g></g><g style="fill:#696969" transform="matrix(.24 0 0 -.24 261.11 71.76)" id="text_15"><defs><path d="M9.813 72.906h13.28l32.329-60.984v60.984h9.562V0h-13.28L19.39 60.984V0H9.813z" id="DejaVuSans-78"/><path d="M4.203 54.688h8.985l11.234-42.672 11.172 42.672h10.593l11.235-42.672 11.187 42.672h8.985L63.28 0H52.688L40.922 44.828 29.109 0H18.5z" id="DejaVuSans-119"/><path d="M64.406 67.281v-10.39q-4.984 4.64-10.625 6.922-5.64 2.296-11.984 2.296-12.5 0-19.14-7.64-6.641-7.64-6.641-22.094 0-14.406 6.64-22.047 6.64-7.64 19.14-7.64 6.345 0 11.985 2.296 5.64 2.297 10.625 6.938V5.609Q59.234 2.094 53.437.33q-5.78-1.75-12.218-1.75-16.563 0-26.094 10.124-9.516 10.14-9.516 27.672 0 17.578 9.516 27.703 9.531 10.14 26.094 10.14 6.531 0 12.312-1.734 5.797-1.734 10.875-5.203z" id="DejaVuSans-67"/><path d="M3.328 72.906h9.953L28.61 11.281l15.282 61.625h11.093l15.328-61.625 15.282 61.625h10.015L77.297 0H64.89L49.516 63.281 33.984 0H21.578z" id="DejaVuSans-87"/><path d="M9.078 75.984h9.031V31.11l26.813 23.578H56.39l-29-25.578L57.625 0H45.906L18.11 26.703V0H9.08z" id="DejaVuSans-107"/><path d="M4.89 31.39h26.313v-8H4.891z" id="DejaVuSans-45"/><path d="M2.984 54.688H12.5L29.594 8.797l17.093 45.89h9.516L35.687 0H23.485z" id="DejaVuSans-118"/><path d="M11.719 12.406h10.297V0H11.719zm0 39.297h10.297v-12.39H11.719z" id="DejaVuSans-58"/><path d="M12.406 8.297h16.11v55.625l-17.532-3.516v8.985l17.438 3.515h9.86V8.296H54.39V0H12.406z" id="DejaVuSans-49"/><path d="M45.406 27.984q0 9.766-4.031 15.125-4.016 5.375-11.297 5.375-7.219 0-11.25-5.375-4.031-5.359-4.031-15.125 0-9.718 4.031-15.093t11.25-5.375q7.281 0 11.297 5.375 4.031 5.375 4.031 15.093zm8.985-21.203q0-13.953-6.203-20.765Q42-20.797 29.203-20.797q-4.734 0-8.937.703-4.203.703-8.157 2.172v8.735q3.954-2.141 7.813-3.157 3.86-1.031 7.86-1.031 8.843 0 13.234 4.61 4.39 4.609 4.39 13.937v4.453q-2.781-4.844-7.125-7.234Q33.938 0 27.875 0 17.828 0 11.672 7.656q-6.156 7.672-6.156 20.328 0 12.688 6.156 20.344Q17.828 56 27.875 56q6.063 0 10.406-2.39 4.344-2.391 7.125-7.22v8.297h8.985z" id="DejaVuSans-103"/></defs><use xlink:href="#DejaVuSans-78"/><use x="74.805" xlink:href="#DejaVuSans-101"/><use x="136.328" xlink:href="#DejaVuSans-119"/><use x="218.115" xlink:href="#DejaVuSans-32"/><use x="249.902" xlink:href="#DejaVuSans-67"/><use x="319.727" xlink:href="#DejaVuSans-97"/><use x="381.006" xlink:href="#DejaVuSans-115"/><use x="433.105" xlink:href="#DejaVuSans-101"/><use x="494.629" xlink:href="#DejaVuSans-115"/><use x="546.729" xlink:href="#DejaVuSans-32"/><use x="578.516" xlink:href="#DejaVuSans-87"/><use x="671.518" xlink:href="#DejaVuSans-101"/><use x="733.041" xlink:href="#DejaVuSans-101"/><use x="794.564" xlink:href="#DejaVuSans-107"/><use x="852.475" xlink:href="#DejaVuSans-45"/><use x="890.434" xlink:href="#DejaVuSans-111"/><use x="951.615" xlink:href="#DejaVuSans-118"/><use x="1010.795" xlink:href="#DejaVuSans-101"/><use x="1072.318" xlink:href="#DejaVuSans-114"/><use x="1107.057" xlink:href="#DejaVuSans-45"/><use x="1139.141" xlink:href="#DejaVuSans-87"/><use x="1232.143" xlink:href="#DejaVuSans-101"/><use x="1293.666" xlink:href="#DejaVuSans-101"/><use x="1355.189" xlink:href="#DejaVuSans-107"/><use x="1413.1" xlink:href="#DejaVuSans-58"/><use x="1446.791" xlink:href="#DejaVuSans-32"/><use x="1478.578" xlink:href="#DejaVuSans-49"/><use x="1542.201" xlink:href="#DejaVuSans-52"/><use x="1605.824" xlink:href="#DejaVuSans-32"/><use x="1637.611" xlink:href="#DejaVuSans-97"/><use x="1698.891" xlink:href="#DejaVuSans-118"/><use x="1758.07" xlink:href="#DejaVuSans-103"/></g><g id="legend_1"><path d="M694.75 184.5H831.2q3.2 0 3.2-3.2V88.96q0-3.2-3.2-3.2H694.75q-3.2 0-3.2 3.2v92.34q0 3.2 3.2 3.2z" style="fill:none;opacity:.8;stroke:#ccc;stroke-linejoin:miter" id="patch_5"/><path d="M697.95 98.718h32" style="fill:none;stroke:#000;stroke-linecap:round;stroke-width:1.5" id="line2d_6"/><g style="fill:#696969" transform="matrix(.16 0 0 -.16 742.75 104.317)" id="text_16"><defs><path d="M8.688 72.906h9.921V28.61q0-11.718 4.235-16.875 4.25-5.14 13.781-5.14 9.469 0 13.719 5.14 4.25 5.157 4.25 16.875v44.297H64.5V27.391q0-14.25-7.063-21.532-7.046-7.28-20.812-7.28-13.828 0-20.89 7.28-7.047 7.282-7.047 21.532z" id="DejaVuSans-85"/><path d="M53.516 70.516V60.89q-5.61 2.687-10.594 4-4.984 1.328-9.625 1.328-8.047 0-12.422-3.125t-4.375-8.89q0-4.845 2.906-7.313 2.907-2.453 11.016-3.97l5.953-1.218q11.031-2.11 16.281-7.406 5.25-5.297 5.25-14.172 0-10.61-7.11-16.078-7.093-5.469-20.812-5.469-5.172 0-11.015 1.172Q13.14.922 6.89 3.219v10.156q6-3.36 11.765-5.078 5.766-1.703 11.328-1.703 8.438 0 13.032 3.312 4.593 3.328 4.593 9.485 0 5.359-3.297 8.39-3.296 3.032-10.812 4.547L27.484 33.5q-11.03 2.188-15.968 6.875-4.922 4.688-4.922 13.047 0 9.672 6.812 15.234 6.813 5.563 18.766 5.563 5.14 0 10.453-.938 5.328-.922 10.89-2.765z" id="DejaVuSans-83"/></defs><use xlink:href="#DejaVuSans-85"/><use x="73.193" xlink:href="#DejaVuSans-83"/></g><path d="M697.95 122.203h32" style="fill:none;stroke:#009e73;stroke-linecap:round;stroke-width:1.5" id="line2d_8"/><g style="fill:#696969" transform="matrix(.16 0 0 -.16 742.75 127.802)" id="text_17"><use xlink:href="#DejaVuSans-78"/><use x="74.805" xlink:href="#DejaVuSans-74"/></g><path d="M697.95 145.688h32" style="fill:none;stroke:#d55e00;stroke-linecap:round;stroke-width:1.5" id="line2d_10"/><g style="fill:#696969" transform="matrix(.16 0 0 -.16 742.75 151.287)" id="text_18"><defs><path d="M19.672 34.813V8.108H35.5q7.953 0 11.781 3.297 3.844 3.297 3.844 10.078 0 6.844-3.844 10.078-3.828 3.25-11.781 3.25zm0 29.984V42.828h14.61q7.218 0 10.75 2.703 3.546 2.719 3.546 8.282 0 5.515-3.547 8.25-3.531 2.734-10.75 2.734zm-9.86 8.11h25.204q11.28 0 17.375-4.688Q58.5 63.53 58.5 54.89q0-6.703-3.125-10.657-3.125-3.953-9.188-4.922 7.282-1.562 11.313-6.53 4.031-4.954 4.031-12.376 0-9.765-6.64-15.093Q48.25 0 35.984 0H9.812z" id="DejaVuSans-66"/></defs><use xlink:href="#DejaVuSans-66"/><use x="68.604" xlink:href="#DejaVuSans-101"/><use x="130.127" xlink:href="#DejaVuSans-114"/><use x="169.49" xlink:href="#DejaVuSans-103"/><use x="232.967" xlink:href="#DejaVuSans-101"/><use x="294.49" xlink:href="#DejaVuSans-110"/></g><path d="M697.95 169.173h32" style="fill:none;stroke:#0072b2;stroke-linecap:round;stroke-width:1.5" id="line2d_12"/><g style="fill:#696969" transform="matrix(.16 0 0 -.16 742.75 174.773)" id="text_19"><defs><path d="M44.39 34.188q3.172-1.079 6.172-4.594 3-3.516 6.032-9.672L66.609 0H56l-9.313 18.703q-3.624 7.328-7.015 9.719-3.39 2.39-9.25 2.39h-10.75V0h-9.86v72.906h22.266q12.5 0 18.656-5.234 6.157-5.219 6.157-15.766 0-6.89-3.203-11.437-3.204-4.532-9.297-6.282zM19.673 64.797V38.922h12.406q7.125 0 10.766 3.297 3.64 3.297 3.64 9.687 0 6.39-3.64 9.64-3.64 3.25-10.766 3.25z" id="DejaVuSans-82"/><path d="M54.89 33.016V0h-8.984v32.719q0 7.765-3.031 11.61-3.031 3.858-9.078 3.858-7.281 0-11.484-4.64-4.204-4.625-4.204-12.64V0H9.08v75.984h9.03V46.188q3.235 4.937 7.594 7.374Q30.078 56 35.797 56q9.422 0 14.25-5.828 4.844-5.828 4.844-17.156z" id="DejaVuSans-104"/><path d="M45.406 46.39v29.594h8.985V0h-8.985v8.203Q42.578 3.328 38.25.953q-4.313-2.375-10.375-2.375-9.906 0-16.14 7.906-6.22 7.922-6.22 20.813 0 12.89 6.22 20.797Q17.968 56 27.874 56q6.063 0 10.375-2.375 4.328-2.36 7.156-7.234zm-30.61-19.093q0-9.906 4.079-15.547 4.078-5.64 11.203-5.64 7.125 0 11.219 5.64 4.11 5.64 4.11 15.547 0 9.906-4.11 15.547-4.094 5.64-11.219 5.64-7.125 0-11.203-5.64-4.078-5.64-4.078-15.547z" id="DejaVuSans-100"/></defs><use xlink:href="#DejaVuSans-82"/><use x="64.982" xlink:href="#DejaVuSans-117"/><use x="128.361" xlink:href="#DejaVuSans-116"/><use x="167.57" xlink:href="#DejaVuSans-104"/><use x="230.949" xlink:href="#DejaVuSans-101"/><use x="292.473" xlink:href="#DejaVuSans-114"/><use x="333.586" xlink:href="#DejaVuSans-102"/><use x="368.791" xlink:href="#DejaVuSans-111"/><use x="429.973" xlink:href="#DejaVuSans-114"/><use x="469.336" xlink:href="#DejaVuSans-100"/></g></g></g></g><defs><clipPath id="p511abd2b39"><path d="M117 77.76h725.4v498.96H117z"/></clipPath></defs></svg>