<svg height="864" viewBox="0 0 936 648" width="1248" xmlns="http://www.w3.org/2000/svg" xmlns:xlink="http://www.w3.org/1999/xlink"><defs><style>*{stroke-linecap:butt;stroke-linejoin:round}</style></defs><g id="figure_1"><path d="M0 648h936V0H0z" style="fill:#fff" id="patch_1"/><g id="axes_1"><path d="M117 576.72h725.4V77.76H117z" style="fill:none" id="patch_2"/><path clip-path="url(#p6eb9e5854a)" d="m149.973 353.66 50.571-.134 5.058-.279 1.011-.165 1.011-.304 2.023-1.022 1.012-.722 3.034-2.917 1.011-1.11 2.023-1.803 1.012-.623 1.011-.21 2.023-.673 1.011.008 2.023-.334 2.023.452 1.012.566 2.023 1.772 1.011 1.24 1.011 1.798 3.035 3.867 2.023 1.778 1.011.644 2.023.364 1.011-.197 1.012-.532 1.011-.176 1.012-.335 1.011-.716 1.011-.951 1.012-.722 1.011.15 1.012.318 1.011.043 1.012.383 1.011.782 1.011 1.09 1.012.744 5.057-.216 2.023.468 1.011.48 2.023.307 1.012.055 1.011-.304 2.023-.933 1.011-.752 1.012-.497 2.023-.63 2.023.113 1.011-.123 1.011.265 3.035 1.32 1.011-.069 1.012-.328 1.011-.121 1.011-.294 3.035-1.55 1.011-.33 1.012-.08 1.011.266 2.023 1.12 1.011.13 1.012-.236 2.023.493 2.023-.826 1.011-.786 1.011-.46 1.012-.185 3.034-2.007 1.012-.873 2.022-1.447 2.023-1.979 1.012-.744 1.011-.544 1.012-.263 1.011-.105 2.023-.445 1.011.103 1.012.324 2.023 1.123 1.011.509 1.012.64 1.011.781 1.011.61 1.012-.14 1.011-.621 2.023-1.523 1.012-.3 1.011-.627 1.011-.177 2.023 2.008 5.057 7.028 1.012-.144 2.023 1.236 1.011.05 1.012.356 1.011-.015 1.011.139 1.012 1.226 1.011.554 1.012.366 3.034 3.244 1.012.798 1.011-.28 1.011-.545 1.012-.719 2.023-2.517 1.011-1.242 1.012-.82 1.011-.192 1.011.4 1.012.769 3.034 3.303 1.012.768 1.011.575 1.011.27 1.012-.523 2.023-2.2 1.011-1.22 3.034-2.593 1.012-.236 1.011-.122 1.012.36 1.011.805 1.012-.53 1.011-.348 1.012.372 1.011.686 1.011 1.575 1.012.358 1.011-.268 1.012 1.105 1.011.625 1.012-.345 1.011-1.715 1.011-2.786 1.012-1.75 2.023-2.421 1.011-.674 2.023-.664 1.011.332 1.012.906 1.011.633 1.012.172 1.011-.147 1.012.224 1.011 2.17 1.011 1.584 1.012-.365 1.011.026 1.012.309 1.011.143 1.012-.059 2.023-4.313 1.011-.19 1.011-1.105 1.012-.87 1.011-.298 1.012-.618 2.023 3.14 1.011-.474 1.011.294 2.023-.488 1.012.54 2.023-2.975 1.011.448 1.011.095 1.012-.238 1.011-1.613 1.012-1.924 2.023.007 2.022-2.294 1.012-.316 2.023 2.186 3.034-2.302 1.012-1.363 1.011-1.93 2.023-6.058 1.011-1.83 1.012-2.669 1.011-2.18 1.012-1.165 1.011-1.572 1.011-.409 1.012.35 1.011-.129 1.012 1.484 1.011 1.775 1.012 1.371 4.045 11.326 2.023 3.19 2.023 14.28 2.023 5.036 2.023 4.038 1.011-.14 2.023-24.7 1.012-5.372 1.011-6.634 1.011-5.137 1.012-4.485 1.011-1.558 1.012 6.288 1.011 4.813 1.012 1.66 1.011 4.371 1.011 3.682 1.012 5.325 1.011 2.617 1.012-.666 1.011 4.227 1.012 5.404 1.011 1.844 1.011.71 1.012-1.111 1.011 1.56 1.012 5.688 1.011 10.219 1.012 4.853 1.011-.752 1.012 2.109 1.01.704 1.012-1.103 1.012-5.75 2.023-30.3 1.011-7.44 1.012-8.793 1.011-6.325 1.011-3.476 1.012-2.165 1.011-6.847 1.012.416 1.011 9.068 2.023 14.894 1.011 5.332 1.012 8.272 1.011 17.523 1.012 12.916 1.011 3.15 2.023 11.624 1.011 3.175 1.012 1.463 1.011-.254 1.012-1.615 1.011-.762 2.023-11.838 1.012-1.2 1.01-2.234 1.012-2.651 1.012-1.237 1.011-1.42 1.012.323 1.011 1.682 1.012.285 2.022 2.675 1.012.167 1.011.309 1.012 2.576 1.011 1.015 1.012-1.548 1.011-1.779 1.011-1.483 3.035-2.275 1.011.105 2.023 1.498 1.011.322 1.012-.783 1.011-1.166 1.012-3.268 1.011-4.668 3.035-11.433 1.01-1.714 1.012-.703 1.012.152 1.011 1.646 1.012 1.913 2.023 3.332 1.011.69 1.011.322 1.012-1.957 1.011-3.056 1.012-.673 1.011-.28 1.012-.966 1.011-.584 1.011-.45 1.012 3.82 1.011 4.302 1.012-.548 1.011-.698 1.012-.055 2.022-1.154 1.012-1.91 1.011-2.213 1.012-1.37 2.023-3.383 1.011-1.083 1.012-.893 1.01-1.875 1.012-1.25 1.012 1.706 1.011 1.928 3.035 3.672 1.011 1.622 1.011.915 2.023-1.362 2.023-1.736 1.012-.923 1.011-.479 1.011-.293 1.012-.755 1.011.721 2.023 3.105 1.012 1.683 1.011.848 1.011 1.648 1.012 2.737 1.011.955 1.012.692 1.011.222 1.012-.359 1.011 1.293 1.012.812 1.01-.732 1.012-.252 2.023-.869 1.012-.088 1.011-1.69 1.012-1.368 2.022.452 1.012.402 1.011.64 1.012.503 1.011 1.112 1.012.69 1.011-.28 1.011-.086 1.012-.296 1.011-.632 3.035-1.304 2.022-.36 1.012.289 1.011.666 1.012.176 2.023-.676 1.011-.14 1.012-.474 1.01-.687 1.012-.515 1.012.01 1.011 1.19 1.012.678 1.011-.209 1.012.433 1.011 2.615 1.011 1.92 1.012-.636 1.011-2.272 1.012-1.493 1.011-.128 1.012-.86 2.022-10.197 1.012-.05 1.011.942 1.012.702 1.011.23 1.012.575 2.022 5.084 1.012.109 1.011-.098 2.023-.997 2.023-1.41 1.012-.362 2.022-.253 1.012-.06 1.011-.254 2.023-5.814 1.012-.069 1.011.184 1.011.682 1.012.131 1.011-1.19 2.023 6.344 1.012-.92 1.011-.595 2.023-5.284 1.011.106 1.012.224 2.023-.426 1.011-.103 1.011.353 1.012.217 1.011-.985 2.023-6.516 1.012-1.059 1.011-.332 1.012-.658 1.01-2.052 1.012-1.67 1.012-.388 1.011-.695 1.012-.445 1.011-.185 1.012-.773 1.011-.459 1.011-.057 1.012.11 1.011-.113 2.023-1.081 1.012-.204 1.011 1.857 1.011.912 1.012.063 1.011 2.507 1.012 1.804 1.011.583 1.012-1.89 1.011-.501 1.011 3.669 1.012 1.432 1.011-.143 1.012-.865 1.011-.626 1.012 4.899 1.011 2.902 1.012-1.207 1.01-.245 1.012.515 1.012 2.279 1.011 1.086 2.023-1.392 1.012-2.18 1.011.365 1.011 2.348 2.023 2.89 1.012 12.484 1.011 4.997 1.012-3.68 1.011 3.447 1.011.218 1.012-.94 1.011-1.15 1.012-23.265 1.011-7.03 1.012 15.91 1.011-.13 1.011.275 2.023.932 1.012 16.093 1.011 9.162 1.012-6.732 1.011 1.153 2.023 3.295 1.011.976 1.012-3.302 1.011-4.004 1.012-.565 1.011-1.098 1.012-1.614 1.011-1.26 1.011-.377 1.012.655 1.011.393 2.023-2.048 2.023-.236 1.011-.35 1.012 1.228 1.011-.046 1.012-.625 1.011 1.292 1.012.411 1.011-.09 1.011-.289 1.012-2.835 1.011-.374 1.012 2.382 1.011-.51 1.012-.72 1.011-.183 1.012.235 1.01 1.092 1.012-.967 1.012-3.422 1.011-2.251 1.012-1.378 1.011-.92 1.012-.583 1.011-2.435 1.011-1.223 2.023 3.675h0" style="fill:none;stroke:#000;stroke-linecap:round;stroke-width:1.5" id="line2d_1"/><path clip-path="url(#p6eb9e5854a)" d="m149.973 353.656 50.571-.097 3.035-.228 1.011-.185 1.012-.323 1.011-.485 3.034-2.912 1.012-1.964 3.034-8.102 1.011-4.85 1.012-7.466 1.011-6.573 2.023-10.99 1.012-4.163 1.011-5.855 1.011-2.039 1.012 1.567 1.011-1.358 1.012 1.05 1.011 5.42 1.012 4.142 1.011 7.086 2.023 16.33 1.011 12.11 1.012 7.222 1.011 4.224 1.012 3.27 1.011 1.337 1.012-.351 1.011-1.648 1.011-.827 1.012.17 1.011-3.159 1.012-.104 1.011-1.092 1.012-2.609 1.011 2.96 2.023-1.889 2.023 10.745 1.011 5.519 1.012 8.323 1.011.635 1.011-.212 1.012 2.755 1.011-1.293 1.012-2.761 1.011-1.123 1.012-2.236 1.011-.092 2.023 4.962 1.011 1.231 1.012 1.422 1.011 1.172 1.012-1.431 1.011-.304 1.012-1.17 2.022-7.672 1.012-4.477 1.011-5.848 1.012-3.357 1.011-2.538 1.012-.664 1.011.734 1.011 2.236 2.023 6.603 1.012 1.926 1.011.168 1.012-1.943 1.011-2.466 1.011-.604 1.012-1.188 1.011-.931 1.012 1.399 1.011 1.794 1.012 1.256 1.011 1.997 1.012.06 2.022-.27 1.012-2.341 1.011-1.06 1.012.307 2.023-2.683 1.011-.81 1.011-.11 1.012.795 1.011-.904 1.012-1.088 1.011-.085 2.023-.687 1.011-.268 2.023-7.976 2.023-.075 1.012.564 1.011.327 1.011-.642 2.023 14.335 1.012-.106 1.011-.234 1.012-.768 1.011-.208 1.012.672 2.022-6.208 1.012-.025 1.011.11 1.012.413 1.011-.32 2.023-1.57 1.011.189 2.023 1.777 1.012.849 1.011.605 1.012.891 1.011.353 1.011-1.58 1.012-2.198 2.023-5.193 1.011-1.282 1.012-.927 1.011-.19 1.011.496 1.012 1.212 2.023 4.864 1.011 1.639 1.012 1.06 1.011-.054 2.023 1.643 2.023-1.565 3.034-2.404 1.012-1.386 1.011-.96 1.011.943 1.012.625 1.011.3 1.012.945 1.011 2.3 1.012 2.824 1.011.317 1.011-1.716 1.012-.69 1.011.12 1.012-.278 1.011-1.722 1.012-2.362 1.011.176 1.011.9 3.035-1.486 1.011-.04 1.012.24 1.011-.381 1.012-.07 2.022 1.033 1.012.28 2.023.356 2.023-.417 1.011.032 2.023-1.027 2.023-.48 1.011.263 1.012-.123 1.011-.48 1.011.24 2.023.86 1.012.218 2.023-1.47 2.022-.737 2.023-1.401 1.012-.396 1.011-.082 1.012.869 1.011 1.131 1.012.153 1.011.757 1.011-.287 1.012-1.206 1.011.738 1.012.177 2.023-.84 1.011-1.733 1.011.812 1.012 2.532 1.011.058 1.012-1.174 1.011-2.474 1.012-.863 1.011 1.483 1.011-.38 1.012-1.718 1.011-2.54 1.012-.5 1.011 2.91 1.012.086 1.011-2.569 1.011-1.585 1.012-1.899 2.023 3.372 1.011-1.888 2.023 1.494 1.012-.333 1.011 1.535 1.011-3.485 1.012-4.339 1.011-.412 1.012-4.92 1.011-3.454 1.012-2.056 1.011-4.61 1.011-.773 2.023-7 1.012 4.747 1.011 2.842 1.012 1.006 2.022 7.842 1.012 8.355 1.011 4.027 1.012-2.554 1.011 2.092 1.012 2.94 1.011.338 1.012 2.005 1.01 1.578 1.012 2.789 1.012 3.552 2.023-1.252 1.011-2.398 1.012-7.415 1.011-10.011 1.011-6.556 1.012-2.77 1.011-.968 1.012.164 1.011 7.598 1.012 8.901 1.011 9.934 1.011 6.814 1.012 3.227 1.011 2.768 1.012.242 1.011-2.268 1.012 1.5 1.011.145 1.011-.074 1.012 1.52 1.011-.036 1.012 1.735 1.011-4.745 1.012-5.9 1.011 4.292 1.012 5.69 1.01.814 1.012 1.662 1.012-1.582 1.011 1.659 1.012-2.086 1.011-12.562 2.023-223.875 1.011-10.157 2.023-13.364 1.012-3.118 1.011-2.156 2.023 407.887 1.011 7.213 1.012 3.992 2.023 22.182 1.011 12.326 2.023-186.601 1.011 5.837 1.012 13.015 1.011 6.73 1.012-2.236 1.011-6.817 1.012-5.145 2.023-8.078 1.01-7.552 1.012-12.102 1.012-1.973 1.011 8.807 1.012 4.333 1.011 5.725 1.012 7.749 1.011 6.43 1.011 9.99 1.012 5.175 1.011-4.545 1.012-1.493 1.011-3.671 2.023-27.622 1.011-6.56 1.012-2.707 2.023 9.71 1.011 1.132 1.012 5.721 1.011 6.52 1.011 1.992 1.012.672 1.011-4.041 1.012-9.359 1.011-3.92 1.012 2.681 1.011.108 1.012-4.651 1.01-7.749 1.012-5.595 1.012.69 1.011.458 1.012-4.614 1.011-1.877 1.012 3.561 1.011 5.664 1.011 4.037 1.012 3.193 1.011 1.205 1.012-.461 1.011-1.093 1.012-3.597 2.022-5.24 1.012-4.273 1.011-.221 1.012 1.685 1.011-1.041 1.012.648 1.011-1.18 1.011-.074 1.012 2.228 1.011-2.783 1.012-1.577 1.011 4.122 1.012.33 1.011.54 1.012-.116 1.01-3.146 1.012 1.86 1.012 2.61 1.011-4.209 1.012.181 1.011 4.794 1.012 4.143 1.011 6.87 1.011 5.295 1.012.489 1.011 4.122 1.012 4.69 1.011-.232 1.012.712 1.011-1.541 1.011-3.908 1.012-.323 1.011.827 1.012-2.946 1.011-3.6 1.012-2.859 1.011-.506 1.011 2.753 1.012 1.631 1.011-.672 1.012 4.271 1.011 6.797 1.012 5.695 1.011 25.749 1.012 22.311 1.01 1.863 1.012 3.346 1.012-.579 1.011-1.094 1.012-1.922 2.023-91.214 1.011-2.928 1.011-4.117 1.012-.515 1.011-.727 1.012.23 2.023 45.332 1.011 3.793 1.011 5.56 1.012-.196 1.011-2.511 3.035-10.83 1.011-5.374 1.011-6.63 1.012-4.446 1.011-1.507 1.012.344 1.011.723 1.012 1.663 2.023 1.39 1.01 2.158 1.012 1.212 1.012-.124 1.011-.54 1.012-.778 2.023.143 1.011-.993 1.011-1.359 1.012-.518 1.011.14 1.012-.391 1.011-.64 1.012-.44 1.011-.272 1.011.548 1.012.377 2.023-.162 1.011-.436 1.012-.049 1.011.328 1.011-.168 1.012-.015 3.034 1.159 1.012-.052 1.011-.486 3.034-.989 1.012-.225 1.011.102 1.012.31 2.023.868 3.034.763 1.011-.213 2.023-1.322 1.012-.627 2.022-1.65 1.012-.995 1.011-.578 2.023-.013 2.023-.46 1.011.124 1.012-.115 1.011-.718 3.035-2.836 2.023-.493 1.01.1 1.012.518 1.012.115 2.023.787 1.011-.368 1.012-.663 1.011-1.13 1.011-.884 2.023-.353 1.012-.112 1.011.117 1.012.988 1.011 1.227 1.011.062 1.012-.368 1.011-.574 1.012-1.996 1.011-1.131 2.023-1.403 1.011 1.252 1.012 1.456 1.011-.804 1.012 1.771 1.011 2.891 1.012.111 1.011.593 2.023-1.271 1.011 3.359 1.012 2.683 1.011-.863 2.023.878 1.012.065 1.011-.404 1.011.113 3.035-.115 1.011 3.16 1.012 2.125 1.011-.478 1.011-2.054L754.81 351l1.011-.427 1.012 1.233 1.011-5.547 1.012-2.168 1.011 2.887 1.011.295 1.012 2.84 1.011.4 1.012-.878 1.011 2.281 1.012.549 1.011.33 1.012 2.767 1.01.778 2.024 5.915 2.023 3.784 2.023-1.503 1.011.712 1.011-2.621 1.012-3.602 1.011-1.25 1.012-.523 1.011.273 1.012-.898 1.011-2.021 1.011.367 1.012 1.582 1.011.308 1.012-.58 1.011.268 3.034 5.491 1.012.874 1.011.623 1.012 1.981 1.011.589 1.012-2.266 1.011-1.856 1.012-1.046 1.01-1.682 1.012-2.13 2.023-6.276 1.012.12 1.011.682 1.012-1.996 1.011-.508 1.011 1.681 2.023 2.825h0" style="fill:none;stroke:#009e73;stroke-linecap:round;stroke-width:1.5" id="line2d_2"/><path clip-path="url(#p6eb9e5854a)" d="m149.973 353.656 44.503-.1 4.046-.143 3.034-.162 2.023-.587 1.011-.527 1.012-.931 1.011-1.236 2.023-8.143 1.011-.607 1.012-1.742 1.011-3.829 1.012-2.896 1.011-1.459 1.011-1.721 1.012-5.55 1.011-10.533 1.012-9.095 1.011-3.646 1.012-6.158 1.011-13.45 1.011-7.96 1.012-4.233 1.011-9.358 1.012-2.188 1.011-1.236 1.012-2.228 1.011 16.245 2.023 41.91 1.011 33.846 1.012 22.727 1.011 16.812 1.012 26.535 1.011 5.185 1.012-11.201 1.011-5.651 2.023-15.435 1.011-9.925 1.012-15.78 1.011-3.544 1.012 9.378 1.011 6.057 1.011-4.052 1.012 1.904 1.011 12.154 1.012 10.25 1.011 5.104 1.012.89 1.011-.91 1.011 5.266 1.012 1.478 2.023-17.095 1.011-4.639 1.012-2.512 1.011-1.985 1.012-3.16 1.011-2.268 1.011.527 1.012 2.066 1.011.243 2.023-2.046 1.012-2.836 2.022-3.12 1.012-2.268 1.011-1.073 2.023-9.44 1.012 1.054 1.011-.79 1.011-.628 1.012.02 1.011-2.552 1.012-1.256 1.011.506 1.012-.992 1.011 1.762 1.011 3.282 1.012 1.944 1.011 2.248 1.012 5.145 1.011 3.606 1.012-1.276 4.045-8.102 1.012-3.87 1.011-2.065 1.012.587 1.011-.527 1.012-.85 1.011-.446 1.011 2.107 1.012 3.423 1.011.527 1.012.83 1.011 1.175 1.012-.02 1.011.931 1.011-.587 2.023-16.995 1.012-2.025 1.011-1.6 1.012-1.236 2.022-1.296 1.012 12.66 1.011 14.908 1.012 1.64 1.011.892 1.012 1.336 1.011.568 1.012.06 2.022-14.887 1.012-.163 1.011 1.054 1.012.85 1.011-.06 1.012 1.053 1.011 2.512 1.011 1.782 1.012.71 1.011-.386 1.012-1.215 1.011-1.033 1.012-1.479 1.011-2.106 1.011-1.844 2.023-3.18 1.012-.445 1.011-.142 1.012-.304 1.011 1.013 2.023.263 4.046 5.287 1.011-.122 1.012.892 1.011.465 1.011-1.336 1.012-.932 2.023-.345 1.011-.486 1.012-2.633 1.011-1.985 1.011.284 1.012-1.357 1.011-1.135 1.012.669 1.011 2.754 1.012 5.834 1.011 4.517 1.011 2.633 1.012 4.132 1.011 1.56 1.012-2.046 1.011-4.497 1.012-5.003 2.022-5.428 1.012-3.342 1.011-1.58 1.012.952 1.011 2.046 2.023 1.742 1.012 1.742 1.011 1.276 1.011 1.843 1.012.87 1.011.203 1.012.628 2.023-1.964 1.011-.365 1.011-.587 1.012-.243 2.023-1.803 2.023-.203 1.011.142 2.023-2.816 2.023 2.877 1.011.324 1.012-.365 1.011-.648 1.011 1.337 1.012 1.094 1.011-1.742 1.012-2.066 1.011-1.074h1.012l1.011.365 2.023-1.742 1.011.445 1.012.73 1.011.384 1.012-.303 2.023-1.155 1.011-.668 1.011-.203 1.012.182 1.011.79 1.012.284 1.011-1.215h1.012l1.011.303 1.011-.344 1.012.162 1.011-1.944 1.012-1.459 1.011 1.175 1.012-.081 1.011.648 1.011 1.053 1.012-2.775 1.011-.222 1.012 1.539 1.011-.75 1.012.061 1.011-2.592 1.012-1.702 1.011 3.646 1.011-2.066 1.012-4.618 1.011.729 1.012-1.074 1.011-1.62 1.012-6.421 1.011-9.52 1.011.263 1.012.122 1.011-4.193 1.012-.588 1.011.628 1.012 5.348 1.011 8.487 1.011 2.977 1.012 3.788 1.011.648 1.012-.263 1.011 6.907 1.012 5.186 1.011-3.2 1.012 1.437 1.01 3.95 1.012 4.457 1.012 2.815 1.011-6.684 1.012-5.368 1.011.608 1.012-8.001 1.011-9.763 1.011-2.006 1.012.993 2.023 14.928 1.011 11.262 1.012 13.794 1.011 10.189 1.011 4.091 1.012-1.195 2.023-12.194 1.011-9.236 1.012-4.922 1.011.385 1.011.648 1.012 3.423 1.011 1.499 1.012-.77 1.011-1.762 1.012-1.215 1.011.405 1.012-.122 1.01-2.511 2.024 4.294 1.011.587 1.012-3.605 1.011-8.265 2.023-188.214 1.011-12.052 1.012-6.037 1.011-4.517 2.023-7.393 2.023 358.382 1.011 13.632 1.012 2.167 1.011 6.907 2.023 19.912 1.012-78.713 1.011-92.832 1.011-2.309 1.012 12.74 1.011 9.217 1.012-.648 2.023-8.426 1.011.141 1.012 1.439 1.01-6.705 1.012-11.708 1.012-1.701 1.011 6.42 1.012 2.432 1.011 3.727 2.023 12.274 1.011 3.667 1.012-.426 1.011-3.443 1.012.668 1.011-1.235 1.012-13.51 1.011-11.931 1.011 1.458 1.012 3.727 2.023 8.143 1.011-3.363 1.012 2.553 1.011 6.522 1.011-.75 1.012-.992 1.011-2.836 1.012-9.58 1.011-.831 1.012 4.193 1.011-4.538 2.023-17.642 1.011-4.031 1.012.608 1.011-.102 1.012-4.091 1.011 1.884 1.012 9.864 1.011 11.627 1.011 4.76 1.012 6.32 1.011 5.063 1.012 1.904 1.011.02 1.012-5.367 1.011-8.953 1.011-7.373 1.012-5.47 1.011-3.017 2.023-1.236 1.012.973 1.011-1.054 1.011 2.552 1.012 2.168 1.011-.83 1.012 1.194 1.011 4.254 2.023-1.215 1.012-2.33 1.01-3.463 1.012.75 1.012-3.1 1.011-8.973 1.012 2.795 1.011 10.513 1.012 8.993 1.011 7.637 1.011 4.84 1.012 7.394 1.011 9.216 1.012 4.132 1.011-.202 1.012-.851 1.011-1.134 1.011-1.783 1.012-.79 1.011.73 1.012-4.214 1.011-5.307 1.012-1.64 1.011.547 1.011.688 1.012-1.033 1.011-1.944 1.012 3.646 1.011 5.205 1.012 1.378 2.023 3.22 1.01 1.297 1.012 2.106 1.012-1.438 1.011-.668 1.012 1.053 1.011-5.246 1.012-4.477 1.011-24.468 1.011-30.181 1.012-4.922 1.011-2.046 1.012-3.241 2.023 3.22 1.011 45.798 1.011 57.628 1.012 9.297 1.011-2.289 1.012-.993 1.011-1.276 1.012-1.54 1.011-23.941 1.011-30.343 1.012-6.907 1.011 1.134 1.012 1.438 1.011.567 1.012-.303 2.023-3.16 1.01.06 1.012-.384 1.012-1.135 1.011-.04 1.012.932 1.011 1.397 1.012 1.094 1.011-.121 2.023-2.532 1.011-.83 1.012-.993 2.023-2.573 1.011-.83 1.011.729 1.012 1.013 1.011.08 1.012-.364 1.011-.243 1.012.486 1.011.628 2.023-.182 1.011.506 1.012.77 1.011.202 1.012-.952 1.011-.729 1.012-.405 2.022-1.195 1.012-.486 1.011.101 1.012 1.053 1.011.649 1.012.141 2.022 1.317 1.012.648 1.011.932 1.012.223 1.011-.02 1.012.202 1.011-.85 2.023-2.229 1.011-1.944 1.012-1.317 1.011-1.053 1.012-1.317 1.011-.101 2.023.506 1.011.891 1.012-.06 1.011-.973 1.012-.587 1.011-.81 1.012-1.195 1.01-1.013 1.012-1.398 1.012-.75 2.023 1.864 1.011.04 1.012.467 1.011.202 1.011.567 1.012 1.6 2.023.81 2.023 3.485 1.011.506 1.011-1.235 1.012-2.41 1.011-1.014 1.012-1.904 1.011-.87 1.012.283 1.011-.121 1.011 1.539 1.012 2.876 1.011-.304 1.012.405 1.011-1.296 1.012-4.375 2.023 2.147 1.01-1.438 2.024 4.962 1.011.831 1.012 3.018 1.011-.304 1.012-.142 1.011 1.256 1.011.912 2.023 2.694 1.012-.061 1.011 2.208 1.012.445 1.011-2.45 2.023-7.82 1.011-.688 1.012 1.337 1.011-4.395 1.012-2.026 1.011 3.99 2.023 6.28h1.011l1.012-1.52 1.011 3.403 1.012 2.168 1.011-1.945 1.012-1.56 1.01-1.822 2.024 2.106 1.011-1.033 1.012-.263 1.011.486 1.012 1.843 1.011 2.33 1.011.567 1.012 1.154 1.011.547 1.012-.121 1.011 1.154 1.012.891 1.011-.222 1.011-1.54 1.012-1.276 1.011.527 1.012.162 1.011-.71 2.023-2.997 1.011 1.053 1.012.588 1.011-.223 1.012 2.046 1.011 1.6 1.012.142 1.011 1.418 1.012.607 1.01-1.519 1.012-3.058 1.012-4.74 1.011-4.072 3.035-6.137 1.011 1.215 1.011 4.092 1.012 2.957 1.011 1.175h0" style="fill:none;stroke:#d55e00;stroke-linecap:round;stroke-width:1.5" id="line2d_3"/><path clip-path="url(#p6eb9e5854a)" d="M149.973 353.656h56.64l2.023-4.126h1.011l2.023-2.063 1.012-3.095 1.011-6.19 1.011-5.159 1.012-3.094 1.011-4.127 1.012-3.095 1.011-5.158 1.012-7.222 1.011-3.095 1.011 7.222 1.012 4.126 1.011-14.443 1.012-18.57 1.011-1.031 2.023 31.981 1.012-4.126 1.011-8.254 1.011 31.981 1.012 48.488 1.011 15.475 2.023-14.443 1.012 8.253 1.011 16.506 1.011-12.38 1.012-26.822 1.011-7.222 1.012 4.127h1.011l1.012-5.159 1.011-9.285 1.011-2.063 1.012 2.063 1.011-1.031 1.012 1.031 2.023 12.38 1.011 8.253 1.011 4.127 1.012-2.063 1.011 5.158 1.012 2.063 1.011-4.126h1.012l1.011-1.032 1.012 2.063 1.011 4.127 1.011-9.285 1.012-13.411 2.023-14.443 1.011-6.19 1.012-5.159 1.011-3.095 1.011 8.254 1.012 15.474 1.011 9.285 1.012 4.127 1.011 3.095 1.012 1.031h1.011l1.011-4.126 1.012-7.222 1.011-4.126 1.012-2.064 1.011-4.126 1.012-3.095h1.011l2.023-6.19h2.023l2.023 8.253h1.011l2.023 12.38 2.023-2.063 2.023-6.19h1.011l2.023-6.19 4.046 8.253h1.011l1.012-2.063 2.022-2.064 2.023-6.19 1.012-2.063h2.023l1.011-1.031h1.011l1.012 3.095 1.011 4.126 1.012 2.063h2.023l1.011-1.031h1.012l1.011-1.032 1.011-5.158 1.012-3.095h1.011l1.012 6.19 1.011 7.221h1.012l1.011 1.032 1.011 6.19 1.012 4.127h1.011l1.012-2.064 1.011-4.126 2.023-6.19 1.011-4.127 1.012-2.063h1.011l1.012-3.095 1.011 2.063 1.012 7.222 1.011 3.095 1.011 1.031h2.023l1.012 1.032 1.011-2.063 1.012-5.159 1.011-1.031 1.012 1.031h2.022l3.035 3.095h1.011l1.012-2.063 1.011-1.032h1.011l2.023-4.126 1.012 1.032h2.023l1.011 1.031h1.011l1.012 2.063h1.011l1.012-4.126 1.011-1.032 1.012 2.064 1.011 1.031h1.011l1.012-2.063 2.023 4.126 1.011-1.031h1.012l1.011-1.032h1.012l1.011 2.063 1.011-3.094 1.012 2.063 1.011 6.19 1.012-1.032h2.023l1.011-2.063 1.011 4.126h1.012l1.011-7.221 1.012-1.032h2.023l1.011-1.031 1.011-4.127h1.012l1.011 5.158 1.012 2.063h2.023l2.022 10.317h1.012l2.023-2.063h2.023l1.011-5.159 1.012-6.19 1.011-7.221 1.011-15.475 1.012-11.348 1.011-2.063h1.012l1.011 2.063 1.012-2.063 1.011 5.158 1.011 22.696 1.012 12.38 1.011-4.126 1.012-6.19 1.011-3.095 1.012 11.348 1.011 4.126 1.011-6.19 1.012 9.285 1.011 14.443 1.012 12.38 1.011 2.064 1.012-14.444 2.022-16.506 1.012-20.633 1.011-13.411 1.012-6.19 1.011-5.158 1.012 5.158 2.023 12.38 1.011 12.38 1.011 5.158h1.012l1.011-1.032 1.012-7.222 1.011 3.095 1.012-7.221 1.011-18.57 1.011-2.063h1.012l1.011 10.316 1.012 5.159 1.011-24.76 1.012 4.127 1.011 18.57 1.011-10.317 1.012-5.158 1.011-1.032 1.012 11.348 1.011 30.95 1.012 17.538 1.011 20.633 1.012 11.348 1.01-10.317 1.012-2.063 1.012-5.158 1.011-14.443 1.012-36.108 1.011-63.962 1.012-14.444 1.011 24.76 1.011 3.095 1.012-3.095 1.011 5.158 1.012 25.792 1.011 54.677 1.012 42.298 1.011 2.063 1.011-6.19 1.012 2.063h1.011l1.012 12.38 1.011-3.095 1.012-35.076 3.034-33.013 1.011-19.601 1.012-42.298 1.011 2.064 1.012 25.79h1.011l2.023 20.634 2.023 56.74 2.023-36.107h2.023l1.011-15.475 1.011-18.57 1.012-1.031 1.011-10.317 1.012-22.696 1.011-10.317 1.012 14.444 1.011 35.076 1.011 14.443 1.012 3.095 1.011 23.728 1.012 35.076 1.011 20.633 1.012 11.348 1.011-6.19 1.011-11.348 1.012 7.221 1.011 6.19 1.012-5.158 1.011-10.317 1.012-54.677 1.011-26.823 1.012 26.823 1.01-9.285 2.024-54.677 1.011-5.158 1.012 63.962 1.011 50.55 1.012-38.17 1.011-24.76 1.011 22.696 1.012 33.013 1.011 10.317 1.012-48.488 1.011-59.836 1.012 30.95 1.011 46.424 1.011-3.095 1.012-19.601 1.011-12.38 2.023 66.026 2.023-42.298 1.011-1.032 1.012 12.38 1.011 7.222 1.012-27.855 1.011-5.158 1.012 16.506 1.011-12.38 1.012-17.538 1.01-11.348 1.012 7.222 1.012 6.19 1.011-20.633 1.012-15.475 1.011 17.538 1.012 19.601 1.011-1.031 1.011-7.222 1.012 7.222 1.011 24.76 1.012 10.316 1.011-21.665 1.012-7.221 1.011 14.443h1.011l1.012-11.348 1.011-20.633 1.012-7.222 1.011 24.76 1.012 13.411 1.011-9.285h1.011l1.012 8.253 1.011 12.38 1.012 5.158 1.011-15.474 1.012-18.57 1.011-2.063 1.012-9.285 1.01 5.158 1.012 11.348h1.012l1.011-2.063 1.012-5.158h1.011l1.012 18.57 1.011-1.032 1.011-17.538 1.012-7.222 2.023 10.317v25.79l1.011 5.16 1.012-10.317 1.011 4.126 1.011 16.507 1.012 11.348 1.011-4.127 1.012-16.506 1.011-7.222 1.012-3.095h1.011l1.011 1.032 1.012-3.095 1.011 4.127 1.012 8.253 2.023 18.57 1.011-10.317 1.012-16.506 1.01-2.064 1.012 2.064 1.012-6.19 1.011-10.317 1.012-6.19 1.011 7.222 1.012 11.348 1.011-2.063 1.011-7.222 1.012 10.317 1.011 13.411 1.012 2.063 1.011-6.19 1.012-7.221 1.011 7.221 1.011 8.254 1.012-5.159 1.011-6.19 1.012-1.031 1.011 6.19 1.012 5.158 1.011-5.158 1.011-7.222 1.012-5.158 1.011-2.063h1.012l2.023-8.254 2.023-4.126h5.057l1.011 1.032 1.012 4.126 1.011 3.095h3.034l2.023-6.19 2.023-4.126h3.034l1.012 6.19 1.011 7.221 1.012 1.032h4.045l1.012-3.095 1.011-4.127 1.012-1.032 2.023-8.253h4.045l1.012-1.031 1.011 7.221 1.012 8.253h4.045l1.012 1.032 1.011-4.127 1.012-5.158h3.034l1.011-1.031 1.012-2.064 1.011 1.032 1.012 2.063h3.034l1.011 2.063 1.012 3.095 1.011-6.19 1.012-7.221h1.011l2.023-45.393 1.011-4.126 1.012-7.222 1.011 2.064 1.012 7.221h1.011l2.023 73.247 1.011 2.064 1.012 11.348 1.011 13.411 1.012 3.095h1.011l2.023-34.044 1.011-4.127 2.023-28.886 1.012-5.158h1.011l1.012 3.095 1.011 4.126 1.011 11.348 1.012 16.507 1.011 9.285 1.012 3.094h1.011l1.012 8.254 1.011 5.158 2.023-18.57 1.011-5.158 1.012-2.063h1.011l2.023-27.855 1.012-5.158h1.011l1.011-1.032 1.012-5.158h1.011l1.012 12.38 1.011 10.316 1.012 4.127 1.011 5.158 1.011 4.127 1.012 5.158h1.011l1.012-16.506 1.011-2.064 1.012 15.475 2.022-18.57 1.012 1.032h1.011l1.012 5.158 1.011-2.063 1.012-10.317 1.011 8.254 1.012 11.348h2.022l1.012 13.411 1.011 9.285 1.012-2.063h1.011l1.012-4.127 1.011-2.063h1.011l1.012-9.285 1.011-6.19h2.023l1.012-3.095 1.011-6.19h1.011l1.012 4.127 1.011-1.032 1.012 1.032h1.011l1.012 10.316 1.011 16.507h1.011l1.012-12.38 1.011-5.158 1.012 4.126 1.011-3.095 2.023-18.57h1.012l2.022 27.855 1.012-1.031 1.011 4.126 1.012 5.158 1.011 1.032h1.012l1.011-12.38 1.011-17.538 1.012-6.19 1.011-3.095h0" style="fill:none;stroke:#0072b2;stroke-linecap:round;stroke-width:1.5" id="line2d_4"/><path clip-path="url(#p6eb9e5854a)" d="M117 353.656h725.4" style="fill:none;stroke:red;stroke-dasharray:1.5,2.475;stroke-dashoffset:0;stroke-width:1.5" id="line2d_5"/><path d="M117 576.72V77.76" style="fill:none;stroke:#d3d3d3;stroke-linecap:square;stroke-linejoin:miter;stroke-width:1.25" id="patch_3"/><path d="M117 576.72h725.4" style="fill:none;stroke:#d3d3d3;stroke-linecap:square;stroke-linejoin:miter;stroke-width:1.25" id="patch_4"/><g id="matplotlib.axis_1"><g id="xtick_1"><g style="fill:#696969" transform="matrix(.16 0 0 -.16 117.412 598.378)" id="text_1"><defs><path d="M9.813 72.906h9.859V5.078q0-13.187-5-19.14-5-5.954-16.094-5.954h-3.75v8.297h3.078q6.531 0 9.219 3.672Q9.813-4.39 9.813 5.078z" id="DejaVuSans-74"/><path d="M34.281 27.484q-10.89 0-15.093-2.484-4.204-2.484-4.204-8.5 0-4.781 3.157-7.594 3.156-2.797 8.562-2.797 7.485 0 12 5.297 4.516 5.297 4.516 14.078v2zm17.922 3.72V0H43.22v8.297Q40.14 3.328 35.547.953q-4.594-2.375-11.234-2.375-8.391 0-13.36 4.719Q6 8.016 6 15.922q0 9.219 6.172 13.906 6.187 4.688 18.437 4.688h12.61v.89q0 6.203-4.078 9.594-4.078 3.39-11.453 3.39-4.688 0-9.141-1.124-4.438-1.125-8.531-3.375v8.312q4.921 1.906 9.562 2.844 4.64.953 9.031.953 11.875 0 17.735-6.156 5.86-6.14 5.86-18.64z" id="DejaVuSans-97"/><path d="M54.89 33.016V0h-8.984v32.719q0 7.765-3.031 11.61-3.031 3.858-9.078 3.858-7.281 0-11.484-4.64-4.204-4.625-4.204-12.64V0H9.08v54.688h9.03v-8.5q3.235 4.937 7.594 7.374Q30.078 56 35.797 56q9.422 0 14.25-5.828 4.844-5.828 4.844-17.156z" id="DejaVuSans-110"/></defs><use xlink:href="#DejaVuSans-74"/><use x="29.492" xlink:href="#DejaVuSans-97"/><use x="90.771" xlink:href="#DejaVuSans-110"/></g></g><g id="xtick_2"><g style="fill:#696969" transform="matrix(.16 0 0 -.16 207.944 598.378)" id="text_2"><defs><path d="M34.188 63.188 20.797 26.906h26.812zm-5.579 9.718h11.188L67.578 0h-10.25l-6.64 18.703h-32.86L11.188 0H.78z" id="DejaVuSans-65"/><path d="M18.11 8.203v-29H9.077v75.484h9.031v-8.296q2.844 4.875 7.157 7.234Q29.594 56 35.594 56q9.968 0 16.187-7.906 6.235-7.907 6.235-20.797T51.78 6.484q-6.218-7.906-16.187-7.906-6 0-10.328 2.375-4.313 2.375-7.157 7.25zm30.578 19.094q0 9.906-4.079 15.547-4.078 5.64-11.203 5.64-7.14 0-11.218-5.64-4.079-5.64-4.079-15.547 0-9.906 4.078-15.547 4.079-5.64 11.22-5.64 7.124 0 11.202 5.64t4.078 15.547z" id="DejaVuSans-112"/><path d="M41.11 46.297q-1.516.875-3.297 1.281Q36.03 48 33.89 48q-7.625 0-11.703-4.953-4.079-4.953-4.079-14.234V0H9.08v54.688h9.03v-8.5q2.844 4.984 7.375 7.39Q30.031 56 36.531 56q.922 0 2.047-.125 1.125-.11 2.484-.36z" id="DejaVuSans-114"/></defs><use xlink:href="#DejaVuSans-65"/><use x="68.408" xlink:href="#DejaVuSans-112"/><use x="131.885" xlink:href="#DejaVuSans-114"/></g></g><g id="xtick_3"><g style="fill:#696969" transform="matrix(.16 0 0 -.16 304.172 598.378)" id="text_3"><defs><path d="M8.5 21.578v33.11h8.984V21.922q0-7.766 3.016-11.656 3.031-3.875 9.094-3.875 7.265 0 11.484 4.64 4.234 4.64 4.234 12.656v31h8.985V0h-8.984v8.406Q42.047 3.422 37.718 1q-4.313-2.422-10.032-2.422-9.421 0-14.312 5.86Q8.5 10.296 8.5 21.578zM31.11 56z" id="DejaVuSans-117"/><path d="M9.422 75.984h8.984V0H9.422z" id="DejaVuSans-108"/></defs><use xlink:href="#DejaVuSans-74"/><use x="29.492" xlink:href="#DejaVuSans-117"/><use x="92.871" xlink:href="#DejaVuSans-108"/></g></g><g id="xtick_4"><g style="fill:#696969" transform="matrix(.16 0 0 -.16 393.044 598.378)" id="text_4"><defs><path d="M39.406 66.219q-10.75 0-17.078-8.016-6.312-8-6.312-21.828 0-13.766 6.312-21.781 6.328-8 17.078-8 10.735 0 17.016 8 6.281 8.015 6.281 21.781 0 13.828-6.281 21.828-6.281 8.016-17.016 8.016zm0 8q15.328 0 24.5-10.281 9.188-10.282 9.188-27.563 0-17.234-9.188-27.516-9.172-10.28-24.5-10.28-15.375 0-24.593 10.25-9.204 10.265-9.204 27.546t9.204 27.563q9.218 10.28 24.593 10.28z" id="DejaVuSans-79"/><path d="M48.781 52.594v-8.407q-3.812 2.11-7.64 3.157-3.828 1.047-7.735 1.047-8.75 0-13.593-5.547-4.829-5.532-4.829-15.547 0-10.016 4.829-15.563 4.843-5.53 13.593-5.53 3.907 0 7.735 1.046 3.828 1.047 7.64 3.156V2.094Q45.016.344 40.984-.531q-4.015-.89-8.562-.89-12.36 0-19.64 7.765-7.266 7.765-7.266 20.953 0 13.375 7.343 21.031Q20.22 56 33.016 56q4.14 0 8.093-.86 3.953-.843 7.672-2.546z" id="DejaVuSans-99"/><path d="M18.313 70.219V54.688h18.5v-6.985h-18.5V18.016q0-6.688 1.828-8.594 1.828-1.906 7.453-1.906h9.218V0h-9.218q-10.407 0-14.36 3.875-3.953 3.89-3.953 14.14v29.688H2.687v6.984h6.594V70.22z" id="DejaVuSans-116"/></defs><use xlink:href="#DejaVuSans-79"/><use x="78.711" xlink:href="#DejaVuSans-99"/><use x="133.691" xlink:href="#DejaVuSans-116"/></g></g><g id="xtick_5"><g style="fill:#696969" transform="matrix(.16 0 0 -.16 487.596 598.378)" id="text_5"><use xlink:href="#DejaVuSans-74"/><use x="29.492" xlink:href="#DejaVuSans-97"/><use x="90.771" xlink:href="#DejaVuSans-110"/></g></g><g id="xtick_6"><g style="fill:#696969" transform="matrix(.16 0 0 -.16 577.118 598.378)" id="text_6"><use xlink:href="#DejaVuSans-65"/><use x="68.408" xlink:href="#DejaVuSans-112"/><use x="131.885" xlink:href="#DejaVuSans-114"/></g></g><g id="xtick_7"><g style="fill:#696969" transform="matrix(.16 0 0 -.16 673.346 598.378)" id="text_7"><use xlink:href="#DejaVuSans-74"/><use x="29.492" xlink:href="#DejaVuSans-117"/><use x="92.871" xlink:href="#DejaVuSans-108"/></g></g><g id="xtick_8"><g style="fill:#696969" transform="matrix(.16 0 0 -.16 762.217 598.378)" id="text_8"><use xlink:href="#DejaVuSans-79"/><use x="78.711" xlink:href="#DejaVuSans-99"/><use x="133.691" xlink:href="#DejaVuSans-116"/></g></g></g><g id="matplotlib.axis_2"><g id="ytick_1"><g style="fill:#696969" transform="matrix(.16 0 0 -.16 73.733 544.782)" id="text_9"><defs><path d="M10.594 35.5h62.593v-8.297H10.594z" id="DejaVuSans-8722"/><path d="M12.406 8.297h16.11v55.625l-17.532-3.516v8.985l17.438 3.515h9.86V8.296H54.39V0H12.406z" id="DejaVuSans-49"/><path d="M31.781 66.406q-7.61 0-11.453-7.5Q16.5 51.422 16.5 36.375q0-14.984 3.828-22.484 3.844-7.5 11.453-7.5 7.672 0 11.5 7.5 3.844 7.5 3.844 22.484 0 15.047-3.844 22.531-3.828 7.5-11.5 7.5zm0 7.813q12.266 0 18.735-9.703 6.468-9.688 6.468-28.141 0-18.406-6.468-28.11-6.47-9.687-18.735-9.687-12.25 0-18.718 9.688-6.47 9.703-6.47 28.109 0 18.453 6.47 28.14Q19.53 74.22 31.78 74.22z" id="DejaVuSans-48"/></defs><use xlink:href="#DejaVuSans-8722"/><use x="83.789" xlink:href="#DejaVuSans-49"/><use x="147.412" xlink:href="#DejaVuSans-48"/></g></g><g id="ytick_2"><g style="fill:#696969" transform="matrix(.16 0 0 -.16 83.912 452.258)" id="text_10"><defs><path d="M10.797 72.906h38.719v-8.312H19.828v-17.86q2.14.735 4.281 1.094 2.157.36 4.313.36 12.203 0 19.328-6.688 7.14-6.688 7.14-18.11 0-11.765-7.328-18.296-7.328-6.516-20.656-6.516-4.593 0-9.36.781-4.75.782-9.827 2.344v9.922q4.39-2.39 9.078-3.563 4.687-1.171 9.906-1.171 8.453 0 13.375 4.437 4.938 4.438 4.938 12.063 0 7.609-4.938 12.047-4.922 4.453-13.375 4.453-3.953 0-7.89-.875-3.922-.875-8.016-2.735z" id="DejaVuSans-53"/></defs><use xlink:href="#DejaVuSans-8722"/><use x="83.789" xlink:href="#DejaVuSans-53"/></g></g><g id="ytick_3"><use xlink:href="#DejaVuSans-48" style="fill:#696969" transform="matrix(.16 0 0 -.16 97.32 359.735)" id="text_11"/></g><g id="ytick_4"><use xlink:href="#DejaVuSans-53" style="fill:#696969" transform="matrix(.16 0 0 -.16 97.32 267.212)" id="text_12"/></g><g id="ytick_5"><g style="fill:#696969" transform="matrix(.16 0 0 -.16 87.14 174.689)" id="text_13"><use xlink:href="#DejaVuSans-49"/><use x="63.623" xlink:href="#DejaVuSans-48"/></g></g><g style="fill:#696969" transform="matrix(0 -.2 -.2 0 65.573 445.117)" id="text_14"><defs><path d="M64.406 67.281v-10.39q-4.984 4.64-10.625 6.922-5.64 2.296-11.984 2.296-12.5 0-19.14-7.64-6.641-7.64-6.641-22.094 0-14.406 6.64-22.047 6.64-7.64 19.14-7.64 6.345 0 11.985 2.296 5.64 2.297 10.625 6.938V5.609Q59.234 2.094 53.437.33q-5.78-1.75-12.218-1.75-16.563 0-26.094 10.124-9.516 10.14-9.516 27.672 0 17.578 9.516 27.703 9.531 10.14 26.094 10.14 6.531 0 12.312-1.734 5.797-1.734 10.875-5.203z" id="DejaVuSans-67"/><path d="M44.281 53.078v-8.5q-3.797 1.953-7.906 2.922-4.094.984-8.5.984-6.688 0-10.031-2.047-3.344-2.046-3.344-6.156 0-3.125 2.39-4.906 2.391-1.781 9.626-3.39l3.078-.688q9.562-2.047 13.593-5.781 4.032-3.735 4.032-10.422 0-7.625-6.032-12.078-6.03-4.438-16.578-4.438-4.39 0-9.156.86Q10.688.296 5.422 2v9.281q4.984-2.594 9.812-3.89 4.829-1.282 9.579-1.282 6.343 0 9.75 2.172 3.421 2.172 3.421 6.125 0 3.656-2.468 5.61-2.453 1.953-10.813 3.765l-3.125.735q-8.344 1.75-12.062 5.39-3.704 3.64-3.704 9.985 0 7.718 5.47 11.906Q16.75 56 26.811 56q4.97 0 9.36-.734 4.406-.72 8.11-2.188z" id="DejaVuSans-115"/><path d="M56.203 29.594v-4.39H14.891q.593-9.282 5.593-14.142 5-4.859 13.938-4.859 5.172 0 10.031 1.266 4.86 1.265 9.656 3.812v-8.5Q49.266.734 44.187-.344 39.11-1.422 33.892-1.422q-13.094 0-20.735 7.61-7.64 7.625-7.64 20.625 0 13.421 7.25 21.296Q20.016 56 32.328 56q11.031 0 17.453-7.11 6.422-7.093 6.422-19.296zm-8.984 2.64q-.094 7.36-4.125 11.75-4.032 4.407-10.672 4.407-7.516 0-12.031-4.25-4.516-4.25-5.203-11.97z" id="DejaVuSans-101"/><path d="M44.39 34.188q3.172-1.079 6.172-4.594 3-3.516 6.032-9.672L66.609 0H56l-9.313 18.703q-3.624 7.328-7.015 9.719-3.39 2.39-9.25 2.39h-10.75V0h-9.86v72.906h22.266q12.5 0 18.656-5.234 6.157-5.219 6.157-15.766 0-6.89-3.203-11.437-3.204-4.532-9.297-6.282zM19.673 64.797V38.922h12.406q7.125 0 10.766 3.297 3.64 3.297 3.64 9.687 0 6.39-3.64 9.64-3.64 3.25-10.766 3.25z" id="DejaVuSans-82"/><path d="M8.594 75.984h20.703V69H17.578V-6.203h11.719v-6.984H8.594z" id="DejaVuSans-91"/><path d="M25.39 72.906h8.297L8.297-9.28H0z" id="DejaVuSans-47"/><path d="M45.406 46.39v29.594h8.985V0h-8.985v8.203Q42.578 3.328 38.25.953q-4.313-2.375-10.375-2.375-9.906 0-16.14 7.906-6.22 7.922-6.22 20.813 0 12.89 6.22 20.797Q17.968 56 27.874 56q6.063 0 10.375-2.375 4.328-2.36 7.156-7.234zm-30.61-19.093q0-9.906 4.079-15.547 4.078-5.64 11.203-5.64 7.125 0 11.219 5.64 4.11 5.64 4.11 15.547 0 9.906-4.11 15.547-4.094 5.64-11.219 5.64-7.125 0-11.203-5.64-4.078-5.64-4.078-15.547z" id="DejaVuSans-100"/><path d="M32.172-5.078q-3.797-9.766-7.422-12.735-3.61-2.984-9.656-2.984H7.906v7.516h5.282q3.703 0 5.75 1.765Q21-9.766 23.483-3.219l1.61 4.094-22.11 53.813H12.5l17.094-42.766 17.093 42.766h9.516z" id="DejaVuSans-121"/><path d="M30.422 75.984v-89.171H9.719v6.984H21.39V69H9.719v6.984z" id="DejaVuSans-93"/></defs><use xlink:href="#DejaVuSans-67"/><use x="69.824" xlink:href="#DejaVuSans-97"/><use x="131.104" xlink:href="#DejaVuSans-115"/><use x="183.203" xlink:href="#DejaVuSans-101"/><use x="244.727" xlink:href="#DejaVuSans-32"/><use x="276.514" xlink:href="#DejaVuSans-82"/><use x="343.746" xlink:href="#DejaVuSans-97"/><use x="405.025" xlink:href="#DejaVuSans-116"/><use x="444.234" xlink:href="#DejaVuSans-101"/><use x="505.758" xlink:href="#DejaVuSans-32"/><use x="537.545" xlink:href="#DejaVuSans-91"/><use x="576.559" xlink:href="#DejaVuSans-32"/><use x="608.346" xlink:href="#DejaVuSans-99"/><use x="663.326" xlink:href="#DejaVuSans-97"/><use x="724.605" xlink:href="#DejaVuSans-115"/><use x="776.705" xlink:href="#DejaVuSans-101"/><use x="838.229" xlink:href="#DejaVuSans-115"/><use x="890.328" xlink:href="#DejaVuSans-47"/><use x="924.02" xlink:href="#DejaVuSans-100"/><use x="987.496" xlink:href="#DejaVuSans-97"/><use x="1048.775" xlink:href="#DejaVuSans-121"/><use x="1107.955" xlink:href="#DejaVuSans-32"/><use x="1139.742" xlink:href="#DejaVuSans-93"/></g></g><g style="fill:#696969" transform="matrix(.24 0 0 -.24 245.86 71.76)" id="text_15"><defs><path d="M9.813 72.906h13.28l32.329-60.984v60.984h9.562V0h-13.28L19.39 60.984V0H9.813z" id="DejaVuSans-78"/><path d="M4.203 54.688h8.985l11.234-42.672 11.172 42.672h10.593l11.235-42.672 11.187 42.672h8.985L63.28 0H52.688L40.922 44.828 29.109 0H18.5z" id="DejaVuSans-119"/><path d="M8.203 72.906h46.875v-4.203L28.61 0H18.312L43.22 64.594H8.203z" id="DejaVuSans-55"/><path d="M2.984 54.688H12.5L29.594 8.797l17.093 45.89h9.516L35.687 0H23.485z" id="DejaVuSans-118"/><path d="M45.406 27.984q0 9.766-4.031 15.125-4.016 5.375-11.297 5.375-7.219 0-11.25-5.375-4.031-5.359-4.031-15.125 0-9.718 4.031-15.093t11.25-5.375q7.281 0 11.297 5.375 4.031 5.375 4.031 15.093zm8.985-21.203q0-13.953-6.203-20.765Q42-20.797 29.203-20.797q-4.734 0-8.937.703-4.203.703-8.157 2.172v8.735q3.954-2.141 7.813-3.157 3.86-1.031 7.86-1.031 8.843 0 13.234 4.61 4.39 4.609 4.39 13.937v4.453q-2.781-4.844-7.125-7.234Q33.938 0 27.875 0 17.828 0 11.672 7.656q-6.156 7.672-6.156 20.328 0 12.688 6.156 20.344Q17.828 56 27.875 56q6.063 0 10.406-2.39 4.344-2.391 7.125-7.22v8.297h8.985z" id="DejaVuSans-103"/><path d="M30.61 48.39q-7.22 0-11.422-5.64-4.204-5.64-4.204-15.453 0-9.813 4.172-15.453 4.188-5.64 11.453-5.64 7.188 0 11.375 5.655 4.203 5.672 4.203 15.438 0 9.719-4.203 15.406-4.187 5.688-11.375 5.688zm0 7.61q11.718 0 18.406-7.625 6.703-7.61 6.703-21.078 0-13.422-6.703-21.078-6.688-7.64-18.407-7.64-11.765 0-18.437 7.64-6.656 7.656-6.656 21.078 0 13.469 6.656 21.078Q18.844 56 30.609 56z" id="DejaVuSans-111"/><path d="M37.11 75.984V68.5h-8.594q-4.828 0-6.72-1.953-1.874-1.953-1.874-7.031v-4.828h14.797v-6.985H19.922V0H10.89v47.703H2.297v6.984h8.594V58.5q0 9.125 4.25 13.297 4.25 4.187 13.468 4.187z" id="DejaVuSans-102"/><path d="M9.813 72.906h9.859V42.094L52.39 72.906h12.703L28.906 38.922 67.672 0H54.688L19.672 35.11V0h-9.86z" id="DejaVuSans-75"/></defs><use xlink:href="#DejaVuSans-78"/><use x="74.805" xlink:href="#DejaVuSans-101"/><use x="136.328" xlink:href="#DejaVuSans-119"/><use x="218.115" xlink:href="#DejaVuSans-32"/><use x="249.902" xlink:href="#DejaVuSans-67"/><use x="319.727" xlink:href="#DejaVuSans-97"/><use x="381.006" xlink:href="#DejaVuSans-115"/><use x="433.105" xlink:href="#DejaVuSans-101"/><use x="494.629" xlink:href="#DejaVuSans-115"/><use x="546.729" xlink:href="#DejaVuSans-32"/><use x="578.516" xlink:href="#DejaVuSans-55"/><use x="642.139" xlink:href="#DejaVuSans-100"/><use x="705.615" xlink:href="#DejaVuSans-32"/><use x="737.402" xlink:href="#DejaVuSans-97"/><use x="798.682" xlink:href="#DejaVuSans-118"/><use x="857.861" xlink:href="#DejaVuSans-103"/><use x="921.338" xlink:href="#DejaVuSans-32"/><use x="953.125" xlink:href="#DejaVuSans-115"/><use x="1005.225" xlink:href="#DejaVuSans-108"/><use x="1033.008" xlink:href="#DejaVuSans-111"/><use x="1094.189" xlink:href="#DejaVuSans-112"/><use x="1157.666" xlink:href="#DejaVuSans-101"/><use x="1219.189" xlink:href="#DejaVuSans-32"/><use x="1250.977" xlink:href="#DejaVuSans-111"/><use x="1312.158" xlink:href="#DejaVuSans-102"/><use x="1347.363" xlink:href="#DejaVuSans-32"/><use x="1379.15" xlink:href="#DejaVuSans-55"/><use x="1442.773" xlink:href="#DejaVuSans-32"/><use x="1474.561" xlink:href="#DejaVuSans-97"/><use x="1535.84" xlink:href="#DejaVuSans-118"/><use x="1595.02" xlink:href="#DejaVuSans-103"/><use x="1658.496" xlink:href="#DejaVuSans-47"/><use x="1692.188" xlink:href="#DejaVuSans-49"/><use x="1755.811" xlink:href="#DejaVuSans-48"/><use x="1819.434" xlink:href="#DejaVuSans-48"/><use x="1883.057" xlink:href="#DejaVuSans-75"/></g><g id="legend_1"><path d="M694.75 184.5H831.2q3.2 0 3.2-3.2V88.96q0-3.2-3.2-3.2H694.75q-3.2 0-3.2 3.2v92.34q0 3.2 3.2 3.2z" style="fill:none;opacity:.8;stroke:#ccc;stroke-linejoin:miter" id="patch_5"/><path d="M697.95 98.718h32" style="fill:none;stroke:#000;stroke-linecap:round;stroke-width:1.5" id="line2d_6"/><g style="fill:#696969" transform="matrix(.16 0 0 -.16 742.75 104.317)" id="text_16"><defs><path d="M8.688 72.906h9.921V28.61q0-11.718 4.235-16.875 4.25-5.14 13.781-5.14 9.469 0 13.719 5.14 4.25 5.157 4.25 16.875v44.297H64.5V27.391q0-14.25-7.063-21.532-7.046-7.28-20.812-7.28-13.828 0-20.89 7.28-7.047 7.282-7.047 21.532z" id="DejaVuSans-85"/><path d="M53.516 70.516V60.89q-5.61 2.687-10.594 4-4.984 1.328-9.625 1.328-8.047 0-12.422-3.125t-4.375-8.89q0-4.845 2.906-7.313 2.907-2.453 11.016-3.97l5.953-1.218q11.031-2.11 16.281-7.406 5.25-5.297 5.25-14.172 0-10.61-7.11-16.078-7.093-5.469-20.812-5.469-5.172 0-11.015 1.172Q13.14.922 6.89 3.219v10.156q6-3.36 11.765-5.078 5.766-1.703 11.328-1.703 8.438 0 13.032 3.312 4.593 3.328 4.593 9.485 0 5.359-3.297 8.39-3.296 3.032-10.812 4.547L27.484 33.5q-11.03 2.188-15.968 6.875-4.922 4.688-4.922 13.047 0 9.672 6.812 15.234 6.813 5.563 18.766 5.563 5.14 0 10.453-.938 5.328-.922 10.89-2.765z" id="DejaVuSans-83"/></defs><use xlink:href="#DejaVuSans-85"/><use x="73.193" xlink:href="#DejaVuSans-83"/></g><path d="M697.95 122.203h32" style="fill:none;stroke:#009e73;stroke-linecap:round;stroke-width:1.5" id="line2d_8"/><g style="fill:#696969" transform="matrix(.16 0 0 -.16 742.75 127.802)" id="text_17"><use xlink:href="#DejaVuSans-78"/><use x="74.805" xlink:href="#DejaVuSans-74"/></g><path d="M697.95 145.688h32" style="fill:none;stroke:#d55e00;stroke-linecap:round;stroke-width:1.5" id="line2d_10"/><g style="fill:#696969" transform="matrix(.16 0 0 -.16 742.75 151.287)" id="text_18"><defs><path d="M19.672 34.813V8.108H35.5q7.953 0 11.781 3.297 3.844 3.297 3.844 10.078 0 6.844-3.844 10.078-3.828 3.25-11.781 3.25zm0 29.984V42.828h14.61q7.218 0 10.75 2.703 3.546 2.719 3.546 8.282 0 5.515-3.547 8.25-3.531 2.734-10.75 2.734zm-9.86 8.11h25.204q11.28 0 17.375-4.688Q58.5 63.53 58.5 54.89q0-6.703-3.125-10.657-3.125-3.953-9.188-4.922 7.282-1.562 11.313-6.53 4.031-4.954 4.031-12.376 0-9.765-6.64-15.093Q48.25 0 35.984 0H9.812z" id="DejaVuSans-66"/></defs><use xlink:href="#DejaVuSans-66"/><use x="68.604" xlink:href="#DejaVuSans-101"/><use x="130.127" xlink:href="#DejaVuSans-114"/><use x="169.49" xlink:href="#DejaVuSans-103"/><use x="232.967" xlink:href="#DejaVuSans-101"/><use x="294.49" xlink:href="#DejaVuSans-110"/></g><path d="M697.95 169.173h32" style="fill:none;stroke:#0072b2;stroke-linecap:round;stroke-width:1.5" id="line2d_12"/><g style="fill:#696969" transform="matrix(.16 0 0 -.16 742.75 174.773)" id="text_19"><defs><path d="M54.89 33.016V0h-8.984v32.719q0 7.765-3.031 11.61-3.031 3.858-9.078 3.858-7.281 0-11.484-4.64-4.204-4.625-4.204-12.64V0H9.08v75.984h9.03V46.188q3.235 4.937 7.594 7.374Q30.078 56 35.797 56q9.422 0 14.25-5.828 4.844-5.828 4.844-17.156z" id="DejaVuSans-104"/></defs><use xlink:href="#DejaVuSans-82"/><use x="64.982" xlink:href="#DejaVuSans-117"/><use x="128.361" xlink:href="#DejaVuSans-116"/><use x="167.57" xlink:href="#DejaVuSans-104"/><use x="230.949" xlink:href="#DejaVuSans-101"/><use x="292.473" xlink:href="#DejaVuSans-114"/><use x="333.586" xlink:href="#DejaVuSans-102"/><use x="368.791" xlink:href="#DejaVuSans-111"/><use x="429.973" xlink:href="#DejaVuSans-114"/><use x="469.336" xlink:href="#DejaVuSans-100"/></g></g></g></g><defs><clipPath id="p6eb9e5854a"><path d="M117 77.76h725.4v498.96H117z"/></clipPath></defs></svg>