<svg height="864" viewBox="0 0 936 648" width="1248" xmlns="http://www.w3.org/2000/svg" xmlns:xlink="http://www.w3.org/1999/xlink"><defs><style>*{stroke-linecap:butt;stroke-linejoin:round}</style></defs><g id="figure_1"><path d="M0 648h936V0H0z" style="fill:#fff" id="patch_1"/><g id="axes_1"><path d="M117 576.72h725.4V77.76H117z" style="fill:none" id="patch_2"/><path clip-path="url(#p331935d3ba)" d="m149.973 328.59 35.135-.123 2.702-.199 1.352-.423 1.351-.72 2.027-1.628 1.351-1.133.676-.494.676-.348 1.351-.327.676-.165 1.351-.094.676-.089 1.351.253.676.316 1.351.989.676.693.675 1.003 2.027 2.159 1.352.992.675.36 1.352.203.675-.11.676-.297 1.351-.285.676-.4 1.351-.934 2.027.286.676.213.676.437.675.608.676.416 3.378-.12 1.352.26.675.268 1.352.172.676.03 1.35-.436.677-.254.675-.42 1.352-.45.675-.179 2.703.142 2.027.737.676-.038.675-.184 1.352-.231 2.027-.866.675-.184.676-.045.676.149 1.35.625.677.073.675-.132 1.352.275 1.351-.46.676-.44.675-.257.676-.103 3.378-2.01.676-.405 2.027-1.52.676-.304 2.027-.36.675-.094.676.058.676.18 4.054 2.046.675-.08 1.352-.802.675-.394.676-.168.676-.349.675-.1 1.352 1.122 3.378 3.923.676-.08 1.351.69.676.028.675.199 1.352.069.675.684 1.352.514 2.703 2.256.675-.156 1.352-.706 2.702-2.555.676-.108.676.223.675.43 2.027 1.844 1.352.75.675.15.676-.292 2.703-2.41 1.35-.947 1.352-.2.676.202.676.449 1.351-.49.676.207.675.383.676.88.676.2.675-.15.676.616.676.35.675-.193.676-.958.676-1.555.675-.977 1.352-1.351.675-.377 1.352-.37.675.185.676.506.676.354.675.095.676-.082.676.125.675 1.212.676.884.676-.204.675.014 1.352.253.675-.033 1.352-2.408.675-.106 1.352-1.103.675-.166.676-.345 1.351 1.753.676-.264.676.164 1.351-.273.676.301 1.351-1.66.676.25.675.053.676-.133 1.351-1.974 1.352.004 1.351-1.281.676-.177 1.351 1.22 2.027-1.284.676-.761.676-1.077 1.35-3.383.677-1.021.675-1.49.676-1.217.676-.65.675-.878.676-.228.676.195.675-.072 2.027 2.585 2.703 6.323 1.351 1.78 1.352 7.973 1.351 2.81 1.351 2.255.676-.078 1.351-13.79.676-2.998.676-3.703 1.351-5.372.676-.87.675 3.51.676 2.687.676.927 2.027 7.469.675 1.46.676-.371.676 2.36.675 3.016.676 1.03.676.396.675-.62.676.87.676 3.176.675 5.705.676 2.709.676-.42.675 1.177.676.393.676-.615.675-3.21 1.352-16.916.675-4.153.676-4.909.676-3.53.675-1.94.676-1.21.676-3.822.675.232 1.352 9.287.675 4.09.676 2.977.676 4.618.675 9.782.676 7.21.676 1.759 1.351 6.49.676 1.772.676.816.675-.141.676-.902.676-.425 1.35-6.61.677-.669 1.35-2.727 1.352-1.484.676.181.676.94.675.158 1.352 1.493 1.35.266.677 1.438.675.567 2.027-2.685 2.027-1.27.676.058 1.351.837.676.18.676-.438.675-.651.676-1.824 1.351-4.792 1.352-4.196.675-.958.676-.392.676.085 2.702 3.847.676.385.676.18.675-1.093.676-1.706.676-.375.675-.157.676-.54 1.351-.577 1.352 4.535 1.351-.696.676-.03 1.351-.645 2.703-4.056.675-.899 1.352-1.103.675-1.046.676-.699 2.027 2.683 2.703 2.813 2.027-1.213 1.351-1.032 2.027-.852.676.402 2.027 2.672.676.474.675.92.676 1.528.676.533.675.387.676.124.676-.201.675.722.676.453.676-.409.675-.14 1.352-.485.675-.05 1.352-1.706 2.027.476 1.35.638.677.621.675.385 2.703-.722 2.027-.728 1.351-.201.676.161.676.372.675.098 1.352-.377.675-.079 1.352-.647.675-.288.676.006.676.664.675.379.676-.117.676.242.675 1.46.676 1.072.676-.356.675-1.268.676-.834.676-.071.675-.48 1.352-5.693.675-.027 1.352.917.675.128.676.321 1.351 2.839.676.06.676-.054 1.351-.557 1.351-.787.676-.202 2.703-.316 1.351-3.246.676-.039.675.103.676.38.676.074.676-.664 1.35 3.541.677-.513.675-.333 1.352-2.95 1.35.185 1.352-.238.676-.057 1.351.318.676-.55 1.351-3.638.676-.59.676-.186.675-.367 1.352-2.078.675-.217.676-.388.676-.249.675-.103.676-.431.676-.256 2.027-.034 1.351-.604.676-.114.675 1.037.676.51.676.035.675 1.4.676 1.006.676.326.675-1.056.676-.28.676 2.05.675.799.676-.08 1.351-.833.676 2.735.676 1.62.675-.673.676-.137.676.287.675 1.272.676.607 1.351-.777.676-1.217.676.204.675 1.31 1.352 1.613.675 6.97.676 2.79.676-2.055.675 1.925.676.121 1.351-1.166.676-12.988.676-3.925.675 8.882.676-.073 1.351.406.676.268.676 8.984.675 5.115.676-3.758.676.643 1.351 1.84.676.545.676-1.844.675-2.235.676-.315.676-.613.675-.901.676-.704.676-.21.675.366.676.218 1.351-1.143 1.352-.131.675-.196.676.686.676-.026.675-.349.676.722.676.23 1.35-.212.677-1.583.675-.21.676 1.33 2.027-.788.676.13.675.61.676-.539.676-1.91.675-1.257.676-.77.676-.513.675-.326.676-1.359.676-.682.675 1.022.676.802.676.184 1.351-.287.676.504.675.02.676-1.3.676-.273.675-.615.676-1.974.676-.811 1.351-1.296.676-.082.675-2.095.676-.542.676 3.118.675 1.399.676.181 1.351 1.031.676 4.331.676 5.894.675 1.75.676.36.676-1.026.675-1.971.676-.904.676-6.46.675-11.47.676-7.057.676-2.18.675 1.87.676 2.83.676.69.675 4.265.676 6.84.676 4.18.675 1.578.676-.497.676-.721.675.492.676-.788.676-1.037.675-.783.676-2.07.676-4.14 1.351-10.8.676-6.369.676-3.3.675 1.057.676-1.332.676-7.122 1.35-16.856.677-11.174.675-14.48.676-11.847.676-3.17.675-6.888.676-17.624.676-9.108.675 5.655.676-1.455.676-11.994.675-3.669.676 4.13 1.351 43.086.676 3.3.676 15.558.675 23.403.676 10.098.676 36.718.675 19.672.676-10.275 1.351 25.96 1.352 13.735.675-28.304.676 1.09.676 39.028 1.351 15.887.676 5.491.675-1.075.676 20.793.676 7.622.675-8.385.676 6.162.676-.86.675-.118.676-.86.676-3.41.675-5.425 1.352-22.915 1.351-10.83.676-2.57 1.351-12.479.676-1.17.675-2.648.676-4.877.676-4.015.675-1.86.676-.225.676-2.496.675-3.698 1.352-4.614.675-1.071.676.388.676-6.229.675-3.715.676 1.828.676-1.254.675.128.676.013.676-.872.675 2.637.676.865.676-2.76.675-.773 1.352-2.358.675-.155.676-1.05.676-1.756.676-.838.675-.433.676-.277.676-.135.675-.28.676-.416 1.351 1.513.676-.64.676-.294.675-.126 1.352.189.675-.697.676-.429.676.355 2.702.058 2.703-1.064.676-.506.675-.277.676-.513.676-.097.675.206.676-.788.676-.503.675.414.676.158.676-.032 1.351-1.645.676.5.675.095.676-.886.676-.278.675-.08.676.383.676.121.675-.805.676-.185.676.365.675.088.676-.275.676-.538.675-.192.676-.047 1.351-.304.676.062.676.352.675-.166 1.352-3.08.675-.254.676.239.676.068 1.351-2.188.676 1.157.675 2.194.676.316.676-.766.675-.4.676 1.902.676 3.093.675.994.676-.286.676.931.675 2.006.676 1.647.676 3.189.675 1.029.676-2.083.676.116.675.397.676-1.858.676-2.37.676-7.261.675-3.73.676 5.184.676 1.676.675-.326 1.352 2.933.675 3.924.676 2.714.676-2.09.675-.42.676 1.065.676.824.675.579.676 2.094.676-.713.675-2.816.676-1.02.676-2.707.675-3.598.676-1.957.676-5.031.675.402.676 4.339.676-.694.675 1.522.676 3.55.676 2.674.675 6.091.676.918.676-5.297 1.351-.812 1.351-4.478.676-8.458.676-5.814.675 4.774.676 2.401.676-.15 1.351 1.859 1.351 10.669.676-1.166.676-1.698.675.522.676.009.676-.189.675-.073 1.352-2.025.675.204 1.352 2.365.675.824.676-.051.676 1.53.675 2.888.676.338.676-1.254.675-.967.676-.673.676.978 1.351-2.54.676 2.468.675 1.48.676.178.676.043.675-.534.676.427.676.027.675-1.436.676-.447 2.703-.276 1.351-1.5.676-.087.675-.226 1.352-.148.676-.887.675.218.676.686.676-.15.675.331.676.161 1.351 5.676.676-.204.676.269.675.582.676.103.676-.178.675-5.502.676-2.886.676 2.926.675-.265.676-.821.676-.227.675.133.676 3.25.676 1.13.675-2.373.676-.388.676-.184h0" style="fill:none;stroke:#000;stroke-linecap:round;stroke-width:1.5" id="line2d_1"/><path clip-path="url(#p331935d3ba)" d="m149.973 328.589 34.459-.08 2.027-.205 1.351-.451 2.027-1.626.676-1.097 2.027-4.522.676-2.708 1.351-7.837 1.351-6.136.676-2.324.676-3.268.675-1.138.676.874.676-.758.675.586.676 3.027.676 2.312.675 3.955 1.352 9.117.675 6.76.676 4.032.676 2.358.675 1.825.676.747.676-.196.675-.92.676-.462.676.095.675-1.763.676-.058.676-.61.675-1.457.676 1.652 1.351-1.053 2.027 9.079.676 4.646.676.355.675-.119.676 1.538.676-.721.675-1.542.676-.627.676-1.248.675-.051 1.352 2.77 2.027 2.135.676-.799.675-.17.676-.652 2.027-6.783.676-3.265.675-1.874.676-1.417.676-.37.675.41.676 1.248 1.351 3.686.676 1.075.676.094.675-1.085.676-1.376.676-.337 1.35-1.184.677.781.675 1.002.676.701.676 1.115 1.35-.017.677-.1.675-1.307.676-.591.676.17 1.351-1.497.676-.452.675-.062.676.444 1.351-1.112.676-.048 1.351-.383.676-.15 1.351-4.453 1.352-.041.675.314.676.183.676-.358 1.351 8.002 1.351-.19.676-.428.676-.116.675.375 1.352-3.466 1.351.048.676.23.675-.178 1.352-.877.675.106 3.379 2.3.675.198.676-.882 1.351-2.68.676-1.446.676-.716.675-.518.676-.105.676.276.675.677 1.352 2.715.676.915.675.592.676-.03 1.351.917 2.027-1.341 1.352-.875.675-.774.676-.535.676.526.675.349.676.167.676.528.675 1.284.676 1.576.676.177.675-.957.676-.386.676.068.675-.156.676-.961.676-1.319.675.099.676.502 2.027-.83.676-.022.675.134.676-.213.676-.039 1.351.577 1.351.247.676.108 2.703-.49.675-.298 1.352-.269.675.148.676-.07.676-.267.675.134 1.352.48.675.121 2.027-1.055.676-.176 1.351-.783.676-.22.676-.047.675.486.676.631.676.086.675.422.676-.16.676-.673.675.412.676.098 1.351-.468.676-.968.676.454.675 1.413.676.032.676-.655.675-1.381.676-.482.676.828.675-.212.676-.96.676-1.417.675-.28.676 1.625.676.048.676-1.434 1.35-1.945 1.352 1.882.676-1.054 1.351.835.676-.187.676.857.675-1.945.676-2.422.676-.23.675-2.747.676-1.928.676-1.148.675-2.574.676-.43 1.351-3.909.676 2.65.676 1.587.675.561 1.352 4.378.675 4.665.676 2.247.676-1.425.675 1.168.676 1.641.676.189.675 1.119.676.88.676 1.558.675 1.983 1.352-.7.675-1.338.676-4.14.676-5.588.675-3.66.676-1.547.676-.54.675.092.676 4.241 2.027 14.32 1.351 3.346.676.135.676-1.266.675.838.676.08.676-.041.675.849.676-.02.676.968.675-2.65.676-3.293.676 2.397.675 3.175.676.455.676.928.675-.883.676.926.676-1.164.675-7.013 1.352-124.98.675-5.67 1.352-7.46.675-1.741.676-1.204 1.351 227.705.676 4.027.676 2.229 1.351 12.383.676 6.881 1.351-104.171.676 3.259.676 7.265.675 3.758.676-1.249.676-3.806.675-2.872 1.352-4.51.675-4.215.676-6.757.676-1.101.675 4.917.676 2.419.676 3.196.675 4.326.676 3.59.676 5.576.675 2.889.676-2.537.676-.834.675-2.05 1.352-15.42.675-3.662.676-1.51 1.351 5.42.676.632 1.351 6.834.676 1.112.676.375.675-2.256.676-5.225.676-2.188.675 1.497.676.06.676-2.597.675-4.325.676-3.124.676.386.675.255.676-2.576.676-1.048.675 1.988.676 3.162.676 2.254.675 1.782.676.673.676-.257.675-.61.676-2.008 1.351-2.926.676-2.385.676-.124.675.941.676-.581.676.362.675-.659.676-.041.676 1.243.675-1.553.676-.88.676 2.3.675.184.676.302.676-.064.675-1.757.676 1.039.676 1.457.675-2.35.676.101 1.351 4.99.676 3.834.676 2.956.675.273 1.352 4.92.675-.13.676.398.676-.86.676-2.182.675-.18.676.461.676-1.645.675-2.009.676-1.596.676-.283.675 1.537.676.91.676-.374.675 2.384 1.352 6.973 1.35 26.83.677 1.04.675 1.868.676-.323.676-.611.675-1.073 1.352-50.92.675-1.635.676-2.299 1.351-.693.676.128 1.351 25.308.676 2.117.676 3.103.675-.109.676-1.401 2.027-6.046.676-3 .675-3.702.676-2.481.676-.842.675.193.676.403.676.928 1.351.776.676 1.205.675.676.676-.069.676-.301.675-.434 1.352.08.675-.555.676-.758.676-.29.675.078.676-.218 1.351-.603.676-.152 1.351.516 1.352-.09.675-.243.676-.027.676.182 1.351-.102 2.027.647.676-.028 1.351-.463 2.027-.487.676.057 1.351.423 1.351.377 1.352.284.676-.119 3.378-2.01.676-.555.675-.322 1.352-.008 1.35-.256.677.069.675-.064 1.352-.92 1.35-1.064 1.352-.276.676.056.676.29.675.064 1.352.439.675-.206.676-.37 1.351-1.124 2.027-.26.676.066 1.351 1.236.676.035 1.351-.526.676-1.114.676-.632 1.351-.783 1.351 1.512.676-.449.676.989.675 1.614.676.062.676.33 1.351-.709.676 1.875.675 1.498.676-.482 1.351.49.676.037.676-.225 1.351.028 1.351-.03.676 1.764.676 1.187.675-.267.676-1.147.676-2.039.675-.238.676.688.676-3.096.675-1.21.676 1.61.676.166.675 1.585.676.224.676-.49.675 1.273.676.306.676.184.675 1.545.676.435 1.352 3.301 1.35 2.113 1.352-.84.676.398.676-1.463.675-2.01.676-.698.676-.292.675.152.676-.501.676-1.129.675.205.676.883.676.172.675-.324.676.15 2.027 3.066.676.487.675.348.676 1.106.676.329 1.35-2.301.677-.584.675-.939.676-1.19 1.351-3.503.676.067.676.38.675-1.114.676-.283 1.351 1.73.676 1.344.676.568.675-.667 1.352 1.422.675-.783.676-.995 1.351-2.668.676-.497.676-1.336.675-1.832.676-.599.676.005 2.027-1.095.675.65.676 1.429.676-.353.675-.684.676.383.676.931.675 1.523.676.48.676-1.049.675-.269.676-.51.676-2.318.675-4.328.676-5.99.676-4.739.675-1.673 1.352-.375.675.434.676 2.107 1.351 8.407.676 2.064 1.351 1.544.676-.133.676-1.644.675-4.51 1.352-15.08.676-8.516.675-11.673.676-18.37 1.351-44.27.676-14.36.676-2.53.675-1.738.676-12.216.676-16.383.675-11.147.676-5.118.676-7.776 1.35-37.82.677-4.61.675 28.15.676 35.615 2.027 78.813.676 34.753.675 51.516 4.054 213.134.676 10.009.676 1.61.675-1.33.676-14.279 1.351-37.132 1.352-42.834 2.027-52.673.675-4.298.676-.825.676-5.447 1.351-8.27.676 3.317.675 4.988 1.352-19.338 1.351-5.652.676-4.235 1.351-19.876.676-1.234.675-.664.676-2.47.676-3.611.675-2.488.676-.523.676-.767.675-1.634.676-.732.676.387.675 1.816.676 2.414.676 1.364.675.23 1.352-.074.675-.799 2.027-6.393.676-1.175 1.351.83.676-.411.676.67.675.183.676-.446.676.698.675-.221.676.22.676 1.55.676-.759.675-.933.676-.095.676-1.464 1.35-1.58.677-1.499 1.35 1.347.677-.039.675 1.048.676-.318.676-.58.675.015.676-.786 1.351-.747.676-1.462.676-.23.675.326.676-.63.676-.93 1.35-2.061.677.342.675-.316.676-1.018.676.103.675.375.676.125.676 1.144.675.43.676-.29.676.912 2.027 3.481 1.351-2.84.676 1.861.675.709.676-1.798.676-2.304.675-1.381.676.752.676.472.675-2.05.676-3.059.676-.464.675 1.8.676-.345.676-1.759.675-.804.676-.488.676 2.584.675.883.676-3.61 2.027-6.335.676-.122.675-2.032.676-.633 1.351 7.358.676 5.433.676 4.341.675 2.13.676 2.684.676.32.675-.99 1.352 2.054.675 2.23.676.788.676-.545 1.351 13.787.676 1.475.675-.343.676-2.353.676.74.676 1.87 1.35-13.892.677-1.168.675 1.07.676 2.38 1.351 1.504.676 3.846.676 2.643.675-.064 2.027-4.657.676-3.32.676-2.582.675-1.45.676-1.778.676-.72 1.35-3.193.677.37.675-.773.676-.176.676.277.675-1.347.676-.219.676.552.675-.126 1.352 4.495.675.393.676.115.676-.51.675-.062.676.118.676-4.006.675-5.194.676-1.228.676 1.28.675 1.799.676.15.676-.082.675 2.684.676 3.245.676.549.675-.964.676-1.248.676-.266.675.523.676 1.534.676.299.675-.406 1.352 1.975.675 1.756.676 1.237.676-1.467.675 1.244.676 3.646.676 1.051.675.399.676-.783.676-1.096.675.491.676-.796.676-1.93.675.068.676 4.649.676 1.031.675-3.017.676.234.676.9.675.523.676-.55.676-8.117.675-.818.676 7.114.676-.198.675-1.305.676-.369.676.075.675 2.839.676-.584.676-6.328.676-.012.675 2.432.676-.595.676-.076 1.35 2.26.677 4.35.675-.49.676-3.45.676 1.17.675-1.041.676.771.676-1.481.675-4.797.676.107.676-.747.675-3.407.676-.427.676-4.534.675 1.015.676 3.894.676-.79.675.906.676.08.676.271h0" style="fill:none;stroke:#009e73;stroke-linecap:round;stroke-width:1.5" id="line2d_2"/><path clip-path="url(#p331935d3ba)" d="m149.973 328.589 31.756-.102 2.703-.124 2.027-.622.676-.52.675-.69 1.352-4.546.675-.34.676-.972.676-2.137.675-1.617 1.352-1.775.675-3.098 1.352-10.958.675-2.035.676-3.438.676-7.508.675-4.444.676-2.363.676-5.225.675-1.22.676-.69.676-1.244.675 9.068 1.352 23.396.675 18.896.676 12.687.676 9.385.675 14.814.676 2.894.676-6.253.675-3.155 1.352-8.616.675-5.541.676-8.809.676-1.979.675 5.236.676 3.38.676-2.26.675 1.062 1.352 12.507.675 2.85.676.497.676-.51.675 2.94.676.826 1.351-9.543.676-2.59.676-1.402.675-1.108.676-1.764.676-1.267.675.294.676 1.154.676.135 1.351-1.142.676-1.583 1.351-1.741.676-1.267.676-.599 1.35-5.27.677.589 1.35-.792.677.011.675-1.424.676-.702.676.283.675-.554.676.984.676 1.832 1.35 2.34.677 2.873.675 2.012.676-.712 2.703-4.523.675-2.16.676-1.153.676.328.675-.294.676-.475.676-.25.675 1.177.676 1.911.676.294.675.464.676.655.676-.01.675.52.676-.329 1.351-9.487.676-1.13.676-.894.675-.69 1.352-.723.675 7.067.676 8.322.676.916.675.498.676.746.676.317.675.034 1.352-8.311.675-.09 1.352 1.062.675-.034.676.588.676 1.402.675.995.676.396.676-.215 2.027-2.08 1.351-2.205 1.351-1.776.676-.248 1.351-.25.676.566 1.351.147 2.703 2.951.676-.067.676.497.675.26.676-.746.676-.52 1.35-.192.677-.272.675-1.47.676-1.108.676.158 1.35-1.39.677.373.675 1.537.676 3.257.676 2.522.675 1.47.676 2.307.676.87.675-1.142 1.352-5.303 1.35-3.03.677-1.866.675-.882.676.531.676 1.142 1.351.973.676.972.675.712.676 1.03.676.486.675.113.676.35 1.351-1.097.676-.203.676-.328.675-.136 1.352-1.006 1.351-.113.676.079 1.351-1.572 1.351 1.606.676.18.676-.203.675-.362 1.352 1.357 2.027-2.725h.675l.676.204 1.351-.973.676.249.676.407.675.215.676-.17 1.351-.644.676-.373.676-.113.675.101.676.441.676.159.675-.679h.676l.676.17.675-.192.676.09.676-1.086.675-.814.676.656.676-.045.676.362.675.588.676-1.55.676-.124.675.86.676-.419.676.034.675-1.447.676-.95.676 2.035.675-1.153.676-2.578.676.407.675-.6.676-.904.676-3.585.675-5.314 1.352.214.675-2.34.676-.328.676.35.675 2.986.676 4.738.676 1.662.675 2.114.676.362.676-.147.675 3.856.676 2.895.676-1.787.675.803 2.027 6.265.676-3.732.676-2.996.675.339.676-4.467.676-5.45.675-1.12.676.555 1.351 8.333.676 6.287.676 7.701.675 5.688.676 2.284.676-.667 1.351-6.807.676-5.157.675-2.748.676.215.676.362.675 1.911.676.837.676-.43.675-.983.676-.679.676.226.675-.068.676-1.402 1.351 2.397.676.328.676-2.012.675-4.614 1.352-105.072.675-6.728.676-3.37 1.351-4.692.676-1.957 1.351 200.069.676 7.61.676 1.21.675 3.856 1.352 11.115.675-43.942.676-51.823.676-1.29.676 7.113.675 5.145.676-.361 1.351-4.705.676.08.676.802.675-3.742.676-6.536.676-.95.675 3.584.676 1.357.676 2.081 1.35 6.853.677 2.046.675-.237.676-1.923.676.374.675-.69 1.352-14.203.675.814 1.352 4.4.675 2.227.676-1.877.676 1.424.675 3.642.676-.419.676-.554.675-1.583.676-5.349.676-.463.675 2.34.676-2.532 1.351-9.85.676-2.25.676.34.675-.057.676-2.284.676 1.051.675 5.507.676 6.49.676 2.658.675 3.528.676 2.827.676 1.063.675.011.676-2.996.676-4.998.675-4.116.676-3.053.676-1.685 1.351-.69.676.543.675-.588 1.352 2.635.675-.464.676.667.676 2.375 1.351-.679.676-1.3.675-1.934.676.419.676-1.73.675-5.01.676 1.56 1.351 10.89.676 4.263.676 2.703.675 4.127.676 5.145.676 2.307.675-.113.676-.475.676-.633.676-.995.675-.441.676.407.676-2.352.675-2.963.676-.916 1.351.69.676-.577.676-1.085.675 2.035.676 2.906 1.351 1.674 2.027 2.793.676-.803.676-.373.675.588 1.352-5.428.675-13.66.676-16.849.676-2.747.675-1.142.676-1.81 1.351 1.798.676 25.567.676 32.17.675 5.191.676-1.278.676-.554 1.351-1.572.676-13.365.675-16.94.676-3.855.676.633.675.803.676.316.676-.17 1.351-1.763.676.034.675-.215.676-.633.676-.023.675.52 1.352 1.391.675-.068 1.352-1.413 1.351-1.018 1.351-1.436.676-.464.676.407.675.566.676.045 1.351-.34 1.352.623 1.351-.102.676.283.675.43.676.112 1.351-.938.676-.226 2.027-.939.676.057.675.588.676.361.676.08 2.703 1.617.675.124.676-.011.676.113 1.35-1.063.677-.656.675-1.086 2.027-2.058.676-.056 1.351.283.676.497.676-.034.675-.543.676-.327.676-.453 2.027-2.013.675-.418 1.352 1.04.675.023.676.26.676.113.675.317.676.893 1.351.452 1.352 1.945.675.283.676-.69.676-1.345.675-.566.676-1.063.676-.486.675.158.676-.067.676.859.675 1.606.676-.17.676.226.675-.724.676-2.442 1.351 1.199.676-.803 1.351 2.77.676.464.676 1.685 1.351-.25.676.702.675.509 1.352 1.504.675-.034.676 1.232.676.25.675-1.37 1.352-4.364.675-.384.676.746.676-2.454.675-1.13.676 2.227 1.351 3.505h.676l.676-.848.675 1.9.676 1.21.676-1.086 1.351-1.888 1.352 1.176.675-.577.676-.147.676.272.675 1.029.676 1.3.676.317.675.644.676.306.676-.068 1.35 1.142.677-.125 1.35-1.571.677.294.675.09.676-.396 1.351-1.673.676.588.676.328.675-.125.676 1.142.676.894.675.079.676.791.676.34.675-.848.676-1.708 1.351-4.919 2.027-3.426.676.678.676 2.285 2.027 4.738.675.882.676.622.676-.227.675-1.289.676-.43.676-.576.675-1.617.676-.995 1.351-3.087.676-.961.676-1.923.675-1.526.676-.61.676-1.064.675.52.676 1.504.676.464 1.351 3.143.676.962.675 1.922.676 1.04.676-.565.675-.35.676-1.403 1.351-4.953.676-3.584.676-2.714 1.351-2.782.676-.056.675.124.676-.113.676 1.39 1.351 1.12.676 2.443.675-.532 1.352-4.636.675-6.287 1.352-13.999.676-9.883.675-12.914.676-18.25 1.351-51.236.676-16.962 1.351-15.355.676-18.229.676-24.809.675-9.985 1.352 10.155.675-2.59.676-8.695.676 10.765 1.35 98.456.677 24.968.675 18.002.676 8.48.676 29.955.675 47.176 1.352 47.956 1.35 79.042.677 39.023.675 27.84.676 5.28.676-3.754.675-10.007 2.703-70.402.676-15.978.675-8.006.676-4.365.676-12.02.675-2.092.676.362 2.703-40.561.675.068L654.7 361.2l.675.159.676.396.676-2.432 1.351-14.666.676-.69.675-1.142.676-4.885.676-3.991.675.7.676 1.765.676-1.55.675-1.99.676.068.676 1.674.675 1.3.676-.588.676.068.675.882.676.124.676.543.675-1.13.676-3.404.676-2.737.675-1.832.676-.78.676.916.675-.667.676-.984.676 1.73.675 1.357.676.498.676 1.967.675-.882.676-.531.676 2.352.676-1.832.675-2.736.676-1.742.676-4.85.675-.578.676 1.256.676-2.77.675 2.498.676 4.636.676 2.352.675 3.608.676-.034.676-1.685.675.904.676-1.289.676-3.143 1.35-4.512.677-.645.675.317.676-1.515.676-2.658.675-1.64.676-.598.676 1.13.675.532.676-1.018.676.803.675 2.216.676 1.56.676 4.241.675-1.153.676-4.06.676 1.776 1.351.972.676 1.651.675-7.033.676-.882.676 7.157.675.905.676 1.323.676-.87.675-3.246.676 2.488.676 1.628.675-3.8 1.352-10.267.675-.927.676.226.676-.102 1.351-4.32.676 3.608.675 2.397.676-2.736.676-1.493.675-3.381.676-1.628.676 2.555.675-1.3.676 1.198.676 6.208.675 4.456 1.352 16.645.675 2.736.676 3.98.676-1.673.675-3.449.676.86.676-1.764 1.351-.815.676-2.374.675 8.096.676 10.991.676 1.346.675-.554.676-2.544.676-.114.676 2.827.675-7.316.676-11.341.676-.272.675 3.483.676 1.55 1.351.135.676 4.116.676 3.2.675-2.013.676-3.844.676-.475.675.588.676-2.997.676-2.352.675-.644.676-2.138.676-.599.675-2.25.676-4.173.676-1.04.675-2.239.676-.905.676 1.889.675-.77.676.464.676 3.03.675 1.267 1.352 6.039.675-.77.676-.282.676-.667.675-.317.676 1.493.676-4.919.675-6.728.676-.249.676 1.334.675-.067.676-2.036.676-2.793.675 3.822.676 5.982.676.09.675-.768 2.027 2.702.676 1.866.676.011.675-.237.676.068.676 1.063 1.351 6.739.676-1.979.675-.249 1.352 9.714.675.972 1.352-4.421.675.407.676.09 1.351-5.868.676 3.155.676.316.675-3.935.676-.452.676-.034.675-1.13.676-1.426.676-7.429.675-.509.676 7.35.676.939.675-.656.676 1.255.676 1.866.675 2.488.676.147.676-4.76.676-.34.675 2.216 1.352-2.533.675 1.018.676.124.676 3.359.675-.362.676-3.856.676.938.675-1.062.676.203.676-1.606.675-5.393.676-.882.676-.17.675-1.922.676.938.676-3.38.675 1.57.676 4.343.676-1.334.675-.419 1.352-3.991h0" style="fill:none;stroke:#d55e00;stroke-linecap:round;stroke-width:1.5" id="line2d_3"/><path clip-path="url(#p331935d3ba)" d="M149.973 328.589h37.837l1.352-2.304h.675l1.352-1.152.675-1.728 1.352-6.335.675-1.727.676-2.304.676-1.728.675-2.88.676-4.031.676-1.728.675 4.032.676 2.303.676-8.063.675-10.366.676-.576 1.351 17.854.676-2.304.676-4.608.675 17.854.676 27.069.676 8.638 1.351-8.063.676 4.608.675 9.215.676-6.911.676-14.974.675-4.032.676 2.304h.676l.675-2.88.676-5.183.676-1.152.675 1.152.676-.576.676.576 1.351 6.91.676 4.608.675 2.304.676-1.152.676 2.88.675 1.152.676-2.304h.676l.675-.576.676 1.152.676 2.304.675-5.184.676-7.487L227 321.678l.676-2.88.676-1.728.675 4.608.676 8.639.676 5.183.675 2.304.676 1.727.676.576h.675l.676-2.303.676-4.032.675-2.304.676-1.151.676-2.304.675-1.728h.676l1.351-3.455h1.352l1.35 4.607h.677l1.35 6.911 1.352-1.152 1.352-3.455h.675l1.352-3.456 2.702 4.607H252l.676-1.151 1.351-1.152 1.351-3.456.676-1.152h1.351l.676-.576h.676l.675 1.728.676 2.304.676 1.152h1.351l.676-.576h.675l.676-.576.676-2.88.675-1.727h.676l1.351 7.487h.676l.676.575.675 3.456.676 2.304h.676l.675-1.152.676-2.304 1.351-3.455.676-2.304.676-1.152h.675l.676-1.728.676 1.152.675 4.032.676 1.727.676.576h1.351l.676.576.676-1.152.675-2.88.676-.575.676.576h1.35l2.028 1.728h.676l.675-1.152.676-.576h.676l1.35-2.304.677.576h1.35l.677.576h.675l.676 1.152h.676l.675-2.304.676-.576.676 1.152.675.576h.676l.676-1.152 1.351 2.304.676-.576h.675l.676-.576h.676l.675 1.152.676-1.728.676 1.152.675 3.455.676-.576h1.351l.676-1.151.676 2.303h.675l.676-4.031.676-.576h1.351l.676-.576.675-2.304h.676l.676 2.88.675 1.152h1.352l1.351 5.759h.676l1.351-1.152h1.351l.676-2.88 1.351-7.486.676-8.64.676-6.334.675-1.152h.676l.676 1.152.675-1.152.676 2.88.676 12.67.675 6.91.676-2.303.676-3.456.675-1.727.676 6.335.676 2.304.675-3.456.676 5.183 1.351 14.974.676 1.152.676-8.063 1.351-9.215.676-11.518.676-7.487 1.35-6.335.677 2.88 1.35 6.91.677 6.912.675 2.88h.676l.676-.577.675-4.031.676 1.728.676-4.032.675-10.366.676-1.152h.676l.675 5.759.676 2.88.676-13.823.675 2.304.676 10.367.676-5.76.675-2.88.676-.575.676 6.335.675 17.278.676 9.79.676 11.519.675 6.335.676-5.76.676-1.15.675-2.88.676-8.063.676-20.158.675-35.707.676-8.063.676 13.822.675 1.728.676-1.728.676 2.88.675 14.398.676 30.524.676 23.613.675 1.152.676-3.456.676 1.152h.675l.676 6.91.676-1.727.675-19.581 2.027-18.43.676-10.942.676-23.613.675 1.152.676 14.398h.676l1.351 11.518 1.351 31.676 1.352-20.157h1.351l.676-8.64.675-10.366.676-.576.676-5.759.675-12.67.676-5.76.676 8.063.675 19.582.676 8.063.676 1.727.675 13.247.676 19.581.676 11.519.675 6.335.676-3.456.676-6.335 1.351 7.487.676-2.88.676-5.759.675-30.524.676-14.974.676 14.974.675-5.183 1.352-30.524.675-2.88.676 35.708.676 28.22.675-21.31.676-13.821.676 12.67.675 18.43.676 5.759.676-27.069.675-33.403.676 17.277.676 25.917.675-1.728.676-10.942.676-6.911 1.35 36.859 1.352-23.613.676-.576.676 6.911.675 4.031.676-15.55.676-2.88.675 9.216.676-6.911.676-9.791.675-6.335 1.352 7.487.675-11.519.676-8.639 1.351 20.734.676-.576.676-4.032.675 4.032.676 13.822.676 5.76.675-12.095.676-4.032.676 8.063h.675l.676-6.335.676-11.518.675-4.032.676 13.822.676 7.487.675-5.183h.676l.676 4.607.675 6.911.676 2.88.676-8.639.675-10.366.676-1.152.676-5.184.675 2.88.676 6.335h.676l.675-1.152.676-2.88h.676l.675 10.367.676-.576.676-9.79.675-4.032 1.352 5.76v14.398l.675 2.88.676-5.76.676 2.304.676 9.214.675 6.336.676-2.304.676-9.215.675-4.031.676-1.728h.676l.675.576.676-1.728.676 2.304 1.35 9.79.677 5.184.675-5.76.676-9.214.676-1.152.675 1.152.676-3.456.676-5.76.675-3.455.676 4.032.676 6.335.675-1.152.676-4.031.676 5.759.675 7.487.676 1.152 1.351-7.487 1.352 8.639.675-2.88.676-3.455.676-.576 1.351 6.335.676-2.88.675-4.031.676-2.88.676-1.152h.675l1.352-4.607 1.351-2.304h3.378l.676.576.676 2.304.675 1.727h2.027l1.352-3.455 1.351-2.304h2.027l1.351 7.487.676.576h2.703l.675-1.728.676-2.303.676-.576 1.351-4.608h2.703l.675-.576 1.352 8.64h2.703l.675.575.676-2.303.676-2.88h2.027l.675-.576.676-1.152.676.576.675 1.152h2.027l.676 1.152.676 1.728 1.35-7.487h.677l1.35-25.341.677-2.304.675-4.031.676 1.152.676 4.031h.675l1.352 40.89.675 1.153.676 6.335.676 7.487.675 1.727h.676l1.351-19.005.676-2.304 1.351-16.126.676-2.88h.676l.675 1.729.676 2.303.676 6.335.675 9.215.676 5.184.676 1.727h.675l.676 4.608.676 2.88 1.351-10.367.676-2.88.675-1.152h.676l1.351-15.55.676-2.88h.676l.675-.575.676-2.88h.676l.675 6.911.676 5.76.676 2.303.675 2.88.676 2.303.676 2.88h.675l.676-9.215.676-1.152.675 8.64 1.352-10.367.675.576h.676l.676 2.88.675-1.153.676-5.759.676 4.607.675 6.336h1.352l.676 7.487.675 5.183.676-1.152h.676l.675-2.304.676-1.151h.676l.675-5.184.676-3.455h1.351l.676-1.728.676-3.456h.675l.676 2.304.676-.576.675.576h.676l.676 5.76.675 9.214h.676l.676-6.911.675-2.88.676 2.304.676-1.728 1.35-10.366h.677l1.35 15.55.677-.576.675 2.303.676 2.88.676.576h.675l.676-6.911.676-9.79.675-3.456.676-.576 1.351-2.304h.676l.676 5.183.675 8.063.676-2.303.676-6.336.675-3.455.676-2.304h.676l.675-2.304.676-4.607 1.351 14.398.676 3.456.676 5.183h.675l1.352-8.639.675-6.335.676-3.456.676 2.88.675-.576h.676l.676 2.304.675 1.728.676 5.183.676-.576.675-13.246.676-6.911h.676l1.351 13.246.676-9.215.675-5.183.676 8.063.676 4.607h.675l1.352-12.67.675 2.88 1.352-7.488.675-21.309.676-30.524 1.352-9.214.675-19.006 1.352-19.581.675 34.555.676 55.865.676 8.063.675-5.76.676 5.76.676 9.214.675-8.063.676-59.32.676-88.116.675-50.105.676 8.638.676 23.037.675-10.942.676 3.455.676 36.284 1.35 130.734.677 15.55h.675l1.352 97.331 1.35 102.515.677-2.88.675 1.728.676 25.917.676 12.67.675-4.607 1.352-78.902.675 4.607.676 6.335.676-20.733.675-31.1.676-21.885.676 6.911.675 1.728.676-21.885.676-16.702.675-9.215 1.352 6.336.675-10.943.676-3.456 1.351-1.151.676 1.151 1.351-16.125.676-1.152.676.576.675 5.759.676 3.455.676-1.727.675-2.88.676-1.152.676-3.455.675-4.608.676-6.335.676-5.183.675-3.456.676.576.676 4.608.675 2.303.676.576.676 2.88.675 2.303.676 6.912.676 4.607.675-3.456.676 2.304.676 1.728.675-3.456.676-1.151 1.351-19.006.676 2.304.676-3.456.675-2.304.676 3.456.676-4.031.676 6.335.675 9.79.676-5.183h.676l.675 2.304.676-1.728.676 9.215.675 6.335h.676l.676 1.152.675-4.032.676-1.727h.676l.675-5.184.676-6.91.676-4.032.675-13.247.676-10.942h3.378l1.352 31.1h2.702l.676-17.278.676 5.183.675 22.461h2.703l.676 34.556.675-14.398.676-48.954h2.703l.675-17.277.676 6.91.676 24.19h8.108l1.351-39.163h3.378l1.352 74.87h3.378l1.351-49.53h3.379l1.351 32.252h3.379l1.35 26.492h3.38l1.35-42.618h3.379l1.351 3.456h3.379l1.35-14.974h3.38l1.35-8.063h3.379l1.351 50.681h3.379l1.351-71.415h3.378l1.352 65.656h3.378l1.351-20.734h3.379l1.351 5.76h3.378l1.352 8.063h3.378l1.351-11.519h3.379l1.351 3.456h3.379l1.35-8.063h3.38l1.35-1.152h3.379l.676-10.943.675-22.46h0" style="fill:none;stroke:#0072b2;stroke-linecap:round;stroke-width:1.5" id="line2d_4"/><path clip-path="url(#p331935d3ba)" d="M117 328.589h725.4" style="fill:none;stroke:red;stroke-dasharray:1.5,2.475;stroke-dashoffset:0;stroke-width:1.5" id="line2d_5"/><path d="M117 576.72V77.76" style="fill:none;stroke:#d3d3d3;stroke-linecap:square;stroke-linejoin:miter;stroke-width:1.25" id="patch_3"/><path d="M117 576.72h725.4" style="fill:none;stroke:#d3d3d3;stroke-linecap:square;stroke-linejoin:miter;stroke-width:1.25" id="patch_4"/><g id="matplotlib.axis_1"><g id="xtick_1"><g style="fill:#696969" transform="matrix(.16 0 0 -.16 124.127 598.378)" id="text_1"><defs><path d="M9.813 72.906h9.859V5.078q0-13.187-5-19.14-5-5.954-16.094-5.954h-3.75v8.297h3.078q6.531 0 9.219 3.672Q9.813-4.39 9.813 5.078z" id="DejaVuSans-74"/><path d="M34.281 27.484q-10.89 0-15.093-2.484-4.204-2.484-4.204-8.5 0-4.781 3.157-7.594 3.156-2.797 8.562-2.797 7.485 0 12 5.297 4.516 5.297 4.516 14.078v2zm17.922 3.72V0H43.22v8.297Q40.14 3.328 35.547.953q-4.594-2.375-11.234-2.375-8.391 0-13.36 4.719Q6 8.016 6 15.922q0 9.219 6.172 13.906 6.187 4.688 18.437 4.688h12.61v.89q0 6.203-4.078 9.594-4.078 3.39-11.453 3.39-4.688 0-9.141-1.124-4.438-1.125-8.531-3.375v8.312q4.921 1.906 9.562 2.844 4.64.953 9.031.953 11.875 0 17.735-6.156 5.86-6.14 5.86-18.64z" id="DejaVuSans-97"/><path d="M54.89 33.016V0h-8.984v32.719q0 7.765-3.031 11.61-3.031 3.858-9.078 3.858-7.281 0-11.484-4.64-4.204-4.625-4.204-12.64V0H9.08v54.688h9.03v-8.5q3.235 4.937 7.594 7.374Q30.078 56 35.797 56q9.422 0 14.25-5.828 4.844-5.828 4.844-17.156z" id="DejaVuSans-110"/></defs><use xlink:href="#DejaVuSans-74"/><use x="29.492" xlink:href="#DejaVuSans-97"/><use x="90.771" xlink:href="#DejaVuSans-110"/></g></g><g id="xtick_2"><g style="fill:#696969" transform="matrix(.16 0 0 -.16 201.675 598.378)" id="text_2"><defs><path d="M9.813 72.906h14.703l18.593-49.61 18.703 49.61h14.704V0H66.89v64.016l-18.797-50h-9.907l-18.796 50V0H9.813z" id="DejaVuSans-77"/><path d="M32.172-5.078q-3.797-9.766-7.422-12.735-3.61-2.984-9.656-2.984H7.906v7.516h5.282q3.703 0 5.75 1.765Q21-9.766 23.483-3.219l1.61 4.094-22.11 53.813H12.5l17.094-42.766 17.093 42.766h9.516z" id="DejaVuSans-121"/></defs><use xlink:href="#DejaVuSans-77"/><use x="86.279" xlink:href="#DejaVuSans-97"/><use x="147.559" xlink:href="#DejaVuSans-121"/></g></g><g id="xtick_3"><g style="fill:#696969" transform="matrix(.16 0 0 -.16 286.243 598.378)" id="text_3"><defs><path d="M53.516 70.516V60.89q-5.61 2.687-10.594 4-4.984 1.328-9.625 1.328-8.047 0-12.422-3.125t-4.375-8.89q0-4.845 2.906-7.313 2.907-2.453 11.016-3.97l5.953-1.218q11.031-2.11 16.281-7.406 5.25-5.297 5.25-14.172 0-10.61-7.11-16.078-7.093-5.469-20.812-5.469-5.172 0-11.015 1.172Q13.14.922 6.89 3.219v10.156q6-3.36 11.765-5.078 5.766-1.703 11.328-1.703 8.438 0 13.032 3.312 4.593 3.328 4.593 9.485 0 5.359-3.297 8.39-3.296 3.032-10.812 4.547L27.484 33.5q-11.03 2.188-15.968 6.875-4.922 4.688-4.922 13.047 0 9.672 6.812 15.234 6.813 5.563 18.766 5.563 5.14 0 10.453-.938 5.328-.922 10.89-2.765z" id="DejaVuSans-83"/><path d="M56.203 29.594v-4.39H14.891q.593-9.282 5.593-14.142 5-4.859 13.938-4.859 5.172 0 10.031 1.266 4.86 1.265 9.656 3.812v-8.5Q49.266.734 44.187-.344 39.11-1.422 33.892-1.422q-13.094 0-20.735 7.61-7.64 7.625-7.64 20.625 0 13.421 7.25 21.296Q20.016 56 32.328 56q11.031 0 17.453-7.11 6.422-7.093 6.422-19.296zm-8.984 2.64q-.094 7.36-4.125 11.75-4.032 4.407-10.672 4.407-7.516 0-12.031-4.25-4.516-4.25-5.203-11.97z" id="DejaVuSans-101"/><path d="M18.11 8.203v-29H9.077v75.484h9.031v-8.296q2.844 4.875 7.157 7.234Q29.594 56 35.594 56q9.968 0 16.187-7.906 6.235-7.907 6.235-20.797T51.78 6.484q-6.218-7.906-16.187-7.906-6 0-10.328 2.375-4.313 2.375-7.157 7.25zm30.578 19.094q0 9.906-4.079 15.547-4.078 5.64-11.203 5.64-7.14 0-11.218-5.64-4.079-5.64-4.079-15.547 0-9.906 4.078-15.547 4.079-5.64 11.22-5.64 7.124 0 11.202 5.64t4.078 15.547z" id="DejaVuSans-112"/></defs><use xlink:href="#DejaVuSans-83"/><use x="63.477" xlink:href="#DejaVuSans-101"/><use x="125" xlink:href="#DejaVuSans-112"/></g></g><g id="xtick_4"><g style="fill:#696969" transform="matrix(.16 0 0 -.16 371.422 598.378)" id="text_4"><use xlink:href="#DejaVuSans-74"/><use x="29.492" xlink:href="#DejaVuSans-97"/><use x="90.771" xlink:href="#DejaVuSans-110"/></g></g><g id="xtick_5"><g style="fill:#696969" transform="matrix(.16 0 0 -.16 448.295 598.378)" id="text_5"><use xlink:href="#DejaVuSans-77"/><use x="86.279" xlink:href="#DejaVuSans-97"/><use x="147.559" xlink:href="#DejaVuSans-121"/></g></g><g id="xtick_6"><g style="fill:#696969" transform="matrix(.16 0 0 -.16 532.863 598.378)" id="text_6"><use xlink:href="#DejaVuSans-83"/><use x="63.477" xlink:href="#DejaVuSans-101"/><use x="125" xlink:href="#DejaVuSans-112"/></g></g><g id="xtick_7"><g style="fill:#696969" transform="matrix(.16 0 0 -.16 618.042 598.378)" id="text_7"><use xlink:href="#DejaVuSans-74"/><use x="29.492" xlink:href="#DejaVuSans-97"/><use x="90.771" xlink:href="#DejaVuSans-110"/></g></g><g id="xtick_8"><g style="fill:#696969" transform="matrix(.16 0 0 -.16 694.915 598.378)" id="text_8"><use xlink:href="#DejaVuSans-77"/><use x="86.279" xlink:href="#DejaVuSans-97"/><use x="147.559" xlink:href="#DejaVuSans-121"/></g></g><g id="xtick_9"><g style="fill:#696969" transform="matrix(.16 0 0 -.16 779.483 598.378)" id="text_9"><use xlink:href="#DejaVuSans-83"/><use x="63.477" xlink:href="#DejaVuSans-101"/><use x="125" xlink:href="#DejaVuSans-112"/></g></g></g><g id="matplotlib.axis_2"><g id="ytick_1"><g style="fill:#696969" transform="matrix(.16 0 0 -.16 73.733 541.274)" id="text_10"><defs><path d="M10.594 35.5h62.593v-8.297H10.594z" id="DejaVuSans-8722"/><path d="M19.188 8.297h34.421V0H7.33v8.297q5.609 5.812 15.296 15.594 9.703 9.797 12.188 12.64 4.734 5.313 6.609 9 1.89 3.688 1.89 7.25 0 5.813-4.078 9.469-4.078 3.672-10.625 3.672-4.64 0-9.797-1.61-5.14-1.609-11-4.89v9.969Q13.767 71.78 18.938 73q5.188 1.219 9.485 1.219 11.328 0 18.062-5.672 6.735-5.656 6.735-15.125 0-4.5-1.688-8.531-1.672-4.016-6.125-9.485-1.218-1.422-7.765-8.187-6.532-6.766-18.453-18.922z" id="DejaVuSans-50"/><path d="M31.781 66.406q-7.61 0-11.453-7.5Q16.5 51.422 16.5 36.375q0-14.984 3.828-22.484 3.844-7.5 11.453-7.5 7.672 0 11.5 7.5 3.844 7.5 3.844 22.484 0 15.047-3.844 22.531-3.828 7.5-11.5 7.5zm0 7.813q12.266 0 18.735-9.703 6.468-9.688 6.468-28.141 0-18.406-6.468-28.11-6.47-9.687-18.735-9.687-12.25 0-18.718 9.688-6.47 9.703-6.47 28.109 0 18.453 6.47 28.14Q19.53 74.22 31.78 74.22z" id="DejaVuSans-48"/></defs><use xlink:href="#DejaVuSans-8722"/><use x="83.789" xlink:href="#DejaVuSans-50"/><use x="147.412" xlink:href="#DejaVuSans-48"/></g></g><g id="ytick_2"><g style="fill:#696969" transform="matrix(.16 0 0 -.16 73.733 437.97)" id="text_11"><defs><path d="M12.406 8.297h16.11v55.625l-17.532-3.516v8.985l17.438 3.515h9.86V8.296H54.39V0H12.406z" id="DejaVuSans-49"/></defs><use xlink:href="#DejaVuSans-8722"/><use x="83.789" xlink:href="#DejaVuSans-49"/><use x="147.412" xlink:href="#DejaVuSans-48"/></g></g><g id="ytick_3"><use xlink:href="#DejaVuSans-48" style="fill:#696969" transform="matrix(.16 0 0 -.16 97.32 334.668)" id="text_12"/></g><g id="ytick_4"><g style="fill:#696969" transform="matrix(.16 0 0 -.16 87.14 231.364)" id="text_13"><use xlink:href="#DejaVuSans-49"/><use x="63.623" xlink:href="#DejaVuSans-48"/></g></g><g id="ytick_5"><g style="fill:#696969" transform="matrix(.16 0 0 -.16 87.14 128.061)" id="text_14"><use xlink:href="#DejaVuSans-50"/><use x="63.623" xlink:href="#DejaVuSans-48"/></g></g><g style="fill:#696969" transform="matrix(0 -.2 -.2 0 65.573 445.117)" id="text_15"><defs><path d="M64.406 67.281v-10.39q-4.984 4.64-10.625 6.922-5.64 2.296-11.984 2.296-12.5 0-19.14-7.64-6.641-7.64-6.641-22.094 0-14.406 6.64-22.047 6.64-7.64 19.14-7.64 6.345 0 11.985 2.296 5.64 2.297 10.625 6.938V5.609Q59.234 2.094 53.437.33q-5.78-1.75-12.218-1.75-16.563 0-26.094 10.124-9.516 10.14-9.516 27.672 0 17.578 9.516 27.703 9.531 10.14 26.094 10.14 6.531 0 12.312-1.734 5.797-1.734 10.875-5.203z" id="DejaVuSans-67"/><path d="M44.281 53.078v-8.5q-3.797 1.953-7.906 2.922-4.094.984-8.5.984-6.688 0-10.031-2.047-3.344-2.046-3.344-6.156 0-3.125 2.39-4.906 2.391-1.781 9.626-3.39l3.078-.688q9.562-2.047 13.593-5.781 4.032-3.735 4.032-10.422 0-7.625-6.032-12.078-6.03-4.438-16.578-4.438-4.39 0-9.156.86Q10.688.296 5.422 2v9.281q4.984-2.594 9.812-3.89 4.829-1.282 9.579-1.282 6.343 0 9.75 2.172 3.421 2.172 3.421 6.125 0 3.656-2.468 5.61-2.453 1.953-10.813 3.765l-3.125.735q-8.344 1.75-12.062 5.39-3.704 3.64-3.704 9.985 0 7.718 5.47 11.906Q16.75 56 26.811 56q4.97 0 9.36-.734 4.406-.72 8.11-2.188z" id="DejaVuSans-115"/><path d="M44.39 34.188q3.172-1.079 6.172-4.594 3-3.516 6.032-9.672L66.609 0H56l-9.313 18.703q-3.624 7.328-7.015 9.719-3.39 2.39-9.25 2.39h-10.75V0h-9.86v72.906h22.266q12.5 0 18.656-5.234 6.157-5.219 6.157-15.766 0-6.89-3.203-11.437-3.204-4.532-9.297-6.282zM19.673 64.797V38.922h12.406q7.125 0 10.766 3.297 3.64 3.297 3.64 9.687 0 6.39-3.64 9.64-3.64 3.25-10.766 3.25z" id="DejaVuSans-82"/><path d="M18.313 70.219V54.688h18.5v-6.985h-18.5V18.016q0-6.688 1.828-8.594 1.828-1.906 7.453-1.906h9.218V0h-9.218q-10.407 0-14.36 3.875-3.953 3.89-3.953 14.14v29.688H2.687v6.984h6.594V70.22z" id="DejaVuSans-116"/><path d="M8.594 75.984h20.703V69H17.578V-6.203h11.719v-6.984H8.594z" id="DejaVuSans-91"/><path d="M48.781 52.594v-8.407q-3.812 2.11-7.64 3.157-3.828 1.047-7.735 1.047-8.75 0-13.593-5.547-4.829-5.532-4.829-15.547 0-10.016 4.829-15.563 4.843-5.53 13.593-5.53 3.907 0 7.735 1.046 3.828 1.047 7.64 3.156V2.094Q45.016.344 40.984-.531q-4.015-.89-8.562-.89-12.36 0-19.64 7.765-7.266 7.765-7.266 20.953 0 13.375 7.343 21.031Q20.22 56 33.016 56q4.14 0 8.093-.86 3.953-.843 7.672-2.546z" id="DejaVuSans-99"/><path d="M25.39 72.906h8.297L8.297-9.28H0z" id="DejaVuSans-47"/><path d="M45.406 46.39v29.594h8.985V0h-8.985v8.203Q42.578 3.328 38.25.953q-4.313-2.375-10.375-2.375-9.906 0-16.14 7.906-6.22 7.922-6.22 20.813 0 12.89 6.22 20.797Q17.968 56 27.874 56q6.063 0 10.375-2.375 4.328-2.36 7.156-7.234zm-30.61-19.093q0-9.906 4.079-15.547 4.078-5.64 11.203-5.64 7.125 0 11.219 5.64 4.11 5.64 4.11 15.547 0 9.906-4.11 15.547-4.094 5.64-11.219 5.64-7.125 0-11.203-5.64-4.078-5.64-4.078-15.547z" id="DejaVuSans-100"/><path d="M30.422 75.984v-89.171H9.719v6.984H21.39V69H9.719v6.984z" id="DejaVuSans-93"/></defs><use xlink:href="#DejaVuSans-67"/><use x="69.824" xlink:href="#DejaVuSans-97"/><use x="131.104" xlink:href="#DejaVuSans-115"/><use x="183.203" xlink:href="#DejaVuSans-101"/><use x="244.727" xlink:href="#DejaVuSans-32"/><use x="276.514" xlink:href="#DejaVuSans-82"/><use x="343.746" xlink:href="#DejaVuSans-97"/><use x="405.025" xlink:href="#DejaVuSans-116"/><use x="444.234" xlink:href="#DejaVuSans-101"/><use x="505.758" xlink:href="#DejaVuSans-32"/><use x="537.545" xlink:href="#DejaVuSans-91"/><use x="576.559" xlink:href="#DejaVuSans-32"/><use x="608.346" xlink:href="#DejaVuSans-99"/><use x="663.326" xlink:href="#DejaVuSans-97"/><use x="724.605" xlink:href="#DejaVuSans-115"/><use x="776.705" xlink:href="#DejaVuSans-101"/><use x="838.229" xlink:href="#DejaVuSans-115"/><use x="890.328" xlink:href="#DejaVuSans-47"/><use x="924.02" xlink:href="#DejaVuSans-100"/><use x="987.496" xlink:href="#DejaVuSans-97"/><use x="1048.775" xlink:href="#DejaVuSans-121"/><use x="1107.955" xlink:href="#DejaVuSans-32"/><use x="1139.742" xlink:href="#DejaVuSans-93"/></g></g><g style="fill:#696969" transform="matrix(.24 0 0 -.24 245.86 71.76)" id="text_16"><defs><path d="M9.813 72.906h13.28l32.329-60.984v60.984h9.562V0h-13.28L19.39 60.984V0H9.813z" id="DejaVuSans-78"/><path d="M4.203 54.688h8.985l11.234-42.672 11.172 42.672h10.593l11.235-42.672 11.187 42.672h8.985L63.28 0H52.688L40.922 44.828 29.109 0H18.5z" id="DejaVuSans-119"/><path d="M8.203 72.906h46.875v-4.203L28.61 0H18.312L43.22 64.594H8.203z" id="DejaVuSans-55"/><path d="M2.984 54.688H12.5L29.594 8.797l17.093 45.89h9.516L35.687 0H23.485z" id="DejaVuSans-118"/><path d="M45.406 27.984q0 9.766-4.031 15.125-4.016 5.375-11.297 5.375-7.219 0-11.25-5.375-4.031-5.359-4.031-15.125 0-9.718 4.031-15.093t11.25-5.375q7.281 0 11.297 5.375 4.031 5.375 4.031 15.093zm8.985-21.203q0-13.953-6.203-20.765Q42-20.797 29.203-20.797q-4.734 0-8.937.703-4.203.703-8.157 2.172v8.735q3.954-2.141 7.813-3.157 3.86-1.031 7.86-1.031 8.843 0 13.234 4.61 4.39 4.609 4.39 13.937v4.453q-2.781-4.844-7.125-7.234Q33.938 0 27.875 0 17.828 0 11.672 7.656q-6.156 7.672-6.156 20.328 0 12.688 6.156 20.344Q17.828 56 27.875 56q6.063 0 10.406-2.39 4.344-2.391 7.125-7.22v8.297h8.985z" id="DejaVuSans-103"/><path d="M9.422 75.984h8.984V0H9.422z" id="DejaVuSans-108"/><path d="M30.61 48.39q-7.22 0-11.422-5.64-4.204-5.64-4.204-15.453 0-9.813 4.172-15.453 4.188-5.64 11.453-5.64 7.188 0 11.375 5.655 4.203 5.672 4.203 15.438 0 9.719-4.203 15.406-4.187 5.688-11.375 5.688zm0 7.61q11.718 0 18.406-7.625 6.703-7.61 6.703-21.078 0-13.422-6.703-21.078-6.688-7.64-18.407-7.64-11.765 0-18.437 7.64-6.656 7.656-6.656 21.078 0 13.469 6.656 21.078Q18.844 56 30.609 56z" id="DejaVuSans-111"/><path d="M37.11 75.984V68.5h-8.594q-4.828 0-6.72-1.953-1.874-1.953-1.874-7.031v-4.828h14.797v-6.985H19.922V0H10.89v47.703H2.297v6.984h8.594V58.5q0 9.125 4.25 13.297 4.25 4.187 13.468 4.187z" id="DejaVuSans-102"/><path d="M9.813 72.906h9.859V42.094L52.39 72.906h12.703L28.906 38.922 67.672 0H54.688L19.672 35.11V0h-9.86z" id="DejaVuSans-75"/></defs><use xlink:href="#DejaVuSans-78"/><use x="74.805" xlink:href="#DejaVuSans-101"/><use x="136.328" xlink:href="#DejaVuSans-119"/><use x="218.115" xlink:href="#DejaVuSans-32"/><use x="249.902" xlink:href="#DejaVuSans-67"/><use x="319.727" xlink:href="#DejaVuSans-97"/><use x="381.006" xlink:href="#DejaVuSans-115"/><use x="433.105" xlink:href="#DejaVuSans-101"/><use x="494.629" xlink:href="#DejaVuSans-115"/><use x="546.729" xlink:href="#DejaVuSans-32"/><use x="578.516" xlink:href="#DejaVuSans-55"/><use x="642.139" xlink:href="#DejaVuSans-100"/><use x="705.615" xlink:href="#DejaVuSans-32"/><use x="737.402" xlink:href="#DejaVuSans-97"/><use x="798.682" xlink:href="#DejaVuSans-118"/><use x="857.861" xlink:href="#DejaVuSans-103"/><use x="921.338" xlink:href="#DejaVuSans-32"/><use x="953.125" xlink:href="#DejaVuSans-115"/><use x="1005.225" xlink:href="#DejaVuSans-108"/><use x="1033.008" xlink:href="#DejaVuSans-111"/><use x="1094.189" xlink:href="#DejaVuSans-112"/><use x="1157.666" xlink:href="#DejaVuSans-101"/><use x="1219.189" xlink:href="#DejaVuSans-32"/><use x="1250.977" xlink:href="#DejaVuSans-111"/><use x="1312.158" xlink:href="#DejaVuSans-102"/><use x="1347.363" xlink:href="#DejaVuSans-32"/><use x="1379.15" xlink:href="#DejaVuSans-55"/><use x="1442.773" xlink:href="#DejaVuSans-32"/><use x="1474.561" xlink:href="#DejaVuSans-97"/><use x="1535.84" xlink:href="#DejaVuSans-118"/><use x="1595.02" xlink:href="#DejaVuSans-103"/><use x="1658.496" xlink:href="#DejaVuSans-47"/><use x="1692.188" xlink:href="#DejaVuSans-49"/><use x="1755.811" xlink:href="#DejaVuSans-48"/><use x="1819.434" xlink:href="#DejaVuSans-48"/><use x="1883.057" xlink:href="#DejaVuSans-75"/></g><g id="legend_1"><path d="M694.75 184.5H831.2q3.2 0 3.2-3.2V88.96q0-3.2-3.2-3.2H694.75q-3.2 0-3.2 3.2v92.34q0 3.2 3.2 3.2z" style="fill:none;opacity:.8;stroke:#ccc;stroke-linejoin:miter" id="patch_5"/><path d="M697.95 98.718h32" style="fill:none;stroke:#000;stroke-linecap:round;stroke-width:1.5" id="line2d_6"/><g style="fill:#696969" transform="matrix(.16 0 0 -.16 742.75 104.317)" id="text_17"><defs><path d="M8.688 72.906h9.921V28.61q0-11.718 4.235-16.875 4.25-5.14 13.781-5.14 9.469 0 13.719 5.14 4.25 5.157 4.25 16.875v44.297H64.5V27.391q0-14.25-7.063-21.532-7.046-7.28-20.812-7.28-13.828 0-20.89 7.28-7.047 7.282-7.047 21.532z" id="DejaVuSans-85"/></defs><use xlink:href="#DejaVuSans-85"/><use x="73.193" xlink:href="#DejaVuSans-83"/></g><path d="M697.95 122.203h32" style="fill:none;stroke:#009e73;stroke-linecap:round;stroke-width:1.5" id="line2d_8"/><g style="fill:#696969" transform="matrix(.16 0 0 -.16 742.75 127.802)" id="text_18"><use xlink:href="#DejaVuSans-78"/><use x="74.805" xlink:href="#DejaVuSans-74"/></g><path d="M697.95 145.688h32" style="fill:none;stroke:#d55e00;stroke-linecap:round;stroke-width:1.5" id="line2d_10"/><g style="fill:#696969" transform="matrix(.16 0 0 -.16 742.75 151.287)" id="text_19"><defs><path d="M19.672 34.813V8.108H35.5q7.953 0 11.781 3.297 3.844 3.297 3.844 10.078 0 6.844-3.844 10.078-3.828 3.25-11.781 3.25zm0 29.984V42.828h14.61q7.218 0 10.75 2.703 3.546 2.719 3.546 8.282 0 5.515-3.547 8.25-3.531 2.734-10.75 2.734zm-9.86 8.11h25.204q11.28 0 17.375-4.688Q58.5 63.53 58.5 54.89q0-6.703-3.125-10.657-3.125-3.953-9.188-4.922 7.282-1.562 11.313-6.53 4.031-4.954 4.031-12.376 0-9.765-6.64-15.093Q48.25 0 35.984 0H9.812z" id="DejaVuSans-66"/><path d="M41.11 46.297q-1.516.875-3.297 1.281Q36.03 48 33.89 48q-7.625 0-11.703-4.953-4.079-4.953-4.079-14.234V0H9.08v54.688h9.03v-8.5q2.844 4.984 7.375 7.39Q30.031 56 36.531 56q.922 0 2.047-.125 1.125-.11 2.484-.36z" id="DejaVuSans-114"/></defs><use xlink:href="#DejaVuSans-66"/><use x="68.604" xlink:href="#DejaVuSans-101"/><use x="130.127" xlink:href="#DejaVuSans-114"/><use x="169.49" xlink:href="#DejaVuSans-103"/><use x="232.967" xlink:href="#DejaVuSans-101"/><use x="294.49" xlink:href="#DejaVuSans-110"/></g><path d="M697.95 169.173h32" style="fill:none;stroke:#0072b2;stroke-linecap:round;stroke-width:1.5" id="line2d_12"/><g style="fill:#696969" transform="matrix(.16 0 0 -.16 742.75 174.773)" id="text_20"><defs><path d="M8.5 21.578v33.11h8.984V21.922q0-7.766 3.016-11.656 3.031-3.875 9.094-3.875 7.265 0 11.484 4.64 4.234 4.64 4.234 12.656v31h8.985V0h-8.984v8.406Q42.047 3.422 37.718 1q-4.313-2.422-10.032-2.422-9.421 0-14.312 5.86Q8.5 10.296 8.5 21.578zM31.11 56z" id="DejaVuSans-117"/><path d="M54.89 33.016V0h-8.984v32.719q0 7.765-3.031 11.61-3.031 3.858-9.078 3.858-7.281 0-11.484-4.64-4.204-4.625-4.204-12.64V0H9.08v75.984h9.03V46.188q3.235 4.937 7.594 7.374Q30.078 56 35.797 56q9.422 0 14.25-5.828 4.844-5.828 4.844-17.156z" id="DejaVuSans-104"/></defs><use xlink:href="#DejaVuSans-82"/><use x="64.982" xlink:href="#DejaVuSans-117"/><use x="128.361" xlink:href="#DejaVuSans-116"/><use x="167.57" xlink:href="#DejaVuSans-104"/><use x="230.949" xlink:href="#DejaVuSans-101"/><use x="292.473" xlink:href="#DejaVuSans-114"/><use x="333.586" xlink:href="#DejaVuSans-102"/><use x="368.791" xlink:href="#DejaVuSans-111"/><use x="429.973" xlink:href="#DejaVuSans-114"/><use x="469.336" xlink:href="#DejaVuSans-100"/></g></g></g></g><defs><clipPath id="p331935d3ba"><path d="M117 77.76h725.4v498.96H117z"/></clipPath></defs></svg>