<svg height="864" viewBox="0 0 936 648" width="1248" xmlns="http://www.w3.org/2000/svg" xmlns:xlink="http://www.w3.org/1999/xlink"><defs><style>*{stroke-linecap:butt;stroke-linejoin:round}</style></defs><g id="figure_1"><path d="M0 648h936V0H0z" style="fill:#fff" id="patch_1"/><g id="axes_1"><path d="M117 576.72h725.4V77.76H117z" style="fill:none" id="patch_2"/><path clip-path="url(#pbf946287cb)" d="m149.973 340.626 47.98-.113 5.58-.276 1.115-.116 1.116-.228 1.116-.374 2.232-1.121 1.115-.81 2.232-1.898 3.348-3.75 1.115-1.465 2.232-2.065 1.116-1.355 3.347-3.046 1.116-.857 2.232.086 1.116.335 2.231 1.599 1.116 1.105 1.116 1.876 1.116.885 6.695 10.268 2.231 1.75 2.232 1.372 1.116.295 1.116-.427 1.116-.983 1.115.014 1.116-.1 1.116-.291 3.348.17 1.115.17 1.116-.128 1.116.3 1.116-.025 1.116.089 1.116.423 2.231 2.32 1.116.756 2.232.073 1.116.113 2.231-.341 1.116-.39 1.116.074 1.116-.57 1.116.04 1.115-.416 1.116-.068 2.232-.743 1.116-.716 1.115-.169 2.232.172 1.116.178 3.347-.67 1.116.147 1.116-.337 2.232.037 1.116-.69 1.115-.054 1.116.317 2.232.091 1.116-.752 1.116-.504 1.115.415 1.116-.176 2.232.102 1.116-.438 1.116-.164 1.115-.602 1.116-.123 1.116-.793 1.116-.97 1.116-1.47 1.115-1.272 1.116-.887 1.116-1.207 1.116-1.874 1.116-.78 1.116-1.32 2.231-1.505 2.232-2.063 1.116-.658 1.116-.106 2.231.473 1.116.469 1.116.194 1.116.92 1.116.378 2.231-.037 1.116-.546 1.116.19 1.116.428 1.116-.147 1.115.934 1.116.626 1.116.083 1.116.994 1.116.63 1.116.846 1.115 1.048 1.116.887 1.116.668 1.116 2.209 2.231 2.997 1.116 1.24 1.116 1.764 1.116.747 1.116 1.222 1.116.826 2.231 2.016 1.116 1.514 1.116.602 1.116 1.102 1.116.62 1.115-.602 1.116-.041 1.116-.207 1.116-.367 1.116.25 1.116-.288 1.115-.57 1.116.305 1.116-.214 1.116.058 1.116-.188 1.116-.356 1.115.264 1.116.432 1.116.784 1.116-.334 1.116.404 1.116-.184 1.115-.318 1.116.083 1.116-.427 1.116-.78 1.116-.6 1.115-1.568 1.116.168 1.116-.923 1.116-1.673 1.116-.352 1.116-.667 1.115 1.487 1.116 1.157 1.116.149 1.116.829 2.232.502 1.115-.235 1.116-1.637 1.116-.566 1.116-1.97 1.116-.676 1.116.441 1.115-.53 1.116-.674 1.116-3.076 1.116-1.39 1.116-.146 1.116-.861 1.115-1.07 1.116-.423 1.116.251 1.116 3.069 1.116.415 2.231 1.2 1.116.243 1.116-.249 1.116.55 1.116-.732 1.115-.104 1.116-.908 1.116-1.054 1.116.032 1.116-.312 1.116-.919 1.115-.334 2.232-1.21 1.116-.811 1.116-1.31 1.116.417 1.115-.559 1.116.799 1.116-.737 1.116.689 1.116.02 1.116-.99 1.115-2.298 1.116-.22 1.116-2.47 1.116-.237 1.116-1.132 1.116-.687 1.115-.321 1.116-.473 1.116-1.191 1.116-.204 1.116-1.238 2.231-4.47 1.116-1.898 2.232-3.484 1.116-2.852 1.115-3.511 1.116-1.796 1.116-2.801 1.116-3.57 1.116-2.875 2.231-3.563 2.232-.74 1.116.715 1.116 1.632 1.116 3.017 2.231 4.92 1.116 3.255 1.116 2.773 1.116 13.274 1.116 4.364 1.115 5.613 1.116 3.815 1.116 5.033 1.116 1.623 1.116.924 1.116-9.514 1.115-.855 1.116-4.333 1.116-3.16 1.116-2.492 1.116-2.016 1.115-1.071 1.116-9.63 1.116-4.414 1.116-2.339 1.116-1.776 1.116-.872 1.115 2.4 1.116-.474 1.116 10.704 1.116 5.742 1.116 7.11 2.231 7.99 2.232 7.6 1.116 5.41 1.116 20.873 1.116-2.212 1.115 4.2 1.116.928 1.116-1.67 1.116 2.504 1.116-2.62 1.116-7.917 1.115-9.25 1.116-5.653 1.116-6.51 1.116-3.715 1.116-4.614 1.116-9.788 1.115-31.798 1.116 6.557 1.116-3.594 1.116 1.361 1.116.464 1.115 2.913 1.116 8.198 1.116 11.226 1.116 13.029 1.116 9.2 1.116 15.491 2.231 15.479 1.116 10.294 1.116 21.125 1.116-.567 1.116 4.913 1.115-4.287 1.116 3.272 1.116.323 1.116-1.728 1.116-3.556 1.116-1.634 1.115-2.336 1.116-7.376 2.232-1.664 1.116-.89 1.116-1.379 1.115-.568 1.116-1.455 1.116 6.732 1.116-1.825 2.231-.924 1.116.306 1.116-1.446 1.116.797 1.116 2.406 1.116-.37 1.115-1.127 1.116-.7 2.232-2.87 1.116-1.875 1.116-5.555 1.115-2.746 1.116-3.061 1.116-2.73 1.116-3.16 1.116-1.386 1.116-2.013 1.115-3.657 2.232-3.644 1.116-2.434 2.232-1.867 1.115.235 1.116-3.52 1.116.955 2.232 2.453 1.116.192 1.115-.002 1.116-.23 1.116 3.62 1.116-1.351 3.347-2.73 1.116-1.147 1.116-.737 1.116 4.214 1.116-.414 1.115-3.076 1.116-1.418 1.116-1.612 2.232-2.69 1.116-5.587 1.115-.717 1.116 1.33 1.116-1.047 3.348.806 1.115-.87 1.116.26 1.116 1.655 1.116.564 1.116.092 1.116.592 1.115-.087 1.116 2.165 1.116-1.032 1.116-1.531 1.116 1.553 1.116-.28 1.115 1.498 1.116-.116 1.116.788 1.116 1.678 1.116 1.927 1.115 1.122 1.116 2.885 1.116.422 2.232 3.896 1.116 2.564 1.115 1.082 2.232.412 1.116-.542 1.116-.274 3.347-1.341 1.116.255 1.116-.371 1.116.804 1.116-.053 1.115-.998 1.116-.234 2.232.226 1.116.13 1.116-.114 1.115.174 1.116 1.042 1.116-.497 1.116-.357 1.116-.111 1.115.099 1.116-.038 1.116-.496 1.116-1.027 1.116-.198 1.116-.4 1.115-.773 1.116.05 2.232.337 1.116 1.338 1.116-.619 2.231-.074 1.116 3.565 1.116-1.008 1.116-.133 1.116-1.834 1.115.351 1.116-.964 1.116.188 1.116-5.004 1.116-.48 1.116-.769 1.115-1.653 1.116.214 1.116-.029 1.116-.488 1.116-4.385 1.116-.043 1.115.15 1.116 1.384 1.116-.97 1.116.437 1.116-.646 1.115 4.036 1.116-.144 1.116.063 1.116-.422 1.116-.553 1.116-.858 1.115-5.64 1.116-1.004 1.116.22 1.116-.164 1.116 1.223 1.116-1.095 1.115-1.53 1.116 1.908 1.116-1.322 1.116-.477 1.116-.272 1.116-3.254 1.115-1.354 1.116-.617 1.116 6.645 1.116-1.195 1.116-.783 1.116-.487 1.115-3.638 2.232-1.599 1.116-4.732 1.116-1.668 1.116-.564 2.231-.554 1.116-3.015 1.116-1.814 1.116-4.816 1.115-2.378 1.116-.359 1.116-.583 1.116-2.019 1.116-2.55 1.116-.591 1.115.084 1.116-1.553 1.116-.343 2.232-1.778 1.116 3.447 1.115-1.89 2.232 4.356 2.232.18 1.116-3.948 1.115 6.415 1.116 1.92 1.116.8 1.116 3.503 1.116-1.796 1.116 1.718 1.115 3.755 1.116.615 1.116 3.863 1.116-1.703 1.116 2.38 1.116.192 1.115.645 1.116 6.966 1.116-2.915 1.116-3.247 1.116 3.465 1.115 1.743 1.116 5.106 1.116-.576 1.116 21.99 1.116-14.13 2.231 6.947 1.116 1.189h0" style="fill:none;stroke:#000;stroke-linecap:round;stroke-width:1.5" id="line2d_1"/><path clip-path="url(#pbf946287cb)" d="m149.973 340.624 49.096-.104 3.348-.251 2.231-.623 1.116-.58 1.116-1.165 1.116-.533 1.116-1.605 1.115-2.14 1.116-3.275 1.116-2.843 1.116-2.17 1.116-8.358 3.347-20.368 1.116-8.69 1.116-4.414 1.116-10.37 1.116-2.161 1.115-8.571 1.116-5.86 1.116-2.181 1.116 2 1.116-2.04 1.116 4.279 1.115 7.391 2.232 19.56 1.116 5.283 1.116 12.264 1.116 1.219 1.115 14.105 1.116.635 2.232 20.526 1.116 3.624 1.115-1.686 1.116 7.445 1.116-7 1.116 1.616 1.116.77 1.116-4.023 1.115 2.646 1.116 1.95 1.116 7.066 1.116.986 1.116 9.41 1.116-2.87 1.115.735 1.116 2.592 1.116 5.4 1.116-1.22 1.116 9.218 1.116 1.856 1.115-.866 2.232 9.607 1.116-4.807 1.116 2.37 1.116-2.281 1.115-4.39 1.116 3.67 1.116-1.365 1.116-1.106 1.116-3.547 1.116-2.011 1.115-6.498 1.116-2.212 1.116-2.96 1.116-.374 1.116-5.357 1.115 2.533 1.116-4.734 1.116.162 1.116-2.765 1.116-1.547 1.116-3.195 1.115.043 1.116 2.927 1.116.855 1.116 3.52 1.116 2.53 1.116 1.04 1.115-2.29 1.116 1.435 1.116-2.425 1.116.1 1.116-2.123 1.116.41 1.115.928 1.116 1.915 1.116-.843 1.116-1.37 2.232-.53L308.42 350l1.116-1.021 1.116-.402 1.116-2.313 1.116-.74 1.115-1.252 1.116.564 1.116-6.753 1.116-1.767 1.116-.26 1.116.016 1.115.279 1.116-.202 1.116-1.454 1.116 6.428 1.116.167 1.116-.406 1.115-.109 1.116-.263 1.116.48 1.116-.426 1.116 7.554 1.116.105 1.115-.345 1.116.12 1.116-.766 2.232-.328 1.116-6.653 1.115 1.184 1.116.27 1.116 1.664 1.116.63 1.116-.108 1.116.178 1.115-.844 1.116-1.686 1.116-.812 1.116-2.19 1.116-.982 1.115-.247 2.232.298 1.116-2.089 1.116.294 1.116-.72 1.115.546 2.232.244 1.116-.585 1.116 2.855 1.116.97 1.115 1.985 1.116 1.064 1.116.394 1.116-.089 1.116-1.238 1.116.085 1.115-.208 1.116.568 1.116-.924 1.116-.054 1.116.15 1.116 2.808 1.115-.193 1.116-.975 1.116-.433 1.116.314 1.116.452 1.116.762 1.115.29 1.116.55 1.116.347 1.116-1.833 1.116-.27 1.115-.546 1.116-.781 1.116-2.425 1.116-1.435 1.116 1.063 1.116.445 1.115-.27 1.116.092 1.116-.402 1.116.623 1.116.166 1.116-1.176 1.115.607 1.116.472 1.116-.506 1.116.042 1.116-.286 1.116.302 1.115-.14 1.116-.526 1.116-.29 1.116-.166 1.116.012 1.116.197 1.115-.14 1.116-.638 1.116-1.001 1.116-.639 1.116.5 1.115-.925 1.116.367 2.232-1.407 1.116.881 1.116.41 1.115-.707 1.116.839 1.116-2.665 1.116-.248 1.116 1.44 1.116.463 1.115.809 1.116-1.273 1.116-.503 1.116 1.459 1.116.955 1.116.491 1.115-2.305 1.116-2.982 1.116.669 1.116-1.122 1.116 1.907 1.116-.425 1.115-4.092 1.116 1.048 1.116-.255 1.116-1.16 1.116-.813 1.116-2.765 1.115-3.814 1.116 2.382 1.116-.348 1.116 2.209 1.116-.685 1.115-2.638 1.116-.854 1.116.193 1.116-3.342 1.116-1.609 1.116-2.576 1.115-5.005 1.116.07 1.116-4.417 1.116-1.18 1.116-6.563 1.116-7.391 1.115-.035 1.116-.279 1.116-.835 1.116-1.075 1.116-.17 1.116 5.89 1.115 3.249 1.116-2.6 1.116 6.591 1.116 2.387 1.116 4.792 1.116 2.967 1.115 7.805 1.116 10.265 1.116 2.135 1.116-.317 1.116 2.881 1.116 1.431 2.231-9.843 1.116-10.68 1.116 3.826 1.116-2.402 1.115-.6 1.116-.139 1.116 9.6 1.116-6.896 1.116 6.757 1.116-6.289 1.115 7.12 1.116-3.844 1.116 4.583 1.116 5.114 1.116 13.811 1.116 4.526 1.115 7.735 1.116.901 1.116 4.07 1.116-.473 1.116-12.288 1.116 4.286 1.115 3.786 1.116 6.429 1.116-2.182 1.116 5.14 1.116-4.861 1.116-.754 1.115-13.774 1.116-1.272 1.116-193.292 3.348-22.936 1.115-1.376 1.116-8.092 1.116-18.685 1.116 175.318 1.116 2.831 1.115-8.188 1.116 3.013 1.116 4.243 1.116 11.31 1.116 7.194 1.116 192.738 1.115 9.925 1.116 13.82 1.116 17.122 1.116 14.253 1.116 2.904 1.116 7.117 1.115-178.091 1.116-7.067 1.116 10.27 1.116-.33 1.116-9.445 2.231 3.62 1.116-3.31 1.116 6.447 1.116.232 1.116-2.27 1.116-1.574 1.115 7.399 1.116.356 1.116 4.811 1.116-1.075 1.116-10.397 1.115-2.587 1.116 8.826 1.116-4.336 1.116 4.564 1.116 1.888 1.116-6.506 1.115-8.656 2.232-8.312 1.116.445 1.116.7 1.116-8.56 1.115 3.49 1.116 11.796 1.116.263 1.116-5.101 1.116-7.775 1.116-9.758 1.115-6.01 1.116-.29 1.116-3.226 1.116.008 2.232-3.795 1.115-1.032 1.116 8.099 1.116-5.075 1.116-4.158 1.116-1.245 1.116 1.18 1.115 4.3 1.116-1.667 1.116-.297 1.116 2.088 1.116.14 1.115-4.023 1.116-1.342 1.116-5.628 1.116.782 1.116-4.502 1.116-.964 1.115 1.16 1.116 4.445 1.116-2.665 1.116 1.5 1.116-1.844 1.116.174 1.115-1.853 1.116 3.733 1.116-3.891 2.232 9.704 1.116 2.444 1.115 4.328 1.116 8.691 1.116-3.052 1.116 2.894 1.116 5.967 1.116 2.333 1.115 6.501 1.116 3.191 1.116-.665 1.116.967 1.116 8.037 1.116-4.865 1.115-2.104 2.232-3.725 1.116-.178 1.116 2.557 1.115-2.275 1.116 4.684 1.116 1.133 1.116 4.027 1.116 41.9 1.116 3.7 1.115 2.654 1.116 2.212 1.116 4.506 1.116 5.868 1.116.998 1.116-39.765 1.115.02 1.116-1.958 1.116.553 1.116-2.54 1.116-.774 1.116-2.305 1.115-40.059 1.116-1.052 1.116 2.626 1.116-.004 1.116-1.288 1.116-4.602 1.115-1.648 1.116 37.873 1.116-4.656 1.116 1.779 1.116-3.729 1.115-4.715 1.116-2.595 1.116-3.446 1.116-2.263 1.116-.723 1.116-7.712 1.115-3.164 1.116-.998 1.116.46 1.116-.058 1.116.39 1.116 1.22 1.115.309 1.116.951 1.116 1.168 1.116-1.435 1.116.267 2.231-2.127 1.116.155 1.116-.882 1.116-1.42 1.116-.054 1.116-.205 1.115.279 1.116-1.103 1.116-.855 1.116-.034 1.116.135 1.116.557 1.115.1 1.116.391 1.116.213 1.116-.286 1.116.104 1.115-.394 1.116-.534 2.232.035 1.116.24 1.116.665 1.115-.194 2.232.143 2.232-.208 1.116.197 2.231-.704 1.116-.02 1.116-.355 1.116-.638 1.116-.476 1.115-.84 3.348-1.775 1.116-1.102 2.231-1.319 1.116-1.408 1.116-.951 1.116-.724 1.116-1.264 1.116-.74 1.115.013 1.116-.31 1.116.282 1.116-.645 1.116-.836 1.115-.44 1.116-.322 1.116-.723 2.232-1.872 1.116.201 1.115-.344 1.116.727 2.232-.457 1.116.875 2.231-1.497 1.116-.22 1.116-1.115 1.116-2.722 1.116.877 1.116-.332 2.231 2.39 1.116.855 1.116-3.361 1.116 2.95 1.116.252 1.115-1.303 1.116 1.083 1.116.077 1.116 1.377 1.116 3.272 1.116 4.831 1.115-1.14 1.116 2.161 1.116-.305 1.116-.693 1.116-1.237 1.115 7.553 1.116-2.784 1.116 1.206 1.116-.475 1.116 7 1.116-3.013 1.115 1.408 1.116-4.939h0" style="fill:none;stroke:#009e73;stroke-linecap:round;stroke-width:1.5" id="line2d_2"/><path clip-path="url(#pbf946287cb)" d="m149.973 340.624 43.517-.11 5.58-.295 1.115-.11 1.116-.516h1.116l1.115-1.032 1.116-.774 1.116-1.622 1.116-5.933 1.116-1.474 1.116-.221 1.115-3.427 1.116-4.496 2.232-4.902 1.116-8.18 1.116-9.25 1.115-11.02 1.116-8.696 1.116-4.902 1.116-11.571 1.116-15.552 1.116-2.063 1.115-15.736 1.116-20.453 1.116-.074 1.116-8.807 1.116-6.45 1.116 11.535 1.115 13.23 1.116 16.067 1.116 28.487 1.116 8.881 1.116 19.458 1.116 24.765 1.115 14.225 1.116 4.643 1.116 22.074 1.116 25.612 1.116 1.548 1.115 10.982 1.116 8.587 1.116-5.602 1.116 2.285 1.116-1.548 1.116-19.716 1.115 8.992 2.232-10.06 1.116 7.96 1.116 10.724 1.116-1.364 1.115 3.575 1.116 2.58 1.116 3.906 1.116-.737 1.116 1.584 1.116-4.532 1.115-.738 1.116 4.57 1.116-6.007 1.116-8.66 1.116-3.059 1.116-4.938 1.115-1.474 1.116-4.017 1.116-6.891 1.116-.221 1.116-1.511 1.116 1.142 1.115-2.653 1.116-7.739 1.116-2.764 1.116-.479 1.116-3.943 1.115.11 1.116-4.2 1.116-2.396 1.116-8.44 1.116.738 1.116-.627 2.231 4.828 1.116 1.142 1.116-1.695 1.116 8.771 1.116-1.29 1.115-2.837 1.116 2.284 1.116.11 1.116-.183 1.116.479 1.116 1.842 1.115.958 1.116-2.21 2.232-5.123 1.116-1.806 1.116 1.843 1.115-2.654 1.116-.147 1.116 2.727 1.116-1.548 1.116-.037 1.115.922 1.116 1.842 1.116-10.76 1.116-4.054 1.116 1.88 1.116-2.654 1.115.368 1.116.074 1.116-2.248 1.116 10.135 1.116 1.216 1.116-1.917 1.115.627 1.116-.442 1.116.22 1.116-1.215 1.116 10.65 1.116 2.985 1.115-.295 1.116 3.833 1.116.147 1.116.774 1.116 1.253 1.116-10.282 1.115.037 1.116.958 1.116.258 1.116-.921 1.116-1.069 1.116.295 1.115.442 1.116-.553 1.116-.995 1.116-2.653 1.116-.368 1.115-1.77 1.116-1.473 1.116-.516 1.116-2.617 1.116.037 1.116-.59 1.115 2.1 1.116.222 1.116 1.548 1.116.074 1.116 1.768 1.116-.663 1.115.627h1.116l1.116 2.248 1.116-.222 1.116-.884 1.116-2.285 1.115-.479 1.116-1.437 1.116-2.727 1.116.331 1.116.59 1.116 3.538 2.231 4.606 1.116 2.985 1.116 2.064 2.232-2.506 1.115-1.953 1.116 3.464 1.116-.258 1.116.184 1.116 1.253 1.115-1.29 1.116-.7 2.232-7.628 1.116.553 1.116-2.248 1.115-1.511 1.116 1.99 1.116 1.327 1.116 2.763 1.116-.147 1.116.184 1.115 1.069 1.116.59 1.116 1.695 1.116-.553 1.116-.737 1.116.258 1.115-2.174 1.116.147 1.116-.553 1.116-3.206 1.116.332 1.116.663 1.115.295 1.116.037 1.116-.81 2.232-.259 2.231-.516 1.116-.958 1.116-.405 2.232-.516 1.115 1.142 1.116-.774 1.116-1.584 1.116-.848 1.116-.405 2.231-.295 1.116-2.543 1.116-.295 1.116.737 1.116.922 1.116 1.216 1.115-1.253 1.116-1.917 1.116.774 1.116-1.437 1.116.442 1.116.185 1.115-2.285 1.116.147 1.116-.22 1.116.073 1.116 1.658 1.116-.368 1.115-4.386 1.116.442 1.116-.294 1.116 1.068 1.116-1.105 1.115-2.432 1.116 1.253 1.116.331 1.116-4.496 1.116-1.105 1.116 1.068 1.115-2.91 1.116-4.755 1.116-10.024 1.116-.663 1.116-2.616 1.116-5.565 1.115-.737 1.116-2.285 1.116.48 1.116-2.433 1.116.553 1.116 5.343 1.115 1.77 1.116-8.219 2.232 13.71 1.116 12.123 1.116-2.506 1.115 10.54 1.116 3.538 1.116 5.749 1.116-1.106 1.116 1.511 1.116-1.842 1.115-2.875 1.116-9.065 1.116-1.511 1.116 5.97 1.116.958 1.115 1.216 1.116 1.843 1.116 19.752 1.116-9.213 1.116 9.987 1.116-6.191 1.115 5.823 1.116-3.022 1.116 5.196 1.116-1.511 1.116 17.652 1.116 1.585 1.115 7.038 1.116-2.985 2.232-12.05 1.116-13.783 1.116 2.617 1.115-1.18 1.116 2.138 1.116-.48 1.116 7.26 1.116-4.9 1.116 2.763 1.115-11.535 1.116-2.763 1.116-166.313 1.116-11.83 1.116-6.044 1.116-1.179 1.115-5.97 1.116-7.665 1.116-13.746 1.116 156.916 1.116 9.508 1.115-6.634 1.116-.405 1.116 4.754 1.116 6.707 1.116 4.606 1.116 164.213 1.115 6.891 2.232 27.123 1.116 15.92 1.116 1.437 1.116 8.44 1.115-159.164 1.116-9.471 1.116 7.886 1.116 3.096 1.116-7.629 1.116 3.354 1.115.516 1.116-3.612 1.116 10.65 1.116 3.538 1.116-4.975 1.116-9.655 1.115 5.786 1.116-.369 1.116 6.007 1.116-1.474 1.116-11.534 1.115.59 1.116 8.733 1.116-2.727 1.116 4.017 1.116 4.459 1.116-12.825 1.115-7.112 1.116-2.727 1.116 4.017 1.116.958 1.116 1.437 1.116-11.608 1.115 3.98 1.116 8.292 1.116-4.68 1.116-12.604 1.116-5.38 1.116-7.113 1.115-9.213 1.116 7.518 1.116-7.334 1.116 2.506 1.116-.479 1.116 5.454 1.115-4.127 1.116 16.73 1.116-7.701 1.116 3.722 1.116-.258 1.116 8.439 1.115-3.575 1.116-1.179 1.116 2.727 1.116.995 1.116 1.364 1.115-2.47 1.116-5.527 1.116-12.677 1.116 3.906 1.116-9.913 1.116 2.911 1.115-1.843 1.116 8.44 1.116-7.85 1.116 4.901 1.116-4.496 1.116 2.138 1.115-2.285 1.116-1.18 1.116-7.406 1.116 11.313 1.116 6.78 1.116 5.344 1.115 2.248 1.116 7.924 1.116-.111 1.116.553 1.116 12.05 1.116 6.707 1.115 8.108 1.116 3.722 1.116 1.842 1.116 10.172 1.116 7.923 1.116-8.07 1.115-1.954 1.116-2.58 1.116 1.511 1.116-3.5 1.116.184 1.115-2.396 1.116 1.364 1.116-1.548 1.116 1.069 1.116 2.874 1.116 1.29 1.115-.81 1.116 1.105 1.116 2.911 1.116 5.344 1.116-.922L664.37 384l1.115.442 1.116-42.6 1.116-8.476 1.116-3.096 1.116-1.843 1.116-2.137 1.115-4.46 1.116-.773 1.116 39.579 1.116 10.355 1.116-2.395 1.116-5.49 1.115-2.212 1.116 2.838 1.116-2.727 1.116 42.49 1.116 7.15 1.115-2.802 1.116.7 1.116.111 1.116-1.4 1.116-1.953 1.116-44.554 1.115-13.451 1.116.995 1.116.368 1.116.184 1.116.774 1.116.369 1.115-.774 2.232-.11 1.116-3.096 1.116-1.106 1.116-.479 1.115.369 2.232-.332 1.116-1.585 1.116.443 2.231-1.364 1.116-1.843 1.116-.958 1.116-.479 1.116.11 1.116 1.033 1.115.663 2.232.737 2.232-.848 1.115.258 1.116-1.179 2.232-.11 1.116.516 2.231.184 2.232-.48 1.116.332 1.116-.258 1.116.553 1.115 1.327 1.116.995 1.116.147 1.116.48 1.116-.738 1.116-.073 2.231-1.843 3.348-3.059 2.231-1.363 2.232-1.917 1.116-1.621 1.116-2.064 1.116-1.4 1.115-.258 1.116-1.364 1.116-.11 1.116-.81 1.116-.664 1.115.59 1.116.036 1.116-1.437 1.116.11 1.116-1.584 1.116.074 1.115 1.474 1.116.958 1.116 1.474 1.116 1.695 1.116 2.396 1.116-1.106 1.115-.11 1.116-1.364 1.116.258 1.116-2.985 1.116 4.496 1.116-.737 1.115 1.437 1.116-.884 1.116 1.732 1.116-4.128 1.116 1.4 1.116-5.343 1.115-2.1 1.116 3.758 1.116 1.069 1.116 1.548 1.116 2.321 1.116 3.022 1.115-3.87 1.116 1.401 1.116-.073 1.116 1.842 1.116-2.174 1.115 8.255 1.116-1.327 1.116 5.417 1.116-.037 1.116 3.501 1.116-2.948 1.115.774 1.116-5.86h0" style="fill:none;stroke:#d55e00;stroke-linecap:round;stroke-width:1.5" id="line2d_3"/><path clip-path="url(#pbf946287cb)" d="M149.973 340.624h55.791l1.116-3.753h2.232l1.115-1.877h1.116l2.232-11.262 1.116-7.508 1.116-1.877 1.115-5.63 1.116-1.877 2.232-18.77 1.116-7.507 1.116 11.261 1.115-9.385 1.116-24.4 1.116-15.015 1.116 3.754 1.116 11.261 1.116 13.139 1.115-7.508h1.116l1.116 31.908 1.116 22.523 1.116 3.754 1.116 11.262 1.115 5.63 1.116 1.877 1.116 13.139 1.116 22.523 1.116 16.893 1.115-1.877 1.116-3.754 1.116-9.385 1.116 15.016 1.116-1.877 1.116-24.4 1.115-20.647 1.116 5.631 1.116 3.754 1.116 7.508 1.116-5.631 1.116 3.754h2.231l1.116 7.507 1.116-1.877 2.232 11.262 1.115 7.508 1.116 3.754h1.116l1.116-7.508 1.116-13.139 1.116-7.507 1.115-5.631 1.116-7.508 1.116 1.877h1.116l1.116-1.877 1.116 5.63 1.115-1.876 1.116-3.754 1.116-1.877 1.116-5.63h1.116l2.231 15.015 2.232 3.754 1.116-3.754h2.231l1.116-13.139 1.116-5.63 2.232-3.754 1.116 1.877h2.231l1.116 5.63h1.116l1.116-1.877h1.116l1.115 1.877h2.232l1.116 5.631h1.116l1.116 1.877h1.115l1.116-1.877h2.232l1.116-9.384 1.115 1.876h1.116l1.116-1.876h3.348l1.115-3.754h1.116l1.116-1.877 1.116 1.877h4.463l1.116-3.754 1.116 3.754h1.116l1.116-1.877h2.231l1.116 11.261h3.348l1.115 1.877h2.232l1.116 7.508 1.116-1.877 1.116-3.754h1.115l1.116 3.754h2.232l1.116-9.385 1.115 5.631 1.116 1.877 1.116-1.877 1.116-3.754h2.232l1.115-3.754 1.116 3.754h1.116l1.116 3.754h3.347l1.116 3.754 1.116-5.63 1.116-1.878h1.116l1.116-1.877h2.231l1.116-1.877h1.116l1.116 3.754 1.116-3.754h4.463l1.116-3.753 1.116-1.877h1.115l1.116 3.754h3.348l1.115 3.753 1.116-7.507 1.116 3.754h4.463l1.116-1.877 1.116 9.384h1.116l1.116-1.877h3.347l2.232 3.754 1.116-3.754h3.347l1.116-5.63 1.116 5.63 1.116-5.63 1.116 1.876h3.347l1.116 7.508 1.116-5.63 1.115 5.63 1.116 1.877h4.464l1.115-1.877 1.116-11.261 1.116-18.77 1.116-3.754h2.232l1.115-5.63 1.116-9.385 1.116 5.63 1.116 7.508 3.347-16.892 1.116 3.754 1.116 13.138 1.116 3.754 1.116 26.277 1.116 13.139 2.231 11.262 1.116-7.508 1.116 1.877 1.116-9.385 1.116-16.892 1.115-3.754 2.232 11.261 1.116-11.261 1.116-5.631 1.115 1.877 1.116-5.63 1.116-9.386 3.348-16.892 1.115 1.877 1.116 15.015 1.116-16.892 1.116 5.63h2.232l1.115 16.893 2.232-39.415 1.116 13.138 1.116-13.138 1.116-9.385h1.115l1.116 16.892 1.116 13.139 1.116-1.877 1.116 41.293 1.116 30.03 1.115-28.154h1.116l1.116-5.63 1.116 16.892 1.116 13.139 1.116-46.924 1.115-31.908 1.116 26.277h1.116l1.116 1.877 1.116-16.892h1.115l1.116-18.77 1.116 1.878 1.116 48.8h1.116l1.116-5.63 1.115 3.753 1.116 5.63 1.116 63.816 1.116 30.031 1.116-16.892h1.116l1.115-30.03 1.116 13.138 1.116-48.8 1.116-5.631 1.116 3.753 1.116-20.646h2.231l1.116-1.877 1.116 18.77 1.116-45.047 1.116 15.016h2.231l1.116 18.769 1.116-28.154 1.116 46.923 1.116 1.877 1.115-54.43 1.116-18.77h1.116l1.116 26.277 1.116 9.385 1.115-16.893 1.116 20.646 1.116 3.754 1.116 18.77h1.116l1.116 46.923 1.115 5.63h1.116l1.116 18.77 1.116 35.662 1.116 18.77h1.116l1.115-78.832 1.116 18.77 1.116 9.384 1.116-13.139 2.232-56.308h1.115l1.116 16.893 1.116 26.277 1.116-46.923 1.116-15.016 1.116 3.754 1.115 9.385h1.116l1.116 28.154 1.116-45.047 1.116 31.908 1.115 7.508 1.116 28.154 1.116-3.754h1.116l1.116-28.154 1.116-20.646 1.115 37.538 1.116 9.385 1.116-16.892 1.116 3.753 1.116-13.138 1.116 22.523 1.115 28.154 1.116-37.539 1.116-22.523 1.116-11.261 2.232 26.277 1.115-52.554 1.116 5.63 1.116-3.753 1.116 13.138 1.116-9.385 1.116-13.138 1.115 13.138 1.116 11.262 1.116-3.754 1.116-5.63 1.116-1.878 1.116 24.4h1.115l1.116-13.138 1.116 5.63 1.116 1.878 1.116 3.754 1.115 1.877 1.116 9.384h2.232l1.116-5.63 1.116-9.385 1.115 5.63 1.116 11.262 1.116-20.646h1.116l1.116-16.893 1.116 41.293 1.115 1.877 1.116 7.508 1.116-39.416 1.116-3.754h1.116l1.116 16.893 1.115-9.385 1.116-1.877 2.232 16.892v7.508l1.116 11.262 1.116-1.877 1.115 16.892 1.116-11.261 1.116 9.384 1.116-11.261 1.116 13.138 1.116 3.754 1.115-7.508 1.116-16.892 1.116 24.4 1.116 7.508 1.116-20.646 1.115 11.261 1.116-7.508 1.116 11.262h1.116l1.116-18.77 1.116-9.384 1.115 9.385 1.116 11.261 1.116-7.507 1.116 5.63h1.116l1.116-5.63 2.231-7.508 1.116-5.631 1.116 13.139 1.116-7.508h1.116l1.115 1.877 1.116 5.63 1.116 3.754 1.116-1.877 1.116 11.262 1.116 1.877h2.231l1.116-3.754 1.116 7.508 1.116-5.63 1.115-13.14 1.116-1.876h1.116l1.116 3.753 1.116-1.876 1.116-11.262 1.115-5.63 1.116-3.755h2.232l1.116-7.507h1.116l1.115-1.877 1.116 5.63h4.464l1.115-5.63 2.232 3.753h4.463l1.116 5.631 1.116 1.877 1.116-3.754h4.463l1.116 5.631h2.232l1.115-7.508h3.348l1.116-5.63 2.231-3.754 1.116 7.507h6.695l1.116 5.631h4.463l1.116-1.877h1.116l1.116-5.63h4.463l1.116 1.876h1.116l1.116-9.384h2.231l1.116-39.416 1.116-3.754h1.116l1.116-7.507h3.347l1.116 26.277 2.232-3.754 1.115 9.384 1.116 18.77h2.232l1.116 33.785 1.116 3.753 1.115-7.507 1.116 1.877 1.116-3.754h2.232l1.116-26.277 1.115 3.754 1.116 9.384 1.116-5.63 1.116-3.754h2.232l1.115 20.646 1.116-3.754 1.116 7.508 1.116 5.63 1.116 1.877h2.231l1.116-9.384 1.116-7.508 1.116-18.77 1.116 1.878 1.115-13.139h2.232l1.116-1.877 1.116-5.63 1.116 3.753 1.115 5.631h1.116" style="fill:none;stroke:#0072b2;stroke-linecap:round;stroke-width:1.5" id="line2d_4"/><path clip-path="url(#pbf946287cb)" d="M117 340.624h725.4" style="fill:none;stroke:red;stroke-dasharray:1.5,2.475;stroke-dashoffset:0;stroke-width:1.5" id="line2d_5"/><path d="M117 576.72V77.76" style="fill:none;stroke:#d3d3d3;stroke-linecap:square;stroke-linejoin:miter;stroke-width:1.25" id="patch_3"/><path d="M117 576.72h725.4" style="fill:none;stroke:#d3d3d3;stroke-linecap:square;stroke-linejoin:miter;stroke-width:1.25" id="patch_4"/><g id="matplotlib.axis_1"><g id="xtick_1"><g style="fill:#696969" transform="matrix(.16 0 0 -.16 107.513 598.378)" id="text_1"><defs><path d="M9.813 72.906h9.859V5.078q0-13.187-5-19.14-5-5.954-16.094-5.954h-3.75v8.297h3.078q6.531 0 9.219 3.672Q9.813-4.39 9.813 5.078z" id="DejaVuSans-74"/><path d="M34.281 27.484q-10.89 0-15.093-2.484-4.204-2.484-4.204-8.5 0-4.781 3.157-7.594 3.156-2.797 8.562-2.797 7.485 0 12 5.297 4.516 5.297 4.516 14.078v2zm17.922 3.72V0H43.22v8.297Q40.14 3.328 35.547.953q-4.594-2.375-11.234-2.375-8.391 0-13.36 4.719Q6 8.016 6 15.922q0 9.219 6.172 13.906 6.187 4.688 18.437 4.688h12.61v.89q0 6.203-4.078 9.594-4.078 3.39-11.453 3.39-4.688 0-9.141-1.124-4.438-1.125-8.531-3.375v8.312q4.921 1.906 9.562 2.844 4.64.953 9.031.953 11.875 0 17.735-6.156 5.86-6.14 5.86-18.64z" id="DejaVuSans-97"/><path d="M54.89 33.016V0h-8.984v32.719q0 7.765-3.031 11.61-3.031 3.858-9.078 3.858-7.281 0-11.484-4.64-4.204-4.625-4.204-12.64V0H9.08v54.688h9.03v-8.5q3.235 4.937 7.594 7.374Q30.078 56 35.797 56q9.422 0 14.25-5.828 4.844-5.828 4.844-17.156z" id="DejaVuSans-110"/></defs><use xlink:href="#DejaVuSans-74"/><use x="29.492" xlink:href="#DejaVuSans-97"/><use x="90.771" xlink:href="#DejaVuSans-110"/></g></g><g id="xtick_2"><g style="fill:#696969" transform="matrix(.16 0 0 -.16 171.701 598.378)" id="text_2"><defs><path d="M9.813 72.906h14.703l18.593-49.61 18.703 49.61h14.704V0H66.89v64.016l-18.797-50h-9.907l-18.796 50V0H9.813z" id="DejaVuSans-77"/><path d="M41.11 46.297q-1.516.875-3.297 1.281Q36.03 48 33.89 48q-7.625 0-11.703-4.953-4.079-4.953-4.079-14.234V0H9.08v54.688h9.03v-8.5q2.844 4.984 7.375 7.39Q30.031 56 36.531 56q.922 0 2.047-.125 1.125-.11 2.484-.36z" id="DejaVuSans-114"/></defs><use xlink:href="#DejaVuSans-77"/><use x="86.279" xlink:href="#DejaVuSans-97"/><use x="147.559" xlink:href="#DejaVuSans-114"/></g></g><g id="xtick_3"><g style="fill:#696969" transform="matrix(.16 0 0 -.16 238.32 598.378)" id="text_3"><defs><path d="M32.172-5.078q-3.797-9.766-7.422-12.735-3.61-2.984-9.656-2.984H7.906v7.516h5.282q3.703 0 5.75 1.765Q21-9.766 23.483-3.219l1.61 4.094-22.11 53.813H12.5l17.094-42.766 17.093 42.766h9.516z" id="DejaVuSans-121"/></defs><use xlink:href="#DejaVuSans-77"/><use x="86.279" xlink:href="#DejaVuSans-97"/><use x="147.559" xlink:href="#DejaVuSans-121"/></g></g><g id="xtick_4"><g style="fill:#696969" transform="matrix(.16 0 0 -.16 313.274 598.378)" id="text_4"><defs><path d="M8.5 21.578v33.11h8.984V21.922q0-7.766 3.016-11.656 3.031-3.875 9.094-3.875 7.265 0 11.484 4.64 4.234 4.64 4.234 12.656v31h8.985V0h-8.984v8.406Q42.047 3.422 37.718 1q-4.313-2.422-10.032-2.422-9.421 0-14.312 5.86Q8.5 10.296 8.5 21.578zM31.11 56z" id="DejaVuSans-117"/><path d="M9.422 75.984h8.984V0H9.422z" id="DejaVuSans-108"/></defs><use xlink:href="#DejaVuSans-74"/><use x="29.492" xlink:href="#DejaVuSans-117"/><use x="92.871" xlink:href="#DejaVuSans-108"/></g></g><g id="xtick_5"><g style="fill:#696969" transform="matrix(.16 0 0 -.16 377.027 598.378)" id="text_5"><defs><path d="M53.516 70.516V60.89q-5.61 2.687-10.594 4-4.984 1.328-9.625 1.328-8.047 0-12.422-3.125t-4.375-8.89q0-4.845 2.906-7.313 2.907-2.453 11.016-3.97l5.953-1.218q11.031-2.11 16.281-7.406 5.25-5.297 5.25-14.172 0-10.61-7.11-16.078-7.093-5.469-20.812-5.469-5.172 0-11.015 1.172Q13.14.922 6.89 3.219v10.156q6-3.36 11.765-5.078 5.766-1.703 11.328-1.703 8.438 0 13.032 3.312 4.593 3.328 4.593 9.485 0 5.359-3.297 8.39-3.296 3.032-10.812 4.547L27.484 33.5q-11.03 2.188-15.968 6.875-4.922 4.688-4.922 13.047 0 9.672 6.812 15.234 6.813 5.563 18.766 5.563 5.14 0 10.453-.938 5.328-.922 10.89-2.765z" id="DejaVuSans-83"/><path d="M56.203 29.594v-4.39H14.891q.593-9.282 5.593-14.142 5-4.859 13.938-4.859 5.172 0 10.031 1.266 4.86 1.265 9.656 3.812v-8.5Q49.266.734 44.187-.344 39.11-1.422 33.892-1.422q-13.094 0-20.735 7.61-7.64 7.625-7.64 20.625 0 13.421 7.25 21.296Q20.016 56 32.328 56q11.031 0 17.453-7.11 6.422-7.093 6.422-19.296zm-8.984 2.64q-.094 7.36-4.125 11.75-4.032 4.407-10.672 4.407-7.516 0-12.031-4.25-4.516-4.25-5.203-11.97z" id="DejaVuSans-101"/><path d="M18.11 8.203v-29H9.077v75.484h9.031v-8.296q2.844 4.875 7.157 7.234Q29.594 56 35.594 56q9.968 0 16.187-7.906 6.235-7.907 6.235-20.797T51.78 6.484q-6.218-7.906-16.187-7.906-6 0-10.328 2.375-4.313 2.375-7.157 7.25zm30.578 19.094q0 9.906-4.079 15.547-4.078 5.64-11.203 5.64-7.14 0-11.218-5.64-4.079-5.64-4.079-15.547 0-9.906 4.078-15.547 4.079-5.64 11.22-5.64 7.124 0 11.202 5.64t4.078 15.547z" id="DejaVuSans-112"/></defs><use xlink:href="#DejaVuSans-83"/><use x="63.477" xlink:href="#DejaVuSans-101"/><use x="125" xlink:href="#DejaVuSans-112"/></g></g><g id="xtick_6"><g style="fill:#696969" transform="matrix(.16 0 0 -.16 444.558 598.378)" id="text_6"><defs><path d="M9.813 72.906h13.28l32.329-60.984v60.984h9.562V0h-13.28L19.39 60.984V0H9.813z" id="DejaVuSans-78"/><path d="M30.61 48.39q-7.22 0-11.422-5.64-4.204-5.64-4.204-15.453 0-9.813 4.172-15.453 4.188-5.64 11.453-5.64 7.188 0 11.375 5.655 4.203 5.672 4.203 15.438 0 9.719-4.203 15.406-4.187 5.688-11.375 5.688zm0 7.61q11.718 0 18.406-7.625 6.703-7.61 6.703-21.078 0-13.422-6.703-21.078-6.688-7.64-18.407-7.64-11.765 0-18.437 7.64-6.656 7.656-6.656 21.078 0 13.469 6.656 21.078Q18.844 56 30.609 56z" id="DejaVuSans-111"/><path d="M2.984 54.688H12.5L29.594 8.797l17.093 45.89h9.516L35.687 0H23.485z" id="DejaVuSans-118"/></defs><use xlink:href="#DejaVuSans-78"/><use x="74.805" xlink:href="#DejaVuSans-111"/><use x="135.986" xlink:href="#DejaVuSans-118"/></g></g><g id="xtick_7"><g style="fill:#696969" transform="matrix(.16 0 0 -.16 515.906 598.378)" id="text_7"><use xlink:href="#DejaVuSans-74"/><use x="29.492" xlink:href="#DejaVuSans-97"/><use x="90.771" xlink:href="#DejaVuSans-110"/></g></g><g id="xtick_8"><g style="fill:#696969" transform="matrix(.16 0 0 -.16 578.979 598.378)" id="text_8"><use xlink:href="#DejaVuSans-77"/><use x="86.279" xlink:href="#DejaVuSans-97"/><use x="147.559" xlink:href="#DejaVuSans-114"/></g></g><g id="xtick_9"><g style="fill:#696969" transform="matrix(.16 0 0 -.16 645.598 598.378)" id="text_9"><use xlink:href="#DejaVuSans-77"/><use x="86.279" xlink:href="#DejaVuSans-97"/><use x="147.559" xlink:href="#DejaVuSans-121"/></g></g><g id="xtick_10"><g style="fill:#696969" transform="matrix(.16 0 0 -.16 720.551 598.378)" id="text_10"><use xlink:href="#DejaVuSans-74"/><use x="29.492" xlink:href="#DejaVuSans-117"/><use x="92.871" xlink:href="#DejaVuSans-108"/></g></g><g id="xtick_11"><g style="fill:#696969" transform="matrix(.16 0 0 -.16 784.305 598.378)" id="text_11"><use xlink:href="#DejaVuSans-83"/><use x="63.477" xlink:href="#DejaVuSans-101"/><use x="125" xlink:href="#DejaVuSans-112"/></g></g></g><g id="matplotlib.axis_2"><g id="ytick_1"><g style="fill:#696969" transform="matrix(.16 0 0 -.16 73.733 539.083)" id="text_12"><defs><path d="M10.594 35.5h62.593v-8.297H10.594z" id="DejaVuSans-8722"/><path d="M37.797 64.313 12.89 25.39h24.906zm-2.594 8.593H47.61V25.391h10.407v-8.203H47.609V0h-9.812v17.188H4.89v9.515z" id="DejaVuSans-52"/><path d="M31.781 66.406q-7.61 0-11.453-7.5Q16.5 51.422 16.5 36.375q0-14.984 3.828-22.484 3.844-7.5 11.453-7.5 7.672 0 11.5 7.5 3.844 7.5 3.844 22.484 0 15.047-3.844 22.531-3.828 7.5-11.5 7.5zm0 7.813q12.266 0 18.735-9.703 6.468-9.688 6.468-28.141 0-18.406-6.468-28.11-6.47-9.687-18.735-9.687-12.25 0-18.718 9.688-6.47 9.703-6.47 28.109 0 18.453 6.47 28.14Q19.53 74.22 31.78 74.22z" id="DejaVuSans-48"/></defs><use xlink:href="#DejaVuSans-8722"/><use x="83.789" xlink:href="#DejaVuSans-52"/><use x="147.412" xlink:href="#DejaVuSans-48"/></g></g><g id="ytick_2"><g style="fill:#696969" transform="matrix(.16 0 0 -.16 73.733 442.893)" id="text_13"><defs><path d="M19.188 8.297h34.421V0H7.33v8.297q5.609 5.812 15.296 15.594 9.703 9.797 12.188 12.64 4.734 5.313 6.609 9 1.89 3.688 1.89 7.25 0 5.813-4.078 9.469-4.078 3.672-10.625 3.672-4.64 0-9.797-1.61-5.14-1.609-11-4.89v9.969Q13.767 71.78 18.938 73q5.188 1.219 9.485 1.219 11.328 0 18.062-5.672 6.735-5.656 6.735-15.125 0-4.5-1.688-8.531-1.672-4.016-6.125-9.485-1.218-1.422-7.765-8.187-6.532-6.766-18.453-18.922z" id="DejaVuSans-50"/></defs><use xlink:href="#DejaVuSans-8722"/><use x="83.789" xlink:href="#DejaVuSans-50"/><use x="147.412" xlink:href="#DejaVuSans-48"/></g></g><g id="ytick_3"><use xlink:href="#DejaVuSans-48" style="fill:#696969" transform="matrix(.16 0 0 -.16 97.32 346.703)" id="text_14"/></g><g id="ytick_4"><g style="fill:#696969" transform="matrix(.16 0 0 -.16 87.14 250.513)" id="text_15"><use xlink:href="#DejaVuSans-50"/><use x="63.623" xlink:href="#DejaVuSans-48"/></g></g><g id="ytick_5"><g style="fill:#696969" transform="matrix(.16 0 0 -.16 87.14 154.324)" id="text_16"><use xlink:href="#DejaVuSans-52"/><use x="63.623" xlink:href="#DejaVuSans-48"/></g></g><g style="fill:#696969" transform="matrix(0 -.2 -.2 0 65.573 379.813)" id="text_17"><defs><path d="M51.125 44H36.922l-4.11-16.313h14.313zm-7.328 27.781-5.078-20.265h14.265L58.11 71.78h7.813L60.89 51.516h15.234V44h-17.14l-4-16.313h15.53V20.22H53.079L48 0h-7.813l5.032 20.219H30.906L25.875 0h-7.86l5.079 20.219H7.719v7.468h17.187L29 44H13.281v7.516h17.625l4.985 20.265z" id="DejaVuSans-35"/><path d="M37.11 75.984V68.5h-8.594q-4.828 0-6.72-1.953-1.874-1.953-1.874-7.031v-4.828h14.797v-6.985H19.922V0H10.89v47.703H2.297v6.984h8.594V58.5q0 9.125 4.25 13.297 4.25 4.187 13.468 4.187z" id="DejaVuSans-102"/><path d="M48.781 52.594v-8.407q-3.812 2.11-7.64 3.157-3.828 1.047-7.735 1.047-8.75 0-13.593-5.547-4.829-5.532-4.829-15.547 0-10.016 4.829-15.563 4.843-5.53 13.593-5.53 3.907 0 7.735 1.046 3.828 1.047 7.64 3.156V2.094Q45.016.344 40.984-.531q-4.015-.89-8.562-.89-12.36 0-19.64 7.765-7.266 7.765-7.266 20.953 0 13.375 7.343 21.031Q20.22 56 33.016 56q4.14 0 8.093-.86 3.953-.843 7.672-2.546z" id="DejaVuSans-99"/><path d="M44.281 53.078v-8.5q-3.797 1.953-7.906 2.922-4.094.984-8.5.984-6.688 0-10.031-2.047-3.344-2.046-3.344-6.156 0-3.125 2.39-4.906 2.391-1.781 9.626-3.39l3.078-.688q9.562-2.047 13.593-5.781 4.032-3.735 4.032-10.422 0-7.625-6.032-12.078-6.03-4.438-16.578-4.438-4.39 0-9.156.86Q10.688.296 5.422 2v9.281q4.984-2.594 9.812-3.89 4.829-1.282 9.579-1.282 6.343 0 9.75 2.172 3.421 2.172 3.421 6.125 0 3.656-2.468 5.61-2.453 1.953-10.813 3.765l-3.125.735q-8.344 1.75-12.062 5.39-3.704 3.64-3.704 9.985 0 7.718 5.47 11.906Q16.75 56 26.811 56q4.97 0 9.36-.734 4.406-.72 8.11-2.188z" id="DejaVuSans-115"/></defs><use xlink:href="#DejaVuSans-35"/><use x="83.789" xlink:href="#DejaVuSans-32"/><use x="115.576" xlink:href="#DejaVuSans-111"/><use x="176.758" xlink:href="#DejaVuSans-102"/><use x="211.963" xlink:href="#DejaVuSans-32"/><use x="243.75" xlink:href="#DejaVuSans-99"/><use x="298.73" xlink:href="#DejaVuSans-97"/><use x="360.01" xlink:href="#DejaVuSans-115"/><use x="412.109" xlink:href="#DejaVuSans-101"/><use x="473.633" xlink:href="#DejaVuSans-115"/></g></g><g style="fill:#696969" transform="matrix(.24 0 0 -.24 261.11 71.76)" id="text_18"><defs><path d="M4.203 54.688h8.985l11.234-42.672 11.172 42.672h10.593l11.235-42.672 11.187 42.672h8.985L63.28 0H52.688L40.922 44.828 29.109 0H18.5z" id="DejaVuSans-119"/><path d="M64.406 67.281v-10.39q-4.984 4.64-10.625 6.922-5.64 2.296-11.984 2.296-12.5 0-19.14-7.64-6.641-7.64-6.641-22.094 0-14.406 6.64-22.047 6.64-7.64 19.14-7.64 6.345 0 11.985 2.296 5.64 2.297 10.625 6.938V5.609Q59.234 2.094 53.437.33q-5.78-1.75-12.218-1.75-16.563 0-26.094 10.124-9.516 10.14-9.516 27.672 0 17.578 9.516 27.703 9.531 10.14 26.094 10.14 6.531 0 12.312-1.734 5.797-1.734 10.875-5.203z" id="DejaVuSans-67"/><path d="M3.328 72.906h9.953L28.61 11.281l15.282 61.625h11.093l15.328-61.625 15.282 61.625h10.015L77.297 0H64.89L49.516 63.281 33.984 0H21.578z" id="DejaVuSans-87"/><path d="M9.078 75.984h9.031V31.11l26.813 23.578H56.39l-29-25.578L57.625 0H45.906L18.11 26.703V0H9.08z" id="DejaVuSans-107"/><path d="M4.89 31.39h26.313v-8H4.891z" id="DejaVuSans-45"/><path d="M11.719 12.406h10.297V0H11.719zm0 39.297h10.297v-12.39H11.719z" id="DejaVuSans-58"/><path d="M12.406 8.297h16.11v55.625l-17.532-3.516v8.985l17.438 3.515h9.86V8.296H54.39V0H12.406z" id="DejaVuSans-49"/><path d="M45.406 27.984q0 9.766-4.031 15.125-4.016 5.375-11.297 5.375-7.219 0-11.25-5.375-4.031-5.359-4.031-15.125 0-9.718 4.031-15.093t11.25-5.375q7.281 0 11.297 5.375 4.031 5.375 4.031 15.093zm8.985-21.203q0-13.953-6.203-20.765Q42-20.797 29.203-20.797q-4.734 0-8.937.703-4.203.703-8.157 2.172v8.735q3.954-2.141 7.813-3.157 3.86-1.031 7.86-1.031 8.843 0 13.234 4.61 4.39 4.609 4.39 13.937v4.453q-2.781-4.844-7.125-7.234Q33.938 0 27.875 0 17.828 0 11.672 7.656q-6.156 7.672-6.156 20.328 0 12.688 6.156 20.344Q17.828 56 27.875 56q6.063 0 10.406-2.39 4.344-2.391 7.125-7.22v8.297h8.985z" id="DejaVuSans-103"/></defs><use xlink:href="#DejaVuSans-78"/><use x="74.805" xlink:href="#DejaVuSans-101"/><use x="136.328" xlink:href="#DejaVuSans-119"/><use x="218.115" xlink:href="#DejaVuSans-32"/><use x="249.902" xlink:href="#DejaVuSans-67"/><use x="319.727" xlink:href="#DejaVuSans-97"/><use x="381.006" xlink:href="#DejaVuSans-115"/><use x="433.105" xlink:href="#DejaVuSans-101"/><use x="494.629" xlink:href="#DejaVuSans-115"/><use x="546.729" xlink:href="#DejaVuSans-32"/><use x="578.516" xlink:href="#DejaVuSans-87"/><use x="671.518" xlink:href="#DejaVuSans-101"/><use x="733.041" xlink:href="#DejaVuSans-101"/><use x="794.564" xlink:href="#DejaVuSans-107"/><use x="852.475" xlink:href="#DejaVuSans-45"/><use x="890.434" xlink:href="#DejaVuSans-111"/><use x="951.615" xlink:href="#DejaVuSans-118"/><use x="1010.795" xlink:href="#DejaVuSans-101"/><use x="1072.318" xlink:href="#DejaVuSans-114"/><use x="1107.057" xlink:href="#DejaVuSans-45"/><use x="1139.141" xlink:href="#DejaVuSans-87"/><use x="1232.143" xlink:href="#DejaVuSans-101"/><use x="1293.666" xlink:href="#DejaVuSans-101"/><use x="1355.189" xlink:href="#DejaVuSans-107"/><use x="1413.1" xlink:href="#DejaVuSans-58"/><use x="1446.791" xlink:href="#DejaVuSans-32"/><use x="1478.578" xlink:href="#DejaVuSans-49"/><use x="1542.201" xlink:href="#DejaVuSans-52"/><use x="1605.824" xlink:href="#DejaVuSans-32"/><use x="1637.611" xlink:href="#DejaVuSans-97"/><use x="1698.891" xlink:href="#DejaVuSans-118"/><use x="1758.07" xlink:href="#DejaVuSans-103"/></g><g id="legend_1"><path d="M694.75 184.5H831.2q3.2 0 3.2-3.2V88.96q0-3.2-3.2-3.2H694.75q-3.2 0-3.2 3.2v92.34q0 3.2 3.2 3.2z" style="fill:none;opacity:.8;stroke:#ccc;stroke-linejoin:miter" id="patch_5"/><path d="M697.95 98.718h32" style="fill:none;stroke:#000;stroke-linecap:round;stroke-width:1.5" id="line2d_6"/><g style="fill:#696969" transform="matrix(.16 0 0 -.16 742.75 104.317)" id="text_19"><defs><path d="M8.688 72.906h9.921V28.61q0-11.718 4.235-16.875 4.25-5.14 13.781-5.14 9.469 0 13.719 5.14 4.25 5.157 4.25 16.875v44.297H64.5V27.391q0-14.25-7.063-21.532-7.046-7.28-20.812-7.28-13.828 0-20.89 7.28-7.047 7.282-7.047 21.532z" id="DejaVuSans-85"/></defs><use xlink:href="#DejaVuSans-85"/><use x="73.193" xlink:href="#DejaVuSans-83"/></g><path d="M697.95 122.203h32" style="fill:none;stroke:#009e73;stroke-linecap:round;stroke-width:1.5" id="line2d_8"/><g style="fill:#696969" transform="matrix(.16 0 0 -.16 742.75 127.802)" id="text_20"><use xlink:href="#DejaVuSans-78"/><use x="74.805" xlink:href="#DejaVuSans-74"/></g><path d="M697.95 145.688h32" style="fill:none;stroke:#d55e00;stroke-linecap:round;stroke-width:1.5" id="line2d_10"/><g style="fill:#696969" transform="matrix(.16 0 0 -.16 742.75 151.287)" id="text_21"><defs><path d="M19.672 34.813V8.108H35.5q7.953 0 11.781 3.297 3.844 3.297 3.844 10.078 0 6.844-3.844 10.078-3.828 3.25-11.781 3.25zm0 29.984V42.828h14.61q7.218 0 10.75 2.703 3.546 2.719 3.546 8.282 0 5.515-3.547 8.25-3.531 2.734-10.75 2.734zm-9.86 8.11h25.204q11.28 0 17.375-4.688Q58.5 63.53 58.5 54.89q0-6.703-3.125-10.657-3.125-3.953-9.188-4.922 7.282-1.562 11.313-6.53 4.031-4.954 4.031-12.376 0-9.765-6.64-15.093Q48.25 0 35.984 0H9.812z" id="DejaVuSans-66"/></defs><use xlink:href="#DejaVuSans-66"/><use x="68.604" xlink:href="#DejaVuSans-101"/><use x="130.127" xlink:href="#DejaVuSans-114"/><use x="169.49" xlink:href="#DejaVuSans-103"/><use x="232.967" xlink:href="#DejaVuSans-101"/><use x="294.49" xlink:href="#DejaVuSans-110"/></g><path d="M697.95 169.173h32" style="fill:none;stroke:#0072b2;stroke-linecap:round;stroke-width:1.5" id="line2d_12"/><g style="fill:#696969" transform="matrix(.16 0 0 -.16 742.75 174.773)" id="text_22"><defs><path d="M44.39 34.188q3.172-1.079 6.172-4.594 3-3.516 6.032-9.672L66.609 0H56l-9.313 18.703q-3.624 7.328-7.015 9.719-3.39 2.39-9.25 2.39h-10.75V0h-9.86v72.906h22.266q12.5 0 18.656-5.234 6.157-5.219 6.157-15.766 0-6.89-3.203-11.437-3.204-4.532-9.297-6.282zM19.673 64.797V38.922h12.406q7.125 0 10.766 3.297 3.64 3.297 3.64 9.687 0 6.39-3.64 9.64-3.64 3.25-10.766 3.25z" id="DejaVuSans-82"/><path d="M18.313 70.219V54.688h18.5v-6.985h-18.5V18.016q0-6.688 1.828-8.594 1.828-1.906 7.453-1.906h9.218V0h-9.218q-10.407 0-14.36 3.875-3.953 3.89-3.953 14.14v29.688H2.687v6.984h6.594V70.22z" id="DejaVuSans-116"/><path d="M54.89 33.016V0h-8.984v32.719q0 7.765-3.031 11.61-3.031 3.858-9.078 3.858-7.281 0-11.484-4.64-4.204-4.625-4.204-12.64V0H9.08v75.984h9.03V46.188q3.235 4.937 7.594 7.374Q30.078 56 35.797 56q9.422 0 14.25-5.828 4.844-5.828 4.844-17.156z" id="DejaVuSans-104"/><path d="M45.406 46.39v29.594h8.985V0h-8.985v8.203Q42.578 3.328 38.25.953q-4.313-2.375-10.375-2.375-9.906 0-16.14 7.906-6.22 7.922-6.22 20.813 0 12.89 6.22 20.797Q17.968 56 27.874 56q6.063 0 10.375-2.375 4.328-2.36 7.156-7.234zm-30.61-19.093q0-9.906 4.079-15.547 4.078-5.64 11.203-5.64 7.125 0 11.219 5.64 4.11 5.64 4.11 15.547 0 9.906-4.11 15.547-4.094 5.64-11.219 5.64-7.125 0-11.203-5.64-4.078-5.64-4.078-15.547z" id="DejaVuSans-100"/></defs><use xlink:href="#DejaVuSans-82"/><use x="64.982" xlink:href="#DejaVuSans-117"/><use x="128.361" xlink:href="#DejaVuSans-116"/><use x="167.57" xlink:href="#DejaVuSans-104"/><use x="230.949" xlink:href="#DejaVuSans-101"/><use x="292.473" xlink:href="#DejaVuSans-114"/><use x="333.586" xlink:href="#DejaVuSans-102"/><use x="368.791" xlink:href="#DejaVuSans-111"/><use x="429.973" xlink:href="#DejaVuSans-114"/><use x="469.336" xlink:href="#DejaVuSans-100"/></g></g></g></g><defs><clipPath id="pbf946287cb"><path d="M117 77.76h725.4v498.96H117z"/></clipPath></defs></svg>