<svg height="864" viewBox="0 0 936 648" width="1248" xmlns="http://www.w3.org/2000/svg" xmlns:xlink="http://www.w3.org/1999/xlink"><defs><style>*{stroke-linecap:butt;stroke-linejoin:round}</style></defs><g id="figure_1"><path d="M0 648h936V0H0z" style="fill:#fff" id="patch_1"/><g id="axes_1"><path d="M117 576.72h725.4V77.76H117z" style="fill:none" id="patch_2"/><path clip-path="url(#p3188318dfe)" d="m149.973 332.282 47.168-.125 3.629-.203 1.814-.43 1.814-.731 2.721-1.655 1.815-1.151.907-.502.907-.353 1.814-.333.907-.168 1.814-.095.907-.09 1.814.257.908.32 1.814 1.005.907.704.907 1.02 2.721 2.194 1.814 1.008.907.366 1.815.207.907-.113.907-.301 1.814-.29.907-.407.907-.539.907-.41 2.722.29.907.218.907.443.907.619.907.422 4.535-.123 1.815.266.907.272 1.814.174.907.031 1.814-.443.907-.259.907-.426 1.814-.457.908-.182 3.628.144 2.721.75.907-.04.907-.186 1.815-.236 2.72-.879.908-.187.907-.046.907.151 1.814.636.907.074.907-.134 1.815.28 1.814-.47.907-.445.907-.261.907-.105 4.536-2.043.907-.412 2.72-1.544.908-.31 2.721-.365.907-.095.907.058.908.184 5.442 2.078.907-.08 1.814-.816.907-.4.908-.17.907-.355.907-.101 1.814 1.14 4.535 3.986.907-.082 1.815.702.907.028.907.202 1.814.07.907.696 1.814.522 3.629 2.292.907-.158 1.814-.717 3.628-2.597.907-.11.907.227.907.436 2.722 1.874 1.814.762.907.153.907-.296 3.628-2.45 1.815-.961 1.814-.203.907.204.907.456 1.814-.498.907.211.907.39.907.893.908.203.907-.152.907.626.907.355.907-.195.907-.973.907-1.58.907-.994 1.814-1.373.907-.382 1.815-.377.907.188.907.514.907.36.907.097.907-.083.907.127.907 1.231.907.898.907-.207.908.015 1.814.257.907-.034 1.814-2.447.907-.108 1.814-1.12.907-.169.907-.35 1.815 1.78.907-.268.907.167 1.814-.277.907.306 1.814-1.687.907.254.907.053.908-.135.907-.915.907-1.091 1.814.004 1.814-1.301.907-.18 1.814 1.24 2.722-1.306.907-.773.907-1.094 1.814-3.437.907-1.039.907-1.513.907-1.238.907-.66.907-.892.908-.232.907.198.907-.072.907.841.907 1.007.907.778 3.628 6.425 1.814 1.81 1.815 8.101 1.814 2.856 1.814 2.291.907-.079 1.814-14.012.907-3.048.907-3.763 1.815-5.458.907-.884.907 3.567.907 2.73.907.942.907 2.48.907 2.088.907 3.021.907 1.484.907-.377.908 2.398.907 3.065.907 1.046.907.403.907-.63.907.885.907 3.227.907 5.797.907 2.753.907-.427.907 1.196.908.4.907-.626.907-3.262 1.814-17.189.907-4.22.907-4.989.907-3.587.907-1.972.907-1.228.907-3.884.908.235.907 5.145 1.814 8.449.907 3.024.907 4.693.907 9.94.907 7.328.907 1.786 1.814 6.595.908 1.801.907.83.907-.144.907-.917.907-.432 1.814-6.715.907-.68.907-1.269.907-1.503 1.815-1.508.907.184.907.954.907.162 1.814 1.517 1.814.27.907 1.462.907.575 2.722-2.728 2.72-1.29.908.059 1.814.85.907.182.907-.444.907-.662.908-1.854.907-2.647 2.72-6.486.908-.973.907-.398.907.086 2.721 2.943.908.966.907.39.907.184.907-1.11.907-1.734.907-.381.907-.16.907-.547 1.814-.587 1.815 4.608 1.814-.707.907-.032 1.814-.654.907-1.083.907-1.256.907-.778 1.814-1.918 1.815-1.121.907-1.064.907-.71 1.814 2.062 2.721 2.084.907.92.907.519 2.722-1.233 1.814-1.048 2.721-.866.907.408 2.721 2.716.908.481.907.936.907 1.552.907.542.907.393.907.126.907-.204.907.734.907.46.907-.416.907-.142 1.815-.493.907-.05.907-.96.907-.775 2.721.484 1.814.649.907.631.908.391 3.628-.734 2.721-.74 1.814-.204.907.164.908.378.907.1 1.814-.384.907-.08.907-.268 1.814-.682.907.006.907.675.907.385.908-.119.907.246.907 1.483.907 1.09.907-.362.907-1.288.907-.848.907-.072.907-.488 1.814-5.784.908-.029.907.534.907.399.907.13.907.326 1.814 2.885.907.061.907-.055 1.814-.566 1.815-.8.907-.205 3.628-.322 1.814-3.298.907-.039.907.104.908.387.907.075.907-.675 1.814 3.598.907-.521.907-.338 1.814-2.998 1.814.188 1.815-.242.907-.058 1.814.323.907-.56 1.814-3.695.907-.601.907-.189.907-.373.907-1.164.908-.947.907-.22.907-.395.907-.252.907-.105.907-.439.907-.26 2.721-.034 1.815-.613.907-.116.907 1.053.907.518.907.036.907 1.422.907 1.023.907.33.907-1.071.907-.285.907 2.082.908.812.907-.08.907-.492.907-.355.907 2.78.907 1.646.907-.685.907-.139.907.292.907 1.293.907.616 1.815-.79.907-1.236.907.207.907 1.332 1.814 1.639.907 7.082.907 2.835.907-2.088.907 1.956.908.123 1.814-1.185.907-13.198.907-3.988.907 9.025.907-.073 1.814.412.907.273.907 9.129.908 5.197.907-3.819.907.654 1.814 1.87.907.553.907-1.873.907-2.272.907-.32.907-.623.907-.915.908-.715.907-.214.907.372.907.222 1.814-1.161 1.814-.134.907-.199.907.697.907-.026.908-.355.907.733.907.233.907-.051.907-.164.907-1.608.907-.212.907 1.351.907-.29.907-.408.907-.104.908.134.907.62.907-.55.907-1.94.907-1.277.907-.782.907-.522.907-.331.907-1.381.907-.694.907 1.04.908.814.907.187 1.814-.292.907.513.907.02.907-1.32.907-.279.907-.625.907-2.006.907-.824 1.815-1.316.907-.084.907-2.129.907-.55.907 3.168.907 1.421.907.185 1.814 1.047.907 4.401.907 5.99.908 1.778.907.366.907-1.043.907-2.003.907-.918.907-6.565.907-11.656.907-7.17.907-2.216.907 1.9.907 2.876.908.702.907 4.333.907 6.95.907 4.25.907 1.602.907-.505.907-.733.907.5.907-.8.907-1.015.907-.796.908-2.142.907-4.208 1.814-10.975.907-6.47.907-3.431.907 1.075.907-1.278.907-7.237 1.814-17.13.908-11.354.907-14.675.907-12.04.907-3.26.907-6.999.907-17.908.907-9.256.907 5.746.907-1.474.907-12.184.907-3.732.908 4.192 1.814 43.783.907 3.21.907 15.662.907 23.919.907 10.41.907 37.317.907 56.885h0" style="fill:none;stroke:#000;stroke-linecap:round;stroke-width:1.5" id="line2d_1"/><path clip-path="url(#p3188318dfe)" d="m149.973 332.28 46.261-.08 2.722-.21 1.814-.458 2.721-1.652.907-1.114 2.721-4.596.907-2.751 1.815-7.964 1.814-6.235.907-2.362.907-3.321.907-1.157.907.89.907-.772.907.596.907 3.076.908 2.349.907 4.02 1.814 9.264.907 6.87.907 4.096.907 2.396.907 1.855.907.759.907-.2.907-.934.908-.469.907.097.907-1.793.907-.059.907-.62.907-1.48.907 1.68 1.814-1.072 1.814 6.096.908 3.13.907 4.722.907.36.907-.12.907 1.563.907-.733.907-1.567.907-.637.907-1.268.907-.052 1.815 2.814 2.72 2.17.908-.812.907-.172.907-.663 2.721-6.893.907-3.317.908-1.905.907-1.44.907-.376.907.416.907 1.269 1.814 3.746.907 1.092.907.096.907-1.103.907-1.399.908-.342.907-.674.907-.528.907.793.907 1.018.907.713.907 1.132 1.814-.017.907-.102.907-1.328.908-.6.907.173 1.814-1.522.907-.46.907-.062.907.45 1.814-1.13.907-.047 1.815-.39.907-.152 1.814-4.525 1.814-.042.907.32.907.185.907-.364 1.814 8.132 1.815-.193.907-.435.907-.118.907.38 1.814-3.52 1.814.047.907.234.907-.18 1.815-.892.907.108 4.535 2.338.907.2.907-.896.907-1.247 1.815-2.946.907-.727.907-.526.907-.107.907.28.907.688 1.814 2.76.907.93.907.601.907-.031 1.815.932 2.72-1.363 1.815-.889.907-.786.907-.544.907.534.907.355.908.17.907.537.907 1.304.907 1.602.907.18.907-.974.907-.391.907.068.907-.158.907-.977.907-1.34.908.1.907.51 2.72-.842.908-.023.907.136.907-.216.907-.04 1.814.587 1.815.25.907.11 3.628-.497.907-.304 1.814-.272.907.15.908-.07.907-.273.907.136 1.814.489.907.123 2.721-1.073.907-.18 1.815-.794.907-.224.907-.047.907.493.907.642.907.086.907.43.907-.163.907-.684.907.419.907.1 1.815-.477.907-.983.907.461.907 1.436.907.033.907-.666.907-1.403.907-.49.907.842.907-.216.908-.975.907-1.44.907-.284.907 1.65.907.049.907-1.457.907-.9.907-1.076 1.814 1.912.907-1.07 1.815.847.907-.19.907.872.907-1.977.907-2.462.907-.234.907-2.79.907-1.96.907-1.166.907-2.616.908-.438 1.814-3.971.907 2.693.907 1.612.907.57 1.814 4.45.907 4.74.907 2.283.907-1.448.907 1.187.908 1.668.907.191.907 1.138.907.894.907 1.583.907 2.015 1.814-.71.907-1.36.907-4.207.907-5.68.908-3.719.907-1.571.907-.549.907.093.907 4.31 2.721 14.55.907 1.831.907 1.57.907.138.908-1.287.907.852.907.082.907-.042.907.862.907-.02.907.983.907-2.691.907-3.347.907 2.435.907 3.227.908.462.907.943.907-.897.907.94.907-1.182.907-7.127 1.814-127.001.907-5.762 1.814-7.581.908-1.77.907-1.222 1.814 231.389.907 4.092.907 2.265 1.814 12.583.907 6.992 1.814-105.856.908 3.311.907 7.384.907 3.818.907-1.269.907-3.868.907-2.918 1.814-4.583.907-4.284.907-6.865.907-1.12.908 4.997.907 2.458.907 3.247.907 4.396.907 3.648.907 5.667.907 2.936.907-2.579.907-.846.907-2.083 1.815-15.67.907-3.721.907-1.535 1.814 5.507.907.643.907 3.245.907 3.7.907 1.13.907.38.907-2.292.908-5.309.907-2.224.907 1.52.907.062.907-2.638.907-4.396.907-3.174.907.392.907.259.907-2.617.907-1.065.908 2.02.907 3.213.907 2.29.907 1.811.907.684.907-.262.907-.62.907-2.04 1.814-2.973.907-2.424.908-.125.907.956.907-.59.907.367.907-.67.907-.042.907 1.264.907-1.578.907-.895.907 2.338.907.187.907.307.908-.066.907-1.784.907 1.055.907 1.48.907-2.387.907.102.907 2.72.907 2.35.907 3.897.907 3.004.907.278.908 2.338.907 2.66.907-.131.907.404.907-.874.907-2.217.907-.183.907.469.907-1.672.907-2.041.907-1.623.908-.287.907 1.562.907.925.907-.38.907 2.422.907 3.856.907 3.23.907 14.607.907 12.657.907 1.057.907 1.898.908-.328.907-.621.907-1.09 1.814-51.745.907-1.66.907-2.337.907-.291.907-.413.907.13 1.815 25.717.907 2.152.907 3.153.907-.11.907-1.425 2.721-6.143.907-3.049.907-3.762.907-2.521.908-.855.907.195.907.41.907.943 1.814.789.907 1.224.907.687.907-.07.907-.306.907-.441 1.815.08.907-.563.907-.77.907-.295.907.08.907-.222 1.814-.613.907-.154 1.815.525 1.814-.092.907-.247.907-.028.907.186 1.814-.104 2.721.657.908-.029 1.814-.47 2.721-.494.907.058 1.814.429 1.814.383 1.815.289.907-.121 4.535-2.042.907-.564.907-.328 1.815-.007 1.814-.26.907.069.907-.065 1.814-.935.907-.608.907-.474 1.814-.28.907.057.908.295.907.065 1.814.446.907-.209.907-.376.907-.64.907-.502 2.721-.264.908.066.907.561.907.696.907.035.907-.209.907-.325.907-1.133.907-.641 1.814-.796 1.815 1.536.907-.456.907 1.005.907 1.64.907.063.907.336 1.814-.721.907 1.905.907 1.522.907-.49 1.815.499.907.037.907-.229 1.814.029 1.814-.03.907 1.792.907 1.206.907-.271.908-1.165.907-2.072.907-.243.907.7.907-3.147.907-1.23.907 1.638.907.168.907 1.61.907.228.907-.499.908 1.294.907.312.907.187.907 1.57.907.441 1.814 3.355 1.814 2.147 1.814-.853.908.404.907-1.487.907-2.043.907-.709.907-.296.907.154.907-.509.907-1.147.907.209.907.897.907.175.908-.33.907.153 2.72 3.115.908.495.907.354.907 1.124.907.334.907-1.286.907-1.053.908-.593.907-.954.907-1.208 1.814-3.56.907.067.907.387.907-1.132.907-.289 1.814 1.759.908 1.365.907.578.907-.678 1.814 1.445.907-.796.907-1.01 1.814-2.712.907-.505.907-1.358.908-1.861.907-.61.907.006 2.721-1.112.907.66.907 1.451.907-.358.907-.694.907.388.907.947.908 1.547.907.487.907-1.065.907-.273.907-.519.907-2.355.907-4.399.907-6.086.907-4.816.907-1.7 1.815-.381.907.441.907 2.14 1.814 8.544.907 2.097 1.814 1.57.907-.136.907-1.67.907-4.583 1.815-15.323.907-8.655.907-11.862.907-18.668 1.814-44.986.907-14.592.907-2.572.907-1.765.907-12.414.908-16.647.907-11.328.907-5.2.907-7.902.907-17.913.907-20.519.907-4.685.907 28.605.907 36.192 2.722 80.088.907 35.315.907 52.35.907 36.786.907 31.079.907 43.704 1.814 74.414.907 30.227h0" style="fill:none;stroke:#009e73;stroke-linecap:round;stroke-width:1.5" id="line2d_2"/><path clip-path="url(#p3188318dfe)" d="m149.973 332.28 42.633-.103 3.628-.127 2.722-.632.907-.528.907-.701 1.814-4.62.907-.344.907-.988.907-2.172.907-1.643 1.814-1.804.908-3.149.907-5.975.907-5.16.907-2.068.907-3.493.907-7.63.907-4.516.907-2.401.907-5.309.907-1.24.907-.702.908-1.264.907 9.216 1.814 23.774.907 19.201.907 12.893.907 9.537.907 15.053.907 2.942.907-6.355.907-3.206 1.815-8.756.907-5.63.907-8.951.907-2.011.907 5.32.907 3.436.907-2.298.907 1.08.907 6.894.907 5.814.908 2.896.907.506.907-.517.907 2.987.907.84 1.814-9.7.907-2.63.907-1.425.907-1.126.907-1.793.908-1.287.907.299.907 1.172.907.138 1.814-1.16.907-1.61 1.814-1.77.907-1.286.907-.61 1.815-5.354.907.598 1.814-.805.907.012.907-1.448.907-.712.907.287.907-.563.907 1 .908 1.861 1.814 2.379.907 2.918.907 2.046.907-.724 3.628-4.597.907-2.194.908-1.172.907.333.907-.299.907-.482.907-.253.907 1.195.907 1.942.907.298.907.472.907.666.907-.011.908.528.907-.333 1.814-9.64.907-1.15.907-.908.907-.7 1.814-.736.907 7.182.907 8.457.908.93.907.506.907.759.907.321.907.035 1.814-8.446.907-.092 1.814 1.08.907-.034.908.597.907 1.425.907 1.011.907.403.907-.219 2.721-2.114 1.814-2.24 1.814-1.805.908-.253 1.814-.252.907.574 1.814.15 3.628 2.999.907-.07.908.506.907.265.907-.759.907-.528 1.814-.196.907-.276.907-1.493.907-1.126.907.16 1.815-1.413.907.38.907 1.562.907 3.31.907 2.562.907 1.494.907 2.344.907.884.907-1.16 1.814-5.39 1.815-3.079.907-1.896.907-.896.907.54.907 1.16 1.814.989.907.988.907.724.907 1.046.908.494.907.115.907.356 1.814-1.115.907-.207.907-.333.907-.138 1.814-1.022 1.815-.115.907.08 1.814-1.597 1.814 1.632.907.183.907-.206.907-.368 1.814 1.379.908-.988.907-1.172.907-.61h.907l.907.207 1.814-.988.907.253.907.414.907.218.907-.172 1.815-.655.907-.38.907-.114.907.103.907.448.907.16.907-.689h.907l.907.173.907-.195.908.091.907-1.103.907-.827.907.666.907-.046.907.368.907.598.907-1.575.907-.126.907.873.907-.425.908.035.907-1.471.907-.965.907 2.068.907-1.172.907-2.62.907.414.907-.61.907-.919.907-3.642.907-5.4 1.815.218.907-2.379.907-.333.907.356.907 3.034.907 4.814.907 1.69.907 2.148.907.368.907-.15.907 3.919.908 2.941.907-1.815.907.816 1.814 4.768.907 1.598.907-3.792.907-3.045.907.344.907-4.539.907-5.538.908-1.138.907.563 1.814 8.469.907 6.389.907 7.825.907 5.78.907 2.321.907-.678 1.814-6.917.908-5.24.907-2.792.907.218.907.368.907 1.942.907.85.907-.437.907-1 .907-.689.907.23.907-.069.908-1.425 1.814 2.436.907.333.907-2.045.907-4.688 1.814-106.772.907-6.837.907-3.424.907-2.563 1.815-4.194 1.814 203.306.907 7.733.907 1.23.907 3.918 1.814 11.295.907-44.653.907-52.662.908-1.31.907 7.228.907 5.228.907-.368 1.814-4.78.907.08.907.817.907-3.804.907-6.641.907-.966.908 3.643.907 1.379.907 2.114L493.76 345l.907 2.08.907-.241.907-1.953.907.379.907-.701 1.815-14.433.907.828 1.814 4.47.907 2.263.907-1.907.907 1.448.907 3.7.907-.425.907-.563.907-1.61.908-5.434.907-.471.907 2.378.907-2.574 1.814-10.008.907-2.287.907.345.907-.058.907-2.32.907 1.068.908 5.596.907 6.596.907 2.7.907 3.585.907 2.873.907 1.08.907.011.907-3.045.907-5.079.907-4.182.907-3.103.908-1.712 1.814-.7.907.55.907-.597.907 1.448.907 1.23.907-.472.907.678.907 2.413 1.814-.689.908-1.321.907-1.965.907.425.907-1.758.907-5.09.907 1.585.907 5.964.907 5.102.907 4.332.907 2.746.907 4.194.908 5.228.907 2.344.907-.114.907-.483.907-.644.907-1.01.907-.449.907.414.907-2.39.907-3.01.907-.932 1.815.701.907-.586.907-1.103.907 2.069.907 2.953 1.814 1.7.907.908.907.735.907 1.196.908-.816.907-.38.907.598.907-2.976.907-2.54.907-13.88.907-17.122.907-2.792.907-1.16.907-1.839 1.815 1.827.907 25.98.907 32.692.907 5.274.907-1.298.907-.563.907-.724.907-.874.907-13.582.907-17.213.907-3.918.908.643.907.816.907.322.907-.172 1.814-1.793.907.034.907-.218.907-.643.907-.023.907.528.908.793.907.62.907-.068 1.814-1.437 1.814-1.034 1.814-1.46.907-.47.907.413.908.575.907.046 1.814-.345 1.814.632 1.814-.103.907.287.907.437.907.115 1.815-.954.907-.23 2.721-.954.907.058.907.597.907.368.907.08 3.629 1.644.907.126.907-.012.907.115 1.814-1.08.907-.666.907-1.103.907-.747.908-.598.907-.747.907-.057 1.814.287.907.506.907-.035.907-.551.907-.333.907-.46 2.722-2.045.907-.426 1.814 1.058.907.023.907.264.907.115.907.321.907.908 1.814.46 1.815 1.976.907.288.907-.701.907-1.368.907-.574.907-1.08.907-.495.907.161.907-.069.907.874.908 1.631.907-.172.907.23.907-.736.907-2.482 1.814 1.218.907-.815 1.814 2.815.907.47.908 1.713 1.814-.253.907.713.907.517 1.814 1.528.907-.034.907 1.252.907.253.907-1.39 1.815-4.436.907-.39.907.758.907-2.494.907-1.149.907 2.264 1.814 3.562h.907l.907-.862.908 1.93.907 1.23.907-1.103 1.814-1.919 1.814 1.195.907-.586.907-.15.907.276.907 1.046.908 1.322.907.321.907.655.907.31.907-.068.907.655.907.505.907-.126 1.814-1.597.907.298.908.092.907-.402 1.814-1.7.907.597.907.333.907-.126.907 1.16.907.908.907.08.907.805.908.345.907-.862.907-1.735.907-2.69.907-2.309 2.721-3.481.907.689.907 2.321.907 1.678.908 1.413.907 1.724.907.896.907.632.907-.23.907-1.31.907-.436.907-.586.907-1.644.907-1.01 1.815-3.138.907-.977.907-1.953.907-1.551.907-.62.907-1.08.907.528.907 1.528.907.471 1.814 3.195.907.976.908 1.954.907 1.057.907-.575.907-.356.907-1.425 1.814-5.033.907-3.642.907-2.758 1.814-2.827.908-.057.907.126.907-.115.907 1.414 1.814 1.137.907 2.482.907-.54 1.814-4.711.907-6.389 1.815-14.225.907-10.043.907-13.123.907-18.546 1.814-52.064.907-17.236 1.814-15.605.907-18.523.908-25.21.907-10.147 1.814 10.319.907-2.632.907-8.836.907 10.94 1.814 100.049.907 25.372.907 18.293.908 8.618.907 30.439.907 47.94 1.814 48.731.907 43.527 2.721 107.795h0" style="fill:none;stroke:#d55e00;stroke-linecap:round;stroke-width:1.5" id="line2d_3"/><path clip-path="url(#p3188318dfe)" d="M149.973 332.28h50.797l1.814-2.34h.907l1.814-1.171.907-1.756.907-3.511.907-2.927.908-1.755.907-2.341.907-1.756.907-2.926.907-4.097.907-1.756.907 4.097.907 2.341.907-8.193.907-10.535.907-.585 1.815 18.142.907-2.34.907-4.682.907 18.142.907 27.506.907 8.78 1.814-8.194.907 4.682.907 9.364.908-7.023.907-15.217.907-4.096.907 2.34h.907l.907-2.926.907-5.267.907-1.17.907 1.17.907-.585.907.585 1.815 7.023.907 4.682.907 2.341.907-1.17.907 2.926.907 1.17.907-2.34h.907l.907-.586.907 1.17.908 2.341.907-5.267.907-7.608 1.814-8.193.907-3.512.907-2.926.907-1.756.907 4.682.907 8.779.907 5.267.908 2.341.907 1.756.907.585h.907l.907-2.34.907-4.098.907-2.34.907-1.171.907-2.341.907-1.756h.907l1.815-3.511h1.814l1.814 4.682h.907l1.814 7.023 1.814-1.17 1.815-3.512h.907l1.814-3.512 3.628 4.682h.907l.907-1.17 1.815-1.17 1.814-3.512.907-1.17h1.814l.907-.586h.907l.907 1.756.907 2.34.908 1.171h1.814l.907-.585h.907l.907-.585.907-2.926.907-1.756h.907l.907 3.511.907 4.097h.908l.907.585.907 3.512.907 2.34h.907l.907-1.17.907-2.34 1.814-3.512.907-2.341.907-1.17h.907l.908-1.756.907 1.17.907 4.097.907 1.755.907.586h1.814l.907.585.907-1.17.907-2.927.907-.585.908.585h1.814l2.721 1.756h.907l.907-1.17.907-.586h.907l1.815-2.34.907.584h1.814l.907.586h.907l.907 1.17h.907l.907-2.34.907-.586.907 1.17.908.586h.907l.907-1.17 1.814 2.34.907-.585h.907l.907-.585h.907l.907 1.17.907-1.756.908 1.171.907 3.511.907-.585h1.814l.907-1.17.907 2.34h.907l.907-4.096.907-.585h1.815l.907-.586.907-2.34h.907l.907 2.926.907 1.17h1.814l1.814 5.853h.907l1.815-1.17h1.814l.907-2.927.907-3.512.907-4.096.907-8.779.907-6.438.907-1.17h.907l.908 1.17.907-1.17.907 2.926.907 12.876.907 7.022.907-2.34.907-3.512.907-1.756.907 6.438.907 2.34.907-3.51.908 5.267.907 8.193.907 7.023.907 1.17.907-8.193 1.814-9.364.907-11.705.907-7.608.907-3.511.907-2.926.908 2.926 1.814 7.023.907 7.023.907 2.926h.907l.907-.585.907-4.097.907 1.756.907-4.097.907-10.535.908-1.17h.907l.907 5.852.907 2.927.907-14.046.907 2.34.907 10.535.907-5.852.907-2.926.907-.586.907 6.438.907 17.557.908 9.95.907 11.704.907 6.438.907-5.853.907-1.17.907-2.926.907-8.194.907-20.483.907-36.285.907-8.194.907 14.046.908 1.756.907-1.756.907 2.926.907 14.632.907 31.017.907 23.995.907 1.17.907-3.51.907 1.17h.907l.907 7.023.908-1.756.907-19.898 2.72-18.728.908-11.12.907-23.995.907 1.17.907 14.632h.907l1.815 11.705 1.814 32.188 1.814-20.483h1.814l.907-8.779.907-10.534.907-.586.907-5.852.908-12.875.907-5.853.907 8.194.907 19.898.907 8.193.907 1.756.907 13.46.907 19.899.907 11.705.907 6.437.907-3.511.908-6.438.907 4.097.907 3.511.907-2.926.907-5.852.907-31.018.907-15.216.907 15.216.907-5.267 1.814-31.018.908-2.926.907 36.285.907 28.677.907-21.654.907-14.046.907 12.875.907 18.728.907 5.852.907-27.506.907-33.944.907 17.557.908 26.336.907-1.756.907-11.12.907-7.022 1.814 37.455 1.814-23.995.907-.585.907 7.023.907 4.097.908-15.802.907-2.926.907 9.364.907-7.023.907-9.95.907-6.437.907 4.097.907 3.511.907-11.705.907-8.778 1.815 21.069.907-.586.907-4.096.907 4.096.907 14.046.907 5.853.907-12.29.907-4.097.907 8.193h.907l.907-6.438.908-11.704.907-4.097.907 14.046.907 7.608.907-5.267h.907l.907 4.682.907 7.023.907 2.926.907-8.779.907-10.534.907-1.17.908-5.268.907 2.926.907 6.438h.907l.907-1.17.907-2.927h.907l.907 10.535.907-.586.907-9.949.907-4.096 1.815 5.852v14.631l.907 2.926.907-5.852.907 2.34.907 9.365.907 6.437.907-2.34.907-9.364.907-4.097.907-1.756h.908l.907.585.907-1.755.907 2.34.907 4.683 1.814 10.534.907-5.853.907-9.363.907-1.17.907 1.17.908-3.512.907-5.852.907-3.512.907 4.097.907 6.438.907-1.17.907-4.098.907 5.853.907 7.608.907 1.17.907-3.51.908-4.098.907 4.097.907 4.682.907-2.926.907-3.512.907-.585.907 3.512.907 2.926.907-2.926.907-4.097.907-2.926.908-1.17h.907l1.814-4.683 1.814-2.34h4.535l.908.584.907 2.341.907 1.756h2.721l1.814-3.511 1.814-2.341h2.722l.907 3.511.907 4.097.907.585h3.628l.907-1.756.907-2.34.908-.586 1.814-4.682h3.628l.907-.585.907 4.097.907 4.682h3.629l.907.585.907-2.341.907-2.926h2.721l.907-.586.907-1.17.908.585.907 1.17h2.72l.908 1.171.907 1.756.907-3.512.907-4.096h.907l1.814-25.75.908-2.342.907-4.097.907 1.17.907 4.098h.907l1.814 41.552.907 1.17.907 6.438.907 7.608.907 1.756h.908l1.814-19.313.907-2.341 1.814-16.387.907-2.926h.907l.907 1.756.907 2.34.907 6.438.908 9.364.907 5.267.907 1.756h.907l.907 4.682.907 2.926 1.814-10.534.907-2.926.907-1.17h.907l1.815-15.802.907-2.927h.907l.907-.585.907-2.926h.907l.907 7.023.907 5.852.907 2.341.907 2.926.908 2.341.907 2.927h.907l.907-9.364.907-1.17.907 8.778 1.814-10.534.907.585h.907l.907 2.926.908-1.17.907-5.853.907 4.682.907 6.438h1.814l.907 7.608.907 5.267.907-1.17h.907l.907-2.341.908-1.17h.907l.907-5.268.907-3.512h1.814l.907-1.755.907-3.512h.907l.907 2.341.907-.585.908.585h.907l.907 5.853.907 9.364h.907l.907-7.023.907-2.927.907 2.341.907-1.755 1.814-10.535h.908l1.814 15.802.907-.585.907 2.34.907 2.927.907.585h.907l.907-7.023.907-9.949.907-3.511.908-.586 1.814-2.34h.907l.907 5.267.907 8.193.907-2.341.907-6.438.907-3.511.907-2.341h.907l.908-2.341.907-4.682 1.814 14.631.907 3.511.907 5.268h.907l.907-4.682.907-4.097.907-6.438.907-3.511.907 2.926.908-.585h.907l.907 2.34.907 1.757.907 5.267.907-.586.907-13.46.907-7.023h.907l1.814 13.46.908-9.363.907-5.267.907 8.193.907 4.682h.907l1.814-12.875.907 2.926.907-3.512.907-4.096.907-21.654.908-31.018 1.814-9.364.907-19.313 1.814-19.898.907 35.114.907 56.769.907 8.193.907-5.852.907 5.852.908 9.364.907-8.193.907-60.28.907-89.542.907-50.917.907 8.78.907 23.409.907-11.12.907 3.512.907 36.87 1.815 132.85.907 15.801h.907l1.814 98.906 1.814 104.174.907-2.927.907-14.63h0" style="fill:none;stroke:#0072b2;stroke-linecap:round;stroke-width:1.5" id="line2d_4"/><path clip-path="url(#p3188318dfe)" d="M117 332.28h725.4" style="fill:none;stroke:red;stroke-dasharray:1.5,2.475;stroke-dashoffset:0;stroke-width:1.5" id="line2d_5"/><path d="M117 576.72V77.76" style="fill:none;stroke:#d3d3d3;stroke-linecap:square;stroke-linejoin:miter;stroke-width:1.25" id="patch_3"/><path d="M117 576.72h725.4" style="fill:none;stroke:#d3d3d3;stroke-linecap:square;stroke-linejoin:miter;stroke-width:1.25" id="patch_4"/><g id="matplotlib.axis_1"><g id="xtick_1"><g style="fill:#696969" transform="matrix(.16 0 0 -.16 119.498 598.378)" id="text_1"><defs><path d="M9.813 72.906h9.859V5.078q0-13.187-5-19.14-5-5.954-16.094-5.954h-3.75v8.297h3.078q6.531 0 9.219 3.672Q9.813-4.39 9.813 5.078z" id="DejaVuSans-74"/><path d="M34.281 27.484q-10.89 0-15.093-2.484-4.204-2.484-4.204-8.5 0-4.781 3.157-7.594 3.156-2.797 8.562-2.797 7.485 0 12 5.297 4.516 5.297 4.516 14.078v2zm17.922 3.72V0H43.22v8.297Q40.14 3.328 35.547.953q-4.594-2.375-11.234-2.375-8.391 0-13.36 4.719Q6 8.016 6 15.922q0 9.219 6.172 13.906 6.187 4.688 18.437 4.688h12.61v.89q0 6.203-4.078 9.594-4.078 3.39-11.453 3.39-4.688 0-9.141-1.124-4.438-1.125-8.531-3.375v8.312q4.921 1.906 9.562 2.844 4.64.953 9.031.953 11.875 0 17.735-6.156 5.86-6.14 5.86-18.64z" id="DejaVuSans-97"/><path d="M54.89 33.016V0h-8.984v32.719q0 7.765-3.031 11.61-3.031 3.858-9.078 3.858-7.281 0-11.484-4.64-4.204-4.625-4.204-12.64V0H9.08v54.688h9.03v-8.5q3.235 4.937 7.594 7.374Q30.078 56 35.797 56q9.422 0 14.25-5.828 4.844-5.828 4.844-17.156z" id="DejaVuSans-110"/></defs><use xlink:href="#DejaVuSans-74"/><use x="29.492" xlink:href="#DejaVuSans-97"/><use x="90.771" xlink:href="#DejaVuSans-110"/></g></g><g id="xtick_2"><g style="fill:#696969" transform="matrix(.16 0 0 -.16 200.536 598.378)" id="text_2"><defs><path d="M34.188 63.188 20.797 26.906h26.812zm-5.579 9.718h11.188L67.578 0h-10.25l-6.64 18.703h-32.86L11.188 0H.78z" id="DejaVuSans-65"/><path d="M18.11 8.203v-29H9.077v75.484h9.031v-8.296q2.844 4.875 7.157 7.234Q29.594 56 35.594 56q9.968 0 16.187-7.906 6.235-7.907 6.235-20.797T51.78 6.484q-6.218-7.906-16.187-7.906-6 0-10.328 2.375-4.313 2.375-7.157 7.25zm30.578 19.094q0 9.906-4.079 15.547-4.078 5.64-11.203 5.64-7.14 0-11.218-5.64-4.079-5.64-4.079-15.547 0-9.906 4.078-15.547 4.079-5.64 11.22-5.64 7.124 0 11.202 5.64t4.078 15.547z" id="DejaVuSans-112"/><path d="M41.11 46.297q-1.516.875-3.297 1.281Q36.03 48 33.89 48q-7.625 0-11.703-4.953-4.079-4.953-4.079-14.234V0H9.08v54.688h9.03v-8.5q2.844 4.984 7.375 7.39Q30.031 56 36.531 56q.922 0 2.047-.125 1.125-.11 2.484-.36z" id="DejaVuSans-114"/></defs><use xlink:href="#DejaVuSans-65"/><use x="68.408" xlink:href="#DejaVuSans-112"/><use x="131.885" xlink:href="#DejaVuSans-114"/></g></g><g id="xtick_3"><g style="fill:#696969" transform="matrix(.16 0 0 -.16 287.269 598.378)" id="text_3"><defs><path d="M8.5 21.578v33.11h8.984V21.922q0-7.766 3.016-11.656 3.031-3.875 9.094-3.875 7.265 0 11.484 4.64 4.234 4.64 4.234 12.656v31h8.985V0h-8.984v8.406Q42.047 3.422 37.718 1q-4.313-2.422-10.032-2.422-9.421 0-14.312 5.86Q8.5 10.296 8.5 21.578zM31.11 56z" id="DejaVuSans-117"/><path d="M9.422 75.984h8.984V0H9.422z" id="DejaVuSans-108"/></defs><use xlink:href="#DejaVuSans-74"/><use x="29.492" xlink:href="#DejaVuSans-117"/><use x="92.871" xlink:href="#DejaVuSans-108"/></g></g><g id="xtick_4"><g style="fill:#696969" transform="matrix(.16 0 0 -.16 366.541 598.378)" id="text_4"><defs><path d="M39.406 66.219q-10.75 0-17.078-8.016-6.312-8-6.312-21.828 0-13.766 6.312-21.781 6.328-8 17.078-8 10.735 0 17.016 8 6.281 8.015 6.281 21.781 0 13.828-6.281 21.828-6.281 8.016-17.016 8.016zm0 8q15.328 0 24.5-10.281 9.188-10.282 9.188-27.563 0-17.234-9.188-27.516-9.172-10.28-24.5-10.28-15.375 0-24.593 10.25-9.204 10.265-9.204 27.546t9.204 27.563q9.218 10.28 24.593 10.28z" id="DejaVuSans-79"/><path d="M48.781 52.594v-8.407q-3.812 2.11-7.64 3.157-3.828 1.047-7.735 1.047-8.75 0-13.593-5.547-4.829-5.532-4.829-15.547 0-10.016 4.829-15.563 4.843-5.53 13.593-5.53 3.907 0 7.735 1.046 3.828 1.047 7.64 3.156V2.094Q45.016.344 40.984-.531q-4.015-.89-8.562-.89-12.36 0-19.64 7.765-7.266 7.765-7.266 20.953 0 13.375 7.343 21.031Q20.22 56 33.016 56q4.14 0 8.093-.86 3.953-.843 7.672-2.546z" id="DejaVuSans-99"/><path d="M18.313 70.219V54.688h18.5v-6.985h-18.5V18.016q0-6.688 1.828-8.594 1.828-1.906 7.453-1.906h9.218V0h-9.218q-10.407 0-14.36 3.875-3.953 3.89-3.953 14.14v29.688H2.687v6.984h6.594V70.22z" id="DejaVuSans-116"/></defs><use xlink:href="#DejaVuSans-79"/><use x="78.711" xlink:href="#DejaVuSans-99"/><use x="133.691" xlink:href="#DejaVuSans-116"/></g></g><g id="xtick_5"><g style="fill:#696969" transform="matrix(.16 0 0 -.16 451.493 598.378)" id="text_5"><use xlink:href="#DejaVuSans-74"/><use x="29.492" xlink:href="#DejaVuSans-97"/><use x="90.771" xlink:href="#DejaVuSans-110"/></g></g><g id="xtick_6"><g style="fill:#696969" transform="matrix(.16 0 0 -.16 531.624 598.378)" id="text_6"><use xlink:href="#DejaVuSans-65"/><use x="68.408" xlink:href="#DejaVuSans-112"/><use x="131.885" xlink:href="#DejaVuSans-114"/></g></g><g id="xtick_7"><g style="fill:#696969" transform="matrix(.16 0 0 -.16 618.357 598.378)" id="text_7"><use xlink:href="#DejaVuSans-74"/><use x="29.492" xlink:href="#DejaVuSans-117"/><use x="92.871" xlink:href="#DejaVuSans-108"/></g></g><g id="xtick_8"><g style="fill:#696969" transform="matrix(.16 0 0 -.16 697.629 598.378)" id="text_8"><use xlink:href="#DejaVuSans-79"/><use x="78.711" xlink:href="#DejaVuSans-99"/><use x="133.691" xlink:href="#DejaVuSans-116"/></g></g><g id="xtick_9"><g style="fill:#696969" transform="matrix(.16 0 0 -.16 782.581 598.378)" id="text_9"><use xlink:href="#DejaVuSans-74"/><use x="29.492" xlink:href="#DejaVuSans-97"/><use x="90.771" xlink:href="#DejaVuSans-110"/></g></g></g><g id="matplotlib.axis_2"><g id="ytick_1"><g style="fill:#696969" transform="matrix(.16 0 0 -.16 73.733 548.308)" id="text_10"><defs><path d="M10.594 35.5h62.593v-8.297H10.594z" id="DejaVuSans-8722"/><path d="M19.188 8.297h34.421V0H7.33v8.297q5.609 5.812 15.296 15.594 9.703 9.797 12.188 12.64 4.734 5.313 6.609 9 1.89 3.688 1.89 7.25 0 5.813-4.078 9.469-4.078 3.672-10.625 3.672-4.64 0-9.797-1.61-5.14-1.609-11-4.89v9.969Q13.767 71.78 18.938 73q5.188 1.219 9.485 1.219 11.328 0 18.062-5.672 6.735-5.656 6.735-15.125 0-4.5-1.688-8.531-1.672-4.016-6.125-9.485-1.218-1.422-7.765-8.187-6.532-6.766-18.453-18.922z" id="DejaVuSans-50"/><path d="M31.781 66.406q-7.61 0-11.453-7.5Q16.5 51.422 16.5 36.375q0-14.984 3.828-22.484 3.844-7.5 11.453-7.5 7.672 0 11.5 7.5 3.844 7.5 3.844 22.484 0 15.047-3.844 22.531-3.828 7.5-11.5 7.5zm0 7.813q12.266 0 18.735-9.703 6.468-9.688 6.468-28.141 0-18.406-6.468-28.11-6.47-9.687-18.735-9.687-12.25 0-18.718 9.688-6.47 9.703-6.47 28.109 0 18.453 6.47 28.14Q19.53 74.22 31.78 74.22z" id="DejaVuSans-48"/></defs><use xlink:href="#DejaVuSans-8722"/><use x="83.789" xlink:href="#DejaVuSans-50"/><use x="147.412" xlink:href="#DejaVuSans-48"/></g></g><g id="ytick_2"><g style="fill:#696969" transform="matrix(.16 0 0 -.16 73.733 443.334)" id="text_11"><defs><path d="M12.406 8.297h16.11v55.625l-17.532-3.516v8.985l17.438 3.515h9.86V8.296H54.39V0H12.406z" id="DejaVuSans-49"/></defs><use xlink:href="#DejaVuSans-8722"/><use x="83.789" xlink:href="#DejaVuSans-49"/><use x="147.412" xlink:href="#DejaVuSans-48"/></g></g><g id="ytick_3"><use xlink:href="#DejaVuSans-48" style="fill:#696969" transform="matrix(.16 0 0 -.16 97.32 338.359)" id="text_12"/></g><g id="ytick_4"><g style="fill:#696969" transform="matrix(.16 0 0 -.16 87.14 233.384)" id="text_13"><use xlink:href="#DejaVuSans-49"/><use x="63.623" xlink:href="#DejaVuSans-48"/></g></g><g id="ytick_5"><g style="fill:#696969" transform="matrix(.16 0 0 -.16 87.14 128.41)" id="text_14"><use xlink:href="#DejaVuSans-50"/><use x="63.623" xlink:href="#DejaVuSans-48"/></g></g><g style="fill:#696969" transform="matrix(0 -.2 -.2 0 65.573 445.117)" id="text_15"><defs><path d="M64.406 67.281v-10.39q-4.984 4.64-10.625 6.922-5.64 2.296-11.984 2.296-12.5 0-19.14-7.64-6.641-7.64-6.641-22.094 0-14.406 6.64-22.047 6.64-7.64 19.14-7.64 6.345 0 11.985 2.296 5.64 2.297 10.625 6.938V5.609Q59.234 2.094 53.437.33q-5.78-1.75-12.218-1.75-16.563 0-26.094 10.124-9.516 10.14-9.516 27.672 0 17.578 9.516 27.703 9.531 10.14 26.094 10.14 6.531 0 12.312-1.734 5.797-1.734 10.875-5.203z" id="DejaVuSans-67"/><path d="M44.281 53.078v-8.5q-3.797 1.953-7.906 2.922-4.094.984-8.5.984-6.688 0-10.031-2.047-3.344-2.046-3.344-6.156 0-3.125 2.39-4.906 2.391-1.781 9.626-3.39l3.078-.688q9.562-2.047 13.593-5.781 4.032-3.735 4.032-10.422 0-7.625-6.032-12.078-6.03-4.438-16.578-4.438-4.39 0-9.156.86Q10.688.296 5.422 2v9.281q4.984-2.594 9.812-3.89 4.829-1.282 9.579-1.282 6.343 0 9.75 2.172 3.421 2.172 3.421 6.125 0 3.656-2.468 5.61-2.453 1.953-10.813 3.765l-3.125.735q-8.344 1.75-12.062 5.39-3.704 3.64-3.704 9.985 0 7.718 5.47 11.906Q16.75 56 26.811 56q4.97 0 9.36-.734 4.406-.72 8.11-2.188z" id="DejaVuSans-115"/><path d="M56.203 29.594v-4.39H14.891q.593-9.282 5.593-14.142 5-4.859 13.938-4.859 5.172 0 10.031 1.266 4.86 1.265 9.656 3.812v-8.5Q49.266.734 44.187-.344 39.11-1.422 33.892-1.422q-13.094 0-20.735 7.61-7.64 7.625-7.64 20.625 0 13.421 7.25 21.296Q20.016 56 32.328 56q11.031 0 17.453-7.11 6.422-7.093 6.422-19.296zm-8.984 2.64q-.094 7.36-4.125 11.75-4.032 4.407-10.672 4.407-7.516 0-12.031-4.25-4.516-4.25-5.203-11.97z" id="DejaVuSans-101"/><path d="M44.39 34.188q3.172-1.079 6.172-4.594 3-3.516 6.032-9.672L66.609 0H56l-9.313 18.703q-3.624 7.328-7.015 9.719-3.39 2.39-9.25 2.39h-10.75V0h-9.86v72.906h22.266q12.5 0 18.656-5.234 6.157-5.219 6.157-15.766 0-6.89-3.203-11.437-3.204-4.532-9.297-6.282zM19.673 64.797V38.922h12.406q7.125 0 10.766 3.297 3.64 3.297 3.64 9.687 0 6.39-3.64 9.64-3.64 3.25-10.766 3.25z" id="DejaVuSans-82"/><path d="M8.594 75.984h20.703V69H17.578V-6.203h11.719v-6.984H8.594z" id="DejaVuSans-91"/><path d="M25.39 72.906h8.297L8.297-9.28H0z" id="DejaVuSans-47"/><path d="M45.406 46.39v29.594h8.985V0h-8.985v8.203Q42.578 3.328 38.25.953q-4.313-2.375-10.375-2.375-9.906 0-16.14 7.906-6.22 7.922-6.22 20.813 0 12.89 6.22 20.797Q17.968 56 27.874 56q6.063 0 10.375-2.375 4.328-2.36 7.156-7.234zm-30.61-19.093q0-9.906 4.079-15.547 4.078-5.64 11.203-5.64 7.125 0 11.219 5.64 4.11 5.64 4.11 15.547 0 9.906-4.11 15.547-4.094 5.64-11.219 5.64-7.125 0-11.203-5.64-4.078-5.64-4.078-15.547z" id="DejaVuSans-100"/><path d="M32.172-5.078q-3.797-9.766-7.422-12.735-3.61-2.984-9.656-2.984H7.906v7.516h5.282q3.703 0 5.75 1.765Q21-9.766 23.483-3.219l1.61 4.094-22.11 53.813H12.5l17.094-42.766 17.093 42.766h9.516z" id="DejaVuSans-121"/><path d="M30.422 75.984v-89.171H9.719v6.984H21.39V69H9.719v6.984z" id="DejaVuSans-93"/></defs><use xlink:href="#DejaVuSans-67"/><use x="69.824" xlink:href="#DejaVuSans-97"/><use x="131.104" xlink:href="#DejaVuSans-115"/><use x="183.203" xlink:href="#DejaVuSans-101"/><use x="244.727" xlink:href="#DejaVuSans-32"/><use x="276.514" xlink:href="#DejaVuSans-82"/><use x="343.746" xlink:href="#DejaVuSans-97"/><use x="405.025" xlink:href="#DejaVuSans-116"/><use x="444.234" xlink:href="#DejaVuSans-101"/><use x="505.758" xlink:href="#DejaVuSans-32"/><use x="537.545" xlink:href="#DejaVuSans-91"/><use x="576.559" xlink:href="#DejaVuSans-32"/><use x="608.346" xlink:href="#DejaVuSans-99"/><use x="663.326" xlink:href="#DejaVuSans-97"/><use x="724.605" xlink:href="#DejaVuSans-115"/><use x="776.705" xlink:href="#DejaVuSans-101"/><use x="838.229" xlink:href="#DejaVuSans-115"/><use x="890.328" xlink:href="#DejaVuSans-47"/><use x="924.02" xlink:href="#DejaVuSans-100"/><use x="987.496" xlink:href="#DejaVuSans-97"/><use x="1048.775" xlink:href="#DejaVuSans-121"/><use x="1107.955" xlink:href="#DejaVuSans-32"/><use x="1139.742" xlink:href="#DejaVuSans-93"/></g></g><g style="fill:#696969" transform="matrix(.24 0 0 -.24 245.86 71.76)" id="text_16"><defs><path d="M9.813 72.906h13.28l32.329-60.984v60.984h9.562V0h-13.28L19.39 60.984V0H9.813z" id="DejaVuSans-78"/><path d="M4.203 54.688h8.985l11.234-42.672 11.172 42.672h10.593l11.235-42.672 11.187 42.672h8.985L63.28 0H52.688L40.922 44.828 29.109 0H18.5z" id="DejaVuSans-119"/><path d="M8.203 72.906h46.875v-4.203L28.61 0H18.312L43.22 64.594H8.203z" id="DejaVuSans-55"/><path d="M2.984 54.688H12.5L29.594 8.797l17.093 45.89h9.516L35.687 0H23.485z" id="DejaVuSans-118"/><path d="M45.406 27.984q0 9.766-4.031 15.125-4.016 5.375-11.297 5.375-7.219 0-11.25-5.375-4.031-5.359-4.031-15.125 0-9.718 4.031-15.093t11.25-5.375q7.281 0 11.297 5.375 4.031 5.375 4.031 15.093zm8.985-21.203q0-13.953-6.203-20.765Q42-20.797 29.203-20.797q-4.734 0-8.937.703-4.203.703-8.157 2.172v8.735q3.954-2.141 7.813-3.157 3.86-1.031 7.86-1.031 8.843 0 13.234 4.61 4.39 4.609 4.39 13.937v4.453q-2.781-4.844-7.125-7.234Q33.938 0 27.875 0 17.828 0 11.672 7.656q-6.156 7.672-6.156 20.328 0 12.688 6.156 20.344Q17.828 56 27.875 56q6.063 0 10.406-2.39 4.344-2.391 7.125-7.22v8.297h8.985z" id="DejaVuSans-103"/><path d="M30.61 48.39q-7.22 0-11.422-5.64-4.204-5.64-4.204-15.453 0-9.813 4.172-15.453 4.188-5.64 11.453-5.64 7.188 0 11.375 5.655 4.203 5.672 4.203 15.438 0 9.719-4.203 15.406-4.187 5.688-11.375 5.688zm0 7.61q11.718 0 18.406-7.625 6.703-7.61 6.703-21.078 0-13.422-6.703-21.078-6.688-7.64-18.407-7.64-11.765 0-18.437 7.64-6.656 7.656-6.656 21.078 0 13.469 6.656 21.078Q18.844 56 30.609 56z" id="DejaVuSans-111"/><path d="M37.11 75.984V68.5h-8.594q-4.828 0-6.72-1.953-1.874-1.953-1.874-7.031v-4.828h14.797v-6.985H19.922V0H10.89v47.703H2.297v6.984h8.594V58.5q0 9.125 4.25 13.297 4.25 4.187 13.468 4.187z" id="DejaVuSans-102"/><path d="M9.813 72.906h9.859V42.094L52.39 72.906h12.703L28.906 38.922 67.672 0H54.688L19.672 35.11V0h-9.86z" id="DejaVuSans-75"/></defs><use xlink:href="#DejaVuSans-78"/><use x="74.805" xlink:href="#DejaVuSans-101"/><use x="136.328" xlink:href="#DejaVuSans-119"/><use x="218.115" xlink:href="#DejaVuSans-32"/><use x="249.902" xlink:href="#DejaVuSans-67"/><use x="319.727" xlink:href="#DejaVuSans-97"/><use x="381.006" xlink:href="#DejaVuSans-115"/><use x="433.105" xlink:href="#DejaVuSans-101"/><use x="494.629" xlink:href="#DejaVuSans-115"/><use x="546.729" xlink:href="#DejaVuSans-32"/><use x="578.516" xlink:href="#DejaVuSans-55"/><use x="642.139" xlink:href="#DejaVuSans-100"/><use x="705.615" xlink:href="#DejaVuSans-32"/><use x="737.402" xlink:href="#DejaVuSans-97"/><use x="798.682" xlink:href="#DejaVuSans-118"/><use x="857.861" xlink:href="#DejaVuSans-103"/><use x="921.338" xlink:href="#DejaVuSans-32"/><use x="953.125" xlink:href="#DejaVuSans-115"/><use x="1005.225" xlink:href="#DejaVuSans-108"/><use x="1033.008" xlink:href="#DejaVuSans-111"/><use x="1094.189" xlink:href="#DejaVuSans-112"/><use x="1157.666" xlink:href="#DejaVuSans-101"/><use x="1219.189" xlink:href="#DejaVuSans-32"/><use x="1250.977" xlink:href="#DejaVuSans-111"/><use x="1312.158" xlink:href="#DejaVuSans-102"/><use x="1347.363" xlink:href="#DejaVuSans-32"/><use x="1379.15" xlink:href="#DejaVuSans-55"/><use x="1442.773" xlink:href="#DejaVuSans-32"/><use x="1474.561" xlink:href="#DejaVuSans-97"/><use x="1535.84" xlink:href="#DejaVuSans-118"/><use x="1595.02" xlink:href="#DejaVuSans-103"/><use x="1658.496" xlink:href="#DejaVuSans-47"/><use x="1692.188" xlink:href="#DejaVuSans-49"/><use x="1755.811" xlink:href="#DejaVuSans-48"/><use x="1819.434" xlink:href="#DejaVuSans-48"/><use x="1883.057" xlink:href="#DejaVuSans-75"/></g><g id="legend_1"><path d="M128.2 184.5h136.45q3.2 0 3.2-3.2V88.96q0-3.2-3.2-3.2H128.2q-3.2 0-3.2 3.2v92.34q0 3.2 3.2 3.2z" style="fill:none;opacity:.8;stroke:#ccc;stroke-linejoin:miter" id="patch_5"/><path d="M131.4 98.718h32" style="fill:none;stroke:#000;stroke-linecap:round;stroke-width:1.5" id="line2d_6"/><g style="fill:#696969" transform="matrix(.16 0 0 -.16 176.2 104.317)" id="text_17"><defs><path d="M8.688 72.906h9.921V28.61q0-11.718 4.235-16.875 4.25-5.14 13.781-5.14 9.469 0 13.719 5.14 4.25 5.157 4.25 16.875v44.297H64.5V27.391q0-14.25-7.063-21.532-7.046-7.28-20.812-7.28-13.828 0-20.89 7.28-7.047 7.282-7.047 21.532z" id="DejaVuSans-85"/><path d="M53.516 70.516V60.89q-5.61 2.687-10.594 4-4.984 1.328-9.625 1.328-8.047 0-12.422-3.125t-4.375-8.89q0-4.845 2.906-7.313 2.907-2.453 11.016-3.97l5.953-1.218q11.031-2.11 16.281-7.406 5.25-5.297 5.25-14.172 0-10.61-7.11-16.078-7.093-5.469-20.812-5.469-5.172 0-11.015 1.172Q13.14.922 6.89 3.219v10.156q6-3.36 11.765-5.078 5.766-1.703 11.328-1.703 8.438 0 13.032 3.312 4.593 3.328 4.593 9.485 0 5.359-3.297 8.39-3.296 3.032-10.812 4.547L27.484 33.5q-11.03 2.188-15.968 6.875-4.922 4.688-4.922 13.047 0 9.672 6.812 15.234 6.813 5.563 18.766 5.563 5.14 0 10.453-.938 5.328-.922 10.89-2.765z" id="DejaVuSans-83"/></defs><use xlink:href="#DejaVuSans-85"/><use x="73.193" xlink:href="#DejaVuSans-83"/></g><path d="M131.4 122.203h32" style="fill:none;stroke:#009e73;stroke-linecap:round;stroke-width:1.5" id="line2d_8"/><g style="fill:#696969" transform="matrix(.16 0 0 -.16 176.2 127.802)" id="text_18"><use xlink:href="#DejaVuSans-78"/><use x="74.805" xlink:href="#DejaVuSans-74"/></g><path d="M131.4 145.688h32" style="fill:none;stroke:#d55e00;stroke-linecap:round;stroke-width:1.5" id="line2d_10"/><g style="fill:#696969" transform="matrix(.16 0 0 -.16 176.2 151.287)" id="text_19"><defs><path d="M19.672 34.813V8.108H35.5q7.953 0 11.781 3.297 3.844 3.297 3.844 10.078 0 6.844-3.844 10.078-3.828 3.25-11.781 3.25zm0 29.984V42.828h14.61q7.218 0 10.75 2.703 3.546 2.719 3.546 8.282 0 5.515-3.547 8.25-3.531 2.734-10.75 2.734zm-9.86 8.11h25.204q11.28 0 17.375-4.688Q58.5 63.53 58.5 54.89q0-6.703-3.125-10.657-3.125-3.953-9.188-4.922 7.282-1.562 11.313-6.53 4.031-4.954 4.031-12.376 0-9.765-6.64-15.093Q48.25 0 35.984 0H9.812z" id="DejaVuSans-66"/></defs><use xlink:href="#DejaVuSans-66"/><use x="68.604" xlink:href="#DejaVuSans-101"/><use x="130.127" xlink:href="#DejaVuSans-114"/><use x="169.49" xlink:href="#DejaVuSans-103"/><use x="232.967" xlink:href="#DejaVuSans-101"/><use x="294.49" xlink:href="#DejaVuSans-110"/></g><path d="M131.4 169.173h32" style="fill:none;stroke:#0072b2;stroke-linecap:round;stroke-width:1.5" id="line2d_12"/><g style="fill:#696969" transform="matrix(.16 0 0 -.16 176.2 174.773)" id="text_20"><defs><path d="M54.89 33.016V0h-8.984v32.719q0 7.765-3.031 11.61-3.031 3.858-9.078 3.858-7.281 0-11.484-4.64-4.204-4.625-4.204-12.64V0H9.08v75.984h9.03V46.188q3.235 4.937 7.594 7.374Q30.078 56 35.797 56q9.422 0 14.25-5.828 4.844-5.828 4.844-17.156z" id="DejaVuSans-104"/></defs><use xlink:href="#DejaVuSans-82"/><use x="64.982" xlink:href="#DejaVuSans-117"/><use x="128.361" xlink:href="#DejaVuSans-116"/><use x="167.57" xlink:href="#DejaVuSans-104"/><use x="230.949" xlink:href="#DejaVuSans-101"/><use x="292.473" xlink:href="#DejaVuSans-114"/><use x="333.586" xlink:href="#DejaVuSans-102"/><use x="368.791" xlink:href="#DejaVuSans-111"/><use x="429.973" xlink:href="#DejaVuSans-114"/><use x="469.336" xlink:href="#DejaVuSans-100"/></g></g></g></g><defs><clipPath id="p3188318dfe"><path d="M117 77.76h725.4v498.96H117z"/></clipPath></defs></svg>