<svg height="864" viewBox="0 0 936 648" width="1248" xmlns="http://www.w3.org/2000/svg" xmlns:xlink="http://www.w3.org/1999/xlink"><defs><style>*{stroke-linecap:butt;stroke-linejoin:round}</style></defs><g id="figure_1"><path d="M0 648h936V0H0z" style="fill:#fff" id="patch_1"/><g id="axes_1"><path d="M117 576.72h725.4V77.76H117z" style="fill:none" id="patch_2"/><g id="PolyCollection_1"><defs><path d="M151.54-101.726h87.718l1.566-2.401 1.566.425 1.567.18 1.566-1.575h1.567l1.566-4.71 1.566-4.13 1.567-4.778 1.566-.483 1.567-4.609 1.566-1.807 1.566-9.487 1.567-8.314 1.566-6.167 1.567 6.83 1.566-10.314 1.566-20.37 1.567-12.492 1.566 4.576 1.567 4.642 1.566 5.85 1.566-20.412 1.567-8.908 1.566 29.588 1.567 28.3 1.566-4.037 1.566 2.988 1.567-1.477 1.566 7.02 1.567-4.824 1.566-5.595 1.566.366 1.567 1.5 1.566 1.464 1.567-5.136 1.566-.552 1.566-3.308 1.567 1.93h3.133l1.566 6.362 1.566 8.025 1.567 5.922 1.566 10.05 1.567-1.51 1.566-.748 1.566 9.149 1.567-1.044 1.566 3.559 1.567 6.273 1.566 5.303 1.566 6.652 1.567-1.325 1.566-8.808 1.567-8.602 1.566-1.514 1.566-.679 1.567.594 1.566-1.211 1.567-3.177 1.566 6.394 1.566 8.153 1.567 3.552 1.566 2.797 1.567 2.154 1.566-.939 1.566-2.81 1.567-1.93 1.566-.826 1.567-.79 1.566-.729 1.566-2.401 1.567.425 1.566.18 1.567-4.356 1.566.475 1.566-.113 1.567-.765 1.566 3.59 1.567-.333 1.566-.429 1.566 7.226 1.567.474 1.566-2.305 1.567-.901 1.566-2.171 1.566-.308 1.567-.411 1.566-.218 1.567-.577 1.566 1.93h1.566l1.567 2.507 1.566.218h1.567l1.566-3.86 1.566 1.652 1.567-1.652 1.566-1.322 1.567-1.388h1.566l1.566-.542 1.567-3.082 1.566-.298 1.567-.406 1.566 1.441 1.566 1.93h3.133l1.567-3.86 1.566-1.515 1.566 1.93 1.567-1.578 1.566-3.136h1.567l1.566-.724 1.566 8.146 1.567.475 1.566.262 1.567 2.507 1.566 4.388 1.566-.39 1.567-1.657 1.566 4.54 1.567-4.335 1.566-2.708 1.566-1.93 1.567.352 1.566.19 1.567.061 1.566-3.042 1.566 5.79 1.567 2.79 1.566.456 1.567.164 1.566-.08 1.566-.349 1.567-2.157 1.566-.73 1.567-1.2 1.566 1.93h4.699l1.567 2.314 1.566.218 1.566-.3h1.567l1.566-1.93h3.133l1.566-1.503 1.567.117 1.566 1.686 1.567-2.23h1.566l1.566-.09 1.567-.212 1.566 2.142 1.567-3.47 1.566-1.426 1.566.352 1.567 1.89 1.566-.085 1.567-.133 1.566-2.828 1.566 4.287 1.567-5.366 1.566 1.93h1.567l1.566-.047 1.566-.1 1.567 2.03 1.566-5.79 1.567 8.229 1.566.352 1.566.19 1.567.061 1.566-.06 1.567-1.93 1.566 4.639 1.566-3.86 1.567-1.737 1.566.133 1.567.085 1.566.04 1.566-3.16 1.567-.7 1.566 1.578 1.567 1.93h4.699l1.566 6.902 1.567.147 1.566 2.334 1.566.197 1.567-.197 1.566-.674 1.567-1.883 1.566-3.283 1.566-1.03 1.567-6.34 1.566-10.958 1.567-.561 1.566.85 1.566-1.181 1.567-2.383 1.566-13.025 1.567 2.517 1.566 8.147 1.566-5.79 1.567-5.454 1.566-4.627 1.567.504 1.566 11.444 1.566-5.79 1.567 9.179 1.566 12.712 1.567 8.75 1.566 7.248 1.566-9.87 1.567-8.662 1.566-4.946 1.567-8.169 1.566-5.7 1.566 1.27 1.567-2.073 1.566-11.736 1.567 4.091 1.566-6.78 1.566 1.502 1.567-.462 1.566-.729 1.567-1.228 1.566-10.858 1.566-2.926 1.567 13.487 1.566-22.439 1.567-1.404 1.566.112 1.566-2.17 1.567 4.623 1.566-14.523 1.567-22.484 1.566 17.304 1.566-11.812 1.567-7.649 1.566-.21 1.567-1.424 1.566 4.375 1.566 13.354 1.567 19.643 1.566 37.315 1.567-30.154 1.566-2.785 1.566-3.835 1.567-1.883 1.566-10.74 1.567-22.716 1.566-33.543 1.566 20.808 1.567.257 1.566 2.428 1.567-16.763 1.566-.194 1.566-9.513 1.567 32.758 1.566 30.17 1.567 3.473 1.566-5.241 1.566 2.871 1.567-7.49 1.566 31.689 1.567-17.783 1.566.266 1.566-.159 1.567-24.289 1.566 4.63 1.567-28.587 1.566-5.46 1.566 30.77 1.567-3.53 1.566-5.895 1.567-7.205 1.566 1 1.566 16.176 1.567-19.69 1.566-.014 1.567-.03 1.566-.045 1.566-6.179 1.567-17.487 1.566 9.182 1.567-6.23 1.566-18.002 1.566-13.529 1.567.26 1.566 16.225 1.567 12.871 1.566-4.914 1.566 9.65 1.567 6.222 1.566 20.822 1.567-3.884 1.566 52.106 1.566-18.833 1.567 8.265 1.566 10.583 1.567 11.384 1.566-1.738 1.566-6.828 1.567-50.96 1.566 32.093 1.567 7.512 1.566-3.82 1.566-24.288 1.567-9.887 1.566-4.221 1.567 64.178 1.566 13.032 1.566-38.858 1.567-3.973 1.566 16.644 1.567 6.29 1.566-7.635 1.566-29.469 1.567-13.836 1.566 41.36 1.567 4.14 1.566 4.942 1.566-14.082 1.567-.715 1.566 33.177 1.567-22.524 1.566-.049 1.566 6.348 1.567.42 1.566 13.366 1.567-18.174 1.566-7.62 1.566 15.697 1.567 1.833 1.566-17.809 1.567-5.037 1.566-.378 1.566 13.317 1.567-20.411 1.566-6.62 1.567-5.793 1.566 18.328 1.566-9.695 1.567-.32 1.566-5.39 1.567 4.032 1.566 13.358 1.566-5.484 1.567-19.303 1.566 17.413 1.567-.128 1.566-.307 1.566-15.295 1.567-4.714h1.566v-22.174h-1.566l-1.567 6.866-1.566 19.446-1.566-.307-1.567-.128-1.566-17.328-1.567 23.157-1.566 2.237-1.566-9.803-1.567-3.687-1.566-5.39-1.567-.32-1.566 9.604-1.566-20.272-1.567 1.927-1.566 8.821-1.567 25.91-1.566-13.705-1.566-.378-1.567 10.403-1.566 20.792-1.567-2.027-1.566-15.183-1.566 7.82-1.567 8.846-1.566-13.654-1.567.42-1.566-5.232-1.566-.05-1.567 4.497-1.566-28.583-1.567-.716-1.566 12.939-1.566-2.778-1.567-3.58-1.566-39.701-1.567 13.184-1.566 32.292-1.566-7.635-1.567-13.01-1.566-18.097-1.567 3.747-1.566 38.343-1.566-2.409-1.567-55.482-1.566-4.221-1.567 9.412-1.566 25.893-1.566 3.9-1.567-7.927-1.566-33.528-1.567 68.7-1.566-6.827-1.566-1.738-1.567-15.637-1.566-12.576-1.567-11.036-1.566 19.767-1.566-32.814-1.567-3.884-1.566-17.778-1.567-1.499-1.566-9.65-1.566-1.054-1.567-14.15-1.566-26.235-1.567.26-1.566 25.071-1.566 28.32-1.567 9.21-1.566-10.119-1.567 32.693-1.566 5.402-1.566-.045-1.567-.03-1.566-.015-1.567 3.471-1.566-14.703-1.566-6.721-1.567 4.375-1.566-5.895-1.567-3.53-1.566-34.851-1.566 13.84-1.567 48.614-1.566-3.09-1.567 25.891-1.566-.159-1.566.266-1.567 13.098-1.566-37.792-1.567.23-1.566-8.709-1.566 6.34-1.567 3.473-1.566-12.291-1.567-25.143-1.566-1.793-1.566-23.354-1.567 2.537-1.566-9.152-1.567.258-1.566-13.933-1.566 59.097-1.567 39.046-1.566 8.56-1.567-5.744-1.566-3.835-1.566-2.784-1.567 27.746-1.566-16.725-1.567-11.238-1.566-9.806-1.566-11.065-1.567-9.144-1.566-.21-1.567 11.651-1.566 15.208-1.566-17.436-1.567 23.836-1.566 16.358-1.567-6.958-1.566-2.17-1.566.112-1.567 6.317-1.566 31.6-1.567-13.532-1.566 8.654-1.566 16.162-1.567-1.228-1.566-.73-1.567-.461-1.566-6.218-1.566.94-1.567-7.489-1.566 11.424-1.567-2.073-1.566 1.27-1.566 13.6-1.567 11.132-1.566-1.086-1.567 6.778-1.566 5.57-1.566-4.333-1.567-2.83-1.566-6.587-1.567-10.122-1.566 5.79-1.566-11.716-1.567.505-1.566 6.952-1.567 6.127-1.566 5.79-1.566-7.293-1.567-12.924-1.566 6.276-1.567-2.383-1.566-1.181-1.566.85-1.567 7.159-1.566 23.782-1.567 12.96-1.566 2.83-1.566 4.437-1.567-1.883-1.566-.673-1.567-.198-1.566.198-1.566-1.527-1.567.147-1.566-4.678h-4.699l-1.567-1.93-1.566-2.282-1.567-.7-1.566 4.56-1.566.04-1.567.085-1.566.133-1.567 2.124-1.566 3.86-1.566-6.941-1.567 1.93-1.566-.061-1.567.06-1.566.191-1.566.352-1.567-7.21-1.566 5.79-1.567-1.832-1.566-.099-1.566-.048h-1.567l-1.566-1.93-1.567 6.215-1.566-3.433-1.566 1.032-1.567-.133-1.566-.085-1.567-1.97-1.566.352-1.566 2.434-1.567 4.25-1.566-1.717-1.567-.213-1.566-.09h-1.566l-1.567 1.63-1.566-2.174-1.567.117-1.566 2.357h-3.133l-1.566 1.93h-1.567l-1.566-.3-1.566.218-1.567-1.545h-4.699l-1.566-1.93-1.567 2.659-1.566-.73-1.567-2.157-1.566-.348-1.566-.081-1.567.164-1.566.455-1.567-1.069-1.566-5.79-1.566.818-1.567.06-1.566.191-1.567.352-1.566 1.93-1.566 1.152-1.567 3.385-1.566-3.18-1.567-1.657-1.566-.39-1.566-3.332-1.567-1.353-1.566.262-1.567.475-1.566-7.294-1.566-.725h-1.567l-1.566 4.585-1.567 2.282-1.566-1.93-1.566 2.345-1.567 3.86h-3.133l-1.566-1.93-1.566-2.42-1.567-.405-1.566-.298-1.567 4.638-1.566-.542h-1.566l-1.567 2.472-1.566 2.539-1.567 2.207-1.566-2.207-1.566 3.86h-1.567l-1.566.218-1.567-1.354H381.8l-1.566-1.93-1.567-.576-1.566-.218-1.567-.411-1.566-.309-1.566 1.69-1.567-.902-1.566 1.555-1.567.475-1.566-4.355-1.566-.429-1.567-.333-1.566-4.13-1.567-.765-1.566-.113-1.566.475-1.567 7.225-1.566.18-1.567.424-1.566 5.32-1.566-.73-1.567-.79-1.566-.826-1.567-1.93-1.566-2.81-1.566-.94-1.567-1.705-1.566-1.063-1.567-.308-1.566-3.427-1.566-9.046-1.567-3.177-1.566-1.211-1.567.594-1.566 3.18-1.566 2.347-1.567 6.838-1.566 6.633-1.567-1.326-1.566-4.928-1.566-2.417-1.567-5.307-1.566-4.161-1.567-1.044-1.566-10.15-1.566-.75-1.567 2.35-1.566-5.389-1.567-1.798-1.566-3.556-1.566-5.218h-3.133l-1.567-1.93-1.566 4.412-1.566-.552-1.567-1.275-1.566-2.397-1.567-2.36-1.566.367-1.566-1.736-1.567-12.543-1.566-12.28-1.567 2.382-1.566-.872-1.566 7.543-1.567-14.16-1.566-24.453-1.567-5.047-1.566 10.468-1.566-9.59-1.567-6.939-1.566-3.144-1.567 22.248-1.566 29.81-1.566 8.986-1.567-8.61-1.566 9.275-1.567 10.986-1.566 9.812-1.566 2.053-1.567 6.971-1.566 3.378-1.567 10.663-1.566 7.45-1.566 6.869h-1.567l-1.566 2.286-1.567.18-1.566.424-1.566 5.32H151.539z" id="m192b404349" style="stroke:#fff;stroke-opacity:.2"/></defs><g clip-path="url(#p12ea5b80a9)"><use style="fill:#089fff;fill-opacity:.2;stroke:#fff;stroke-opacity:.2" xlink:href="#m192b404349" y="648"/></g></g><path clip-path="url(#p12ea5b80a9)" d="m149.973 546.274 54.824.06 6.265.322 6.266.57 7.832.791 3.133.102 3.133-.237 1.566-.315 1.566-.487 1.567-.69 1.566-.928 1.567-1.202 1.566-1.513 1.566-1.856 1.567-2.22 1.566-2.602 1.567-3.001 1.566-3.412 1.566-3.803 1.567-4.168 3.133-9.267 4.699-15.197 3.133-9.983 1.566-4.611 1.566-4.205 1.567-3.693 1.566-3.081 1.567-2.366 1.566-1.571 1.566-.786 1.567-.032 1.566.672 1.567 1.267 1.566 1.735 1.566 2.074 3.133 4.734 4.7 7.421 3.132 4.592 4.7 6.36 4.699 6.442 3.132 4.608 9.399 14.482 3.133 4.114 1.566 1.77 1.566 1.555 1.567 1.32 1.566 1.078 1.567.883 3.132 1.403 6.266 2.566 6.266 2.856 3.132 1.098 1.567.393 1.566.271 3.133.215 3.133-.13 6.265-.557 3.133-.048 3.133.2 12.531 1.239 3.133.054 3.133-.154 3.133-.447 3.132-.764 3.133-1.036 10.965-4.138 3.133-.904 3.133-.709 3.132-.458 3.133-.097 3.133.32 3.133.733 4.699 1.58 4.7 1.576 3.132.833 6.266 1.343 12.53 2.553 4.7.642 4.7.376 3.132.076 3.133-.1 3.133-.284 4.699-.703 6.265-1.231 9.399-1.915 4.699-.667 3.133-.265 3.133-.095 3.132.083 4.7.427 12.53 1.472 15.665 1.27 1.566-.116 1.567-.282 1.566-.49 1.566-.728 1.567-.992 1.566-1.283 1.567-1.59 1.566-1.863 3.133-4.358 4.699-7.18 1.566-2.197 1.567-1.99 1.566-1.748 1.567-1.472 1.566-1.17 1.566-.876 1.567-.595 1.566-.33 1.567-.087 1.566.098 6.266.905 1.566-.073 1.566-.382 1.567-.709 1.566-1.034 1.567-1.36 1.566-1.674 1.566-1.952 3.133-4.541 3.133-5.144 3.133-5.705 3.133-6.29 3.132-6.89 9.399-21.734 3.133-6.276 1.566-2.737 1.566-2.423 1.567-2.075 1.566-1.709 1.567-1.393 1.566-1.143 4.7-2.905 1.566-1.234 1.566-1.56 1.566-1.858 3.133-4.376 3.133-4.682 1.566-2.044 1.567-1.592 1.566-.978 1.567-.322 1.566.348 1.566 1.001 1.567 1.53 1.566 1.9 4.7 6.384 1.566 1.86 1.566 1.483 1.567.985 1.566.465 1.566-.051 1.567-.565 1.566-1.053 1.567-1.43 3.132-3.469 3.133-3.887 3.133-4.224 3.133-4.593 3.133-5.07 4.699-7.984 1.566-2.417 1.567-2.054 1.566-1.537 1.566-.879 1.567-.141 1.566.657 1.567 1.519 1.566 2.408 1.566 3.187 1.567 3.82 1.566 4.307 6.266 18.653 1.566 4.15 1.567 3.71 1.566 3.173 1.566 2.574 1.567 2.038 1.566 1.593 1.567 1.242 1.566.983 3.133 1.55 3.133 1.565 3.132 1.85 3.133 2.036 3.133 2.329 3.133 2.762 3.133 3.24 7.832 8.967 1.566 1.486 1.566 1.246 1.567.953 1.566.631 1.567.288 1.566-.078 1.566-.455 1.567-.799 1.566-1.097 1.567-1.352 3.132-3.248 4.7-5.186 3.132-3.017 3.133-2.47 3.133-2.097 7.832-5.063 4.7-3.446h0" style="fill:none;stroke:#000;stroke-linecap:round;stroke-width:1.5" id="line2d_1"/><g id="line2d_2"><defs><path d="M0 3a3 3 0 1 0 0-6 3 3 0 0 0 0 6z" id="m091951331a" style="stroke:#4c72b0"/></defs><g clip-path="url(#p12ea5b80a9)"><use style="fill-opacity:0;stroke:#4c72b0" x="149.973" xlink:href="#m091951331a" y="546.274"/><use style="fill-opacity:0;stroke:#4c72b0" x="151.539" xlink:href="#m091951331a" y="546.274"/><use style="fill-opacity:0;stroke:#4c72b0" x="153.106" xlink:href="#m091951331a" y="546.274"/><use style="fill-opacity:0;stroke:#4c72b0" x="154.672" xlink:href="#m091951331a" y="546.274"/><use style="fill-opacity:0;stroke:#4c72b0" x="156.238" xlink:href="#m091951331a" y="546.274"/><use style="fill-opacity:0;stroke:#4c72b0" x="157.805" xlink:href="#m091951331a" y="546.274"/><use style="fill-opacity:0;stroke:#4c72b0" x="159.371" xlink:href="#m091951331a" y="546.274"/><use style="fill-opacity:0;stroke:#4c72b0" x="160.938" xlink:href="#m091951331a" y="546.274"/><use style="fill-opacity:0;stroke:#4c72b0" x="162.504" xlink:href="#m091951331a" y="546.274"/><use style="fill-opacity:0;stroke:#4c72b0" x="164.07" xlink:href="#m091951331a" y="546.274"/><use style="fill-opacity:0;stroke:#4c72b0" x="165.637" xlink:href="#m091951331a" y="546.274"/><use style="fill-opacity:0;stroke:#4c72b0" x="167.203" xlink:href="#m091951331a" y="546.274"/><use style="fill-opacity:0;stroke:#4c72b0" x="168.77" xlink:href="#m091951331a" y="546.274"/><use style="fill-opacity:0;stroke:#4c72b0" x="170.336" xlink:href="#m091951331a" y="546.274"/><use style="fill-opacity:0;stroke:#4c72b0" x="171.902" xlink:href="#m091951331a" y="546.274"/><use style="fill-opacity:0;stroke:#4c72b0" x="173.469" xlink:href="#m091951331a" y="546.274"/><use style="fill-opacity:0;stroke:#4c72b0" x="175.035" xlink:href="#m091951331a" y="546.274"/><use style="fill-opacity:0;stroke:#4c72b0" x="176.602" xlink:href="#m091951331a" y="546.274"/><use style="fill-opacity:0;stroke:#4c72b0" x="178.168" xlink:href="#m091951331a" y="546.274"/><use style="fill-opacity:0;stroke:#4c72b0" x="179.734" xlink:href="#m091951331a" y="546.274"/><use style="fill-opacity:0;stroke:#4c72b0" x="181.301" xlink:href="#m091951331a" y="546.274"/><use style="fill-opacity:0;stroke:#4c72b0" x="182.867" xlink:href="#m091951331a" y="546.274"/><use style="fill-opacity:0;stroke:#4c72b0" x="184.434" xlink:href="#m091951331a" y="546.274"/><use style="fill-opacity:0;stroke:#4c72b0" x="186" xlink:href="#m091951331a" y="546.274"/><use style="fill-opacity:0;stroke:#4c72b0" x="187.566" xlink:href="#m091951331a" y="546.274"/><use style="fill-opacity:0;stroke:#4c72b0" x="189.133" xlink:href="#m091951331a" y="546.274"/><use style="fill-opacity:0;stroke:#4c72b0" x="190.699" xlink:href="#m091951331a" y="546.274"/><use style="fill-opacity:0;stroke:#4c72b0" x="192.266" xlink:href="#m091951331a" y="546.274"/><use style="fill-opacity:0;stroke:#4c72b0" x="193.832" xlink:href="#m091951331a" y="546.274"/><use style="fill-opacity:0;stroke:#4c72b0" x="195.398" xlink:href="#m091951331a" y="546.274"/><use style="fill-opacity:0;stroke:#4c72b0" x="196.965" xlink:href="#m091951331a" y="546.274"/><use style="fill-opacity:0;stroke:#4c72b0" x="198.531" xlink:href="#m091951331a" y="546.274"/><use style="fill-opacity:0;stroke:#4c72b0" x="200.098" xlink:href="#m091951331a" y="546.274"/><use style="fill-opacity:0;stroke:#4c72b0" x="201.664" xlink:href="#m091951331a" y="546.274"/><use style="fill-opacity:0;stroke:#4c72b0" x="203.23" xlink:href="#m091951331a" y="546.274"/><use style="fill-opacity:0;stroke:#4c72b0" x="204.797" xlink:href="#m091951331a" y="546.274"/><use style="fill-opacity:0;stroke:#4c72b0" x="206.363" xlink:href="#m091951331a" y="546.274"/><use style="fill-opacity:0;stroke:#4c72b0" x="207.93" xlink:href="#m091951331a" y="546.274"/><use style="fill-opacity:0;stroke:#4c72b0" x="209.496" xlink:href="#m091951331a" y="546.274"/><use style="fill-opacity:0;stroke:#4c72b0" x="211.062" xlink:href="#m091951331a" y="546.274"/><use style="fill-opacity:0;stroke:#4c72b0" x="212.629" xlink:href="#m091951331a" y="546.274"/><use style="fill-opacity:0;stroke:#4c72b0" x="214.195" xlink:href="#m091951331a" y="546.274"/><use style="fill-opacity:0;stroke:#4c72b0" x="215.762" xlink:href="#m091951331a" y="546.274"/><use style="fill-opacity:0;stroke:#4c72b0" x="217.328" xlink:href="#m091951331a" y="546.274"/><use style="fill-opacity:0;stroke:#4c72b0" x="218.894" xlink:href="#m091951331a" y="546.274"/><use style="fill-opacity:0;stroke:#4c72b0" x="220.461" xlink:href="#m091951331a" y="546.274"/><use style="fill-opacity:0;stroke:#4c72b0" x="222.027" xlink:href="#m091951331a" y="546.274"/><use style="fill-opacity:0;stroke:#4c72b0" x="223.594" xlink:href="#m091951331a" y="546.274"/><use style="fill-opacity:0;stroke:#4c72b0" x="225.16" xlink:href="#m091951331a" y="546.274"/><use style="fill-opacity:0;stroke:#4c72b0" x="226.726" xlink:href="#m091951331a" y="546.274"/><use style="fill-opacity:0;stroke:#4c72b0" x="228.293" xlink:href="#m091951331a" y="546.274"/><use style="fill-opacity:0;stroke:#4c72b0" x="229.859" xlink:href="#m091951331a" y="546.274"/><use style="fill-opacity:0;stroke:#4c72b0" x="231.426" xlink:href="#m091951331a" y="546.274"/><use style="fill-opacity:0;stroke:#4c72b0" x="232.992" xlink:href="#m091951331a" y="546.274"/><use style="fill-opacity:0;stroke:#4c72b0" x="234.558" xlink:href="#m091951331a" y="546.274"/><use style="fill-opacity:0;stroke:#4c72b0" x="236.125" xlink:href="#m091951331a" y="546.274"/><use style="fill-opacity:0;stroke:#4c72b0" x="237.691" xlink:href="#m091951331a" y="546.274"/><use style="fill-opacity:0;stroke:#4c72b0" x="239.258" xlink:href="#m091951331a" y="546.274"/><use style="fill-opacity:0;stroke:#4c72b0" x="240.824" xlink:href="#m091951331a" y="519.254"/><use style="fill-opacity:0;stroke:#4c72b0" x="242.39" xlink:href="#m091951331a" y="546.274"/><use style="fill-opacity:0;stroke:#4c72b0" x="243.957" xlink:href="#m091951331a" y="546.274"/><use style="fill-opacity:0;stroke:#4c72b0" x="245.523" xlink:href="#m091951331a" y="532.764"/><use style="fill-opacity:0;stroke:#4c72b0" x="247.09" xlink:href="#m091951331a" y="546.274"/><use style="fill-opacity:0;stroke:#4c72b0" x="248.656" xlink:href="#m091951331a" y="505.744"/><use style="fill-opacity:0;stroke:#4c72b0" x="250.222" xlink:href="#m091951331a" y="505.744"/><use style="fill-opacity:0;stroke:#4c72b0" x="251.789" xlink:href="#m091951331a" y="465.213"/><use style="fill-opacity:0;stroke:#4c72b0" x="253.355" xlink:href="#m091951331a" y="532.764"/><use style="fill-opacity:0;stroke:#4c72b0" x="254.922" xlink:href="#m091951331a" y="505.744"/><use style="fill-opacity:0;stroke:#4c72b0" x="256.488" xlink:href="#m091951331a" y="519.254"/><use style="fill-opacity:0;stroke:#4c72b0" x="258.054" xlink:href="#m091951331a" y="478.723"/><use style="fill-opacity:0;stroke:#4c72b0" x="259.621" xlink:href="#m091951331a" y="438.193"/><use style="fill-opacity:0;stroke:#4c72b0" x="261.187" xlink:href="#m091951331a" y="451.703"/><use style="fill-opacity:0;stroke:#4c72b0" x="262.754" xlink:href="#m091951331a" y="519.254"/><use style="fill-opacity:0;stroke:#4c72b0" x="264.32" xlink:href="#m091951331a" y="465.213"/><use style="fill-opacity:0;stroke:#4c72b0" x="265.886" xlink:href="#m091951331a" y="330.112"/><use style="fill-opacity:0;stroke:#4c72b0" x="267.453" xlink:href="#m091951331a" y="397.663"/><use style="fill-opacity:0;stroke:#4c72b0" x="269.019" xlink:href="#m091951331a" y="505.744"/><use style="fill-opacity:0;stroke:#4c72b0" x="270.586" xlink:href="#m091951331a" y="478.723"/><use style="fill-opacity:0;stroke:#4c72b0" x="272.152" xlink:href="#m091951331a" y="505.744"/><use style="fill-opacity:0;stroke:#4c72b0" x="273.718" xlink:href="#m091951331a" y="411.173"/><use style="fill-opacity:0;stroke:#4c72b0" x="275.285" xlink:href="#m091951331a" y="451.703"/><use style="fill-opacity:0;stroke:#4c72b0" x="276.851" xlink:href="#m091951331a" y="519.254"/><use style="fill-opacity:0;stroke:#4c72b0" x="278.418" xlink:href="#m091951331a" y="546.274"/><use style="fill-opacity:0;stroke:#4c72b0" x="279.984" xlink:href="#m091951331a" y="465.213"/><use style="fill-opacity:0;stroke:#4c72b0" x="281.55" xlink:href="#m091951331a" y="492.234"/><use style="fill-opacity:0;stroke:#4c72b0" x="283.117" xlink:href="#m091951331a" y="492.234"/><use style="fill-opacity:0;stroke:#4c72b0" x="284.683" xlink:href="#m091951331a" y="478.723"/><use style="fill-opacity:0;stroke:#4c72b0" x="286.25" xlink:href="#m091951331a" y="478.723"/><use style="fill-opacity:0;stroke:#4c72b0" x="287.816" xlink:href="#m091951331a" y="505.744"/><use style="fill-opacity:0;stroke:#4c72b0" x="289.382" xlink:href="#m091951331a" y="546.274"/><use style="fill-opacity:0;stroke:#4c72b0" x="290.949" xlink:href="#m091951331a" y="478.723"/><use style="fill-opacity:0;stroke:#4c72b0" x="292.515" xlink:href="#m091951331a" y="505.744"/><use style="fill-opacity:0;stroke:#4c72b0" x="294.082" xlink:href="#m091951331a" y="478.723"/><use style="fill-opacity:0;stroke:#4c72b0" x="295.648" xlink:href="#m091951331a" y="478.723"/><use style="fill-opacity:0;stroke:#4c72b0" x="297.214" xlink:href="#m091951331a" y="451.703"/><use style="fill-opacity:0;stroke:#4c72b0" x="298.781" xlink:href="#m091951331a" y="519.254"/><use style="fill-opacity:0;stroke:#4c72b0" x="300.347" xlink:href="#m091951331a" y="546.274"/><use style="fill-opacity:0;stroke:#4c72b0" x="301.914" xlink:href="#m091951331a" y="478.723"/><use style="fill-opacity:0;stroke:#4c72b0" x="303.48" xlink:href="#m091951331a" y="546.274"/><use style="fill-opacity:0;stroke:#4c72b0" x="305.046" xlink:href="#m091951331a" y="519.254"/><use style="fill-opacity:0;stroke:#4c72b0" x="306.613" xlink:href="#m091951331a" y="505.744"/><use style="fill-opacity:0;stroke:#4c72b0" x="308.179" xlink:href="#m091951331a" y="505.744"/><use style="fill-opacity:0;stroke:#4c72b0" x="309.746" xlink:href="#m091951331a" y="505.744"/><use style="fill-opacity:0;stroke:#4c72b0" x="311.312" xlink:href="#m091951331a" y="546.274"/><use style="fill-opacity:0;stroke:#4c72b0" x="312.878" xlink:href="#m091951331a" y="546.274"/><use style="fill-opacity:0;stroke:#4c72b0" x="314.445" xlink:href="#m091951331a" y="546.274"/><use style="fill-opacity:0;stroke:#4c72b0" x="316.011" xlink:href="#m091951331a" y="546.274"/><use style="fill-opacity:0;stroke:#4c72b0" x="317.578" xlink:href="#m091951331a" y="546.274"/><use style="fill-opacity:0;stroke:#4c72b0" x="319.144" xlink:href="#m091951331a" y="532.764"/><use style="fill-opacity:0;stroke:#4c72b0" x="320.71" xlink:href="#m091951331a" y="546.274"/><use style="fill-opacity:0;stroke:#4c72b0" x="322.277" xlink:href="#m091951331a" y="546.274"/><use style="fill-opacity:0;stroke:#4c72b0" x="323.843" xlink:href="#m091951331a" y="492.234"/><use style="fill-opacity:0;stroke:#4c72b0" x="325.41" xlink:href="#m091951331a" y="492.234"/><use style="fill-opacity:0;stroke:#4c72b0" x="326.976" xlink:href="#m091951331a" y="532.764"/><use style="fill-opacity:0;stroke:#4c72b0" x="328.542" xlink:href="#m091951331a" y="532.764"/><use style="fill-opacity:0;stroke:#4c72b0" x="330.109" xlink:href="#m091951331a" y="532.764"/><use style="fill-opacity:0;stroke:#4c72b0" x="331.675" xlink:href="#m091951331a" y="546.274"/><use style="fill-opacity:0;stroke:#4c72b0" x="333.242" xlink:href="#m091951331a" y="546.274"/><use style="fill-opacity:0;stroke:#4c72b0" x="334.808" xlink:href="#m091951331a" y="546.274"/><use style="fill-opacity:0;stroke:#4c72b0" x="336.374" xlink:href="#m091951331a" y="532.764"/><use style="fill-opacity:0;stroke:#4c72b0" x="337.941" xlink:href="#m091951331a" y="546.274"/><use style="fill-opacity:0;stroke:#4c72b0" x="339.507" xlink:href="#m091951331a" y="546.274"/><use style="fill-opacity:0;stroke:#4c72b0" x="341.074" xlink:href="#m091951331a" y="546.274"/><use style="fill-opacity:0;stroke:#4c72b0" x="342.64" xlink:href="#m091951331a" y="546.274"/><use style="fill-opacity:0;stroke:#4c72b0" x="344.206" xlink:href="#m091951331a" y="546.274"/><use style="fill-opacity:0;stroke:#4c72b0" x="345.773" xlink:href="#m091951331a" y="546.274"/><use style="fill-opacity:0;stroke:#4c72b0" x="347.339" xlink:href="#m091951331a" y="532.764"/><use style="fill-opacity:0;stroke:#4c72b0" x="348.906" xlink:href="#m091951331a" y="546.274"/><use style="fill-opacity:0;stroke:#4c72b0" x="350.472" xlink:href="#m091951331a" y="546.274"/><use style="fill-opacity:0;stroke:#4c72b0" x="352.038" xlink:href="#m091951331a" y="519.254"/><use style="fill-opacity:0;stroke:#4c72b0" x="353.605" xlink:href="#m091951331a" y="546.274"/><use style="fill-opacity:0;stroke:#4c72b0" x="355.171" xlink:href="#m091951331a" y="546.274"/><use style="fill-opacity:0;stroke:#4c72b0" x="356.738" xlink:href="#m091951331a" y="505.744"/><use style="fill-opacity:0;stroke:#4c72b0" x="358.304" xlink:href="#m091951331a" y="532.764"/><use style="fill-opacity:0;stroke:#4c72b0" x="359.87" xlink:href="#m091951331a" y="546.274"/><use style="fill-opacity:0;stroke:#4c72b0" x="361.437" xlink:href="#m091951331a" y="546.274"/><use style="fill-opacity:0;stroke:#4c72b0" x="363.003" xlink:href="#m091951331a" y="546.274"/><use style="fill-opacity:0;stroke:#4c72b0" x="364.57" xlink:href="#m091951331a" y="546.274"/><use style="fill-opacity:0;stroke:#4c72b0" x="366.136" xlink:href="#m091951331a" y="546.274"/><use style="fill-opacity:0;stroke:#4c72b0" x="367.702" xlink:href="#m091951331a" y="546.274"/><use style="fill-opacity:0;stroke:#4c72b0" x="369.269" xlink:href="#m091951331a" y="532.764"/><use style="fill-opacity:0;stroke:#4c72b0" x="370.835" xlink:href="#m091951331a" y="532.764"/><use style="fill-opacity:0;stroke:#4c72b0" x="372.402" xlink:href="#m091951331a" y="546.274"/><use style="fill-opacity:0;stroke:#4c72b0" x="373.968" xlink:href="#m091951331a" y="532.764"/><use style="fill-opacity:0;stroke:#4c72b0" x="375.534" xlink:href="#m091951331a" y="546.274"/><use style="fill-opacity:0;stroke:#4c72b0" x="377.101" xlink:href="#m091951331a" y="546.274"/><use style="fill-opacity:0;stroke:#4c72b0" x="378.667" xlink:href="#m091951331a" y="546.274"/><use style="fill-opacity:0;stroke:#4c72b0" x="380.234" xlink:href="#m091951331a" y="532.764"/><use style="fill-opacity:0;stroke:#4c72b0" x="381.8" xlink:href="#m091951331a" y="546.274"/><use style="fill-opacity:0;stroke:#4c72b0" x="383.366" xlink:href="#m091951331a" y="546.274"/><use style="fill-opacity:0;stroke:#4c72b0" x="384.933" xlink:href="#m091951331a" y="546.274"/><use style="fill-opacity:0;stroke:#4c72b0" x="386.499" xlink:href="#m091951331a" y="546.274"/><use style="fill-opacity:0;stroke:#4c72b0" x="388.066" xlink:href="#m091951331a" y="546.274"/><use style="fill-opacity:0;stroke:#4c72b0" x="389.632" xlink:href="#m091951331a" y="519.254"/><use style="fill-opacity:0;stroke:#4c72b0" x="391.198" xlink:href="#m091951331a" y="546.274"/><use style="fill-opacity:0;stroke:#4c72b0" x="392.765" xlink:href="#m091951331a" y="532.764"/><use style="fill-opacity:0;stroke:#4c72b0" x="394.331" xlink:href="#m091951331a" y="532.764"/><use style="fill-opacity:0;stroke:#4c72b0" x="395.898" xlink:href="#m091951331a" y="532.764"/><use style="fill-opacity:0;stroke:#4c72b0" x="397.464" xlink:href="#m091951331a" y="546.274"/><use style="fill-opacity:0;stroke:#4c72b0" x="399.03" xlink:href="#m091951331a" y="546.274"/><use style="fill-opacity:0;stroke:#4c72b0" x="400.597" xlink:href="#m091951331a" y="492.234"/><use style="fill-opacity:0;stroke:#4c72b0" x="402.163" xlink:href="#m091951331a" y="546.274"/><use style="fill-opacity:0;stroke:#4c72b0" x="403.73" xlink:href="#m091951331a" y="532.764"/><use style="fill-opacity:0;stroke:#4c72b0" x="405.296" xlink:href="#m091951331a" y="546.274"/><use style="fill-opacity:0;stroke:#4c72b0" x="406.862" xlink:href="#m091951331a" y="546.274"/><use style="fill-opacity:0;stroke:#4c72b0" x="408.429" xlink:href="#m091951331a" y="546.274"/><use style="fill-opacity:0;stroke:#4c72b0" x="409.995" xlink:href="#m091951331a" y="546.274"/><use style="fill-opacity:0;stroke:#4c72b0" x="411.562" xlink:href="#m091951331a" y="465.213"/><use style="fill-opacity:0;stroke:#4c72b0" x="413.128" xlink:href="#m091951331a" y="532.764"/><use style="fill-opacity:0;stroke:#4c72b0" x="414.694" xlink:href="#m091951331a" y="546.274"/><use style="fill-opacity:0;stroke:#4c72b0" x="416.261" xlink:href="#m091951331a" y="532.764"/><use style="fill-opacity:0;stroke:#4c72b0" x="417.827" xlink:href="#m091951331a" y="519.254"/><use style="fill-opacity:0;stroke:#4c72b0" x="419.394" xlink:href="#m091951331a" y="546.274"/><use style="fill-opacity:0;stroke:#4c72b0" x="420.96" xlink:href="#m091951331a" y="546.274"/><use style="fill-opacity:0;stroke:#4c72b0" x="422.526" xlink:href="#m091951331a" y="519.254"/><use style="fill-opacity:0;stroke:#4c72b0" x="424.093" xlink:href="#m091951331a" y="532.764"/><use style="fill-opacity:0;stroke:#4c72b0" x="425.659" xlink:href="#m091951331a" y="546.274"/><use style="fill-opacity:0;stroke:#4c72b0" x="427.226" xlink:href="#m091951331a" y="546.274"/><use style="fill-opacity:0;stroke:#4c72b0" x="428.792" xlink:href="#m091951331a" y="546.274"/><use style="fill-opacity:0;stroke:#4c72b0" x="430.358" xlink:href="#m091951331a" y="546.274"/><use style="fill-opacity:0;stroke:#4c72b0" x="431.925" xlink:href="#m091951331a" y="546.274"/><use style="fill-opacity:0;stroke:#4c72b0" x="433.491" xlink:href="#m091951331a" y="546.274"/><use style="fill-opacity:0;stroke:#4c72b0" x="435.058" xlink:href="#m091951331a" y="505.744"/><use style="fill-opacity:0;stroke:#4c72b0" x="436.624" xlink:href="#m091951331a" y="532.764"/><use style="fill-opacity:0;stroke:#4c72b0" x="438.19" xlink:href="#m091951331a" y="532.764"/><use style="fill-opacity:0;stroke:#4c72b0" x="439.757" xlink:href="#m091951331a" y="546.274"/><use style="fill-opacity:0;stroke:#4c72b0" x="441.323" xlink:href="#m091951331a" y="546.274"/><use style="fill-opacity:0;stroke:#4c72b0" x="442.89" xlink:href="#m091951331a" y="546.274"/><use style="fill-opacity:0;stroke:#4c72b0" x="444.456" xlink:href="#m091951331a" y="532.764"/><use style="fill-opacity:0;stroke:#4c72b0" x="446.022" xlink:href="#m091951331a" y="546.274"/><use style="fill-opacity:0;stroke:#4c72b0" x="447.589" xlink:href="#m091951331a" y="546.274"/><use style="fill-opacity:0;stroke:#4c72b0" x="449.155" xlink:href="#m091951331a" y="532.764"/><use style="fill-opacity:0;stroke:#4c72b0" x="450.722" xlink:href="#m091951331a" y="546.274"/><use style="fill-opacity:0;stroke:#4c72b0" x="452.288" xlink:href="#m091951331a" y="546.274"/><use style="fill-opacity:0;stroke:#4c72b0" x="453.854" xlink:href="#m091951331a" y="546.274"/><use style="fill-opacity:0;stroke:#4c72b0" x="455.421" xlink:href="#m091951331a" y="532.764"/><use style="fill-opacity:0;stroke:#4c72b0" x="456.987" xlink:href="#m091951331a" y="546.274"/><use style="fill-opacity:0;stroke:#4c72b0" x="458.554" xlink:href="#m091951331a" y="532.764"/><use style="fill-opacity:0;stroke:#4c72b0" x="460.12" xlink:href="#m091951331a" y="546.274"/><use style="fill-opacity:0;stroke:#4c72b0" x="461.686" xlink:href="#m091951331a" y="546.274"/><use style="fill-opacity:0;stroke:#4c72b0" x="463.253" xlink:href="#m091951331a" y="546.274"/><use style="fill-opacity:0;stroke:#4c72b0" x="464.819" xlink:href="#m091951331a" y="546.274"/><use style="fill-opacity:0;stroke:#4c72b0" x="466.386" xlink:href="#m091951331a" y="546.274"/><use style="fill-opacity:0;stroke:#4c72b0" x="467.952" xlink:href="#m091951331a" y="546.274"/><use style="fill-opacity:0;stroke:#4c72b0" x="469.518" xlink:href="#m091951331a" y="532.764"/><use style="fill-opacity:0;stroke:#4c72b0" x="471.085" xlink:href="#m091951331a" y="546.274"/><use style="fill-opacity:0;stroke:#4c72b0" x="472.651" xlink:href="#m091951331a" y="532.764"/><use style="fill-opacity:0;stroke:#4c72b0" x="474.218" xlink:href="#m091951331a" y="546.274"/><use style="fill-opacity:0;stroke:#4c72b0" x="475.784" xlink:href="#m091951331a" y="546.274"/><use style="fill-opacity:0;stroke:#4c72b0" x="477.35" xlink:href="#m091951331a" y="532.764"/><use style="fill-opacity:0;stroke:#4c72b0" x="478.917" xlink:href="#m091951331a" y="546.274"/><use style="fill-opacity:0;stroke:#4c72b0" x="480.483" xlink:href="#m091951331a" y="546.274"/><use style="fill-opacity:0;stroke:#4c72b0" x="482.05" xlink:href="#m091951331a" y="532.764"/><use style="fill-opacity:0;stroke:#4c72b0" x="483.616" xlink:href="#m091951331a" y="532.764"/><use style="fill-opacity:0;stroke:#4c72b0" x="485.182" xlink:href="#m091951331a" y="546.274"/><use style="fill-opacity:0;stroke:#4c72b0" x="486.749" xlink:href="#m091951331a" y="546.274"/><use style="fill-opacity:0;stroke:#4c72b0" x="488.315" xlink:href="#m091951331a" y="546.274"/><use style="fill-opacity:0;stroke:#4c72b0" x="489.882" xlink:href="#m091951331a" y="519.254"/><use style="fill-opacity:0;stroke:#4c72b0" x="491.448" xlink:href="#m091951331a" y="532.764"/><use style="fill-opacity:0;stroke:#4c72b0" x="493.014" xlink:href="#m091951331a" y="532.764"/><use style="fill-opacity:0;stroke:#4c72b0" x="494.581" xlink:href="#m091951331a" y="546.274"/><use style="fill-opacity:0;stroke:#4c72b0" x="496.147" xlink:href="#m091951331a" y="546.274"/><use style="fill-opacity:0;stroke:#4c72b0" x="497.714" xlink:href="#m091951331a" y="546.274"/><use style="fill-opacity:0;stroke:#4c72b0" x="499.28" xlink:href="#m091951331a" y="532.764"/><use style="fill-opacity:0;stroke:#4c72b0" x="500.846" xlink:href="#m091951331a" y="546.274"/><use style="fill-opacity:0;stroke:#4c72b0" x="502.413" xlink:href="#m091951331a" y="492.234"/><use style="fill-opacity:0;stroke:#4c72b0" x="503.979" xlink:href="#m091951331a" y="546.274"/><use style="fill-opacity:0;stroke:#4c72b0" x="505.546" xlink:href="#m091951331a" y="546.274"/><use style="fill-opacity:0;stroke:#4c72b0" x="507.112" xlink:href="#m091951331a" y="546.274"/><use style="fill-opacity:0;stroke:#4c72b0" x="508.678" xlink:href="#m091951331a" y="546.274"/><use style="fill-opacity:0;stroke:#4c72b0" x="510.245" xlink:href="#m091951331a" y="546.274"/><use style="fill-opacity:0;stroke:#4c72b0" x="511.811" xlink:href="#m091951331a" y="505.744"/><use style="fill-opacity:0;stroke:#4c72b0" x="513.378" xlink:href="#m091951331a" y="546.274"/><use style="fill-opacity:0;stroke:#4c72b0" x="514.944" xlink:href="#m091951331a" y="546.274"/><use style="fill-opacity:0;stroke:#4c72b0" x="516.51" xlink:href="#m091951331a" y="546.274"/><use style="fill-opacity:0;stroke:#4c72b0" x="518.077" xlink:href="#m091951331a" y="546.274"/><use style="fill-opacity:0;stroke:#4c72b0" x="519.643" xlink:href="#m091951331a" y="546.274"/><use style="fill-opacity:0;stroke:#4c72b0" x="521.21" xlink:href="#m091951331a" y="532.764"/><use style="fill-opacity:0;stroke:#4c72b0" x="522.776" xlink:href="#m091951331a" y="546.274"/><use style="fill-opacity:0;stroke:#4c72b0" x="524.342" xlink:href="#m091951331a" y="519.254"/><use style="fill-opacity:0;stroke:#4c72b0" x="525.909" xlink:href="#m091951331a" y="532.764"/><use style="fill-opacity:0;stroke:#4c72b0" x="527.475" xlink:href="#m091951331a" y="546.274"/><use style="fill-opacity:0;stroke:#4c72b0" x="529.042" xlink:href="#m091951331a" y="546.274"/><use style="fill-opacity:0;stroke:#4c72b0" x="530.608" xlink:href="#m091951331a" y="546.274"/><use style="fill-opacity:0;stroke:#4c72b0" x="532.174" xlink:href="#m091951331a" y="505.744"/><use style="fill-opacity:0;stroke:#4c72b0" x="533.741" xlink:href="#m091951331a" y="546.274"/><use style="fill-opacity:0;stroke:#4c72b0" x="535.307" xlink:href="#m091951331a" y="532.764"/><use style="fill-opacity:0;stroke:#4c72b0" x="536.874" xlink:href="#m091951331a" y="546.274"/><use style="fill-opacity:0;stroke:#4c72b0" x="538.44" xlink:href="#m091951331a" y="546.274"/><use style="fill-opacity:0;stroke:#4c72b0" x="540.006" xlink:href="#m091951331a" y="546.274"/><use style="fill-opacity:0;stroke:#4c72b0" x="541.573" xlink:href="#m091951331a" y="546.274"/><use style="fill-opacity:0;stroke:#4c72b0" x="543.139" xlink:href="#m091951331a" y="546.274"/><use style="fill-opacity:0;stroke:#4c72b0" x="544.706" xlink:href="#m091951331a" y="546.274"/><use style="fill-opacity:0;stroke:#4c72b0" x="546.272" xlink:href="#m091951331a" y="546.274"/><use style="fill-opacity:0;stroke:#4c72b0" x="547.838" xlink:href="#m091951331a" y="546.274"/><use style="fill-opacity:0;stroke:#4c72b0" x="549.405" xlink:href="#m091951331a" y="546.274"/><use style="fill-opacity:0;stroke:#4c72b0" x="550.971" xlink:href="#m091951331a" y="546.274"/><use style="fill-opacity:0;stroke:#4c72b0" x="552.538" xlink:href="#m091951331a" y="546.274"/><use style="fill-opacity:0;stroke:#4c72b0" x="554.104" xlink:href="#m091951331a" y="519.254"/><use style="fill-opacity:0;stroke:#4c72b0" x="555.67" xlink:href="#m091951331a" y="532.764"/><use style="fill-opacity:0;stroke:#4c72b0" x="557.237" xlink:href="#m091951331a" y="478.723"/><use style="fill-opacity:0;stroke:#4c72b0" x="558.803" xlink:href="#m091951331a" y="424.683"/><use style="fill-opacity:0;stroke:#4c72b0" x="560.37" xlink:href="#m091951331a" y="519.254"/><use style="fill-opacity:0;stroke:#4c72b0" x="561.936" xlink:href="#m091951331a" y="546.274"/><use style="fill-opacity:0;stroke:#4c72b0" x="563.502" xlink:href="#m091951331a" y="546.274"/><use style="fill-opacity:0;stroke:#4c72b0" x="565.069" xlink:href="#m091951331a" y="519.254"/><use style="fill-opacity:0;stroke:#4c72b0" x="566.635" xlink:href="#m091951331a" y="465.213"/><use style="fill-opacity:0;stroke:#4c72b0" x="568.202" xlink:href="#m091951331a" y="532.764"/><use style="fill-opacity:0;stroke:#4c72b0" x="569.768" xlink:href="#m091951331a" y="478.723"/><use style="fill-opacity:0;stroke:#4c72b0" x="571.334" xlink:href="#m091951331a" y="478.723"/><use style="fill-opacity:0;stroke:#4c72b0" x="572.901" xlink:href="#m091951331a" y="505.744"/><use style="fill-opacity:0;stroke:#4c72b0" x="574.467" xlink:href="#m091951331a" y="505.744"/><use style="fill-opacity:0;stroke:#4c72b0" x="576.034" xlink:href="#m091951331a" y="519.254"/><use style="fill-opacity:0;stroke:#4c72b0" x="577.6" xlink:href="#m091951331a" y="546.274"/><use style="fill-opacity:0;stroke:#4c72b0" x="579.166" xlink:href="#m091951331a" y="492.234"/><use style="fill-opacity:0;stroke:#4c72b0" x="580.733" xlink:href="#m091951331a" y="546.274"/><use style="fill-opacity:0;stroke:#4c72b0" x="582.299" xlink:href="#m091951331a" y="546.274"/><use style="fill-opacity:0;stroke:#4c72b0" x="583.866" xlink:href="#m091951331a" y="546.274"/><use style="fill-opacity:0;stroke:#4c72b0" x="585.432" xlink:href="#m091951331a" y="546.274"/><use style="fill-opacity:0;stroke:#4c72b0" x="586.998" xlink:href="#m091951331a" y="465.213"/><use style="fill-opacity:0;stroke:#4c72b0" x="588.565" xlink:href="#m091951331a" y="492.234"/><use style="fill-opacity:0;stroke:#4c72b0" x="590.131" xlink:href="#m091951331a" y="478.723"/><use style="fill-opacity:0;stroke:#4c72b0" x="591.698" xlink:href="#m091951331a" y="478.723"/><use style="fill-opacity:0;stroke:#4c72b0" x="593.264" xlink:href="#m091951331a" y="478.723"/><use style="fill-opacity:0;stroke:#4c72b0" x="594.83" xlink:href="#m091951331a" y="546.274"/><use style="fill-opacity:0;stroke:#4c72b0" x="596.397" xlink:href="#m091951331a" y="546.274"/><use style="fill-opacity:0;stroke:#4c72b0" x="597.963" xlink:href="#m091951331a" y="384.153"/><use style="fill-opacity:0;stroke:#4c72b0" x="599.53" xlink:href="#m091951331a" y="532.764"/><use style="fill-opacity:0;stroke:#4c72b0" x="601.096" xlink:href="#m091951331a" y="451.703"/><use style="fill-opacity:0;stroke:#4c72b0" x="602.662" xlink:href="#m091951331a" y="505.744"/><use style="fill-opacity:0;stroke:#4c72b0" x="604.229" xlink:href="#m091951331a" y="478.723"/><use style="fill-opacity:0;stroke:#4c72b0" x="605.795" xlink:href="#m091951331a" y="546.274"/><use style="fill-opacity:0;stroke:#4c72b0" x="607.362" xlink:href="#m091951331a" y="546.274"/><use style="fill-opacity:0;stroke:#4c72b0" x="608.928" xlink:href="#m091951331a" y="289.582"/><use style="fill-opacity:0;stroke:#4c72b0" x="610.494" xlink:href="#m091951331a" y="492.234"/><use style="fill-opacity:0;stroke:#4c72b0" x="612.061" xlink:href="#m091951331a" y="546.274"/><use style="fill-opacity:0;stroke:#4c72b0" x="613.627" xlink:href="#m091951331a" y="316.602"/><use style="fill-opacity:0;stroke:#4c72b0" x="615.194" xlink:href="#m091951331a" y="451.703"/><use style="fill-opacity:0;stroke:#4c72b0" x="616.76" xlink:href="#m091951331a" y="546.274"/><use style="fill-opacity:0;stroke:#4c72b0" x="618.326" xlink:href="#m091951331a" y="546.274"/><use style="fill-opacity:0;stroke:#4c72b0" x="619.893" xlink:href="#m091951331a" y="330.112"/><use style="fill-opacity:0;stroke:#4c72b0" x="621.459" xlink:href="#m091951331a" y="384.153"/><use style="fill-opacity:0;stroke:#4c72b0" x="623.026" xlink:href="#m091951331a" y="384.153"/><use style="fill-opacity:0;stroke:#4c72b0" x="624.592" xlink:href="#m091951331a" y="438.193"/><use style="fill-opacity:0;stroke:#4c72b0" x="626.158" xlink:href="#m091951331a" y="357.132"/><use style="fill-opacity:0;stroke:#4c72b0" x="627.725" xlink:href="#m091951331a" y="478.723"/><use style="fill-opacity:0;stroke:#4c72b0" x="629.291" xlink:href="#m091951331a" y="546.274"/><use style="fill-opacity:0;stroke:#4c72b0" x="630.858" xlink:href="#m091951331a" y="357.132"/><use style="fill-opacity:0;stroke:#4c72b0" x="632.424" xlink:href="#m091951331a" y="438.193"/><use style="fill-opacity:0;stroke:#4c72b0" x="633.99" xlink:href="#m091951331a" y="465.213"/><use style="fill-opacity:0;stroke:#4c72b0" x="635.557" xlink:href="#m091951331a" y="546.274"/><use style="fill-opacity:0;stroke:#4c72b0" x="637.123" xlink:href="#m091951331a" y="546.274"/><use style="fill-opacity:0;stroke:#4c72b0" x="638.69" xlink:href="#m091951331a" y="276.072"/><use style="fill-opacity:0;stroke:#4c72b0" x="640.256" xlink:href="#m091951331a" y="546.274"/><use style="fill-opacity:0;stroke:#4c72b0" x="641.822" xlink:href="#m091951331a" y="357.132"/><use style="fill-opacity:0;stroke:#4c72b0" x="643.389" xlink:href="#m091951331a" y="451.703"/><use style="fill-opacity:0;stroke:#4c72b0" x="644.955" xlink:href="#m091951331a" y="397.663"/><use style="fill-opacity:0;stroke:#4c72b0" x="646.522" xlink:href="#m091951331a" y="330.112"/><use style="fill-opacity:0;stroke:#4c72b0" x="648.088" xlink:href="#m091951331a" y="222.031"/><use style="fill-opacity:0;stroke:#4c72b0" x="649.654" xlink:href="#m091951331a" y="397.663"/><use style="fill-opacity:0;stroke:#4c72b0" x="651.221" xlink:href="#m091951331a" y="546.274"/><use style="fill-opacity:0;stroke:#4c72b0" x="652.787" xlink:href="#m091951331a" y="397.663"/><use style="fill-opacity:0;stroke:#4c72b0" x="654.354" xlink:href="#m091951331a" y="384.153"/><use style="fill-opacity:0;stroke:#4c72b0" x="655.92" xlink:href="#m091951331a" y="478.723"/><use style="fill-opacity:0;stroke:#4c72b0" x="657.486" xlink:href="#m091951331a" y="303.092"/><use style="fill-opacity:0;stroke:#4c72b0" x="659.053" xlink:href="#m091951331a" y="424.683"/><use style="fill-opacity:0;stroke:#4c72b0" x="660.619" xlink:href="#m091951331a" y="546.274"/><use style="fill-opacity:0;stroke:#4c72b0" x="662.186" xlink:href="#m091951331a" y="546.274"/><use style="fill-opacity:0;stroke:#4c72b0" x="663.752" xlink:href="#m091951331a" y="357.132"/><use style="fill-opacity:0;stroke:#4c72b0" x="665.318" xlink:href="#m091951331a" y="424.683"/><use style="fill-opacity:0;stroke:#4c72b0" x="666.885" xlink:href="#m091951331a" y="451.703"/><use style="fill-opacity:0;stroke:#4c72b0" x="668.451" xlink:href="#m091951331a" y="546.274"/><use style="fill-opacity:0;stroke:#4c72b0" x="670.018" xlink:href="#m091951331a" y="316.602"/><use style="fill-opacity:0;stroke:#4c72b0" x="671.584" xlink:href="#m091951331a" y="546.274"/><use style="fill-opacity:0;stroke:#4c72b0" x="673.15" xlink:href="#m091951331a" y="546.274"/><use style="fill-opacity:0;stroke:#4c72b0" x="674.717" xlink:href="#m091951331a" y="181.501"/><use style="fill-opacity:0;stroke:#4c72b0" x="676.283" xlink:href="#m091951331a" y="451.703"/><use style="fill-opacity:0;stroke:#4c72b0" x="677.85" xlink:href="#m091951331a" y="181.501"/><use style="fill-opacity:0;stroke:#4c72b0" x="679.416" xlink:href="#m091951331a" y="478.723"/><use style="fill-opacity:0;stroke:#4c72b0" x="680.982" xlink:href="#m091951331a" y="546.274"/><use style="fill-opacity:0;stroke:#4c72b0" x="682.549" xlink:href="#m091951331a" y="546.274"/><use style="fill-opacity:0;stroke:#4c72b0" x="684.115" xlink:href="#m091951331a" y="546.274"/><use style="fill-opacity:0;stroke:#4c72b0" x="685.682" xlink:href="#m091951331a" y="140.97"/><use style="fill-opacity:0;stroke:#4c72b0" x="687.248" xlink:href="#m091951331a" y="478.723"/><use style="fill-opacity:0;stroke:#4c72b0" x="688.814" xlink:href="#m091951331a" y="289.582"/><use style="fill-opacity:0;stroke:#4c72b0" x="690.381" xlink:href="#m091951331a" y="397.663"/><use style="fill-opacity:0;stroke:#4c72b0" x="691.947" xlink:href="#m091951331a" y="546.274"/><use style="fill-opacity:0;stroke:#4c72b0" x="693.514" xlink:href="#m091951331a" y="546.274"/><use style="fill-opacity:0;stroke:#4c72b0" x="695.08" xlink:href="#m091951331a" y="546.274"/><use style="fill-opacity:0;stroke:#4c72b0" x="696.646" xlink:href="#m091951331a" y="100.44"/><use style="fill-opacity:0;stroke:#4c72b0" x="698.213" xlink:href="#m091951331a" y="303.092"/><use style="fill-opacity:0;stroke:#4c72b0" x="699.779" xlink:href="#m091951331a" y="357.132"/><use style="fill-opacity:0;stroke:#4c72b0" x="701.346" xlink:href="#m091951331a" y="343.622"/><use style="fill-opacity:0;stroke:#4c72b0" x="702.912" xlink:href="#m091951331a" y="384.153"/><use style="fill-opacity:0;stroke:#4c72b0" x="704.478" xlink:href="#m091951331a" y="411.173"/><use style="fill-opacity:0;stroke:#4c72b0" x="706.045" xlink:href="#m091951331a" y="546.274"/><use style="fill-opacity:0;stroke:#4c72b0" x="707.611" xlink:href="#m091951331a" y="249.051"/><use style="fill-opacity:0;stroke:#4c72b0" x="709.178" xlink:href="#m091951331a" y="397.663"/><use style="fill-opacity:0;stroke:#4c72b0" x="710.744" xlink:href="#m091951331a" y="343.622"/><use style="fill-opacity:0;stroke:#4c72b0" x="712.31" xlink:href="#m091951331a" y="411.173"/><use style="fill-opacity:0;stroke:#4c72b0" x="713.877" xlink:href="#m091951331a" y="411.173"/><use style="fill-opacity:0;stroke:#4c72b0" x="715.443" xlink:href="#m091951331a" y="546.274"/><use style="fill-opacity:0;stroke:#4c72b0" x="717.01" xlink:href="#m091951331a" y="546.274"/><use style="fill-opacity:0;stroke:#4c72b0" x="718.576" xlink:href="#m091951331a" y="546.274"/><use style="fill-opacity:0;stroke:#4c72b0" x="720.142" xlink:href="#m091951331a" y="262.561"/><use style="fill-opacity:0;stroke:#4c72b0" x="721.709" xlink:href="#m091951331a" y="411.173"/><use style="fill-opacity:0;stroke:#4c72b0" x="723.275" xlink:href="#m091951331a" y="492.234"/><use style="fill-opacity:0;stroke:#4c72b0" x="724.842" xlink:href="#m091951331a" y="505.744"/><use style="fill-opacity:0;stroke:#4c72b0" x="726.408" xlink:href="#m091951331a" y="546.274"/><use style="fill-opacity:0;stroke:#4c72b0" x="727.974" xlink:href="#m091951331a" y="546.274"/><use style="fill-opacity:0;stroke:#4c72b0" x="729.541" xlink:href="#m091951331a" y="127.46"/><use style="fill-opacity:0;stroke:#4c72b0" x="731.107" xlink:href="#m091951331a" y="492.234"/><use style="fill-opacity:0;stroke:#4c72b0" x="732.674" xlink:href="#m091951331a" y="465.213"/><use style="fill-opacity:0;stroke:#4c72b0" x="734.24" xlink:href="#m091951331a" y="465.213"/><use style="fill-opacity:0;stroke:#4c72b0" x="735.806" xlink:href="#m091951331a" y="330.112"/><use style="fill-opacity:0;stroke:#4c72b0" x="737.373" xlink:href="#m091951331a" y="478.723"/><use style="fill-opacity:0;stroke:#4c72b0" x="738.939" xlink:href="#m091951331a" y="546.274"/><use style="fill-opacity:0;stroke:#4c72b0" x="740.506" xlink:href="#m091951331a" y="546.274"/><use style="fill-opacity:0;stroke:#4c72b0" x="742.072" xlink:href="#m091951331a" y="546.274"/><use style="fill-opacity:0;stroke:#4c72b0" x="743.638" xlink:href="#m091951331a" y="195.011"/><use style="fill-opacity:0;stroke:#4c72b0" x="745.205" xlink:href="#m091951331a" y="438.193"/><use style="fill-opacity:0;stroke:#4c72b0" x="746.771" xlink:href="#m091951331a" y="451.703"/><use style="fill-opacity:0;stroke:#4c72b0" x="748.338" xlink:href="#m091951331a" y="546.274"/><use style="fill-opacity:0;stroke:#4c72b0" x="749.904" xlink:href="#m091951331a" y="546.274"/><use style="fill-opacity:0;stroke:#4c72b0" x="751.47" xlink:href="#m091951331a" y="330.112"/><use style="fill-opacity:0;stroke:#4c72b0" x="753.037" xlink:href="#m091951331a" y="451.703"/><use style="fill-opacity:0;stroke:#4c72b0" x="754.603" xlink:href="#m091951331a" y="478.723"/><use style="fill-opacity:0;stroke:#4c72b0" x="756.17" xlink:href="#m091951331a" y="465.213"/><use style="fill-opacity:0;stroke:#4c72b0" x="757.736" xlink:href="#m091951331a" y="478.723"/><use style="fill-opacity:0;stroke:#4c72b0" x="759.302" xlink:href="#m091951331a" y="451.703"/><use style="fill-opacity:0;stroke:#4c72b0" x="760.869" xlink:href="#m091951331a" y="546.274"/><use style="fill-opacity:0;stroke:#4c72b0" x="762.435" xlink:href="#m091951331a" y="546.274"/><use style="fill-opacity:0;stroke:#4c72b0" x="764.002" xlink:href="#m091951331a" y="357.132"/><use style="fill-opacity:0;stroke:#4c72b0" x="765.568" xlink:href="#m091951331a" y="478.723"/><use style="fill-opacity:0;stroke:#4c72b0" x="767.134" xlink:href="#m091951331a" y="505.744"/><use style="fill-opacity:0;stroke:#4c72b0" x="768.701" xlink:href="#m091951331a" y="478.723"/><use style="fill-opacity:0;stroke:#4c72b0" x="770.267" xlink:href="#m091951331a" y="546.274"/><use style="fill-opacity:0;stroke:#4c72b0" x="771.834" xlink:href="#m091951331a" y="451.703"/><use style="fill-opacity:0;stroke:#4c72b0" x="773.4" xlink:href="#m091951331a" y="492.234"/><use style="fill-opacity:0;stroke:#4c72b0" x="774.966" xlink:href="#m091951331a" y="465.213"/><use style="fill-opacity:0;stroke:#4c72b0" x="776.533" xlink:href="#m091951331a" y="492.234"/><use style="fill-opacity:0;stroke:#4c72b0" x="778.099" xlink:href="#m091951331a" y="370.642"/><use style="fill-opacity:0;stroke:#4c72b0" x="779.666" xlink:href="#m091951331a" y="424.683"/><use style="fill-opacity:0;stroke:#4c72b0" x="781.232" xlink:href="#m091951331a" y="546.274"/><use style="fill-opacity:0;stroke:#4c72b0" x="782.798" xlink:href="#m091951331a" y="546.274"/><use style="fill-opacity:0;stroke:#4c72b0" x="784.365" xlink:href="#m091951331a" y="330.112"/><use style="fill-opacity:0;stroke:#4c72b0" x="785.931" xlink:href="#m091951331a" y="411.173"/><use style="fill-opacity:0;stroke:#4c72b0" x="787.498" xlink:href="#m091951331a" y="465.213"/><use style="fill-opacity:0;stroke:#4c72b0" x="789.064" xlink:href="#m091951331a" y="505.744"/><use style="fill-opacity:0;stroke:#4c72b0" x="790.63" xlink:href="#m091951331a" y="357.132"/><use style="fill-opacity:0;stroke:#4c72b0" x="792.197" xlink:href="#m091951331a" y="546.274"/><use style="fill-opacity:0;stroke:#4c72b0" x="793.763" xlink:href="#m091951331a" y="546.274"/><use style="fill-opacity:0;stroke:#4c72b0" x="795.33" xlink:href="#m091951331a" y="357.132"/><use style="fill-opacity:0;stroke:#4c72b0" x="796.896" xlink:href="#m091951331a" y="492.234"/><use style="fill-opacity:0;stroke:#4c72b0" x="798.462" xlink:href="#m091951331a" y="438.193"/><use style="fill-opacity:0;stroke:#4c72b0" x="800.029" xlink:href="#m091951331a" y="357.132"/><use style="fill-opacity:0;stroke:#4c72b0" x="801.595" xlink:href="#m091951331a" y="478.723"/><use style="fill-opacity:0;stroke:#4c72b0" x="803.162" xlink:href="#m091951331a" y="546.274"/><use style="fill-opacity:0;stroke:#4c72b0" x="804.728" xlink:href="#m091951331a" y="546.274"/><use style="fill-opacity:0;stroke:#4c72b0" x="806.294" xlink:href="#m091951331a" y="235.541"/><use style="fill-opacity:0;stroke:#4c72b0" x="807.861" xlink:href="#m091951331a" y="451.703"/><use style="fill-opacity:0;stroke:#4c72b0" x="809.427" xlink:href="#m091951331a" y="438.193"/></g></g><path d="M117 576.72V77.76" style="fill:none;stroke:#d3d3d3;stroke-linecap:square;stroke-linejoin:miter;stroke-width:1.25" id="patch_3"/><path d="M117 576.72h725.4" style="fill:none;stroke:#d3d3d3;stroke-linecap:square;stroke-linejoin:miter;stroke-width:1.25" id="patch_4"/><g id="matplotlib.axis_1"><g id="xtick_1"><g style="fill:#696969" transform="matrix(.16 0 0 -.16 106.312 598.378)" id="text_1"><defs><path d="M9.813 72.906h9.859V5.078q0-13.187-5-19.14-5-5.954-16.094-5.954h-3.75v8.297h3.078q6.531 0 9.219 3.672Q9.813-4.39 9.813 5.078z" id="DejaVuSans-74"/><path d="M34.281 27.484q-10.89 0-15.093-2.484-4.204-2.484-4.204-8.5 0-4.781 3.157-7.594 3.156-2.797 8.562-2.797 7.485 0 12 5.297 4.516 5.297 4.516 14.078v2zm17.922 3.72V0H43.22v8.297Q40.14 3.328 35.547.953q-4.594-2.375-11.234-2.375-8.391 0-13.36 4.719Q6 8.016 6 15.922q0 9.219 6.172 13.906 6.187 4.688 18.437 4.688h12.61v.89q0 6.203-4.078 9.594-4.078 3.39-11.453 3.39-4.688 0-9.141-1.124-4.438-1.125-8.531-3.375v8.312q4.921 1.906 9.562 2.844 4.64.953 9.031.953 11.875 0 17.735-6.156 5.86-6.14 5.86-18.64z" id="DejaVuSans-97"/><path d="M54.89 33.016V0h-8.984v32.719q0 7.765-3.031 11.61-3.031 3.858-9.078 3.858-7.281 0-11.484-4.64-4.204-4.625-4.204-12.64V0H9.08v54.688h9.03v-8.5q3.235 4.937 7.594 7.374Q30.078 56 35.797 56q9.422 0 14.25-5.828 4.844-5.828 4.844-17.156z" id="DejaVuSans-110"/></defs><use xlink:href="#DejaVuSans-74"/><use x="29.492" xlink:href="#DejaVuSans-97"/><use x="90.771" xlink:href="#DejaVuSans-110"/></g></g><g id="xtick_2"><g style="fill:#696969" transform="matrix(.16 0 0 -.16 197.535 598.378)" id="text_2"><defs><path d="M9.813 72.906h14.703l18.593-49.61 18.703 49.61h14.704V0H66.89v64.016l-18.797-50h-9.907l-18.796 50V0H9.813z" id="DejaVuSans-77"/><path d="M41.11 46.297q-1.516.875-3.297 1.281Q36.03 48 33.89 48q-7.625 0-11.703-4.953-4.079-4.953-4.079-14.234V0H9.08v54.688h9.03v-8.5q2.844 4.984 7.375 7.39Q30.031 56 36.531 56q.922 0 2.047-.125 1.125-.11 2.484-.36z" id="DejaVuSans-114"/></defs><use xlink:href="#DejaVuSans-77"/><use x="86.279" xlink:href="#DejaVuSans-97"/><use x="147.559" xlink:href="#DejaVuSans-114"/></g></g><g id="xtick_3"><g style="fill:#696969" transform="matrix(.16 0 0 -.16 291.64 598.378)" id="text_3"><defs><path d="M32.172-5.078q-3.797-9.766-7.422-12.735-3.61-2.984-9.656-2.984H7.906v7.516h5.282q3.703 0 5.75 1.765Q21-9.766 23.483-3.219l1.61 4.094-22.11 53.813H12.5l17.094-42.766 17.093 42.766h9.516z" id="DejaVuSans-121"/></defs><use xlink:href="#DejaVuSans-77"/><use x="86.279" xlink:href="#DejaVuSans-97"/><use x="147.559" xlink:href="#DejaVuSans-121"/></g></g><g id="xtick_4"><g style="fill:#696969" transform="matrix(.16 0 0 -.16 394.077 598.378)" id="text_4"><defs><path d="M8.5 21.578v33.11h8.984V21.922q0-7.766 3.016-11.656 3.031-3.875 9.094-3.875 7.265 0 11.484 4.64 4.234 4.64 4.234 12.656v31h8.985V0h-8.984v8.406Q42.047 3.422 37.718 1q-4.313-2.422-10.032-2.422-9.421 0-14.312 5.86Q8.5 10.296 8.5 21.578zM31.11 56z" id="DejaVuSans-117"/><path d="M9.422 75.984h8.984V0H9.422z" id="DejaVuSans-108"/></defs><use xlink:href="#DejaVuSans-74"/><use x="29.492" xlink:href="#DejaVuSans-117"/><use x="92.871" xlink:href="#DejaVuSans-108"/></g></g><g id="xtick_5"><g style="fill:#696969" transform="matrix(.16 0 0 -.16 485.766 598.378)" id="text_5"><defs><path d="M53.516 70.516V60.89q-5.61 2.687-10.594 4-4.984 1.328-9.625 1.328-8.047 0-12.422-3.125t-4.375-8.89q0-4.845 2.906-7.313 2.907-2.453 11.016-3.97l5.953-1.218q11.031-2.11 16.281-7.406 5.25-5.297 5.25-14.172 0-10.61-7.11-16.078-7.093-5.469-20.812-5.469-5.172 0-11.015 1.172Q13.14.922 6.89 3.219v10.156q6-3.36 11.765-5.078 5.766-1.703 11.328-1.703 8.438 0 13.032 3.312 4.593 3.328 4.593 9.485 0 5.359-3.297 8.39-3.296 3.032-10.812 4.547L27.484 33.5q-11.03 2.188-15.968 6.875-4.922 4.688-4.922 13.047 0 9.672 6.812 15.234 6.813 5.563 18.766 5.563 5.14 0 10.453-.938 5.328-.922 10.89-2.765z" id="DejaVuSans-83"/><path d="M56.203 29.594v-4.39H14.891q.593-9.282 5.593-14.142 5-4.859 13.938-4.859 5.172 0 10.031 1.266 4.86 1.265 9.656 3.812v-8.5Q49.266.734 44.187-.344 39.11-1.422 33.892-1.422q-13.094 0-20.735 7.61-7.64 7.625-7.64 20.625 0 13.421 7.25 21.296Q20.016 56 32.328 56q11.031 0 17.453-7.11 6.422-7.093 6.422-19.296zm-8.984 2.64q-.094 7.36-4.125 11.75-4.032 4.407-10.672 4.407-7.516 0-12.031-4.25-4.516-4.25-5.203-11.97z" id="DejaVuSans-101"/><path d="M18.11 8.203v-29H9.077v75.484h9.031v-8.296q2.844 4.875 7.157 7.234Q29.594 56 35.594 56q9.968 0 16.187-7.906 6.235-7.907 6.235-20.797T51.78 6.484q-6.218-7.906-16.187-7.906-6 0-10.328 2.375-4.313 2.375-7.157 7.25zm30.578 19.094q0 9.906-4.079 15.547-4.078 5.64-11.203 5.64-7.14 0-11.218-5.64-4.079-5.64-4.079-15.547 0-9.906 4.078-15.547 4.079-5.64 11.22-5.64 7.124 0 11.202 5.64t4.078 15.547z" id="DejaVuSans-112"/></defs><use xlink:href="#DejaVuSans-83"/><use x="63.477" xlink:href="#DejaVuSans-101"/><use x="125" xlink:href="#DejaVuSans-112"/></g></g><g id="xtick_6"><g style="fill:#696969" transform="matrix(.16 0 0 -.16 580.782 598.378)" id="text_6"><defs><path d="M9.813 72.906h13.28l32.329-60.984v60.984h9.562V0h-13.28L19.39 60.984V0H9.813z" id="DejaVuSans-78"/><path d="M30.61 48.39q-7.22 0-11.422-5.64-4.204-5.64-4.204-15.453 0-9.813 4.172-15.453 4.188-5.64 11.453-5.64 7.188 0 11.375 5.655 4.203 5.672 4.203 15.438 0 9.719-4.203 15.406-4.187 5.688-11.375 5.688zm0 7.61q11.718 0 18.406-7.625 6.703-7.61 6.703-21.078 0-13.422-6.703-21.078-6.688-7.64-18.407-7.64-11.765 0-18.437 7.64-6.656 7.656-6.656 21.078 0 13.469 6.656 21.078Q18.844 56 30.609 56z" id="DejaVuSans-111"/><path d="M2.984 54.688H12.5L29.594 8.797l17.093 45.89h9.516L35.687 0H23.485z" id="DejaVuSans-118"/></defs><use xlink:href="#DejaVuSans-78"/><use x="74.805" xlink:href="#DejaVuSans-111"/><use x="135.986" xlink:href="#DejaVuSans-118"/></g></g><g id="xtick_7"><g style="fill:#696969" transform="matrix(.16 0 0 -.16 679.615 598.378)" id="text_7"><use xlink:href="#DejaVuSans-74"/><use x="29.492" xlink:href="#DejaVuSans-97"/><use x="90.771" xlink:href="#DejaVuSans-110"/></g></g><g id="xtick_8"><g style="fill:#696969" transform="matrix(.16 0 0 -.16 769.271 598.378)" id="text_8"><use xlink:href="#DejaVuSans-77"/><use x="86.279" xlink:href="#DejaVuSans-97"/><use x="147.559" xlink:href="#DejaVuSans-114"/></g></g></g><g id="matplotlib.axis_2"><g id="ytick_1"><g style="fill:#696969" transform="matrix(.16 0 0 -.16 97.32 552.353)" id="text_9"><defs><path d="M31.781 66.406q-7.61 0-11.453-7.5Q16.5 51.422 16.5 36.375q0-14.984 3.828-22.484 3.844-7.5 11.453-7.5 7.672 0 11.5 7.5 3.844 7.5 3.844 22.484 0 15.047-3.844 22.531-3.828 7.5-11.5 7.5zm0 7.813q12.266 0 18.735-9.703 6.468-9.688 6.468-28.141 0-18.406-6.468-28.11-6.47-9.687-18.735-9.687-12.25 0-18.718 9.688-6.47 9.703-6.47 28.109 0 18.453 6.47 28.14Q19.53 74.22 31.78 74.22z" id="DejaVuSans-48"/></defs><use xlink:href="#DejaVuSans-48"/></g></g><g id="ytick_2"><g style="fill:#696969" transform="matrix(.16 0 0 -.16 97.32 484.802)" id="text_10"><defs><path d="M10.797 72.906h38.719v-8.312H19.828v-17.86q2.14.735 4.281 1.094 2.157.36 4.313.36 12.203 0 19.328-6.688 7.14-6.688 7.14-18.11 0-11.765-7.328-18.296-7.328-6.516-20.656-6.516-4.593 0-9.36.781-4.75.782-9.827 2.344v9.922q4.39-2.39 9.078-3.563 4.687-1.171 9.906-1.171 8.453 0 13.375 4.437 4.938 4.438 4.938 12.063 0 7.609-4.938 12.047-4.922 4.453-13.375 4.453-3.953 0-7.89-.875-3.922-.875-8.016-2.735z" id="DejaVuSans-53"/></defs><use xlink:href="#DejaVuSans-53"/></g></g><g id="ytick_3"><g style="fill:#696969" transform="matrix(.16 0 0 -.16 87.14 417.252)" id="text_11"><defs><path d="M12.406 8.297h16.11v55.625l-17.532-3.516v8.985l17.438 3.515h9.86V8.296H54.39V0H12.406z" id="DejaVuSans-49"/></defs><use xlink:href="#DejaVuSans-49"/><use x="63.623" xlink:href="#DejaVuSans-48"/></g></g><g id="ytick_4"><g style="fill:#696969" transform="matrix(.16 0 0 -.16 87.14 349.701)" id="text_12"><use xlink:href="#DejaVuSans-49"/><use x="63.623" xlink:href="#DejaVuSans-53"/></g></g><g id="ytick_5"><g style="fill:#696969" transform="matrix(.16 0 0 -.16 87.14 282.15)" id="text_13"><defs><path d="M19.188 8.297h34.421V0H7.33v8.297q5.609 5.812 15.296 15.594 9.703 9.797 12.188 12.64 4.734 5.313 6.609 9 1.89 3.688 1.89 7.25 0 5.813-4.078 9.469-4.078 3.672-10.625 3.672-4.64 0-9.797-1.61-5.14-1.609-11-4.89v9.969Q13.767 71.78 18.938 73q5.188 1.219 9.485 1.219 11.328 0 18.062-5.672 6.735-5.656 6.735-15.125 0-4.5-1.688-8.531-1.672-4.016-6.125-9.485-1.218-1.422-7.765-8.187-6.532-6.766-18.453-18.922z" id="DejaVuSans-50"/></defs><use xlink:href="#DejaVuSans-50"/><use x="63.623" xlink:href="#DejaVuSans-48"/></g></g><g id="ytick_6"><g style="fill:#696969" transform="matrix(.16 0 0 -.16 87.14 214.6)" id="text_14"><use xlink:href="#DejaVuSans-50"/><use x="63.623" xlink:href="#DejaVuSans-53"/></g></g><g id="ytick_7"><g style="fill:#696969" transform="matrix(.16 0 0 -.16 87.14 147.05)" id="text_15"><defs><path d="M40.578 39.313Q47.656 37.797 51.625 33q3.984-4.781 3.984-11.813 0-10.78-7.422-16.703-7.421-5.906-21.093-5.906-4.578 0-9.438.906-4.86.907-10.031 2.72v9.515q4.094-2.39 8.969-3.61 4.89-1.218 10.218-1.218 9.266 0 14.125 3.656 4.86 3.656 4.86 10.64 0 6.454-4.516 10.079-4.515 3.64-12.562 3.64h-8.5v8.11h8.89q7.266 0 11.125 2.906 3.86 2.906 3.86 8.375 0 5.61-3.985 8.61-3.968 3.015-11.39 3.015-4.063 0-8.703-.89-4.641-.876-10.203-2.72v8.782q5.624 1.562 10.53 2.344 4.907.78 9.25.78 11.235 0 17.766-5.109 6.547-5.093 6.547-13.78 0-6.063-3.468-10.235-3.47-4.172-9.86-5.782z" id="DejaVuSans-51"/></defs><use xlink:href="#DejaVuSans-51"/><use x="63.623" xlink:href="#DejaVuSans-48"/></g></g><g style="fill:#696969" transform="matrix(0 -.2 -.2 0 78.98 379.813)" id="text_16"><defs><path d="M51.125 44H36.922l-4.11-16.313h14.313zm-7.328 27.781-5.078-20.265h14.265L58.11 71.78h7.813L60.89 51.516h15.234V44h-17.14l-4-16.313h15.53V20.22H53.079L48 0h-7.813l5.032 20.219H30.906L25.875 0h-7.86l5.079 20.219H7.719v7.468h17.187L29 44H13.281v7.516h17.625l4.985 20.265z" id="DejaVuSans-35"/><path d="M37.11 75.984V68.5h-8.594q-4.828 0-6.72-1.953-1.874-1.953-1.874-7.031v-4.828h14.797v-6.985H19.922V0H10.89v47.703H2.297v6.984h8.594V58.5q0 9.125 4.25 13.297 4.25 4.187 13.468 4.187z" id="DejaVuSans-102"/><path d="M48.781 52.594v-8.407q-3.812 2.11-7.64 3.157-3.828 1.047-7.735 1.047-8.75 0-13.593-5.547-4.829-5.532-4.829-15.547 0-10.016 4.829-15.563 4.843-5.53 13.593-5.53 3.907 0 7.735 1.046 3.828 1.047 7.64 3.156V2.094Q45.016.344 40.984-.531q-4.015-.89-8.562-.89-12.36 0-19.64 7.765-7.266 7.765-7.266 20.953 0 13.375 7.343 21.031Q20.22 56 33.016 56q4.14 0 8.093-.86 3.953-.843 7.672-2.546z" id="DejaVuSans-99"/><path d="M44.281 53.078v-8.5q-3.797 1.953-7.906 2.922-4.094.984-8.5.984-6.688 0-10.031-2.047-3.344-2.046-3.344-6.156 0-3.125 2.39-4.906 2.391-1.781 9.626-3.39l3.078-.688q9.562-2.047 13.593-5.781 4.032-3.735 4.032-10.422 0-7.625-6.032-12.078-6.03-4.438-16.578-4.438-4.39 0-9.156.86Q10.688.296 5.422 2v9.281q4.984-2.594 9.812-3.89 4.829-1.282 9.579-1.282 6.343 0 9.75 2.172 3.421 2.172 3.421 6.125 0 3.656-2.468 5.61-2.453 1.953-10.813 3.765l-3.125.735q-8.344 1.75-12.062 5.39-3.704 3.64-3.704 9.985 0 7.718 5.47 11.906Q16.75 56 26.811 56q4.97 0 9.36-.734 4.406-.72 8.11-2.188z" id="DejaVuSans-115"/></defs><use xlink:href="#DejaVuSans-35"/><use x="83.789" xlink:href="#DejaVuSans-32"/><use x="115.576" xlink:href="#DejaVuSans-111"/><use x="176.758" xlink:href="#DejaVuSans-102"/><use x="211.963" xlink:href="#DejaVuSans-32"/><use x="243.75" xlink:href="#DejaVuSans-99"/><use x="298.73" xlink:href="#DejaVuSans-97"/><use x="360.01" xlink:href="#DejaVuSans-115"/><use x="412.109" xlink:href="#DejaVuSans-101"/><use x="473.633" xlink:href="#DejaVuSans-115"/></g></g><g style="fill:#696969" transform="matrix(.24 0 0 -.24 308.75 71.76)" id="text_17"><defs><path d="M44.39 34.188q3.172-1.079 6.172-4.594 3-3.516 6.032-9.672L66.609 0H56l-9.313 18.703q-3.624 7.328-7.015 9.719-3.39 2.39-9.25 2.39h-10.75V0h-9.86v72.906h22.266q12.5 0 18.656-5.234 6.157-5.219 6.157-15.766 0-6.89-3.203-11.437-3.204-4.532-9.297-6.282zM19.673 64.797V38.922h12.406q7.125 0 10.766 3.297 3.64 3.297 3.64 9.687 0 6.39-3.64 9.64-3.64 3.25-10.766 3.25z" id="DejaVuSans-82"/><path d="M18.313 70.219V54.688h18.5v-6.985h-18.5V18.016q0-6.688 1.828-8.594 1.828-1.906 7.453-1.906h9.218V0h-9.218q-10.407 0-14.36 3.875-3.953 3.89-3.953 14.14v29.688H2.687v6.984h6.594V70.22z" id="DejaVuSans-116"/><path d="M54.89 33.016V0h-8.984v32.719q0 7.765-3.031 11.61-3.031 3.858-9.078 3.858-7.281 0-11.484-4.64-4.204-4.625-4.204-12.64V0H9.08v75.984h9.03V46.188q3.235 4.937 7.594 7.374Q30.078 56 35.797 56q9.422 0 14.25-5.828 4.844-5.828 4.844-17.156z" id="DejaVuSans-104"/><path d="M45.406 46.39v29.594h8.985V0h-8.985v8.203Q42.578 3.328 38.25.953q-4.313-2.375-10.375-2.375-9.906 0-16.14 7.906-6.22 7.922-6.22 20.813 0 12.89 6.22 20.797Q17.968 56 27.874 56q6.063 0 10.375-2.375 4.328-2.36 7.156-7.234zm-30.61-19.093q0-9.906 4.079-15.547 4.078-5.64 11.203-5.64 7.125 0 11.219 5.64 4.11 5.64 4.11 15.547 0 9.906-4.11 15.547-4.094 5.64-11.219 5.64-7.125 0-11.203-5.64-4.078-5.64-4.078-15.547z" id="DejaVuSans-100"/><path d="M4.203 54.688h8.985l11.234-42.672 11.172 42.672h10.593l11.235-42.672 11.187 42.672h8.985L63.28 0H52.688L40.922 44.828 29.109 0H18.5z" id="DejaVuSans-119"/><path d="M64.406 67.281v-10.39q-4.984 4.64-10.625 6.922-5.64 2.296-11.984 2.296-12.5 0-19.14-7.64-6.641-7.64-6.641-22.094 0-14.406 6.64-22.047 6.64-7.64 19.14-7.64 6.345 0 11.985 2.296 5.64 2.297 10.625 6.938V5.609Q59.234 2.094 53.437.33q-5.78-1.75-12.218-1.75-16.563 0-26.094 10.124-9.516 10.14-9.516 27.672 0 17.578 9.516 27.703 9.531 10.14 26.094 10.14 6.531 0 12.312-1.734 5.797-1.734 10.875-5.203z" id="DejaVuSans-67"/><path d="M9.422 54.688h8.984V0H9.422zm0 21.296h8.984v-11.39H9.422z" id="DejaVuSans-105"/></defs><use xlink:href="#DejaVuSans-82"/><use x="64.982" xlink:href="#DejaVuSans-117"/><use x="128.361" xlink:href="#DejaVuSans-116"/><use x="167.57" xlink:href="#DejaVuSans-104"/><use x="230.949" xlink:href="#DejaVuSans-101"/><use x="292.473" xlink:href="#DejaVuSans-114"/><use x="333.586" xlink:href="#DejaVuSans-102"/><use x="368.791" xlink:href="#DejaVuSans-111"/><use x="429.973" xlink:href="#DejaVuSans-114"/><use x="469.336" xlink:href="#DejaVuSans-100"/><use x="532.813" xlink:href="#DejaVuSans-32"/><use x="564.6" xlink:href="#DejaVuSans-78"/><use x="639.404" xlink:href="#DejaVuSans-101"/><use x="700.928" xlink:href="#DejaVuSans-119"/><use x="782.715" xlink:href="#DejaVuSans-32"/><use x="814.502" xlink:href="#DejaVuSans-67"/><use x="884.326" xlink:href="#DejaVuSans-111"/><use x="945.508" xlink:href="#DejaVuSans-118"/><use x="1004.688" xlink:href="#DejaVuSans-105"/><use x="1032.471" xlink:href="#DejaVuSans-100"/><use x="1095.947" xlink:href="#DejaVuSans-32"/><use x="1127.734" xlink:href="#DejaVuSans-67"/><use x="1197.559" xlink:href="#DejaVuSans-97"/><use x="1258.838" xlink:href="#DejaVuSans-115"/><use x="1310.938" xlink:href="#DejaVuSans-101"/><use x="1372.461" xlink:href="#DejaVuSans-115"/></g><g id="legend_1"><path d="M128.2 161.015h153.765q3.2 0 3.2-3.2V88.96q0-3.2-3.2-3.2H128.2q-3.2 0-3.2 3.2v68.855q0 3.2 3.2 3.2z" style="fill:none;opacity:.8;stroke:#ccc;stroke-linejoin:miter" id="patch_5"/><path d="M131.4 98.718h32" style="fill:none;stroke:#000;stroke-linecap:round;stroke-width:1.5" id="line2d_3"/><g style="fill:#696969" transform="matrix(.16 0 0 -.16 176.2 104.317)" id="text_18"><defs><path d="M8.203 72.906h46.875v-4.203L28.61 0H18.312L43.22 64.594H8.203z" id="DejaVuSans-55"/><path d="M45.406 27.984q0 9.766-4.031 15.125-4.016 5.375-11.297 5.375-7.219 0-11.25-5.375-4.031-5.359-4.031-15.125 0-9.718 4.031-15.093t11.25-5.375q7.281 0 11.297 5.375 4.031 5.375 4.031 15.093zm8.985-21.203q0-13.953-6.203-20.765Q42-20.797 29.203-20.797q-4.734 0-8.937.703-4.203.703-8.157 2.172v8.735q3.954-2.141 7.813-3.157 3.86-1.031 7.86-1.031 8.843 0 13.234 4.61 4.39 4.609 4.39 13.937v4.453q-2.781-4.844-7.125-7.234Q33.938 0 27.875 0 17.828 0 11.672 7.656q-6.156 7.672-6.156 20.328 0 12.688 6.156 20.344Q17.828 56 27.875 56q6.063 0 10.406-2.39 4.344-2.391 7.125-7.22v8.297h8.985z" id="DejaVuSans-103"/></defs><use xlink:href="#DejaVuSans-55"/><use x="63.623" xlink:href="#DejaVuSans-100"/><use x="127.1" xlink:href="#DejaVuSans-32"/><use x="158.887" xlink:href="#DejaVuSans-97"/><use x="220.166" xlink:href="#DejaVuSans-118"/><use x="279.346" xlink:href="#DejaVuSans-103"/><use x="342.822" xlink:href="#DejaVuSans-32"/><use x="374.609" xlink:href="#DejaVuSans-102"/><use x="409.814" xlink:href="#DejaVuSans-105"/><use x="437.598" xlink:href="#DejaVuSans-116"/><use x="476.807" xlink:href="#DejaVuSans-116"/><use x="516.016" xlink:href="#DejaVuSans-101"/><use x="577.539" xlink:href="#DejaVuSans-100"/></g><use style="fill-opacity:0;stroke:#4c72b0" x="147.4" xlink:href="#m091951331a" y="122.203" id="line2d_6"/><g style="fill:#696969" transform="matrix(.16 0 0 -.16 176.2 127.802)" id="text_19"><defs><path d="M19.672 64.797V8.109h11.922q15.093 0 22.093 6.829 7 6.843 7 21.593 0 14.64-7 21.453-7 6.813-22.093 6.813zm-9.86 8.11h20.266q21.188 0 31.094-8.813 9.922-8.813 9.922-27.563 0-18.86-9.969-27.703Q51.172 0 30.078 0H9.813z" id="DejaVuSans-68"/></defs><use xlink:href="#DejaVuSans-68"/><use x="77.002" xlink:href="#DejaVuSans-97"/><use x="138.281" xlink:href="#DejaVuSans-105"/><use x="166.064" xlink:href="#DejaVuSans-108"/><use x="193.848" xlink:href="#DejaVuSans-121"/><use x="253.027" xlink:href="#DejaVuSans-32"/><use x="284.814" xlink:href="#DejaVuSans-67"/><use x="354.639" xlink:href="#DejaVuSans-97"/><use x="415.918" xlink:href="#DejaVuSans-115"/><use x="468.018" xlink:href="#DejaVuSans-101"/><use x="529.541" xlink:href="#DejaVuSans-115"/></g><path d="M131.4 151.287h32v-11.2h-32z" style="fill:#089fff;opacity:.2;stroke:#fff;stroke-linejoin:miter" id="patch_6"/><g style="fill:#696969" transform="matrix(.16 0 0 -.16 176.2 151.287)" id="text_20"><defs><path d="M8.688 72.906h9.921V28.61q0-11.718 4.235-16.875 4.25-5.14 13.781-5.14 9.469 0 13.719 5.14 4.25 5.157 4.25 16.875v44.297H64.5V27.391q0-14.25-7.063-21.532-7.046-7.28-20.812-7.28-13.828 0-20.89 7.28-7.047 7.282-7.047 21.532z" id="DejaVuSans-85"/></defs><use xlink:href="#DejaVuSans-85"/><use x="73.193" xlink:href="#DejaVuSans-110"/><use x="136.572" xlink:href="#DejaVuSans-99"/><use x="191.553" xlink:href="#DejaVuSans-101"/><use x="253.076" xlink:href="#DejaVuSans-114"/><use x="294.189" xlink:href="#DejaVuSans-116"/><use x="333.398" xlink:href="#DejaVuSans-97"/><use x="394.678" xlink:href="#DejaVuSans-105"/><use x="422.461" xlink:href="#DejaVuSans-110"/><use x="485.84" xlink:href="#DejaVuSans-116"/><use x="525.049" xlink:href="#DejaVuSans-121"/></g></g></g></g><defs><clipPath id="p12ea5b80a9"><path d="M117 77.76h725.4v498.96H117z"/></clipPath></defs></svg>