<svg height="864" viewBox="0 0 936 648" width="1248" xmlns="http://www.w3.org/2000/svg" xmlns:xlink="http://www.w3.org/1999/xlink"><defs><style>*{stroke-linecap:butt;stroke-linejoin:round}</style></defs><g id="figure_1"><path d="M0 648h936V0H0z" style="fill:#fff" id="patch_1"/><g id="axes_1"><path d="M117 576.72h725.4V77.76H117z" style="fill:none" id="patch_2"/><path clip-path="url(#p74b31f0a60)" d="m149.973 554.04 44.523-.082 3.36-.156 1.68-.275 1.681-.43 1.68-.592 1.68-.898 1.68-1.078 1.68-1.113 2.52-2.125 1.68-1.604 1.681-1.089 1.68-1.076 1.68-.981 1.68-.56 2.52-.277 1.68-.032.84.195 1.681.11 1.68.226.84.027 1.68-.173 2.52.146 1.68.137 2.52-.126 1.681.21 1.68.28 2.52.726 2.52.387.84.098 2.52.6 1.681.083 2.52.233 1.68.084.84-.043 3.36.346 4.201.053.84.12.84-.143 9.24-.183 4.201-.914 1.68-.827 1.68-.931 5.041-3.614 1.68-1.56 3.36-2.096 2.52-1.852 5.881-3.72.84-.361.84-.508 2.52-.988.84-.293 1.68-.33 2.52.246.84.045.841.196 1.68.216 2.52 1.033 1.68.827 1.68.693.84.166 4.201 1.705 1.68.427 3.36 1.232 4.2 1.724 4.201 1.31 1.68.006.84.306 3.36.049.84.442 2.52.863.841-.029.84.16 1.68-.01.84.141.84-.198 2.52.138.84-.185.84-.864 3.361-.893 4.2-.444 1.68-.168.84-.173.84.037 2.52-.707.84-.325.84-.127 3.361-1.096 2.52-1.555.84-.144.84-.372.84-.088.84-.514.84-.325.84-.544 1.681-1.545.84-.433.84-.772 1.68-1.219 1.68-1.587 1.68-1.675 1.68-1.751 2.52-3.99 2.521-4.26 2.52-5.782 1.68-4.537.84-1.77 1.68-4.11 2.52-5.697.84-1.334.841-1.084.84-1.426 1.68-2.2.84 1.76.84-.706.84.221 1.68-.059.84-.655 2.52-2.658 1.681-1.882.84-.722 1.68-2.349.84-3.545.84-2.166 1.68-3.022.84-.964.84-.549.84-1.266 1.68-1.154.84.342.84-.232.841.088.84.524.84-.234.84.92.84 5.209.84-.271.84.932.84.344.84.062.84.46.84.194.84 3.015.84-2.834.84-.634.841-1.46 1.68-1.785.84-2.518.84-5.796.84-1.017.84-1.63.84-1.082.84-.84.84-.01.84-.247.84-2.686.84 2.593.84.92.841 3.21.84 1.394.84 2.044.84 2.606.84 3.167 1.68 4.717 1.68 4.324 3.36 8.426.84 1.633.84-.021 1.681 3.973 2.52 5.507.84 1.23.84 1.844 1.68 3.336 2.52 5.066.84 1.45.84 2.512 3.361 5.977 2.52 2.924 3.36 2.736.84.637.84.374.84-.042 1.681.303.84.131 2.52 1.177.84-1.017 3.36 1.789 1.68.755 1.68.076 2.521.568 1.68.233.84 1.154.84-.025.84-.63 1.68-.494.84-.323.84-.19.84-.393 1.681-.485.84-.485 2.52-.589.84-.634.84-.152.84.198.84-.33 1.68-.322 1.68-.135.84-.438.84-.227.841.102.84-.283.84.297.84-.132.84.183.84.028 1.68.72 1.68.93.84.417 2.52 2.059 2.521 1.307.84.34 3.36 2.226 1.68.96 1.68.639 4.201 2.597.84.375.84.601 1.68.842 2.52 1.505 1.68.555 2.52.985 1.681 1.057.84.27.84.687.84.153 1.68.64.84 1.538 3.36.89.84.08.84.346 1.681.246.84.019.84-.28.84.311.84.071.84.211.84-1.064 7.561.69 1.68-.125.84-.045.84-1.53.84-.225 1.68.137.84.326 1.68-.884.84-1.002.84-.59 1.681-.071.84-.575 1.68-1.431.84.84.84-.923 1.68-.422.84-1.583 1.68-1.874.84-.472.84-1.384.84-.401.841-.24 3.36-6.692.84-2.043 1.68-.903.84-2.233.84-2.558.84-1.524.84-1.783.84-2.473 1.681-1.24.84-2.483.84-1.603.84-2.048.84-1.172.84-1.877 1.68-1.19.84-3.577.84.174.84-1.516 2.52-2.938.841-.13.84-2.537.84.345.84-.446.84-1.422.84-.247.84-1.028.84.048.84-.607.84-.462.84-1.346.84-.462.84.236.84.387.84-.112.841 5.487.84-4.378.84-.385 2.52 1.396.84.075.84-.135.84.22.84 1.183 1.68 1.315.84-.062.84.13.841-3.805.84 4.964 2.52 3.356.84.648.84.154.84 2.618 3.36 4.666.84.695.84.41 1.681 1.938 1.68 1.276.84.785 1.68.739.84 2.062.84.051.84.637 1.68 1.58.84.309.84.107.84 1.47.841.432.84 1.14 1.68 1.424 1.68.39.84.526.84.7.84.349.84.08.84.286 1.68.214.84-.073.841.195 1.68.019 2.52-.336.84-.606.84.129.84-.131.84.626.84-1.178.84-.928.84-.137.84-.698.84-.392 2.521-2.453 1.68-.534.84-.941.84-.284.84-.604.84.978.84 2.258.84 1.065.84-.01.84-1.964.84-.545 1.681-1.549.84-.974.84-.496.84-.092.84-1.118.84-.616.84-.845.84-2.688.84-3.292.84-.774.84-.36.84.39 2.521-.613 1.68-.998.84-1.1.84-3.058.84-2.189.84-2.745.84-4.11.84-.547.84-.203.84-4.448.84-9.88.84-7.652.84-9.971.841-12.725.84-7.987.84-2.506.84-6.211 1.68-40.966 1.68-27.679.84-20.773.84-11.25.84-3.643.84-25.825 1.68-22.635.841-8.247.84-14.117.84-7.604.84-1.484.84 8.9.84-8.482.84-4.29.84.316.84 2.171 1.68 6.518.84 11.653.84 7.513.84 5.63 1.681 20.806.84 5.252.84 6.78.84 1.451.84 25.584.84 15.282.84 12.647.84 14.882.84 6.2.84 4.09.84 19.839.84 9.176.84 13.336 1.681 21.518.84 5.167.84 2.02.84 13.216 1.68 10.576 1.68 11.92.84 2.243.84.938.84 8.482.84 2.07.84 4.113.84 2.905.841 2.432.84 1.123.84.734.84 2.858.84 1.974.84 2.409 1.68 3.235.84.862.84.562.84-.214.84 2.585 2.52 3.297.841.416.84.078.84 1.704.84.63h0" style="fill:none;stroke:#000;stroke-linecap:round;stroke-width:1.5" id="line2d_1"/><path clip-path="url(#p74b31f0a60)" d="m149.973 554.04 45.363-.105 2.52-.352.84-.329.84-.17.84-.471.841-.618 1.68-1.877.84-.77.84-2.646.84-2.066 1.68-4.836.84-3.4.84-2.109 2.52-11.329.84-4.06 1.681-5.85 1.68-5.132.84-1.196.84-1.727 1.68-2.895.84.553.84-2.336.84 1.45.84-1.02 1.68 2.605.84-.536.841.086.84-.274 1.68-1.062.84 1.451 1.68.45.84.626.84 1.685.84-.216.84 2.035.84.656.84.456.84.915.841 2.122.84 1.347 1.68 4.887.84.416.84 1.818.84 2.216.84.79.84 2.004.84 1.705 2.52 4.205.84 1.91.84-.193.841 1.447.84-.096 1.68 1.333.84 1.336 1.68.934.84.135 1.68-.096.84.184 1.68.888.84 1.32.841.372.84.925.84.654.84.473.84-.184.84.834.84.649 1.68.736 1.68 1.498.84.346.84.602 2.521.858.84.062.84.447.84.235 1.68.024.84-.021.84.42.84-1.809.84-.043.84.163.84-.035.84.141 1.681-.06 3.36-.04 1.68.125.84-.1.84 2.064 1.68-.013.84-.032.84-.143.84.002.841-.138.84.221.84.36.84.03.84.43 1.68.002 3.36-.403 2.52-.515 1.681-.018.84-.686.84-.114.84-.377 1.68-.157h.84l.84-.142 1.68.26 2.52.42.84-.025.841-.485 1.68.227.84.33 1.68-.025.84.017.84.294.84.075.84-.173.84.21.84.036 1.68.38.84.374.841.227.84-.076.84-.298 2.52-.026.84-.298.84-.17.84.218 1.68-.29.84.027 4.201-.463.84.016 9.241-1.282 2.52-.994.84-.021.84-.341.84-.048.84-.271.84-.521 3.36-.639.84-.787.84-.34 1.681-.178.84.096.84-.57.84-.248.84-.382 1.68-.061 1.68-1.426.84-.384.84-.559.84.146.84-.193.841-1.12.84-.405 2.52-2.29.84-.62.84-1.25 1.68-.961.84-.189.84-.896.84-1.514.84-.858 2.521-3.529.84-.902.84-2.283.84-1.495.84-2.08.84-1.524 1.68-6.2.84-.911.84-2.36.84-1.727.84-2.379 1.68-3.142.841-2.095.84-1.632.84-.534 1.68-2.116.84-.748.84.59.84.75.84-1.041.84-.622.84-.267.84-.655.84-2.183.84-.702.841-2.21.84.02.84-1.287.84-.433.84-.694.84.477.84-2.612.84-.338.84-1.723.84.686.84-1.499.84.577.84 1.894.84 1.214.84.916.841.42.84.936.84-.371.84.446.84-1.511.84 2.401 1.68 4.167.84.331.84 1.054.84-.902.84-1.72.84-1.414.84 1.613.841-51.356.84-1.78.84-1.118.84-2.974.84-2.102 1.68-7.22.84-2.78.84-.995.84-3.387.84-2.139.84-.926.84-.523.84-1.57.841 50.624.84 1.755.84.442.84 2.606.84 3.023.84.282.84.4.84 1.28.84-.204.84 3.288.84 2.514.84.407 1.68 1.685.84.363.841 1.583.84 3.352.84 1.885.84-.03.84 2.827.84 1.007.84 1.696.84 1.285.84.471.84 1.168.84 2.416.84 1.626 1.68 4.49.841-.518.84-1.927.84.014.84 1.267.84 1.75.84 2.465.84-.153.84.449.84 1.342.84.086.84-.147.84-.405.84-.238.84-1.818 1.681.816.84.09.84-.7.84-.904.84-.524.84.426.84-1.038.84-.704 1.68-.628.84.287.84-.986.84.343.84-.458.841-.666.84-1.37.84-.744.84-1.272 2.52-2.4.84-.344.84-.14.84-1.481.84-.857.84-1.28.84-.857.84-1.238.841.69.84-1.218.84-.146.84.497.84-.604.84.343.84 1.17.84-.156.84-.416.84 1.507 3.36 4.554.84.112.841 1.811.84.159.84.56 1.68 1.394 2.52 2.937.84 1.457.84.874.84 1.814.84 12.304.84 1.961.84 1.557.841 1.794 1.68 5.205.84 2.09.84 1.287.84 1.966.84 1.014 1.68 3.948.84 2.286.84 1.452.84-9.813 1.68 3.416.84 1.946.841 1.644 1.68 2.006.84.681.84.385.84 2.234.84.913 1.68.63 1.68.094 1.68.281 1.681.098.84.419.84.025.84.161.84.522.84.184 1.68.684 2.52.007 1.68.434 1.681.047 2.52.012 1.68-.108 2.52.235 2.52.103.84-.09.84.075 1.681-.067 4.2.294 1.68-.027 4.2.096 1.681-.132 4.2-.792.84-.197 1.68-.723.84-.243 1.68-.985 1.68-.993.84-.59 2.521-1.125 2.52-1.97 1.68-1.215 2.52-1.877.84-.772.84-.468 1.681-1.34.84-.365 1.68-1.686 1.68-1.61.84-1.48 1.68-.828 2.52-1.62.84-1.707.84-.664.841-.301.84-.818.84-.244.84-.458.84-.214.84-.802.84.676.84-.618 1.68-.547 1.68-1.207.84 1.291.84-.096 1.681-.634.84 1.611.84-1.484 1.68-.244.84-.6 3.36.068.84-.446.84-.685.84-.401.84-.21.841.352.84-1.94.84 1.228.84-.045.84.46.84.278.84.79.84.413.84.161.84.298 3.36 2.652.84.404 1.681 1.09.84.2 1.68.828.84-.346 2.52.752.84.739.84.31 3.361 2.069.84.8.84.639.84.175 1.68 1.43.84.011.84.181.84.49.84-.35.84.082.84.238.84-.342 3.361-.277.84.344.84-.282.84-.15 1.68.108.84-.374.84.152 1.68-.99 2.52-1.661.841-.697 1.68-1.954 1.68-1.577.84-.74.84-1.26.84-.612.84-1.101 1.68-.724.84-.18.84-.942.84-1.62.841-1.33 1.68-4.514.84-2.374.84-2.03 1.68-2.953.84-2.197.84-2.964.84-3.557.84-2.793.84-2.115 1.68-2.34.841-1.93 1.68-6.103.84-3.462 1.68-8.525.84-4.87.84-8.196 1.68-27.845.84-15.952.84-11.057.84-6.915.84-11.614.84-23.024 1.681-58.17.84-26.52.84-20.477.84-15.698.84-22.634.84-27.198.84-15.156.84-20.92 2.52-43.829.84-10.904.84 3.427 1.681 23.704.84 16.645.84 11.796.84 13.573.84 19.817.84 28.261.84 21.638 1.68 53.963 2.52 61.32 1.68 35.468 2.521 40.444 2.52 23.147 1.68 18.245.84 6.39.84 7.9 1.68 8.062.84 5.142.84 3.785.841 8.08.84 3.737 1.68 2.16.84 2.01.84 1.607.84 1.25.84.768.84 1.783 1.68.9.84.752.84 1.245.84 1.546.841 1.232.84.833.84-.121.84.34.84.488.84 1.14.84 1.57.84.937.84.273.84.806.84-.272.84.008.84.217.84.397.84.203.841.578.84.717 1.68.765h0" style="fill:none;stroke:#009e73;stroke-linecap:round;stroke-width:1.5" id="line2d_2"/><path clip-path="url(#p74b31f0a60)" d="m149.973 554.04 41.163-.071 4.2-.256 1.68-.53.84-.49.84-1.665.84-.45.84-.204.841-.96.84-1.541.84-.92.84-1.163.84-3.932 1.68-6.27.84-3.369.84-2.9.84-4.125.84-5.473.84-4.503.84-7.372.84-8.925.84-3.39 1.681-11.252.84-2.277.84-.837.84-2.92 1.68-1.961.84.05.84.95.84 1.665.84.45.84 3.195.84 6.065.84-.5 1.681 6.423.84.112.84 1.082.84 2.768.84.602 1.68 3.717.84 1.91.84 2.317.84 4.054.84 2.39.84 1.592 1.681 5.514.84 1.705 1.68 5.555.84 2.185.84 2.86.84 1.04.84.41.84.857.84 1.389.84 2.389 1.68 2.022.84.98.84-.01.841 1.174.84.653 1.68.552.84.817.84-.113 2.52.02.84-2.092.84.51 2.52 1.89.841.326.84-.48.84.337.84.153.84-.143.84 1.185.84.725.84.275.84-.347.84.848.84.418.84-.755.84.49h.84l.84-.225 1.681.276.84.378 3.36.081.84.674.84-2.869.84-.745.84.52.84-.674 2.521.194.84-.06.84-.41.84-.01.84-.5.84-.03.84.112.84-.286.84 2.89.84.418.84-.092.84.562.84.01.84.327 1.681.102.84.429.84.174.84.633.84-.245.84.03 1.68.307.84.275 1.68-.204 2.52-1.072.841.02.84-.449.84-.092.84-.265.84.234.84-.398.84.164 1.68.081.84-.275.84-.092 1.68.46.84.101.841-.204.84-.592 1.68-.899.84-.52 1.68.582.84.776.84.04 2.52.623 1.68-.112.84.235.841 1 .84.164 1.68.786.84-.398.84-.266.84-.806.84-.072.84.317.84-.235.84-.02 1.68.255 1.681-.153.84.367 1.68.204.84.623.84-.05.84-.246.84-.04.84-.235.84.102.84-.01.84-.266 2.521.02 1.68-.347.84-.04.84-.307 1.68-.163 3.36-.868.84.01.84-.255 1.68-1.021.841-.45 1.68-.388.84-.694 2.52-.899.84-.112 2.52-1.746.84-.735 1.68-.388.841-.746.84-.54.84-.746.84-.46 1.68-.612.84-1.369 1.68-1.245.84-.45.84-.765.84-.95.84.01.84-1.276.84-1.869.841-.929.84-.153.84-1.573.84-2.267.84-2.767.84-1.46 1.68-5.064.84-.358 1.68-4.34.84-3.44 1.68-2.42.841-1.981.84-2.635.84-.357 1.68-.266.84-2.001.84 1.807 1.68-2.042.84-.664.84.235.84-.592.84-2.798.84-.704.841-1.42.84.613.84-.398.84.572.84-.082.84 2.675.84-3.257.84 1.348.84-1.103.84 1.215.84-.266.84 1.359.84 2.256 1.68 3.42.841.848.84.388.84-1.878.84-.368.84-1.562.84 2.358 1.68 2.9.84.256.84.132.84-1.725 1.68-1.634.84.694.841-44.642.84-3.022.84-1.542.84-2.053.84-2.45 1.68-6.076.84-1.164.84-.388.84-3.38.84-2.164 1.68-2.237.84-1.838.841 44.336.84 1.522.84.418.84 1.552.84 3.278.84-.704.84.5.84.235.84-1.103 1.68 5.014.84 1.164.84.224.84.644.84-.766.841 1.848.84 3.584.84 1.031.84-1.51.84 1.827.84.541.84.899.84 1.44.84.387.84 1.195 1.68 1.98.84 1.655.84 2.134.841-2.113.84-1.583.84.439.84 2.022.84 1.337.84 2.053 1.68-2.094.84.715.84-.858.84-1.47.84-.153.84.082.84-3.635.84 1.072.841-1.318.84-.163.84-1.603.84 1.358.84-1.062.84 1 .84-1.061 1.68-.52.84.734.84.368.84-1.389.84 1.756.84-.786.841.092 1.68-1.715.84-3.145.84-.307.84-.99.84.02.84-.418.84 1.419.84-2.971 1.68-3.34.84-.398 1.681-1.358.84-.633 1.68.256.84-.072.84.225.84 1.582.84-.776.84-.48.84 3.503 1.68 4.125.84 1.256 1.68 4.135.841 1.716 1.68 2.675 2.52 4.258.84 2.093.84 1.052.84 1.644.84.98.84 1.757.84 2.47.84 1.481.84 1.869.841 1.358 1.68 4.911.84 1.501.84.899.84 1.603.84-9.935.84-.99.84 1.592.84 1.95.84.91.84-.338.84 1.389.84 1.031.84 1.88.841.928.84.43.84.295.84.45.84.633.84 12.804.84 3.86.84.153.84.623.84.327 1.68.153.84.46.84.132.841.429.84.725 1.68.653 2.52.562.84.408.84-.132 1.68.214 1.68.49.84.082 3.361-.204.84-.215 2.52-.122.84.275 1.68.133 1.68-.306.84-.174.84.072 1.681-.03 1.68.101 1.68-.306 3.36.01 2.52.51 1.681.062 2.52-.174 1.68-.214 3.36-.98 1.68-.674.84-.592 1.68-1.46.841-.338.84-.592.84-.388.84-.541 1.68-1.41 2.52-1.95.84-.827.84-.52 1.68-.735 1.681-.511.84.102.84-1.133.84-.552.84-.745.84-.296.84-1.072.84.98.84-.102 1.68-1.532.84-.265.84-1.44.84-.684.841-.5.84-.685.84.307.84-.5.84.163.84-.797.84.153.84-1.572.84-.296.84.286.84.01.84-.44.84 1.492.84-.215.84-.071.841-.307.84 1.256.84-.806 1.68-.358.84-.02 1.68.265.84-.316.84-.03.84-.225.84-.5.84-.062.84-.204.841.378.84-1.032.84.756 1.68-.01.84.214.84.082.84-.174.84.715 1.68.04.84.062.84.378.84.766.84.224.841.072 1.68.868.84 1.062.84.439.84.214.84.715.84.122.84.388.84.705.84.541.84.051.84.358.84.224 2.521 2.308.84-.082 1.68 1.246.84-.541.84-.123.84.388.84-.092.84-.234.84.52.84-.122.84.081.841-.224.84-.409.84-.092.84.297 1.68-.194 1.68.755 2.52.398.84-.122.84-.868.84-.398 5.041-5.27.84-.428.84-1.297.84-.715.84-.867 1.68-1.042.84.02.84-.51.84-1.113.841-.786 1.68-2.86.84-1.184.84-.796 2.52-4.759 1.68-5.268 1.68-3.89.84-1.267.84-.817.841-2.93.84-3.41.84-4.034 1.68-10.068.84-3.503.84-5.299.84-10.589.84-14.346 1.68-38.087.84-11.988.84-9.19.84-15.806.84-28.202.841-35.616 1.68-56.773 1.68-30.112 1.68-50.748.84-13.336.84-17.828 1.68-22.383.84-14.03.84-6.892.84 8.465.841 20.412.84 12.457.84 19.32.84 7.249.84 10.854.84 20.412.84 28.53.84 18.215 1.68 54.241.84 16.552 2.52 60.01 1.681 32.9.84 11.63.84 13.478 2.52 24.394 1.68 20.728.84 6.361.84 7.577.84 4.493.84 3.594.84 4.564.84.531.841 5.606.84 3.952.84.081.84 1.154.84 2.665.84 2.247.84 1.286.84.082.84 1.195.84.418.84-.153.84 1.072.84 1.41.84 2.225.841.797.84-.123.84.051 1.68 1.41.84-.062 1.68 1.43.84.03.84.838.84-.133.84-.368.84-.561.84-.051.84.275.841 1.563.84-.664.84.286.84.45h0" style="fill:none;stroke:#d55e00;stroke-linecap:round;stroke-width:1.5" id="line2d_3"/><path clip-path="url(#p74b31f0a60)" d="M149.973 554.04h47.884l.84-1.04h1.68l.84-.52h.84l1.68-3.12.84-3.12.84-.521.84-1.56.84-1.04.84-2.6 1.68-7.801h.84l.84-3.12.84-8.322.84-5.2.841-1.56.84-1.04h.84l.84-2.08.84-3.121.84.52.84 1.04.84-.52.84 2.08.84 1.56.84-1.56.84.52.84 6.76.84 5.722.841-1.04.84 1.04.84-1.04.84 2.6h2.52l.84.52.84 2.08 2.52 3.12h1.68l.841 2.6.84 1.56 1.68 5.202.84 3.12.84 1.04h.84l.84.52.84-2.08.84.52 1.68 2.08.84 1.56h1.68l.841-.52h1.68l.84.52h1.68l.84 2.08.84 1.56 1.68 1.04.84-.52h1.68l.84-1.56h6.721l.84-.52h.84l.84.52h1.68l.84 1.56h5.041l.84-1.04.84.52h.84l.84-.52h2.52l.84-2.08.84.52.841-.52h3.36l.84-2.08.84-.52.84.52h.84l.84-.52h1.68l.84 1.04.84-.52.841.52h3.36l.84 3.12.84-1.04.84-.52h.84l.84 1.04h1.68l1.68 1.04h.84l.841-.52h2.52l.84-.52.84 1.56h.84l.84.52h2.52l.84.52h.84l.84-.52.841.52.84-.52h3.36l.84.52 1.68-1.04h2.52l.84-1.04h.84l.84-.52.841.52h3.36l.84-2.08 1.68 1.04h2.52l.84-.52 1.68 1.04h4.201l.84 1.04.84-.52h2.52l.84-1.56.84 1.56.84-.52h3.361l.84.52h.84l.84 1.04.84.52h2.52l.84.52.84-.52.84-2.08.84-4.68.84-1.04h1.681l.84-1.04.84-3.12.84-.52 1.68-5.201 1.68-3.12h.84l1.68 1.04.84 4.68.84 1.04h1.681l.84-2.08.84 1.04.84-2.08h1.68l1.68 3.12.84-5.2.84-.52 1.68-3.12.84-2.601h1.681l.84-6.76h.84l.84 2.6.84-6.241.84-1.04h1.68l.84-2.08.84-5.721 1.68-5.201.84-4.68.84-2.6h.841l.84 2.6.84-2.08.84-3.121.84 8.84.84 3.641.84-10.4h.84l.84 1.04.84 2.6.84.52.84-4.16.84-5.201.84-3.12h.841l.84 1.56.84-2.08.84.52.84-9.362.84-4.68.84 10.4h1.68l.84-1.04.84 2.08.84 8.322.84 3.64.84 5.72h.84l.841-8.32.84 2.6.84-11.441.84 6.76.84 4.681h1.68l.84-8.32.84 2.08 1.68-11.962.84 8.841h1.68l.841-3.12.84-5.72.84 6.76.84-5.2.84-6.241.84-5.201h.84l.84 4.16.84-3.12.84 2.08.84.52.84-5.2h1.68l.841 17.162.84-1.56.84 2.08.84 5.72 1.68 9.882h.84l.84-4.68.84 3.64.84 4.68.84 2.08.84-3.12.84-2.6h1.68l.841 10.92.84-8.32 1.68-4.16h1.68l.84 7.8.84-1.56.84.52h.84l.84 5.72.84-1.04h1.68l.841-7.28.84 10.921.84 2.6.84 1.04h.84l.84-3.64.84 6.24 1.68 1.041.84-3.64.84-2.08.84 3.64h.84l.84-8.321.84 2.08.841-.52h.84l.84-4.68h.84l.84 3.64.84-5.2.84 1.04.84-2.08.84-.52.84 2.08h1.68l.84-3.641.84 1.56.841-1.04h.84l.84 4.68h1.68l.84-5.2.84-1.04.84.52.84 3.12.84-1.04h.84l.84-4.68.84 6.24.84-.52.841 2.6.84-7.8.84-2.08h1.68l.84 3.64.84-1.04 1.68-1.04h0l.84 1.04.84-.52.84 4.68.84.52.84 1.56.84-1.04.841 3.12.84 2.08.84-2.6h.84l.84 7.281.84 3.64.84 1.561.84.52h.84l.84.52h.84l.84 2.08 1.68 2.08.841 4.161.84-2.08.84 2.08h.84l.84.52h1.68l.84 2.6.84 1.56h1.68l.84 1.04.84 1.561.84 1.04.84 2.08.841 4.68.84.52h.84l.84 1.041.84.52.84 3.12.84.52.84 1.04h1.68l.84 2.08h1.68l.84-1.04h4.201l.84-.52.84.52h3.36l.84-1.56h.84l.84 1.04h4.201l.84.52h4.2l.84 1.56.84.521h.84l.84-2.08h4.201l.84-.52h5.04l.84-.52.84 1.56h3.361l1.68-1.04h5.04l.84-.52.84-2.6h1.681l.84-10.922.84-1.04h.84l1.68-5.2h1.68l.84-3.641.84-1.56.84-.52h.84l.84 2.6h1.681l.84 5.72.84-.52.84-2.6.84.52.84 1.56h1.68l.84-1.56.84.52h.84l.84-1.04.84.52h1.681l.84 4.16.84-.52.84 2.081.84.52.84 1.04h1.68l.84 1.56.84-2.6.84-3.12.84 1.04.84-2.6h1.68l.841 1.04.84-4.16.84-2.081.84 2.6.84-2.6h1.68l.84-1.04.84 2.08.84 1.56.84-3.12.84.52h1.68l.841-6.76.84 5.72.84.52.84-2.6.84 1.04h1.68l.84 2.6h1.68l.84 2.08h2.52l.84 4.68 1.681-1.04.84 2.601.84-4.16h1.68l.84 2.08.84-1.56 2.52 3.12h1.68l.84-2.08.841-.52.84 2.6.84-2.08.84 4.68h1.68l.84-1.04.84 2.6.84 1.04h.84l.84.52h2.52l.841-.52.84.52.84 2.08h2.52l.84-1.56.84-.52.84-4.68.84 1.04.84-3.12h1.68l.84 1.04h.84l.841-1.04.84-1.56.84-.52h1.68l.84-5.201.84-1.56.84 1.04h.84l.84 3.64h1.68l.84-7.28.84-1.56h.841l.84-2.601.84-3.12h1.68l.84 1.04 1.68-5.2 1.68-10.402h1.68l.84 1.56.84-3.12 1.681-15.602.84 1.04.84-21.322.84-6.241.84-2.08.84-9.361.84-16.122.84-11.962.84-6.76.84-1.56.84-3.12.84-2.081 1.68-37.444.841-10.402.84-23.922.84-6.761.84-27.043.84-16.122.84-2.08.84-9.361.84-21.323.84-17.162.84-34.324.84-23.403.84-2.6.84 6.24.84 3.121.841-2.08.84 13.002.84 17.161.84 24.443 1.68 19.242.84 22.883.84 31.204 1.68 45.765.84 23.403.84 11.961.84 14.562.84 22.882 1.681 29.124.84 4.16.84 6.761.84 13.001.84 4.16 2.52 18.203.84 9.361h.84l.84-.52.84 2.08.84 1.04.84 7.801.841-1.04.84 5.2.84 1.56.84 2.601.84 1.56.84 1.04.84-1.56.84-.52.84.52.84 2.6.84 1.04.84 1.561.84-3.64.84 1.04h.841l.84-1.04.84.52h1.68l2.52 3.12.84 2.08.84-.52 1.68 1.04.84-2.08h.84l1.681 2.08h1.68l.84-3.64.84-1.04h0" style="fill:none;stroke:#0072b2;stroke-linecap:round;stroke-width:1.5" id="line2d_4"/><path d="M117 576.72V77.76" style="fill:none;stroke:#d3d3d3;stroke-linecap:square;stroke-linejoin:miter;stroke-width:1.25" id="patch_3"/><path d="M117 576.72h725.4" style="fill:none;stroke:#d3d3d3;stroke-linecap:square;stroke-linejoin:miter;stroke-width:1.25" id="patch_4"/><g id="matplotlib.axis_1"><g id="xtick_1"><g style="fill:#696969" transform="matrix(.16 0 0 -.16 120.839 598.378)" id="text_1"><defs><path d="M9.813 72.906h9.859V5.078q0-13.187-5-19.14-5-5.954-16.094-5.954h-3.75v8.297h3.078q6.531 0 9.219 3.672Q9.813-4.39 9.813 5.078z" id="DejaVuSans-74"/><path d="M34.281 27.484q-10.89 0-15.093-2.484-4.204-2.484-4.204-8.5 0-4.781 3.157-7.594 3.156-2.797 8.562-2.797 7.485 0 12 5.297 4.516 5.297 4.516 14.078v2zm17.922 3.72V0H43.22v8.297Q40.14 3.328 35.547.953q-4.594-2.375-11.234-2.375-8.391 0-13.36 4.719Q6 8.016 6 15.922q0 9.219 6.172 13.906 6.187 4.688 18.437 4.688h12.61v.89q0 6.203-4.078 9.594-4.078 3.39-11.453 3.39-4.688 0-9.141-1.124-4.438-1.125-8.531-3.375v8.312q4.921 1.906 9.562 2.844 4.64.953 9.031.953 11.875 0 17.735-6.156 5.86-6.14 5.86-18.64z" id="DejaVuSans-97"/><path d="M54.89 33.016V0h-8.984v32.719q0 7.765-3.031 11.61-3.031 3.858-9.078 3.858-7.281 0-11.484-4.64-4.204-4.625-4.204-12.64V0H9.08v54.688h9.03v-8.5q3.235 4.937 7.594 7.374Q30.078 56 35.797 56q9.422 0 14.25-5.828 4.844-5.828 4.844-17.156z" id="DejaVuSans-110"/></defs><use xlink:href="#DejaVuSans-74"/><use x="29.492" xlink:href="#DejaVuSans-97"/><use x="90.771" xlink:href="#DejaVuSans-110"/></g></g><g id="xtick_2"><g style="fill:#696969" transform="matrix(.16 0 0 -.16 195.778 598.378)" id="text_2"><defs><path d="M34.188 63.188 20.797 26.906h26.812zm-5.579 9.718h11.188L67.578 0h-10.25l-6.64 18.703h-32.86L11.188 0H.78z" id="DejaVuSans-65"/><path d="M18.11 8.203v-29H9.077v75.484h9.031v-8.296q2.844 4.875 7.157 7.234Q29.594 56 35.594 56q9.968 0 16.187-7.906 6.235-7.907 6.235-20.797T51.78 6.484q-6.218-7.906-16.187-7.906-6 0-10.328 2.375-4.313 2.375-7.157 7.25zm30.578 19.094q0 9.906-4.079 15.547-4.078 5.64-11.203 5.64-7.14 0-11.218-5.64-4.079-5.64-4.079-15.547 0-9.906 4.078-15.547 4.079-5.64 11.22-5.64 7.124 0 11.202 5.64t4.078 15.547z" id="DejaVuSans-112"/><path d="M41.11 46.297q-1.516.875-3.297 1.281Q36.03 48 33.89 48q-7.625 0-11.703-4.953-4.079-4.953-4.079-14.234V0H9.08v54.688h9.03v-8.5q2.844 4.984 7.375 7.39Q30.031 56 36.531 56q.922 0 2.047-.125 1.125-.11 2.484-.36z" id="DejaVuSans-114"/></defs><use xlink:href="#DejaVuSans-65"/><use x="68.408" xlink:href="#DejaVuSans-112"/><use x="131.885" xlink:href="#DejaVuSans-114"/></g></g><g id="xtick_3"><g style="fill:#696969" transform="matrix(.16 0 0 -.16 276.411 598.378)" id="text_3"><defs><path d="M8.5 21.578v33.11h8.984V21.922q0-7.766 3.016-11.656 3.031-3.875 9.094-3.875 7.265 0 11.484 4.64 4.234 4.64 4.234 12.656v31h8.985V0h-8.984v8.406Q42.047 3.422 37.718 1q-4.313-2.422-10.032-2.422-9.421 0-14.312 5.86Q8.5 10.296 8.5 21.578zM31.11 56z" id="DejaVuSans-117"/><path d="M9.422 75.984h8.984V0H9.422z" id="DejaVuSans-108"/></defs><use xlink:href="#DejaVuSans-74"/><use x="29.492" xlink:href="#DejaVuSans-117"/><use x="92.871" xlink:href="#DejaVuSans-108"/></g></g><g id="xtick_4"><g style="fill:#696969" transform="matrix(.16 0 0 -.16 349.518 598.378)" id="text_4"><defs><path d="M39.406 66.219q-10.75 0-17.078-8.016-6.312-8-6.312-21.828 0-13.766 6.312-21.781 6.328-8 17.078-8 10.735 0 17.016 8 6.281 8.015 6.281 21.781 0 13.828-6.281 21.828-6.281 8.016-17.016 8.016zm0 8q15.328 0 24.5-10.281 9.188-10.282 9.188-27.563 0-17.234-9.188-27.516-9.172-10.28-24.5-10.28-15.375 0-24.593 10.25-9.204 10.265-9.204 27.546t9.204 27.563q9.218 10.28 24.593 10.28z" id="DejaVuSans-79"/><path d="M48.781 52.594v-8.407q-3.812 2.11-7.64 3.157-3.828 1.047-7.735 1.047-8.75 0-13.593-5.547-4.829-5.532-4.829-15.547 0-10.016 4.829-15.563 4.843-5.53 13.593-5.53 3.907 0 7.735 1.046 3.828 1.047 7.64 3.156V2.094Q45.016.344 40.984-.531q-4.015-.89-8.562-.89-12.36 0-19.64 7.765-7.266 7.765-7.266 20.953 0 13.375 7.343 21.031Q20.22 56 33.016 56q4.14 0 8.093-.86 3.953-.843 7.672-2.546z" id="DejaVuSans-99"/><path d="M18.313 70.219V54.688h18.5v-6.985h-18.5V18.016q0-6.688 1.828-8.594 1.828-1.906 7.453-1.906h9.218V0h-9.218q-10.407 0-14.36 3.875-3.953 3.89-3.953 14.14v29.688H2.687v6.984h6.594V70.22z" id="DejaVuSans-116"/></defs><use xlink:href="#DejaVuSans-79"/><use x="78.711" xlink:href="#DejaVuSans-99"/><use x="133.691" xlink:href="#DejaVuSans-116"/></g></g><g id="xtick_5"><g style="fill:#696969" transform="matrix(.16 0 0 -.16 428.304 598.378)" id="text_5"><use xlink:href="#DejaVuSans-74"/><use x="29.492" xlink:href="#DejaVuSans-97"/><use x="90.771" xlink:href="#DejaVuSans-110"/></g></g><g id="xtick_6"><g style="fill:#696969" transform="matrix(.16 0 0 -.16 502.403 598.378)" id="text_6"><use xlink:href="#DejaVuSans-65"/><use x="68.408" xlink:href="#DejaVuSans-112"/><use x="131.885" xlink:href="#DejaVuSans-114"/></g></g><g id="xtick_7"><g style="fill:#696969" transform="matrix(.16 0 0 -.16 583.037 598.378)" id="text_7"><use xlink:href="#DejaVuSans-74"/><use x="29.492" xlink:href="#DejaVuSans-117"/><use x="92.871" xlink:href="#DejaVuSans-108"/></g></g><g id="xtick_8"><g style="fill:#696969" transform="matrix(.16 0 0 -.16 656.143 598.378)" id="text_8"><use xlink:href="#DejaVuSans-79"/><use x="78.711" xlink:href="#DejaVuSans-99"/><use x="133.691" xlink:href="#DejaVuSans-116"/></g></g><g id="xtick_9"><g style="fill:#696969" transform="matrix(.16 0 0 -.16 734.93 598.378)" id="text_9"><use xlink:href="#DejaVuSans-74"/><use x="29.492" xlink:href="#DejaVuSans-97"/><use x="90.771" xlink:href="#DejaVuSans-110"/></g></g><g id="xtick_10"><g style="fill:#696969" transform="matrix(.16 0 0 -.16 809.028 598.378)" id="text_10"><use xlink:href="#DejaVuSans-65"/><use x="68.408" xlink:href="#DejaVuSans-112"/><use x="131.885" xlink:href="#DejaVuSans-114"/></g></g></g><g id="matplotlib.axis_2"><g id="ytick_1"><g style="fill:#696969" transform="matrix(.16 0 0 -.16 97.32 560.119)" id="text_11"><defs><path d="M31.781 66.406q-7.61 0-11.453-7.5Q16.5 51.422 16.5 36.375q0-14.984 3.828-22.484 3.844-7.5 11.453-7.5 7.672 0 11.5 7.5 3.844 7.5 3.844 22.484 0 15.047-3.844 22.531-3.828 7.5-11.5 7.5zm0 7.813q12.266 0 18.735-9.703 6.468-9.688 6.468-28.141 0-18.406-6.468-28.11-6.47-9.687-18.735-9.687-12.25 0-18.718 9.688-6.47 9.703-6.47 28.109 0 18.453 6.47 28.14Q19.53 74.22 31.78 74.22z" id="DejaVuSans-48"/></defs><use xlink:href="#DejaVuSans-48"/></g></g><g id="ytick_2"><g style="fill:#696969" transform="matrix(.16 0 0 -.16 87.14 493.488)" id="text_12"><defs><path d="M10.797 72.906h38.719v-8.312H19.828v-17.86q2.14.735 4.281 1.094 2.157.36 4.313.36 12.203 0 19.328-6.688 7.14-6.688 7.14-18.11 0-11.765-7.328-18.296-7.328-6.516-20.656-6.516-4.593 0-9.36.781-4.75.782-9.827 2.344v9.922q4.39-2.39 9.078-3.563 4.687-1.171 9.906-1.171 8.453 0 13.375 4.437 4.938 4.438 4.938 12.063 0 7.609-4.938 12.047-4.922 4.453-13.375 4.453-3.953 0-7.89-.875-3.922-.875-8.016-2.735z" id="DejaVuSans-53"/></defs><use xlink:href="#DejaVuSans-53"/><use x="63.623" xlink:href="#DejaVuSans-48"/></g></g><g id="ytick_3"><g style="fill:#696969" transform="matrix(.16 0 0 -.16 76.96 426.858)" id="text_13"><defs><path d="M12.406 8.297h16.11v55.625l-17.532-3.516v8.985l17.438 3.515h9.86V8.296H54.39V0H12.406z" id="DejaVuSans-49"/></defs><use xlink:href="#DejaVuSans-49"/><use x="63.623" xlink:href="#DejaVuSans-48"/><use x="127.246" xlink:href="#DejaVuSans-48"/></g></g><g id="ytick_4"><g style="fill:#696969" transform="matrix(.16 0 0 -.16 76.96 360.227)" id="text_14"><use xlink:href="#DejaVuSans-49"/><use x="63.623" xlink:href="#DejaVuSans-53"/><use x="127.246" xlink:href="#DejaVuSans-48"/></g></g><g id="ytick_5"><g style="fill:#696969" transform="matrix(.16 0 0 -.16 76.96 293.596)" id="text_15"><defs><path d="M19.188 8.297h34.421V0H7.33v8.297q5.609 5.812 15.296 15.594 9.703 9.797 12.188 12.64 4.734 5.313 6.609 9 1.89 3.688 1.89 7.25 0 5.813-4.078 9.469-4.078 3.672-10.625 3.672-4.64 0-9.797-1.61-5.14-1.609-11-4.89v9.969Q13.767 71.78 18.938 73q5.188 1.219 9.485 1.219 11.328 0 18.062-5.672 6.735-5.656 6.735-15.125 0-4.5-1.688-8.531-1.672-4.016-6.125-9.485-1.218-1.422-7.765-8.187-6.532-6.766-18.453-18.922z" id="DejaVuSans-50"/></defs><use xlink:href="#DejaVuSans-50"/><use x="63.623" xlink:href="#DejaVuSans-48"/><use x="127.246" xlink:href="#DejaVuSans-48"/></g></g><g id="ytick_6"><g style="fill:#696969" transform="matrix(.16 0 0 -.16 76.96 226.966)" id="text_16"><use xlink:href="#DejaVuSans-50"/><use x="63.623" xlink:href="#DejaVuSans-53"/><use x="127.246" xlink:href="#DejaVuSans-48"/></g></g><g id="ytick_7"><g style="fill:#696969" transform="matrix(.16 0 0 -.16 76.96 160.335)" id="text_17"><defs><path d="M40.578 39.313Q47.656 37.797 51.625 33q3.984-4.781 3.984-11.813 0-10.78-7.422-16.703-7.421-5.906-21.093-5.906-4.578 0-9.438.906-4.86.907-10.031 2.72v9.515q4.094-2.39 8.969-3.61 4.89-1.218 10.218-1.218 9.266 0 14.125 3.656 4.86 3.656 4.86 10.64 0 6.454-4.516 10.079-4.515 3.64-12.562 3.64h-8.5v8.11h8.89q7.266 0 11.125 2.906 3.86 2.906 3.86 8.375 0 5.61-3.985 8.61-3.968 3.015-11.39 3.015-4.063 0-8.703-.89-4.641-.876-10.203-2.72v8.782q5.624 1.562 10.53 2.344 4.907.78 9.25.78 11.235 0 17.766-5.109 6.547-5.093 6.547-13.78 0-6.063-3.468-10.235-3.47-4.172-9.86-5.782z" id="DejaVuSans-51"/></defs><use xlink:href="#DejaVuSans-51"/><use x="63.623" xlink:href="#DejaVuSans-48"/><use x="127.246" xlink:href="#DejaVuSans-48"/></g></g><g id="ytick_8"><g style="fill:#696969" transform="matrix(.16 0 0 -.16 76.96 93.705)" id="text_18"><use xlink:href="#DejaVuSans-51"/><use x="63.623" xlink:href="#DejaVuSans-53"/><use x="127.246" xlink:href="#DejaVuSans-48"/></g></g><g style="fill:#696969" transform="matrix(0 -.2 -.2 0 68.8 379.813)" id="text_19"><defs><path d="M51.125 44H36.922l-4.11-16.313h14.313zm-7.328 27.781-5.078-20.265h14.265L58.11 71.78h7.813L60.89 51.516h15.234V44h-17.14l-4-16.313h15.53V20.22H53.079L48 0h-7.813l5.032 20.219H30.906L25.875 0h-7.86l5.079 20.219H7.719v7.468h17.187L29 44H13.281v7.516h17.625l4.985 20.265z" id="DejaVuSans-35"/><path d="M30.61 48.39q-7.22 0-11.422-5.64-4.204-5.64-4.204-15.453 0-9.813 4.172-15.453 4.188-5.64 11.453-5.64 7.188 0 11.375 5.655 4.203 5.672 4.203 15.438 0 9.719-4.203 15.406-4.187 5.688-11.375 5.688zm0 7.61q11.718 0 18.406-7.625 6.703-7.61 6.703-21.078 0-13.422-6.703-21.078-6.688-7.64-18.407-7.64-11.765 0-18.437 7.64-6.656 7.656-6.656 21.078 0 13.469 6.656 21.078Q18.844 56 30.609 56z" id="DejaVuSans-111"/><path d="M37.11 75.984V68.5h-8.594q-4.828 0-6.72-1.953-1.874-1.953-1.874-7.031v-4.828h14.797v-6.985H19.922V0H10.89v47.703H2.297v6.984h8.594V58.5q0 9.125 4.25 13.297 4.25 4.187 13.468 4.187z" id="DejaVuSans-102"/><path d="M44.281 53.078v-8.5q-3.797 1.953-7.906 2.922-4.094.984-8.5.984-6.688 0-10.031-2.047-3.344-2.046-3.344-6.156 0-3.125 2.39-4.906 2.391-1.781 9.626-3.39l3.078-.688q9.562-2.047 13.593-5.781 4.032-3.735 4.032-10.422 0-7.625-6.032-12.078-6.03-4.438-16.578-4.438-4.39 0-9.156.86Q10.688.296 5.422 2v9.281q4.984-2.594 9.812-3.89 4.829-1.282 9.579-1.282 6.343 0 9.75 2.172 3.421 2.172 3.421 6.125 0 3.656-2.468 5.61-2.453 1.953-10.813 3.765l-3.125.735q-8.344 1.75-12.062 5.39-3.704 3.64-3.704 9.985 0 7.718 5.47 11.906Q16.75 56 26.811 56q4.97 0 9.36-.734 4.406-.72 8.11-2.188z" id="DejaVuSans-115"/><path d="M56.203 29.594v-4.39H14.891q.593-9.282 5.593-14.142 5-4.859 13.938-4.859 5.172 0 10.031 1.266 4.86 1.265 9.656 3.812v-8.5Q49.266.734 44.187-.344 39.11-1.422 33.892-1.422q-13.094 0-20.735 7.61-7.64 7.625-7.64 20.625 0 13.421 7.25 21.296Q20.016 56 32.328 56q11.031 0 17.453-7.11 6.422-7.093 6.422-19.296zm-8.984 2.64q-.094 7.36-4.125 11.75-4.032 4.407-10.672 4.407-7.516 0-12.031-4.25-4.516-4.25-5.203-11.97z" id="DejaVuSans-101"/></defs><use xlink:href="#DejaVuSans-35"/><use x="83.789" xlink:href="#DejaVuSans-32"/><use x="115.576" xlink:href="#DejaVuSans-111"/><use x="176.758" xlink:href="#DejaVuSans-102"/><use x="211.963" xlink:href="#DejaVuSans-32"/><use x="243.75" xlink:href="#DejaVuSans-99"/><use x="298.73" xlink:href="#DejaVuSans-97"/><use x="360.01" xlink:href="#DejaVuSans-115"/><use x="412.109" xlink:href="#DejaVuSans-101"/><use x="473.633" xlink:href="#DejaVuSans-115"/></g></g><g style="fill:#696969" transform="matrix(.24 0 0 -.24 202.252 71.76)" id="text_20"><defs><path d="M9.813 72.906h13.28l32.329-60.984v60.984h9.562V0h-13.28L19.39 60.984V0H9.813z" id="DejaVuSans-78"/><path d="M4.203 54.688h8.985l11.234-42.672 11.172 42.672h10.593l11.235-42.672 11.187 42.672h8.985L63.28 0H52.688L40.922 44.828 29.109 0H18.5z" id="DejaVuSans-119"/><path d="M64.406 67.281v-10.39q-4.984 4.64-10.625 6.922-5.64 2.296-11.984 2.296-12.5 0-19.14-7.64-6.641-7.64-6.641-22.094 0-14.406 6.64-22.047 6.64-7.64 19.14-7.64 6.345 0 11.985 2.296 5.64 2.297 10.625 6.938V5.609Q59.234 2.094 53.437.33q-5.78-1.75-12.218-1.75-16.563 0-26.094 10.124-9.516 10.14-9.516 27.672 0 17.578 9.516 27.703 9.531 10.14 26.094 10.14 6.531 0 12.312-1.734 5.797-1.734 10.875-5.203z" id="DejaVuSans-67"/><path d="M25.39 72.906h8.297L8.297-9.28H0z" id="DejaVuSans-47"/><path d="M9.813 72.906h9.859V42.094L52.39 72.906h12.703L28.906 38.922 67.672 0H54.688L19.672 35.11V0h-9.86z" id="DejaVuSans-75"/><path d="M9.422 54.688h8.984V0H9.422zm0 21.296h8.984v-11.39H9.422z" id="DejaVuSans-105"/><path d="M45.406 46.39v29.594h8.985V0h-8.985v8.203Q42.578 3.328 38.25.953q-4.313-2.375-10.375-2.375-9.906 0-16.14 7.906-6.22 7.922-6.22 20.813 0 12.89 6.22 20.797Q17.968 56 27.874 56q6.063 0 10.375-2.375 4.328-2.36 7.156-7.234zm-30.61-19.093q0-9.906 4.079-15.547 4.078-5.64 11.203-5.64 7.125 0 11.219 5.64 4.11 5.64 4.11 15.547 0 9.906-4.11 15.547-4.094 5.64-11.219 5.64-7.125 0-11.203-5.64-4.078-5.64-4.078-15.547z" id="DejaVuSans-100"/><path d="M4.89 31.39h26.313v-8H4.891z" id="DejaVuSans-45"/><path d="M37.797 64.313 12.89 25.39h24.906zm-2.594 8.593H47.61V25.391h10.407v-8.203H47.609V0h-9.812v17.188H4.89v9.515z" id="DejaVuSans-52"/><path d="M32.172-5.078q-3.797-9.766-7.422-12.735-3.61-2.984-9.656-2.984H7.906v7.516h5.282q3.703 0 5.75 1.765Q21-9.766 23.483-3.219l1.61 4.094-22.11 53.813H12.5l17.094-42.766 17.093 42.766h9.516z" id="DejaVuSans-121"/><path d="M2.984 54.688H12.5L29.594 8.797l17.093 45.89h9.516L35.687 0H23.485z" id="DejaVuSans-118"/><path d="M45.406 27.984q0 9.766-4.031 15.125-4.016 5.375-11.297 5.375-7.219 0-11.25-5.375-4.031-5.359-4.031-15.125 0-9.718 4.031-15.093t11.25-5.375q7.281 0 11.297 5.375 4.031 5.375 4.031 15.093zm8.985-21.203q0-13.953-6.203-20.765Q42-20.797 29.203-20.797q-4.734 0-8.937.703-4.203.703-8.157 2.172v8.735q3.954-2.141 7.813-3.157 3.86-1.031 7.86-1.031 8.843 0 13.234 4.61 4.39 4.609 4.39 13.937v4.453q-2.781-4.844-7.125-7.234Q33.938 0 27.875 0 17.828 0 11.672 7.656q-6.156 7.672-6.156 20.328 0 12.688 6.156 20.344Q17.828 56 27.875 56q6.063 0 10.406-2.39 4.344-2.391 7.125-7.22v8.297h8.985z" id="DejaVuSans-103"/></defs><use xlink:href="#DejaVuSans-78"/><use x="74.805" xlink:href="#DejaVuSans-101"/><use x="136.328" xlink:href="#DejaVuSans-119"/><use x="218.115" xlink:href="#DejaVuSans-32"/><use x="249.902" xlink:href="#DejaVuSans-67"/><use x="319.727" xlink:href="#DejaVuSans-97"/><use x="381.006" xlink:href="#DejaVuSans-115"/><use x="433.105" xlink:href="#DejaVuSans-101"/><use x="494.629" xlink:href="#DejaVuSans-115"/><use x="546.729" xlink:href="#DejaVuSans-32"/><use x="578.516" xlink:href="#DejaVuSans-47"/><use x="612.207" xlink:href="#DejaVuSans-32"/><use x="643.994" xlink:href="#DejaVuSans-49"/><use x="707.617" xlink:href="#DejaVuSans-48"/><use x="771.24" xlink:href="#DejaVuSans-48"/><use x="834.863" xlink:href="#DejaVuSans-75"/><use x="900.439" xlink:href="#DejaVuSans-32"/><use x="932.227" xlink:href="#DejaVuSans-114"/><use x="971.09" xlink:href="#DejaVuSans-101"/><use x="1032.613" xlink:href="#DejaVuSans-115"/><use x="1084.713" xlink:href="#DejaVuSans-105"/><use x="1112.496" xlink:href="#DejaVuSans-100"/><use x="1175.973" xlink:href="#DejaVuSans-101"/><use x="1237.496" xlink:href="#DejaVuSans-110"/><use x="1300.875" xlink:href="#DejaVuSans-116"/><use x="1340.084" xlink:href="#DejaVuSans-115"/><use x="1392.184" xlink:href="#DejaVuSans-32"/><use x="1423.971" xlink:href="#DejaVuSans-45"/><use x="1460.055" xlink:href="#DejaVuSans-45"/><use x="1496.139" xlink:href="#DejaVuSans-32"/><use x="1527.926" xlink:href="#DejaVuSans-49"/><use x="1591.549" xlink:href="#DejaVuSans-52"/><use x="1655.172" xlink:href="#DejaVuSans-32"/><use x="1686.959" xlink:href="#DejaVuSans-100"/><use x="1750.436" xlink:href="#DejaVuSans-97"/><use x="1811.715" xlink:href="#DejaVuSans-121"/><use x="1870.895" xlink:href="#DejaVuSans-32"/><use x="1902.682" xlink:href="#DejaVuSans-97"/><use x="1963.961" xlink:href="#DejaVuSans-118"/><use x="2023.141" xlink:href="#DejaVuSans-101"/><use x="2084.664" xlink:href="#DejaVuSans-114"/><use x="2125.777" xlink:href="#DejaVuSans-97"/><use x="2187.057" xlink:href="#DejaVuSans-103"/><use x="2250.533" xlink:href="#DejaVuSans-101"/></g><g id="legend_1"><path d="M128.2 184.5h136.45q3.2 0 3.2-3.2V88.96q0-3.2-3.2-3.2H128.2q-3.2 0-3.2 3.2v92.34q0 3.2 3.2 3.2z" style="fill:none;opacity:.8;stroke:#ccc;stroke-linejoin:miter" id="patch_5"/><path d="M131.4 98.718h32" style="fill:none;stroke:#000;stroke-linecap:round;stroke-width:1.5" id="line2d_5"/><g style="fill:#696969" transform="matrix(.16 0 0 -.16 176.2 104.317)" id="text_21"><defs><path d="M8.688 72.906h9.921V28.61q0-11.718 4.235-16.875 4.25-5.14 13.781-5.14 9.469 0 13.719 5.14 4.25 5.157 4.25 16.875v44.297H64.5V27.391q0-14.25-7.063-21.532-7.046-7.28-20.812-7.28-13.828 0-20.89 7.28-7.047 7.282-7.047 21.532z" id="DejaVuSans-85"/><path d="M53.516 70.516V60.89q-5.61 2.687-10.594 4-4.984 1.328-9.625 1.328-8.047 0-12.422-3.125t-4.375-8.89q0-4.845 2.906-7.313 2.907-2.453 11.016-3.97l5.953-1.218q11.031-2.11 16.281-7.406 5.25-5.297 5.25-14.172 0-10.61-7.11-16.078-7.093-5.469-20.812-5.469-5.172 0-11.015 1.172Q13.14.922 6.89 3.219v10.156q6-3.36 11.765-5.078 5.766-1.703 11.328-1.703 8.438 0 13.032 3.312 4.593 3.328 4.593 9.485 0 5.359-3.297 8.39-3.296 3.032-10.812 4.547L27.484 33.5q-11.03 2.188-15.968 6.875-4.922 4.688-4.922 13.047 0 9.672 6.812 15.234 6.813 5.563 18.766 5.563 5.14 0 10.453-.938 5.328-.922 10.89-2.765z" id="DejaVuSans-83"/></defs><use xlink:href="#DejaVuSans-85"/><use x="73.193" xlink:href="#DejaVuSans-83"/></g><path d="M131.4 122.203h32" style="fill:none;stroke:#009e73;stroke-linecap:round;stroke-width:1.5" id="line2d_7"/><g style="fill:#696969" transform="matrix(.16 0 0 -.16 176.2 127.802)" id="text_22"><use xlink:href="#DejaVuSans-78"/><use x="74.805" xlink:href="#DejaVuSans-74"/></g><path d="M131.4 145.688h32" style="fill:none;stroke:#d55e00;stroke-linecap:round;stroke-width:1.5" id="line2d_9"/><g style="fill:#696969" transform="matrix(.16 0 0 -.16 176.2 151.287)" id="text_23"><defs><path d="M19.672 34.813V8.108H35.5q7.953 0 11.781 3.297 3.844 3.297 3.844 10.078 0 6.844-3.844 10.078-3.828 3.25-11.781 3.25zm0 29.984V42.828h14.61q7.218 0 10.75 2.703 3.546 2.719 3.546 8.282 0 5.515-3.547 8.25-3.531 2.734-10.75 2.734zm-9.86 8.11h25.204q11.28 0 17.375-4.688Q58.5 63.53 58.5 54.89q0-6.703-3.125-10.657-3.125-3.953-9.188-4.922 7.282-1.562 11.313-6.53 4.031-4.954 4.031-12.376 0-9.765-6.64-15.093Q48.25 0 35.984 0H9.812z" id="DejaVuSans-66"/></defs><use xlink:href="#DejaVuSans-66"/><use x="68.604" xlink:href="#DejaVuSans-101"/><use x="130.127" xlink:href="#DejaVuSans-114"/><use x="169.49" xlink:href="#DejaVuSans-103"/><use x="232.967" xlink:href="#DejaVuSans-101"/><use x="294.49" xlink:href="#DejaVuSans-110"/></g><path d="M131.4 169.173h32" style="fill:none;stroke:#0072b2;stroke-linecap:round;stroke-width:1.5" id="line2d_11"/><g style="fill:#696969" transform="matrix(.16 0 0 -.16 176.2 174.773)" id="text_24"><defs><path d="M44.39 34.188q3.172-1.079 6.172-4.594 3-3.516 6.032-9.672L66.609 0H56l-9.313 18.703q-3.624 7.328-7.015 9.719-3.39 2.39-9.25 2.39h-10.75V0h-9.86v72.906h22.266q12.5 0 18.656-5.234 6.157-5.219 6.157-15.766 0-6.89-3.203-11.437-3.204-4.532-9.297-6.282zM19.673 64.797V38.922h12.406q7.125 0 10.766 3.297 3.64 3.297 3.64 9.687 0 6.39-3.64 9.64-3.64 3.25-10.766 3.25z" id="DejaVuSans-82"/><path d="M54.89 33.016V0h-8.984v32.719q0 7.765-3.031 11.61-3.031 3.858-9.078 3.858-7.281 0-11.484-4.64-4.204-4.625-4.204-12.64V0H9.08v75.984h9.03V46.188q3.235 4.937 7.594 7.374Q30.078 56 35.797 56q9.422 0 14.25-5.828 4.844-5.828 4.844-17.156z" id="DejaVuSans-104"/></defs><use xlink:href="#DejaVuSans-82"/><use x="64.982" xlink:href="#DejaVuSans-117"/><use x="128.361" xlink:href="#DejaVuSans-116"/><use x="167.57" xlink:href="#DejaVuSans-104"/><use x="230.949" xlink:href="#DejaVuSans-101"/><use x="292.473" xlink:href="#DejaVuSans-114"/><use x="333.586" xlink:href="#DejaVuSans-102"/><use x="368.791" xlink:href="#DejaVuSans-111"/><use x="429.973" xlink:href="#DejaVuSans-114"/><use x="469.336" xlink:href="#DejaVuSans-100"/></g></g></g></g><defs><clipPath id="p74b31f0a60"><path d="M117 77.76h725.4v498.96H117z"/></clipPath></defs></svg>