<svg height="864" viewBox="0 0 936 648" width="1248" xmlns="http://www.w3.org/2000/svg" xmlns:xlink="http://www.w3.org/1999/xlink"><defs><style>*{stroke-linecap:butt;stroke-linejoin:round}</style></defs><g id="figure_1"><path d="M0 648h936V0H0z" style="fill:#fff" id="patch_1"/><g id="axes_1"><path d="M117 576.72h725.4V77.76H117z" style="fill:none" id="patch_2"/><path clip-path="url(#p139512e86f)" d="m149.973 340.626 41.517-.113 4.828-.276 1.931-.344.966-.374 1.93-1.121.966-.81 1.931-1.898 2.897-3.75.965-1.465 1.931-2.065.966-1.355 2.896-3.046.966-.857 1.931.086.966.335 1.93 1.599.966 1.105.966 1.876.965.885 5.793 10.268 1.931 1.75 1.931 1.372.966.295.966-.427.965-.983.966.014.965-.1.966-.291 2.896.17.966.17.965-.128.966.3.965-.025.966.089.965.423 1.931 2.32.966.756 1.931.073.966.113 1.93-.341.966-.39.966.074.965-.57.966.04.965-.416.966-.068 1.93-.743.966-.716.966-.169 1.93.172.966.178 2.897-.67.966.147.965-.337 1.931.037.966-.69.965-.054.966.317 1.93.091.966-.752.966-.504.965.415.966-.176 1.93.102.966-.438.966-.164.965-.602.966-.123.966-.793.965-.97 1.931-2.742.966-.887.965-1.207.966-1.874.965-.78.966-1.32 1.93-1.505 1.932-2.063.965-.658.966-.106 1.931.473.965.469.966.194.966.92.965.378 1.931-.037.966-.546.965.19.966.428.965-.147.966.934.965.626.966.083.965.994.966.63.965.846 1.931 1.935.966.668.965 2.209 1.932 2.997.965 1.24.966 1.764.965.747.966 1.222.965.826 1.931 2.016.966 1.514.965.602.966 1.102.965.62.966-.602.965-.041.966-.207.965-.367.966.25.965-.288.966-.57.966.305.965-.214.966.058.965-.188.966-.356.965.264.966.432.965.784.966-.334.965.404.966-.184.965-.318.966.083.965-.427.966-.78.965-.6.966-1.568.965.168.966-.923.966-1.673.965-.352.966-.667.965 1.487.966 1.157.965.149.966.829 1.93.502.966-.235.966-1.637.965-.566.966-1.97.965-.676.966.441.965-.53.966-.674.965-3.076.966-1.39.966-.146.965-.861.966-1.07.965-.423.966.251.965 3.069.966.415 1.93 1.2.966.243.966-.249.965.55.966-.732.965-.104 1.931-1.962.966.032.965-.312.966-.919.966-.334 1.93-1.21.966-.811.966-1.31.965.417.966-.559.965.799.966-.737.965.689.966.02.965-.99.966-2.298.965-.22.966-2.47.965-.237.966-1.132.965-.687.966-.321.966-.473.965-1.191.966-.204.965-1.238 1.931-4.47 1.931-3.563.966-1.82.965-2.851.966-3.511.965-1.796.966-2.801.965-3.57.966-2.875 1.931-3.563 1.931-.74.966.715.965 1.632.966 3.017 1.93 4.92.966 3.255.966 2.773.965 13.274.966 4.364.965 5.613.966 3.815.965 5.033.966 1.623.965.924.966-9.514.965-.855.966-4.333.965-3.16.966-2.492.966-2.016.965-1.071.966-9.63.965-4.414.966-2.339.965-1.776.966-.872.965 2.4.966-.474.965 10.704.966 5.742.965 7.11 1.931 7.99 1.931 7.6.966 5.41.965 20.873.966-2.212.966 4.2.965.928.966-1.67.965 2.504.966-2.62.965-7.917.966-9.25.965-5.653.966-6.51.965-3.715.966-4.614.965-9.788.966-31.798.965 6.557.966-3.594.965 1.361.966.464.966 2.913.965 8.198.966 11.226.965 13.029.966 9.2.965 15.491 1.931 15.479.966 10.294.965 21.125.966-.567.965 4.913.966-4.287.965 3.272.966.323.965-1.728.966-3.556.965-1.634.966-2.336.966-7.376 1.93-1.664.966-.89.966-1.379.965-.568.966-1.455.965 6.732.966-1.825 1.93-.924.966.306.966-1.446.965.797.966 2.406.965-.37.966-1.127.965-.7 1.932-2.87.965-1.875.966-5.555 2.896-8.538.966-3.159.965-1.386.966-2.013.965-3.657 1.931-3.644.966-2.434 1.93-1.867.966.235.966-3.52.965.955 1.932 2.453.965.192.966-.002.965-.23.966 3.62.965-1.351 2.897-2.73.965-1.147.966-.737.965 4.214.966-.414.965-3.076 3.862-5.72.966-5.587.966-.717.965 1.33.966-1.047 2.896.806.966-.87.965.26.966 1.655.965.564.966.092.965.592.966-.087.965 2.165.966-1.032.965-1.531.966 1.553.965-.28.966 1.498.966-.116.965.788.966 1.678.965 1.927.966 1.122.965 2.885.966.422 1.93 3.896.966 2.564.966 1.082 1.93.412.966-.542.966-.274 2.896-1.341.966.255.966-.371.965.804.966-.053.965-.998.966-.234 1.93.226.966.13.966-.114.965.174.966 1.042.965-.497.966-.357.965-.111.966.099.965-.038.966-.496.965-1.027.966-.198.966-.4.965-.773.966.05 1.93.337.966 1.338.966-.619 1.93-.074.966 3.565.966-1.008.965-.133.966-1.834.965.351.966-.964.965.188.966-5.004.965-.48.966-.769.966-1.653.965.214.966-.029.965-.488.966-4.385.965-.043.966.15.965 1.384.966-.97.965.437.966-.646.965 4.036.966-.144.965.063.966-.422.965-.553.966-.858.965-5.64.966-1.004.966.22.965-.164.966 1.223.965-1.095.966-1.53.965 1.908.966-1.322.965-.477.966-.272.965-3.254.966-1.354.965-.617.966 6.645.965-1.195.966-.783.965-.487.966-3.638 1.931-1.599.966-4.732.965-1.668.966-.564 1.93-.554.966-3.015.966-1.814.965-4.816.966-2.378.965-.359.966-.583.965-2.019.966-2.55.965-.591.966.084.965-1.553.966-.343 1.931-1.778.966 3.447.965-1.89 1.931 4.356 1.931.18.966-3.948.965 6.415.966 1.92.965.8.966 3.503.965-1.796.966 1.718.965 3.755.966.615.965 3.863.966-1.703.965 2.38.966.192.966.645.965 6.966 1.931-6.162.966 3.465.965 1.743.966 5.106.965-.576.966 21.99.965-14.13 1.931 6.936.966 1.2.965-.21.966.675.965-20.289.966 16.59.965 5.658.966.38.966.517.965-1.409.966.195.965-13.245.966 17.125.965-.43.966 2.293.965 1.231.966 2.56.965.09.966 23.181.965-13.796.966.522.965-.422.966.508.965.17.966.92.965-5.735.966-.836.966-2.109 1.93-3.17.966-1.015.966-.306.965 3.73.966-3.099.965.044.966.5.965.014.966-.375.965-.786.966-2.14.965 1.377.966 1.82.965-.397.966-.166.965-.332.966.236.966-3.407.965.967.966-2.86.965-2.164.966-1.653 1.93-.633.966-2.162.966-1.823.965-1.071.966-.41.965-1.499.966-.653.965-.864.966-1.922.965-.24.966-.66.965 2.38.966-3.785.966-3.127.965.027.966-.33.965-1.883.966-2.616.965-5.105.966 1.334.965 2.393.966-.477.965-.878.966.393.965.909.966 6.378.965 11.064.966 4.799.965.936.966-3.69.965-.943.966-.437.966-6.51.965-11.663.966-5.63.965-.3.966 3.05.965-.253.966-.434.965-6.718.966-8.37h0" style="fill:none;stroke:#000;stroke-linecap:round;stroke-width:1.5" id="line2d_1"/><path clip-path="url(#p139512e86f)" d="m149.973 340.624 42.483-.104 2.896-.251 1.932-.623.965-.58.966-1.165.965-.533.966-1.605.965-2.14.966-3.275.965-2.843.966-2.17.965-8.358 2.897-20.368.965-8.69.966-4.414.965-10.37.966-2.161.965-8.571.966-5.86.966-2.181.965 2 .966-2.04.965 4.279.966 7.391 1.93 19.56.966 5.283.966 12.264.965 1.219.966 14.105.965.635 1.931 20.526.966 3.624.965-1.686.966 7.445.965-7 .966 1.616.966.77.965-4.023.966 2.646.965 1.95.966 7.066.965.986.966 9.41.965-2.87.966.735.965 2.592.966 5.4.965-1.22.966 9.218.965 1.856.966-.866 1.93 9.607.966-4.807.966 2.37.966-2.281.965-4.39.966 3.67.965-1.365.966-1.106.965-3.547.966-2.011.965-6.498.966-2.212.965-2.96.966-.374.965-5.357.966 2.533.965-4.734.966.162.965-2.765.966-1.547.965-3.195.966.043.966 2.927.965.855.966 3.52.965 2.53.966 1.04.965-2.29.966 1.435.965-2.425.966.1.965-2.123.966.41.965.928.966 1.915.965-.843.966-1.37 1.931-.53.965-2.548.966-1.021.966-.402.965-2.313.966-.74.965-1.252.966.564.965-6.753.966-1.767.965-.26.966.016.965.279.966-.202.965-1.454.966 6.428.965.167.966-.406.965-.109.966-.263.965.48.966-.426.966 7.554.965.105.966-.345.965.12.966-.766 1.93-.328.966-6.653.966 1.184.965.27.966 1.664.965.63.966-.108.965.178.966-.844.965-1.686.966-.812.965-2.19.966-.982.966-.247 1.93.298.966-2.089.966.294.965-.72.966.546 1.93.244.966-.585.966 2.855.965.97.966 1.985.965 1.064.966.394.965-.089.966-1.238.965.085.966-.208.966.568.965-.924.966-.054.965.15.966 2.808.965-.193.966-.975.965-.433.966.314.965.452.966.762.965.29.966.55.965.347.966-1.833.965-.27.966-.546.965-.781.966-2.425.966-1.435.965 1.063.966.445.965-.27.966.092.965-.402.966.623.965.166.966-1.176.965.607.966.472.965-.506.966.042.965-.286.966.302.965-.14.966-.526.965-.29.966-.166.966.012.965.197.966-.14.965-.638.966-1.001.965-.639.966.5.965-.925.966.367 1.93-1.407.966.881.966.41.965-.707.966.839.965-2.665.966-.248.965 1.44.966.463.966.809.965-1.273.966-.503.965 1.459.966.955.965.491.966-2.305.965-2.982.966.669.965-1.122.966 1.907.965-.425.966-4.092.965 1.048.966-.255.965-1.16.966-.813.965-2.765.966-3.814.966 2.382.965-.348.966 2.209.965-.685.966-2.638.965-.854.966.193.965-3.342.966-1.609.965-2.576.966-5.005.965.07.966-4.417.965-1.18.966-6.563.965-7.391.966-.035.965-.279.966-.835.966-1.075.965-.17.966 5.89.965 3.249.966-2.6.965 6.591.966 2.387.965 4.792.966 2.967.965 7.805.966 10.265.965 2.135.966-.317.965 2.881.966 1.431 1.931-9.843.965-10.68.966 3.826.966-2.402.965-.6.966-.139.965 9.6.966-6.896.965 6.757.966-6.289.965 7.12.966-3.844 1.93 9.697.966 13.811.966 4.526.965 7.735.966.901.965 4.07.966-.473.965-12.288 1.932 8.072.965 6.429.966-2.182.965 5.14.966-4.861.965-.754.966-13.774.965-1.272.966-193.292 2.896-22.936.966-1.376.965-8.092.966-18.685.965 175.318.966 2.831.966-8.188.965 3.013.966 4.243.965 11.31.966 7.194.965 192.738.966 9.925.965 13.82.966 17.122.965 14.253.966 2.904.965 7.117.966-178.091.965-7.067.966 10.27.965-.33.966-9.445 1.931 3.62.966-3.31.965 6.447.966.232.965-2.27.966-1.574.965 7.399.966.356.965 4.811.966-1.075.965-10.397.966-2.587.965 8.826.966-4.336.965 4.564.966 1.888.965-6.506.966-8.656 1.931-8.312.966.445.965.7.966-8.56.965 3.49.966 11.796.965.263.966-5.101.965-7.775.966-9.758.965-6.01.966-.29.965-3.226.966.008 1.93-3.795.966-1.032.966 8.099.965-5.075.966-4.158.966-1.245.965 1.18.966 4.3.965-1.667.966-.297.965 2.088.966.14.965-4.023.966-1.342.965-5.628.966.782.965-4.502.966-.964.965 1.16.966 4.445.965-2.665.966 1.5.965-1.844.966.174.966-1.853.965 3.733.966-3.891 1.93 9.704.966 2.444.966 4.328.965 8.691.966-3.052.965 2.894.966 5.967.965 2.333.966 6.501.965 3.191.966-.665.965.967.966 8.037.965-4.865.966-2.104 1.931-3.725.966-.178.965 2.557.966-2.275.965 4.684.966 1.133.965 4.027.966 41.9.965 3.7.966 2.654.965 2.212.966 4.506.965 5.868.966.998.965-39.765.966.02.965-1.958.966.553.966-2.54.965-.774.966-2.305.965-40.059.966-1.052.965 2.626.966-.004.965-1.288.966-4.602.965-1.648.966 37.873.965-4.656.966 1.779.965-3.729.966-4.715.965-2.595.966-3.446.965-2.263.966-.723.966-7.712.965-3.164.966-.998.965.46.966-.058.965.39.966 1.22.965.309.966.951.965 1.168.966-1.435.965.267 1.931-2.127.966.155.965-.882.966-1.42.965-.054.966-.205.966.279.965-1.103.966-.855.965-.034.966.135.965.557.966.1.965.391.966.213.965-.286.966.104.965-.394.966-.534 1.93.035.966.24.966.665.965-.194 1.932.143 1.93-.208.966.197 1.931-.704.966-.02.965-.355.966-.638.965-.476.966-.84 2.896-1.775.966-1.102 1.93-1.319.966-1.408.966-.951.966-.724.965-1.264.966-.74.965.013.966-.31.965.282.966-.645.965-.836 1.931-.762.966-.723 1.93-1.872.966.201.966-.344.965.727 1.931-.457.966.875 1.931-1.497.966-.22.965-1.115.966-2.722.965.877.966-.332 1.93 2.39.966.855.966-3.361.965 2.95.966.252.965-1.303.966 1.083.965.077.966 1.377.965 3.272.966 4.831.966-1.14.965 2.161.966-.305.965-.693.966-1.237.965 7.553.966-2.784.965 1.206.966-.475.965 7 .966-3.013.965 1.408.966-4.939.965-1.818 1.931 2.154.966-5.465.965 5.388.966-1.005.966-2.194.965.716.966-.766.965 1.412.966-7.353.965 4.406.966 1.446.965 4.127.966 2.456.965 3.605.966.224.965 7.585.966-3.361.965 2.603.966 1.056.965 1.655.966-1.09.965-.035.966 1.42.966.854.965-1.717.966-1.292.965-1.09.966-3.01.965-.665 1.931-2.008.966 1.942.965-.298.966.298.965 3.407.966 1.06.965.635.966 1.914.965-.356.966-.491.965.793.966.34.966-1.81.965-.932.966-1.118.965-3.574.966-.332.965-1.803.966-3.732.965-.251.966-.565.965-2.51.966 1.125.965.944.966-1.876 1.93 1.257.966-.054.966-.607.965.688.966-3.233.966-.561.965-1.342.966-2.445.965-2.061.966-1.164.965-4.297.966-1.312.965-1.5.966-.735.965-.58.966-2.522.965.31.966-.229.965 2.054.966 1.717.965 1.965.966-.727.965-1.3.966-2.591.966-3.717 2.896-21.234.966-2.193.965.781 1.931-6.138.966-4.235h0" style="fill:none;stroke:#009e73;stroke-linecap:round;stroke-width:1.5" id="line2d_2"/><path clip-path="url(#p139512e86f)" d="m149.973 340.624 37.655-.11 4.828-.295.965-.11.966-.516h.965l.966-1.032.966-.774.965-1.622.966-5.933.965-1.474.966-.221.965-3.427.966-4.496 1.93-4.902.966-8.18.966-9.25.965-11.02.966-8.696.965-4.902.966-11.571.965-15.552.966-2.063.965-15.736.966-20.453.966-.074.965-8.807.966-6.45.965 11.535.966 13.23.965 16.067.966 28.487.965 8.881.966 19.458.965 24.765.966 14.225.965 4.643.966 22.074.965 25.612.966 1.548.965 10.982.966 8.587.965-5.602.966 2.285.966-1.548.965-19.716.966 8.992 1.93-10.06.966 7.96.966 10.724.965-1.364.966 3.575.965 2.58.966 3.906.965-.737.966 1.584.965-4.532.966-.738.965 4.57.966-6.007.965-8.66.966-3.059.966-4.938.965-1.474.966-4.017.965-6.891.966-.221.965-1.511.966 1.142.965-2.653.966-7.739.965-2.764.966-.479.965-3.943.966.11.965-4.2.966-2.396.965-8.44.966.738.965-.627 1.932 4.828.965 1.142.966-1.695.965 8.771.966-1.29.965-2.837.966 2.284.965.11.966-.183.965.479.966 1.842.965.958.966-2.21 1.93-5.123.966-1.806.966 1.843.965-2.654.966-.147.966 2.727.965-1.548.966-.037.965.922.966 1.842.965-10.76.966-4.054.965 1.88.966-2.654.965.368.966.074.965-2.248.966 10.135.965 1.216.966-1.917.965.627.966-.442.965.22.966-1.215.966 10.65.965 2.985.966-.295.965 3.833.966.147.965.774.966 1.253.965-10.282.966.037.965.958.966.258 1.93-1.99.966.295.966.442.965-.553.966-.995.965-2.653.966-.368.966-1.77.965-1.473.966-.516.965-2.617.966.037.965-.59.966 2.1.965.222.966 1.548.965.074.966 1.768.965-.663.966.627h.965l.966 2.248.965-.222.966-.884.965-2.285.966-.479.966-1.437.965-2.727.966.331.965.59.966 3.538 1.93 4.606.966 2.985.966 2.064 1.93-2.506.966-1.953.966 3.464.965-.258.966.184.965 1.253.966-1.29.965-.7 1.932-7.628.965.553.966-2.248.965-1.511.966 1.99.965 1.327.966 2.763.965-.147.966.184.965 1.069.966.59.965 1.695.966-.553.965-.737.966.258.965-2.174.966.147.965-.553.966-3.206.966.332.965.663.966.295.965.037.966-.81 1.93-.259 1.932-.516.965-.958.966-.405 1.93-.516.966 1.142.966-.774.965-1.584.966-.848.965-.405 1.932-.295.965-2.543.966-.295.965.737.966.922.965 1.216.966-1.253.965-1.917.966.774.965-1.437.966.442.965.185.966-2.285.965.147.966-.22.965.073.966 1.658.965-.368.966-4.386.966.442.965-.294.966 1.068.965-1.105.966-2.432.965 1.253.966.331.965-4.496.966-1.105.965 1.068.966-2.91.965-4.755.966-10.024.965-.663.966-2.616.965-5.565.966-.737.965-2.285.966.48.966-2.433.965.553.966 5.343.965 1.77.966-8.219 1.93 13.71.966 12.123.966-2.506.965 10.54.966 3.538.965 5.749.966-1.106.965 1.511.966-1.842.965-2.875.966-9.065.965-1.511.966 5.97.966.958.965 1.216.966 1.843.965 19.752.966-9.213.965 9.987.966-6.191.965 5.823.966-3.022.965 5.196.966-1.511.965 17.652.966 1.585.965 7.038.966-2.985 1.931-12.05.965-13.783.966 2.617.966-1.18.965 2.138.966-.48.965 7.26.966-4.9.965 2.763.966-11.535.965-2.763.966-166.313.965-11.83.966-6.044.965-1.179.966-5.97.965-7.665.966-13.746.965 156.916.966 9.508.966-6.634.965-.405.966 4.754.965 6.707.966 4.606.965 164.213.966 6.891 1.93 27.123.966 15.92.966 1.437.965 8.44.966-159.164.965-9.471.966 7.886.965 3.096.966-7.629.965 3.354.966.516.966-3.612.965 10.65.966 3.538.965-4.975.966-9.655.965 5.786.966-.369.965 6.007.966-1.474.965-11.534.966.59.965 8.733.966-2.727 1.93 8.476.966-12.825.966-7.112.965-2.727.966 4.017.966.958.965 1.437.966-11.608.965 3.98.966 8.292.965-4.68.966-12.604.965-5.38.966-7.113.965-9.213.966 7.518.965-7.334.966 2.506.965-.479.966 5.454.965-4.127.966 16.73.965-7.701.966 3.722.966-.258.965 8.439.966-3.575.965-1.179.966 2.727.965.995.966 1.364.965-2.47.966-5.527.965-12.677.966 3.906.965-9.913.966 2.911.965-1.843.966 8.44.965-7.85.966 4.901.965-4.496.966 2.138.966-2.285.965-1.18.966-7.406.965 11.313.966 6.78.965 5.344.966 2.248.965 7.924.966-.111.965.553.966 12.05.965 6.707.966 8.108.965 3.722.966 1.842.965 10.172.966 7.923.965-8.07.966-1.954.966-2.58.965 1.511.966-3.5.965.184.966-2.396.965 1.364.966-1.548.965 1.069.966 2.874.965 1.29.966-.81.965 1.105.966 2.911.965 5.344.966-.922.965-5.675.966.442.965-42.6.966-8.476.966-3.096.965-1.843.966-2.137.965-4.46.966-.773.965 39.579.966 10.355.965-2.395.966-5.49.965-2.212.966 2.838.965-2.727.966 42.49.965 7.15.966-2.802.965.7.966.111.965-1.4.966-1.953.966-44.554.965-13.451.966.995.965.368.966.184.965.774.966.369.965-.774 1.931-.11.966-3.096.965-1.106.966-.479.965.369 1.931-.332.966-1.585.965.443 1.932-1.364.965-1.843.966-.958.965-.479.966.11.965 1.033.966.663 1.93.737 1.932-.848.965.258.966-1.179 1.93-.11.966.516 1.931.184 1.932-.48.965.332.966-.258.965.553.966 1.327.965.995.966.147.965.48.966-.738.965-.073 1.931-1.843 2.897-3.059 1.93-1.363 1.932-1.917.966-1.621.965-2.064.966-1.4.965-.258.966-1.364.965-.11.966-.81.965-.664.966.59.965.036.966-1.437.965.11.966-1.584.965.074.966 1.474.965.958.966 1.474.965 1.695.966 2.396.966-1.106.965-.11.966-1.364.965.258.966-2.985.965 4.496.966-.737.965 1.437.966-.884.965 1.732.966-4.128.965 1.4.966-5.343.965-2.1.966 3.758.965 1.069.966 1.548.965 2.321.966 3.022.966-3.87.965 1.401.966-.073.965 1.842.966-2.174.965 8.255.966-1.327.965 5.417.966-.037.965 3.501.966-2.948.965.774.966-5.86 1.93 1.327.966 1.696.966-5.676.965 2.801h.966l.966-1.327.965-.147.966-1.106.965.774.966-2.58.965 2.838.966.885.965 1.695 1.931 2.027.966-1.99.965 6.301.966-2.837.965.184.966.332.965.59.966 2.469.965 1.437.966-2.322.966 1.622.965 1.363.966 3.612.965.22.966-1.99.965 1.77.966.184.965-.11.966.92.965-1.879.966-1.4.965.516.966-1.77.965 2.322.966 1.696.965-.074.966-2.248.965 1.953.966 1.069.966-2.764.965-3.206.966-1.695.965-2.801.966-.553.965-.258.966-2.8.965 2.247.966-.368.965-2.875h.966l.965 1.917.966-2.433.965.295.966 1.18 1.931 3.98.965.737.966-.48.966.111 1.93-5.896.966-4.423 1.931-6.854.966-3.648.965-3.059 1.931-.258.966-1.51.965.22.966.074.965 1.069.966 1.732.965 3.353.966-.295.965.664.966-.258.966-2.285.965-2.911.966-2.506.965-2.949.966-3.722.965-1.658.966-3.095 1.93-8.698h0" style="fill:none;stroke:#d55e00;stroke-linecap:round;stroke-width:1.5" id="line2d_3"/><path clip-path="url(#p139512e86f)" d="M149.973 340.624h48.276l.966-3.753h1.93l.966-1.877h.966l1.93-11.262.966-7.508.966-1.877.965-5.63.966-1.877 1.93-18.77.966-7.507.966 11.261.965-9.385.966-24.4.966-15.015.965 3.754.966 11.261.965 13.139.966-7.508h.965l.966 31.908.965 22.523.966 3.754.965 11.262.966 5.63.965 1.877.966 13.139.965 22.523.966 16.893.965-1.877.966-3.754.965-9.385.966 15.016.966-1.877.965-24.4.966-20.647.965 5.631.966 3.754.965 7.508.966-5.631.965 3.754h1.931l.966 7.507.965-1.877 1.931 11.262.966 7.508.965 3.754h.966l.965-7.508.966-13.139.966-7.507.965-5.631.966-7.508.965 1.877h.966l.965-1.877.966 5.63.965-1.876.966-3.754.965-1.877.966-5.63h.965l1.931 15.015 1.931 3.754.966-3.754h1.931l.966-13.139.965-5.63 1.931-3.754.966 1.877h1.93l.966 5.63h.966l.965-1.877h.966l.965 1.877h1.931l.966 5.631h.965l.966 1.877h.965l.966-1.877h1.931l.966-9.384.965 1.876h.966l.965-1.876h2.897l.965-3.754h.966l.965-1.877.966 1.877h3.862l.965-3.754.966 3.754h.966l.965-1.877h1.931l.966 11.261h2.896l.966 1.877h1.93l.966 7.508.966-1.877.965-3.754h.966l.965 3.754h1.931l.966-9.385.966 5.631.965 1.877.966-1.877.965-3.754h1.931l.966-3.754.965 3.754h.966l.965 3.754h2.897l.965 3.754.966-5.63.965-1.878h.966l.965-1.877h1.932l.965-1.877h.966l.965 3.754.966-3.754h3.862l.965-3.753.966-1.877h.965l.966 3.754h2.896l.966 3.753.965-7.507.966 3.754h3.862l.966-1.877.965 9.384h.966l.965-1.877h2.897l1.93 3.754.966-3.754h2.897l.965-5.63.966 5.63.966-5.63.965 1.876h2.897l.965 7.508.966-5.63.965 5.63.966 1.877h3.862l.965-1.877.966-11.261.965-18.77.966-3.754h1.931l.966-5.63.965-9.385.966 5.63.965 7.508 2.897-16.892.965 3.754.966 13.138.965 3.754.966 26.277.965 13.139 1.931 11.262.966-7.508.965 1.877.966-9.385.965-16.892.966-3.754 1.931 11.261.966-11.261.965-5.631.966 1.877.965-5.63.966-9.386 2.896-16.892.966 1.877.965 15.015.966-16.892.965 5.63h1.931l.966 16.893 1.931-39.415.966 13.138.965-13.138.966-9.385h.965l.966 16.892.965 13.139.966-1.877.965 41.293.966 30.03.965-28.154h.966l.965-5.63.966 16.892.965 13.139.966-46.924.965-31.908.966 26.277h.965l.966 1.877.966-16.892h.965l.966-18.77.965 1.878.966 48.8h.965l.966-5.63.965 3.753.966 5.63.965 63.816.966 30.031.965-16.892h.966l.965-30.03.966 13.138.965-48.8.966-5.631.965 3.753.966-20.646h1.931l.966-1.877.965 18.77.966-45.047.965 15.016h1.931l.966 18.769.965-28.154.966 46.923.965 1.877.966-54.43.965-18.77h.966l.965 26.277.966 9.385.966-16.893.965 20.646.966 3.754.965 18.77h.966l.965 46.923.966 5.63h.965l.966 18.77.965 35.662.966 18.77h.965l.966-78.832.965 18.77.966 9.384.965-13.139 1.931-56.308h.966l.966 16.893.965 26.277.966-46.923.965-15.016.966 3.754.965 9.385h.966l.965 28.154.966-45.047.965 31.908.966 7.508.965 28.154.966-3.754h.965l.966-28.154.965-20.646.966 37.538.965 9.385.966-16.892.966 3.753.965-13.138.966 22.523.965 28.154.966-37.539.965-22.523.966-11.261 1.93 26.277.966-52.554.966 5.63.965-3.753.966 13.138.965-9.385.966-13.138.965 13.138.966 11.262.965-3.754.966-5.63.966-1.878.965 24.4h.966l.965-13.138.966 5.63.965 1.878.966 3.754.965 1.877.966 9.384h1.93l.966-5.63.966-9.385.965 5.63.966 11.262.965-20.646h.966l.965-16.893.966 41.293.966 1.877.965 7.508.966-39.416.965-3.754h.966l.965 16.893.966-9.385.965-1.877 1.931 15.015v11.262l.966 11.262.965-1.877.966 16.892.965-11.261.966 9.384.965-11.261.966 11.261.965 3.754.966-7.508.966-16.892.965 24.4.966 7.508.965-18.77.966 7.508.965-7.508.966 11.262h.965l.966-18.77.965-9.384.966 9.385.965 13.138.966-7.507.965 5.63h.966l.965-5.63 1.931-7.508.966-5.631.966 13.139.965-7.508h.966l.965 1.877.966 5.63.965 3.754.966-1.877.965 11.262.966 1.877h1.93l.966-3.754.966 7.508.965-5.63.966-13.14.965-1.876h.966l.965 3.753.966-1.876.966-11.262.965-5.63.966-3.755h1.93l.966-7.507h.966l.965-1.877.966 5.63h3.862l.965-5.63 1.931 3.753h3.863l.965 5.631.966 1.877.965-3.754h3.862l.966 5.631h1.93l.966-7.508h2.897l.965-5.63 1.931-3.754.966 7.507h5.793l.966 5.631h3.862l.965-1.877h.966l.965-5.63h3.862l.966 1.876h.966l.965-9.384h1.931l.966-39.416.965-3.754h.966l.965-7.507h2.897l.965 26.277 1.931-3.754.966 9.384.965 18.77h1.931l.966 33.785.966 3.753.965-7.507.966 1.877.965-3.754h1.931l.966-26.277.965 3.754.966 9.384.965-5.63.966-3.754h1.93l.966 20.646.966-3.754.965 7.508.966 5.63.965 1.877h1.932l.965-9.384.966-7.508.965-18.77.966 1.878.965-13.139h1.931l.966-1.877.965-5.63.966 3.753.965 5.631h2.897l.965-7.508.966 22.524.965 13.138.966-20.646.966 11.261h1.93l.966-20.646.966 13.139.965-3.754 1.931 3.754h1.931l.966 33.784.965-20.646.966-1.877.965 16.893.966-3.754h1.931l.965 7.508 1.932-3.754.965 1.877.966-15.016h1.93l.966-9.385.966-3.753.965 5.63.966-5.63.965 18.769h1.931l.966-15.016.965 3.754.966 5.631.965-11.261.966 13.138h1.931l.966 3.754.965 11.262.966-5.631.965 7.507.966-15.015h1.93l.966 3.754.966-11.262.965-1.877.966 7.508.965-1.877h1.931l.966-5.63h.965l.966-18.77.965-3.754.966-11.261h1.931l.966 9.384.965 1.877.966 13.139.965-9.385.966 9.385h1.93l.966-22.524.966-5.63.965 7.507.966 5.631.965 15.016h1.931l.966-7.508h.965l.966-3.754.966-9.385.965-24.4h1.931l.966 30.031.965-3.754 1.931-18.769.966-7.508h.965" style="fill:none;stroke:#0072b2;stroke-linecap:round;stroke-width:1.5" id="line2d_4"/><path clip-path="url(#p139512e86f)" d="M117 340.624h725.4" style="fill:none;stroke:red;stroke-dasharray:1.5,2.475;stroke-dashoffset:0;stroke-width:1.5" id="line2d_5"/><path d="M117 576.72V77.76" style="fill:none;stroke:#d3d3d3;stroke-linecap:square;stroke-linejoin:miter;stroke-width:1.25" id="patch_3"/><path d="M117 576.72h725.4" style="fill:none;stroke:#d3d3d3;stroke-linecap:square;stroke-linejoin:miter;stroke-width:1.25" id="patch_4"/><g id="matplotlib.axis_1"><g id="xtick_1"><g style="fill:#696969" transform="matrix(.16 0 0 -.16 111.571 598.378)" id="text_1"><defs><path d="M9.813 72.906h9.859V5.078q0-13.187-5-19.14-5-5.954-16.094-5.954h-3.75v8.297h3.078q6.531 0 9.219 3.672Q9.813-4.39 9.813 5.078z" id="DejaVuSans-74"/><path d="M34.281 27.484q-10.89 0-15.093-2.484-4.204-2.484-4.204-8.5 0-4.781 3.157-7.594 3.156-2.797 8.562-2.797 7.485 0 12 5.297 4.516 5.297 4.516 14.078v2zm17.922 3.72V0H43.22v8.297Q40.14 3.328 35.547.953q-4.594-2.375-11.234-2.375-8.391 0-13.36 4.719Q6 8.016 6 15.922q0 9.219 6.172 13.906 6.187 4.688 18.437 4.688h12.61v.89q0 6.203-4.078 9.594-4.078 3.39-11.453 3.39-4.688 0-9.141-1.124-4.438-1.125-8.531-3.375v8.312q4.921 1.906 9.562 2.844 4.64.953 9.031.953 11.875 0 17.735-6.156 5.86-6.14 5.86-18.64z" id="DejaVuSans-97"/><path d="M54.89 33.016V0h-8.984v32.719q0 7.765-3.031 11.61-3.031 3.858-9.078 3.858-7.281 0-11.484-4.64-4.204-4.625-4.204-12.64V0H9.08v54.688h9.03v-8.5q3.235 4.937 7.594 7.374Q30.078 56 35.797 56q9.422 0 14.25-5.828 4.844-5.828 4.844-17.156z" id="DejaVuSans-110"/></defs><use xlink:href="#DejaVuSans-74"/><use x="29.492" xlink:href="#DejaVuSans-97"/><use x="90.771" xlink:href="#DejaVuSans-110"/></g></g><g id="xtick_2"><g style="fill:#696969" transform="matrix(.16 0 0 -.16 197.926 598.378)" id="text_2"><defs><path d="M34.188 63.188 20.797 26.906h26.812zm-5.579 9.718h11.188L67.578 0h-10.25l-6.64 18.703h-32.86L11.188 0H.78z" id="DejaVuSans-65"/><path d="M18.11 8.203v-29H9.077v75.484h9.031v-8.296q2.844 4.875 7.157 7.234Q29.594 56 35.594 56q9.968 0 16.187-7.906 6.235-7.907 6.235-20.797T51.78 6.484q-6.218-7.906-16.187-7.906-6 0-10.328 2.375-4.313 2.375-7.157 7.25zm30.578 19.094q0 9.906-4.079 15.547-4.078 5.64-11.203 5.64-7.14 0-11.218-5.64-4.079-5.64-4.079-15.547 0-9.906 4.078-15.547 4.079-5.64 11.22-5.64 7.124 0 11.202 5.64t4.078 15.547z" id="DejaVuSans-112"/><path d="M41.11 46.297q-1.516.875-3.297 1.281Q36.03 48 33.89 48q-7.625 0-11.703-4.953-4.079-4.953-4.079-14.234V0H9.08v54.688h9.03v-8.5q2.844 4.984 7.375 7.39Q30.031 56 36.531 56q.922 0 2.047-.125 1.125-.11 2.484-.36z" id="DejaVuSans-114"/></defs><use xlink:href="#DejaVuSans-65"/><use x="68.408" xlink:href="#DejaVuSans-112"/><use x="131.885" xlink:href="#DejaVuSans-114"/></g></g><g id="xtick_3"><g style="fill:#696969" transform="matrix(.16 0 0 -.16 289.977 598.378)" id="text_3"><defs><path d="M8.5 21.578v33.11h8.984V21.922q0-7.766 3.016-11.656 3.031-3.875 9.094-3.875 7.265 0 11.484 4.64 4.234 4.64 4.234 12.656v31h8.985V0h-8.984v8.406Q42.047 3.422 37.718 1q-4.313-2.422-10.032-2.422-9.421 0-14.312 5.86Q8.5 10.296 8.5 21.578zM31.11 56z" id="DejaVuSans-117"/><path d="M9.422 75.984h8.984V0H9.422z" id="DejaVuSans-108"/></defs><use xlink:href="#DejaVuSans-74"/><use x="29.492" xlink:href="#DejaVuSans-117"/><use x="92.871" xlink:href="#DejaVuSans-108"/></g></g><g id="xtick_4"><g style="fill:#696969" transform="matrix(.16 0 0 -.16 374.625 598.378)" id="text_4"><defs><path d="M39.406 66.219q-10.75 0-17.078-8.016-6.312-8-6.312-21.828 0-13.766 6.312-21.781 6.328-8 17.078-8 10.735 0 17.016 8 6.281 8.015 6.281 21.781 0 13.828-6.281 21.828-6.281 8.016-17.016 8.016zm0 8q15.328 0 24.5-10.281 9.188-10.282 9.188-27.563 0-17.234-9.188-27.516-9.172-10.28-24.5-10.28-15.375 0-24.593 10.25-9.204 10.265-9.204 27.546t9.204 27.563q9.218 10.28 24.593 10.28z" id="DejaVuSans-79"/><path d="M48.781 52.594v-8.407q-3.812 2.11-7.64 3.157-3.828 1.047-7.735 1.047-8.75 0-13.593-5.547-4.829-5.532-4.829-15.547 0-10.016 4.829-15.563 4.843-5.53 13.593-5.53 3.907 0 7.735 1.046 3.828 1.047 7.64 3.156V2.094Q45.016.344 40.984-.531q-4.015-.89-8.562-.89-12.36 0-19.64 7.765-7.266 7.765-7.266 20.953 0 13.375 7.343 21.031Q20.22 56 33.016 56q4.14 0 8.093-.86 3.953-.843 7.672-2.546z" id="DejaVuSans-99"/><path d="M18.313 70.219V54.688h18.5v-6.985h-18.5V18.016q0-6.688 1.828-8.594 1.828-1.906 7.453-1.906h9.218V0h-9.218q-10.407 0-14.36 3.875-3.953 3.89-3.953 14.14v29.688H2.687v6.984h6.594V70.22z" id="DejaVuSans-116"/></defs><use xlink:href="#DejaVuSans-79"/><use x="78.711" xlink:href="#DejaVuSans-99"/><use x="133.691" xlink:href="#DejaVuSans-116"/></g></g><g id="xtick_5"><g style="fill:#696969" transform="matrix(.16 0 0 -.16 464.954 598.378)" id="text_5"><use xlink:href="#DejaVuSans-74"/><use x="29.492" xlink:href="#DejaVuSans-97"/><use x="90.771" xlink:href="#DejaVuSans-110"/></g></g><g id="xtick_6"><g style="fill:#696969" transform="matrix(.16 0 0 -.16 550.344 598.378)" id="text_6"><use xlink:href="#DejaVuSans-65"/><use x="68.408" xlink:href="#DejaVuSans-112"/><use x="131.885" xlink:href="#DejaVuSans-114"/></g></g><g id="xtick_7"><g style="fill:#696969" transform="matrix(.16 0 0 -.16 642.394 598.378)" id="text_7"><use xlink:href="#DejaVuSans-74"/><use x="29.492" xlink:href="#DejaVuSans-117"/><use x="92.871" xlink:href="#DejaVuSans-108"/></g></g><g id="xtick_8"><g style="fill:#696969" transform="matrix(.16 0 0 -.16 727.042 598.378)" id="text_8"><use xlink:href="#DejaVuSans-79"/><use x="78.711" xlink:href="#DejaVuSans-99"/><use x="133.691" xlink:href="#DejaVuSans-116"/></g></g><g id="xtick_9"><g style="fill:#696969" transform="matrix(.16 0 0 -.16 817.37 598.378)" id="text_9"><use xlink:href="#DejaVuSans-74"/><use x="29.492" xlink:href="#DejaVuSans-97"/><use x="90.771" xlink:href="#DejaVuSans-110"/></g></g></g><g id="matplotlib.axis_2"><g id="ytick_1"><g style="fill:#696969" transform="matrix(.16 0 0 -.16 73.733 539.083)" id="text_10"><defs><path d="M10.594 35.5h62.593v-8.297H10.594z" id="DejaVuSans-8722"/><path d="M37.797 64.313 12.89 25.39h24.906zm-2.594 8.593H47.61V25.391h10.407v-8.203H47.609V0h-9.812v17.188H4.89v9.515z" id="DejaVuSans-52"/><path d="M31.781 66.406q-7.61 0-11.453-7.5Q16.5 51.422 16.5 36.375q0-14.984 3.828-22.484 3.844-7.5 11.453-7.5 7.672 0 11.5 7.5 3.844 7.5 3.844 22.484 0 15.047-3.844 22.531-3.828 7.5-11.5 7.5zm0 7.813q12.266 0 18.735-9.703 6.468-9.688 6.468-28.141 0-18.406-6.468-28.11-6.47-9.687-18.735-9.687-12.25 0-18.718 9.688-6.47 9.703-6.47 28.109 0 18.453 6.47 28.14Q19.53 74.22 31.78 74.22z" id="DejaVuSans-48"/></defs><use xlink:href="#DejaVuSans-8722"/><use x="83.789" xlink:href="#DejaVuSans-52"/><use x="147.412" xlink:href="#DejaVuSans-48"/></g></g><g id="ytick_2"><g style="fill:#696969" transform="matrix(.16 0 0 -.16 73.733 442.893)" id="text_11"><defs><path d="M19.188 8.297h34.421V0H7.33v8.297q5.609 5.812 15.296 15.594 9.703 9.797 12.188 12.64 4.734 5.313 6.609 9 1.89 3.688 1.89 7.25 0 5.813-4.078 9.469-4.078 3.672-10.625 3.672-4.64 0-9.797-1.61-5.14-1.609-11-4.89v9.969Q13.767 71.78 18.938 73q5.188 1.219 9.485 1.219 11.328 0 18.062-5.672 6.735-5.656 6.735-15.125 0-4.5-1.688-8.531-1.672-4.016-6.125-9.485-1.218-1.422-7.765-8.187-6.532-6.766-18.453-18.922z" id="DejaVuSans-50"/></defs><use xlink:href="#DejaVuSans-8722"/><use x="83.789" xlink:href="#DejaVuSans-50"/><use x="147.412" xlink:href="#DejaVuSans-48"/></g></g><g id="ytick_3"><use xlink:href="#DejaVuSans-48" style="fill:#696969" transform="matrix(.16 0 0 -.16 97.32 346.703)" id="text_12"/></g><g id="ytick_4"><g style="fill:#696969" transform="matrix(.16 0 0 -.16 87.14 250.513)" id="text_13"><use xlink:href="#DejaVuSans-50"/><use x="63.623" xlink:href="#DejaVuSans-48"/></g></g><g id="ytick_5"><g style="fill:#696969" transform="matrix(.16 0 0 -.16 87.14 154.324)" id="text_14"><use xlink:href="#DejaVuSans-52"/><use x="63.623" xlink:href="#DejaVuSans-48"/></g></g><g style="fill:#696969" transform="matrix(0 -.2 -.2 0 65.573 379.813)" id="text_15"><defs><path d="M51.125 44H36.922l-4.11-16.313h14.313zm-7.328 27.781-5.078-20.265h14.265L58.11 71.78h7.813L60.89 51.516h15.234V44h-17.14l-4-16.313h15.53V20.22H53.079L48 0h-7.813l5.032 20.219H30.906L25.875 0h-7.86l5.079 20.219H7.719v7.468h17.187L29 44H13.281v7.516h17.625l4.985 20.265z" id="DejaVuSans-35"/><path d="M30.61 48.39q-7.22 0-11.422-5.64-4.204-5.64-4.204-15.453 0-9.813 4.172-15.453 4.188-5.64 11.453-5.64 7.188 0 11.375 5.655 4.203 5.672 4.203 15.438 0 9.719-4.203 15.406-4.187 5.688-11.375 5.688zm0 7.61q11.718 0 18.406-7.625 6.703-7.61 6.703-21.078 0-13.422-6.703-21.078-6.688-7.64-18.407-7.64-11.765 0-18.437 7.64-6.656 7.656-6.656 21.078 0 13.469 6.656 21.078Q18.844 56 30.609 56z" id="DejaVuSans-111"/><path d="M37.11 75.984V68.5h-8.594q-4.828 0-6.72-1.953-1.874-1.953-1.874-7.031v-4.828h14.797v-6.985H19.922V0H10.89v47.703H2.297v6.984h8.594V58.5q0 9.125 4.25 13.297 4.25 4.187 13.468 4.187z" id="DejaVuSans-102"/><path d="M44.281 53.078v-8.5q-3.797 1.953-7.906 2.922-4.094.984-8.5.984-6.688 0-10.031-2.047-3.344-2.046-3.344-6.156 0-3.125 2.39-4.906 2.391-1.781 9.626-3.39l3.078-.688q9.562-2.047 13.593-5.781 4.032-3.735 4.032-10.422 0-7.625-6.032-12.078-6.03-4.438-16.578-4.438-4.39 0-9.156.86Q10.688.296 5.422 2v9.281q4.984-2.594 9.812-3.89 4.829-1.282 9.579-1.282 6.343 0 9.75 2.172 3.421 2.172 3.421 6.125 0 3.656-2.468 5.61-2.453 1.953-10.813 3.765l-3.125.735q-8.344 1.75-12.062 5.39-3.704 3.64-3.704 9.985 0 7.718 5.47 11.906Q16.75 56 26.811 56q4.97 0 9.36-.734 4.406-.72 8.11-2.188z" id="DejaVuSans-115"/><path d="M56.203 29.594v-4.39H14.891q.593-9.282 5.593-14.142 5-4.859 13.938-4.859 5.172 0 10.031 1.266 4.86 1.265 9.656 3.812v-8.5Q49.266.734 44.187-.344 39.11-1.422 33.892-1.422q-13.094 0-20.735 7.61-7.64 7.625-7.64 20.625 0 13.421 7.25 21.296Q20.016 56 32.328 56q11.031 0 17.453-7.11 6.422-7.093 6.422-19.296zm-8.984 2.64q-.094 7.36-4.125 11.75-4.032 4.407-10.672 4.407-7.516 0-12.031-4.25-4.516-4.25-5.203-11.97z" id="DejaVuSans-101"/></defs><use xlink:href="#DejaVuSans-35"/><use x="83.789" xlink:href="#DejaVuSans-32"/><use x="115.576" xlink:href="#DejaVuSans-111"/><use x="176.758" xlink:href="#DejaVuSans-102"/><use x="211.963" xlink:href="#DejaVuSans-32"/><use x="243.75" xlink:href="#DejaVuSans-99"/><use x="298.73" xlink:href="#DejaVuSans-97"/><use x="360.01" xlink:href="#DejaVuSans-115"/><use x="412.109" xlink:href="#DejaVuSans-101"/><use x="473.633" xlink:href="#DejaVuSans-115"/></g></g><g style="fill:#696969" transform="matrix(.24 0 0 -.24 261.11 71.76)" id="text_16"><defs><path d="M9.813 72.906h13.28l32.329-60.984v60.984h9.562V0h-13.28L19.39 60.984V0H9.813z" id="DejaVuSans-78"/><path d="M4.203 54.688h8.985l11.234-42.672 11.172 42.672h10.593l11.235-42.672 11.187 42.672h8.985L63.28 0H52.688L40.922 44.828 29.109 0H18.5z" id="DejaVuSans-119"/><path d="M64.406 67.281v-10.39q-4.984 4.64-10.625 6.922-5.64 2.296-11.984 2.296-12.5 0-19.14-7.64-6.641-7.64-6.641-22.094 0-14.406 6.64-22.047 6.64-7.64 19.14-7.64 6.345 0 11.985 2.296 5.64 2.297 10.625 6.938V5.609Q59.234 2.094 53.437.33q-5.78-1.75-12.218-1.75-16.563 0-26.094 10.124-9.516 10.14-9.516 27.672 0 17.578 9.516 27.703 9.531 10.14 26.094 10.14 6.531 0 12.312-1.734 5.797-1.734 10.875-5.203z" id="DejaVuSans-67"/><path d="M3.328 72.906h9.953L28.61 11.281l15.282 61.625h11.093l15.328-61.625 15.282 61.625h10.015L77.297 0H64.89L49.516 63.281 33.984 0H21.578z" id="DejaVuSans-87"/><path d="M9.078 75.984h9.031V31.11l26.813 23.578H56.39l-29-25.578L57.625 0H45.906L18.11 26.703V0H9.08z" id="DejaVuSans-107"/><path d="M4.89 31.39h26.313v-8H4.891z" id="DejaVuSans-45"/><path d="M2.984 54.688H12.5L29.594 8.797l17.093 45.89h9.516L35.687 0H23.485z" id="DejaVuSans-118"/><path d="M11.719 12.406h10.297V0H11.719zm0 39.297h10.297v-12.39H11.719z" id="DejaVuSans-58"/><path d="M12.406 8.297h16.11v55.625l-17.532-3.516v8.985l17.438 3.515h9.86V8.296H54.39V0H12.406z" id="DejaVuSans-49"/><path d="M45.406 27.984q0 9.766-4.031 15.125-4.016 5.375-11.297 5.375-7.219 0-11.25-5.375-4.031-5.359-4.031-15.125 0-9.718 4.031-15.093t11.25-5.375q7.281 0 11.297 5.375 4.031 5.375 4.031 15.093zm8.985-21.203q0-13.953-6.203-20.765Q42-20.797 29.203-20.797q-4.734 0-8.937.703-4.203.703-8.157 2.172v8.735q3.954-2.141 7.813-3.157 3.86-1.031 7.86-1.031 8.843 0 13.234 4.61 4.39 4.609 4.39 13.937v4.453q-2.781-4.844-7.125-7.234Q33.938 0 27.875 0 17.828 0 11.672 7.656q-6.156 7.672-6.156 20.328 0 12.688 6.156 20.344Q17.828 56 27.875 56q6.063 0 10.406-2.39 4.344-2.391 7.125-7.22v8.297h8.985z" id="DejaVuSans-103"/></defs><use xlink:href="#DejaVuSans-78"/><use x="74.805" xlink:href="#DejaVuSans-101"/><use x="136.328" xlink:href="#DejaVuSans-119"/><use x="218.115" xlink:href="#DejaVuSans-32"/><use x="249.902" xlink:href="#DejaVuSans-67"/><use x="319.727" xlink:href="#DejaVuSans-97"/><use x="381.006" xlink:href="#DejaVuSans-115"/><use x="433.105" xlink:href="#DejaVuSans-101"/><use x="494.629" xlink:href="#DejaVuSans-115"/><use x="546.729" xlink:href="#DejaVuSans-32"/><use x="578.516" xlink:href="#DejaVuSans-87"/><use x="671.518" xlink:href="#DejaVuSans-101"/><use x="733.041" xlink:href="#DejaVuSans-101"/><use x="794.564" xlink:href="#DejaVuSans-107"/><use x="852.475" xlink:href="#DejaVuSans-45"/><use x="890.434" xlink:href="#DejaVuSans-111"/><use x="951.615" xlink:href="#DejaVuSans-118"/><use x="1010.795" xlink:href="#DejaVuSans-101"/><use x="1072.318" xlink:href="#DejaVuSans-114"/><use x="1107.057" xlink:href="#DejaVuSans-45"/><use x="1139.141" xlink:href="#DejaVuSans-87"/><use x="1232.143" xlink:href="#DejaVuSans-101"/><use x="1293.666" xlink:href="#DejaVuSans-101"/><use x="1355.189" xlink:href="#DejaVuSans-107"/><use x="1413.1" xlink:href="#DejaVuSans-58"/><use x="1446.791" xlink:href="#DejaVuSans-32"/><use x="1478.578" xlink:href="#DejaVuSans-49"/><use x="1542.201" xlink:href="#DejaVuSans-52"/><use x="1605.824" xlink:href="#DejaVuSans-32"/><use x="1637.611" xlink:href="#DejaVuSans-97"/><use x="1698.891" xlink:href="#DejaVuSans-118"/><use x="1758.07" xlink:href="#DejaVuSans-103"/></g><g id="legend_1"><path d="M694.75 184.5H831.2q3.2 0 3.2-3.2V88.96q0-3.2-3.2-3.2H694.75q-3.2 0-3.2 3.2v92.34q0 3.2 3.2 3.2z" style="fill:none;opacity:.8;stroke:#ccc;stroke-linejoin:miter" id="patch_5"/><path d="M697.95 98.718h32" style="fill:none;stroke:#000;stroke-linecap:round;stroke-width:1.5" id="line2d_6"/><g style="fill:#696969" transform="matrix(.16 0 0 -.16 742.75 104.317)" id="text_17"><defs><path d="M8.688 72.906h9.921V28.61q0-11.718 4.235-16.875 4.25-5.14 13.781-5.14 9.469 0 13.719 5.14 4.25 5.157 4.25 16.875v44.297H64.5V27.391q0-14.25-7.063-21.532-7.046-7.28-20.812-7.28-13.828 0-20.89 7.28-7.047 7.282-7.047 21.532z" id="DejaVuSans-85"/><path d="M53.516 70.516V60.89q-5.61 2.687-10.594 4-4.984 1.328-9.625 1.328-8.047 0-12.422-3.125t-4.375-8.89q0-4.845 2.906-7.313 2.907-2.453 11.016-3.97l5.953-1.218q11.031-2.11 16.281-7.406 5.25-5.297 5.25-14.172 0-10.61-7.11-16.078-7.093-5.469-20.812-5.469-5.172 0-11.015 1.172Q13.14.922 6.89 3.219v10.156q6-3.36 11.765-5.078 5.766-1.703 11.328-1.703 8.438 0 13.032 3.312 4.593 3.328 4.593 9.485 0 5.359-3.297 8.39-3.296 3.032-10.812 4.547L27.484 33.5q-11.03 2.188-15.968 6.875-4.922 4.688-4.922 13.047 0 9.672 6.812 15.234 6.813 5.563 18.766 5.563 5.14 0 10.453-.938 5.328-.922 10.89-2.765z" id="DejaVuSans-83"/></defs><use xlink:href="#DejaVuSans-85"/><use x="73.193" xlink:href="#DejaVuSans-83"/></g><path d="M697.95 122.203h32" style="fill:none;stroke:#009e73;stroke-linecap:round;stroke-width:1.5" id="line2d_8"/><g style="fill:#696969" transform="matrix(.16 0 0 -.16 742.75 127.802)" id="text_18"><use xlink:href="#DejaVuSans-78"/><use x="74.805" xlink:href="#DejaVuSans-74"/></g><path d="M697.95 145.688h32" style="fill:none;stroke:#d55e00;stroke-linecap:round;stroke-width:1.5" id="line2d_10"/><g style="fill:#696969" transform="matrix(.16 0 0 -.16 742.75 151.287)" id="text_19"><defs><path d="M19.672 34.813V8.108H35.5q7.953 0 11.781 3.297 3.844 3.297 3.844 10.078 0 6.844-3.844 10.078-3.828 3.25-11.781 3.25zm0 29.984V42.828h14.61q7.218 0 10.75 2.703 3.546 2.719 3.546 8.282 0 5.515-3.547 8.25-3.531 2.734-10.75 2.734zm-9.86 8.11h25.204q11.28 0 17.375-4.688Q58.5 63.53 58.5 54.89q0-6.703-3.125-10.657-3.125-3.953-9.188-4.922 7.282-1.562 11.313-6.53 4.031-4.954 4.031-12.376 0-9.765-6.64-15.093Q48.25 0 35.984 0H9.812z" id="DejaVuSans-66"/></defs><use xlink:href="#DejaVuSans-66"/><use x="68.604" xlink:href="#DejaVuSans-101"/><use x="130.127" xlink:href="#DejaVuSans-114"/><use x="169.49" xlink:href="#DejaVuSans-103"/><use x="232.967" xlink:href="#DejaVuSans-101"/><use x="294.49" xlink:href="#DejaVuSans-110"/></g><path d="M697.95 169.173h32" style="fill:none;stroke:#0072b2;stroke-linecap:round;stroke-width:1.5" id="line2d_12"/><g style="fill:#696969" transform="matrix(.16 0 0 -.16 742.75 174.773)" id="text_20"><defs><path d="M44.39 34.188q3.172-1.079 6.172-4.594 3-3.516 6.032-9.672L66.609 0H56l-9.313 18.703q-3.624 7.328-7.015 9.719-3.39 2.39-9.25 2.39h-10.75V0h-9.86v72.906h22.266q12.5 0 18.656-5.234 6.157-5.219 6.157-15.766 0-6.89-3.203-11.437-3.204-4.532-9.297-6.282zM19.673 64.797V38.922h12.406q7.125 0 10.766 3.297 3.64 3.297 3.64 9.687 0 6.39-3.64 9.64-3.64 3.25-10.766 3.25z" id="DejaVuSans-82"/><path d="M54.89 33.016V0h-8.984v32.719q0 7.765-3.031 11.61-3.031 3.858-9.078 3.858-7.281 0-11.484-4.64-4.204-4.625-4.204-12.64V0H9.08v75.984h9.03V46.188q3.235 4.937 7.594 7.374Q30.078 56 35.797 56q9.422 0 14.25-5.828 4.844-5.828 4.844-17.156z" id="DejaVuSans-104"/><path d="M45.406 46.39v29.594h8.985V0h-8.985v8.203Q42.578 3.328 38.25.953q-4.313-2.375-10.375-2.375-9.906 0-16.14 7.906-6.22 7.922-6.22 20.813 0 12.89 6.22 20.797Q17.968 56 27.874 56q6.063 0 10.375-2.375 4.328-2.36 7.156-7.234zm-30.61-19.093q0-9.906 4.079-15.547 4.078-5.64 11.203-5.64 7.125 0 11.219 5.64 4.11 5.64 4.11 15.547 0 9.906-4.11 15.547-4.094 5.64-11.219 5.64-7.125 0-11.203-5.64-4.078-5.64-4.078-15.547z" id="DejaVuSans-100"/></defs><use xlink:href="#DejaVuSans-82"/><use x="64.982" xlink:href="#DejaVuSans-117"/><use x="128.361" xlink:href="#DejaVuSans-116"/><use x="167.57" xlink:href="#DejaVuSans-104"/><use x="230.949" xlink:href="#DejaVuSans-101"/><use x="292.473" xlink:href="#DejaVuSans-114"/><use x="333.586" xlink:href="#DejaVuSans-102"/><use x="368.791" xlink:href="#DejaVuSans-111"/><use x="429.973" xlink:href="#DejaVuSans-114"/><use x="469.336" xlink:href="#DejaVuSans-100"/></g></g></g></g><defs><clipPath id="p139512e86f"><path d="M117 77.76h725.4v498.96H117z"/></clipPath></defs></svg>