<svg height="864" viewBox="0 0 936 648" width="1248" xmlns="http://www.w3.org/2000/svg" xmlns:xlink="http://www.w3.org/1999/xlink"><defs><style>*{stroke-linecap:butt;stroke-linejoin:round}</style></defs><g id="figure_1"><path d="M0 648h936V0H0z" style="fill:#fff" id="patch_1"/><g id="axes_1"><path d="M117 576.72h725.4V77.76H117z" style="fill:none" id="patch_2"/><path clip-path="url(#p5ab2756be0)" d="m149.973 554.04 65.4-.087 6.813-.247 4.087-.327 1.363-.297 1.362-.493 2.725-1.474 1.363-1.061 2.725-2.51 4.087-4.985 1.363-1.968 2.725-2.841 1.362-1.904 2.725-3.383 2.725-3.925 1.363-.96 1.362-1.277 2.725-1.45 1.363-.674 1.362-.156 1.363.457 1.362-.207 1.363.696 1.363.493 1.362.242 1.363.417 1.362.266 1.363.45 1.362.244 1.363-.22 2.725.322 1.362-.293 2.725-1.52 1.363-.19 1.362.568 1.363.117 1.362.308 4.088 1.504 2.725.248 1.362.127 2.725.531 1.363.855 1.362.623 1.363.788 1.362.587 1.363.19 1.362.455 5.45.736 1.363-.57 1.362.18 1.363-.26 1.362.166 1.363.33 1.362.187 1.363-.137 2.725.65 1.362.585 1.363.436 4.087-.336 1.363-.378 2.725-.424 1.362.12 1.363-.562 1.363.12 1.362.272 1.363.5 1.362.268 1.363-.388 1.362-.214 1.363.435 1.362-.381 1.363-.07 1.362-.258 1.363-.822 1.362-.38 2.725-1.38 2.725-1.884 4.088-4.31 1.362-1.773 1.363-1.987 1.362-1.39 1.363-1.775 1.362-1.221 5.45-7.077 1.363-1.043 1.362-.71 1.363-1.059 1.362-.77 1.363-1.282 1.362-.586 2.725-2.946 4.088-5.249 1.362-1.202 1.363-2.136 1.362-.365 1.363-.234 1.362-.605 1.363.228 1.362.043 1.363-.188 1.362.768 1.363-.352 1.362-.585 1.363 1.09 1.362.095 4.088.836 1.363.6 1.362 1.345 1.363.463 1.362 1.582 1.363 1.294 1.362 1.766 1.363 1.547 1.362 1.072 4.088.57 2.725-.049 1.362.467 1.363.227 1.362.608 1.363.858 2.725 2.675 1.362 1.523 1.363 1.087 1.362 1.413 1.363.773 1.362 1.326 1.363-.39 1.362.548 1.363-.312 1.362.057 1.363.333 1.362.056 1.363-.148 1.362.53 1.363-.658 1.362 1.741 1.363-.106 1.362-.75 1.363.32 1.362.464 1.363 1.53 1.362 2.044 1.363-.12 1.362 1.127 1.363.613 1.362.426 1.363-.452 1.362-1.585 1.363-1.39 1.362-.803 1.363-.98 1.362-.179 2.726-.773 1.362-2.443 1.363.247 1.362-.31 1.363.015 1.362-.77 2.725-.247 1.363 2.38 1.362-.854 4.088-.097 1.362-.688 1.363.303 1.362-3.389 1.363.113 2.725-2.83 1.362-.727 1.363-.524 1.362-1.314 1.363 1.947 1.362-1.56 1.363-.925 1.362-1.213 1.363-1.555 1.362-.15 1.363-.42 1.362-2.356 1.363-.839 1.362-.593 1.363-1.322 1.362-2.006 1.363-3.492 1.362-1.6 1.363-1.244 1.362-1.865 1.363-2.387 2.725-4.07 1.362-.762 1.363-1.959 2.725-5.06 1.362-3.542 2.725-8.606 1.363-5.643 1.362-3.952 1.363-4.926 1.362-6.402 1.363-4.708 1.363-5.721 1.362-6.583 4.088-13.66 1.362-2.96 1.363-3.976 1.362-3.229 1.363-2.35 1.362-1.747 1.363-.764 1.362-1.782 1.363-2.2 1.362-1.134 1.363 11.445 1.362-.948 1.363 2.813 1.362.604 1.363 1.609 1.362-.86 1.363-2.778 1.362-15.535 1.363-3.45 1.362-7.374 4.088-14.58 1.362-2.506 1.363-1.009 1.362-6.651 1.363-.238 1.362-1.639 1.363.429 1.362 2.287 1.363-3.423 1.362-1.786 1.363 3.969 1.362 1.827 1.363.579 1.362-.066 1.363.177 1.362 2.333 1.363 6.07 1.362 20.321 1.363-3.102 1.362 3.767 1.363 1.699 1.362.076 1.363-.168 1.362-5.069 1.363-6.262 1.362-10.079 1.363-6.745 1.363-8.507 1.362-4.59 1.363-3.646 1.362-6.665 1.363-20.747 1.362 5.313 1.363-.858 1.362 3.237 1.363.703 1.362 3.596 1.363 5.622 1.362 8.074 1.363 6.84 1.362 5.252 1.363 11.566 4.087 18.273 1.363 6.634 1.362 4.558 1.363 5.419 1.362-1.828 2.725 8.81 2.725 6.921 1.363 4.601 2.725 4.309 2.725 9.373 2.725 10.21 1.362 3.902 1.363 3.54 1.362 6.363 1.363 2.897 1.362 3.414 1.363 2.738 1.362 4.05 1.363 2.742 1.362 3.176 1.363 5.105 1.362 4.31 1.363 3.353 1.362 4.57 1.363 2.915 1.362 2.021 1.363 1.163 1.362-.569 1.363-.99 1.362-.539 1.363-.808 1.363-.026 1.362.952 1.363.578 1.362.377 1.363 1.91 1.362 1.008 1.363 1.414 1.362 1.693 1.363.827 1.362 1.46 1.363-5.107 1.362.248 1.363 1.138 1.362.658 1.363.195 1.362.947 1.363.287 1.362 5.044 1.363.181 1.362-.085 1.363.259 1.362.49 1.363-.655 1.362.513 1.363.318 1.362-.3 1.363-2.835 1.362-1.177 1.363-1.884 1.362-.848 1.363-1.394 1.362-2.156 1.363-.744 1.362 1.6 1.363-1.08 1.362.82 1.363-.458 1.362 1.04 1.363-.818 1.362.046 1.363-.69 1.362-.448 1.363-1.76 1.362-.086 1.363-1.514 1.362.622 1.363-2.086 1.362-.362 1.363.928 1.362.424 1.363 1.486 1.362.875 1.363.238 1.362 2.258 1.363 1.757 1.363 1.001 1.362 1.988 1.363.427 1.362 1.069 1.363 3.114 2.725 2.264 1.362 1.133 2.725 1.536 1.363.54 1.362-.341 2.725 2.845 4.088 4.297 1.362.985 1.363 1.83 1.362.937 2.725 2.498 1.363.898 2.725 1.41 2.725 1.807 1.362.893h0" style="fill:none;stroke:#000;stroke-linecap:round;stroke-width:1.5" id="line2d_1"/><path clip-path="url(#p5ab2756be0)" d="m149.973 554.04 68.125-.11 2.725-.12 2.725-.23 2.725-.804 1.363-.755 1.362-1.51 1.363-.699 1.362-2.074 1.363-2.773 1.362-4.258 1.363-3.694 1.362-2.838 1.363-10.825 4.087-26.642 1.363-11.594 1.362-6.142 1.363-14.153 1.362-4.303 1.363-11.774 1.362-9.645 1.363-5.592 1.362-1.674 1.363-6.327 1.362 2.688 1.363-1.274 1.362 3.718 1.363 3.329 1.362-1.59 1.363 4.253 1.363-4.567 1.362 4.072 1.363-3.483 1.362 2.054 1.363 3.049 1.362-.91 1.363-3.853 1.362 3.293 1.363-6.356 1.362.814 1.363 4.713 1.362-1.87 1.363 1.83 1.362 6.771 1.363 4.563 1.362 5.348 1.363 8.675 1.362-1.654 1.363 3.998 1.362 2.439 1.363 3.123 1.362 1.72 1.363 5.552 1.362 3.213 1.363 3.593 1.362 4.478 1.363 7.896 1.362.56 1.363 7.626 1.362 2.399 2.725 6.092 1.363 2.234 1.362 1.01 1.363-1.46 1.362-.88 1.363-2.843 1.362.355 1.363-.23 1.362 3.993 1.363.974 1.362 3.833 1.363 1.51 1.362 2.608 1.363-.57 1.362 1.09 1.363-1.894 1.362 1.065 1.363 2.323 1.362.225 1.363 1.704 1.362 3.624 2.726 2.149 1.362 2.828 1.363.7 1.362 1.64 2.725-.176 1.363 2.289 1.362.58 1.363-.025 1.362.554 1.363-.12 1.362 1.365 1.363.33 1.362-.205 1.363.515 4.087-.395 1.363.594 1.362-8.765 1.363.005 1.362.245 1.363-.005 1.362.914 1.363-.38 1.362-.514 1.363 8.635h2.725l1.362-.3 1.363-.594 1.362.64 1.363.044 1.362.995 1.363.14 1.362-.2 1.363.15 1.362-.075 2.725-1.32 1.363.04 1.362 1.54 1.363.34 1.362 1.849 1.363.22 1.362.5 1.363.274 1.362-.095 1.363-2.039 1.362-1.25 1.363-2.678 1.362-1.344 1.363-.95 1.363-.454 1.362.19 1.363-1.16 1.362.72 2.725 1.844 1.363.635 1.362.454 1.363-.85 1.362 1.65 1.363.005 1.362-.115 1.363.03 1.362-.44 1.363-.57 1.362-1.409 1.363-1.05 1.362.45 1.363 1.655 1.362-.27 2.725 1.214 1.363 2.779 1.362 1.4 1.363-1.255 1.362-.675 1.363.435 1.362.145 1.363.415 1.362-1.035 1.363-.34 1.362.9 2.725-1.335 1.363-.14 4.087-1.169 1.363.12 1.362-.1 1.363.085 1.362.265 1.363-.105 2.725-.355 1.362-.62 2.725.06 1.363-.794 1.362-.305 1.363-.725 2.725-.125 1.363-.78 1.362-.29 1.363.05 1.362-.09 1.363.026 1.362-.305 1.363-1.444 1.362-1.225 1.363-.834 1.362-.15 1.363-1.5 1.362-.25 2.725-1.943 1.363.36 1.362.24 1.363-.865 1.362.994 1.363-3.418 1.362-.625 1.363.415 1.362-.625 1.363.21 1.362-1.794 1.363-2.149 1.362 1.634 1.363.275 1.362-.35 1.363-2.618 1.362-3.613h1.363l1.362-.455 1.363-.955 1.362-1.174 1.363-4.873 1.362.73 1.363-.12 2.725-6.492 1.362-1.939 1.363-4.652 1.362 2.728 1.363-3.068 2.725-1.645 1.362-3.863 1.363-2.059 1.362-.924 1.363-9.19 1.362-1.35 1.363-3.448 1.362-9.76 1.363-3.109 1.363-7.646 2.725-11.93 1.362-12.618 1.363-.804 1.362-1.245 1.363-4.942 1.362-3.449 1.363-1.144 1.362-1.58 1.363 2.85 1.362-6.807 1.363-1.245 1.362-.025 1.363-1.454 1.362-2.344 1.363 4.333 1.362.645 1.363 1.954 1.362-1.654 1.363-1.22 1.362-1.599 2.725-15.442 1.363-10.95 1.362-1.864 1.363-4.348 1.362-.8 1.363-1.634 1.362 10.06 1.363-4.577 1.362 9.375 1.363-6.172 1.362 7.546 1.363-6.187 1.362 4.323 1.363-1.23 1.362 10.24 1.363-5.102 1.362 8.131 1.363-3.183 1.362 4.458 1.363-2.244 1.362-5.817 1.363.96 1.362 14.267 1.363 2.134 1.362 4.728 1.363.454 1.362-1.959 1.363-2.204 1.362-7.556 1.363-6.746 1.363-241.62 1.362-13.03 1.363-5.666 1.362-11.91 1.363-7.596 2.725-19.37 1.362 228.662 1.363 8.385 1.362-10.125 1.363 1.934 1.362 3.279 1.363 7.056 1.362 2.55 1.363 7.415 1.362-.204 1.363 12.188 2.725 21.035 1.362-5.742 1.363-.68 1.362-1.45 1.363-.744 1.362 3.144 1.363 1.509 1.362-8.926 1.363 9.366 1.362 4.917 1.363 3.139 1.362 8.126 1.363 12.489 1.362 7.28 1.363 8.787 1.362 3.818 1.363-.22 1.362 4.767 1.363-2.134 1.362-10.29 1.363-1.833 1.362 2.478 1.363 3.763 1.362 10.815 1.363 5.577 1.362-.28 1.363 1.305 1.362 1.899 1.363 3.428 1.362 4.393 1.363.685 1.362-6.292 1.363 2.374 1.362 4.952 1.363-1.494 1.363-4.113 1.362-6.282 1.363-1.794 1.362-2.189 1.363-.655 1.362-2.863 1.363 1.909 1.362.854 1.363 2.064 1.362-.65 1.363 4.174 1.362-4.183 1.363-.42 1.362-3.104 1.363-2.588 1.362-.725 1.363-3.948 1.362-2.574 1.363 2.044 1.362-2.683 1.363-3.289 1.362-.88 1.363-5.207 1.362.36 1.363-1.644 1.362-5.427 1.363 1.079 1.362 2.639 1.363-6.032 1.362 1.214 1.363-6.332 1.362-2.349 1.363-.35 1.362 2.14 1.363-8.316 1.362 5.347 1.363 1.104 1.362 3.519 1.363 3.948 1.362 5.802 1.363-2.864 1.362 6.377 1.363 1.68 1.362 4.227 1.363 2.07 1.362 1.773 1.363-1.21 1.362 3.39 1.363 2.068 1.362-.94 1.363-1.614 1.362 1.19 1.363 1.464 1.362 5.572 1.363.44 1.363 3.438 1.362 7.732 1.363 5.692 1.362 7.271 1.363 55.912 1.362 3.574 1.363 6.816 2.725 9.81 1.362 5.967 1.363 2.48 1.362-49.916 1.363 5.597 1.362-2.089 2.725 8.601 1.363 4.693 2.725 8.445 1.362 2.214 1.363 10.21 1.362 4.923 1.363 3.218 1.362.02 1.363.35 1.362-.98 1.363-.42 1.362.21h0" style="fill:none;stroke:#009e73;stroke-linecap:round;stroke-width:1.5" id="line2d_2"/><path clip-path="url(#p5ab2756be0)" d="m149.973 554.04 59.95-.095 9.538-.429 1.362-.143 1.363-.666h1.362l1.363-1.334 1.362-1 1.363-2.142 1.362-7.714 1.363-1.952 1.362-.286 1.363-4.476 1.362-5.857 2.725-6.57 1.363-10.62 1.362-12.094 1.363-14.904 1.362-11.237 1.363-7.666 1.362-15.952 1.363-22.237 1.362-10.38 1.363-22.284 1.362-26.713 1.363-4.571 1.362-17.237 1.363-11.619 1.362 11.619 1.363 6.476 1.362 8.666 1.363 21.903 1.362.238 2.726 33.522 1.362-3.857 1.363-4.38 2.725 12.618 1.362-2.571 1.363-3.048 1.362-.524 1.363 4.381 1.362 9.428 1.363 6.666 1.362-3.57 2.725 22.95 1.363 9.428 1.362 6.428 1.363 9.476 1.362 4.476 1.363 11 1.362.761 1.363 2 1.362-1.476 1.363 6.428 1.362 3.571 1.363 5.714 1.362 2.333 1.363 4.095 1.362-.095 1.363 5.476 1.362.048 1.363 7.57 1.362-.714 1.363 2.096 1.362.476 2.725.047 1.363 3 1.362-6.428 1.363 2.143 1.362 1.714 1.363-1 2.725.095 1.362-3.047 1.363-3.333 1.362.238 1.363 1.285 1.362 3.572 1.363 3.19 1.362 1.476 1.363.81 1.362 4.904 1.363.476 1.363-1.952 1.362 1.952 1.363.19 1.362-.19 1.363-2.428 1.362-.953 1.363 1.476 1.362-1.57 1.363.332 1.362-.19 1.363-.857 1.362 3.19 1.363 1.476 1.362.286 1.363 1.571 1.362-.047 1.363.143 1.362 1 1.363-.048 1.362-14.856 1.363-3.762 1.362.857 1.363-3.095 1.362.286 1.363-.762 1.362.285 1.363 14.571 1.362 1.857 1.363-.905 1.362.762 1.363-.428 1.362 1.285 1.363-1.619 1.362-1.095 1.363.095 1.362.477 1.363 1.857 1.362.476 1.363.238 1.362 1.905 1.363 1.285 1.362 1.905 1.363.333 1.362 1.095 1.363-1.619 1.362-.095 1.363-1.238 2.725-1.143 1.362-.81 1.363-1.57h1.362l1.363-2.048h1.363l1.362.619 1.363-1.476 2.725.714 1.362 1.095 1.363.19 1.362.763 1.363-.429 1.362 1.667 1.363-1.667 1.362-.762h1.363l1.362.857 1.363-.285 1.362-.524 1.363-4.428 1.362-.239 1.363-1.523 1.362-2.429 1.363.62 1.362 1.523 1.363 4.143 1.362 4.618 1.363 1.334 1.362 3.095 1.363 2.666 1.362-.81 1.363-1.856 1.362-3.048 1.363.048 1.362-.571 1.363-1.286 1.362-.81 1.363-1.047 1.362.619 1.363-.714 1.362-.381 1.363 2.047 1.362.19 1.363.715 1.362 1.762 1.363-.143 1.362.524 1.363-.143 1.362-.334 1.363.096 1.362-.048 1.363 1.143 1.362-.095 1.363-1.667 1.362-.048 1.363-.761 1.363.38h1.362l1.363-2.38 1.362.285 1.363 1.381 1.362.238 1.363-.285 1.362-.953 1.363-.19 1.362.952 1.363-.476 1.362-1.952 2.725-2.572 1.363.048 1.362-.333 1.363-.905 4.087-2.238 1.363-.81 1.362-1.142 1.363-.381 1.362-2.333 1.363-.857 1.362-1 1.363-.096 1.362.286 1.363-1.571 1.362-2.81 1.363.096 1.362-2.572 1.363-.095 1.362-.619 1.363-3.762 1.362-.952 1.363-.666 1.362-2.238 1.363 1.285 1.362-1.476 1.363-5.761 1.362.857 1.363-1.953 2.725-2.761 1.362-5.714 1.363 1.523 1.362-.19 1.363-9.571 1.362-2.38 1.363.713 1.362-6 1.363-4.856 1.363-14.428 1.362-6.618 1.363-2.524 1.362-9.142 1.363-2.381 1.362-4.286 1.363-5.095 1.362-1.619 1.363.524 1.362-2.666 1.363-.096 1.362-9.904 1.363 2.62 1.362 4.237 1.363 1.238 1.362-9.857 1.363 11.095 1.362-4.571 1.363 5.047 1.362-5.714 1.363-3.142 1.362-4 1.363-3.19 1.362-14.38 2.725-4.238 1.363 3.856 1.362 5.81 1.363 3.619 1.362 15.665 1.363-.81 1.362 8.334 1.363-2.953 1.362 1.81 1.363-7.047 1.362 2.714 1.363-5.143 1.362 8.428h1.363l1.362 6.905h1.363l1.362-1.715 1.363-4.428 1.362-2.143 1.363 2.572 1.362 6.809 1.363-.19 1.362 1.19 1.363 2.333 1.362-3.619 1.363-1.571 1.362-6.476 1.363-3.571 1.363-207.988 1.362-15.285 1.363-9.523 1.362-5.952 1.363-9.857 1.362-7.333 1.363-10.951 1.362 202.56 1.363 13.475 1.362-6.238 1.363-4.143 1.362 4.571 2.725 4.572 1.363 4.19 1.362-6.38 1.363 8.19 2.725 22.093 1.362-5.476 1.363-.047 1.362-3.095 1.363 1.238 1.362 3.952 1.363-.143 1.362-5.285 1.363 6.523 1.362 3.047 1.363-.476 1.362 7.38 1.363 12.762 1.362 4.952 1.363-1.762 1.362 2 1.363-.524 1.362 4.667 1.363-.667 1.362-10.952 1.363.62 1.362 5.999 1.363 3 1.362 8.237 1.363 5.286 1.362-9.19 1.363 3.571 1.362 1.429 2.725 6.666 1.363 1.333 1.362-10.333 1.363 4.476 1.362-.238 1.363-5.428 1.363-10.285 1.362-3.952 1.363-.953 1.362-6.618 1.363.524 1.362-5.905 1.363 4.667 1.362 2.809 1.363 10.285 1.362-4 1.363 11.285 1.362-5.476 1.363 4.572 1.362-5.762 1.363.619 1.362-8.57 1.363-2.477 1.362-3.095 1.363 1.81 1.362-4.143 1.363 1.476 1.362-4.333 1.363-6.095 1.362 1.047 1.363-1.523 1.362-1.714 1.363 2.19 1.362 5.142 1.363-9.523 1.362-2.238 1.363-8.285 1.362-.333 1.363-1.143 1.362-5.666 1.363-8.095 1.362 10.285 1.363 2.666 1.362 7.952 1.363 1.381 1.362 8.524 1.363 2.047 2.725 11.904 1.362 6.428 1.363 2.19 1.362 4.477 1.363 1.238 1.362 7.475 1.363 2.143 1.362-.143 1.363.143 1.362 4.619 1.363 3.333 1.362 4 1.363 2.285 1.363 2.762 1.362 7.81 1.363 4.427 1.362 3.572 1.363 8.19 1.362 2.904 1.363 6.428 2.725 7.19 1.362 7.048 1.363 3.428 1.362-4 1.363 4.572 1.362-52.76 1.363-8.19 1.362 3.81 1.363 2.047 1.362.81 1.363 2.428 1.362 1.905 1.363 57.568 1.362 16.952 1.363.523 1.362-.047 1.363.571 1.362-.333 1.363 1.047 1.362 2.143h0" style="fill:none;stroke:#d55e00;stroke-linecap:round;stroke-width:1.5" id="line2d_3"/><path clip-path="url(#p5ab2756be0)" d="M149.973 554.04h77.663l1.362-4.85h2.725l1.363-2.426h1.362l2.725-14.55 1.363-9.701 1.362-2.425 1.363-7.276 1.362-2.425 2.725-24.252 1.363-9.7 1.362 9.7 1.363-12.126 1.362-31.527 1.363-21.827 1.362 4.85 1.363 7.276 1.362 9.7 1.363-19.4 1.362-2.426 1.363 33.953 1.362 26.677 1.363-7.276 1.363 2.425 1.362-2.425 1.363 12.126 1.362 4.85 1.363-2.425h1.362l2.725 4.85 1.363-2.425h1.362l1.363-4.85 1.362 2.425h2.725l2.725 14.551 1.363 4.85 1.362 9.701 1.363-2.425h1.362l1.363 12.126h1.362l1.363 4.85 1.362 7.276 1.363 4.85 1.362 7.276h1.363l2.725-19.402 2.725-4.85h4.087l1.363 9.7 1.362 7.276 4.088 7.276h8.175l1.362-4.85h2.725l1.363-7.276h4.087l1.363 4.85h2.725l1.363 7.276h1.362l1.363-2.425h1.362l1.363-2.426h5.45l1.362 2.426h1.363l1.362 2.425h2.725l1.363-4.85 1.362 2.425 4.088-7.276h2.725l1.362-4.85h2.725l2.725 4.85h2.725l1.363-4.85 1.362-2.425 1.363 2.425 1.362-2.425 1.363-4.85h2.725l1.362 9.7h2.725l1.363 2.425 1.362 4.85h2.725l1.363 4.85 1.362-4.85 2.725-4.85h4.088l1.362-2.425 1.363 7.275 1.363 2.426h8.175l1.362-2.426 1.363 2.426h4.087l1.363 2.425h4.087l1.363-2.425h2.725l1.362-2.426h1.363l1.362 2.426 1.363-2.426h4.087l1.363 2.426 1.362-4.85 1.363-2.426h1.362l1.363 2.425h2.725l1.362-2.425 1.363 4.85 1.362-7.275 1.363 2.425h4.087l1.363 2.425 1.362-7.275 1.363 9.7h5.45l1.362-2.425 1.363 7.276 1.362-4.85 1.363-2.426h4.088l1.362-4.85h1.363l2.725 4.85h4.087l1.363 7.276h1.362l1.363 2.425h5.45l1.362-4.85 1.363-2.426 1.362-12.125 1.363-21.827 1.362-4.85h4.088l1.362-12.126 2.725 19.401 4.088-21.826h1.362l1.363 14.55 1.362-7.275 2.725 24.252 2.725 14.55 2.725-19.4 1.363-2.426 2.725-24.251h2.725l1.362-14.551 1.363 7.275 1.362-4.85 1.363 4.85h4.087l1.363-16.976 1.362-7.276 1.363 16.977 1.363-33.953 1.362-4.85h2.725l1.363 7.275 1.362-19.401 1.363-29.102 1.362 21.826 1.363-16.976 1.362-12.126h1.363l1.362 4.85 1.363 9.701 1.362 14.551 1.363 19.402 1.362 33.952 1.363-36.377h2.725l1.362 2.425 1.363-12.126 1.362-38.803 1.363-58.204 1.362 21.826h1.363l1.362 7.276 1.363-12.126 1.362 14.551 1.363-4.85 1.362 36.377 1.363 26.677h1.362l1.363-7.275 1.362 7.275 1.363-4.85 1.362 43.653 1.363-19.401h2.725l1.362-31.528 1.363 4.85 1.362-48.503 1.363-12.126 1.362 41.228h2.725l1.363-7.275 1.362 4.85 1.363 19.402 1.362-14.551h4.088l1.363-7.276 1.362-31.527 1.363 12.126 1.362-9.701 1.363-29.102 1.362-24.252h1.363l1.362 26.677 1.363 16.976 1.362-2.425 1.363 12.126 1.362 4.85 1.363 24.252h1.362l1.363 53.354 1.362-24.252 1.363 12.126 1.362 14.551 1.363 16.976h2.725l1.362-75.18 1.363 41.228 1.362 9.7 1.363-4.85 1.362-31.527 1.363-12.126h1.362l1.363 75.18L665 474.01l1.363-48.503 1.362-4.85 1.363 21.826 1.362 12.126h1.363l1.362-38.803 1.363-16.976 1.362 50.928 2.725 9.701 1.363-16.976h1.362l1.363 38.803 1.362-16.976h1.363l1.362 7.275h1.363l1.362 16.976 1.363-16.976 1.362-9.7 1.363 19.4 1.362 2.426 1.363-24.252 1.363-9.7h1.362l1.363 16.976 1.362-29.102 1.363-9.701 1.362-4.85 1.363 24.251 1.362-12.126h2.725l1.363 4.85 1.362 14.552 1.363-4.85 1.362-26.677 1.363 21.826h2.725l1.362-21.826 1.363-7.276h1.362l1.363 26.677h4.087l1.363-2.425 2.725 4.85 1.362-12.126 1.363-4.85h1.362l1.363-21.827 1.362 31.528 1.363-4.85 1.362 9.7 1.363-24.252 1.362-4.85h1.363l1.362 21.826 1.363-14.55h1.362l2.725-12.127v21.827l1.363 9.7 1.362-2.424h1.363l1.362 16.976 2.725 14.55 1.363-7.275h1.362l1.363-9.7h1.362l1.363 16.976 1.362 9.7 1.363-2.425 1.363 12.126h1.362l1.363 12.126h1.362l1.363-7.275 1.362-4.85 2.725 14.55 1.363-9.7 1.362-2.426h1.363l1.362 9.701 1.363 4.85 1.362-7.275 1.363 4.85 1.362 16.977 1.363 2.425h1.362l1.363-4.85 1.362 2.425 1.363 12.125 2.725 9.701h2.725l1.362 9.7h1.363l1.362 2.426h0" style="fill:none;stroke:#0072b2;stroke-linecap:round;stroke-width:1.5" id="line2d_4"/><path d="M117 576.72V77.76" style="fill:none;stroke:#d3d3d3;stroke-linecap:square;stroke-linejoin:miter;stroke-width:1.25" id="patch_3"/><path d="M117 576.72h725.4" style="fill:none;stroke:#d3d3d3;stroke-linecap:square;stroke-linejoin:miter;stroke-width:1.25" id="patch_4"/><g id="matplotlib.axis_1"><g id="xtick_1"><g style="fill:#696969" transform="matrix(.16 0 0 -.16 110.39 598.378)" id="text_1"><defs><path d="M9.813 72.906h9.859V5.078q0-13.187-5-19.14-5-5.954-16.094-5.954h-3.75v8.297h3.078q6.531 0 9.219 3.672Q9.813-4.39 9.813 5.078z" id="DejaVuSans-74"/><path d="M34.281 27.484q-10.89 0-15.093-2.484-4.204-2.484-4.204-8.5 0-4.781 3.157-7.594 3.156-2.797 8.562-2.797 7.485 0 12 5.297 4.516 5.297 4.516 14.078v2zm17.922 3.72V0H43.22v8.297Q40.14 3.328 35.547.953q-4.594-2.375-11.234-2.375-8.391 0-13.36 4.719Q6 8.016 6 15.922q0 9.219 6.172 13.906 6.187 4.688 18.437 4.688h12.61v.89q0 6.203-4.078 9.594-4.078 3.39-11.453 3.39-4.688 0-9.141-1.124-4.438-1.125-8.531-3.375v8.312q4.921 1.906 9.562 2.844 4.64.953 9.031.953 11.875 0 17.735-6.156 5.86-6.14 5.86-18.64z" id="DejaVuSans-97"/><path d="M54.89 33.016V0h-8.984v32.719q0 7.765-3.031 11.61-3.031 3.858-9.078 3.858-7.281 0-11.484-4.64-4.204-4.625-4.204-12.64V0H9.08v54.688h9.03v-8.5q3.235 4.937 7.594 7.374Q30.078 56 35.797 56q9.422 0 14.25-5.828 4.844-5.828 4.844-17.156z" id="DejaVuSans-110"/></defs><use xlink:href="#DejaVuSans-74"/><use x="29.492" xlink:href="#DejaVuSans-97"/><use x="90.771" xlink:href="#DejaVuSans-110"/></g></g><g id="xtick_2"><g style="fill:#696969" transform="matrix(.16 0 0 -.16 189.38 598.378)" id="text_2"><defs><path d="M9.813 72.906h14.703l18.593-49.61 18.703 49.61h14.704V0H66.89v64.016l-18.797-50h-9.907l-18.796 50V0H9.813z" id="DejaVuSans-77"/><path d="M41.11 46.297q-1.516.875-3.297 1.281Q36.03 48 33.89 48q-7.625 0-11.703-4.953-4.079-4.953-4.079-14.234V0H9.08v54.688h9.03v-8.5q2.844 4.984 7.375 7.39Q30.031 56 36.531 56q.922 0 2.047-.125 1.125-.11 2.484-.36z" id="DejaVuSans-114"/></defs><use xlink:href="#DejaVuSans-77"/><use x="86.279" xlink:href="#DejaVuSans-97"/><use x="147.559" xlink:href="#DejaVuSans-114"/></g></g><g id="xtick_3"><g style="fill:#696969" transform="matrix(.16 0 0 -.16 271.046 598.378)" id="text_3"><defs><path d="M32.172-5.078q-3.797-9.766-7.422-12.735-3.61-2.984-9.656-2.984H7.906v7.516h5.282q3.703 0 5.75 1.765Q21-9.766 23.483-3.219l1.61 4.094-22.11 53.813H12.5l17.094-42.766 17.093 42.766h9.516z" id="DejaVuSans-121"/></defs><use xlink:href="#DejaVuSans-77"/><use x="86.279" xlink:href="#DejaVuSans-97"/><use x="147.559" xlink:href="#DejaVuSans-121"/></g></g><g id="xtick_4"><g style="fill:#696969" transform="matrix(.16 0 0 -.16 361.047 598.378)" id="text_4"><defs><path d="M8.5 21.578v33.11h8.984V21.922q0-7.766 3.016-11.656 3.031-3.875 9.094-3.875 7.265 0 11.484 4.64 4.234 4.64 4.234 12.656v31h8.985V0h-8.984v8.406Q42.047 3.422 37.718 1q-4.313-2.422-10.032-2.422-9.421 0-14.312 5.86Q8.5 10.296 8.5 21.578zM31.11 56z" id="DejaVuSans-117"/><path d="M9.422 75.984h8.984V0H9.422z" id="DejaVuSans-108"/></defs><use xlink:href="#DejaVuSans-74"/><use x="29.492" xlink:href="#DejaVuSans-117"/><use x="92.871" xlink:href="#DejaVuSans-108"/></g></g><g id="xtick_5"><g style="fill:#696969" transform="matrix(.16 0 0 -.16 440.095 598.378)" id="text_5"><defs><path d="M53.516 70.516V60.89q-5.61 2.687-10.594 4-4.984 1.328-9.625 1.328-8.047 0-12.422-3.125t-4.375-8.89q0-4.845 2.906-7.313 2.907-2.453 11.016-3.97l5.953-1.218q11.031-2.11 16.281-7.406 5.25-5.297 5.25-14.172 0-10.61-7.11-16.078-7.093-5.469-20.812-5.469-5.172 0-11.015 1.172Q13.14.922 6.89 3.219v10.156q6-3.36 11.765-5.078 5.766-1.703 11.328-1.703 8.438 0 13.032 3.312 4.593 3.328 4.593 9.485 0 5.359-3.297 8.39-3.296 3.032-10.812 4.547L27.484 33.5q-11.03 2.188-15.968 6.875-4.922 4.688-4.922 13.047 0 9.672 6.812 15.234 6.813 5.563 18.766 5.563 5.14 0 10.453-.938 5.328-.922 10.89-2.765z" id="DejaVuSans-83"/><path d="M56.203 29.594v-4.39H14.891q.593-9.282 5.593-14.142 5-4.859 13.938-4.859 5.172 0 10.031 1.266 4.86 1.265 9.656 3.812v-8.5Q49.266.734 44.187-.344 39.11-1.422 33.892-1.422q-13.094 0-20.735 7.61-7.64 7.625-7.64 20.625 0 13.421 7.25 21.296Q20.016 56 32.328 56q11.031 0 17.453-7.11 6.422-7.093 6.422-19.296zm-8.984 2.64q-.094 7.36-4.125 11.75-4.032 4.407-10.672 4.407-7.516 0-12.031-4.25-4.516-4.25-5.203-11.97z" id="DejaVuSans-101"/><path d="M18.11 8.203v-29H9.077v75.484h9.031v-8.296q2.844 4.875 7.157 7.234Q29.594 56 35.594 56q9.968 0 16.187-7.906 6.235-7.907 6.235-20.797T51.78 6.484q-6.218-7.906-16.187-7.906-6 0-10.328 2.375-4.313 2.375-7.157 7.25zm30.578 19.094q0 9.906-4.079 15.547-4.078 5.64-11.203 5.64-7.14 0-11.218-5.64-4.079-5.64-4.079-15.547 0-9.906 4.078-15.547 4.079-5.64 11.22-5.64 7.124 0 11.202 5.64t4.078 15.547z" id="DejaVuSans-112"/></defs><use xlink:href="#DejaVuSans-83"/><use x="63.477" xlink:href="#DejaVuSans-101"/><use x="125" xlink:href="#DejaVuSans-112"/></g></g><g id="xtick_6"><g style="fill:#696969" transform="matrix(.16 0 0 -.16 522.673 598.378)" id="text_6"><defs><path d="M9.813 72.906h13.28l32.329-60.984v60.984h9.562V0h-13.28L19.39 60.984V0H9.813z" id="DejaVuSans-78"/><path d="M30.61 48.39q-7.22 0-11.422-5.64-4.204-5.64-4.204-15.453 0-9.813 4.172-15.453 4.188-5.64 11.453-5.64 7.188 0 11.375 5.655 4.203 5.672 4.203 15.438 0 9.719-4.203 15.406-4.187 5.688-11.375 5.688zm0 7.61q11.718 0 18.406-7.625 6.703-7.61 6.703-21.078 0-13.422-6.703-21.078-6.688-7.64-18.407-7.64-11.765 0-18.437 7.64-6.656 7.656-6.656 21.078 0 13.469 6.656 21.078Q18.844 56 30.609 56z" id="DejaVuSans-111"/><path d="M2.984 54.688H12.5L29.594 8.797l17.093 45.89h9.516L35.687 0H23.485z" id="DejaVuSans-118"/></defs><use xlink:href="#DejaVuSans-78"/><use x="74.805" xlink:href="#DejaVuSans-111"/><use x="135.986" xlink:href="#DejaVuSans-118"/></g></g><g id="xtick_7"><g style="fill:#696969" transform="matrix(.16 0 0 -.16 609.068 598.378)" id="text_7"><use xlink:href="#DejaVuSans-74"/><use x="29.492" xlink:href="#DejaVuSans-97"/><use x="90.771" xlink:href="#DejaVuSans-110"/></g></g><g id="xtick_8"><g style="fill:#696969" transform="matrix(.16 0 0 -.16 686.695 598.378)" id="text_8"><use xlink:href="#DejaVuSans-77"/><use x="86.279" xlink:href="#DejaVuSans-97"/><use x="147.559" xlink:href="#DejaVuSans-114"/></g></g><g id="xtick_9"><g style="fill:#696969" transform="matrix(.16 0 0 -.16 768.362 598.378)" id="text_9"><use xlink:href="#DejaVuSans-77"/><use x="86.279" xlink:href="#DejaVuSans-97"/><use x="147.559" xlink:href="#DejaVuSans-121"/></g></g></g><g id="matplotlib.axis_2"><g id="ytick_1"><g style="fill:#696969" transform="matrix(.16 0 0 -.16 97.32 560.119)" id="text_10"><defs><path d="M31.781 66.406q-7.61 0-11.453-7.5Q16.5 51.422 16.5 36.375q0-14.984 3.828-22.484 3.844-7.5 11.453-7.5 7.672 0 11.5 7.5 3.844 7.5 3.844 22.484 0 15.047-3.844 22.531-3.828 7.5-11.5 7.5zm0 7.813q12.266 0 18.735-9.703 6.468-9.688 6.468-28.141 0-18.406-6.468-28.11-6.47-9.687-18.735-9.687-12.25 0-18.718 9.688-6.47 9.703-6.47 28.109 0 18.453 6.47 28.14Q19.53 74.22 31.78 74.22z" id="DejaVuSans-48"/></defs><use xlink:href="#DejaVuSans-48"/></g></g><g id="ytick_2"><g style="fill:#696969" transform="matrix(.16 0 0 -.16 87.14 497.976)" id="text_11"><defs><path d="M19.188 8.297h34.421V0H7.33v8.297q5.609 5.812 15.296 15.594 9.703 9.797 12.188 12.64 4.734 5.313 6.609 9 1.89 3.688 1.89 7.25 0 5.813-4.078 9.469-4.078 3.672-10.625 3.672-4.64 0-9.797-1.61-5.14-1.609-11-4.89v9.969Q13.767 71.78 18.938 73q5.188 1.219 9.485 1.219 11.328 0 18.062-5.672 6.735-5.656 6.735-15.125 0-4.5-1.688-8.531-1.672-4.016-6.125-9.485-1.218-1.422-7.765-8.187-6.532-6.766-18.453-18.922z" id="DejaVuSans-50"/></defs><use xlink:href="#DejaVuSans-50"/><use x="63.623" xlink:href="#DejaVuSans-48"/></g></g><g id="ytick_3"><g style="fill:#696969" transform="matrix(.16 0 0 -.16 87.14 435.832)" id="text_12"><defs><path d="M37.797 64.313 12.89 25.39h24.906zm-2.594 8.593H47.61V25.391h10.407v-8.203H47.609V0h-9.812v17.188H4.89v9.515z" id="DejaVuSans-52"/></defs><use xlink:href="#DejaVuSans-52"/><use x="63.623" xlink:href="#DejaVuSans-48"/></g></g><g id="ytick_4"><g style="fill:#696969" transform="matrix(.16 0 0 -.16 87.14 373.69)" id="text_13"><defs><path d="M33.016 40.375q-6.641 0-10.532-4.547-3.875-4.531-3.875-12.437 0-7.86 3.875-12.438 3.891-4.562 10.532-4.562 6.64 0 10.515 4.562 3.875 4.578 3.875 12.438 0 7.906-3.875 12.437-3.875 4.547-10.515 4.547zm19.578 30.922v-8.984q-3.719 1.75-7.5 2.671-3.782.938-7.5.938-9.766 0-14.922-6.594-5.14-6.594-5.875-19.922 2.875 4.25 7.219 6.516 4.359 2.266 9.578 2.266 10.984 0 17.36-6.672 6.374-6.657 6.374-18.125 0-11.235-6.64-18.032-6.641-6.78-17.672-6.78-12.657 0-19.344 9.687-6.688 9.703-6.688 28.109 0 17.281 8.204 27.563 8.203 10.28 22.015 10.28 3.719 0 7.5-.734t7.89-2.187z" id="DejaVuSans-54"/></defs><use xlink:href="#DejaVuSans-54"/><use x="63.623" xlink:href="#DejaVuSans-48"/></g></g><g id="ytick_5"><g style="fill:#696969" transform="matrix(.16 0 0 -.16 87.14 311.546)" id="text_14"><defs><path d="M31.781 34.625q-7.031 0-11.062-3.766-4.016-3.765-4.016-10.343 0-6.594 4.016-10.36Q24.75 6.391 31.78 6.391q7.032 0 11.078 3.78 4.063 3.798 4.063 10.345 0 6.578-4.031 10.343-4.016 3.766-11.11 3.766zm-9.86 4.188q-6.343 1.562-9.89 5.906Q8.5 49.079 8.5 55.329q0 8.733 6.219 13.812 6.234 5.078 17.062 5.078 10.89 0 17.094-5.078 6.203-5.079 6.203-13.813 0-6.25-3.547-10.61-3.531-4.343-9.828-5.906 7.125-1.656 11.094-6.5 3.984-4.828 3.984-11.796 0-10.61-6.468-16.282-6.47-5.656-18.532-5.656-12.047 0-18.531 5.656-6.469 5.672-6.469 16.282 0 6.968 4 11.797 4.016 4.843 11.14 6.5zM18.314 54.39q0-5.657 3.53-8.828 3.548-3.172 9.938-3.172 6.36 0 9.938 3.172 3.593 3.171 3.593 8.828 0 5.672-3.593 8.843-3.578 3.172-9.938 3.172-6.39 0-9.937-3.172-3.532-3.172-3.532-8.843z" id="DejaVuSans-56"/></defs><use xlink:href="#DejaVuSans-56"/><use x="63.623" xlink:href="#DejaVuSans-48"/></g></g><g id="ytick_6"><g style="fill:#696969" transform="matrix(.16 0 0 -.16 76.96 249.403)" id="text_15"><defs><path d="M12.406 8.297h16.11v55.625l-17.532-3.516v8.985l17.438 3.515h9.86V8.296H54.39V0H12.406z" id="DejaVuSans-49"/></defs><use xlink:href="#DejaVuSans-49"/><use x="63.623" xlink:href="#DejaVuSans-48"/><use x="127.246" xlink:href="#DejaVuSans-48"/></g></g><g id="ytick_7"><g style="fill:#696969" transform="matrix(.16 0 0 -.16 76.96 187.26)" id="text_16"><use xlink:href="#DejaVuSans-49"/><use x="63.623" xlink:href="#DejaVuSans-50"/><use x="127.246" xlink:href="#DejaVuSans-48"/></g></g><g id="ytick_8"><g style="fill:#696969" transform="matrix(.16 0 0 -.16 76.96 125.117)" id="text_17"><use xlink:href="#DejaVuSans-49"/><use x="63.623" xlink:href="#DejaVuSans-52"/><use x="127.246" xlink:href="#DejaVuSans-48"/></g></g><g style="fill:#696969" transform="matrix(0 -.2 -.2 0 68.8 379.813)" id="text_18"><defs><path d="M51.125 44H36.922l-4.11-16.313h14.313zm-7.328 27.781-5.078-20.265h14.265L58.11 71.78h7.813L60.89 51.516h15.234V44h-17.14l-4-16.313h15.53V20.22H53.079L48 0h-7.813l5.032 20.219H30.906L25.875 0h-7.86l5.079 20.219H7.719v7.468h17.187L29 44H13.281v7.516h17.625l4.985 20.265z" id="DejaVuSans-35"/><path d="M37.11 75.984V68.5h-8.594q-4.828 0-6.72-1.953-1.874-1.953-1.874-7.031v-4.828h14.797v-6.985H19.922V0H10.89v47.703H2.297v6.984h8.594V58.5q0 9.125 4.25 13.297 4.25 4.187 13.468 4.187z" id="DejaVuSans-102"/><path d="M48.781 52.594v-8.407q-3.812 2.11-7.64 3.157-3.828 1.047-7.735 1.047-8.75 0-13.593-5.547-4.829-5.532-4.829-15.547 0-10.016 4.829-15.563 4.843-5.53 13.593-5.53 3.907 0 7.735 1.046 3.828 1.047 7.64 3.156V2.094Q45.016.344 40.984-.531q-4.015-.89-8.562-.89-12.36 0-19.64 7.765-7.266 7.765-7.266 20.953 0 13.375 7.343 21.031Q20.22 56 33.016 56q4.14 0 8.093-.86 3.953-.843 7.672-2.546z" id="DejaVuSans-99"/><path d="M44.281 53.078v-8.5q-3.797 1.953-7.906 2.922-4.094.984-8.5.984-6.688 0-10.031-2.047-3.344-2.046-3.344-6.156 0-3.125 2.39-4.906 2.391-1.781 9.626-3.39l3.078-.688q9.562-2.047 13.593-5.781 4.032-3.735 4.032-10.422 0-7.625-6.032-12.078-6.03-4.438-16.578-4.438-4.39 0-9.156.86Q10.688.296 5.422 2v9.281q4.984-2.594 9.812-3.89 4.829-1.282 9.579-1.282 6.343 0 9.75 2.172 3.421 2.172 3.421 6.125 0 3.656-2.468 5.61-2.453 1.953-10.813 3.765l-3.125.735q-8.344 1.75-12.062 5.39-3.704 3.64-3.704 9.985 0 7.718 5.47 11.906Q16.75 56 26.811 56q4.97 0 9.36-.734 4.406-.72 8.11-2.188z" id="DejaVuSans-115"/></defs><use xlink:href="#DejaVuSans-35"/><use x="83.789" xlink:href="#DejaVuSans-32"/><use x="115.576" xlink:href="#DejaVuSans-111"/><use x="176.758" xlink:href="#DejaVuSans-102"/><use x="211.963" xlink:href="#DejaVuSans-32"/><use x="243.75" xlink:href="#DejaVuSans-99"/><use x="298.73" xlink:href="#DejaVuSans-97"/><use x="360.01" xlink:href="#DejaVuSans-115"/><use x="412.109" xlink:href="#DejaVuSans-101"/><use x="473.633" xlink:href="#DejaVuSans-115"/></g></g><g style="fill:#696969" transform="matrix(.24 0 0 -.24 209.887 71.76)" id="text_19"><defs><path d="M4.203 54.688h8.985l11.234-42.672 11.172 42.672h10.593l11.235-42.672 11.187 42.672h8.985L63.28 0H52.688L40.922 44.828 29.109 0H18.5z" id="DejaVuSans-119"/><path d="M64.406 67.281v-10.39q-4.984 4.64-10.625 6.922-5.64 2.296-11.984 2.296-12.5 0-19.14-7.64-6.641-7.64-6.641-22.094 0-14.406 6.64-22.047 6.64-7.64 19.14-7.64 6.345 0 11.985 2.296 5.64 2.297 10.625 6.938V5.609Q59.234 2.094 53.437.33q-5.78-1.75-12.218-1.75-16.563 0-26.094 10.124-9.516 10.14-9.516 27.672 0 17.578 9.516 27.703 9.531 10.14 26.094 10.14 6.531 0 12.312-1.734 5.797-1.734 10.875-5.203z" id="DejaVuSans-67"/><path d="M25.39 72.906h8.297L8.297-9.28H0z" id="DejaVuSans-47"/><path d="M9.813 72.906h9.859V42.094L52.39 72.906h12.703L28.906 38.922 67.672 0H54.688L19.672 35.11V0h-9.86z" id="DejaVuSans-75"/><path d="M9.422 54.688h8.984V0H9.422zm0 21.296h8.984v-11.39H9.422z" id="DejaVuSans-105"/><path d="M45.406 46.39v29.594h8.985V0h-8.985v8.203Q42.578 3.328 38.25.953q-4.313-2.375-10.375-2.375-9.906 0-16.14 7.906-6.22 7.922-6.22 20.813 0 12.89 6.22 20.797Q17.968 56 27.874 56q6.063 0 10.375-2.375 4.328-2.36 7.156-7.234zm-30.61-19.093q0-9.906 4.079-15.547 4.078-5.64 11.203-5.64 7.125 0 11.219 5.64 4.11 5.64 4.11 15.547 0 9.906-4.11 15.547-4.094 5.64-11.219 5.64-7.125 0-11.203-5.64-4.078-5.64-4.078-15.547z" id="DejaVuSans-100"/><path d="M18.313 70.219V54.688h18.5v-6.985h-18.5V18.016q0-6.688 1.828-8.594 1.828-1.906 7.453-1.906h9.218V0h-9.218q-10.407 0-14.36 3.875-3.953 3.89-3.953 14.14v29.688H2.687v6.984h6.594V70.22z" id="DejaVuSans-116"/><path d="M4.89 31.39h26.313v-8H4.891z" id="DejaVuSans-45"/><path d="M8.203 72.906h46.875v-4.203L28.61 0H18.312L43.22 64.594H8.203z" id="DejaVuSans-55"/><path d="M45.406 27.984q0 9.766-4.031 15.125-4.016 5.375-11.297 5.375-7.219 0-11.25-5.375-4.031-5.359-4.031-15.125 0-9.718 4.031-15.093t11.25-5.375q7.281 0 11.297 5.375 4.031 5.375 4.031 15.093zm8.985-21.203q0-13.953-6.203-20.765Q42-20.797 29.203-20.797q-4.734 0-8.937.703-4.203.703-8.157 2.172v8.735q3.954-2.141 7.813-3.157 3.86-1.031 7.86-1.031 8.843 0 13.234 4.61 4.39 4.609 4.39 13.937v4.453q-2.781-4.844-7.125-7.234Q33.938 0 27.875 0 17.828 0 11.672 7.656q-6.156 7.672-6.156 20.328 0 12.688 6.156 20.344Q17.828 56 27.875 56q6.063 0 10.406-2.39 4.344-2.391 7.125-7.22v8.297h8.985z" id="DejaVuSans-103"/></defs><use xlink:href="#DejaVuSans-78"/><use x="74.805" xlink:href="#DejaVuSans-101"/><use x="136.328" xlink:href="#DejaVuSans-119"/><use x="218.115" xlink:href="#DejaVuSans-32"/><use x="249.902" xlink:href="#DejaVuSans-67"/><use x="319.727" xlink:href="#DejaVuSans-97"/><use x="381.006" xlink:href="#DejaVuSans-115"/><use x="433.105" xlink:href="#DejaVuSans-101"/><use x="494.629" xlink:href="#DejaVuSans-115"/><use x="546.729" xlink:href="#DejaVuSans-32"/><use x="578.516" xlink:href="#DejaVuSans-47"/><use x="612.207" xlink:href="#DejaVuSans-32"/><use x="643.994" xlink:href="#DejaVuSans-49"/><use x="707.617" xlink:href="#DejaVuSans-48"/><use x="771.24" xlink:href="#DejaVuSans-48"/><use x="834.863" xlink:href="#DejaVuSans-75"/><use x="900.439" xlink:href="#DejaVuSans-32"/><use x="932.227" xlink:href="#DejaVuSans-114"/><use x="971.09" xlink:href="#DejaVuSans-101"/><use x="1032.613" xlink:href="#DejaVuSans-115"/><use x="1084.713" xlink:href="#DejaVuSans-105"/><use x="1112.496" xlink:href="#DejaVuSans-100"/><use x="1175.973" xlink:href="#DejaVuSans-101"/><use x="1237.496" xlink:href="#DejaVuSans-110"/><use x="1300.875" xlink:href="#DejaVuSans-116"/><use x="1340.084" xlink:href="#DejaVuSans-115"/><use x="1392.184" xlink:href="#DejaVuSans-32"/><use x="1423.971" xlink:href="#DejaVuSans-45"/><use x="1460.055" xlink:href="#DejaVuSans-45"/><use x="1496.139" xlink:href="#DejaVuSans-32"/><use x="1527.926" xlink:href="#DejaVuSans-55"/><use x="1591.549" xlink:href="#DejaVuSans-32"/><use x="1623.336" xlink:href="#DejaVuSans-100"/><use x="1686.813" xlink:href="#DejaVuSans-97"/><use x="1748.092" xlink:href="#DejaVuSans-121"/><use x="1807.271" xlink:href="#DejaVuSans-32"/><use x="1839.059" xlink:href="#DejaVuSans-97"/><use x="1900.338" xlink:href="#DejaVuSans-118"/><use x="1959.518" xlink:href="#DejaVuSans-101"/><use x="2021.041" xlink:href="#DejaVuSans-114"/><use x="2062.154" xlink:href="#DejaVuSans-97"/><use x="2123.434" xlink:href="#DejaVuSans-103"/><use x="2186.91" xlink:href="#DejaVuSans-101"/></g><g id="legend_1"><path d="M694.75 184.5H831.2q3.2 0 3.2-3.2V88.96q0-3.2-3.2-3.2H694.75q-3.2 0-3.2 3.2v92.34q0 3.2 3.2 3.2z" style="fill:none;opacity:.8;stroke:#ccc;stroke-linejoin:miter" id="patch_5"/><path d="M697.95 98.718h32" style="fill:none;stroke:#000;stroke-linecap:round;stroke-width:1.5" id="line2d_5"/><g style="fill:#696969" transform="matrix(.16 0 0 -.16 742.75 104.317)" id="text_20"><defs><path d="M8.688 72.906h9.921V28.61q0-11.718 4.235-16.875 4.25-5.14 13.781-5.14 9.469 0 13.719 5.14 4.25 5.157 4.25 16.875v44.297H64.5V27.391q0-14.25-7.063-21.532-7.046-7.28-20.812-7.28-13.828 0-20.89 7.28-7.047 7.282-7.047 21.532z" id="DejaVuSans-85"/></defs><use xlink:href="#DejaVuSans-85"/><use x="73.193" xlink:href="#DejaVuSans-83"/></g><path d="M697.95 122.203h32" style="fill:none;stroke:#009e73;stroke-linecap:round;stroke-width:1.5" id="line2d_7"/><g style="fill:#696969" transform="matrix(.16 0 0 -.16 742.75 127.802)" id="text_21"><use xlink:href="#DejaVuSans-78"/><use x="74.805" xlink:href="#DejaVuSans-74"/></g><path d="M697.95 145.688h32" style="fill:none;stroke:#d55e00;stroke-linecap:round;stroke-width:1.5" id="line2d_9"/><g style="fill:#696969" transform="matrix(.16 0 0 -.16 742.75 151.287)" id="text_22"><defs><path d="M19.672 34.813V8.108H35.5q7.953 0 11.781 3.297 3.844 3.297 3.844 10.078 0 6.844-3.844 10.078-3.828 3.25-11.781 3.25zm0 29.984V42.828h14.61q7.218 0 10.75 2.703 3.546 2.719 3.546 8.282 0 5.515-3.547 8.25-3.531 2.734-10.75 2.734zm-9.86 8.11h25.204q11.28 0 17.375-4.688Q58.5 63.53 58.5 54.89q0-6.703-3.125-10.657-3.125-3.953-9.188-4.922 7.282-1.562 11.313-6.53 4.031-4.954 4.031-12.376 0-9.765-6.64-15.093Q48.25 0 35.984 0H9.812z" id="DejaVuSans-66"/></defs><use xlink:href="#DejaVuSans-66"/><use x="68.604" xlink:href="#DejaVuSans-101"/><use x="130.127" xlink:href="#DejaVuSans-114"/><use x="169.49" xlink:href="#DejaVuSans-103"/><use x="232.967" xlink:href="#DejaVuSans-101"/><use x="294.49" xlink:href="#DejaVuSans-110"/></g><path d="M697.95 169.173h32" style="fill:none;stroke:#0072b2;stroke-linecap:round;stroke-width:1.5" id="line2d_11"/><g style="fill:#696969" transform="matrix(.16 0 0 -.16 742.75 174.773)" id="text_23"><defs><path d="M44.39 34.188q3.172-1.079 6.172-4.594 3-3.516 6.032-9.672L66.609 0H56l-9.313 18.703q-3.624 7.328-7.015 9.719-3.39 2.39-9.25 2.39h-10.75V0h-9.86v72.906h22.266q12.5 0 18.656-5.234 6.157-5.219 6.157-15.766 0-6.89-3.203-11.437-3.204-4.532-9.297-6.282zM19.673 64.797V38.922h12.406q7.125 0 10.766 3.297 3.64 3.297 3.64 9.687 0 6.39-3.64 9.64-3.64 3.25-10.766 3.25z" id="DejaVuSans-82"/><path d="M54.89 33.016V0h-8.984v32.719q0 7.765-3.031 11.61-3.031 3.858-9.078 3.858-7.281 0-11.484-4.64-4.204-4.625-4.204-12.64V0H9.08v75.984h9.03V46.188q3.235 4.937 7.594 7.374Q30.078 56 35.797 56q9.422 0 14.25-5.828 4.844-5.828 4.844-17.156z" id="DejaVuSans-104"/></defs><use xlink:href="#DejaVuSans-82"/><use x="64.982" xlink:href="#DejaVuSans-117"/><use x="128.361" xlink:href="#DejaVuSans-116"/><use x="167.57" xlink:href="#DejaVuSans-104"/><use x="230.949" xlink:href="#DejaVuSans-101"/><use x="292.473" xlink:href="#DejaVuSans-114"/><use x="333.586" xlink:href="#DejaVuSans-102"/><use x="368.791" xlink:href="#DejaVuSans-111"/><use x="429.973" xlink:href="#DejaVuSans-114"/><use x="469.336" xlink:href="#DejaVuSans-100"/></g></g></g></g><defs><clipPath id="p5ab2756be0"><path d="M117 77.76h725.4v498.96H117z"/></clipPath></defs></svg>