<svg height="864" viewBox="0 0 936 648" width="1248" xmlns="http://www.w3.org/2000/svg" xmlns:xlink="http://www.w3.org/1999/xlink"><defs><style>*{stroke-linecap:butt;stroke-linejoin:round}</style></defs><g id="figure_1"><path d="M0 648h936V0H0z" style="fill:#fff" id="patch_1"/><g id="axes_1"><path d="M117 576.72h725.4V77.76H117z" style="fill:none" id="patch_2"/><g id="PolyCollection_1"><defs><path d="M150.943-101.853H205.25l.97-1.413.97.185.969.12.97-.742.97.144.97-2.33.969-2.04.97-4.198.97.107.97-1.8.97-.994.969-3.628.97-5.922.97-4.74.97 1.272.97-4.455.969-12.722.97-6.774.97-1.105.97-.88.969.233.97-3.606.97-5.835.97.086.97.067.969-3.2.97 1.476.97.52.97-6.381.97-3.313.969 11.64.97 13.16.97-.376.97 3.368.969-1.052.97 5.825.97.176.97-.177.97-.397.969.068.97 3.248.97 1.342.97.348.97-.568.969-.802.97.27.97 5.27.97 3.555.97 5.519.969 6.176.97 7.36.97 3.009.97.412.969 1.004.97-4.243.97.484.97 1.427.97 1.402.969 2.132.97-1.434.97-1.311.97-2.55.97-1.325.969-.863.97.893.97.024.97-.024.969 4.228.97 3.076.97 1.115.97 1.228.97-.85.969.2.97.111.97-2.999.97-.23.97-.297.969-.386.97-.349.97-.456.97-.652.969-.08.97.02.97-.965.97-.202.97.775.969-.277.97-.534.97 3.428.97.277.97.19.969.135.97.095.97.062.97.032.969-1.968.97.92.97-.167.97-1.166.97-.089.969-.101.97-.118.97-3.195.97 1.184.97-.71.969.144.97.056.97-.028.97-.113.969-3.389.97-.63.97.989h.97l.97-.989.969-.17.97-.349.97 1.855.97-1.142.97.82.969-.18.97-.23.97-.303.97-.455.969 6.906.97-1.692.97-.864.97.061.97 2.056.969.021.97-.08.97 1.077.97.996.97.021.969-1.111.97-.238.97-.366.97-.6.969-.975.97 3.021.97-.068.97.916.97.111.969.045.97-.015.97 1.093.97.123.97-.946.969.964.97-1.065.97-.141.97-.194.969-.613.97-.079.97.902.97-.965.97-.859.969.081.97.065h.97l.97-1.661.97.207.969-.756.97 1.035.97.036.97.005.969-.025.97-.059.97-3.595.97 1.02.97.94.969-.073.97-.13.97-.204.97-.924.97.918.969.965.97-.059.97-.066.97-.074.969-.085.97-.098.97 1.997.97-.988.97.031.969.01.97-.01.97-2.784.97 2.753.97-1.028H392.42l.969.973.97.003.97 2.073.97 1.287.97.232.969.177.97.136.97.918.97-.912.97-3.86.969-7.164.97-.654.97.888.97.668.969-1.227.97-4.575.97-.124.97-3.835.97-3.722.969-2.034.97-2.31.97-.211.97.086.97-.117.969 7.923.97 1.222.97-.86.97-1.067.969-4.994.97 1.472.97-4.363.97-.118.97-.006.969 2.822.97 2.61.97-10 .97-1.09.97-2.48.969-1.92.97-3.611.97.686.97.304.97-10.462.969 1.104.97 5.173.97-10.243.97-.994.969.024.97-1.088.97-3.939.97-9.908.97-3.997.969-3.923.97-6.98.97-3.564.97.132.97 4.966.969-3.933.97-6.66.97 15.224.97 5.473.969-20.459.97-1.978.97-.516.97 3.402.97-.033.969-8.155.97-8.62.97-4.206.97 1.183.97 3.392.969-3.056.97 1.546.97-15.722.97-7.648.969 19.307.97-.177.97-.546.97-3.305.97 1.532.969 14.778.97 8.124.97 13.518.97 2.113.97-15.119.969 5.364.97-21.145.97 11.597.97 6.36.969-.403.97-.674.97-16.192.97 2.49.97-11.45.969-8.048.97 16.515.97-1.006.97-1.503.97-5.636.969-10.093.97 12.541.97-9.186.97-10.971.969-8.5.97-.021.97 7.867.97-5.91.97 4.005.969 1.27.97-9.741.97-.68.97-1.366.97 31.836.969-2.242.97 3.731.97 12.943.97 11.96.969 12.887.97 1.99.97-7.903.97 7.208.97 9.568.969 4.39.97-7.77.97-8.411.97-5.783.97-1.403.969 19.414.97-18.228.97-5.627.97-4.473.969.123.97.114.97 14.17.97-2.956.97 1.09.969-.062.97 11.823.97-1.42.97.274.97.06.969-14.008.97 21.291.97 5.859.97 2.276.969-.277.97-8.231.97 12.473.97 1.3.97 1.053.969-7.575.97-4.014.97 6.627.97-.291.97-15.523.969.799.97-.708.97.385.97-7.39.969.894.97 6.939.97-9.139.97 1.728.97-4.24.969-.87.97 3.716.97-1.278.97-2.072.97-6.293.969 2.44.97-2.377.97-.84.97 8.746.969.062.97-.825.97-9.368.97-1.609.97 1.2.969 5.785.97-1.998.97-.09.97-8.122.97 11.59.969-.938.97 5.088.97-14 .97-3.319.969.202.97-.104.97 6.76.97-1.88 1.939-1.79v-.15l.97 1.777.97-1.147.97 8.9.97.869.969 3.212.97-2.434.97 6.86.97 4.84.969-4.85.97-.299.97 15.205.97 8.675.97 4.214.969 1.626.97.187.97.484.97-.047.97 3.815.969 1.88.97 1.27.97 8.022.97-4.132.969 2.646.97-2.388.97.288.97-.194.97-.164.969 4.96.97 2.982.97-.233.97-.709.97 1.553.969 2.713.97 1.827.97 4.772.97 10.143.97 2.155.969.611.97 2.383.97 1.042.97 6.005.969 1.25.97 2.22.97-.2.97-.723.97 3.181.969-.89.97-1.256.97-3.358.97-.479.97-.588.969-.892.97-.931.97-1.299.97-1.348.969.625.97-.111.97-.142.97-.186.97-.123.969-2.677.97.063.97 1.927.97-.008.97-.012.969-.017.97-.023.97-.03.97.994H651.352l.969 3.142.97 1.214.97.276.97-3.899.97-.043.969-.048.97-.053.97-.057h.97l.969-.907.97.052.97.048.97.043.97.04.969-.12.97-.378.97-1.619.97 3.013.97.095.969.08.97.068.97.059.97-.965.969-.965h5.819l.97-.965.97-3.894.97.483.969.285.97-15.854.97.542.97 1.58.969-3.133.97-3.144.97 1.012.97.474.97-6.12.969-2.634.97-1.346.97-1.056.97 3.316.97-2.342.969-3.896.97 9.923.97-1.544.97-5.774.969.574.97 3.095.97.185.97.17.97-2.973.969.598.97-.674.97-2.919.97.557.97-.537.969-.775.97 8.234.97-.637.97 4.649.969 1.636.97 2.734.97.582.97.424.97 3.308.969-4.935.97-6.047.97 1.373.97-5.122.97-.326.969-.36.97 2.063.97-6.756.97-2.64.969 5.071.97-4.416.97.093.97-.21.97-2.795.969 3.004.97 2.51.97-6.368.97.74.97-.36.969-.539.97-11.895.97 10.485.97.966.969-4.901.97 1.97.97.02h.97l.97 4.905.969-.06.97-.381.97 4.307.97.348.97.296.969.253.97 8.805.97-.22.97-.535.969 5.212.97-8.111.97-.568.97-.802.97 3.682.969-3.356.97 1.348.97 1.81.97 1.843.97-.275.969-.518.97-3.87.97-.932.97 4.955.969-4.095.97 9.287.97.307.97.085.97-1.846.969 5.084.97 2.404.97.383.97 1.393.97.286.969.165.97-.339.97-1.79.97.65.969 2.83.97.14.97-.015.97-.174.97-3.844.969-1.211.97-7.422.97 2.449.97-4.508.97.87.969.626.97 2.204.97.215.97-1.7.97-2.88.969-1.153.97-.529.97-.966.97-9.347.969-2.614.97 2.467.97.024.97 6.63.97-.176.969-.234.97-12.9.97-2.357.97.266v-15.182l-.97.266-.97 3.432-.97 14.112-.97-.234-.97-.176-.97-6.876-.97.024-.969-1.392-.97 3.174-.97 9.948-.97-.967-.97-.528-.969.777-.97 2.908-.97 2.158-.97.215-.97-1.655-.969.626-.97.87-.97 7.07-.97-1.41-.969 9.943-.97.718-.97 1.944-.97-.173-.97-.015-.969.14-.97-4.89-.97-1.277-.97.138-.97-.338-.969.164-.97.286-.97-.536-.97.383-.969-1.455-.97-4.563-.97 2.013-.97.085-.97.307-.969-8.078-.97 3.622-.97-4.692-.97.998-.97 3.848-.969-.519-.97-.274-.97-2.016-.97-2.05-.969-2.51-.97 2.432-.97-4.035-.97-.803-.97-.567-.969 7.324-.97-4.435-.97 1.395-.97 1.708-.97-8.56-.969.253-.97.296-.97.348-.97-3.41-.969-.381-.97-.06-.97-4.744h-.97l-.97.02-.969-1.888-.97 4.747-.97-.964-.97-10.74-.97 13.189-.969-.538-.97-.361-.97-1.19-.97 5.21-.969-3.279-.97-4.714-.97 1.063-.97-.209-.97.093-.969 5.231-.97-4.576-.97 5.078-.97 8.68-.97-1.796-.969-.36-.97-.326-.97 4.525-.97-2.485-.969 5.528-.97 4.713-.97-2.48-.97.424-.97.582-.969-1.125-.97-.293-.97-3.07-.97 1.293-.97-7.202-.969-.775-.97-.537-.97-1.372-.97.94-.97-.674-.969-1.332-.97 2.815-.97.17-.97.186-.969-2.694-.97-1.355-.97 3.873-.97.385-.97-11.3-.969-3.897-.97-2.341-.97-6.332-.97-1.055-.97.583-.969 3.155-.97 7.386-.97.473-.97 1.013-.969 6.503-.97 6.514-.97 1.58-.97 4.4-.97 24.666-.969.284-.97.483-.97 5.754-.97.964h-5.818l-.97.965-.97.965-.97.059-.97.068-.969.08-.97.095-.97-2.776-.97.31-.97-.377-.969-.12-.97.04-.97.043-.97.048-.969.052-.97 1.022h-.97l-.97-.057-.97-.053-.969-.048-.97-.043-.97 3.82-.97.274-.97-.715-.969-2.646h-4.849l-.97-.936-.97-.03-.97-.022-.969-.018-.97-.012-.97-.007-.97-1.932-.97.062-.969 3.112-.97-.123-.97-.186-.97-.142-.969-.111-.97-1.305-.97.582-.97-1.299-.97-.93-.969-.893-.97-.588-.97-.48-.97.502-.97-1.256-.969-.89-.97-4.537-.97-.723-.97-.2-.969-1.638-.97-.68-.97-5.572-.97-.887-.97-1.477-.969.611-.97.226-.97-7.223-.97-2.945-.97-2.032-.969-3.075-.97-2.306-.97-.71-.97-.233-.969-2.805-.97-4.688-.97-.164-.97-.194-.97-1.641-.969-2.389-.97-5.072-.97 3.587-.97-7.414-.97-2.59-.969-1.979-.97-3.902-.97-.047-.97-1.446-.969.188-.97-.304-.97-1.575-.97-4.831-.97-11.808-.969-.298-.97 4.797-.97-2.878-.97-4.717-.97 1.426-.969-2.577-.97-1.061-.97-8.464-.97.782-.969-2.082v-.15l-1.94 2.068-.97 1.98-.97-6.746-.969-.104-.97.201-.97 4.4-.97 14.941-.97-4.559-.969.992-.97-11.564-.97 9.243-.97-.09-.969 1.86-.97-5.79-.97-.73-.97 2.25-.97 9.926-.969-.825-.97.062-.97-8.619-.97-.84-.97 1.481-.969-3.347-.97 7.212-.97-2.072-.97-1.277-.969-4.002-.97 1.059-.97 3.478-.97-2.131-.97 10.156-.969-6.567-.97.895-.97 9.974-.97.385-.97 1.222-.969-6.92-.97 15.349-.97-.291-.97-6.879-.969 3.703-.97 5.932-.97-.876-.97-.63-.97-10.68-.969 5.274-.97-.276-.97-1.583-.97-3.789-.97-19.227-.969 13.004-.97.06-.97.274-.97 2.44-.97-9.402-.969-.062-.97-.84-.97 2.832-.97-14.77-.969.113-.97.123-.97 3.244-.97 2.092-.97 12.643-.969-21.104-.97-1.404-.97-5.782-.97 1.235-.97 3.808-.969-3.329-.97-7.797-.97-6.298-.97 9.462-.969 1.99-.97-6.408-.97-5.404-.97-8.282-.97-3.987-.969 3.546-.97-31.836-.97-1.366-.97-.68-.97 9.554-.969-.66-.97-3.712-.97 5.667-.97-7.57-.969-.02-.97 10.794-.97 12.183-.97 10.108-.97-12.541-.969 11.13-.97 5.942-.97-1.503-.97-1.006-.97-16.287-.969 13.176-.97 11.705-.97-5.228-.97 14.68-.969-.675-.97-.403-.97-11.005-.97-13.486-.97 21.303-.969-4.284-.97 15.753-.97 2.113-.97-7.706-.97-5.382-.969-16.094-.97-6.186-.97.554-.97-.546-.969-.177-.97-19.282-.97 9.717-.97 19.008-.97-.383-.969 4.662-.97-2.397-.97 1.184-.97 7.37-.97 10.675-.969 7.28-.97-1.962-.97-6.245-.97-4.375-.969-1.978-.97 18.13-.97-8.033-.97-17.577-.97 4.917-.969 3.785-.97-4.682-.97.133-.97 6.083-.97 10.385-.969 5.725-.97 5.65-.97 11.316-.97 3.78-.969-1.09-.97.024-.97 2.866-.97 12.91-.97-4.474-.969 1.103-.97 14.622-.97.304-.97.686-.97 6.036-.969 3.868-.97 3.31-.97.838-.97 9.295-.969-3.178-.97-2.966-.97-.006-.97-.118-.97 3.354-.969-2.387-.97 2.724-.97-1.067-.97-.86-.97-2.637-.969-9.442-.97-2.046-.97-1.844-.97-.21-.969 3.478-.97 3.754-.97 5.926-.97 5.812-.97 1.805-.969 7.002-.97 2.632-.97.668-.97.888-.97 3.205-.969 10.2-.97 3.86-.97 1.017-.97-1.012-.969.136-.97.177-.97.232-.97-.642-.97-1.786-.969.003-.97-.956h-3.879l-.97.9-.97-3.035-.97 3.004-.969-.01-.97.01-.97.032-.97.94-.97-1.861-.969-.098-.97-.085-.97-.074-.97-.066-.97-.059-.969-.964-.97-1.011-.97 1.005-.97-.204-.969-.13-.97-.073-.97-.989-.97-.91-.97 4.122-.969-.058-.97-.026-.97.005-.97.037-.97-.895-.969 1.174-.97.207-.97 2.197h-.97l-.969.065-.97.081-.97 1.071-.97.965-.97-1.028-.969-.078-.97-.614-.97-.194-.97-.14-.97.863-.969-.965-.97.984-.97.123-.97-.837-.97-.015-.969.045-.97.111-.97-1.013-.97-.068-.969-2.767-.97.954-.97-.6-.97-.366-.97-.238-.969.818-.97.02-.97-.932-.97-.853-.97-.08-.969.021-.97-1.803-.97.062-.97 1.065-.969 2.166-.97-4.67-.97-.455-.97-.304-.97-.229-.969-.18-.97-1.11-.97.788-.97-2.004-.97-.349-.969-.17-.97.94h-.97l-.97-.94-.969 1.299-.97 4.33-.97-.114-.97-.027-.97.055-.969.144-.97 1.22-.97-.746-.97 4.523-.97-.118-.969-.101-.97-.089-.97.764-.97-.168-.969-1.009-.97 1.891-.97.032-.97.062-.97.095-.969.135-.97.19-.97.277-.97-2.36-.97-.534-.969-.278-.97-1.154-.97-.202-.97.965-.969.02-.97-.08-.97-.653-.97-.456-.97-.348-.969-.386-.97-.298-.97-.23-.97 2.79-.97.111-.969.201-.97 1.078-.97-.701-.97-.815-.969-2.712-.97-3.49-.97-.023-.97.023-.97-1.037-.969-.862-.97-1.326-.97-.62-.97-1.31-.97-1.434-.969-3.657-.97-2.457-.97-2.432-.97-1.445-.969 3.474-.97-.925-.97.412-.97-.85-.97-4.217-.969-3.471-.97-4.128-.97-2.233-.97-4.379-.97.271-.969-.802-.97-4.427-.97-3.512-.97-2.516-.969-4.47-.97-1.862-.97-.396-.97-.177-.97.176-.969-3.822-.97 2.806-.97-.491-.97 3.484-.97-8.064-.969-13.444-.97-5.242-.97-.593-.97-5.268-.969-6.243-.97-1.27-.97-3.792-.97-1.844-.97 5.742-.969 4.112-.97.233-.97 2.98-.97 4.682-.97 12.521-.969 18.15-.97 7.121-.97 1.272-.97 8.767-.969 9.513-.97 6.02-.97 2.865-.97 3.988-.97 2.037-.969 7.378-.97 3.75-.97 3.457-.97.145-.97 1.186-.969.121-.97.185-.97 2.445H150.943z" id="m30b756622d" style="stroke:#fff;stroke-opacity:.2"/></defs><g clip-path="url(#p1d00e046b2)"><use style="fill:#089fff;fill-opacity:.2;stroke:#fff;stroke-opacity:.2" xlink:href="#m30b756622d" y="648"/></g></g><g id="LineCollection_1"><path clip-path="url(#p1d00e046b2)" d="M206.22 546.147v-27.012M209.13 546.147v-13.506M211.07 546.147V505.63M212.039 546.147V505.63M213.009 546.147V465.11M213.979 546.147v-13.506M214.948 546.147V505.63M215.918 546.147v-27.012M216.888 546.147v-67.531M217.858 546.147v-108.05M218.828 546.147v-94.544M219.797 546.147v-27.012M220.767 546.147V465.11M221.737 546.147v-216.1M222.707 546.147V397.578M223.676 546.147V505.63M224.646 546.147v-67.531M225.616 546.147V505.63M226.586 546.147V411.085M227.556 546.147v-94.544M228.525 546.147v-27.012M230.465 546.147V465.11M231.435 546.147v-54.025M232.405 546.147v-54.025M233.374 546.147v-67.531M234.344 546.147v-67.531M235.314 546.147V505.63M237.253 546.147v-67.531M238.223 546.147V505.63M239.193 546.147v-67.531M240.163 546.147v-67.531M241.133 546.147v-94.544M242.102 546.147v-27.012M244.042 546.147v-67.531M245.982 546.147v-27.012M246.951 546.147V505.63M247.921 546.147V505.63M248.89 546.147V505.63M254.71 546.147v-13.506M257.619 546.147v-54.025M258.589 546.147v-54.025M259.559 546.147v-13.506M260.528 546.147v-13.506M261.498 546.147v-13.506M265.377 546.147v-13.506M272.166 546.147v-13.506M275.075 546.147v-27.012M277.984 546.147V505.63M278.954 546.147v-13.506M285.743 546.147v-13.506M286.713 546.147v-13.506M288.652 546.147v-13.506M292.531 546.147v-13.506M298.35 546.147v-27.012M300.29 546.147v-13.506M301.26 546.147v-13.506M302.23 546.147v-13.506M305.139 546.147v-54.025M307.078 546.147v-13.506M311.927 546.147V465.11M312.897 546.147v-13.506M314.836 546.147v-13.506M315.806 546.147v-27.012M318.716 546.147v-27.012M319.685 546.147v-13.506M326.474 546.147V505.63M327.444 546.147v-13.506M328.413 546.147v-13.506M332.293 546.147v-13.506M335.202 546.147v-13.506M339.081 546.147v-13.506M341.02 546.147v-13.506M347.81 546.147v-13.506M349.749 546.147v-13.506M352.658 546.147v-13.506M355.567 546.147v-13.506M356.537 546.147v-13.506M360.416 546.147v-27.012M361.386 546.147v-13.506M362.356 546.147v-13.506M366.235 546.147v-13.506M368.175 546.147v-54.025M373.993 546.147V505.63M379.812 546.147v-13.506M381.752 546.147v-27.012M382.721 546.147v-13.506M386.6 546.147V505.63M388.54 546.147v-13.506M400.178 546.147v-27.012M401.147 546.147v-13.506M402.117 546.147v-67.531M403.087 546.147V424.591M404.057 546.147v-27.012M406.966 546.147v-27.012M407.936 546.147V465.11M408.906 546.147v-13.506M409.875 546.147v-67.531M410.845 546.147v-67.531M411.815 546.147V505.63M412.785 546.147V505.63M413.755 546.147v-27.012M415.694 546.147v-54.025M420.543 546.147V465.11M421.513 546.147v-54.025M422.483 546.147v-67.531M423.452 546.147v-67.531M424.422 546.147v-67.531M427.332 546.147V384.072M428.301 546.147v-13.506M429.271 546.147v-94.544M430.24 546.147V505.63M431.21 546.147v-67.531M434.12 546.147V289.528M435.09 546.147v-54.025M437.03 546.147V316.541M438 546.147v-94.544M440.909 546.147v-216.1M441.878 546.147V384.072M442.848 546.147V384.072M443.818 546.147v-108.05M444.788 546.147V357.06M445.757 546.147v-67.531M447.697 546.147V357.06M448.667 546.147v-108.05M449.637 546.147V465.11M452.546 546.147V276.022M454.486 546.147V357.06M455.455 546.147v-94.544M456.425 546.147V397.578M457.395 546.147v-216.1M458.365 546.147v-324.15M459.334 546.147V397.578M461.274 546.147V397.578M462.244 546.147V384.072M463.214 546.147v-67.531M464.183 546.147V303.034M465.153 546.147V424.591M468.063 546.147V357.06M469.032 546.147V424.591M470.002 546.147v-94.544M471.942 546.147V316.541M474.851 546.147v-364.67M475.82 546.147v-94.544M476.79 546.147v-364.67M477.76 546.147v-67.531M481.64 546.147V140.96M482.61 546.147v-67.531M483.58 546.147V289.528M484.549 546.147V397.578M488.428 546.147V100.44M489.398 546.147V303.034M490.368 546.147V357.06M491.337 546.147V343.553M492.307 546.147V384.072M493.277 546.147V411.085M495.217 546.147V249.01M496.186 546.147V397.578M497.156 546.147V343.553M498.126 546.147V411.085M499.096 546.147V411.085M502.975 546.147V262.515M503.945 546.147V411.085M504.914 546.147v-54.025M505.884 546.147V505.63M508.794 546.147V127.453M509.763 546.147v-54.025M510.733 546.147V465.11M511.703 546.147V465.11M512.673 546.147v-216.1M513.643 546.147v-67.531M517.522 546.147V194.984M518.491 546.147v-108.05M519.461 546.147v-94.544M522.37 546.147v-216.1M523.34 546.147v-94.544M524.31 546.147v-67.531M525.28 546.147V465.11M526.25 546.147v-67.531M527.22 546.147v-94.544M530.129 546.147V357.06M531.099 546.147v-67.531M532.068 546.147V505.63M533.038 546.147v-67.531M534.978 546.147v-94.544M535.948 546.147v-54.025M536.917 546.147V465.11M537.887 546.147v-54.025M538.857 546.147V370.566M539.827 546.147V424.591M542.736 546.147v-216.1M543.706 546.147V411.085M544.676 546.147V465.11M545.645 546.147V505.63M546.615 546.147V357.06M549.525 546.147V357.06M550.494 546.147v-54.025M551.464 546.147v-108.05M552.434 546.147V357.06M553.404 546.147v-67.531M556.313 546.147V235.503M557.283 546.147v-94.544M558.253 546.147v-108.05M559.222 546.147V505.63M560.192 546.147v-67.531M563.102 546.147v-324.15M564.071 546.147V465.11M565.041 546.147v-94.544M566.011 546.147v-108.05M566.98 546.147v-94.544M568.92 546.147V424.591M569.89 546.147V397.578M570.86 546.147v-108.05M571.83 546.147V505.63M572.8 546.147V303.034M573.77 546.147V424.591M576.679 546.147V316.541M577.648 546.147v-108.05M579.588 546.147V424.591M579.588 546.147v-108.05M580.558 546.147v-67.531M581.528 546.147v-13.506M583.467 546.147V411.085M584.437 546.147v-67.531M585.407 546.147v-67.531M586.376 546.147V384.072M587.346 546.147v-67.531M588.316 546.147v-67.531M590.256 546.147V505.63M591.225 546.147v-13.506M592.195 546.147V465.11M593.165 546.147v-94.544M594.135 546.147v-67.531M597.044 546.147V465.11M598.014 546.147V505.63M598.984 546.147V505.63M599.953 546.147v-54.025M600.923 546.147V424.591M601.893 546.147v-13.506M603.833 546.147v-27.012M604.802 546.147v-13.506M605.772 546.147V465.11M606.742 546.147v-27.012M607.712 546.147v-27.012M610.621 546.147v-54.025M612.56 546.147v-13.506M620.319 546.147v-13.506M626.138 546.147v-13.506M627.107 546.147v-27.012M632.926 546.147v-13.506M638.745 546.147V505.63M639.715 546.147v-13.506M655.231 546.147v-54.025M661.05 546.147v-13.506M667.839 546.147v-13.506M668.808 546.147v-13.506M673.657 546.147v-13.506M674.627 546.147v-27.012M681.416 546.147v-27.012M682.385 546.147V465.11M685.295 546.147V262.515M686.264 546.147v-27.012M687.234 546.147v-13.506M688.204 546.147v-94.544M689.174 546.147v-67.531M692.083 546.147v-94.544M693.053 546.147V505.63M694.023 546.147v-13.506M694.993 546.147v-27.012M695.962 546.147v-13.506M698.872 546.147V411.085M699.841 546.147V505.63M700.811 546.147V465.11M701.781 546.147V465.11M702.75 546.147v-27.012M705.66 546.147V411.085M706.63 546.147v-27.012M707.6 546.147v-13.506M708.57 546.147v-54.025M712.449 546.147v-27.012M713.418 546.147v-54.025M714.388 546.147v-27.012M715.358 546.147v-67.531M719.237 546.147v-94.544M720.207 546.147v-94.544M721.177 546.147v-94.544M722.147 546.147v-27.012M723.116 546.147v-67.531M726.995 546.147V384.072M727.965 546.147V465.11M729.905 546.147v-67.531M732.814 546.147V424.591M733.784 546.147V505.63M734.754 546.147v-54.025M735.724 546.147v-108.05M736.693 546.147v-54.025M739.603 546.147V370.566M740.572 546.147v-13.506M741.542 546.147v-67.531M742.512 546.147v-67.531M743.482 546.147V505.63M746.391 546.147v-54.025M747.361 546.147V505.63M748.33 546.147v-54.025M749.3 546.147v-54.025M750.27 546.147v-54.025M753.18 546.147v-54.025M754.15 546.147v-27.012M755.12 546.147V465.11M757.059 546.147V397.578M760.938 546.147V465.11M761.908 546.147v-27.012M762.878 546.147v-27.012M763.847 546.147v-27.012M766.757 546.147v-108.05M767.726 546.147V505.63M768.696 546.147v-13.506M769.666 546.147v-54.025M770.636 546.147v-27.012M773.545 546.147v-27.012M774.515 546.147v-13.506M776.455 546.147v-27.012M777.424 546.147v-13.506M780.334 546.147v-108.05M781.303 546.147v-54.025M784.213 546.147v-27.012M787.122 546.147v-67.531M788.092 546.147v-27.012M789.062 546.147V424.591M791.001 546.147v-94.544M793.91 546.147V465.11M794.88 546.147v-54.025M795.85 546.147v-27.012M796.82 546.147V505.63M797.79 546.147V505.63M800.7 546.147V343.553M801.669 546.147v-67.531M802.639 546.147v-94.544M807.488 546.147V276.022M808.457 546.147v-94.544M809.427 546.147v-27.012" style="fill:none;stroke:#000;stroke-dasharray:1.5,2.475;stroke-dashoffset:0;stroke-width:1.5"/></g><path clip-path="url(#p1d00e046b2)" d="M149.973 546.147h55.278l.97-1.929h1.939l.97-.965h.97l1.939-5.788.97-5.789.97-.964.97-2.895.97-1.929.969-4.824.97-7.718.97-6.753h.97l.97-5.788.969-15.436.97-9.647.97-2.894.97-1.93h.969l.97-3.859.97-5.788.97.965.97 1.929.969-.965.97 3.86.97 2.893.97-2.894.97.965.969 12.541.97 10.613.97-1.93.97 1.93.969-1.93.97 4.824h2.91l.969.965.97 3.858 2.91 5.789h1.939l.97 4.824.97 2.894 1.939 9.647.97 5.788.97 1.93h.97l.969.965.97-3.86.97.965 1.94 3.86.969 2.894h1.94l.97-.965h1.939l.97.965h1.94l.969 3.859.97 2.894 1.94 1.93.97-.965h1.939l.97-2.895h7.758l.97-.964h.97l.97.964h1.939l.97 2.895h5.818l.97-1.93.97.965h.97l.97-.965h2.909l.97-3.859.97.965.97-.965h3.878l.97-3.859.97-.965.97.965h.97l.97-.965h1.939l.97 1.93.97-.965.97.965h3.878l.97 5.788.97-1.93.97-.964h.97l.97 1.93h1.939l1.94 1.929h.97l.969-.965h2.91l.969-.964.97 2.894h.97l.97.965h2.909l.97.964h.97l.97-.964.969.964.97-.964h3.879l.97.964 1.94-1.93h2.909l.97-1.929h.97l.969-.964.97.964h3.879l.97-3.859 1.94 1.93h2.909l.97-.965 1.939 1.93h4.849l.97 1.929.97-.965h2.909l.97-2.894.97 2.894.97-.964h3.878l.97.964h.97l.97 1.93.97.965h2.909l.97.964.97-.964.97-3.86.969-8.682.97-1.93h1.94l.969-1.929.97-5.788.97-.965 1.94-9.647 1.939-5.789h.97l1.94 1.93.969 8.682.97 1.93h1.94l.969-3.86.97 1.93.97-3.859h1.94l1.939 5.789.97-9.648.97-.964 1.939-5.789.97-4.823h1.94l.97-12.542h.969l.97 4.824.97-11.577.97-1.93h1.939l.97-3.859.97-10.612 1.939-9.647.97-8.683.97-4.823h.97l.97 4.823.969-3.859.97-5.788.97 16.4.97 6.754.969-19.295h.97l.97 1.93.97 4.823.97.965.969-7.718.97-9.647.97-5.789h.97l.97 2.894.969-3.859.97.965.97-17.365.97-8.683.969 19.295h1.94l.97-1.93.97 3.86.969 15.435.97 6.753.97 10.613h.97l.97-15.436.969 4.823.97-21.224.97 12.542.97 8.682h1.939l.97-15.435.97 3.859 1.939-22.19.97 16.401h1.94l.97-5.788.969-10.612.97 12.541.97-9.647.97-11.577.969-9.647h.97l.97 7.718.97-5.789.97 3.86.969.964.97-9.647h1.94l.97 31.836.969-2.894.97 3.859.97 10.612 1.939 18.33h.97l.97-8.683.97 6.753.97 8.683.969 3.859.97-5.789.97-4.823h1.94l.969 20.259.97-15.436 1.94-7.718h1.939l.97 14.471.97-2.894.97.965h.969l.97 10.612.97-1.93h1.94l.969-13.506.97 20.26.97 4.823.97 1.93h.969l.97-6.753.97 11.576 1.94 1.93.969-6.753.97-3.86.97 6.754h.97l.97-15.436.969 3.86.97-.966h.97l.97-8.682h.969l.97 6.753.97-9.647.97 1.93.97-3.86.969-.965.97 3.86h1.94l.97-6.754.969 2.894.97-1.929h.97l.97 8.683h1.939l.97-9.648.97-1.93.97.966.969 5.788.97-1.93h.97l.97-8.682.97 11.577.969-.965.97 4.824.97-14.471.97-3.86h1.939l.97 6.754.97-1.93 1.939-1.93h0l.97 1.93.97-.964.97 8.682.97.965.969 2.894.97-1.93.97 5.79.97 3.858.969-4.824h.97l.97 13.507.97 6.753.97 2.894.969.965h.97l.97.964h.97l.97 3.86 1.939 3.858.97 7.718.97-3.859.969 3.86h.97l.97.964h1.94l.969 4.824.97 2.894h1.94l.97 1.93.969 2.893.97 1.93.97 3.859.97 8.682.97.965h.969l.97 1.93.97.964.97 5.789.969.965.97 1.929h1.94l.97 3.859h1.939l.97-1.93h4.848l.97-.964.97.965h3.88l.969-2.895h.97l.97 1.93h4.848l.97.965h4.85l.969 2.894.97.964h.97l.97-3.858h4.848l.97-.965h5.819l.97-.965.97 2.894h3.878l1.94-1.93h5.819l.97-.964.97-4.824h1.939l.97-20.26.97-1.929h.97l1.939-9.647h1.94l.97-6.753.969-2.894.97-.965h.97l.97 4.824h1.939l.97 10.612.97-.965.97-4.824.969.965.97 2.894h1.94l.97-2.894.969.965h.97l.97-1.93.97.965h1.939l.97 7.718.97-.965.97 3.86.969.964.97 1.93h1.94l.97 2.894.969-4.824.97-5.788.97 1.929.97-4.824h1.939l.97 1.93.97-7.718.97-3.859.969 4.824.97-4.824h1.94l.97-1.93.969 3.86.97 2.894.97-5.789.97.965h1.939l.97-12.542.97 10.613.97.964.969-4.823.97 1.929h1.94l.97 4.824h1.939l.97 3.859h2.909l.97 8.682 1.94-1.93.969 4.824.97-7.717h1.94l.97 3.859.969-2.895 2.91 5.789h1.939l.97-3.86.97-.964.97 4.824.969-3.86.97 8.683h1.94l.97-1.93.969 4.825.97 1.93h.97l.97.964h2.909l.97-.965.97.965.969 3.859h2.91l.97-2.894.969-.965.97-8.683.97 1.93.97-5.789h1.939l.97 1.93h.97l.97-1.93.97-2.894.969-.965h1.94l.97-9.647.969-2.894.97 1.93h.97l.97 6.752h1.939l.97-13.506.97-2.894h.97" style="fill:none;stroke:#000;stroke-linecap:round;stroke-width:1.5" id="line2d_1"/><path d="M117 576.72V77.76" style="fill:none;stroke:#d3d3d3;stroke-linecap:square;stroke-linejoin:miter;stroke-width:1.25" id="patch_3"/><path d="M117 576.72h725.4" style="fill:none;stroke:#d3d3d3;stroke-linecap:square;stroke-linejoin:miter;stroke-width:1.25" id="patch_4"/><g id="matplotlib.axis_1"><g id="xtick_1"><g style="fill:#696969" transform="matrix(.16 0 0 -.16 118.245 598.378)" id="text_1"><defs><path d="M9.813 72.906h9.859V5.078q0-13.187-5-19.14-5-5.954-16.094-5.954h-3.75v8.297h3.078q6.531 0 9.219 3.672Q9.813-4.39 9.813 5.078z" id="DejaVuSans-74"/><path d="M34.281 27.484q-10.89 0-15.093-2.484-4.204-2.484-4.204-8.5 0-4.781 3.157-7.594 3.156-2.797 8.562-2.797 7.485 0 12 5.297 4.516 5.297 4.516 14.078v2zm17.922 3.72V0H43.22v8.297Q40.14 3.328 35.547.953q-4.594-2.375-11.234-2.375-8.391 0-13.36 4.719Q6 8.016 6 15.922q0 9.219 6.172 13.906 6.187 4.688 18.437 4.688h12.61v.89q0 6.203-4.078 9.594-4.078 3.39-11.453 3.39-4.688 0-9.141-1.124-4.438-1.125-8.531-3.375v8.312q4.921 1.906 9.562 2.844 4.64.953 9.031.953 11.875 0 17.735-6.156 5.86-6.14 5.86-18.64z" id="DejaVuSans-97"/><path d="M54.89 33.016V0h-8.984v32.719q0 7.765-3.031 11.61-3.031 3.858-9.078 3.858-7.281 0-11.484-4.64-4.204-4.625-4.204-12.64V0H9.08v54.688h9.03v-8.5q3.235 4.937 7.594 7.374Q30.078 56 35.797 56q9.422 0 14.25-5.828 4.844-5.828 4.844-17.156z" id="DejaVuSans-110"/></defs><use xlink:href="#DejaVuSans-74"/><use x="29.492" xlink:href="#DejaVuSans-97"/><use x="90.771" xlink:href="#DejaVuSans-110"/></g></g><g id="xtick_2"><g style="fill:#696969" transform="matrix(.16 0 0 -.16 204.988 598.378)" id="text_2"><defs><path d="M34.188 63.188 20.797 26.906h26.812zm-5.579 9.718h11.188L67.578 0h-10.25l-6.64 18.703h-32.86L11.188 0H.78z" id="DejaVuSans-65"/><path d="M18.11 8.203v-29H9.077v75.484h9.031v-8.296q2.844 4.875 7.157 7.234Q29.594 56 35.594 56q9.968 0 16.187-7.906 6.235-7.907 6.235-20.797T51.78 6.484q-6.218-7.906-16.187-7.906-6 0-10.328 2.375-4.313 2.375-7.157 7.25zm30.578 19.094q0 9.906-4.079 15.547-4.078 5.64-11.203 5.64-7.14 0-11.218-5.64-4.079-5.64-4.079-15.547 0-9.906 4.078-15.547 4.079-5.64 11.22-5.64 7.124 0 11.202 5.64t4.078 15.547z" id="DejaVuSans-112"/><path d="M41.11 46.297q-1.516.875-3.297 1.281Q36.03 48 33.89 48q-7.625 0-11.703-4.953-4.079-4.953-4.079-14.234V0H9.08v54.688h9.03v-8.5q2.844 4.984 7.375 7.39Q30.031 56 36.531 56q.922 0 2.047-.125 1.125-.11 2.484-.36z" id="DejaVuSans-114"/></defs><use xlink:href="#DejaVuSans-65"/><use x="68.408" xlink:href="#DejaVuSans-112"/><use x="131.885" xlink:href="#DejaVuSans-114"/></g></g><g id="xtick_3"><g style="fill:#696969" transform="matrix(.16 0 0 -.16 297.426 598.378)" id="text_3"><defs><path d="M8.5 21.578v33.11h8.984V21.922q0-7.766 3.016-11.656 3.031-3.875 9.094-3.875 7.265 0 11.484 4.64 4.234 4.64 4.234 12.656v31h8.985V0h-8.984v8.406Q42.047 3.422 37.718 1q-4.313-2.422-10.032-2.422-9.421 0-14.312 5.86Q8.5 10.296 8.5 21.578zM31.11 56z" id="DejaVuSans-117"/><path d="M9.422 75.984h8.984V0H9.422z" id="DejaVuSans-108"/></defs><use xlink:href="#DejaVuSans-74"/><use x="29.492" xlink:href="#DejaVuSans-117"/><use x="92.871" xlink:href="#DejaVuSans-108"/></g></g><g id="xtick_4"><g style="fill:#696969" transform="matrix(.16 0 0 -.16 382.466 598.378)" id="text_4"><defs><path d="M39.406 66.219q-10.75 0-17.078-8.016-6.312-8-6.312-21.828 0-13.766 6.312-21.781 6.328-8 17.078-8 10.735 0 17.016 8 6.281 8.015 6.281 21.781 0 13.828-6.281 21.828-6.281 8.016-17.016 8.016zm0 8q15.328 0 24.5-10.281 9.188-10.282 9.188-27.563 0-17.234-9.188-27.516-9.172-10.28-24.5-10.28-15.375 0-24.593 10.25-9.204 10.265-9.204 27.546t9.204 27.563q9.218 10.28 24.593 10.28z" id="DejaVuSans-79"/><path d="M48.781 52.594v-8.407q-3.812 2.11-7.64 3.157-3.828 1.047-7.735 1.047-8.75 0-13.593-5.547-4.829-5.532-4.829-15.547 0-10.016 4.829-15.563 4.843-5.53 13.593-5.53 3.907 0 7.735 1.046 3.828 1.047 7.64 3.156V2.094Q45.016.344 40.984-.531q-4.015-.89-8.562-.89-12.36 0-19.64 7.765-7.266 7.765-7.266 20.953 0 13.375 7.343 21.031Q20.22 56 33.016 56q4.14 0 8.093-.86 3.953-.843 7.672-2.546z" id="DejaVuSans-99"/><path d="M18.313 70.219V54.688h18.5v-6.985h-18.5V18.016q0-6.688 1.828-8.594 1.828-1.906 7.453-1.906h9.218V0h-9.218q-10.407 0-14.36 3.875-3.953 3.89-3.953 14.14v29.688H2.687v6.984h6.594V70.22z" id="DejaVuSans-116"/></defs><use xlink:href="#DejaVuSans-79"/><use x="78.711" xlink:href="#DejaVuSans-99"/><use x="133.691" xlink:href="#DejaVuSans-116"/></g></g><g id="xtick_5"><g style="fill:#696969" transform="matrix(.16 0 0 -.16 473.186 598.378)" id="text_5"><use xlink:href="#DejaVuSans-74"/><use x="29.492" xlink:href="#DejaVuSans-97"/><use x="90.771" xlink:href="#DejaVuSans-110"/></g></g><g id="xtick_6"><g style="fill:#696969" transform="matrix(.16 0 0 -.16 558.96 598.378)" id="text_6"><use xlink:href="#DejaVuSans-65"/><use x="68.408" xlink:href="#DejaVuSans-112"/><use x="131.885" xlink:href="#DejaVuSans-114"/></g></g><g id="xtick_7"><g style="fill:#696969" transform="matrix(.16 0 0 -.16 651.398 598.378)" id="text_7"><use xlink:href="#DejaVuSans-74"/><use x="29.492" xlink:href="#DejaVuSans-117"/><use x="92.871" xlink:href="#DejaVuSans-108"/></g></g><g id="xtick_8"><g style="fill:#696969" transform="matrix(.16 0 0 -.16 736.438 598.378)" id="text_8"><use xlink:href="#DejaVuSans-79"/><use x="78.711" xlink:href="#DejaVuSans-99"/><use x="133.691" xlink:href="#DejaVuSans-116"/></g></g><g id="xtick_9"><g style="fill:#696969" transform="matrix(.16 0 0 -.16 827.158 598.378)" id="text_9"><use xlink:href="#DejaVuSans-74"/><use x="29.492" xlink:href="#DejaVuSans-97"/><use x="90.771" xlink:href="#DejaVuSans-110"/></g></g></g><g id="matplotlib.axis_2"><g id="ytick_1"><g style="fill:#696969" transform="matrix(.16 0 0 -.16 97.32 552.226)" id="text_10"><defs><path d="M31.781 66.406q-7.61 0-11.453-7.5Q16.5 51.422 16.5 36.375q0-14.984 3.828-22.484 3.844-7.5 11.453-7.5 7.672 0 11.5 7.5 3.844 7.5 3.844 22.484 0 15.047-3.844 22.531-3.828 7.5-11.5 7.5zm0 7.813q12.266 0 18.735-9.703 6.468-9.688 6.468-28.141 0-18.406-6.468-28.11-6.47-9.687-18.735-9.687-12.25 0-18.718 9.688-6.47 9.703-6.47 28.109 0 18.453 6.47 28.14Q19.53 74.22 31.78 74.22z" id="DejaVuSans-48"/></defs><use xlink:href="#DejaVuSans-48"/></g></g><g id="ytick_2"><g style="fill:#696969" transform="matrix(.16 0 0 -.16 97.32 484.695)" id="text_11"><defs><path d="M10.797 72.906h38.719v-8.312H19.828v-17.86q2.14.735 4.281 1.094 2.157.36 4.313.36 12.203 0 19.328-6.688 7.14-6.688 7.14-18.11 0-11.765-7.328-18.296-7.328-6.516-20.656-6.516-4.593 0-9.36.781-4.75.782-9.827 2.344v9.922q4.39-2.39 9.078-3.563 4.687-1.171 9.906-1.171 8.453 0 13.375 4.437 4.938 4.438 4.938 12.063 0 7.609-4.938 12.047-4.922 4.453-13.375 4.453-3.953 0-7.89-.875-3.922-.875-8.016-2.735z" id="DejaVuSans-53"/></defs><use xlink:href="#DejaVuSans-53"/></g></g><g id="ytick_3"><g style="fill:#696969" transform="matrix(.16 0 0 -.16 87.14 417.163)" id="text_12"><defs><path d="M12.406 8.297h16.11v55.625l-17.532-3.516v8.985l17.438 3.515h9.86V8.296H54.39V0H12.406z" id="DejaVuSans-49"/></defs><use xlink:href="#DejaVuSans-49"/><use x="63.623" xlink:href="#DejaVuSans-48"/></g></g><g id="ytick_4"><g style="fill:#696969" transform="matrix(.16 0 0 -.16 87.14 349.632)" id="text_13"><use xlink:href="#DejaVuSans-49"/><use x="63.623" xlink:href="#DejaVuSans-53"/></g></g><g id="ytick_5"><g style="fill:#696969" transform="matrix(.16 0 0 -.16 87.14 282.1)" id="text_14"><defs><path d="M19.188 8.297h34.421V0H7.33v8.297q5.609 5.812 15.296 15.594 9.703 9.797 12.188 12.64 4.734 5.313 6.609 9 1.89 3.688 1.89 7.25 0 5.813-4.078 9.469-4.078 3.672-10.625 3.672-4.64 0-9.797-1.61-5.14-1.609-11-4.89v9.969Q13.767 71.78 18.938 73q5.188 1.219 9.485 1.219 11.328 0 18.062-5.672 6.735-5.656 6.735-15.125 0-4.5-1.688-8.531-1.672-4.016-6.125-9.485-1.218-1.422-7.765-8.187-6.532-6.766-18.453-18.922z" id="DejaVuSans-50"/></defs><use xlink:href="#DejaVuSans-50"/><use x="63.623" xlink:href="#DejaVuSans-48"/></g></g><g id="ytick_6"><g style="fill:#696969" transform="matrix(.16 0 0 -.16 87.14 214.569)" id="text_15"><use xlink:href="#DejaVuSans-50"/><use x="63.623" xlink:href="#DejaVuSans-53"/></g></g><g id="ytick_7"><g style="fill:#696969" transform="matrix(.16 0 0 -.16 87.14 147.038)" id="text_16"><defs><path d="M40.578 39.313Q47.656 37.797 51.625 33q3.984-4.781 3.984-11.813 0-10.78-7.422-16.703-7.421-5.906-21.093-5.906-4.578 0-9.438.906-4.86.907-10.031 2.72v9.515q4.094-2.39 8.969-3.61 4.89-1.218 10.218-1.218 9.266 0 14.125 3.656 4.86 3.656 4.86 10.64 0 6.454-4.516 10.079-4.515 3.64-12.562 3.64h-8.5v8.11h8.89q7.266 0 11.125 2.906 3.86 2.906 3.86 8.375 0 5.61-3.985 8.61-3.968 3.015-11.39 3.015-4.063 0-8.703-.89-4.641-.876-10.203-2.72v8.782q5.624 1.562 10.53 2.344 4.907.78 9.25.78 11.235 0 17.766-5.109 6.547-5.093 6.547-13.78 0-6.063-3.468-10.235-3.47-4.172-9.86-5.782z" id="DejaVuSans-51"/></defs><use xlink:href="#DejaVuSans-51"/><use x="63.623" xlink:href="#DejaVuSans-48"/></g></g><g style="fill:#696969" transform="matrix(0 -.2 -.2 0 78.98 379.813)" id="text_17"><defs><path d="M51.125 44H36.922l-4.11-16.313h14.313zm-7.328 27.781-5.078-20.265h14.265L58.11 71.78h7.813L60.89 51.516h15.234V44h-17.14l-4-16.313h15.53V20.22H53.079L48 0h-7.813l5.032 20.219H30.906L25.875 0h-7.86l5.079 20.219H7.719v7.468h17.187L29 44H13.281v7.516h17.625l4.985 20.265z" id="DejaVuSans-35"/><path d="M30.61 48.39q-7.22 0-11.422-5.64-4.204-5.64-4.204-15.453 0-9.813 4.172-15.453 4.188-5.64 11.453-5.64 7.188 0 11.375 5.655 4.203 5.672 4.203 15.438 0 9.719-4.203 15.406-4.187 5.688-11.375 5.688zm0 7.61q11.718 0 18.406-7.625 6.703-7.61 6.703-21.078 0-13.422-6.703-21.078-6.688-7.64-18.407-7.64-11.765 0-18.437 7.64-6.656 7.656-6.656 21.078 0 13.469 6.656 21.078Q18.844 56 30.609 56z" id="DejaVuSans-111"/><path d="M37.11 75.984V68.5h-8.594q-4.828 0-6.72-1.953-1.874-1.953-1.874-7.031v-4.828h14.797v-6.985H19.922V0H10.89v47.703H2.297v6.984h8.594V58.5q0 9.125 4.25 13.297 4.25 4.187 13.468 4.187z" id="DejaVuSans-102"/><path d="M44.281 53.078v-8.5q-3.797 1.953-7.906 2.922-4.094.984-8.5.984-6.688 0-10.031-2.047-3.344-2.046-3.344-6.156 0-3.125 2.39-4.906 2.391-1.781 9.626-3.39l3.078-.688q9.562-2.047 13.593-5.781 4.032-3.735 4.032-10.422 0-7.625-6.032-12.078-6.03-4.438-16.578-4.438-4.39 0-9.156.86Q10.688.296 5.422 2v9.281q4.984-2.594 9.812-3.89 4.829-1.282 9.579-1.282 6.343 0 9.75 2.172 3.421 2.172 3.421 6.125 0 3.656-2.468 5.61-2.453 1.953-10.813 3.765l-3.125.735q-8.344 1.75-12.062 5.39-3.704 3.64-3.704 9.985 0 7.718 5.47 11.906Q16.75 56 26.811 56q4.97 0 9.36-.734 4.406-.72 8.11-2.188z" id="DejaVuSans-115"/><path d="M56.203 29.594v-4.39H14.891q.593-9.282 5.593-14.142 5-4.859 13.938-4.859 5.172 0 10.031 1.266 4.86 1.265 9.656 3.812v-8.5Q49.266.734 44.187-.344 39.11-1.422 33.892-1.422q-13.094 0-20.735 7.61-7.64 7.625-7.64 20.625 0 13.421 7.25 21.296Q20.016 56 32.328 56q11.031 0 17.453-7.11 6.422-7.093 6.422-19.296zm-8.984 2.64q-.094 7.36-4.125 11.75-4.032 4.407-10.672 4.407-7.516 0-12.031-4.25-4.516-4.25-5.203-11.97z" id="DejaVuSans-101"/></defs><use xlink:href="#DejaVuSans-35"/><use x="83.789" xlink:href="#DejaVuSans-32"/><use x="115.576" xlink:href="#DejaVuSans-111"/><use x="176.758" xlink:href="#DejaVuSans-102"/><use x="211.963" xlink:href="#DejaVuSans-32"/><use x="243.75" xlink:href="#DejaVuSans-99"/><use x="298.73" xlink:href="#DejaVuSans-97"/><use x="360.01" xlink:href="#DejaVuSans-115"/><use x="412.109" xlink:href="#DejaVuSans-101"/><use x="473.633" xlink:href="#DejaVuSans-115"/></g></g><g style="fill:#696969" transform="matrix(.24 0 0 -.24 308.75 71.76)" id="text_18"><defs><path d="M44.39 34.188q3.172-1.079 6.172-4.594 3-3.516 6.032-9.672L66.609 0H56l-9.313 18.703q-3.624 7.328-7.015 9.719-3.39 2.39-9.25 2.39h-10.75V0h-9.86v72.906h22.266q12.5 0 18.656-5.234 6.157-5.219 6.157-15.766 0-6.89-3.203-11.437-3.204-4.532-9.297-6.282zM19.673 64.797V38.922h12.406q7.125 0 10.766 3.297 3.64 3.297 3.64 9.687 0 6.39-3.64 9.64-3.64 3.25-10.766 3.25z" id="DejaVuSans-82"/><path d="M54.89 33.016V0h-8.984v32.719q0 7.765-3.031 11.61-3.031 3.858-9.078 3.858-7.281 0-11.484-4.64-4.204-4.625-4.204-12.64V0H9.08v75.984h9.03V46.188q3.235 4.937 7.594 7.374Q30.078 56 35.797 56q9.422 0 14.25-5.828 4.844-5.828 4.844-17.156z" id="DejaVuSans-104"/><path d="M45.406 46.39v29.594h8.985V0h-8.985v8.203Q42.578 3.328 38.25.953q-4.313-2.375-10.375-2.375-9.906 0-16.14 7.906-6.22 7.922-6.22 20.813 0 12.89 6.22 20.797Q17.968 56 27.874 56q6.063 0 10.375-2.375 4.328-2.36 7.156-7.234zm-30.61-19.093q0-9.906 4.079-15.547 4.078-5.64 11.203-5.64 7.125 0 11.219 5.64 4.11 5.64 4.11 15.547 0 9.906-4.11 15.547-4.094 5.64-11.219 5.64-7.125 0-11.203-5.64-4.078-5.64-4.078-15.547z" id="DejaVuSans-100"/><path d="M9.813 72.906h13.28l32.329-60.984v60.984h9.562V0h-13.28L19.39 60.984V0H9.813z" id="DejaVuSans-78"/><path d="M4.203 54.688h8.985l11.234-42.672 11.172 42.672h10.593l11.235-42.672 11.187 42.672h8.985L63.28 0H52.688L40.922 44.828 29.109 0H18.5z" id="DejaVuSans-119"/><path d="M64.406 67.281v-10.39q-4.984 4.64-10.625 6.922-5.64 2.296-11.984 2.296-12.5 0-19.14-7.64-6.641-7.64-6.641-22.094 0-14.406 6.64-22.047 6.64-7.64 19.14-7.64 6.345 0 11.985 2.296 5.64 2.297 10.625 6.938V5.609Q59.234 2.094 53.437.33q-5.78-1.75-12.218-1.75-16.563 0-26.094 10.124-9.516 10.14-9.516 27.672 0 17.578 9.516 27.703 9.531 10.14 26.094 10.14 6.531 0 12.312-1.734 5.797-1.734 10.875-5.203z" id="DejaVuSans-67"/><path d="M2.984 54.688H12.5L29.594 8.797l17.093 45.89h9.516L35.687 0H23.485z" id="DejaVuSans-118"/><path d="M9.422 54.688h8.984V0H9.422zm0 21.296h8.984v-11.39H9.422z" id="DejaVuSans-105"/></defs><use xlink:href="#DejaVuSans-82"/><use x="64.982" xlink:href="#DejaVuSans-117"/><use x="128.361" xlink:href="#DejaVuSans-116"/><use x="167.57" xlink:href="#DejaVuSans-104"/><use x="230.949" xlink:href="#DejaVuSans-101"/><use x="292.473" xlink:href="#DejaVuSans-114"/><use x="333.586" xlink:href="#DejaVuSans-102"/><use x="368.791" xlink:href="#DejaVuSans-111"/><use x="429.973" xlink:href="#DejaVuSans-114"/><use x="469.336" xlink:href="#DejaVuSans-100"/><use x="532.813" xlink:href="#DejaVuSans-32"/><use x="564.6" xlink:href="#DejaVuSans-78"/><use x="639.404" xlink:href="#DejaVuSans-101"/><use x="700.928" xlink:href="#DejaVuSans-119"/><use x="782.715" xlink:href="#DejaVuSans-32"/><use x="814.502" xlink:href="#DejaVuSans-67"/><use x="884.326" xlink:href="#DejaVuSans-111"/><use x="945.508" xlink:href="#DejaVuSans-118"/><use x="1004.688" xlink:href="#DejaVuSans-105"/><use x="1032.471" xlink:href="#DejaVuSans-100"/><use x="1095.947" xlink:href="#DejaVuSans-32"/><use x="1127.734" xlink:href="#DejaVuSans-67"/><use x="1197.559" xlink:href="#DejaVuSans-97"/><use x="1258.838" xlink:href="#DejaVuSans-115"/><use x="1310.938" xlink:href="#DejaVuSans-101"/><use x="1372.461" xlink:href="#DejaVuSans-115"/></g><g id="legend_1"><path d="M686.525 161.015H831.2q3.2 0 3.2-3.2V88.96q0-3.2-3.2-3.2H686.525q-3.2 0-3.2 3.2v68.855q0 3.2 3.2 3.2z" style="fill:none;opacity:.8;stroke:#ccc;stroke-linejoin:miter" id="patch_5"/><path d="M689.725 98.718h32" style="fill:none;stroke:#000;stroke-linecap:round;stroke-width:1.5" id="line2d_4"/><g style="fill:#696969" transform="matrix(.16 0 0 -.16 734.525 104.317)" id="text_19"><defs><path d="M37.797 64.313 12.89 25.39h24.906zm-2.594 8.593H47.61V25.391h10.407v-8.203H47.609V0h-9.812v17.188H4.89v9.515z" id="DejaVuSans-52"/><path d="M45.406 27.984q0 9.766-4.031 15.125-4.016 5.375-11.297 5.375-7.219 0-11.25-5.375-4.031-5.359-4.031-15.125 0-9.718 4.031-15.093t11.25-5.375q7.281 0 11.297 5.375 4.031 5.375 4.031 15.093zm8.985-21.203q0-13.953-6.203-20.765Q42-20.797 29.203-20.797q-4.734 0-8.937.703-4.203.703-8.157 2.172v8.735q3.954-2.141 7.813-3.157 3.86-1.031 7.86-1.031 8.843 0 13.234 4.61 4.39 4.609 4.39 13.937v4.453q-2.781-4.844-7.125-7.234Q33.938 0 27.875 0 17.828 0 11.672 7.656q-6.156 7.672-6.156 20.328 0 12.688 6.156 20.344Q17.828 56 27.875 56q6.063 0 10.406-2.39 4.344-2.391 7.125-7.22v8.297h8.985z" id="DejaVuSans-103"/></defs><use xlink:href="#DejaVuSans-49"/><use x="63.623" xlink:href="#DejaVuSans-52"/><use x="127.246" xlink:href="#DejaVuSans-100"/><use x="190.723" xlink:href="#DejaVuSans-32"/><use x="222.51" xlink:href="#DejaVuSans-97"/><use x="283.789" xlink:href="#DejaVuSans-118"/><use x="342.969" xlink:href="#DejaVuSans-103"/></g><path d="M689.725 127.802h32v-11.2h-32z" style="fill:#089fff;opacity:.2;stroke:#fff;stroke-linejoin:miter" id="patch_6"/><g style="fill:#696969" transform="matrix(.16 0 0 -.16 734.525 127.802)" id="text_20"><defs><path d="M8.688 72.906h9.921V28.61q0-11.718 4.235-16.875 4.25-5.14 13.781-5.14 9.469 0 13.719 5.14 4.25 5.157 4.25 16.875v44.297H64.5V27.391q0-14.25-7.063-21.532-7.046-7.28-20.812-7.28-13.828 0-20.89 7.28-7.047 7.282-7.047 21.532z" id="DejaVuSans-85"/><path d="M32.172-5.078q-3.797-9.766-7.422-12.735-3.61-2.984-9.656-2.984H7.906v7.516h5.282q3.703 0 5.75 1.765Q21-9.766 23.483-3.219l1.61 4.094-22.11 53.813H12.5l17.094-42.766 17.093 42.766h9.516z" id="DejaVuSans-121"/></defs><use xlink:href="#DejaVuSans-85"/><use x="73.193" xlink:href="#DejaVuSans-110"/><use x="136.572" xlink:href="#DejaVuSans-99"/><use x="191.553" xlink:href="#DejaVuSans-101"/><use x="253.076" xlink:href="#DejaVuSans-114"/><use x="294.189" xlink:href="#DejaVuSans-116"/><use x="333.398" xlink:href="#DejaVuSans-97"/><use x="394.678" xlink:href="#DejaVuSans-105"/><use x="422.461" xlink:href="#DejaVuSans-110"/><use x="485.84" xlink:href="#DejaVuSans-116"/><use x="525.049" xlink:href="#DejaVuSans-121"/></g><path d="M705.725 151.287v-7.7" style="fill:none;stroke:#000;stroke-dasharray:2.25,3.7125;stroke-dashoffset:0;stroke-width:1.5" id="line2d_6"/><g style="fill:#696969" transform="matrix(.16 0 0 -.16 734.525 151.287)" id="text_21"><defs><path d="M19.672 64.797V8.109h11.922q15.093 0 22.093 6.829 7 6.843 7 21.593 0 14.64-7 21.453-7 6.813-22.093 6.813zm-9.86 8.11h20.266q21.188 0 31.094-8.813 9.922-8.813 9.922-27.563 0-18.86-9.969-27.703Q51.172 0 30.078 0H9.813z" id="DejaVuSans-68"/></defs><use xlink:href="#DejaVuSans-68"/><use x="77.002" xlink:href="#DejaVuSans-97"/><use x="138.281" xlink:href="#DejaVuSans-105"/><use x="166.064" xlink:href="#DejaVuSans-108"/><use x="193.848" xlink:href="#DejaVuSans-121"/><use x="253.027" xlink:href="#DejaVuSans-32"/><use x="284.814" xlink:href="#DejaVuSans-67"/><use x="354.639" xlink:href="#DejaVuSans-97"/><use x="415.918" xlink:href="#DejaVuSans-115"/><use x="468.018" xlink:href="#DejaVuSans-101"/><use x="529.541" xlink:href="#DejaVuSans-115"/></g></g></g></g><defs><clipPath id="p1d00e046b2"><path d="M117 77.76h725.4v498.96H117z"/></clipPath></defs></svg>