<svg height="864" viewBox="0 0 936 648" width="1248" xmlns="http://www.w3.org/2000/svg" xmlns:xlink="http://www.w3.org/1999/xlink"><defs><style>*{stroke-linecap:butt;stroke-linejoin:round}</style></defs><g id="figure_1"><path d="M0 648h936V0H0z" style="fill:#fff" id="patch_1"/><g id="axes_1"><path d="M117 576.72h725.4V77.76H117z" style="fill:none" id="patch_2"/><path clip-path="url(#p4fce6e1403)" d="m149.973 333.818 45.156-.107 2.556-.124 1.704-.278 1.704-.47 2.556-1.086 4.26-2.266 2.556-1.272 1.704-.72.852-.144 1.704.08 1.704.5.852.36 5.112 3.397 2.556 1.812 2.556.866.853.173.852-.024 1.704-.441 5.964-.04 3.408.19.852.302 1.704.777.852.143 3.408-.035 10.224-1.078 1.704.043 2.556-.18 3.408-.211.852-.138 2.556.143 2.556-.39 2.556.031 1.704-.175 2.556-.446.852-.327 6.816-3.586 1.704-.617 1.704-.69.852-.141 1.704.106 2.556.466.852.24 1.704.055 1.704-.165 2.556.312.852.29 1.704.33 4.26 1.574.852.534.852.7 2.556 1.607 1.704.831 5.964 2.589.852.003 2.556-.271 1.704-.029 1.704-.208 2.557-.036 1.704-.118 3.408.45.852.041 3.408-.424.852-.255.852-.403.852-.26.852-.14 1.704-.856.852-.189.852.152.852.49 2.556.617 1.704.103 1.704-.756 1.704-.96 1.704-.06.852-.224 1.704-1.523 3.408-1.107.852-.031 1.704 1.261 2.556.567 2.556.021 1.704-.343.852-.363.852-.19.852-.052 4.26-1.121.852-.394.852-.165 2.556.03.852-.01.852.132.852-.18.852-.61 2.556-1.467 5.964-1.76.852-.653 1.704-1.586 1.704-1.307.852-.866.852-1.18 2.556-3.018.852-1.195.852-.869.852-.66.852-.4.852-.137.852.07.852.435 1.704 1.88 1.704 1.97.852 1.117 1.704 6.247 1.704 3.598.852 1.64.852 1.234.852.473.852-1.593.852-1.923.852-.962.852-1.39.852-1.047.852-.836.852-.572.852-1.985.852-2.604.852-1.252.852-.763.852-.49 1.705.64.852 1.897.852 3.049 1.704 4.48 3.408 6.006.852 4.874.852 3.46.852.368.852.951.852-.137.852.154.852-.021.852-1.954 1.704-5.947.852-2.255.852-1.896.852-1.544.852-2.67.852-7.712.852-4.68.852.55.852-.415.852.339.852.626.852 2.06.852 3.602 3.408 17.565.852 2.87.852 3.284.852 5.826.852 3.812.852.805.852.116.852-.188.852.667.852-.26 1.704-1.943.852-.736.852-1.8.852-1.517 1.704-.633 2.556-1.157 1.704 1.888.852-.426.852-.171.852-.027 1.704-.332.852.594.852.378 1.704-.617.852-.392 1.704-1.15 2.556-3.994 1.704-2.165.852-.843.852-.63 1.704-2.071 2.556-2.087.852-.347.852-.128 1.704-1.084 1.704.873.852.249 1.704-.008.852.628.852.421 1.704-.742 2.556-1.083 1.704 1.35.852-.647.852-.834 2.556-1.617 1.704-2.446 1.704.166.852-.148 1.704.177 1.704-.198 1.704.766 2.556.342.852.386.853.21.852-.476.852.004 3.408.843.852.457 3.408 2.59.852.447 2.556 2.228.852.237.852.077 1.704-.212 3.408-.501 1.704.059.852.139 1.704-.423 2.556.064 1.704.014.852.226.852.1 1.704-.244 2.556-.09 1.704-.51 1.704-.328.852-.135 1.704.114.852.269.852.133 1.704-.131.852.65.852.474.852-.211 1.704-.64 1.704-.258 1.704-1.91.852-.231.852-.45.852-.266.852.034.852-.095 1.704-1.725.852.02.852.284.852.077 1.704-.138 1.704 1.35 1.704-.081 1.704-.442 1.704-2.437.852-.146.852.01.852.197.852.024.852-.487 1.704.179.852-.334.852-.139.852-.653.852-.855.852-.365 1.704 2.128.852-.367.852-.235 1.704-1.59.852-.297 1.704-2.21.852-.414 1.704-.25.852-.619.852-.895 1.704-2.564.852-.507.852-.175.852-.482.852-.847.852-.583.852-.094 3.409-1.18.852.472.852.289.852.058.852.808.852.407.852.033.852-.706.852.457.852 1.546.852.504.852.798.852.316.852-.014.852 1.015 1.704 1.64.852.401.852.126.852.476.852.156.852 1.41.852.752.852-1.143.852.04.852.967.852 1.27.852.84.852 3.97.852 1.457.852-1.976.852 1.286.852.865 1.704.27.852-3.637.852-.686.852 4.126.852 1.12.852.165 1.704-.39.852-2.42.852.72.852 3.096.852.345 2.556 1.848.852 4.315.852 1.74.852-2.462 2.556.16.852.203.852-.893.852-1.219.852-.545 1.704-1.294.852-.461.852-.245.852.635.852.117.852-.567 1.704.196.852-.067.852-.215.852-.542.852-.142.852.593.852.264 2.556-.215.852-.588 1.704-.803.852-.932.852-.708.852-.372.852-.117.852-.453.852-.739.852-.536 1.704-.629 3.408-1.598.852-.167.852.32.852-.261.852-1.282.852-.575.852-.056.852-.41.852-.834.852-1.432.852-.7.852.692.852.355.852-.251.852-.09.852.241.852 1.351 1.704 6.176.852 1.063.852-.51.852-.86.852-.254.852-1.287 1.704-6.577.853-1.1 1.704 1.03.852-.129.852-1.328.852-2.798.852-1.737.852-.365.852.83.852 1.274.852.715.852 2.101.852 3.507.852 2.053.852-.298.852-2.802.852-3.626.852-3.039.852-4.324.852-2.621.852.166.852-2.056.852-6.806 1.704-16.713 1.704-21.345.852-6.52.852-2.721.852-8.466.852-15.682.852-10.658.852-3.336.852-9.628.852-14.408.852-4.133.852-1.667.852 2.578.852 7.305.852 5.412.852 8.523.852 6.894.852 3.885 1.704 49.8.852 6.6.852 10.452 1.704 34.733.852 10.442.852 5.085.852 12.546.852 17.343 1.704 25.277.852 7.281.852 3.691.852-4.54.852 5.267.852 18.552.852 8.331.852 4.5.852 3.26.852-1.165.852 10.505.852 1.325.852-12.282.852-2.852.852-4.021.852-3.164.852-2.076.852-5.817 1.704-15.053.852-8.225.852-6.425.852-5.51.852-2.681.852-3.893.852-5.291 1.704-5.857.852-4.405.852-3.055.852-.885 1.704-7.728.852-1.203.852-2.07.852-1.404.852-.071h0" style="fill:none;stroke:#000;stroke-linecap:round;stroke-width:1.5" id="line2d_1"/><path clip-path="url(#p4fce6e1403)" d="m149.973 333.816 44.304-.084 1.704-.1 1.704-.287 2.556-1.035.852-.694 2.556-3.068.852-1.952 1.704-5.403 2.556-7.741.852-2.741.852-2.324.852-1.99.852-2.676.852-1.491 1.704-.041.852.415.852 2.164.852 3.186.852 3.627.852 2.79.852 3.255 1.704 5.341.852 2.733.852 2.102.852 3.806.852 2.494.852.36.852 1.067.852.083.853-.999.852.443.852-.603.852-.256.852.852 2.556 5.093.852 1.213.852-.396.852.617.852 1.481.852.776.852 1.483.852 2.053.852.184.852.75.852 1.781.852-.02.852-.452.852.016.852-1.237.852-.133.852.427.852-.458.852-.863.852-1.03 1.704-3.193.852-.96.852-.618.852-1.062 1.704-.932.852-.848.852-.482 2.556-2.264.852.551 1.704 1.513.852 1.121.852.662 1.704-.39.852-.184 1.704-.806.852-.317.852.248.852.527.852.199 1.704-.714.852-.098.852-.522.852-.662.852-.264 2.556-1.438.852-.128.852-1.147.852-1.58.852-.376 1.704.01.852.014.852-.307.852.922.852 1.223 4.26-.159 1.704 2.742 2.556-.206.852-.178.852-.06.852-1.26.852-1.013 1.704.628.852.425 1.704.11.852-.124 2.556-1.488.852-.588.852-.229 1.704.043 1.704-.698 1.704-.111 1.704.165.852-.082.852.421.852.71 1.704 1.112.852.27.852.057 1.704-.46 2.556-.022.852-.181.853.018 1.704 1.033 1.704-.477.852-.023 1.704.368 2.556.517 3.408-1.063 1.704-1.31.852-.07.852.28h1.704l1.704-.017.852.147 1.704-.293.852.2 1.704-.092 1.704-.043.852.03 3.408-.388 1.704.05.852-.144 1.704-.608 1.704-.105 1.704-.164.852-.26.852.03.852.24 1.704-.031.852-.339.852-.54.852.221 1.704.589.852-.086.852-.33.852.178.852.447.852.269.852-.337.852-.98.852-.429.852-.084.852.146.852.274.852-.837.852-.565.852.147 1.704-.628.852-.663.852-1.22.852-.266 1.704.723.852.282 1.704-1.264.852-.122.852-.584 1.704-1.694.852-1.406 2.556-2.759.852-1.435.852-2.588.852-1.377.852-.058.852-.207.852-.354.852-.23.852 1.06.852 1.695.852.12.852.74.852 1.665 1.704 2.77.852 1.997.852 3.35.852 2.3.852.337.852.475.852.8.852-.695.852-1.825.852-2.845.852-1.271.852.264.852-.557.852-.137.852 1.755.852.5.852-.025 1.705.241.852.607.852.137.852 1.798 1.704 6.91.852 2.273.852 1.602.852.921.852.667.852-2.366.852-1.484.852 1.497.852 1.894.852.788.852.548.852.052.852-1.041 1.704-5.484 1.704-73.33 1.704-5.706 1.704-3.398.852-4.965.852 29.043.852 33.033 1.704-1.953.852 1.346.852 2.884.852 3.43 1.704 74.651.852 4.403 1.704 11.555.852 3.182.852 1.858 1.704-66.036.852.594.852 1.843.852-1.812.852-1.42.852.671.852-.274.852.582.852 1.239.852-.378.852-.713.852 1.08.852 1.438.852.958.852.693 1.704-4.535.852 1.157.852.832.852.043.852 1.196.852-.856.852-2.812.852-2.377.852-1.541.852-.687.852.213.852-1.458.852-.94.852 2.834.852 2.237.852-.898.852-2.387 1.704-6.175.852-1.168 1.704-1.249.852-.368.852-.703.852-.526.852 1.31.852.561.852-1.712.852-1.002.852-.012.852 1.016.852.489.852-.365 1.704.746.852-.72.852-.995.852-1.293.852-.898.852-.69.852-1.013.852.036.852 1.04.852.33.852-.217.852-.063 1.704-.622.852.349.852-.03.852.173.852 1.8 1.704 2.614.852 2.414.852 1.046.852-.03 3.408 6.618.853.468.852.056.852 1.67.852.588.852-1.293 1.704-1.415.852-.39.852.442.852.052.852.447 1.704 2.035 1.704 16.972.852 1.178.852.902.852 1.246.852 1.923.852 1.273 1.704-14.558 2.556-.988 1.704-1.185 1.704-15.479.852.292.852.487.852-.24 1.704-2.251 1.704 12.876.852-.534.852-.361 1.704-2.921 1.704-2.179.852-.553.852-1.565.852-2.016.852-.772.852-.1 1.704.137 3.408 1.208.852-.05 4.26-1.062.852-.426.852-.274 2.556-.187.852-.363.852-.165 1.704.147 2.556.325 2.556-.1 1.704-.278 1.704.063 1.704.256 5.964-.192 1.704-.13 2.556-.634 5.964-1.973.852-.438 1.704-.679.852-.371 1.704-.19 1.704-.073 1.704-.511 1.704-.335 1.704-.668 1.704-.15 1.704.174.852-.085 1.705.143 1.704-.467.852-.247.852-.712.852-.342 1.704.274 1.704.81.852-.464.852-.076.852.594.852-.196.852-.04 1.704.484.852.862.852 1.503.852.684.852.19.852.344.852-.185.852-.358.852 1.171.852.884.852-.292.852.135.852 1.21.852.74.852-.298.852-.655.852-1.253.852-.145.852.399.852-.805.852-.015.852.813.852-.593.852-.274.852-.01.852.12.852-1.101.852-.547 3.408 4.463.852.71.852 1.448.852.783.852-.14.852.678.852.503.852.105.852-.21.852.258.852.421.852-.16 2.556-1.76.852-.68 1.704-.69.852.181.852.305h.852l1.704 1.516.852.314.852.472.852.29.852-.158.852.056.852.21.852-.272 1.704-.889 1.704-1.594.852-.396.852-1.026.852-.739.852-.151.852-.57.852-.257.852.384 1.704-.392.852.233.852.094.852-.123.852.015.852-.471.852-.704.852-.353 2.556-2.136 1.704-2.052 1.704-.936.852-.244.852-.575.852-.41.852.015.852.338 1.704 1.382.852.23.852-.376.852-.722.852-1.17.852-2.052 1.705-5.273.852-1.645.852-.261.852-.436.852-1.139.852-1.342.852-1.066.852-.337.852.236 1.704.706 1.704.462.852-.171.852-1.793.852-3.546.852-4.637.852-6.63.852-11.182 2.556-43.468 1.704-12.518.852-14.436 1.704-41.295.852-16.287 2.556-38.81.852-10.169.852 7.111 1.704 27.936.852 11.675.852 4.358.852 8.799.852 28.344 5.964 273.136.852 22.849 1.704 35.039.852 11.873.852 9.94.852 4.835.852-6.475.852-9.656.852-12.07.852-18.563 1.704-25.535 1.704-31.887.852-12.916.852-9.262.852-6.919.852-8.186.852-6.596.852-5.131 2.556-13.402.852-2.723 1.704-12.833 1.704-7.09.852-4.062 1.704-12.791.852-1.734.852-.843 1.704-2.344.852-.044.852.508.852-.325.852-1.019.852-.455 1.704-.496.852-.054 1.704-.309h0" style="fill:none;stroke:#009e73;stroke-linecap:round;stroke-width:1.5" id="line2d_2"/><path clip-path="url(#p4fce6e1403)" d="m149.973 333.816 40.896-.082 3.408-.205 1.704-.287 1.704-.78 1.704-2.773.852-.315.852-.676 1.704-2.76.852-.91.852-1.968.852-3.232 1.704-7.414.852-2.521.852-3.055.852-5.03 1.704-6.566.852-6.71.852-3.806.852-1.647.852-2.829.852.943.852 4.592.852 5.432.852 8.262.852 6.929.852 5.254 1.704 15.43.852 3.499.852 4.954.852 8.842.852 5.036.852 2.323.852 3.629.852.553.853-.615.852.137.852-3.943.852-1.988.852.751.852-1.865.852.526.852 3.464.852 1.736.852.41 1.704 2.344.852.587.852.158.852-.547.852-.977.852.71.852-.266.852-2.72.852-2.173.852-1.482 1.704-2.208.852-2.022.852-1.319.852-.321.852-.068.852-.28 1.704-3.875.852-.601 1.704-1.531.852-.759.852-1.223.852-2.009.852-1.428.852.02.852.329.852.895.852.663.852-.103 1.704 2.7.852-.766.852-.103.852.445 1.704.04 1.704.95.852-.232 2.556-2.644.852.006.852-.15.852-.52.852.48.852.218.852-.294.852.164.852.512.852-1.653.852-2.747.852-.403.852-.144.852-.423.852.082.852-.404.852 1.463.852 2.104 2.556-.335.852-.04.852-.185.852 1.75.852 2.528.852.498 1.704 1.394.852.171.852.376 1.704-3.574 1.704.41.852-.123.852-.369.852-.143.852.136.852-.02.852-.287 1.704-1.237.852-.396.852-.602.852-.369 1.704-1.059.852-.102.852.28 1.704.758 2.556.848.852-.007.852.116 1.704.793.852-.205 1.704-1.1.852-.356.852-.772.852-.444.853.17.852.766.852 1.08 1.704 1.838.852.936.852.144 1.704-1.053.852.28.852.595.852-.014.852.267.852-.007.852-.37.852-.826.852-1.414.852-.615.852-.315.852-.697.852.09.852.614.852.759.852.485.852.007 1.704.54.852.423.852.212.852-.24.852-.088 1.704-.731.852-.075.852-.697.852-.533 1.704.362.852.061 2.556-.362 1.704-.178 2.556-.594.852-.096 1.704.233 1.704-.889.852-.232 1.704-.157 1.704-1.025.852.082 1.704.704.852-.007.852-.588 1.704-.335.852-.184.852.116 1.704-.786 1.704-.04 1.704.56 1.704-1.613.852.027.852.144.852-.007.852-.656.852-.219.852.294.852-.772.852-1.039.852-.007.852-.341.852-1.422.852-2.74.852-1.981.852-.608.852-1.517.852-1.169.852-.56 2.556-1.046.852 1.094.852 1.318.852-1.195.852-.287.852 2.542.852 3.553.852 1.783.852 1.49.852 2.61.852 1.722.852.861.852.075.852-.061.852-.875 1.704-4.175.852.827.852 1.285.852.403.852.567.852 4.004.852 1.954.852.144.852.704.853-.069 2.556 1.606.852 2.993.852 3.567.852 1.6.852.75.852-1.632.852-2.235.852-3.71.852-2.07 2.556.75.852 1.258.852.438.852-.397.852-1.626.852-2.651 1.704-64.383.852-3.314 1.704-2.665.852-2.529.852-3.97.852 26.547.852 30.86.852.532.852-1.305.852.807 1.704 4.223 1.704 63.03.852 3.82 1.704 10.468.852 3.218.852 1.831 1.704-59.216.852-.294.852 2.036 1.704-1.633.852.717.852-.574.852 1.306.852 2.63.852-.266.852-2.713.852-.717 2.556 2.89.852-2.412.852-2.03.852 1.73.852 1.113.852.24.852 1.57.852-1.55.852-3.697.852-1.825.852.24.852.922.852.444.852-1.886.852-1.414.852 2.275.852.67 1.704-6.54.852-2.316.852-3.027.852-.314.852.034.852-.895.852.375.852.923.852.246.852 2.337.852 1.674.852-.738.852.642.852 1.517.852.902.852-.881.852.287.852.69.852.437.852-.205.852-1.483.852-3.375.852-1.626.852-1.114.852-1.299.852.199.852 1.223.852.11.852-.548.852.076.852-.438.852-.027.852-.642.852-1.593.852.725.852 3.355.852 2.248.852 1.408.852 1.886.852 1.448.852.082.852 2.337.852 3.478.852 2.747.852 2.194.853 1.032.852 2.227.852 3.355.852-.027.852-1.859.852-.84.852-.198.852-.37.852-.614.852-.41.852-.192 1.704-.123 1.704 1.504 1.704.143.852.745.852 1.53.852.82.852-1.222.852-.97.852-7.818.852-9.47.852-2.146.852-.916.852-.738.852-1.223.852-.97.852 7.195.852 9.259.852 1.476 1.704-2.89 1.704.136.852 7.373.852 9.204.852.807.852-.39.852.15.852-.239.852-.621.852-8.624.852-10.755.852-2.31.852.253 1.704.28.852.212 2.556-.246.852-.588.852-.779.852-.294 2.556-.048 1.704-.533.852-.054.852-.253 1.704-.977.852-.267.852-.068 3.408.861.852-.014.852-.157.852-.034 2.556-.43 2.556.232 3.408-.075.852.054 2.556.991.852.116 1.704-.198.852-.178 7.668-3.17 1.704-1.326 2.556-.881 2.556-.458.852.116 3.408-1.06.852.288 1.704.902.852.588.853.758.852.24 2.556-.705.852-.505.852.28.852.697 2.556.39 1.704-.95.852-.732.852-1.38.852.308.852.895.852.485.852.717.852.991.852-.157.852-.458 1.704.574.852-.061 1.704 2.412.852.758.852.998.852.642.852.103.852-.403 1.704-1.9.852.246.852.43.852-.738.852-.533.852.52 2.556-.752.852-.061.852-.335.852.048.852.69 2.556 1.353.852-.178.852.8.852.642.852-.492 1.704.266.852.568.852.724 1.704-.294.852.554.852.922.852.71.852-.327.852-.041.852.362.852.014.852.15.852-.178.852-.608 1.704-.396.852.102.852.745.852.3.852-.43.852-.054.852.56.852-.314.852-1.107 1.704-1.743.852-.622.852-.15.852-.567.852-.103.852.349 1.704-1.135.852.356.852-.096.852-.396.852.273.852.601.852.738.852.492.852.048.852-.068.852-.533.852-1.093 4.26-6.642.852-.595.852-.048 1.704-.54.852.055.852.212.852.52.852.942.852.568 1.704.143.852-.471 2.557-2.98.852-1.237 1.704-1.879.852-1.373.852-1.613 1.704-2.603.852-.581.852.69.852-.355 1.704-2.795.852-2.959 2.556-12.28.852-8.124.852-12.443.852-16.646.852-19.502.852-14.746.852-8.378.852-10.837.852-18.82.852-26.02.852-21.293.852-12.504.852-7.312.852-5.979.852-10.12.852-4.51.852 16.407.852 22.064.852 18.286.852 13.817.852 3.56.852 12.846.852 35.014 1.704 88.477.852 40.972 3.408 128.09.852 11.957.852 8.706.852 15.033.852 11.083.852 12.833.852 6.676 1.704-13.57.852-8.685.852-18.115 1.704-22.591 1.704-31.577.852-12.067 1.704-15.368.852-7.476 1.704-12.313.852-5.467 1.704-18.463.852-4.565 1.704-13.878.852-2.856.852-2.173.852-1.046.852-3.19.852-5.543.852-1.62.852-.648.852-1.941.852-1.626.852.068.852 1.107.852-.403.852-1.128 1.704.697.852-1.27.852-2.01.852-1.066.852.533h0" style="fill:none;stroke:#d55e00;stroke-linecap:round;stroke-width:1.5" id="line2d_3"/><path clip-path="url(#p4fce6e1403)" d="M149.973 333.816h47.712l1.704-1.392h.852l1.704-.696.852-1.044.852-2.089.852-2.436.852-1.74 1.704-2.784.852-2.088 1.704-6.613.852.696.852.348.852-6.264.852-7.309.852-2.088.852 2.784.852 4.525.852 1.044.852-1.393.852 5.917.852 10.093.852 4.872 1.704 5.917.852 1.392.852 2.784 1.704 13.921.852 2.784.852-1.044.852-2.436.853 1.044.852 2.436.852-4.872.852-8.353.852-2.784.852 1.74.852 2.088.852.348.852-.348.852.696h.852l.852 1.393.852 1.044.852.696.852 2.088.852 2.436.852 2.088.852.696.852-1.392 1.704-7.656 1.704-4.873.852-1.044.852.348.852-.348 1.704 1.392 1.704-2.088.852-1.392.852-1.044.852 1.392.852 2.784.852 1.74.852.696.852-.348.852-.696h.852l.852-2.436.852-3.48.852-1.392.852-.696h.852l.852.348h.852l1.704 2.088 1.704-.696 1.704.696h.852l1.704 2.088 1.704.696 1.704-.696h.852l.852-1.74.852-1.392.852.348 1.704-.696h1.704l1.704-1.392.852-.348h.852l.852.348h2.556l.852-.696h.852l.852.696 1.704-.696h.852l1.704 4.176h1.704l1.704.696h.852l.852 1.392.852 1.044.852-1.044.852-.696 1.704 1.392h.852l.852-1.74.852-.696.852 1.392h.852l.852-1.044.852-.696h.852l.852-.696h.852l2.556 2.088h1.704l.852.696.852-.348.852-1.392 2.556-1.044h.852l1.704-.696.853.696h.852l.852-.696h2.556l.852-.696.852-1.044.852-.348 1.704 1.392h1.704l.852.696 1.704-1.392.852.696h2.556l.852-.348.852 1.392.852 1.74 1.704-.696h1.704l.852.348.852.696.852-.348.852-.696h1.704l.852-1.044h1.704l.852-.696.852.348h1.704l.852 1.392.852.348h.852l.852 1.392.852.348h2.556l.852-.348.852-2.436.852-5.569.852-4.176.852-.696h.852l.852-1.044.852-2.784.852-.696.852 2.436.852.348 1.704-4.177.852-.348 1.704 6.265.852 5.568.852 7.309.852 3.48.852 2.088.852-.348.852-1.044.852-1.392.852-4.872.852-3.828.852.348.852 2.088.852-1.044.852-3.133 1.704-1.392 1.704-5.568 1.704-4.177.852-.696.852 3.133.852-.348.852-2.089.852 1.045h.852l.852 3.132.852-.696.852-7.309.852-1.044h.852l.852-4.176.852-1.74.852 3.132.852 5.568.852 2.088.852 7.31.852 13.224.852.348.852-5.22.852-1.044.852 2.088.852 5.568.852-6.264.852-14.617.852-1.045.852 4.873.852.348 1.704-5.917 1.704-6.612 1.704 18.445.852-1.044.853-.348.852 1.74.852 12.877.852 17.402.852 2.436.852-3.132.852-5.569.852-3.132.852-6.612.852-10.093.852-.348.852-3.133.852-3.828h.852l.852-.348.852 3.132.852-4.872.852-5.568.852 2.784h.852l.852 3.48.852-1.74.852 3.48.852 9.049.852-9.745.852-13.573.852-3.48.852 4.872.852 6.613.852-1.392.852.696 1.704 8.7.852 3.48 1.704 18.446.852 1.044.852 3.48 1.704 20.186.852 3.48.852-14.617.852-11.137.852 5.22.852-.695.852-7.657.852-10.44.852-5.221.852 3.132.852 8.005.852-3.829.852-11.485.852-2.088.852 2.436.852 1.74.852 5.221.852-3.132.852-2.436 1.704 13.92.852 4.525.852-.696.852-5.22.852-9.05.852 3.133.852 8.7.852-1.391.852-2.436.852-1.74.852 1.74.852 9.396.852-1.74.852-11.137.852-6.264.852.348.852 4.872.852-7.308.852-8.701.852.348.852 1.74.852.696.852-4.176h.852l.852 4.524.852 1.392.852-1.74.852-1.392 1.704 8.7.852-2.436.852-1.392.852 1.392 1.704 2.089.852 2.088.852 1.74h.852l.852-1.044.852-2.784.852-.696.852 3.132.852-1.74.852-3.829.852-3.132.852 4.525.852 8.004.852 1.74.852-5.916.852-8.005.852-.696.852 3.132.852 1.392.852-2.088.852-2.436 1.704 2.784v6.96l.852 1.741.852 2.784.852 1.044.853-.348.852 1.392.852 2.089.852 3.132.852-.696.852-4.525.852 1.393.852 5.916.852 2.784h.852l.852-2.784.852.696.852 2.088.852-3.48.852-5.22.852-1.74.852 2.088.852.696.852-.348.852 1.044.852-1.044.852-1.74.852-1.393.852-1.74.852 1.392.852 1.044.852-1.392.852.348.852 1.392.852 1.74.852.349.852 1.74.852 2.436.852.348h.852l.852-.696.852.696.852.348.852-3.48.852-2.784.852-.349.852.697.852.348.852-2.437.852-3.132.852-1.74.852-.696h.852l1.704-2.784.852-.348.852.696.852 1.044h2.556l.852-1.044.852-.696.852.696.852.348h2.556l.852 1.044.852 1.392.852-.348.852-.696h2.556l1.704 2.088h.852l1.704-2.784h1.704l.852-1.044.852-1.392.852-.696.852 1.044.852 1.392h4.26l1.704 2.088h2.556l1.704-.696 1.704-2.088h2.556l1.704.696 1.704-3.48h.852l1.704-15.314.852-.696 1.704-2.784h1.704l1.704 9.397.852-.696.852 1.392.852 5.22.852 3.48h.852l1.705 13.226.852-.697.852-1.044.852-.348.852-.696h.852l.852-4.872.852-4.176.852 2.436.852.696.852-1.74.852-.696h.852l.852 3.828.852 3.132.852.696.852 2.436.852 1.393.852.348h.852l.852-1.74.852-3.133.852-4.872.852-3.132.852-2.089.852-2.436h.852l.852-.348.852-1.392.852-.348.852 1.74.852 1.044h1.704l.852-1.392.852 2.784.852 6.613.852-1.392.852-1.74.852 2.088h.852l.852-3.829.852-1.392.852 1.74.852-.348.852.697.852.348h.852l.852 6.264.852 2.436.852-4.176 1.704 5.22.852-.696h.852l.852 1.392.852 1.045.852-.697h.852l.852-2.436.852-2.784h.852l.852-1.74.852-2.436.852.348h.852l.852 2.436.852 3.48h.852l.852-2.784.852-2.088.852 1.74.852-1.044.852.348.852 2.436h.852l.852.696.852 2.784.852 1.044.852.348.852-1.392.852-2.784h.852l.852.696.852-1.392.852-2.436 1.704 2.088.852-.348h.852l1.704-2.088.852-3.48.852-4.177.852-2.784.852-2.088h.852l.852 1.74.852 2.088.852 2.784.852.696h.852l.852 1.74h.852l.852-4.176.852-5.22.852.348.852 2.436.852 3.828.852 2.785h.852l1.704-2.785.852-.696.852-2.436.852-6.264.852-4.525h.853l1.704 10.441.852-2.436 1.704-6.613.852-1.392h.852l.852.348h.852l.852-3.828.852-5.22.852 2.436.852-10.093.852-18.446 1.704-13.225.852-9.745 1.704-16.357.852 8.005.852 15.313.852 2.088.852-6.264.852-8.005.852-.696.852-10.44.852-14.966.852-19.49.852-25.406.852 1.74.852 17.402.852-1.044.852-2.784.852-13.922.852-16.009.852 11.485 1.704 28.538.852 21.23.852 33.063.852 54.64.852 66.474.852 40.023.852 10.44.852 15.662.852 35.499.852 28.19.852 10.441.852 3.828.852 1.045.852 4.872.852 3.132.852-11.137 1.704-34.107.852-24.362.852-10.44.852-6.265 1.704-34.803.852-11.485.852-2.436.852-1.044.852-13.573.852-10.44.852-4.873.852-2.436.852-3.48.852-7.31.852-1.74.852 3.133.852 1.74.852-.348 1.704-12.181 1.704-5.22.852-.349.852-1.044.852-3.132.852-1.392.852 2.088.852-.696.852-2.436.852-2.088.852-1.74.852 2.088.852 3.132.852.696 1.704 5.917h0" style="fill:none;stroke:#0072b2;stroke-linecap:round;stroke-width:1.5" id="line2d_4"/><path clip-path="url(#p4fce6e1403)" d="M117 333.816h725.4" style="fill:none;stroke:red;stroke-dasharray:1.5,2.475;stroke-dashoffset:0;stroke-width:1.5" id="line2d_5"/><path d="M117 576.72V77.76" style="fill:none;stroke:#d3d3d3;stroke-linecap:square;stroke-linejoin:miter;stroke-width:1.25" id="patch_3"/><path d="M117 576.72h725.4" style="fill:none;stroke:#d3d3d3;stroke-linecap:square;stroke-linejoin:miter;stroke-width:1.25" id="patch_4"/><g id="matplotlib.axis_1"><g id="xtick_1"><g style="fill:#696969" transform="matrix(.16 0 0 -.16 120.6 598.378)" id="text_1"><defs><path d="M9.813 72.906h9.859V5.078q0-13.187-5-19.14-5-5.954-16.094-5.954h-3.75v8.297h3.078q6.531 0 9.219 3.672Q9.813-4.39 9.813 5.078z" id="DejaVuSans-74"/><path d="M34.281 27.484q-10.89 0-15.093-2.484-4.204-2.484-4.204-8.5 0-4.781 3.157-7.594 3.156-2.797 8.562-2.797 7.485 0 12 5.297 4.516 5.297 4.516 14.078v2zm17.922 3.72V0H43.22v8.297Q40.14 3.328 35.547.953q-4.594-2.375-11.234-2.375-8.391 0-13.36 4.719Q6 8.016 6 15.922q0 9.219 6.172 13.906 6.187 4.688 18.437 4.688h12.61v.89q0 6.203-4.078 9.594-4.078 3.39-11.453 3.39-4.688 0-9.141-1.124-4.438-1.125-8.531-3.375v8.312q4.921 1.906 9.562 2.844 4.64.953 9.031.953 11.875 0 17.735-6.156 5.86-6.14 5.86-18.64z" id="DejaVuSans-97"/><path d="M54.89 33.016V0h-8.984v32.719q0 7.765-3.031 11.61-3.031 3.858-9.078 3.858-7.281 0-11.484-4.64-4.204-4.625-4.204-12.64V0H9.08v54.688h9.03v-8.5q3.235 4.937 7.594 7.374Q30.078 56 35.797 56q9.422 0 14.25-5.828 4.844-5.828 4.844-17.156z" id="DejaVuSans-110"/></defs><use xlink:href="#DejaVuSans-74"/><use x="29.492" xlink:href="#DejaVuSans-97"/><use x="90.771" xlink:href="#DejaVuSans-110"/></g></g><g id="xtick_2"><g style="fill:#696969" transform="matrix(.16 0 0 -.16 196.625 598.378)" id="text_2"><defs><path d="M34.188 63.188 20.797 26.906h26.812zm-5.579 9.718h11.188L67.578 0h-10.25l-6.64 18.703h-32.86L11.188 0H.78z" id="DejaVuSans-65"/><path d="M18.11 8.203v-29H9.077v75.484h9.031v-8.296q2.844 4.875 7.157 7.234Q29.594 56 35.594 56q9.968 0 16.187-7.906 6.235-7.907 6.235-20.797T51.78 6.484q-6.218-7.906-16.187-7.906-6 0-10.328 2.375-4.313 2.375-7.157 7.25zm30.578 19.094q0 9.906-4.079 15.547-4.078 5.64-11.203 5.64-7.14 0-11.218-5.64-4.079-5.64-4.079-15.547 0-9.906 4.078-15.547 4.079-5.64 11.22-5.64 7.124 0 11.202 5.64t4.078 15.547z" id="DejaVuSans-112"/><path d="M41.11 46.297q-1.516.875-3.297 1.281Q36.03 48 33.89 48q-7.625 0-11.703-4.953-4.079-4.953-4.079-14.234V0H9.08v54.688h9.03v-8.5q2.844 4.984 7.375 7.39Q30.031 56 36.531 56q.922 0 2.047-.125 1.125-.11 2.484-.36z" id="DejaVuSans-114"/></defs><use xlink:href="#DejaVuSans-65"/><use x="68.408" xlink:href="#DejaVuSans-112"/><use x="131.885" xlink:href="#DejaVuSans-114"/></g></g><g id="xtick_3"><g style="fill:#696969" transform="matrix(.16 0 0 -.16 278.346 598.378)" id="text_3"><defs><path d="M8.5 21.578v33.11h8.984V21.922q0-7.766 3.016-11.656 3.031-3.875 9.094-3.875 7.265 0 11.484 4.64 4.234 4.64 4.234 12.656v31h8.985V0h-8.984v8.406Q42.047 3.422 37.718 1q-4.313-2.422-10.032-2.422-9.421 0-14.312 5.86Q8.5 10.296 8.5 21.578zM31.11 56z" id="DejaVuSans-117"/><path d="M9.422 75.984h8.984V0H9.422z" id="DejaVuSans-108"/></defs><use xlink:href="#DejaVuSans-74"/><use x="29.492" xlink:href="#DejaVuSans-117"/><use x="92.871" xlink:href="#DejaVuSans-108"/></g></g><g id="xtick_4"><g style="fill:#696969" transform="matrix(.16 0 0 -.16 352.55 598.378)" id="text_4"><defs><path d="M39.406 66.219q-10.75 0-17.078-8.016-6.312-8-6.312-21.828 0-13.766 6.312-21.781 6.328-8 17.078-8 10.735 0 17.016 8 6.281 8.015 6.281 21.781 0 13.828-6.281 21.828-6.281 8.016-17.016 8.016zm0 8q15.328 0 24.5-10.281 9.188-10.282 9.188-27.563 0-17.234-9.188-27.516-9.172-10.28-24.5-10.28-15.375 0-24.593 10.25-9.204 10.265-9.204 27.546t9.204 27.563q9.218 10.28 24.593 10.28z" id="DejaVuSans-79"/><path d="M48.781 52.594v-8.407q-3.812 2.11-7.64 3.157-3.828 1.047-7.735 1.047-8.75 0-13.593-5.547-4.829-5.532-4.829-15.547 0-10.016 4.829-15.563 4.843-5.53 13.593-5.53 3.907 0 7.735 1.046 3.828 1.047 7.64 3.156V2.094Q45.016.344 40.984-.531q-4.015-.89-8.562-.89-12.36 0-19.64 7.765-7.266 7.765-7.266 20.953 0 13.375 7.343 21.031Q20.22 56 33.016 56q4.14 0 8.093-.86 3.953-.843 7.672-2.546z" id="DejaVuSans-99"/><path d="M18.313 70.219V54.688h18.5v-6.985h-18.5V18.016q0-6.688 1.828-8.594 1.828-1.906 7.453-1.906h9.218V0h-9.218q-10.407 0-14.36 3.875-3.953 3.89-3.953 14.14v29.688H2.687v6.984h6.594V70.22z" id="DejaVuSans-116"/></defs><use xlink:href="#DejaVuSans-79"/><use x="78.711" xlink:href="#DejaVuSans-99"/><use x="133.691" xlink:href="#DejaVuSans-116"/></g></g><g id="xtick_5"><g style="fill:#696969" transform="matrix(.16 0 0 -.16 432.435 598.378)" id="text_5"><use xlink:href="#DejaVuSans-74"/><use x="29.492" xlink:href="#DejaVuSans-97"/><use x="90.771" xlink:href="#DejaVuSans-110"/></g></g><g id="xtick_6"><g style="fill:#696969" transform="matrix(.16 0 0 -.16 507.608 598.378)" id="text_6"><use xlink:href="#DejaVuSans-65"/><use x="68.408" xlink:href="#DejaVuSans-112"/><use x="131.885" xlink:href="#DejaVuSans-114"/></g></g><g id="xtick_7"><g style="fill:#696969" transform="matrix(.16 0 0 -.16 589.329 598.378)" id="text_7"><use xlink:href="#DejaVuSans-74"/><use x="29.492" xlink:href="#DejaVuSans-117"/><use x="92.871" xlink:href="#DejaVuSans-108"/></g></g><g id="xtick_8"><g style="fill:#696969" transform="matrix(.16 0 0 -.16 663.533 598.378)" id="text_8"><use xlink:href="#DejaVuSans-79"/><use x="78.711" xlink:href="#DejaVuSans-99"/><use x="133.691" xlink:href="#DejaVuSans-116"/></g></g><g id="xtick_9"><g style="fill:#696969" transform="matrix(.16 0 0 -.16 743.418 598.378)" id="text_9"><use xlink:href="#DejaVuSans-74"/><use x="29.492" xlink:href="#DejaVuSans-97"/><use x="90.771" xlink:href="#DejaVuSans-110"/></g></g><g id="xtick_10"><g style="fill:#696969" transform="matrix(.16 0 0 -.16 818.592 598.378)" id="text_10"><use xlink:href="#DejaVuSans-65"/><use x="68.408" xlink:href="#DejaVuSans-112"/><use x="131.885" xlink:href="#DejaVuSans-114"/></g></g></g><g id="matplotlib.axis_2"><g id="ytick_1"><g style="fill:#696969" transform="matrix(.16 0 0 -.16 73.733 527.172)" id="text_11"><defs><path d="M10.594 35.5h62.593v-8.297H10.594z" id="DejaVuSans-8722"/><path d="M12.406 8.297h16.11v55.625l-17.532-3.516v8.985l17.438 3.515h9.86V8.296H54.39V0H12.406z" id="DejaVuSans-49"/><path d="M10.797 72.906h38.719v-8.312H19.828v-17.86q2.14.735 4.281 1.094 2.157.36 4.313.36 12.203 0 19.328-6.688 7.14-6.688 7.14-18.11 0-11.765-7.328-18.296-7.328-6.516-20.656-6.516-4.593 0-9.36.781-4.75.782-9.827 2.344v9.922q4.39-2.39 9.078-3.563 4.687-1.171 9.906-1.171 8.453 0 13.375 4.437 4.938 4.438 4.938 12.063 0 7.609-4.938 12.047-4.922 4.453-13.375 4.453-3.953 0-7.89-.875-3.922-.875-8.016-2.735z" id="DejaVuSans-53"/></defs><use xlink:href="#DejaVuSans-8722"/><use x="83.789" xlink:href="#DejaVuSans-49"/><use x="147.412" xlink:href="#DejaVuSans-53"/></g></g><g id="ytick_2"><g style="fill:#696969" transform="matrix(.16 0 0 -.16 73.733 464.746)" id="text_12"><defs><path d="M31.781 66.406q-7.61 0-11.453-7.5Q16.5 51.422 16.5 36.375q0-14.984 3.828-22.484 3.844-7.5 11.453-7.5 7.672 0 11.5 7.5 3.844 7.5 3.844 22.484 0 15.047-3.844 22.531-3.828 7.5-11.5 7.5zm0 7.813q12.266 0 18.735-9.703 6.468-9.688 6.468-28.141 0-18.406-6.468-28.11-6.47-9.687-18.735-9.687-12.25 0-18.718 9.688-6.47 9.703-6.47 28.109 0 18.453 6.47 28.14Q19.53 74.22 31.78 74.22z" id="DejaVuSans-48"/></defs><use xlink:href="#DejaVuSans-8722"/><use x="83.789" xlink:href="#DejaVuSans-49"/><use x="147.412" xlink:href="#DejaVuSans-48"/></g></g><g id="ytick_3"><g style="fill:#696969" transform="matrix(.16 0 0 -.16 83.912 402.32)" id="text_13"><use xlink:href="#DejaVuSans-8722"/><use x="83.789" xlink:href="#DejaVuSans-53"/></g></g><g id="ytick_4"><use xlink:href="#DejaVuSans-48" style="fill:#696969" transform="matrix(.16 0 0 -.16 97.32 339.895)" id="text_14"/></g><g id="ytick_5"><use xlink:href="#DejaVuSans-53" style="fill:#696969" transform="matrix(.16 0 0 -.16 97.32 277.469)" id="text_15"/></g><g id="ytick_6"><g style="fill:#696969" transform="matrix(.16 0 0 -.16 87.14 215.043)" id="text_16"><use xlink:href="#DejaVuSans-49"/><use x="63.623" xlink:href="#DejaVuSans-48"/></g></g><g id="ytick_7"><g style="fill:#696969" transform="matrix(.16 0 0 -.16 87.14 152.618)" id="text_17"><use xlink:href="#DejaVuSans-49"/><use x="63.623" xlink:href="#DejaVuSans-53"/></g></g><g id="ytick_8"><g style="fill:#696969" transform="matrix(.16 0 0 -.16 87.14 90.192)" id="text_18"><defs><path d="M19.188 8.297h34.421V0H7.33v8.297q5.609 5.812 15.296 15.594 9.703 9.797 12.188 12.64 4.734 5.313 6.609 9 1.89 3.688 1.89 7.25 0 5.813-4.078 9.469-4.078 3.672-10.625 3.672-4.64 0-9.797-1.61-5.14-1.609-11-4.89v9.969Q13.767 71.78 18.938 73q5.188 1.219 9.485 1.219 11.328 0 18.062-5.672 6.735-5.656 6.735-15.125 0-4.5-1.688-8.531-1.672-4.016-6.125-9.485-1.218-1.422-7.765-8.187-6.532-6.766-18.453-18.922z" id="DejaVuSans-50"/></defs><use xlink:href="#DejaVuSans-50"/><use x="63.623" xlink:href="#DejaVuSans-48"/></g></g><g style="fill:#696969" transform="matrix(0 -.2 -.2 0 65.573 445.117)" id="text_19"><defs><path d="M64.406 67.281v-10.39q-4.984 4.64-10.625 6.922-5.64 2.296-11.984 2.296-12.5 0-19.14-7.64-6.641-7.64-6.641-22.094 0-14.406 6.64-22.047 6.64-7.64 19.14-7.64 6.345 0 11.985 2.296 5.64 2.297 10.625 6.938V5.609Q59.234 2.094 53.437.33q-5.78-1.75-12.218-1.75-16.563 0-26.094 10.124-9.516 10.14-9.516 27.672 0 17.578 9.516 27.703 9.531 10.14 26.094 10.14 6.531 0 12.312-1.734 5.797-1.734 10.875-5.203z" id="DejaVuSans-67"/><path d="M44.281 53.078v-8.5q-3.797 1.953-7.906 2.922-4.094.984-8.5.984-6.688 0-10.031-2.047-3.344-2.046-3.344-6.156 0-3.125 2.39-4.906 2.391-1.781 9.626-3.39l3.078-.688q9.562-2.047 13.593-5.781 4.032-3.735 4.032-10.422 0-7.625-6.032-12.078-6.03-4.438-16.578-4.438-4.39 0-9.156.86Q10.688.296 5.422 2v9.281q4.984-2.594 9.812-3.89 4.829-1.282 9.579-1.282 6.343 0 9.75 2.172 3.421 2.172 3.421 6.125 0 3.656-2.468 5.61-2.453 1.953-10.813 3.765l-3.125.735q-8.344 1.75-12.062 5.39-3.704 3.64-3.704 9.985 0 7.718 5.47 11.906Q16.75 56 26.811 56q4.97 0 9.36-.734 4.406-.72 8.11-2.188z" id="DejaVuSans-115"/><path d="M56.203 29.594v-4.39H14.891q.593-9.282 5.593-14.142 5-4.859 13.938-4.859 5.172 0 10.031 1.266 4.86 1.265 9.656 3.812v-8.5Q49.266.734 44.187-.344 39.11-1.422 33.892-1.422q-13.094 0-20.735 7.61-7.64 7.625-7.64 20.625 0 13.421 7.25 21.296Q20.016 56 32.328 56q11.031 0 17.453-7.11 6.422-7.093 6.422-19.296zm-8.984 2.64q-.094 7.36-4.125 11.75-4.032 4.407-10.672 4.407-7.516 0-12.031-4.25-4.516-4.25-5.203-11.97z" id="DejaVuSans-101"/><path d="M44.39 34.188q3.172-1.079 6.172-4.594 3-3.516 6.032-9.672L66.609 0H56l-9.313 18.703q-3.624 7.328-7.015 9.719-3.39 2.39-9.25 2.39h-10.75V0h-9.86v72.906h22.266q12.5 0 18.656-5.234 6.157-5.219 6.157-15.766 0-6.89-3.203-11.437-3.204-4.532-9.297-6.282zM19.673 64.797V38.922h12.406q7.125 0 10.766 3.297 3.64 3.297 3.64 9.687 0 6.39-3.64 9.64-3.64 3.25-10.766 3.25z" id="DejaVuSans-82"/><path d="M8.594 75.984h20.703V69H17.578V-6.203h11.719v-6.984H8.594z" id="DejaVuSans-91"/><path d="M25.39 72.906h8.297L8.297-9.28H0z" id="DejaVuSans-47"/><path d="M45.406 46.39v29.594h8.985V0h-8.985v8.203Q42.578 3.328 38.25.953q-4.313-2.375-10.375-2.375-9.906 0-16.14 7.906-6.22 7.922-6.22 20.813 0 12.89 6.22 20.797Q17.968 56 27.874 56q6.063 0 10.375-2.375 4.328-2.36 7.156-7.234zm-30.61-19.093q0-9.906 4.079-15.547 4.078-5.64 11.203-5.64 7.125 0 11.219 5.64 4.11 5.64 4.11 15.547 0 9.906-4.11 15.547-4.094 5.64-11.219 5.64-7.125 0-11.203-5.64-4.078-5.64-4.078-15.547z" id="DejaVuSans-100"/><path d="M32.172-5.078q-3.797-9.766-7.422-12.735-3.61-2.984-9.656-2.984H7.906v7.516h5.282q3.703 0 5.75 1.765Q21-9.766 23.483-3.219l1.61 4.094-22.11 53.813H12.5l17.094-42.766 17.093 42.766h9.516z" id="DejaVuSans-121"/><path d="M30.422 75.984v-89.171H9.719v6.984H21.39V69H9.719v6.984z" id="DejaVuSans-93"/></defs><use xlink:href="#DejaVuSans-67"/><use x="69.824" xlink:href="#DejaVuSans-97"/><use x="131.104" xlink:href="#DejaVuSans-115"/><use x="183.203" xlink:href="#DejaVuSans-101"/><use x="244.727" xlink:href="#DejaVuSans-32"/><use x="276.514" xlink:href="#DejaVuSans-82"/><use x="343.746" xlink:href="#DejaVuSans-97"/><use x="405.025" xlink:href="#DejaVuSans-116"/><use x="444.234" xlink:href="#DejaVuSans-101"/><use x="505.758" xlink:href="#DejaVuSans-32"/><use x="537.545" xlink:href="#DejaVuSans-91"/><use x="576.559" xlink:href="#DejaVuSans-32"/><use x="608.346" xlink:href="#DejaVuSans-99"/><use x="663.326" xlink:href="#DejaVuSans-97"/><use x="724.605" xlink:href="#DejaVuSans-115"/><use x="776.705" xlink:href="#DejaVuSans-101"/><use x="838.229" xlink:href="#DejaVuSans-115"/><use x="890.328" xlink:href="#DejaVuSans-47"/><use x="924.02" xlink:href="#DejaVuSans-100"/><use x="987.496" xlink:href="#DejaVuSans-97"/><use x="1048.775" xlink:href="#DejaVuSans-121"/><use x="1107.955" xlink:href="#DejaVuSans-32"/><use x="1139.742" xlink:href="#DejaVuSans-93"/></g></g><g style="fill:#696969" transform="matrix(.24 0 0 -.24 238.224 71.76)" id="text_20"><defs><path d="M9.813 72.906h13.28l32.329-60.984v60.984h9.562V0h-13.28L19.39 60.984V0H9.813z" id="DejaVuSans-78"/><path d="M4.203 54.688h8.985l11.234-42.672 11.172 42.672h10.593l11.235-42.672 11.187 42.672h8.985L63.28 0H52.688L40.922 44.828 29.109 0H18.5z" id="DejaVuSans-119"/><path d="M8.203 72.906h46.875v-4.203L28.61 0H18.312L43.22 64.594H8.203z" id="DejaVuSans-55"/><path d="M2.984 54.688H12.5L29.594 8.797l17.093 45.89h9.516L35.687 0H23.485z" id="DejaVuSans-118"/><path d="M45.406 27.984q0 9.766-4.031 15.125-4.016 5.375-11.297 5.375-7.219 0-11.25-5.375-4.031-5.359-4.031-15.125 0-9.718 4.031-15.093t11.25-5.375q7.281 0 11.297 5.375 4.031 5.375 4.031 15.093zm8.985-21.203q0-13.953-6.203-20.765Q42-20.797 29.203-20.797q-4.734 0-8.937.703-4.203.703-8.157 2.172v8.735q3.954-2.141 7.813-3.157 3.86-1.031 7.86-1.031 8.843 0 13.234 4.61 4.39 4.609 4.39 13.937v4.453q-2.781-4.844-7.125-7.234Q33.938 0 27.875 0 17.828 0 11.672 7.656q-6.156 7.672-6.156 20.328 0 12.688 6.156 20.344Q17.828 56 27.875 56q6.063 0 10.406-2.39 4.344-2.391 7.125-7.22v8.297h8.985z" id="DejaVuSans-103"/><path d="M30.61 48.39q-7.22 0-11.422-5.64-4.204-5.64-4.204-15.453 0-9.813 4.172-15.453 4.188-5.64 11.453-5.64 7.188 0 11.375 5.655 4.203 5.672 4.203 15.438 0 9.719-4.203 15.406-4.187 5.688-11.375 5.688zm0 7.61q11.718 0 18.406-7.625 6.703-7.61 6.703-21.078 0-13.422-6.703-21.078-6.688-7.64-18.407-7.64-11.765 0-18.437 7.64-6.656 7.656-6.656 21.078 0 13.469 6.656 21.078Q18.844 56 30.609 56z" id="DejaVuSans-111"/><path d="M37.11 75.984V68.5h-8.594q-4.828 0-6.72-1.953-1.874-1.953-1.874-7.031v-4.828h14.797v-6.985H19.922V0H10.89v47.703H2.297v6.984h8.594V58.5q0 9.125 4.25 13.297 4.25 4.187 13.468 4.187z" id="DejaVuSans-102"/><path d="M37.797 64.313 12.89 25.39h24.906zm-2.594 8.593H47.61V25.391h10.407v-8.203H47.609V0h-9.812v17.188H4.89v9.515z" id="DejaVuSans-52"/><path d="M9.813 72.906h9.859V42.094L52.39 72.906h12.703L28.906 38.922 67.672 0H54.688L19.672 35.11V0h-9.86z" id="DejaVuSans-75"/></defs><use xlink:href="#DejaVuSans-78"/><use x="74.805" xlink:href="#DejaVuSans-101"/><use x="136.328" xlink:href="#DejaVuSans-119"/><use x="218.115" xlink:href="#DejaVuSans-32"/><use x="249.902" xlink:href="#DejaVuSans-67"/><use x="319.727" xlink:href="#DejaVuSans-97"/><use x="381.006" xlink:href="#DejaVuSans-115"/><use x="433.105" xlink:href="#DejaVuSans-101"/><use x="494.629" xlink:href="#DejaVuSans-115"/><use x="546.729" xlink:href="#DejaVuSans-32"/><use x="578.516" xlink:href="#DejaVuSans-55"/><use x="642.139" xlink:href="#DejaVuSans-100"/><use x="705.615" xlink:href="#DejaVuSans-32"/><use x="737.402" xlink:href="#DejaVuSans-97"/><use x="798.682" xlink:href="#DejaVuSans-118"/><use x="857.861" xlink:href="#DejaVuSans-103"/><use x="921.338" xlink:href="#DejaVuSans-32"/><use x="953.125" xlink:href="#DejaVuSans-115"/><use x="1005.225" xlink:href="#DejaVuSans-108"/><use x="1033.008" xlink:href="#DejaVuSans-111"/><use x="1094.189" xlink:href="#DejaVuSans-112"/><use x="1157.666" xlink:href="#DejaVuSans-101"/><use x="1219.189" xlink:href="#DejaVuSans-32"/><use x="1250.977" xlink:href="#DejaVuSans-111"/><use x="1312.158" xlink:href="#DejaVuSans-102"/><use x="1347.363" xlink:href="#DejaVuSans-32"/><use x="1379.15" xlink:href="#DejaVuSans-49"/><use x="1442.773" xlink:href="#DejaVuSans-52"/><use x="1506.396" xlink:href="#DejaVuSans-32"/><use x="1538.184" xlink:href="#DejaVuSans-97"/><use x="1599.463" xlink:href="#DejaVuSans-118"/><use x="1658.643" xlink:href="#DejaVuSans-103"/><use x="1722.119" xlink:href="#DejaVuSans-47"/><use x="1755.811" xlink:href="#DejaVuSans-49"/><use x="1819.434" xlink:href="#DejaVuSans-48"/><use x="1883.057" xlink:href="#DejaVuSans-48"/><use x="1946.68" xlink:href="#DejaVuSans-75"/></g><g id="legend_1"><path d="M128.2 184.5h136.45q3.2 0 3.2-3.2V88.96q0-3.2-3.2-3.2H128.2q-3.2 0-3.2 3.2v92.34q0 3.2 3.2 3.2z" style="fill:none;opacity:.8;stroke:#ccc;stroke-linejoin:miter" id="patch_5"/><path d="M131.4 98.718h32" style="fill:none;stroke:#000;stroke-linecap:round;stroke-width:1.5" id="line2d_6"/><g style="fill:#696969" transform="matrix(.16 0 0 -.16 176.2 104.317)" id="text_21"><defs><path d="M8.688 72.906h9.921V28.61q0-11.718 4.235-16.875 4.25-5.14 13.781-5.14 9.469 0 13.719 5.14 4.25 5.157 4.25 16.875v44.297H64.5V27.391q0-14.25-7.063-21.532-7.046-7.28-20.812-7.28-13.828 0-20.89 7.28-7.047 7.282-7.047 21.532z" id="DejaVuSans-85"/><path d="M53.516 70.516V60.89q-5.61 2.687-10.594 4-4.984 1.328-9.625 1.328-8.047 0-12.422-3.125t-4.375-8.89q0-4.845 2.906-7.313 2.907-2.453 11.016-3.97l5.953-1.218q11.031-2.11 16.281-7.406 5.25-5.297 5.25-14.172 0-10.61-7.11-16.078-7.093-5.469-20.812-5.469-5.172 0-11.015 1.172Q13.14.922 6.89 3.219v10.156q6-3.36 11.765-5.078 5.766-1.703 11.328-1.703 8.438 0 13.032 3.312 4.593 3.328 4.593 9.485 0 5.359-3.297 8.39-3.296 3.032-10.812 4.547L27.484 33.5q-11.03 2.188-15.968 6.875-4.922 4.688-4.922 13.047 0 9.672 6.812 15.234 6.813 5.563 18.766 5.563 5.14 0 10.453-.938 5.328-.922 10.89-2.765z" id="DejaVuSans-83"/></defs><use xlink:href="#DejaVuSans-85"/><use x="73.193" xlink:href="#DejaVuSans-83"/></g><path d="M131.4 122.203h32" style="fill:none;stroke:#009e73;stroke-linecap:round;stroke-width:1.5" id="line2d_8"/><g style="fill:#696969" transform="matrix(.16 0 0 -.16 176.2 127.802)" id="text_22"><use xlink:href="#DejaVuSans-78"/><use x="74.805" xlink:href="#DejaVuSans-74"/></g><path d="M131.4 145.688h32" style="fill:none;stroke:#d55e00;stroke-linecap:round;stroke-width:1.5" id="line2d_10"/><g style="fill:#696969" transform="matrix(.16 0 0 -.16 176.2 151.287)" id="text_23"><defs><path d="M19.672 34.813V8.108H35.5q7.953 0 11.781 3.297 3.844 3.297 3.844 10.078 0 6.844-3.844 10.078-3.828 3.25-11.781 3.25zm0 29.984V42.828h14.61q7.218 0 10.75 2.703 3.546 2.719 3.546 8.282 0 5.515-3.547 8.25-3.531 2.734-10.75 2.734zm-9.86 8.11h25.204q11.28 0 17.375-4.688Q58.5 63.53 58.5 54.89q0-6.703-3.125-10.657-3.125-3.953-9.188-4.922 7.282-1.562 11.313-6.53 4.031-4.954 4.031-12.376 0-9.765-6.64-15.093Q48.25 0 35.984 0H9.812z" id="DejaVuSans-66"/></defs><use xlink:href="#DejaVuSans-66"/><use x="68.604" xlink:href="#DejaVuSans-101"/><use x="130.127" xlink:href="#DejaVuSans-114"/><use x="169.49" xlink:href="#DejaVuSans-103"/><use x="232.967" xlink:href="#DejaVuSans-101"/><use x="294.49" xlink:href="#DejaVuSans-110"/></g><path d="M131.4 169.173h32" style="fill:none;stroke:#0072b2;stroke-linecap:round;stroke-width:1.5" id="line2d_12"/><g style="fill:#696969" transform="matrix(.16 0 0 -.16 176.2 174.773)" id="text_24"><defs><path d="M54.89 33.016V0h-8.984v32.719q0 7.765-3.031 11.61-3.031 3.858-9.078 3.858-7.281 0-11.484-4.64-4.204-4.625-4.204-12.64V0H9.08v75.984h9.03V46.188q3.235 4.937 7.594 7.374Q30.078 56 35.797 56q9.422 0 14.25-5.828 4.844-5.828 4.844-17.156z" id="DejaVuSans-104"/></defs><use xlink:href="#DejaVuSans-82"/><use x="64.982" xlink:href="#DejaVuSans-117"/><use x="128.361" xlink:href="#DejaVuSans-116"/><use x="167.57" xlink:href="#DejaVuSans-104"/><use x="230.949" xlink:href="#DejaVuSans-101"/><use x="292.473" xlink:href="#DejaVuSans-114"/><use x="333.586" xlink:href="#DejaVuSans-102"/><use x="368.791" xlink:href="#DejaVuSans-111"/><use x="429.973" xlink:href="#DejaVuSans-114"/><use x="469.336" xlink:href="#DejaVuSans-100"/></g></g></g></g><defs><clipPath id="p4fce6e1403"><path d="M117 77.76h725.4v498.96H117z"/></clipPath></defs></svg>