<svg height="864" viewBox="0 0 936 648" width="1248" xmlns="http://www.w3.org/2000/svg" xmlns:xlink="http://www.w3.org/1999/xlink"><defs><style>*{stroke-linecap:butt;stroke-linejoin:round}</style></defs><g id="figure_1"><path d="M0 648h936V0H0z" style="fill:#fff" id="patch_1"/><g id="axes_1"><path d="M117 576.72h725.4V77.76H117z" style="fill:none" id="patch_2"/><path clip-path="url(#p9f7c386d1e)" d="m149.973 353.66 49.213-.134 4.921-.279.984-.165.985-.304 1.968-1.022.984-.722 2.953-2.917.984-1.11 1.969-1.803.984-.623.984-.21 1.969-.673.984.008 1.969-.334 1.968.452.985.566 1.968 1.772.984 1.24.985 1.798 2.952 3.867 1.969 1.778.984.644 1.969.364.984-.197.984-.532.984-.176.985-.335.984-.716.984-.951.984-.722.985.15.984.318.984.043.985.383.984.782.984 1.09.984.744 4.922-.216 1.968.468.984.48 1.969.307.984.055.984-.304 1.969-.933.984-.752.984-.497 1.969-.63 1.969.113.984-.123.984.265 2.953 1.32.984-.069.984-.328.985-.121.984-.294 2.953-1.55.984-.33.984-.08.984.266 1.969 1.12.984.13.984-.236 1.969.493 1.969-.826.984-.786.984-.46.984-.185 2.953-2.007.984-.873 1.969-1.447 1.968-1.979.985-.744.984-.544.984-.263.984-.105 1.969-.445.984.103.984.324 1.969 1.123.984.509.984.64.985.781.984.61.984-.14.985-.621 1.968-1.523.984-.3.985-.627.984-.177 1.968 2.008 4.922 7.028.984-.144 1.968 1.236.985.05.984.356.984-.015.984.139.985 1.226.984.554.984.366 2.953 3.244.984.798.985-.28.984-.545.984-.719 1.969-2.517.984-1.242.984-.82.984-.192.985.4.984.769 2.953 3.303.984.768.984.575.984.27.985-.523 1.968-2.2.985-1.22 2.952-2.593 1.969-.358.984.36.984.805.985-.53.984-.348.984.372.984.686.985 1.575.984.358.984-.268.984 1.105.985.625.984-.345.984-1.715.984-2.786.985-1.75 1.968-2.421.985-.674 1.968-.664.984.332.985.906.984.633.984.172.984-.147.985.224.984 2.17.984 1.584.984-.365.985.026.984.309.984.143.984-.059 1.969-4.313.984-.19.984-1.105.985-.87.984-.298.984-.618 1.969 3.14.984-.474.984.294 1.969-.488.984.54 1.969-2.975.984.448.984.095.984-.238.985-1.613.984-1.924 1.968.007 1.969-2.294.984-.316 1.969 2.186 2.952-2.302.985-1.363.984-1.93 1.969-6.058.984-1.83.984-2.669.984-2.18.985-1.165.984-1.572.984-.409.984.35.985-.129.984 1.484.984 1.775.984 1.371 3.937 11.326 1.969 3.19 1.968 14.28 1.969 5.036 1.969 4.038.984-.14 1.968-24.7.985-5.372.984-6.634.984-5.137.984-4.485.985-1.558.984 6.288.984 4.813.984 1.66.985 4.371.984 3.682.984 5.325.984 2.617.985-.666.984 4.227.984 5.404.984 1.844.985.71.984-1.111.984 1.56.985 5.688.984 10.219.984 4.853.984-.752.985 2.109.984.704.984-1.103.984-5.75 1.969-30.3.984-7.44.984-8.793.985-6.325.984-3.476.984-2.165.984-6.847.985.416.984 9.068 1.968 14.894.985 5.332.984 8.272.984 17.523.985 12.916.984 3.15 1.968 11.624.985 3.175.984 1.463.984-.254.984-1.615.985-.762 1.968-11.838.984-1.2.985-2.234.984-2.651.984-1.237.984-1.42.985.323.984 1.682.984.285 1.969 2.675.984.167.984.309.985 2.576.984 1.015.984-1.548.984-1.779.985-1.483 2.952-2.275.985.105 1.968 1.498.984.322.985-.783.984-1.166.984-3.268.984-4.668 2.953-11.433.984-1.714.985-.703.984.152.984 1.646.984 1.913 1.969 3.332.984.69.985.322.984-1.957.984-3.056.984-.673.985-.28.984-.966.984-.584.984-.45.985 3.82.984 4.302.984-.548.984-.698.985-.055 1.968-1.154.984-1.91.985-2.213.984-1.37 1.968-3.383.985-1.083.984-.893.984-1.875.985-1.25 1.968 3.634 2.953 3.672.984 1.622.984.915 1.969-1.362 1.968-1.736.985-.923.984-.479.984-.293.984-.755.985.721 1.968 3.105.984 1.683.985.848.984 1.648.984 2.737.985.955.984.692.984.222.984-.359.985 1.293.984.812.984-.732.984-.252 1.969-.869.984-.088.984-1.69.985-1.368 1.968.452.984.402.985.64.984.503.984 1.112.984.69.985-.28.984-.086.984-.296.985-.632 2.952-1.304 1.969-.36.984.289.984.666.985.176 1.968-.676.984-.14.985-.474.984-.687.984-.515.984.01.985 1.19.984.678.984-.209.984.433.985 2.615.984 1.92.984-.636.985-2.272.984-1.493.984-.128.984-.86 1.969-10.197.984-.05.984.942.985.702.984.23.984.575 1.969 5.084.984.109.984-.098 1.969-.997 1.968-1.41.984-.362 1.969-.253.984-.06.984-.254 1.969-5.814.984-.069.985.184.984.682.984.131.984-1.19 1.969 6.344.984-.92.984-.595 1.969-5.284.984.106.984.224 1.969-.426.984-.103.984.353.985.217.984-.985 1.968-6.516.985-1.059.984-.332.984-.658.985-2.052.984-1.67.984-.388.984-.695.985-.445.984-.185.984-.773.984-.459.985-.057.984.11.984-.113 1.969-1.081.984-.204.984 1.857.984.912.985.063.984 2.507.984 1.804.984.583.985-1.89.984-.501.984 3.669.985 1.432.984-.143.984-.865.984-.626.985 4.899.984 2.902.984-1.207.984-.245.985.515.984 2.279.984 1.086 1.969-1.392.984-2.18.984.365.984 2.348 1.969 2.89.984 12.484.984 4.997.985-3.68.984 3.447.984.218.985-.94.984-1.15.984-23.265.984-7.03.985 15.91.984-.13.984.275 1.969.932.984 16.093.984 9.162.984-6.732.985 1.153 1.968 3.295.984.976.985-3.302.984-4.004.984-.565.984-1.098.985-1.614.984-1.26.984-.377.985.655.984.393 1.968-2.048 1.969-.236.984-.35.984 1.228.985-.046.984-.625.984 1.292.984.411.985-.09.984-.289.984-2.835.984-.374.985 2.382.984-.51.984-.72.984-.183.985.235.984 1.092.984-.967.984-3.422.985-2.251.984-1.378.984-.92.985-.583.984-2.435.984-1.223.984 1.832.985 1.436.984.329 1.968-.513.985.903.984.034.984-2.326.984-.49.985-1.102.984-3.537.984-1.453.984-1.07.985-1.25.984-.147.984-3.753.984-.936.985 5.585.984 2.471.984.47h0" style="fill:none;stroke:#000;stroke-linecap:round;stroke-width:1.5" id="line2d_1"/><path clip-path="url(#p9f7c386d1e)" d="m149.973 353.656 49.213-.097 2.953-.228.984-.185.984-.323.984-.485 2.953-2.912.984-1.964 2.953-8.102.984-4.85.985-7.466.984-6.573 1.968-10.99.985-4.163.984-5.855.984-2.039.984 1.567.985-1.358.984 1.05.984 5.42.985 4.142.984 7.086 1.968 16.33.985 12.11.984 7.222.984 4.224.984 3.27.985 1.337.984-.351.984-1.648.984-.827.985.17.984-3.159.984-.104.984-1.092.985-2.609.984 2.96 1.968-1.889 1.969 10.745.984 5.519.985 8.323.984.635.984-.212.984 2.755.985-1.293.984-2.761.984-1.123.984-2.236.985-.092 1.968 4.962.984 1.231.985 1.422.984 1.172.984-1.431.984-.304.985-1.17 1.968-7.672.984-4.477.985-5.848.984-3.357.984-2.538.985-.664.984.734.984 2.236 1.969 6.603.984 1.926.984.168.984-1.943.985-2.466.984-.604.984-1.188.984-.931.985 1.399.984 1.794.984 1.256.984 1.997.985.06 1.968-.27.984-2.341.985-1.06.984.307 1.969-2.683.984-.81.984-.11.984.795.985-.904.984-1.088.984-.085 1.969-.687.984-.268 1.968-7.976 1.969-.075.984.564.984.327.985-.642 1.968 14.335.984-.106.985-.234.984-.768.984-.208.984.672 1.969-6.208.984-.025.985.11.984.413.984-.32 1.969-1.57.984.189 1.968 1.777.985.849.984.605.984.891.984.353.985-1.58.984-2.198 1.968-5.193.985-1.282.984-.927.984-.19.984.496.985 1.212 1.968 4.864.985 1.639.984 1.06.984-.054 1.969 1.643 1.968-1.565 2.953-2.404.984-1.386.984-.96.985.943.984.625.984.3.984.945.985 2.3.984 2.824.984.317.984-1.716.985-.69.984.12.984-.278.985-1.722.984-2.362.984.176.984.9 2.953-1.486.984-.04.985.24.984-.381.984-.07 1.969 1.033.984.28 1.968.356 1.969-.417.984.032 1.969-1.027 1.968-.48.985.263.984-.123.984-.48.984.24 1.969.86.984.218 1.969-1.47 1.968-.737 1.969-1.401.984-.396.984-.082.984.869.985 1.131.984.153.984.757.984-.287.985-1.206.984.738.984.177 1.969-.84.984-1.733.984.812.985 2.532.984.058.984-1.174.984-2.474.985-.863.984 1.483.984-.38.984-1.718.985-2.54.984-.5.984 2.91.984.086.985-2.569.984-1.585.984-1.899 1.969 3.372.984-1.888 1.968 1.494.985-.333.984 1.535.984-3.485.985-4.339.984-.412.984-4.92.984-3.454.985-2.056.984-4.61.984-.773 1.969-7 .984 4.747.984 2.842.984 1.006 1.969 7.842.984 8.355.984 4.027.985-2.554.984 2.092.984 2.94.984.338.985 2.005.984 1.578.984 2.789.985 3.552 1.968-1.252.984-2.398.985-7.415.984-10.011.984-6.556.984-2.77.985-.968.984.164.984 7.598.984 8.901.985 9.934.984 6.814.984 3.227.984 2.768.985.242.984-2.268.984 1.5.984.145.985-.074.984 1.52.984-.036.985 1.735.984-4.745.984-5.9.984 4.292.985 5.69.984.814.984 1.662.984-1.582.985 1.659.984-2.086.984-12.562 1.969-223.875.984-10.157 1.968-13.364.985-3.118.984-2.156 1.968 407.887.985 7.213.984 3.992 1.969 22.182.984 12.326 1.968-186.601.985 5.837.984 13.015.984 6.73.984-2.236.985-6.817.984-5.145 1.968-8.078.985-7.552.984-12.102.984-1.973.984 8.807.985 4.333.984 5.725.984 7.749.984 6.43.985 9.99.984 5.175.984-4.545.985-1.493.984-3.671 1.968-27.622.985-6.56.984-2.707 1.968 9.71.985 1.132.984 5.721.984 6.52.984 1.992.985.672.984-4.041.984-9.359.984-3.92.985 2.681.984.108.984-4.651.984-7.749.985-5.595.984.69.984.458.984-4.614.985-1.877.984 3.561.984 5.664.985 4.037.984 3.193.984 1.205.984-.461.985-1.093.984-3.597 1.968-5.24.985-4.273.984-.221.984 1.685.984-1.041.985.648.984-1.18.984-.074.984 2.228.985-2.783.984-1.577.984 4.122.984.33.985.54.984-.116.984-3.146.985 1.86.984 2.61.984-4.209.984.181.985 4.794.984 4.143.984 6.87.984 5.295.985.489.984 4.122.984 4.69.984-.232.985.712.984-1.541.984-3.908.984-.323.985.827.984-2.946.984-3.6.984-2.859.985-.506.984 2.753.984 1.631.985-.672.984 4.271.984 6.797.984 5.695.985 25.749.984 22.311.984 1.863.984 3.346.985-.579.984-1.094.984-1.922 1.969-91.214.984-2.928.984-4.117.984-.515.985-.727.984.23 1.968 45.332.985 3.793.984 5.56.984-.196.985-2.511 2.952-10.83.985-5.374.984-6.63.984-4.446.984-1.507.985.344.984.723.984 1.663 1.969 1.39.984 2.158.984 1.212.984-.124.985-.54.984-.778 1.968.143.985-.993.984-1.359.984-.518.985.14.984-.391.984-.64.984-.44.985-.272.984.548.984.377 1.969-.162.984-.436.984-.049.984.328.985-.168.984-.015 2.953 1.159.984-.052.984-.486 2.953-.989.984-.225.984.102.985.31 1.968.868 2.953.763.984-.213 1.969-1.322.984-.627 1.969-1.65.984-.995.984-.578 1.969-.013 1.968-.46.984.124.985-.115.984-.718 2.953-2.836 1.968-.493.985.1.984.518.984.115 1.969.787.984-.368.984-.663.984-1.13.985-.884 1.968-.353.984-.112.985.117.984.988.984 1.227.984.062.985-.368.984-.574.984-1.996.984-1.131 1.969-1.403.984 1.252.985 1.456.984-.804.984 1.771.984 2.891.985.111.984.593 1.968-1.271.985 3.359.984 2.683.984-.863 1.969.878.984.065.984-.404.984.113 2.953-.115.984 3.16.985 2.125.984-.478.984-2.054.985-3.652.984-.427.984 1.233.984-5.547.985-2.168.984 2.887.984.295.984 2.84.985.4.984-.878.984 2.281.984.549.985.33.984 2.767.984.778 1.969 5.915 1.968 3.784 1.969-1.503.984.712.984-2.621.985-3.602.984-1.25.984-.523.984.273.985-.898.984-2.021.984.367.984 1.582.985.308.984-.58.984.268 2.953 5.491.984.874.984.623.985 1.981.984.589.984-2.266.984-1.856.985-1.046.984-1.682.984-2.13 1.969-6.276.984.12.984.682.985-1.996.984-.508.984 1.681.984 1.418.985 2.407.984 1.018.984-1.195 1.969 2.547.984-1.403.984-1.782 1.969-4.779.984-.89.984-2.394.984-3.28.985-1.074.984.009 2.953-1.96.984 1.164.984 3.153h0" style="fill:none;stroke:#009e73;stroke-linecap:round;stroke-width:1.5" id="line2d_2"/><path clip-path="url(#p9f7c386d1e)" d="m149.973 353.656 43.307-.1 3.937-.143 2.953-.162 1.969-.587.984-.527.984-.931.984-1.236 1.969-8.143.984-.607.984-1.742.985-3.829.984-2.896.984-1.459.984-1.721.985-5.55.984-10.533.984-9.095.984-3.646.985-6.158.984-13.45.984-7.96.984-4.233.985-9.358.984-2.188.984-1.236.985-2.228.984 16.245 1.968 41.91.985 33.846.984 22.727.984 16.812.984 26.535.985 5.185.984-11.201.984-5.651 1.969-15.435.984-9.925.984-15.78.984-3.544.985 9.378.984 6.057.984-4.052.984 1.904.985 12.154.984 10.25.984 5.104.985.89.984-.91.984 5.266.984 1.478 1.969-17.095.984-4.639.984-2.512.985-1.985.984-3.16.984-2.268.984.527.985 2.066.984.243 1.968-2.046.985-2.836 1.968-3.12.984-2.268.985-1.073 1.968-9.44.985 1.054.984-.79.984-.628.984.02.985-2.552.984-1.256.984.506.984-.992.985 1.762.984 3.282.984 1.944.984 2.248.985 5.145.984 3.606.984-1.276 3.937-8.102.984-3.87.985-2.065.984.587.984-.527.985-.85.984-.446.984 2.107.984 3.423.985.527.984.83.984 1.175.984-.02.985.931.984-.587 1.968-16.995.985-2.025.984-1.6.984-1.236 1.969-1.296.984 12.66.984 14.908.984 1.64.985.892.984 1.336.984.568.984.06 1.969-14.887.984-.163.985 1.054.984.85.984-.06.984 1.053.985 2.512.984 1.782.984.71.984-.386.985-1.215.984-1.033.984-1.479.984-2.106.985-1.844 1.968-3.18.984-.445.985-.142.984-.304.984 1.013 1.969.263 3.937 5.287.984-.122.984.892.985.465.984-1.336.984-.932 1.969-.345.984-.486.984-2.633.984-1.985.985.284.984-1.357.984-1.135.984.669.985 2.754.984 5.834.984 4.517.984 2.633.985 4.132.984 1.56.984-2.046 1.969-9.5 1.968-5.428.985-3.342.984-1.58.984.952.984 2.046 1.969 1.742.984 1.742.984 1.276.985 1.843.984.87.984.203.984.628 1.969-1.964.984-.365.984-.587.985-.243 1.968-1.803 1.969-.203.984.142 1.969-2.816 1.968 2.877.984.324.985-.365.984-.648.984 1.337.984 1.094.985-1.742.984-2.066.984-1.074h.984l.985.365 1.968-1.742.984.445.985.73.984.384.984-.303 1.969-1.155.984-.668.984-.203.985.182.984.79.984.284.984-1.215h.985l.984.303.984-.344.984.162.985-1.944.984-1.459.984 1.175.984-.081.985.648.984 1.053.984-2.775.984-.222.985 1.539.984-.75.984.061.984-2.592.985-1.702.984 3.646.984-2.066.985-4.618.984.729.984-1.074.984-1.62.985-6.421.984-9.52.984.263.984.122.985-4.193.984-.588.984.628.984 5.348.985 8.487.984 2.977.984 3.788.984.648.985-.263.984 6.907.984 5.186.984-3.2.985 1.437.984 3.95.984 4.457.985 2.815.984-6.684.984-5.368.984.608.985-8.001.984-9.763.984-2.006.984.993 1.969 14.928.984 11.262.984 13.794.985 10.189.984 4.091.984-1.195 1.969-12.194.984-9.236.984-4.922.984.385.985.648.984 3.423.984 1.499.985-.77.984-1.762.984-1.215.984.405.985-.122.984-2.511 1.968 4.294.985.587.984-3.605.984-8.265 1.969-188.214.984-12.052.984-6.037.984-4.517 1.969-7.393 1.968 358.382.985 13.632.984 2.167.984 6.907 1.969 19.912.984-78.713.984-92.832.985-2.309.984 12.74.984 9.217.984-.648 1.969-8.426.984.141.984 1.439.985-6.705.984-11.708.984-1.701.984 6.42.985 2.432.984 3.727 1.968 12.274.985 3.667.984-.426.984-3.443.985.668.984-1.235.984-13.51.984-11.931.985 1.458 1.968 7.88.984 3.99.985-3.363.984 2.553.984 6.522.984-.75.985-.992.984-2.836.984-9.58.984-.831.985 4.193.984-4.538 1.968-17.642.985-4.031.984.608.984-.102.984-4.091.985 1.884.984 9.864.984 11.627.985 4.76.984 6.32.984 5.063.984 1.904.985.02.984-5.367.984-8.953.984-7.373.985-5.47.984-3.017 1.968-1.236.985.973.984-1.054.984 2.552.984 2.168.985-.83.984 1.194.984 4.254 1.969-1.215.984-2.33.984-3.463.985.75.984-3.1.984-8.973.984 2.795.985 10.513.984 8.993.984 7.637.984 4.84.985 7.394.984 9.216.984 4.132.984-.202.985-.851.984-1.134.984-1.783.984-.79.985.73.984-4.214.984-5.307.984-1.64.985.547.984.688.984-1.033.985-1.944.984 3.646.984 5.205.984 1.378 1.969 3.22.984 1.297.984 2.106.985-1.438.984-.668.984 1.053.984-5.246.985-4.477.984-24.468.984-30.181.984-4.922.985-2.046.984-3.241 1.968 3.22.985 45.798.984 57.628.984 9.297.985-2.289.984-.993.984-1.276.984-1.54.985-23.941.984-30.343.984-6.907.984 1.134.985 1.438.984.567.984-.303 1.969-3.16.984.06.984-.384.984-1.135.985-.04.984.932.984 1.397.984 1.094.985-.121 1.968-2.532.985-.83.984-.993 1.968-2.573.985-.83.984.729.984 1.013.984.08.985-.364.984-.243.984.486.984.628 1.969-.182.984.506.984.77.985.202.984-.952.984-.729.984-.405 1.969-1.195.984-.486.984.101.985 1.053.984.649.984.141 1.969 1.317.984.648.984.932.985.223.984-.02.984.202.984-.85 1.969-2.229.984-1.944.984-1.317.985-1.053.984-1.317.984-.101 1.969.506.984.891.984-.06.984-.973.985-.587.984-.81.984-1.195.985-1.013.984-1.398.984-.75 1.969 1.864.984.04.984.467.984.202.985.567.984 1.6 1.968.81 1.969 3.485.984.506.984-1.235.985-2.41.984-1.014.984-1.904.984-.87.985.283.984-.121.984 1.539.985 2.876.984-.304.984.405.984-1.296.985-4.375 1.968 2.147.984-1.438 1.969 4.962.984.831.984 3.018.985-.304.984-.142.984 1.256.984.912 1.969 2.694.984-.061.984 2.208.985.445.984-2.45 1.969-7.82.984-.688.984 1.337.984-4.395.985-2.026.984 3.99 1.968 6.28h.985l.984-1.52.984 3.403.984 2.168.985-1.945.984-1.56.984-1.822 1.969 2.106.984-1.033.984-.263.984.486.985 1.843.984 2.33.984.567.985 1.154.984.547.984-.121.984 1.154.985.891.984-.222.984-1.54.984-1.276.985.527.984.162.984-.71 1.969-2.997.984 1.053.984.588.984-.223.985 2.046.984 1.6.984.142.984 1.418.985.607.984-1.519.984-3.058.984-4.74.985-4.072 2.953-6.137.984 1.215.984 4.092.984 2.957.985 2.492.984 3.038.984 1.58.984 1.114.985-.405.984-2.31.984-.769.984-1.033.985-2.897.984-1.782 1.968-5.53.985-1.722.984-3.443.984-2.735.984-1.093.985-1.904.984.931.984 2.755h0" style="fill:none;stroke:#d55e00;stroke-linecap:round;stroke-width:1.5" id="line2d_3"/><path clip-path="url(#p9f7c386d1e)" d="M149.973 353.656h55.118l1.969-4.126h.984l1.969-2.063.984-3.095.984-6.19.984-5.159.985-3.094.984-4.127.984-3.095.984-5.158.985-7.222.984-3.095.984 7.222.984 4.126.985-14.443.984-18.57.984-1.031 1.969 31.981.984-4.126.984-8.254.985 31.981.984 48.488.984 15.475 1.969-14.443.984 8.253.984 16.506.984-12.38.985-26.822.984-7.222.984 4.127h.984l.985-5.159.984-9.285.984-2.063.984 2.063.985-1.031.984 1.031 1.969 12.38.984 8.253.984 4.127.984-2.063.985 5.158.984 2.063.984-4.126h.984l.985-1.032.984 2.063.984 4.127.984-9.285.985-13.411 1.968-14.443.984-6.19.985-5.159.984-3.095.984 8.254.984 15.474.985 9.285.984 4.127.984 3.095.985 1.031h.984l.984-4.126.984-7.222.985-4.126.984-2.064.984-4.126.984-3.095h.985l1.968-6.19h1.969l1.968 8.253h.984l1.969 12.38 1.968-2.063 1.969-6.19h.984l1.969-6.19 3.937 8.253h.984l.984-2.063 1.969-2.064 1.968-6.19.985-2.063h1.968l.984-1.031h.985l.984 3.095.984 4.126.984 2.063h1.969l.984-1.031h.984l.985-1.032.984-5.158.984-3.095h.985l.984 6.19.984 7.221h.984l.985 1.032.984 6.19.984 4.127h.984l.985-2.064.984-4.126 1.968-6.19.985-4.127.984-2.063h.984l.984-3.095.985 2.063.984 7.222.984 3.095.984 1.031h1.969l.984 1.032.985-2.063.984-5.159.984-1.031.984 1.031h1.969l2.953 3.095h.984l.984-2.063.984-1.032h.985l1.968-4.126.984 1.032h1.969l.984 1.031h.984l.985 2.063h.984l.984-4.126.985-1.032.984 2.064.984 1.031h.984l.985-2.063 1.968 4.126.984-1.031h.985l.984-1.032h.984l.984 2.063.985-3.094.984 2.063.984 6.19.984-1.032h1.969l.984-2.063.984 4.126h.985l.984-7.221.984-1.032h1.969l.984-1.031.984-4.127h.985l.984 5.158.984 2.063h1.969l1.968 10.317h.984l1.969-2.063h1.968l.985-5.159.984-6.19.984-7.221.984-15.475.985-11.348.984-2.063h.984l.985 2.063.984-2.063.984 5.158.984 22.696.985 12.38.984-4.126.984-6.19.984-3.095.985 11.348.984 4.126.984-6.19.984 9.285.985 14.443.984 12.38.984 2.064.984-14.444 1.969-16.506.984-20.633.984-13.411.985-6.19.984-5.158.984 5.158 1.969 12.38.984 12.38.984 5.158h.985l.984-1.032.984-7.222.984 3.095.985-7.221.984-18.57.984-2.063h.984l.985 10.316.984 5.159.984-24.76.984 4.127.985 18.57.984-10.317.984-5.158.984-1.032.985 11.348.984 30.95.984 17.538.984 20.633.985 11.348.984-10.317.984-2.063.985-5.158.984-14.443.984-36.108.984-63.962.985-14.444.984 24.76.984 3.095.984-3.095.985 5.158.984 25.792.984 54.677.984 42.298.985 2.063.984-6.19.984 2.063h.984l.985 12.38.984-3.095.984-35.076 2.953-33.013.984-19.601.985-42.298.984 2.064.984 25.79h.984l1.969 20.634 1.968 56.74 1.969-36.107h1.968l.985-15.475.984-18.57.984-1.031.984-10.317.985-22.696.984-10.317.984 14.444.984 35.076.985 14.443.984 3.095.984 23.728.985 35.076.984 20.633.984 11.348.984-6.19.985-11.348.984 7.221.984 6.19.984-5.158.985-10.317.984-54.677.984-26.823.984 26.823.985-9.285 1.968-54.677.984-5.158.985 63.962.984 50.55.984-38.17.984-24.76.985 22.696.984 33.013.984 10.317.985-48.488.984-59.836.984 30.95.984 46.424.985-3.095.984-19.601.984-12.38 1.969 66.026 1.968-42.298.984-1.032.985 12.38.984 7.222.984-27.855.984-5.158.985 16.506.984-12.38.984-17.538.984-11.348.985 7.222.984 6.19.984-20.633.984-15.475.985 17.538.984 19.601.984-1.031.985-7.222.984 7.222.984 24.76.984 10.316.985-21.665.984-7.221.984 14.443h.984l.985-11.348.984-20.633.984-7.222.984 24.76.985 13.411.984-9.285h.984l.984 8.253.985 12.38.984 5.158.984-15.474.984-18.57.985-2.063.984-9.285.984 5.158.985 11.348h.984l.984-2.063.984-5.158h.985l.984 18.57.984-1.032.984-17.538.985-7.222L586 344.372v25.79l.984 5.16.985-10.317.984 4.126.984 16.507.984 11.348.985-4.127.984-16.506.984-7.222.984-3.095h.985l.984 1.032.984-3.095.985 4.127.984 8.253 1.968 18.57.985-10.317.984-16.506.984-2.064.984 2.064.985-6.19.984-10.317.984-6.19.984 7.222.985 11.348.984-2.063.984-7.222.984 10.317.985 13.411.984 2.063.984-6.19.984-7.221.985 7.221.984 8.254.984-5.159.985-6.19.984-1.031.984 6.19.984 5.158.985-5.158.984-7.222.984-5.158.984-2.063h.985l1.968-8.254 1.969-4.126h4.92l.985 1.032.984 4.126.985 3.095h2.953l1.968-6.19 1.969-4.126h2.952l.985 6.19.984 7.221.984 1.032h3.937l.984-3.095.985-4.127.984-1.032 1.968-8.253h3.937l.985-1.031.984 7.221.984 8.253h3.937l.985 1.032.984-4.127.984-5.158h2.953l.984-1.031.984-2.064.985 1.032.984 2.063h2.953l.984 2.063.984 3.095.984-6.19.985-7.221h.984l1.969-45.393.984-4.126.984-7.222.984 2.064.985 7.221h.984l1.968 73.247.985 2.064.984 11.348.984 13.411.984 3.095h.985l1.968-34.044.984-4.127 1.969-28.886.984-5.158h.984l.985 3.095.984 4.126.984 11.348.985 16.507.984 9.285.984 3.094h.984l.985 8.254.984 5.158 1.968-18.57.985-5.158.984-2.063h.984l1.969-27.855.984-5.158h.984l.984-1.032.985-5.158h.984l.984 12.38.984 10.316.985 4.127.984 5.158.984 4.127.985 5.158h.984l.984-16.506.984-2.064.985 15.475 1.968-18.57.984 1.032h.985l.984 5.158.984-2.063.984-10.317.985 8.254.984 11.348h1.968l.985 13.411.984 9.285.984-2.063h.984l.985-4.127.984-2.063h.984l.985-9.285.984-6.19h1.968l.985-3.095.984-6.19h.984l.984 4.127.985-1.032.984 1.032h.984l.984 10.316.985 16.507h.984l.984-12.38.984-5.158.985 4.126.984-3.095 1.968-18.57h.985l1.968 27.855.984-1.031.985 4.126.984 5.158.984 1.032h.985l.984-12.38.984-17.538.984-6.19.985-1.031 1.968-4.127h.984l.985 9.285.984 14.443.984-4.127.984-11.348.985-6.19.984-4.126h.984l.984-4.127.985-8.253 1.968 25.791.984 6.19.985 9.285h.984l.984 1.032h0" style="fill:none;stroke:#0072b2;stroke-linecap:round;stroke-width:1.5" id="line2d_4"/><path clip-path="url(#p9f7c386d1e)" d="M117 353.656h725.4" style="fill:none;stroke:red;stroke-dasharray:1.5,2.475;stroke-dashoffset:0;stroke-width:1.5" id="line2d_5"/><path d="M117 576.72V77.76" style="fill:none;stroke:#d3d3d3;stroke-linecap:square;stroke-linejoin:miter;stroke-width:1.25" id="patch_3"/><path d="M117 576.72h725.4" style="fill:none;stroke:#d3d3d3;stroke-linecap:square;stroke-linejoin:miter;stroke-width:1.25" id="patch_4"/><g id="matplotlib.axis_1"><g id="xtick_1"><g style="fill:#696969" transform="matrix(.16 0 0 -.16 117.955 598.378)" id="text_1"><defs><path d="M9.813 72.906h9.859V5.078q0-13.187-5-19.14-5-5.954-16.094-5.954h-3.75v8.297h3.078q6.531 0 9.219 3.672Q9.813-4.39 9.813 5.078z" id="DejaVuSans-74"/><path d="M34.281 27.484q-10.89 0-15.093-2.484-4.204-2.484-4.204-8.5 0-4.781 3.157-7.594 3.156-2.797 8.562-2.797 7.485 0 12 5.297 4.516 5.297 4.516 14.078v2zm17.922 3.72V0H43.22v8.297Q40.14 3.328 35.547.953q-4.594-2.375-11.234-2.375-8.391 0-13.36 4.719Q6 8.016 6 15.922q0 9.219 6.172 13.906 6.187 4.688 18.437 4.688h12.61v.89q0 6.203-4.078 9.594-4.078 3.39-11.453 3.39-4.688 0-9.141-1.124-4.438-1.125-8.531-3.375v8.312q4.921 1.906 9.562 2.844 4.64.953 9.031.953 11.875 0 17.735-6.156 5.86-6.14 5.86-18.64z" id="DejaVuSans-97"/><path d="M54.89 33.016V0h-8.984v32.719q0 7.765-3.031 11.61-3.031 3.858-9.078 3.858-7.281 0-11.484-4.64-4.204-4.625-4.204-12.64V0H9.08v54.688h9.03v-8.5q3.235 4.937 7.594 7.374Q30.078 56 35.797 56q9.422 0 14.25-5.828 4.844-5.828 4.844-17.156z" id="DejaVuSans-110"/></defs><use xlink:href="#DejaVuSans-74"/><use x="29.492" xlink:href="#DejaVuSans-97"/><use x="90.771" xlink:href="#DejaVuSans-110"/></g></g><g id="xtick_2"><g style="fill:#696969" transform="matrix(.16 0 0 -.16 206.015 598.378)" id="text_2"><defs><path d="M34.188 63.188 20.797 26.906h26.812zm-5.579 9.718h11.188L67.578 0h-10.25l-6.64 18.703h-32.86L11.188 0H.78z" id="DejaVuSans-65"/><path d="M18.11 8.203v-29H9.077v75.484h9.031v-8.296q2.844 4.875 7.157 7.234Q29.594 56 35.594 56q9.968 0 16.187-7.906 6.235-7.907 6.235-20.797T51.78 6.484q-6.218-7.906-16.187-7.906-6 0-10.328 2.375-4.313 2.375-7.157 7.25zm30.578 19.094q0 9.906-4.079 15.547-4.078 5.64-11.203 5.64-7.14 0-11.218-5.64-4.079-5.64-4.079-15.547 0-9.906 4.078-15.547 4.079-5.64 11.22-5.64 7.124 0 11.202 5.64t4.078 15.547z" id="DejaVuSans-112"/><path d="M41.11 46.297q-1.516.875-3.297 1.281Q36.03 48 33.89 48q-7.625 0-11.703-4.953-4.079-4.953-4.079-14.234V0H9.08v54.688h9.03v-8.5q2.844 4.984 7.375 7.39Q30.031 56 36.531 56q.922 0 2.047-.125 1.125-.11 2.484-.36z" id="DejaVuSans-114"/></defs><use xlink:href="#DejaVuSans-65"/><use x="68.408" xlink:href="#DejaVuSans-112"/><use x="131.885" xlink:href="#DejaVuSans-114"/></g></g><g id="xtick_3"><g style="fill:#696969" transform="matrix(.16 0 0 -.16 299.77 598.378)" id="text_3"><defs><path d="M8.5 21.578v33.11h8.984V21.922q0-7.766 3.016-11.656 3.031-3.875 9.094-3.875 7.265 0 11.484 4.64 4.234 4.64 4.234 12.656v31h8.985V0h-8.984v8.406Q42.047 3.422 37.718 1q-4.313-2.422-10.032-2.422-9.421 0-14.312 5.86Q8.5 10.296 8.5 21.578zM31.11 56z" id="DejaVuSans-117"/><path d="M9.422 75.984h8.984V0H9.422z" id="DejaVuSans-108"/></defs><use xlink:href="#DejaVuSans-74"/><use x="29.492" xlink:href="#DejaVuSans-117"/><use x="92.871" xlink:href="#DejaVuSans-108"/></g></g><g id="xtick_4"><g style="fill:#696969" transform="matrix(.16 0 0 -.16 386.142 598.378)" id="text_4"><defs><path d="M39.406 66.219q-10.75 0-17.078-8.016-6.312-8-6.312-21.828 0-13.766 6.312-21.781 6.328-8 17.078-8 10.735 0 17.016 8 6.281 8.015 6.281 21.781 0 13.828-6.281 21.828-6.281 8.016-17.016 8.016zm0 8q15.328 0 24.5-10.281 9.188-10.282 9.188-27.563 0-17.234-9.188-27.516-9.172-10.28-24.5-10.28-15.375 0-24.593 10.25-9.204 10.265-9.204 27.546t9.204 27.563q9.218 10.28 24.593 10.28z" id="DejaVuSans-79"/><path d="M48.781 52.594v-8.407q-3.812 2.11-7.64 3.157-3.828 1.047-7.735 1.047-8.75 0-13.593-5.547-4.829-5.532-4.829-15.547 0-10.016 4.829-15.563 4.843-5.53 13.593-5.53 3.907 0 7.735 1.046 3.828 1.047 7.64 3.156V2.094Q45.016.344 40.984-.531q-4.015-.89-8.562-.89-12.36 0-19.64 7.765-7.266 7.765-7.266 20.953 0 13.375 7.343 21.031Q20.22 56 33.016 56q4.14 0 8.093-.86 3.953-.843 7.672-2.546z" id="DejaVuSans-99"/><path d="M18.313 70.219V54.688h18.5v-6.985h-18.5V18.016q0-6.688 1.828-8.594 1.828-1.906 7.453-1.906h9.218V0h-9.218q-10.407 0-14.36 3.875-3.953 3.89-3.953 14.14v29.688H2.687v6.984h6.594V70.22z" id="DejaVuSans-116"/></defs><use xlink:href="#DejaVuSans-79"/><use x="78.711" xlink:href="#DejaVuSans-99"/><use x="133.691" xlink:href="#DejaVuSans-116"/></g></g><g id="xtick_5"><g style="fill:#696969" transform="matrix(.16 0 0 -.16 478.194 598.378)" id="text_5"><use xlink:href="#DejaVuSans-74"/><use x="29.492" xlink:href="#DejaVuSans-97"/><use x="90.771" xlink:href="#DejaVuSans-110"/></g></g><g id="xtick_6"><g style="fill:#696969" transform="matrix(.16 0 0 -.16 565.27 598.378)" id="text_6"><use xlink:href="#DejaVuSans-65"/><use x="68.408" xlink:href="#DejaVuSans-112"/><use x="131.885" xlink:href="#DejaVuSans-114"/></g></g><g id="xtick_7"><g style="fill:#696969" transform="matrix(.16 0 0 -.16 659.026 598.378)" id="text_7"><use xlink:href="#DejaVuSans-74"/><use x="29.492" xlink:href="#DejaVuSans-117"/><use x="92.871" xlink:href="#DejaVuSans-108"/></g></g><g id="xtick_8"><g style="fill:#696969" transform="matrix(.16 0 0 -.16 745.397 598.378)" id="text_8"><use xlink:href="#DejaVuSans-79"/><use x="78.711" xlink:href="#DejaVuSans-99"/><use x="133.691" xlink:href="#DejaVuSans-116"/></g></g></g><g id="matplotlib.axis_2"><g id="ytick_1"><g style="fill:#696969" transform="matrix(.16 0 0 -.16 73.733 544.782)" id="text_9"><defs><path d="M10.594 35.5h62.593v-8.297H10.594z" id="DejaVuSans-8722"/><path d="M12.406 8.297h16.11v55.625l-17.532-3.516v8.985l17.438 3.515h9.86V8.296H54.39V0H12.406z" id="DejaVuSans-49"/><path d="M31.781 66.406q-7.61 0-11.453-7.5Q16.5 51.422 16.5 36.375q0-14.984 3.828-22.484 3.844-7.5 11.453-7.5 7.672 0 11.5 7.5 3.844 7.5 3.844 22.484 0 15.047-3.844 22.531-3.828 7.5-11.5 7.5zm0 7.813q12.266 0 18.735-9.703 6.468-9.688 6.468-28.141 0-18.406-6.468-28.11-6.47-9.687-18.735-9.687-12.25 0-18.718 9.688-6.47 9.703-6.47 28.109 0 18.453 6.47 28.14Q19.53 74.22 31.78 74.22z" id="DejaVuSans-48"/></defs><use xlink:href="#DejaVuSans-8722"/><use x="83.789" xlink:href="#DejaVuSans-49"/><use x="147.412" xlink:href="#DejaVuSans-48"/></g></g><g id="ytick_2"><g style="fill:#696969" transform="matrix(.16 0 0 -.16 83.912 452.258)" id="text_10"><defs><path d="M10.797 72.906h38.719v-8.312H19.828v-17.86q2.14.735 4.281 1.094 2.157.36 4.313.36 12.203 0 19.328-6.688 7.14-6.688 7.14-18.11 0-11.765-7.328-18.296-7.328-6.516-20.656-6.516-4.593 0-9.36.781-4.75.782-9.827 2.344v9.922q4.39-2.39 9.078-3.563 4.687-1.171 9.906-1.171 8.453 0 13.375 4.437 4.938 4.438 4.938 12.063 0 7.609-4.938 12.047-4.922 4.453-13.375 4.453-3.953 0-7.89-.875-3.922-.875-8.016-2.735z" id="DejaVuSans-53"/></defs><use xlink:href="#DejaVuSans-8722"/><use x="83.789" xlink:href="#DejaVuSans-53"/></g></g><g id="ytick_3"><use xlink:href="#DejaVuSans-48" style="fill:#696969" transform="matrix(.16 0 0 -.16 97.32 359.735)" id="text_11"/></g><g id="ytick_4"><use xlink:href="#DejaVuSans-53" style="fill:#696969" transform="matrix(.16 0 0 -.16 97.32 267.212)" id="text_12"/></g><g id="ytick_5"><g style="fill:#696969" transform="matrix(.16 0 0 -.16 87.14 174.689)" id="text_13"><use xlink:href="#DejaVuSans-49"/><use x="63.623" xlink:href="#DejaVuSans-48"/></g></g><g style="fill:#696969" transform="matrix(0 -.2 -.2 0 65.573 445.117)" id="text_14"><defs><path d="M64.406 67.281v-10.39q-4.984 4.64-10.625 6.922-5.64 2.296-11.984 2.296-12.5 0-19.14-7.64-6.641-7.64-6.641-22.094 0-14.406 6.64-22.047 6.64-7.64 19.14-7.64 6.345 0 11.985 2.296 5.64 2.297 10.625 6.938V5.609Q59.234 2.094 53.437.33q-5.78-1.75-12.218-1.75-16.563 0-26.094 10.124-9.516 10.14-9.516 27.672 0 17.578 9.516 27.703 9.531 10.14 26.094 10.14 6.531 0 12.312-1.734 5.797-1.734 10.875-5.203z" id="DejaVuSans-67"/><path d="M44.281 53.078v-8.5q-3.797 1.953-7.906 2.922-4.094.984-8.5.984-6.688 0-10.031-2.047-3.344-2.046-3.344-6.156 0-3.125 2.39-4.906 2.391-1.781 9.626-3.39l3.078-.688q9.562-2.047 13.593-5.781 4.032-3.735 4.032-10.422 0-7.625-6.032-12.078-6.03-4.438-16.578-4.438-4.39 0-9.156.86Q10.688.296 5.422 2v9.281q4.984-2.594 9.812-3.89 4.829-1.282 9.579-1.282 6.343 0 9.75 2.172 3.421 2.172 3.421 6.125 0 3.656-2.468 5.61-2.453 1.953-10.813 3.765l-3.125.735q-8.344 1.75-12.062 5.39-3.704 3.64-3.704 9.985 0 7.718 5.47 11.906Q16.75 56 26.811 56q4.97 0 9.36-.734 4.406-.72 8.11-2.188z" id="DejaVuSans-115"/><path d="M56.203 29.594v-4.39H14.891q.593-9.282 5.593-14.142 5-4.859 13.938-4.859 5.172 0 10.031 1.266 4.86 1.265 9.656 3.812v-8.5Q49.266.734 44.187-.344 39.11-1.422 33.892-1.422q-13.094 0-20.735 7.61-7.64 7.625-7.64 20.625 0 13.421 7.25 21.296Q20.016 56 32.328 56q11.031 0 17.453-7.11 6.422-7.093 6.422-19.296zm-8.984 2.64q-.094 7.36-4.125 11.75-4.032 4.407-10.672 4.407-7.516 0-12.031-4.25-4.516-4.25-5.203-11.97z" id="DejaVuSans-101"/><path d="M44.39 34.188q3.172-1.079 6.172-4.594 3-3.516 6.032-9.672L66.609 0H56l-9.313 18.703q-3.624 7.328-7.015 9.719-3.39 2.39-9.25 2.39h-10.75V0h-9.86v72.906h22.266q12.5 0 18.656-5.234 6.157-5.219 6.157-15.766 0-6.89-3.203-11.437-3.204-4.532-9.297-6.282zM19.673 64.797V38.922h12.406q7.125 0 10.766 3.297 3.64 3.297 3.64 9.687 0 6.39-3.64 9.64-3.64 3.25-10.766 3.25z" id="DejaVuSans-82"/><path d="M8.594 75.984h20.703V69H17.578V-6.203h11.719v-6.984H8.594z" id="DejaVuSans-91"/><path d="M25.39 72.906h8.297L8.297-9.28H0z" id="DejaVuSans-47"/><path d="M45.406 46.39v29.594h8.985V0h-8.985v8.203Q42.578 3.328 38.25.953q-4.313-2.375-10.375-2.375-9.906 0-16.14 7.906-6.22 7.922-6.22 20.813 0 12.89 6.22 20.797Q17.968 56 27.874 56q6.063 0 10.375-2.375 4.328-2.36 7.156-7.234zm-30.61-19.093q0-9.906 4.079-15.547 4.078-5.64 11.203-5.64 7.125 0 11.219 5.64 4.11 5.64 4.11 15.547 0 9.906-4.11 15.547-4.094 5.64-11.219 5.64-7.125 0-11.203-5.64-4.078-5.64-4.078-15.547z" id="DejaVuSans-100"/><path d="M32.172-5.078q-3.797-9.766-7.422-12.735-3.61-2.984-9.656-2.984H7.906v7.516h5.282q3.703 0 5.75 1.765Q21-9.766 23.483-3.219l1.61 4.094-22.11 53.813H12.5l17.094-42.766 17.093 42.766h9.516z" id="DejaVuSans-121"/><path d="M30.422 75.984v-89.171H9.719v6.984H21.39V69H9.719v6.984z" id="DejaVuSans-93"/></defs><use xlink:href="#DejaVuSans-67"/><use x="69.824" xlink:href="#DejaVuSans-97"/><use x="131.104" xlink:href="#DejaVuSans-115"/><use x="183.203" xlink:href="#DejaVuSans-101"/><use x="244.727" xlink:href="#DejaVuSans-32"/><use x="276.514" xlink:href="#DejaVuSans-82"/><use x="343.746" xlink:href="#DejaVuSans-97"/><use x="405.025" xlink:href="#DejaVuSans-116"/><use x="444.234" xlink:href="#DejaVuSans-101"/><use x="505.758" xlink:href="#DejaVuSans-32"/><use x="537.545" xlink:href="#DejaVuSans-91"/><use x="576.559" xlink:href="#DejaVuSans-32"/><use x="608.346" xlink:href="#DejaVuSans-99"/><use x="663.326" xlink:href="#DejaVuSans-97"/><use x="724.605" xlink:href="#DejaVuSans-115"/><use x="776.705" xlink:href="#DejaVuSans-101"/><use x="838.229" xlink:href="#DejaVuSans-115"/><use x="890.328" xlink:href="#DejaVuSans-47"/><use x="924.02" xlink:href="#DejaVuSans-100"/><use x="987.496" xlink:href="#DejaVuSans-97"/><use x="1048.775" xlink:href="#DejaVuSans-121"/><use x="1107.955" xlink:href="#DejaVuSans-32"/><use x="1139.742" xlink:href="#DejaVuSans-93"/></g></g><g style="fill:#696969" transform="matrix(.24 0 0 -.24 245.86 71.76)" id="text_15"><defs><path d="M9.813 72.906h13.28l32.329-60.984v60.984h9.562V0h-13.28L19.39 60.984V0H9.813z" id="DejaVuSans-78"/><path d="M4.203 54.688h8.985l11.234-42.672 11.172 42.672h10.593l11.235-42.672 11.187 42.672h8.985L63.28 0H52.688L40.922 44.828 29.109 0H18.5z" id="DejaVuSans-119"/><path d="M8.203 72.906h46.875v-4.203L28.61 0H18.312L43.22 64.594H8.203z" id="DejaVuSans-55"/><path d="M2.984 54.688H12.5L29.594 8.797l17.093 45.89h9.516L35.687 0H23.485z" id="DejaVuSans-118"/><path d="M45.406 27.984q0 9.766-4.031 15.125-4.016 5.375-11.297 5.375-7.219 0-11.25-5.375-4.031-5.359-4.031-15.125 0-9.718 4.031-15.093t11.25-5.375q7.281 0 11.297 5.375 4.031 5.375 4.031 15.093zm8.985-21.203q0-13.953-6.203-20.765Q42-20.797 29.203-20.797q-4.734 0-8.937.703-4.203.703-8.157 2.172v8.735q3.954-2.141 7.813-3.157 3.86-1.031 7.86-1.031 8.843 0 13.234 4.61 4.39 4.609 4.39 13.937v4.453q-2.781-4.844-7.125-7.234Q33.938 0 27.875 0 17.828 0 11.672 7.656q-6.156 7.672-6.156 20.328 0 12.688 6.156 20.344Q17.828 56 27.875 56q6.063 0 10.406-2.39 4.344-2.391 7.125-7.22v8.297h8.985z" id="DejaVuSans-103"/><path d="M30.61 48.39q-7.22 0-11.422-5.64-4.204-5.64-4.204-15.453 0-9.813 4.172-15.453 4.188-5.64 11.453-5.64 7.188 0 11.375 5.655 4.203 5.672 4.203 15.438 0 9.719-4.203 15.406-4.187 5.688-11.375 5.688zm0 7.61q11.718 0 18.406-7.625 6.703-7.61 6.703-21.078 0-13.422-6.703-21.078-6.688-7.64-18.407-7.64-11.765 0-18.437 7.64-6.656 7.656-6.656 21.078 0 13.469 6.656 21.078Q18.844 56 30.609 56z" id="DejaVuSans-111"/><path d="M37.11 75.984V68.5h-8.594q-4.828 0-6.72-1.953-1.874-1.953-1.874-7.031v-4.828h14.797v-6.985H19.922V0H10.89v47.703H2.297v6.984h8.594V58.5q0 9.125 4.25 13.297 4.25 4.187 13.468 4.187z" id="DejaVuSans-102"/><path d="M9.813 72.906h9.859V42.094L52.39 72.906h12.703L28.906 38.922 67.672 0H54.688L19.672 35.11V0h-9.86z" id="DejaVuSans-75"/></defs><use xlink:href="#DejaVuSans-78"/><use x="74.805" xlink:href="#DejaVuSans-101"/><use x="136.328" xlink:href="#DejaVuSans-119"/><use x="218.115" xlink:href="#DejaVuSans-32"/><use x="249.902" xlink:href="#DejaVuSans-67"/><use x="319.727" xlink:href="#DejaVuSans-97"/><use x="381.006" xlink:href="#DejaVuSans-115"/><use x="433.105" xlink:href="#DejaVuSans-101"/><use x="494.629" xlink:href="#DejaVuSans-115"/><use x="546.729" xlink:href="#DejaVuSans-32"/><use x="578.516" xlink:href="#DejaVuSans-55"/><use x="642.139" xlink:href="#DejaVuSans-100"/><use x="705.615" xlink:href="#DejaVuSans-32"/><use x="737.402" xlink:href="#DejaVuSans-97"/><use x="798.682" xlink:href="#DejaVuSans-118"/><use x="857.861" xlink:href="#DejaVuSans-103"/><use x="921.338" xlink:href="#DejaVuSans-32"/><use x="953.125" xlink:href="#DejaVuSans-115"/><use x="1005.225" xlink:href="#DejaVuSans-108"/><use x="1033.008" xlink:href="#DejaVuSans-111"/><use x="1094.189" xlink:href="#DejaVuSans-112"/><use x="1157.666" xlink:href="#DejaVuSans-101"/><use x="1219.189" xlink:href="#DejaVuSans-32"/><use x="1250.977" xlink:href="#DejaVuSans-111"/><use x="1312.158" xlink:href="#DejaVuSans-102"/><use x="1347.363" xlink:href="#DejaVuSans-32"/><use x="1379.15" xlink:href="#DejaVuSans-55"/><use x="1442.773" xlink:href="#DejaVuSans-32"/><use x="1474.561" xlink:href="#DejaVuSans-97"/><use x="1535.84" xlink:href="#DejaVuSans-118"/><use x="1595.02" xlink:href="#DejaVuSans-103"/><use x="1658.496" xlink:href="#DejaVuSans-47"/><use x="1692.188" xlink:href="#DejaVuSans-49"/><use x="1755.811" xlink:href="#DejaVuSans-48"/><use x="1819.434" xlink:href="#DejaVuSans-48"/><use x="1883.057" xlink:href="#DejaVuSans-75"/></g><g id="legend_1"><path d="M694.75 184.5H831.2q3.2 0 3.2-3.2V88.96q0-3.2-3.2-3.2H694.75q-3.2 0-3.2 3.2v92.34q0 3.2 3.2 3.2z" style="fill:none;opacity:.8;stroke:#ccc;stroke-linejoin:miter" id="patch_5"/><path d="M697.95 98.718h32" style="fill:none;stroke:#000;stroke-linecap:round;stroke-width:1.5" id="line2d_6"/><g style="fill:#696969" transform="matrix(.16 0 0 -.16 742.75 104.317)" id="text_16"><defs><path d="M8.688 72.906h9.921V28.61q0-11.718 4.235-16.875 4.25-5.14 13.781-5.14 9.469 0 13.719 5.14 4.25 5.157 4.25 16.875v44.297H64.5V27.391q0-14.25-7.063-21.532-7.046-7.28-20.812-7.28-13.828 0-20.89 7.28-7.047 7.282-7.047 21.532z" id="DejaVuSans-85"/><path d="M53.516 70.516V60.89q-5.61 2.687-10.594 4-4.984 1.328-9.625 1.328-8.047 0-12.422-3.125t-4.375-8.89q0-4.845 2.906-7.313 2.907-2.453 11.016-3.97l5.953-1.218q11.031-2.11 16.281-7.406 5.25-5.297 5.25-14.172 0-10.61-7.11-16.078-7.093-5.469-20.812-5.469-5.172 0-11.015 1.172Q13.14.922 6.89 3.219v10.156q6-3.36 11.765-5.078 5.766-1.703 11.328-1.703 8.438 0 13.032 3.312 4.593 3.328 4.593 9.485 0 5.359-3.297 8.39-3.296 3.032-10.812 4.547L27.484 33.5q-11.03 2.188-15.968 6.875-4.922 4.688-4.922 13.047 0 9.672 6.812 15.234 6.813 5.563 18.766 5.563 5.14 0 10.453-.938 5.328-.922 10.89-2.765z" id="DejaVuSans-83"/></defs><use xlink:href="#DejaVuSans-85"/><use x="73.193" xlink:href="#DejaVuSans-83"/></g><path d="M697.95 122.203h32" style="fill:none;stroke:#009e73;stroke-linecap:round;stroke-width:1.5" id="line2d_8"/><g style="fill:#696969" transform="matrix(.16 0 0 -.16 742.75 127.802)" id="text_17"><use xlink:href="#DejaVuSans-78"/><use x="74.805" xlink:href="#DejaVuSans-74"/></g><path d="M697.95 145.688h32" style="fill:none;stroke:#d55e00;stroke-linecap:round;stroke-width:1.5" id="line2d_10"/><g style="fill:#696969" transform="matrix(.16 0 0 -.16 742.75 151.287)" id="text_18"><defs><path d="M19.672 34.813V8.108H35.5q7.953 0 11.781 3.297 3.844 3.297 3.844 10.078 0 6.844-3.844 10.078-3.828 3.25-11.781 3.25zm0 29.984V42.828h14.61q7.218 0 10.75 2.703 3.546 2.719 3.546 8.282 0 5.515-3.547 8.25-3.531 2.734-10.75 2.734zm-9.86 8.11h25.204q11.28 0 17.375-4.688Q58.5 63.53 58.5 54.89q0-6.703-3.125-10.657-3.125-3.953-9.188-4.922 7.282-1.562 11.313-6.53 4.031-4.954 4.031-12.376 0-9.765-6.64-15.093Q48.25 0 35.984 0H9.812z" id="DejaVuSans-66"/></defs><use xlink:href="#DejaVuSans-66"/><use x="68.604" xlink:href="#DejaVuSans-101"/><use x="130.127" xlink:href="#DejaVuSans-114"/><use x="169.49" xlink:href="#DejaVuSans-103"/><use x="232.967" xlink:href="#DejaVuSans-101"/><use x="294.49" xlink:href="#DejaVuSans-110"/></g><path d="M697.95 169.173h32" style="fill:none;stroke:#0072b2;stroke-linecap:round;stroke-width:1.5" id="line2d_12"/><g style="fill:#696969" transform="matrix(.16 0 0 -.16 742.75 174.773)" id="text_19"><defs><path d="M54.89 33.016V0h-8.984v32.719q0 7.765-3.031 11.61-3.031 3.858-9.078 3.858-7.281 0-11.484-4.64-4.204-4.625-4.204-12.64V0H9.08v75.984h9.03V46.188q3.235 4.937 7.594 7.374Q30.078 56 35.797 56q9.422 0 14.25-5.828 4.844-5.828 4.844-17.156z" id="DejaVuSans-104"/></defs><use xlink:href="#DejaVuSans-82"/><use x="64.982" xlink:href="#DejaVuSans-117"/><use x="128.361" xlink:href="#DejaVuSans-116"/><use x="167.57" xlink:href="#DejaVuSans-104"/><use x="230.949" xlink:href="#DejaVuSans-101"/><use x="292.473" xlink:href="#DejaVuSans-114"/><use x="333.586" xlink:href="#DejaVuSans-102"/><use x="368.791" xlink:href="#DejaVuSans-111"/><use x="429.973" xlink:href="#DejaVuSans-114"/><use x="469.336" xlink:href="#DejaVuSans-100"/></g></g></g></g><defs><clipPath id="p9f7c386d1e"><path d="M117 77.76h725.4v498.96H117z"/></clipPath></defs></svg>