<svg height="864" viewBox="0 0 936 648" width="1248" xmlns="http://www.w3.org/2000/svg" xmlns:xlink="http://www.w3.org/1999/xlink"><defs><style>*{stroke-linecap:butt;stroke-linejoin:round}</style></defs><g id="figure_1"><path d="M0 648h936V0H0z" style="fill:#fff" id="patch_1"/><g id="axes_1"><path d="M117 576.72h725.4V77.76H117z" style="fill:none" id="patch_2"/><path clip-path="url(#p78f0d7e738)" d="m149.973 331.808 40.102-.104 3.564-.146 1.783-.33 1.782-.615 1.782-1.002.891-.493 1.783-1.203.89-.415.892-.543 1.782-.227.891-.314 1.783.008.89-.204.892.032 1.782.279 2.674 1.457.891.863.891 1.085.891.347.891.91.892.59 1.782.92.891.194.891-.003.891.208.892-.423.89-.154.892-.036.891-.327.891-.449.891-.581.892-.2.89.362 1.783.048.891.348.891.499.891.682.892.124.89-.184 1.783-.01.891-.096.891.222.892-.02.89.325.892.194 2.673.088 1.783-.518.89-.282.892-.532.891-.006.891-.33 1.783.047.89.011.892-.144.891.432.891.047.891.39.891.124 1.783-.356.89.026 2.674-.94 1.783-.357 1.782.289.891.404.891.242 1.783-.256.89.46 2.674-.738.891-.502.892.004.89-.204.892-.534.891-.241 3.565-1.733 1.782-1.097.891-.224.891-.366.891.082 1.783-.3.89-.079 1.783.351.891.49.891.076.892.476.89.218.892.627.891.035.891-.188 1.783-.885.89-.363.892.037.891-.715 2.674 1.616.89.993.892.738.891.467.891 1.339.891.006.891-.162.892.78.89-.06.892.115.891.271.891-.288.891.439.892.89.89-.29.892.686.891.461 1.782 1.277.891.217.892-.52.89-.07 2.674-2.143 1.783-.887 1.782.433 1.782 1.201.891.737.891.285.892.547.89.076.892.216.891-.782.891-.378.891-.846 3.565-1.982.891.424.891-.556.891.946.892-.075.89-.499.892.121.891.282.891.462.891 1.245.892-.858 1.782 1.196.891.05.891-.423 1.782-3.018.892-.315.89-.971 1.783-.73.891.02.891-.395.892.755.89.227.892.459.891-.273 1.782.243.891 2.222.892-.506.89.11.892-.082.891.417.891-.262.891.198.892-2.658.89.445 1.783-1.197.891-.397.891.075.892-.745.89 2.46.892-.772.891.257.891.062.891-.381.891.172.892.412.89-1.983.892.332.891.153.891-.05.891-.208.892-1.54.89-.544.892.512.891-.473.891-.826.891-.36.891.017.892 1.258.89-.165.892-.634.891-.264.891-.533.891-.943.892-1.146.89-2.25 1.783-1.983.891-1.827.891-.536.891-.725.892-.98.89.538.892-.16.891.021.891 1.587.891.336.892 1.15.89 1.952.892 1.259 1.782 3.068.891.352.891 1.315.892 6.755.89.647.892 2.084.891.64.891 1.56.891.615.892-.765.89-12.42.892-1.157.891-4.664.891-2.522.891-3.044.891-1.815.892.127.89 6.686.892-1.472.891 3.27.891 1.465.891 2.525.892 3.244 1.782-.72.891 4.89 1.782 1.999.891-.266.892-.938.89 2.629.892 3.533.891 7.538.891-2.28.891 1.465.892.82.89-.057.892-1.138.891-5.093.891-12.253.891-3.228 1.783-9.527.89-2.157.892-1.61.891-.735.891-6.683.891 7.133.892 2.692.89 5.506.892 2.432.891 3.345.891 5.617.891 13.368.892.625.89 2.788.892 3.719.891 2.368.891 1.072.891.513.891-.788.892-.963.89.139.892-6.273.891-.42.891-.88 1.783-2.87.89-.01.892-1.53.891 1.88.891-.058.891.366.891 1.012.892.509.89-.328.892.663.891 2.128.891-1.03.891-.646.892-1.28.89-.327.892-.534.891-.188.891-.695.891.809.891-.025.892.864.89-.515.892-.334.891-.929 1.782-5.057.892-1.798.89-2.49.892-1.366.891-.491.891-.27.891.434.891 1.35.892.723.89 1.04.892.806.891-.06.891.41.891-2.53.892-.78.89.051.892-.355.891-.692.891.059.891-.547.892 4.686.89-.024.892-.57.891-.186.891.126.891-.742.891.107.892-2.175.89-.223.892-1.262.891-.658.891-1.086.891-.088.892-.88.89-1.151.892-.204.891 2.053.891.036.891 1.233.891.177.892 1.123.89.634.892.358.891-1.067.891.3.891-1.179.892.176.89-1.175.892.656.891-.973.891.155.891.625.891 1.011.892.717.89 1.106.892-.187.891 1.973.891.992.891.043.892.707.89-.466.892.076.891 1.325 1.782-.793.891.075.892-.58.89.144.892-.24.891-1.592 2.674.338 1.782.695.891.208.891.997.891-.25 1.783-.093.89-.28.892-.405.891-.105.891-.376.891-.046.892-.159.89-.027 1.783.722 2.673-.498.892-.08 1.782-.743.891-.248.891.258.891 1.032.892-.297.89.07.892.4.891 2.432 1.782-.69.892-2.123.89.506.892-.644.891-.287.891-5.414.891.066.891-.12.892 1.14.89-.379.892.627.891-.004.891 2.803.891-.092.892.21 4.455-1.662.891.006.892-.171.89.063 1.783-.274.891-2.977.891-.2 1.783.2.89.664.892-.522.891-.767.891 4.113.891-.587.892-.41.89-.235.892-2.603.891-.284.891.4 1.783-.28 1.782-.112.891.436.891-.201.891-.867.891-2.661.892-.87.89-.277.892-.083.891-.63.891-1.594 1.783-.42.89-.547.892.064.891-.265.891-.572.891.076.891-.138.892.256 1.782-.647.891-.256.891.035.891 1.977.892-.988.89 1.056.892 1.66 1.782.632.891-2.386.891 1.844.892 2.131.89-.58.892.426.891-1.364.891.686.891 4.622.892-1.477.89.169.892-.435.891.992.891 1.478.891-.301.892-.474.89-.26.892-2.102.891 2.498.891.046.891 1.563.891-.042.892 13.569.89-8.155.892 4.167.891-.432.891.668.891-1.688.892.444.89-25.65.892 18.034.891-.798.891.658.891-.36.891.849.892-.328.89 17.763.892-7.836.891.542.891.707.891 1.094.892.675.89.382.892-3.96.891-.379.891-.232.891-.957.891-.791.892-.575.89.167.892.543.891-.118.891-1.024 2.674-.17.89-.348.892 1.678.891-1.727.891 1.05.891.35.892.095 1.782-.312.891-2.953.891 2.547.891.034.892-.587.89-.193.892-.005.891.26.891.924 1.782-3.708 1.783-1.493.89-.206.892-.426.891-2.212.891.887.892 1.098.89.457 2.674-.372.891 1.067.891-1.03.892-1.49.89.958.892-2.152.891-1.68.891.106.891-1.264 1.783-.159.89-3.999 1.783 6.051.891-.389.892.741.89.326.892.608.891 7.797.891 3.642.891-.246.891.946.892-2.938 1.782-1.753 1.782-22.26.891-3.108.892-1.125.89 4.755 1.783 1.341.891 7.671.891 5.604.891 2.51.892.55.89-1.514.892.114.891.842.891-2.37.891.357.892-1.877.89-2.14.892-5.896.891-4.347 1.782-12.359.891-.417.892 2.47.89-5.056.892-8.765.891-7.395.891-9.16.891-12.525.892-15.575.89-7.42.892 1.267.891-14.633.891-19.57.891 1.894.891 9.08 1.783-23.277 1.782 8.015.891 38.72.891 2.417.892 3.987.89 26.208.892 19.21.891.388.891 70.87.891-32.69.891 12.75.892 14.416.89 8.8.892 3.916.891 10.023.891-64.953.891 67.068.892 8.57.89 6.072.892 10.082.891.588.891-2.675.891 43.027.891-28.228.892 12.132.89-.058.892-1.518.891 1.449.891-3.235h0" style="fill:none;stroke:#000;stroke-linecap:round;stroke-width:1.5" id="line2d_1"/><path clip-path="url(#p78f0d7e738)" d="m149.973 331.807 40.102-.096 2.673-.258.891-.194.891-.331.892-.684.89-.28.892-.897.891-1.23.891-1.795.891-1.5.892-.96 1.782-8.089.891-3.325.891-2.6.891-3.382.891-1.129.892-5.214.89 3.006.892-1.309.891-.163.891 1.301.891 4.572.892-.085.89 7.762.892 1.396.891 7.14.891 5.979.891 1.845.891 2.732.892.81.89.638.892-1.018.891-.767.891-.129.891.314.892-3.736.89 3.623.892-4.807.891 1.98.891 1.226.891-2.266.892 1.262.89 4.896.892.585.891 5.395.891 3.623.891-2.935.891 2.704.892.281.89-1.681.892-1.31.891.094.891-2.518.891 2.419.892.221.89 2.515.892-1.181.891 2.722.891-1.453.891-.097.891-.233.892-1.034.89-3.174.892-.93.891-3.92.891-2.417.891-1.22.892-1.53.89.811.892-.016.891 2.44.891 1.1.891 2.513.891-.426.892.608.89-2.713.892.041 1.782-1.287.891-.417.892 1.932.89.012.892 1.35.891.812.891-.748.891.652.891-.848.892-1.688.89.541.892-.21.891-1.315.891-.066.891-.811.892.69.89.171.892-1.15 1.782-.091.891-.373.891.064.892-.355.89-4.192.892.097.891-.124.891.071.891.54.892-.185.89-.511.892 8.02.891.002 1.782-.254.891-.695.892.47.89.258.892-3.522.891.06.891-.088 1.783.447.89-.585 1.783-.778.891.645.891.248.892.783.89.136 1.783.965.891-.062.891-1.649.891-.732.892-2.087 1.782-1.389.891-.336.891.131.891.405.892.908.89 1.658.892 1.046.891.73.891.42.891-.48.891 1.295.892-.33 3.564-1.856.891-.258.892-1.244.89.205.892.815.891-.138 1.782 1.025.891 1.93.892 1.129.89-.785.892-1.074.891.325 1.782-.302.892-1.757.89-.802.892.993.891-.018.891-.486.891-.132.891-.357.892.314.89-.053.892-.36 2.673.795 2.674.327.891-.34.891.077.891-.043.891-.489.892-.092.89-.228.892.028.891.258.891-.392.891-.129.892.39.89.099.892.345.891-.11.891-.639 2.674-.548.89-.65.892-.126.891-.302.891.212.891.73.892.496.89-.33.892 1.15.891-1.46.891.154.891.645.892-.454.89-.014.892-.428.891-1.45.891 2.33.891.414.891-.352.892-.92.89-1.761 1.783 1.607.891-1.193.891-.668.892-2.084 1.782 3.153.891-1.518.891-1.264.891-.454.891-1.603.892 3.503.89-1.75.892-.295.891 1.11.891-.306.891-.056.892 1.719.89-5.494.892.793.891-1.24.891-4.09.891.348 1.783-4.996.89 1.585.892-5.194.891 1.218.891 3.925.891-.845.892 1.934.89 2.32.892 1.923.891 7.129.891-2.767h.891l.891 2.267.892.919.89-.553.892 2.725.891-1.016.891 4.038.891-.19.892-.55.89-.067.892-2.53 1.782-10.847.891-1.76.891-1.241.892.193.89-.016.892 8.248.891 1.396.891 9.367.891-1.985.892 5.482.89-2.483.892 2.745.891-5.203.891 6.83.891-6.673.891 6.592.892-4.945.89 4.906.892-3.027.891-2.114.891-4.277.891 8.927.892-2.764.89 3.646.892-1.845.891.132.891 1.665.891-3.925.892-9.685.89-112.342.892-8.183.891-2.822.891-4.586.891-2.485.891-.893.892-1.442.89 216.744.892 9.87.891-2.055.891 6.38.891 5.012.892 7.628.89 5.726.892-101.968.891-3.96.891 10.285 1.782 7.292.892-5.899.89-1.488.892-4.086.891-.248 1.782-8.181.892-9.1.89 6.962.892 2.58.891 2.114 1.782 8.396.891 2.66.892 8.163 1.782-4.925.891.751.891-4.729.891-10.498.892-4.201.89-2.907.892-.025.891 5.086.891.373.891.854.891 5.344.892 1.72.89.438.892.29.891-4.669.891-5.47.891 1.223.892 1.682.89-1.564.892-3.476.891-4.92.891-1.142.891 1.89.891-1.395.892-3.602.89 1.568.892 2.29.891 3.846.891.528.891 2.932.892-1.626.89 1.126.892-2.31.891-1.587.891-1.285.891-1.52.892-3.11.89 2.87.892-1.044.891-.085.891.788.891-2.066.891 1.985.892.429.89-3.444.892 1.735.891 2.731.891-2.374.891 2.96.892-3.085.89-.324.892 2.34.891.488.891-5.049.891 5.245.891-.05.892 4.539 1.782 5.737.891-2.305.891 6.771.891-1.69.892 1.44.89-.669.892-1.002.891-3.231.891 2.881.891-1.985.891-1.207.892-2.693.89-.405.892-.143.891 3.126.891-1.36.891.632.892 3.996.89 3.367.892 2.804.891 25.094.891-.922.891 2.94.891.686.892-1.313.89.126.892-2.208.891-48.774.891.933.891-4.105.892-.357.89-.2.892-.588.891.837.891 24.919.891-1.56.891 5.669.892.354.89-.566.892-2.154.891-1.817.891-2.366.891-1.213.892-4.61 1.782-4.815.891.608.891-.235.891 1.018.891.783.892.016.89.691.892 1.647.891-.334.891.2.891-.785.892-.058.89.168.892-.124.891-.951.891-.52.891-.042.892.193.89-.617.892-.076.891-.4.891.105.891.488 2.674-.147.89-.433.892.38.891-.025.891-.157.892.14 2.673.69 1.782-.528 3.565-.565 1.782.337 1.783.456 2.673.396 4.456-1.916.89-.438.892-.64 2.674-.01.89-.269 1.783.134.891-.198.891-.58.891-.427.892-.735.89-.17.892-.053.891-.258.891.366.891.196.892-.072.89.473.892-.021 1.782-.719.891-.882 3.565-.332.891.21.891.862.891.467.892-.4.89.002.892-.625.891-1.538.891.313.891-1.06.891.286.892 1.071.89.507.892-1.377.891 3.296.891-.164 1.783.643.89-1.025.892.313.891 3.326 1.782-.935.892 1.004.89-.541.892.612.891-1.05.891 1.172.891-1.239.891 1.235.892-1.288.89 4.71.892-2.406.891 1.888.891-4.113.891.156.892-.62.89 1.956.892-7.965.891 5.616.891-2.488.891 2.808 1.783.433.89-1.115.892 3.586.891-2.992.891 3.35.891-.35.892 1.192.89 1.983.892 1.249 1.782 1.92.891-1.798.891.979.892-.208.89-2.632.892-1.27.891-.084.891-.482.891.776.892-1.748.89-.442 1.783 1.714.891-.54.891-.09.891.38.892 1.572.89.62.892 1.188.891-.242.891.917.891 1.23.892-.592.89-1.864.892-.147 1.782-1.822.891-1.472.891-1.895.892-1.537.89 1.666.892-.926.891-1.237.891.686.891 1.136.892.4.89 2.207.892-1.103.891-.191.891 1.651.891-.352.891-1.168.892-.763.89-1.796.892-.822.891-.143.891-2.45.891-1.104.892-.06.89.07.892-.763.891.041.891-.75.891 2.012.892.758.89-1.442.892.115.891.627.891 1.182.891 1.773.891-.843.892-1.19.89.667.892-1.658.891-2.84 1.782-11.625.892-3.132 1.782-.318.891-.207.891 1.05.891 3.038.891 5.164.892 2.95.89 1.055.892.58.891.782.891-1.04.891-2.15 1.783-13.873 1.782-16.528.891-14.248 2.674-63.782.89-7.626.892 2.715.891-6.087.891-17.62.891-14.174.892-7.46.89-2.472.892-12.62.891-21.59.891-17.597.891 8.648.891 45.983.892 23.138.89 29.024 1.783 48.205.891 42.806.891 57.171.892 13.085.89 46.27 2.674 107.268.891 23.221.891-3.798.892 6.924.89-9.503.892-18.21.891-15.706 1.782-42.912.892-19.748.89-14.39.892-21.792.891-10.111.891 1.769.891-3.37.891-7.202.892-1.504.89-5.84.892 12.277.891-2.596.891-15.35h0" style="fill:none;stroke:#009e73;stroke-linecap:round;stroke-width:1.5" id="line2d_2"/><path clip-path="url(#p78f0d7e738)" d="m149.973 331.807 36.537-.11 3.565-.131.89-.307.892.022.891-.593.891-.417.891-.921.892-3.534.89-.834.892.176 1.782-4.148.891-1.053.892-.527.89-1.338.892-4.675.891-6.737.891-3.116.891-.834.891-5.838.892-8.734.89.11.892-4.697.891-5.442.891 3.072.891-4.41.892 1.996.89 15.603.892 7.77.891 14.264.891 22.406.891 2.216.891 15.999.892 12.75.89-7.132.892-5.004.891-1.12.891-7.153.891-1.295.892-9.459.89-7.637.892 3.797.891 6.364.891.198.891-4.587 1.783 13.167.89 4.587.892.944.891.022.891-1.01.891 6.715.892-5.113.89-4.191.892-5.026h.891l.891-2.721.891.57.892-3.994.89 1.536.892-.965.891 3.204.891-2.94.891 1.843.891-2.963.892-.11.89-1.668.892.066.891-2.523.891 1.36.891-6.452.892 1.317.89-.176.892-.68 1.782.022.891-2.787.891 1.426.892-.877.89-.198.892 2.107.891 1.448.891.659.891 1.777.892 3.797.89.11.892-1.493.891-.746.891-1.383.891-.768.891-1.492.892-2.7.89.462.892.175.891-.746.891-.176.891-.307.892 2.59.89 1.119.892-.549.891 1.449.891-.176.891.154.891.856.892-1.493.89-7.527.892-1.865.891-.33.891-1.404.891.066.892-.812.89.154.892 13.562.891 2.59.891-.813.891 1.778.891-.33.892.944.89-.877.892-7.22.891-.812 1.782 1.14.892.418.89-.483.892 1.624.891 1.097.891.834.891-.066.892-.35.89-.966.892-.154.891-1.448.891-.834.891-1.164.891-.526.892-1.23.89.747.892-.9 1.782 1.098.891-.396.892.55.89.877.892.505.891 1.031.891.351.891-.483.891 1.449.892-.944 1.782-1.01.891.308.891-.483.891-.044.892-2.809.89.659.892-.352.891-1.119.891-.11.891.834.891 2.151.892 4.17.89.724 1.783 4.477.891-.659.891-1.558.892-3.313.89-2.107.892-.878.891-2.019.891-1.602.891-.11 1.783 2.217.89-.198.892 1.207 1.782 1.383.891 1.295.892-.352.89.571.892.11.891-1.098.891-.043 1.782-.637.892.022.89-1.01.892.045.891-.198 1.782.154.892-1.624.89.175.892 1.405 1.782.35.891-.614.891-.087.892 1.536.89-.351.892-1.537.891-.702.891-.46.891.46.892-.066.89-.855.892-.11.891.592 1.782.417.892-.548.89-.022.892-.659 1.782-.22.891.352.891.505.892-.198.89-1.119.892 1.12.891-.79.891.416.891-.241.892-1.866.89.286.892.987.891-1.075.891 1.778.891-.637.891-2.37.892 2.129 1.782-.812.891.417.891-3.226.891 1.382.892 2.568.89-4.806.892-.198.891.988.891-2.15.891.394.891-7.351.892-2.963.89 3.248.892-3.116.891-1.427.891.79.891-.11.892 5.904.89 3.292.892-.066.891 4.17.891-3.468.891 3.182.891 4.301.892 1.317.89-4.784.892 6.342.891-2.063.891 6.891 1.783-7.242.89-2.414.892 3.073.891-11.741.891 1.163.891-3.336 1.783 8.537.89 3.511.892 8.69.891 6.255.891 4.784.891-.351.892-.944.89-5.925.892-.417.891-9.59.891 4.257.891-3.84.891 4.543.892-.834.89 2.458.892-3.292.891 1.382.891-2.699.891 3.138.892-3.27.89.549.892 1.865 1.782.637.891-4.17.892-4.784.89-95.77.892-7.593.891-5.464.891-1.076.891-3.818.891-.395.892-3.402.89 189.214.892 13.255.891 1.514.891.834.891 6.65.892 4.389.89 6.144.892-91.424.891-9.152 1.782 13.804.891 2.831.892-3.533.89-1.12.892-3.357.891 3.511.891-1.953.891-5.31.892-7.374.89 5.53.892 1.426.891 1.207.891 2.831.891 4.06.891 2.348.892 1.624.89-2.085.892-1.645.891 2.37.891-3.71.891-10.928.892-1.997.89 3.577.892.461.891 4.038.891.285.891-3.928.891 6.693.892.373.89-1.185.892.11.891-3.182.891-7.198.891 6.298.892-1.755.89-3.16.892-6.32.891-3.315.891-1.053.891 1.712.891-1.822.892-2.611.89 4.652 1.783 12.597.891-1.405.891 8.252.892-2.765.89 4.828.892-4.806.891-1.01.891-8.69.891.702.892-6.627.89 3.357.892-4.016.891 3.336.891-2.282.891 1.14.891 1.625.892.724.89-1.624.892 2.919.891 1.69.891-2.393.891 1.778.892-4.301.89.548.892.264.891-3.621.891-6.101.891 9.13.891 2.26.892 7.483.89.79.892 4.455.891 3.555.891 6.43.891-1.953.892 1.734.89-2.656.892 1.427.891-3.358.891 2.502.891-1.712 1.783-5.75.89 1.12.892-.527.891 1.273.891-2.392.891.285.892 3.665.89 1.975.892-.483.891 2.239.891-.505.891 1.91.891.372.892-1.931.89 1.207.892-.066.891-5.618.891.768.891-27.278.892-5.42.89.087.892-2.304.891-1.207.891 2.963.891-1.23.891 50.848.892 11.587.89-1.514.892-.965.891-.11.891-1.273.891-.395.892-25.544.89-7.33.892-.154.891 1.383.891.175.891.44.891-.769.892-.987.89-.68.892.745.891-1.163 1.782-.044.892.988.89.527.892.658 1.782-1.47.891-.593.892-.307 1.782-1.405.891-.746.891-.153.891.943.891.154.892-.066.89-.33.892.067.891.46.891.22.891-.33 1.783.55.89.526.892-.307.891-.724.891-.066 1.783-.68 1.782-.527.891.33.891.811.891-.11.892.264.89.504.892.154 1.782 1.01.891-.22.891.198.892.022.89-.944.892-.198 1.782-2.106.891-.395 1.783-1.427.89.57.892-.24 1.782.965 1.783-1.053.89-.154.892-.724 1.782-1.098.891-.987.892.175.89.834.892.176.891-.132.891.637.891-.417.891 1.031.892.702.89-.263.892.702.891 1.141.891.79.891-.24.892-1.098.89-1.514.892.417.891-2.48.891 1.536.891-1.229.891 1.097.892.57.89 2.546.892-2.874.891 3.313.891-4.718.891-.022.892 1.141.89.066.892-1.624.891 4.258.891-1.515.891 2.414.892.856.89-1.185.892 1.032.891.329 1.782 1.382.891.812.892-.877.89 3.27.892-2.788.891.132.891-4.148.891-.307.892-.439.89 1.888.892-6.65.891 4.455.891-.132.891 3.358.891.22.892-.22.89-1.427.892 5.114.891-2.765.891.658.891-2.348.892.373.89.834.892.241.891-1.36.891 1.075.891-.549.891 2.546.892-.022 1.782 1.25 1.782-.13.891 1.36.892-.395.89.153.892-1.821.891.439 1.782.175 2.674-2.523.89 2.128.892-1.492.891 1.251.891.966.892.768.89-.615.892 2.15.891-1.491.891-.154.891-3.16.891-1.975.892-2.436.89.285.892-2.304.891-.176.891 1.493.891 2.94.892.264.89 2.436 1.783 1.711.891.351.891-.79.891-1.711.892.877.89-1.997.892-1.14.891-.79.891-2.13 1.783-1.865.89-2.809.892-.153 1.782-2.063.891 2.04.892.878.89.022.892 2.941.891.198.891 1.667.891 2.063.891-.044.892-1.053.89.373.892-3.094.891-1.558 1.782-6.957.892-1.712.89-1.163.892-1.36.891 1.25.891-1.01.891.79.891 1.91.892-.746.89 1.756.892 2.984.891-4.016.891-.526.891-3.929.892-8.273 1.782-12.728 1.782-25.062.891-22.977 1.783-50.43.89-8.515.892-5.662.891-9.964 1.782-48.148.892 3.358.89 6.913.892 2.523.891-7.549.891-9.327.891 30.22.891 70.62.892 19.619.89 28.836.892 6.1.891 10.36 1.782 91.555.892 1.91.89 45.47.892 37.659.891 32.61.891 43.124.891 10.907.891-.659.892-6.627.89-12.794.892-22.056.891-12.618.891-21.902.891-10.687.892-20.322.89 4.784.892-13.255.891-10.073.891 6.013.891-5.31.891-14.177.892-4.148.89-19.07.892 1.382.891-1.25.891-18.698h0" style="fill:none;stroke:#d55e00;stroke-linecap:round;stroke-width:1.5" id="line2d_3"/><path clip-path="url(#p78f0d7e738)" d="M149.973 331.807h44.557l.892-2.235h1.782l.891-1.118h.891l1.783-6.706.89-2.235.892-1.118.891-3.353h.891l.891-5.589.891-2.235.892-1.118.89 8.942.892-4.471.891-11.177.891-8.942.891 7.824 1.783 17.883.89-13.412.892 4.47.891 30.179.891 22.354.891-5.588.892-2.236.89-5.588.892 14.53.891 3.353.891-16.766.891-12.294.892 4.47h1.782l.891-5.588.891-4.471.891 2.235h.892l.89-1.117.892 2.235.891 4.471.891 2.235.891 6.707.891-2.236h.892l.89 5.589.892-3.353.891-1.118.891 1.118.891-2.236.892 4.471h.89l.892-10.06.891-4.47.891-3.353.891-4.471.891-2.236.892-3.353h.89l1.783 16.766 1.782 4.47.892 1.119h1.782l.891-4.471.891-3.353 1.782-2.236.892-3.353h1.782l.891-3.353h2.674l.89 4.47h1.783l.891 6.707h.891l.891-1.118h.892l.89-3.353h1.783l.891-3.353h.891l.892 2.235h.89l.892 2.236h1.782l.891-2.236.891 1.118.892-2.235.89-1.118.892-2.235h2.673l.892-1.118.89 1.118 1.783 4.47h2.673l.892-1.117.89 1.117.892-2.235.891-3.353h1.782l.892 6.706.89 1.118.892-1.118.891 2.236.891 4.47h1.783l1.782-4.47.891-1.118 1.782-4.471h1.783l.89-3.353.892 5.588.891 2.236.891 1.118h2.674l.89 1.117.892-3.353.891-2.235.891 1.117h2.674l.89 1.118h.892l.891 1.118 1.783-2.236h1.782l.891-2.235h.891l.891 1.118.891-1.118.892 1.118h1.782l.891 2.235 1.782-4.47 1.783 2.235h1.782l.891-2.236.891 4.471.891-2.235.892 1.117.89-1.117h1.783l.891 2.235.891-5.588.892 7.824.89-1.118h2.674l.891-2.236.891 6.707.892-6.707.89-1.117h2.674l.891-1.118.892-3.353.89 3.353.892 2.235h2.673l.891 5.589h1.783l.891-1.118h2.673l.892-5.588.89-1.118.892-6.706.891-10.06.891-2.235H379l.89 2.235.892-4.47.891 10.059.891 14.53.891-1.118 1.783-6.706h.89l.892 12.295.891-7.824.891 1.118.891 8.941 1.783 13.413.89-4.47.892-11.178.891 2.235 1.782-22.354 1.783-6.706.89-2.236.892 7.824.891-1.117.891 7.824.892 5.588h1.782l.891-1.117.891-6.707.891 10.06.891-17.884.892-2.235h1.782l.891 11.177.891-5.589.891-21.236.892 25.707 1.782-11.177h.891l.891-1.118.891 13.413.891 20.119.892-1.118.89 23.472.892-11.177h.891l.891-2.235.891-3.354.892-12.294.89-26.826.892-42.473.891 26.825h.891l.891 3.353.891-6.706.892 12.295.89 15.648.892 43.591.891 2.236h.891l.891-6.707.892 8.942.89-8.942.892 22.355.891-25.708.891-12.295h.891l.891-11.177.892-1.118.89-20.119.892-25.707.891 27.943h1.782l.892 11.177h.89l.892 31.296.891-1.118.891-19h2.674l.89-16.767.892-3.353.891 2.236.891-13.413.891-11.177h.892l.89 15.648.892 22.354.891-6.706.891 10.06.891 15.647.892 22.355h.89l.892 12.295.891-19.001.891 6.706.891 1.118.891 5.588.892-11.177h.89l.892-59.24.891 30.18.891-1.118.891-8.942.892-22.354.89-5.59h.892l.891 69.3.891-14.53.891-26.826h.891l.892 24.59.89 11.177h.892l.891-52.533.891-12.295.891 45.827.892 4.47.89-7.824.892-13.412h.891l.891 35.767h.891l.891-23.472.892 1.117.89-2.235.892 15.648.891-7.824.891-22.354.891 16.765.892 1.118.89-14.53.892-4.471.891-7.824.891 15.648.891-8.942.891-13.412.892-3.353.89 22.354.892-1.118h.891l.891-7.824.891 15.648.892 11.177h.89l.892-23.472.891 15.648h1.782l.892-12.295.89-10.059.892 2.235.891 24.59.891-10.06h1.782l.892 8.942.89 4.471.892 1.118.891-17.883.891-2.236h.891l.892-10.06.89 15.649.892-3.353.891 3.353.891-5.589h1.782l.892 20.119.89-21.237.892 2.236 1.782 6.706v10.06l.891 6.706.892-1.118.89-10.06.892 14.531.891 3.353.891-13.412.891-2.236.891-4.47.892-3.354h1.782l1.782 2.236.891 8.941h.892l.89 10.06h.892l.891-11.177.891-6.707.891 4.471.891-2.235.892-4.471.89-6.706h.892l.891 7.824.891 4.47.891-6.706.892-1.118.89 12.295.892 2.236h.891l.891-6.707.891-1.117.891 8.941h.892l.89-5.588.892-1.118h.891l.891 6.706.891-1.117.892-4.471.89-3.353.892-2.236h1.782l.891-4.47h.891l.892-2.236h5.347l.89 1.118.892 3.353h3.565l.89-3.353h.892l.891-2.236h3.565l.89 6.707.892 1.117h4.456l.89-3.353.892-1.118h.891l.891-4.47h4.456l.891-1.118.891 8.942h4.456l.891 1.117.891-5.588h3.565l1.782-2.236.892 2.236h3.564l.891 2.235.891 1.118.892-7.824h1.782l.891-23.472 1.782-4.471.892-5.589.89 7.824H641l.891 39.12 1.782 2.236.892 11.177.89 3.353h1.783l.891-19.001.891 1.118.892-5.589.89-10.06.892-5.588h1.782l.891 3.353.891 1.118.892 11.177.89 6.706.892 3.354h1.782l.891 8.941.892-3.353.89-6.706.892-3.353.891-2.236h1.782l.892-14.53.89-1.118.892-4.47.891 4.47.891-5.588h1.782l.892 13.412.89-2.235.892 6.706.891-1.118.891 5.589h1.783l.89-17.883.892 15.648.891 1.117.891-11.177.891 1.118h1.783l.89 5.588.892-7.824.891-3.353.891 12.295h2.674l.89 14.53.892-4.47.891 2.235 1.782-4.47h1.783l.89-10.06.892 3.353.891-3.353.891 3.353.892-6.706h1.782l.891 4.47.891-5.588.891 6.706.891-6.706.892 17.883h1.782l.891-13.412.891 7.824.891-3.353h.892l.89-10.06h1.783l.891 15.648.891-1.118h.891l.892 4.471.89 1.118h1.783l.891-13.413.891-5.588.892-1.118h.89l.892-2.235h1.782l.891 10.06.891 5.588.892-10.06.89-2.235.892-4.471h1.782l1.783-8.942.89 17.884.892-3.353.891 10.059h1.782l.892-8.942.89 1.118.892-13.413.891 6.707.891-1.118h1.782l.892 4.47.89-1.117.892 11.177 1.782-25.707h1.783l.89 13.412.892-1.117.891-16.766.891 6.706.891 8.942h1.783l.89-12.295h.892l.891 5.589.891-12.295.891 4.47.892-45.826.89-13.412.892 4.47.891-13.412.891-23.472.891 3.353.891-21.237.892 88.3.89 20.119.892-4.47.891-6.707.891 17.883h.891l.892-15.648.89-99.477.892-71.534.891-25.707.891 42.473.891 2.236.891-23.472.892 30.178.89 40.238.892 79.358.891 54.768.891-24.59.891 24.59.892 64.827.89 34.65.892 70.416.891 23.472.891-29.06.891 32.413.891 17.884.892 6.706.89-15.648.892-55.886.891-25.708.891 34.65.891-22.355.892-17.883.89-42.473h.892l.891 13.412.891-10.06.891-32.413h.891l.892-17.884.89 24.59.892-19 .891-2.236.891-4.471h0" style="fill:none;stroke:#0072b2;stroke-linecap:round;stroke-width:1.5" id="line2d_4"/><path clip-path="url(#p78f0d7e738)" d="M117 331.807h725.4" style="fill:none;stroke:red;stroke-dasharray:1.5,2.475;stroke-dashoffset:0;stroke-width:1.5" id="line2d_5"/><path d="M117 576.72V77.76" style="fill:none;stroke:#d3d3d3;stroke-linecap:square;stroke-linejoin:miter;stroke-width:1.25" id="patch_3"/><path d="M117 576.72h725.4" style="fill:none;stroke:#d3d3d3;stroke-linecap:square;stroke-linejoin:miter;stroke-width:1.25" id="patch_4"/><g id="matplotlib.axis_1"><g id="xtick_1"><g style="fill:#696969" transform="matrix(.16 0 0 -.16 113.579 598.378)" id="text_1"><defs><path d="M9.813 72.906h9.859V5.078q0-13.187-5-19.14-5-5.954-16.094-5.954h-3.75v8.297h3.078q6.531 0 9.219 3.672Q9.813-4.39 9.813 5.078z" id="DejaVuSans-74"/><path d="M34.281 27.484q-10.89 0-15.093-2.484-4.204-2.484-4.204-8.5 0-4.781 3.157-7.594 3.156-2.797 8.562-2.797 7.485 0 12 5.297 4.516 5.297 4.516 14.078v2zm17.922 3.72V0H43.22v8.297Q40.14 3.328 35.547.953q-4.594-2.375-11.234-2.375-8.391 0-13.36 4.719Q6 8.016 6 15.922q0 9.219 6.172 13.906 6.187 4.688 18.437 4.688h12.61v.89q0 6.203-4.078 9.594-4.078 3.39-11.453 3.39-4.688 0-9.141-1.124-4.438-1.125-8.531-3.375v8.312q4.921 1.906 9.562 2.844 4.64.953 9.031.953 11.875 0 17.735-6.156 5.86-6.14 5.86-18.64z" id="DejaVuSans-97"/><path d="M54.89 33.016V0h-8.984v32.719q0 7.765-3.031 11.61-3.031 3.858-9.078 3.858-7.281 0-11.484-4.64-4.204-4.625-4.204-12.64V0H9.08v54.688h9.03v-8.5q3.235 4.937 7.594 7.374Q30.078 56 35.797 56q9.422 0 14.25-5.828 4.844-5.828 4.844-17.156z" id="DejaVuSans-110"/></defs><use xlink:href="#DejaVuSans-74"/><use x="29.492" xlink:href="#DejaVuSans-97"/><use x="90.771" xlink:href="#DejaVuSans-110"/></g></g><g id="xtick_2"><g style="fill:#696969" transform="matrix(.16 0 0 -.16 193.167 598.378)" id="text_2"><defs><path d="M34.188 63.188 20.797 26.906h26.812zm-5.579 9.718h11.188L67.578 0h-10.25l-6.64 18.703h-32.86L11.188 0H.78z" id="DejaVuSans-65"/><path d="M18.11 8.203v-29H9.077v75.484h9.031v-8.296q2.844 4.875 7.157 7.234Q29.594 56 35.594 56q9.968 0 16.187-7.906 6.235-7.907 6.235-20.797T51.78 6.484q-6.218-7.906-16.187-7.906-6 0-10.328 2.375-4.313 2.375-7.157 7.25zm30.578 19.094q0 9.906-4.079 15.547-4.078 5.64-11.203 5.64-7.14 0-11.218-5.64-4.079-5.64-4.079-15.547 0-9.906 4.078-15.547 4.079-5.64 11.22-5.64 7.124 0 11.202 5.64t4.078 15.547z" id="DejaVuSans-112"/><path d="M41.11 46.297q-1.516.875-3.297 1.281Q36.03 48 33.89 48q-7.625 0-11.703-4.953-4.079-4.953-4.079-14.234V0H9.08v54.688h9.03v-8.5q2.844 4.984 7.375 7.39Q30.031 56 36.531 56q.922 0 2.047-.125 1.125-.11 2.484-.36z" id="DejaVuSans-114"/></defs><use xlink:href="#DejaVuSans-65"/><use x="68.408" xlink:href="#DejaVuSans-112"/><use x="131.885" xlink:href="#DejaVuSans-114"/></g></g><g id="xtick_3"><g style="fill:#696969" transform="matrix(.16 0 0 -.16 278.45 598.378)" id="text_3"><defs><path d="M8.5 21.578v33.11h8.984V21.922q0-7.766 3.016-11.656 3.031-3.875 9.094-3.875 7.265 0 11.484 4.64 4.234 4.64 4.234 12.656v31h8.985V0h-8.984v8.406Q42.047 3.422 37.718 1q-4.313-2.422-10.032-2.422-9.421 0-14.312 5.86Q8.5 10.296 8.5 21.578zM31.11 56z" id="DejaVuSans-117"/><path d="M9.422 75.984h8.984V0H9.422z" id="DejaVuSans-108"/></defs><use xlink:href="#DejaVuSans-74"/><use x="29.492" xlink:href="#DejaVuSans-117"/><use x="92.871" xlink:href="#DejaVuSans-108"/></g></g><g id="xtick_4"><g style="fill:#696969" transform="matrix(.16 0 0 -.16 356.255 598.378)" id="text_4"><defs><path d="M39.406 66.219q-10.75 0-17.078-8.016-6.312-8-6.312-21.828 0-13.766 6.312-21.781 6.328-8 17.078-8 10.735 0 17.016 8 6.281 8.015 6.281 21.781 0 13.828-6.281 21.828-6.281 8.016-17.016 8.016zm0 8q15.328 0 24.5-10.281 9.188-10.282 9.188-27.563 0-17.234-9.188-27.516-9.172-10.28-24.5-10.28-15.375 0-24.593 10.25-9.204 10.265-9.204 27.546t9.204 27.563q9.218 10.28 24.593 10.28z" id="DejaVuSans-79"/><path d="M48.781 52.594v-8.407q-3.812 2.11-7.64 3.157-3.828 1.047-7.735 1.047-8.75 0-13.593-5.547-4.829-5.532-4.829-15.547 0-10.016 4.829-15.563 4.843-5.53 13.593-5.53 3.907 0 7.735 1.046 3.828 1.047 7.64 3.156V2.094Q45.016.344 40.984-.531q-4.015-.89-8.562-.89-12.36 0-19.64 7.765-7.266 7.765-7.266 20.953 0 13.375 7.343 21.031Q20.22 56 33.016 56q4.14 0 8.093-.86 3.953-.843 7.672-2.546z" id="DejaVuSans-99"/><path d="M18.313 70.219V54.688h18.5v-6.985h-18.5V18.016q0-6.688 1.828-8.594 1.828-1.906 7.453-1.906h9.218V0h-9.218q-10.407 0-14.36 3.875-3.953 3.89-3.953 14.14v29.688H2.687v6.984h6.594V70.22z" id="DejaVuSans-116"/></defs><use xlink:href="#DejaVuSans-79"/><use x="78.711" xlink:href="#DejaVuSans-99"/><use x="133.691" xlink:href="#DejaVuSans-116"/></g></g><g id="xtick_5"><g style="fill:#696969" transform="matrix(.16 0 0 -.16 439.742 598.378)" id="text_5"><use xlink:href="#DejaVuSans-74"/><use x="29.492" xlink:href="#DejaVuSans-97"/><use x="90.771" xlink:href="#DejaVuSans-110"/></g></g><g id="xtick_6"><g style="fill:#696969" transform="matrix(.16 0 0 -.16 518.438 598.378)" id="text_6"><use xlink:href="#DejaVuSans-65"/><use x="68.408" xlink:href="#DejaVuSans-112"/><use x="131.885" xlink:href="#DejaVuSans-114"/></g></g><g id="xtick_7"><g style="fill:#696969" transform="matrix(.16 0 0 -.16 603.72 598.378)" id="text_7"><use xlink:href="#DejaVuSans-74"/><use x="29.492" xlink:href="#DejaVuSans-117"/><use x="92.871" xlink:href="#DejaVuSans-108"/></g></g><g id="xtick_8"><g style="fill:#696969" transform="matrix(.16 0 0 -.16 681.527 598.378)" id="text_8"><use xlink:href="#DejaVuSans-79"/><use x="78.711" xlink:href="#DejaVuSans-99"/><use x="133.691" xlink:href="#DejaVuSans-116"/></g></g><g id="xtick_9"><g style="fill:#696969" transform="matrix(.16 0 0 -.16 765.013 598.378)" id="text_9"><use xlink:href="#DejaVuSans-74"/><use x="29.492" xlink:href="#DejaVuSans-97"/><use x="90.771" xlink:href="#DejaVuSans-110"/></g></g></g><g id="matplotlib.axis_2"><g id="ytick_1"><g style="fill:#696969" transform="matrix(.16 0 0 -.16 63.553 552.69)" id="text_10"><defs><path d="M10.594 35.5h62.593v-8.297H10.594z" id="DejaVuSans-8722"/><path d="M12.406 8.297h16.11v55.625l-17.532-3.516v8.985l17.438 3.515h9.86V8.296H54.39V0H12.406z" id="DejaVuSans-49"/><path d="M10.797 72.906h38.719v-8.312H19.828v-17.86q2.14.735 4.281 1.094 2.157.36 4.313.36 12.203 0 19.328-6.688 7.14-6.688 7.14-18.11 0-11.765-7.328-18.296-7.328-6.516-20.656-6.516-4.593 0-9.36.781-4.75.782-9.827 2.344v9.922q4.39-2.39 9.078-3.563 4.687-1.171 9.906-1.171 8.453 0 13.375 4.437 4.938 4.438 4.938 12.063 0 7.609-4.938 12.047-4.922 4.453-13.375 4.453-3.953 0-7.89-.875-3.922-.875-8.016-2.735z" id="DejaVuSans-53"/><path d="M31.781 66.406q-7.61 0-11.453-7.5Q16.5 51.422 16.5 36.375q0-14.984 3.828-22.484 3.844-7.5 11.453-7.5 7.672 0 11.5 7.5 3.844 7.5 3.844 22.484 0 15.047-3.844 22.531-3.828 7.5-11.5 7.5zm0 7.813q12.266 0 18.735-9.703 6.468-9.688 6.468-28.141 0-18.406-6.468-28.11-6.47-9.687-18.735-9.687-12.25 0-18.718 9.688-6.47 9.703-6.47 28.109 0 18.453 6.47 28.14Q19.53 74.22 31.78 74.22z" id="DejaVuSans-48"/></defs><use xlink:href="#DejaVuSans-8722"/><use x="83.789" xlink:href="#DejaVuSans-49"/><use x="147.412" xlink:href="#DejaVuSans-53"/><use x="211.035" xlink:href="#DejaVuSans-48"/></g></g><g id="ytick_2"><g style="fill:#696969" transform="matrix(.16 0 0 -.16 63.553 481.09)" id="text_11"><use xlink:href="#DejaVuSans-8722"/><use x="83.789" xlink:href="#DejaVuSans-49"/><use x="147.412" xlink:href="#DejaVuSans-48"/><use x="211.035" xlink:href="#DejaVuSans-48"/></g></g><g id="ytick_3"><g style="fill:#696969" transform="matrix(.16 0 0 -.16 73.733 409.488)" id="text_12"><use xlink:href="#DejaVuSans-8722"/><use x="83.789" xlink:href="#DejaVuSans-53"/><use x="147.412" xlink:href="#DejaVuSans-48"/></g></g><g id="ytick_4"><use xlink:href="#DejaVuSans-48" style="fill:#696969" transform="matrix(.16 0 0 -.16 97.32 337.886)" id="text_13"/></g><g id="ytick_5"><g style="fill:#696969" transform="matrix(.16 0 0 -.16 87.14 266.285)" id="text_14"><use xlink:href="#DejaVuSans-53"/><use x="63.623" xlink:href="#DejaVuSans-48"/></g></g><g id="ytick_6"><g style="fill:#696969" transform="matrix(.16 0 0 -.16 76.96 194.683)" id="text_15"><use xlink:href="#DejaVuSans-49"/><use x="63.623" xlink:href="#DejaVuSans-48"/><use x="127.246" xlink:href="#DejaVuSans-48"/></g></g><g id="ytick_7"><g style="fill:#696969" transform="matrix(.16 0 0 -.16 76.96 123.082)" id="text_16"><use xlink:href="#DejaVuSans-49"/><use x="63.623" xlink:href="#DejaVuSans-53"/><use x="127.246" xlink:href="#DejaVuSans-48"/></g></g><g style="fill:#696969" transform="matrix(0 -.2 -.2 0 55.393 379.813)" id="text_17"><defs><path d="M51.125 44H36.922l-4.11-16.313h14.313zm-7.328 27.781-5.078-20.265h14.265L58.11 71.78h7.813L60.89 51.516h15.234V44h-17.14l-4-16.313h15.53V20.22H53.079L48 0h-7.813l5.032 20.219H30.906L25.875 0h-7.86l5.079 20.219H7.719v7.468h17.187L29 44H13.281v7.516h17.625l4.985 20.265z" id="DejaVuSans-35"/><path d="M30.61 48.39q-7.22 0-11.422-5.64-4.204-5.64-4.204-15.453 0-9.813 4.172-15.453 4.188-5.64 11.453-5.64 7.188 0 11.375 5.655 4.203 5.672 4.203 15.438 0 9.719-4.203 15.406-4.187 5.688-11.375 5.688zm0 7.61q11.718 0 18.406-7.625 6.703-7.61 6.703-21.078 0-13.422-6.703-21.078-6.688-7.64-18.407-7.64-11.765 0-18.437 7.64-6.656 7.656-6.656 21.078 0 13.469 6.656 21.078Q18.844 56 30.609 56z" id="DejaVuSans-111"/><path d="M37.11 75.984V68.5h-8.594q-4.828 0-6.72-1.953-1.874-1.953-1.874-7.031v-4.828h14.797v-6.985H19.922V0H10.89v47.703H2.297v6.984h8.594V58.5q0 9.125 4.25 13.297 4.25 4.187 13.468 4.187z" id="DejaVuSans-102"/><path d="M44.281 53.078v-8.5q-3.797 1.953-7.906 2.922-4.094.984-8.5.984-6.688 0-10.031-2.047-3.344-2.046-3.344-6.156 0-3.125 2.39-4.906 2.391-1.781 9.626-3.39l3.078-.688q9.562-2.047 13.593-5.781 4.032-3.735 4.032-10.422 0-7.625-6.032-12.078-6.03-4.438-16.578-4.438-4.39 0-9.156.86Q10.688.296 5.422 2v9.281q4.984-2.594 9.812-3.89 4.829-1.282 9.579-1.282 6.343 0 9.75 2.172 3.421 2.172 3.421 6.125 0 3.656-2.468 5.61-2.453 1.953-10.813 3.765l-3.125.735q-8.344 1.75-12.062 5.39-3.704 3.64-3.704 9.985 0 7.718 5.47 11.906Q16.75 56 26.811 56q4.97 0 9.36-.734 4.406-.72 8.11-2.188z" id="DejaVuSans-115"/><path d="M56.203 29.594v-4.39H14.891q.593-9.282 5.593-14.142 5-4.859 13.938-4.859 5.172 0 10.031 1.266 4.86 1.265 9.656 3.812v-8.5Q49.266.734 44.187-.344 39.11-1.422 33.892-1.422q-13.094 0-20.735 7.61-7.64 7.625-7.64 20.625 0 13.421 7.25 21.296Q20.016 56 32.328 56q11.031 0 17.453-7.11 6.422-7.093 6.422-19.296zm-8.984 2.64q-.094 7.36-4.125 11.75-4.032 4.407-10.672 4.407-7.516 0-12.031-4.25-4.516-4.25-5.203-11.97z" id="DejaVuSans-101"/></defs><use xlink:href="#DejaVuSans-35"/><use x="83.789" xlink:href="#DejaVuSans-32"/><use x="115.576" xlink:href="#DejaVuSans-111"/><use x="176.758" xlink:href="#DejaVuSans-102"/><use x="211.963" xlink:href="#DejaVuSans-32"/><use x="243.75" xlink:href="#DejaVuSans-99"/><use x="298.73" xlink:href="#DejaVuSans-97"/><use x="360.01" xlink:href="#DejaVuSans-115"/><use x="412.109" xlink:href="#DejaVuSans-101"/><use x="473.633" xlink:href="#DejaVuSans-115"/></g></g><g style="fill:#696969" transform="matrix(.24 0 0 -.24 268.746 71.76)" id="text_18"><defs><path d="M9.813 72.906h13.28l32.329-60.984v60.984h9.562V0h-13.28L19.39 60.984V0H9.813z" id="DejaVuSans-78"/><path d="M4.203 54.688h8.985l11.234-42.672 11.172 42.672h10.593l11.235-42.672 11.187 42.672h8.985L63.28 0H52.688L40.922 44.828 29.109 0H18.5z" id="DejaVuSans-119"/><path d="M64.406 67.281v-10.39q-4.984 4.64-10.625 6.922-5.64 2.296-11.984 2.296-12.5 0-19.14-7.64-6.641-7.64-6.641-22.094 0-14.406 6.64-22.047 6.64-7.64 19.14-7.64 6.345 0 11.985 2.296 5.64 2.297 10.625 6.938V5.609Q59.234 2.094 53.437.33q-5.78-1.75-12.218-1.75-16.563 0-26.094 10.124-9.516 10.14-9.516 27.672 0 17.578 9.516 27.703 9.531 10.14 26.094 10.14 6.531 0 12.312-1.734 5.797-1.734 10.875-5.203z" id="DejaVuSans-67"/><path d="M3.328 72.906h9.953L28.61 11.281l15.282 61.625h11.093l15.328-61.625 15.282 61.625h10.015L77.297 0H64.89L49.516 63.281 33.984 0H21.578z" id="DejaVuSans-87"/><path d="M9.078 75.984h9.031V31.11l26.813 23.578H56.39l-29-25.578L57.625 0H45.906L18.11 26.703V0H9.08z" id="DejaVuSans-107"/><path d="M4.89 31.39h26.313v-8H4.891z" id="DejaVuSans-45"/><path d="M2.984 54.688H12.5L29.594 8.797l17.093 45.89h9.516L35.687 0H23.485z" id="DejaVuSans-118"/><path d="M11.719 12.406h10.297V0H11.719zm0 39.297h10.297v-12.39H11.719z" id="DejaVuSans-58"/><path d="M8.203 72.906h46.875v-4.203L28.61 0H18.312L43.22 64.594H8.203z" id="DejaVuSans-55"/><path d="M45.406 27.984q0 9.766-4.031 15.125-4.016 5.375-11.297 5.375-7.219 0-11.25-5.375-4.031-5.359-4.031-15.125 0-9.718 4.031-15.093t11.25-5.375q7.281 0 11.297 5.375 4.031 5.375 4.031 15.093zm8.985-21.203q0-13.953-6.203-20.765Q42-20.797 29.203-20.797q-4.734 0-8.937.703-4.203.703-8.157 2.172v8.735q3.954-2.141 7.813-3.157 3.86-1.031 7.86-1.031 8.843 0 13.234 4.61 4.39 4.609 4.39 13.937v4.453q-2.781-4.844-7.125-7.234Q33.938 0 27.875 0 17.828 0 11.672 7.656q-6.156 7.672-6.156 20.328 0 12.688 6.156 20.344Q17.828 56 27.875 56q6.063 0 10.406-2.39 4.344-2.391 7.125-7.22v8.297h8.985z" id="DejaVuSans-103"/></defs><use xlink:href="#DejaVuSans-78"/><use x="74.805" xlink:href="#DejaVuSans-101"/><use x="136.328" xlink:href="#DejaVuSans-119"/><use x="218.115" xlink:href="#DejaVuSans-32"/><use x="249.902" xlink:href="#DejaVuSans-67"/><use x="319.727" xlink:href="#DejaVuSans-97"/><use x="381.006" xlink:href="#DejaVuSans-115"/><use x="433.105" xlink:href="#DejaVuSans-101"/><use x="494.629" xlink:href="#DejaVuSans-115"/><use x="546.729" xlink:href="#DejaVuSans-32"/><use x="578.516" xlink:href="#DejaVuSans-87"/><use x="671.518" xlink:href="#DejaVuSans-101"/><use x="733.041" xlink:href="#DejaVuSans-101"/><use x="794.564" xlink:href="#DejaVuSans-107"/><use x="852.475" xlink:href="#DejaVuSans-45"/><use x="890.434" xlink:href="#DejaVuSans-111"/><use x="951.615" xlink:href="#DejaVuSans-118"/><use x="1010.795" xlink:href="#DejaVuSans-101"/><use x="1072.318" xlink:href="#DejaVuSans-114"/><use x="1107.057" xlink:href="#DejaVuSans-45"/><use x="1139.141" xlink:href="#DejaVuSans-87"/><use x="1232.143" xlink:href="#DejaVuSans-101"/><use x="1293.666" xlink:href="#DejaVuSans-101"/><use x="1355.189" xlink:href="#DejaVuSans-107"/><use x="1413.1" xlink:href="#DejaVuSans-58"/><use x="1446.791" xlink:href="#DejaVuSans-32"/><use x="1478.578" xlink:href="#DejaVuSans-55"/><use x="1542.201" xlink:href="#DejaVuSans-32"/><use x="1573.988" xlink:href="#DejaVuSans-97"/><use x="1635.268" xlink:href="#DejaVuSans-118"/><use x="1694.447" xlink:href="#DejaVuSans-103"/></g><g id="legend_1"><path d="M128.2 184.5h136.45q3.2 0 3.2-3.2V88.96q0-3.2-3.2-3.2H128.2q-3.2 0-3.2 3.2v92.34q0 3.2 3.2 3.2z" style="fill:none;opacity:.8;stroke:#ccc;stroke-linejoin:miter" id="patch_5"/><path d="M131.4 98.718h32" style="fill:none;stroke:#000;stroke-linecap:round;stroke-width:1.5" id="line2d_6"/><g style="fill:#696969" transform="matrix(.16 0 0 -.16 176.2 104.317)" id="text_19"><defs><path d="M8.688 72.906h9.921V28.61q0-11.718 4.235-16.875 4.25-5.14 13.781-5.14 9.469 0 13.719 5.14 4.25 5.157 4.25 16.875v44.297H64.5V27.391q0-14.25-7.063-21.532-7.046-7.28-20.812-7.28-13.828 0-20.89 7.28-7.047 7.282-7.047 21.532z" id="DejaVuSans-85"/><path d="M53.516 70.516V60.89q-5.61 2.687-10.594 4-4.984 1.328-9.625 1.328-8.047 0-12.422-3.125t-4.375-8.89q0-4.845 2.906-7.313 2.907-2.453 11.016-3.97l5.953-1.218q11.031-2.11 16.281-7.406 5.25-5.297 5.25-14.172 0-10.61-7.11-16.078-7.093-5.469-20.812-5.469-5.172 0-11.015 1.172Q13.14.922 6.89 3.219v10.156q6-3.36 11.765-5.078 5.766-1.703 11.328-1.703 8.438 0 13.032 3.312 4.593 3.328 4.593 9.485 0 5.359-3.297 8.39-3.296 3.032-10.812 4.547L27.484 33.5q-11.03 2.188-15.968 6.875-4.922 4.688-4.922 13.047 0 9.672 6.812 15.234 6.813 5.563 18.766 5.563 5.14 0 10.453-.938 5.328-.922 10.89-2.765z" id="DejaVuSans-83"/></defs><use xlink:href="#DejaVuSans-85"/><use x="73.193" xlink:href="#DejaVuSans-83"/></g><path d="M131.4 122.203h32" style="fill:none;stroke:#009e73;stroke-linecap:round;stroke-width:1.5" id="line2d_8"/><g style="fill:#696969" transform="matrix(.16 0 0 -.16 176.2 127.802)" id="text_20"><use xlink:href="#DejaVuSans-78"/><use x="74.805" xlink:href="#DejaVuSans-74"/></g><path d="M131.4 145.688h32" style="fill:none;stroke:#d55e00;stroke-linecap:round;stroke-width:1.5" id="line2d_10"/><g style="fill:#696969" transform="matrix(.16 0 0 -.16 176.2 151.287)" id="text_21"><defs><path d="M19.672 34.813V8.108H35.5q7.953 0 11.781 3.297 3.844 3.297 3.844 10.078 0 6.844-3.844 10.078-3.828 3.25-11.781 3.25zm0 29.984V42.828h14.61q7.218 0 10.75 2.703 3.546 2.719 3.546 8.282 0 5.515-3.547 8.25-3.531 2.734-10.75 2.734zm-9.86 8.11h25.204q11.28 0 17.375-4.688Q58.5 63.53 58.5 54.89q0-6.703-3.125-10.657-3.125-3.953-9.188-4.922 7.282-1.562 11.313-6.53 4.031-4.954 4.031-12.376 0-9.765-6.64-15.093Q48.25 0 35.984 0H9.812z" id="DejaVuSans-66"/></defs><use xlink:href="#DejaVuSans-66"/><use x="68.604" xlink:href="#DejaVuSans-101"/><use x="130.127" xlink:href="#DejaVuSans-114"/><use x="169.49" xlink:href="#DejaVuSans-103"/><use x="232.967" xlink:href="#DejaVuSans-101"/><use x="294.49" xlink:href="#DejaVuSans-110"/></g><path d="M131.4 169.173h32" style="fill:none;stroke:#0072b2;stroke-linecap:round;stroke-width:1.5" id="line2d_12"/><g style="fill:#696969" transform="matrix(.16 0 0 -.16 176.2 174.773)" id="text_22"><defs><path d="M44.39 34.188q3.172-1.079 6.172-4.594 3-3.516 6.032-9.672L66.609 0H56l-9.313 18.703q-3.624 7.328-7.015 9.719-3.39 2.39-9.25 2.39h-10.75V0h-9.86v72.906h22.266q12.5 0 18.656-5.234 6.157-5.219 6.157-15.766 0-6.89-3.203-11.437-3.204-4.532-9.297-6.282zM19.673 64.797V38.922h12.406q7.125 0 10.766 3.297 3.64 3.297 3.64 9.687 0 6.39-3.64 9.64-3.64 3.25-10.766 3.25z" id="DejaVuSans-82"/><path d="M54.89 33.016V0h-8.984v32.719q0 7.765-3.031 11.61-3.031 3.858-9.078 3.858-7.281 0-11.484-4.64-4.204-4.625-4.204-12.64V0H9.08v75.984h9.03V46.188q3.235 4.937 7.594 7.374Q30.078 56 35.797 56q9.422 0 14.25-5.828 4.844-5.828 4.844-17.156z" id="DejaVuSans-104"/><path d="M45.406 46.39v29.594h8.985V0h-8.985v8.203Q42.578 3.328 38.25.953q-4.313-2.375-10.375-2.375-9.906 0-16.14 7.906-6.22 7.922-6.22 20.813 0 12.89 6.22 20.797Q17.968 56 27.874 56q6.063 0 10.375-2.375 4.328-2.36 7.156-7.234zm-30.61-19.093q0-9.906 4.079-15.547 4.078-5.64 11.203-5.64 7.125 0 11.219 5.64 4.11 5.64 4.11 15.547 0 9.906-4.11 15.547-4.094 5.64-11.219 5.64-7.125 0-11.203-5.64-4.078-5.64-4.078-15.547z" id="DejaVuSans-100"/></defs><use xlink:href="#DejaVuSans-82"/><use x="64.982" xlink:href="#DejaVuSans-117"/><use x="128.361" xlink:href="#DejaVuSans-116"/><use x="167.57" xlink:href="#DejaVuSans-104"/><use x="230.949" xlink:href="#DejaVuSans-101"/><use x="292.473" xlink:href="#DejaVuSans-114"/><use x="333.586" xlink:href="#DejaVuSans-102"/><use x="368.791" xlink:href="#DejaVuSans-111"/><use x="429.973" xlink:href="#DejaVuSans-114"/><use x="469.336" xlink:href="#DejaVuSans-100"/></g></g></g></g><defs><clipPath id="p78f0d7e738"><path d="M117 77.76h725.4v498.96H117z"/></clipPath></defs></svg>