<svg height="864" viewBox="0 0 936 648" width="1248" xmlns="http://www.w3.org/2000/svg" xmlns:xlink="http://www.w3.org/1999/xlink"><defs><style>*{stroke-linecap:butt;stroke-linejoin:round}</style></defs><g id="figure_1"><path d="M0 648h936V0H0z" style="fill:#fff" id="patch_1"/><g id="axes_1"><path d="M117 576.72h725.4V77.76H117z" style="fill:none" id="patch_2"/><path clip-path="url(#p3b16589861)" d="m149.973 351.329 44.032-.114 5.12-.24 1.024-.1 1.024-.226 1.024-.374 2.048-1.12 1.024-.823 4.096-4.087 1.024-.754 1.024-.987 2.048-.414 1.024-.571 2.048.015 1.024-.372 1.024.059 1.024.326 1.024.18 2.048 1.775 1.024.878 1.024 1.569 1.024 1.974 1.024.632 1.024 1.655 1.024 1.075 1.024.757 1.024.915 1.024.354 1.024-.007 1.024.379 1.024-.769 1.024-.28 1.024-.066 1.024-.595 1.024-.816 1.024-1.059 1.024-.364 1.024.66 1.024-.035 1.024.122 1.024.633 1.024.908 1.024 1.24 1.024.227 1.024-.336 2.048-.017 1.024-.174 1.023.402 1.024-.037 1.024.593 1.024.352 3.072.161 1.024-.557 1.024-.385 1.024-.513 1.024-.97 1.024-.009 1.024-.6 1.024-.032 2.048.137 1.024-.263 1.024.786 1.024.086 1.024.71 1.024.225 2.048-.647 1.024.047 1.024-.627 1.024-.45 1.024-.632 1.024-.264 1.024-.387 2.048.525 1.024.736 1.024.44 2.048-.465 1.024.837 1.024-.42 1.024-.287 1.024-.635 1.024-.915 1.024.007 1.024-.371 1.024-.97 1.024-.44 1.024-.764 1.024-.957 1.024-.464 3.072-2.964 1.024-.407 1.024-.667 1.024.15 1.024-.358 2.048-.331 2.048.638 1.024.893 1.024.137 1.024.866 1.024.398 1.024 1.14 1.024.063 1.024-.341 1.024-.883 2.048-1.39 1.024.068 1.024-1.3 3.072 2.94 1.024 1.807 1.024 1.343 1.024.85 1.024 2.435 1.024.011 1.024-.294 1.024 1.42 1.024-.11 1.024.208 1.024.494 1.024-.524 1.024.798 1.024 1.619 1.024-.526 1.024 1.247 1.024.84 2.048 2.322 1.024.396 1.024-.948 1.024-.126 1.024-1.29 1.024-1.064 1.024-1.544 1.024-.905 1.024-.71 1.024.33 1.024.458 2.048 2.185 1.024 1.34 1.024.52 1.024.994 1.024.139 1.024.392 1.024-1.42 1.024-.69 1.024-1.539 2.048-1.769 1.024-.6 1.024-1.237 1.024.77 1.024-1.01 1.024 1.721 1.024-.136 1.024-.907 1.024.22 1.024.513 1.024.84 1.024 2.265 1.024-1.561 2.048 2.177 1.024.09 1.024-.769 2.048-5.492 1.024-.572 1.024-1.768 2.048-1.328 1.024.038 1.024-.72 1.024 1.373 1.024.414 1.024.834 1.024-.496 2.048.442 1.024 4.044 1.024-.922 1.024.2 1.024-.15 1.024.76 1.024-.476 1.024.36 1.024-4.836 1.024.81 1.024-1.186 1.024-.992 1.024-.724 1.024.138 1.024-1.356 1.024 4.474 1.024-1.402 1.024.467 1.024.113 1.024-.694 1.024.312 1.024.751 1.024-3.609 1.024.605 1.024.278 1.024-.091 1.024-.378 1.024-2.802 1.024-.99 1.024.932 1.024-.86 1.024-1.505 1.024-.653 1.024.03 1.024 2.29 1.024-.3 1.024-1.154 1.024-.48 1.024-.97 1.024-1.718 1.024-2.085 1.024-4.093 1.024-1.672 1.024-1.936 1.024-3.324 1.024-.976 1.024-1.318 1.024-1.782 1.024.978 1.024-.29 1.024.037 1.024 2.887 1.024.612 1.024 2.092 1.024 3.55 1.024 2.292 1.024 2.967 1.024 2.615 1.024.641 1.024 2.392 1.024 12.29 1.024 1.178 1.024 3.791 1.024 1.166 1.024 2.838 1.024 1.118 1.024-1.392 1.024-22.598 1.024-2.104 1.024-8.486 1.024-4.59 1.024-5.537 1.024-3.302 1.024.23 1.024 12.165 1.024-2.678 1.024 5.95 1.024 2.666 1.024 4.594 1.024 5.902 1.024-.744 1.024-.567 1.024 8.9 2.048 3.635 1.024-.485 1.024-1.706 1.024 4.783 1.024 6.429 1.024 13.715 1.024-4.149 1.024 2.667 1.024 1.49 1.024-.103 1.024-2.07 1.024-9.266 1.024-22.294 1.024-5.874 2.048-17.334 1.024-3.924 1.024-2.93 1.024-1.337 1.024-12.16 1.024 12.98 1.024 4.896 1.024 10.018 1.024 4.426 1.024 6.086 1.024 10.22 1.024 24.322 1.024 1.138 1.024 5.072 1.024 6.767 1.024 4.309 1.024 1.95 1.024.933 1.024-1.433 1.024-1.752 1.024.251 1.024-11.412 1.024-.763 1.024-1.601 1.024-2.805 1.024-2.42 1.024-.018 1.024-2.783 1.024 3.421 1.024-.105 1.024.666 1.024 1.84 1.024.927 1.024-.597 1.024 1.206 1.024 3.873 1.024-1.873 1.024-1.178 1.024-2.33 1.024-.594 1.024-.97 1.024-.342 1.024-1.266 1.024 1.473 1.024-.045 1.024 1.571 1.024-.937 1.024-.608 1.024-1.69 2.048-9.2 1.024-3.272 1.024-4.53 1.024-2.486 1.024-.894 1.024-.49 1.024.79 1.024 2.454 1.024 1.317 1.024 1.893 1.024 1.466 1.024-.109 1.024.745 1.024-4.603 1.024-1.42 1.024.094 1.024-.647 1.024-1.258 1.024.107 1.024-.994 1.024 8.524 1.024-.042 1.024-1.039 1.024-.337 1.024.228 1.024-1.349 1.024.195 1.024-3.958 1.024-.406 1.024-2.295 1.024-1.198 1.024-1.976 1.024-.16 1.024-1.6 1.024-2.095 1.024-.372 1.024 3.736 1.024.065 1.024 2.244 1.024.322 1.024 2.043 1.024 1.153 1.024.652 1.024-1.942 1.024.546 1.024-2.144 1.024.32 1.024-2.138 1.024 1.193 1.024-1.77 1.024.282 1.024 1.137 1.024 1.84 1.024 1.305 1.024 2.011 1.024-.34 1.024 3.59 1.024 1.805 1.024.078 1.024 1.286 1.024-.848 1.024.14 1.024 2.41 1.024-.81 1.024-.633 1.024.136 1.024-1.055 1.024.261 1.024-.436 1.024-2.896 3.072.615 2.048 1.264 1.024.38 1.024 1.813 1.024-.454 2.048-.17 1.024-.511 1.024-.735 1.024-.191 1.024-.685 1.024-.083 1.024-.29 1.024-.048 2.048 1.312 2.048-.774 2.048-.276 1.024-.788 2.048-1.017 1.024.47 1.024 1.877 1.024-.54 1.024.128 1.024.726 1.024 4.427 2.048-1.254 1.024-3.865 1.024.92 1.024-1.171 1.024-.522 1.024-9.85 1.024.12 1.024-.218 1.024 2.073 1.024-.688 1.024 1.14 1.024-.006 1.024 5.098 1.024-.167 1.024.38 1.024-.573 1.024-.363 3.072-2.085 1.024.01 1.024-.311 1.024.116 2.048-.5 1.024-5.416 1.024-.364 2.048.363 1.024 1.209 1.024-.95 1.024-1.395 1.024 7.484 1.024-1.07 1.024-.744 1.024-.429 1.024-4.735 1.024-.517 1.024.727 2.048-.51 2.048-.203 1.024.793 1.024-.366 1.024-1.576 1.024-4.842 1.024-1.582 1.024-.506 1.023-.15 1.024-1.146 1.024-2.9 2.048-.766 1.024-.995 1.024.118 1.024-.483 1.024-1.04 1.024.137 1.024-.251 1.024.467 1.024-.688 2.048-.955 1.024.064 1.024 3.596 1.024-1.797 1.024 1.92 1.024 3.022 2.048 1.15 1.024-4.342 1.024 3.354 1.024 3.879 1.024-1.056 1.024.775 1.024-2.481 1.024 1.247 1.024 8.41 1.024-2.688 1.024.307 1.024-.79 1.024 1.804 1.024 2.689 1.024-.548 1.024-.862 1.024-.47 1.024-3.827 1.024 4.545 1.024.084 1.024 2.844 1.024-.077 1.024 24.688 1.024-14.838 1.024 7.583 1.024-.787 1.024 1.216 1.024-3.07 1.024.807 1.024-46.67 1.024 32.813 1.024-1.453 1.024 1.198 1.024-.656 1.024 1.545 1.024-.596 1.024 32.319 1.024-14.258 1.024.987 1.024 1.285 1.024 1.99 1.024 1.23 1.024.694 1.024-7.203 1.024-.69 1.024-.422 1.024-1.743 1.024-1.44 1.024-1.045 1.024.304 1.024.988 1.024-.215 1.024-1.863 3.072-.308 1.024-.634 1.024 3.053 1.024-3.143 1.024 1.91 1.024.638 1.024.172 1.024-.35 1.024-.218 1.024-5.372 1.024 4.642 1.024.064 1.024-1.072 1.024-.357 1.024-.009 1.024.472 1.024 1.682 1.024-3.594 1.024-3.168 2.048-2.702 1.024-.374 1.024-.775 1.024-4.021h0" style="fill:none;stroke:#000;stroke-linecap:round;stroke-width:1.5" id="line2d_1"/><path clip-path="url(#p3b16589861)" d="m149.973 351.328 45.056-.105 3.072-.255 2.048-.637 1.024-.604 1.024-1.244 1.024-.507 1.024-1.635 1.024-2.238 1.024-3.264 1.024-2.728 1.024-1.748 1.024-7.811 1.024-6.907 1.024-6.05 1.024-4.732 1.024-6.152 1.024-2.054 1.024-9.487 1.024 5.469 1.024-2.38 1.024-.298 1.024 2.367 1.024 8.319 1.024-.155 1.024 14.123 1.024 2.54 1.024 12.99 1.024 10.88 1.024 3.356 1.024 4.97 1.024 1.475 1.024 1.161 1.024-1.852 1.024-1.396 1.024-.234 1.024.57 1.024-6.798 1.024 6.592 1.024-8.746 1.024 3.604 1.024 2.23 1.024-4.124 1.024 2.297 1.024 8.909 1.024 1.064 1.024 9.815 1.024 6.592 1.024-5.339 1.024 4.92 1.024.511 1.024-3.06 1.024-2.384 1.024.172 1.024-4.58 1.023 4.4 1.024.402 1.024 4.577 1.024-2.15 1.024 4.953 1.024-2.644 1.024-.176 1.024-.423 1.024-1.882 1.024-5.775 1.024-1.693 1.024-7.132 1.024-4.396 1.024-2.222 1.024-2.782 1.024 1.475 1.024-.03 1.024 4.439 1.024 2.003 1.024 4.572 1.024-.776 1.024 1.107 1.024-4.937 1.024.076 1.024-1.266 1.024-1.077 1.024-.758 1.024 3.516 1.024.02 1.024 2.456 1.024 1.48 1.024-1.362 1.024 1.186 1.024-1.543 1.024-3.071 1.024.984 1.024-.381 1.024-2.393 1.024-.121 1.024-1.476 1.024 1.258 1.024.31 1.024-2.091 2.048-.168 1.024-.679 1.024.117 1.024-.645 1.024-7.627 1.024.176 1.024-.226 1.024.13 1.024.98 1.024-.335 1.024-.93 1.024 14.592 1.024.004 2.048-.461 1.024-1.266 1.024.855 1.024.47 1.024-6.408 1.024.109 1.024-.16 2.048.814 1.024-1.065 1.024-.616 1.024-.8 1.024 1.173 1.024.453 1.024 1.425 1.024.247 2.048 1.756 1.024-.113 1.024-3 1.024-1.334 1.024-3.796 2.048-2.527 1.024-.612 1.024.239 1.024.737 1.024 1.651 1.024 3.018 1.024 1.902 1.024 1.329 1.024.762 1.024-.871 1.024 2.355 1.024-.6 4.096-3.377 1.024-.47 1.024-2.262 1.024.373 1.024 1.483 1.024-.251 1.024.842 1.024 1.023 1.024 3.511 1.024 2.054 1.024-1.43 1.024-1.952 1.024.59 1.024-.351 1.024-.197 1.024-3.198 1.024-1.458 1.024 1.806 1.024-.033 1.024-.885 1.024-.238 1.024-.65 1.024.57 1.024-.096 1.024-.654 3.072 1.446 3.072.595 1.024-.62 1.024.142 1.024-.08 1.024-.888 1.024-.168 1.024-.415 1.024.05 1.024.47 1.024-.712 1.024-.235 1.024.708 1.024.18 1.024.629 1.024-.201 1.024-1.161 2.048-.83 1.024-.167 1.024-1.182 1.024-.23 1.024-.55 1.024.386 1.024 1.328 1.024.901 1.024-.599 1.024 2.091 1.024-2.657 1.024.281 1.024 1.173 1.024-.825 1.024-.025 1.024-.78 1.024-2.636 1.024 4.237 1.024.754 1.024-.64 1.024-1.673 1.024-3.206 2.048 2.925 1.024-2.17 1.024-1.216 1.024-3.792 2.048 5.737 1.024-2.762 1.024-2.3 1.024-.826 1.024-2.917 1.024 6.374 1.024-3.185 1.024-.536 1.024 2.02 1.024-.558 1.024-.1 1.024 3.126 1.024-9.995 1.024 1.442 1.024-2.255 1.024-7.442 1.024.632 2.048-9.09 1.024 2.884 1.024-9.45 1.024 2.217 1.024 7.14 1.024-1.537 1.024 3.52 1.024 4.22 1.024 3.5 1.024 12.97 1.024-5.034h1.024l1.024 4.124 1.024 1.672 1.024-1.006 1.024 4.958 1.024-1.848 1.024 7.346 1.024-.343 1.024-1.002 1.024-.122 1.024-4.605 2.048-19.734 1.024-3.202 1.024-2.259 1.024.352 1.024-.029 1.024 15.007 1.024 2.54 1.024 17.043 1.024-3.612 1.024 9.974 1.024-4.518 1.024 4.995 1.024-9.466 1.024 12.425 1.024-12.14 1.024 11.993 1.024-8.997 1.024 8.926 1.024-5.507 1.024-3.847 1.024-7.782 1.024 16.243 1.024-5.028 1.024 6.633 1.024-3.356 1.024.239 1.024 3.03 1.024-7.142 1.024-17.621 1.024-204.401 1.024-14.89 1.024-5.133 1.024-8.344 1.024-4.522 1.024-1.626 1.024-2.623 1.024 394.356 1.024 17.957 1.024-3.738 1.024 11.608 1.024 9.12 1.024 13.879 1.024 10.418 1.024-185.526 1.024-7.204 1.024 18.712 2.048 13.267 1.024-10.732 1.024-2.707 1.024-7.434 1.024-.453 2.048-14.885 1.024-16.558 1.024 12.669 1.024 4.693 1.024 3.847 2.048 15.275 1.024 4.84 1.024 14.852 2.048-8.96 1.024 1.367 1.024-8.604 1.024-19.1 1.024-7.645 1.024-5.288 1.024-.046 1.024 9.253 1.024.679 1.024 1.554 1.024 9.723 1.024 3.13 1.024.796 1.024.529 1.024-8.495 1.024-9.953 1.024 2.225 1.024 3.06 1.024-2.846 1.024-6.324 1.024-8.951 1.024-2.079 1.024 3.441 1.024-2.54 1.024-6.554 1.024 2.854 1.024 4.166 1.024 6.998 1.024.96 1.024 5.334 1.024-2.958 1.024 2.05 1.024-4.204 1.024-2.888 1.024-2.338 1.024-2.766 1.024-5.657 1.024 5.221 1.024-1.898 1.024-.155 1.024 1.433 1.024-3.759 1.024 3.612 1.024.78 1.024-6.265 1.024 3.155 1.024 4.97 1.024-4.32 1.024 5.385 1.024-5.611 1.024-.591 1.024 4.258 1.024.888 1.024-9.186 1.024 9.542 1.024-.092 1.024 8.26 2.048 10.439 1.024-4.195 1.024 12.32 1.024-3.075 1.024 2.619 1.024-1.216 1.024-1.822 1.024-5.88 1.024 5.243 1.024-3.613 1.024-2.196 1.024-4.899 1.024-.737 1.024-.26 1.024 5.687 1.024-2.473 1.024 1.148 1.024 7.271 1.024 6.127 1.024 5.1 1.024 45.658 1.024-1.677 1.024 5.348 1.024 1.249 1.024-2.39 1.024.231 1.024-4.018 1.024-88.742 1.024 1.697 1.024-7.468 1.024-.65 1.024-.364 1.024-1.069 1.024 1.521 1.024 45.34 1.024-2.838 1.024 10.314 1.024.645 1.024-1.03 1.024-3.92 1.024-3.306 1.024-4.304 1.024-2.208 1.024-8.386 1.024-4.685 1.024-4.077 1.024 1.106 1.024-.427 1.024 1.852 1.024 1.425 1.024.029 1.024 1.257 1.024 2.997 1.024-.608 1.024.365 1.024-1.43 1.024-.104 1.024.306 1.024-.227 1.024-1.73 1.024-.947 1.024-.076 1.024.352 1.024-1.123 1.024-.138 1.024-.73 1.024.193 1.024.889 2.048-.197 1.024-.071 1.024-.788 1.024.691 1.024-.046 1.024-.285 1.024.256 1.024.473 1.024.302 1.024.478 1.024-.579 2.048-.674 2.048-.692 1.024-.042 1.024.243 1.024.37 1.024.51 1.024.319 2.048.465 1.024.256 5.12-3.487 1.024-.796 1.024-1.165 3.072-.017 1.024-.49 2.048.243 1.024-.36 1.024-1.057 1.024-.775 1.024-1.337 1.024-.31 1.023-.096 1.024-.47 1.024.667 1.024.356 1.024-.13 1.024.86 1.024-.039 2.048-1.307 1.024-1.605 4.096-.604 1.024.382 1.024 1.567 1.024.85 1.024-.728 1.024.004 1.024-1.136 1.024-2.8 1.024.57 1.024-1.927 1.024.52 1.024 1.948 1.024.922 1.024-2.506 1.024 5.997 1.024-.297 1.024.515 1.024.654 1.024-1.865 1.024.57 1.024 6.051 1.024-.763 1.024-.938 1.024 1.827 1.024-.985 1.024 1.115 1.024-1.911 1.024 2.133 1.024-2.255 1.024 2.247 1.024-2.343 1.024 8.57 1.024-4.38 1.024 3.437 1.024-7.485 1.024.285 1.024-1.127 1.024 3.558 1.024-14.491 1.024 10.216 1.024-4.525 1.024 5.108 1.024.49 1.024.298 1.024-2.028 1.024 6.524 1.024-5.443 1.024 6.093 1.024-.637 1.024 2.17 1.024 3.609 1.024 2.271 2.048 3.495 1.024-3.273 1.024 1.781 1.024-.377 1.024-4.79 1.024-2.309 1.024-.155 1.024-.876 1.024 1.413 1.024-3.181 1.024-.805 2.048 3.118 1.024-.98 1.024-.164 1.024.692 1.024 2.858 1.024 1.127 1.024 2.162 1.024-.44 1.024 1.668 1.024 2.238 1.024-1.077 1.024-3.39 1.024-.268 1.024-1.794 1.024-1.521 1.024-2.678 1.024-3.45 1.024-2.794 1.024 3.03 1.024-1.685 1.024-2.25 1.024 1.248h0" style="fill:none;stroke:#009e73;stroke-linecap:round;stroke-width:1.5" id="line2d_2"/><path clip-path="url(#p3b16589861)" d="m149.973 351.328 37.888-.08 8.192-.36 1.024-.558 1.024.04 1.024-1.078 1.024-.759 1.024-1.677 1.024-6.428 1.024-1.518 1.024.32 2.048-7.547 1.024-1.916 1.024-.959 1.024-2.435 1.024-8.505 1.024-12.258 1.024-5.67 1.024-1.518 1.024-10.62 1.024-15.892 1.024.2 1.024-8.545 1.024-9.903 1.024 5.59 1.024-8.025 1.024 3.633 1.024 28.39 1.024 14.134 1.024 25.954 1.024 40.767 1.024 4.033 1.024 29.108 1.024 23.199 1.024-12.977 1.024-9.104 1.024-2.036 1.024-13.017 1.024-2.356 1.024-17.21 1.024-13.894 1.024 6.907 1.024 11.58 1.024.36 1.024-8.346 2.048 23.957 1.024 8.345 1.024 1.717 1.024.04 1.024-1.837 1.024 12.219 1.024-9.304 1.024-7.626 1.024-9.144h1.024l1.024-4.951 1.023 1.038 1.024-7.267 1.024 2.795 1.024-1.757 1.024 5.83 1.024-5.35 1.024 3.353 1.024-5.39 1.024-.2 1.024-3.034 1.024.12 1.024-4.592 1.024 2.475 1.024-11.739 1.024 2.396 1.024-.32 1.024-1.237 2.048.04 1.024-5.071 1.024 2.595 1.024-1.597 1.024-.36 1.024 3.834 1.024 2.635 1.024 1.198 1.024 3.234 1.024 6.908 1.024.2 1.024-2.716 1.024-1.357 1.024-2.516 1.024-1.397 1.024-2.715 1.024-4.912 1.024.839 1.024.32 1.024-1.358 1.024-.32 1.024-.559 1.024 4.712 1.024 2.036 1.024-.998 1.024 2.635 1.024-.319 1.024.28 1.024 1.557 1.024-2.715 1.024-13.696 1.024-3.394 1.024-.599 1.024-2.555 1.024.12 1.024-1.478 1.024.28 1.024 24.676 1.024 4.711 1.024-1.477 1.024 3.234 1.024-.599 1.024 1.717 1.024-1.597 1.024-13.137 1.024-1.477 1.024 1.158 1.024.918 1.024.759 1.024-.879 1.024 2.955 1.024 1.997 1.024 1.517 1.024-.12 1.024-.639 1.024-1.757 1.024-.28 1.024-2.634 1.024-1.518 1.024-2.116 1.024-.958 1.024-2.236 1.024 1.357 1.024-1.637 2.048 1.997 1.024-.719 1.024.998 1.024 1.597 1.024.919 1.024 1.876 1.024.64 1.024-.88 1.024 2.636 1.024-1.717 2.048-1.837 1.024.56 1.024-.879 1.024-.08 1.024-5.11 1.024 1.197 1.024-.639 1.024-2.036 1.024-.2 1.024 1.518 1.024 3.913 1.024 7.586 1.024 1.318 2.048 8.145 1.024-1.198 1.024-2.835 1.024-6.029 1.024-3.833 1.024-1.597 1.024-3.674 1.024-2.914 1.024-.2 2.048 4.033 1.024-.36 1.024 2.196 2.048 2.516 1.024 2.356 1.024-.64 1.024 1.039 1.024.2 1.024-1.997 1.024-.08 2.048-1.158 1.024.04 1.024-1.836 1.024.08 1.024-.36 1.024.24 1.024.04 1.024-2.955 1.024.32 1.024 2.555 1.024.24 1.024.399 1.024-1.118 1.024-.16 1.024 2.795 1.024-.639 1.024-2.795 1.024-1.278 1.024-.838 1.024.838 1.024-.12 1.024-1.557 1.024-.2 1.024 1.079 2.048.758 1.024-.998 1.024-.04 1.024-1.198 1.024-.12 1.024-.279 1.024.639 1.024.918 1.024-.359 1.024-2.036 1.024 2.036 1.024-1.437 1.024.758 1.024-.439 1.024-3.394 1.024.52 1.024 1.796 1.024-1.957 1.024 3.235 1.024-1.158 1.024-4.313 1.024 3.873 1.024-.838 1.024-.639 1.024.759 1.024-5.87 1.024 2.516 1.024 4.671 1.024-8.744 1.024-.36 1.024 1.797 1.024-3.913 1.024.72 1.024-13.377 1.024-5.39 1.024 5.91 1.024-5.67 1.024-2.596 1.024 1.437 1.024-.2 1.024 10.741 1.024 5.99 1.024-.12 1.024 7.586 1.024-6.308 1.024 5.79 1.024 7.825 1.024 2.396 1.024-8.704 1.024 11.54 1.024-3.754 1.024 12.537 1.024-6.987 1.024-6.19 1.024-4.391 1.024 5.59 1.024-21.362 1.024 2.116 1.024-6.07 2.048 15.533 1.024 6.389 1.024 15.812 1.024 11.38 1.024 8.704 1.024-.64 1.024-1.716 1.024-10.78 1.024-.76 1.024-17.448 1.024 7.746 1.024-6.988 1.024 8.266 1.024-1.518 1.024 4.472 1.024-5.989 1.024 2.516 1.024-4.912 1.024 5.71 1.024-5.95 1.024.999 1.024 3.394 1.024.679 1.024.479 1.024-7.587 1.024-8.704 1.024-174.25 1.024-13.815 1.024-9.942 1.024-1.956 1.024-6.948 1.024-.719 1.024-6.189 1.024 344.266 1.024 24.117 1.024 2.755 1.024 1.518 1.024 12.098 1.024 7.986 1.024 11.18 1.024-166.344 1.024-16.65 2.048 25.115 1.024 5.151 1.024-6.428 1.024-2.037 1.024-6.109 1.024 6.389 1.024-3.554 1.024-9.663 1.024-13.416 1.024 10.062 1.024 2.596 1.024 2.196 1.024 5.15 1.024 7.387 1.024 4.273 1.024 2.955 1.024-3.794 1.024-2.994 1.024 4.312 1.024-6.748 1.024-19.885 1.024-3.633 1.024 6.508 1.024.839 1.024 7.347 1.024.519 1.024-7.147 1.024 12.178 1.024.679 1.024-2.157 1.024.2 1.024-5.79 1.024-13.096 1.024 11.46 1.024-3.195 1.024-5.75 1.024-11.5 1.024-6.028 1.024-1.917 1.024 3.114 1.024-3.314 1.024-4.751 1.024 8.465 2.048 22.919 1.024-2.556 1.024 15.014 1.024-5.031 1.024 8.784 1.024-8.744 1.024-1.837 1.024-15.812 1.024 1.278 1.024-12.059 1.024 6.11 1.024-7.308 1.024 6.07 1.024-4.153 1.024 2.076 1.024 2.955 1.024 1.318 1.024-2.955 1.024 5.31 1.024 3.075 1.024-4.352 1.024 3.234 1.024-7.826 1.024.998 1.024.48 1.024-6.589 1.024-11.1 1.024 16.61 1.024 4.113 1.024 13.616 1.024 1.437 1.024 8.106 1.024 6.468 1.024 11.7 1.024-3.554 1.024 3.154 1.024-4.832 1.024 2.596 1.024-6.11 1.024 4.553 1.024-3.115 2.048-10.461 1.024 2.036 1.024-.958 1.024 2.316 1.024-4.352 1.024.519 1.024 6.668 1.024 3.593 1.024-.878 1.024 4.073 1.024-.919 1.024 3.474 1.024.679 1.024-3.514 1.024 2.196 1.024-.12 1.024-10.221 1.024 1.397 1.024-49.631 1.024-9.863 1.024.16 1.024-4.193 1.024-2.196 1.024 5.39 1.024-2.235 1.024 92.515 1.024 21.082 1.024-2.755 1.024-1.757 1.024-.2 1.024-2.315 1.024-.719 1.024-46.477 1.024-13.336 1.024-.28 1.024 2.516 1.024.32 1.024.798 1.024-1.398 1.024-1.797 1.024-1.237 1.024 1.357 1.024-2.116 1.024-.12 1.024.04 1.024 1.797 1.024.958 1.024 1.198 1.024-1.437 2.048-2.316 1.024-.56 1.024-1.397 1.024-1.158 1.024-1.357 1.024-.28 1.024 1.717 1.024.28 1.024-.12 1.024-.6 1.024.12 1.024.84 1.024.399 1.024-.6 2.048.999 1.024.958 1.024-.559 1.024-1.318 1.024-.12 2.048-1.237 1.024-.56 1.024-.398 1.024.598 1.024 1.478 1.024-.2 1.024.48 1.024.918 1.024.28 1.024.997 1.024.839 1.024-.4 1.024.36 1.024.04 1.024-1.717 1.024-.36 2.048-3.833 1.024-.718 2.048-2.596 1.024 1.039 1.024-.44 2.048 1.757 1.024-1.038 1.024-.878 1.024-.28 1.023-1.318 2.048-1.996 1.024-1.797 1.024.32 1.024 1.517 1.024.32 1.024-.24 1.024 1.158 1.024-.759 1.024 1.877 1.024 1.277 1.024-.479 1.024 1.278 1.024 2.076 1.024 1.438 1.024-.44 1.024-1.996 1.024-2.755 1.024.759 1.024-4.512 1.024 2.795 1.024-2.236 1.024 1.996 1.024 1.038 1.024 4.632 1.024-5.23 1.024 6.029 1.024-8.585 1.024-.04 1.024 2.076 1.024.12 1.024-2.955 1.024 7.747 1.024-2.756 1.024 4.393 1.024 1.557 1.024-2.156 1.024 1.876 1.024.6 2.048 2.515 1.024 1.477 1.024-1.597 1.024 5.95 1.024-5.072 1.024.24 1.024-7.547 1.024-.559 1.024-.798 1.024 3.434 1.024-12.099 1.024 8.106 1.024-.24 1.024 6.11 1.024.399 1.024-.4 1.024-2.595 1.024 9.303 1.024-5.03 1.024 1.197 1.024-4.272 1.024.679 1.024 1.517 1.024.44 1.024-2.476 1.024 1.956 1.024-.998 1.024 4.632 1.024-.04 2.048 2.276 1.024-.04 1.024-.2 1.024 2.476 1.024-.719 1.024.28 1.024-3.315 1.024.799 1.024.24 1.024.08 3.072-4.592 1.024 3.873 1.024-2.715 1.024 2.275 1.024 1.757 1.024 1.398 1.024-1.118 1.024 3.913 1.024-2.715 1.024-.28 1.024-5.75 1.024-3.593 1.024-4.432 1.024.519 1.024-4.193 1.024-.32 1.024 2.716h0" style="fill:none;stroke:#d55e00;stroke-linecap:round;stroke-width:1.5" id="line2d_3"/><path clip-path="url(#p3b16589861)" d="M149.973 351.328h51.2l1.024-4.067h2.048l1.024-2.034h1.024l2.048-12.202 1.024-4.067 1.024-2.034 1.024-6.1h1.024l1.024-10.169 1.024-4.067 1.024-2.034 1.024 16.27 1.024-8.135 1.024-20.336 1.024-16.27 1.024 14.236 2.048 32.538 1.024-24.404 1.024 8.135 1.024 54.908 1.024 40.673 1.024-10.168 1.024-4.067 1.024-10.169 1.024 26.438 1.024 6.1 1.024-30.504 1.024-22.37 1.024 8.135h2.048l1.024-10.169 1.024-8.134 1.024 4.067h1.024l1.024-2.034 1.024 4.068 1.024 8.134 1.024 4.068 1.024 12.201 1.024-4.067h1.024l1.024 10.168 1.024-6.1 1.024-2.034 1.024 2.033 1.023-4.067 1.024 8.135h1.024l1.024-18.303 1.024-8.135 1.024-6.1 1.024-8.135 1.024-4.067 1.024-6.101h1.024l1.024 16.269 1.024 14.235 2.048 8.135 1.024 2.033h2.048l1.024-8.134 1.024-6.101 2.048-4.067 1.024-6.101h2.048l1.024-6.101h3.072l1.024 8.134h2.048l1.024 12.202h1.024l1.024-2.033h1.024l1.024-6.101h2.048l1.024-6.101h1.024l1.024 4.067h1.024l1.024 4.067h2.048l1.024-4.067 1.024 2.034 1.024-4.068 1.024-2.033 1.024-4.067h3.072l1.024-2.034 1.024 2.034 2.048 8.134h3.072l1.024-2.034 1.024 2.034 1.024-4.067 1.024-6.101h2.048l1.024 12.202 1.024 2.033 1.024-2.033 1.024 4.067 1.024 8.135h2.048l2.048-8.135 1.024-2.034 2.048-8.134h2.048l1.024-6.101 1.024 10.168 1.024 4.067 1.024 2.034h3.072l1.024 2.034 1.024-6.101 1.024-4.068 1.024 2.034h3.072l1.024 2.034h1.024l1.024 2.033 2.048-4.067h2.048l1.024-4.067h1.024l1.024 2.033 1.024-2.033 1.024 2.033h2.048l1.024 4.068 2.048-8.135 2.048 4.067h2.048l1.024-4.067 1.024 8.135 1.024-4.068 1.024 2.034 1.024-2.034h2.048l1.024 4.068 1.024-10.168 1.024 14.235 1.024-2.034h3.072l1.024-4.067 1.024 12.202 1.024-12.202 1.024-2.034h3.072l1.024-2.033 1.024-6.101 1.024 6.1 1.024 4.068h3.072l1.024 10.168h2.048l1.024-2.033h3.072l1.024-10.169 1.024-2.033 1.024-12.202 1.024-18.303 1.024-4.067h2.048l1.024 4.067 1.024-8.134 1.024 18.302 1.024 26.438 1.024-2.034 2.048-12.202h1.024l1.024 22.37 1.024-14.235 1.024 2.033 1.024 16.27 2.048 24.403 1.024-8.134 1.024-20.337 1.024 4.068 2.048-40.673 2.048-12.202 1.024-4.067 1.024 14.235 1.024-2.034 1.024 14.236 1.024 10.168h2.048l1.024-2.033 1.024-12.202 1.024 18.302 1.024-32.538 1.024-4.067h2.048l1.024 20.336 1.024-10.168 1.024-38.639 1.024 46.774 2.048-20.337h1.024l1.024-2.033 1.024 24.403 1.024 36.606 1.024-2.034 1.024 42.707 1.024-20.337h1.024l1.024-4.067 1.024-6.101 1.024-22.37 1.024-48.807 1.024-77.279 1.024 48.808h1.024l1.024 6.1 1.024-12.201 1.024 22.37 1.024 28.47 1.024 79.313 1.024 4.067h1.024l1.024-12.202 1.024 16.27 1.024-16.27 1.024 40.673 1.024-46.774 1.024-22.37h1.024l1.024-20.336 1.024-2.034 1.024-36.605 1.024-46.774 1.024 50.84h2.048l1.024 20.337h1.024l1.024 56.942 1.024-2.033 1.024-34.572h3.072l1.024-30.505 1.024-6.1 1.024 4.066 1.024-24.403 1.024-20.337h1.024l1.024 28.471 1.024 40.673 1.024-12.202 1.024 18.303 1.024 28.471 1.024 40.673h1.024l1.024 22.37 1.024-34.572 1.024 12.202 1.024 2.033 1.024 10.169 1.024-20.337h1.024l1.024-107.783 1.024 54.909 1.024-2.034 1.024-16.27 1.024-40.672 1.024-10.168h1.024l1.024 126.086 1.024-26.438 1.024-48.807h1.024l1.024 44.74 1.024 20.336h1.024l1.024-95.58 1.024-22.37 1.024 83.378 1.024 8.135 1.024-14.235 1.024-24.404h1.024l1.024 65.076h1.024l1.024-42.706 1.024 2.034 1.024-4.068 1.024 28.471 1.024-14.235 1.024-40.673 1.024 30.505 1.024 2.033 1.024-26.437 1.024-8.135 1.024-14.235 1.024 28.47 1.024-16.268 1.024-24.404 1.024-6.1 1.024 40.672 1.024-2.034h1.024l1.024-14.235 1.024 28.47 1.024 20.337h1.024l1.024-42.706 1.024 28.47h2.048l1.024-22.37 1.024-18.302 1.024 4.067 1.024 44.74 1.024-18.303h2.048l1.024 16.27 1.024 8.134 1.024 2.034 1.024-32.538 1.024-4.068h1.024l1.024-18.303 1.024 28.471 1.024-6.1 1.024 6.1 1.024-10.168h2.048l1.024 36.606 1.024-38.64 1.024 4.068 2.048 12.202v18.302l1.024 12.202 1.024-2.033 1.024-18.303 1.024 26.437 1.024 6.101 1.024-24.404 1.024-4.067 1.024-8.134 1.024-6.101h2.048l2.048 4.067 1.024 16.27h1.024L612.82 392h1.024l1.024-20.337 1.024-12.201 1.024 8.134 1.024-4.067 1.024-8.135 1.024-12.201h1.024l1.024 14.235 1.024 8.135 1.024-12.202 1.024-2.034 1.024 22.37 1.024 4.067h1.024l1.024-12.201 1.024-2.034 1.024 16.269h1.024l1.024-10.168 1.024-2.034h1.024l1.024 12.202 1.024-2.034 1.024-8.134 1.024-6.101 1.024-4.067h2.048l1.024-8.135h1.024l1.024-4.067h6.144l1.024 2.033 1.024 6.101h4.096l1.024-6.1h1.024l1.024-4.068h4.096l1.024 12.202 1.024 2.034h5.12l1.024-6.101 1.024-2.034h1.024l1.024-8.134h5.12l1.024-2.034 1.024 16.269h5.12l1.024 2.034 1.024-10.169h4.096l2.048-4.067 1.024 4.067h4.096l1.024 4.068 1.024 2.033 1.024-14.235h2.047l1.024-42.707 2.048-8.134 1.024-10.168 1.024 14.235h2.048l1.024 71.178 2.048 4.067 1.024 20.336 1.024 6.101h2.048l1.024-34.572 1.024 2.034 1.024-10.168 1.024-18.303 1.024-10.168h2.048l1.024 6.1 1.024 2.034 1.024 20.337 1.024 12.202 1.024 6.1h2.048l1.024 16.27 1.024-6.101 1.024-12.202 1.024-6.101 1.024-4.067h2.048l1.024-26.438 1.024-2.033 1.024-8.135 1.024 8.135 1.024-10.169h2.048l1.024 24.404 1.024-4.067 1.024 12.202 1.024-2.034 1.024 10.168h2.048l1.024-32.538 1.024 28.471 1.024 2.034 1.024-20.337 1.024 2.034h2.048l1.024 10.168 1.024-14.235 1.024-6.101 1.024 22.37h3.072l1.024 26.437 1.024-8.135 1.024 4.068 2.048-8.135h2.048l1.024-18.303 1.024 6.101 1.024-6.1 1.024 6.1 1.024-12.201h2.048l1.024 8.134 1.024-10.168 1.024 12.202 1.024-12.202 1.024 32.538h2.048l1.024-24.404 1.024 14.236 1.024-6.101h1.024l1.024-18.303h2.048l1.024 28.471 1.024-2.033h1.024l1.024 8.134 1.024 2.034h2.048l1.024-24.404 1.024-10.168h0" style="fill:none;stroke:#0072b2;stroke-linecap:round;stroke-width:1.5" id="line2d_4"/><path clip-path="url(#p3b16589861)" d="M117 351.328h725.4" style="fill:none;stroke:red;stroke-dasharray:1.5,2.475;stroke-dashoffset:0;stroke-width:1.5" id="line2d_5"/><path d="M117 576.72V77.76" style="fill:none;stroke:#d3d3d3;stroke-linecap:square;stroke-linejoin:miter;stroke-width:1.25" id="patch_3"/><path d="M117 576.72h725.4" style="fill:none;stroke:#d3d3d3;stroke-linecap:square;stroke-linejoin:miter;stroke-width:1.25" id="patch_4"/><g id="matplotlib.axis_1"><g id="xtick_1"><g style="fill:#696969" transform="matrix(.16 0 0 -.16 109.992 598.378)" id="text_1"><defs><path d="M9.813 72.906h9.859V5.078q0-13.187-5-19.14-5-5.954-16.094-5.954h-3.75v8.297h3.078q6.531 0 9.219 3.672Q9.813-4.39 9.813 5.078z" id="DejaVuSans-74"/><path d="M34.281 27.484q-10.89 0-15.093-2.484-4.204-2.484-4.204-8.5 0-4.781 3.157-7.594 3.156-2.797 8.562-2.797 7.485 0 12 5.297 4.516 5.297 4.516 14.078v2zm17.922 3.72V0H43.22v8.297Q40.14 3.328 35.547.953q-4.594-2.375-11.234-2.375-8.391 0-13.36 4.719Q6 8.016 6 15.922q0 9.219 6.172 13.906 6.187 4.688 18.437 4.688h12.61v.89q0 6.203-4.078 9.594-4.078 3.39-11.453 3.39-4.688 0-9.141-1.124-4.438-1.125-8.531-3.375v8.312q4.921 1.906 9.562 2.844 4.64.953 9.031.953 11.875 0 17.735-6.156 5.86-6.14 5.86-18.64z" id="DejaVuSans-97"/><path d="M54.89 33.016V0h-8.984v32.719q0 7.765-3.031 11.61-3.031 3.858-9.078 3.858-7.281 0-11.484-4.64-4.204-4.625-4.204-12.64V0H9.08v54.688h9.03v-8.5q3.235 4.937 7.594 7.374Q30.078 56 35.797 56q9.422 0 14.25-5.828 4.844-5.828 4.844-17.156z" id="DejaVuSans-110"/></defs><use xlink:href="#DejaVuSans-74"/><use x="29.492" xlink:href="#DejaVuSans-97"/><use x="90.771" xlink:href="#DejaVuSans-110"/></g></g><g id="xtick_2"><g style="fill:#696969" transform="matrix(.16 0 0 -.16 201.669 598.378)" id="text_2"><defs><path d="M34.188 63.188 20.797 26.906h26.812zm-5.579 9.718h11.188L67.578 0h-10.25l-6.64 18.703h-32.86L11.188 0H.78z" id="DejaVuSans-65"/><path d="M18.11 8.203v-29H9.077v75.484h9.031v-8.296q2.844 4.875 7.157 7.234Q29.594 56 35.594 56q9.968 0 16.187-7.906 6.235-7.907 6.235-20.797T51.78 6.484q-6.218-7.906-16.187-7.906-6 0-10.328 2.375-4.313 2.375-7.157 7.25zm30.578 19.094q0 9.906-4.079 15.547-4.078 5.64-11.203 5.64-7.14 0-11.218-5.64-4.079-5.64-4.079-15.547 0-9.906 4.078-15.547 4.079-5.64 11.22-5.64 7.124 0 11.202 5.64t4.078 15.547z" id="DejaVuSans-112"/><path d="M41.11 46.297q-1.516.875-3.297 1.281Q36.03 48 33.89 48q-7.625 0-11.703-4.953-4.079-4.953-4.079-14.234V0H9.08v54.688h9.03v-8.5q2.844 4.984 7.375 7.39Q30.031 56 36.531 56q.922 0 2.047-.125 1.125-.11 2.484-.36z" id="DejaVuSans-114"/></defs><use xlink:href="#DejaVuSans-65"/><use x="68.408" xlink:href="#DejaVuSans-112"/><use x="131.885" xlink:href="#DejaVuSans-114"/></g></g><g id="xtick_3"><g style="fill:#696969" transform="matrix(.16 0 0 -.16 299.04 598.378)" id="text_3"><defs><path d="M8.5 21.578v33.11h8.984V21.922q0-7.766 3.016-11.656 3.031-3.875 9.094-3.875 7.265 0 11.484 4.64 4.234 4.64 4.234 12.656v31h8.985V0h-8.984v8.406Q42.047 3.422 37.718 1q-4.313-2.422-10.032-2.422-9.421 0-14.312 5.86Q8.5 10.296 8.5 21.578zM31.11 56z" id="DejaVuSans-117"/><path d="M9.422 75.984h8.984V0H9.422z" id="DejaVuSans-108"/></defs><use xlink:href="#DejaVuSans-74"/><use x="29.492" xlink:href="#DejaVuSans-117"/><use x="92.871" xlink:href="#DejaVuSans-108"/></g></g><g id="xtick_4"><g style="fill:#696969" transform="matrix(.16 0 0 -.16 389.068 598.378)" id="text_4"><defs><path d="M39.406 66.219q-10.75 0-17.078-8.016-6.312-8-6.312-21.828 0-13.766 6.312-21.781 6.328-8 17.078-8 10.735 0 17.016 8 6.281 8.015 6.281 21.781 0 13.828-6.281 21.828-6.281 8.016-17.016 8.016zm0 8q15.328 0 24.5-10.281 9.188-10.282 9.188-27.563 0-17.234-9.188-27.516-9.172-10.28-24.5-10.28-15.375 0-24.593 10.25-9.204 10.265-9.204 27.546t9.204 27.563q9.218 10.28 24.593 10.28z" id="DejaVuSans-79"/><path d="M48.781 52.594v-8.407q-3.812 2.11-7.64 3.157-3.828 1.047-7.735 1.047-8.75 0-13.593-5.547-4.829-5.532-4.829-15.547 0-10.016 4.829-15.563 4.843-5.53 13.593-5.53 3.907 0 7.735 1.046 3.828 1.047 7.64 3.156V2.094Q45.016.344 40.984-.531q-4.015-.89-8.562-.89-12.36 0-19.64 7.765-7.266 7.765-7.266 20.953 0 13.375 7.343 21.031Q20.22 56 33.016 56q4.14 0 8.093-.86 3.953-.843 7.672-2.546z" id="DejaVuSans-99"/><path d="M18.313 70.219V54.688h18.5v-6.985h-18.5V18.016q0-6.688 1.828-8.594 1.828-1.906 7.453-1.906h9.218V0h-9.218q-10.407 0-14.36 3.875-3.953 3.89-3.953 14.14v29.688H2.687v6.984h6.594V70.22z" id="DejaVuSans-116"/></defs><use xlink:href="#DejaVuSans-79"/><use x="78.711" xlink:href="#DejaVuSans-99"/><use x="133.691" xlink:href="#DejaVuSans-116"/></g></g><g id="xtick_5"><g style="fill:#696969" transform="matrix(.16 0 0 -.16 484.775 598.378)" id="text_5"><use xlink:href="#DejaVuSans-74"/><use x="29.492" xlink:href="#DejaVuSans-97"/><use x="90.771" xlink:href="#DejaVuSans-110"/></g></g><g id="xtick_6"><g style="fill:#696969" transform="matrix(.16 0 0 -.16 575.428 598.378)" id="text_6"><use xlink:href="#DejaVuSans-65"/><use x="68.408" xlink:href="#DejaVuSans-112"/><use x="131.885" xlink:href="#DejaVuSans-114"/></g></g><g id="xtick_7"><g style="fill:#696969" transform="matrix(.16 0 0 -.16 672.8 598.378)" id="text_7"><use xlink:href="#DejaVuSans-74"/><use x="29.492" xlink:href="#DejaVuSans-117"/><use x="92.871" xlink:href="#DejaVuSans-108"/></g></g><g id="xtick_8"><g style="fill:#696969" transform="matrix(.16 0 0 -.16 762.827 598.378)" id="text_8"><use xlink:href="#DejaVuSans-79"/><use x="78.711" xlink:href="#DejaVuSans-99"/><use x="133.691" xlink:href="#DejaVuSans-116"/></g></g></g><g id="matplotlib.axis_2"><g id="ytick_1"><g style="fill:#696969" transform="matrix(.16 0 0 -.16 73.733 552.82)" id="text_9"><defs><path d="M10.594 35.5h62.593v-8.297H10.594z" id="DejaVuSans-8722"/><path d="M8.203 72.906h46.875v-4.203L28.61 0H18.312L43.22 64.594H8.203z" id="DejaVuSans-55"/><path d="M10.797 72.906h38.719v-8.312H19.828v-17.86q2.14.735 4.281 1.094 2.157.36 4.313.36 12.203 0 19.328-6.688 7.14-6.688 7.14-18.11 0-11.765-7.328-18.296-7.328-6.516-20.656-6.516-4.593 0-9.36.781-4.75.782-9.827 2.344v9.922q4.39-2.39 9.078-3.563 4.687-1.171 9.906-1.171 8.453 0 13.375 4.437 4.938 4.438 4.938 12.063 0 7.609-4.938 12.047-4.922 4.453-13.375 4.453-3.953 0-7.89-.875-3.922-.875-8.016-2.735z" id="DejaVuSans-53"/></defs><use xlink:href="#DejaVuSans-8722"/><use x="83.789" xlink:href="#DejaVuSans-55"/><use x="147.412" xlink:href="#DejaVuSans-53"/></g></g><g id="ytick_2"><g style="fill:#696969" transform="matrix(.16 0 0 -.16 73.733 487.683)" id="text_10"><defs><path d="M31.781 66.406q-7.61 0-11.453-7.5Q16.5 51.422 16.5 36.375q0-14.984 3.828-22.484 3.844-7.5 11.453-7.5 7.672 0 11.5 7.5 3.844 7.5 3.844 22.484 0 15.047-3.844 22.531-3.828 7.5-11.5 7.5zm0 7.813q12.266 0 18.735-9.703 6.468-9.688 6.468-28.141 0-18.406-6.468-28.11-6.47-9.687-18.735-9.687-12.25 0-18.718 9.688-6.47 9.703-6.47 28.109 0 18.453 6.47 28.14Q19.53 74.22 31.78 74.22z" id="DejaVuSans-48"/></defs><use xlink:href="#DejaVuSans-8722"/><use x="83.789" xlink:href="#DejaVuSans-53"/><use x="147.412" xlink:href="#DejaVuSans-48"/></g></g><g id="ytick_3"><g style="fill:#696969" transform="matrix(.16 0 0 -.16 73.733 422.545)" id="text_11"><defs><path d="M19.188 8.297h34.421V0H7.33v8.297q5.609 5.812 15.296 15.594 9.703 9.797 12.188 12.64 4.734 5.313 6.609 9 1.89 3.688 1.89 7.25 0 5.813-4.078 9.469-4.078 3.672-10.625 3.672-4.64 0-9.797-1.61-5.14-1.609-11-4.89v9.969Q13.767 71.78 18.938 73q5.188 1.219 9.485 1.219 11.328 0 18.062-5.672 6.735-5.656 6.735-15.125 0-4.5-1.688-8.531-1.672-4.016-6.125-9.485-1.218-1.422-7.765-8.187-6.532-6.766-18.453-18.922z" id="DejaVuSans-50"/></defs><use xlink:href="#DejaVuSans-8722"/><use x="83.789" xlink:href="#DejaVuSans-50"/><use x="147.412" xlink:href="#DejaVuSans-53"/></g></g><g id="ytick_4"><use xlink:href="#DejaVuSans-48" style="fill:#696969" transform="matrix(.16 0 0 -.16 97.32 357.407)" id="text_12"/></g><g id="ytick_5"><g style="fill:#696969" transform="matrix(.16 0 0 -.16 87.14 292.269)" id="text_13"><use xlink:href="#DejaVuSans-50"/><use x="63.623" xlink:href="#DejaVuSans-53"/></g></g><g id="ytick_6"><g style="fill:#696969" transform="matrix(.16 0 0 -.16 87.14 227.13)" id="text_14"><use xlink:href="#DejaVuSans-53"/><use x="63.623" xlink:href="#DejaVuSans-48"/></g></g><g id="ytick_7"><g style="fill:#696969" transform="matrix(.16 0 0 -.16 87.14 161.993)" id="text_15"><use xlink:href="#DejaVuSans-55"/><use x="63.623" xlink:href="#DejaVuSans-53"/></g></g><g id="ytick_8"><g style="fill:#696969" transform="matrix(.16 0 0 -.16 76.96 96.855)" id="text_16"><defs><path d="M12.406 8.297h16.11v55.625l-17.532-3.516v8.985l17.438 3.515h9.86V8.296H54.39V0H12.406z" id="DejaVuSans-49"/></defs><use xlink:href="#DejaVuSans-49"/><use x="63.623" xlink:href="#DejaVuSans-48"/><use x="127.246" xlink:href="#DejaVuSans-48"/></g></g><g style="fill:#696969" transform="matrix(0 -.2 -.2 0 65.573 379.813)" id="text_17"><defs><path d="M51.125 44H36.922l-4.11-16.313h14.313zm-7.328 27.781-5.078-20.265h14.265L58.11 71.78h7.813L60.89 51.516h15.234V44h-17.14l-4-16.313h15.53V20.22H53.079L48 0h-7.813l5.032 20.219H30.906L25.875 0h-7.86l5.079 20.219H7.719v7.468h17.187L29 44H13.281v7.516h17.625l4.985 20.265z" id="DejaVuSans-35"/><path d="M30.61 48.39q-7.22 0-11.422-5.64-4.204-5.64-4.204-15.453 0-9.813 4.172-15.453 4.188-5.64 11.453-5.64 7.188 0 11.375 5.655 4.203 5.672 4.203 15.438 0 9.719-4.203 15.406-4.187 5.688-11.375 5.688zm0 7.61q11.718 0 18.406-7.625 6.703-7.61 6.703-21.078 0-13.422-6.703-21.078-6.688-7.64-18.407-7.64-11.765 0-18.437 7.64-6.656 7.656-6.656 21.078 0 13.469 6.656 21.078Q18.844 56 30.609 56z" id="DejaVuSans-111"/><path d="M37.11 75.984V68.5h-8.594q-4.828 0-6.72-1.953-1.874-1.953-1.874-7.031v-4.828h14.797v-6.985H19.922V0H10.89v47.703H2.297v6.984h8.594V58.5q0 9.125 4.25 13.297 4.25 4.187 13.468 4.187z" id="DejaVuSans-102"/><path d="M44.281 53.078v-8.5q-3.797 1.953-7.906 2.922-4.094.984-8.5.984-6.688 0-10.031-2.047-3.344-2.046-3.344-6.156 0-3.125 2.39-4.906 2.391-1.781 9.626-3.39l3.078-.688q9.562-2.047 13.593-5.781 4.032-3.735 4.032-10.422 0-7.625-6.032-12.078-6.03-4.438-16.578-4.438-4.39 0-9.156.86Q10.688.296 5.422 2v9.281q4.984-2.594 9.812-3.89 4.829-1.282 9.579-1.282 6.343 0 9.75 2.172 3.421 2.172 3.421 6.125 0 3.656-2.468 5.61-2.453 1.953-10.813 3.765l-3.125.735q-8.344 1.75-12.062 5.39-3.704 3.64-3.704 9.985 0 7.718 5.47 11.906Q16.75 56 26.811 56q4.97 0 9.36-.734 4.406-.72 8.11-2.188z" id="DejaVuSans-115"/><path d="M56.203 29.594v-4.39H14.891q.593-9.282 5.593-14.142 5-4.859 13.938-4.859 5.172 0 10.031 1.266 4.86 1.265 9.656 3.812v-8.5Q49.266.734 44.187-.344 39.11-1.422 33.892-1.422q-13.094 0-20.735 7.61-7.64 7.625-7.64 20.625 0 13.421 7.25 21.296Q20.016 56 32.328 56q11.031 0 17.453-7.11 6.422-7.093 6.422-19.296zm-8.984 2.64q-.094 7.36-4.125 11.75-4.032 4.407-10.672 4.407-7.516 0-12.031-4.25-4.516-4.25-5.203-11.97z" id="DejaVuSans-101"/></defs><use xlink:href="#DejaVuSans-35"/><use x="83.789" xlink:href="#DejaVuSans-32"/><use x="115.576" xlink:href="#DejaVuSans-111"/><use x="176.758" xlink:href="#DejaVuSans-102"/><use x="211.963" xlink:href="#DejaVuSans-32"/><use x="243.75" xlink:href="#DejaVuSans-99"/><use x="298.73" xlink:href="#DejaVuSans-97"/><use x="360.01" xlink:href="#DejaVuSans-115"/><use x="412.109" xlink:href="#DejaVuSans-101"/><use x="473.633" xlink:href="#DejaVuSans-115"/></g></g><g style="fill:#696969" transform="matrix(.24 0 0 -.24 268.746 71.76)" id="text_18"><defs><path d="M9.813 72.906h13.28l32.329-60.984v60.984h9.562V0h-13.28L19.39 60.984V0H9.813z" id="DejaVuSans-78"/><path d="M4.203 54.688h8.985l11.234-42.672 11.172 42.672h10.593l11.235-42.672 11.187 42.672h8.985L63.28 0H52.688L40.922 44.828 29.109 0H18.5z" id="DejaVuSans-119"/><path d="M64.406 67.281v-10.39q-4.984 4.64-10.625 6.922-5.64 2.296-11.984 2.296-12.5 0-19.14-7.64-6.641-7.64-6.641-22.094 0-14.406 6.64-22.047 6.64-7.64 19.14-7.64 6.345 0 11.985 2.296 5.64 2.297 10.625 6.938V5.609Q59.234 2.094 53.437.33q-5.78-1.75-12.218-1.75-16.563 0-26.094 10.124-9.516 10.14-9.516 27.672 0 17.578 9.516 27.703 9.531 10.14 26.094 10.14 6.531 0 12.312-1.734 5.797-1.734 10.875-5.203z" id="DejaVuSans-67"/><path d="M3.328 72.906h9.953L28.61 11.281l15.282 61.625h11.093l15.328-61.625 15.282 61.625h10.015L77.297 0H64.89L49.516 63.281 33.984 0H21.578z" id="DejaVuSans-87"/><path d="M9.078 75.984h9.031V31.11l26.813 23.578H56.39l-29-25.578L57.625 0H45.906L18.11 26.703V0H9.08z" id="DejaVuSans-107"/><path d="M4.89 31.39h26.313v-8H4.891z" id="DejaVuSans-45"/><path d="M2.984 54.688H12.5L29.594 8.797l17.093 45.89h9.516L35.687 0H23.485z" id="DejaVuSans-118"/><path d="M11.719 12.406h10.297V0H11.719zm0 39.297h10.297v-12.39H11.719z" id="DejaVuSans-58"/><path d="M45.406 27.984q0 9.766-4.031 15.125-4.016 5.375-11.297 5.375-7.219 0-11.25-5.375-4.031-5.359-4.031-15.125 0-9.718 4.031-15.093t11.25-5.375q7.281 0 11.297 5.375 4.031 5.375 4.031 15.093zm8.985-21.203q0-13.953-6.203-20.765Q42-20.797 29.203-20.797q-4.734 0-8.937.703-4.203.703-8.157 2.172v8.735q3.954-2.141 7.813-3.157 3.86-1.031 7.86-1.031 8.843 0 13.234 4.61 4.39 4.609 4.39 13.937v4.453q-2.781-4.844-7.125-7.234Q33.938 0 27.875 0 17.828 0 11.672 7.656q-6.156 7.672-6.156 20.328 0 12.688 6.156 20.344Q17.828 56 27.875 56q6.063 0 10.406-2.39 4.344-2.391 7.125-7.22v8.297h8.985z" id="DejaVuSans-103"/></defs><use xlink:href="#DejaVuSans-78"/><use x="74.805" xlink:href="#DejaVuSans-101"/><use x="136.328" xlink:href="#DejaVuSans-119"/><use x="218.115" xlink:href="#DejaVuSans-32"/><use x="249.902" xlink:href="#DejaVuSans-67"/><use x="319.727" xlink:href="#DejaVuSans-97"/><use x="381.006" xlink:href="#DejaVuSans-115"/><use x="433.105" xlink:href="#DejaVuSans-101"/><use x="494.629" xlink:href="#DejaVuSans-115"/><use x="546.729" xlink:href="#DejaVuSans-32"/><use x="578.516" xlink:href="#DejaVuSans-87"/><use x="671.518" xlink:href="#DejaVuSans-101"/><use x="733.041" xlink:href="#DejaVuSans-101"/><use x="794.564" xlink:href="#DejaVuSans-107"/><use x="852.475" xlink:href="#DejaVuSans-45"/><use x="890.434" xlink:href="#DejaVuSans-111"/><use x="951.615" xlink:href="#DejaVuSans-118"/><use x="1010.795" xlink:href="#DejaVuSans-101"/><use x="1072.318" xlink:href="#DejaVuSans-114"/><use x="1107.057" xlink:href="#DejaVuSans-45"/><use x="1139.141" xlink:href="#DejaVuSans-87"/><use x="1232.143" xlink:href="#DejaVuSans-101"/><use x="1293.666" xlink:href="#DejaVuSans-101"/><use x="1355.189" xlink:href="#DejaVuSans-107"/><use x="1413.1" xlink:href="#DejaVuSans-58"/><use x="1446.791" xlink:href="#DejaVuSans-32"/><use x="1478.578" xlink:href="#DejaVuSans-55"/><use x="1542.201" xlink:href="#DejaVuSans-32"/><use x="1573.988" xlink:href="#DejaVuSans-97"/><use x="1635.268" xlink:href="#DejaVuSans-118"/><use x="1694.447" xlink:href="#DejaVuSans-103"/></g><g id="legend_1"><path d="M694.75 184.5H831.2q3.2 0 3.2-3.2V88.96q0-3.2-3.2-3.2H694.75q-3.2 0-3.2 3.2v92.34q0 3.2 3.2 3.2z" style="fill:none;opacity:.8;stroke:#ccc;stroke-linejoin:miter" id="patch_5"/><path d="M697.95 98.718h32" style="fill:none;stroke:#000;stroke-linecap:round;stroke-width:1.5" id="line2d_6"/><g style="fill:#696969" transform="matrix(.16 0 0 -.16 742.75 104.317)" id="text_19"><defs><path d="M8.688 72.906h9.921V28.61q0-11.718 4.235-16.875 4.25-5.14 13.781-5.14 9.469 0 13.719 5.14 4.25 5.157 4.25 16.875v44.297H64.5V27.391q0-14.25-7.063-21.532-7.046-7.28-20.812-7.28-13.828 0-20.89 7.28-7.047 7.282-7.047 21.532z" id="DejaVuSans-85"/><path d="M53.516 70.516V60.89q-5.61 2.687-10.594 4-4.984 1.328-9.625 1.328-8.047 0-12.422-3.125t-4.375-8.89q0-4.845 2.906-7.313 2.907-2.453 11.016-3.97l5.953-1.218q11.031-2.11 16.281-7.406 5.25-5.297 5.25-14.172 0-10.61-7.11-16.078-7.093-5.469-20.812-5.469-5.172 0-11.015 1.172Q13.14.922 6.89 3.219v10.156q6-3.36 11.765-5.078 5.766-1.703 11.328-1.703 8.438 0 13.032 3.312 4.593 3.328 4.593 9.485 0 5.359-3.297 8.39-3.296 3.032-10.812 4.547L27.484 33.5q-11.03 2.188-15.968 6.875-4.922 4.688-4.922 13.047 0 9.672 6.812 15.234 6.813 5.563 18.766 5.563 5.14 0 10.453-.938 5.328-.922 10.89-2.765z" id="DejaVuSans-83"/></defs><use xlink:href="#DejaVuSans-85"/><use x="73.193" xlink:href="#DejaVuSans-83"/></g><path d="M697.95 122.203h32" style="fill:none;stroke:#009e73;stroke-linecap:round;stroke-width:1.5" id="line2d_8"/><g style="fill:#696969" transform="matrix(.16 0 0 -.16 742.75 127.802)" id="text_20"><use xlink:href="#DejaVuSans-78"/><use x="74.805" xlink:href="#DejaVuSans-74"/></g><path d="M697.95 145.688h32" style="fill:none;stroke:#d55e00;stroke-linecap:round;stroke-width:1.5" id="line2d_10"/><g style="fill:#696969" transform="matrix(.16 0 0 -.16 742.75 151.287)" id="text_21"><defs><path d="M19.672 34.813V8.108H35.5q7.953 0 11.781 3.297 3.844 3.297 3.844 10.078 0 6.844-3.844 10.078-3.828 3.25-11.781 3.25zm0 29.984V42.828h14.61q7.218 0 10.75 2.703 3.546 2.719 3.546 8.282 0 5.515-3.547 8.25-3.531 2.734-10.75 2.734zm-9.86 8.11h25.204q11.28 0 17.375-4.688Q58.5 63.53 58.5 54.89q0-6.703-3.125-10.657-3.125-3.953-9.188-4.922 7.282-1.562 11.313-6.53 4.031-4.954 4.031-12.376 0-9.765-6.64-15.093Q48.25 0 35.984 0H9.812z" id="DejaVuSans-66"/></defs><use xlink:href="#DejaVuSans-66"/><use x="68.604" xlink:href="#DejaVuSans-101"/><use x="130.127" xlink:href="#DejaVuSans-114"/><use x="169.49" xlink:href="#DejaVuSans-103"/><use x="232.967" xlink:href="#DejaVuSans-101"/><use x="294.49" xlink:href="#DejaVuSans-110"/></g><path d="M697.95 169.173h32" style="fill:none;stroke:#0072b2;stroke-linecap:round;stroke-width:1.5" id="line2d_12"/><g style="fill:#696969" transform="matrix(.16 0 0 -.16 742.75 174.773)" id="text_22"><defs><path d="M44.39 34.188q3.172-1.079 6.172-4.594 3-3.516 6.032-9.672L66.609 0H56l-9.313 18.703q-3.624 7.328-7.015 9.719-3.39 2.39-9.25 2.39h-10.75V0h-9.86v72.906h22.266q12.5 0 18.656-5.234 6.157-5.219 6.157-15.766 0-6.89-3.203-11.437-3.204-4.532-9.297-6.282zM19.673 64.797V38.922h12.406q7.125 0 10.766 3.297 3.64 3.297 3.64 9.687 0 6.39-3.64 9.64-3.64 3.25-10.766 3.25z" id="DejaVuSans-82"/><path d="M54.89 33.016V0h-8.984v32.719q0 7.765-3.031 11.61-3.031 3.858-9.078 3.858-7.281 0-11.484-4.64-4.204-4.625-4.204-12.64V0H9.08v75.984h9.03V46.188q3.235 4.937 7.594 7.374Q30.078 56 35.797 56q9.422 0 14.25-5.828 4.844-5.828 4.844-17.156z" id="DejaVuSans-104"/><path d="M45.406 46.39v29.594h8.985V0h-8.985v8.203Q42.578 3.328 38.25.953q-4.313-2.375-10.375-2.375-9.906 0-16.14 7.906-6.22 7.922-6.22 20.813 0 12.89 6.22 20.797Q17.968 56 27.874 56q6.063 0 10.375-2.375 4.328-2.36 7.156-7.234zm-30.61-19.093q0-9.906 4.079-15.547 4.078-5.64 11.203-5.64 7.125 0 11.219 5.64 4.11 5.64 4.11 15.547 0 9.906-4.11 15.547-4.094 5.64-11.219 5.64-7.125 0-11.203-5.64-4.078-5.64-4.078-15.547z" id="DejaVuSans-100"/></defs><use xlink:href="#DejaVuSans-82"/><use x="64.982" xlink:href="#DejaVuSans-117"/><use x="128.361" xlink:href="#DejaVuSans-116"/><use x="167.57" xlink:href="#DejaVuSans-104"/><use x="230.949" xlink:href="#DejaVuSans-101"/><use x="292.473" xlink:href="#DejaVuSans-114"/><use x="333.586" xlink:href="#DejaVuSans-102"/><use x="368.791" xlink:href="#DejaVuSans-111"/><use x="429.973" xlink:href="#DejaVuSans-114"/><use x="469.336" xlink:href="#DejaVuSans-100"/></g></g></g></g><defs><clipPath id="p3b16589861"><path d="M117 77.76h725.4v498.96H117z"/></clipPath></defs></svg>