<svg height="864" viewBox="0 0 936 648" width="1248" xmlns="http://www.w3.org/2000/svg" xmlns:xlink="http://www.w3.org/1999/xlink"><defs><style>*{stroke-linecap:butt;stroke-linejoin:round}</style></defs><g id="figure_1"><path d="M0 648h936V0H0z" style="fill:#fff" id="patch_1"/><g id="axes_1"><path d="M117 576.72h725.4V77.76H117z" style="fill:none" id="patch_2"/><g id="PolyCollection_1"><defs><path d="M150.755-96.823H194.562l.782-.513.783.067.782.044.782-.27.783.053.782-.845.782-.74.782-1.523.783.039.782-.653.782-.36.782-1.317.783-2.148.782-1.719.782.461.783-1.616.782-4.615.782-2.457.782-.4.783-.32.782.085.782-1.308.782-2.117.783.031.782.024.782-1.16.782.535.783.189.782-2.315.782-1.202.783 4.222.782 4.774.782-.136.782 1.221.783-.381.782 2.113.782.064.782-.065.783-.143.782.024.782 1.178.783.487.782.126.782-.206.782-.29.783.098.782 1.91.782 1.29.782 2.003.783 2.24.782 2.67.782 1.091.783.15.782.364.782-1.54.782.176.783.518.782.508.782.774.782-.52.783-.476.782-.925.782-.48.783-.313.782.323.782.009.782-.009.783 1.534.782 1.116.782.404.782.446.783-.309.782.073.782.04.783-1.087.782-.084.782-.108.782-.14.783-.126.782-.166.782-.236.782-.03.783.008.782-.35.782-.073.782.28.783-.1.782-.194.782 1.244.783.1.782.07.782.048.782.035.783.022.782.012.782-.714.782.334.783-.06.782-.424.782-.032.783-.037.782-.042.782-1.16.782.43.783-.257.782.052.782.02.782-.01.783-.041.782-1.23.782-.228.783.359h.782l.782-.359.782-.062.783-.126.782.673.782-.415.782.298.783-.065.782-.084.782-.11.783-.165.782 2.505.782-.613.782-.314.783.022.782.746.782.008.782-.03.783.391.782.362.782.007.783-.403.782-.086.782-.133.782-.218.783-.353.782 1.096.782-.025.782.332.783.04.782.017.782-.005.782.396.783.044.782-.343.782.35.783-.386.782-.051.782-.07.782-.223.783-.029.782.327.782-.35.782-.311.783.03.782.023h.782l.783-.603.782.075.782-.274.782.375.783.014.782.001.782-.009.782-.021.783-1.304.782.37.782.34.783-.026.782-.047.782-.074.782-.335.783.333.782.35.782-.021.782-.024.783-.027.782-.03.782-.036.783.724.782-.359.782.012.782.004.783-.004.782-1.01.782.998.782-.373h3.13l.782.353.782.002.782.752.783.467.782.084.782.064.782.05.783.332.782-.33.782-1.4.782-2.6.783-.237.782.322.782.243.783-.445.782-1.66.782-.045.782-1.391.783-1.35.782-.738.782-.838.782-.077.783.032.782-.043.782 2.874.783.443.782-.311.782-.387.782-1.812.783.534.782-1.583.782-.043.782-.002.783 1.024.782.947.782-3.627.783-.396.782-.9.782-.696.782-1.31.783.249.782.11.782-3.795.782.4.783 1.877.782-3.716.782-.36.783.009.782-.395.782-1.429.782-3.594.783-1.45.782-1.423.782-2.532.782-1.293.783.048.782 1.802.782-1.427.783-2.416.782 5.522.782 1.986.782-7.422.783-.717.782-.188.782 1.235.782-.012.783-2.958.782-3.127.782-1.526.782.43.783 1.23.782-1.109.782.561.783-5.703.782-2.774.782 7.003.782-.064.783-.198.782-1.199.782.555.782 5.361.783 2.947.782 4.904.782.766.783-5.484.782 1.946.782-7.67.782 4.206.783 2.307.782-.146.782-.245.782-5.873.783.903.782-4.153.782-2.92.783 5.991.782-.365.782-.545.782-2.044.783-3.662.782 4.55.782-3.333.782-3.98.783-3.083.782-.007.782 2.853.783-2.144.782 1.453.782.461.782-3.533.783-.247.782-.495.782 11.548.782-.813.783 1.353.782 4.695.782 4.339.782 4.674.783.722.782-2.867.782 2.615.783 3.47.782 1.593.782-2.818.782-3.052.783-2.097.782-.51.782 7.043.782-6.612.783-2.041.782-1.623.782.045.783.041.782 5.14.782-1.072.782.395.783-.022.782 4.289.782-.515.782.099.783.022.782-5.082.782 7.724.783 2.125.782.825.782-.1.782-2.986.783 4.525.782.471.782.382.782-2.747.783-1.457.782 2.404.782-.105.783-5.63.782.289.782-.257.782.14.783-2.681.782.324.782 2.517.782-3.315.783.627.782-1.538.782-.316.783 1.348.782-.463.782-.752.782-2.283.783.886.782-.863.782-.305.782 3.173.783.023.782-.3.782-3.398.782-.583.783.435.782 2.098.782-.724.783-.033.782-2.946.782 4.204.782-.34.783 1.845.782-5.078.782-1.204.782.073.783-.038.782 2.452.782-.681 1.565-.65v-.054l.782.644.782-.416.783 3.23.782.314.782 1.165.782-.883.783 2.489.782 1.755.782-1.76.783-.107.782 5.515.782 3.147.782 1.528.783.59.782.068.782.176.782-.017.783 1.384.782.682.782.46.783 2.91.782-1.499.782.96.782-.866.783.104.782-.07.782-.06.782 1.8.783 1.081.782-.084.782-.257.783.563.782.984.782.663.782 1.731.783 3.68.782.781.782.222.782.864.783.378.782 2.178.782.454.782.805.783-.073.782-.262.782 1.154.783-.323.782-.456.782-1.217.782-.174.783-.214.782-.323.782-.338.782-.47.783-.49.782.227.782-.04.783-.052.782-.068.782-.044.782-.971.783.022.782.7.782-.003.782-.005.783-.006.782-.008.782-.01.783.36h3.911l.782 1.14.782.44.783.1.782-1.415.782-.015.783-.018.782-.019.782-.02h.782l.783-.33.782.02.782.017.782.016.783.014.782-.044.782-.137.783-.587.782 1.093.782.034.782.03.783.024.782.021.782-.35.782-.35h4.694l.782-.35.783-1.412.782.175.782.103.782-5.75.783.196.782.573.782-1.136.782-1.14.783.367.782.171.782-2.22.783-.955.782-.489.782-.382.782 1.202.783-.85.782-1.412.782 3.6.782-.561.783-2.094.782.208.782 1.122.783.067.782.062.782-1.078.782.217.783-.245.782-1.059.782.202.782-.194.783-.281.782 2.986.782-.23.783 1.685.782.594.782.992.782.21.783.155.782 1.2.782-1.79.782-2.194.783.498.782-1.858.782-.118.782-.13.783.747.782-2.45.782-.958.783 1.84.782-1.602.782.034.782-.076.783-1.014.782 1.09.782.91.782-2.31.783.268.782-.13.782-.196.783-4.315.782 3.804.782.35.782-1.778.783.715.782.007h.782l.782 1.78.783-.023.782-.138.782 1.563.783.126.782.107.782.092.782 3.194.783-.08.782-.194.782 1.89.782-2.942.783-.205.782-.291.782 1.335.783-1.217.782.489.782.656.782.669.783-.1.782-.188.782-1.404.782-.337.783 1.797.782-1.486.782 3.37.783.11.782.031.782-.67.782 1.845.783.872.782.139.782.505.782.104.783.06.782-.123.782-.65.782.237.783 1.026.782.05.782-.005.783-.063.782-1.394.782-.44.782-2.692.783.888.782-1.635.782.316.782.227.783.8.782.077.782-.617.783-1.044.782-.418.782-.192.782-.35.783-3.391.782-.948.782.894.782.01.783 2.404.782-.064.782-.084.783-4.68.782-.855.782.097.782-1.465.783-1.67.782.2.782.006.782.811.783-1.5.782-1.462.782-2.944.783-2.978.782.103.782-.288.782.992.783-2.04.782-4.781.782-4.2.782 1.317.783-11.866.782-2.152.782-.167.783-4.832.782-8.573.782-5.488.782-2.308.783.235.782-1.546.782-1.8.782-12.494.783-11.617.782-6.02.782-14.684.782-2.704.783-15.131.782-8.299.782-.146.783-4.961.782-12.223.782-9.475.782-20.09.783-13.11.782-1.654.782 2.804.782-.107.783-4.643.782 5.203.782 6.513.783 12.841.782 3.85.782 4.546.782 15.875.783 25.952.782 21.164.782 22.68.782 21.129.783 11.695.782 12.545.782 17.661.783 10.23.782 9.423.782 1.225.782 2.797.783 6 .782-1.715.782-.673.782.15.783-.132.782 3.104.782-2.8.783-3.812.782-2.222.782-1.854.782 3.502.783-2.01.782 2.021.782-.573.782.918.783.06.782-.212.782-1.963.783-1.15.782.135.782 1.467.782.141.783.457.782-3.537.782.306.782-.822.783-1.089.782.021.782-.118.782-.03.783.718.782.684.782.659.783 1.553.782-.197.782.516.782.504.783-1.448.782-.018.782.7.782.646.783-.075.782-.143.782-2.64.783-.7.782-.215.782-.449.782.162.783.756.782.334.782.259.782 4.463.783 1 .782-4.218.782.998.783-.057.782-.06.782 3.437.782 1.356.783 1.746.782-11.803.782.374.782.354.783.313.782.272.782.098.783-.06.782-8.23.782.774.782.497.783.275.782-.245.782-.72.782-10.683.783 13.449.782-.244.782-.293.782-.352.783-.422.782-.514.782-.646.783-2.457.782-.008.782-.01.782-.009.783-.01.782-.012.782 9.678.782-16.606.783.599.782.42.782.285.783.176.782.076.782-.02.782-2.543.783.15.782.054.782-.04.782-.137.783-.24.782-3.76.782-11.654v-8.991l-.782 17.74-.782-3.759-.783-.24-.782-.137-.782-.04-.782.054-.783.15-.782 3.056-.782-.02-.782.077-.783.175-.782.286-.782.42-.783.598-.782 18.39-.782-11.32-.782-.01-.783-.011-.782-.01-.782-.01-.782-.007-.783 2.442-.782-.646-.782-.514-.783-.423-.782-.351-.782-.293-.782-.244-.783-13.848-.782 10.314-.782-.72-.782-.245-.783.276-.782.497-.782.774-.782 10.668-.783-.06-.782.097-.782.272-.783.313-.782.354-.782.374-.782 12.694-.783-1.054-.782-.744-.782-2.861-.782-.061-.783-.056-.782-1.102-.782 4.18-.783-.4-.782-3.935-.782-.44-.782-.367-.783-.644-.782.162-.782.95-.782.486-.783.7-.782 2.259-.782-.143-.783-.075-.782-.753-.782-.7-.782-.019-.783 1.352-.782-.196-.782-.184-.782.503-.783-1.246-.782-.742-.782-.715-.783-.681-.782-.031-.782-.118-.782-.68-.783.312-.782-.822-.782-1.094-.782 1.362-.783-1.643-.782-1.258-.782-2.033-.783-.564-.782-.45-.782.136-.782-1.612-.783-2.04-.782-2.58-.782-2.674-.782-4.978-.783-.61-.782-6.996-.782-3.254-.782-5.022-.783-3.112-.782-2.8-.782-9.495-.783-7.83-.782-8.25-.782-9.07-.782-7.316-.783-11.497-.782-6.301-.782-4.374-.782-10.174-.783-9.368-.782-13.135-.782-7.052-.783-4.403-.782-10.366-.782-9.516-.782-8.232-.783-16.042-.782-14.92-.782-8.753-.782-8.748-.783-20.054-.782-16.584-.782-12.295-.783-1.843-.782-4.307-.782-5.594-.782 1.846-.783 18.384-.782 26.104-.782 13.622-.782 16.473-.783 7.638-.782 2.653-.782 13.398-.783 21.264-.782 6.394-.782 17.512-.782 7.978-.783 13.58-.782 12.703-.782.998-.782 2.654-.783 2.335-.782 6.79-.782 10.61-.782 13.124-.783 7.766-.782 2.633-.782 6.247-.783 16.83-.782-.082-.782 6.298-.782 5.717-.783 2.16-.782-1.108-.782-.288-.782.103-.783 4.02-.782 4.056-.782 2.037-.783 2-.782-.588-.782.005-.782.2-.783 2.53-.782 2.034-.782.097-.782 1.245-.783 5.119-.782-.085-.782-.064-.783-2.494-.782.009-.782-.505-.782 1.151-.783 3.609-.782-.35-.782-.193-.782.282-.783 1.055-.782.783-.782.078-.783-.6-.782.227-.782.315-.782 2.565-.783-.512-.782 3.607-.782.26-.782.706-.783-.063-.782-.006-.782.051-.783-1.773-.782-.464-.782.05-.782-.122-.783.06-.782.103-.782-.194-.782.138-.783-.527-.782-1.656-.782.73-.782.032-.783.11-.782-2.93-.782 1.315-.783-1.703-.782.363-.782 1.395-.782-.188-.783-.1-.782-.73-.782-.744-.782-.91-.783.882-.782-1.464-.782-.291-.783-.206-.782 2.657-.782-1.61-.782.507-.783.62-.782-3.106-.782.092-.782.108-.783.126-.782-1.237-.782-.138-.783-.023-.782-1.72h-.782l-.782.007-.783-.685-.782 1.722-.782-.35-.782-3.895-.783 4.784-.782-.195-.782-.131-.783-.432-.782 1.89-.782-1.19-.782-1.71-.783.386-.782-.075-.782.033-.782 1.898-.783-1.66-.782 1.842-.782 3.148-.783-.651-.782-.13-.782-.119-.782 1.642-.783-.902-.782 2.005-.782 1.71-.782-.9-.783.154-.782.211-.782-.408-.782-.106-.783-1.114-.782.47-.782-2.613-.783-.281-.782-.195-.782-.498-.782.341-.783-.244-.782-.484-.782 1.022-.782.062-.783.067-.782-.978-.782-.491-.783 1.405-.782.14-.782-4.1-.782-1.413-.783-.85-.782-2.296-.782-.383-.782.212-.783 1.144-.782 2.68-.782.17-.783.368-.782 2.36-.782 2.362-.782.573-.783 1.597-.782 8.947-.782.103-.782.175-.783 2.087-.782.35h-4.694l-.782.35-.782.35-.782.021-.783.025-.782.029-.782.035-.783-1.007-.782.112-.782-.137-.782-.043-.783.014-.782.016-.782.017-.782.02-.783.37h-.782l-.782-.02-.782-.02-.783-.017-.782-.016-.782 1.385-.783.1-.782-.26-.782-.96h-3.911l-.783-.339-.782-.01-.782-.008-.783-.007-.782-.004-.782-.003-.782-.7-.783.022-.782 1.129-.782-.045-.782-.067-.783-.052-.782-.04-.782-.474-.783.211-.782-.47-.782-.338-.782-.324-.783-.213-.782-.174-.782.182-.782-.456-.783-.323-.782-1.646-.782-.262-.783-.073-.782-.594-.782-.246-.782-2.021-.783-.322-.782-.536-.782.222-.782.082-.783-2.62-.782-1.069-.782-.737-.782-1.115-.783-.837-.782-.257-.782-.085-.783-1.017-.782-1.7-.782-.06-.782-.07-.783-.596-.782-.866-.782-1.84-.782 1.3-.783-2.688-.782-.94-.782-.718-.783-1.415-.782-.017-.782-.525-.782.068-.783-.11-.782-.571-.782-1.753-.782-4.283-.783-.108-.782 1.74-.782-1.044-.783-1.71-.782.516-.782-.935-.782-.385-.783-3.07-.782.284-.782-.755v-.055l-1.565.75-.782.719-.782-2.447-.783-.038-.782.073-.782 1.596-.782 5.42-.783-1.654-.782.36-.782-4.195-.782 3.353-.783-.033-.782.675-.782-2.1-.783-.266-.782.817-.782 3.6-.782-.299-.783.023-.782-3.127-.782-.304-.782.537-.783-1.214-.782 2.616-.782-.752-.782-.463-.783-1.452-.782.384-.782 1.262-.783-.773-.782 3.684-.782-2.382-.782.324-.783 3.619-.782.14-.782.442-.782-2.51-.783 5.568-.782-.105-.782-2.496-.783 1.344-.782 2.151-.782-.317-.782-.23-.783-3.873-.782 1.913-.782-.1-.782-.574-.783-1.375-.782-6.974-.782 4.717-.783.022-.782.1-.782.884-.782-3.41-.783-.023-.782-.305-.782 1.028-.782-5.358-.783.041-.782.044-.782 1.177-.783.759-.782 4.586-.782-7.655-.782-.51-.783-2.097-.782.448-.782 1.382-.782-1.208-.783-2.828-.782-2.285-.782 3.432-.783.722-.782-2.324-.782-1.96-.782-3.005-.783-1.446-.782 1.286-.782-11.548-.782-.495-.783-.247-.782 3.465-.782-.239-.782-1.346-.783 2.055-.782-2.745-.782-.008-.783 3.916-.782 4.419-.782 3.667-.782-4.55-.783 4.038-.782 2.155-.782-.545-.782-.365-.783-5.908-.782 4.78-.782 4.245-.783-1.896-.782 5.325-.782-.245-.782-.146-.783-3.992-.782-4.892-.782 7.727-.782-1.553-.783 5.714-.782.766-.782-2.795-.783-1.952-.782-5.838-.782-2.244-.782.2-.783-.197-.782-.065-.782-6.994-.782 3.525-.783 6.895-.782-.14-.782 1.692-.783-.87-.782.43-.782 2.673-.782 3.873-.783 2.64-.782-.711-.782-2.265-.782-1.588-.783-.717-.782 6.577-.782-2.914-.782-6.376-.783 1.783-.782 1.373-.782-1.698-.783.048-.782 2.207-.782 3.767-.782 2.076-.783 2.05-.782 4.105-.782 1.37-.782-.394-.783.008-.782 1.04-.782 4.683-.783-1.623-.782.4-.782 5.304-.782.11-.783.25-.782 2.189-.782 1.403-.782 1.2-.783.304-.782 3.372-.782-1.153-.783-1.075-.782-.003-.782-.043-.782 1.217-.783-.866-.782.988-.782-.387-.782-.311-.783-.957-.782-3.425-.782-.742-.783-.67-.782-.075-.782 1.261-.782 1.362-.783 2.15-.782 2.108-.782.655-.782 2.54-.783.954-.782.243-.782.322-.783 1.162-.782 3.7-.782 1.4-.782.37-.783-.368-.782.05-.782.064-.782.084-.783-.233-.782-.648-.782.001-.782-.347h-3.13l-.782.327-.782-1.1-.782 1.089-.783-.004-.782.004-.782.011-.782.342-.783-.676-.782-.035-.782-.031-.783-.027-.782-.024-.782-.021-.782-.35-.783-.367-.782.365-.782-.074-.782-.047-.783-.027-.782-.358-.782-.33-.783 1.495-.782-.021-.782-.01-.782.002-.783.013-.782-.324-.782.426-.782.075-.783.797h-.782l-.782.023-.783.03-.782.388-.782.35-.782-.373-.783-.028-.782-.223-.782-.07-.782-.051-.783.313-.782-.35-.782.357-.783.044-.782-.303-.782-.005-.782.016-.783.04-.782-.367-.782-.025-.782-1.004-.783.346-.782-.218-.782-.132-.782-.086-.783.296-.782.008-.782-.338-.783-.31-.782-.029-.782.008-.782-.654-.783.022-.782.386-.782.786-.782-1.694-.783-.165-.782-.11-.782-.083-.783-.066-.782-.402-.782.286-.782-.727-.783-.127-.782-.062-.782.342h-.782l-.783-.342-.782.472-.782 1.57-.783-.041-.782-.01-.782.02-.782.052-.783.443-.782-.27-.782 1.64-.782-.043-.783-.036-.782-.033-.782.277-.783-.06-.782-.366-.782.685-.782.012-.783.023-.782.034-.782.05-.782.068-.783.1-.782-.856-.782-.193-.783-.101-.782-.419-.782-.073-.782.35-.783.007-.782-.029-.782-.237-.782-.165-.783-.127-.782-.14-.782-.107-.782-.084-.783 1.012-.782.04-.782.073-.783.391-.782-.254-.782-.296-.782-.983-.783-1.266-.782-.009-.782.009-.782-.376-.783-.313-.782-.481-.782-.225-.783-.476-.782-.52-.782-1.326-.782-.891-.783-.882-.782-.525-.782 1.26-.782-.335-.783.15-.782-.309-.782-1.53-.783-1.259-.782-1.497-.782-.81-.782-1.588-.783.098-.782-.291-.782-1.606-.782-1.274-.783-.913-.782-1.62-.782-.676-.783-.144-.782-.064-.782.063-.782-1.386-.783 1.018-.782-.178-.782 1.264-.782-2.926-.783-4.876-.782-1.902-.782-.215-.782-1.91-.783-2.265-.782-.46-.782-1.376-.783-.67-.782 2.083-.782 1.492-.782.085-.783 1.08-.782 1.699-.782 4.542-.782 6.584-.783 2.583-.782.461-.782 3.18-.783 3.451-.782 2.184-.782 1.039-.782 1.447-.783.738-.782 2.677-.782 1.36-.782 1.254-.783.053-.782.43-.782.044-.783.067-.782.887H150.755z" id="mf3c140ea93" style="stroke:#fff;stroke-opacity:.2"/></defs><g clip-path="url(#pb4c70e7d7e)"><use style="fill:#089fff;fill-opacity:.2;stroke:#fff;stroke-opacity:.2" xlink:href="#mf3c140ea93" y="648"/></g></g><g id="LineCollection_1"><path clip-path="url(#pb4c70e7d7e)" d="M195.344 551.177v-9.799M197.691 551.177v-4.9M199.256 551.177v-14.698M200.038 551.177v-14.698M200.82 551.177v-29.396M201.603 551.177v-4.9M202.385 551.177v-14.698M203.167 551.177v-9.799M203.95 551.177V526.68M204.732 551.177v-39.194M205.514 551.177v-34.295M206.296 551.177v-9.799M207.079 551.177v-29.396M207.86 551.177v-78.389M208.643 551.177v-53.892M209.425 551.177v-14.698M210.208 551.177V526.68M210.99 551.177v-14.698M211.772 551.177v-48.993M212.554 551.177v-34.295M213.337 551.177v-9.799M214.901 551.177v-29.396M215.684 551.177V531.58M216.466 551.177V531.58M217.248 551.177V526.68M218.03 551.177V526.68M218.813 551.177v-14.698M220.377 551.177V526.68M221.16 551.177v-14.698M221.942 551.177V526.68M222.724 551.177V526.68M223.506 551.177v-34.295M224.288 551.177v-9.799M225.853 551.177V526.68M227.418 551.177v-9.799M228.2 551.177v-14.698M228.982 551.177v-14.698M229.764 551.177v-14.698M234.458 551.177v-4.9M236.805 551.177V531.58M237.587 551.177V531.58M238.37 551.177v-4.9M239.152 551.177v-4.9M239.934 551.177v-4.9M243.063 551.177v-4.9M248.539 551.177v-4.9M250.886 551.177v-9.799M253.233 551.177v-14.698M254.015 551.177v-4.9M259.49 551.177v-4.9M260.273 551.177v-4.9M261.837 551.177v-4.9M264.967 551.177v-4.9M269.66 551.177v-9.799M271.225 551.177v-4.9M272.007 551.177v-4.9M272.79 551.177v-4.9M275.136 551.177V531.58M276.7 551.177v-4.9M280.612 551.177v-29.396M281.394 551.177v-4.9M282.959 551.177v-4.9M283.741 551.177v-9.799M286.088 551.177v-9.799M286.87 551.177v-4.9M292.346 551.177v-14.698M293.128 551.177v-4.9M293.91 551.177v-4.9M297.04 551.177v-4.9M299.387 551.177v-4.9M302.516 551.177v-4.9M304.08 551.177v-4.9M309.556 551.177v-4.9M311.12 551.177v-4.9M313.467 551.177v-4.9M315.814 551.177v-4.9M316.596 551.177v-4.9M319.726 551.177v-9.799M320.508 551.177v-4.9M321.29 551.177v-4.9M324.42 551.177v-4.9M325.984 551.177V531.58M330.677 551.177v-14.698M335.371 551.177v-4.9M336.936 551.177v-9.799M337.718 551.177v-4.9M340.847 551.177v-14.698M342.411 551.177v-4.9M351.799 551.177v-9.799M352.58 551.177v-4.9M353.363 551.177V526.68M354.145 551.177v-44.094M354.928 551.177v-9.799M357.275 551.177v-9.799M358.057 551.177v-29.396M358.84 551.177v-4.9M359.621 551.177V526.68M360.404 551.177V526.68M361.186 551.177v-14.698M361.968 551.177v-14.698M362.75 551.177v-9.799M364.315 551.177V531.58M368.226 551.177v-29.396M369.009 551.177V531.58M369.79 551.177V526.68M370.573 551.177V526.68M371.355 551.177V526.68M373.702 551.177v-58.792M374.485 551.177v-4.9M375.267 551.177v-34.295M376.05 551.177v-14.698M376.831 551.177V526.68M379.178 551.177V458.09M379.96 551.177V531.58M381.525 551.177v-83.288M382.307 551.177v-34.295M384.654 551.177v-78.389M385.436 551.177v-58.792M386.219 551.177v-58.792M387 551.177v-39.194M387.783 551.177v-68.59M388.565 551.177V526.68M390.13 551.177v-68.59M390.912 551.177v-39.194M391.695 551.177v-29.396M394.041 551.177v-97.986M395.606 551.177v-68.59M396.388 551.177v-34.295M397.17 551.177v-53.892M397.953 551.177v-78.389M398.735 551.177V433.593M399.517 551.177v-53.892M401.082 551.177v-53.892M401.864 551.177v-58.792M402.646 551.177V526.68M403.429 551.177v-88.188M404.21 551.177v-44.094M406.558 551.177v-68.59M407.34 551.177v-44.094M408.122 551.177v-34.295M409.687 551.177v-83.288M412.034 551.177V418.896M412.816 551.177v-34.295M413.598 551.177V418.896M414.38 551.177V526.68M417.51 551.177v-146.98M418.292 551.177V526.68M419.074 551.177V458.09M419.856 551.177v-53.892M422.985 551.177V389.5M423.768 551.177v-88.188M424.55 551.177v-68.59M425.332 551.177v-73.49M426.114 551.177v-58.792M426.897 551.177v-48.993M428.461 551.177V443.392M429.244 551.177v-53.892M430.026 551.177v-73.49M430.808 551.177v-48.993M431.59 551.177v-48.993M434.72 551.177V448.291M435.502 551.177v-48.993M436.284 551.177V531.58M437.066 551.177v-14.698M439.413 551.177V399.298M440.195 551.177V531.58M440.978 551.177v-29.396M441.76 551.177v-29.396M442.542 551.177v-78.389M443.324 551.177V526.68M446.453 551.177V423.795M447.236 551.177v-39.194M448.018 551.177v-34.295M450.365 551.177v-78.389M451.147 551.177v-34.295M451.93 551.177V526.68M452.712 551.177v-29.396M453.494 551.177V526.68M454.276 551.177v-34.295M456.623 551.177v-68.59M457.405 551.177V526.68M458.188 551.177v-14.698M458.97 551.177V526.68M460.534 551.177v-34.295M461.317 551.177V531.58M462.099 551.177v-29.396M462.881 551.177V531.58M463.663 551.177v-63.691M464.446 551.177v-44.094M466.793 551.177v-78.389M467.575 551.177v-48.993M468.357 551.177v-29.396M469.14 551.177v-14.698M469.922 551.177v-68.59M472.268 551.177v-68.59M473.05 551.177V531.58M473.833 551.177v-39.194M474.615 551.177v-68.59M475.398 551.177V526.68M477.744 551.177V438.493M478.527 551.177v-34.295M479.309 551.177v-39.194M480.091 551.177v-14.698M480.873 551.177V526.68M483.22 551.177V433.593M484.002 551.177v-29.396M484.785 551.177v-34.295M485.567 551.177v-39.194M486.35 551.177v-34.295M487.914 551.177v-44.094M488.696 551.177v-53.892M489.478 551.177v-39.194M490.26 551.177v-14.698M491.043 551.177v-88.188M491.825 551.177v-44.094M494.172 551.177v-83.288M494.954 551.177v-39.194M496.519 551.177v-44.094M496.519 551.177v-39.194M497.301 551.177V526.68M498.083 551.177v-4.9M499.648 551.177v-48.993M500.43 551.177V526.68M501.212 551.177V526.68M501.995 551.177v-58.792M502.777 551.177V526.68M503.56 551.177V526.68M505.124 551.177v-14.698M505.906 551.177v-4.9M506.688 551.177v-29.396M507.47 551.177v-34.295M508.253 551.177V526.68M510.6 551.177v-29.396M511.382 551.177v-14.698M512.164 551.177v-14.698M512.947 551.177V531.58M513.729 551.177v-44.094M514.511 551.177v-4.9M516.076 551.177v-9.799M516.858 551.177v-4.9M517.64 551.177v-29.396M518.422 551.177v-9.799M519.205 551.177v-9.799M521.552 551.177V531.58M523.116 551.177v-4.9M529.374 551.177v-4.9M534.068 551.177v-4.9M534.85 551.177v-9.799M539.544 551.177v-4.9M544.237 551.177v-14.698M545.02 551.177v-4.9M557.536 551.177V531.58M562.23 551.177v-4.9M567.706 551.177v-4.9M568.488 551.177v-4.9M572.4 551.177v-4.9M573.181 551.177v-9.799M578.657 551.177v-9.799M579.44 551.177v-29.396M581.786 551.177V448.291M582.569 551.177v-9.799M583.35 551.177v-4.9M584.133 551.177v-34.295M584.915 551.177V526.68M587.262 551.177v-34.295M588.045 551.177v-14.698M588.827 551.177v-4.9M589.61 551.177v-9.799M590.391 551.177v-4.9M592.738 551.177v-48.993M593.52 551.177v-14.698M594.303 551.177v-29.396M595.085 551.177v-29.396M595.867 551.177v-9.799M598.214 551.177v-48.993M598.996 551.177v-9.799M599.779 551.177v-4.9M600.56 551.177V531.58M603.69 551.177v-9.799M604.472 551.177V531.58M605.255 551.177v-9.799M606.037 551.177V526.68M609.166 551.177v-34.295M609.948 551.177v-34.295M610.73 551.177v-34.295M611.513 551.177v-9.799M612.295 551.177V526.68M615.424 551.177v-58.792M616.206 551.177v-29.396M617.77 551.177V526.68M620.118 551.177v-44.094M620.9 551.177v-14.698M621.682 551.177V531.58M622.464 551.177v-39.194M623.247 551.177V531.58M625.594 551.177v-63.691M626.376 551.177v-4.9M627.158 551.177V526.68M627.94 551.177V526.68M628.723 551.177v-14.698M631.07 551.177V531.58M631.852 551.177v-14.698M632.634 551.177V531.58M633.416 551.177V531.58M634.199 551.177V531.58M636.545 551.177V531.58M637.328 551.177v-9.799M638.11 551.177v-29.396M639.674 551.177v-53.892M642.804 551.177v-29.396M643.586 551.177v-9.799M644.368 551.177v-9.799M645.15 551.177v-9.799M647.497 551.177v-39.194M648.28 551.177v-14.698M649.062 551.177v-4.9M649.844 551.177V531.58M650.626 551.177v-9.799M652.973 551.177v-9.799M653.755 551.177v-4.9M655.32 551.177v-9.799M656.102 551.177v-4.9M658.449 551.177v-39.194M659.231 551.177V531.58M661.578 551.177v-9.799M663.925 551.177V526.68M664.707 551.177v-9.799M665.49 551.177v-44.094M667.054 551.177v-34.295M669.4 551.177v-29.396M670.183 551.177V531.58M670.965 551.177v-9.799M671.748 551.177v-14.698M672.53 551.177v-14.698M674.877 551.177v-73.49M675.659 551.177V526.68M676.441 551.177v-34.295M680.353 551.177v-97.986M681.135 551.177v-34.295M681.917 551.177v-9.799M682.7 551.177v-39.194M683.482 551.177v-44.094M685.828 551.177v-63.691M686.61 551.177v-48.993M687.393 551.177v-58.792M688.175 551.177v-48.993M688.958 551.177v-48.993M691.304 551.177v-83.288M692.087 551.177v-63.691M692.869 551.177v-83.288M693.651 551.177V438.493M694.433 551.177v-34.295M695.216 551.177V350.305M695.998 551.177v-58.792M696.78 551.177v-83.288M697.563 551.177v-137.18M698.345 551.177v-210.67M699.127 551.177V389.5M699.91 551.177V438.493M700.692 551.177v-14.698M701.474 551.177v-29.396M702.256 551.177V448.291M703.038 551.177V311.111M703.82 551.177V291.513M704.603 551.177v-210.67M705.385 551.177V291.513M706.167 551.177V286.614M706.95 551.177V237.621M707.732 551.177V316.01M708.514 551.177V394.399M709.297 551.177V252.319M710.079 551.177v-362.55M710.861 551.177V276.815M711.643 551.177V213.124M712.426 551.177V301.312M713.208 551.177V423.795M713.99 551.177V369.902M714.772 551.177V320.909M715.555 551.177V320.909M716.337 551.177v-137.18M717.12 551.177V448.291M717.902 551.177v-83.288M718.684 551.177v-146.98M719.466 551.177v-63.691M720.248 551.177v-83.288M721.03 551.177v-68.59M721.813 551.177v-68.59M722.595 551.177V438.493M723.377 551.177v-29.396M724.16 551.177v-14.698M724.942 551.177v-44.094M725.724 551.177v-14.698M726.507 551.177V458.09M728.071 551.177v-63.691M728.853 551.177V531.58M729.636 551.177V526.68M730.418 551.177V526.68M731.2 551.177V526.68M731.982 551.177v-9.799M732.765 551.177v-14.698M733.547 551.177V526.68M734.33 551.177v-29.396M735.112 551.177V531.58M735.894 551.177V526.68M736.676 551.177v-4.9M737.458 551.177V531.58M738.24 551.177v-9.799M739.023 551.177v-14.698M739.805 551.177v-4.9M741.37 551.177v-9.799M742.152 551.177v-14.698M742.934 551.177V526.68M743.716 551.177V531.58M744.499 551.177V531.58M745.281 551.177v-4.9M746.063 551.177v-9.799M746.846 551.177v-9.799M747.628 551.177v-39.194M748.41 551.177v-9.799M749.192 551.177v-9.799M749.975 551.177V526.68M752.321 551.177v-9.799M753.104 551.177v-4.9M753.886 551.177v-14.698M754.668 551.177v-9.799M756.233 551.177v-9.799M757.015 551.177v-4.9M757.797 551.177v-4.9M758.58 551.177v-58.792M759.362 551.177v-9.799M760.926 551.177v-14.698M763.273 551.177v-44.094M764.056 551.177v-14.698M764.838 551.177V531.58M765.62 551.177V531.58M771.096 551.177v-58.792M776.572 551.177V360.104M782.048 551.177V360.104M786.741 551.177v-146.98M793 551.177V325.809M798.475 551.177V306.211M803.951 551.177V286.614M809.427 551.177V100.44" style="fill:none;stroke:#000;stroke-dasharray:1.5,2.475;stroke-dashoffset:0;stroke-width:1.5"/></g><path clip-path="url(#pb4c70e7d7e)" d="M149.973 551.177h44.59l.781-.7h1.565l.782-.35h.783l1.564-2.1.782-2.1.783-.35.782-1.049.782-.7.782-1.75 1.565-5.249h.782l.783-2.1.782-5.599.782-3.5.782-1.05.783-.7h.782l.782-1.399.782-2.1.783.35.782.7.782-.35.782 1.4.783 1.05.782-1.05.782.35.783 4.55.782 3.849.782-.7.782.7.783-.7.782 1.75h2.347l.782.35.782 1.4 2.347 2.1h1.565l.782 1.749.782 1.05 1.565 3.5.782 2.099.782.7h.783l.782.35.782-1.4.782.35 1.565 1.4.782 1.05h1.565l.782-.35h1.565l.782.35h1.564l.783 1.4.782 1.05 1.564.7.783-.35h1.564l.783-1.05h6.258l.782-.35h.782l.782.35h1.565l.782 1.05h4.694l.782-.7.782.35h.783l.782-.35h2.347l.782-1.4.782.35.783-.35h3.129l.782-1.4.782-.35.783.35h.782l.782-.35h1.565l.782.7.782-.35.782.35h3.13l.782 2.1.782-.7.782-.35h.783l.782.7h1.564l1.565.7h.782l.783-.35h2.346l.783-.35.782 1.05h.782l.782.35h2.347l.782.35h.783l.782-.35.782.35.783-.35h3.129l.782.35 1.564-.7h2.347l.783-.7h.782l.782-.35.782.35h3.13l.782-1.4 1.564.7h2.347l.782-.35 1.565.7h3.911l.783.7.782-.35h2.347l.782-1.05.782 1.05.782-.35h3.13l.782.35h.782l.782.7.783.35h2.346l.783.35.782-.35.782-1.4.782-3.15.783-.7h1.564l.783-.7.782-2.1.782-.35 1.565-3.5 1.564-2.099h.782l1.565.7.782 3.15.783.7h1.564l.782-1.4.783.7.782-1.4h1.564l1.565 2.1.782-3.5.783-.35 1.564-2.1.782-1.75h1.565l.782-4.549h.782l.783 1.75.782-4.2.782-.7h1.565l.782-1.4.782-3.849 1.565-3.5.782-3.149.782-1.75h.783l.782 1.75.782-1.4.783-2.1.782 5.95.782 2.45.782-7h.783l.782.7.782 1.75.782.35.783-2.8.782-3.499.782-2.1h.782l.783 1.05.782-1.4.782.35.783-6.299.782-3.15.782 7h1.565l.782-.7.782 1.4.782 5.599.783 2.45.782 3.849h.782l.783-5.6.782 1.75.782-7.698.782 4.549.783 3.15h1.564l.782-5.6.783 1.4 1.564-8.049.783 5.95h1.564l.782-2.1.783-3.85.782 4.55.782-3.5.782-4.2.783-3.499h.782l.782 2.8.783-2.1.782 1.4.782.35.782-3.5h1.565l.782 11.549.782-1.05.783 1.4.782 3.85 1.564 6.648h.783l.782-3.15.782 2.45.783 3.15.782 1.4.782-2.1.782-1.75h1.565l.782 7.35.782-5.6 1.565-2.8h1.565l.782 5.25.782-1.05.782.35h.783l.782 3.85.782-.7h1.565l.782-4.9.782 7.349.783 1.75.782.7h.782l.782-2.45.783 4.2 1.564.7.782-2.45.783-1.4.782 2.45h.782l.783-5.6.782 1.4.782-.35h.782l.783-3.15h.782l.782 2.45.782-3.5.783.7.782-1.4.782-.35.783 1.4h1.564l.782-2.449.783 1.05.782-.7h.782l.782 3.15h1.565l.782-3.5.782-.7.783.35.782 2.1.782-.7h.783l.782-3.15.782 4.2.782-.35.783 1.75.782-5.25.782-1.4h1.565l.782 2.45.782-.7 1.565-.7.782.7.782-.35.783 3.15.782.35.782 1.05.782-.7.783 2.1.782 1.4.782-1.75h.783l.782 4.899.782 2.45.782 1.05.783.35h.782l.782.35h.782l.783 1.399 1.564 1.4.783 2.8.782-1.4.782 1.4h.782l.783.35h1.564l.782 1.75.783 1.049h1.564l.783.7.782 1.05.782.7.782 1.4.783 3.149.782.35h.782l.782.7.783.35.782 2.1.782.35.782.7h1.565l.782 1.4h1.565l.782-.7h3.911l.783-.35.782.35h3.13l.781-1.05h.783l.782.7h3.911l.783.35h3.91l.783 1.05.782.349h.783l.782-1.4h3.911l.783-.35h4.693l.783-.35.782 1.05h3.129l1.564-.7h4.694l.782-.35.783-1.75h1.564l.782-7.348.783-.7h.782l1.564-3.5h1.565l.782-2.45.783-1.05.782-.35h.782l.782 1.75h1.565l.782 3.85.782-.35.783-1.75.782.35.782 1.05h1.565l.782-1.05.782.35h.783l.782-.7.782.35h1.565l.782 2.8.782-.35.783 1.4.782.35.782.7h1.565l.782 1.05.782-1.75.782-2.1.783.7.782-1.75h1.564l.783.7.782-2.8.782-1.4.783 1.75.782-1.75h1.564l.783-.7.782 1.4.782 1.05.782-2.1.783.35h1.564l.783-4.549.782 3.85.782.35.782-1.75.783.7h1.564l.782 1.75h1.565l.782 1.4h2.347l.782 3.149 1.565-.7.782 1.75.782-2.8h1.565l.782 1.4.783-1.05 2.346 2.1h1.565l.782-1.4.782-.35.783 1.75.782-1.4.782 3.15h1.565l.782-.7.782 1.75.783.7h.782l.782.35h2.347l.782-.35.782.35.783 1.399h2.347l.782-1.05.782-.35.782-3.15.783.7.782-2.1h1.564l.783.7h.782l.782-.7.783-1.049.782-.35h1.564l.783-3.5.782-1.05.782.7h.782l.783 2.45h1.564l.783-4.9.782-1.049h.782l.782-1.75.783-2.1h1.564l.782.7 1.565-3.499 1.565-6.999h1.564l.782 1.05.783-2.1 1.564-10.498.782.7.783-14.349.782-4.199.782-1.4.783-6.299.782-10.848.782-8.05.782-4.549.783-1.05.782-2.1.782-1.399 1.565-25.196.782-7 .782-16.097.782-4.55.783-18.197.782-10.848.782-1.4.783-6.3.782-14.347.782-11.549.782-23.097.783-15.747.782-1.75.782 4.2.782 2.099.783-1.4.782 8.749.782 11.548.783 16.448 1.564 12.948.782 15.398.783 20.997 1.564 30.796.782 15.748.783 8.049.782 9.798.782 15.398 1.565 19.597.782 2.8.782 4.55.783 8.748.782 2.8 2.347 12.248.782 6.299h.782l.783-.35.782 1.4.782.7.782 5.25.783-.7.782 3.499.782 1.05.782 1.75.783 1.05.782.699.782-1.05.783-.35.782.35.782 1.75.782.7.783 1.05.782-2.45.782.7h.782l.783-.7.782.35h1.564l2.347 2.1.783 1.4.782-.35 1.564.7.783-1.4h.782l1.564 1.4h1.565l.782-2.45.783-.7.782-.35.782-.7h.782l.783.7 1.564.7.782 4.2.783.7.782-4.2.782 1.05h1.565l.782 3.15.782 1.049.783 1.4.782-12.248h4.694l.782-9.45h3.911l.782-10.498.783 13.648h4.693l.783-2.45h3.91l.783 10.5.782-17.498h4.694l.782-2.8h4.694l.782-14.698h0" style="fill:none;stroke:#000;stroke-linecap:round;stroke-width:1.5" id="line2d_1"/><path d="M117 576.72V77.76" style="fill:none;stroke:#d3d3d3;stroke-linecap:square;stroke-linejoin:miter;stroke-width:1.25" id="patch_3"/><path d="M117 576.72h725.4" style="fill:none;stroke:#d3d3d3;stroke-linecap:square;stroke-linejoin:miter;stroke-width:1.25" id="patch_4"/><g id="matplotlib.axis_1"><g id="xtick_1"><g style="fill:#696969" transform="matrix(.16 0 0 -.16 121.995 598.378)" id="text_1"><defs><path d="M9.813 72.906h9.859V5.078q0-13.187-5-19.14-5-5.954-16.094-5.954h-3.75v8.297h3.078q6.531 0 9.219 3.672Q9.813-4.39 9.813 5.078z" id="DejaVuSans-74"/><path d="M34.281 27.484q-10.89 0-15.093-2.484-4.204-2.484-4.204-8.5 0-4.781 3.157-7.594 3.156-2.797 8.562-2.797 7.485 0 12 5.297 4.516 5.297 4.516 14.078v2zm17.922 3.72V0H43.22v8.297Q40.14 3.328 35.547.953q-4.594-2.375-11.234-2.375-8.391 0-13.36 4.719Q6 8.016 6 15.922q0 9.219 6.172 13.906 6.187 4.688 18.437 4.688h12.61v.89q0 6.203-4.078 9.594-4.078 3.39-11.453 3.39-4.688 0-9.141-1.124-4.438-1.125-8.531-3.375v8.312q4.921 1.906 9.562 2.844 4.64.953 9.031.953 11.875 0 17.735-6.156 5.86-6.14 5.86-18.64z" id="DejaVuSans-97"/><path d="M54.89 33.016V0h-8.984v32.719q0 7.765-3.031 11.61-3.031 3.858-9.078 3.858-7.281 0-11.484-4.64-4.204-4.625-4.204-12.64V0H9.08v54.688h9.03v-8.5q3.235 4.937 7.594 7.374Q30.078 56 35.797 56q9.422 0 14.25-5.828 4.844-5.828 4.844-17.156z" id="DejaVuSans-110"/></defs><use xlink:href="#DejaVuSans-74"/><use x="29.492" xlink:href="#DejaVuSans-97"/><use x="90.771" xlink:href="#DejaVuSans-110"/></g></g><g id="xtick_2"><g style="fill:#696969" transform="matrix(.16 0 0 -.16 191.674 598.378)" id="text_2"><defs><path d="M34.188 63.188 20.797 26.906h26.812zm-5.579 9.718h11.188L67.578 0h-10.25l-6.64 18.703h-32.86L11.188 0H.78z" id="DejaVuSans-65"/><path d="M18.11 8.203v-29H9.077v75.484h9.031v-8.296q2.844 4.875 7.157 7.234Q29.594 56 35.594 56q9.968 0 16.187-7.906 6.235-7.907 6.235-20.797T51.78 6.484q-6.218-7.906-16.187-7.906-6 0-10.328 2.375-4.313 2.375-7.157 7.25zm30.578 19.094q0 9.906-4.079 15.547-4.078 5.64-11.203 5.64-7.14 0-11.218-5.64-4.079-5.64-4.079-15.547 0-9.906 4.078-15.547 4.079-5.64 11.22-5.64 7.124 0 11.202 5.64t4.078 15.547z" id="DejaVuSans-112"/><path d="M41.11 46.297q-1.516.875-3.297 1.281Q36.03 48 33.89 48q-7.625 0-11.703-4.953-4.079-4.953-4.079-14.234V0H9.08v54.688h9.03v-8.5q2.844 4.984 7.375 7.39Q30.031 56 36.531 56q.922 0 2.047-.125 1.125-.11 2.484-.36z" id="DejaVuSans-114"/></defs><use xlink:href="#DejaVuSans-65"/><use x="68.408" xlink:href="#DejaVuSans-112"/><use x="131.885" xlink:href="#DejaVuSans-114"/></g></g><g id="xtick_3"><g style="fill:#696969" transform="matrix(.16 0 0 -.16 267.048 598.378)" id="text_3"><defs><path d="M8.5 21.578v33.11h8.984V21.922q0-7.766 3.016-11.656 3.031-3.875 9.094-3.875 7.265 0 11.484 4.64 4.234 4.64 4.234 12.656v31h8.985V0h-8.984v8.406Q42.047 3.422 37.718 1q-4.313-2.422-10.032-2.422-9.421 0-14.312 5.86Q8.5 10.296 8.5 21.578zM31.11 56z" id="DejaVuSans-117"/><path d="M9.422 75.984h8.984V0H9.422z" id="DejaVuSans-108"/></defs><use xlink:href="#DejaVuSans-74"/><use x="29.492" xlink:href="#DejaVuSans-117"/><use x="92.871" xlink:href="#DejaVuSans-108"/></g></g><g id="xtick_4"><g style="fill:#696969" transform="matrix(.16 0 0 -.16 334.837 598.378)" id="text_4"><defs><path d="M39.406 66.219q-10.75 0-17.078-8.016-6.312-8-6.312-21.828 0-13.766 6.312-21.781 6.328-8 17.078-8 10.735 0 17.016 8 6.281 8.015 6.281 21.781 0 13.828-6.281 21.828-6.281 8.016-17.016 8.016zm0 8q15.328 0 24.5-10.281 9.188-10.282 9.188-27.563 0-17.234-9.188-27.516-9.172-10.28-24.5-10.28-15.375 0-24.593 10.25-9.204 10.265-9.204 27.546t9.204 27.563q9.218 10.28 24.593 10.28z" id="DejaVuSans-79"/><path d="M48.781 52.594v-8.407q-3.812 2.11-7.64 3.157-3.828 1.047-7.735 1.047-8.75 0-13.593-5.547-4.829-5.532-4.829-15.547 0-10.016 4.829-15.563 4.843-5.53 13.593-5.53 3.907 0 7.735 1.046 3.828 1.047 7.64 3.156V2.094Q45.016.344 40.984-.531q-4.015-.89-8.562-.89-12.36 0-19.64 7.765-7.266 7.765-7.266 20.953 0 13.375 7.343 21.031Q20.22 56 33.016 56q4.14 0 8.093-.86 3.953-.843 7.672-2.546z" id="DejaVuSans-99"/><path d="M18.313 70.219V54.688h18.5v-6.985h-18.5V18.016q0-6.688 1.828-8.594 1.828-1.906 7.453-1.906h9.218V0h-9.218q-10.407 0-14.36 3.875-3.953 3.89-3.953 14.14v29.688H2.687v6.984h6.594V70.22z" id="DejaVuSans-116"/></defs><use xlink:href="#DejaVuSans-79"/><use x="78.711" xlink:href="#DejaVuSans-99"/><use x="133.691" xlink:href="#DejaVuSans-116"/></g></g><g id="xtick_5"><g style="fill:#696969" transform="matrix(.16 0 0 -.16 408.306 598.378)" id="text_5"><use xlink:href="#DejaVuSans-74"/><use x="29.492" xlink:href="#DejaVuSans-97"/><use x="90.771" xlink:href="#DejaVuSans-110"/></g></g><g id="xtick_6"><g style="fill:#696969" transform="matrix(.16 0 0 -.16 477.203 598.378)" id="text_6"><use xlink:href="#DejaVuSans-65"/><use x="68.408" xlink:href="#DejaVuSans-112"/><use x="131.885" xlink:href="#DejaVuSans-114"/></g></g><g id="xtick_7"><g style="fill:#696969" transform="matrix(.16 0 0 -.16 552.577 598.378)" id="text_7"><use xlink:href="#DejaVuSans-74"/><use x="29.492" xlink:href="#DejaVuSans-117"/><use x="92.871" xlink:href="#DejaVuSans-108"/></g></g><g id="xtick_8"><g style="fill:#696969" transform="matrix(.16 0 0 -.16 620.366 598.378)" id="text_8"><use xlink:href="#DejaVuSans-79"/><use x="78.711" xlink:href="#DejaVuSans-99"/><use x="133.691" xlink:href="#DejaVuSans-116"/></g></g><g id="xtick_9"><g style="fill:#696969" transform="matrix(.16 0 0 -.16 693.835 598.378)" id="text_9"><use xlink:href="#DejaVuSans-74"/><use x="29.492" xlink:href="#DejaVuSans-97"/><use x="90.771" xlink:href="#DejaVuSans-110"/></g></g><g id="xtick_10"><g style="fill:#696969" transform="matrix(.16 0 0 -.16 762.732 598.378)" id="text_10"><use xlink:href="#DejaVuSans-65"/><use x="68.408" xlink:href="#DejaVuSans-112"/><use x="131.885" xlink:href="#DejaVuSans-114"/></g></g></g><g id="matplotlib.axis_2"><g id="ytick_1"><g style="fill:#696969" transform="matrix(.16 0 0 -.16 97.32 557.256)" id="text_11"><defs><path d="M31.781 66.406q-7.61 0-11.453-7.5Q16.5 51.422 16.5 36.375q0-14.984 3.828-22.484 3.844-7.5 11.453-7.5 7.672 0 11.5 7.5 3.844 7.5 3.844 22.484 0 15.047-3.844 22.531-3.828 7.5-11.5 7.5zm0 7.813q12.266 0 18.735-9.703 6.468-9.688 6.468-28.141 0-18.406-6.468-28.11-6.47-9.687-18.735-9.687-12.25 0-18.718 9.688-6.47 9.703-6.47 28.109 0 18.453 6.47 28.14Q19.53 74.22 31.78 74.22z" id="DejaVuSans-48"/></defs><use xlink:href="#DejaVuSans-48"/></g></g><g id="ytick_2"><g style="fill:#696969" transform="matrix(.16 0 0 -.16 87.14 459.27)" id="text_12"><defs><path d="M19.188 8.297h34.421V0H7.33v8.297q5.609 5.812 15.296 15.594 9.703 9.797 12.188 12.64 4.734 5.313 6.609 9 1.89 3.688 1.89 7.25 0 5.813-4.078 9.469-4.078 3.672-10.625 3.672-4.64 0-9.797-1.61-5.14-1.609-11-4.89v9.969Q13.767 71.78 18.938 73q5.188 1.219 9.485 1.219 11.328 0 18.062-5.672 6.735-5.656 6.735-15.125 0-4.5-1.688-8.531-1.672-4.016-6.125-9.485-1.218-1.422-7.765-8.187-6.532-6.766-18.453-18.922z" id="DejaVuSans-50"/></defs><use xlink:href="#DejaVuSans-50"/><use x="63.623" xlink:href="#DejaVuSans-48"/></g></g><g id="ytick_3"><g style="fill:#696969" transform="matrix(.16 0 0 -.16 87.14 361.283)" id="text_13"><defs><path d="M37.797 64.313 12.89 25.39h24.906zm-2.594 8.593H47.61V25.391h10.407v-8.203H47.609V0h-9.812v17.188H4.89v9.515z" id="DejaVuSans-52"/></defs><use xlink:href="#DejaVuSans-52"/><use x="63.623" xlink:href="#DejaVuSans-48"/></g></g><g id="ytick_4"><g style="fill:#696969" transform="matrix(.16 0 0 -.16 87.14 263.297)" id="text_14"><defs><path d="M33.016 40.375q-6.641 0-10.532-4.547-3.875-4.531-3.875-12.437 0-7.86 3.875-12.438 3.891-4.562 10.532-4.562 6.64 0 10.515 4.562 3.875 4.578 3.875 12.438 0 7.906-3.875 12.437-3.875 4.547-10.515 4.547zm19.578 30.922v-8.984q-3.719 1.75-7.5 2.671-3.782.938-7.5.938-9.766 0-14.922-6.594-5.14-6.594-5.875-19.922 2.875 4.25 7.219 6.516 4.359 2.266 9.578 2.266 10.984 0 17.36-6.672 6.374-6.657 6.374-18.125 0-11.235-6.64-18.032-6.641-6.78-17.672-6.78-12.657 0-19.344 9.687-6.688 9.703-6.688 28.109 0 17.281 8.204 27.563 8.203 10.28 22.015 10.28 3.719 0 7.5-.734t7.89-2.187z" id="DejaVuSans-54"/></defs><use xlink:href="#DejaVuSans-54"/><use x="63.623" xlink:href="#DejaVuSans-48"/></g></g><g id="ytick_5"><g style="fill:#696969" transform="matrix(.16 0 0 -.16 87.14 165.31)" id="text_15"><defs><path d="M31.781 34.625q-7.031 0-11.062-3.766-4.016-3.765-4.016-10.343 0-6.594 4.016-10.36Q24.75 6.391 31.78 6.391q7.032 0 11.078 3.78 4.063 3.798 4.063 10.345 0 6.578-4.031 10.343-4.016 3.766-11.11 3.766zm-9.86 4.188q-6.343 1.562-9.89 5.906Q8.5 49.079 8.5 55.329q0 8.733 6.219 13.812 6.234 5.078 17.062 5.078 10.89 0 17.094-5.078 6.203-5.079 6.203-13.813 0-6.25-3.547-10.61-3.531-4.343-9.828-5.906 7.125-1.656 11.094-6.5 3.984-4.828 3.984-11.796 0-10.61-6.468-16.282-6.47-5.656-18.532-5.656-12.047 0-18.531 5.656-6.469 5.672-6.469 16.282 0 6.968 4 11.797 4.016 4.843 11.14 6.5zM18.314 54.39q0-5.657 3.53-8.828 3.548-3.172 9.938-3.172 6.36 0 9.938 3.172 3.593 3.171 3.593 8.828 0 5.672-3.593 8.843-3.578 3.172-9.938 3.172-6.39 0-9.937-3.172-3.532-3.172-3.532-8.843z" id="DejaVuSans-56"/></defs><use xlink:href="#DejaVuSans-56"/><use x="63.623" xlink:href="#DejaVuSans-48"/></g></g><g style="fill:#696969" transform="matrix(0 -.2 -.2 0 78.98 379.813)" id="text_16"><defs><path d="M51.125 44H36.922l-4.11-16.313h14.313zm-7.328 27.781-5.078-20.265h14.265L58.11 71.78h7.813L60.89 51.516h15.234V44h-17.14l-4-16.313h15.53V20.22H53.079L48 0h-7.813l5.032 20.219H30.906L25.875 0h-7.86l5.079 20.219H7.719v7.468h17.187L29 44H13.281v7.516h17.625l4.985 20.265z" id="DejaVuSans-35"/><path d="M30.61 48.39q-7.22 0-11.422-5.64-4.204-5.64-4.204-15.453 0-9.813 4.172-15.453 4.188-5.64 11.453-5.64 7.188 0 11.375 5.655 4.203 5.672 4.203 15.438 0 9.719-4.203 15.406-4.187 5.688-11.375 5.688zm0 7.61q11.718 0 18.406-7.625 6.703-7.61 6.703-21.078 0-13.422-6.703-21.078-6.688-7.64-18.407-7.64-11.765 0-18.437 7.64-6.656 7.656-6.656 21.078 0 13.469 6.656 21.078Q18.844 56 30.609 56z" id="DejaVuSans-111"/><path d="M37.11 75.984V68.5h-8.594q-4.828 0-6.72-1.953-1.874-1.953-1.874-7.031v-4.828h14.797v-6.985H19.922V0H10.89v47.703H2.297v6.984h8.594V58.5q0 9.125 4.25 13.297 4.25 4.187 13.468 4.187z" id="DejaVuSans-102"/><path d="M44.281 53.078v-8.5q-3.797 1.953-7.906 2.922-4.094.984-8.5.984-6.688 0-10.031-2.047-3.344-2.046-3.344-6.156 0-3.125 2.39-4.906 2.391-1.781 9.626-3.39l3.078-.688q9.562-2.047 13.593-5.781 4.032-3.735 4.032-10.422 0-7.625-6.032-12.078-6.03-4.438-16.578-4.438-4.39 0-9.156.86Q10.688.296 5.422 2v9.281q4.984-2.594 9.812-3.89 4.829-1.282 9.579-1.282 6.343 0 9.75 2.172 3.421 2.172 3.421 6.125 0 3.656-2.468 5.61-2.453 1.953-10.813 3.765l-3.125.735q-8.344 1.75-12.062 5.39-3.704 3.64-3.704 9.985 0 7.718 5.47 11.906Q16.75 56 26.811 56q4.97 0 9.36-.734 4.406-.72 8.11-2.188z" id="DejaVuSans-115"/><path d="M56.203 29.594v-4.39H14.891q.593-9.282 5.593-14.142 5-4.859 13.938-4.859 5.172 0 10.031 1.266 4.86 1.265 9.656 3.812v-8.5Q49.266.734 44.187-.344 39.11-1.422 33.892-1.422q-13.094 0-20.735 7.61-7.64 7.625-7.64 20.625 0 13.421 7.25 21.296Q20.016 56 32.328 56q11.031 0 17.453-7.11 6.422-7.093 6.422-19.296zm-8.984 2.64q-.094 7.36-4.125 11.75-4.032 4.407-10.672 4.407-7.516 0-12.031-4.25-4.516-4.25-5.203-11.97z" id="DejaVuSans-101"/></defs><use xlink:href="#DejaVuSans-35"/><use x="83.789" xlink:href="#DejaVuSans-32"/><use x="115.576" xlink:href="#DejaVuSans-111"/><use x="176.758" xlink:href="#DejaVuSans-102"/><use x="211.963" xlink:href="#DejaVuSans-32"/><use x="243.75" xlink:href="#DejaVuSans-99"/><use x="298.73" xlink:href="#DejaVuSans-97"/><use x="360.01" xlink:href="#DejaVuSans-115"/><use x="412.109" xlink:href="#DejaVuSans-101"/><use x="473.633" xlink:href="#DejaVuSans-115"/></g></g><g style="fill:#696969" transform="matrix(.24 0 0 -.24 308.75 71.76)" id="text_17"><defs><path d="M44.39 34.188q3.172-1.079 6.172-4.594 3-3.516 6.032-9.672L66.609 0H56l-9.313 18.703q-3.624 7.328-7.015 9.719-3.39 2.39-9.25 2.39h-10.75V0h-9.86v72.906h22.266q12.5 0 18.656-5.234 6.157-5.219 6.157-15.766 0-6.89-3.203-11.437-3.204-4.532-9.297-6.282zM19.673 64.797V38.922h12.406q7.125 0 10.766 3.297 3.64 3.297 3.64 9.687 0 6.39-3.64 9.64-3.64 3.25-10.766 3.25z" id="DejaVuSans-82"/><path d="M54.89 33.016V0h-8.984v32.719q0 7.765-3.031 11.61-3.031 3.858-9.078 3.858-7.281 0-11.484-4.64-4.204-4.625-4.204-12.64V0H9.08v75.984h9.03V46.188q3.235 4.937 7.594 7.374Q30.078 56 35.797 56q9.422 0 14.25-5.828 4.844-5.828 4.844-17.156z" id="DejaVuSans-104"/><path d="M45.406 46.39v29.594h8.985V0h-8.985v8.203Q42.578 3.328 38.25.953q-4.313-2.375-10.375-2.375-9.906 0-16.14 7.906-6.22 7.922-6.22 20.813 0 12.89 6.22 20.797Q17.968 56 27.874 56q6.063 0 10.375-2.375 4.328-2.36 7.156-7.234zm-30.61-19.093q0-9.906 4.079-15.547 4.078-5.64 11.203-5.64 7.125 0 11.219 5.64 4.11 5.64 4.11 15.547 0 9.906-4.11 15.547-4.094 5.64-11.219 5.64-7.125 0-11.203-5.64-4.078-5.64-4.078-15.547z" id="DejaVuSans-100"/><path d="M9.813 72.906h13.28l32.329-60.984v60.984h9.562V0h-13.28L19.39 60.984V0H9.813z" id="DejaVuSans-78"/><path d="M4.203 54.688h8.985l11.234-42.672 11.172 42.672h10.593l11.235-42.672 11.187 42.672h8.985L63.28 0H52.688L40.922 44.828 29.109 0H18.5z" id="DejaVuSans-119"/><path d="M64.406 67.281v-10.39q-4.984 4.64-10.625 6.922-5.64 2.296-11.984 2.296-12.5 0-19.14-7.64-6.641-7.64-6.641-22.094 0-14.406 6.64-22.047 6.64-7.64 19.14-7.64 6.345 0 11.985 2.296 5.64 2.297 10.625 6.938V5.609Q59.234 2.094 53.437.33q-5.78-1.75-12.218-1.75-16.563 0-26.094 10.124-9.516 10.14-9.516 27.672 0 17.578 9.516 27.703 9.531 10.14 26.094 10.14 6.531 0 12.312-1.734 5.797-1.734 10.875-5.203z" id="DejaVuSans-67"/><path d="M2.984 54.688H12.5L29.594 8.797l17.093 45.89h9.516L35.687 0H23.485z" id="DejaVuSans-118"/><path d="M9.422 54.688h8.984V0H9.422zm0 21.296h8.984v-11.39H9.422z" id="DejaVuSans-105"/></defs><use xlink:href="#DejaVuSans-82"/><use x="64.982" xlink:href="#DejaVuSans-117"/><use x="128.361" xlink:href="#DejaVuSans-116"/><use x="167.57" xlink:href="#DejaVuSans-104"/><use x="230.949" xlink:href="#DejaVuSans-101"/><use x="292.473" xlink:href="#DejaVuSans-114"/><use x="333.586" xlink:href="#DejaVuSans-102"/><use x="368.791" xlink:href="#DejaVuSans-111"/><use x="429.973" xlink:href="#DejaVuSans-114"/><use x="469.336" xlink:href="#DejaVuSans-100"/><use x="532.813" xlink:href="#DejaVuSans-32"/><use x="564.6" xlink:href="#DejaVuSans-78"/><use x="639.404" xlink:href="#DejaVuSans-101"/><use x="700.928" xlink:href="#DejaVuSans-119"/><use x="782.715" xlink:href="#DejaVuSans-32"/><use x="814.502" xlink:href="#DejaVuSans-67"/><use x="884.326" xlink:href="#DejaVuSans-111"/><use x="945.508" xlink:href="#DejaVuSans-118"/><use x="1004.688" xlink:href="#DejaVuSans-105"/><use x="1032.471" xlink:href="#DejaVuSans-100"/><use x="1095.947" xlink:href="#DejaVuSans-32"/><use x="1127.734" xlink:href="#DejaVuSans-67"/><use x="1197.559" xlink:href="#DejaVuSans-97"/><use x="1258.838" xlink:href="#DejaVuSans-115"/><use x="1310.938" xlink:href="#DejaVuSans-101"/><use x="1372.461" xlink:href="#DejaVuSans-115"/></g><g id="legend_1"><path d="M128.2 161.015h144.675q3.2 0 3.2-3.2V88.96q0-3.2-3.2-3.2H128.2q-3.2 0-3.2 3.2v68.855q0 3.2 3.2 3.2z" style="fill:none;opacity:.8;stroke:#ccc;stroke-linejoin:miter" id="patch_5"/><path d="M131.4 98.718h32" style="fill:none;stroke:#000;stroke-linecap:round;stroke-width:1.5" id="line2d_4"/><g style="fill:#696969" transform="matrix(.16 0 0 -.16 176.2 104.317)" id="text_18"><defs><path d="M12.406 8.297h16.11v55.625l-17.532-3.516v8.985l17.438 3.515h9.86V8.296H54.39V0H12.406z" id="DejaVuSans-49"/><path d="M45.406 27.984q0 9.766-4.031 15.125-4.016 5.375-11.297 5.375-7.219 0-11.25-5.375-4.031-5.359-4.031-15.125 0-9.718 4.031-15.093t11.25-5.375q7.281 0 11.297 5.375 4.031 5.375 4.031 15.093zm8.985-21.203q0-13.953-6.203-20.765Q42-20.797 29.203-20.797q-4.734 0-8.937.703-4.203.703-8.157 2.172v8.735q3.954-2.141 7.813-3.157 3.86-1.031 7.86-1.031 8.843 0 13.234 4.61 4.39 4.609 4.39 13.937v4.453q-2.781-4.844-7.125-7.234Q33.938 0 27.875 0 17.828 0 11.672 7.656q-6.156 7.672-6.156 20.328 0 12.688 6.156 20.344Q17.828 56 27.875 56q6.063 0 10.406-2.39 4.344-2.391 7.125-7.22v8.297h8.985z" id="DejaVuSans-103"/></defs><use xlink:href="#DejaVuSans-49"/><use x="63.623" xlink:href="#DejaVuSans-52"/><use x="127.246" xlink:href="#DejaVuSans-100"/><use x="190.723" xlink:href="#DejaVuSans-32"/><use x="222.51" xlink:href="#DejaVuSans-97"/><use x="283.789" xlink:href="#DejaVuSans-118"/><use x="342.969" xlink:href="#DejaVuSans-103"/></g><path d="M131.4 127.802h32v-11.2h-32z" style="fill:#089fff;opacity:.2;stroke:#fff;stroke-linejoin:miter" id="patch_6"/><g style="fill:#696969" transform="matrix(.16 0 0 -.16 176.2 127.802)" id="text_19"><defs><path d="M8.688 72.906h9.921V28.61q0-11.718 4.235-16.875 4.25-5.14 13.781-5.14 9.469 0 13.719 5.14 4.25 5.157 4.25 16.875v44.297H64.5V27.391q0-14.25-7.063-21.532-7.046-7.28-20.812-7.28-13.828 0-20.89 7.28-7.047 7.282-7.047 21.532z" id="DejaVuSans-85"/><path d="M32.172-5.078q-3.797-9.766-7.422-12.735-3.61-2.984-9.656-2.984H7.906v7.516h5.282q3.703 0 5.75 1.765Q21-9.766 23.483-3.219l1.61 4.094-22.11 53.813H12.5l17.094-42.766 17.093 42.766h9.516z" id="DejaVuSans-121"/></defs><use xlink:href="#DejaVuSans-85"/><use x="73.193" xlink:href="#DejaVuSans-110"/><use x="136.572" xlink:href="#DejaVuSans-99"/><use x="191.553" xlink:href="#DejaVuSans-101"/><use x="253.076" xlink:href="#DejaVuSans-114"/><use x="294.189" xlink:href="#DejaVuSans-116"/><use x="333.398" xlink:href="#DejaVuSans-97"/><use x="394.678" xlink:href="#DejaVuSans-105"/><use x="422.461" xlink:href="#DejaVuSans-110"/><use x="485.84" xlink:href="#DejaVuSans-116"/><use x="525.049" xlink:href="#DejaVuSans-121"/></g><path d="M147.4 151.287v-7.7" style="fill:none;stroke:#000;stroke-dasharray:2.25,3.7125;stroke-dashoffset:0;stroke-width:1.5" id="line2d_6"/><g style="fill:#696969" transform="matrix(.16 0 0 -.16 176.2 151.287)" id="text_20"><defs><path d="M19.672 64.797V8.109h11.922q15.093 0 22.093 6.829 7 6.843 7 21.593 0 14.64-7 21.453-7 6.813-22.093 6.813zm-9.86 8.11h20.266q21.188 0 31.094-8.813 9.922-8.813 9.922-27.563 0-18.86-9.969-27.703Q51.172 0 30.078 0H9.813z" id="DejaVuSans-68"/></defs><use xlink:href="#DejaVuSans-68"/><use x="77.002" xlink:href="#DejaVuSans-97"/><use x="138.281" xlink:href="#DejaVuSans-105"/><use x="166.064" xlink:href="#DejaVuSans-108"/><use x="193.848" xlink:href="#DejaVuSans-121"/><use x="253.027" xlink:href="#DejaVuSans-32"/><use x="284.814" xlink:href="#DejaVuSans-67"/><use x="354.639" xlink:href="#DejaVuSans-97"/><use x="415.918" xlink:href="#DejaVuSans-115"/><use x="468.018" xlink:href="#DejaVuSans-101"/><use x="529.541" xlink:href="#DejaVuSans-115"/></g></g></g></g><defs><clipPath id="pb4c70e7d7e"><path d="M117 77.76h725.4v498.96H117z"/></clipPath></defs></svg>