<svg height="864" viewBox="0 0 936 648" width="1248" xmlns="http://www.w3.org/2000/svg" xmlns:xlink="http://www.w3.org/1999/xlink"><defs><style>*{stroke-linecap:butt;stroke-linejoin:round}</style></defs><g id="figure_1"><path d="M0 648h936V0H0z" style="fill:#fff" id="patch_1"/><g id="axes_1"><path d="M117 576.72h725.4V77.76H117z" style="fill:none" id="patch_2"/><path clip-path="url(#p4e3cc72dcc)" d="m149.973 554.039 46.008-.064 5.751-.259 1.917-.209.959-.222.958-.366 1.917-1.1.959-.778 1.917-1.88.958-1.326 1.917-3.076 3.834-7.549 1.917-4.624 1.917-5.096.959-1.574 1.917-3.723 2.875-4.705.959-.982.959-.795.958-.396 2.876-.662.958.074.959.618.958.026.959.325.958.444.959.276.958.085 1.917-.55.959.038 3.834.862.958-.227 1.917-.173.959.5.958.167 1.917.887 1.917 1.718 1.917 1.105.959.217.958.499.959.313.958.713 1.917 1.193.959.012.958.252.959.133 2.875.847.959.026.958-.136 2.876.945.958.156.959.024.958-.149 1.917.01 1.918.664.958-.452.959-.023 1.917.213.958.008.959-.379 1.917-.15.958-.179 1.917.303.959-.378 1.917-1.116.958-.196.959-.877.958-.715.959-1.13 2.875-4.46.959-1.846.958-1.564 2.876-5.832.958-2.242 1.917-4.961 3.834-6.66.959-2.072.958-1.725.959-2.093 1.917-3.385.958-2.034 1.917-3.28.959-1.856 1.917-2.417.958-1.614 1.917-2.19 1.917-1.881 1.917-1.047 1.918.55 1.917.374.958.621.959.17.958.518 2.876 3.283.958 1.476 2.876 3.356.958.528.959 1.107.958.9.959 1.153.958 1.372.959.886.958.561 1.917 1.717 2.876 2.997.958 1.118.959.941.958 1.489.959.624.958 1.307 1.917 1.605.959 1.19.958.565.959.803.958.096.959-.075.958.974.959-.034.958-.283 1.917.47.959 1.405.958.945.959 1.105.958.696.959-.093.958.508 1.917-.03.959.446.959-.629.958.1.959.297.958.04.959-.586.958-2.746 2.876-2.195.958-.646 1.917-.696.959-.043.958-.413.959-.258.958-.102 1.917-.983.959.12.958-.688.959-.505 1.917-2.087.958-.404 2.876-2.498.958-.986 2.876-4.943.958-.459.959-1.182.958-.279.959-1.634.958-1.035.959-1.728 1.917-4.91.958-1.377.959-2.455 1.917-3.874.958-2.333 4.793-13.603 1.917-8.302 3.834-17.92 2.876-18.378 1.917-14.423.958-5.623 1.917-13.07 2.876-18.105.958-4.241.959-3.446.958-4.533 1.917-6.99.959 5.592.958-2.244.959.703 1.917-.188.958-2.083 1.917-5.45 2.876-8.98.958-2.296 1.917-7.466.959-11.268.958-6.884.959-5.174.958-4.434.959-3.063.958-1.745.959-4.024 1.917-3.669.958 1.088.959-.736.958.277.959 1.666.958-.742.959 2.924.958 16.555.959-.86.958 2.962.959 1.095.958.196.959 1.464.959.616.958 9.582.959-9.007.958-2.016.959-4.638.958-3.077.959-2.6.958-8.005.959-18.423.958-3.232.959-5.182.958-3.439.959-2.668.958-.035.959-.784.958-8.537.959 8.244.958 2.92.959 10.206.958 4.431.959 6.498.958 8.283.959 10.068 1.917 14.992.958 6.43 1.917 14.094 2.876 20.003.958 5.19.959-.066 1.917 12.63 2.875 17.504.959 3.908.958 5.863.959 5.001 2.875 17.176 1.917 9.142.959 7.982 3.834 18.998 1.917 6.206.959 3.09.958 2.257.959 1.916.958 2.559 1.917 3.99.959 1.187.958-.131.959.636 1.917.742 1.917 2.347.958 1.393.959-3.23 2.875 4.379 1.917 2.514.959 1.19.958-.043.959.287 1.917 1.337.958.467.959.2.958.54.959 3.67.958-.079.959-2.001.958-.62 1.917-1.98.959-.602.958-1.251 1.917-1.54.959-1.542.958-.735.959-.895.958-.242.959-2.017.958-.482.959.628.958-1.046.959-.653 1.917-.693.958-.11.959-1.39.958-.721.959.323.959-.9.958.945.959-.421.958.583.959.088.958.977.959 1.31.958 1.641 1.917 2.644 2.876 6.543.958 1.485.959 1.829.958.84.959 1.085 1.917 3.723 3.834 6.4 1.917 2.031 1.917 3.427 1.917 3.381.958 1.448.959 1.192.958 1.911.959 1.207 1.917 3.135.958 1.704.959 1.415.958.754 3.834 4.14 1.917 3.36.959.855.958 2.186.959.488 1.917 2.035.958 4.887 1.918 1.463.958.57.959.797.958.25.959 1.102.958.48.959.302.958.06.959-.886.958.986.959.226.958.671.959-3.383 2.875.79.959.13.958.612 2.876.411.958.249.959-.04.958-.355.959-.144.958-4.865.959-.714.958.331.959.105.958 1.038 1.917-2.812.959-3.184.958-1.879 1.917-.223.959-1.829.958-2.512.959-2.035.958 2.668.959-2.93.958-.78.959-.563.958-5.032.959-3.23.958-2.726.959-1.5.958-4.4.959-1.275.958-.764 3.835-21.27.958-6.495.959-1.59.958-1.279.959-7.097.958-8.131.959-4.845.958-5.667.959-7.863 1.917-3.942.958-7.892.959-5.095.958-6.51.959-3.726.958-5.966 1.917-3.784.959-11.369.958.555.959-4.819 2.875-9.34.959-.415.958-8.062.959 1.096.958-1.416.959-4.522.958-.785.959-3.268.958.153.959-1.927.958-1.47.959-4.277.958-1.47.959.75.958 1.23.959-.355.958 17.44.959-13.916.958-1.222.959 1.585.958 1.807.959 1.044.958.24.959-.429.958.696.959 3.762.958 1.918.959 2.262.958-.196.959.412.959-12.095.958 15.78.959 3.383.958 3.937.959 3.347.958 2.059.959.49.958 8.322 3.834 14.831.959 2.209.958 1.301 1.917 6.162 1.917 4.057.959 2.496.958 1.315.959 1.032.958 6.555.959.163.958 2.024 1.917 5.02.959.985.958.34.959 4.67.958 1.376.959 3.626 1.917 4.525.958.692.959.548.958 1.67.959 2.227.958 1.107.959.257.958.907 1.917.682.959-.234.958.621.959.164.958-.105.959-.412.958-.195.959-.46.958-1.926.959.41.958-.417.959 1.99.959-3.746.958-2.948.959-.436.958-2.218.959-1.248 1.917-5.227.958-2.57 1.917-1.698.959-2.99.958-.903.959-1.92.958 3.111.959 7.175.958 3.385.959-.032.958-6.24.959-1.734.958-2.304.959-2.623.958-3.097.959-1.574.958-.295.959-3.554.958-1.957.959-2.687.958-8.54h0" style="fill:none;stroke:#000;stroke-linecap:round;stroke-width:1.5" id="line2d_1"/><path clip-path="url(#p4e3cc72dcc)" d="m149.973 554.04 48.884-.099 2.875-.235 1.917-.579.959-.538.958-1.046.959-.542.958-1.498.959-1.963 1.917-5.968.958-2.449.959-8.407.958-6.568 1.917-15.373.959-10.806.958-6.704 2.876-36.01.958-12.907 1.917-18.592 1.917-16.314.959-3.801.958-5.492.959-4.306.959-4.895.958 1.758.959-7.426.958 4.609.959-3.243 1.917 8.281.958-1.703.959.272.958-.868.959-1.557.958-1.82.959 4.613.958.804.959.627.958 1.99.959 5.354.958-.688.959 6.47.958 2.084.959 1.451.958 2.91.959 6.744.958 4.282 1.917 15.534.959 1.321.958 5.778.959 7.044.958 2.51.959 6.371.958 5.42 1.917 8.792.959 4.575.958 6.07.959-.613.958 4.599.959-.304.958 2.29.959 1.948.958 4.245.959 1.352.958 1.618.959.43 1.917-.307.958.586 1.917 2.82.959 4.197.958 1.182.959 2.94.959 2.081.958 1.502.959-.586.958 2.654.959 2.061.958 1.27.959 1.07 1.917 4.763.958 1.1.959 1.91.958.856.959 1.035.958.838.959.198.958 1.42.959.747.958-.126.959.204.958-.068.959 1.335.958-5.75.959-.136.958.518.959-.113.958.45.959-.245.958.054 1.917-.078.959.16.958-.208 1.917.395.959-.32.958 6.564.959.102 1.917-.245.958-.456.959.006.958-.439.959.705.958 1.145.959.095.958 1.363.959.099.958-.09.959-.282.958-.037.959-.34 2.876-1.953.958-.306.959-.123.958.065.959-2.18.958-.362.959-1.199 1.917-.5h.958l.959-.45.958.334 1.917 1.042.959.65.958.134.959-.079.958-1.54 1.917.72.959 1.049.958-.164 1.917.14.959.933.958.239.959-.549.958.668.959.112.958.484.959.725.958 1.19.959.722.958-.242.959-.947.958-.126 1.917.04.959-.947.958-.541.959.695.958-.555.959-.365.958.085 1.917-.715 1.917-.736 1.917.03 1.918-.64.958-.65.959-.13 1.917-.947.958-.204.959-.508.958-.269.959-.477.958-.252.959-1.025.958-1.366.959-.767.958-.068.959-1.083.958-.153.959-.862.958-1.656.959-.59.958-.404.959-.692.958-.344.959-2.5.958-1.08.959-.389.958-.18.959.306.958-1.812.959-.787.958-1.216.959-.238.958.044 1.917-4.53.959-1.223.958-1.775.959.463.958-.613.959-3.56.958-1.288 1.917-4.79.959-2.49.958-1.972.959-3.972 1.917-3.055.958-.6.959-2.847.958-4.814.959-2.725.958-3.802.959-4.404 1.917-5.88.959-7.256.958-4.752.959-6.615.958-4.84 1.917-19.707.959-2.899.958-7.501.959-5.488.958-7.562 1.917-9.988.959-6.66.958-5.188.959-1.696 1.917-6.728.958-2.378.959 1.877.958 2.381.959-3.307.958-1.976.959-.848.958-2.082.959-6.939.958-2.231.959-7.024.958.061.959-4.091.958-1.376.959-2.204.958 1.516.959-8.305.958-1.073.959-5.478.958 2.18.959-4.762.958 1.833.959 6.019.958 3.86.959 2.912.958 1.335.959 2.974.958-1.179.959 1.418.958-4.804.959 7.634.958 6.248.959 6.997.958 1.052.959 3.349.959-2.865.958-5.467.959-4.497.958 5.127.959-163.242.958-5.658.959-3.553.958-9.453.959-6.68 1.917-22.953.958-8.833.959-3.165.958-10.764.959-6.8.958-2.943.959-1.662.958-4.994.959 160.919.958 5.576.959 1.407.958 8.281.959 9.61.958.896.959 1.274.958 4.067.959-.647.958 10.45.959 7.993.958 1.29.959 2.47.958 2.889.959 1.151.958 5.032.959 10.655.958 5.992.959-.095.958 8.986.959 3.202.958 5.39.959 4.084.958 1.498.959 3.714.958 7.678.959 5.167 1.917 14.274.958-1.646.959-6.125.958.045.959 4.026.958 5.56.959 7.838.959-.487.958 1.427.959 4.265.958.276.959-.467.958-1.288.959-.756.958-5.78.959 1.171.958 1.424.959.283.958-2.221.959-2.875.958-1.666.959 1.352.958-3.297.959-2.238.958-.814.959-1.182.958.913.959-3.134.958 1.09.959-1.458.958-2.116.959-4.357.958-2.364.959-4.043.958-2.446.959-2.875.958-2.306.959-1.094.958-.443.959-4.71.958-2.723.959-4.07.958-2.722.959-3.938.958 2.194.959-3.87.958-.467.959 1.581.958-1.918.959 1.09.958 3.717.959-.494.958-1.322.959 4.79 1.917 7.443.958 3.9.959 3.13.958.358.959 5.757.959.504.958 1.782 1.917 4.428.959 2.974.958 2.61.959 3.754.958 4.629.959 2.78.958 5.767.959 39.11.958 6.234.959 4.946.958 5.702 1.917 16.545.959 6.647.958 4.087.959 6.251.958 3.223 1.917 12.55.959 7.265.958 4.616.959-31.193 1.917 10.86.958 6.186.959 5.225 1.917 6.377.958 2.163.959 1.223.958 7.103.959 2.902 1.917 2 1.917.3.958.586.959.31 1.917.31.958 1.331.959.079.958.514.959 1.66.958.582.959.953.958 1.223.959.068.959.314.958-.361 1.917 1.38.959.177 1.917-.007.958.133.959-.116.958-.31.959-.034 1.917.238.958.511 1.917.45.959-.123.958-.286.959.238.958-.255.959.04 4.792.938.959-.15 1.917.17 1.917.45.958-.051 2.876-.62.958-.453.959-.232 1.917-1.056.958-.777.959-.627 1.917-2.299.958-.77.959-1.717 1.917-2.83 1.917-3.615 1.917-2.108.958-1.468 1.918-4.136 1.917-4.285 1.917-3.632.958-2.23.959-1.81.958-2.452.959-1.489.958-2.31.959-1.951.958-1.159 1.917-5.358 1.917-5.117.959-4.707.958-1.179.959-1.451 2.875-5.147.959-5.43.958-2.109.959-.957.958-2.6.959-.776.958-1.455.959-.68.958-2.549.959 2.146.958-1.962.959-.695.958-1.046.959-2.064.958-1.771.959 4.104.958-.306.959-.9.958-1.113.959 5.12.958-4.718.959-.532.958-.245.959-1.908.958.01.959-.125.958.306.959.027.958-1.417.959-2.176.958-1.278.959-.664.959 1.117.958-6.169.959 3.907.958-.143.959 1.458.958.886.959 2.51.958 1.315.959.511.958.947 1.917 4.538.959 2.343.958 1.55.959 1.285 1.917 3.46.958.638 1.917 2.633.959-1.1.958.698 1.917 1.693.959 2.347.958.988.959 1.645.958 1.9.959 1.633.958 1.396.959 2.541.958 2.034.959.555 1.917 4.545.958.037.959.576.958 1.557.959-1.114.958.262.959.756.958-1.086.959-.184.958.078.959-.654.958-.123.959 1.094.958-.896.959-.474.958.31.959.031.958-1.189.959.484.959-1.754.958-1.39 1.917-3.499.959-1.785.958-2.214 1.917-6.21.959-2.712 1.917-4.656.958-4.006.959-1.942.958-3.502 1.917-2.3.959-.571.958-2.995.959-5.15.958-4.224.959-6.776 1.917-15.121.958-6.452 1.917-9.388.959-6.984.958-9.422h0" style="fill:none;stroke:#009e73;stroke-linecap:round;stroke-width:1.5" id="line2d_2"/><path clip-path="url(#p4e3cc72dcc)" d="m149.973 554.04 44.091-.097 2.876-.13 2.875-.325.959-.454.958-.033.959-.94.958-.747.959-1.558.958-5.29.959-1.429.958-.649.959-3.051.958-4.9.959-2.922.958-3.7.959-12.496 1.917-19.929.958-10.71.959-9.218.958-13.113.959-17.397.958-14.313.959-23.434.958-28.367.959-10.776 1.917-35.767.958-7.238.959-2.662.958-9.282 1.918-6.232.958.162.959 3.019.958 5.29.959 1.428.958 10.16.959 19.279.958-1.59 1.917 20.415.959.357.958 3.44.959 8.796.958 1.915.959 6.329 1.917 11.555.958 7.367.959 12.886.958 7.595.959 5.063 1.917 17.527.958 5.42 1.917 17.656.959 6.946.958 9.088.959 3.31.958 1.299.959 2.726.958 4.415.959 7.594 1.917 6.427.958 3.116.959-.033.958 3.733.959 2.077.958.779.959.974.958 2.596.959-.357 1.917.098.958-.033.959-6.653.958 1.622.959 2.045.958 1.753.959 2.207.958 1.038.959-1.525.959 1.071.958.487.959-.454.958 3.765.959 2.304.958.876.959-1.103.958 2.694.959 1.33.958-2.401.959 1.558h.958l.959-.714.958.519.959.357.958 1.2h.959l.958.195.959-.032.958.097.959 2.143.958-9.12.959-2.37.958 1.655.959-2.142.958.292 1.917.325.959-.195.958-1.298.959-.033.958-1.59.959-.098.958.357.959-.908.958 9.185.959 1.33.958-.291.959 1.785.958.032.959 1.039 1.917.324.958 1.364.959.551.958 2.013.959-.78.958.098 1.917.974.959.876 1.917-.65.959-1.103.958-1.46.959-.844.958.065.959-1.428.958-.292.959-.844.958.746.959-1.266.958.52 1.917.26.959-.877.958-.292 1.917 1.46.959.325.958-.649.959-1.883.958-1.298 1.917-3.213.959 1.006.958.844.959 2.467.958.13.959.746.958 1.071.959.162 1.917-.357.958.747.959 3.18.958.52 1.917 2.5.959-1.267.958-.844.959-2.564.958-.227.959 1.006.958-.746.959-.065.958.487.959.324.958-.13.959-.357.958 1.169.959.195.958.454.959 1.98.959-.162.958-.78.959-.13.958-.746.959.325.958-.033.959-.843.958.13.959-.195.958.13.959-.715.958-.389.959-.13.958-.974.959-.13.958-.389.959-.714.958-1.071.959-.617.958-.357.959.033.958-.812.959-1.785 1.917-2.888.958-.747.959-.487.958-2.207 1.917-2.207.959-.65.958-.356.959-1.85.958-2.175.959-1.525.958-2.337.959-.747.958-.486.959-2.37.958-1.72.959-2.37.958-1.46.959-.876.958-1.071.959-4.35 1.917-3.96.958-1.427.959-2.435.958-3.018.959.032.958-4.057.959-5.94.959-2.953.958-.487.959-4.998.958-7.206.959-8.795.958-4.642 1.917-16.098.959-1.136 1.917-13.795.958-10.938.959-4.154.958-3.538.959-6.296.958-8.374.959-1.136.958-.584.959-.26.958-6.362.959 5.745 1.917-6.491.958-2.11.959.747.958-1.883.959-8.893.958-2.24.959-4.511.958 1.947.959-1.266.958 1.818.959-.26.958 8.504.959-10.354.958 4.285.959-3.506.958 3.863.959-.844.958 4.317.959 7.173 1.917 10.873.958 2.694.959 1.233.958-5.972.959-1.169.958-4.966.959 7.498 1.917 9.218.958.811.959.422.959-5.485 1.917-5.193.958 2.207.959-141.902.958-9.607.959-4.9.958-6.525.959-7.79 1.917-19.311.958-3.7.959-1.233.958-10.744.959-6.88 1.917-7.109.958-5.842.959 140.928.958 4.836.959 1.33.958 4.934.959 10.419.958-2.24.959 1.59.958.747.959-3.505 1.917 15.936.958 3.7.959.714.958 2.045.959-2.434.958 5.874.959 11.393.958 3.278.959-4.804.958 5.81.959 1.72.958 2.857.959 4.576.958 1.233.959 3.798.958 2.888.959 3.408.958 5.258.959 6.784.958-6.719.959-5.03.958 1.395.959 6.427.958 4.251.959 6.524 1.917-6.653.959 2.272.958-2.727.959-4.674.958-.486.959.26.958-11.555.959 3.408.958-4.187.959-.52.958-5.095.959 4.316.958-3.375.959 3.18.958-3.375.959-.909.958-.746.959 2.337.958 1.168.959-4.414.958 5.583.959-2.5.958.293.959-2.922.958-2.531.959-9.997.958-.974.959-3.148.958.065.959-1.33.958 4.51.959-9.444.958-5.68.959-4.934.958-1.265.959-1.948.958-2.37.959-2.012.958.52.959.292.958-.227.959.714.958 5.03.959-2.466.958-1.526.959 11.133 1.917 13.113.958 3.992 1.917 13.145.959 5.453 1.917 8.503.959 4.642.958 5.323.959 3.57.958 6.653.959 3.344.958 5.225.959 3.116.958 5.583.959 7.854.958 4.706.959 5.94.958 4.317 1.917 15.611.959 4.772.958 2.856.959 5.096.958-31.581.959-3.148.958 5.063.959 6.2.958 2.888.959-1.071.958 4.414.959 3.278.958 5.972.959 2.954.958 1.363.959.941.958 1.428.959 2.013.958 40.7.959 12.27.958.486.959 1.98.958 1.039 1.917.486.959 1.461.958.422.959 1.363.958 2.305.959 1.2.958.877.959.616.958.78.959.389.958 1.298.959-.422.959.227.958.455.959.941.958.617.959.26 1.917-.13.958-.422.959-.098.958-.681 1.917-.39h.959l.958.877 1.917.421.959-.389 1.917-1.136.958.227.959-.162.958.065.959.26.958.064.959-.551.958-.422.959-.033.958-.324.959.357.958.032 2.876 1.623 1.917.195.958-.292.959-.033 1.917-.454.958-.455.959-.714 1.917-1.72.958-.682 1.917-2.142.959-1.882.958-2.532.959-2.11.958-1.07.959-1.883.958-1.233.959-1.72.959-2.467 1.917-4.09.958-2.337.959-1.785.958-2.629.959-1.655 1.917-2.337 1.917-1.623.958.325.959-3.603.958-1.753.959-2.37.958-.94.959-3.408.958 3.115.959-.324 1.917-4.869.958-.843.959-4.577.958-2.175.959-1.59.958-2.175.959.974.958-1.59.959.52.958-2.533.959.487.958-4.998.959-.941.958.909.959.032.958-1.396.959 4.739.958-.682.959-.227.958-.973.959 3.992.958-2.564.959-.714.958-.422.959-.065.958.324.959.52.958-1.007.959-.097.958-.714.959-1.59.958-.195.959-.65.959 1.202.958-3.278.959 2.401.958.065.959-.097.958.681.959.26.958-.552.959 2.272.958-.097 1.917.422.959 1.2.958 2.435.959.714.958.227 1.917 2.76.959 3.375.958 1.395.959.682.958 2.272.959.39.958 1.233.959 2.24.958 1.72.959.162.958 1.136.959.714 2.875 7.335.959-.26 1.917 3.96.958-1.72.959-.39.958 1.234.959-.292.958-.747.959 1.655.958-.389.959.26.958-.714.959-1.299.958-.292.959.941.958-.486.959-.13.958 1.298.959 1.104 2.876 1.265.958-.39.959-2.758.958-1.266 2.876-8.081.958-2.694 1.917-5.972.959-1.364.958-4.122.959-2.272.958-2.758 1.917-3.311.959.065.958-1.623.959-3.538.958-2.499 1.917-9.088.959-3.765.958-2.532 2.876-15.124.958-8.57h0" style="fill:none;stroke:#d55e00;stroke-linecap:round;stroke-width:1.5" id="line2d_3"/><path clip-path="url(#p4e3cc72dcc)" d="M149.973 554.04h54.635l.958-3.306h1.917l.959-1.653h.958l1.917-9.919.959-9.918.958-1.653.959-4.96.958-3.306.959-8.265.958-13.225.959-11.571h.958l.959-9.919.958-26.45.959-16.53.958-4.96.959-3.305h.958l.959-6.613.958-9.918.959 1.653.959 3.306.958-1.653.959 6.612.958 4.96.959-4.96.958 1.653.959 21.49.958 18.184.959-3.306.958 3.306.959-3.306.958 8.266h2.876l.958 1.653.959 6.612 2.875 9.918h1.917l.959 8.266.958 4.96 1.917 16.53.959 9.918.958 3.307h.959l.958 1.653.959-6.613.958 1.653 1.917 6.613.959 4.959h1.917l.958-1.653h1.917l.959 1.653h1.917l.958 6.612.959 4.96 1.917 3.306.958-1.653h1.917l.959-4.96h7.668l.959-1.653h.958l.959 1.653h1.917l.958 4.96h5.751l.959-3.306.958 1.653h.959l.958-1.653h2.876l.958-6.613.959 1.653.958-1.653h3.834l.959-6.612.958-1.653.959 1.653h.958l.959-1.653h1.917l.958 3.306.959-1.653.958 1.653h3.834l.959 9.918.958-3.306.959-1.653h.958l.959 3.306h1.917l1.917 3.307h.959l.958-1.654h2.876l.958-1.653.959 4.96h.958l.959 1.653h2.875l.959 1.653h.958l.959-1.653.958 1.653.959-1.653h3.834l.958 1.653 1.917-3.306h2.876l.958-3.307h.959l.958-1.653.959 1.653h3.834l.958-6.612 1.917 3.306h2.876l.958-1.653 1.917 3.306h4.793l.959 3.307.958-1.654h2.876l.958-4.959.959 4.96.958-1.654h3.834l.959 1.653h.958l.959 3.307.958 1.653h2.876l.958 1.653.959-1.653.958-6.613.959-14.877.958-3.307h1.917l.959-3.306.958-9.918.959-1.653 1.917-16.531 1.917-9.919h.958l1.917 3.307.959 14.877.958 3.306h1.917l.959-6.612.958 3.306.959-6.612h1.917l1.917 9.918.958-16.53.959-1.653 1.917-9.919.958-8.265h1.918l.958-21.49h.959l.958 8.265.959-19.837.958-3.306h1.917l.959-6.612.958-18.184 1.917-16.531.959-14.878.958-8.265h.959l.958 8.265.959-6.612.958-9.919.959 28.103.958 11.571.959-33.061h.958l.959 3.306.958 8.265.959 1.653.958-13.224.959-16.531.958-9.919h.959l.958 4.96.959-6.613.958 1.653.959-29.755.958-14.878.959 33.062h1.917l.958-3.306.959 6.612.958 26.45.959 11.57.958 18.185h.959l.958-26.45.959 8.266.958-36.368.959 21.49.958 14.878h1.917l.959-26.45.958 6.613 1.918-38.021.958 28.102h1.917l.959-9.918.958-18.184.959 21.49.958-16.53.959-19.838.958-16.53h.959l.958 13.224.959-9.918.958 6.612.959 1.653.958-16.53h1.917l.959 54.55.958-4.958.959 6.612.958 18.184 1.917 31.408h.959l.958-14.877.959 11.571.958 14.878.959 6.612.958-9.918.959-8.266h1.917l.958 34.715.959-26.45 1.917-13.224h1.917l.958 24.796.959-4.959.958 1.653h.959l.958 18.184.959-3.306h1.917l.958-23.143.959 34.714.958 8.266.959 3.306h.958l.959-11.572.959 19.837 1.917 3.307.958-11.572.959-6.612.958 11.571h.959l.958-26.449.959 6.612.958-1.653h.959l.958-14.877h.959l.958 11.571.959-16.53.958 3.305.959-6.612.958-1.653.959 6.612h1.917l.958-11.571.959 4.959.958-3.306h.959l.958 14.878h1.917l.959-16.531.958-3.306.959 1.653.958 9.918.959-3.306h.958l.959-14.878.958 19.837.959-1.653.958 8.266.959-24.797.958-6.612h1.917l.959 11.572.958-3.307 1.917-3.306h0l.959 3.306.958-1.653.959 14.878.958 1.653.959 4.96.958-3.307.959 9.919.959 6.612.958-8.265h.959l.958 23.143.959 11.571.958 4.96.959 1.653h.958l.959 1.653h.958l.959 6.612 1.917 6.612.958 13.225.959-6.612.958 6.612h.959l.958 1.653h1.917l.959 8.266.958 4.959h1.917l.959 3.306.958 4.96.959 3.305.958 6.613.959 14.877.958 1.654h.959l.958 3.306.959 1.653.958 9.918.959 1.653.958 3.307h1.917l.959 6.612h1.917l.958-3.306h4.793l.958-1.653.959 1.653h3.834l.959-4.96h.958l.959 3.307h4.792l.959 1.653h4.792l.959 4.959.958 1.653h.959l.958-6.612h4.793l.958-1.653h5.751l.959-1.653.958 4.959h3.834l1.917-3.306h5.751l.959-1.653.958-8.266h1.917l.959-34.715.958-3.306h.959l1.917-16.53h1.917l.959-11.572.958-4.96.959-1.652h.958l.959 8.265h1.917l.958 18.184.959-1.653.958-8.266.959 1.653.958 4.96h1.917l.959-4.96.958 1.653h.959l.958-3.306.959 1.653h1.917l.958 13.225.959-1.653.958 6.612.959 1.653.958 3.307h1.917l.959 4.959.958-8.266.959-9.918.958 3.306.959-8.265h1.917l.958 3.306.959-13.225.958-6.612.959 8.265.958-8.265h1.917l.959-3.306.958 6.612.959 4.96.958-9.92.959 1.654h1.917l.959-21.49.958 18.184.959 1.653.958-8.266.959 3.307h1.917l.958 8.265h1.917l.959 6.612h2.875l.959 14.878 1.917-3.306.958 8.265.959-13.224h1.917l.958 6.612.959-4.96 2.875 9.92h1.917l.959-6.613.958-1.653.959 8.265.958-6.612.959 14.878h1.917l.958-3.307.959 8.266.958 3.306h.959l.958 1.653h2.876l.958-1.653.959 1.653.958 6.612h2.876l.958-4.959.959-1.653.958-14.878.959 3.306.959-9.918h1.917l.958 3.306h.959l.958-3.306.959-4.96.958-1.652h1.917l.959-16.531.958-4.96.959 3.307h.958l.959 11.571h1.917l.958-23.143.959-4.96h.958l.959-8.264.958-9.919h1.917l.959 9.919 1.917-16.531h.958" style="fill:none;stroke:#0072b2;stroke-linecap:round;stroke-width:1.5" id="line2d_4"/><path d="M117 576.72V77.76" style="fill:none;stroke:#d3d3d3;stroke-linecap:square;stroke-linejoin:miter;stroke-width:1.25" id="patch_3"/><path d="M117 576.72h725.4" style="fill:none;stroke:#d3d3d3;stroke-linecap:square;stroke-linejoin:miter;stroke-width:1.25" id="patch_4"/><g id="matplotlib.axis_1"><g id="xtick_1"><g style="fill:#696969" transform="matrix(.16 0 0 -.16 118.47 598.378)" id="text_1"><defs><path d="M9.813 72.906h9.859V5.078q0-13.187-5-19.14-5-5.954-16.094-5.954h-3.75v8.297h3.078q6.531 0 9.219 3.672Q9.813-4.39 9.813 5.078z" id="DejaVuSans-74"/><path d="M34.281 27.484q-10.89 0-15.093-2.484-4.204-2.484-4.204-8.5 0-4.781 3.157-7.594 3.156-2.797 8.562-2.797 7.485 0 12 5.297 4.516 5.297 4.516 14.078v2zm17.922 3.72V0H43.22v8.297Q40.14 3.328 35.547.953q-4.594-2.375-11.234-2.375-8.391 0-13.36 4.719Q6 8.016 6 15.922q0 9.219 6.172 13.906 6.187 4.688 18.437 4.688h12.61v.89q0 6.203-4.078 9.594-4.078 3.39-11.453 3.39-4.688 0-9.141-1.124-4.438-1.125-8.531-3.375v8.312q4.921 1.906 9.562 2.844 4.64.953 9.031.953 11.875 0 17.735-6.156 5.86-6.14 5.86-18.64z" id="DejaVuSans-97"/><path d="M54.89 33.016V0h-8.984v32.719q0 7.765-3.031 11.61-3.031 3.858-9.078 3.858-7.281 0-11.484-4.64-4.204-4.625-4.204-12.64V0H9.08v54.688h9.03v-8.5q3.235 4.937 7.594 7.374Q30.078 56 35.797 56q9.422 0 14.25-5.828 4.844-5.828 4.844-17.156z" id="DejaVuSans-110"/></defs><use xlink:href="#DejaVuSans-74"/><use x="29.492" xlink:href="#DejaVuSans-97"/><use x="90.771" xlink:href="#DejaVuSans-110"/></g></g><g id="xtick_2"><g style="fill:#696969" transform="matrix(.16 0 0 -.16 204.187 598.378)" id="text_2"><defs><path d="M34.188 63.188 20.797 26.906h26.812zm-5.579 9.718h11.188L67.578 0h-10.25l-6.64 18.703h-32.86L11.188 0H.78z" id="DejaVuSans-65"/><path d="M18.11 8.203v-29H9.077v75.484h9.031v-8.296q2.844 4.875 7.157 7.234Q29.594 56 35.594 56q9.968 0 16.187-7.906 6.235-7.907 6.235-20.797T51.78 6.484q-6.218-7.906-16.187-7.906-6 0-10.328 2.375-4.313 2.375-7.157 7.25zm30.578 19.094q0 9.906-4.079 15.547-4.078 5.64-11.203 5.64-7.14 0-11.218-5.64-4.079-5.64-4.079-15.547 0-9.906 4.078-15.547 4.079-5.64 11.22-5.64 7.124 0 11.202 5.64t4.078 15.547z" id="DejaVuSans-112"/><path d="M41.11 46.297q-1.516.875-3.297 1.281Q36.03 48 33.89 48q-7.625 0-11.703-4.953-4.079-4.953-4.079-14.234V0H9.08v54.688h9.03v-8.5q2.844 4.984 7.375 7.39Q30.031 56 36.531 56q.922 0 2.047-.125 1.125-.11 2.484-.36z" id="DejaVuSans-114"/></defs><use xlink:href="#DejaVuSans-65"/><use x="68.408" xlink:href="#DejaVuSans-112"/><use x="131.885" xlink:href="#DejaVuSans-114"/></g></g><g id="xtick_3"><g style="fill:#696969" transform="matrix(.16 0 0 -.16 295.599 598.378)" id="text_3"><defs><path d="M8.5 21.578v33.11h8.984V21.922q0-7.766 3.016-11.656 3.031-3.875 9.094-3.875 7.265 0 11.484 4.64 4.234 4.64 4.234 12.656v31h8.985V0h-8.984v8.406Q42.047 3.422 37.718 1q-4.313-2.422-10.032-2.422-9.421 0-14.312 5.86Q8.5 10.296 8.5 21.578zM31.11 56z" id="DejaVuSans-117"/><path d="M9.422 75.984h8.984V0H9.422z" id="DejaVuSans-108"/></defs><use xlink:href="#DejaVuSans-74"/><use x="29.492" xlink:href="#DejaVuSans-117"/><use x="92.871" xlink:href="#DejaVuSans-108"/></g></g><g id="xtick_4"><g style="fill:#696969" transform="matrix(.16 0 0 -.16 379.602 598.378)" id="text_4"><defs><path d="M39.406 66.219q-10.75 0-17.078-8.016-6.312-8-6.312-21.828 0-13.766 6.312-21.781 6.328-8 17.078-8 10.735 0 17.016 8 6.281 8.015 6.281 21.781 0 13.828-6.281 21.828-6.281 8.016-17.016 8.016zm0 8q15.328 0 24.5-10.281 9.188-10.282 9.188-27.563 0-17.234-9.188-27.516-9.172-10.28-24.5-10.28-15.375 0-24.593 10.25-9.204 10.265-9.204 27.546t9.204 27.563q9.218 10.28 24.593 10.28z" id="DejaVuSans-79"/><path d="M48.781 52.594v-8.407q-3.812 2.11-7.64 3.157-3.828 1.047-7.735 1.047-8.75 0-13.593-5.547-4.829-5.532-4.829-15.547 0-10.016 4.829-15.563 4.843-5.53 13.593-5.53 3.907 0 7.735 1.046 3.828 1.047 7.64 3.156V2.094Q45.016.344 40.984-.531q-4.015-.89-8.562-.89-12.36 0-19.64 7.765-7.266 7.765-7.266 20.953 0 13.375 7.343 21.031Q20.22 56 33.016 56q4.14 0 8.093-.86 3.953-.843 7.672-2.546z" id="DejaVuSans-99"/><path d="M18.313 70.219V54.688h18.5v-6.985h-18.5V18.016q0-6.688 1.828-8.594 1.828-1.906 7.453-1.906h9.218V0h-9.218q-10.407 0-14.36 3.875-3.953 3.89-3.953 14.14v29.688H2.687v6.984h6.594V70.22z" id="DejaVuSans-116"/></defs><use xlink:href="#DejaVuSans-79"/><use x="78.711" xlink:href="#DejaVuSans-99"/><use x="133.691" xlink:href="#DejaVuSans-116"/></g></g><g id="xtick_5"><g style="fill:#696969" transform="matrix(.16 0 0 -.16 469.285 598.378)" id="text_5"><use xlink:href="#DejaVuSans-74"/><use x="29.492" xlink:href="#DejaVuSans-97"/><use x="90.771" xlink:href="#DejaVuSans-110"/></g></g><g id="xtick_6"><g style="fill:#696969" transform="matrix(.16 0 0 -.16 554.043 598.378)" id="text_6"><use xlink:href="#DejaVuSans-65"/><use x="68.408" xlink:href="#DejaVuSans-112"/><use x="131.885" xlink:href="#DejaVuSans-114"/></g></g><g id="xtick_7"><g style="fill:#696969" transform="matrix(.16 0 0 -.16 645.455 598.378)" id="text_7"><use xlink:href="#DejaVuSans-74"/><use x="29.492" xlink:href="#DejaVuSans-117"/><use x="92.871" xlink:href="#DejaVuSans-108"/></g></g><g id="xtick_8"><g style="fill:#696969" transform="matrix(.16 0 0 -.16 729.458 598.378)" id="text_8"><use xlink:href="#DejaVuSans-79"/><use x="78.711" xlink:href="#DejaVuSans-99"/><use x="133.691" xlink:href="#DejaVuSans-116"/></g></g><g id="xtick_9"><g style="fill:#696969" transform="matrix(.16 0 0 -.16 819.14 598.378)" id="text_9"><use xlink:href="#DejaVuSans-74"/><use x="29.492" xlink:href="#DejaVuSans-97"/><use x="90.771" xlink:href="#DejaVuSans-110"/></g></g></g><g id="matplotlib.axis_2"><g id="ytick_1"><g style="fill:#696969" transform="matrix(.16 0 0 -.16 97.32 560.119)" id="text_10"><defs><path d="M31.781 66.406q-7.61 0-11.453-7.5Q16.5 51.422 16.5 36.375q0-14.984 3.828-22.484 3.844-7.5 11.453-7.5 7.672 0 11.5 7.5 3.844 7.5 3.844 22.484 0 15.047-3.844 22.531-3.828 7.5-11.5 7.5zm0 7.813q12.266 0 18.735-9.703 6.468-9.688 6.468-28.141 0-18.406-6.468-28.11-6.47-9.687-18.735-9.687-12.25 0-18.718 9.688-6.47 9.703-6.47 28.109 0 18.453 6.47 28.14Q19.53 74.22 31.78 74.22z" id="DejaVuSans-48"/></defs><use xlink:href="#DejaVuSans-48"/></g></g><g id="ytick_2"><g style="fill:#696969" transform="matrix(.16 0 0 -.16 87.14 475.401)" id="text_11"><defs><path d="M19.188 8.297h34.421V0H7.33v8.297q5.609 5.812 15.296 15.594 9.703 9.797 12.188 12.64 4.734 5.313 6.609 9 1.89 3.688 1.89 7.25 0 5.813-4.078 9.469-4.078 3.672-10.625 3.672-4.64 0-9.797-1.61-5.14-1.609-11-4.89v9.969Q13.767 71.78 18.938 73q5.188 1.219 9.485 1.219 11.328 0 18.062-5.672 6.735-5.656 6.735-15.125 0-4.5-1.688-8.531-1.672-4.016-6.125-9.485-1.218-1.422-7.765-8.187-6.532-6.766-18.453-18.922z" id="DejaVuSans-50"/></defs><use xlink:href="#DejaVuSans-50"/><use x="63.623" xlink:href="#DejaVuSans-48"/></g></g><g id="ytick_3"><g style="fill:#696969" transform="matrix(.16 0 0 -.16 87.14 390.683)" id="text_12"><defs><path d="M37.797 64.313 12.89 25.39h24.906zm-2.594 8.593H47.61V25.391h10.407v-8.203H47.609V0h-9.812v17.188H4.89v9.515z" id="DejaVuSans-52"/></defs><use xlink:href="#DejaVuSans-52"/><use x="63.623" xlink:href="#DejaVuSans-48"/></g></g><g id="ytick_4"><g style="fill:#696969" transform="matrix(.16 0 0 -.16 87.14 305.965)" id="text_13"><defs><path d="M33.016 40.375q-6.641 0-10.532-4.547-3.875-4.531-3.875-12.437 0-7.86 3.875-12.438 3.891-4.562 10.532-4.562 6.64 0 10.515 4.562 3.875 4.578 3.875 12.438 0 7.906-3.875 12.437-3.875 4.547-10.515 4.547zm19.578 30.922v-8.984q-3.719 1.75-7.5 2.671-3.782.938-7.5.938-9.766 0-14.922-6.594-5.14-6.594-5.875-19.922 2.875 4.25 7.219 6.516 4.359 2.266 9.578 2.266 10.984 0 17.36-6.672 6.374-6.657 6.374-18.125 0-11.235-6.64-18.032-6.641-6.78-17.672-6.78-12.657 0-19.344 9.687-6.688 9.703-6.688 28.109 0 17.281 8.204 27.563 8.203 10.28 22.015 10.28 3.719 0 7.5-.734t7.89-2.187z" id="DejaVuSans-54"/></defs><use xlink:href="#DejaVuSans-54"/><use x="63.623" xlink:href="#DejaVuSans-48"/></g></g><g id="ytick_5"><g style="fill:#696969" transform="matrix(.16 0 0 -.16 87.14 221.248)" id="text_14"><defs><path d="M31.781 34.625q-7.031 0-11.062-3.766-4.016-3.765-4.016-10.343 0-6.594 4.016-10.36Q24.75 6.391 31.78 6.391q7.032 0 11.078 3.78 4.063 3.798 4.063 10.345 0 6.578-4.031 10.343-4.016 3.766-11.11 3.766zm-9.86 4.188q-6.343 1.562-9.89 5.906Q8.5 49.079 8.5 55.329q0 8.733 6.219 13.812 6.234 5.078 17.062 5.078 10.89 0 17.094-5.078 6.203-5.079 6.203-13.813 0-6.25-3.547-10.61-3.531-4.343-9.828-5.906 7.125-1.656 11.094-6.5 3.984-4.828 3.984-11.796 0-10.61-6.468-16.282-6.47-5.656-18.532-5.656-12.047 0-18.531 5.656-6.469 5.672-6.469 16.282 0 6.968 4 11.797 4.016 4.843 11.14 6.5zM18.314 54.39q0-5.657 3.53-8.828 3.548-3.172 9.938-3.172 6.36 0 9.938 3.172 3.593 3.171 3.593 8.828 0 5.672-3.593 8.843-3.578 3.172-9.938 3.172-6.39 0-9.937-3.172-3.532-3.172-3.532-8.843z" id="DejaVuSans-56"/></defs><use xlink:href="#DejaVuSans-56"/><use x="63.623" xlink:href="#DejaVuSans-48"/></g></g><g id="ytick_6"><g style="fill:#696969" transform="matrix(.16 0 0 -.16 76.96 136.53)" id="text_15"><defs><path d="M12.406 8.297h16.11v55.625l-17.532-3.516v8.985l17.438 3.515h9.86V8.296H54.39V0H12.406z" id="DejaVuSans-49"/></defs><use xlink:href="#DejaVuSans-49"/><use x="63.623" xlink:href="#DejaVuSans-48"/><use x="127.246" xlink:href="#DejaVuSans-48"/></g></g><g style="fill:#696969" transform="matrix(0 -.2 -.2 0 68.8 379.813)" id="text_16"><defs><path d="M51.125 44H36.922l-4.11-16.313h14.313zm-7.328 27.781-5.078-20.265h14.265L58.11 71.78h7.813L60.89 51.516h15.234V44h-17.14l-4-16.313h15.53V20.22H53.079L48 0h-7.813l5.032 20.219H30.906L25.875 0h-7.86l5.079 20.219H7.719v7.468h17.187L29 44H13.281v7.516h17.625l4.985 20.265z" id="DejaVuSans-35"/><path d="M30.61 48.39q-7.22 0-11.422-5.64-4.204-5.64-4.204-15.453 0-9.813 4.172-15.453 4.188-5.64 11.453-5.64 7.188 0 11.375 5.655 4.203 5.672 4.203 15.438 0 9.719-4.203 15.406-4.187 5.688-11.375 5.688zm0 7.61q11.718 0 18.406-7.625 6.703-7.61 6.703-21.078 0-13.422-6.703-21.078-6.688-7.64-18.407-7.64-11.765 0-18.437 7.64-6.656 7.656-6.656 21.078 0 13.469 6.656 21.078Q18.844 56 30.609 56z" id="DejaVuSans-111"/><path d="M37.11 75.984V68.5h-8.594q-4.828 0-6.72-1.953-1.874-1.953-1.874-7.031v-4.828h14.797v-6.985H19.922V0H10.89v47.703H2.297v6.984h8.594V58.5q0 9.125 4.25 13.297 4.25 4.187 13.468 4.187z" id="DejaVuSans-102"/><path d="M44.281 53.078v-8.5q-3.797 1.953-7.906 2.922-4.094.984-8.5.984-6.688 0-10.031-2.047-3.344-2.046-3.344-6.156 0-3.125 2.39-4.906 2.391-1.781 9.626-3.39l3.078-.688q9.562-2.047 13.593-5.781 4.032-3.735 4.032-10.422 0-7.625-6.032-12.078-6.03-4.438-16.578-4.438-4.39 0-9.156.86Q10.688.296 5.422 2v9.281q4.984-2.594 9.812-3.89 4.829-1.282 9.579-1.282 6.343 0 9.75 2.172 3.421 2.172 3.421 6.125 0 3.656-2.468 5.61-2.453 1.953-10.813 3.765l-3.125.735q-8.344 1.75-12.062 5.39-3.704 3.64-3.704 9.985 0 7.718 5.47 11.906Q16.75 56 26.811 56q4.97 0 9.36-.734 4.406-.72 8.11-2.188z" id="DejaVuSans-115"/><path d="M56.203 29.594v-4.39H14.891q.593-9.282 5.593-14.142 5-4.859 13.938-4.859 5.172 0 10.031 1.266 4.86 1.265 9.656 3.812v-8.5Q49.266.734 44.187-.344 39.11-1.422 33.892-1.422q-13.094 0-20.735 7.61-7.64 7.625-7.64 20.625 0 13.421 7.25 21.296Q20.016 56 32.328 56q11.031 0 17.453-7.11 6.422-7.093 6.422-19.296zm-8.984 2.64q-.094 7.36-4.125 11.75-4.032 4.407-10.672 4.407-7.516 0-12.031-4.25-4.516-4.25-5.203-11.97z" id="DejaVuSans-101"/></defs><use xlink:href="#DejaVuSans-35"/><use x="83.789" xlink:href="#DejaVuSans-32"/><use x="115.576" xlink:href="#DejaVuSans-111"/><use x="176.758" xlink:href="#DejaVuSans-102"/><use x="211.963" xlink:href="#DejaVuSans-32"/><use x="243.75" xlink:href="#DejaVuSans-99"/><use x="298.73" xlink:href="#DejaVuSans-97"/><use x="360.01" xlink:href="#DejaVuSans-115"/><use x="412.109" xlink:href="#DejaVuSans-101"/><use x="473.633" xlink:href="#DejaVuSans-115"/></g></g><g style="fill:#696969" transform="matrix(.24 0 0 -.24 202.252 71.76)" id="text_17"><defs><path d="M9.813 72.906h13.28l32.329-60.984v60.984h9.562V0h-13.28L19.39 60.984V0H9.813z" id="DejaVuSans-78"/><path d="M4.203 54.688h8.985l11.234-42.672 11.172 42.672h10.593l11.235-42.672 11.187 42.672h8.985L63.28 0H52.688L40.922 44.828 29.109 0H18.5z" id="DejaVuSans-119"/><path d="M64.406 67.281v-10.39q-4.984 4.64-10.625 6.922-5.64 2.296-11.984 2.296-12.5 0-19.14-7.64-6.641-7.64-6.641-22.094 0-14.406 6.64-22.047 6.64-7.64 19.14-7.64 6.345 0 11.985 2.296 5.64 2.297 10.625 6.938V5.609Q59.234 2.094 53.437.33q-5.78-1.75-12.218-1.75-16.563 0-26.094 10.124-9.516 10.14-9.516 27.672 0 17.578 9.516 27.703 9.531 10.14 26.094 10.14 6.531 0 12.312-1.734 5.797-1.734 10.875-5.203z" id="DejaVuSans-67"/><path d="M25.39 72.906h8.297L8.297-9.28H0z" id="DejaVuSans-47"/><path d="M9.813 72.906h9.859V42.094L52.39 72.906h12.703L28.906 38.922 67.672 0H54.688L19.672 35.11V0h-9.86z" id="DejaVuSans-75"/><path d="M9.422 54.688h8.984V0H9.422zm0 21.296h8.984v-11.39H9.422z" id="DejaVuSans-105"/><path d="M45.406 46.39v29.594h8.985V0h-8.985v8.203Q42.578 3.328 38.25.953q-4.313-2.375-10.375-2.375-9.906 0-16.14 7.906-6.22 7.922-6.22 20.813 0 12.89 6.22 20.797Q17.968 56 27.874 56q6.063 0 10.375-2.375 4.328-2.36 7.156-7.234zm-30.61-19.093q0-9.906 4.079-15.547 4.078-5.64 11.203-5.64 7.125 0 11.219 5.64 4.11 5.64 4.11 15.547 0 9.906-4.11 15.547-4.094 5.64-11.219 5.64-7.125 0-11.203-5.64-4.078-5.64-4.078-15.547z" id="DejaVuSans-100"/><path d="M4.89 31.39h26.313v-8H4.891z" id="DejaVuSans-45"/><path d="M32.172-5.078q-3.797-9.766-7.422-12.735-3.61-2.984-9.656-2.984H7.906v7.516h5.282q3.703 0 5.75 1.765Q21-9.766 23.483-3.219l1.61 4.094-22.11 53.813H12.5l17.094-42.766 17.093 42.766h9.516z" id="DejaVuSans-121"/><path d="M2.984 54.688H12.5L29.594 8.797l17.093 45.89h9.516L35.687 0H23.485z" id="DejaVuSans-118"/><path d="M45.406 27.984q0 9.766-4.031 15.125-4.016 5.375-11.297 5.375-7.219 0-11.25-5.375-4.031-5.359-4.031-15.125 0-9.718 4.031-15.093t11.25-5.375q7.281 0 11.297 5.375 4.031 5.375 4.031 15.093zm8.985-21.203q0-13.953-6.203-20.765Q42-20.797 29.203-20.797q-4.734 0-8.937.703-4.203.703-8.157 2.172v8.735q3.954-2.141 7.813-3.157 3.86-1.031 7.86-1.031 8.843 0 13.234 4.61 4.39 4.609 4.39 13.937v4.453q-2.781-4.844-7.125-7.234Q33.938 0 27.875 0 17.828 0 11.672 7.656q-6.156 7.672-6.156 20.328 0 12.688 6.156 20.344Q17.828 56 27.875 56q6.063 0 10.406-2.39 4.344-2.391 7.125-7.22v8.297h8.985z" id="DejaVuSans-103"/></defs><use xlink:href="#DejaVuSans-78"/><use x="74.805" xlink:href="#DejaVuSans-101"/><use x="136.328" xlink:href="#DejaVuSans-119"/><use x="218.115" xlink:href="#DejaVuSans-32"/><use x="249.902" xlink:href="#DejaVuSans-67"/><use x="319.727" xlink:href="#DejaVuSans-97"/><use x="381.006" xlink:href="#DejaVuSans-115"/><use x="433.105" xlink:href="#DejaVuSans-101"/><use x="494.629" xlink:href="#DejaVuSans-115"/><use x="546.729" xlink:href="#DejaVuSans-32"/><use x="578.516" xlink:href="#DejaVuSans-47"/><use x="612.207" xlink:href="#DejaVuSans-32"/><use x="643.994" xlink:href="#DejaVuSans-49"/><use x="707.617" xlink:href="#DejaVuSans-48"/><use x="771.24" xlink:href="#DejaVuSans-48"/><use x="834.863" xlink:href="#DejaVuSans-75"/><use x="900.439" xlink:href="#DejaVuSans-32"/><use x="932.227" xlink:href="#DejaVuSans-114"/><use x="971.09" xlink:href="#DejaVuSans-101"/><use x="1032.613" xlink:href="#DejaVuSans-115"/><use x="1084.713" xlink:href="#DejaVuSans-105"/><use x="1112.496" xlink:href="#DejaVuSans-100"/><use x="1175.973" xlink:href="#DejaVuSans-101"/><use x="1237.496" xlink:href="#DejaVuSans-110"/><use x="1300.875" xlink:href="#DejaVuSans-116"/><use x="1340.084" xlink:href="#DejaVuSans-115"/><use x="1392.184" xlink:href="#DejaVuSans-32"/><use x="1423.971" xlink:href="#DejaVuSans-45"/><use x="1460.055" xlink:href="#DejaVuSans-45"/><use x="1496.139" xlink:href="#DejaVuSans-32"/><use x="1527.926" xlink:href="#DejaVuSans-49"/><use x="1591.549" xlink:href="#DejaVuSans-52"/><use x="1655.172" xlink:href="#DejaVuSans-32"/><use x="1686.959" xlink:href="#DejaVuSans-100"/><use x="1750.436" xlink:href="#DejaVuSans-97"/><use x="1811.715" xlink:href="#DejaVuSans-121"/><use x="1870.895" xlink:href="#DejaVuSans-32"/><use x="1902.682" xlink:href="#DejaVuSans-97"/><use x="1963.961" xlink:href="#DejaVuSans-118"/><use x="2023.141" xlink:href="#DejaVuSans-101"/><use x="2084.664" xlink:href="#DejaVuSans-114"/><use x="2125.777" xlink:href="#DejaVuSans-97"/><use x="2187.057" xlink:href="#DejaVuSans-103"/><use x="2250.533" xlink:href="#DejaVuSans-101"/></g><g id="legend_1"><path d="M694.75 184.5H831.2q3.2 0 3.2-3.2V88.96q0-3.2-3.2-3.2H694.75q-3.2 0-3.2 3.2v92.34q0 3.2 3.2 3.2z" style="fill:none;opacity:.8;stroke:#ccc;stroke-linejoin:miter" id="patch_5"/><path d="M697.95 98.718h32" style="fill:none;stroke:#000;stroke-linecap:round;stroke-width:1.5" id="line2d_5"/><g style="fill:#696969" transform="matrix(.16 0 0 -.16 742.75 104.317)" id="text_18"><defs><path d="M8.688 72.906h9.921V28.61q0-11.718 4.235-16.875 4.25-5.14 13.781-5.14 9.469 0 13.719 5.14 4.25 5.157 4.25 16.875v44.297H64.5V27.391q0-14.25-7.063-21.532-7.046-7.28-20.812-7.28-13.828 0-20.89 7.28-7.047 7.282-7.047 21.532z" id="DejaVuSans-85"/><path d="M53.516 70.516V60.89q-5.61 2.687-10.594 4-4.984 1.328-9.625 1.328-8.047 0-12.422-3.125t-4.375-8.89q0-4.845 2.906-7.313 2.907-2.453 11.016-3.97l5.953-1.218q11.031-2.11 16.281-7.406 5.25-5.297 5.25-14.172 0-10.61-7.11-16.078-7.093-5.469-20.812-5.469-5.172 0-11.015 1.172Q13.14.922 6.89 3.219v10.156q6-3.36 11.765-5.078 5.766-1.703 11.328-1.703 8.438 0 13.032 3.312 4.593 3.328 4.593 9.485 0 5.359-3.297 8.39-3.296 3.032-10.812 4.547L27.484 33.5q-11.03 2.188-15.968 6.875-4.922 4.688-4.922 13.047 0 9.672 6.812 15.234 6.813 5.563 18.766 5.563 5.14 0 10.453-.938 5.328-.922 10.89-2.765z" id="DejaVuSans-83"/></defs><use xlink:href="#DejaVuSans-85"/><use x="73.193" xlink:href="#DejaVuSans-83"/></g><path d="M697.95 122.203h32" style="fill:none;stroke:#009e73;stroke-linecap:round;stroke-width:1.5" id="line2d_7"/><g style="fill:#696969" transform="matrix(.16 0 0 -.16 742.75 127.802)" id="text_19"><use xlink:href="#DejaVuSans-78"/><use x="74.805" xlink:href="#DejaVuSans-74"/></g><path d="M697.95 145.688h32" style="fill:none;stroke:#d55e00;stroke-linecap:round;stroke-width:1.5" id="line2d_9"/><g style="fill:#696969" transform="matrix(.16 0 0 -.16 742.75 151.287)" id="text_20"><defs><path d="M19.672 34.813V8.108H35.5q7.953 0 11.781 3.297 3.844 3.297 3.844 10.078 0 6.844-3.844 10.078-3.828 3.25-11.781 3.25zm0 29.984V42.828h14.61q7.218 0 10.75 2.703 3.546 2.719 3.546 8.282 0 5.515-3.547 8.25-3.531 2.734-10.75 2.734zm-9.86 8.11h25.204q11.28 0 17.375-4.688Q58.5 63.53 58.5 54.89q0-6.703-3.125-10.657-3.125-3.953-9.188-4.922 7.282-1.562 11.313-6.53 4.031-4.954 4.031-12.376 0-9.765-6.64-15.093Q48.25 0 35.984 0H9.812z" id="DejaVuSans-66"/></defs><use xlink:href="#DejaVuSans-66"/><use x="68.604" xlink:href="#DejaVuSans-101"/><use x="130.127" xlink:href="#DejaVuSans-114"/><use x="169.49" xlink:href="#DejaVuSans-103"/><use x="232.967" xlink:href="#DejaVuSans-101"/><use x="294.49" xlink:href="#DejaVuSans-110"/></g><path d="M697.95 169.173h32" style="fill:none;stroke:#0072b2;stroke-linecap:round;stroke-width:1.5" id="line2d_11"/><g style="fill:#696969" transform="matrix(.16 0 0 -.16 742.75 174.773)" id="text_21"><defs><path d="M44.39 34.188q3.172-1.079 6.172-4.594 3-3.516 6.032-9.672L66.609 0H56l-9.313 18.703q-3.624 7.328-7.015 9.719-3.39 2.39-9.25 2.39h-10.75V0h-9.86v72.906h22.266q12.5 0 18.656-5.234 6.157-5.219 6.157-15.766 0-6.89-3.203-11.437-3.204-4.532-9.297-6.282zM19.673 64.797V38.922h12.406q7.125 0 10.766 3.297 3.64 3.297 3.64 9.687 0 6.39-3.64 9.64-3.64 3.25-10.766 3.25z" id="DejaVuSans-82"/><path d="M54.89 33.016V0h-8.984v32.719q0 7.765-3.031 11.61-3.031 3.858-9.078 3.858-7.281 0-11.484-4.64-4.204-4.625-4.204-12.64V0H9.08v75.984h9.03V46.188q3.235 4.937 7.594 7.374Q30.078 56 35.797 56q9.422 0 14.25-5.828 4.844-5.828 4.844-17.156z" id="DejaVuSans-104"/></defs><use xlink:href="#DejaVuSans-82"/><use x="64.982" xlink:href="#DejaVuSans-117"/><use x="128.361" xlink:href="#DejaVuSans-116"/><use x="167.57" xlink:href="#DejaVuSans-104"/><use x="230.949" xlink:href="#DejaVuSans-101"/><use x="292.473" xlink:href="#DejaVuSans-114"/><use x="333.586" xlink:href="#DejaVuSans-102"/><use x="368.791" xlink:href="#DejaVuSans-111"/><use x="429.973" xlink:href="#DejaVuSans-114"/><use x="469.336" xlink:href="#DejaVuSans-100"/></g></g></g></g><defs><clipPath id="p4e3cc72dcc"><path d="M117 77.76h725.4v498.96H117z"/></clipPath></defs></svg>