<svg height="864" viewBox="0 0 936 648" width="1248" xmlns="http://www.w3.org/2000/svg" xmlns:xlink="http://www.w3.org/1999/xlink"><defs><style>*{stroke-linecap:butt;stroke-linejoin:round}</style></defs><g id="figure_1"><path d="M0 648h936V0H0z" style="fill:#fff" id="patch_1"/><g id="axes_1"><path d="M117 576.72h725.4V77.76H117z" style="fill:none" id="patch_2"/><path clip-path="url(#pae29e72897)" d="m149.973 554.04 44.982-.082 3.395-.156 1.697-.275 1.698-.43 1.697-.592 1.697-.898 1.698-1.078 1.697-1.113 2.546-2.125 1.698-1.604 1.697-1.089 1.698-1.076 1.697-.981 1.698-.56 2.546-.277 1.697-.032.849.195 1.697.11 1.698.226.849.027 1.697-.173 2.546.146 1.698.137 2.546-.126 1.697.21 1.698.28 2.546.726 2.546.387.849.098 2.546.6 1.697.083 2.546.233 1.698.084.849-.043 3.394.346 4.244.053.849.12.848-.143 9.336-.183 4.244-.914 1.697-.827 1.698-.931 5.092-3.614 1.698-1.56 3.394-2.096 2.547-1.852 5.94-3.72.85-.361.848-.508 2.546-.988.849-.293 1.697-.33 2.547.246.848.045.849.196 1.697.216 2.547 1.033 1.697.827 1.697.693.85.166 4.243 1.705 1.697.427 3.395 1.232 4.244 1.724 4.243 1.31 1.698.006.848.306 3.395.049.85.442 2.545.863.849-.029.849.16 1.697-.01.849.141.849-.198 2.546.138.848-.185.85-.864 3.394-.893 4.244-.444 1.697-.168.849-.173.848.037 2.547-.707.848-.325.85-.127 3.394-1.096 2.546-1.555.849-.144.849-.372.848-.088.849-.514.849-.325.848-.544 1.698-1.545.849-.433.848-.772 1.698-1.219 1.697-1.587 1.698-1.675 1.697-1.751 2.546-3.99 2.546-4.26 2.547-5.782 1.697-4.537.849-1.77 1.697-4.11 2.546-5.697.849-1.334.849-1.084.848-1.426 1.698-2.2.849 1.76.848-.706.849.221 1.697-.059.85-.655 2.545-2.658 1.698-1.882.848-.722 1.698-2.349.849-3.545.848-2.166 1.698-3.022.849-.964.848-.549.849-1.266 1.697-1.154.85.342.848-.232.849.088.848.524.849-.234.849.92.848 5.209.85-.271.848.932.849.344.848.062.849.46.849.194.848 3.015.85-2.834.848-.634.849-1.46 1.697-1.785.849-2.518.848-5.796.85-1.017.848-1.63.849-1.082.848-.84.85-.01.848-.247.849-2.686.848 2.593.849.92.849 3.21.848 1.394.85 2.044.848 2.606.849 3.167 1.697 4.717 1.697 4.324 3.395 8.426.849 1.633.849-.021 1.697 3.973 2.546 5.507.849 1.23.849 1.844 1.697 3.336 2.546 5.066.85 1.45.848 2.512 3.395 5.977 2.546 2.924 3.395 2.736.848.637.85.374.848-.042 1.697.303.849.131 2.546 1.177.849-1.017 3.395 1.789 1.697.755 1.698.076 2.546.568 1.697.233.849 1.154.849-.025.848-.63 1.698-.494.849-.323.848-.19.849-.393 1.697-.485.85-.485 2.545-.589.849-.634.849-.152.848.198.85-.33 1.697-.322 1.697-.135.849-.438.848-.227.85.102.848-.283.849.297.848-.132.85.183.848.028 1.697.72 1.698.93.848.417 2.547 2.059 2.546 1.307.848.34 3.395 2.226 1.698.96 1.697.639 4.244 2.597.848.375.85.601 1.697.842 2.546 1.505 1.697.555 2.546.985 1.698 1.057.849.27.848.687.849.153 1.697.64.85 1.538 3.394.89.849.08.848.346 1.698.246.849.019.848-.28.85.311.848.071.848.211.85-1.064 7.638.69 1.697-.125.849-.045.849-1.53.848-.225 1.698.137.848.326 1.698-.884.849-1.002.848-.59 1.698-.071.848-.575 1.698-1.431.849.84.848-.923 1.698-.422.848-1.583 1.698-1.874.849-.472.848-1.384.85-.401.848-.24 3.395-6.692.848-2.043 1.698-.903.849-2.233.848-2.558.849-1.524.849-1.783.848-2.473 1.698-1.24.849-2.483.848-1.603.849-2.048.849-1.172.848-1.877 1.698-1.19.849-3.577.848.174.85-1.516 2.545-2.938.849-.13.849-2.537.848.345.85-.446.848-1.422.849-.247.848-1.028.849.048.849-.607.848-.462.85-1.346.848-.462.849.236.848.387.849-.112.849 5.487.848-4.378.85-.385 2.545 1.396.849.075.849-.135.848.22.85 1.183 1.697 1.315.848-.062.85.13.848-3.805.849 4.964 2.546 3.356.848.648.85.154.848 2.618 3.395 4.666.848.695.85.41 1.697 1.938 1.697 1.276.849.785 1.697.739.849 2.062.849.051.848.637 1.698 1.58.848.31.85.106.848 1.47.849.432.848 1.14 1.698 1.424 1.697.39.849.526.849.7.848.349.85.08.848.286 1.697.215.849-.074.849.195 1.697.019 2.546-.336.849-.606.849.129.848-.131.85.626.848-1.178.849-.928.848-.137.849-.698.849-.392 2.546-2.453 1.697-.534.85-.941.848-.284.849-.604.848.978.849 2.258.849 1.065.848-.01.85-1.963.848-.546 1.697-1.549.849-.974.849-.495.848-.093.85-1.118.848-.616.849-.845.848-2.687.849-3.293.849-.774.848-.36.85.39 2.545-.613 1.698-.998.848-1.1.85-3.058.848-2.189.849-2.745.848-4.11.85-.547.848-.203.849-4.448.848-9.88.849-7.652.849-9.971.848-12.725.85-7.987.848-2.506.849-6.211 1.697-40.966 1.697-27.679.85-20.773.848-11.25.849-3.643.848-25.825 1.698-22.635.848-8.247.85-14.117.848-7.604.849-1.484.848 8.9.849-8.482.849-4.29.848.317.85 2.17 1.697 6.518.848 11.654.85 7.512.848 5.63 1.697 20.806.849 5.253.849 6.779.848 1.452.85 25.583.848 15.282.849 12.647.848 14.882.849 6.2.849 4.09.848 19.839.85 9.176.848 13.336 1.697 21.52.849 5.166.849 2.02.848 13.216 1.698 10.576 1.697 11.92.85 2.244.848.937.848 8.482.85 2.07.848 4.113.849 2.905.848 2.431.85 1.124.848.734.849 2.857.848 1.975.849 2.412 1.697 3.237.85.862.848.563.849-.212h0" style="fill:none;stroke:#000;stroke-linecap:round;stroke-width:1.5" id="line2d_1"/><path clip-path="url(#pae29e72897)" d="m149.973 554.04 45.83-.105 2.547-.352.848-.329.85-.17.848-.471.849-.618 1.697-1.877.849-.77.848-2.646.85-2.066 1.697-4.836.848-3.4.849-2.109 2.546-11.329.849-4.06 1.697-5.85 1.698-5.132.849-1.196.848-1.727 1.698-2.895.848.553.85-2.336.848 1.45.849-1.02 1.697 2.605.849-.536.848.086.85-.274 1.697-1.062.848 1.451 1.698.45.848.626.85 1.685.848-.216.849 2.035.848.656.849.456.849.915.848 2.122.85 1.347 1.697 4.887.848.416.85 1.818.848 2.216.849.79.848 2.004.849 1.705 2.546 4.205.849 1.91.849-.193.848 1.447.849-.096 1.697 1.333.85 1.336 1.697.934.848.135 1.698-.096.848.184 1.698.888.849 1.32.848.372.85.925.848.654.848.473.85-.184.848.834.849.649 1.697.736 1.698 1.498.848.346.849.602 2.546.858.849.062.849.447.848.235 1.698.024.848-.021.85.42.848-1.809.849-.043.848.163.849-.035.849.141 1.697-.06 3.395-.04 1.697.125.85-.1.848 2.064 1.697-.013.85-.032.848-.143.849.002.848-.138.849.221.849.36.848.03.85.43 1.697.002 3.394-.403 2.547-.515 1.697-.018.849-.686.848-.114.85-.377 1.697-.157h.848l.85-.142 1.696.26 2.547.42.848-.025.85-.485 1.697.227.848.33 1.698-.025.848.017.85.294.848.075.849-.173.848.21.849.036 1.697.38.85.374.848.227.849-.076.848-.298 2.546-.026.85-.298.848-.17.849.218 1.697-.29.849.027 4.243-.463.85.016 9.335-1.282 2.546-.994.849-.021.849-.341.848-.048.849-.271.849-.521 3.395-.639.848-.787.85-.34 1.697-.178.848.096.849-.57.849-.248.848-.382 1.698-.061 1.697-1.426.849-.384.849-.559.848.146.85-.193.848-1.12.849-.405 2.546-2.29.848-.62.85-1.25 1.697-.961.848-.189.849-.896.849-1.514.848-.858 2.547-3.529.848-.902.85-2.283.848-1.495.849-2.08.848-1.524 1.698-6.2.848-.911.85-2.36.848-1.727.849-2.379 1.697-3.142.849-2.095.848-1.632.85-.534 1.697-2.116.848-.748.849.59.849.75.848-1.041.85-.622.848-.267.849-.655.848-2.183.849-.702.849-2.21.848.02.85-1.287.848-.433.849-.694.848.477.85-2.612.848-.338.849-1.723.848.686.849-1.499.849.577.848 1.894.85 1.214.848.916.849.42.848.936.849-.371.849.446.848-1.511.85 2.401 1.697 4.167.848.331.849 1.054.849-.902.848-1.72.85-1.414.848 1.613.849-51.356.848-1.78.849-1.118.849-2.974.848-2.102 1.698-7.22.849-2.78.848-.995.85-3.387.848-2.139.849-.926.848-.523.849-1.57.849 50.624.848 1.755.85.442.848 2.606.849 3.023.848.282.849.4.849 1.28.848-.204.85 3.288.848 2.514.849.407 1.697 1.685.849.363.848 1.583.85 3.352.848 1.885.849-.03.848 2.827.849 1.007.849 1.696.848 1.285.85.471.848 1.168.849 2.416.848 1.626 1.698 4.49.849-.518.848-1.927.849.014.849 1.267.848 1.75.85 2.465.848-.153.849.449.848 1.342.849.086.849-.147.848-.405.85-.238.848-1.818 1.697.816.849.09.849-.7.848-.904.85-.524.848.426.849-1.038.848-.704 1.698-.628.848.287.85-.986.848.343.849-.458.848-.666.85-1.37.848-.744.849-1.272 2.546-2.4.848-.344.85-.14.848-1.481.849-.857.848-1.28.849-.857.849-1.238.848.69.85-1.218.848-.146.849.497.848-.604.849.343.849 1.17.848-.156.85-.416.848 1.507 3.395 4.554.848.112.85 1.811.848.159.849.56 1.697 1.394 2.546 2.937.849 1.457.849.874.848 1.814.85 12.304.848 1.961.849 1.557.848 1.794 1.698 5.205.848 2.09.85 1.287.848 1.966.849 1.014 1.697 3.948.849 2.286.848 1.452.85-9.813 1.697 3.416.848 1.946.85 1.644 1.696 2.006.85.681.848.385.849 2.234.848.913 1.698.63 1.697.094 1.698.281 1.697.098.849.419.849.025.848.161.849.522.849.184 1.697.684 2.546.007 1.698.434 1.697.047 2.546.012 1.698-.108 2.546.235 2.546.103.849-.09.849.075 1.697-.067 4.244.294 1.697-.027 4.244.096 1.697-.132 4.244-.792.848-.197 1.698-.723.848-.243 1.698-.985 1.697-.993.85-.59 2.545-1.125 2.546-1.97.85-.679 1.697-1.142 2.546-2.043.848-.468 1.698-1.34.849-.365 1.697-1.686 1.697-1.61.85-1.48 1.697-.828 2.546-1.62.849-1.707.848-.664.849-.301.849-.818.848-.244.85-.458.848-.214.849-.802.848.676.849-.618 1.697-.547 1.698-1.207.849 1.291.848-.096 1.698-.634.848 1.611.85-1.484 1.697-.244.848-.6 3.395.068.849-.446.849-.685.848-.401.85-.21.848.352.849-1.94.848 1.228.849-.045.849.46.848.278.85.79.848.413.849.161.848.298 3.395 2.652.849.404 1.697 1.09.849.2 1.697.828.85-.346 2.545.752.849.739.849.31 3.395 2.069.848.8.85.639.848.175 1.697 1.43.849.011.849.181.848.49.85-.35.848.082.849.238.848-.342 3.395-.277.849.344.849-.282.848-.15 1.698.108.848-.374.85.152 1.697-.99 2.546-1.661.848-.697 1.698-1.954 1.697-1.577.85-.74.848-1.26.849-.612.848-1.101 1.698-.724.848-.18.85-.942.848-1.62.849-1.33 1.697-4.514.849-2.374.848-2.03 1.698-2.953.849-2.197.848-2.964.849-3.557.849-2.793.848-2.115 1.698-2.34.849-1.93 1.697-6.103.849-3.462 1.697-8.525.849-4.87.849-8.196 1.697-27.845.849-15.952.849-11.057.848-6.915.849-11.614.849-23.024 1.697-58.17.849-26.52.849-20.477.848-15.698.849-22.634.849-27.198.848-15.156.85-20.92 2.545-43.829.849-10.904.849 3.427 1.697 23.704.849 16.645.849 11.796.848 13.573.849 19.817.849 28.261.848 21.638 1.698 53.963 2.546 61.32 1.698 35.468 2.546 40.444 2.546 23.147 1.697 18.245.849 6.39.849 7.9 1.697 8.062.849 5.142.849 3.785.848 8.08.849 3.737 1.697 2.16.85 2.01.848 1.607.849 1.25.848.768.85 1.783 1.696.9.85.752.848 1.245.849 1.546.848 1.232.85.833.848-.121.849.34.848.488.849 1.14.849 1.57.848.937.85.273.848.806.849-.272h0" style="fill:none;stroke:#009e73;stroke-linecap:round;stroke-width:1.5" id="line2d_2"/><path clip-path="url(#pae29e72897)" d="m149.973 554.04 41.587-.071 4.244-.256 1.697-.53.849-.49.848-1.665.85-.45.848-.204.849-.96.848-1.541.849-.92.849-1.163.848-3.932 1.698-6.27.849-3.369.848-2.9.849-4.125.849-5.473.848-4.503.85-7.372.848-8.925.849-3.39 1.697-11.252.849-2.277.849-.837.848-2.92 1.698-1.961.848.05.85.95.848 1.665.849.45.848 3.195.849 6.065.849-.5 1.697 6.423.849.112.849 1.082.848 2.768.849.602 1.697 3.717.85 1.91.848 2.317.849 4.054.848 2.39.849 1.592 1.697 5.514.85 1.705 1.697 5.555.848 2.185.85 2.86.848 1.04.849.41.848.857.849 1.389.849 2.389 1.697 2.022.849.98.849-.01.848 1.174.849.653 1.697.552.85.817.848-.113 2.546.02.849-2.092.848.51 2.547 1.89.848.326.85-.48.848.337.848.153.85-.143.848 1.185.849.725.848.275.85-.347.848.848.849.418.848-.755.849.49h.849l.848-.225 1.698.276.849.378 3.394.081.85.674.848-2.869.849-.745.848.52.849-.674 2.546.194.849-.06.849-.41.848-.01.85-.5.848-.03.848.112.85-.286.848 2.89.849.418.848-.092.85.562.848.01.849.327 1.697.102.849.429.848.174.85.633.848-.245.849.03 1.697.307.849.275 1.697-.204 2.546-1.072.849.02.849-.449.848-.092.85-.265.848.234.849-.398.848.164 1.698.081.848-.275.85-.092 1.697.46.848.101.85-.204.848-.592 1.697-.899.849-.52 1.697.582.85.776.848.04 2.546.623 1.697-.112.85.235.848 1 .849.164 1.697.786.849-.398.848-.266.85-.806.848-.072.849.317.848-.235.85-.02 1.697.255 1.697-.153.849.367 1.697.204.849.623.849-.05.848-.246.849-.04.849-.235.848.102.85-.01.848-.266 2.546.02 1.697-.347.85-.04.848-.307 1.697-.163 3.395-.868.849.01.849-.255 1.697-1.021.849-.45 1.697-.388.849-.694 2.546-.899.849-.112 2.546-1.746.849-.735 1.697-.388.849-.746.849-.54.848-.746.849-.46 1.697-.612.85-1.369 1.697-1.245.848-.45.849-.765.849-.95.848.01.85-1.276.848-1.869.849-.929.848-.153.85-1.573.848-2.267.849-2.767.848-1.46 1.698-5.064.848-.358 1.698-4.34.849-3.44 1.697-2.42.849-1.981.848-2.635.85-.357 1.697-.266.848-2.001.849 1.807 1.697-2.042.85-.664.848.235.849-.592.848-2.798.849-.704.849-1.42.848.613.85-.398.848.572.849-.082.848 2.675.85-3.257.848 1.348.849-1.103.848 1.215.849-.266.849 1.359.848 2.256 1.698 3.42.849.848.848.388.849-1.878.849-.368.848-1.562.85 2.358 1.697 2.9.848.256.849.132.849-1.725 1.697-1.634.849.694.849-44.642.848-3.022.849-1.542.849-2.053.848-2.45 1.698-6.076.849-1.164.848-.388.85-3.38.848-2.164 1.697-2.237.849-1.838.849 44.336.848 1.522.85.418.848 1.552.849 3.278.848-.704.849.5.849.235.848-1.103 1.698 5.014.849 1.164.848.224.849.644.849-.766.848 1.848.85 3.584.848 1.031.849-1.51.848 1.827.849.541.849.899.848 1.44.85.387.848 1.195.849.909.848 1.072.85 1.654.848 2.134.849-2.113.848-1.583.849.439.849 2.022.848 1.337.85 2.053 1.697-2.094.848.715.849-.858.849-1.47.848-.153.85.082.848-3.635.849 1.072.848-1.318.849-.163.849-1.603.848 1.358.85-1.062.848 1 .849-1.061 1.697-.52.849.734.848.368.85-1.389.848 1.756.849-.786.848.092 1.698-1.715.849-3.145.848-.307.849-.99.849.02.848-.418.85 1.419.848-2.971 1.697-3.34.849-.398 1.697-1.358.85-.633 1.697.256.848-.072.849.225.849 1.582.848-.776.85-.48.848 3.503 1.697 4.125.85 1.256 1.696 4.135.85 1.716 1.697 2.675 2.546 4.258.849 2.093.848 1.052.849 1.644.849.98.848 1.757.85 2.47.848 1.481.849 1.869.848 1.358 1.698 4.911.848 1.501.85.899.848 1.603.849-9.935.848-.99.849 1.592.849 1.95.848.91.85-.338.848 1.389.849 1.031.848 1.88.85.928.848.43.848.295.85.45.848.633.849 12.804.848 3.86.85.153.848.623.849.327 1.697.153.849.46.848.132.85.429.848.725 1.697.653 2.546.562.85.408.848-.132 1.697.214 1.698.49.848.082 3.395-.204.85-.215 2.545-.122.849.275 1.697.133 1.698-.306.849-.174.848.072 1.698-.03 1.697.101 1.698-.306 3.394.01 2.547.51 1.697.062 2.546-.174 1.698-.214 3.394-.98 1.698-.674.849-.592 1.697-1.46.849-.338.849-.592.848-.388.849-.541 1.697-1.41 2.547-1.95.848-.827.849-.52 1.697-.735 1.698-.511.849.102.848-1.133.849-.552.849-.745.848-.296.85-1.072.848.98.849-.102 1.697-1.532.849-.265.849-1.44.848-.684.849-.5.849-.685.848.307.85-.5.848.163.849-.797.848.153.849-1.572.849-.296.848.286.85.01.848-.44.849 1.492.848-.215.849-.071.849-.307.848 1.256.85-.806 1.697-.358.848-.02 1.698.265.848-.316.85-.03.848-.225.849-.5.848-.062.85-.204.848.378.849-1.032.848.756 1.698-.01.848.214.85.082.848-.174.849.715 1.697.04.849.062.848.378.85.766.848.224.849.072 1.697.868.849 1.062.848.439.85.214.848.715.849.122.848.388.849.705.849.541.848.051.85.358.848.224 2.546 2.308.849-.082 1.697 1.246.849-.541.849-.123.848.388.85-.092.848-.234.849.52.848-.122.849.081.849-.224.848-.409.85-.092.848.297 1.697-.194 1.698.755 2.546.398.849-.122.848-.868.849-.398 5.092-5.27.85-.428.848-1.297.849-.715.848-.867 1.698-1.042.848.02.85-.51.848-1.113.849-.786 1.697-2.86.849-1.184.848-.796 2.547-4.759 1.697-5.268 1.697-3.89.85-1.267.848-.817.849-2.93.848-3.41.849-4.034 1.697-10.068.85-3.503.848-5.299.849-10.589.848-14.346 1.698-38.087.849-11.988.848-9.19.849-15.806.849-28.202.848-35.616 1.698-56.773 1.697-30.112 1.698-50.748.848-13.336.85-17.828 1.697-22.383.848-14.03.849-6.892.849 8.465.848 20.412.85 12.457.848 19.32.849 7.249.848 10.854.849 20.412.849 28.53.848 18.215 1.698 54.241.849 16.552 2.546 60.01 1.697 32.9.849 11.63.849 13.478 2.546 24.394 1.697 20.728.849 6.361.849 7.577.848 4.493.85 3.594.848 4.564.849.531.848 5.606.849 3.952.849.081.848 1.154.85 2.665.848 2.247.849 1.286.848.082.85 1.195.848.418.848-.153.85 1.072.848 1.41.849 2.225.848.797.85-.123.848.051 1.697 1.41.849-.062 1.697 1.43.85.03.848.838.849-.133h0" style="fill:none;stroke:#d55e00;stroke-linecap:round;stroke-width:1.5" id="line2d_3"/><path clip-path="url(#pae29e72897)" d="M149.973 554.04h48.377l.848-1.04h1.698l.849-.52h.848l1.698-3.12.848-3.12.85-.521.848-1.56.849-1.04.848-2.6 1.698-7.801h.848l.85-3.12.848-8.322.849-5.2.848-1.56.85-1.04h.848l.849-2.08.848-3.121.849.52.849 1.04.848-.52.85 2.08.848 1.56.849-1.56.848.52.849 6.76.849 5.722.848-1.04.85 1.04.848-1.04.849 2.6h2.546l.848.52.85 2.08 2.545 3.12h1.698l.848 2.6.85 1.56 1.697 5.202.848 3.12.85 1.04h.848l.849.52.848-2.08.849.52 1.697 2.08.85 1.56h1.697l.848-.52h1.698l.848.52h1.698l.849 2.08.848 1.56 1.698 1.04.848-.52h1.698l.849-1.56h6.79l.848-.52h.849l.849.52h1.697l.849 1.56h5.092l.849-1.04.848.52h.85l.848-.52h2.546l.849-2.08.848.52.85-.52h3.394l.849-2.08.848-.52.85.52h.848l.849-.52h1.697l.849 1.04.849-.52.848.52h3.395l.849 3.12.849-1.04.848-.52h.849l.849 1.04h1.697l1.698 1.04h.848l.849-.52h2.546l.849-.52.849 1.56h.848l.85.52h2.545l.849.52h.849l.848-.52.85.52.848-.52h3.395l.848.52 1.698-1.04h2.546l.849-1.04h.848l.85-.52.848.52h3.395l.848-2.08 1.698 1.04h2.546l.849-.52 1.697 1.04h4.244l.849 1.04.848-.52h2.546l.85-1.56.848 1.56.849-.52h3.394l.85.52h.848l.849 1.04.848.52h2.546l.85.52.848-.52.849-2.08.848-4.68.85-1.04h1.697l.848-1.04.849-3.12.849-.52 1.697-5.201 1.698-3.12h.848l1.698 1.04.848 4.68.85 1.04h1.697l.848-2.08.849 1.04.849-2.08h1.697l1.698 3.12.848-5.2.849-.52 1.697-3.12.85-2.601h1.697l.848-6.76h.85l.848 2.6.849-6.241.848-1.04h1.698l.848-2.08.85-5.721 1.697-5.201.848-4.68.849-2.6h.849l.848 2.6.85-2.08.848-3.121.849 8.84.848 3.641.849-10.4h.849l.848 1.04.85 2.6.848.52.849-4.16.848-5.201.849-3.12h.849l.848 1.56.85-2.08.848.52.849-9.362.848-4.68.85 10.4h1.697l.848-1.04.849 2.08.849 8.322.848 3.64.85 5.72h.848l.849-8.32.848 2.6.849-11.441.849 6.76.848 4.681h1.698l.849-8.32.848 2.08 1.698-11.962.848 8.841h1.698l.849-3.12.848-5.72.849 6.76.849-5.2.848-6.241.85-5.201h.848l.849 4.16.848-3.12.85 2.08.848.52.849-5.2h1.697l.849 17.162.848-1.56.85 2.08.848 5.72 1.697 9.882h.849l.849-4.68.848 3.64.85 4.68.848 2.08.849-3.12.848-2.6h1.698l.848 10.92.85-8.32 1.697-4.16h1.697l.849 7.8.848-1.56.85.52h.848l.849 5.72.848-1.04h1.698l.849-7.28.848 10.921.849 2.6.849 1.04h.848l.85-3.64.848 6.24 1.697 1.041.849-3.64.849-2.08.848 3.64h.85l.848-8.321.849 2.08.848-.52h.849l.849-4.68h.848l.85 3.64.848-5.2.849 1.04.848-2.08.849-.52.849 2.08h1.697l.849-3.641.849 1.56.848-1.04h.85l.848 4.68h1.697l.849-5.2.849-1.04.848.52.85 3.12.848-1.04h.849l.848-4.68.849 6.24.849-.52.848 2.6.85-7.8.848-2.08h1.697l.849 3.64.849-1.04 1.697-.52v-.52l.849 1.04.849-.52.848 4.68.85.52.848 1.56.848-1.04.85 3.12.848 2.08.849-2.6h.848l.85 7.281.848 3.64 1.697 2.081h.849l.849.52h.848l.85 2.08 1.697 2.08.848 4.161.849-2.08.849 2.08h.848l.85.52h1.697l.848 2.6.849 1.56h1.697l.85 1.04.848 1.561.849 1.04.848 2.08.85 4.68.848.52h.848l.85 1.041.848.52.849 3.12.848.52.85 1.04h1.697l.848 2.08h1.698l.848-1.04h4.244l.849-.52.848.52h3.395l.849-1.56h.849l.848 1.04h4.244l.849.52h4.243l.85 1.56.848.521h.849l.848-2.08h4.244l.849-.52h5.092l.849-.52.848 1.56h3.395l1.698-1.04h5.092l.849-.52.848-2.6h1.698l.849-10.922.848-1.04h.849l1.697-5.2h1.698l.849-3.641.848-1.56.849-.52h.849l.848 2.6h1.698l.849 5.72.848-.52.849-2.6.849.52.848 1.56h1.698l.849-1.56.848.52h.85l.848-1.04.849.52h1.697l.849 4.16.848-.52.85 2.081.848.52.849 1.04h1.697l.849 1.56.848-2.6.85-3.12.848 1.04.849-2.6h1.697l.849 1.04.848-4.16.85-2.081.848 2.6.849-2.6h1.697l.849-1.04.848 2.08.85 1.56.848-3.12.849.52h1.697l.849-6.76.849 5.72.848.52.849-2.6.849 1.04h1.697l.849 2.6h1.697l.849 2.08h2.546l.849 4.68 1.697-1.04.849 2.601.849-4.16h1.697l.849 2.08.849-1.56 2.546 3.12h1.697l.849-2.08.849-.52.848 2.6.85-2.08.848 4.68h1.697l.849-1.04.849 2.6.848 1.04h.85l.848.52h2.546l.849-.52.848.52.85 2.08h2.545l.849-1.56.849-.52.848-4.68.85 1.04.848-3.12h1.697l.849 1.04h.849l.848-1.04.85-1.56.848-.52h1.697l.85-5.201.848-1.56.849 1.04h.848l.849 3.64h1.697l.85-7.28.848-1.56h.849l.848-2.601.849-3.12h1.697l.85 1.04 1.697-5.2 1.697-10.402h1.697l.85 1.56.848-3.12 1.697-15.602.849 1.04.849-21.322.848-6.241.85-2.08.848-9.361.849-16.122.848-11.962.85-6.76.848-1.56.849-3.12.848-2.081 1.698-37.444.848-10.402.85-23.922.848-6.761.849-27.043.848-16.122.849-2.08.849-9.361.848-21.323.85-17.162.848-34.324.849-23.403.848-2.6.849 6.24.849 3.121.848-2.08.85 13.002.848 17.161.849 24.443 1.697 19.242.849 22.883.848 31.204 1.698 45.765.849 23.403.848 11.961.85 14.562.848 22.882 1.697 29.124.849 4.16.849 6.761.848 13.001.85 4.16 2.545 18.203.849 9.361h.849l.848-.52.85 2.08.848 1.04.849 7.801.848-1.04.849 5.2.849 1.56.848 2.601.85 1.56.848 1.04.849-1.56.848-.52.85.52.848 2.6.848 1.04.85 1.561.848-3.64.849 1.04h.848l.85-1.04.848.52h1.697l2.546 3.12.85 2.08.848-.52 1.697 1.04h0" style="fill:none;stroke:#0072b2;stroke-linecap:round;stroke-width:1.5" id="line2d_4"/><path d="M117 576.72V77.76" style="fill:none;stroke:#d3d3d3;stroke-linecap:square;stroke-linejoin:miter;stroke-width:1.25" id="patch_3"/><path d="M117 576.72h725.4" style="fill:none;stroke:#d3d3d3;stroke-linecap:square;stroke-linejoin:miter;stroke-width:1.25" id="patch_4"/><g id="matplotlib.axis_1"><g id="xtick_1"><g style="fill:#696969" transform="matrix(.16 0 0 -.16 120.666 598.378)" id="text_1"><defs><path d="M9.813 72.906h9.859V5.078q0-13.187-5-19.14-5-5.954-16.094-5.954h-3.75v8.297h3.078q6.531 0 9.219 3.672Q9.813-4.39 9.813 5.078z" id="DejaVuSans-74"/><path d="M34.281 27.484q-10.89 0-15.093-2.484-4.204-2.484-4.204-8.5 0-4.781 3.157-7.594 3.156-2.797 8.562-2.797 7.485 0 12 5.297 4.516 5.297 4.516 14.078v2zm17.922 3.72V0H43.22v8.297Q40.14 3.328 35.547.953q-4.594-2.375-11.234-2.375-8.391 0-13.36 4.719Q6 8.016 6 15.922q0 9.219 6.172 13.906 6.187 4.688 18.437 4.688h12.61v.89q0 6.203-4.078 9.594-4.078 3.39-11.453 3.39-4.688 0-9.141-1.124-4.438-1.125-8.531-3.375v8.312q4.921 1.906 9.562 2.844 4.64.953 9.031.953 11.875 0 17.735-6.156 5.86-6.14 5.86-18.64z" id="DejaVuSans-97"/><path d="M54.89 33.016V0h-8.984v32.719q0 7.765-3.031 11.61-3.031 3.858-9.078 3.858-7.281 0-11.484-4.64-4.204-4.625-4.204-12.64V0H9.08v54.688h9.03v-8.5q3.235 4.937 7.594 7.374Q30.078 56 35.797 56q9.422 0 14.25-5.828 4.844-5.828 4.844-17.156z" id="DejaVuSans-110"/></defs><use xlink:href="#DejaVuSans-74"/><use x="29.492" xlink:href="#DejaVuSans-97"/><use x="90.771" xlink:href="#DejaVuSans-110"/></g></g><g id="xtick_2"><g style="fill:#696969" transform="matrix(.16 0 0 -.16 196.392 598.378)" id="text_2"><defs><path d="M34.188 63.188 20.797 26.906h26.812zm-5.579 9.718h11.188L67.578 0h-10.25l-6.64 18.703h-32.86L11.188 0H.78z" id="DejaVuSans-65"/><path d="M18.11 8.203v-29H9.077v75.484h9.031v-8.296q2.844 4.875 7.157 7.234Q29.594 56 35.594 56q9.968 0 16.187-7.906 6.235-7.907 6.235-20.797T51.78 6.484q-6.218-7.906-16.187-7.906-6 0-10.328 2.375-4.313 2.375-7.157 7.25zm30.578 19.094q0 9.906-4.079 15.547-4.078 5.64-11.203 5.64-7.14 0-11.218-5.64-4.079-5.64-4.079-15.547 0-9.906 4.078-15.547 4.079-5.64 11.22-5.64 7.124 0 11.202 5.64t4.078 15.547z" id="DejaVuSans-112"/><path d="M41.11 46.297q-1.516.875-3.297 1.281Q36.03 48 33.89 48q-7.625 0-11.703-4.953-4.079-4.953-4.079-14.234V0H9.08v54.688h9.03v-8.5q2.844 4.984 7.375 7.39Q30.031 56 36.531 56q.922 0 2.047-.125 1.125-.11 2.484-.36z" id="DejaVuSans-114"/></defs><use xlink:href="#DejaVuSans-65"/><use x="68.408" xlink:href="#DejaVuSans-112"/><use x="131.885" xlink:href="#DejaVuSans-114"/></g></g><g id="xtick_3"><g style="fill:#696969" transform="matrix(.16 0 0 -.16 277.813 598.378)" id="text_3"><defs><path d="M8.5 21.578v33.11h8.984V21.922q0-7.766 3.016-11.656 3.031-3.875 9.094-3.875 7.265 0 11.484 4.64 4.234 4.64 4.234 12.656v31h8.985V0h-8.984v8.406Q42.047 3.422 37.718 1q-4.313-2.422-10.032-2.422-9.421 0-14.312 5.86Q8.5 10.296 8.5 21.578zM31.11 56z" id="DejaVuSans-117"/><path d="M9.422 75.984h8.984V0H9.422z" id="DejaVuSans-108"/></defs><use xlink:href="#DejaVuSans-74"/><use x="29.492" xlink:href="#DejaVuSans-117"/><use x="92.871" xlink:href="#DejaVuSans-108"/></g></g><g id="xtick_4"><g style="fill:#696969" transform="matrix(.16 0 0 -.16 351.715 598.378)" id="text_4"><defs><path d="M39.406 66.219q-10.75 0-17.078-8.016-6.312-8-6.312-21.828 0-13.766 6.312-21.781 6.328-8 17.078-8 10.735 0 17.016 8 6.281 8.015 6.281 21.781 0 13.828-6.281 21.828-6.281 8.016-17.016 8.016zm0 8q15.328 0 24.5-10.281 9.188-10.282 9.188-27.563 0-17.234-9.188-27.516-9.172-10.28-24.5-10.28-15.375 0-24.593 10.25-9.204 10.265-9.204 27.546t9.204 27.563q9.218 10.28 24.593 10.28z" id="DejaVuSans-79"/><path d="M48.781 52.594v-8.407q-3.812 2.11-7.64 3.157-3.828 1.047-7.735 1.047-8.75 0-13.593-5.547-4.829-5.532-4.829-15.547 0-10.016 4.829-15.563 4.843-5.53 13.593-5.53 3.907 0 7.735 1.046 3.828 1.047 7.64 3.156V2.094Q45.016.344 40.984-.531q-4.015-.89-8.562-.89-12.36 0-19.64 7.765-7.266 7.765-7.266 20.953 0 13.375 7.343 21.031Q20.22 56 33.016 56q4.14 0 8.093-.86 3.953-.843 7.672-2.546z" id="DejaVuSans-99"/><path d="M18.313 70.219V54.688h18.5v-6.985h-18.5V18.016q0-6.688 1.828-8.594 1.828-1.906 7.453-1.906h9.218V0h-9.218q-10.407 0-14.36 3.875-3.953 3.89-3.953 14.14v29.688H2.687v6.984h6.594V70.22z" id="DejaVuSans-116"/></defs><use xlink:href="#DejaVuSans-79"/><use x="78.711" xlink:href="#DejaVuSans-99"/><use x="133.691" xlink:href="#DejaVuSans-116"/></g></g><g id="xtick_5"><g style="fill:#696969" transform="matrix(.16 0 0 -.16 431.297 598.378)" id="text_5"><use xlink:href="#DejaVuSans-74"/><use x="29.492" xlink:href="#DejaVuSans-97"/><use x="90.771" xlink:href="#DejaVuSans-110"/></g></g><g id="xtick_6"><g style="fill:#696969" transform="matrix(.16 0 0 -.16 506.174 598.378)" id="text_6"><use xlink:href="#DejaVuSans-65"/><use x="68.408" xlink:href="#DejaVuSans-112"/><use x="131.885" xlink:href="#DejaVuSans-114"/></g></g><g id="xtick_7"><g style="fill:#696969" transform="matrix(.16 0 0 -.16 587.595 598.378)" id="text_7"><use xlink:href="#DejaVuSans-74"/><use x="29.492" xlink:href="#DejaVuSans-117"/><use x="92.871" xlink:href="#DejaVuSans-108"/></g></g><g id="xtick_8"><g style="fill:#696969" transform="matrix(.16 0 0 -.16 661.497 598.378)" id="text_8"><use xlink:href="#DejaVuSans-79"/><use x="78.711" xlink:href="#DejaVuSans-99"/><use x="133.691" xlink:href="#DejaVuSans-116"/></g></g><g id="xtick_9"><g style="fill:#696969" transform="matrix(.16 0 0 -.16 741.08 598.378)" id="text_9"><use xlink:href="#DejaVuSans-74"/><use x="29.492" xlink:href="#DejaVuSans-97"/><use x="90.771" xlink:href="#DejaVuSans-110"/></g></g><g id="xtick_10"><g style="fill:#696969" transform="matrix(.16 0 0 -.16 815.957 598.378)" id="text_10"><use xlink:href="#DejaVuSans-65"/><use x="68.408" xlink:href="#DejaVuSans-112"/><use x="131.885" xlink:href="#DejaVuSans-114"/></g></g></g><g id="matplotlib.axis_2"><g id="ytick_1"><g style="fill:#696969" transform="matrix(.16 0 0 -.16 97.32 560.119)" id="text_11"><defs><path d="M31.781 66.406q-7.61 0-11.453-7.5Q16.5 51.422 16.5 36.375q0-14.984 3.828-22.484 3.844-7.5 11.453-7.5 7.672 0 11.5 7.5 3.844 7.5 3.844 22.484 0 15.047-3.844 22.531-3.828 7.5-11.5 7.5zm0 7.813q12.266 0 18.735-9.703 6.468-9.688 6.468-28.141 0-18.406-6.468-28.11-6.47-9.687-18.735-9.687-12.25 0-18.718 9.688-6.47 9.703-6.47 28.109 0 18.453 6.47 28.14Q19.53 74.22 31.78 74.22z" id="DejaVuSans-48"/></defs><use xlink:href="#DejaVuSans-48"/></g></g><g id="ytick_2"><g style="fill:#696969" transform="matrix(.16 0 0 -.16 87.14 493.488)" id="text_12"><defs><path d="M10.797 72.906h38.719v-8.312H19.828v-17.86q2.14.735 4.281 1.094 2.157.36 4.313.36 12.203 0 19.328-6.688 7.14-6.688 7.14-18.11 0-11.765-7.328-18.296-7.328-6.516-20.656-6.516-4.593 0-9.36.781-4.75.782-9.827 2.344v9.922q4.39-2.39 9.078-3.563 4.687-1.171 9.906-1.171 8.453 0 13.375 4.437 4.938 4.438 4.938 12.063 0 7.609-4.938 12.047-4.922 4.453-13.375 4.453-3.953 0-7.89-.875-3.922-.875-8.016-2.735z" id="DejaVuSans-53"/></defs><use xlink:href="#DejaVuSans-53"/><use x="63.623" xlink:href="#DejaVuSans-48"/></g></g><g id="ytick_3"><g style="fill:#696969" transform="matrix(.16 0 0 -.16 76.96 426.858)" id="text_13"><defs><path d="M12.406 8.297h16.11v55.625l-17.532-3.516v8.985l17.438 3.515h9.86V8.296H54.39V0H12.406z" id="DejaVuSans-49"/></defs><use xlink:href="#DejaVuSans-49"/><use x="63.623" xlink:href="#DejaVuSans-48"/><use x="127.246" xlink:href="#DejaVuSans-48"/></g></g><g id="ytick_4"><g style="fill:#696969" transform="matrix(.16 0 0 -.16 76.96 360.227)" id="text_14"><use xlink:href="#DejaVuSans-49"/><use x="63.623" xlink:href="#DejaVuSans-53"/><use x="127.246" xlink:href="#DejaVuSans-48"/></g></g><g id="ytick_5"><g style="fill:#696969" transform="matrix(.16 0 0 -.16 76.96 293.596)" id="text_15"><defs><path d="M19.188 8.297h34.421V0H7.33v8.297q5.609 5.812 15.296 15.594 9.703 9.797 12.188 12.64 4.734 5.313 6.609 9 1.89 3.688 1.89 7.25 0 5.813-4.078 9.469-4.078 3.672-10.625 3.672-4.64 0-9.797-1.61-5.14-1.609-11-4.89v9.969Q13.767 71.78 18.938 73q5.188 1.219 9.485 1.219 11.328 0 18.062-5.672 6.735-5.656 6.735-15.125 0-4.5-1.688-8.531-1.672-4.016-6.125-9.485-1.218-1.422-7.765-8.187-6.532-6.766-18.453-18.922z" id="DejaVuSans-50"/></defs><use xlink:href="#DejaVuSans-50"/><use x="63.623" xlink:href="#DejaVuSans-48"/><use x="127.246" xlink:href="#DejaVuSans-48"/></g></g><g id="ytick_6"><g style="fill:#696969" transform="matrix(.16 0 0 -.16 76.96 226.966)" id="text_16"><use xlink:href="#DejaVuSans-50"/><use x="63.623" xlink:href="#DejaVuSans-53"/><use x="127.246" xlink:href="#DejaVuSans-48"/></g></g><g id="ytick_7"><g style="fill:#696969" transform="matrix(.16 0 0 -.16 76.96 160.335)" id="text_17"><defs><path d="M40.578 39.313Q47.656 37.797 51.625 33q3.984-4.781 3.984-11.813 0-10.78-7.422-16.703-7.421-5.906-21.093-5.906-4.578 0-9.438.906-4.86.907-10.031 2.72v9.515q4.094-2.39 8.969-3.61 4.89-1.218 10.218-1.218 9.266 0 14.125 3.656 4.86 3.656 4.86 10.64 0 6.454-4.516 10.079-4.515 3.64-12.562 3.64h-8.5v8.11h8.89q7.266 0 11.125 2.906 3.86 2.906 3.86 8.375 0 5.61-3.985 8.61-3.968 3.015-11.39 3.015-4.063 0-8.703-.89-4.641-.876-10.203-2.72v8.782q5.624 1.562 10.53 2.344 4.907.78 9.25.78 11.235 0 17.766-5.109 6.547-5.093 6.547-13.78 0-6.063-3.468-10.235-3.47-4.172-9.86-5.782z" id="DejaVuSans-51"/></defs><use xlink:href="#DejaVuSans-51"/><use x="63.623" xlink:href="#DejaVuSans-48"/><use x="127.246" xlink:href="#DejaVuSans-48"/></g></g><g id="ytick_8"><g style="fill:#696969" transform="matrix(.16 0 0 -.16 76.96 93.705)" id="text_18"><use xlink:href="#DejaVuSans-51"/><use x="63.623" xlink:href="#DejaVuSans-53"/><use x="127.246" xlink:href="#DejaVuSans-48"/></g></g><g style="fill:#696969" transform="matrix(0 -.2 -.2 0 68.8 379.813)" id="text_19"><defs><path d="M51.125 44H36.922l-4.11-16.313h14.313zm-7.328 27.781-5.078-20.265h14.265L58.11 71.78h7.813L60.89 51.516h15.234V44h-17.14l-4-16.313h15.53V20.22H53.079L48 0h-7.813l5.032 20.219H30.906L25.875 0h-7.86l5.079 20.219H7.719v7.468h17.187L29 44H13.281v7.516h17.625l4.985 20.265z" id="DejaVuSans-35"/><path d="M30.61 48.39q-7.22 0-11.422-5.64-4.204-5.64-4.204-15.453 0-9.813 4.172-15.453 4.188-5.64 11.453-5.64 7.188 0 11.375 5.655 4.203 5.672 4.203 15.438 0 9.719-4.203 15.406-4.187 5.688-11.375 5.688zm0 7.61q11.718 0 18.406-7.625 6.703-7.61 6.703-21.078 0-13.422-6.703-21.078-6.688-7.64-18.407-7.64-11.765 0-18.437 7.64-6.656 7.656-6.656 21.078 0 13.469 6.656 21.078Q18.844 56 30.609 56z" id="DejaVuSans-111"/><path d="M37.11 75.984V68.5h-8.594q-4.828 0-6.72-1.953-1.874-1.953-1.874-7.031v-4.828h14.797v-6.985H19.922V0H10.89v47.703H2.297v6.984h8.594V58.5q0 9.125 4.25 13.297 4.25 4.187 13.468 4.187z" id="DejaVuSans-102"/><path d="M44.281 53.078v-8.5q-3.797 1.953-7.906 2.922-4.094.984-8.5.984-6.688 0-10.031-2.047-3.344-2.046-3.344-6.156 0-3.125 2.39-4.906 2.391-1.781 9.626-3.39l3.078-.688q9.562-2.047 13.593-5.781 4.032-3.735 4.032-10.422 0-7.625-6.032-12.078-6.03-4.438-16.578-4.438-4.39 0-9.156.86Q10.688.296 5.422 2v9.281q4.984-2.594 9.812-3.89 4.829-1.282 9.579-1.282 6.343 0 9.75 2.172 3.421 2.172 3.421 6.125 0 3.656-2.468 5.61-2.453 1.953-10.813 3.765l-3.125.735q-8.344 1.75-12.062 5.39-3.704 3.64-3.704 9.985 0 7.718 5.47 11.906Q16.75 56 26.811 56q4.97 0 9.36-.734 4.406-.72 8.11-2.188z" id="DejaVuSans-115"/><path d="M56.203 29.594v-4.39H14.891q.593-9.282 5.593-14.142 5-4.859 13.938-4.859 5.172 0 10.031 1.266 4.86 1.265 9.656 3.812v-8.5Q49.266.734 44.187-.344 39.11-1.422 33.892-1.422q-13.094 0-20.735 7.61-7.64 7.625-7.64 20.625 0 13.421 7.25 21.296Q20.016 56 32.328 56q11.031 0 17.453-7.11 6.422-7.093 6.422-19.296zm-8.984 2.64q-.094 7.36-4.125 11.75-4.032 4.407-10.672 4.407-7.516 0-12.031-4.25-4.516-4.25-5.203-11.97z" id="DejaVuSans-101"/></defs><use xlink:href="#DejaVuSans-35"/><use x="83.789" xlink:href="#DejaVuSans-32"/><use x="115.576" xlink:href="#DejaVuSans-111"/><use x="176.758" xlink:href="#DejaVuSans-102"/><use x="211.963" xlink:href="#DejaVuSans-32"/><use x="243.75" xlink:href="#DejaVuSans-99"/><use x="298.73" xlink:href="#DejaVuSans-97"/><use x="360.01" xlink:href="#DejaVuSans-115"/><use x="412.109" xlink:href="#DejaVuSans-101"/><use x="473.633" xlink:href="#DejaVuSans-115"/></g></g><g style="fill:#696969" transform="matrix(.24 0 0 -.24 202.252 71.76)" id="text_20"><defs><path d="M9.813 72.906h13.28l32.329-60.984v60.984h9.562V0h-13.28L19.39 60.984V0H9.813z" id="DejaVuSans-78"/><path d="M4.203 54.688h8.985l11.234-42.672 11.172 42.672h10.593l11.235-42.672 11.187 42.672h8.985L63.28 0H52.688L40.922 44.828 29.109 0H18.5z" id="DejaVuSans-119"/><path d="M64.406 67.281v-10.39q-4.984 4.64-10.625 6.922-5.64 2.296-11.984 2.296-12.5 0-19.14-7.64-6.641-7.64-6.641-22.094 0-14.406 6.64-22.047 6.64-7.64 19.14-7.64 6.345 0 11.985 2.296 5.64 2.297 10.625 6.938V5.609Q59.234 2.094 53.437.33q-5.78-1.75-12.218-1.75-16.563 0-26.094 10.124-9.516 10.14-9.516 27.672 0 17.578 9.516 27.703 9.531 10.14 26.094 10.14 6.531 0 12.312-1.734 5.797-1.734 10.875-5.203z" id="DejaVuSans-67"/><path d="M25.39 72.906h8.297L8.297-9.28H0z" id="DejaVuSans-47"/><path d="M9.813 72.906h9.859V42.094L52.39 72.906h12.703L28.906 38.922 67.672 0H54.688L19.672 35.11V0h-9.86z" id="DejaVuSans-75"/><path d="M9.422 54.688h8.984V0H9.422zm0 21.296h8.984v-11.39H9.422z" id="DejaVuSans-105"/><path d="M45.406 46.39v29.594h8.985V0h-8.985v8.203Q42.578 3.328 38.25.953q-4.313-2.375-10.375-2.375-9.906 0-16.14 7.906-6.22 7.922-6.22 20.813 0 12.89 6.22 20.797Q17.968 56 27.874 56q6.063 0 10.375-2.375 4.328-2.36 7.156-7.234zm-30.61-19.093q0-9.906 4.079-15.547 4.078-5.64 11.203-5.64 7.125 0 11.219 5.64 4.11 5.64 4.11 15.547 0 9.906-4.11 15.547-4.094 5.64-11.219 5.64-7.125 0-11.203-5.64-4.078-5.64-4.078-15.547z" id="DejaVuSans-100"/><path d="M4.89 31.39h26.313v-8H4.891z" id="DejaVuSans-45"/><path d="M37.797 64.313 12.89 25.39h24.906zm-2.594 8.593H47.61V25.391h10.407v-8.203H47.609V0h-9.812v17.188H4.89v9.515z" id="DejaVuSans-52"/><path d="M32.172-5.078q-3.797-9.766-7.422-12.735-3.61-2.984-9.656-2.984H7.906v7.516h5.282q3.703 0 5.75 1.765Q21-9.766 23.483-3.219l1.61 4.094-22.11 53.813H12.5l17.094-42.766 17.093 42.766h9.516z" id="DejaVuSans-121"/><path d="M2.984 54.688H12.5L29.594 8.797l17.093 45.89h9.516L35.687 0H23.485z" id="DejaVuSans-118"/><path d="M45.406 27.984q0 9.766-4.031 15.125-4.016 5.375-11.297 5.375-7.219 0-11.25-5.375-4.031-5.359-4.031-15.125 0-9.718 4.031-15.093t11.25-5.375q7.281 0 11.297 5.375 4.031 5.375 4.031 15.093zm8.985-21.203q0-13.953-6.203-20.765Q42-20.797 29.203-20.797q-4.734 0-8.937.703-4.203.703-8.157 2.172v8.735q3.954-2.141 7.813-3.157 3.86-1.031 7.86-1.031 8.843 0 13.234 4.61 4.39 4.609 4.39 13.937v4.453q-2.781-4.844-7.125-7.234Q33.938 0 27.875 0 17.828 0 11.672 7.656q-6.156 7.672-6.156 20.328 0 12.688 6.156 20.344Q17.828 56 27.875 56q6.063 0 10.406-2.39 4.344-2.391 7.125-7.22v8.297h8.985z" id="DejaVuSans-103"/></defs><use xlink:href="#DejaVuSans-78"/><use x="74.805" xlink:href="#DejaVuSans-101"/><use x="136.328" xlink:href="#DejaVuSans-119"/><use x="218.115" xlink:href="#DejaVuSans-32"/><use x="249.902" xlink:href="#DejaVuSans-67"/><use x="319.727" xlink:href="#DejaVuSans-97"/><use x="381.006" xlink:href="#DejaVuSans-115"/><use x="433.105" xlink:href="#DejaVuSans-101"/><use x="494.629" xlink:href="#DejaVuSans-115"/><use x="546.729" xlink:href="#DejaVuSans-32"/><use x="578.516" xlink:href="#DejaVuSans-47"/><use x="612.207" xlink:href="#DejaVuSans-32"/><use x="643.994" xlink:href="#DejaVuSans-49"/><use x="707.617" xlink:href="#DejaVuSans-48"/><use x="771.24" xlink:href="#DejaVuSans-48"/><use x="834.863" xlink:href="#DejaVuSans-75"/><use x="900.439" xlink:href="#DejaVuSans-32"/><use x="932.227" xlink:href="#DejaVuSans-114"/><use x="971.09" xlink:href="#DejaVuSans-101"/><use x="1032.613" xlink:href="#DejaVuSans-115"/><use x="1084.713" xlink:href="#DejaVuSans-105"/><use x="1112.496" xlink:href="#DejaVuSans-100"/><use x="1175.973" xlink:href="#DejaVuSans-101"/><use x="1237.496" xlink:href="#DejaVuSans-110"/><use x="1300.875" xlink:href="#DejaVuSans-116"/><use x="1340.084" xlink:href="#DejaVuSans-115"/><use x="1392.184" xlink:href="#DejaVuSans-32"/><use x="1423.971" xlink:href="#DejaVuSans-45"/><use x="1460.055" xlink:href="#DejaVuSans-45"/><use x="1496.139" xlink:href="#DejaVuSans-32"/><use x="1527.926" xlink:href="#DejaVuSans-49"/><use x="1591.549" xlink:href="#DejaVuSans-52"/><use x="1655.172" xlink:href="#DejaVuSans-32"/><use x="1686.959" xlink:href="#DejaVuSans-100"/><use x="1750.436" xlink:href="#DejaVuSans-97"/><use x="1811.715" xlink:href="#DejaVuSans-121"/><use x="1870.895" xlink:href="#DejaVuSans-32"/><use x="1902.682" xlink:href="#DejaVuSans-97"/><use x="1963.961" xlink:href="#DejaVuSans-118"/><use x="2023.141" xlink:href="#DejaVuSans-101"/><use x="2084.664" xlink:href="#DejaVuSans-114"/><use x="2125.777" xlink:href="#DejaVuSans-97"/><use x="2187.057" xlink:href="#DejaVuSans-103"/><use x="2250.533" xlink:href="#DejaVuSans-101"/></g><g id="legend_1"><path d="M128.2 184.5h136.45q3.2 0 3.2-3.2V88.96q0-3.2-3.2-3.2H128.2q-3.2 0-3.2 3.2v92.34q0 3.2 3.2 3.2z" style="fill:none;opacity:.8;stroke:#ccc;stroke-linejoin:miter" id="patch_5"/><path d="M131.4 98.718h32" style="fill:none;stroke:#000;stroke-linecap:round;stroke-width:1.5" id="line2d_5"/><g style="fill:#696969" transform="matrix(.16 0 0 -.16 176.2 104.317)" id="text_21"><defs><path d="M8.688 72.906h9.921V28.61q0-11.718 4.235-16.875 4.25-5.14 13.781-5.14 9.469 0 13.719 5.14 4.25 5.157 4.25 16.875v44.297H64.5V27.391q0-14.25-7.063-21.532-7.046-7.28-20.812-7.28-13.828 0-20.89 7.28-7.047 7.282-7.047 21.532z" id="DejaVuSans-85"/><path d="M53.516 70.516V60.89q-5.61 2.687-10.594 4-4.984 1.328-9.625 1.328-8.047 0-12.422-3.125t-4.375-8.89q0-4.845 2.906-7.313 2.907-2.453 11.016-3.97l5.953-1.218q11.031-2.11 16.281-7.406 5.25-5.297 5.25-14.172 0-10.61-7.11-16.078-7.093-5.469-20.812-5.469-5.172 0-11.015 1.172Q13.14.922 6.89 3.219v10.156q6-3.36 11.765-5.078 5.766-1.703 11.328-1.703 8.438 0 13.032 3.312 4.593 3.328 4.593 9.485 0 5.359-3.297 8.39-3.296 3.032-10.812 4.547L27.484 33.5q-11.03 2.188-15.968 6.875-4.922 4.688-4.922 13.047 0 9.672 6.812 15.234 6.813 5.563 18.766 5.563 5.14 0 10.453-.938 5.328-.922 10.89-2.765z" id="DejaVuSans-83"/></defs><use xlink:href="#DejaVuSans-85"/><use x="73.193" xlink:href="#DejaVuSans-83"/></g><path d="M131.4 122.203h32" style="fill:none;stroke:#009e73;stroke-linecap:round;stroke-width:1.5" id="line2d_7"/><g style="fill:#696969" transform="matrix(.16 0 0 -.16 176.2 127.802)" id="text_22"><use xlink:href="#DejaVuSans-78"/><use x="74.805" xlink:href="#DejaVuSans-74"/></g><path d="M131.4 145.688h32" style="fill:none;stroke:#d55e00;stroke-linecap:round;stroke-width:1.5" id="line2d_9"/><g style="fill:#696969" transform="matrix(.16 0 0 -.16 176.2 151.287)" id="text_23"><defs><path d="M19.672 34.813V8.108H35.5q7.953 0 11.781 3.297 3.844 3.297 3.844 10.078 0 6.844-3.844 10.078-3.828 3.25-11.781 3.25zm0 29.984V42.828h14.61q7.218 0 10.75 2.703 3.546 2.719 3.546 8.282 0 5.515-3.547 8.25-3.531 2.734-10.75 2.734zm-9.86 8.11h25.204q11.28 0 17.375-4.688Q58.5 63.53 58.5 54.89q0-6.703-3.125-10.657-3.125-3.953-9.188-4.922 7.282-1.562 11.313-6.53 4.031-4.954 4.031-12.376 0-9.765-6.64-15.093Q48.25 0 35.984 0H9.812z" id="DejaVuSans-66"/></defs><use xlink:href="#DejaVuSans-66"/><use x="68.604" xlink:href="#DejaVuSans-101"/><use x="130.127" xlink:href="#DejaVuSans-114"/><use x="169.49" xlink:href="#DejaVuSans-103"/><use x="232.967" xlink:href="#DejaVuSans-101"/><use x="294.49" xlink:href="#DejaVuSans-110"/></g><path d="M131.4 169.173h32" style="fill:none;stroke:#0072b2;stroke-linecap:round;stroke-width:1.5" id="line2d_11"/><g style="fill:#696969" transform="matrix(.16 0 0 -.16 176.2 174.773)" id="text_24"><defs><path d="M44.39 34.188q3.172-1.079 6.172-4.594 3-3.516 6.032-9.672L66.609 0H56l-9.313 18.703q-3.624 7.328-7.015 9.719-3.39 2.39-9.25 2.39h-10.75V0h-9.86v72.906h22.266q12.5 0 18.656-5.234 6.157-5.219 6.157-15.766 0-6.89-3.203-11.437-3.204-4.532-9.297-6.282zM19.673 64.797V38.922h12.406q7.125 0 10.766 3.297 3.64 3.297 3.64 9.687 0 6.39-3.64 9.64-3.64 3.25-10.766 3.25z" id="DejaVuSans-82"/><path d="M54.89 33.016V0h-8.984v32.719q0 7.765-3.031 11.61-3.031 3.858-9.078 3.858-7.281 0-11.484-4.64-4.204-4.625-4.204-12.64V0H9.08v75.984h9.03V46.188q3.235 4.937 7.594 7.374Q30.078 56 35.797 56q9.422 0 14.25-5.828 4.844-5.828 4.844-17.156z" id="DejaVuSans-104"/></defs><use xlink:href="#DejaVuSans-82"/><use x="64.982" xlink:href="#DejaVuSans-117"/><use x="128.361" xlink:href="#DejaVuSans-116"/><use x="167.57" xlink:href="#DejaVuSans-104"/><use x="230.949" xlink:href="#DejaVuSans-101"/><use x="292.473" xlink:href="#DejaVuSans-114"/><use x="333.586" xlink:href="#DejaVuSans-102"/><use x="368.791" xlink:href="#DejaVuSans-111"/><use x="429.973" xlink:href="#DejaVuSans-114"/><use x="469.336" xlink:href="#DejaVuSans-100"/></g></g></g></g><defs><clipPath id="pae29e72897"><path d="M117 77.76h725.4v498.96H117z"/></clipPath></defs></svg>