<svg height="864" viewBox="0 0 936 648" width="1248" xmlns="http://www.w3.org/2000/svg" xmlns:xlink="http://www.w3.org/1999/xlink"><defs><style>*{stroke-linecap:butt;stroke-linejoin:round}</style></defs><g id="figure_1"><path d="M0 648h936V0H0z" style="fill:#fff" id="patch_1"/><g id="axes_1"><path d="M117 576.72h725.4V77.76H117z" style="fill:none" id="patch_2"/><path clip-path="url(#p0e381c6cee)" d="m149.973 554.04 46.582-.08 4.567-.19 1.826-.323 1.827-.604 1.827-.96.913-.5 2.74-2.04.914-.804 1.826-1.163 1.827-1.458 1.827-1.533.913-.777.914-.392.913-.523 2.74-.868.913-.064.914.187.913-.085 1.827.487 2.74.378 1.827.284.913-.09 1.827.131.913-.12 1.827-.621.913-.078.914.232 1.827.174 3.653.648 3.654.338 1.826.605 1.827.562 1.827.264 3.653.3.914-.232.913.073.913-.106 5.48.49 1.827.417 2.74-.137 1.827-.26.914-.069.913.05.913-.23 1.827.16 1.827.314 1.827-.246.913.178.913-.156 1.827-.134.913-.337.914-.155 1.827-.564 1.826-.771 2.74-1.763 3.654-2.833.913-.5 3.654-2.894.913-.426.913-.291 2.74-1.272.914-.24 2.74-1.927.913-.788.914-.637.913-.492.914-.874 2.74-.492 1.826.11.914-.076.913.314 1.827-.383.913.445 1.827.16 2.74.467.914.55.913.19 3.653 2.53.914.44 3.653.243.914-.03 2.74.532.913.351 4.567 2.74.913.316.914.542.913-.16.913.225.914-.128.913.023.914.137 2.74.179.913-.27.913.713.914-.043.913-.307 1.827.32.913.627.914.836.913-.05.913.462 1.827.425.914-.185 1.826-1.217 1.827-.73 1.827-.223.913-.166.913-1 .914.101.913-.126.914.006.913-.315 1.827-.1.913.972.913-.349 2.74-.04.914-.28.913.123.914-1.386.913.046 1.827-1.157 1.827-.512.913-.538.913.797.914-.638 1.826-.875.914-.636 1.827-.233.913-.964 2.74-1.127.913-.82.914-1.428.913-.655.913-.509.914-.763 1.827-1.836.913-.806.913-.311.914-.801 1.826-2.07.914-1.448 1.827-3.52.913-2.31.913-1.616.914-2.016.913-2.618.913-1.926.914-2.34.913-2.692 2.74-5.587.914-1.21.913-1.627.913-1.32.914-.96.913-.715.914-.31.913-.722.913-.898.914-.46.913 4.676.913-.386.914 1.135.913.259.914.662.913-.353.913-1.139.914-6.347.913-1.413.913-3.004 2.74-5.983.914-1.026.913-.414.914-2.719.913-.1.913-.681.914.201.913.916.913-1.389.914-.69.913 1.622.914.754.913.238.913-.035.914.084.913.944.913 2.445.914 8.313.913-1.27.914 1.539.913.692 1.827-.032.913-2.075.913-2.563.914-4.135.913-2.75.914-3.474.913-1.88.913-1.495.914-2.728.913-8.494.913 2.196.914-.36.913 1.411.914.279.913 1.474.913 2.257.914 3.37.913 2.752.913 2.113.914 4.713 1.826 4.806 1.827 5.384.914 1.896.913 2.236.913-.854.914 2.008.913 1.644 1.827 2.836.913 1.888 1.827 1.693 1.827 3.926.913 2.242.913 1.943 1.827 3.063.914 2.704.913 1.043.913 1.395.914 1.106.913 1.653.913 1.123.914 1.3.913 2.086.914 1.762.913 1.373.913 1.872.914 1.196.913.826.913.476.914-.232.913-.408 2.74-.577.914.39 1.826.39.914.79.913.419 1.827 1.284.913.337.914.6.913-2.092.913.096.914.466.913.27.913.085.914.39.913.114.914 2.066.913.076.913-.04 1.827.301.913-.27 1.827.346.914-.122.913-1.16.913-.479.914-.767.913-.348.913-.57.914-.887.913-.304.914.662.913-.446.913.327.914-.19.913.425.913-.324.914.015 1.827-.466.913-.719.913-.034.914-.617.913.257.913-.849.914-.147.913.374.913.179.914.602.913.364.914.092.913.902.913.733.914.413.913.806.913.188.914.432.913 1.268 2.74 1.41 2.74.826.914-.144 4.567 2.934.913.404.913.74.914.383 1.827 1.023 1.826.615 1.827.718 1.827.712.913.488 1.827 1.256 1.827.34 1.826.576.914.104 2.74 1.131.913 1.114.914.014 1.826.82.914 2.546 1.826.132.914-.771.913.464.914-.211.913.203.913-2.258.914.12.913-.035 4.567 1.141.913.039.914.15 3.653-.206.914-.126 2.74.06 1.826-.273.914-2.78.913-.303 1.827.219.913.606.914-.628.913-.788.913.87.914-.824 1.826-.353.914-1.704.913-.88.914-.433.913.731.913-.934 1.827-.452.913-1.317 1.827-2.26 1.827-3.338.913-.506.914-.265.913-1.876.913-2.473.914-1.393.913-1.814.914-2.191 1.826-.95 1.827-4.79 1.827-3.101.913-2.527 1.827-1.416.913-2.352.914-.652.913-2.392.913-.65.914-1.053 1.826-.854.914-4.47.913.984.914-.5.913-1.164.913-.676.914-1.636.913.18 2.74-1.045.914-1.55.913.205.913-.325.914-.087.913-.789.913-.556.914-2.216.913.667.914.246.913 1.062.913-.125.914 11.254.913-7.794.913 1.483.914.283.913.84.914-.436.913.268.913-11.511.914 8.212 1.826 1.642.914.519.913.318.913-.022.914 4.254 1.827 2.512 1.826 2.985.914.918.913.316.913.74 2.74 2.615.914.788 1.827.872.913 1.222.913.815.914.142 2.74 1.69.913.155.914 2.711.913-.717 1.827 1.982.913.795.914.21 1.826.14.914 1.543.913 1.103.913.388.914.623 1.827.485.913.912.913-.207.914-.439.913-.234 2.74-.155.913-1.051 1.827 1.116.914.171 4.566-.924.914-.786.913 1.023.914-2.08.913-1.63.913-.084.914-1.226.913-.415.913-.846.914-2.527.913.537.914 1.125.913-.43.913-.568.914-.126.913-.307.913 4.394.914 3.769.913.906.914.41.913-3.175.913-.915.914-1.074 1.826-11.594.914-1.852.913-.587.914 1.043.913-.26.913-.538.914.841.913-.654.913.377.914-.1.913-.3.913-.158.914.208.913-1.262.914-.272.913-1.354.913-1.999.914-5.533.913-4.017.913-5.445.914-6.577.913-.772.914.967.913-6.485.913-13.313.914-10.58.913-13.575.913-17.694.914-14.53 1.827-11.044 1.826-54.248.914-11.895.913-9.635.913-25.087.914-15.777.913-1.595.914-22.96.913 6.416h0" style="fill:none;stroke:#000;stroke-linecap:round;stroke-width:1.5" id="line2d_1"/><path clip-path="url(#p0e381c6cee)" d="m149.973 554.04 47.495-.094 2.74-.243.914-.18.913-.309.913-.617.914-.286.913-.849.913-1.134 1.827-3.253.914-1.16.913-4.429 2.74-10.897.913-4.743.914-2.512.913-5.79.914-1.76.913-4.816.913-3.945.914-2.288.913-.684.913-2.588.914 1.1.913-.522 1.827 2.883.913-.65.914 1.74.913-1.87.913 1.667.914-1.425.913.84.913 1.247.914-.372.913-1.576.914 1.347.913-2.6.913.333.914 1.928.913-.765.913.748.914 2.77.913 1.867.914 2.187.913 3.549.913-.677.914 1.635.913.998.913 1.278.914.703.913 2.271 1.827 2.784.913 1.832.914 3.23.913.229.913 3.12.914.98 1.827 2.492.913.914.913.413.914-.597.913-.36.913-1.163.914.145.913-.094.913 1.634.914.398.913 1.568.914.617.913 1.068.913-.233.914.445.913-.775.913.436.914.95.913.092.914.697.913 1.483 1.827.879.913 1.157.913.286.914.67 1.827-.071.913.936.913.237.914-.01.913.227.913-.05.914.559.913.135.914-.084.913.21 2.74-.161.913.243.914-3.585 2.74.1.913.374 1.827-.366.913 3.532h1.827l.913-.122.914-.244.913.262.914.019.913.406.913.058.914-.082 1.826.03 1.827-.54.914.017.913.63.913.139.914.756.913.09 1.827.317.913-.039.914-.834.913-.511.913-1.096.914-.55.913-.388.913-.186.914.078.913-.475 1.827.67 1.827.639.913.186.913-.348.914.675 2.74-.033 1.827-.413.913-.576.913-.43.914.184.913.677.913-.11 1.827.496.914 1.137.913.572.913-.513.914-.276.913.178 1.827.23.913-.424.914-.14.913.369 1.827-.546 1.826-.204 1.827-.332 3.654.152 2.74-.188.913-.254 1.827.025.913-.325.914-.125.913-.296 1.827-.052.913-.318.913-.119 2.74-.006.914-.125 1.827-1.091.913-.342.913-.061.914-.613.913-.103 1.827-.795 1.827.246.913-.354.913.407.914-1.399.913-.255.914.17.913-.256.913.086.914-.734.913-.879.913.668.914.113.913-.143.914-1.071.913-1.478h.913l.914-.186 1.826-.871.914-1.993.913.298.913-.049 1.827-2.655.914-.794.913-1.903.913 1.116.914-1.255 1.826-.672.914-1.58.913-.843.914-.378.913-3.76.913-.551.914-1.41.913-3.993.913-1.271.914-3.128 1.827-4.88.913-5.161.913-.33.914-.508.913-2.022.913-1.41.914-.469.913-.646.914 1.165.913-2.784.913-.509.914-.01.913-.595.913-.959.914 1.773.913.263.914.8.913-.677.913-.499.914-.654 1.826-6.317.914-4.478.913-.763.913-1.778.914-.327.913-.669.914 4.115.913-1.872.913 3.835.914-2.525.913 3.087.913-2.531.914 1.768.913-.503.914 4.189.913-2.087.913 3.326.914-1.302.913 1.823.913-.918.914-2.38.913.393.914 5.836.913.873.913 1.934.914.186 1.826-1.703 1.827-5.85.914-98.834.913-5.33.913-2.318.914-4.871.913-3.107 1.827-7.924.913 93.534.914 3.43.913-4.142.913.791.914 1.341.913 2.887.913 1.042.914 3.034.913-.084.913 4.986 1.827 8.604.914-2.349.913-.278.913-.592.914-.305.913 1.286.913.617.914-3.65.913 3.83.914 2.012.913 1.283.913 3.324.914 5.109.913 2.978.913 3.594.914 1.562.913-.09.914 1.95.913-.873.913-4.209.914-.75.913 1.014.913 1.539.914 4.424.913 2.281.914-.114.913.533.913.777.914 1.402.913 1.797.913.28.914-2.574.913.971.914 2.026.913-.61.913-1.683.914-2.57.913-.734.913-.895.914-.268.913-1.171.913.78.914.35.913.844.914-.265.913 1.707.913-1.711.914-.172.913-1.27.913-1.058.914-.297.913-1.615.914-1.053.913.836.913-1.097.914-1.345.913-.36.913-2.13.914.147.913-.673.914-2.22.913.442.913 1.08.914-2.468.913.497.913-2.59.914-.961.913-.143.914.875.913-3.402.913 2.187.914.452 1.826 3.054.914 2.374.913-1.172.913 2.609.914.687.913 1.729 1.827 1.572.913-.495.914 1.386.913.847.913-.385.914-.66 1.827 1.085.913 2.28.913.18.914 1.406.913 3.162.913 2.329.914 2.974.913 22.87.914 1.462.913 2.789 1.827 4.013.913 2.44.913 1.014.914-20.417.913 2.29.914-.855 1.826 3.518 1.827 3.675.913 1.7.914.905.913 4.176.914 2.014.913 1.316.913.008.914.143.913-.4.913-.172.914.086.913-.272.913-.673.914.548.913-.065 1.827 1.026.913.1.914.342.913.789.913.251.914.112.913-.194.914.472 1.826.48.914-.054.913-.21 1.827.052.913-.075.914.182.913-.125.913.039.914.223 1.826-.043 1.827-.313.914.212 1.826.1 2.74.35 1.827-.039 1.827-.229 2.74-.008 2.74.34 3.654.44 2.74-.592 1.826-.597.914-.263.913-.428 2.74-.599.914-.486 1.826-.495 2.74-1.899.914-.848.913-.638 2.74-1.049.914-.509.913-.676.914-.43 2.74-2.064.913-1.061.913-.577.914-.795.913-.464.914-.73.913-.492.913.034.914-.646 2.74-2.743.913-2.095.913-.215.914-.905.913-.393.914.018.913-.343.913-2.24.914.83.913-.36.913-.654.914-.074.913-.891.914-.066.913.712.913.458.914-.818.913.237.913-.554.914-.348.913-.997.914 1.752.913-.642.913.278.914-.906.913 3.627.913-2.484.914.679.913-1.9.914-.502.913-.272.913.83.914-3.443.913 2.5.913-1.529.914.593.913-.263 1.827-.287 1.827-.415.913 1.444.913.282.914.795.913 1.633.913.949.914.566.913.724.914-.154.913 1.151.913.611.914-.703.913-.178.913.491.914.296.913.536.914-.4.913.218.913.043.914.597.913.012.913.217 2.74 2.635.914 1.098.913.382.914.826.913 1.308.913.348.914-.66.913.637.914.223.913-.36 1.827-.854.913-1.016.913.817.914-.184.913-.875.913.25.914.527.913-.018.914.942.913-.161.913-.354.914.59.913-.063.913-.509 1.827-1.347.914-.891.913-.48.913-1.585.914-1.042 1.826-1.196.914-1.329.913-.854.914-1.147.913.202.913-.37.914-1.842.913-.531.913-.773.914.194.913.428.914-.546 1.826-2.676.914-2.003.913-3.294 1.827-9.695.913-3.326 1.827-2.958 2.74-6.593.913-.372 2.74-2.214.914-1.494.913-3.283.914-3.954.913-6.23 1.827-14.962.913-8.375.913-14.14 1.827-45.879.914-24.197.913-13.93.913-5.39.914-13.778.913-29.778.913-34.86.914-30.22 3.653-105.47.914-22.101.913 5.95.913-9.683.914-.632.913-4.215.914-2.684.913 8.596h0" style="fill:none;stroke:#009e73;stroke-linecap:round;stroke-width:1.5" id="line2d_2"/><path clip-path="url(#p0e381c6cee)" d="m149.973 554.04 43.842-.097 3.653-.176.913-.272h.914l.913-.546.914-.409.913-.876.913-3.156.914-.798.913-.117.913-1.83.914-2.397 1.827-2.687.913-4.344.913-4.947.914-6.096.913-4.597.913-3.136.914-6.525.913-9.096.914-4.246.913-9.115.913-10.927.914-1.87.913-7.05.913-4.753.914 4.753.913 2.648.913 3.545.914 8.96.913.097 1.827 13.712 1.827-3.37 1.826 5.162.914-1.052.913-1.246.914-.214.913 1.791.913 3.857.914 2.727.913-1.461 1.827 9.388.913 3.857.914 2.629.913 3.876.913 1.83.914 4.5.913.312.913.818.914-.604.913 2.63.914 1.46.913 2.337.913.955.914 1.675.913-.039.913 2.24.914.02.913 3.096.914-.292.913.857.913.195 1.827.02.913 1.226.914-2.63.913.877.913.702.914-.41 1.827.04 1.826-2.61.914.097.913.526 1.827 2.766.913.603.914.332.913 2.006.913.194.914-.798.913.798.913.078.914-.078.913-.993.914-.39.913.604.913-.642.914.136.913-.078.913-.35.914 1.304.913.604.914.117.913.643 1.827.039.913.409.913-.02.914-6.077.913-1.538.913.35.914-1.266.913.117.914-.311.913.116.913 5.96.914.76.913-.37.913.312.914-.176.913.526.914-.662.913-.448.913.039.914.195.913.76 1.827.291.913.78.914.525.913.78.913.136.914.448.913-.662.913-.04.914-.506 1.827-.467.913-.331.913-.643h.914l.913-.838h.913l.914.254.913-.604 1.827.292.913.448.914.078.913.312.913-.176.914.682.913-.682.913-.311h.914l.913.35 1.827-.33.913-1.812.914-.098.913-.623.913-.993.914.253.913.623 1.827 3.584.913.545 1.827 2.357.913-.331.914-.76.913-1.246.914.02.913-.234.913-.526 1.827-.76.913.253.914-.292.913-.156.914.838.913.078.913.292.914.72.913-.058.913.214 3.654-.175.913.468.914-.04.913-.681.913-.02.914-.311.913.156h.913l.914-.974.913.117.914.564.913.098.913-.117.914-.39.913-.078.913.39.914-.195.913-.798 1.827-1.052.913.02.914-.137 1.826-.662 1.827-.623.914-.332.913-.467.913-.156.914-.954 1.826-.76.914-.039.913.117.914-.643.913-1.149.913.04.914-1.053.913-.039.913-.253.914-1.539 1.827-.662.913-.915.913.526.914-.604.913-2.357.913.35.914-.798 1.826-1.13.914-2.337.913.624.914-.078.913-3.915.913-.974.914.292.913-2.454.913-1.987.914-5.901.913-2.708.914-1.032.913-3.74.913-.974.914-1.753.913-2.084.913-.662.914.214.913-1.09.914-.04.913-4.05.913 1.07.914 1.734.913.507.913-4.032.914 4.538.913-1.87.914 2.065.913-2.338.913-1.285.914-1.636.913-1.305.913-5.882 1.827-1.734.913 1.578.914 2.376.913 1.48.914 6.408.913-.33.913 3.408.914-1.208.913.74.913-2.882.914 1.11.913-2.104.914 3.448h.913l.913 2.824h.914l.913-.701.913-1.811.914-.877.913 1.052.914 2.785.913-.078.913.487.914.955.913-1.48.913-.643.914-2.65.913-1.46.914-85.077.913-6.252.913-3.896.914-2.434.913-4.032.913-3 .914-4.48.913 82.857.914 5.512.913-2.551.913-1.695.914 1.87 1.826 1.87.914 1.714.913-2.61.913 3.35 1.827 9.037.914-2.24.913-.02.913-1.265.914.506.913 1.617.913-.059.914-2.162.913 2.669.914 1.246.913-.194.913 3.019.914 5.22.913 2.025.913-.72.914.818.913-.215.914 1.91.913-.274.913-4.48.914.254.913 2.454.913 1.227.914 3.37.913 2.162.914-3.76.913 1.461.913.585 1.827 2.726.913.546.914-4.227.913 1.831.914-.097.913-2.22.913-4.208.914-1.616.913-.39.913-2.707.914.214.913-2.415.913 1.909.914 1.149.913 4.207.914-1.636.913 4.616.913-2.24.914 1.87.913-2.357.913.253.914-3.506.913-1.013.914-1.266.913.74.913-1.694.914.604.913-1.773.913-2.493.914.429 1.827-1.325.913.896.913 2.104.914-3.896.913-.915.913-3.39.914-.135.913-.468.914-2.318.913-3.31.913 4.206.914 1.091.913 3.253.913.565.914 3.486.913.838 2.74 7.498.914.896.913 1.831.913.506.914 3.058.913.877.913-.059.914.059.913 1.89.914 1.363.913 1.636.913.935.914 1.13.913 3.194.913 1.81.914 1.462.913 3.35.914 1.188.913 2.63 1.827 2.94.913 2.883.913 1.402.914-1.636.913 1.87.914-21.58.913-3.35.913 1.557.914.838.913.331.913.993.914.78.913 23.548.914 6.933.913.215.913-.02.914.234.913-.136.913.428.914.877.913.428.913.078.914 1.208.913.39.914.252.913-.253h.913l.914-.175.913.74.913.175 1.827.604.914.623 1.826.877.914.039.913-.429.913-.195 1.827-.058.914-.097.913-.254.913-.097.914.41 1.826-.118.914-.35.913-.04 5.48.858.914-.312.913-.487.914.04 1.826-.332 2.74-.156.914.234 1.826-.04.914.332.913.078 1.827.799 2.74.194.913-.506.914-.098 1.827-1.07.913-.312 1.827-1.11h.913l.913-.312 1.827-.214.914-.819.913-.973 3.653-2.766.914-.955.913-.662.914-.234.913-.545.913-.76.914-.253.913-.974 1.827-.077.913-.468.914.078.913.253.913.448 2.74-3.584.914-.097.913-2.123.913 1.617.914-.643.913-.214.914-.507.913.877.913-2.65.914.819.913-2.571.913-.662.914.798 1.827-1.013.913 1.13 1.827-.954.913.097.913-.253.914.467.913-.272.914 1.714.913.116.913.293.914-.682.913 2.649.913-2.006.914-.156.913-1.967 1.827-.254.913.994.914-3.253.913 1.948.913-.273.914 1.013.913.039 1.827-.565.913 1.285.914-.506.913.312.913-1.072 1.827.819.913-.059.914.078.913.448.914-.175.913 1.188.913.35.914 1.013.913.487.913.059.914.35.913 1.032.914.838.913.487.913-.604.914.877.913.175 1.827.701.913.195.914-.39.913 1.286.913-.448 1.827 2.532.913.993.914-.35.913 1.519.914-.04.913-.583.913-1.52.914-.506.913-1.169.913-.097.914-.526.913-.195.913.74.914 1.091.913-.273.914.994.913.662.913.234 1.827.156.913-.429.914.506.913-.779 1.827-.818.913-1.772.914-.799.913-1.246.913-1.987.914-.915 1.827-2.65 1.826.02.914-1.227.913.623.913-.74.914.215.913.448h.914l1.826-1.85 1.827-4.247 1.827-5.512.913-1.52 1.827-4.09.913-1.012.914-3.02.913-2.103.913-1.013.914-2.181.913-.429.913.546.914-4.577.913-3.487.914-5.59 1.826-16.01.914-6.252.913-10.654.913-15.621.914-23.88 1.827-58.704.913-15.211.913-11.278.914-19.497.913-38.175.913-44.058 1.827-49.589.914-12.972.913-17.977.913-27.775.914-11.355.913 18.62.913-8.297.914 1.714.913-7.557.914-8.785.913 14.628h0" style="fill:none;stroke:#d55e00;stroke-linecap:round;stroke-width:1.5" id="line2d_3"/><path clip-path="url(#p0e381c6cee)" d="M149.973 554.04h52.062l.913-1.984h1.827l.913-.992h.914l1.827-5.952.913-3.968.913-.992.914-2.976.913-.992 1.827-9.92.913-3.968.914 3.968.913-4.96.913-12.896.914-8.929.913 1.984.913 2.977.914 3.968.913-7.937.913-.992.914 13.889.913 10.912.914-2.976.913.992.913-.992.914 4.96.913 1.984.913-.992h.914l1.827 1.984.913-.992h.913l.914-1.984.913.992h1.827l1.827 5.952.913 1.984.913 3.968.914-.992h.913l.913 4.96h.914l.913 1.984.914 2.976.913 1.984.913 2.976h.914l1.826-7.936 1.827-1.984h2.74l.914 3.968.913 2.976 2.74 2.976h5.48l.914-1.984h1.826l.914-2.976h2.74l.913 1.984h1.827l.913 2.976h.914l.913-.992h.914l.913-.992h3.653l.914.992h.913l.914.992h1.826l.914-1.984.913.992 2.74-2.976h1.827l.913-1.984h1.827l1.827 1.984h1.826l.914-1.984.913-.992.914.992.913-.992.913-1.984h1.827l.913 3.968h1.827l.914.992.913 1.984h1.827l.913 1.984.913-1.984 1.827-1.984h2.74l.914-.992.913 2.976.913.992h5.48l.914-.992.913.992h2.74l.914.992h2.74l.913-.992h1.827l.913-.992h.914l.913.992.914-.992h2.74l.913.992.913-1.984.914-.992H350l.914.992h1.826l.914-.992.913 1.984.913-2.976.914.992h2.74l.913.992.914-2.976.913 3.968h3.654l.913-.992.913 2.976.914-1.984.913-.992h2.74l.913-1.984h.914l1.827 1.984h2.74l.913 2.976h.913l.914.992h3.653l.914-1.984.913-.992.913-4.96.914-8.928.913-1.984h2.74l.914-4.96 1.826 7.936 2.74-8.928h.914l.913 5.952.914-2.976 1.826 9.92 1.827 5.952 1.827-7.936.913-.992 1.827-9.92h1.827l.913-5.952.913 2.976.914-1.984.913 1.984h2.74l.914-6.944.913-2.976.913 6.944.914-13.888.913-1.984h1.827l.913 2.976.914-7.937.913-11.904.913 8.928.914-6.944.913-4.96h.914l.913 1.984.913 3.968.914 5.952.913 7.937.913 13.888.914-14.88h1.827l.913.992.913-4.96.914-15.873.913-23.808.913 8.928h.914l.913 2.976.913-4.96.914 5.952.913-1.984.914 14.88.913 10.912h.913l.914-2.976.913 2.976.913-1.984.914 17.857.913-7.936h1.827l.913-12.897.914 1.984.913-19.84.913-4.96.914 16.864h1.827l.913-2.976.913 1.984.914 7.936.913-5.952h2.74l.914-2.976.913-12.896.913 4.96.914-3.968.913-11.904.913-9.92h.914l.913 10.912.914 6.944.913-.992.913 4.96.914 1.984.913 9.92h.913l.914 21.825.913-9.92.913 4.96.914 5.952.913 6.944h1.827l.913-30.753.914 16.864.913 3.969.913-1.984.914-12.897.913-4.96h.914l.913 30.753.913 3.968.914-19.84.913-1.985.913 8.929.914 4.96h.913l.914-15.873.913-6.944.913 20.833 1.827 3.968.913-6.944h.914l.913 15.872.914-6.944h.913l.913 2.976h.914l.913 6.944.913-6.944.914-3.968.913 7.936.914.992.913-9.92.913-3.968h.914l.913 6.944.913-11.904.914-3.969.913-1.984.913 9.92.914-4.96h1.827l.913 1.985.913 5.952.914-1.984.913-10.913.913 8.929h1.827l.914-8.929.913-2.976h.913l.914 10.913h2.74l.913-.992 1.827 1.984.913-4.96.914-1.985h.913l.913-8.928.914 12.897.913-1.984.914 3.968.913-9.92.913-1.985h.914l.913 8.929.913-5.953h.914l1.827-4.96v8.928l.913 3.969.913-.992h.914l.913 6.944 1.827 5.952.913-2.976h.913l.914-3.968h.913l.914 6.944.913 3.968.913-.992.914 4.96h.913l.913 4.96h.914l.913-2.976.914-1.984 1.826 5.952.914-3.968.913-.992h.913l.914 3.968.913 1.984.914-2.976.913 1.984.913 6.944.914.992h.913l.913-1.984.914.992.913 4.96 1.827 3.968h1.827l.913 3.968h.913l.914.992.913-.992h4.567l1.827-1.984h5.48l.913 1.984h3.654l.913-2.976h5.48l.914 2.976.913.992h7.307l.914-3.968h4.566l.914-.992.913 3.968h5.48l.914-.992h3.653l1.827-1.984.913.992h3.654l.913.992h.914l.913-5.952h1.827l.913-20.832.913-1.984.914-.992.913-4.96.914.992h1.826l.914 13.888.913-.992h.913l.914 4.96.913 3.968h1.827l.913-2.976h.914l.913-4.96.913-3.968.914-.992h2.74l.913.992.914 4.96 1.826 3.968h1.827l.913 7.936.914-1.984 1.827-1.984h2.74l.913-4.96.913-2.976.914-4.96.913 2.976.914-4.96h1.826l.914 6.944.913-4.96.913.992.914 1.984h2.74l.913-8.928.914 8.928.913 1.984.913-7.936.914.992h1.826l.914-3.968.913 1.984.914-.992.913 2.976.913.992h1.827l.913 8.928.914-1.984 1.827 1.984.913-.992h2.74l.913.992.914-1.984.913 3.968.914-6.944h1.826l.914 3.968.913-3.968.913 3.968.914-1.984.913 8.928h1.827l.913-7.936.914 2.976.913.992.913-1.984h2.74l.914 5.952.913 1.984.914.992.913 1.984.913.992h1.827l.913-5.952.914-2.976h.913l.914 1.984.913-.992h1.827l.913 2.976.913 1.984.914-8.928h.913l.914-4.96h1.826l.914-.992.913-1.984.913 6.944.914-2.976.913 3.968h1.827l.913-8.928.914-.992.913-4.96 1.827 5.952h1.827l.913-4.96.913-1.984.914 4.96.913-7.936.913-8.928h1.827l.914 6.944.913-2.976.913-9.92.914-1.985.913-.992h1.827l.913-3.968.913-2.976.914-4.96.913-12.896.914 2.976.913-40.672.913-11.904h.914l.913-14.88.913-25.793.914-9.92.913-15.872.914 37.696.913 5.952.913-3.968.914-20.832 1.826-19.84.914-29.76.913-50.593.914-57.536.913-26.785.913 16.865.914-7.936.913-30.753.913-2.976.914-14.88.913 12.896.914 21.824.913-4.96.913 13.888h0" style="fill:none;stroke:#0072b2;stroke-linecap:round;stroke-width:1.5" id="line2d_4"/><path d="M117 576.72V77.76" style="fill:none;stroke:#d3d3d3;stroke-linecap:square;stroke-linejoin:miter;stroke-width:1.25" id="patch_3"/><path d="M117 576.72h725.4" style="fill:none;stroke:#d3d3d3;stroke-linecap:square;stroke-linejoin:miter;stroke-width:1.25" id="patch_4"/><g id="matplotlib.axis_1"><g id="xtick_1"><g style="fill:#696969" transform="matrix(.16 0 0 -.16 119.373 598.378)" id="text_1"><defs><path d="M9.813 72.906h9.859V5.078q0-13.187-5-19.14-5-5.954-16.094-5.954h-3.75v8.297h3.078q6.531 0 9.219 3.672Q9.813-4.39 9.813 5.078z" id="DejaVuSans-74"/><path d="M34.281 27.484q-10.89 0-15.093-2.484-4.204-2.484-4.204-8.5 0-4.781 3.157-7.594 3.156-2.797 8.562-2.797 7.485 0 12 5.297 4.516 5.297 4.516 14.078v2zm17.922 3.72V0H43.22v8.297Q40.14 3.328 35.547.953q-4.594-2.375-11.234-2.375-8.391 0-13.36 4.719Q6 8.016 6 15.922q0 9.219 6.172 13.906 6.187 4.688 18.437 4.688h12.61v.89q0 6.203-4.078 9.594-4.078 3.39-11.453 3.39-4.688 0-9.141-1.124-4.438-1.125-8.531-3.375v8.312q4.921 1.906 9.562 2.844 4.64.953 9.031.953 11.875 0 17.735-6.156 5.86-6.14 5.86-18.64z" id="DejaVuSans-97"/><path d="M54.89 33.016V0h-8.984v32.719q0 7.765-3.031 11.61-3.031 3.858-9.078 3.858-7.281 0-11.484-4.64-4.204-4.625-4.204-12.64V0H9.08v54.688h9.03v-8.5q3.235 4.937 7.594 7.374Q30.078 56 35.797 56q9.422 0 14.25-5.828 4.844-5.828 4.844-17.156z" id="DejaVuSans-110"/></defs><use xlink:href="#DejaVuSans-74"/><use x="29.492" xlink:href="#DejaVuSans-97"/><use x="90.771" xlink:href="#DejaVuSans-110"/></g></g><g id="xtick_2"><g style="fill:#696969" transform="matrix(.16 0 0 -.16 200.982 598.378)" id="text_2"><defs><path d="M34.188 63.188 20.797 26.906h26.812zm-5.579 9.718h11.188L67.578 0h-10.25l-6.64 18.703h-32.86L11.188 0H.78z" id="DejaVuSans-65"/><path d="M18.11 8.203v-29H9.077v75.484h9.031v-8.296q2.844 4.875 7.157 7.234Q29.594 56 35.594 56q9.968 0 16.187-7.906 6.235-7.907 6.235-20.797T51.78 6.484q-6.218-7.906-16.187-7.906-6 0-10.328 2.375-4.313 2.375-7.157 7.25zm30.578 19.094q0 9.906-4.079 15.547-4.078 5.64-11.203 5.64-7.14 0-11.218-5.64-4.079-5.64-4.079-15.547 0-9.906 4.078-15.547 4.079-5.64 11.22-5.64 7.124 0 11.202 5.64t4.078 15.547z" id="DejaVuSans-112"/><path d="M41.11 46.297q-1.516.875-3.297 1.281Q36.03 48 33.89 48q-7.625 0-11.703-4.953-4.079-4.953-4.079-14.234V0H9.08v54.688h9.03v-8.5q2.844 4.984 7.375 7.39Q30.031 56 36.531 56q.922 0 2.047-.125 1.125-.11 2.484-.36z" id="DejaVuSans-114"/></defs><use xlink:href="#DejaVuSans-65"/><use x="68.408" xlink:href="#DejaVuSans-112"/><use x="131.885" xlink:href="#DejaVuSans-114"/></g></g><g id="xtick_3"><g style="fill:#696969" transform="matrix(.16 0 0 -.16 288.286 598.378)" id="text_3"><defs><path d="M8.5 21.578v33.11h8.984V21.922q0-7.766 3.016-11.656 3.031-3.875 9.094-3.875 7.265 0 11.484 4.64 4.234 4.64 4.234 12.656v31h8.985V0h-8.984v8.406Q42.047 3.422 37.718 1q-4.313-2.422-10.032-2.422-9.421 0-14.312 5.86Q8.5 10.296 8.5 21.578zM31.11 56z" id="DejaVuSans-117"/><path d="M9.422 75.984h8.984V0H9.422z" id="DejaVuSans-108"/></defs><use xlink:href="#DejaVuSans-74"/><use x="29.492" xlink:href="#DejaVuSans-117"/><use x="92.871" xlink:href="#DejaVuSans-108"/></g></g><g id="xtick_4"><g style="fill:#696969" transform="matrix(.16 0 0 -.16 368.137 598.378)" id="text_4"><defs><path d="M39.406 66.219q-10.75 0-17.078-8.016-6.312-8-6.312-21.828 0-13.766 6.312-21.781 6.328-8 17.078-8 10.735 0 17.016 8 6.281 8.015 6.281 21.781 0 13.828-6.281 21.828-6.281 8.016-17.016 8.016zm0 8q15.328 0 24.5-10.281 9.188-10.282 9.188-27.563 0-17.234-9.188-27.516-9.172-10.28-24.5-10.28-15.375 0-24.593 10.25-9.204 10.265-9.204 27.546t9.204 27.563q9.218 10.28 24.593 10.28z" id="DejaVuSans-79"/><path d="M48.781 52.594v-8.407q-3.812 2.11-7.64 3.157-3.828 1.047-7.735 1.047-8.75 0-13.593-5.547-4.829-5.532-4.829-15.547 0-10.016 4.829-15.563 4.843-5.53 13.593-5.53 3.907 0 7.735 1.046 3.828 1.047 7.64 3.156V2.094Q45.016.344 40.984-.531q-4.015-.89-8.562-.89-12.36 0-19.64 7.765-7.266 7.765-7.266 20.953 0 13.375 7.343 21.031Q20.22 56 33.016 56q4.14 0 8.093-.86 3.953-.843 7.672-2.546z" id="DejaVuSans-99"/><path d="M18.313 70.219V54.688h18.5v-6.985h-18.5V18.016q0-6.688 1.828-8.594 1.828-1.906 7.453-1.906h9.218V0h-9.218q-10.407 0-14.36 3.875-3.953 3.89-3.953 14.14v29.688H2.687v6.984h6.594V70.22z" id="DejaVuSans-116"/></defs><use xlink:href="#DejaVuSans-79"/><use x="78.711" xlink:href="#DejaVuSans-99"/><use x="133.691" xlink:href="#DejaVuSans-116"/></g></g><g id="xtick_5"><g style="fill:#696969" transform="matrix(.16 0 0 -.16 453.667 598.378)" id="text_5"><use xlink:href="#DejaVuSans-74"/><use x="29.492" xlink:href="#DejaVuSans-97"/><use x="90.771" xlink:href="#DejaVuSans-110"/></g></g><g id="xtick_6"><g style="fill:#696969" transform="matrix(.16 0 0 -.16 534.363 598.378)" id="text_6"><use xlink:href="#DejaVuSans-65"/><use x="68.408" xlink:href="#DejaVuSans-112"/><use x="131.885" xlink:href="#DejaVuSans-114"/></g></g><g id="xtick_7"><g style="fill:#696969" transform="matrix(.16 0 0 -.16 621.667 598.378)" id="text_7"><use xlink:href="#DejaVuSans-74"/><use x="29.492" xlink:href="#DejaVuSans-117"/><use x="92.871" xlink:href="#DejaVuSans-108"/></g></g><g id="xtick_8"><g style="fill:#696969" transform="matrix(.16 0 0 -.16 701.517 598.378)" id="text_8"><use xlink:href="#DejaVuSans-79"/><use x="78.711" xlink:href="#DejaVuSans-99"/><use x="133.691" xlink:href="#DejaVuSans-116"/></g></g><g id="xtick_9"><g style="fill:#696969" transform="matrix(.16 0 0 -.16 787.048 598.378)" id="text_9"><use xlink:href="#DejaVuSans-74"/><use x="29.492" xlink:href="#DejaVuSans-97"/><use x="90.771" xlink:href="#DejaVuSans-110"/></g></g></g><g id="matplotlib.axis_2"><g id="ytick_1"><g style="fill:#696969" transform="matrix(.16 0 0 -.16 97.32 560.119)" id="text_10"><defs><path d="M31.781 66.406q-7.61 0-11.453-7.5Q16.5 51.422 16.5 36.375q0-14.984 3.828-22.484 3.844-7.5 11.453-7.5 7.672 0 11.5 7.5 3.844 7.5 3.844 22.484 0 15.047-3.844 22.531-3.828 7.5-11.5 7.5zm0 7.813q12.266 0 18.735-9.703 6.468-9.688 6.468-28.141 0-18.406-6.468-28.11-6.47-9.687-18.735-9.687-12.25 0-18.718 9.688-6.47 9.703-6.47 28.109 0 18.453 6.47 28.14Q19.53 74.22 31.78 74.22z" id="DejaVuSans-48"/></defs><use xlink:href="#DejaVuSans-48"/></g></g><g id="ytick_2"><g style="fill:#696969" transform="matrix(.16 0 0 -.16 87.14 496.57)" id="text_11"><defs><path d="M10.797 72.906h38.719v-8.312H19.828v-17.86q2.14.735 4.281 1.094 2.157.36 4.313.36 12.203 0 19.328-6.688 7.14-6.688 7.14-18.11 0-11.765-7.328-18.296-7.328-6.516-20.656-6.516-4.593 0-9.36.781-4.75.782-9.827 2.344v9.922q4.39-2.39 9.078-3.563 4.687-1.171 9.906-1.171 8.453 0 13.375 4.437 4.938 4.438 4.938 12.063 0 7.609-4.938 12.047-4.922 4.453-13.375 4.453-3.953 0-7.89-.875-3.922-.875-8.016-2.735z" id="DejaVuSans-53"/></defs><use xlink:href="#DejaVuSans-53"/><use x="63.623" xlink:href="#DejaVuSans-48"/></g></g><g id="ytick_3"><g style="fill:#696969" transform="matrix(.16 0 0 -.16 76.96 433.021)" id="text_12"><defs><path d="M12.406 8.297h16.11v55.625l-17.532-3.516v8.985l17.438 3.515h9.86V8.296H54.39V0H12.406z" id="DejaVuSans-49"/></defs><use xlink:href="#DejaVuSans-49"/><use x="63.623" xlink:href="#DejaVuSans-48"/><use x="127.246" xlink:href="#DejaVuSans-48"/></g></g><g id="ytick_4"><g style="fill:#696969" transform="matrix(.16 0 0 -.16 76.96 369.473)" id="text_13"><use xlink:href="#DejaVuSans-49"/><use x="63.623" xlink:href="#DejaVuSans-53"/><use x="127.246" xlink:href="#DejaVuSans-48"/></g></g><g id="ytick_5"><g style="fill:#696969" transform="matrix(.16 0 0 -.16 76.96 305.924)" id="text_14"><defs><path d="M19.188 8.297h34.421V0H7.33v8.297q5.609 5.812 15.296 15.594 9.703 9.797 12.188 12.64 4.734 5.313 6.609 9 1.89 3.688 1.89 7.25 0 5.813-4.078 9.469-4.078 3.672-10.625 3.672-4.64 0-9.797-1.61-5.14-1.609-11-4.89v9.969Q13.767 71.78 18.938 73q5.188 1.219 9.485 1.219 11.328 0 18.062-5.672 6.735-5.656 6.735-15.125 0-4.5-1.688-8.531-1.672-4.016-6.125-9.485-1.218-1.422-7.765-8.187-6.532-6.766-18.453-18.922z" id="DejaVuSans-50"/></defs><use xlink:href="#DejaVuSans-50"/><use x="63.623" xlink:href="#DejaVuSans-48"/><use x="127.246" xlink:href="#DejaVuSans-48"/></g></g><g id="ytick_6"><g style="fill:#696969" transform="matrix(.16 0 0 -.16 76.96 242.376)" id="text_15"><use xlink:href="#DejaVuSans-50"/><use x="63.623" xlink:href="#DejaVuSans-53"/><use x="127.246" xlink:href="#DejaVuSans-48"/></g></g><g id="ytick_7"><g style="fill:#696969" transform="matrix(.16 0 0 -.16 76.96 178.827)" id="text_16"><defs><path d="M40.578 39.313Q47.656 37.797 51.625 33q3.984-4.781 3.984-11.813 0-10.78-7.422-16.703-7.421-5.906-21.093-5.906-4.578 0-9.438.906-4.86.907-10.031 2.72v9.515q4.094-2.39 8.969-3.61 4.89-1.218 10.218-1.218 9.266 0 14.125 3.656 4.86 3.656 4.86 10.64 0 6.454-4.516 10.079-4.515 3.64-12.562 3.64h-8.5v8.11h8.89q7.266 0 11.125 2.906 3.86 2.906 3.86 8.375 0 5.61-3.985 8.61-3.968 3.015-11.39 3.015-4.063 0-8.703-.89-4.641-.876-10.203-2.72v8.782q5.624 1.562 10.53 2.344 4.907.78 9.25.78 11.235 0 17.766-5.109 6.547-5.093 6.547-13.78 0-6.063-3.468-10.235-3.47-4.172-9.86-5.782z" id="DejaVuSans-51"/></defs><use xlink:href="#DejaVuSans-51"/><use x="63.623" xlink:href="#DejaVuSans-48"/><use x="127.246" xlink:href="#DejaVuSans-48"/></g></g><g id="ytick_8"><g style="fill:#696969" transform="matrix(.16 0 0 -.16 76.96 115.278)" id="text_17"><use xlink:href="#DejaVuSans-51"/><use x="63.623" xlink:href="#DejaVuSans-53"/><use x="127.246" xlink:href="#DejaVuSans-48"/></g></g><g style="fill:#696969" transform="matrix(0 -.2 -.2 0 68.8 379.813)" id="text_18"><defs><path d="M51.125 44H36.922l-4.11-16.313h14.313zm-7.328 27.781-5.078-20.265h14.265L58.11 71.78h7.813L60.89 51.516h15.234V44h-17.14l-4-16.313h15.53V20.22H53.079L48 0h-7.813l5.032 20.219H30.906L25.875 0h-7.86l5.079 20.219H7.719v7.468h17.187L29 44H13.281v7.516h17.625l4.985 20.265z" id="DejaVuSans-35"/><path d="M30.61 48.39q-7.22 0-11.422-5.64-4.204-5.64-4.204-15.453 0-9.813 4.172-15.453 4.188-5.64 11.453-5.64 7.188 0 11.375 5.655 4.203 5.672 4.203 15.438 0 9.719-4.203 15.406-4.187 5.688-11.375 5.688zm0 7.61q11.718 0 18.406-7.625 6.703-7.61 6.703-21.078 0-13.422-6.703-21.078-6.688-7.64-18.407-7.64-11.765 0-18.437 7.64-6.656 7.656-6.656 21.078 0 13.469 6.656 21.078Q18.844 56 30.609 56z" id="DejaVuSans-111"/><path d="M37.11 75.984V68.5h-8.594q-4.828 0-6.72-1.953-1.874-1.953-1.874-7.031v-4.828h14.797v-6.985H19.922V0H10.89v47.703H2.297v6.984h8.594V58.5q0 9.125 4.25 13.297 4.25 4.187 13.468 4.187z" id="DejaVuSans-102"/><path d="M44.281 53.078v-8.5q-3.797 1.953-7.906 2.922-4.094.984-8.5.984-6.688 0-10.031-2.047-3.344-2.046-3.344-6.156 0-3.125 2.39-4.906 2.391-1.781 9.626-3.39l3.078-.688q9.562-2.047 13.593-5.781 4.032-3.735 4.032-10.422 0-7.625-6.032-12.078-6.03-4.438-16.578-4.438-4.39 0-9.156.86Q10.688.296 5.422 2v9.281q4.984-2.594 9.812-3.89 4.829-1.282 9.579-1.282 6.343 0 9.75 2.172 3.421 2.172 3.421 6.125 0 3.656-2.468 5.61-2.453 1.953-10.813 3.765l-3.125.735q-8.344 1.75-12.062 5.39-3.704 3.64-3.704 9.985 0 7.718 5.47 11.906Q16.75 56 26.811 56q4.97 0 9.36-.734 4.406-.72 8.11-2.188z" id="DejaVuSans-115"/><path d="M56.203 29.594v-4.39H14.891q.593-9.282 5.593-14.142 5-4.859 13.938-4.859 5.172 0 10.031 1.266 4.86 1.265 9.656 3.812v-8.5Q49.266.734 44.187-.344 39.11-1.422 33.892-1.422q-13.094 0-20.735 7.61-7.64 7.625-7.64 20.625 0 13.421 7.25 21.296Q20.016 56 32.328 56q11.031 0 17.453-7.11 6.422-7.093 6.422-19.296zm-8.984 2.64q-.094 7.36-4.125 11.75-4.032 4.407-10.672 4.407-7.516 0-12.031-4.25-4.516-4.25-5.203-11.97z" id="DejaVuSans-101"/></defs><use xlink:href="#DejaVuSans-35"/><use x="83.789" xlink:href="#DejaVuSans-32"/><use x="115.576" xlink:href="#DejaVuSans-111"/><use x="176.758" xlink:href="#DejaVuSans-102"/><use x="211.963" xlink:href="#DejaVuSans-32"/><use x="243.75" xlink:href="#DejaVuSans-99"/><use x="298.73" xlink:href="#DejaVuSans-97"/><use x="360.01" xlink:href="#DejaVuSans-115"/><use x="412.109" xlink:href="#DejaVuSans-101"/><use x="473.633" xlink:href="#DejaVuSans-115"/></g></g><g style="fill:#696969" transform="matrix(.24 0 0 -.24 209.887 71.76)" id="text_19"><defs><path d="M9.813 72.906h13.28l32.329-60.984v60.984h9.562V0h-13.28L19.39 60.984V0H9.813z" id="DejaVuSans-78"/><path d="M4.203 54.688h8.985l11.234-42.672 11.172 42.672h10.593l11.235-42.672 11.187 42.672h8.985L63.28 0H52.688L40.922 44.828 29.109 0H18.5z" id="DejaVuSans-119"/><path d="M64.406 67.281v-10.39q-4.984 4.64-10.625 6.922-5.64 2.296-11.984 2.296-12.5 0-19.14-7.64-6.641-7.64-6.641-22.094 0-14.406 6.64-22.047 6.64-7.64 19.14-7.64 6.345 0 11.985 2.296 5.64 2.297 10.625 6.938V5.609Q59.234 2.094 53.437.33q-5.78-1.75-12.218-1.75-16.563 0-26.094 10.124-9.516 10.14-9.516 27.672 0 17.578 9.516 27.703 9.531 10.14 26.094 10.14 6.531 0 12.312-1.734 5.797-1.734 10.875-5.203z" id="DejaVuSans-67"/><path d="M25.39 72.906h8.297L8.297-9.28H0z" id="DejaVuSans-47"/><path d="M9.813 72.906h9.859V42.094L52.39 72.906h12.703L28.906 38.922 67.672 0H54.688L19.672 35.11V0h-9.86z" id="DejaVuSans-75"/><path d="M9.422 54.688h8.984V0H9.422zm0 21.296h8.984v-11.39H9.422z" id="DejaVuSans-105"/><path d="M45.406 46.39v29.594h8.985V0h-8.985v8.203Q42.578 3.328 38.25.953q-4.313-2.375-10.375-2.375-9.906 0-16.14 7.906-6.22 7.922-6.22 20.813 0 12.89 6.22 20.797Q17.968 56 27.874 56q6.063 0 10.375-2.375 4.328-2.36 7.156-7.234zm-30.61-19.093q0-9.906 4.079-15.547 4.078-5.64 11.203-5.64 7.125 0 11.219 5.64 4.11 5.64 4.11 15.547 0 9.906-4.11 15.547-4.094 5.64-11.219 5.64-7.125 0-11.203-5.64-4.078-5.64-4.078-15.547z" id="DejaVuSans-100"/><path d="M4.89 31.39h26.313v-8H4.891z" id="DejaVuSans-45"/><path d="M8.203 72.906h46.875v-4.203L28.61 0H18.312L43.22 64.594H8.203z" id="DejaVuSans-55"/><path d="M32.172-5.078q-3.797-9.766-7.422-12.735-3.61-2.984-9.656-2.984H7.906v7.516h5.282q3.703 0 5.75 1.765Q21-9.766 23.483-3.219l1.61 4.094-22.11 53.813H12.5l17.094-42.766 17.093 42.766h9.516z" id="DejaVuSans-121"/><path d="M2.984 54.688H12.5L29.594 8.797l17.093 45.89h9.516L35.687 0H23.485z" id="DejaVuSans-118"/><path d="M45.406 27.984q0 9.766-4.031 15.125-4.016 5.375-11.297 5.375-7.219 0-11.25-5.375-4.031-5.359-4.031-15.125 0-9.718 4.031-15.093t11.25-5.375q7.281 0 11.297 5.375 4.031 5.375 4.031 15.093zm8.985-21.203q0-13.953-6.203-20.765Q42-20.797 29.203-20.797q-4.734 0-8.937.703-4.203.703-8.157 2.172v8.735q3.954-2.141 7.813-3.157 3.86-1.031 7.86-1.031 8.843 0 13.234 4.61 4.39 4.609 4.39 13.937v4.453q-2.781-4.844-7.125-7.234Q33.938 0 27.875 0 17.828 0 11.672 7.656q-6.156 7.672-6.156 20.328 0 12.688 6.156 20.344Q17.828 56 27.875 56q6.063 0 10.406-2.39 4.344-2.391 7.125-7.22v8.297h8.985z" id="DejaVuSans-103"/></defs><use xlink:href="#DejaVuSans-78"/><use x="74.805" xlink:href="#DejaVuSans-101"/><use x="136.328" xlink:href="#DejaVuSans-119"/><use x="218.115" xlink:href="#DejaVuSans-32"/><use x="249.902" xlink:href="#DejaVuSans-67"/><use x="319.727" xlink:href="#DejaVuSans-97"/><use x="381.006" xlink:href="#DejaVuSans-115"/><use x="433.105" xlink:href="#DejaVuSans-101"/><use x="494.629" xlink:href="#DejaVuSans-115"/><use x="546.729" xlink:href="#DejaVuSans-32"/><use x="578.516" xlink:href="#DejaVuSans-47"/><use x="612.207" xlink:href="#DejaVuSans-32"/><use x="643.994" xlink:href="#DejaVuSans-49"/><use x="707.617" xlink:href="#DejaVuSans-48"/><use x="771.24" xlink:href="#DejaVuSans-48"/><use x="834.863" xlink:href="#DejaVuSans-75"/><use x="900.439" xlink:href="#DejaVuSans-32"/><use x="932.227" xlink:href="#DejaVuSans-114"/><use x="971.09" xlink:href="#DejaVuSans-101"/><use x="1032.613" xlink:href="#DejaVuSans-115"/><use x="1084.713" xlink:href="#DejaVuSans-105"/><use x="1112.496" xlink:href="#DejaVuSans-100"/><use x="1175.973" xlink:href="#DejaVuSans-101"/><use x="1237.496" xlink:href="#DejaVuSans-110"/><use x="1300.875" xlink:href="#DejaVuSans-116"/><use x="1340.084" xlink:href="#DejaVuSans-115"/><use x="1392.184" xlink:href="#DejaVuSans-32"/><use x="1423.971" xlink:href="#DejaVuSans-45"/><use x="1460.055" xlink:href="#DejaVuSans-45"/><use x="1496.139" xlink:href="#DejaVuSans-32"/><use x="1527.926" xlink:href="#DejaVuSans-55"/><use x="1591.549" xlink:href="#DejaVuSans-32"/><use x="1623.336" xlink:href="#DejaVuSans-100"/><use x="1686.813" xlink:href="#DejaVuSans-97"/><use x="1748.092" xlink:href="#DejaVuSans-121"/><use x="1807.271" xlink:href="#DejaVuSans-32"/><use x="1839.059" xlink:href="#DejaVuSans-97"/><use x="1900.338" xlink:href="#DejaVuSans-118"/><use x="1959.518" xlink:href="#DejaVuSans-101"/><use x="2021.041" xlink:href="#DejaVuSans-114"/><use x="2062.154" xlink:href="#DejaVuSans-97"/><use x="2123.434" xlink:href="#DejaVuSans-103"/><use x="2186.91" xlink:href="#DejaVuSans-101"/></g><g id="legend_1"><path d="M128.2 184.5h136.45q3.2 0 3.2-3.2V88.96q0-3.2-3.2-3.2H128.2q-3.2 0-3.2 3.2v92.34q0 3.2 3.2 3.2z" style="fill:none;opacity:.8;stroke:#ccc;stroke-linejoin:miter" id="patch_5"/><path d="M131.4 98.718h32" style="fill:none;stroke:#000;stroke-linecap:round;stroke-width:1.5" id="line2d_5"/><g style="fill:#696969" transform="matrix(.16 0 0 -.16 176.2 104.317)" id="text_20"><defs><path d="M8.688 72.906h9.921V28.61q0-11.718 4.235-16.875 4.25-5.14 13.781-5.14 9.469 0 13.719 5.14 4.25 5.157 4.25 16.875v44.297H64.5V27.391q0-14.25-7.063-21.532-7.046-7.28-20.812-7.28-13.828 0-20.89 7.28-7.047 7.282-7.047 21.532z" id="DejaVuSans-85"/><path d="M53.516 70.516V60.89q-5.61 2.687-10.594 4-4.984 1.328-9.625 1.328-8.047 0-12.422-3.125t-4.375-8.89q0-4.845 2.906-7.313 2.907-2.453 11.016-3.97l5.953-1.218q11.031-2.11 16.281-7.406 5.25-5.297 5.25-14.172 0-10.61-7.11-16.078-7.093-5.469-20.812-5.469-5.172 0-11.015 1.172Q13.14.922 6.89 3.219v10.156q6-3.36 11.765-5.078 5.766-1.703 11.328-1.703 8.438 0 13.032 3.312 4.593 3.328 4.593 9.485 0 5.359-3.297 8.39-3.296 3.032-10.812 4.547L27.484 33.5q-11.03 2.188-15.968 6.875-4.922 4.688-4.922 13.047 0 9.672 6.812 15.234 6.813 5.563 18.766 5.563 5.14 0 10.453-.938 5.328-.922 10.89-2.765z" id="DejaVuSans-83"/></defs><use xlink:href="#DejaVuSans-85"/><use x="73.193" xlink:href="#DejaVuSans-83"/></g><path d="M131.4 122.203h32" style="fill:none;stroke:#009e73;stroke-linecap:round;stroke-width:1.5" id="line2d_7"/><g style="fill:#696969" transform="matrix(.16 0 0 -.16 176.2 127.802)" id="text_21"><use xlink:href="#DejaVuSans-78"/><use x="74.805" xlink:href="#DejaVuSans-74"/></g><path d="M131.4 145.688h32" style="fill:none;stroke:#d55e00;stroke-linecap:round;stroke-width:1.5" id="line2d_9"/><g style="fill:#696969" transform="matrix(.16 0 0 -.16 176.2 151.287)" id="text_22"><defs><path d="M19.672 34.813V8.108H35.5q7.953 0 11.781 3.297 3.844 3.297 3.844 10.078 0 6.844-3.844 10.078-3.828 3.25-11.781 3.25zm0 29.984V42.828h14.61q7.218 0 10.75 2.703 3.546 2.719 3.546 8.282 0 5.515-3.547 8.25-3.531 2.734-10.75 2.734zm-9.86 8.11h25.204q11.28 0 17.375-4.688Q58.5 63.53 58.5 54.89q0-6.703-3.125-10.657-3.125-3.953-9.188-4.922 7.282-1.562 11.313-6.53 4.031-4.954 4.031-12.376 0-9.765-6.64-15.093Q48.25 0 35.984 0H9.812z" id="DejaVuSans-66"/></defs><use xlink:href="#DejaVuSans-66"/><use x="68.604" xlink:href="#DejaVuSans-101"/><use x="130.127" xlink:href="#DejaVuSans-114"/><use x="169.49" xlink:href="#DejaVuSans-103"/><use x="232.967" xlink:href="#DejaVuSans-101"/><use x="294.49" xlink:href="#DejaVuSans-110"/></g><path d="M131.4 169.173h32" style="fill:none;stroke:#0072b2;stroke-linecap:round;stroke-width:1.5" id="line2d_11"/><g style="fill:#696969" transform="matrix(.16 0 0 -.16 176.2 174.773)" id="text_23"><defs><path d="M44.39 34.188q3.172-1.079 6.172-4.594 3-3.516 6.032-9.672L66.609 0H56l-9.313 18.703q-3.624 7.328-7.015 9.719-3.39 2.39-9.25 2.39h-10.75V0h-9.86v72.906h22.266q12.5 0 18.656-5.234 6.157-5.219 6.157-15.766 0-6.89-3.203-11.437-3.204-4.532-9.297-6.282zM19.673 64.797V38.922h12.406q7.125 0 10.766 3.297 3.64 3.297 3.64 9.687 0 6.39-3.64 9.64-3.64 3.25-10.766 3.25z" id="DejaVuSans-82"/><path d="M54.89 33.016V0h-8.984v32.719q0 7.765-3.031 11.61-3.031 3.858-9.078 3.858-7.281 0-11.484-4.64-4.204-4.625-4.204-12.64V0H9.08v75.984h9.03V46.188q3.235 4.937 7.594 7.374Q30.078 56 35.797 56q9.422 0 14.25-5.828 4.844-5.828 4.844-17.156z" id="DejaVuSans-104"/></defs><use xlink:href="#DejaVuSans-82"/><use x="64.982" xlink:href="#DejaVuSans-117"/><use x="128.361" xlink:href="#DejaVuSans-116"/><use x="167.57" xlink:href="#DejaVuSans-104"/><use x="230.949" xlink:href="#DejaVuSans-101"/><use x="292.473" xlink:href="#DejaVuSans-114"/><use x="333.586" xlink:href="#DejaVuSans-102"/><use x="368.791" xlink:href="#DejaVuSans-111"/><use x="429.973" xlink:href="#DejaVuSans-114"/><use x="469.336" xlink:href="#DejaVuSans-100"/></g></g></g></g><defs><clipPath id="p0e381c6cee"><path d="M117 77.76h725.4v498.96H117z"/></clipPath></defs></svg>