<svg height="864" viewBox="0 0 936 648" width="1248" xmlns="http://www.w3.org/2000/svg" xmlns:xlink="http://www.w3.org/1999/xlink"><defs><style>*{stroke-linecap:butt;stroke-linejoin:round}</style></defs><g id="figure_1"><path d="M0 648h936V0H0z" style="fill:#fff" id="patch_1"/><g id="axes_1"><path d="M117 576.72h725.4V77.76H117z" style="fill:none" id="patch_2"/><path clip-path="url(#pa31c445d15)" d="m149.973 554.039 35.223-.089 3.913-.17 2.936-.273.978-.222.979-.366 1.956-1.1.979-.778 1.957-1.88.978-1.326 1.957-3.076 3.914-7.549 1.956-4.624 1.957-5.096.979-1.574 1.957-3.723 2.935-4.705.978-.982.979-.795.978-.396 2.935-.662.979.074.978.618.979.026.978.325.978.444.979.276.978.085 1.957-.55.979.038 3.913.862.979-.227 1.956-.173.979.5.978.167 1.957.887 1.957 1.718 1.957 1.105.978.217.979.499.978.313.978.713 1.957 1.193.979.012.978.252.979.133 2.935.847.978.026.979-.136 2.935.945.978.156.979.024.978-.149 1.957.01 1.957.664.978-.452.979-.023 1.957.213.978.008.978-.379 1.957-.15.979-.179 1.956.303.979-.378 1.957-1.116.978-.196.979-.877.978-.715.978-1.13 2.936-4.46.978-1.846.979-1.564 2.935-5.832.978-2.242 1.957-4.961 3.914-6.66.978-2.072.979-1.725.978-2.093 1.957-3.385.978-2.034 1.957-3.28.978-1.856 1.957-2.417.979-1.614 1.957-2.19 1.956-1.881 1.957-1.047 1.957.55 1.957.374.978.621.979.17.978.518 2.935 3.283.979 1.476 2.935 3.356.979.528.978 1.107.978.9.979 1.153.978 1.372.979.886.978.561 1.957 1.717 2.935 2.997.979 1.118.978.941.978 1.489.979.624.978 1.307 1.957 1.605.979 1.19.978.565.978.803.979.096.978-.075.979.974.978-.034.978-.283 1.957.47.979 1.405.978.945.979 1.105.978.696.978-.093.979.508 1.957-.03.978.446.978-.629.979.1.978.297.979.04.978-.586.979-2.746 2.935-2.195.978-.646 1.957-.696.978-.043.979-.413.978-.258.979-.102 1.957-.983.978.12.978-.688.979-.505 1.957-2.087.978-.404 2.935-2.498.979-.986 2.935-4.943.978-.459.979-1.182.978-.279.979-1.634.978-1.035.979-1.728 1.956-4.91.979-1.377.978-2.455 1.957-3.874.978-2.333 4.893-13.603 1.956-8.302 3.914-17.92 2.935-18.378 1.957-14.423.979-5.623 1.956-13.07 2.936-18.105.978-4.241.979-3.446.978-4.533 1.957-6.99.978 5.592.979-2.244.978.703 1.957-.188.978-2.083 1.957-5.45 2.935-8.98.979-2.296 1.957-7.466.978-11.268.979-6.884.978-5.174.978-4.434.979-3.063.978-1.745.979-4.024 1.956-3.669.979 1.088.978-.736.979.277.978 1.666.979-.742.978 2.924.978 16.555.979-.86.978 2.962.979 1.095.978.196.978 1.464.979.616.978 9.582.979-9.007.978-2.016.979-4.638.978-3.077.978-2.6.979-8.005.978-18.423.979-3.232.978-5.182.979-3.439.978-2.668.978-.035.979-.784.978-8.537.979 8.244.978 2.92.978 10.206.979 4.431.978 6.498.979 8.283.978 10.068 1.957 14.992.978 6.43 1.957 14.094 2.935 20.003.979 5.19.978-.066 1.957 12.63 2.935 17.504.979 3.908.978 5.863.979 5.001 2.935 17.176 1.957 9.142.978 7.982 3.914 18.998 1.957 6.206.978 3.09.979 2.257.978 1.916.978 2.559 1.957 3.99.979 1.187.978-.131.978.636 1.957.742 1.957 2.347.979 1.393.978-3.23 2.935 4.379 1.957 2.514.979 1.19.978-.043.978.287 1.957 1.337.979.467.978.2.978.54.979 3.67.978-.079.979-2.001.978-.62 1.957-1.98.978-.602.979-1.251 1.957-1.54.978-1.542.978-.735.979-.895.978-.242.979-2.017.978-.482.979.628.978-1.046.978-.653 1.957-.693.979-.11.978-1.39.979-.721.978.323.978-.9.979.945.978-.421.979.583.978.088.978.977.979 1.31.978 1.641 1.957 2.644 2.935 6.543.979 1.485.978 1.829.979.84.978 1.085 1.957 3.723 3.914 6.4 1.956 2.031 1.957 3.427 1.957 3.381.978 1.448.979 1.192.978 1.911.979 1.207 1.957 3.135.978 1.704.978 1.415.979.754 3.914 4.14 1.956 3.36.979.855.978 2.186.979.488 1.956 2.035.979 4.887 1.957 1.463.978.57.979.797.978.25.978 1.102.979.48.978.302.979.06.978-.886.978.986.979.226.978.671.979-3.383 2.935.79.978.13.979.612 2.935.411.979.249.978-.04.978-.355.979-.144.978-4.865.979-.714.978.331.978.105.979 1.038 1.957-2.812.978-3.184.979-1.879 1.956-.223.979-1.829.978-2.512.979-2.035.978 2.668.978-2.93.979-.78.978-.563.979-5.032.978-3.23.979-2.726.978-1.5.978-4.4.979-1.275.978-.764 3.914-21.27.978-6.495.979-1.59.978-1.279.979-7.097.978-8.131.978-4.845.979-5.667.978-7.863 1.957-3.942.979-7.892.978-5.095.978-6.51.979-3.726.978-5.966 1.957-3.784.978-11.369.979.555.978-4.819 2.936-9.34.978-.415.978-8.062.979 1.096.978-1.416.979-4.522.978-.785.979-3.268.978.153.978-1.927.979-1.47.978-4.277.979-1.47.978.75.978 1.23.979-.355.978 17.44.979-13.916.978-1.222.979 1.585.978 1.807.978 1.044.979.24.978-.429.979.696.978 3.762.978 1.918.979 2.262.978-.196.979.412.978-12.095.979 15.78.978 3.383.978 3.937.979 3.347.978 2.059.979.49.978 8.322 3.914 14.831.978 2.209.979 1.301 1.956 6.162 1.957 4.057.979 2.496.978 1.315.979 1.032.978 6.555.978.163.979 2.024 1.957 5.02.978.985.978.34.979 4.67.978 1.376.979 3.626 1.957 4.525.978.692.978.548.979 1.67.978 2.227.979 1.107.978.257.979.907 1.956.682.979-.234.978.621.979.164.978-.105.978-.412.979-.195.978-.46.979-1.926.978.41.979-.417.978 1.99.978-3.746.979-2.948.978-.436.979-2.218.978-1.248 1.957-5.227.978-2.57 1.957-1.698.979-2.99.978-.903.978-1.92.979 3.111.978 7.175.979 3.385.978-.032.978-6.24.979-1.734.978-2.304.979-2.623.978-3.097.979-1.574.978-.295.978-3.554.979-1.957.978-2.634h0" style="fill:none;stroke:#000;stroke-linecap:round;stroke-width:1.5" id="line2d_1"/><path clip-path="url(#pa31c445d15)" d="m149.973 554.04 37.18-.099 2.935-.235 1.957-.579.978-.538.979-1.046.978-.542.978-1.498.979-1.963 1.957-5.968.978-2.449.979-8.407.978-6.568 1.957-15.373.978-10.806.979-6.704 2.935-36.01.978-12.907 1.957-18.592 1.957-16.314.978-3.801.979-5.492.978-4.306.979-4.895.978 1.758.978-7.426.979 4.609.978-3.243 1.957 8.281.979-1.703.978.272.978-.868.979-1.557.978-1.82.979 4.613.978.804.979.627.978 1.99.978 5.354.979-.688.978 6.47.979 2.084.978 1.451.978 2.91.979 6.744.978 4.282 1.957 15.534.979 1.321.978 5.778.978 7.044.979 2.51.978 6.371.979 5.42 1.956 8.792.979 4.575.978 6.07.979-.613.978 4.599.979-.304.978 2.29.978 1.948.979 4.245.978 1.352.979 1.618.978.43 1.957-.307.978.586 1.957 2.82.979 4.197.978 1.182.978 2.94.979 2.081.978 1.502.979-.586.978 2.654.979 2.061.978 1.27.978 1.07 1.957 4.763.979 1.1.978 1.91.978.856.979 1.035.978.838.979.198.978 1.42.979.747.978-.126.978.204.979-.068.978 1.335.979-5.75.978-.136.979.518.978-.113.978.45.979-.245.978.054 1.957-.078.978.16.979-.208 1.957.395.978-.32.979 6.564.978.102 1.957-.245.978-.456.979.006.978-.439.978.705.979 1.145.978.095.979 1.363.978.099.979-.09.978-.282.978-.037.979-.34 2.935-1.953.979-.306.978-.123.978.065.979-2.18.978-.362.979-1.199 1.956-.5h.979l.978-.45.979.334 1.957 1.042.978.65.978.134.979-.079.978-1.54 1.957.72.978 1.049.979-.164 1.957.14.978.933.979.239.978-.549.978.668.979.112.978.484.979.725.978 1.19.979.722.978-.242.978-.947.979-.126 1.957.04.978-.947.978-.541.979.695.978-.555.979-.365.978.085 1.957-.715 1.957-.736 1.957.03 1.956-.64.979-.65.978-.13 1.957-.947.979-.204.978-.508.978-.269.979-.477.978-.252.979-1.025.978-1.366.978-.767.979-.068.978-1.083.979-.153.978-.862.979-1.656.978-.59.978-.404.979-.692.978-.344.979-2.5.978-1.08.979-.389.978-.18.978.306.979-1.812.978-.787.979-1.216.978-.238.978.044 1.957-4.53.979-1.223.978-1.775.979.463.978-.613.978-3.56.979-1.288 1.957-4.79.978-2.49.978-1.972.979-3.972 1.957-3.055.978-.6.979-2.847.978-4.814.978-2.725.979-3.802.978-4.404 1.957-5.88.979-7.256.978-4.752.978-6.615.979-4.84 1.957-19.707.978-2.899.978-7.501.979-5.488.978-7.562 1.957-9.988.979-6.66.978-5.188.978-1.696 1.957-6.728.979-2.378.978 1.877.978 2.381.979-3.307.978-1.976.979-.848.978-2.082.979-6.939.978-2.231.978-7.024.979.061.978-4.091.979-1.376.978-2.204.979 1.516.978-8.305.978-1.073.979-5.478.978 2.18.979-4.762.978 1.833.978 6.019.979 3.86.978 2.912.979 1.335.978 2.974.979-1.179.978 1.418.978-4.804.979 7.634.978 6.248.979 6.997.978 1.052.978 3.349.979-2.865.978-5.467.979-4.497.978 5.127.979-163.242.978-5.658.978-3.553.979-9.453.978-6.68 1.957-22.953.979-8.833.978-3.165.978-10.764.979-6.8.978-2.943.979-1.662.978-4.994.978 160.919.979 5.576.978 1.407.979 8.281.978 9.61.979.896.978 1.274.978 4.067.979-.647.978 10.45.979 7.993.978 1.29.978 2.47.979 2.889.978 1.151.979 5.032.978 10.655.979 5.992.978-.095.978 8.986.979 3.202.978 5.39.979 4.084.978 1.498.979 3.714.978 7.678.978 5.167 1.957 14.274.979-1.646.978-6.125.978.045.979 4.026.978 5.56.979 7.838.978-.487.979 1.427.978 4.265.978.276.979-.467.978-1.288.979-.756.978-5.78.978 1.171.979 1.424.978.283.979-2.221.978-2.875.979-1.666.978 1.352.978-3.297.979-2.238.978-.814.979-1.182.978.913.979-3.134.978 1.09.978-1.458.979-2.116.978-4.357.979-2.364.978-4.043.978-2.446.979-2.875.978-2.306.979-1.094.978-.443.979-4.71.978-2.723.978-4.07.979-2.722.978-3.938.979 2.194.978-3.87.978-.467.979 1.581.978-1.918.979 1.09.978 3.717.979-.494.978-1.322.978 4.79 1.957 7.443.979 3.9.978 3.13.979.358.978 5.757.978.504.979 1.782 1.957 4.428.978 2.974.978 2.61.979 3.754.978 4.629.979 2.78.978 5.767.979 39.11.978 6.234.978 4.946.979 5.702 1.957 16.545.978 6.647.978 4.087.979 6.251.978 3.223 1.957 12.55.979 7.265.978 4.616.978-31.193 1.957 10.86.979 6.186.978 5.225 1.957 6.377.978 2.163.979 1.223.978 7.103.979 2.902 1.956 2 1.957.3.979.586.978.31 1.957.31.978 1.331.979.079.978.514.979 1.66.978.582.978.953.979 1.223.978.068.979.314.978-.361 1.957 1.38.978.177 1.957-.007.979.133.978-.116.978-.31.979-.034 1.957.238.978.511 1.957.45.978-.123.979-.286.978.238.979-.255.978.04 4.892.938.979-.15 1.956.17 1.957.45.979-.051 2.935-.62.978-.453.979-.232 1.957-1.056.978-.777.978-.627 1.957-2.299.979-.77.978-1.717 1.957-2.83 1.957-3.615 1.957-2.108.978-1.468 1.957-4.136 1.957-4.285.978-1.704.979-1.928.978-2.23.978-1.81.979-2.452.978-1.489.979-2.31.978-1.951.979-1.159 1.956-5.358 1.957-5.117.979-4.707.978-1.179.978-1.451 2.936-5.147.978-5.43.979-2.109.978-.957.978-2.6.979-.776.978-1.455.979-.68.978-2.549.979 2.146.978-1.962.978-.695.979-1.046.978-2.064.979-1.771.978 4.104.978-.306.979-.9.978-1.113.979 5.12.978-4.718.979-.532.978-.245.978-1.908.979.01.978-.125.979.306.978.027.978-1.417.979-2.176.978-1.278.979-.664.978 1.117.979-6.169.978 3.907.978-.143.979 1.458.978.886.979 2.51.978 1.315.979.511.978.947 1.957 4.538.978 2.343.979 1.55.978 1.285 1.957 3.46.978.638 1.957 2.633.979-1.1.978.698 1.957 1.693.978 2.347.979.988.978 1.645.978 1.9.979 1.633.978 1.396.979 2.541.978 2.034.979.555 1.956 4.545.979.037.978.576.979 1.557.978-1.114.979.262.978.756.978-1.086.979-.184.978.078.979-.654.978-.123.978 1.094.979-.896.978-.474.979.31.978.031.979-1.189.978.484.978-1.754.979-1.39 1.957-3.499.978-1.785.978-2.214.979-3.3 1.957-5.622 1.957-4.656.978-4.006.978-1.942.979-3.502 1.957-2.3.978-.571.978-2.995.979-5.15.978-4.224.979-6.776 1.957-15.121.978-6.452 1.957-9.388.978-6.984h0" style="fill:none;stroke:#009e73;stroke-linecap:round;stroke-width:1.5" id="line2d_2"/><path clip-path="url(#pa31c445d15)" d="m149.973 554.04 32.288-.097 2.935-.13 2.935-.325.978-.454.979-.033.978-.94.979-.747.978-1.558.979-5.29.978-1.429.978-.649.979-3.051.978-4.9.979-2.922.978-3.7.979-12.496 1.956-19.929.979-10.71.978-9.218.979-13.113.978-17.397.978-14.313.979-23.434.978-28.367.979-10.776 1.957-35.767.978-7.238.978-2.662.979-9.282 1.957-6.232.978.162.978 3.019.979 5.29.978 1.428.979 10.16.978 19.279.979-1.59 1.956 20.415.979.357.978 3.44.979 8.796.978 1.915.979 6.329 1.956 11.555.979 7.367.978 12.886.979 7.595.978 5.063 1.957 17.527.978 5.42 1.957 17.656.979 6.946.978 9.088.978 3.31.979 1.299.978 2.726.979 4.415.978 7.594 1.957 6.427.978 3.116.979-.033.978 3.733.979 2.077.978.779.978.974.979 2.596.978-.357 1.957.098.979-.033.978-6.653.978 1.622.979 2.045.978 1.753.979 2.207.978 1.038.978-1.525.979 1.071.978.487.979-.454.978 3.765.979 2.304.978.876.978-1.103.979 2.694.978 1.33.979-2.401.978 1.558h.978l.979-.714.978.519.979.357.978 1.2h.979l.978.195.978-.032.979.097.978 2.143.979-9.12.978-2.37.979 1.655.978-2.142.978.292 1.957.325.979-.195.978-1.298.978-.033.979-1.59.978-.098.979.357.978-.908.979 9.185.978 1.33.978-.291.979 1.785.978.032.979 1.039 1.956.324.979 1.364.978.551.979 2.013.978-.78.979.098 1.956.974.979.876 1.957-.65.978-1.103.979-1.46.978-.844.978.065.979-1.428.978-.292.979-.844.978.746.978-1.266.979.52 1.957.26.978-.877.979-.292 1.956 1.46.979.325.978-.649.979-1.883.978-1.298 1.957-3.213.978 1.006.979.844.978 2.467.979.13.978.746.978 1.071.979.162 1.957-.357.978.747.979 3.18.978.52 1.957 2.5.978-1.267.979-.844.978-2.564.978-.227.979 1.006.978-.746.979-.065.978.487.979.324.978-.13.978-.357.979 1.169.978.195.979.454.978 1.98.978-.162.979-.78.978-.13.979-.746.978.325.979-.033.978-.843.978.13.979-.195.978.13.979-.715.978-.389.978-.13.979-.974.978-.13.979-.389.978-.714.979-1.071.978-.617.978-.357.979.033.978-.812.979-1.785 1.957-2.888.978-.747.978-.487.979-2.207 1.957-2.207.978-.65.978-.356.979-1.85.978-2.175.979-1.525.978-2.337.979-.747.978-.486.978-2.37.979-1.72.978-2.37.979-1.46.978-.876.978-1.071.979-4.35 1.957-3.96.978-1.427.979-2.435.978-3.018.978.032.979-4.057.978-5.94.979-2.953.978-.487.979-4.998.978-7.206.978-8.795.979-4.642 1.957-16.098.978-1.136 1.957-13.795.978-10.938.979-4.154.978-3.538.979-6.296.978-8.374.978-1.136.979-.584.978-.26.979-6.362.978 5.745 1.957-6.491.978-2.11.979.747.978-1.883.979-8.893.978-2.24.978-4.511.979 1.947.978-1.266.979 1.818.978-.26.979 8.504.978-10.354.978 4.285.979-3.506.978 3.863.979-.844.978 4.317.978 7.173 1.957 10.873.979 2.694.978 1.233.979-5.972.978-1.169.978-4.966.979 7.498 1.957 9.218.978.811.978.422.979-5.485 1.957-5.193.978 2.207.979-141.902.978-9.607.978-4.9.979-6.525.978-7.79 1.957-19.311.979-3.7.978-1.233.978-10.744.979-6.88 1.957-7.109.978-5.842.978 140.928.979 4.836.978 1.33.979 4.934.978 10.419.979-2.24.978 1.59.978.747.979-3.505 1.957 15.936.978 3.7.978.714.979 2.045.978-2.434.979 5.874.978 11.393.979 3.278.978-4.804.978 5.81.979 1.72.978 2.857.979 4.576.978 1.233.979 3.798.978 2.888.978 3.408.979 5.258.978 6.784.979-6.719.978-5.03.978 1.395.979 6.427.978 4.251.979 6.524 1.957-6.653.978 2.272.978-2.727.979-4.674.978-.486.979.26.978-11.555.978 3.408.979-4.187.978-.52.979-5.095.978 4.316.979-3.375.978 3.18.978-3.375.979-.909.978-.746.979 2.337.978 1.168.979-4.414.978 5.583.978-2.5.979.293.978-2.922.979-2.531.978-9.997.978-.974.979-3.148.978.065.979-1.33.978 4.51.979-9.444.978-5.68.978-4.934.979-1.265.978-1.948.979-2.37.978-2.012.978.52.979.292.978-.227.979.714.978 5.03.979-2.466.978-1.526.978 11.133.979 6.2.978 6.913.979 3.992 1.957 13.145.978 5.453 1.957 8.503.978 4.642.979 5.323.978 3.57.978 6.653.979 3.344.978 5.225.979 3.116.978 5.583.979 7.854.978 4.706.978 5.94.979 4.317 1.957 15.611.978 4.772.978 2.856.979 5.096.978-31.581.979-3.148.978 5.063.979 6.2.978 2.888.978-1.071.979 4.414.978 3.278.979 5.972.978 2.954.978 1.363.979.941.978 1.428.979 2.013.978 40.7.979 12.27.978.486.978 1.98.979 1.039 1.957.486.978 1.461.979.422.978 1.363.978 2.305.979 1.2.978.877.979.616.978.78.978.389.979 1.298.978-.422.979.227.978.455.979.941.978.617.978.26 1.957-.13.979-.422.978-.098.978-.681 1.957-.39h.979l.978.877 1.957.421.978-.389 1.957-1.136.979.227.978-.162.979.065.978.26.978.064.979-.551.978-.422.979-.033.978-.324.978.357.979.032 2.935 1.623 1.957.195.978-.292.979-.033 1.957-.454.978-.455.978-.714 1.957-1.72.979-.682 1.957-2.142.978-1.882.978-2.532.979-2.11.978-1.07.979-1.883.978-1.233.979-1.72.978-2.467 1.957-4.09.978-2.337.979-1.785.978-2.629.978-1.655 1.957-2.337 1.957-1.623.979.325.978-3.603.978-1.753.979-2.37.978-.94.979-3.408.978 3.115.978-.324 1.957-4.869.979-.843.978-4.577.979-2.175.978-1.59.978-2.175.979.974.978-1.59.979.52.978-2.533.979.487.978-4.998.978-.941.979.909.978.032.979-1.396.978 4.739.978-.682.979-.227.978-.973.979 3.992.978-2.564.979-.714.978-.422.978-.065.979.324.978.52.979-1.007.978-.097.978-.714.979-1.59.978-.195.979-.65.978 1.202.979-3.278.978 2.401.978.065.979-.097.978.681.979.26.978-.552.979 2.272.978-.097 1.957.422.978 1.2.979 2.435.978.714.978.227 1.957 2.76.979 3.375.978 1.395.979.682.978 2.272.978.39.979 1.233.978 2.24.979 1.72.978.162.978 1.136.979.714 2.935 7.335.979-.26 1.956 3.96.979-1.72.978-.39.979 1.234.978-.292.979-.747.978 1.655.978-.389.979.26.978-.714.979-1.299.978-.292.978.941.979-.486.978-.13.979 1.298.978 1.104 2.935 1.265.979-.39.978-2.758.979-1.266 2.935-8.081.978-2.694 1.957-5.972.979-1.364.978-4.122.978-2.272.979-2.758 1.957-3.311.978.065.978-1.623.979-3.538.978-2.499 1.957-9.088.979-3.765.978-2.532 2.935-15.124h0" style="fill:none;stroke:#d55e00;stroke-linecap:round;stroke-width:1.5" id="line2d_3"/><path clip-path="url(#pa31c445d15)" d="M149.973 554.04h43.05l.979-3.306h1.956l.979-1.653h.978l1.957-9.919.979-9.918.978-1.653.978-4.96.979-3.306.978-8.265.979-13.225.978-11.571h.978l.979-9.919.978-26.45.979-16.53.978-4.96.979-3.305h.978l.978-6.613.979-9.918.978 1.653.979 3.306.978-1.653.978 6.612.979 4.96.978-4.96.979 1.653.978 21.49.979 18.184.978-3.306.978 3.306.979-3.306.978 8.266h2.936l.978 1.653.978 6.612 2.936 9.918h1.956l.979 8.266.978 4.96 1.957 16.53.979 9.918.978 3.307h.978l.979 1.653.978-6.613.979 1.653 1.956 6.613.979 4.959h1.957l.978-1.653h1.957l.978 1.653h1.957l.979 6.612.978 4.96 1.957 3.306.978-1.653h1.957l.979-4.96h7.827l.978-1.653h.979l.978 1.653h1.957l.978 4.96h5.871l.978-3.306.979 1.653h.978l.979-1.653h2.935l.978-6.613.979 1.653.978-1.653h3.914l.978-6.612.979-1.653.978 1.653h.979l.978-1.653h1.957l.978 3.306.979-1.653.978 1.653h3.914l.978 9.918.979-3.306.978-1.653h.978l.979 3.306h1.957l1.957 3.307h.978l.978-1.654h2.936l.978-1.653.978 4.96h.979l.978 1.653h2.936l.978 1.653h.978l.979-1.653.978 1.653.979-1.653h3.913l.979 1.653 1.957-3.306h2.935l.978-3.307h.979l.978-1.653.979 1.653h3.913l.979-6.612 1.956 3.306h2.936l.978-1.653 1.957 3.306h4.892l.978 3.307.979-1.654h2.935l.979-4.959.978 4.96.978-1.654h3.914l.978 1.653h.979l.978 3.307.979 1.653h2.935l.978 1.653.979-1.653.978-6.613.979-14.877.978-3.307h1.957l.978-3.306.979-9.918.978-1.653 1.957-16.531 1.957-9.919h.978l1.957 3.307.979 14.877.978 3.306h1.957l.978-6.612.979 3.306.978-6.612h1.957l1.957 9.918.978-16.53.979-1.653 1.956-9.919.979-8.265h1.957l.978-21.49h.979l.978 8.265.978-19.837.979-3.306h1.957l.978-6.612.978-18.184 1.957-16.531.979-14.878.978-8.265h.979l.978 8.265.978-6.612.979-9.919.978 28.103.979 11.571.978-33.061h.978l.979 3.306.978 8.265.979 1.653.978-13.224.979-16.531.978-9.919h.978l.979 4.96.978-6.613.979 1.653.978-29.755.979-14.878.978 33.062h1.957l.978-3.306.979 6.612.978 26.45.978 11.57.979 18.185h.978l.979-26.45.978 8.266.979-36.368.978 21.49.978 14.878h1.957l.979-26.45.978 6.613 1.957-38.021.978 28.102h1.957l.979-9.918.978-18.184.978 21.49.979-16.53.978-19.838.979-16.53h.978l.979 13.224.978-9.918.978 6.612.979 1.653.978-16.53h1.957l.978 54.55.979-4.958.978 6.612.979 18.184 1.957 31.408h.978l.978-14.877.979 11.571.978 14.878.979 6.612.978-9.918.978-8.266h1.957l.979 34.715.978-26.45 1.957-13.224h1.957l.978 24.796.979-4.959.978 1.653h.979l.978 18.184.978-3.306h1.957l.979-23.143.978 34.714.978 8.266.979 3.306h.978l.979-11.572.978 19.837 1.957 3.307.978-11.572.979-6.612.978 11.571h.979l.978-26.449.978 6.612.979-1.653h.978l.979-14.877h.978l.979 11.571.978-16.53.978 3.305.979-6.612.978-1.653.979 6.612h1.957l.978-11.571.978 4.959.979-3.306h.978l.979 14.878h1.956l.979-16.531.978-3.306.979 1.653.978 9.918.979-3.306h.978l.978-14.878.979 19.837.978-1.653.979 8.266.978-24.797.978-6.612h1.957l.979 11.572.978-3.307 1.957-1.653v-1.653l.978 3.306.979-1.653.978 14.878.979 1.653.978 4.96.979-3.307.978 9.919.978 6.612.979-8.265h.978l.979 23.143.978 11.571 1.957 6.613h.978l.979 1.653h.978l.979 6.612 1.956 6.612.979 13.225.978-6.612.979 6.612h.978l.978 1.653h1.957l.979 8.266.978 4.959h1.957l.978 3.306.979 4.96.978 3.305.979 6.613.978 14.877.978 1.654h.979l.978 3.306.979 1.653.978 9.918.979 1.653.978 3.307h1.957l.978 6.612h1.957l.979-3.306h4.892l.978-1.653.978 1.653h3.914l.979-4.96h.978l.978 3.307h4.892l.979 1.653h4.892l.978 4.959.979 1.653h.978l.979-6.612h4.892l.978-1.653h5.87l.98-1.653.978 4.959h3.913l1.957-3.306h5.87l.979-1.653.978-8.266h1.957l.979-34.715.978-3.306h.979l1.956-16.53h1.957l.979-11.572.978-4.96.978-1.652h.979l.978 8.265h1.957l.979 18.184.978-1.653.978-8.266.979 1.653.978 4.96h1.957l.978-4.96.979 1.653h.978l.979-3.306.978 1.653h1.957l.978 13.225.979-1.653.978 6.612.979 1.653.978 3.307h1.957l.978 4.959.979-8.266.978-9.918.979 3.306.978-8.265h1.957l.978 3.306.979-13.225.978-6.612.979 8.265.978-8.265h1.957l.978-3.306.979 6.612.978 4.96.978-9.92.979 1.654h1.957l.978-21.49.979 18.184.978 1.653.978-8.266.979 3.307h1.957l.978 8.265h1.957l.978 6.612h2.936l.978 14.878 1.957-3.306.978 8.265.979-13.224h1.957l.978 6.612.978-4.96 2.936 9.92h1.956l.979-6.613.978-1.653.979 8.265.978-6.612.979 14.878h1.956l.979-3.307.978 8.266.979 3.306h.978l.979 1.653h2.935l.978-1.653.979 1.653.978 6.612h2.935l.979-4.959.978-1.653.979-14.878.978 3.306.978-9.918h1.957l.979 3.306h.978l.978-3.306.979-4.96.978-1.652h1.957l.979-16.531.978-4.96.978 3.307h.979l.978 11.571h1.957l.978-23.143.979-4.96h.978l.979-8.264.978-9.919h1.957l.978 9.919 1.957-16.531h0" style="fill:none;stroke:#0072b2;stroke-linecap:round;stroke-width:1.5" id="line2d_4"/><path clip-path="url(#pa31c445d15)" d="M117 551.014h725.4" style="fill:none;stroke:green;stroke-dasharray:1.5,2.475;stroke-dashoffset:0;stroke-width:1.5" id="line2d_5"/><path clip-path="url(#pa31c445d15)" d="M117 538.912h725.4" style="fill:none;stroke:orange;stroke-dasharray:1.5,2.475;stroke-dashoffset:0;stroke-width:1.5" id="line2d_6"/><path clip-path="url(#pa31c445d15)" d="M117 523.784h725.4" style="fill:none;stroke:red;stroke-dasharray:1.5,2.475;stroke-dashoffset:0;stroke-width:1.5" id="line2d_7"/><path d="M117 576.72V77.76" style="fill:none;stroke:#d3d3d3;stroke-linecap:square;stroke-linejoin:miter;stroke-width:1.25" id="patch_3"/><path d="M117 576.72h725.4" style="fill:none;stroke:#d3d3d3;stroke-linecap:square;stroke-linejoin:miter;stroke-width:1.25" id="patch_4"/><g id="matplotlib.axis_1"><g id="xtick_1"><g style="fill:#696969" transform="matrix(.16 0 0 -.16 105.352 598.378)" id="text_1"><defs><path d="M9.813 72.906h9.859V5.078q0-13.187-5-19.14-5-5.954-16.094-5.954h-3.75v8.297h3.078q6.531 0 9.219 3.672Q9.813-4.39 9.813 5.078z" id="DejaVuSans-74"/><path d="M34.281 27.484q-10.89 0-15.093-2.484-4.204-2.484-4.204-8.5 0-4.781 3.157-7.594 3.156-2.797 8.562-2.797 7.485 0 12 5.297 4.516 5.297 4.516 14.078v2zm17.922 3.72V0H43.22v8.297Q40.14 3.328 35.547.953q-4.594-2.375-11.234-2.375-8.391 0-13.36 4.719Q6 8.016 6 15.922q0 9.219 6.172 13.906 6.187 4.688 18.437 4.688h12.61v.89q0 6.203-4.078 9.594-4.078 3.39-11.453 3.39-4.688 0-9.141-1.124-4.438-1.125-8.531-3.375v8.312q4.921 1.906 9.562 2.844 4.64.953 9.031.953 11.875 0 17.735-6.156 5.86-6.14 5.86-18.64z" id="DejaVuSans-97"/><path d="M54.89 33.016V0h-8.984v32.719q0 7.765-3.031 11.61-3.031 3.858-9.078 3.858-7.281 0-11.484-4.64-4.204-4.625-4.204-12.64V0H9.08v54.688h9.03v-8.5q3.235 4.937 7.594 7.374Q30.078 56 35.797 56q9.422 0 14.25-5.828 4.844-5.828 4.844-17.156z" id="DejaVuSans-110"/></defs><use xlink:href="#DejaVuSans-74"/><use x="29.492" xlink:href="#DejaVuSans-97"/><use x="90.771" xlink:href="#DejaVuSans-110"/></g></g><g id="xtick_2"><g style="fill:#696969" transform="matrix(.16 0 0 -.16 192.881 598.378)" id="text_2"><defs><path d="M34.188 63.188 20.797 26.906h26.812zm-5.579 9.718h11.188L67.578 0h-10.25l-6.64 18.703h-32.86L11.188 0H.78z" id="DejaVuSans-65"/><path d="M18.11 8.203v-29H9.077v75.484h9.031v-8.296q2.844 4.875 7.157 7.234Q29.594 56 35.594 56q9.968 0 16.187-7.906 6.235-7.907 6.235-20.797T51.78 6.484q-6.218-7.906-16.187-7.906-6 0-10.328 2.375-4.313 2.375-7.157 7.25zm30.578 19.094q0 9.906-4.079 15.547-4.078 5.64-11.203 5.64-7.14 0-11.218-5.64-4.079-5.64-4.079-15.547 0-9.906 4.078-15.547 4.079-5.64 11.22-5.64 7.124 0 11.202 5.64t4.078 15.547z" id="DejaVuSans-112"/><path d="M41.11 46.297q-1.516.875-3.297 1.281Q36.03 48 33.89 48q-7.625 0-11.703-4.953-4.079-4.953-4.079-14.234V0H9.08v54.688h9.03v-8.5q2.844 4.984 7.375 7.39Q30.031 56 36.531 56q.922 0 2.047-.125 1.125-.11 2.484-.36z" id="DejaVuSans-114"/></defs><use xlink:href="#DejaVuSans-65"/><use x="68.408" xlink:href="#DejaVuSans-112"/><use x="131.885" xlink:href="#DejaVuSans-114"/></g></g><g id="xtick_3"><g style="fill:#696969" transform="matrix(.16 0 0 -.16 286.105 598.378)" id="text_3"><defs><path d="M8.5 21.578v33.11h8.984V21.922q0-7.766 3.016-11.656 3.031-3.875 9.094-3.875 7.265 0 11.484 4.64 4.234 4.64 4.234 12.656v31h8.985V0h-8.984v8.406Q42.047 3.422 37.718 1q-4.313-2.422-10.032-2.422-9.421 0-14.312 5.86Q8.5 10.296 8.5 21.578zM31.11 56z" id="DejaVuSans-117"/><path d="M9.422 75.984h8.984V0H9.422z" id="DejaVuSans-108"/></defs><use xlink:href="#DejaVuSans-74"/><use x="29.492" xlink:href="#DejaVuSans-117"/><use x="92.871" xlink:href="#DejaVuSans-108"/></g></g><g id="xtick_4"><g style="fill:#696969" transform="matrix(.16 0 0 -.16 371.94 598.378)" id="text_4"><defs><path d="M39.406 66.219q-10.75 0-17.078-8.016-6.312-8-6.312-21.828 0-13.766 6.312-21.781 6.328-8 17.078-8 10.735 0 17.016 8 6.281 8.015 6.281 21.781 0 13.828-6.281 21.828-6.281 8.016-17.016 8.016zm0 8q15.328 0 24.5-10.281 9.188-10.282 9.188-27.563 0-17.234-9.188-27.516-9.172-10.28-24.5-10.28-15.375 0-24.593 10.25-9.204 10.265-9.204 27.546t9.204 27.563q9.218 10.28 24.593 10.28z" id="DejaVuSans-79"/><path d="M48.781 52.594v-8.407q-3.812 2.11-7.64 3.157-3.828 1.047-7.735 1.047-8.75 0-13.593-5.547-4.829-5.532-4.829-15.547 0-10.016 4.829-15.563 4.843-5.53 13.593-5.53 3.907 0 7.735 1.046 3.828 1.047 7.64 3.156V2.094Q45.016.344 40.984-.531q-4.015-.89-8.562-.89-12.36 0-19.64 7.765-7.266 7.765-7.266 20.953 0 13.375 7.343 21.031Q20.22 56 33.016 56q4.14 0 8.093-.86 3.953-.843 7.672-2.546z" id="DejaVuSans-99"/><path d="M18.313 70.219V54.688h18.5v-6.985h-18.5V18.016q0-6.688 1.828-8.594 1.828-1.906 7.453-1.906h9.218V0h-9.218q-10.407 0-14.36 3.875-3.953 3.89-3.953 14.14v29.688H2.687v6.984h6.594V70.22z" id="DejaVuSans-116"/></defs><use xlink:href="#DejaVuSans-79"/><use x="78.711" xlink:href="#DejaVuSans-99"/><use x="133.691" xlink:href="#DejaVuSans-116"/></g></g><g id="xtick_5"><g style="fill:#696969" transform="matrix(.16 0 0 -.16 463.454 598.378)" id="text_5"><use xlink:href="#DejaVuSans-74"/><use x="29.492" xlink:href="#DejaVuSans-97"/><use x="90.771" xlink:href="#DejaVuSans-110"/></g></g><g id="xtick_6"><g style="fill:#696969" transform="matrix(.16 0 0 -.16 550.004 598.378)" id="text_6"><use xlink:href="#DejaVuSans-65"/><use x="68.408" xlink:href="#DejaVuSans-112"/><use x="131.885" xlink:href="#DejaVuSans-114"/></g></g><g id="xtick_7"><g style="fill:#696969" transform="matrix(.16 0 0 -.16 643.228 598.378)" id="text_7"><use xlink:href="#DejaVuSans-74"/><use x="29.492" xlink:href="#DejaVuSans-117"/><use x="92.871" xlink:href="#DejaVuSans-108"/></g></g><g id="xtick_8"><g style="fill:#696969" transform="matrix(.16 0 0 -.16 729.062 598.378)" id="text_8"><use xlink:href="#DejaVuSans-79"/><use x="78.711" xlink:href="#DejaVuSans-99"/><use x="133.691" xlink:href="#DejaVuSans-116"/></g></g><g id="xtick_9"><g style="fill:#696969" transform="matrix(.16 0 0 -.16 820.577 598.378)" id="text_9"><use xlink:href="#DejaVuSans-74"/><use x="29.492" xlink:href="#DejaVuSans-97"/><use x="90.771" xlink:href="#DejaVuSans-110"/></g></g></g><g id="matplotlib.axis_2"><g id="ytick_1"><g style="fill:#696969" transform="matrix(.16 0 0 -.16 97.32 560.119)" id="text_10"><defs><path d="M31.781 66.406q-7.61 0-11.453-7.5Q16.5 51.422 16.5 36.375q0-14.984 3.828-22.484 3.844-7.5 11.453-7.5 7.672 0 11.5 7.5 3.844 7.5 3.844 22.484 0 15.047-3.844 22.531-3.828 7.5-11.5 7.5zm0 7.813q12.266 0 18.735-9.703 6.468-9.688 6.468-28.141 0-18.406-6.468-28.11-6.47-9.687-18.735-9.687-12.25 0-18.718 9.688-6.47 9.703-6.47 28.109 0 18.453 6.47 28.14Q19.53 74.22 31.78 74.22z" id="DejaVuSans-48"/></defs><use xlink:href="#DejaVuSans-48"/></g></g><g id="ytick_2"><g style="fill:#696969" transform="matrix(.16 0 0 -.16 76.96 499.606)" id="text_11"><defs><path d="M19.188 8.297h34.421V0H7.33v8.297q5.609 5.812 15.296 15.594 9.703 9.797 12.188 12.64 4.734 5.313 6.609 9 1.89 3.688 1.89 7.25 0 5.813-4.078 9.469-4.078 3.672-10.625 3.672-4.64 0-9.797-1.61-5.14-1.609-11-4.89v9.969Q13.767 71.78 18.938 73q5.188 1.219 9.485 1.219 11.328 0 18.062-5.672 6.735-5.656 6.735-15.125 0-4.5-1.688-8.531-1.672-4.016-6.125-9.485-1.218-1.422-7.765-8.187-6.532-6.766-18.453-18.922z" id="DejaVuSans-50"/></defs><use xlink:href="#DejaVuSans-50"/><use x="63.623" xlink:href="#DejaVuSans-48"/><use x="127.246" xlink:href="#DejaVuSans-48"/></g></g><g id="ytick_3"><g style="fill:#696969" transform="matrix(.16 0 0 -.16 76.96 439.093)" id="text_12"><defs><path d="M37.797 64.313 12.89 25.39h24.906zm-2.594 8.593H47.61V25.391h10.407v-8.203H47.609V0h-9.812v17.188H4.89v9.515z" id="DejaVuSans-52"/></defs><use xlink:href="#DejaVuSans-52"/><use x="63.623" xlink:href="#DejaVuSans-48"/><use x="127.246" xlink:href="#DejaVuSans-48"/></g></g><g id="ytick_4"><g style="fill:#696969" transform="matrix(.16 0 0 -.16 76.96 378.58)" id="text_13"><defs><path d="M33.016 40.375q-6.641 0-10.532-4.547-3.875-4.531-3.875-12.437 0-7.86 3.875-12.438 3.891-4.562 10.532-4.562 6.64 0 10.515 4.562 3.875 4.578 3.875 12.438 0 7.906-3.875 12.437-3.875 4.547-10.515 4.547zm19.578 30.922v-8.984q-3.719 1.75-7.5 2.671-3.782.938-7.5.938-9.766 0-14.922-6.594-5.14-6.594-5.875-19.922 2.875 4.25 7.219 6.516 4.359 2.266 9.578 2.266 10.984 0 17.36-6.672 6.374-6.657 6.374-18.125 0-11.235-6.64-18.032-6.641-6.78-17.672-6.78-12.657 0-19.344 9.687-6.688 9.703-6.688 28.109 0 17.281 8.204 27.563 8.203 10.28 22.015 10.28 3.719 0 7.5-.734t7.89-2.187z" id="DejaVuSans-54"/></defs><use xlink:href="#DejaVuSans-54"/><use x="63.623" xlink:href="#DejaVuSans-48"/><use x="127.246" xlink:href="#DejaVuSans-48"/></g></g><g id="ytick_5"><g style="fill:#696969" transform="matrix(.16 0 0 -.16 76.96 318.068)" id="text_14"><defs><path d="M31.781 34.625q-7.031 0-11.062-3.766-4.016-3.765-4.016-10.343 0-6.594 4.016-10.36Q24.75 6.391 31.78 6.391q7.032 0 11.078 3.78 4.063 3.798 4.063 10.345 0 6.578-4.031 10.343-4.016 3.766-11.11 3.766zm-9.86 4.188q-6.343 1.562-9.89 5.906Q8.5 49.079 8.5 55.329q0 8.733 6.219 13.812 6.234 5.078 17.062 5.078 10.89 0 17.094-5.078 6.203-5.079 6.203-13.813 0-6.25-3.547-10.61-3.531-4.343-9.828-5.906 7.125-1.656 11.094-6.5 3.984-4.828 3.984-11.796 0-10.61-6.468-16.282-6.47-5.656-18.532-5.656-12.047 0-18.531 5.656-6.469 5.672-6.469 16.282 0 6.968 4 11.797 4.016 4.843 11.14 6.5zM18.314 54.39q0-5.657 3.53-8.828 3.548-3.172 9.938-3.172 6.36 0 9.938 3.172 3.593 3.171 3.593 8.828 0 5.672-3.593 8.843-3.578 3.172-9.938 3.172-6.39 0-9.937-3.172-3.532-3.172-3.532-8.843z" id="DejaVuSans-56"/></defs><use xlink:href="#DejaVuSans-56"/><use x="63.623" xlink:href="#DejaVuSans-48"/><use x="127.246" xlink:href="#DejaVuSans-48"/></g></g><g id="ytick_6"><g style="fill:#696969" transform="matrix(.16 0 0 -.16 66.78 257.555)" id="text_15"><defs><path d="M12.406 8.297h16.11v55.625l-17.532-3.516v8.985l17.438 3.515h9.86V8.296H54.39V0H12.406z" id="DejaVuSans-49"/></defs><use xlink:href="#DejaVuSans-49"/><use x="63.623" xlink:href="#DejaVuSans-48"/><use x="127.246" xlink:href="#DejaVuSans-48"/><use x="190.869" xlink:href="#DejaVuSans-48"/></g></g><g id="ytick_7"><g style="fill:#696969" transform="matrix(.16 0 0 -.16 66.78 197.043)" id="text_16"><use xlink:href="#DejaVuSans-49"/><use x="63.623" xlink:href="#DejaVuSans-50"/><use x="127.246" xlink:href="#DejaVuSans-48"/><use x="190.869" xlink:href="#DejaVuSans-48"/></g></g><g id="ytick_8"><g style="fill:#696969" transform="matrix(.16 0 0 -.16 66.78 136.53)" id="text_17"><use xlink:href="#DejaVuSans-49"/><use x="63.623" xlink:href="#DejaVuSans-52"/><use x="127.246" xlink:href="#DejaVuSans-48"/><use x="190.869" xlink:href="#DejaVuSans-48"/></g></g><g style="fill:#696969" transform="matrix(0 -.2 -.2 0 58.62 379.813)" id="text_18"><defs><path d="M51.125 44H36.922l-4.11-16.313h14.313zm-7.328 27.781-5.078-20.265h14.265L58.11 71.78h7.813L60.89 51.516h15.234V44h-17.14l-4-16.313h15.53V20.22H53.079L48 0h-7.813l5.032 20.219H30.906L25.875 0h-7.86l5.079 20.219H7.719v7.468h17.187L29 44H13.281v7.516h17.625l4.985 20.265z" id="DejaVuSans-35"/><path d="M30.61 48.39q-7.22 0-11.422-5.64-4.204-5.64-4.204-15.453 0-9.813 4.172-15.453 4.188-5.64 11.453-5.64 7.188 0 11.375 5.655 4.203 5.672 4.203 15.438 0 9.719-4.203 15.406-4.187 5.688-11.375 5.688zm0 7.61q11.718 0 18.406-7.625 6.703-7.61 6.703-21.078 0-13.422-6.703-21.078-6.688-7.64-18.407-7.64-11.765 0-18.437 7.64-6.656 7.656-6.656 21.078 0 13.469 6.656 21.078Q18.844 56 30.609 56z" id="DejaVuSans-111"/><path d="M37.11 75.984V68.5h-8.594q-4.828 0-6.72-1.953-1.874-1.953-1.874-7.031v-4.828h14.797v-6.985H19.922V0H10.89v47.703H2.297v6.984h8.594V58.5q0 9.125 4.25 13.297 4.25 4.187 13.468 4.187z" id="DejaVuSans-102"/><path d="M44.281 53.078v-8.5q-3.797 1.953-7.906 2.922-4.094.984-8.5.984-6.688 0-10.031-2.047-3.344-2.046-3.344-6.156 0-3.125 2.39-4.906 2.391-1.781 9.626-3.39l3.078-.688q9.562-2.047 13.593-5.781 4.032-3.735 4.032-10.422 0-7.625-6.032-12.078-6.03-4.438-16.578-4.438-4.39 0-9.156.86Q10.688.296 5.422 2v9.281q4.984-2.594 9.812-3.89 4.829-1.282 9.579-1.282 6.343 0 9.75 2.172 3.421 2.172 3.421 6.125 0 3.656-2.468 5.61-2.453 1.953-10.813 3.765l-3.125.735q-8.344 1.75-12.062 5.39-3.704 3.64-3.704 9.985 0 7.718 5.47 11.906Q16.75 56 26.811 56q4.97 0 9.36-.734 4.406-.72 8.11-2.188z" id="DejaVuSans-115"/><path d="M56.203 29.594v-4.39H14.891q.593-9.282 5.593-14.142 5-4.859 13.938-4.859 5.172 0 10.031 1.266 4.86 1.265 9.656 3.812v-8.5Q49.266.734 44.187-.344 39.11-1.422 33.892-1.422q-13.094 0-20.735 7.61-7.64 7.625-7.64 20.625 0 13.421 7.25 21.296Q20.016 56 32.328 56q11.031 0 17.453-7.11 6.422-7.093 6.422-19.296zm-8.984 2.64q-.094 7.36-4.125 11.75-4.032 4.407-10.672 4.407-7.516 0-12.031-4.25-4.516-4.25-5.203-11.97z" id="DejaVuSans-101"/></defs><use xlink:href="#DejaVuSans-35"/><use x="83.789" xlink:href="#DejaVuSans-32"/><use x="115.576" xlink:href="#DejaVuSans-111"/><use x="176.758" xlink:href="#DejaVuSans-102"/><use x="211.963" xlink:href="#DejaVuSans-32"/><use x="243.75" xlink:href="#DejaVuSans-99"/><use x="298.73" xlink:href="#DejaVuSans-97"/><use x="360.01" xlink:href="#DejaVuSans-115"/><use x="412.109" xlink:href="#DejaVuSans-101"/><use x="473.633" xlink:href="#DejaVuSans-115"/></g></g><g style="fill:#696969" transform="matrix(.24 0 0 -.24 252.577 71.76)" id="text_19"><defs><path d="M9.813 72.906h13.28l32.329-60.984v60.984h9.562V0h-13.28L19.39 60.984V0H9.813z" id="DejaVuSans-78"/><path d="M4.203 54.688h8.985l11.234-42.672 11.172 42.672h10.593l11.235-42.672 11.187 42.672h8.985L63.28 0H52.688L40.922 44.828 29.109 0H18.5z" id="DejaVuSans-119"/><path d="M64.406 67.281v-10.39q-4.984 4.64-10.625 6.922-5.64 2.296-11.984 2.296-12.5 0-19.14-7.64-6.641-7.64-6.641-22.094 0-14.406 6.64-22.047 6.64-7.64 19.14-7.64 6.345 0 11.985 2.296 5.64 2.297 10.625 6.938V5.609Q59.234 2.094 53.437.33q-5.78-1.75-12.218-1.75-16.563 0-26.094 10.124-9.516 10.14-9.516 27.672 0 17.578 9.516 27.703 9.531 10.14 26.094 10.14 6.531 0 12.312-1.734 5.797-1.734 10.875-5.203z" id="DejaVuSans-67"/><path d="M25.39 72.906h8.297L8.297-9.28H0z" id="DejaVuSans-47"/><path d="M9.813 72.906h9.859V42.094L52.39 72.906h12.703L28.906 38.922 67.672 0H54.688L19.672 35.11V0h-9.86z" id="DejaVuSans-75"/><path d="M45.406 46.39v29.594h8.985V0h-8.985v8.203Q42.578 3.328 38.25.953q-4.313-2.375-10.375-2.375-9.906 0-16.14 7.906-6.22 7.922-6.22 20.813 0 12.89 6.22 20.797Q17.968 56 27.874 56q6.063 0 10.375-2.375 4.328-2.36 7.156-7.234zm-30.61-19.093q0-9.906 4.079-15.547 4.078-5.64 11.203-5.64 7.125 0 11.219 5.64 4.11 5.64 4.11 15.547 0 9.906-4.11 15.547-4.094 5.64-11.219 5.64-7.125 0-11.203-5.64-4.078-5.64-4.078-15.547z" id="DejaVuSans-100"/><path d="M9.422 54.688h8.984V0H9.422zm0 21.296h8.984v-11.39H9.422z" id="DejaVuSans-105"/><path d="M31 75.875q-6.531-11.219-9.719-22.219-3.172-10.984-3.172-22.265 0-11.266 3.203-22.328Q24.517-2 31-13.188h-7.813Q15.875-1.704 12.235 9.375q-3.64 11.078-3.64 22.016 0 10.89 3.61 21.922 3.624 11.046 10.983 22.562z" id="DejaVuSans-40"/><path d="M52 44.188q3.375 6.062 8.063 8.937Q64.75 56 71.093 56q8.548 0 13.188-5.984 4.64-5.97 4.64-17V0h-9.03v32.719q0 7.86-2.797 11.656-2.781 3.813-8.485 3.813-6.984 0-11.046-4.641-4.047-4.625-4.047-12.64V0h-9.032v32.719q0 7.906-2.78 11.687-2.782 3.782-8.595 3.782-6.89 0-10.953-4.657-4.047-4.656-4.047-12.625V0H9.08v54.688h9.03v-8.5q3.078 5.03 7.375 7.421Q29.781 56 35.687 56q5.97 0 10.141-3.031Q50 49.953 52 44.187z" id="DejaVuSans-109"/><path d="M8.016 75.875h7.812q7.313-11.516 10.953-22.563 3.64-11.03 3.64-21.921 0-10.938-3.64-22.016-3.64-11.078-10.953-22.563H8.016Q14.5-2 17.703 9.063q3.203 11.063 3.203 22.329 0 11.28-3.203 22.265-3.203 11-9.687 22.219z" id="DejaVuSans-41"/></defs><use xlink:href="#DejaVuSans-78"/><use x="74.805" xlink:href="#DejaVuSans-101"/><use x="136.328" xlink:href="#DejaVuSans-119"/><use x="218.115" xlink:href="#DejaVuSans-32"/><use x="249.902" xlink:href="#DejaVuSans-67"/><use x="319.727" xlink:href="#DejaVuSans-97"/><use x="381.006" xlink:href="#DejaVuSans-115"/><use x="433.105" xlink:href="#DejaVuSans-101"/><use x="494.629" xlink:href="#DejaVuSans-115"/><use x="546.729" xlink:href="#DejaVuSans-47"/><use x="580.42" xlink:href="#DejaVuSans-49"/><use x="644.043" xlink:href="#DejaVuSans-48"/><use x="707.666" xlink:href="#DejaVuSans-48"/><use x="771.289" xlink:href="#DejaVuSans-75"/><use x="836.865" xlink:href="#DejaVuSans-32"/><use x="868.652" xlink:href="#DejaVuSans-49"/><use x="932.275" xlink:href="#DejaVuSans-52"/><use x="995.898" xlink:href="#DejaVuSans-100"/><use x="1059.375" xlink:href="#DejaVuSans-32"/><use x="1091.162" xlink:href="#DejaVuSans-105"/><use x="1118.945" xlink:href="#DejaVuSans-110"/><use x="1182.324" xlink:href="#DejaVuSans-99"/><use x="1237.305" xlink:href="#DejaVuSans-105"/><use x="1265.088" xlink:href="#DejaVuSans-100"/><use x="1328.564" xlink:href="#DejaVuSans-101"/><use x="1390.088" xlink:href="#DejaVuSans-110"/><use x="1453.467" xlink:href="#DejaVuSans-99"/><use x="1508.447" xlink:href="#DejaVuSans-101"/><use x="1569.971" xlink:href="#DejaVuSans-32"/><use x="1601.758" xlink:href="#DejaVuSans-40"/><use x="1640.771" xlink:href="#DejaVuSans-115"/><use x="1692.871" xlink:href="#DejaVuSans-117"/><use x="1756.25" xlink:href="#DejaVuSans-109"/><use x="1853.662" xlink:href="#DejaVuSans-41"/></g><g id="legend_1"><path d="M694.75 184.5H831.2q3.2 0 3.2-3.2V88.96q0-3.2-3.2-3.2H694.75q-3.2 0-3.2 3.2v92.34q0 3.2 3.2 3.2z" style="fill:none;opacity:.8;stroke:#ccc;stroke-linejoin:miter" id="patch_5"/><path d="M697.95 98.718h32" style="fill:none;stroke:#000;stroke-linecap:round;stroke-width:1.5" id="line2d_8"/><g style="fill:#696969" transform="matrix(.16 0 0 -.16 742.75 104.317)" id="text_20"><defs><path d="M8.688 72.906h9.921V28.61q0-11.718 4.235-16.875 4.25-5.14 13.781-5.14 9.469 0 13.719 5.14 4.25 5.157 4.25 16.875v44.297H64.5V27.391q0-14.25-7.063-21.532-7.046-7.28-20.812-7.28-13.828 0-20.89 7.28-7.047 7.282-7.047 21.532z" id="DejaVuSans-85"/><path d="M53.516 70.516V60.89q-5.61 2.687-10.594 4-4.984 1.328-9.625 1.328-8.047 0-12.422-3.125t-4.375-8.89q0-4.845 2.906-7.313 2.907-2.453 11.016-3.97l5.953-1.218q11.031-2.11 16.281-7.406 5.25-5.297 5.25-14.172 0-10.61-7.11-16.078-7.093-5.469-20.812-5.469-5.172 0-11.015 1.172Q13.14.922 6.89 3.219v10.156q6-3.36 11.765-5.078 5.766-1.703 11.328-1.703 8.438 0 13.032 3.312 4.593 3.328 4.593 9.485 0 5.359-3.297 8.39-3.296 3.032-10.812 4.547L27.484 33.5q-11.03 2.188-15.968 6.875-4.922 4.688-4.922 13.047 0 9.672 6.812 15.234 6.813 5.563 18.766 5.563 5.14 0 10.453-.938 5.328-.922 10.89-2.765z" id="DejaVuSans-83"/></defs><use xlink:href="#DejaVuSans-85"/><use x="73.193" xlink:href="#DejaVuSans-83"/></g><path d="M697.95 122.203h32" style="fill:none;stroke:#009e73;stroke-linecap:round;stroke-width:1.5" id="line2d_10"/><g style="fill:#696969" transform="matrix(.16 0 0 -.16 742.75 127.802)" id="text_21"><use xlink:href="#DejaVuSans-78"/><use x="74.805" xlink:href="#DejaVuSans-74"/></g><path d="M697.95 145.688h32" style="fill:none;stroke:#d55e00;stroke-linecap:round;stroke-width:1.5" id="line2d_12"/><g style="fill:#696969" transform="matrix(.16 0 0 -.16 742.75 151.287)" id="text_22"><defs><path d="M19.672 34.813V8.108H35.5q7.953 0 11.781 3.297 3.844 3.297 3.844 10.078 0 6.844-3.844 10.078-3.828 3.25-11.781 3.25zm0 29.984V42.828h14.61q7.218 0 10.75 2.703 3.546 2.719 3.546 8.282 0 5.515-3.547 8.25-3.531 2.734-10.75 2.734zm-9.86 8.11h25.204q11.28 0 17.375-4.688Q58.5 63.53 58.5 54.89q0-6.703-3.125-10.657-3.125-3.953-9.188-4.922 7.282-1.562 11.313-6.53 4.031-4.954 4.031-12.376 0-9.765-6.64-15.093Q48.25 0 35.984 0H9.812z" id="DejaVuSans-66"/><path d="M45.406 27.984q0 9.766-4.031 15.125-4.016 5.375-11.297 5.375-7.219 0-11.25-5.375-4.031-5.359-4.031-15.125 0-9.718 4.031-15.093t11.25-5.375q7.281 0 11.297 5.375 4.031 5.375 4.031 15.093zm8.985-21.203q0-13.953-6.203-20.765Q42-20.797 29.203-20.797q-4.734 0-8.937.703-4.203.703-8.157 2.172v8.735q3.954-2.141 7.813-3.157 3.86-1.031 7.86-1.031 8.843 0 13.234 4.61 4.39 4.609 4.39 13.937v4.453q-2.781-4.844-7.125-7.234Q33.938 0 27.875 0 17.828 0 11.672 7.656q-6.156 7.672-6.156 20.328 0 12.688 6.156 20.344Q17.828 56 27.875 56q6.063 0 10.406-2.39 4.344-2.391 7.125-7.22v8.297h8.985z" id="DejaVuSans-103"/></defs><use xlink:href="#DejaVuSans-66"/><use x="68.604" xlink:href="#DejaVuSans-101"/><use x="130.127" xlink:href="#DejaVuSans-114"/><use x="169.49" xlink:href="#DejaVuSans-103"/><use x="232.967" xlink:href="#DejaVuSans-101"/><use x="294.49" xlink:href="#DejaVuSans-110"/></g><path d="M697.95 169.173h32" style="fill:none;stroke:#0072b2;stroke-linecap:round;stroke-width:1.5" id="line2d_14"/><g style="fill:#696969" transform="matrix(.16 0 0 -.16 742.75 174.773)" id="text_23"><defs><path d="M44.39 34.188q3.172-1.079 6.172-4.594 3-3.516 6.032-9.672L66.609 0H56l-9.313 18.703q-3.624 7.328-7.015 9.719-3.39 2.39-9.25 2.39h-10.75V0h-9.86v72.906h22.266q12.5 0 18.656-5.234 6.157-5.219 6.157-15.766 0-6.89-3.203-11.437-3.204-4.532-9.297-6.282zM19.673 64.797V38.922h12.406q7.125 0 10.766 3.297 3.64 3.297 3.64 9.687 0 6.39-3.64 9.64-3.64 3.25-10.766 3.25z" id="DejaVuSans-82"/><path d="M54.89 33.016V0h-8.984v32.719q0 7.765-3.031 11.61-3.031 3.858-9.078 3.858-7.281 0-11.484-4.64-4.204-4.625-4.204-12.64V0H9.08v75.984h9.03V46.188q3.235 4.937 7.594 7.374Q30.078 56 35.797 56q9.422 0 14.25-5.828 4.844-5.828 4.844-17.156z" id="DejaVuSans-104"/></defs><use xlink:href="#DejaVuSans-82"/><use x="64.982" xlink:href="#DejaVuSans-117"/><use x="128.361" xlink:href="#DejaVuSans-116"/><use x="167.57" xlink:href="#DejaVuSans-104"/><use x="230.949" xlink:href="#DejaVuSans-101"/><use x="292.473" xlink:href="#DejaVuSans-114"/><use x="333.586" xlink:href="#DejaVuSans-102"/><use x="368.791" xlink:href="#DejaVuSans-111"/><use x="429.973" xlink:href="#DejaVuSans-114"/><use x="469.336" xlink:href="#DejaVuSans-100"/></g></g></g></g><defs><clipPath id="pa31c445d15"><path d="M117 77.76h725.4v498.96H117z"/></clipPath></defs></svg>