<svg height="864" viewBox="0 0 936 648" width="1248" xmlns="http://www.w3.org/2000/svg" xmlns:xlink="http://www.w3.org/1999/xlink"><defs><style>*{stroke-linecap:butt;stroke-linejoin:round}</style></defs><g id="figure_1"><path d="M0 648h936V0H0z" style="fill:#fff" id="patch_1"/><g id="axes_1"><path d="M117 576.72h725.4V77.76H117z" style="fill:none" id="patch_2"/><path clip-path="url(#pdc0f5e04fc)" d="m149.973 334.1 35.462-.116 2.264-.154 1.509-.33 1.51-.52 2.263-1.163 3.018-1.824 4.527-2.34 2.263.156 1.51.59.754.408.755.692.754.326 4.527 3.788 2.264.917.754.235.755.11.754-.158.755-.363 1.509-.032.754-.107 6.037.212.754.156 1.51.856.754.28 3.772-.058.755-.144.754.027.755-.21.754.015.755-.153.755-.026 3.018-.6 3.018.046 1.509-.164.754.054.755-.124 1.509.013.754-.255.755-.02 1.509.155.755-.004 1.509-.463.754.153 1.51-.062.754.035 2.263-.444.755-.046 1.509-.65 1.509-1.012 1.509-.772.754-.692.755-.288.754-.487 1.51-.555 1.509-.761.754-.243.755-.039 1.509.175 3.018.723 1.509-.013.754-.202 2.264.174 1.509.575.754.03.755.368 1.51.544 1.508.714.755.247.754.815 1.51 1.105.754.458.754.65.755.276.754.451 1.51.692.754.357.754.558.755.222.754.407.755.228.755-.222 1.509-.09.754-.137.755.093 1.509-.317.754.113 3.018-.258 1.51.256.754.29.754-.124.755.15 3.018-.313 1.51-.509.754-.578.754.062.755-.34.754-.618.755-.13.754-.246 1.51.975.754.055.754.306 1.51.185.754-.086.754-.604.755-.21.754-.726.755-.25.754.164 1.51-.445.754-1.135.755-.512.754-.054 2.264-.869.754.093.755 1.132 1.509.363.754.233.755.09.754-.092.755.202.754-.27.755-.038 1.509-.724.755.012.754-.115.755-.339 1.509-.325 1.509-.544.754-.483.755.154.754-.206.755.294.754-.272.755.254.754.008.755-.365.754-.848.755-.082.754-.91.755-.088.754-.418.755-.253 1.51-.293.754-.44.754-.075.755-.456 1.509-1.65 2.263-1.985.755-1.052.754-1.296.755-.662.754-1.034.755-1.317.754-1.06 1.51-1.315 1.508-.273.755.264.755.602.754 1.113 1.51 1.815 1.508 2.224.755 4.897.754 1.61.755 2.071.754 1.408.755 1.856.754.6.755.34.754-3.51.755-.315.754-1.599.755-1.166.754-.92.755-.743.755-.395.754-3.553.755-1.628.754-.863.755-.656.754-.321.755.885.754-.175.755 3.95.754 2.118.755 2.623 1.509 2.948 1.509 2.804.754 1.996.755 7.7.754-.816.755 1.55.754.342.755-.616.755.924.754-.967.755-2.92.754-3.414 1.51-4.486.754-1.371.754-1.703.755-3.61.754-11.732.755 2.42.754-1.327.755.502.754.172.755 1.074.754 3.025.755 4.141.754 4.807.755 3.394.755 5.716 1.509 5.71.754 3.798.755 7.794.754-.21.755 1.813.754-1.582.755 1.208.754.119.755-.638.754-1.312.755-.602.754-.862.755-2.721 2.263-.943.755-.508.754-.21.755-.537.755 2.484.754-.674 1.51-.34.754.113.754-.534.755.294.754.888.755-.137.754-.416.755-.258 1.509-1.059.754-.692.755-2.049 2.263-3.15.755-1.165.754-.512.755-.742.755-1.35 1.509-1.344.754-.898 1.51-.688.754.086.754-1.298.755.352 1.509.905 1.509.07.754-.085.755 1.335.754-.498 2.264-1.007.755-.423.754-.272.755 1.555.754-.153.755-1.135 3.018-2.11.754-2.062.755-.264.754.49.755-.386 2.263.297.755-.32.754.096.755.61.754.208.755.034.755.219.754-.033.755.8.754-.382.755-.564.754.573.755-.104.754.553.755-.043.754.29 2.264 1.745.754 1.064.755.156 1.509 1.437.754.946.755.4 1.509.151 1.51-.3 2.263-.495.754.094.755-.137.754.297.755-.02.754-.368.755-.086 2.263.13 1.51.023.754.384 1.509-.315 3.018-.201.755-.38 1.509-.22.754-.285 2.264.143.754.493.755-.228 1.509-.027.754 1.315.755-.372.754-.049.755-.677.754.13.755-.356.755.07.754-1.847 1.51-.46.754-.61 1.509.068.754-.18.755-1.618 1.509.04.754.51.755-.358.754.162.755-.239.754 1.49 2.264-.186 1.509-.52.755-2.081.754-.371.755.081.754-.06.755.451.754-.404.755-.565.754.705.755-.488 1.509-.277.754-1.2.755-.5.754-.227.755 2.451.754-.44 1.51-.47.754-1.341 1.509-.59.755-1.746.754-.616.755-.207 1.509-.205.754-1.112.755-.67.754-1.776.755-.878 1.509-.347.754-.745.755-.94.754-.219.755.031.754-.573.755-.126 1.509-.656.755 1.271.754-.697 1.51 1.607 1.508.067.755-1.457.754 2.367.755.708.754.295.755 1.293.754-.663.755.634.754 1.385.755.227.754 1.426.755-.629.754.878.755.07.755.239.754 2.57 1.51-2.274.754 1.279.754.643.755 1.884.754-.213.755 8.113.754-5.213 1.51 2.559.754.443.754-.078.755.25.754-7.486.755 6.12.754 2.088 1.51.33.754-.519.755.072.754-4.886.755 6.318.754-.159.755.846.754.454.755.945.754.033.755 8.552.754-5.09.755.193.754-.156.755.187.754.063.755.34.754-2.117.755-.308 1.509-1.404.754-.543.755-.375.755-.113.754 1.377.755-1.144.754.016.755.185.754.005.755-.138.754-.29.755-.79.754.508.755.671 2.263-.33.755.087.754-1.256.755.356.754-1.055.755-.798.755-.61 1.509-.234 1.509-1.47.754-.395.755-.152.754-.552 1.51-.56.754-.709.754-.089.755-.243.754.878.755-1.397.754-1.153.755.01.754-.122.755-.695.754-.965.755-1.883.755.492.754.883.755-.176.754-.324.755.145.754.335.755 2.353.754 4.082.755 1.77.754.346.755-1.361.754-.348.755-.16.754-2.401.755-4.303.754-2.078.755-.11.754 1.125 1.51-.255.754-2.48.755-3.087 1.509-.725.754 2.007.755.527.754.896 1.51 6.978.754.391.754-.984.755-4.591.754-2.623.755-3.425.754-5.179.755-.037.754.368.755-4.459.754-9.082.755-7.275.755-9.621 1.509-21.378.754-3.066.755-2.348.754-14.496.755-16.705.754-4.502.755-2.135.754-17.023.755-11.643.754 3.42.755-6.736.754 11.864.755 2.671 1.509 16.958.754 4.855.755 2.875.754 46.237.755 3.735.755 9.397.754 11.402.755 21.688.754 14.328.755 6.45.754 3.666.755 21.298 1.509 25.95.754 11.689.755 2.79.754 4.553.755-13.583.754 24.057.755 12.786.754 3.743.755 5.205.754 1.256.755-3.582.754 24.482.755-21.841.755-2.658.754-3.067.755-4.88.754-1.37.755-2.755.754-8.82.755-5.233.754-10.59.755-5.727.754-7.051.755-3.885.754-1.443.755-6.301.754-4.23.755-1.623 1.509-8.794.754-1.5.755-.27.755-7.49.754.022.755-2.27.754-1.855.755-.92.754-.353.755-.228.754-4.09.755.663.754-1.784 3.018-2.6.755 2.554.754-3.626 1.51-1.45.754-1.1.754-.38.755-.145.755-1.616.754.508 1.51-1.29.754-.097.754-.217.755-.001.754-.39.755.557.754-.258.755-.086.754-.255 2.264.161.754-1.081 1.51.295.754-.556 1.509-.224.755-.496.754.07.755-.24.754-.84.755-.185.754.075.755-.219.754-.436.755-.607 2.263-.687.755-.227.754.083 1.51-.467.754-.656.754.288.755-.395.755-.232.754.004.755-.43.754.244.755-.455.754-.697.755.274h.754l.755.18.754-.087.755-.76.754-1.341 1.51-.508.754.336.754-.18.755-.615.754-.996 1.51 1.059.754-.452 1.51-.4.754 1.286.754 1.005.755 1.456 3.018 2.983.754 5.343.755-.368.754-.94 1.51 1.576.754-.681.754-.189.755-4.689.754 1.46.755 2.266.755-.115.754.213 1.51-1.163.754-3.456.754 2.217.755 1.502.754.012.755.884.754 1.95.755.433.754 6.803h0" style="fill:none;stroke:#000;stroke-linecap:round;stroke-width:1.5" id="line2d_1"/><path clip-path="url(#pdc0f5e04fc)" d="m149.973 334.1 34.708-.101 1.509-.135 1.509-.34.754-.429.755-.197.755-.592.754-.789 1.51-2.257.754-.8.754-3.084L196 317.86l.754-3.206.755-1.628.754-3.826.755-.798.754-3.162.755-2.162.754-.804.755.737.754-.752.755 1.579.755 2.727 1.509 7.216.754 1.949.755 4.525.754.45.755 5.203.754.234 1.51 7.573.754 1.337.754-.622.755 2.747.754-2.583.755.597.754.284.755-1.485.754.977.755.719.754 2.607.755.364.755 3.471.754-1.058.755.27.754.957.755 1.992.754-.45.755 3.4.754.686.755-.32 1.509 3.545.754-1.774.755.875.754-.842.755-1.62.754 1.354 1.51-.912.754-1.308.754-.742.755-2.397.755-.817.754-1.091.755-.139.754-1.976.755.935.754-1.747.755.06.754-1.02.755-.571.754-1.179.755.016.754 1.08.755.316.754 1.298.755.933.754.384.755-.845.754.53.755-.895.755.037.754-.783.755.151.754.343.755.706.754-.311.755-.505 1.509-.196.754-.94.755-.377.754-.148.755-.854.754-.272.755-.462.754.208.755-2.492.754-.652 1.51-.09.754.103.755-.074.754-.537.755 2.372.754.061 1.51-.19.754-.096.754.176.755-.156.754 2.786.755.039.754-.127.755.044.754-.282 1.51-.122.754-2.454.754.437.755.1.754.613.755.233 1.51.025.754-.31.754-.623.755-.3.754-.807.755-.363.754-.091 1.51.11.754-.77.754.108.755-.266.754.202 1.51.09.754-.216.754 1.053.755.358.755.732.754.393.755.145.754-.033.755-.456 2.263.164.755-.341 1.509.036.754 1.036.755-.072.754-.36.755-.16 1.509.283.754.281 1.51.31.754.128.755-.676 1.509-.301.754-.288.755-.895.754-.53.755.393.754.164.755-.1.754.035.755-.149.754.23.755.061.754-.434 1.51.399.754-.187.754.015.755-.105.754.111.755-.051 1.51-.301 1.508-.057.755.072.754-.051.755-.236.754-.37.755-.235.754.185.755-.342.754.136 1.51-.52.754.326.754.151.755-.26.754.309.755-.983.755-.092.754.531.755.171.754.299.755-.47.754-.185.755.538.754.352.755.181.754-.85.755-1.1.754.246.755-.413.754.703.755-.157.754-1.51.755.387.754-.094.755-.428.754-.3.755-1.02.755-1.407.754.879.755-.128.754.814.755-.252.754-.973.755-.316.754.072.755-1.233.754-.594.755-.95.754-1.847.755.026.754-1.63.755-.435 1.509-5.148 1.509-.116 1.509-.705.755-.063.754 2.174.755 1.198.754-.959.755 2.432.754.88.755 1.768.754 1.095.755 2.88.754 3.787.755.787.754-.117.755 1.063.754.528 1.51-3.631.754-3.94.754 1.411.755-.886.755-.221.754-.052.755 3.542.754-2.544.755 2.493.754-2.32.755 2.627.754-1.419 1.51 3.578.754 5.095.754 1.67.755 2.854.754.332.755 1.501.754-.174.755-4.533 1.509 2.978.754 2.371.755-.804.755 1.896.754-1.794.755-.278.754-5.081.755-.47.754-71.312 2.264-8.461.754-.508.755-2.986.754-6.893.755 64.68.754 1.045.755-3.02.754 1.11.755 1.566.754 4.173.755 2.654.755 71.107.754 3.662.755 5.099.754 6.317.755 5.258.754 1.072.755 2.625.754-65.704.755-2.607.754 3.789.755-.122.754-3.484 1.51 1.336.754-1.222.754 2.379.755.085.754-.837.755-.581.754 2.73.755.131.755 1.775.754-.397.755-3.835.754-.955.755 3.256.754-1.6.755 1.685.754.696.755-2.4.754-3.194 1.51-3.066 1.508.422.755-3.158.754 1.288.755 4.352.754.097.755-1.882.754-2.869.755-3.6.755-2.217.754-.107.755-1.19.754.003 1.51-1.4.754-.381.754 2.988.755-1.872.754-1.534.755-.46.754.435.755 1.587.754-.615.755-.11.754.77.755.052.754-1.484.755-.495.755-2.076.754.288.755-1.661.754-.355.755.428.754 1.64.755-.984.754.554.755-.68.754.063.755-.683.754 1.377.755-1.436 1.509 3.58.754.902.755 1.597.754 3.207.755-1.126.754 1.067.755 2.202.755.86.754 2.399.755 1.177.754-.245.755.357.754 2.965.755-1.795 1.509-1.442.754-.709.755-.065.754.943.755-.84.754 1.729.755.418.754 1.485.755 15.458.754 1.366 1.51 1.795.754 1.663.755 2.164.754.368.755-14.67.754.007.755-.722.754.204.755-.937.754-.286.755-.85.754-14.78.755-.387.754.969.755-.002.754-.475.755-1.698.754-.608.755 13.973.754-1.718.755.656.755-1.376.754-1.739.755-.957.754-1.272.755-.835.754-.266.755-2.846.754-1.167.755-.368.754.17.755-.022.754.144.755.45.754.114 1.51.782.754-.53.754.099 1.51-.785.754.057.755-.325.754-.524 2.264.007 1.509-.722 1.509.037.754.206 1.51.181.754.079.754-.106.755.039 2.263-.354 1.51.112.754.246.755-.072 1.509.053 4.527-.27 1.509-.368.754-.175 1.51-.53 1.508-.435.755-.406 1.509-.487.755-.52 3.018-1.356.754.004.755-.114.754.104 2.264-.71.754-.118 1.51-.638.754-.32.754.075.755-.127.754.268 1.51-.168.754.322 1.51-.552.754-.081.754-.411.755-1.005.754.324.755-.123 1.509.882.754.316.755-1.24.754 1.088.755.093.754-.48.755.399.754.028.755.508.754 1.208.755 1.782.755-.421.754.797.755-.112.754-.256.755-.456.754 2.787.755-1.028.754.445.755-.175.754 2.583.755-1.112.754.52.755-1.823.754-.67 1.51.794.754-2.016.754 1.988.755-.371.754-.81.755.265.755-.283.754.521.755-2.713.754 1.626.755.533.754 1.523.755.906.754 1.33.755.083.754 2.798.755-1.24.754.96.755.39.754.61.755-.402.754-.013.755.524.754.315.755-.633 1.509-.88.755-1.11.754-.245 1.51-.74.754.716.754-.11.755.11.754 1.257.755.391.754.234.755.706 1.509-.312.754.292.755.126.754-.668 1.51-.756.754-1.319.755-.122.754-.665.755-1.377.754-.093.755-.208.754-.926 1.51.763.754-.692 1.509.464.754-.02.755-.224.754.254.755-1.193.754-.207.755-.495 1.509-1.663.754-.43.755-1.585 1.509-1.037 1.51-.485.754-.93.754.114.755-.085 2.263 2.117.755-.269.754-.48.755-.955.754-1.371 2.264-7.834.754-.81.755.289 1.509-2.265.755-1.562.754-.558.755-.113.754.582.755.234.754.356.755.007.754.55.755-.891.754-2.677 1.51-9.227.754-8.343 1.509-28.95.754-16.631.755-9.23.754-3.349.755-8.98 2.264-60.12 1.509-26.615.754-11.694.755-14.674.754-5.558.755 19.707.754 9.713.755 16.45.754 6.78.755 1.89.754 15.618 3.018 161.4 1.51 73.275.754 40.906.755 33.067.754 12.396.755 22.778 1.509 23.625.754 7.915.755 1.705.754-14.588.755-4.626 1.509-36.934.754-8.634 2.264-46.302.754-12.533.755-5.894 1.509-16.288.754-4.709.755-5.5.755-3.03.754-6.61.755-1.884.754-3.535.755-9.068.754-3.862.755-2.77.754-4.707.755-3.375.754-9.737.755-2.6 1.509-1.678.754-1.677.755-.48.754.392.755.62.754-1.267.755-.762.755-.144.754-.35.755-.14.754.03.755-.392.754-.744.755 1.234.754-.815.755-.64.754-1.23.755-1.559.754-.979.755.405.754-.118.755.83.754.54.755-.65.754-.25 1.51-.922.754-.758.755.137 1.509-.054.754-.381.755.22 2.263-2.305.755-.875.754.79.755-.447.754-.082.755-.416.754-.243.755-.063.754-.675.755-1.388.754-.39.755-1.21.754-.137.755-.52 2.264-.98.754-.861.755 1.118.754-.19.755-.539.754.413.755 1.096 1.509 1.562.754-1.133.755-.074.754 1.962.755-.013 1.509-1.381.754.368.755-1.153.755-.004.754-.224.755-2.602.754-.118.755-.488.754-1.587.755.377.754-.776.755-2.276.754 1.705.755-1.202.754-.974.755-2.09.754-2.65.755-.658.754-.076.755.74.754-.44.755.184 1.509 3.907.755.9.754 1.513.755-.728.754.35.755 2.544.754 3.356.755 4.51.754 3.392.755.113.754 2.46.755 5.602.754 2.107.755.804.754.116.755-.263.754 2.1.755-.506.754.34.755-.301.755.67.754.205.755-.173.754 1.932.755 1.256.754-4.475.755-1.207 1.509-.608.754 1.37.755-2.38.754-.673h0" style="fill:none;stroke:#009e73;stroke-linecap:round;stroke-width:1.5" id="line2d_2"/><path clip-path="url(#pdc0f5e04fc)" d="m149.973 334.1 31.69-.095 2.263-.095.755-.19h.754l2.264-1.265.754-2.19.755-.543.755-.082.754-1.264.755-1.659 1.509-1.808 1.509-6.43.754-4.066.755-3.209.754-1.808.755-4.269.754-5.738.755-.76.754-5.806.755-7.546.754-.027.755-3.25.754-2.379 1.51 9.136.754 5.928.755 10.51.754 3.277.755 7.178.754 9.137.755 5.248.754 1.713.755 8.144.754 9.449.755.571.754 4.052.755 3.167.754-2.066.755.843.754-.571.755-7.274.754 3.317 1.51-3.711.754 2.936.755 3.957.754-.503.755 1.319.754.951.755 1.441.754-.271.755.584.754-1.672.755-.272.754 1.686.755-2.216.754-3.195.755-1.129.754-1.822.755-.543.754-1.482.755-2.543.754-.081.755-.558.754.422.755-.98.755-2.854.754-1.02.755-.177.754-1.455.755.041.754-1.55.755-.884.754-3.113.755.272.754-.231 1.51 1.78.754.422.754-.625.755 3.236.754-.476.755-1.047.754.843 2.264.15.755.68.754.353 1.51-1.74.754-.966.754-.666.755.68.754-.98.755-.054.754 1.007.755-.571.754-.014.755.34.754.68.755-3.97.754-1.496.755.693.754-.978 1.51.163.754-.83.755 3.74.754.448.755-.707.754.231.755-.163.754.081.755-.448.754 3.929.755 1.101.754-.108.755 1.414.754.054.755.285.754.463.755-3.794.754.014.755.354.754.095 1.51-.735 1.509.272.754-.204.755-.367.754-.979.755-.135 1.509-1.197.754-.19.755-.966.754.014.755-.218.754.775.755.082.754.571.755.027.754.653.755-.245.755.231h.754l.755.83.754-.082.755-.326.754-.843.755-.177.754-.53.755-1.006 1.509.34.754 1.305 1.51 1.7.754 1.1.754.762 1.51-.925.754-.72.754 1.278.755-.095.755.068.754.462.755-.476.754-.258 1.51-2.815.754.204.754-.829.755-.557.754.734.755.49.754 1.019.755-.055.754.068.755.395.754.217.755.626 1.509-.476.754.095.755-.802.755.054.754-.204.755-1.183.754.123.755.245 1.509.122.754-.3 2.264-.203.754-.082.755-.353 2.263-.34.755.421.754-.285.755-.585.755-.313 1.509-.203.754-.055.755-.938.754-.109 1.51.612.754.449.754-.462.755-.707.754.285.755-.53 1.509.23.754-.842.755.054 1.509-.054.754.612.755-.136.755-1.618.754.163.755-.109.754.395.755-.408.754-.898.755.463.754.122.755-1.659.754-.408.755.395.754-1.074.755-1.754.754-3.698.755-.245.754-.965.755-2.053.754-.272.755-.843.754.176.755-.897.755.204.754 1.972.755.652.754-3.032 1.51 5.058.754 4.473.754-.925.755 3.889.754 1.305.755 2.121.754-.408.755.558.754-.68.755-1.06.754-3.345.755-.558.754 2.203 1.51.802.754.68.755 7.287.754-3.399.755 3.685.754-2.284.755 2.148.754-1.115.755 1.917.754-.557.755 6.512.754.585.755 2.596.754-1.1 1.51-4.447.754-5.085.754.966.755-.435.754.788.755-.177.755 2.679.754-1.808.755 1.02.754-4.256.755-1.02.754-61.358.755-4.365.754-2.23.755-.435.754-2.202.755-2.828.754-5.071.755 57.891.754 3.508.755-2.447.754-.15.755 1.754.754 2.474.755 1.7.755 60.584.754 2.542 2.264 15.88.754.53.755 3.114.754-58.721.755-3.494.754 2.91.755 1.141.754-2.814.755 1.237.754.19.755-1.332.754 3.93.755 1.305.754-1.836.755-3.562.754 2.134.755-.135.755 2.216.754-.544.755-4.256.754.218.755 3.222.754-1.006 1.51 3.127.754-4.731.754-2.624.755-1.006.754 1.481.755.354.754.53.755-4.282.754 1.468.755 3.059.754-1.727.755-4.65.754-1.985.755-2.624.755-3.399.754 2.774.755-2.706.754.925.755-.177.754 2.012.755-1.522.754 6.172.755-2.841.754 1.373.755-.095.754 3.113.755-1.319.754-.435.755 1.006.754.367.755.504.754-.911.755-2.04.755-4.677.754 1.441.755-3.657.754 1.074.755-.68.754 3.114.755-2.896.754 1.808.755-1.659.754.789.755-.843.754-.435.755-2.733.754 4.174.755 2.502.754 1.971.755.83.754 2.923.755-.041.754.204.755 4.446.755 2.474.754 2.991.755 1.373.754.68.755 3.753.754 2.923.755-2.978.754-.72.755-.952.754.558.755-1.292.754.068.755-.884.754.503.755-.57.754.393.755 1.06.754.477.755-.3.754.409.755 1.074.755 1.971.754-.34.755-2.094.754.164.755-15.717.754-3.127.755-1.143 1.509-1.468.754-1.645.755-.286.754 14.603.755 3.82.754-.884.755-2.026.754-.815.755 1.047.754-1.007.755 15.677.755 2.637.754-1.033.755.258.754.041.755-.517.754-.72.755-16.438.754-4.962.755.367 3.018.625.754-.285 1.51-.041.754-1.142.754-.408.755-.177.754.136 1.51-.122.754-.585.755.163 1.509-.503.754-.68.755-.353.754-.177.755.041.754.38 1.51.395.754.122 1.509-.312.754.095.755-.435 1.509-.04.754.19 2.264-.041.755-.068.754.122.755-.095.754.204 1.51.856.754.055.754.176.755-.271.754-.028 3.018-1.4.755-.408 1.509-.503 1.509-.707.755-.598.754-.762.755-.516.754-.095.755-.503.754-.041 1.51-.544.754.217.754.014.755-.53.754.04.755-.584.754.027.755.544.754.354 1.51 1.169.754.884.755-.408.754-.041.755-.503.754.095.755-1.101.754 1.658.755-.272.754.53.755-.326.754.64.755-1.523.754.516.755-1.971.754-.775.755 1.387.754.394.755.571.754.857.755 1.114.755-1.427.754.517.755-.028.754.68.755-.802.754 3.045.755-.489.754 1.999.755-.014.754 1.292.755-1.088.754.285.755-2.161 1.509.49.754.625.755-2.094.754 1.033h.755l.754-.49.755-.054.755-.408.754.286.755-.952.754 1.047.755.326.754.626 1.51.748.754-.735.754 2.325.755-1.047 1.509.19.754.218.755.911.754.53.755-.856 1.509 1.101.754 1.333.755.081.755-.734.754.653 1.51.027.754.34.754-.694.755-.516.754.19.755-.653.754.857.755.625.754-.027.755-.83.754.721.755.395 1.509-2.203.754-.625.755-1.034 1.509-.299.755-1.033.754.83.755-.137.754-1.06h.755l.754.707.755-.897.754.108.755.435 1.509 1.469.754.272.755-.177.754.04 1.51-2.175.754-1.631 1.509-2.529 1.509-2.474 1.51-.096.754-.557 1.509.109.754.394.755.639.754 1.237.755-.109.754.245.755-.095.754-.843 3.018-4.46.755-.611.754-1.142 1.51-3.209.754-1.02.755-1.522.754.367.755 1.006.754-1.713.755-.952.754-1.944 1.51-8.226.754-2.977.754-5.969.755-10.197.754-14.561 1.51-38.803.754-9.096.754-7.573.755-13.99.755-23.453.754-28.32.755-14.045.754-10.836.755-3.711.754-8.185.755-11.951.754 2.978.755 29.666.754 14.235.755 22.148.754 5.343.755 1.74.754 23.82 2.264 131.106.754 41.196.755 23.983 2.264 96.205.754-2.923.755 20.244.754 9.667 1.51 25.533.754.136.754-12.998.755-1.142.754-16.138.755-19.905.754-4.092 1.51-32.263.754-15.16.754-8.85 2.264-22.23.754-4.759.755-7.124.755-3.752.754-13.556.755-5.873.754-3.209.755-9.98.754-4.445.755-1.237.754-3.087.755 1.007.754-7.356.755-3.67.754.448.755-1.74.754-2.121.755-1.115.754 1.25.755.952.754-1.754.755-.489.755 1.224.754-.571 1.51-3.998.754-.081.754.204.755 1.047 1.509-2.543.754-.666.755-.992.754-.612.755 2.04.754-2 .755.558.754 1.088.755-1.21.754-.45.755-1.046.754-2.42.755.666.755.204.754-.707.755 1.51.754.774.755-.04.754-1.455.755.72.754-1.237.755-1.006.754 2.46.755-.665.754.91.755.585.754-1.4.755-.245.754-.49.755-4.255.754-1.496.755-1.808.754.327 2.264-1.32 1.51-.094.754 4.418.754-4.446.755.204.754.707.755.925.754 2.243.755 1.618.754-4.976.755 2.529.754 1.196.755 2.026.754.231.755-.775.754-1.142.755-4.323.755 5.22.754-1.182.755-4.188.754-.109.755-2.053.754-1.577.755 4.446.754-5.044.755-2.162.754.041.755-3.045.754-1.36.755-.163.754-4.025.755-.49.754.925.755 1.85.754 2.474 1.51 3.562.754 4.473 1.51 6.363.754.04.754-.611.755 3.93.754 2.46.755 5.82.754 3.303.755-.503.754 2.434.755 5.288.754 3.78.755-1.128 1.509-3.549.754 1.265.755-.721.754 1.659.755-2.08.755 3.371.754.15.755-1.346.754 1.237.755 2.298.754-6.146.755-3.643.754.897.755-1.332.754 2.624.755-1.89.754-1.577h0" style="fill:none;stroke:#d55e00;stroke-linecap:round;stroke-width:1.5" id="line2d_3"/><path clip-path="url(#pdc0f5e04fc)" d="M149.973 334.1h37.726l.754-1.385h1.51l.754-.692h.755l1.509-4.155.754-2.77.755-.693.754-2.077.755-.692 1.509-6.925.754-2.77.755 4.155.754-3.462.755-9.002.754-5.54.755 1.385.754 4.155.755 4.847.755-2.77h.754l.755 11.772.754 8.31.755 1.384.754 4.155.755 2.077.754.693.755 4.847.754 8.31.755 6.232.754-.693.755-1.384.754-3.463.755 5.54.754-.693.755-9.002.754-7.617.755 2.078.754 1.385.755 2.77.755-2.078.754 1.385h1.51l.754 2.77.754-.693 1.51 4.155.754 2.77.754 1.385h.755l.754-2.77.755-4.847.754-2.77.755-2.077.754-2.77.755.692h.754l.755-.692.754 2.077.755-.692.755-1.385.754-.693.755-2.077h.754l1.51 5.54 1.508 1.385.755-1.385h1.509l.754-4.848.755-2.077 1.509-1.385.754.693h1.51l.754 2.077h.755l.754-.693h.755l.754.693h1.51l.754 2.077h.754l.755.693h.754l.755-.693h1.509l.754-3.462.755.692h.754l.755-.692h2.263l.755-1.385h.755l.754-.692.755.692h3.018l.754-1.385.755 1.385h.754l.755-.692h1.509l.754 4.154h2.264l.754.693h1.51l.754 2.77.755-.693.754-1.385h.755l.754 1.385h1.51l.754-3.462.754 2.077.755.693.754-.693.755-1.385h1.509l.754-1.385.755 1.385h.754l.755 1.385h2.264l.754 1.385.755-2.077.754-.693h.755l.754-.692h1.51l.754-.693h.754l.755 1.385.754-1.385h3.018l.755-1.384.754-.693h.755l.754 1.385h2.264l.755 1.385.754-2.77.755 1.385h3.018l.754-.692.755 3.462h.754l.755-.693h2.263l1.51 1.385.754-1.385h2.264l.754-2.077.755 2.077.754-2.077.755.692h2.263l.755 2.77.754-2.077.755 2.077.754.693h3.018l.755-.693.754-4.154.755-6.925.755-1.385h1.509l.754-2.077.755-3.463.754 2.078.755 2.77 2.263-6.233.755 1.385.754 4.848.755 1.384.754 9.695.755 4.847 1.509 4.155.754-2.77.755.693.754-3.463.755-6.232.755-1.385 1.509 4.155.754-4.155.755-2.077.754.692.755-2.077.754-3.462 2.264-6.233.754.693.755 5.54.754-6.233.755 2.078h1.509l.754 6.232 1.51-14.542.754 4.847.755-4.847.754-3.462h.755l.754 6.232.755 4.847.754-.692.755 15.234.754 11.08.755-10.388h.754l.755-2.077.754 6.232.755 4.848.754-17.312.755-11.772.754 9.695h.755l.754.692.755-6.232h.755l.754-6.925.755.693.754 18.004h.755l.754-2.078.755 1.385.754 2.078.755 23.543.754 11.08.755-6.232h.754l.755-11.08.754 4.847.755-18.004.754-2.077.755 1.385.754-7.617h1.51l.754-.693.755 6.925.754-16.62.755 5.54h1.509l.754 6.925.755-10.387.754 17.312.755.692.754-20.081.755-6.925h.754l.755 9.695.754 3.462.755-6.232.754 7.617.755 1.385.754 6.925h.755l.755 17.311.754 2.078h.755l.754 6.924.755 13.157.754 6.925h.755l.754-29.084.755 6.925.754 3.462.755-4.847 1.509-20.774h.754l.755 6.232.754 9.695.755-17.312.754-5.54.755 1.385.754 3.463h.755l.755 10.387.754-16.62.755 11.772.754 2.77.755 10.387.754-1.385h.755l.754-10.387.755-7.617.754 13.85.755 3.462.754-6.232.755 1.384.754-4.847.755 8.31.754 10.387.755-13.85.754-8.31.755-4.154 1.509 9.695.755-19.39.754 2.078.755-1.385.754 4.847.755-3.462.754-4.847 1.51 9.002.754-1.385.754-2.078.755-.692.754 9.002h.755l.754-4.847.755 2.077.754.693.755 1.385.754.692.755 3.462h1.509l.755-2.077.754-3.462.755 2.077.754 4.155.755-7.617h.754l.755-6.232.754 15.234.755.692.754 2.77.755-14.542.754-1.385h.755l.754 6.233.755-3.463.754-.692 1.51 6.232v2.77l.754 4.155.755-.693.754 6.232.755-4.154.754 3.462.755-4.155.754 4.847.755 1.385.754-2.77.755-6.232.754 9.002.755 2.77.754-7.617.755 4.155.754-2.77.755 4.155h.754l.755-6.925.754-3.462.755 3.462.754 4.155.755-2.77.755 2.077h.754l.755-2.077 1.509-2.77.754-2.077.755 4.847.754-2.77h.755l.754.693.755 2.077.754 1.385.755-.693.754 4.155.755.693h1.509l.754-1.385.755 2.77.755-2.078.754-4.847.755-.692h.754l.755 1.384.754-.692.755-4.155.754-2.077.755-1.385h1.509l.754-2.77h.755l.754-.692.755 2.077h3.018l.754-2.077 1.51 1.384h3.018l.754 2.078.755.692.754-1.385h3.018l.755 2.078h1.509l.754-2.77h2.264l.754-2.077 1.51-1.385.754 2.77h4.527l.755 2.077h3.018l.754-.693h.755l.754-2.077h3.019l.754.692h.755l.754-3.462h1.51l.754-14.542.754-1.385h.755l.754-2.77h2.264l.754 9.695 1.51-1.385.754 3.463.754 6.924h1.51l.754 12.465.755 1.384.754-2.77.755.693.754-1.385h1.51l.754-9.694.754 1.385.755 3.462.754-2.078.755-1.384h1.509l.754 7.617.755-1.385.754 2.77.755 2.077.754.692h1.51l.754-3.462.755-2.77.754-6.924.755.692.754-4.847h1.51l.754-.693.754-2.077.755 1.385.754 2.077h2.264l.754-2.77.755 8.31.754 4.847.755-7.617.754 4.155h1.51l.754-7.617.755 4.847.754-1.385 1.51 1.385h1.508l.755 12.464.754-7.617.755-.692.754 6.232.755-1.385h1.509l.754 2.77 1.51-1.385.754.693.754-5.54h1.51l.754-3.463.755-1.384.754 2.077.755-2.077.754 6.924h1.51l.754-5.54.754 1.385.755 2.078.754-4.155.755 4.847h1.509l.754 1.385.755 4.155.754-2.077.755 2.77.755-5.54h1.509l.754 1.385.755-4.155.754-.693.755 2.77.754-.692h1.51l.754-2.078h.754l.755-6.924.754-1.385.755-4.155h1.509l.754 3.462.755.693.754 4.847.755-3.462.755 3.462h1.509l.754-8.31.755-2.077.754 2.77.755 2.077.754 5.54h1.51l.754-2.77h.754l.755-1.385.754-3.462.755-9.002h1.509l.754 11.08.755-1.386 1.509-6.924.755-2.77h1.509l.754.692.755-.692.754-6.925.755-3.462.754 8.31.755-28.391.754-8.31.755-4.847.754-8.31.755-11.08.754-5.539.755-10.387.754 26.314.755 4.154h.754l.755-12.464.755-3.462.754 2.077.755-22.851.754-6.925.755-31.853.754-18.697.755 22.16.754 12.464.755-14.542.754 9.002.755-36.7.754 4.847.755 18.004.754 11.079.755 16.62.754 25.62.755 40.163 1.509 132.26.754 15.928.755 4.847.755 26.313.754 44.318.755 11.772.754 9.002.755-1.385.754 3.462.755 6.233h.754l.755-22.16.754-9.694.755-26.313.754-22.16.755 1.386.754-13.85.755-22.158 1.509-22.852.754 6.925.755-9.002.754-18.004.755-2.77.755-6.925.754 2.078.755-9.002.754-5.54.755 2.077.754 4.155.755-.692h.754l.755-12.465.754.693.755-6.232.754 1.385.755-2.078h.754l.755-6.232.754 3.462.755.693.754-2.078.755-2.77.755-1.384.754-2.078.755 6.232h.754l.755 1.385.754 4.155.755-1.385 1.509 1.385.754-4.155.755-1.385h.754l.755-1.385.754.693.755-.693.754-5.54.755 1.386.754-.693.755-2.77.754-1.385.755 1.385.755.693.754 5.54.755 9.694.754 2.077.755-6.924.754 2.077.755-1.385.754-.692.755 5.54.754-6.233.755 1.385.754-15.926.755-2.078h1.509l.754-6.232.755-2.077.754-2.77.755 5.54h3.773l.754-20.775.755 45.703h3.772l.755 20.774.754-31.853h3.773l.754 20.774.755-29.776h3.773l.754-20.774.755 29.083H780l.754-23.544h4.527l.755 21.467h4.527l.755 15.234h4.527l.754-10.387h4.528l.754 35.316h4.527l.755-9.695h0" style="fill:none;stroke:#0072b2;stroke-linecap:round;stroke-width:1.5" id="line2d_4"/><path clip-path="url(#pdc0f5e04fc)" d="M117 334.1h725.4" style="fill:none;stroke:red;stroke-dasharray:1.5,2.475;stroke-dashoffset:0;stroke-width:1.5" id="line2d_5"/><path d="M117 576.72V77.76" style="fill:none;stroke:#d3d3d3;stroke-linecap:square;stroke-linejoin:miter;stroke-width:1.25" id="patch_3"/><path d="M117 576.72h725.4" style="fill:none;stroke:#d3d3d3;stroke-linecap:square;stroke-linejoin:miter;stroke-width:1.25" id="patch_4"/><g id="matplotlib.axis_1"><g id="xtick_1"><g style="fill:#696969" transform="matrix(.16 0 0 -.16 117.268 598.378)" id="text_1"><defs><path d="M9.813 72.906h9.859V5.078q0-13.187-5-19.14-5-5.954-16.094-5.954h-3.75v8.297h3.078q6.531 0 9.219 3.672Q9.813-4.39 9.813 5.078z" id="DejaVuSans-74"/><path d="M34.281 27.484q-10.89 0-15.093-2.484-4.204-2.484-4.204-8.5 0-4.781 3.157-7.594 3.156-2.797 8.562-2.797 7.485 0 12 5.297 4.516 5.297 4.516 14.078v2zm17.922 3.72V0H43.22v8.297Q40.14 3.328 35.547.953q-4.594-2.375-11.234-2.375-8.391 0-13.36 4.719Q6 8.016 6 15.922q0 9.219 6.172 13.906 6.187 4.688 18.437 4.688h12.61v.89q0 6.203-4.078 9.594-4.078 3.39-11.453 3.39-4.688 0-9.141-1.124-4.438-1.125-8.531-3.375v8.312q4.921 1.906 9.562 2.844 4.64.953 9.031.953 11.875 0 17.735-6.156 5.86-6.14 5.86-18.64z" id="DejaVuSans-97"/><path d="M54.89 33.016V0h-8.984v32.719q0 7.765-3.031 11.61-3.031 3.858-9.078 3.858-7.281 0-11.484-4.64-4.204-4.625-4.204-12.64V0H9.08v54.688h9.03v-8.5q3.235 4.937 7.594 7.374Q30.078 56 35.797 56q9.422 0 14.25-5.828 4.844-5.828 4.844-17.156z" id="DejaVuSans-110"/></defs><use xlink:href="#DejaVuSans-74"/><use x="29.492" xlink:href="#DejaVuSans-97"/><use x="90.771" xlink:href="#DejaVuSans-110"/></g></g><g id="xtick_2"><g style="fill:#696969" transform="matrix(.16 0 0 -.16 184.422 598.378)" id="text_2"><defs><path d="M34.188 63.188 20.797 26.906h26.812zm-5.579 9.718h11.188L67.578 0h-10.25l-6.64 18.703h-32.86L11.188 0H.78z" id="DejaVuSans-65"/><path d="M18.11 8.203v-29H9.077v75.484h9.031v-8.296q2.844 4.875 7.157 7.234Q29.594 56 35.594 56q9.968 0 16.187-7.906 6.235-7.907 6.235-20.797T51.78 6.484q-6.218-7.906-16.187-7.906-6 0-10.328 2.375-4.313 2.375-7.157 7.25zm30.578 19.094q0 9.906-4.079 15.547-4.078 5.64-11.203 5.64-7.14 0-11.218-5.64-4.079-5.64-4.079-15.547 0-9.906 4.078-15.547 4.079-5.64 11.22-5.64 7.124 0 11.202 5.64t4.078 15.547z" id="DejaVuSans-112"/><path d="M41.11 46.297q-1.516.875-3.297 1.281Q36.03 48 33.89 48q-7.625 0-11.703-4.953-4.079-4.953-4.079-14.234V0H9.08v54.688h9.03v-8.5q2.844 4.984 7.375 7.39Q30.031 56 36.531 56q.922 0 2.047-.125 1.125-.11 2.484-.36z" id="DejaVuSans-114"/></defs><use xlink:href="#DejaVuSans-65"/><use x="68.408" xlink:href="#DejaVuSans-112"/><use x="131.885" xlink:href="#DejaVuSans-114"/></g></g><g id="xtick_3"><g style="fill:#696969" transform="matrix(.16 0 0 -.16 257.272 598.378)" id="text_3"><defs><path d="M8.5 21.578v33.11h8.984V21.922q0-7.766 3.016-11.656 3.031-3.875 9.094-3.875 7.265 0 11.484 4.64 4.234 4.64 4.234 12.656v31h8.985V0h-8.984v8.406Q42.047 3.422 37.718 1q-4.313-2.422-10.032-2.422-9.421 0-14.312 5.86Q8.5 10.296 8.5 21.578zM31.11 56z" id="DejaVuSans-117"/><path d="M9.422 75.984h8.984V0H9.422z" id="DejaVuSans-108"/></defs><use xlink:href="#DejaVuSans-74"/><use x="29.492" xlink:href="#DejaVuSans-117"/><use x="92.871" xlink:href="#DejaVuSans-108"/></g></g><g id="xtick_4"><g style="fill:#696969" transform="matrix(.16 0 0 -.16 322.508 598.378)" id="text_4"><defs><path d="M39.406 66.219q-10.75 0-17.078-8.016-6.312-8-6.312-21.828 0-13.766 6.312-21.781 6.328-8 17.078-8 10.735 0 17.016 8 6.281 8.015 6.281 21.781 0 13.828-6.281 21.828-6.281 8.016-17.016 8.016zm0 8q15.328 0 24.5-10.281 9.188-10.282 9.188-27.563 0-17.234-9.188-27.516-9.172-10.28-24.5-10.28-15.375 0-24.593 10.25-9.204 10.265-9.204 27.546t9.204 27.563q9.218 10.28 24.593 10.28z" id="DejaVuSans-79"/><path d="M48.781 52.594v-8.407q-3.812 2.11-7.64 3.157-3.828 1.047-7.735 1.047-8.75 0-13.593-5.547-4.829-5.532-4.829-15.547 0-10.016 4.829-15.563 4.843-5.53 13.593-5.53 3.907 0 7.735 1.046 3.828 1.047 7.64 3.156V2.094Q45.016.344 40.984-.531q-4.015-.89-8.562-.89-12.36 0-19.64 7.765-7.266 7.765-7.266 20.953 0 13.375 7.343 21.031Q20.22 56 33.016 56q4.14 0 8.093-.86 3.953-.843 7.672-2.546z" id="DejaVuSans-99"/><path d="M18.313 70.219V54.688h18.5v-6.985h-18.5V18.016q0-6.688 1.828-8.594 1.828-1.906 7.453-1.906h9.218V0h-9.218q-10.407 0-14.36 3.875-3.953 3.89-3.953 14.14v29.688H2.687v6.984h6.594V70.22z" id="DejaVuSans-116"/></defs><use xlink:href="#DejaVuSans-79"/><use x="78.711" xlink:href="#DejaVuSans-99"/><use x="133.691" xlink:href="#DejaVuSans-116"/></g></g><g id="xtick_5"><g style="fill:#696969" transform="matrix(.16 0 0 -.16 393.424 598.378)" id="text_5"><use xlink:href="#DejaVuSans-74"/><use x="29.492" xlink:href="#DejaVuSans-97"/><use x="90.771" xlink:href="#DejaVuSans-110"/></g></g><g id="xtick_6"><g style="fill:#696969" transform="matrix(.16 0 0 -.16 459.824 598.378)" id="text_6"><use xlink:href="#DejaVuSans-65"/><use x="68.408" xlink:href="#DejaVuSans-112"/><use x="131.885" xlink:href="#DejaVuSans-114"/></g></g><g id="xtick_7"><g style="fill:#696969" transform="matrix(.16 0 0 -.16 532.673 598.378)" id="text_7"><use xlink:href="#DejaVuSans-74"/><use x="29.492" xlink:href="#DejaVuSans-117"/><use x="92.871" xlink:href="#DejaVuSans-108"/></g></g><g id="xtick_8"><g style="fill:#696969" transform="matrix(.16 0 0 -.16 597.91 598.378)" id="text_8"><use xlink:href="#DejaVuSans-79"/><use x="78.711" xlink:href="#DejaVuSans-99"/><use x="133.691" xlink:href="#DejaVuSans-116"/></g></g><g id="xtick_9"><g style="fill:#696969" transform="matrix(.16 0 0 -.16 668.826 598.378)" id="text_9"><use xlink:href="#DejaVuSans-74"/><use x="29.492" xlink:href="#DejaVuSans-97"/><use x="90.771" xlink:href="#DejaVuSans-110"/></g></g><g id="xtick_10"><g style="fill:#696969" transform="matrix(.16 0 0 -.16 735.225 598.378)" id="text_10"><use xlink:href="#DejaVuSans-65"/><use x="68.408" xlink:href="#DejaVuSans-112"/><use x="131.885" xlink:href="#DejaVuSans-114"/></g></g><g id="xtick_11"><g style="fill:#696969" transform="matrix(.16 0 0 -.16 808.075 598.378)" id="text_11"><use xlink:href="#DejaVuSans-74"/><use x="29.492" xlink:href="#DejaVuSans-117"/><use x="92.871" xlink:href="#DejaVuSans-108"/></g></g></g><g id="matplotlib.axis_2"><g id="ytick_1"><g style="fill:#696969" transform="matrix(.16 0 0 -.16 63.553 517.617)" id="text_12"><defs><path d="M10.594 35.5h62.593v-8.297H10.594z" id="DejaVuSans-8722"/><path d="M12.406 8.297h16.11v55.625l-17.532-3.516v8.985l17.438 3.515h9.86V8.296H54.39V0H12.406z" id="DejaVuSans-49"/><path d="M31.781 66.406q-7.61 0-11.453-7.5Q16.5 51.422 16.5 36.375q0-14.984 3.828-22.484 3.844-7.5 11.453-7.5 7.672 0 11.5 7.5 3.844 7.5 3.844 22.484 0 15.047-3.844 22.531-3.828 7.5-11.5 7.5zm0 7.813q12.266 0 18.735-9.703 6.468-9.688 6.468-28.141 0-18.406-6.468-28.11-6.47-9.687-18.735-9.687-12.25 0-18.718 9.688-6.47 9.703-6.47 28.109 0 18.453 6.47 28.14Q19.53 74.22 31.78 74.22z" id="DejaVuSans-48"/></defs><use xlink:href="#DejaVuSans-8722"/><use x="83.789" xlink:href="#DejaVuSans-49"/><use x="147.412" xlink:href="#DejaVuSans-48"/><use x="211.035" xlink:href="#DejaVuSans-48"/></g></g><g id="ytick_2"><g style="fill:#696969" transform="matrix(.16 0 0 -.16 73.733 428.898)" id="text_13"><defs><path d="M10.797 72.906h38.719v-8.312H19.828v-17.86q2.14.735 4.281 1.094 2.157.36 4.313.36 12.203 0 19.328-6.688 7.14-6.688 7.14-18.11 0-11.765-7.328-18.296-7.328-6.516-20.656-6.516-4.593 0-9.36.781-4.75.782-9.827 2.344v9.922q4.39-2.39 9.078-3.563 4.687-1.171 9.906-1.171 8.453 0 13.375 4.437 4.938 4.438 4.938 12.063 0 7.609-4.938 12.047-4.922 4.453-13.375 4.453-3.953 0-7.89-.875-3.922-.875-8.016-2.735z" id="DejaVuSans-53"/></defs><use xlink:href="#DejaVuSans-8722"/><use x="83.789" xlink:href="#DejaVuSans-53"/><use x="147.412" xlink:href="#DejaVuSans-48"/></g></g><g id="ytick_3"><use xlink:href="#DejaVuSans-48" style="fill:#696969" transform="matrix(.16 0 0 -.16 97.32 340.179)" id="text_14"/></g><g id="ytick_4"><g style="fill:#696969" transform="matrix(.16 0 0 -.16 87.14 251.46)" id="text_15"><use xlink:href="#DejaVuSans-53"/><use x="63.623" xlink:href="#DejaVuSans-48"/></g></g><g id="ytick_5"><g style="fill:#696969" transform="matrix(.16 0 0 -.16 76.96 162.74)" id="text_16"><use xlink:href="#DejaVuSans-49"/><use x="63.623" xlink:href="#DejaVuSans-48"/><use x="127.246" xlink:href="#DejaVuSans-48"/></g></g><g style="fill:#696969" transform="matrix(0 -.2 -.2 0 55.393 379.813)" id="text_17"><defs><path d="M51.125 44H36.922l-4.11-16.313h14.313zm-7.328 27.781-5.078-20.265h14.265L58.11 71.78h7.813L60.89 51.516h15.234V44h-17.14l-4-16.313h15.53V20.22H53.079L48 0h-7.813l5.032 20.219H30.906L25.875 0h-7.86l5.079 20.219H7.719v7.468h17.187L29 44H13.281v7.516h17.625l4.985 20.265z" id="DejaVuSans-35"/><path d="M30.61 48.39q-7.22 0-11.422-5.64-4.204-5.64-4.204-15.453 0-9.813 4.172-15.453 4.188-5.64 11.453-5.64 7.188 0 11.375 5.655 4.203 5.672 4.203 15.438 0 9.719-4.203 15.406-4.187 5.688-11.375 5.688zm0 7.61q11.718 0 18.406-7.625 6.703-7.61 6.703-21.078 0-13.422-6.703-21.078-6.688-7.64-18.407-7.64-11.765 0-18.437 7.64-6.656 7.656-6.656 21.078 0 13.469 6.656 21.078Q18.844 56 30.609 56z" id="DejaVuSans-111"/><path d="M37.11 75.984V68.5h-8.594q-4.828 0-6.72-1.953-1.874-1.953-1.874-7.031v-4.828h14.797v-6.985H19.922V0H10.89v47.703H2.297v6.984h8.594V58.5q0 9.125 4.25 13.297 4.25 4.187 13.468 4.187z" id="DejaVuSans-102"/><path d="M44.281 53.078v-8.5q-3.797 1.953-7.906 2.922-4.094.984-8.5.984-6.688 0-10.031-2.047-3.344-2.046-3.344-6.156 0-3.125 2.39-4.906 2.391-1.781 9.626-3.39l3.078-.688q9.562-2.047 13.593-5.781 4.032-3.735 4.032-10.422 0-7.625-6.032-12.078-6.03-4.438-16.578-4.438-4.39 0-9.156.86Q10.688.296 5.422 2v9.281q4.984-2.594 9.812-3.89 4.829-1.282 9.579-1.282 6.343 0 9.75 2.172 3.421 2.172 3.421 6.125 0 3.656-2.468 5.61-2.453 1.953-10.813 3.765l-3.125.735q-8.344 1.75-12.062 5.39-3.704 3.64-3.704 9.985 0 7.718 5.47 11.906Q16.75 56 26.811 56q4.97 0 9.36-.734 4.406-.72 8.11-2.188z" id="DejaVuSans-115"/><path d="M56.203 29.594v-4.39H14.891q.593-9.282 5.593-14.142 5-4.859 13.938-4.859 5.172 0 10.031 1.266 4.86 1.265 9.656 3.812v-8.5Q49.266.734 44.187-.344 39.11-1.422 33.892-1.422q-13.094 0-20.735 7.61-7.64 7.625-7.64 20.625 0 13.421 7.25 21.296Q20.016 56 32.328 56q11.031 0 17.453-7.11 6.422-7.093 6.422-19.296zm-8.984 2.64q-.094 7.36-4.125 11.75-4.032 4.407-10.672 4.407-7.516 0-12.031-4.25-4.516-4.25-5.203-11.97z" id="DejaVuSans-101"/></defs><use xlink:href="#DejaVuSans-35"/><use x="83.789" xlink:href="#DejaVuSans-32"/><use x="115.576" xlink:href="#DejaVuSans-111"/><use x="176.758" xlink:href="#DejaVuSans-102"/><use x="211.963" xlink:href="#DejaVuSans-32"/><use x="243.75" xlink:href="#DejaVuSans-99"/><use x="298.73" xlink:href="#DejaVuSans-97"/><use x="360.01" xlink:href="#DejaVuSans-115"/><use x="412.109" xlink:href="#DejaVuSans-101"/><use x="473.633" xlink:href="#DejaVuSans-115"/></g></g><g style="fill:#696969" transform="matrix(.24 0 0 -.24 261.11 71.76)" id="text_18"><defs><path d="M9.813 72.906h13.28l32.329-60.984v60.984h9.562V0h-13.28L19.39 60.984V0H9.813z" id="DejaVuSans-78"/><path d="M4.203 54.688h8.985l11.234-42.672 11.172 42.672h10.593l11.235-42.672 11.187 42.672h8.985L63.28 0H52.688L40.922 44.828 29.109 0H18.5z" id="DejaVuSans-119"/><path d="M64.406 67.281v-10.39q-4.984 4.64-10.625 6.922-5.64 2.296-11.984 2.296-12.5 0-19.14-7.64-6.641-7.64-6.641-22.094 0-14.406 6.64-22.047 6.64-7.64 19.14-7.64 6.345 0 11.985 2.296 5.64 2.297 10.625 6.938V5.609Q59.234 2.094 53.437.33q-5.78-1.75-12.218-1.75-16.563 0-26.094 10.124-9.516 10.14-9.516 27.672 0 17.578 9.516 27.703 9.531 10.14 26.094 10.14 6.531 0 12.312-1.734 5.797-1.734 10.875-5.203z" id="DejaVuSans-67"/><path d="M3.328 72.906h9.953L28.61 11.281l15.282 61.625h11.093l15.328-61.625 15.282 61.625h10.015L77.297 0H64.89L49.516 63.281 33.984 0H21.578z" id="DejaVuSans-87"/><path d="M9.078 75.984h9.031V31.11l26.813 23.578H56.39l-29-25.578L57.625 0H45.906L18.11 26.703V0H9.08z" id="DejaVuSans-107"/><path d="M4.89 31.39h26.313v-8H4.891z" id="DejaVuSans-45"/><path d="M2.984 54.688H12.5L29.594 8.797l17.093 45.89h9.516L35.687 0H23.485z" id="DejaVuSans-118"/><path d="M11.719 12.406h10.297V0H11.719zm0 39.297h10.297v-12.39H11.719z" id="DejaVuSans-58"/><path d="M37.797 64.313 12.89 25.39h24.906zm-2.594 8.593H47.61V25.391h10.407v-8.203H47.609V0h-9.812v17.188H4.89v9.515z" id="DejaVuSans-52"/><path d="M45.406 27.984q0 9.766-4.031 15.125-4.016 5.375-11.297 5.375-7.219 0-11.25-5.375-4.031-5.359-4.031-15.125 0-9.718 4.031-15.093t11.25-5.375q7.281 0 11.297 5.375 4.031 5.375 4.031 15.093zm8.985-21.203q0-13.953-6.203-20.765Q42-20.797 29.203-20.797q-4.734 0-8.937.703-4.203.703-8.157 2.172v8.735q3.954-2.141 7.813-3.157 3.86-1.031 7.86-1.031 8.843 0 13.234 4.61 4.39 4.609 4.39 13.937v4.453q-2.781-4.844-7.125-7.234Q33.938 0 27.875 0 17.828 0 11.672 7.656q-6.156 7.672-6.156 20.328 0 12.688 6.156 20.344Q17.828 56 27.875 56q6.063 0 10.406-2.39 4.344-2.391 7.125-7.22v8.297h8.985z" id="DejaVuSans-103"/></defs><use xlink:href="#DejaVuSans-78"/><use x="74.805" xlink:href="#DejaVuSans-101"/><use x="136.328" xlink:href="#DejaVuSans-119"/><use x="218.115" xlink:href="#DejaVuSans-32"/><use x="249.902" xlink:href="#DejaVuSans-67"/><use x="319.727" xlink:href="#DejaVuSans-97"/><use x="381.006" xlink:href="#DejaVuSans-115"/><use x="433.105" xlink:href="#DejaVuSans-101"/><use x="494.629" xlink:href="#DejaVuSans-115"/><use x="546.729" xlink:href="#DejaVuSans-32"/><use x="578.516" xlink:href="#DejaVuSans-87"/><use x="671.518" xlink:href="#DejaVuSans-101"/><use x="733.041" xlink:href="#DejaVuSans-101"/><use x="794.564" xlink:href="#DejaVuSans-107"/><use x="852.475" xlink:href="#DejaVuSans-45"/><use x="890.434" xlink:href="#DejaVuSans-111"/><use x="951.615" xlink:href="#DejaVuSans-118"/><use x="1010.795" xlink:href="#DejaVuSans-101"/><use x="1072.318" xlink:href="#DejaVuSans-114"/><use x="1107.057" xlink:href="#DejaVuSans-45"/><use x="1139.141" xlink:href="#DejaVuSans-87"/><use x="1232.143" xlink:href="#DejaVuSans-101"/><use x="1293.666" xlink:href="#DejaVuSans-101"/><use x="1355.189" xlink:href="#DejaVuSans-107"/><use x="1413.1" xlink:href="#DejaVuSans-58"/><use x="1446.791" xlink:href="#DejaVuSans-32"/><use x="1478.578" xlink:href="#DejaVuSans-49"/><use x="1542.201" xlink:href="#DejaVuSans-52"/><use x="1605.824" xlink:href="#DejaVuSans-32"/><use x="1637.611" xlink:href="#DejaVuSans-97"/><use x="1698.891" xlink:href="#DejaVuSans-118"/><use x="1758.07" xlink:href="#DejaVuSans-103"/></g><g id="legend_1"><path d="M694.75 184.5H831.2q3.2 0 3.2-3.2V88.96q0-3.2-3.2-3.2H694.75q-3.2 0-3.2 3.2v92.34q0 3.2 3.2 3.2z" style="fill:none;opacity:.8;stroke:#ccc;stroke-linejoin:miter" id="patch_5"/><path d="M697.95 98.718h32" style="fill:none;stroke:#000;stroke-linecap:round;stroke-width:1.5" id="line2d_6"/><g style="fill:#696969" transform="matrix(.16 0 0 -.16 742.75 104.317)" id="text_19"><defs><path d="M8.688 72.906h9.921V28.61q0-11.718 4.235-16.875 4.25-5.14 13.781-5.14 9.469 0 13.719 5.14 4.25 5.157 4.25 16.875v44.297H64.5V27.391q0-14.25-7.063-21.532-7.046-7.28-20.812-7.28-13.828 0-20.89 7.28-7.047 7.282-7.047 21.532z" id="DejaVuSans-85"/><path d="M53.516 70.516V60.89q-5.61 2.687-10.594 4-4.984 1.328-9.625 1.328-8.047 0-12.422-3.125t-4.375-8.89q0-4.845 2.906-7.313 2.907-2.453 11.016-3.97l5.953-1.218q11.031-2.11 16.281-7.406 5.25-5.297 5.25-14.172 0-10.61-7.11-16.078-7.093-5.469-20.812-5.469-5.172 0-11.015 1.172Q13.14.922 6.89 3.219v10.156q6-3.36 11.765-5.078 5.766-1.703 11.328-1.703 8.438 0 13.032 3.312 4.593 3.328 4.593 9.485 0 5.359-3.297 8.39-3.296 3.032-10.812 4.547L27.484 33.5q-11.03 2.188-15.968 6.875-4.922 4.688-4.922 13.047 0 9.672 6.812 15.234 6.813 5.563 18.766 5.563 5.14 0 10.453-.938 5.328-.922 10.89-2.765z" id="DejaVuSans-83"/></defs><use xlink:href="#DejaVuSans-85"/><use x="73.193" xlink:href="#DejaVuSans-83"/></g><path d="M697.95 122.203h32" style="fill:none;stroke:#009e73;stroke-linecap:round;stroke-width:1.5" id="line2d_8"/><g style="fill:#696969" transform="matrix(.16 0 0 -.16 742.75 127.802)" id="text_20"><use xlink:href="#DejaVuSans-78"/><use x="74.805" xlink:href="#DejaVuSans-74"/></g><path d="M697.95 145.688h32" style="fill:none;stroke:#d55e00;stroke-linecap:round;stroke-width:1.5" id="line2d_10"/><g style="fill:#696969" transform="matrix(.16 0 0 -.16 742.75 151.287)" id="text_21"><defs><path d="M19.672 34.813V8.108H35.5q7.953 0 11.781 3.297 3.844 3.297 3.844 10.078 0 6.844-3.844 10.078-3.828 3.25-11.781 3.25zm0 29.984V42.828h14.61q7.218 0 10.75 2.703 3.546 2.719 3.546 8.282 0 5.515-3.547 8.25-3.531 2.734-10.75 2.734zm-9.86 8.11h25.204q11.28 0 17.375-4.688Q58.5 63.53 58.5 54.89q0-6.703-3.125-10.657-3.125-3.953-9.188-4.922 7.282-1.562 11.313-6.53 4.031-4.954 4.031-12.376 0-9.765-6.64-15.093Q48.25 0 35.984 0H9.812z" id="DejaVuSans-66"/></defs><use xlink:href="#DejaVuSans-66"/><use x="68.604" xlink:href="#DejaVuSans-101"/><use x="130.127" xlink:href="#DejaVuSans-114"/><use x="169.49" xlink:href="#DejaVuSans-103"/><use x="232.967" xlink:href="#DejaVuSans-101"/><use x="294.49" xlink:href="#DejaVuSans-110"/></g><path d="M697.95 169.173h32" style="fill:none;stroke:#0072b2;stroke-linecap:round;stroke-width:1.5" id="line2d_12"/><g style="fill:#696969" transform="matrix(.16 0 0 -.16 742.75 174.773)" id="text_22"><defs><path d="M44.39 34.188q3.172-1.079 6.172-4.594 3-3.516 6.032-9.672L66.609 0H56l-9.313 18.703q-3.624 7.328-7.015 9.719-3.39 2.39-9.25 2.39h-10.75V0h-9.86v72.906h22.266q12.5 0 18.656-5.234 6.157-5.219 6.157-15.766 0-6.89-3.203-11.437-3.204-4.532-9.297-6.282zM19.673 64.797V38.922h12.406q7.125 0 10.766 3.297 3.64 3.297 3.64 9.687 0 6.39-3.64 9.64-3.64 3.25-10.766 3.25z" id="DejaVuSans-82"/><path d="M54.89 33.016V0h-8.984v32.719q0 7.765-3.031 11.61-3.031 3.858-9.078 3.858-7.281 0-11.484-4.64-4.204-4.625-4.204-12.64V0H9.08v75.984h9.03V46.188q3.235 4.937 7.594 7.374Q30.078 56 35.797 56q9.422 0 14.25-5.828 4.844-5.828 4.844-17.156z" id="DejaVuSans-104"/><path d="M45.406 46.39v29.594h8.985V0h-8.985v8.203Q42.578 3.328 38.25.953q-4.313-2.375-10.375-2.375-9.906 0-16.14 7.906-6.22 7.922-6.22 20.813 0 12.89 6.22 20.797Q17.968 56 27.874 56q6.063 0 10.375-2.375 4.328-2.36 7.156-7.234zm-30.61-19.093q0-9.906 4.079-15.547 4.078-5.64 11.203-5.64 7.125 0 11.219 5.64 4.11 5.64 4.11 15.547 0 9.906-4.11 15.547-4.094 5.64-11.219 5.64-7.125 0-11.203-5.64-4.078-5.64-4.078-15.547z" id="DejaVuSans-100"/></defs><use xlink:href="#DejaVuSans-82"/><use x="64.982" xlink:href="#DejaVuSans-117"/><use x="128.361" xlink:href="#DejaVuSans-116"/><use x="167.57" xlink:href="#DejaVuSans-104"/><use x="230.949" xlink:href="#DejaVuSans-101"/><use x="292.473" xlink:href="#DejaVuSans-114"/><use x="333.586" xlink:href="#DejaVuSans-102"/><use x="368.791" xlink:href="#DejaVuSans-111"/><use x="429.973" xlink:href="#DejaVuSans-114"/><use x="469.336" xlink:href="#DejaVuSans-100"/></g></g></g></g><defs><clipPath id="pdc0f5e04fc"><path d="M117 77.76h725.4v498.96H117z"/></clipPath></defs></svg>