<svg height="864" viewBox="0 0 936 648" width="1248" xmlns="http://www.w3.org/2000/svg" xmlns:xlink="http://www.w3.org/1999/xlink"><defs><style>*{stroke-linecap:butt;stroke-linejoin:round}</style></defs><g id="figure_1"><path d="M0 648h936V0H0z" style="fill:#fff" id="patch_1"/><g id="axes_1"><path d="M117 576.72h725.4V77.76H117z" style="fill:none" id="patch_2"/><path clip-path="url(#pb6ce80c3f3)" d="m149.973 351.329 68.826-.114 8.003-.24 1.601-.1 1.6-.226 1.601-.374 3.201-1.12 1.601-.823 6.403-4.087 1.6-.754 1.6-.987 3.202-.414 1.6-.571 3.202.015 1.6-.372 1.601.059 1.6.326 1.601.18 3.202 1.775 1.6.878 1.6 1.569 1.601 1.974 1.601.632 1.6 1.655 1.601 1.075 1.6.757 1.602.915 1.6.354 1.6-.007 1.601.379 1.601-.769 1.6-.28 1.601-.066 1.6-.595 1.601-.816 1.601-1.059 1.6-.364 1.601.66 1.6-.035 1.602.122 1.6.633 1.6.908 1.601 1.24 1.601.227 1.6-.336 3.202-.017 1.6-.174 1.601.402 1.6-.037 1.601.593 1.601.352 4.802.161 1.6-.557 1.601-.385 1.6-.513 1.601-.97 1.6-.009 1.602-.6 1.6-.032 3.201.137 1.601-.263 1.6.786 1.601.086 1.6.71 1.601.225 3.202-.647 1.6.047 1.601-.627 1.6-.45 1.601-.632 1.6-.264 1.601-.387 3.202.525 1.6.736 1.6.44 3.202-.465 1.6.837 1.601-.42 1.601-.287 1.6-.635 1.601-.915 1.6.007 1.601-.371 1.601-.97 1.6-.44 1.601-.764 1.6-.957 1.602-.464 4.801-2.964 1.601-.407 1.6-.667 1.601.15 1.6-.358 3.202-.331 3.201.638 1.601.893 1.6.137 1.601.866 1.6.398 1.601 1.14 1.601.063 1.6-.341 1.601-.883 3.202-1.39 1.6.068 1.6-1.3 4.803 2.94 1.6 1.807 1.6 1.343 1.601.85 1.601 2.435 1.6.011 1.601-.294 1.6 1.42 1.602-.11 1.6.208 1.6.494 1.601-.524 1.601.798 1.6 1.619 1.601-.526 1.6 1.247 1.601.84 3.202 2.322 1.6.396 1.601-.948 1.6-.126 1.601-1.29 1.6-1.064 1.601-1.544 1.601-.905 1.6-.71 1.601.33 1.6.458 3.202 2.185 1.6 1.34 1.601.52 1.601.994 1.6.139 1.601.392 1.6-1.42 1.601-.69 1.601-1.539 3.201-1.769 1.6-.6 1.602-1.237 1.6.771 1.6-1.011 1.601 1.722 1.601-.137 1.6-.908 1.601.22 1.6.514 1.602.84 1.6 2.264 1.6-1.56 3.202 2.176 1.6.09 1.601-.768 1.6-2.613 1.601-2.879 1.601-.572 1.6-1.768 3.202-1.328 1.6.038 1.601-.72 1.6 1.373 1.601.414 1.601.835 1.6-.497 3.202.442 1.6 4.043 1.601-.922 1.6.201 1.601-.15 1.6.76 1.602-.476 1.6.36 1.6-4.836 1.601.81 1.601-1.186 1.6-.992 1.601-.724 1.6.138 1.602-1.356 1.6 4.474 1.6-1.403 1.601.468 1.601.113 1.6-.694 1.601.312 1.6.751 1.601-3.608 1.601.604 1.6.278 1.601-.091 1.6-.378 1.602-2.802 1.6-.99 1.6.933 1.601-.861 1.601-1.504 1.6-.653 1.601.03 1.6 2.29 1.601-.3 1.601-1.156 1.6-.48 1.601-.97 1.601-1.718 1.6-2.085 1.601-4.093 1.6-1.672 1.601-1.933 1.601-3.324 1.6-.976 1.601-1.32 1.6-1.782 1.602.978 1.6-.29 1.6.036 1.601 2.885 1.601.614 1.6 2.09 1.601 3.549 1.6 2.29 1.601 2.962 1.601 2.602 1.6.638 1.601 2.383 1.6 12.304 1.602 1.178 1.6 3.823 1.6 1.147 1.601 2.843 1.601 1.124 1.6-1.378 1.601-22.625 1.6-2.098 1.601-8.543 1.601-4.559 1.6-5.483 1.601-3.319 1.601.229 1.6 12.181 1.601-2.685 1.6 5.985 1.601 2.678 1.601 4.494 1.6 5.958 3.202-1.421 1.6 8.905 3.202 3.59 1.6-.414 1.601-1.77 1.6 4.828 1.601 6.587 1.6 13.712 1.601-4.133 1.601 2.674 1.6 1.478 1.601-.084 1.6-2.097 1.602-9.341 1.6-22.29 1.6-5.85 3.202-17.372 1.6-3.913 1.601-2.892 1.6-1.334 1.601-12.143 1.601 12.904 1.6 4.934 1.601 10.424 1.601 4.453 1.6 6.032 1.601 10.311 1.6 24.162 1.601 1.272 1.601 5.113 1.6 5.815 1.601 4.457 1.6 1.81 1.602.77 1.6-1.19 1.6-1.9 1.601.157 1.601-10.588 3.201-2.529 3.201-5.295 1.601.036 1.6-2.732 1.601 3.279 1.6.03 1.602.49 1.6 1.648 1.6 1.135 1.601-.585 1.601 1.154 1.6 3.54 1.601-1.394 1.6-1.188 1.602-2.175 1.6-.689 1.6-.973 1.601-.307 1.601-1.095 1.6 1.21 1.601-.042 1.6 1.53 1.601-.964 1.601-.6 1.6-1.682 3.202-9.19 1.6-3.253 1.601-4.498 1.6-2.466 1.601-.905 1.601-.497 1.6.78 1.601 2.431 1.6 1.29 1.601 1.85 1.601 1.453 1.6-.107 1.601.717 1.6-5.062 1.602-1.367 1.6.087 1.6-.642 1.601-1.256 1.601.09 1.6-.94h0" style="fill:none;stroke:#000;stroke-linecap:round;stroke-width:1.5" id="line2d_1"/><path clip-path="url(#pb6ce80c3f3)" d="m149.973 351.328 70.427-.105 4.802-.255 3.201-.637 1.6-.604 1.601-1.244 1.6-.507 1.601-1.635 1.601-2.238 1.6-3.264 1.601-2.728 1.6-1.748 1.602-7.811 1.6-6.907 1.6-6.05 1.601-4.732 1.601-6.152 1.6-2.054 1.601-9.487 1.6 5.469 1.602-2.38 1.6-.298 1.6 2.367 1.601 8.319 1.601-.155 1.6 14.123 1.601 2.54 1.6 12.99 1.601 10.88 1.601 3.356 1.6 4.97 1.601 1.475 1.6 1.161 1.602-1.852 1.6-1.396 1.6-.234 1.601.57 1.601-6.798 1.6 6.592 1.601-8.746 1.6 3.604 1.601 2.23 1.601-4.124 1.6 2.297 1.601 8.909 1.6 1.064 1.602 9.815 1.6 6.592 1.6-5.339 1.601 4.92 1.601.511 1.6-3.06 1.601-2.384 1.6.172 1.602-4.58 1.6 4.4 1.6.402 1.601 4.577 1.601-2.15 1.6 4.953 1.601-2.644 1.6-.176 1.601-.423 1.601-1.882 1.6-5.775 1.601-1.693 1.6-7.132 1.602-4.396 1.6-2.222 1.6-2.782 1.601 1.475 1.601-.03 1.6 4.439 1.601 2.003 1.6 4.572 1.601-.776 1.601 1.107 1.6-4.937 1.601.076 1.601-1.266 1.6-1.077 1.601-.758 1.6 3.516 1.601.02 1.601 2.456 1.6 1.48 1.601-1.362 1.6 1.186 1.602-1.543 1.6-3.071 1.6.984 1.601-.381 1.601-2.393 1.6-.121 1.601-1.476 1.6 1.258 1.601.31 1.601-2.091 3.201-.168 1.6-.679 1.602.117 1.6-.645 1.6-7.627 1.601.176 1.601-.226 1.6.13 1.601.98 1.6-.335 1.601-.93 1.601 14.592 1.6.004 3.202-.461 1.6-1.266 1.601.855 1.6.47 1.601-6.408 1.601.109 1.6-.16 3.202.814 1.6-1.065 1.601-.616 1.6-.8 1.601 1.173 1.601.453 1.6 1.425 1.601.247 1.6.947 1.601.809 1.601-.113 1.6-3 1.601-1.334 1.6-3.796 3.202-2.527 1.6-.612 1.601.239 1.601.737 1.6 1.651 1.601 3.018 1.6 1.902 1.601 1.329 1.601.762 1.6-.871 1.601 2.355 1.601-.6 6.402-3.377 1.601-.47 1.6-2.262 1.601.373 1.6 1.483 1.602-.251 1.6.842 1.6 1.023 1.601 3.511 1.601 2.054 1.6-1.43 1.601-1.952 1.6.59 1.601-.351 1.601-.197 1.6-3.198 1.601-1.458 1.6 1.806 1.602-.033 1.6-.885 1.6-.238 1.601-.65 1.601.57 1.6-.096 1.601-.654 4.802 1.446 4.802.595 1.6-.62 1.601.142 1.6-.08 1.601-.888 1.601-.168 1.6-.415 1.601.05 1.6.47 1.602-.712 1.6-.235 1.6.708 1.601.18 1.601.629 1.6-.201 1.601-1.161 3.201-.83 1.601-.167 1.6-1.182 1.601-.23 1.6-.55 1.602.386 1.6 1.328 1.6.901 1.601-.599 1.601 2.091 1.6-2.657 1.601.281 1.6 1.173 1.602-.825 1.6-.025 1.6-.78 1.601-2.636 1.601 4.237 1.6.754 1.601-.64 1.6-1.673 1.601-3.206 3.202 2.925 1.6-2.17 1.6-1.216 1.602-3.792 3.2 5.737 1.601-2.762 1.601-2.3 1.6-.826 1.601-2.917 1.6 6.374 1.601-3.185 1.601-.536 1.6 2.02 1.601-.558 1.601-.1 1.6 3.126 1.601-9.995 1.6 1.442 1.601-2.255 1.601-7.442 1.6.632 3.202-9.09 1.6 2.884 1.601-9.45 1.6 2.217 1.601 7.14 1.601-1.537 1.6 3.52 1.601 4.22 1.6 3.5 1.601 12.97 1.601-5.034h1.6l1.601 4.124 1.6 1.672 1.602-1.006 1.6 4.958 1.6-1.848 1.601 7.346 1.601-.343 1.6-1.002 1.601-.122 1.6-4.605 3.202-19.734 1.6-3.202 1.601-2.259 1.601.352 1.6-.029 1.601 15.007 1.6 2.54 1.601 17.043 1.601-3.612 1.6 9.974 1.601-4.518 1.6 4.995 1.602-9.466 1.6 12.425 1.6-12.14 1.601 11.993 1.601-8.997 1.6 8.926 1.601-5.507 1.6-3.847 1.601-7.782 1.601 16.243 1.6-5.028 1.601 6.633 1.6-3.356 1.602.239 1.6 3.03 1.6-7.142 1.601-17.621 1.601-204.401 1.6-14.89 1.601-5.133 1.6-8.344 1.601-4.522 1.601-1.626 1.6-2.623 1.601 394.356 1.601 17.957 1.6-3.738 1.601 11.608 1.6 9.12 1.601 13.879 1.601 10.418 1.6-185.526 1.601-7.204 1.6 18.712 1.602 6.944 1.6 6.323 1.6-10.732 1.601-2.707 1.601-7.434 1.6-.453 3.202-14.885 1.6-16.558L739 353.19l1.6 4.693 1.601 3.847 3.202 15.275 1.6 4.84 1.6 14.852 1.601-4.651 1.601-4.308 1.6 1.366 1.601-8.604 1.6-19.1 1.602-7.645 1.6-5.288 1.6-.046 1.601 9.253 1.601.679 1.6 1.554 1.601 9.723 1.6 3.13 1.601.796 1.601.529 1.6-8.495 1.601-9.953 1.6 2.225 1.602 3.06 1.6-2.846 1.6-6.324 1.601-8.951 1.601-2.079 1.6 3.441 1.601-2.54 1.6-6.554 1.601 2.854 1.601 4.166 1.6 6.998 1.601.96 1.6 5.334 1.602-2.958 1.6 2.05 1.6-4.204 1.601-2.888 1.601-2.338 1.6-2.766h0" style="fill:none;stroke:#009e73;stroke-linecap:round;stroke-width:1.5" id="line2d_2"/><path clip-path="url(#pb6ce80c3f3)" d="m149.973 351.328 59.223-.08 12.805-.36 1.6-.558 1.6.04 1.601-1.078 1.601-.759 1.6-1.677 1.601-6.428 1.6-1.518 1.601.32 3.202-7.547 1.6-1.916 1.6-.959 1.602-2.435 1.6-8.505 1.6-12.258 1.601-5.67 1.601-1.518 1.6-10.62 1.601-15.892 1.6.2 1.602-8.545 1.6-9.903 1.6 5.59 1.601-8.025 1.601 3.633 1.6 28.39 1.601 14.134 1.6 25.954 1.601 40.767 1.601 4.033 1.6 29.108 1.601 23.199 1.6-12.977 1.602-9.104 1.6-2.036 1.6-13.017 1.601-2.356 1.601-17.21 1.6-13.894 1.601 6.907 1.6 11.58 1.601.36 1.601-8.346 3.201 23.957 1.6 8.345 1.602 1.717 1.6.04 1.6-1.837 1.601 12.219 1.601-9.304 1.6-7.626 1.601-9.144h1.6l1.602-4.951 1.6 1.038 1.6-7.267 1.601 2.795 1.601-1.757 1.6 5.83 1.601-5.35 1.6 3.353 1.601-5.39 1.601-.2 1.6-3.034 1.601.12 1.6-4.592 1.602 2.475 1.6-11.739 1.6 2.396 1.601-.32 1.601-1.237 3.201.04 1.6-5.071 1.601 2.595 1.601-1.597 1.6-.36 1.601 3.834 1.601 2.635 1.6 1.198 1.601 3.234 1.6 6.908 1.601.2 1.601-2.716 1.6-1.357 1.601-2.516 1.6-1.397 1.602-2.715 1.6-4.912 1.6.839 1.601.32 1.601-1.358 1.6-.32 1.601-.559 1.6 4.712 1.601 2.036 1.601-.998 1.6 2.635 1.601-.319 1.6.28 1.602 1.557 1.6-2.715 1.6-13.696 1.601-3.394 1.601-.599 1.6-2.555 1.601.12 1.6-1.478 1.601.28 1.601 24.676 1.6 4.711 1.601-1.477 1.601 3.234 1.6-.599 1.601 1.717 1.6-1.597 1.601-13.137 1.601-1.477 1.6 1.158 1.601.918 1.6.759 1.602-.879 1.6 2.955 1.6 1.997 1.601 1.517 1.601-.12 1.6-.639 1.601-1.757 1.6-.28 1.601-2.634 1.601-1.518 1.6-2.116 1.601-.958 1.6-2.236 1.602 1.357 1.6-1.637 3.201 1.997 1.601-.719 1.6.998 1.601 1.597 1.6.919 1.601 1.876 1.601.64 1.6-.88 1.601 2.636 1.601-1.717 3.201-1.837 1.6.56 1.601-.879 1.601-.08 1.6-5.11 1.601 1.197 1.6-.639 1.602-2.036 1.6-.2 1.6 1.518 1.601 3.913 1.601 7.586 1.6 1.318 1.601 3.873 1.6 4.272 1.601-1.198 1.601-2.835 1.6-6.029 1.601-3.833 1.6-1.597 1.602-3.674 1.6-2.914 1.6-.2 3.202 4.033 1.6-.36 1.601 2.196 3.202 2.516 1.6 2.356 1.6-.64 1.601 1.039 1.601.2 1.6-1.997 1.601-.08 1.6-.638 1.601-.52 1.601.04 1.6-1.836 1.601.08 1.6-.36 1.602.24 1.6.04 1.6-2.955 1.601.32 1.601 2.555 1.6.24 1.601.399 1.6-1.118 1.601-.16 1.601 2.795 1.6-.639 1.601-2.795 1.6-1.278 1.602-.838 1.6.838 1.6-.12 1.601-1.557 1.601-.2 1.6 1.079 3.202.758 1.6-.998 1.601-.04 1.6-1.198 1.601-.12 1.601-.279 1.6.639 1.601.918 1.6-.359 1.601-2.036 1.601 2.036 1.6-1.437 1.601.758 1.6-.439 1.602-3.394 1.6.52 1.6 1.796 1.601-1.957 1.601 3.235 1.6-1.158 1.601-4.313 1.6 3.873 1.601-.838 1.601-.639 1.6.759 1.601-5.87 1.601 2.516 1.6 4.671 1.601-8.744 1.6-.36 1.601 1.797 1.601-3.913 1.6.72 1.601-13.377 1.6-5.39 1.602 5.91 1.6-5.67 1.6-2.596 1.601 1.437 1.601-.2 1.6 10.741 1.601 5.99 1.6-.12 1.601 7.586 1.601-6.308 1.6 5.79 1.601 7.825 1.6 2.396 1.602-8.704 1.6 11.54 1.6-3.754 1.601 12.537 1.601-6.987 1.6-6.19 1.601-4.391 1.6 5.59 1.601-21.362 1.601 2.116 1.6-6.07 3.202 15.533 1.6 6.389 1.601 15.812 1.6 11.38 1.601 8.704 1.601-.64 1.6-1.716 1.601-10.78 1.6-.76 1.602-17.448 1.6 7.746 1.6-6.988 1.601 8.266 1.601-1.518 1.6 4.472 1.601-5.989 1.6 2.516 1.601-4.912 1.601 5.71 1.6-5.95 1.601.999 1.6 3.394 1.602.679 1.6.479 1.6-7.587 1.601-8.704 1.601-174.25 1.6-13.815 1.601-9.942 1.6-1.956 1.601-6.948 1.601-.719 1.6-6.189 1.601 344.266 1.601 24.117 1.6 2.755 1.601 1.518 1.6 12.098 1.601 7.986 1.601 11.18 1.6-166.344 1.601-16.65 1.6 12.099 1.602 13.016 1.6 5.151 1.6-6.428 1.601-2.037 1.601-6.109 1.6 6.389 1.601-3.554 1.6-9.663 1.601-13.416L739 353.963l1.6 2.596 1.601 2.196 1.6 5.15 1.602 7.387 1.6 4.273 1.6 2.955 1.601-3.794 1.601-2.994 1.6 4.312 1.601-6.748 1.6-19.885 1.602-3.633 1.6 6.508 1.6.839 1.601 7.347 1.601.519 1.6-7.147 1.601 12.178 1.6.679 1.601-2.157 1.601.2 1.6-5.79 1.601-13.096 1.6 11.46 1.602-3.195 1.6-5.75 1.6-11.5 1.601-6.028 1.601-1.917 1.6 3.114 1.601-3.314 1.6-4.751 1.601 8.465 1.601 10.98 1.6 11.939 1.601-2.556 1.6 15.014 1.602-5.031 1.6 8.784 1.6-8.744 1.601-1.837 1.601-15.812 1.6 1.278h0" style="fill:none;stroke:#d55e00;stroke-linecap:round;stroke-width:1.5" id="line2d_3"/><path clip-path="url(#pb6ce80c3f3)" d="M149.973 351.328h80.03l1.601-4.067h3.201l1.601-2.034h1.6l3.202-12.202 1.6-4.067 1.601-2.034 1.6-6.1h1.601l1.601-10.169 1.6-4.067 1.601-2.034 1.6 16.27 1.602-8.135 1.6-20.336 1.6-16.27 1.601 14.236 3.202 32.538 1.6-24.404 1.6 8.135 1.601 54.908 1.601 40.673 1.6-10.168 1.601-4.067 1.6-10.169 1.602 26.438 1.6 6.1 1.6-30.504 1.601-22.37 1.601 8.135h3.201l1.6-10.169 1.601-8.134 1.601 4.067h1.6l1.601-2.034 1.6 4.068 1.602 8.134 1.6 4.068 1.6 12.201 1.601-4.067h1.601l1.6 10.168 1.601-6.1 1.6-2.034 1.602 2.033 1.6-4.067 1.6 8.135h1.601l1.601-18.303 1.6-8.135 1.601-6.1 1.6-8.135 1.601-4.067 1.601-6.101h1.6l1.601 16.269 1.6 14.235 3.202 8.135 1.6 2.033h3.202l1.6-8.134 1.601-6.101 3.201-4.067 1.601-6.101h3.201l1.601-6.101h4.802l1.6 8.134h3.202l1.6 12.202h1.6l1.602-2.033h1.6l1.6-6.101h3.202l1.6-6.101h1.601l1.6 4.067h1.601l1.601 4.067h3.201l1.6-4.067 1.602 2.034 1.6-4.068 1.6-2.033 1.601-4.067h4.802l1.6-2.034 1.601 2.034 3.202 8.134h4.802l1.6-2.034 1.6 2.034 1.601-4.067 1.601-6.101h3.201l1.6 12.202 1.602 2.033 1.6-2.033 1.6 4.067 1.601 8.135h3.202l3.2-8.135 1.601-2.034 3.202-8.134h3.2l1.602-6.101 1.6 10.168 1.6 4.067 1.601 2.034h4.802l1.6 2.034 1.601-6.101 1.601-4.068 1.6 2.034h4.803l1.6 2.034h1.6l1.601 2.033 3.202-4.067h3.2l1.602-4.067h1.6l1.6 2.033 1.601-2.033 1.601 2.033h3.201l1.6 4.068 3.202-8.135 3.201 4.067h3.202l1.6-4.067 1.6 8.135 1.601-4.068 1.601 2.034 1.6-2.034h3.202l1.6 4.068 1.601-10.168 1.6 14.235 1.601-2.034h4.802l1.6-4.067 1.601 12.202 1.601-12.202 1.6-2.034h4.803l1.6-2.033 1.6-6.101 1.601 6.1 1.601 4.068h4.802l1.6 10.168h3.202l1.6-2.033h4.802l1.6-10.169 1.601-2.033 1.601-12.202 1.6-18.303 1.601-4.067h3.202l1.6 4.067 1.6-8.134 1.601 18.302 1.601 26.438 1.6-2.034 3.202-12.202h1.6l1.601 22.37 1.6-14.235 1.601 2.033 1.6 16.27 3.202 24.403 1.6-8.134 1.601-20.337 1.601 4.068 3.201-40.673 3.201-12.202 1.601-4.067 1.6 14.235 1.601-2.034 1.601 14.236 1.6 10.168h3.202l1.6-2.033 1.601-12.202 1.6 18.302 1.601-32.538 1.6-4.067h3.202l1.6 20.336 1.601-10.168 1.601-38.639 1.6 46.774 3.202-20.337h1.6l1.601-2.033 1.6 24.403 1.601 36.606 1.6-2.034 1.602 42.707 1.6-20.337h1.6l1.601-4.067 1.601-6.101 1.6-22.37 1.601-48.807 1.6-77.279 1.601 48.808h1.601l1.6 6.1 1.601-12.201 1.601 22.37 1.6 28.47 1.601 79.313 1.6 4.067h1.601l1.601-12.202 1.6 16.27 1.601-16.27 1.6 40.673 1.602-46.774 1.6-22.37h1.6l1.601-20.336 1.601-2.034 1.6-36.605 1.601-46.774 1.6 50.84h3.202l1.6 20.337h1.601l1.6 56.942 1.602-2.033 1.6-34.572h4.802l1.6-30.505 1.601-6.1 1.6 4.066 1.601-24.403 1.601-20.337h1.6l1.601 28.471 1.601 40.673 1.6-12.202 1.601 18.303 1.6 28.471 1.601 40.673h1.601l1.6 22.37 1.601-34.572 1.6 12.202 1.602 2.033 1.6 10.169 1.6-20.337h1.601l1.601-107.783 1.6 54.909 1.601-2.034 1.6-16.27 1.601-40.672L739 290.32h1.6l1.601 126.086 1.6-26.438 1.602-48.807h1.6l1.6 44.74 1.601 20.336h1.601l1.6-95.58 1.601-22.37 1.6 83.378 1.602 8.135 1.6-14.235 1.6-24.404h1.601l1.601 65.076h1.6l1.601-42.706 1.6 2.034 1.601-4.068 1.601 28.471 1.6-14.235 1.601-40.673 1.6 30.505 1.602 2.033 1.6-26.437 1.6-8.135 1.601-14.235 1.601 28.47 1.6-16.268 1.601-24.404 1.6-6.1 1.601 40.672 1.601-2.034h1.6l1.601-14.235 1.6 28.47 1.602 20.337h1.6l1.6-42.706 1.601 28.47h3.202l1.6-22.37h0" style="fill:none;stroke:#0072b2;stroke-linecap:round;stroke-width:1.5" id="line2d_4"/><path clip-path="url(#pb6ce80c3f3)" d="M117 351.328h725.4" style="fill:none;stroke:red;stroke-dasharray:1.5,2.475;stroke-dashoffset:0;stroke-width:1.5" id="line2d_5"/><path d="M117 576.72V77.76" style="fill:none;stroke:#d3d3d3;stroke-linecap:square;stroke-linejoin:miter;stroke-width:1.25" id="patch_3"/><path d="M117 576.72h725.4" style="fill:none;stroke:#d3d3d3;stroke-linecap:square;stroke-linejoin:miter;stroke-width:1.25" id="patch_4"/><g id="matplotlib.axis_1"><g id="xtick_1"><g style="fill:#696969" transform="matrix(.16 0 0 -.16 187.7 598.378)" id="text_1"><defs><path d="M9.813 72.906h14.703l18.593-49.61 18.703 49.61h14.704V0H66.89v64.016l-18.797-50h-9.907l-18.796 50V0H9.813z" id="DejaVuSans-77"/><path d="M34.281 27.484q-10.89 0-15.093-2.484-4.204-2.484-4.204-8.5 0-4.781 3.157-7.594 3.156-2.797 8.562-2.797 7.485 0 12 5.297 4.516 5.297 4.516 14.078v2zm17.922 3.72V0H43.22v8.297Q40.14 3.328 35.547.953q-4.594-2.375-11.234-2.375-8.391 0-13.36 4.719Q6 8.016 6 15.922q0 9.219 6.172 13.906 6.187 4.688 18.437 4.688h12.61v.89q0 6.203-4.078 9.594-4.078 3.39-11.453 3.39-4.688 0-9.141-1.124-4.438-1.125-8.531-3.375v8.312q4.921 1.906 9.562 2.844 4.64.953 9.031.953 11.875 0 17.735-6.156 5.86-6.14 5.86-18.64z" id="DejaVuSans-97"/><path d="M41.11 46.297q-1.516.875-3.297 1.281Q36.03 48 33.89 48q-7.625 0-11.703-4.953-4.079-4.953-4.079-14.234V0H9.08v54.688h9.03v-8.5q2.844 4.984 7.375 7.39Q30.031 56 36.531 56q.922 0 2.047-.125 1.125-.11 2.484-.36z" id="DejaVuSans-114"/></defs><use xlink:href="#DejaVuSans-77"/><use x="86.279" xlink:href="#DejaVuSans-97"/><use x="147.559" xlink:href="#DejaVuSans-114"/></g></g><g id="xtick_2"><g style="fill:#696969" transform="matrix(.16 0 0 -.16 283.89 598.378)" id="text_2"><defs><path d="M32.172-5.078q-3.797-9.766-7.422-12.735-3.61-2.984-9.656-2.984H7.906v7.516h5.282q3.703 0 5.75 1.765Q21-9.766 23.483-3.219l1.61 4.094-22.11 53.813H12.5l17.094-42.766 17.093 42.766h9.516z" id="DejaVuSans-121"/></defs><use xlink:href="#DejaVuSans-77"/><use x="86.279" xlink:href="#DejaVuSans-97"/><use x="147.559" xlink:href="#DejaVuSans-121"/></g></g><g id="xtick_3"><g style="fill:#696969" transform="matrix(.16 0 0 -.16 388.416 598.378)" id="text_3"><defs><path d="M9.813 72.906h9.859V5.078q0-13.187-5-19.14-5-5.954-16.094-5.954h-3.75v8.297h3.078q6.531 0 9.219 3.672Q9.813-4.39 9.813 5.078z" id="DejaVuSans-74"/><path d="M8.5 21.578v33.11h8.984V21.922q0-7.766 3.016-11.656 3.031-3.875 9.094-3.875 7.265 0 11.484 4.64 4.234 4.64 4.234 12.656v31h8.985V0h-8.984v8.406Q42.047 3.422 37.718 1q-4.313-2.422-10.032-2.422-9.421 0-14.312 5.86Q8.5 10.296 8.5 21.578zM31.11 56z" id="DejaVuSans-117"/><path d="M9.422 75.984h8.984V0H9.422z" id="DejaVuSans-108"/></defs><use xlink:href="#DejaVuSans-74"/><use x="29.492" xlink:href="#DejaVuSans-117"/><use x="92.871" xlink:href="#DejaVuSans-108"/></g></g><g id="xtick_4"><g style="fill:#696969" transform="matrix(.16 0 0 -.16 482.227 598.378)" id="text_4"><defs><path d="M53.516 70.516V60.89q-5.61 2.687-10.594 4-4.984 1.328-9.625 1.328-8.047 0-12.422-3.125t-4.375-8.89q0-4.845 2.906-7.313 2.907-2.453 11.016-3.97l5.953-1.218q11.031-2.11 16.281-7.406 5.25-5.297 5.25-14.172 0-10.61-7.11-16.078-7.093-5.469-20.812-5.469-5.172 0-11.015 1.172Q13.14.922 6.89 3.219v10.156q6-3.36 11.765-5.078 5.766-1.703 11.328-1.703 8.438 0 13.032 3.312 4.593 3.328 4.593 9.485 0 5.359-3.297 8.39-3.296 3.032-10.812 4.547L27.484 33.5q-11.03 2.188-15.968 6.875-4.922 4.688-4.922 13.047 0 9.672 6.812 15.234 6.813 5.563 18.766 5.563 5.14 0 10.453-.938 5.328-.922 10.89-2.765z" id="DejaVuSans-83"/><path d="M56.203 29.594v-4.39H14.891q.593-9.282 5.593-14.142 5-4.859 13.938-4.859 5.172 0 10.031 1.266 4.86 1.265 9.656 3.812v-8.5Q49.266.734 44.187-.344 39.11-1.422 33.892-1.422q-13.094 0-20.735 7.61-7.64 7.625-7.64 20.625 0 13.421 7.25 21.296Q20.016 56 32.328 56q11.031 0 17.453-7.11 6.422-7.093 6.422-19.296zm-8.984 2.64q-.094 7.36-4.125 11.75-4.032 4.407-10.672 4.407-7.516 0-12.031-4.25-4.516-4.25-5.203-11.97z" id="DejaVuSans-101"/><path d="M18.11 8.203v-29H9.077v75.484h9.031v-8.296q2.844 4.875 7.157 7.234Q29.594 56 35.594 56q9.968 0 16.187-7.906 6.235-7.907 6.235-20.797T51.78 6.484q-6.218-7.906-16.187-7.906-6 0-10.328 2.375-4.313 2.375-7.157 7.25zm30.578 19.094q0 9.906-4.079 15.547-4.078 5.64-11.203 5.64-7.14 0-11.218-5.64-4.079-5.64-4.079-15.547 0-9.906 4.078-15.547 4.079-5.64 11.22-5.64 7.124 0 11.202 5.64t4.078 15.547z" id="DejaVuSans-112"/></defs><use xlink:href="#DejaVuSans-83"/><use x="63.477" xlink:href="#DejaVuSans-101"/><use x="125" xlink:href="#DejaVuSans-112"/></g></g><g id="xtick_5"><g style="fill:#696969" transform="matrix(.16 0 0 -.16 579.33 598.378)" id="text_5"><defs><path d="M9.813 72.906h13.28l32.329-60.984v60.984h9.562V0h-13.28L19.39 60.984V0H9.813z" id="DejaVuSans-78"/><path d="M30.61 48.39q-7.22 0-11.422-5.64-4.204-5.64-4.204-15.453 0-9.813 4.172-15.453 4.188-5.64 11.453-5.64 7.188 0 11.375 5.655 4.203 5.672 4.203 15.438 0 9.719-4.203 15.406-4.187 5.688-11.375 5.688zm0 7.61q11.718 0 18.406-7.625 6.703-7.61 6.703-21.078 0-13.422-6.703-21.078-6.688-7.64-18.407-7.64-11.765 0-18.437 7.64-6.656 7.656-6.656 21.078 0 13.469 6.656 21.078Q18.844 56 30.609 56z" id="DejaVuSans-111"/><path d="M2.984 54.688H12.5L29.594 8.797l17.093 45.89h9.516L35.687 0H23.485z" id="DejaVuSans-118"/></defs><use xlink:href="#DejaVuSans-78"/><use x="74.805" xlink:href="#DejaVuSans-111"/><use x="135.986" xlink:href="#DejaVuSans-118"/></g></g><g id="xtick_6"><g style="fill:#696969" transform="matrix(.16 0 0 -.16 680.25 598.378)" id="text_6"><defs><path d="M54.89 33.016V0h-8.984v32.719q0 7.765-3.031 11.61-3.031 3.858-9.078 3.858-7.281 0-11.484-4.64-4.204-4.625-4.204-12.64V0H9.08v54.688h9.03v-8.5q3.235 4.937 7.594 7.374Q30.078 56 35.797 56q9.422 0 14.25-5.828 4.844-5.828 4.844-17.156z" id="DejaVuSans-110"/></defs><use xlink:href="#DejaVuSans-74"/><use x="29.492" xlink:href="#DejaVuSans-97"/><use x="90.771" xlink:href="#DejaVuSans-110"/></g></g><g id="xtick_7"><g style="fill:#696969" transform="matrix(.16 0 0 -.16 771.925 598.378)" id="text_7"><use xlink:href="#DejaVuSans-77"/><use x="86.279" xlink:href="#DejaVuSans-97"/><use x="147.559" xlink:href="#DejaVuSans-114"/></g></g></g><g id="matplotlib.axis_2"><g id="ytick_1"><g style="fill:#696969" transform="matrix(.16 0 0 -.16 73.733 552.82)" id="text_8"><defs><path d="M10.594 35.5h62.593v-8.297H10.594z" id="DejaVuSans-8722"/><path d="M8.203 72.906h46.875v-4.203L28.61 0H18.312L43.22 64.594H8.203z" id="DejaVuSans-55"/><path d="M10.797 72.906h38.719v-8.312H19.828v-17.86q2.14.735 4.281 1.094 2.157.36 4.313.36 12.203 0 19.328-6.688 7.14-6.688 7.14-18.11 0-11.765-7.328-18.296-7.328-6.516-20.656-6.516-4.593 0-9.36.781-4.75.782-9.827 2.344v9.922q4.39-2.39 9.078-3.563 4.687-1.171 9.906-1.171 8.453 0 13.375 4.437 4.938 4.438 4.938 12.063 0 7.609-4.938 12.047-4.922 4.453-13.375 4.453-3.953 0-7.89-.875-3.922-.875-8.016-2.735z" id="DejaVuSans-53"/></defs><use xlink:href="#DejaVuSans-8722"/><use x="83.789" xlink:href="#DejaVuSans-55"/><use x="147.412" xlink:href="#DejaVuSans-53"/></g></g><g id="ytick_2"><g style="fill:#696969" transform="matrix(.16 0 0 -.16 73.733 487.683)" id="text_9"><defs><path d="M31.781 66.406q-7.61 0-11.453-7.5Q16.5 51.422 16.5 36.375q0-14.984 3.828-22.484 3.844-7.5 11.453-7.5 7.672 0 11.5 7.5 3.844 7.5 3.844 22.484 0 15.047-3.844 22.531-3.828 7.5-11.5 7.5zm0 7.813q12.266 0 18.735-9.703 6.468-9.688 6.468-28.141 0-18.406-6.468-28.11-6.47-9.687-18.735-9.687-12.25 0-18.718 9.688-6.47 9.703-6.47 28.109 0 18.453 6.47 28.14Q19.53 74.22 31.78 74.22z" id="DejaVuSans-48"/></defs><use xlink:href="#DejaVuSans-8722"/><use x="83.789" xlink:href="#DejaVuSans-53"/><use x="147.412" xlink:href="#DejaVuSans-48"/></g></g><g id="ytick_3"><g style="fill:#696969" transform="matrix(.16 0 0 -.16 73.733 422.545)" id="text_10"><defs><path d="M19.188 8.297h34.421V0H7.33v8.297q5.609 5.812 15.296 15.594 9.703 9.797 12.188 12.64 4.734 5.313 6.609 9 1.89 3.688 1.89 7.25 0 5.813-4.078 9.469-4.078 3.672-10.625 3.672-4.64 0-9.797-1.61-5.14-1.609-11-4.89v9.969Q13.767 71.78 18.938 73q5.188 1.219 9.485 1.219 11.328 0 18.062-5.672 6.735-5.656 6.735-15.125 0-4.5-1.688-8.531-1.672-4.016-6.125-9.485-1.218-1.422-7.765-8.187-6.532-6.766-18.453-18.922z" id="DejaVuSans-50"/></defs><use xlink:href="#DejaVuSans-8722"/><use x="83.789" xlink:href="#DejaVuSans-50"/><use x="147.412" xlink:href="#DejaVuSans-53"/></g></g><g id="ytick_4"><use xlink:href="#DejaVuSans-48" transform="matrix(.16 0 0 -.16 97.32 357.407)" id="text_11"/></g><g id="ytick_5"><g style="fill:#696969" transform="matrix(.16 0 0 -.16 87.14 292.269)" id="text_12"><use xlink:href="#DejaVuSans-50"/><use x="63.623" xlink:href="#DejaVuSans-53"/></g></g><g id="ytick_6"><g style="fill:#696969" transform="matrix(.16 0 0 -.16 87.14 227.13)" id="text_13"><use xlink:href="#DejaVuSans-53"/><use x="63.623" xlink:href="#DejaVuSans-48"/></g></g><g id="ytick_7"><g style="fill:#696969" transform="matrix(.16 0 0 -.16 87.14 161.993)" id="text_14"><use xlink:href="#DejaVuSans-55"/><use x="63.623" xlink:href="#DejaVuSans-53"/></g></g><g id="ytick_8"><g style="fill:#696969" transform="matrix(.16 0 0 -.16 76.96 96.855)" id="text_15"><defs><path d="M12.406 8.297h16.11v55.625l-17.532-3.516v8.985l17.438 3.515h9.86V8.296H54.39V0H12.406z" id="DejaVuSans-49"/></defs><use xlink:href="#DejaVuSans-49"/><use x="63.623" xlink:href="#DejaVuSans-48"/><use x="127.246" xlink:href="#DejaVuSans-48"/></g></g><g style="fill:#696969" transform="matrix(0 -.2 -.2 0 65.573 379.813)" id="text_16"><defs><path d="M51.125 44H36.922l-4.11-16.313h14.313zm-7.328 27.781-5.078-20.265h14.265L58.11 71.78h7.813L60.89 51.516h15.234V44h-17.14l-4-16.313h15.53V20.22H53.079L48 0h-7.813l5.032 20.219H30.906L25.875 0h-7.86l5.079 20.219H7.719v7.468h17.187L29 44H13.281v7.516h17.625l4.985 20.265z" id="DejaVuSans-35"/><path d="M37.11 75.984V68.5h-8.594q-4.828 0-6.72-1.953-1.874-1.953-1.874-7.031v-4.828h14.797v-6.985H19.922V0H10.89v47.703H2.297v6.984h8.594V58.5q0 9.125 4.25 13.297 4.25 4.187 13.468 4.187z" id="DejaVuSans-102"/><path d="M48.781 52.594v-8.407q-3.812 2.11-7.64 3.157-3.828 1.047-7.735 1.047-8.75 0-13.593-5.547-4.829-5.532-4.829-15.547 0-10.016 4.829-15.563 4.843-5.53 13.593-5.53 3.907 0 7.735 1.046 3.828 1.047 7.64 3.156V2.094Q45.016.344 40.984-.531q-4.015-.89-8.562-.89-12.36 0-19.64 7.765-7.266 7.765-7.266 20.953 0 13.375 7.343 21.031Q20.22 56 33.016 56q4.14 0 8.093-.86 3.953-.843 7.672-2.546z" id="DejaVuSans-99"/><path d="M44.281 53.078v-8.5q-3.797 1.953-7.906 2.922-4.094.984-8.5.984-6.688 0-10.031-2.047-3.344-2.046-3.344-6.156 0-3.125 2.39-4.906 2.391-1.781 9.626-3.39l3.078-.688q9.562-2.047 13.593-5.781 4.032-3.735 4.032-10.422 0-7.625-6.032-12.078-6.03-4.438-16.578-4.438-4.39 0-9.156.86Q10.688.296 5.422 2v9.281q4.984-2.594 9.812-3.89 4.829-1.282 9.579-1.282 6.343 0 9.75 2.172 3.421 2.172 3.421 6.125 0 3.656-2.468 5.61-2.453 1.953-10.813 3.765l-3.125.735q-8.344 1.75-12.062 5.39-3.704 3.64-3.704 9.985 0 7.718 5.47 11.906Q16.75 56 26.811 56q4.97 0 9.36-.734 4.406-.72 8.11-2.188z" id="DejaVuSans-115"/></defs><use xlink:href="#DejaVuSans-35"/><use x="83.789" xlink:href="#DejaVuSans-32"/><use x="115.576" xlink:href="#DejaVuSans-111"/><use x="176.758" xlink:href="#DejaVuSans-102"/><use x="211.963" xlink:href="#DejaVuSans-32"/><use x="243.75" xlink:href="#DejaVuSans-99"/><use x="298.73" xlink:href="#DejaVuSans-97"/><use x="360.01" xlink:href="#DejaVuSans-115"/><use x="412.109" xlink:href="#DejaVuSans-101"/><use x="473.633" xlink:href="#DejaVuSans-115"/></g></g><g style="fill:#696969" transform="matrix(.24 0 0 -.24 268.746 71.76)" id="text_17"><defs><path d="M4.203 54.688h8.985l11.234-42.672 11.172 42.672h10.593l11.235-42.672 11.187 42.672h8.985L63.28 0H52.688L40.922 44.828 29.109 0H18.5z" id="DejaVuSans-119"/><path d="M64.406 67.281v-10.39q-4.984 4.64-10.625 6.922-5.64 2.296-11.984 2.296-12.5 0-19.14-7.64-6.641-7.64-6.641-22.094 0-14.406 6.64-22.047 6.64-7.64 19.14-7.64 6.345 0 11.985 2.296 5.64 2.297 10.625 6.938V5.609Q59.234 2.094 53.437.33q-5.78-1.75-12.218-1.75-16.563 0-26.094 10.124-9.516 10.14-9.516 27.672 0 17.578 9.516 27.703 9.531 10.14 26.094 10.14 6.531 0 12.312-1.734 5.797-1.734 10.875-5.203z" id="DejaVuSans-67"/><path d="M3.328 72.906h9.953L28.61 11.281l15.282 61.625h11.093l15.328-61.625 15.282 61.625h10.015L77.297 0H64.89L49.516 63.281 33.984 0H21.578z" id="DejaVuSans-87"/><path d="M9.078 75.984h9.031V31.11l26.813 23.578H56.39l-29-25.578L57.625 0H45.906L18.11 26.703V0H9.08z" id="DejaVuSans-107"/><path d="M4.89 31.39h26.313v-8H4.891z" id="DejaVuSans-45"/><path d="M11.719 12.406h10.297V0H11.719zm0 39.297h10.297v-12.39H11.719z" id="DejaVuSans-58"/><path d="M45.406 27.984q0 9.766-4.031 15.125-4.016 5.375-11.297 5.375-7.219 0-11.25-5.375-4.031-5.359-4.031-15.125 0-9.718 4.031-15.093t11.25-5.375q7.281 0 11.297 5.375 4.031 5.375 4.031 15.093zm8.985-21.203q0-13.953-6.203-20.765Q42-20.797 29.203-20.797q-4.734 0-8.937.703-4.203.703-8.157 2.172v8.735q3.954-2.141 7.813-3.157 3.86-1.031 7.86-1.031 8.843 0 13.234 4.61 4.39 4.609 4.39 13.937v4.453q-2.781-4.844-7.125-7.234Q33.938 0 27.875 0 17.828 0 11.672 7.656q-6.156 7.672-6.156 20.328 0 12.688 6.156 20.344Q17.828 56 27.875 56q6.063 0 10.406-2.39 4.344-2.391 7.125-7.22v8.297h8.985z" id="DejaVuSans-103"/></defs><use xlink:href="#DejaVuSans-78"/><use x="74.805" xlink:href="#DejaVuSans-101"/><use x="136.328" xlink:href="#DejaVuSans-119"/><use x="218.115" xlink:href="#DejaVuSans-32"/><use x="249.902" xlink:href="#DejaVuSans-67"/><use x="319.727" xlink:href="#DejaVuSans-97"/><use x="381.006" xlink:href="#DejaVuSans-115"/><use x="433.105" xlink:href="#DejaVuSans-101"/><use x="494.629" xlink:href="#DejaVuSans-115"/><use x="546.729" xlink:href="#DejaVuSans-32"/><use x="578.516" xlink:href="#DejaVuSans-87"/><use x="671.518" xlink:href="#DejaVuSans-101"/><use x="733.041" xlink:href="#DejaVuSans-101"/><use x="794.564" xlink:href="#DejaVuSans-107"/><use x="852.475" xlink:href="#DejaVuSans-45"/><use x="890.434" xlink:href="#DejaVuSans-111"/><use x="951.615" xlink:href="#DejaVuSans-118"/><use x="1010.795" xlink:href="#DejaVuSans-101"/><use x="1072.318" xlink:href="#DejaVuSans-114"/><use x="1107.057" xlink:href="#DejaVuSans-45"/><use x="1139.141" xlink:href="#DejaVuSans-87"/><use x="1232.143" xlink:href="#DejaVuSans-101"/><use x="1293.666" xlink:href="#DejaVuSans-101"/><use x="1355.189" xlink:href="#DejaVuSans-107"/><use x="1413.1" xlink:href="#DejaVuSans-58"/><use x="1446.791" xlink:href="#DejaVuSans-32"/><use x="1478.578" xlink:href="#DejaVuSans-55"/><use x="1542.201" xlink:href="#DejaVuSans-32"/><use x="1573.988" xlink:href="#DejaVuSans-97"/><use x="1635.268" xlink:href="#DejaVuSans-118"/><use x="1694.447" xlink:href="#DejaVuSans-103"/></g><g id="legend_1"><path d="M128.2 184.5h136.45q3.2 0 3.2-3.2V88.96q0-3.2-3.2-3.2H128.2q-3.2 0-3.2 3.2v92.34q0 3.2 3.2 3.2z" style="fill:none;opacity:.8;stroke:#ccc;stroke-linejoin:miter" id="patch_5"/><path d="M131.4 98.718h32" style="fill:none;stroke:#000;stroke-linecap:round;stroke-width:1.5" id="line2d_6"/><g style="fill:#696969" transform="matrix(.16 0 0 -.16 176.2 104.317)" id="text_18"><defs><path d="M8.688 72.906h9.921V28.61q0-11.718 4.235-16.875 4.25-5.14 13.781-5.14 9.469 0 13.719 5.14 4.25 5.157 4.25 16.875v44.297H64.5V27.391q0-14.25-7.063-21.532-7.046-7.28-20.812-7.28-13.828 0-20.89 7.28-7.047 7.282-7.047 21.532z" id="DejaVuSans-85"/></defs><use xlink:href="#DejaVuSans-85"/><use x="73.193" xlink:href="#DejaVuSans-83"/></g><path d="M131.4 122.203h32" style="fill:none;stroke:#009e73;stroke-linecap:round;stroke-width:1.5" id="line2d_8"/><g style="fill:#696969" transform="matrix(.16 0 0 -.16 176.2 127.802)" id="text_19"><use xlink:href="#DejaVuSans-78"/><use x="74.805" xlink:href="#DejaVuSans-74"/></g><path d="M131.4 145.688h32" style="fill:none;stroke:#d55e00;stroke-linecap:round;stroke-width:1.5" id="line2d_10"/><g style="fill:#696969" transform="matrix(.16 0 0 -.16 176.2 151.287)" id="text_20"><defs><path d="M19.672 34.813V8.108H35.5q7.953 0 11.781 3.297 3.844 3.297 3.844 10.078 0 6.844-3.844 10.078-3.828 3.25-11.781 3.25zm0 29.984V42.828h14.61q7.218 0 10.75 2.703 3.546 2.719 3.546 8.282 0 5.515-3.547 8.25-3.531 2.734-10.75 2.734zm-9.86 8.11h25.204q11.28 0 17.375-4.688Q58.5 63.53 58.5 54.89q0-6.703-3.125-10.657-3.125-3.953-9.188-4.922 7.282-1.562 11.313-6.53 4.031-4.954 4.031-12.376 0-9.765-6.64-15.093Q48.25 0 35.984 0H9.812z" id="DejaVuSans-66"/></defs><use xlink:href="#DejaVuSans-66"/><use x="68.604" xlink:href="#DejaVuSans-101"/><use x="130.127" xlink:href="#DejaVuSans-114"/><use x="169.49" xlink:href="#DejaVuSans-103"/><use x="232.967" xlink:href="#DejaVuSans-101"/><use x="294.49" xlink:href="#DejaVuSans-110"/></g><path d="M131.4 169.173h32" style="fill:none;stroke:#0072b2;stroke-linecap:round;stroke-width:1.5" id="line2d_12"/><g style="fill:#696969" transform="matrix(.16 0 0 -.16 176.2 174.773)" id="text_21"><defs><path d="M44.39 34.188q3.172-1.079 6.172-4.594 3-3.516 6.032-9.672L66.609 0H56l-9.313 18.703q-3.624 7.328-7.015 9.719-3.39 2.39-9.25 2.39h-10.75V0h-9.86v72.906h22.266q12.5 0 18.656-5.234 6.157-5.219 6.157-15.766 0-6.89-3.203-11.437-3.204-4.532-9.297-6.282zM19.673 64.797V38.922h12.406q7.125 0 10.766 3.297 3.64 3.297 3.64 9.687 0 6.39-3.64 9.64-3.64 3.25-10.766 3.25z" id="DejaVuSans-82"/><path d="M18.313 70.219V54.688h18.5v-6.985h-18.5V18.016q0-6.688 1.828-8.594 1.828-1.906 7.453-1.906h9.218V0h-9.218q-10.407 0-14.36 3.875-3.953 3.89-3.953 14.14v29.688H2.687v6.984h6.594V70.22z" id="DejaVuSans-116"/><path d="M54.89 33.016V0h-8.984v32.719q0 7.765-3.031 11.61-3.031 3.858-9.078 3.858-7.281 0-11.484-4.64-4.204-4.625-4.204-12.64V0H9.08v75.984h9.03V46.188q3.235 4.937 7.594 7.374Q30.078 56 35.797 56q9.422 0 14.25-5.828 4.844-5.828 4.844-17.156z" id="DejaVuSans-104"/><path d="M45.406 46.39v29.594h8.985V0h-8.985v8.203Q42.578 3.328 38.25.953q-4.313-2.375-10.375-2.375-9.906 0-16.14 7.906-6.22 7.922-6.22 20.813 0 12.89 6.22 20.797Q17.968 56 27.874 56q6.063 0 10.375-2.375 4.328-2.36 7.156-7.234zm-30.61-19.093q0-9.906 4.079-15.547 4.078-5.64 11.203-5.64 7.125 0 11.219 5.64 4.11 5.64 4.11 15.547 0 9.906-4.11 15.547-4.094 5.64-11.219 5.64-7.125 0-11.203-5.64-4.078-5.64-4.078-15.547z" id="DejaVuSans-100"/></defs><use xlink:href="#DejaVuSans-82"/><use x="64.982" xlink:href="#DejaVuSans-117"/><use x="128.361" xlink:href="#DejaVuSans-116"/><use x="167.57" xlink:href="#DejaVuSans-104"/><use x="230.949" xlink:href="#DejaVuSans-101"/><use x="292.473" xlink:href="#DejaVuSans-114"/><use x="333.586" xlink:href="#DejaVuSans-102"/><use x="368.791" xlink:href="#DejaVuSans-111"/><use x="429.973" xlink:href="#DejaVuSans-114"/><use x="469.336" xlink:href="#DejaVuSans-100"/></g></g></g></g><defs><clipPath id="pb6ce80c3f3"><path d="M117 77.76h725.4v498.96H117z"/></clipPath></defs></svg>