<svg height="864" viewBox="0 0 936 648" width="1248" xmlns="http://www.w3.org/2000/svg" xmlns:xlink="http://www.w3.org/1999/xlink"><defs><style>*{stroke-linecap:butt;stroke-linejoin:round}</style></defs><g id="figure_1"><path d="M0 648h936V0H0z" style="fill:#fff" id="patch_1"/><g id="axes_1"><path d="M117 576.72h725.4V77.76H117z" style="fill:none" id="patch_2"/><g id="PolyCollection_1"><defs><path d="M150.994-101.853H208.159l1.022-1.413 1.02.185 1.021.12 1.021-.742 1.021.144 1.02-2.33 1.022-2.04 1.02-4.198 1.021.107 1.021-1.8 1.021-.994 1.02-3.628 1.022-5.922 1.02-4.74 1.021 1.272 1.021-4.455 1.021-12.722 1.02-6.774 1.022-1.105 1.02-.88 1.021.233 1.021-3.606 1.02-5.835 1.022.086 1.02.067 1.021-3.2 1.021 1.476 1.021.52 1.02-6.381 1.022-3.313 1.02 11.64 1.021 13.16 1.021-.376 1.021 3.368 1.02-1.052 1.022 5.825 1.02.176 1.021-.177 1.021-.397 1.021.068 1.02 3.248 1.022 1.342 1.02.348 1.021-.568 1.021-.802 1.021.27 1.02 5.27 1.022 3.555 1.02 5.519 1.021 6.176 1.021 7.36 1.02 3.009 1.022.412 1.02 1.004 1.021-4.243 1.021.484 1.021 1.427 1.02 1.402 1.022 2.132 1.02-1.434 1.021-1.311 1.021-2.55 1.021-1.325 1.02-.863 1.022.893 1.02.024 1.021-.024 1.021 4.228 1.021 3.076 1.02 1.115 1.022 1.228 1.02-.85 1.021.2 1.021.111 1.021-2.999 1.02-.23 1.022-.297 1.02-.386 1.021-.349 1.021-.456 1.02-.652 1.022-.08 1.02.02 1.021-.965 1.021-.202 1.021.775 1.02-.277 1.022-.534 1.02 3.428 1.021.277 1.021.19 1.021.135 1.02.095 1.022.062 1.02.032 1.021-1.968 1.021.92 1.021-.167 1.02-1.166 1.022-.089 1.02-.101 1.021-.118 1.021-3.195 1.02 1.184 1.022-.71 1.02.144 1.021.056 1.021-.028 1.021-.113 1.02-3.389 1.022-.63 1.02.989h1.021l1.021-.989 1.021-.17 1.02-.349 1.022 1.855 1.02-1.142 1.021.82 1.021-.18 1.021-.23 1.02-.303 1.022-.455 1.02 6.906 1.021-1.692 1.021-.864 1.021.061 1.02 2.056 1.022.021 1.02-.08 1.021 1.077 1.021.996 1.02.021 1.022-1.111 1.02-.238 1.021-.366 1.021-.6 1.021-.975 1.02 3.021 1.022-.068 1.02.916 1.021.111 1.021.045 1.021-.015 1.02 1.093 1.022.123 1.02-.946 1.021.964 1.021-1.065 1.021-.141 1.02-.194 1.022-.613 1.02-.079 1.021.902 1.021-.965 1.021-.859 1.02.081 1.022.065h1.02l1.021-1.661 1.021.207 1.02-.756 1.022 1.035 1.02.036 1.021.005 1.021-.025 1.021-.059 1.02-3.595 1.022 1.02 1.02.94 1.021-.073 1.021-.13 1.021-.204 1.02-.924 1.022.918 1.02.965 1.021-.059 1.021-.066 1.021-.074 1.02-.085 1.022-.098 1.02 1.997 1.021-.988 1.021.031 1.021.01 1.02-.01 1.022-2.784 1.02 2.753 1.021-1.028h4.083l1.021.973 1.021.003 1.021 2.073 1.02 1.287 1.022.232 1.02.177 1.021.136 1.021.918 1.021-.912 1.02-3.86 1.022-7.164 1.02-.654 1.021.888 1.021.668 1.021-1.227 1.02-4.575 1.022-.124 1.02-3.835 1.021-3.722 1.021-2.034 1.021-2.31 1.02-.211 1.022.086 1.02-.117 1.021 7.923 1.021 1.222 1.02-.86 1.022-1.067 1.02-4.994 1.021 1.472 1.021-4.363 1.021-.118 1.02-.006 1.022 2.822 1.02 2.61 1.021-10 1.021-1.09 1.021-2.48 1.02-1.92 1.022-3.611 1.02.686 1.021.304 1.021-10.462 1.021 1.104 1.02 5.173 1.022-10.243 1.02-.994 1.021.024 1.021-1.088 1.021-3.939 1.02-9.908 1.022-3.997 1.02-3.923 1.021-6.98 1.021-3.564 1.02.132 1.022 4.966 1.02-3.933 1.021-6.66 1.021 15.224 1.021 5.473 1.02-20.459 1.022-1.978 1.02-.516 1.021 3.402 1.021-.033 1.021-8.155 1.02-8.62 1.022-4.206 1.02 1.183 1.021 3.392 1.021-3.056 1.021 1.546 1.02-15.722 1.022-7.648 1.02 19.307 1.021-.177 1.021-.546 1.021-3.305 1.02 1.532 1.022 14.778 1.02 8.124 1.021 13.518 1.021 2.113 1.02-15.119 1.022 5.364 1.02-21.145 1.021 11.597 1.021 6.36 1.021-.403 1.02-.674 1.022-16.192 1.02 2.49 1.021-11.45 1.021-8.048 1.021 16.515 1.02-1.006 1.022-1.503 1.02-5.636 1.021-10.093 1.021 12.541 1.021-9.186 1.02-10.971 1.022-8.5 1.02-.021 1.021 7.867 1.021-5.91 1.021 4.005 1.02 1.27 1.022-9.741 1.02-.68 1.021-1.366 1.021 31.836 1.02-2.242 1.022 3.731 1.02 12.943 1.021 11.96 1.021 12.887 1.021 1.99 1.02-7.903 1.022 7.208 1.02 9.568 1.021 4.39 1.021-7.77 1.021-8.411 1.02-5.783 1.022-1.403 1.02 19.414 1.021-18.228 1.021-5.627 1.021-4.473 1.02.123 1.022.114 1.02 14.17 1.021-2.956 1.021 1.09 1.021-.062 1.02 11.823 1.022-1.42 1.02.274 1.021.06 1.021-14.008 1.02 21.291 1.022 5.859 1.02 2.276 1.021-.277 1.021-8.231 1.021 12.473 1.02 1.3 1.022 1.053 1.02-7.575 1.021-4.014 1.021 6.627 1.021-.291 1.02-15.523 1.022.799 1.02-.708 1.021.385 1.021-7.39 1.021.894 1.02 6.939 1.022-9.139 1.02 1.728 1.021-4.24 1.021-.87 1.021 3.716 1.02-1.278 1.022-2.072 1.02-6.293 1.021 2.44 1.021-2.377 1.02-.84 1.022 8.746 1.02.062 1.021-.825 1.021-9.368 1.021-1.609 1.02 1.2 1.022 5.785 1.02-1.998 1.021-.09 1.021-8.122 1.021 11.59 1.02-.938 1.022 5.088 1.02-14 1.021-3.319 1.021.202 1.021-.104 1.02 6.76 1.022-1.88 2.041-.874v-1.107l1.021 1.782 1.021-1.141 1.02 8.893 1.022.869 1.02 3.21 1.021-2.432 1.021 6.852 1.02 4.829 1.022-4.864 1.02-.315 1.021 15.206 1.021 8.673 1.021 3.197 1.02 2.614 1.022.205 1.02.497 1.021-.033 1.021 3.83 1.021 1.893 1.02 1.284 1.022 8.04 1.02-4.118 1.021 2.667 1.021-2.356 1.021.312 1.02-.177 1.022-.261 1.02 4.96 1.021 2.982 1.021-.233 1.02-.709 1.022 1.553 1.02 2.713 1.021 1.827 1.021 4.772 1.021 10.143 1.02 2.155 1.022.611 1.02 2.383 1.021 1.042 1.021 6.005 1.021 1.25 1.02 2.22 1.022-.2 1.02-.723 1.021 3.181 1.021-.89 1.021-1.256 1.02-3.358 1.022-.479 1.02-.588 1.021-.892 1.021-.931 1.021-1.299 1.02-1.348 1.022.625 1.02-.111 1.021-.142 1.021-.186 1.02-.123 1.022-2.677 1.02.063 1.021 1.927 1.021-.008 1.021-.012 1.02-.017 1.022-.023 1.02-.03 1.021.994H677.74l1.021 3.142 1.021 1.214 1.021.276 1.02-3.899 1.022-.043 1.02-.048 1.021-.053 1.021-.057h1.021l1.02-.907 1.022.052 1.02.048 1.021.043 1.021.04 1.02-.12 1.022-.378 1.02-1.619 1.021 3.013 1.021.095 1.021.08 1.02.068 1.022.059 1.02-.965 1.021-.965H708.365l1.021-.965 1.021-3.894 1.02.483 1.022.285 1.02-15.854 1.021.542 1.021 1.58 1.021-3.133 1.02-3.144 1.022 1.012 1.02.474 1.021-6.12 1.021-2.634 1.02-1.346 1.022-1.056 1.02 3.316 1.021-2.342 1.021-3.896 1.021 9.923 1.02-1.544 1.022-5.774 1.02.574 1.021 3.095 1.021.185 1.021.17 1.02-2.973 1.022.598 1.02-.674 1.021-2.919 1.021.557 1.021-.537 1.02-.775 1.022 8.234 1.02-.637 1.021 4.649 1.021 1.636 1.021 2.734 1.02.582 1.022.424 1.02 3.308 1.021-4.935 1.021-6.047 1.02 1.373 1.022-5.122 1.02-.326 1.021-.36 1.021 2.063 1.021-6.756 1.02-2.64 1.022 5.071 1.02-4.416 1.021.093 1.021-.21 1.021-2.795 1.02 3.004 1.022 2.51 1.02-6.368 1.021.74 1.021-.36 1.021-.539 1.02-11.895 1.022 10.485 1.02.966 1.021-4.901 1.021 1.97 1.021.02h1.02l1.022 4.905 1.02-.06 1.021-.381 1.021 4.307 1.02.348 1.022.296 1.02.253 1.021 8.805 1.021-.22 1.021-.535 1.02 5.212 1.022-8.111 1.02-.568 1.021-.802 1.021 3.682 1.021-3.356 1.02 1.348 1.022 1.81 1.02 1.843 1.021-.275 1.021-.518 1.021-3.87 1.02-.932 1.022 4.955 1.02-4.095 1.021 9.287 1.021.307 1.021.085 1.02-1.846 1.022 5.084 1.02 2.404 1.021.383v-9.68l-1.02.383-1.021-1.455-1.021-4.563-1.021 2.013-1.02.085-1.022.307-1.02-8.078-1.021 3.622-1.021-4.692-1.021.998-1.02 3.848-1.022-.519-1.02-.274-1.021-2.016-1.021-2.05-1.021-2.51-1.02 2.432-1.022-4.035-1.02-.803-1.021-.567-1.021 7.324-1.02-4.435-1.022 1.395-1.02 1.708-1.021-8.56-1.021.253-1.021.296-1.02.348-1.022-3.41-1.02-.381-1.021-.06-1.021-4.744h-1.021l-1.02.02-1.022-1.888-1.02 4.747-1.021-.964-1.021-10.74-1.021 13.189-1.02-.538-1.022-.361-1.02-1.19-1.021 5.21-1.021-3.279-1.021-4.714-1.02 1.063-1.022-.209-1.02.093-1.021 5.231-1.021-4.576-1.02 5.078-1.022 8.68-1.02-1.796-1.021-.36-1.021-.326-1.021 4.525-1.02-2.485-1.022 5.528-1.02 4.713-1.021-2.48-1.021.424-1.021.582-1.02-1.125-1.022-.293-1.02-3.07-1.021 1.293-1.021-7.202-1.021-.775-1.02-.537-1.022-1.372-1.02.94-1.021-.674-1.021-1.332-1.021 2.815-1.02.17-1.022.186-1.02-2.694-1.021-1.355-1.021 3.873-1.02.385-1.022-11.3-1.02-3.897-1.021-2.341-1.021-6.332-1.021-1.055-1.02.583-1.022 3.155-1.02 7.386-1.021.473-1.021 1.013-1.021 6.503-1.02 6.514-1.022 1.58-1.02 4.4-1.021 24.666-1.021.284-1.021.483-1.02 5.754-1.022.964h-6.125l-1.02.965-1.021.965-1.021.059-1.02.068-1.022.08-1.02.095-1.021-2.776-1.021.31-1.021-.377-1.02-.12-1.022.04-1.02.043-1.021.048-1.021.052-1.021 1.022h-1.02l-1.022-.057-1.02-.053-1.021-.048-1.021-.043-1.021 3.82-1.02.274-1.022-.715-1.02-2.646h-5.105l-1.02-.936-1.021-.03-1.021-.022-1.02-.018-1.022-.012-1.02-.007-1.021-1.932-1.021.062-1.021 3.112-1.02-.123-1.022-.186-1.02-.142-1.021-.111-1.021-1.305-1.021.582-1.02-1.299-1.022-.93-1.02-.893-1.021-.588-1.021-.48-1.021.502-1.02-1.256-1.022-.89-1.02-4.537-1.021-.723-1.021-.2-1.02-1.638-1.022-.68-1.02-5.572-1.021-.887-1.021-1.477-1.021.611-1.02.226-1.022-7.223-1.02-2.945-1.021-2.032-1.021-3.075-1.021-2.306-1.02-.71-1.022-.233-1.02-2.805-1.021-4.688-1.021-.261-1.021-.177-1.02-1.617-1.022-2.356-1.02-5.052-1.021 3.6-1.021-7.395-1.021-2.575-1.02-1.966-1.022-3.888-1.02-.033-1.021-1.433-1.021.205-1.02-1.245-1.022-.662-1.02-4.833-1.021-11.807-1.021-.315-1.021 4.784-1.02-2.89-1.022-4.723-1.02 1.425-1.021-2.577-1.021-1.061-1.021-8.471-1.02.788-1.022-2.077v.822l-2.041 1.055-1.021 1.98-1.021-6.746-1.02-.104-1.022.201-1.02 4.4-1.021 14.941-1.021-4.559-1.021.992-1.02-11.564-1.022 9.243-1.02-.09-1.021 1.86-1.021-5.79-1.02-.73-1.022 2.25-1.02 9.926-1.021-.825-1.021.062-1.021-8.619-1.02-.84-1.022 1.481-1.02-3.347-1.021 7.212-1.021-2.072-1.021-1.277-1.02-4.002-1.022 1.059-1.02 3.478-1.021-2.131-1.021 10.156-1.021-6.567-1.02.895-1.022 9.974-1.02.385-1.021 1.222-1.021-6.92-1.021 15.349-1.02-.291-1.022-6.879-1.02 3.703-1.021 5.932-1.021-.876-1.02-.63-1.022-10.68-1.02 5.274-1.021-.276-1.021-1.583-1.021-3.789-1.02-19.227-1.022 13.004-1.02.06-1.021.274-1.021 2.44-1.021-9.402-1.02-.062-1.022-.84-1.02 2.832-1.021-14.77-1.021.113-1.021.123-1.02 3.244-1.022 2.092-1.02 12.643-1.021-21.104-1.021-1.404-1.021-5.782-1.02 1.235-1.022 3.808-1.02-3.329-1.021-7.797-1.021-6.298-1.02 9.462-1.022 1.99-1.02-6.408-1.021-5.404-1.021-8.282-1.021-3.987-1.02 3.546-1.022-31.836-1.02-1.366-1.021-.68-1.021 9.554-1.021-.66-1.02-3.712-1.022 5.667-1.02-7.57-1.021-.02-1.021 10.794-1.021 12.183-1.02 10.108-1.022-12.541-1.02 11.13-1.021 5.942-1.021-1.503-1.021-1.006-1.02-16.287-1.022 13.176-1.02 11.705-1.021-5.228-1.021 14.68-1.02-.675-1.022-.403-1.02-11.005-1.021-13.486-1.021 21.303-1.021-4.284-1.02 15.753-1.022 2.113-1.02-7.706-1.021-5.382-1.021-16.094-1.021-6.186-1.02.554-1.022-.546-1.02-.177-1.021-19.282-1.021 9.717-1.021 19.008-1.02-.383-1.022 4.662-1.02-2.397-1.021 1.184-1.021 7.37-1.021 10.675-1.02 7.28-1.022-1.962-1.02-6.245-1.021-4.375-1.021-1.978-1.02 18.13-1.022-8.033-1.02-17.577-1.021 4.917-1.021 3.785-1.021-4.682-1.02.133-1.022 6.083-1.02 10.385-1.021 5.725-1.021 5.65-1.021 11.316-1.02 3.78-1.022-1.09-1.02.024-1.021 2.866-1.021 12.91-1.021-4.474-1.02 1.103-1.022 14.622-1.02.304-1.021.686-1.021 6.036-1.021 3.868-1.02 3.31-1.022.838-1.02 9.295-1.021-3.178-1.021-2.966-1.02-.006-1.022-.118-1.02 3.354-1.021-2.387-1.021 2.724-1.021-1.067-1.02-.86-1.022-2.637-1.02-9.442-1.021-2.046-1.021-1.844-1.021-.21-1.02 3.478-1.022 3.754-1.02 5.926-1.021 5.812-1.021 1.805-1.021 7.002-1.02 2.632-1.022.668-1.02.888-1.021 3.205-1.021 10.2-1.021 3.86-1.02 1.017-1.022-1.012-1.02.136-1.021.177-1.021.232-1.02-.642-1.022-1.786-1.02.003-1.021-.956h-4.084l-1.02.9-1.021-3.035-1.021 3.004-1.021-.01-1.02.01-1.022.032-1.02.94-1.021-1.861-1.021-.098-1.021-.085-1.02-.074-1.022-.066-1.02-.059-1.021-.964-1.021-1.011-1.021 1.005-1.02-.204-1.022-.13-1.02-.073-1.021-.989-1.021-.91-1.02 4.122-1.022-.058-1.02-.026-1.021.005-1.021.037-1.021-.895-1.02 1.174-1.022.207-1.02 2.197h-1.021l-1.021.065-1.021.081-1.02 1.071-1.022.965-1.02-1.028-1.021-.078-1.021-.614-1.021-.194-1.02-.14-1.022.863-1.02-.965-1.021.984-1.021.123-1.021-.837-1.02-.015-1.022.045-1.02.111-1.021-1.013-1.021-.068-1.02-2.767-1.022.954-1.02-.6-1.021-.366-1.021-.238-1.021.818-1.02.02-1.022-.932-1.02-.853-1.021-.08-1.021.021-1.021-1.803-1.02.062-1.022 1.065-1.02 2.166-1.021-4.67-1.021-.455-1.021-.304-1.02-.229-1.022-.18-1.02-1.11-1.021.788-1.021-2.004-1.02-.349-1.022-.17-1.02.94h-1.021l-1.021-.94-1.021 1.299-1.02 4.33-1.022-.114-1.02-.027-1.021.055-1.021.144-1.021 1.22-1.02-.746-1.022 4.523-1.02-.118-1.021-.101-1.021-.089-1.021.764-1.02-.168-1.022-1.009-1.02 1.891-1.021.032-1.021.062-1.021.095-1.02.135-1.022.19-1.02.277-1.021-2.36-1.021-.534-1.02-.278-1.022-1.154-1.02-.202-1.021.965-1.021.02-1.021-.08-1.02-.653-1.022-.456-1.02-.348-1.021-.386-1.021-.298-1.021-.23-1.02 2.79-1.022.111-1.02.201-1.021 1.078-1.021-.701-1.021-.815-1.02-2.712-1.022-3.49-1.02-.023-1.021.023-1.021-1.037-1.021-.862-1.02-1.326-1.022-.62-1.02-1.31-1.021-1.434-1.021-3.657-1.02-2.457-1.022-2.432-1.02-1.445-1.021 3.474-1.021-.925-1.021.412-1.02-.85-1.022-4.217-1.02-3.471-1.021-4.128-1.021-2.233-1.021-4.379-1.02.271-1.022-.802-1.02-4.427-1.021-3.512-1.021-2.516-1.021-4.47-1.02-1.862-1.022-.396-1.02-.177-1.021.176-1.021-3.822-1.021 2.806-1.02-.491-1.022 3.484-1.02-8.064-1.021-13.444-1.021-5.242-1.02-.593-1.022-5.268-1.02-6.243-1.021-1.27-1.021-3.792-1.021-1.844-1.02 5.742-1.022 4.112-1.02.233-1.021 2.98-1.021 4.682-1.021 12.521-1.02 18.15-1.022 7.121-1.02 1.272-1.021 8.767-1.021 9.513-1.021 6.02-1.02 2.865-1.022 3.988-1.02 2.037-1.021 7.378-1.021 3.75-1.021 3.457-1.02.145-1.022 1.186-1.02.121-1.021.185-1.021 2.445H150.994z" id="m538ca4c817" style="stroke:#fff;stroke-opacity:.2"/></defs><g clip-path="url(#p73e3ef9c39)"><use style="fill:#089fff;fill-opacity:.2;stroke:#fff;stroke-opacity:.2" xlink:href="#m538ca4c817" y="648"/></g></g><g id="LineCollection_1"><path clip-path="url(#p73e3ef9c39)" d="M209.18 546.147v-27.012M212.243 546.147v-13.506M214.285 546.147V505.63M215.306 546.147V505.63M216.327 546.147V465.11M217.347 546.147v-13.506M218.368 546.147V505.63M219.389 546.147v-27.012M220.41 546.147v-67.531M221.43 546.147v-108.05M222.451 546.147v-94.544M223.472 546.147v-27.012M224.493 546.147V465.11M225.514 546.147v-216.1M226.535 546.147V397.578M227.556 546.147V505.63M228.576 546.147v-67.531M229.597 546.147V505.63M230.618 546.147V411.085M231.639 546.147v-94.544M232.66 546.147v-27.012M234.701 546.147V465.11M235.722 546.147v-54.025M236.743 546.147v-54.025M237.764 546.147v-67.531M238.785 546.147v-67.531M239.806 546.147V505.63M241.847 546.147v-67.531M242.868 546.147V505.63M243.889 546.147v-67.531M244.91 546.147v-67.531M245.93 546.147v-94.544M246.951 546.147v-27.012M248.993 546.147v-67.531M251.035 546.147v-27.012M252.055 546.147V505.63M253.076 546.147V505.63M254.097 546.147V505.63M260.222 546.147v-13.506M263.285 546.147v-54.025M264.305 546.147v-54.025M265.326 546.147v-13.506M266.347 546.147v-13.506M267.368 546.147v-13.506M271.451 546.147v-13.506M278.597 546.147v-13.506M281.66 546.147v-27.012M284.722 546.147V505.63M285.743 546.147v-13.506M292.889 546.147v-13.506M293.91 546.147v-13.506M295.951 546.147v-13.506M300.034 546.147v-13.506M306.16 546.147v-27.012M308.201 546.147v-13.506M309.222 546.147v-13.506M310.243 546.147v-13.506M313.305 546.147v-54.025M315.347 546.147v-13.506M320.45 546.147V465.11M321.472 546.147v-13.506M323.513 546.147v-13.506M324.534 546.147v-27.012M327.597 546.147v-27.012M328.618 546.147v-13.506M335.763 546.147V505.63M336.784 546.147v-13.506M337.805 546.147v-13.506M341.888 546.147v-13.506M344.95 546.147v-13.506M349.034 546.147v-13.506M351.076 546.147v-13.506M358.222 546.147v-13.506M360.263 546.147v-13.506M363.326 546.147v-13.506M366.388 546.147v-13.506M367.409 546.147v-13.506M371.492 546.147v-27.012M372.513 546.147v-13.506M373.534 546.147v-13.506M377.617 546.147v-13.506M379.659 546.147v-54.025M385.784 546.147V505.63M391.909 546.147v-13.506M393.95 546.147v-27.012M394.971 546.147v-13.506M399.055 546.147V505.63M401.096 546.147v-13.506M413.346 546.147v-27.012M414.367 546.147v-13.506M415.388 546.147v-67.531M416.409 546.147V424.591M417.43 546.147v-27.012M420.492 546.147v-27.012M421.513 546.147V465.11M422.534 546.147v-13.506M423.554 546.147v-67.531M424.575 546.147v-67.531M425.596 546.147V505.63M426.617 546.147V505.63M427.638 546.147v-27.012M429.68 546.147v-54.025M434.784 546.147V465.11M435.804 546.147v-54.025M436.825 546.147v-67.531M437.846 546.147v-67.531M438.867 546.147v-67.531M441.93 546.147V384.072M442.95 546.147v-13.506M443.971 546.147v-94.544M444.992 546.147V505.63M446.013 546.147v-67.531M449.075 546.147V289.528M450.096 546.147v-54.025M452.138 546.147V316.541M453.158 546.147v-94.544M456.221 546.147v-216.1M457.242 546.147V384.072M458.263 546.147V384.072M459.283 546.147v-108.05M460.304 546.147V357.06M461.325 546.147v-67.531M463.367 546.147V357.06M464.388 546.147v-108.05M465.408 546.147V465.11M468.47 546.147V276.022M470.513 546.147V357.06M471.533 546.147v-94.544M472.554 546.147V397.578M473.575 546.147v-216.1M474.596 546.147v-324.15M475.617 546.147V397.578M477.658 546.147V397.578M478.68 546.147V384.072M479.7 546.147v-67.531M480.72 546.147V303.034M481.742 546.147V424.591M484.804 546.147V357.06M485.825 546.147V424.591M486.846 546.147v-94.544M488.887 546.147V316.541M491.95 546.147v-364.67M492.97 546.147v-94.544M493.992 546.147v-364.67M495.012 546.147v-67.531M499.096 546.147V140.96M500.117 546.147v-67.531M501.137 546.147V289.528M502.158 546.147V397.578M506.242 546.147V100.44M507.262 546.147V303.034M508.283 546.147V357.06M509.304 546.147V343.553M510.325 546.147V384.072M511.346 546.147V411.085M513.387 546.147V249.01M514.408 546.147V397.578M515.429 546.147V343.553M516.45 546.147V411.085M517.47 546.147V411.085M521.554 546.147V262.515M522.575 546.147V411.085M523.596 546.147v-54.025M524.616 546.147V505.63M527.679 546.147V127.453M528.7 546.147v-54.025M529.72 546.147V465.11M530.741 546.147V465.11M531.762 546.147v-216.1M532.783 546.147v-67.531M536.866 546.147V194.984M537.887 546.147v-108.05M538.908 546.147v-94.544M541.97 546.147v-216.1M542.991 546.147v-94.544M544.012 546.147v-67.531M545.033 546.147V465.11M546.054 546.147v-67.531M547.075 546.147v-94.544M550.137 546.147V357.06M551.158 546.147v-67.531M552.179 546.147V505.63M553.2 546.147v-67.531M555.241 546.147v-94.544M556.262 546.147v-54.025M557.283 546.147V465.11M558.304 546.147v-54.025M559.325 546.147V370.566M560.345 546.147V424.591M563.408 546.147v-216.1M564.429 546.147V411.085M565.45 546.147V465.11M566.47 546.147V505.63M567.491 546.147V357.06M570.554 546.147V357.06M571.574 546.147v-54.025M572.595 546.147v-108.05M573.616 546.147V357.06M574.637 546.147v-67.531M577.7 546.147V235.503M578.72 546.147v-94.544M579.741 546.147v-108.05M580.762 546.147V505.63M581.783 546.147v-67.531M584.845 546.147v-324.15M585.866 546.147V465.11M586.887 546.147v-94.544M587.908 546.147v-108.05M588.929 546.147v-94.544M590.97 546.147V424.591M591.991 546.147V397.578M593.012 546.147v-108.05M594.033 546.147V505.63M595.054 546.147V303.034M596.074 546.147V424.591M599.137 546.147V316.541M600.158 546.147v-108.05M602.2 546.147v-108.05M602.2 546.147V424.591M603.22 546.147v-67.531M604.241 546.147v-13.506M606.283 546.147V411.085M607.303 546.147v-67.531M608.324 546.147v-67.531M609.345 546.147V384.072M610.366 546.147v-67.531M611.387 546.147v-67.531M613.428 546.147V505.63M614.45 546.147v-13.506M615.47 546.147V465.11M616.49 546.147v-94.544M617.512 546.147v-67.531M620.574 546.147V465.11M621.595 546.147V505.63M622.616 546.147V505.63M623.637 546.147v-54.025M624.658 546.147V424.591M625.678 546.147v-13.506M627.72 546.147v-27.012M628.74 546.147v-13.506M629.762 546.147V465.11M630.782 546.147v-27.012M631.803 546.147v-27.012M634.866 546.147v-54.025M636.907 546.147v-13.506M645.074 546.147v-13.506M651.199 546.147v-13.506M652.22 546.147v-27.012M658.345 546.147v-13.506M664.47 546.147V505.63M665.49 546.147v-13.506M681.824 546.147v-54.025M687.949 546.147v-13.506M695.095 546.147v-13.506M696.115 546.147v-13.506M701.22 546.147v-13.506M702.24 546.147v-27.012M709.386 546.147v-27.012M710.407 546.147V465.11M713.47 546.147V262.515M714.49 546.147v-27.012M715.511 546.147v-13.506M716.532 546.147v-94.544M717.553 546.147v-67.531M720.615 546.147v-94.544M721.636 546.147V505.63M722.657 546.147v-13.506M723.678 546.147v-27.012M724.699 546.147v-13.506M727.761 546.147V411.085M728.782 546.147V505.63M729.803 546.147V465.11M730.824 546.147V465.11M731.844 546.147v-27.012M734.907 546.147V411.085M735.928 546.147v-27.012M736.949 546.147v-13.506M737.97 546.147v-54.025M742.053 546.147v-27.012M743.073 546.147v-54.025M744.094 546.147v-27.012M745.115 546.147v-67.531M749.198 546.147v-94.544M750.22 546.147v-94.544M751.24 546.147v-94.544M752.26 546.147v-27.012M753.282 546.147v-67.531M757.365 546.147V384.072M758.386 546.147V465.11M760.428 546.147v-67.531M763.49 546.147V424.591M764.51 546.147V505.63M765.532 546.147v-54.025M766.553 546.147v-108.05M767.573 546.147v-54.025M770.636 546.147V370.566M771.657 546.147v-13.506M772.677 546.147v-67.531M773.698 546.147v-67.531M774.72 546.147V505.63M777.782 546.147v-54.025M778.802 546.147V505.63M779.823 546.147v-54.025M780.844 546.147v-54.025M781.865 546.147v-54.025M784.927 546.147v-54.025M785.948 546.147v-27.012M786.97 546.147V465.11M789.01 546.147V397.578M793.094 546.147V465.11M794.115 546.147v-27.012M795.136 546.147v-27.012M796.157 546.147v-27.012M799.219 546.147v-108.05M800.24 546.147V505.63M801.26 546.147v-13.506M802.281 546.147v-54.025M803.302 546.147v-27.012M806.365 546.147v-27.012M807.386 546.147v-13.506M809.427 546.147v-27.012" style="fill:none;stroke:#000;stroke-dasharray:1.5,2.475;stroke-dashoffset:0;stroke-width:1.5"/></g><path clip-path="url(#p73e3ef9c39)" d="M149.973 546.147h58.187l1.02-1.929h2.042l1.021-.965h1.021l2.042-5.788 1.02-5.789 1.021-.964 1.021-2.895 1.021-1.929 1.02-4.824 1.022-7.718 1.02-6.753h1.021l1.021-5.788 1.021-15.436 1.02-9.647 1.022-2.894 1.02-1.93h1.021l1.021-3.859 1.02-5.788 1.022.965 1.02 1.929 1.021-.965 1.021 3.86 1.021 2.893 1.02-2.894 1.022.965 1.02 12.541 1.021 10.613 1.021-1.93 1.021 1.93 1.02-1.93 1.022 4.824h3.062l1.021.965 1.02 3.858 3.063 5.789h2.042l1.02 4.824 1.022 2.894 2.041 9.647 1.021 5.788 1.02 1.93h1.022l1.02.965 1.021-3.86 1.021.965 2.042 3.86 1.02 2.894h2.042l1.021-.965h2.042l1.02.965h2.042l1.021 3.859 1.021 2.894 2.042 1.93 1.02-.965h2.042l1.021-2.895h8.167l1.02-.964h1.021l1.021.964h2.042l1.02 2.895h6.126l1.02-1.93 1.021.965h1.021l1.02-.965h3.063l1.021-3.859 1.02.965 1.022-.965h4.083l1.02-3.859 1.022-.965 1.02.965h1.021l1.021-.965h2.042l1.02 1.93 1.022-.965 1.02.965h4.084l1.02 5.788 1.021-1.93 1.021-.964h1.021l1.02 1.93h2.042l2.042 1.929h1.02l1.022-.965h3.062l1.021-.964 1.02 2.894h1.022l1.02.965h3.063l1.02.964h1.022l1.02-.964 1.021.964 1.021-.964h4.083l1.021.964 2.042-1.93h3.062l1.021-1.929h1.021l1.02-.964 1.022.964h4.083l1.02-3.859 2.043 1.93h3.062l1.02-.965 2.043 1.93h5.104l1.02 1.929 1.021-.965h3.063l1.02-2.894 1.021 2.894 1.021-.964h4.084l1.02.964h1.021l1.021 1.93 1.02.965h3.063l1.021.964 1.021-.964 1.02-3.86 1.022-8.682 1.02-1.93h2.042l1.021-1.929 1.02-5.788 1.022-.965 2.041-9.647 2.042-5.789h1.02l2.042 1.93 1.021 8.682 1.021 1.93h2.042l1.02-3.86 1.021 1.93 1.021-3.859h2.042l2.042 5.789 1.02-9.648 1.021-.964 2.042-5.789 1.02-4.823h2.042l1.021-12.542h1.021l1.02 4.824 1.022-11.577 1.02-1.93h2.042l1.021-3.859 1.02-10.612 2.042-9.647 1.021-8.683 1.021-4.823h1.02l1.022 4.823 1.02-3.859 1.021-5.788 1.021 16.4 1.021 6.754 1.02-19.295h1.022l1.02 1.93 1.021 4.823 1.021.965 1.021-7.718 1.02-9.647 1.022-5.789h1.02l1.021 2.894 1.021-3.859 1.021.965 1.02-17.365 1.022-8.683 1.02 19.295h2.042l1.021-1.93 1.02 3.86 1.022 15.435 1.02 6.753 1.021 10.613h1.021l1.02-15.436 1.022 4.823 1.02-21.224 1.021 12.542 1.021 8.682h2.042l1.02-15.435 1.022 3.859 2.041-22.19 1.021 16.401h2.042l1.02-5.788 1.021-10.612 1.021 12.541 1.021-9.647 1.02-11.577 1.022-9.647h1.02l1.021 7.718 1.021-5.789 1.021 3.86 1.02.964 1.022-9.647h2.041l1.021 31.836 1.02-2.894 1.022 3.859 1.02 10.612 1.021 8.682 1.021 9.648h1.021l1.02-8.683 1.022 6.753 1.02 8.683 1.021 3.859 1.021-5.789 1.021-4.823h2.042l1.02 20.259 1.021-15.436 2.042-7.718h2.042l1.02 14.471 1.021-2.894 1.021.965h1.021l1.02 10.612 1.022-1.93h2.041l1.021-13.506 1.02 20.26 1.022 4.823 1.02 1.93h1.021l1.021-6.753 1.021 11.576 2.042 1.93 1.02-6.753 1.021-3.86 1.021 6.754h1.021l1.02-15.436 1.022 3.86 1.02-.966h1.021l1.021-8.682h1.021l1.02 6.753 1.022-9.647 1.02 1.93 1.021-3.86 1.021-.965 1.021 3.86h2.042l1.02-6.754 1.021 2.894 1.021-1.929h1.02l1.022 8.683h2.041l1.021-9.648 1.021-1.93 1.02.966 1.022 5.788 1.02-1.93h1.021l1.021-8.682 1.021 11.577 1.02-.965 1.022 4.824 1.02-14.471 1.021-3.86h2.042l1.02 6.754 1.022-1.93 2.041-.964v-.965l1.021 1.93 1.021-.965 1.02 8.682 1.022.965 1.02 2.894 1.021-1.93 1.021 5.79 1.02 3.858 1.022-4.824h1.02l1.021 13.507 1.021 6.753 2.042 3.859h1.02l1.022.964h1.02l1.021 3.86 2.042 3.858 1.02 7.718 1.022-3.859 1.02 3.86h1.021l1.021.964h2.042l1.02 4.824 1.021 2.894h2.042l1.02 1.93 1.022 2.893 1.02 1.93 1.021 3.859 1.021 8.682 1.02.965h1.022l1.02 1.93 1.021.964 1.021 5.789 1.021.965 1.02 1.929h2.043l1.02 3.859h2.042l1.02-1.93h5.105l1.02-.964 1.022.965h4.083l1.02-2.895h1.022l1.02 1.93h5.105l1.02.965h5.105l1.02 2.894 1.021.964h1.021l1.02-3.858h5.105l1.02-.965h6.126l1.02-.965 1.021 2.894h4.084l2.041-1.93h6.125l1.021-.964 1.021-4.824h2.042l1.02-20.26 1.021-1.929h1.021l2.042-9.647h2.041l1.021-6.753 1.021-2.894 1.02-.965h1.022l1.02 4.824h2.042l1.021 10.612 1.02-.965 1.022-4.824 1.02.965 1.021 2.894h2.042l1.02-2.894 1.022.965h1.02l1.021-1.93 1.021.965h2.042l1.02 7.718 1.021-.965 1.021 3.86 1.021.964 1.021 1.93h2.042l1.02 2.894 1.021-4.824 1.021-5.788 1.02 1.929 1.022-4.824h2.041l1.021 1.93 1.021-7.718 1.02-3.859 1.022 4.824 1.02-4.824h2.042l1.021-1.93 1.02 3.86 1.022 2.894 1.02-5.789 1.021.965h2.042l1.02-12.542 1.022 10.613 1.02.964 1.021-4.823 1.021 1.929h2.042l1.02 4.824h2.042l1.021 3.859h3.063l1.02 8.682 2.042-1.93 1.02 4.824 1.022-7.717h2.041l1.021 3.859 1.021-2.895 3.063 5.789h2.041l1.021-3.86 1.02-.964 1.022 4.824 1.02-3.86 1.021 8.683h2.042l1.02-1.93 1.022 4.825 1.02 1.93h1.021" style="fill:none;stroke:#000;stroke-linecap:round;stroke-width:1.5" id="line2d_1"/><path d="M117 576.72V77.76" style="fill:none;stroke:#d3d3d3;stroke-linecap:square;stroke-linejoin:miter;stroke-width:1.25" id="patch_3"/><path d="M117 576.72h725.4" style="fill:none;stroke:#d3d3d3;stroke-linecap:square;stroke-linejoin:miter;stroke-width:1.25" id="patch_4"/><g id="matplotlib.axis_1"><g id="xtick_1"><g style="fill:#696969" transform="matrix(.16 0 0 -.16 117.224 598.378)" id="text_1"><defs><path d="M9.813 72.906h9.859V5.078q0-13.187-5-19.14-5-5.954-16.094-5.954h-3.75v8.297h3.078q6.531 0 9.219 3.672Q9.813-4.39 9.813 5.078z" id="DejaVuSans-74"/><path d="M34.281 27.484q-10.89 0-15.093-2.484-4.204-2.484-4.204-8.5 0-4.781 3.157-7.594 3.156-2.797 8.562-2.797 7.485 0 12 5.297 4.516 5.297 4.516 14.078v2zm17.922 3.72V0H43.22v8.297Q40.14 3.328 35.547.953q-4.594-2.375-11.234-2.375-8.391 0-13.36 4.719Q6 8.016 6 15.922q0 9.219 6.172 13.906 6.187 4.688 18.437 4.688h12.61v.89q0 6.203-4.078 9.594-4.078 3.39-11.453 3.39-4.688 0-9.141-1.124-4.438-1.125-8.531-3.375v8.312q4.921 1.906 9.562 2.844 4.64.953 9.031.953 11.875 0 17.735-6.156 5.86-6.14 5.86-18.64z" id="DejaVuSans-97"/><path d="M54.89 33.016V0h-8.984v32.719q0 7.765-3.031 11.61-3.031 3.858-9.078 3.858-7.281 0-11.484-4.64-4.204-4.625-4.204-12.64V0H9.08v54.688h9.03v-8.5q3.235 4.937 7.594 7.374Q30.078 56 35.797 56q9.422 0 14.25-5.828 4.844-5.828 4.844-17.156z" id="DejaVuSans-110"/></defs><use xlink:href="#DejaVuSans-74"/><use x="29.492" xlink:href="#DejaVuSans-97"/><use x="90.771" xlink:href="#DejaVuSans-110"/></g></g><g id="xtick_2"><g style="fill:#696969" transform="matrix(.16 0 0 -.16 208.611 598.378)" id="text_2"><defs><path d="M34.188 63.188 20.797 26.906h26.812zm-5.579 9.718h11.188L67.578 0h-10.25l-6.64 18.703h-32.86L11.188 0H.78z" id="DejaVuSans-65"/><path d="M18.11 8.203v-29H9.077v75.484h9.031v-8.296q2.844 4.875 7.157 7.234Q29.594 56 35.594 56q9.968 0 16.187-7.906 6.235-7.907 6.235-20.797T51.78 6.484q-6.218-7.906-16.187-7.906-6 0-10.328 2.375-4.313 2.375-7.157 7.25zm30.578 19.094q0 9.906-4.079 15.547-4.078 5.64-11.203 5.64-7.14 0-11.218-5.64-4.079-5.64-4.079-15.547 0-9.906 4.078-15.547 4.079-5.64 11.22-5.64 7.124 0 11.202 5.64t4.078 15.547z" id="DejaVuSans-112"/><path d="M41.11 46.297q-1.516.875-3.297 1.281Q36.03 48 33.89 48q-7.625 0-11.703-4.953-4.079-4.953-4.079-14.234V0H9.08v54.688h9.03v-8.5q2.844 4.984 7.375 7.39Q30.031 56 36.531 56q.922 0 2.047-.125 1.125-.11 2.484-.36z" id="DejaVuSans-114"/></defs><use xlink:href="#DejaVuSans-65"/><use x="68.408" xlink:href="#DejaVuSans-112"/><use x="131.885" xlink:href="#DejaVuSans-114"/></g></g><g id="xtick_3"><g style="fill:#696969" transform="matrix(.16 0 0 -.16 305.694 598.378)" id="text_3"><defs><path d="M8.5 21.578v33.11h8.984V21.922q0-7.766 3.016-11.656 3.031-3.875 9.094-3.875 7.265 0 11.484 4.64 4.234 4.64 4.234 12.656v31h8.985V0h-8.984v8.406Q42.047 3.422 37.718 1q-4.313-2.422-10.032-2.422-9.421 0-14.312 5.86Q8.5 10.296 8.5 21.578zM31.11 56z" id="DejaVuSans-117"/><path d="M9.422 75.984h8.984V0H9.422z" id="DejaVuSans-108"/></defs><use xlink:href="#DejaVuSans-74"/><use x="29.492" xlink:href="#DejaVuSans-117"/><use x="92.871" xlink:href="#DejaVuSans-108"/></g></g><g id="xtick_4"><g style="fill:#696969" transform="matrix(.16 0 0 -.16 395.43 598.378)" id="text_4"><defs><path d="M39.406 66.219q-10.75 0-17.078-8.016-6.312-8-6.312-21.828 0-13.766 6.312-21.781 6.328-8 17.078-8 10.735 0 17.016 8 6.281 8.015 6.281 21.781 0 13.828-6.281 21.828-6.281 8.016-17.016 8.016zm0 8q15.328 0 24.5-10.281 9.188-10.282 9.188-27.563 0-17.234-9.188-27.516-9.172-10.28-24.5-10.28-15.375 0-24.593 10.25-9.204 10.265-9.204 27.546t9.204 27.563q9.218 10.28 24.593 10.28z" id="DejaVuSans-79"/><path d="M48.781 52.594v-8.407q-3.812 2.11-7.64 3.157-3.828 1.047-7.735 1.047-8.75 0-13.593-5.547-4.829-5.532-4.829-15.547 0-10.016 4.829-15.563 4.843-5.53 13.593-5.53 3.907 0 7.735 1.046 3.828 1.047 7.64 3.156V2.094Q45.016.344 40.984-.531q-4.015-.89-8.562-.89-12.36 0-19.64 7.765-7.266 7.765-7.266 20.953 0 13.375 7.343 21.031Q20.22 56 33.016 56q4.14 0 8.093-.86 3.953-.843 7.672-2.546z" id="DejaVuSans-99"/><path d="M18.313 70.219V54.688h18.5v-6.985h-18.5V18.016q0-6.688 1.828-8.594 1.828-1.906 7.453-1.906h9.218V0h-9.218q-10.407 0-14.36 3.875-3.953 3.89-3.953 14.14v29.688H2.687v6.984h6.594V70.22z" id="DejaVuSans-116"/></defs><use xlink:href="#DejaVuSans-79"/><use x="78.711" xlink:href="#DejaVuSans-99"/><use x="133.691" xlink:href="#DejaVuSans-116"/></g></g><g id="xtick_5"><g style="fill:#696969" transform="matrix(.16 0 0 -.16 490.847 598.378)" id="text_5"><use xlink:href="#DejaVuSans-74"/><use x="29.492" xlink:href="#DejaVuSans-97"/><use x="90.771" xlink:href="#DejaVuSans-110"/></g></g><g id="xtick_6"><g style="fill:#696969" transform="matrix(.16 0 0 -.16 581.214 598.378)" id="text_6"><use xlink:href="#DejaVuSans-65"/><use x="68.408" xlink:href="#DejaVuSans-112"/><use x="131.885" xlink:href="#DejaVuSans-114"/></g></g><g id="xtick_7"><g style="fill:#696969" transform="matrix(.16 0 0 -.16 678.296 598.378)" id="text_7"><use xlink:href="#DejaVuSans-74"/><use x="29.492" xlink:href="#DejaVuSans-117"/><use x="92.871" xlink:href="#DejaVuSans-108"/></g></g><g id="xtick_8"><g style="fill:#696969" transform="matrix(.16 0 0 -.16 768.032 598.378)" id="text_8"><use xlink:href="#DejaVuSans-79"/><use x="78.711" xlink:href="#DejaVuSans-99"/><use x="133.691" xlink:href="#DejaVuSans-116"/></g></g></g><g id="matplotlib.axis_2"><g id="ytick_1"><g style="fill:#696969" transform="matrix(.16 0 0 -.16 97.32 552.226)" id="text_9"><defs><path d="M31.781 66.406q-7.61 0-11.453-7.5Q16.5 51.422 16.5 36.375q0-14.984 3.828-22.484 3.844-7.5 11.453-7.5 7.672 0 11.5 7.5 3.844 7.5 3.844 22.484 0 15.047-3.844 22.531-3.828 7.5-11.5 7.5zm0 7.813q12.266 0 18.735-9.703 6.468-9.688 6.468-28.141 0-18.406-6.468-28.11-6.47-9.687-18.735-9.687-12.25 0-18.718 9.688-6.47 9.703-6.47 28.109 0 18.453 6.47 28.14Q19.53 74.22 31.78 74.22z" id="DejaVuSans-48"/></defs><use xlink:href="#DejaVuSans-48"/></g></g><g id="ytick_2"><g style="fill:#696969" transform="matrix(.16 0 0 -.16 97.32 484.695)" id="text_10"><defs><path d="M10.797 72.906h38.719v-8.312H19.828v-17.86q2.14.735 4.281 1.094 2.157.36 4.313.36 12.203 0 19.328-6.688 7.14-6.688 7.14-18.11 0-11.765-7.328-18.296-7.328-6.516-20.656-6.516-4.593 0-9.36.781-4.75.782-9.827 2.344v9.922q4.39-2.39 9.078-3.563 4.687-1.171 9.906-1.171 8.453 0 13.375 4.437 4.938 4.438 4.938 12.063 0 7.609-4.938 12.047-4.922 4.453-13.375 4.453-3.953 0-7.89-.875-3.922-.875-8.016-2.735z" id="DejaVuSans-53"/></defs><use xlink:href="#DejaVuSans-53"/></g></g><g id="ytick_3"><g style="fill:#696969" transform="matrix(.16 0 0 -.16 87.14 417.163)" id="text_11"><defs><path d="M12.406 8.297h16.11v55.625l-17.532-3.516v8.985l17.438 3.515h9.86V8.296H54.39V0H12.406z" id="DejaVuSans-49"/></defs><use xlink:href="#DejaVuSans-49"/><use x="63.623" xlink:href="#DejaVuSans-48"/></g></g><g id="ytick_4"><g style="fill:#696969" transform="matrix(.16 0 0 -.16 87.14 349.632)" id="text_12"><use xlink:href="#DejaVuSans-49"/><use x="63.623" xlink:href="#DejaVuSans-53"/></g></g><g id="ytick_5"><g style="fill:#696969" transform="matrix(.16 0 0 -.16 87.14 282.1)" id="text_13"><defs><path d="M19.188 8.297h34.421V0H7.33v8.297q5.609 5.812 15.296 15.594 9.703 9.797 12.188 12.64 4.734 5.313 6.609 9 1.89 3.688 1.89 7.25 0 5.813-4.078 9.469-4.078 3.672-10.625 3.672-4.64 0-9.797-1.61-5.14-1.609-11-4.89v9.969Q13.767 71.78 18.938 73q5.188 1.219 9.485 1.219 11.328 0 18.062-5.672 6.735-5.656 6.735-15.125 0-4.5-1.688-8.531-1.672-4.016-6.125-9.485-1.218-1.422-7.765-8.187-6.532-6.766-18.453-18.922z" id="DejaVuSans-50"/></defs><use xlink:href="#DejaVuSans-50"/><use x="63.623" xlink:href="#DejaVuSans-48"/></g></g><g id="ytick_6"><g style="fill:#696969" transform="matrix(.16 0 0 -.16 87.14 214.569)" id="text_14"><use xlink:href="#DejaVuSans-50"/><use x="63.623" xlink:href="#DejaVuSans-53"/></g></g><g id="ytick_7"><g style="fill:#696969" transform="matrix(.16 0 0 -.16 87.14 147.038)" id="text_15"><defs><path d="M40.578 39.313Q47.656 37.797 51.625 33q3.984-4.781 3.984-11.813 0-10.78-7.422-16.703-7.421-5.906-21.093-5.906-4.578 0-9.438.906-4.86.907-10.031 2.72v9.515q4.094-2.39 8.969-3.61 4.89-1.218 10.218-1.218 9.266 0 14.125 3.656 4.86 3.656 4.86 10.64 0 6.454-4.516 10.079-4.515 3.64-12.562 3.64h-8.5v8.11h8.89q7.266 0 11.125 2.906 3.86 2.906 3.86 8.375 0 5.61-3.985 8.61-3.968 3.015-11.39 3.015-4.063 0-8.703-.89-4.641-.876-10.203-2.72v8.782q5.624 1.562 10.53 2.344 4.907.78 9.25.78 11.235 0 17.766-5.109 6.547-5.093 6.547-13.78 0-6.063-3.468-10.235-3.47-4.172-9.86-5.782z" id="DejaVuSans-51"/></defs><use xlink:href="#DejaVuSans-51"/><use x="63.623" xlink:href="#DejaVuSans-48"/></g></g><g style="fill:#696969" transform="matrix(0 -.2 -.2 0 78.98 379.813)" id="text_16"><defs><path d="M51.125 44H36.922l-4.11-16.313h14.313zm-7.328 27.781-5.078-20.265h14.265L58.11 71.78h7.813L60.89 51.516h15.234V44h-17.14l-4-16.313h15.53V20.22H53.079L48 0h-7.813l5.032 20.219H30.906L25.875 0h-7.86l5.079 20.219H7.719v7.468h17.187L29 44H13.281v7.516h17.625l4.985 20.265z" id="DejaVuSans-35"/><path d="M30.61 48.39q-7.22 0-11.422-5.64-4.204-5.64-4.204-15.453 0-9.813 4.172-15.453 4.188-5.64 11.453-5.64 7.188 0 11.375 5.655 4.203 5.672 4.203 15.438 0 9.719-4.203 15.406-4.187 5.688-11.375 5.688zm0 7.61q11.718 0 18.406-7.625 6.703-7.61 6.703-21.078 0-13.422-6.703-21.078-6.688-7.64-18.407-7.64-11.765 0-18.437 7.64-6.656 7.656-6.656 21.078 0 13.469 6.656 21.078Q18.844 56 30.609 56z" id="DejaVuSans-111"/><path d="M37.11 75.984V68.5h-8.594q-4.828 0-6.72-1.953-1.874-1.953-1.874-7.031v-4.828h14.797v-6.985H19.922V0H10.89v47.703H2.297v6.984h8.594V58.5q0 9.125 4.25 13.297 4.25 4.187 13.468 4.187z" id="DejaVuSans-102"/><path d="M44.281 53.078v-8.5q-3.797 1.953-7.906 2.922-4.094.984-8.5.984-6.688 0-10.031-2.047-3.344-2.046-3.344-6.156 0-3.125 2.39-4.906 2.391-1.781 9.626-3.39l3.078-.688q9.562-2.047 13.593-5.781 4.032-3.735 4.032-10.422 0-7.625-6.032-12.078-6.03-4.438-16.578-4.438-4.39 0-9.156.86Q10.688.296 5.422 2v9.281q4.984-2.594 9.812-3.89 4.829-1.282 9.579-1.282 6.343 0 9.75 2.172 3.421 2.172 3.421 6.125 0 3.656-2.468 5.61-2.453 1.953-10.813 3.765l-3.125.735q-8.344 1.75-12.062 5.39-3.704 3.64-3.704 9.985 0 7.718 5.47 11.906Q16.75 56 26.811 56q4.97 0 9.36-.734 4.406-.72 8.11-2.188z" id="DejaVuSans-115"/><path d="M56.203 29.594v-4.39H14.891q.593-9.282 5.593-14.142 5-4.859 13.938-4.859 5.172 0 10.031 1.266 4.86 1.265 9.656 3.812v-8.5Q49.266.734 44.187-.344 39.11-1.422 33.892-1.422q-13.094 0-20.735 7.61-7.64 7.625-7.64 20.625 0 13.421 7.25 21.296Q20.016 56 32.328 56q11.031 0 17.453-7.11 6.422-7.093 6.422-19.296zm-8.984 2.64q-.094 7.36-4.125 11.75-4.032 4.407-10.672 4.407-7.516 0-12.031-4.25-4.516-4.25-5.203-11.97z" id="DejaVuSans-101"/></defs><use xlink:href="#DejaVuSans-35"/><use x="83.789" xlink:href="#DejaVuSans-32"/><use x="115.576" xlink:href="#DejaVuSans-111"/><use x="176.758" xlink:href="#DejaVuSans-102"/><use x="211.963" xlink:href="#DejaVuSans-32"/><use x="243.75" xlink:href="#DejaVuSans-99"/><use x="298.73" xlink:href="#DejaVuSans-97"/><use x="360.01" xlink:href="#DejaVuSans-115"/><use x="412.109" xlink:href="#DejaVuSans-101"/><use x="473.633" xlink:href="#DejaVuSans-115"/></g></g><g style="fill:#696969" transform="matrix(.24 0 0 -.24 308.75 71.76)" id="text_17"><defs><path d="M44.39 34.188q3.172-1.079 6.172-4.594 3-3.516 6.032-9.672L66.609 0H56l-9.313 18.703q-3.624 7.328-7.015 9.719-3.39 2.39-9.25 2.39h-10.75V0h-9.86v72.906h22.266q12.5 0 18.656-5.234 6.157-5.219 6.157-15.766 0-6.89-3.203-11.437-3.204-4.532-9.297-6.282zM19.673 64.797V38.922h12.406q7.125 0 10.766 3.297 3.64 3.297 3.64 9.687 0 6.39-3.64 9.64-3.64 3.25-10.766 3.25z" id="DejaVuSans-82"/><path d="M54.89 33.016V0h-8.984v32.719q0 7.765-3.031 11.61-3.031 3.858-9.078 3.858-7.281 0-11.484-4.64-4.204-4.625-4.204-12.64V0H9.08v75.984h9.03V46.188q3.235 4.937 7.594 7.374Q30.078 56 35.797 56q9.422 0 14.25-5.828 4.844-5.828 4.844-17.156z" id="DejaVuSans-104"/><path d="M45.406 46.39v29.594h8.985V0h-8.985v8.203Q42.578 3.328 38.25.953q-4.313-2.375-10.375-2.375-9.906 0-16.14 7.906-6.22 7.922-6.22 20.813 0 12.89 6.22 20.797Q17.968 56 27.874 56q6.063 0 10.375-2.375 4.328-2.36 7.156-7.234zm-30.61-19.093q0-9.906 4.079-15.547 4.078-5.64 11.203-5.64 7.125 0 11.219 5.64 4.11 5.64 4.11 15.547 0 9.906-4.11 15.547-4.094 5.64-11.219 5.64-7.125 0-11.203-5.64-4.078-5.64-4.078-15.547z" id="DejaVuSans-100"/><path d="M9.813 72.906h13.28l32.329-60.984v60.984h9.562V0h-13.28L19.39 60.984V0H9.813z" id="DejaVuSans-78"/><path d="M4.203 54.688h8.985l11.234-42.672 11.172 42.672h10.593l11.235-42.672 11.187 42.672h8.985L63.28 0H52.688L40.922 44.828 29.109 0H18.5z" id="DejaVuSans-119"/><path d="M64.406 67.281v-10.39q-4.984 4.64-10.625 6.922-5.64 2.296-11.984 2.296-12.5 0-19.14-7.64-6.641-7.64-6.641-22.094 0-14.406 6.64-22.047 6.64-7.64 19.14-7.64 6.345 0 11.985 2.296 5.64 2.297 10.625 6.938V5.609Q59.234 2.094 53.437.33q-5.78-1.75-12.218-1.75-16.563 0-26.094 10.124-9.516 10.14-9.516 27.672 0 17.578 9.516 27.703 9.531 10.14 26.094 10.14 6.531 0 12.312-1.734 5.797-1.734 10.875-5.203z" id="DejaVuSans-67"/><path d="M2.984 54.688H12.5L29.594 8.797l17.093 45.89h9.516L35.687 0H23.485z" id="DejaVuSans-118"/><path d="M9.422 54.688h8.984V0H9.422zm0 21.296h8.984v-11.39H9.422z" id="DejaVuSans-105"/></defs><use xlink:href="#DejaVuSans-82"/><use x="64.982" xlink:href="#DejaVuSans-117"/><use x="128.361" xlink:href="#DejaVuSans-116"/><use x="167.57" xlink:href="#DejaVuSans-104"/><use x="230.949" xlink:href="#DejaVuSans-101"/><use x="292.473" xlink:href="#DejaVuSans-114"/><use x="333.586" xlink:href="#DejaVuSans-102"/><use x="368.791" xlink:href="#DejaVuSans-111"/><use x="429.973" xlink:href="#DejaVuSans-114"/><use x="469.336" xlink:href="#DejaVuSans-100"/><use x="532.813" xlink:href="#DejaVuSans-32"/><use x="564.6" xlink:href="#DejaVuSans-78"/><use x="639.404" xlink:href="#DejaVuSans-101"/><use x="700.928" xlink:href="#DejaVuSans-119"/><use x="782.715" xlink:href="#DejaVuSans-32"/><use x="814.502" xlink:href="#DejaVuSans-67"/><use x="884.326" xlink:href="#DejaVuSans-111"/><use x="945.508" xlink:href="#DejaVuSans-118"/><use x="1004.688" xlink:href="#DejaVuSans-105"/><use x="1032.471" xlink:href="#DejaVuSans-100"/><use x="1095.947" xlink:href="#DejaVuSans-32"/><use x="1127.734" xlink:href="#DejaVuSans-67"/><use x="1197.559" xlink:href="#DejaVuSans-97"/><use x="1258.838" xlink:href="#DejaVuSans-115"/><use x="1310.938" xlink:href="#DejaVuSans-101"/><use x="1372.461" xlink:href="#DejaVuSans-115"/></g><g id="legend_1"><path d="M686.525 161.015H831.2q3.2 0 3.2-3.2V88.96q0-3.2-3.2-3.2H686.525q-3.2 0-3.2 3.2v68.855q0 3.2 3.2 3.2z" style="fill:none;opacity:.8;stroke:#ccc;stroke-linejoin:miter" id="patch_5"/><path d="M689.725 98.718h32" style="fill:none;stroke:#000;stroke-linecap:round;stroke-width:1.5" id="line2d_4"/><g style="fill:#696969" transform="matrix(.16 0 0 -.16 734.525 104.317)" id="text_18"><defs><path d="M37.797 64.313 12.89 25.39h24.906zm-2.594 8.593H47.61V25.391h10.407v-8.203H47.609V0h-9.812v17.188H4.89v9.515z" id="DejaVuSans-52"/><path d="M45.406 27.984q0 9.766-4.031 15.125-4.016 5.375-11.297 5.375-7.219 0-11.25-5.375-4.031-5.359-4.031-15.125 0-9.718 4.031-15.093t11.25-5.375q7.281 0 11.297 5.375 4.031 5.375 4.031 15.093zm8.985-21.203q0-13.953-6.203-20.765Q42-20.797 29.203-20.797q-4.734 0-8.937.703-4.203.703-8.157 2.172v8.735q3.954-2.141 7.813-3.157 3.86-1.031 7.86-1.031 8.843 0 13.234 4.61 4.39 4.609 4.39 13.937v4.453q-2.781-4.844-7.125-7.234Q33.938 0 27.875 0 17.828 0 11.672 7.656q-6.156 7.672-6.156 20.328 0 12.688 6.156 20.344Q17.828 56 27.875 56q6.063 0 10.406-2.39 4.344-2.391 7.125-7.22v8.297h8.985z" id="DejaVuSans-103"/></defs><use xlink:href="#DejaVuSans-49"/><use x="63.623" xlink:href="#DejaVuSans-52"/><use x="127.246" xlink:href="#DejaVuSans-100"/><use x="190.723" xlink:href="#DejaVuSans-32"/><use x="222.51" xlink:href="#DejaVuSans-97"/><use x="283.789" xlink:href="#DejaVuSans-118"/><use x="342.969" xlink:href="#DejaVuSans-103"/></g><path d="M689.725 127.802h32v-11.2h-32z" style="fill:#089fff;opacity:.2;stroke:#fff;stroke-linejoin:miter" id="patch_6"/><g style="fill:#696969" transform="matrix(.16 0 0 -.16 734.525 127.802)" id="text_19"><defs><path d="M8.688 72.906h9.921V28.61q0-11.718 4.235-16.875 4.25-5.14 13.781-5.14 9.469 0 13.719 5.14 4.25 5.157 4.25 16.875v44.297H64.5V27.391q0-14.25-7.063-21.532-7.046-7.28-20.812-7.28-13.828 0-20.89 7.28-7.047 7.282-7.047 21.532z" id="DejaVuSans-85"/><path d="M32.172-5.078q-3.797-9.766-7.422-12.735-3.61-2.984-9.656-2.984H7.906v7.516h5.282q3.703 0 5.75 1.765Q21-9.766 23.483-3.219l1.61 4.094-22.11 53.813H12.5l17.094-42.766 17.093 42.766h9.516z" id="DejaVuSans-121"/></defs><use xlink:href="#DejaVuSans-85"/><use x="73.193" xlink:href="#DejaVuSans-110"/><use x="136.572" xlink:href="#DejaVuSans-99"/><use x="191.553" xlink:href="#DejaVuSans-101"/><use x="253.076" xlink:href="#DejaVuSans-114"/><use x="294.189" xlink:href="#DejaVuSans-116"/><use x="333.398" xlink:href="#DejaVuSans-97"/><use x="394.678" xlink:href="#DejaVuSans-105"/><use x="422.461" xlink:href="#DejaVuSans-110"/><use x="485.84" xlink:href="#DejaVuSans-116"/><use x="525.049" xlink:href="#DejaVuSans-121"/></g><path d="M705.725 151.287v-7.7" style="fill:none;stroke:#000;stroke-dasharray:2.25,3.7125;stroke-dashoffset:0;stroke-width:1.5" id="line2d_6"/><g style="fill:#696969" transform="matrix(.16 0 0 -.16 734.525 151.287)" id="text_20"><defs><path d="M19.672 64.797V8.109h11.922q15.093 0 22.093 6.829 7 6.843 7 21.593 0 14.64-7 21.453-7 6.813-22.093 6.813zm-9.86 8.11h20.266q21.188 0 31.094-8.813 9.922-8.813 9.922-27.563 0-18.86-9.969-27.703Q51.172 0 30.078 0H9.813z" id="DejaVuSans-68"/></defs><use xlink:href="#DejaVuSans-68"/><use x="77.002" xlink:href="#DejaVuSans-97"/><use x="138.281" xlink:href="#DejaVuSans-105"/><use x="166.064" xlink:href="#DejaVuSans-108"/><use x="193.848" xlink:href="#DejaVuSans-121"/><use x="253.027" xlink:href="#DejaVuSans-32"/><use x="284.814" xlink:href="#DejaVuSans-67"/><use x="354.639" xlink:href="#DejaVuSans-97"/><use x="415.918" xlink:href="#DejaVuSans-115"/><use x="468.018" xlink:href="#DejaVuSans-101"/><use x="529.541" xlink:href="#DejaVuSans-115"/></g></g></g></g><defs><clipPath id="p73e3ef9c39"><path d="M117 77.76h725.4v498.96H117z"/></clipPath></defs></svg>