<svg height="864" viewBox="0 0 936 648" width="1248" xmlns="http://www.w3.org/2000/svg" xmlns:xlink="http://www.w3.org/1999/xlink"><defs><style>*{stroke-linecap:butt;stroke-linejoin:round}</style></defs><g id="figure_1"><path d="M0 648h936V0H0z" style="fill:#fff" id="patch_1"/><g id="axes_1"><path d="M117 576.72h725.4V77.76H117z" style="fill:none" id="patch_2"/><g id="PolyCollection_1"><defs><path d="M150.818-97.514H198.164l.845-.637.846.084.845.054.845-.334.846.065.845-1.05.846-.918.845-1.89.846.048.845-.81.846-.448.845-1.634.846-2.666.845-2.135.845.573.846-2.006.845-5.729.846-3.05.845-.497.846-.397.845.105.846-1.623.845-2.628.846.039.845.03.845-1.44.846.663.845.235.846-2.874.845-1.491.846 5.24.845 5.927.846-.17.845 1.517.846-.474.845 2.623.845.08.846-.08.845-.179.846.03.845 1.463.846.605.845.156.846-.256.845-.36.846.121.845 2.373.845 1.6.846 2.486.845 2.781.846 3.314.845 1.355.846.185.845.453.846-1.911.845.218.846.642.845.631.845.96.846-.645.845-.59.846-1.148.845-.597.846-.389.845.402.846.01.845-.01.846 1.904.845 1.385.845.502.846.553.845-.383.846.09.845.05.846-1.35.845-.103.846-.134.845-.174.846-.157.845-.205.845-.294.846-.036.845.009.846-.435.845-.09.846.348.845-.124.846-.241.845 1.544.846.125.845.085.845.06.846.044.845.027.846.015.845-.886.846.414.845-.075.846-.525.845-.04.846-.046.845-.053.845-1.439.846.534.845-.32.846.065.845.025.846-.013.845-.05.846-1.526.845-.284.846.445h.845l.845-.445.846-.077.845-.157.846.835.845-.514.846.37.845-.082.846-.103.845-.137.846-.205.845 3.11.845-.762.846-.39.845.029.846.925.845.01.846-.036.845.485.846.448.845.01.846-.5.845-.108.845-.164.846-.27.845-.44.846 1.36.845-.03.846.412.845.05.846.02.845-.006.846.492.845.055.845-.426.846.435.845-.48.846-.064.845-.087.846-.276.845-.035.846.406.845-.435.846-.386.845.036.845.03h.846l.845-.749.846.093.845-.34.846.466.845.016.846.003.845-.012.846-.026.845-1.619.845.459.846.424.845-.033.846-.06.845-.09.846-.417.845.413.846.435.845-.026.846-.03.845-.033.845-.039.846-.044.845.9.846-.446.845.014.846.005.845-.005.846-1.253.845 1.24.846-.464H361.336l.846.439h.845l.846.934.845.58.846.104.845.08.846.061.845.414.845-.411.846-1.738.845-3.226.846-.294.845.4.846.3.845-.552.846-2.06.845-.056.846-1.727.845-1.676.845-.916.846-1.04.845-.095.846.039.845-.053.846 3.568.845.55.846-.387.845-.48.846-2.25.845.663.845-1.964.846-.054.845-.002.846 1.27.845 1.176.846-4.503.845-.491.846-1.116.845-.865.846-1.626.845.309.845.137.846-4.711.845.497.846 2.33.845-4.613.846-.448.845.011.846-.49.845-1.773.846-4.462.845-1.8.845-1.766.846-3.143.845-1.605.846.06.845 2.236.846-1.771.845-3 .846 6.856.845 2.464.846-9.212.845-.89.845-.233.846 1.532.845-.015.846-3.672.845-3.881.846-1.895.845.533.846 1.527.845-1.376.846.697.845-7.08.845-3.444.846 8.694.845-.08.846-.246.845-1.488.846.69.845 6.654.846 3.659.845 6.087.846.951.845-6.808.845 2.415.846-9.521.845 5.222.846 2.864.845-.182.846-.303.845-7.291.846 1.12.845-5.154.846-3.625.845 7.437.845-.453.846-.677.845-2.538.846-4.545.845 5.648.846-4.137.845-4.94.846-3.827.845-.01.846 3.543.845-2.662.845 1.804.846.572.845-4.387.846-.306.845-.615.846 14.336.845-1.01.846 1.68.845 5.828.846 5.386.845 5.802.845.897.846-3.56.845 3.246.846 4.309.845 1.976.846-3.498.845-3.788.846-2.604.845-.631.846 8.742.845-8.208.845-2.534.846-2.014.845.055.846.051.845 6.381.846-1.33.845.49.846-.028.845 5.324.846-.64.845.124.845.027.846-6.308.845 9.587.846 2.638.845 1.025.846-.124.845-3.707.846 5.617.845.585.846.474.845-3.41.845-1.808.846 2.984.845-.131.846-6.99.845.36.846-.32.845.174.846-3.328.845.403.846 3.125.845-4.115.845.778.846-1.91.845-.391.846 1.673.845-.575.846-.933.845-2.834.846 1.099.845-1.07.846-.38.845 3.94.845.027.846-.371.845-4.219.846-.724.845.54.846 2.605.845-.9.846-.04.845-3.657.846 5.218.845-.422.845 2.291.846-6.304.845-1.494.846.09.845-.046.846 3.044.845-.846 1.691-.394v-.499l.846.803.845-.514.845 4.004.846.391.845 1.446.846-1.095.845 3.085.846 2.175.845-2.19.846-.142.845 6.847.846 3.905.845 1.44.845 1.177.846.092.845.224.846-.015.845 1.724.846.853.845.578.846 3.62.845-1.854.846 1.2.845-1.06.845.14.846-.079.845-.118.846 2.233.845 1.344.846-.105.845-.32.846.7.845 1.221.846.823.845 2.149.845 4.567.846.97.845.276.846 1.072.845.47.846 2.704.845.562.846 1 .845-.09.846-.325.845 1.432.845-.4.846-.566.845-1.512.846-.216.845-.265.846-.402.845-.419.846-.584.845-.607.846.281.845-.05.845-.064.846-.084.845-.055.846-1.206.845.029.846.867.845-.003.846-.006.845-.007.846-.01.845-.014.845.448h4.228l.845 1.414.846.547.845.124.846-1.755.845-.02.845-.022.846-.023.845-.026h.846l.845-.409.846.024.845.022.846.02.845.017.846-.054.845-.17.845-.73.846 1.357.845.043.846.036.845.03.846.027.845-.434.846-.435H612.436l.846-.434.845-1.753.846.217.845.128.846-7.138.845.244.846.71.845-1.41.845-1.416.846.456.845.213.846-2.755.845-1.186.846-.606.845-.476.846 1.493.845-1.054.846-1.755.845 4.469.845-.696.846-2.6.845.26.846 1.393.845.083.846.077.845-1.34.846.27.845-.304.846-1.314.845.251.845-.242.846-.349.845 3.708.846-.287.845 2.093.846.737.845 1.231.846.262.845.19.846 1.49.845-2.221.845-2.724.846.619.845-2.307.846-.146.845-.162.846.928.845-3.042.846-1.189.845 2.284.846-1.989.845.042.845-.094.846-1.259.845 1.353.846 1.13.845-2.867.846.333.845-.163.846-.242.845-5.356.846 4.721.845.435.845-2.207.846.888.845.009h.846l.845 2.208.846-.027.845-.172.846 1.94.845.157.846.133.845.114.845 3.965.846-.1.845-.24.846 2.346.845-3.652.846-.256.845-.36.846 1.657.845-1.51.846.606.845.815.845.83.846-.124.845-.233.846-1.743.845-.42.846 2.232.845-1.844.846 4.182.845.138.846.038.845-.831.845 2.29.846 1.082.845.172.846.628.845.128.846.075.845-.153.846-.806.845.293.846 1.274.845.063.845-.007.846-.078.845-1.731.846-.545.845-3.342.846 1.102.845-2.03.846.392.845.282.846.993.845.096.845-.765.846-1.297.845-.52.846-.237.845-.435.846-4.21.845-1.176.846 1.11.845.011.846 2.986.845-.08.845-.105.846-5.809.845-1.06.846.119.845-1.818.846-2.072.845.247.846.007.845 1.008.846-1.862.845-1.816.845-3.653.846-3.698.845.128.846-.357.845 1.23.846-2.532.845-5.935.846-5.214.845 1.636.846-14.73.845-2.67.845-.208.846-5.998.845-10.643.846-6.812.845-2.865.846.292.845-1.919.846-2.236.845-15.508.846-14.42.845-7.473.845-18.228.846-3.357.845-18.783.846-10.301.845-.182.846-6.158.845-15.173.846-11.761.845-24.938.846-16.276.845-2.052.845 3.48.846-.132.845-5.763.846 6.458.845 8.084.846 15.94.845 4.78.846 5.643.845 19.707.846 32.215.845 26.271.845 28.154.846 26.228.845 14.518.846 15.572.845 21.923.846 12.698.845 11.698.846 1.52.845 3.473.846 7.449.845-2.13.845-.835.846.185.845-.162.846 3.852.845-3.476.846-4.732.845-2.758.846-2.302.845 4.348.846-2.495.845 2.509.845-.712.846 1.14.845.074.846-.262.845-2.438.846-1.427.845.167.846 1.821.845.176.846.567.845-4.39.845.38.846-1.021.845-1.352.846.026.845-.147.846-.038.845.893.846.849.845.817.846 1.929.845-.245.845.64.846.626.845-1.797.846-.023.845.868v-3.786l-.845-.868-.846-.023-.845 1.678-.846-.243-.845-.23-.845.625-.846-1.547-.845-.92-.846-.888-.845-.846-.846-.038-.845-.146-.846-.843-.845.386-.846-1.02-.845-1.358-.845 1.69-.846-2.039-.845-1.562-.846-2.523-.845-.701-.846-.559-.845.17-.846-2-.845-2.533-.846-3.204-.845-3.318-.845-6.18-.846-.757-.845-8.685-.846-4.039-.845-6.234-.846-3.863-.845-3.475-.846-11.787-.845-9.719-.846-10.24-.845-11.261-.845-9.081-.846-14.272-.845-7.822-.846-5.43-.845-12.629-.846-11.629-.845-16.305-.846-8.754-.845-5.465-.846-12.868-.845-11.812-.845-10.219-.846-19.914-.845-18.521-.846-10.865-.845-10.859-.846-24.894-.845-20.586-.846-15.262-.845-2.288-.846-5.346-.845-6.945-.845 2.292-.846 22.82-.845 32.405-.846 16.91-.845 20.448-.846 9.48-.845 3.294-.846 16.632-.845 26.395-.846 7.938-.845 21.737-.845 9.904-.846 16.857-.845 15.769-.846 1.24-.845 3.293-.846 2.899-.845 8.43-.846 13.17-.845 16.29-.846 9.641-.845 3.268-.845 7.755-.846 20.892-.845-.102-.846 7.818-.845 7.097-.846 2.68-.845-1.375-.846-.357-.845.128-.846 4.99-.845 5.035-.845 2.528-.846 2.483-.845-.73-.846.007-.845.247-.846 3.14-.845 2.527-.846.12-.845 1.545-.846 6.354-.845-.105-.845-.08-.846-3.096-.845.011-.846-.627-.845 1.43-.846 4.48-.845-.436-.846-.238-.845.35-.846 1.31-.845.971-.845.097-.846-.745-.845.282-.846.392-.845 3.183-.846-.635-.845 4.477-.846.324-.845.875-.846-.078-.845-.007-.845.063-.846-2.201-.845-.576-.846.063-.845-.153-.846.074-.845.129-.846-.242-.845.173-.846-.655-.845-2.055-.845.906-.846.039-.845.138-.846-3.637-.845 1.63-.846-2.112-.845.45-.846 1.732-.845-.234-.846-.123-.845-.908-.845-.923-.846-1.13-.845 1.095-.846-1.817-.845-.362-.846-.255-.845 3.298-.846-1.997-.845.628-.846.77-.845-3.855-.845.114-.846.133-.845.157-.846-1.536-.845-.171-.846-.028-.845-2.135h-.846l-.845.009-.846-.85-.845 2.137-.845-.434-.846-4.836-.845 5.938-.846-.242-.845-.162-.846-.536-.845 2.346-.846-1.477-.845-2.122-.846.478-.845-.094-.845.042-.846 2.356-.845-2.06-.846 2.286-.845 3.908-.846-.809-.845-.162-.846-.147-.845 2.038-.846-1.12-.845 2.49-.845 2.123-.846-1.117-.845.19-.846.263-.845-.507-.846-.132-.845-1.382-.846.582-.845-3.243-.846-.349-.845-.242-.845-.618-.846.424-.845-.304-.846-.6-.845 1.268-.846.077-.845.083-.846-1.213-.845-.61-.846 1.744-.845.174-.845-5.089-.846-1.754-.845-1.055-.846-2.85-.845-.476-.846.262-.845 1.421-.846 3.326-.845.213-.846.456-.845 2.928-.845 2.934-.846.71-.845 1.983-.846 11.106-.845.128-.846.218-.845 2.59-.846.435H607.364l-.846.434-.845.434-.846.027-.845.03-.846.037-.845.042-.846-1.25-.845.14-.845-.17-.846-.054-.845.018-.846.02-.845.021-.846.024-.845.46h-.846l-.845-.026-.846-.024-.845-.021-.845-.02-.846 1.72-.845.124-.846-.322-.845-1.192h-4.228l-.845-.421-.845-.013-.846-.01-.845-.008-.846-.006-.845-.003-.846-.87-.845.028-.846 1.401-.845-.055-.846-.084-.845-.064-.845-.05-.846-.587-.845.261-.846-.584-.845-.42-.846-.401-.845-.265-.846-.216-.845.226-.846-.566-.845-.4-.845-2.043-.846-.326-.845-.09-.846-.738-.845-.306-.846-2.509-.845-.4-.846-.664-.845.275-.846.101-.845-3.252-.845-1.326-.846-.915-.845-1.384-.846-1.039-.845-.32-.846-.104-.845-1.263-.846-2.111-.845-.118-.846-.08-.845-.728-.845-1.06-.846-2.275-.845 1.62-.846-3.33-.845-1.159-.846-.885-.845-1.75-.846-.016-.845-.645-.846.092-.845-.56-.845-.298-.846-2.177-.845-5.316-.846-.142-.845 2.154-.846-1.3-.845-2.128-.846.642-.845-1.16-.846-.478-.845-3.815-.845.355-.846-.935v.37l-1.69.475-.846.892-.846-3.038-.845-.047-.846.09-.845 1.982-.846 6.728-.845-2.053-.845.446-.846-5.207-.845 4.162-.846-.04-.845.838-.846-2.608-.845-.329-.846 1.014-.845 4.47-.846-.372-.845.028-.845-3.881-.846-.379-.845.667-.846-1.507-.845 3.248-.846-.933-.845-.575-.846-1.803-.845.477-.846 1.566-.845-.96-.845 4.574-.846-2.957-.845.403-.846 4.491-.845.174-.846.55-.845-3.116-.846 6.911-.845-.13-.846-3.098-.845 1.667-.845 2.671-.846-.394-.845-.284-.846-4.81-.845 2.376-.846-.125-.845-.712-.846-1.706-.845-8.658-.846 5.855-.845.028-.845.123-.846 1.098-.845-4.233-.846-.028-.845-.378-.846 1.275-.845-6.651-.846.051-.845.055-.846 1.461-.845.942-.845 5.693-.846-9.503-.845-.632-.846-2.604-.845.557-.846 1.714-.845-1.498-.846-3.511-.845-2.836-.846 4.26-.845.896-.845-2.885-.846-2.434-.845-3.729-.846-1.795-.845 1.597-.846-14.336-.845-.615-.846-.306-.845 4.302-.846-.297-.845-1.671-.845 2.551-.846-3.408-.845-.01-.846 4.861-.845 5.486-.846 4.551-.845-5.647-.846 5.012-.845 2.675-.846-.676-.845-.453-.845-7.334-.846 5.933-.845 5.27-.846-2.354-.845 6.61-.846-.303-.845-.182-.846-4.955-.845-6.073-.846 9.593-.845-1.929-.845 7.093-.846.952-.845-3.47-.846-2.424-.845-7.247-.846-2.785-.845.25-.846-.247-.845-.08-.846-8.682-.845 4.376-.845 8.559-.846-.173-.845 2.1-.846-1.08-.845.533-.846 3.319-.845 4.807-.846 3.278-.845-.883-.846-2.812-.845-1.97-.845-.891-.846 8.163-.845-3.617-.846-7.914-.845 2.213-.846 1.705-.845-2.108-.846.06-.845 2.739-.846 4.676-.845 2.578-.845 2.544-.846 5.095-.845 1.702-.846-.49-.845.01-.846 1.29-.845 5.814-.846-2.015-.845.497-.846 6.584-.845.137-.845.31-.846 2.717-.845 1.742-.846 1.49-.845.378-.846 4.185-.845-1.431-.846-1.336-.845-.002-.846-.054-.845 1.51-.845-1.074-.846 1.227-.845-.48-.846-.388-.845-1.187-.846-4.252-.845-.921-.846-.83-.845-.095-.846 1.566-.845 1.69-.845 2.668-.846 2.618-.845.812-.846 3.153-.845 1.186-.846.3-.845.4-.846 1.443-.845 4.593-.846 1.738-.845.458-.845-.456-.846.062-.845.08-.846.104-.845-.29-.846-.803h-.845l-.846-.43H357.955l-.846.406-.845-1.367-.846 1.353-.845-.005-.846.005-.845.014-.846.424-.845-.839-.846-.044-.845-.038-.845-.033-.846-.03-.845-.026-.846-.435-.845-.455-.846.453-.845-.092-.846-.059-.845-.033-.846-.445-.845-.41-.845 1.857-.846-.027-.845-.011-.846.002-.845.016-.846-.402-.845.528-.846.093-.845.99h-.846l-.845.029-.845.037-.846.482-.845.434-.846-.463-.845-.035-.846-.276-.845-.088-.846-.063-.845.389-.846-.434-.845.442-.845.056-.846-.377-.845-.007-.846.02-.845.05-.846-.456-.845-.03-.846-1.246-.845.43-.846-.271-.845-.165-.845-.107-.846.368-.845.01-.846-.42-.845-.384-.846-.036-.845.01-.846-.813-.845.028-.846.48-.845.975-.845-2.103-.846-.205-.845-.136-.846-.104-.845-.08-.846-.5-.845.354-.846-.902-.845-.157-.846-.077-.845.424h-.845l-.846-.424-.845.585-.846 1.95-.845-.051-.846-.013-.845.025-.846.065-.845.55-.846-.336-.845 2.036-.845-.053-.846-.046-.845-.04-.846.344-.845-.075-.846-.454-.845.851-.846.015-.845.027-.846.043-.845.061-.845.085-.846.125-.845-1.063-.846-.24-.845-.125-.846-.52-.845-.09-.846.434-.845.009-.846-.036-.845-.294-.845-.205-.846-.158-.845-.173-.846-.134-.845-.104-.846 1.256-.845.05-.846.09-.845.486-.846-.315-.845-.367-.845-1.221-.846-1.572-.845-.01-.846.01-.845-.467-.846-.388-.845-.597-.846-.28-.845-.59-.846-.645-.845-1.647-.845-1.106-.846-1.095-.845-.65-.846 1.564-.845-.417-.846.186-.845-.383-.846-1.9-.845-1.562-.846-1.859-.845-1.005-.845-1.972-.846.122-.845-.361-.846-1.994-.845-1.58-.846-1.134-.845-2.013-.846-.838-.845-.178-.846-.08-.845.079-.845-1.721-.846 1.264-.845-.221-.846 1.568-.845-3.63-.846-6.054-.845-2.361-.846-.267-.845-2.372-.846-2.811-.845-.572-.845-1.707-.846-.83-.845 2.585-.846 1.851-.845.105-.846 1.342-.845 2.108-.846 5.639-.845 8.172-.846 3.207-.845.572-.845 3.948-.846 4.284-.845 2.71-.846 1.29-.845 1.796-.846.917-.845 3.323-.846 1.688-.845 1.557-.846.065-.845.534-.845.055-.846.083-.845 1.101H150.818z" id="m2a8c80c409" style="stroke:#fff;stroke-opacity:.2"/></defs><g clip-path="url(#pdf0962e709)"><use style="fill:#089fff;fill-opacity:.2;stroke:#fff;stroke-opacity:.2" xlink:href="#m2a8c80c409" y="648"/></g></g><g id="LineCollection_1"><path clip-path="url(#pdf0962e709)" d="M199.01 550.486v-12.163M201.545 550.486v-6.082M203.236 550.486v-18.245M204.082 550.486v-18.245M204.927 550.486v-36.49M205.773 550.486v-6.082M206.618 550.486v-18.245M207.464 550.486v-12.163M208.31 550.486v-30.408M209.155 550.486v-48.654M210 550.486v-42.572M210.845 550.486v-12.163M211.69 550.486v-36.49M212.536 550.486V453.18M213.382 550.486v-66.899M214.227 550.486v-18.245M215.073 550.486v-30.408M215.918 550.486v-18.245M216.764 550.486V489.67M217.61 550.486v-42.572M218.455 550.486v-12.163M220.145 550.486v-36.49M220.99 550.486V526.16M221.836 550.486V526.16M222.682 550.486v-30.408M223.527 550.486v-30.408M224.373 550.486v-18.245M226.064 550.486v-30.408M226.91 550.486v-18.245M227.755 550.486v-30.408M228.6 550.486v-30.408M229.445 550.486v-42.572M230.29 550.486v-12.163M231.982 550.486v-30.408M233.673 550.486v-12.163M234.518 550.486v-18.245M235.364 550.486v-18.245M236.21 550.486v-18.245M241.282 550.486v-6.082M243.818 550.486V526.16M244.664 550.486V526.16M245.51 550.486v-6.082M246.355 550.486v-6.082M247.2 550.486v-6.082M250.582 550.486v-6.082M256.5 550.486v-6.082M259.036 550.486v-12.163M261.573 550.486v-18.245M262.418 550.486v-6.082M268.336 550.486v-6.082M269.182 550.486v-6.082M270.873 550.486v-6.082M274.255 550.486v-6.082M279.327 550.486v-12.163M281.018 550.486v-6.082M281.864 550.486v-6.082M282.71 550.486v-6.082M285.245 550.486V526.16M286.936 550.486v-6.082M291.164 550.486v-36.49M292.01 550.486v-6.082M293.7 550.486v-6.082M294.545 550.486v-12.163M297.082 550.486v-12.163M297.927 550.486v-6.082M303.845 550.486v-18.245M304.69 550.486v-6.082M305.536 550.486v-6.082M308.918 550.486v-6.082M311.455 550.486v-6.082M314.836 550.486v-6.082M316.527 550.486v-6.082M322.445 550.486v-6.082M324.136 550.486v-6.082M326.673 550.486v-6.082M329.21 550.486v-6.082M330.055 550.486v-6.082M333.436 550.486v-12.163M334.282 550.486v-6.082M335.127 550.486v-6.082M338.51 550.486v-6.082M340.2 550.486V526.16M345.273 550.486v-18.245M350.345 550.486v-6.082M352.036 550.486v-12.163M352.882 550.486v-6.082M356.264 550.486v-18.245M357.955 550.486v-6.082M368.1 550.486v-12.163M368.945 550.486v-6.082M369.79 550.486v-30.408M370.636 550.486v-54.735M371.482 550.486v-12.163M374.018 550.486v-12.163M374.864 550.486v-36.49M375.71 550.486v-6.082M376.555 550.486v-30.408M377.4 550.486v-30.408M378.245 550.486v-18.245M379.09 550.486v-18.245M379.936 550.486v-12.163M381.627 550.486V526.16M385.855 550.486v-36.49M386.7 550.486V526.16M387.545 550.486v-30.408M388.39 550.486v-30.408M389.236 550.486v-30.408M391.773 550.486v-72.98M392.618 550.486v-6.082M393.464 550.486v-42.572M394.31 550.486v-18.245M395.155 550.486v-30.408M397.69 550.486V434.934M398.536 550.486V526.16M400.227 550.486V447.097M401.073 550.486v-42.572M403.61 550.486V453.18M404.455 550.486v-72.98M405.3 550.486v-72.98M406.145 550.486v-48.654M406.99 550.486v-85.144M407.836 550.486v-30.408M409.527 550.486v-85.144M410.373 550.486v-48.654M411.218 550.486v-36.49M413.755 550.486V428.852M415.445 550.486v-85.144M416.29 550.486v-42.572M417.136 550.486v-66.899M417.982 550.486V453.18M418.827 550.486v-145.96M419.673 550.486v-66.899M421.364 550.486v-66.899M422.21 550.486v-72.98M423.055 550.486v-30.408M423.9 550.486v-109.47M424.745 550.486v-54.735M427.282 550.486v-85.144M428.127 550.486v-54.735M428.973 550.486v-42.572M430.664 550.486V447.097M433.2 550.486V386.28M434.045 550.486v-42.572M434.89 550.486V386.28M435.736 550.486v-30.408M439.118 550.486V368.035M439.964 550.486v-30.408M440.81 550.486V434.934M441.655 550.486v-66.899M445.036 550.486V349.79M445.882 550.486v-109.47M446.727 550.486v-85.144M447.573 550.486v-91.225M448.418 550.486v-72.98M449.264 550.486V489.67M450.955 550.486V416.69M451.8 550.486v-66.899M452.645 550.486v-91.225M453.49 550.486V489.67M454.336 550.486V489.67M457.718 550.486V422.77M458.564 550.486V489.67M459.41 550.486V526.16M460.255 550.486v-18.245M462.79 550.486V361.953M463.636 550.486V526.16M464.482 550.486v-36.49M465.327 550.486v-36.49M466.173 550.486V453.18M467.018 550.486v-30.408M470.4 550.486V392.362M471.245 550.486v-48.654M472.09 550.486v-42.572M474.627 550.486V453.18M475.473 550.486v-42.572M476.318 550.486v-30.408M477.164 550.486v-36.49M478.01 550.486v-30.408M478.855 550.486v-42.572M481.39 550.486v-85.144M482.236 550.486v-30.408M483.082 550.486v-18.245M483.927 550.486v-30.408M485.618 550.486v-42.572M486.464 550.486V526.16M487.31 550.486v-36.49M488.155 550.486V526.16M489 550.486v-79.062M489.845 550.486v-54.735M492.382 550.486V453.18M493.227 550.486V489.67M494.073 550.486v-36.49M494.918 550.486v-18.245M495.764 550.486v-85.144M498.3 550.486v-85.144M499.145 550.486V526.16M499.99 550.486v-48.654M500.836 550.486v-85.144M501.682 550.486v-30.408M504.218 550.486v-139.88M505.064 550.486v-42.572M505.91 550.486v-48.654M506.755 550.486v-18.245M507.6 550.486v-30.408M510.136 550.486v-145.96M510.982 550.486v-36.49M511.827 550.486v-42.572M512.673 550.486v-48.654M513.518 550.486v-42.572M515.21 550.486v-54.735M516.055 550.486v-66.899M516.9 550.486v-48.654M517.745 550.486v-18.245M518.59 550.486v-109.47M519.436 550.486v-54.735M521.973 550.486V447.097M522.818 550.486v-48.654M524.51 550.486v-48.654M524.51 550.486v-54.735M525.355 550.486v-30.408M526.2 550.486v-6.082M527.89 550.486V489.67M528.736 550.486v-30.408M529.582 550.486v-30.408M530.427 550.486v-72.98M531.273 550.486v-30.408M532.118 550.486v-30.408M533.81 550.486v-18.245M534.655 550.486v-6.082M535.5 550.486v-36.49M536.345 550.486v-42.572M537.19 550.486v-30.408M539.727 550.486v-36.49M540.573 550.486v-18.245M541.418 550.486v-18.245M542.264 550.486V526.16M543.11 550.486v-54.735M543.955 550.486v-6.082M545.645 550.486v-12.163M546.49 550.486v-6.082M547.336 550.486v-36.49M548.182 550.486v-12.163M549.027 550.486v-12.163M551.564 550.486V526.16M553.255 550.486v-6.082M560.018 550.486v-6.082M565.09 550.486v-6.082M565.936 550.486v-12.163M571.01 550.486v-6.082M576.082 550.486v-18.245M576.927 550.486v-6.082M590.455 550.486V526.16M595.527 550.486v-6.082M601.445 550.486v-6.082M602.29 550.486v-6.082M606.518 550.486v-6.082M607.364 550.486v-12.163M613.282 550.486v-12.163M614.127 550.486v-36.49M616.664 550.486V422.77M617.51 550.486v-12.163M618.355 550.486v-6.082M619.2 550.486v-42.572M620.045 550.486v-30.408M622.582 550.486v-42.572M623.427 550.486v-18.245M624.273 550.486v-6.082M625.118 550.486v-12.163M625.964 550.486v-6.082M628.5 550.486V489.67M629.345 550.486v-18.245M630.19 550.486v-36.49M631.036 550.486v-36.49M631.882 550.486v-12.163M634.418 550.486V489.67M635.264 550.486v-12.163M636.11 550.486v-6.082M636.955 550.486V526.16M640.336 550.486v-12.163M641.182 550.486V526.16M642.027 550.486v-12.163M642.873 550.486v-30.408M646.255 550.486v-42.572M647.1 550.486v-42.572M647.945 550.486v-42.572M648.79 550.486v-12.163M649.636 550.486v-30.408M653.018 550.486v-72.98M653.864 550.486v-36.49M655.555 550.486v-30.408M658.09 550.486v-54.735M658.936 550.486v-18.245M659.782 550.486V526.16M660.627 550.486v-48.654M661.473 550.486V526.16M664.01 550.486v-79.062M664.855 550.486v-6.082M665.7 550.486v-30.408M666.545 550.486v-30.408M667.39 550.486v-18.245M669.927 550.486V526.16M670.773 550.486v-18.245M671.618 550.486V526.16M672.464 550.486V526.16M673.31 550.486V526.16M675.845 550.486V526.16M676.69 550.486v-12.163M677.536 550.486v-36.49M679.227 550.486v-66.899M682.61 550.486v-36.49M683.455 550.486v-12.163M684.3 550.486v-12.163M685.145 550.486v-12.163M687.682 550.486v-48.654M688.527 550.486v-18.245M689.373 550.486v-6.082M690.218 550.486V526.16M691.064 550.486v-12.163M693.6 550.486v-12.163M694.445 550.486v-6.082M696.136 550.486v-12.163M696.982 550.486v-6.082M699.518 550.486v-48.654M700.364 550.486V526.16M702.9 550.486v-12.163M705.436 550.486v-30.408M706.282 550.486v-12.163M707.127 550.486v-54.735M708.818 550.486v-42.572M711.355 550.486v-36.49M712.2 550.486V526.16M713.045 550.486v-12.163M713.89 550.486v-18.245M714.736 550.486v-18.245M717.273 550.486v-91.225M718.118 550.486v-30.408M718.964 550.486v-42.572M723.19 550.486V428.852M724.036 550.486v-42.572M724.882 550.486v-12.163M725.727 550.486v-48.654M726.573 550.486v-54.735M729.11 550.486v-79.062M729.955 550.486V489.67M730.8 550.486v-72.98M731.645 550.486V489.67M732.49 550.486V489.67M735.027 550.486V447.097M735.873 550.486v-79.062M736.718 550.486V447.097M737.564 550.486v-139.88M738.41 550.486v-42.572M739.255 550.486v-249.35M740.1 550.486v-72.98M740.945 550.486V447.097M741.79 550.486V380.198M742.636 550.486V288.973M743.482 550.486V349.79M744.327 550.486v-139.88M745.173 550.486v-18.245M746.018 550.486v-36.49M746.864 550.486V422.77M747.71 550.486V252.483M748.555 550.486v-322.33M749.4 550.486V288.973M750.245 550.486v-322.33M751.09 550.486V222.074M751.936 550.486V161.257M752.782 550.486V258.564M753.627 550.486V355.872M754.473 550.486V179.502M755.318 550.486V100.44M756.164 550.486V209.911M757.01 550.486V130.85M757.855 550.486V240.32M758.7 550.486V392.362M759.545 550.486V325.463M760.39 550.486v-285.84M761.236 550.486v-285.84M762.082 550.486V380.198M762.927 550.486V422.77M763.773 550.486V447.097M764.618 550.486V368.035M765.464 550.486v-79.062M766.31 550.486V447.097M767.155 550.486v-85.144M768 550.486v-85.144M768.845 550.486v-139.88M769.69 550.486v-36.49M770.536 550.486v-18.245M771.382 550.486v-54.735M772.227 550.486v-18.245M773.073 550.486V434.934M774.764 550.486v-79.062M775.61 550.486V526.16M776.455 550.486v-30.408M777.3 550.486v-30.408M778.145 550.486v-30.408M778.99 550.486v-12.163M779.836 550.486v-18.245M780.682 550.486v-30.408M781.527 550.486v-36.49M782.373 550.486V526.16M783.218 550.486v-30.408M784.064 550.486v-6.082M784.91 550.486V526.16M785.755 550.486v-12.163M786.6 550.486v-18.245M787.445 550.486v-6.082M789.136 550.486v-12.163M789.982 550.486v-18.245M790.827 550.486v-30.408M791.673 550.486V526.16M792.518 550.486V526.16M793.364 550.486v-6.082M794.21 550.486v-12.163M795.055 550.486v-12.163M795.9 550.486v-48.654M796.745 550.486v-12.163M797.59 550.486v-12.163M798.436 550.486v-30.408M800.973 550.486v-12.163M801.818 550.486v-6.082M802.664 550.486v-18.245M803.51 550.486v-12.163M805.2 550.486v-12.163M806.045 550.486v-6.082M806.89 550.486v-6.082M807.736 550.486v-72.98M808.582 550.486v-12.163M809.427 550.486" style="fill:none;stroke:#000;stroke-dasharray:1.5,2.475;stroke-dashoffset:0;stroke-width:1.5"/></g><path clip-path="url(#pdf0962e709)" d="M149.973 550.486h48.19l.846-.869h1.691l.845-.434h.846l1.69-2.607.846-2.606.846-.434.845-1.304.846-.868.845-2.173 1.691-6.516h.845l.846-2.606.845-6.95.846-4.345.845-1.303.846-.869h.845l.846-1.737.845-2.607.846.435.845.868.845-.434.846 1.738.845 1.303.846-1.303.845.434.846 5.647.845 4.779.846-.869.845.869.846-.869.845 2.172h2.536l.846.434.845 1.738 2.537 2.607h1.69l.846 2.172.845 1.303 1.691 4.344.846 2.606.845.87h.846l.845.434.846-1.738.845.434 1.691 1.738.845 1.303h1.691l.846-.434h1.69l.846.434h1.691l.846 1.738.845 1.303 1.69.869.846-.435h1.691l.846-1.303h6.763l.846-.434h.845l.846.434h1.69l.846 1.303h5.073l.845-.868.846.434h.845l.846-.434h2.536l.845-1.738.846.434.845-.434h3.382l.846-1.738.845-.434.846.434h.845l.845-.434h1.691l.846.869.845-.435.846.435h3.382l.845 2.606.845-.869.846-.434h.845l.846.869h1.69l1.692.869h.845l.846-.435h2.536l.845-.434.846 1.303h.845l.846.434h2.536l.846.435h.845l.845-.435.846.435.845-.435h3.382l.846.435 1.69-.869h2.537l.845-.869h.846l.845-.434.846.434h3.382l.845-1.737 1.69.868h2.537l.846-.434 1.69.869h4.228l.845.869.846-.435h2.536l.846-1.303.845 1.303.846-.434h3.381l.846.434h.845l.846.87.845.433h2.537l.845.435.845-.435.846-1.737.845-3.91.846-.869h1.69l.846-.868.846-2.607.845-.434 1.691-4.344 1.69-2.607h.846l1.691.869.846 3.91.845.868h1.691l.846-1.737.845.869.845-1.738h1.691l1.691 2.606.846-4.344.845-.434 1.691-2.606.846-2.173h1.69l.846-5.647h.845l.846 2.172.845-5.213.846-.868h1.69l.846-1.738.846-4.779 1.69-4.344.846-3.91.845-2.171h.846l.845 2.172.846-1.738.845-2.606.846 7.385.845 3.04.846-8.688h.845l.845.87.846 2.171.845.434.846-3.475.845-4.344.846-2.606h.845l.846 1.303.845-1.738.846.435.845-7.82.845-3.91.846 8.689h1.69l.846-.869.846 1.738.845 6.95.846 3.041.845 4.779h.846l.845-6.951.845 2.172.846-9.557.845 5.647.846 3.91h1.69l.846-6.95.846 1.737 1.69-9.991.846 7.385h1.69l.846-2.607.846-4.778.845 5.647.846-4.344.845-5.213.846-4.344h.845l.846 3.475.845-2.606.845 1.737.846.435.845-4.344h1.691l.846 14.335.845-1.303.846 1.738.845 4.778 1.691 8.254h.845l.846-3.91.845 3.041.846 3.91.845 1.737.846-2.606.845-2.172h1.691l.846 9.122.845-6.95 1.69-3.475h1.692l.845 6.516.846-1.303.845.434h.846l.845 4.778.846-.868h1.69l.846-6.082.845 9.122.846 2.173.845.868h.846l.845-3.04.846 5.212 1.69.87.846-3.042.845-1.737.846 3.04h.845l.846-6.95.845 1.738.846-.435h.845l.846-3.91h.845l.846 3.041.845-4.344.845.87.846-1.738.845-.435.846 1.738h1.69l.846-3.041.846 1.303.845-.869h.846l.845 3.91h1.69l.846-4.344.846-.869.845.435.846 2.606.845-.869h.846l.845-3.91.846 5.213.845-.434.845 2.172.846-6.516.845-1.738h1.691l.846 3.041.845-.869 1.691-.434v-.435l.846.87.845-.435.845 3.91.846.434.845 1.303.846-.869.845 2.607.846 1.737.845-2.172h.846l.845 6.082.846 3.041 1.69 1.738h.846l.845.434h.846l.845 1.738 1.691 1.737.846 3.476.845-1.738.846 1.738h.845l.845.434h1.691l.846 2.172.845 1.303h1.691l.846.869.845 1.303.846.87.845 1.737.845 3.91.846.434h.845l.846.869.845.434.846 2.606.845.435.846.869h1.69l.846 1.737h1.69l.846-.869h4.228l.845-.434.846.434h3.381l.846-1.303h.845l.846.87H582l.845.433h4.228l.845 1.304.846.434h.845l.846-1.738h4.227l.845-.434h5.073l.845-.434.846 1.303h3.382l1.69-.869h5.073l.846-.434.845-2.172h1.691l.846-9.123.845-.869h.846l1.69-4.344h1.691l.846-3.04.845-1.304.846-.434h.845l.846 2.172h1.69l.846 4.778.845-.434.846-2.172.845.434.846 1.303h1.69l.846-1.303.846.435h.845l.846-.87.845.435h1.69l.846 3.475.846-.434.845 1.738.846.434.845.869h1.691l.846 1.303.845-2.172.845-2.606.846.868.845-2.172h1.691l.846.87.845-3.476.846-1.738.845 2.172.846-2.172h1.69l.846-.869.845 1.738.846 1.303.845-2.606.846.434h1.69l.846-5.647.846 4.778.845.435.845-2.172.846.869h1.69l.846 2.172h1.691l.846 1.737H675l.845 3.91 1.691-.869.846 2.172.845-3.475h1.691l.846 1.738.845-1.304 2.536 2.607h1.691l.846-1.738.845-.434.846 2.172.845-1.738.846 3.91h1.69l.846-.869.845 2.172.846.869h.845l.846.434h2.536l.846-.434.845.434.846 1.738h2.536l.845-1.303.846-.435.845-3.91.846.87.845-2.607h1.691l.846.869h.845l.845-.869.846-1.303.845-.435h1.691l.846-4.344.845-1.303.846.869h.845l.846 3.04h1.69l.846-6.08.845-1.304h.846l.845-2.172.846-2.607h1.69l.846.87 1.691-4.345 1.69-8.688h1.692l.845 1.303.846-2.606 1.69-13.033.846.87.846-17.811.845-5.213.845-1.738.846-7.82.845-13.466.846-9.991.845-5.648.846-1.303.845-2.606.846-1.738 1.69-31.277.846-8.688.845-19.983.846-5.647.845-22.59.846-13.466.845-1.738.846-7.82.845-17.81.846-14.335.845-28.671.846-19.549.845-2.172.845 5.213.846 2.607.845-1.738.846 10.86.845 14.336.846 20.417 1.69 16.073.846 19.114.846 26.064 1.69 38.228.846 19.549.845 9.99.846 12.164.845 19.114 1.691 24.327.846 3.475.845 5.648.846 10.86.845 3.475 2.536 15.204.846 7.82h.845l.846-.435.845 1.738.846.869.845 6.516.846-.869.845 4.344.845 1.303.846 2.172.845 1.304.846.868.845-1.303.846-.434.845.434.846 2.172.845.869.846 1.303.845-3.04.845.868h.846l.845-.869.846.435h1.69l2.537 2.606.846 1.738.845-.435 1.69.87.846-1.738h.846l.845.868h0" style="fill:none;stroke:#000;stroke-linecap:round;stroke-width:1.5" id="line2d_1"/><path d="M117 576.72V77.76" style="fill:none;stroke:#d3d3d3;stroke-linecap:square;stroke-linejoin:miter;stroke-width:1.25" id="patch_3"/><path d="M117 576.72h725.4" style="fill:none;stroke:#d3d3d3;stroke-linecap:square;stroke-linejoin:miter;stroke-width:1.25" id="patch_4"/><g id="matplotlib.axis_1"><g id="xtick_1"><g style="fill:#696969" transform="matrix(.16 0 0 -.16 120.731 598.378)" id="text_1"><defs><path d="M9.813 72.906h9.859V5.078q0-13.187-5-19.14-5-5.954-16.094-5.954h-3.75v8.297h3.078q6.531 0 9.219 3.672Q9.813-4.39 9.813 5.078z" id="DejaVuSans-74"/><path d="M34.281 27.484q-10.89 0-15.093-2.484-4.204-2.484-4.204-8.5 0-4.781 3.157-7.594 3.156-2.797 8.562-2.797 7.485 0 12 5.297 4.516 5.297 4.516 14.078v2zm17.922 3.72V0H43.22v8.297Q40.14 3.328 35.547.953q-4.594-2.375-11.234-2.375-8.391 0-13.36 4.719Q6 8.016 6 15.922q0 9.219 6.172 13.906 6.187 4.688 18.437 4.688h12.61v.89q0 6.203-4.078 9.594-4.078 3.39-11.453 3.39-4.688 0-9.141-1.124-4.438-1.125-8.531-3.375v8.312q4.921 1.906 9.562 2.844 4.64.953 9.031.953 11.875 0 17.735-6.156 5.86-6.14 5.86-18.64z" id="DejaVuSans-97"/><path d="M54.89 33.016V0h-8.984v32.719q0 7.765-3.031 11.61-3.031 3.858-9.078 3.858-7.281 0-11.484-4.64-4.204-4.625-4.204-12.64V0H9.08v54.688h9.03v-8.5q3.235 4.937 7.594 7.374Q30.078 56 35.797 56q9.422 0 14.25-5.828 4.844-5.828 4.844-17.156z" id="DejaVuSans-110"/></defs><use xlink:href="#DejaVuSans-74"/><use x="29.492" xlink:href="#DejaVuSans-97"/><use x="90.771" xlink:href="#DejaVuSans-110"/></g></g><g id="xtick_2"><g style="fill:#696969" transform="matrix(.16 0 0 -.16 196.16 598.378)" id="text_2"><defs><path d="M34.188 63.188 20.797 26.906h26.812zm-5.579 9.718h11.188L67.578 0h-10.25l-6.64 18.703h-32.86L11.188 0H.78z" id="DejaVuSans-65"/><path d="M18.11 8.203v-29H9.077v75.484h9.031v-8.296q2.844 4.875 7.157 7.234Q29.594 56 35.594 56q9.968 0 16.187-7.906 6.235-7.907 6.235-20.797T51.78 6.484q-6.218-7.906-16.187-7.906-6 0-10.328 2.375-4.313 2.375-7.157 7.25zm30.578 19.094q0 9.906-4.079 15.547-4.078 5.64-11.203 5.64-7.14 0-11.218-5.64-4.079-5.64-4.079-15.547 0-9.906 4.078-15.547 4.079-5.64 11.22-5.64 7.124 0 11.202 5.64t4.078 15.547z" id="DejaVuSans-112"/><path d="M41.11 46.297q-1.516.875-3.297 1.281Q36.03 48 33.89 48q-7.625 0-11.703-4.953-4.079-4.953-4.079-14.234V0H9.08v54.688h9.03v-8.5q2.844 4.984 7.375 7.39Q30.031 56 36.531 56q.922 0 2.047-.125 1.125-.11 2.484-.36z" id="DejaVuSans-114"/></defs><use xlink:href="#DejaVuSans-65"/><use x="68.408" xlink:href="#DejaVuSans-112"/><use x="131.885" xlink:href="#DejaVuSans-114"/></g></g><g id="xtick_3"><g style="fill:#696969" transform="matrix(.16 0 0 -.16 277.284 598.378)" id="text_3"><defs><path d="M8.5 21.578v33.11h8.984V21.922q0-7.766 3.016-11.656 3.031-3.875 9.094-3.875 7.265 0 11.484 4.64 4.234 4.64 4.234 12.656v31h8.985V0h-8.984v8.406Q42.047 3.422 37.718 1q-4.313-2.422-10.032-2.422-9.421 0-14.312 5.86Q8.5 10.296 8.5 21.578zM31.11 56z" id="DejaVuSans-117"/><path d="M9.422 75.984h8.984V0H9.422z" id="DejaVuSans-108"/></defs><use xlink:href="#DejaVuSans-74"/><use x="29.492" xlink:href="#DejaVuSans-117"/><use x="92.871" xlink:href="#DejaVuSans-108"/></g></g><g id="xtick_4"><g style="fill:#696969" transform="matrix(.16 0 0 -.16 350.886 598.378)" id="text_4"><defs><path d="M39.406 66.219q-10.75 0-17.078-8.016-6.312-8-6.312-21.828 0-13.766 6.312-21.781 6.328-8 17.078-8 10.735 0 17.016 8 6.281 8.015 6.281 21.781 0 13.828-6.281 21.828-6.281 8.016-17.016 8.016zm0 8q15.328 0 24.5-10.281 9.188-10.282 9.188-27.563 0-17.234-9.188-27.516-9.172-10.28-24.5-10.28-15.375 0-24.593 10.25-9.204 10.265-9.204 27.546t9.204 27.563q9.218 10.28 24.593 10.28z" id="DejaVuSans-79"/><path d="M48.781 52.594v-8.407q-3.812 2.11-7.64 3.157-3.828 1.047-7.735 1.047-8.75 0-13.593-5.547-4.829-5.532-4.829-15.547 0-10.016 4.829-15.563 4.843-5.53 13.593-5.53 3.907 0 7.735 1.046 3.828 1.047 7.64 3.156V2.094Q45.016.344 40.984-.531q-4.015-.89-8.562-.89-12.36 0-19.64 7.765-7.266 7.765-7.266 20.953 0 13.375 7.343 21.031Q20.22 56 33.016 56q4.14 0 8.093-.86 3.953-.843 7.672-2.546z" id="DejaVuSans-99"/><path d="M18.313 70.219V54.688h18.5v-6.985h-18.5V18.016q0-6.688 1.828-8.594 1.828-1.906 7.453-1.906h9.218V0h-9.218q-10.407 0-14.36 3.875-3.953 3.89-3.953 14.14v29.688H2.687v6.984h6.594V70.22z" id="DejaVuSans-116"/></defs><use xlink:href="#DejaVuSans-79"/><use x="78.711" xlink:href="#DejaVuSans-99"/><use x="133.691" xlink:href="#DejaVuSans-116"/></g></g><g id="xtick_5"><g style="fill:#696969" transform="matrix(.16 0 0 -.16 430.168 598.378)" id="text_5"><use xlink:href="#DejaVuSans-74"/><use x="29.492" xlink:href="#DejaVuSans-97"/><use x="90.771" xlink:href="#DejaVuSans-110"/></g></g><g id="xtick_6"><g style="fill:#696969" transform="matrix(.16 0 0 -.16 504.75 598.378)" id="text_6"><use xlink:href="#DejaVuSans-65"/><use x="68.408" xlink:href="#DejaVuSans-112"/><use x="131.885" xlink:href="#DejaVuSans-114"/></g></g><g id="xtick_7"><g style="fill:#696969" transform="matrix(.16 0 0 -.16 585.875 598.378)" id="text_7"><use xlink:href="#DejaVuSans-74"/><use x="29.492" xlink:href="#DejaVuSans-117"/><use x="92.871" xlink:href="#DejaVuSans-108"/></g></g><g id="xtick_8"><g style="fill:#696969" transform="matrix(.16 0 0 -.16 659.477 598.378)" id="text_8"><use xlink:href="#DejaVuSans-79"/><use x="78.711" xlink:href="#DejaVuSans-99"/><use x="133.691" xlink:href="#DejaVuSans-116"/></g></g><g id="xtick_9"><g style="fill:#696969" transform="matrix(.16 0 0 -.16 738.758 598.378)" id="text_9"><use xlink:href="#DejaVuSans-74"/><use x="29.492" xlink:href="#DejaVuSans-97"/><use x="90.771" xlink:href="#DejaVuSans-110"/></g></g><g id="xtick_10"><g style="fill:#696969" transform="matrix(.16 0 0 -.16 813.342 598.378)" id="text_10"><use xlink:href="#DejaVuSans-65"/><use x="68.408" xlink:href="#DejaVuSans-112"/><use x="131.885" xlink:href="#DejaVuSans-114"/></g></g></g><g id="matplotlib.axis_2"><g id="ytick_1"><g style="fill:#696969" transform="matrix(.16 0 0 -.16 97.32 556.565)" id="text_11"><defs><path d="M31.781 66.406q-7.61 0-11.453-7.5Q16.5 51.422 16.5 36.375q0-14.984 3.828-22.484 3.844-7.5 11.453-7.5 7.672 0 11.5 7.5 3.844 7.5 3.844 22.484 0 15.047-3.844 22.531-3.828 7.5-11.5 7.5zm0 7.813q12.266 0 18.735-9.703 6.468-9.688 6.468-28.141 0-18.406-6.468-28.11-6.47-9.687-18.735-9.687-12.25 0-18.718 9.688-6.47 9.703-6.47 28.109 0 18.453 6.47 28.14Q19.53 74.22 31.78 74.22z" id="DejaVuSans-48"/></defs><use xlink:href="#DejaVuSans-48"/></g></g><g id="ytick_2"><g style="fill:#696969" transform="matrix(.16 0 0 -.16 87.14 495.748)" id="text_12"><defs><path d="M12.406 8.297h16.11v55.625l-17.532-3.516v8.985l17.438 3.515h9.86V8.296H54.39V0H12.406z" id="DejaVuSans-49"/></defs><use xlink:href="#DejaVuSans-49"/><use x="63.623" xlink:href="#DejaVuSans-48"/></g></g><g id="ytick_3"><g style="fill:#696969" transform="matrix(.16 0 0 -.16 87.14 434.93)" id="text_13"><defs><path d="M19.188 8.297h34.421V0H7.33v8.297q5.609 5.812 15.296 15.594 9.703 9.797 12.188 12.64 4.734 5.313 6.609 9 1.89 3.688 1.89 7.25 0 5.813-4.078 9.469-4.078 3.672-10.625 3.672-4.64 0-9.797-1.61-5.14-1.609-11-4.89v9.969Q13.767 71.78 18.938 73q5.188 1.219 9.485 1.219 11.328 0 18.062-5.672 6.735-5.656 6.735-15.125 0-4.5-1.688-8.531-1.672-4.016-6.125-9.485-1.218-1.422-7.765-8.187-6.532-6.766-18.453-18.922z" id="DejaVuSans-50"/></defs><use xlink:href="#DejaVuSans-50"/><use x="63.623" xlink:href="#DejaVuSans-48"/></g></g><g id="ytick_4"><g style="fill:#696969" transform="matrix(.16 0 0 -.16 87.14 374.114)" id="text_14"><defs><path d="M40.578 39.313Q47.656 37.797 51.625 33q3.984-4.781 3.984-11.813 0-10.78-7.422-16.703-7.421-5.906-21.093-5.906-4.578 0-9.438.906-4.86.907-10.031 2.72v9.515q4.094-2.39 8.969-3.61 4.89-1.218 10.218-1.218 9.266 0 14.125 3.656 4.86 3.656 4.86 10.64 0 6.454-4.516 10.079-4.515 3.64-12.562 3.64h-8.5v8.11h8.89q7.266 0 11.125 2.906 3.86 2.906 3.86 8.375 0 5.61-3.985 8.61-3.968 3.015-11.39 3.015-4.063 0-8.703-.89-4.641-.876-10.203-2.72v8.782q5.624 1.562 10.53 2.344 4.907.78 9.25.78 11.235 0 17.766-5.109 6.547-5.093 6.547-13.78 0-6.063-3.468-10.235-3.47-4.172-9.86-5.782z" id="DejaVuSans-51"/></defs><use xlink:href="#DejaVuSans-51"/><use x="63.623" xlink:href="#DejaVuSans-48"/></g></g><g id="ytick_5"><g style="fill:#696969" transform="matrix(.16 0 0 -.16 87.14 313.297)" id="text_15"><defs><path d="M37.797 64.313 12.89 25.39h24.906zm-2.594 8.593H47.61V25.391h10.407v-8.203H47.609V0h-9.812v17.188H4.89v9.515z" id="DejaVuSans-52"/></defs><use xlink:href="#DejaVuSans-52"/><use x="63.623" xlink:href="#DejaVuSans-48"/></g></g><g id="ytick_6"><g style="fill:#696969" transform="matrix(.16 0 0 -.16 87.14 252.48)" id="text_16"><defs><path d="M10.797 72.906h38.719v-8.312H19.828v-17.86q2.14.735 4.281 1.094 2.157.36 4.313.36 12.203 0 19.328-6.688 7.14-6.688 7.14-18.11 0-11.765-7.328-18.296-7.328-6.516-20.656-6.516-4.593 0-9.36.781-4.75.782-9.827 2.344v9.922q4.39-2.39 9.078-3.563 4.687-1.171 9.906-1.171 8.453 0 13.375 4.437 4.938 4.438 4.938 12.063 0 7.609-4.938 12.047-4.922 4.453-13.375 4.453-3.953 0-7.89-.875-3.922-.875-8.016-2.735z" id="DejaVuSans-53"/></defs><use xlink:href="#DejaVuSans-53"/><use x="63.623" xlink:href="#DejaVuSans-48"/></g></g><g id="ytick_7"><g style="fill:#696969" transform="matrix(.16 0 0 -.16 87.14 191.663)" id="text_17"><defs><path d="M33.016 40.375q-6.641 0-10.532-4.547-3.875-4.531-3.875-12.437 0-7.86 3.875-12.438 3.891-4.562 10.532-4.562 6.64 0 10.515 4.562 3.875 4.578 3.875 12.438 0 7.906-3.875 12.437-3.875 4.547-10.515 4.547zm19.578 30.922v-8.984q-3.719 1.75-7.5 2.671-3.782.938-7.5.938-9.766 0-14.922-6.594-5.14-6.594-5.875-19.922 2.875 4.25 7.219 6.516 4.359 2.266 9.578 2.266 10.984 0 17.36-6.672 6.374-6.657 6.374-18.125 0-11.235-6.64-18.032-6.641-6.78-17.672-6.78-12.657 0-19.344 9.687-6.688 9.703-6.688 28.109 0 17.281 8.204 27.563 8.203 10.28 22.015 10.28 3.719 0 7.5-.734t7.89-2.187z" id="DejaVuSans-54"/></defs><use xlink:href="#DejaVuSans-54"/><use x="63.623" xlink:href="#DejaVuSans-48"/></g></g><g id="ytick_8"><g style="fill:#696969" transform="matrix(.16 0 0 -.16 87.14 130.846)" id="text_18"><defs><path d="M8.203 72.906h46.875v-4.203L28.61 0H18.312L43.22 64.594H8.203z" id="DejaVuSans-55"/></defs><use xlink:href="#DejaVuSans-55"/><use x="63.623" xlink:href="#DejaVuSans-48"/></g></g><g style="fill:#696969" transform="matrix(0 -.2 -.2 0 78.98 379.813)" id="text_19"><defs><path d="M51.125 44H36.922l-4.11-16.313h14.313zm-7.328 27.781-5.078-20.265h14.265L58.11 71.78h7.813L60.89 51.516h15.234V44h-17.14l-4-16.313h15.53V20.22H53.079L48 0h-7.813l5.032 20.219H30.906L25.875 0h-7.86l5.079 20.219H7.719v7.468h17.187L29 44H13.281v7.516h17.625l4.985 20.265z" id="DejaVuSans-35"/><path d="M30.61 48.39q-7.22 0-11.422-5.64-4.204-5.64-4.204-15.453 0-9.813 4.172-15.453 4.188-5.64 11.453-5.64 7.188 0 11.375 5.655 4.203 5.672 4.203 15.438 0 9.719-4.203 15.406-4.187 5.688-11.375 5.688zm0 7.61q11.718 0 18.406-7.625 6.703-7.61 6.703-21.078 0-13.422-6.703-21.078-6.688-7.64-18.407-7.64-11.765 0-18.437 7.64-6.656 7.656-6.656 21.078 0 13.469 6.656 21.078Q18.844 56 30.609 56z" id="DejaVuSans-111"/><path d="M37.11 75.984V68.5h-8.594q-4.828 0-6.72-1.953-1.874-1.953-1.874-7.031v-4.828h14.797v-6.985H19.922V0H10.89v47.703H2.297v6.984h8.594V58.5q0 9.125 4.25 13.297 4.25 4.187 13.468 4.187z" id="DejaVuSans-102"/><path d="M44.281 53.078v-8.5q-3.797 1.953-7.906 2.922-4.094.984-8.5.984-6.688 0-10.031-2.047-3.344-2.046-3.344-6.156 0-3.125 2.39-4.906 2.391-1.781 9.626-3.39l3.078-.688q9.562-2.047 13.593-5.781 4.032-3.735 4.032-10.422 0-7.625-6.032-12.078-6.03-4.438-16.578-4.438-4.39 0-9.156.86Q10.688.296 5.422 2v9.281q4.984-2.594 9.812-3.89 4.829-1.282 9.579-1.282 6.343 0 9.75 2.172 3.421 2.172 3.421 6.125 0 3.656-2.468 5.61-2.453 1.953-10.813 3.765l-3.125.735q-8.344 1.75-12.062 5.39-3.704 3.64-3.704 9.985 0 7.718 5.47 11.906Q16.75 56 26.811 56q4.97 0 9.36-.734 4.406-.72 8.11-2.188z" id="DejaVuSans-115"/><path d="M56.203 29.594v-4.39H14.891q.593-9.282 5.593-14.142 5-4.859 13.938-4.859 5.172 0 10.031 1.266 4.86 1.265 9.656 3.812v-8.5Q49.266.734 44.187-.344 39.11-1.422 33.892-1.422q-13.094 0-20.735 7.61-7.64 7.625-7.64 20.625 0 13.421 7.25 21.296Q20.016 56 32.328 56q11.031 0 17.453-7.11 6.422-7.093 6.422-19.296zm-8.984 2.64q-.094 7.36-4.125 11.75-4.032 4.407-10.672 4.407-7.516 0-12.031-4.25-4.516-4.25-5.203-11.97z" id="DejaVuSans-101"/></defs><use xlink:href="#DejaVuSans-35"/><use x="83.789" xlink:href="#DejaVuSans-32"/><use x="115.576" xlink:href="#DejaVuSans-111"/><use x="176.758" xlink:href="#DejaVuSans-102"/><use x="211.963" xlink:href="#DejaVuSans-32"/><use x="243.75" xlink:href="#DejaVuSans-99"/><use x="298.73" xlink:href="#DejaVuSans-97"/><use x="360.01" xlink:href="#DejaVuSans-115"/><use x="412.109" xlink:href="#DejaVuSans-101"/><use x="473.633" xlink:href="#DejaVuSans-115"/></g></g><g style="fill:#696969" transform="matrix(.24 0 0 -.24 308.75 71.76)" id="text_20"><defs><path d="M44.39 34.188q3.172-1.079 6.172-4.594 3-3.516 6.032-9.672L66.609 0H56l-9.313 18.703q-3.624 7.328-7.015 9.719-3.39 2.39-9.25 2.39h-10.75V0h-9.86v72.906h22.266q12.5 0 18.656-5.234 6.157-5.219 6.157-15.766 0-6.89-3.203-11.437-3.204-4.532-9.297-6.282zM19.673 64.797V38.922h12.406q7.125 0 10.766 3.297 3.64 3.297 3.64 9.687 0 6.39-3.64 9.64-3.64 3.25-10.766 3.25z" id="DejaVuSans-82"/><path d="M54.89 33.016V0h-8.984v32.719q0 7.765-3.031 11.61-3.031 3.858-9.078 3.858-7.281 0-11.484-4.64-4.204-4.625-4.204-12.64V0H9.08v75.984h9.03V46.188q3.235 4.937 7.594 7.374Q30.078 56 35.797 56q9.422 0 14.25-5.828 4.844-5.828 4.844-17.156z" id="DejaVuSans-104"/><path d="M45.406 46.39v29.594h8.985V0h-8.985v8.203Q42.578 3.328 38.25.953q-4.313-2.375-10.375-2.375-9.906 0-16.14 7.906-6.22 7.922-6.22 20.813 0 12.89 6.22 20.797Q17.968 56 27.874 56q6.063 0 10.375-2.375 4.328-2.36 7.156-7.234zm-30.61-19.093q0-9.906 4.079-15.547 4.078-5.64 11.203-5.64 7.125 0 11.219 5.64 4.11 5.64 4.11 15.547 0 9.906-4.11 15.547-4.094 5.64-11.219 5.64-7.125 0-11.203-5.64-4.078-5.64-4.078-15.547z" id="DejaVuSans-100"/><path d="M9.813 72.906h13.28l32.329-60.984v60.984h9.562V0h-13.28L19.39 60.984V0H9.813z" id="DejaVuSans-78"/><path d="M4.203 54.688h8.985l11.234-42.672 11.172 42.672h10.593l11.235-42.672 11.187 42.672h8.985L63.28 0H52.688L40.922 44.828 29.109 0H18.5z" id="DejaVuSans-119"/><path d="M64.406 67.281v-10.39q-4.984 4.64-10.625 6.922-5.64 2.296-11.984 2.296-12.5 0-19.14-7.64-6.641-7.64-6.641-22.094 0-14.406 6.64-22.047 6.64-7.64 19.14-7.64 6.345 0 11.985 2.296 5.64 2.297 10.625 6.938V5.609Q59.234 2.094 53.437.33q-5.78-1.75-12.218-1.75-16.563 0-26.094 10.124-9.516 10.14-9.516 27.672 0 17.578 9.516 27.703 9.531 10.14 26.094 10.14 6.531 0 12.312-1.734 5.797-1.734 10.875-5.203z" id="DejaVuSans-67"/><path d="M2.984 54.688H12.5L29.594 8.797l17.093 45.89h9.516L35.687 0H23.485z" id="DejaVuSans-118"/><path d="M9.422 54.688h8.984V0H9.422zm0 21.296h8.984v-11.39H9.422z" id="DejaVuSans-105"/></defs><use xlink:href="#DejaVuSans-82"/><use x="64.982" xlink:href="#DejaVuSans-117"/><use x="128.361" xlink:href="#DejaVuSans-116"/><use x="167.57" xlink:href="#DejaVuSans-104"/><use x="230.949" xlink:href="#DejaVuSans-101"/><use x="292.473" xlink:href="#DejaVuSans-114"/><use x="333.586" xlink:href="#DejaVuSans-102"/><use x="368.791" xlink:href="#DejaVuSans-111"/><use x="429.973" xlink:href="#DejaVuSans-114"/><use x="469.336" xlink:href="#DejaVuSans-100"/><use x="532.813" xlink:href="#DejaVuSans-32"/><use x="564.6" xlink:href="#DejaVuSans-78"/><use x="639.404" xlink:href="#DejaVuSans-101"/><use x="700.928" xlink:href="#DejaVuSans-119"/><use x="782.715" xlink:href="#DejaVuSans-32"/><use x="814.502" xlink:href="#DejaVuSans-67"/><use x="884.326" xlink:href="#DejaVuSans-111"/><use x="945.508" xlink:href="#DejaVuSans-118"/><use x="1004.688" xlink:href="#DejaVuSans-105"/><use x="1032.471" xlink:href="#DejaVuSans-100"/><use x="1095.947" xlink:href="#DejaVuSans-32"/><use x="1127.734" xlink:href="#DejaVuSans-67"/><use x="1197.559" xlink:href="#DejaVuSans-97"/><use x="1258.838" xlink:href="#DejaVuSans-115"/><use x="1310.938" xlink:href="#DejaVuSans-101"/><use x="1372.461" xlink:href="#DejaVuSans-115"/></g><g id="legend_1"><path d="M128.2 161.015h144.675q3.2 0 3.2-3.2V88.96q0-3.2-3.2-3.2H128.2q-3.2 0-3.2 3.2v68.855q0 3.2 3.2 3.2z" style="fill:none;opacity:.8;stroke:#ccc;stroke-linejoin:miter" id="patch_5"/><path d="M131.4 98.718h32" style="fill:none;stroke:#000;stroke-linecap:round;stroke-width:1.5" id="line2d_4"/><g style="fill:#696969" transform="matrix(.16 0 0 -.16 176.2 104.317)" id="text_21"><defs><path d="M45.406 27.984q0 9.766-4.031 15.125-4.016 5.375-11.297 5.375-7.219 0-11.25-5.375-4.031-5.359-4.031-15.125 0-9.718 4.031-15.093t11.25-5.375q7.281 0 11.297 5.375 4.031 5.375 4.031 15.093zm8.985-21.203q0-13.953-6.203-20.765Q42-20.797 29.203-20.797q-4.734 0-8.937.703-4.203.703-8.157 2.172v8.735q3.954-2.141 7.813-3.157 3.86-1.031 7.86-1.031 8.843 0 13.234 4.61 4.39 4.609 4.39 13.937v4.453q-2.781-4.844-7.125-7.234Q33.938 0 27.875 0 17.828 0 11.672 7.656q-6.156 7.672-6.156 20.328 0 12.688 6.156 20.344Q17.828 56 27.875 56q6.063 0 10.406-2.39 4.344-2.391 7.125-7.22v8.297h8.985z" id="DejaVuSans-103"/></defs><use xlink:href="#DejaVuSans-49"/><use x="63.623" xlink:href="#DejaVuSans-52"/><use x="127.246" xlink:href="#DejaVuSans-100"/><use x="190.723" xlink:href="#DejaVuSans-32"/><use x="222.51" xlink:href="#DejaVuSans-97"/><use x="283.789" xlink:href="#DejaVuSans-118"/><use x="342.969" xlink:href="#DejaVuSans-103"/></g><path d="M131.4 127.802h32v-11.2h-32z" style="fill:#089fff;opacity:.2;stroke:#fff;stroke-linejoin:miter" id="patch_6"/><g style="fill:#696969" transform="matrix(.16 0 0 -.16 176.2 127.802)" id="text_22"><defs><path d="M8.688 72.906h9.921V28.61q0-11.718 4.235-16.875 4.25-5.14 13.781-5.14 9.469 0 13.719 5.14 4.25 5.157 4.25 16.875v44.297H64.5V27.391q0-14.25-7.063-21.532-7.046-7.28-20.812-7.28-13.828 0-20.89 7.28-7.047 7.282-7.047 21.532z" id="DejaVuSans-85"/><path d="M32.172-5.078q-3.797-9.766-7.422-12.735-3.61-2.984-9.656-2.984H7.906v7.516h5.282q3.703 0 5.75 1.765Q21-9.766 23.483-3.219l1.61 4.094-22.11 53.813H12.5l17.094-42.766 17.093 42.766h9.516z" id="DejaVuSans-121"/></defs><use xlink:href="#DejaVuSans-85"/><use x="73.193" xlink:href="#DejaVuSans-110"/><use x="136.572" xlink:href="#DejaVuSans-99"/><use x="191.553" xlink:href="#DejaVuSans-101"/><use x="253.076" xlink:href="#DejaVuSans-114"/><use x="294.189" xlink:href="#DejaVuSans-116"/><use x="333.398" xlink:href="#DejaVuSans-97"/><use x="394.678" xlink:href="#DejaVuSans-105"/><use x="422.461" xlink:href="#DejaVuSans-110"/><use x="485.84" xlink:href="#DejaVuSans-116"/><use x="525.049" xlink:href="#DejaVuSans-121"/></g><path d="M147.4 151.287v-7.7" style="fill:none;stroke:#000;stroke-dasharray:2.25,3.7125;stroke-dashoffset:0;stroke-width:1.5" id="line2d_6"/><g style="fill:#696969" transform="matrix(.16 0 0 -.16 176.2 151.287)" id="text_23"><defs><path d="M19.672 64.797V8.109h11.922q15.093 0 22.093 6.829 7 6.843 7 21.593 0 14.64-7 21.453-7 6.813-22.093 6.813zm-9.86 8.11h20.266q21.188 0 31.094-8.813 9.922-8.813 9.922-27.563 0-18.86-9.969-27.703Q51.172 0 30.078 0H9.813z" id="DejaVuSans-68"/></defs><use xlink:href="#DejaVuSans-68"/><use x="77.002" xlink:href="#DejaVuSans-97"/><use x="138.281" xlink:href="#DejaVuSans-105"/><use x="166.064" xlink:href="#DejaVuSans-108"/><use x="193.848" xlink:href="#DejaVuSans-121"/><use x="253.027" xlink:href="#DejaVuSans-32"/><use x="284.814" xlink:href="#DejaVuSans-67"/><use x="354.639" xlink:href="#DejaVuSans-97"/><use x="415.918" xlink:href="#DejaVuSans-115"/><use x="468.018" xlink:href="#DejaVuSans-101"/><use x="529.541" xlink:href="#DejaVuSans-115"/></g></g></g></g><defs><clipPath id="pdf0962e709"><path d="M117 77.76h725.4v498.96H117z"/></clipPath></defs></svg>