<svg height="864" viewBox="0 0 936 648" width="1248" xmlns="http://www.w3.org/2000/svg" xmlns:xlink="http://www.w3.org/1999/xlink"><defs><style>*{stroke-linecap:butt;stroke-linejoin:round}</style></defs><g id="figure_1"><path d="M0 648h936V0H0z" fill="#fff" id="patch_1"/><g id="axes_1"><path d="M117 576.72h725.4V77.76H117z" fill="none" id="patch_2"/><g id="PolyCollection_1"><defs><path d="M176.656-94.914H271.953l1.906-1.755 1.906.23 1.906.15 1.906-.922 1.905.179 1.906-2.893 1.906-2.53 1.906-5.212 1.906.133 1.906-2.235 1.906-1.233 1.906-4.504 1.906-7.35 1.906-5.883 1.906 1.578 1.906-5.53 1.906-15.791 1.906-8.408 1.906-1.372 1.906-1.093 1.905.29 1.906-4.476 1.906-7.242 1.906.106 1.906.083 1.906-3.97 1.906 1.83 1.906.646 1.906-7.921 1.906-4.112 1.906 14.447 1.906 16.335 1.906-.465 1.906 4.18 1.906-1.307 1.906 7.231 1.905.218 1.906-.22 1.906-.492 1.906.084 1.906 4.032 1.906 1.667 1.906.43 1.906-.705 1.906-.995 1.906.336 1.906 6.54 1.906 4.413 1.906 6.851 1.906 7.667 1.906 9.134 1.906 3.735 1.905.512 1.906 1.247 1.906-5.268 1.906.6 1.906 1.772 1.906 1.74 1.906 2.646 1.906-1.779 1.906-1.627 1.906-3.165 1.906-1.645 1.906-1.07 1.906 1.107 1.906.03 1.906-.03 1.906 5.248 1.905 3.819 1.906 1.383 1.906 1.525 1.906-1.057 1.906.25 1.906.138 1.906-3.722 1.906-.286 1.906-.37 1.906-.478 1.906-.433 1.906-.566 1.906-.81 1.906-.099 1.906.025 1.906-1.198 1.905-.251 1.906.962 1.906-.344 1.906-.663 1.906 4.256 1.906.344 1.906.235 1.906.168 1.906.117 1.906.077 1.906.04 1.906-2.442 1.906 1.142 1.906-.208 1.906-1.447 1.906-.11 1.905-.126 1.906-.147 1.906-3.965 1.906 1.47 1.906-.882 1.906.18 1.906.068 1.906-.034 1.906-.14 1.906-4.207 1.906-.782 1.906 1.227h1.906l1.906-1.227 1.906-.211 1.906-.433 1.906 2.302 1.905-1.418 1.906 1.019 1.906-.224 1.906-.285 1.906-.376 1.906-.565 1.906 8.572 1.906-2.1 1.906-1.073 1.906.076 1.906 2.552 1.906.026 1.906-.099 1.906 1.336 1.906 1.237 1.906.026 1.905-1.38 1.906-.295 1.906-.454 1.906-.745 1.906-1.21 1.906 3.75 1.906-.085 1.906 1.137 1.906.138 1.906.056 1.906-.018 1.906 1.356 1.906.152 1.906-1.174 1.906 1.198 1.906-1.323 1.905-.175 1.906-.24 1.906-.762 1.906-.097 1.906 1.119 1.906-1.198 1.906-1.066 1.906.101 1.906.08h1.906l1.906-2.061 1.906.256 1.906-.938 1.906 1.285 1.906.045 1.906.006 1.905-.032 1.906-.072 1.906-4.462 1.906 1.264 1.906 1.168 1.906-.09 1.906-.162 1.906-.253 1.906-1.147 1.906 1.14 1.906 1.197 1.906-.073 1.906-.081 1.906-.093 1.906-.105 1.906-.122 1.905 2.479 1.906-1.227 1.906.04 1.906.012 1.906-.013 1.906-3.456 1.906 3.417 1.906-1.276h7.624l1.906 1.208 1.906.004 1.906 2.573L647.423-98l1.905.287 1.906.22 1.906.17 1.906 1.138 1.906-1.132 1.906-4.79 1.906-8.893 1.906-.812 1.906 1.103 1.906.828 1.906-1.523 1.906-5.678 1.906-.154 1.906-4.76 1.906-4.62 1.906-2.525 1.905-2.868 1.906-.261 1.906.106 1.906-.144 1.906 9.834 1.906 1.517 1.906-1.067 1.906-1.325 1.906-6.199 1.906 1.827 1.906-5.416 1.906-.147 1.906-.007 1.906 3.504 1.906 3.24 1.906-12.412 1.905-1.356 1.906-3.076 1.906-2.384 1.906-4.483 1.906.852 1.906.378 1.906-12.986 1.906 1.37 1.906 6.421 1.906-12.714 1.906-1.233 1.906.029 1.906-1.35 1.906-4.89 1.906-12.297 1.906-4.963 1.906-4.87 1.905-8.663 1.906-4.424 1.906.165 1.906 6.164 1.906-4.882 1.906-8.267 1.906 18.897 1.906 6.793 1.906-25.395 1.906-2.455 1.906-.64 1.906 4.222 1.906-.04 1.906-10.122 1.906-10.7 1.906-5.222 1.905 1.47 1.906 4.21 1.906-3.793 1.906 1.919 1.906-19.516 1.906-9.492 1.906 23.964 1.906-.22 1.906-.677 1.906-4.102 1.906 1.9 1.906 18.344 1.906 10.084 1.906 16.78 1.906 2.623 1.906-18.767 1.905 6.658 1.906-26.247 1.906 14.395 1.906 7.894v-33.155h0l-1.906-13.66-1.906-16.74-1.906 26.443-1.905-5.317-1.906 19.553-1.906 2.623-1.906-9.565-1.906-6.68-1.906-19.977-1.906-7.679-1.906.688-1.906-.678-1.906-.22-1.906-23.934-1.906 12.063-1.906 23.593-1.906-.476-1.906 5.787-1.906-2.975-1.905 1.47-1.906 9.147-1.906 13.25-1.906 9.038-1.906-2.436-1.906-7.751-1.906-5.431-1.906-2.456-1.906 22.505-1.906-9.972-1.906-21.817-1.906 6.103-1.906 4.698-1.906-5.811-1.906.164-1.906 7.552-1.905 12.89-1.906 7.105-1.906 7.013-1.906 14.046-1.906 4.692-1.906-1.351-1.906.03-1.906 3.556-1.906 16.025-1.906-5.554-1.906 1.37-1.906 18.149-1.906.378-1.906.851-1.906 7.493-1.906 4.8-1.906 4.109-1.905 1.04-1.906 11.537-1.906-3.945-1.906-3.681-1.906-.008-1.906-.146-1.906 4.163-1.906-2.962-1.906 3.38-1.906-1.324-1.906-1.067-1.906-3.273-1.906-11.72-1.906-2.54-1.906-2.288-1.906-.262-1.905 4.317-1.906 4.66-1.906 7.355-1.906 7.215-1.906 2.24-1.906 8.692-1.906 3.267-1.906.828-1.906 1.103-1.906 3.978-1.906 12.661-1.906 4.79-1.906 1.263-1.906-1.256-1.906.17-1.906.219-1.905.288-1.906-.797-1.906-2.217-1.906.003-1.906-1.186h-7.624l-1.906 1.118-1.906-3.768-1.906 3.73-1.906-.013-1.906.012-1.906.04-1.906 1.167-1.905-2.311-1.906-.122-1.906-.105-1.906-.092-1.906-.082-1.906-.072-1.906-1.198-1.906-1.255-1.906 1.248-1.906-.253-1.906-.162-1.906-.09-1.906-1.228-1.906-1.13-1.906 5.118-1.906-.073-1.905-.032-1.906.007-1.906.045-1.906-1.11-1.906 1.456-1.906.257-1.906 2.728h-1.906l-1.906.08-1.906.1-1.906 1.33-1.906 1.198-1.906-1.276-1.906-.098-1.906-.76-1.906-.242-1.905-.174-1.906 1.072-1.906-1.198-1.906 1.22-1.906.153-1.906-1.038-1.906-.019-1.906.056-1.906.138-1.906-1.258-1.906-.085-1.906-3.434-1.906 1.185-1.906-.746-1.906-.453-1.906-.296-1.905 1.015-1.906.026-1.906-1.158-1.906-1.058-1.906-.1-1.906.027-1.906-2.239-1.906.077-1.906 1.322-1.906 2.69-1.906-5.798-1.906-.565-1.906-.376-1.906-.285-1.906-.224-1.906-1.376-1.905.977-1.906-2.488-1.906-.433-1.906-.211-1.906 1.168h-1.906l-1.906-1.168-1.906 1.612-1.906 5.374-1.906-.14-1.906-.034-1.906.068-1.906.18-1.906 1.513-1.906-.925-1.906 5.614-1.906-.147-1.905-.125-1.906-.11-1.906.948-1.906-.209-1.906-1.252-1.906 2.347-1.906.04-1.906.077-1.906.118-1.906.168-1.906.234-1.906.345-1.906-2.93-1.906-.663-1.906-.344-1.906-1.432-1.905-.252-1.906 1.198-1.906.024-1.906-.098-1.906-.81-1.906-.567-1.906-.432-1.906-.479-1.906-.37-1.906-.285-1.906 3.463-1.906.138-1.906.249-1.906 1.338-1.906-.87-1.906-1.011-1.905-3.367-1.906-4.332-1.906-.029-1.906.03-1.906-1.288-1.906-1.07-1.906-1.645-1.906-.77-1.906-1.628-1.906-1.779-1.906-4.538-1.906-3.05-1.906-3.019-1.906-1.794-1.906 4.312-1.906-1.148-1.905.512-1.906-1.055-1.906-5.235-1.906-4.308-1.906-5.124-1.906-2.772-1.906-5.435-1.906.336-1.906-.995-1.906-5.496-1.906-4.358-1.906-3.124-1.906-5.548-1.906-2.31-1.906-.493-1.906-.22-1.905.219-1.906-4.744-1.906 3.484-1.906-.61-1.906 4.324-1.906-10.01-1.906-16.687-1.906-6.507-1.906-.736-1.906-6.539-1.906-7.749-1.906-1.575-1.906-4.707-1.906-2.29-1.906 7.128-1.906 5.104-1.905.29-1.906 3.697-1.906 5.813-1.906 15.541-1.906 22.529-1.906 8.84-1.906 1.577-1.906 10.882-1.906 11.81-1.906 7.47-1.906 3.557-1.906 4.95-1.906 2.528-1.906 9.158-1.906 4.654-1.906 4.292-1.905.18-1.906 1.473-1.906.15-1.906.23-1.906 3.035H176.656z" id="m6ad2fa478a" stroke="#fff" stroke-opacity=".2"/></defs><g clip-path="url(#p4dfc9893c7)"><use xlink:href="#m6ad2fa478a" y="648" fill="#089fff" fill-opacity=".2" stroke="#fff" stroke-opacity=".2"/></g></g><g id="LineCollection_1" fill="none" stroke="#000" stroke-dasharray="1.5,2.475" stroke-width="1.5"><path clip-path="url(#p4dfc9893c7)" d="M149.973 553.086h0M151.879 553.086h0M153.785 553.086h0M155.69 553.086h0M157.596 553.086h0M159.502 553.086h0M161.408 553.086h0M163.314 553.086h0M165.22 553.086h0M167.126 553.086h0M169.032 553.086h0M170.938 553.086h0M172.844 553.086h0M174.75 553.086h0M176.656 553.086h0M178.562 553.086h0M180.468 553.086h0M182.374 553.086h0M184.28 553.086h0M186.186 553.086h0M188.091 553.086h0M189.997 553.086h0M191.903 553.086h0M193.81 553.086h0M195.715 553.086h0M197.621 553.086h0M199.527 553.086h0M201.433 553.086h0M203.339 553.086h0M205.245 553.086h0M207.15 553.086h0M209.057 553.086h0M210.963 553.086h0M212.869 553.086h0M214.775 553.086h0M216.68 553.086h0M218.586 553.086h0M220.492 553.086h0M222.398 553.086h0M224.304 553.086h0M226.21 553.086h0M228.116 553.086h0M230.022 553.086h0M231.928 553.086h0M233.834 553.086h0M235.74 553.086h0M237.646 553.086h0M239.552 553.086h0M241.458 553.086h0M243.364 553.086h0M245.27 553.086h0M247.176 553.086h0M249.082 553.086h0M250.987 553.086h0M252.893 553.086h0M254.8 553.086h0M256.705 553.086h0M258.611 553.086h0M260.517 553.086h0M262.423 553.086h0M264.329 553.086h0M266.235 553.086h0M268.14 553.086h0M270.047 553.086h0M271.953 553.086h0M273.859 553.086v-33.53M275.765 553.086h0M277.67 553.086h0M279.577 553.086V536.32M281.482 553.086h0M283.388 553.086v-50.294M285.294 553.086v-50.294M287.2 553.086V452.498M289.106 553.086V536.32M291.012 553.086v-50.294M292.918 553.086v-33.53M294.824 553.086v-83.824M296.73 553.086V418.968M298.636 553.086V435.733M300.542 553.086v-33.53M302.448 553.086V452.498M304.354 553.086V284.85M306.26 553.086V368.674M308.166 553.086v-50.294M310.072 553.086v-83.824M311.977 553.086v-50.294M313.883 553.086V385.439M315.79 553.086V435.733M317.695 553.086v-33.53M319.601 553.086h0M321.507 553.086V452.498M323.413 553.086v-67.059M325.319 553.086v-67.059M327.225 553.086v-83.824M329.13 553.086v-83.824M331.037 553.086v-50.294M332.943 553.086h0M334.849 553.086v-83.824M336.755 553.086v-50.294M338.66 553.086v-83.824M340.567 553.086v-83.824M342.472 553.086V435.733M344.378 553.086v-33.53M346.284 553.086h0M348.19 553.086v-83.824M350.096 553.086h0M352.002 553.086v-33.53M353.908 553.086v-50.294M355.814 553.086v-50.294M357.72 553.086v-50.294M359.626 553.086h0M361.532 553.086h0M363.438 553.086h0M365.344 553.086h0M367.25 553.086h0M369.156 553.086V536.32M371.062 553.086h0M372.967 553.086h0M374.873 553.086v-67.059M376.78 553.086v-67.059M378.685 553.086V536.32M380.591 553.086V536.32M382.497 553.086V536.32M384.403 553.086h0M386.309 553.086h0M388.215 553.086h0M390.12 553.086V536.32M392.027 553.086h0M393.933 553.086h0M395.839 553.086h0M397.745 553.086h0M399.65 553.086h0M401.557 553.086h0M403.462 553.086V536.32M405.368 553.086h0M407.274 553.086h0M409.18 553.086v-33.53M411.086 553.086h0M412.992 553.086h0M414.898 553.086v-50.294M416.804 553.086V536.32M418.71 553.086h0M420.616 553.086h0M422.522 553.086h0M424.428 553.086h0M426.334 553.086h0M428.24 553.086h0M430.146 553.086V536.32M432.052 553.086V536.32M433.957 553.086h0M435.863 553.086V536.32M437.77 553.086h0M439.675 553.086h0M441.581 553.086h0M443.487 553.086V536.32M445.393 553.086h0M447.3 553.086h0M449.205 553.086h0M451.11 553.086h0M453.017 553.086h0M454.923 553.086v-33.53M456.829 553.086h0M458.735 553.086V536.32M460.64 553.086V536.32M462.547 553.086V536.32M464.452 553.086h0M466.358 553.086h0M468.264 553.086v-67.059M470.17 553.086h0M472.076 553.086V536.32M473.982 553.086h0M475.888 553.086h0M477.794 553.086h0M479.7 553.086h0M481.606 553.086V452.498M483.512 553.086V536.32M485.418 553.086h0M487.324 553.086V536.32M489.23 553.086v-33.53M491.136 553.086h0M493.042 553.086h0M494.948 553.086v-33.53M496.853 553.086V536.32M498.76 553.086h0M500.665 553.086h0M502.571 553.086h0M504.477 553.086h0M506.383 553.086h0M508.29 553.086h0M510.195 553.086v-50.294M512.1 553.086V536.32M514.007 553.086V536.32M515.913 553.086h0M517.819 553.086h0M519.725 553.086h0M521.63 553.086V536.32M523.537 553.086h0M525.443 553.086h0M527.348 553.086V536.32M529.254 553.086h0M531.16 553.086h0M533.066 553.086h0M534.972 553.086V536.32M536.878 553.086h0M538.784 553.086V536.32M540.69 553.086h0M542.596 553.086h0M544.502 553.086h0M546.408 553.086h0M548.314 553.086h0M550.22 553.086h0M552.126 553.086V536.32M554.032 553.086h0M555.938 553.086V536.32M557.843 553.086h0M559.75 553.086h0M561.655 553.086V536.32M563.561 553.086h0M565.467 553.086h0M567.373 553.086V536.32M569.28 553.086V536.32M571.185 553.086h0M573.091 553.086h0M574.997 553.086h0M576.903 553.086v-33.53M578.809 553.086V536.32M580.715 553.086V536.32M582.62 553.086h0M584.527 553.086h0M586.433 553.086h0M588.338 553.086V536.32M590.244 553.086h0M592.15 553.086v-67.059M594.056 553.086h0M595.962 553.086h0M597.868 553.086h0M599.774 553.086h0M601.68 553.086h0M603.586 553.086v-50.294M605.492 553.086h0M607.398 553.086h0M609.304 553.086h0M611.21 553.086h0M613.116 553.086h0M615.022 553.086V536.32M616.928 553.086h0M618.833 553.086v-33.53M620.74 553.086V536.32M622.645 553.086h0M624.551 553.086h0M626.457 553.086h0M628.363 553.086v-50.294M630.27 553.086h0M632.175 553.086V536.32M634.081 553.086h0M635.987 553.086h0M637.893 553.086h0M639.799 553.086h0M641.705 553.086h0M643.61 553.086h0M645.517 553.086h0M647.423 553.086h0M649.328 553.086h0M651.234 553.086h0M653.14 553.086h0M655.046 553.086v-33.53M656.952 553.086V536.32M658.858 553.086v-83.824M660.764 553.086V402.204M662.67 553.086v-33.53M664.576 553.086h0M666.482 553.086h0M668.388 553.086v-33.53M670.294 553.086V452.498M672.2 553.086V536.32M674.106 553.086v-83.824M676.012 553.086v-83.824M677.918 553.086v-50.294M679.823 553.086v-50.294M681.73 553.086v-33.53M683.635 553.086h0M685.541 553.086v-67.059M687.447 553.086h0M689.353 553.086h0M691.26 553.086h0M693.165 553.086h0M695.071 553.086V452.498M696.977 553.086v-67.059M698.883 553.086v-83.824M700.789 553.086v-83.824M702.695 553.086v-83.824M704.6 553.086h0M706.507 553.086h0M708.413 553.086V351.91M710.318 553.086V536.32M712.224 553.086V435.733M714.13 553.086v-50.294M716.036 553.086v-83.824M717.942 553.086h0M719.848 553.086h0M721.754 553.086V234.557M723.66 553.086v-67.059M725.566 553.086h0M727.472 553.086v-285M729.378 553.086V435.733M731.284 553.086h0M733.19 553.086h0M735.096 553.086V284.85M737.002 553.086V351.91M738.908 553.086V351.91M740.814 553.086V418.968M742.72 553.086V318.38M744.625 553.086v-83.824M746.531 553.086h0M748.437 553.086V318.38M750.343 553.086V418.968M752.25 553.086V452.498M754.155 553.086h0M756.061 553.086h0M757.967 553.086V217.793M759.873 553.086h0M761.779 553.086V318.38M763.685 553.086V435.733M765.59 553.086V368.674M767.497 553.086V284.85M769.403 553.086V150.734M771.309 553.086V368.674M773.214 553.086h0M775.12 553.086V368.674M777.026 553.086V351.91M778.932 553.086v-83.824M780.838 553.086V251.322M782.744 553.086V402.204M784.65 553.086h0M786.556 553.086h0M788.462 553.086V318.38M790.368 553.086V402.204M792.274 553.086V435.733M794.18 553.086h0M796.086 553.086v-285M797.992 553.086h0M799.898 553.086h0M801.804 553.086V100.44M803.71 553.086V435.733M805.615 553.086V100.44M807.521 553.086v-83.824M809.427 553.086h0"/></g><path clip-path="url(#p4dfc9893c7)" d="M174.75 553.086h97.203l1.906-2.395h3.812l1.906-1.198h1.905l3.812-7.185 1.906-7.185 1.906-1.197 1.906-3.592 1.906-2.395 1.906-5.988 1.906-9.58 1.906-8.382h1.906l1.906-7.185 1.906-19.16 1.906-11.974 1.906-3.593 1.906-2.394h1.905l1.906-4.79 1.906-7.185 1.906 1.197 1.906 2.395 1.906-1.197 1.906 4.79 1.906 3.592 1.906-3.592 1.906 1.197 1.906 15.567 1.906 13.172 1.906-2.394 1.906 2.394 1.906-2.394 1.906 5.987h5.717l1.906 1.197 1.906 4.79 5.718 7.185h3.812l1.906 5.988 1.906 3.592 3.812 11.975 1.906 7.185 1.906 2.394h1.905l1.906 1.198 1.906-4.79 1.906 1.198 3.812 4.79 1.906 3.592h3.812l1.906-1.198h3.812l1.906 1.198h3.812l1.906 4.79 1.905 3.592 3.812 2.395 1.906-1.197h3.812l1.906-3.593h15.248l1.906-1.197h1.905l1.906 1.197h3.812l1.906 3.593h11.436l1.906-2.395 1.906 1.197h1.906l1.906-1.197h5.717l1.906-4.79 1.906 1.197 1.906-1.197h7.624l1.906-4.79 1.906-1.198 1.906 1.198h1.906l1.906-1.198h3.812l1.906 2.395 1.905-1.197 1.906 1.197h7.624l1.906 7.185 1.906-2.395 1.906-1.197h1.906l1.906 2.395h3.812l3.812 2.395h1.906l1.905-1.198h5.718l1.906-1.197 1.906 3.592h1.906l1.906 1.198h5.718l1.906 1.197h1.906l1.906-1.197 1.906 1.197 1.906-1.197h7.623l1.906 1.197 3.812-2.395h5.718l1.906-2.395h1.906l1.906-1.197 1.906 1.197h7.623l1.906-4.79 3.812 2.395h5.718l1.906-1.197 3.812 2.395h9.53l1.905 2.395 1.906-1.198h5.718l1.906-3.592 1.906 3.592 1.906-1.197h7.624l1.906 1.197h1.906l1.906 2.395 1.906 1.198h5.717l1.906 1.197 1.906-1.197 1.906-4.79 1.906-10.778 1.906-2.394h3.812l1.906-2.395 1.906-7.185 1.906-1.198 3.812-11.974 3.811-7.185h1.906l3.812 2.395 1.906 10.777 1.906 2.395h3.812l1.906-4.79 1.906 2.395 1.906-4.79h3.812l3.812 7.185 1.906-11.975 1.905-1.197 3.812-7.185 1.906-5.988h3.812l1.906-15.567h1.906l1.906 5.988 1.906-14.37 1.906-2.395h3.812l1.906-4.79 1.906-13.172 3.812-11.975 1.905-10.777 1.906-5.988h1.906l1.906 5.988 1.906-4.79 1.906-7.185 1.906 20.357 1.906 8.382 1.906-23.95h1.906l1.906 2.396 1.906 5.987 1.906 1.198 1.906-9.58 1.906-11.975 1.906-7.185h1.905l1.906 3.593 1.906-4.79 1.906 1.197 1.906-21.554 1.906-10.777 1.906 23.949h3.812l1.906-2.395 1.906 4.79 1.906 19.16 1.906 8.382 1.906 13.172h1.906l1.906-19.16 1.905 5.988 1.906-26.345 1.906 15.568 1.906 10.777h0" fill="none" stroke="#000" stroke-linecap="round" stroke-width="1.5" id="line2d_1"/><path d="M117 576.72V77.76" fill="none" stroke="#d3d3d3" stroke-linecap="square" stroke-width="1.25" id="patch_3"/><path d="M117 576.72h725.4" fill="none" stroke="#d3d3d3" stroke-linecap="square" stroke-width="1.25" id="patch_4"/><g id="matplotlib.axis_1"><g id="xtick_1"><g transform="matrix(.16 0 0 -.16 112.863 598.378)" fill="#696969" id="text_1"><defs><path d="M9.813 72.906h9.859V5.078q0-13.187-5-19.14-5-5.954-16.094-5.954h-3.75v8.297h3.078q6.531 0 9.219 3.672Q9.813-4.39 9.813 5.078z" id="DejaVuSans-74"/><path d="M34.281 27.484q-10.89 0-15.093-2.484-4.204-2.484-4.204-8.5 0-4.781 3.157-7.594 3.156-2.797 8.562-2.797 7.485 0 12 5.297 4.516 5.297 4.516 14.078v2zm17.922 3.72V0H43.22v8.297Q40.14 3.328 35.547.953q-4.594-2.375-11.234-2.375-8.391 0-13.36 4.719Q6 8.016 6 15.922q0 9.219 6.172 13.906 6.187 4.688 18.437 4.688h12.61v.89q0 6.203-4.078 9.594-4.078 3.39-11.453 3.39-4.688 0-9.141-1.124-4.438-1.125-8.531-3.375v8.312q4.921 1.906 9.562 2.844 4.64.953 9.031.953 11.875 0 17.735-6.156 5.86-6.14 5.86-18.64z" id="DejaVuSans-97"/><path d="M54.89 33.016V0h-8.984v32.719q0 7.765-3.031 11.61-3.031 3.858-9.078 3.858-7.281 0-11.484-4.64-4.204-4.625-4.204-12.64V0H9.08v54.688h9.03v-8.5q3.235 4.937 7.594 7.374Q30.078 56 35.797 56q9.422 0 14.25-5.828 4.844-5.828 4.844-17.156z" id="DejaVuSans-110"/></defs><use xlink:href="#DejaVuSans-74"/><use x="29.492" xlink:href="#DejaVuSans-97"/><use x="90.771" xlink:href="#DejaVuSans-110"/></g></g><g id="xtick_2"><g transform="matrix(.16 0 0 -.16 224.458 598.378)" fill="#696969" id="text_2"><defs><path d="M9.813 72.906h14.703l18.593-49.61 18.703 49.61h14.704V0H66.89v64.016l-18.797-50h-9.907l-18.796 50V0H9.813z" id="DejaVuSans-77"/><path d="M41.11 46.297q-1.516.875-3.297 1.281Q36.03 48 33.89 48q-7.625 0-11.703-4.953-4.079-4.953-4.079-14.234V0H9.08v54.688h9.03v-8.5q2.844 4.984 7.375 7.39Q30.031 56 36.531 56q.922 0 2.047-.125 1.125-.11 2.484-.36z" id="DejaVuSans-114"/></defs><use xlink:href="#DejaVuSans-77"/><use x="86.279" xlink:href="#DejaVuSans-97"/><use x="147.559" xlink:href="#DejaVuSans-114"/></g></g><g id="xtick_3"><g transform="matrix(.16 0 0 -.16 339.274 598.378)" fill="#696969" id="text_3"><defs><path d="M32.172-5.078q-3.797-9.766-7.422-12.735-3.61-2.984-9.656-2.984H7.906v7.516h5.282q3.703 0 5.75 1.765Q21-9.766 23.483-3.219l1.61 4.094-22.11 53.813H12.5l17.094-42.766 17.093 42.766h9.516z" id="DejaVuSans-121"/></defs><use xlink:href="#DejaVuSans-77"/><use x="86.279" xlink:href="#DejaVuSans-97"/><use x="147.559" xlink:href="#DejaVuSans-121"/></g></g><g id="xtick_4"><g transform="matrix(.16 0 0 -.16 462.424 598.378)" fill="#696969" id="text_4"><defs><path d="M8.5 21.578v33.11h8.984V21.922q0-7.766 3.016-11.656 3.031-3.875 9.094-3.875 7.265 0 11.484 4.64 4.234 4.64 4.234 12.656v31h8.985V0h-8.984v8.406Q42.047 3.422 37.718 1q-4.313-2.422-10.032-2.422-9.421 0-14.312 5.86Q8.5 10.296 8.5 21.578zM31.11 56z" id="DejaVuSans-117"/><path d="M9.422 75.984h8.984V0H9.422z" id="DejaVuSans-108"/></defs><use xlink:href="#DejaVuSans-74"/><use x="29.492" xlink:href="#DejaVuSans-117"/><use x="92.871" xlink:href="#DejaVuSans-108"/></g></g><g id="xtick_5"><g transform="matrix(.16 0 0 -.16 575.164 598.378)" fill="#696969" id="text_5"><defs><path d="M53.516 70.516V60.89q-5.61 2.687-10.594 4-4.984 1.328-9.625 1.328-8.047 0-12.422-3.125t-4.375-8.89q0-4.845 2.906-7.313 2.907-2.453 11.016-3.97l5.953-1.218q11.031-2.11 16.281-7.406 5.25-5.297 5.25-14.172 0-10.61-7.11-16.078-7.093-5.469-20.812-5.469-5.172 0-11.015 1.172Q13.14.922 6.89 3.219v10.156q6-3.36 11.765-5.078 5.766-1.703 11.328-1.703 8.438 0 13.032 3.312 4.593 3.328 4.593 9.485 0 5.359-3.297 8.39-3.296 3.032-10.812 4.547L27.484 33.5q-11.03 2.188-15.968 6.875-4.922 4.688-4.922 13.047 0 9.672 6.812 15.234 6.813 5.563 18.766 5.563 5.14 0 10.453-.938 5.328-.922 10.89-2.765z" id="DejaVuSans-83"/><path d="M56.203 29.594v-4.39H14.891q.593-9.282 5.593-14.142 5-4.859 13.938-4.859 5.172 0 10.031 1.266 4.86 1.265 9.656 3.812v-8.5Q49.266.734 44.187-.344 39.11-1.422 33.892-1.422q-13.094 0-20.735 7.61-7.64 7.625-7.64 20.625 0 13.421 7.25 21.296Q20.016 56 32.328 56q11.031 0 17.453-7.11 6.422-7.093 6.422-19.296zm-8.984 2.64q-.094 7.36-4.125 11.75-4.032 4.407-10.672 4.407-7.516 0-12.031-4.25-4.516-4.25-5.203-11.97z" id="DejaVuSans-101"/><path d="M18.11 8.203v-29H9.077v75.484h9.031v-8.296q2.844 4.875 7.157 7.234Q29.594 56 35.594 56q9.968 0 16.187-7.906 6.235-7.907 6.235-20.797T51.78 6.484q-6.218-7.906-16.187-7.906-6 0-10.328 2.375-4.313 2.375-7.157 7.25zm30.578 19.094q0 9.906-4.079 15.547-4.078 5.64-11.203 5.64-7.14 0-11.218-5.64-4.079-5.64-4.079-15.547 0-9.906 4.078-15.547 4.079-5.64 11.22-5.64 7.124 0 11.202 5.64t4.078 15.547z" id="DejaVuSans-112"/></defs><use xlink:href="#DejaVuSans-83"/><use x="63.477" xlink:href="#DejaVuSans-101"/><use x="125" xlink:href="#DejaVuSans-112"/></g></g><g id="xtick_6"><g transform="matrix(.16 0 0 -.16 690.892 598.378)" fill="#696969" id="text_6"><defs><path d="M9.813 72.906h13.28l32.329-60.984v60.984h9.562V0h-13.28L19.39 60.984V0H9.813z" id="DejaVuSans-78"/><path d="M30.61 48.39q-7.22 0-11.422-5.64-4.204-5.64-4.204-15.453 0-9.813 4.172-15.453 4.188-5.64 11.453-5.64 7.188 0 11.375 5.655 4.203 5.672 4.203 15.438 0 9.719-4.203 15.406-4.187 5.688-11.375 5.688zm0 7.61q11.718 0 18.406-7.625 6.703-7.61 6.703-21.078 0-13.422-6.703-21.078-6.688-7.64-18.407-7.64-11.765 0-18.437 7.64-6.656 7.656-6.656 21.078 0 13.469 6.656 21.078Q18.844 56 30.609 56z" id="DejaVuSans-111"/><path d="M2.984 54.688H12.5L29.594 8.797l17.093 45.89h9.516L35.687 0H23.485z" id="DejaVuSans-118"/></defs><use xlink:href="#DejaVuSans-78"/><use x="74.805" xlink:href="#DejaVuSans-111"/><use x="135.986" xlink:href="#DejaVuSans-118"/></g></g><g id="xtick_7"><g transform="matrix(.16 0 0 -.16 810.436 598.378)" fill="#696969" id="text_7"><use xlink:href="#DejaVuSans-74"/><use x="29.492" xlink:href="#DejaVuSans-97"/><use x="90.771" xlink:href="#DejaVuSans-110"/></g></g></g><g id="matplotlib.axis_2"><g id="ytick_1"><g transform="matrix(.16 0 0 -.16 97.32 559.164)" fill="#696969" id="text_8"><defs><path d="M31.781 66.406q-7.61 0-11.453-7.5Q16.5 51.422 16.5 36.375q0-14.984 3.828-22.484 3.844-7.5 11.453-7.5 7.672 0 11.5 7.5 3.844 7.5 3.844 22.484 0 15.047-3.844 22.531-3.828 7.5-11.5 7.5zm0 7.813q12.266 0 18.735-9.703 6.468-9.688 6.468-28.141 0-18.406-6.468-28.11-6.47-9.687-18.735-9.687-12.25 0-18.718 9.688-6.47 9.703-6.47 28.109 0 18.453 6.47 28.14Q19.53 74.22 31.78 74.22z" id="DejaVuSans-48"/></defs><use xlink:href="#DejaVuSans-48"/></g></g><g id="ytick_2"><g transform="matrix(.16 0 0 -.16 97.32 475.341)" fill="#696969" id="text_9"><defs><path d="M10.797 72.906h38.719v-8.312H19.828v-17.86q2.14.735 4.281 1.094 2.157.36 4.313.36 12.203 0 19.328-6.688 7.14-6.688 7.14-18.11 0-11.765-7.328-18.296-7.328-6.516-20.656-6.516-4.593 0-9.36.781-4.75.782-9.827 2.344v9.922q4.39-2.39 9.078-3.563 4.687-1.171 9.906-1.171 8.453 0 13.375 4.437 4.938 4.438 4.938 12.063 0 7.609-4.938 12.047-4.922 4.453-13.375 4.453-3.953 0-7.89-.875-3.922-.875-8.016-2.735z" id="DejaVuSans-53"/></defs><use xlink:href="#DejaVuSans-53"/></g></g><g id="ytick_3"><g transform="matrix(.16 0 0 -.16 87.14 391.518)" fill="#696969" id="text_10"><defs><path d="M12.406 8.297h16.11v55.625l-17.532-3.516v8.985l17.438 3.515h9.86V8.296H54.39V0H12.406z" id="DejaVuSans-49"/></defs><use xlink:href="#DejaVuSans-49"/><use x="63.623" xlink:href="#DejaVuSans-48"/></g></g><g id="ytick_4"><g transform="matrix(.16 0 0 -.16 87.14 307.695)" fill="#696969" id="text_11"><use xlink:href="#DejaVuSans-49"/><use x="63.623" xlink:href="#DejaVuSans-53"/></g></g><g id="ytick_5"><g transform="matrix(.16 0 0 -.16 87.14 223.871)" fill="#696969" id="text_12"><defs><path d="M19.188 8.297h34.421V0H7.33v8.297q5.609 5.812 15.296 15.594 9.703 9.797 12.188 12.64 4.734 5.313 6.609 9 1.89 3.688 1.89 7.25 0 5.813-4.078 9.469-4.078 3.672-10.625 3.672-4.64 0-9.797-1.61-5.14-1.609-11-4.89v9.969Q13.767 71.78 18.938 73q5.188 1.219 9.485 1.219 11.328 0 18.062-5.672 6.735-5.656 6.735-15.125 0-4.5-1.688-8.531-1.672-4.016-6.125-9.485-1.218-1.422-7.765-8.187-6.532-6.766-18.453-18.922z" id="DejaVuSans-50"/></defs><use xlink:href="#DejaVuSans-50"/><use x="63.623" xlink:href="#DejaVuSans-48"/></g></g><g id="ytick_6"><g transform="matrix(.16 0 0 -.16 87.14 140.048)" fill="#696969" id="text_13"><use xlink:href="#DejaVuSans-50"/><use x="63.623" xlink:href="#DejaVuSans-53"/></g></g><g transform="matrix(0 -.2 -.2 0 78.98 379.813)" fill="#696969" id="text_14"><defs><path d="M51.125 44H36.922l-4.11-16.313h14.313zm-7.328 27.781l-5.078-20.265h14.265L58.11 71.78h7.813L60.89 51.516h15.234V44h-17.14l-4-16.313h15.53V20.22H53.079L48 0h-7.813l5.032 20.219H30.906L25.875 0h-7.86l5.079 20.219H7.719v7.468h17.187L29 44H13.281v7.516h17.625l4.985 20.265z" id="DejaVuSans-35"/><path d="M37.11 75.984V68.5h-8.594q-4.828 0-6.72-1.953-1.874-1.953-1.874-7.031v-4.828h14.797v-6.985H19.922V0H10.89v47.703H2.297v6.984h8.594V58.5q0 9.125 4.25 13.297 4.25 4.187 13.468 4.187z" id="DejaVuSans-102"/><path d="M48.781 52.594v-8.407q-3.812 2.11-7.64 3.157-3.828 1.047-7.735 1.047-8.75 0-13.593-5.547-4.829-5.532-4.829-15.547 0-10.016 4.829-15.563 4.843-5.53 13.593-5.53 3.907 0 7.735 1.046 3.828 1.047 7.64 3.156V2.094Q45.016.344 40.984-.531q-4.015-.89-8.562-.89-12.36 0-19.64 7.765-7.266 7.765-7.266 20.953 0 13.375 7.343 21.031Q20.22 56 33.016 56q4.14 0 8.093-.86 3.953-.843 7.672-2.546z" id="DejaVuSans-99"/><path d="M44.281 53.078v-8.5q-3.797 1.953-7.906 2.922-4.094.984-8.5.984-6.688 0-10.031-2.047-3.344-2.046-3.344-6.156 0-3.125 2.39-4.906 2.391-1.781 9.626-3.39l3.078-.688q9.562-2.047 13.593-5.781 4.032-3.735 4.032-10.422 0-7.625-6.032-12.078-6.03-4.438-16.578-4.438-4.39 0-9.156.86Q10.688.296 5.422 2v9.281q4.984-2.594 9.812-3.89 4.829-1.282 9.579-1.282 6.343 0 9.75 2.172 3.421 2.172 3.421 6.125 0 3.656-2.468 5.61-2.453 1.953-10.813 3.765l-3.125.735q-8.344 1.75-12.062 5.39-3.704 3.64-3.704 9.985 0 7.718 5.47 11.906Q16.75 56 26.811 56q4.97 0 9.36-.734 4.406-.72 8.11-2.188z" id="DejaVuSans-115"/></defs><use xlink:href="#DejaVuSans-35"/><use x="83.789" xlink:href="#DejaVuSans-32"/><use x="115.576" xlink:href="#DejaVuSans-111"/><use x="176.758" xlink:href="#DejaVuSans-102"/><use x="211.963" xlink:href="#DejaVuSans-32"/><use x="243.75" xlink:href="#DejaVuSans-99"/><use x="298.73" xlink:href="#DejaVuSans-97"/><use x="360.01" xlink:href="#DejaVuSans-115"/><use x="412.109" xlink:href="#DejaVuSans-101"/><use x="473.633" xlink:href="#DejaVuSans-115"/></g></g><g transform="matrix(.24 0 0 -.24 308.75 71.76)" fill="#696969" id="text_15"><defs><path d="M44.39 34.188q3.172-1.079 6.172-4.594 3-3.516 6.032-9.672L66.609 0H56l-9.313 18.703q-3.624 7.328-7.015 9.719-3.39 2.39-9.25 2.39h-10.75V0h-9.86v72.906h22.266q12.5 0 18.656-5.234 6.157-5.219 6.157-15.766 0-6.89-3.203-11.437-3.204-4.532-9.297-6.282zM19.673 64.797V38.922h12.406q7.125 0 10.766 3.297 3.64 3.297 3.64 9.687 0 6.39-3.64 9.64-3.64 3.25-10.766 3.25z" id="DejaVuSans-82"/><path d="M18.313 70.219V54.688h18.5v-6.985h-18.5V18.016q0-6.688 1.828-8.594 1.828-1.906 7.453-1.906h9.218V0h-9.218q-10.407 0-14.36 3.875-3.953 3.89-3.953 14.14v29.688H2.687v6.984h6.594V70.22z" id="DejaVuSans-116"/><path d="M54.89 33.016V0h-8.984v32.719q0 7.765-3.031 11.61-3.031 3.858-9.078 3.858-7.281 0-11.484-4.64-4.204-4.625-4.204-12.64V0H9.08v75.984h9.03V46.188q3.235 4.937 7.594 7.374Q30.078 56 35.797 56q9.422 0 14.25-5.828 4.844-5.828 4.844-17.156z" id="DejaVuSans-104"/><path d="M45.406 46.39v29.594h8.985V0h-8.985v8.203Q42.578 3.328 38.25.953q-4.313-2.375-10.375-2.375-9.906 0-16.14 7.906-6.22 7.922-6.22 20.813 0 12.89 6.22 20.797Q17.968 56 27.874 56q6.063 0 10.375-2.375 4.328-2.36 7.156-7.234zm-30.61-19.093q0-9.906 4.079-15.547 4.078-5.64 11.203-5.64 7.125 0 11.219 5.64 4.11 5.64 4.11 15.547 0 9.906-4.11 15.547-4.094 5.64-11.219 5.64-7.125 0-11.203-5.64-4.078-5.64-4.078-15.547z" id="DejaVuSans-100"/><path d="M4.203 54.688h8.985l11.234-42.672 11.172 42.672h10.593l11.235-42.672 11.187 42.672h8.985L63.28 0H52.688L40.922 44.828 29.109 0H18.5z" id="DejaVuSans-119"/><path d="M64.406 67.281v-10.39q-4.984 4.64-10.625 6.922-5.64 2.296-11.984 2.296-12.5 0-19.14-7.64-6.641-7.64-6.641-22.094 0-14.406 6.64-22.047 6.64-7.64 19.14-7.64 6.345 0 11.985 2.296 5.64 2.297 10.625 6.938V5.609Q59.234 2.094 53.437.33q-5.78-1.75-12.218-1.75-16.563 0-26.094 10.124-9.516 10.14-9.516 27.672 0 17.578 9.516 27.703 9.531 10.14 26.094 10.14 6.531 0 12.312-1.734 5.797-1.734 10.875-5.203z" id="DejaVuSans-67"/><path d="M9.422 54.688h8.984V0H9.422zm0 21.296h8.984v-11.39H9.422z" id="DejaVuSans-105"/></defs><use xlink:href="#DejaVuSans-82"/><use x="64.982" xlink:href="#DejaVuSans-117"/><use x="128.361" xlink:href="#DejaVuSans-116"/><use x="167.57" xlink:href="#DejaVuSans-104"/><use x="230.949" xlink:href="#DejaVuSans-101"/><use x="292.473" xlink:href="#DejaVuSans-114"/><use x="333.586" xlink:href="#DejaVuSans-102"/><use x="368.791" xlink:href="#DejaVuSans-111"/><use x="429.973" xlink:href="#DejaVuSans-114"/><use x="469.336" xlink:href="#DejaVuSans-100"/><use x="532.813" xlink:href="#DejaVuSans-32"/><use x="564.6" xlink:href="#DejaVuSans-78"/><use x="639.404" xlink:href="#DejaVuSans-101"/><use x="700.928" xlink:href="#DejaVuSans-119"/><use x="782.715" xlink:href="#DejaVuSans-32"/><use x="814.502" xlink:href="#DejaVuSans-67"/><use x="884.326" xlink:href="#DejaVuSans-111"/><use x="945.508" xlink:href="#DejaVuSans-118"/><use x="1004.688" xlink:href="#DejaVuSans-105"/><use x="1032.471" xlink:href="#DejaVuSans-100"/><use x="1095.947" xlink:href="#DejaVuSans-32"/><use x="1127.734" xlink:href="#DejaVuSans-67"/><use x="1197.559" xlink:href="#DejaVuSans-97"/><use x="1258.838" xlink:href="#DejaVuSans-115"/><use x="1310.938" xlink:href="#DejaVuSans-101"/><use x="1372.461" xlink:href="#DejaVuSans-115"/></g><g id="legend_1"><path d="M128.2 161.015h144.675q3.2 0 3.2-3.2V88.96q0-3.2-3.2-3.2H128.2q-3.2 0-3.2 3.2v68.855q0 3.2 3.2 3.2z" fill="none" opacity=".8" stroke="#ccc" id="patch_5"/><path d="M131.4 98.718h32" fill="none" stroke="#000" stroke-linecap="round" stroke-width="1.5" id="line2d_4"/><g transform="matrix(.16 0 0 -.16 176.2 104.317)" fill="#696969" id="text_16"><defs><path d="M37.797 64.313L12.89 25.39h24.906zm-2.594 8.593H47.61V25.391h10.407v-8.203H47.609V0h-9.812v17.188H4.89v9.515z" id="DejaVuSans-52"/><path d="M45.406 27.984q0 9.766-4.031 15.125-4.016 5.375-11.297 5.375-7.219 0-11.25-5.375-4.031-5.359-4.031-15.125 0-9.718 4.031-15.093t11.25-5.375q7.281 0 11.297 5.375 4.031 5.375 4.031 15.093zm8.985-21.203q0-13.953-6.203-20.765Q42-20.797 29.203-20.797q-4.734 0-8.937.703-4.203.703-8.157 2.172v8.735q3.954-2.141 7.813-3.157 3.86-1.031 7.86-1.031 8.843 0 13.234 4.61 4.39 4.609 4.39 13.937v4.453q-2.781-4.844-7.125-7.234Q33.938 0 27.875 0 17.828 0 11.672 7.656q-6.156 7.672-6.156 20.328 0 12.688 6.156 20.344Q17.828 56 27.875 56q6.063 0 10.406-2.39 4.344-2.391 7.125-7.22v8.297h8.985z" id="DejaVuSans-103"/></defs><use xlink:href="#DejaVuSans-49"/><use x="63.623" xlink:href="#DejaVuSans-52"/><use x="127.246" xlink:href="#DejaVuSans-100"/><use x="190.723" xlink:href="#DejaVuSans-32"/><use x="222.51" xlink:href="#DejaVuSans-97"/><use x="283.789" xlink:href="#DejaVuSans-118"/><use x="342.969" xlink:href="#DejaVuSans-103"/></g><path d="M131.4 127.802h32v-11.2h-32z" fill="#089fff" opacity=".2" stroke="#fff" id="patch_6"/><g transform="matrix(.16 0 0 -.16 176.2 127.802)" fill="#696969" id="text_17"><defs><path d="M8.688 72.906h9.921V28.61q0-11.718 4.235-16.875 4.25-5.14 13.781-5.14 9.469 0 13.719 5.14 4.25 5.157 4.25 16.875v44.297H64.5V27.391q0-14.25-7.063-21.532-7.046-7.28-20.812-7.28-13.828 0-20.89 7.28-7.047 7.282-7.047 21.532z" id="DejaVuSans-85"/></defs><use xlink:href="#DejaVuSans-85"/><use x="73.193" xlink:href="#DejaVuSans-110"/><use x="136.572" xlink:href="#DejaVuSans-99"/><use x="191.553" xlink:href="#DejaVuSans-101"/><use x="253.076" xlink:href="#DejaVuSans-114"/><use x="294.189" xlink:href="#DejaVuSans-116"/><use x="333.398" xlink:href="#DejaVuSans-97"/><use x="394.678" xlink:href="#DejaVuSans-105"/><use x="422.461" xlink:href="#DejaVuSans-110"/><use x="485.84" xlink:href="#DejaVuSans-116"/><use x="525.049" xlink:href="#DejaVuSans-121"/></g><path d="M147.4 151.287v-7.7" fill="none" stroke="#000" stroke-dasharray="2.25,3.7125" stroke-width="1.5" id="line2d_6"/><g transform="matrix(.16 0 0 -.16 176.2 151.287)" fill="#696969" id="text_18"><defs><path d="M19.672 64.797V8.109h11.922q15.093 0 22.093 6.829 7 6.843 7 21.593 0 14.64-7 21.453-7 6.813-22.093 6.813zm-9.86 8.11h20.266q21.188 0 31.094-8.813 9.922-8.813 9.922-27.563 0-18.86-9.969-27.703Q51.172 0 30.078 0H9.813z" id="DejaVuSans-68"/></defs><use xlink:href="#DejaVuSans-68"/><use x="77.002" xlink:href="#DejaVuSans-97"/><use x="138.281" xlink:href="#DejaVuSans-105"/><use x="166.064" xlink:href="#DejaVuSans-108"/><use x="193.848" xlink:href="#DejaVuSans-121"/><use x="253.027" xlink:href="#DejaVuSans-32"/><use x="284.814" xlink:href="#DejaVuSans-67"/><use x="354.639" xlink:href="#DejaVuSans-97"/><use x="415.918" xlink:href="#DejaVuSans-115"/><use x="468.018" xlink:href="#DejaVuSans-101"/><use x="529.541" xlink:href="#DejaVuSans-115"/></g></g></g></g><defs><clipPath id="p4dfc9893c7"><path d="M117 77.76h725.4v498.96H117z"/></clipPath></defs></svg>