<svg height="864" viewBox="0 0 936 648" width="1248" xmlns="http://www.w3.org/2000/svg" xmlns:xlink="http://www.w3.org/1999/xlink"><defs><style>*{stroke-linecap:butt;stroke-linejoin:round}</style></defs><g id="figure_1"><path d="M0 648h936V0H0z" style="fill:#fff" id="patch_1"/><g id="axes_1"><path d="M117 576.72h725.4V77.76H117z" style="fill:none" id="patch_2"/><path clip-path="url(#p326cea3bdc)" d="m149.973 554.04 86.654-.103 5.875-.255 4.406-.403 4.406-.608 4.406-.815 4.407-1.032 7.343-1.984 11.75-3.116 16.156-4.164 10.28-2.525L313 537.4l16.156-3.26 14.688-2.785 24.968-4.864 5.875-1.369 4.406-1.22 4.406-1.435 4.406-1.625 5.875-2.473 5.875-2.683 4.406-2.19 4.406-2.396 27.906-15.995 4.406-2.222 13.218-6.246 5.875-2.557 5.875-2.283 16.156-5.96 7.344-2.567 16.156-5.332 5.874-2.223 19.094-7.44 5.875-2.603 10.28-4.876 4.407-2.285 4.406-2.428 5.875-3.65 4.406-3.02 4.406-3.221 2.938-2.329 2.937-2.55 2.937-2.82 2.938-3.097 2.937-3.39 2.938-3.709 4.406-6.005 4.406-6.437 13.219-19.688 4.406-6.282 4.406-7.201 4.406-7.849 5.875-11.093 14.687-28.244 2.938-5.438 11.75-19.3 2.937-5.415 4.406-8.784 1.469-3.073 5.874-13.179 4.407-9.522 2.937-5.898 2.937-5.514 2.938-5.122 2.937-4.774 4.407-6.714 4.406-6.342 4.406-5.892 2.937-3.725 2.938-3.46 4.406-4.724 4.406-4.188 4.406-3.796 2.938-2.288 2.937-2.054 4.406-2.719 7.344-4.389 7.343-4.38 5.875-3.215 2.938-1.597 7.343-4.06 2.938-1.504 16.156-7.93 4.406-2.454 22.03-12.893h0" style="fill:none;stroke:#000;stroke-linecap:round;stroke-width:1.5" id="line2d_1"/><path clip-path="url(#p326cea3bdc)" d="m149.973 554.04 83.717-.077 4.406-.192 2.937-.306 2.938-.503 1.468-.42 1.47-.54 2.937-1.452 2.937-1.966 2.937-2.496 2.938-3.008 4.406-5.07 7.344-8.441 10.28-11.356 10.282-11.524 2.937-2.993 2.938-2.666 4.406-3.746 4.406-3.375 2.937-1.996 2.938-1.717 2.937-1.49 2.938-1.278 14.687-5.657 4.406-1.367 8.812-2.516 4.406-1 4.407-.79 8.812-1.234 10.28-1.14 5.876-.734 8.812-1.577 26.437-2.556 10.281-.801 8.812-1.249 7.344-.926 11.75-1.406 7.343-.92 22.031-2.073 20.562-2.438 11.75-1.711 5.875-1.042 8.812-1.85 7.344-1.727 7.343-1.95 4.406-1.232 7.344-2.486 7.344-3.034 4.406-2.171 5.875-3.156 2.937-1.744 4.406-3.094 2.938-2.447 2.937-2.783 1.469-1.512 5.875-6.872 7.343-9.277 16.156-21.416 2.938-4.479 4.406-7.148 4.406-7.085 13.218-19.905 8.813-12.527 5.875-7.53 2.937-3.93 1.469-2.108 2.937-10.995 4.406-17.42 2.938-12.254 7.343-15.219 4.406-8.613 2.938-5.423 4.406-7.25L703.68 226l2.937-4.166 2.937-3.676 8.813-10.505 2.937-3.598 4.406-4.73 4.406-4.507 10.282-9.958 5.874-6.31 5.875-6.446 8.813-9.604 4.406-5.185 4.406-5.343 4.406-5.644 5.875-7.852 5.875-8.275 10.28-14.86 5.876-7.726 5.875-7.175h0" style="fill:none;stroke:#009e73;stroke-linecap:round;stroke-width:1.5" id="line2d_2"/><path clip-path="url(#p326cea3bdc)" d="m149.973 554.04 79.31-.075 4.407-.166 4.406-.612 2.937-.632 2.938-.848 1.468-.59 1.47-.757 1.468-.96 2.937-2.33 1.469-1.437 2.937-3.62 1.47-2.186 2.937-5.163 7.343-14.105 2.938-4.68 1.468-2.101 4.407-5.81 7.343-9.39 2.938-3.561 4.406-4.813 2.937-2.593 2.938-2.16 1.468-.954 5.875-3.149 2.938-1.348 2.937-1.111 4.406-1.38 2.938-.716 5.874-1.164 13.219-2.61 5.875-1.402 4.406-.73 13.218-1.541 8.813-1.137 7.343-.627 1.47-.11 4.405-1.029 5.875-1.584 7.344-.912 5.875-.748 5.874-.678 5.875-.416 5.875-.359 7.344-.689 16.156-1.925 10.28-1.254 4.407-.788 4.406-.753 4.406-.35 4.406-.186 7.344-.688 10.281-1.14 22.03-1.83 17.625-1.985 7.344-1.191 5.875-1.171 7.343-1.747 7.344-2.14 5.875-2.09 2.937-1.092 7.344-3.264 5.875-3.135 4.406-2.794 1.469-1.048 2.937-2.583 2.938-2.866 2.937-3.115 7.344-8.422 4.406-5.403 7.343-8.808 4.406-5.505 1.47-1.93 8.811-12.648 5.875-6.999 4.407-5.258 2.937-3.546 2.937-3.337 4.407-4.97 4.406-5.04 8.812-9.724 1.469-1.768 2.937-9.427 4.406-15.141 2.938-10.678 2.937-5.11 10.281-17.622 2.938-4.641 4.406-6.44 7.343-10.917 4.407-6.308 2.937-3.811 16.156-19.19 2.937-3.192 4.406-4.745 4.407-4.603 4.406-4.765 4.406-5.458 8.812-11.497 2.938-3.49 7.343-8.8 5.875-7.74 2.938-3.97 11.75-16.884 5.874-9.328 2.938-4.878 2.937-4.557 2.938-4.294 2.937-4.041 2.937-3.708 4.407-5.203h0" style="fill:none;stroke:#d55e00;stroke-linecap:round;stroke-width:1.5" id="line2d_3"/><path clip-path="url(#p326cea3bdc)" d="m149.973 554.04 85.185-.066 5.875-.331 2.938-.497 2.937-.894 2.938-1.16 1.468-.761 1.469-.928 4.406-3.08 1.469-1.523 2.937-3.577 7.344-8.148 2.937-2.086 4.407-3.08 11.75-6.988 5.874-3.478 2.938-1.325 5.874-1.92 2.938-.663 2.937-.331 2.938-.067 1.468-.165 4.407-.994 4.406-1.093 2.937-.364 4.406-.199 10.281-.298 4.407-.397 5.874-.729 4.407-.298 4.406-.166 10.28-.629 7.344-.265 4.407-.397 4.406-.563 5.875-.828 4.406-.563 7.343-1.424 1.469-.332 5.875-.761 11.75-.895 5.874-.629 39.656-1.888 11.75-1.126 5.875-.695 7.343-.729 14.687-1.093 5.875-.695 5.875-.43 5.875-.034 4.406-.066 1.469-.1 1.469-.264 2.937-1.193 4.406-1.888 1.469-.794 1.469-.663 2.937-1.159 2.937-1.557 1.47-.828 4.405-1.92 2.938-.696 1.468-.199 1.47-.331 2.937-.96 1.468-.663 4.406-2.484 4.407-2.947 5.874-3.71 4.407-3.444 4.406-4.604 4.406-4.736 1.469-2.12 1.468-1.821 2.938-4.273 2.937-4.371 1.469-2.02 1.469-1.822 1.468-1.557 1.47-1.093 7.343-8.048 1.468-2.252 1.47-3.047 8.811-16.262 1.47-2.185 7.343-9.274 1.469-1.292 4.406-4.67 2.937-3.907 2.938-5.333 13.218-19.474 2.937-4.405 5.875-10.896 2.938-6.757 2.937-5.795 2.938-5.465 1.468-2.583 2.938-4.505 1.468-1.523 2.938-3.544 1.469-1.49 4.406-3.776 1.469-2.285 2.937-3.312 1.469-1.656 2.937-4.339 1.469-2.252 2.937-2.318 4.406-5.1 2.938-2.716 1.469-1.888 1.468-2.12 2.938-2.782 1.468-1.292 2.938-3.047 1.469-.993 4.406-3.577 1.468-1.126 1.47-.894 4.405-3.379 1.47-.96 2.937-2.716 1.468-1.424 1.469-1.192 2.937-3.345 1.47-1.789 1.468-1.457 5.875-6.392 2.937-2.782 1.469-1.722 4.406-4.471 2.937-3.677 1.47-1.888 4.405-4.636 7.344-7.75 2.937-3.445 1.47-2.02 4.405-4.77 8.813-10.962 2.937-1.987v-1.689l5.875-6.094 2.937-2.418h0" style="fill:none;stroke:#0072b2;stroke-linecap:round;stroke-width:1.5" id="line2d_4"/><path d="M117 576.72V77.76" style="fill:none;stroke:#d3d3d3;stroke-linecap:square;stroke-linejoin:miter;stroke-width:1.25" id="patch_3"/><path d="M117 576.72h725.4" style="fill:none;stroke:#d3d3d3;stroke-linecap:square;stroke-linejoin:miter;stroke-width:1.25" id="patch_4"/><g id="matplotlib.axis_1"><g id="xtick_1"><g style="fill:#696969" transform="matrix(.16 0 0 -.16 108.266 598.378)" id="text_1"><defs><path d="M9.813 72.906h9.859V5.078q0-13.187-5-19.14-5-5.954-16.094-5.954h-3.75v8.297h3.078q6.531 0 9.219 3.672Q9.813-4.39 9.813 5.078z" id="DejaVuSans-74"/><path d="M34.281 27.484q-10.89 0-15.093-2.484-4.204-2.484-4.204-8.5 0-4.781 3.157-7.594 3.156-2.797 8.562-2.797 7.485 0 12 5.297 4.516 5.297 4.516 14.078v2zm17.922 3.72V0H43.22v8.297Q40.14 3.328 35.547.953q-4.594-2.375-11.234-2.375-8.391 0-13.36 4.719Q6 8.016 6 15.922q0 9.219 6.172 13.906 6.187 4.688 18.437 4.688h12.61v.89q0 6.203-4.078 9.594-4.078 3.39-11.453 3.39-4.688 0-9.141-1.124-4.438-1.125-8.531-3.375v8.312q4.921 1.906 9.562 2.844 4.64.953 9.031.953 11.875 0 17.735-6.156 5.86-6.14 5.86-18.64z" id="DejaVuSans-97"/><path d="M54.89 33.016V0h-8.984v32.719q0 7.765-3.031 11.61-3.031 3.858-9.078 3.858-7.281 0-11.484-4.64-4.204-4.625-4.204-12.64V0H9.08v54.688h9.03v-8.5q3.235 4.937 7.594 7.374Q30.078 56 35.797 56q9.422 0 14.25-5.828 4.844-5.828 4.844-17.156z" id="DejaVuSans-110"/></defs><use xlink:href="#DejaVuSans-74"/><use x="29.492" xlink:href="#DejaVuSans-97"/><use x="90.771" xlink:href="#DejaVuSans-110"/></g></g><g id="xtick_2"><g style="fill:#696969" transform="matrix(.16 0 0 -.16 193.628 598.378)" id="text_2"><defs><path d="M9.813 72.906h14.703l18.593-49.61 18.703 49.61h14.704V0H66.89v64.016l-18.797-50h-9.907l-18.796 50V0H9.813z" id="DejaVuSans-77"/><path d="M41.11 46.297q-1.516.875-3.297 1.281Q36.03 48 33.89 48q-7.625 0-11.703-4.953-4.079-4.953-4.079-14.234V0H9.08v54.688h9.03v-8.5q2.844 4.984 7.375 7.39Q30.031 56 36.531 56q.922 0 2.047-.125 1.125-.11 2.484-.36z" id="DejaVuSans-114"/></defs><use xlink:href="#DejaVuSans-77"/><use x="86.279" xlink:href="#DejaVuSans-97"/><use x="147.559" xlink:href="#DejaVuSans-114"/></g></g><g id="xtick_3"><g style="fill:#696969" transform="matrix(.16 0 0 -.16 281.773 598.378)" id="text_3"><defs><path d="M32.172-5.078q-3.797-9.766-7.422-12.735-3.61-2.984-9.656-2.984H7.906v7.516h5.282q3.703 0 5.75 1.765Q21-9.766 23.483-3.219l1.61 4.094-22.11 53.813H12.5l17.094-42.766 17.093 42.766h9.516z" id="DejaVuSans-121"/></defs><use xlink:href="#DejaVuSans-77"/><use x="86.279" xlink:href="#DejaVuSans-97"/><use x="147.559" xlink:href="#DejaVuSans-121"/></g></g><g id="xtick_4"><g style="fill:#696969" transform="matrix(.16 0 0 -.16 378.253 598.378)" id="text_4"><defs><path d="M8.5 21.578v33.11h8.984V21.922q0-7.766 3.016-11.656 3.031-3.875 9.094-3.875 7.265 0 11.484 4.64 4.234 4.64 4.234 12.656v31h8.985V0h-8.984v8.406Q42.047 3.422 37.718 1q-4.313-2.422-10.032-2.422-9.421 0-14.312 5.86Q8.5 10.296 8.5 21.578zM31.11 56z" id="DejaVuSans-117"/><path d="M9.422 75.984h8.984V0H9.422z" id="DejaVuSans-108"/></defs><use xlink:href="#DejaVuSans-74"/><use x="29.492" xlink:href="#DejaVuSans-117"/><use x="92.871" xlink:href="#DejaVuSans-108"/></g></g><g id="xtick_5"><g style="fill:#696969" transform="matrix(.16 0 0 -.16 463.886 598.378)" id="text_5"><defs><path d="M53.516 70.516V60.89q-5.61 2.687-10.594 4-4.984 1.328-9.625 1.328-8.047 0-12.422-3.125t-4.375-8.89q0-4.845 2.906-7.313 2.907-2.453 11.016-3.97l5.953-1.218q11.031-2.11 16.281-7.406 5.25-5.297 5.25-14.172 0-10.61-7.11-16.078-7.093-5.469-20.812-5.469-5.172 0-11.015 1.172Q13.14.922 6.89 3.219v10.156q6-3.36 11.765-5.078 5.766-1.703 11.328-1.703 8.438 0 13.032 3.312 4.593 3.328 4.593 9.485 0 5.359-3.297 8.39-3.296 3.032-10.812 4.547L27.484 33.5q-11.03 2.188-15.968 6.875-4.922 4.688-4.922 13.047 0 9.672 6.812 15.234 6.813 5.563 18.766 5.563 5.14 0 10.453-.938 5.328-.922 10.89-2.765z" id="DejaVuSans-83"/><path d="M56.203 29.594v-4.39H14.891q.593-9.282 5.593-14.142 5-4.859 13.938-4.859 5.172 0 10.031 1.266 4.86 1.265 9.656 3.812v-8.5Q49.266.734 44.187-.344 39.11-1.422 33.892-1.422q-13.094 0-20.735 7.61-7.64 7.625-7.64 20.625 0 13.421 7.25 21.296Q20.016 56 32.328 56q11.031 0 17.453-7.11 6.422-7.093 6.422-19.296zm-8.984 2.64q-.094 7.36-4.125 11.75-4.032 4.407-10.672 4.407-7.516 0-12.031-4.25-4.516-4.25-5.203-11.97z" id="DejaVuSans-101"/><path d="M18.11 8.203v-29H9.077v75.484h9.031v-8.296q2.844 4.875 7.157 7.234Q29.594 56 35.594 56q9.968 0 16.187-7.906 6.235-7.907 6.235-20.797T51.78 6.484q-6.218-7.906-16.187-7.906-6 0-10.328 2.375-4.313 2.375-7.157 7.25zm30.578 19.094q0 9.906-4.079 15.547-4.078 5.64-11.203 5.64-7.14 0-11.218-5.64-4.079-5.64-4.079-15.547 0-9.906 4.078-15.547 4.079-5.64 11.22-5.64 7.124 0 11.202 5.64t4.078 15.547z" id="DejaVuSans-112"/></defs><use xlink:href="#DejaVuSans-83"/><use x="63.477" xlink:href="#DejaVuSans-101"/><use x="125" xlink:href="#DejaVuSans-112"/></g></g><g id="xtick_6"><g style="fill:#696969" transform="matrix(.16 0 0 -.16 552.942 598.378)" id="text_6"><defs><path d="M9.813 72.906h13.28l32.329-60.984v60.984h9.562V0h-13.28L19.39 60.984V0H9.813z" id="DejaVuSans-78"/><path d="M30.61 48.39q-7.22 0-11.422-5.64-4.204-5.64-4.204-15.453 0-9.813 4.172-15.453 4.188-5.64 11.453-5.64 7.188 0 11.375 5.655 4.203 5.672 4.203 15.438 0 9.719-4.203 15.406-4.187 5.688-11.375 5.688zm0 7.61q11.718 0 18.406-7.625 6.703-7.61 6.703-21.078 0-13.422-6.703-21.078-6.688-7.64-18.407-7.64-11.765 0-18.437 7.64-6.656 7.656-6.656 21.078 0 13.469 6.656 21.078Q18.844 56 30.609 56z" id="DejaVuSans-111"/><path d="M2.984 54.688H12.5L29.594 8.797l17.093 45.89h9.516L35.687 0H23.485z" id="DejaVuSans-118"/></defs><use xlink:href="#DejaVuSans-78"/><use x="74.805" xlink:href="#DejaVuSans-111"/><use x="135.986" xlink:href="#DejaVuSans-118"/></g></g><g id="xtick_7"><g style="fill:#696969" transform="matrix(.16 0 0 -.16 645.817 598.378)" id="text_7"><use xlink:href="#DejaVuSans-74"/><use x="29.492" xlink:href="#DejaVuSans-97"/><use x="90.771" xlink:href="#DejaVuSans-110"/></g></g><g id="xtick_8"><g style="fill:#696969" transform="matrix(.16 0 0 -.16 729.71 598.378)" id="text_8"><use xlink:href="#DejaVuSans-77"/><use x="86.279" xlink:href="#DejaVuSans-97"/><use x="147.559" xlink:href="#DejaVuSans-114"/></g></g><g id="xtick_9"><g style="fill:#696969" transform="matrix(.16 0 0 -.16 817.855 598.378)" id="text_9"><use xlink:href="#DejaVuSans-77"/><use x="86.279" xlink:href="#DejaVuSans-97"/><use x="147.559" xlink:href="#DejaVuSans-121"/></g></g></g><g id="matplotlib.axis_2"><g id="ytick_1"><g style="fill:#696969" transform="matrix(.16 0 0 -.16 97.32 560.119)" id="text_10"><defs><path d="M31.781 66.406q-7.61 0-11.453-7.5Q16.5 51.422 16.5 36.375q0-14.984 3.828-22.484 3.844-7.5 11.453-7.5 7.672 0 11.5 7.5 3.844 7.5 3.844 22.484 0 15.047-3.844 22.531-3.828 7.5-11.5 7.5zm0 7.813q12.266 0 18.735-9.703 6.468-9.688 6.468-28.141 0-18.406-6.468-28.11-6.47-9.687-18.735-9.687-12.25 0-18.718 9.688-6.47 9.703-6.47 28.109 0 18.453 6.47 28.14Q19.53 74.22 31.78 74.22z" id="DejaVuSans-48"/></defs><use xlink:href="#DejaVuSans-48"/></g></g><g id="ytick_2"><g style="fill:#696969" transform="matrix(.16 0 0 -.16 66.78 475.253)" id="text_11"><defs><path d="M19.188 8.297h34.421V0H7.33v8.297q5.609 5.812 15.296 15.594 9.703 9.797 12.188 12.64 4.734 5.313 6.609 9 1.89 3.688 1.89 7.25 0 5.813-4.078 9.469-4.078 3.672-10.625 3.672-4.64 0-9.797-1.61-5.14-1.609-11-4.89v9.969Q13.767 71.78 18.938 73q5.188 1.219 9.485 1.219 11.328 0 18.062-5.672 6.735-5.656 6.735-15.125 0-4.5-1.688-8.531-1.672-4.016-6.125-9.485-1.218-1.422-7.765-8.187-6.532-6.766-18.453-18.922z" id="DejaVuSans-50"/></defs><use xlink:href="#DejaVuSans-50"/><use x="63.623" xlink:href="#DejaVuSans-48"/><use x="127.246" xlink:href="#DejaVuSans-48"/><use x="190.869" xlink:href="#DejaVuSans-48"/></g></g><g id="ytick_3"><g style="fill:#696969" transform="matrix(.16 0 0 -.16 66.78 390.387)" id="text_12"><defs><path d="M37.797 64.313 12.89 25.39h24.906zm-2.594 8.593H47.61V25.391h10.407v-8.203H47.609V0h-9.812v17.188H4.89v9.515z" id="DejaVuSans-52"/></defs><use xlink:href="#DejaVuSans-52"/><use x="63.623" xlink:href="#DejaVuSans-48"/><use x="127.246" xlink:href="#DejaVuSans-48"/><use x="190.869" xlink:href="#DejaVuSans-48"/></g></g><g id="ytick_4"><g style="fill:#696969" transform="matrix(.16 0 0 -.16 66.78 305.52)" id="text_13"><defs><path d="M33.016 40.375q-6.641 0-10.532-4.547-3.875-4.531-3.875-12.437 0-7.86 3.875-12.438 3.891-4.562 10.532-4.562 6.64 0 10.515 4.562 3.875 4.578 3.875 12.438 0 7.906-3.875 12.437-3.875 4.547-10.515 4.547zm19.578 30.922v-8.984q-3.719 1.75-7.5 2.671-3.782.938-7.5.938-9.766 0-14.922-6.594-5.14-6.594-5.875-19.922 2.875 4.25 7.219 6.516 4.359 2.266 9.578 2.266 10.984 0 17.36-6.672 6.374-6.657 6.374-18.125 0-11.235-6.64-18.032-6.641-6.78-17.672-6.78-12.657 0-19.344 9.687-6.688 9.703-6.688 28.109 0 17.281 8.204 27.563 8.203 10.28 22.015 10.28 3.719 0 7.5-.734t7.89-2.187z" id="DejaVuSans-54"/></defs><use xlink:href="#DejaVuSans-54"/><use x="63.623" xlink:href="#DejaVuSans-48"/><use x="127.246" xlink:href="#DejaVuSans-48"/><use x="190.869" xlink:href="#DejaVuSans-48"/></g></g><g id="ytick_5"><g style="fill:#696969" transform="matrix(.16 0 0 -.16 66.78 220.655)" id="text_14"><defs><path d="M31.781 34.625q-7.031 0-11.062-3.766-4.016-3.765-4.016-10.343 0-6.594 4.016-10.36Q24.75 6.391 31.78 6.391q7.032 0 11.078 3.78 4.063 3.798 4.063 10.345 0 6.578-4.031 10.343-4.016 3.766-11.11 3.766zm-9.86 4.188q-6.343 1.562-9.89 5.906Q8.5 49.079 8.5 55.329q0 8.733 6.219 13.812 6.234 5.078 17.062 5.078 10.89 0 17.094-5.078 6.203-5.079 6.203-13.813 0-6.25-3.547-10.61-3.531-4.343-9.828-5.906 7.125-1.656 11.094-6.5 3.984-4.828 3.984-11.796 0-10.61-6.468-16.282-6.47-5.656-18.532-5.656-12.047 0-18.531 5.656-6.469 5.672-6.469 16.282 0 6.968 4 11.797 4.016 4.843 11.14 6.5zM18.314 54.39q0-5.657 3.53-8.828 3.548-3.172 9.938-3.172 6.36 0 9.938 3.172 3.593 3.171 3.593 8.828 0 5.672-3.593 8.843-3.578 3.172-9.938 3.172-6.39 0-9.937-3.172-3.532-3.172-3.532-8.843z" id="DejaVuSans-56"/></defs><use xlink:href="#DejaVuSans-56"/><use x="63.623" xlink:href="#DejaVuSans-48"/><use x="127.246" xlink:href="#DejaVuSans-48"/><use x="190.869" xlink:href="#DejaVuSans-48"/></g></g><g id="ytick_6"><g style="fill:#696969" transform="matrix(.16 0 0 -.16 56.6 135.789)" id="text_15"><defs><path d="M12.406 8.297h16.11v55.625l-17.532-3.516v8.985l17.438 3.515h9.86V8.296H54.39V0H12.406z" id="DejaVuSans-49"/></defs><use xlink:href="#DejaVuSans-49"/><use x="63.623" xlink:href="#DejaVuSans-48"/><use x="127.246" xlink:href="#DejaVuSans-48"/><use x="190.869" xlink:href="#DejaVuSans-48"/><use x="254.492" xlink:href="#DejaVuSans-48"/></g></g><g style="fill:#696969" transform="matrix(0 -.2 -.2 0 48.44 379.813)" id="text_16"><defs><path d="M51.125 44H36.922l-4.11-16.313h14.313zm-7.328 27.781-5.078-20.265h14.265L58.11 71.78h7.813L60.89 51.516h15.234V44h-17.14l-4-16.313h15.53V20.22H53.079L48 0h-7.813l5.032 20.219H30.906L25.875 0h-7.86l5.079 20.219H7.719v7.468h17.187L29 44H13.281v7.516h17.625l4.985 20.265z" id="DejaVuSans-35"/><path d="M37.11 75.984V68.5h-8.594q-4.828 0-6.72-1.953-1.874-1.953-1.874-7.031v-4.828h14.797v-6.985H19.922V0H10.89v47.703H2.297v6.984h8.594V58.5q0 9.125 4.25 13.297 4.25 4.187 13.468 4.187z" id="DejaVuSans-102"/><path d="M48.781 52.594v-8.407q-3.812 2.11-7.64 3.157-3.828 1.047-7.735 1.047-8.75 0-13.593-5.547-4.829-5.532-4.829-15.547 0-10.016 4.829-15.563 4.843-5.53 13.593-5.53 3.907 0 7.735 1.046 3.828 1.047 7.64 3.156V2.094Q45.016.344 40.984-.531q-4.015-.89-8.562-.89-12.36 0-19.64 7.765-7.266 7.765-7.266 20.953 0 13.375 7.343 21.031Q20.22 56 33.016 56q4.14 0 8.093-.86 3.953-.843 7.672-2.546z" id="DejaVuSans-99"/><path d="M44.281 53.078v-8.5q-3.797 1.953-7.906 2.922-4.094.984-8.5.984-6.688 0-10.031-2.047-3.344-2.046-3.344-6.156 0-3.125 2.39-4.906 2.391-1.781 9.626-3.39l3.078-.688q9.562-2.047 13.593-5.781 4.032-3.735 4.032-10.422 0-7.625-6.032-12.078-6.03-4.438-16.578-4.438-4.39 0-9.156.86Q10.688.296 5.422 2v9.281q4.984-2.594 9.812-3.89 4.829-1.282 9.579-1.282 6.343 0 9.75 2.172 3.421 2.172 3.421 6.125 0 3.656-2.468 5.61-2.453 1.953-10.813 3.765l-3.125.735q-8.344 1.75-12.062 5.39-3.704 3.64-3.704 9.985 0 7.718 5.47 11.906Q16.75 56 26.811 56q4.97 0 9.36-.734 4.406-.72 8.11-2.188z" id="DejaVuSans-115"/></defs><use xlink:href="#DejaVuSans-35"/><use x="83.789" xlink:href="#DejaVuSans-32"/><use x="115.576" xlink:href="#DejaVuSans-111"/><use x="176.758" xlink:href="#DejaVuSans-102"/><use x="211.963" xlink:href="#DejaVuSans-32"/><use x="243.75" xlink:href="#DejaVuSans-99"/><use x="298.73" xlink:href="#DejaVuSans-97"/><use x="360.01" xlink:href="#DejaVuSans-115"/><use x="412.109" xlink:href="#DejaVuSans-101"/><use x="473.633" xlink:href="#DejaVuSans-115"/></g></g><g style="fill:#696969" transform="matrix(.24 0 0 -.24 209.82 71.76)" id="text_17"><defs><path d="M-.297 72.906h61.672v-8.312H35.5V0h-9.906v64.594H-.296z" id="DejaVuSans-84"/><path d="M18.313 70.219V54.688h18.5v-6.985h-18.5V18.016q0-6.688 1.828-8.594 1.828-1.906 7.453-1.906h9.218V0h-9.218q-10.407 0-14.36 3.875-3.953 3.89-3.953 14.14v29.688H2.687v6.984h6.594V70.22z" id="DejaVuSans-116"/><path d="M25.39 72.906h8.297L8.297-9.28H0z" id="DejaVuSans-47"/><path d="M9.813 72.906h9.859V42.094L52.39 72.906h12.703L28.906 38.922 67.672 0H54.688L19.672 35.11V0h-9.86z" id="DejaVuSans-75"/><path d="M9.422 54.688h8.984V0H9.422zm0 21.296h8.984v-11.39H9.422z" id="DejaVuSans-105"/><path d="M45.406 46.39v29.594h8.985V0h-8.985v8.203Q42.578 3.328 38.25.953q-4.313-2.375-10.375-2.375-9.906 0-16.14 7.906-6.22 7.922-6.22 20.813 0 12.89 6.22 20.797Q17.968 56 27.874 56q6.063 0 10.375-2.375 4.328-2.36 7.156-7.234zm-30.61-19.093q0-9.906 4.079-15.547 4.078-5.64 11.203-5.64 7.125 0 11.219 5.64 4.11 5.64 4.11 15.547 0 9.906-4.11 15.547-4.094 5.64-11.219 5.64-7.125 0-11.203-5.64-4.078-5.64-4.078-15.547z" id="DejaVuSans-100"/><path d="M4.89 31.39h26.313v-8H4.891z" id="DejaVuSans-45"/><path d="M8.203 72.906h46.875v-4.203L28.61 0H18.312L43.22 64.594H8.203z" id="DejaVuSans-55"/><path d="M45.406 27.984q0 9.766-4.031 15.125-4.016 5.375-11.297 5.375-7.219 0-11.25-5.375-4.031-5.359-4.031-15.125 0-9.718 4.031-15.093t11.25-5.375q7.281 0 11.297 5.375 4.031 5.375 4.031 15.093zm8.985-21.203q0-13.953-6.203-20.765Q42-20.797 29.203-20.797q-4.734 0-8.937.703-4.203.703-8.157 2.172v8.735q3.954-2.141 7.813-3.157 3.86-1.031 7.86-1.031 8.843 0 13.234 4.61 4.39 4.609 4.39 13.937v4.453q-2.781-4.844-7.125-7.234Q33.938 0 27.875 0 17.828 0 11.672 7.656q-6.156 7.672-6.156 20.328 0 12.688 6.156 20.344Q17.828 56 27.875 56q6.063 0 10.406-2.39 4.344-2.391 7.125-7.22v8.297h8.985z" id="DejaVuSans-103"/></defs><use xlink:href="#DejaVuSans-84"/><use x="44.084" xlink:href="#DejaVuSans-111"/><use x="105.266" xlink:href="#DejaVuSans-116"/><use x="144.475" xlink:href="#DejaVuSans-97"/><use x="205.754" xlink:href="#DejaVuSans-108"/><use x="233.537" xlink:href="#DejaVuSans-32"/><use x="265.324" xlink:href="#DejaVuSans-99"/><use x="320.305" xlink:href="#DejaVuSans-97"/><use x="381.584" xlink:href="#DejaVuSans-115"/><use x="433.684" xlink:href="#DejaVuSans-101"/><use x="495.207" xlink:href="#DejaVuSans-115"/><use x="547.307" xlink:href="#DejaVuSans-32"/><use x="579.094" xlink:href="#DejaVuSans-47"/><use x="612.785" xlink:href="#DejaVuSans-32"/><use x="644.572" xlink:href="#DejaVuSans-49"/><use x="708.195" xlink:href="#DejaVuSans-48"/><use x="771.818" xlink:href="#DejaVuSans-48"/><use x="835.441" xlink:href="#DejaVuSans-75"/><use x="901.018" xlink:href="#DejaVuSans-32"/><use x="932.805" xlink:href="#DejaVuSans-114"/><use x="971.668" xlink:href="#DejaVuSans-101"/><use x="1033.191" xlink:href="#DejaVuSans-115"/><use x="1085.291" xlink:href="#DejaVuSans-105"/><use x="1113.074" xlink:href="#DejaVuSans-100"/><use x="1176.551" xlink:href="#DejaVuSans-101"/><use x="1238.074" xlink:href="#DejaVuSans-110"/><use x="1301.453" xlink:href="#DejaVuSans-116"/><use x="1340.662" xlink:href="#DejaVuSans-115"/><use x="1392.762" xlink:href="#DejaVuSans-32"/><use x="1424.549" xlink:href="#DejaVuSans-45"/><use x="1460.633" xlink:href="#DejaVuSans-45"/><use x="1496.717" xlink:href="#DejaVuSans-32"/><use x="1528.504" xlink:href="#DejaVuSans-55"/><use x="1592.127" xlink:href="#DejaVuSans-32"/><use x="1623.914" xlink:href="#DejaVuSans-100"/><use x="1687.391" xlink:href="#DejaVuSans-97"/><use x="1748.67" xlink:href="#DejaVuSans-121"/><use x="1807.85" xlink:href="#DejaVuSans-32"/><use x="1839.637" xlink:href="#DejaVuSans-97"/><use x="1900.916" xlink:href="#DejaVuSans-118"/><use x="1960.096" xlink:href="#DejaVuSans-101"/><use x="2021.619" xlink:href="#DejaVuSans-114"/><use x="2062.732" xlink:href="#DejaVuSans-97"/><use x="2124.012" xlink:href="#DejaVuSans-103"/><use x="2187.488" xlink:href="#DejaVuSans-101"/></g><g id="legend_1"><path d="M128.2 184.5h136.45q3.2 0 3.2-3.2V88.96q0-3.2-3.2-3.2H128.2q-3.2 0-3.2 3.2v92.34q0 3.2 3.2 3.2z" style="fill:none;opacity:.8;stroke:#ccc;stroke-linejoin:miter" id="patch_5"/><path d="M131.4 98.718h32" style="fill:none;stroke:#000;stroke-linecap:round;stroke-width:1.5" id="line2d_5"/><g style="fill:#696969" transform="matrix(.16 0 0 -.16 176.2 104.317)" id="text_18"><defs><path d="M8.688 72.906h9.921V28.61q0-11.718 4.235-16.875 4.25-5.14 13.781-5.14 9.469 0 13.719 5.14 4.25 5.157 4.25 16.875v44.297H64.5V27.391q0-14.25-7.063-21.532-7.046-7.28-20.812-7.28-13.828 0-20.89 7.28-7.047 7.282-7.047 21.532z" id="DejaVuSans-85"/></defs><use xlink:href="#DejaVuSans-85"/><use x="73.193" xlink:href="#DejaVuSans-83"/></g><path d="M131.4 122.203h32" style="fill:none;stroke:#009e73;stroke-linecap:round;stroke-width:1.5" id="line2d_7"/><g style="fill:#696969" transform="matrix(.16 0 0 -.16 176.2 127.802)" id="text_19"><use xlink:href="#DejaVuSans-78"/><use x="74.805" xlink:href="#DejaVuSans-74"/></g><path d="M131.4 145.688h32" style="fill:none;stroke:#d55e00;stroke-linecap:round;stroke-width:1.5" id="line2d_9"/><g style="fill:#696969" transform="matrix(.16 0 0 -.16 176.2 151.287)" id="text_20"><defs><path d="M19.672 34.813V8.108H35.5q7.953 0 11.781 3.297 3.844 3.297 3.844 10.078 0 6.844-3.844 10.078-3.828 3.25-11.781 3.25zm0 29.984V42.828h14.61q7.218 0 10.75 2.703 3.546 2.719 3.546 8.282 0 5.515-3.547 8.25-3.531 2.734-10.75 2.734zm-9.86 8.11h25.204q11.28 0 17.375-4.688Q58.5 63.53 58.5 54.89q0-6.703-3.125-10.657-3.125-3.953-9.188-4.922 7.282-1.562 11.313-6.53 4.031-4.954 4.031-12.376 0-9.765-6.64-15.093Q48.25 0 35.984 0H9.812z" id="DejaVuSans-66"/></defs><use xlink:href="#DejaVuSans-66"/><use x="68.604" xlink:href="#DejaVuSans-101"/><use x="130.127" xlink:href="#DejaVuSans-114"/><use x="169.49" xlink:href="#DejaVuSans-103"/><use x="232.967" xlink:href="#DejaVuSans-101"/><use x="294.49" xlink:href="#DejaVuSans-110"/></g><path d="M131.4 169.173h32" style="fill:none;stroke:#0072b2;stroke-linecap:round;stroke-width:1.5" id="line2d_11"/><g style="fill:#696969" transform="matrix(.16 0 0 -.16 176.2 174.773)" id="text_21"><defs><path d="M44.39 34.188q3.172-1.079 6.172-4.594 3-3.516 6.032-9.672L66.609 0H56l-9.313 18.703q-3.624 7.328-7.015 9.719-3.39 2.39-9.25 2.39h-10.75V0h-9.86v72.906h22.266q12.5 0 18.656-5.234 6.157-5.219 6.157-15.766 0-6.89-3.203-11.437-3.204-4.532-9.297-6.282zM19.673 64.797V38.922h12.406q7.125 0 10.766 3.297 3.64 3.297 3.64 9.687 0 6.39-3.64 9.64-3.64 3.25-10.766 3.25z" id="DejaVuSans-82"/><path d="M54.89 33.016V0h-8.984v32.719q0 7.765-3.031 11.61-3.031 3.858-9.078 3.858-7.281 0-11.484-4.64-4.204-4.625-4.204-12.64V0H9.08v75.984h9.03V46.188q3.235 4.937 7.594 7.374Q30.078 56 35.797 56q9.422 0 14.25-5.828 4.844-5.828 4.844-17.156z" id="DejaVuSans-104"/></defs><use xlink:href="#DejaVuSans-82"/><use x="64.982" xlink:href="#DejaVuSans-117"/><use x="128.361" xlink:href="#DejaVuSans-116"/><use x="167.57" xlink:href="#DejaVuSans-104"/><use x="230.949" xlink:href="#DejaVuSans-101"/><use x="292.473" xlink:href="#DejaVuSans-114"/><use x="333.586" xlink:href="#DejaVuSans-102"/><use x="368.791" xlink:href="#DejaVuSans-111"/><use x="429.973" xlink:href="#DejaVuSans-114"/><use x="469.336" xlink:href="#DejaVuSans-100"/></g></g></g></g><defs><clipPath id="p326cea3bdc"><path d="M117 77.76h725.4v498.96H117z"/></clipPath></defs></svg>