<svg height="864" viewBox="0 0 936 648" width="1248" xmlns="http://www.w3.org/2000/svg" xmlns:xlink="http://www.w3.org/1999/xlink"><defs><style>*{stroke-linecap:butt;stroke-linejoin:round}</style></defs><g id="figure_1"><path d="M0 648h936V0H0z" style="fill:#fff" id="patch_1"/><g id="axes_1"><path d="M117 576.72h725.4V77.76H117z" style="fill:none" id="patch_2"/><g id="PolyCollection_1"><defs><path d="M150.922-93.96H204.057l.95-.391.948.009.95.01.948-.185.949.015.949-.573.948-.56.95-1.135.948-.123.949-.506.949-.295.949-.874.949-1.445.948-1.216.95-.202.948-.98.949-2.933.949-1.893.949-.272.949-.659.948-.26.95-1.658.948-1.062.949-.083.949.284.949-.949.949-.593.948-.64.95-.89.948-.94.949-.596.949-.049.949-1.085.949-.72.948-1.148.95-1.17.948-1.575.949-.575.949-.171.949-1.151.949-.145.948-.533.95-.71.948-.683.949-.673.949-.08.949-.087.949-.097.948-.104.95-.123.948-.343.949-.16.949-.165.949-.963.949-.959.948-.354.95-.347.948-.34.949-.128.949-.107.949-.086.949-.262.948-.045.95-.033.948-.03.949-.033.949-.032.949-.039.949-.239.948-.04.95-.041.948-.442.949-.049.949-.052.949-.65.949-.245.948-.037.95-.027.948-.015h.949l.949.012.949.018.948-.181.95-.182.948.016.95-.188.948.007.949.002.949-.004.948-.208.95-.012.948-.015.949-.018.949-.02.949-.021.949-.417.948-.018.95-.212.948-.205.949-.199.949.006.949.012.949-.777.948.023.95-.172.948.03.949.031.949.03.949.028.949-1.161.948-.16.95.04.948-.159.949-.36.949.037.949.032.949-.37.948-.176.95.02.948.012.949.007h.949l.949-.009.949-.02.948-.62.95-.227.948-.227.949-.031.949-.032.949-.03.949-.231.948-.033.95-.034.948-.23.949-.026.949-.02.949-.011.949-.212.948-.015.95-.212.948-.013.949-.014.949-.015.949-.014.949-.017.948-.02.95-.22.948-.022.949-.22.949-.015.949-.012.949-.203.948-.002h.95l.948-.2.949-.196.949.005.949.008.949.008.948-.388.95-.184.948-.181.949.02.949.02.949.019.948-.18.95.016.948-.777.95.022.948.02.949.02.949.016.948.012.95-.584.948.012.949.01.949.007.949.002.949-.002.948-.205.95-.012.948-.41.949-.21.949-.013.949-.013.949-.012.948-.605.95-.004.948-.2h.949l.949.002.949.003.949.005.948.004.95.003.948-.003.949-.01.949-.015.949-.02.949-.024.948-.423.95-.225.948-1.016.949-1.788.949-.363.949.062.949.078.948-.307.95-1.083.948-.074.949-.856.949-.84.949-.427.949-.419.948-.222.95.162.948-.653.949.117.949.089.949.058.949.028.948-1.193.95-.815.948-1.03.949-1.038.949-1.038.949-.038.949-.033.948-2.399.95-.179.948-1.345.949-.532.949-.913.949.095.949.1.948-3.655.95-.649.948.154.949-3.212.949-1.204.949.19.949.174.948-3.016.95-2.208.948-2.196.949-1.385.949-2.556.949-.744.948.255.95-2.535.948-1.344.95-.958.948.2.949.15.949-3.854.948.102.95-2.724.948-1.36.95-2.188.948-3.194.949-4.766.949-2.137.948.09.95-2.09.948-2.267.949-.845.949-3.412.949-1.605.949.187.948.18.95-2.628.948-1.66.949-1.305.949.026.949-3.42.949-.09.948-.144.95-5.552.948-1.592.949-5.566.949-1.153.949-.116.949-.106.948-.087.95-6.015.948-.98.949-3.703.949-2.054.949.142.949.12.948.09.95-6.484.948-3.484.949-2.669.949-2.857.949-2.25.949-1.835.948.158.95-4.224.948-2.033.949-2.827.949-1.816.949-1.817.949.164.948.142.95.066.948-4.169.949-2.055.949-.937.949-.802.949-.254.948-.29.95-6.494.948-1.125.949-1.545.949-1.559.949-3.518.949-1.263.948-.183.95-.152.948-.14.949-5.278.949-1.651.949-1.42.949-.01.948.004.95-3.18.948-1.384.949-1 .949-1.22.949-1.05.949-1.46.948-.07.95-.072.948-2.877.949-1.107.949-.726.949-1.128.948-.128.95-1.497.948-.916.95-1.32.948-.923.949-2.699.949-1.893.948-.097.95-.09.948-3.436.949-1.779.949-1.155.949-.542.949-2.709.948.101.95.116.948-2.667.949-.678.949-1.48.949-2.28.949-1.288.948.087.95.058.948-4.516.949-1.334.949-1.54.949-.554.949-.965.948.02.95-.008.948-4.78.949-1.187.949-1.375.949-1.574.949-1.378.948.012.95-1.773.948-2.174.949-1.58.949-.591.949-3.561.949-1.759.948.038.95.035.948-3.352.949-1.55 1.898-1.546v-1.745l.949-.954.948-.163.95.029.948-1.992.949-1.028.949-1.065.949-2.48.949-1.1.948-1.098.95-.096.948-.72.949-.35.949-1.363.949-1.573.949-1.178.948-.174.95-.175.948-1.37.949-.774.949-.763.949-.967.949-1.96.948-.349.95-.12.948-.508.949-.307.949-1.298.949-.505.949-.505.948-.103.95-.093.948-.884.949-.084.949-.282.949-.097.948-.112.95-.13.948-.14.95-.147.948-.15.949-.15.949-.356.948-.163.95-.162.948-.152.949-.143.949-.128.949-.31.949-.486.948-.082.95-.073.948-.057.949-.042.949-.02.949-.211.949-.004h.948l.95.005.948.009.949.006.949-.589.949-.19.949.01.948.009.95.008.948.007.949.006.949.004.949.003h.949l.948-.003.95-.006.948-.009.949-.013.949-.015.949-.016.949-.02.948-.815.95-.015.948-.011.949-.007.949-.002.949.001.949-.193.948.011.95.015.948.017.949.02.949.017.949.013.949-.191.948-.196h.95l.948-.003.949-.006.949-.01.949-.21.949-.406.948-.006.95-.003h.948l.949.002.949.006.949.007.949-.385.948-1.172.95.032.948.036.949-4.295.949-.07.949-.044.949-1.215.948-.792.95.215.948.217.949-1.169.949-.37.949.024.948-.193.95-.023.948.14.95.094.948-1.935.949-.573.949-1.195.948-1.215.95-.436.948-.054.95-.072.948-2.061.949-.458.949-.244.948-.82.95-.011.948.003.949.018.949-.401.949-.814.949-.425.948-1.033.95-.053.948-.068.949-.079.949-1.482.949-1.481.949-1.466.948-.452.95-1.021.948.004.949.035.949.044.949-2.322.949-1.104.948.096.95-.893.948.104.949.1.949-1.705.949-.524.949-.738.948-1.544.95-.752.948.038.949.027.949-2.557.949-.17.949-.969.948-.969.95-.568.948.03.949.03.949-.772.949-.587.949-.803.948-.819.95-.834.948-.05.949-.064.949-.86.949-.477.949-1.285.948-.094.95-2.278.948-.072.949-.055.949-.052.949-1.236.949-.427.948-.424.95-.423.948-.02.949-.012.949-1.608.949-.608.949-.215.948-.82.95-.429.948-.034.949-.036.949-.436.949-.24.949-.049.948-.454.95-.265.948-.074.949-.08.949-1.667.949-.856.948-.053.95-.042.948-.442.95-.044.948-.041.949-1.023.949-.416.948-1.79.95.02.948-1.35.949.063.949.08.949-1.11.949-.707.948-.303.95-.503.948-.506.949.084.949.07.949-2.915.949-.917.948-1.306.95.09.948.082.949.073.949.064.949-3.914.949-1.314.948-.313.95-1.496.948-1.678.949.126.949.126.949-2.458.949-1.845.948-2.228.95-1.805.948-1.785.949.214.949.204.949-3.189.949-2.39.948-3.167.95-4.324v-11.138l-.95 4.844-.948 3.609-.95 2.792-.948 3.588-.949.204-.949.213-.949 2.202-.949 2.18-.948 2.555-.95 2.142-.948 2.724-.949.126-.949.126-.949 1.91-.949 1.692-.948.484-.95 1.476-.948 4.059-.949.063-.949.074-.949.082-.949.09-.948 1.483-.95 1.076-.948 3.065-.949.07-.949.084-.949.69-.949.693-.948.494-.95.888-.948 1.282-.949.079-.949.063-.949 1.44-.949.02-.948 1.797-.95.381-.948.97-.949-.04-.949-.044-.949.355-.949-.042-.948-.053-.95.738-.948 1.521-.949-.08-.949-.073-.949.134-.948.343-.95-.048-.948.158-.95.36-.948-.035-.949-.034-.949.368-.948.775-.95.183-.948.587-.95 1.582-.948-.013-.949-.02-.949.375-.948.373-.95.37-.948 1.156-.949-.052-.949-.055-.949-.073-.949 2.107-.948-.094-.95 1.107-.948.321-.949.734-.949-.064-.949-.05-.949.76-.948.776-.95.79-.948.61-.949.822-.949.03-.949.03-.949.628-.948 1.024-.95 1.025-.948.228-.949 2.624-.949.028-.949.037-.949.843-.948 1.645-.95.857-.948.67-.949 1.883-.949.1-.949.105-.949 1.1-.948.095-.95 1.288-.948 2.461-.949.045-.949.034-.949.005-.949.971-.948.346-.95 1.324-.948 1.31-.949 1.307-.949-.08-.949-.067-.949-.053-.948.96-.95.372-.948.781-.949.396-.949.018-.949.004-.949-.011-.948.774-.95.154-.948.34-.949 1.924-.949-.071-.949-.055-.949.362-.948 1.176-.95 1.196-.948.624-.949 2.05-.949.095-.949.14-.949.376-.948.604-.95.421-.948.827-.949 1.62-.949.218-.949.215-.948 1.201-.95 1.575-.948.354-.95.33-.948 4.474-.949.036-.949.032-.948 1.219-.95.412-.948.008-.949.005-.949.003h-.949l-.949-.004-.948-.005-.95.39-.948.189-.949-.01-.949-.006-.949-.003h-.949l-.948.203-.95.208-.948.012-.949.018-.949.02-.949.017-.949.014-.948.011-.95.206-.948.001-.949-.002-.949-.007-.949-.011-.949-.015-.948.78-.95-.02-.948-.017-.949-.014-.949-.013-.949-.01-.949-.006-.948-.003h-.95l-.948.003-.949.005-.949.006-.949.007-.949.008-.948.009-.95.01-.948.208-.949.607-.949.006-.949.009-.949.004h-.948l-.95-.003-.948.189-.949-.022-.949-.04-.949-.059-.949-.073-.948-.081-.95.31-.948.09-.949-.129-.949-.142-.949-.152-.949-.163-.948-.163-.95.044-.948-.152-.949-.15-.949-.147-.949-.139-.949-.13-.948-.112-.95-.097-.948.117-.949-.084-.949.71-.949-.093-.948-.103-.95.292-.948.293-.95 1.093-.948.092-.949.288-.949-.12-.948.051-.95 1.627-.948.628-.95.432-.948.423-.949 1.02-.949-.174-.948-.174-.95.815-.948 1.217-.949 1.028-.949.05-.949.475-.949-.096-.948.895-.95.893-.948 2.303-.949.928-.949.966-.949 1.993-.949.03-.948.235-.95 1.039v1.842l-1.897 1.644-.949 1.638-.949 3.424-.949.036-.948.037-.95 1.829-.948 3.614-.949.605-.949 1.608-.949 2.211-.949 1.815-.948.012-.95 1.411-.948 1.615-.949 1.416-.949 1.205-.949 4.785-.949-.006-.948.019-.95 1.027-.948.643-.949 1.649-.949 1.455-.949 4.652-.949.059-.948.086-.95 1.503-.948 2.503-.949 1.708-.949.917-.949 2.914-.949.116-.948.1-.95 2.872-.948.654-.949 1.237-.949 1.808-.949 3.34-.949-.09-.948-.096-.95 1.693-.948 2.483-.949.672-.949 1.072-.949.678-.949 1.293-.948-.127-.95.864-.948.47-.949.887-.949 2.702-.949-.071-.948-.07-.95 1.33-.948.943-.95 1.171-.948.993-.949 1.406-.949 3.198-.948.004-.95-.01-.948 1.37-.95 1.538-.948 5.086-.949-.14-.949-.152-.948-.183-.95.73-.948 2.86-.949.832-.949.847-.949.47-.949 5.863-.948-.29-.95-.255-.948.394-.949.657-.949 1.931-.949 4.202-.949.066-.948.142-.95.164-.948 2.169-.949 2.17-.949 3.152-.949 2.352-.949 4.545-.948.159-.95 2.15-.948 2.533-.949 3.122-.949 2.912-.949 3.69-.949 6.672-.948.09-.95.119-.948.141-.949 2.331-.949 3.871-.949 1.013-.949 5.943-.948-.087-.95-.106-.948-.116-.949.84-.949 5.196-.949 1.199-.949 5.21-.948-.144-.95-.09-.948 3.356-.949.026-.949 1.485-.949 1.928-.949 2.953-.948.18-.95.186-.948 1.983-.949 3.762-.949 1.149-.949 2.517-.949 2.294-.948.09-.95 2.247-.948 4.8-.949 3.185-.949 2.197-.949 1.429-.949 2.857-.948.102-.95 4.117-.948.15-.949.201-.949 1.434-.949 1.845-.949 3.044-.948.255-.95 1.25-.948 3.024-.949 1.804-.949 2.587-.949 2.575-.948 3.362-.95.174-.948.19-.95 1.586-.948 3.564-.949.154-.949.946-.948 3.918-.95.1-.948.095-.949 1.08-.949.665-.949 1.445-.949.219-.948 2.385-.95-.033-.948-.039-.949.956-.949.955-.949.963-.949.779-.948 1.199-.95.027-.948.059-.949.088-.949.117-.949.942-.949.162-.948.575-.95.777-.948.768-.949 1.154-.949 1.137-.949.325-.949 1.308-.948.49-.95.079-.948.061-.949.435-.949 1.799-.949.977-.949.173-.948.375-.95-.025-.948-.02-.949-.015-.949-.01-.949-.002-.949.003-.948.004-.95.004-.948.004-.949.001h-.949l-.949.199-.949-.004-.948.591-.95-.012-.948-.013-.949-.012-.949.188-.949.387-.949-.012-.948.193-.95-.001-.948.002-.949.006-.949.01-.949.012-.949.612-.948.013-.95.016-.948.02-.949.02-.949.021-.949.818-.949.017-.948.218-.95.02-.948.02-.949.019-.949.217-.949.214-.948.41-.95.008-.948.007-.95.006-.948.202-.949.2h-.949l-.948-.002-.95.195-.948-.012-.949-.016-.949.18-.949-.022-.949.177-.948-.02-.95-.016-.948-.015-.949-.014-.949-.014-.949-.013-.949.186-.948-.015-.95.187-.948-.011-.949-.02-.949-.026-.949.169-.949-.034-.948-.033-.95.167-.948-.03-.949-.031-.949-.031-.949.17-.949.173-.948.575-.95-.02-.948-.008h-.949l-.949.006-.949.013-.949.019-.948.223-.95.427-.948.032-.949.036-.949.438-.949.24-.949.04-.948.239-.95 1.23-.948.028-.949.03-.949.03-.949.03-.949.228-.948.023-.95.817-.948.012-.949.006-.949.2-.949.193-.949.187-.948-.018-.95.38-.948-.02-.949-.02-.949-.018-.949-.016-.949-.012-.948.19-.95-.003-.948.001-.949.007-.949.211-.949.016-.949.218-.948.217-.95.018-.948.012h-.949l-.949-.015-.949-.027-.948-.038-.95.153-.948.547-.95-.052-.948-.049-.949.356-.949-.042-.948-.04-.95.16-.948-.04-.95-.031-.948-.033-.949-.03-.949-.033-.948-.045-.95.136-.948-.086-.949-.106-.949-.129-.949.06-.949.05-.948.045-.95.636-.948.63-.949-.165-.949-.158-.949.055-.949-.123-.948-.104-.95-.097-.948-.087-.949-.08-.949.522-.949.513-.949.486-.948.264-.95-.144-.948.841-.949-.17-.949.221-.949 1.216-.949.823-.948.845-.95.475-.948.908-.949-.049-.949.601-.949 1.053-.949 1.103-.948.954-.95 1.001-.948 1.443-.949.284-.949.714-.949 1.728-.949 2.33-.948.934-.95 1.335-.948.923-.949 2.492-.949 3.445-.949 1.411-.949.595-.948 1.575-.95 1.743-.948 1.119-.949.503-.949.69-.949.275-.949 1.257-.948.635-.95.623-.948.016-.949.213-.949.01-.949.009-.949.406H150.922z" id="m59110d1ed4" style="stroke:#fff;stroke-opacity:.2"/></defs><g clip-path="url(#p3ebcb0fef9)"><use style="fill:#089fff;fill-opacity:.2;stroke:#fff;stroke-opacity:.2" xlink:href="#m59110d1ed4" y="648"/></g></g><path clip-path="url(#p3ebcb0fef9)" d="M149.973 554.04h54.084l.95-.399h1.897l.949-.199h.949l1.897-1.196.95-1.196.948-.199.949-.598.949-.398.949-.997 1.897-2.99.95-.398.948-1.196.949-3.189.949-2.192.949-.598.949-.996.948-.598.95-1.993.948-1.395.949-.399h.949l.949-1.196 1.897-1.594 1.898-1.993.949-.598h.949l.949-.997.949-.598 1.897-1.993.95-1.395.948-.398h.949l.949-.997h.949l.948-.398 2.847-1.794h4.744l.95-.2h1.897l1.898-1.594 2.846-.598h2.847l.949-.2h5.693l.949-.198h1.897l.95-.399h1.897l.949-.598.949-.2h5.693l1.897-.398h.95l.948-.2h2.847l.948-.198h4.745l.949-.399h.948l2.847-.598h1.898l.949-.797h.948l.95-.2h3.795l.949-1.195.948-.2h.95l.948-.199.949-.398h1.898l.949-.399.948-.2h5.694l.948-.597 1.898-.399h2.847l.949-.2h1.897l.95-.198h2.846l.949-.2h.948l.95-.2h5.692l.95-.198h.948l.949-.2h1.898l.949-.199h1.897l1.898-.399h2.847l.948-.398 1.898-.399h2.847l.948-.2h.95l.948-.796h4.744l.95-.598h4.744l.948-.2h.95l.948-.398.949-.2h2.847l.948-.597h.95l.948-.2h10.438l.948-.398.95-.2.948-.996.949-1.794.949-.398h1.898l.948-.399.95-1.196.948-.2 1.898-1.992 1.898-1.196.948-.399h.95l.948-.797h3.796l.948-1.196.95-.797 2.846-2.99h1.898l.948-2.39.95-.2.948-1.395.949-.598.949-.997h1.898l.948-3.786.95-.798h.948l.949-3.388.949-1.395h1.898l.948-3.189 1.898-4.783.949-1.594.949-2.79.949-.997h.948l.95-2.79.948-1.595.95-1.196h1.897l.949-3.986h.948l.95-2.79.948-1.395.95-2.192.948-3.19.949-4.782.949-2.193h.948l1.898-4.584.949-.996.949-3.588.949-1.793h1.897l.95-2.79.948-1.794.949-1.395h.949l.949-3.389h1.897l.95-5.38.948-1.396.949-5.38.949-.997h2.846l.95-5.98.948-.996.949-3.787.949-2.192h2.846l.95-6.577.948-3.587 2.847-8.172.949-1.993h.948l.95-4.385.948-2.192.949-2.99 1.898-3.985h2.846l.95-4.186.948-1.993.949-.797.949-.598h1.897l.95-6.178.948-.797 1.898-2.392.949-3.189.949-.996h2.846l.949-5.182 1.898-2.99h1.897l.95-3.189.948-1.395.949-.996.949-1.196.949-.997.949-1.395h1.897l.95-2.79.948-.996.949-.598.949-.997h.948l.95-1.395.948-.797.95-1.196.948-.797.949-2.591.949-1.794h1.897l.95-3.388.948-1.794.949-1.195.949-.598.949-2.79h1.897l.95-2.79.948-.798.949-1.594.949-2.392.949-1.395h1.897l.95-4.584.948-1.395.949-1.595.949-.598.949-.996h1.897l.95-4.783.948-1.196.949-1.395 1.898-2.99h.948l.95-1.794.948-2.192.949-1.594.949-.598.949-3.588.949-1.793h1.897l.95-3.388.948-1.595 1.898-1.594v-1.794l.949-.997.948-.199h.95l.948-1.993 1.898-1.993.949-2.391 1.897-1.993h.95l.948-.598.949-.2.949-1.196.949-1.395.949-.996h1.897l.95-1.196 1.897-1.196.949-.797.949-1.794.948-.199h.95l.948-.399.949-.199.949-1.196 1.898-.797h1.897l.95-.797h.948l.949-.2h6.642l.949-.199h4.744l.949-.199.949-.399h4.744l.949-.199h4.744l.949-.598.949-.2h14.233l.948-.796h4.745l.949-.2h5.693l1.897-.398h3.796l.949-.2.949-.398h5.693l.949-.399.948-1.196h1.898l.949-4.384 1.898-.399.949-1.395.948-.996h1.898l.949-1.396.949-.597.949-.2.948-.398.95-.2h1.897l.949-1.993.949-.598 1.897-2.391.95-.399h1.897l.949-1.993.949-.398.949-.2.948-.797h2.847l.949-.399.949-.797.949-.398.948-.997h2.847l2.847-4.185.948-.399.95-.996h2.846l.949-2.392.949-1.196h.948l.95-.996h1.897l.949-1.794.949-.598.949-.797.948-1.595.95-.797h1.897l.949-2.59.949-.2 1.897-1.993.95-.598h1.897l.949-.797.949-.598 2.846-2.392h1.898l.949-.797.949-.398.949-1.196h.948l.95-2.193h2.846l.949-1.195 2.846-1.196h1.898l.949-1.595.949-.598.949-.199.948-.797.95-.399h1.897l.949-.398.949-.2h.949l.948-.398.95-.2h1.897l.949-1.594.949-.797h1.897l.95-.399h1.897l.949-.996.949-.399.948-1.794h.95l.948-1.395h1.898l.949-1.195.949-.798.948-.398 1.898-1.196h1.898l.949-2.99.949-.996.948-1.395h3.796l.949-3.986.949-1.395.948-.399 1.898-3.388h1.898l.949-2.591.949-1.993.948-2.392 1.898-3.986h1.898l.949-3.388.949-2.59.948-3.389.95-4.584h0" style="fill:none;stroke:#4c72b0;stroke-linecap:round;stroke-width:1.5" id="line2d_1"/><path d="M117 576.72V77.76" style="fill:none;stroke:#d3d3d3;stroke-linecap:square;stroke-linejoin:miter;stroke-width:1.25" id="patch_3"/><path d="M117 576.72h725.4" style="fill:none;stroke:#d3d3d3;stroke-linecap:square;stroke-linejoin:miter;stroke-width:1.25" id="patch_4"/><g id="matplotlib.axis_1"><g id="xtick_1"><g style="fill:#696969" transform="matrix(.16 0 0 -.16 118.663 598.378)" id="text_1"><defs><path d="M9.813 72.906h9.859V5.078q0-13.187-5-19.14-5-5.954-16.094-5.954h-3.75v8.297h3.078q6.531 0 9.219 3.672Q9.813-4.39 9.813 5.078z" id="DejaVuSans-74"/><path d="M34.281 27.484q-10.89 0-15.093-2.484-4.204-2.484-4.204-8.5 0-4.781 3.157-7.594 3.156-2.797 8.562-2.797 7.485 0 12 5.297 4.516 5.297 4.516 14.078v2zm17.922 3.72V0H43.22v8.297Q40.14 3.328 35.547.953q-4.594-2.375-11.234-2.375-8.391 0-13.36 4.719Q6 8.016 6 15.922q0 9.219 6.172 13.906 6.187 4.688 18.437 4.688h12.61v.89q0 6.203-4.078 9.594-4.078 3.39-11.453 3.39-4.688 0-9.141-1.124-4.438-1.125-8.531-3.375v8.312q4.921 1.906 9.562 2.844 4.64.953 9.031.953 11.875 0 17.735-6.156 5.86-6.14 5.86-18.64z" id="DejaVuSans-97"/><path d="M54.89 33.016V0h-8.984v32.719q0 7.765-3.031 11.61-3.031 3.858-9.078 3.858-7.281 0-11.484-4.64-4.204-4.625-4.204-12.64V0H9.08v54.688h9.03v-8.5q3.235 4.937 7.594 7.374Q30.078 56 35.797 56q9.422 0 14.25-5.828 4.844-5.828 4.844-17.156z" id="DejaVuSans-110"/></defs><use xlink:href="#DejaVuSans-74"/><use x="29.492" xlink:href="#DejaVuSans-97"/><use x="90.771" xlink:href="#DejaVuSans-110"/></g></g><g id="xtick_2"><g style="fill:#696969" transform="matrix(.16 0 0 -.16 203.501 598.378)" id="text_2"><defs><path d="M34.188 63.188 20.797 26.906h26.812zm-5.579 9.718h11.188L67.578 0h-10.25l-6.64 18.703h-32.86L11.188 0H.78z" id="DejaVuSans-65"/><path d="M18.11 8.203v-29H9.077v75.484h9.031v-8.296q2.844 4.875 7.157 7.234Q29.594 56 35.594 56q9.968 0 16.187-7.906 6.235-7.907 6.235-20.797T51.78 6.484q-6.218-7.906-16.187-7.906-6 0-10.328 2.375-4.313 2.375-7.157 7.25zm30.578 19.094q0 9.906-4.079 15.547-4.078 5.64-11.203 5.64-7.14 0-11.218-5.64-4.079-5.64-4.079-15.547 0-9.906 4.078-15.547 4.079-5.64 11.22-5.64 7.124 0 11.202 5.64t4.078 15.547z" id="DejaVuSans-112"/><path d="M41.11 46.297q-1.516.875-3.297 1.281Q36.03 48 33.89 48q-7.625 0-11.703-4.953-4.079-4.953-4.079-14.234V0H9.08v54.688h9.03v-8.5q2.844 4.984 7.375 7.39Q30.031 56 36.531 56q.922 0 2.047-.125 1.125-.11 2.484-.36z" id="DejaVuSans-114"/></defs><use xlink:href="#DejaVuSans-65"/><use x="68.408" xlink:href="#DejaVuSans-112"/><use x="131.885" xlink:href="#DejaVuSans-114"/></g></g><g id="xtick_3"><g style="fill:#696969" transform="matrix(.16 0 0 -.16 294.035 598.378)" id="text_3"><defs><path d="M8.5 21.578v33.11h8.984V21.922q0-7.766 3.016-11.656 3.031-3.875 9.094-3.875 7.265 0 11.484 4.64 4.234 4.64 4.234 12.656v31h8.985V0h-8.984v8.406Q42.047 3.422 37.718 1q-4.313-2.422-10.032-2.422-9.421 0-14.312 5.86Q8.5 10.296 8.5 21.578zM31.11 56z" id="DejaVuSans-117"/><path d="M9.422 75.984h8.984V0H9.422z" id="DejaVuSans-108"/></defs><use xlink:href="#DejaVuSans-74"/><use x="29.492" xlink:href="#DejaVuSans-117"/><use x="92.871" xlink:href="#DejaVuSans-108"/></g></g><g id="xtick_4"><g style="fill:#696969" transform="matrix(.16 0 0 -.16 377.15 598.378)" id="text_4"><defs><path d="M39.406 66.219q-10.75 0-17.078-8.016-6.312-8-6.312-21.828 0-13.766 6.312-21.781 6.328-8 17.078-8 10.735 0 17.016 8 6.281 8.015 6.281 21.781 0 13.828-6.281 21.828-6.281 8.016-17.016 8.016zm0 8q15.328 0 24.5-10.281 9.188-10.282 9.188-27.563 0-17.234-9.188-27.516-9.172-10.28-24.5-10.28-15.375 0-24.593 10.25-9.204 10.265-9.204 27.546t9.204 27.563q9.218 10.28 24.593 10.28z" id="DejaVuSans-79"/><path d="M48.781 52.594v-8.407q-3.812 2.11-7.64 3.157-3.828 1.047-7.735 1.047-8.75 0-13.593-5.547-4.829-5.532-4.829-15.547 0-10.016 4.829-15.563 4.843-5.53 13.593-5.53 3.907 0 7.735 1.046 3.828 1.047 7.64 3.156V2.094Q45.016.344 40.984-.531q-4.015-.89-8.562-.89-12.36 0-19.64 7.765-7.266 7.765-7.266 20.953 0 13.375 7.343 21.031Q20.22 56 33.016 56q4.14 0 8.093-.86 3.953-.843 7.672-2.546z" id="DejaVuSans-99"/><path d="M18.313 70.219V54.688h18.5v-6.985h-18.5V18.016q0-6.688 1.828-8.594 1.828-1.906 7.453-1.906h9.218V0h-9.218q-10.407 0-14.36 3.875-3.953 3.89-3.953 14.14v29.688H2.687v6.984h6.594V70.22z" id="DejaVuSans-116"/></defs><use xlink:href="#DejaVuSans-79"/><use x="78.711" xlink:href="#DejaVuSans-99"/><use x="133.691" xlink:href="#DejaVuSans-116"/></g></g><g id="xtick_5"><g style="fill:#696969" transform="matrix(.16 0 0 -.16 465.944 598.378)" id="text_5"><use xlink:href="#DejaVuSans-74"/><use x="29.492" xlink:href="#DejaVuSans-97"/><use x="90.771" xlink:href="#DejaVuSans-110"/></g></g><g id="xtick_6"><g style="fill:#696969" transform="matrix(.16 0 0 -.16 549.834 598.378)" id="text_6"><use xlink:href="#DejaVuSans-65"/><use x="68.408" xlink:href="#DejaVuSans-112"/><use x="131.885" xlink:href="#DejaVuSans-114"/></g></g><g id="xtick_7"><g style="fill:#696969" transform="matrix(.16 0 0 -.16 640.367 598.378)" id="text_7"><use xlink:href="#DejaVuSans-74"/><use x="29.492" xlink:href="#DejaVuSans-117"/><use x="92.871" xlink:href="#DejaVuSans-108"/></g></g><g id="xtick_8"><g style="fill:#696969" transform="matrix(.16 0 0 -.16 723.482 598.378)" id="text_8"><use xlink:href="#DejaVuSans-79"/><use x="78.711" xlink:href="#DejaVuSans-99"/><use x="133.691" xlink:href="#DejaVuSans-116"/></g></g><g id="xtick_9"><g style="fill:#696969" transform="matrix(.16 0 0 -.16 812.276 598.378)" id="text_9"><use xlink:href="#DejaVuSans-74"/><use x="29.492" xlink:href="#DejaVuSans-97"/><use x="90.771" xlink:href="#DejaVuSans-110"/></g></g></g><g id="matplotlib.axis_2"><g id="ytick_1"><g style="fill:#696969" transform="matrix(.16 0 0 -.16 97.32 560.119)" id="text_10"><defs><path d="M31.781 66.406q-7.61 0-11.453-7.5Q16.5 51.422 16.5 36.375q0-14.984 3.828-22.484 3.844-7.5 11.453-7.5 7.672 0 11.5 7.5 3.844 7.5 3.844 22.484 0 15.047-3.844 22.531-3.828 7.5-11.5 7.5zm0 7.813q12.266 0 18.735-9.703 6.468-9.688 6.468-28.141 0-18.406-6.468-28.11-6.47-9.687-18.735-9.687-12.25 0-18.718 9.688-6.47 9.703-6.47 28.109 0 18.453 6.47 28.14Q19.53 74.22 31.78 74.22z" id="DejaVuSans-48"/></defs><use xlink:href="#DejaVuSans-48"/></g></g><g id="ytick_2"><g style="fill:#696969" transform="matrix(.16 0 0 -.16 76.96 460.468)" id="text_11"><defs><path d="M10.797 72.906h38.719v-8.312H19.828v-17.86q2.14.735 4.281 1.094 2.157.36 4.313.36 12.203 0 19.328-6.688 7.14-6.688 7.14-18.11 0-11.765-7.328-18.296-7.328-6.516-20.656-6.516-4.593 0-9.36.781-4.75.782-9.827 2.344v9.922q4.39-2.39 9.078-3.563 4.687-1.171 9.906-1.171 8.453 0 13.375 4.437 4.938 4.438 4.938 12.063 0 7.609-4.938 12.047-4.922 4.453-13.375 4.453-3.953 0-7.89-.875-3.922-.875-8.016-2.735z" id="DejaVuSans-53"/></defs><use xlink:href="#DejaVuSans-53"/><use x="63.623" xlink:href="#DejaVuSans-48"/><use x="127.246" xlink:href="#DejaVuSans-48"/></g></g><g id="ytick_3"><g style="fill:#696969" transform="matrix(.16 0 0 -.16 66.78 360.817)" id="text_12"><defs><path d="M12.406 8.297h16.11v55.625l-17.532-3.516v8.985l17.438 3.515h9.86V8.296H54.39V0H12.406z" id="DejaVuSans-49"/></defs><use xlink:href="#DejaVuSans-49"/><use x="63.623" xlink:href="#DejaVuSans-48"/><use x="127.246" xlink:href="#DejaVuSans-48"/><use x="190.869" xlink:href="#DejaVuSans-48"/></g></g><g id="ytick_4"><g style="fill:#696969" transform="matrix(.16 0 0 -.16 66.78 261.166)" id="text_13"><use xlink:href="#DejaVuSans-49"/><use x="63.623" xlink:href="#DejaVuSans-53"/><use x="127.246" xlink:href="#DejaVuSans-48"/><use x="190.869" xlink:href="#DejaVuSans-48"/></g></g><g id="ytick_5"><g style="fill:#696969" transform="matrix(.16 0 0 -.16 66.78 161.515)" id="text_14"><defs><path d="M19.188 8.297h34.421V0H7.33v8.297q5.609 5.812 15.296 15.594 9.703 9.797 12.188 12.64 4.734 5.313 6.609 9 1.89 3.688 1.89 7.25 0 5.813-4.078 9.469-4.078 3.672-10.625 3.672-4.64 0-9.797-1.61-5.14-1.609-11-4.89v9.969Q13.767 71.78 18.938 73q5.188 1.219 9.485 1.219 11.328 0 18.062-5.672 6.735-5.656 6.735-15.125 0-4.5-1.688-8.531-1.672-4.016-6.125-9.485-1.218-1.422-7.765-8.187-6.532-6.766-18.453-18.922z" id="DejaVuSans-50"/></defs><use xlink:href="#DejaVuSans-50"/><use x="63.623" xlink:href="#DejaVuSans-48"/><use x="127.246" xlink:href="#DejaVuSans-48"/><use x="190.869" xlink:href="#DejaVuSans-48"/></g></g><g style="fill:#696969" transform="matrix(0 -.2 -.2 0 58.62 379.813)" id="text_15"><defs><path d="M51.125 44H36.922l-4.11-16.313h14.313zm-7.328 27.781-5.078-20.265h14.265L58.11 71.78h7.813L60.89 51.516h15.234V44h-17.14l-4-16.313h15.53V20.22H53.079L48 0h-7.813l5.032 20.219H30.906L25.875 0h-7.86l5.079 20.219H7.719v7.468h17.187L29 44H13.281v7.516h17.625l4.985 20.265z" id="DejaVuSans-35"/><path d="M30.61 48.39q-7.22 0-11.422-5.64-4.204-5.64-4.204-15.453 0-9.813 4.172-15.453 4.188-5.64 11.453-5.64 7.188 0 11.375 5.655 4.203 5.672 4.203 15.438 0 9.719-4.203 15.406-4.187 5.688-11.375 5.688zm0 7.61q11.718 0 18.406-7.625 6.703-7.61 6.703-21.078 0-13.422-6.703-21.078-6.688-7.64-18.407-7.64-11.765 0-18.437 7.64-6.656 7.656-6.656 21.078 0 13.469 6.656 21.078Q18.844 56 30.609 56z" id="DejaVuSans-111"/><path d="M37.11 75.984V68.5h-8.594q-4.828 0-6.72-1.953-1.874-1.953-1.874-7.031v-4.828h14.797v-6.985H19.922V0H10.89v47.703H2.297v6.984h8.594V58.5q0 9.125 4.25 13.297 4.25 4.187 13.468 4.187z" id="DejaVuSans-102"/><path d="M44.281 53.078v-8.5q-3.797 1.953-7.906 2.922-4.094.984-8.5.984-6.688 0-10.031-2.047-3.344-2.046-3.344-6.156 0-3.125 2.39-4.906 2.391-1.781 9.626-3.39l3.078-.688q9.562-2.047 13.593-5.781 4.032-3.735 4.032-10.422 0-7.625-6.032-12.078-6.03-4.438-16.578-4.438-4.39 0-9.156.86Q10.688.296 5.422 2v9.281q4.984-2.594 9.812-3.89 4.829-1.282 9.579-1.282 6.343 0 9.75 2.172 3.421 2.172 3.421 6.125 0 3.656-2.468 5.61-2.453 1.953-10.813 3.765l-3.125.735q-8.344 1.75-12.062 5.39-3.704 3.64-3.704 9.985 0 7.718 5.47 11.906Q16.75 56 26.811 56q4.97 0 9.36-.734 4.406-.72 8.11-2.188z" id="DejaVuSans-115"/><path d="M56.203 29.594v-4.39H14.891q.593-9.282 5.593-14.142 5-4.859 13.938-4.859 5.172 0 10.031 1.266 4.86 1.265 9.656 3.812v-8.5Q49.266.734 44.187-.344 39.11-1.422 33.892-1.422q-13.094 0-20.735 7.61-7.64 7.625-7.64 20.625 0 13.421 7.25 21.296Q20.016 56 32.328 56q11.031 0 17.453-7.11 6.422-7.093 6.422-19.296zm-8.984 2.64q-.094 7.36-4.125 11.75-4.032 4.407-10.672 4.407-7.516 0-12.031-4.25-4.516-4.25-5.203-11.97z" id="DejaVuSans-101"/></defs><use xlink:href="#DejaVuSans-35"/><use x="83.789" xlink:href="#DejaVuSans-32"/><use x="115.576" xlink:href="#DejaVuSans-111"/><use x="176.758" xlink:href="#DejaVuSans-102"/><use x="211.963" xlink:href="#DejaVuSans-32"/><use x="243.75" xlink:href="#DejaVuSans-99"/><use x="298.73" xlink:href="#DejaVuSans-97"/><use x="360.01" xlink:href="#DejaVuSans-115"/><use x="412.109" xlink:href="#DejaVuSans-101"/><use x="473.633" xlink:href="#DejaVuSans-115"/></g></g><g style="fill:#696969" transform="matrix(.24 0 0 -.24 306.902 71.76)" id="text_16"><defs><path d="M44.39 34.188q3.172-1.079 6.172-4.594 3-3.516 6.032-9.672L66.609 0H56l-9.313 18.703q-3.624 7.328-7.015 9.719-3.39 2.39-9.25 2.39h-10.75V0h-9.86v72.906h22.266q12.5 0 18.656-5.234 6.157-5.219 6.157-15.766 0-6.89-3.203-11.437-3.204-4.532-9.297-6.282zM19.673 64.797V38.922h12.406q7.125 0 10.766 3.297 3.64 3.297 3.64 9.687 0 6.39-3.64 9.64-3.64 3.25-10.766 3.25z" id="DejaVuSans-82"/><path d="M54.89 33.016V0h-8.984v32.719q0 7.765-3.031 11.61-3.031 3.858-9.078 3.858-7.281 0-11.484-4.64-4.204-4.625-4.204-12.64V0H9.08v75.984h9.03V46.188q3.235 4.937 7.594 7.374Q30.078 56 35.797 56q9.422 0 14.25-5.828 4.844-5.828 4.844-17.156z" id="DejaVuSans-104"/><path d="M45.406 46.39v29.594h8.985V0h-8.985v8.203Q42.578 3.328 38.25.953q-4.313-2.375-10.375-2.375-9.906 0-16.14 7.906-6.22 7.922-6.22 20.813 0 12.89 6.22 20.797Q17.968 56 27.874 56q6.063 0 10.375-2.375 4.328-2.36 7.156-7.234zm-30.61-19.093q0-9.906 4.079-15.547 4.078-5.64 11.203-5.64 7.125 0 11.219 5.64 4.11 5.64 4.11 15.547 0 9.906-4.11 15.547-4.094 5.64-11.219 5.64-7.125 0-11.203-5.64-4.078-5.64-4.078-15.547z" id="DejaVuSans-100"/><path d="M-.297 72.906h61.672v-8.312H35.5V0h-9.906v64.594H-.296z" id="DejaVuSans-84"/><path d="M64.406 67.281v-10.39q-4.984 4.64-10.625 6.922-5.64 2.296-11.984 2.296-12.5 0-19.14-7.64-6.641-7.64-6.641-22.094 0-14.406 6.64-22.047 6.64-7.64 19.14-7.64 6.345 0 11.985 2.296 5.64 2.297 10.625 6.938V5.609Q59.234 2.094 53.437.33q-5.78-1.75-12.218-1.75-16.563 0-26.094 10.124-9.516 10.14-9.516 27.672 0 17.578 9.516 27.703 9.531 10.14 26.094 10.14 6.531 0 12.312-1.734 5.797-1.734 10.875-5.203z" id="DejaVuSans-67"/><path d="M2.984 54.688H12.5L29.594 8.797l17.093 45.89h9.516L35.687 0H23.485z" id="DejaVuSans-118"/><path d="M9.422 54.688h8.984V0H9.422zm0 21.296h8.984v-11.39H9.422z" id="DejaVuSans-105"/></defs><use xlink:href="#DejaVuSans-82"/><use x="64.982" xlink:href="#DejaVuSans-117"/><use x="128.361" xlink:href="#DejaVuSans-116"/><use x="167.57" xlink:href="#DejaVuSans-104"/><use x="230.949" xlink:href="#DejaVuSans-101"/><use x="292.473" xlink:href="#DejaVuSans-114"/><use x="333.586" xlink:href="#DejaVuSans-102"/><use x="368.791" xlink:href="#DejaVuSans-111"/><use x="429.973" xlink:href="#DejaVuSans-114"/><use x="469.336" xlink:href="#DejaVuSans-100"/><use x="532.813" xlink:href="#DejaVuSans-32"/><use x="564.6" xlink:href="#DejaVuSans-84"/><use x="608.684" xlink:href="#DejaVuSans-111"/><use x="669.865" xlink:href="#DejaVuSans-116"/><use x="709.074" xlink:href="#DejaVuSans-97"/><use x="770.354" xlink:href="#DejaVuSans-108"/><use x="798.137" xlink:href="#DejaVuSans-32"/><use x="829.924" xlink:href="#DejaVuSans-67"/><use x="899.748" xlink:href="#DejaVuSans-111"/><use x="960.93" xlink:href="#DejaVuSans-118"/><use x="1020.109" xlink:href="#DejaVuSans-105"/><use x="1047.893" xlink:href="#DejaVuSans-100"/><use x="1111.369" xlink:href="#DejaVuSans-32"/><use x="1143.156" xlink:href="#DejaVuSans-67"/><use x="1212.98" xlink:href="#DejaVuSans-97"/><use x="1274.26" xlink:href="#DejaVuSans-115"/><use x="1326.359" xlink:href="#DejaVuSans-101"/><use x="1387.883" xlink:href="#DejaVuSans-115"/></g><g id="legend_1"><path d="M128.2 137.53h144.675q3.2 0 3.2-3.2V88.96q0-3.2-3.2-3.2H128.2q-3.2 0-3.2 3.2v45.37q0 3.2 3.2 3.2z" style="fill:none;opacity:.8;stroke:#ccc;stroke-linejoin:miter" id="patch_5"/><path d="M131.4 98.718h32" style="fill:none;stroke:#4c72b0;stroke-linecap:round;stroke-width:1.5" id="line2d_2"/><g style="fill:#696969" transform="matrix(.16 0 0 -.16 176.2 104.317)" id="text_17"><use xlink:href="#DejaVuSans-84"/><use x="44.084" xlink:href="#DejaVuSans-111"/><use x="105.266" xlink:href="#DejaVuSans-116"/><use x="144.475" xlink:href="#DejaVuSans-97"/><use x="205.754" xlink:href="#DejaVuSans-108"/><use x="233.537" xlink:href="#DejaVuSans-32"/><use x="265.324" xlink:href="#DejaVuSans-67"/><use x="335.148" xlink:href="#DejaVuSans-97"/><use x="396.428" xlink:href="#DejaVuSans-115"/><use x="448.527" xlink:href="#DejaVuSans-101"/><use x="510.051" xlink:href="#DejaVuSans-115"/></g><path d="M131.4 127.802h32v-11.2h-32z" style="fill:#089fff;opacity:.2;stroke:#fff;stroke-linejoin:miter" id="patch_6"/><g style="fill:#696969" transform="matrix(.16 0 0 -.16 176.2 127.802)" id="text_18"><defs><path d="M8.688 72.906h9.921V28.61q0-11.718 4.235-16.875 4.25-5.14 13.781-5.14 9.469 0 13.719 5.14 4.25 5.157 4.25 16.875v44.297H64.5V27.391q0-14.25-7.063-21.532-7.046-7.28-20.812-7.28-13.828 0-20.89 7.28-7.047 7.282-7.047 21.532z" id="DejaVuSans-85"/><path d="M32.172-5.078q-3.797-9.766-7.422-12.735-3.61-2.984-9.656-2.984H7.906v7.516h5.282q3.703 0 5.75 1.765Q21-9.766 23.483-3.219l1.61 4.094-22.11 53.813H12.5l17.094-42.766 17.093 42.766h9.516z" id="DejaVuSans-121"/></defs><use xlink:href="#DejaVuSans-85"/><use x="73.193" xlink:href="#DejaVuSans-110"/><use x="136.572" xlink:href="#DejaVuSans-99"/><use x="191.553" xlink:href="#DejaVuSans-101"/><use x="253.076" xlink:href="#DejaVuSans-114"/><use x="294.189" xlink:href="#DejaVuSans-116"/><use x="333.398" xlink:href="#DejaVuSans-97"/><use x="394.678" xlink:href="#DejaVuSans-105"/><use x="422.461" xlink:href="#DejaVuSans-110"/><use x="485.84" xlink:href="#DejaVuSans-116"/><use x="525.049" xlink:href="#DejaVuSans-121"/></g></g></g></g><defs><clipPath id="p3ebcb0fef9"><path d="M117 77.76h725.4v498.96H117z"/></clipPath></defs></svg>