<svg height="864" viewBox="0 0 936 648" width="1248" xmlns="http://www.w3.org/2000/svg" xmlns:xlink="http://www.w3.org/1999/xlink"><defs><style>*{stroke-linecap:butt;stroke-linejoin:round}</style></defs><g id="figure_1"><path d="M0 648h936V0H0z" style="fill:#fff" id="patch_1"/><g id="axes_1"><path d="M117 576.72h725.4V77.76H117z" style="fill:none" id="patch_2"/><g id="PolyCollection_1"><defs><path d="M150.961-93.96H206.328l.989-.433.988.01.989.011.989-.205.988.018.989-.635.989-.62.988-1.256.99-.136.988-.56.988-.326.99-.967.988-1.6.989-1.345.988-.224.989-1.085.989-3.245.988-2.095.989-.301.989-.728.988-.29.989-1.833.989-1.175.988-.092.99.314.988-1.05.988-.657.99-.708.988-.985.989-1.04.988-.659.989-.054.989-1.2.988-.799.989-1.27.989-1.295.988-1.742.989-.637.989-.189.988-1.274.99-.16.988-.59.988-.785.99-.756.988-.745.989-.089.988-.096.989-.107.989-.116.988-.136.989-.38.989-.175.988-.183.989-1.066.989-1.061.988-.392.99-.384.988-.376.988-.142.99-.118.988-.096.989-.29.988-.05.989-.035.989-.035.988-.035.989-.036.989-.043.988-.264.989-.044.989-.047.988-.489.99-.053.988-.058.988-.719.99-.271.988-.042.989-.03.988-.016.989-.001.989.014.988.02.989-.2.989-.201.988.017.989-.208.989.008.988.002.99-.004.988-.23.988-.014.99-.017.988-.02.989-.021.988-.024.989-.462.989-.019.988-.235.989-.226.989-.22.988.006.989.013.989-.86.988.026.99-.19.988.033.988.034.99.033.988.03.989-1.284.988-.176.989.044.989-.176.988-.398.989.04.989.036.988-.41.989-.194.989.02.988.015.99.008h.988l.988-.01.99-.022.988-.688.989-.25.988-.252.989-.034.989-.034.988-.033.989-.257.989-.036.988-.038.989-.254.989-.03.988-.021.99-.013.988-.234.988-.016.99-.235.988-.014.989-.016.988-.016.989-.016.989-.018.988-.023.989-.244.989-.024.988-.242.989-.018.989-.013.988-.225.99-.002.988-.001.988-.22.99-.218.988.007.989.008.988.009.989-.429.989-.204.988-.2.989.021.989.022.988.022.989-.2.989.019.988-.86.99.024.988.022.988.021.99.019.988.014.989-.647.988.013.989.012.989.007.988.002.989-.002.989-.227.988-.013.989-.454.989-.233.988-.014.99-.014.988-.013.988-.67.99-.004.988-.221h.989l.988.002.989.003.989.005.988.004.989.004.989-.003.988-.01.989-.017.989-.022.988-.028.99-.467.988-.25.988-1.124.99-1.979.988-.4.989.067.988.086.989-.34.989-1.198.988-.081.989-.948.989-.928.988-.473.989-.464.989-.246.988.18.99-.723.988.13.988.097.99.065.988.03.989-1.32.988-.902.989-1.14.989-1.148.988-1.148.989-.043.989-.036.988-2.654.989-.199.989-1.489.988-.588.99-1.01.988.105.988.11.99-4.045.988-.717.989.17.988-3.554.989-1.333.989.21.988.193.989-3.337.989-2.444.988-2.43.989-1.533.989-2.829.988-.822.99.282.988-2.806.988-1.487.99-1.06.988.222.989.166.988-4.266.989.113.989-3.014.988-1.506.989-2.42.989-3.535.988-5.274.989-2.365.989.099.988-2.313.99-2.508.988-.935.988-3.776.99-1.776.988.207.989.199.988-2.908.989-1.836.989-1.445.988.028.989-3.783.989-.101.988-.16.989-6.143.989-1.761.988-6.16.99-1.276.988-.129.988-.116.99-.097.988-6.656.989-1.085.988-4.098.989-2.272.989.157.988.132.989.1.989-7.175.988-3.856.989-2.953.989-3.162.988-2.49.99-2.031.988.175.988-4.674.99-2.25.988-3.129.989-2.009.988-2.01.989.18.989.158.988.073.989-4.613.989-2.274.988-1.037.989-.887.989-.282.988-.322.99-7.185.988-1.245.988-1.71.99-1.725.988-3.893.989-1.398.988-.203.989-.168.989-.155.988-5.84.989-1.828.989-1.57.988-.012.989.005.989-3.519.988-1.532.99-1.106.988-1.351.988-1.162.99-1.615.988-.078.989-.08.988-3.184.989-1.224.989-.803.988-1.25.989-.14.989-1.657.988-1.014.989-1.46.989-1.022.988-2.986.99-2.096.988-.107.988-.1.99-3.802.988-1.969.989-1.278.988-.6.989-2.997.989.112.988.127.989-2.95.989-.75.988-1.639.989-2.523.989-1.424.988.095.99.065.988-4.998.988-1.477.99-1.703.988-.613.989-1.068.988.02.989-.007.989-5.29.988-1.313.989-1.522.989-1.741.988-1.526.989.013.989-1.961.988-2.406.99-1.749.988-.654.988-3.94.99-1.947.988.042.989.04.988-3.71.989-1.717 1.977-1.71v-1.93l.989-1.056.989-.18.988.031.989-2.204.989-1.137.988-1.18.99-2.744.988-1.216.988-1.216.99-.107.988-.797.989-.385.988-1.51.989-1.74.989-1.304.988-.193.989-.193.989-1.517.988-.856.989-.844.989-1.07.988-2.17.99-.385.988-.132.988-.563.99-.34.988-1.437.989-.558.988-.559.989-.114.989-.103.988-.978.989-.094.989-.311.988-.108.989-.124.989-.143.988-.155.99-.163.988-.165.988-.167.99-.394.988-.18.989-.18.988-.168.989-.157.989-.143.988-.342.989-.539.989-.09.988-.08.989-.065.989-.045.988-.024.99-.232.988-.004h.988l.99.005.988.01.989.007.988-.652.989-.21.989.01.988.01.989.01.989.007.988.007.989.004.989.004h.988l.99-.004.988-.006.988-.01.99-.015.988-.016.989-.018.988-.022.989-.902.989-.017.988-.012.989-.008.989-.002.988.001.989-.213.989.012.988.016.99.02.988.021.988.02.99.013.988-.211.989-.217h.988l.989-.003.989-.007.988-.01.989-.232.989-.45.988-.007.989-.003h.989l.988.002.99.006.988.009.988-.426.99-1.298.988.035.989.04.988-4.753.989-.076.989-.05.988-1.344.989-.877.989.239.988.24.989-1.294.989-.409.988.025.99-.213.988-.025.988.155.99.104.988-2.142.989-.633.988-1.323.989-1.345.989-.482.988-.06.989-.079.989-2.282.988-.506.989-.27.989-.908.988-.012.99.003.988.02.988-.443.99-.9.988-.47.989-1.144.988-.06.989-.074.989-.088.988-1.64.989-1.639.989-1.622.988-.5.989-1.13.989.005.988.038.99.049.988-2.57.988-1.221.99.106.988-.989.989.116.988.11.989-1.886.989-.58.988-.817.989-1.709.989-.832.988.042.989.03.989-2.83.988-.189.99-1.07.988-1.073.988-.629.99.034.988.033.989-.855.988-.649.989-.89.989-.905.988-.923.989-.055.989-.071.988-.953.989-.527.989-1.422.988-.104.99-2.52.988-.08.988-.062.99-.057.988-1.367.989-.473.988-.47.989-.467.989-.022.988-.014.989-1.779.989-.674.988-.238.989-.907.989-.474.988-.038.99-.04.988-.482.988-.267.99-.053.988-.502.989-.294.988-.081.989-.088.989-1.846.988-.947.989-.059.989-.046.988-.49.989-.048.989-.045.988-1.132.99-.46.988-1.981.988.022.99-1.495.988.07.989.088.988-1.228.989-.782.989-.335.988-.557v-4.263l-.988.767-.99.547-.988.983-.988 1.418-.99.087-.988.071-.989 1.592-.988.023-.989 1.989-.989.422-.988 1.073-.989-.045-.989-.048-.988.392-.989-.046-.989-.058-.988.816-.99 1.684-.988-.088-.988-.082-.99.148-.988.38-.989-.053-.988.174-.989.4-.989-.04-.988-.038-.989.408-.989.857-.988.204-.989.65-.989 1.749-.988-.014-.99-.021-.988.414-.988.412-.99.41-.988 1.28-.989-.058-.988-.061-.989-.08-.989 2.331-.988-.104-.989 1.225-.989.355-.988.812-.989-.07-.989-.057-.988.842-.99.859-.988.875-.988.674-.99.91-.988.033-.989.034-.988.694-.989 1.133-.989 1.134-.988.253-.989 2.904-.989.03-.988.042-.989.933-.989 1.82-.988.948-.99.742-.988 2.084-.988.11-.99.116-.988 1.217-.989.106-.988 1.425-.989 2.724-.989.049-.988.038-.989.005-.989 1.075-.988.383-.989 1.465-.989 1.449-.988 1.447-.99-.088-.988-.074-.988-.06-.99 1.063-.988.412-.989.864-.988.439-.989.02-.989.003-.988-.012-.989.857-.989.17-.988.376-.989 2.13-.989-.08-.988-.06-.99.4-.988 1.302-.988 1.324-.99.69-.988 2.269-.989.105-.988.155-.989.415-.989.67-.988.466-.989.914-.989 1.794-.988.24-.989.239-.989 1.328-.988 1.743-.99.392-.988.365-.988 4.951-.99.04-.988.035-.989 1.35-.988.456-.989.008-.989.006-.988.003h-.989l-.989-.004-.988-.006-.989.432-.989.209-.988-.01-.99-.007-.988-.004h-.988l-.99.225-.988.23-.989.013-.988.02-.989.021-.989.02-.988.016-.989.012-.989.227-.988.002-.989-.002-.989-.008-.988-.013-.99-.016-.988.862-.988-.022-.99-.018-.988-.016-.989-.014-.988-.01-.989-.007-.989-.004h-.988l-.989.004-.989.005-.988.006-.989.008-.989.009-.988.01-.99.01-.988.232-.988.67-.99.008-.988.01-.989.005h-.988l-.989-.004-.989.208-.988-.023-.989-.046-.989-.064-.988-.08-.989-.09-.989.343-.988.1-.99-.143-.988-.158-.988-.168-.99-.18-.988-.18-.989.048-.988-.168-.989-.165-.989-.163-.988-.155-.989-.143-.989-.124-.988-.108-.989.13-.989-.093-.988.785-.99-.102-.988-.114-.988.323-.99.324-.988 1.21-.989.1-.988.32-.989-.132-.989.056-.988 1.8-.989.695-.989.479-.988.467-.989 1.13-.989-.194-.988-.193-.99.902-.988 1.347-.988 1.138-.99.055-.988.527-.989-.107-.988.99-.989.989-.989 2.549-.988 1.026-.989 1.069-.989 2.206-.988.032-.989.26-.989 1.15v2.039l-1.977 1.82-.989 1.812-.988 3.789-.99.04-.988.041-.989 2.023-.988 4-.989.669-.989 1.78-.988 2.447-.989 2.008-.989.013-.988 1.562-.989 1.787-.989 1.567-.988 1.333-.99 5.296-.988-.007-.988.02-.99 1.138-.988.71-.989 1.826-.988 1.61-.989 5.148-.989.065-.988.096-.989 1.662-.989 2.77-.988 1.891-.989 1.015-.989 3.224-.988.128-.99.112-.988 3.177-.988.724-.99 1.369-.988 2-.989 3.697-.988-.099-.989-.107-.989 1.874-.988 2.748-.989.743-.989 1.186-.988.75-.989 1.432-.989-.141-.988.956-.99.52-.988.981-.988 2.991-.99-.08-.988-.077-.989 1.473-.988 1.044-.989 1.295-.989 1.1-.988 1.555-.989 3.539-.989.004-.988-.01-.989 1.516-.989 1.701-.988 5.629-.99-.155-.988-.169-.988-.202-.99.808-.988 3.164-.989.921-.988.937-.989.52-.989 6.488-.988-.321-.989-.282-.989.436-.988.728-.989 2.137-.989 4.65-.988.072-.99.158-.988.181-.988 2.4-.99 2.402-.988 3.488-.989 2.602-.988 5.03-.989.176-.989 2.38-.988 2.803-.989 3.455-.989 3.222-.988 4.084-.989 7.382-.989.1-.988.132-.99.156-.988 2.58-.988 4.283-.99 1.12-.988 6.578-.989-.097-.988-.117-.989-.128-.989.93-.988 5.75-.989 1.326-.989 5.766-.988-.16-.989-.1-.989 3.715-.988.028-.99 1.643-.988 2.134-.988 3.268-.99.198-.988.207-.989 2.194-.988 4.164-.989 1.27-.989 2.786-.988 2.54-.989.098-.989 2.487-.988 5.312-.989 3.524-.989 2.432-.988 1.581-.99 3.161-.988.113-.988 4.556-.99.167-.988.222-.989 1.586-.988 2.042-.989 3.37-.989.282-.988 1.383-.989 3.346-.989 1.996-.988 2.863-.989 2.85-.989 3.72-.988.193-.99.21-.988 1.755-.988 3.944-.99.171-.988 1.047-.989 4.335-.988.111-.989.105-.989 1.196-.988.735-.989 1.598-.989.243-.988 2.64-.989-.037-.989-.043-.988 1.058-.99 1.057-.988 1.065-.988.862-.99 1.327-.988.03-.989.065-.988.098-.989.13-.989 1.042-.988.18-.989.635-.989.86-.988.85-.989 1.277-.989 1.258-.988.36-.99 1.448-.988.542-.988.087-.99.067-.988.482-.989 1.99-.988 1.082-.989.192-.989.414-.988-.027-.989-.022-.989-.017-.988-.01-.989-.004-.989.004-.988.005-.99.004-.988.004-.988.002h-.99l-.988.22-.989-.005-.988.654-.989-.013-.989-.014-.988-.014-.989.208-.989.428-.988-.012-.989.213-.989-.002-.988.003-.99.007-.988.011-.988.013-.99.677-.988.014-.989.018-.988.021-.989.023-.989.024-.988.905-.989.018-.989.242-.988.021-.989.022-.989.022-.988.24-.99.237-.988.454-.988.008-.99.009-.988.006-.989.224-.988.221h-.989l-.989-.003-.988.216-.989-.013-.989-.018-.988.2-.989-.025-.989.197-.988-.022-.99-.019-.988-.016-.988-.016-.99-.015-.988-.014-.989.205-.988-.016-.989.207-.989-.013-.988-.021-.989-.03-.989.187-.988-.037-.989-.036-.989.184-.988-.033-.99-.035-.988-.034-.988.19-.99.19-.988.636-.989-.022-.988-.009h-.989l-.989.007-.988.015-.989.02-.989.248-.988.472-.989.035-.989.04-.988.485-.99.265-.988.044-.988.265-.99 1.362-.988.03-.989.033-.988.034-.989.034-.989.25-.988.027-.989.904-.989.013-.988.007-.989.22-.989.215-.988.206-.99-.02-.988.421-.988-.023-.99-.022-.988-.02-.989-.017-.988-.013-.989.211-.989-.004-.988.001-.989.008-.989.234-.988.017-.989.24-.989.241-.988.02-.99.014-.988-.001-.988-.017-.99-.03-.988-.041-.989.17-.988.605-.989-.059-.989-.053-.988.393-.989-.046-.989-.044-.988.176-.989-.043-.989-.035-.988-.036-.99-.034-.988-.036-.988-.05-.99.151-.988-.095-.989-.118-.988-.142-.989.065-.989.057-.988.049-.989.704-.989.698-.988-.183-.989-.176-.989.062-.988-.136-.99-.116-.988-.107-.988-.096-.99-.09-.988.58-.989.567-.988.538-.989.292-.989-.16-.988.931-.989-.188-.989.245-.988 1.346-.989.91-.989.935-.988.526-.99 1.005-.988-.055-.988.666-.99 1.164-.988 1.221-.989 1.056-.988 1.108-.989 1.596-.989.314-.988.79-.989 1.913-.989 2.577-.988 1.035-.989 1.477-.989 1.022-.988 2.758-.99 3.812-.988 1.561-.988.659-.99 1.742-.988 1.93-.989 1.237-.988.557-.989.763-.989.305-.988 1.391-.989.703-.989.69-.988.016-.989.236-.989.012-.988.01-.99.449H150.962z" id="mea0060ade5" style="stroke:#fff;stroke-opacity:.2"/></defs><g clip-path="url(#p2c838a09fe)"><use style="fill:#089fff;fill-opacity:.2;stroke:#fff;stroke-opacity:.2" xlink:href="#mea0060ade5" y="648"/></g></g><path clip-path="url(#p2c838a09fe)" d="M149.973 554.04h56.355l.989-.441h1.977l.989-.22h.988l1.978-1.324.988-1.323.99-.22.988-.662.988-.442.99-1.102 1.977-3.309.988-.44.989-1.324.989-3.529.988-2.426.989-.662.989-1.102.988-.662.989-2.205.989-1.544.988-.441h.99l.988-1.324 1.977-1.764 1.978-2.206.988-.661h.989l.989-1.103.988-.662 1.978-2.205.988-1.544.989-.441h.989l.988-1.103h.99l.988-.441 2.966-1.985h4.943l.989-.22h1.977l1.978-1.765 2.966-.662h2.966l.989-.22h5.932l.988-.22h1.978l.988-.442h1.978l.988-.661.99-.221h5.931l1.978-.441h.988l.989-.22h2.966l.989-.221h4.943l.989-.441h.989l2.966-.662h1.977l.989-.882h.988l.99-.22h3.954l.989-1.324.988-.22h.989l.989-.221.988-.441h1.978l.988-.441.989-.22h5.932l.989-.663 1.977-.44h2.966l.989-.221h1.977l.989-.22h2.966l.989-.221h.988l.99-.22h5.931l.989-.221h.989l.988-.221h1.978l.988-.22h1.978l1.977-.442h2.966l.989-.44 1.977-.442h2.966l.989-.22h.989l.988-.883h4.944l.989-.661h4.943l.989-.22h.988l.989-.442.989-.22h2.966l.988-.662h.99l.988-.22h10.875l.99-.442.988-.22.988-1.103.99-1.985.988-.441h1.977l.989-.441.989-1.324.988-.22 1.978-2.206 1.977-1.323.989-.441h.988l.99-.882h3.954l.989-1.324.988-.882 2.966-3.308h1.978l.988-2.647.989-.22.989-1.544.988-.662.99-1.102h1.976l.99-4.19.988-.883h.989l.988-3.75.989-1.543h1.977l.989-3.53 1.977-5.292.989-1.765.989-3.088.988-1.102h.99l.988-3.088.988-1.764.99-1.324h1.977l.988-4.41h.989l.989-3.088.988-1.544.989-2.426.989-3.53.988-5.292.989-2.426h.989l1.977-5.073.989-1.103.988-3.97.99-1.985h1.977l.988-3.088.989-1.984.989-1.544h.988l.989-3.75h1.977l.989-5.955.989-1.543.988-5.955.99-1.103h2.965l.989-6.617.989-1.102.988-4.19.989-2.427h2.966l.989-7.278.988-3.97 2.966-9.043.99-2.205h.988l.988-4.852.99-2.426.988-3.309 1.977-4.41h2.966l.989-4.632.989-2.206.988-.882.989-.662h1.977l.99-6.837.988-.882 1.977-2.646.989-3.53.989-1.102h2.966l.988-5.734 1.978-3.309h1.977l.989-3.528.988-1.544.99-1.103.988-1.323.988-1.103.99-1.544h1.977l.988-3.088.989-1.103.989-.661.988-1.103h.989l.989-1.544.988-.882.989-1.323.989-.882.988-2.868.99-1.985h1.976l.99-3.749.988-1.985.989-1.323.988-.662.989-3.088h1.977l.989-3.087.989-.883.988-1.764.989-2.647.989-1.543h1.977l.989-5.073.988-1.544.99-1.764.988-.662.989-1.103h1.977l.989-5.293.988-1.323.989-1.544 1.977-3.308h.989l.989-1.985.988-2.426.99-1.765.988-.662.988-3.97.99-1.984h1.977l.988-3.75.989-1.764 1.977-1.765v-1.985l.989-1.102.989-.22h.988l.989-2.206 1.977-2.206.99-2.647 1.976-2.205h.99l.988-.662.989-.22.988-1.324.989-1.543.989-1.103h1.977l.989-1.323 1.977-1.324.989-.882.988-1.985.99-.22h.988l.988-.442.99-.22.988-1.323 1.977-.883h1.978l.988-.882h.989l.989-.22h6.92l.99-.221h4.943l.988-.22.989-.442h4.943l.99-.22h4.943l.988-.662.989-.22h14.83l.989-.883h4.943l.989-.22h5.932l1.978-.441h3.954l.989-.22.989-.442h5.932l.988-.441.99-1.323h1.977l.988-4.852 1.978-.442.988-1.543.989-1.103h1.977l.989-1.544.989-.662.988-.22.99-.441.988-.22h1.977l.989-2.206.989-.662 1.977-2.647.989-.44h1.977l.989-2.206.988-.441.989-.22.989-.883h2.966l.988-.441.99-.882.988-.442.989-1.102h2.966l2.966-4.632.988-.441.989-1.103h2.966l.989-2.646.988-1.324h.99l.988-1.102h1.977l.989-1.985.989-.662.988-.882.989-1.765.989-.882h1.977l.989-2.867.988-.22 1.978-2.206.988-.662h1.978l.989-.882.988-.662 2.966-2.646h1.978l.988-.882.989-.441.989-1.324h.988l.99-2.426h2.965l.989-1.323 2.966-1.323h1.977l.989-1.765.989-.662.988-.22.989-.882.989-.441h1.977l.989-.442.988-.22h.99l.988-.441.989-.22h1.977l.989-1.765.988-.882h1.978l.988-.441h1.978l.988-1.103.99-.441.988-1.985h.988l.99-1.544h1.977l.988-1.323.989-.883.989-.44.988-.662h0" style="fill:none;stroke:#4c72b0;stroke-linecap:round;stroke-width:1.5" id="line2d_1"/><path d="M117 576.72V77.76" style="fill:none;stroke:#d3d3d3;stroke-linecap:square;stroke-linejoin:miter;stroke-width:1.25" id="patch_3"/><path d="M117 576.72h725.4" style="fill:none;stroke:#d3d3d3;stroke-linecap:square;stroke-linejoin:miter;stroke-width:1.25" id="patch_4"/><g id="matplotlib.axis_1"><g id="xtick_1"><g style="fill:#696969" transform="matrix(.16 0 0 -.16 117.866 598.378)" id="text_1"><defs><path d="M9.813 72.906h9.859V5.078q0-13.187-5-19.14-5-5.954-16.094-5.954h-3.75v8.297h3.078q6.531 0 9.219 3.672Q9.813-4.39 9.813 5.078z" id="DejaVuSans-74"/><path d="M34.281 27.484q-10.89 0-15.093-2.484-4.204-2.484-4.204-8.5 0-4.781 3.157-7.594 3.156-2.797 8.562-2.797 7.485 0 12 5.297 4.516 5.297 4.516 14.078v2zm17.922 3.72V0H43.22v8.297Q40.14 3.328 35.547.953q-4.594-2.375-11.234-2.375-8.391 0-13.36 4.719Q6 8.016 6 15.922q0 9.219 6.172 13.906 6.187 4.688 18.437 4.688h12.61v.89q0 6.203-4.078 9.594-4.078 3.39-11.453 3.39-4.688 0-9.141-1.124-4.438-1.125-8.531-3.375v8.312q4.921 1.906 9.562 2.844 4.64.953 9.031.953 11.875 0 17.735-6.156 5.86-6.14 5.86-18.64z" id="DejaVuSans-97"/><path d="M54.89 33.016V0h-8.984v32.719q0 7.765-3.031 11.61-3.031 3.858-9.078 3.858-7.281 0-11.484-4.64-4.204-4.625-4.204-12.64V0H9.08v54.688h9.03v-8.5q3.235 4.937 7.594 7.374Q30.078 56 35.797 56q9.422 0 14.25-5.828 4.844-5.828 4.844-17.156z" id="DejaVuSans-110"/></defs><use xlink:href="#DejaVuSans-74"/><use x="29.492" xlink:href="#DejaVuSans-97"/><use x="90.771" xlink:href="#DejaVuSans-110"/></g></g><g id="xtick_2"><g style="fill:#696969" transform="matrix(.16 0 0 -.16 206.33 598.378)" id="text_2"><defs><path d="M34.188 63.188 20.797 26.906h26.812zm-5.579 9.718h11.188L67.578 0h-10.25l-6.64 18.703h-32.86L11.188 0H.78z" id="DejaVuSans-65"/><path d="M18.11 8.203v-29H9.077v75.484h9.031v-8.296q2.844 4.875 7.157 7.234Q29.594 56 35.594 56q9.968 0 16.187-7.906 6.235-7.907 6.235-20.797T51.78 6.484q-6.218-7.906-16.187-7.906-6 0-10.328 2.375-4.313 2.375-7.157 7.25zm30.578 19.094q0 9.906-4.079 15.547-4.078 5.64-11.203 5.64-7.14 0-11.218-5.64-4.079-5.64-4.079-15.547 0-9.906 4.078-15.547 4.079-5.64 11.22-5.64 7.124 0 11.202 5.64t4.078 15.547z" id="DejaVuSans-112"/><path d="M41.11 46.297q-1.516.875-3.297 1.281Q36.03 48 33.89 48q-7.625 0-11.703-4.953-4.079-4.953-4.079-14.234V0H9.08v54.688h9.03v-8.5q2.844 4.984 7.375 7.39Q30.031 56 36.531 56q.922 0 2.047-.125 1.125-.11 2.484-.36z" id="DejaVuSans-114"/></defs><use xlink:href="#DejaVuSans-65"/><use x="68.408" xlink:href="#DejaVuSans-112"/><use x="131.885" xlink:href="#DejaVuSans-114"/></g></g><g id="xtick_3"><g style="fill:#696969" transform="matrix(.16 0 0 -.16 300.488 598.378)" id="text_3"><defs><path d="M8.5 21.578v33.11h8.984V21.922q0-7.766 3.016-11.656 3.031-3.875 9.094-3.875 7.265 0 11.484 4.64 4.234 4.64 4.234 12.656v31h8.985V0h-8.984v8.406Q42.047 3.422 37.718 1q-4.313-2.422-10.032-2.422-9.421 0-14.312 5.86Q8.5 10.296 8.5 21.578zM31.11 56z" id="DejaVuSans-117"/><path d="M9.422 75.984h8.984V0H9.422z" id="DejaVuSans-108"/></defs><use xlink:href="#DejaVuSans-74"/><use x="29.492" xlink:href="#DejaVuSans-117"/><use x="92.871" xlink:href="#DejaVuSans-108"/></g></g><g id="xtick_4"><g style="fill:#696969" transform="matrix(.16 0 0 -.16 387.267 598.378)" id="text_4"><defs><path d="M39.406 66.219q-10.75 0-17.078-8.016-6.312-8-6.312-21.828 0-13.766 6.312-21.781 6.328-8 17.078-8 10.735 0 17.016 8 6.281 8.015 6.281 21.781 0 13.828-6.281 21.828-6.281 8.016-17.016 8.016zm0 8q15.328 0 24.5-10.281 9.188-10.282 9.188-27.563 0-17.234-9.188-27.516-9.172-10.28-24.5-10.28-15.375 0-24.593 10.25-9.204 10.265-9.204 27.546t9.204 27.563q9.218 10.28 24.593 10.28z" id="DejaVuSans-79"/><path d="M48.781 52.594v-8.407q-3.812 2.11-7.64 3.157-3.828 1.047-7.735 1.047-8.75 0-13.593-5.547-4.829-5.532-4.829-15.547 0-10.016 4.829-15.563 4.843-5.53 13.593-5.53 3.907 0 7.735 1.046 3.828 1.047 7.64 3.156V2.094Q45.016.344 40.984-.531q-4.015-.89-8.562-.89-12.36 0-19.64 7.765-7.266 7.765-7.266 20.953 0 13.375 7.343 21.031Q20.22 56 33.016 56q4.14 0 8.093-.86 3.953-.843 7.672-2.546z" id="DejaVuSans-99"/><path d="M18.313 70.219V54.688h18.5v-6.985h-18.5V18.016q0-6.688 1.828-8.594 1.828-1.906 7.453-1.906h9.218V0h-9.218q-10.407 0-14.36 3.875-3.953 3.89-3.953 14.14v29.688H2.687v6.984h6.594V70.22z" id="DejaVuSans-116"/></defs><use xlink:href="#DejaVuSans-79"/><use x="78.711" xlink:href="#DejaVuSans-99"/><use x="133.691" xlink:href="#DejaVuSans-116"/></g></g><g id="xtick_5"><g style="fill:#696969" transform="matrix(.16 0 0 -.16 479.726 598.378)" id="text_5"><use xlink:href="#DejaVuSans-74"/><use x="29.492" xlink:href="#DejaVuSans-97"/><use x="90.771" xlink:href="#DejaVuSans-110"/></g></g><g id="xtick_6"><g style="fill:#696969" transform="matrix(.16 0 0 -.16 567.2 598.378)" id="text_6"><use xlink:href="#DejaVuSans-65"/><use x="68.408" xlink:href="#DejaVuSans-112"/><use x="131.885" xlink:href="#DejaVuSans-114"/></g></g><g id="xtick_7"><g style="fill:#696969" transform="matrix(.16 0 0 -.16 661.359 598.378)" id="text_7"><use xlink:href="#DejaVuSans-74"/><use x="29.492" xlink:href="#DejaVuSans-117"/><use x="92.871" xlink:href="#DejaVuSans-108"/></g></g><g id="xtick_8"><g style="fill:#696969" transform="matrix(.16 0 0 -.16 748.138 598.378)" id="text_8"><use xlink:href="#DejaVuSans-79"/><use x="78.711" xlink:href="#DejaVuSans-99"/><use x="133.691" xlink:href="#DejaVuSans-116"/></g></g></g><g id="matplotlib.axis_2"><g id="ytick_1"><g style="fill:#696969" transform="matrix(.16 0 0 -.16 97.32 560.119)" id="text_9"><defs><path d="M31.781 66.406q-7.61 0-11.453-7.5Q16.5 51.422 16.5 36.375q0-14.984 3.828-22.484 3.844-7.5 11.453-7.5 7.672 0 11.5 7.5 3.844 7.5 3.844 22.484 0 15.047-3.844 22.531-3.828 7.5-11.5 7.5zm0 7.813q12.266 0 18.735-9.703 6.468-9.688 6.468-28.141 0-18.406-6.468-28.11-6.47-9.687-18.735-9.687-12.25 0-18.718 9.688-6.47 9.703-6.47 28.109 0 18.453 6.47 28.14Q19.53 74.22 31.78 74.22z" id="DejaVuSans-48"/></defs><use xlink:href="#DejaVuSans-48"/></g></g><g id="ytick_2"><g style="fill:#696969" transform="matrix(.16 0 0 -.16 76.96 449.843)" id="text_10"><defs><path d="M10.797 72.906h38.719v-8.312H19.828v-17.86q2.14.735 4.281 1.094 2.157.36 4.313.36 12.203 0 19.328-6.688 7.14-6.688 7.14-18.11 0-11.765-7.328-18.296-7.328-6.516-20.656-6.516-4.593 0-9.36.781-4.75.782-9.827 2.344v9.922q4.39-2.39 9.078-3.563 4.687-1.171 9.906-1.171 8.453 0 13.375 4.437 4.938 4.438 4.938 12.063 0 7.609-4.938 12.047-4.922 4.453-13.375 4.453-3.953 0-7.89-.875-3.922-.875-8.016-2.735z" id="DejaVuSans-53"/></defs><use xlink:href="#DejaVuSans-53"/><use x="63.623" xlink:href="#DejaVuSans-48"/><use x="127.246" xlink:href="#DejaVuSans-48"/></g></g><g id="ytick_3"><g style="fill:#696969" transform="matrix(.16 0 0 -.16 66.78 339.568)" id="text_11"><defs><path d="M12.406 8.297h16.11v55.625l-17.532-3.516v8.985l17.438 3.515h9.86V8.296H54.39V0H12.406z" id="DejaVuSans-49"/></defs><use xlink:href="#DejaVuSans-49"/><use x="63.623" xlink:href="#DejaVuSans-48"/><use x="127.246" xlink:href="#DejaVuSans-48"/><use x="190.869" xlink:href="#DejaVuSans-48"/></g></g><g id="ytick_4"><g style="fill:#696969" transform="matrix(.16 0 0 -.16 66.78 229.292)" id="text_12"><use xlink:href="#DejaVuSans-49"/><use x="63.623" xlink:href="#DejaVuSans-53"/><use x="127.246" xlink:href="#DejaVuSans-48"/><use x="190.869" xlink:href="#DejaVuSans-48"/></g></g><g id="ytick_5"><g style="fill:#696969" transform="matrix(.16 0 0 -.16 66.78 119.016)" id="text_13"><defs><path d="M19.188 8.297h34.421V0H7.33v8.297q5.609 5.812 15.296 15.594 9.703 9.797 12.188 12.64 4.734 5.313 6.609 9 1.89 3.688 1.89 7.25 0 5.813-4.078 9.469-4.078 3.672-10.625 3.672-4.64 0-9.797-1.61-5.14-1.609-11-4.89v9.969Q13.767 71.78 18.938 73q5.188 1.219 9.485 1.219 11.328 0 18.062-5.672 6.735-5.656 6.735-15.125 0-4.5-1.688-8.531-1.672-4.016-6.125-9.485-1.218-1.422-7.765-8.187-6.532-6.766-18.453-18.922z" id="DejaVuSans-50"/></defs><use xlink:href="#DejaVuSans-50"/><use x="63.623" xlink:href="#DejaVuSans-48"/><use x="127.246" xlink:href="#DejaVuSans-48"/><use x="190.869" xlink:href="#DejaVuSans-48"/></g></g><g style="fill:#696969" transform="matrix(0 -.2 -.2 0 58.62 379.813)" id="text_14"><defs><path d="M51.125 44H36.922l-4.11-16.313h14.313zm-7.328 27.781-5.078-20.265h14.265L58.11 71.78h7.813L60.89 51.516h15.234V44h-17.14l-4-16.313h15.53V20.22H53.079L48 0h-7.813l5.032 20.219H30.906L25.875 0h-7.86l5.079 20.219H7.719v7.468h17.187L29 44H13.281v7.516h17.625l4.985 20.265z" id="DejaVuSans-35"/><path d="M30.61 48.39q-7.22 0-11.422-5.64-4.204-5.64-4.204-15.453 0-9.813 4.172-15.453 4.188-5.64 11.453-5.64 7.188 0 11.375 5.655 4.203 5.672 4.203 15.438 0 9.719-4.203 15.406-4.187 5.688-11.375 5.688zm0 7.61q11.718 0 18.406-7.625 6.703-7.61 6.703-21.078 0-13.422-6.703-21.078-6.688-7.64-18.407-7.64-11.765 0-18.437 7.64-6.656 7.656-6.656 21.078 0 13.469 6.656 21.078Q18.844 56 30.609 56z" id="DejaVuSans-111"/><path d="M37.11 75.984V68.5h-8.594q-4.828 0-6.72-1.953-1.874-1.953-1.874-7.031v-4.828h14.797v-6.985H19.922V0H10.89v47.703H2.297v6.984h8.594V58.5q0 9.125 4.25 13.297 4.25 4.187 13.468 4.187z" id="DejaVuSans-102"/><path d="M44.281 53.078v-8.5q-3.797 1.953-7.906 2.922-4.094.984-8.5.984-6.688 0-10.031-2.047-3.344-2.046-3.344-6.156 0-3.125 2.39-4.906 2.391-1.781 9.626-3.39l3.078-.688q9.562-2.047 13.593-5.781 4.032-3.735 4.032-10.422 0-7.625-6.032-12.078-6.03-4.438-16.578-4.438-4.39 0-9.156.86Q10.688.296 5.422 2v9.281q4.984-2.594 9.812-3.89 4.829-1.282 9.579-1.282 6.343 0 9.75 2.172 3.421 2.172 3.421 6.125 0 3.656-2.468 5.61-2.453 1.953-10.813 3.765l-3.125.735q-8.344 1.75-12.062 5.39-3.704 3.64-3.704 9.985 0 7.718 5.47 11.906Q16.75 56 26.811 56q4.97 0 9.36-.734 4.406-.72 8.11-2.188z" id="DejaVuSans-115"/><path d="M56.203 29.594v-4.39H14.891q.593-9.282 5.593-14.142 5-4.859 13.938-4.859 5.172 0 10.031 1.266 4.86 1.265 9.656 3.812v-8.5Q49.266.734 44.187-.344 39.11-1.422 33.892-1.422q-13.094 0-20.735 7.61-7.64 7.625-7.64 20.625 0 13.421 7.25 21.296Q20.016 56 32.328 56q11.031 0 17.453-7.11 6.422-7.093 6.422-19.296zm-8.984 2.64q-.094 7.36-4.125 11.75-4.032 4.407-10.672 4.407-7.516 0-12.031-4.25-4.516-4.25-5.203-11.97z" id="DejaVuSans-101"/></defs><use xlink:href="#DejaVuSans-35"/><use x="83.789" xlink:href="#DejaVuSans-32"/><use x="115.576" xlink:href="#DejaVuSans-111"/><use x="176.758" xlink:href="#DejaVuSans-102"/><use x="211.963" xlink:href="#DejaVuSans-32"/><use x="243.75" xlink:href="#DejaVuSans-99"/><use x="298.73" xlink:href="#DejaVuSans-97"/><use x="360.01" xlink:href="#DejaVuSans-115"/><use x="412.109" xlink:href="#DejaVuSans-101"/><use x="473.633" xlink:href="#DejaVuSans-115"/></g></g><g style="fill:#696969" transform="matrix(.24 0 0 -.24 306.902 71.76)" id="text_15"><defs><path d="M44.39 34.188q3.172-1.079 6.172-4.594 3-3.516 6.032-9.672L66.609 0H56l-9.313 18.703q-3.624 7.328-7.015 9.719-3.39 2.39-9.25 2.39h-10.75V0h-9.86v72.906h22.266q12.5 0 18.656-5.234 6.157-5.219 6.157-15.766 0-6.89-3.203-11.437-3.204-4.532-9.297-6.282zM19.673 64.797V38.922h12.406q7.125 0 10.766 3.297 3.64 3.297 3.64 9.687 0 6.39-3.64 9.64-3.64 3.25-10.766 3.25z" id="DejaVuSans-82"/><path d="M54.89 33.016V0h-8.984v32.719q0 7.765-3.031 11.61-3.031 3.858-9.078 3.858-7.281 0-11.484-4.64-4.204-4.625-4.204-12.64V0H9.08v75.984h9.03V46.188q3.235 4.937 7.594 7.374Q30.078 56 35.797 56q9.422 0 14.25-5.828 4.844-5.828 4.844-17.156z" id="DejaVuSans-104"/><path d="M45.406 46.39v29.594h8.985V0h-8.985v8.203Q42.578 3.328 38.25.953q-4.313-2.375-10.375-2.375-9.906 0-16.14 7.906-6.22 7.922-6.22 20.813 0 12.89 6.22 20.797Q17.968 56 27.874 56q6.063 0 10.375-2.375 4.328-2.36 7.156-7.234zm-30.61-19.093q0-9.906 4.079-15.547 4.078-5.64 11.203-5.64 7.125 0 11.219 5.64 4.11 5.64 4.11 15.547 0 9.906-4.11 15.547-4.094 5.64-11.219 5.64-7.125 0-11.203-5.64-4.078-5.64-4.078-15.547z" id="DejaVuSans-100"/><path d="M-.297 72.906h61.672v-8.312H35.5V0h-9.906v64.594H-.296z" id="DejaVuSans-84"/><path d="M64.406 67.281v-10.39q-4.984 4.64-10.625 6.922-5.64 2.296-11.984 2.296-12.5 0-19.14-7.64-6.641-7.64-6.641-22.094 0-14.406 6.64-22.047 6.64-7.64 19.14-7.64 6.345 0 11.985 2.296 5.64 2.297 10.625 6.938V5.609Q59.234 2.094 53.437.33q-5.78-1.75-12.218-1.75-16.563 0-26.094 10.124-9.516 10.14-9.516 27.672 0 17.578 9.516 27.703 9.531 10.14 26.094 10.14 6.531 0 12.312-1.734 5.797-1.734 10.875-5.203z" id="DejaVuSans-67"/><path d="M2.984 54.688H12.5L29.594 8.797l17.093 45.89h9.516L35.687 0H23.485z" id="DejaVuSans-118"/><path d="M9.422 54.688h8.984V0H9.422zm0 21.296h8.984v-11.39H9.422z" id="DejaVuSans-105"/></defs><use xlink:href="#DejaVuSans-82"/><use x="64.982" xlink:href="#DejaVuSans-117"/><use x="128.361" xlink:href="#DejaVuSans-116"/><use x="167.57" xlink:href="#DejaVuSans-104"/><use x="230.949" xlink:href="#DejaVuSans-101"/><use x="292.473" xlink:href="#DejaVuSans-114"/><use x="333.586" xlink:href="#DejaVuSans-102"/><use x="368.791" xlink:href="#DejaVuSans-111"/><use x="429.973" xlink:href="#DejaVuSans-114"/><use x="469.336" xlink:href="#DejaVuSans-100"/><use x="532.813" xlink:href="#DejaVuSans-32"/><use x="564.6" xlink:href="#DejaVuSans-84"/><use x="608.684" xlink:href="#DejaVuSans-111"/><use x="669.865" xlink:href="#DejaVuSans-116"/><use x="709.074" xlink:href="#DejaVuSans-97"/><use x="770.354" xlink:href="#DejaVuSans-108"/><use x="798.137" xlink:href="#DejaVuSans-32"/><use x="829.924" xlink:href="#DejaVuSans-67"/><use x="899.748" xlink:href="#DejaVuSans-111"/><use x="960.93" xlink:href="#DejaVuSans-118"/><use x="1020.109" xlink:href="#DejaVuSans-105"/><use x="1047.893" xlink:href="#DejaVuSans-100"/><use x="1111.369" xlink:href="#DejaVuSans-32"/><use x="1143.156" xlink:href="#DejaVuSans-67"/><use x="1212.98" xlink:href="#DejaVuSans-97"/><use x="1274.26" xlink:href="#DejaVuSans-115"/><use x="1326.359" xlink:href="#DejaVuSans-101"/><use x="1387.883" xlink:href="#DejaVuSans-115"/></g><g id="legend_1"><path d="M128.2 137.53h144.675q3.2 0 3.2-3.2V88.96q0-3.2-3.2-3.2H128.2q-3.2 0-3.2 3.2v45.37q0 3.2 3.2 3.2z" style="fill:none;opacity:.8;stroke:#ccc;stroke-linejoin:miter" id="patch_5"/><path d="M131.4 98.718h32" style="fill:none;stroke:#4c72b0;stroke-linecap:round;stroke-width:1.5" id="line2d_2"/><g style="fill:#696969" transform="matrix(.16 0 0 -.16 176.2 104.317)" id="text_16"><use xlink:href="#DejaVuSans-84"/><use x="44.084" xlink:href="#DejaVuSans-111"/><use x="105.266" xlink:href="#DejaVuSans-116"/><use x="144.475" xlink:href="#DejaVuSans-97"/><use x="205.754" xlink:href="#DejaVuSans-108"/><use x="233.537" xlink:href="#DejaVuSans-32"/><use x="265.324" xlink:href="#DejaVuSans-67"/><use x="335.148" xlink:href="#DejaVuSans-97"/><use x="396.428" xlink:href="#DejaVuSans-115"/><use x="448.527" xlink:href="#DejaVuSans-101"/><use x="510.051" xlink:href="#DejaVuSans-115"/></g><path d="M131.4 127.802h32v-11.2h-32z" style="fill:#089fff;opacity:.2;stroke:#fff;stroke-linejoin:miter" id="patch_6"/><g style="fill:#696969" transform="matrix(.16 0 0 -.16 176.2 127.802)" id="text_17"><defs><path d="M8.688 72.906h9.921V28.61q0-11.718 4.235-16.875 4.25-5.14 13.781-5.14 9.469 0 13.719 5.14 4.25 5.157 4.25 16.875v44.297H64.5V27.391q0-14.25-7.063-21.532-7.046-7.28-20.812-7.28-13.828 0-20.89 7.28-7.047 7.282-7.047 21.532z" id="DejaVuSans-85"/><path d="M32.172-5.078q-3.797-9.766-7.422-12.735-3.61-2.984-9.656-2.984H7.906v7.516h5.282q3.703 0 5.75 1.765Q21-9.766 23.483-3.219l1.61 4.094-22.11 53.813H12.5l17.094-42.766 17.093 42.766h9.516z" id="DejaVuSans-121"/></defs><use xlink:href="#DejaVuSans-85"/><use x="73.193" xlink:href="#DejaVuSans-110"/><use x="136.572" xlink:href="#DejaVuSans-99"/><use x="191.553" xlink:href="#DejaVuSans-101"/><use x="253.076" xlink:href="#DejaVuSans-114"/><use x="294.189" xlink:href="#DejaVuSans-116"/><use x="333.398" xlink:href="#DejaVuSans-97"/><use x="394.678" xlink:href="#DejaVuSans-105"/><use x="422.461" xlink:href="#DejaVuSans-110"/><use x="485.84" xlink:href="#DejaVuSans-116"/><use x="525.049" xlink:href="#DejaVuSans-121"/></g></g></g></g><defs><clipPath id="p2c838a09fe"><path d="M117 77.76h725.4v498.96H117z"/></clipPath></defs></svg>