<svg height="864" viewBox="0 0 936 648" width="1248" xmlns="http://www.w3.org/2000/svg" xmlns:xlink="http://www.w3.org/1999/xlink"><defs><style>*{stroke-linecap:butt;stroke-linejoin:round}</style></defs><g id="figure_1"><path d="M0 648h936V0H0z" style="fill:#fff" id="patch_1"/><g id="axes_1"><path d="M117 576.72h725.4V77.76H117z" style="fill:none" id="patch_2"/><g id="PolyCollection_1"><defs><path d="M151.194-93.96H219.58l1.222-.525 1.221.012 1.221.014 1.222-.25 1.22.022 1.222-.77 1.221-.752 1.222-1.523 1.22-.166 1.222-.68 1.221-.394 1.221-1.174 1.222-1.94 1.22-1.633 1.222-.271 1.221-1.317 1.221-3.937 1.222-2.54 1.22-.366 1.222-.884 1.221-.35 1.221-2.225 1.222-1.426 1.22-.111 1.222.38 1.221-1.273 1.222-.797 1.22-.86 1.222-1.194 1.221-1.263 1.221-.798 1.222-.066 1.22-1.457 1.222-.967 1.221-1.54 1.221-1.573 1.222-2.113 1.22-.773 1.222-.229 1.221-1.545 1.222-.194 1.22-.716 1.222-.953 1.221-.917 1.221-.903 1.222-.109 1.22-.116 1.222-.13 1.221-.14 1.221-.166 1.222-.46 1.22-.213 1.222-.222 1.221-1.294 1.221-1.287 1.222-.475 1.22-.466 1.222-.456 1.221-.173 1.222-.143 1.22-.116 1.222-.352 1.221-.06 1.221-.044 1.222-.041 1.22-.043 1.222-.043 1.221-.052 1.221-.321 1.222-.054 1.22-.056 1.222-.593 1.221-.065 1.222-.07 1.22-.872 1.222-.33 1.221-.05 1.221-.036 1.222-.02 1.22-.001 1.222.016 1.221.024 1.221-.243 1.222-.243 1.22.021 1.222-.252 1.221.01 1.221.002 1.222-.005 1.22-.28 1.222-.016 1.221-.02 1.222-.024 1.22-.027 1.222-.028 1.221-.56 1.221-.024 1.222-.285 1.22-.275 1.222-.267 1.221.008 1.221.016 1.222-1.044 1.22.032 1.222-.23 1.221.04 1.222.041 1.22.04 1.222.037 1.221-1.558 1.221-.214 1.222.054 1.22-.215 1.222-.482 1.221.05 1.221.042 1.222-.498 1.22-.235 1.222.025 1.221.018 1.221.01 1.222-.001 1.22-.012 1.222-.026 1.221-.834 1.222-.303 1.22-.306 1.222-.042 1.221-.042 1.221-.04 1.222-.311 1.22-.044 1.222-.046 1.221-.308 1.221-.036 1.222-.026 1.22-.015 1.222-.285 1.221-.02 1.222-.285 1.22-.016 1.222-.02 1.221-.02 1.221-.019 1.222-.022 1.22-.027 1.222-.296 1.221-.03 1.221-.293 1.222-.022 1.22-.016 1.222-.273 1.221-.002 1.221-.001 1.222-.267 1.22-.264 1.222.008 1.221.01 1.222.01 1.22-.52 1.222-.247 1.221-.243 1.221.026 1.222.026 1.22.027 1.222-.243 1.221.023 1.221-1.043 1.222.029 1.22.027 1.222.026 1.221.022 1.222.017 1.22-.784 1.222.016 1.221.013 1.221.009 1.222.003 1.22-.002 1.222-.276 1.221-.016 1.221-.55 1.222-.283 1.22-.017 1.222-.017 1.221-.016 1.221-.812 1.222-.005 1.22-.27 1.222.001 1.221.003 1.222.004 1.22.005 1.222.006 1.221.005 1.221-.005 1.222-.013 1.22-.02 1.222-.027 1.221-.033 1.221-.567 1.222-.302 1.22-1.364 1.222-2.401 1.221-.487 1.222.083 1.22.105 1.222-.412 1.221-1.454 1.221-.1 1.222-1.149 1.22-1.126 1.222-.574 1.221-.563 1.221-.299 1.222.218 1.22-.876 1.222.157 1.221.119 1.221.079 1.222.036 1.22-1.601 1.222-1.095 1.221-1.382 1.222-1.394 1.22-1.393 1.222-.052 1.221-.044 1.221-3.22 1.222-.24 1.22-1.807 1.222-.714 1.221-1.225 1.221.128 1.222.134 1.22-4.908 1.222-.87 1.221.207 1.222-4.313 1.22-1.617 1.222.256 1.221.234 1.221-4.05 1.222-2.964 1.22-2.948 1.222-1.86 1.221-3.431 1.221-.998 1.222.342 1.22-3.404 1.222-1.804 1.221-1.287 1.221.27 1.222.202 1.22-5.175 1.222.137 1.221-3.657 1.222-1.827 1.22-2.937 1.222-4.287 1.221-6.399 1.221-2.869 1.222.12 1.22-2.806 1.222-3.043 1.221-1.134 1.221-4.581 1.222-2.154 1.22.25 1.222.242 1.221-3.528 1.222-2.228 1.22-1.752 1.222.034 1.221-4.59 1.221-.123 1.222-.192 1.22-7.454 1.222-2.137 1.221-7.472 1.221-1.548 1.222-.157 1.22-.141 1.222-.118 1.221-8.074 1.221-1.316 1.222-4.972 1.22-2.757 1.222.19 1.221.16 1.222.121 1.22-8.703 1.222-4.678 1.221-3.583 1.221-3.835 1.222-3.02 1.22-2.465 1.222.212 1.221-5.67 1.221-2.73 1.222-3.796 1.22-2.437 1.222-2.44 1.221.22 1.222.192 1.22.088 1.222-5.597 1.221-2.759 1.221-1.257 1.222-1.077 1.22-.342 1.222-.39 1.221-8.717 1.221-1.51 1.222-2.074 1.22-2.094 1.222-4.723 1.221-1.695 1.221-.246 1.222-.204 1.22-.189 1.222-7.084 1.221-2.218 1.222-1.906 1.22-.013 1.222.005 1.221-4.269 1.221-1.858 1.222-1.342 1.22-1.64 1.222-1.409 1.221-1.959 1.221-.094 1.222-.097 1.22-3.863 1.222-1.486 1.221-.974 1.222-1.515 1.22-.171 1.222-2.01 1.221-1.23 1.221-1.772 1.222-1.239 1.22-3.623 1.222-2.543 1.221-.13 1.221-.12 1.222-4.613 1.22-2.388 1.222-1.55 1.221-.728 1.221-3.637 1.222.135 1.22.155 1.222-3.58 1.221-.91 1.222-1.987 1.22-3.06 1.222-1.73 1.221.116 1.221.08 1.222-6.064 1.22-1.791 1.222-2.067 1.221-.744 1.221-1.295 1.222.025 1.22-.01 1.222-6.418 1.221-1.592 1.222-1.846 1.22-2.113 1.222-1.85 1.221.015 1.221-2.38 1.222-2.919 1.22-2.12 1.222-.794 1.221-4.78 1.221-2.362 1.222.05 1.22.048 1.222-4.5 1.221-2.082 2.443-2.074v-2.343l1.22-1.28 1.222-.22 1.221.039 1.222-2.675 1.22-1.38 1.222-1.43 1.221-3.33 1.221-1.475 1.222-1.475 1.22-.13 1.222-.966 1.221-.468 1.221-1.83 1.222-2.112 1.22-1.582 1.222-.234 1.221-.235 1.222-1.84 1.22-1.038 1.222-1.025 1.221-1.298 1.221-2.632 1.222-.467 1.22-.16 1.222-.683 1.221-.412 1.221-1.744 1.222-.677 1.22-.678 1.222-.139 1.221-.124 1.221-1.187 1.222-.113 1.22-.379 1.222-.13 1.221-.15 1.222-.175 1.22-.187 1.222-.198 1.221-.2 1.221-.203 1.222-.478 1.22-.218 1.222-.218 1.221-.205 1.221-.19 1.222-.173 1.22-.415 1.222-.654 1.221-.11 1.222-.097 1.22-.078 1.222-.055 1.221-.029 1.221-.282 1.222-.005h1.22l1.222.007 1.221.012 1.221.008 1.222-.79 1.22-.255 1.222.012 1.221.012 1.221.011 1.222.01 1.22.008 1.222.006 1.221.004h1.222l1.22-.004 1.222-.009 1.221-.012 1.221-.017 1.222-.02 1.22-.022 1.222-.027 1.221-1.094 1.221-.02 1.222-.015 1.22-.01 1.222-.002 1.221.002 1.222-.26 1.22.015 1.222.02 1.221.023 1.221.027 1.222.023 1.22.017 1.222-.257 1.221-.262h1.221l1.222-.005 1.22-.008 1.222-.012 1.221-.282v-.683l-1.22.253-1.222-.012-1.221-.008-1.222-.005h-1.22l-1.222.273-1.221.279-1.221.016-1.222.024-1.22.026-1.222.024-1.221.02-1.221.014-1.222.276-1.22.002-1.222-.003-1.221-.01-1.222-.014-1.22-.02-1.222 1.046-1.221-.027-1.221-.022-1.222-.02-1.22-.017-1.222-.012-1.221-.008-1.221-.004h-1.222l-1.22.004-1.222.006-1.221.007-1.222.01-1.22.01-1.222.013-1.221.012-1.221.281-1.222.814-1.22.009-1.222.012-1.221.006h-1.221l-1.222-.004-1.22.252-1.222-.028-1.221-.055-1.221-.078-1.222-.098-1.22-.11-1.222.417-1.221.12-1.222-.172-1.22-.191-1.222-.205-1.221-.217-1.221-.22-1.222.059-1.22-.203-1.222-.201-1.221-.198-1.221-.187-1.222-.174-1.22-.15-1.222-.131-1.221.157-1.222-.113-1.22.953-1.222-.124-1.221-.139-1.221.392-1.222.393-1.22 1.467-1.222.124-1.221.387-1.221-.16-1.222.067-1.22 2.185-1.222.842-1.221.581-1.221.567-1.222 1.37-1.22-.234-1.222-.234-1.221 1.094-1.222 1.634-1.22 1.38-1.222.068-1.221.638-1.221-.129-1.222 1.2-1.22 1.2-1.222 3.093-1.221 1.245-1.221 1.296-1.222 2.677-1.22.04-1.222.315-1.221 1.394v2.474l-2.443 2.207-1.22 2.199-1.222 4.597-1.221.048-1.222.05-1.22 2.455-1.222 4.852-1.221.812-1.221 2.16-1.222 2.968-1.22 2.436-1.222.016-1.221 1.895-1.221 2.168-1.222 1.9-1.22 1.618-1.222 6.425-1.221-.009-1.222.025-1.22 1.38-1.222.862-1.221 2.214-1.221 1.955-1.222 6.245-1.22.079-1.222.115-1.221 2.018-1.221 3.36-1.222 2.294-1.22 1.23-1.222 3.913-1.221.155-1.222.135-1.22 3.855-1.222.878-1.221 1.66-1.221 2.428-1.222 4.485-1.22-.12-1.222-.13-1.221 2.273-1.221 3.333-1.222.902-1.22 1.439-1.222.91-1.221 1.737-1.221-.171-1.222 1.16-1.22.631-1.222 1.19-1.221 3.629-1.222-.097-1.22-.094-1.222 1.787-1.221 1.266-1.221 1.572-1.222 1.333-1.22 1.888-1.222 4.293-1.221.005-1.221-.013-1.222 1.84-1.22 2.064-1.222 6.828-1.221-.188-1.222-.204-1.22-.246-1.222.98-1.221 3.84-1.221 1.117-1.222 1.137-1.22.63-1.222 7.872-1.221-.39-1.221-.342-1.222.529-1.22.883-1.222 2.592-1.221 5.641-1.221.088-1.222.191-1.22.22-1.222 2.912-1.221 2.914-1.222 4.232-1.22 3.156-1.222 6.103-1.221.213-1.221 2.886-1.222 3.401-1.22 4.192-1.222 3.909-1.221 4.954-1.221 8.956-1.222.121-1.22.16-1.222.19-1.221 3.13-1.222 5.196-1.22 1.36-1.222 7.98-1.221-.118-1.221-.142-1.222-.156-1.22 1.127-1.222 6.976-1.221 1.61-1.221 6.995-1.222-.193-1.22-.122-1.222 4.506-1.221.035-1.221 1.993-1.222 2.589-1.22 3.964-1.222.24-1.221.252-1.222 2.662-1.22 5.051-1.222 1.542-1.221 3.379-1.221 3.08-1.222.12-1.22 3.017-1.222 6.445-1.221 4.275-1.221 2.95-1.222 1.918-1.22 3.835-1.222.137-1.221 5.528-1.222.202-1.22.27-1.222 1.924-1.221 2.477-1.221 4.087-1.222.343-1.22 1.677-1.222 4.06-1.221 2.422-1.221 3.474-1.222 3.457-1.22 4.512-1.222.235-1.221.255-1.221 2.13-1.222 4.784-1.22.207-1.222 1.27-1.221 5.26-1.222.134-1.22.128-1.222 1.45-1.221.891-1.221 1.94-1.222.294-1.22 3.202-1.222-.044-1.221-.052-1.221 1.283-1.222 1.282-1.22 1.293-1.222 1.046-1.221 1.61-1.222.036-1.22.08-1.222.118-1.221.157-1.221 1.264-1.222.218-1.22.771-1.222 1.043-1.221 1.032-1.221 1.549-1.222 1.526-1.22.436-1.222 1.757-1.221.658-1.221.105-1.222.083-1.22.583-1.222 2.416-1.221 1.311-1.222.233-1.22.503-1.222-.033-1.221-.027-1.221-.02-1.222-.013-1.22-.004-1.222.005-1.221.005-1.221.006-1.222.004-1.22.002h-1.222l-1.221.267-1.222-.005-1.22.794-1.222-.017-1.221-.017-1.221-.016-1.222.252-1.22.52-1.222-.016-1.221.26-1.221-.003-1.222.003-1.22.008-1.222.014-1.221.016-1.221.821-1.222.017-1.22.022-1.222.026-1.221.027-1.222.029-1.22 1.098-1.222.022-1.221.293-1.221.026-1.222.027-1.22.026-1.222.292-1.221.288-1.221.55-1.222.01-1.22.01-1.222.008-1.221.272-1.222.268-1.22-.001-1.222-.003-1.221.263-1.221-.016-1.222-.022-1.22.241-1.222-.03-1.221.24-1.221-.027-1.222-.023-1.22-.019-1.222-.02-1.221-.019-1.221-.016-1.222.25-1.22-.02-1.222.25-1.221-.015-1.222-.026-1.22-.035-1.222.226-1.221-.045-1.221-.044-1.222.223-1.22-.04-1.222-.042-1.221-.041-1.221.229-1.222.232-1.22.771-1.222-.026-1.221-.012h-1.222l-1.22.01-1.222.017-1.221.025-1.221.3-1.222.573-1.22.042-1.222.05-1.221.587-1.221.321-1.222.054-1.22.321-1.222 1.653-1.221.037-1.221.04-1.222.041-1.22.04-1.222.305-1.221.032-1.222 1.096-1.22.016-1.222.008-1.221.268-1.221.26-1.222.25-1.22-.023-1.222.51-1.221-.028-1.221-.026-1.222-.024-1.22-.021-1.222-.016-1.221.256-1.222-.006-1.22.003-1.222.009-1.221.283-1.221.021-1.222.292-1.22.292-1.222.024-1.221.017-1.221-.002-1.222-.02-1.22-.035-1.222-.05-1.221.205-1.221.734-1.222-.07-1.22-.066-1.222.478-1.221-.057-1.222-.053-1.22.214-1.222-.052-1.221-.043-1.221-.043-1.222-.042-1.22-.043-1.222-.06-1.221.182-1.221-.115-1.222-.143-1.22-.173-1.222.08-1.221.068-1.222.06-1.22.853-1.222.847-1.221-.221-1.221-.214-1.222.075-1.22-.165-1.222-.14-1.221-.13-1.221-.117-1.222-.108-1.22.702-1.222.689-1.221.652-1.221.354-1.222-.194-1.22 1.13-1.222-.229-1.221.298-1.222 1.632-1.22 1.104-1.222 1.136-1.221.637-1.221 1.22-1.222-.067-1.22.807-1.222 1.413-1.221 1.482-1.221 1.28-1.222 1.344-1.22 1.937-1.222.38-1.221.96-1.222 2.32-1.22 3.127-1.222 1.255-1.221 1.792-1.221 1.24-1.222 3.345-1.22 4.625-1.222 1.894-1.221.8-1.221 2.113-1.222 2.34-1.22 1.503-1.222.675-1.221.925-1.221.37-1.222 1.688-1.22.853-1.222.836-1.221.02-1.222.287-1.22.014-1.222.012-1.221.545H151.194z" id="mdf393f8ce6" style="stroke:#fff;stroke-opacity:.2"/></defs><g clip-path="url(#p588ea1fda2)"><use style="fill:#089fff;fill-opacity:.2;stroke:#fff;stroke-opacity:.2" xlink:href="#mdf393f8ce6" y="648"/></g></g><path clip-path="url(#p588ea1fda2)" d="M149.973 554.04h69.609l1.221-.535h2.442l1.222-.268h1.22l2.443-1.605 1.222-1.606 1.22-.267 1.222-.803 1.221-.535 1.221-1.338 1.222-2.14 1.22-1.873 1.222-.535 1.221-1.606 1.221-4.28 1.222-2.944 1.22-.803 1.222-1.338 1.221-.802 1.221-2.676 1.222-1.873 1.22-.535h1.222l1.221-1.606 2.443-2.14 2.442-2.676 1.221-.802h1.222l1.22-1.338 1.222-.803 2.442-2.676 1.222-1.873 1.22-.535h1.222l1.221-1.338h1.222l1.22-.535 3.664-2.408h6.106l1.222-.267h2.442l2.442-2.14 3.664-.804h3.664l1.221-.267h7.327l1.221-.268h2.443l1.221-.535h2.443l1.22-.803 1.222-.267h7.327l2.443-.535h1.22l1.222-.268h3.664l1.22-.267h6.107l1.221-.536h1.221l3.664-.802h2.442l1.222-1.07h1.22l1.222-.268h4.885l1.221-1.605 1.221-.268h1.222l1.22-.268 1.222-.535h2.442l1.222-.535 1.22-.267h7.328l1.221-.803 2.443-.535h3.663l1.222-.268h2.442l1.221-.267h3.664l1.221-.268h1.221l1.222-.268h7.327l1.221-.267h1.221l1.221-.268h2.443l1.221-.267h2.442l2.443-.535h3.664l1.22-.536 2.443-.535h3.664l1.221-.267h1.221l1.221-1.07h6.107l1.22-.803h6.107l1.221-.268h1.221l1.221-.535 1.222-.267h3.663l1.221-.803h1.222l1.22-.268h13.434l1.221-.535 1.222-.267 1.22-1.338 1.222-2.408 1.221-.535h2.443l1.22-.536 1.222-1.605 1.221-.268 2.443-2.675 2.442-1.606 1.221-.535h1.222l1.22-1.07h4.886l1.22-1.605 1.222-1.07 3.664-4.014h2.442l1.221-3.211 1.222-.268 1.22-1.873 1.222-.802 1.221-1.338h2.443l1.22-5.084 1.222-1.07h1.221l1.222-4.549 1.22-1.873h2.443l1.221-4.28 2.443-6.422 1.221-2.141 1.221-3.746 1.221-1.338h1.222l1.22-3.746 1.222-2.14 1.221-1.606h2.443l1.22-5.351h1.222l1.221-3.746 1.222-1.873 1.22-2.943 1.222-4.281 1.221-6.422 1.221-2.943h1.222l2.442-6.154 1.221-1.338 1.221-4.816 1.222-2.408h2.442l1.221-3.746 1.222-2.408 1.22-1.873h1.222l1.221-4.549h2.443l1.22-7.224 1.222-1.873 1.221-7.224 1.221-1.338h3.664l1.221-8.027 1.221-1.338 1.222-5.084 1.22-2.943h3.665l1.22-8.83 1.222-4.816 3.664-10.97 1.22-2.676h1.222l1.221-5.886 1.221-2.944 1.222-4.013 2.442-5.352h3.664l1.22-5.618 1.222-2.676 1.221-1.07 1.222-.803h2.442l1.221-8.295 1.221-1.07 2.443-3.21 1.221-4.282 1.221-1.338h3.664l1.221-6.956 1.221-2.14 1.222-1.874h2.442l1.221-4.28 1.221-1.874 1.222-1.338 1.22-1.605 1.222-1.338 1.221-1.873h2.443l1.22-3.746 1.222-1.338 1.221-.802 1.222-1.338h1.22l1.222-1.873 1.221-1.07 1.221-1.606 1.222-1.07 1.22-3.479 1.222-2.408h2.442l1.222-4.548 1.22-2.408 1.222-1.606 1.221-.802 1.221-3.746h2.443l1.221-3.746 1.221-1.07 1.222-2.141 1.22-3.211 1.222-1.873h2.442l1.222-6.154 1.22-1.873 1.222-2.14 1.221-.803 1.221-1.338h2.443l1.221-6.422 1.221-1.605 1.222-1.873 1.22-2.14 1.222-1.874h1.221l1.221-2.408 1.222-2.943 1.22-2.14 1.222-.803 1.221-4.816 1.221-2.408h2.443l1.221-4.549 1.221-2.14 2.443-2.141v-2.408l1.22-1.338 1.222-.268h1.221l1.222-2.675 2.442-2.676 1.221-3.21 2.443-2.676h1.22l1.222-.803 1.221-.268 1.221-1.605 1.222-1.873 1.22-1.338h2.443l1.222-1.605 2.442-1.606 1.221-1.07 1.221-2.408 1.222-.268h1.22l1.222-.535 1.221-.267 1.221-1.606 2.443-1.07h2.442l1.221-1.07h1.222l1.22-.268h8.55l1.22-.267h6.107l1.22-.268 1.222-.535h6.106l1.221-.268h6.106l1.222-.802 1.22-.268h18.319l1.221-1.07h6.106l1.222-.268h7.327l2.442-.535h4.885l1.221-.267h0" style="fill:none;stroke:#4c72b0;stroke-linecap:round;stroke-width:1.5" id="line2d_1"/><path d="M117 576.72V77.76" style="fill:none;stroke:#d3d3d3;stroke-linecap:square;stroke-linejoin:miter;stroke-width:1.25" id="patch_3"/><path d="M117 576.72h725.4" style="fill:none;stroke:#d3d3d3;stroke-linecap:square;stroke-linejoin:miter;stroke-width:1.25" id="patch_4"/><g id="matplotlib.axis_1"><g id="xtick_1"><g style="fill:#696969" transform="matrix(.16 0 0 -.16 113.216 598.378)" id="text_1"><defs><path d="M9.813 72.906h9.859V5.078q0-13.187-5-19.14-5-5.954-16.094-5.954h-3.75v8.297h3.078q6.531 0 9.219 3.672Q9.813-4.39 9.813 5.078z" id="DejaVuSans-74"/><path d="M34.281 27.484q-10.89 0-15.093-2.484-4.204-2.484-4.204-8.5 0-4.781 3.157-7.594 3.156-2.797 8.562-2.797 7.485 0 12 5.297 4.516 5.297 4.516 14.078v2zm17.922 3.72V0H43.22v8.297Q40.14 3.328 35.547.953q-4.594-2.375-11.234-2.375-8.391 0-13.36 4.719Q6 8.016 6 15.922q0 9.219 6.172 13.906 6.187 4.688 18.437 4.688h12.61v.89q0 6.203-4.078 9.594-4.078 3.39-11.453 3.39-4.688 0-9.141-1.124-4.438-1.125-8.531-3.375v8.312q4.921 1.906 9.562 2.844 4.64.953 9.031.953 11.875 0 17.735-6.156 5.86-6.14 5.86-18.64z" id="DejaVuSans-97"/><path d="M54.89 33.016V0h-8.984v32.719q0 7.765-3.031 11.61-3.031 3.858-9.078 3.858-7.281 0-11.484-4.64-4.204-4.625-4.204-12.64V0H9.08v54.688h9.03v-8.5q3.235 4.937 7.594 7.374Q30.078 56 35.797 56q9.422 0 14.25-5.828 4.844-5.828 4.844-17.156z" id="DejaVuSans-110"/></defs><use xlink:href="#DejaVuSans-74"/><use x="29.492" xlink:href="#DejaVuSans-97"/><use x="90.771" xlink:href="#DejaVuSans-110"/></g></g><g id="xtick_2"><g style="fill:#696969" transform="matrix(.16 0 0 -.16 183.727 598.378)" id="text_2"><defs><path d="M9.813 72.906h14.703l18.593-49.61 18.703 49.61h14.704V0H66.89v64.016l-18.797-50h-9.907l-18.796 50V0H9.813z" id="DejaVuSans-77"/><path d="M41.11 46.297q-1.516.875-3.297 1.281Q36.03 48 33.89 48q-7.625 0-11.703-4.953-4.079-4.953-4.079-14.234V0H9.08v54.688h9.03v-8.5q2.844 4.984 7.375 7.39Q30.031 56 36.531 56q.922 0 2.047-.125 1.125-.11 2.484-.36z" id="DejaVuSans-114"/></defs><use xlink:href="#DejaVuSans-77"/><use x="86.279" xlink:href="#DejaVuSans-97"/><use x="147.559" xlink:href="#DejaVuSans-114"/></g></g><g id="xtick_3"><g style="fill:#696969" transform="matrix(.16 0 0 -.16 256.775 598.378)" id="text_3"><defs><path d="M32.172-5.078q-3.797-9.766-7.422-12.735-3.61-2.984-9.656-2.984H7.906v7.516h5.282q3.703 0 5.75 1.765Q21-9.766 23.483-3.219l1.61 4.094-22.11 53.813H12.5l17.094-42.766 17.093 42.766h9.516z" id="DejaVuSans-121"/></defs><use xlink:href="#DejaVuSans-77"/><use x="86.279" xlink:href="#DejaVuSans-97"/><use x="147.559" xlink:href="#DejaVuSans-121"/></g></g><g id="xtick_4"><g style="fill:#696969" transform="matrix(.16 0 0 -.16 338.157 598.378)" id="text_4"><defs><path d="M8.5 21.578v33.11h8.984V21.922q0-7.766 3.016-11.656 3.031-3.875 9.094-3.875 7.265 0 11.484 4.64 4.234 4.64 4.234 12.656v31h8.985V0h-8.984v8.406Q42.047 3.422 37.718 1q-4.313-2.422-10.032-2.422-9.421 0-14.312 5.86Q8.5 10.296 8.5 21.578zM31.11 56z" id="DejaVuSans-117"/><path d="M9.422 75.984h8.984V0H9.422z" id="DejaVuSans-108"/></defs><use xlink:href="#DejaVuSans-74"/><use x="29.492" xlink:href="#DejaVuSans-117"/><use x="92.871" xlink:href="#DejaVuSans-108"/></g></g><g id="xtick_5"><g style="fill:#696969" transform="matrix(.16 0 0 -.16 408.444 598.378)" id="text_5"><defs><path d="M53.516 70.516V60.89q-5.61 2.687-10.594 4-4.984 1.328-9.625 1.328-8.047 0-12.422-3.125t-4.375-8.89q0-4.845 2.906-7.313 2.907-2.453 11.016-3.97l5.953-1.218q11.031-2.11 16.281-7.406 5.25-5.297 5.25-14.172 0-10.61-7.11-16.078-7.093-5.469-20.812-5.469-5.172 0-11.015 1.172Q13.14.922 6.89 3.219v10.156q6-3.36 11.765-5.078 5.766-1.703 11.328-1.703 8.438 0 13.032 3.312 4.593 3.328 4.593 9.485 0 5.359-3.297 8.39-3.296 3.032-10.812 4.547L27.484 33.5q-11.03 2.188-15.968 6.875-4.922 4.688-4.922 13.047 0 9.672 6.812 15.234 6.813 5.563 18.766 5.563 5.14 0 10.453-.938 5.328-.922 10.89-2.765z" id="DejaVuSans-83"/><path d="M56.203 29.594v-4.39H14.891q.593-9.282 5.593-14.142 5-4.859 13.938-4.859 5.172 0 10.031 1.266 4.86 1.265 9.656 3.812v-8.5Q49.266.734 44.187-.344 39.11-1.422 33.892-1.422q-13.094 0-20.735 7.61-7.64 7.625-7.64 20.625 0 13.421 7.25 21.296Q20.016 56 32.328 56q11.031 0 17.453-7.11 6.422-7.093 6.422-19.296zm-8.984 2.64q-.094 7.36-4.125 11.75-4.032 4.407-10.672 4.407-7.516 0-12.031-4.25-4.516-4.25-5.203-11.97z" id="DejaVuSans-101"/><path d="M18.11 8.203v-29H9.077v75.484h9.031v-8.296q2.844 4.875 7.157 7.234Q29.594 56 35.594 56q9.968 0 16.187-7.906 6.235-7.907 6.235-20.797T51.78 6.484q-6.218-7.906-16.187-7.906-6 0-10.328 2.375-4.313 2.375-7.157 7.25zm30.578 19.094q0 9.906-4.079 15.547-4.078 5.64-11.203 5.64-7.14 0-11.218-5.64-4.079-5.64-4.079-15.547 0-9.906 4.078-15.547 4.079-5.64 11.22-5.64 7.124 0 11.202 5.64t4.078 15.547z" id="DejaVuSans-112"/></defs><use xlink:href="#DejaVuSans-83"/><use x="63.477" xlink:href="#DejaVuSans-101"/><use x="125" xlink:href="#DejaVuSans-112"/></g></g><g id="xtick_6"><g style="fill:#696969" transform="matrix(.16 0 0 -.16 482.403 598.378)" id="text_6"><defs><path d="M9.813 72.906h13.28l32.329-60.984v60.984h9.562V0h-13.28L19.39 60.984V0H9.813z" id="DejaVuSans-78"/><path d="M30.61 48.39q-7.22 0-11.422-5.64-4.204-5.64-4.204-15.453 0-9.813 4.172-15.453 4.188-5.64 11.453-5.64 7.188 0 11.375 5.655 4.203 5.672 4.203 15.438 0 9.719-4.203 15.406-4.187 5.688-11.375 5.688zm0 7.61q11.718 0 18.406-7.625 6.703-7.61 6.703-21.078 0-13.422-6.703-21.078-6.688-7.64-18.407-7.64-11.765 0-18.437 7.64-6.656 7.656-6.656 21.078 0 13.469 6.656 21.078Q18.844 56 30.609 56z" id="DejaVuSans-111"/><path d="M2.984 54.688H12.5L29.594 8.797l17.093 45.89h9.516L35.687 0H23.485z" id="DejaVuSans-118"/></defs><use xlink:href="#DejaVuSans-78"/><use x="74.805" xlink:href="#DejaVuSans-111"/><use x="135.986" xlink:href="#DejaVuSans-118"/></g></g><g id="xtick_7"><g style="fill:#696969" transform="matrix(.16 0 0 -.16 560.18 598.378)" id="text_7"><use xlink:href="#DejaVuSans-74"/><use x="29.492" xlink:href="#DejaVuSans-97"/><use x="90.771" xlink:href="#DejaVuSans-110"/></g></g><g id="xtick_8"><g style="fill:#696969" transform="matrix(.16 0 0 -.16 629.47 598.378)" id="text_8"><use xlink:href="#DejaVuSans-77"/><use x="86.279" xlink:href="#DejaVuSans-97"/><use x="147.559" xlink:href="#DejaVuSans-114"/></g></g><g id="xtick_9"><g style="fill:#696969" transform="matrix(.16 0 0 -.16 702.518 598.378)" id="text_9"><use xlink:href="#DejaVuSans-77"/><use x="86.279" xlink:href="#DejaVuSans-97"/><use x="147.559" xlink:href="#DejaVuSans-121"/></g></g><g id="xtick_10"><g style="fill:#696969" transform="matrix(.16 0 0 -.16 783.899 598.378)" id="text_10"><use xlink:href="#DejaVuSans-74"/><use x="29.492" xlink:href="#DejaVuSans-117"/><use x="92.871" xlink:href="#DejaVuSans-108"/></g></g></g><g id="matplotlib.axis_2"><g id="ytick_1"><g style="fill:#696969" transform="matrix(.16 0 0 -.16 97.32 560.119)" id="text_11"><defs><path d="M31.781 66.406q-7.61 0-11.453-7.5Q16.5 51.422 16.5 36.375q0-14.984 3.828-22.484 3.844-7.5 11.453-7.5 7.672 0 11.5 7.5 3.844 7.5 3.844 22.484 0 15.047-3.844 22.531-3.828 7.5-11.5 7.5zm0 7.813q12.266 0 18.735-9.703 6.468-9.688 6.468-28.141 0-18.406-6.468-28.11-6.47-9.687-18.735-9.687-12.25 0-18.718 9.688-6.47 9.703-6.47 28.109 0 18.453 6.47 28.14Q19.53 74.22 31.78 74.22z" id="DejaVuSans-48"/></defs><use xlink:href="#DejaVuSans-48"/></g></g><g id="ytick_2"><g style="fill:#696969" transform="matrix(.16 0 0 -.16 76.96 493.227)" id="text_12"><defs><path d="M19.188 8.297h34.421V0H7.33v8.297q5.609 5.812 15.296 15.594 9.703 9.797 12.188 12.64 4.734 5.313 6.609 9 1.89 3.688 1.89 7.25 0 5.813-4.078 9.469-4.078 3.672-10.625 3.672-4.64 0-9.797-1.61-5.14-1.609-11-4.89v9.969Q13.767 71.78 18.938 73q5.188 1.219 9.485 1.219 11.328 0 18.062-5.672 6.735-5.656 6.735-15.125 0-4.5-1.688-8.531-1.672-4.016-6.125-9.485-1.218-1.422-7.765-8.187-6.532-6.766-18.453-18.922z" id="DejaVuSans-50"/><path d="M10.797 72.906h38.719v-8.312H19.828v-17.86q2.14.735 4.281 1.094 2.157.36 4.313.36 12.203 0 19.328-6.688 7.14-6.688 7.14-18.11 0-11.765-7.328-18.296-7.328-6.516-20.656-6.516-4.593 0-9.36.781-4.75.782-9.827 2.344v9.922q4.39-2.39 9.078-3.563 4.687-1.171 9.906-1.171 8.453 0 13.375 4.437 4.938 4.438 4.938 12.063 0 7.609-4.938 12.047-4.922 4.453-13.375 4.453-3.953 0-7.89-.875-3.922-.875-8.016-2.735z" id="DejaVuSans-53"/></defs><use xlink:href="#DejaVuSans-50"/><use x="63.623" xlink:href="#DejaVuSans-53"/><use x="127.246" xlink:href="#DejaVuSans-48"/></g></g><g id="ytick_3"><g style="fill:#696969" transform="matrix(.16 0 0 -.16 76.96 426.335)" id="text_13"><use xlink:href="#DejaVuSans-53"/><use x="63.623" xlink:href="#DejaVuSans-48"/><use x="127.246" xlink:href="#DejaVuSans-48"/></g></g><g id="ytick_4"><g style="fill:#696969" transform="matrix(.16 0 0 -.16 76.96 359.444)" id="text_14"><defs><path d="M8.203 72.906h46.875v-4.203L28.61 0H18.312L43.22 64.594H8.203z" id="DejaVuSans-55"/></defs><use xlink:href="#DejaVuSans-55"/><use x="63.623" xlink:href="#DejaVuSans-53"/><use x="127.246" xlink:href="#DejaVuSans-48"/></g></g><g id="ytick_5"><g style="fill:#696969" transform="matrix(.16 0 0 -.16 66.78 292.552)" id="text_15"><defs><path d="M12.406 8.297h16.11v55.625l-17.532-3.516v8.985l17.438 3.515h9.86V8.296H54.39V0H12.406z" id="DejaVuSans-49"/></defs><use xlink:href="#DejaVuSans-49"/><use x="63.623" xlink:href="#DejaVuSans-48"/><use x="127.246" xlink:href="#DejaVuSans-48"/><use x="190.869" xlink:href="#DejaVuSans-48"/></g></g><g id="ytick_6"><g style="fill:#696969" transform="matrix(.16 0 0 -.16 66.78 225.66)" id="text_16"><use xlink:href="#DejaVuSans-49"/><use x="63.623" xlink:href="#DejaVuSans-50"/><use x="127.246" xlink:href="#DejaVuSans-53"/><use x="190.869" xlink:href="#DejaVuSans-48"/></g></g><g id="ytick_7"><g style="fill:#696969" transform="matrix(.16 0 0 -.16 66.78 158.768)" id="text_17"><use xlink:href="#DejaVuSans-49"/><use x="63.623" xlink:href="#DejaVuSans-53"/><use x="127.246" xlink:href="#DejaVuSans-48"/><use x="190.869" xlink:href="#DejaVuSans-48"/></g></g><g id="ytick_8"><g style="fill:#696969" transform="matrix(.16 0 0 -.16 66.78 91.877)" id="text_18"><use xlink:href="#DejaVuSans-49"/><use x="63.623" xlink:href="#DejaVuSans-55"/><use x="127.246" xlink:href="#DejaVuSans-53"/><use x="190.869" xlink:href="#DejaVuSans-48"/></g></g><g style="fill:#696969" transform="matrix(0 -.2 -.2 0 58.62 379.813)" id="text_19"><defs><path d="M51.125 44H36.922l-4.11-16.313h14.313zm-7.328 27.781-5.078-20.265h14.265L58.11 71.78h7.813L60.89 51.516h15.234V44h-17.14l-4-16.313h15.53V20.22H53.079L48 0h-7.813l5.032 20.219H30.906L25.875 0h-7.86l5.079 20.219H7.719v7.468h17.187L29 44H13.281v7.516h17.625l4.985 20.265z" id="DejaVuSans-35"/><path d="M37.11 75.984V68.5h-8.594q-4.828 0-6.72-1.953-1.874-1.953-1.874-7.031v-4.828h14.797v-6.985H19.922V0H10.89v47.703H2.297v6.984h8.594V58.5q0 9.125 4.25 13.297 4.25 4.187 13.468 4.187z" id="DejaVuSans-102"/><path d="M48.781 52.594v-8.407q-3.812 2.11-7.64 3.157-3.828 1.047-7.735 1.047-8.75 0-13.593-5.547-4.829-5.532-4.829-15.547 0-10.016 4.829-15.563 4.843-5.53 13.593-5.53 3.907 0 7.735 1.046 3.828 1.047 7.64 3.156V2.094Q45.016.344 40.984-.531q-4.015-.89-8.562-.89-12.36 0-19.64 7.765-7.266 7.765-7.266 20.953 0 13.375 7.343 21.031Q20.22 56 33.016 56q4.14 0 8.093-.86 3.953-.843 7.672-2.546z" id="DejaVuSans-99"/><path d="M44.281 53.078v-8.5q-3.797 1.953-7.906 2.922-4.094.984-8.5.984-6.688 0-10.031-2.047-3.344-2.046-3.344-6.156 0-3.125 2.39-4.906 2.391-1.781 9.626-3.39l3.078-.688q9.562-2.047 13.593-5.781 4.032-3.735 4.032-10.422 0-7.625-6.032-12.078-6.03-4.438-16.578-4.438-4.39 0-9.156.86Q10.688.296 5.422 2v9.281q4.984-2.594 9.812-3.89 4.829-1.282 9.579-1.282 6.343 0 9.75 2.172 3.421 2.172 3.421 6.125 0 3.656-2.468 5.61-2.453 1.953-10.813 3.765l-3.125.735q-8.344 1.75-12.062 5.39-3.704 3.64-3.704 9.985 0 7.718 5.47 11.906Q16.75 56 26.811 56q4.97 0 9.36-.734 4.406-.72 8.11-2.188z" id="DejaVuSans-115"/></defs><use xlink:href="#DejaVuSans-35"/><use x="83.789" xlink:href="#DejaVuSans-32"/><use x="115.576" xlink:href="#DejaVuSans-111"/><use x="176.758" xlink:href="#DejaVuSans-102"/><use x="211.963" xlink:href="#DejaVuSans-32"/><use x="243.75" xlink:href="#DejaVuSans-99"/><use x="298.73" xlink:href="#DejaVuSans-97"/><use x="360.01" xlink:href="#DejaVuSans-115"/><use x="412.109" xlink:href="#DejaVuSans-101"/><use x="473.633" xlink:href="#DejaVuSans-115"/></g></g><g style="fill:#696969" transform="matrix(.24 0 0 -.24 306.902 71.76)" id="text_20"><defs><path d="M44.39 34.188q3.172-1.079 6.172-4.594 3-3.516 6.032-9.672L66.609 0H56l-9.313 18.703q-3.624 7.328-7.015 9.719-3.39 2.39-9.25 2.39h-10.75V0h-9.86v72.906h22.266q12.5 0 18.656-5.234 6.157-5.219 6.157-15.766 0-6.89-3.203-11.437-3.204-4.532-9.297-6.282zM19.673 64.797V38.922h12.406q7.125 0 10.766 3.297 3.64 3.297 3.64 9.687 0 6.39-3.64 9.64-3.64 3.25-10.766 3.25z" id="DejaVuSans-82"/><path d="M18.313 70.219V54.688h18.5v-6.985h-18.5V18.016q0-6.688 1.828-8.594 1.828-1.906 7.453-1.906h9.218V0h-9.218q-10.407 0-14.36 3.875-3.953 3.89-3.953 14.14v29.688H2.687v6.984h6.594V70.22z" id="DejaVuSans-116"/><path d="M54.89 33.016V0h-8.984v32.719q0 7.765-3.031 11.61-3.031 3.858-9.078 3.858-7.281 0-11.484-4.64-4.204-4.625-4.204-12.64V0H9.08v75.984h9.03V46.188q3.235 4.937 7.594 7.374Q30.078 56 35.797 56q9.422 0 14.25-5.828 4.844-5.828 4.844-17.156z" id="DejaVuSans-104"/><path d="M45.406 46.39v29.594h8.985V0h-8.985v8.203Q42.578 3.328 38.25.953q-4.313-2.375-10.375-2.375-9.906 0-16.14 7.906-6.22 7.922-6.22 20.813 0 12.89 6.22 20.797Q17.968 56 27.874 56q6.063 0 10.375-2.375 4.328-2.36 7.156-7.234zm-30.61-19.093q0-9.906 4.079-15.547 4.078-5.64 11.203-5.64 7.125 0 11.219 5.64 4.11 5.64 4.11 15.547 0 9.906-4.11 15.547-4.094 5.64-11.219 5.64-7.125 0-11.203-5.64-4.078-5.64-4.078-15.547z" id="DejaVuSans-100"/><path d="M-.297 72.906h61.672v-8.312H35.5V0h-9.906v64.594H-.296z" id="DejaVuSans-84"/><path d="M64.406 67.281v-10.39q-4.984 4.64-10.625 6.922-5.64 2.296-11.984 2.296-12.5 0-19.14-7.64-6.641-7.64-6.641-22.094 0-14.406 6.64-22.047 6.64-7.64 19.14-7.64 6.345 0 11.985 2.296 5.64 2.297 10.625 6.938V5.609Q59.234 2.094 53.437.33q-5.78-1.75-12.218-1.75-16.563 0-26.094 10.124-9.516 10.14-9.516 27.672 0 17.578 9.516 27.703 9.531 10.14 26.094 10.14 6.531 0 12.312-1.734 5.797-1.734 10.875-5.203z" id="DejaVuSans-67"/><path d="M9.422 54.688h8.984V0H9.422zm0 21.296h8.984v-11.39H9.422z" id="DejaVuSans-105"/></defs><use xlink:href="#DejaVuSans-82"/><use x="64.982" xlink:href="#DejaVuSans-117"/><use x="128.361" xlink:href="#DejaVuSans-116"/><use x="167.57" xlink:href="#DejaVuSans-104"/><use x="230.949" xlink:href="#DejaVuSans-101"/><use x="292.473" xlink:href="#DejaVuSans-114"/><use x="333.586" xlink:href="#DejaVuSans-102"/><use x="368.791" xlink:href="#DejaVuSans-111"/><use x="429.973" xlink:href="#DejaVuSans-114"/><use x="469.336" xlink:href="#DejaVuSans-100"/><use x="532.813" xlink:href="#DejaVuSans-32"/><use x="564.6" xlink:href="#DejaVuSans-84"/><use x="608.684" xlink:href="#DejaVuSans-111"/><use x="669.865" xlink:href="#DejaVuSans-116"/><use x="709.074" xlink:href="#DejaVuSans-97"/><use x="770.354" xlink:href="#DejaVuSans-108"/><use x="798.137" xlink:href="#DejaVuSans-32"/><use x="829.924" xlink:href="#DejaVuSans-67"/><use x="899.748" xlink:href="#DejaVuSans-111"/><use x="960.93" xlink:href="#DejaVuSans-118"/><use x="1020.109" xlink:href="#DejaVuSans-105"/><use x="1047.893" xlink:href="#DejaVuSans-100"/><use x="1111.369" xlink:href="#DejaVuSans-32"/><use x="1143.156" xlink:href="#DejaVuSans-67"/><use x="1212.98" xlink:href="#DejaVuSans-97"/><use x="1274.26" xlink:href="#DejaVuSans-115"/><use x="1326.359" xlink:href="#DejaVuSans-101"/><use x="1387.883" xlink:href="#DejaVuSans-115"/></g><g id="legend_1"><path d="M128.2 137.53h144.675q3.2 0 3.2-3.2V88.96q0-3.2-3.2-3.2H128.2q-3.2 0-3.2 3.2v45.37q0 3.2 3.2 3.2z" style="fill:none;opacity:.8;stroke:#ccc;stroke-linejoin:miter" id="patch_5"/><path d="M131.4 98.718h32" style="fill:none;stroke:#4c72b0;stroke-linecap:round;stroke-width:1.5" id="line2d_2"/><g style="fill:#696969" transform="matrix(.16 0 0 -.16 176.2 104.317)" id="text_21"><use xlink:href="#DejaVuSans-84"/><use x="44.084" xlink:href="#DejaVuSans-111"/><use x="105.266" xlink:href="#DejaVuSans-116"/><use x="144.475" xlink:href="#DejaVuSans-97"/><use x="205.754" xlink:href="#DejaVuSans-108"/><use x="233.537" xlink:href="#DejaVuSans-32"/><use x="265.324" xlink:href="#DejaVuSans-67"/><use x="335.148" xlink:href="#DejaVuSans-97"/><use x="396.428" xlink:href="#DejaVuSans-115"/><use x="448.527" xlink:href="#DejaVuSans-101"/><use x="510.051" xlink:href="#DejaVuSans-115"/></g><path d="M131.4 127.802h32v-11.2h-32z" style="fill:#089fff;opacity:.2;stroke:#fff;stroke-linejoin:miter" id="patch_6"/><g style="fill:#696969" transform="matrix(.16 0 0 -.16 176.2 127.802)" id="text_22"><defs><path d="M8.688 72.906h9.921V28.61q0-11.718 4.235-16.875 4.25-5.14 13.781-5.14 9.469 0 13.719 5.14 4.25 5.157 4.25 16.875v44.297H64.5V27.391q0-14.25-7.063-21.532-7.046-7.28-20.812-7.28-13.828 0-20.89 7.28-7.047 7.282-7.047 21.532z" id="DejaVuSans-85"/></defs><use xlink:href="#DejaVuSans-85"/><use x="73.193" xlink:href="#DejaVuSans-110"/><use x="136.572" xlink:href="#DejaVuSans-99"/><use x="191.553" xlink:href="#DejaVuSans-101"/><use x="253.076" xlink:href="#DejaVuSans-114"/><use x="294.189" xlink:href="#DejaVuSans-116"/><use x="333.398" xlink:href="#DejaVuSans-97"/><use x="394.678" xlink:href="#DejaVuSans-105"/><use x="422.461" xlink:href="#DejaVuSans-110"/><use x="485.84" xlink:href="#DejaVuSans-116"/><use x="525.049" xlink:href="#DejaVuSans-121"/></g></g></g></g><defs><clipPath id="p588ea1fda2"><path d="M117 77.76h725.4v498.96H117z"/></clipPath></defs></svg>