<svg height="864" viewBox="0 0 936 648" width="1248" xmlns="http://www.w3.org/2000/svg" xmlns:xlink="http://www.w3.org/1999/xlink"><defs><style>*{stroke-linecap:butt;stroke-linejoin:round}</style></defs><g id="figure_1"><path d="M0 648h936V0H0z" style="fill:#fff" id="patch_1"/><g id="axes_1"><path d="M117 576.72h725.4V77.76H117z" style="fill:none" id="patch_2"/><g id="PolyCollection_1"><defs><path d="M150.928-93.96H204.45l.956-.404.956.009.956.01.955-.191.956.016.956-.593.956-.58.955-1.173.956-.128.956-.523.955-.305.956-.904.956-1.495.956-1.257.955-.21.956-1.014.956-3.033.956-1.957.955-.282.956-.68.956-.27.955-1.715.956-1.098.956-.086.956.293.955-.98.956-.615.956-.662.956-.92.955-.973.956-.615.956-.05.956-1.123.955-.746.956-1.186.956-1.211.955-1.628.956-.596.956-.176.956-1.19.955-.15.956-.552.956-.734.956-.706.955-.696.956-.084.956-.09.956-.1.955-.108.956-.127.956-.355.955-.164.956-.17.956-.997.956-.992.955-.366.956-.36.956-.35.956-.134.955-.11.956-.089.956-.271.955-.047.956-.033.956-.032.956-.033.955-.033.956-.04.956-.248.956-.041.955-.043.956-.457.956-.05.956-.055.955-.671.956-.254.956-.04.955-.027.956-.015.956-.001.956.013.955.018.956-.187.956-.187.956.016.955-.194.956.007.956.002.955-.004.956-.215.956-.013.956-.016.955-.018.956-.02.956-.022.956-.432.955-.018.956-.22.956-.211.956-.206.955.006.956.012.956-.804.955.024.956-.177.956.031.956.032.955.03.956.03.956-1.202.956-.164.955.041.956-.165.956-.371.955.037.956.033.956-.383.956-.181.955.02.956.013.956.007h.956l.955-.01.956-.02.956-.642.956-.234.955-.236.956-.031.956-.033.955-.03.956-.24.956-.035.956-.034.955-.238.956-.027.956-.02.956-.012.955-.22.956-.015.956-.22.956-.012.955-.015.956-.015.956-.015.955-.017.956-.021.956-.228.956-.023.955-.226.956-.017.956-.012.956-.21.955-.002.956-.001.956-.206.955-.203.956.006.956.008.956.008.955-.4.956-.192.956-.187.956.02.955.02.956.02.956-.186.956.018.955-.804.956.022.956.022.955.02.956.016.956.013.956-.604.955.013.956.01.956.006.956.003.955-.002.956-.213.956-.011.955-.425.956-.218.956-.012.956-.013.955-.013.956-.625.956-.005.956-.207h.955l.956.002.956.004.956.004.955.004.956.004.956-.003.955-.01.956-.016.956-.02.956-.026.955-.437.956-.233.956-1.05.956-1.85.955-.375.956.063.956.081.956-.317.955-1.12.956-.077.956-.885.955-.868.956-.443.956-.433.956-.23.955.168.956-.675.956.12.956.092.955.06.956.03.956-1.235.955-.843.956-1.065.956-1.074.956-1.073.955-.04.956-.034.956-2.48.956-.186.955-1.391.956-.55.956-.944.956.098.955.104.956-3.781.956-.671.955.16.956-3.323.956-1.246.956.197.955.18.956-3.119.956-2.284.956-2.271.955-1.433.956-2.644.956-.769.955.264.956-2.622.956-1.39.956-.991.955.207.956.156.956-3.987.956.105.955-2.817.956-1.407.956-2.263.956-3.303.955-4.93.956-2.21.956.092.955-2.161.956-2.344.956-.874.956-3.53.955-1.66.956.194.956.186.956-2.718.955-1.716.956-1.35.956.026.955-3.536.956-.094.956-.149.956-5.742.955-1.646.956-5.757.956-1.193.956-.12.955-.11.956-.09.956-6.22.956-1.014.955-3.83.956-2.124.956.146.955.124.956.092.956-6.705.956-3.604.955-2.76.956-2.955.956-2.327.956-1.899.955.164.956-4.368.956-2.103.956-2.925.955-1.877.956-1.88.956.17.955.147.956.068.956-4.312.956-2.125.955-.969.956-.83.956-.263.956-.3.955-6.716.956-1.164.956-1.597.955-1.613.956-3.639.956-1.306.956-.19.955-.157.956-.145.956-5.458.956-1.708.955-1.469.956-.01.956.004.956-3.289.955-1.431.956-1.035.956-1.262.955-1.086.956-1.51.956-.072.956-.074.955-2.977.956-1.144.956-.75.956-1.168.955-.132.956-1.548.956-.948.955-1.365.956-.954.956-2.792.956-1.959.955-.1.956-.092.956-3.554.956-1.84.955-1.195.956-.56.956-2.802.956.104.955.12.956-2.758.956-.701.955-1.531.956-2.358.956-1.332.956.089.955.06.956-4.67.956-1.38.956-1.593.955-.573.956-.998.956.02.955-.007.956-4.945.956-1.227.956-1.422.955-1.628.956-1.426.956.012.956-1.833.955-2.249.956-1.634.956-.611.956-3.683.955-1.82.956.04.956.036.955-3.467.956-1.604 1.912-3.437v1.903l.955-2.844.956-.172.956.028.956-2.063.955-1.065.956-1.104.956-2.568.956-1.14.955-1.138.956-.102.956-.748.955-.363.956-1.409.956-1.625.956-1.216.955-.178.956-.179.956-1.416.956-.797.955-.787.956-.998.956-2.024.955-.358.956-.12.956-.524.956-.314.955-1.36.956-.522.956-.523.956-.106.955-.096.956-.915.956-.087.956-.291.955-.1.956-.117.956-.134.955-.144.956-.153.956-.154.956-.157.955-.367.956-.169.956-.168.956-.157.955-.147.956-.133.956-.32.955-.503.956-.085.956-.075.956-.06.955-.043.956-.022.956-.217.956-.004h.955l.956.005.956.01.956.006.955-.61.956-.196.956.01.955.01.956.008.956.007.956.006.955.005.956.003h.956l.956-.003.955-.006.956-.01.956-.013.956-.016.955-.016.956-.02.956-.844.955-.015.956-.012.956-.007.956-.002h.955l.956-.199.956.012.956.015.955.018.956.02.956.018.955.013.956-.198.956-.202h.956l.955-.003.956-.007.956-.01.956-.216.955-.42.956-.007.956-.003h.956l.955.002.956.006.956.008.955-.398.956-1.213.956.033.956.037.955-4.442.956-.072.956-.046.956-1.257.955-.819.956.223.956.225.955-1.21.956-.382.956.024.956-.2.955-.023.956.144.956.098.956-2.002.955-.592.956-1.236.956-1.257.956-.45.955-.057.956-.074.956-2.132.955-.474.956-.252.956-.849.956-.01.955.002.956.02.956-.415.956-.842.955-.44.956-1.068.956-.055.955-.07.956-.082.956-1.533.956-1.532.955-1.516.956-.467.956-1.057.956.005.955.035.956.046.956-2.4.956-1.143.955.1.956-.925.956.108.955.104.956-1.764.956-.542.956-.764.955-1.596.956-.778.956.04.956.028.955-2.646.956-.176.956-1.001.956-1.002.955-.588.956.031.956.031.955-.799.956-.606.956-.832.956-.846.955-.862.956-.053.956-.065.956-.891.955-.493.956-1.328.956-.098.955-2.355.956-.075.956-.058.956-.053.955-1.278.956-.442.956-.439.956-.437.955-.02.956-.013.956-1.663.956-.63.955-.222.956-.848.956-.443.955-.036.956-.036.956-.452.956-.249.955-.05.956-.47.956-.273.956-.077.955-.082.956-1.725.956-.885.955-.055.956-.043.956-.458.956-.045.955-.042.956-1.058.956-.43.956-1.852.955.021.956-1.397.956.065.956.082.955-1.148.956-.73.956-.314.955-.52.956-.523.956.087.956.072.955-3.014.956-.949.956-1.35.956.091.955.085.956.077.956.065.955-4.047.956-1.36.956-.324.956-1.547.955-1.735.956.13.956.13.956-2.542.955-1.908.956-2.305.956-1.867.956-1.845.955.22v-9.274l-.955.221-.956 2.277-.956 2.256-.956 2.642-.955 2.215-.956 2.817-.956.13-.956.13-.955 1.976-.956 1.75-.956.501-.956 1.527-.955 4.198-.956.065-.956.077-.955.084-.956.093-.956 1.535-.956 1.113-.955 3.169-.956.073-.956.086-.956.714-.955.717-.956.51-.956.92-.955 1.325-.956.082-.956.066-.956 1.488-.955.02-.956 1.86-.956.394-.956 1.004-.955-.042-.956-.046-.956.367-.956-.043-.955-.055-.956.764-.956 1.573-.955-.082-.956-.076-.956.138-.956.355-.955-.05-.956.163-.956.373-.956-.036-.955-.036-.956.381-.956.801-.955.19-.956.607-.956 1.636-.956-.013-.955-.02-.956.387-.956.386-.956.382-.955 1.196-.956-.053-.956-.058-.956-.075-.955 2.18-.956-.098-.956 1.145-.955.332-.956.759-.956-.066-.956-.053-.955.787-.956.803-.956.817-.956.631-.955.85-.956.031-.956.031-.955.65-.956 1.058-.956 1.06-.956.237-.955 2.714-.956.028-.956.04-.956.87-.955 1.702-.956.886-.956.694-.956 1.948-.955.103-.956.108-.956 1.137-.955.1-.956 1.331-.956 2.546-.956.046-.955.036-.956.004-.956 1.005-.956.358-.955 1.369-.956 1.354-.956 1.353-.956-.082-.955-.07-.956-.055-.956.993-.955.385-.956.807-.956.41-.956.02-.955.002-.956-.01-.956.8-.956.16-.955.35-.956 1.99-.956-.073-.955-.056-.956.374-.956 1.216-.956 1.238-.955.645-.956 2.12-.956.098-.956.145-.955.388-.956.625-.956.436-.956.855-.955 1.677-.956.224-.956.223-.955 1.242-.956 1.63-.956.365-.956.341-.955 4.628-.956.037-.956.033-.956 1.26-.955.427-.956.008-.956.006-.955.002h-.956l-.956-.003-.956-.006-.955.404-.956.195-.956-.01-.956-.006-.955-.003h-.956l-.956.21-.956.214-.955.013-.956.018-.956.02-.955.019-.956.015-.956.011-.956.213-.955.001-.956-.002-.956-.007-.956-.012-.955-.015-.956.806-.956-.02-.955-.018-.956-.015-.956-.013-.956-.01-.955-.006-.956-.003h-.956l-.956.003-.955.005-.956.006-.956.007-.956.008-.955.01-.956.01-.956.216-.955.627-.956.006-.956.01-.956.004h-.955l-.956-.003-.956.195-.956-.022-.955-.043-.956-.06-.956-.075-.956-.085-.955.322-.956.092-.956-.133-.955-.147-.956-.158-.956-.167-.956-.169-.955.045-.956-.157-.956-.154-.956-.153-.955-.144-.956-.134-.956-.116-.955-.1-.956.12-.956-.087-.956.735-.955-.096-.956-.107-.956.302-.956.303-.955 1.113-.956.098-.956.302-.956-.121-.955.055-.956 1.686-.956.65-.955.45-.956.44-.956 1.058-.956-.179-.955-.178-.956.845-.956 1.261-.956 1.065-.955.05-.956.489-.956-.103-.955.923-.956.922-.956 2.38-.956.956-.955.997-.956 2.06-.956.027-.956.24-.955 2.928v-1.807l-1.912 3.572-.956 1.693-.955 3.542-.956.037-.956.039-.955 1.891-.956 3.738-.956.625-.956 1.665-.955 2.286-.956 1.877-.956.012-.956 1.46-.955 1.67-.956 1.464-.956 1.247-.956 4.95-.955-.007-.956.02-.956 1.062-.955.664-.956 1.706-.956 1.506-.956 4.811-.955.06-.956.09-.956 1.554-.956 2.59-.955 1.766-.956.948-.956 3.014-.955.12-.956.104-.956 2.97-.956.676-.955 1.28-.956 1.87-.956 3.454-.956-.092-.955-.1-.956 1.751-.956 2.568-.956.695-.955 1.108-.956.702-.956 1.338-.955-.132-.956.894-.956.486-.956.917-.955 2.795-.956-.074-.956-.073-.956 1.377-.955.975-.956 1.211-.956 1.027-.955 1.455-.956 3.307-.956.004-.956-.01-.955 1.418-.956 1.59-.956 5.26-.956-.145-.955-.157-.956-.19-.956.756-.956 2.957-.955.861-.956.876-.956.486-.955 6.064-.956-.3-.956-.264-.956.408-.955.68-.956 1.997-.956 4.346-.956.068-.955.147-.956.17-.956 2.243-.955 2.245-.956 3.26-.956 2.432-.956 4.702-.955.163-.956 2.224-.956 2.62-.956 3.23-.955 3.011-.956 3.817-.956 6.9-.956.093-.955.123-.956.147-.956 2.41-.955 4.004-.956 1.047-.956 6.148-.956-.09-.955-.11-.956-.12-.956.868-.956 5.375-.955 1.24-.956 5.389-.956-.149-.956-.094-.955 3.472-.956.026-.956 1.536-.955 1.994-.956 3.054-.956.186-.956.193-.955 2.051-.956 3.892-.956 1.187-.956 2.604-.955 2.373-.956.092-.956 2.324-.955 4.966-.956 3.293-.956 2.273-.956 1.478-.955 2.954-.956.106-.956 4.258-.956.156-.955.207-.956 1.483-.956 1.908-.956 3.15-.955.263-.956 1.293-.956 3.128-.955 1.865-.956 2.676-.956 2.664-.956 3.476-.955.18-.956.198-.956 1.64-.956 3.686-.955.16-.956.978-.956 4.052-.955.103-.956.099-.956 1.117-.956.687-.955 1.494-.956.227-.956 2.467-.956-.034-.955-.04-.956.988-.956.988-.956.996-.955.806-.956 1.24-.956.028-.955.06-.956.092-.956.121-.956.974-.955.168-.956.594-.956.804-.956.794-.955 1.194-.956 1.176-.956.336-.955 1.353-.956.507-.956.081-.956.064-.955.45-.956 1.86-.956 1.01-.956.18-.955.388-.956-.026-.956-.02-.956-.016-.955-.01-.956-.003-.956.003-.955.004-.956.005-.956.003-.956.002h-.955l-.956.205-.956-.004-.956.612-.955-.013-.956-.013-.956-.013-.956.195-.955.4-.956-.012-.956.2-.955-.002-.956.002-.956.007-.956.01-.955.012-.956.633-.956.013-.956.017-.955.02-.956.021-.956.022-.955.846-.956.018-.956.225-.956.02-.955.02-.956.02-.956.226-.956.221-.955.424-.956.008-.956.008-.956.006-.955.21-.956.206-.956-.001-.955-.002-.956.202-.956-.012-.956-.017-.955.186-.956-.023-.956.184-.956-.02-.955-.018-.956-.014-.956-.016-.955-.014-.956-.013-.956.192-.956-.015-.955.193-.956-.012-.956-.02-.956-.027-.955.174-.956-.034-.956-.035-.956.173-.955-.03-.956-.033-.956-.032-.955.176-.956.179-.956.594-.956-.02-.955-.009h-.956l-.956.007-.956.013-.955.02-.956.23-.956.442-.956.033-.955.038-.956.453-.956.247-.955.042-.956.247-.956 1.273-.956.028-.955.031-.956.032-.956.031-.956.235-.955.024-.956.845-.956.012-.955.007-.956.206-.956.2-.956.193-.955-.018-.956.393-.956-.022-.956-.02-.955-.018-.956-.016-.956-.013-.956.197-.955-.004-.956.002-.956.007-.955.218-.956.017-.956.225-.956.225-.955.018-.956.013-.956-.001-.956-.015-.955-.028-.956-.04-.956.16-.955.565-.956-.054-.956-.05-.956.367-.955-.043-.956-.042-.956.166-.956-.04-.955-.034-.956-.033-.956-.032-.956-.034-.955-.046-.956.141-.956-.09-.955-.11-.956-.132-.956.06-.956.054-.955.046-.956.657-.956.653-.956-.171-.955-.164-.956.057-.956-.127-.955-.108-.956-.1-.956-.09-.956-.083-.955.54-.956.531-.956.502-.956.274-.955-.15-.956.87-.956-.176-.956.23-.955 1.257-.956.85-.956.875-.955.491-.956.94-.956-.051-.956.622-.955 1.088-.956 1.141-.956.987-.956 1.036-.955 1.492-.956.293-.956.74-.956 1.787-.955 2.408-.956.967-.956 1.38-.955.956-.956 2.577-.956 3.563-.956 1.46-.955.615-.956 1.629-.956 1.803-.956 1.157-.955.52-.956.713-.956.285-.955 1.3-.956.658-.956.643-.956.017-.955.22-.956.01-.956.01-.956.42H150.928z" id="me3f78b940b" style="stroke:#fff;stroke-opacity:.2"/></defs><g clip-path="url(#p5a5572fd28)"><use style="fill:#089fff;fill-opacity:.2;stroke:#fff;stroke-opacity:.2" xlink:href="#me3f78b940b" y="648"/></g></g><path clip-path="url(#p5a5572fd28)" d="M149.973 554.04h54.476l.956-.412h1.912l.955-.206h.956l1.912-1.237.955-1.237.956-.206.956-.619.955-.412.956-1.03 1.912-3.093.955-.412.956-1.237.956-3.298.956-2.267.955-.619.956-1.03.956-.619.955-2.061.956-1.443.956-.412h.956l.955-1.237 1.912-1.65 1.911-2.06.956-.619h.956l.956-1.03.955-.62 1.912-2.06.955-1.443.956-.413h.956l.956-1.03h.955l.956-.413 2.867-1.855h4.779l.956-.206h1.911l1.912-1.649 2.867-.618h2.867l.956-.207h5.734l.956-.206h1.911l.956-.412h1.912l.955-.618.956-.207h5.734l1.912-.412h.956l.955-.206h2.867l.956-.206h4.779l.956-.412h.955l2.868-.619h1.911l.956-.824h.955l.956-.206h3.823l.956-1.237.956-.206h.955l.956-.206.956-.413h1.911l.956-.412.956-.206h5.734l.956-.619 1.911-.412h2.867l.956-.206h1.912l.955-.206h2.868l.955-.206h.956l.956-.206h5.734l.956-.207h.956l.955-.206h1.912l.956-.206h1.911l1.911-.412h2.868l.955-.412 1.912-.413h2.867l.956-.206h.956l.955-.824h4.779l.956-.619h4.778l.956-.206h.956l.955-.412.956-.206h2.867l.956-.619h.956l.956-.206h10.513l.955-.412.956-.206.956-1.03.956-1.856.955-.412h1.912l.956-.413.955-1.236.956-.207 1.911-2.06 1.912-1.238.956-.412h.955l.956-.825h3.823l.956-1.236.955-.825 2.868-3.092h1.911l.956-2.474.956-.206.955-1.443.956-.618.956-1.03h1.911l.956-3.917.956-.825h.955l.956-3.504.956-1.443h1.911l.956-3.298 1.912-4.947.955-1.65.956-2.885.956-1.031h.955l.956-2.886.956-1.65.956-1.236h1.911l.956-4.123h.956l.955-2.886.956-1.442.956-2.268.956-3.298.955-4.947.956-2.268h.956l1.911-4.741.956-1.03.956-3.711.955-1.855h1.912l.956-2.886.955-1.855.956-1.443h.956l.955-3.505h1.912l.956-5.565.955-1.443.956-5.566.956-1.03h2.867l.956-6.185.956-1.03.955-3.917.956-2.267h2.867l.956-6.803.956-3.71 2.867-8.452.956-2.061h.955l.956-4.535.956-2.268.956-3.092 1.911-4.122h2.867l.956-4.33.956-2.06.955-.825.956-.619h1.912l.955-6.39.956-.824 1.911-2.474.956-3.298.956-1.03h2.867l.956-5.36 1.911-3.092h1.912l.956-3.298.955-1.443.956-1.031.956-1.237.955-1.03.956-1.444h1.912l.955-2.885.956-1.031.956-.618.956-1.031h.955l.956-1.443.956-.825.955-1.236.956-.825.956-2.68.956-1.855h1.911l.956-3.504.956-1.855.955-1.237.956-.619.956-2.886h1.911l.956-2.885.956-.825.955-1.65.956-2.473.956-1.443h1.911l.956-4.74.956-1.444.956-1.649.955-.618.956-1.03h1.911l.956-4.948.956-1.237.956-1.443 1.911-3.092h.956l.956-1.855.955-2.268.956-1.649.956-.618.956-3.71.955-1.856h1.912l.955-3.504 2.868-5.153v1.855l.955-2.886.956-.206h.956l.956-2.062 1.911-2.061.956-2.474 1.911-2.061h.956l.956-.618.955-.207.956-1.236.956-1.443.956-1.031h1.911l.956-1.237 1.911-1.237.956-.824.956-1.855.955-.206h.956l.956-.413.956-.206.955-1.237 1.912-.824h1.911l.956-.825h.956l.956-.206h6.69l.955-.206h4.779l.956-.206.955-.412h4.78l.955-.207h4.779l.955-.618.956-.206h14.336l.956-.825h4.778l.956-.206h5.734l1.912-.412h3.823l.956-.206.955-.412h5.735l.955-.413.956-1.237h1.912l.955-4.535 1.912-.412.956-1.443.955-1.03h1.912l.955-1.443.956-.619.956-.206.956-.412.955-.206h1.912l.956-2.062.955-.618 1.912-2.474.956-.412h1.911l.956-2.061.955-.413.956-.206.956-.824h2.867l.956-.413.956-.824.955-.412.956-1.031h2.867l2.867-4.329.956-.412.956-1.03h2.867l.956-2.474.956-1.237h.955l.956-1.03h1.911l.956-1.856.956-.619.956-.824.955-1.65.956-.824h1.912l.955-2.68.956-.206 1.912-2.061.955-.618h1.912l.955-.825.956-.618 2.867-2.474h1.912l.956-.824.955-.413.956-1.237h.956l.955-2.267h2.868l.955-1.237 2.868-1.237h1.911l.956-1.649.956-.618.955-.206.956-.825.956-.412h1.911l.956-.412.956-.207h.955l.956-.412.956-.206h1.911l.956-1.649.956-.825h1.911l.956-.412h1.911l.956-1.03.956-.413.956-1.855h.955l.956-1.443h1.912l.955-1.237.956-.824.956-.413 1.911-1.236h1.912l.955-3.092.956-1.031.956-1.443h3.823l.955-4.123.956-1.443.956-.412 1.911-3.504h1.912l.956-2.68.955-2.061.956-2.474 1.912-4.123h.955" style="fill:none;stroke:#4c72b0;stroke-linecap:round;stroke-width:1.5" id="line2d_1"/><path d="M117 576.72V77.76" style="fill:none;stroke:#d3d3d3;stroke-linecap:square;stroke-linejoin:miter;stroke-width:1.25" id="patch_3"/><path d="M117 576.72h725.4" style="fill:none;stroke:#d3d3d3;stroke-linecap:square;stroke-linejoin:miter;stroke-width:1.25" id="patch_4"/><g id="matplotlib.axis_1"><g id="xtick_1"><g style="fill:#696969" transform="matrix(.16 0 0 -.16 118.526 598.378)" id="text_1"><defs><path d="M9.813 72.906h9.859V5.078q0-13.187-5-19.14-5-5.954-16.094-5.954h-3.75v8.297h3.078q6.531 0 9.219 3.672Q9.813-4.39 9.813 5.078z" id="DejaVuSans-74"/><path d="M34.281 27.484q-10.89 0-15.093-2.484-4.204-2.484-4.204-8.5 0-4.781 3.157-7.594 3.156-2.797 8.562-2.797 7.485 0 12 5.297 4.516 5.297 4.516 14.078v2zm17.922 3.72V0H43.22v8.297Q40.14 3.328 35.547.953q-4.594-2.375-11.234-2.375-8.391 0-13.36 4.719Q6 8.016 6 15.922q0 9.219 6.172 13.906 6.187 4.688 18.437 4.688h12.61v.89q0 6.203-4.078 9.594-4.078 3.39-11.453 3.39-4.688 0-9.141-1.124-4.438-1.125-8.531-3.375v8.312q4.921 1.906 9.562 2.844 4.64.953 9.031.953 11.875 0 17.735-6.156 5.86-6.14 5.86-18.64z" id="DejaVuSans-97"/><path d="M54.89 33.016V0h-8.984v32.719q0 7.765-3.031 11.61-3.031 3.858-9.078 3.858-7.281 0-11.484-4.64-4.204-4.625-4.204-12.64V0H9.08v54.688h9.03v-8.5q3.235 4.937 7.594 7.374Q30.078 56 35.797 56q9.422 0 14.25-5.828 4.844-5.828 4.844-17.156z" id="DejaVuSans-110"/></defs><use xlink:href="#DejaVuSans-74"/><use x="29.492" xlink:href="#DejaVuSans-97"/><use x="90.771" xlink:href="#DejaVuSans-110"/></g></g><g id="xtick_2"><g style="fill:#696969" transform="matrix(.16 0 0 -.16 203.99 598.378)" id="text_2"><defs><path d="M34.188 63.188 20.797 26.906h26.812zm-5.579 9.718h11.188L67.578 0h-10.25l-6.64 18.703h-32.86L11.188 0H.78z" id="DejaVuSans-65"/><path d="M18.11 8.203v-29H9.077v75.484h9.031v-8.296q2.844 4.875 7.157 7.234Q29.594 56 35.594 56q9.968 0 16.187-7.906 6.235-7.907 6.235-20.797T51.78 6.484q-6.218-7.906-16.187-7.906-6 0-10.328 2.375-4.313 2.375-7.157 7.25zm30.578 19.094q0 9.906-4.079 15.547-4.078 5.64-11.203 5.64-7.14 0-11.218-5.64-4.079-5.64-4.079-15.547 0-9.906 4.078-15.547 4.079-5.64 11.22-5.64 7.124 0 11.202 5.64t4.078 15.547z" id="DejaVuSans-112"/><path d="M41.11 46.297q-1.516.875-3.297 1.281Q36.03 48 33.89 48q-7.625 0-11.703-4.953-4.079-4.953-4.079-14.234V0H9.08v54.688h9.03v-8.5q2.844 4.984 7.375 7.39Q30.031 56 36.531 56q.922 0 2.047-.125 1.125-.11 2.484-.36z" id="DejaVuSans-114"/></defs><use xlink:href="#DejaVuSans-65"/><use x="68.408" xlink:href="#DejaVuSans-112"/><use x="131.885" xlink:href="#DejaVuSans-114"/></g></g><g id="xtick_3"><g style="fill:#696969" transform="matrix(.16 0 0 -.16 295.149 598.378)" id="text_3"><defs><path d="M8.5 21.578v33.11h8.984V21.922q0-7.766 3.016-11.656 3.031-3.875 9.094-3.875 7.265 0 11.484 4.64 4.234 4.64 4.234 12.656v31h8.985V0h-8.984v8.406Q42.047 3.422 37.718 1q-4.313-2.422-10.032-2.422-9.421 0-14.312 5.86Q8.5 10.296 8.5 21.578zM31.11 56z" id="DejaVuSans-117"/><path d="M9.422 75.984h8.984V0H9.422z" id="DejaVuSans-108"/></defs><use xlink:href="#DejaVuSans-74"/><use x="29.492" xlink:href="#DejaVuSans-117"/><use x="92.871" xlink:href="#DejaVuSans-108"/></g></g><g id="xtick_4"><g style="fill:#696969" transform="matrix(.16 0 0 -.16 378.896 598.378)" id="text_4"><defs><path d="M39.406 66.219q-10.75 0-17.078-8.016-6.312-8-6.312-21.828 0-13.766 6.312-21.781 6.328-8 17.078-8 10.735 0 17.016 8 6.281 8.015 6.281 21.781 0 13.828-6.281 21.828-6.281 8.016-17.016 8.016zm0 8q15.328 0 24.5-10.281 9.188-10.282 9.188-27.563 0-17.234-9.188-27.516-9.172-10.28-24.5-10.28-15.375 0-24.593 10.25-9.204 10.265-9.204 27.546t9.204 27.563q9.218 10.28 24.593 10.28z" id="DejaVuSans-79"/><path d="M48.781 52.594v-8.407q-3.812 2.11-7.64 3.157-3.828 1.047-7.735 1.047-8.75 0-13.593-5.547-4.829-5.532-4.829-15.547 0-10.016 4.829-15.563 4.843-5.53 13.593-5.53 3.907 0 7.735 1.046 3.828 1.047 7.64 3.156V2.094Q45.016.344 40.984-.531q-4.015-.89-8.562-.89-12.36 0-19.64 7.765-7.266 7.765-7.266 20.953 0 13.375 7.343 21.031Q20.22 56 33.016 56q4.14 0 8.093-.86 3.953-.843 7.672-2.546z" id="DejaVuSans-99"/><path d="M18.313 70.219V54.688h18.5v-6.985h-18.5V18.016q0-6.688 1.828-8.594 1.828-1.906 7.453-1.906h9.218V0h-9.218q-10.407 0-14.36 3.875-3.953 3.89-3.953 14.14v29.688H2.687v6.984h6.594V70.22z" id="DejaVuSans-116"/></defs><use xlink:href="#DejaVuSans-79"/><use x="78.711" xlink:href="#DejaVuSans-99"/><use x="133.691" xlink:href="#DejaVuSans-116"/></g></g><g id="xtick_5"><g style="fill:#696969" transform="matrix(.16 0 0 -.16 468.323 598.378)" id="text_5"><use xlink:href="#DejaVuSans-74"/><use x="29.492" xlink:href="#DejaVuSans-97"/><use x="90.771" xlink:href="#DejaVuSans-110"/></g></g><g id="xtick_6"><g style="fill:#696969" transform="matrix(.16 0 0 -.16 552.832 598.378)" id="text_6"><use xlink:href="#DejaVuSans-65"/><use x="68.408" xlink:href="#DejaVuSans-112"/><use x="131.885" xlink:href="#DejaVuSans-114"/></g></g><g id="xtick_7"><g style="fill:#696969" transform="matrix(.16 0 0 -.16 643.99 598.378)" id="text_7"><use xlink:href="#DejaVuSans-74"/><use x="29.492" xlink:href="#DejaVuSans-117"/><use x="92.871" xlink:href="#DejaVuSans-108"/></g></g><g id="xtick_8"><g style="fill:#696969" transform="matrix(.16 0 0 -.16 727.738 598.378)" id="text_8"><use xlink:href="#DejaVuSans-79"/><use x="78.711" xlink:href="#DejaVuSans-99"/><use x="133.691" xlink:href="#DejaVuSans-116"/></g></g><g id="xtick_9"><g style="fill:#696969" transform="matrix(.16 0 0 -.16 817.165 598.378)" id="text_9"><use xlink:href="#DejaVuSans-74"/><use x="29.492" xlink:href="#DejaVuSans-97"/><use x="90.771" xlink:href="#DejaVuSans-110"/></g></g></g><g id="matplotlib.axis_2"><g id="ytick_1"><g style="fill:#696969" transform="matrix(.16 0 0 -.16 97.32 560.119)" id="text_10"><defs><path d="M31.781 66.406q-7.61 0-11.453-7.5Q16.5 51.422 16.5 36.375q0-14.984 3.828-22.484 3.844-7.5 11.453-7.5 7.672 0 11.5 7.5 3.844 7.5 3.844 22.484 0 15.047-3.844 22.531-3.828 7.5-11.5 7.5zm0 7.813q12.266 0 18.735-9.703 6.468-9.688 6.468-28.141 0-18.406-6.468-28.11-6.47-9.687-18.735-9.687-12.25 0-18.718 9.688-6.47 9.703-6.47 28.109 0 18.453 6.47 28.14Q19.53 74.22 31.78 74.22z" id="DejaVuSans-48"/></defs><use xlink:href="#DejaVuSans-48"/></g></g><g id="ytick_2"><g style="fill:#696969" transform="matrix(.16 0 0 -.16 76.96 457.051)" id="text_11"><defs><path d="M10.797 72.906h38.719v-8.312H19.828v-17.86q2.14.735 4.281 1.094 2.157.36 4.313.36 12.203 0 19.328-6.688 7.14-6.688 7.14-18.11 0-11.765-7.328-18.296-7.328-6.516-20.656-6.516-4.593 0-9.36.781-4.75.782-9.827 2.344v9.922q4.39-2.39 9.078-3.563 4.687-1.171 9.906-1.171 8.453 0 13.375 4.437 4.938 4.438 4.938 12.063 0 7.609-4.938 12.047-4.922 4.453-13.375 4.453-3.953 0-7.89-.875-3.922-.875-8.016-2.735z" id="DejaVuSans-53"/></defs><use xlink:href="#DejaVuSans-53"/><use x="63.623" xlink:href="#DejaVuSans-48"/><use x="127.246" xlink:href="#DejaVuSans-48"/></g></g><g id="ytick_3"><g style="fill:#696969" transform="matrix(.16 0 0 -.16 66.78 353.983)" id="text_12"><defs><path d="M12.406 8.297h16.11v55.625l-17.532-3.516v8.985l17.438 3.515h9.86V8.296H54.39V0H12.406z" id="DejaVuSans-49"/></defs><use xlink:href="#DejaVuSans-49"/><use x="63.623" xlink:href="#DejaVuSans-48"/><use x="127.246" xlink:href="#DejaVuSans-48"/><use x="190.869" xlink:href="#DejaVuSans-48"/></g></g><g id="ytick_4"><g style="fill:#696969" transform="matrix(.16 0 0 -.16 66.78 250.916)" id="text_13"><use xlink:href="#DejaVuSans-49"/><use x="63.623" xlink:href="#DejaVuSans-53"/><use x="127.246" xlink:href="#DejaVuSans-48"/><use x="190.869" xlink:href="#DejaVuSans-48"/></g></g><g id="ytick_5"><g style="fill:#696969" transform="matrix(.16 0 0 -.16 66.78 147.848)" id="text_14"><defs><path d="M19.188 8.297h34.421V0H7.33v8.297q5.609 5.812 15.296 15.594 9.703 9.797 12.188 12.64 4.734 5.313 6.609 9 1.89 3.688 1.89 7.25 0 5.813-4.078 9.469-4.078 3.672-10.625 3.672-4.64 0-9.797-1.61-5.14-1.609-11-4.89v9.969Q13.767 71.78 18.938 73q5.188 1.219 9.485 1.219 11.328 0 18.062-5.672 6.735-5.656 6.735-15.125 0-4.5-1.688-8.531-1.672-4.016-6.125-9.485-1.218-1.422-7.765-8.187-6.532-6.766-18.453-18.922z" id="DejaVuSans-50"/></defs><use xlink:href="#DejaVuSans-50"/><use x="63.623" xlink:href="#DejaVuSans-48"/><use x="127.246" xlink:href="#DejaVuSans-48"/><use x="190.869" xlink:href="#DejaVuSans-48"/></g></g><g style="fill:#696969" transform="matrix(0 -.2 -.2 0 58.62 379.813)" id="text_15"><defs><path d="M51.125 44H36.922l-4.11-16.313h14.313zm-7.328 27.781-5.078-20.265h14.265L58.11 71.78h7.813L60.89 51.516h15.234V44h-17.14l-4-16.313h15.53V20.22H53.079L48 0h-7.813l5.032 20.219H30.906L25.875 0h-7.86l5.079 20.219H7.719v7.468h17.187L29 44H13.281v7.516h17.625l4.985 20.265z" id="DejaVuSans-35"/><path d="M30.61 48.39q-7.22 0-11.422-5.64-4.204-5.64-4.204-15.453 0-9.813 4.172-15.453 4.188-5.64 11.453-5.64 7.188 0 11.375 5.655 4.203 5.672 4.203 15.438 0 9.719-4.203 15.406-4.187 5.688-11.375 5.688zm0 7.61q11.718 0 18.406-7.625 6.703-7.61 6.703-21.078 0-13.422-6.703-21.078-6.688-7.64-18.407-7.64-11.765 0-18.437 7.64-6.656 7.656-6.656 21.078 0 13.469 6.656 21.078Q18.844 56 30.609 56z" id="DejaVuSans-111"/><path d="M37.11 75.984V68.5h-8.594q-4.828 0-6.72-1.953-1.874-1.953-1.874-7.031v-4.828h14.797v-6.985H19.922V0H10.89v47.703H2.297v6.984h8.594V58.5q0 9.125 4.25 13.297 4.25 4.187 13.468 4.187z" id="DejaVuSans-102"/><path d="M44.281 53.078v-8.5q-3.797 1.953-7.906 2.922-4.094.984-8.5.984-6.688 0-10.031-2.047-3.344-2.046-3.344-6.156 0-3.125 2.39-4.906 2.391-1.781 9.626-3.39l3.078-.688q9.562-2.047 13.593-5.781 4.032-3.735 4.032-10.422 0-7.625-6.032-12.078-6.03-4.438-16.578-4.438-4.39 0-9.156.86Q10.688.296 5.422 2v9.281q4.984-2.594 9.812-3.89 4.829-1.282 9.579-1.282 6.343 0 9.75 2.172 3.421 2.172 3.421 6.125 0 3.656-2.468 5.61-2.453 1.953-10.813 3.765l-3.125.735q-8.344 1.75-12.062 5.39-3.704 3.64-3.704 9.985 0 7.718 5.47 11.906Q16.75 56 26.811 56q4.97 0 9.36-.734 4.406-.72 8.11-2.188z" id="DejaVuSans-115"/><path d="M56.203 29.594v-4.39H14.891q.593-9.282 5.593-14.142 5-4.859 13.938-4.859 5.172 0 10.031 1.266 4.86 1.265 9.656 3.812v-8.5Q49.266.734 44.187-.344 39.11-1.422 33.892-1.422q-13.094 0-20.735 7.61-7.64 7.625-7.64 20.625 0 13.421 7.25 21.296Q20.016 56 32.328 56q11.031 0 17.453-7.11 6.422-7.093 6.422-19.296zm-8.984 2.64q-.094 7.36-4.125 11.75-4.032 4.407-10.672 4.407-7.516 0-12.031-4.25-4.516-4.25-5.203-11.97z" id="DejaVuSans-101"/></defs><use xlink:href="#DejaVuSans-35"/><use x="83.789" xlink:href="#DejaVuSans-32"/><use x="115.576" xlink:href="#DejaVuSans-111"/><use x="176.758" xlink:href="#DejaVuSans-102"/><use x="211.963" xlink:href="#DejaVuSans-32"/><use x="243.75" xlink:href="#DejaVuSans-99"/><use x="298.73" xlink:href="#DejaVuSans-97"/><use x="360.01" xlink:href="#DejaVuSans-115"/><use x="412.109" xlink:href="#DejaVuSans-101"/><use x="473.633" xlink:href="#DejaVuSans-115"/></g></g><g style="fill:#696969" transform="matrix(.24 0 0 -.24 306.902 71.76)" id="text_16"><defs><path d="M44.39 34.188q3.172-1.079 6.172-4.594 3-3.516 6.032-9.672L66.609 0H56l-9.313 18.703q-3.624 7.328-7.015 9.719-3.39 2.39-9.25 2.39h-10.75V0h-9.86v72.906h22.266q12.5 0 18.656-5.234 6.157-5.219 6.157-15.766 0-6.89-3.203-11.437-3.204-4.532-9.297-6.282zM19.673 64.797V38.922h12.406q7.125 0 10.766 3.297 3.64 3.297 3.64 9.687 0 6.39-3.64 9.64-3.64 3.25-10.766 3.25z" id="DejaVuSans-82"/><path d="M54.89 33.016V0h-8.984v32.719q0 7.765-3.031 11.61-3.031 3.858-9.078 3.858-7.281 0-11.484-4.64-4.204-4.625-4.204-12.64V0H9.08v75.984h9.03V46.188q3.235 4.937 7.594 7.374Q30.078 56 35.797 56q9.422 0 14.25-5.828 4.844-5.828 4.844-17.156z" id="DejaVuSans-104"/><path d="M45.406 46.39v29.594h8.985V0h-8.985v8.203Q42.578 3.328 38.25.953q-4.313-2.375-10.375-2.375-9.906 0-16.14 7.906-6.22 7.922-6.22 20.813 0 12.89 6.22 20.797Q17.968 56 27.874 56q6.063 0 10.375-2.375 4.328-2.36 7.156-7.234zm-30.61-19.093q0-9.906 4.079-15.547 4.078-5.64 11.203-5.64 7.125 0 11.219 5.64 4.11 5.64 4.11 15.547 0 9.906-4.11 15.547-4.094 5.64-11.219 5.64-7.125 0-11.203-5.64-4.078-5.64-4.078-15.547z" id="DejaVuSans-100"/><path d="M-.297 72.906h61.672v-8.312H35.5V0h-9.906v64.594H-.296z" id="DejaVuSans-84"/><path d="M64.406 67.281v-10.39q-4.984 4.64-10.625 6.922-5.64 2.296-11.984 2.296-12.5 0-19.14-7.64-6.641-7.64-6.641-22.094 0-14.406 6.64-22.047 6.64-7.64 19.14-7.64 6.345 0 11.985 2.296 5.64 2.297 10.625 6.938V5.609Q59.234 2.094 53.437.33q-5.78-1.75-12.218-1.75-16.563 0-26.094 10.124-9.516 10.14-9.516 27.672 0 17.578 9.516 27.703 9.531 10.14 26.094 10.14 6.531 0 12.312-1.734 5.797-1.734 10.875-5.203z" id="DejaVuSans-67"/><path d="M2.984 54.688H12.5L29.594 8.797l17.093 45.89h9.516L35.687 0H23.485z" id="DejaVuSans-118"/><path d="M9.422 54.688h8.984V0H9.422zm0 21.296h8.984v-11.39H9.422z" id="DejaVuSans-105"/></defs><use xlink:href="#DejaVuSans-82"/><use x="64.982" xlink:href="#DejaVuSans-117"/><use x="128.361" xlink:href="#DejaVuSans-116"/><use x="167.57" xlink:href="#DejaVuSans-104"/><use x="230.949" xlink:href="#DejaVuSans-101"/><use x="292.473" xlink:href="#DejaVuSans-114"/><use x="333.586" xlink:href="#DejaVuSans-102"/><use x="368.791" xlink:href="#DejaVuSans-111"/><use x="429.973" xlink:href="#DejaVuSans-114"/><use x="469.336" xlink:href="#DejaVuSans-100"/><use x="532.813" xlink:href="#DejaVuSans-32"/><use x="564.6" xlink:href="#DejaVuSans-84"/><use x="608.684" xlink:href="#DejaVuSans-111"/><use x="669.865" xlink:href="#DejaVuSans-116"/><use x="709.074" xlink:href="#DejaVuSans-97"/><use x="770.354" xlink:href="#DejaVuSans-108"/><use x="798.137" xlink:href="#DejaVuSans-32"/><use x="829.924" xlink:href="#DejaVuSans-67"/><use x="899.748" xlink:href="#DejaVuSans-111"/><use x="960.93" xlink:href="#DejaVuSans-118"/><use x="1020.109" xlink:href="#DejaVuSans-105"/><use x="1047.893" xlink:href="#DejaVuSans-100"/><use x="1111.369" xlink:href="#DejaVuSans-32"/><use x="1143.156" xlink:href="#DejaVuSans-67"/><use x="1212.98" xlink:href="#DejaVuSans-97"/><use x="1274.26" xlink:href="#DejaVuSans-115"/><use x="1326.359" xlink:href="#DejaVuSans-101"/><use x="1387.883" xlink:href="#DejaVuSans-115"/></g><g id="legend_1"><path d="M128.2 137.53h144.675q3.2 0 3.2-3.2V88.96q0-3.2-3.2-3.2H128.2q-3.2 0-3.2 3.2v45.37q0 3.2 3.2 3.2z" style="fill:none;opacity:.8;stroke:#ccc;stroke-linejoin:miter" id="patch_5"/><path d="M131.4 98.718h32" style="fill:none;stroke:#4c72b0;stroke-linecap:round;stroke-width:1.5" id="line2d_2"/><g style="fill:#696969" transform="matrix(.16 0 0 -.16 176.2 104.317)" id="text_17"><use xlink:href="#DejaVuSans-84"/><use x="44.084" xlink:href="#DejaVuSans-111"/><use x="105.266" xlink:href="#DejaVuSans-116"/><use x="144.475" xlink:href="#DejaVuSans-97"/><use x="205.754" xlink:href="#DejaVuSans-108"/><use x="233.537" xlink:href="#DejaVuSans-32"/><use x="265.324" xlink:href="#DejaVuSans-67"/><use x="335.148" xlink:href="#DejaVuSans-97"/><use x="396.428" xlink:href="#DejaVuSans-115"/><use x="448.527" xlink:href="#DejaVuSans-101"/><use x="510.051" xlink:href="#DejaVuSans-115"/></g><path d="M131.4 127.802h32v-11.2h-32z" style="fill:#089fff;opacity:.2;stroke:#fff;stroke-linejoin:miter" id="patch_6"/><g style="fill:#696969" transform="matrix(.16 0 0 -.16 176.2 127.802)" id="text_18"><defs><path d="M8.688 72.906h9.921V28.61q0-11.718 4.235-16.875 4.25-5.14 13.781-5.14 9.469 0 13.719 5.14 4.25 5.157 4.25 16.875v44.297H64.5V27.391q0-14.25-7.063-21.532-7.046-7.28-20.812-7.28-13.828 0-20.89 7.28-7.047 7.282-7.047 21.532z" id="DejaVuSans-85"/><path d="M32.172-5.078q-3.797-9.766-7.422-12.735-3.61-2.984-9.656-2.984H7.906v7.516h5.282q3.703 0 5.75 1.765Q21-9.766 23.483-3.219l1.61 4.094-22.11 53.813H12.5l17.094-42.766 17.093 42.766h9.516z" id="DejaVuSans-121"/></defs><use xlink:href="#DejaVuSans-85"/><use x="73.193" xlink:href="#DejaVuSans-110"/><use x="136.572" xlink:href="#DejaVuSans-99"/><use x="191.553" xlink:href="#DejaVuSans-101"/><use x="253.076" xlink:href="#DejaVuSans-114"/><use x="294.189" xlink:href="#DejaVuSans-116"/><use x="333.398" xlink:href="#DejaVuSans-97"/><use x="394.678" xlink:href="#DejaVuSans-105"/><use x="422.461" xlink:href="#DejaVuSans-110"/><use x="485.84" xlink:href="#DejaVuSans-116"/><use x="525.049" xlink:href="#DejaVuSans-121"/></g></g></g></g><defs><clipPath id="p5a5572fd28"><path d="M117 77.76h725.4v498.96H117z"/></clipPath></defs></svg>