<svg height="864" viewBox="0 0 936 648" width="1248" xmlns="http://www.w3.org/2000/svg" xmlns:xlink="http://www.w3.org/1999/xlink"><defs><style>*{stroke-linecap:butt;stroke-linejoin:round}</style></defs><g id="figure_1"><path d="M0 648h936V0H0z" style="fill:#fff" id="patch_1"/><g id="axes_1"><path d="M117 576.72h725.4V77.76H117z" style="fill:none" id="patch_2"/><g id="PolyCollection_1"><defs><path d="M151.243-93.96H222.398l1.271-.527 1.27.012 1.271.014 1.27-.25 1.271.021 1.271-.772 1.27-.754 1.271-1.529 1.271-.165 1.27-.682 1.271-.397 1.27-1.178 1.272-1.946 1.27-1.638 1.27-.272 1.271-1.321 1.271-3.95 1.27-2.55 1.271-.366 1.27-.886 1.272-.352 1.27-2.232 1.27-1.43 1.271-.112 1.271.382 1.27-1.278 1.271-.8 1.27-.862 1.272-1.198 1.27-1.267 1.27-.801 1.271-.066 1.271-1.461 1.27-.972 1.271-1.545 1.27-1.577 1.272-2.12 1.27-.775 1.27-.23 1.271-1.551 1.271-.195 1.27-.718 1.271-.956 1.27-.92 1.272-.906 1.27-.109 1.27-.117 1.271-.13 1.271-.14 1.27-.166 1.271-.462 1.27-.214 1.272-.223 1.27-1.297 1.27-1.292 1.271-.477 1.271-.468 1.27-.457 1.271-.173 1.27-.144 1.272-.116 1.27-.353 1.27-.06 1.271-.044 1.271-.042 1.27-.043 1.271-.043 1.27-.053 1.272-.322 1.27-.053 1.27-.057 1.271-.595 1.271-.065 1.27-.07 1.271-.875 1.27-.33 1.272-.051 1.27-.036 1.27-.02 1.271-.002 1.271.017 1.27.024 1.271-.244 1.27-.243 1.272.02 1.27-.252 1.27.01 1.271.001 1.271-.005 1.27-.28 1.271-.016 1.27-.021 1.272-.024 1.27-.027 1.27-.028 1.271-.562 1.271-.024 1.27-.285 1.271-.276 1.27-.268 1.272.008 1.27.016 1.27-1.047 1.271.031 1.271-.231 1.27.04 1.271.042 1.27.04 1.272.037 1.27-1.563 1.27-.215 1.271.054 1.271-.215 1.27-.484 1.271.05 1.27.042 1.272-.499 1.27-.236 1.27.026 1.271.017 1.271.01 1.27-.001 1.271-.012 1.27-.026 1.272-.837 1.27-.304 1.27-.307 1.271-.042 1.271-.042 1.27-.04 1.271-.312 1.27-.045 1.272-.045 1.27-.31 1.27-.035 1.271-.027 1.271-.015 1.27-.285 1.271-.02 1.27-.286 1.272-.017 1.27-.019 1.27-.02 1.271-.02 1.271-.022 1.27-.026 1.271-.298 1.27-.03 1.272-.294 1.27-.022 1.27-.016 1.271-.274 1.271-.002 1.27-.001 1.271-.268 1.27-.264 1.272.007 1.27.01 1.27.011 1.271-.522 1.271-.248 1.27-.244 1.271.026 1.27.027 1.272.026 1.27-.243 1.27.023 1.271-1.047 1.271.029 1.27.028 1.271.025 1.27.022 1.272.018 1.27-.787 1.27.016 1.271.013 1.271.009 1.27.003 1.271-.002 1.27-.277 1.272-.016 1.27-.552 1.27-.284 1.271-.016 1.271-.017 1.27-.017 1.271-.814 1.27-.006 1.272-.27 1.27.001 1.27.002 1.271.004 1.271.006 1.27.005 1.271.005 1.27-.004 1.272-.013 1.27-.02 1.27-.027 1.271-.033 1.271-.569 1.27-.304 1.271-1.368 1.27-2.409 1.272-.488 1.27.083 1.27.105 1.271-.413 1.271-1.46 1.27-.099 1.271-1.153 1.27-1.13 1.272-.576 1.27-.564 1.27-.3 1.271.219 1.271-.88 1.27.158 1.271.119 1.27.08 1.272.036 1.27-1.606 1.27-1.099 1.271-1.387 1.271-1.398 1.27-1.397 1.271-.052 1.27-.045 1.272-3.23 1.27-.242 1.27-1.812 1.271-.716 1.271-1.23 1.27.129 1.271.135 1.27-4.924 1.272-.874 1.27.208 1.27-4.327 1.271-1.622 1.271.256 1.27.235 1.271-4.062 1.271-2.975 1.27-2.957 1.271-1.866 1.27-3.443 1.271-1.001 1.271.343 1.27-3.415 1.271-1.81 1.271-1.29 1.27.27 1.271.202 1.27-5.192 1.271.138 1.271-3.67 1.27-1.832 1.271-2.947 1.271-4.3 1.27-6.42 1.271-2.879 1.27.12 1.271-2.815 1.271-3.053 1.27-1.137 1.271-4.597 1.271-2.161 1.27.252 1.271.242 1.27-3.54 1.271-2.235 1.271-1.758 1.27.035 1.271-4.606 1.271-.122 1.27-.194 1.271-7.478 1.27-2.144 1.271-7.497 1.271-1.553 1.27-.157 1.271-.142 1.271-.117 1.27-8.102 1.271-1.32 1.27-4.987 1.271-2.767 1.271.191 1.27.16 1.271.122 1.271-8.732 1.27-4.693 1.271-3.595 1.27-3.848 1.271-3.03 1.271-2.473 1.27.213 1.271-5.689 1.271-2.738 1.27-3.808 1.271-2.446 1.27-2.447 1.271.22 1.271.192 1.27.089 1.271-5.615 1.271-2.768 1.27-1.262 1.271-1.08 1.27-.343 1.271-.391 1.271-8.746 1.27-1.516 1.271-2.08 1.271-2.1 1.27-4.739 1.271-1.7 1.27-.248 1.271-.204 1.271-.19 1.27-7.107 1.271-2.225 1.271-1.912 1.27-.013 1.271.005 1.27-4.283 1.271-1.864 1.271-1.347 1.27-1.645 1.271-1.414 1.271-1.965 1.27-.095 1.271-.097 1.27-3.876 1.271-1.49 1.271-.977 1.27-1.52 1.271-.173 1.271-2.016 1.27-1.234 1.271-1.777 1.27-1.243 1.271-3.636 1.271-2.55 1.27-.131 1.271-.12 1.271-4.629 1.27-2.396 1.271-1.556 1.27-.73 1.271-3.648 1.271.136 1.27.155 1.271-3.591 1.271-.913 1.27-1.994 1.271-3.07 1.27-1.735 1.271.116 1.271.079 1.27-6.083 1.271-1.797 1.271-2.074 1.27-.746 1.271-1.3 1.27.025 1.271-.009 1.271-6.44 1.27-1.597 1.271-1.852 1.271-2.12 1.27-1.857 1.271.016 1.27-2.387 1.271-2.929 1.271-2.128 1.27-.796 1.271-4.796 1.271-2.37 1.27.052 1.271.048 1.27-4.515 1.271-2.09 2.542-2.08v-2.35l1.27-1.286 1.271-.22 1.27.04 1.271-2.684 1.27-1.384 1.272-1.435 1.27-3.34 1.27-1.481 1.271-1.48 1.271-.13 1.27-.97 1.271-.469 1.27-1.837 1.272-2.118 1.27-1.587 1.27-.235 1.271-.235 1.271-1.847 1.27-1.041 1.271-1.028 1.27-1.303 1.272-2.64 1.27-.469 1.27-.16 1.271-.686 1.271-.413 1.27-1.75 1.271-.679 1.27-.68 1.272-.14 1.27-.124 1.27-1.191 1.271-.114 1.271-.379 1.27-.13 1.271-.152 1.27-.175 1.272-.187 1.27-.199 1.27-.201 1.271-.204 1.271-.479 1.27-.22 1.271-.218 1.27-.205 1.272-.191 1.27-.174 1.27-.416 1.271-.656 1.271-.11 1.27-.098 1.271-.078 1.27-.055 1.272-.029 1.27-.283 1.27-.005h1.271l1.271.007 1.27.012 1.271.008 1.27-.793 1.272-.256 1.27.013 1.27.012 1.271.01 1.271.01 1.27.008 1.271.006 1.27.004h1.272l1.27-.004 1.27-.008 1.271-.012 1.271-.018 1.27-.02 1.271-.021v-.659l-1.27-.021-1.271-.02-1.27-.018-1.271-.012-1.27-.008-1.271-.004h-1.271l-1.27.004-1.271.006-1.271.008-1.27.01-1.271.01-1.27.012-1.271.013-1.271.281-1.27.817-1.271.009-1.271.012-1.27.006h-1.271l-1.27-.004-1.271.253-1.271-.029-1.27-.055-1.271-.078-1.271-.098-1.27-.11-1.271.418-1.27.121-1.271-.174-1.271-.191-1.27-.205-1.271-.219-1.271-.22-1.27.059-1.271-.204-1.27-.201-1.271-.199-1.271-.188-1.27-.174-1.271-.151-1.271-.131-1.27.158-1.271-.114-1.27.957-1.271-.125-1.271-.14-1.27.394-1.271.395-1.271 1.471-1.27.124-1.271.389-1.27-.161-1.271.068-1.271 2.192-1.27.845-1.271.582-1.271.57-1.27 1.374-1.271-.235-1.27-.235-1.271 1.098-1.271 1.64-1.27 1.384-1.271.068-1.271.64-1.27-.13-1.271 1.205-1.27 1.204-1.271 3.102-1.271 1.25-1.27 1.3-1.271 2.685-1.271.04-1.27.316-1.271 1.4v2.481l-2.542 2.215-1.27 2.205-1.27 4.613-1.271.048-1.271.05-1.27 2.463-1.271 4.868-1.27.815-1.272 2.167-1.27 2.977-1.27 2.445-1.271.015-1.271 1.902-1.27 2.175-1.271 1.906-1.27 1.624-1.272 6.445-1.27-.009-1.27.026-1.271 1.384-1.271.865-1.27 2.221-1.271 1.961-1.27 6.266-1.272.079-1.27.116-1.27 2.024-1.271 3.372-1.271 2.3-1.27 1.235-1.271 3.925-1.27.156-1.272.136-1.27 3.867-1.27.881-1.271 1.666-1.271 2.436-1.27 4.499-1.271-.12-1.27-.132-1.272 2.282-1.27 3.344-1.27.904-1.271 1.444-1.271.914-1.27 1.742-1.271-.172-1.27 1.164-1.272.633-1.27 1.194-1.27 3.64-1.271-.096-1.271-.095-1.27 1.793-1.271 1.27-1.27 1.577-1.272 1.338-1.27 1.894-1.27 4.307-1.271.005-1.271-.013-1.27 1.846-1.271 2.07-1.27 6.851-1.272-.188-1.27-.205-1.27-.247-1.271.984-1.271 3.851-1.27 1.121-1.271 1.141-1.27.632-1.272 7.898-1.27-.392-1.27-.342-1.271.53-1.271.886-1.27 2.601-1.271 5.66-1.27.088-1.272.191-1.27.221-1.27 2.922-1.271 2.923-1.271 4.246-1.27 3.167-1.271 6.122-1.27.213-1.272 2.897-1.27 3.412-1.27 4.205-1.271 3.922-1.271 4.97-1.27 8.986-1.271.121-1.27.16-1.272.191-1.27 3.14-1.27 5.213-1.271 1.365-1.271 8.005-1.27-.118-1.271-.142-1.27-.157-1.272 1.132-1.27 6.999-1.27 1.614-1.271 7.018-1.271-.193-1.27-.123-1.271 4.521-1.27.035-1.272 2-1.27 2.597-1.27 3.977-1.271.242-1.271.252-1.27 2.67-1.271 5.068-1.27 1.547-1.272 3.39-1.27 3.09-1.27.12-1.271 3.028-1.271 6.465-1.27 4.29-1.271 2.959-1.27 1.925-1.272 3.848-1.27.137-1.27 5.546-1.271.202-1.271.27-1.27 1.931-1.271 2.485-1.27 4.101-1.272.344-1.27 1.683-1.27 4.074-1.271 2.429-1.271 3.485-1.27 3.468-1.271 4.528-1.27.235-1.272.256-1.27 2.136-1.27 4.8-1.271.208-1.271 1.274-1.27 5.277-1.271.135-1.27.128-1.272 1.455-1.27.895-1.27 1.946-1.271.295-1.271 3.212-1.27-.044-1.271-.052-1.27 1.287-1.272 1.286-1.27 1.298-1.27 1.049-1.271 1.614-1.271.037-1.27.08-1.271.119-1.27.157-1.272 1.268-1.27.22-1.27.773-1.271 1.047-1.271 1.034-1.27 1.555-1.271 1.531-1.27.437-1.272 1.763-1.27.66-1.27.106-1.271.082-1.271.586-1.27 2.423-1.271 1.316-1.27.233-1.272.505-1.27-.033-1.27-.027-1.271-.02-1.271-.013-1.27-.004-1.271.005-1.27.005-1.272.006-1.27.004-1.27.002h-1.271l-1.271.268-1.27-.006-1.271.797-1.27-.017-1.272-.017-1.27-.016-1.27.253-1.271.52-1.271-.014-1.27.26-1.271-.003-1.27.003-1.272.009-1.27.013-1.27.016-1.271.824-1.271.017-1.27.022-1.271.026-1.27.028-1.272.029-1.27 1.1-1.27.024-1.271.293-1.271.027-1.27.027-1.271.026-1.271.292-1.27.289-1.271.552-1.27.01-1.271.01-1.271.008-1.27.273-1.271.269-1.271-.001-1.27-.003-1.271.264-1.27-.016-1.271-.022-1.271.242-1.27-.03-1.271.24-1.271-.027-1.27-.022-1.271-.02-1.27-.02-1.271-.019-1.271-.017-1.27.25-1.271-.019-1.271.252-1.27-.015-1.271-.027-1.27-.035-1.271.227-1.271-.045-1.27-.045-1.271.225-1.271-.04-1.27-.043-1.271-.041-1.27.23-1.271.232-1.271.774-1.27-.026-1.271-.012h-1.271l-1.27.009-1.271.018-1.27.025-1.271.3-1.271.576-1.27.042-1.271.05-1.271.59-1.27.322-1.271.054-1.27.322-1.271 1.657-1.271.038-1.27.04-1.271.041-1.271.04-1.27.307-1.271.031-1.27 1.1-1.271.016-1.271.009-1.27.268-1.271.261-1.271.251-1.27-.023-1.271.512-1.27-.029-1.271-.026-1.271-.024-1.27-.021-1.271-.017-1.271.258-1.27-.006-1.271.002-1.27.01-1.271.284-1.271.02-1.27.294-1.271.293-1.271.024-1.27.017-1.271-.002-1.27-.02-1.271-.035-1.271-.051-1.27.206-1.271.736-1.271-.07-1.27-.066-1.271.48-1.27-.057-1.271-.054-1.271.215-1.27-.052-1.271-.043-1.271-.044-1.27-.041-1.271-.044-1.27-.06-1.271.183-1.271-.116-1.27-.143-1.271-.174-1.271.08-1.27.069-1.271.06-1.27.856-1.271.85-1.271-.223-1.27-.214-1.271.075-1.271-.165-1.27-.141-1.271-.13-1.27-.117-1.271-.11-1.271.705-1.27.691-1.271.655-1.271.355-1.27-.194-1.271 1.133-1.27-.23-1.271.299-1.271 1.638-1.27 1.107-1.271 1.14-1.271.64-1.27 1.222-1.271-.066-1.27.81-1.271 1.417-1.271 1.486-1.27 1.286-1.271 1.348-1.271 1.943-1.27.382-1.271.963-1.27 2.327-1.271 3.137-1.271 1.259-1.27 1.798-1.271 1.244-1.271 3.356-1.27 4.64-1.271 1.901-1.27.801-1.271 2.121-1.271 2.349-1.27 1.506-1.271.678-1.271.928-1.27.371-1.271 1.694-1.27.855-1.272.839-1.27.021-1.27.287-1.271.014-1.271.012-1.27.547H151.243z" id="m7cbb6516ac" style="stroke:#fff;stroke-opacity:.2"/></defs><g clip-path="url(#p70e1c5100f)"><use style="fill:#089fff;fill-opacity:.2;stroke:#fff;stroke-opacity:.2" xlink:href="#m7cbb6516ac" y="648"/></g></g><path clip-path="url(#p70e1c5100f)" d="M149.973 554.04h72.425l1.271-.537h2.541l1.27-.268h1.271l2.542-1.611 1.27-1.61 1.271-.27 1.27-.804 1.271-.537 1.27-1.343 1.272-2.147 1.27-1.88 1.27-.536 1.271-1.61L244 536.59l1.27-2.953 1.271-.805 1.27-1.342 1.272-.806 1.27-2.684 1.27-1.88 1.271-.536h1.271l1.27-1.61 2.542-2.148 2.541-2.685 1.27-.805h1.271l1.271-1.342 1.27-.806 2.542-2.684 1.27-1.88 1.271-.536h1.27l1.271-1.342h1.271l1.27-.537 3.813-2.416h6.353l1.27-.268h2.542l2.54-2.148 3.813-.805h3.812l1.27-.269h7.624l1.27-.268h2.542l1.27-.537h2.542l1.27-.805 1.27-.269h7.625l2.54-.537h1.272l1.27-.268h3.812l1.27-.269h6.354l1.27-.537h1.271l3.812-.805h2.541l1.27-1.074h1.271l1.271-.268h5.083l1.27-1.61 1.27-.27h1.271l1.271-.268 1.27-.537h2.542l1.27-.536 1.271-.269h7.624l1.27-.805 2.542-.537h3.812l1.27-.269h2.542l1.27-.268h3.812l1.27-.268h1.271l1.27-.269h7.625l1.27-.268h1.27l1.272-.269h2.54l1.271-.268h2.542l2.54-.537h3.813l1.27-.537 2.542-.537h3.812l1.27-.268h1.27l1.271-1.074h6.354l1.27-.805h6.353l1.27-.269h1.272l1.27-.537 1.27-.268h3.813l1.27-.806h1.27l1.272-.268h13.976l1.271-.537 1.27-.268 1.271-1.342 1.27-2.416 1.272-.537h2.54l1.271-.537 1.271-1.61 1.27-.27 2.542-2.684 2.541-1.61 1.27-.537h1.271l1.271-1.074h5.083l1.27-1.61 1.27-1.075 3.813-4.026h2.54l1.272-3.222 1.27-.268 1.27-1.88 1.271-.804 1.271-1.343h2.541l1.27-5.1 1.272-1.074h1.27l1.27-4.563 1.271-1.88h2.542l1.27-4.295 2.542-6.442 1.27-2.148 1.27-3.758 1.271-1.342h1.271l1.27-3.758 1.271-2.148 1.271-1.61h2.541l1.27-5.37h1.271l1.271-3.758 1.27-1.879 1.271-2.953 1.271-4.295 1.27-6.442 1.271-2.953h1.27l2.542-6.174 1.27-1.343 1.271-4.832 1.271-2.416h2.541l1.27-3.758 1.271-2.416 1.271-1.879h1.27l1.271-4.563h2.542l1.27-7.248 1.27-1.88 1.271-7.248 1.271-1.342h3.812l1.27-8.053 1.271-1.342 1.27-5.1 1.271-2.954h3.812l1.271-8.858 1.27-4.832 3.812-11.006 1.271-2.685h1.27l1.271-5.906 1.271-2.952 1.27-4.027 2.542-5.369h3.812l1.27-5.637 1.271-2.685 1.27-1.073 1.271-.806h2.541l1.271-8.321 1.27-1.074 2.542-3.222 1.27-4.295 1.271-1.342h3.812l1.27-6.98 1.271-2.147 1.271-1.88h2.541l1.27-4.294 1.271-1.88 1.271-1.341 1.27-1.611 1.271-1.342 1.271-1.88h2.541l1.27-3.758 1.271-1.342 1.271-.805 1.27-1.342h1.271l1.271-1.88 1.27-1.073 1.271-1.611 1.27-1.074 1.271-3.49 1.271-2.416h2.541l1.271-4.563 1.27-2.416 1.271-1.61 1.27-.806 1.271-3.758h2.542l1.27-3.758 1.271-1.074 1.27-2.148 1.271-3.221 1.27-1.88h2.542l1.27-6.173 1.271-1.88 1.271-2.147 1.27-.805 1.271-1.343h2.541l1.271-6.442 1.27-1.61 1.271-1.88 1.271-2.148 1.27-1.879h1.271l1.27-2.416 1.271-2.953 1.271-2.147 1.27-.805 1.271-4.832 1.271-2.416h2.541l1.27-4.564 1.271-2.147 2.542-2.148v-2.416l1.27-1.342 1.271-.269h1.27l1.271-2.684 2.542-2.684 1.27-3.222 2.541-2.684h1.271l1.27-.806 1.271-.268 1.27-1.61 1.272-1.88 1.27-1.342h2.541l1.271-1.61 2.541-1.611 1.27-1.074 1.272-2.416 1.27-.269h1.27l1.271-.536 1.271-.269 1.27-1.61 2.542-1.074h2.541l1.27-1.074h1.271l1.271-.269h8.894l1.271-.268h6.353l1.27-.268 1.271-.537h6.354l1.27-.269h6.353l1.27-.805 1.272-.269h17.788" style="fill:none;stroke:#4c72b0;stroke-linecap:round;stroke-width:1.5" id="line2d_1"/><path d="M117 576.72V77.76" style="fill:none;stroke:#d3d3d3;stroke-linecap:square;stroke-linejoin:miter;stroke-width:1.25" id="patch_3"/><path d="M117 576.72h725.4" style="fill:none;stroke:#d3d3d3;stroke-linecap:square;stroke-linejoin:miter;stroke-width:1.25" id="patch_4"/><g id="matplotlib.axis_1"><g id="xtick_1"><g style="fill:#696969" transform="matrix(.16 0 0 -.16 112.228 598.378)" id="text_1"><defs><path d="M9.813 72.906h9.859V5.078q0-13.187-5-19.14-5-5.954-16.094-5.954h-3.75v8.297h3.078q6.531 0 9.219 3.672Q9.813-4.39 9.813 5.078z" id="DejaVuSans-74"/><path d="M34.281 27.484q-10.89 0-15.093-2.484-4.204-2.484-4.204-8.5 0-4.781 3.157-7.594 3.156-2.797 8.562-2.797 7.485 0 12 5.297 4.516 5.297 4.516 14.078v2zm17.922 3.72V0H43.22v8.297Q40.14 3.328 35.547.953q-4.594-2.375-11.234-2.375-8.391 0-13.36 4.719Q6 8.016 6 15.922q0 9.219 6.172 13.906 6.187 4.688 18.437 4.688h12.61v.89q0 6.203-4.078 9.594-4.078 3.39-11.453 3.39-4.688 0-9.141-1.124-4.438-1.125-8.531-3.375v8.312q4.921 1.906 9.562 2.844 4.64.953 9.031.953 11.875 0 17.735-6.156 5.86-6.14 5.86-18.64z" id="DejaVuSans-97"/><path d="M54.89 33.016V0h-8.984v32.719q0 7.765-3.031 11.61-3.031 3.858-9.078 3.858-7.281 0-11.484-4.64-4.204-4.625-4.204-12.64V0H9.08v54.688h9.03v-8.5q3.235 4.937 7.594 7.374Q30.078 56 35.797 56q9.422 0 14.25-5.828 4.844-5.828 4.844-17.156z" id="DejaVuSans-110"/></defs><use xlink:href="#DejaVuSans-74"/><use x="29.492" xlink:href="#DejaVuSans-97"/><use x="90.771" xlink:href="#DejaVuSans-110"/></g></g><g id="xtick_2"><g style="fill:#696969" transform="matrix(.16 0 0 -.16 185.704 598.378)" id="text_2"><defs><path d="M9.813 72.906h14.703l18.593-49.61 18.703 49.61h14.704V0H66.89v64.016l-18.797-50h-9.907l-18.796 50V0H9.813z" id="DejaVuSans-77"/><path d="M41.11 46.297q-1.516.875-3.297 1.281Q36.03 48 33.89 48q-7.625 0-11.703-4.953-4.079-4.953-4.079-14.234V0H9.08v54.688h9.03v-8.5q2.844 4.984 7.375 7.39Q30.031 56 36.531 56q.922 0 2.047-.125 1.125-.11 2.484-.36z" id="DejaVuSans-114"/></defs><use xlink:href="#DejaVuSans-77"/><use x="86.279" xlink:href="#DejaVuSans-97"/><use x="147.559" xlink:href="#DejaVuSans-114"/></g></g><g id="xtick_3"><g style="fill:#696969" transform="matrix(.16 0 0 -.16 261.766 598.378)" id="text_3"><defs><path d="M32.172-5.078q-3.797-9.766-7.422-12.735-3.61-2.984-9.656-2.984H7.906v7.516h5.282q3.703 0 5.75 1.765Q21-9.766 23.483-3.219l1.61 4.094-22.11 53.813H12.5l17.094-42.766 17.093 42.766h9.516z" id="DejaVuSans-121"/></defs><use xlink:href="#DejaVuSans-77"/><use x="86.279" xlink:href="#DejaVuSans-97"/><use x="147.559" xlink:href="#DejaVuSans-121"/></g></g><g id="xtick_4"><g style="fill:#696969" transform="matrix(.16 0 0 -.16 346.162 598.378)" id="text_4"><defs><path d="M8.5 21.578v33.11h8.984V21.922q0-7.766 3.016-11.656 3.031-3.875 9.094-3.875 7.265 0 11.484 4.64 4.234 4.64 4.234 12.656v31h8.985V0h-8.984v8.406Q42.047 3.422 37.718 1q-4.313-2.422-10.032-2.422-9.421 0-14.312 5.86Q8.5 10.296 8.5 21.578zM31.11 56z" id="DejaVuSans-117"/><path d="M9.422 75.984h8.984V0H9.422z" id="DejaVuSans-108"/></defs><use xlink:href="#DejaVuSans-74"/><use x="29.492" xlink:href="#DejaVuSans-117"/><use x="92.871" xlink:href="#DejaVuSans-108"/></g></g><g id="xtick_5"><g style="fill:#696969" transform="matrix(.16 0 0 -.16 419.513 598.378)" id="text_5"><defs><path d="M53.516 70.516V60.89q-5.61 2.687-10.594 4-4.984 1.328-9.625 1.328-8.047 0-12.422-3.125t-4.375-8.89q0-4.845 2.906-7.313 2.907-2.453 11.016-3.97l5.953-1.218q11.031-2.11 16.281-7.406 5.25-5.297 5.25-14.172 0-10.61-7.11-16.078-7.093-5.469-20.812-5.469-5.172 0-11.015 1.172Q13.14.922 6.89 3.219v10.156q6-3.36 11.765-5.078 5.766-1.703 11.328-1.703 8.438 0 13.032 3.312 4.593 3.328 4.593 9.485 0 5.359-3.297 8.39-3.296 3.032-10.812 4.547L27.484 33.5q-11.03 2.188-15.968 6.875-4.922 4.688-4.922 13.047 0 9.672 6.812 15.234 6.813 5.563 18.766 5.563 5.14 0 10.453-.938 5.328-.922 10.89-2.765z" id="DejaVuSans-83"/><path d="M56.203 29.594v-4.39H14.891q.593-9.282 5.593-14.142 5-4.859 13.938-4.859 5.172 0 10.031 1.266 4.86 1.265 9.656 3.812v-8.5Q49.266.734 44.187-.344 39.11-1.422 33.892-1.422q-13.094 0-20.735 7.61-7.64 7.625-7.64 20.625 0 13.421 7.25 21.296Q20.016 56 32.328 56q11.031 0 17.453-7.11 6.422-7.093 6.422-19.296zm-8.984 2.64q-.094 7.36-4.125 11.75-4.032 4.407-10.672 4.407-7.516 0-12.031-4.25-4.516-4.25-5.203-11.97z" id="DejaVuSans-101"/><path d="M18.11 8.203v-29H9.077v75.484h9.031v-8.296q2.844 4.875 7.157 7.234Q29.594 56 35.594 56q9.968 0 16.187-7.906 6.235-7.907 6.235-20.797T51.78 6.484q-6.218-7.906-16.187-7.906-6 0-10.328 2.375-4.313 2.375-7.157 7.25zm30.578 19.094q0 9.906-4.079 15.547-4.078 5.64-11.203 5.64-7.14 0-11.218-5.64-4.079-5.64-4.079-15.547 0-9.906 4.078-15.547 4.079-5.64 11.22-5.64 7.124 0 11.202 5.64t4.078 15.547z" id="DejaVuSans-112"/></defs><use xlink:href="#DejaVuSans-83"/><use x="63.477" xlink:href="#DejaVuSans-101"/><use x="125" xlink:href="#DejaVuSans-112"/></g></g><g id="xtick_6"><g style="fill:#696969" transform="matrix(.16 0 0 -.16 496.486 598.378)" id="text_6"><defs><path d="M9.813 72.906h13.28l32.329-60.984v60.984h9.562V0h-13.28L19.39 60.984V0H9.813z" id="DejaVuSans-78"/><path d="M30.61 48.39q-7.22 0-11.422-5.64-4.204-5.64-4.204-15.453 0-9.813 4.172-15.453 4.188-5.64 11.453-5.64 7.188 0 11.375 5.655 4.203 5.672 4.203 15.438 0 9.719-4.203 15.406-4.187 5.688-11.375 5.688zm0 7.61q11.718 0 18.406-7.625 6.703-7.61 6.703-21.078 0-13.422-6.703-21.078-6.688-7.64-18.407-7.64-11.765 0-18.437 7.64-6.656 7.656-6.656 21.078 0 13.469 6.656 21.078Q18.844 56 30.609 56z" id="DejaVuSans-111"/><path d="M2.984 54.688H12.5L29.594 8.797l17.093 45.89h9.516L35.687 0H23.485z" id="DejaVuSans-118"/></defs><use xlink:href="#DejaVuSans-78"/><use x="74.805" xlink:href="#DejaVuSans-111"/><use x="135.986" xlink:href="#DejaVuSans-118"/></g></g><g id="xtick_7"><g style="fill:#696969" transform="matrix(.16 0 0 -.16 577.277 598.378)" id="text_7"><use xlink:href="#DejaVuSans-74"/><use x="29.492" xlink:href="#DejaVuSans-97"/><use x="90.771" xlink:href="#DejaVuSans-110"/></g></g><g id="xtick_8"><g style="fill:#696969" transform="matrix(.16 0 0 -.16 649.482 598.378)" id="text_8"><use xlink:href="#DejaVuSans-77"/><use x="86.279" xlink:href="#DejaVuSans-97"/><use x="147.559" xlink:href="#DejaVuSans-114"/></g></g><g id="xtick_9"><g style="fill:#696969" transform="matrix(.16 0 0 -.16 725.544 598.378)" id="text_9"><use xlink:href="#DejaVuSans-77"/><use x="86.279" xlink:href="#DejaVuSans-97"/><use x="147.559" xlink:href="#DejaVuSans-121"/></g></g><g id="xtick_10"><g style="fill:#696969" transform="matrix(.16 0 0 -.16 809.94 598.378)" id="text_10"><use xlink:href="#DejaVuSans-74"/><use x="29.492" xlink:href="#DejaVuSans-117"/><use x="92.871" xlink:href="#DejaVuSans-108"/></g></g></g><g id="matplotlib.axis_2"><g id="ytick_1"><g style="fill:#696969" transform="matrix(.16 0 0 -.16 97.32 560.119)" id="text_11"><defs><path d="M31.781 66.406q-7.61 0-11.453-7.5Q16.5 51.422 16.5 36.375q0-14.984 3.828-22.484 3.844-7.5 11.453-7.5 7.672 0 11.5 7.5 3.844 7.5 3.844 22.484 0 15.047-3.844 22.531-3.828 7.5-11.5 7.5zm0 7.813q12.266 0 18.735-9.703 6.468-9.688 6.468-28.141 0-18.406-6.468-28.11-6.47-9.687-18.735-9.687-12.25 0-18.718 9.688-6.47 9.703-6.47 28.109 0 18.453 6.47 28.14Q19.53 74.22 31.78 74.22z" id="DejaVuSans-48"/></defs><use xlink:href="#DejaVuSans-48"/></g></g><g id="ytick_2"><g style="fill:#696969" transform="matrix(.16 0 0 -.16 76.96 493.008)" id="text_12"><defs><path d="M19.188 8.297h34.421V0H7.33v8.297q5.609 5.812 15.296 15.594 9.703 9.797 12.188 12.64 4.734 5.313 6.609 9 1.89 3.688 1.89 7.25 0 5.813-4.078 9.469-4.078 3.672-10.625 3.672-4.64 0-9.797-1.61-5.14-1.609-11-4.89v9.969Q13.767 71.78 18.938 73q5.188 1.219 9.485 1.219 11.328 0 18.062-5.672 6.735-5.656 6.735-15.125 0-4.5-1.688-8.531-1.672-4.016-6.125-9.485-1.218-1.422-7.765-8.187-6.532-6.766-18.453-18.922z" id="DejaVuSans-50"/><path d="M10.797 72.906h38.719v-8.312H19.828v-17.86q2.14.735 4.281 1.094 2.157.36 4.313.36 12.203 0 19.328-6.688 7.14-6.688 7.14-18.11 0-11.765-7.328-18.296-7.328-6.516-20.656-6.516-4.593 0-9.36.781-4.75.782-9.827 2.344v9.922q4.39-2.39 9.078-3.563 4.687-1.171 9.906-1.171 8.453 0 13.375 4.437 4.938 4.438 4.938 12.063 0 7.609-4.938 12.047-4.922 4.453-13.375 4.453-3.953 0-7.89-.875-3.922-.875-8.016-2.735z" id="DejaVuSans-53"/></defs><use xlink:href="#DejaVuSans-50"/><use x="63.623" xlink:href="#DejaVuSans-53"/><use x="127.246" xlink:href="#DejaVuSans-48"/></g></g><g id="ytick_3"><g style="fill:#696969" transform="matrix(.16 0 0 -.16 76.96 425.897)" id="text_13"><use xlink:href="#DejaVuSans-53"/><use x="63.623" xlink:href="#DejaVuSans-48"/><use x="127.246" xlink:href="#DejaVuSans-48"/></g></g><g id="ytick_4"><g style="fill:#696969" transform="matrix(.16 0 0 -.16 76.96 358.786)" id="text_14"><defs><path d="M8.203 72.906h46.875v-4.203L28.61 0H18.312L43.22 64.594H8.203z" id="DejaVuSans-55"/></defs><use xlink:href="#DejaVuSans-55"/><use x="63.623" xlink:href="#DejaVuSans-53"/><use x="127.246" xlink:href="#DejaVuSans-48"/></g></g><g id="ytick_5"><g style="fill:#696969" transform="matrix(.16 0 0 -.16 66.78 291.675)" id="text_15"><defs><path d="M12.406 8.297h16.11v55.625l-17.532-3.516v8.985l17.438 3.515h9.86V8.296H54.39V0H12.406z" id="DejaVuSans-49"/></defs><use xlink:href="#DejaVuSans-49"/><use x="63.623" xlink:href="#DejaVuSans-48"/><use x="127.246" xlink:href="#DejaVuSans-48"/><use x="190.869" xlink:href="#DejaVuSans-48"/></g></g><g id="ytick_6"><g style="fill:#696969" transform="matrix(.16 0 0 -.16 66.78 224.565)" id="text_16"><use xlink:href="#DejaVuSans-49"/><use x="63.623" xlink:href="#DejaVuSans-50"/><use x="127.246" xlink:href="#DejaVuSans-53"/><use x="190.869" xlink:href="#DejaVuSans-48"/></g></g><g id="ytick_7"><g style="fill:#696969" transform="matrix(.16 0 0 -.16 66.78 157.454)" id="text_17"><use xlink:href="#DejaVuSans-49"/><use x="63.623" xlink:href="#DejaVuSans-53"/><use x="127.246" xlink:href="#DejaVuSans-48"/><use x="190.869" xlink:href="#DejaVuSans-48"/></g></g><g id="ytick_8"><g style="fill:#696969" transform="matrix(.16 0 0 -.16 66.78 90.343)" id="text_18"><use xlink:href="#DejaVuSans-49"/><use x="63.623" xlink:href="#DejaVuSans-55"/><use x="127.246" xlink:href="#DejaVuSans-53"/><use x="190.869" xlink:href="#DejaVuSans-48"/></g></g><g style="fill:#696969" transform="matrix(0 -.2 -.2 0 58.62 379.813)" id="text_19"><defs><path d="M51.125 44H36.922l-4.11-16.313h14.313zm-7.328 27.781-5.078-20.265h14.265L58.11 71.78h7.813L60.89 51.516h15.234V44h-17.14l-4-16.313h15.53V20.22H53.079L48 0h-7.813l5.032 20.219H30.906L25.875 0h-7.86l5.079 20.219H7.719v7.468h17.187L29 44H13.281v7.516h17.625l4.985 20.265z" id="DejaVuSans-35"/><path d="M37.11 75.984V68.5h-8.594q-4.828 0-6.72-1.953-1.874-1.953-1.874-7.031v-4.828h14.797v-6.985H19.922V0H10.89v47.703H2.297v6.984h8.594V58.5q0 9.125 4.25 13.297 4.25 4.187 13.468 4.187z" id="DejaVuSans-102"/><path d="M48.781 52.594v-8.407q-3.812 2.11-7.64 3.157-3.828 1.047-7.735 1.047-8.75 0-13.593-5.547-4.829-5.532-4.829-15.547 0-10.016 4.829-15.563 4.843-5.53 13.593-5.53 3.907 0 7.735 1.046 3.828 1.047 7.64 3.156V2.094Q45.016.344 40.984-.531q-4.015-.89-8.562-.89-12.36 0-19.64 7.765-7.266 7.765-7.266 20.953 0 13.375 7.343 21.031Q20.22 56 33.016 56q4.14 0 8.093-.86 3.953-.843 7.672-2.546z" id="DejaVuSans-99"/><path d="M44.281 53.078v-8.5q-3.797 1.953-7.906 2.922-4.094.984-8.5.984-6.688 0-10.031-2.047-3.344-2.046-3.344-6.156 0-3.125 2.39-4.906 2.391-1.781 9.626-3.39l3.078-.688q9.562-2.047 13.593-5.781 4.032-3.735 4.032-10.422 0-7.625-6.032-12.078-6.03-4.438-16.578-4.438-4.39 0-9.156.86Q10.688.296 5.422 2v9.281q4.984-2.594 9.812-3.89 4.829-1.282 9.579-1.282 6.343 0 9.75 2.172 3.421 2.172 3.421 6.125 0 3.656-2.468 5.61-2.453 1.953-10.813 3.765l-3.125.735q-8.344 1.75-12.062 5.39-3.704 3.64-3.704 9.985 0 7.718 5.47 11.906Q16.75 56 26.811 56q4.97 0 9.36-.734 4.406-.72 8.11-2.188z" id="DejaVuSans-115"/></defs><use xlink:href="#DejaVuSans-35"/><use x="83.789" xlink:href="#DejaVuSans-32"/><use x="115.576" xlink:href="#DejaVuSans-111"/><use x="176.758" xlink:href="#DejaVuSans-102"/><use x="211.963" xlink:href="#DejaVuSans-32"/><use x="243.75" xlink:href="#DejaVuSans-99"/><use x="298.73" xlink:href="#DejaVuSans-97"/><use x="360.01" xlink:href="#DejaVuSans-115"/><use x="412.109" xlink:href="#DejaVuSans-101"/><use x="473.633" xlink:href="#DejaVuSans-115"/></g></g><g style="fill:#696969" transform="matrix(.24 0 0 -.24 306.902 71.76)" id="text_20"><defs><path d="M44.39 34.188q3.172-1.079 6.172-4.594 3-3.516 6.032-9.672L66.609 0H56l-9.313 18.703q-3.624 7.328-7.015 9.719-3.39 2.39-9.25 2.39h-10.75V0h-9.86v72.906h22.266q12.5 0 18.656-5.234 6.157-5.219 6.157-15.766 0-6.89-3.203-11.437-3.204-4.532-9.297-6.282zM19.673 64.797V38.922h12.406q7.125 0 10.766 3.297 3.64 3.297 3.64 9.687 0 6.39-3.64 9.64-3.64 3.25-10.766 3.25z" id="DejaVuSans-82"/><path d="M18.313 70.219V54.688h18.5v-6.985h-18.5V18.016q0-6.688 1.828-8.594 1.828-1.906 7.453-1.906h9.218V0h-9.218q-10.407 0-14.36 3.875-3.953 3.89-3.953 14.14v29.688H2.687v6.984h6.594V70.22z" id="DejaVuSans-116"/><path d="M54.89 33.016V0h-8.984v32.719q0 7.765-3.031 11.61-3.031 3.858-9.078 3.858-7.281 0-11.484-4.64-4.204-4.625-4.204-12.64V0H9.08v75.984h9.03V46.188q3.235 4.937 7.594 7.374Q30.078 56 35.797 56q9.422 0 14.25-5.828 4.844-5.828 4.844-17.156z" id="DejaVuSans-104"/><path d="M45.406 46.39v29.594h8.985V0h-8.985v8.203Q42.578 3.328 38.25.953q-4.313-2.375-10.375-2.375-9.906 0-16.14 7.906-6.22 7.922-6.22 20.813 0 12.89 6.22 20.797Q17.968 56 27.874 56q6.063 0 10.375-2.375 4.328-2.36 7.156-7.234zm-30.61-19.093q0-9.906 4.079-15.547 4.078-5.64 11.203-5.64 7.125 0 11.219 5.64 4.11 5.64 4.11 15.547 0 9.906-4.11 15.547-4.094 5.64-11.219 5.64-7.125 0-11.203-5.64-4.078-5.64-4.078-15.547z" id="DejaVuSans-100"/><path d="M-.297 72.906h61.672v-8.312H35.5V0h-9.906v64.594H-.296z" id="DejaVuSans-84"/><path d="M64.406 67.281v-10.39q-4.984 4.64-10.625 6.922-5.64 2.296-11.984 2.296-12.5 0-19.14-7.64-6.641-7.64-6.641-22.094 0-14.406 6.64-22.047 6.64-7.64 19.14-7.64 6.345 0 11.985 2.296 5.64 2.297 10.625 6.938V5.609Q59.234 2.094 53.437.33q-5.78-1.75-12.218-1.75-16.563 0-26.094 10.124-9.516 10.14-9.516 27.672 0 17.578 9.516 27.703 9.531 10.14 26.094 10.14 6.531 0 12.312-1.734 5.797-1.734 10.875-5.203z" id="DejaVuSans-67"/><path d="M9.422 54.688h8.984V0H9.422zm0 21.296h8.984v-11.39H9.422z" id="DejaVuSans-105"/></defs><use xlink:href="#DejaVuSans-82"/><use x="64.982" xlink:href="#DejaVuSans-117"/><use x="128.361" xlink:href="#DejaVuSans-116"/><use x="167.57" xlink:href="#DejaVuSans-104"/><use x="230.949" xlink:href="#DejaVuSans-101"/><use x="292.473" xlink:href="#DejaVuSans-114"/><use x="333.586" xlink:href="#DejaVuSans-102"/><use x="368.791" xlink:href="#DejaVuSans-111"/><use x="429.973" xlink:href="#DejaVuSans-114"/><use x="469.336" xlink:href="#DejaVuSans-100"/><use x="532.813" xlink:href="#DejaVuSans-32"/><use x="564.6" xlink:href="#DejaVuSans-84"/><use x="608.684" xlink:href="#DejaVuSans-111"/><use x="669.865" xlink:href="#DejaVuSans-116"/><use x="709.074" xlink:href="#DejaVuSans-97"/><use x="770.354" xlink:href="#DejaVuSans-108"/><use x="798.137" xlink:href="#DejaVuSans-32"/><use x="829.924" xlink:href="#DejaVuSans-67"/><use x="899.748" xlink:href="#DejaVuSans-111"/><use x="960.93" xlink:href="#DejaVuSans-118"/><use x="1020.109" xlink:href="#DejaVuSans-105"/><use x="1047.893" xlink:href="#DejaVuSans-100"/><use x="1111.369" xlink:href="#DejaVuSans-32"/><use x="1143.156" xlink:href="#DejaVuSans-67"/><use x="1212.98" xlink:href="#DejaVuSans-97"/><use x="1274.26" xlink:href="#DejaVuSans-115"/><use x="1326.359" xlink:href="#DejaVuSans-101"/><use x="1387.883" xlink:href="#DejaVuSans-115"/></g><g id="legend_1"><path d="M128.2 137.53h144.675q3.2 0 3.2-3.2V88.96q0-3.2-3.2-3.2H128.2q-3.2 0-3.2 3.2v45.37q0 3.2 3.2 3.2z" style="fill:none;opacity:.8;stroke:#ccc;stroke-linejoin:miter" id="patch_5"/><path d="M131.4 98.718h32" style="fill:none;stroke:#4c72b0;stroke-linecap:round;stroke-width:1.5" id="line2d_2"/><g style="fill:#696969" transform="matrix(.16 0 0 -.16 176.2 104.317)" id="text_21"><use xlink:href="#DejaVuSans-84"/><use x="44.084" xlink:href="#DejaVuSans-111"/><use x="105.266" xlink:href="#DejaVuSans-116"/><use x="144.475" xlink:href="#DejaVuSans-97"/><use x="205.754" xlink:href="#DejaVuSans-108"/><use x="233.537" xlink:href="#DejaVuSans-32"/><use x="265.324" xlink:href="#DejaVuSans-67"/><use x="335.148" xlink:href="#DejaVuSans-97"/><use x="396.428" xlink:href="#DejaVuSans-115"/><use x="448.527" xlink:href="#DejaVuSans-101"/><use x="510.051" xlink:href="#DejaVuSans-115"/></g><path d="M131.4 127.802h32v-11.2h-32z" style="fill:#089fff;opacity:.2;stroke:#fff;stroke-linejoin:miter" id="patch_6"/><g style="fill:#696969" transform="matrix(.16 0 0 -.16 176.2 127.802)" id="text_22"><defs><path d="M8.688 72.906h9.921V28.61q0-11.718 4.235-16.875 4.25-5.14 13.781-5.14 9.469 0 13.719 5.14 4.25 5.157 4.25 16.875v44.297H64.5V27.391q0-14.25-7.063-21.532-7.046-7.28-20.812-7.28-13.828 0-20.89 7.28-7.047 7.282-7.047 21.532z" id="DejaVuSans-85"/></defs><use xlink:href="#DejaVuSans-85"/><use x="73.193" xlink:href="#DejaVuSans-110"/><use x="136.572" xlink:href="#DejaVuSans-99"/><use x="191.553" xlink:href="#DejaVuSans-101"/><use x="253.076" xlink:href="#DejaVuSans-114"/><use x="294.189" xlink:href="#DejaVuSans-116"/><use x="333.398" xlink:href="#DejaVuSans-97"/><use x="394.678" xlink:href="#DejaVuSans-105"/><use x="422.461" xlink:href="#DejaVuSans-110"/><use x="485.84" xlink:href="#DejaVuSans-116"/><use x="525.049" xlink:href="#DejaVuSans-121"/></g></g></g></g><defs><clipPath id="p70e1c5100f"><path d="M117 77.76h725.4v498.96H117z"/></clipPath></defs></svg>