<svg height="864" viewBox="0 0 936 648" width="1248" xmlns="http://www.w3.org/2000/svg" xmlns:xlink="http://www.w3.org/1999/xlink"><defs><style>*{stroke-linecap:butt;stroke-linejoin:round}</style></defs><g id="figure_1"><path d="M0 648h936V0H0z" style="fill:#fff" id="patch_1"/><g id="axes_1"><path d="M117 576.72h725.4V77.76H117z" style="fill:none" id="patch_2"/><path clip-path="url(#p5f24b91cba)" d="m149.973 554.04 60.224-.108 4.015-.247 4.015-.513 4.015-.785 4.015-1.067 26.097-7.56 8.03-2.08 12.045-2.701 17.063-3.613 10.037-2.176 5.02-1.327 4.014-1.34 4.015-1.608 4.015-1.871 5.019-2.568 4.015-2.316 5.018-3.2 13.049-8.324 4.015-2.337 8.03-4.237 5.018-2.507 5.019-2.19 13.049-5.315 4.014-1.498 8.03-2.882 6.023-2.475 14.052-6.108 7.026-3.543 5.019-2.779 4.015-2.428 4.015-2.762 4.015-3.075 3.011-2.511 3.011-2.83 3.011-3.273 3.012-3.77 3.01-4.279 3.012-4.667 5.019-8.318 4.015-6.68 6.022-9.698 3.011-5.61 4.015-8.132 14.052-29.752 8.03-14.603 3.012-6.27 3.01-6.801 5.02-12.428 3.01-7.043 3.012-6.38 3.011-5.719 3.011-5.164 3.012-4.925 3.01-4.567 3.012-4.276 3.011-3.845 3.011-3.427 3.012-3.076 3.01-2.77 3.012-2.393 3.011-2.057 7.026-4.673 5.019-3.21 12.045-7.094 10.037-5.457 5.019-3.128 12.045-7.768 7.026-4.755 4.015-2.444 4.015-2.214 6.022-2.966 4.015-1.794 4.015-1.567 5.019-1.698 5.018-1.461 7.027-1.645 4.015-.739 3.01-.389 7.027-.673 8.03-1.024 11.04-1.264 11.042-2.227 5.019-1.44 4.015-1.353 2.007-.854 4.015-2.062 3.011-1.977 4.015-3.146 3.011-2.821 4.015-4.324 3.012-3.604 4.014-5.202 4.015-5.588 7.027-10.436 5.018-7.818 4.015-6.365 1.004-1.294 4.015-5.816 2.007-2.866 2.008-3.233 5.018-7.324 3.012-3.935 4.015-4.801 4.015-4.479 5.018-5.184 5.019-4.82 6.022-5.126 4.015-3.158 5.019-3.578 7.026-4.985 7.026-5.017h0" style="fill:none;stroke:#000;stroke-linecap:round;stroke-width:1.5" id="line2d_1"/><path clip-path="url(#p5f24b91cba)" d="m149.973 554.04 58.216-.094 3.012-.203 3.01-.52 2.008-.726 2.008-1.098 2.007-1.488 2.008-1.889 2.007-2.276 4.015-5.138 4.015-5.088 9.034-11.062 5.018-6.253 3.012-3.32 5.018-4.68 2.008-1.672 3.01-2.201 3.012-1.736 3.011-1.405 6.023-2.57 3.011-1.274 4.015-1.362 7.026-2.102 4.015-.83 7.026-1.068 7.026-.848 3.012-.436 6.022-1.194 19.07-2.01 6.023-.53 25.094-3.505 7.026-.687 12.045-1.41 9.033-1.218 9.034-1.478 6.022-1.284 9.034-2.309 5.019-1.495 3.01-1 4.016-1.514 5.019-2.296 4.014-2.22 4.015-2.467 2.008-1.424 2.007-1.582 3.012-2.873 2.007-2.23 4.015-5.2 5.019-7.02 11.04-16.208 2.008-3.39 11.041-19.313 3.012-4.956 9.033-13.916 4.015-5.804 1.004-1.596 3.011-12.607 3.011-13.483 1.004-4.688 6.022-13.734 3.012-6.418 2.007-3.872 4.015-7.294 6.022-10.972 2.008-3.366 2.007-2.948 4.015-5.22 2.008-2.67 3.011-4.13 3.011-3.578 3.011-3.412 7.027-7.536 4.015-4.775 5.018-6.08 3.011-3.565 4.015-5.086 6.023-8.216 5.018-7.382 5.02-7.878 8.029-12.613 4.015-5.602 8.03-10.538 4.015-4.785 2.007-2.041 2.008-.774 2.007-.546 2.008-.331 1.003-.11 3.012-1.781 2.007-1.047 2.008-.859 2.007-.705 2.008-.421 10.037-1.626 5.019-.699 9.033-.875 20.075-1.732 20.075-1.762 5.018-.794 4.015-.908 5.019-1.4 4.015-1.404 4.015-1.7 5.019-2.42 3.01-1.752 5.02-3.251 5.018-3.52 20.075-14.774 5.018-4.018 6.023-4.802 4.015-2.767 5.019-3.222 7.026-4.334 4.015-2.32 4.015-1.994 11.04-4.905 5.02-2.345 4.014-1.79h0" style="fill:none;stroke:#009e73;stroke-linecap:round;stroke-width:1.5" id="line2d_2"/><path clip-path="url(#p5f24b91cba)" d="m149.973 554.04 55.205-.085 2.008-.098 3.01-.462 2.008-.479 2.008-.641 1.004-.448 1.003-.572 2.008-1.569 1.004-.922 1.003-1.086 2.008-2.74 1.003-1.654 2.008-3.908 5.019-10.674 3.01-5.133 10.038-14.198 3.011-3.642 2.008-1.963 2.007-1.634 2.008-1.33 4.015-2.304 2.007-.924 3.011-1.142 3.012-.852 5.018-1.094 3.012-.654 5.018-1.109 4.015-1.06 4.015-.677 8.03-1.043 7.026-.97 5.019-.447 3.011-.78 4.015-1.198 10.037-1.402 5.019-.553 9.034-.685 6.022-.799 6.022-.788 6.023-.747 3.011-.49 6.022-1.094 3.012-.192 3.01-.2 5.02-.558 8.03-.909 12.044-1.082 15.056-1.964 5.019-.986 4.015-.982 5.019-1.418 5.018-1.774 4.015-1.64 5.019-2.47 4.015-2.373 3.011-2.114 1.004-.794 2.007-1.954 2.008-2.17 3.011-3.61 5.019-6.517 6.022-8.065 3.011-4.033 2.008-2.887 6.022-9.572 6.023-7.945 5.018-6.54 4.015-5.075 3.011-3.719 5.02-6.141 1.003-1.339 2.007-7.134 3.012-11.459 2.007-8.08 4.015-7.768 5.019-9.436 2.007-3.513 4.015-6.549 6.022-9.776 2.008-3.092 5.019-6.694 3.01-3.966 3.012-4.025 7.026-8.356 2.008-2.349 3.01-3.606 3.012-4.13 7.026-10.08 4.015-5.185 2.008-2.738 5.018-7.337 4.015-6.282 6.023-9.763 3.01-5.317 2.008-3.692 3.012-5.117 3.01-4.64 3.012-4.153 3.011-3.801 5.019-5.817 3.011-3.12 3.011-2.67 3.011-2.169 2.008-1.226 4.015-2.016 4.015-4.256 3.011-3.054 1.004-.402 7.026-1.497 4.015-.625 9.034-1.05 15.056-1.167 32.12-2.86 5.018-.82 4.015-.965 4.015-1.241 5.018-1.837 7.027-2.83 4.014-1.955 5.02-2.596 18.066-10.715 3.012-1.811 17.063-10.53 5.019-2.86 5.018-2.507 8.03-3.511 4.015-1.522 8.03-2.613 7.026-2.65 4.015-1.275h0" style="fill:none;stroke:#d55e00;stroke-linecap:round;stroke-width:1.5" id="line2d_3"/><path clip-path="url(#p5f24b91cba)" d="m149.973 554.04 59.22-.1 3.011-.2 2.008-.377 2.007-.677 2.008-.877 2.007-1.278 3.011-2.331 1.004-1.153 3.011-3.96 1.004-1.153 2.008-2.732 1.003-1.028 3.012-2.381 2.007-1.53 10.037-6.641 2.008-1.279 2.007-1.002 4.015-1.454 2.008-.501 2.007-.251 3.011-.175 3.012-.752 4.015-1.003 3.01-.226 9.034-.325 2.008-.226 5.019-.652 2.007-.125 4.015-.2 7.026-.427 4.015-.175 3.011-.3 4.015-.602 3.011-.452 3.012-.426 5.018-1.077 2.008-.401 4.015-.502 7.026-.601 5.019-.527 26.097-1.378 9.033-1.003 8.03-.927 10.038-.827 4.015-.527 4.014-.326 5.02-.025 2.007-.05 1.003-.075 1.004-.2 3.011-1.38 2.008-.952 2.007-1.102 2.008-.878 2.007-1.178 1.004-.626 3.011-1.454 2.008-.526 2.007-.401 2.008-.727 1.003-.502 3.011-1.88 3.012-2.23 4.015-2.808 3.01-2.606 5.02-5.765 1.003-1.304 1.004-1.604 2.007-2.932 4.015-6.517 1.004-1.379 1.004-1.178 1.004-.827 5.018-6.09 1.004-1.705 2.008-4.386 5.018-10.227 1.004-1.654 5.019-7.018 1.003-.978 3.012-3.534 2.007-2.958 3.011-5.69 10.038-16.417 4.015-8.246 3.01-7.394 4.016-8.197 2.007-3.408 1.004-1.153 2.007-2.682 1.004-1.128 3.011-2.858 1.004-1.73 4.015-5.338 2.007-3.409 2.008-1.754 3.011-3.86 2.008-2.056 3.01-4.11 3.012-3.158 1.004-1.153 1.003-.752 4.015-3.56 1.004-.676 5.019-4.261 2.007-2.156 1.004-.902 2.008-2.532 1.003-1.353 2.008-2.331 3.011-3.61 2.007-2.105 2.008-2.431 2.007-2.256 4.015-5.414 7.026-8.171 2.008-2.607 1.004-1.53 3.01-3.608 6.023-8.297 2.008-1.504v-1.278l4.015-4.612 8.03-7.494 2.007-1.48 2.008-1.227 2.007-1.178 2.007-1.279 2.008-1.153 3.011-1.855 4.015-1.955 5.019-1.604 3.011-.426 2.007-.15 11.042-.376 7.026-.426 4.015-.176 7.026-.626 10.037-.1 7.026-.652 10.038-.351 4.015-.301 7.026-.602 2.007-.4 3.011-2.332 4.015-3.634 4.015-2.13 4.015-1.48 1.004-.425 2.008-1.204 5.018-3.358 2.008-1.003 3.01-1.278 2.008-.501 5.019-1.605 2.007-.977 8.03-5.138 4.015-2.306 1.004-.802 3.011-1.83 4.015-2.908 4.015-2.907 2.008-1.354 5.018-2.356 7.026-3.359 4.015-2.205 2.008-1.003 3.011-.902 2.008-.928 3.01-1.303 2.008-.902 2.008-.552 2.007-.4 3.011-.452 2.008-.677 4.015-1.403 2.007-.627h0" style="fill:none;stroke:#0072b2;stroke-linecap:round;stroke-width:1.5" id="line2d_4"/><path d="M117 576.72V77.76" style="fill:none;stroke:#d3d3d3;stroke-linecap:square;stroke-linejoin:miter;stroke-width:1.25" id="patch_3"/><path d="M117 576.72h725.4" style="fill:none;stroke:#d3d3d3;stroke-linecap:square;stroke-linejoin:miter;stroke-width:1.25" id="patch_4"/><g id="matplotlib.axis_1"><g id="xtick_1"><g style="fill:#696969" transform="matrix(.16 0 0 -.16 117.566 598.378)" id="text_1"><defs><path d="M9.813 72.906h9.859V5.078q0-13.187-5-19.14-5-5.954-16.094-5.954h-3.75v8.297h3.078q6.531 0 9.219 3.672Q9.813-4.39 9.813 5.078z" id="DejaVuSans-74"/><path d="M34.281 27.484q-10.89 0-15.093-2.484-4.204-2.484-4.204-8.5 0-4.781 3.157-7.594 3.156-2.797 8.562-2.797 7.485 0 12 5.297 4.516 5.297 4.516 14.078v2zm17.922 3.72V0H43.22v8.297Q40.14 3.328 35.547.953q-4.594-2.375-11.234-2.375-8.391 0-13.36 4.719Q6 8.016 6 15.922q0 9.219 6.172 13.906 6.187 4.688 18.437 4.688h12.61v.89q0 6.203-4.078 9.594-4.078 3.39-11.453 3.39-4.688 0-9.141-1.124-4.438-1.125-8.531-3.375v8.312q4.921 1.906 9.562 2.844 4.64.953 9.031.953 11.875 0 17.735-6.156 5.86-6.14 5.86-18.64z" id="DejaVuSans-97"/><path d="M54.89 33.016V0h-8.984v32.719q0 7.765-3.031 11.61-3.031 3.858-9.078 3.858-7.281 0-11.484-4.64-4.204-4.625-4.204-12.64V0H9.08v54.688h9.03v-8.5q3.235 4.937 7.594 7.374Q30.078 56 35.797 56q9.422 0 14.25-5.828 4.844-5.828 4.844-17.156z" id="DejaVuSans-110"/></defs><use xlink:href="#DejaVuSans-74"/><use x="29.492" xlink:href="#DejaVuSans-97"/><use x="90.771" xlink:href="#DejaVuSans-110"/></g></g><g id="xtick_2"><g style="fill:#696969" transform="matrix(.16 0 0 -.16 207.398 598.378)" id="text_2"><defs><path d="M34.188 63.188 20.797 26.906h26.812zm-5.579 9.718h11.188L67.578 0h-10.25l-6.64 18.703h-32.86L11.188 0H.78z" id="DejaVuSans-65"/><path d="M18.11 8.203v-29H9.077v75.484h9.031v-8.296q2.844 4.875 7.157 7.234Q29.594 56 35.594 56q9.968 0 16.187-7.906 6.235-7.907 6.235-20.797T51.78 6.484q-6.218-7.906-16.187-7.906-6 0-10.328 2.375-4.313 2.375-7.157 7.25zm30.578 19.094q0 9.906-4.079 15.547-4.078 5.64-11.203 5.64-7.14 0-11.218-5.64-4.079-5.64-4.079-15.547 0-9.906 4.078-15.547 4.079-5.64 11.22-5.64 7.124 0 11.202 5.64t4.078 15.547z" id="DejaVuSans-112"/><path d="M41.11 46.297q-1.516.875-3.297 1.281Q36.03 48 33.89 48q-7.625 0-11.703-4.953-4.079-4.953-4.079-14.234V0H9.08v54.688h9.03v-8.5q2.844 4.984 7.375 7.39Q30.031 56 36.531 56q.922 0 2.047-.125 1.125-.11 2.484-.36z" id="DejaVuSans-114"/></defs><use xlink:href="#DejaVuSans-65"/><use x="68.408" xlink:href="#DejaVuSans-112"/><use x="131.885" xlink:href="#DejaVuSans-114"/></g></g><g id="xtick_3"><g style="fill:#696969" transform="matrix(.16 0 0 -.16 302.925 598.378)" id="text_3"><defs><path d="M8.5 21.578v33.11h8.984V21.922q0-7.766 3.016-11.656 3.031-3.875 9.094-3.875 7.265 0 11.484 4.64 4.234 4.64 4.234 12.656v31h8.985V0h-8.984v8.406Q42.047 3.422 37.718 1q-4.313-2.422-10.032-2.422-9.421 0-14.312 5.86Q8.5 10.296 8.5 21.578zM31.11 56z" id="DejaVuSans-117"/><path d="M9.422 75.984h8.984V0H9.422z" id="DejaVuSans-108"/></defs><use xlink:href="#DejaVuSans-74"/><use x="29.492" xlink:href="#DejaVuSans-117"/><use x="92.871" xlink:href="#DejaVuSans-108"/></g></g><g id="xtick_4"><g style="fill:#696969" transform="matrix(.16 0 0 -.16 391.09 598.378)" id="text_4"><defs><path d="M39.406 66.219q-10.75 0-17.078-8.016-6.312-8-6.312-21.828 0-13.766 6.312-21.781 6.328-8 17.078-8 10.735 0 17.016 8 6.281 8.015 6.281 21.781 0 13.828-6.281 21.828-6.281 8.016-17.016 8.016zm0 8q15.328 0 24.5-10.281 9.188-10.282 9.188-27.563 0-17.234-9.188-27.516-9.172-10.28-24.5-10.28-15.375 0-24.593 10.25-9.204 10.265-9.204 27.546t9.204 27.563q9.218 10.28 24.593 10.28z" id="DejaVuSans-79"/><path d="M48.781 52.594v-8.407q-3.812 2.11-7.64 3.157-3.828 1.047-7.735 1.047-8.75 0-13.593-5.547-4.829-5.532-4.829-15.547 0-10.016 4.829-15.563 4.843-5.53 13.593-5.53 3.907 0 7.735 1.046 3.828 1.047 7.64 3.156V2.094Q45.016.344 40.984-.531q-4.015-.89-8.562-.89-12.36 0-19.64 7.765-7.266 7.765-7.266 20.953 0 13.375 7.343 21.031Q20.22 56 33.016 56q4.14 0 8.093-.86 3.953-.843 7.672-2.546z" id="DejaVuSans-99"/><path d="M18.313 70.219V54.688h18.5v-6.985h-18.5V18.016q0-6.688 1.828-8.594 1.828-1.906 7.453-1.906h9.218V0h-9.218q-10.407 0-14.36 3.875-3.953 3.89-3.953 14.14v29.688H2.687v6.984h6.594V70.22z" id="DejaVuSans-116"/></defs><use xlink:href="#DejaVuSans-79"/><use x="78.711" xlink:href="#DejaVuSans-99"/><use x="133.691" xlink:href="#DejaVuSans-116"/></g></g><g id="xtick_5"><g style="fill:#696969" transform="matrix(.16 0 0 -.16 484.933 598.378)" id="text_5"><use xlink:href="#DejaVuSans-74"/><use x="29.492" xlink:href="#DejaVuSans-97"/><use x="90.771" xlink:href="#DejaVuSans-110"/></g></g><g id="xtick_6"><g style="fill:#696969" transform="matrix(.16 0 0 -.16 573.762 598.378)" id="text_6"><use xlink:href="#DejaVuSans-65"/><use x="68.408" xlink:href="#DejaVuSans-112"/><use x="131.885" xlink:href="#DejaVuSans-114"/></g></g><g id="xtick_7"><g style="fill:#696969" transform="matrix(.16 0 0 -.16 669.29 598.378)" id="text_7"><use xlink:href="#DejaVuSans-74"/><use x="29.492" xlink:href="#DejaVuSans-117"/><use x="92.871" xlink:href="#DejaVuSans-108"/></g></g><g id="xtick_8"><g style="fill:#696969" transform="matrix(.16 0 0 -.16 757.453 598.378)" id="text_8"><use xlink:href="#DejaVuSans-79"/><use x="78.711" xlink:href="#DejaVuSans-99"/><use x="133.691" xlink:href="#DejaVuSans-116"/></g></g></g><g id="matplotlib.axis_2"><g id="ytick_1"><g style="fill:#696969" transform="matrix(.16 0 0 -.16 97.32 560.119)" id="text_9"><defs><path d="M31.781 66.406q-7.61 0-11.453-7.5Q16.5 51.422 16.5 36.375q0-14.984 3.828-22.484 3.844-7.5 11.453-7.5 7.672 0 11.5 7.5 3.844 7.5 3.844 22.484 0 15.047-3.844 22.531-3.828 7.5-11.5 7.5zm0 7.813q12.266 0 18.735-9.703 6.468-9.688 6.468-28.141 0-18.406-6.468-28.11-6.47-9.687-18.735-9.687-12.25 0-18.718 9.688-6.47 9.703-6.47 28.109 0 18.453 6.47 28.14Q19.53 74.22 31.78 74.22z" id="DejaVuSans-48"/></defs><use xlink:href="#DejaVuSans-48"/></g></g><g id="ytick_2"><g style="fill:#696969" transform="matrix(.16 0 0 -.16 66.78 495.892)" id="text_10"><defs><path d="M19.188 8.297h34.421V0H7.33v8.297q5.609 5.812 15.296 15.594 9.703 9.797 12.188 12.64 4.734 5.313 6.609 9 1.89 3.688 1.89 7.25 0 5.813-4.078 9.469-4.078 3.672-10.625 3.672-4.64 0-9.797-1.61-5.14-1.609-11-4.89v9.969Q13.767 71.78 18.938 73q5.188 1.219 9.485 1.219 11.328 0 18.062-5.672 6.735-5.656 6.735-15.125 0-4.5-1.688-8.531-1.672-4.016-6.125-9.485-1.218-1.422-7.765-8.187-6.532-6.766-18.453-18.922z" id="DejaVuSans-50"/></defs><use xlink:href="#DejaVuSans-50"/><use x="63.623" xlink:href="#DejaVuSans-48"/><use x="127.246" xlink:href="#DejaVuSans-48"/><use x="190.869" xlink:href="#DejaVuSans-48"/></g></g><g id="ytick_3"><g style="fill:#696969" transform="matrix(.16 0 0 -.16 66.78 431.665)" id="text_11"><defs><path d="M37.797 64.313 12.89 25.39h24.906zm-2.594 8.593H47.61V25.391h10.407v-8.203H47.609V0h-9.812v17.188H4.89v9.515z" id="DejaVuSans-52"/></defs><use xlink:href="#DejaVuSans-52"/><use x="63.623" xlink:href="#DejaVuSans-48"/><use x="127.246" xlink:href="#DejaVuSans-48"/><use x="190.869" xlink:href="#DejaVuSans-48"/></g></g><g id="ytick_4"><g style="fill:#696969" transform="matrix(.16 0 0 -.16 66.78 367.439)" id="text_12"><defs><path d="M33.016 40.375q-6.641 0-10.532-4.547-3.875-4.531-3.875-12.437 0-7.86 3.875-12.438 3.891-4.562 10.532-4.562 6.64 0 10.515 4.562 3.875 4.578 3.875 12.438 0 7.906-3.875 12.437-3.875 4.547-10.515 4.547zm19.578 30.922v-8.984q-3.719 1.75-7.5 2.671-3.782.938-7.5.938-9.766 0-14.922-6.594-5.14-6.594-5.875-19.922 2.875 4.25 7.219 6.516 4.359 2.266 9.578 2.266 10.984 0 17.36-6.672 6.374-6.657 6.374-18.125 0-11.235-6.64-18.032-6.641-6.78-17.672-6.78-12.657 0-19.344 9.687-6.688 9.703-6.688 28.109 0 17.281 8.204 27.563 8.203 10.28 22.015 10.28 3.719 0 7.5-.734t7.89-2.187z" id="DejaVuSans-54"/></defs><use xlink:href="#DejaVuSans-54"/><use x="63.623" xlink:href="#DejaVuSans-48"/><use x="127.246" xlink:href="#DejaVuSans-48"/><use x="190.869" xlink:href="#DejaVuSans-48"/></g></g><g id="ytick_5"><g style="fill:#696969" transform="matrix(.16 0 0 -.16 66.78 303.212)" id="text_13"><defs><path d="M31.781 34.625q-7.031 0-11.062-3.766-4.016-3.765-4.016-10.343 0-6.594 4.016-10.36Q24.75 6.391 31.78 6.391q7.032 0 11.078 3.78 4.063 3.798 4.063 10.345 0 6.578-4.031 10.343-4.016 3.766-11.11 3.766zm-9.86 4.188q-6.343 1.562-9.89 5.906Q8.5 49.079 8.5 55.329q0 8.733 6.219 13.812 6.234 5.078 17.062 5.078 10.89 0 17.094-5.078 6.203-5.079 6.203-13.813 0-6.25-3.547-10.61-3.531-4.343-9.828-5.906 7.125-1.656 11.094-6.5 3.984-4.828 3.984-11.796 0-10.61-6.468-16.282-6.47-5.656-18.532-5.656-12.047 0-18.531 5.656-6.469 5.672-6.469 16.282 0 6.968 4 11.797 4.016 4.843 11.14 6.5zM18.314 54.39q0-5.657 3.53-8.828 3.548-3.172 9.938-3.172 6.36 0 9.938 3.172 3.593 3.171 3.593 8.828 0 5.672-3.593 8.843-3.578 3.172-9.938 3.172-6.39 0-9.937-3.172-3.532-3.172-3.532-8.843z" id="DejaVuSans-56"/></defs><use xlink:href="#DejaVuSans-56"/><use x="63.623" xlink:href="#DejaVuSans-48"/><use x="127.246" xlink:href="#DejaVuSans-48"/><use x="190.869" xlink:href="#DejaVuSans-48"/></g></g><g id="ytick_6"><g style="fill:#696969" transform="matrix(.16 0 0 -.16 56.6 238.985)" id="text_14"><defs><path d="M12.406 8.297h16.11v55.625l-17.532-3.516v8.985l17.438 3.515h9.86V8.296H54.39V0H12.406z" id="DejaVuSans-49"/></defs><use xlink:href="#DejaVuSans-49"/><use x="63.623" xlink:href="#DejaVuSans-48"/><use x="127.246" xlink:href="#DejaVuSans-48"/><use x="190.869" xlink:href="#DejaVuSans-48"/><use x="254.492" xlink:href="#DejaVuSans-48"/></g></g><g id="ytick_7"><g style="fill:#696969" transform="matrix(.16 0 0 -.16 56.6 174.759)" id="text_15"><use xlink:href="#DejaVuSans-49"/><use x="63.623" xlink:href="#DejaVuSans-50"/><use x="127.246" xlink:href="#DejaVuSans-48"/><use x="190.869" xlink:href="#DejaVuSans-48"/><use x="254.492" xlink:href="#DejaVuSans-48"/></g></g><g id="ytick_8"><g style="fill:#696969" transform="matrix(.16 0 0 -.16 56.6 110.532)" id="text_16"><use xlink:href="#DejaVuSans-49"/><use x="63.623" xlink:href="#DejaVuSans-52"/><use x="127.246" xlink:href="#DejaVuSans-48"/><use x="190.869" xlink:href="#DejaVuSans-48"/><use x="254.492" xlink:href="#DejaVuSans-48"/></g></g><g style="fill:#696969" transform="matrix(0 -.2 -.2 0 48.44 379.813)" id="text_17"><defs><path d="M51.125 44H36.922l-4.11-16.313h14.313zm-7.328 27.781-5.078-20.265h14.265L58.11 71.78h7.813L60.89 51.516h15.234V44h-17.14l-4-16.313h15.53V20.22H53.079L48 0h-7.813l5.032 20.219H30.906L25.875 0h-7.86l5.079 20.219H7.719v7.468h17.187L29 44H13.281v7.516h17.625l4.985 20.265z" id="DejaVuSans-35"/><path d="M30.61 48.39q-7.22 0-11.422-5.64-4.204-5.64-4.204-15.453 0-9.813 4.172-15.453 4.188-5.64 11.453-5.64 7.188 0 11.375 5.655 4.203 5.672 4.203 15.438 0 9.719-4.203 15.406-4.187 5.688-11.375 5.688zm0 7.61q11.718 0 18.406-7.625 6.703-7.61 6.703-21.078 0-13.422-6.703-21.078-6.688-7.64-18.407-7.64-11.765 0-18.437 7.64-6.656 7.656-6.656 21.078 0 13.469 6.656 21.078Q18.844 56 30.609 56z" id="DejaVuSans-111"/><path d="M37.11 75.984V68.5h-8.594q-4.828 0-6.72-1.953-1.874-1.953-1.874-7.031v-4.828h14.797v-6.985H19.922V0H10.89v47.703H2.297v6.984h8.594V58.5q0 9.125 4.25 13.297 4.25 4.187 13.468 4.187z" id="DejaVuSans-102"/><path d="M44.281 53.078v-8.5q-3.797 1.953-7.906 2.922-4.094.984-8.5.984-6.688 0-10.031-2.047-3.344-2.046-3.344-6.156 0-3.125 2.39-4.906 2.391-1.781 9.626-3.39l3.078-.688q9.562-2.047 13.593-5.781 4.032-3.735 4.032-10.422 0-7.625-6.032-12.078-6.03-4.438-16.578-4.438-4.39 0-9.156.86Q10.688.296 5.422 2v9.281q4.984-2.594 9.812-3.89 4.829-1.282 9.579-1.282 6.343 0 9.75 2.172 3.421 2.172 3.421 6.125 0 3.656-2.468 5.61-2.453 1.953-10.813 3.765l-3.125.735q-8.344 1.75-12.062 5.39-3.704 3.64-3.704 9.985 0 7.718 5.47 11.906Q16.75 56 26.811 56q4.97 0 9.36-.734 4.406-.72 8.11-2.188z" id="DejaVuSans-115"/><path d="M56.203 29.594v-4.39H14.891q.593-9.282 5.593-14.142 5-4.859 13.938-4.859 5.172 0 10.031 1.266 4.86 1.265 9.656 3.812v-8.5Q49.266.734 44.187-.344 39.11-1.422 33.892-1.422q-13.094 0-20.735 7.61-7.64 7.625-7.64 20.625 0 13.421 7.25 21.296Q20.016 56 32.328 56q11.031 0 17.453-7.11 6.422-7.093 6.422-19.296zm-8.984 2.64q-.094 7.36-4.125 11.75-4.032 4.407-10.672 4.407-7.516 0-12.031-4.25-4.516-4.25-5.203-11.97z" id="DejaVuSans-101"/></defs><use xlink:href="#DejaVuSans-35"/><use x="83.789" xlink:href="#DejaVuSans-32"/><use x="115.576" xlink:href="#DejaVuSans-111"/><use x="176.758" xlink:href="#DejaVuSans-102"/><use x="211.963" xlink:href="#DejaVuSans-32"/><use x="243.75" xlink:href="#DejaVuSans-99"/><use x="298.73" xlink:href="#DejaVuSans-97"/><use x="360.01" xlink:href="#DejaVuSans-115"/><use x="412.109" xlink:href="#DejaVuSans-101"/><use x="473.633" xlink:href="#DejaVuSans-115"/></g></g><g style="fill:#696969" transform="matrix(.24 0 0 -.24 209.82 71.76)" id="text_18"><defs><path d="M-.297 72.906h61.672v-8.312H35.5V0h-9.906v64.594H-.296z" id="DejaVuSans-84"/><path d="M25.39 72.906h8.297L8.297-9.28H0z" id="DejaVuSans-47"/><path d="M9.813 72.906h9.859V42.094L52.39 72.906h12.703L28.906 38.922 67.672 0H54.688L19.672 35.11V0h-9.86z" id="DejaVuSans-75"/><path d="M9.422 54.688h8.984V0H9.422zm0 21.296h8.984v-11.39H9.422z" id="DejaVuSans-105"/><path d="M45.406 46.39v29.594h8.985V0h-8.985v8.203Q42.578 3.328 38.25.953q-4.313-2.375-10.375-2.375-9.906 0-16.14 7.906-6.22 7.922-6.22 20.813 0 12.89 6.22 20.797Q17.968 56 27.874 56q6.063 0 10.375-2.375 4.328-2.36 7.156-7.234zm-30.61-19.093q0-9.906 4.079-15.547 4.078-5.64 11.203-5.64 7.125 0 11.219 5.64 4.11 5.64 4.11 15.547 0 9.906-4.11 15.547-4.094 5.64-11.219 5.64-7.125 0-11.203-5.64-4.078-5.64-4.078-15.547z" id="DejaVuSans-100"/><path d="M4.89 31.39h26.313v-8H4.891z" id="DejaVuSans-45"/><path d="M8.203 72.906h46.875v-4.203L28.61 0H18.312L43.22 64.594H8.203z" id="DejaVuSans-55"/><path d="M32.172-5.078q-3.797-9.766-7.422-12.735-3.61-2.984-9.656-2.984H7.906v7.516h5.282q3.703 0 5.75 1.765Q21-9.766 23.483-3.219l1.61 4.094-22.11 53.813H12.5l17.094-42.766 17.093 42.766h9.516z" id="DejaVuSans-121"/><path d="M2.984 54.688H12.5L29.594 8.797l17.093 45.89h9.516L35.687 0H23.485z" id="DejaVuSans-118"/><path d="M45.406 27.984q0 9.766-4.031 15.125-4.016 5.375-11.297 5.375-7.219 0-11.25-5.375-4.031-5.359-4.031-15.125 0-9.718 4.031-15.093t11.25-5.375q7.281 0 11.297 5.375 4.031 5.375 4.031 15.093zm8.985-21.203q0-13.953-6.203-20.765Q42-20.797 29.203-20.797q-4.734 0-8.937.703-4.203.703-8.157 2.172v8.735q3.954-2.141 7.813-3.157 3.86-1.031 7.86-1.031 8.843 0 13.234 4.61 4.39 4.609 4.39 13.937v4.453q-2.781-4.844-7.125-7.234Q33.938 0 27.875 0 17.828 0 11.672 7.656q-6.156 7.672-6.156 20.328 0 12.688 6.156 20.344Q17.828 56 27.875 56q6.063 0 10.406-2.39 4.344-2.391 7.125-7.22v8.297h8.985z" id="DejaVuSans-103"/></defs><use xlink:href="#DejaVuSans-84"/><use x="44.084" xlink:href="#DejaVuSans-111"/><use x="105.266" xlink:href="#DejaVuSans-116"/><use x="144.475" xlink:href="#DejaVuSans-97"/><use x="205.754" xlink:href="#DejaVuSans-108"/><use x="233.537" xlink:href="#DejaVuSans-32"/><use x="265.324" xlink:href="#DejaVuSans-99"/><use x="320.305" xlink:href="#DejaVuSans-97"/><use x="381.584" xlink:href="#DejaVuSans-115"/><use x="433.684" xlink:href="#DejaVuSans-101"/><use x="495.207" xlink:href="#DejaVuSans-115"/><use x="547.307" xlink:href="#DejaVuSans-32"/><use x="579.094" xlink:href="#DejaVuSans-47"/><use x="612.785" xlink:href="#DejaVuSans-32"/><use x="644.572" xlink:href="#DejaVuSans-49"/><use x="708.195" xlink:href="#DejaVuSans-48"/><use x="771.818" xlink:href="#DejaVuSans-48"/><use x="835.441" xlink:href="#DejaVuSans-75"/><use x="901.018" xlink:href="#DejaVuSans-32"/><use x="932.805" xlink:href="#DejaVuSans-114"/><use x="971.668" xlink:href="#DejaVuSans-101"/><use x="1033.191" xlink:href="#DejaVuSans-115"/><use x="1085.291" xlink:href="#DejaVuSans-105"/><use x="1113.074" xlink:href="#DejaVuSans-100"/><use x="1176.551" xlink:href="#DejaVuSans-101"/><use x="1238.074" xlink:href="#DejaVuSans-110"/><use x="1301.453" xlink:href="#DejaVuSans-116"/><use x="1340.662" xlink:href="#DejaVuSans-115"/><use x="1392.762" xlink:href="#DejaVuSans-32"/><use x="1424.549" xlink:href="#DejaVuSans-45"/><use x="1460.633" xlink:href="#DejaVuSans-45"/><use x="1496.717" xlink:href="#DejaVuSans-32"/><use x="1528.504" xlink:href="#DejaVuSans-55"/><use x="1592.127" xlink:href="#DejaVuSans-32"/><use x="1623.914" xlink:href="#DejaVuSans-100"/><use x="1687.391" xlink:href="#DejaVuSans-97"/><use x="1748.67" xlink:href="#DejaVuSans-121"/><use x="1807.85" xlink:href="#DejaVuSans-32"/><use x="1839.637" xlink:href="#DejaVuSans-97"/><use x="1900.916" xlink:href="#DejaVuSans-118"/><use x="1960.096" xlink:href="#DejaVuSans-101"/><use x="2021.619" xlink:href="#DejaVuSans-114"/><use x="2062.732" xlink:href="#DejaVuSans-97"/><use x="2124.012" xlink:href="#DejaVuSans-103"/><use x="2187.488" xlink:href="#DejaVuSans-101"/></g><g id="legend_1"><path d="M128.2 184.5h136.45q3.2 0 3.2-3.2V88.96q0-3.2-3.2-3.2H128.2q-3.2 0-3.2 3.2v92.34q0 3.2 3.2 3.2z" style="fill:none;opacity:.8;stroke:#ccc;stroke-linejoin:miter" id="patch_5"/><path d="M131.4 98.718h32" style="fill:none;stroke:#000;stroke-linecap:round;stroke-width:1.5" id="line2d_5"/><g style="fill:#696969" transform="matrix(.16 0 0 -.16 176.2 104.317)" id="text_19"><defs><path d="M8.688 72.906h9.921V28.61q0-11.718 4.235-16.875 4.25-5.14 13.781-5.14 9.469 0 13.719 5.14 4.25 5.157 4.25 16.875v44.297H64.5V27.391q0-14.25-7.063-21.532-7.046-7.28-20.812-7.28-13.828 0-20.89 7.28-7.047 7.282-7.047 21.532z" id="DejaVuSans-85"/><path d="M53.516 70.516V60.89q-5.61 2.687-10.594 4-4.984 1.328-9.625 1.328-8.047 0-12.422-3.125t-4.375-8.89q0-4.845 2.906-7.313 2.907-2.453 11.016-3.97l5.953-1.218q11.031-2.11 16.281-7.406 5.25-5.297 5.25-14.172 0-10.61-7.11-16.078-7.093-5.469-20.812-5.469-5.172 0-11.015 1.172Q13.14.922 6.89 3.219v10.156q6-3.36 11.765-5.078 5.766-1.703 11.328-1.703 8.438 0 13.032 3.312 4.593 3.328 4.593 9.485 0 5.359-3.297 8.39-3.296 3.032-10.812 4.547L27.484 33.5q-11.03 2.188-15.968 6.875-4.922 4.688-4.922 13.047 0 9.672 6.812 15.234 6.813 5.563 18.766 5.563 5.14 0 10.453-.938 5.328-.922 10.89-2.765z" id="DejaVuSans-83"/></defs><use xlink:href="#DejaVuSans-85"/><use x="73.193" xlink:href="#DejaVuSans-83"/></g><path d="M131.4 122.203h32" style="fill:none;stroke:#009e73;stroke-linecap:round;stroke-width:1.5" id="line2d_7"/><g style="fill:#696969" transform="matrix(.16 0 0 -.16 176.2 127.802)" id="text_20"><defs><path d="M9.813 72.906h13.28l32.329-60.984v60.984h9.562V0h-13.28L19.39 60.984V0H9.813z" id="DejaVuSans-78"/></defs><use xlink:href="#DejaVuSans-78"/><use x="74.805" xlink:href="#DejaVuSans-74"/></g><path d="M131.4 145.688h32" style="fill:none;stroke:#d55e00;stroke-linecap:round;stroke-width:1.5" id="line2d_9"/><g style="fill:#696969" transform="matrix(.16 0 0 -.16 176.2 151.287)" id="text_21"><defs><path d="M19.672 34.813V8.108H35.5q7.953 0 11.781 3.297 3.844 3.297 3.844 10.078 0 6.844-3.844 10.078-3.828 3.25-11.781 3.25zm0 29.984V42.828h14.61q7.218 0 10.75 2.703 3.546 2.719 3.546 8.282 0 5.515-3.547 8.25-3.531 2.734-10.75 2.734zm-9.86 8.11h25.204q11.28 0 17.375-4.688Q58.5 63.53 58.5 54.89q0-6.703-3.125-10.657-3.125-3.953-9.188-4.922 7.282-1.562 11.313-6.53 4.031-4.954 4.031-12.376 0-9.765-6.64-15.093Q48.25 0 35.984 0H9.812z" id="DejaVuSans-66"/></defs><use xlink:href="#DejaVuSans-66"/><use x="68.604" xlink:href="#DejaVuSans-101"/><use x="130.127" xlink:href="#DejaVuSans-114"/><use x="169.49" xlink:href="#DejaVuSans-103"/><use x="232.967" xlink:href="#DejaVuSans-101"/><use x="294.49" xlink:href="#DejaVuSans-110"/></g><path d="M131.4 169.173h32" style="fill:none;stroke:#0072b2;stroke-linecap:round;stroke-width:1.5" id="line2d_11"/><g style="fill:#696969" transform="matrix(.16 0 0 -.16 176.2 174.773)" id="text_22"><defs><path d="M44.39 34.188q3.172-1.079 6.172-4.594 3-3.516 6.032-9.672L66.609 0H56l-9.313 18.703q-3.624 7.328-7.015 9.719-3.39 2.39-9.25 2.39h-10.75V0h-9.86v72.906h22.266q12.5 0 18.656-5.234 6.157-5.219 6.157-15.766 0-6.89-3.203-11.437-3.204-4.532-9.297-6.282zM19.673 64.797V38.922h12.406q7.125 0 10.766 3.297 3.64 3.297 3.64 9.687 0 6.39-3.64 9.64-3.64 3.25-10.766 3.25z" id="DejaVuSans-82"/><path d="M54.89 33.016V0h-8.984v32.719q0 7.765-3.031 11.61-3.031 3.858-9.078 3.858-7.281 0-11.484-4.64-4.204-4.625-4.204-12.64V0H9.08v75.984h9.03V46.188q3.235 4.937 7.594 7.374Q30.078 56 35.797 56q9.422 0 14.25-5.828 4.844-5.828 4.844-17.156z" id="DejaVuSans-104"/></defs><use xlink:href="#DejaVuSans-82"/><use x="64.982" xlink:href="#DejaVuSans-117"/><use x="128.361" xlink:href="#DejaVuSans-116"/><use x="167.57" xlink:href="#DejaVuSans-104"/><use x="230.949" xlink:href="#DejaVuSans-101"/><use x="292.473" xlink:href="#DejaVuSans-114"/><use x="333.586" xlink:href="#DejaVuSans-102"/><use x="368.791" xlink:href="#DejaVuSans-111"/><use x="429.973" xlink:href="#DejaVuSans-114"/><use x="469.336" xlink:href="#DejaVuSans-100"/></g></g></g></g><defs><clipPath id="p5f24b91cba"><path d="M117 77.76h725.4v498.96H117z"/></clipPath></defs></svg>