<svg height="864" viewBox="0 0 936 648" width="1248" xmlns="http://www.w3.org/2000/svg" xmlns:xlink="http://www.w3.org/1999/xlink"><defs><style>*{stroke-linecap:butt;stroke-linejoin:round}</style></defs><g id="figure_1"><path d="M0 648h936V0H0z" style="fill:#fff" id="patch_1"/><g id="axes_1"><path d="M117 576.72h725.4V77.76H117z" style="fill:none" id="patch_2"/><path clip-path="url(#p9f0617b732)" d="m149.973 554.04 83.285-.104 5.461-.215 5.462-.452 4.096-.541 4.096-.741 5.46-1.23 8.193-2.161 15.018-3.974 16.384-4.189 9.558-2.172 13.653-2.805 20.48-3.968 16.384-3.288 5.461-1.31 5.462-1.563 4.096-1.375 5.46-2.11 5.462-2.38 5.462-2.654 5.46-2.906 6.828-3.9 15.018-8.736 6.827-3.662 6.826-3.427 8.192-3.818 6.827-2.922 6.827-2.685 13.653-5.037 24.576-8.576 13.653-5.34 8.192-3.469 5.462-2.519 6.826-3.378 4.096-2.207 5.462-3.21 4.096-2.638 4.096-2.864 4.096-3.181 4.096-3.552 2.73-2.624 2.73-2.875 2.731-3.13 2.731-3.368 4.096-5.483 4.096-5.883 13.653-20.462 5.462-8.682 4.096-6.906 4.096-7.487 6.826-13.075 9.558-18.311 8.192-14.588 4.096-7.14 5.461-10.072 5.461-11.293 10.923-23.066 2.73-5.302 4.097-7.336 4.096-6.738 4.096-6.16 5.46-7.594 4.097-5.144 4.096-4.714 4.096-4.243 2.73-2.589 4.097-3.461 4.096-3.067 4.096-2.798 5.46-3.434 10.923-6.415 5.462-3.122 8.192-4.375 8.192-4.149 8.192-4.221 6.826-3.761 8.192-4.758 10.923-6.598 8.192-4.908 5.461-3.013 5.462-2.733 5.461-2.517 5.461-2.27 5.462-2.064 5.46-1.822 1.366-.422h0" style="fill:none;stroke:#000;stroke-linecap:round;stroke-width:1.5" id="line2d_1"/><path clip-path="url(#p9f0617b732)" d="m149.973 554.04 80.554-.09 4.096-.195 2.73-.259 2.732-.501 2.73-.782 2.73-1.12 2.732-1.5 2.73-1.985 2.73-2.371 2.731-2.691 4.096-4.399 21.846-24.75 5.461-5.664 4.096-3.957 2.73-2.384 4.097-3.163 4.096-2.735 4.096-2.314 4.096-1.95 5.461-2.315 6.827-2.469 5.461-1.885 5.461-1.546 6.827-1.601 4.096-.772 5.461-.82 9.558-1.16 4.096-.548 17.749-2.479 34.133-3.39 19.115-2.424 12.288-1.374 16.384-1.621 12.288-1.427 10.922-1.476 6.827-1.09 8.192-1.543 6.827-1.515 8.192-2.043 4.096-1.14 6.826-2.163 4.096-1.499 4.096-1.71 5.462-2.544 4.096-2.212 4.096-2.517 2.73-1.915 2.73-2.13 2.731-2.458 2.731-2.672 2.73-2.919 4.097-4.782 5.461-6.946 10.923-14.52 4.096-5.911 6.826-10.317 5.462-8.712 4.096-6.442 9.557-14.342 4.096-5.702 4.096-5.628 2.73-3.874 4.097-10.498 4.096-11.12 4.096-11.92 5.461-16.753 1.365-4.277 4.096-8.161 4.096-7.658 5.462-9.817 6.826-11.31 2.73-4.254 5.462-7.885 5.462-7.245 4.096-4.921 5.46-6.211 2.732-3.043 8.192-8.373 6.826-7.086 5.461-5.814 5.462-6.028 8.192-9.346 5.461-6.677 6.827-8.863 4.096-5.636 16.384-23.23 5.461-7.13 6.827-8.376 4.096-4.747 4.096-4.413 2.73-2.056 2.731-1.85 2.73-1.56 2.731-1.32 4.096-1.627 2.731-.798 1.365-.322 2.731-1.18 2.73-.968 4.097-1.126 2.73-.638h0" style="fill:none;stroke:#009e73;stroke-linecap:round;stroke-width:1.5" id="line2d_2"/><path clip-path="url(#p9f0617b732)" d="m149.973 554.04 76.458-.084 2.73-.13 4.097-.353 4.096-.644 2.73-.82 2.731-1.208 2.73-1.605 2.732-2.192 1.365-1.385 2.73-3.406 2.731-4.004 4.096-6.615 8.192-13.75 2.73-4.101 2.731-3.857 5.462-6.97 4.096-4.765 2.73-2.884 2.731-2.5 2.73-2.25 2.731-1.952 2.731-1.65 2.73-1.35 4.097-1.754 2.73-.971 4.096-1.167 4.096-.99 6.827-1.387 5.461-1.179 5.462-1.08 6.826-1.232 9.558-1.258 17.749-2.255 19.115-3.329 9.557-1.034 17.75-1.548 17.748-2.087 5.462-.79 6.826-.94 9.558-1.045 9.557-.85 13.653-1.302 10.923-.93 10.923-1.093 8.192-1.03 5.46-.877 5.462-1.049 5.462-1.213 5.46-1.454 5.462-1.701 4.096-1.439 5.462-2.22 4.096-1.876 4.096-2.179 2.73-1.64 2.73-1.917 2.731-2.19 2.731-2.353 2.73-2.65 4.097-4.372 8.192-9.671 5.461-6.693 2.73-3.49 20.48-26.98 13.654-15.871 4.096-4.653 2.73-3.197 4.097-9.007 4.096-9.61 5.461-13.75 5.461-14.594 5.462-9.336 9.557-15.178 6.827-10.057 6.826-9.208 4.096-5.245 4.096-4.984 9.558-10.99 5.46-5.948 5.462-6.219 10.923-13.54 15.018-19.057 8.192-11.342 4.096-6.045 6.827-10.551 8.192-12.668 4.096-5.842 4.096-5.355 4.096-4.896 4.096-4.51 4.096-4.09 2.73-2.529 4.097-3.348 2.73-1.972 4.096-2.511 1.366-.756 5.461-4.15 5.461-3.716 5.462-3.207 2.73-1.517h0" style="fill:none;stroke:#d55e00;stroke-linecap:round;stroke-width:1.5" id="line2d_3"/><path clip-path="url(#p9f0617b732)" d="m149.973 554.04 81.92-.094 4.096-.187 2.73-.374 2.73-.545 2.732-.733 2.73-1.169 2.73-1.371 1.366-.982 4.096-3.539 2.73-2.494 5.462-5.393 5.461-5.05 1.366-1.06 10.922-6.983 2.731-1.59 4.096-2.104 4.096-1.933 2.73-1.013 2.731-.686 10.923-2.073L320.639 513l16.384-1.028 15.019-1.092 10.922-.592 6.827-.577 8.192-.997 12.288-1.995 6.827-.92 10.922-1.029 17.75-1.106 13.653-.577 9.557-.655 9.557-.873 16.384-1.605 6.827-.53 5.461-.514 8.192-.67 9.558-.484 5.46-1.153 2.732-.748 2.73-.951 2.73-1.232 5.462-2.696 10.923-4.178 2.73-1.106 1.366-.483 4.096-1.996 2.73-1.574 2.731-1.652 5.462-4.146 5.46-4.739 2.731-2.883 2.731-3.258 6.827-8.87 4.096-4.862 4.096-5.238 2.73-3.46 4.096-6.032 4.096-6.095 5.462-9.087 4.096-6.453 2.73-3.632 2.731-3.18 2.73-3.6 2.731-4.006 4.096-5.284 4.096-6.094 1.366-2.307 5.461-8.261 2.73-4.412 2.731-4.707 5.462-10.256 4.096-7.653 2.73-5.3 5.462-8.386 2.73-3.46 6.827-8.152 4.096-4.879 1.365-1.652 1.366-1.325 2.73-3.211 4.096-5.097 8.192-8.65 2.73-2.713 1.366-1.574 2.73-2.416 6.828-5.627 2.73-2.167 2.73-2.291 1.366-1.091 4.096-3.928 2.73-2.728 10.923-11.628 4.096-4.551 4.096-4.536 4.096-4.411 5.462-6.25 8.192-9.244 5.461-6.749 1.365-1.637 2.731-1.792v-1.528l4.096-4.8 4.096-4.427 5.461-5.518 2.731-2.26 1.365-.904 2.731-2.167 4.096-2.93 2.73-1.777 10.923-5.908 6.827-2.93 2.73-.935 5.462-1.107 1.365-.234h0" style="fill:none;stroke:#0072b2;stroke-linecap:round;stroke-width:1.5" id="line2d_4"/><path d="M117 576.72V77.76" style="fill:none;stroke:#d3d3d3;stroke-linecap:square;stroke-linejoin:miter;stroke-width:1.25" id="patch_3"/><path d="M117 576.72h725.4" style="fill:none;stroke:#d3d3d3;stroke-linecap:square;stroke-linejoin:miter;stroke-width:1.25" id="patch_4"/><g id="matplotlib.axis_1"><g id="xtick_1"><g style="fill:#696969" transform="matrix(.16 0 0 -.16 110.334 598.378)" id="text_1"><defs><path d="M9.813 72.906h9.859V5.078q0-13.187-5-19.14-5-5.954-16.094-5.954h-3.75v8.297h3.078q6.531 0 9.219 3.672Q9.813-4.39 9.813 5.078z" id="DejaVuSans-74"/><path d="M34.281 27.484q-10.89 0-15.093-2.484-4.204-2.484-4.204-8.5 0-4.781 3.157-7.594 3.156-2.797 8.562-2.797 7.485 0 12 5.297 4.516 5.297 4.516 14.078v2zm17.922 3.72V0H43.22v8.297Q40.14 3.328 35.547.953q-4.594-2.375-11.234-2.375-8.391 0-13.36 4.719Q6 8.016 6 15.922q0 9.219 6.172 13.906 6.187 4.688 18.437 4.688h12.61v.89q0 6.203-4.078 9.594-4.078 3.39-11.453 3.39-4.688 0-9.141-1.124-4.438-1.125-8.531-3.375v8.312q4.921 1.906 9.562 2.844 4.64.953 9.031.953 11.875 0 17.735-6.156 5.86-6.14 5.86-18.64z" id="DejaVuSans-97"/><path d="M54.89 33.016V0h-8.984v32.719q0 7.765-3.031 11.61-3.031 3.858-9.078 3.858-7.281 0-11.484-4.64-4.204-4.625-4.204-12.64V0H9.08v54.688h9.03v-8.5q3.235 4.937 7.594 7.374Q30.078 56 35.797 56q9.422 0 14.25-5.828 4.844-5.828 4.844-17.156z" id="DejaVuSans-110"/></defs><use xlink:href="#DejaVuSans-74"/><use x="29.492" xlink:href="#DejaVuSans-97"/><use x="90.771" xlink:href="#DejaVuSans-110"/></g></g><g id="xtick_2"><g style="fill:#696969" transform="matrix(.16 0 0 -.16 189.492 598.378)" id="text_2"><defs><path d="M9.813 72.906h14.703l18.593-49.61 18.703 49.61h14.704V0H66.89v64.016l-18.797-50h-9.907l-18.796 50V0H9.813z" id="DejaVuSans-77"/><path d="M41.11 46.297q-1.516.875-3.297 1.281Q36.03 48 33.89 48q-7.625 0-11.703-4.953-4.079-4.953-4.079-14.234V0H9.08v54.688h9.03v-8.5q2.844 4.984 7.375 7.39Q30.031 56 36.531 56q.922 0 2.047-.125 1.125-.11 2.484-.36z" id="DejaVuSans-114"/></defs><use xlink:href="#DejaVuSans-77"/><use x="86.279" xlink:href="#DejaVuSans-97"/><use x="147.559" xlink:href="#DejaVuSans-114"/></g></g><g id="xtick_3"><g style="fill:#696969" transform="matrix(.16 0 0 -.16 271.331 598.378)" id="text_3"><defs><path d="M32.172-5.078q-3.797-9.766-7.422-12.735-3.61-2.984-9.656-2.984H7.906v7.516h5.282q3.703 0 5.75 1.765Q21-9.766 23.483-3.219l1.61 4.094-22.11 53.813H12.5l17.094-42.766 17.093 42.766h9.516z" id="DejaVuSans-121"/></defs><use xlink:href="#DejaVuSans-77"/><use x="86.279" xlink:href="#DejaVuSans-97"/><use x="147.559" xlink:href="#DejaVuSans-121"/></g></g><g id="xtick_4"><g style="fill:#696969" transform="matrix(.16 0 0 -.16 361.504 598.378)" id="text_4"><defs><path d="M8.5 21.578v33.11h8.984V21.922q0-7.766 3.016-11.656 3.031-3.875 9.094-3.875 7.265 0 11.484 4.64 4.234 4.64 4.234 12.656v31h8.985V0h-8.984v8.406Q42.047 3.422 37.718 1q-4.313-2.422-10.032-2.422-9.421 0-14.312 5.86Q8.5 10.296 8.5 21.578zM31.11 56z" id="DejaVuSans-117"/><path d="M9.422 75.984h8.984V0H9.422z" id="DejaVuSans-108"/></defs><use xlink:href="#DejaVuSans-74"/><use x="29.492" xlink:href="#DejaVuSans-117"/><use x="92.871" xlink:href="#DejaVuSans-108"/></g></g><g id="xtick_5"><g style="fill:#696969" transform="matrix(.16 0 0 -.16 440.727 598.378)" id="text_5"><defs><path d="M53.516 70.516V60.89q-5.61 2.687-10.594 4-4.984 1.328-9.625 1.328-8.047 0-12.422-3.125t-4.375-8.89q0-4.845 2.906-7.313 2.907-2.453 11.016-3.97l5.953-1.218q11.031-2.11 16.281-7.406 5.25-5.297 5.25-14.172 0-10.61-7.11-16.078-7.093-5.469-20.812-5.469-5.172 0-11.015 1.172Q13.14.922 6.89 3.219v10.156q6-3.36 11.765-5.078 5.766-1.703 11.328-1.703 8.438 0 13.032 3.312 4.593 3.328 4.593 9.485 0 5.359-3.297 8.39-3.296 3.032-10.812 4.547L27.484 33.5q-11.03 2.188-15.968 6.875-4.922 4.688-4.922 13.047 0 9.672 6.812 15.234 6.813 5.563 18.766 5.563 5.14 0 10.453-.938 5.328-.922 10.89-2.765z" id="DejaVuSans-83"/><path d="M56.203 29.594v-4.39H14.891q.593-9.282 5.593-14.142 5-4.859 13.938-4.859 5.172 0 10.031 1.266 4.86 1.265 9.656 3.812v-8.5Q49.266.734 44.187-.344 39.11-1.422 33.892-1.422q-13.094 0-20.735 7.61-7.64 7.625-7.64 20.625 0 13.421 7.25 21.296Q20.016 56 32.328 56q11.031 0 17.453-7.11 6.422-7.093 6.422-19.296zm-8.984 2.64q-.094 7.36-4.125 11.75-4.032 4.407-10.672 4.407-7.516 0-12.031-4.25-4.516-4.25-5.203-11.97z" id="DejaVuSans-101"/><path d="M18.11 8.203v-29H9.077v75.484h9.031v-8.296q2.844 4.875 7.157 7.234Q29.594 56 35.594 56q9.968 0 16.187-7.906 6.235-7.907 6.235-20.797T51.78 6.484q-6.218-7.906-16.187-7.906-6 0-10.328 2.375-4.313 2.375-7.157 7.25zm30.578 19.094q0 9.906-4.079 15.547-4.078 5.64-11.203 5.64-7.14 0-11.218-5.64-4.079-5.64-4.079-15.547 0-9.906 4.078-15.547 4.079-5.64 11.22-5.64 7.124 0 11.202 5.64t4.078 15.547z" id="DejaVuSans-112"/></defs><use xlink:href="#DejaVuSans-83"/><use x="63.477" xlink:href="#DejaVuSans-101"/><use x="125" xlink:href="#DejaVuSans-112"/></g></g><g id="xtick_6"><g style="fill:#696969" transform="matrix(.16 0 0 -.16 523.477 598.378)" id="text_6"><defs><path d="M9.813 72.906h13.28l32.329-60.984v60.984h9.562V0h-13.28L19.39 60.984V0H9.813z" id="DejaVuSans-78"/><path d="M30.61 48.39q-7.22 0-11.422-5.64-4.204-5.64-4.204-15.453 0-9.813 4.172-15.453 4.188-5.64 11.453-5.64 7.188 0 11.375 5.655 4.203 5.672 4.203 15.438 0 9.719-4.203 15.406-4.187 5.688-11.375 5.688zm0 7.61q11.718 0 18.406-7.625 6.703-7.61 6.703-21.078 0-13.422-6.703-21.078-6.688-7.64-18.407-7.64-11.765 0-18.437 7.64-6.656 7.656-6.656 21.078 0 13.469 6.656 21.078Q18.844 56 30.609 56z" id="DejaVuSans-111"/><path d="M2.984 54.688H12.5L29.594 8.797l17.093 45.89h9.516L35.687 0H23.485z" id="DejaVuSans-118"/></defs><use xlink:href="#DejaVuSans-78"/><use x="74.805" xlink:href="#DejaVuSans-111"/><use x="135.986" xlink:href="#DejaVuSans-118"/></g></g><g id="xtick_7"><g style="fill:#696969" transform="matrix(.16 0 0 -.16 610.045 598.378)" id="text_7"><use xlink:href="#DejaVuSans-74"/><use x="29.492" xlink:href="#DejaVuSans-97"/><use x="90.771" xlink:href="#DejaVuSans-110"/></g></g><g id="xtick_8"><g style="fill:#696969" transform="matrix(.16 0 0 -.16 687.838 598.378)" id="text_8"><use xlink:href="#DejaVuSans-77"/><use x="86.279" xlink:href="#DejaVuSans-97"/><use x="147.559" xlink:href="#DejaVuSans-114"/></g></g><g id="xtick_9"><g style="fill:#696969" transform="matrix(.16 0 0 -.16 769.677 598.378)" id="text_9"><use xlink:href="#DejaVuSans-77"/><use x="86.279" xlink:href="#DejaVuSans-97"/><use x="147.559" xlink:href="#DejaVuSans-121"/></g></g></g><g id="matplotlib.axis_2"><g id="ytick_1"><g style="fill:#696969" transform="matrix(.16 0 0 -.16 97.32 560.119)" id="text_10"><defs><path d="M31.781 66.406q-7.61 0-11.453-7.5Q16.5 51.422 16.5 36.375q0-14.984 3.828-22.484 3.844-7.5 11.453-7.5 7.672 0 11.5 7.5 3.844 7.5 3.844 22.484 0 15.047-3.844 22.531-3.828 7.5-11.5 7.5zm0 7.813q12.266 0 18.735-9.703 6.468-9.688 6.468-28.141 0-18.406-6.468-28.11-6.47-9.687-18.735-9.687-12.25 0-18.718 9.688-6.47 9.703-6.47 28.109 0 18.453 6.47 28.14Q19.53 74.22 31.78 74.22z" id="DejaVuSans-48"/></defs><use xlink:href="#DejaVuSans-48"/></g></g><g id="ytick_2"><g style="fill:#696969" transform="matrix(.16 0 0 -.16 66.78 480.238)" id="text_11"><defs><path d="M19.188 8.297h34.421V0H7.33v8.297q5.609 5.812 15.296 15.594 9.703 9.797 12.188 12.64 4.734 5.313 6.609 9 1.89 3.688 1.89 7.25 0 5.813-4.078 9.469-4.078 3.672-10.625 3.672-4.64 0-9.797-1.61-5.14-1.609-11-4.89v9.969Q13.767 71.78 18.938 73q5.188 1.219 9.485 1.219 11.328 0 18.062-5.672 6.735-5.656 6.735-15.125 0-4.5-1.688-8.531-1.672-4.016-6.125-9.485-1.218-1.422-7.765-8.187-6.532-6.766-18.453-18.922z" id="DejaVuSans-50"/></defs><use xlink:href="#DejaVuSans-50"/><use x="63.623" xlink:href="#DejaVuSans-48"/><use x="127.246" xlink:href="#DejaVuSans-48"/><use x="190.869" xlink:href="#DejaVuSans-48"/></g></g><g id="ytick_3"><g style="fill:#696969" transform="matrix(.16 0 0 -.16 66.78 400.356)" id="text_12"><defs><path d="M37.797 64.313 12.89 25.39h24.906zm-2.594 8.593H47.61V25.391h10.407v-8.203H47.609V0h-9.812v17.188H4.89v9.515z" id="DejaVuSans-52"/></defs><use xlink:href="#DejaVuSans-52"/><use x="63.623" xlink:href="#DejaVuSans-48"/><use x="127.246" xlink:href="#DejaVuSans-48"/><use x="190.869" xlink:href="#DejaVuSans-48"/></g></g><g id="ytick_4"><g style="fill:#696969" transform="matrix(.16 0 0 -.16 66.78 320.475)" id="text_13"><defs><path d="M33.016 40.375q-6.641 0-10.532-4.547-3.875-4.531-3.875-12.437 0-7.86 3.875-12.438 3.891-4.562 10.532-4.562 6.64 0 10.515 4.562 3.875 4.578 3.875 12.438 0 7.906-3.875 12.437-3.875 4.547-10.515 4.547zm19.578 30.922v-8.984q-3.719 1.75-7.5 2.671-3.782.938-7.5.938-9.766 0-14.922-6.594-5.14-6.594-5.875-19.922 2.875 4.25 7.219 6.516 4.359 2.266 9.578 2.266 10.984 0 17.36-6.672 6.374-6.657 6.374-18.125 0-11.235-6.64-18.032-6.641-6.78-17.672-6.78-12.657 0-19.344 9.687-6.688 9.703-6.688 28.109 0 17.281 8.204 27.563 8.203 10.28 22.015 10.28 3.719 0 7.5-.734t7.89-2.187z" id="DejaVuSans-54"/></defs><use xlink:href="#DejaVuSans-54"/><use x="63.623" xlink:href="#DejaVuSans-48"/><use x="127.246" xlink:href="#DejaVuSans-48"/><use x="190.869" xlink:href="#DejaVuSans-48"/></g></g><g id="ytick_5"><g style="fill:#696969" transform="matrix(.16 0 0 -.16 66.78 240.594)" id="text_14"><defs><path d="M31.781 34.625q-7.031 0-11.062-3.766-4.016-3.765-4.016-10.343 0-6.594 4.016-10.36Q24.75 6.391 31.78 6.391q7.032 0 11.078 3.78 4.063 3.798 4.063 10.345 0 6.578-4.031 10.343-4.016 3.766-11.11 3.766zm-9.86 4.188q-6.343 1.562-9.89 5.906Q8.5 49.079 8.5 55.329q0 8.733 6.219 13.812 6.234 5.078 17.062 5.078 10.89 0 17.094-5.078 6.203-5.079 6.203-13.813 0-6.25-3.547-10.61-3.531-4.343-9.828-5.906 7.125-1.656 11.094-6.5 3.984-4.828 3.984-11.796 0-10.61-6.468-16.282-6.47-5.656-18.532-5.656-12.047 0-18.531 5.656-6.469 5.672-6.469 16.282 0 6.968 4 11.797 4.016 4.843 11.14 6.5zM18.314 54.39q0-5.657 3.53-8.828 3.548-3.172 9.938-3.172 6.36 0 9.938 3.172 3.593 3.171 3.593 8.828 0 5.672-3.593 8.843-3.578 3.172-9.938 3.172-6.39 0-9.937-3.172-3.532-3.172-3.532-8.843z" id="DejaVuSans-56"/></defs><use xlink:href="#DejaVuSans-56"/><use x="63.623" xlink:href="#DejaVuSans-48"/><use x="127.246" xlink:href="#DejaVuSans-48"/><use x="190.869" xlink:href="#DejaVuSans-48"/></g></g><g id="ytick_6"><g style="fill:#696969" transform="matrix(.16 0 0 -.16 56.6 160.713)" id="text_15"><defs><path d="M12.406 8.297h16.11v55.625l-17.532-3.516v8.985l17.438 3.515h9.86V8.296H54.39V0H12.406z" id="DejaVuSans-49"/></defs><use xlink:href="#DejaVuSans-49"/><use x="63.623" xlink:href="#DejaVuSans-48"/><use x="127.246" xlink:href="#DejaVuSans-48"/><use x="190.869" xlink:href="#DejaVuSans-48"/><use x="254.492" xlink:href="#DejaVuSans-48"/></g></g><g style="fill:#696969" transform="matrix(0 -.2 -.2 0 48.44 379.813)" id="text_16"><defs><path d="M51.125 44H36.922l-4.11-16.313h14.313zm-7.328 27.781-5.078-20.265h14.265L58.11 71.78h7.813L60.89 51.516h15.234V44h-17.14l-4-16.313h15.53V20.22H53.079L48 0h-7.813l5.032 20.219H30.906L25.875 0h-7.86l5.079 20.219H7.719v7.468h17.187L29 44H13.281v7.516h17.625l4.985 20.265z" id="DejaVuSans-35"/><path d="M37.11 75.984V68.5h-8.594q-4.828 0-6.72-1.953-1.874-1.953-1.874-7.031v-4.828h14.797v-6.985H19.922V0H10.89v47.703H2.297v6.984h8.594V58.5q0 9.125 4.25 13.297 4.25 4.187 13.468 4.187z" id="DejaVuSans-102"/><path d="M48.781 52.594v-8.407q-3.812 2.11-7.64 3.157-3.828 1.047-7.735 1.047-8.75 0-13.593-5.547-4.829-5.532-4.829-15.547 0-10.016 4.829-15.563 4.843-5.53 13.593-5.53 3.907 0 7.735 1.046 3.828 1.047 7.64 3.156V2.094Q45.016.344 40.984-.531q-4.015-.89-8.562-.89-12.36 0-19.64 7.765-7.266 7.765-7.266 20.953 0 13.375 7.343 21.031Q20.22 56 33.016 56q4.14 0 8.093-.86 3.953-.843 7.672-2.546z" id="DejaVuSans-99"/><path d="M44.281 53.078v-8.5q-3.797 1.953-7.906 2.922-4.094.984-8.5.984-6.688 0-10.031-2.047-3.344-2.046-3.344-6.156 0-3.125 2.39-4.906 2.391-1.781 9.626-3.39l3.078-.688q9.562-2.047 13.593-5.781 4.032-3.735 4.032-10.422 0-7.625-6.032-12.078-6.03-4.438-16.578-4.438-4.39 0-9.156.86Q10.688.296 5.422 2v9.281q4.984-2.594 9.812-3.89 4.829-1.282 9.579-1.282 6.343 0 9.75 2.172 3.421 2.172 3.421 6.125 0 3.656-2.468 5.61-2.453 1.953-10.813 3.765l-3.125.735q-8.344 1.75-12.062 5.39-3.704 3.64-3.704 9.985 0 7.718 5.47 11.906Q16.75 56 26.811 56q4.97 0 9.36-.734 4.406-.72 8.11-2.188z" id="DejaVuSans-115"/></defs><use xlink:href="#DejaVuSans-35"/><use x="83.789" xlink:href="#DejaVuSans-32"/><use x="115.576" xlink:href="#DejaVuSans-111"/><use x="176.758" xlink:href="#DejaVuSans-102"/><use x="211.963" xlink:href="#DejaVuSans-32"/><use x="243.75" xlink:href="#DejaVuSans-99"/><use x="298.73" xlink:href="#DejaVuSans-97"/><use x="360.01" xlink:href="#DejaVuSans-115"/><use x="412.109" xlink:href="#DejaVuSans-101"/><use x="473.633" xlink:href="#DejaVuSans-115"/></g></g><g style="fill:#696969" transform="matrix(.24 0 0 -.24 202.185 71.76)" id="text_17"><defs><path d="M-.297 72.906h61.672v-8.312H35.5V0h-9.906v64.594H-.296z" id="DejaVuSans-84"/><path d="M18.313 70.219V54.688h18.5v-6.985h-18.5V18.016q0-6.688 1.828-8.594 1.828-1.906 7.453-1.906h9.218V0h-9.218q-10.407 0-14.36 3.875-3.953 3.89-3.953 14.14v29.688H2.687v6.984h6.594V70.22z" id="DejaVuSans-116"/><path d="M25.39 72.906h8.297L8.297-9.28H0z" id="DejaVuSans-47"/><path d="M9.813 72.906h9.859V42.094L52.39 72.906h12.703L28.906 38.922 67.672 0H54.688L19.672 35.11V0h-9.86z" id="DejaVuSans-75"/><path d="M9.422 54.688h8.984V0H9.422zm0 21.296h8.984v-11.39H9.422z" id="DejaVuSans-105"/><path d="M45.406 46.39v29.594h8.985V0h-8.985v8.203Q42.578 3.328 38.25.953q-4.313-2.375-10.375-2.375-9.906 0-16.14 7.906-6.22 7.922-6.22 20.813 0 12.89 6.22 20.797Q17.968 56 27.874 56q6.063 0 10.375-2.375 4.328-2.36 7.156-7.234zm-30.61-19.093q0-9.906 4.079-15.547 4.078-5.64 11.203-5.64 7.125 0 11.219 5.64 4.11 5.64 4.11 15.547 0 9.906-4.11 15.547-4.094 5.64-11.219 5.64-7.125 0-11.203-5.64-4.078-5.64-4.078-15.547z" id="DejaVuSans-100"/><path d="M4.89 31.39h26.313v-8H4.891z" id="DejaVuSans-45"/><path d="M45.406 27.984q0 9.766-4.031 15.125-4.016 5.375-11.297 5.375-7.219 0-11.25-5.375-4.031-5.359-4.031-15.125 0-9.718 4.031-15.093t11.25-5.375q7.281 0 11.297 5.375 4.031 5.375 4.031 15.093zm8.985-21.203q0-13.953-6.203-20.765Q42-20.797 29.203-20.797q-4.734 0-8.937.703-4.203.703-8.157 2.172v8.735q3.954-2.141 7.813-3.157 3.86-1.031 7.86-1.031 8.843 0 13.234 4.61 4.39 4.609 4.39 13.937v4.453q-2.781-4.844-7.125-7.234Q33.938 0 27.875 0 17.828 0 11.672 7.656q-6.156 7.672-6.156 20.328 0 12.688 6.156 20.344Q17.828 56 27.875 56q6.063 0 10.406-2.39 4.344-2.391 7.125-7.22v8.297h8.985z" id="DejaVuSans-103"/></defs><use xlink:href="#DejaVuSans-84"/><use x="44.084" xlink:href="#DejaVuSans-111"/><use x="105.266" xlink:href="#DejaVuSans-116"/><use x="144.475" xlink:href="#DejaVuSans-97"/><use x="205.754" xlink:href="#DejaVuSans-108"/><use x="233.537" xlink:href="#DejaVuSans-32"/><use x="265.324" xlink:href="#DejaVuSans-99"/><use x="320.305" xlink:href="#DejaVuSans-97"/><use x="381.584" xlink:href="#DejaVuSans-115"/><use x="433.684" xlink:href="#DejaVuSans-101"/><use x="495.207" xlink:href="#DejaVuSans-115"/><use x="547.307" xlink:href="#DejaVuSans-32"/><use x="579.094" xlink:href="#DejaVuSans-47"/><use x="612.785" xlink:href="#DejaVuSans-32"/><use x="644.572" xlink:href="#DejaVuSans-49"/><use x="708.195" xlink:href="#DejaVuSans-48"/><use x="771.818" xlink:href="#DejaVuSans-48"/><use x="835.441" xlink:href="#DejaVuSans-75"/><use x="901.018" xlink:href="#DejaVuSans-32"/><use x="932.805" xlink:href="#DejaVuSans-114"/><use x="971.668" xlink:href="#DejaVuSans-101"/><use x="1033.191" xlink:href="#DejaVuSans-115"/><use x="1085.291" xlink:href="#DejaVuSans-105"/><use x="1113.074" xlink:href="#DejaVuSans-100"/><use x="1176.551" xlink:href="#DejaVuSans-101"/><use x="1238.074" xlink:href="#DejaVuSans-110"/><use x="1301.453" xlink:href="#DejaVuSans-116"/><use x="1340.662" xlink:href="#DejaVuSans-115"/><use x="1392.762" xlink:href="#DejaVuSans-32"/><use x="1424.549" xlink:href="#DejaVuSans-45"/><use x="1460.633" xlink:href="#DejaVuSans-45"/><use x="1496.717" xlink:href="#DejaVuSans-32"/><use x="1528.504" xlink:href="#DejaVuSans-49"/><use x="1592.127" xlink:href="#DejaVuSans-52"/><use x="1655.75" xlink:href="#DejaVuSans-32"/><use x="1687.537" xlink:href="#DejaVuSans-100"/><use x="1751.014" xlink:href="#DejaVuSans-97"/><use x="1812.293" xlink:href="#DejaVuSans-121"/><use x="1871.473" xlink:href="#DejaVuSans-32"/><use x="1903.26" xlink:href="#DejaVuSans-97"/><use x="1964.539" xlink:href="#DejaVuSans-118"/><use x="2023.719" xlink:href="#DejaVuSans-101"/><use x="2085.242" xlink:href="#DejaVuSans-114"/><use x="2126.355" xlink:href="#DejaVuSans-97"/><use x="2187.635" xlink:href="#DejaVuSans-103"/><use x="2251.111" xlink:href="#DejaVuSans-101"/></g><g id="legend_1"><path d="M128.2 184.5h136.45q3.2 0 3.2-3.2V88.96q0-3.2-3.2-3.2H128.2q-3.2 0-3.2 3.2v92.34q0 3.2 3.2 3.2z" style="fill:none;opacity:.8;stroke:#ccc;stroke-linejoin:miter" id="patch_5"/><path d="M131.4 98.718h32" style="fill:none;stroke:#000;stroke-linecap:round;stroke-width:1.5" id="line2d_5"/><g style="fill:#696969" transform="matrix(.16 0 0 -.16 176.2 104.317)" id="text_18"><defs><path d="M8.688 72.906h9.921V28.61q0-11.718 4.235-16.875 4.25-5.14 13.781-5.14 9.469 0 13.719 5.14 4.25 5.157 4.25 16.875v44.297H64.5V27.391q0-14.25-7.063-21.532-7.046-7.28-20.812-7.28-13.828 0-20.89 7.28-7.047 7.282-7.047 21.532z" id="DejaVuSans-85"/></defs><use xlink:href="#DejaVuSans-85"/><use x="73.193" xlink:href="#DejaVuSans-83"/></g><path d="M131.4 122.203h32" style="fill:none;stroke:#009e73;stroke-linecap:round;stroke-width:1.5" id="line2d_7"/><g style="fill:#696969" transform="matrix(.16 0 0 -.16 176.2 127.802)" id="text_19"><use xlink:href="#DejaVuSans-78"/><use x="74.805" xlink:href="#DejaVuSans-74"/></g><path d="M131.4 145.688h32" style="fill:none;stroke:#d55e00;stroke-linecap:round;stroke-width:1.5" id="line2d_9"/><g style="fill:#696969" transform="matrix(.16 0 0 -.16 176.2 151.287)" id="text_20"><defs><path d="M19.672 34.813V8.108H35.5q7.953 0 11.781 3.297 3.844 3.297 3.844 10.078 0 6.844-3.844 10.078-3.828 3.25-11.781 3.25zm0 29.984V42.828h14.61q7.218 0 10.75 2.703 3.546 2.719 3.546 8.282 0 5.515-3.547 8.25-3.531 2.734-10.75 2.734zm-9.86 8.11h25.204q11.28 0 17.375-4.688Q58.5 63.53 58.5 54.89q0-6.703-3.125-10.657-3.125-3.953-9.188-4.922 7.282-1.562 11.313-6.53 4.031-4.954 4.031-12.376 0-9.765-6.64-15.093Q48.25 0 35.984 0H9.812z" id="DejaVuSans-66"/></defs><use xlink:href="#DejaVuSans-66"/><use x="68.604" xlink:href="#DejaVuSans-101"/><use x="130.127" xlink:href="#DejaVuSans-114"/><use x="169.49" xlink:href="#DejaVuSans-103"/><use x="232.967" xlink:href="#DejaVuSans-101"/><use x="294.49" xlink:href="#DejaVuSans-110"/></g><path d="M131.4 169.173h32" style="fill:none;stroke:#0072b2;stroke-linecap:round;stroke-width:1.5" id="line2d_11"/><g style="fill:#696969" transform="matrix(.16 0 0 -.16 176.2 174.773)" id="text_21"><defs><path d="M44.39 34.188q3.172-1.079 6.172-4.594 3-3.516 6.032-9.672L66.609 0H56l-9.313 18.703q-3.624 7.328-7.015 9.719-3.39 2.39-9.25 2.39h-10.75V0h-9.86v72.906h22.266q12.5 0 18.656-5.234 6.157-5.219 6.157-15.766 0-6.89-3.203-11.437-3.204-4.532-9.297-6.282zM19.673 64.797V38.922h12.406q7.125 0 10.766 3.297 3.64 3.297 3.64 9.687 0 6.39-3.64 9.64-3.64 3.25-10.766 3.25z" id="DejaVuSans-82"/><path d="M54.89 33.016V0h-8.984v32.719q0 7.765-3.031 11.61-3.031 3.858-9.078 3.858-7.281 0-11.484-4.64-4.204-4.625-4.204-12.64V0H9.08v75.984h9.03V46.188q3.235 4.937 7.594 7.374Q30.078 56 35.797 56q9.422 0 14.25-5.828 4.844-5.828 4.844-17.156z" id="DejaVuSans-104"/></defs><use xlink:href="#DejaVuSans-82"/><use x="64.982" xlink:href="#DejaVuSans-117"/><use x="128.361" xlink:href="#DejaVuSans-116"/><use x="167.57" xlink:href="#DejaVuSans-104"/><use x="230.949" xlink:href="#DejaVuSans-101"/><use x="292.473" xlink:href="#DejaVuSans-114"/><use x="333.586" xlink:href="#DejaVuSans-102"/><use x="368.791" xlink:href="#DejaVuSans-111"/><use x="429.973" xlink:href="#DejaVuSans-114"/><use x="469.336" xlink:href="#DejaVuSans-100"/></g></g></g></g><defs><clipPath id="p9f0617b732"><path d="M117 77.76h725.4v498.96H117z"/></clipPath></defs></svg>