<svg height="864" viewBox="0 0 936 648" width="1248" xmlns="http://www.w3.org/2000/svg" xmlns:xlink="http://www.w3.org/1999/xlink"><defs><style>*{stroke-linecap:butt;stroke-linejoin:round}</style></defs><g id="figure_1"><path d="M0 648h936V0H0z" style="fill:#fff" id="patch_1"/><g id="axes_1"><path d="M117 576.72h725.4V77.76H117z" style="fill:none" id="patch_2"/><g id="PolyCollection_1"><defs><path d="M151.276-93.96H224.259l1.303-.527 1.304.012 1.303.014 1.303-.25 1.303.021 1.304-.772 1.303-.754 1.303-1.529 1.304-.165 1.303-.682 1.303-.397 1.303-1.178 1.304-1.946 1.303-1.638 1.303-.272 1.303-1.321 1.304-3.95 1.303-2.55 1.303-.366 1.304-.886 1.303-.352 1.303-2.232 1.303-1.43 1.304-.112 1.303.382 1.303-1.278 1.303-.8 1.304-.862 1.303-1.198 1.303-1.267 1.303-.801 1.304-.066 1.303-1.461 1.303-.972 1.304-1.545 1.303-1.577 1.303-2.12 1.303-.775 1.304-.23 1.303-1.551 1.303-.195 1.303-.718 1.304-.956 1.303-.92 1.303-.906 1.304-.109 1.303-.117 1.303-.13 1.303-.14 1.304-.166 1.303-.462 1.303-.214 1.303-.223 1.304-1.297 1.303-1.292 1.303-.477 1.303-.468 1.304-.457 1.303-.173 1.303-.144 1.304-.116 1.303-.353 1.303-.06 1.303-.044 1.304-.042 1.303-.043 1.303-.043 1.303-.053 1.304-.322 1.303-.053 1.303-.057 1.304-.595 1.303-.065 1.303-.07 1.303-.875 1.304-.33 1.303-.051 1.303-.036 1.303-.02 1.304-.002 1.303.017 1.303.024 1.304-.244 1.303-.243 1.303.02 1.303-.252 1.304.01 1.303.001 1.303-.005 1.303-.28 1.304-.016 1.303-.021 1.303-.024 1.303-.027 1.304-.028 1.303-.562 1.303-.024 1.304-.285 1.303-.276 1.303-.268 1.303.008 1.304.016 1.303-1.047 1.303.031 1.303-.231 1.304.04 1.303.042 1.303.04 1.304.037 1.303-1.563 1.303-.215 1.303.054 1.304-.215 1.303-.484 1.303.05 1.303.042 1.304-.499 1.303-.236 1.303.026 1.303.017 1.304.01 1.303-.001 1.303-.012 1.304-.026 1.303-.837 1.303-.304 1.303-.307 1.304-.042 1.303-.042 1.303-.04 1.303-.312 1.304-.045 1.303-.045 1.303-.31 1.304-.035 1.303-.027 1.303-.015 1.303-.285 1.304-.02 1.303-.286 1.303-.017 1.303-.019 1.304-.02 1.303-.02 1.303-.022 1.304-.026 1.303-.298 1.303-.03 1.303-.294 1.304-.022 1.303-.016 1.303-.274 1.303-.002 1.304-.001 1.303-.268 1.303-.264 1.303.007 1.304.01 1.303.011 1.303-.522 1.304-.248 1.303-.244 1.303.026 1.303.027 1.304.026 1.303-.243 1.303.023 1.303-1.047 1.304.029 1.303.028 1.303.025 1.304.022 1.303.018 1.303-.787 1.303.016 1.304.013 1.303.009 1.303.003 1.303-.002 1.304-.277 1.303-.016 1.303-.552 1.303-.284 1.304-.016 1.303-.017 1.303-.017 1.304-.814 1.303-.006 1.303-.27 1.303.001 1.304.002 1.303.004 1.303.006 1.303.005 1.304.005 1.303-.004 1.303-.013 1.304-.02 1.303-.027 1.303-.033 1.303-.569 1.304-.304 1.303-1.368 1.303-2.409 1.303-.488 1.304.083 1.303.105 1.303-.413 1.304-1.46 1.303-.099 1.303-1.153 1.303-1.13 1.304-.576 1.303-.564 1.303-.3 1.303.219 1.304-.88 1.303.158 1.303.119 1.303.08 1.304.036 1.303-1.606 1.303-1.099 1.304-1.387 1.303-1.398 1.303-1.397 1.303-.052 1.304-.045 1.303-3.23 1.303-.242 1.303-1.812 1.304-.716 1.303-1.23 1.303.129 1.304.135 1.303-4.924 1.303-.874 1.303.208 1.304-4.327 1.303-1.622 1.303.256 1.303.235 1.304-4.062 1.303-2.975 1.303-2.957 1.303-1.866 1.304-3.443 1.303-1.001 1.303.343 1.304-3.415 1.303-1.81 1.303-1.29 1.303.27 1.304.202 1.303-5.192 1.303.138 1.303-3.67 1.304-1.832 1.303-2.947 1.303-4.3 1.304-6.42 1.303-2.879 1.303.12 1.303-2.815 1.304-3.053 1.303-1.137 1.303-4.597 1.303-2.161 1.304.252 1.303.242 1.303-3.54 1.304-2.235 1.303-1.758 1.303.035 1.303-4.606 1.304-.122 1.303-.194 1.303-7.478 1.303-2.144 1.304-7.497 1.303-1.553 1.303-.157 1.303-.142 1.304-.117 1.303-8.102 1.303-1.32 1.304-4.987 1.303-2.767 1.303.191 1.303.16 1.304.122 1.303-8.732 1.303-4.693 1.303-3.595 1.304-3.848 1.303-3.03 1.303-2.473 1.304.213 1.303-5.689 1.303-2.738 1.303-3.808 1.304-2.446 1.303-2.447 1.303.22 1.303.192 1.304.089 1.303-5.615 1.303-2.768 1.303-1.262 1.304-1.08 1.303-.343 1.303-.391 1.304-8.746 1.303-1.516 1.303-2.08 1.303-2.1 1.304-4.739 1.303-1.7 1.303-.248 1.303-.204 1.304-.19 1.303-7.107 1.303-2.225 1.304-1.912 1.303-.013 1.303.005 1.303-4.283 1.304-1.864 1.303-1.347 1.303-1.645 1.303-1.414 1.304-1.965 1.303-.095 1.303-.097 1.304-3.876 1.303-1.49 1.303-.977 1.303-1.52 1.304-.173 1.303-2.016 1.303-1.234 1.303-1.777 1.304-1.243 1.303-3.636 1.303-2.55 1.303-.131 1.304-.12 1.303-4.629 1.303-2.396 1.304-1.556 1.303-.73 1.303-3.648 1.303.136 1.304.155 1.303-3.591 1.303-.913 1.303-1.994 1.304-3.07 1.303-1.735 1.303.116 1.304.079 1.303-6.083 1.303-1.797 1.303-2.074 1.304-.746 1.303-1.3 1.303.025 1.303-.009 1.304-6.44 1.303-1.597 1.303-1.852 1.303-2.12 1.304-1.857 1.303.016 1.303-2.387 1.304-2.929 1.303-2.128 1.303-.796 1.303-4.796 1.304-2.37 1.303.052 1.303.048 1.303-4.515 1.304-2.09 2.606-4.475v2.478l1.304-3.704 1.303-.224 1.303.037 1.303-2.687 1.304-1.387 1.303-1.438 1.303-3.344 1.303-1.484 1.304-1.483 1.303-.133 1.303-.974 1.304-.473 1.303-1.834 1.303-2.116 1.303-1.584 1.304-.232 1.303-.233 1.303-1.843 1.303-1.039 1.304-1.025 1.303-1.299 1.303-2.636 1.303-.466 1.304-.157 1.303-.682 1.303-.409 1.304-1.772 1.303-.679 1.303-.68 1.303-.14 1.304-.124 1.303-1.191 1.303-.114 1.303-.379 1.304-.13 1.303-.152 1.303-.175 1.304-.187 1.303-.199 1.303-.201 1.303-.204 1.304-.479 1.303-.22 1.303-.218 1.303-.205 1.304-.191 1.303-.174 1.303-.416 1.303-.656 1.304-.11 1.303-.098 1.303-.078 1.304-.055 1.303-.029 1.303-.283 1.303-.005h1.304l1.303.007 1.303.012 1.303.008 1.304-.793 1.303-.256 1.303.013v-.725l-1.303.013-1.303.281-1.304.817-1.303.009-1.303.012-1.303.006h-1.304l-1.303-.004-1.303.253-1.303-.029-1.304-.055-1.303-.078-1.303-.098-1.304-.11-1.303.418-1.303.121-1.303-.174-1.304-.191-1.303-.205-1.303-.219-1.303-.22-1.304.059-1.303-.204-1.303-.201-1.303-.199-1.304-.188-1.303-.174-1.303-.151-1.304-.131-1.303.158-1.303-.114-1.303.957-1.304-.125-1.303-.14-1.303.394-1.303.395-1.304 1.45-1.303.127-1.303.392-1.304-.157-1.303.071-1.303 2.196-1.303.848-1.304.586-1.303.572-1.303 1.378-1.303-.233-1.304-.232-1.303 1.1-1.303 1.642-1.303 1.387-1.304.064-1.303.637-1.303-.133-1.304 1.202-1.303 1.2-1.303 3.1-1.303 1.245-1.304 1.298-1.303 2.682-1.303.036-1.303.314-1.304 3.812v-2.354l-2.606 4.652-1.304 2.205-1.303 4.613-1.303.048-1.303.05-1.304 2.463-1.303 4.868-1.303.815-1.303 2.167-1.304 2.977-1.303 2.445-1.303.015-1.304 1.902-1.303 2.175-1.303 1.906-1.303 1.624-1.304 6.445-1.303-.009-1.303.026-1.303 1.384-1.304.865-1.303 2.221-1.303 1.961-1.303 6.266-1.304.079-1.303.116-1.303 2.024-1.304 3.372-1.303 2.3-1.303 1.235-1.303 3.925-1.304.156-1.303.136-1.303 3.867-1.303.881-1.304 1.666-1.303 2.436-1.303 4.499-1.304-.12-1.303-.132-1.303 2.282-1.303 3.344-1.304.904-1.303 1.444-1.303.914-1.303 1.742-1.304-.172-1.303 1.164-1.303.633-1.303 1.194-1.304 3.64-1.303-.096-1.303-.095-1.304 1.793-1.303 1.27-1.303 1.577-1.303 1.338-1.304 1.894-1.303 4.307-1.303.005-1.303-.013-1.304 1.846-1.303 2.07-1.303 6.851-1.304-.188-1.303-.205-1.303-.247-1.303.984-1.304 3.851-1.303 1.121-1.303 1.141-1.303.632-1.304 7.898-1.303-.392-1.303-.342-1.304.53-1.303.886-1.303 2.601-1.303 5.66-1.304.088-1.303.191-1.303.221-1.303 2.922-1.304 2.923-1.303 4.246-1.303 3.167-1.303 6.122-1.304.213-1.303 2.897-1.303 3.412-1.304 4.205-1.303 3.922-1.303 4.97-1.303 8.986-1.304.121-1.303.16-1.303.191-1.303 3.14-1.304 5.213-1.303 1.365-1.303 8.005-1.304-.118-1.303-.142-1.303-.157-1.303 1.132-1.304 6.999-1.303 1.614-1.303 7.018-1.303-.193-1.304-.123-1.303 4.521-1.303.035-1.303 2-1.304 2.597-1.303 3.977-1.303.242-1.304.252-1.303 2.67-1.303 5.068-1.303 1.547-1.304 3.39-1.303 3.09-1.303.12-1.303 3.028-1.304 6.465-1.303 4.29-1.303 2.959-1.304 1.925-1.303 3.848-1.303.137-1.303 5.546-1.304.202-1.303.27-1.303 1.931-1.303 2.485-1.304 4.101-1.303.344-1.303 1.683-1.304 4.074-1.303 2.429-1.303 3.485-1.303 3.468-1.304 4.528-1.303.235-1.303.256-1.303 2.136-1.304 4.8-1.303.208-1.303 1.274-1.303 5.277-1.304.135-1.303.128-1.303 1.455-1.304.895-1.303 1.946-1.303.295-1.303 3.212-1.304-.044-1.303-.052-1.303 1.287-1.303 1.286-1.304 1.298-1.303 1.049-1.303 1.614-1.304.037-1.303.08-1.303.119-1.303.157-1.304 1.268-1.303.22-1.303.773-1.303 1.047-1.304 1.034-1.303 1.555-1.303 1.531-1.303.437-1.304 1.763-1.303.66-1.303.106-1.304.082-1.303.586-1.303 2.423-1.303 1.316-1.304.233-1.303.505-1.303-.033-1.303-.027-1.304-.02-1.303-.013-1.303-.004-1.304.005-1.303.005-1.303.006-1.303.004-1.304.002h-1.303l-1.303.268-1.303-.006-1.304.797-1.303-.017-1.303-.017-1.304-.016-1.303.253-1.303.52-1.303-.014-1.304.26-1.303-.003-1.303.003-1.303.009-1.304.013-1.303.016-1.303.824-1.303.017-1.304.022-1.303.026-1.303.028-1.304.029-1.303 1.1-1.303.024-1.303.293-1.304.027-1.303.027-1.303.026-1.303.292-1.304.289-1.303.552-1.303.01-1.304.01-1.303.008-1.303.273-1.303.269-1.304-.001-1.303-.003-1.303.264-1.303-.016-1.304-.022-1.303.242-1.303-.03-1.303.24-1.304-.027-1.303-.022-1.303-.02-1.304-.02-1.303-.019-1.303-.017-1.303.25-1.304-.019-1.303.252-1.303-.015-1.303-.027-1.304-.035-1.303.227-1.303-.045-1.304-.045-1.303.225-1.303-.04-1.303-.043-1.304-.041-1.303.23-1.303.232-1.303.774-1.304-.026-1.303-.012h-1.303l-1.304.009-1.303.018-1.303.025-1.303.3-1.304.576-1.303.042-1.303.05-1.303.59-1.304.322-1.303.054-1.303.322-1.303 1.657-1.304.038-1.303.04-1.303.041-1.304.04-1.303.307-1.303.031-1.303 1.1-1.304.016-1.303.009-1.303.268-1.303.261-1.304.251-1.303-.023-1.303.512-1.304-.029-1.303-.026-1.303-.024-1.303-.021-1.304-.017-1.303.258-1.303-.006-1.303.002-1.304.01-1.303.284-1.303.02-1.303.294-1.304.293-1.303.024-1.303.017-1.304-.002-1.303-.02-1.303-.035-1.303-.051-1.304.206-1.303.736-1.303-.07-1.303-.066-1.304.48-1.303-.057-1.303-.054-1.304.215-1.303-.052-1.303-.043-1.303-.044-1.304-.041-1.303-.044-1.303-.06-1.303.183-1.304-.116-1.303-.143-1.303-.174-1.304.08-1.303.069-1.303.06-1.303.856-1.304.85-1.303-.223-1.303-.214-1.303.075-1.304-.165-1.303-.141-1.303-.13-1.303-.117-1.304-.11-1.303.705-1.303.691-1.304.655-1.303.355-1.303-.194-1.303 1.133-1.304-.23-1.303.299-1.303 1.638-1.303 1.107-1.304 1.14-1.303.64-1.303 1.222-1.304-.066-1.303.81-1.303 1.417-1.303 1.486-1.304 1.286-1.303 1.348-1.303 1.943-1.303.382-1.304.963-1.303 2.327-1.303 3.137-1.303 1.259-1.304 1.798-1.303 1.244-1.303 3.356-1.304 4.64-1.303 1.901-1.303.801-1.303 2.121-1.304 2.349-1.303 1.506-1.303.678-1.303.928-1.304.371-1.303 1.694-1.303.855-1.304.839-1.303.021-1.303.287-1.303.014-1.304.012-1.303.547H151.276z" id="m66ffab9b8d" style="stroke:#fff;stroke-opacity:.2"/></defs><g clip-path="url(#p9f0054b75f)"><use style="fill:#089fff;fill-opacity:.2;stroke:#fff;stroke-opacity:.2" xlink:href="#m66ffab9b8d" y="648"/></g></g><path clip-path="url(#p9f0054b75f)" d="M149.973 554.04h74.286l1.303-.537h2.607l1.303-.268h1.303l2.607-1.611 1.303-1.61 1.304-.27 1.303-.804 1.303-.537 1.303-1.343 1.304-2.147 1.303-1.88 1.303-.536 1.303-1.61 1.304-4.296 1.303-2.953 1.303-.805 1.304-1.342 1.303-.806 1.303-2.684 1.303-1.88 1.304-.536h1.303l1.303-1.61 2.607-2.148 2.606-2.685 1.303-.805h1.304l1.303-1.342 1.303-.806 2.607-2.684 1.303-1.88 1.303-.536h1.304l1.303-1.342h1.303l1.303-.537 3.91-2.416h6.517l1.303-.268h2.606l2.607-2.148 3.91-.805h3.91l1.303-.269h7.82l1.303-.268h2.606l1.304-.537h2.606l1.303-.805 1.304-.269h7.82l2.606-.537h1.303l1.303-.268h3.91l1.303-.269h6.517l1.303-.537h1.303l3.91-.805h2.607l1.303-1.074h1.303l1.303-.268h5.214l1.303-1.61 1.303-.27h1.303l1.304-.268 1.303-.537h2.606l1.304-.536 1.303-.269h7.82l1.303-.805 2.606-.537h3.91l1.303-.269h2.607l1.303-.268h3.91l1.303-.268h1.304l1.303-.269h7.82l1.303-.268h1.303l1.303-.269h2.607l1.303-.268h2.607l2.606-.537h3.91l1.303-.537 2.607-.537h3.91l1.303-.268h1.303l1.303-1.074h6.517l1.303-.805h6.516l1.304-.269h1.303l1.303-.537 1.303-.268h3.91l1.304-.806h1.303l1.303-.268h14.336l1.303-.537 1.304-.268 1.303-1.342 1.303-2.416 1.303-.537h2.607l1.303-.537 1.304-1.61 1.303-.27 2.606-2.684 2.607-1.61 1.303-.537h1.303l1.304-1.074h5.213l1.303-1.61 1.303-1.075 3.91-4.026h2.607l1.303-3.222 1.303-.268 1.303-1.88 1.304-.804 1.303-1.343h2.607l1.303-5.1 1.303-1.074h1.303l1.304-4.563 1.303-1.88h2.606l1.304-4.295 2.606-6.442 1.303-2.148 1.304-3.758 1.303-1.342h1.303l1.304-3.758 1.303-2.148 1.303-1.61h2.607l1.303-5.37h1.303l1.303-3.758 1.304-1.879 1.303-2.953 1.303-4.295 1.304-6.442 1.303-2.953h1.303l2.607-6.174 1.303-1.343 1.303-4.832 1.303-2.416h2.607l1.303-3.758 1.304-2.416 1.303-1.879h1.303l1.303-4.563h2.607l1.303-7.248 1.303-1.88 1.304-7.248 1.303-1.342h3.91l1.303-8.053 1.303-1.342 1.304-5.1 1.303-2.954h3.91l1.303-8.858 1.303-4.832 3.91-11.006 1.303-2.685h1.304l1.303-5.906 1.303-2.952 1.303-4.027 2.607-5.369h3.91l1.303-5.637 1.303-2.685 1.303-1.073 1.304-.806h2.606l1.304-8.321 1.303-1.074 2.606-3.222 1.304-4.295 1.303-1.342h3.91l1.303-6.98 1.303-2.147 1.304-1.88h2.606l1.303-4.294 1.304-1.88 1.303-1.341 1.303-1.611 1.303-1.342 1.304-1.88h2.606l1.304-3.758 1.303-1.342 1.303-.805 1.303-1.342h1.304l1.303-1.88 1.303-1.073 1.303-1.611 1.304-1.074 1.303-3.49 1.303-2.416h2.607l1.303-4.563 1.303-2.416 1.304-1.61 1.303-.806 1.303-3.758h2.607l1.303-3.758 1.303-1.074 1.303-2.148 1.304-3.221 1.303-1.88h2.607l1.303-6.173 1.303-1.88 1.303-2.147 1.304-.805 1.303-1.343h2.606l1.304-6.442 1.303-1.61 1.303-1.88 1.303-2.148 1.304-1.879h1.303l1.303-2.416 1.304-2.953 1.303-2.147 1.303-.805 1.303-4.832 1.304-2.416h2.606l1.303-4.564 1.304-2.147 2.606-4.564v2.416l1.304-3.758 1.303-.269h1.303l1.303-2.684 2.607-2.684 1.303-3.222 2.607-2.684h1.303l1.303-.806 1.304-.268 1.303-1.61 1.303-1.88 1.303-1.342h2.607l1.303-1.61 2.607-1.611 1.303-1.074 1.303-2.416 1.303-.269h1.304l1.303-.536 1.303-.269 1.304-1.61 2.606-1.074h2.607l1.303-1.074h1.303l1.303-.269h9.123l1.304-.268h6.516l1.303-.268 1.303-.537h6.517l1.303-.269h6.516l1.304-.805 1.303-.269h1.303" style="fill:none;stroke:#4c72b0;stroke-linecap:round;stroke-width:1.5" id="line2d_1"/><path d="M117 576.72V77.76" style="fill:none;stroke:#d3d3d3;stroke-linecap:square;stroke-linejoin:miter;stroke-width:1.25" id="patch_3"/><path d="M117 576.72h725.4" style="fill:none;stroke:#d3d3d3;stroke-linecap:square;stroke-linejoin:miter;stroke-width:1.25" id="patch_4"/><g id="matplotlib.axis_1"><g id="xtick_1"><g style="fill:#696969" transform="matrix(.16 0 0 -.16 111.575 598.378)" id="text_1"><defs><path d="M9.813 72.906h9.859V5.078q0-13.187-5-19.14-5-5.954-16.094-5.954h-3.75v8.297h3.078q6.531 0 9.219 3.672Q9.813-4.39 9.813 5.078z" id="DejaVuSans-74"/><path d="M34.281 27.484q-10.89 0-15.093-2.484-4.204-2.484-4.204-8.5 0-4.781 3.157-7.594 3.156-2.797 8.562-2.797 7.485 0 12 5.297 4.516 5.297 4.516 14.078v2zm17.922 3.72V0H43.22v8.297Q40.14 3.328 35.547.953q-4.594-2.375-11.234-2.375-8.391 0-13.36 4.719Q6 8.016 6 15.922q0 9.219 6.172 13.906 6.187 4.688 18.437 4.688h12.61v.89q0 6.203-4.078 9.594-4.078 3.39-11.453 3.39-4.688 0-9.141-1.124-4.438-1.125-8.531-3.375v8.312q4.921 1.906 9.562 2.844 4.64.953 9.031.953 11.875 0 17.735-6.156 5.86-6.14 5.86-18.64z" id="DejaVuSans-97"/><path d="M54.89 33.016V0h-8.984v32.719q0 7.765-3.031 11.61-3.031 3.858-9.078 3.858-7.281 0-11.484-4.64-4.204-4.625-4.204-12.64V0H9.08v54.688h9.03v-8.5q3.235 4.937 7.594 7.374Q30.078 56 35.797 56q9.422 0 14.25-5.828 4.844-5.828 4.844-17.156z" id="DejaVuSans-110"/></defs><use xlink:href="#DejaVuSans-74"/><use x="29.492" xlink:href="#DejaVuSans-97"/><use x="90.771" xlink:href="#DejaVuSans-110"/></g></g><g id="xtick_2"><g style="fill:#696969" transform="matrix(.16 0 0 -.16 187.01 598.378)" id="text_2"><defs><path d="M9.813 72.906h14.703l18.593-49.61 18.703 49.61h14.704V0H66.89v64.016l-18.797-50h-9.907l-18.796 50V0H9.813z" id="DejaVuSans-77"/><path d="M41.11 46.297q-1.516.875-3.297 1.281Q36.03 48 33.89 48q-7.625 0-11.703-4.953-4.079-4.953-4.079-14.234V0H9.08v54.688h9.03v-8.5q2.844 4.984 7.375 7.39Q30.031 56 36.531 56q.922 0 2.047-.125 1.125-.11 2.484-.36z" id="DejaVuSans-114"/></defs><use xlink:href="#DejaVuSans-77"/><use x="86.279" xlink:href="#DejaVuSans-97"/><use x="147.559" xlink:href="#DejaVuSans-114"/></g></g><g id="xtick_3"><g style="fill:#696969" transform="matrix(.16 0 0 -.16 265.063 598.378)" id="text_3"><defs><path d="M32.172-5.078q-3.797-9.766-7.422-12.735-3.61-2.984-9.656-2.984H7.906v7.516h5.282q3.703 0 5.75 1.765Q21-9.766 23.483-3.219l1.61 4.094-22.11 53.813H12.5l17.094-42.766 17.093 42.766h9.516z" id="DejaVuSans-121"/></defs><use xlink:href="#DejaVuSans-77"/><use x="86.279" xlink:href="#DejaVuSans-97"/><use x="147.559" xlink:href="#DejaVuSans-121"/></g></g><g id="xtick_4"><g style="fill:#696969" transform="matrix(.16 0 0 -.16 351.45 598.378)" id="text_4"><defs><path d="M8.5 21.578v33.11h8.984V21.922q0-7.766 3.016-11.656 3.031-3.875 9.094-3.875 7.265 0 11.484 4.64 4.234 4.64 4.234 12.656v31h8.985V0h-8.984v8.406Q42.047 3.422 37.718 1q-4.313-2.422-10.032-2.422-9.421 0-14.312 5.86Q8.5 10.296 8.5 21.578zM31.11 56z" id="DejaVuSans-117"/><path d="M9.422 75.984h8.984V0H9.422z" id="DejaVuSans-108"/></defs><use xlink:href="#DejaVuSans-74"/><use x="29.492" xlink:href="#DejaVuSans-117"/><use x="92.871" xlink:href="#DejaVuSans-108"/></g></g><g id="xtick_5"><g style="fill:#696969" transform="matrix(.16 0 0 -.16 426.825 598.378)" id="text_5"><defs><path d="M53.516 70.516V60.89q-5.61 2.687-10.594 4-4.984 1.328-9.625 1.328-8.047 0-12.422-3.125t-4.375-8.89q0-4.845 2.906-7.313 2.907-2.453 11.016-3.97l5.953-1.218q11.031-2.11 16.281-7.406 5.25-5.297 5.25-14.172 0-10.61-7.11-16.078-7.093-5.469-20.812-5.469-5.172 0-11.015 1.172Q13.14.922 6.89 3.219v10.156q6-3.36 11.765-5.078 5.766-1.703 11.328-1.703 8.438 0 13.032 3.312 4.593 3.328 4.593 9.485 0 5.359-3.297 8.39-3.296 3.032-10.812 4.547L27.484 33.5q-11.03 2.188-15.968 6.875-4.922 4.688-4.922 13.047 0 9.672 6.812 15.234 6.813 5.563 18.766 5.563 5.14 0 10.453-.938 5.328-.922 10.89-2.765z" id="DejaVuSans-83"/><path d="M56.203 29.594v-4.39H14.891q.593-9.282 5.593-14.142 5-4.859 13.938-4.859 5.172 0 10.031 1.266 4.86 1.265 9.656 3.812v-8.5Q49.266.734 44.187-.344 39.11-1.422 33.892-1.422q-13.094 0-20.735 7.61-7.64 7.625-7.64 20.625 0 13.421 7.25 21.296Q20.016 56 32.328 56q11.031 0 17.453-7.11 6.422-7.093 6.422-19.296zm-8.984 2.64q-.094 7.36-4.125 11.75-4.032 4.407-10.672 4.407-7.516 0-12.031-4.25-4.516-4.25-5.203-11.97z" id="DejaVuSans-101"/><path d="M18.11 8.203v-29H9.077v75.484h9.031v-8.296q2.844 4.875 7.157 7.234Q29.594 56 35.594 56q9.968 0 16.187-7.906 6.235-7.907 6.235-20.797T51.78 6.484q-6.218-7.906-16.187-7.906-6 0-10.328 2.375-4.313 2.375-7.157 7.25zm30.578 19.094q0 9.906-4.079 15.547-4.078 5.64-11.203 5.64-7.14 0-11.218-5.64-4.079-5.64-4.079-15.547 0-9.906 4.078-15.547 4.079-5.64 11.22-5.64 7.124 0 11.202 5.64t4.078 15.547z" id="DejaVuSans-112"/></defs><use xlink:href="#DejaVuSans-83"/><use x="63.477" xlink:href="#DejaVuSans-101"/><use x="125" xlink:href="#DejaVuSans-112"/></g></g><g id="xtick_6"><g style="fill:#696969" transform="matrix(.16 0 0 -.16 505.79 598.378)" id="text_6"><defs><path d="M9.813 72.906h13.28l32.329-60.984v60.984h9.562V0h-13.28L19.39 60.984V0H9.813z" id="DejaVuSans-78"/><path d="M30.61 48.39q-7.22 0-11.422-5.64-4.204-5.64-4.204-15.453 0-9.813 4.172-15.453 4.188-5.64 11.453-5.64 7.188 0 11.375 5.655 4.203 5.672 4.203 15.438 0 9.719-4.203 15.406-4.187 5.688-11.375 5.688zm0 7.61q11.718 0 18.406-7.625 6.703-7.61 6.703-21.078 0-13.422-6.703-21.078-6.688-7.64-18.407-7.64-11.765 0-18.437 7.64-6.656 7.656-6.656 21.078 0 13.469 6.656 21.078Q18.844 56 30.609 56z" id="DejaVuSans-111"/><path d="M2.984 54.688H12.5L29.594 8.797l17.093 45.89h9.516L35.687 0H23.485z" id="DejaVuSans-118"/></defs><use xlink:href="#DejaVuSans-78"/><use x="74.805" xlink:href="#DejaVuSans-111"/><use x="135.986" xlink:href="#DejaVuSans-118"/></g></g><g id="xtick_7"><g style="fill:#696969" transform="matrix(.16 0 0 -.16 588.572 598.378)" id="text_7"><use xlink:href="#DejaVuSans-74"/><use x="29.492" xlink:href="#DejaVuSans-97"/><use x="90.771" xlink:href="#DejaVuSans-110"/></g></g><g id="xtick_8"><g style="fill:#696969" transform="matrix(.16 0 0 -.16 662.703 598.378)" id="text_8"><use xlink:href="#DejaVuSans-77"/><use x="86.279" xlink:href="#DejaVuSans-97"/><use x="147.559" xlink:href="#DejaVuSans-114"/></g></g><g id="xtick_9"><g style="fill:#696969" transform="matrix(.16 0 0 -.16 740.756 598.378)" id="text_9"><use xlink:href="#DejaVuSans-77"/><use x="86.279" xlink:href="#DejaVuSans-97"/><use x="147.559" xlink:href="#DejaVuSans-121"/></g></g><g id="xtick_10"><g style="fill:#696969" transform="matrix(.16 0 0 -.16 827.143 598.378)" id="text_10"><use xlink:href="#DejaVuSans-74"/><use x="29.492" xlink:href="#DejaVuSans-117"/><use x="92.871" xlink:href="#DejaVuSans-108"/></g></g></g><g id="matplotlib.axis_2"><g id="ytick_1"><g style="fill:#696969" transform="matrix(.16 0 0 -.16 97.32 560.119)" id="text_11"><defs><path d="M31.781 66.406q-7.61 0-11.453-7.5Q16.5 51.422 16.5 36.375q0-14.984 3.828-22.484 3.844-7.5 11.453-7.5 7.672 0 11.5 7.5 3.844 7.5 3.844 22.484 0 15.047-3.844 22.531-3.828 7.5-11.5 7.5zm0 7.813q12.266 0 18.735-9.703 6.468-9.688 6.468-28.141 0-18.406-6.468-28.11-6.47-9.687-18.735-9.687-12.25 0-18.718 9.688-6.47 9.703-6.47 28.109 0 18.453 6.47 28.14Q19.53 74.22 31.78 74.22z" id="DejaVuSans-48"/></defs><use xlink:href="#DejaVuSans-48"/></g></g><g id="ytick_2"><g style="fill:#696969" transform="matrix(.16 0 0 -.16 76.96 493.008)" id="text_12"><defs><path d="M19.188 8.297h34.421V0H7.33v8.297q5.609 5.812 15.296 15.594 9.703 9.797 12.188 12.64 4.734 5.313 6.609 9 1.89 3.688 1.89 7.25 0 5.813-4.078 9.469-4.078 3.672-10.625 3.672-4.64 0-9.797-1.61-5.14-1.609-11-4.89v9.969Q13.767 71.78 18.938 73q5.188 1.219 9.485 1.219 11.328 0 18.062-5.672 6.735-5.656 6.735-15.125 0-4.5-1.688-8.531-1.672-4.016-6.125-9.485-1.218-1.422-7.765-8.187-6.532-6.766-18.453-18.922z" id="DejaVuSans-50"/><path d="M10.797 72.906h38.719v-8.312H19.828v-17.86q2.14.735 4.281 1.094 2.157.36 4.313.36 12.203 0 19.328-6.688 7.14-6.688 7.14-18.11 0-11.765-7.328-18.296-7.328-6.516-20.656-6.516-4.593 0-9.36.781-4.75.782-9.827 2.344v9.922q4.39-2.39 9.078-3.563 4.687-1.171 9.906-1.171 8.453 0 13.375 4.437 4.938 4.438 4.938 12.063 0 7.609-4.938 12.047-4.922 4.453-13.375 4.453-3.953 0-7.89-.875-3.922-.875-8.016-2.735z" id="DejaVuSans-53"/></defs><use xlink:href="#DejaVuSans-50"/><use x="63.623" xlink:href="#DejaVuSans-53"/><use x="127.246" xlink:href="#DejaVuSans-48"/></g></g><g id="ytick_3"><g style="fill:#696969" transform="matrix(.16 0 0 -.16 76.96 425.897)" id="text_13"><use xlink:href="#DejaVuSans-53"/><use x="63.623" xlink:href="#DejaVuSans-48"/><use x="127.246" xlink:href="#DejaVuSans-48"/></g></g><g id="ytick_4"><g style="fill:#696969" transform="matrix(.16 0 0 -.16 76.96 358.786)" id="text_14"><defs><path d="M8.203 72.906h46.875v-4.203L28.61 0H18.312L43.22 64.594H8.203z" id="DejaVuSans-55"/></defs><use xlink:href="#DejaVuSans-55"/><use x="63.623" xlink:href="#DejaVuSans-53"/><use x="127.246" xlink:href="#DejaVuSans-48"/></g></g><g id="ytick_5"><g style="fill:#696969" transform="matrix(.16 0 0 -.16 66.78 291.675)" id="text_15"><defs><path d="M12.406 8.297h16.11v55.625l-17.532-3.516v8.985l17.438 3.515h9.86V8.296H54.39V0H12.406z" id="DejaVuSans-49"/></defs><use xlink:href="#DejaVuSans-49"/><use x="63.623" xlink:href="#DejaVuSans-48"/><use x="127.246" xlink:href="#DejaVuSans-48"/><use x="190.869" xlink:href="#DejaVuSans-48"/></g></g><g id="ytick_6"><g style="fill:#696969" transform="matrix(.16 0 0 -.16 66.78 224.565)" id="text_16"><use xlink:href="#DejaVuSans-49"/><use x="63.623" xlink:href="#DejaVuSans-50"/><use x="127.246" xlink:href="#DejaVuSans-53"/><use x="190.869" xlink:href="#DejaVuSans-48"/></g></g><g id="ytick_7"><g style="fill:#696969" transform="matrix(.16 0 0 -.16 66.78 157.454)" id="text_17"><use xlink:href="#DejaVuSans-49"/><use x="63.623" xlink:href="#DejaVuSans-53"/><use x="127.246" xlink:href="#DejaVuSans-48"/><use x="190.869" xlink:href="#DejaVuSans-48"/></g></g><g id="ytick_8"><g style="fill:#696969" transform="matrix(.16 0 0 -.16 66.78 90.343)" id="text_18"><use xlink:href="#DejaVuSans-49"/><use x="63.623" xlink:href="#DejaVuSans-55"/><use x="127.246" xlink:href="#DejaVuSans-53"/><use x="190.869" xlink:href="#DejaVuSans-48"/></g></g><g style="fill:#696969" transform="matrix(0 -.2 -.2 0 58.62 379.813)" id="text_19"><defs><path d="M51.125 44H36.922l-4.11-16.313h14.313zm-7.328 27.781-5.078-20.265h14.265L58.11 71.78h7.813L60.89 51.516h15.234V44h-17.14l-4-16.313h15.53V20.22H53.079L48 0h-7.813l5.032 20.219H30.906L25.875 0h-7.86l5.079 20.219H7.719v7.468h17.187L29 44H13.281v7.516h17.625l4.985 20.265z" id="DejaVuSans-35"/><path d="M37.11 75.984V68.5h-8.594q-4.828 0-6.72-1.953-1.874-1.953-1.874-7.031v-4.828h14.797v-6.985H19.922V0H10.89v47.703H2.297v6.984h8.594V58.5q0 9.125 4.25 13.297 4.25 4.187 13.468 4.187z" id="DejaVuSans-102"/><path d="M48.781 52.594v-8.407q-3.812 2.11-7.64 3.157-3.828 1.047-7.735 1.047-8.75 0-13.593-5.547-4.829-5.532-4.829-15.547 0-10.016 4.829-15.563 4.843-5.53 13.593-5.53 3.907 0 7.735 1.046 3.828 1.047 7.64 3.156V2.094Q45.016.344 40.984-.531q-4.015-.89-8.562-.89-12.36 0-19.64 7.765-7.266 7.765-7.266 20.953 0 13.375 7.343 21.031Q20.22 56 33.016 56q4.14 0 8.093-.86 3.953-.843 7.672-2.546z" id="DejaVuSans-99"/><path d="M44.281 53.078v-8.5q-3.797 1.953-7.906 2.922-4.094.984-8.5.984-6.688 0-10.031-2.047-3.344-2.046-3.344-6.156 0-3.125 2.39-4.906 2.391-1.781 9.626-3.39l3.078-.688q9.562-2.047 13.593-5.781 4.032-3.735 4.032-10.422 0-7.625-6.032-12.078-6.03-4.438-16.578-4.438-4.39 0-9.156.86Q10.688.296 5.422 2v9.281q4.984-2.594 9.812-3.89 4.829-1.282 9.579-1.282 6.343 0 9.75 2.172 3.421 2.172 3.421 6.125 0 3.656-2.468 5.61-2.453 1.953-10.813 3.765l-3.125.735q-8.344 1.75-12.062 5.39-3.704 3.64-3.704 9.985 0 7.718 5.47 11.906Q16.75 56 26.811 56q4.97 0 9.36-.734 4.406-.72 8.11-2.188z" id="DejaVuSans-115"/></defs><use xlink:href="#DejaVuSans-35"/><use x="83.789" xlink:href="#DejaVuSans-32"/><use x="115.576" xlink:href="#DejaVuSans-111"/><use x="176.758" xlink:href="#DejaVuSans-102"/><use x="211.963" xlink:href="#DejaVuSans-32"/><use x="243.75" xlink:href="#DejaVuSans-99"/><use x="298.73" xlink:href="#DejaVuSans-97"/><use x="360.01" xlink:href="#DejaVuSans-115"/><use x="412.109" xlink:href="#DejaVuSans-101"/><use x="473.633" xlink:href="#DejaVuSans-115"/></g></g><g style="fill:#696969" transform="matrix(.24 0 0 -.24 306.902 71.76)" id="text_20"><defs><path d="M44.39 34.188q3.172-1.079 6.172-4.594 3-3.516 6.032-9.672L66.609 0H56l-9.313 18.703q-3.624 7.328-7.015 9.719-3.39 2.39-9.25 2.39h-10.75V0h-9.86v72.906h22.266q12.5 0 18.656-5.234 6.157-5.219 6.157-15.766 0-6.89-3.203-11.437-3.204-4.532-9.297-6.282zM19.673 64.797V38.922h12.406q7.125 0 10.766 3.297 3.64 3.297 3.64 9.687 0 6.39-3.64 9.64-3.64 3.25-10.766 3.25z" id="DejaVuSans-82"/><path d="M18.313 70.219V54.688h18.5v-6.985h-18.5V18.016q0-6.688 1.828-8.594 1.828-1.906 7.453-1.906h9.218V0h-9.218q-10.407 0-14.36 3.875-3.953 3.89-3.953 14.14v29.688H2.687v6.984h6.594V70.22z" id="DejaVuSans-116"/><path d="M54.89 33.016V0h-8.984v32.719q0 7.765-3.031 11.61-3.031 3.858-9.078 3.858-7.281 0-11.484-4.64-4.204-4.625-4.204-12.64V0H9.08v75.984h9.03V46.188q3.235 4.937 7.594 7.374Q30.078 56 35.797 56q9.422 0 14.25-5.828 4.844-5.828 4.844-17.156z" id="DejaVuSans-104"/><path d="M45.406 46.39v29.594h8.985V0h-8.985v8.203Q42.578 3.328 38.25.953q-4.313-2.375-10.375-2.375-9.906 0-16.14 7.906-6.22 7.922-6.22 20.813 0 12.89 6.22 20.797Q17.968 56 27.874 56q6.063 0 10.375-2.375 4.328-2.36 7.156-7.234zm-30.61-19.093q0-9.906 4.079-15.547 4.078-5.64 11.203-5.64 7.125 0 11.219 5.64 4.11 5.64 4.11 15.547 0 9.906-4.11 15.547-4.094 5.64-11.219 5.64-7.125 0-11.203-5.64-4.078-5.64-4.078-15.547z" id="DejaVuSans-100"/><path d="M-.297 72.906h61.672v-8.312H35.5V0h-9.906v64.594H-.296z" id="DejaVuSans-84"/><path d="M64.406 67.281v-10.39q-4.984 4.64-10.625 6.922-5.64 2.296-11.984 2.296-12.5 0-19.14-7.64-6.641-7.64-6.641-22.094 0-14.406 6.64-22.047 6.64-7.64 19.14-7.64 6.345 0 11.985 2.296 5.64 2.297 10.625 6.938V5.609Q59.234 2.094 53.437.33q-5.78-1.75-12.218-1.75-16.563 0-26.094 10.124-9.516 10.14-9.516 27.672 0 17.578 9.516 27.703 9.531 10.14 26.094 10.14 6.531 0 12.312-1.734 5.797-1.734 10.875-5.203z" id="DejaVuSans-67"/><path d="M9.422 54.688h8.984V0H9.422zm0 21.296h8.984v-11.39H9.422z" id="DejaVuSans-105"/></defs><use xlink:href="#DejaVuSans-82"/><use x="64.982" xlink:href="#DejaVuSans-117"/><use x="128.361" xlink:href="#DejaVuSans-116"/><use x="167.57" xlink:href="#DejaVuSans-104"/><use x="230.949" xlink:href="#DejaVuSans-101"/><use x="292.473" xlink:href="#DejaVuSans-114"/><use x="333.586" xlink:href="#DejaVuSans-102"/><use x="368.791" xlink:href="#DejaVuSans-111"/><use x="429.973" xlink:href="#DejaVuSans-114"/><use x="469.336" xlink:href="#DejaVuSans-100"/><use x="532.813" xlink:href="#DejaVuSans-32"/><use x="564.6" xlink:href="#DejaVuSans-84"/><use x="608.684" xlink:href="#DejaVuSans-111"/><use x="669.865" xlink:href="#DejaVuSans-116"/><use x="709.074" xlink:href="#DejaVuSans-97"/><use x="770.354" xlink:href="#DejaVuSans-108"/><use x="798.137" xlink:href="#DejaVuSans-32"/><use x="829.924" xlink:href="#DejaVuSans-67"/><use x="899.748" xlink:href="#DejaVuSans-111"/><use x="960.93" xlink:href="#DejaVuSans-118"/><use x="1020.109" xlink:href="#DejaVuSans-105"/><use x="1047.893" xlink:href="#DejaVuSans-100"/><use x="1111.369" xlink:href="#DejaVuSans-32"/><use x="1143.156" xlink:href="#DejaVuSans-67"/><use x="1212.98" xlink:href="#DejaVuSans-97"/><use x="1274.26" xlink:href="#DejaVuSans-115"/><use x="1326.359" xlink:href="#DejaVuSans-101"/><use x="1387.883" xlink:href="#DejaVuSans-115"/></g><g id="legend_1"><path d="M128.2 137.53h144.675q3.2 0 3.2-3.2V88.96q0-3.2-3.2-3.2H128.2q-3.2 0-3.2 3.2v45.37q0 3.2 3.2 3.2z" style="fill:none;opacity:.8;stroke:#ccc;stroke-linejoin:miter" id="patch_5"/><path d="M131.4 98.718h32" style="fill:none;stroke:#4c72b0;stroke-linecap:round;stroke-width:1.5" id="line2d_2"/><g style="fill:#696969" transform="matrix(.16 0 0 -.16 176.2 104.317)" id="text_21"><use xlink:href="#DejaVuSans-84"/><use x="44.084" xlink:href="#DejaVuSans-111"/><use x="105.266" xlink:href="#DejaVuSans-116"/><use x="144.475" xlink:href="#DejaVuSans-97"/><use x="205.754" xlink:href="#DejaVuSans-108"/><use x="233.537" xlink:href="#DejaVuSans-32"/><use x="265.324" xlink:href="#DejaVuSans-67"/><use x="335.148" xlink:href="#DejaVuSans-97"/><use x="396.428" xlink:href="#DejaVuSans-115"/><use x="448.527" xlink:href="#DejaVuSans-101"/><use x="510.051" xlink:href="#DejaVuSans-115"/></g><path d="M131.4 127.802h32v-11.2h-32z" style="fill:#089fff;opacity:.2;stroke:#fff;stroke-linejoin:miter" id="patch_6"/><g style="fill:#696969" transform="matrix(.16 0 0 -.16 176.2 127.802)" id="text_22"><defs><path d="M8.688 72.906h9.921V28.61q0-11.718 4.235-16.875 4.25-5.14 13.781-5.14 9.469 0 13.719 5.14 4.25 5.157 4.25 16.875v44.297H64.5V27.391q0-14.25-7.063-21.532-7.046-7.28-20.812-7.28-13.828 0-20.89 7.28-7.047 7.282-7.047 21.532z" id="DejaVuSans-85"/></defs><use xlink:href="#DejaVuSans-85"/><use x="73.193" xlink:href="#DejaVuSans-110"/><use x="136.572" xlink:href="#DejaVuSans-99"/><use x="191.553" xlink:href="#DejaVuSans-101"/><use x="253.076" xlink:href="#DejaVuSans-114"/><use x="294.189" xlink:href="#DejaVuSans-116"/><use x="333.398" xlink:href="#DejaVuSans-97"/><use x="394.678" xlink:href="#DejaVuSans-105"/><use x="422.461" xlink:href="#DejaVuSans-110"/><use x="485.84" xlink:href="#DejaVuSans-116"/><use x="525.049" xlink:href="#DejaVuSans-121"/></g></g></g></g><defs><clipPath id="p9f0054b75f"><path d="M117 77.76h725.4v498.96H117z"/></clipPath></defs></svg>