<svg height="864" viewBox="0 0 936 648" width="1248" xmlns="http://www.w3.org/2000/svg" xmlns:xlink="http://www.w3.org/1999/xlink"><defs><style>*{stroke-linecap:butt;stroke-linejoin:round}</style></defs><g id="figure_1"><path d="M0 648h936V0H0z" style="fill:#fff" id="patch_1"/><g id="axes_1"><path d="M117 576.72h725.4V77.76H117z" style="fill:none" id="patch_2"/><g id="PolyCollection_1"><defs><path d="M151.155-93.96H217.336l1.182-.51 1.182.012 1.182.014 1.182-.242 1.181.02 1.182-.746 1.182-.73 1.182-1.477 1.182-.16 1.182-.66 1.181-.383 1.182-1.139 1.182-1.882 1.182-1.582 1.182-.264 1.181-1.277 1.182-3.819 1.182-2.464 1.182-.355 1.182-.857 1.182-.34 1.181-2.158 1.182-1.383 1.182-.108 1.182.37 1.182-1.236 1.181-.773 1.182-.834 1.182-1.158 1.182-1.225 1.182-.774 1.182-.064 1.181-1.413 1.182-.939 1.182-1.494 1.182-1.525 1.182-2.05 1.181-.749 1.182-.222 1.182-1.5 1.182-.188 1.182-.694 1.182-.924 1.181-.89 1.182-.876 1.182-.105 1.182-.113 1.182-.126 1.181-.136 1.182-.16 1.182-.447 1.182-.207 1.182-.215 1.182-1.254 1.181-1.249 1.182-.46 1.182-.453 1.182-.443 1.182-.167 1.181-.138 1.182-.113 1.182-.341 1.182-.059 1.182-.042 1.182-.04 1.181-.042 1.182-.042 1.182-.05 1.182-.312 1.182-.052 1.181-.054 1.182-.575 1.182-.064 1.182-.068 1.182-.845 1.182-.32 1.181-.049 1.182-.035 1.182-.019 1.182-.001 1.182.016 1.181.023 1.182-.235 1.182-.236 1.182.02 1.182-.244 1.182.009 1.181.002 1.182-.005 1.182-.27 1.182-.017 1.182-.02 1.181-.023 1.182-.026 1.182-.027 1.182-.544 1.182-.022 1.182-.277 1.181-.266 1.182-.26 1.182.009 1.182.015 1.182-1.013 1.181.03 1.182-.223 1.182.04 1.182.04 1.182.039 1.182.036 1.181-1.512 1.182-.208 1.182.052 1.182-.207 1.182-.468 1.181.047 1.182.042 1.182-.483 1.182-.228 1.182.025 1.182.017 1.181.009h1.182l1.182-.012 1.182-.025 1.182-.81 1.181-.294 1.182-.296 1.182-.04 1.182-.041 1.182-.04 1.182-.301 1.181-.043 1.182-.044 1.182-.3 1.182-.034 1.182-.025 1.181-.015 1.182-.276 1.182-.019 1.182-.277 1.182-.016 1.182-.018 1.181-.02 1.182-.018 1.182-.022 1.182-.026 1.182-.287 1.181-.029 1.182-.285 1.182-.021 1.182-.015 1.182-.265 1.182-.002 1.181-.001 1.182-.26 1.182-.255 1.182.007 1.182.01 1.181.01 1.182-.504 1.182-.24 1.182-.236 1.182.025 1.182.026 1.181.025 1.182-.235 1.182.022 1.182-1.011 1.182.028 1.181.027 1.182.024 1.182.022 1.182.016 1.182-.76 1.182.015 1.181.013 1.182.008 1.182.003 1.182-.002 1.182-.268 1.181-.014 1.182-.535 1.182-.274 1.182-.016 1.182-.016 1.182-.017 1.181-.787 1.182-.005 1.182-.26h1.182l1.182.002 1.181.004 1.182.006 1.182.005 1.182.004 1.182-.004 1.182-.012 1.181-.02 1.182-.026 1.182-.032 1.182-.55 1.182-.293 1.181-1.324 1.182-2.328 1.182-.472 1.182.08 1.182.101 1.182-.4 1.181-1.41 1.182-.096 1.182-1.114 1.182-1.093 1.182-.557 1.181-.545 1.182-.29 1.182.211 1.182-.85 1.182.152 1.182.115 1.181.077 1.182.036 1.182-1.554 1.182-1.061 1.182-1.342 1.181-1.351 1.182-1.351 1.182-.05 1.182-.043 1.182-3.123 1.182-.234 1.181-1.752 1.182-.693 1.182-1.188 1.182.124 1.182.13 1.181-4.76 1.182-.845 1.182.201 1.182-4.183 1.182-1.568 1.182.248 1.181.227 1.182-3.928 1.182-2.876 1.182-2.86 1.182-1.803 1.181-3.328 1.182-.969 1.182.333 1.182-3.302 1.182-1.75 1.182-1.248 1.181.262 1.182.195 1.182-5.02 1.182.133 1.182-3.546 1.181-1.773 1.182-2.848 1.182-4.159 1.182-6.206 1.182-2.783 1.182.116 1.181-2.722 1.182-2.951 1.182-1.1 1.182-4.443 1.182-2.09 1.181.243 1.182.234 1.182-3.422 1.182-2.16 1.182-1.7 1.182.033 1.181-4.452 1.182-.119 1.182-.187 1.182-7.23 1.182-2.072 1.181-7.248 1.182-1.502 1.182-.152 1.182-.137 1.182-.114 1.182-7.832 1.181-1.277 1.182-4.821 1.182-2.675 1.182.185 1.182.155 1.181.117 1.182-8.442 1.182-4.537 1.182-3.475 1.182-3.72 1.182-2.93 1.181-2.391 1.182.206 1.182-5.5 1.182-2.648 1.182-3.682 1.181-2.363 1.182-2.367 1.182.214 1.182.185 1.182.085 1.182-5.428 1.181-2.676 1.182-1.22 1.182-1.044 1.182-.332 1.182-.378 1.181-8.456 1.182-1.465 1.182-2.011 1.182-2.03 1.182-4.582 1.182-1.644 1.181-.239 1.182-.198 1.182-.182 1.182-6.873 1.182-2.15 1.181-1.849 1.182-.013 1.182.005 1.182-4.14 1.182-1.803 1.182-1.302 1.181-1.59 1.182-1.367 1.182-1.9 1.182-.092 1.182-.093 1.181-3.747 1.182-1.442 1.182-.944 1.182-1.47 1.182-.166 1.182-1.95 1.181-1.192 1.182-1.72 1.182-1.201 1.182-3.515 1.182-2.466 1.181-.126 1.182-.117 1.182-4.474 1.182-2.317 1.182-1.504 1.182-.705 1.181-3.528 1.182.132 1.182.15 1.182-3.472 1.182-.883 1.181-1.928 1.182-2.968 1.182-1.677 1.182.112 1.182.076 1.182-5.88 1.181-1.738 1.182-2.005 1.182-.721 1.182-1.257 1.182.025 1.181-.01 1.182-6.225 1.182-1.545 1.182-1.79 1.182-2.05 1.182-1.795 1.181.016 1.182-2.309 1.182-2.83 1.182-2.058 1.182-.77 1.181-4.637 1.182-2.29 1.182.049 1.182.046 1.182-4.365 1.182-2.02 2.363-2.011v-2.273l1.182-1.242 1.182-.213 1.182.038 1.181-2.594 1.182-1.338 1.182-1.388 1.182-3.23 1.182-1.43 1.182-1.431 1.181-.126 1.182-.938 1.182-.453 1.182-1.776 1.182-2.048 1.181-1.535 1.182-.226 1.182-.228 1.182-1.785 1.182-1.007 1.182-.994 1.181-1.26 1.182-2.552 1.182-.453 1.182-.156 1.182-.662 1.181-.4 1.182-1.691 1.182-.657 1.182-.658 1.182-.134 1.182-.12 1.181-1.152 1.182-.11 1.182-.367 1.182-.126 1.182-.147 1.181-.168 1.182-.182 1.182-.192 1.182-.194 1.182-.197 1.182-.463 1.181-.212 1.182-.211 1.182-.199 1.182-.185 1.182-.168 1.181-.402 1.182-.634 1.182-.106 1.182-.095 1.182-.075 1.182-.054 1.181-.028 1.182-.274 1.182-.004h1.182l1.182.006 1.181.012 1.182.008 1.182-.767 1.182-.247 1.182.012 1.182.012 1.181.01 1.182.01 1.182.007 1.182.006 1.182.004h1.181l1.182-.004 1.182-.008 1.182-.012 1.182-.017 1.182-.019 1.181-.021 1.182-.026 1.182-1.061 1.182-.02 1.182-.015 1.181-.009 1.182-.002 1.182.001 1.182-.25 1.182.013 1.182.02 1.181.022 1.182.026 1.182.022 1.182.017 1.182-.25 1.181-.254h1.182l1.182-.004 1.182-.008 1.182-.012 1.182-.273 1.181-.53 1.182-.008 1.182-.004h1.182l1.182.003 1.181.007 1.182.01 1.182-.501 1.182-1.526 1.182.04 1.182.047 1.181-5.593 1.182-.09 1.182-.057 1.182-1.583 1.182-1.032 1.181.281 1.182.283v-4.034l-1.182.283-1.181.28-1.182 1.564-1.182 2.051-1.182.461-1.182.43-1.181 5.826-1.182.047-1.182.04-1.182 1.589-1.182.537-1.182.01-1.181.006-1.182.004H791.7l-1.182-.005-1.182-.007-1.181.508-1.182.246-1.182-.012-1.182-.008-1.182-.004h-1.182l-1.181.264-1.182.27-1.182.017-1.182.022-1.182.026-1.181.023-1.182.019-1.182.014-1.182.268-1.182.001-1.182-.002-1.181-.01-1.182-.014-1.182-.02-1.182 1.015-1.182-.026-1.181-.02-1.182-.02-1.182-.017-1.182-.012-1.182-.008-1.182-.003h-1.181l-1.182.003-1.182.006-1.182.008-1.182.01-1.181.01-1.182.011-1.182.012-1.182.273-1.182.79-1.182.008-1.181.011-1.182.006H739.7l-1.182-.004-1.182.245-1.181-.027-1.182-.054-1.182-.075-1.182-.095-1.182-.107-1.182.405-1.181.117-1.182-.168-1.182-.185-1.182-.199-1.182-.21-1.181-.213-1.182.056-1.182-.197-1.182-.195-1.182-.192-1.182-.181-1.181-.169-1.182-.146-1.182-.126-1.182.152-1.182-.11-1.181.925-1.182-.12-1.182-.135-1.182.38-1.182.381-1.182 1.423-1.181.12-1.182.376-1.182-.156-1.182.066-1.182 2.12-1.181.816-1.182.563-1.182.55-1.182 1.33-1.182-.228-1.182-.227-1.181 1.061-1.182 1.585-1.182 1.339-1.182.066-1.182.619-1.181-.126-1.182 1.165-1.182 1.164-1.182 2.999-1.182 1.208-1.182 1.257-1.181 2.596-1.182.039-1.182.306-1.182 1.352v2.4l-2.363 2.14-1.182 2.133-1.182 4.46-1.182.046-1.182.049-1.182 2.38-1.181 4.707-1.182.787-1.182 2.096-1.182 2.878-1.182 2.363-1.181.016-1.182 1.838-1.182 2.103-1.182 1.843-1.182 1.57-1.182 6.231-1.181-.009-1.182.025-1.182 1.339-1.182.836-1.182 2.147-1.181 1.896-1.182 6.057-1.182.077-1.182.112-1.182 1.957-1.182 3.26-1.181 2.224-1.182 1.194-1.182 3.795-1.182.15-1.182.131-1.181 3.74-1.182.851-1.182 1.61-1.182 2.355-1.182 4.35-1.182-.116-1.181-.127-1.182 2.206-1.182 3.233-1.182.874-1.182 1.396-1.181.884-1.182 1.684-1.182-.167-1.182 1.126-1.182.612-1.182 1.154-1.181 3.52-1.182-.093-1.182-.092-1.182 1.733-1.182 1.228-1.181 1.525-1.182 1.293-1.182 1.831-1.182 4.164-1.182.006-1.182-.013-1.181 1.784-1.182 2.002-1.182 6.624-1.182-.183-1.182-.198-1.181-.239-1.182.951-1.182 3.724-1.182 1.084-1.182 1.103-1.182.611-1.181 7.635-1.182-.378-1.182-.331-1.182.512-1.182.857-1.181 2.515-1.182 5.471-1.182.086-1.182.185-1.182.213-1.182 2.825-1.181 2.826-1.182 4.105-1.182 3.062-1.182 5.919-1.182.206-1.181 2.8-1.182 3.299-1.182 4.065-1.182 3.792-1.182 4.806-1.182 8.687-1.181.117-1.182.155-1.182.185-1.182 3.035-1.182 5.04-1.181 1.32-1.182 7.739-1.182-.114-1.182-.138-1.182-.151-1.182 1.094-1.181 6.766-1.182 1.561-1.182 6.785-1.182-.187-1.182-.119-1.181 4.372-1.182.033-1.182 1.934-1.182 2.51-1.182 3.846-1.182.233-1.181.244-1.182 2.582-1.182 4.9-1.182 1.495-1.182 3.277-1.181 2.988-1.182.116-1.182 2.927-1.182 6.251-1.182 4.147-1.182 2.86-1.181 1.862-1.182 3.72-1.182.133-1.182 5.361-1.182.196-1.181.261-1.182 1.867-1.182 2.403-1.182 3.964-1.182.333-1.182 1.627-1.181 3.938-1.182 2.349-1.182 3.369-1.182 3.353-1.182 4.377-1.181.228-1.182.247-1.182 2.066-1.182 4.64-1.182.201-1.182 1.232-1.181 5.102-1.182.13-1.182.124-1.182 1.407-1.182.865-1.181 1.88-1.182.286-1.182 3.106-1.182-.043-1.182-.05-1.182 1.245-1.181 1.243-1.182 1.254-1.182 1.015-1.182 1.56-1.182.036-1.181.077-1.182.115-1.182.152-1.182 1.226-1.182.212-1.182.748-1.181 1.012-1.182 1-1.182 1.503-1.182 1.48-1.182.423-1.181 1.704-1.182.639-1.182.102-1.182.08-1.182.566-1.182 2.342-1.181 1.273-1.182.225-1.182.488-1.182-.032-1.182-.026-1.181-.02-1.182-.012-1.182-.004-1.182.005-1.182.005-1.182.005-1.181.004-1.182.003H440.7l-1.182.259-1.182-.006-1.181.77-1.182-.016-1.182-.016-1.182-.016-1.182.244-1.182.504-1.181-.015-1.182.252-1.182-.003-1.182.004-1.182.008-1.181.013-1.182.015-1.182.797-1.182.016-1.182.022-1.182.025-1.181.026-1.182.028-1.182 1.065-1.182.022-1.182.284-1.181.025-1.182.026-1.182.026-1.182.283-1.182.279-1.182.533-1.181.01-1.182.01-1.182.008-1.182.263-1.182.26-1.181-.001-1.182-.002-1.182.254-1.182-.015-1.182-.021-1.182.234-1.181-.029-1.182.232-1.182-.026-1.182-.022-1.182-.019-1.181-.019-1.182-.018-1.182-.016-1.182.242-1.182-.02-1.182.244-1.181-.015-1.182-.025-1.182-.035-1.182.22-1.182-.044-1.181-.043-1.182.217-1.182-.039-1.182-.04-1.182-.04-1.182.222-1.181.225-1.182.748-1.182-.026-1.182-.01-1.182-.001-1.181.009-1.182.017-1.182.024-1.182.291-1.182.556-1.182.041-1.181.048-1.182.57-1.182.311-1.182.053-1.182.311-1.181 1.603-1.182.036-1.182.039-1.182.04-1.182.039-1.182.295-1.181.03-1.182 1.065-1.182.015-1.182.008-1.182.26-1.181.252-1.182.243-1.182-.023-1.182.495-1.182-.027-1.182-.026-1.181-.023-1.182-.02-1.182-.016-1.182.248-1.182-.005-1.181.002-1.182.01-1.182.274-1.182.02-1.182.283-1.182.284-1.181.023-1.182.016-1.182-.001-1.182-.02-1.182-.034-1.181-.05-1.182.2-1.182.712-1.182-.068-1.182-.063-1.182.463-1.181-.055-1.182-.052-1.182.208-1.182-.05-1.182-.042-1.181-.042-1.182-.04-1.182-.043-1.182-.058-1.182.177-1.182-.112-1.181-.139-1.182-.167-1.182.077-1.182.067-1.182.057-1.181.828-1.182.822-1.182-.215-1.182-.207-1.182.072-1.182-.16-1.181-.136-1.182-.126-1.182-.113-1.182-.105-1.182.681-1.181.668-1.182.633-1.182.343-1.182-.188-1.182 1.096-1.182-.222-1.181.289-1.182 1.583-1.182 1.071-1.182 1.101-1.182.619-1.181 1.182-1.182-.064-1.182.783-1.182 1.37-1.182 1.437-1.182 1.243-1.181 1.303-1.182 1.88-1.182.368-1.182.93-1.182 2.251-1.181 3.033-1.182 1.217-1.182 1.738-1.182 1.203-1.182 3.245-1.182 4.486-1.181 1.837-1.182.775-1.182 2.05-1.182 2.271-1.182 1.457-1.181.654-1.182.898-1.182.36-1.182 1.636-1.182.828-1.182.81-1.181.02-1.182.278-1.182.013-1.182.012-1.182.529H151.155z" id="m1745107b81" style="stroke:#fff;stroke-opacity:.2"/></defs><g clip-path="url(#pbb24d31e3d)"><use style="fill:#089fff;fill-opacity:.2;stroke:#fff;stroke-opacity:.2" xlink:href="#m1745107b81" y="648"/></g></g><path clip-path="url(#pbb24d31e3d)" d="M149.973 554.04h67.363l1.182-.52h2.364l1.182-.259h1.181l2.364-1.557 1.182-1.557 1.182-.26 1.182-.778 1.181-.52 1.182-1.297 1.182-2.076 1.182-1.817 1.182-.519 1.181-1.557 1.182-4.152 1.182-2.855 1.182-.779 1.182-1.298 1.182-.778 1.181-2.595 1.182-1.817 1.182-.52h1.182l1.182-1.556 2.363-2.077 2.364-2.595 1.182-.779h1.182l1.181-1.297 1.182-.779 2.364-2.595 1.182-1.817 1.181-.519h1.182l1.182-1.298h1.182l1.182-.519 3.545-2.335h5.91l1.181-.26h2.364l2.363-2.076 3.546-.779h3.545l1.182-.26h7.091l1.182-.259h2.363l1.182-.519h2.364l1.182-.778 1.182-.26h7.09l2.364-.519h1.182l1.182-.26h3.545l1.182-.26h5.91l1.18-.518h1.183l3.545-.779h2.364l1.182-1.038h1.181l1.182-.26h4.728l1.181-1.557 1.182-.26h1.182l1.182-.259 1.182-.519h2.363l1.182-.519 1.182-.26h7.09l1.183-.778 2.363-.519h3.546l1.182-.26h2.363l1.182-.259h3.545l1.182-.26h1.182l1.182-.26h7.09l1.183-.259h1.181l1.182-.26h2.364l1.182-.259h2.363l2.364-.519h3.545l1.182-.519 2.364-.519h3.545l1.182-.26h1.182l1.182-1.037h5.909l1.182-.78h5.909l1.182-.259h1.181l1.182-.519 1.182-.26h3.546l1.181-.778h1.182l1.182-.26h13l1.182-.518 1.182-.26 1.181-1.298 1.182-2.335 1.182-.52h2.364l1.182-.518 1.181-1.558 1.182-.26 2.364-2.594 2.363-1.558 1.182-.519h1.182l1.182-1.038h4.727l1.182-1.557 1.182-1.038 3.545-3.893h2.364l1.182-3.114 1.182-.26 1.181-1.817 1.182-.778 1.182-1.298h2.364l1.181-4.931 1.182-1.038h1.182l1.182-4.412 1.182-1.817h2.363l1.182-4.152 2.364-6.23 1.182-2.075 1.181-3.634 1.182-1.297h1.182l1.182-3.634 1.182-2.076 1.182-1.557h2.363l1.182-5.19h1.182l1.182-3.634 1.181-1.817 1.182-2.855 1.182-4.152 1.182-6.23 1.182-2.854h1.182l2.363-5.97 1.182-1.297 1.182-4.671 1.182-2.336h2.363l1.182-3.634 1.182-2.335 1.182-1.817h1.182l1.181-4.412h2.364l1.182-7.007 1.182-1.817 1.181-7.007 1.182-1.298h3.546l1.182-7.786 1.181-1.298 1.182-4.93 1.182-2.856h3.545l1.182-8.564 1.182-4.672 3.546-10.64 1.181-2.596h1.182l1.182-5.71 1.182-2.854 1.182-3.893 2.363-5.19h3.546l1.182-5.45 1.181-2.596 1.182-1.038 1.182-.779h2.364l1.181-8.045 1.182-1.038 2.364-3.115 1.182-4.152 1.182-1.298h3.545l1.182-6.748 1.182-2.076 1.181-1.817h2.364l1.182-4.152 1.182-1.817 1.182-1.298 1.181-1.557 1.182-1.297 1.182-1.817h2.364l1.181-3.633 1.182-1.298 1.182-.779 1.182-1.297h1.182l1.182-1.817 1.181-1.038 1.182-1.557 1.182-1.039 1.182-3.373 1.182-2.336h2.363l1.182-4.412 1.182-2.336 1.182-1.557 1.182-.779 1.181-3.633h2.364l1.182-3.634 1.182-1.038 1.181-2.076 1.182-3.114 1.182-1.817h2.364l1.182-5.97 1.181-1.816 1.182-2.076 1.182-.779 1.182-1.297h2.363l1.182-6.23 1.182-1.556 1.182-1.817 1.182-2.076 1.182-1.817h1.181l1.182-2.336 1.182-2.855 1.182-2.076 1.182-.778 1.181-4.672 1.182-2.336h2.364l1.182-4.412 1.182-2.076 2.363-2.076v-2.336l1.182-1.298 1.182-.26h1.182l1.181-2.595 2.364-2.595 1.182-3.114 2.364-2.596h1.181l1.182-.778 1.182-.26 1.182-1.557 1.182-1.817 1.181-1.297h2.364l1.182-1.557 2.364-1.558 1.181-1.038 1.182-2.335 1.182-.26h1.182l1.182-.52 1.181-.259 1.182-1.557 2.364-1.038h2.364l1.181-1.038h1.182l1.182-.26h8.273l1.182-.26h5.909l1.181-.259 1.182-.519h5.91l1.181-.26h5.91l1.181-.778 1.182-.26h17.727l1.182-1.037h5.91l1.18-.26h7.092l2.363-.519h4.728l1.182-.26 1.181-.519h7.091l1.182-.519 1.182-1.557h2.364l1.181-5.71 2.364-.519 1.182-1.816 1.182-1.298h2.363" style="fill:none;stroke:#4c72b0;stroke-linecap:round;stroke-width:1.5" id="line2d_1"/><path d="M117 576.72V77.76" style="fill:none;stroke:#d3d3d3;stroke-linecap:square;stroke-linejoin:miter;stroke-width:1.25" id="patch_3"/><path d="M117 576.72h725.4" style="fill:none;stroke:#d3d3d3;stroke-linecap:square;stroke-linejoin:miter;stroke-width:1.25" id="patch_4"/><g id="matplotlib.axis_1"><g id="xtick_1"><g style="fill:#696969" transform="matrix(.16 0 0 -.16 114.004 598.378)" id="text_1"><defs><path d="M9.813 72.906h9.859V5.078q0-13.187-5-19.14-5-5.954-16.094-5.954h-3.75v8.297h3.078q6.531 0 9.219 3.672Q9.813-4.39 9.813 5.078z" id="DejaVuSans-74"/><path d="M34.281 27.484q-10.89 0-15.093-2.484-4.204-2.484-4.204-8.5 0-4.781 3.157-7.594 3.156-2.797 8.562-2.797 7.485 0 12 5.297 4.516 5.297 4.516 14.078v2zm17.922 3.72V0H43.22v8.297Q40.14 3.328 35.547.953q-4.594-2.375-11.234-2.375-8.391 0-13.36 4.719Q6 8.016 6 15.922q0 9.219 6.172 13.906 6.187 4.688 18.437 4.688h12.61v.89q0 6.203-4.078 9.594-4.078 3.39-11.453 3.39-4.688 0-9.141-1.124-4.438-1.125-8.531-3.375v8.312q4.921 1.906 9.562 2.844 4.64.953 9.031.953 11.875 0 17.735-6.156 5.86-6.14 5.86-18.64z" id="DejaVuSans-97"/><path d="M54.89 33.016V0h-8.984v32.719q0 7.765-3.031 11.61-3.031 3.858-9.078 3.858-7.281 0-11.484-4.64-4.204-4.625-4.204-12.64V0H9.08v54.688h9.03v-8.5q3.235 4.937 7.594 7.374Q30.078 56 35.797 56q9.422 0 14.25-5.828 4.844-5.828 4.844-17.156z" id="DejaVuSans-110"/></defs><use xlink:href="#DejaVuSans-74"/><use x="29.492" xlink:href="#DejaVuSans-97"/><use x="90.771" xlink:href="#DejaVuSans-110"/></g></g><g id="xtick_2"><g style="fill:#696969" transform="matrix(.16 0 0 -.16 182.152 598.378)" id="text_2"><defs><path d="M9.813 72.906h14.703l18.593-49.61 18.703 49.61h14.704V0H66.89v64.016l-18.797-50h-9.907l-18.796 50V0H9.813z" id="DejaVuSans-77"/><path d="M41.11 46.297q-1.516.875-3.297 1.281Q36.03 48 33.89 48q-7.625 0-11.703-4.953-4.079-4.953-4.079-14.234V0H9.08v54.688h9.03v-8.5q2.844 4.984 7.375 7.39Q30.031 56 36.531 56q.922 0 2.047-.125 1.125-.11 2.484-.36z" id="DejaVuSans-114"/></defs><use xlink:href="#DejaVuSans-77"/><use x="86.279" xlink:href="#DejaVuSans-97"/><use x="147.559" xlink:href="#DejaVuSans-114"/></g></g><g id="xtick_3"><g style="fill:#696969" transform="matrix(.16 0 0 -.16 252.796 598.378)" id="text_3"><defs><path d="M32.172-5.078q-3.797-9.766-7.422-12.735-3.61-2.984-9.656-2.984H7.906v7.516h5.282q3.703 0 5.75 1.765Q21-9.766 23.483-3.219l1.61 4.094-22.11 53.813H12.5l17.094-42.766 17.093 42.766h9.516z" id="DejaVuSans-121"/></defs><use xlink:href="#DejaVuSans-77"/><use x="86.279" xlink:href="#DejaVuSans-97"/><use x="147.559" xlink:href="#DejaVuSans-121"/></g></g><g id="xtick_4"><g style="fill:#696969" transform="matrix(.16 0 0 -.16 331.775 598.378)" id="text_4"><defs><path d="M8.5 21.578v33.11h8.984V21.922q0-7.766 3.016-11.656 3.031-3.875 9.094-3.875 7.265 0 11.484 4.64 4.234 4.64 4.234 12.656v31h8.985V0h-8.984v8.406Q42.047 3.422 37.718 1q-4.313-2.422-10.032-2.422-9.421 0-14.312 5.86Q8.5 10.296 8.5 21.578zM31.11 56z" id="DejaVuSans-117"/><path d="M9.422 75.984h8.984V0H9.422z" id="DejaVuSans-108"/></defs><use xlink:href="#DejaVuSans-74"/><use x="29.492" xlink:href="#DejaVuSans-117"/><use x="92.871" xlink:href="#DejaVuSans-108"/></g></g><g id="xtick_5"><g style="fill:#696969" transform="matrix(.16 0 0 -.16 399.62 598.378)" id="text_5"><defs><path d="M53.516 70.516V60.89q-5.61 2.687-10.594 4-4.984 1.328-9.625 1.328-8.047 0-12.422-3.125t-4.375-8.89q0-4.845 2.906-7.313 2.907-2.453 11.016-3.97l5.953-1.218q11.031-2.11 16.281-7.406 5.25-5.297 5.25-14.172 0-10.61-7.11-16.078-7.093-5.469-20.812-5.469-5.172 0-11.015 1.172Q13.14.922 6.89 3.219v10.156q6-3.36 11.765-5.078 5.766-1.703 11.328-1.703 8.438 0 13.032 3.312 4.593 3.328 4.593 9.485 0 5.359-3.297 8.39-3.296 3.032-10.812 4.547L27.484 33.5q-11.03 2.188-15.968 6.875-4.922 4.688-4.922 13.047 0 9.672 6.812 15.234 6.813 5.563 18.766 5.563 5.14 0 10.453-.938 5.328-.922 10.89-2.765z" id="DejaVuSans-83"/><path d="M56.203 29.594v-4.39H14.891q.593-9.282 5.593-14.142 5-4.859 13.938-4.859 5.172 0 10.031 1.266 4.86 1.265 9.656 3.812v-8.5Q49.266.734 44.187-.344 39.11-1.422 33.892-1.422q-13.094 0-20.735 7.61-7.64 7.625-7.64 20.625 0 13.421 7.25 21.296Q20.016 56 32.328 56q11.031 0 17.453-7.11 6.422-7.093 6.422-19.296zm-8.984 2.64q-.094 7.36-4.125 11.75-4.032 4.407-10.672 4.407-7.516 0-12.031-4.25-4.516-4.25-5.203-11.97z" id="DejaVuSans-101"/><path d="M18.11 8.203v-29H9.077v75.484h9.031v-8.296q2.844 4.875 7.157 7.234Q29.594 56 35.594 56q9.968 0 16.187-7.906 6.235-7.907 6.235-20.797T51.78 6.484q-6.218-7.906-16.187-7.906-6 0-10.328 2.375-4.313 2.375-7.157 7.25zm30.578 19.094q0 9.906-4.079 15.547-4.078 5.64-11.203 5.64-7.14 0-11.218-5.64-4.079-5.64-4.079-15.547 0-9.906 4.078-15.547 4.079-5.64 11.22-5.64 7.124 0 11.202 5.64t4.078 15.547z" id="DejaVuSans-112"/></defs><use xlink:href="#DejaVuSans-83"/><use x="63.477" xlink:href="#DejaVuSans-101"/><use x="125" xlink:href="#DejaVuSans-112"/></g></g><g id="xtick_6"><g style="fill:#696969" transform="matrix(.16 0 0 -.16 471.176 598.378)" id="text_6"><defs><path d="M9.813 72.906h13.28l32.329-60.984v60.984h9.562V0h-13.28L19.39 60.984V0H9.813z" id="DejaVuSans-78"/><path d="M30.61 48.39q-7.22 0-11.422-5.64-4.204-5.64-4.204-15.453 0-9.813 4.172-15.453 4.188-5.64 11.453-5.64 7.188 0 11.375 5.655 4.203 5.672 4.203 15.438 0 9.719-4.203 15.406-4.187 5.688-11.375 5.688zm0 7.61q11.718 0 18.406-7.625 6.703-7.61 6.703-21.078 0-13.422-6.703-21.078-6.688-7.64-18.407-7.64-11.765 0-18.437 7.64-6.656 7.656-6.656 21.078 0 13.469 6.656 21.078Q18.844 56 30.609 56z" id="DejaVuSans-111"/><path d="M2.984 54.688H12.5L29.594 8.797l17.093 45.89h9.516L35.687 0H23.485z" id="DejaVuSans-118"/></defs><use xlink:href="#DejaVuSans-78"/><use x="74.805" xlink:href="#DejaVuSans-111"/><use x="135.986" xlink:href="#DejaVuSans-118"/></g></g><g id="xtick_7"><g style="fill:#696969" transform="matrix(.16 0 0 -.16 546.55 598.378)" id="text_7"><use xlink:href="#DejaVuSans-74"/><use x="29.492" xlink:href="#DejaVuSans-97"/><use x="90.771" xlink:href="#DejaVuSans-110"/></g></g><g id="xtick_8"><g style="fill:#696969" transform="matrix(.16 0 0 -.16 613.515 598.378)" id="text_8"><use xlink:href="#DejaVuSans-77"/><use x="86.279" xlink:href="#DejaVuSans-97"/><use x="147.559" xlink:href="#DejaVuSans-114"/></g></g><g id="xtick_9"><g style="fill:#696969" transform="matrix(.16 0 0 -.16 684.16 598.378)" id="text_9"><use xlink:href="#DejaVuSans-77"/><use x="86.279" xlink:href="#DejaVuSans-97"/><use x="147.559" xlink:href="#DejaVuSans-121"/></g></g><g id="xtick_10"><g style="fill:#696969" transform="matrix(.16 0 0 -.16 763.138 598.378)" id="text_10"><use xlink:href="#DejaVuSans-74"/><use x="29.492" xlink:href="#DejaVuSans-117"/><use x="92.871" xlink:href="#DejaVuSans-108"/></g></g></g><g id="matplotlib.axis_2"><g id="ytick_1"><g style="fill:#696969" transform="matrix(.16 0 0 -.16 97.32 560.119)" id="text_11"><defs><path d="M31.781 66.406q-7.61 0-11.453-7.5Q16.5 51.422 16.5 36.375q0-14.984 3.828-22.484 3.844-7.5 11.453-7.5 7.672 0 11.5 7.5 3.844 7.5 3.844 22.484 0 15.047-3.844 22.531-3.828 7.5-11.5 7.5zm0 7.813q12.266 0 18.735-9.703 6.468-9.688 6.468-28.141 0-18.406-6.468-28.11-6.47-9.687-18.735-9.687-12.25 0-18.718 9.688-6.47 9.703-6.47 28.109 0 18.453 6.47 28.14Q19.53 74.22 31.78 74.22z" id="DejaVuSans-48"/></defs><use xlink:href="#DejaVuSans-48"/></g></g><g id="ytick_2"><g style="fill:#696969" transform="matrix(.16 0 0 -.16 76.96 495.236)" id="text_12"><defs><path d="M19.188 8.297h34.421V0H7.33v8.297q5.609 5.812 15.296 15.594 9.703 9.797 12.188 12.64 4.734 5.313 6.609 9 1.89 3.688 1.89 7.25 0 5.813-4.078 9.469-4.078 3.672-10.625 3.672-4.64 0-9.797-1.61-5.14-1.609-11-4.89v9.969Q13.767 71.78 18.938 73q5.188 1.219 9.485 1.219 11.328 0 18.062-5.672 6.735-5.656 6.735-15.125 0-4.5-1.688-8.531-1.672-4.016-6.125-9.485-1.218-1.422-7.765-8.187-6.532-6.766-18.453-18.922z" id="DejaVuSans-50"/><path d="M10.797 72.906h38.719v-8.312H19.828v-17.86q2.14.735 4.281 1.094 2.157.36 4.313.36 12.203 0 19.328-6.688 7.14-6.688 7.14-18.11 0-11.765-7.328-18.296-7.328-6.516-20.656-6.516-4.593 0-9.36.781-4.75.782-9.827 2.344v9.922q4.39-2.39 9.078-3.563 4.687-1.171 9.906-1.171 8.453 0 13.375 4.437 4.938 4.438 4.938 12.063 0 7.609-4.938 12.047-4.922 4.453-13.375 4.453-3.953 0-7.89-.875-3.922-.875-8.016-2.735z" id="DejaVuSans-53"/></defs><use xlink:href="#DejaVuSans-50"/><use x="63.623" xlink:href="#DejaVuSans-53"/><use x="127.246" xlink:href="#DejaVuSans-48"/></g></g><g id="ytick_3"><g style="fill:#696969" transform="matrix(.16 0 0 -.16 76.96 430.354)" id="text_13"><use xlink:href="#DejaVuSans-53"/><use x="63.623" xlink:href="#DejaVuSans-48"/><use x="127.246" xlink:href="#DejaVuSans-48"/></g></g><g id="ytick_4"><g style="fill:#696969" transform="matrix(.16 0 0 -.16 76.96 365.47)" id="text_14"><defs><path d="M8.203 72.906h46.875v-4.203L28.61 0H18.312L43.22 64.594H8.203z" id="DejaVuSans-55"/></defs><use xlink:href="#DejaVuSans-55"/><use x="63.623" xlink:href="#DejaVuSans-53"/><use x="127.246" xlink:href="#DejaVuSans-48"/></g></g><g id="ytick_5"><g style="fill:#696969" transform="matrix(.16 0 0 -.16 66.78 300.588)" id="text_15"><defs><path d="M12.406 8.297h16.11v55.625l-17.532-3.516v8.985l17.438 3.515h9.86V8.296H54.39V0H12.406z" id="DejaVuSans-49"/></defs><use xlink:href="#DejaVuSans-49"/><use x="63.623" xlink:href="#DejaVuSans-48"/><use x="127.246" xlink:href="#DejaVuSans-48"/><use x="190.869" xlink:href="#DejaVuSans-48"/></g></g><g id="ytick_6"><g style="fill:#696969" transform="matrix(.16 0 0 -.16 66.78 235.706)" id="text_16"><use xlink:href="#DejaVuSans-49"/><use x="63.623" xlink:href="#DejaVuSans-50"/><use x="127.246" xlink:href="#DejaVuSans-53"/><use x="190.869" xlink:href="#DejaVuSans-48"/></g></g><g id="ytick_7"><g style="fill:#696969" transform="matrix(.16 0 0 -.16 66.78 170.823)" id="text_17"><use xlink:href="#DejaVuSans-49"/><use x="63.623" xlink:href="#DejaVuSans-53"/><use x="127.246" xlink:href="#DejaVuSans-48"/><use x="190.869" xlink:href="#DejaVuSans-48"/></g></g><g id="ytick_8"><g style="fill:#696969" transform="matrix(.16 0 0 -.16 66.78 105.94)" id="text_18"><use xlink:href="#DejaVuSans-49"/><use x="63.623" xlink:href="#DejaVuSans-55"/><use x="127.246" xlink:href="#DejaVuSans-53"/><use x="190.869" xlink:href="#DejaVuSans-48"/></g></g><g style="fill:#696969" transform="matrix(0 -.2 -.2 0 58.62 379.813)" id="text_19"><defs><path d="M51.125 44H36.922l-4.11-16.313h14.313zm-7.328 27.781-5.078-20.265h14.265L58.11 71.78h7.813L60.89 51.516h15.234V44h-17.14l-4-16.313h15.53V20.22H53.079L48 0h-7.813l5.032 20.219H30.906L25.875 0h-7.86l5.079 20.219H7.719v7.468h17.187L29 44H13.281v7.516h17.625l4.985 20.265z" id="DejaVuSans-35"/><path d="M37.11 75.984V68.5h-8.594q-4.828 0-6.72-1.953-1.874-1.953-1.874-7.031v-4.828h14.797v-6.985H19.922V0H10.89v47.703H2.297v6.984h8.594V58.5q0 9.125 4.25 13.297 4.25 4.187 13.468 4.187z" id="DejaVuSans-102"/><path d="M48.781 52.594v-8.407q-3.812 2.11-7.64 3.157-3.828 1.047-7.735 1.047-8.75 0-13.593-5.547-4.829-5.532-4.829-15.547 0-10.016 4.829-15.563 4.843-5.53 13.593-5.53 3.907 0 7.735 1.046 3.828 1.047 7.64 3.156V2.094Q45.016.344 40.984-.531q-4.015-.89-8.562-.89-12.36 0-19.64 7.765-7.266 7.765-7.266 20.953 0 13.375 7.343 21.031Q20.22 56 33.016 56q4.14 0 8.093-.86 3.953-.843 7.672-2.546z" id="DejaVuSans-99"/><path d="M44.281 53.078v-8.5q-3.797 1.953-7.906 2.922-4.094.984-8.5.984-6.688 0-10.031-2.047-3.344-2.046-3.344-6.156 0-3.125 2.39-4.906 2.391-1.781 9.626-3.39l3.078-.688q9.562-2.047 13.593-5.781 4.032-3.735 4.032-10.422 0-7.625-6.032-12.078-6.03-4.438-16.578-4.438-4.39 0-9.156.86Q10.688.296 5.422 2v9.281q4.984-2.594 9.812-3.89 4.829-1.282 9.579-1.282 6.343 0 9.75 2.172 3.421 2.172 3.421 6.125 0 3.656-2.468 5.61-2.453 1.953-10.813 3.765l-3.125.735q-8.344 1.75-12.062 5.39-3.704 3.64-3.704 9.985 0 7.718 5.47 11.906Q16.75 56 26.811 56q4.97 0 9.36-.734 4.406-.72 8.11-2.188z" id="DejaVuSans-115"/></defs><use xlink:href="#DejaVuSans-35"/><use x="83.789" xlink:href="#DejaVuSans-32"/><use x="115.576" xlink:href="#DejaVuSans-111"/><use x="176.758" xlink:href="#DejaVuSans-102"/><use x="211.963" xlink:href="#DejaVuSans-32"/><use x="243.75" xlink:href="#DejaVuSans-99"/><use x="298.73" xlink:href="#DejaVuSans-97"/><use x="360.01" xlink:href="#DejaVuSans-115"/><use x="412.109" xlink:href="#DejaVuSans-101"/><use x="473.633" xlink:href="#DejaVuSans-115"/></g></g><g style="fill:#696969" transform="matrix(.24 0 0 -.24 306.902 71.76)" id="text_20"><defs><path d="M44.39 34.188q3.172-1.079 6.172-4.594 3-3.516 6.032-9.672L66.609 0H56l-9.313 18.703q-3.624 7.328-7.015 9.719-3.39 2.39-9.25 2.39h-10.75V0h-9.86v72.906h22.266q12.5 0 18.656-5.234 6.157-5.219 6.157-15.766 0-6.89-3.203-11.437-3.204-4.532-9.297-6.282zM19.673 64.797V38.922h12.406q7.125 0 10.766 3.297 3.64 3.297 3.64 9.687 0 6.39-3.64 9.64-3.64 3.25-10.766 3.25z" id="DejaVuSans-82"/><path d="M18.313 70.219V54.688h18.5v-6.985h-18.5V18.016q0-6.688 1.828-8.594 1.828-1.906 7.453-1.906h9.218V0h-9.218q-10.407 0-14.36 3.875-3.953 3.89-3.953 14.14v29.688H2.687v6.984h6.594V70.22z" id="DejaVuSans-116"/><path d="M54.89 33.016V0h-8.984v32.719q0 7.765-3.031 11.61-3.031 3.858-9.078 3.858-7.281 0-11.484-4.64-4.204-4.625-4.204-12.64V0H9.08v75.984h9.03V46.188q3.235 4.937 7.594 7.374Q30.078 56 35.797 56q9.422 0 14.25-5.828 4.844-5.828 4.844-17.156z" id="DejaVuSans-104"/><path d="M45.406 46.39v29.594h8.985V0h-8.985v8.203Q42.578 3.328 38.25.953q-4.313-2.375-10.375-2.375-9.906 0-16.14 7.906-6.22 7.922-6.22 20.813 0 12.89 6.22 20.797Q17.968 56 27.874 56q6.063 0 10.375-2.375 4.328-2.36 7.156-7.234zm-30.61-19.093q0-9.906 4.079-15.547 4.078-5.64 11.203-5.64 7.125 0 11.219 5.64 4.11 5.64 4.11 15.547 0 9.906-4.11 15.547-4.094 5.64-11.219 5.64-7.125 0-11.203-5.64-4.078-5.64-4.078-15.547z" id="DejaVuSans-100"/><path d="M-.297 72.906h61.672v-8.312H35.5V0h-9.906v64.594H-.296z" id="DejaVuSans-84"/><path d="M64.406 67.281v-10.39q-4.984 4.64-10.625 6.922-5.64 2.296-11.984 2.296-12.5 0-19.14-7.64-6.641-7.64-6.641-22.094 0-14.406 6.64-22.047 6.64-7.64 19.14-7.64 6.345 0 11.985 2.296 5.64 2.297 10.625 6.938V5.609Q59.234 2.094 53.437.33q-5.78-1.75-12.218-1.75-16.563 0-26.094 10.124-9.516 10.14-9.516 27.672 0 17.578 9.516 27.703 9.531 10.14 26.094 10.14 6.531 0 12.312-1.734 5.797-1.734 10.875-5.203z" id="DejaVuSans-67"/><path d="M9.422 54.688h8.984V0H9.422zm0 21.296h8.984v-11.39H9.422z" id="DejaVuSans-105"/></defs><use xlink:href="#DejaVuSans-82"/><use x="64.982" xlink:href="#DejaVuSans-117"/><use x="128.361" xlink:href="#DejaVuSans-116"/><use x="167.57" xlink:href="#DejaVuSans-104"/><use x="230.949" xlink:href="#DejaVuSans-101"/><use x="292.473" xlink:href="#DejaVuSans-114"/><use x="333.586" xlink:href="#DejaVuSans-102"/><use x="368.791" xlink:href="#DejaVuSans-111"/><use x="429.973" xlink:href="#DejaVuSans-114"/><use x="469.336" xlink:href="#DejaVuSans-100"/><use x="532.813" xlink:href="#DejaVuSans-32"/><use x="564.6" xlink:href="#DejaVuSans-84"/><use x="608.684" xlink:href="#DejaVuSans-111"/><use x="669.865" xlink:href="#DejaVuSans-116"/><use x="709.074" xlink:href="#DejaVuSans-97"/><use x="770.354" xlink:href="#DejaVuSans-108"/><use x="798.137" xlink:href="#DejaVuSans-32"/><use x="829.924" xlink:href="#DejaVuSans-67"/><use x="899.748" xlink:href="#DejaVuSans-111"/><use x="960.93" xlink:href="#DejaVuSans-118"/><use x="1020.109" xlink:href="#DejaVuSans-105"/><use x="1047.893" xlink:href="#DejaVuSans-100"/><use x="1111.369" xlink:href="#DejaVuSans-32"/><use x="1143.156" xlink:href="#DejaVuSans-67"/><use x="1212.98" xlink:href="#DejaVuSans-97"/><use x="1274.26" xlink:href="#DejaVuSans-115"/><use x="1326.359" xlink:href="#DejaVuSans-101"/><use x="1387.883" xlink:href="#DejaVuSans-115"/></g><g id="legend_1"><path d="M128.2 137.53h144.675q3.2 0 3.2-3.2V88.96q0-3.2-3.2-3.2H128.2q-3.2 0-3.2 3.2v45.37q0 3.2 3.2 3.2z" style="fill:none;opacity:.8;stroke:#ccc;stroke-linejoin:miter" id="patch_5"/><path d="M131.4 98.718h32" style="fill:none;stroke:#4c72b0;stroke-linecap:round;stroke-width:1.5" id="line2d_2"/><g style="fill:#696969" transform="matrix(.16 0 0 -.16 176.2 104.317)" id="text_21"><use xlink:href="#DejaVuSans-84"/><use x="44.084" xlink:href="#DejaVuSans-111"/><use x="105.266" xlink:href="#DejaVuSans-116"/><use x="144.475" xlink:href="#DejaVuSans-97"/><use x="205.754" xlink:href="#DejaVuSans-108"/><use x="233.537" xlink:href="#DejaVuSans-32"/><use x="265.324" xlink:href="#DejaVuSans-67"/><use x="335.148" xlink:href="#DejaVuSans-97"/><use x="396.428" xlink:href="#DejaVuSans-115"/><use x="448.527" xlink:href="#DejaVuSans-101"/><use x="510.051" xlink:href="#DejaVuSans-115"/></g><path d="M131.4 127.802h32v-11.2h-32z" style="fill:#089fff;opacity:.2;stroke:#fff;stroke-linejoin:miter" id="patch_6"/><g style="fill:#696969" transform="matrix(.16 0 0 -.16 176.2 127.802)" id="text_22"><defs><path d="M8.688 72.906h9.921V28.61q0-11.718 4.235-16.875 4.25-5.14 13.781-5.14 9.469 0 13.719 5.14 4.25 5.157 4.25 16.875v44.297H64.5V27.391q0-14.25-7.063-21.532-7.046-7.28-20.812-7.28-13.828 0-20.89 7.28-7.047 7.282-7.047 21.532z" id="DejaVuSans-85"/></defs><use xlink:href="#DejaVuSans-85"/><use x="73.193" xlink:href="#DejaVuSans-110"/><use x="136.572" xlink:href="#DejaVuSans-99"/><use x="191.553" xlink:href="#DejaVuSans-101"/><use x="253.076" xlink:href="#DejaVuSans-114"/><use x="294.189" xlink:href="#DejaVuSans-116"/><use x="333.398" xlink:href="#DejaVuSans-97"/><use x="394.678" xlink:href="#DejaVuSans-105"/><use x="422.461" xlink:href="#DejaVuSans-110"/><use x="485.84" xlink:href="#DejaVuSans-116"/><use x="525.049" xlink:href="#DejaVuSans-121"/></g></g></g></g><defs><clipPath id="pbb24d31e3d"><path d="M117 77.76h725.4v498.96H117z"/></clipPath></defs></svg>