<svg height="864" viewBox="0 0 936 648" width="1248" xmlns="http://www.w3.org/2000/svg" xmlns:xlink="http://www.w3.org/1999/xlink"><defs><style>*{stroke-linecap:butt;stroke-linejoin:round}</style></defs><g id="figure_1"><path d="M0 648h936V0H0z" style="fill:#fff" id="patch_1"/><g id="axes_1"><path d="M117 576.72h725.4V77.76H117z" style="fill:none" id="patch_2"/><path clip-path="url(#p262efa6975)" d="m149.973 554.04 49.418-.085 4.051-.241 4.05-.484 4.051-.73 23.495-4.74 6.48-1.111 18.634-2.819 13.772-2.183 4.051-.924 4.05-1.164 5.672-1.956 4.05-1.616 6.481-2.917 9.722-4.287 4.861-1.853 8.101-2.872 5.671-1.684 10.532-2.948 10.532-2.755 12.962-3.942 6.481-2.31 5.671-2.287 3.241-1.517 4.05-2.146 3.241-1.931 2.43-1.686 2.431-1.943 2.43-2.235 3.241-3.381 4.05-4.653 4.862-5.644 4.05-4.59 2.43-3.177 3.241-4.605 11.342-16.848 7.292-9.41 2.43-3.665 2.43-4.034 4.861-8.3 2.43-3.75 2.431-3.346 2.43-3.022 4.051-4.619 3.24-3.337 2.431-2.266 2.43-2.023 3.241-2.356 3.24-2.043 2.431-1.284 9.722-4.52 7.291-3.1 4.05-1.622 8.912-3.43 8.912-3.947 5.67-2.672 5.672-2.613 4.05-1.631 5.672-1.977 4.05-1.249 4.051-1.054 5.671-1.239 5.671-.96 4.86-.63 2.431-.176 5.671-.416 7.291-.623 8.102-.701 9.722-1.466 5.67-1.268 2.431-.761 3.24-1.241 2.431-1.197 3.24-1.863 2.431-1.679 3.24-2.511 4.051-3.544 6.481-6.449 5.671-6.031 6.481-6.99 5.671-5.904 4.051-4.147 3.24-2.931 4.051-3.31 4.861-3.614 4.861-3.293 5.671-3.366 3.24-1.743 19.444-9.892 4.05-2.537 5.672-3.509 3.24-1.701 1.62-1.029 4.861-3.962 7.292-6.02 2.43-2.258 1.62-1.823 3.24-4.275 1.621-2.802 1.62-3.594 2.43-6.634.811-2.666 1.62-6.302 1.62-7.107 2.431-12.25 2.43-13.02 3.241-17.293 3.24-16.545 3.241-15.453 1.62-6.695 2.43-8.917 1.621-5.038 1.62-4.126 2.43-5.131 1.621-2.733 1.62-2.385 2.43-2.96 1.621-1.63 1.62-1.378 2.43-1.805 3.241-1.798 4.051-1.872 3.24-1.161 2.431-.715 5.671-1.379 7.291-1.59 16.203-3.347h0" style="fill:none;stroke:#000;stroke-linecap:round;stroke-width:1.5" id="line2d_1"/><path clip-path="url(#p262efa6975)" d="m149.973 554.04 47.798-.078 2.43-.168 2.43-.396 1.621-.518 1.62-.739 1.62-.961 1.621-1.164 2.43-2.093 4.861-4.37 8.102-6.99 4.05-3.47 2.43-1.77 3.241-2.106 2.43-1.384 2.431-1.153 2.43-.922 4.051-1.211 7.292-2.064 6.48-1.375 4.051-.565 6.482-.656 7.29-.696 5.672-.688 15.392-1.09 4.051-.303 12.152-1.203 12.152-1.03 12.153-1 8.911-.906 7.291-.947 7.292-1.252 6.48-1.332 4.051-1.03 3.241-.97 3.24-1.175 4.051-1.66 2.43-1.178 2.431-1.411 2.43-1.726 1.62-1.37 3.241-3.006 4.861-4.852 8.102-8.446 12.152-14.735 7.291-7.88 3.24-3.287.81-.903 2.431-7.14 3.24-10.29 5.672-9.016 2.43-3.52 5.671-7.286 4.86-6.03 2.431-2.432 9.722-8.728 4.05-3.107 5.672-4.45 10.532-9.03 4.86-4.653 4.051-4.18 4.86-5.364 3.242-3.68 3.24-3.375 4.05-3.881 6.482-5.842 2.43-1.91.81-.557 2.43-.607 2.431-.327.81-.062 3.241-1.319 2.43-.77 2.43-.532 7.292-.832 5.671-.59 11.342-.755 29.975-1.882 4.051-.526 4.86-.895 4.052-.968 4.05-1.223 4.05-1.42 4.862-2.124 10.532-5.262 4.05-2.102 3.24-1.615 6.482-3.594 6.481-3.588 4.861-2.253 8.101-3.524 3.24-1.273 4.052-1.32 16.202-5.155 3.241-1.185 4.05-1.784 4.862-2.51 4.86-2.79 1.62-1.188 2.431-2.213 2.43-2.463 4.861-5.437 1.62-2.033 1.62-2.37 1.621-2.817.81-1.67.81-1.989.81-2.326 1.62-5.545 1.621-6.096 1.62-7.643 1.62-9.385 1.621-10.833 2.43-18.585 4.861-38.04 1.62-10.962 1.62-9.205 1.621-7.587 1.62-6.107 1.62-4.88 1.621-4.157 1.62-3.607 2.43-4.568 1.621-2.381 1.62-2.075.81-.91 1.62-1.333 2.431-1.764 3.24-1.879 5.672-2.793 3.24-1.416 3.24-1.06 7.292-2.192 5.671-1.43 12.152-3.022 4.05-1.2 3.241-1.181 3.241-1.393.81-.378h0" style="fill:none;stroke:#009e73;stroke-linecap:round;stroke-width:1.5" id="line2d_2"/><path clip-path="url(#p262efa6975)" d="m149.973 554.04 46.178-.103 3.24-.38 2.43-.517 1.621-.577 1.62-.888 1.62-1.138 1.62-1.551 1.621-2.03 1.62-2.34 2.43-3.692 1.621-2.136 1.62-1.902 8.912-8.737 1.62-1.366 1.62-1.111 1.62-.926 1.621-.753 4.05-1.583 3.241-.891 3.24-.619 17.824-2.61 7.291-.705 3.24-.29 4.862-.388 6.48-1.145 10.533-.948 8.911-.522 17.823-1.822 2.43-.262 32.406-2.245 5.671-.635 4.861-.72 5.671-1.095 4.861-1.229 4.86-1.522 4.052-1.549 3.24-1.573 1.62-.983 2.43-1.802 2.431-2.044 4.05-3.69 9.723-9.397 4.05-4.51 7.292-6.772 5.67-5.031 6.482-5.614 2.43-6.16 2.43-6.624.81-2.32 4.051-5.489 4.051-5.281 4.86-5.611 5.672-6.346 4.05-3.79 3.241-3.035 2.43-2.178 8.102-6.714 2.43-2.25 3.241-3.31 3.24-3.19 4.051-3.685 4.861-4.955 4.05-4.469 4.052-4.616 8.1-9.778 2.431-2.438 3.24-2.915 4.862-3.897 2.43-1.692 2.43-1.417 2.431-1.153 2.43-.907 1.62-.571 5.672-4.14 1.62-.355 6.481-.917 8.102-.704 39.696-2.411 4.051-.503 4.05-.764 4.052-.974 7.29-2.032 5.672-1.958 4.86-1.993 8.102-3.433 7.291-2.98 3.24-1.456 12.153-5.13 4.86-1.722 7.292-2.213 3.24-.818 7.292-1.746 4.05-1.054 8.912-2.127 2.43-.834 4.051-1.668 5.671-2.46 2.43-1.302 2.431-1.601 2.43-1.842 3.241-2.823 1.62-1.51 1.62-1.753 1.62-2.183 1.621-2.624.81-1.612.81-1.953.81-2.364 1.62-5.804 1.621-6.623.81-3.997 1.62-9.623 2.431-16.64 8.101-61.127 1.62-9.596 1.621-8.06 1.62-6.556 1.62-5.462 1.62-4.575 1.621-3.93.81-1.732 1.62-2.8.81-1.242 1.621-1.963 1.62-1.749 1.62-1.478 3.241-2.237 5.671-2.962 2.43-1.095 4.051-1.67 4.05-1.288 4.052-1.348 11.342-3.671 6.48-2.387 4.051-1.522 3.241-1.48 3.24-1.863 3.241-2.072h0" style="fill:none;stroke:#d55e00;stroke-linecap:round;stroke-width:1.5" id="line2d_3"/><path clip-path="url(#p262efa6975)" d="m149.973 554.04 48.608-.085 2.43-.17 1.62-.313 2.431-.695 1.62-.724 2.431-1.32 1.62-1.434 4.051-3.661.81-.582 7.291-3.72 4.051-1.873 2.43-1.107 2.43-.78 2.431-.61 2.43-.37 4.862-.426 4.05-.723 3.24-.142 7.292-.213 5.671-.511 4.861-.17 5.671-.213 3.24-.128 4.051-.37 14.583-1.717 7.291-.482 2.43-.156 21.874-.838 12.963-1.036 8.911-.553 4.05-.327 2.431-.085 5.671-.07.81-.114 4.051-1.32 1.62-.625 1.62-.497 4.861-1.845 1.62-.298 1.621-.227 2.43-.696 3.241-1.504 4.86-2.413 3.241-2.115 4.051-3.364 5.671-6.259 1.62-1.448.81-.468 4.051-3.449.81-.965 1.62-2.484 4.051-5.79 1.62-1.718 3.241-3.194 1.62-1.22 1.62-1.335 1.621-1.674 2.43-3.222 8.912-10.447 1.62-2.214 1.62-2.753 1.62-2.74 3.241-4.64 1.62-1.931 1.62-1.448 1.621-1.363 2.43-1.618.81-.979 3.241-3.023 1.62-1.93 1.62-.994 2.431-2.186 1.62-1.164 2.431-2.327 4.86-3.393 2.431-1.49 1.62-.866 1.62-.965.811-.411 3.24-2.286 7.292-6.145 1.62-1.349 3.24-2.682 2.431-2.3 6.481-5.365 5.671-5.265 1.62-1.52 1.62-1.56 1.621-.852v-.724l3.24-2.611 6.482-4.244 1.62-.838 1.62-.695 2.43-1.05 7.292-2.953 4.86-1.107 3.241-.312 10.532-.27 5.671-.213 3.24-.142 5.672-.298 7.291-.056 6.481-.384 8.912-.255 5.67-.298 1.621-.142 1.62-.227 2.43-1.32 3.241-2.058 4.051-1.405 3.24-.88 1.62-.682 4.862-2.2 3.24-.993 2.43-.454 4.051-.994 2.43-.993 3.241-1.49 3.24-1.377 1.621-.653.81-.455 2.43-1.036 4.051-2.072 2.43-1.22 1.621-.767 7.291-2.399 8.102-2.824 1.62-.34 2.43-.753 4.051-1.192 2.43-.37 3.241-.425 4.861-1.207 2.43-.539 1.62-.582 5.672-2.2 1.62-.51 2.43-1.25 2.43-1.192 1.621-.837 2.43-1.42 3.241-2.512.81-.596 3.24-3.066 1.621-1.618 1.62-1.831 1.62-2.228 1.62-3.52 1.621-3.903 1.62-4.997.81-2.796 3.241-9.183 1.62-5.478.81-3.237.81-3.96 2.431-14.874 1.62-10.518 4.861-32.46 1.62-9.055 1.62-6.813 1.621-6.103.81-2.456 1.62-3.775 1.62-3.478 1.621-2.498 2.43-3.009 4.051-3.647 4.051-2.285 2.43-1.193 1.62-.738 1.621-.51 2.43-.625 4.051-1.391 2.43-.994 3.241-1.15 6.481-1.39 10.532-3.577 3.24-.511 4.051-.852 10.532-7.196.81-.979h0" style="fill:none;stroke:#0072b2;stroke-linecap:round;stroke-width:1.5" id="line2d_4"/><path d="M117 576.72V77.76" style="fill:none;stroke:#d3d3d3;stroke-linecap:square;stroke-linejoin:miter;stroke-width:1.25" id="patch_3"/><path d="M117 576.72h725.4" style="fill:none;stroke:#d3d3d3;stroke-linecap:square;stroke-linejoin:miter;stroke-width:1.25" id="patch_4"/><g id="matplotlib.axis_1"><g id="xtick_1"><g style="fill:#696969" transform="matrix(.16 0 0 -.16 121.437 598.378)" id="text_1"><defs><path d="M9.813 72.906h9.859V5.078q0-13.187-5-19.14-5-5.954-16.094-5.954h-3.75v8.297h3.078q6.531 0 9.219 3.672Q9.813-4.39 9.813 5.078z" id="DejaVuSans-74"/><path d="M34.281 27.484q-10.89 0-15.093-2.484-4.204-2.484-4.204-8.5 0-4.781 3.157-7.594 3.156-2.797 8.562-2.797 7.485 0 12 5.297 4.516 5.297 4.516 14.078v2zm17.922 3.72V0H43.22v8.297Q40.14 3.328 35.547.953q-4.594-2.375-11.234-2.375-8.391 0-13.36 4.719Q6 8.016 6 15.922q0 9.219 6.172 13.906 6.187 4.688 18.437 4.688h12.61v.89q0 6.203-4.078 9.594-4.078 3.39-11.453 3.39-4.688 0-9.141-1.124-4.438-1.125-8.531-3.375v8.312q4.921 1.906 9.562 2.844 4.64.953 9.031.953 11.875 0 17.735-6.156 5.86-6.14 5.86-18.64z" id="DejaVuSans-97"/><path d="M54.89 33.016V0h-8.984v32.719q0 7.765-3.031 11.61-3.031 3.858-9.078 3.858-7.281 0-11.484-4.64-4.204-4.625-4.204-12.64V0H9.08v54.688h9.03v-8.5q3.235 4.937 7.594 7.374Q30.078 56 35.797 56q9.422 0 14.25-5.828 4.844-5.828 4.844-17.156z" id="DejaVuSans-110"/></defs><use xlink:href="#DejaVuSans-74"/><use x="29.492" xlink:href="#DejaVuSans-97"/><use x="90.771" xlink:href="#DejaVuSans-110"/></g></g><g id="xtick_2"><g style="fill:#696969" transform="matrix(.16 0 0 -.16 193.653 598.378)" id="text_2"><defs><path d="M34.188 63.188 20.797 26.906h26.812zm-5.579 9.718h11.188L67.578 0h-10.25l-6.64 18.703h-32.86L11.188 0H.78z" id="DejaVuSans-65"/><path d="M18.11 8.203v-29H9.077v75.484h9.031v-8.296q2.844 4.875 7.157 7.234Q29.594 56 35.594 56q9.968 0 16.187-7.906 6.235-7.907 6.235-20.797T51.78 6.484q-6.218-7.906-16.187-7.906-6 0-10.328 2.375-4.313 2.375-7.157 7.25zm30.578 19.094q0 9.906-4.079 15.547-4.078 5.64-11.203 5.64-7.14 0-11.218-5.64-4.079-5.64-4.079-15.547 0-9.906 4.078-15.547 4.079-5.64 11.22-5.64 7.124 0 11.202 5.64t4.078 15.547z" id="DejaVuSans-112"/><path d="M41.11 46.297q-1.516.875-3.297 1.281Q36.03 48 33.89 48q-7.625 0-11.703-4.953-4.079-4.953-4.079-14.234V0H9.08v54.688h9.03v-8.5q2.844 4.984 7.375 7.39Q30.031 56 36.531 56q.922 0 2.047-.125 1.125-.11 2.484-.36z" id="DejaVuSans-114"/></defs><use xlink:href="#DejaVuSans-65"/><use x="68.408" xlink:href="#DejaVuSans-112"/><use x="131.885" xlink:href="#DejaVuSans-114"/></g></g><g id="xtick_3"><g style="fill:#696969" transform="matrix(.16 0 0 -.16 271.563 598.378)" id="text_3"><defs><path d="M8.5 21.578v33.11h8.984V21.922q0-7.766 3.016-11.656 3.031-3.875 9.094-3.875 7.265 0 11.484 4.64 4.234 4.64 4.234 12.656v31h8.985V0h-8.984v8.406Q42.047 3.422 37.718 1q-4.313-2.422-10.032-2.422-9.421 0-14.312 5.86Q8.5 10.296 8.5 21.578zM31.11 56z" id="DejaVuSans-117"/><path d="M9.422 75.984h8.984V0H9.422z" id="DejaVuSans-108"/></defs><use xlink:href="#DejaVuSans-74"/><use x="29.492" xlink:href="#DejaVuSans-117"/><use x="92.871" xlink:href="#DejaVuSans-108"/></g></g><g id="xtick_4"><g style="fill:#696969" transform="matrix(.16 0 0 -.16 341.916 598.378)" id="text_4"><defs><path d="M39.406 66.219q-10.75 0-17.078-8.016-6.312-8-6.312-21.828 0-13.766 6.312-21.781 6.328-8 17.078-8 10.735 0 17.016 8 6.281 8.015 6.281 21.781 0 13.828-6.281 21.828-6.281 8.016-17.016 8.016zm0 8q15.328 0 24.5-10.281 9.188-10.282 9.188-27.563 0-17.234-9.188-27.516-9.172-10.28-24.5-10.28-15.375 0-24.593 10.25-9.204 10.265-9.204 27.546t9.204 27.563q9.218 10.28 24.593 10.28z" id="DejaVuSans-79"/><path d="M48.781 52.594v-8.407q-3.812 2.11-7.64 3.157-3.828 1.047-7.735 1.047-8.75 0-13.593-5.547-4.829-5.532-4.829-15.547 0-10.016 4.829-15.563 4.843-5.53 13.593-5.53 3.907 0 7.735 1.046 3.828 1.047 7.64 3.156V2.094Q45.016.344 40.984-.531q-4.015-.89-8.562-.89-12.36 0-19.64 7.765-7.266 7.765-7.266 20.953 0 13.375 7.343 21.031Q20.22 56 33.016 56q4.14 0 8.093-.86 3.953-.843 7.672-2.546z" id="DejaVuSans-99"/><path d="M18.313 70.219V54.688h18.5v-6.985h-18.5V18.016q0-6.688 1.828-8.594 1.828-1.906 7.453-1.906h9.218V0h-9.218q-10.407 0-14.36 3.875-3.953 3.89-3.953 14.14v29.688H2.687v6.984h6.594V70.22z" id="DejaVuSans-116"/></defs><use xlink:href="#DejaVuSans-79"/><use x="78.711" xlink:href="#DejaVuSans-99"/><use x="133.691" xlink:href="#DejaVuSans-116"/></g></g><g id="xtick_5"><g style="fill:#696969" transform="matrix(.16 0 0 -.16 417.949 598.378)" id="text_5"><use xlink:href="#DejaVuSans-74"/><use x="29.492" xlink:href="#DejaVuSans-97"/><use x="90.771" xlink:href="#DejaVuSans-110"/></g></g><g id="xtick_6"><g style="fill:#696969" transform="matrix(.16 0 0 -.16 489.354 598.378)" id="text_6"><use xlink:href="#DejaVuSans-65"/><use x="68.408" xlink:href="#DejaVuSans-112"/><use x="131.885" xlink:href="#DejaVuSans-114"/></g></g><g id="xtick_7"><g style="fill:#696969" transform="matrix(.16 0 0 -.16 567.264 598.378)" id="text_7"><use xlink:href="#DejaVuSans-74"/><use x="29.492" xlink:href="#DejaVuSans-117"/><use x="92.871" xlink:href="#DejaVuSans-108"/></g></g><g id="xtick_8"><g style="fill:#696969" transform="matrix(.16 0 0 -.16 637.617 598.378)" id="text_8"><use xlink:href="#DejaVuSans-79"/><use x="78.711" xlink:href="#DejaVuSans-99"/><use x="133.691" xlink:href="#DejaVuSans-116"/></g></g><g id="xtick_9"><g style="fill:#696969" transform="matrix(.16 0 0 -.16 713.65 598.378)" id="text_9"><use xlink:href="#DejaVuSans-74"/><use x="29.492" xlink:href="#DejaVuSans-97"/><use x="90.771" xlink:href="#DejaVuSans-110"/></g></g><g id="xtick_10"><g style="fill:#696969" transform="matrix(.16 0 0 -.16 785.055 598.378)" id="text_10"><use xlink:href="#DejaVuSans-65"/><use x="68.408" xlink:href="#DejaVuSans-112"/><use x="131.885" xlink:href="#DejaVuSans-114"/></g></g></g><g id="matplotlib.axis_2"><g id="ytick_1"><g style="fill:#696969" transform="matrix(.16 0 0 -.16 97.32 560.119)" id="text_11"><defs><path d="M31.781 66.406q-7.61 0-11.453-7.5Q16.5 51.422 16.5 36.375q0-14.984 3.828-22.484 3.844-7.5 11.453-7.5 7.672 0 11.5 7.5 3.844 7.5 3.844 22.484 0 15.047-3.844 22.531-3.828 7.5-11.5 7.5zm0 7.813q12.266 0 18.735-9.703 6.468-9.688 6.468-28.141 0-18.406-6.468-28.11-6.47-9.687-18.735-9.687-12.25 0-18.718 9.688-6.47 9.703-6.47 28.109 0 18.453 6.47 28.14Q19.53 74.22 31.78 74.22z" id="DejaVuSans-48"/></defs><use xlink:href="#DejaVuSans-48"/></g></g><g id="ytick_2"><g style="fill:#696969" transform="matrix(.16 0 0 -.16 66.78 469.195)" id="text_12"><defs><path d="M10.797 72.906h38.719v-8.312H19.828v-17.86q2.14.735 4.281 1.094 2.157.36 4.313.36 12.203 0 19.328-6.688 7.14-6.688 7.14-18.11 0-11.765-7.328-18.296-7.328-6.516-20.656-6.516-4.593 0-9.36.781-4.75.782-9.827 2.344v9.922q4.39-2.39 9.078-3.563 4.687-1.171 9.906-1.171 8.453 0 13.375 4.437 4.938 4.438 4.938 12.063 0 7.609-4.938 12.047-4.922 4.453-13.375 4.453-3.953 0-7.89-.875-3.922-.875-8.016-2.735z" id="DejaVuSans-53"/></defs><use xlink:href="#DejaVuSans-53"/><use x="63.623" xlink:href="#DejaVuSans-48"/><use x="127.246" xlink:href="#DejaVuSans-48"/><use x="190.869" xlink:href="#DejaVuSans-48"/></g></g><g id="ytick_3"><g style="fill:#696969" transform="matrix(.16 0 0 -.16 56.6 378.271)" id="text_13"><defs><path d="M12.406 8.297h16.11v55.625l-17.532-3.516v8.985l17.438 3.515h9.86V8.296H54.39V0H12.406z" id="DejaVuSans-49"/></defs><use xlink:href="#DejaVuSans-49"/><use x="63.623" xlink:href="#DejaVuSans-48"/><use x="127.246" xlink:href="#DejaVuSans-48"/><use x="190.869" xlink:href="#DejaVuSans-48"/><use x="254.492" xlink:href="#DejaVuSans-48"/></g></g><g id="ytick_4"><g style="fill:#696969" transform="matrix(.16 0 0 -.16 56.6 287.348)" id="text_14"><use xlink:href="#DejaVuSans-49"/><use x="63.623" xlink:href="#DejaVuSans-53"/><use x="127.246" xlink:href="#DejaVuSans-48"/><use x="190.869" xlink:href="#DejaVuSans-48"/><use x="254.492" xlink:href="#DejaVuSans-48"/></g></g><g id="ytick_5"><g style="fill:#696969" transform="matrix(.16 0 0 -.16 56.6 196.424)" id="text_15"><defs><path d="M19.188 8.297h34.421V0H7.33v8.297q5.609 5.812 15.296 15.594 9.703 9.797 12.188 12.64 4.734 5.313 6.609 9 1.89 3.688 1.89 7.25 0 5.813-4.078 9.469-4.078 3.672-10.625 3.672-4.64 0-9.797-1.61-5.14-1.609-11-4.89v9.969Q13.767 71.78 18.938 73q5.188 1.219 9.485 1.219 11.328 0 18.062-5.672 6.735-5.656 6.735-15.125 0-4.5-1.688-8.531-1.672-4.016-6.125-9.485-1.218-1.422-7.765-8.187-6.532-6.766-18.453-18.922z" id="DejaVuSans-50"/></defs><use xlink:href="#DejaVuSans-50"/><use x="63.623" xlink:href="#DejaVuSans-48"/><use x="127.246" xlink:href="#DejaVuSans-48"/><use x="190.869" xlink:href="#DejaVuSans-48"/><use x="254.492" xlink:href="#DejaVuSans-48"/></g></g><g id="ytick_6"><g style="fill:#696969" transform="matrix(.16 0 0 -.16 56.6 105.5)" id="text_16"><use xlink:href="#DejaVuSans-50"/><use x="63.623" xlink:href="#DejaVuSans-53"/><use x="127.246" xlink:href="#DejaVuSans-48"/><use x="190.869" xlink:href="#DejaVuSans-48"/><use x="254.492" xlink:href="#DejaVuSans-48"/></g></g><g style="fill:#696969" transform="matrix(0 -.2 -.2 0 48.44 379.813)" id="text_17"><defs><path d="M51.125 44H36.922l-4.11-16.313h14.313zm-7.328 27.781-5.078-20.265h14.265L58.11 71.78h7.813L60.89 51.516h15.234V44h-17.14l-4-16.313h15.53V20.22H53.079L48 0h-7.813l5.032 20.219H30.906L25.875 0h-7.86l5.079 20.219H7.719v7.468h17.187L29 44H13.281v7.516h17.625l4.985 20.265z" id="DejaVuSans-35"/><path d="M30.61 48.39q-7.22 0-11.422-5.64-4.204-5.64-4.204-15.453 0-9.813 4.172-15.453 4.188-5.64 11.453-5.64 7.188 0 11.375 5.655 4.203 5.672 4.203 15.438 0 9.719-4.203 15.406-4.187 5.688-11.375 5.688zm0 7.61q11.718 0 18.406-7.625 6.703-7.61 6.703-21.078 0-13.422-6.703-21.078-6.688-7.64-18.407-7.64-11.765 0-18.437 7.64-6.656 7.656-6.656 21.078 0 13.469 6.656 21.078Q18.844 56 30.609 56z" id="DejaVuSans-111"/><path d="M37.11 75.984V68.5h-8.594q-4.828 0-6.72-1.953-1.874-1.953-1.874-7.031v-4.828h14.797v-6.985H19.922V0H10.89v47.703H2.297v6.984h8.594V58.5q0 9.125 4.25 13.297 4.25 4.187 13.468 4.187z" id="DejaVuSans-102"/><path d="M44.281 53.078v-8.5q-3.797 1.953-7.906 2.922-4.094.984-8.5.984-6.688 0-10.031-2.047-3.344-2.046-3.344-6.156 0-3.125 2.39-4.906 2.391-1.781 9.626-3.39l3.078-.688q9.562-2.047 13.593-5.781 4.032-3.735 4.032-10.422 0-7.625-6.032-12.078-6.03-4.438-16.578-4.438-4.39 0-9.156.86Q10.688.296 5.422 2v9.281q4.984-2.594 9.812-3.89 4.829-1.282 9.579-1.282 6.343 0 9.75 2.172 3.421 2.172 3.421 6.125 0 3.656-2.468 5.61-2.453 1.953-10.813 3.765l-3.125.735q-8.344 1.75-12.062 5.39-3.704 3.64-3.704 9.985 0 7.718 5.47 11.906Q16.75 56 26.811 56q4.97 0 9.36-.734 4.406-.72 8.11-2.188z" id="DejaVuSans-115"/><path d="M56.203 29.594v-4.39H14.891q.593-9.282 5.593-14.142 5-4.859 13.938-4.859 5.172 0 10.031 1.266 4.86 1.265 9.656 3.812v-8.5Q49.266.734 44.187-.344 39.11-1.422 33.892-1.422q-13.094 0-20.735 7.61-7.64 7.625-7.64 20.625 0 13.421 7.25 21.296Q20.016 56 32.328 56q11.031 0 17.453-7.11 6.422-7.093 6.422-19.296zm-8.984 2.64q-.094 7.36-4.125 11.75-4.032 4.407-10.672 4.407-7.516 0-12.031-4.25-4.516-4.25-5.203-11.97z" id="DejaVuSans-101"/></defs><use xlink:href="#DejaVuSans-35"/><use x="83.789" xlink:href="#DejaVuSans-32"/><use x="115.576" xlink:href="#DejaVuSans-111"/><use x="176.758" xlink:href="#DejaVuSans-102"/><use x="211.963" xlink:href="#DejaVuSans-32"/><use x="243.75" xlink:href="#DejaVuSans-99"/><use x="298.73" xlink:href="#DejaVuSans-97"/><use x="360.01" xlink:href="#DejaVuSans-115"/><use x="412.109" xlink:href="#DejaVuSans-101"/><use x="473.633" xlink:href="#DejaVuSans-115"/></g></g><g style="fill:#696969" transform="matrix(.24 0 0 -.24 209.82 71.76)" id="text_18"><defs><path d="M-.297 72.906h61.672v-8.312H35.5V0h-9.906v64.594H-.296z" id="DejaVuSans-84"/><path d="M25.39 72.906h8.297L8.297-9.28H0z" id="DejaVuSans-47"/><path d="M9.813 72.906h9.859V42.094L52.39 72.906h12.703L28.906 38.922 67.672 0H54.688L19.672 35.11V0h-9.86z" id="DejaVuSans-75"/><path d="M9.422 54.688h8.984V0H9.422zm0 21.296h8.984v-11.39H9.422z" id="DejaVuSans-105"/><path d="M45.406 46.39v29.594h8.985V0h-8.985v8.203Q42.578 3.328 38.25.953q-4.313-2.375-10.375-2.375-9.906 0-16.14 7.906-6.22 7.922-6.22 20.813 0 12.89 6.22 20.797Q17.968 56 27.874 56q6.063 0 10.375-2.375 4.328-2.36 7.156-7.234zm-30.61-19.093q0-9.906 4.079-15.547 4.078-5.64 11.203-5.64 7.125 0 11.219 5.64 4.11 5.64 4.11 15.547 0 9.906-4.11 15.547-4.094 5.64-11.219 5.64-7.125 0-11.203-5.64-4.078-5.64-4.078-15.547z" id="DejaVuSans-100"/><path d="M4.89 31.39h26.313v-8H4.891z" id="DejaVuSans-45"/><path d="M8.203 72.906h46.875v-4.203L28.61 0H18.312L43.22 64.594H8.203z" id="DejaVuSans-55"/><path d="M32.172-5.078q-3.797-9.766-7.422-12.735-3.61-2.984-9.656-2.984H7.906v7.516h5.282q3.703 0 5.75 1.765Q21-9.766 23.483-3.219l1.61 4.094-22.11 53.813H12.5l17.094-42.766 17.093 42.766h9.516z" id="DejaVuSans-121"/><path d="M2.984 54.688H12.5L29.594 8.797l17.093 45.89h9.516L35.687 0H23.485z" id="DejaVuSans-118"/><path d="M45.406 27.984q0 9.766-4.031 15.125-4.016 5.375-11.297 5.375-7.219 0-11.25-5.375-4.031-5.359-4.031-15.125 0-9.718 4.031-15.093t11.25-5.375q7.281 0 11.297 5.375 4.031 5.375 4.031 15.093zm8.985-21.203q0-13.953-6.203-20.765Q42-20.797 29.203-20.797q-4.734 0-8.937.703-4.203.703-8.157 2.172v8.735q3.954-2.141 7.813-3.157 3.86-1.031 7.86-1.031 8.843 0 13.234 4.61 4.39 4.609 4.39 13.937v4.453q-2.781-4.844-7.125-7.234Q33.938 0 27.875 0 17.828 0 11.672 7.656q-6.156 7.672-6.156 20.328 0 12.688 6.156 20.344Q17.828 56 27.875 56q6.063 0 10.406-2.39 4.344-2.391 7.125-7.22v8.297h8.985z" id="DejaVuSans-103"/></defs><use xlink:href="#DejaVuSans-84"/><use x="44.084" xlink:href="#DejaVuSans-111"/><use x="105.266" xlink:href="#DejaVuSans-116"/><use x="144.475" xlink:href="#DejaVuSans-97"/><use x="205.754" xlink:href="#DejaVuSans-108"/><use x="233.537" xlink:href="#DejaVuSans-32"/><use x="265.324" xlink:href="#DejaVuSans-99"/><use x="320.305" xlink:href="#DejaVuSans-97"/><use x="381.584" xlink:href="#DejaVuSans-115"/><use x="433.684" xlink:href="#DejaVuSans-101"/><use x="495.207" xlink:href="#DejaVuSans-115"/><use x="547.307" xlink:href="#DejaVuSans-32"/><use x="579.094" xlink:href="#DejaVuSans-47"/><use x="612.785" xlink:href="#DejaVuSans-32"/><use x="644.572" xlink:href="#DejaVuSans-49"/><use x="708.195" xlink:href="#DejaVuSans-48"/><use x="771.818" xlink:href="#DejaVuSans-48"/><use x="835.441" xlink:href="#DejaVuSans-75"/><use x="901.018" xlink:href="#DejaVuSans-32"/><use x="932.805" xlink:href="#DejaVuSans-114"/><use x="971.668" xlink:href="#DejaVuSans-101"/><use x="1033.191" xlink:href="#DejaVuSans-115"/><use x="1085.291" xlink:href="#DejaVuSans-105"/><use x="1113.074" xlink:href="#DejaVuSans-100"/><use x="1176.551" xlink:href="#DejaVuSans-101"/><use x="1238.074" xlink:href="#DejaVuSans-110"/><use x="1301.453" xlink:href="#DejaVuSans-116"/><use x="1340.662" xlink:href="#DejaVuSans-115"/><use x="1392.762" xlink:href="#DejaVuSans-32"/><use x="1424.549" xlink:href="#DejaVuSans-45"/><use x="1460.633" xlink:href="#DejaVuSans-45"/><use x="1496.717" xlink:href="#DejaVuSans-32"/><use x="1528.504" xlink:href="#DejaVuSans-55"/><use x="1592.127" xlink:href="#DejaVuSans-32"/><use x="1623.914" xlink:href="#DejaVuSans-100"/><use x="1687.391" xlink:href="#DejaVuSans-97"/><use x="1748.67" xlink:href="#DejaVuSans-121"/><use x="1807.85" xlink:href="#DejaVuSans-32"/><use x="1839.637" xlink:href="#DejaVuSans-97"/><use x="1900.916" xlink:href="#DejaVuSans-118"/><use x="1960.096" xlink:href="#DejaVuSans-101"/><use x="2021.619" xlink:href="#DejaVuSans-114"/><use x="2062.732" xlink:href="#DejaVuSans-97"/><use x="2124.012" xlink:href="#DejaVuSans-103"/><use x="2187.488" xlink:href="#DejaVuSans-101"/></g><g id="legend_1"><path d="M128.2 184.5h136.45q3.2 0 3.2-3.2V88.96q0-3.2-3.2-3.2H128.2q-3.2 0-3.2 3.2v92.34q0 3.2 3.2 3.2z" style="fill:none;opacity:.8;stroke:#ccc;stroke-linejoin:miter" id="patch_5"/><path d="M131.4 98.718h32" style="fill:none;stroke:#000;stroke-linecap:round;stroke-width:1.5" id="line2d_5"/><g style="fill:#696969" transform="matrix(.16 0 0 -.16 176.2 104.317)" id="text_19"><defs><path d="M8.688 72.906h9.921V28.61q0-11.718 4.235-16.875 4.25-5.14 13.781-5.14 9.469 0 13.719 5.14 4.25 5.157 4.25 16.875v44.297H64.5V27.391q0-14.25-7.063-21.532-7.046-7.28-20.812-7.28-13.828 0-20.89 7.28-7.047 7.282-7.047 21.532z" id="DejaVuSans-85"/><path d="M53.516 70.516V60.89q-5.61 2.687-10.594 4-4.984 1.328-9.625 1.328-8.047 0-12.422-3.125t-4.375-8.89q0-4.845 2.906-7.313 2.907-2.453 11.016-3.97l5.953-1.218q11.031-2.11 16.281-7.406 5.25-5.297 5.25-14.172 0-10.61-7.11-16.078-7.093-5.469-20.812-5.469-5.172 0-11.015 1.172Q13.14.922 6.89 3.219v10.156q6-3.36 11.765-5.078 5.766-1.703 11.328-1.703 8.438 0 13.032 3.312 4.593 3.328 4.593 9.485 0 5.359-3.297 8.39-3.296 3.032-10.812 4.547L27.484 33.5q-11.03 2.188-15.968 6.875-4.922 4.688-4.922 13.047 0 9.672 6.812 15.234 6.813 5.563 18.766 5.563 5.14 0 10.453-.938 5.328-.922 10.89-2.765z" id="DejaVuSans-83"/></defs><use xlink:href="#DejaVuSans-85"/><use x="73.193" xlink:href="#DejaVuSans-83"/></g><path d="M131.4 122.203h32" style="fill:none;stroke:#009e73;stroke-linecap:round;stroke-width:1.5" id="line2d_7"/><g style="fill:#696969" transform="matrix(.16 0 0 -.16 176.2 127.802)" id="text_20"><defs><path d="M9.813 72.906h13.28l32.329-60.984v60.984h9.562V0h-13.28L19.39 60.984V0H9.813z" id="DejaVuSans-78"/></defs><use xlink:href="#DejaVuSans-78"/><use x="74.805" xlink:href="#DejaVuSans-74"/></g><path d="M131.4 145.688h32" style="fill:none;stroke:#d55e00;stroke-linecap:round;stroke-width:1.5" id="line2d_9"/><g style="fill:#696969" transform="matrix(.16 0 0 -.16 176.2 151.287)" id="text_21"><defs><path d="M19.672 34.813V8.108H35.5q7.953 0 11.781 3.297 3.844 3.297 3.844 10.078 0 6.844-3.844 10.078-3.828 3.25-11.781 3.25zm0 29.984V42.828h14.61q7.218 0 10.75 2.703 3.546 2.719 3.546 8.282 0 5.515-3.547 8.25-3.531 2.734-10.75 2.734zm-9.86 8.11h25.204q11.28 0 17.375-4.688Q58.5 63.53 58.5 54.89q0-6.703-3.125-10.657-3.125-3.953-9.188-4.922 7.282-1.562 11.313-6.53 4.031-4.954 4.031-12.376 0-9.765-6.64-15.093Q48.25 0 35.984 0H9.812z" id="DejaVuSans-66"/></defs><use xlink:href="#DejaVuSans-66"/><use x="68.604" xlink:href="#DejaVuSans-101"/><use x="130.127" xlink:href="#DejaVuSans-114"/><use x="169.49" xlink:href="#DejaVuSans-103"/><use x="232.967" xlink:href="#DejaVuSans-101"/><use x="294.49" xlink:href="#DejaVuSans-110"/></g><path d="M131.4 169.173h32" style="fill:none;stroke:#0072b2;stroke-linecap:round;stroke-width:1.5" id="line2d_11"/><g style="fill:#696969" transform="matrix(.16 0 0 -.16 176.2 174.773)" id="text_22"><defs><path d="M44.39 34.188q3.172-1.079 6.172-4.594 3-3.516 6.032-9.672L66.609 0H56l-9.313 18.703q-3.624 7.328-7.015 9.719-3.39 2.39-9.25 2.39h-10.75V0h-9.86v72.906h22.266q12.5 0 18.656-5.234 6.157-5.219 6.157-15.766 0-6.89-3.203-11.437-3.204-4.532-9.297-6.282zM19.673 64.797V38.922h12.406q7.125 0 10.766 3.297 3.64 3.297 3.64 9.687 0 6.39-3.64 9.64-3.64 3.25-10.766 3.25z" id="DejaVuSans-82"/><path d="M54.89 33.016V0h-8.984v32.719q0 7.765-3.031 11.61-3.031 3.858-9.078 3.858-7.281 0-11.484-4.64-4.204-4.625-4.204-12.64V0H9.08v75.984h9.03V46.188q3.235 4.937 7.594 7.374Q30.078 56 35.797 56q9.422 0 14.25-5.828 4.844-5.828 4.844-17.156z" id="DejaVuSans-104"/></defs><use xlink:href="#DejaVuSans-82"/><use x="64.982" xlink:href="#DejaVuSans-117"/><use x="128.361" xlink:href="#DejaVuSans-116"/><use x="167.57" xlink:href="#DejaVuSans-104"/><use x="230.949" xlink:href="#DejaVuSans-101"/><use x="292.473" xlink:href="#DejaVuSans-114"/><use x="333.586" xlink:href="#DejaVuSans-102"/><use x="368.791" xlink:href="#DejaVuSans-111"/><use x="429.973" xlink:href="#DejaVuSans-114"/><use x="469.336" xlink:href="#DejaVuSans-100"/></g></g></g></g><defs><clipPath id="p262efa6975"><path d="M117 77.76h725.4v498.96H117z"/></clipPath></defs></svg>