<svg height="864" viewBox="0 0 936 648" width="1248" xmlns="http://www.w3.org/2000/svg" xmlns:xlink="http://www.w3.org/1999/xlink"><defs><style>*{stroke-linecap:butt;stroke-linejoin:round}</style></defs><g id="figure_1"><path d="M0 648h936V0H0z" style="fill:#fff" id="patch_1"/><g id="axes_1"><path d="M117 576.72h725.4V77.76H117z" style="fill:none" id="patch_2"/><g id="PolyCollection_1"><defs><path d="M151.458-93.96H234.632l1.486-.556 1.485.012 1.485.015 1.485-.264 1.486.022 1.485-.816 1.485-.797 1.485-1.615 1.486-.175 1.485-.72 1.485-.42 1.486-1.244 1.485-2.057 1.485-1.73 1.485-.288 1.486-1.396 1.485-4.173 1.485-2.694 1.485-.387 1.486-.937 1.485-.372 1.485-2.358 1.485-1.512 1.486-.117 1.485.403 1.485-1.35 1.485-.845 1.486-.911 1.485-1.266 1.485-1.339 1.485-.846 1.486-.07 1.485-1.544 1.485-1.026 1.485-1.633 1.486-1.666 1.485-2.24 1.485-.82 1.485-.243 1.486-1.638 1.485-.206 1.485-.759 1.486-1.01 1.485-.972 1.485-.957 1.485-.115 1.486-.124 1.485-.138 1.485-.148 1.485-.175 1.486-.489 1.485-.226 1.485-.235 1.485-1.37 1.486-1.365 1.485-.504 1.485-.495 1.485-.483 1.486-.183 1.485-.152 1.485-.122 1.485-.374 1.486-.063 1.485-.047 1.485-.044 1.485-.045 1.486-.046 1.485-.055 1.485-.34 1.485-.057 1.486-.06 1.485-.629 1.485-.068 1.486-.075 1.485-.924 1.485-.35 1.485-.053 1.486-.038 1.485-.02 1.485-.002 1.485.017 1.486.026 1.485-.258 1.485-.258 1.485.023 1.486-.268 1.485.01 1.485.003 1.485-.006 1.486-.296 1.485-.017 1.485-.022 1.485-.025 1.486-.028 1.485-.03 1.485-.594 1.485-.025 1.486-.302 1.485-.292 1.485-.283 1.485.009 1.486.017 1.485-1.107 1.485.033 1.486-.244 1.485.043 1.485.044 1.485.042 1.486.04 1.485-1.653 1.485-.227 1.485.058 1.486-.227 1.485-.512 1.485.052 1.485.046 1.486-.528 1.485-.25 1.485.028 1.485.018 1.486.01h1.485l1.485-.013 1.485-.028 1.486-.884 1.485-.321 1.485-.325 1.485-.044 1.486-.044 1.485-.043 1.485-.33 1.485-.046 1.486-.048 1.485-.328 1.485-.037 1.486-.028 1.485-.016 1.485-.302 1.485-.02 1.486-.303 1.485-.018 1.485-.02 1.485-.02 1.486-.021 1.485-.024 1.485-.028 1.485-.315 1.486-.03 1.485-.312 1.485-.023 1.485-.017 1.486-.29 1.485-.002h1.485l1.485-.284 1.486-.28 1.485.008 1.485.012 1.485.01 1.486-.55 1.485-.263 1.485-.258 1.485.027 1.486.029 1.485.028 1.485-.258 1.486.025 1.485-1.106 1.485.03 1.485.03 1.486.027 1.485.023 1.485.018 1.485-.831 1.486.017 1.485.014 1.485.01 1.485.003 1.486-.003 1.485-.292 1.485-.017 1.485-.584 1.486-.3 1.485-.017 1.485-.018 1.485-.017 1.486-.86 1.485-.007 1.485-.285 1.485.001 1.486.002 1.485.005 1.485.006 1.485.005 1.486.006 1.485-.005 1.485-.013 1.486-.022 1.485-.028 1.485-.036 1.485-.6 1.486-.321 1.485-1.446 1.485-2.545 1.485-.516 1.486.087 1.485.111 1.485-.436 1.485-1.542 1.486-.105 1.485-1.218 1.485-1.194 1.485-.609 1.486-.596 1.485-.317 1.485.231 1.485-.929 1.486.167 1.485.125 1.485.084 1.485.04 1.486-1.699 1.485-1.16 1.485-1.466 1.485-1.477 1.486-1.477 1.485-.055 1.485-.046 1.486-3.414 1.485-.255 1.485-1.915 1.485-.757 1.486-1.299 1.485.136 1.485.142 1.485-5.202 1.486-.923 1.485.22 1.485-4.573 1.485-1.714 1.486.271 1.485.248 1.485-4.292 1.485-3.143 1.486-3.125 1.485-1.972 1.485-3.638 1.485-1.058 1.486.363 1.485-3.608 1.485-1.913 1.485-1.364 1.486.286 1.485.214 1.485-5.486 1.485.145 1.486-3.876 1.485-1.937 1.485-3.113 1.486-4.545 1.485-6.783 1.485-3.041 1.485.126 1.486-2.975 1.485-3.225 1.485-1.202 1.485-4.857 1.486-2.284 1.485.267 1.485.255 1.485-3.74 1.486-2.361 1.485-1.858 1.485.037 1.485-4.867 1.486-.13 1.485-.204 1.485-7.901 1.485-2.265 1.486-7.922 1.485-1.641 1.485-.166 1.485-.15 1.486-.124 1.485-8.56 1.485-1.395 1.485-5.27 1.486-2.923 1.485.201 1.485.17 1.486.128 1.485-9.226 1.485-4.96 1.485-3.797 1.486-4.066 1.485-3.202 1.485-2.613 1.485.225 1.486-6.011 1.485-2.894 1.485-4.024 1.485-2.583 1.486-2.586 1.485.233 1.485.203 1.485.093 1.486-5.933 1.485-2.925 1.485-1.333 1.485-1.141 1.486-.363 1.485-.413 1.485-9.241 1.485-1.601 1.486-2.199 1.485-2.219 1.485-5.007 1.485-1.797 1.486-.261 1.485-.216 1.485-.2 1.486-7.51 1.485-2.35 1.485-2.021 1.485-.015 1.486.006 1.485-4.525 1.485-1.97 1.485-1.424 1.486-1.737 1.485-1.494 1.485-2.077 1.485-.1 1.486-.102 1.485-4.096 1.485-1.575 1.485-1.032 1.486-1.607 1.485-.181 1.485-2.13 1.485-1.304 1.486-1.879 1.485-1.313 1.485-3.841 1.485-2.696 1.486-.138 1.485-.127 1.485-4.89 1.485-2.532 1.486-1.644 1.485-.77 1.485-3.856 1.486.143 1.485.165 1.485-3.795 1.485-.965 1.486-2.107 1.485-3.245 1.485-1.832 1.485.122 1.486.084 1.485-6.427 1.485-1.9 1.485-2.19 1.486-.789 1.485-1.373 1.485.027 1.485-.01 1.486-6.804 1.485-1.689 1.485-1.957 1.485-2.24 1.486-1.961 1.485.016 1.485-2.522 1.485-3.094 1.486-2.249 1.485-.841 1.485-5.068 1.485-2.503 1.486.053 1.485.051 1.485-4.77 1.485-2.208 2.971-2.199v-2.483l1.485-1.358v-17.687l-1.485 1.478v2.623l-2.97 2.34-1.486 2.33-1.485 4.874-1.485.05-1.486.054-1.485 2.602-1.485 5.144-1.485.86-1.486 2.29-1.485 3.146-1.485 2.583-1.485.017-1.486 2.009-1.485 2.298-1.485 2.015-1.485 1.715-1.486 6.81-1.485-.009-1.485.027-1.485 1.463-1.486.914-1.485 2.347-1.485 2.072-1.485 6.62-1.486.084-1.485.122-1.485 2.139-1.485 3.562-1.486 2.432-1.485 1.305-1.485 4.147-1.485.164-1.486.143-1.485 4.087-1.485.931-1.486 1.76-1.485 2.574-1.485 4.754-1.485-.128-1.486-.138-1.485 2.41-1.485 3.534-1.485.956-1.486 1.525-1.485.966-1.485 1.84-1.485-.181-1.486 1.23-1.485.669-1.485 1.262-1.485 3.846-1.486-.102-1.485-.1-1.485 1.894-1.485 1.342-1.486 1.667-1.485 1.413-1.485 2.001-1.485 4.551-1.486.006-1.485-.014-1.485 1.95-1.485 2.188-1.486 7.24-1.485-.2-1.485-.217-1.486-.26-1.485 1.039-1.485 4.07-1.485 1.184-1.486 1.205-1.485.668-1.485 8.345-1.485-.413-1.486-.363-1.485.561-1.485.936-1.485 2.748-1.486 5.98-1.485.094-1.485.202-1.485.234-1.486 3.086-1.485 3.09-1.485 4.485-1.485 3.347-1.486 6.469-1.485.225-1.485 3.06-1.485 3.606-1.486 4.443-1.485 4.144-1.485 5.252-1.485 9.495-1.486.127-1.485.17-1.485.202-1.486 3.317-1.485 5.509-1.485 1.441-1.485 8.46-1.486-.126-1.485-.15-1.485-.165-1.485 1.195-1.486 7.395-1.485 1.706-1.485 7.416-1.485-.205-1.486-.13-1.485 4.778-1.485.037-1.485 2.113-1.486 2.744-1.485 4.203-1.485.255-1.485.266-1.486 2.822-1.485 5.355-1.485 1.634-1.485 3.582-1.486 3.266-1.485.126-1.485 3.199-1.485 6.832-1.486 4.532-1.485 3.127-1.485 2.034-1.486 4.066-1.485.145-1.485 5.86-1.485.213-1.486.286-1.485 2.04-1.485 2.626-1.485 4.333-1.486.363-1.485 1.779-1.485 4.304-1.485 2.567-1.486 3.682-1.485 3.665-1.485 4.784-1.485.248-1.486.271-1.485 2.257-1.485 5.072-1.485.22-1.486 1.346-1.485 5.576-1.485.142-1.485.136-1.486 1.537-1.485.945-1.485 2.056-1.485.312-1.486 3.395-1.485-.047-1.485-.055-1.486 1.36-1.485 1.36-1.485 1.37-1.485 1.108-1.486 1.706-1.485.04-1.485.083-1.485.126-1.486.166-1.485 1.34-1.485.232-1.485.817-1.486 1.106-1.485 1.093-1.485 1.643-1.485 1.618-1.486.462-1.485 1.862-1.485.698-1.485.111-1.486.088-1.485.618-1.485 2.561-1.485 1.39-1.486.247-1.485.534-1.485-.036-1.485-.028-1.486-.021-1.485-.014-1.485-.005-1.486.006-1.485.005-1.485.006-1.485.005-1.486.002h-1.485l-1.485.283-1.485-.006-1.486.842-1.485-.018-1.485-.018-1.485-.017-1.486.267-1.485.55-1.485-.015-1.485.274-1.486-.002-1.485.003-1.485.01-1.485.013-1.486.017-1.485.87-1.485.02-1.485.022-1.486.027-1.485.03-1.485.03-1.485 1.164-1.486.024-1.485.31-1.485.028-1.486.028-1.485.028-1.485.31-1.485.304-1.486.583-1.485.011-1.485.011-1.485.008-1.486.288-1.485.284h-1.485l-1.485-.003-1.486.278-1.485-.017-1.485-.023-1.485.256-1.486-.031-1.485.253-1.485-.029-1.485-.023-1.486-.02-1.485-.022-1.485-.02-1.485-.018-1.486.265-1.485-.02-1.485.265-1.485-.016-1.486-.028-1.485-.037-1.485.24-1.486-.048-1.485-.047-1.485.237-1.485-.042-1.486-.045-1.485-.044-1.485.243-1.485.246-1.486.818-1.485-.028-1.485-.012-1.485-.001-1.486.01-1.485.018-1.485.027-1.485.318-1.486.607-1.485.046-1.485.052-1.485.623-1.486.34-1.485.057-1.485.34-1.485 1.752-1.486.04-1.485.042-1.485.044-1.485.042-1.486.324-1.485.033-1.485 1.162-1.486.017-1.485.01-1.485.283-1.485.276-1.486.265-1.485-.025-1.485.541-1.485-.03-1.486-.028-1.485-.025-1.485-.022-1.485-.018-1.486.272-1.485-.006-1.485.003-1.485.01-1.486.3-1.485.022-1.485.31-1.485.31-1.486.025-1.485.017-1.485-.001-1.485-.021-1.486-.038-1.485-.054-1.485.218-1.485.778-1.486-.075-1.485-.068-1.485.505-1.486-.06-1.485-.056-1.485.227-1.485-.055-1.486-.046-1.485-.045-1.485-.045-1.485-.046-1.486-.063-1.485.193-1.485-.122-1.485-.152-1.486-.183-1.485.084-1.485.073-1.485.063-1.486.905-1.485.898-1.485-.235-1.485-.226-1.486.08-1.485-.176-1.485-.149-1.485-.137-1.486-.124-1.485-.115-1.485.745-1.485.73-1.486.691-1.485.376-1.485-.206-1.486 1.198-1.485-.243-1.485.316-1.485 1.73-1.486 1.17-1.485 1.204-1.485.676-1.485 1.292-1.486-.07-1.485.856-1.485 1.498-1.485 1.57-1.486 1.358-1.485 1.425-1.485 2.053-1.485.404-1.486 1.016-1.485 2.46-1.485 3.314-1.485 1.33-1.486 1.9-1.485 1.315-1.485 3.546-1.485 4.903-1.486 2.008-1.485.847-1.485 2.241-1.485 2.482-1.486 1.591-1.485.716-1.485.982-1.486.392-1.485 1.789-1.485.904-1.485.886-1.486.022-1.485.304-1.485.014-1.485.013-1.486.578H151.458z" id="md2b38a33aa" style="stroke:#fff;stroke-opacity:.2"/></defs><g clip-path="url(#pab255aea75)"><use style="fill:#089fff;fill-opacity:.2;stroke:#fff;stroke-opacity:.2" xlink:href="#md2b38a33aa" y="648"/></g></g><path clip-path="url(#pab255aea75)" d="M149.973 554.04h84.66l1.485-.567h2.97l1.485-.284h1.486l2.97-1.702 1.485-1.702 1.486-.283 1.485-.851 1.485-.568 1.486-1.418 1.485-2.269 1.485-1.985 1.485-.568 1.486-1.702 1.485-4.538 1.485-3.12 1.485-.851 1.486-1.418 1.485-.851 1.485-2.837 1.485-1.985 1.486-.567h1.485l1.485-1.702 2.97-2.27 2.971-2.836 1.485-.85h1.486l1.485-1.42 1.485-.85 2.97-2.837 1.486-1.985 1.485-.567h1.485l1.486-1.419h1.485l1.485-.567 4.456-2.553h7.426l1.486-.283h2.97l2.97-2.27 4.456-.85h4.456l1.485-.284h8.912l1.485-.284h2.97l1.486-.567h2.97l1.486-.85 1.485-.285h8.912l2.97-.567h1.485l1.486-.284h4.455l1.486-.283h7.426l1.485-.567h1.485l4.456-.851h2.97l1.486-1.135h1.485l1.486-.284h5.94l1.486-1.701 1.485-.284h1.485l1.486-.284 1.485-.567h2.97l1.486-.567 1.485-.284h8.911l1.486-.85 2.97-.568h4.456l1.485-.284h2.97l1.486-.284h4.456l1.485-.283h1.485l1.486-.284h8.911l1.485-.283h1.486l1.485-.284h2.97l1.486-.284h2.97l2.97-.567h4.456l1.486-.567 2.97-.568h4.456l1.485-.283h1.486l1.485-1.135h7.426l1.485-.85h7.427l1.485-.284h1.485l1.485-.568 1.486-.283h4.455l1.486-.851h1.485l1.485-.284h16.338l1.485-.567 1.486-.284 1.485-1.418 1.485-2.553 1.485-.567h2.97l1.486-.568 1.485-1.701 1.486-.284 2.97-2.836 2.97-1.702 1.486-.568h1.485l1.485-1.134h5.941l1.486-1.702 1.485-1.135 4.456-4.254h2.97l1.486-3.404 1.485-.284 1.485-1.985 1.485-.851 1.486-1.418h2.97l1.485-5.39 1.486-1.134h1.485l1.485-4.822 1.485-1.986h2.97l1.486-4.538 2.97-6.808 1.486-2.269 1.485-3.97 1.485-1.42h1.486l1.485-3.97 1.485-2.27 1.485-1.701h2.971l1.485-5.673h1.485l1.486-3.971 1.485-1.986 1.485-3.12 1.486-4.538 1.485-6.808 1.485-3.12h1.485l1.486-3.12 1.485-3.404 1.485-1.418 1.485-5.105 1.486-2.553h2.97l1.485-3.971 1.486-2.553 1.485-1.986h1.485l1.485-4.822h2.97l1.486-7.658 1.485-1.985 1.486-7.659 1.485-1.418h4.456l1.485-8.51 1.485-1.418 1.485-5.389 1.486-3.12h4.456l1.485-9.36 1.485-5.106 4.456-11.63 1.485-2.836h1.485l1.486-6.24 1.485-3.12 1.485-4.255 2.97-5.673h4.456l1.486-5.956 1.485-2.837 1.485-1.135 1.485-.85h2.97l1.486-8.793 1.485-1.135 2.971-3.404 1.485-4.538 1.485-1.418h4.456l1.486-7.375 1.485-2.27 1.485-1.985h2.97l1.486-4.538 1.485-1.986 1.485-1.418 1.486-1.702 1.485-1.418 1.485-1.986h2.97l1.486-3.97 1.485-1.419 1.485-.85 1.486-1.419h1.485l1.485-1.985 1.485-1.135 1.486-1.702 1.485-1.135 1.485-3.687 1.485-2.553h2.971l1.485-4.822 1.485-2.553 1.486-1.701 1.485-.851 1.485-3.971h2.97l1.486-3.971 1.485-1.135 1.486-2.27 1.485-3.403 1.485-1.985h2.97l1.486-6.524 1.485-1.986 1.485-2.269 1.486-.85 1.485-1.42h2.97l1.486-6.807 1.485-1.702 1.485-1.985 1.485-2.27 1.486-1.985h1.485l1.485-2.553 1.485-3.12 1.486-2.269 1.485-.85 1.485-5.106 1.485-2.553h2.971l1.485-4.822 1.485-2.27 2.971-2.268v-2.553l1.485-1.419h0" style="fill:none;stroke:#4c72b0;stroke-linecap:round;stroke-width:1.5" id="line2d_1"/><path d="M117 576.72V77.76" style="fill:none;stroke:#d3d3d3;stroke-linecap:square;stroke-linejoin:miter;stroke-width:1.25" id="patch_3"/><path d="M117 576.72h725.4" style="fill:none;stroke:#d3d3d3;stroke-linecap:square;stroke-linejoin:miter;stroke-width:1.25" id="patch_4"/><g id="matplotlib.axis_1"><g id="xtick_1"><g style="fill:#696969" transform="matrix(.16 0 0 -.16 107.935 598.378)" id="text_1"><defs><path d="M9.813 72.906h9.859V5.078q0-13.187-5-19.14-5-5.954-16.094-5.954h-3.75v8.297h3.078q6.531 0 9.219 3.672Q9.813-4.39 9.813 5.078z" id="DejaVuSans-74"/><path d="M34.281 27.484q-10.89 0-15.093-2.484-4.204-2.484-4.204-8.5 0-4.781 3.157-7.594 3.156-2.797 8.562-2.797 7.485 0 12 5.297 4.516 5.297 4.516 14.078v2zm17.922 3.72V0H43.22v8.297Q40.14 3.328 35.547.953q-4.594-2.375-11.234-2.375-8.391 0-13.36 4.719Q6 8.016 6 15.922q0 9.219 6.172 13.906 6.187 4.688 18.437 4.688h12.61v.89q0 6.203-4.078 9.594-4.078 3.39-11.453 3.39-4.688 0-9.141-1.124-4.438-1.125-8.531-3.375v8.312q4.921 1.906 9.562 2.844 4.64.953 9.031.953 11.875 0 17.735-6.156 5.86-6.14 5.86-18.64z" id="DejaVuSans-97"/><path d="M54.89 33.016V0h-8.984v32.719q0 7.765-3.031 11.61-3.031 3.858-9.078 3.858-7.281 0-11.484-4.64-4.204-4.625-4.204-12.64V0H9.08v54.688h9.03v-8.5q3.235 4.937 7.594 7.374Q30.078 56 35.797 56q9.422 0 14.25-5.828 4.844-5.828 4.844-17.156z" id="DejaVuSans-110"/></defs><use xlink:href="#DejaVuSans-74"/><use x="29.492" xlink:href="#DejaVuSans-97"/><use x="90.771" xlink:href="#DejaVuSans-110"/></g></g><g id="xtick_2"><g style="fill:#696969" transform="matrix(.16 0 0 -.16 194.29 598.378)" id="text_2"><defs><path d="M9.813 72.906h14.703l18.593-49.61 18.703 49.61h14.704V0H66.89v64.016l-18.797-50h-9.907l-18.796 50V0H9.813z" id="DejaVuSans-77"/><path d="M41.11 46.297q-1.516.875-3.297 1.281Q36.03 48 33.89 48q-7.625 0-11.703-4.953-4.079-4.953-4.079-14.234V0H9.08v54.688h9.03v-8.5q2.844 4.984 7.375 7.39Q30.031 56 36.531 56q.922 0 2.047-.125 1.125-.11 2.484-.36z" id="DejaVuSans-114"/></defs><use xlink:href="#DejaVuSans-77"/><use x="86.279" xlink:href="#DejaVuSans-97"/><use x="147.559" xlink:href="#DejaVuSans-114"/></g></g><g id="xtick_3"><g style="fill:#696969" transform="matrix(.16 0 0 -.16 283.444 598.378)" id="text_3"><defs><path d="M32.172-5.078q-3.797-9.766-7.422-12.735-3.61-2.984-9.656-2.984H7.906v7.516h5.282q3.703 0 5.75 1.765Q21-9.766 23.483-3.219l1.61 4.094-22.11 53.813H12.5l17.094-42.766 17.093 42.766h9.516z" id="DejaVuSans-121"/></defs><use xlink:href="#DejaVuSans-77"/><use x="86.279" xlink:href="#DejaVuSans-97"/><use x="147.559" xlink:href="#DejaVuSans-121"/></g></g><g id="xtick_4"><g style="fill:#696969" transform="matrix(.16 0 0 -.16 380.932 598.378)" id="text_4"><defs><path d="M8.5 21.578v33.11h8.984V21.922q0-7.766 3.016-11.656 3.031-3.875 9.094-3.875 7.265 0 11.484 4.64 4.234 4.64 4.234 12.656v31h8.985V0h-8.984v8.406Q42.047 3.422 37.718 1q-4.313-2.422-10.032-2.422-9.421 0-14.312 5.86Q8.5 10.296 8.5 21.578zM31.11 56z" id="DejaVuSans-117"/><path d="M9.422 75.984h8.984V0H9.422z" id="DejaVuSans-108"/></defs><use xlink:href="#DejaVuSans-74"/><use x="29.492" xlink:href="#DejaVuSans-117"/><use x="92.871" xlink:href="#DejaVuSans-108"/></g></g><g id="xtick_5"><g style="fill:#696969" transform="matrix(.16 0 0 -.16 467.59 598.378)" id="text_5"><defs><path d="M53.516 70.516V60.89q-5.61 2.687-10.594 4-4.984 1.328-9.625 1.328-8.047 0-12.422-3.125t-4.375-8.89q0-4.845 2.906-7.313 2.907-2.453 11.016-3.97l5.953-1.218q11.031-2.11 16.281-7.406 5.25-5.297 5.25-14.172 0-10.61-7.11-16.078-7.093-5.469-20.812-5.469-5.172 0-11.015 1.172Q13.14.922 6.89 3.219v10.156q6-3.36 11.765-5.078 5.766-1.703 11.328-1.703 8.438 0 13.032 3.312 4.593 3.328 4.593 9.485 0 5.359-3.297 8.39-3.296 3.032-10.812 4.547L27.484 33.5q-11.03 2.188-15.968 6.875-4.922 4.688-4.922 13.047 0 9.672 6.812 15.234 6.813 5.563 18.766 5.563 5.14 0 10.453-.938 5.328-.922 10.89-2.765z" id="DejaVuSans-83"/><path d="M56.203 29.594v-4.39H14.891q.593-9.282 5.593-14.142 5-4.859 13.938-4.859 5.172 0 10.031 1.266 4.86 1.265 9.656 3.812v-8.5Q49.266.734 44.187-.344 39.11-1.422 33.892-1.422q-13.094 0-20.735 7.61-7.64 7.625-7.64 20.625 0 13.421 7.25 21.296Q20.016 56 32.328 56q11.031 0 17.453-7.11 6.422-7.093 6.422-19.296zm-8.984 2.64q-.094 7.36-4.125 11.75-4.032 4.407-10.672 4.407-7.516 0-12.031-4.25-4.516-4.25-5.203-11.97z" id="DejaVuSans-101"/><path d="M18.11 8.203v-29H9.077v75.484h9.031v-8.296q2.844 4.875 7.157 7.234Q29.594 56 35.594 56q9.968 0 16.187-7.906 6.235-7.907 6.235-20.797T51.78 6.484q-6.218-7.906-16.187-7.906-6 0-10.328 2.375-4.313 2.375-7.157 7.25zm30.578 19.094q0 9.906-4.079 15.547-4.078 5.64-11.203 5.64-7.14 0-11.218-5.64-4.079-5.64-4.079-15.547 0-9.906 4.078-15.547 4.079-5.64 11.22-5.64 7.124 0 11.202 5.64t4.078 15.547z" id="DejaVuSans-112"/></defs><use xlink:href="#DejaVuSans-83"/><use x="63.477" xlink:href="#DejaVuSans-101"/><use x="125" xlink:href="#DejaVuSans-112"/></g></g><g id="xtick_6"><g style="fill:#696969" transform="matrix(.16 0 0 -.16 557.656 598.378)" id="text_6"><defs><path d="M9.813 72.906h13.28l32.329-60.984v60.984h9.562V0h-13.28L19.39 60.984V0H9.813z" id="DejaVuSans-78"/><path d="M30.61 48.39q-7.22 0-11.422-5.64-4.204-5.64-4.204-15.453 0-9.813 4.172-15.453 4.188-5.64 11.453-5.64 7.188 0 11.375 5.655 4.203 5.672 4.203 15.438 0 9.719-4.203 15.406-4.187 5.688-11.375 5.688zm0 7.61q11.718 0 18.406-7.625 6.703-7.61 6.703-21.078 0-13.422-6.703-21.078-6.688-7.64-18.407-7.64-11.765 0-18.437 7.64-6.656 7.656-6.656 21.078 0 13.469 6.656 21.078Q18.844 56 30.609 56z" id="DejaVuSans-111"/><path d="M2.984 54.688H12.5L29.594 8.797l17.093 45.89h9.516L35.687 0H23.485z" id="DejaVuSans-118"/></defs><use xlink:href="#DejaVuSans-78"/><use x="74.805" xlink:href="#DejaVuSans-111"/><use x="135.986" xlink:href="#DejaVuSans-118"/></g></g><g id="xtick_7"><g style="fill:#696969" transform="matrix(.16 0 0 -.16 651.54 598.378)" id="text_7"><use xlink:href="#DejaVuSans-74"/><use x="29.492" xlink:href="#DejaVuSans-97"/><use x="90.771" xlink:href="#DejaVuSans-110"/></g></g><g id="xtick_8"><g style="fill:#696969" transform="matrix(.16 0 0 -.16 736.408 598.378)" id="text_8"><use xlink:href="#DejaVuSans-77"/><use x="86.279" xlink:href="#DejaVuSans-97"/><use x="147.559" xlink:href="#DejaVuSans-114"/></g></g><g id="xtick_9"><g style="fill:#696969" transform="matrix(.16 0 0 -.16 825.563 598.378)" id="text_9"><use xlink:href="#DejaVuSans-77"/><use x="86.279" xlink:href="#DejaVuSans-97"/><use x="147.559" xlink:href="#DejaVuSans-121"/></g></g></g><g id="matplotlib.axis_2"><g id="ytick_1"><g style="fill:#696969" transform="matrix(.16 0 0 -.16 97.32 560.119)" id="text_10"><defs><path d="M31.781 66.406q-7.61 0-11.453-7.5Q16.5 51.422 16.5 36.375q0-14.984 3.828-22.484 3.844-7.5 11.453-7.5 7.672 0 11.5 7.5 3.844 7.5 3.844 22.484 0 15.047-3.844 22.531-3.828 7.5-11.5 7.5zm0 7.813q12.266 0 18.735-9.703 6.468-9.688 6.468-28.141 0-18.406-6.468-28.11-6.47-9.687-18.735-9.687-12.25 0-18.718 9.688-6.47 9.703-6.47 28.109 0 18.453 6.47 28.14Q19.53 74.22 31.78 74.22z" id="DejaVuSans-48"/></defs><use xlink:href="#DejaVuSans-48"/></g></g><g id="ytick_2"><g style="fill:#696969" transform="matrix(.16 0 0 -.16 76.96 503.39)" id="text_11"><defs><path d="M19.188 8.297h34.421V0H7.33v8.297q5.609 5.812 15.296 15.594 9.703 9.797 12.188 12.64 4.734 5.313 6.609 9 1.89 3.688 1.89 7.25 0 5.813-4.078 9.469-4.078 3.672-10.625 3.672-4.64 0-9.797-1.61-5.14-1.609-11-4.89v9.969Q13.767 71.78 18.938 73q5.188 1.219 9.485 1.219 11.328 0 18.062-5.672 6.735-5.656 6.735-15.125 0-4.5-1.688-8.531-1.672-4.016-6.125-9.485-1.218-1.422-7.765-8.187-6.532-6.766-18.453-18.922z" id="DejaVuSans-50"/></defs><use xlink:href="#DejaVuSans-50"/><use x="63.623" xlink:href="#DejaVuSans-48"/><use x="127.246" xlink:href="#DejaVuSans-48"/></g></g><g id="ytick_3"><g style="fill:#696969" transform="matrix(.16 0 0 -.16 76.96 446.66)" id="text_12"><defs><path d="M37.797 64.313 12.89 25.39h24.906zm-2.594 8.593H47.61V25.391h10.407v-8.203H47.609V0h-9.812v17.188H4.89v9.515z" id="DejaVuSans-52"/></defs><use xlink:href="#DejaVuSans-52"/><use x="63.623" xlink:href="#DejaVuSans-48"/><use x="127.246" xlink:href="#DejaVuSans-48"/></g></g><g id="ytick_4"><g style="fill:#696969" transform="matrix(.16 0 0 -.16 76.96 389.931)" id="text_13"><defs><path d="M33.016 40.375q-6.641 0-10.532-4.547-3.875-4.531-3.875-12.437 0-7.86 3.875-12.438 3.891-4.562 10.532-4.562 6.64 0 10.515 4.562 3.875 4.578 3.875 12.438 0 7.906-3.875 12.437-3.875 4.547-10.515 4.547zm19.578 30.922v-8.984q-3.719 1.75-7.5 2.671-3.782.938-7.5.938-9.766 0-14.922-6.594-5.14-6.594-5.875-19.922 2.875 4.25 7.219 6.516 4.359 2.266 9.578 2.266 10.984 0 17.36-6.672 6.374-6.657 6.374-18.125 0-11.235-6.64-18.032-6.641-6.78-17.672-6.78-12.657 0-19.344 9.687-6.688 9.703-6.688 28.109 0 17.281 8.204 27.563 8.203 10.28 22.015 10.28 3.719 0 7.5-.734t7.89-2.187z" id="DejaVuSans-54"/></defs><use xlink:href="#DejaVuSans-54"/><use x="63.623" xlink:href="#DejaVuSans-48"/><use x="127.246" xlink:href="#DejaVuSans-48"/></g></g><g id="ytick_5"><g style="fill:#696969" transform="matrix(.16 0 0 -.16 76.96 333.202)" id="text_14"><defs><path d="M31.781 34.625q-7.031 0-11.062-3.766-4.016-3.765-4.016-10.343 0-6.594 4.016-10.36Q24.75 6.391 31.78 6.391q7.032 0 11.078 3.78 4.063 3.798 4.063 10.345 0 6.578-4.031 10.343-4.016 3.766-11.11 3.766zm-9.86 4.188q-6.343 1.562-9.89 5.906Q8.5 49.079 8.5 55.329q0 8.733 6.219 13.812 6.234 5.078 17.062 5.078 10.89 0 17.094-5.078 6.203-5.079 6.203-13.813 0-6.25-3.547-10.61-3.531-4.343-9.828-5.906 7.125-1.656 11.094-6.5 3.984-4.828 3.984-11.796 0-10.61-6.468-16.282-6.47-5.656-18.532-5.656-12.047 0-18.531 5.656-6.469 5.672-6.469 16.282 0 6.968 4 11.797 4.016 4.843 11.14 6.5zM18.314 54.39q0-5.657 3.53-8.828 3.548-3.172 9.938-3.172 6.36 0 9.938 3.172 3.593 3.171 3.593 8.828 0 5.672-3.593 8.843-3.578 3.172-9.938 3.172-6.39 0-9.937-3.172-3.532-3.172-3.532-8.843z" id="DejaVuSans-56"/></defs><use xlink:href="#DejaVuSans-56"/><use x="63.623" xlink:href="#DejaVuSans-48"/><use x="127.246" xlink:href="#DejaVuSans-48"/></g></g><g id="ytick_6"><g style="fill:#696969" transform="matrix(.16 0 0 -.16 66.78 276.473)" id="text_15"><defs><path d="M12.406 8.297h16.11v55.625l-17.532-3.516v8.985l17.438 3.515h9.86V8.296H54.39V0H12.406z" id="DejaVuSans-49"/></defs><use xlink:href="#DejaVuSans-49"/><use x="63.623" xlink:href="#DejaVuSans-48"/><use x="127.246" xlink:href="#DejaVuSans-48"/><use x="190.869" xlink:href="#DejaVuSans-48"/></g></g><g id="ytick_7"><g style="fill:#696969" transform="matrix(.16 0 0 -.16 66.78 219.744)" id="text_16"><use xlink:href="#DejaVuSans-49"/><use x="63.623" xlink:href="#DejaVuSans-50"/><use x="127.246" xlink:href="#DejaVuSans-48"/><use x="190.869" xlink:href="#DejaVuSans-48"/></g></g><g id="ytick_8"><g style="fill:#696969" transform="matrix(.16 0 0 -.16 66.78 163.015)" id="text_17"><use xlink:href="#DejaVuSans-49"/><use x="63.623" xlink:href="#DejaVuSans-52"/><use x="127.246" xlink:href="#DejaVuSans-48"/><use x="190.869" xlink:href="#DejaVuSans-48"/></g></g><g id="ytick_9"><g style="fill:#696969" transform="matrix(.16 0 0 -.16 66.78 106.286)" id="text_18"><use xlink:href="#DejaVuSans-49"/><use x="63.623" xlink:href="#DejaVuSans-54"/><use x="127.246" xlink:href="#DejaVuSans-48"/><use x="190.869" xlink:href="#DejaVuSans-48"/></g></g><g style="fill:#696969" transform="matrix(0 -.2 -.2 0 58.62 379.813)" id="text_19"><defs><path d="M51.125 44H36.922l-4.11-16.313h14.313zm-7.328 27.781-5.078-20.265h14.265L58.11 71.78h7.813L60.89 51.516h15.234V44h-17.14l-4-16.313h15.53V20.22H53.079L48 0h-7.813l5.032 20.219H30.906L25.875 0h-7.86l5.079 20.219H7.719v7.468h17.187L29 44H13.281v7.516h17.625l4.985 20.265z" id="DejaVuSans-35"/><path d="M37.11 75.984V68.5h-8.594q-4.828 0-6.72-1.953-1.874-1.953-1.874-7.031v-4.828h14.797v-6.985H19.922V0H10.89v47.703H2.297v6.984h8.594V58.5q0 9.125 4.25 13.297 4.25 4.187 13.468 4.187z" id="DejaVuSans-102"/><path d="M48.781 52.594v-8.407q-3.812 2.11-7.64 3.157-3.828 1.047-7.735 1.047-8.75 0-13.593-5.547-4.829-5.532-4.829-15.547 0-10.016 4.829-15.563 4.843-5.53 13.593-5.53 3.907 0 7.735 1.046 3.828 1.047 7.64 3.156V2.094Q45.016.344 40.984-.531q-4.015-.89-8.562-.89-12.36 0-19.64 7.765-7.266 7.765-7.266 20.953 0 13.375 7.343 21.031Q20.22 56 33.016 56q4.14 0 8.093-.86 3.953-.843 7.672-2.546z" id="DejaVuSans-99"/><path d="M44.281 53.078v-8.5q-3.797 1.953-7.906 2.922-4.094.984-8.5.984-6.688 0-10.031-2.047-3.344-2.046-3.344-6.156 0-3.125 2.39-4.906 2.391-1.781 9.626-3.39l3.078-.688q9.562-2.047 13.593-5.781 4.032-3.735 4.032-10.422 0-7.625-6.032-12.078-6.03-4.438-16.578-4.438-4.39 0-9.156.86Q10.688.296 5.422 2v9.281q4.984-2.594 9.812-3.89 4.829-1.282 9.579-1.282 6.343 0 9.75 2.172 3.421 2.172 3.421 6.125 0 3.656-2.468 5.61-2.453 1.953-10.813 3.765l-3.125.735q-8.344 1.75-12.062 5.39-3.704 3.64-3.704 9.985 0 7.718 5.47 11.906Q16.75 56 26.811 56q4.97 0 9.36-.734 4.406-.72 8.11-2.188z" id="DejaVuSans-115"/></defs><use xlink:href="#DejaVuSans-35"/><use x="83.789" xlink:href="#DejaVuSans-32"/><use x="115.576" xlink:href="#DejaVuSans-111"/><use x="176.758" xlink:href="#DejaVuSans-102"/><use x="211.963" xlink:href="#DejaVuSans-32"/><use x="243.75" xlink:href="#DejaVuSans-99"/><use x="298.73" xlink:href="#DejaVuSans-97"/><use x="360.01" xlink:href="#DejaVuSans-115"/><use x="412.109" xlink:href="#DejaVuSans-101"/><use x="473.633" xlink:href="#DejaVuSans-115"/></g></g><g style="fill:#696969" transform="matrix(.24 0 0 -.24 306.902 71.76)" id="text_20"><defs><path d="M44.39 34.188q3.172-1.079 6.172-4.594 3-3.516 6.032-9.672L66.609 0H56l-9.313 18.703q-3.624 7.328-7.015 9.719-3.39 2.39-9.25 2.39h-10.75V0h-9.86v72.906h22.266q12.5 0 18.656-5.234 6.157-5.219 6.157-15.766 0-6.89-3.203-11.437-3.204-4.532-9.297-6.282zM19.673 64.797V38.922h12.406q7.125 0 10.766 3.297 3.64 3.297 3.64 9.687 0 6.39-3.64 9.64-3.64 3.25-10.766 3.25z" id="DejaVuSans-82"/><path d="M18.313 70.219V54.688h18.5v-6.985h-18.5V18.016q0-6.688 1.828-8.594 1.828-1.906 7.453-1.906h9.218V0h-9.218q-10.407 0-14.36 3.875-3.953 3.89-3.953 14.14v29.688H2.687v6.984h6.594V70.22z" id="DejaVuSans-116"/><path d="M54.89 33.016V0h-8.984v32.719q0 7.765-3.031 11.61-3.031 3.858-9.078 3.858-7.281 0-11.484-4.64-4.204-4.625-4.204-12.64V0H9.08v75.984h9.03V46.188q3.235 4.937 7.594 7.374Q30.078 56 35.797 56q9.422 0 14.25-5.828 4.844-5.828 4.844-17.156z" id="DejaVuSans-104"/><path d="M45.406 46.39v29.594h8.985V0h-8.985v8.203Q42.578 3.328 38.25.953q-4.313-2.375-10.375-2.375-9.906 0-16.14 7.906-6.22 7.922-6.22 20.813 0 12.89 6.22 20.797Q17.968 56 27.874 56q6.063 0 10.375-2.375 4.328-2.36 7.156-7.234zm-30.61-19.093q0-9.906 4.079-15.547 4.078-5.64 11.203-5.64 7.125 0 11.219 5.64 4.11 5.64 4.11 15.547 0 9.906-4.11 15.547-4.094 5.64-11.219 5.64-7.125 0-11.203-5.64-4.078-5.64-4.078-15.547z" id="DejaVuSans-100"/><path d="M-.297 72.906h61.672v-8.312H35.5V0h-9.906v64.594H-.296z" id="DejaVuSans-84"/><path d="M64.406 67.281v-10.39q-4.984 4.64-10.625 6.922-5.64 2.296-11.984 2.296-12.5 0-19.14-7.64-6.641-7.64-6.641-22.094 0-14.406 6.64-22.047 6.64-7.64 19.14-7.64 6.345 0 11.985 2.296 5.64 2.297 10.625 6.938V5.609Q59.234 2.094 53.437.33q-5.78-1.75-12.218-1.75-16.563 0-26.094 10.124-9.516 10.14-9.516 27.672 0 17.578 9.516 27.703 9.531 10.14 26.094 10.14 6.531 0 12.312-1.734 5.797-1.734 10.875-5.203z" id="DejaVuSans-67"/><path d="M9.422 54.688h8.984V0H9.422zm0 21.296h8.984v-11.39H9.422z" id="DejaVuSans-105"/></defs><use xlink:href="#DejaVuSans-82"/><use x="64.982" xlink:href="#DejaVuSans-117"/><use x="128.361" xlink:href="#DejaVuSans-116"/><use x="167.57" xlink:href="#DejaVuSans-104"/><use x="230.949" xlink:href="#DejaVuSans-101"/><use x="292.473" xlink:href="#DejaVuSans-114"/><use x="333.586" xlink:href="#DejaVuSans-102"/><use x="368.791" xlink:href="#DejaVuSans-111"/><use x="429.973" xlink:href="#DejaVuSans-114"/><use x="469.336" xlink:href="#DejaVuSans-100"/><use x="532.813" xlink:href="#DejaVuSans-32"/><use x="564.6" xlink:href="#DejaVuSans-84"/><use x="608.684" xlink:href="#DejaVuSans-111"/><use x="669.865" xlink:href="#DejaVuSans-116"/><use x="709.074" xlink:href="#DejaVuSans-97"/><use x="770.354" xlink:href="#DejaVuSans-108"/><use x="798.137" xlink:href="#DejaVuSans-32"/><use x="829.924" xlink:href="#DejaVuSans-67"/><use x="899.748" xlink:href="#DejaVuSans-111"/><use x="960.93" xlink:href="#DejaVuSans-118"/><use x="1020.109" xlink:href="#DejaVuSans-105"/><use x="1047.893" xlink:href="#DejaVuSans-100"/><use x="1111.369" xlink:href="#DejaVuSans-32"/><use x="1143.156" xlink:href="#DejaVuSans-67"/><use x="1212.98" xlink:href="#DejaVuSans-97"/><use x="1274.26" xlink:href="#DejaVuSans-115"/><use x="1326.359" xlink:href="#DejaVuSans-101"/><use x="1387.883" xlink:href="#DejaVuSans-115"/></g><g id="legend_1"><path d="M128.2 137.53h144.675q3.2 0 3.2-3.2V88.96q0-3.2-3.2-3.2H128.2q-3.2 0-3.2 3.2v45.37q0 3.2 3.2 3.2z" style="fill:none;opacity:.8;stroke:#ccc;stroke-linejoin:miter" id="patch_5"/><path d="M131.4 98.718h32" style="fill:none;stroke:#4c72b0;stroke-linecap:round;stroke-width:1.5" id="line2d_2"/><g style="fill:#696969" transform="matrix(.16 0 0 -.16 176.2 104.317)" id="text_21"><use xlink:href="#DejaVuSans-84"/><use x="44.084" xlink:href="#DejaVuSans-111"/><use x="105.266" xlink:href="#DejaVuSans-116"/><use x="144.475" xlink:href="#DejaVuSans-97"/><use x="205.754" xlink:href="#DejaVuSans-108"/><use x="233.537" xlink:href="#DejaVuSans-32"/><use x="265.324" xlink:href="#DejaVuSans-67"/><use x="335.148" xlink:href="#DejaVuSans-97"/><use x="396.428" xlink:href="#DejaVuSans-115"/><use x="448.527" xlink:href="#DejaVuSans-101"/><use x="510.051" xlink:href="#DejaVuSans-115"/></g><path d="M131.4 127.802h32v-11.2h-32z" style="fill:#089fff;opacity:.2;stroke:#fff;stroke-linejoin:miter" id="patch_6"/><g style="fill:#696969" transform="matrix(.16 0 0 -.16 176.2 127.802)" id="text_22"><defs><path d="M8.688 72.906h9.921V28.61q0-11.718 4.235-16.875 4.25-5.14 13.781-5.14 9.469 0 13.719 5.14 4.25 5.157 4.25 16.875v44.297H64.5V27.391q0-14.25-7.063-21.532-7.046-7.28-20.812-7.28-13.828 0-20.89 7.28-7.047 7.282-7.047 21.532z" id="DejaVuSans-85"/></defs><use xlink:href="#DejaVuSans-85"/><use x="73.193" xlink:href="#DejaVuSans-110"/><use x="136.572" xlink:href="#DejaVuSans-99"/><use x="191.553" xlink:href="#DejaVuSans-101"/><use x="253.076" xlink:href="#DejaVuSans-114"/><use x="294.189" xlink:href="#DejaVuSans-116"/><use x="333.398" xlink:href="#DejaVuSans-97"/><use x="394.678" xlink:href="#DejaVuSans-105"/><use x="422.461" xlink:href="#DejaVuSans-110"/><use x="485.84" xlink:href="#DejaVuSans-116"/><use x="525.049" xlink:href="#DejaVuSans-121"/></g></g></g></g><defs><clipPath id="pab255aea75"><path d="M117 77.76h725.4v498.96H117z"/></clipPath></defs></svg>