<svg height="864" viewBox="0 0 936 648" width="1248" xmlns="http://www.w3.org/2000/svg" xmlns:xlink="http://www.w3.org/1999/xlink"><defs><style>*{stroke-linecap:butt;stroke-linejoin:round}</style></defs><g id="figure_1"><path d="M0 648h936V0H0z" style="fill:#fff" id="patch_1"/><g id="axes_1"><path d="M117 576.72h725.4V77.76H117z" style="fill:none" id="patch_2"/><path clip-path="url(#pf3d73e167f)" d="m149.973 554.04 67.198-.092 4.556-.227 3.417-.359 4.556-.763 3.416-.79 4.556-1.316 14.807-4.516 22.779-6.48 12.528-2.917 11.39-2.493 19.362-4.3 5.695-1.496 3.417-1.088 4.555-1.738 3.417-1.513 5.695-2.845 4.556-2.499 4.556-2.803 21.64-14.243 4.556-2.605 10.25-5.529 4.556-2.212 6.834-2.969 12.528-5.255 4.556-1.707 6.834-2.518 6.834-2.87 15.945-7.128 5.695-2.926 4.555-2.434 5.695-3.334 3.417-2.162 4.556-3.25 4.556-3.618 3.417-2.954 2.278-2.167 2.277-2.395 2.278-2.619 2.278-2.891 2.278-3.169 3.417-5.2 3.417-5.614 5.695-9.894 2.278-3.93 9.111-15.44 3.417-6.808 4.556-9.75 14.806-32.493 9.112-17.182 2.278-4.821 3.417-7.82 2.278-5.726 6.833-17.246 3.417-7.793 3.417-6.95 3.417-6.279 5.695-9.596 3.417-5.246 3.416-4.89 3.417-4.353 2.278-2.632 3.417-3.619 3.417-3.258 3.417-2.817 3.417-2.42 6.833-4.708 5.695-3.843 11.39-7.109 3.417-1.96 11.39-6.42 4.555-2.94 11.39-7.507 6.833-4.824 4.556-3.144 4.556-2.875 4.556-2.605 5.694-2.919 4.556-2.18 4.556-1.907 4.556-1.666 5.695-1.844 4.555-1.231 5.695-1.349 4.556-.87 3.417-.457 6.834-.622 7.972-1.109 15.946-1.98 12.528-2.707 6.834-2.119 3.417-1.331 3.417-1.697 2.278-1.257 2.277-1.5 2.278-1.716 3.417-2.81 3.417-3.32 3.417-3.747 3.417-4.13 4.556-5.932 6.833-9.955h0" style="fill:none;stroke:#000;stroke-linecap:round;stroke-width:1.5" id="line2d_1"/><path clip-path="url(#pf3d73e167f)" d="m149.973 554.04 64.92-.068 4.556-.282 2.278-.369 1.139-.241 2.278-.855 2.278-1.292 2.278-1.751 2.277-2.222 2.278-2.678 3.417-4.515 5.695-7.516 10.25-13.015 4.556-5.916 2.278-2.802 2.278-2.545 4.556-4.47 3.417-3.004 3.417-2.59 3.417-2.043 3.416-1.652 6.834-3.025 3.417-1.498 4.556-1.603 6.834-2.185 4.555-1.046 5.695-.986 9.112-1.208 5.695-.79 6.833-1.405 20.502-2.276 7.972-.713 27.335-4.008 17.084-1.846 15.946-2.17 9.111-1.524 5.695-1.188 7.973-1.956 7.973-2.35 5.694-1.884 4.556-1.782 5.695-2.701 3.417-1.933 4.556-2.81 2.277-1.553 3.417-2.755 2.278-2.179 2.278-2.478 2.278-2.846 3.417-4.619 5.695-8.26 12.528-19.07 2.278-3.987 12.529-22.722 3.416-5.831 9.112-14.715 5.695-8.487 1.139-1.878 3.417-14.833 3.417-15.863 1.139-5.516 6.833-16.158 3.417-7.55 2.278-4.557 3.417-6.402 7.973-15.09 2.277-3.959 2.278-3.469 3.417-4.66 3.417-4.622 3.417-4.859 3.417-4.21 3.417-4.014 7.972-8.867 4.556-5.618 5.695-7.153 3.417-4.194 4.556-5.985 5.694-7.968 6.834-10.383 4.556-7.367 7.973-13.232 5.694-8.503 5.695-7.84 6.834-9.063 2.278-2.723 2.278-2.402 2.278-.91 2.278-.642 2.277-.39 1.14-.13 3.416-2.095 2.278-1.231 2.278-1.01 2.278-.831 2.278-.496 10.25-1.71 4.556-.73 4.556-.546 6.834-.67 22.779-2.046 13.667-1.09 5.695-.518 6.834-.904 3.417-.595 3.417-.778 4.555-1.232 4.556-1.485 3.417-1.343 4.556-2.072 3.417-1.693 3.417-1.961 4.555-2.95 3.417-2.389h0" style="fill:none;stroke:#009e73;stroke-linecap:round;stroke-width:1.5" id="line2d_2"/><path clip-path="url(#pf3d73e167f)" d="m149.973 554.04 62.642-.1 2.278-.115 3.417-.544 2.278-.563 2.278-.755 1.139-.526 1.139-.674 2.278-1.846 1.139-1.084 1.139-1.278 2.277-3.224 1.14-1.946 2.277-4.598 5.695-12.558 3.417-6.039 11.39-16.705 3.416-4.285 2.278-2.31 2.278-1.922 2.278-1.565 4.556-2.71 2.278-1.088 3.417-1.343 3.417-1.003 4.555-1.037 10.25-2.324 4.557-1.248 3.417-.65 11.39-1.554 6.833-.96 5.695-.527 3.417-.916 4.555-1.41 6.834-.958 9.112-1.241 4.556-.315 6.833-.593 6.834-.94 6.834-.927 5.694-.73 3.417-.512 4.556-.955 2.278-.418 3.417-.312 3.417-.165 6.833-.768 7.973-.964 18.223-1.793 7.973-.948 5.695-.948 5.695-1.16 3.417-.845 5.694-1.618 4.556-1.545 5.695-2.338 2.278-1.06 4.556-2.341 4.555-2.792 3.417-2.487 1.14-.934 2.277-2.3 2.278-2.552 3.417-4.248 4.556-6.024 3.417-4.811 6.833-9.435 3.417-5.028 6.834-11.262 4.556-6.232 3.417-4.682 2.278-3.157 3.416-4.415 3.417-4.526 3.417-4.376 5.695-7.226 1.139-1.574 2.278-8.394 3.417-13.482 2.278-9.507 3.416-6.82 4.556-9.029 4.556-8.525 3.417-5.734 6.834-11.616 3.416-5.496 4.556-6.313 9.112-12.393 2.278-2.842 4.556-5.56 2.278-2.763 3.416-4.243 3.417-4.86 6.834-10.238 2.278-3.107 5.695-7.836 5.694-8.632 3.417-5.517 6.834-11.311 4.556-8.305 2.278-4.344 3.417-6.02 3.416-5.459 3.417-4.887 3.417-4.472 5.695-6.843 3.417-3.672 3.417-3.14 2.278-1.766 3.416-2.23 4.556-2.371 3.417-3.773 4.556-4.828 1.139-.473 7.973-1.762 4.555-.734 10.251-1.236 15.945-1.265 25.057-2.25 7.973-.62 4.556-.604 5.695-.963 3.417-.822 3.416-1.02 4.556-1.578 9.112-3.62 3.417-1.594 5.694-2.944 2.278-1.232 1.14-.631h0" style="fill:none;stroke:#d55e00;stroke-linecap:round;stroke-width:1.5" id="line2d_3"/><path clip-path="url(#pf3d73e167f)" d="m149.973 554.04 66.06-.059 4.555-.295 2.278-.442 2.278-.796 2.278-1.033 1.139-.678 3.416-2.595 1.14-.973 1.138-1.357 2.278-3.185 5.695-7.254 2.278-1.858 3.417-2.743 10.25-7.018 3.417-2.3 2.278-1.18 4.556-1.71 2.278-.59 2.278-.295 2.278-.06 1.139-.147 3.417-.884 3.416-.973 2.278-.325 3.417-.177 7.973-.265 3.417-.354 4.556-.649 3.416-.265 3.417-.148 7.973-.56 5.695-.236 3.417-.354 3.416-.501 4.556-.737 3.417-.502 5.695-1.268 1.139-.295 4.556-.678 9.111-.796 4.556-.56 30.752-1.681 9.111-1.003 4.556-.62 5.695-.648 11.39-.973 4.555-.62 4.556-.383 4.556-.03 3.417-.058 1.139-.089 1.139-.236 3.417-1.622 2.278-1.12 2.278-1.298 2.277-1.032 2.278-1.386 1.14-.737 3.416-1.71 2.278-.62 1.139-.177 1.139-.295 2.278-.855 1.139-.59 3.417-2.212 3.417-2.624 4.555-3.303 3.417-3.067 3.417-4.1 3.417-4.216 1.139-1.888 1.139-1.621 2.278-3.805 2.278-3.892 2.278-3.421 1.139-1.386 1.139-.973 5.694-7.166 1.14-2.006 2.277-5.16 5.695-12.032 1.139-1.947 5.695-8.257 1.139-1.15 3.416-4.158 2.278-3.48 3.417-6.694 11.39-19.316 4.556-9.702 2.278-6.016 2.277-5.16 2.278-4.867 1.14-2.3 2.277-4.01 1.14-1.357 2.277-3.155 1.139-1.328 3.417-3.361 1.139-2.035 4.556-6.282 2.278-4.01 2.277-2.064 3.417-4.542 2.278-2.418 1.14-1.681 1.138-1.887 2.278-2.478 1.139-1.15 2.278-2.713 1.139-.884 3.417-3.185 1.139-1.003 1.139-.796 5.694-5.013 2.278-2.537 1.14-1.061 2.277-2.979 1.14-1.592 2.277-2.743 3.417-4.246 2.278-2.477 1.139-1.534 3.417-3.981 4.555-6.37 7.973-9.614 2.278-3.067 1.139-1.798 3.417-4.247 6.834-9.761 2.277-1.77v-1.504l4.556-5.426 9.112-8.817 1.139-.944 2.278-1.592 3.417-2.035 2.278-1.504 2.277-1.357 3.417-2.182 4.556-2.3 5.695-1.887 2.278-.354 2.278-.295 12.528-.384 7.973-.56 5.695-.236 7.972-.737h10.251l9.112-.885 10.25-.354 4.556-.324 9.112-.796 2.278-.472 3.416-2.743 4.556-4.276 4.556-2.506 4.556-1.74 1.139-.502 2.278-1.415 5.695-3.952 2.277-1.18 3.417-1.503h0" style="fill:none;stroke:#0072b2;stroke-linecap:round;stroke-width:1.5" id="line2d_4"/><path d="M117 576.72V77.76" style="fill:none;stroke:#d3d3d3;stroke-linecap:square;stroke-linejoin:miter;stroke-width:1.25" id="patch_3"/><path d="M117 576.72h725.4" style="fill:none;stroke:#d3d3d3;stroke-linecap:square;stroke-linejoin:miter;stroke-width:1.25" id="patch_4"/><g id="matplotlib.axis_1"><g id="xtick_1"><g style="fill:#696969" transform="matrix(.16 0 0 -.16 114.861 598.378)" id="text_1"><defs><path d="M9.813 72.906h9.859V5.078q0-13.187-5-19.14-5-5.954-16.094-5.954h-3.75v8.297h3.078q6.531 0 9.219 3.672Q9.813-4.39 9.813 5.078z" id="DejaVuSans-74"/><path d="M34.281 27.484q-10.89 0-15.093-2.484-4.204-2.484-4.204-8.5 0-4.781 3.157-7.594 3.156-2.797 8.562-2.797 7.485 0 12 5.297 4.516 5.297 4.516 14.078v2zm17.922 3.72V0H43.22v8.297Q40.14 3.328 35.547.953q-4.594-2.375-11.234-2.375-8.391 0-13.36 4.719Q6 8.016 6 15.922q0 9.219 6.172 13.906 6.187 4.688 18.437 4.688h12.61v.89q0 6.203-4.078 9.594-4.078 3.39-11.453 3.39-4.688 0-9.141-1.124-4.438-1.125-8.531-3.375v8.312q4.921 1.906 9.562 2.844 4.64.953 9.031.953 11.875 0 17.735-6.156 5.86-6.14 5.86-18.64z" id="DejaVuSans-97"/><path d="M54.89 33.016V0h-8.984v32.719q0 7.765-3.031 11.61-3.031 3.858-9.078 3.858-7.281 0-11.484-4.64-4.204-4.625-4.204-12.64V0H9.08v54.688h9.03v-8.5q3.235 4.937 7.594 7.374Q30.078 56 35.797 56q9.422 0 14.25-5.828 4.844-5.828 4.844-17.156z" id="DejaVuSans-110"/></defs><use xlink:href="#DejaVuSans-74"/><use x="29.492" xlink:href="#DejaVuSans-97"/><use x="90.771" xlink:href="#DejaVuSans-110"/></g></g><g id="xtick_2"><g style="fill:#696969" transform="matrix(.16 0 0 -.16 180.437 598.378)" id="text_2"><defs><path d="M9.813 72.906h14.703l18.593-49.61 18.703 49.61h14.704V0H66.89v64.016l-18.797-50h-9.907l-18.796 50V0H9.813z" id="DejaVuSans-77"/><path d="M41.11 46.297q-1.516.875-3.297 1.281Q36.03 48 33.89 48q-7.625 0-11.703-4.953-4.079-4.953-4.079-14.234V0H9.08v54.688h9.03v-8.5q2.844 4.984 7.375 7.39Q30.031 56 36.531 56q.922 0 2.047-.125 1.125-.11 2.484-.36z" id="DejaVuSans-114"/></defs><use xlink:href="#DejaVuSans-77"/><use x="86.279" xlink:href="#DejaVuSans-97"/><use x="147.559" xlink:href="#DejaVuSans-114"/></g></g><g id="xtick_3"><g style="fill:#696969" transform="matrix(.16 0 0 -.16 248.467 598.378)" id="text_3"><defs><path d="M32.172-5.078q-3.797-9.766-7.422-12.735-3.61-2.984-9.656-2.984H7.906v7.516h5.282q3.703 0 5.75 1.765Q21-9.766 23.483-3.219l1.61 4.094-22.11 53.813H12.5l17.094-42.766 17.093 42.766h9.516z" id="DejaVuSans-121"/></defs><use xlink:href="#DejaVuSans-77"/><use x="86.279" xlink:href="#DejaVuSans-97"/><use x="147.559" xlink:href="#DejaVuSans-121"/></g></g><g id="xtick_4"><g style="fill:#696969" transform="matrix(.16 0 0 -.16 324.83 598.378)" id="text_4"><defs><path d="M8.5 21.578v33.11h8.984V21.922q0-7.766 3.016-11.656 3.031-3.875 9.094-3.875 7.265 0 11.484 4.64 4.234 4.64 4.234 12.656v31h8.985V0h-8.984v8.406Q42.047 3.422 37.718 1q-4.313-2.422-10.032-2.422-9.421 0-14.312 5.86Q8.5 10.296 8.5 21.578zM31.11 56z" id="DejaVuSans-117"/><path d="M9.422 75.984h8.984V0H9.422z" id="DejaVuSans-108"/></defs><use xlink:href="#DejaVuSans-74"/><use x="29.492" xlink:href="#DejaVuSans-117"/><use x="92.871" xlink:href="#DejaVuSans-108"/></g></g><g id="xtick_5"><g style="fill:#696969" transform="matrix(.16 0 0 -.16 390.018 598.378)" id="text_5"><defs><path d="M53.516 70.516V60.89q-5.61 2.687-10.594 4-4.984 1.328-9.625 1.328-8.047 0-12.422-3.125t-4.375-8.89q0-4.845 2.906-7.313 2.907-2.453 11.016-3.97l5.953-1.218q11.031-2.11 16.281-7.406 5.25-5.297 5.25-14.172 0-10.61-7.11-16.078-7.093-5.469-20.812-5.469-5.172 0-11.015 1.172Q13.14.922 6.89 3.219v10.156q6-3.36 11.765-5.078 5.766-1.703 11.328-1.703 8.438 0 13.032 3.312 4.593 3.328 4.593 9.485 0 5.359-3.297 8.39-3.296 3.032-10.812 4.547L27.484 33.5q-11.03 2.188-15.968 6.875-4.922 4.688-4.922 13.047 0 9.672 6.812 15.234 6.813 5.563 18.766 5.563 5.14 0 10.453-.938 5.328-.922 10.89-2.765z" id="DejaVuSans-83"/><path d="M56.203 29.594v-4.39H14.891q.593-9.282 5.593-14.142 5-4.859 13.938-4.859 5.172 0 10.031 1.266 4.86 1.265 9.656 3.812v-8.5Q49.266.734 44.187-.344 39.11-1.422 33.892-1.422q-13.094 0-20.735 7.61-7.64 7.625-7.64 20.625 0 13.421 7.25 21.296Q20.016 56 32.328 56q11.031 0 17.453-7.11 6.422-7.093 6.422-19.296zm-8.984 2.64q-.094 7.36-4.125 11.75-4.032 4.407-10.672 4.407-7.516 0-12.031-4.25-4.516-4.25-5.203-11.97z" id="DejaVuSans-101"/><path d="M18.11 8.203v-29H9.077v75.484h9.031v-8.296q2.844 4.875 7.157 7.234Q29.594 56 35.594 56q9.968 0 16.187-7.906 6.235-7.907 6.235-20.797T51.78 6.484q-6.218-7.906-16.187-7.906-6 0-10.328 2.375-4.313 2.375-7.157 7.25zm30.578 19.094q0 9.906-4.079 15.547-4.078 5.64-11.203 5.64-7.14 0-11.218-5.64-4.079-5.64-4.079-15.547 0-9.906 4.078-15.547 4.079-5.64 11.22-5.64 7.124 0 11.202 5.64t4.078 15.547z" id="DejaVuSans-112"/></defs><use xlink:href="#DejaVuSans-83"/><use x="63.477" xlink:href="#DejaVuSans-101"/><use x="125" xlink:href="#DejaVuSans-112"/></g></g><g id="xtick_6"><g style="fill:#696969" transform="matrix(.16 0 0 -.16 458.96 598.378)" id="text_6"><defs><path d="M9.813 72.906h13.28l32.329-60.984v60.984h9.562V0h-13.28L19.39 60.984V0H9.813z" id="DejaVuSans-78"/><path d="M30.61 48.39q-7.22 0-11.422-5.64-4.204-5.64-4.204-15.453 0-9.813 4.172-15.453 4.188-5.64 11.453-5.64 7.188 0 11.375 5.655 4.203 5.672 4.203 15.438 0 9.719-4.203 15.406-4.187 5.688-11.375 5.688zm0 7.61q11.718 0 18.406-7.625 6.703-7.61 6.703-21.078 0-13.422-6.703-21.078-6.688-7.64-18.407-7.64-11.765 0-18.437 7.64-6.656 7.656-6.656 21.078 0 13.469 6.656 21.078Q18.844 56 30.609 56z" id="DejaVuSans-111"/><path d="M2.984 54.688H12.5L29.594 8.797l17.093 45.89h9.516L35.687 0H23.485z" id="DejaVuSans-118"/></defs><use xlink:href="#DejaVuSans-78"/><use x="74.805" xlink:href="#DejaVuSans-111"/><use x="135.986" xlink:href="#DejaVuSans-118"/></g></g><g id="xtick_7"><g style="fill:#696969" transform="matrix(.16 0 0 -.16 531.718 598.378)" id="text_7"><use xlink:href="#DejaVuSans-74"/><use x="29.492" xlink:href="#DejaVuSans-97"/><use x="90.771" xlink:href="#DejaVuSans-110"/></g></g><g id="xtick_8"><g style="fill:#696969" transform="matrix(.16 0 0 -.16 596.155 598.378)" id="text_8"><use xlink:href="#DejaVuSans-77"/><use x="86.279" xlink:href="#DejaVuSans-97"/><use x="147.559" xlink:href="#DejaVuSans-114"/></g></g><g id="xtick_9"><g style="fill:#696969" transform="matrix(.16 0 0 -.16 664.185 598.378)" id="text_9"><use xlink:href="#DejaVuSans-77"/><use x="86.279" xlink:href="#DejaVuSans-97"/><use x="147.559" xlink:href="#DejaVuSans-121"/></g></g><g id="xtick_10"><g style="fill:#696969" transform="matrix(.16 0 0 -.16 740.55 598.378)" id="text_10"><use xlink:href="#DejaVuSans-74"/><use x="29.492" xlink:href="#DejaVuSans-117"/><use x="92.871" xlink:href="#DejaVuSans-108"/></g></g><g id="xtick_11"><g style="fill:#696969" transform="matrix(.16 0 0 -.16 805.737 598.378)" id="text_11"><use xlink:href="#DejaVuSans-83"/><use x="63.477" xlink:href="#DejaVuSans-101"/><use x="125" xlink:href="#DejaVuSans-112"/></g></g></g><g id="matplotlib.axis_2"><g id="ytick_1"><g style="fill:#696969" transform="matrix(.16 0 0 -.16 97.32 560.119)" id="text_12"><defs><path d="M31.781 66.406q-7.61 0-11.453-7.5Q16.5 51.422 16.5 36.375q0-14.984 3.828-22.484 3.844-7.5 11.453-7.5 7.672 0 11.5 7.5 3.844 7.5 3.844 22.484 0 15.047-3.844 22.531-3.828 7.5-11.5 7.5zm0 7.813q12.266 0 18.735-9.703 6.468-9.688 6.468-28.141 0-18.406-6.468-28.11-6.47-9.687-18.735-9.687-12.25 0-18.718 9.688-6.47 9.703-6.47 28.109 0 18.453 6.47 28.14Q19.53 74.22 31.78 74.22z" id="DejaVuSans-48"/></defs><use xlink:href="#DejaVuSans-48"/></g></g><g id="ytick_2"><g style="fill:#696969" transform="matrix(.16 0 0 -.16 66.78 484.553)" id="text_13"><defs><path d="M19.188 8.297h34.421V0H7.33v8.297q5.609 5.812 15.296 15.594 9.703 9.797 12.188 12.64 4.734 5.313 6.609 9 1.89 3.688 1.89 7.25 0 5.813-4.078 9.469-4.078 3.672-10.625 3.672-4.64 0-9.797-1.61-5.14-1.609-11-4.89v9.969Q13.767 71.78 18.938 73q5.188 1.219 9.485 1.219 11.328 0 18.062-5.672 6.735-5.656 6.735-15.125 0-4.5-1.688-8.531-1.672-4.016-6.125-9.485-1.218-1.422-7.765-8.187-6.532-6.766-18.453-18.922z" id="DejaVuSans-50"/></defs><use xlink:href="#DejaVuSans-50"/><use x="63.623" xlink:href="#DejaVuSans-48"/><use x="127.246" xlink:href="#DejaVuSans-48"/><use x="190.869" xlink:href="#DejaVuSans-48"/></g></g><g id="ytick_3"><g style="fill:#696969" transform="matrix(.16 0 0 -.16 66.78 408.988)" id="text_14"><defs><path d="M37.797 64.313 12.89 25.39h24.906zm-2.594 8.593H47.61V25.391h10.407v-8.203H47.609V0h-9.812v17.188H4.89v9.515z" id="DejaVuSans-52"/></defs><use xlink:href="#DejaVuSans-52"/><use x="63.623" xlink:href="#DejaVuSans-48"/><use x="127.246" xlink:href="#DejaVuSans-48"/><use x="190.869" xlink:href="#DejaVuSans-48"/></g></g><g id="ytick_4"><g style="fill:#696969" transform="matrix(.16 0 0 -.16 66.78 333.422)" id="text_15"><defs><path d="M33.016 40.375q-6.641 0-10.532-4.547-3.875-4.531-3.875-12.437 0-7.86 3.875-12.438 3.891-4.562 10.532-4.562 6.64 0 10.515 4.562 3.875 4.578 3.875 12.438 0 7.906-3.875 12.437-3.875 4.547-10.515 4.547zm19.578 30.922v-8.984q-3.719 1.75-7.5 2.671-3.782.938-7.5.938-9.766 0-14.922-6.594-5.14-6.594-5.875-19.922 2.875 4.25 7.219 6.516 4.359 2.266 9.578 2.266 10.984 0 17.36-6.672 6.374-6.657 6.374-18.125 0-11.235-6.64-18.032-6.641-6.78-17.672-6.78-12.657 0-19.344 9.687-6.688 9.703-6.688 28.109 0 17.281 8.204 27.563 8.203 10.28 22.015 10.28 3.719 0 7.5-.734t7.89-2.187z" id="DejaVuSans-54"/></defs><use xlink:href="#DejaVuSans-54"/><use x="63.623" xlink:href="#DejaVuSans-48"/><use x="127.246" xlink:href="#DejaVuSans-48"/><use x="190.869" xlink:href="#DejaVuSans-48"/></g></g><g id="ytick_5"><g style="fill:#696969" transform="matrix(.16 0 0 -.16 66.78 257.856)" id="text_16"><defs><path d="M31.781 34.625q-7.031 0-11.062-3.766-4.016-3.765-4.016-10.343 0-6.594 4.016-10.36Q24.75 6.391 31.78 6.391q7.032 0 11.078 3.78 4.063 3.798 4.063 10.345 0 6.578-4.031 10.343-4.016 3.766-11.11 3.766zm-9.86 4.188q-6.343 1.562-9.89 5.906Q8.5 49.079 8.5 55.329q0 8.733 6.219 13.812 6.234 5.078 17.062 5.078 10.89 0 17.094-5.078 6.203-5.079 6.203-13.813 0-6.25-3.547-10.61-3.531-4.343-9.828-5.906 7.125-1.656 11.094-6.5 3.984-4.828 3.984-11.796 0-10.61-6.468-16.282-6.47-5.656-18.532-5.656-12.047 0-18.531 5.656-6.469 5.672-6.469 16.282 0 6.968 4 11.797 4.016 4.843 11.14 6.5zM18.314 54.39q0-5.657 3.53-8.828 3.548-3.172 9.938-3.172 6.36 0 9.938 3.172 3.593 3.171 3.593 8.828 0 5.672-3.593 8.843-3.578 3.172-9.938 3.172-6.39 0-9.937-3.172-3.532-3.172-3.532-8.843z" id="DejaVuSans-56"/></defs><use xlink:href="#DejaVuSans-56"/><use x="63.623" xlink:href="#DejaVuSans-48"/><use x="127.246" xlink:href="#DejaVuSans-48"/><use x="190.869" xlink:href="#DejaVuSans-48"/></g></g><g id="ytick_6"><g style="fill:#696969" transform="matrix(.16 0 0 -.16 56.6 182.29)" id="text_17"><defs><path d="M12.406 8.297h16.11v55.625l-17.532-3.516v8.985l17.438 3.515h9.86V8.296H54.39V0H12.406z" id="DejaVuSans-49"/></defs><use xlink:href="#DejaVuSans-49"/><use x="63.623" xlink:href="#DejaVuSans-48"/><use x="127.246" xlink:href="#DejaVuSans-48"/><use x="190.869" xlink:href="#DejaVuSans-48"/><use x="254.492" xlink:href="#DejaVuSans-48"/></g></g><g id="ytick_7"><g style="fill:#696969" transform="matrix(.16 0 0 -.16 56.6 106.725)" id="text_18"><use xlink:href="#DejaVuSans-49"/><use x="63.623" xlink:href="#DejaVuSans-50"/><use x="127.246" xlink:href="#DejaVuSans-48"/><use x="190.869" xlink:href="#DejaVuSans-48"/><use x="254.492" xlink:href="#DejaVuSans-48"/></g></g><g style="fill:#696969" transform="matrix(0 -.2 -.2 0 48.44 379.813)" id="text_19"><defs><path d="M51.125 44H36.922l-4.11-16.313h14.313zm-7.328 27.781-5.078-20.265h14.265L58.11 71.78h7.813L60.89 51.516h15.234V44h-17.14l-4-16.313h15.53V20.22H53.079L48 0h-7.813l5.032 20.219H30.906L25.875 0h-7.86l5.079 20.219H7.719v7.468h17.187L29 44H13.281v7.516h17.625l4.985 20.265z" id="DejaVuSans-35"/><path d="M37.11 75.984V68.5h-8.594q-4.828 0-6.72-1.953-1.874-1.953-1.874-7.031v-4.828h14.797v-6.985H19.922V0H10.89v47.703H2.297v6.984h8.594V58.5q0 9.125 4.25 13.297 4.25 4.187 13.468 4.187z" id="DejaVuSans-102"/><path d="M48.781 52.594v-8.407q-3.812 2.11-7.64 3.157-3.828 1.047-7.735 1.047-8.75 0-13.593-5.547-4.829-5.532-4.829-15.547 0-10.016 4.829-15.563 4.843-5.53 13.593-5.53 3.907 0 7.735 1.046 3.828 1.047 7.64 3.156V2.094Q45.016.344 40.984-.531q-4.015-.89-8.562-.89-12.36 0-19.64 7.765-7.266 7.765-7.266 20.953 0 13.375 7.343 21.031Q20.22 56 33.016 56q4.14 0 8.093-.86 3.953-.843 7.672-2.546z" id="DejaVuSans-99"/><path d="M44.281 53.078v-8.5q-3.797 1.953-7.906 2.922-4.094.984-8.5.984-6.688 0-10.031-2.047-3.344-2.046-3.344-6.156 0-3.125 2.39-4.906 2.391-1.781 9.626-3.39l3.078-.688q9.562-2.047 13.593-5.781 4.032-3.735 4.032-10.422 0-7.625-6.032-12.078-6.03-4.438-16.578-4.438-4.39 0-9.156.86Q10.688.296 5.422 2v9.281q4.984-2.594 9.812-3.89 4.829-1.282 9.579-1.282 6.343 0 9.75 2.172 3.421 2.172 3.421 6.125 0 3.656-2.468 5.61-2.453 1.953-10.813 3.765l-3.125.735q-8.344 1.75-12.062 5.39-3.704 3.64-3.704 9.985 0 7.718 5.47 11.906Q16.75 56 26.811 56q4.97 0 9.36-.734 4.406-.72 8.11-2.188z" id="DejaVuSans-115"/></defs><use xlink:href="#DejaVuSans-35"/><use x="83.789" xlink:href="#DejaVuSans-32"/><use x="115.576" xlink:href="#DejaVuSans-111"/><use x="176.758" xlink:href="#DejaVuSans-102"/><use x="211.963" xlink:href="#DejaVuSans-32"/><use x="243.75" xlink:href="#DejaVuSans-99"/><use x="298.73" xlink:href="#DejaVuSans-97"/><use x="360.01" xlink:href="#DejaVuSans-115"/><use x="412.109" xlink:href="#DejaVuSans-101"/><use x="473.633" xlink:href="#DejaVuSans-115"/></g></g><g style="fill:#696969" transform="matrix(.24 0 0 -.24 209.82 71.76)" id="text_20"><defs><path d="M-.297 72.906h61.672v-8.312H35.5V0h-9.906v64.594H-.296z" id="DejaVuSans-84"/><path d="M18.313 70.219V54.688h18.5v-6.985h-18.5V18.016q0-6.688 1.828-8.594 1.828-1.906 7.453-1.906h9.218V0h-9.218q-10.407 0-14.36 3.875-3.953 3.89-3.953 14.14v29.688H2.687v6.984h6.594V70.22z" id="DejaVuSans-116"/><path d="M25.39 72.906h8.297L8.297-9.28H0z" id="DejaVuSans-47"/><path d="M9.813 72.906h9.859V42.094L52.39 72.906h12.703L28.906 38.922 67.672 0H54.688L19.672 35.11V0h-9.86z" id="DejaVuSans-75"/><path d="M9.422 54.688h8.984V0H9.422zm0 21.296h8.984v-11.39H9.422z" id="DejaVuSans-105"/><path d="M45.406 46.39v29.594h8.985V0h-8.985v8.203Q42.578 3.328 38.25.953q-4.313-2.375-10.375-2.375-9.906 0-16.14 7.906-6.22 7.922-6.22 20.813 0 12.89 6.22 20.797Q17.968 56 27.874 56q6.063 0 10.375-2.375 4.328-2.36 7.156-7.234zm-30.61-19.093q0-9.906 4.079-15.547 4.078-5.64 11.203-5.64 7.125 0 11.219 5.64 4.11 5.64 4.11 15.547 0 9.906-4.11 15.547-4.094 5.64-11.219 5.64-7.125 0-11.203-5.64-4.078-5.64-4.078-15.547z" id="DejaVuSans-100"/><path d="M4.89 31.39h26.313v-8H4.891z" id="DejaVuSans-45"/><path d="M8.203 72.906h46.875v-4.203L28.61 0H18.312L43.22 64.594H8.203z" id="DejaVuSans-55"/><path d="M45.406 27.984q0 9.766-4.031 15.125-4.016 5.375-11.297 5.375-7.219 0-11.25-5.375-4.031-5.359-4.031-15.125 0-9.718 4.031-15.093t11.25-5.375q7.281 0 11.297 5.375 4.031 5.375 4.031 15.093zm8.985-21.203q0-13.953-6.203-20.765Q42-20.797 29.203-20.797q-4.734 0-8.937.703-4.203.703-8.157 2.172v8.735q3.954-2.141 7.813-3.157 3.86-1.031 7.86-1.031 8.843 0 13.234 4.61 4.39 4.609 4.39 13.937v4.453q-2.781-4.844-7.125-7.234Q33.938 0 27.875 0 17.828 0 11.672 7.656q-6.156 7.672-6.156 20.328 0 12.688 6.156 20.344Q17.828 56 27.875 56q6.063 0 10.406-2.39 4.344-2.391 7.125-7.22v8.297h8.985z" id="DejaVuSans-103"/></defs><use xlink:href="#DejaVuSans-84"/><use x="44.084" xlink:href="#DejaVuSans-111"/><use x="105.266" xlink:href="#DejaVuSans-116"/><use x="144.475" xlink:href="#DejaVuSans-97"/><use x="205.754" xlink:href="#DejaVuSans-108"/><use x="233.537" xlink:href="#DejaVuSans-32"/><use x="265.324" xlink:href="#DejaVuSans-99"/><use x="320.305" xlink:href="#DejaVuSans-97"/><use x="381.584" xlink:href="#DejaVuSans-115"/><use x="433.684" xlink:href="#DejaVuSans-101"/><use x="495.207" xlink:href="#DejaVuSans-115"/><use x="547.307" xlink:href="#DejaVuSans-32"/><use x="579.094" xlink:href="#DejaVuSans-47"/><use x="612.785" xlink:href="#DejaVuSans-32"/><use x="644.572" xlink:href="#DejaVuSans-49"/><use x="708.195" xlink:href="#DejaVuSans-48"/><use x="771.818" xlink:href="#DejaVuSans-48"/><use x="835.441" xlink:href="#DejaVuSans-75"/><use x="901.018" xlink:href="#DejaVuSans-32"/><use x="932.805" xlink:href="#DejaVuSans-114"/><use x="971.668" xlink:href="#DejaVuSans-101"/><use x="1033.191" xlink:href="#DejaVuSans-115"/><use x="1085.291" xlink:href="#DejaVuSans-105"/><use x="1113.074" xlink:href="#DejaVuSans-100"/><use x="1176.551" xlink:href="#DejaVuSans-101"/><use x="1238.074" xlink:href="#DejaVuSans-110"/><use x="1301.453" xlink:href="#DejaVuSans-116"/><use x="1340.662" xlink:href="#DejaVuSans-115"/><use x="1392.762" xlink:href="#DejaVuSans-32"/><use x="1424.549" xlink:href="#DejaVuSans-45"/><use x="1460.633" xlink:href="#DejaVuSans-45"/><use x="1496.717" xlink:href="#DejaVuSans-32"/><use x="1528.504" xlink:href="#DejaVuSans-55"/><use x="1592.127" xlink:href="#DejaVuSans-32"/><use x="1623.914" xlink:href="#DejaVuSans-100"/><use x="1687.391" xlink:href="#DejaVuSans-97"/><use x="1748.67" xlink:href="#DejaVuSans-121"/><use x="1807.85" xlink:href="#DejaVuSans-32"/><use x="1839.637" xlink:href="#DejaVuSans-97"/><use x="1900.916" xlink:href="#DejaVuSans-118"/><use x="1960.096" xlink:href="#DejaVuSans-101"/><use x="2021.619" xlink:href="#DejaVuSans-114"/><use x="2062.732" xlink:href="#DejaVuSans-97"/><use x="2124.012" xlink:href="#DejaVuSans-103"/><use x="2187.488" xlink:href="#DejaVuSans-101"/></g><g id="legend_1"><path d="M128.2 184.5h136.45q3.2 0 3.2-3.2V88.96q0-3.2-3.2-3.2H128.2q-3.2 0-3.2 3.2v92.34q0 3.2 3.2 3.2z" style="fill:none;opacity:.8;stroke:#ccc;stroke-linejoin:miter" id="patch_5"/><path d="M131.4 98.718h32" style="fill:none;stroke:#000;stroke-linecap:round;stroke-width:1.5" id="line2d_5"/><g style="fill:#696969" transform="matrix(.16 0 0 -.16 176.2 104.317)" id="text_21"><defs><path d="M8.688 72.906h9.921V28.61q0-11.718 4.235-16.875 4.25-5.14 13.781-5.14 9.469 0 13.719 5.14 4.25 5.157 4.25 16.875v44.297H64.5V27.391q0-14.25-7.063-21.532-7.046-7.28-20.812-7.28-13.828 0-20.89 7.28-7.047 7.282-7.047 21.532z" id="DejaVuSans-85"/></defs><use xlink:href="#DejaVuSans-85"/><use x="73.193" xlink:href="#DejaVuSans-83"/></g><path d="M131.4 122.203h32" style="fill:none;stroke:#009e73;stroke-linecap:round;stroke-width:1.5" id="line2d_7"/><g style="fill:#696969" transform="matrix(.16 0 0 -.16 176.2 127.802)" id="text_22"><use xlink:href="#DejaVuSans-78"/><use x="74.805" xlink:href="#DejaVuSans-74"/></g><path d="M131.4 145.688h32" style="fill:none;stroke:#d55e00;stroke-linecap:round;stroke-width:1.5" id="line2d_9"/><g style="fill:#696969" transform="matrix(.16 0 0 -.16 176.2 151.287)" id="text_23"><defs><path d="M19.672 34.813V8.108H35.5q7.953 0 11.781 3.297 3.844 3.297 3.844 10.078 0 6.844-3.844 10.078-3.828 3.25-11.781 3.25zm0 29.984V42.828h14.61q7.218 0 10.75 2.703 3.546 2.719 3.546 8.282 0 5.515-3.547 8.25-3.531 2.734-10.75 2.734zm-9.86 8.11h25.204q11.28 0 17.375-4.688Q58.5 63.53 58.5 54.89q0-6.703-3.125-10.657-3.125-3.953-9.188-4.922 7.282-1.562 11.313-6.53 4.031-4.954 4.031-12.376 0-9.765-6.64-15.093Q48.25 0 35.984 0H9.812z" id="DejaVuSans-66"/></defs><use xlink:href="#DejaVuSans-66"/><use x="68.604" xlink:href="#DejaVuSans-101"/><use x="130.127" xlink:href="#DejaVuSans-114"/><use x="169.49" xlink:href="#DejaVuSans-103"/><use x="232.967" xlink:href="#DejaVuSans-101"/><use x="294.49" xlink:href="#DejaVuSans-110"/></g><path d="M131.4 169.173h32" style="fill:none;stroke:#0072b2;stroke-linecap:round;stroke-width:1.5" id="line2d_11"/><g style="fill:#696969" transform="matrix(.16 0 0 -.16 176.2 174.773)" id="text_24"><defs><path d="M44.39 34.188q3.172-1.079 6.172-4.594 3-3.516 6.032-9.672L66.609 0H56l-9.313 18.703q-3.624 7.328-7.015 9.719-3.39 2.39-9.25 2.39h-10.75V0h-9.86v72.906h22.266q12.5 0 18.656-5.234 6.157-5.219 6.157-15.766 0-6.89-3.203-11.437-3.204-4.532-9.297-6.282zM19.673 64.797V38.922h12.406q7.125 0 10.766 3.297 3.64 3.297 3.64 9.687 0 6.39-3.64 9.64-3.64 3.25-10.766 3.25z" id="DejaVuSans-82"/><path d="M54.89 33.016V0h-8.984v32.719q0 7.765-3.031 11.61-3.031 3.858-9.078 3.858-7.281 0-11.484-4.64-4.204-4.625-4.204-12.64V0H9.08v75.984h9.03V46.188q3.235 4.937 7.594 7.374Q30.078 56 35.797 56q9.422 0 14.25-5.828 4.844-5.828 4.844-17.156z" id="DejaVuSans-104"/></defs><use xlink:href="#DejaVuSans-82"/><use x="64.982" xlink:href="#DejaVuSans-117"/><use x="128.361" xlink:href="#DejaVuSans-116"/><use x="167.57" xlink:href="#DejaVuSans-104"/><use x="230.949" xlink:href="#DejaVuSans-101"/><use x="292.473" xlink:href="#DejaVuSans-114"/><use x="333.586" xlink:href="#DejaVuSans-102"/><use x="368.791" xlink:href="#DejaVuSans-111"/><use x="429.973" xlink:href="#DejaVuSans-114"/><use x="469.336" xlink:href="#DejaVuSans-100"/></g></g></g></g><defs><clipPath id="pf3d73e167f"><path d="M117 77.76h725.4v498.96H117z"/></clipPath></defs></svg>